<?xml version="1.0" encoding="UTF-8"?>
<svg id="Enemy" xmlns="http://www.w3.org/2000/svg" viewBox="0 0 68.73 147.31">
  <defs>
    <style>
      .cls-1 {
        fill: #6d453f;
      }

      .cls-2 {
        fill: #fdfae6;
      }

      .cls-3 {
        fill: #d9b5a6;
      }

      .cls-4 {
        fill: #202125;
      }

      .cls-5 {
        fill: #1b0c09;
      }

      .cls-6 {
        fill: #704c47;
      }

      .cls-7 {
        fill: #48291d;
      }

      .cls-8 {
        fill: #f7d8c1;
      }

      .cls-9 {
        fill: #3a271d;
      }

      .cls-10 {
        fill: #b2736d;
      }

      .cls-11 {
        fill: #e9b5b2;
      }

      .cls-12 {
        fill: #35241c;
      }

      .cls-13 {
        fill: #100f18;
      }

      .cls-14 {
        fill: #323545;
      }

      .cls-15 {
        fill: #272424;
      }

      .cls-16 {
        fill: #c4b9b8;
      }

      .cls-17 {
        fill: #262944;
      }

      .cls-18 {
        fill: #fef5dc;
      }

      .cls-19 {
        fill: #c7b7ac;
      }

      .cls-20 {
        fill: #553c33;
      }

      .cls-21 {
        fill: #2c1a19;
      }

      .cls-22 {
        fill: #8f5351;
      }

      .cls-23 {
        fill: #eabfa6;
      }

      .cls-24 {
        fill: #323755;
      }

      .cls-25 {
        fill: #896e60;
      }

      .cls-26 {
        fill: #141b2c;
      }

      .cls-27 {
        fill: #ba8260;
      }

      .cls-28 {
        fill: #3d2524;
      }

      .cls-29 {
        fill: #fefbe6;
      }

      .cls-30 {
        fill: #504038;
      }

      .cls-31 {
        fill: #f4ddc5;
      }

      .cls-32 {
        fill: #181512;
      }

      .cls-33 {
        fill: #4a3127;
      }

      .cls-34 {
        fill: #a96d6d;
      }

      .cls-35 {
        fill: #1b213b;
      }

      .cls-36 {
        fill: #010113;
      }

      .cls-37 {
        fill: #593c2f;
      }

      .cls-38 {
        fill: #50322f;
      }

      .cls-39 {
        fill: #8a4d4e;
      }

      .cls-40 {
        fill: #583d31;
      }

      .cls-41 {
        fill: #0b070b;
      }

      .cls-42 {
        fill: #e3c2ad;
      }

      .cls-43 {
        fill: #706861;
      }

      .cls-44 {
        fill: #8a5c50;
      }

      .cls-45 {
        fill: #5c3521;
      }

      .cls-46 {
        fill: #c4a79b;
      }

      .cls-47 {
        fill: #edc9b3;
      }

      .cls-48 {
        fill: #040b17;
      }

      .cls-49 {
        fill: #69544f;
      }

      .cls-50 {
        fill: #9e5f5f;
      }

      .cls-51 {
        fill: #1f2540;
      }

      .cls-52 {
        fill: #d9c7bc;
      }

      .cls-53 {
        fill: #7f4944;
      }

      .cls-54 {
        fill: #6f5f58;
      }

      .cls-55 {
        fill: #513529;
      }

      .cls-56 {
        fill: #756b63;
      }

      .cls-57 {
        fill: #c9b9ad;
      }

      .cls-58 {
        fill: #343957;
      }

      .cls-59 {
        fill: #392921;
      }

      .cls-60 {
        fill: #0c0d13;
      }

      .cls-61 {
        fill: #945754;
      }

      .cls-62 {
        fill: #6f4938;
      }

      .cls-63 {
        fill: #884d4a;
      }

      .cls-64 {
        fill: #ecbea6;
      }

      .cls-65 {
        fill: #ead6c9;
      }

      .cls-66 {
        fill: #612222;
      }

      .cls-67 {
        fill: #643f38;
      }

      .cls-68 {
        fill: #5f2827;
      }

      .cls-69 {
        fill: #f7e7d0;
      }

      .cls-70 {
        fill: #3d2923;
      }

      .cls-71 {
        fill: #111726;
      }

      .cls-72 {
        fill: #867367;
      }

      .cls-73 {
        fill: #b99d91;
      }

      .cls-74 {
        fill: #614434;
      }

      .cls-75 {
        fill: #7a766e;
      }

      .cls-76 {
        fill: #201611;
      }

      .cls-77 {
        fill: #1b1e31;
      }

      .cls-78 {
        fill: #d09879;
      }

      .cls-79 {
        fill: #47403c;
      }

      .cls-80 {
        fill: #c5b2a7;
      }

      .cls-81 {
        fill: #fbe7cf;
      }

      .cls-82 {
        fill: #bb9f90;
      }

      .cls-83 {
        fill: #6d403c;
      }

      .cls-84 {
        fill: #8b7065;
      }

      .cls-85 {
        fill: #ad917e;
      }

      .cls-86 {
        fill: #343432;
      }

      .cls-87 {
        fill: #431b17;
      }

      .cls-88 {
        fill: #40372e;
      }

      .cls-89 {
        fill: #f5dbc2;
      }

      .cls-90 {
        fill: #d9b6a0;
      }

      .cls-91 {
        fill: #1f1e1c;
      }

      .cls-92 {
        fill: #463d37;
      }

      .cls-93 {
        fill: #aa8c7b;
      }

      .cls-94 {
        fill: #77524b;
      }

      .cls-95 {
        fill: #1f2333;
      }

      .cls-96 {
        fill: #9b6065;
      }

      .cls-97 {
        fill: #14192d;
      }

      .cls-98 {
        fill: #755240;
      }

      .cls-99 {
        fill: #6a6463;
      }

      .cls-100 {
        fill: #181f37;
      }

      .cls-101 {
        fill: #4b4747;
      }

      .cls-102 {
        fill: #181e39;
      }

      .cls-103 {
        fill: #4b3423;
      }

      .cls-104 {
        fill: #a47458;
      }

      .cls-105 {
        fill: #e9c5ad;
      }

      .cls-106 {
        fill: #807d7c;
      }

      .cls-107 {
        fill: #a68e7f;
      }

      .cls-108 {
        fill: #6a442a;
      }

      .cls-109 {
        fill: #c89f8c;
      }

      .cls-110 {
        fill: #ae9b8a;
      }

      .cls-111 {
        fill: #1d1a27;
      }

      .cls-112 {
        fill: #5b413d;
      }

      .cls-113 {
        fill: #f1caba;
      }

      .cls-114 {
        fill: #6f493b;
      }

      .cls-115 {
        fill: #512a1c;
      }

      .cls-116 {
        fill: #2a1c11;
      }

      .cls-117 {
        fill: #4d2428;
      }

      .cls-118 {
        fill: #ab8d78;
      }

      .cls-119 {
        fill: #f2e4d8;
      }

      .cls-120 {
        fill: #0c0f17;
      }

      .cls-121 {
        fill: #f4e6d1;
      }

      .cls-122 {
        fill: #ca906a;
      }

      .cls-123 {
        fill: #fce6d9;
      }

      .cls-124 {
        fill: #59191b;
      }

      .cls-125 {
        fill: #a9686e;
      }

      .cls-126 {
        fill: #33322d;
      }

      .cls-127 {
        fill: #563a36;
      }

      .cls-128 {
        fill: #623c2d;
      }

      .cls-129 {
        fill: #a4816d;
      }

      .cls-130 {
        fill: #4c443c;
      }

      .cls-131 {
        fill: #63382b;
      }

      .cls-132 {
        fill: #16171f;
      }

      .cls-133 {
        fill: #251714;
      }

      .cls-134 {
        fill: #9d5d54;
      }

      .cls-135 {
        fill: #55372b;
      }

      .cls-136 {
        fill: #554439;
      }

      .cls-137 {
        fill: #040206;
      }

      .cls-138 {
        fill: #543224;
      }

      .cls-139 {
        fill: #e6b7ad;
      }

      .cls-140 {
        fill: #50362f;
      }

      .cls-141 {
        fill: #eec5b4;
      }

      .cls-142 {
        fill: #0e0000;
      }

      .cls-143 {
        fill: #5d3a2b;
      }

      .cls-144 {
        fill: #8b5251;
      }

      .cls-145 {
        fill: #532423;
      }

      .cls-146 {
        fill: #facfb3;
      }

      .cls-147 {
        fill: #fcddc1;
      }

      .cls-148 {
        fill: #1b1a1a;
      }

      .cls-149 {
        fill: #5d3624;
      }

      .cls-150 {
        fill: #534b4d;
      }

      .cls-151 {
        fill: #eacab4;
      }

      .cls-152 {
        fill: #8d7a70;
      }

      .cls-153 {
        fill: #8d705e;
      }

      .cls-154 {
        fill: #f2d8cb;
      }

      .cls-155 {
        fill: #4b2d1e;
      }

      .cls-156 {
        fill: #64554d;
      }

      .cls-157 {
        fill: #192135;
      }

      .cls-158 {
        fill: #864342;
      }

      .cls-159 {
        fill: #7e5a45;
      }

      .cls-160 {
        fill: #967966;
      }

      .cls-161 {
        fill: #ebc4af;
      }

      .cls-162 {
        fill: #3b251f;
      }

      .cls-163 {
        fill: #191e2c;
      }

      .cls-164 {
        fill: #fef9dd;
      }

      .cls-165 {
        fill: #161921;
      }

      .cls-166 {
        fill: #0c0100;
      }

      .cls-167 {
        fill: #222747;
      }

      .cls-168 {
        fill: #71594e;
      }

      .cls-169 {
        fill: #806051;
      }

      .cls-170 {
        fill: #c59c8b;
      }

      .cls-171 {
        fill: #3d120e;
      }

      .cls-172 {
        fill: #171b30;
      }

      .cls-173 {
        fill: #1f201c;
      }

      .cls-174 {
        fill: #14192c;
      }

      .cls-175 {
        fill: #efd7bd;
      }

      .cls-176 {
        fill: #9f7e6d;
      }

      .cls-177 {
        fill: #402316;
      }

      .cls-178 {
        fill: #753639;
      }

      .cls-179 {
        fill: #fdf6dc;
      }

      .cls-180 {
        fill: #bfa08d;
      }

      .cls-181 {
        fill: #4d2313;
      }

      .cls-182 {
        fill: #91674f;
      }

      .cls-183 {
        fill: #453225;
      }

      .cls-184 {
        fill: #c8a28e;
      }

      .cls-185 {
        fill: #060805;
      }

      .cls-186 {
        fill: #d9af99;
      }

      .cls-187 {
        fill: #1b1b27;
      }

      .cls-188 {
        fill: #533c23;
      }

      .cls-189 {
        fill: #ecc2ab;
      }

      .cls-190 {
        fill: #c39d8a;
      }

      .cls-191 {
        fill: #735038;
      }

      .cls-192 {
        fill: #291814;
      }

      .cls-193 {
        fill: #3c1808;
      }

      .cls-194 {
        fill: #a9907f;
      }

      .cls-195 {
        fill: #967b6f;
      }
    </style>
  </defs>
  <g id="BadBlob">
    <path class="cls-38" d="M8.81,48.2c.97-.89,1.53-.78,1.69.33,2.69.88,2.42,2.03-.38,2.57-1.99.93-3.9.67-5.42-.91l-1.38-1.37c.05-.29.03-.59.1-.88-.45-1.74-.51-3.88,1.47-3.87,2.78-.73,3.5,1.82,3.92,4.13Z"/>
    <path class="cls-165" d="M8.66,64.33c2.26.8,2.77,1.6.29,2.63,1.68,2.18-.63,4.27-3.07,4.14-.28.87-.62.86-1,0-.81-.12-.83-.84-.06-2.16.3-.9.47-1.87.91-2.72.25-.47.88-.77,1.16-1.24-.29-.99,0-1.22.89-.68.27-.64.56-.62.87.02Z"/>
    <path class="cls-103" d="M12.78,52.09c2.15.61,2.32,3.08.12,2.01-2.37,2.39-3.68,2.29-3.93-.28-.65-.43-1.41-.62-2.18-.67-.58-1.57.53-2.25,3.34-2.05,1.62-2.09,2.58-1.53,2.66.99Z"/>
    <path class="cls-84" d="M12.89,54.1c.87.31.86.67,0,1.08.01,1.95-.53,3.45-1.62,4.5,1.66.64,1.49,1.47-.38,1.42-1.13.22-1.79-1.12-2-4v-2l.07-1.28,3.93.28Z"/>
    <path class="cls-133" d="M10.11,51.1c-.72,1.16-2.17,1.51-3.34,2.05-.88-.84-1.46-1.92-2.08-2.96,1.89-.28,3.74.03,5.42.91Z"/>
    <path class="cls-12" d="M5.87,128.37c1.78.6,1.69,1.38-.17,1.58,1.75,3.53,1.72,7.41-2.82,7.28.7,1.68.32,4.1.02,5.87,1.66,1.38,1.28,2.24-.85,1.98-1.04-.24-1.93-.47-2.03-1.55-.08-.86.36-1.69.13-2.35,1.7-4.2,2.8-8.67,3.93-13.1.75-2.93,2.57-5.82,2.97-8.84-.65-2.32.05-5.51,2.88-5.26,1.37-.94,2.02,5.3,1.93,6.14-.36,3.17-3.13,7.34-5.98,8.26Z"/>
    <path class="cls-142" d="M6.85,145.04c-.54.25-1.05.95-1.72.94-1.08-.03-2.07-.66-3.09-.9.44-.58.71-1.26.85-1.98.32-.86.65-.83.99.06,2.34-2.13,3.92-1.15,2.97,1.88Z"/>
    <path class="cls-36" d="M4.89,71.1c2.39,2.28,2.44,6.64,1.27,9.29,1.11,2.04,2.29,6.08-1.16,3.78-.87-2.24-1.9-4.72-2.25-7.15-.4-2.8.08-6.15,2.08-8.09l.06,2.16Z"/>
    <path class="cls-132" d="M7.62,80.13c1.51.94,1.91,2.59,1.2,4.95,2.17.14,2.91.75,2.24,1.81,1.72,2.06,1.4,2.65-1.26,2.17-.75.85-1.39.78-1.94-.21-1.68-.95-2.2-2.96-2.87-4.68,1.48-.15,1.8-2.63,1.16-3.78-.1-1.95.68-2.08,1.45-.26Z"/>
    <path class="cls-21" d="M6.65,42.22c.49,2.14.42,2.46-1.76,1.86-.85,1.12-1.15,2.52-1.47,3.87-1.71-1.73-.53-4.74.27-6.82,1.08-1.07,3.48-.84,2.97,1.09Z"/>
    <path class="cls-117" d="M6.93,39.78c2.09-.49,3.08-.05,2.96,1.33,1.41-1.01,1.97-.56,1,1,.87,2.47.25,2.69-1.82,1.1-1.52,2.2-2.29,1.7-2.42-.99-.81-.75-1.84-1.1-2.97-1.09-.05-.31-.05-.64-.11-.95,1.11-.2,2.23-.36,3.36-.4Z"/>
    <path class="cls-104" d="M19.25,50.26c.6-1.38,2.58-.71,2.54.77.88.28.91.63.1,1.07-1.28,1.74-5.21,2.59-6,1-.73,1.44-1.77,1.11-3.12-1.01-.75.19-2.02-.66-2.66-.99.45-.73.25-1.77.38-2.57-.94-1.14.2-1.95,1.49-2.22.32-1.47.99-1.39,1.08.08,2.28,1.13,4.35,2.42,6.19,3.86Z"/>
    <path class="cls-83" d="M9.07,43.21c2.46-.54,4.38.53,2.92,3.11-1.1.71-2.16,1.34-3.18,1.89-2.3.46-2.77-2.58-3.92-4.13.21-.91.81-1.7,1.76-1.86.55.51,2.02.32,2.42.99Z"/>
    <path class="cls-181" d="M11.99,46.32c-.04.95-1.34,1.28-1.49,2.22-.28.3-.73.54-1.1.31-.25-.16-.42-.42-.59-.64.55-1.36,1.64-2.77,3.18-1.89Z"/>
    <path class="cls-26" d="M11.94,67.21c-.15,1.09,1.8,2.13,5.87,3.12,2.11,4.11-.14,8.44-3.71,4.71-.56.79-.96.47-1.21-.94-.65-5.02-1.58,2.92-.03,5.06,4.93,2.51,1.26,8.46-4.04,5.92-2.49-.47-1.77-2.96-1.2-4.95l-1.02-1.23c.23-2.76,0-5.36-.71-7.8.31-1.79,1.81-2.93,3.07-4.14.02-2.58,3.45-1.88,2.98.25Z"/>
    <path class="cls-111" d="M19.95,66.14c1.1-1.12,2.77-.74,4.99,1.15,1.15-2.54,4.82-2.08,4.93.88,2.25.11,4.26.42,6.03.93.98,2.14-4.05,1.77-6,1-3.05.64-8.01,1.68-9.9-.26-2.29,1.61-6.13-.62-8.05-2.64-.31-.39-.73-1.09-1.33-.93-.54.14-1.26.3-1.65.68l-.29-2.63c.25-.94.66-1.02,1.23-.23,3.47.17,6.82.85,10.05,2.04Z"/>
    <path class="cls-102" d="M7.62,80.13l-1.45.26c-2.23-4.05-1.05-1.13-1.27-9.29h1c.15,1.65,3.05,2,2.98,3.83-.07,1.96-.85,3.75-1.26,5.2Z"/>
    <path class="cls-16" d="M8.89,57.1c1.37,3.1,1.3,5.51-.23,7.23-.33.13-.58.3-.87-.02.68-2.75-1.12-6.26,1.1-8.2v1Z"/>
    <path class="cls-191" d="M15.89,53.1c.59.8.14,1.99-.86,2.23-.06.9-.36.91-.9.11-.21,1.95-1.01,1.77-1.24-.25v-1.08c.82-.04.96-.57.6-1.01s-.49-.78-.72-1c1.36-.35,2.06.76,3.12,1.01Z"/>
    <path class="cls-85" d="M12.89,55.18l1.24.25c2.26.12,2.79,1.49,1.07,2.98l1.56,2.8c.9.13.88.4,0,.81.49.2.43.46-.08.76-2.43,1.64-4.53-.62-5.42-3.1-.22-.98-.42-1.94-.4-3.08.02-.99.83-1.64,2.02-1.42Z"/>
    <path class="cls-160" d="M16.69,62.78c.87-.34,1.71.35,1.54,1.19-.88,2.06-6.36.99-7.33-.87-1.56.01-1.49-1.6,0-2,0-.48.32-.94.38-1.42,2.33-2.01,1.28,3.54,5.42,3.1Z"/>
    <path class="cls-49" d="M10.89,61.1v2c.32.99-.01,1.32-1,1-.39.12-.84.08-1.23.23.29-2.4.23-4.81.23-7.23l2,4Z"/>
    <path class="cls-64" d="M28.96,28.17c2.19-1.26,5.97,1.3,4.05,3.86-.2,1.3-.77,2.23-1.95,1.76-2.55-3.79-6.7-2.84-10.15-1.78-1.3,1.92-2.67,2.93-4.1,3.04-1.28,2.37-1.81,2.33-2.71-.2-2.35-.02-.58-2.58.79-3.76.52-.05.91-.84,1.41-1l4.21-3.61,1.31.67c3.28-1.26,5.66-.92,7.13,1.01Z"/>
    <path class="cls-107" d="M14.89,31.1l-.79,3.76c.68,2.3-.02,2.54-2.21,2.24-.28.87-.62.86-1,0-.84.39-1.14.01-1-1,.06-.32,0-.62-.22-.87,2.38-.68,2.62-3.9,5.22-4.13Z"/>
    <path class="cls-151" d="M12.66,39.94c.19,1.35-1.55,1.36-2.77,1.17-1.1-.13-2.14-.57-2.96-1.33.17-.29.5-.71.88-.72.95-1.07,1.98-1.72,3.08-1.96h1c2.75-.86,3.2,1.41.77,2.83Z"/>
    <path class="cls-72" d="M10.89,37.1c-.38,1.39-1.73,1.93-3.08,1.96.44-1.14,1.07-2.24,2.08-2.96.37.3.7.63,1,1Z"/>
    <path class="cls-68" d="M52.19,3.99c.87.65,2.01.95,2.77,1.77,1.23,1.57.74,2.21-1.08,1.34.58,1.02,1.05,2.18,0,3,2.04.37,1.84,1.26-.32,1.39-.42.95-.94,1-1.54.16-2.19-1.26-3.49-2.79-3.89-4.58-1.4-1.59-1.78-2.8-1.13-3.64-.74-1.7-.09-1.84,1.39-.71,1.23.05,2.71.46,3.8,1.26Z"/>
    <path class="cls-158" d="M60.01,9.04c.82.36,1.18,1.21.98,2.07-.97,1.35-3.44,1.15-5.1,1,.4,1.94-.33,2.06-1.3.29-.8,2.61-2.74.41-1.02-.9.3-.38.32-.92.32-1.39v-3c.47-.28.66-.99,1.08-1.34.19.12.69.27.92.22,1.34.96,2.72,1.97,4.12,3.05Z"/>
    <path class="cls-109" d="M27.17,24.07c1.5,0,2.83,2.84,1.79,4.1-.05-.12-9.6.6-7.13-1.01,1.13-.3,2.01-1.36,2.91-2.02.4-.3.7-.81,1.16-1.04.35-.17.9.08,1.28-.03Z"/>
    <path class="cls-53" d="M57.89,5.98c.6,1.09,1.34,2.09,2.12,3.06-1.98.16-3.5-1.24-4.12-3.05.56-.12,1.48.27,2,0Z"/>
    <path class="cls-96" d="M36.89,6.1c.51.27.48.61,0,1,.31,1.81-2.51,1.47-3.03-.03.48-.51.42-1.63,1.03-1.98l1.96-1.14c1.97.56,1.97,1.49.04,2.15Z"/>
    <path class="cls-149" d="M9.73,139.01c.68-1.41,1.37-1.32,1.43.29,2.65.05,5.4,1.27,2.72,3.7-.33.49-.68.46-1.03-.04.02,1.34-1.28,2-3.9,1.98-.33.8-.66.74-1.01-.1-.33.02-.79.07-1.09.21-.75-.94-1.86-1.46-2.97-1.88-1.28-.8-1.24-3.66.32-3.9,1.14-2.57,3.96-2.27,5.52-.25Z"/>
    <path class="cls-177" d="M12.85,142.95l3.93.91c1.78-.23,2.82.18,3.12,1.24,3.15-.73,1.62,1.67-1,2.03-1.21.12-2.87-.45-4-.21-3.39.37-5.37-.29-5.94-1.99.08-1.89,2.48-1.51,3.9-1.98Z"/>
    <path class="cls-92" d="M22.89,145.1c-.73.74-1.06,1.95-2.26,2.21-.58.01-1.17-.24-1.74-.18.4-.28.68-.75,1.4-1.08.76-.34.71-.94-.4-.95-1.94-2.2,4.2-2.77,3,0Z"/>
    <path class="cls-155" d="M13.9,111.23c.86.25.78.51-.13.79.74,1.71.87,3.62.38,5.75,1.32.76,1.54,1.53.93,3.14,2.25,3.7.2,6.74-3.42,8.28-.86,2.22-5.54,1.92-5.79-.82,2.02-4.47,5.8-9.49,4.05-14.4.23-1.95,1.79-3.5,2.94-4.9.54.12.88.84,1.04,2.16Z"/>
    <path class="cls-155" d="M13.01,134.25c-.02.78.54,1.1,1.7.95,2.59-.65,4.56,1.26,2.49,3.53-.83,2.78-2.89,2.85-3.23-.26-1.49-.42-2.91-.25-4.25.53-1.66.98-3.68.37-5.52.25-.92-.03-1.36-.71-1.33-2.03,1.23-2.37,3.37-4.3,2.82-7.28,2.67.92,5.11,2.35,7.31,4.3Z"/>
    <path class="cls-37" d="M11.66,129.19c.83.79,1.36,2.19,1.57,4.17.81.4.71.69-.22.88-3.62.96-5.98-.95-7.31-4.3-.07-.4.06-1.2.17-1.58,1.35.47,2.77.12,3.57-1.2.79,1.55,1.16,2.67,2.22,2.02Z"/>
    <path class="cls-143" d="M4.21,139.25l-.32,3.9c-.3-.11-.68.02-.99-.06-1.2-1.17-.85-4.27-.02-5.87.96-.25,1.39,1.31,1.33,2.03Z"/>
    <path class="cls-174" d="M14.1,75.04c4.17,2.33,5.16,7.22,4.18,11.92l3.2,6.49c2.04-.27,3.12,2.07,1.54,3.45,1.83.22,3.3,4.53,2.86,6.39l2.45-.04c4.09,4.94,1.34,6.8-8.27,5.57-.21,3.16-2.57,2.48-4.21.4.16-1.18,1.15-1.94,2.98-2.27.35-.35,1.38-.55.72-1.21-.41-.41-.91-1.55-1.43-1.7l-.07-.85c.36-2.03-.02-4.12-1.13-6.26l-4.3-8.93-1.56-1.1c-.92-.06-1.63-1.33-2.24-1.81,1.86-.1,3.23-.28,3.91-1.51,1.15-2.06.12-2.9.13-4.42-1.37-1.29-1.24-3.93.03-5.06l1.21.94Z"/>
    <path class="cls-120" d="M16.92,96.92c1.15,2.14,1.52,4.23,1.13,6.26l.07.85c-1.91-.54-1.92-2.74-3.09-3.93l-1.17-6.93c-.12-.16-.05-.51-.12-.72l-3.93-3.39c.3-.79.73-1.51,1.26-2.17,3.42-3.86,6.96,7.26,5.86,10.03Z"/>
    <path class="cls-187" d="M18.83,106.94c-.85.86-1.85,1.74-2.98,2.27.23.49-.36.84-1.77,1.06.86.39.78.71-.17.96-1.29.27-1-1.34-1.04-2.16,1.46-1.79,3.7-2.12,5.97-2.13Z"/>
    <path class="cls-44" d="M14.22,42.41c1.92-.15,2.18.54.49,1.5,1.02,1.7.31,2.37-1.66,2.49-.44.55-.71.49-1.08-.08-.8-1.23-2.18-1.82-2.92-3.11.62-.23,1.17-1,1.82-1.1.61-1.83,2.76-1.27,3.33.31Z"/>
    <path class="cls-131" d="M12.66,39.94c1.83-2.13,3.06-1.54,3.34,1.11.85.18.85.47.05.87.13,1.87-.62,1.88-1.82.49-1.09,0-2.24-.48-3.33-.31-.26-.4-.6-.74-1-1,.16-1.03,1.84-1.48,2.77-1.17Z"/>
    <path class="cls-67" d="M29.85,46.97c2.58-.94,2.99-.64,1.24.89,1.32,1.56.56,2.32-2.26,2.29.17,2.23-1.77,3.28-3.72,3.75-1.3,1.23-3.24-.09-3.23-1.79.05-.34-.19-.74-.1-1.07-2.07-.63-1.14-2.34.95-2.07-1.3-1.42-.75-1.91.98-.95-.13-2.8,2.08-3.16,4.13-1.51,1.02-1.77,1.89-1.56,2,.48Z"/>
    <path class="cls-122" d="M14.72,43.91c1.58-2.04,6.02,2.35,5.25,4.48,1.64.78,1.08,2.05-.72,1.87-2.61.98-6.78-1.52-6.19-3.86.19-1.02.52-2.26,1.66-2.49Z"/>
    <path class="cls-78" d="M22.74,48.95c-.54.52-.75,1.35-.95,2.07-.91.25-1.86-.48-2.54-.77.12-.66.3-1.33.72-1.87.6-2.79,2.83-2.44,2.77.57Z"/>
    <path class="cls-188" d="M17.01,55.37c-.38,2.65-1.29,2.51-1.98-.05-.07-.83-.15-2,.86-2.23,1.97.47,4.29-.08,6-1,3.11,1.91,1.76,2.77-4.05,2.56l-.83.71Z"/>
    <path class="cls-51" d="M29.89,70.1l2.69.58c4.16-1.1,5.94-.61,5.36,1.47.26,3.28-2.18,2.7-4.05.96-2.85-.7-6.26-1.4-7.87,1.09-2.12,1.91-1.44,4.45,2.03,7.6,1.05,1.56,1.62,4.51.17,5.78-1.4,1.22-3.09,1.07-3.26-1.28h-1.39c-.51-3.13-1.15-4.13-1.91-3.01-.47,1.78-.75,3.58-.83,5.41.74.46,1.5,1.61,2.28,3.46,3.37-2.22,3.36,9.11-.09,4.74-.27-1.95-2.35-3.6-3.91-4.88-.74-.61-3.91-10.19-1.74-10.33-1.86-1.7-3.43-3.87-3.28-6.64,1.26-.51,2.64-.24,4.12-2.02-5.35-4.82-11.09-4.27-6.28-5.81,5.73,1.63,11.97,2.68,17.95,2.89Z"/>
    <path class="cls-14" d="M12.89,74.1l-.03,5.06c-4.47-1.66.73-4.4-1.89-9.33,3.15.15,1.66,2.71,1.93,4.27Z"/>
    <path class="cls-189" d="M41.96,64.05c.89-2.21,1.57-1.86,2.04,1.05,2.37.98,2.26,3.1-.11,4-.28.87-.62.86-1,0-1.51-.96-3.85-.96-7,0-2.02.98-4.32-.53-6.03-.93-1.94-1.93-2.08-3.26-.4-3.99l.46-1.22c4.1-.14,8.12.23,12.04,1.09Z"/>
    <path class="cls-157" d="M42.89,69.1h1c1.69-1.89,2.08-1.46,2.09,1.01,2.23.44,2.29,2.41-.1,2.3,1.13,4.14-6.33,3.79-7.53,2.48-.69-.75-.67-1.78-.4-2.75-2.24-2.55-5.62.42-8.05-2.04,2.06.01,4.39.54,6-1,3.02-1.05,5.35-1.05,7,0Z"/>
    <path class="cls-121" d="M23.79,61.97c1.35-1.88,4.42.51,5.67,2.2.24,2.59,2.72,2.68,5.54,3.28-1.61,1.39-3.49-.06-5.14.71-1.6-.38-3.3-.37-4.93-.88-2.71-.86-3.7-1.87-2.99-3.02-2.92-1.96-1.02-4.42,1.85-2.3Z"/>
    <path class="cls-85" d="M18.22,63.97c1.59-.47,3,.71,1.72,2.17-3.42-.16-7.14.08-10.05-2.04.37-.29.72-.62,1-1,2.42.58,4.84,1.28,7.33.87Z"/>
    <path class="cls-110" d="M21.95,64.27l2.99,3.02c-1.47-.46-3.57-.53-4.99-1.15-.37-.88-.94-1.62-1.72-2.17-.53-.37-.95-.9-1.54-1.19l.08-.76c.9-2.87,5.92-.51,5.18,2.25Z"/>
    <path class="cls-161" d="M17.01,55.37c1.33.37,3.04,1.41,2.91,2.72,2.67,2.57-2.42,3.2-2.91,2.03-.4-.96,3.34-1.68-.25,1.09-1.07-.52-2.83-1.15-2.68-2.87.11-1.18.79-2.19.04-2.9.29.06.6-.11.9-.11l1.98.05Z"/>
    <path class="cls-147" d="M19.93,58.09c2.09-1.51,3.94-.73,3.16,1.98,1.76.42,2.54,1,.7,1.9-1.22.06-1.79,1.19-1.85,2.3l-5.18-2.25c.03-.26.01-.55,0-.81-.07-1.02-1.11-2.09-.19-3.18,1.45.41,3.16,1.38,3.35.07Z"/>
    <path class="cls-8" d="M33.01,32.04c2.66-2.22,6.28,2.31,5.88,5.01,2.73.25,3.18,1.74,1.36,4.47l.63,3.58c.93.29,1.8.92,2,2,.58,1.27.35,3.31-1,4-1.52.91-2.86,1.91-4,3-.33.89-.67.89-1,0,.49,2-1.87,1.02-3,0-2.14-1.72-1.47-2.4,2-2.04-2.01-1.27-1.73-1.94.83-2,2.85-3.81-5.24-17.37-2.47-5.74-.8,3.24-1.01,3.34-4.4,2.65-.65-.2-1.33-.37-2-.48-2.57.84-3.59.04-1.97-2.35.85-2.04.5-2.31-1.06-.8-.85,2.62-1.48,2.6-2.18-.07-1.27.47-1.61-.06-.75-1.17.03-2.37,1.01-.32.91-.38-1.97-1-2.16-2.77.17-2.65-.47-2.45,1.22-3.8,5.08-4.06-2.41-.28-4.76-.59-7.04-.92-.2.88-.5.86-.91,0-.98-.52-.71-1.2.81-2.07,5.08-5.99,7.57.14,12.1.01Z"/>
    <path class="cls-170" d="M35.97,28.06c.04-.87.33-.87.85-.1.99-.82,1.77-.18,2.36,1.91,2.66.44,2.94.71.64,2.3.48,1.82,1.46,2.8,2.95,2.93l-.83,2.12c.14,1.45-.87,1.39-3.03-.18l-5.88-5.01c-1.27-1.42-2.5-2.78-4.05-3.86-1.28-.89-1.45-2.73-1.79-4.1.48-.44,1.11-.66,1.64-1.03,2.07,1.79,4.46,3.47,7.16,5.02Z"/>
    <path class="cls-31" d="M20.77,36.29c-.63,1.71-1.97,2.93-4.03,3.66.45.84.2,1.2-.74,1.1-1.25.06-2.23-.74-3.34-1.11l-.77-2.83c.12-1.19,1.05-2.04,2.21-2.24.91-.02,1.82.06,2.71.2.9-.33,2-.65,3.29-.97h.91c2.47,1.16,2.31,1.37-.24,2.2Z"/>
    <path class="cls-151" d="M20.91,32.02c-.18.72-.44,1.42-.81,2.07-.39.62-.76,1.17-1.28,1.67-.72.7-1.6.19-2.01-.7,1.23-1.26,2.17-3,4.1-3.04Z"/>
    <path class="cls-39" d="M48.39,2.73l-1.39.71c.68,2.24.23,2.66-1.94,1.83.94,2.64-.56,2.93-2.04.64-1.09-.13-1.44-1.46-.14-1.81-.34-1.19-1.01-1.86-2-2-.28.87-.62.86-1,0,.12-2.49,2.4-2.21,4.2-1.91,1.83.31,3.44.92,4.3,2.53Z"/>
    <path class="cls-178" d="M41.89,6.1c1.15,1.09.5,1.95-1,2-1.45,1-3.36-.32-4-2-.13-.68.14-1.48-.04-2.15.35-.2.6-.59.92-.85,2.21-1,4.91.8,4.13,3Z"/>
    <path class="cls-11" d="M39.89,2.1h1c1.14-.64,1.86.77,2,2l.14,1.81c-.14.94-.52.98-1.14.19-.68-1.76-2.22-2.96-4.13-3,.61-.51,1.35-.82,2.13-1Z"/>
    <path class="cls-22" d="M33.82,9.09c1.16.66,2.21,1.39,3.15,2.2,2.14.99,2.11,3.26-.08,6.81-.18,2.05-3.3,3.16-5.02,1.82.55-1.33-.16-2.81.07-4.14.52-2.96-.21-6.43,1.92-8.71,2.36.52,2.34,1.55-.04,2.02Z"/>
    <path class="cls-144" d="M59.89,13.1c.81,1.96.92,4.1,0,6.03-1.4-.14-2.79.22-4,.93-1.66-.63-1.93-1.74,0-1.97-.6-2.42-.27-4.09,1-5,.04-1.51,2.69-1.55,3,0Z"/>
    <path class="cls-50" d="M60.99,11.1c-.18.76-.54,1.46-1.1,2h-3c-1.23,1.09-1.62.52-1-1,1.32-1.41,3.32-1.1,5.1-1Z"/>
    <path class="cls-171" d="M48.14,7.07c2.09.84,4.24,2.09,3.89,4.58l-.7-.11c-.92,1.75-1.69,1.56-1.67-.43-1.18,2.09-5.67,1.91-6.74-.19-2.66.62-2.95.12-1.04-1.85-.09-1.63.3-2.68,1.16-3.17l2.04-.64c1.31-.8,3.07.2,3.07,1.81Z"/>
    <path class="cls-34" d="M47.01,3.44c.49.93,1.34,1.33,2.93,2.01-.48.82-1.26,1.08-1.8,1.62-1.12-.45-2.67-.42-3.07-1.81.34-.89,1.11-1.41,1.94-1.83Z"/>
    <path class="cls-63" d="M53.89,10.1c-.34-.47-.67-.98-.87-1.67-.19-.65.3-.99.87-1.33.46.65,2.9,1.36,1.98,2.49-.47.57-1.5.43-1.98.51Z"/>
    <path class="cls-127" d="M56.89,13.1c.13,1.74.31,3.69-1,5-2.47.6-3.27-1.11-1.91-3.16,1.22-.04.7-1.76.61-2.55.32-.26,1.04,0,1.3-.29.44.12.96.5,1,1Z"/>
    <path class="cls-134" d="M42.91,10.93c2.99-.05,2.96,4.4.23,5.08,2.89,2.14.61,5.58-2.54,3.89-.9,2.47-2.54,2.64-4.64,1.15-1.39,2.1-2.39,2.12-2.99.07-.81.1-1.47-.31-1.1-1.2,4.91.25,1.13-1.82,5.02-1.82.28-.87.62-.86,1,0,1.23-.91,2.24-2.59,3.04-5.04-2.19-1.97-.73-3.42,1.98-2.13Z"/>
    <path class="cls-89" d="M35.97,21.05c.9.09.92.4.12.92,1.4,1.82.23,2.98-1.51,3.88-1.78,1.74-5.29-1.73-4.66-3.89,1.14.11,2.09-.41,3.06-.84.89-.39,2.07,0,2.99-.07Z"/>
    <path class="cls-90" d="M34.58,25.86c2.15-.45,2.73.46,1.39,2.2-3.08-.39-6.24-1.92-7.16-5.02.41-.28.67-.8,1.1-1.07,1.31,1.62,2.38,3.85,4.66,3.89Z"/>
    <path class="cls-124" d="M36.89,7.1c1.32-.16,2.49,1.15,1,2,.95.33.94.66,0,1-1.39.64-3.27.37-4.07-1.01.18-.65.04-1.36.04-2.02l3.03.03Z"/>
    <path class="cls-125" d="M40.89,8.1c.88.28.87.63.01,1.04-.1,2.86-2.37,2.7-3.01-.04l-1-2c-.14-.28.06-.69,0-1l4,2Z"/>
    <path class="cls-30" d="M20.81,142.38c.77-2.06,1.79-2.16,3.08-.29-.11,1.27-.13,2.12-1,3,.18-.89-.78-.95-1.44-1s-1.1.8-1.56,1c-2.24.15-5.91.31-7.04-2.15.32-.1.7.08,1.03.04-.18-2.53.3-2.51,2.01-.72,1.92-1.6,3.45-2.39,4.92.11Z"/>
    <path class="cls-106" d="M20.73,137.94c1.07.64,2.23,1.02,3.4,1.39l-.24,2.77c-.79,1.46-2.29.04-3.08.29-.62-.8-1.27-1.94-1.93-3.42-3-1.93.4-4.31,1.86-1.03Z"/>
    <path class="cls-128" d="M17.2,138.73c.15-.95.43-.88.83.07,2.84,2.09.64,3.47-2.15,3.47-.58.45-1.29.65-2.01.72-.18-1.64-2.13-2.12-2.72-3.7.05-1.53,1.83-1.87,2.82-.82,1.02.16,2.12.74,3.23.26Z"/>
    <path class="cls-114" d="M13.98,138.47c-.78.11-1.83,1.17-2.82.82l-1.43-.29c-.06-1.38.53-2.02,1.68-2.05,1.38-.03,2.5.06,2.57,1.51Z"/>
    <path class="cls-130" d="M20.89,121.1c.62.75,1.29,1.82,1,3-.4,2.29-1.55,3.69-3.63,4.72.96,1.86-3.68,6.23-4.93,3.72-1.58-1.72-.68-2.77.93-4.07.15-.13-2.17,3.42-2.6.73,1.36-2.65,2.53-5.41,3.42-8.28-.29-2.86,1.99-4.04,4.08-2.01,2.42-2.15,3.79.07,1.73,2.19Z"/>
    <path class="cls-45" d="M19.06,118.05c.89.08.91.37.1.85-1.34.71-2.65,1.49-4.08,2.01-1.5-1.15-3.05-1.69-2.89-3.57.18-2.1-.11-4.02,1.58-5.32,2.37-1.15,7.89,4.22,5.29,6.03Z"/>
    <path class="cls-112" d="M21.18,115.03c1.65-.99,2.02-.35.72,1.14.02,2.56-.49,2.9-2.84,1.88-.31-2.74-2.97-4.69-5.29-6.03l.13-.79c.05-.32.18-.64.17-.96,3.68-1.54,7.04,1.17,7.11,4.76Z"/>
    <path class="cls-91" d="M20.89,128.41c-.27.9-.65,1.76-1.03,2.62-2.11.83-3.31,3.03-5.16,4.17l-1.41.87c-.42.26-1.55-.12-.93-.92.23-.3.38-.65.64-.91l.22-.88c-.43-.25-.37-.53.1-.83,2.21-.09,3.31-2.42,4.93-3.72,1.21-2.25,1.85-3.28,2.64-.41Z"/>
    <path class="cls-156" d="M13.32,132.53c0,.27-.04.57-.1.83-1.74-.5-1.55-2.62-1.57-4.17,1.1.05,1.56-1.27,3.33-.98-1.09,1.55-1.7,2.79-1.66,4.31Z"/>
    <path class="cls-172" d="M40.94,78.9l1.93,1.18c-.76,4.12.03,7.12,2.38,9,1.05,1.82,2.37,3.14,3.98,3.96l-1.09,2.05c2.84,2.03,0,4.32-2.28,2.09-1.9.99-2.97,3.2-3.21,6.63-2.27,1.58-3.94,3.89-5,6.93-2.31,2.37-4.77,3.9-7.38,4.59-1.26,1.75-1.44,3.02-.52,3.81,2.36,1.27,1.9,2.11-.75,1.93l-3.21,2.23c-2.5-.96-1.93-3.25.84-3.14-.47-1.3-1.58-1.95-3.32-1.96l-.37-1.25c-1.17,1.65-1.84,1.13-1.03-.8l-.72-1.14c-1.02-1.54-1.4-3.61-1.12-6.22,2.43-2.85,5.84-1.32,10-2.09-2.94.12-3.05-2.67-4.17-3.44-1.61-4.3-1.36-7.04.73-8.2,1.13-.83,2.34-.43,3.64,1.21.1,3.21,2.2,4.11,6.33,2.69-.76-1.98-.33-3.25,1.29-3.82l.2-2.7c-1.41-2.47-1.44-4.26-.07-5.39-1.57-1.55-1.14-6.79.77-7.98-.5-1.89.31-2.02,1.24-.2.21-.88.52-.85.92.01Z"/>
    <path class="cls-100" d="M24.96,86.29c2.57-.46,2.72,1.04.43,4.5,2-.74,2.97,3.51,1.23,4.3-1.82,2.02-.01,5.21,2.02,7.01-.61,1.24-1.79,1.3-2.75,1.19-1.65-1.13-2.5-3.85-2.86-6.39,1.44,0,2.21-.73,1.81-2.31-.22-.86-.59-2.04-1.72-2.44-1.29-.93-1.73-3.06-.53-4.19-2.42.14-2.16-3.09-.93-4.67l-1.88-3.32c1.17,2.06-2.58-12.61.65-8.87,1.96,2.27-2.21,1.91,2.11,9.41,1.11,1.93,1.58,4.04,2.42,5.79Z"/>
    <path class="cls-17" d="M15.85,109.21l4.21-.4c.85.88,2.12,1.19,3.85,1.9l-2.73,4.33c-3.85-.98-2.74-4.69-7.11-4.76-.02-1.16,1.14-.76,1.77-1.06Z"/>
    <path class="cls-95" d="M18.05,103.18c.15-2.53-2.06-3.94-1.13-6.26,1.85,1.48,2.85,4.39,1.13,6.26Z"/>
    <path class="cls-27" d="M16.05,41.92c1.66-1.6,4.76.33,5.94,2.02,2.74.03,3.7,2.09,1.73,4.07l-.98.95c-.69-.73-2.07-.11-2.77-.57-1.17-.75-2.49-1.17-3.84-1.93.38-1.55-.39-2.35-1.41-2.55-.13-.51-.29-1.01-.49-1.5.6,0,1.22-.44,1.82-.49Z"/>
    <path class="cls-108" d="M19.89,40.77c1.72-1.37,2.43-.76,2,1.33l.75,1.17c.53.76.29.96-.66.66-2.2-.04-3.84-1.64-5.94-2.02.04-.27-.15-.63-.05-.87.18-.4.52-.73.74-1.1,1.21-2.25,3.56-2.08,3.15.82Z"/>
    <path class="cls-2" d="M36.72,50.06c-.19.74-.47.72-.86.01l-3.91-2.14c-.15.87-.44.8-.86-.08.49-.82-.77-.75-1.24-.89,5.64-1.55-1-7.72,3.56-9.6,3.11-1.28,7.88,11.78,5.85,12.58-.71.28-1.67.13-2.55.11Z"/>
    <path class="cls-119" d="M28.83,50.15c2.13-1.64,5.4.29,7.06,1.92-.57.76-1.68,1.08-2,2.04.93.18,1.6.61.81,1.4,1.51,2.2-.12,3.02-1.72.82-1.4.76-4.3.26-5.23-1.08-.2.85-.5.8-.9-.04-1.52.18-2.09-.25-1.73-1.31-.27-2.2,1.73-3.4,3.72-3.75Z"/>
    <path class="cls-182" d="M24.82,43.34c.83-.37,1.19-.1,1.06.8l1.97,2.35c-1.18.94-2.69,1.2-4.13,1.51-.88-1.21-.99-2.76-1.73-4.07.24-.2.46-.42.66-.66.72.09,1.45.12,2.18.07Z"/>
    <path class="cls-118" d="M35.86,50.07h.86c-.07.73-.39,1.4-.83,1.99-2.45-.33-4.52-2-7.06-1.92.84-.67,1.59-1.45,2.26-2.29.28.03.58.02.86.08l3.91,2.14Z"/>
    <path class="cls-167" d="M26.02,74.19l.74-1.25c1.81,1.15,4.22,1.84,7.22,2.08,2.49-2.95,7.17.18,4.8,4.07.98,2.92.83,5.69-.77,7.98.06,3.08-2.22,2.85-3.68.45l-.39,1.42c5.47,9.13-4.59,11.9-7,2.4l-1.56-.55c-.39-1.37.16-3.28-.43-4.5.58.16,1.07.77,1.4.47,4.35-3.9-11.49-11.94-.35-12.57Z"/>
    <path class="cls-71" d="M45.87,72.41c1.89-.2,1.89.36,1.15,1.95,1.44,1.77,1.72,4.07.83,6.9,1.46,1.4,1.19,3.2-.81,5.42l2.61,3.36c1.26-1.49,2.66-2.34,4.19-2.58-.3-2.66.12-2.9,2.22-1.23,2.67-.03,2.59.93.12,1.89,1.67,5.5,1.04,10.05-1.87,13.65-1.37-.3-1.77-.84-1.2-1.63l-1.32,1.68c-1-2.08-2.22-4.33-3.66-6.72-2.05-3.34-4.04-6.88-7.86-8.62.59-2.96.48-5.22.66-7.58.26-1.5-.05-1.51-.92-.01l-1.24.2c-.72-2.16-2.26-4.38-4.8-4.07-3.85-.45-10.82-1.71-3.78-2.63l3.69.7c1.39-.17,2.83-.13,4.05-.96,2.21,2.52,5.43,2.31,7.94.27Z"/>
    <path class="cls-157" d="M33.89,73.1c-1.96.24-4.19-.73-5.95.66,2.92.86,5.19-.42,6.04,1.26-2.54.31-5.49-.53-7.96-.83-.47-.44-1.11-1.66-2.25-1-.68.39-2.07,1.62-1.98-.92,4.11-1.48,8.77-.86,12.11.82Z"/>
    <path class="cls-24" d="M21.66,83.28c.69,1.22.6,3.13.93,4.67.17,1.8-.59,2.12-1.76.73-1.04-.71-1.91-1.66-1.47-2.69.57-1.34.9-2.8,2.3-2.72Z"/>
    <path class="cls-58" d="M23.11,92.15c.19.6-.27,1-1.35.96l-.93-4.42c.5-.41,1.11-.67,1.76-.73.29,1.38.44,2.79.53,4.19Z"/>
    <path class="cls-47" d="M41.96,64.05c-1.88,4.42-3.5-1.45-12.5.13-2.01-1.16-2.53-2.22-1.57-3.17,1.37-1.27,3.08-1.23,5.13.13l2.94-.05c4.08-3.16,9.82-2.59,6,2.97Z"/>
    <path class="cls-184" d="M42.89,55.1c.21,1,.55,2,1,3,2.1-.35,2.26,1.07.4,2.07,1.76,1.36,1.75,3.88-.29,4.93-.64-.43-1.26-.94-2.04-1.05-.49-1.02-.13-2.06.28-3.62-2.18.26-4.17.98-6.28.65-1.93.78-2.32-.11-.84-1.66-.68-2.17.02-2.41,1.78-1.04.86-1.39,2.19-2.49,3.99-3.3.3-.87.64-.85,1,.02.28-.87.62-.86,1,0Z"/>
    <path class="cls-152" d="M45.92,60.07c1.75-1.01,2.28-.36.88,1.17,3.17.47,3.47,6.48.85,7.9.35,2.29.11,2.35-1.66.97-.77-.15-1.51-.46-2.09-1.01-.33-1.33.14-2.68.11-4-.04-1.66-.18-3.3.29-4.93.16-1.85.98-1.88,1.62-.1Z"/>
    <path class="cls-154" d="M42.89,69.1h-7c2.08-1,4.2-1.49,6.82-2.01.35.98.17,1.53.18,2.01Z"/>
    <path class="cls-4" d="M47.64,69.14c2.07-.98,4.04,5.08,2.36,6.01-.48,3.35-3.59,2.4-2.98-.79-.69-.21-1.61-1.13-1.15-1.95s.69-1.47.1-2.3c-.02-.7,1.13-.88,1.66-.97Z"/>
    <path class="cls-105" d="M27.89,61.01c.58,1.03,1.24,2.03,1.57,3.17l-5.67-2.2c-.16-.66-.41-1.29-.7-1.9.72-3.24,5.34-2.34,4.8.93Z"/>
    <path class="cls-29" d="M22.97,39.07c-1.63,1.24-2.28.57-1.35-1.31-2.18-.03-2.46-.52-.84-1.47-.13-.7.27-1.49.24-2.2,3.49-3.35,10.29-.79,9.68.37-2.39,4.55-2.16.92-7.72,4.61Z"/>
    <path class="cls-146" d="M41.93,37.23c.69.23.65.52-.04.87.79,1.85,1.16,6.29-1,7-1.31-.77-2.21-2.18-2.23-3.63s1.06-2.26,2.37-3.01c-.97-.74-1.68-.82-2.14-1.41,1,.14,2.02.2,3.03.18Z"/>
    <path class="cls-186" d="M43.89,40.1c1.5.02,1.47,1.62,0,2,.83,2.69.82,6.49,0,9,1.33,1.41.77,1.92-1,1-1.45,0-1.79-.33-1-1-.01-1.4.27-2.79,1-4-1.17-2.16-1.17-4.83,0-8,.88-.45,1.18-.07,1,1Z"/>
    <path class="cls-113" d="M39.89,53.83c1.6-.93,1.86-.34,1,1.24.17,1.04.04,2.29-.73,2.89-.99.77-2.21.59-3.27.41-1.93-.07-1.93-.83,0-1.28-.97-1.68-.97-2.68,0-3,.33,0,.67.04,1,0,.53-1.55,1.56-1.99,2-.27Z"/>
    <path class="cls-23" d="M42.89,39.1v8c-.65.07-1.41-.07-1.71-.67-.21-.42-.24-.9-.29-1.33,1.33-2.07.89-4.63,1-7,.3-.87.65-.86,1.06,0,.89.29.85.63-.06,1Z"/>
    <path class="cls-31" d="M21.61,37.76c.31.54.93.87,1.35,1.31-.27.44-.52,1.01-.43,1.44.14.64,1.18.84,1.29,1.16-.76.84-1.48.36-1.94.43-.71-.38-1.37-.83-2-1.33-3.23-1.22-.38-5.01,1.72-3.01Z"/>
    <path class="cls-159" d="M25.88,44.14c-.39-.21-.76-.47-1.06-.8-.21-1.49.13-2.33,1.56-2.31,1.21.01,3.43-.05,2.23,1.74-.56.83-2.44.41-2.74,1.37Z"/>
    <path class="cls-23" d="M41.89,51.1c.52.05.94.49,1,1-1.09,1.39-2.09,1.97-3,1.73l-2,.27c-.04-.98.21-2.07.98-2.55.97-.6,2.05-.55,3.02-.45Z"/>
    <path class="cls-123" d="M36.89,54.1c.29,1,.96,2.21,0,3-1.73.97-2.59.31-2.19-1.6-.66-.12-1.03-.73-.81-1.4h3Z"/>
    <path class="cls-129" d="M46.83,31.22c1.65,1.64,1.06,4.38-1.72,3.76,1.93,1.66-.31,3.1-2.17,3.12h-1.06s.04-.87.04-.87c-1.24-1.75-3.86-3.06-2.12-5.06,1.68-.83,3.34-1.83,4.98-3,2-2.86,4.23-.1,2.04,2.04Z"/>
    <path class="cls-179" d="M38.67,23.7c2.73.3,2.83.99.45,2.31-.32,2.79-1.1,3.44-2.31,1.95-.28,0-.57.13-.85.1-.31-.82-.83-1.54-1.39-2.2-.8-1.49.15-3.07,1.51-3.88,2.17-1.66,3.77-1.07,2.59,1.72Z"/>
    <path class="cls-81" d="M45.41,27.15c2.31,1.5,2.13,2.1-.63,2.03-1.22,3.25-3.73,3.52-5.61.7-.97-.38-1.77-1.06-2.36-1.91l2.31-1.95q1.84,1.16,0,0l-.45-2.31c-.13-1.64.62-1.55,2.25.29.43-5.11,6.82.01,4.49,3.16Z"/>
    <path class="cls-19" d="M39.81,32.17l-.64-2.3c1.94.08,3.84.12,5.61-.7-.24,1.65-.43,3.28-1.98,5.08-1.39-.6-2.08-1.53-3-2.08Z"/>
    <path class="cls-164" d="M21.61,37.76c-1.71-1.82-1.01,2.53-1.72,3.01-1-.45-2.06-.71-3.15-.82-1.54-2.55,2.1-2.79,4.03-3.66.11.49.59,1.03.84,1.47Z"/>
    <path class="cls-66" d="M42.89,4.1c-.93-.35-1.65-1.07-2-2,.33-.89,1.29-1.68,1.93-.5.34.64.98,2,.07,2.5Z"/>
    <path class="cls-145" d="M43.03,5.91c.05.63-.05,1.4.48,2.13.79,1.1-.57,1.26-1.64,1.04-.22.89-.54.89-.97.06v-1.04c-.02-.83.06-1.79.99-2,.37-.09.78-.08,1.14-.19Z"/>
    <path class="cls-87" d="M40.9,9.14l.97-.06c.29.65.66,1.25,1.04,1.85-1.03.38-1.38,1.66-1.98,2.13l-1.89,5.01-1.15.03h-1c-.45-2.25.1-4.52.08-6.81-1.47-1.14-.96-1.59.92-1.19.05-.24.11-.77,0-1l3.01.04Z"/>
    <path class="cls-61" d="M37.89,10.1c-.23.43-.64.79-.92,1.19-.73,0-1.55.08-2.44-.28-.66-.27-.94-1.1-.71-1.92,1.42-.01,2.86.22,4.07,1.01Z"/>
    <path class="cls-101" d="M52.82,23.27c1.51-.92,1.99.47,2.17,1.98-.53,1.17-1.49,1.63-2.82,1.75-1.02-.48-1.34.05-.96,1.58l-1.3.45c-2.4,1.56-3.91-.9-1.89-2.93l.06-.88c.2-1.95.84-2.55,1.91-1.8.38-2.67,1.71-2.39,2.83-.14Z"/>
    <path class="cls-93" d="M49.91,29.02c1.56-1.27,2.07-.58.88,1.11-.85.05-1.68.24-2.19,1,0,2.66-.89,2.58-1.77.09-.41-.67-.89-2.58-2.04-2.04.28-.65.5-1.33.63-2.03.12-2.35.79-2.14,2.6-1.06.29,1.18.9,2.23,1.89,2.93Z"/>
    <path class="cls-15" d="M52.17,26.99c.41.7,1,1.62.29,2.28-.43.4-1.1.82-1.67.86-.31-.33-.5-.84-.88-1.11-.04-.86-.18-1.96,1.11-3.02.5-.41.69-.3,1.15,1Z"/>
    <path class="cls-86" d="M55.89,20.07c-1.37,1.41-.08,3.37-.9,5.18-.91-.43-1.76-1.03-2.17-1.98-.04-2.91.65-3.97,2.07-3.17.26-.88.59-.88,1-.03Z"/>
    <path class="cls-32" d="M53.98,14.94c.78.99,1.8,1.86,1.91,3.16v1.97s-1,.03-1,.03c-1.27,1.67-2.34.57-3-1-2.53.04-2.44-3.53.1-3.86-.67-1.8.09-1.94,1.21-.31h.78Z"/>
    <path class="cls-10" d="M49.66,11.12c3.07,2.35-.06,4.09-2.81,4.18-.06,2.93-2.57,3.47-3.71.72l-.23-5.08c2.24-.83,4.48-.7,6.74.19Z"/>
    <path class="cls-139" d="M53.2,14.93l-1.21.31c-.41,2.82-2.13,2.91-3.82.89-1.17,1.19-1.78.76-1.32-.84,1.07-1.35,2.85-2.3,2.81-4.18.53.21,1.12.26,1.67.43.58,1.16,1.46,2.15,1.88,3.39Z"/>
    <path class="cls-141" d="M48.17,16.13c3.04-.18,2.93,2.96-.14,3-1.16,2.29-.94,4.64-.01,6.96-.43,1.01-1.6,1.28-2.6,1.06-.9-1.84-2.29-4.22-4.49-3.16-3.03-1.26-4.22-3.3-.32-4.09,1.29-1.01,2.43-2.07,2.54-3.89,1.26-.11,2.47-.48,3.71-.72.63-.12,1.04.41,1.32.84Z"/>
    <path class="cls-42" d="M40.61,19.9c-1.23.96-.92,3.34.32,4.09-.6.2-1.58-.41-2.25-.29-.59-.91-1.56-1.44-2.59-1.72l-.12-.92c1.42-.81,3-1.66,4.64-1.15Z"/>
    <path class="cls-1" d="M37.89,18.1c1.19-1.45,1.32-4.29,3.04-5.04-.54,1.8-1.09,3.61-1.07,5.98-1.14.39-1.81.05-1.97-.94Z"/>
    <path class="cls-115" d="M43.1,128.82c1.6-1.04,2.33-.48,1.79,1.34,1.14.92,2.4,1.88,3.78,2.9,3.14.28,4.58,1.2,4.31,2.75.33.51-.06.89-1.18,1.14-.31.53-.61.47-.91-.12-2.67-.36-5.27-1.24-7.96-.82-3.12-.09-4.8-.73-5.04-1.91l1.11-1.97c1.07-4.32,2.44-5.42,4.1-3.31Z"/>
    <path class="cls-166" d="M37.89,134.1c1.22,1.96,3.97-.11,5.04,1.91-1.45,1.12-3.48.81-5.04.09l-1.88.19-.12-2.19c-.54-.27-.52-.6,0-1,1.73-2.11,2.23-1.73,2,1Z"/>
    <path class="cls-173" d="M25.79,123.32c-.97,2.22-2.6,4.25-4.9,5.08-.95-.24-1.87-.21-2.64.41.82-2.13.76-5.27,3.63-4.72-1.18-1.56-.47-2.03,1.09-.75.72-2.67,1.91-2.48,2.81-.02Z"/>
    <path class="cls-43" d="M20.81,142.38c-1.4.41-3.39.66-4.92-.11,1.02-.95,1.74-2.15,2.15-3.47.28,0,.56.14.84.16.91.09,1.84.41,2.56,1.07.9.82.61,1.99-.63,2.35Z"/>
    <path class="cls-54" d="M21.9,116.17c.22.34.68.59,1.03.8,1.82,1.3,1.8,2-.05,2.1,2.53.82,2.07,2.2-.59,2.27-.48,1.73-1.17,1.53-1.41-.24.24-1.13-.68-1.99-1.73-2.19l-.1-.85c.76-.88,1.72-1.56,2.84-1.88Z"/>
    <path class="cls-75" d="M22.98,123.35l-1.09.75c-.5-.45-1.23-.83-1.49-1.47-.24-.6.4-1.08.49-1.53l1.41.24c2.14-.1,2.44.78.68,2.01Z"/>
    <path class="cls-13" d="M45.87,97.19c2.79-.26,4.62.67,5.48,2.8-1.67,2.33-1.74,3.99-.19,4.97.89-.28,1.13.13.83,1.12.3,4.26-6.64,3.29-9.43,1.3-.25,2.05-1.37,3.79-3.63,3.6-.49,3.86-1.46,4.86-2.9,3l-1.04.35c-1.34,1.08-2.93,1.89-4.67,1.89-.56-.21-.56-.51-.06-.88,1.51-1.32,2.83-2.9,4.92-3.92,2.67-1.3,2.58-4.87,4.31-6.69,2.52-2.66,2.52-4.97,1.65-8.45,1-1.55,3.54.1,4.71.91Z"/>
    <path class="cls-51" d="M37.88,95.16c-.25,1.51,2.61,5.08-1.24,5.82-2.08.4-4.75.09-6.47,1.73-1.28-3.62-1.19-6.35-3.55-7.63l-1.23-4.3c1.48-.32.65-2.74,3.13-2.51.22,2.35-.81,3.81.61,5.03.85.73,2.36,2.94,3.9,1.82,3.06-2.25-2.83-9.83,1.3-7.61,3.24.25,4.46,4.82,3.55,7.64Z"/>
    <path class="cls-163" d="M53.12,100.15c1.92,1.18.13,4.5-1.97,4.81-2.58.33-5.31.5-7.28-1.43,2.48-1.61,4.7-1.36,6.55-3.51-1.28-1.45-2.24-.06-2.95-.09-1.65-.09-.96-2.29-1.61-2.74,1.1-.22,1.99-.98,2.28-2.09.95.08,2.08.14,2.72.62,1.76,1.33.73,5.86,2.27,4.43Z"/>
    <path class="cls-35" d="M38.01,87.07c.8,2.49,1.68,5.73-.13,8.09.15-3.82-2.52-3.74-3.55-7.64,1.18.18,2.5-.34,3.68-.45Z"/>
    <path class="cls-79" d="M26.63,120.18c-.55.96-.41,2.17-.84,3.14-.71.49-1.98-.14-2.81.02-.1-.71-.28-1.41-.68-2.01.56-.65.09-1.53.59-2.27.46-1.58,3.52-.55,3.74,1.11Z"/>
    <path class="cls-48" d="M40.94,78.9h-.92c-.05-.89-.26-2.01.59-2.33.65-.24,1.95-.58,1.96.56s-1.26,1.34-1.63,1.77Z"/>
    <path class="cls-137" d="M30.33,116.22c-.26.97-.23,2.03-.58,2.94-1.64.63-2.35-.78-1.51-2.16.49-.81,1.32-1.03,2.03-1.65-.04.28.13.61.06.88Z"/>
    <path class="cls-150" d="M26.63,120.18c-1.04-.89-2.41-1.1-3.74-1.11.35-.53-.2-1.5.05-2.1.84.5,1.75.88,2.55,1.01,1.26.21,1.8,1.05,1.14,2.2Z"/>
    <path class="cls-8" d="M35.86,50.07c-1.69.02-3.74-.18-3.91-2.14,1.48.32,3.09.77,3.91,2.14Z"/>
    <path class="cls-47" d="M36.89,57.1v1.28c-.47.53-1.1.85-1.77,1.04-1.08-.17-1.49-1.63-2.27-2.06-.83-.4-.77-.75.13-1.04.64.1,1.35-.35,1.72-.82.92.17,1.75.79,2.19,1.6Z"/>
    <path class="cls-77" d="M50,75.16c.77-2.22,2.58.4,3.04,2.04,2.96-.94,3.47.04,1.95,2.66.48,2.09.95,4.24,1.09,6.38-.7.48-1.45.88-2.22,1.23-.56,1.09-1.33,1.96-2.57,1.48-.41-.16-3.52-6.95-3.44-7.68-2.54-1.45-1.77-4.68-.83-6.9,1.01.31,1.91,1.41,2.98.79Z"/>
    <path class="cls-97" d="M53.85,87.47c-.22,2.05-3.3,5.66-5.29,4.13-1.65-1.27-2.04-4.1-5.14-4.35,2.02-2.58,3.83-3.68,4.43-5.98,2.35,1.35,4.65,2.77,4.44,6.48.61.11,1.18-.18,1.56-.28Z"/>
    <path class="cls-60" d="M57.74,91.07c.82,2.01,1.08,4.19.77,6.54,2.06,2.01-1.6,7.49-3.97,8.63-.62,2.5-2.02,2.3-2.56-.16-.3-.35-.58-.73-.83-1.12-.04-1.83,1.23-3.24,1.97-4.81.58-1.23-.35-3.65,1.57-3.78-1.04,3.12-.95,3.64-.37,3.68,2.97.19.42-12.2,1.87-11.92,1,.51.79,2.39,1.54,2.94Z"/>
    <path class="cls-195" d="M45.73,54.4c.53-1.22,1.1-1.02.69.15.88-.04.87.23.08.77,1.35,1.44,1.56,2.4.63,2.89,1.48,1.33.79,2.14-1.22,1.86-.51.05-1.09.27-1.62.1.18-.63-.41-1.44-.4-2.07-1.47-.51-1.2-2.12,0-3-.45-.88-.07-1.18,1-1,.48-.76.76-.64.85.3Z"/>
    <path class="cls-98" d="M45.89,51.1c2.37,2.03,2.32,3.13-.15,3.3l-.85-.3c-1.2-.14-2.2.2-3,1l-1-.02-1-1.24c.55-1.15,1.78-1.64,3-1.73l1-1c.28-.87.62-.86,1,0,.28-.87.62-.86,1,0Z"/>
    <path class="cls-193" d="M44.89,54.1c-.35.31-.69.64-1,1-.28.87-.62.86-1,0h-1c-.24-1.11-.04-2.29,1.51-2.08.6.08,1.31.16,1.49,1.08Z"/>
    <path class="cls-3" d="M43.89,58.1c-.7-.12-2.23-.22-1.99-1.23.15-.65.81-1.19.99-1.77h1v3Z"/>
    <path class="cls-5" d="M51.88,60.12c2.1-1.84,4.61.13,2.01,1.98-2.4.06-4.73-.51-7.1-.86-.04-.38-.52-1.05-.88-1.17.34-.66.73-1.3,1.22-1.86,1.65-.98,3.78.35,4.75,1.91Z"/>
    <g>
      <path class="cls-116" d="M25.12,53.89c.64.34,1.6.36,1.73,1.31.12,2.99-1.37,3.48-2.96.9l-5-1c.05,1.73-.68,1.47-1.88.27-1.1-2.99,4.63.81,4.88-3.27,1.4-.23,2.12,1.2,3.23,1.79Z"/>
      <path class="cls-69" d="M18.89,55.1l5,1c1.03.03,2.01-.59,2.96-.9.25-.08.63.03.9.04,1.57.94,3.27,1.65,5.1,2.11,1.88-1.15,3.03.15,2.27,2.06.19.6.47,1.16.84,1.66-.32,1.93-2.69,2.63-4.64,1.53-1.3-.74-2.43-1.13-3.43-1.61-1.54-.74-3.09-1.06-4.8-.93-.96-.59-2.04-1.57-3.16-1.98-1.26-.46-2.51-1.43-2.91-2.72.63.01,1.25-.31,1.88-.27Z"/>
      <path class="cls-194" d="M32.97,56.32l-.13,1.04c-.26-.14-6.15.44-5.1-2.11,1.78.11,3.47.8,5.23,1.08Z"/>
      <path class="cls-161" d="M23.89,56.1c-1.66-.04-4.06.66-5-1,1.66.11,4.05-.71,5,1Z"/>
      <path class="cls-175" d="M32.6,59.67c-.44.98-4.02.78-3.7-.55.35-1.47,4.24-.64,3.7.55Z"/>
    </g>
    <path class="cls-168" d="M47.06,38.1c.01,1.15-.38,1.82-1.17,2-.38,2.71-1.03,2.47-2,0-.31-.36-.64-.69-1-1,0-.33.1-.68.06-1-.23-1.6,1.52-2.1,2.17-3.12,1.84-4.04,5.16,1.69,1.94,3.13Z"/>
    <path class="cls-176" d="M45.89,40.1c1.46.07,1.27,1.33,0,2,1.08,2.62,1.08,4.95,0,7,2.17.15,1.75.92,0,2h-1c-.33-2.89-.66-5.89-1-9v-2h2Z"/>
    <path class="cls-190" d="M44.89,51.1h-1v-9c.82-.07,1.01.9,1.01,1.95v7.05Z"/>
    <path class="cls-183" d="M48.6,31.12c1.13,4.53,2.53,9.78.29,13.98-1.69.29-1.58-2.56-1-4-1.53-.27-1.54-1.74-.83-3-.21-.64.26-1.47-.27-2.25-.31-.47-.9-.92-1.68-.87.7-1.09.6-2.83,1.72-3.76l1.77-.09Z"/>
    <path class="cls-18" d="M39.13,26.01l2.53-.86c1.47-.5,3.29,1.65,1.82,2.65-.82.56-3.06-.93-4,1.24-1.09-1-.17-2.09-.35-3.03Z"/>
    <path class="cls-70" d="M51.61,48.81l3.28,2.29c.7.49,1.29,1.58,2.09,1.88,1.32,1.29.79,1.88-.92,1.13-1.66.99-5.21-1.25-6.17-3.01-.87-.28-.86-.62,0-1-1.27-2.21-.05-3.13,1.72-1.29Z"/>
    <path class="cls-136" d="M51.61,48.81c-.74.16-1.35.63-1.72,1.29-.28.87-.62.86-1,0-2.08.52-2.45-.63-1-2-.9-.32-.9-.66,0-1-.63-1.35-.31-1.82,1-1,1.49.07,2.27,1.41,2.72,2.71Z"/>
    <path class="cls-46" d="M48.89,45.1c.07.29.04.7,0,1-.07.5-.53.88-1,1-1.93,1.08-1.95-3.57-1-5-.44-.88-.06-1.18,1-1l1,4Z"/>
    <path class="cls-148" d="M51.99,15.24l-.1,3.86c1.75.45,2.06,1.83.93,4.17-.73.54-2.03.12-2.83.14-.94-.05-1.64-1.15-2.09-3.3l.14-.97c.71-.72.62-2.26.14-3,1.15-.69,2.57-.57,3.82-.89Z"/>
    <path class="cls-185" d="M49.98,23.41c-.44.78-1.13,1.37-1.91,1.8-1.15-1.24-1.19-3.73-.19-5.1.74-.31,1.78-1.69,2.9-.62-.06.67-1.51,1.37-1.52,2.11s.4,1.3.72,1.82Z"/>
    <path class="cls-19" d="M47.89,20.1c-.24,1.68.02,3.41.19,5.1.03.25.04.65-.06.88-1.94-1.79-1.79-5.13.01-6.96l-.14.97Z"/>
    <path class="cls-41" d="M54.89,20.1c-.88.88-1.04,2.4-2.07,3.17l-.93-4.17c1.11-.09,2.25.14,3,1Z"/>
    <path class="cls-7" d="M47.03,114.25c.13,1.58.38,3.28.75,5.11-1.79,2.57-1.69,4.99.31,7.25,2.4-1.83,2.82-1.29,2.61,1.55.89.17.88.48.04.93.55.82.22,1.13-.86,1.01-.79.3-1.84,0-3.16-.89.93,2.51.03,2.84-1.84.96-.68-.32-1.27-.79-1.79-1.34-.41-.91-1.51-1.51-3.29-1.79-1.49-.94-.97-4.19.53-5.18.18-1.29-.03-2.38-.44-3.65-2.09-.47-2.71-3.18-.93-4.38,1.84-3.87,13.69-4.36,8.07.43Z"/>
    <path class="cls-138" d="M50.89,132.1c.16-1.19.78-1.66,2-1,.02-1.5,1.62-1.47,2,0,3.24.97,1.85,2.95-.73,4.36-.16.89-.55,1-1.17.34-.59-.96-8.74-.46-8.1-5.65l1.84-.96c1.53.62,2.91,1.59,4.16,2.89Z"/>
    <path class="cls-135" d="M43.1,128.82c-.97.25-2.25.3-2.26,1.68,0,.77.72,2.03,1.35,2.79-.76,1.23-2.85.78-4.31.81-.73-1.24-.69-2.88.13-4.92-.04-.22.07-.48,0-.69-.15-1.15.45-1.64,1.8-1.46,1.32-.83,2.94-.99,4.56-.78-.1,1.07-.64,2.1-1.26,2.57Z"/>
    <path class="cls-76" d="M57.74,136.01c-1.7,1.23-3.85,1.22-5.93.94-.26-.67.73-.93,1.18-1.14.36-.17.78-.29,1.17-.34,1.94-3.83,4.43-3.85,3.58.55Z"/>
    <path class="cls-192" d="M37.89,134.1c-.36-.57-1.53-.51-2-1,.78-1.34.47-3.43,2.13-3.92,1.83,1.17-.13,3.07-.13,4.92Z"/>
    <path class="cls-59" d="M38.97,113.82c.25,1.45,1.04,2.86.93,4.38,2.04,1.63,1.6,2.1-.95,1.85.96,1.44.64,2.81-1.15,2.06-2.36-7.53.17-8.36-2.8-7.76,1.34-1.09,2.87-1.98,3.93-3.35,2.63.81,2.63,1.95.03,2.84Z"/>
    <path class="cls-162" d="M40.34,121.84c.32,1.74-.08,3.5-.53,5.18-.29.18-.25.97-.6,1.23-.33.25-.76.37-1.2.23-.74-1.97.4-4.46-.21-6.39.3-.71.92-1.31,1.15-2.06,1.43-1.77,3.73.43,1.39,1.8Z"/>
    <path class="cls-33" d="M51.99,106.08l2.56.16c3.23.05,2.98,3.87-.3,3.68-.35,1.16-1.47,1.56-3.36,1.17.5,1.13-.97,2.92-2.2,3.03-.9,1.9-1.28,2.33-1.66.12.22-.56.73-1.05.57-2.1-2.92,1.05-5.76,1.7-8.64,1.66-.13-.75-.08-2.11-.03-2.84.77-1.65,1.51-3.95,3.09-5.32,3.58.74,7.12,2.57,9.97.42Z"/>
    <path class="cls-52" d="M64.89,63.1c1.23-.09,1.9.91,2,3-.39.36-.76.74-1.27.94-1.73.61-2.98-.67-3.66-1.72l-.1-2.38c.81-1.99,2.32-1.83,3.02.16Z"/>
    <path class="cls-57" d="M67.89,64.1l.1.98c-.31.4-.73.68-1.1,1.02-.77.25-1.92.09-1.54-.94.18-.48.32-1.19-.46-2.06-1.64-1.54-1.07-2.21.88-1.02,1.66-1.77,2.72,0,2.12,2.02Z"/>
    <path class="cls-94" d="M49.89,54.1c.8-3.12,6.95.67,4.93,3,1.26,3.07,0,4.21-2.94,1.87-1.92-.18-4.89-1.48-5.38-3.65.11-.18-.12-.54-.08-.77-.15-1.8,2.47-1.71,3.46-.45Z"/>
    <path class="cls-20" d="M51.88,58.97c1.93-.19,1.94.58,0,1.15-1.77-.06-3.31-.94-4.75-1.91-.3-.95-1.2-1.91-.63-2.89,1.57,1.64,4.6,1.26,5.38,3.65Z"/>
    <path class="cls-25" d="M48.89,52.1c2.04-.97,2.9.51,1,2-1.15-.17-2.35.3-3.46.45-.38.57-.63.56-.69-.15.19-1.09.15-2.2.15-3.3.28-.87.62-.86,1,0,1-.15,1.77.04,2,1Z"/>
    <path class="cls-153" d="M61.77,59.93c2.04,1.9,1.68,2.81-1.11,2.8-.81-.22-1.62-.57-2.47-.64-1.66-.31-1.62-2.29-.22-2.91.75-2.5,3.68-1.76,3.8.75Z"/>
    <path class="cls-180" d="M63.84,60.14c2.05-.95,2.89-.1,1.93,1.94-.38-.24-1.12.75-.88,1.02-1.01-.04-2.02-.06-3.02-.16-.39-.04-.82-.11-1.2-.21.28-.97.66-1.9,1.11-2.8.17-.88.46-.87.87-.02.18-1.95.97-1.79,1.21.23Z"/>
    <path class="cls-140" d="M55.89,62.1c-.67-.02-1.33-.02-2,0,.13-.67.09-1.54-.59-1.82-.48-.2-.99-.14-1.42-.16v-1.15c.69.03,1.42.12,2.16-.24.49-.24.75-.98.78-1.63.31-.87.66-.86,1.07,0,1.12,1.57,2.1,4.29,0,5Z"/>
    <path class="cls-73" d="M57.97,59.18c.56.7.02,2.1.22,2.91-.76-.07-1.54.04-2.3.02v-5c1.7-.87,3.84.27,2.08,2.08Z"/>
    <path class="cls-93" d="M47.89,41.1c-.35.32-.68.65-1,1-.28.87-.62.86-1,0v-2c0-.87.11-1.93,1.17-2,.32.99.58,1.99.83,3Z"/>
    <path class="cls-169" d="M47.89,47.1c.07.3-.14.73,0,1,.93,1.3-.99,2.02-2,1v-7h1c-.1,1.74-.38,3.71,1,5Z"/>
    <path class="cls-74" d="M48.89,50.1c.26,1.24-1.02,1.62-2,1h-1v-2l2-1,1,2Z"/>
    <path class="cls-52" d="M67.89,64.1c-.35-.98-1.16-1.66-2.12-2.02-.68-.6-1.33-1.25-1.93-1.94-.94-1.45-.95-2.73.97-2.34.25.05.59-.12.82-.02,2.33,1.04,4.28,4.29,2.26,6.32Z"/>
    <path class="cls-28" d="M60.94,56.26c-.67,2.25-3.41,1.98-4.2-.19-1.68.1-2.15-1.05-.68-1.95.19-.46.52-.84.92-1.13,1.9.41,3.11,1.59,3.96,3.27Z"/>
    <path class="cls-80" d="M64.81,57.8c-.27.8-.59,1.59-.97,2.34l-1.21-.23c-2.25-1.2-2.81-2.42-1.69-3.66,1.47-.07,2.86.44,3.87,1.54Z"/>
    <path class="cls-6" d="M56.06,54.11c.53.29.42,1.49.68,1.95.92,1.1.47,1.62-.85,1.04h-1.07c-.59-2.08-2.96-2.7-4.93-3l-1-2c-.44-.88-.06-1.18,1-1,2.55-.59,4.04,1.85,6.17,3.01Z"/>
    <path class="cls-82" d="M48.89,50.1h1v1c-.35.32-.68.65-1,1-.37.2-1.05.76-1.47.53-.54-.29-.46-1.14-.53-1.53.27-.84,1.22-1,2-1Z"/>
    <path class="cls-9" d="M48.69,114.13c.55.63.57,2.09.07,4.38,2.94-1.37,1.17,3.41-.74,4.55-.11,1.11.75,2.44.08,3.55l-6.31-2.38c5.32-3.82,3.11-2.82,5.24-9.99.5.56,1.07.08,1.66-.12Z"/>
    <path class="cls-55" d="M40.34,121.84c-.12-.66-.48-2.15-1.39-1.8.2-.64.58-1.34.95-1.85,1.51,1.03,4.23,1.08,4.03,3.91-1.45-.57-2.75-1.34-3.59-.26Z"/>
    <path class="cls-62" d="M49.89,130.1c1.64-.47,2.16.77,1,2-1.84-.09-3.3-1.31-4.16-2.89.4-1.07,1.1-.91,1.65-.17.38.51,1.08.59,1.51,1.07Z"/>
    <path class="cls-40" d="M52.89,131.1c-.29.08-.69.93-1.1,1.34-.24.25-.7.56-.9-.34-.42-.58-.52-1.46-1-2,.32-.31.61-.64.86-1.01h1.14s1,2.01,1,2.01Z"/>
    <path class="cls-99" d="M56.99,131.09c1.04.46,1.53,1.5,1.6,2.6.05.87-.14,1.74-.85,2.32-.46-.15.03-1.32-.25-1.59-1.3-.47-2.27.89-3.33,1.04,1.17-1.12.72-2.89.73-4.36.49-.86,1.44-.51,2.1,0Z"/>
    <path class="cls-88" d="M51.89,112.1c.04,1.97-.99,6.04-3.13,6.41-1.81-.65-.05-3.1-.07-4.38s1.7-2.13,2.2-3.03c1.37-1.12,1.9-.62,1,1Z"/>
    <path class="cls-56" d="M54.25,109.92c-.02.23.16.53.09.74-.33.93-.8,1.8-1.42,2.56-1.45,1.16-1.83.57-1.03-1.13l-1-1c.11-1.07.02-2.05,1.05-1.62s1.67.32,2.31.44Z"/>
    <path class="cls-65" d="M60.94,56.26c.61,1.21,1.95,2.12,1.69,3.66l-.87.02c-1.1-.81-2.48-.84-3.8-.75-.57-.72-1.21-1.74-2.08-2.08,0-.61.09-1.12.85-1.04,1.39.15,2.8.26,4.2.19Z"/>
    <path class="cls-126" d="M52.92,113.23l-2.57,7.44c-.24.7-.23,1.32-.49,1.74-.37.59-1.13.75-1.84.66.17-1.7,3.13-3.7.74-4.55,1.3-2.02,1.44-4.64,3.13-6.41l1.03,1.13Z"/>
  </g>
</svg>