<?xml version="1.0" encoding="UTF-8"?>
<svg id="Enemy" xmlns="http://www.w3.org/2000/svg" viewBox="0 0 147.98 66.73">
  <defs>
    <style>
      .cls-1 {
        fill: #6d453f;
      }

      .cls-2 {
        fill: #fdfae6;
      }

      .cls-3 {
        fill: #d9b5a6;
      }

      .cls-4 {
        fill: #202125;
      }

      .cls-5 {
        fill: #1b0c09;
      }

      .cls-6 {
        fill: #704c47;
      }

      .cls-7 {
        fill: #48291d;
      }

      .cls-8 {
        fill: #f7d8c1;
      }

      .cls-9 {
        fill: #3a271d;
      }

      .cls-10 {
        fill: #b2736d;
      }

      .cls-11 {
        fill: #e9b5b2;
      }

      .cls-12 {
        fill: #35241c;
      }

      .cls-13 {
        fill: #100f18;
      }

      .cls-14 {
        fill: #323545;
      }

      .cls-15 {
        fill: #272424;
      }

      .cls-16 {
        fill: #c4b9b8;
      }

      .cls-17 {
        fill: #262944;
      }

      .cls-18 {
        fill: #fef5dc;
      }

      .cls-19 {
        fill: #c7b7ac;
      }

      .cls-20 {
        fill: #553c33;
      }

      .cls-21 {
        fill: #2c1a19;
      }

      .cls-22 {
        fill: #8f5351;
      }

      .cls-23 {
        fill: #eabfa6;
      }

      .cls-24 {
        fill: #323755;
      }

      .cls-25 {
        fill: #896e60;
      }

      .cls-26 {
        fill: #141b2c;
      }

      .cls-27 {
        fill: #ba8260;
      }

      .cls-28 {
        fill: #3d2524;
      }

      .cls-29 {
        fill: #fefbe6;
      }

      .cls-30 {
        fill: #504038;
      }

      .cls-31 {
        fill: #f4ddc5;
      }

      .cls-32 {
        fill: #181512;
      }

      .cls-33 {
        fill: #4a3127;
      }

      .cls-34 {
        fill: #a96d6d;
      }

      .cls-35 {
        fill: #1b213b;
      }

      .cls-36 {
        fill: #010113;
      }

      .cls-37 {
        fill: #593c2f;
      }

      .cls-38 {
        fill: #50322f;
      }

      .cls-39 {
        fill: #8a4d4e;
      }

      .cls-40 {
        fill: #583d31;
      }

      .cls-41 {
        fill: #0b070b;
      }

      .cls-42 {
        fill: #e3c2ad;
      }

      .cls-43 {
        fill: #706861;
      }

      .cls-44 {
        fill: #8a5c50;
      }

      .cls-45 {
        fill: #5c3521;
      }

      .cls-46 {
        fill: #c4a79b;
      }

      .cls-47 {
        fill: #edc9b3;
      }

      .cls-48 {
        fill: #040b17;
      }

      .cls-49 {
        fill: #69544f;
      }

      .cls-50 {
        fill: #9e5f5f;
      }

      .cls-51 {
        fill: #1f2540;
      }

      .cls-52 {
        fill: #d9c7bc;
      }

      .cls-53 {
        fill: #7f4944;
      }

      .cls-54 {
        fill: #6f5f58;
      }

      .cls-55 {
        fill: #513529;
      }

      .cls-56 {
        fill: #756b63;
      }

      .cls-57 {
        fill: #c9b9ad;
      }

      .cls-58 {
        fill: #343957;
      }

      .cls-59 {
        fill: #392921;
      }

      .cls-60 {
        fill: #0c0d13;
      }

      .cls-61 {
        fill: #945754;
      }

      .cls-62 {
        fill: #6f4938;
      }

      .cls-63 {
        fill: #884d4a;
      }

      .cls-64 {
        fill: #ecbea6;
      }

      .cls-65 {
        fill: #ead6c9;
      }

      .cls-66 {
        fill: #612222;
      }

      .cls-67 {
        fill: #643f38;
      }

      .cls-68 {
        fill: #5f2827;
      }

      .cls-69 {
        fill: #f7e7d0;
      }

      .cls-70 {
        fill: #3d2923;
      }

      .cls-71 {
        fill: #111726;
      }

      .cls-72 {
        fill: #867367;
      }

      .cls-73 {
        fill: #b99d91;
      }

      .cls-74 {
        fill: #614434;
      }

      .cls-75 {
        fill: #7a766e;
      }

      .cls-76 {
        fill: #201611;
      }

      .cls-77 {
        fill: #1b1e31;
      }

      .cls-78 {
        fill: #d09879;
      }

      .cls-79 {
        fill: #47403c;
      }

      .cls-80 {
        fill: #c5b2a7;
      }

      .cls-81 {
        fill: #fbe7cf;
      }

      .cls-82 {
        fill: #bb9f90;
      }

      .cls-83 {
        fill: #6d403c;
      }

      .cls-84 {
        fill: #8b7065;
      }

      .cls-85 {
        fill: #ad917e;
      }

      .cls-86 {
        fill: #343432;
      }

      .cls-87 {
        fill: #431b17;
      }

      .cls-88 {
        fill: #40372e;
      }

      .cls-89 {
        fill: #f5dbc2;
      }

      .cls-90 {
        fill: #d9b6a0;
      }

      .cls-91 {
        fill: #1f1e1c;
      }

      .cls-92 {
        fill: #463d37;
      }

      .cls-93 {
        fill: #aa8c7b;
      }

      .cls-94 {
        fill: #77524b;
      }

      .cls-95 {
        fill: #1f2333;
      }

      .cls-96 {
        fill: #9b6065;
      }

      .cls-97 {
        fill: #14192d;
      }

      .cls-98 {
        fill: #755240;
      }

      .cls-99 {
        fill: #6a6463;
      }

      .cls-100 {
        fill: #181f37;
      }

      .cls-101 {
        fill: #4b4747;
      }

      .cls-102 {
        fill: #181e39;
      }

      .cls-103 {
        fill: #4b3423;
      }

      .cls-104 {
        fill: #a47458;
      }

      .cls-105 {
        fill: #e9c5ad;
      }

      .cls-106 {
        fill: #807d7c;
      }

      .cls-107 {
        fill: #a68e7f;
      }

      .cls-108 {
        fill: #6a442a;
      }

      .cls-109 {
        fill: #c89f8c;
      }

      .cls-110 {
        fill: #ae9b8a;
      }

      .cls-111 {
        fill: #1d1a27;
      }

      .cls-112 {
        fill: #5b413d;
      }

      .cls-113 {
        fill: #f1caba;
      }

      .cls-114 {
        fill: #6f493b;
      }

      .cls-115 {
        fill: #512a1c;
      }

      .cls-116 {
        fill: #2a1c11;
      }

      .cls-117 {
        fill: #4d2428;
      }

      .cls-118 {
        fill: #ab8d78;
      }

      .cls-119 {
        fill: #f2e4d8;
      }

      .cls-120 {
        fill: #0c0f17;
      }

      .cls-121 {
        fill: #f4e6d1;
      }

      .cls-122 {
        fill: #ca906a;
      }

      .cls-123 {
        fill: #fce6d9;
      }

      .cls-124 {
        fill: #59191b;
      }

      .cls-125 {
        fill: #a9686e;
      }

      .cls-126 {
        fill: #33322d;
      }

      .cls-127 {
        fill: #563a36;
      }

      .cls-128 {
        fill: #623c2d;
      }

      .cls-129 {
        fill: #a4816d;
      }

      .cls-130 {
        fill: #4c443c;
      }

      .cls-131 {
        fill: #63382b;
      }

      .cls-132 {
        fill: #16171f;
      }

      .cls-133 {
        fill: #251714;
      }

      .cls-134 {
        fill: #9d5d54;
      }

      .cls-135 {
        fill: #55372b;
      }

      .cls-136 {
        fill: #554439;
      }

      .cls-137 {
        fill: #040206;
      }

      .cls-138 {
        fill: #543224;
      }

      .cls-139 {
        fill: #e6b7ad;
      }

      .cls-140 {
        fill: #50362f;
      }

      .cls-141 {
        fill: #eec5b4;
      }

      .cls-142 {
        fill: #0e0000;
      }

      .cls-143 {
        fill: #5d3a2b;
      }

      .cls-144 {
        fill: #8b5251;
      }

      .cls-145 {
        fill: #532423;
      }

      .cls-146 {
        fill: #facfb3;
      }

      .cls-147 {
        fill: #fcddc1;
      }

      .cls-148 {
        fill: #1b1a1a;
      }

      .cls-149 {
        fill: #5d3624;
      }

      .cls-150 {
        fill: #534b4d;
      }

      .cls-151 {
        fill: #eacab4;
      }

      .cls-152 {
        fill: #8d7a70;
      }

      .cls-153 {
        fill: #8d705e;
      }

      .cls-154 {
        fill: #f2d8cb;
      }

      .cls-155 {
        fill: #4b2d1e;
      }

      .cls-156 {
        fill: #64554d;
      }

      .cls-157 {
        fill: #192135;
      }

      .cls-158 {
        fill: #864342;
      }

      .cls-159 {
        fill: #7e5a45;
      }

      .cls-160 {
        fill: #967966;
      }

      .cls-161 {
        fill: #ebc4af;
      }

      .cls-162 {
        fill: #3b251f;
      }

      .cls-163 {
        fill: #191e2c;
      }

      .cls-164 {
        fill: #fef9dd;
      }

      .cls-165 {
        fill: #161921;
      }

      .cls-166 {
        fill: #0c0100;
      }

      .cls-167 {
        fill: #222747;
      }

      .cls-168 {
        fill: #71594e;
      }

      .cls-169 {
        fill: #806051;
      }

      .cls-170 {
        fill: #c59c8b;
      }

      .cls-171 {
        fill: #3d120e;
      }

      .cls-172 {
        fill: #171b30;
      }

      .cls-173 {
        fill: #1f201c;
      }

      .cls-174 {
        fill: #14192c;
      }

      .cls-175 {
        fill: #efd7bd;
      }

      .cls-176 {
        fill: #9f7e6d;
      }

      .cls-177 {
        fill: #402316;
      }

      .cls-178 {
        fill: #753639;
      }

      .cls-179 {
        fill: #fdf6dc;
      }

      .cls-180 {
        fill: #bfa08d;
      }

      .cls-181 {
        fill: #4d2313;
      }

      .cls-182 {
        fill: #91674f;
      }

      .cls-183 {
        fill: #453225;
      }

      .cls-184 {
        fill: #c8a28e;
      }

      .cls-185 {
        fill: #060805;
      }

      .cls-186 {
        fill: #d9af99;
      }

      .cls-187 {
        fill: #1b1b27;
      }

      .cls-188 {
        fill: #533c23;
      }

      .cls-189 {
        fill: #ecc2ab;
      }

      .cls-190 {
        fill: #c39d8a;
      }

      .cls-191 {
        fill: #735038;
      }

      .cls-192 {
        fill: #291814;
      }

      .cls-193 {
        fill: #3c1808;
      }

      .cls-194 {
        fill: #a9907f;
      }

      .cls-195 {
        fill: #967b6f;
      }
    </style>
  </defs>
  <g id="BadBlob">
    <path class="cls-38" d="M49.34,60.37c-.92-.94-.83-1.51.27-1.7.79-2.71,1.94-2.49,2.58.29,1,1.96.81,3.88-.72,5.45l-1.32,1.42c-.29-.04-.59,0-.88-.07-1.73.51-3.86.65-3.92-1.33-.82-2.75,1.7-3.56,3.99-4.07Z"/>
    <path class="cls-165" d="M65.46,59.95c.73-2.29,1.51-2.82,2.62-.38,2.12-1.75,4.29.48,4.25,2.92.88.25.88.59.03,1-.09.82-.81.86-2.16.13-.91-.27-1.89-.4-2.75-.82-.48-.23-.8-.85-1.28-1.11-.98.33-1.22.04-.71-.87-.65-.24-.64-.54,0-.87Z"/>
    <path class="cls-103" d="M53.1,56.27c.54-2.17,2.99-2.43,2-.19,2.47,2.29,2.42,3.6-.14,3.94-.4.66-.57,1.43-.6,2.21-1.55.64-2.27-.45-2.16-3.27-2.15-1.55-1.62-2.52.9-2.7Z"/>
    <path class="cls-84" d="M55.1,56.08c.28-.88.64-.88,1.08-.04,1.95-.08,3.47.41,4.56,1.46.59-1.68,1.41-1.54,1.43.33.25,1.12-1.05,1.83-3.93,2.14l-1,.03-1,.03-1.28-.02.14-3.94Z"/>
    <path class="cls-133" d="M52.19,58.96c1.19.68,1.58,2.12,2.16,3.27-.81.91-1.87,1.53-2.88,2.18-.35-1.88-.1-3.74.72-5.45Z"/>
    <path class="cls-12" d="M129.56,60.51c.53-1.8,1.32-1.74,1.58.12,3.47-1.87,7.34-1.98,7.37,2.57,1.66-.76,4.09-.46,5.87-.22,1.32-1.7,2.2-1.36,2.01.78-.21,1.05-.4,1.95-1.48,2.08-.86.11-1.7-.31-2.36-.05-4.26-1.55-8.76-2.49-13.23-3.47-2.96-.64-5.91-2.36-8.94-2.66-2.29.73-5.51.14-5.36-2.69-.99-1.33,5.23-2.2,6.07-2.14,3.18.24,7.45,2.87,8.46,5.69Z"/>
    <path class="cls-142" d="M146.19,58.95c.27.53.99,1.02,1,1.68,0,1.08-.59,2.09-.79,3.12-.6-.42-1.29-.67-2.01-.78-.87-.29-.85-.62.02-.99-2.21-2.26-1.29-3.88,1.78-3.03Z"/>
    <path class="cls-36" d="M72.36,63.49c2.2-2.46,6.55-2.67,9.24-1.59,2-1.18,5.99-2.5,3.82,1.03-2.21.95-4.65,2.06-7.07,2.49-2.78.5-6.15.14-8.15-1.8l2.16-.13Z"/>
    <path class="cls-132" d="M81.29,60.45c.89-1.54,2.52-2,4.9-1.38.07-2.17.64-2.94,1.73-2.3,2-1.79,2.6-1.5,2.21,1.18.87.72.82,1.36-.14,1.94-.9,1.71-2.88,2.3-4.57,3.03-.21-1.48-2.69-1.7-3.82-1.03-1.95.17-2.1-.61-.31-1.44Z"/>
    <path class="cls-21" d="M43.44,62.74c2.12-.56,2.44-.51,1.92,1.7,1.15.81,2.56,1.07,3.92,1.33-1.67,1.77-4.72.69-6.82-.03-1.11-1.04-.96-3.45.99-3Z"/>
    <path class="cls-117" d="M40.99,62.54c-.56-2.07-.16-3.07,1.22-3-1.06-1.38-.62-1.95.96-1.03,2.43-.96,2.68-.34,1.17,1.78,2.25,1.44,1.78,2.23-.9,2.46-.72.84-1.04,1.88-.99,3-.31.06-.64.07-.95.15-.24-1.1-.44-2.22-.52-3.35Z"/>
    <path class="cls-104" d="M51.03,49.86c-1.4-.55-.8-2.55.68-2.57.24-.88.6-.93,1.07-.14,1.79,1.22,2.77,5.12,1.21,5.96,1.47.68,1.17,1.73-.9,3.15.22.74-.59,2.04-.9,2.7-.75-.43-1.78-.19-2.58-.29-1.11.98-1.95-.13-2.27-1.41-1.48-.27-1.42-.94.04-1.08,1.05-2.32,2.27-4.43,3.64-6.32Z"/>
    <path class="cls-83" d="M44.34,60.28c-.63-2.44.38-4.4,3.01-3.02.75,1.08,1.42,2.11,2,3.11.54,2.29-2.48,2.86-3.99,4.07-.92-.17-1.73-.75-1.92-1.7.49-.57.25-2.03.9-2.46Z"/>
    <path class="cls-181" d="M47.35,57.26c.95.01,1.32,1.3,2.27,1.41.31.27.57.71.35,1.09-.15.26-.41.43-.62.61-1.37-.5-2.83-1.54-2-3.11Z"/>
    <path class="cls-26" d="M68.23,56.58c1.09.11,2.06-1.88,2.91-5.97,4.03-2.25,8.44-.16,4.84,3.54.81.53.51.94-.9,1.24-4.99.82,2.97,1.47,5.06-.15,2.34-5.01,8.41-1.55,6.06,3.83-.38,2.5-2.89,1.87-4.9,1.38l-1.19,1.06c-2.76-.14-5.36.19-7.78.98-1.8-.25-2.99-1.71-4.25-2.92-2.58.07-2-3.38.15-2.99Z"/>
    <path class="cls-111" d="M66.89,48.61c-1.16-1.06-.84-2.74.97-5.02-2.58-1.06-2.25-4.75.7-4.95.03-2.25.27-4.27.72-6.06,2.1-1.06,1.91,3.98,1.21,5.96.75,3.03,1.96,7.95.09,9.9,1.69,2.23-.41,6.15-2.35,8.14-.38.33-1.06.76-.88,1.37.16.53.34,1.25.74,1.62l-2.62.38c-.95-.21-1.04-.62-.27-1.22.05-3.47.61-6.85,1.69-10.12Z"/>
    <path class="cls-102" d="M81.29,60.45l.31,1.44c-3.97,2.37-1.09,1.09-9.24,1.59l-.03-1c1.64-.2,1.89-3.11,3.73-3.12,1.96,0,3.78.71,5.24,1.08Z"/>
    <path class="cls-16" d="M58.23,59.98c3.05-1.48,5.46-1.49,7.23-.03.14.33.32.57,0,.87-2.77-.59-6.22,1.34-8.24-.81l1-.03Z"/>
    <path class="cls-191" d="M53.99,53.12c.78-.62,1.98-.21,2.25.78.9.02.92.33.14.89,1.96.14,1.81.95-.21,1.25l-1.08.04c-.07-.82-.61-.94-1.03-.56s-.76.52-.97.75c-.4-1.35.68-2.09.9-3.15Z"/>
    <path class="cls-85" d="M56.17,56.04l.21-1.25c.04-2.27,1.4-2.84,2.94-1.17l2.74-1.66c.1-.91.37-.89.81-.03.18-.5.44-.44.77.05,1.72,2.37-.46,4.55-2.91,5.52-.97.26-1.92.49-3.06.51-.99.01-1.66-.77-1.49-1.97Z"/>
    <path class="cls-160" d="M63.64,51.99c-.37-.86.29-1.72,1.14-1.58,2.09.81,1.21,6.32-.62,7.36.07,1.55-1.55,1.55-2,.07-.48.02-.95-.29-1.43-.33-2.09-2.26,3.49-1.41,2.91-5.52Z"/>
    <path class="cls-49" d="M62.16,57.84l2-.07c.98-.36,1.32-.04,1.03.96.14.39.11.84.27,1.22-2.41-.2-4.82-.06-7.23.03l3.93-2.14Z"/>
    <path class="cls-64" d="M28.62,40.93c-1.33-2.14,1.09-6.01,3.72-4.19,1.31.15,2.26.69,1.83,1.89-3.7,2.68-2.61,6.8-1.42,10.21,1.96,1.24,3.02,2.57,3.18,3.99,2.42,1.19,2.39,1.73-.11,2.72.06,2.35-2.55.67-3.78-.66-.07-.52-.87-.88-1.05-1.37l-3.75-4.08.62-1.33c-1.37-3.24-1.12-5.62.76-7.16Z"/>
    <path class="cls-107" d="M32.04,54.89l3.78.66c2.27-.76,2.54-.07,2.32,2.13.88.25.88.59.03,1,.42.83.05,1.14-.96,1.03-.33-.05-.62.02-.86.25-.76-2.36-3.98-2.49-4.31-5.07Z"/>
    <path class="cls-151" d="M40.95,56.81c1.35-.24,1.41,1.51,1.26,2.73-.1,1.1-.49,2.16-1.22,3-.29-.16-.73-.48-.75-.85-1.11-.91-1.79-1.91-2.06-3.01l-.03-1c-.95-2.72,1.3-3.25,2.81-.87Z"/>
    <path class="cls-72" d="M38.18,58.68c1.4.34,1.99,1.66,2.06,3.01-1.16-.4-2.27-.99-3.03-1.98.28-.38.61-.72.96-1.03Z"/>
    <path class="cls-68" d="M3.65,18.56c.62-.9.88-2.04,1.68-2.83,1.53-1.28,2.18-.82,1.37,1.03,1-.62,2.14-1.12,3-.1.3-2.05,1.19-1.88,1.4.27.96.39,1.04.9.21,1.54-1.19,2.24-2.67,3.58-4.44,4.04-1.54,1.45-2.74,1.87-3.6,1.26-1.68.8-1.83.15-.75-1.36,0-1.23.36-2.73,1.13-3.84Z"/>
    <path class="cls-158" d="M8.42,10.56c.33-.83,1.17-1.22,2.03-1.05,1.39.92,1.27,3.4,1.18,5.06,1.92-.47,2.07.26.33,1.29,2.63.71.5,2.72-.86,1.05-.39-.29-.93-.29-1.4-.27l-3,.1c-.3-.46-1.01-.63-1.37-1.03.11-.2.24-.7.19-.93.91-1.38,1.88-2.79,2.91-4.23Z"/>
    <path class="cls-109" d="M24.58,42.86c-.04-1.49,2.74-2.93,4.04-1.93-.11.05.94,9.57-.76,7.16-.33-1.12-1.43-1.96-2.12-2.84-.31-.39-.84-.67-1.08-1.12-.19-.34.05-.9-.08-1.28Z"/>
    <path class="cls-53" d="M5.43,12.79c1.07-.64,2.05-1.41,2.98-2.23.23,1.98-1.12,3.54-2.91,4.23-.14-.56.22-1.49-.08-2Z"/>
    <path class="cls-96" d="M6.29,33.78c.25-.52.59-.5,1-.03,1.8-.38,1.56,2.46.08,3.03-.53-.46-1.64-.37-2.01-.96l-1.21-1.92c.49-1.99,1.42-2.02,2.14-.12Z"/>
    <path class="cls-149" d="M140.06,56.28c-1.43-.63-1.37-1.33.24-1.44-.04-2.65,1.08-5.45,3.6-2.85.5.32.48.66,0,1.03,1.34-.06,2.04,1.21,2.11,3.83.81.3.76.63-.06,1.01.04.33.1.79.25,1.08-.91.79-1.39,1.91-1.78,3.03-.75,1.31-3.61,1.36-3.91-.19-2.61-1.05-2.41-3.88-.44-5.51Z"/>
    <path class="cls-177" d="M143.89,53.03l.77-3.96c-.29-1.77.08-2.82,1.13-3.16-.84-3.13,1.62-1.67,2.07.93.16,1.2-.35,2.88-.07,4,.49,3.37-.11,5.37-1.78,6.01-1.89-.01-1.59-2.42-2.11-3.83Z"/>
    <path class="cls-92" d="M145.69,42.91c.76.7,1.99.99,2.29,2.18.03.58-.2,1.17-.12,1.75-.3-.39-.77-.65-1.12-1.36-.37-.74-.96-.68-.94.43-2.13,2.02-2.92-4.1-.1-3Z"/>
    <path class="cls-155" d="M112.15,53.08c.22-.87.49-.8.8.1,1.68-.8,3.59-.99,5.73-.58.72-1.34,1.47-1.59,3.11-1.04,3.62-2.38,6.73-.44,8.39,3.13,2.25.78,2.11,5.47-.62,5.81-4.54-1.87-9.69-5.47-14.54-3.55-1.96-.16-3.56-1.67-5-2.76.1-.54.81-.91,2.13-1.11Z"/>
    <path class="cls-155" d="M135.19,53.17c.78,0,1.08-.58.89-1.73-.74-2.56,1.1-4.61,3.44-2.62,2.81.74,2.94,2.79-.14,3.23-.37,1.5-.14,2.91.68,4.23,1.04,1.63.5,3.66.44,5.51,0,.92-.66,1.39-1.98,1.4-2.41-1.15-4.42-3.22-7.37-2.57.83-2.7,2.17-5.19,4.04-7.45Z"/>
    <path class="cls-37" d="M130.18,54.69c.76-.86,2.14-1.43,4.12-1.71.37-.82.67-.74.89.18,1.09,3.59-.74,6.01-4.04,7.45-.4.09-1.2-.01-1.58-.12.42-1.37.02-2.77-1.33-3.52,1.52-.85,2.63-1.25,1.95-2.29Z"/>
    <path class="cls-143" d="M140.5,61.79l3.91.19c-.1.3.05.68-.02.99-1.13,1.24-4.23,1-5.87.22-.28-.95,1.26-1.44,1.98-1.4Z"/>
    <path class="cls-174" d="M75.98,54.14c2.19-4.25,7.03-5.41,11.76-4.59l6.37-3.42c-.35-2.03,1.96-3.19,3.39-1.66.16-1.83,4.41-3.46,6.29-3.08l-.13-2.44c4.79-4.26,6.74-1.57,5.85,8.07,3.17.1,2.57,2.48.55,4.2-1.19-.12-1.98-1.09-2.37-2.9-.36-.33-.6-1.36-1.23-.68-.39.43-1.52.96-1.65,1.49l-.84.1c-2.04-.29-4.12.16-6.22,1.35-5.85,3.07-8.77,4.61-8.77,4.61l-1.05,1.59c-.03.92-1.27,1.67-1.73,2.3-.16-1.85-.4-3.21-1.64-3.86-2.1-1.08-2.9-.02-4.42.03-1.24,1.42-3.88,1.38-5.06.15l.9-1.24Z"/>
    <path class="cls-120" d="M97.75,50.56c2.1-1.22,4.17-1.67,6.22-1.35l.84-.1c-.47,1.93-2.67,2.02-3.82,3.23l-6.89,1.41c-.16.12-.51.07-.71.15l-3.25,4.05c-.8-.27-1.54-.68-2.21-1.18-3.98-3.28,7.01-7.21,9.82-6.2Z"/>
    <path class="cls-187" d="M107.7,48.31c.89.82,1.8,1.79,2.37,2.9.48-.25.85.33,1.12,1.74.36-.87.68-.8.97.14.31,1.28-1.3,1.05-2.13,1.11-1.84-1.4-2.25-3.62-2.33-5.89Z"/>
    <path class="cls-44" d="M43.37,55.16c-.21-1.92.47-2.2,1.48-.55,1.66-1.07,2.36-.39,2.54,1.57.57.42.52.69-.04,1.08-1.21.84-1.74,2.24-3.01,3.02-.25-.61-1.04-1.13-1.17-1.78-1.85-.55-1.37-2.71.19-3.34Z"/>
    <path class="cls-131" d="M40.95,56.81c-2.19-1.75-1.65-3.01.99-3.38.15-.85.44-.86.87-.08,1.86-.19,1.9.56.55,1.81.05,1.09-.4,2.25-.19,3.34-.4.27-.72.62-.96,1.03-1.04-.12-1.54-1.79-1.26-2.73Z"/>
    <path class="cls-67" d="M47.38,39.38c-1.03-2.54-.75-2.97.85-1.27,1.51-1.37,2.3-.64,2.36,2.18,2.22-.25,3.34,1.66,3.87,3.58,1.27,1.26.03,3.25-1.68,3.29-.34-.03-.74.21-1.07.14-.56,2.09-2.3,1.23-2.11-.87-1.37,1.35-1.89.82-.98-.95-2.79.23-3.23-1.97-1.66-4.08-1.8-.96-1.62-1.84.41-2.02Z"/>
    <path class="cls-122" d="M44.85,54.61c-2.09-1.51,2.14-6.1,4.29-5.4.72-1.67,2.01-1.15,1.89.65,1.07,2.58-1.28,6.83-3.64,6.32-1.03-.15-2.28-.44-2.54-1.57Z"/>
    <path class="cls-78" d="M49.61,46.42c.54.52,1.37.71,2.11.87.28.9-.41,1.88-.68,2.57-.67-.1-1.34-.26-1.89-.65-2.81-.5-2.53-2.74.47-2.79Z"/>
    <path class="cls-188" d="M56.22,51.92c2.66.28,2.56,1.2.02,1.98-.83.1-2,.22-2.25-.78.4-1.99-.23-4.28-1.21-5.96,1.8-3.18,2.7-1.86,2.7,3.96l.74.8Z"/>
    <path class="cls-51" d="M70.49,38.54l.48-2.71c-1.25-4.12-.82-5.92,1.28-5.41,3.27-.37,2.77,2.09,1.1,4.01-.6,2.87-1.18,6.3,1.37,7.83,1.99,2.05,4.49,1.28,7.52-2.3,1.53-1.1,4.45-1.78,5.77-.37s1.18,3.05-1.16,3.3l.05,1.39c-3.11.62-4.09,1.29-2.94,2.02,1.8.41,3.61.63,5.43.64.43-.76,1.56-1.56,3.38-2.4-2.34-3.29,8.98-3.68,4.74-.08-1.94.34-3.52,2.47-4.74,4.08-.58.76-10.05,4.26-10.26,2.1-1.64,1.92-3.75,3.56-6.52,3.51-.55-1.25-.33-2.63-2.16-4.04-4.63,5.52-3.88,11.23-5.59,6.48,1.43-5.78,2.26-12.06,2.26-18.04Z"/>
    <path class="cls-14" d="M75.08,55.39l5.06-.15c-1.5,4.52-4.43-.58-9.26,2.22.04-3.15,2.65-1.75,4.2-2.07Z"/>
    <path class="cls-189" d="M64.03,26.69c-2.24-.81-1.91-1.5.98-2.07.9-2.4,3.02-2.37,4-.03.88.25.88.59.03,1-.9,1.55-.82,3.88.24,7,1.05,1.99-.38,4.34-.72,6.06-1.86,2.01-3.18,2.19-3.97.54l-1.23-.42c-.28-4.1-.06-8.12.67-12.07Z"/>
    <path class="cls-157" d="M69.04,25.58l-.03-1c-1.94-1.62-1.53-2.03.94-2.12.36-2.24,2.33-2.37,2.31.02,4.09-1.27,4.01,6.19,2.74,7.44-.73.71-1.76.73-2.74.5-2.47,2.33.62,5.6-1.76,8.11-.06-2.06.38-4.4-1.21-5.96-1.16-2.98-1.24-5.31-.24-7Z"/>
    <path class="cls-121" d="M62.58,44.92c-1.93-1.28.36-4.43,2.01-5.74,2.58-.33,2.58-2.82,3.08-5.65,1.45,1.56.06,3.49.89,5.11-.32,1.62-.25,3.31-.7,4.95-.77,2.74-1.74,3.77-2.91,3.09-1.86,2.99-4.38,1.17-2.36-1.76Z"/>
    <path class="cls-85" d="M64.78,50.41c-.53-1.57.6-3.02,2.11-1.8-.04,3.43.33,7.14-1.69,10.12-.3-.36-.64-.69-1.03-.96.49-2.44,1.11-4.89.62-7.36Z"/>
    <path class="cls-110" d="M64.95,46.68l2.91-3.09c-.41,1.49-.41,3.59-.97,5.02-.87.4-1.59,1-2.11,1.8-.35.54-.86.98-1.14,1.58l-.77-.05c-2.9-.8-.71-5.9,2.07-5.25Z"/>
    <path class="cls-161" d="M56.22,51.92c.33-1.34,1.3-3.09,2.62-3.01,2.47-2.76,3.28,2.3,2.13,2.84-.94.44-1.8-3.28,1.09.21-.48,1.08-1.05,2.87-2.77,2.77-1.18-.06-2.21-.71-2.9.06.05-.29-.13-.6-.14-.89l-.02-1.98Z"/>
    <path class="cls-147" d="M58.84,48.91c-1.58-2.04-.86-3.91,1.87-3.23.36-1.77.91-2.57,1.88-.77.11,1.22,1.25,1.74,2.36,1.76l-2.07,5.25c-.26-.02-.55,0-.81.03-1.02.11-2.05,1.18-3.17.3.36-1.46,1.27-3.21-.05-3.35Z"/>
    <path class="cls-8" d="M32.34,36.74c-2.31-2.58,2.09-6.35,4.8-6.06.16-2.74,1.63-3.24,4.42-1.52l3.56-.76c.25-.94.86-1.83,1.93-2.07,1.24-.63,3.29-.47,4.03.86.97,1.49,2.01,2.79,3.14,3.89.9.3.91.63.03,1,1.99-.56,1.08,1.83.1,3-1.65,2.2-2.35,1.56-2.11-1.93-1.2,2.05-1.87,1.8-2.03-.76-3.9-2.72-17.18,5.84-5.65,2.67,3.27.69,3.37.9,2.8,4.3-.18.66-.32,1.34-.41,2.02.93,2.54.16,3.58-2.28,2.05-2.07-.78-2.33-.42-.76,1.09,2.65.76,2.65,1.39.01,2.18.51,1.25,0,1.61-1.15.79-2.37.06-.36-1-.41-.89-.93,2.01-2.69,2.26-2.66-.08-2.43.56-3.84-1.09-4.24-4.94-.2,2.42-.42,4.78-.67,7.07.89.17.87.47.03.9-.48,1-1.18.76-2.09-.73-6.16-4.87-.12-7.57-.41-12.09Z"/>
    <path class="cls-170" d="M28.27,33.93c-.87-.01-.89-.3-.13-.84-.86-.96-.25-1.77,1.83-2.43.35-2.67.61-2.97,2.28-.72,1.8-.54,2.75-1.56,2.83-3.05l2.15.76c1.44-.19,1.42.82-.08,3.04l-4.8,6.06c-1.37,1.32-2.7,2.6-3.72,4.19-.85,1.31-2.68,1.54-4.04,1.93-.46-.46-.7-1.09-1.09-1.6,1.72-2.13,3.31-4.57,4.77-7.33Z"/>
    <path class="cls-31" d="M37.02,48.83c1.73.57,2.99,1.87,3.8,3.9.82-.48,1.2-.24,1.12.7.11,1.25-.66,2.26-.99,3.38l-2.81.87c-1.2-.08-2.07-.98-2.32-2.13-.05-.91,0-1.82.11-2.72-.36-.89-.72-1.97-1.09-3.26l-.03-.9c1.07-2.51,1.29-2.35,2.21.16Z"/>
    <path class="cls-151" d="M32.75,48.84c.73.16,1.43.39,2.09.73.63.37,1.2.72,1.72,1.22.73.7.24,1.59-.63,2.04-1.31-1.19-3.07-2.07-3.18-3.99Z"/>
    <path class="cls-39" d="M2.52,22.4l.75,1.36c2.21-.76,2.65-.32,1.9,1.87,2.6-1.03,2.95.46.71,2.01-.1,1.09-1.41,1.49-1.8.2-1.18.38-1.82,1.07-1.93,2.07.88.25.88.59.03,1-2.5-.03-2.3-2.32-2.05-4.13.25-1.84.8-3.47,2.38-4.39Z"/>
    <path class="cls-178" d="M6.12,28.78c1.05-1.19,1.93-.57,2.03.93,1.05,1.42-.2,3.37-1.86,4.07-.68.16-1.48-.09-2.14.12-.22-.34-.61-.58-.89-.89-1.08-2.17.63-4.94,2.86-4.23Z"/>
    <path class="cls-11" d="M2.19,30.92l-.03-1c-.68-1.11.7-1.89,1.93-2.07l1.8-.2c.95.1,1,.49.23,1.13-1.73.74-2.89,2.33-2.86,4.23-.53-.59-.87-1.32-1.07-2.09Z"/>
    <path class="cls-22" d="M9.39,36.74c.62-1.19,1.32-2.26,2.09-3.22.91-2.17,3.18-2.22,6.8-.16,2.05.11,3.27,3.19,2,4.95-1.34-.5-2.81.26-4.14.07-2.97-.42-6.42.43-8.77-1.61.44-2.38,1.47-2.39,2.02-.03Z"/>
    <path class="cls-144" d="M12.48,10.55c1.93-.88,4.07-1.06,6.03-.21-.09,1.41.32,2.78,1.07,3.96-.57,1.68-1.67,1.99-1.97.07-2.4.69-4.07.41-5.03-.82-1.51,0-1.65-2.63-.1-3Z"/>
    <path class="cls-50" d="M10.45,9.51c.76.15,1.48.49,2.04,1.03l.1,3c1.13,1.2.58,1.6-.96,1.03-1.45-1.27-1.21-3.28-1.18-5.06Z"/>
    <path class="cls-171" d="M6.87,22.5c.77-2.12,1.94-4.31,4.44-4.04l-.08.71c1.78.86,1.62,1.64-.37,1.68,2.13,1.1,2.11,5.6.05,6.74.71,2.64.22,2.94-1.81,1.11-1.62.14-2.69-.21-3.21-1.05l-.71-2.01c-.84-1.28.09-3.08,1.7-3.13Z"/>
    <path class="cls-34" d="M3.27,23.76c.92-.52,1.28-1.38,1.91-3,.84.45,1.13,1.22,1.69,1.74-.41,1.14-.32,2.68-1.7,3.13-.9-.31-1.45-1.06-1.9-1.87Z"/>
    <path class="cls-63" d="M9.69,16.65c-.46.35-.96.7-1.64.93-.64.21-1-.27-1.36-.82.63-.49,1.26-2.95,2.42-2.07.59.44.48,1.49.58,1.96Z"/>
    <path class="cls-127" d="M12.59,13.54c1.74-.19,3.68-.44,5.03.82.68,2.45-1,3.31-3.09,2.02-.08-1.21-1.78-.64-2.57-.52-.27-.31-.04-1.04-.33-1.29.1-.44.47-.98.96-1.03Z"/>
    <path class="cls-134" d="M10.9,27.59c-.15-2.99,4.29-3.11,5.07-.41,2.04-2.97,5.55-.8,3.98,2.4,2.5.81,2.73,2.45,1.31,4.6,2.14,1.32,2.2,2.31.18,2.99.13.81-.26,1.48-1.16,1.14.08-4.92-1.86-1.07-2-4.95-.88-.25-.88-.59-.03-1-.96-1.19-2.67-2.15-5.14-2.86-1.89,2.26-3.39.85-2.2-1.91Z"/>
    <path class="cls-89" d="M21.27,34.18c.06-.9.37-.93.92-.15,1.77-1.47,2.97-.33,3.93,1.38,1.8,1.72-1.54,5.34-3.72,4.8.07-1.14-.48-2.07-.95-3.03-.42-.87-.07-2.07-.18-2.99Z"/>
    <path class="cls-90" d="M26.11,35.4c-.52-2.14.36-2.75,2.15-1.47-.28,3.09-1.7,6.3-4.77,7.33-.3-.4-.82-.64-1.11-1.06,1.57-1.36,3.77-2.52,3.72-4.8Z"/>
    <path class="cls-124" d="M7.29,33.74c-.21-1.31,1.06-2.53,1.96-1.07.3-.96.63-.97,1-.03.68,1.37.48,3.26-.87,4.1-.65-.16-1.36,0-2.02.03l-.08-3.03Z"/>
    <path class="cls-125" d="M8.15,29.71c.25-.89.6-.89,1.04-.05,2.86,0,2.78,2.27.07,3.01l-1.96,1.07c-.27.15-.69-.04-1,.03l1.86-4.07Z"/>
    <path class="cls-30" d="M143.05,45.09c-2.09-.69-2.22-1.72-.39-3.07,1.28.07,2.12.05,3.03.89-.9-.15-.92.81-.95,1.48-.03.64.84,1.07,1.06,1.52.23,2.24.51,5.9-1.9,7.11-.12-.31.05-.7,0-1.03-2.52.27-2.52-.21-.79-1.98-1.66-1.87-2.5-3.37-.06-4.92Z"/>
    <path class="cls-106" d="M138.61,45.32c.6-1.09.94-2.26,1.27-3.45l2.77.15c1.49.73.12,2.28.39,3.07-.78.65-1.9,1.33-3.35,2.05-1.83,3.06-4.33-.25-1.09-1.82Z"/>
    <path class="cls-128" d="M139.52,48.82c-.95-.12-.9-.4.04-.84,1.99-2.91,3.45-.77,3.55,2.03.47.56.69,1.26.79,1.98-1.63.24-2.04,2.2-3.6,2.85-1.53,0-1.93-1.76-.92-2.79.13-1.02.67-2.15.14-3.23Z"/>
    <path class="cls-114" d="M139.38,52.06c.14.78,1.23,1.79.92,2.79l-.24,1.44c-1.38.11-2.04-.46-2.1-1.61-.08-1.38-.03-2.5,1.42-2.62Z"/>
    <path class="cls-130" d="M121.77,45.75c.72-.64,1.78-1.35,2.96-1.1,2.3.32,3.74,1.42,4.84,3.47,1.83-1.02,6.36,3.46,3.89,4.8-1.66,1.64-2.74.77-4.1-.79-.13-.15,3.49,2.05.82,2.57-2.7-1.27-5.5-2.34-8.39-3.13-2.85.38-4.11-1.85-2.15-4.01-2.23-2.34-.06-3.79,2.13-1.81Z"/>
    <path class="cls-45" d="M118.79,47.69c.05-.9.34-.92.85-.13.75,1.32,1.58,2.6,2.15,4.01-1.1,1.54-1.58,3.11-3.47,3.02-2.11-.11-4.01.25-5.37-1.4-1.23-2.33,3.95-8.03,5.84-5.5Z"/>
    <path class="cls-112" d="M115.7,45.67c-1.05-1.62-.42-2.01,1.12-.76,2.56-.11,2.91.39,1.98,2.78-2.73.41-4.58,3.13-5.84,5.5l-.8-.1c-.32-.04-.65-.16-.97-.14-1.67-3.63.92-7.08,4.51-7.27Z"/>
    <path class="cls-91" d="M129.08,45.49c.91.24,1.78.59,2.66.93.9,2.08,3.14,3.2,4.35,5.01l.92,1.38c.28.41-.06,1.55-.88.96-.3-.22-.66-.36-.93-.61l-.89-.18c-.24.44-.52.39-.84-.07-.16-2.2-2.53-3.23-3.89-4.8-2.29-1.13-3.34-1.73-.5-2.62Z"/>
    <path class="cls-156" d="M133.46,52.91c.27-.02.57.02.84.07-.44,1.75-2.57,1.64-4.12,1.71.01-1.1-1.32-1.51-1.09-3.29,1.59,1.03,2.85,1.6,4.37,1.51Z"/>
    <path class="cls-172" d="M78.9,27.19l1.11-1.97c4.15.62,7.12-.28,8.91-2.69,1.79-1.11,3.06-2.48,3.82-4.12l2.09,1.02c1.93-2.91,4.32-.14,2.16,2.2,1.06,1.86,3.3,2.85,6.74,2.98,1.66,2.21,4.03,3.8,7.1,4.75,2.45,2.23,4.07,4.63,4.84,7.22,1.79,1.2,3.07,1.33,3.83.39,1.19-2.4,2.05-1.97,1.96.68l2.34,3.13c-.87,2.53-3.18,2.05-3.17-.73-1.28.52-1.89,1.64-1.84,3.39l-1.23.42c1.69,1.11,1.19,1.8-.76,1.06l-1.12.76c-1.5,1.08-3.56,1.52-6.18,1.33-2.93-2.33-1.52-5.79-2.43-9.92.22,2.93-2.56,3.14-3.29,4.29-4.25,1.76-6.99,1.61-8.22-.45-.87-1.1-.51-2.33,1.08-3.68,3.21-.21,4.03-2.35,2.47-6.42-1.95.83-3.24.44-3.86-1.16l-2.7-.1c-2.42,1.5-4.21,1.58-5.38.25-1.49,1.62-6.75,1.37-8-.49-1.88.56-2.03-.24-.25-1.23-.89-.18-.87-.49-.02-.92Z"/>
    <path class="cls-100" d="M86.84,42.9c-.55-2.56.94-2.75,4.48-.59-.81-1.98,3.41-3.09,4.25-1.37,2.09,1.75,5.21-.17,6.94-2.26,1.26.57,1.36,1.74,1.28,2.71-1.07,1.69-3.76,2.64-6.29,3.08-.05-1.44-.81-2.18-2.37-1.73-.86.25-2.02.66-2.37,1.8-.89,1.32-3,1.83-4.17.67.23,2.42-3.01,2.27-4.64,1.09l-3.25,2c2.02-1.24-12.51,3.02-8.89-.34,2.2-2.04,1.99,2.14,9.33-2.44,1.89-1.18,3.98-1.72,5.7-2.63Z"/>
    <path class="cls-17" d="M110.07,51.21l-.55-4.2c.85-.88,1.11-2.16,1.76-3.91l4.42,2.58c-.85,3.88-4.59,2.9-4.51,7.27-1.16.06-.8-1.11-1.12-1.74Z"/>
    <path class="cls-95" d="M103.97,49.21c-2.53-.07-3.87,2.19-6.22,1.35,1.42-1.91,4.28-3,6.22-1.35Z"/>
    <path class="cls-27" d="M42.81,53.35c-1.66-1.6.17-4.77,1.81-6-.06-2.74,1.96-3.77,4.01-1.87l.98.95c-.7.72-.04,2.07-.47,2.79-.71,1.2-1.08,2.53-1.79,3.91-1.56-.33-2.33.47-2.5,1.5-.51.14-1,.33-1.48.55-.03-.6-.48-1.21-.55-1.81Z"/>
    <path class="cls-108" d="M41.53,49.55c-1.43-1.68-.84-2.41,1.26-2.05l1.15-.79c.74-.56.95-.32.68.64.03,2.2-1.51,3.9-1.81,6-.27-.03-.63.17-.87.08-.41-.16-.74-.49-1.12-.7-2.3-1.13-2.21-3.48.71-3.17Z"/>
    <path class="cls-2" d="M50.23,32.41c.75.16.74.45.04.86l-2,3.98c.88.12.82.42-.05.86-.84-.46-.72.8-.85,1.27-1.74-5.58-7.68,1.27-9.72-3.23-1.39-3.06,11.5-8.28,12.37-6.29.31.7.18,1.67.2,2.55Z"/>
    <path class="cls-119" d="M50.59,40.29c-1.71-2.08.11-5.41,1.67-7.12.78.54,1.14,1.64,2.11,1.93.15-.94.55-1.62,1.37-.85,2.15-1.59,3.02.02.88,1.69.8,1.37.41,4.28-.89,5.26.86.17.82.47-.01.9.24,1.51-.18,2.1-1.25,1.78-2.19.35-3.45-1.61-3.87-3.58Z"/>
    <path class="cls-182" d="M43.93,44.54c-.4-.82-.14-1.18.76-1.09l2.28-2.05c.98,1.15,1.29,2.65,1.66,4.08-1.18.92-2.73,1.09-4.01,1.87-.21-.23-.43-.45-.68-.64.07-.72.07-1.45-.01-2.18Z"/>
    <path class="cls-118" d="M50.27,33.27l-.04-.86c.75.04,1.42.34,2.03.76-.24,2.46-1.84,4.59-1.67,7.12-.7-.82-1.5-1.54-2.36-2.18.02-.28,0-.58.05-.86l2-3.98Z"/>
    <path class="cls-167" d="M74.72,42.27l-1.27-.7c1.09-1.85,1.69-4.28,1.83-7.29-3.03-2.38-.07-7.17,3.9-4.94,2.89-1.08,5.66-1.03,8,.49,3.08-.17,2.92,2.12.57,3.66l1.43.34c8.93-5.79,12.05,4.18,2.64,6.91l-.5,1.57c-1.35.44-3.28-.04-4.48.59.14-.58.73-1.1.42-1.42-4.05-4.21-11.53,11.9-12.55.79Z"/>
    <path class="cls-71" d="M72.25,22.48c-.27-1.88.3-1.9,1.91-1.21,1.72-1.5,4.01-1.86,6.87-1.07,1.35-1.51,3.16-1.3,5.44.62l3.27-2.73c-1.53-1.2-2.44-2.57-2.72-4.1-2.65.39-2.9-.02-1.31-2.18-.13-2.67.84-2.62,1.88-.19,5.44-1.86,10.01-1.39,13.71,1.39-.25,1.38-.78,1.8-1.59,1.26l1.72,1.26c-2.05,1.07-4.25,2.37-6.59,3.89-3.27,2.17-6.74,4.28-8.34,8.16-2.98-.49-5.23-.3-7.6-.39-1.51-.21-1.5.1.02.92l.25,1.23c-2.13.8-4.29,2.42-3.9,4.94-.32,3.86-1.33,10.87-2.49,3.87l.57-3.71c-.22-1.39-.23-2.82-1.1-4.01,2.44-2.29,2.12-5.51,0-7.94Z"/>
    <path class="cls-157" d="M73.35,34.43c.31,1.95-.59,4.21.87,5.92.76-2.95-.6-5.17,1.05-6.08.4,2.53-.34,5.5-.56,7.98-.42.49-1.62,1.16-.92,2.28.42.66,1.69,2.01-.85,2.01-1.62-4.06-1.17-8.73.4-12.13Z"/>
    <path class="cls-24" d="M83.95,46.3c1.2-.74,3.11-.71,4.64-1.09,1.8-.23,2.14.51.8,1.73-.68,1.06-1.59,1.96-2.63,1.56-1.36-.53-2.82-.8-2.8-2.2Z"/>
    <path class="cls-58" d="M92.76,44.54c.6-.21,1,.24,1.01,1.32l-4.39,1.09c-.43-.49-.71-1.08-.8-1.73,1.37-.34,2.77-.53,4.17-.67Z"/>
    <path class="cls-47" d="M64.03,26.69c4.48,1.72-1.32,3.54.56,12.49-1.09,2.05-2.13,2.61-3.12,1.68-1.32-1.32-1.34-3.03-.05-5.13l-.16-2.94c-3.3-3.97-2.93-9.73,2.75-6.1Z"/>
    <path class="cls-184" d="M55.05,26.07c.99-.25,1.98-.62,2.96-1.1-.42-2.09.99-2.3,2.06-.47,1.3-1.81,3.81-1.88,4.93.12-.41.65-.9,1.29-.98,2.07-1.01.53-2.05.2-3.62-.16.33,2.17,1.13,4.14.87,6.25.85,1.9-.03,2.32-1.63.9-2.15.75-2.41.07-1.11-1.74-1.42-.81-2.56-2.1-3.43-3.87-.88-.27-.87-.61-.01-1-.88-.25-.88-.59-.03-1Z"/>
    <path class="cls-152" d="M59.91,22.87c-1.07-1.72-.44-2.27,1.14-.92.36-3.19,6.36-3.7,7.87-1.12,2.28-.43,2.34-.19,1.02,1.63-.13.78-.41,1.53-.94,2.12-1.32.38-2.69-.04-4,.03-1.66.1-3.29.29-4.93-.12-1.86-.09-1.91-.91-.16-1.62Z"/>
    <path class="cls-154" d="M69.04,25.58l.24,7c-1.07-2.04-1.63-4.14-2.24-6.74.97-.39,1.52-.22,2-.25Z"/>
    <path class="cls-4" d="M68.92,20.83c-1.05-2.03,4.94-4.22,5.93-2.57,3.36.36,2.53,3.5-.69,3-.19.7-1.07,1.65-1.91,1.21s-1.49-.64-2.31-.02c-.7.04-.92-1.09-1.02-1.63Z"/>
    <path class="cls-105" d="M61.47,40.85c1.01-.62,1.98-1.31,3.12-1.68l-2.01,5.74c-.65.18-1.28.45-1.88.77-3.27-.61-2.52-5.25.77-4.83Z"/>
    <path class="cls-29" d="M39.72,46.54c1.29,1.58.65,2.26-1.26,1.4.04,2.18-.44,2.48-1.44.89-.7.15-1.49-.21-2.21-.16-3.47-3.37-1.15-10.25.03-9.68,4.63,2.23.99,2.12,4.88,7.56Z"/>
    <path class="cls-146" d="M37.22,27.65c.21-.7.5-.67.87,0,1.83-.86,6.24-1.37,7.03.76-.72,1.33-2.11,2.28-3.55,2.36s-2.3-.98-3.09-2.27c-.71.99-.76,1.71-1.34,2.18.1-1.01.13-2.02.08-3.04Z"/>
    <path class="cls-186" d="M40.02,25.59c-.03-1.5,1.57-1.52,2-.07,2.66-.92,6.46-1.05,8.99-.31,1.36-1.37,1.89-.83,1.03.96.05,1.45-.27,1.8-.96,1.03-1.4.06-2.8-.17-4.03-.86-2.12,1.24-4.78,1.33-7.99.28-.48-.86-.11-1.18.96-1.03Z"/>
    <path class="cls-113" d="M53.89,29.11c-.99-1.57-.41-1.85,1.21-1.04,1.03-.2,2.29-.12,2.91.62.81.96.67,2.19.52,3.25,0,1.93-.76,1.95-1.27.05-1.64,1.03-2.64,1.07-3,.1-.01-.33.02-.68-.03-1-1.57-.47-2.05-1.48-.33-1.99Z"/>
    <path class="cls-23" d="M39.06,26.63l7.99-.28c.09.64-.02,1.41-.61,1.73-.41.22-.89.27-1.32.34-2.12-1.26-4.66-.73-7.03-.76-.88-.27-.88-.62-.04-1.05.26-.9.6-.88,1,.02Z"/>
    <path class="cls-31" d="M38.46,47.94c.53-.33.83-.96,1.26-1.4.44.25,1.03.48,1.45.38.64-.16.79-1.21,1.12-1.33.87.73.41,1.46.5,1.92-.35.72-.78,1.4-1.26,2.05-1.1,3.27-4.99.56-3.07-1.62Z"/>
    <path class="cls-159" d="M44.69,43.45c-.2.4-.45.77-.76,1.09-1.48.26-2.33-.05-2.36-1.48-.03-1.2-.17-3.43,1.66-2.29.85.53.49,2.42,1.47,2.69Z"/>
    <path class="cls-23" d="M51.09,27.21c.03-.52.46-.96.96-1.03,1.43,1.04,2.04,2.02,1.84,2.94l.33,1.99c-.98.08-2.08-.14-2.58-.89-.63-.94-.62-2.03-.56-3.01Z"/>
    <path class="cls-123" d="M54.26,32.1c.99-.32,2.18-1.04,3-.1,1.03,1.7.4,2.57-1.52,2.25-.1.67-.69,1.05-1.37.85l-.1-3Z"/>
    <path class="cls-129" d="M31.04,22.97c1.58-1.7,4.34-1.21,3.82,1.58,1.59-1.99,3.11.2,3.2,2.06l.04,1.05h-.87c-1.71,1.29-2.93,3.96-4.98,2.28-.89-1.65-1.94-3.28-3.17-4.87-2.92-1.9-.25-4.22,1.97-2.11Z"/>
    <path class="cls-179" d="M23.81,31.38c.2-2.74.89-2.86,2.29-.53,2.8.23,3.47.98,2.03,2.25,0,.28.15.57.13.84-.81.34-1.51.88-2.15,1.47-1.46.85-3.07-.04-3.93-1.38-1.73-2.11-1.2-3.73,1.63-2.64Z"/>
    <path class="cls-81" d="M27.02,24.52c1.42-2.36,2.02-2.2,2.05.56,3.29,1.1,3.65,3.61.9,5.59-.35.98-.99,1.81-1.83,2.43l-2.03-2.25q1.1-1.88,0,0l-2.29.53c-1.64.19-1.57-.57.21-2.26-5.12-.25-.23-6.81,3-4.6Z"/>
    <path class="cls-19" d="M32.24,29.95l-2.28.72c.02-1.94-.02-3.85-.9-5.59,1.66.18,3.3.31,5.15,1.8-.56,1.41-1.46,2.13-1.97,3.07Z"/>
    <path class="cls-164" d="M38.46,47.94c-1.76,1.77,2.56.92,3.07,1.62-.42,1.01-.64,2.08-.71,3.17-2.49,1.63-2.87-2-3.8-3.9.49-.13,1.01-.62,1.44-.89Z"/>
    <path class="cls-66" d="M4.08,27.85c-.32.94-1.01,1.69-1.93,2.07-.9-.3-1.73-1.23-.57-1.91.62-.37,1.96-1.05,2.5-.16Z"/>
    <path class="cls-145" d="M5.89,27.65c.63-.07,1.4,0,2.11-.55,1.07-.83,1.27.52,1.1,1.6.89.19.91.51.09.96l-1.04.05c-.83.04-1.79-.01-2.03-.93-.1-.37-.1-.77-.23-1.13Z"/>
    <path class="cls-87" d="M9.18,29.66l-.09-.96c.63-.32,1.23-.71,1.81-1.11.42,1.01,1.71,1.32,2.2,1.91l5.07,1.71.07,1.15.03,1c-2.23.52-4.52.06-6.8.16-1.09,1.51-1.55,1.01-1.23-.88-.24-.04-.77-.09-1,.03l-.07-3.01Z"/>
    <path class="cls-61" d="M10.25,32.64c.44.22.81.61,1.23.88.03.73.13,1.55-.19,2.45-.24.67-1.07.98-1.9.78-.06-1.42.12-2.87.87-4.1Z"/>
    <path class="cls-101" d="M22.89,17.26c-.98-1.48.4-2,1.9-2.24,1.18.49,1.68,1.43,1.84,2.75-.44,1.04.09,1.34,1.61.9l.49,1.29c1.65,2.35-.76,3.94-2.86,1.99l-.88-.03c-1.96-.13-2.58-.75-1.86-1.84-2.68-.28-2.45-1.63-.24-2.83Z"/>
    <path class="cls-93" d="M28.74,19.96c-1.32-1.52-.65-2.05,1.08-.92.08.85.29,1.67,1.07,2.15,2.66-.1,2.61.8.15,1.77-.65.43-2.54.98-1.97,2.11-.66-.25-1.34-.45-2.05-.56-2.36-.04-2.17-.72-1.15-2.56,1.17-.33,2.2-.98,2.86-1.99Z"/>
    <path class="cls-15" d="M26.63,17.78c.68-.43,1.58-1.05,2.27-.37.41.41.86,1.07.91,1.64-.32.32-.83.53-1.08.92-.86.07-1.95.25-3.06-1-.43-.49-.32-.67.95-1.19Z"/>
    <path class="cls-86" d="M19.59,14.3c1.45,1.32,3.37-.03,5.2.72-.4.92-.97,1.79-1.9,2.24-2.91.14-3.99-.51-3.24-1.96-.89-.22-.9-.56-.07-1Z"/>
    <path class="cls-32" d="M14.53,16.39c.96-.82,1.8-1.87,3.09-2.02l1.97-.07.07,1c1.72,1.22.65,2.32-.89,3.03.13,2.53-3.44,2.56-3.86.04-1.77.73-1.94-.02-.35-1.2l-.02-.78Z"/>
    <path class="cls-10" d="M10.86,20.84c2.24-3.15,4.09-.08,4.27,2.66,2.93-.04,3.56,2.45.85,3.68l-5.07.41c-.91-2.21-.85-4.46-.05-6.74Z"/>
    <path class="cls-139" d="M14.54,17.17l.35,1.2c2.83.31,2.98,2.02,1.03,3.79,1.23,1.13.82,1.75-.79,1.35-1.39-1.02-2.4-2.76-4.27-2.66.19-.54.22-1.13.37-1.68,1.14-.62,2.1-1.53,3.32-1.99Z"/>
    <path class="cls-141" d="M15.92,22.15c-.28-3.03,2.86-3.03,3,.03,2.33,1.08,4.67.78,6.95-.23,1.02.4,1.33,1.55,1.15,2.56-1.81.97-4.14,2.43-3,4.6-1.15,3.08-3.15,4.33-4.07.46-1.05-1.25-2.16-2.35-3.98-2.4-.15-1.25-.56-2.45-.85-3.68-.15-.63.37-1.05.79-1.35Z"/>
    <path class="cls-42" d="M19.95,29.58c1.01,1.2,3.37.8,4.07-.46.22.6-.35,1.6-.21,2.26-.89.62-1.39,1.6-1.63,2.64l-.92.15c-.85-1.39-1.76-2.94-1.31-4.6Z"/>
    <path class="cls-1" d="M18.25,32.36c-1.5-1.14-4.34-1.17-5.14-2.86,1.82.47,3.65.96,6.01.86.43,1.13.12,1.81-.87,2Z"/>
    <path class="cls-115" d="M128.71,23.28c-1.09-1.56-.56-2.32,1.28-1.84.88-1.17,1.8-2.47,2.76-3.88.17-3.15,1.04-4.62,2.6-4.41.49-.35.89.03,1.18,1.14.54.29.49.6-.09.92-.27,2.68-1.05,5.31-.54,7.98.02,3.12-.56,4.82-1.73,5.1l-2.01-1.04c-4.35-.92-5.5-2.25-3.45-3.98Z"/>
    <path class="cls-166" d="M134.17,28.31c1.91-1.29-.25-3.96,1.73-5.1,1.17,1.41.93,3.45.26,5.03l.25,1.87-2.18.19c-.25.55-.58.54-1,.03-2.17-1.65-1.8-2.17.93-2.03Z"/>
    <path class="cls-173" d="M123.83,40.78c2.25.89,4.34,2.45,5.25,4.72-.21.96-.15,1.87.5,2.62-2.16-.75-5.3-.57-4.84-3.47-1.52,1.23-2.01.54-.79-1.06-2.7-.63-2.54-1.83-.12-2.81Z"/>
    <path class="cls-43" d="M143.05,45.09c.46,1.38.78,3.37.06,4.92-.98-.98-2.2-1.67-3.55-2.03-.01-.28.12-.56.13-.85.05-.92.34-1.85.98-2.6.79-.92,1.97-.68,2.37.55Z"/>
    <path class="cls-54" d="M116.82,44.91c.33-.23.57-.7.76-1.06,1.24-1.86,1.94-1.87,2.1-.03.73-2.56,2.13-2.14,2.29.51,1.75.42,1.57,1.11-.19,1.41-1.14-.2-1.96.75-2.13,1.81l-.85.13c-.91-.73-1.62-1.66-1.98-2.78Z"/>
    <path class="cls-75" d="M123.95,43.58l.79,1.06c-.43.52-.78,1.26-1.42,1.54-.59.27-1.09-.36-1.55-.44l.19-1.41c-.18-2.14.69-2.46,1.98-.75Z"/>
    <path class="cls-13" d="M97.01,21.63c-.36-2.78.51-4.64,2.61-5.58,2.39,1.59,4.05,1.6,4.97.02-.31-.88.09-1.14,1.09-.87,4.25-.45,3.52,6.53,1.63,9.38,2.06.18,3.84,1.23,3.73,3.5,3.87.36,4.91,1.29,3.1,2.79l.39,1.02c1.13,1.3,1.99,2.86,2.05,4.6-.19.56-.49.58-.87.09-1.38-1.46-3-2.73-4.09-4.79-1.39-2.63-4.95-2.41-6.84-4.08-2.74-2.43-5.06-2.35-8.51-1.35-1.59-.95-.03-3.54.75-4.74Z"/>
    <path class="cls-51" d="M95.26,29.68c1.52.2,4.99-2.78,5.86,1.04.47,2.07.26,4.74,1.96,6.4-3.57,1.41-6.31,1.41-7.5,3.82l-4.25,1.37c-.37-1.47-2.76-.55-2.62-3.04,2.34-.3,3.83.68,5.01-.79.7-.87,2.86-2.47,1.68-3.96-2.36-2.98-9.72,3.17-7.65-1.04.13-3.25,4.67-4.63,7.51-3.81Z"/>
    <path class="cls-163" d="M99.71,14.27c1.11-1.96,4.49-.29,4.88,1.8.42,2.56.69,5.29-1.17,7.33-1.69-2.42-1.52-4.65-3.74-6.42-1.41,1.33.02,2.24,0,2.95-.03,1.65-2.25,1.04-2.68,1.7-.26-1.1-1.05-1.96-2.16-2.2.05-.95.07-2.09.52-2.74,1.27-1.81,5.83-.94,4.35-2.42Z"/>
    <path class="cls-35" d="M87.17,29.83c2.46-.88,5.67-1.88,8.09-.15-3.83-.02-3.65,2.64-7.51,3.81.13-1.18-.43-2.49-.57-3.66Z"/>
    <path class="cls-79" d="M120.66,40.05c.97.52,2.18.34,3.17.73.52.69-.07,1.98.12,2.81-.7.13-1.4.33-1.98.75-.67-.54-1.53-.04-2.29-.51-1.6-.4-.68-3.5.98-3.78Z"/>
    <path class="cls-48" d="M78.9,27.19l.02.92c-.88.08-1.99.33-2.33-.51-.26-.64-.65-1.93.49-1.98s1.39,1.21,1.82,1.57Z"/>
    <path class="cls-137" d="M116.57,36.49c.97.22,2.04.16,2.96.48.68,1.62-.7,2.38-2.11,1.59-.82-.46-1.07-1.28-1.72-1.97.28.03.6-.15.87-.09Z"/>
    <path class="cls-150" d="M120.66,40.05c-.85,1.07-1.02,2.44-.98,3.78-.54-.33-1.5.25-2.1.03.47-.86.82-1.78.92-2.58.16-1.27.99-1.84,2.16-1.22Z"/>
    <path class="cls-8" d="M50.27,33.27c.08,1.69-.05,3.74-2,3.98.27-1.49.66-3.11,2-3.98Z"/>
    <path class="cls-47" d="M57.26,32l1.27-.05c.54.45.89,1.07,1.11,1.74-.13,1.09-1.57,1.55-1.98,2.34-.37.84-.72.8-1.04-.09.08-.64-.4-1.34-.88-1.69.14-.93.73-1.78,1.52-2.25Z"/>
    <path class="cls-77" d="M74.84,18.27c-2.25-.69.31-2.59,1.93-3.11-1.04-2.92-.08-3.47,2.59-2.04,2.07-.55,4.21-1.09,6.34-1.31.5.68.93,1.41,1.31,2.18,1.11.52,2.01,1.26,1.56,2.51-.15.41-6.83,3.76-7.56,3.7-1.36,2.59-4.61,1.93-6.87,1.07.28-1.02,1.34-1.96.69-3Z"/>
    <path class="cls-97" d="M87.02,13.98c2.06.15,5.77,3.1,4.31,5.15-1.22,1.7-4.03,2.18-4.17,5.29-2.64-1.93-3.81-3.7-6.13-4.22,1.26-2.4,2.61-4.74,6.32-4.67.09-.61-.22-1.17-.33-1.55Z"/>
    <path class="cls-60" d="M90.48,9.98c1.98-.89,4.15-1.22,6.51-1,1.93-2.13,7.54,1.34,8.76,3.66,2.52.53,2.37,1.94-.07,2.56-.34.32-.71.61-1.09.87-1.83.11-3.28-1.11-4.88-1.8-1.25-.54-3.63.48-3.83-1.43,3.15.93,3.67.82,3.69.24.09-2.98-12.21,0-11.98-1.46.47-1.01,2.36-.87,2.89-1.64Z"/>
    <path class="cls-195" d="M54.25,23.25c-1.24-.48-1.06-1.07.13-.7-.07-.88.2-.88.77-.11,1.39-1.4,2.34-1.64,2.86-.73,1.28-1.52,2.11-.87,1.9,1.15.07.51.31,1.08.16,1.62-.64-.16-1.42.46-2.06.47-.46,1.49-2.08,1.28-3,.1-.86.48-1.18.11-1.03-.96-.78-.45-.67-.73.27-.86Z"/>
    <path class="cls-98" d="M50.95,23.21c1.95-2.44,3.05-2.43,3.31.04l-.27.86c-.1,1.21.27,2.19,1.1,2.96v1s-1.19,1.04-1.19,1.04c-1.17-.51-1.7-1.72-1.84-2.94l-1.03-.96c-.88-.25-.88-.59-.03-1-.88-.25-.88-.59-.03-1Z"/>
    <path class="cls-193" d="M53.98,24.11c.32.34.67.67,1.03.96.88.25.88.59.03,1l.03,1c-1.1.28-2.28.12-2.13-1.44.06-.6.12-1.32,1.02-1.52Z"/>
    <path class="cls-3" d="M58.01,24.96c-.09.71-.14,2.23-1.16,2.04-.66-.13-1.22-.77-1.8-.93l-.03-1,3-.1Z"/>
    <path class="cls-5" d="M59.75,16.91c-1.92-2.03-.03-4.61,1.91-2.07.14,2.39-.35,4.75-.61,7.12-.38.05-1.03.56-1.14.92-.68-.31-1.33-.68-1.9-1.15-1.04-1.61.22-3.79,1.75-4.81Z"/>
    <g>
      <path class="cls-116" d="M54.46,43.87c.32-.65.31-1.62,1.25-1.78,2.99-.23,3.53,1.25,1,2.92l-.82,5.03c1.73-.11,1.49.62.34,1.87-2.95,1.2.65-4.66-3.44-4.76-.28-1.39,1.13-2.16,1.68-3.29Z"/>
      <path class="cls-69" d="M55.89,50.05l.82-5.03c0-1.03-.66-1.99-1-2.92-.09-.25,0-.63.01-.9.89-1.6,1.53-3.32,1.93-5.17-1.21-1.83.04-3.04,1.98-2.34.59-.21,1.14-.52,1.63-.9,1.94.25,2.73,2.6,1.69,4.59-.69,1.33-1.05,2.46-1.49,3.48-.68,1.57-.95,3.12-.77,4.83-.56.98-1.5,2.09-1.87,3.23-.41,1.28-1.34,2.56-2.62,3.01,0-.63-.36-1.24-.34-1.87Z"/>
      <path class="cls-194" d="M56.61,35.94l1.04.09c-.13.26.66,6.13-1.93,5.17.05-1.79.68-3.49.89-5.26Z"/>
      <path class="cls-161" d="M56.71,45.02c.02,1.66.81,4.03-.82,5.03.05-1.66-.85-4.02.82-5.03Z"/>
      <path class="cls-175" d="M59.97,36.19c1,.41.92,3.99-.42,3.72-1.48-.3-.79-4.21.42-3.72Z"/>
    </g>
    <path class="cls-168" d="M37.91,22.5c1.15-.05,1.83.31,2.04,1.1,2.72.28,2.5.94.07,2-.35.32-.67.67-.96,1.03-.33.01-.68-.08-1-.02-1.59.28-2.15-1.44-3.2-2.06-4.1-1.7,1.51-5.21,3.06-2.05Z"/>
    <path class="cls-176" d="M39.95,23.59c.02-1.46,1.29-1.32,2-.07,2.58-1.17,4.91-1.25,7-.24.07-2.17.86-1.78,2-.07l.03,1c-2.87.43-5.86.87-8.96,1.31l-2,.07-.07-2Z"/>
    <path class="cls-190" d="M50.98,24.21l.03,1-8.99.31c-.1-.81.86-1.04,1.92-1.08l7.04-.24Z"/>
    <path class="cls-183" d="M30.89,21.2c4.49-1.29,9.69-2.87,13.96-.77.35,1.68-2.5,1.67-3.96,1.14-.22,1.53-1.68,1.6-2.97.94-.63.23-1.48-.21-2.24.35-.46.33-.89.93-.81,1.7-1.12-.66-2.85-.5-3.82-1.58l-.15-1.77Z"/>
    <path class="cls-18" d="M26.11,30.85l-.95-2.5c-.55-1.45,1.53-3.35,2.59-1.92.59.8-.82,3.09,1.38,3.96-.96,1.13-2.09.24-3.01.46Z"/>
    <path class="cls-70" d="M48.46,17.57l2.17-3.36c.46-.72,1.54-1.34,1.81-2.16,1.25-1.36,1.85-.86,1.16.88,1.05,1.62-1.07,5.25-2.79,6.27-.25.88-.59.88-1,.03-2.17,1.34-3.12.16-1.35-1.67Z"/>
    <path class="cls-136" d="M48.46,17.57c.18.73.68,1.33,1.35,1.67.88.25.88.59.03,1,.59,2.06-.55,2.47-1.96,1.07-.29.91-.63.92-1,.03-1.32.68-1.81.37-1.03-.96.02-1.49,1.33-2.32,2.62-2.81Z"/>
    <path class="cls-46" d="M44.85,20.42c.29-.08.7-.07,1-.03.51.06.9.5,1.03.96,1.15,1.89-3.5,2.07-4.96,1.17-.86.47-1.17.1-1.03-.96l3.96-1.14Z"/>
    <path class="cls-148" d="M14.89,18.37l3.86-.04c.38-1.76,1.76-2.12,4.13-1.07.57.71.19,2.02.24,2.83-.01.94-1.09,1.68-3.23,2.21l-.98-.11c-.74-.68-2.28-.54-3-.03-.73-1.13-.66-2.55-1.03-3.79Z"/>
    <path class="cls-185" d="M23.13,20.09c.79.42,1.4,1.08,1.86,1.84-1.2,1.19-3.69,1.32-5.09.37-.34-.73-1.75-1.72-.72-2.88.68.04,1.43,1.46,2.16,1.45s1.29-.44,1.79-.78Z"/>
    <path class="cls-19" d="M19.9,22.29c1.68.19,3.4-.14,5.09-.37.25-.03.65-.06.88.03-1.72,2-5.06,1.97-6.95.23l.98.11Z"/>
    <path class="cls-41" d="M19.65,15.3c.91.85,2.44.96,3.24,1.96l-4.13,1.07c-.13-1.1.06-2.25.89-3.03Z"/>
    <path class="cls-7" d="M114.02,19.87c1.57-.18,3.27-.49,5.09-.93,2.63,1.7,5.05,1.51,7.24-.57-1.91-2.34-1.39-2.78,1.45-2.66.14-.89.45-.89.92-.07.8-.57,1.12-.26,1.04.82.33.78.07,1.84-.78,3.19,2.48-1.02,2.84-.13,1.02,1.81-.29.69-.75,1.3-1.28,1.84-.89.44-1.45,1.56-1.68,3.35-.89,1.52-4.16,1.11-5.2-.35-1.29-.13-2.37.11-3.64.57-.39,2.1-3.08,2.81-4.34,1.08-3.93-1.7-4.84-13.53.15-8.08Z"/>
    <path class="cls-138" d="M131.72,15.39c-1.2-.12-1.69-.72-1.07-1.96-1.5.03-1.52-1.57-.07-2,.86-3.27,2.88-1.95,4.39.58.9.13,1.02.52.38,1.16-.94.63-.15,8.76-5.36,8.29l-1.02-1.81c.57-1.55,1.49-2.97,2.75-4.26Z"/>
    <path class="cls-135" d="M128.71,23.28c.28.96.37,2.24,1.76,2.2.77-.03,2-.8,2.74-1.45,1.26.71.87,2.82.96,4.28-1.22.78-2.86.79-4.92.04-.22.04-.48-.05-.68.03-1.14.19-1.65-.39-1.53-1.75-.88-1.29-1.09-2.91-.93-4.53,1.07.07,2.12.57,2.61,1.17Z"/>
    <path class="cls-76" d="M135.39,8.41c1.28,1.66,1.35,3.81,1.15,5.9-.66.29-.95-.69-1.18-1.14-.18-.35-.32-.77-.38-1.16-3.89-1.81-4-4.29.42-3.6Z"/>
    <path class="cls-192" d="M134.17,28.31c-.56.38-.46,1.55-.93,2.03-1.37-.73-3.44-.35-3.99-1.99,1.1-1.87,3.07.02,4.92-.04Z"/>
    <path class="cls-59" d="M113.87,27.94c1.44-.3,2.82-1.14,4.34-1.08,1.56-2.1,2.05-1.68,1.88.88,1.41-1.01,2.79-.74,2.09,1.08-7.45,2.62-8.36.13-7.66,3.07-1.13-1.31-2.08-2.79-3.49-3.81.72-2.66,1.85-2.7,2.83-.13Z"/>
    <path class="cls-162" d="M121.84,26.29c1.73-.38,3.5-.04,5.2.35.19.28.98.21,1.25.55.26.32.39.75.28,1.19-1.95.81-4.47-.24-6.38.43-.72-.27-1.35-.87-2.09-1.08-1.82-1.37.3-3.74,1.75-1.45Z"/>
    <path class="cls-33" d="M105.68,15.2l.07-2.56c-.06-3.23,3.76-3.11,3.69.17,1.18.31,1.61,1.41,1.29,3.32,1.11-.54,2.96.87,3.11,2.09,1.93.83,2.38,1.2.18,1.66-.57-.2-1.08-.7-2.12-.5,1.16,2.88,1.9,5.7,1.96,8.57-.75.16-2.11.16-2.83.13-1.68-.72-4-1.37-5.43-2.9.61-3.6,2.32-7.21.07-9.98Z"/>
    <path class="cls-52" d="M62.28,3.8c-.13-1.23.84-1.93,2.93-2.1.37.38.76.74.98,1.23.67,1.71-.57,3-1.59,3.72l-2.38.18c-2.02-.74-1.91-2.26.06-3.03Z"/>
    <path class="cls-57" d="M63.17.77l.98-.13c.41.29.7.71,1.05,1.06.28.77.16,1.92-.89,1.58-.49-.16-1.2-.28-2.04.53-1.48,1.69-2.17,1.15-1.05-.85-1.82-1.6-.1-2.72,1.95-2.19Z"/>
    <path class="cls-94" d="M53.8,19.11c-3.14-.69.43-6.97,2.83-5.03,3.03-1.37,4.21-.14,1.98,2.87-.11,1.92-1.31,4.94-3.46,5.5-.19-.1-.54.13-.77.11-1.8.22-1.8-2.41-.57-3.45Z"/>
    <path class="cls-20" d="M58.61,16.95c-.25-1.92.52-1.95,1.15-.04,0,1.77-.83,3.34-1.75,4.81-.93.33-1.87,1.27-2.86.73,1.58-1.62,1.1-4.64,3.46-5.5Z"/>
    <path class="cls-25" d="M51.84,20.18c-1.04-2.01.41-2.91,1.96-1.07-.13,1.15.38,2.34.57,3.45.58.36.58.61-.13.7-1.1-.15-2.2-.08-3.31-.04-.88-.25-.88-.59-.03-1-.18-.99-.03-1.77.93-2.03Z"/>
    <path class="cls-153" d="M59.21,7.03c1.83-2.11,2.75-1.78,2.83,1.01-.19.82-.51,1.64-.55,2.49-.25,1.67-2.23,1.7-2.9.32-2.52-.66-1.88-3.61.62-3.82Z"/>
    <path class="cls-180" d="M59.35,4.95c-1.02-2.01-.2-2.89,1.87-2-.22.39.79,1.09,1.05.85,0,1.01,0,2.02-.06,3.03-.03.4-.08.83-.17,1.21-.98-.24-1.92-.59-2.83-1.01-.89-.14-.88-.43-.05-.87-1.95-.11-1.82-.91.19-1.21Z"/>
    <path class="cls-140" d="M61.59,12.83c0,.67.03,1.33.07,2-.68-.11-1.54-.04-1.8.65-.18.48-.11,1-.11,1.42l-1.15.04c0-.69.07-1.43-.32-2.15-.26-.48-1.01-.71-1.66-.72-.88-.27-.88-.63-.04-1.07,1.53-1.17,4.22-2.25,5-.17Z"/>
    <path class="cls-73" d="M58.6,10.85c.68-.59,2.1-.09,2.9-.32-.04.76.09,1.54.1,2.3l-5,.17c-.93-1.67.14-3.85,2-2.16Z"/>
    <path class="cls-93" d="M40.88,21.56c.33.34.67.66,1.03.96.88.25.88.59.03,1l-2,.07c-.87.03-1.93-.04-2.04-1.1.98-.36,1.96-.65,2.97-.94Z"/>
    <path class="cls-169" d="M46.88,21.35c.3-.08.73.11,1-.03,1.27-.97,2.05.91,1.07,1.96l-7,.24-.03-1c1.74.04,3.72.25,4.96-1.17Z"/>
    <path class="cls-74" d="M49.84,20.25c1.23-.3,1.66.97,1.07,1.96l.03,1-2,.07-1.07-1.96,1.96-1.07Z"/>
    <path class="cls-52" d="M63.17.77c-.97.38-1.62,1.21-1.95,2.19-.58.71-1.2,1.37-1.87,2-1.42.99-2.7,1.04-2.38-.88.04-.25-.14-.59-.04-.82.96-2.36,4.13-4.43,6.24-2.48Z"/>
    <path class="cls-28" d="M55.57,7.99c2.27.6,2.1,3.34-.05,4.21.16,1.68-.98,2.19-1.93.75-.46-.18-.85-.49-1.16-.88.34-1.91,1.48-3.16,3.13-4.07Z"/>
    <path class="cls-80" d="M56.98,4.07c.81.24,1.61.53,2.38.88l-.19,1.21c-1.12,2.29-2.32,2.9-3.59,1.82-.12-1.47.34-2.88,1.4-3.92Z"/>
    <path class="cls-6" d="M53.6,12.94c.27-.54,1.47-.48,1.93-.75,1.06-.96,1.61-.53,1.07.81l.04,1.07c-2.05.67-2.6,3.05-2.83,5.03l-1.96,1.07c-.86.47-1.17.1-1.03-.96-.68-2.53,1.7-4.1,2.79-6.27Z"/>
    <path class="cls-82" d="M49.84,20.25l-.03-1,1-.03c.33.34.67.66,1.03.96.21.36.8,1.02.58,1.45-.27.55-1.12.5-1.51.59-.85-.24-1.04-1.19-1.07-1.96Z"/>
    <path class="cls-9" d="M113.84,18.21c.61-.57,2.07-.65,4.38-.22-1.48-2.89,3.36-1.29,4.58.58,1.11.07,2.41-.83,3.55-.2l-2.16,6.39c-4.01-5.18-2.93-3.01-10.17-4.89.54-.52.04-1.07-.18-1.66Z"/>
    <path class="cls-55" d="M121.84,26.29c-.66.14-2.13.56-1.75,1.45-.65-.17-1.36-.53-1.88-.88.98-1.55.93-4.26,3.77-4.16-.52,1.47-1.25,2.79-.13,3.6Z"/>
    <path class="cls-62" d="M129.75,16.46c-.52-1.62.69-2.18,1.96-1.07-.02,1.84-1.19,3.35-2.75,4.26-1.08-.36-.94-1.07-.23-1.64.5-.4.55-1.1,1.01-1.55Z"/>
    <path class="cls-40" d="M130.65,13.42c.09.29.95.66,1.38,1.05.25.24.58.68-.31.91-.57.44-1.44.57-1.96,1.07-.32-.31-.66-.59-1.04-.82l-.03-1.14,1.96-1.07Z"/>
    <path class="cls-99" d="M130.5,9.33c.42-1.06,1.44-1.58,2.55-1.69.87-.08,1.74.08,2.35.77-.14.47-1.32.02-1.58.31-.43,1.31.97,2.24,1.16,3.29-1.16-1.13-2.91-.62-4.39-.58-.88-.46-.56-1.42-.08-2.1Z"/>
    <path class="cls-88" d="M111.7,15.09c1.97-.11,6.07.78,6.52,2.9-.58,1.83-3.1.15-4.38.22s-2.19-1.62-3.11-2.09c-1.17-1.33-.69-1.88.96-1.03Z"/>
    <path class="cls-56" d="M109.44,12.8c.23.01.52-.18.74-.12.94.3,1.83.74,2.61,1.33,1.21,1.41.64,1.81-1.09,1.07l-.96,1.03c-1.08-.08-2.05.05-1.65-.99s.26-1.68.36-2.33Z"/>
    <path class="cls-65" d="M55.57,7.99c1.18-.65,2.05-2.03,3.59-1.82l.05.87c-.77,1.12-.75,2.51-.62,3.82-.7.6-1.7,1.27-2,2.16-.6.02-1.12-.05-1.07-.81.1-1.39.16-2.81.05-4.21Z"/>
    <path class="cls-126" d="M112.79,14.02l7.52,2.31c.71.22,1.32.18,1.76.43.6.34.79,1.1.72,1.81-1.71-.11-3.81-3-4.58-.58-2.06-1.23-4.69-1.27-6.52-2.9l1.09-1.07Z"/>
  </g>
</svg>