<?xml version="1.0" encoding="UTF-8"?>
<svg id="Enemy" xmlns="http://www.w3.org/2000/svg" viewBox="0 0 82.75 127.09">
  <defs>
    <style>
      .cls-1 {
        fill: #191211;
      }

      .cls-2 {
        fill: #525252;
      }

      .cls-3 {
        fill: #f4ae7c;
      }

      .cls-4 {
        fill: #f9cc9c;
      }

      .cls-5 {
        fill: #fbebbd;
      }

      .cls-6 {
        fill: #c4977d;
      }

      .cls-7 {
        fill: #342525;
      }

      .cls-8 {
        fill: #b97d5b;
      }

      .cls-9 {
        fill: #3b3a3b;
      }

      .cls-10 {
        fill: #181716;
      }

      .cls-11 {
        fill: #474038;
      }

      .cls-12 {
        fill: #634432;
      }

      .cls-13 {
        fill: #45352f;
      }

      .cls-14 {
        fill: #3c2d26;
      }

      .cls-15 {
        fill: #21282a;
      }

      .cls-16 {
        fill: #d9e021;
      }

      .cls-17 {
        fill: #cbaf8f;
      }

      .cls-18 {
        fill: #3c2b26;
      }

      .cls-19 {
        fill: #121212;
      }

      .cls-20 {
        fill: #41332d;
      }

      .cls-21 {
        fill: #4a4c4d;
      }

      .cls-22 {
        fill: #6c6153;
      }

      .cls-23 {
        fill: #151414;
      }

      .cls-24 {
        fill: #2d2d2d;
      }

      .cls-25 {
        fill: #1d1917;
      }

      .cls-26 {
        fill: #46250d;
      }

      .cls-27 {
        fill: #222121;
      }

      .cls-28 {
        fill: #fff;
      }

      .cls-29 {
        fill: #483835;
      }

      .cls-30 {
        fill: #412e2d;
      }

      .cls-31 {
        fill: #725f56;
      }

      .cls-32 {
        fill: #444445;
      }

      .cls-33 {
        fill: #333434;
      }

      .cls-34 {
        fill: #ad7f60;
      }

      .cls-35 {
        fill: #be8766;
      }

      .cls-36 {
        fill: #1c1512;
      }

      .cls-37 {
        fill: #53423c;
      }

      .cls-38 {
        fill: #16100d;
      }

      .cls-39 {
        fill: #c5997d;
      }

      .cls-40 {
        fill: #8d776d;
      }

      .cls-41 {
        fill: #6d665c;
      }

      .cls-42 {
        fill: #332b22;
      }

      .cls-43 {
        fill: #232020;
      }

      .cls-44 {
        fill: #545352;
      }

      .cls-45 {
        fill: #221916;
      }

      .cls-46 {
        fill: #25201c;
      }

      .cls-47 {
        fill: #2d2116;
      }

      .cls-48 {
        fill: #504f4e;
      }

      .cls-49 {
        fill: #23201f;
      }

      .cls-50 {
        fill: #f6cba4;
      }

      .cls-51 {
        fill: #debba5;
      }

      .cls-52 {
        fill: #1a1110;
      }

      .cls-53 {
        fill: #6c4d40;
      }

      .cls-54 {
        fill: #3b3b3b;
      }

      .cls-55 {
        fill: #5d610e;
      }

      .cls-56 {
        fill: #282828;
      }

      .cls-57 {
        fill: #ae875f;
      }

      .cls-58 {
        fill: #4b4e4e;
      }

      .cls-59 {
        fill: #48474b;
      }

      .cls-60 {
        fill: #9ba018;
      }

      .cls-61 {
        fill: #1d1719;
      }

      .cls-62 {
        fill: #f1c8a0;
      }

      .cls-63 {
        fill: #d38269;
      }

      .cls-64 {
        fill: #704934;
      }

      .cls-65 {
        fill: #c8b41e;
      }

      .cls-66 {
        fill: #e5c294;
      }

      .cls-67 {
        fill: #787674;
      }

      .cls-68 {
        fill: #717171;
      }

      .cls-69 {
        fill: #bda4a1;
      }

      .cls-70 {
        fill: #e5ed23;
      }

      .cls-71 {
        fill: #1d1d1d;
      }

      .cls-72 {
        fill: #bb8c63;
      }

      .cls-73 {
        fill: #e19e71;
      }

      .cls-74 {
        fill: #7f6248;
      }

      .cls-75 {
        fill: #1b1b1b;
      }

      .cls-76 {
        fill: #90634c;
      }

      .cls-77 {
        fill: #2b2525;
      }

      .cls-78 {
        fill: #554944;
      }

      .cls-79 {
        fill: #25272c;
      }

      .cls-80 {
        fill: #37312f;
      }

      .cls-81 {
        fill: #d5b39b;
      }

      .cls-82 {
        fill: #b88a76;
      }

      .cls-83 {
        fill: #332420;
      }

      .cls-84 {
        fill: #fcb17f;
      }

      .cls-85 {
        fill: #f8ba88;
      }

      .cls-86 {
        fill: #c8ab8e;
      }

      .cls-87 {
        fill: #190d0d;
      }

      .cls-88 {
        fill: #554239;
      }

      .cls-89 {
        fill: #523f3a;
      }

      .cls-90 {
        fill: #2d2421;
      }

      .cls-91 {
        fill: #292929;
      }

      .cls-92 {
        fill: #1e1616;
      }

      .cls-93 {
        fill: #daad8c;
      }

      .cls-94 {
        fill: #bb7c59;
      }

      .cls-95 {
        fill: #906245;
      }

      .cls-96 {
        fill: #100a0a;
      }

      .cls-97 {
        fill: #ac8675;
      }

      .cls-98 {
        fill: #cca489;
      }

      .cls-99 {
        fill: #2f302e;
      }

      .cls-100 {
        fill: #070707;
      }

      .cls-101 {
        fill: #24160b;
      }

      .cls-102 {
        fill: #9f806b;
      }

      .cls-103 {
        fill: #1b1c19;
      }

      .cls-104 {
        fill: #d19b7f;
      }

      .cls-105 {
        fill: #646258;
      }

      .cls-106 {
        fill: #201d1b;
      }

      .cls-107 {
        fill: #393533;
      }

      .cls-108 {
        fill: #c89f86;
      }

      .cls-109 {
        fill: #cba387;
      }

      .cls-110 {
        fill: #43271b;
      }

      .cls-111 {
        fill: #161616;
      }

      .cls-112 {
        fill: #574b3d;
      }

      .cls-113 {
        fill: #fed1a8;
      }

      .cls-114 {
        fill: #2a2420;
      }
    </style>
  </defs>
  <g id="BadGirl_attack">
    <g id="back-leg-assembly">
      <g id="back-leg">
        <path class="cls-91" d="M57.11,64.21c-.72-.14-3.35-1.23-4.38-1.66s-3.72-.6-4.29-1.05-4.83-3.87-5.82-4.71c-.99-.83-5.74-4.51-6.82-5.1-1.08-.59-5.35-2.08-8.66-1.72-3.3.36-2.52-3.78-9.19,2.77-6.67,6.55-8.37,7.79-8.81,8.55s1.06,4.52,1.69,5.61,2.57,4.15,4.14,4.41c1.57.26,5.4-1.24,7.29-2.04,1.89-.8,4.8-3.79,6.38-4.74s2.95-1.39,3.41-.98,3.92,1.95,4.56,2.53,3.66,2.1,4.9,2.65c1.25.55,7.33,1.69,8.41,1.57,1.08-.12,4.34.84,4.93.99s5.93,1.51,6.56,1.04,1.96-1.52,1.89-2.29-.56-3.23-1.44-3.83-4.77-2.01-4.77-2.01Z"/>
        <path class="cls-36" d="M35.46,51.99l.77.64c-.4,3.6,7.76,5.81,11.16,10.02,4.77,2.28,1,3.06-2.87,1.5-1.62-.65-4.66-3.03-3.75-4.63l-4.58-2.56c-.74.5-.92.29-.57-.57l-.84-3.66c.17-.27.63-.44.67-.74Z"/>
        <path class="cls-20" d="M36.81,57.65c1.22.23,2.54.86,3.96,1.88,1.99,2.15,4.3,3.58,7.65,5.16-.17-.78-.61-1.38-1.03-2.04,1.58-.81,2.76,1.09,4.26,1.13.04.86.42,1.57.94,2.22,1.71,1.26,1.23,1.88-.83,1.15-4.84-.29-9.7-.73-13.31-4.34-.47-.47-.45-1.21-.31-1.88-3.26-.38-5.41-3.99-1.34-3.28Z"/>
        <path class="cls-77" d="M59.73,66.98c-.19,1.97,1.53,3.25,2.93,4.38-2.87,1.6-11.89-.86-10.88-4.21.27-.24,1-.74.83-1.15,2.54-.91,5.37-1.38,7.13.99Z"/>
        <path class="cls-83" d="M32.85,58.21c1.34-.07,3.11.84,5.3,2.72,1.59-.17,3.66,3.65,5.2,4.21,2.43.89,6.47-.4,8.42,2,.29,1.03.1,2.02-.7,2.02-5.42-.01-11.31-2.04-15.27-5.78-.74,1.49-3.22.34-2.86-1.36-.5-1.11-1.13-2.09-2.75-2.61.8-1.39,1.97-.9,2.66-1.2Z"/>
        <path class="cls-29" d="M35.62,56.39l.57.57.62.69c-.67.41-1.36.87-.97,1.24.72.67,1.77,2.1,2.31,2.04-1.95.45-4.46-.91-5.3-2.72.91-.6,1.44-2.18,2.77-1.83Z"/>
        <path class="cls-92" d="M32.94,62.02l2.86,1.36c.91.8,1.2,1.51.87,2.13-1.04-.73-3.38-.07-4.31-1.44.27-.54-.51-1.81.57-2.05Z"/>
        <path class="cls-91" d="M40.77,59.52c-1.58.54-2.77-1.04-3.96-1.88-.25-.17-.4-.47-.62-.69,1.88-.69,3.38,1.27,4.58,2.56Z"/>
      </g>
      <g id="back-shoe">
        <path class="cls-25" d="M81.34,75.34c-1.03-1.01-2.08-2.02-3.33-2.75-1.07-.62-2.27-1.01-3.34-1.64-.92-.54-1.77-1.27-2.81-1.52-.3-.07-.62-.1-.91-.21-.4-.15-.73-.44-1.07-.7-1.11-.86-2.4-1.47-3.69-2.02-1.59-.68-3.21-1.29-4.83-1.9-1.24-.47-2.49-.94-3.79-1.23-1.15-.26-2.35-.39-3.51-.16s-2.27.84-2.93,1.81c-.42.61-.63,1.46-.22,2.09.23.35.64.61.71,1.02.04.22-.02.45-.06.68-.11.79.22,1.61.74,2.21s1.23,1.03,1.95,1.39c.52.25,1.26.42,1.57-.07,2.28.47,4.56.94,6.83,1.41.47.1.94.19,1.36.42.29.15.54.35.84.49.36.17.77.22,1.16.31.8.17,1.57.44,2.34.72.61.22,1.23.45,1.76.83.46.34.83.78,1.19,1.23.79.96,1.58,1.93,2.36,2.89.28.34.56.68.95.89s.9.23,1.23-.06c.28-.24.36-.63.5-.97s.44-.69.8-.64c.2.03.37.17.55.27.49.26,1.1.17,1.58-.09s.87-.67,1.24-1.07c.64-.68,1.27-1.37,1.91-2.05l-1.09-1.54Z"/>
        <path class="cls-25" d="M66.69,67.77c.66.43,1.38.77,2.13,1.03.45.8.22,1.04-.68.75-2.04,2.12-6.8-.4-8.42-2.57-2.21.55-5.62.99-7.13-.99-1.98-.05-2.9-1.2-.94-2.22,5.31-2.29,10.04.75,15.04,4Z"/>
        <path class="cls-24" d="M75.34,72.04c.66-.31.9-.07.74.67l.8,1.4c8.38,3.69,4.03,10.34-.6,2.84-.86-1.17-1.62-2.31-2.29-3.43-.74-.99-1.26-1.91-1.55-2.76,1.04.27,2.24.09,2.89,1.28Z"/>
        <path class="cls-100" d="M72.45,70.76c.83.7,2.03,1.55,1.55,2.76l-.74-.67c-1.53,1.87-5.29-1.08-5.11-3.3l.68-.75c1.26.44,2.34,1.62,3.63,1.96Z"/>
        <path class="cls-56" d="M68.14,69.55c1.81.74,3.38,2.38,5.11,3.3.63.78.85,1.5.67,2.15.82.81,1.1,1.56.87,2.25-1.07,3.29-5.09,1.13-3.68-1.94l-8.15-2.81-.31-1.13c-4.73-1.57-5.71-3.03-2.93-4.38,2.97.1,5.66,1.43,8.42,2.57Z"/>
        <path class="cls-75" d="M76.28,76.95l4.95,2.73c-1.29-3.68-5.25-3.95-5.15-6.96.79,1.58,2.41,1.47,3.72,1.99,1.54.61,3.74,2.74,2.67,4.45-.71,1.14-2.11,2.47-3.63,2.41-.17-.55-1.22-.9-1.6-1.36-3.21-.77-4.02-1.76-2.44-2.96-.56-.68-.62-1.47-.87-2.25.82-.72,2.01.86,2.36,1.95Z"/>
        <path class="cls-2" d="M74,73.52c.98.93,2.82,1.87,2.29,3.43l-2.36-1.95c-.22-.7-1.02-1.28-.67-2.15.28.15.51.45.74.67Z"/>
        <path class="cls-1" d="M51.77,67.15c2.57,3.16,7.17,3.42,10.88,4.21,3.11.67,6.44,1.7,8.46,3.94-4.73-.5-9.19-2.57-13.99-2.49-3.1,1.37-8.4-2.93-5.36-5.67Z"/>
      </g>
    </g>
    <g id="front-leg-assembly">
      <g id="front-leg">
        <path class="cls-52" d="M17.92,94.73c.05-.34.49-4.04.63-5.42s-.53-7.89-.13-9.4.12-6.4.43-7.55.9-5.18,2.19-6.16c1.29-.97,6.17-4.21,6.99-5.61s2.42-4.2,1.34-5.6c-1.08-1.4-3.37-4.13-4-4.47s-7.99,2.58-9.36,3.28c-1.37.69-6.9,3.55-7.6,4.09s-3.22,2.04-3.29,2.92.49,5.9.1,6.98-.93,4.45-.56,6.13c.36,1.68,2.48,10.58,2.88,11.44s.21,2.81.33,3.86.99,4.03,1.7,5.76,1.79,3.92,3.09,3.31,4.9-1.4,5.3-2.01-.05-1.56-.05-1.56Z"/>
        <path class="cls-18" d="M15.07,73.48c.22-.11.46-.22.69-.31,2.53-.86,2.82,0,.85,1.78.27,1.91,0,4.24-1.6,5.34.89,4.79-.04,7.38-2.78,7.79-.86.26-.97,0-.4-.74-.86-1-1.82-2.15-.67-3.11.05-1.57.15-3.08.3-4.51-.63-1.61-.55-2.77.25-3.47.56-2.1,1.43-4.29,3.37-2.76Z"/>
        <path class="cls-37" d="M11.53,70.85c.38.07.74.48,1.13.49,1.17.84.85,2.48-.96,4.9.31,1.15.23,2.38-.25,3.47-3.2-1.8-5.03-10.09.08-8.86Z"/>
        <path class="cls-61" d="M21,72.05l-3.73,3.94c-.81.89-1.04.55-.67-1.04l-.85-1.78c1.68-.65,3.57-2.46,5.25-1.12Z"/>
        <path class="cls-13" d="M11.57,68.56c.08.77-.04,1.52-.04,2.3-1.47.43-2.91,1.59-2.44,3.61s1.42,3.76,2.36,5.25c.52,1.65-.04,1.94-1.09.46-1.12-.16-2.13-1.53-3.03-4.1-.67-.74-.51-1.19.48-1.33.41-1.14.02-2.26-.46-3.91,1.8-.32,3.15-1.13,4.23-2.27Z"/>
        <path class="cls-13" d="M15.07,73.48c-1.31.67-2.52,1.55-3.37,2.76-.47-1.72.73-3.2.96-4.9,1.26.03,2.1.95,2.41,2.14Z"/>
        <path class="cls-52" d="M17.28,75.99c.34.53.32,1.23.15,1.84-.32,1.13-.8,2.21-1.37,3.24-.32,3-1.94,2.34-1.06-.78.4-1.82.56-3.76,1.6-5.34l.67,1.04Z"/>
        <path class="cls-90" d="M16.06,81.06c-.15,1.31.32,2.84-.02,4.12,2.77,1.31,2.08,4.4-.97,5.11-.32.55-.9-.04-1.76-1.78.18.87-.14,1.08-.94.65-1.06-.22-1.11-.58-.15-1.1,2.54-.87,1.21-5.08,2.78-7.79.18.41.39,1.75,1.06.78Z"/>
        <path class="cls-30" d="M11.82,87.33l.4.74c-.23.35.07.82.15,1.1-2.15,3.69-4.62,1.21-3.08-1.87-.79-.61-.58-1.04.48-1.33,1.25-.95,1.71.02,2.06,1.36Z"/>
        <path class="cls-89" d="M11.15,84.22c.8.66.72,2.21.67,3.11-.61-.49-1.57-.72-2.06-1.36-1.36.85-1.75-.59-.85-1.81.68-2.47,1.42-2.45,2.24.06Z"/>
        <path class="cls-88" d="M11.15,84.22c-1.93-.2-2.34-3.31-.79-4.05l1.09-.46c.64,1.46,1.22,3.49-.3,4.51Z"/>
        <path class="cls-45" d="M7.39,73.84c.23.23.23.65.42.91-.16.44-.35.88-.48,1.33,1.4,2.13,3.26,6.09,1.59,8.09.11.55.51,1.37.85,1.81-.21.43-.37.87-.48,1.33-.49.85-.93.7-1.33-.3l-2.93-12.05c.07-.39.12-.78.13-1.17l2.24.06Z"/>
        <path class="cls-7" d="M9.28,87.3c.39.7.55,1.55,1.07,2.21s1.45.02,2.01-.35c.43.99.25,2.18-.54,3.57-1.16-.18-2.27-.62-3.45-.57-.41-1.67-1.01-3.53-.43-5.16.44.14.88.24,1.33.3Z"/>
        <path class="cls-43" d="M11.83,92.74c-.56-1.19.02-2.43.54-3.57.18-.23.77-.3.94-.65.75,1.6-.21,3.17-1.48,4.22Z"/>
        <path class="cls-14" d="M10.36,80.17c.7.81-.34,3.11.79,4.05-.75.06-1.49.01-2.24-.06l-1.59-8.09c1.83.08,1.76,2.65,3.03,4.1Z"/>
      </g>
      <g id="front-shoe">
        <path class="cls-96" d="M18.34,90.46c.12-.91-.37-1.83-1.1-2.39s-1.65-.81-2.56-.9c-2.49-.25-5.07.63-6.89,2.36-.28.26-.55.56-.66.93-.09.29-.07.59-.05.89.15,2.32.3,4.64.45,6.96.26,3.98.52,7.98,1.48,11.84.15.59.31,1.19.28,1.8-.02.44-.15.87-.31,1.28-.73,1.95-2.1,3.83-1.79,5.89.06.43.2.85.13,1.28-.06.4-.3.75-.53,1.08-.56.82-1.12,1.64-1.69,2.47-.42.62-.87,1.36-.63,2.07.18.55.75.91,1.33,1.01s1.16,0,1.74-.11c2.25-.42,4.82-1.06,5.85-3.1.53-1.06.67-2.48,1.74-3,.82-.4,1.96-.1,2.55-.79.27-.31.33-.75.32-1.16-.05-1.66-1.19-3.16-1.14-4.81.02-.7.26-1.38.34-2.08.14-1.22-.21-2.43-.27-3.66-.14-2.58.97-5.1.81-7.68-.04-.6-.14-1.2-.1-1.8.03-.5.16-.98.29-1.46.26-.97.53-1.94.79-2.91l-.38-4.03Z"/>
        <path class="cls-96" d="M14.62,89.8c2.96.87,4.4,6.16.88,6.98.13,1.9-.63,1.96-1.41.15,0,.84-.28.85-.79.1-1.46-.2-2.87-.08-4.23.36.76,2.04,1.24,4.26,1.44,6.66.3,3.2.73,6.78,1.32,10.74-1.93,1.01-2.86-.13-2.8-3.42.04-2.6-1.11-5.31-1.55-7.85l-.68-7.2c.65-1.8.93-4.25.89-6.14,1.01-2.31,3.26-.91,3.24,1.3l2.36-3.8c1.55-1.96,1.17,3.77,1.33,2.11Z"/>
        <path class="cls-49" d="M7.48,103.53c-.44-2.58-1.58-4.69-.68-7.2.29,2.33,2.31,5.09.68,7.2Z"/>
        <path class="cls-43" d="M13.3,97.03l.79-.1c.7,2.24.75,4.87.16,7.9-.47,5.41.3,8.65,2.06,13.76-.16.21-3.44,1.83-3.69,1.78-.28-.06-.44-.68-.56-1.46l-2.32-.62c.23.86.02.87-.56.1-.89-2.31-.19-4.71-.15-7,.57.85.06,2.39,1.86,2.74-1.83-5.92-1.98-11.25-1.82-16.72,1.34-.92,2.82-1.27,4.23-.36Z"/>
        <path class="cls-19" d="M10.98,119.14c.91.09.97.41.22.98-.88,1.64-2.6,3.46-4.44,3.04-.63-.22-.67-.56-.16-1.02.34-.63.77-1.69,1.32-2.26.46-.47.84-1.01,1.27-1.5l.56-.1c1.05-.69,1.58-.35,1.23.86Z"/>
        <path class="cls-71" d="M15.61,98.63c1.75,1.71,2.18,4.34,1.28,7.89.65,2.77.28,4.84-1.12,6.2,1.24,3.45,1.85,5.18,1.85,5.18,2.16.13,1.56.8-.35,1.88l-4.66,2.07-.76,1.19c-1.04,1-1.64.62-1.19-.76-1.1,0-.92-.71.54-2.17l-.22-.98c.13-.92.49-.99,1.09-.24,1.15,1.48.72-.84,1.15-1.06.84-.42,2.22-.19,2.33-.59.47-1.73-2.28-1.9-2.3-2.7-.09-2.9-.83-4.91-1.97-7.86l2.95,2.77c-1.35-4.65-.33-8.48-.13-12.54l1.41-.15c-.17.56.17,1.26.11,1.85Z"/>
        <path class="cls-49" d="M13.3,97.03c-2.63,1.45-.18,4.48-.98,7.46-2.13-2.25-.48-5.98-3.25-7.1.05-1.75-.35-2.84,1.87-2.37,1.02.22,2.12.49,2.36,2.01Z"/>
        <path class="cls-111" d="M6.75,123.16c1.01-.23,2.31-.52,3.9-.87.42-.28,1.31.22,1.19.76-.74,1.16-1.7,2.56-3.02,2.61-1.03.04-3.3.24-3.77-1-.53-1.39,1.22-1.95,1.54-2.52l.16,1.02Z"/>
        <path class="cls-43" d="M17.27,119.78c.22,1.3-1.88,1.45-2.71,1.63l-1.95.44c1.03-1.63,2.99-1.67,4.66-2.07Z"/>
        <path class="cls-68" d="M12.06,118.9l-1.09.24c-.61.13-1.3-.06-1.23-.86.13-.53.36-1.3.7-1.68.89-.99,1.27.34,1.27.86s.3.97.34,1.43Z"/>
        <path class="cls-54" d="M11.2,120.12l-.54,2.17c-.59.39-1.05.9-1.53,1.16-.91.5-2.16,1.06-2.37-.29l4.44-3.04Z"/>
      </g>
    </g>
    <g id="back-arm">
      <path class="cls-109" d="M33.89,33.6c.32-.7,1.01-7.55.61-8.42s-1.4-1.13-1.97-.68c-.57.45-2.64,3.91-3.18,4.71s0,3.86-.23,4.98.53,5.28.46,6.12.77,4.43,1.08,5.47,1.89,3.67,2.48,2.96,1.49-3.38,1.38-3.88.45-4.38.32-5.15-.96-6.11-.96-6.11Z"/>
      <path class="cls-69" d="M31.83,54.71c.71.72.98,1.72.82,2.71-1.18.05-1.33.6-2.01-1.05-.38-.94-1.75-1.46-.57-2.6,1.39-1.21,2.43-.92,1.76.95Z"/>
      <path class="cls-82" d="M34.64,51.34c-.55.72-.82.57-.84-.38-1.44.77-2.24.08-2.38-2.08-.17-.26-.42-.47-.57-.74-.39-1.96.5-2.64,2.29-1.75-.52-1.96.32-3.29,1.72-1.4-.02,1.79.11,4.67-.2,6.35Z"/>
      <path class="cls-109" d="M34.88,42.49c.24.68-.03,1.77-.03,2.5-.86-.07-1.37.7-1.72,1.4-1.04.74-1.33.64-1.04-.61-.63-2.12-.73-4.06-.28-5.82-.56-.7-.34-.93.57-.73-.37-1.73-.08-1.89,1.05-.5,1.98-.43,2.46.82,1.45,3.77Z"/>
      <path class="cls-78" d="M36.28,54.91c-.31,2.14-1.9,2.43-3.63,2.51-1.06-.45-1.62-1.79-.82-2.71-.64-.66-.47-.95.47-.88.51-1.06,1.43-1.26,2.77-.6.37.45.7,1.29,1.21,1.68Z"/>
      <path class="cls-42" d="M35.07,53.23c-.08.46-.36.91-.77,1.04-.74.22-1.45-.1-2-.43-.75-1.1.46-2.14,1.49-2.88l.84.38c-.09.47.12,1.52.43,1.89Z"/>
      <path class="cls-17" d="M34.02,37.71c-.26.27-.27.85-.59,1.01l-1.05.5c-1.73-.17-2.47-1.72-1.8-3.33.48-1.27,1.3-2.56,1.17-3.99.48.01,1.1.02,1.37.3.98,1.04-.11,3.78.9,5.51Z"/>
      <path class="cls-108" d="M30.46,40.36c1.1,1.29,1.64,3.09,1.63,5.42.21.3.78.35,1.04.61-.69.68-1.43,1.31-2.29,1.75-1.66-2.92-2.24-6.29-1.67-9.61,1.46-1.96,3.04.53,1.29,1.83Z"/>
      <path class="cls-102" d="M33.8,50.96c-1.35,1.93-2.44,2.58-3.25,1.93.69-1.23,1.1-2.61.87-4.01.98.45,1.98,1.03,2.38,2.08Z"/>
      <path class="cls-31" d="M32.31,53.83l-.47.88-1.76-.95c.23-.23.27-.63.47-.88,1.41-.16,1.72-2.1,3.25-1.93-.44.99-.98,1.92-1.49,2.88Z"/>
      <path class="cls-113" d="M32.09,45.77c-1.12-1.57-1.6-3.5-1.63-5.42.23-.88.68-1.02,1.35-.41.68,1.87,1.02,3.93.28,5.82Z"/>
      <path class="cls-5" d="M32.39,39.22c-.26.12-.32.58-.57.73-.4.25-.9.33-1.35.41-.02-.86-.5-1.49-1.29-1.83.16-.92,1.09-1.77,1.42-2.64,1.14.74,1.58,2.04,1.8,3.33Z"/>
    </g>
    <g id="body">
      <path class="cls-9" d="M31.96,27.14c-.14.62-.3,1.04-.47,1.26-.36.47-.81.07-1.32-1.18-.13.32-.26.52-.39.59-.21.11-.42-.11-.63-.65-2.74-.18-2.96-.9-.87-2.73-2.71-.2-2.61-1.1-.05-1.93-.41-.56-.62-1-.64-1.29,0-.07,0-.13.02-.18.08-.32.49-.37,1.18-.13.19.11.38.19.58.25.9.28,2.01,0,2.9.44l.2,1.04c.78,1.43.8,3.44-.51,4.51Z"/>
      <path class="cls-112" d="M35.31,32.31c1.9.36,3.04,3.36.86,4.07,1.68.97,2.16,2.55,0,3-.33.03-.67,0-1,0-.76-1.03-1.98-3.03,0-3-.92-1.26-1.93-2.11-3.21-3-.9-.31-.91-.65-.02-1-.61-2.04-1.07-3.97,1.37-2.84.45,1.06,1.38,1.83,2,2.77Z"/>
      <path class="cls-46" d="M33.17,28.38c-1.63,1.09-2.17.5-1.2-1.23,0-1.52-.04-3.07.51-4.51,2.4.79,1.03,3.75.69,5.74Z"/>
      <path class="cls-105" d="M31.96,27.15l1.2,1.23c.11.36,0,.82.14,1.16-.91.66-1.24,1.76-1.37,2.84-1.34,1.12-1.86.12-1.59-3-.86-.6-.91-1.37-.17-2.15.46-.51,1.31-.56,1.79-.07Z"/>
      <path class="cls-103" d="M30.72,32.68h-.01c-.28.23-.79.12-1.54-.31l-.02-5.21,1.02.06c.03.72.19,1.43.18,2.15.66,1.85.78,2.96.37,3.31Z"/>
      <path class="cls-99" d="M33,41.44c-.87,1.95-.59,4.13.09,6.11-.97,2-2.06,1.91-2.68-.23-2.06-.04-1.09-5.47.99-5.84-2.91-.86-2.23-2.8.77-2.11.84-.17,1.12.52.84,2.07Z"/>
      <path class="cls-21" d="M33.09,47.55c-.14,1.26-.52,2.47-.87,3.68l-2.28.09c-2.46,1.74-3.41.8-1.85-1.78-1.16-1.44-.61-1.83,1.07-1.17-.62-1.56-.13-2.06,1.24-1.05.88.21,1.78.33,2.68.23Z"/>
      <path class="cls-44" d="M35.17,36.38v3h-1c-1.09-.24-1.75-.91-2-2-3.44,1.11-1.99-1.26,0-3,1.17-.76,2.36.87,3,2Z"/>
      <path class="cls-79" d="M34.17,39.38c-.25.76-.84,1.35-1.16,2.07-1.08.21-.75-1.4-.84-2.07-1.94-.56-1.93-1.44,0-2,.42-.02.96-.08,1.41.15.63.32.68,1.2.59,1.85Z"/>
      <path class="cls-58" d="M32.64,33.87c-.07.14-.23.31-.47.5-.72,1.7-1.39,2.72-2.01,3.06-.41.22-.79.16-1.15-.19.3-1.61.16-3.24.16-4.87.81-.35,1.05-1.16,1.12-1.99.04-.34.05-.69.06-1.01.58.98.85,2.11,1.58,3-.04.32,0,.68.03,1,.6.05.82.22.68.5Z"/>
      <path class="cls-67" d="M35.17,36.38c-1.28-.13-2.05-1.22-3-2-.04-.34-.19-.66-.21-1,.71.01,1.5.01,2.24.47.77.48,1.02,1.56.97,2.53Z"/>
      <path class="cls-32" d="M17.43,37.23c-.07,2.24-1.83,2.96-3.1,1.03-.48-.58-.58-1.36-.39-2.09.05-.21.12-.41.22-.6.24-.49.61-.92,1.08-1.2-2.04-.32-1.84-1.67.19-2-.26-1.44-.34-2.72-.25-3.84.1-1.26.43-2.31.99-3.16.05-.17.11-.3.17-.4.24-.43.52-.29.83.4.1-.52.28-.82.49-.9.27-.1.6.16.87.78l.74.25.54,4.04c.34,3.43-.45,5.99-2.38,7.69Z"/>
      <path class="cls-85" d="M28.17,47.37h0c0,.29-.05.51-.13.69-.07.16-.17.28-.29.35-.07.06-.16.1-.24.12-.5.12-1.12-.28-1.34-1.16-1.07.38-2.47.75-3.46.34-.26-.1-.49-.26-.68-.48-1.2-.08-1.42-1.03-.66-2.88-1.04-2.51-1.27-3.85,1.66-4.78-.2-.18-.34-.33-.4-.48-.05-.09-.06-.18-.04-.27.04-.21.28-.37.72-.49l1.78-.18c3.47-1.3,5.6.44,1.92,2.23.48.22.53.47.2.74-.07.07-.16.13-.26.19-.99,1.59-1,2.9-.02,3.93.23-.17.43-.3.59-.4.14-.07.26-.13.35-.14.55-.14.54.47.3,1.67.87.29.86.62,0,1Z"/>
      <path class="cls-11" d="M32.17,37.37c.03.66-.09,1.34,0,2-.57.56-.74,1.34-.78,2.11-.12.12-.22.24-.32.37-.45.48-.81.77-1.1.88-.46.18-.73-.12-.78-.89,0-.16,0-.31-.02-.47-.42.79-.73,1.19-.99,1.28,0,.01-.01.01-.01.01-.37.14-.62-.37-.87-1.21-.03-.1-.06-.21-.09-.33-.07-.23-.13-.48-.2-.74.02-.68.09-1.65-.44-2.03-.46-.33-1.07-.27-1.48-.2,1.05-.99,2.54-1.11,3.92-.91,1.49-.66.94-3.35,3.16-2.87-.31,1-.88,2.2,0,3Z"/>
      <path class="cls-107" d="M20.36,36.25c-.64.83-1.24,1.29-1.78,1.39-.42.08-.8-.06-1.15-.41l1.03-5.34c.13-.7.02-1.57.41-2.1.17-.22.52-.3.94-.25,1,2.1,1.74,4.61.55,6.71Z"/>
      <path class="cls-28" d="M29.01,37.24c-1.38-.2-2.87-.08-3.92.91l-1.78.18c-.02-.94.25-1.71.91-2.89-1.85-.22-2.68.59-3.86.81,1.19-2.1.45-4.61-.55-6.71l-.54-4.04c.47-.87,1.2-.47,1.91-.28,2.38.63,4.96.43,7.1-.79-2.09,1.83-1.87,2.55.87,2.73l.02,5.21c0,1.63.14,3.26-.16,4.87Z"/>
      <path class="cls-40" d="M24.22,35.44c-.66,1.18-.93,1.95-.91,2.89-.15.19-.41.36-.72.49-.08.04-.17.08-.27.11h0c-.6.21-1.34.31-1.95.22h-.01c-.41-.05-.76-.19-.98-.44-.05-.11-.12-.22-.2-.34-.47-.2-.67-.44-.59-.73.09-.38.68-.85,1.78-1.39,1.18-.22,2.01-1.03,3.86-.81Z"/>
      <path class="cls-38" d="M13.42,35.02c.4.49.71,1.57.91,3.24,1.17-.08,2.07-.47,3.1-1.03.87-.47,1.97-.8,2.93-.98l-1.2,2.12c.82,1.2.27,1.6-1.03.96.64,2.43,0,3.06-1.94,1.9-.83.14-1.1-.18-.81-.96-1.07-.04-2.14.66-3.22,2.11.99,2.01.69,3.44-.89,4.31,1.85,1.9,1.69,2.23-.94,1.93,2.03.6.84,2.83-1.01,2.78-1.21.02-1.38-1-1.39-2.09.64-3.33,3.12-6.5,2.05-9.93-.53-4.07-.47-8.07.18-12,.29-.66.63-.64,1,0,1.85,1.15,3.07,5.48,2.25,7.65Z"/>
      <path class="cls-106" d="M9.99,39.38c-.53-1.72-.82-3.02-.82-5v-6c-1.28-1.26-.72-1.57,1-1,.1,4,.17,8.01-.18,12Z"/>
      <path class="cls-59" d="M31.39,41.49c-1.53,1.55-1.28,3.81-.99,5.84-.38.39-.8.74-1.24,1.05-1.3.83-1.86.32-1-1v-1c-.56-1.53-.44-4.09,1-5,.65.3,1.52-.05,2.23.11Z"/>
      <path class="cls-101" d="M28.17,47.38c.52,0,.89.53,1,1l-1.07,1.17c-2.97-.16-5.95-.2-8.93-.17l-.5-1.26,7.5-.74h2Z"/>
      <path class="cls-110" d="M18.17,21.38l.36,3.88c-.37.66-.98.86-1.36.12-2.7-.97-3.03-3.3-1-7,1.39-1.06,2.06-.06,2,3Z"/>
      <path class="cls-106" d="M14.17,27.38c1.28.82,1.7,2.49,1.27,5-.09.65-.02,1.36-.19,2-.57,1.34-1.18,1.55-1.82.65-1.57-2.37-2.84-4.78-2.25-7.65.19-3.05,1.72-2.31,3,0Z"/>
      <path class="cls-80" d="M17.17,25.38h-1c-.42.71-1.09,1.04-2,1-2.21,1.5-3.67-4.1-1-4.08-.61-1.15.73-3.11,1.87-3.8l1.13-.13c-.24,2.39.32,4.72,1,7Z"/>
      <path class="cls-15" d="M16.17,25.38c-.33,2.31.86,5.15-.73,7-.74-1.58-1.36-3.24-1.27-5-1.25-.19-1.24-.82,0-1-.09-.33-.17-1.65.46-1.91.38-.16.97.96,1.54.91Z"/>
      <path class="cls-27" d="M14.33,38.26c-1.24.08-1.27-.49-1.15-1.37.09-.65.36-1.46.24-1.87.57-.32,1.18-.55,1.82-.65-.34,1.29-.72,2.57-.91,3.89Z"/>
      <path class="cls-73" d="M23.03,39.57c-.89,2.45-1,5.07-1.01,7.66.13.97-2.22.96-2.86.14-.55-.72-1.59-1.06-3.13-1.01-1.84.57-2.01-.38-.85-1.93-2.16-.67-.78-2.64,1.01-3.21.41-.79,1.38-1.24,1.94-1.9,1.74-.31,1.24.97.35.96-.26,0,3.54-2.72,4.55-.72Z"/>
      <path class="cls-39" d="M19.17,47.38l2.86-.14,4.14.14c-1.26,2.02-7.53.09-7,2h-1.19c-1.26.71-2.63.63-2.81-1-1.41-1.6-.84-2.16,1-1,.78-1.14,2.95-2.03,3,0Z"/>
      <path class="cls-8" d="M26.93,45.24c-1.02.07-2.1.31-3.27-.14.42-2.07,1.9-3.06,3.29-3.79,1.8.49,1.59,3.26-.02,3.93Z"/>
      <path class="cls-87" d="M29.17,41.38c.12,1.73-.08,3.5-1,5-.44-.35-.85-.73-1.24-1.13.16-1.31.16-2.62.02-3.93l.05-.93,2.16.99Z"/>
      <path class="cls-93" d="M23.31,38.34c0,.38-.15.88-.28,1.24-1.7-.46-3.29.48-4.42,1.81-.85-1.14-.45-1.69-.48-2.05.28-.34.82-.58,1.03-.96l4.15-.04Z"/>
      <path class="cls-47" d="M13,46.49c1.57-.27,2.33.2,2.17,1.88.91.08,2.91-.34,2.81,1.01-.53,1.18-1.55,2.07-3.05,1.62-.76-.23-1.66-.83-2.43-1.43-1.34,1.38-2.29.95-2.16-.96.24-.67.59-1.31.94-1.93.34-1.78,1.06-1.84,1.72-.19Z"/>
      <path class="cls-48" d="M12.49,49.57c.93.93-.47,1.37-.85,1.95-.77,1.2-1.41-.13-2.32-.12l1.01-2.78c.83.05,1.52.45,2.16.96Z"/>
      <path class="cls-106" d="M16.19,41.23c-.52.99-.63,2.17-1.01,3.21.58,1.89-.49,3.29-2.18,2.05-.4.37-1.23.13-1.72.19-.32-1.23-1.22-4.67.89-4.31,1.12-1.8,2.19-2.51,3.22-2.11.42.18.6.59.81.96Z"/>
      <path class="cls-33" d="M15.38,40.27c-1.73.34-1.25,3.22-3.22,2.11-.06-.92.25-1.77.92-2.55.75-.86,1.63-.56,2.29.44Z"/>
      <path class="cls-27" d="M12.03,22.24c-.08-1.94.68-1.9,1.13.06-.39,1.29-.14,3.28,1,4.08.65.25.66.75,0,1h-3c.07-.32,0-.68,0-1-.9-.1-.85-.45,0-1-1.53-.4-2.37-.79-1-2v-1l1.87-.13Z"/>
      <path class="cls-84" d="M19.17,47.38h-3c-.9-.17-.94-.51-.13-1.01,1.68-.52,2.69-1.72,3.51-4.09.53.73,1.53,2.21,1.03,2.89-.53.73-1.31,1.26-1.4,2.2Z"/>
      <path class="cls-51" d="M16.03,46.37l.13,1.01c-.48.15-.89.49-1,1-1.1-.1-2.28-.62-2.17-1.88l2.18-2.05c.38.6.63,1.26.85,1.93Z"/>
    </g>
    <g id="dress">
      <path class="cls-10" d="M26.36,48.74c-2.39,0-10.63-.96-12.83-.29s-5.04.95-6.21,1.96c-1.17,1.01-3.27,5.8-3.56,6.66s-2.49,2.78-2.3,4.88.67,4.31,1.63,4.4,4.31-1.72,5.84-1.05,6.03,4.6,7.37,4.69,3.35.77,6.61.1c3.26-.67,4.79-2.97,6.61-3.64s1.65.56,3.51,0c1.85-.57,7.79-9.76,7.98-10.62s-2.97-2.2-3.26-3.06-3.93-.48-4.31-1.15-7.09-2.87-7.09-2.87Z"/>
      <path class="cls-23" d="M32.22,51.23l.98,2.01c.35-.24.67-.41.93-.34.91.27,3.52,7.9,3.28,9.62l-1.24.86c-.25.95-.59.93-1,0-2.2-.46-5.74-7.58-6.35-9.86l1.13-2.19c-.01-2.75,1.47-2.61,2.28-.09Z"/>
      <path class="cls-91" d="M9.32,51.4c.83-.82,1.85-1.38,3.17-1.83,1.85.02,3.67-.04,5.48-.18-.16-1.51.56-1.47,1.19-.01,3.43-1.04,6.4-.99,8.93.17.17.94,1.15,1.42,1.85,1.78,1.86,3.78,4.51,7.83,5.23,12.05.7.78-.83,3.74-2.14,3.08-1.82,1.59-2.46,1.89-3.22-.82-.97,1.47-1.88,2.35-2.76,2.63.17,1.65-.53,2.01-1.9.95.15,3.49-6.84,3.9-6.89.32-2.86.38-4.6-.02-5.23-1.21-.14.87-.39.84-.75-.02-2.13-.23-2.33-1.24-1.27-2.96-.94.29-1.21-.02-.81-.92-.93-.67-.6-1.35,1.01-2.06-1.53-.36-3.33-.96-3.96-2.4l-.9-1.12c2.33-2.34,2.94-3.48,1.81-3.41-2.55-.39-3.05-3.81-.84-5.03,0-.44.54-.74.62-1.11,1.04.12,1.52,1.05,1.39,2.09Z"/>
      <path class="cls-10" d="M7.24,59.98l.84,1.19c-1.7.9-2.67,2.3-2.91,4.2-1.4,2.44-2.54,1.68-2-1-3.96-1.46-.61-7.09,3.05-6.96l1.94-1.97c1-1.01-.31-3.38,2.98-3.08-.52,2.75-2.61,5.07-3.9,7.61Z"/>
      <path class="cls-114" d="M11.2,62.37l-1.19,1.23c-1.78.08-3.39,1-4.84,2.77-.87-.27-.85-.61,0-1-.92-2.63,1.24-3.77,2.07-5.4.99-.15,2.02-.07,2.72.21,1,.4,1.56,1.27,1.24,2.19Z"/>
    </g>
    <g id="head">
      <path class="cls-97" d="M29.66,7.81c-.02.15,0,.91.03,1.15s.21,1.23.22,1.55.14,1.53.11,1.69-.15.41-.28.39-.33-.11-.49-.05.02.93-.07,1.3-.2,1.88-.41,2.12c-.11.12-.28.41-.42.69-.18.32-.54.5-.9.44-.51-.08-1.18-.2-1.38-.27-.35-.11-.97.83-1.06,1.3s2.61,2.69,2.44,3.25-1.57,2.13-2.9,2.29c-1.33.15-6.28.35-6.85-.59s-2.68-2-2.85-3.07,0-3.11.75-4.08c.74-.97,1.29-1.98,1.43-3.3s.08-5.01.83-5.97,1.19-3.09,3.25-3.02c2.06.07,4.85-.61,5.87,0s2.54.82,2.64,1.49.07,2.69.07,2.69Z"/>
      <path class="cls-74" d="M29.78,8.68c-.02.31.17.69.09,1l-1.9,1.18c-.24.61-.58.63-1,.09-1.48.17-1.42-1.33-.18-1.99-.26-1.46.57-2.11,2-2.28.27.56,1.02,1.25.98,2Z"/>
      <path class="cls-94" d="M28.29,23.94c-2.02,1.41-4.57,1.85-7,1.44-2.06-1.77-.44-4.17,1.68-4.87.49-.17.99-.24,1.49-.2.36-.5.84-.66,1.35-.58.53.08,1.08.42,1.5.89.08.08.15.16.21.24.27.36.47.77.54,1.17-.04.6.15,1.31.23,1.92Z"/>
      <path class="cls-26" d="M29.08,20.57c-.22.51-.85.94-1.01,1.45-1.14-.69-2.33-1.31-3.61-1.72-1.6,1.31-2.11.63-.73-1.03l-.09-1c-.15-2.15,4.02,1.99,5.44,2.29Z"/>
      <path class="cls-65" d="M29.2,6.59c0,.29.78,1.26.72,1.6-.03.18-1.24-.18-1.32,0-.25.62-1.12.75-1.81.76-.11,1.73-.83,1.76-1.37.03-1.31.2-1.33-5.18-.12-5.86,1.93.31,3.89,1.44,3.89,3.46Z"/>
      <path class="cls-74" d="M24.17,15.08c1.21-.99,2.92-.92,2.28.94l.09,1-.76-.06c-.43-.04-.85.11-1.16.41l-.97.93c-1.69-.84-2.45-1.8-2.26-2.86-.76-2.9,1.5-1.54,2.79-.34Z"/>
      <path class="cls-34" d="M27.98,10.86l-.81,2.08c-.32,2.01-1.45,2.51-3.05,1.22-1.7.4-1.79-.17-.28-1.72.22-.92.63-1.02,1.24-.31.34-1.48.73-2.54,1.9-1.18l1-.09Z"/>
      <path class="cls-104" d="M27.26,13.93c.07.76-.27,1.53-.81,2.08l-2.28-.94c-.89-.15-.88-.47-.05-.93,1.09-.18,2.16-.54,3.05-1.22l.09,1Z"/>
      <path class="cls-74" d="M26.8,8.99l.24,2.57-3.02,1.58c-1.82-1.33-2.31-4.07.63-4.08l2.16-.07Z"/>
      <path class="cls-3" d="M24.46,20.3c-.29,2.17-2.64,3.03-3.17,5.07-.72-.12-1.49-.46-1.88.45-.29.84-.55.75-.76-.18-.36-.04-.69-.31-.94-.7-.59-.96-.72-2.64.22-3.13-.38-.58-.68-1.1-.9-1.55-.35-.75-.47-1.33-.37-1.74.13-.49.55-.75,1.3-.78h.59s.02-.08.05-.12c.23-.72.56-.71.95.03.34-1.32,1.15-1.51,1.98-1.12h.01c.55.28,1.11.81,1.54,1.44.28.41.5.85.64,1.3.04.43.36.8.73,1.03Z"/>
      <path class="cls-35" d="M21.38,15.43c1.12.62,2.15,1.57,2.26,2.86l.09,1c-.98-1.34-2.53-2.05-4.17-1.62-2.53.23-1.87-1.65-.28-2.99-.7-.23-.72-.56-.09-1,1.21-2.26,2.47-.09,2.18,1.75Z"/>
      <path class="cls-34" d="M24.12,14.16l.04.92-2.79.35-2.17-1.76c-.36-.44-.62-.93-.76-1.45-.19-.68-.2-1.4,0-2.08.02.47.05.53.35.14.03-.03.06-.09.1-.13.33-.43.6-.84.92-1.23.35-.05.7-.01,1.06.08.41.11.82.32,1.22.56.42,1.1,1,2.05,1.74,2.87l.28,1.72Z"/>
      <path class="cls-12" d="M16.18,17.71c.81-1.23,2.33-1.91,2.39.04-.66,1.26-.78,2.68-.63,4.07-.2-1.06-1.36-2.1-2.27-2.8-.04,1.77-.36,1.85-1.11.23-.09-.36.07-.77.02-1.13l1.59-.4Z"/>
      <path class="cls-95" d="M19.29,14.67l.28,2.99c-.31.08-.67.1-1,.09l-2.39-.04c-.07-.25.02-.59-.02-.83.77-.64,1.5-1.34,2.13-2.12.2-.9.54-.91,1-.09Z"/>
      <path class="cls-57" d="M19.2,13.67l.09,1-1,.09-.22-1.39-.38-2.47c-.1-.65.32-.91.71-1.2.02.18.03.32.03.44.02.47.05.53.35.14.04.33.09.66.13.99.1.79.2,1.6.27,2.4Z"/>
      <path class="cls-50" d="M23.84,12.44c-.38.29-.64.85-1.91,1.08-.52-1.48,0-2.7.17-3.94l.8-.08c1,.65.77,1.91.94,2.95Z"/>
      <path class="cls-97" d="M29.25,13.75c-.85,1.64-1.5,2.1-1.99.18-.83-.21-.84-.55-.09-1-1.66-.36-.38-1.4.81-2.08-1.05-1.19.79-2.01,1.9-1.18-.14.56-.49,1.16-.54,1.75-.07.79.15,1.58-.09,2.32Z"/>
      <path class="cls-34" d="M29.25,13.75c-.22.69-.47,1.38-.61,2.08-.19.97-1.18,1.54-2.1,1.19h0c-.9-.2-.91-.54-.09-1-1.55-.91-.79-1.92.81-2.08l1.99-.18Z"/>
      <g id="eye">
        <g>
          <path class="cls-28" d="M28.77,10.97c-.14-.18-.35-.29-.67-.28s-1.04.38-1.02.54.76.12,1.01.21.89.09.88.03-.21-.51-.21-.51Z"/>
          <path d="M28.84,11.14c-.32-.61-1.09-.42-1.56-.08-.21.14-.22.23.05.26.53.01,1.12.28,1.64.16,0,0-.13-.34-.13-.34h0ZM28.73,10.88c.08.21.18.4.25.61-.36.11-.75,0-1.1-.06-.17-.04-.74,0-.82-.18.23-.47,1.26-.82,1.68-.37h0Z"/>
        </g>
        <ellipse cx="28.51" cy="11.2" rx=".27" ry=".22" transform="translate(-.91 2.67) rotate(-5.27)"/>
        <path class="cls-28" d="M28.75,11.19c0,.07-.06.14-.14.14-.05,0-.09-.01-.12-.04.08,0,.14-.06.14-.13,0-.04-.03-.07-.05-.09h0c.08,0,.15.05.16.11Z"/>
        <path class="cls-55" d="M29.2,10.64c-.74-.38-1.4-.29-2.12-.05.58-.45,1.74-.75,2.12.05h0Z"/>
      </g>
      <g id="hair">
        <path class="cls-70" d="M30.56,4.8c.49.98.06,3.57-.72,4.14-.98.84-1.29.16-.92-2.03-1.93.14-2.91-2.02-3.39-3.66-2.57-.16-3.48-.84-2.73-2.04l.57-.52c.07-.89.36-.9.84-.1,2.33,1.04,5.15,1.77,6.35,4.21Z"/>
        <path class="cls-70" d="M22.8,1.4l2.7,2.02c-.13,2.57-.89,2.45-2.13.23-.31,2.34-3.92,3.65-5.64,2.02-1.96.66-2.28-.12-1.06-1.73.3-1.1.31-2.39,1.61-2.8l4.52.27Z"/>
        <path class="cls-65" d="M17.68,5.52c2.31,1.41,1.76,2.42-.91,2.24,1.4.99.62,2.38-.8,3.08-.01.89-.24.86-.66,0-1.22,1.51-1.86,1.06-1.31-.84.33-1.24.23-2.58.46-3.83.18-.98,1.85-1.53,2.15-2.4.56.43.91,1.06,1.07,1.75Z"/>
        <path class="cls-60" d="M23.38,3.48c2.17.58,2.16,6.27-.44,6.05-.1.89-.38.89-.81.06-1.37,1.78-2.16,1.66-3.4-.19-1.26.38-1.71-.38-1.97-1.63.3-.67.48-1.68.91-2.24,1.62-1.41,3.57-2.13,5.7-2.04Z"/>
        <path class="cls-65" d="M25.53,3.25l-.05,5.86c-.55.95-2.96,1.68-2.54.42,1.68-1.77,1.24-3.92.44-6.05.71.03,1.43-.41,2.15-.23Z"/>
        <path class="cls-70" d="M19.88,8.88c-.34.38-.61.78-.96,1.2-.04.04-.07.09-.1.13-.32.38-.34.32-.35-.15,0-.12,0-.26-.02-.44.1-.07.2-.14.29-.22.36-.31.74-.49,1.14-.52Z"/>
        <path class="cls-65" d="M15.31,10.85c2.12.53,1.99,4.2.68,5.88.88.14.85.42,0,.83.8,1.57-.3,1.12-1.61.35-.44,1.07-2.47,1.33-2.43-.22-.32-2.59,1.06-4.99,1.19-7.59l.86-.09,1.31.84Z"/>
        <path class="cls-65" d="M17.7,10.8c1.05.24,1.13,2.87.47,3.87.98,1.99-.31,2.65-2.19,2.06l-.68-5.88h.66c.58-1.71,1.27-1.86,1.74-.05Z"/>
        <path class="cls-60" d="M18.73,9.4c-.09.91-.43,1.38-1.03,1.4l-1.74.05c.23-1.03.36-2.12.8-3.08.37-.06.87-.16,1.41,0,.64.18.5,1.04.56,1.64Z"/>
        <path class="cls-65" d="M22.69,6.3c-1.64.65-3.93,3.17-4.45,4.43s-2.07,3.39-2.17,4.48-.21,3.25.61,3.22,2.77-.94,3.17-1.83,2.41-4.08,2.68-4.77.09-3.51.31-4.19-.15-1.33-.15-1.33Z"/>
        <path class="cls-16" d="M30.05,7.76c-.22.32-.69-.11-.69-.11-.11-.2-.49-.6-.6-.34s-.55,1.39-1.13,1.23c-.57-.15-1.94-.82-2.29-.64-.35.19-1.39.9-1.62,1.1s-1.28-.65-1.82-.53c-.33.08-.67.31-.96.62-.19.19-.34.43-.47.67-.28.56-1.03.93-1.52,1.51-.1.12-.18.23-.26.36-.1.16-.18.36-.25.56-.15.37-.27.76-.4,1.13-.12.38-.27.74-.44.99-.44.59-1.27,1.78-1.5,2.16-.24.37-.66.52-.9,1.38-.22.87-.75,1.9-1.25,1.93s-.92-.23-.75-.62c.16-.4.31-1.42.45-1.81.14-.39,1.68-.94,1.7-1.74.02-.8-.37-2.65-.22-3.21.15-.55,1.32-2.08,1.14-1.07s-.32,2.15.22,1.6c.53-.56,1.29-.66,1.17-1.45-.13-.8-.88-2.98-.19-3.62.7-.64,1.6-1.9,1.48-1.14-.12.77.75.65.98-.27.22-.92.09-2.4.32-2.39.24,0,1.19-.41.94.67-.24,1.08-.39,2.77-1.01,3.2-.61.41-1.74.62-1.7,1.64,0,.05,0,.09,0,.13.01.18.02.32.02.44,0,.47.03.52.35.15.03-.03.06-.08.1-.13.34-.42.61-.81.95-1.19.19-.21.39-.41.63-.61.68-.57,1.14-.85,1.72-.72.57.13.83.47,1.32-.1.48-.59,1.73,0,1.46-1.23-.27-1.24.08-1.76-.94-2.2-1.03-.43-2.11-.79-1.89-1.42.22-.64.46-1.12,1.69-.77,1.23.35,2.96-.09,3.2.79s1.06-.14,1.72.86c.65,1.01,1.01.68,1.08,1.81s.39,2.05.17,2.37Z"/>
        <path class="cls-16" d="M24.94,7.7c-.65.78-1.04,2.61-1.71,3.32s-1.25,2.21-1.99,2.67-2.45,2.6-2.78,2.74-.21.11.26-.83,2.03-3.68,2-4.87,1.5-3.57,2.3-3.48,1.92.46,1.92.46Z"/>
        <path class="cls-70" d="M15.75,15.78c.13.54-2.29,3.5-1.88,4.03s1.32,2.41,2.3,1.89,1.84-.93,1.77-2.03,2.12-1.33,2.3-2.01,1.07-2.78,1.16-3.36,1.07-1.67,1.84-1.96,1.75-1.6,1.45-2.46-1.58-1.89-1.53-2.26-.23,3.18-.82,3.77-2.29,2.52-2.96,3.69-2.04,3.39-2.52,3.03-.41-2.3-.52-2.53-.59.2-.59.2Z"/>
        <path class="cls-55" d="M23.37.69c.34.58-.04.78-.57.52-1.51.03-3.47.91-4.57-.27,1.67-.53,3.42-.62,5.14-.26Z"/>
      </g>
      <g id="lips">
        <path class="cls-63" d="M28.94,14.79c-.43.05-.75.2-1.12.29-.02,0-.04.01-.04.03,0,.02.02.03.04.04.14.06.28.12.41.18.13.06.42.13.58.07s.56-.66.13-.61Z"/>
      </g>
    </g>
    <g id="front-arm">
      <path class="cls-98" d="M2.51,32.43c1.21.47,1.15,1.34-.17,2.63l1.1.58c.83-.39,1.05-.14.69.73,0,.51-.32,1.19-.94,2.02-.45.33-.82.92-1.31,1.18-.9-.79-2.34-2.8-1.72-3.95.54-1.01.86-3.34,2.36-3.19Z"/>
      <path class="cls-64" d="M4.13,36.37c-.21-1.31,2.08-2.88,2.87-1.33l-1.45,1.37c-.74.7-1.53,1.38-2.36,1.98-.72-.69.5-1.53.94-2.02Z"/>
      <path class="cls-4" d="M6.48,28.65c2.85.52,2.32,2.39-1.58,5.61.42.75-.58,1.5-1.45,1.37-.2.54-1.59,2.06-2.25.87-.97-1.75.76-3.17,1.32-4.08.4-.66.61-1.88,1-2.45,1.05-.9,2.04-1.34,2.96-1.33Z"/>
      <path class="cls-86" d="M10.27,23.93c.25,1.51-.77,2.86-3.06,4.04.39.83.14,1.05-.73.69-.74.88-1.76,1.82-2.96,1.33l5.34-7.72c1.78-1.87,3.89.55,1.41,1.66Z"/>
      <path class="cls-81" d="M9.4,20.23c.42-1.56,1.08-1.44,1.56.06,1.43-1.77,2.87.34,1.87,2.18,1.88,2.03,1.25,2.22-1.27,1.38-.05,1.85-.81,1.92-1.3.08.42-.56.3-1.13-.3-1.32l-1.11-.35c.35-.51.38-1.38.55-2.03Z"/>
      <path class="cls-22" d="M9.76,18.17c.65-.47,1.53-.76,2.01-1.38.88-.27,1.1.04.68.91,1.15,1.58.49,2.9-1.49,2.61-.24.49-1.31.32-1.56-.06.16-.64-.4-1.52.36-2.07Z"/>
      <path class="cls-76" d="M4.9,34.27c1.51-2.39,2.95-3.29,4.32-2.7.83-.39,1.05-.14.69.73l-2.91,2.74c-1.16-.56-2.14.53-2.87,1.33l-.69-.73,1.45-1.37Z"/>
      <path class="cls-53" d="M15.04,26.07c.82-.44,1.04-.18.69.73l-.73.69-.04,1.41-.73.69c-1.86-.58-3.11,1.56-4.32,2.7l-.69-.73c-.39-.83-.14-1.05.73-.69.7-1.83,3.2-4.09,5.09-4.8Z"/>
      <path class="cls-72" d="M8.62,28.01c2.32-.68,1.71.45.65,2.14.83-.39,1.05-.14.69.73l-.73.69c-1.25,1.18-2.83,1.88-4.32,2.7-1.28-1.36,4.15-3.39,1.58-5.61l.73-.69c.35-1.54,1.12-1.55,1.41.04Z"/>
      <path class="cls-66" d="M10.27,23.93l1.3-.08c.83-.39,1.05-.14.69.73,1.53,1.39-2.18,4.62-3.64,3.43-.42.21-.98,0-1.41-.04-.28-1.94,1.76-2.91,3.06-4.04Z"/>
      <path class="cls-41" d="M12.45,17.69c.56.43.94.99,1.57,1.6.71.69-.45,1.78-.33,2.45l-.86.74-1.87-2.18c.44-.9.83-1.83,1.49-2.61Z"/>
      <path class="cls-6" d="M14.35,25.35c.25.21.47.48.69.73l-5.09,4.8-.69-.73c0-1.82,3.25-4.63,5.09-4.8Z"/>
      <path class="cls-62" d="M12.25,24.58c.77,0,1.51.27,2.1.77l-5.09,4.8-.65-2.14c1.56-.79,3.45-1.53,3.64-3.43Z"/>
    </g>
  </g>
</svg>