<?xml version="1.0" encoding="UTF-8"?>
<svg id="Enemy" xmlns="http://www.w3.org/2000/svg" viewBox="0 0 53.58 129.25">
  <defs>
    <style>
      .cls-1 {
        fill: #191211;
      }

      .cls-2 {
        fill: #525252;
      }

      .cls-3 {
        fill: #f4ae7c;
      }

      .cls-4 {
        fill: #f9cc9c;
      }

      .cls-5 {
        fill: #fbebbd;
      }

      .cls-6 {
        fill: #c4977d;
      }

      .cls-7 {
        fill: #342525;
      }

      .cls-8 {
        fill: #b97d5b;
      }

      .cls-9 {
        fill: #3b3a3b;
      }

      .cls-10 {
        fill: #181716;
      }

      .cls-11 {
        fill: #474038;
      }

      .cls-12 {
        fill: #634432;
      }

      .cls-13 {
        fill: #45352f;
      }

      .cls-14 {
        fill: #3c2d26;
      }

      .cls-15 {
        fill: #21282a;
      }

      .cls-16 {
        fill: #d9e021;
      }

      .cls-17 {
        fill: #cbaf8f;
      }

      .cls-18 {
        fill: #3c2b26;
      }

      .cls-19 {
        fill: #121212;
      }

      .cls-20 {
        fill: #41332d;
      }

      .cls-21 {
        fill: #4a4c4d;
      }

      .cls-22 {
        fill: #6c6153;
      }

      .cls-23 {
        fill: #151414;
      }

      .cls-24 {
        fill: #2d2d2d;
      }

      .cls-25 {
        fill: #1d1917;
      }

      .cls-26 {
        fill: #46250d;
      }

      .cls-27 {
        fill: #222121;
      }

      .cls-28 {
        fill: #fff;
      }

      .cls-29 {
        fill: #483835;
      }

      .cls-30 {
        fill: #412e2d;
      }

      .cls-31 {
        fill: #725f56;
      }

      .cls-32 {
        fill: #444445;
      }

      .cls-33 {
        fill: #333434;
      }

      .cls-34 {
        fill: #ad7f60;
      }

      .cls-35 {
        fill: #be8766;
      }

      .cls-36 {
        fill: #1c1512;
      }

      .cls-37 {
        fill: #53423c;
      }

      .cls-38 {
        fill: #16100d;
      }

      .cls-39 {
        fill: #c5997d;
      }

      .cls-40 {
        fill: #8d776d;
      }

      .cls-41 {
        fill: #6d665c;
      }

      .cls-42 {
        fill: #332b22;
      }

      .cls-43 {
        fill: #232020;
      }

      .cls-44 {
        fill: #545352;
      }

      .cls-45 {
        fill: #221916;
      }

      .cls-46 {
        fill: #25201c;
      }

      .cls-47 {
        fill: #2d2116;
      }

      .cls-48 {
        fill: #504f4e;
      }

      .cls-49 {
        fill: #23201f;
      }

      .cls-50 {
        fill: #f6cba4;
      }

      .cls-51 {
        fill: #debba5;
      }

      .cls-52 {
        fill: #1a1110;
      }

      .cls-53 {
        fill: #6c4d40;
      }

      .cls-54 {
        fill: #3b3b3b;
      }

      .cls-55 {
        fill: #5d610e;
      }

      .cls-56 {
        fill: #282828;
      }

      .cls-57 {
        fill: #ae875f;
      }

      .cls-58 {
        fill: #4b4e4e;
      }

      .cls-59 {
        fill: #48474b;
      }

      .cls-60 {
        fill: #9ba018;
      }

      .cls-61 {
        fill: #1d1719;
      }

      .cls-62 {
        fill: #f1c8a0;
      }

      .cls-63 {
        fill: #d38269;
      }

      .cls-64 {
        fill: #704934;
      }

      .cls-65 {
        fill: #c8b41e;
      }

      .cls-66 {
        fill: #e5c294;
      }

      .cls-67 {
        fill: #787674;
      }

      .cls-68 {
        fill: #717171;
      }

      .cls-69 {
        fill: #bda4a1;
      }

      .cls-70 {
        fill: #e5ed23;
      }

      .cls-71 {
        fill: #1d1d1d;
      }

      .cls-72 {
        fill: #bb8c63;
      }

      .cls-73 {
        fill: #e19e71;
      }

      .cls-74 {
        fill: #7f6248;
      }

      .cls-75 {
        fill: #1b1b1b;
      }

      .cls-76 {
        fill: #90634c;
      }

      .cls-77 {
        fill: #2b2525;
      }

      .cls-78 {
        fill: #554944;
      }

      .cls-79 {
        fill: #25272c;
      }

      .cls-80 {
        fill: #37312f;
      }

      .cls-81 {
        fill: #d5b39b;
      }

      .cls-82 {
        fill: #b88a76;
      }

      .cls-83 {
        fill: #332420;
      }

      .cls-84 {
        fill: #fcb17f;
      }

      .cls-85 {
        fill: #f8ba88;
      }

      .cls-86 {
        fill: #c8ab8e;
      }

      .cls-87 {
        fill: #190d0d;
      }

      .cls-88 {
        fill: #554239;
      }

      .cls-89 {
        fill: #523f3a;
      }

      .cls-90 {
        fill: #2d2421;
      }

      .cls-91 {
        fill: #292929;
      }

      .cls-92 {
        fill: #1e1616;
      }

      .cls-93 {
        fill: #daad8c;
      }

      .cls-94 {
        fill: #bb7c59;
      }

      .cls-95 {
        fill: #906245;
      }

      .cls-96 {
        fill: #100a0a;
      }

      .cls-97 {
        fill: #ac8675;
      }

      .cls-98 {
        fill: #cca489;
      }

      .cls-99 {
        fill: #2f302e;
      }

      .cls-100 {
        fill: #070707;
      }

      .cls-101 {
        fill: #24160b;
      }

      .cls-102 {
        fill: #9f806b;
      }

      .cls-103 {
        fill: #1b1c19;
      }

      .cls-104 {
        fill: #d19b7f;
      }

      .cls-105 {
        fill: #646258;
      }

      .cls-106 {
        fill: #201d1b;
      }

      .cls-107 {
        fill: #393533;
      }

      .cls-108 {
        fill: #c89f86;
      }

      .cls-109 {
        fill: #cba387;
      }

      .cls-110 {
        fill: #43271b;
      }

      .cls-111 {
        fill: #161616;
      }

      .cls-112 {
        fill: #574b3d;
      }

      .cls-113 {
        fill: #fed1a8;
      }

      .cls-114 {
        fill: #2a2420;
      }
    </style>
  </defs>
  <g id="BadGirl_walk_1">
    <g id="back-leg-assembly">
      <g id="back-leg">
        <path class="cls-91" d="M38.67,96.16c-.21-.7-.47-3.53-.57-4.65s-1.2-3.58-1.06-4.28,1.18-6.07,1.46-7.34,1.32-7.17,1.35-8.41-.64-5.71-2.5-8.47,2.17-3.98-6.73-6.85-10.79-3.8-11.67-3.83-3.51,3.04-4.18,4.1-2.48,4.2-1.98,5.72,3.61,4.2,5.2,5.51,5.58,2.49,7.17,3.45c1.58.96,2.61,1.96,2.45,2.57s.1,4.38-.12,5.21-.16,4.21-.07,5.57,1.92,7.28,2.52,8.18,1.27,4.24,1.42,4.82,1.42,5.96,2.12,6.29,2.25,1.03,2.91.61,2.6-2,2.72-3.05-.44-5.16-.44-5.16Z"/>
        <path class="cls-36" d="M39.43,71.3l-.21.98c-3.38,1.32-1.54,9.57-3.69,14.54.2,5.28-2.24,2.3-2.66-1.84-.18-1.74.52-5.53,2.35-5.47l.14-5.25c-.79-.43-.69-.68.24-.77l2.85-2.44c.32.03.69.35.97.25Z"/>
        <path class="cls-20" d="M35.05,75.13c.36,1.19.42,2.65.18,4.38-.98,2.76-1.18,5.47-1.02,9.17.61-.51.94-1.18,1.33-1.86,1.45,1.02.32,2.95.98,4.3-.74.44-1.19,1.1-1.53,1.87-.32,2.1-1.1,1.96-1.4-.2-1.99-4.42-3.86-8.93-2.35-13.8.2-.64.86-.96,1.52-1.15-1.18-3.06,1.02-6.64,2.28-2.72Z"/>
        <path class="cls-77" d="M37.43,99.76c-1.83.74-2.17,2.86-2.52,4.63-2.75-1.8-4.77-10.93-1.33-11.59.34.13,1.12.54,1.4.2,1.99,1.82,3.72,4.11,2.44,6.77Z"/>
        <path class="cls-83" d="M32.7,71.89c.68,1.15.7,3.14.06,5.96.89,1.33-1.53,4.94-1.32,6.56.34,2.56,3.36,5.55,2.14,8.38-.78.74-1.74,1.03-2.11.32-2.51-4.8-3.45-10.96-1.98-16.21-1.66.03-1.8-2.7-.12-3.17.75-.96,1.32-1.97,1.03-3.65,1.61.06,1.71,1.32,2.3,1.79Z"/>
        <path class="cls-29" d="M35.61,73.49l-.24.77-.32.87c-.67-.41-1.41-.8-1.55-.28-.26.95-1.03,2.54-.73,2.99-1.31-1.52-1.26-4.37-.06-5.96.95.53,2.6.27,2.91,1.6Z"/>
        <path class="cls-92" d="M29.38,73.74l.12,3.17c-.29,1.18-.78,1.77-1.48,1.76.16-1.26-1.51-3.02-.72-4.48.61-.02,1.36-1.29,2.08-.44Z"/>
        <path class="cls-91" d="M35.23,79.51c-1.22-1.15-.36-2.94-.18-4.38.04-.3.23-.57.32-.87,1.48,1.35.45,3.58-.14,5.25Z"/>
      </g>
      <g id="back-shoe">
        <path class="cls-25" d="M40.07,122.78c.41-1.38.82-2.78.89-4.23.05-1.24-.16-2.48-.1-3.72.05-1.07.31-2.16.04-3.19-.08-.3-.2-.59-.24-.9-.05-.42.05-.85.12-1.27.24-1.39.19-2.81.08-4.21-.14-1.73-.35-3.45-.56-5.16-.16-1.32-.33-2.64-.67-3.93-.3-1.14-.75-2.26-1.49-3.18s-1.8-1.62-2.97-1.75c-.74-.08-1.59.12-1.95.77-.21.37-.24.85-.57,1.11-.18.14-.41.19-.63.26-.76.27-1.32.94-1.61,1.69s-.35,1.57-.33,2.37c.01.58.21,1.31.79,1.36.64,2.24,1.29,4.47,1.93,6.71.13.46.27.92.27,1.4,0,.32-.06.65-.04.97.02.4.16.78.27,1.17.22.78.34,1.6.45,2.4.09.64.18,1.3.08,1.94-.09.56-.31,1.1-.53,1.62-.49,1.15-.98,2.29-1.46,3.44-.17.4-.34.82-.35,1.25s.21.9.62,1.06c.34.14.73.03,1.09,0s.81.06.94.41c.07.19.02.41.02.61,0,.55.36,1.05.82,1.36s1,.46,1.53.6c.9.24,1.8.49,2.71.73l.86-1.68Z"/>
        <path class="cls-25" d="M39.97,106.3c-.07.79-.04,1.58.08,2.36-.5.77-.82.68-.98-.25-2.83-.82-2.81-6.2-1.64-8.65-1.51-1.7-3.49-4.51-2.44-6.77-.87-1.78-.28-3.12,1.53-1.87,4.49,3.64,4,9.24,3.45,15.18Z"/>
        <path class="cls-24" d="M40.21,115.94c.58.44.48.76-.25.97l-.87,1.36c.63,9.14-7.28,8.37-2.79.79.63-1.3,1.29-2.51,1.98-3.62.53-1.12,1.1-2,1.72-2.65.24,1.05.96,2.03.21,3.15Z"/>
        <path class="cls-100" d="M40,112.78c-.23,1.06-.43,2.52-1.72,2.65l.25-.97c-2.37-.49-1.5-5.18.54-6.06l.98.25c.2,1.32-.35,2.82-.05,4.12Z"/>
        <path class="cls-56" d="M39.07,108.41c.18,1.95-.54,4.1-.54,6.06-.4.92-.93,1.45-1.59,1.59-.34,1.1-.87,1.7-1.59,1.81-3.41.58-3.37-3.98,0-4.16l-1.3-8.52.86-.8c-.81-4.92.03-6.46,2.52-4.63,1.29,2.68,1.36,5.68,1.64,8.65Z"/>
        <path class="cls-75" d="M36.3,119.05l-.11,5.65c2.65-2.85,1.06-6.48,3.77-7.8-1.03,1.43-.19,2.82-.03,4.22.18,1.65-.69,4.58-2.7,4.43-1.34-.1-3.17-.72-3.83-2.1.41-.41.23-1.5.46-2.05-.81-3.2-.31-4.38,1.49-3.54.34-.81,1.01-1.23,1.59-1.81,1.02.4.17,2.18-.64,2.99Z"/>
        <path class="cls-2" d="M38.28,115.43c-.37,1.3-.34,3.37-1.98,3.62l.64-2.99c.52-.52.66-1.5,1.59-1.59,0,.32-.16.66-.25.97Z"/>
        <path class="cls-1" d="M33.59,92.79c-1.61,3.74.31,7.93,1.33,11.59.85,3.06,1.49,6.49.44,9.33-1.76-4.42-2-9.33-4.3-13.54-2.65-2.11-1.31-8.8,2.53-7.38Z"/>
      </g>
    </g>
    <g id="front-leg-assembly">
      <g id="front-leg">
        <path class="cls-52" d="M19.11,95.33c.04-.34.37-4.05.47-5.44s-.76-7.88-.4-9.4-.07-6.4.21-7.56.75-5.21,2.01-6.22,6.04-4.39,6.83-5.8,2.3-4.27,1.18-5.63-3.48-4.03-4.13-4.35-7.91,2.81-9.26,3.54c-1.35.73-6.79,3.75-7.48,4.31s-3.16,2.13-3.2,3.01.66,5.89.3,6.98-.8,4.48-.38,6.15,2.78,10.5,3.21,11.36.29,2.8.44,3.85,1.11,4,1.86,5.71,1.9,3.87,3.18,3.22,4.85-1.54,5.24-2.16-.09-1.56-.09-1.56Z"/>
        <path class="cls-18" d="M15.65,74.16c.22-.12.45-.23.68-.33,2.5-.94,2.82-.08.9,1.75.32,1.9.12,4.24-1.45,5.38,1.03,4.76.18,7.38-2.56,7.87-.85.28-.97.03-.42-.73-.89-.97-1.89-2.09-.76-3.09,0-1.57.06-3.08.17-4.51-.68-1.59-.63-2.75.15-3.48.5-2.11,1.31-4.33,3.29-2.86Z"/>
        <path class="cls-37" d="M12.04,71.64c.38.06.76.46,1.14.45,1.19.81.92,2.45-.82,4.92.35,1.14.3,2.37-.15,3.48-3.25-1.7-5.32-9.94-.17-8.86Z"/>
        <path class="cls-61" d="M21.54,72.57l-3.61,4.04c-.79.92-1.02.58-.7-1.02l-.9-1.75c1.66-.69,3.49-2.56,5.21-1.27Z"/>
        <path class="cls-13" d="M12.02,69.35c.1.77,0,1.52.02,2.3-1.45.48-2.86,1.67-2.34,3.68.55,2.1,1.53,3.72,2.51,5.18.57,1.63.02,1.94-1.08.49-1.13-.13-2.18-1.47-3.14-4.01-.69-.72-.54-1.17.44-1.34.38-1.15-.04-2.26-.58-3.9,1.79-.37,3.12-1.22,4.16-2.39Z"/>
        <path class="cls-13" d="M15.65,74.16c-1.29.71-2.47,1.62-3.29,2.86-.51-1.71.64-3.22.82-4.92,1.26,0,2.13.89,2.47,2.07Z"/>
        <path class="cls-52" d="M17.93,76.61c.36.52.36,1.22.21,1.83-.29,1.14-.73,2.23-1.27,3.28-.24,3.01-1.88,2.4-1.08-.75.34-1.83.45-3.77,1.45-5.38l.7,1.02Z"/>
        <path class="cls-90" d="M16.86,81.72c-.11,1.32.4,2.83.1,4.12,2.81,1.23,2.2,4.33-.82,5.13-.3.56-.9-.02-1.81-1.72.21.86-.11,1.08-.92.68-1.06-.19-1.12-.55-.18-1.09,2.51-.94,1.06-5.11,2.56-7.87.2.41.44,1.73,1.08.75Z"/>
        <path class="cls-30" d="M12.8,88.11l.42.73c-.22.36.1.81.18,1.09-2.04,3.75-4.59,1.34-3.14-1.78-.81-.59-.61-1.03.44-1.34,1.22-.99,1.71-.03,2.1,1.3Z"/>
        <path class="cls-89" d="M12.04,85.01c.81.63.78,2.19.76,3.09-.63-.47-1.59-.67-2.1-1.3-1.33.89-1.77-.54-.9-1.79.61-2.48,1.35-2.49,2.24,0Z"/>
        <path class="cls-88" d="M12.04,85.01c-1.93-.15-2.44-3.24-.91-4.02l1.08-.49c.68,1.44,1.32,3.45-.17,4.51Z"/>
        <path class="cls-45" d="M7.98,74.74c.23.22.25.64.45.89-.15.45-.33.89-.44,1.34,1.46,2.09,3.44,5.99,1.82,8.04.12.55.55,1.35.9,1.79-.19.43-.34.88-.44,1.34-.47.87-.91.73-1.34-.26l-3.28-11.97c.06-.39.09-.78.1-1.17h2.24Z"/>
        <path class="cls-7" d="M10.26,88.15c.41.69.6,1.54,1.14,2.18s1.45-.02,2-.4c.45.97.31,2.17-.43,3.58-1.16-.14-2.29-.55-3.46-.47-.46-1.65-1.11-3.5-.58-5.15.44.12.89.21,1.34.26Z"/>
        <path class="cls-43" d="M12.97,93.51c-.59-1.17-.05-2.43.43-3.58.18-.24.76-.33.92-.68.79,1.58-.12,3.18-1.36,4.26Z"/>
        <path class="cls-14" d="M11.13,80.99c.73.78-.25,3.12.91,4.02-.74.08-1.49.06-2.24,0l-1.82-8.04c1.83.03,1.84,2.6,3.14,4.01Z"/>
      </g>
      <g id="front-shoe">
        <path class="cls-96" d="M19.91,90.71c-.1-.91-.81-1.68-1.65-2.05-.84-.37-1.8-.38-2.71-.25-2.48.37-4.76,1.85-6.11,3.97-.21.33-.4.68-.41,1.06-.01.3.08.59.17.88.71,2.21,1.42,4.43,2.14,6.64,1.22,3.79,2.45,7.61,4.33,11.12.29.54.6,1.08.71,1.68.08.43.06.88.01,1.32-.24,2.07-1.1,4.23-.3,6.15.17.4.4.78.44,1.21.04.4-.11.8-.25,1.18-.34.93-.69,1.87-1.03,2.8-.26.7-.51,1.53-.1,2.16.31.49.95.7,1.53.66s1.13-.29,1.66-.53c2.08-.96,4.41-2.2,4.91-4.44.26-1.16.04-2.57.95-3.33.69-.58,1.87-.57,2.28-1.39.18-.37.14-.81.03-1.2-.46-1.59-1.92-2.77-2.28-4.39-.15-.69-.08-1.4-.18-2.1-.16-1.21-.8-2.31-1.16-3.48-.77-2.46-.31-5.18-1.09-7.64-.18-.57-.43-1.13-.54-1.72-.09-.49-.08-.99-.07-1.48.02-1,.04-2.01.06-3.01l-1.35-3.82Z"/>
        <path class="cls-96" d="M16.13,90.97c3.09.12,5.77,4.89,2.56,6.56.59,1.81-.13,2.06-1.33.49.2.82-.07.89-.75.29-1.47.16-2.81.63-4.01,1.39,1.24,1.79,2.24,3.83,3.03,6.1,1.07,3.03,2.37,6.4,3.9,10.1-1.62,1.45-2.8.58-3.55-2.63-.6-2.53-2.38-4.87-3.42-7.23l-2.42-6.82c.19-1.9-.13-4.35-.64-6.18.42-2.49,2.94-1.68,3.46.47l1.36-4.26c1.03-2.28,2.06,3.37,1.81,1.72Z"/>
        <path class="cls-49" d="M12.56,106.03c-1.06-2.39-2.68-4.16-2.42-6.82.85,2.19,3.48,4.37,2.42,6.82Z"/>
        <path class="cls-43" d="M16.62,98.31l.75-.29c1.22,2,1.92,4.54,2.09,7.62.87,5.36,2.4,8.32,5.36,12.84-.1.24-2.89,2.61-3.15,2.62-.28.01-.59-.55-.9-1.28l-2.4-.04c.43.78.23.83-.52.23-1.43-2.02-1.33-4.52-1.86-6.75.76.69.64,2.3,2.48,2.2-3.22-5.29-4.67-10.42-5.85-15.77,1.07-1.22,2.42-1.92,4.01-1.39Z"/>
        <path class="cls-19" d="M19.77,120.32c.91-.14,1.05.16.45.89-.45,1.8-1.67,3.99-3.56,4.04-.66-.06-.78-.38-.4-.95.18-.69.33-1.82.73-2.51.33-.57.57-1.18.86-1.76l.52-.23c.85-.93,1.45-.73,1.4.53Z"/>
        <path class="cls-71" d="M19.25,99.3c2.12,1.23,3.17,3.67,3.17,7.34,1.31,2.53,1.45,4.63.43,6.29,2.04,3.04,3.06,4.57,3.06,4.57,2.13-.4,1.71.4.12,1.91l-4.01,3.14-.44,1.34c-.76,1.22-1.44,1-1.34-.44-1.07.28-1.07-.47,0-2.24l-.45-.89c-.1-.93.24-1.08,1-.49,1.47,1.16.5-.99.86-1.31.71-.62,2.11-.72,2.12-1.14.04-1.79-2.67-1.28-2.89-2.06-.79-2.79-2.01-4.56-3.83-7.13l3.54,1.97c-2.44-4.18-2.39-8.14-3.19-12.13l1.33-.49c-.03.59.47,1.18.56,1.77Z"/>
        <path class="cls-49" d="M16.62,98.31c-2.2,2.05.92,4.39.87,7.47-2.61-1.66-1.93-5.68-4.88-6.09-.38-1.71-1.03-2.67,1.23-2.75,1.04-.04,2.18-.05,2.78,1.37Z"/>
        <path class="cls-111" d="M16.66,125.25c.92-.47,2.11-1.07,3.57-1.8.34-.38,1.33-.11,1.34.44-.43,1.31-1.02,2.89-2.29,3.27-.99.3-3.14,1.04-3.9-.05-.85-1.22.71-2.19.87-2.82l.4.95Z"/>
        <path class="cls-43" d="M26.03,119.4c.54,1.21-1.47,1.86-2.23,2.24l-1.79.9c.6-1.83,2.49-2.35,4.01-3.14Z"/>
        <path class="cls-68" d="M20.77,119.82l-1,.49c-.56.28-1.28.26-1.4-.53,0-.54.03-1.35.27-1.8.62-1.17,1.31.02,1.45.53s.53.86.68,1.31Z"/>
        <path class="cls-54" d="M20.22,121.21v2.24c-.46.52-.79,1.13-1.19,1.5-.76.71-1.84,1.56-2.37.3l3.56-4.04Z"/>
      </g>
    </g>
    <g id="back-arm">
      <path class="cls-109" d="M40.17,32.35c-.09-.76-3.06-6.98-3.86-7.51s-1.79-.24-2.04.45-.22,4.71-.27,5.67,2,3.3,2.4,4.38,3.2,4.24,3.58,4.98,2.96,3.39,3.77,4.11c.81.72,3.52,2.16,3.66,1.24s-.49-3.67-.84-4.03-1.89-3.97-2.41-4.57-4-4.72-4-4.72Z"/>
      <path class="cls-69" d="M49.4,51.45c.98.25,1.73.96,2.11,1.89-.98.66-.83,1.21-2.26.15-.81-.6-2.25-.34-1.84-1.93.55-1.76,1.59-2.05,2-.11Z"/>
      <path class="cls-82" d="M50.04,47.1c-.09.9-.41.91-.92.11-.83,1.41-1.87,1.23-3.12-.54-.28-.13-.6-.18-.87-.33-1.35-1.47-.95-2.52,1.04-2.69-1.46-1.41-1.44-2.98.74-2.09.91,1.54,2.52,3.93,3.13,5.53Z"/>
      <path class="cls-109" d="M45.64,39.42c.56.46.9,1.53,1.27,2.15-.77.39-.81,1.31-.74,2.09-.51,1.18-.8,1.24-1.21.02-1.65-1.48-2.73-3.09-3.27-4.83-.84-.3-.78-.61.11-.92-1.21-1.29-1.05-1.58.63-.97,1.47-1.4,2.53-.58,3.2,2.47Z"/>
      <path class="cls-78" d="M53.3,49.3c.85,1.99-.36,3.07-1.8,4.04-1.14.17-2.32-.68-2.11-1.89-.89-.24-.89-.57-.05-1-.11-1.17.57-1.82,2.05-1.95.55.19,1.27.73,1.91.8Z"/>
      <path class="cls-42" d="M51.39,48.5c.17.43.17.97-.12,1.29-.51.58-1.29.67-1.93.67-1.21-.55-.72-2.07-.22-3.23l.92-.11c.17.45.89,1.23,1.35,1.39Z"/>
      <path class="cls-17" d="M42.43,35.79c-.08.36.22.87.02,1.17l-.63.97c-1.57.75-3.01-.19-3.27-1.91-.25-1.33-.23-2.86-1.08-4.02.41-.24.95-.56,1.32-.45,1.38.38,1.87,3.28,3.63,4.24Z"/>
      <path class="cls-108" d="M40.76,39.9c1.61.53,3.01,1.79,4.21,3.78.34.14.84-.11,1.21-.02-.24.94-.54,1.86-1.04,2.69-2.94-1.63-5.18-4.21-6.43-7.34.23-2.43,2.87-1.13,2.05.89Z"/>
      <path class="cls-102" d="M49.12,47.22c-.15,2.35-.74,3.47-1.78,3.34-.05-1.4-.42-2.8-1.34-3.88,1.08-.12,2.23-.15,3.12.54Z"/>
      <path class="cls-31" d="M49.34,50.45l.05,1-2,.11c.08-.31-.1-.68-.05-1,1.12-.87.38-2.69,1.78-3.34.14,1.07.16,2.15.22,3.23Z"/>
      <path class="cls-113" d="M44.97,43.68c-1.77-.76-3.19-2.16-4.21-3.78-.27-.87.05-1.22.94-1.05,1.55,1.25,2.92,2.83,3.27,4.83Z"/>
      <path class="cls-5" d="M41.81,37.93c-.16.24.02.66-.11.92-.22.42-.6.75-.94,1.05-.46-.72-1.2-1.01-2.05-.89-.34-.86.01-2.08-.16-3,1.36.04,2.41.92,3.27,1.91Z"/>
    </g>
    <g id="body">
      <path class="cls-9" d="M34.73,26.78c-.14.62-.3,1.04-.47,1.26-.36.47-.81.07-1.32-1.18-.13.32-.26.52-.39.59-.21.11-.42-.11-.63-.65-2.74-.18-2.96-.9-.87-2.73-2.71-.2-2.61-1.1-.05-1.93-.41-.56-.62-1-.64-1.29,0-.07,0-.13.02-.18.08-.32.49-.37,1.18-.13.19.11.38.19.58.25.9.28,2.01,0,2.9.44l.2,1.04c.78,1.43.8,3.44-.51,4.51Z"/>
      <path class="cls-112" d="M38.08,31.94c1.9.36,3.04,3.36.86,4.07,1.68.97,2.16,2.55,0,3-.33.03-.67,0-1,0-.76-1.03-1.98-3.03,0-3-.92-1.26-1.93-2.11-3.21-3-.9-.31-.91-.65-.02-1-.61-2.04-1.07-3.97,1.37-2.84.45,1.06,1.38,1.83,2,2.77Z"/>
      <path class="cls-46" d="M35.94,28.01c-1.63,1.09-2.17.5-1.2-1.23,0-1.52-.04-3.07.51-4.51,2.4.79,1.03,3.75.69,5.74Z"/>
      <path class="cls-105" d="M34.73,26.78l1.2,1.23c.11.36,0,.82.14,1.16-.91.66-1.24,1.76-1.37,2.84-1.34,1.12-1.86.12-1.59-3-.86-.6-.91-1.37-.17-2.15.46-.51,1.31-.56,1.79-.07Z"/>
      <path class="cls-103" d="M33.49,32.32h-.01c-.28.23-.79.12-1.54-.31l-.02-5.21,1.02.06c.03.72.19,1.43.18,2.15.66,1.85.78,2.96.37,3.31Z"/>
      <path class="cls-99" d="M35.77,41.08c-.87,1.95-.59,4.13.09,6.11-.97,2-2.06,1.91-2.68-.23-2.06-.04-1.09-5.47.99-5.84-2.91-.86-2.23-2.8.77-2.11.84-.17,1.12.52.84,2.07Z"/>
      <path class="cls-21" d="M35.86,47.19c-.14,1.26-.52,2.47-.87,3.68l-2.28.09c-2.46,1.74-3.41.8-1.85-1.78-1.16-1.44-.61-1.83,1.07-1.17-.62-1.56-.13-2.06,1.24-1.05.88.21,1.78.33,2.68.23Z"/>
      <path class="cls-44" d="M37.94,36.01v3h-1c-1.09-.24-1.75-.91-2-2-3.44,1.11-1.99-1.26,0-3,1.17-.76,2.36.87,3,2Z"/>
      <path class="cls-79" d="M36.94,39.01c-.25.76-.84,1.35-1.16,2.07-1.08.21-.75-1.4-.84-2.07-1.94-.56-1.93-1.44,0-2,.42-.02.96-.08,1.41.15.63.32.68,1.2.59,1.85Z"/>
      <path class="cls-58" d="M35.41,33.51c-.07.14-.23.31-.47.5-.72,1.7-1.39,2.72-2.01,3.06-.41.22-.79.16-1.15-.19.3-1.61.16-3.24.16-4.87.81-.35,1.05-1.16,1.12-1.99.04-.34.05-.69.06-1.01.58.98.85,2.11,1.58,3-.04.32,0,.68.03,1,.6.05.82.22.68.5Z"/>
      <path class="cls-67" d="M37.94,36.01c-1.28-.13-2.05-1.22-3-2-.04-.34-.19-.66-.21-1,.71.01,1.5.01,2.24.47.77.48,1.02,1.56.97,2.53Z"/>
      <path class="cls-32" d="M20.2,36.87c-.07,2.24-1.83,2.96-3.1,1.03-.48-.58-.58-1.36-.39-2.09.05-.21.12-.41.22-.6.24-.49.61-.92,1.08-1.2-2.04-.32-1.84-1.67.19-2-.26-1.44-.34-2.72-.25-3.84.1-1.26.43-2.31.99-3.16.05-.17.11-.3.17-.4.24-.43.52-.29.83.4.1-.52.28-.82.49-.9.27-.1.6.16.87.78l.74.25.54,4.04c.34,3.43-.45,5.99-2.38,7.69Z"/>
      <path class="cls-85" d="M30.94,47.01h0c0,.29-.05.51-.13.69-.07.16-.17.28-.29.35-.07.06-.16.1-.24.12-.5.12-1.12-.28-1.34-1.16-1.07.38-2.47.75-3.46.34-.26-.1-.49-.26-.68-.48-1.2-.08-1.42-1.03-.66-2.88-1.04-2.51-1.27-3.85,1.66-4.78-.2-.18-.34-.33-.4-.48-.05-.09-.06-.18-.04-.27.04-.21.28-.37.72-.49l1.78-.18c3.47-1.3,5.6.44,1.92,2.23.48.22.53.47.2.74-.07.07-.16.13-.26.19-.99,1.59-1,2.9-.02,3.93.23-.17.43-.3.59-.4.14-.07.26-.13.35-.14.55-.14.54.47.3,1.67.87.29.86.62,0,1Z"/>
      <path class="cls-11" d="M34.94,37.01c.03.66-.09,1.34,0,2-.57.56-.74,1.34-.78,2.11-.12.12-.22.24-.32.37-.45.48-.81.77-1.1.88-.46.18-.73-.12-.78-.89,0-.16,0-.31-.02-.47-.42.79-.73,1.19-.99,1.28,0,.01-.01.01-.01.01-.37.14-.62-.37-.87-1.21-.03-.1-.06-.21-.09-.33-.07-.23-.13-.48-.2-.74.02-.68.09-1.65-.44-2.03-.46-.33-1.07-.27-1.48-.2,1.05-.99,2.54-1.11,3.92-.91,1.49-.66.94-3.35,3.16-2.87-.31,1-.88,2.2,0,3Z"/>
      <path class="cls-107" d="M23.13,35.89c-.64.83-1.24,1.29-1.78,1.39-.42.08-.8-.06-1.15-.41l1.03-5.34c.13-.7.02-1.57.41-2.1.17-.22.52-.3.94-.25,1,2.1,1.74,4.61.55,6.71Z"/>
      <path class="cls-28" d="M31.78,36.88c-1.38-.2-2.87-.08-3.92.91l-1.78.18c-.02-.94.25-1.71.91-2.89-1.85-.22-2.68.59-3.86.81,1.19-2.1.45-4.61-.55-6.71l-.54-4.04c.47-.87,1.2-.47,1.91-.28,2.38.63,4.96.43,7.1-.79-2.09,1.83-1.87,2.55.87,2.73l.02,5.21c0,1.63.14,3.26-.16,4.87Z"/>
      <path class="cls-40" d="M26.99,35.08c-.66,1.18-.93,1.95-.91,2.89-.15.19-.41.36-.72.49-.08.04-.17.08-.27.11h0c-.6.21-1.34.31-1.95.22h-.01c-.41-.05-.76-.19-.98-.44-.05-.11-.12-.22-.2-.34-.47-.2-.67-.44-.59-.73.09-.38.68-.85,1.78-1.39,1.18-.22,2.01-1.03,3.86-.81Z"/>
      <path class="cls-38" d="M16.19,34.66c.4.49.71,1.57.91,3.24,1.17-.08,2.07-.47,3.1-1.03.87-.47,1.97-.8,2.93-.98l-1.2,2.12c.82,1.2.27,1.6-1.03.96.64,2.43,0,3.06-1.94,1.9-.83.14-1.1-.18-.81-.96-1.07-.04-2.14.66-3.22,2.11.99,2.01.69,3.44-.89,4.31,1.85,1.9,1.69,2.23-.94,1.93,2.03.6.84,2.83-1.01,2.78-1.21.02-1.38-1-1.39-2.09.64-3.33,3.12-6.5,2.05-9.93-.53-4.07-.47-8.07.18-12,.29-.66.63-.64,1,0,1.85,1.15,3.07,5.48,2.25,7.65Z"/>
      <path class="cls-106" d="M12.76,39.01c-.53-1.72-.82-3.02-.82-5v-6c-1.28-1.26-.72-1.57,1-1,.1,4,.17,8.01-.18,12Z"/>
      <path class="cls-59" d="M34.16,41.12c-1.53,1.55-1.28,3.81-.99,5.84-.38.39-.8.74-1.24,1.05-1.3.83-1.86.32-1-1v-1c-.56-1.53-.44-4.09,1-5,.65.3,1.52-.05,2.23.11Z"/>
      <path class="cls-101" d="M30.94,47.01c.52,0,.89.53,1,1l-1.07,1.17c-2.97-.16-5.95-.2-8.93-.17l-.5-1.26,7.5-.74h2Z"/>
      <path class="cls-110" d="M20.94,21.01l.36,3.88c-.37.66-.98.86-1.36.12-2.7-.97-3.03-3.3-1-7,1.39-1.06,2.06-.06,2,3Z"/>
      <path class="cls-106" d="M16.94,27.01c1.28.82,1.7,2.49,1.27,5-.09.65-.02,1.36-.19,2-.57,1.34-1.18,1.55-1.82.65-1.57-2.37-2.84-4.78-2.25-7.65.19-3.05,1.72-2.31,3,0Z"/>
      <path class="cls-80" d="M19.94,25.01h-1c-.42.71-1.09,1.04-2,1-2.21,1.5-3.67-4.1-1-4.08-.61-1.15.73-3.11,1.87-3.8l1.13-.13c-.24,2.39.32,4.72,1,7Z"/>
      <path class="cls-15" d="M18.94,25.01c-.33,2.31.86,5.15-.73,7-.74-1.58-1.36-3.24-1.27-5-1.25-.19-1.24-.82,0-1-.09-.33-.17-1.65.46-1.91.38-.16.97.96,1.54.91Z"/>
      <path class="cls-27" d="M17.1,37.9c-1.24.08-1.27-.49-1.15-1.37.09-.65.36-1.46.24-1.87.57-.32,1.18-.55,1.82-.65-.34,1.29-.72,2.57-.91,3.89Z"/>
      <path class="cls-73" d="M25.8,39.21c-.89,2.45-1,5.07-1.01,7.66.13.97-2.22.96-2.86.14-.55-.72-1.59-1.06-3.13-1.01-1.84.57-2.01-.38-.85-1.93-2.16-.67-.78-2.64,1.01-3.21.41-.79,1.38-1.24,1.94-1.9,1.74-.31,1.24.97.35.96-.26,0,3.54-2.72,4.55-.72Z"/>
      <path class="cls-39" d="M21.94,47.01l2.86-.14,4.14.14c-1.26,2.02-7.53.09-7,2h-1.19c-1.26.71-2.63.63-2.81-1-1.41-1.6-.84-2.16,1-1,.78-1.14,2.95-2.03,3,0Z"/>
      <path class="cls-8" d="M29.7,44.88c-1.02.07-2.1.31-3.27-.14.42-2.07,1.9-3.06,3.29-3.79,1.8.49,1.59,3.26-.02,3.93Z"/>
      <path class="cls-87" d="M31.94,41.01c.12,1.73-.08,3.5-1,5-.44-.35-.85-.73-1.24-1.13.16-1.31.16-2.62.02-3.93l.05-.93,2.16.99Z"/>
      <path class="cls-93" d="M26.08,37.97c0,.38-.15.88-.28,1.24-1.7-.46-3.29.48-4.42,1.81-.85-1.14-.45-1.69-.48-2.05.28-.34.82-.58,1.03-.96l4.15-.04Z"/>
      <path class="cls-47" d="M15.77,46.13c1.57-.27,2.33.2,2.17,1.88.91.08,2.91-.34,2.81,1.01-.53,1.18-1.55,2.07-3.05,1.62-.76-.23-1.66-.83-2.43-1.43-1.34,1.38-2.29.95-2.16-.96.24-.67.59-1.31.94-1.93.34-1.78,1.06-1.84,1.72-.19Z"/>
      <path class="cls-48" d="M15.26,49.21c.93.93-.47,1.37-.85,1.95-.77,1.2-1.41-.13-2.32-.12l1.01-2.78c.83.05,1.52.45,2.16.96Z"/>
      <path class="cls-106" d="M18.96,40.87c-.52.99-.63,2.17-1.01,3.21.58,1.89-.49,3.29-2.18,2.05-.4.37-1.23.13-1.72.19-.32-1.23-1.22-4.67.89-4.31,1.12-1.8,2.19-2.51,3.22-2.11.42.18.6.59.81.96Z"/>
      <path class="cls-33" d="M18.15,39.9c-1.73.34-1.25,3.22-3.22,2.11-.06-.92.25-1.77.92-2.55.75-.86,1.63-.56,2.29.44Z"/>
      <path class="cls-27" d="M14.8,21.88c-.08-1.94.68-1.9,1.13.06-.39,1.29-.14,3.28,1,4.08.65.25.66.75,0,1h-3c.07-.32,0-.68,0-1-.9-.1-.85-.45,0-1-1.53-.4-2.37-.79-1-2v-1l1.87-.13Z"/>
      <path class="cls-84" d="M21.94,47.01h-3c-.9-.17-.94-.51-.13-1.01,1.68-.52,2.69-1.72,3.51-4.09.53.73,1.53,2.21,1.03,2.89-.53.73-1.31,1.26-1.4,2.2Z"/>
      <path class="cls-51" d="M18.8,46l.13,1.01c-.48.15-.89.49-1,1-1.1-.1-2.28-.62-2.17-1.88l2.18-2.05c.38.6.63,1.26.85,1.93Z"/>
    </g>
    <g id="dress">
      <path class="cls-10" d="M29.12,48.38c-2.39,0-10.63-.96-12.83-.29s-5.04.95-6.21,1.96c-1.17,1.01-3.27,5.8-3.56,6.66s-2.49,2.78-2.3,4.88.67,4.31,1.63,4.4,4.31-1.72,5.84-1.05,6.03,4.6,7.37,4.69,3.35.77,6.61.1c3.26-.67,4.79-2.97,6.61-3.64s1.65.56,3.51,0c1.85-.57,3.39-.76,3.58-1.62s-.1-3.35-.38-4.21-2.39-8.33-2.78-9-7.09-2.87-7.09-2.87Z"/>
      <path class="cls-23" d="M34.99,50.86l.98,2.01c.35-.24.67-.41.93-.34.91.27,3.52,7.9,3.28,9.62l-1.24.86c-.25.95-.59.93-1,0-2.2-.46-5.74-7.58-6.35-9.86l1.13-2.19c-.01-2.75,1.47-2.61,2.28-.09Z"/>
      <path class="cls-91" d="M12.09,51.03c.83-.82,1.85-1.38,3.17-1.83,1.85.02,3.67-.04,5.48-.18-.16-1.51.56-1.47,1.19-.01,3.43-1.04,6.4-.99,8.93.17.17.94,1.15,1.42,1.85,1.78,1.86,3.78,4.51,7.83,5.23,12.05.7.78-.83,3.74-2.14,3.08-1.82,1.59-2.46,1.89-3.22-.82-.97,1.47-1.88,2.35-2.76,2.63.17,1.65-.53,2.01-1.9.95.15,3.49-6.84,3.9-6.89.32-2.86.38-4.6-.02-5.23-1.21-.14.87-.39.84-.75-.02-2.13-.23-2.33-1.24-1.27-2.96-.94.29-1.21-.02-.81-.92-.93-.67-.6-1.35,1.01-2.06-1.53-.36-3.33-.96-3.96-2.4l-.9-1.12c2.33-2.34,2.94-3.48,1.81-3.41-2.55-.39-3.05-3.81-.84-5.03,0-.44.54-.74.62-1.11,1.04.12,1.52,1.05,1.39,2.09Z"/>
      <path class="cls-10" d="M10.01,59.61l.84,1.19c-1.7.9-2.67,2.3-2.91,4.2-1.4,2.44-2.54,1.68-2-1-3.96-1.46-.61-7.09,3.05-6.96l1.94-1.97c1-1.01-.31-3.38,2.98-3.08-.52,2.75-2.61,5.07-3.9,7.61Z"/>
      <path class="cls-114" d="M13.97,62.01l-1.19,1.23c-1.78.08-3.39,1-4.84,2.77-.87-.27-.85-.61,0-1-.92-2.63,1.24-3.77,2.07-5.4.99-.15,2.02-.07,2.72.21,1,.4,1.56,1.27,1.24,2.19Z"/>
    </g>
    <g id="head">
      <path class="cls-97" d="M35.27,8.98c-.05.14-.17.9-.19,1.14s-.03,1.25-.08,1.56-.15,1.52-.22,1.68-.23.38-.35.33-.3-.17-.47-.14-.16.91-.32,1.27-.55,1.81-.81,2c-.13.1-.35.35-.55.59-.23.29-.62.39-.97.26-.48-.18-1.12-.42-1.31-.53-.32-.18-1.11.63-1.29,1.07s2.05,3.14,1.78,3.66-1.94,1.79-3.28,1.69-6.23-.85-6.61-1.88-2.26-2.47-2.21-3.56.59-3.05,1.51-3.86,1.64-1.7,2.03-2.97,1.03-4.9,1.95-5.71,1.76-2.81,3.76-2.35c2.01.46,4.87.33,5.76,1.12s2.34,1.29,2.31,1.96-.44,2.65-.44,2.65Z"/>
      <path class="cls-74" d="M35.22,9.86c-.08.31.03.71-.1,1l-2.09.8c-.36.55-.69.5-1-.1-1.48-.12-1.14-1.57.2-1.99.02-1.48.96-1.96,2.4-1.86.15.6.76,1.42.58,2.15Z"/>
      <path class="cls-94" d="M30.85,24.56c-2.25,1-4.84.95-7.14.08-1.69-2.13.36-4.18,2.58-4.47.51-.07,1.02-.05,1.5.09.44-.43.95-.49,1.44-.31.5.18.98.62,1.3,1.15.06.1.11.18.16.28.2.4.32.85.31,1.25-.15.58-.1,1.32-.14,1.93Z"/>
      <path class="cls-26" d="M32.26,21.4c-.31.46-1.02.76-1.27,1.23-.99-.9-2.04-1.73-3.21-2.37-1.82.98-2.19.21-.52-1.15l.1-1c.26-2.13,3.57,2.71,4.9,3.28Z"/>
      <path class="cls-65" d="M35.04,7.69c-.05.28.53,1.38.41,1.71-.06.17-1.19-.42-1.29-.25-.36.56-1.24.52-1.92.41-.44,1.68-1.15,1.57-1.35-.23-1.33-.05-.32-5.34.99-5.78,1.83.67,3.55,2.15,3.17,4.14Z"/>
      <path class="cls-74" d="M28.49,15.08c1.37-.74,3.05-.35,2.06,1.35l-.1,1-.74-.21c-.41-.12-.86-.05-1.22.18l-1.13.72c-1.5-1.15-2.06-2.23-1.68-3.24-.2-2.99,1.76-1.23,2.81.19Z"/>
      <path class="cls-34" d="M33.03,11.65l-1.19,1.89c-.69,1.91-1.9,2.19-3.22.62-1.74.07-1.73-.51.05-1.74.39-.86.81-.88,1.28-.07.61-1.39,1.2-2.36,2.09-.8l1,.1Z"/>
      <path class="cls-104" d="M31.74,14.54c-.08.76-.55,1.45-1.19,1.89l-2.06-1.35c-.85-.32-.78-.63.13-.92,1.11.03,2.22-.12,3.22-.62l-.1,1Z"/>
      <path class="cls-74" d="M32.23,9.59l-.26,2.57-3.26.97c-1.53-1.65-1.5-4.44,1.39-3.88l2.13.34Z"/>
      <path class="cls-3" d="M27.78,20.26c-.7,2.07-3.17,2.47-4.07,4.38-.69-.26-1.37-.73-1.93.09-.45.77-.69.64-.71-.32-.35-.11-.62-.43-.79-.86-.4-1.05-.2-2.72.81-3.03-.27-.64-.46-1.21-.58-1.7-.2-.8-.21-1.4-.03-1.78.22-.46.69-.64,1.43-.52l.58.12s.04-.08.07-.11c.37-.67.68-.6.92.21.58-1.23,1.41-1.27,2.15-.72h0c.49.38.94,1.01,1.24,1.71.2.45.33.93.38,1.39-.04.43.21.85.52,1.15Z"/>
      <path class="cls-35" d="M25.68,14.88c.98.82,1.81,1.95,1.68,3.24l-.1,1c-.71-1.5-2.09-2.49-3.78-2.39-2.53-.26-1.52-1.98.3-2.99-.64-.36-.6-.69.1-1,1.62-1.99,2.45.38,1.81,2.13Z"/>
      <path class="cls-34" d="M28.61,14.16l-.13.91-2.81-.19-1.8-2.14c-.27-.5-.43-1.03-.47-1.56-.06-.7.07-1.41.39-2.04-.07.47-.05.53.32.2.03-.03.08-.07.12-.11.41-.36.74-.71,1.14-1.03.35.01.69.12,1.03.28.38.19.75.47,1.09.78.21,1.16.59,2.2,1.16,3.15l-.05,1.74Z"/>
      <path class="cls-12" d="M20.15,16.14c1.03-1.06,2.65-1.43,2.34.49-.89,1.11-1.27,2.48-1.39,3.88,0-1.08-.94-2.33-1.69-3.18-.38,1.73-.71,1.75-1.13.01-.02-.37.22-.74.24-1.11l1.64-.09Z"/>
      <path class="cls-95" d="M23.78,13.74l-.3,2.99c-.32.02-.68-.03-1-.1l-2.34-.49c-.02-.26.13-.58.14-.82.88-.48,1.73-1.03,2.49-1.68.37-.84.7-.79,1,.1Z"/>
      <path class="cls-57" d="M23.88,12.75l-.1,1-1-.1.05-1.4.1-2.49c.03-.66.49-.84.93-1.04-.02.18-.03.32-.05.44-.07.47-.05.53.32.2-.02.33-.04.67-.06,1-.05.8-.11,1.61-.19,2.4Z"/>
      <path class="cls-50" d="M28.67,12.42c-.43.22-.79.71-2.08.7-.23-1.55.51-2.65.91-3.84l.81.07c.86.83.39,2.02.36,3.08Z"/>
      <path class="cls-97" d="M33.73,14.74c-1.15,1.44-1.87,1.77-1.99-.2-.77-.36-.72-.7.1-1-1.56-.67-.11-1.44,1.19-1.89-.81-1.37,1.16-1.82,2.09-.8-.24.53-.7,1.05-.87,1.62-.22.76-.15,1.58-.52,2.26Z"/>
      <path class="cls-34" d="M33.73,14.74c-.35.64-.72,1.26-1,1.92-.37.91-1.45,1.29-2.29.77h0c-.84-.37-.79-.7.1-1-1.35-1.18-.41-2.03,1.19-1.89l1.99.2Z"/>
      <g id="eye">
        <g>
          <path class="cls-28" d="M33.6,11.86c-.08-.14-.2-.24-.42-.28s-.76.13-.78.24.51.19.67.28.6.18.6.14-.07-.38-.07-.38Z"/>
          <path d="M33.63,11.99c-.15-.51-.87-.44-1.2-.17.11.11,1.09.45,1.25.42,0,0-.04-.25-.04-.25h0ZM33.59,11.79c.07.39.21.56-.3.4-.25-.14-.77-.18-.9-.37.25-.3.94-.4,1.2-.03h0Z"/>
        </g>
        <ellipse cx="33.4" cy="11.99" rx=".16" ry=".19" transform="translate(18.16 44.03) rotate(-84.31)"/>
        <path class="cls-28" d="M33.56,12.01s-.06.09-.11.08c-.03,0-.06-.02-.08-.04.06,0,.11-.02.11-.07,0-.03,0-.05-.02-.07h0c.06,0,.1.05.1.1Z"/>
        <path class="cls-55" d="M33.94,11.69c-.45-.37-.94-.38-1.45-.31.46-.24,1.29-.27,1.45.31h0Z"/>
      </g>
      <g id="hair">
        <path class="cls-70" d="M36.72,6.2c.29,1.06-.61,3.51-1.49,3.92-1.12.63-1.29-.09-.52-2.17-1.92-.23-2.47-2.53-2.63-4.23-2.49-.65-3.26-1.49-2.29-2.52l.66-.41c.24-.86.52-.82.84.06,2.09,1.46,4.72,2.72,5.44,5.34Z"/>
        <path class="cls-70" d="M29.74,1.38l2.27,2.49c-.61,2.5-1.34,2.23-2.14-.18-.75,2.23-4.54,2.84-5.92.91-2.05.28-2.22-.55-.71-1.9.5-1.02.76-2.29,2.11-2.44l4.39,1.12Z"/>
        <path class="cls-65" d="M23.93,4.46c2,1.83,1.27,2.71-1.32,2.03,1.18,1.24.15,2.45-1.37,2.88-.18.87-.4.79-.65-.13-1.48,1.25-2.02.69-1.12-1.08.56-1.15.72-2.49,1.18-3.68.36-.93,2.11-1.15,2.57-1.94.47.53.69,1.21.72,1.92Z"/>
        <path class="cls-60" d="M29.92,3.53c2.02.98.93,6.57-1.58,5.86-.27.85-.54.8-.8-.09-1.69,1.49-2.44,1.22-3.3-.84-1.3.14-1.61-.7-1.62-1.98.43-.6.79-1.56,1.32-2.03,1.86-1.07,3.91-1.42,5.98-.92Z"/>
        <path class="cls-65" d="M32.08,3.72l-1.17,5.74c-.72.83-3.23,1.09-2.57-.07,1.99-1.42,1.96-3.61,1.58-5.86.69.16,1.48-.13,2.16.18Z"/>
        <path class="cls-70" d="M25.45,8.17c-.4.31-.75.65-1.17,1-.04.03-.09.08-.12.1-.38.31-.4.25-.32-.21.03-.12.04-.26.07-.44.11-.05.23-.1.32-.16.41-.24.82-.34,1.22-.3Z"/>
        <path class="cls-65" d="M20.59,9.24c1.98.92,1.16,4.51-.45,5.9.84.3.76.57-.17.81.48,1.7-.51,1.04-1.64.04-.64.96-2.68.83-2.34-.68.18-2.6,1.99-4.7,2.62-7.23l.86.07,1.12,1.08Z"/>
        <path class="cls-65" d="M22.95,9.65c.98.44.57,3.03-.27,3.89.58,2.14-.81,2.54-2.54,1.6l.45-5.9.65.13c.9-1.57,1.6-1.58,1.72.28Z"/>
        <path class="cls-60" d="M24.23,8.46c-.26.88-.68,1.27-1.28,1.18l-1.72-.28c.42-.97.75-2.01,1.37-2.88.38.01.88.01,1.38.27.59.3.29,1.12.24,1.71Z"/>
        <path class="cls-65" d="M28.71,6.18c-1.73.33-4.46,2.37-5.21,3.5s-2.67,2.94-2.98,3.98-.82,3.15-.02,3.28,2.9-.4,3.46-1.19,3.14-3.55,3.54-4.18.76-3.43,1.11-4.06.1-1.34.1-1.34Z"/>
        <path class="cls-16" d="M35.66,9.01c-.28.27-.66-.24-.66-.24-.07-.22-.37-.69-.52-.45s-.8,1.26-1.35.99c-.54-.26-1.75-1.18-2.13-1.06-.37.12-1.54.62-1.8.77s-1.13-.89-1.68-.87c-.34.02-.72.18-1.06.43-.22.15-.42.36-.59.57-.38.5-1.19.71-1.78,1.2-.12.09-.22.19-.32.31-.13.14-.24.32-.35.5-.21.33-.41.7-.6,1.03-.2.35-.41.68-.62.89-.54.5-1.58,1.51-1.88,1.83-.31.32-.75.38-1.14,1.19-.38.81-1.1,1.72-1.59,1.66s-.86-.4-.62-.75c.24-.36.57-1.33.79-1.69.22-.35,1.82-.6,2-1.39.17-.79.14-2.68.39-3.19.26-.52,1.69-1.8,1.33-.84s-.73,2.05-.09,1.61c.63-.45,1.39-.4,1.42-1.2.02-.81-.3-3.09.51-3.59.81-.49,1.93-1.57,1.67-.84-.26.73.62.78,1.02-.08.39-.86.54-2.34.77-2.29.23.05,1.25-.18.8.84-.44,1.01-.91,2.65-1.6,2.95-.68.29-1.82.28-1.98,1.29,0,.05-.01.09-.03.13-.02.18-.04.31-.07.43-.08.46-.07.52.31.21.03-.03.08-.07.12-.1.41-.35.76-.68,1.16-.99.22-.17.46-.33.73-.48.77-.43,1.28-.62,1.83-.38.54.24.73.62,1.32.15.58-.48,1.69.33,1.67-.93-.02-1.27.41-1.71-.5-2.34-.93-.62-1.92-1.18-1.59-1.75.34-.59.66-1.01,1.8-.43,1.14.58,2.92.47,2.99,1.39s1.07.07,1.52,1.18c.44,1.12.87.86.72,1.98s-.01,2.08-.29,2.36Z"/>
        <path class="cls-16" d="M30.65,7.97c-.78.65-1.51,2.36-2.31,2.93s-1.65,1.93-2.46,2.24-2.9,2.09-3.25,2.16-.23.07.41-.77,2.69-3.22,2.89-4.4,2.16-3.22,2.92-2.98,1.8.81,1.8.81Z"/>
        <path class="cls-70" d="M20.09,14.16c.02.56-2.92,3-2.61,3.6s.84,2.62,1.89,2.3,1.98-.56,2.12-1.66,2.34-.9,2.64-1.54,1.58-2.52,1.78-3.08,1.37-1.44,2.18-1.57,2.02-1.23,1.9-2.14-1.19-2.16-1.07-2.51-.83,3.08-1.52,3.54-2.73,2.04-3.61,3.06-2.65,2.94-3.05,2.5.04-2.34-.03-2.59-.62.09-.62.09Z"/>
        <path class="cls-55" d="M30.44.79c.23.64-.18.76-.66.41-1.49-.25-3.57.23-4.44-1.13,1.74-.2,3.48.05,5.09.73Z"/>
      </g>
      <g id="lips">
        <path class="cls-63" d="M33.37,15.47c-.43,0-.76.12-1.15.18-.02,0-.04,0-.04.03,0,.02.02.03.03.04.13.08.26.15.39.23.12.07.41.17.57.12s.62-.61.19-.6Z"/>
      </g>
    </g>
    <g id="front-arm">
      <path class="cls-98" d="M3.37,28.91c1.07.73.82,1.57-.76,2.52l.94.81c.9-.19,1.05.1.5.86-.12.5-.58,1.08-1.38,1.76-.52.22-1.01.71-1.55.85-.69-.98-1.64-3.25-.78-4.24.75-.86,1.6-3.06,3.03-2.57Z"/>
      <path class="cls-64" d="M4.05,33.11c.09-1.32,2.68-2.34,3.1-.64l-1.73,1.01c-.89.51-1.8.99-2.75,1.39-.54-.84.83-1.38,1.38-1.76Z"/>
      <path class="cls-4" d="M8.09,26.13c2.66,1.15,1.72,2.86-2.81,5.11.23.83-.91,1.33-1.73,1.01-.32.48-2.02,1.64-2.39.34-.55-1.93,1.46-2.91,2.21-3.67.54-.55,1.02-1.7,1.53-2.16,1.23-.64,2.29-.84,3.19-.62Z"/>
      <path class="cls-86" d="M12.85,22.39c-.1,1.53-1.4,2.61-3.9,3.24.19.9-.1,1.05-.86.5-.92.69-2.13,1.37-3.19.62l6.96-6.3c2.16-1.42,3.67,1.42,1,1.94Z"/>
      <path class="cls-81" d="M12.85,18.6c.77-1.42,1.38-1.15,1.5.42,1.8-1.4,2.71.98,1.33,2.54,1.37,2.41.71,2.45-1.55,1.05-.47,1.79-1.22,1.68-1.29-.22.54-.45.55-1.03,0-1.35l-1-.59c.46-.42.69-1.25,1-1.85Z"/>
      <path class="cls-22" d="M13.68,16.66c.74-.31,1.66-.39,2.27-.89.92-.06,1.06.29.46,1.04.76,1.8-.18,2.94-2.04,2.2-.35.43-1.35.01-1.5-.42.3-.58-.04-1.57.82-1.93Z"/>
      <path class="cls-76" d="M5.28,31.24c2.02-1.99,3.62-2.54,4.82-1.65.9-.19,1.05.1.5.86l-3.46,2.01c-1-.81-2.2.03-3.1.64l-.5-.86,1.73-1.01Z"/>
      <path class="cls-53" d="M17.01,25.56c.9-.24,1.05.06.5.86l-.86.5-.36,1.37-.86.5c-1.68-.99-3.39.81-4.82,1.65l-.5-.86c-.19-.9.1-1.05.86-.5,1.1-1.62,4.04-3.26,6.05-3.52Z"/>
      <path class="cls-72" d="M10.32,25.99c2.42-.14,1.57.82.14,2.23.9-.19,1.05.1.5.86l-.86.5c-1.48.86-3.18,1.19-4.82,1.65-.94-1.61,4.81-2.36,2.81-5.11l.86-.5c.69-1.42,1.44-1.25,1.37.36Z"/>
      <path class="cls-66" d="M12.85,22.39l1.29.22c.9-.19,1.05.1.5.86,1.18,1.71-3.18,4-4.32,2.51-.45.11-.96-.22-1.37-.36.17-1.95,2.38-2.43,3.9-3.24Z"/>
      <path class="cls-41" d="M16.4,16.81c.45.54.69,1.18,1.17,1.92.53.84-.84,1.63-.88,2.31l-1.01.52-1.33-2.54c.64-.78,1.22-1.59,2.04-2.2Z"/>
      <path class="cls-6" d="M16.51,24.7c.2.26.35.58.5.86l-6.05,3.52-.5-.86c.41-1.77,4.22-3.77,6.05-3.52Z"/>
      <path class="cls-62" d="M14.64,23.47c.74.18,1.41.61,1.87,1.23l-6.05,3.52-.14-2.23c1.7-.41,3.71-.7,4.32-2.51Z"/>
    </g>
  </g>
</svg>