<?xml version="1.0" encoding="UTF-8"?>
<svg id="Enemy" xmlns="http://www.w3.org/2000/svg" viewBox="0 0 51.18 122.69">
  <defs>
    <style>
      .cls-1 {
        fill: #191211;
      }

      .cls-2 {
        fill: #525252;
      }

      .cls-3 {
        fill: #f4ae7c;
      }

      .cls-4 {
        fill: #f9cc9c;
      }

      .cls-5 {
        fill: #fbebbd;
      }

      .cls-6 {
        fill: #c4977d;
      }

      .cls-7 {
        fill: #342525;
      }

      .cls-8 {
        fill: #b97d5b;
      }

      .cls-9 {
        fill: #3b3a3b;
      }

      .cls-10 {
        fill: #181716;
      }

      .cls-11 {
        fill: #474038;
      }

      .cls-12 {
        fill: #634432;
      }

      .cls-13 {
        fill: #45352f;
      }

      .cls-14 {
        fill: #3c2d26;
      }

      .cls-15 {
        fill: #21282a;
      }

      .cls-16 {
        fill: #d9e021;
      }

      .cls-17 {
        fill: #cbaf8f;
      }

      .cls-18 {
        fill: #3c2b26;
      }

      .cls-19 {
        fill: #121212;
      }

      .cls-20 {
        fill: #41332d;
      }

      .cls-21 {
        fill: #4a4c4d;
      }

      .cls-22 {
        fill: #6c6153;
      }

      .cls-23 {
        fill: #151414;
      }

      .cls-24 {
        fill: #2d2d2d;
      }

      .cls-25 {
        fill: #1d1917;
      }

      .cls-26 {
        fill: #46250d;
      }

      .cls-27 {
        fill: #222121;
      }

      .cls-28 {
        fill: #fff;
      }

      .cls-29 {
        fill: #483835;
      }

      .cls-30 {
        fill: #412e2d;
      }

      .cls-31 {
        fill: #725f56;
      }

      .cls-32 {
        fill: #444445;
      }

      .cls-33 {
        fill: #333434;
      }

      .cls-34 {
        fill: #ad7f60;
      }

      .cls-35 {
        fill: #be8766;
      }

      .cls-36 {
        fill: #1c1512;
      }

      .cls-37 {
        fill: #53423c;
      }

      .cls-38 {
        fill: #16100d;
      }

      .cls-39 {
        fill: #c5997d;
      }

      .cls-40 {
        fill: #8d776d;
      }

      .cls-41 {
        fill: #6d665c;
      }

      .cls-42 {
        fill: #332b22;
      }

      .cls-43 {
        fill: #232020;
      }

      .cls-44 {
        fill: #545352;
      }

      .cls-45 {
        fill: #221916;
      }

      .cls-46 {
        fill: #25201c;
      }

      .cls-47 {
        fill: #2d2116;
      }

      .cls-48 {
        fill: #504f4e;
      }

      .cls-49 {
        fill: #23201f;
      }

      .cls-50 {
        fill: #f6cba4;
      }

      .cls-51 {
        fill: #debba5;
      }

      .cls-52 {
        fill: #1a1110;
      }

      .cls-53 {
        fill: #6c4d40;
      }

      .cls-54 {
        fill: #3b3b3b;
      }

      .cls-55 {
        fill: #5d610e;
      }

      .cls-56 {
        fill: #282828;
      }

      .cls-57 {
        fill: #ae875f;
      }

      .cls-58 {
        fill: #4b4e4e;
      }

      .cls-59 {
        fill: #48474b;
      }

      .cls-60 {
        fill: #9ba018;
      }

      .cls-61 {
        fill: #1d1719;
      }

      .cls-62 {
        fill: #f1c8a0;
      }

      .cls-63 {
        fill: #d38269;
      }

      .cls-64 {
        fill: #704934;
      }

      .cls-65 {
        fill: #c8b41e;
      }

      .cls-66 {
        fill: #e5c294;
      }

      .cls-67 {
        fill: #787674;
      }

      .cls-68 {
        fill: #717171;
      }

      .cls-69 {
        fill: #bda4a1;
      }

      .cls-70 {
        fill: #e5ed23;
      }

      .cls-71 {
        fill: #1d1d1d;
      }

      .cls-72 {
        fill: #bb8c63;
      }

      .cls-73 {
        fill: #e19e71;
      }

      .cls-74 {
        fill: #7f6248;
      }

      .cls-75 {
        fill: #1b1b1b;
      }

      .cls-76 {
        fill: #90634c;
      }

      .cls-77 {
        fill: #2b2525;
      }

      .cls-78 {
        fill: #554944;
      }

      .cls-79 {
        fill: #25272c;
      }

      .cls-80 {
        fill: #37312f;
      }

      .cls-81 {
        fill: #d5b39b;
      }

      .cls-82 {
        fill: #b88a76;
      }

      .cls-83 {
        fill: #332420;
      }

      .cls-84 {
        fill: #fcb17f;
      }

      .cls-85 {
        fill: #f8ba88;
      }

      .cls-86 {
        fill: #c8ab8e;
      }

      .cls-87 {
        fill: #190d0d;
      }

      .cls-88 {
        fill: #554239;
      }

      .cls-89 {
        fill: #523f3a;
      }

      .cls-90 {
        fill: #2d2421;
      }

      .cls-91 {
        fill: #292929;
      }

      .cls-92 {
        fill: #1e1616;
      }

      .cls-93 {
        fill: #daad8c;
      }

      .cls-94 {
        fill: #bb7c59;
      }

      .cls-95 {
        fill: #906245;
      }

      .cls-96 {
        fill: #100a0a;
      }

      .cls-97 {
        fill: #ac8675;
      }

      .cls-98 {
        fill: #cca489;
      }

      .cls-99 {
        fill: #2f302e;
      }

      .cls-100 {
        fill: #070707;
      }

      .cls-101 {
        fill: #24160b;
      }

      .cls-102 {
        fill: #9f806b;
      }

      .cls-103 {
        fill: #1b1c19;
      }

      .cls-104 {
        fill: #d19b7f;
      }

      .cls-105 {
        fill: #646258;
      }

      .cls-106 {
        fill: #201d1b;
      }

      .cls-107 {
        fill: #393533;
      }

      .cls-108 {
        fill: #c89f86;
      }

      .cls-109 {
        fill: #cba387;
      }

      .cls-110 {
        fill: #43271b;
      }

      .cls-111 {
        fill: #161616;
      }

      .cls-112 {
        fill: #574b3d;
      }

      .cls-113 {
        fill: #fed1a8;
      }

      .cls-114 {
        fill: #2a2420;
      }
    </style>
  </defs>
  <g id="BadGirl_walk">
    <g id="back-leg-assembly">
      <g id="back-leg">
        <path class="cls-91" d="M28.38,96.14c.12-.72,1.14-3.38,1.54-4.42s.51-3.74.94-4.31,3.75-4.93,4.55-5.94,4.36-5.85,4.92-6.95,1.94-5.4,1.5-8.7,3.71-2.61-3.01-9.11c-6.72-6.5-8-8.17-8.78-8.59s-4.5,1.18-5.57,1.83-4.08,2.68-4.3,4.25,1.38,5.36,2.23,7.24,3.91,4.7,4.91,6.26,1.47,2.91,1.06,3.38-1.85,3.97-2.41,4.62-2,3.71-2.52,4.97-1.49,7.37-1.35,8.45-.73,4.36-.86,4.95-1.36,5.97-.87,6.58,1.57,1.92,2.34,1.83,3.21-.64,3.79-1.53,1.89-4.82,1.89-4.82Z"/>
        <path class="cls-36" d="M40.04,74.17l-.62.79c-3.61-.31-5.61,7.91-9.73,11.41-2.16,4.83-3.03,1.08-1.57-2.83.61-1.64,2.9-4.73,4.53-3.87l2.44-4.64c-.52-.73-.32-.91.56-.59l3.63-.93c.27.17.46.62.76.65Z"/>
        <path class="cls-20" d="M34.42,75.67c-.2,1.23-.79,2.57-1.77,4.01-2.1,2.04-3.47,4.39-4.96,7.78.78-.19,1.37-.64,2.01-1.08.85,1.55-1.02,2.79-1.02,4.29-.86.06-1.56.46-2.2,1-1.22,1.74-1.85,1.27-1.17-.8.16-4.85.48-9.72,3.99-13.42.46-.48,1.19-.48,1.87-.36.29-3.26,3.85-5.51,3.25-1.43Z"/>
        <path class="cls-77" d="M25.68,98.82c-1.97-.14-3.21,1.61-4.3,3.04-1.67-2.83.55-11.91,3.93-10.99.25.26.77.98,1.17.8.98,2.51,1.52,5.33-.8,7.15Z"/>
        <path class="cls-83" d="M33.75,71.73c.1,1.34-.76,3.13-2.58,5.37.21,1.59-3.56,3.75-4.08,5.31-.83,2.45.56,6.46-1.78,8.47-1.02.32-2.02.15-2.04-.64-.13-5.41,1.74-11.36,5.38-15.41-1.51-.7-.43-3.21,1.29-2.9,1.1-.53,2.06-1.19,2.53-2.82,1.41.77.95,1.94,1.27,2.63Z"/>
        <path class="cls-29" d="M35.65,74.45l-.56.59-.67.63c-.42-.66-.91-1.34-1.27-.93-.65.74-2.05,1.83-1.98,2.36-.5-1.94.8-4.48,2.58-5.37.62.89,2.21,1.39,1.9,2.72Z"/>
        <path class="cls-92" d="M29.95,71.92l-1.29,2.9c-.78.93-1.48,1.24-2.11.93.7-1.06-.02-3.38,1.33-4.34.55.25,1.79-.56,2.06.52Z"/>
        <path class="cls-91" d="M32.65,79.68c-.58-1.57.97-2.79,1.77-4.01.17-.25.46-.41.67-.63.74,1.86-1.18,3.41-2.44,4.64Z"/>
      </g>
      <g id="back-shoe">
        <path class="cls-25" d="M17.88,120.65c.98-1.06,1.97-2.13,2.66-3.4.59-1.09.95-2.29,1.56-3.38.52-.94,1.23-1.8,1.45-2.85.06-.3.09-.62.19-.91.14-.4.42-.74.67-1.09.83-1.14,1.41-2.44,1.93-3.74.64-1.61,1.21-3.25,1.78-4.88.44-1.26.87-2.51,1.14-3.82.23-1.16.33-2.36.07-3.51s-.9-2.25-1.89-2.88c-.62-.4-1.48-.59-2.09-.17-.35.24-.59.65-1,.74-.22.05-.45-.01-.68-.04-.8-.09-1.6.26-2.19.8s-1,1.25-1.34,1.98c-.24.52-.39,1.27.11,1.57-.41,2.29-.82,4.58-1.23,6.87-.08.47-.17.95-.38,1.37-.14.29-.34.55-.47.85-.16.37-.2.77-.28,1.16-.15.8-.4,1.58-.66,2.35-.2.62-.41,1.24-.78,1.78-.33.47-.76.85-1.2,1.22-.94.81-1.89,1.63-2.83,2.44-.33.28-.67.58-.86.97s-.21.91.09,1.23c.25.27.64.35.98.48s.7.42.66.78c-.02.2-.16.37-.25.56-.25.49-.14,1.1.13,1.58s.69.85,1.11,1.21c.7.62,1.4,1.24,2.1,1.85l1.51-1.13Z"/>
        <path class="cls-25" d="M25.07,105.81c-.41.67-.73,1.4-.97,2.15-.79.48-1.03.25-.77-.66-2.17-1.99.22-6.81,2.35-8.48-.61-2.19-1.13-5.59.8-7.15,0-1.98,1.13-2.93,2.2-1,2.42,5.25-.49,10.05-3.61,15.14Z"/>
        <path class="cls-24" d="M21.03,114.57c.33.65.1.89-.65.76l-1.38.84c-3.47,8.48-10.23,4.29-2.85-.53,1.14-.89,2.27-1.68,3.37-2.37.97-.77,1.87-1.31,2.72-1.62-.24,1.05-.03,2.24-1.2,2.92Z"/>
        <path class="cls-100" d="M22.23,111.64c-.67.85-1.5,2.07-2.72,1.62l.65-.76c-1.91-1.48.94-5.32,3.16-5.2l.77.66c-.41,1.27-1.56,2.38-1.87,3.68Z"/>
        <path class="cls-56" d="M23.33,107.31c-.7,1.83-2.29,3.44-3.16,5.2-.77.65-1.48.89-2.13.73-.79.84-1.53,1.14-2.22.92-3.32-.98-1.26-5.06,1.84-3.73l2.6-8.22,1.13-.34c1.44-4.77,2.88-5.79,4.3-3.04-.03,2.97-1.28,5.69-2.35,8.48Z"/>
        <path class="cls-75" d="M16.15,115.63l-2.6,5.02c3.64-1.39,3.81-5.35,6.83-5.33-1.56.83-1.41,2.45-1.89,3.77-.57,1.56-2.64,3.81-4.38,2.78-1.16-.68-2.52-2.04-2.51-3.57.55-.19.87-1.25,1.32-1.64.69-3.23,1.65-4.07,2.9-2.52.66-.57,1.45-.66,2.22-.92.74.81-.81,2.03-1.89,2.41Z"/>
        <path class="cls-2" d="M19.52,113.26c-.91,1-1.8,2.87-3.37,2.37l1.89-2.41c.7-.24,1.26-1.06,2.13-.73-.14.29-.44.52-.65.76Z"/>
        <path class="cls-1" d="M25.31,90.87c-3.1,2.65-3.23,7.25-3.93,10.99-.59,3.12-1.53,6.48-3.72,8.56.37-4.75,2.33-9.26,2.13-14.05-1.45-3.06,2.71-8.48,5.53-5.5Z"/>
      </g>
    </g>
    <g id="front-leg-assembly">
      <g id="front-leg">
        <path class="cls-52" d="M33.89,89.83c-.08-.34-1.04-3.93-1.42-5.27s-3.42-7.14-3.6-8.69-2.26-5.99-2.4-7.17-1.08-5.15-.25-6.53,4.17-6.2,4.42-7.8.69-4.8-.83-5.7-4.66-2.59-5.37-2.67-6.46,5.36-7.48,6.51-5.09,5.86-5.54,6.61-2.24,3.09-1.97,3.93,2.64,5.3,2.68,6.45.79,4.48,1.75,5.9,6.22,8.91,6.91,9.56,1.23,2.53,1.74,3.47,2.41,3.38,3.71,4.72,3.11,2.98,4.09,1.93,4.03-3.11,4.18-3.83-.62-1.44-.62-1.44Z"/>
        <path class="cls-18" d="M23.37,71.14c.16-.19.34-.37.53-.54,2.03-1.74,2.62-1.04,1.45,1.33.96,1.67,1.57,3.94.49,5.55,2.6,4.12,2.7,6.87.3,8.27-.7.56-.91.36-.64-.54-1.17-.61-2.49-1.32-1.78-2.64-.53-1.48-1-2.91-1.39-4.3-1.18-1.26-1.53-2.37-1.06-3.32-.25-2.16-.26-4.52,2.11-3.81Z"/>
        <path class="cls-37" d="M19.11,70.01c.38-.07.87.17,1.23.03,1.4.35,1.7,1.99.92,4.91.72.96,1.1,2.12,1.06,3.32-3.63-.48-8.41-7.51-3.2-8.26Z"/>
        <path class="cls-61" d="M28.36,67.62l-2,5.04c-.42,1.13-.76.89-1.01-.72l-1.45-1.33c1.32-1.22,2.4-3.6,4.46-2.99Z"/>
        <path class="cls-13" d="M18.3,67.87c.36.69.53,1.43.81,2.15-1.2.95-2.11,2.55-.93,4.26s2.71,2.96,4.13,4c1.1,1.34.69,1.82-.84.83-1.1.27-2.55-.63-4.33-2.69-.9-.44-.91-.91-.05-1.41-.04-1.21-.82-2.11-1.88-3.46,1.55-.96,2.51-2.21,3.09-3.68Z"/>
        <path class="cls-13" d="M23.37,71.14c-.97,1.11-1.77,2.37-2.11,3.81-1.07-1.42-.5-3.25-.92-4.91,1.18-.44,2.31.11,3.03,1.09Z"/>
        <path class="cls-52" d="M26.35,72.66c.52.37.76,1.02.82,1.65.12,1.17.08,2.35-.07,3.52.81,2.91-.94,2.9-1.27-.33-.31-1.84-.88-3.7-.49-5.55l1.01.72Z"/>
        <path class="cls-90" d="M27.1,77.82c.35,1.28,1.35,2.52,1.51,3.84,3.06.19,3.56,3.31.99,5.1-.09.63-.86.29-2.29-1,.49.74.27,1.05-.63.96-1.06.19-1.24-.13-.54-.96,2.04-1.75-.76-5.16-.3-8.27.32.32,1.01,1.48,1.27.33Z"/>
        <path class="cls-30" d="M25.49,85.22l.64.54c-.08.41.37.73.54.96-.63,4.22-3.85,2.83-3.56-.59-.96-.27-.92-.75-.05-1.41.81-1.35,1.59-.61,2.42.5Z"/>
        <path class="cls-89" d="M23.71,82.57c.98.31,1.49,1.79,1.78,2.64-.75-.23-1.72-.09-2.42-.5-.95,1.29-1.85.1-1.46-1.37-.28-2.54.42-2.8,2.1-.78Z"/>
        <path class="cls-88" d="M23.71,82.57c-1.87.53-3.4-2.2-2.23-3.46l.84-.83c1.14,1.12,2.42,2.79,1.39,4.3Z"/>
        <path class="cls-45" d="M16.37,74.32c.3.13.45.51.73.68.02.47,0,.94.05,1.41,2.09,1.46,5.29,4.45,4.47,6.93.3.47.98,1.08,1.46,1.37-.03.47-.02.94.05,1.41-.14.97-.61,1-1.35.21l-7.19-10.11c-.08-.38-.18-.76-.31-1.13l2.1-.78Z"/>
        <path class="cls-7" d="M23.12,86.13c.63.5,1.09,1.24,1.82,1.66s1.35-.52,1.74-1.07c.76.76,1.03,1.93.82,3.51-1.14.26-2.34.27-3.41.75-1-1.39-2.24-2.9-2.31-4.64.46-.03.91-.11,1.35-.21Z"/>
        <path class="cls-43" d="M27.49,90.23c-.96-.9-.89-2.27-.82-3.51.08-.28.61-.57.63-.96,1.29,1.21.98,3.02.19,4.47Z"/>
        <path class="cls-14" d="M21.47,79.11c.95.49.83,3.02,2.23,3.46-.67.33-1.38.56-2.1.78l-4.47-6.93c1.72-.6,2.62,1.81,4.33,2.69Z"/>
      </g>
      <g id="front-shoe">
        <path class="cls-96" d="M33.05,85.22c-.41-.82-1.34-1.3-2.25-1.36s-1.82.26-2.63.7c-2.2,1.2-3.84,3.38-4.37,5.82-.08.38-.14.77-.02,1.14.09.29.28.53.46.76,1.43,1.83,2.86,3.67,4.29,5.5,2.45,3.14,4.92,6.31,7.89,8.96.46.41.93.81,1.25,1.33.23.38.36.8.46,1.23.49,2.02.42,4.35,1.83,5.88.29.32.65.59.83.98.17.37.18.79.17,1.19,0,1,0,1.99,0,2.99,0,.75.05,1.61.64,2.07.46.35,1.13.33,1.67.09s.96-.66,1.37-1.07c1.63-1.61,3.39-3.58,3.09-5.86-.15-1.17-.84-2.43-.25-3.46.45-.79,1.56-1.18,1.66-2.08.05-.41-.15-.81-.39-1.14-.97-1.34-2.76-1.94-3.65-3.34-.38-.59-.56-1.29-.89-1.91-.57-1.08-1.54-1.89-2.28-2.87-1.56-2.05-2.07-4.76-3.65-6.8-.37-.48-.79-.91-1.1-1.43-.25-.43-.41-.9-.58-1.37-.33-.95-.65-1.9-.98-2.85l-2.58-3.12Z"/>
        <path class="cls-96" d="M29.6,86.76c2.94-.94,7.1,2.61,4.66,5.28,1.18,1.5.58,1.98-1.08.92.47.7.24.86-.6.53-1.32.66-2.42,1.55-3.29,2.68,1.78,1.26,3.42,2.82,4.94,4.69,2.05,2.48,4.42,5.2,7.13,8.14-1.02,1.92-2.43,1.5-4.24-1.25-1.43-2.17-3.91-3.76-5.7-5.62l-4.61-5.57c-.48-1.85-1.62-4.04-2.72-5.58-.46-2.48,2.18-2.59,3.41-.75l-.19-4.47c.18-2.49,3.09,2.46,2.29,1Z"/>
        <path class="cls-49" d="M31.42,102.13c-1.82-1.88-3.95-2.99-4.61-5.57,1.55,1.77,4.77,2.91,4.61,5.57Z"/>
        <path class="cls-43" d="M32.57,93.48l.6-.53c1.83,1.46,3.36,3.6,4.58,6.44,2.66,4.74,5.11,6.99,9.45,10.22-.01.26-1.82,3.45-2.05,3.55-.26.11-.74-.32-1.29-.89l-2.27.79c.67.59.51.7-.41.4-2.04-1.41-2.8-3.79-4.07-5.7.95.39,1.4,1.94,3.08,1.22-4.84-3.86-7.97-8.18-10.91-12.8.59-1.51,1.62-2.63,3.29-2.68Z"/>
        <path class="cls-19" d="M43.09,113.07c.8-.44,1.04-.21.73.68.19,1.85-.2,4.32-1.96,5.02-.64.17-.87-.09-.71-.76-.07-.71-.31-1.83-.18-2.61.11-.64.13-1.3.21-1.95l.41-.4c.48-1.17,1.11-1.18,1.5.02Z"/>
        <path class="cls-71" d="M35.38,93.51c2.41.43,4.24,2.36,5.5,5.8,2.1,1.93,2.95,3.85,2.56,5.76,2.96,2.16,4.44,3.24,4.44,3.24,1.86-1.11,1.74-.21.77,1.75l-2.69,4.33.05,1.41c-.3,1.41-1.01,1.44-1.41.05-.91.63-1.16-.07-.78-2.1l-.73-.68c-.41-.83-.15-1.09.77-.81,1.78.58.13-1.1.36-1.52.46-.83,1.73-1.4,1.6-1.8-.58-1.7-2.95-.29-3.42-.94-1.7-2.35-3.45-3.59-6.05-5.38l4,.63c-3.73-3.09-5.05-6.82-7.16-10.29l1.08-.92c.18.56.85.95,1.13,1.47Z"/>
        <path class="cls-49" d="M32.57,93.48c-1.36,2.68,2.37,3.8,3.38,6.72-3.02-.66-3.76-4.67-6.68-4.04-.94-1.48-1.88-2.15.21-3.01.97-.4,2.03-.79,3.08.33Z"/>
        <path class="cls-111" d="M41.86,118.77c.7-.75,1.62-1.73,2.74-2.92.19-.47,1.21-.56,1.41-.05.04,1.38.03,3.07-1.03,3.86-.83.62-2.59,2.06-3.68,1.3-1.22-.85-.08-2.3-.15-2.95l.71.76Z"/>
        <path class="cls-43" d="M48.65,110.06c.92.95-.74,2.26-1.32,2.87l-1.37,1.46c-.06-1.92,1.53-3.06,2.69-4.33Z"/>
        <path class="cls-68" d="M43.86,112.26l-.77.81c-.43.45-1.11.68-1.5-.02-.19-.51-.43-1.28-.36-1.78.18-1.32,1.24-.43,1.54,0s.8.63,1.09.99Z"/>
        <path class="cls-54" d="M43.82,113.75l.78,2.1c-.26.66-.36,1.34-.61,1.82-.47.93-1.19,2.1-2.13,1.1l1.96-5.02Z"/>
      </g>
    </g>
    <g id="back-arm">
      <path class="cls-109" d="M42.67,33.32c.1-.76-1.22-7.52-1.86-8.24s-1.67-.68-2.08-.08-1.4,4.5-1.68,5.42,1.11,3.69,1.22,4.84,2.04,4.9,2.22,5.72,2.02,4.02,2.62,4.92c.6.9,2.87,2.97,3.24,2.12s.45-3.67.19-4.11-.84-4.32-1.19-5.02-2.69-5.57-2.69-5.57Z"/>
      <path class="cls-69" d="M46.82,54.12c.89.49,1.43,1.36,1.57,2.36-1.11.39-1.1.96-2.23-.43-.64-.79-2.1-.89-1.3-2.32.97-1.56,2.05-1.59,1.96.39Z"/>
      <path class="cls-82" d="M48.53,50.07c-.32.85-.62.78-.92-.12-1.16,1.16-2.12.72-2.89-1.3-.23-.2-.54-.33-.76-.54-.94-1.76-.29-2.68,1.68-2.34-1.06-1.73-.65-3.24,1.24-1.84.5,1.72,1.46,4.44,1.65,6.14Z"/>
      <path class="cls-109" d="M46.2,41.53c.43.58.49,1.7.69,2.4-.84.19-1.11,1.07-1.24,1.84-.78,1.01-1.09,1-1.17-.28-1.22-1.85-1.87-3.68-1.95-5.49-.74-.5-.6-.79.34-.87-.85-1.55-.62-1.79.86-.78,1.77-.99,2.6.08,2.48,3.19Z"/>
      <path class="cls-78" d="M51.14,53.01c.32,2.14-1.11,2.88-2.75,3.46-1.15-.12-2.07-1.24-1.57-2.36-.8-.45-.72-.78.2-.98.18-1.16,1.01-1.62,2.47-1.38.48.32,1.05,1.03,1.65,1.25Z"/>
      <path class="cls-42" d="M49.49,51.76c.05.46-.08.98-.44,1.22-.64.43-1.42.33-2.04.16-1.03-.83-.18-2.18.59-3.19l.92.12c.05.48.55,1.42.96,1.69Z"/>
      <path class="cls-17" d="M43.99,37.21c-.17.33,0,.89-.27,1.14l-.86.78c-1.7.34-2.86-.94-2.69-2.67.09-1.36.5-2.83-.04-4.16.46-.12,1.06-.3,1.4-.11,1.24.71.99,3.65,2.46,5.01Z"/>
      <path class="cls-108" d="M41.35,40.77c1.42.91,2.47,2.48,3.13,4.71.29.22.84.11,1.17.28-.46.85-.98,1.67-1.68,2.34-2.44-2.31-3.96-5.37-4.39-8.71.83-2.3,3.07-.37,1.76,1.37Z"/>
      <path class="cls-102" d="M47.62,49.95c-.74,2.24-1.59,3.17-2.56,2.79.3-1.37.3-2.81-.33-4.09,1.07.15,2.19.41,2.89,1.3Z"/>
      <path class="cls-31" d="M47.02,53.14l-.2.98-1.96-.39c.16-.28.08-.68.2-.98,1.3-.57,1.04-2.51,2.56-2.79-.13,1.07-.38,2.13-.59,3.19Z"/>
      <path class="cls-113" d="M44.48,45.48c-1.53-1.18-2.54-2.89-3.13-4.71-.04-.91.35-1.17,1.18-.78,1.19,1.59,2.12,3.47,1.95,5.49Z"/>
      <path class="cls-5" d="M42.86,39.12c-.21.19-.14.65-.34.87-.31.35-.76.57-1.18.78-.26-.82-.91-1.28-1.76-1.37-.12-.92.53-2.01.59-2.94,1.31.38,2.11,1.49,2.69,2.67Z"/>
    </g>
    <g id="body">
      <path class="cls-9" d="M38.7,26.97c-.14.62-.3,1.04-.47,1.26-.36.47-.81.07-1.32-1.18-.13.32-.26.52-.39.59-.21.11-.42-.11-.63-.65-2.74-.18-2.96-.9-.87-2.73-2.71-.2-2.61-1.1-.05-1.93-.41-.56-.62-1-.64-1.29,0-.07,0-.13.02-.18.08-.32.49-.37,1.18-.13.19.11.38.19.58.25.9.28,2.01,0,2.9.44l.2,1.04c.78,1.43.8,3.44-.51,4.51Z"/>
      <path class="cls-112" d="M42.05,32.14c1.9.36,3.04,3.36.86,4.07,1.68.97,2.16,2.55,0,3-.33.03-.67,0-1,0-.76-1.03-1.98-3.03,0-3-.92-1.26-1.93-2.11-3.21-3-.9-.31-.91-.65-.02-1-.61-2.04-1.07-3.97,1.37-2.84.45,1.06,1.38,1.83,2,2.77Z"/>
      <path class="cls-46" d="M39.91,28.21c-1.63,1.09-2.17.5-1.2-1.23,0-1.52-.04-3.07.51-4.51,2.4.79,1.03,3.75.69,5.74Z"/>
      <path class="cls-105" d="M38.71,26.98l1.2,1.23c.11.36,0,.82.14,1.16-.91.66-1.24,1.76-1.37,2.84-1.34,1.12-1.86.12-1.59-3-.86-.6-.91-1.37-.17-2.15.46-.51,1.31-.56,1.79-.07Z"/>
      <path class="cls-103" d="M37.46,32.51h-.01c-.28.23-.79.12-1.54-.31l-.02-5.21,1.02.06c.03.72.19,1.43.18,2.15.66,1.85.78,2.96.37,3.31Z"/>
      <path class="cls-99" d="M39.75,41.27c-.87,1.95-.59,4.13.09,6.11-.97,2-2.06,1.91-2.68-.23-2.06-.04-1.09-5.47.99-5.84-2.91-.86-2.23-2.8.77-2.11.84-.17,1.12.52.84,2.07Z"/>
      <path class="cls-21" d="M39.83,47.38c-.14,1.26-.52,2.47-.87,3.68l-2.28.09c-2.46,1.74-3.41.8-1.85-1.78-1.16-1.44-.61-1.83,1.07-1.17-.62-1.56-.13-2.06,1.24-1.05.88.21,1.78.33,2.68.23Z"/>
      <path class="cls-44" d="M41.91,36.21v3h-1c-1.09-.24-1.75-.91-2-2-3.44,1.11-1.99-1.26,0-3,1.17-.76,2.36.87,3,2Z"/>
      <path class="cls-79" d="M40.91,39.21c-.25.76-.84,1.35-1.16,2.07-1.08.21-.75-1.4-.84-2.07-1.94-.56-1.93-1.44,0-2,.42-.02.96-.08,1.41.15.63.32.68,1.2.59,1.85Z"/>
      <path class="cls-58" d="M39.38,33.7c-.07.14-.23.31-.47.5-.72,1.7-1.39,2.72-2.01,3.06-.41.22-.79.16-1.15-.19.3-1.61.16-3.24.16-4.87.81-.35,1.05-1.16,1.12-1.99.04-.34.05-.69.06-1.01.58.98.85,2.11,1.58,3-.04.32,0,.68.03,1,.6.05.82.22.68.5Z"/>
      <path class="cls-67" d="M41.91,36.21c-1.28-.13-2.05-1.22-3-2-.04-.34-.19-.66-.21-1,.71.01,1.5.01,2.24.47.77.48,1.02,1.56.97,2.53Z"/>
      <path class="cls-32" d="M24.17,37.06c-.07,2.24-1.83,2.96-3.1,1.03-.48-.58-.58-1.36-.39-2.09.05-.21.12-.41.22-.6.24-.49.61-.92,1.08-1.2-2.04-.32-1.84-1.67.19-2-.26-1.44-.34-2.72-.25-3.84.1-1.26.43-2.31.99-3.16.05-.17.11-.3.17-.4.24-.43.52-.29.83.4.1-.52.28-.82.49-.9.27-.1.6.16.87.78l.74.25.54,4.04c.34,3.43-.45,5.99-2.38,7.69Z"/>
      <path class="cls-85" d="M34.91,47.2h0c0,.29-.05.51-.13.69-.07.16-.17.28-.29.35-.07.06-.16.1-.24.12-.5.12-1.12-.28-1.34-1.16-1.07.38-2.47.75-3.46.34-.26-.1-.49-.26-.68-.48-1.2-.08-1.42-1.03-.66-2.88-1.04-2.51-1.27-3.85,1.66-4.78-.2-.18-.34-.33-.4-.48-.05-.09-.06-.18-.04-.27.04-.21.28-.37.72-.49l1.78-.18c3.47-1.3,5.6.44,1.92,2.23.48.22.53.47.2.74-.07.07-.16.13-.26.19-.99,1.59-1,2.9-.02,3.93.23-.17.43-.3.59-.4.14-.07.26-.13.35-.14.55-.14.54.47.3,1.67.87.29.86.62,0,1Z"/>
      <path class="cls-11" d="M38.91,37.2c.03.66-.09,1.34,0,2-.57.56-.74,1.34-.78,2.11-.12.12-.22.24-.32.37-.45.48-.81.77-1.1.88-.46.18-.73-.12-.78-.89,0-.16,0-.31-.02-.47-.42.79-.73,1.19-.99,1.28,0,.01-.01.01-.01.01-.37.14-.62-.37-.87-1.21-.03-.1-.06-.21-.09-.33-.07-.23-.13-.48-.2-.74.02-.68.09-1.65-.44-2.03-.46-.33-1.07-.27-1.48-.2,1.05-.99,2.54-1.11,3.92-.91,1.49-.66.94-3.35,3.16-2.87-.31,1-.88,2.2,0,3Z"/>
      <path class="cls-107" d="M27.1,36.08c-.64.83-1.24,1.29-1.78,1.39-.42.08-.8-.06-1.15-.41l1.03-5.34c.13-.7.02-1.57.41-2.1.17-.22.52-.3.94-.25,1,2.1,1.74,4.61.55,6.71Z"/>
      <path class="cls-28" d="M35.75,37.07c-1.38-.2-2.87-.08-3.92.91l-1.78.18c-.02-.94.25-1.71.91-2.89-1.85-.22-2.68.59-3.86.81,1.19-2.1.45-4.61-.55-6.71l-.54-4.04c.47-.87,1.2-.47,1.91-.28,2.38.63,4.96.43,7.1-.79-2.09,1.83-1.87,2.55.87,2.73l.02,5.21c0,1.63.14,3.26-.16,4.87Z"/>
      <path class="cls-40" d="M30.96,35.27c-.66,1.18-.93,1.95-.91,2.89-.15.19-.41.36-.72.49-.08.04-.17.08-.27.11h0c-.6.21-1.34.31-1.95.22h-.01c-.41-.05-.76-.19-.98-.44-.05-.11-.12-.22-.2-.34-.47-.2-.67-.44-.59-.73.09-.38.68-.85,1.78-1.39,1.18-.22,2.01-1.03,3.86-.81Z"/>
      <path class="cls-38" d="M20.16,34.85c.4.49.71,1.57.91,3.24,1.17-.08,2.07-.47,3.1-1.03.87-.47,1.97-.8,2.93-.98l-1.2,2.12c.82,1.2.27,1.6-1.03.96.64,2.43,0,3.06-1.94,1.9-.83.14-1.1-.18-.81-.96-1.07-.04-2.14.66-3.22,2.11.99,2.01.69,3.44-.89,4.31,1.85,1.9,1.69,2.23-.94,1.93,2.03.6.84,2.83-1.01,2.78-1.21.02-1.38-1-1.39-2.09.64-3.33,3.12-6.5,2.05-9.93-.53-4.07-.47-8.07.18-12,.29-.66.63-.64,1,0,1.85,1.15,3.07,5.48,2.25,7.65Z"/>
      <path class="cls-106" d="M16.73,39.21c-.53-1.72-.82-3.02-.82-5v-6c-1.28-1.26-.72-1.57,1-1,.1,4,.17,8.01-.18,12Z"/>
      <path class="cls-59" d="M38.14,41.32c-1.53,1.55-1.28,3.81-.99,5.84-.38.39-.8.74-1.24,1.05-1.3.83-1.86.32-1-1v-1c-.56-1.53-.44-4.09,1-5,.65.3,1.52-.05,2.23.11Z"/>
      <path class="cls-101" d="M34.91,47.21c.52,0,.89.53,1,1l-1.07,1.17c-2.97-.16-5.95-.2-8.93-.17l-.5-1.26,7.5-.74h2Z"/>
      <path class="cls-110" d="M24.91,21.21l.36,3.88c-.37.66-.98.86-1.36.12-2.7-.97-3.03-3.3-1-7,1.39-1.06,2.06-.06,2,3Z"/>
      <path class="cls-106" d="M20.91,27.21c1.28.82,1.7,2.49,1.27,5-.09.65-.02,1.36-.19,2-.57,1.34-1.18,1.55-1.82.65-1.57-2.37-2.84-4.78-2.25-7.65.19-3.05,1.72-2.31,3,0Z"/>
      <path class="cls-80" d="M23.91,25.21h-1c-.42.71-1.09,1.04-2,1-2.21,1.5-3.67-4.1-1-4.08-.61-1.15.73-3.11,1.87-3.8l1.13-.13c-.24,2.39.32,4.72,1,7Z"/>
      <path class="cls-15" d="M22.91,25.21c-.33,2.31.86,5.15-.73,7-.74-1.58-1.36-3.24-1.27-5-1.25-.19-1.24-.82,0-1-.09-.33-.17-1.65.46-1.91.38-.16.97.96,1.54.91Z"/>
      <path class="cls-27" d="M21.07,38.09c-1.24.08-1.27-.49-1.15-1.37.09-.65.36-1.46.24-1.87.57-.32,1.18-.55,1.82-.65-.34,1.29-.72,2.57-.91,3.89Z"/>
      <path class="cls-73" d="M29.78,39.4c-.89,2.45-1,5.07-1.01,7.66.13.97-2.22.96-2.86.14-.55-.72-1.59-1.06-3.13-1.01-1.84.57-2.01-.38-.85-1.93-2.16-.67-.78-2.64,1.01-3.21.41-.79,1.38-1.24,1.94-1.9,1.74-.31,1.24.97.35.96-.26,0,3.54-2.72,4.55-.72Z"/>
      <path class="cls-39" d="M25.91,47.21l2.86-.14,4.14.14c-1.26,2.02-7.53.09-7,2h-1.19c-1.26.71-2.63.63-2.81-1-1.41-1.6-.84-2.16,1-1,.78-1.14,2.95-2.03,3,0Z"/>
      <path class="cls-8" d="M33.67,45.07c-1.02.07-2.1.31-3.27-.14.42-2.07,1.9-3.06,3.29-3.79,1.8.49,1.59,3.26-.02,3.93Z"/>
      <path class="cls-87" d="M35.91,41.21c.12,1.73-.08,3.5-1,5-.44-.35-.85-.73-1.24-1.13.16-1.31.16-2.62.02-3.93l.05-.93,2.16.99Z"/>
      <path class="cls-93" d="M30.05,38.17c0,.38-.15.88-.28,1.24-1.7-.46-3.29.48-4.42,1.81-.85-1.14-.45-1.69-.48-2.05.28-.34.82-.58,1.03-.96l4.15-.04Z"/>
      <path class="cls-47" d="M19.74,46.32c1.57-.27,2.33.2,2.17,1.88.91.08,2.91-.34,2.81,1.01-.53,1.18-1.55,2.07-3.05,1.62-.76-.23-1.66-.83-2.43-1.43-1.34,1.38-2.29.95-2.16-.96.24-.67.59-1.31.94-1.93.34-1.78,1.06-1.84,1.72-.19Z"/>
      <path class="cls-48" d="M19.23,49.4c.93.93-.47,1.37-.85,1.95-.77,1.2-1.41-.13-2.32-.12l1.01-2.78c.83.05,1.52.45,2.16.96Z"/>
      <path class="cls-106" d="M22.94,41.06c-.52.99-.63,2.17-1.01,3.21.58,1.89-.49,3.29-2.18,2.05-.4.37-1.23.13-1.72.19-.32-1.23-1.22-4.67.89-4.31,1.12-1.8,2.19-2.51,3.22-2.11.42.18.6.59.81.96Z"/>
      <path class="cls-33" d="M22.12,40.1c-1.73.34-1.25,3.22-3.22,2.11-.06-.92.25-1.77.92-2.55.75-.86,1.63-.56,2.29.44Z"/>
      <path class="cls-27" d="M18.78,22.07c-.08-1.94.68-1.9,1.13.06-.39,1.29-.14,3.28,1,4.08.65.25.66.75,0,1h-3c.07-.32,0-.68,0-1-.9-.1-.85-.45,0-1-1.53-.4-2.37-.79-1-2v-1l1.87-.13Z"/>
      <path class="cls-84" d="M25.91,47.21h-3c-.9-.17-.94-.51-.13-1.01,1.68-.52,2.69-1.72,3.51-4.09.53.73,1.53,2.21,1.03,2.89-.53.73-1.31,1.26-1.4,2.2Z"/>
      <path class="cls-51" d="M22.78,46.2l.13,1.01c-.48.15-.89.49-1,1-1.1-.1-2.28-.62-2.17-1.88l2.18-2.05c.38.6.63,1.26.85,1.93Z"/>
    </g>
    <g id="dress">
      <path class="cls-10" d="M33.1,48.58c-2.39,0-10.63-.96-12.83-.29s-5.04.95-6.21,1.96c-1.17,1.01-3.27,5.8-3.56,6.66s-2.49,2.78-2.3,4.88.67,4.31,1.63,4.4,4.31-1.72,5.84-1.05,6.03,4.6,7.37,4.69,3.35.77,6.61.1c3.26-.67,4.79-2.97,6.61-3.64s1.65.56,3.51,0c1.85-.57,3.39-.76,3.58-1.62s-.1-3.35-.38-4.21-2.39-8.33-2.78-9-7.09-2.87-7.09-2.87Z"/>
      <path class="cls-23" d="M38.96,51.06l.98,2.01c.35-.24.67-.41.93-.34.91.27,3.52,7.9,3.28,9.62l-1.24.86c-.25.95-.59.93-1,0-2.2-.46-5.74-7.58-6.35-9.86l1.13-2.19c-.01-2.75,1.47-2.61,2.28-.09Z"/>
      <path class="cls-91" d="M16.06,51.23c.83-.82,1.85-1.38,3.17-1.83,1.85.02,3.67-.04,5.48-.18-.16-1.51.56-1.47,1.19-.01,3.43-1.04,6.4-.99,8.93.17.17.94,1.15,1.42,1.85,1.78,1.86,3.78,4.51,7.83,5.23,12.05.7.78-.83,3.74-2.14,3.08-1.82,1.59-2.46,1.89-3.22-.82-.97,1.47-1.88,2.35-2.76,2.63.17,1.65-.53,2.01-1.9.95.15,3.49-6.84,3.9-6.89.32-2.86.38-4.6-.02-5.23-1.21-.14.87-.39.84-.75-.02-2.13-.23-2.33-1.24-1.27-2.96-.94.29-1.21-.02-.81-.92-.93-.67-.6-1.35,1.01-2.06-1.53-.36-3.33-.96-3.96-2.4l-.9-1.12c2.33-2.34,2.94-3.48,1.81-3.41-2.55-.39-3.05-3.81-.84-5.03,0-.44.54-.74.62-1.11,1.04.12,1.52,1.05,1.39,2.09Z"/>
      <path class="cls-10" d="M13.98,59.81l.84,1.19c-1.7.9-2.67,2.3-2.91,4.2-1.4,2.44-2.54,1.68-2-1-3.96-1.46-.61-7.09,3.05-6.96l1.94-1.97c1-1.01-.31-3.38,2.98-3.08-.52,2.75-2.61,5.07-3.9,7.61Z"/>
      <path class="cls-114" d="M17.94,62.21l-1.19,1.23c-1.78.08-3.39,1-4.84,2.77-.87-.27-.85-.61,0-1-.92-2.63,1.24-3.77,2.07-5.4.99-.15,2.02-.07,2.72.21,1,.4,1.56,1.27,1.24,2.19Z"/>
    </g>
    <g id="head">
      <path class="cls-97" d="M37.87,8.33c-.03.14-.08.91-.08,1.15s.1,1.24.08,1.56,0,1.53-.05,1.69-.19.4-.32.37-.32-.14-.48-.1-.06.93-.19,1.29-.37,1.85-.61,2.07c-.12.11-.31.39-.48.64-.2.31-.58.45-.94.36-.5-.13-1.15-.31-1.35-.39-.34-.14-1.04.73-1.17,1.2s2.35,2.92,2.13,3.46-1.76,1.98-3.1,2.01-6.29-.22-6.77-1.21-2.49-2.23-2.55-3.32.29-3.1,1.12-3.99,1.47-1.85,1.72-3.16.54-4.98,1.37-5.87,1.47-2.97,3.51-2.71c2.04.26,4.88-.16,5.84.54s2.46,1.05,2.49,1.72-.18,2.68-.18,2.68Z"/>
      <path class="cls-74" d="M37.91,9.21c-.04.31.1.7,0,1l-2,1c-.3.58-.63.57-1,0-1.49.03-1.29-1.45,0-2-.13-1.48.76-2.05,2.2-2.08.21.58.9,1.34.8,2.08Z"/>
      <path class="cls-94" d="M35.02,24.26c-2.14,1.22-4.72,1.42-7.1.79-1.89-1.95-.06-4.19,2.12-4.7.5-.12,1.01-.15,1.5-.06.4-.47.9-.58,1.4-.45.52.13,1.04.52,1.41,1.02.07.09.13.17.19.26.24.38.4.81.43,1.21-.09.59.03,1.32.05,1.93Z"/>
      <path class="cls-26" d="M36.11,20.98c-.26.49-.94.86-1.14,1.35-1.07-.8-2.2-1.52-3.43-2.04-1.72,1.15-2.16.43-.63-1.09v-1c.05-2.15,3.82,2.35,5.2,2.78Z"/>
      <path class="cls-65" d="M37.52,7.07c-.02.28.66,1.32.57,1.66-.05.18-1.22-.3-1.31-.12-.31.59-1.18.64-1.87.59-.27,1.71-.99,1.68-1.37-.1-1.33.08-.85-5.28.42-5.85,1.89.48,3.74,1.79,3.56,3.81Z"/>
      <path class="cls-74" d="M31.73,15.07c1.29-.88,3-.65,2.18,1.14v1l-.75-.13c-.42-.08-.86.03-1.2.3l-1.05.83c-1.61-1-2.27-2.01-1.99-3.05-.49-2.96,1.63-1.4,2.81-.09Z"/>
      <path class="cls-34" d="M35.91,11.21l-1,2c-.5,1.97-1.68,2.37-3.15.93-1.73.24-1.77-.34-.12-1.74.3-.89.72-.96,1.27-.19.47-1.44.96-2.46,2-1h1Z"/>
      <path class="cls-104" d="M34.91,14.21c0,.76-.41,1.5-1,2l-2.18-1.14c-.87-.24-.84-.55.03-.93,1.11-.08,2.2-.34,3.15-.93v1Z"/>
      <path class="cls-74" d="M34.91,9.24v2.59l-3.15,1.29c-1.69-1.49-1.93-4.27,1-4l2.16.13Z"/>
      <path class="cls-3" d="M31.54,20.29c-.49,2.13-2.91,2.77-3.62,4.76-.71-.19-1.44-.59-1.91.28-.37.81-.62.7-.74-.25-.36-.07-.66-.37-.87-.78-.5-1.01-.47-2.69.51-3.1-.33-.61-.58-1.16-.75-1.63-.28-.78-.35-1.37-.21-1.77.17-.48.62-.7,1.37-.66l.59.06s.03-.08.06-.12c.3-.7.62-.66.94.12.46-1.28,1.28-1.4,2.07-.93h0c.52.33,1.03.91,1.4,1.58.24.43.42.89.52,1.35,0,.43.29.83.63,1.09Z"/>
      <path class="cls-35" d="M28.92,15.15c1.05.72,1.99,1.76,1.99,3.05v1c-.86-1.43-2.33-2.27-4-2-2.54,0-1.71-1.82,0-3-.67-.29-.66-.63,0-1,1.41-2.14,2.47.14,2.01,1.94Z"/>
      <path class="cls-34" d="M31.76,14.14l-.04.92-2.81.09-2-1.95c-.32-.47-.53-.98-.62-1.51-.13-.69-.07-1.41.19-2.07-.02.47,0,.53.34.17.03-.03.07-.08.11-.12.37-.4.67-.78,1.03-1.14.35-.02.7.05,1.05.18.4.15.79.39,1.16.67.32,1.13.81,2.13,1.47,3.02l.12,1.74Z"/>
      <path class="cls-12" d="M23.53,16.95c.92-1.15,2.49-1.69,2.38.25-.77,1.19-1.02,2.6-1,4-.1-1.08-1.17-2.22-2-3-.21,1.75-.53,1.81-1.13.13-.06-.36.14-.76.13-1.13l1.62-.25Z"/>
      <path class="cls-95" d="M26.91,14.21v3c-.32.05-.68.03-1,0l-2.38-.25c-.05-.25.07-.59.06-.83.83-.57,1.62-1.19,2.31-1.92.28-.87.62-.86,1,0Z"/>
      <path class="cls-57" d="M26.91,13.2v1h-1l-.09-1.4-.15-2.49c-.04-.66.4-.88.82-1.13,0,.18,0,.32,0,.44-.02.47,0,.53.34.17.01.33.03.67.04,1,.03.8.05,1.61.05,2.41Z"/>
      <path class="cls-50" d="M31.64,12.4c-.41.26-.71.79-2,.9-.38-1.52.25-2.69.53-3.91h.81c.93.73.59,1.96.66,3.01Z"/>
      <path class="cls-97" d="M36.91,14.21c-1,1.55-1.68,1.95-2,0-.8-.29-.79-.62,0-1-1.62-.51-.25-1.43,1-2-.94-1.28.97-1.92,2-1-.19.55-.59,1.11-.7,1.7-.15.78,0,1.59-.3,2.3Z"/>
      <path class="cls-34" d="M36.91,14.21c-.29.67-.6,1.33-.8,2.01-.28.94-1.32,1.43-2.2.99h0c-.87-.28-.86-.62,0-1-1.46-1.04-.61-1.98,1-2h2Z"/>
      <g id="eye">
        <g>
          <path class="cls-28" d="M36.5,11.36c-.09-.13-.22-.22-.45-.23s-.75.2-.75.31.53.13.69.21.61.12.61.08-.11-.37-.11-.37Z"/>
          <path d="M36.54,11.49c-.2-.5-.91-.36-1.21-.05.12.09,1.13.34,1.28.29,0,0-.07-.24-.07-.24h0ZM36.48,11.29c.11.38.26.54-.26.43-.27-.12-.78-.1-.94-.28.22-.32.9-.49,1.19-.15h0Z"/>
        </g>
        <ellipse cx="36.31" cy="11.51" rx=".19" ry=".16"/>
        <path class="cls-28" d="M36.47,11.51s-.05.09-.11.09c-.03,0-.06-.01-.08-.03.06,0,.11-.04.11-.08,0-.03-.01-.05-.03-.06h0c.06,0,.11.04.11.09Z"/>
        <path class="cls-55" d="M36.82,11.15c-.48-.32-.97-.29-1.48-.17.43-.28,1.26-.4,1.48.17h0Z"/>
      </g>
      <g id="hair">
        <path class="cls-70" d="M39.04,5.41c.39,1.03-.26,3.56-1.09,4.05-1.05.74-1.3.04-.73-2.11-1.94-.04-2.71-2.28-3.04-3.95-2.55-.4-3.39-1.16-2.53-2.28l.61-.47c.16-.88.44-.87.84-.02,2.22,1.24,4.97,2.24,5.94,4.78Z"/>
        <path class="cls-70" d="M31.62,1.32l2.5,2.26c-.36,2.55-1.11,2.35-2.14.03-.53,2.3-4.23,3.27-5.8,1.49-2.01.48-2.26-.33-.89-1.82.4-1.07.53-2.35,1.86-2.64l4.48.68Z"/>
        <path class="cls-65" d="M26.15,4.95c2.17,1.62,1.54,2.57-1.12,2.15,1.3,1.12.4,2.42-1.08,3-.1.88-.32.83-.66-.06-1.35,1.4-1.95.89-1.22-.96.45-1.2.47-2.55.81-3.78.27-.96,1.98-1.35,2.37-2.19.52.48.81,1.14.9,1.84Z"/>
        <path class="cls-60" d="M32.01,3.44c2.11.78,1.57,6.44-.99,5.99-.19.88-.46.85-.81-.01-1.53,1.65-2.31,1.46-3.37-.51-1.29.26-1.67-.54-1.81-1.81.36-.64.63-1.63,1.12-2.15,1.74-1.25,3.75-1.8,5.86-1.51Z"/>
        <path class="cls-65" d="M34.17,3.41l-.59,5.83c-.63.9-3.1,1.4-2.57.19,1.84-1.61,1.59-3.79.99-5.99.7.09,1.46-.28,2.17-.03Z"/>
        <path class="cls-70" d="M28.02,8.5c-.37.35-.68.72-1.06,1.11-.04.04-.08.09-.11.12-.35.35-.37.29-.33-.18.01-.12.02-.26.02-.44.1-.06.21-.12.31-.19.39-.28.78-.42,1.18-.41Z"/>
        <path class="cls-65" d="M23.29,10.04c2.06.72,1.6,4.37.14,5.92.87.22.81.49-.09.82.65,1.64-.4,1.08-1.63.21-.54,1.02-2.58,1.1-2.4-.44-.08-2.6,1.51-4.87,1.89-7.45h.86s1.22.95,1.22.95Z"/>
        <path class="cls-65" d="M25.68,10.21c1.02.34.86,2.96.12,3.89.79,2.07-.55,2.61-2.37,1.85l-.14-5.92.66.06c.74-1.65,1.43-1.73,1.73.11Z"/>
        <path class="cls-60" d="M26.84,8.91c-.17.9-.55,1.33-1.15,1.3l-1.73-.11c.32-1,.55-2.08,1.08-3,.38-.03.88-.08,1.4.13.62.24.4,1.08.41,1.68Z"/>
        <path class="cls-65" d="M31.07,6.19c-1.69.5-4.2,2.8-4.84,4s-2.37,3.19-2.57,4.26-.5,3.22.31,3.27c.81.05,2.85-.68,3.33-1.53s2.77-3.84,3.1-4.51.42-3.48.7-4.15-.03-1.34-.03-1.34Z"/>
        <path class="cls-16" d="M38.26,8.32c-.25.3-.68-.17-.68-.17-.09-.21-.44-.65-.56-.39s-.67,1.34-1.24,1.12c-.56-.2-1.86-1-2.22-.85-.36.16-1.47.77-1.71.95s-1.21-.77-1.76-.7c-.34.05-.7.25-1.02.53-.2.17-.38.39-.53.63-.33.53-1.11.83-1.65,1.37-.11.11-.2.21-.29.34-.11.16-.21.34-.3.54-.18.35-.34.73-.5,1.08-.16.37-.34.71-.53.94-.49.55-1.43,1.66-1.69,2.01-.28.35-.71.45-1.02,1.3-.3.84-.93,1.82-1.42,1.81s-.89-.31-.69-.68c.2-.38.44-1.38.62-1.76.18-.37,1.76-.78,1.85-1.58.09-.8-.13-2.68.08-3.22.2-.54,1.5-1.95,1.24-.96s-.52,2.11.07,1.62c.58-.51,1.34-.53,1.3-1.34-.06-.8-.6-3.05.15-3.62.76-.57,1.76-1.75,1.57-1-.19.76.69.71,1.01-.18.3-.89.31-2.39.54-2.35.24.03,1.23-.3.88.76-.34,1.05-.65,2.72-1.3,3.09-.64.36-1.79.46-1.85,1.48,0,.05,0,.09-.01.13,0,.18,0,.32-.02.43-.03.46-.02.52.33.18.03-.03.07-.08.11-.12.38-.38.69-.75,1.05-1.1.2-.19.43-.37.68-.55.73-.5,1.21-.75,1.78-.56.56.18.79.55,1.33.02.53-.54,1.72.16,1.57-1.09-.15-1.26.24-1.75-.73-2.28-.98-.52-2.03-.98-1.75-1.59.28-.62.56-1.07,1.75-.61,1.19.46,2.95.18,3.12,1.08s1.07-.04,1.63,1.02c.55,1.07.95.77.91,1.9s.2,2.08-.05,2.37Z"/>
        <path class="cls-16" d="M33.17,7.78c-.72.72-1.27,2.5-2.01,3.15s-1.45,2.09-2.23,2.47-2.68,2.36-3.02,2.47-.22.09.34-.8,2.35-3.47,2.44-4.67,1.83-3.42,2.61-3.25,1.87.63,1.87.63Z"/>
        <path class="cls-70" d="M23.28,14.98c.08.55-2.6,3.28-2.24,3.84s1.09,2.52,2.11,2.1,1.91-.76,1.95-1.86,2.24-1.13,2.47-1.79,1.32-2.67,1.46-3.24,1.22-1.57,2.02-1.78,1.89-1.43,1.67-2.32-1.4-2.03-1.32-2.39-.52,3.15-1.16,3.68-2.51,2.3-3.29,3.4-2.35,3.19-2.79,2.79-.19-2.33-.28-2.57-.6.15-.6.15Z"/>
        <path class="cls-55" d="M32.26.66c.29.61-.11.78-.61.47-1.51-.1-3.53.58-4.53-.69,1.71-.37,3.47-.3,5.14.22Z"/>
      </g>
      <g id="lips">
        <path class="cls-63" d="M36.62,14.97c-.43.05-.75.2-1.12.29-.02,0-.04.01-.04.03,0,.02.02.03.04.04.14.06.28.12.41.18.13.06.42.13.58.07s.56-.66.13-.61Z"/>
      </g>
    </g>
    <g id="front-arm">
      <path class="cls-98" d="M4.65,24.43c.76,1.05.23,1.76-1.58,2.11l.61,1.09c.91.12.96.45.18.98-.28.43-.91.82-1.9,1.18-.56.03-1.2.33-1.74.27-.32-1.15-.43-3.62.71-4.25,1-.55,2.54-2.33,3.72-1.38Z"/>
      <path class="cls-64" d="M3.86,28.61c.54-1.21,3.31-1.28,3.13.45l-1.97.36c-1.01.18-2.03.32-3.06.38-.23-.97,1.25-1.01,1.9-1.18Z"/>
      <path class="cls-4" d="M10.03,23.42c2.11,1.99.64,3.27-4.38,3.84-.06.86-1.31.94-1.97.36-.46.35-2.46.86-2.36-.5.14-2,2.36-2.24,3.33-2.7.7-.33,1.53-1.25,2.17-1.51,1.37-.18,2.44-.01,3.21.5Z"/>
      <path class="cls-86" d="M15.78,21.53c-.62,1.4-2.21,1.98-4.77,1.72-.12.91-.45.96-.98.18-1.1.33-2.47.57-3.21-.5l8.69-3.55c2.51-.6,2.96,2.59.28,2.16Z"/>
      <path class="cls-81" d="M17.08,17.96c1.21-1.08,1.69-.62,1.27.9,2.17-.7,2.22,1.85.38,2.84.46,2.73-.17,2.54-1.81.46-1.05,1.52-1.72,1.17-1.13-.65.66-.24.87-.78.47-1.27l-.74-.9c.58-.24,1.07-.94,1.57-1.4Z"/>
      <path class="cls-22" d="M18.51,16.42c.81-.04,1.69.2,2.44-.06.89.26.9.64.08,1.13.1,1.95-1.17,2.7-2.67,1.37-.47.28-1.27-.45-1.27-.9.48-.45.5-1.49,1.43-1.54Z"/>
      <path class="cls-76" d="M5.65,27.27c2.57-1.18,4.27-1.15,5.1.09.91.12.96.45.18.98l-3.94.71c-.67-1.1-2.08-.73-3.13-.45l-.18-.98,1.97-.36Z"/>
      <path class="cls-53" d="M18.61,25.93c.93.08.97.42.18.98l-.98.18-.81,1.16-.98.18c-1.24-1.5-3.46-.39-5.1-.09l-.18-.98c.12-.91.45-.96.98-.18,1.58-1.15,4.91-1.69,6.89-1.25Z"/>
      <path class="cls-72" d="M12.18,24.05c2.32.7,1.19,1.31-.63,2.15.91.12.96.45.18.98l-.98.18c-1.68.31-3.4.04-5.1-.09-.34-1.84,5.32-.58,4.38-3.84l.98-.18c1.13-1.1,1.78-.69,1.16.81Z"/>
      <path class="cls-66" d="M15.78,21.53l1.13.65c.91.12.96.45.18.98.53,2-4.35,2.68-4.92.89-.46-.05-.83-.53-1.16-.81.83-1.78,3.06-1.48,4.77-1.72Z"/>
      <path class="cls-41" d="M21.02,17.49c.24.66.25,1.34.44,2.2.22.97-1.34,1.24-1.61,1.87l-1.13.15-.38-2.84c.86-.51,1.69-1.08,2.67-1.37Z"/>
      <path class="cls-6" d="M18.44,24.95c.09.32.13.66.18.98l-6.89,1.25-.18-.98c.99-1.53,5.25-2.11,6.89-1.25Z"/>
      <path class="cls-62" d="M17.1,23.16c.64.42,1.12,1.05,1.34,1.79l-6.89,1.25.63-2.15c1.74.19,3.73.6,4.92-.89Z"/>
    </g>
  </g>
</svg>