<?xml version="1.0" encoding="UTF-8"?>
<svg id="Enemy" xmlns="http://www.w3.org/2000/svg" viewBox="0 0 99.86 43.48">
  <defs>
    <style>
      .cls-1 {
        fill: #d7b698;
      }

      .cls-2 {
        fill: #191211;
      }

      .cls-3 {
        fill: #525252;
      }

      .cls-4 {
        fill: #f4ae7c;
      }

      .cls-5 {
        fill: #dcac88;
      }

      .cls-6 {
        fill: #fbebbd;
      }

      .cls-7 {
        fill: #342525;
      }

      .cls-8 {
        fill: #b97d5b;
      }

      .cls-9 {
        fill: #3b3a3b;
      }

      .cls-10 {
        fill: #181716;
      }

      .cls-11 {
        fill: #474038;
      }

      .cls-12 {
        fill: #634432;
      }

      .cls-13 {
        fill: #45352f;
      }

      .cls-14 {
        fill: #3c2d26;
      }

      .cls-15 {
        fill: #21282a;
      }

      .cls-16 {
        fill: #cbaf8f;
      }

      .cls-17 {
        fill: #3c2b26;
      }

      .cls-18 {
        fill: #121212;
      }

      .cls-19 {
        fill: #41332d;
      }

      .cls-20 {
        fill: #4a4c4d;
      }

      .cls-21 {
        fill: #b8a394;
      }

      .cls-22 {
        fill: #6c6153;
      }

      .cls-23 {
        fill: #151414;
      }

      .cls-24 {
        fill: #2d2d2d;
      }

      .cls-25 {
        fill: #1d1917;
      }

      .cls-26 {
        fill: #46250d;
      }

      .cls-27 {
        fill: #222121;
      }

      .cls-28 {
        fill: #fff;
      }

      .cls-29 {
        fill: #483835;
      }

      .cls-30 {
        fill: #412e2d;
      }

      .cls-31 {
        fill: #725f56;
      }

      .cls-32 {
        fill: #a48e76;
      }

      .cls-33 {
        fill: #444445;
      }

      .cls-34 {
        fill: #333434;
      }

      .cls-35 {
        fill: #ad7f60;
      }

      .cls-36 {
        fill: #be8766;
      }

      .cls-37 {
        fill: #1c1512;
      }

      .cls-38 {
        fill: #53423c;
      }

      .cls-39 {
        fill: #16100d;
      }

      .cls-40 {
        fill: #c5997d;
      }

      .cls-41 {
        fill: #8d776d;
      }

      .cls-42 {
        fill: #6d665c;
      }

      .cls-43 {
        fill: #332b22;
      }

      .cls-44 {
        fill: #232020;
      }

      .cls-45 {
        fill: #545352;
      }

      .cls-46 {
        fill: #221916;
      }

      .cls-47 {
        fill: #25201c;
      }

      .cls-48 {
        fill: #2d2116;
      }

      .cls-49 {
        fill: #504f4e;
      }

      .cls-50 {
        fill: #23201f;
      }

      .cls-51 {
        fill: #cfad87;
      }

      .cls-52 {
        fill: #f6cba4;
      }

      .cls-53 {
        fill: #7e6c58;
      }

      .cls-54 {
        fill: #debba5;
      }

      .cls-55 {
        fill: #1a1110;
      }

      .cls-56 {
        fill: #5c5444;
      }

      .cls-57 {
        fill: #3b3b3b;
      }

      .cls-58 {
        fill: #282828;
      }

      .cls-59 {
        fill: #ae875f;
      }

      .cls-60 {
        fill: #4b4e4e;
      }

      .cls-61 {
        fill: #48474b;
      }

      .cls-62 {
        fill: #c2a083;
      }

      .cls-63 {
        fill: #1d1719;
      }

      .cls-64 {
        fill: #e1b997;
      }

      .cls-65 {
        fill: #787674;
      }

      .cls-66 {
        fill: #717171;
      }

      .cls-67 {
        fill: #bda4a1;
      }

      .cls-68 {
        fill: #1d1d1d;
      }

      .cls-69 {
        fill: #e19e71;
      }

      .cls-70 {
        fill: #7f6248;
      }

      .cls-71 {
        fill: #1b1b1b;
      }

      .cls-72 {
        fill: #2b2525;
      }

      .cls-73 {
        fill: #554944;
      }

      .cls-74 {
        fill: #25272c;
      }

      .cls-75 {
        fill: #37312f;
      }

      .cls-76 {
        fill: #b88a76;
      }

      .cls-77 {
        fill: #332420;
      }

      .cls-78 {
        fill: #fcb17f;
      }

      .cls-79 {
        fill: #f8ba88;
      }

      .cls-80 {
        fill: #b3b3b3;
      }

      .cls-81 {
        fill: #190d0d;
      }

      .cls-82 {
        fill: #554239;
      }

      .cls-83 {
        fill: #bf9b78;
      }

      .cls-84 {
        fill: #523f3a;
      }

      .cls-85 {
        fill: #7f6e60;
      }

      .cls-86 {
        fill: #2d2421;
      }

      .cls-87 {
        fill: #292929;
      }

      .cls-88 {
        fill: #1e1616;
      }

      .cls-89 {
        fill: #daad8c;
      }

      .cls-90 {
        fill: #bb7c59;
      }

      .cls-91 {
        fill: #906245;
      }

      .cls-92 {
        fill: #100a0a;
      }

      .cls-93 {
        fill: #ac8675;
      }

      .cls-94 {
        fill: #b99b7c;
      }

      .cls-95 {
        fill: #2f302e;
      }

      .cls-96 {
        fill: #070707;
      }

      .cls-97 {
        fill: #24160b;
      }

      .cls-98 {
        fill: #8e7e6d;
      }

      .cls-99 {
        fill: #9f806b;
      }

      .cls-100 {
        fill: #1b1c19;
      }

      .cls-101 {
        fill: #d19b7f;
      }

      .cls-102 {
        fill: #646258;
      }

      .cls-103 {
        fill: #201d1b;
      }

      .cls-104 {
        fill: #393533;
      }

      .cls-105 {
        fill: #c89f86;
      }

      .cls-106 {
        fill: #82573e;
      }

      .cls-107 {
        fill: #cba387;
      }

      .cls-108 {
        fill: #43271b;
      }

      .cls-109 {
        fill: #161616;
      }

      .cls-110 {
        fill: #574b3d;
      }

      .cls-111 {
        fill: #fed1a8;
      }
    </style>
  </defs>
  <g id="BadGirl_defeat">
    <g>
      <g>
        <path class="cls-109" d="M98.8,14.15c.15-1.53-4.35-4.17-4.65-4.77s-1.2-1.98-1.67-1.82-2.15.57-2.53,1.08-.03,2.86.16,2.85h.19s5.04,3.32,5.68,3.38,2.72.31,2.82-.73Z"/>
        <g>
          <path class="cls-7" d="M70.06,17.82c-.95.09-4.67.54-6.27.89-1.59.34-8.75,1.96-9.81,2.55-1.07.59-6.44,3.1-6.62,4.43s2.33,3.38,2.84,4.04,1.03,1.89,2.51,1.3c1.48-.59,10.79-5.27,12.78-5.92,2-.66,6.05-3.99,6.02-4.64s-1.45-2.65-1.45-2.65Z"/>
          <g>
            <path class="cls-17" d="M50.93,23.94c-.14-.15-.26-.31-.38-.47-1.15-1.78-.4-2.14,1.5-.93,1.7-.52,3.87-.69,5.1.34,4.24-1.46,6.74-1.18,7.5.84.36.61.14.74-.62.42-.79.82-1.7,1.73-2.75,1.02-1.44.22-2.83.39-4.16.51-1.38.74-2.45.87-3.2.38-2-.08-4.12-.38-3-2.11Z"/>
            <path class="cls-38" d="M49.04,27.05c.01-.3.33-.64.28-.93.6-1.02,2.14-1.05,4.61-.07,1.01-.43,2.14-.57,3.2-.38-1.19,2.72-8.49,5.47-8.1,1.38Z"/>
            <path class="cls-13" d="M46.94,27.39c.7-.19,1.39-.22,2.1-.34.6,1.04,1.86,1.94,3.64,1.26,1.86-.71,3.23-1.69,4.45-2.65,1.43-.66,1.78-.29.58.75.01.88-1.09,1.87-3.31,2.97-.58.63-1.01.58-1.28-.15-1.1-.12-2.07.35-3.5.99-.55-1.31-1.47-2.21-2.67-2.84Z"/>
            <path class="cls-13" d="M50.93,23.94c.8.89,1.77,1.66,3,2.11-1.5.63-3.03-.03-4.61.07-.15-.96.57-1.75,1.61-2.18Z"/>
            <path class="cls-55" d="M52.91,21.85c.44-.35,1.07-.45,1.65-.42,1.08.06,2.13.24,3.15.51,2.78-.25,2.41,1.09-.56.93-1.72,0-3.51.19-5.1-.34l.86-.68Z"/>
            <path class="cls-86" d="M57.71,21.94c1.22-.1,2.54-.7,3.77-.66.8-2.32,3.72-2.29,4.8-.1.54.15.09.69-1.37,1.62.77-.28,1-.07.73.61-.05.84-.38.93-.98.29-1.15-1.78-4.81-.09-7.5-.84.35-.21,1.54-.58.56-.93Z"/>
            <path class="cls-30" d="M64.04,24.13l.62-.42c.35.12.73-.19.98-.29,3.67,1.03,1.76,3.31-1.27,2.64-.44.7-.87.61-1.28-.15-1.05-.79-.22-1.3.95-1.78Z"/>
            <path class="cls-84" d="M61.29,25.15c.49-.71,1.92-.91,2.75-1.02-.36.54-.43,1.31-.95,1.78.96.89-.29,1.42-1.53.94-2.35-.11-2.43-.68-.27-1.7Z"/>
            <path class="cls-82" d="M61.29,25.15c.09,1.5-2.68,2.32-3.58,1.26l-.58-.75c1.24-.72,3.01-1.49,4.16-.51Z"/>
            <path class="cls-46" d="M52.35,29.7c.18-.21.56-.28.77-.47.43.05.85.13,1.28.15,1.75-1.41,5.09-3.47,7.16-2.53.49-.17,1.17-.61,1.53-.94.42.09.85.14,1.28.15.85.23.77.59-.09,1.06l-10.58,4.2c-.36.01-.72.04-1.08.09l-.27-1.7Z"/>
            <path class="cls-7" d="M64.37,26.06c.58-.41,1.34-.67,1.87-1.18s-.19-1.1-.6-1.47c.84-.48,1.95-.54,3.33-.18,0,.91-.24,1.83-.03,2.71-1.46.59-3.07,1.34-4.65,1.17.06-.35.09-.71.09-1.06Z"/>
            <path class="cls-14" d="M57.71,26.41c.64-.66,2.89-.25,3.58-1.26.16.56.22,1.13.27,1.7l-7.16,2.53c-.19-1.4,2.17-1.77,3.31-2.97Z"/>
          </g>
          <g>
            <path class="cls-92" d="M66.28,21.19c-.24-2.37,3.82-5.1,5.71-2.88,1.59-.71,1.9-.19.6.94.73-.27.82-.08.35.53.32,1.1.9,2.05,1.73,2.86,1.5-1.2,3.25-2.25,5.24-3.17,2.66-1.25,5.59-2.71,8.8-4.41,1.52,1.03.85,2.06-2,3.08-2.25.82-4.19,2.5-6.23,3.64l-5.97,2.81c-1.76.13-3.97.72-5.58,1.36-2.33.03-1.88-2,.03-2.71l-4.06-.43c-2.2-.46,2.85-2.05,1.37-1.62Z"/>
            <path class="cls-50" d="M80.49,21.78c-2.07,1.15-3.5,2.63-5.97,2.81,1.91-.96,3.6-3.28,5.97-2.81Z"/>
            <path class="cls-44" d="M72.94,19.78l-.35-.53c1.69-1.21,3.93-2.1,6.74-2.67,4.81-1.42,7.34-3.01,11.15-5.91.23.04,2.73,1.83,2.77,2.03.04.21-.44.53-1.07.87l.24,1.84c.67-.44.74-.3.27.36-1.69,1.38-3.99,1.66-5.97,2.38.54-.68,2.04-.82,1.73-2.2-4.48,3.21-9.01,5.04-13.77,6.7-1.24-.64-2.04-1.58-1.73-2.86Z"/>
            <path class="cls-18" d="M92.74,14.26c-.23-.67.03-.82.77-.47,1.7.09,3.85.71,4.11,2.15.02.51-.26.65-.83.44-.65-.04-1.71,0-2.39-.2-.56-.17-1.15-.26-1.71-.41l-.27-.36c-.95-.52-.84-1,.32-1.14Z"/>
            <path class="cls-68" d="M73.55,17.63c.88-1.79,3-2.94,6.35-3.46,2.17-1.36,4.07-1.76,5.71-1.22,2.55-1.99,3.83-2.98,3.83-2.98-.62-1.57.17-1.36,1.74-.36l3.34,2.62,1.28.15c1.21.41,1.08.96-.25,1.09.38.77-.3.88-2.05.32l-.77.47c-.84.21-1.01-.03-.57-.69.89-1.29-.97-.24-1.3-.47-.65-.46-.91-1.51-1.29-1.45-1.65.23-.87,2.22-1.55,2.5-2.47,1-3.94,2.18-6.09,3.93l1.39-2.98c-3.55,2.46-7.18,2.98-10.74,4.15l-.6-.94c.54-.06,1.03-.52,1.56-.68Z"/>
            <path class="cls-50" d="M72.94,19.78c2.14,1.39,3.91-1.32,6.75-1.72-1.22,2.23-4.98,2.28-5.01,4.59-1.52.53-2.33,1.16-2.67-.55-.16-.79-.29-1.65.93-2.31Z"/>
            <path class="cls-109" d="M97.62,15.93c-.53-.64-1.22-1.46-2.06-2.47-.38-.21-.26-1,.25-1.09,1.25.14,2.77.37,3.26,1.29.38.71,1.32,2.25.41,2.98-1.02.82-2.09-.23-2.69-.27l.83-.44Z"/>
            <path class="cls-44" d="M91.18,9.61c1.04-.58,1.88.86,2.31,1.38l1.03,1.23c-1.75-.2-2.44-1.56-3.34-2.62Z"/>
            <path class="cls-66" d="M92.18,13.57l.57.69c.32.39.38.94-.32,1.14-.49.08-1.24.17-1.68.05-1.15-.31-.13-1,.32-1.18s.73-.53,1.12-.7Z"/>
            <path class="cls-57" d="M93.51,13.79l2.05-.32c.54.29,1.13.45,1.52.7.74.48,1.64,1.18.55,1.77l-4.11-2.15Z"/>
          </g>
        </g>
      </g>
      <path class="cls-63" d="M67.35,19.81l3.05,4.49c.7.99.31,1.13-1.16.43l-1.92.45c-.27-1.78-1.63-4.01.03-5.37Z"/>
    </g>
    <g>
      <g>
        <g>
          <g>
            <path class="cls-25" d="M78.72,2.29c.78-.07,1.56-.21,2.32-.39.78.22.69.44-.22.68-.72,1.99-6.03,2.76-8.47,2.34-1.63,1.25-4.34,2.96-6.6,2.6-1.72.84-3.07.64-1.89-.74,3.45-3.5,8.98-3.99,14.85-4.49Z"/>
            <path class="cls-24" d="M88.21.74c.42-.45.73-.43.96.03l1.37.38c8.99-1.74,8.48,3.61.87,1.74-1.3-.23-2.51-.49-3.63-.78-1.12-.19-2.01-.44-2.67-.76,1.03-.31,1.97-.93,3.1-.6Z"/>
            <path class="cls-96" d="M85.11,1.34c1.05,0,2.49-.08,2.67.76l-.96-.03c-.41,1.64-5.06,1.75-5.99.52l.22-.68c1.29-.32,2.79-.18,4.06-.56Z"/>
            <path class="cls-80" d="M93.33.18c-.1,1.25-2.96,1.23-4.16.59-.29-.05-.69.05-.96-.03l.22-.68c1.67-.11,3.32-.07,4.9.12Z"/>
            <path class="cls-58" d="M80.82,2.58c1.91-.4,4.06-.24,5.99-.52.92.13,1.46.41,1.62.82,1.1.07,1.71.33,1.83.79.68,2.17-3.82,2.81-4.1.6l-8.36,2.1-.82-.45c-4.82,1.25-6.37.92-4.64-1,2.6-1.24,5.55-1.73,8.47-2.34Z"/>
            <path class="cls-72" d="M72.35,4.92c.79,1.11,2.89,1.02,4.64,1-1.69,2.08-10.62,4.74-11.39,2.56.11-.24.49-.82.15-.96,1.73-1.58,3.94-3.06,6.6-2.6Z"/>
            <path class="cls-71" d="M91.4,2.88l5.57-.74c-2.89-1.35-6.42.24-7.8-1.37,1.45.47,2.78-.29,4.16-.59,1.62-.36,4.53-.21,4.45,1.14-.06.9-.61,2.2-1.94,2.84-.42-.21-1.49.07-2.03,0-3.13,1-4.31.84-3.54-.47-.81-.11-1.25-.49-1.83-.79.36-.73,2.14-.43,2.97-.01Z"/>
            <path class="cls-3" d="M87.77,2.09c1.29.06,3.33-.26,3.63.78h-2.97c-.53-.26-1.5-.21-1.62-.81.32-.05.65.01.96.03Z"/>
          </g>
          <path class="cls-2" d="M65.6,8.48c3.74.52,7.81-1.35,11.39-2.56,2.99-1.01,6.35-1.93,9.18-1.64-4.3,1.81-7.82,3.5-11.89,5.63-1.99,2.06-8.88,6.02-12.36,6.08-.53.53-9.53,1.37-9.68.78-2.73.33,2.4-2.73-.37-2.56-.57-.2-2-.06-1.78-.73,4.22-.73,14.24-2.26,15.53-5.01Z"/>
        </g>
        <path class="cls-19" d="M51.01,9.98c1.17-.4,2.61-.64,4.32-.72,2.74.27,7.88-1.04,7.2-1.21.98-1.1,2.91-.62,4.22-1.24.45.43,1.11.64,1.87.76,2.07-.07,1.96.46-.17.96-4.32,1.93-8.73,3.79-13.56,3.45-.63-.04-.96-.44-1.16-.85-2.99,1.2-6.57.23-2.72-1.14Z"/>
        <path class="cls-77" d="M47.86,11.98c1.12-.61,3.08-.9,5.87-.85,1.29-.77,4.9.34,6.5-.03,2.52-.58,5.4-2.99,8.22-2.57.74.42,1.05,1.02.36,1.36-4.68,2.32-10.74,3.8-15.94,3.53.07,1.1-2.62,1.57-3.12.52-.96-.37-1.97-.61-3.62-.18.03-1.08,1.27-1.32,1.72-1.77Z"/>
      </g>
      <path class="cls-29" d="M68.06,8.49l.33-.44c.2-.28.59-.49,1.02-.54.75-.11,1.96-.28,2.76-.39,1.52-.23-1.47,2-2.87,1.79-.37-.06-1.09-.11-1.23-.41Z"/>
    </g>
    <g>
      <path class="cls-33" d="M38.03,30.75c2.2-.43,3.29,1.13,1.69,2.8-.46.6-1.2.87-1.95.84-.22,0-.43-.03-.63-.08-.53-.13-1.03-.39-1.41-.79.14,2.05-1.22,2.16-1.99.25-1.35.57-2.58.94-3.69,1.09-1.25.18-2.35.09-3.3-.26-.18-.01-.32-.04-.43-.08-.47-.14-.4-.44.21-.9-.54.02-.87-.1-.99-.29-.15-.24.04-.61.57-1.01l.08-.78,3.82-1.42c3.27-1.1,5.94-.88,8.03.63Z"/>
      <path class="cls-104" d="M36.43,28.1c.95.45,1.53.94,1.75,1.44.17.39.12.79-.15,1.21l-5.44.17c-.71.03-1.54.33-2.14.06-.25-.12-.41-.45-.45-.86,1.83-1.44,4.11-2.71,6.42-2.02Z"/>
      <path class="cls-39" d="M36.76,35.16c.39-.5,1.38-1.04,2.96-1.6-.34-1.13-.92-1.92-1.69-2.8-.65-.75-1.21-1.74-1.6-2.65l2.33.7c.99-1.06,1.5-.62,1.16.8,2.23-1.16,2.99-.67,2.28,1.47.32.78.07,1.11-.76,1,.2,1.05,1.12,1.94,2.76,2.67,1.74-1.4,3.21-1.43,4.4-.08,1.45-2.22,1.81-2.14,2.09.5.13-2.11,2.58-1.45,2.94.37.29,1.18-.67,1.57-1.74,1.81-3.39.11-7.02-1.61-10.14.19-3.85,1.41-7.77,2.24-11.74,2.47-.71-.14-.77-.47-.22-.98.71-2.06,4.67-4.2,6.96-3.88Z"/>
      <path class="cls-103" d="M41.76,37.54c-1.56.9-2.77,1.46-4.7,1.9l-5.85,1.32c-.95,1.53-1.37,1.05-1.2-.76,3.88-.98,7.78-1.93,11.74-2.47Z"/>
      <path class="cls-103" d="M29.14,36.11c.52-1.43,2.05-2.21,4.6-2.34.66-.06,1.33-.28,1.99-.25,1.43.26,1.77.81,1.03,1.64-1.96,2.05-4.03,3.82-6.96,3.88-3.01.49-2.63-1.17-.66-2.93Z"/>
      <path class="cls-15" d="M26.75,34.6c2.33-.18,4.83-1.97,6.99-.83-1.38,1.07-2.86,2.04-4.6,2.34.09,1.26-.53,1.39-.98.22-.31.16-1.57.53-1.96-.02-.24-.34.73-1.16.55-1.71Z"/>
      <path class="cls-27" d="M39.72,33.55c.35,1.19-.2,1.35-1.08,1.42-.66.06-1.51-.03-1.88.18-.44-.48-.79-1.03-1.03-1.64,1.33.05,2.66.14,3.99.03Z"/>
      <path class="cls-48" d="M48.04,33.04c-.61-1.47-.32-2.31,1.36-2.53-.12-.9-.98-2.77.37-2.96,1.27.25,2.36,1.06,2.25,2.62-.06.79-.44,1.81-.86,2.68,1.64,1,1.43,2.02-.46,2.31-.71-.09-1.41-.29-2.09-.5-1.81.06-2.03-.63-.57-1.64Z"/>
      <path class="cls-49" d="M51.16,32.86c.7-1.11,1.44.16,2.09.4,1.34.49.18,1.41.4,2.29l-2.94-.37c-.13-.82.11-1.59.46-2.31Z"/>
      <path class="cls-103" d="M42.21,31.08c1.08.29,2.26.14,3.35.28,1.72-.98,3.31-.24,2.48,1.68.45.3.4,1.17.57,1.64-1.13.58-4.28,2.21-4.4.08-2.01-.69-2.93-1.58-2.76-2.67.08-.45.44-.71.76-1Z"/>
      <path class="cls-34" d="M41.45,32.08c.71,1.61,3.42.51,2.76,2.67-.88.26-1.78.15-2.69-.34-1-.54-.91-1.46-.08-2.33Z"/>
    </g>
    <path class="cls-88" d="M57.43,16.55l1.38-2.85c.81-.9,1.52-1.19,2.14-.85-.74,1.04-.1,3.38-1.48,4.29-.54-.27-1.81.5-2.04-.59Z"/>
    <path class="cls-87" d="M54.99,8.7c.53,1.59-1.07,2.76-1.91,3.95-.18.25-.48.4-.69.61-.67-1.89,1.3-3.37,2.6-4.56Z"/>
    <g>
      <path class="cls-79" d="M45.56,18.04c.27-.06.51-.07.7-.03.17.03.31.1.41.21.08.06.13.13.17.22.22.45-.03,1.14-.84,1.55.61.96,1.28,2.24,1.09,3.3-.04.28-.15.54-.32.77.19,1.19-.69,1.61-2.66,1.28-2.22,1.57-3.48,2.09-5.03-.57-.13.23-.25.4-.38.5-.08.07-.16.1-.25.1-.21,0-.42-.19-.64-.59l-.57-1.7c-2.03-3.1-.8-5.56,1.75-2.36.11-.52.34-.63.69-.36.07.06.15.13.23.21,1.77.62,3.05.34,3.84-.85-.22-.19-.39-.35-.52-.49-.1-.12-.18-.22-.21-.31-.26-.51.34-.64,1.56-.66.09-.91.42-.98.98-.22Z"/>
      <path class="cls-41" d="M34.79,24.52c1.3.38,2.11.48,3.02.25.22.1.44.32.64.59.06.07.12.15.17.24h0c.34.55.6,1.25.64,1.86h0c.04.42-.02.79-.21,1.06-.1.07-.19.17-.29.27-.09.5-.28.75-.58.74-.39,0-.98-.48-1.75-1.44-.47-1.09-1.45-1.72-1.64-3.58Z"/>
      <path class="cls-69" d="M39.08,24.77c2.59.32,5.17-.15,7.7-.71.92-.34,1.42,1.95.77,2.76-.59.69-.68,1.78-.29,3.28.96,1.67.07,2.04-1.69,1.25-.18,2.25-2.41,1.34-3.35-.28-.86-.23-1.51-1.08-2.28-1.47-.68-1.63.67-1.42.86-.55.06.26-3.44-2.85-1.71-4.28Z"/>
      <path class="cls-40" d="M47.54,26.83l-.77-2.76-.78-4.07c2.25.79,1.74,7.33,3.49,6.39l.28,1.16c.96,1.08,1.18,2.43-.37,2.96-1.25,1.72-1.92,1.29-1.2-.76-1.29-.51-2.63-2.43-.66-2.93Z"/>
      <path class="cls-8" d="M43.75,19.72c.29.98.76,1.98.59,3.22-2.11.04-3.4-1.18-4.43-2.38.08-1.86,2.83-2.27,3.84-.84Z"/>
      <path class="cls-89" d="M37.81,24.77c.37-.09.89-.05,1.27,0-.08,1.76,1.19,3.1,2.74,3.91-.92,1.08-1.55.81-1.89.92-.39-.2-.75-.67-1.16-.8l-.95-4.03Z"/>
      <path class="cls-78" d="M47.54,26.83l.66,2.93c.03.92-.29,1.03-.95.35-.88-1.52-2.27-2.25-4.76-2.52.59-.68,1.81-1.97,2.59-1.64.83.36,1.52,1,2.46.88Z"/>
      <path class="cls-54" d="M47.25,30.1l.95-.35c.25.44.68.76,1.2.76.14,1.09-.1,2.36-1.36,2.53l-2.48-1.68c.5-.5,1.09-.89,1.69-1.25Z"/>
      <path class="cls-28" d="M35.49,19.46c.11,1.39.55,2.82,1.75,3.62l.57,1.7c-.91.23-1.72.13-3.02-.25.19,1.85,1.17,2.48,1.64,3.58-2.31-.69-4.59.59-6.42,2.02l-3.82,1.42c-.95-.27-.72-1.08-.69-1.8.09-2.46-.67-4.93-2.33-6.75,2.25,1.64,2.9,1.26,2.47-1.45l5.08-1.17c1.59-.36,3.15-.85,4.79-.92Z"/>
    </g>
    <path class="cls-108" d="M22.4,33.53l3.7-1.21c.73.22,1.06.76.42,1.3-.35,2.85-2.55,3.68-6.61,2.52-1.34-1.13-.51-2,2.49-2.61Z"/>
    <path class="cls-75" d="M26.53,33.62l.22.98c.78.26,1.26.83,1.42,1.73,1.95,1.82-3.19,4.48-3.76,1.87-.99.85-3.2-.03-4.12-.99l-.37-1.07c2.38-.29,4.53-1.35,6.61-2.52Z"/>
    <path class="cls-81" d="M39.49,18.39c1.66-.5,3.43-.69,5.1-.13-.25.5-.52.99-.83,1.46-1.31.13-2.59.43-3.84.84l-.92.15.49-2.33Z"/>
    <g>
      <path class="cls-37" d="M46.72,14.15c2.34-1.6.08-3.4,2.27-4.52,2.74-2.87,12.11-1.79,10.17.5-.81.96-3.02,2.73-3.02,2.73l-.09,1.3c.41.36-2.52,2.73-2.52,2.73l-.98,2.51-4.95.82s-.13-.49-.31-1.12c-.16-.58-2.14-.64-2.49-1.14-.79-1.12.1-2.59,1.9-3.82Z"/>
      <g>
        <path class="cls-23" d="M45.74,14.02s2.64-.97,2.67-1.18c.11-.73,7.12-4.32,8.84-4.52l1.04.72c.96-.02,1,.23.17.73-.08,1.72-6.44,5.88-8.57,6.83l-2.33-.34c-2.68.61-4.15-1.09-1.82-2.24Z"/>
        <path class="cls-87" d="M48.53,28.51c-.25-1.16-.56-2.29-.95-3.39-1.45.43-1.51-.03-.18-.74-1.5-1.91-1.87-3.79-1.1-5.63.9-.31,1.22-1.03,1.48-1.55,3.43-2,3.67-5.07,7.69-6.45.67-.61,5.64,4.19,3.99,5.85-.88.88-.78,1.97.24,2.53,2.83,1.56,6.28,7.12,4.45,6.83.42.52.16.76-.78.71-.2.28-.48.72-.75,1.14-.56.88-1.49,1.65-2.65,2.2l-1.15.54c-1.9.9-4.07,1.46-6.18,1.49-1.04.02-2.02-.1-2.54-.49-.43.1-.79-.18-1.17-.14-.03-.68.24-2.18-.38-2.91Z"/>
        <path class="cls-97" d="M44.01,18.43c-.09-.38.37-.77.81-.95l1.31.53c.33,2.22.79,4.41,1.32,6.58l-1.14.64-1.97-5.34-.33-1.47Z"/>
        <path class="cls-10" d="M59.1,28.4s2.43-.36,4.33-.6c2.61.49-10.73,5.82-11.26,5.72l1.76-2.93c-1.15-.51-1.98,1.72-2.24-.76,2.77-.23,4.72-1.81,7.4-1.42Z"/>
      </g>
    </g>
    <path class="cls-27" d="M24.6,39.32c-1.87.51-2-.25-.19-1.12,1.35.1,3.23-.59,3.76-1.87.1-.69.58-.8.98-.22l.66,2.93c-.32,0-.66.16-.98.22.1.9-.25.92-.98.22-.06,1.59-.25,2.49-1.73,1.42l-.98.22-.54-1.79Z"/>
    <path class="cls-22" d="M19.33,39.77c-.07-.8.12-1.7-.17-2.43.22-.9.6-.92,1.13-.13,1.94-.19,2.75,1.05,1.49,2.61.3.46-.39,1.29-.85,1.31-.47-.46-1.51-.43-1.6-1.36Z"/>
    <path class="cls-42" d="M20.29,37.21c.65-.26,1.33-.31,2.18-.54.96-.26,1.3,1.29,1.94,1.53l.19,1.12-2.83.5c-.55-.84-1.15-1.64-1.49-2.61Z"/>
    <g>
      <path class="cls-9" d="M24.99,18.8c.64,0,1.08.06,1.33.18.54.25.24.76-.86,1.55.34.06.56.14.66.25.15.18-.01.43-.5.76.43,2.71-.23,3.09-2.47,1.45.4,2.69-.5,2.78-1.87.47-.45.52-.83.81-1.12.9-.07.03-.13.03-.18.02-.33,0-.48-.38-.38-1.11.07-.2.1-.4.12-.62.07-.94-.44-1.96-.21-2.93l.97-.42c1.22-1.08,3.18-1.54,4.51-.5Z"/>
      <path class="cls-47" d="M25.93,17.35c1.42,1.35.96,2.01-.93,1.44-1.48.34-2.99.71-4.51.5.24-2.52,3.43-1.83,5.45-1.94Z"/>
      <path class="cls-102" d="M25,18.8l.93-1.44c.32-.19.8-.17,1.1-.39.84.74,1.99.82,3.07.71,1.39,1.06.53,1.79-2.57,2.21-.39.97-1.13,1.19-2.06.64-.6-.34-.84-1.16-.47-1.73Z"/>
      <path class="cls-100" d="M30.67,18.79h0c.29.23.29.75.04,1.58l-5.08,1.17-.17-1.01c.7-.19,1.35-.5,2.06-.65,1.66-1.05,2.72-1.41,3.15-1.09Z"/>
      <path class="cls-95" d="M38.71,14.64c2.09.42,4.16-.34,5.94-1.43,2.17.5,2.31,1.59.37,2.67.41,2.02-5.1,2.26-5.91.32-.2,3.02-2.24,2.8-2.23-.29-.35-.78.26-1.21,1.83-1.27Z"/>
      <path class="cls-20" d="M44.65,13.21c1.26-.14,2.52-.03,3.78.04l.59,2.2c2.24,2.02,1.54,3.15-1.33,2.19-1.15,1.45-1.65,1-1.37-.79-1.39.95-1.99.58-1.3-.98.02-.9-.07-1.81-.37-2.67Z"/>
      <path class="cls-45" d="M33.29,13.64l2.93-.66.22.98c0,1.11-.5,1.91-1.51,2.39,1.84,3.12-.8,2.22-2.93.66-1-.97.33-2.49,1.29-3.37Z"/>
      <path class="cls-74" d="M36.44,13.96c.79.07,1.51.53,2.27.68.44,1-1.2,1.04-1.83,1.27-.12,2.02-.98,2.2-1.95.44-.11-.4-.29-.92-.16-1.41.17-.68,1.02-.92,1.67-.98Z"/>
      <path class="cls-60" d="M31.41,16.66c.15.04.35.16.59.35,1.82.33,2.96.76,3.43,1.29.3.35.33.74.07,1.16-1.64.06-3.2.56-4.79.92-.5-.68-1.29-.76-2.09-.68h-.04c-.36.05-.72.12-1.06.19.83-.78,1.87-1.29,2.58-2.2.32-.03.66-.16.97-.25-.08-.6.03-.85.34-.77Z"/>
      <path class="cls-65" d="M33.29,13.64c.15,1.28-.74,2.27-1.29,3.37-.32.11-.6.33-.93.43-.14-.69-.32-1.47-.04-2.28s1.3-1.34,2.26-1.51Z"/>
      <path class="cls-11" d="M34.92,16.35c.64-.17,1.33-.21,1.95-.44.67.42,1.47.43,2.23.3.14.09.28.16.43.23.57.33.93.62,1.1.88.28.41.04.74-.7.96-.16.04-.3.08-.45.12.87.23,1.33.46,1.47.68h.01c.21.34-.22.69-.99,1.12-.09.05-.19.1-.29.16-.21.11-.44.23-.69.36-.67.13-1.63.28-1.88.88-.22.52-.03,1.1.13,1.49-1.2-.81-1.64-2.23-1.75-3.62-.97-1.31-3.47-.18-3.5-2.45,1.04.08,2.34.37,2.93-.66Z"/>
      <path class="cls-61" d="M39.11,16.2c1.85,1.15,4,.41,5.91-.32.46.28.9.61,1.3.98,1.1,1.09.72,1.75-.76,1.2l-.98.22c-1.37.88-3.89,1.33-5.1.13.15-.7-.38-1.47-.38-2.2Z"/>
    </g>
    <g>
      <g>
        <path class="cls-67" d="M47.45,26.33c1.19-.04,2.39-.68,3.33-1.67-.66-1.02-.19-1.62-2.33-.74-1.21.5-2.59-.18-3.06,1.78-.42,2.19.52,2.8,2.07.63Z"/>
        <path class="cls-73" d="M50.37,29.83c2.05-2.11,1.38-3.67.4-5.17-1.12-.48-2.86.21-3.33,1.67-1.08.05-1.28.44-.63,1.15-.79,1.34-.44,2.27,1.06,2.8.69-.08,1.77-.53,2.49-.46Z"/>
        <path class="cls-43" d="M47.88,30.28c.42-.46.73-1.09.61-1.53-.22-.8-.99-1.11-1.67-1.27-1.6.34-1.95,2.23-2.09,3.72l.91.37c.44-.48,1.66-1.22,2.24-1.29Z"/>
        <path class="cls-31" d="M46.81,27.48l.63-1.15-2.07-.63c-.09.39-.49.76-.63,1.15.69,1.3-1.14,3.23-.03,4.35.77-1.22,1.41-2.48,2.09-3.72Z"/>
      </g>
      <g>
        <path class="cls-76" d="M45.64,31.57c.42-1.07.09-1.17-.91-.37-.08-1.86-1.29-1.91-3.63-.16-.37.09-.75.06-1.12.17-2.28,1.38-2.46,2.7-.43,3.4-2.36,1.27-3.24,3.11-.41,2.62,1.86-1.57,4.94-3.96,6.51-5.67Z"/>
        <path class="cls-107" d="M36.54,39.43c.86-.39,1.83-1.55,2.59-2.19-.6-.65-.11-1.74.41-2.62.14-1.5-.14-1.65-1.27-.33-2.61,1.32-4.69,2.92-6.25,4.81-1.07.14-1.18.52-.41,1.11-2.03,1.2-2.02,1.57.12,1.29.76,2,2.37,1.31,4.82-2.07Z"/>
        <path class="cls-105" d="M31.61,37.63c2.02-.21,4.23-1.33,6.65-3.35.44-.08.84.34,1.27.33.29-1.15.5-2.31.43-3.4-4.07,1.16-7.94,3.6-11.06,6.94-1.15,2.9,2.42,2.04,2.7-.52Z"/>
        <path class="cls-99" d="M44.72,31.2c1.19-2.79,1.2-4.24.03-4.35-.86,1.63-2.05,3.16-3.66,4.19,1.08.42,2.29.74,3.63.16Z"/>
        <path class="cls-111" d="M38.27,34.28c-2.32.43-4.63,1.72-6.65,3.35-.78.95-.65,1.44.4,1.47,2.37-1.06,4.73-2.57,6.25-4.81Z"/>
      </g>
      <g>
        <path class="cls-110" d="M23.04,38.49c.91,2,5.11,3.17,5.54.85,1.66,1.76,3.85,2.24,3.94-.04-.04-.35-.15-.71-.23-1.06-1.53-.79-4.43-2.05-3.94.04-1.86-.95-3.22-2.01-4.68-3.35-.62-.95-1.06-.95-1.32-.01-2.83-.62-5.46-1.08-3.41,1.49,1.5.46,2.72,1.43,4.1,2.08Z"/>
        <path class="cls-16" d="M29.45,43.45c.45-.11,1.19.17,1.52-.06l1.07-.74c.51-1.7-1.15-3.15-3.46-3.31-1.81-.17-3.79-.04-5.54-.85-.18.45-.44,1.04-.19,1.43.91,1.42,4.83,1.74,6.6,3.53Z"/>
        <path class="cls-6" d="M32.05,42.65c.27-.18.87-.02,1.17-.18.48-.26.79-.68,1.08-1.07-1.08-.43-1.67-1.19-1.77-2.1-1.23-.3-2.69.16-3.94.04.46,1.43,1.92,2.48,3.46,3.31Z"/>
      </g>
    </g>
    <g>
      <path class="cls-94" d="M12.02,33.83c.11-1.63,4.01-2.38,5.66-1.64,2.74-1.95,4.03-.17,3.6,2.78l-8.62,2.43-.16-.99c-2.7-.45-3.08-1.45-.49-2.58Z"/>
      <path class="cls-59" d="M17.68,29.58l1.96-.44.73,3.25-7.45,2.48c-1.6.53-2.39-1.7-3.44-3.04,2.72-.8,5.43-1.63,8.19-2.25Z"/>
      <path class="cls-85" d="M3.64,23.44c.89-.64,3.51-.63,4.2.05.98.83.36,1.24-1.86,1.23.44,1.89-1.53,3.19-3.07,3.93.25,2.56-.28,3.57-1.58,3.02l-.61-.48c-.89.07-.95-.21-.23-.81.65-2.46.93-5.37,3.15-6.94Z"/>
      <path class="cls-21" d="M17.06,23.46c.87-.31,1.76-.6,2.66-.81,1.34.93-.25,4.56-2,3.74-1.08,1.6-1.7,1.17-1.2-.76-2.66-1.02-1.97-1.73.53-2.17Z"/>
      <path class="cls-70" d="M7.84,23.49c.31-.03.66-.25.98-.22l1.42,1.73c.63.16.7.49.22.98.36,1.44-1.13,1.58-1.95.44-1.41.45-2.17-.29-2.52-1.69.52-.34,1.11-1.17,1.86-1.23Z"/>
      <path class="cls-90" d="M23.16,22.99c1.66,1.82,2.42,4.29,2.33,6.75-1.49,2.27-4.07.98-5.05-1.03-.23-.46-.37-.95-.39-1.45-.55-.29-.76-.75-.75-1.27.01-.54.28-1.13.68-1.61.07-.09.14-.16.21-.23.32-.33.7-.57,1.09-.69.6-.04,1.28-.33,1.87-.47Z"/>
      <path class="cls-26" d="M17.72,26.39c.79-1.13,1.89-2.29,2-3.74.54.15,1.04.73,1.57.81-.54,1.22-.99,2.48-1.24,3.8,1.5,1.42.89,2.01-.92.85l-.98.22c-2.11.42-2.4-1.05-.44-1.95Z"/>
      <path class="cls-32" d="M1.33,31.67l1.58-3.02c2.58-.29,2.58.49.57,2.09,2.38-.06,4.27,3.32,2.92,5.3.98,1.85.25,2.29-1.56,1.33-1.14-.12-2.44.07-3.05-1.15l-.46-4.56Z"/>
      <path class="cls-62" d="M5.98,24.72c.43-.06.97-.15,1.53,0,.65.17.89,1.01.99,1.69,1.73-.12,1.85.59.21,1.36.37,1.28-4.96,1.99-5.79.88.05-1.95,1.07-3.66,3.07-3.93Z"/>
      <path class="cls-56" d="M.72,31.19c.52-.43.78-.09.61.48.27,1.48,1.45,3.28.46,4.56-.79-1.56-1.15-3.28-1.07-5.03Z"/>
      <path class="cls-106" d="M14.91,28.23c-1.14-1.07-1.3-2.78.63-2.38l.98-.22,1.2.76.44,1.95c-.62,1.79-1.46,2.66-2.54,2.62-2.77,1.13-1.72-1.28-.7-2.72Z"/>
      <path class="cls-35" d="M10.23,25l2.17.53c2.03.05,2.68,1.11,1.6,2.86.62,1.63.06,1.8-1.67.5-.94-.1-1.09-.49-.47-1.19-1.51-.14-2.62-.4-1.42-1.73l-.22-.98Z"/>
      <path class="cls-101" d="M13.37,25.32c.75-.17,1.55.07,2.17.53l-.63,2.38c-.04.9-.35.94-.91.17-.32-1.06-.81-2.07-1.6-2.86l.98-.22Z"/>
      <path class="cls-51" d="M8.5,26.42l1.95-.44,1.42,1.73c-.89,1.3-2.95,1.92-3.16.07l-.21-1.36Z"/>
      <path class="cls-53" d="M6.4,36.04c1.03-2.51,2.1-2.13,2.36.55.76-1.54,2.25-.99,3.17.3.88-.13.88.1.1.65,1.69.96,1.34,1.66-.63,1.42-1.28-.13-2.59.18-3.86.16-.99-.02-1.8-1.59-2.71-1.74.34-.62.9-1.07,1.56-1.33Z"/>
      <path class="cls-4" d="M20.05,27.26c2.19,0,3.34,2.23,5.44,2.48-.03.72-.26,1.53.69,1.8.87.18.82.45-.08.78.01.37-.22.73-.57,1.01-.87.72-2.52,1.06-3.13.2-.52.46-1,.82-1.42,1.09-.7.44-1.26.64-1.68.59-.51-.06-.82-.45-.95-1.19l-.07-.59s-.08-.01-.13-.02c-.75-.15-.78-.47-.09-.95-1.35-.17-1.65-.94-1.36-1.81h0c.2-.59.65-1.21,1.22-1.72.37-.33.78-.61,1.2-.8.42-.09.75-.47.92-.85Z"/>
      <path class="cls-36" d="M15.62,30.95c.47-1.19,1.28-2.33,2.54-2.62l.98-.22c-1.2,1.15-1.71,2.77-1.07,4.34.55,2.48-1.4,2.07-2.93.66-.14.72-.47.78-.98.22-2.39-.91-.41-2.44,1.45-2.39Z"/>
      <path class="cls-64" d="M2.91,28.65l5.79-.88c1.03.39,2.13.23,3.16-.07.26.32.25.84.47,1.19-.02,1.47-1.5,1.53-2.8,1.31-2.01-1.38-4.06-.6-6.05.53-.08-.7-.63-1.35-.57-2.09Z"/>
      <path class="cls-5" d="M9.72,31c1.03-.57,1.9-1.27,2.62-2.1l1.67-.5.91-.17.7,2.72-1.45,2.39c-1.05,1.12-2.64,1.53-4.1,1.05-1.06-.86-.9-2.2-.35-3.39Z"/>
      <path class="cls-98" d="M12.04,37.54c.18-2.18,3.83-2.64,5.7-1.61,0-.89.28-.91.82-.12,1.43-1.04,1.15.12.61,1.53,1.12.27,1.7,2.23.17,2.43-2.5.73-5.09-.25-7.69.03l-.23-.83.63-1.42Z"/>
      <path class="cls-1" d="M10.06,34.38c.91-.06,1.43.2,1.55.79l.32,1.71c-1.05-.06-2.15-.02-3.17-.3-.12-.36-.29-.83-.23-1.39.08-.66.95-.66,1.53-.81Z"/>
      <path class="cls-12" d="M18.56,35.81c-1.33-.64-2.2-2.06-.27-2.37,1.33.49,2.76.42,4.12.09-1.03.33-1.91,1.63-2.49,2.61,1.76-.19,1.88.12.37,1.07-.34.14-.77.03-1.13.13l-.61-1.53Z"/>
      <path class="cls-91" d="M15.14,33.12l2.93-.66c.12.3.18.66.22.98l.27,2.37c-.24.1-.59.06-.82.12-.74-.68-1.52-1.31-2.38-1.84-.91-.08-.98-.41-.22-.98Z"/>
      <path class="cls-52" d="M12.33,28.9c.34.34.92.52,1.32,1.75-1.4.7-2.67.35-3.93.35l-.19-.79c.51-1.07,1.79-1.01,2.8-1.31Z"/>
      <g>
        <path class="cls-93" d="M12.93,23.36c1.73.64,2.27,1.21.44,1.95-.1.85-.43.91-.98.22-.14,1.7-1.34.56-2.17-.53-1.04,1.2-2.09-.52-1.42-1.73,1.34.14,2.79-.15,4.12.09Z"/>
        <path class="cls-35" d="M12.93,23.36c1.37.25,2.73.6,4.12.09l-.53,2.17c-.08.91-.41.98-.98.22-.7,1.65-1.8,1.03-2.17-.53l-.44-1.95Z"/>
      </g>
      <path class="cls-83" d="M3.48,30.74c.23-2.23,5.85-3.13,6.05-.53.89-.04.94.23.19.79,1.98,1.07,1.99,1.87.35,3.39.58,1.18-.11,1.75-1.3,2.2-.71-.19-1.74-.2-2.36-.55-1.65-1.38-2.67-3.18-2.92-5.3Z"/>
    </g>
    <g>
      <path class="cls-67" d="M47.67,14.13c.64-.78,1.6-1.16,2.6-1.1.18,1.17.74,1.26-.83,2.11-.89.48-1.26,1.9-2.52.85-1.36-1.25-1.18-2.31.75-1.85Z"/>
      <path class="cls-76" d="M44.01,11.7c.78.47.66.76-.29.88.92,1.35.32,2.22-1.81,2.6-.24.19-.42.47-.67.65-1.91.6-2.68-.21-1.99-2.09-1.89.73-3.31.04-1.58-1.56,1.78-.17,4.63-.61,6.34-.48Z"/>
      <path class="cls-107" d="M35.18,12.42c.65-.31,1.76-.17,2.49-.24.03.87.85,1.29,1.58,1.56.85.96.78,1.25-.5,1.1-2.04.86-3.96,1.16-5.76.91-.63.63-.88.44-.79-.49-1.68.55-1.87.28-.61-.99-.64-1.92.55-2.54,3.59-1.85Z"/>
      <path class="cls-73" d="M47.38,9.69c2.16.08,2.63,1.63,2.89,3.34-.33,1.1-1.6,1.81-2.6,1.1-.59.7-.9.57-.93-.38-1.11-.4-1.41-1.29-.9-2.69.4-.41,1.2-.84,1.54-1.39Z"/>
      <path class="cls-43" d="M45.84,11.07c.46.03.95.26,1.11.65.3.71.06,1.45-.22,2.03-1.01.86-2.18-.23-3.02-1.17l.29-.88c.48.04,1.5-.28,1.83-.63Z"/>
      <path class="cls-110" d="M24.99,16.67c1.05-1.63,4.25-1.56,4.09.73,1.53-1.19,3.17-1.04,2.78,1.13-.1.32-.25.62-.38.93-1.24.32-3.55.7-2.78-1.13-1.51.38-2.68,1-3.98,1.85-.63.72-.94.6-.94-.35-2.12-.2-4.08-.5-2.12-2.34,1.16-.02,2.21-.6,3.32-.82Z"/>
      <path class="cls-16" d="M30.52,13.79c.3.22.88.17,1.07.48l.61.99c.02,1.74-1.45,2.64-3.12,2.15-1.32-.34-2.69-1.01-4.09-.73-.04-.47-.1-1.1.15-1.39.93-1.08,3.77-.3,5.38-1.49Z"/>
      <path class="cls-105" d="M33.54,17.05c1.16-1.23,2.9-1.97,5.21-2.21.27-.24.26-.81.5-1.1.75.61,1.46,1.28,1.99,2.09-2.72,1.97-6.01,2.9-9.37,2.7-2.1-1.24.2-3.08,1.68-1.48Z"/>
      <path class="cls-99" d="M43.72,12.58c2.07,1.14,2.82,2.15,2.27,3.03-1.29-.55-2.71-.81-4.08-.43.35-1.03.81-2.08,1.81-2.6Z"/>
      <path class="cls-31" d="M46.74,13.76l.93.38-.75,1.85c-.25-.21-.65-.2-.93-.38-.32-1.38-2.27-1.49-2.27-3.03,1.03.33,2.02.77,3.02,1.17Z"/>
      <path class="cls-111" d="M38.75,14.84c-1.44,1.29-3.31,1.97-5.21,2.21-.9-.13-1.09-.56-.55-1.3,1.79-.87,3.8-1.44,5.76-.91Z"/>
      <path class="cls-6" d="M32.2,15.25c.15.25.61.26.79.49.29.37.42.86.55,1.3-.85.11-1.42.66-1.68,1.48-.93-.06-1.87-.89-2.78-1.13.61-1.21,1.86-1.8,3.12-2.15Z"/>
    </g>
  </g>
</svg>