<?xml version="1.0" encoding="UTF-8"?>
<svg id="Enemy" xmlns="http://www.w3.org/2000/svg" viewBox="0 0 101.07 32.88">
  <defs>
    <style>
      .cls-1 {
        fill: #d7b698;
      }

      .cls-2 {
        fill: #191211;
      }

      .cls-3 {
        fill: #525252;
      }

      .cls-4 {
        fill: #f4ae7c;
      }

      .cls-5 {
        fill: #dcac88;
      }

      .cls-6 {
        fill: #fbebbd;
      }

      .cls-7 {
        fill: #342525;
      }

      .cls-8 {
        fill: #b97d5b;
      }

      .cls-9 {
        fill: #3b3a3b;
      }

      .cls-10 {
        fill: #181716;
      }

      .cls-11 {
        fill: #474038;
      }

      .cls-12 {
        fill: #634432;
      }

      .cls-13 {
        fill: #45352f;
      }

      .cls-14 {
        fill: #3c2d26;
      }

      .cls-15 {
        fill: #21282a;
      }

      .cls-16 {
        fill: #cbaf8f;
      }

      .cls-17 {
        fill: #3c2b26;
      }

      .cls-18 {
        fill: #121212;
      }

      .cls-19 {
        fill: #41332d;
      }

      .cls-20 {
        fill: #4a4c4d;
      }

      .cls-21 {
        fill: #b8a394;
      }

      .cls-22 {
        fill: #6c6153;
      }

      .cls-23 {
        fill: #151414;
      }

      .cls-24 {
        fill: #2d2d2d;
      }

      .cls-25 {
        fill: #1d1917;
      }

      .cls-26 {
        fill: #46250d;
      }

      .cls-27 {
        fill: #222121;
      }

      .cls-28 {
        fill: #fff;
      }

      .cls-29 {
        fill: #483835;
      }

      .cls-30 {
        fill: #412e2d;
      }

      .cls-31 {
        fill: #725f56;
      }

      .cls-32 {
        fill: #a48e76;
      }

      .cls-33 {
        fill: #444445;
      }

      .cls-34 {
        fill: #333434;
      }

      .cls-35 {
        fill: #ad7f60;
      }

      .cls-36 {
        fill: #be8766;
      }

      .cls-37 {
        fill: #1c1512;
      }

      .cls-38 {
        fill: #53423c;
      }

      .cls-39 {
        fill: #16100d;
      }

      .cls-40 {
        fill: #c5997d;
      }

      .cls-41 {
        fill: #8d776d;
      }

      .cls-42 {
        fill: #6d665c;
      }

      .cls-43 {
        fill: #332b22;
      }

      .cls-44 {
        fill: #232020;
      }

      .cls-45 {
        fill: #545352;
      }

      .cls-46 {
        fill: #221916;
      }

      .cls-47 {
        fill: #25201c;
      }

      .cls-48 {
        fill: #2d2116;
      }

      .cls-49 {
        fill: #504f4e;
      }

      .cls-50 {
        fill: #23201f;
      }

      .cls-51 {
        fill: #cfad87;
      }

      .cls-52 {
        fill: #f6cba4;
      }

      .cls-53 {
        fill: #7e6c58;
      }

      .cls-54 {
        fill: #debba5;
      }

      .cls-55 {
        fill: #1a1110;
      }

      .cls-56 {
        fill: #5c5444;
      }

      .cls-57 {
        fill: #3b3b3b;
      }

      .cls-58 {
        fill: #282828;
      }

      .cls-59 {
        fill: #ae875f;
      }

      .cls-60 {
        fill: #4b4e4e;
      }

      .cls-61 {
        fill: #48474b;
      }

      .cls-62 {
        fill: #c2a083;
      }

      .cls-63 {
        fill: #1d1719;
      }

      .cls-64 {
        fill: #e1b997;
      }

      .cls-65 {
        fill: #787674;
      }

      .cls-66 {
        fill: #717171;
      }

      .cls-67 {
        fill: #bda4a1;
      }

      .cls-68 {
        fill: #1d1d1d;
      }

      .cls-69 {
        fill: #e19e71;
      }

      .cls-70 {
        fill: #7f6248;
      }

      .cls-71 {
        fill: #1b1b1b;
      }

      .cls-72 {
        fill: #2b2525;
      }

      .cls-73 {
        fill: #554944;
      }

      .cls-74 {
        fill: #25272c;
      }

      .cls-75 {
        fill: #37312f;
      }

      .cls-76 {
        fill: #b88a76;
      }

      .cls-77 {
        fill: #332420;
      }

      .cls-78 {
        fill: #fcb17f;
      }

      .cls-79 {
        fill: #f8ba88;
      }

      .cls-80 {
        fill: #190d0d;
      }

      .cls-81 {
        fill: #554239;
      }

      .cls-82 {
        fill: #bf9b78;
      }

      .cls-83 {
        fill: #523f3a;
      }

      .cls-84 {
        fill: #7f6e60;
      }

      .cls-85 {
        fill: #2d2421;
      }

      .cls-86 {
        fill: #292929;
      }

      .cls-87 {
        fill: #1e1616;
      }

      .cls-88 {
        fill: #daad8c;
      }

      .cls-89 {
        fill: #bb7c59;
      }

      .cls-90 {
        fill: #906245;
      }

      .cls-91 {
        fill: #100a0a;
      }

      .cls-92 {
        fill: #ac8675;
      }

      .cls-93 {
        fill: #b99b7c;
      }

      .cls-94 {
        fill: #2f302e;
      }

      .cls-95 {
        fill: #070707;
      }

      .cls-96 {
        fill: #24160b;
      }

      .cls-97 {
        fill: #8e7e6d;
      }

      .cls-98 {
        fill: #9f806b;
      }

      .cls-99 {
        fill: #1b1c19;
      }

      .cls-100 {
        fill: #d19b7f;
      }

      .cls-101 {
        fill: #646258;
      }

      .cls-102 {
        fill: #201d1b;
      }

      .cls-103 {
        fill: #393533;
      }

      .cls-104 {
        fill: #c89f86;
      }

      .cls-105 {
        fill: #82573e;
      }

      .cls-106 {
        fill: #cba387;
      }

      .cls-107 {
        fill: #43271b;
      }

      .cls-108 {
        fill: #161616;
      }

      .cls-109 {
        fill: #574b3d;
      }

      .cls-110 {
        fill: #fed1a8;
      }
    </style>
  </defs>
  <g id="BadGirl_defeat">
    <g>
      <path class="cls-67" d="M48.79,4.87c.7-.73,1.68-1.04,2.68-.91.09,1.18.65,1.31-.98,2.04-.92.41-1.4,1.8-2.58.66-1.26-1.34-1.01-2.39.89-1.79Z"/>
      <path class="cls-76" d="M45.32,2.18c.74.52.6.8-.35.86.82,1.42.15,2.23-2,2.45-.25.17-.45.43-.72.6-1.95.45-2.66-.41-1.83-2.23-1.94.58-3.3-.21-1.46-1.67,1.79-.04,4.66-.27,6.35-.01Z"/>
      <path class="cls-106" d="M36.46,2.24c.67-.26,1.77-.03,2.5-.05-.04.86.75,1.35,1.46,1.67.78,1.02.69,1.31-.58,1.06-2.1.71-4.04.86-5.81.48-.68.58-.91.38-.75-.55-1.72.42-1.89.14-.53-1.03-.5-1.97.74-2.49,3.72-1.57Z"/>
      <path class="cls-73" d="M48.83.42c2.15.24,2.5,1.82,2.64,3.55-.42,1.08-1.73,1.68-2.68.91-.64.66-.93.5-.9-.44-1.07-.48-1.31-1.39-.7-2.74.43-.38,1.26-.75,1.64-1.27Z"/>
      <path class="cls-43" d="M47.19,1.68c.46.07.93.33,1.06.73.25.73-.05,1.45-.37,2.01-1.07.78-2.15-.39-2.93-1.39l.35-.86c.48.07,1.51-.17,1.88-.49Z"/>
      <path class="cls-109" d="M25.99,5.72c1.17-1.54,4.36-1.24,4.03,1.03,1.61-1.07,3.24-.8,2.69,1.33-.12.31-.3.6-.44.9-1.26.23-3.59.44-2.69-1.33-1.53.26-2.75.8-4.11,1.55-.68.67-.98.53-.91-.42-2.1-.36-4.03-.8-1.94-2.49,1.15.07,2.25-.43,3.37-.57Z"/>
      <path class="cls-16" d="M31.72,3.26c.28.25.86.24,1.03.55l.53,1.03c-.11,1.73-1.64,2.53-3.27,1.91-1.29-.43-2.61-1.21-4.03-1.03,0-.48-.02-1.1.26-1.38,1.01-1.01,3.78-.02,5.48-1.09Z"/>
      <path class="cls-104" d="M34.49,6.73c1.25-1.14,3.04-1.75,5.36-1.82.29-.22.32-.79.58-1.06.7.66,1.36,1.38,1.83,2.23-2.86,1.76-6.21,2.45-9.55,2-2.01-1.39.43-3.06,1.78-1.35Z"/>
      <path class="cls-98" d="M44.96,3.04c1.98,1.29,2.66,2.35,2.04,3.19-1.25-.65-2.64-1.01-4.04-.73.42-1,.96-2.01,2-2.45Z"/>
      <path class="cls-31" d="M47.89,4.43l.9.44-.89,1.79c-.23-.23-.64-.25-.9-.44-.21-1.4-2.15-1.65-2.04-3.19,1,.4,1.96.92,2.93,1.39Z"/>
      <path class="cls-110" d="M39.84,4.92c-1.53,1.18-3.44,1.72-5.36,1.82-.89-.2-1.04-.64-.45-1.34,1.85-.74,3.9-1.15,5.81-.48Z"/>
      <path class="cls-6" d="M33.28,4.84c.13.26.59.3.75.55.26.39.36.89.45,1.34-.86.04-1.47.55-1.78,1.35-.92-.13-1.8-1.03-2.69-1.33.7-1.16,1.98-1.65,3.27-1.91Z"/>
    </g>
    <g>
      <g>
        <path class="cls-108" d="M100.23,12.29c.36-1.49-3.72-4.74-3.93-5.37s-.91-2.13-1.4-2.03-2.21.26-2.66.72-.43,2.83-.24,2.84h.19s4.52,4.02,5.15,4.17,2.65.69,2.89-.32Z"/>
        <g>
          <path class="cls-7" d="M71.26,11.89c-.96-.05-4.7-.12-6.33,0-1.62.12-8.94.72-10.07,1.15-1.14.43-6.81,2.17-7.18,3.46s1.83,3.67,2.24,4.4.76,2.02,2.3,1.64c1.55-.38,11.42-3.7,13.49-4.07s6.55-3.1,6.61-3.75-1.06-2.82-1.06-2.82Z"/>
          <g>
            <path class="cls-17" d="M51.46,15.26c-.11-.17-.22-.34-.31-.52-.89-1.92-.09-2.17,1.62-.71,1.76-.27,3.93-.14,5,1.06,4.41-.85,6.84-.22,7.31,1.88.27.65.03.75-.67.33-.89.7-1.93,1.48-2.86.62-1.46.01-2.85-.01-4.19-.08-1.47.54-2.55.51-3.23-.07-1.96-.36-4.03-.96-2.67-2.51Z"/>
            <path class="cls-38" d="M49.15,18.07c.05-.29.42-.59.41-.88.74-.93,2.26-.74,4.57.58,1.06-.28,2.2-.26,3.23.07-1.56,2.52-9.18,4.22-8.21.23Z"/>
            <path class="cls-13" d="M47.02,18.11c.72-.09,1.41-.02,2.13-.04.45,1.12,1.57,2.19,3.43,1.76,1.95-.45,3.43-1.22,4.78-1.99,1.51-.46,1.8-.04.46.82-.11.87-1.35,1.7-3.7,2.47-.67.54-1.08.43-1.25-.33-1.07-.28-2.1.06-3.61.49-.36-1.38-1.15-2.39-2.25-3.18Z"/>
            <path class="cls-13" d="M51.46,15.26c.66.99,1.52,1.89,2.67,2.51-1.58.42-2.99-.46-4.57-.58-.02-.97.81-1.65,1.9-1.93Z"/>
            <path class="cls-55" d="M53.72,13.47c.48-.28,1.13-.29,1.7-.18,1.06.21,2.08.54,3.05.95,2.79.15,2.24,1.42-.69.84-1.7-.24-3.5-.3-5-1.06l.94-.55Z"/>
            <path class="cls-85" d="M58.46,14.23c1.22.07,2.62-.34,3.82-.12,1.12-2.18,4-1.75,4.76.58.52.23-.01.7-1.59,1.41.8-.17,1,.07.64.7-.17.82-.5.87-1.01.15-.89-1.93-4.75-.76-7.31-1.88.38-.16,1.6-.36.69-.84Z"/>
            <path class="cls-30" d="M64.41,17.29l.67-.33c.33.17.75-.08,1.01-.15,3.49,1.53,1.27,3.52-1.63,2.44-.54.63-.95.48-1.25-.33-.92-.93-.04-1.32,1.19-1.63Z"/>
            <path class="cls-83" d="M61.55,17.91c.58-.63,2.02-.63,2.86-.62-.43.49-.61,1.23-1.19,1.63.83,1.02-.49,1.37-1.65.72-2.31-.44-2.31-1.02-.02-1.72Z"/>
            <path class="cls-81" d="M61.55,17.91c-.12,1.49-2.98,1.92-3.72.75l-.46-.82c1.33-.54,3.19-1.06,4.19.08Z"/>
            <path class="cls-46" d="M52.06,21.17c.21-.18.59-.2.82-.36.42.11.82.24,1.25.33,1.93-1.15,5.53-2.72,7.44-1.49.5-.1,1.25-.44,1.65-.72.4.14.82.25,1.25.33.81.35.68.7-.24,1.04l-11.07,2.67c-.36-.04-.72-.06-1.09-.06l-.02-1.72Z"/>
            <path class="cls-7" d="M64.47,19.25c.64-.33,1.42-.48,2.01-.9s-.03-1.12-.39-1.54c.9-.36,2.01-.26,3.32.29-.13.9-.5,1.77-.41,2.68-1.53.38-3.23.9-4.77.51.11-.34.19-.69.24-1.04Z"/>
            <path class="cls-14" d="M57.83,18.66c.72-.57,2.89.16,3.72-.75.08.57.06,1.15.02,1.72l-7.44,1.49c.01-1.41,2.4-1.45,3.7-2.47Z"/>
          </g>
          <g>
            <path class="cls-91" d="M67.04,14.69c.09-2.38,4.5-4.51,6.06-2.05,1.68-.48,1.91.08.46,1.02.76-.16.82.04.27.57.16,1.13.6,2.16,1.31,3.08,1.65-.97,3.53-1.78,5.63-2.41,2.8-.86,5.92-1.9,9.33-3.13,1.36,1.23.56,2.16-2.41,2.77-2.34.49-4.5,1.89-6.68,2.72l-6.31,1.94c-1.76-.12-4.03.15-5.72.57-2.31-.29-1.58-2.25.41-2.68l-3.96-1c-2.12-.77,3.11-1.63,1.59-1.41Z"/>
            <path class="cls-50" d="M81.03,17.27c-2.21.84-3.84,2.12-6.31,1.94,2.03-.68,4.03-2.74,6.31-1.94Z"/>
            <path class="cls-44" d="M73.84,14.23l-.27-.57c1.84-.97,4.19-1.53,7.05-1.7,4.96-.73,7.69-1.95,11.87-4.28.22.08,2.44,2.2,2.46,2.4.01.22-.51.46-1.18.71l-.02,1.85c.72-.34.77-.19.22.4-1.86,1.13-4.18,1.08-6.25,1.51.63-.59,2.13-.52,2.02-1.93-4.88,2.55-9.63,3.72-14.58,4.7-1.14-.81-1.8-1.85-1.31-3.08Z"/>
            <path class="cls-18" d="M94.22,11.55c-.14-.7.14-.81.82-.36,1.67.33,3.71,1.24,3.77,2.7-.05.51-.35.61-.88.32-.64-.13-1.69-.24-2.33-.54-.53-.25-1.1-.42-1.64-.65l-.22-.4c-.87-.65-.69-1.11.48-1.09Z"/>
            <path class="cls-68" d="M74.74,12.19c1.12-1.65,3.38-2.49,6.78-2.53,2.34-1.04,4.28-1.17,5.83-.4l4.21-2.41c-.39-1.64.36-1.32,1.77-.12l2.94,3.06,1.25.33c1.14.57.94,1.1-.4,1.04.27.82-.43.83-2.07.03l-.82.36c-.86.09-1-.17-.47-.76,1.06-1.15-.92-.37-1.22-.65-.58-.54-.69-1.62-1.08-1.62-1.66,0-1.17,2.08-1.89,2.26-2.58.64-4.21,1.6-6.59,3.04l1.8-2.75c-3.86,1.93-7.53,1.94-11.22,2.6l-.46-1.02c.54.01,1.09-.37,1.64-.45Z"/>
            <path class="cls-50" d="M73.84,14.23c1.92,1.67,4.06-.76,6.92-.76-1.52,2.03-5.25,1.55-5.61,3.84-1.58.31-2.47.82-2.56-.92-.04-.81-.06-1.68,1.25-2.16Z"/>
            <path class="cls-108" d="M98.81,13.89c-.44-.7-1-1.62-1.7-2.73-.35-.26-.11-1.02.4-1.04,1.22.32,2.69.76,3.05,1.73.28.76.99,2.41-.01,3.01-1.12.67-2.04-.52-2.62-.64l.88-.32Z"/>
            <path class="cls-44" d="M93.32,6.73c1.12-.43,1.74,1.12,2.1,1.69l.85,1.37c-1.7-.44-2.2-1.89-2.94-3.06Z"/>
            <path class="cls-66" d="M93.75,10.78l.47.76c.26.43.25.98-.48,1.09-.5.01-1.25-.01-1.67-.19-1.09-.47,0-1.01.48-1.12s.8-.42,1.21-.54Z"/>
            <path class="cls-57" d="M95.04,11.19l2.07-.03c.49.36,1.05.6,1.4.91.66.58,1.46,1.4.29,1.83l-3.77-2.7Z"/>
          </g>
        </g>
      </g>
      <path class="cls-63" d="M68.3,13.47l2.39,4.87c.55,1.07.15,1.16-1.21.26l-1.96.18c-.02-1.8-1.05-4.2.78-5.31Z"/>
    </g>
    <g>
      <g>
        <g>
          <g>
            <path class="cls-25" d="M80.91,2.43c.78.07,1.57.07,2.36.01.73.35.61.56-.33.64-1.06,1.84-6.41,1.67-8.75.84-1.82.95-4.79,2.17-6.95,1.42-1.84.53-3.13.1-1.73-1.06,4-2.85,9.53-2.38,15.4-1.85Z"/>
            <path class="cls-24" d="M90.39,2.94c.41-.46.72-.45.96,0l1.37.35c8.95-1.94,8.56,3.42.9,1.72-1.31-.2-2.52-.44-3.65-.7-1.12-.16-2.02-.4-2.68-.7,1.02-.34,1.95-.98,3.09-.67Z"/>
            <path class="cls-95" d="M87.37,2.59c1.04.18,2.47.35,2.5,1.21l-.94-.19c-.68,1.55-5.29.85-5.99-.53l.33-.64c1.33-.09,2.78.31,4.1.15Z"/>
            <path class="cls-58" d="M82.93,3.08c1.95-.06,4.04.47,5.99.53.88.29,1.37.65,1.45,1.09,1.07.26,1.62.62,1.67,1.09.3,2.26-4.24,2.1-4.14-.12l-8.6.62-.73-.59c-4.97.4-6.43-.2-4.4-1.78,2.78-.77,5.77-.74,8.75-.84Z"/>
            <path class="cls-72" d="M74.18,3.92c.59,1.23,2.67,1.5,4.4,1.78-2.02,1.76-11.28,2.84-11.66.55.15-.22.63-.72.31-.92,1.98-1.26,4.41-2.33,6.95-1.42Z"/>
            <path class="cls-71" d="M93.63,5.01l5.55-.86c-2.92-1.28-6.41.38-7.83-1.2,1.46.44,2.78-.35,4.15-.68,1.61-.39,4.53-.31,4.48,1.05-.04.9-.56,2.21-1.88,2.88-.42-.2-1.49.1-2.03.04-3.11,1.07-4.29.94-3.55-.4-.81-.09-1.26-.46-1.85-.75.34-.74,2.13-.48,2.97-.08Z"/>
            <path class="cls-3" d="M89.86,3.8c1.27.28,3.33.32,3.44,1.4l-2.93-.5c-.48-.36-1.44-.48-1.45-1.09.32,0,.64.13.94.19Z"/>
          </g>
          <path class="cls-2" d="M66.92,6.25c3.59,1.16,7.93.02,11.66-.55,3.12-.48,6.59-.8,9.33-.03-4.55,1.04-8.31,2.09-12.69,3.49-2.32,1.69-9.79,4.39-13.23,3.85-.62.43-9.62-.3-9.67-.9-2.75-.15,2.84-2.27.08-2.59-.52-.29-1.96-.41-1.63-1.02,4.29,0,14.42.24,16.16-2.25Z"/>
        </g>
        <path class="cls-19" d="M52.29,5.21c1.22-.2,2.68-.18,4.38.04,2.65.74,7.94.33,7.3.06,1.15-.92,2.97-.11,4.37-.49.36.5.98.82,1.71,1.07,2.05.29,1.85.79-.33.91-4.59,1.15-9.25,2.22-13.95,1.05-.62-.15-.87-.6-1-1.04-3.15.67-6.51-.91-2.49-1.6Z"/>
        <path class="cls-77" d="M48.85,6.63c1.21-.41,3.19-.35,5.93.17,1.41-.54,4.77,1.18,6.4,1.1,2.58-.13,5.84-2.01,8.54-1.11.66.54.85,1.18.12,1.4-5.01,1.48-11.24,1.88-16.31.72-.13,1.09-2.85,1.09-3.16-.03-.89-.53-1.84-.94-3.53-.81.22-1.05,1.48-1.08,2-1.45Z"/>
      </g>
      <path class="cls-29" d="M69.34,6.68l.4-.38c.25-.24.67-.38,1.1-.36.76.03,1.98.07,2.79.09,1.53.04-1.79,1.72-3.14,1.26-.35-.12-1.06-.3-1.14-.61Z"/>
    </g>
    <path class="cls-87" d="M58.34,8.01l1.59-2.74c.87-.84,1.6-1.07,2.19-.69-.81.98-.35,3.36-1.79,4.17-.52-.31-1.84.36-1.99-.74Z"/>
    <path class="cls-86" d="M56.49,0c.41,1.62-1.27,2.67-2.19,3.8-.19.23-.5.36-.74.56-.53-1.93,1.54-3.27,2.93-4.35Z"/>
    <g>
      <path class="cls-79" d="M46.4,8.62c.28-.04.51-.04.7.03.17.05.3.13.39.24.07.07.12.14.16.23.18.47-.11,1.14-.95,1.49.53,1,1.11,2.33.85,3.37-.06.27-.18.52-.37.74.1,1.2-.81,1.56-2.75,1.08-2.33,1.4-3.62,1.82-4.97-.94-.15.22-.28.38-.42.47-.08.06-.17.09-.26.08-.21,0-.41-.22-.59-.64l-.44-1.73c-1.8-3.24-.39-5.6,1.92-2.23.15-.51.39-.6.71-.31.07.06.14.14.22.23,1.72.75,3.02.56,3.89-.56-.2-.2-.36-.38-.48-.52-.09-.13-.17-.24-.19-.33-.22-.52.38-.61,1.61-.54.16-.9.49-.94.99-.15Z"/>
      <path class="cls-41" d="M35.18,14.28c1.26.48,2.07.63,2.99.47.21.12.42.35.59.64.05.07.1.16.15.25h0c.3.57.5,1.29.5,1.91h0c.01.42-.08.79-.29,1.04-.1.07-.2.15-.31.25-.13.49-.34.73-.64.69-.39-.03-.94-.55-1.64-1.57-.39-1.12-1.31-1.83-1.37-3.69Z"/>
      <path class="cls-69" d="M39.44,14.85c2.56.51,5.16.24,7.73-.13.94-.27,1.27,2.05.56,2.81-.64.65-.81,1.73-.54,3.25.84,1.73-.08,2.04-1.78,1.12-.35,2.23-2.5,1.16-3.32-.53-.84-.29-1.43-1.19-2.16-1.64-.56-1.68.77-1.37.9-.49.04.26-3.21-3.1-1.39-4.39Z"/>
      <path class="cls-40" d="M47.72,17.52l-.56-2.81-.47-4.11c2.19.95,1.2,7.44,3.01,6.63l.19,1.18c.88,1.15,1,2.51-.59,2.92-1.37,1.63-2.01,1.15-1.14-.84-1.25-.61-2.44-2.62-.44-2.97Z"/>
      <path class="cls-8" d="M44.47,10.16c.22,1,.61,2.03.35,3.25-2.11-.11-3.3-1.42-4.24-2.7.22-1.85,2.99-2.05,3.89-.56Z"/>
      <path class="cls-88" d="M38.17,14.75c.37-.07.89.02,1.26.09-.21,1.75.96,3.18,2.44,4.1-1,1.01-1.6.69-1.96.78-.38-.23-.7-.73-1.1-.88l-.65-4.09Z"/>
      <path class="cls-78" d="M47.72,17.52l.44,2.97c-.04.92-.37,1-.98.28-.76-1.59-2.09-2.41-4.56-2.87.64-.63,1.96-1.83,2.71-1.44.8.42,1.44,1.11,2.39,1.06Z"/>
      <path class="cls-54" d="M47.19,20.77l.98-.28c.22.46.62.81,1.14.84.06,1.1-.27,2.34-1.54,2.42l-2.35-1.86c.53-.46,1.15-.81,1.78-1.12Z"/>
      <path class="cls-28" d="M36.25,9.28c0,1.39.34,2.85,1.48,3.74l.44,1.73c-.93.16-1.73,0-2.99-.47.05,1.86.98,2.56,1.37,3.69-2.25-.86-4.62.24-6.55,1.54l-3.92,1.13c-.93-.34-.64-1.13-.56-1.85.27-2.45-.31-4.97-1.83-6.91,2.12,1.8,2.8,1.47,2.57-1.26l5.15-.79c1.61-.24,3.2-.62,4.84-.56Z"/>
    </g>
    <path class="cls-107" d="M22.16,22.34l3.78-.93c.71.27,1,.84.32,1.33-.56,2.81-2.82,3.49-6.78,2.02-1.25-1.22-.36-2.03,2.67-2.42Z"/>
    <path class="cls-75" d="M26.26,22.74l.15.99c.76.31,1.19.92,1.28,1.83,1.81,1.96-3.51,4.23-3.88,1.59-1.05.77-3.18-.26-4.03-1.29l-.29-1.1c2.4-.11,4.62-1.01,6.78-2.02Z"/>
    <path class="cls-80" d="M40.32,8.52c1.7-.37,3.47-.44,5.09.25-.28.48-.6.95-.94,1.39-1.32.03-2.62.23-3.89.56l-.92.08.66-2.28Z"/>
    <g>
      <path class="cls-37" d="M47.69,6.93c2.44-1.25.3-3.01,2.57-3.85,2.93-2.35,12.19-.69,10.11,1.2-.87.8-3.19,2.2-3.19,2.2l-.17,1.15c.38.35-2.69,2.24-2.69,2.24l-1.14,2.16-4.99.37s-.1-.44-.23-1.02c-.13-.53-2.09-.72-2.41-1.19-.71-1.05.28-2.29,2.15-3.25Z"/>
      <g>
        <path class="cls-23" d="M46.72,6.75s2.7-.67,2.74-.85c.16-.64,7.38-3.31,9.11-3.36l.99.71c.96.05.98.28.12.66-.2,1.52-6.81,4.74-8.99,5.43l-2.3-.48c-2.71.35-4.06-1.28-1.67-2.13Z"/>
        <path class="cls-86" d="M48.54,19.82c-.17-1.05-.41-2.08-.72-3.08-1.47.28-1.51-.14-.13-.67-1.37-1.81-1.61-3.5-.73-5.08.91-.21,1.29-.83,1.58-1.26,3.55-1.52,4-4.23,8.09-5.15.71-.49,5.35,4.14,3.59,5.49-.93.72-.91,1.69.07,2.26,2.72,1.59,5.79,6.79,3.99,6.4.38.5.1.69-.83.57-.22.24-.53.6-.83.96-.61.74-1.59,1.35-2.79,1.75l-1.18.4c-1.96.66-4.15.99-6.26.86-1.04-.06-2-.24-2.5-.62-.44.06-.78-.22-1.16-.21.02-.61.39-1.92-.19-2.61Z"/>
        <path class="cls-96" d="M44.7,10.54c-.06-.34.42-.66.87-.79l1.28.57c.19,1.99.5,3.97.88,5.95l-1.18.49-1.61-4.89-.23-1.33Z"/>
        <path class="cls-10" d="M59.09,20.51s2.44-.14,4.36-.21c2.57.63-11.08,4.38-11.6,4.24l1.95-2.47c-1.11-.54-2.09,1.38-2.18-.84,2.78,0,4.82-1.26,7.47-.72Z"/>
      </g>
    </g>
    <path class="cls-27" d="M23.92,28.28c-1.9.37-1.98-.39-.11-1.13,1.34.2,3.26-.35,3.88-1.59.15-.68.64-.76.99-.15l.44,2.97c-.32-.02-.67.11-.99.15.03.9-.32.9-.99.15-.17,1.58-.43,2.46-1.83,1.28l-.99.15-.41-1.83Z"/>
    <path class="cls-22" d="M18.63,28.34c-.01-.81.25-1.69.01-2.44.28-.88.66-.87,1.13-.04,1.95-.04,2.66,1.26,1.29,2.71.27.48-.49,1.26-.94,1.24-.43-.5-1.48-.54-1.49-1.48Z"/>
    <path class="cls-42" d="M19.77,25.86c.67-.21,1.35-.21,2.21-.37.98-.19,1.2,1.38,1.82,1.67l.11,1.13-2.85.29c-.49-.88-1.03-1.73-1.29-2.71Z"/>
    <g>
      <path class="cls-9" d="M25.83,7.85c.63.05,1.07.14,1.32.28.52.29.19.78-.97,1.48.34.08.55.18.64.3.14.19-.05.43-.55.72.23,2.74-.45,3.06-2.57,1.26.2,2.71-.71,2.73-1.9.33-.48.49-.89.75-1.18.81-.07.02-.13.02-.18,0-.33-.03-.45-.42-.3-1.14.08-.19.13-.39.16-.61.14-.93-.3-1.99,0-2.93l1-.35c1.3-.98,3.28-1.3,4.54-.16Z"/>
      <path class="cls-47" d="M26.87,6.47c1.32,1.45.81,2.08-1.04,1.37-1.51.23-3.03.49-4.54.16.43-2.49,3.55-1.57,5.58-1.53Z"/>
      <path class="cls-101" d="M25.83,7.84l1.04-1.37c.34-.16.81-.11,1.13-.31.78.8,1.93.97,3.01.94,1.31,1.16.4,1.83-2.73,2.01-.46.94-1.22,1.1-2.11.49-.57-.38-.75-1.22-.34-1.76Z"/>
      <path class="cls-99" d="M31.49,8.26h0c.27.25.24.77-.08,1.58l-5.15.79-.09-1.02c.71-.14,1.39-.4,2.1-.49,1.73-.93,2.81-1.21,3.22-.85Z"/>
      <path class="cls-94" d="M39.82,4.71c2.05.57,4.18-.03,6.03-.99,2.12.66,2.19,1.76.17,2.69.26,2.05-5.25,1.88-5.92-.12-.43,3-2.44,2.62-2.2-.45-.29-.81.35-1.18,1.92-1.13Z"/>
      <path class="cls-20" d="M45.85,3.73c1.26-.04,2.52.16,3.77.32l.43,2.24c2.08,2.18,1.3,3.25-1.49,2.09-1.25,1.36-1.72.87-1.31-.89-1.45.85-2.02.43-1.22-1.07.08-.9.06-1.81-.17-2.69Z"/>
      <path class="cls-45" d="M34.49,3.32l2.97-.44.15.99c-.08,1.11-.64,1.87-1.68,2.27,1.6,3.24-.96,2.15-2.97.44-.92-1.05.52-2.46,1.54-3.26Z"/>
      <path class="cls-74" d="M37.6,3.87c.79.13,1.46.64,2.22.85.37,1.03-1.27.95-1.92,1.13-.27,2-1.14,2.12-1.98.29-.08-.41-.22-.94-.06-1.42.22-.67,1.09-.84,1.74-.86Z"/>
      <path class="cls-60" d="M32.39,6.19c.15.05.34.18.56.39,1.79.46,2.9.97,3.32,1.54.28.37.27.76-.02,1.17-1.64-.06-3.23.32-4.84.56-.45-.71-1.23-.86-2.03-.83h-.04c-.36.02-.73.06-1.07.1.88-.72,1.96-1.15,2.73-2,.32,0,.67-.11.98-.18-.04-.6.1-.84.39-.75Z"/>
      <path class="cls-65" d="M34.49,3.32c.06,1.29-.9,2.21-1.54,3.26-.33.09-.63.29-.96.35-.09-.7-.21-1.49.13-2.28s1.4-1.24,2.36-1.34Z"/>
      <path class="cls-11" d="M35.92,6.14c.65-.13,1.34-.11,1.98-.29.64.47,1.43.53,2.2.46.14.1.27.18.41.26.54.37.88.69,1.03.96.25.43-.01.74-.77.9-.16.02-.31.06-.46.09.85.3,1.3.56,1.41.79h.01c.18.36-.27.68-1.07,1.05-.09.04-.2.09-.3.14-.22.09-.46.2-.71.31-.68.08-1.65.15-1.94.73-.26.5-.11,1.1.02,1.49-1.13-.89-1.47-2.35-1.48-3.74-.87-1.38-3.45-.44-3.3-2.7,1.03.16,2.31.55,2.97-.44Z"/>
      <path class="cls-61" d="M40.1,6.3c1.76,1.29,3.96.71,5.92.12.44.32.85.68,1.22,1.07,1.02,1.16.59,1.8-.84,1.14l-.99.15c-1.43.78-3.98,1.03-5.09-.25.2-.69-.27-1.49-.22-2.22Z"/>
    </g>
    <g>
      <path class="cls-33" d="M37.39,16.95c2.23-.23,3.31,2.1,1.66,4.15-.47.75-1.23,1.01-1.99.85-.22-.04-.43-.11-.64-.22-.53-.26-1.04-.71-1.41-1.32.1,2.86-1.27,2.8-2.02.02-1.37.57-2.62.89-3.75.91-1.27.05-2.37-.26-3.33-.89-.18-.04-.32-.11-.43-.18-.47-.27-.39-.68.22-1.21-.54-.06-.88-.28-.99-.56-.14-.36.05-.84.59-1.31l.09-1.06,3.88-1.34c3.32-.99,6.02-.26,8.1,2.17Z"/>
      <path class="cls-103" d="M35.81,13.01c.96.78,1.53,1.54,1.74,2.28.17.57.11,1.12-.17,1.66l-5.49-.64c-.72-.08-1.56.2-2.16-.26-.25-.2-.41-.69-.44-1.27,1.87-1.7,4.2-3.09,6.52-1.77Z"/>
      <path class="cls-39" d="M36.03,22.84c.4-.63,1.41-1.21,3.02-1.74-.32-1.62-.89-2.81-1.66-4.16-.65-1.14-1.2-2.61-1.57-3.93l7.12,1.45s-.58.76-1.33,3.61c.31,1.13.05,1.55-.79,1.27.18,1.49,1.1,2.87,2.75,4.15,1.78-1.66,3.26-1.46,4.45.6,1.5-2.84,1.86-2.67,2.1,1.03.17-2.9,2.63-1.59,2.96.99.27,1.68-.7,2.07-1.79,2.23-3.43-.4-7.07-3.37-10.24-1.38-3.91,1.34-7.88,1.84-11.91,1.52-.71-.31-.77-.78-.21-1.39.75-2.74,4.79-5.06,7.1-4.25Z"/>
      <path class="cls-102" d="M41.04,26.96c-1.59,1-2.82,1.58-4.78,1.87l-5.93.88c-.99,1.96-1.4,1.23-1.2-1.24,3.94-.72,7.89-1.41,11.91-1.52Z"/>
      <path class="cls-102" d="M28.31,22.93c.55-1.9,2.11-2.73,4.68-2.5.67.03,1.35-.17,2.02-.03,1.44.6,1.78,1.41,1.02,2.44-2.02,2.52-4.14,4.65-7.1,4.25-3.05.19-2.64-2.05-.62-4.16Z"/>
      <path class="cls-15" d="M25.92,20.45c2.36.12,4.91-1.95,7.07-.01-1.41,1.25-2.92,2.36-4.68,2.5.07,1.76-.55,1.84-.99.15-.31.17-1.59.48-1.98-.35-.24-.51.75-1.48.58-2.28Z"/>
      <path class="cls-27" d="M39.04,21.1c.34,1.7-.22,1.84-1.11,1.8-.67-.03-1.52-.28-1.9-.06-.44-.74-.78-1.56-1.02-2.44,1.34.29,2.69.62,4.03.7Z"/>
      <path class="cls-48" d="M47.46,21.73c-.59-2.14-.29-3.26,1.41-3.29-.11-1.27-.94-3.99.42-4.04,1.28.55,2.37,1.85,2.23,4-.07,1.08-.48,2.43-.92,3.58,1.64,1.65,1.42,3.03-.5,3.13-.72-.24-1.42-.62-2.1-1.03-1.83-.21-2.04-1.2-.55-2.36Z"/>
      <path class="cls-49" d="M50.61,21.99c.73-1.42,1.45.45,2.1.89,1.34.9.16,1.98.36,3.24l-2.96-.99c-.12-1.15.13-2.18.5-3.13Z"/>
      <path class="cls-102" d="M41.88,14.22c1.08.57,2.28.56,3.38.93,1.75-1.09,3.07,4.05,2.19,6.58.45.49.38,1.69.55,2.36-1.15.62-4.37,2.38-4.45-.6-2.02-1.29-2.93-2.67-2.75-4.15.09-.61.74-4.77,1.07-5.12Z"/>
      <path class="cls-34" d="M40.81,19.34c.69,2.35,3.45,1.26,2.75,4.15-.89.22-1.8-.08-2.71-.91-1.01-.91-.89-2.17-.04-3.25Z"/>
    </g>
    <g>
      <g>
        <path class="cls-67" d="M47.66,17.02c1.19.04,2.44-.5,3.44-1.42-.59-1.06-.07-1.63-2.27-.91-1.25.41-2.57-.37-3.19,1.55-.58,2.16.31,2.83,2.01.78Z"/>
        <path class="cls-73" d="M50.32,20.72c2.2-1.96,1.65-3.56.79-5.13-1.08-.56-2.87,0-3.44,1.42-1.08-.03-1.31.34-.71,1.1-.89,1.27-.6,2.23.85,2.87.69-.03,1.81-.4,2.52-.27Z"/>
        <path class="cls-43" d="M47.8,20.99c.46-.43.81-1.03.72-1.48-.16-.82-.9-1.18-1.58-1.39-1.62.22-2.11,2.08-2.36,3.55l.88.43c.47-.45,1.74-1.09,2.33-1.12Z"/>
        <path class="cls-31" d="M46.95,18.12l.71-1.1-2.01-.78c-.12.38-.55.73-.71,1.1.59,1.35-1.37,3.14-.35,4.34.85-1.16,1.59-2.36,2.36-3.55Z"/>
      </g>
      <g>
        <path class="cls-76" d="M45.47,22.11c.5-1.04.18-1.16-.88-.43.06-1.86-1.14-2-3.61-.43-.38.06-.75,0-1.13.08-2.38,1.21-2.65,2.51-.68,3.36-2.45,1.09-3.46,2.86-.61,2.59,1.97-1.43,5.22-3.58,6.91-5.17Z"/>
        <path class="cls-106" d="M35.81,29.27c.89-.33,1.94-1.41,2.74-1.99-.55-.7.02-1.74.61-2.59.25-1.49-.02-1.66-1.25-.42-2.7,1.12-4.89,2.57-6.59,4.34-1.08.06-1.21.43-.49,1.07-2.12,1.05-2.13,1.42.02,1.3.61,2.06,2.26,1.49,4.96-1.71Z"/>
        <path class="cls-104" d="M31.03,27.12c2.03-.06,4.32-1.01,6.88-2.84.45-.05.81.4,1.25.42.37-1.13.67-2.27.68-3.36-4.14.86-8.18,3-11.54,6.1-1.36,2.8,2.26,2.22,2.73-.32Z"/>
        <path class="cls-98" d="M44.59,21.68c1.39-2.69,1.51-4.14.35-4.34-.98,1.56-2.28,3-3.96,3.91,1.04.5,2.23.91,3.61.43Z"/>
        <path class="cls-110" d="M37.92,24.27c-2.35.26-4.75,1.37-6.88,2.84-.85.89-.76,1.39.29,1.49,2.44-.89,4.91-2.21,6.59-4.34Z"/>
      </g>
      <g>
        <path class="cls-109" d="M22.42,27.34c.76,2.07,4.86,3.54,5.46,1.26,1.53,1.88,3.67,2.52,3.93.25-.01-.35-.1-.72-.15-1.07-1.46-.9-4.27-2.38-3.93-.25-1.79-1.09-3.06-2.25-4.42-3.69-.55-.99-.99-1.03-1.32-.11-2.77-.83-5.36-1.48-3.51,1.23,1.46.57,2.61,1.63,3.93,2.38Z"/>
        <path class="cls-16" d="M28.45,32.76c.46-.07,1.18.26,1.52.05l1.12-.65c.63-1.66-.91-3.23-3.21-3.56-1.79-.31-3.78-.32-5.46-1.26-.22.44-.51,1-.29,1.41.8,1.49,4.69,2.09,6.32,4.01Z"/>
        <path class="cls-6" d="M31.09,32.16c.28-.16.87.04,1.18-.09.5-.22.84-.62,1.16-.99-1.04-.51-1.58-1.32-1.61-2.22-1.2-.39-2.7-.04-3.93-.25.35,1.46,1.73,2.61,3.21,3.56Z"/>
      </g>
    </g>
    <g>
      <path class="cls-93" d="M11.77,21.87c.23-1.61,4.17-2.08,5.77-1.22,2.88-1.74,4.04.13,3.39,3.04l-8.77,1.79-.08-1c-2.66-.65-2.96-1.67-.3-2.61Z"/>
      <path class="cls-59" d="M17.74,18.06l1.99-.3.49,3.3-7.61,1.92c-1.64.41-2.25-1.87-3.2-3.29,2.77-.59,5.53-1.22,8.33-1.64Z"/>
      <path class="cls-84" d="M4.19,10.89c.94-.57,3.55-.37,4.18.36.92.9.27,1.27-1.94,1.09.3,1.91-1.76,3.07-3.35,3.69.06,2.58-.54,3.54-1.8,2.89l-.57-.52c-.89,0-.93-.28-.17-.82.83-2.41,1.33-5.28,3.65-6.69Z"/>
      <path class="cls-21" d="M17.57,11.9c.89-.25,1.8-.46,2.72-.61,1.27,1.03-.59,4.53-2.28,3.58-1.19,1.52-1.79,1.04-1.14-.84-2.57-1.22-1.84-1.87.69-2.13Z"/>
      <path class="cls-70" d="M8.37,11.25c.31,0,.68-.2.99-.15l1.28,1.83c.62.21.66.54.15.99.25,1.47-1.25,1.49-1.98.29-1.44.34-2.14-.45-2.39-1.87.55-.3,1.19-1.09,1.94-1.09Z"/>
      <path class="cls-89" d="M23.69,11.89c1.52,1.94,2.1,4.46,1.83,6.91-1.65,2.16-4.14.68-4.96-1.4-.19-.48-.3-.98-.28-1.47-.52-.33-.71-.8-.65-1.32.05-.53.36-1.11.8-1.55.08-.08.15-.15.23-.22.34-.3.74-.51,1.13-.6.6,0,1.3-.23,1.9-.33Z"/>
      <path class="cls-26" d="M18.01,14.87c.87-1.07,2.05-2.14,2.28-3.58.52.19.99.8,1.51.93-.63,1.18-1.18,2.4-1.51,3.7,1.39,1.53.74,2.07-.98.78l-.99.15c-2.13.27-2.32-1.22-.29-1.98Z"/>
      <path class="cls-32" d="M1.28,18.93l1.8-2.89c2.6-.1,2.54.68.41,2.13,2.38.11,4.01,3.63,2.52,5.5.84,1.92.08,2.31-1.65,1.21-1.13-.2-2.44-.11-2.96-1.37l-.12-4.58Z"/>
      <path class="cls-62" d="M6.43,12.34c.44-.03.97-.08,1.52.11.63.22.81,1.07.86,1.76,1.73.01,1.8.73.11,1.37.27,1.3-5.09,1.62-5.84.45.2-1.94,1.33-3.57,3.35-3.69Z"/>
      <path class="cls-56" d="M.71,18.41c.55-.39.78-.03.57.52.16,1.5,1.2,3.38.12,4.58-.67-1.62-.91-3.36-.7-5.1Z"/>
      <path class="cls-105" d="M15.08,16.5c-1.06-1.15-1.09-2.87.81-2.33l.99-.15,1.14.84.29,1.98c-.75,1.74-1.66,2.54-2.73,2.42-2.85.92-1.62-1.41-.5-2.77Z"/>
      <path class="cls-35" d="M10.65,12.93l2.13.69c2.02.2,2.59,1.31,1.39,2.98.49,1.67-.07,1.8-1.7.38-.93-.17-1.06-.57-.38-1.23-1.49-.26-2.58-.59-1.28-1.83l-.15-.99Z"/>
      <path class="cls-100" d="M13.76,13.48c.76-.11,1.54.18,2.13.69l-.81,2.33c-.1.9-.42.91-.92.1-.24-1.08-.66-2.13-1.39-2.98l.99-.15Z"/>
      <path class="cls-51" d="M8.81,14.22l1.98-.29,1.28,1.83c-.98,1.23-3.08,1.7-3.16-.17l-.11-1.37Z"/>
      <path class="cls-53" d="M6.01,23.66c1.21-2.42,2.26-1.97,2.31.72.87-1.48,2.32-.82,3.14.53.89-.06.87.17.06.66,1.61,1.08,1.22,1.76-.73,1.37-1.26-.23-2.59,0-3.86-.13-.99-.09-1.68-1.71-2.57-1.94.38-.6.98-1,1.65-1.21Z"/>
      <path class="cls-4" d="M20.28,15.92c2.18.17,3.17,2.47,5.24,2.88-.08.72-.37,1.51.56,1.85.86.25.78.51-.14.77-.02.37-.27.71-.64.97-.92.65-2.59.87-3.14-.04-.55.42-1.06.74-1.5.98-.73.39-1.3.55-1.72.47-.5-.1-.78-.51-.85-1.26l-.03-.59s-.08-.02-.13-.03c-.74-.2-.75-.53-.02-.96-1.33-.27-1.57-1.06-1.22-1.91h0c.24-.57.74-1.16,1.35-1.63.39-.3.82-.55,1.26-.71.43-.06.78-.41.99-.78Z"/>
      <path class="cls-36" d="M15.58,19.27c.56-1.15,1.45-2.23,2.73-2.42l.99-.15c-1.28,1.06-1.91,2.64-1.39,4.25.37,2.51-1.55,1.96-2.97.44-.19.71-.52.75-.99.15-2.32-1.08-.23-2.47,1.63-2.27Z"/>
      <path class="cls-64" d="M3.08,16.03l5.84-.45c.99.46,2.1.38,3.16.17.24.34.19.86.38,1.23-.13,1.47-1.61,1.41-2.89,1.1-1.91-1.53-4.01-.9-6.07.08-.03-.71-.53-1.39-.41-2.13Z"/>
      <path class="cls-5" d="M9.69,18.88c1.07-.49,1.99-1.12,2.76-1.9l1.7-.38.92-.1.5,2.77-1.63,2.27c-1.13,1.04-2.75,1.33-4.16.74-.99-.93-.74-2.26-.1-3.4Z"/>
      <path class="cls-97" d="M11.52,25.57c.35-2.16,4.02-2.35,5.8-1.18.06-.89.34-.88.83-.06,1.5-.93,1.14.21.49,1.57,1.1.35,1.53,2.35-.01,2.44-2.55.54-5.06-.63-7.67-.54l-.16-.85.73-1.37Z"/>
      <path class="cls-1" d="M9.79,22.28c.92,0,1.41.31,1.49.91l.2,1.73c-1.04-.14-2.14-.17-3.14-.53-.09-.37-.23-.85-.12-1.4.13-.65,1-.59,1.58-.7Z"/>
      <path class="cls-12" d="M18.15,24.33c-1.28-.74-2.04-2.22-.1-2.39,1.29.59,2.72.63,4.1.4-1.05.26-2.03,1.48-2.67,2.42,1.77-.05,1.87.26.29,1.1-.35.11-.77-.03-1.13.04l-.49-1.57Z"/>
      <path class="cls-90" d="M14.94,21.39l2.97-.44c.1.31.13.67.15.99l.1,2.39c-.24.08-.59.01-.83.06-.68-.74-1.42-1.42-2.24-2.01-.91-.15-.94-.48-.15-.99Z"/>
      <path class="cls-52" d="M12.45,16.98c.32.37.88.59,1.18,1.84-1.45.6-2.69.15-3.95.05l-.13-.8c.59-1.03,1.86-.87,2.89-1.1Z"/>
      <g>
        <path class="cls-92" d="M13.47,11.5c1.68.76,2.18,1.38.29,1.98-.17.84-.5.87-.99.15-.27,1.68-1.37.46-2.13-.69-1.13,1.12-2.05-.68-1.28-1.83,1.33.24,2.79.05,4.1.4Z"/>
        <path class="cls-35" d="M13.47,11.5c1.35.36,2.68.8,4.1.4l-.69,2.13c-.15.91-.48.94-.99.15-.82,1.59-1.87.9-2.13-.69l-.29-1.98Z"/>
      </g>
      <path class="cls-82" d="M3.49,18.16c.39-2.21,6.06-2.69,6.07-.08.89.03.92.3.13.8,1.89,1.22,1.84,2.01.1,3.4.49,1.22-.24,1.74-1.46,2.1-.69-.25-1.72-.33-2.31-.72-1.54-1.49-2.43-3.37-2.52-5.5Z"/>
    </g>
  </g>
</svg>