<?xml version="1.0" encoding="UTF-8"?>
<svg id="Enemy" xmlns="http://www.w3.org/2000/svg" viewBox="0 0 63.08 118.18">
  <defs>
    <style>
      .cls-1 {
        fill: #191211;
      }

      .cls-2 {
        fill: #525252;
      }

      .cls-3 {
        fill: #f4ae7c;
      }

      .cls-4 {
        fill: #f9cc9c;
      }

      .cls-5 {
        fill: #fbebbd;
      }

      .cls-6 {
        fill: #c4977d;
      }

      .cls-7 {
        fill: #342525;
      }

      .cls-8 {
        fill: #b97d5b;
      }

      .cls-9 {
        fill: #3b3a3b;
      }

      .cls-10 {
        fill: #181716;
      }

      .cls-11 {
        fill: #474038;
      }

      .cls-12 {
        fill: #634432;
      }

      .cls-13 {
        fill: #45352f;
      }

      .cls-14 {
        fill: #3c2d26;
      }

      .cls-15 {
        fill: #21282a;
      }

      .cls-16 {
        fill: #d9e021;
      }

      .cls-17 {
        fill: #cbaf8f;
      }

      .cls-18 {
        fill: #3c2b26;
      }

      .cls-19 {
        fill: #121212;
      }

      .cls-20 {
        fill: #41332d;
      }

      .cls-21 {
        fill: #4a4c4d;
      }

      .cls-22 {
        fill: #6c6153;
      }

      .cls-23 {
        fill: #151414;
      }

      .cls-24 {
        fill: #2d2d2d;
      }

      .cls-25 {
        fill: #1d1917;
      }

      .cls-26 {
        fill: #46250d;
      }

      .cls-27 {
        fill: #222121;
      }

      .cls-28 {
        fill: #fff;
      }

      .cls-29 {
        fill: #483835;
      }

      .cls-30 {
        fill: #412e2d;
      }

      .cls-31 {
        fill: #725f56;
      }

      .cls-32 {
        fill: #444445;
      }

      .cls-33 {
        fill: #333434;
      }

      .cls-34 {
        fill: #ad7f60;
      }

      .cls-35 {
        fill: #be8766;
      }

      .cls-36 {
        fill: #1c1512;
      }

      .cls-37 {
        fill: #53423c;
      }

      .cls-38 {
        fill: #16100d;
      }

      .cls-39 {
        fill: #c5997d;
      }

      .cls-40 {
        fill: #8d776d;
      }

      .cls-41 {
        fill: #6d665c;
      }

      .cls-42 {
        fill: #332b22;
      }

      .cls-43 {
        fill: #232020;
      }

      .cls-44 {
        fill: #545352;
      }

      .cls-45 {
        fill: #221916;
      }

      .cls-46 {
        fill: #25201c;
      }

      .cls-47 {
        fill: #2d2116;
      }

      .cls-48 {
        fill: #504f4e;
      }

      .cls-49 {
        fill: #23201f;
      }

      .cls-50 {
        fill: #f6cba4;
      }

      .cls-51 {
        fill: #debba5;
      }

      .cls-52 {
        fill: #1a1110;
      }

      .cls-53 {
        fill: #6c4d40;
      }

      .cls-54 {
        fill: #3b3b3b;
      }

      .cls-55 {
        fill: #5d610e;
      }

      .cls-56 {
        fill: #282828;
      }

      .cls-57 {
        fill: #ae875f;
      }

      .cls-58 {
        fill: #4b4e4e;
      }

      .cls-59 {
        fill: #48474b;
      }

      .cls-60 {
        fill: #9ba018;
      }

      .cls-61 {
        fill: #1d1719;
      }

      .cls-62 {
        fill: #f1c8a0;
      }

      .cls-63 {
        fill: #d38269;
      }

      .cls-64 {
        fill: #704934;
      }

      .cls-65 {
        fill: #c8b41e;
      }

      .cls-66 {
        fill: #e5c294;
      }

      .cls-67 {
        fill: #787674;
      }

      .cls-68 {
        fill: #717171;
      }

      .cls-69 {
        fill: #bda4a1;
      }

      .cls-70 {
        fill: #e5ed23;
      }

      .cls-71 {
        fill: #1d1d1d;
      }

      .cls-72 {
        fill: #bb8c63;
      }

      .cls-73 {
        fill: #e19e71;
      }

      .cls-74 {
        fill: #7f6248;
      }

      .cls-75 {
        fill: #1b1b1b;
      }

      .cls-76 {
        fill: #90634c;
      }

      .cls-77 {
        fill: #2b2525;
      }

      .cls-78 {
        fill: #554944;
      }

      .cls-79 {
        fill: #25272c;
      }

      .cls-80 {
        fill: #37312f;
      }

      .cls-81 {
        fill: #d5b39b;
      }

      .cls-82 {
        fill: #b88a76;
      }

      .cls-83 {
        fill: #332420;
      }

      .cls-84 {
        fill: #fcb17f;
      }

      .cls-85 {
        fill: #f8ba88;
      }

      .cls-86 {
        fill: #c8ab8e;
      }

      .cls-87 {
        fill: #190d0d;
      }

      .cls-88 {
        fill: #554239;
      }

      .cls-89 {
        fill: #523f3a;
      }

      .cls-90 {
        fill: #2d2421;
      }

      .cls-91 {
        fill: #292929;
      }

      .cls-92 {
        fill: #1e1616;
      }

      .cls-93 {
        fill: #daad8c;
      }

      .cls-94 {
        fill: #bb7c59;
      }

      .cls-95 {
        fill: #906245;
      }

      .cls-96 {
        fill: #100a0a;
      }

      .cls-97 {
        fill: #ac8675;
      }

      .cls-98 {
        fill: #cca489;
      }

      .cls-99 {
        fill: #2f302e;
      }

      .cls-100 {
        fill: #070707;
      }

      .cls-101 {
        fill: #24160b;
      }

      .cls-102 {
        fill: #9f806b;
      }

      .cls-103 {
        fill: #1b1c19;
      }

      .cls-104 {
        fill: #d19b7f;
      }

      .cls-105 {
        fill: #646258;
      }

      .cls-106 {
        fill: #201d1b;
      }

      .cls-107 {
        fill: #393533;
      }

      .cls-108 {
        fill: #c89f86;
      }

      .cls-109 {
        fill: #cba387;
      }

      .cls-110 {
        fill: #43271b;
      }

      .cls-111 {
        fill: #161616;
      }

      .cls-112 {
        fill: #574b3d;
      }

      .cls-113 {
        fill: #fed1a8;
      }

      .cls-114 {
        fill: #2a2420;
      }
    </style>
  </defs>
  <g id="BadGirl">
    <g id="back-leg">
      <path class="cls-91" d="M54.37,87.54c-.38-.62-1.34-3.3-1.72-4.36s-2.06-3.16-2.11-3.88-.38-6.18-.43-7.47-.53-7.28-.81-8.47-2.06-5.36-4.55-7.56,1.1-4.4-8.23-4.93c-9.34-.53-11.39-.96-12.26-.77s-2.63,3.83-3.02,5.03-1.34,4.69-.48,6.03,4.55,3.16,6.41,4.02,6.03,1.01,7.8,1.53,3.02,1.24,3.02,1.87,1.2,4.21,1.2,5.07.91,4.12,1.34,5.41,3.69,6.56,4.5,7.28,2.3,3.78,2.59,4.31,2.87,5.41,3.64,5.55,2.44.43,2.97-.14,2.01-2.59,1.87-3.64-1.72-4.88-1.72-4.88Z"/>
      <path class="cls-36" d="M48.85,63.3l.05,1c-2.94,2.12.92,9.65.09,15,1.52,5.06-1.59,2.8-3.04-1.11-.61-1.64-.89-5.48.9-5.89l-1.18-5.11c-.87-.21-.84-.48.04-.81l2.14-3.08c.32-.05.76.17,1,0Z"/>
      <path class="cls-20" d="M45.57,68.11c.65,1.06,1.08,2.46,1.28,4.19-.25,2.92.24,5.59,1.32,9.13.47-.65.61-1.38.81-2.13,1.66.62,1.05,2.78,2.04,3.91-.61.61-.88,1.36-1.01,2.19.21,2.11-.57,2.17-1.41.16-3.04-3.78-5.98-7.67-5.75-12.76.03-.67.59-1.14,1.18-1.49-1.91-2.66-.69-6.69,1.52-3.2Z"/>
      <path class="cls-77" d="M54.08,91.34c-1.59,1.18-1.38,3.31-1.27,5.11-3.11-1.05-7.37-9.38-4.2-10.89.36.04,1.22.24,1.41-.16,2.38,1.26,4.63,3.05,4.07,5.94Z"/>
      <path class="cls-83" d="M42.49,65.56c.95.94,1.47,2.86,1.56,5.75,1.19,1.06-.24,5.16.38,6.68.98,2.4,4.65,4.52,4.18,7.57-.57.91-1.43,1.43-1.96.84-3.63-4.01-6.1-9.74-5.99-15.19-1.6.45-2.42-2.15-.92-3.03.48-1.12.78-2.24.08-3.79,1.57-.34,1.99.85,2.68,1.16Z"/>
      <path class="cls-29" d="M45.7,66.38l-.04.81-.09.92c-.75-.22-1.56-.42-1.57.12-.01.99-.36,2.72.05,3.08-1.65-1.14-2.33-3.91-1.56-5.75,1.05.27,2.58-.4,3.22.82Z"/>
      <path class="cls-92" d="M39.73,68.19l.92,3.03c.02,1.21-.31,1.9-.99,2.08-.16-1.26-2.22-2.55-1.83-4.16.58-.17.99-1.59,1.9-.95Z"/>
      <path class="cls-91" d="M46.85,72.3c-1.47-.81-1.09-2.75-1.28-4.19-.04-.3.08-.61.09-.92,1.77.93,1.34,3.36,1.18,5.11Z"/>
    </g>
    <g id="back-shoe">
      <path class="cls-25" d="M62.44,112.96c.05-1.44.1-2.9-.21-4.31-.26-1.21-.78-2.36-1.03-3.57-.22-1.05-.25-2.16-.76-3.1-.15-.27-.34-.52-.45-.81-.16-.4-.17-.84-.2-1.26-.11-1.4-.53-2.76-.99-4.09-.57-1.64-1.21-3.25-1.84-4.86-.49-1.23-.98-2.47-1.63-3.63-.58-1.03-1.29-2-2.24-2.7s-2.15-1.12-3.32-.95c-.73.11-1.51.52-1.7,1.24-.11.41-.02.88-.28,1.21-.14.18-.35.29-.54.41-.66.45-1.04,1.24-1.14,2.04s.06,1.6.28,2.37c.16.55.54,1.22,1.1,1.12,1.19,2,2.37,4,3.56,6,.24.41.49.83.61,1.29.08.31.11.64.2.95.12.38.35.72.55,1.06.41.7.73,1.46,1.04,2.21.25.6.5,1.21.57,1.86.06.57-.02,1.14-.11,1.7-.18,1.23-.37,2.46-.55,3.7-.06.43-.13.88-.02,1.3s.44.82.87.87c.37.04.71-.16,1.06-.28s.8-.14,1.02.16c.12.17.12.39.17.59.13.53.61.93,1.13,1.11s1.08.19,1.63.2c.93,0,1.87.02,2.8.03l.41-1.84Z"/>
      <path class="cls-25" d="M58.19,97.03c.13.78.36,1.54.67,2.26-.28.87-.62.86-1.01,0-2.94-.09-4.28-5.3-3.77-7.95-1.89-1.26-4.51-3.49-4.07-5.94-1.29-1.5-1.06-2.95,1.01-2.19,5.26,2.39,6.2,7.93,7.16,13.82Z"/>
      <path class="cls-24" d="M60.85,106.3c.68.28.66.61,0,1l-.5,1.53c2.91,8.68-4.94,9.93-2.5,1.47.29-1.42.62-2.75,1-4,.23-1.21.56-2.21,1-3,.5.95,1.44,1.72,1,3Z"/>
      <path class="cls-100" d="M59.85,103.3c.05,1.08.22,2.54-1,3v-1c-2.42.13-2.76-4.64-1-6h1.01c.52,1.22.37,2.82.99,4Z"/>
      <path class="cls-56" d="M57.85,99.3c.67,1.84.51,4.1,1,6-.16.99-.54,1.64-1.14,1.94-.05,1.15-.41,1.87-1.08,2.15-3.15,1.42-4.26-3-1.04-4.02l-3.41-7.92.63-.99c-2.03-4.56-1.6-6.26,1.27-5.11,1.92,2.27,2.75,5.15,3.77,7.95Z"/>
      <path class="cls-75" d="M57.85,110.3l1.31,5.49c1.85-3.43-.61-6.54,1.69-8.49-.63,1.65.53,2.77,1.03,4.09.59,1.55.49,4.6-1.49,4.97-1.32.24-3.24.1-4.23-1.06.29-.5-.16-1.51-.07-2.1-1.59-2.89-1.41-4.16.55-3.8.13-.87.67-1.45,1.08-2.15,1.08.13.71,2.06.14,3.06Z"/>
      <path class="cls-2" d="M58.85,106.3c-.03,1.35.52,3.35-1,4l-.14-3.06c.37-.64.26-1.62,1.14-1.94.08.31,0,.68,0,1Z"/>
      <path class="cls-1" d="M48.61,85.57c-.61,4.03,2.29,7.6,4.2,10.89,1.6,2.75,3.08,5.91,2.78,8.92-2.82-3.84-4.28-8.53-7.57-12.03-3.1-1.37-3.48-8.19.59-7.78Z"/>
    </g>
    <g id="front-leg">
      <path class="cls-52" d="M18.52,88.69c.19-.29,2.15-3.45,2.87-4.64s2.87-7.37,3.88-8.57,2.82-5.74,3.59-6.65,3.02-4.31,4.6-4.64c1.58-.34,7.37-1.2,8.71-2.11,1.34-.91,3.97-2.78,3.59-4.5s-1.29-5.17-1.72-5.74-8.33-1.05-9.86-1.01c-1.53.05-7.76.29-8.62.48s-3.78.48-4.21,1.24-2.06,5.55-2.87,6.37-2.73,3.64-3.11,5.31-2.25,10.63-2.25,11.59-1.01,2.63-1.34,3.64-.81,4.07-.91,5.94-.05,4.31,1.39,4.31,5.03.81,5.65.43.62-1.44.62-1.44Z"/>
      <path class="cls-18" d="M24.96,68.24c.25,0,.5,0,.75.02,2.66.29,2.55,1.2.02,1.97-.57,1.84-1.8,3.84-3.72,4.15-1.23,4.71-3.17,6.67-5.83,5.87-.89-.13-.88-.42-.04-.84-.36-1.27-.74-2.72.71-3.1.72-1.4,1.44-2.72,2.18-3.95.11-1.73.68-2.74,1.7-3.04,1.4-1.66,3.12-3.28,4.23-1.07Z"/>
      <path class="cls-37" d="M22.87,64.36c.31.22.47.75.81.92.7,1.26-.28,2.6-2.95,4.03-.21,1.18-.8,2.25-1.7,3.04-2.13-2.98-.28-11.27,3.84-7.98Z"/>
      <path class="cls-61" d="M30.94,69.46l-5.05,1.98c-1.12.47-1.17.06-.17-1.23l-.02-1.97c1.79.13,4.27-.71,5.23,1.21Z"/>
      <path class="cls-13" d="M23.88,62.3c-.26.74-.68,1.36-1.01,2.06-1.51-.23-3.3.2-3.74,2.23s-.31,4.01-.09,5.75c-.23,1.71-.86,1.74-1.18-.05-.95-.62-1.28-2.29-1-5-.29-.96.04-1.29,1-1,.86-.86.98-2.04,1.24-3.74,1.76.48,3.33.32,4.79-.26Z"/>
      <path class="cls-13" d="M24.96,68.24c-1.47.05-2.94.33-4.23,1.07.31-1.75,2.03-2.59,2.95-4.03,1.13.56,1.5,1.75,1.27,2.96Z"/>
      <path class="cls-52" d="M25.89,71.45c.08.63-.23,1.25-.64,1.73-.77.89-1.66,1.67-2.61,2.35-1.57,2.58-2.75,1.3-.63-1.15,1.13-1.48,2.1-3.17,3.72-4.15l.17,1.23Z"/>
      <path class="cls-90" d="M22.64,75.53c-.69,1.13-.92,2.7-1.77,3.72,1.96,2.36.01,4.86-3.05,4.21-.52.36-.8-.42-.84-2.35-.21.86-.59.92-1.13.19-.87-.65-.75-1,.33-1.06,2.67.29,3.25-4.08,5.83-5.87,0,.45-.39,1.74.63,1.15Z"/>
      <path class="cls-30" d="M16.14,79.4l.04.84c-.36.22-.28.77-.33,1.06-3.51,2.42-4.7-.87-2-3-.46-.89-.08-1.19,1-1,1.53-.33,1.54.74,1.29,2.1Z"/>
      <path class="cls-89" d="M16.85,76.3c.44.93-.29,2.31-.71,3.1-.35-.7-1.12-1.32-1.29-2.1-1.59.19-1.33-1.28,0-2,1.66-1.94,2.33-1.61,2,1Z"/>
      <path class="cls-88" d="M16.85,76.3c-1.66-1-.72-3.99,1-4l1.18.05c-.04,1.6-.38,3.67-2.18,3.95Z"/>
      <path class="cls-45" d="M17.85,65.3c.11.3-.07.68,0,1-.33.33-.69.64-1,1,.36,2.52.37,6.9-2,8-.14.54-.12,1.45,0,2-.37.3-.7.63-1,1-.81.56-1.14.24-1.08-.84l2.46-12.16c.23-.32.43-.65.62-1l2,1Z"/>
      <path class="cls-7" d="M13.85,78.3c.06.8-.16,1.64.03,2.46s1.3.63,1.97.54c-.03,1.07-.7,2.07-2,3-.97-.65-1.8-1.53-2.88-1.98.33-1.68.58-3.62,1.8-4.86.34.31.7.59,1.08.84Z"/>
      <path class="cls-43" d="M13.85,84.3c0-1.31,1.05-2.2,2-3,.26-.13.83.05,1.13-.19,0,1.77-1.53,2.78-3.13,3.19Z"/>
      <path class="cls-14" d="M17.85,72.3c.29,1.03-1.63,2.67-1,4-.7-.26-1.36-.62-2-1l2-8c1.62.85.47,3.15,1,5Z"/>
    </g>
    <g id="front-shoe">
      <path class="cls-96" d="M21.31,84.93c.32-.86.04-1.86-.55-2.57s-1.43-1.15-2.31-1.44c-2.38-.79-5.09-.49-7.24.79-.33.2-.66.43-.85.76-.15.26-.2.56-.24.86-.36,2.3-.72,4.59-1.08,6.89-.62,3.94-1.24,7.9-1.14,11.88.02.61.05,1.23-.12,1.82-.12.42-.34.81-.58,1.18-1.14,1.74-2.89,3.28-3.04,5.36-.03.43,0,.88-.15,1.28-.15.38-.45.67-.75.94-.73.68-1.46,1.36-2.19,2.04-.55.51-1.14,1.14-1.07,1.89.06.58.53,1.05,1.07,1.28s1.14.25,1.72.27c2.29.08,4.93.02,6.39-1.75.75-.92,1.2-2.28,2.35-2.55.88-.21,1.93.33,2.66-.21.33-.25.49-.66.56-1.06.31-1.63-.47-3.34-.06-4.94.18-.68.56-1.29.79-1.96.4-1.16.33-2.42.53-3.63.43-2.54,2.06-4.77,2.47-7.31.09-.59.12-1.2.29-1.78.14-.48.37-.92.61-1.36.47-.89.94-1.78,1.41-2.66l.51-4.01Z"/>
      <path class="cls-96" d="M17.82,83.46c2.7,1.5,2.95,6.97-.67,7.01-.29,1.88-1.04,1.78-1.4-.16-.19.82-.46.76-.8-.08-1.38-.51-2.79-.7-4.21-.57.3,2.16.28,4.43-.04,6.81-.41,3.19-.77,6.78-1.07,10.77-2.1.57-2.76-.75-1.98-3.95.6-2.53.07-5.42.2-8l.91-7.18c1.02-1.61,1.84-3.94,2.21-5.8,1.5-2.04,3.38-.18,2.88,1.98l3.13-3.19c1.94-1.57.32,3.94.84,2.35Z"/>
      <path class="cls-49" d="M7.85,95.3c.13-2.61-.52-4.92.91-7.18-.23,2.34,1.14,5.47-.91,7.18Z"/>
      <path class="cls-43" d="M14.95,90.23l.8.08c.19,2.33-.33,4.91-1.57,7.74-1.64,5.18-1.6,8.51-1,13.88-.2.17-3.76,1.03-3.99.93-.26-.12-.28-.76-.23-1.55l-2.13-1.11c.03.89-.17.85-.57-.03-.37-2.45.85-4.64,1.38-6.87.37.96-.46,2.35,1.22,3.08-.49-6.18.52-11.41,1.88-16.72,1.5-.61,3.03-.62,4.21.57Z"/>
      <path class="cls-19" d="M7.85,111.3c.87.28.86.62,0,1-1.22,1.41-3.29,2.81-5,2-.56-.35-.53-.69.07-1.03.47-.54,1.12-1.48,1.78-1.91.55-.36,1.04-.8,1.56-1.18l.57.03c1.18-.45,1.62,0,1.01,1.1Z"/>
      <path class="cls-71" d="M16.85,92.3c1.34,2.05,1.18,4.71-.47,7.98.03,2.85-.79,4.78-2.45,5.81.45,3.64.68,5.46.68,5.46,2.08.6,1.35,1.13-.75,1.76l-5,1-1,1c-1.23.75-1.74.24-1-1-1.08-.23-.74-.9,1-2v-1c.33-.87.7-.85,1.11,0,.79,1.69.89-.66,1.35-.78.91-.23,2.21.3,2.41-.07.84-1.58-1.81-2.35-1.66-3.14.55-2.85.26-4.97-.21-8.1l2.27,3.35c-.3-4.83,1.53-8.35,2.61-12.26l1.4.16c-.29.51-.11,1.27-.3,1.83Z"/>
      <path class="cls-49" d="M14.95,90.23c-2.89.84-1.16,4.33-2.59,7.06-1.58-2.66.84-5.94-1.62-7.63.43-1.7.28-2.84,2.34-1.9.95.43,1.96.94,1.87,2.47Z"/>
      <path class="cls-111" d="M2.85,114.3c1.03,0,2.36,0,4,0,.47-.18,1.23.5,1,1-.97.97-2.22,2.12-3.52,1.89-1.02-.18-3.27-.48-3.46-1.8-.21-1.47,1.62-1.63,2.05-2.12l-.07,1.03Z"/>
      <path class="cls-43" d="M13.85,113.3c-.07,1.32-2.15,1-3,1h-2c1.36-1.36,3.28-.98,5-1Z"/>
      <path class="cls-68" d="M8.96,111.31h-1.11c-.63-.01-1.26-.35-1.01-1.11.24-.48.64-1.19,1.05-1.48,1.09-.77,1.16.61,1.05,1.12s.09,1.01.02,1.47Z"/>
      <path class="cls-54" d="M7.85,112.3l-1,2c-.66.26-1.22.65-1.75.8-1,.29-2.34.56-2.25-.8l5-2Z"/>
    </g>
    <g id="back-arm">
      <path class="cls-109" d="M49.91,30.39c-.05-.77-2.68-7.13-3.45-7.71s-1.77-.34-2.06.34-.48,4.69-.57,5.65,1.82,3.4,2.15,4.5,2.97,4.4,3.3,5.17,2.78,3.54,3.54,4.31,3.4,2.35,3.59,1.44-.29-3.69-.62-4.07-1.68-4.07-2.15-4.69-3.73-4.93-3.73-4.93Z"/>
      <path class="cls-69" d="M58.85,52.3c.96.3,1.67,1.05,2,2-1.01.61-.89,1.16-2.27.02-.78-.65-2.23-.46-1.73-2.02.65-1.73,1.7-1.96,2,0Z"/>
      <path class="cls-82" d="M59.73,48c-.14.89-.45.89-.92.06-.91,1.36-1.94,1.13-3.09-.71-.27-.15-.59-.21-.85-.38-1.27-1.54-.81-2.56,1.19-2.63-1.38-1.48-1.27-3.05.85-2.04.83,1.59,2.3,4.06,2.82,5.69Z"/>
      <path class="cls-109" d="M55.75,40.09c.54.49.81,1.57,1.15,2.22-.79.35-.88,1.27-.85,2.04-.57,1.15-.87,1.2-1.2-.05-1.56-1.57-2.56-3.24-3-5-.82-.35-.74-.65.16-.92-1.14-1.35-.96-1.63.68-.93,1.54-1.32,2.56-.44,3.06,2.64Z"/>
      <path class="cls-78" d="M62.86,50.37c.74,2.04-.52,3.04-2.01,3.93-1.15.1-2.28-.81-2-2-.87-.28-.86-.62,0-1-.05-1.17.67-1.79,2.15-1.84.53.22,1.23.8,1.86.91Z"/>
      <path class="cls-42" d="M61,49.46c.14.44.11.98-.19,1.28-.55.55-1.32.6-1.97.56-1.18-.61-.61-2.1-.05-3.24l.92-.06c.15.46.82,1.28,1.27,1.46Z"/>
      <path class="cls-17" d="M52.73,36.28c-.1.36.17.88-.04,1.17l-.68.93c-1.6.67-2.99-.35-3.16-2.08-.18-1.35-.07-2.87-.86-4.07.43-.21.98-.5,1.35-.38,1.35.46,1.69,3.38,3.4,4.43Z"/>
      <path class="cls-108" d="M50.85,40.3c1.58.62,2.91,1.95,4,4,.33.16.85-.06,1.2.05-.29.92-.64,1.83-1.19,2.63-2.84-1.79-4.95-4.48-6.02-7.67.36-2.42,2.93-.97,2,1Z"/>
      <path class="cls-102" d="M58.8,48.06c-.28,2.34-.93,3.42-1.95,3.24.03-1.41-.26-2.82-1.13-3.95,1.08-.07,2.23-.03,3.09.71Z"/>
      <path class="cls-31" d="M58.85,51.3v1h-2c.1-.31-.06-.68,0-1,1.16-.81.53-2.66,1.95-3.24.08,1.08.05,2.16.05,3.24Z"/>
      <path class="cls-113" d="M54.85,44.3c-1.73-.85-3.06-2.33-4-4-.22-.89.12-1.22,1-1,1.48,1.33,2.76,2.98,3,5Z"/>
      <path class="cls-5" d="M52.01,38.39c-.17.23-.01.66-.16.92-.24.41-.64.71-1,1-.42-.75-1.14-1.07-2-1-.3-.88.13-2.07,0-3,1.35.11,2.36,1.05,3.16,2.08Z"/>
    </g>
    <g id="body">
      <path class="cls-9" d="M44.64,27.07c-.14.62-.3,1.04-.47,1.26-.36.47-.81.07-1.32-1.18-.13.32-.26.52-.39.59-.21.11-.42-.11-.63-.65-2.74-.18-2.96-.9-.87-2.73-2.71-.2-2.61-1.1-.05-1.93-.41-.56-.62-1-.64-1.29,0-.07,0-.13.02-.18.08-.32.49-.37,1.18-.13.19.11.38.19.58.25.9.28,2.01,0,2.9.44l.2,1.04c.78,1.43.8,3.44-.51,4.51Z"/>
      <path class="cls-112" d="M47.99,32.23c1.9.36,3.04,3.36.86,4.07,1.68.97,2.16,2.55,0,3-.33.03-.67,0-1,0-.76-1.03-1.98-3.03,0-3-.92-1.26-1.93-2.11-3.21-3-.9-.31-.91-.65-.02-1-.61-2.04-1.07-3.97,1.37-2.84.45,1.06,1.38,1.83,2,2.77Z"/>
      <path class="cls-46" d="M45.85,28.3c-1.63,1.09-2.17.5-1.2-1.23,0-1.52-.04-3.07.51-4.51,2.4.79,1.03,3.75.69,5.74Z"/>
      <path class="cls-105" d="M44.65,27.07l1.2,1.23c.11.36,0,.82.14,1.16-.91.66-1.24,1.76-1.37,2.84-1.34,1.12-1.86.12-1.59-3-.86-.6-.91-1.37-.17-2.15.46-.51,1.31-.56,1.79-.07Z"/>
      <path class="cls-103" d="M43.4,32.61h-.01c-.28.23-.79.12-1.54-.31l-.02-5.21,1.02.06c.03.72.19,1.43.18,2.15.66,1.85.78,2.96.37,3.31Z"/>
      <path class="cls-99" d="M45.69,41.37c-.87,1.95-.59,4.13.09,6.11-.97,2-2.06,1.91-2.68-.23-2.06-.04-1.09-5.47.99-5.84-2.91-.86-2.23-2.8.77-2.11.84-.17,1.12.52.84,2.07Z"/>
      <path class="cls-21" d="M45.77,47.48c-.14,1.26-.52,2.47-.87,3.68l-2.28.09c-2.46,1.74-3.41.8-1.85-1.78-1.16-1.44-.61-1.83,1.07-1.17-.62-1.56-.13-2.06,1.24-1.05.88.21,1.78.33,2.68.23Z"/>
      <path class="cls-44" d="M47.85,36.3v3h-1c-1.09-.24-1.75-.91-2-2-3.44,1.11-1.99-1.26,0-3,1.17-.76,2.36.87,3,2Z"/>
      <path class="cls-79" d="M46.85,39.3c-.25.76-.84,1.35-1.16,2.07-1.08.21-.75-1.4-.84-2.07-1.94-.56-1.93-1.44,0-2,.42-.02.96-.08,1.41.15.63.32.68,1.2.59,1.85Z"/>
      <path class="cls-58" d="M45.32,33.8c-.07.14-.23.31-.47.5-.72,1.7-1.39,2.72-2.01,3.06-.41.22-.79.16-1.15-.19.3-1.61.16-3.24.16-4.87.81-.35,1.05-1.16,1.12-1.99.04-.34.05-.69.06-1.01.58.98.85,2.11,1.58,3-.04.32,0,.68.03,1,.6.05.82.22.68.5Z"/>
      <path class="cls-67" d="M47.85,36.3c-1.28-.13-2.05-1.22-3-2-.04-.34-.19-.66-.21-1,.71.01,1.5.01,2.24.47.77.48,1.02,1.56.97,2.53Z"/>
      <path class="cls-32" d="M30.11,37.16c-.07,2.24-1.83,2.96-3.1,1.03-.48-.58-.58-1.36-.39-2.09.05-.21.12-.41.22-.6.24-.49.61-.92,1.08-1.2-2.04-.32-1.84-1.67.19-2-.26-1.44-.34-2.72-.25-3.84.1-1.26.43-2.31.99-3.16.05-.17.11-.3.17-.4.24-.43.52-.29.83.4.1-.52.28-.82.49-.9.27-.1.6.16.87.78l.74.25.54,4.04c.34,3.43-.45,5.99-2.38,7.69Z"/>
      <path class="cls-85" d="M40.85,47.3h0c0,.29-.05.51-.13.69-.07.16-.17.28-.29.35-.07.06-.16.1-.24.12-.5.12-1.12-.28-1.34-1.16-1.07.38-2.47.75-3.46.34-.26-.1-.49-.26-.68-.48-1.2-.08-1.42-1.03-.66-2.88-1.04-2.51-1.27-3.85,1.66-4.78-.2-.18-.34-.33-.4-.48-.05-.09-.06-.18-.04-.27.04-.21.28-.37.72-.49l1.78-.18c3.47-1.3,5.6.44,1.92,2.23.48.22.53.47.2.74-.07.07-.16.13-.26.19-.99,1.59-1,2.9-.02,3.93.23-.17.43-.3.59-.4.14-.07.26-.13.35-.14.55-.14.54.47.3,1.67.87.29.86.62,0,1Z"/>
      <path class="cls-11" d="M44.85,37.3c.03.66-.09,1.34,0,2-.57.56-.74,1.34-.78,2.11-.12.12-.22.24-.32.37-.45.48-.81.77-1.1.88-.46.18-.73-.12-.78-.89,0-.16,0-.31-.02-.47-.42.79-.73,1.19-.99,1.28,0,.01-.01.01-.01.01-.37.14-.62-.37-.87-1.21-.03-.1-.06-.21-.09-.33-.07-.23-.13-.48-.2-.74.02-.68.09-1.65-.44-2.03-.46-.33-1.07-.27-1.48-.2,1.05-.99,2.54-1.11,3.92-.91,1.49-.66.94-3.35,3.16-2.87-.31,1-.88,2.2,0,3Z"/>
      <path class="cls-107" d="M33.04,36.18c-.64.83-1.24,1.29-1.78,1.39-.42.08-.8-.06-1.15-.41l1.03-5.34c.13-.7.02-1.57.41-2.1.17-.22.52-.3.94-.25,1,2.1,1.74,4.61.55,6.71Z"/>
      <path class="cls-28" d="M41.69,37.17c-1.38-.2-2.87-.08-3.92.91l-1.78.18c-.02-.94.25-1.71.91-2.89-1.85-.22-2.68.59-3.86.81,1.19-2.1.45-4.61-.55-6.71l-.54-4.04c.47-.87,1.2-.47,1.91-.28,2.38.63,4.96.43,7.1-.79-2.09,1.83-1.87,2.55.87,2.73l.02,5.21c0,1.63.14,3.26-.16,4.87Z"/>
      <path class="cls-40" d="M36.9,35.37c-.66,1.18-.93,1.95-.91,2.89-.15.19-.41.36-.72.49-.08.04-.17.08-.27.11h0c-.6.21-1.34.31-1.95.22h-.01c-.41-.05-.76-.19-.98-.44-.05-.11-.12-.22-.2-.34-.47-.2-.67-.44-.59-.73.09-.38.68-.85,1.78-1.39,1.18-.22,2.01-1.03,3.86-.81Z"/>
      <path class="cls-38" d="M26.1,34.95c.4.49.71,1.57.91,3.24,1.17-.08,2.07-.47,3.1-1.03.87-.47,1.97-.8,2.93-.98l-1.2,2.12c.82,1.2.27,1.6-1.03.96.64,2.43,0,3.06-1.94,1.9-.83.14-1.1-.18-.81-.96-1.07-.04-2.14.66-3.22,2.11.99,2.01.69,3.44-.89,4.31,1.85,1.9,1.69,2.23-.94,1.93,2.03.6.84,2.83-1.01,2.78-1.21.02-1.38-1-1.39-2.09.64-3.33,3.12-6.5,2.05-9.93-.53-4.07-.47-8.07.18-12,.29-.66.63-.64,1,0,1.85,1.15,3.07,5.48,2.25,7.65Z"/>
      <path class="cls-106" d="M22.67,39.3c-.53-1.72-.82-3.02-.82-5v-6c-1.28-1.26-.72-1.57,1-1,.1,4,.17,8.01-.18,12Z"/>
      <path class="cls-59" d="M44.08,41.41c-1.53,1.55-1.28,3.81-.99,5.84-.38.39-.8.74-1.24,1.05-1.3.83-1.86.32-1-1v-1c-.56-1.53-.44-4.09,1-5,.65.3,1.52-.05,2.23.11Z"/>
      <path class="cls-101" d="M40.85,47.3c.52,0,.89.53,1,1l-1.07,1.17c-2.97-.16-5.95-.2-8.93-.17l-.5-1.26,7.5-.74h2Z"/>
      <path class="cls-110" d="M30.85,21.3l.36,3.88c-.37.66-.98.86-1.36.12-2.7-.97-3.03-3.3-1-7,1.39-1.06,2.06-.06,2,3Z"/>
      <path class="cls-106" d="M26.85,27.3c1.28.82,1.7,2.49,1.27,5-.09.65-.02,1.36-.19,2-.57,1.34-1.18,1.55-1.82.65-1.57-2.37-2.84-4.78-2.25-7.65.19-3.05,1.72-2.31,3,0Z"/>
      <path class="cls-80" d="M29.85,25.3h-1c-.42.71-1.09,1.04-2,1-2.21,1.5-3.67-4.1-1-4.08-.61-1.15.73-3.11,1.87-3.8l1.13-.13c-.24,2.39.32,4.72,1,7Z"/>
      <path class="cls-15" d="M28.85,25.3c-.33,2.31.86,5.15-.73,7-.74-1.58-1.36-3.24-1.27-5-1.25-.19-1.24-.82,0-1-.09-.33-.17-1.65.46-1.91.38-.16.97.96,1.54.91Z"/>
      <path class="cls-27" d="M27.01,38.19c-1.24.08-1.27-.49-1.15-1.37.09-.65.36-1.46.24-1.87.57-.32,1.18-.55,1.82-.65-.34,1.29-.72,2.57-.91,3.89Z"/>
      <path class="cls-73" d="M35.71,39.5c-.89,2.45-1,5.07-1.01,7.66.13.97-2.22.96-2.86.14-.55-.72-1.59-1.06-3.13-1.01-1.84.57-2.01-.38-.85-1.93-2.16-.67-.78-2.64,1.01-3.21.41-.79,1.38-1.24,1.94-1.9,1.74-.31,1.24.97.35.96-.26,0,3.54-2.72,4.55-.72Z"/>
      <path class="cls-39" d="M31.85,47.3l2.86-.14,4.14.14c-1.26,2.02-7.53.09-7,2h-1.19c-1.26.71-2.63.63-2.81-1-1.41-1.6-.84-2.16,1-1,.78-1.14,2.95-2.03,3,0Z"/>
      <path class="cls-8" d="M39.61,45.17c-1.02.07-2.1.31-3.27-.14.42-2.07,1.9-3.06,3.29-3.79,1.8.49,1.59,3.26-.02,3.93Z"/>
      <path class="cls-87" d="M41.85,41.3c.12,1.73-.08,3.5-1,5-.44-.35-.85-.73-1.24-1.13.16-1.31.16-2.62.02-3.93l.05-.93,2.16.99Z"/>
      <path class="cls-93" d="M35.99,38.26c0,.38-.15.88-.28,1.24-1.7-.46-3.29.48-4.42,1.81-.85-1.14-.45-1.69-.48-2.05.28-.34.82-.58,1.03-.96l4.15-.04Z"/>
      <path class="cls-47" d="M25.68,46.42c1.57-.27,2.33.2,2.17,1.88.91.08,2.91-.34,2.81,1.01-.53,1.18-1.55,2.07-3.05,1.62-.76-.23-1.66-.83-2.43-1.43-1.34,1.38-2.29.95-2.16-.96.24-.67.59-1.31.94-1.93.34-1.78,1.06-1.84,1.72-.19Z"/>
      <path class="cls-48" d="M25.17,49.49c.93.93-.47,1.37-.85,1.95-.77,1.2-1.41-.13-2.32-.12l1.01-2.78c.83.05,1.52.45,2.16.96Z"/>
      <path class="cls-106" d="M28.88,41.16c-.52.99-.63,2.17-1.01,3.21.58,1.89-.49,3.29-2.18,2.05-.4.37-1.23.13-1.72.19-.32-1.23-1.22-4.67.89-4.31,1.12-1.8,2.19-2.51,3.22-2.11.42.18.6.59.81.96Z"/>
      <path class="cls-33" d="M28.06,40.19c-1.73.34-1.25,3.22-3.22,2.11-.06-.92.25-1.77.92-2.55.75-.86,1.63-.56,2.29.44Z"/>
      <path class="cls-27" d="M24.72,22.17c-.08-1.94.68-1.9,1.13.06-.39,1.29-.14,3.28,1,4.08.65.25.66.75,0,1h-3c.07-.32,0-.68,0-1-.9-.1-.85-.45,0-1-1.53-.4-2.37-.79-1-2v-1l1.87-.13Z"/>
      <path class="cls-84" d="M31.85,47.3h-3c-.9-.17-.94-.51-.13-1.01,1.68-.52,2.69-1.72,3.51-4.09.53.73,1.53,2.21,1.03,2.89-.53.73-1.31,1.26-1.4,2.2Z"/>
      <path class="cls-51" d="M28.71,46.29l.13,1.01c-.48.15-.89.49-1,1-1.1-.1-2.28-.62-2.17-1.88l2.18-2.05c.38.6.63,1.26.85,1.93Z"/>
    </g>
    <g id="dress">
      <path class="cls-23" d="M44.9,51.15l.98,2.01c.35-.24.67-.41.93-.34.91.27,3.52,7.9,3.28,9.62l-1.24.86c-.25.95-.59.93-1,0-2.2-.46-5.74-7.58-6.35-9.86l1.13-2.19c-.01-2.75,1.47-2.61,2.28-.09Z"/>
      <path class="cls-91" d="M22,51.32c.83-.82,1.85-1.38,3.17-1.83,1.85.02,3.67-.04,5.48-.18-.16-1.51.56-1.47,1.19-.01,3.43-1.04,6.4-.99,8.93.17.17.94,1.15,1.42,1.85,1.78,1.86,3.78,4.51,7.83,5.23,12.05.7.78-.83,3.74-2.14,3.08-1.82,1.59-2.46,1.89-3.22-.82-.97,1.47-1.88,2.35-2.76,2.63.17,1.65-.53,2.01-1.9.95.15,3.49-6.84,3.9-6.89.32-2.86.38-4.6-.02-5.23-1.21-.14.87-.39.84-.75-.02-2.13-.23-2.33-1.24-1.27-2.96-.94.29-1.21-.02-.81-.92-.93-.67-.6-1.35,1.01-2.06-1.53-.36-3.33-.96-3.96-2.4l-.9-1.12c2.33-2.34,2.94-3.48,1.81-3.41-2.55-.39-3.05-3.81-.84-5.03,0-.44.54-.74.62-1.11,1.04.12,1.52,1.05,1.39,2.09Z"/>
      <path class="cls-10" d="M19.92,59.9l.84,1.19c-1.7.9-2.67,2.3-2.91,4.2-1.4,2.44-2.54,1.68-2-1-3.96-1.46-.61-7.09,3.05-6.96l1.94-1.97c1-1.01-.31-3.38,2.98-3.08-.52,2.75-2.61,5.07-3.9,7.61Z"/>
      <path class="cls-114" d="M23.88,62.3l-1.19,1.23c-1.78.08-3.39,1-4.84,2.77-.87-.27-.85-.61,0-1-.92-2.63,1.24-3.77,2.07-5.4.99-.15,2.02-.07,2.72.21,1,.4,1.56,1.27,1.24,2.19Z"/>
    </g>
    <g id="head">
      <path class="cls-97" d="M43.81,8.43c-.03.14-.08.91-.08,1.15s.1,1.24.08,1.56,0,1.53-.05,1.69-.19.4-.32.37-.32-.14-.48-.1-.06.93-.19,1.29-.37,1.85-.61,2.07c-.12.11-.31.39-.48.64-.2.31-.58.45-.94.36-.5-.13-1.15-.31-1.35-.39-.34-.14-1.04.73-1.17,1.2s2.35,2.92,2.13,3.46-1.76,1.98-3.1,2.01-6.29-.22-6.77-1.21-2.49-2.23-2.55-3.32.29-3.1,1.12-3.99,1.47-1.85,1.72-3.16.54-4.98,1.37-5.87,1.47-2.97,3.51-2.71c2.04.26,4.88-.16,5.84.54s2.46,1.05,2.49,1.72-.18,2.68-.18,2.68Z"/>
      <path class="cls-70" d="M44.82,5.22c.42,1.01-.16,3.56-.97,4.08-1.03.77-1.29.08-.8-2.08-1.94.02-2.78-2.19-3.16-3.86-2.56-.32-3.42-1.06-2.59-2.2l.6-.49c.13-.89.41-.88.84-.05,2.26,1.18,5.03,2.09,6.08,4.6Z"/>
      <path class="cls-74" d="M43.85,9.3c-.04.31.1.7,0,1l-2,1c-.3.58-.63.57-1,0-1.49.03-1.29-1.45,0-2-.13-1.48.76-2.05,2.2-2.08.21.58.9,1.34.8,2.08Z"/>
      <path class="cls-94" d="M40.96,24.36c-2.14,1.22-4.72,1.42-7.1.79-1.89-1.95-.06-4.19,2.12-4.7.5-.12,1.01-.15,1.5-.06.4-.47.9-.58,1.4-.45.52.13,1.04.52,1.41,1.02.07.09.13.17.19.26.24.38.4.81.43,1.21-.09.59.03,1.32.05,1.93Z"/>
      <path class="cls-26" d="M42.05,21.08c-.26.49-.94.86-1.14,1.35-1.07-.8-2.2-1.52-3.43-2.04-1.72,1.15-2.16.43-.63-1.09v-1c.05-2.15,3.82,2.35,5.2,2.78Z"/>
      <path class="cls-70" d="M37.3,1.16l2.59,2.2c-.29,2.58-1.05,2.41-2.16.1-.46,2.34-4.18,3.43-5.81,1.68-2.02.55-2.29-.27-.96-1.81.37-1.09.47-2.39,1.8-2.72l4.55.55Z"/>
      <path class="cls-65" d="M43.46,7.17c-.02.28.66,1.32.57,1.66-.05.18-1.22-.3-1.31-.12-.31.59-1.18.64-1.87.59-.27,1.71-.99,1.68-1.37-.1-1.33.08-.85-5.28.42-5.85,1.89.48,3.74,1.79,3.56,3.81Z"/>
      <path class="cls-55" d="M37.9.67c.31.6-.08.78-.6.49-1.51-.06-3.52.69-4.55-.55,1.7-.42,3.45-.4,5.14.06Z"/>
      <path class="cls-74" d="M37.67,15.16c1.29-.88,3-.65,2.18,1.14v1l-.75-.13c-.42-.08-.86.03-1.2.3l-1.05.83c-1.61-1-2.27-2.01-1.99-3.05-.49-2.96,1.63-1.4,2.81-.09Z"/>
      <path class="cls-34" d="M41.85,11.3l-1,2c-.5,1.97-1.68,2.37-3.15.93-1.73.24-1.77-.34-.12-1.74.3-.89.72-.96,1.27-.19.47-1.44.96-2.46,2-1h1Z"/>
      <path class="cls-104" d="M40.85,14.3c0,.76-.41,1.5-1,2l-2.18-1.14c-.87-.24-.84-.55.03-.93,1.11-.08,2.2-.34,3.15-.93v1Z"/>
      <path class="cls-74" d="M40.85,9.33v2.59l-3.15,1.29c-1.69-1.49-1.93-4.27,1-4l2.16.13Z"/>
      <path class="cls-65" d="M31.92,5.14c2.22,1.55,1.61,2.52-1.05,2.18,1.33,1.08.47,2.41-.99,3.03-.07.89-.29.84-.66-.04-1.31,1.44-1.92.94-1.25-.92.41-1.22.39-2.57.7-3.8.24-.97,1.94-1.41,2.3-2.26.53.47.84,1.12.96,1.81Z"/>
      <path class="cls-3" d="M37.48,20.39c-.49,2.13-2.91,2.77-3.62,4.76-.71-.19-1.44-.59-1.91.28-.37.81-.62.7-.74-.25-.36-.07-.66-.37-.87-.78-.5-1.01-.47-2.69.51-3.1-.33-.61-.58-1.16-.75-1.63-.28-.78-.35-1.37-.21-1.77.17-.48.62-.7,1.37-.66l.59.06s.03-.08.06-.12c.3-.7.62-.66.94.12.46-1.28,1.28-1.4,2.07-.93h0c.52.33,1.03.91,1.4,1.58.24.43.42.89.52,1.35,0,.43.29.83.63,1.09Z"/>
      <path class="cls-35" d="M34.86,15.25c1.05.72,1.99,1.76,1.99,3.05v1c-.86-1.43-2.33-2.27-4-2-2.54,0-1.71-1.82,0-3-.67-.29-.66-.63,0-1,1.41-2.14,2.47.14,2.01,1.94Z"/>
      <path class="cls-60" d="M37.73,3.46c2.13.71,1.76,6.39-.81,6.02-.16.88-.43.86-.81.01-1.48,1.69-2.26,1.53-3.38-.4-1.28.3-1.69-.49-1.86-1.75.35-.65.58-1.65,1.05-2.18,1.7-1.3,3.7-1.91,5.81-1.68Z"/>
      <path class="cls-65" d="M39.9,3.36l-.42,5.85c-.6.92-3.06,1.49-2.56.27,1.79-1.66,1.48-3.83.81-6.02.7.07,1.45-.32,2.16-.1Z"/>
      <path class="cls-34" d="M37.7,14.24l-.04.92-2.81.09-2-1.95c-.32-.47-.53-.98-.62-1.51-.13-.69-.07-1.41.19-2.07-.02.47,0,.53.34.17.03-.03.07-.08.11-.12.37-.4.67-.78,1.03-1.14.35-.02.7.05,1.05.18.4.15.79.39,1.16.67.32,1.13.81,2.13,1.47,3.02l.12,1.74Z"/>
      <path class="cls-70" d="M33.9,8.63c-.36.36-.66.74-1.03,1.14-.04.04-.08.09-.11.12-.34.36-.36.3-.34-.17,0-.12,0-.26,0-.44.1-.06.21-.13.3-.2.38-.29.77-.44,1.17-.45Z"/>
      <path class="cls-65" d="M29.22,10.31c2.08.66,1.73,4.32.31,5.91.87.19.82.47-.06.83.7,1.62-.37,1.1-1.62.25-.51,1.04-2.55,1.17-2.41-.37-.16-2.6,1.37-4.91,1.66-7.51l.86-.04,1.25.92Z"/>
      <path class="cls-65" d="M31.62,10.41c1.03.31.95,2.93.23,3.89.86,2.05-.48,2.63-2.31,1.92l-.31-5.91.66.04c.69-1.68,1.38-1.77,1.74.06Z"/>
      <path class="cls-60" d="M32.73,9.08c-.14.91-.51,1.35-1.12,1.34l-1.74-.06c.29-1.01.49-2.09.99-3.03.38-.04.88-.1,1.41.08.63.22.43,1.07.46,1.67Z"/>
      <path class="cls-12" d="M29.47,17.05c.92-1.15,2.49-1.69,2.38.25-.77,1.19-1.02,2.6-1,4-.1-1.08-1.17-2.22-2-3-.21,1.75-.53,1.81-1.13.13-.06-.36.14-.76.13-1.13l1.62-.25Z"/>
      <path class="cls-95" d="M32.85,14.3v3c-.32.05-.68.03-1,0l-2.38-.25c-.05-.25.07-.59.06-.83.83-.57,1.62-1.19,2.31-1.92.28-.87.62-.86,1,0Z"/>
      <path class="cls-57" d="M32.85,13.3v1h-1l-.09-1.4-.15-2.49c-.04-.66.4-.88.82-1.13,0,.18,0,.32,0,.44-.02.47,0,.53.34.17.01.33.03.67.04,1,.03.8.05,1.61.05,2.41Z"/>
      <path class="cls-65" d="M36.87,6.23c-1.68.55-4.12,2.92-4.72,4.14s-2.27,3.26-2.44,4.33-.41,3.23.41,3.26,2.82-.77,3.28-1.63,2.66-3.93,2.97-4.6.31-3.49.57-4.16-.07-1.34-.07-1.34Z"/>
      <path class="cls-50" d="M37.58,12.5c-.41.26-.71.79-2,.9-.38-1.52.25-2.69.53-3.91h.81c.93.73.59,1.96.66,3.01Z"/>
      <path class="cls-97" d="M42.85,14.3c-1,1.55-1.68,1.95-2,0-.8-.29-.79-.62,0-1-1.62-.51-.25-1.43,1-2-.94-1.28.97-1.92,2-1-.19.55-.59,1.11-.7,1.7-.15.78,0,1.59-.3,2.3Z"/>
      <path class="cls-34" d="M42.85,14.3c-.29.67-.6,1.33-.8,2.01-.28.94-1.32,1.43-2.2.99h0c-.87-.28-.86-.62,0-1-1.46-1.04-.61-1.98,1-2h2Z"/>
      <path class="cls-16" d="M44.22,8.03c-.24.31-.69-.15-.69-.15-.1-.21-.46-.64-.58-.38s-.64,1.37-1.22,1.17c-.57-.19-1.91-.95-2.27-.79-.36.17-1.46.82-1.7,1.01s-1.25-.74-1.8-.65c-.34.06-.7.27-1.01.57-.2.18-.37.41-.52.65-.32.55-1.1.87-1.63,1.43-.11.11-.2.22-.28.35-.11.16-.2.35-.29.55-.17.36-.32.75-.47,1.11-.15.38-.32.73-.51.97-.48.57-1.39,1.72-1.65,2.08-.27.36-.7.48-.99,1.34-.28.86-.88,1.87-1.38,1.87s-.91-.29-.72-.67c.19-.39.4-1.41.57-1.8.17-.38,1.75-.84,1.82-1.65.07-.81-.21-2.7-.02-3.25.19-.55,1.46-2.02,1.22-1.01s-.46,2.15.12,1.63c.57-.53,1.34-.58,1.27-1.39-.08-.81-.7-3.06.04-3.66.75-.6,1.73-1.82,1.56-1.06-.17.77.72.7,1.01-.21.28-.91.24-2.42.47-2.39.24.02,1.23-.34.91.74-.31,1.07-.57,2.77-1.22,3.16-.64.38-1.79.52-1.82,1.55,0,.05,0,.09-.01.13,0,.18,0,.32,0,.44-.02.47,0,.53.34.17.03-.03.07-.08.11-.12.37-.4.67-.78,1.03-1.14.2-.2.42-.39.67-.58.72-.53,1.2-.79,1.78-.62.57.17.81.53,1.34-.02.52-.56,1.74.11,1.55-1.15-.19-1.27.19-1.77-.81-2.28-1.01-.5-2.08-.93-1.82-1.55.26-.63.53-1.1,1.75-.67,1.22.43,2.99.09,3.18,1s1.08-.07,1.68.98c.59,1.06.98.75.98,1.89s.26,2.09.02,2.4Z"/>
      <g id="eye">
        <g>
          <path class="cls-28" d="M42.44,11.46c-.09-.13-.22-.22-.45-.23s-.75.2-.75.31.52.13.69.21.61.12.61.08-.11-.37-.11-.37Z"/>
          <path d="M42.48,11.58c-.2-.5-.91-.36-1.21-.05.12.09,1.13.34,1.28.29,0,0-.07-.24-.07-.24h0ZM42.42,11.39c.11.38.26.54-.26.43-.27-.12-.78-.1-.94-.28.22-.32.9-.49,1.19-.15h0Z"/>
        </g>
        <ellipse cx="42.25" cy="11.6" rx=".19" ry=".16"/>
        <path class="cls-28" d="M42.41,11.61s-.05.09-.11.09c-.03,0-.06-.01-.08-.03.06,0,.11-.04.11-.08,0-.03-.01-.05-.03-.06h0c.06,0,.11.04.11.09Z"/>
        <path class="cls-55" d="M42.76,11.25c-.48-.32-.97-.29-1.48-.17.43-.28,1.26-.4,1.48.17h0Z"/>
      </g>
      <path class="cls-63" d="M42.61,14.97c-.43.05-.75.2-1.12.29-.02,0-.04.01-.04.03,0,.02.02.03.04.04.14.06.28.12.41.18.13.06.42.13.58.07s.56-.66.13-.61Z"/>
      <path class="cls-16" d="M39.03,7.76c-.69.74-1.2,2.54-1.91,3.21s-1.39,2.13-2.15,2.54-2.61,2.44-2.94,2.56-.22.1.31-.81,2.25-3.54,2.3-4.74,1.72-3.47,2.51-3.33,1.89.57,1.89.57Z"/>
      <path class="cls-70" d="M29.36,15.26c.1.55-2.51,3.36-2.13,3.9s1.17,2.49,2.17,2.03,1.89-.81,1.89-1.91,2.2-1.2,2.42-1.87,1.24-2.7,1.36-3.28,1.17-1.6,1.96-1.84,1.84-1.48,1.6-2.37-1.46-1.99-1.39-2.35-.43,3.16-1.05,3.71-2.44,2.37-3.18,3.49-2.25,3.26-2.7,2.87-.26-2.32-.36-2.56-.6.17-.6.17Z"/>
    </g>
    <g id="front-arm">
      <path class="cls-98" d="M10.37,22.33c.56,1.17-.08,1.77-1.93,1.79l.4,1.18c.87.28.86.62,0,1-.35.37-1.04.65-2.08.82-.56-.07-1.23.11-1.76-.04-.11-1.19.22-3.64,1.46-4.05,1.08-.37,2.92-1.84,3.91-.7Z"/>
      <path class="cls-64" d="M8.85,26.3c.74-1.09,3.49-.67,3,1h-2c-1.02,0-2.06-.05-3.08-.18-.05-1,1.41-.77,2.08-.82Z"/>
      <path class="cls-4" d="M15.85,22.3c1.72,2.33.05,3.33-5,3-.21.83-1.45.69-2,0-.52.26-2.57.4-2.24-.91.49-1.94,2.73-1.79,3.76-2.06.74-.2,1.73-.95,2.41-1.1,1.38.07,2.4.42,3.07,1.07Z"/>
      <path class="cls-86" d="M21.85,21.46c-.86,1.27-2.52,1.55-5,.84-.28.87-.62.86-1,0-1.14.13-2.53.12-3.07-1.07l9.18-1.95c2.58-.14,2.46,3.07-.12,2.18Z"/>
      <path class="cls-81" d="M23.76,18.19c1.38-.85,1.77-.31,1.09,1.12,2.26-.31,1.85,2.22-.13,2.87-.03,2.77-.62,2.47-1.87.13-1.31,1.31-1.9.84-1-.84.69-.12.99-.62.69-1.16l-.57-1.02c.61-.13,1.22-.74,1.79-1.1Z"/>
      <path class="cls-22" d="M25.44,16.93c.8.11,1.63.49,2.41.37.83.41.77.79-.13,1.13-.24,1.94-1.63,2.45-2.87.87-.52.19-1.17-.67-1.09-1.12.56-.35.76-1.38,1.68-1.26Z"/>
      <path class="cls-76" d="M10.85,25.3c2.74-.7,4.41-.37,5,1,.87.28.86.62,0,1h-4c-.46-1.2-1.92-1.09-3-1v-1h2Z"/>
      <path class="cls-53" d="M23.85,26.3c.9.25.88.58,0,1h-1l-1,1h-1c-.95-1.7-3.34-1-5-1v-1c.28-.87.62-.86,1,0,1.76-.85,5.13-.78,7,0Z"/>
      <path class="cls-72" d="M17.85,23.3c2.16,1.1.94,1.5-1,2,.87.28.86.62,0,1h-1c-1.71,0-3.35-.57-5-1,0-1.87,5.34.38,5-3h1c1.31-.88,1.87-.36,1,1Z"/>
      <path class="cls-66" d="M21.85,21.46l1,.84c.87.28.86.62,0,1,.16,2.07-4.76,1.86-5,0-.45-.13-.72-.67-1-1,1.13-1.6,3.28-.91,5-.84Z"/>
      <path class="cls-41" d="M27.72,18.43c.11.7,0,1.36.04,2.24.04.99-1.55.98-1.92,1.55l-1.13-.06.13-2.87c.94-.35,1.86-.76,2.87-.87Z"/>
      <path class="cls-6" d="M23.85,25.3c.04.33,0,.67,0,1h-7v-1c1.25-1.32,5.55-1.14,7,0Z"/>
      <path class="cls-62" d="M22.85,23.3c.55.53.92,1.23,1,2h-7l1-2c1.67.5,3.56,1.26,5,0Z"/>
    </g>
  </g>
</svg>