<?xml version="1.0" encoding="UTF-8"?>
<svg id="Enemy" xmlns="http://www.w3.org/2000/svg" viewBox="0 0 70.85 135.22">
  <defs>
    <style>
      .cls-1 {
        fill: #0f3e60;
      }

      .cls-2 {
        fill: #0d2434;
      }

      .cls-3 {
        fill: #062e48;
      }

      .cls-4 {
        fill: #000001;
      }

      .cls-5 {
        fill: #181818;
      }

      .cls-6 {
        fill: #114d6f;
      }

      .cls-7 {
        fill: #104c74;
      }

      .cls-8 {
        fill: #eff6fa;
      }

      .cls-9 {
        fill: #d29381;
      }

      .cls-10 {
        fill: #d49585;
      }

      .cls-11 {
        fill: #f1ad97;
      }

      .cls-12 {
        fill: #0b476e;
      }

      .cls-13 {
        fill: #4a4d5a;
      }

      .cls-14 {
        fill: #0e263b;
      }

      .cls-15 {
        fill: #148fd4;
      }

      .cls-16 {
        fill: #0d2f47;
      }

      .cls-17 {
        fill: #24688c;
      }

      .cls-18 {
        fill: #052a48;
      }

      .cls-19 {
        fill: #f7b0a0;
      }

      .cls-20 {
        fill: #c88070;
      }

      .cls-21 {
        fill: #f0a791;
      }

      .cls-22 {
        fill: #13314a;
      }

      .cls-23 {
        fill: #512412;
      }

      .cls-24 {
        fill: #11293c;
      }

      .cls-25 {
        fill: #172437;
      }

      .cls-26 {
        fill: #9f6f69;
      }

      .cls-27 {
        fill: #dfb7aa;
      }

      .cls-28 {
        fill: #0a486e;
      }

      .cls-29 {
        fill: #20608d;
      }

      .cls-30 {
        fill: #b37c68;
      }

      .cls-31 {
        fill: #e09a90;
      }

      .cls-32 {
        fill: #381c1a;
      }

      .cls-33 {
        fill: #1f83c6;
      }

      .cls-34 {
        fill: #163144;
      }

      .cls-35 {
        fill: #ba7a6a;
      }

      .cls-36 {
        fill: #f8ae96;
      }

      .cls-37 {
        fill: #0b517a;
      }

      .cls-38 {
        fill: #39271c;
      }

      .cls-39 {
        fill: #d28c71;
      }

      .cls-40 {
        fill: #d79c87;
      }

      .cls-41 {
        fill: #fcc9b0;
      }

      .cls-42 {
        fill: #063957;
      }

      .cls-43 {
        fill: #080d19;
      }

      .cls-44 {
        fill: #aa7e74;
      }

      .cls-45 {
        fill: #09446a;
      }

      .cls-46 {
        fill: #31a9f3;
      }

      .cls-47 {
        fill: #0a4c74;
      }

      .cls-48 {
        fill: #222323;
      }

      .cls-49 {
        fill: #935847;
      }

      .cls-50 {
        fill: #142c3d;
      }

      .cls-51 {
        fill: #c5beb6;
      }

      .cls-52 {
        fill: #145680;
      }

      .cls-53 {
        fill: #dfa08d;
      }

      .cls-54 {
        fill: #99766d;
      }

      .cls-55 {
        fill: #504e49;
      }

      .cls-56 {
        fill: #084062;
      }

      .cls-57 {
        fill: #0e2132;
      }

      .cls-58 {
        fill: #2b7ebb;
      }

      .cls-59 {
        fill: #132946;
      }

      .cls-60 {
        fill: #2487ca;
      }

      .cls-61 {
        fill: #74463a;
      }

      .cls-62 {
        fill: #b37b6f;
      }

      .cls-63 {
        fill: #2176ad;
      }

      .cls-64 {
        fill: #b97765;
      }

      .cls-65 {
        fill: #8e523f;
      }

      .cls-66 {
        fill: #ce836f;
      }

      .cls-67 {
        fill: #fcd7bd;
      }

      .cls-68 {
        fill: #0a283c;
      }

      .cls-69 {
        fill: #b68877;
      }

      .cls-70 {
        fill: #1a1b1c;
      }

      .cls-71 {
        fill: #0b2f47;
      }

      .cls-72 {
        fill: #115b88;
      }

      .cls-73 {
        fill: #16699a;
      }

      .cls-74 {
        fill: #101720;
      }

      .cls-75 {
        fill: #02527f;
      }

      .cls-76 {
        fill: #28100b;
      }

      .cls-77 {
        fill: #073f61;
      }

      .cls-78 {
        fill: #946359;
      }

      .cls-79 {
        fill: #021932;
      }

      .cls-80 {
        fill: #c2897b;
      }

      .cls-81 {
        fill: #034166;
      }

      .cls-82 {
        fill: #ae6d59;
      }

      .cls-83 {
        fill: #0c5d95;
      }

      .cls-84 {
        fill: #156595;
      }

      .cls-85 {
        fill: #b88a7e;
      }

      .cls-86 {
        fill: #1a3c5a;
      }

      .cls-87 {
        fill: #d49075;
      }

      .cls-88 {
        fill: #095280;
      }

      .cls-89 {
        fill: #b499a0;
      }

      .cls-90 {
        fill: #002c55;
      }

      .cls-91 {
        fill: #d28b76;
      }

      .cls-92 {
        fill: #e8a790;
      }

      .cls-93 {
        fill: #e7a190;
      }

      .cls-94 {
        fill: #f6b49a;
      }

      .cls-95 {
        fill: #0f2334;
      }

      .cls-96 {
        fill: #e09a84;
      }

      .cls-97 {
        fill: #d2907e;
      }

      .cls-98 {
        fill: #a25d29;
      }

      .cls-99 {
        fill: #297199;
      }

      .cls-100 {
        fill: #063151;
      }

      .cls-101 {
        fill: #d99078;
      }

      .cls-102 {
        fill: #cdd8df;
      }

      .cls-103 {
        fill: #dee8ee;
      }

      .cls-104 {
        fill: #2273a7;
      }

      .cls-105 {
        fill: #00589f;
      }

      .cls-106 {
        fill: #1d78b2;
      }

      .cls-107 {
        fill: #935440;
      }

      .cls-108 {
        fill: #a76b59;
      }

      .cls-109 {
        fill: #e99b82;
      }

      .cls-110 {
        fill: #053756;
      }

      .cls-111 {
        fill: #0c1b2b;
      }

      .cls-112 {
        fill: #f3cbc0;
      }

      .cls-113 {
        fill: #2a3241;
      }

      .cls-114 {
        fill: #083755;
      }

      .cls-115 {
        fill: #a56f5c;
      }

      .cls-116 {
        fill: #f2b39c;
      }

      .cls-117 {
        fill: #da9176;
      }

      .cls-118 {
        fill: #04365a;
      }

      .cls-119 {
        fill: #0a5c8b;
      }

      .cls-120 {
        fill: #084065;
      }

      .cls-121 {
        fill: #a86e5b;
      }

      .cls-122 {
        fill: #3d6685;
      }

      .cls-123 {
        fill: #77544b;
      }

      .cls-124 {
        fill: #f1c8b5;
      }

      .cls-125 {
        fill: #f9c5ac;
      }

      .cls-126 {
        fill: #0d3d57;
      }

      .cls-127 {
        fill: #916255;
      }

      .cls-128 {
        fill: #6f7688;
      }

      .cls-129 {
        fill: #10405e;
      }

      .cls-130 {
        fill: #e9a38e;
      }

      .cls-131 {
        fill: #f0b19b;
      }

      .cls-132 {
        fill: #dfa596;
      }

      .cls-133 {
        fill: #c3806f;
      }

      .cls-134 {
        fill: #e89983;
      }

      .cls-135 {
        fill: #e89079;
      }

      .cls-136 {
        fill: #997064;
      }

      .cls-137 {
        fill: #51393a;
      }

      .cls-138 {
        fill: #2b6690;
      }

      .cls-139 {
        fill: #194264;
      }

      .cls-140 {
        fill: #e49989;
      }

      .cls-141 {
        fill: #bd7a68;
      }

      .cls-142 {
        fill: #d1a297;
      }

      .cls-143 {
        fill: #0a5b8d;
      }

      .cls-144 {
        fill: #d68370;
      }

      .cls-145 {
        fill: #3c4856;
      }

      .cls-146 {
        fill: #9c736a;
      }

      .cls-147 {
        fill: #453131;
      }

      .cls-148 {
        fill: #e7a793;
      }

      .cls-149 {
        fill: #0d3048;
      }

      .cls-150 {
        fill: #142839;
      }

      .cls-151 {
        fill: #074a84;
      }

      .cls-152 {
        fill: #0f5e8d;
      }

      .cls-153 {
        fill: #b18a7a;
      }

      .cls-154 {
        fill: #efbeb0;
      }

      .cls-155 {
        fill: #c5a19c;
      }
    </style>
  </defs>
  <path class="cls-8" d="M20.86,55.23c-.25.99.38,2.2-.71,3.07-.65-1.76-.77-2.99-1.4-4.07.78-.39,1.06-1.21,1.27-2,.91.7.85,1.94.85,3Z"/>
  <g>
    <path class="cls-70" d="M12.75,127.22c1.91-.2,1.79,2.67.99,4.2,1.23,2.47-2.45,4.07-4.11,2.55l-.99.68c-.27,0-.53-.16-.79-.21-1.87.49-4.45.2-4.59-1.85-.96,1.65-1.74,1.3-1.52-.65.2-1.21,1.08-2.08,1.97-2.86l3.04-2.69c1.03-1.7,4.87-.63,6.01.82Z"/>
    <path class="cls-4" d="M3.26,132.59c1.35,1.26,1.68,1.94-.3,1.97-.75.18-1.49.9-2.28.24-1.2-1.01-.57-1.8.08-2.89.3.09.71-.11.98.04.45.24,1.14.31,1.52.65Z"/>
    <path class="cls-48" d="M7.85,134.44c-1.25,1.42-3.32.56-4.89.12l.3-1.97c1.28,1.12,2.95,1.53,4.59,1.85Z"/>
    <path class="cls-24" d="M10.75,102.22c.74.42,1.41.99,1.46,1.82.13,2.57-.27,9.51-.73,12.08-.07,2.06-.16,3.55-2.55,3.94,1.32.4,2.5,1.79,1.82,3.15,2.66.32,2.54,1.24,0,2-.75,1.32-3.28.63-3.03-1.08.16-.22-.04-.72-.03-1-.74-1.91-.79-4.04.06-5.92-.1-5.05-.03-10.34,2-15,.28-.87.62-.86,1,0Z"/>
    <path class="cls-103" d="M10.75,125.22c2.71-2.8,6.04.04,2,2-2.04-.08-3.95-1.04-6.01-.82.56-.5.55-1.64.98-2.26.85.58,2.05.99,3.03,1.08Z"/>
    <path class="cls-145" d="M7.69,123.14c-1.78-1.28-.88-3.96-.94-5.92h1c.04,1.97,0,3.95-.06,5.92Z"/>
    <path class="cls-126" d="M16.75,119.22c2.43.97,2.27,4,0,5l-2,5c.07.86-.27,1.73-1.01,2.2.14-1.48.14-3.11-.99-4.2.13-.42,1.11-1.22.8-1.6-.58-.72-2.19-.34-2.8-.4v-2c.22-.88.56-.85,1,0,.84-2.02,1.86-3.76,3.03-5.22-.88-1.82.39-3.53,1.97-1.78.92.37.92,1.37,0,3Z"/>
    <path class="cls-150" d="M36.02,70.13c.96.08.92.37,0,.84,1.03,2.46.38,3.37-2.27,3.25,2.13,1.9,2.2,4.01-.81,4.95.2,3.84-1.04,6.6-4.07,8.84-.93,2.6-2.3,3.98-4.12,4.12.18,3.33-.91,5.31-3.25,5.95,0,3.1-.25,6.15-.75,9.15-.72.81-.6,2.35-1.64,3-3-1.18-2.5-5.12.48-6.05-1.02-.23-1.4-.73-1.34-1.63.65-9.23,5.44-20.36,13.3-25.23-1.34-3.89-.74-10.53,4.48-7.17Z"/>
    <path class="cls-110" d="M19.58,104.17c.16,2.05-.92,4-.48,6.05.07.31-.11.69-.14,1-.29,1.93-1.05,1.88-1.38-.09-4.07,0-3.5-5.81-3.05-8.82-2.17-1.54-.32-4.35,2.25-3.18l1.39.67c-.33,2.16.14,3.61,1.41,4.36Z"/>
    <path class="cls-71" d="M18.97,111.22c-.15,1.66-.22,3.33-.22,5-.75.75-1.34,2.09-2,3,.27-.89,0-2.07,0-3-2.26.34-1.62-3.21,0-4-1.67-1.59-1.17-2.29.83-1.09.41.18.95-.03,1.38.09Z"/>
    <path class="cls-34" d="M21.9,99.22c-.42,2.75.77,5.83-1.15,8,.23-3.11-.72-6.34.75-9.15,0,.37.46.78.41,1.15Z"/>
    <path class="cls-30" d="M13.83,23.36c1.28,1.57.56,2.19-1.31,1.31-2.04,2.8-4.23,4.35-6.54,4.63-.57-.06-.98-.75-1.24-2.08-.05-.29.01-.74,0-1,1.81-1.56,3.61-3.34,5.99-3.95,1.4.03,2.44.39,3.1,1.09Z"/>
    <path class="cls-14" d="M14.75,82.23c.89.24.87.58,0,1,.25,2.62-.17,4.26-1.26,4.91,1.63,2.78,1.67,4.47.14,5.05,1.41,1.47.82,3.18-1.79,5.13,2.45,1.23,2.43,1.86-.09,2.91,1.33,1.41.77,1.92-1,1h-1c.38-.86-.22-2.14.04-3.05,1.95-6.87,2.58-14.11,3.24-21.64.14-1.6,1.45-2.49,1.78-3.48.52-1.07,2.21-1.42,2.3-.75.07.53-1.75,7.97-2.36,8.93Z"/>
    <path class="cls-28" d="M14.88,111.47c1.05,1.81,1.02,3.98-.09,6.53,1.16.72.1,2.16.13,3.02.06,1.65-1.5,3.06-3.16,2.21-.72-1.16-1.66-2.21-2.82-3.15,1.24-7.17.47-10.27,1.82-17.84l1-1c3.49-4.52,3.18,1.2,2.44,4.68.48,2.04.71,3.9.68,5.57Z"/>
    <path class="cls-17" d="M11.75,123.22c-.27-.14-.7.09-1,0-.74-.73-2.03-1.95-1.82-3.15.95-.11,2.27-.12,2.7.8.37.78.15,1.65.13,2.36Z"/>
    <path class="cls-110" d="M16.75,112.22v4c-.87.31-1.62.9-1.97,1.78-2.44-1.52.38-4.46.09-6.53.82-1.35,1.77-.67,1.87.75Z"/>
    <path class="cls-68" d="M58.75,82.23l1.03,5c2.89,1.08,4.41,8.21,1.52,9.84.54.81.62,1.16-.4,1.21.31,1.67-.45,3.15-2.26,4.46,2.63,5.18,3.63,10.23,3.01,15.16,1.9.18,1.74.97-.18,1.33.46.83.22,1.16-.71,1-1.89.13-3.02-1.47-4.02-2.88.29-1.5-1.04-3.95-1.82-5.2l-.25-3.13-2.96-10.68.96-1.03c-.94-1.62-1.01-2.71.99-2.1,3.31-.57,4.54-2.13,3.68-4.68-1.18-2.35-1.38-4.11-.61-5.27.27-2.39.7-4.39,1.28-6.02,3.03-.46,3.69,1.88.74,3Z"/>
    <path class="cls-74" d="M50.87,94.14c1.37.87,1.96,1.92,1.79,3.17.72.97,3.78,11.17,1.99,11.71-3.5-2.74-2.09-8.76-4.87-10.85l-.86-2.94c-1.36-1.64-1.04-2.41,1-1.66.72-.45,1.04-.26.95.57Z"/>
    <path class="cls-3" d="M31.55,77.31c-.64,5.7-3.35,2.54-7.09,9.79-2.85,5.51-5.34,11.08-4.87,17.07-.67.42-1.88.94-2.33-.34-.59-1.68-.29-3.29-.47-4.69-2.08-.24-1.98-1.3-.01-2.15-1.86-.63-1.67-1.44.3-1.63-.53-2.12-.19-3,1.01-2.65.86-3.72,2.53-6.69,5.01-8.9.92-4.03,2.51-7.41,4.79-10.13l2.2.59c.73.15,1.22,1.16,1.47,3.03Z"/>
    <path class="cls-111" d="M39.85,70.35c.87-.17,1.64-.06,1.76.58,1.17,6.22,2.11,9.11,5.3,14.91l-.38,2.7c.5.76.27.94-.63.58-1.12-1.75-2.69-3.53-4.1-5.07-.58-.63-.86-1.59-1.68-2.02-2.18-.93-4.13-3.91-1.95-5.76-1.79-1.09-2.5-2.85-2.15-5.29-.02-.25.13-.61,0-.84-2.1-.05-2.53-.68-1.31-1.88.45-3.97,7.15-.7,5.13,2.1Z"/>
    <path class="cls-42" d="M34.72,68.25c.45.61.95,1.21,1.31,1.88-3.83-.12-4.12,4.05-4.48,7.17-.97.14-1.72-2.17-1.47-3.03-1.12-.64-2.07-1.66-2.85-3.08-9.51-5.17-.4-10.57,5.53-4.39,1.59-.2,2.24.28,1.96,1.44Z"/>
    <path class="cls-120" d="M16.77,96.99c-.01.7-.08,1.45.01,2.15-2.94,3.59-2.84,8.81.8,12-.68-.3-.83.58-.83,1.09-.65-.19-1.27-.45-1.87-.75-3.99-6.09,2.54-9.79-3.13-10.25-.14-.97.11-1.94.09-2.91,1.38-2.72,3.09-4.31,4.93-1.33Z"/>
    <path class="cls-5" d="M66.71,121.35c1.99-.76,3.35.52,4.08,3.82l.06,3.27c-.69.07-1.48.79-2.18.7-1.6-.2-3.2-.52-4.82-.27-.29-2.85-3.77-1.91-4.13-5.14-.1-.89.08-1.93,1.03-2.5,2.73-1.42,4.72-1.38,5.97.13Z"/>
    <path class="cls-23" d="M38.62.21c3.37-.53,7.46-.25,9.07,2.98,1.12,1.17.92,1.97-.74,1.94.32.99-.41,1.36-2.2,1.09.96,1.15.42,1.72-1,1-.73,3.33-1.98,4.64-3.75,3.91-2,.45-2.46-.35-1.07-1.86.31-1.07.2-1.5-.33-1.3.13.48.19.95.05,1.33-.81,2.13-2.72,6.86-4.67,6.92.09,1.35-.65,1.3-2.22-.15-2.26,1.13-2.67.35-2.27-2.01-1.86-.65-1.75-1.46.21-1.62,4.04-4.89,1.44-10.56,8.93-12.23Z"/>
    <path class="cls-127" d="M18.75,20.23c2.53-1.81,2.48.13,1.03,2.3-2.4,1.57-4.38,1.84-5.95.83-.76.46-3.11.09-3.1-1.09,2.68-.7,5.21-1.95,8.03-2.05Z"/>
    <path class="cls-69" d="M28.56,14.98c3.72,1.41.91,3.19-1.81,4.24-.43.77-.85.77-1.26,0-1.56,1.34-2.33.84-1.8-1.14.27-.94,1.12-1.48,2.02-1.76.91-.54,1.86-.99,2.85-1.35Z"/>
    <path class="cls-51" d="M25.49,19.23c.86.31.84.65-.03,1.02,1.17,2.4.36,2.79-1.64,1.04-.05,1.52-2.01,2.12-2.76.82-2.06-1.42-.2-3.04,1.68-4.05.3-.05.63.07.93.04.6.36,1.15.86,1.8,1.14Z"/>
    <path class="cls-55" d="M22.75,18.05c-.81,1.26-1.88,2.48-1.68,4.05.46,1.42-.25,1.52-1.29.42-.04-.85-.11-1.94-1.03-2.3.99-1.23,2.46-1.92,4-2.18Z"/>
    <path class="cls-121" d="M20.81,24.07c.7,2.33-4.68,5.53-7.05,6.43,1.3.97.6,1.52-2.1,1.64.38,1.45-.8,1.77-1.92,1.09-.83-.6-1.99-.99-3-1-.87-.28-.86-.62,0-1,.58-2.06,2.89-4.96,5.06-3.09.81-2.64,5.1-5.66,8-4.84.78-.59,1.09-.29,1,.77Z"/>
    <path class="cls-76" d="M11.67,32.14c2.05-1.18,4.85-1.42,3.26,1.2-.74,1.31-2.66.92-3.96,1.1-.57-.21-.77-.89-1.21-1.21.29-.89,1.32-.7,1.92-1.09Z"/>
    <path class="cls-54" d="M5.98,29.3c2.73-.31,2.96.26.77,1.92v1c-.08.33-1.32,1.68-1.7.78-.83-1.96-.05-4.01-.32-5.78.73.45,1.07,1.26,1.24,2.08Z"/>
    <path class="cls-116" d="M19.78,22.53c.89.06.87.33.04.78-2.96,1.32-4.84,3.82-8,4.84-3.78-.03-2.29-2.34.71-3.47.42-.45.91-.83,1.31-1.31,1.82-1.11,3.82-1.38,5.95-.83Z"/>
    <path class="cls-135" d="M12.52,24.67c-.83.91-1.66,2.43-.71,3.47-1.46.47-2.7,3.6-5.06,3.09-.19-.67-.44-1.31-.77-1.92,1.23-2.85,3.41-4.57,6.54-4.63Z"/>
    <path class="cls-16" d="M20.49,68.94c-.38.63-.69.58-.94-.12-.35,1.94-1.23,2.8-2.61,1.19l-.05-1.78c2.84-1.2,4.43-4.45,5.8-6.99.19-2.82.83-3.41,1.92-1.75,4.13,1.1,1.74,5.35-1.45,6.51.92,1.82-.65,3.07-2.66,2.95Z"/>
    <path class="cls-129" d="M16.76,78.38c1.97-.65,1.23,1.76.08,2.83,1.08,2.59-.25,3.07-2.08,1.02-.6-4.34,2.63-8.38.07-8.17.49-1.46.51-3.28,2.12-4.05.86-.41,1.81-.66,2.61-1.19,2.62,2.14,2.09,4.27-1.58,6.39l-1.21,3.18Z"/>
    <path class="cls-56" d="M23.09,83.82c-2.45,3.69-2.1,9.05-6.02,11.55-2.89,1.38-4.58,1.35-3.45-2.17.3-1.55-.28-3.46-.14-5.05l1.31-.58c.72,1.94,1.71,2.45,2.96,1.56-1.4-1.41-1.11-2.71.89-1.83-.07-3,1.85-4.47,4.45-3.47Z"/>
    <path class="cls-72" d="M17.78,81.25c2.02.05,2.26.89.48,1.89,1.61.28,1.73,1.66.38,4.14-.48.47-.84,1.15-.89,1.83-2.43,2.49-3.97-3.42-3-5.89-.03-.33.05-.67,0-1l2.08-1.02c.25-.87.57-.83.95.05Z"/>
    <path class="cls-12" d="M17.75,89.12c-.03.48-.23,1.14-.03,1.63.31.78-.83,1.98-1.78,1.06-1.14-1.11-1.03-3.12-2.46-3.68.16-1.72-.09-3.6,1.26-4.91.82,2.1.59,5.09,3,5.89Z"/>
    <path class="cls-110" d="M17.07,95.36c.02.56-.29,1.09-.3,1.63-1.71-1.33-3.16.89-4.93,1.33-.05-1.91,1.13-3.47,1.79-5.13.74,1.25,1.97,2.12,3.45,2.17Z"/>
    <path class="cls-114" d="M61.64,117.89c-1.34-2.84-1.69-5.89-2.87-9.05l-2.77-7.44c1.75-1.27,3.64-1.87,4.89-3.13,2.7,1.96,4.93,16.63,3.08,19.26-.84,1.19-1.4,1.67-2.33.36Z"/>
    <path class="cls-57" d="M63.74,100.14c.49.03.95.1,1.34.31,1.67.91,4.47,16.57-.34,17.77-.57.66-1.26,1.1-1.88,1.64-.68.6-1.08.09-1.41-.64.16-.4.05-.91.18-1.33,4.22,1.01.21-17.72-.75-19.62l.4-1.21c1.03.85,1.55,2.11,2.45,3.08Z"/>
    <path class="cls-149" d="M52.95,67.18c2.83-.61,4.72,1.24,2.87,3.93,1.64,2.25,2.08,5.41,2.19,8.12-.56,1.98.61,4.73-1.28,6.02-1.92.1-1.19-3.83-.07-5.16-1.47.62-1.7,0-.7-1.84-1.14.45-1.46-.23-.97-2.06-.87-.3-.88-.63-.04-1-1.63-1.55-2.68-3.27-3.17-5.16-.7.18-1.36-.49-1.98-2.01-1.95-.86-2.57-5.33-.76-6.58.06-.89.34-.91.81-.1,2.62.54,4.6,3.37,3.09,5.85Z"/>
    <path class="cls-77" d="M56.72,85.24c.05,3.73,2.82,7.26,1.36,11.52-1.7-.53-3.02-1.33-4.43-1.57-.83,1.51-1.94.14-2.78-1.06-.27.05-.75-.41-.95-.57-2.05.35-3.65-3.33-2.51-4.91-.67-.69-.56-1.94.25-2.49,2.59.02,4.96,1.65,7.11,4.87-.9-1.97-.87-3.57.07-4.8-1.83-2.96-2.1-6.16,1.8-6.14l.07,5.16Z"/>
    <path class="cls-95" d="M53.65,95.2c-.4.67-.73,1.37-.99,2.1-.71-.96-2.07-1.6-1.79-3.17,1.03-.19,1.9.91,2.78,1.06Z"/>
    <path class="cls-50" d="M59.98,83.93c-.09,1.1-.23,2.19-.21,3.3-1.26-1.28-1.33-3.28-1.03-5,.81.09,1.3.92,1.24,1.7Z"/>
    <path class="cls-95" d="M49.93,93.56c-.63.33-.94.98-1,1.66-2.31-1.22-2.33-3.96-3.03-6.11.22-.18.43-.37.63-.58.41-1.3.58-1.19.88.12.06,1.78,1.8,3.41,2.51,4.91Z"/>
    <path class="cls-47" d="M26.74,54.04c1.8.42,2.47,1.15,2.01,2.19.9.18.86.52,0,1,1.06,1.24,1.73,2.91,2,5,.91-.36,1.24-.07.99.88,1.27.32,2.61.71,4.03,1.17.74-.84,2.23-1.12,4.48-.84,0,0,1.29,1.65,3.86,4.96-.03,1.81-.86,2.15-2.5,1.01.96,2.5.09,2.83-1.78.94-.67-1.83-3.53-1.99-5.13-2.1-7.84-.52-3.26-3.68-10.97-1.64,3.63,2.2,7.44,3.84,6.33,7.67-7.57,7.91-1.41,1.13-6.99,9.54-2.1-.49-3.13,2.19-4.45,3.47-.42-1.35-.47-2.74-.38-4.14,1.42-1.95,1.26-2.58-.48-1.89l-.95-.05-.08-2.83,1.22-3.55c2.06-1.21,2.9-3.17,2.52-5.89.54-3.49,5.56-5.71,4.12-9.46-1.38.57-1.9-1.35-.86-2.25-1.47-1.2-1.88-3.88-.05-5.01-.12-1.02.3-1.33,1.24-.93,1.26.05,2.11,1.58,1.8,2.75Z"/>
    <path class="cls-42" d="M44.86,78.4c2.13-.61,2.98.66,1.87,2.67,2.9.36,3.41,3.66.94,5.09.23.74-.28,1.72-.25,2.49-.4.54-.71.6-.88-.12.38-2.99-1.63-5.23-3.43-7.79-2.24-3.2-2.07-7.16-3.26-10.39l1.78-.94c2.86-.66,3.77,1.43,2.71,6.25l.52,2.74Z"/>
    <path class="cls-40" d="M48.75,8.23c-.02.34.14.68.15,1.02l-1.15.98c-1.09.5-2.09,1.16-3,2,1.95.05,1.85.83-.14,1.19-.44.82-.8.75-1.08-.17-2.95-.52-2.29-3,.09-4.01.57-.93,1.28-1.94,2.12-3.02,1.14-.63,2.84.73,3,2Z"/>
    <path class="cls-44" d="M46.94,5.14c1.06-1.28,2.05-.51,1.94,1.09l-.14,2c-1.26-.17-2.25-1-3-2-.28.87-.62.86-1,0,.43-.72,1.28-1.32,2.2-1.09Z"/>
    <path class="cls-32" d="M48.89,6.23c-.66-.29-1.23-.91-1.94-1.09.07-.7.19-1.45.74-1.94.48.24,1.19.42,1.55.9.51.68.16,1.53-.35,2.14Z"/>
    <path class="cls-87" d="M38.6,7.98c1.06-.44,1.17,0,.33,1.3.33.64.68,1.26,1.07,1.86,2.3.38,2.11,1.66-.19,2.03,1.08,1.52.51,2.02-1.08.98.19.96-.06,1.34-.76,1.14-.07,2.29-.7,4.01-1.89,5.15-.47,0-.83-.47-1.09-1.4-1.12-.03-1.34-1.83-1.02-2.8,1.27-3.12.7-7.72,4.63-8.25Z"/>
    <path class="cls-98" d="M38.92,9.28l-.33-1.3c-.22-1.63.5-3.7,1.75-5.25.95-1.17,3.14-.47,4.47.54-2.68,1.83-3.88,4.2-5.89,6.01Z"/>
    <path class="cls-130" d="M31.75,16.07c.97.18,1.31.57,1,1.15,1.69,2.94.35,3.61-4,2-.02,1.28-1.41,1.05-2,0,.76-1.37,1.91-2.6,1.81-4.24.27-.34.58-.65.92-.92,1.04.35,1.84,1.02,2.27,2.01Z"/>
    <path class="cls-131" d="M43.62,9.25c-.63,1.27-.35,2.67-.09,4.01-.93,2.56-1.89,2.51-2.87-.15-.09.86-.38.85-.86.06l.19-2.03c1.49-1.05,2.45-2.64,3.75-3.91,1.57.07,1.3,1.56-.12,2.02Z"/>
    <path class="cls-107" d="M33.97,16.23c1.07.34,1.09,1.86,1.02,2.8.79.85.84,2.7-.24,3.2-2.98-.79-2.71-2.5-2-5-.14-.34-.82-.76-1-1.15.71.12,1.53-.06,2.22.15Z"/>
    <path class="cls-94" d="M45.75,6.23c.05.72.17,1.55-.12,2.36-.27.74-1.25.79-2,.65l.12-2.02c.31-.3.78-.63,1-1h1Z"/>
    <path class="cls-85" d="M28.75,19.23c2.02-.8,4.21.68,2,2-1.02,1.8-5.55,2.26-5.29-.98l.03-1.02c.34.15.88,0,1.26,0h2Z"/>
    <path class="cls-113" d="M30.75,21.23c.06-.65.17-1.18.43-1.28,3.88-1.41,2.04,7.01-.07,8.51.8.27.72.54-.14.82-3.12,1.23-2.89-2.07-1.25-4.15-1.76-.41-2.97.88-3.63,3.87l-1.27.02c-.47.78-.92.77-1.37-.02-.85-.29-.76-.54.17-.77-1.04-1.24-.44-3.74.39-5.05-2.67.12-2.62-.86-.19-1.91l1.64-1.04c1.78.26,3.49.91,5.29.98Z"/>
    <path class="cls-38" d="M23.83,21.29l.19,1.91c.68,2.34-.73,3.01-2.23.87-.24.91-.57.9-.97,0-.31-.29-.64-.55-1-.77l-.04-.78c.4-.2.91-.19,1.29-.42.84-.52,1.98-.32,2.76-.82Z"/>
    <path class="cls-137" d="M18.09,30.57c1.38,1.38,2.67,3.3.4,3.66-1.02-.77-2.31-.98-3.57-.89-.59-1.27-1.99-1.62-3.26-1.2.68-.44,1.59-1.01,2.1-1.64,2.55-1.83,3.99-1.81,4.33.07Z"/>
    <path class="cls-108" d="M21.82,27.23c-.35.85-.71.84-1.07,0-1.35,1.02-2.03,1.73-2.66,3.34-1.43-.2-2.89-.25-4.33-.07,2.03-2.52,5.22-3.69,7.05-6.43.3-.06.68.1.97,0,2,.94,2.02,2.17.04,3.17Z"/>
    <path class="cls-79" d="M19.89,31.8c2.37-.65,3.18-.02,3.07,2.45.83-.21,1.04.13.7.97.99,2.19,2.73,7.73-.22,8.01.89,1.19,1.97,2.12,3.22,2.79.9.23.93.61.12,1.12-.19,1.31-.56,1.57-1.11.79-.92-.42-1.15.7-.71,3.36-.42.3-.85.59-1.24.93-2.14.28-2.8-1.36-1.97-4.92-1.09-2.71-.34-6.57-2.77-8.57-.14-1.37-.66-3.11-.47-4.5.17-1.27.16-2.48-.4-3.66.33-.86.56-.73.7.27,1.38-1.43,1.94-.92,1.09.97Z"/>
    <path class="cls-22" d="M23.7,52.22c.62,1.56,1.21,3.71.05,5.01-.19,2.39-.86,2.39-2,0-.35-.61-.28-1.49-.88-2-1.01-.08-1.29-1.08-.85-3,.45-1.68.57-3.55,1.71-4.93l1.97,4.92Z"/>
    <path class="cls-86" d="M23.75,57.23l.86,2.25c-.74.06-1.55,1.06-1.92,1.75.13-1.43-.24-2.77-.94-4.01h2Z"/>
    <path class="cls-81" d="M16.76,78.38c-.21-7.91,3.37-3.44,2.79-9.57.21-.14.88-.13.94.12,1.02,3.87,4.14,1.4,4.99,3.84,1.08,3.11-7.29-.25-8.73,5.6Z"/>
    <path class="cls-143" d="M18.26,83.15c.04-.62-.45-1.27-.48-1.89,1.44-1.87,2.42-7.25,6.33-5.84,1.39.5-1.38,7.06-1.43,7.12-1.11,1.09-3.01.7-4.42.61Z"/>
    <path class="cls-45" d="M44.12,68.39c2.62-.41,3.72.07,3.98,2.92.44,4.72.93,1.74-.11-1.46l1.8-1.83c1.1.04,1.7,1.03,1.98,2.01.63,1.89,1.69,3.61,3.17,5.16.08.32-.01.68.04,1,.14.32.24.64.2.93-.47,3.31-1.4,1.9-.37,1.08.22-.18.65-.1,1.14.05.2.61.69,1.19.7,1.84-2.46.82-2.26,3.95-1.8,6.14-2.84,1.01-5.06-1.94-3.1-4.31.2-2.44-2.71-3.68-5.86-2.6l-1.04-.91c-3.31-.91.17-9.02-3.23-8.99.46-.93,1.54-1.17,2.5-1.01Z"/>
    <path class="cls-88" d="M45.63,55.23c2.4,3,2.2,4.69-.61,5.07.63.77,1.42,1.07,2.39.88-.32-2.94,1.73-2.77,1.63.25-.6,2.24.77,4.45.76,6.58-.01,1.84,1.13,4.4.85,6.02-.31,1.82-4.46,2.17-5.3,1.59.84-3.2,1.61-6.16-1.22-7.23-1.86-.71-4.38-1.22-5.03-3.51l-3.32-.61c-4.7-.14-.14-5.04,3.86-3.61.65-2.28,1.62-4.03,2.93-5.25-.19-.51.2-.9,1.18-1.18-.87-.28-.86-.62,0-1,.28-.87.62-.86,1,0,1.56-.68,1.72.78.88,2Z"/>
    <path class="cls-52" d="M50.75,54.91c.89,1.32.55,3.89-1.12,4.27-.17.61.16,1.52.22,2.15l-.81.1c-.38-.56-1.09-.66-1.63-.25-1.82,1.97-2.29,1.8-2.39-.88.31-1.67.19-3.42.61-5.07.32-.87.69-.86,1.12,0,.32-1.63,1.09-2.32,2.3-2.08,1.71-1.15,2.38-.02,1.7,1.76Z"/>
    <path class="cls-77" d="M54.94,75.19c-1.79-.8-5.09-3.39-3.17-5.16,1.81,1.13,2.67,3.14,3.17,5.16Z"/>
    <path class="cls-6" d="M55.95,78.25c-.54.69-.91,1.56-2.01,2.03-.65-2.02.26-3.08,1.04-4.09.91.37.73,1.32.97,2.06Z"/>
    <path class="cls-37" d="M51.75,81.91c.92,1.54,2.09,2.86,3.1,4.31,1.55,2.24,3.18,5.3.87,8.35-3.32-2.82-5.71-5.62-8.05-8.42-.52-1.62-.69-3.45-.94-5.09-2.01-3.78,5.68-2.51,5.03.84Z"/>
    <path class="cls-122" d="M27.11,49.41c.71.96,1.57,1.86,2.55,2.7.56-1.68,1.58-1.54,3.06.41,3.18-.11,6.19.13,9.02.71.39-.86,1.69-1.06,2,0v1c-2.89,1-7.17.73-10,0-1.78,1.18-5.32,1.27-7.01-.19-.96-.76-1.67-1.43-1.8-2.75-.26-1.66-.02-2.78.71-3.36-.02-.52.59-1.25,1.11-.79,2.72-.03,2.72.95.35,2.27Z"/>
    <path class="cls-73" d="M34.75,57.23c4.62.25,6.29,2.68,1.27,3.62-1.2,3.33-2.62,4.08-4.27,2.26-.31-.32-.67-.58-.99-.88-1.03-1.93-1.03-3.26,0-4-.96-2.02,2.89-2.34,4-1Z"/>
    <path class="cls-75" d="M33.75,55.23c.27-.68.61-.66,1,0,2.25.26,4.34.72,6.26,1.4-.24,2.6-2.33,2.8-6.26.6-1.38.15-2.79.21-4,1-.67.8-1.34.46-2-1-.07-.32.04-.67,0-1-.38-1.5,1.29-1.83,5-1Z"/>
    <path class="cls-119" d="M42.57,55.41c.4,2.27.13,5.58-2.13,7.03-1.03.66-3.09-.65-4.65.1-.99.48-.77,1.24-.01,1.73.09,1.05-1.61,1.55-2.56,1.44-1.01-.12-1.15-1.72-1.48-2.6l3.12-1.55c-1.55-.72-2.97.42-3.47-1.71,2.05-1.46,4.01.09,6.45-1-1.03-.97-2.39-.59-3.09-1.62,1.68-.18,3.54.6,5.07-.58-2.05-1.12-4.35.39-5.07-1.42,2.44-.81,5.46-.85,7.82.18Z"/>
    <path class="cls-63" d="M33.75,54.23c.87.28.86.62,0,1-1.4,1.53-3.76-.67-5,1-1.2-.13-1.29-1.62-2.01-2.19,2.33.27,4.67.19,7.01.19Z"/>
    <path class="cls-152" d="M30.75,58.23v4c-1.38-1.28-1.61-3.23-2-5,.75.14,1.48.42,2,1Z"/>
    <path class="cls-77" d="M51.75,81.91c-.42-.71-1.73-1.25-2.18-1.75-.86-.95-2.34.1-2.84.91-.69-.6-1.64-1.76-1.87-2.67,2.94-2.09,8.05.76,8.05,2.26,0,.63-.44,1.09-1.16,1.25Z"/>
    <path class="cls-78" d="M57.55,34.46c.46,1.81,1.64,3.25,2.34,4.95.73,1.76,1.78,3.27,2.87,4.85-.6,2.01-4.32,2-5.02-.03.22-4.08-.38-4.84-3.16-7.46-.43-.4-.26-1.01.16-1.54.48-2.14,1.12-2.43,1.94-.85l.86.07Z"/>
    <path class="cls-1" d="M48.68,21.32l-.74.9c4.92.65,6.89,7.65,1.8,8.9,1.12,2.04.69,5.15,0,7.11-.28.87-.62.86-1,0-2.17.29-1.87-2.66,0-3l-2.15-5.83c-1.91-.03-3.15-1.03-3.72-3-.57.77-.9.64-1.01-.35-.86-.28-.8-.58.09-.88-.38-.86-.11-1.17.79-.93.27-2.91.8-6.32,3.95-4.85l1.98,1.93Z"/>
    <path class="cls-25" d="M48.68,21.32c2.03.68,3.69,1.99,5.21,3.47.84,1.73,1.45,4.18-.14,5.45.78,2.17-.43,3.71-2.68,2.91-.55.03-.99-.64-1.33-2.02,0-1.5,1.18-1.79,1.67-3.01.93-2.29-1.83-3.98-3.48-5.34-1.79-1.12-.87-1.69.75-1.46Z"/>
    <path class="cls-26" d="M45.82,18.14c-2.3,3.26-3.66,3.62-4.07,1.08-1.2-1.55.62-6.13,2.86-5.81l.14-1.19c.43-1.29,1.94-1.56,3.08-.99.21,2.55-1.42,4.49-2.01,6.91Z"/>
    <path class="cls-146" d="M56.68,34.38c-.67.23-1.31.52-1.94.85-.88-.25-.86-.58,0-1-2.12-.84-2.15-2.18-1-4-1.44-1.51.68-3.71.14-5.45,2.42,2.35,2.74,6.28,2.79,9.6Z"/>
    <path class="cls-13" d="M45.82,18.14c.41.29.55.91.88,1.24-2.36.62-2.1,3.6-3.95,4.85-2.08-1.51-2.71-3.06-1.89-4.66-.12-.9.19-.99.89-.34.39.29,1.07.89,1.46.61.54-.38.62-2.37,1.55-2.16.38.09.72.26,1.06.46Z"/>
    <path class="cls-65" d="M47.75,10.23l.08,1.01c-.97.5-1.99.88-3.08.99-.19-.74,0-1.58.66-1.83.78-.29,1.56-.22,2.34-.17Z"/>
    <path class="cls-97" d="M43.53,13.26l1.08.17c-.27,2.3-2.56,3.53-2.86,5.81l-.89.34c-1.38-.55-1.96-2.19-.98-3.25-.26-1.05.27-2.16.78-3.21.96,0,1.92,0,2.87.15Z"/>
    <path class="cls-134" d="M36.08,20.43l2.42,1.59c2.38-1.58,3.68-.17,2.23,1.99l.04,1.03c-4.8,4.18-7.09,3.91-6.85-.81-.9-.84-.69-2.39.82-2l.24-3.2c.77-.45,1.03.88,1.09,1.4Z"/>
    <path class="cls-141" d="M38.84,19.09c.1.79.58.91,1.36.5-.05-.89.18-.87.66-.02,1.2,1.29,2.13,2.86,1.89,4.66-.32.22-.43.73-.79.93-1.66.56-2.22.38-1.22-1.15-.1-.96-.76-1.58-1.4-1.41-1.11.29-1.78.6-2.94,1.32-.34-1.13-.19-2.33-.32-3.49.73-1.81-.27-4.34,1.89-5.15,1.26.86,2.12,2.67.87,3.81Z"/>
    <path class="cls-49" d="M39.88,16.32c.62.95.71,2.18.98,3.25-.2.08-.44,0-.66.02-.89,1.2-1.53,1.01-1.36-.5-.37-1.25-.68-2.52-.87-3.81.3-.19.45-.87.76-1.14,1.59-.4,2.15.89,1.16,2.17Z"/>
    <path class="cls-92" d="M40.66,13.11c.23.48.89,1.03.81,1.6-.12.75-.67,1.98-1.59,1.61-.45-.69-1.13-1.26-1.16-2.17.35-.32.63-.78,1.08-.98.23-.1.6-.06.86-.06Z"/>
    <path class="cls-64" d="M34.75,22.23c-.05.7-.75,1.32-.82,2l.11,2.14c.46,1.51-.69,2.61-2.17,2.02-.01.89-.27.89-.76.07-.53-2.96,2.71-3.75,1.5-6.48-.24-.54-1.08-.77-1.86-.76-.08-.62-.23-1.35-.74-1.7-.38-.26-.86-.29-1.26-.3.84-1.19,2.33-.84,3.76-.06.48-.86.21-1.46.24-1.94l2,5Z"/>
    <path class="cls-118" d="M29.72,25.13c-.31,3.1-1.3,4.83-2.98,5.2.85.27.79.55-.09.84,1.5,2.76.83,4.05-2,3.86-.13.91-.46.96-1,.18-.31-.26-.54-.59-.7-.97-1.6-1.12-.98-2.86,1.87-5.22l2.29-4.48c.49-.95,1.14-1.37,1.98-1,.48.21.76.86.62,1.58Z"/>
    <path class="cls-125" d="M33.91,31.03c2.23-2.43,6.27-.04,2.65,2.22.31.45.3.81-.16,1.16-.18,1.79-.69,2.26-1.75.72-1.08.89-2.59.97-2.7-.67-1.81.05-1.26-3.64-.99-5.17.09-.22.18-.6.14-.82l.76-.07c1.93-.61,2.01.94,2.04,2.64Z"/>
    <path class="cls-147" d="M23.62,28.24l-.17.77c.55,2.41-1.43,5.04-3.57,2.79-.18-.44-.76-.68-1.09-.97-.92-1.38.58-2.97,1.96-3.6.33.07.76-.12,1.07,0,1.47-1.43,2.25-.98,1.8,1.01Z"/>
    <path class="cls-142" d="M23.62,28.24c-.59-.34-1.15-.77-1.8-1.01.04-1.06.03-2.11-.04-3.17l2.23-.87c1.52,1.41.65,3.53-.39,5.05Z"/>
    <path class="cls-29" d="M30.96,29.28c.64,1.73.27,2.18-1.21.94.03,1.75-2.65,1.99-3.01.11.94-1.79.86-4.5,2.98-5.2-.32,1.71,0,3.04,1.25,4.15Z"/>
    <path class="cls-2" d="M22.95,34.25c-1.39-.29-2.53-1.13-3.07-2.45,1.7-.11,3.04-1.18,3.57-2.79.46-.07.92-.07,1.37.02l-1.87,5.22Z"/>
    <path class="cls-62" d="M20.75,27.23c-.29,1.39-1.43,2.33-1.96,3.6-.24-.05-.46-.23-.7-.27-.43-.92-.42-2.2.59-2.88.51-.34,1.33-.46,2.06-.46Z"/>
    <path class="cls-35" d="M28.58,45.1c1.17-.62,2.88-.31,3.17,1.12.9-.23,1.23.1,1,1,.88.29.88.66.04,1.11l2.96,3.89c1.8-1.68,2.77-1.82,2.89-.43.99-1.78,1.89-1.57,2.11.43.3-.58.63-.57,1,0,.87.28.86.62,0,1-3.88,0-8.57.45-12.08-1.12-1.26.26-2.13-1.5-2.55-2.7.01-.75-.27-1.52-.35-2.27l-.12-1.12c-1.49-1.39-1.03-1.68.89-1.4.72-.63,1.07-.47,1.05.48Z"/>
    <path class="cls-139" d="M25.75,38.23c1.1.23,1.81,1.02,2.13,2.38,3.19.94,2.38,2.9-.35,4.01-1.31,1.11-4.56.72-4.11-1.39l.22-8.01,1-.18c2.87-.45,3.45,1.58,1.1,3.19Z"/>
    <path class="cls-22" d="M27.53,44.62c-.12.46-.95.8-.89,1.4-1.16.07-2.31.29-3.99.04-.52-1.41.09-2.22.77-2.83l4.11,1.39Z"/>
    <path class="cls-22" d="M25.66,47.93c.04,1.18.39,2.59-.71,3.36-.12-1.31-1.44-2.11-1.24-4.12.84-.21,1.52.37,1.96.76Z"/>
    <path class="cls-43" d="M51.07,33.14c.97.05.96.33.06.81,1.83.59,1.6,1.29-.38,1.28,1.93.55,2.04,2.48,0,3,1.86.75,4.13,5.07,2.11,6.02-1.37,1.25-1.06,3.28-1.11,4.98-2.15.1-3.04-2.22-2-4-1.49-.03-1.47-1.62,0-2-.55-1.56-.98-3.69,0-5v-7.11c.98-.14.98,1.38,1.32,2.02Z"/>
    <path class="cls-61" d="M56.78,44.24c.08-.91.42-.86.96-.01,1.66.22,3.34.06,5.02.03.47.12.58.73.92.95,1.86,3.09-1.45,5.08-2.99,1.76-1.39.98-4.57,1.42-5.04-.84l-.89-.87c-1.69-1.28-1.23-2.01.82-1.11.37-.88.78-.82,1.22.08Z"/>
    <path class="cls-80" d="M60.69,46.97c2.8.08,2.68,1.46.06,2.25-1.66,0-2.99.34-4,1,.14,2.08-.19,2.75-1,2-2.13-1.31-.35-4.07-.1-6.09,1.76-1.09,3.26,1.36,5.04.84Z"/>
    <path class="cls-7" d="M51.8,50.23c.08,1.6-.02,3.19-.24,4.77-.26.86-.53.81-.81-.08-.54-.62-1.1-1.21-1.7-1.76-1.01,0-1.44-.98-1.3-2.92-.74-.54,0-2.02,1-2,1.13.05,2.14.71,3.05,2Z"/>
    <path class="cls-9" d="M52.68,38.31c2.26-.9,3.75,4.01,2.88,5.84-.57.03-.86.6-.82,1.11-.49-.47-1.35-.52-1.89-1.02-.17-2.16-1.09-4.13-2.11-6.02.12-2.13,1.61-2.03,1.94.08Z"/>
    <path class="cls-153" d="M58.75,52.23c1.22-.41,1.57-.22,1,1-.63.84-1.66,1.01-2.46,1.09-1.67.16-1.59-.84-1.54-2.09.03-.82.56-1.47,1-2,1.01.24,1.67.9,2,2Z"/>
    <path class="cls-136" d="M62.88,51.06c-.59.54-.66,1.68-1.13,2.33-.55-.3-1.41.04-2-.17l-1-1c-.23-.86.77-1.52,3-2,1.23-1.52,1.87-1.04,1.13.83Z"/>
    <path class="cls-18" d="M51.75,49.23l.05,1c-1.32-.09-2.35-.93-3.05-2-1.06-.09-.81-1.38,0-2-.44-.88-.06-1.18,1-1,0,1.54.74,3.05,2,4Z"/>
    <path class="cls-102" d="M51.93,56.3c.01.74.07,1.59-.24,2.33-.33.8-1.32.71-2.05.56.39-1.42.93-2.8,1.12-4.27l.81.08c-.06.42.36.88.36,1.3Z"/>
    <path class="cls-84" d="M47.41,61.18c-.49,2.16-.44,4.25.18,6.73-2.05-.07-5.02-.75-5.27-2.96-.2-1.8,2.4-3.06,2.69-4.65.82.24,1.62.52,2.39.88Z"/>
    <path class="cls-99" d="M48.75,48.23l-1,2c.79,1.67.11,3.65-1,5h-1.12l-.88-2c-1.63-.44-.45-2.17,1-2-.13-1.88.17-4.2,2-5,.28-.87.62-.86,1,0v2Z"/>
    <path class="cls-90" d="M49.05,53.15c-1.42.6-1.3,2.18-1.38,4.12-1.34-.24-.94-1.32-.92-2.05.08-1.7.25-3.5,1-5,1.03.57,1.26,1.81,1.3,2.92Z"/>
    <path class="cls-128" d="M44.75,48.23c1.46,0,1.79.99,1,3l-1,2h-3v-1c.4-1.03,1.06-2.03,2-3-.88-.55-.75-3.05,0-4,1.92-1.21,2.25-.21,1,3Z"/>
    <path class="cls-104" d="M43.75,54.23c0,.55-.6,1.21-1.18,1.18-2.6-.12-5.21-.25-7.82-.18-.28,0-.74-.07-1,0v-1h10Z"/>
    <path class="cls-155" d="M29.67,52.11c-.79.13-2.05.76-2.4.02-.53-1.15-.17-1.96-.16-2.72,1.47.12,2.5,1.23,2.55,2.7Z"/>
    <path class="cls-123" d="M62.88,51.06c-.33-.33-.76-.54-1.13-.83-.65-.01-.99-.35-1-1l-.06-2.25c.98-.32,1.54-.34,2.03-.2,1.25.38,1.61-.76.96-1.57,2.18,1.43.94,4.43-.81,5.85Z"/>
    <path class="cls-9" d="M54.75,34.23c-.06.32.04.67,0,1,1.5,2.8,5.79,4.92,3,9-.32-.04-.65.02-.96.01-1.02-2.23-2.04-4.53-3.05-6.89-1.36.38-2.47-.78-2.98-2.12l.38-1.28c1.15-1.75,3.27-2.51,3.62.28Z"/>
    <path class="cls-83" d="M48.75,35.23c-1,1.85-1.73.94-2.21-2.71-.69-2.16-1.19-2.95-1.52-2.36-.5,1.64-1.24,2.29-2.21,1.95-1.37.93-1.66-.92-.92-2.06-1.93-1.91-1.68-2.96.98-3.65,4.54-.07,5.87,4.84,5.87,8.83Z"/>
    <path class="cls-15" d="M48.75,35.23v3c.71.14.65.49,0,1-.28.87-.62.86-1,0-.41,2.74-.96,2.44-2,0-1.34-.08-1.33-.81,0-1.29-1.03-.34-1.12-1.49-.26-3.42l-.33-3.49c-.8.11-.85-.18-.14-.86.1-3.96,2.84,5.41,3.72,5.07Z"/>
    <path class="cls-144" d="M40.74,24.01c.44.35.85.73,1.22,1.15l-.09.88c-.6,1.65-2,2.65-4.2,2.99-.83,1.82-1.9,1.64-2.81-.1-1.92.52-2.32-1.33-.82-2.56-.07-.68-.19-1.46-.11-2.14.96.87.25,2.36,1.5,3.87,2.57-1.96,3.3-3.79,5.31-4.09Z"/>
    <path class="cls-31" d="M41.86,26.04c.34.05.67.36,1.01.35-.15,1.26-.28,2.56-.98,3.65-.26,1.1-.72.9-1.37-.61-1.21,2.63-2.41,2.45-2.86-.39.09-1.02.48-1.88,1.08-2.32.93-.7,2.24-.81,3.12-.67Z"/>
    <path class="cls-18" d="M49.75,43.23c-1.88.47-1.94-2.72-1-4,.04-.32,0-.68,0-1h1v5Z"/>
    <path class="cls-133" d="M54.75,34.23l-3.62-.28c.07-.22.06-.6-.06-.81l2.68-2.91c1.06,1.11,1.29,2.44,1,4Z"/>
    <path class="cls-10" d="M40.2,19.59c-.25.67-.39.92-.55,1.21-.32.58-1.4.49-2.29.44-.38-.02-.95-.58-.23-1.35.34-.36,1.25-.53,1.7-.79l1.36.5Z"/>
    <path class="cls-109" d="M34.85,28.93c1.96,1.63,1.54,2.05-.95,2.09-1.17-.44-1.29-1.83-2.04-2.64.22-1.1,1.04-1.95,2.17-2.02.1.89.43,1.76.82,2.56Z"/>
    <path class="cls-138" d="M29.75,32.23c1.66-.08,1.68,3.59,0,4-.15,1.19-.49,1.86-1,2,.01,1.78-2.82,2.04-3,0l-1.1-3.19c.75-1.25,1.13-2.68,2-3.86,1.12-.04,2.15.31,3.1,1.06Z"/>
    <path class="cls-58" d="M29.75,30.23c1.49.07,1.53,1.72,0,2-.66.33-1.54.83-2.27.6s-.74-1.12-.83-1.65c.15-.2-.03-.61.09-.84l3.01-.11Z"/>
    <path class="cls-19" d="M37.66,29.04c.95.13,1.9.34,2.86.39,1.83,2.19,2.13,7.32.91,9.4-.72.84-2.03.29-2.69-.61-1.23-.56-1.96-2.22-2.19-4.98-.07-.59-.12-1.41-.65-1.86-.56-.47-1.42-.14-2-.36.14-.77.44-1.5.95-2.09.93.03,1.88-.03,2.81.1Z"/>
    <path class="cls-112" d="M31.95,34.45c2.02.38,1.51,1.61-.05,2.56-.19,1.05-1.28.78-2.15.21-.49-.31-.48-.64,0-1v-6c.51-.02,1.03-.48,1.21-.94,1.38,1.23.7,3.55.99,5.17Z"/>
    <path class="cls-148" d="M36.69,38.35c.3,2.38-.42,2.47-1.88.61-4.07.46-5.75-.11-5.06-1.73l2.15-.21c.13-1.39,1.34-2.09,2.75-1.89.57-.27,1.15-.52,1.75-.72,1.03.64,1.75,3.36.29,3.95Z"/>
    <path class="cls-67" d="M34.65,35.13c-.39,1.23-1.51,1.77-2.75,1.89-.06-.84.2-1.73.05-2.56.92.1,2.06-.12,2.7.67Z"/>
    <path class="cls-91" d="M38.75,38.23c.84.62.51.96-1,1-1.21,1.63-1.87,1.05-1.06-.87l-.29-3.95.16-1.16c1.23,1.28,1.59,3.27,2.19,4.98Z"/>
    <path class="cls-132" d="M33.59,39.42c2.34.86,2.11,2.03.23,3.43.52,2.28-3.42,2.47-5.24,2.25-.35-.14-.68-.36-1.05-.48.33-1.3.34-2.68.35-4.01.02-.9.34-.96.94-.23.01-2.16,1.61-2.47,4.78-.95Z"/>
    <path class="cls-53" d="M37.75,48.23c1.9,1.57.03,3.39-2,4-1-.06-2.87.34-3.73-.62-.71-.79-.03-2.65.77-3.27.8-1.03,4.15-1.64,4.96-.11Z"/>
    <path class="cls-20" d="M36.75,46.23c2.56.36,4.01-.25,4.36-1.83l1.64,1.83c.66.29.64.63,0,1-.34,1.34-.9,2.02-2,1,.09,1.98-.65,2.18-1.55.41-.71,1.8-1.43,1.57-1.45-.41l-4.96.11-.04-1.11c-.04-1.5,2.76-1.66,4-1Z"/>
    <path class="cls-117" d="M33.82,42.85c.26-.85.55-.78.86.11,1.98.65,2.34,1.41,1.07,2.27-.53,1.03-2.82,1.22-4,1-1.21.24-2.47-.07-3.17-1.12,1.74-2.76,2.54.01,5.24-2.25Z"/>
    <path class="cls-36" d="M35.75,45.23c-.21-1.67,2.52-1.47,3,0,.92,1.3-.65,1.49-2,1l-4,1c-.38-.28-.71-.63-1-1,1.04-1.12,2.57-1,4-1Z"/>
    <path class="cls-100" d="M28.75,38.23c2.86.07,2.61.98.07,2.15-.29.12-.64.13-.94.23-.84.28-1.95.94-2.12.06-.21-1.05.21-1.8,0-2.44h3Z"/>
    <path class="cls-106" d="M49.75,43.23v2c-.35.32-.68.65-1,1h-1c-1.09-.53-.93-1.25,0-2-.59-1.21-1.56-4.37,0-5h1c-.17,1.43-.1,2.96,1,4Z"/>
    <path class="cls-11" d="M53.73,37.34c.36.86-.03,1.15-1.05.97l-1.94-.08c.08-1-.27-2.09,0-3,.67-.07,1.5-.21,2.22.23.54.33.69,1.21.76,1.88Z"/>
    <path class="cls-41" d="M56.78,44.24c-.4,0-.81-.1-1.22-.08l-2.88-5.84c.32-.35.67-.67,1.05-.97,3.44.19,3.03,4.1,3.05,6.89Z"/>
    <path class="cls-96" d="M60.75,49.23c.38.27.64.71,1,1-1.42.86-4.34,1.81-5,0,.05-.99,0-2.21,1.45-2.06.86.08,1.78.52,2.55,1.06Z"/>
    <path class="cls-39" d="M61.75,50.23c-.23,1.56-2.11,1.18-3,2-.47-.08-1.08.16-1.49-.01-.77-.31-.53-1.26-.51-1.99h5Z"/>
    <path class="cls-151" d="M47.75,44.23c0,.65.1,1.35,0,2-.28,1.8-.7,3.67-2,5-.49-.91-.94-1.95-1-3-.18-2.74.49-4.08,2-4,.28-.87.62-.86,1,0Z"/>
    <path class="cls-33" d="M45.75,37.94c-.11.36,0,.91,0,1.29,1.61.25,1.97,3.8,1,5-.45,1.34-1.24,2.8-2,4-.07-1.08.29-2.57-1-3-.51-.21-.55-.55-.17-1-2.91-1.82-2.12-3.47,1.17-4-1.23-.2-1.78-.93-1-2,.15-1.71,1.52-2.18,2-.29Z"/>
    <path class="cls-154" d="M41.75,52.23h-1c-1.49-.55-.43-2.49,1-2-.24-.9.1-1.24,1-1,.28-.87.62-.86,1,0,0,.67.23,1.44-.21,2.24-.28.51-1.1.71-1.79.76Z"/>
    <path class="cls-89" d="M43.75,45.23v4h-1c-1.39-.16-1.22-1.31,0-2v-1c-.87-.28-.86-.62,0-1-.46-1.27-.45-1.58.83-1,.02.33.17.67.17,1Z"/>
    <path class="cls-21" d="M38.64,51.79c-.96,0-1.93.49-2.89.43,1.01-1.13,2.06-2.41,2-4l1.45.41c2.23.4,1.51,3.34-.56,3.16Z"/>
    <path class="cls-101" d="M40.75,48.23c1.35-.99,1.64.8,1,2l-1,2c-.7,0-1.41-.44-2.11-.43.4-1.03,1.52-2.19.56-3.16.53-.09,1.05-.23,1.55-.41Z"/>
    <path class="cls-27" d="M41.89,30.04l.92,2.06c1.52-1.05,1.64.84.93,2.12-.43,1.71-.76,3.38-1,5-.49.83-1.03.5-1.31-.39.22-.62.49-1.5.04-1.93-.64-.61-1.34-.6-2.71-1.14,2.57-1.18,2.15-3.99,1.76-6.33.45.02,1.16.14,1.37.61Z"/>
    <path class="cls-60" d="M45.16,31.02c.42,1.96,1.1,5.98-1.41,5.21-1.02-.15-.58-1.19,0-2l-.93-2.12c.69-.74.99-2.08,2.21-1.95.71.22.52.43.14.86Z"/>
    <path class="cls-46" d="M45.75,37.94l-2,.29c-.92-.25-.87-1.59,0-2,1.53-1.22.8-3.47,1.41-5.21,1.56,1.7,1.25,4.76.59,6.92Z"/>
    <path class="cls-105" d="M47.75,39.23v5h-1c.53-1.58-.96-3.44-1-5h2Z"/>
    <path class="cls-82" d="M29.75,37.23c.96,2.2,3.77.05,5.06,1.73.83,1.79.1,2.06-1.21.46-1.65-.08-3.26.3-4.78.95l-.07-2.15c-.03-.79.08-1.81,1-2v1Z"/>
    <path class="cls-115" d="M41.44,38.83l1.31.39c.87.28.86.62,0,1-.23,2.05-5.46,1.09-5-1,.04-.51.48-.96,1-1,.94-.07,1.88.13,2.69.61Z"/>
    <path class="cls-124" d="M37.75,39.23c1.64.45,3.29,1,5,1,.2-2.66.86-2.66,2,0-.79,1.19-1.13,2.58-1.17,4l-.83,1-2.26.06c2.71-3.28-3.53-2.87-5.81-2.33-.28-.02-.58-.05-.86-.11-.58-1.06-.74-2.31-.23-3.43.36.02.87-.32,1.21-.46.61-.26,1.21-.57,1.88-.61.37.2.64.76,1.06.87Z"/>
    <path class="cls-93" d="M42.75,45.23v1c-2.07-.15-4.19,1.88-6,0,.83,0,1.38-.58,2-1l-.09-.96c-1.84.27-3.17-.16-3.97-1.3,1.05-1.51,3.37-.58,5.53-.76,1.26-.1,1.74,1.8,2.54,3.03Z"/>
    <path class="cls-140" d="M42.75,47.23v2c-.29.37-.63.71-1,1l-1-2c.53-.56,1.24-.89,2-1Z"/>
    <path class="cls-66" d="M38.75,45.23h-3c-.4-.74-1.13-1.36-1.07-2.27l5.83.49c.74.06.15,1.62-.22,1.79-.35.17-1.1-.3-1.54-.01Z"/>
    <path class="cls-59" d="M43.75,36.23v2l1,2h-2v-1c0-1.69-.93-4.18,1-5v2Z"/>
  </g>
</svg>