<?xml version="1.0" encoding="UTF-8"?>
<svg id="Enemy" xmlns="http://www.w3.org/2000/svg" viewBox="0 0 136.39 70.63">
  <defs>
    <style>
      .cls-1 {
        fill: #0f3e60;
      }

      .cls-2 {
        fill: #0d2434;
      }

      .cls-3 {
        fill: #062e48;
      }

      .cls-4 {
        fill: #000001;
      }

      .cls-5 {
        fill: #181818;
      }

      .cls-6 {
        fill: #114d6f;
      }

      .cls-7 {
        fill: #104c74;
      }

      .cls-8 {
        fill: #eff6fa;
      }

      .cls-9 {
        fill: #d29381;
      }

      .cls-10 {
        fill: #d49585;
      }

      .cls-11 {
        fill: #f1ad97;
      }

      .cls-12 {
        fill: #0b476e;
      }

      .cls-13 {
        fill: #4a4d5a;
      }

      .cls-14 {
        fill: #0e263b;
      }

      .cls-15 {
        fill: #148fd4;
      }

      .cls-16 {
        fill: #0d2f47;
      }

      .cls-17 {
        fill: #24688c;
      }

      .cls-18 {
        fill: #052a48;
      }

      .cls-19 {
        fill: #f7b0a0;
      }

      .cls-20 {
        fill: #c88070;
      }

      .cls-21 {
        fill: #f0a791;
      }

      .cls-22 {
        fill: #13314a;
      }

      .cls-23 {
        fill: #512412;
      }

      .cls-24 {
        fill: #11293c;
      }

      .cls-25 {
        fill: #172437;
      }

      .cls-26 {
        fill: #9f6f69;
      }

      .cls-27 {
        fill: #dfb7aa;
      }

      .cls-28 {
        fill: #0a486e;
      }

      .cls-29 {
        fill: #20608d;
      }

      .cls-30 {
        fill: #b37c68;
      }

      .cls-31 {
        fill: #e09a90;
      }

      .cls-32 {
        fill: #381c1a;
      }

      .cls-33 {
        fill: #1f83c6;
      }

      .cls-34 {
        fill: #163144;
      }

      .cls-35 {
        fill: #ba7a6a;
      }

      .cls-36 {
        fill: #f8ae96;
      }

      .cls-37 {
        fill: #0b517a;
      }

      .cls-38 {
        fill: #39271c;
      }

      .cls-39 {
        fill: #d28c71;
      }

      .cls-40 {
        fill: #d79c87;
      }

      .cls-41 {
        fill: #fcc9b0;
      }

      .cls-42 {
        fill: #063957;
      }

      .cls-43 {
        fill: #080d19;
      }

      .cls-44 {
        fill: #aa7e74;
      }

      .cls-45 {
        fill: #09446a;
      }

      .cls-46 {
        fill: #31a9f3;
      }

      .cls-47 {
        fill: #0a4c74;
      }

      .cls-48 {
        fill: #222323;
      }

      .cls-49 {
        fill: #935847;
      }

      .cls-50 {
        fill: #142c3d;
      }

      .cls-51 {
        fill: #c5beb6;
      }

      .cls-52 {
        fill: #145680;
      }

      .cls-53 {
        fill: #dfa08d;
      }

      .cls-54 {
        fill: #99766d;
      }

      .cls-55 {
        fill: #504e49;
      }

      .cls-56 {
        fill: #084062;
      }

      .cls-57 {
        fill: #0e2132;
      }

      .cls-58 {
        fill: #2b7ebb;
      }

      .cls-59 {
        fill: #132946;
      }

      .cls-60 {
        fill: #2487ca;
      }

      .cls-61 {
        fill: #74463a;
      }

      .cls-62 {
        fill: #b37b6f;
      }

      .cls-63 {
        fill: #2176ad;
      }

      .cls-64 {
        fill: #b97765;
      }

      .cls-65 {
        fill: #8e523f;
      }

      .cls-66 {
        fill: #ce836f;
      }

      .cls-67 {
        fill: #fcd7bd;
      }

      .cls-68 {
        fill: #0a283c;
      }

      .cls-69 {
        fill: #b68877;
      }

      .cls-70 {
        fill: #1a1b1c;
      }

      .cls-71 {
        fill: #0b2f47;
      }

      .cls-72 {
        fill: #115b88;
      }

      .cls-73 {
        fill: #16699a;
      }

      .cls-74 {
        fill: #101720;
      }

      .cls-75 {
        fill: #02527f;
      }

      .cls-76 {
        fill: #28100b;
      }

      .cls-77 {
        fill: #073f61;
      }

      .cls-78 {
        fill: #946359;
      }

      .cls-79 {
        fill: #021932;
      }

      .cls-80 {
        fill: #c2897b;
      }

      .cls-81 {
        fill: #034166;
      }

      .cls-82 {
        fill: #ae6d59;
      }

      .cls-83 {
        fill: #0c5d95;
      }

      .cls-84 {
        fill: #156595;
      }

      .cls-85 {
        fill: #b88a7e;
      }

      .cls-86 {
        fill: #1a3c5a;
      }

      .cls-87 {
        fill: #d49075;
      }

      .cls-88 {
        fill: #095280;
      }

      .cls-89 {
        fill: #b499a0;
      }

      .cls-90 {
        fill: #002c55;
      }

      .cls-91 {
        fill: #d28b76;
      }

      .cls-92 {
        fill: #e8a790;
      }

      .cls-93 {
        fill: #e7a190;
      }

      .cls-94 {
        fill: #f6b49a;
      }

      .cls-95 {
        fill: #0f2334;
      }

      .cls-96 {
        fill: #e09a84;
      }

      .cls-97 {
        fill: #d2907e;
      }

      .cls-98 {
        fill: #a25d29;
      }

      .cls-99 {
        fill: #297199;
      }

      .cls-100 {
        fill: #063151;
      }

      .cls-101 {
        fill: #d99078;
      }

      .cls-102 {
        fill: #dee8ee;
      }

      .cls-103 {
        fill: #2273a7;
      }

      .cls-104 {
        fill: #00589f;
      }

      .cls-105 {
        fill: #1d78b2;
      }

      .cls-106 {
        fill: #935440;
      }

      .cls-107 {
        fill: #a76b59;
      }

      .cls-108 {
        fill: #e99b82;
      }

      .cls-109 {
        fill: #053756;
      }

      .cls-110 {
        fill: #0c1b2b;
      }

      .cls-111 {
        fill: #f3cbc0;
      }

      .cls-112 {
        fill: #2a3241;
      }

      .cls-113 {
        fill: #083755;
      }

      .cls-114 {
        fill: #a56f5c;
      }

      .cls-115 {
        fill: #f2b39c;
      }

      .cls-116 {
        fill: #da9176;
      }

      .cls-117 {
        fill: #04365a;
      }

      .cls-118 {
        fill: #0a5c8b;
      }

      .cls-119 {
        fill: #084065;
      }

      .cls-120 {
        fill: #a86e5b;
      }

      .cls-121 {
        fill: #3d6685;
      }

      .cls-122 {
        fill: #77544b;
      }

      .cls-123 {
        fill: #f1c8b5;
      }

      .cls-124 {
        fill: #f9c5ac;
      }

      .cls-125 {
        fill: #0d3d57;
      }

      .cls-126 {
        fill: #916255;
      }

      .cls-127 {
        fill: #6f7688;
      }

      .cls-128 {
        fill: #10405e;
      }

      .cls-129 {
        fill: #e9a38e;
      }

      .cls-130 {
        fill: #f0b19b;
      }

      .cls-131 {
        fill: #dfa596;
      }

      .cls-132 {
        fill: #c3806f;
      }

      .cls-133 {
        fill: #e89983;
      }

      .cls-134 {
        fill: #e89079;
      }

      .cls-135 {
        fill: #997064;
      }

      .cls-136 {
        fill: #51393a;
      }

      .cls-137 {
        fill: #2b6690;
      }

      .cls-138 {
        fill: #194264;
      }

      .cls-139 {
        fill: #e49989;
      }

      .cls-140 {
        fill: #bd7a68;
      }

      .cls-141 {
        fill: #d1a297;
      }

      .cls-142 {
        fill: #0a5b8d;
      }

      .cls-143 {
        fill: #d68370;
      }

      .cls-144 {
        fill: #3c4856;
      }

      .cls-145 {
        fill: #9c736a;
      }

      .cls-146 {
        fill: #453131;
      }

      .cls-147 {
        fill: #e7a793;
      }

      .cls-148 {
        fill: #0d3048;
      }

      .cls-149 {
        fill: #142839;
      }

      .cls-150 {
        fill: #074a84;
      }

      .cls-151 {
        fill: #0f5e8d;
      }

      .cls-152 {
        fill: #b18a7a;
      }

      .cls-153 {
        fill: #efbeb0;
      }

      .cls-154 {
        fill: #c5a19c;
      }
    </style>
  </defs>
  <g id="BadOne">
    <path class="cls-8" d="M55.91,52.51c1,.22,2.19-.45,3.09.6-1.73.72-2.96.87-4.01,1.54-.42-.76-1.25-1.01-2.04-1.2.66-.93,1.91-.92,2.97-.95Z"/>
    <g>
      <path class="cls-70" d="M128.15,58.11c-.26-1.91,2.61-1.88,4.16-1.14,2.43-1.31,4.16,2.31,2.69,4.02l.71.97c.01.27-.14.54-.18.8.56,1.85.36,4.44-1.69,4.65,1.69.91,1.36,1.69-.59,1.55-1.22-.16-2.11-1.01-2.92-1.86l-2.79-2.95c-1.73-.97-.8-4.85.61-6.04Z"/>
      <path class="cls-4" d="M133.84,67.41c1.21-1.39,1.88-1.75,1.97.23.21.74.96,1.46.32,2.27-.96,1.23-1.78.63-2.89.03.08-.3-.13-.71,0-.98.23-.46.27-1.15.59-1.55Z"/>
      <path class="cls-48" d="M135.53,62.76c1.46,1.2.68,3.3.29,4.88l-1.97-.23c1.07-1.32,1.43-3,1.69-4.65Z"/>
      <path class="cls-24" d="M103.23,60.98c.39-.75.94-1.45,1.77-1.52,2.57-.22,9.52-.06,12.1.31,2.06,0,3.55.03,4.03,2.41.36-1.33,1.7-2.57,3.09-1.93.23-2.67,1.15-2.58,2-.07,1.35.7.74,3.26-.97,3.06-.23-.15-.72.07-1,.07-1.88.81-4.01.93-5.92.14-5.05.28-10.34.39-15.06-1.48-.88-.25-.88-.59-.03-1Z"/>
      <path class="cls-102" d="M126.22,60.18c-2.9-2.61-.17-6.04,1.93-2.07,0,2.04-.9,3.98-.61,6.04-.52-.54-1.66-.49-2.29-.9.55-.87.92-2.09.97-3.06Z"/>
      <path class="cls-144" d="M124.25,63.31c-1.22,1.83-3.93,1.02-5.88,1.14l-.03-1c1.97-.11,3.95-.14,5.92-.14Z"/>
      <path class="cls-125" d="M120.01,54.39c.88-2.46,3.92-2.41,5-.17l5.07,1.82c.85-.1,1.74.21,2.24.93-1.49-.09-3.11-.03-4.16,1.14-.42-.11-1.26-1.07-1.63-.75-.69.61-.27,2.2-.3,2.81l-2,.07c-.89-.19-.87-.53-.03-1-2.05-.77-3.83-1.72-5.33-2.85-1.79.94-3.54-.27-1.84-1.91.34-.93,1.34-.96,3-.1Z"/>
      <path class="cls-149" d="M70.28,36.84c.05-.96.34-.93.84-.02,2.43-1.11,3.35-.5,3.33,2.16,1.83-2.2,3.93-2.34,4.98.64,3.83-.33,6.63.81,8.97,3.76,2.64.83,4.05,2.16,4.26,3.98,3.32-.29,5.34.72,6.06,3.04,3.1-.11,6.15.04,9.17.43.84.69,2.37.52,3.06,1.54-1.07,3.04-5.03,2.68-6.07-.27-.19,1.03-.68,1.43-1.58,1.4-9.25-.33-20.54-4.72-25.68-12.41-3.84,1.48-10.49,1.11-7.32-4.22Z"/>
      <path class="cls-109" d="M104.87,52.08c2.04-.23,4.03.78,6.07.27.3-.08.69.09,1,.1,1.93.22,1.91.99-.04,1.39.14,4.07-5.68,3.7-8.71,3.36-1.47,2.22-4.33.47-3.25-2.14l.62-1.41c2.17.25,3.61-.27,4.31-1.56Z"/>
      <path class="cls-71" d="M111.94,52.45c1.67.09,3.34.11,5,.04.77.72,2.14,1.27,3.07,1.89-.9-.24-2.07.07-3,.1.42,2.25-3.15,1.73-4,.14-1.53,1.72-2.25,1.25-1.12-.8.17-.42-.07-.95.04-1.39Z"/>
      <path class="cls-34" d="M99.85,49.94c2.76.33,5.8-.97,8.03.87-3.11-.12-6.31.94-9.17-.43.37-.02.76-.49,1.13-.45Z"/>
      <path class="cls-30" d="M24.31,60.66c1.52-1.34,2.16-.64,1.35,1.26,2.87,1.95,4.49,4.07,4.86,6.38-.04.57-.71,1.01-2.03,1.31-.29.06-.74.01-1,.03-1.62-1.75-3.46-3.5-4.16-5.85-.02-1.4.3-2.45.98-3.14Z"/>
      <path class="cls-14" d="M83.11,57.68c.21-.9.55-.89,1-.03,2.61-.34,4.26.03,4.95,1.09,2.72-1.72,4.41-1.83,5.05-.32,1.42-1.46,3.15-.93,5.19,1.61,1.14-2.49,1.78-2.49,2.91-.01,1.36-1.37,1.89-.83,1.03.96l.03,1c-.88-.35-2.13.29-3.05.06-6.93-1.71-14.19-2.08-21.74-2.48-1.6-.08-2.54-1.36-3.54-1.66-1.09-.48-1.5-2.16-.83-2.27.53-.09,8.03,1.47,9,2.05Z"/>
      <path class="cls-28" d="M112.33,56.53c1.77-1.11,3.95-1.16,6.53-.13.68-1.18,2.16-.18,3.01-.24,1.64-.11,3.11,1.39,2.32,3.08-1.13.76-2.15,1.74-3.05,2.93-7.21-.99-10.28-.11-17.9-1.2l-1.03-.96c-4.64-3.33,1.09-3.22,4.59-2.61,2.02-.55,3.87-.84,5.54-.88Z"/>
      <path class="cls-17" d="M124.18,59.25c-.13.28.11.7.03,1-.7.77-1.88,2.1-3.09,1.93-.14-.95-.2-2.26.7-2.72.77-.4,1.65-.21,2.35-.21Z"/>
      <path class="cls-109" d="M113.02,54.63l4-.14c.34.86.96,1.59,1.84,1.91-1.43,2.49-4.47-.22-6.53.13-1.38-.78-.73-1.75.69-1.9Z"/>
      <path class="cls-68" d="M81.57,13.71l4.96-1.2c.98-2.93,8.05-4.7,9.78-1.86.79-.57,1.14-.66,1.22.36,1.66-.37,3.17.34,4.53,2.11,5.08-2.81,10.1-3.99,15.05-3.54.11-1.9.91-1.77,1.34.13.81-.49,1.15-.26,1.02.68.2,1.88-1.37,3.06-2.74,4.12-1.51-.23-3.91,1.18-5.14,2l-3.12.36-10.57,3.33-1.07-.93c-1.59.99-2.67,1.11-2.14-.92-.69-3.29-2.29-4.46-4.81-3.51-2.31,1.26-4.06,1.52-5.25.79-2.39-.19-4.41-.54-6.06-1.07-.57-3.01,1.75-3.75,2.97-.84Z"/>
      <path class="cls-74" d="M93.75,21.16c.82-1.4,1.85-2.03,3.1-1.9.95-.75,11.03-4.17,11.63-2.4-2.62,3.59-8.68,2.39-10.67,5.24l-2.91.96c-1.59,1.42-2.38,1.12-1.7-.94-.47-.7-.3-1.03.54-.97Z"/>
      <path class="cls-3" d="M77.6,41.07c5.72.45,2.66,3.25,10.04,6.75,5.61,2.66,11.26,4.95,17.23,4.27.44.65,1.01,1.84-.26,2.34-1.66.65-3.28.41-4.67.64-.16,2.09-1.23,2.03-2.15.09-.56,1.89-1.38,1.72-1.64-.24-2.1.6-3,.3-2.68-.91-3.75-.73-6.77-2.3-9.07-4.7-4.06-.78-7.49-2.25-10.29-4.43l.52-2.22c.12-.73,1.11-1.26,2.98-1.57Z"/>
      <path class="cls-110" d="M70.36,33.01c-.2-.86-.12-1.64.52-1.78,6.17-1.39,9.03-2.43,14.71-5.82,0,0,.9.09,2.71.28.74-.53.93-.3.6.61-1.71,1.18-3.43,2.81-4.92,4.27-.61.6-1.56.92-1.96,1.75-.86,2.21-3.77,4.26-5.69,2.15-1.02,1.82-2.76,2.6-5.21,2.33-.25.02-.61-.11-.84.02.02,2.1-.59,2.56-1.84,1.37-3.99-.31-.95-7.12,1.92-5.2Z"/>
      <path class="cls-42" d="M68.44,38.21c.6-.48,1.18-.99,1.84-1.37.01,3.83,4.19,3.98,7.32,4.22.18.97-2.11,1.79-2.98,1.57-.6,1.14-1.59,2.12-2.98,2.96-4.84,9.68-10.55.77-4.58-5.37-.25-1.58.2-2.25,1.37-2.01Z"/>
      <path class="cls-119" d="M97.79,55.15c.7-.01,1.45.03,2.15-.09,3.69,2.81,8.91,2.53,11.96-1.22-.28.69.61.81,1.12.8-.17.65-.4,1.29-.69,1.9-5.95,4.2-9.87-2.2-10.13,3.48-.97.18-1.94-.05-2.91.01-2.77-1.28-4.41-2.93-1.5-4.88Z"/>
      <path class="cls-5" d="M120.39,4.38c-.83-1.96.4-3.36,3.67-4.21l3.27-.17c.1.69.84,1.45.78,2.16-.14,1.61-.4,3.22-.1,4.83-2.84.39-1.77,3.84-5,4.31-.89.13-1.93-.02-2.53-.94-1.51-2.68-1.54-4.67-.08-5.97Z"/>
      <path class="cls-23" d="M.31,36.69c-.64-3.35-.51-7.45,2.67-9.16,1.13-1.16,1.93-.98,1.97.67.98-.36,1.37.36,1.17,2.16,1.12-1,1.7-.48,1.03.96,3.36.61,4.7,1.82,4.04,3.61.52,1.98-.26,2.47-1.82,1.14-1.08-.27-1.51-.15-1.28.37.48-.14.94-.22,1.33-.09,2.16.73,6.95,2.48,7.08,4.43,1.34-.13,1.32.61-.08,2.22,1.21,2.22.45,2.65-1.93,2.34-.59,1.88-1.4,1.8-1.63-.15-5.03-3.87-10.6-1.07-12.54-8.5Z"/>
      <path class="cls-126" d="M21.01,55.85c-1.9-2.46.04-2.48,2.26-1.11,1.65,2.34,1.99,4.31,1.04,5.92.49.74.2,3.1-.98,3.14-.79-2.66-2.13-5.14-2.32-7.95Z"/>
      <path class="cls-69" d="M15.42,46.22c1.28-3.76,3.15-1.02,4.3,1.66.78.4.8.82.04,1.26,1.4,1.51.93,2.3-1.07,1.84-.95-.24-1.52-1.07-1.83-1.96-.57-.89-1.06-1.82-1.45-2.8Z"/>
      <path class="cls-51" d="M19.77,49.15c.28-.88.62-.86,1.02,0,2.36-1.25,2.78-.45,1.1,1.6,1.52,0,2.19,1.94.91,2.73-1.34,2.11-3.03.31-4.11-1.54-.06-.3.04-.63,0-.94.34-.61.81-1.18,1.07-1.84Z"/>
      <path class="cls-55" d="M18.69,51.92c1.28.76,2.55,1.8,4.11,1.54,1.4-.51,1.53.2.47,1.28-.85.07-1.94.18-2.26,1.11-1.27-.95-2.01-2.39-2.32-3.92Z"/>
      <path class="cls-120" d="M24.77,53.65c2.3-.78,5.69,4.48,6.67,6.82.93-1.33,1.5-.65,1.72,2.04,1.43-.43,1.79.73,1.16,1.88-.57.85-.92,2.02-.89,3.03-.25.88-.59.88-1,.03-2.07-.5-5.05-2.72-3.26-4.95-2.66-.72-5.84-4.9-5.11-7.83-.62-.75-.33-1.08.73-1.03Z"/>
      <path class="cls-76" d="M33.16,62.51c-1.25-2.01-1.59-4.8,1.08-3.3,1.34.7,1.02,2.62,1.24,3.92-.19.57-.86.8-1.17,1.25-.9-.26-.75-1.29-1.16-1.88Z"/>
      <path class="cls-54" d="M30.52,68.3c-.41-2.72.16-2.97,1.9-.84l1-.03c.33.06,1.72,1.26.83,1.67-1.93.89-4.01.19-5.76.52.42-.75,1.22-1.12,2.03-1.31Z"/>
      <path class="cls-115" d="M23.27,54.74c.03-.89.29-.88.77-.06,1.42,2.92,3.98,4.71,5.11,7.83.1,3.78-2.26,2.37-3.49-.59-.47-.4-.86-.88-1.35-1.26-1.17-1.78-1.51-3.77-1.04-5.92Z"/>
      <path class="cls-134" d="M25.66,61.92c.93.8,2.49,1.57,3.49.59.52,1.44,3.7,2.57,3.26,4.95-.66.22-1.3.49-1.9.84-2.89-1.13-4.68-3.25-4.86-6.38Z"/>
      <path class="cls-16" d="M69.63,52.4c.64.35.6.67-.09.95,1.95.29,2.84,1.13,1.28,2.57l-1.78.11c-1.3-2.79-4.6-4.27-7.19-5.55-2.83-.09-3.43-.71-1.82-1.86.95-4.17,5.29-1.92,6.55,1.23,1.79-.98,3.09.54,3.04,2.56Z"/>
      <path class="cls-128" d="M79.19,55.81c-.72-1.95,1.71-1.29,2.82-.17,2.55-1.17,3.07.15,1.09,2.05-4.32.75-8.47-2.34-8.17.22-1.48-.44-3.3-.39-4.12-1.98-.44-.84-.72-1.78-1.28-2.57,2.04-2.69,4.19-2.24,6.44,1.36l3.22,1.1Z"/>
      <path class="cls-56" d="M84.41,49.29c3.77,2.32,9.12,1.79,11.75,5.61,1.48,2.84,1.51,4.53-2.05,3.52-1.56-.25-3.45.4-5.05.32l-.62-1.29c1.91-.79,2.39-1.79,1.46-3.01-1.36,1.45-2.67,1.2-1.86-.82-2.99.18-4.53-1.7-3.63-4.32Z"/>
      <path class="cls-72" d="M82.03,54.68c-.02-2.02.81-2.28,1.87-.54.22-1.62,1.6-1.79,4.13-.52.48.46,1.18.8,1.86.82,2.57,2.34-3.28,4.08-5.78,3.21-.33.04-.67-.02-1,.03l-1.09-2.05c-.88-.22-.85-.54.01-.95Z"/>
      <path class="cls-12" d="M89.89,54.44c.48.02,1.15.19,1.63-.03.77-.34,2.01.77,1.13,1.74-1.07,1.18-3.08,1.13-3.59,2.59-1.72-.1-3.6.22-4.95-1.09,2.07-.9,5.07-.76,5.78-3.21Z"/>
      <path class="cls-109" d="M96.15,54.9c.55-.04,1.1.25,1.64.24-1.27,1.75,1,3.13,1.5,4.88-1.9.12-3.5-1.01-5.19-1.61,1.23-.79,2.05-2.04,2.05-3.52Z"/>
      <path class="cls-113" d="M117.12,9.57c-2.79,1.44-5.83,1.9-8.94,3.18l-7.34,3.03c-1.33-1.7-1.99-3.57-3.3-4.78,1.87-2.77,16.45-5.51,19.14-3.75,1.22.8,1.72,1.34.44,2.32Z"/>
      <path class="cls-57" d="M99.3,8.09c.01-.49.07-.96.26-1.35.85-1.71,16.41-5.05,17.77-.28.68.54,1.14,1.22,1.7,1.82.62.66.12,1.07-.59,1.43-.41-.15-.92-.02-1.34-.13.86-4.26-17.72.4-19.58,1.43l-1.22-.36c.81-1.06,2.06-1.62,2.99-2.55Z"/>
      <path class="cls-148" d="M66.74,20.03c-.7-2.8,1.07-4.76,3.83-3,2.19-1.72,5.34-2.27,8.03-2.47,2,.5,4.71-.77,6.06,1.07.17,1.91-3.78,1.32-5.15.25.67,1.45.07,1.7-1.81.76.49,1.12-.18,1.47-2.03,1.04-.27.88-.6.9-1,.08-1.5,1.68-3.18,2.8-5.05,3.35.2.7-.45,1.38-1.94,2.05-.79,1.98-5.23,2.75-6.55.99-.9-.03-.92-.31-.13-.81.45-2.63,3.2-4.72,5.74-3.3Z"/>
      <path class="cls-77" d="M84.66,15.63c3.73-.18,7.16-3.07,11.47-1.76-.47,1.72-1.22,3.07-1.41,4.48,1.53.77.21,1.93-.97,2.81.06.27-.39.77-.54.97.43,2.03-3.2,3.76-4.82,2.68-.66.69-1.92.63-2.5-.16-.07-2.59,1.47-5.01,4.62-7.27-1.94.97-3.54,1-4.8.09-2.9,1.93-6.08,2.31-6.2-1.59l5.15-.25Z"/>
      <path class="cls-95" d="M94.72,18.35c.68.38,1.4.68,2.14.92-.94.74-1.52,2.12-3.1,1.9-.23-1.03.85-1.93.97-2.81Z"/>
      <path class="cls-50" d="M83.23,12.41c1.1.05,2.2.15,3.3.09-1.23,1.31-3.23,1.44-4.96,1.2.06-.81.87-1.33,1.66-1.29Z"/>
      <path class="cls-95" d="M93.21,22.13c.35.61,1.01.9,1.7.94-1.14,2.35-3.87,2.47-6,3.24-.19-.22-.39-.42-.6-.61-1.31-.37-1.21-.53.08-.89,1.78-.12,3.34-1.92,4.82-2.68Z"/>
      <path class="cls-47" d="M54.52,46.68c.36-1.81,1.06-2.51,2.11-2.08.15-.9.49-.88,1-.03,1.2-1.11,2.85-1.83,4.93-2.17-.4-.9-.11-1.24.84-1.02.28-1.28.62-2.64,1.02-4.07-.87-.71-1.2-2.19-.99-4.45,0,0,1.61-1.34,4.82-4.03,1.81-.03,2.18.79,1.09,2.46,2.46-1.05,2.82-.19,1.01,1.75-1.8.73-1.87,3.59-1.92,5.2-.25,7.85-3.56,3.39-1.25,11.02,2.07-3.7,3.58-7.57,7.44-6.59,8.17,7.29,1.18,1.37,9.78,6.65-.41,2.12,2.29,3.05,3.63,4.32-1.34.46-2.73.57-4.13.52-2-1.35-2.62-1.17-1.87.54v.95s-2.84.17-2.84.17l-3.59-1.1c-1.28-2.01-3.27-2.78-5.97-2.31-3.51-.42-5.9-5.35-9.6-3.79.62,1.36-1.28,1.95-2.22.94-1.15,1.51-3.81,2.01-5,.22-1.02.15-1.34-.25-.97-1.21,0-1.26,1.51-2.16,2.69-1.89Z"/>
      <path class="cls-42" d="M78.23,27.73c-.68-2.11.56-3,2.61-1.96.26-2.91,3.54-3.54,5.05-1.12.73-.26,1.73.22,2.5.16.55.38.63.69-.08.89-3-.27-5.17,1.81-7.67,3.7-3.12,2.35-7.08,2.31-10.27,3.62l-1.01-1.75c-.76-2.84,1.3-3.81,6.15-2.93l2.72-.61Z"/>
      <path class="cls-40" d="M7.97,26.29c.34.01.67-.17,1.01-.19l1.02,1.12c.53,1.07,1.24,2.05,2.1,2.93-.02-1.95.77-1.88,1.2.1.83.41.77.77-.13,1.08-.42,2.96-2.92,2.39-4.01.05-.95-.54-1.98-1.21-3.09-2.02-.67-1.12.63-2.86,1.89-3.07Z"/>
      <path class="cls-44" d="M4.94,28.2c-1.32-1.02-.58-2.03,1.02-1.98l2,.07c-.13,1.26-.92,2.29-1.89,3.07.88.25.88.59.03,1-.74-.4-1.36-1.24-1.17-2.16Z"/>
      <path class="cls-32" d="M5.97,26.21c-.27.67-.87,1.27-1.02,1.98-.7-.04-1.46-.13-1.97-.67.23-.49.38-1.2.84-1.58.66-.54,1.52-.21,2.15.27Z"/>
      <path class="cls-87" d="M8.08,36.44c-.48-1.04-.05-1.17,1.28-.37.63-.35,1.24-.72,1.82-1.14.3-2.31,1.59-2.17,2.04.12,1.48-1.13,2-.58,1.01,1.05.95-.22,1.34.02,1.16.72,2.29,0,4.03.56,5.21,1.71.01.47-.44.85-1.36,1.14,0,1.12-1.78,1.4-2.77,1.11-3.16-1.16-7.74-.43-8.4-4.34Z"/>
      <path class="cls-98" d="M9.36,36.07l-1.28.37c-1.62.28-3.72-.37-5.31-1.56-1.21-.91-.58-3.12.38-4.48,1.93,2.61,4.34,3.73,6.21,5.67Z"/>
      <path class="cls-129" d="M16.4,43c.15-.98.52-1.33,1.12-1.04,2.88-1.79,3.59-.48,2.14,3.93,1.28-.03,1.1,1.38.07,2-1.39-.71-2.67-1.82-4.3-1.66-.35-.26-.67-.55-.95-.88.31-1.05.96-1.87,1.93-2.34Z"/>
      <path class="cls-130" d="M9.16,31.37c1.29.58,2.68.25,4.01-.05,2.59.84,2.58,1.8-.05,2.87.87.06.87.35.09.86l-2.04-.12c-1.1-1.45-2.73-2.35-4.04-3.61.02-1.57,1.51-1.35,2.02.05Z"/>
      <path class="cls-106" d="M16.48,40.78c.3-1.08,1.82-1.15,2.77-1.11.83-.82,2.67-.94,3.2.12-.68,3.01-2.41,2.79-4.93,2.17-.34.15-.73.85-1.12,1.04.09-.71-.12-1.52.08-2.22Z"/>
      <path class="cls-94" d="M6.08,29.35c.72-.08,1.55-.23,2.37.04.75.24.84,1.23.72,1.98l-2.02-.05c-.31-.3-.66-.76-1.03-.96l-.03-1Z"/>
      <path class="cls-85" d="M19.66,45.89c-.87-1.99.53-4.23,1.93-2.07,1.83.96,2.45,5.47-.8,5.32h-1.02c.14-.34-.03-.88-.04-1.25l-.07-2Z"/>
      <path class="cls-112" d="M21.59,43.82c-.65-.04-1.18-.13-1.29-.39-1.55-3.83,6.93-2.29,8.51-.22.24-.81.52-.74.83.11,1.34,3.07-1.97,2.96-4.1,1.39-.35,1.77.98,2.94,4,3.49l.06,1.26c.8.44.81.9.03,1.37-.26.85-.51.78-.77-.14-1.2,1.08-3.72.57-5.06-.21.21,2.67-.77,2.65-1.9.25l-1.1-1.6c.2-1.79.79-3.52.8-5.32Z"/>
      <path class="cls-38" d="M21.89,50.74l1.9-.25c2.31-.76,3.03.62.94,2.2.92.21.92.54.04.97-.28.32-.52.66-.73,1.03l-.77.06c-.22-.39-.22-.91-.47-1.28-.55-.82-.39-1.97-.91-2.73Z"/>
      <path class="cls-136" d="M31.36,56.14c1.34-1.43,3.21-2.79,3.65-.53-.74,1.05-.9,2.34-.77,3.6-1.25.63-1.55,2.04-1.08,3.3-.46-.66-1.07-1.55-1.72-2.04-1.92-2.48-1.95-3.92-.08-4.33Z"/>
      <path class="cls-107" d="M27.9,52.53c.86.32.87.68.04,1.07,1.06,1.32,1.8,1.97,3.43,2.54-.15,1.44-.15,2.9.08,4.33-2.59-1.94-3.87-5.09-6.67-6.82-.07-.3.08-.69-.04-.97.87-2.03,2.1-2.09,3.16-.15Z"/>
      <path class="cls-79" d="M32.53,54.31c-.73-2.34-.14-3.18,2.34-3.15-.24-.82.1-1.04.94-.73,2.15-1.06,7.63-3,8.02-.06,1.15-.93,2.05-2.04,2.68-3.32.2-.91.57-.95,1.11-.16,1.32.14,1.59.5.83,1.08-.39.93.74,1.13,3.38.6.31.41.62.83.97,1.21.35,2.13-1.26,2.84-4.85,2.14-2.67,1.18-6.55.57-8.47,3.06-1.36.19-3.09.77-4.48.63-1.28-.13-2.48-.07-3.65.53-.87-.3-.75-.53.24-.71-1.47-1.33-.98-1.9.93-1.12Z"/>
      <path class="cls-22" d="M52.81,49.78c1.53-.68,3.66-1.34,5-.22,2.39.11,2.42.78.07,2-.6.37-1.48.33-1.97.95-.05,1.01-1.04,1.33-2.97.95-1.7-.39-3.57-.44-4.99-1.54l4.85-2.14Z"/>
      <path class="cls-86" d="M57.81,49.56l2.22-.94c.08.74,1.11,1.51,1.82,1.86-1.44-.08-2.76.34-3.97,1.08l-.07-2Z"/>
      <path class="cls-81" d="M79.19,55.81c-7.9.49-3.55-3.25-9.66-2.46-.15-.21-.16-.87.09-.95,3.83-1.15,1.25-4.19,3.67-5.12,3.07-1.19,0,7.29,5.9,8.53Z"/>
      <path class="cls-142" d="M83.9,54.14c-.62-.02-1.25.49-1.87.54-1.92-1.37-7.33-2.16-6.05-6.12.45-1.41,7.11,1.13,7.16,1.18,1.13,1.07.8,2.98.77,4.4Z"/>
      <path class="cls-45" d="M68.26,28.81c-.5-2.6-.06-3.72,2.78-4.08,4.71-.6,1.71-.99-1.46.16l-1.89-1.74c0-1.1.97-1.74,1.94-2.05,1.86-.7,3.55-1.81,5.05-3.35.32-.09.68-.01,1-.08.32-.15.63-.26.92-.23,3.32.35,1.95,1.33,1.09.34-.19-.22-.12-.65.01-1.14.6-.22,1.16-.73,1.81-.76.91,2.43,4.03,2.12,6.2,1.59,1.1,2.8-1.76,5.13-4.2,3.25-2.45-.11-3.58,2.84-2.4,5.94l-.88,1.07c-.79,3.34-9.02.14-8.88,3.54-.95-.43-1.22-1.49-1.09-2.46Z"/>
      <path class="cls-88" d="M55.05,27.76c2.91-2.51,4.61-2.36,5.09.43.74-.66,1.02-1.46.8-2.42-2.93.42-2.83-1.64.19-1.63,2.26.52,4.42-.93,6.55-.99,1.84-.05,4.36-1.28,5.99-1.06,1.83.25,2.32,4.38,1.77,5.24-3.23-.73-6.21-1.4-7.18,1.47-.64,1.89-1.06,4.42-3.33,5.15l-.5,3.34c.03,4.7-5.03.31-3.74-3.73-2.3-.57-4.09-1.48-5.35-2.74-.5.21-.91-.17-1.22-1.14-.25.88-.59.88-1,.03-.88-.25-.88-.59-.03-1-.73-1.53.72-1.75,1.97-.95Z"/>
      <path class="cls-52" d="M54.56,22.65c1.29-.94,3.87-.68,4.3.97.62.15,1.51-.22,2.14-.3l.13.81c-.54.4-.62,1.12-.19,1.63,2.04,1.75,1.88,2.22-.8,2.42-1.68-.25-3.42-.07-5.09-.43-.89-.29-.88-.66-.04-1.11-1.64-.27-2.36-1.01-2.16-2.23-1.21-1.67-.1-2.38,1.7-1.76Z"/>
      <path class="cls-77" d="M74.67,17.76c-.74,1.82-3.21,5.2-5.05,3.35,1.07-1.85,3.05-2.78,5.05-3.35Z"/>
      <path class="cls-6" d="M77.69,16.64c.71.52,1.59.86,2.1,1.94-2,.72-3.09-.16-4.13-.9.34-.92,1.29-.78,2.03-1.04Z"/>
      <path class="cls-37" d="M81.5,20.72c1.51-.97,2.78-2.19,4.2-3.25,2.19-1.63,5.19-3.37,8.32-1.16-2.7,3.42-5.41,5.91-8.13,8.34-1.6.57-3.42.81-5.05,1.12-3.71,2.15-2.7-5.59.67-5.05Z"/>
      <path class="cls-121" d="M49.88,46.47c.93-.75,1.8-1.63,2.61-2.65-1.7-.5-1.6-1.53.31-3.07-.22-3.18-.09-6.19.39-9.04-.87-.36-1.11-1.65-.07-2l1-.03c1.1,2.85.98,7.14.35,9.99,1.24,1.73,1.46,5.27.06,7.01-.72.98-1.37,1.72-2.69,1.89-1.65.31-2.78.12-3.38-.6-.52.04-1.27-.55-.83-1.08-.13-2.72.85-2.76,2.26-.43Z"/>
      <path class="cls-73" d="M57.43,38.57c.09-4.63,2.46-6.38,3.57-1.39,3.37,1.08,4.17,2.48,2.41,4.19-.31.32-.56.69-.84,1.02-1.89,1.1-3.22,1.14-4,.14-1.98,1.03-2.44-2.81-1.14-3.96Z"/>
      <path class="cls-75" d="M55.46,39.64c-.69-.25-.68-.58-.03-1,.18-2.26.57-4.36,1.18-6.3,2.61.15,2.88,2.23.82,6.24.2,1.38.31,2.78,1.14,3.96.82.65.51,1.32-.93,2.03-.32.08-.67-.02-1,.03-1.48.43-1.87-1.22-1.17-4.96Z"/>
      <path class="cls-118" d="M55.33,30.82c2.26-.48,5.57-.33,7.1,1.88.69,1-.54,3.11.26,4.64.51.97,1.26.73,1.73-.05,1.04-.13,1.6,1.55,1.52,2.51-.08,1.01-1.68,1.21-2.55,1.57l-1.66-3.06c-.67,1.57.53,2.95-1.59,3.53-1.53-2-.05-4.01-1.22-6.41-.93,1.06-.51,2.41-1.51,3.14-.24-1.67.48-3.56-.75-5.05-1.05,2.09.54,4.34-1.25,5.12-.89-2.41-1.04-5.43-.09-7.82Z"/>
      <path class="cls-63" d="M54.46,39.67c.25-.88.59-.88,1-.03,1.58,1.34-.54,3.78,1.17,4.96-.08,1.2-1.57,1.35-2.11,2.08.19-2.34.02-4.67-.06-7.01Z"/>
      <path class="cls-151" d="M58.56,42.53l4-.14c-1.23,1.42-3.17,1.72-4.93,2.17.12-.75.37-1.49.93-2.03Z"/>
      <path class="cls-77" d="M81.5,20.72c-.69.45-1.19,1.77-1.67,2.24-.92.89.19,2.33,1.01,2.81-.57.71-1.7,1.7-2.61,1.96-2.2-2.87.47-8.07,1.98-8.12.63-.02,1.1.4,1.29,1.11Z"/>
      <path class="cls-78" d="M33.87,16.58c1.8-.52,3.19-1.75,4.87-2.51,1.74-.79,3.21-1.89,4.75-3.04,2.03.53,2.15,4.25.14,5.01-4.09-.08-4.83.55-7.34,3.42-.39.44-1.01.3-1.55-.1-2.16-.4-2.46-1.04-.91-1.91l.04-.87Z"/>
      <path class="cls-1" d="M21.05,25.9l.92.71c.47-4.94,7.41-7.16,8.84-2.11,1.99-1.19,5.12-.87,7.11-.26.88.25.88.59.03,1,.37,2.16-2.59,1.96-3,.1l-5.75,2.36c.04,1.91-.92,3.18-2.87,3.82.79.54.67.88-.32,1.02-.25.87-.55.82-.89-.06-.85.41-1.17.15-.96-.76-2.92-.16-6.34-.58-4.98-3.78l1.86-2.05Z"/>
      <path class="cls-25" d="M21.05,25.9c.61-2.05,1.86-3.75,3.28-5.33,1.69-.9,4.13-1.6,5.45-.05,2.14-.86,3.72.3,3,2.57.05.55-.6,1.02-1.97,1.4-1.5.05-1.83-1.11-3.06-1.56-2.32-.85-3.91,1.97-5.21,3.66-1.06,1.83-1.66.93-1.48-.7Z"/>
      <path class="cls-26" d="M17.98,28.87c3.34,2.19,3.74,3.53,1.23,4.03-1.5,1.25-6.15-.41-5.9-2.65l-1.2-.1c-1.31-.39-1.63-1.89-1.1-3.04,2.54-.29,4.54,1.26,6.97,1.77Z"/>
      <path class="cls-145" d="M33.83,17.44c.26.66.57,1.29.91,1.91-.22.89-.55.88-1,.03-.77,2.15-2.11,2.23-3.96,1.14-1.46,1.5-3.73-.55-5.45.05,2.26-2.5,6.18-2.96,9.5-3.13Z"/>
      <path class="cls-13" d="M17.98,28.87c.27-.41.89-.58,1.2-.92.71,2.34,3.67,1.97,4.98,3.78-1.44,2.13-2.97,2.81-4.59,2.05-.89.15-1-.15-.37-.88.27-.4.85-1.1.56-1.48-.4-.53-2.39-.54-2.21-1.47.07-.39.23-.73.42-1.08Z"/>
      <path class="cls-65" d="M10,27.22l1-.12c.53.95.95,1.96,1.1,3.04-.73.22-1.58.06-1.85-.6-.32-.77-.27-1.56-.25-2.33Z"/>
      <path class="cls-97" d="M13.17,31.32l.13-1.08c2.31.19,3.62,2.43,5.9,2.65l.37.88c-.51,1.4-2.12,2.04-3.22,1.09-1.04.29-2.17-.2-3.24-.67-.04-.96-.07-1.92.05-2.87Z"/>
      <path class="cls-133" d="M20.61,38.52l1.5-2.48c-1.66-2.32-.3-3.67,1.91-2.3l1.02-.08c4.35,4.66,4.16,6.95-.57,6.87-.81.93-2.37.77-2.03-.75l-3.2-.12c-.47-.75.84-1.06,1.36-1.14Z"/>
      <path class="cls-140" d="M19.17,35.81c.78-.13.89-.62.45-1.38-.89.08-.87-.15-.04-.66,1.25-1.24,2.78-2.23,4.59-2.05.23.31.75.4.96.76.62,1.64.46,2.2-1.11,1.26-.95.14-1.55.81-1.36,1.45.33,1.09.66,1.76,1.42,2.89-1.12.38-2.32.27-3.47.44-1.83-.67-4.33.42-5.21-1.71.81-1.29,2.6-2.21,3.78-1Z"/>
      <path class="cls-49" d="M16.36,34.86c.93-.65,2.16-.78,3.22-1.09.08.2,0,.44.04.66,1.23.84,1.06,1.5-.45,1.38-1.24.42-2.49.77-3.78,1-.2-.3-.88-.42-1.16-.72-.45-1.57.81-2.18,2.13-1.23Z"/>
      <path class="cls-92" d="M13.13,34.19c.47-.25,1-.93,1.57-.86.76.09,2,.61,1.66,1.53-.67.47-1.22,1.17-2.13,1.23-.33-.34-.81-.6-1.01-1.05-.11-.23-.08-.6-.09-.86Z"/>
      <path class="cls-64" d="M22.45,39.79c.7.03,1.34.7,2.03.75l2.14-.18c1.49-.51,2.63.6,2.09,2.1.89-.02.9.24.1.76-2.94.64-3.84-2.58-6.52-1.27-.53.26-.73,1.11-.69,1.88-.61.11-1.34.28-1.67.8-.25.39-.26.87-.26,1.27-1.22-.8-.92-2.29-.19-3.75-.88-.45-1.46-.16-1.95-.18l4.93-2.17Z"/>
      <path class="cls-117" d="M25.53,44.71c3.11.2,4.87,1.13,5.3,2.8.24-.85.52-.81.84.06,2.71-1.59,4.02-.97,3.93,1.87.91.1.97.43.22.99-.25.32-.57.56-.94.73-1.06,1.64-2.82,1.08-5.28-1.69l-4.56-2.13c-.97-.45-1.41-1.09-1.06-1.94.19-.49.84-.79,1.56-.68Z"/>
      <path class="cls-124" d="M31.27,40.32c-2.51-2.15-.26-6.27,2.12-2.73.44-.33.8-.33,1.16.12,1.79.12,2.28.61.78,1.72.93,1.05,1.06,2.55-.58,2.73.11,1.81-3.59,1.39-5.13,1.17-.22-.08-.6-.16-.83-.11l-.1-.76c-.67-1.91.87-2.04,2.57-2.13Z"/>
      <path class="cls-146" d="M28.85,50.7l.77.14c2.39-.63,5.09,1.25,2.92,3.47-.43.19-.65.78-.93,1.12-1.35.97-2.98-.48-3.67-1.83.06-.33-.14-.75-.04-1.07-1.48-1.42-1.06-2.22.95-1.83Z"/>
      <path class="cls-141" d="M28.85,50.7c-.32.6-.73,1.18-.95,1.83-1.06,0-2.11.05-3.16.15l-.94-2.2c1.35-1.57,3.51-.78,5.06.21Z"/>
      <path class="cls-29" d="M29.63,43.32c1.71-.7,2.17-.35.99,1.18,1.75-.09,2.09,2.58.21,3-1.83-.88-4.53-.71-5.3-2.8,1.72.26,3.04-.1,4.1-1.39Z"/>
      <path class="cls-2" d="M34.87,51.16c-.24,1.4-1.04,2.57-2.34,3.15-.16-1.69-1.28-3-2.92-3.47-.09-.45-.1-.91-.03-1.37l5.28,1.69Z"/>
      <path class="cls-62" d="M27.93,53.6c1.4.24,2.38,1.34,3.67,1.83-.04.24-.21.47-.24.71-.9.46-2.19.5-2.9-.49-.36-.5-.51-1.31-.53-2.05Z"/>
      <path class="cls-35" d="M45.53,45.15c-.66-1.15-.41-2.87,1.01-3.21-.26-.89.06-1.24.96-1.03.26-.89.63-.9,1.11-.08l3.78-3.1c-1.74-1.74-1.92-2.7-.53-2.88-1.81-.92-1.63-1.83.36-2.12-.59-.28-.59-.61-.03-1,.25-.88.59-.88,1-.03.14,3.87.75,8.55-.7,12.11.31,1.25-1.42,2.18-2.61,2.65-.75.01-1.51.32-2.26.43l-1.11.16c-1.33,1.54-1.64,1.09-1.43-.84-.66-.69-.51-1.05.45-1.06Z"/>
      <path class="cls-138" d="M38.75,48.22c.19-1.11.96-1.85,2.3-2.21.83-3.22,2.81-2.48,4.02.21,1.16,1.27.88,4.53-1.25,4.15l-8.02.06-.22-.99c-.54-2.85,1.45-3.5,3.15-1.21Z"/>
      <path class="cls-22" d="M45.08,46.22c.46.1.83.92,1.43.84.11,1.15.37,2.3.18,3.99-1.4.57-2.22-.02-2.86-.67l1.25-4.15Z"/>
      <path class="cls-22" d="M48.45,47.98c1.17-.08,2.57-.48,3.38.6-1.3.17-2.06,1.52-4.07,1.39-.24-.83.32-1.53.69-1.98Z"/>
      <path class="cls-43" d="M32.78,23.09c.02-.97.29-.97.81-.09.53-1.85,1.23-1.64,1.29.34.48-1.95,2.4-2.13,3-.1.68-1.89,4.92-4.3,5.94-2.32,1.29,1.32,3.31.94,5.02.94.17,2.14-2.11,3.11-3.93,2.14.02,1.49-1.57,1.52-2,.07-1.54.6-3.66,1.1-5,.17l-7.11.26c-.17-.98,1.34-1.03,1.97-1.4Z"/>
      <path class="cls-61" d="M43.68,17c-.91-.05-.88-.39-.04-.96.16-1.67-.06-3.34-.14-5.01.1-.47.71-.61.92-.95,3.02-1.97,5.13,1.27,1.87,2.93,1.02,1.36,1.58,4.52-.66,5.07l-.84.92c-1.22,1.73-1.97,1.3-1.14-.78-.89-.34-.85-.75.04-1.22Z"/>
      <path class="cls-80" d="M46.27,13c-.01-2.8,1.37-2.73,2.25-.14.07,1.66.45,2.98,1.14,3.96,2.08-.22,2.75.09,2.03.93-1.23,2.18-4.06.49-6.08.31-1.15-1.72,1.25-3.3.66-5.07Z"/>
      <path class="cls-7" d="M49.83,21.77c1.59-.14,3.19-.09,4.78.07.86.23.83.5-.06.81-.6.56-1.18,1.14-1.7,1.76.03,1.01-.93,1.48-2.88,1.41-.51.76-2.02.07-2.03-.93,0-1.13.64-2.17,1.89-3.12Z"/>
      <path class="cls-9" d="M37.89,21.3c-.98-2.22,3.88-3.88,5.74-3.08.04.57.63.84,1.14.78-.46.5-.47,1.37-.95,1.93-2.15.24-4.09,1.23-5.94,2.32-2.13-.05-2.09-1.53.01-1.94Z"/>
      <path class="cls-152" d="M51.59,14.76c-.45-1.2-.28-1.57.96-1.03.86.6,1.07,1.62,1.18,2.42.22,1.66-.78,1.61-2.04,1.61-.82,0-1.49-.51-2.03-.93.2-1.02.84-1.7,1.93-2.07Z"/>
      <path class="cls-135" d="M50.28,10.67c.56.57,1.71.6,2.37,1.05-.28.56.09,1.41-.1,2l-.96,1.03c-.85.26-1.55-.72-2.1-2.93-1.56-1.18-1.1-1.83.79-1.16Z"/>
      <path class="cls-18" d="M48.84,21.86l1-.09c-.04,1.32-.84,2.38-1.89,3.12-.05,1.06-1.35.85-2,.07-.86.47-1.17.1-1.03-.96,1.54-.05,3.03-.85,3.93-2.14Z"/>
      <path class="cls-84" d="M60.94,25.77c2.18.41,4.27.29,6.72-.42,0,2.05-.57,5.04-2.78,5.37-1.8.27-3.14-2.29-4.74-2.53.22-.82.46-1.64.8-2.42Z"/>
      <path class="cls-99" d="M47.94,24.89l2.03.93c1.64-.84,3.64-.24,5.03.82l.04,1.11-1.97.95c-.38,1.65-2.15.52-2.03-.93-1.87.2-4.2-.02-5.07-1.82-.88-.25-.88-.59-.03-1l2-.07Z"/>
      <path class="cls-90" d="M52.85,24.41c.65,1.4,2.22,1.22,4.17,1.24-.19,1.35-1.28.99-2.01.99-1.71-.02-3.51-.13-5.03-.82.54-1.05,1.76-1.32,2.88-1.41Z"/>
      <path class="cls-127" d="M48.08,28.89c-.06-1.45.93-1.82,2.96-1.1l2.03.93.03,1,.07,2-1,.03c-1.04-.36-2.07-.99-3.07-1.89-.52.9-3.02.85-4,.14-1.28-1.87-.29-2.24,2.96-1.1Z"/>
      <path class="cls-103" d="M54.11,29.68c.55-.02,1.23.56,1.22,1.14-.03,2.61-.07,5.22.09,7.82.02.28-.04.74.03,1l-1,.03-.35-9.99Z"/>
      <path class="cls-154" d="M52.49,43.82c.16.79.83,2.03.1,2.39-1.13.57-1.95.24-2.71.25.07-1.47,1.15-2.54,2.61-2.65Z"/>
      <path class="cls-122" d="M50.28,10.67c-.32.34-.52.78-.79,1.16,0,.65-.31,1-.96,1.03l-2.25.14c-.35-.97-.4-1.53-.27-2.02.34-1.26-.81-1.58-1.6-.91,1.35-2.23,4.39-1.1,5.88.6Z"/>
      <path class="cls-9" d="M33.74,19.38c.32.05.67-.07,1-.03,2.75-1.59,4.72-5.96,8.89-3.31-.03.32.04.64.04.96-2.19,1.1-4.45,2.19-6.78,3.29.43,1.34-.7,2.5-2.01,3.06l-1.29-.34c-1.79-1.09-2.63-3.18.15-3.63Z"/>
      <path class="cls-83" d="M34.95,25.34c1.88.93,1,1.7-2.63,2.3-2.14.76-2.9,1.29-2.3,1.6,1.66.44,2.33,1.16,2.02,2.14.98,1.33-.87,1.69-2.03,1-1.84,1.99-2.9,1.79-3.68-.85-.23-4.54,4.63-6.04,8.62-6.18Z"/>
      <path class="cls-15" d="M34.95,25.34l3-.1c.11-.71.46-.67,1-.03.88.25.88.59.03,1,2.75.31,2.47.87.07,2-.03,1.34-.76,1.36-1.29.05-.31,1.04-1.45,1.17-3.41.37l-3.48.45c.14.8-.15.85-.86.17-3.96.04,5.31-3.03,4.94-3.9Z"/>
      <path class="cls-143" d="M24.02,33.74c.33-.45.7-.87,1.11-1.26l.89.06c1.67.54,2.72,1.91,3.14,4.09,1.85.77,1.71,1.84,0,2.81.58,1.9-1.24,2.37-2.53.91-.68.1-1.45.24-2.14.18.83-.99,2.35-.33,3.81-1.63-2.05-2.5-3.9-3.17-4.27-5.17Z"/>
      <path class="cls-31" d="M26.01,32.54c.04-.34.33-.68.32-1.02,1.26.11,2.57.19,3.68.85,1.11.22.92.69-.57,1.39,2.67,1.12,2.54,2.32-.29,2.87-1.02-.05-1.89-.42-2.36-.99-.74-.9-.89-2.21-.78-3.1Z"/>
      <path class="cls-18" d="M42.91,24.06c.53,1.86-2.65,2.04-3.96,1.14-.32-.03-.68.02-1,.03l-.03-1,5-.17Z"/>
      <path class="cls-132" d="M33.74,19.38l-.15,3.63c-.22-.06-.6-.04-.81.09l-3-2.57c1.08-1.1,2.4-1.38,3.96-1.14Z"/>
      <path class="cls-10" d="M19.62,34.43c.68.23.94.36,1.23.51.59.3.54,1.38.52,2.27,0,.38-.54.97-1.34.28-.37-.33-.57-1.23-.85-1.68l.45-1.38Z"/>
      <path class="cls-108" d="M29.15,39.45c1.56-2.01,1.99-1.61,2.13.87-.39,1.18-1.78,1.36-2.57,2.13-1.1-.18-1.98-.97-2.09-2.1.89-.13,1.75-.49,2.53-.91Z"/>
      <path class="cls-137" d="M32.62,44.44c-.14-1.66,3.53-1.81,4-.14,1.2.11,1.87.42,2.03.93,1.78-.07,2.14,2.75.1,3l-3.15,1.21c-1.27-.71-2.72-1.03-3.93-1.87-.08-1.12.23-2.16.95-3.13Z"/>
      <path class="cls-58" d="M30.62,44.51c.02-1.49,1.66-1.58,2-.07.35.65.88,1.51.68,2.24s-1.09.78-1.62.89c-.21-.14-.61.05-.84-.06l-.21-3Z"/>
      <path class="cls-19" d="M29.15,36.64c.1-.96.28-1.91.29-2.87,2.13-1.9,7.24-2.39,9.37-1.24.87.69.37,2.02-.51,2.71-.51,1.25-2.15,2.03-4.9,2.36-.58.09-1.41.17-1.83.72-.45.58-.09,1.42-.29,2.01-.77-.11-1.51-.39-2.13-.87,0-.93-.09-1.88,0-2.81Z"/>
      <path class="cls-111" d="M34.76,42.16c.31-2.04,1.56-1.56,2.56-.04,1.06.15.83,1.25.28,2.14-.29.5-.62.5-1,.03l-4,.14-2,.07c-.04-.51-.52-1.01-.99-1.18,1.18-1.42,3.53-.82,5.13-1.17Z"/>
      <path class="cls-147" d="M38.5,37.28c2.37-.39,2.48.33.67,1.86.61,4.05.09,5.75-1.56,5.11l-.28-2.14c-1.39-.08-2.13-1.27-1.99-2.69-.29-.56-.56-1.13-.78-1.72.61-1.05,3.3-1.87,3.94-.43Z"/>
      <path class="cls-67" d="M35.34,39.43c1.24.35,1.82,1.45,1.99,2.69-.84.09-1.74-.14-2.56.04.07-.92-.19-2.05.58-2.73Z"/>
      <path class="cls-91" d="M38.3,35.23c.59-.86.94-.54,1.03.96,1.67,1.15,1.11,1.83-.84,1.09l-3.94.43-1.16-.12c1.24-1.28,3.22-1.7,4.9-2.36Z"/>
      <path class="cls-131" d="M39.67,40.34c.78-2.37,1.96-2.18,3.42-.35,2.26-.6,2.59,3.33,2.43,5.16-.13.36-.34.7-.45,1.06-1.31-.29-2.69-.24-4.02-.21-.91.01-.97-.3-.27-.93-2.16.06-2.53-1.52-1.12-4.74Z"/>
      <path class="cls-53" d="M48.33,35.88c1.5-1.96,3.39-.15,4.07,1.86-.03,1,.44,2.85-.49,3.75-.76.74-2.65.12-3.29-.65-1.06-.77-1.79-4.09-.29-4.96Z"/>
      <path class="cls-20" d="M46.36,36.95c.27-2.57-.39-4-1.98-4.3l1.77-1.7c.27-.67.61-.67,1-.03,1.35.29,2.05.83,1.07,1.96,1.98-.15,2.2.57.46,1.54,1.83.64,1.62,1.38-.36,1.46l.29,4.96-1.11.08c-1.5.1-1.76-2.71-1.14-3.96Z"/>
      <path class="cls-116" d="M43.09,40c-.85-.23-.8-.52.08-.87.58-2,1.33-2.39,2.23-1.15,1.05.49,1.32,2.77,1.14,3.96.28,1.2.02,2.47-1.01,3.21-2.81-1.65-.07-2.54-2.43-5.16Z"/>
      <path class="cls-36" d="M45.4,37.99c-1.66.26-1.56-2.46-.1-3,1.27-.96,1.51.6,1.07,1.96l1.14,3.96c-.27.39-.6.73-.96,1.03-1.16-1-1.09-2.53-1.14-3.96Z"/>
      <path class="cls-100" d="M38.65,45.23c-.03-2.86.89-2.64,2.14-.14.13.28.16.63.27.93.31.83,1.01,1.91.13,2.12-1.04.24-1.8-.15-2.44.09l-.1-3Z"/>
      <path class="cls-105" d="M42.91,24.06l2-.07c.33.34.67.66,1.03.96l.03,1c-.49,1.11-1.21.98-2,.07-1.19.63-4.31,1.71-5,.17l-.03-1c1.43.12,2.96,0,3.96-1.14Z"/>
      <path class="cls-11" d="M36.89,20.29c.85-.39,1.15,0,1,1.01v1.94c-1.02-.05-2.09.34-3.01.1-.1-.67-.26-1.49.16-2.23.32-.55,1.18-.73,1.85-.83Z"/>
      <path class="cls-41" d="M43.68,17c0,.4-.07.82-.04,1.22l-5.74,3.08c-.36-.31-.7-.65-1-1.01.07-3.44,3.99-3.17,6.78-3.29Z"/>
      <path class="cls-96" d="M48.52,12.86c.26-.39.69-.66.96-1.03.91,1.39,1.96,4.27.17,5-.99-.02-2.2.09-2.11-1.37.05-.86.46-1.8.97-2.59Z"/>
      <path class="cls-39" d="M49.49,11.83c1.56.17,1.26,2.07,2.1,2.93-.07.47.2,1.07.04,1.49-.29.78-1.24.58-1.97.57l-.17-5Z"/>
      <path class="cls-150" d="M43.98,26.03c.65-.02,1.35-.15,2-.07,1.81.22,3.69.57,5.07,1.82-.9.52-1.91,1-2.96,1.1-2.74.28-4.09-.34-4.07-1.86-.88-.25-.88-.59-.03-1Z"/>
      <path class="cls-33" d="M37.76,28.25c.36.1.91-.02,1.29-.05.2-1.62,3.73-2.1,4.96-1.17,1.35.41,2.85,1.15,4.07,1.86-1.08.1-2.57-.2-2.96,1.1-.19.52-.53.57-.99.21-1.72,2.97-3.39,2.24-4.04-1.03-.16,1.23-.86,1.81-1.96,1.07-1.72-.09-2.23-1.44-.36-1.99Z"/>
      <path class="cls-153" d="M52.18,31.75l.03,1c-.5,1.51-2.48.52-2.03-.93-.9.27-1.24-.05-1.03-.96-.88-.25-.88-.59-.03-1,.67-.02,1.43-.28,2.25.13.52.26.75,1.08.82,1.76Z"/>
      <path class="cls-89" d="M45.12,29.99l4-.14.03,1c-.11,1.4-1.27,1.26-2,.07l-1,.03c-.25.88-.59.88-1,.03-1.26.5-1.56.5-1.03-.79.33-.04.66-.2.99-.21Z"/>
      <path class="cls-21" d="M51.86,34.87c.04.96.56,1.91.53,2.88-1.17-.97-2.48-1.98-4.07-1.86l.36-1.46c.32-2.25,3.29-1.63,3.17.45Z"/>
      <path class="cls-101" d="M48.22,32.88c-1.03-1.31.74-1.66,1.96-1.07l2.03.93c.02.7-.39,1.42-.36,2.12-1.04-.37-2.24-1.44-3.17-.45-.11-.52-.27-1.04-.46-1.54Z"/>
      <path class="cls-27" d="M30.01,32.38l2.03-1c-1.1-1.49.79-1.67,2.09-1.01,1.72.37,3.4.64,5.03.82.85.46.54,1.02-.35,1.32-.62-.2-1.52-.43-1.93.03-.59.66-.55,1.36-1.05,2.75-1.27-2.52-4.06-2.01-6.39-1.54,0-.45.1-1.16.57-1.39Z"/>
      <path class="cls-60" d="M30.87,29.07c1.95-.48,5.94-1.31,5.25,1.23-.11,1.02-1.17.63-2,.07l-2.09,1.01c-.76-.66-2.11-.92-2.02-2.14.19-.72.41-.53.86-.17Z"/>
      <path class="cls-46" d="M37.76,28.25l.36,1.99c-.22.92-1.56.92-2,.07-1.28-1.48-3.49-.68-5.25-1.23,1.64-1.62,4.71-1.42,6.89-.83Z"/>
      <path class="cls-104" d="M38.98,26.2l5-.17.03,1c-1.59-.48-3.41,1.08-4.96,1.17l-.07-2Z"/>
      <path class="cls-82" d="M37.61,44.26c2.16-1.03-.08-3.77,1.56-5.11,1.76-.89,2.06-.17.5,1.2-.02,1.66.41,3.25,1.12,4.74l-2.14.14c-.79.05-1.81-.02-2.03-.93l1-.03Z"/>
      <path class="cls-114" d="M38.81,32.52l.35-1.32c.25-.88.59-.88,1-.03,2.06.16,1.28,5.42-.82,5.03-.51-.02-.98-.45-1.03-.96-.1-.93.07-1.89.51-2.71Z"/>
      <path class="cls-123" d="M39.33,36.2c.39-1.66.88-3.32.82-5.03-2.66-.1-2.68-.77-.07-2,1.21.74,2.62,1.04,4.04,1.03l1.03.79.14,2.26c-3.37-2.59-2.75,3.63-2.12,5.88-.01.28-.03.58-.08.87-1.04.62-2.28.82-3.42.35,0-.36-.35-.86-.5-1.2-.28-.6-.61-1.19-.67-1.86.19-.37.74-.67.84-1.09Z"/>
      <path class="cls-93" d="M45.15,30.99l1-.03c-.08,2.07,2.03,4.12.21,6-.03-.83-.63-1.36-1.07-1.96l-.96.13c.34,1.83-.05,3.17-1.17,4.02-1.55-.99-.7-3.35-.95-5.5-.15-1.25,1.74-1.8,2.94-2.65Z"/>
      <path class="cls-139" d="M47.15,30.92l2-.07c.38.28.73.6,1.03.96l-1.96,1.07c-.58-.51-.93-1.21-1.07-1.96Z"/>
      <path class="cls-66" d="M45.29,34.99l.1,3c-.73.43-1.32,1.17-2.23,1.15l.29-5.84c.04-.74,1.61-.21,1.8.16.18.34-.27,1.11.04,1.54Z"/>
      <path class="cls-59" d="M36.12,30.31l2-.07,1.96-1.07.07,2-1,.03c-1.69.06-4.15,1.08-5.03-.82l2-.07Z"/>
    </g>
  </g>
</svg>