<?xml version="1.0" encoding="UTF-8"?>
<svg id="Enemy" xmlns="http://www.w3.org/2000/svg" viewBox="0 0 144.85 86.13">
  <defs>
    <style>
      .cls-1 {
        fill: #feaf97;
      }

      .cls-2 {
        fill: #525252;
      }

      .cls-3 {
        fill: #181818;
      }

      .cls-4 {
        fill: #331611;
      }

      .cls-5 {
        fill: #fec5a3;
      }

      .cls-6 {
        fill: #111;
      }

      .cls-7 {
        fill: #585858;
      }

      .cls-8 {
        fill: #896157;
      }

      .cls-9 {
        fill: #5a5a5a;
      }

      .cls-10 {
        fill: #2e2e2d;
      }

      .cls-11 {
        fill: #44250d;
      }

      .cls-12 {
        fill: #6e423a;
      }

      .cls-13 {
        fill: #f7ad92;
      }

      .cls-14 {
        fill: #434343;
      }

      .cls-15 {
        fill: #f4a18a;
      }

      .cls-16 {
        fill: #b57461;
      }

      .cls-17 {
        fill: #29201a;
      }

      .cls-18 {
        fill: #633724;
      }

      .cls-19 {
        fill: #d68f83;
      }

      .cls-20 {
        fill: #955c51;
      }

      .cls-21 {
        fill: #2c2c2c;
      }

      .cls-22 {
        fill: #141414;
      }

      .cls-23 {
        fill: #a46f5f;
      }

      .cls-24 {
        fill: #242322;
      }

      .cls-25 {
        fill: #2a2a2a;
      }

      .cls-26 {
        fill: #341d0a;
      }

      .cls-27 {
        fill: #efaf9b;
      }

      .cls-28 {
        fill: #855f58;
      }

      .cls-29 {
        fill: #cb8c7f;
      }

      .cls-30 {
        fill: #ca826e;
      }

      .cls-31 {
        fill: #794940;
      }

      .cls-32 {
        fill: #251f1e;
      }

      .cls-33 {
        fill: #bf7158;
      }

      .cls-34 {
        fill: #3e3e3e;
      }

      .cls-35 {
        fill: #5e3d34;
      }

      .cls-36 {
        fill: #505050;
      }

      .cls-37 {
        fill: #dd9483;
      }

      .cls-38 {
        fill: #272727;
      }

      .cls-39 {
        fill: #966251;
      }

      .cls-40 {
        fill: #79402b;
      }

      .cls-41 {
        fill: #494949;
      }

      .cls-42 {
        fill: #2c1007;
      }

      .cls-43 {
        fill: #c78677;
      }

      .cls-44 {
        fill: #4d4d4d;
      }

      .cls-45 {
        fill: #7d4032;
      }

      .cls-46 {
        fill: #bc7360;
      }

      .cls-47 {
        fill: #2d2d2d;
      }

      .cls-48 {
        fill: #a35b4d;
      }

      .cls-49 {
        fill: #5e5e5e;
      }

      .cls-50 {
        fill: #1e1e1e;
      }

      .cls-51 {
        fill: #131313;
      }

      .cls-52 {
        fill: #fecfb0;
      }

      .cls-53 {
        fill: #3c3c3c;
      }

      .cls-54 {
        fill: #906055;
      }

      .cls-55 {
        fill: #fec2b3;
      }

      .cls-56 {
        fill: #f9cdb7;
      }

      .cls-57 {
        fill: #e48f79;
      }

      .cls-58 {
        fill: #050403;
      }

      .cls-59 {
        fill: #7b5344;
      }

      .cls-60 {
        fill: #0c0807;
      }

      .cls-61 {
        fill: #fab599;
      }

      .cls-62 {
        fill: #32312f;
      }

      .cls-63 {
        fill: #252426;
      }

      .cls-64 {
        fill: #303030;
      }

      .cls-65 {
        fill: #9c6352;
      }

      .cls-66 {
        fill: #975d4e;
      }

      .cls-67 {
        fill: #414145;
      }

      .cls-68 {
        fill: #310b02;
      }

      .cls-69 {
        fill: #df9a83;
      }

      .cls-70 {
        fill: #6f4738;
      }

      .cls-71 {
        fill: #edaa9d;
      }

      .cls-72 {
        fill: #6a6a6a;
      }

      .cls-73 {
        fill: #5e3920;
      }

      .cls-74 {
        fill: #bc7a64;
      }

      .cls-75 {
        fill: #171717;
      }

      .cls-76 {
        fill: #dd947f;
      }

      .cls-77 {
        fill: #404040;
      }

      .cls-78 {
        fill: #cf8672;
      }

      .cls-79 {
        fill: #df9282;
      }

      .cls-80 {
        fill: #f4b79e;
      }

      .cls-81 {
        fill: #f6a891;
      }

      .cls-82 {
        fill: #e8a18d;
      }

      .cls-83 {
        fill: #1f1f1f;
      }

      .cls-84 {
        fill: #363636;
      }

      .cls-85 {
        fill: #a25d4e;
      }

      .cls-86 {
        fill: #fecfb9;
      }

      .cls-87 {
        fill: #30231a;
      }

      .cls-88 {
        fill: #7b4f2e;
      }

      .cls-89 {
        fill: #edad9d;
      }

      .cls-90 {
        fill: #f5a990;
      }

      .cls-91 {
        fill: #9d7162;
      }

      .cls-92 {
        fill: #454545;
      }

      .cls-93 {
        fill: #362018;
      }

      .cls-94 {
        fill: #a66e63;
      }

      .cls-95 {
        fill: #9d6e64;
      }

      .cls-96 {
        fill: #373737;
      }

      .cls-97 {
        fill: #743f31;
      }

      .cls-98 {
        fill: #202020;
      }

      .cls-99 {
        fill: #686868;
      }

      .cls-100 {
        fill: #bc7969;
      }

      .cls-101 {
        fill: #eeab99;
      }

      .cls-102 {
        fill: #0c0c05;
      }

      .cls-103 {
        fill: #826156;
      }

      .cls-104 {
        fill: #555;
      }

      .cls-105 {
        fill: #d38976;
      }

      .cls-106 {
        fill: #88503d;
      }

      .cls-107 {
        fill: #f3aea0;
      }

      .cls-108 {
        fill: #3e1105;
      }

      .cls-109 {
        fill: #8f5747;
      }

      .cls-110 {
        fill: #af6b59;
      }

      .cls-111 {
        fill: #46312b;
      }

      .cls-112 {
        fill: #d69d8f;
      }

      .cls-113 {
        fill: #2b2b2b;
      }

      .cls-114 {
        fill: #230b01;
      }

      .cls-115 {
        fill: #573313;
      }

      .cls-116 {
        fill: #7d4737;
      }

      .cls-117 {
        fill: #ce8776;
      }

      .cls-118 {
        fill: #b17461;
      }

      .cls-119 {
        fill: #664238;
      }

      .cls-120 {
        fill: #333;
      }

      .cls-121 {
        fill: #b77566;
      }

      .cls-122 {
        fill: #624034;
      }

      .cls-123 {
        fill: #cf8470;
      }

      .cls-124 {
        fill: #f6a394;
      }

      .cls-125 {
        fill: #c07f6d;
      }

      .cls-126 {
        fill: #a45f4a;
      }

      .cls-127 {
        fill: #a56e66;
      }

      .cls-128 {
        fill: #412722;
      }

      .cls-129 {
        fill: #94675d;
      }

      .cls-130 {
        fill: #1a1914;
      }

      .cls-131 {
        fill: #1b1b1b;
      }

      .cls-132 {
        fill: #76593d;
      }

      .cls-133 {
        fill: #a87063;
      }

      .cls-134 {
        fill: #ea9b84;
      }

      .cls-135 {
        fill: #232323;
      }

      .cls-136 {
        fill: #fcc0ac;
      }

      .cls-137 {
        fill: #f0a792;
      }

      .cls-138 {
        fill: #212122;
      }

      .cls-139 {
        fill: #343435;
      }

      .cls-140 {
        fill: #484848;
      }

      .cls-141 {
        fill: #2d2b27;
      }

      .cls-142 {
        fill: #464646;
      }

      .cls-143 {
        fill: #9f6153;
      }

      .cls-144 {
        fill: #83635c;
      }

      .cls-145 {
        fill: #bc7763;
      }

      .cls-146 {
        fill: #323033;
      }

      .cls-147 {
        fill: #da8c79;
      }

      .cls-148 {
        fill: #353535;
      }

      .cls-149 {
        fill: #9c675c;
      }

      .cls-150 {
        fill: #d59777;
      }

      .cls-151 {
        fill: #935a4b;
      }

      .cls-152 {
        fill: #8e6c61;
      }

      .cls-153 {
        fill: #393939;
      }

      .cls-154 {
        fill: #6b473d;
      }

      .cls-155 {
        fill: #b17164;
      }

      .cls-156 {
        fill: #1e0603;
      }

      .cls-157 {
        fill: #956259;
      }

      .cls-158 {
        fill: #352e24;
      }

      .cls-159 {
        fill: #292929;
      }

      .cls-160 {
        fill: #5b422d;
      }

      .cls-161 {
        fill: #282727;
      }

      .cls-162 {
        fill: #4b4b4b;
      }

      .cls-163 {
        fill: #f8b09b;
      }

      .cls-164 {
        fill: #151515;
      }

      .cls-165 {
        fill: #3f231f;
      }

      .cls-166 {
        fill: #ab7a6a;
      }

      .cls-167 {
        fill: #323235;
      }

      .cls-168 {
        fill: #a9786a;
      }

      .cls-169 {
        fill: #bb8578;
      }

      .cls-170 {
        fill: #070707;
      }

      .cls-171 {
        fill: #0d0c0d;
      }

      .cls-172 {
        fill: #ae7365;
      }

      .cls-173 {
        fill: #f49f89;
      }

      .cls-174 {
        fill: #dca895;
      }

      .cls-175 {
        fill: #412005;
      }

      .cls-176 {
        fill: #381d0a;
      }

      .cls-177 {
        fill: #85574c;
      }

      .cls-178 {
        fill: #e5ab96;
      }

      .cls-179 {
        fill: #b37867;
      }

      .cls-180 {
        fill: #290c06;
      }

      .cls-181 {
        fill: #252724;
      }

      .cls-182 {
        fill: #391306;
      }

      .cls-183 {
        fill: #323232;
      }

      .cls-184 {
        fill: #414141;
      }

      .cls-185 {
        fill: #d0a693;
      }

      .cls-186 {
        fill: #91655d;
      }

      .cls-187 {
        fill: #efa897;
      }

      .cls-188 {
        fill: #d99481;
      }

      .cls-189 {
        fill: #58382f;
      }

      .cls-190 {
        fill: #834936;
      }
    </style>
  </defs>
  <g id="BruteBreaker">
    <path class="cls-60" d="M12.37,31.01c.16-4.77,5.59-5.16,3.97-.07,1.55-1,1.51.34,1.3,1.96,3.16.85,2.84,4.52.19,5.98.59.91-.1,2.27-2.07,4.09l.03,1-2.13-1.92c-.16-3.08-.51-6.81-2.21-9.96.23-.29.5-1.01.92-1.08Z"/>
    <g>
      <path class="cls-6" d="M1.9,17.35c1.83-4.24,5.03-7.95,9.7-7.43.37-.36.7-.31,1.01.14,1.76.8,1.18,2.89-.97,2.19-.33,2.5-2.84-.58-.86.56,1.49.85,1.67,1.07-.02,1.68-.56,1.25-1.15,2.47-1.76,3.65.89.26.82.55-.11.87-.13,2.02.02,4.09.45,6.19-.82.52-.86,1.21-.13,2.08.79-1.22,1.35-.68,1.01.79,2.78-.39,3.71.35,2.15,2.95,1.25,1.31.74,1.91-.92,1.08l-2.3-1.24c-6.79-.04-9.73-5.36-9.06-11.76.15-1.39.24-2.15,1.8-1.74Z"/>
      <path class="cls-32" d="M8.89,19c1.37-.39,2.8-.37,4.27.07.71-.52,1.64-.2,2.8.94.47-.8.83-.76,1.08.14.87.23.83.51-.04.86.39,1.73.14,3.65-.77,5.75,2.24-.48,2.49,5.41.11,4.19l-.56-3.06c-.74,1.65-1.72,2.84-3.41,3.12-.88-.86-1.55-1.88-2.15-2.95.37-1.56.04-1.82-1.01-.79-3.13,2.32-1.58-11.83-3.22-7.47.39-1.03,2.01-.8,2.9-.8Z"/>
      <path class="cls-32" d="M11.64,12.25c3.48-2.67,3.07,3.81-.08,4.8,1.76,2.12-1.22,3.56-2.56,1.08-.74-.57-1.16-1.54-.97-2.3.29-1.2,1.38-1.27,2.75-2.17-.92-.96-2.31.18-3.17-1.04,1.66-1.01,2.89-.25,4.03-.37Z"/>
      <path class="cls-141" d="M11.56,17.05c.86.35,1.61,1.04,1.6,2.02-.57.71-1.33,2.15-2.49,1.8-.78-.24-1.17-1.43-1.78-1.86.07-.28.11-.57.11-.87.85-.08,2.71.24,2.56-1.08Z"/>
      <path class="cls-146" d="M10.22,28.06c-.17-.29-.73-.63-1.01-.79-.44-1.82.43-2.63,1.69-.87,1.82,1.09,1.13,2.15-.69,1.66Z"/>
      <path class="cls-156" d="M16.23,26.76c.4-6.67,3.76-.99,2.33,3.19.39,1.12-.74,2.06-.92,2.95-.49-.61-1.17-1.23-1.3-1.96,1.2-.1,1.02-1.58.96-2.51-.04-.67-.38-1.33-1.07-1.68Z"/>
      <path class="cls-62" d="M17,21c.39.3.76.63,1.11.98,2.5.99,2.93,2.52,1.3,4.58,2.74.23,2.57,1.3,0,2.22l-.85,1.17-.56-5.13c-1.13.43-1.33,1.29-1.77,1.93-2.03.58-4-.31-5.18-2.5,2.14-.76,2.37,1.07,4.1,2.01.53-2.39.6-4.03,1.84-5.26Z"/>
      <g>
        <path class="cls-131" d="M141.73,69.55c-2.03-.76-1-2.64.98-2.09-.81-1.21-1.7-2.31-2.67-3.32l1.61-1.74c.82-1.69,1.54-1.32,2.09.42,1.32,2.23,1.22,5.08.89,7.74-.2,1.56-1.93,3.02-2.74,4.23-2.66-.14-2.72-1.88-.17-5.24Z"/>
        <path class="cls-113" d="M129.1,78.85c-.83-.28-.75-.59.13-.93,0-3,1.91-3.7,5.74-2.09,1.08.49.44,1.18-1.93,2.07,1.93-.24,1.95.54.03,1.15.02.61.1,1.27.02,1.88-.1.84-1.36.97-1.69,1.53-.89,1.33-2.32,2.43-3.18.6-1.32.34-1.69.29-1.03-.96-.88-.25-.88-.59-.03-1,.03-.91.68-1.66,1.95-2.26Z"/>
        <path class="cls-153" d="M134.67,74.29c.61-2.11,2.66-3.45,6.17-4.01-.33-1-.03-1.24.89-.73-.31,1.74-.12,3.51.17,5.24-.28,0-.58.11-.86.08-1.64.93-4.6,1.99-6.07.97-1.94.17-2.05-.61-.3-1.54Z"/>
        <path class="cls-6" d="M134.97,75.83c1.88-.69,3.99-1.16,6.07-.97-.23.81-1.15,1.65-2.03,1.83-1.69,1.06-4.25,2.18-5.96,1.21l1.93-2.07Z"/>
        <path class="cls-153" d="M139,76.69c-1.2,2.02-3.74,2.3-5.93,2.36l-.03-1.15,5.96-1.21Z"/>
        <path class="cls-153" d="M130.66,66.85c.77-.76,3.04.13,3.89-.88s1.1-2.43,1.41-3.66c.28-.51.53-.66.69-.02.79,0,1.04.83.74,2.52,1.83.23,1.97,2.06,1.76,3.6,1.88-.43,2.04.31.35,1.36-1.73,3.43-6.27,2.85-8.83.39-.96,2.17-2.24,2.11-3.85-.17-1.52,2.02-3.39.16-2.13-1.82.08-1,1.17-1.23,3.27-.68l2.69-.65Z"/>
        <path class="cls-51" d="M143.75,62.82c-.71-.1-1.41-.23-2.09-.42-1.91.76-2.91.65-3.3-1.66.77-1.3,2.2-2.26,3.59-1.98,2.23.44,1.15,2.97,1.8,4.07Z"/>
        <path class="cls-64" d="M136.65,62.3c.09-1.02,1.2-1.04,1.71-1.57,2.83,1.17,2.2,4.36-.97,4.09-.43-.86-.83-1.46-.74-2.52Z"/>
        <path class="cls-102" d="M62.28,62.38c2.25-1.23,3.1-.03,1.25,1.93.88,1.06.36,1.42-.96,1.06l-1,.03c-.54-.52-1.23-.95-1.99-1.08.49-1.15,1.69-1.44,2.7-1.95Z"/>
        <path class="cls-77" d="M112.93,71.07c-.09-2,.79-2.23,2.06-.71.13-2.03.99-2.04,1.68-.11,2.2,2.47,3.24,4.93,3.14,7.36,2.5,1.18,2.57,2.15.2,2.91-.17.45-.42.41-.73-.04-2.84-2.27-5.34-5.02-7.39-8.15-1.16-1.37-.64-2,1.04-1.27Z"/>
        <path class="cls-159" d="M120.01,80.52c.78-1.3,4.17-.78,5.05.61,1.06-.9,1.76-.9,2.09-.03l.03,1c-.54.98-1.52,1.72-2.95,2.21.73.76.42,1.01-.92.75-1.74-1.29-2.86-2.88-4.03-4.58l.73.04Z"/>
        <path class="cls-131" d="M124.24,84.32c1.32-1.08,2.65-1.49,3.98-1.25.95-.49,2.17-.36,3.18-.6-.45.76-.5,1.8-1.09,2.51-2.94,1.21-4.7,1.79-7,.09-.14-.55.49-.73.92-.75Z"/>
        <path class="cls-3" d="M106.77,66.12c1.13-1.2,4.26-.06,3.12,1.86,1.75.24,3.56,1.11,3.04,3.09-.29.34-.46,1.13-1.04,1.27-.3.07-.64.12-.95.16-1.28-1.96-3.48-3.21-4.24-5.52-.86-.26-.81-.54.07-.86Z"/>
        <path class="cls-36" d="M137.39,64.82c.34-1.36,1.27-2.6.97-4.09l2.34.14c.46.03.78.86.96,1.52.43,1.67.91,3.34,1.06,5.06l-3.56.97c-.61-.29-1.2-.66-1.58-.99-.83-.69.11-2.02-.18-2.62Z"/>
        <path class="cls-72" d="M139.16,68.42c-.06-.87.57-1.42,1.32-2.28,1.12-1.27,1.22.64,2.23,1.31l-.98,2.09c-.34.17-.7.39-.89.73-.97,1.03-1.39,1-1.33-.49l-.35-1.36Z"/>
        <path class="cls-162" d="M125.64,74.36c.78-1.04.93-1.82.45-2.34-1.38-1.17-1.09-2.01.73-2.01,1.13-1.51,2.76.3,3.85.17,1.24.77-.12,1.34-.05,1.29,2.44-1.41,4.89-.14,4.04,2.82l.3,1.54-5.74,2.09c-1.71.14-2.76-.37-3.15-1.52-2.86.5-3.12-.88-.44-2.04Z"/>
        <path class="cls-49" d="M119.81,77.62c.2-.9.56-.93,1.07-.13,1.62-.56,3.36-.93,5.2-1.09.75-.09,1.64-.09,2.82.06.51.06.47.62.33,1.47-.08.29-.01.64-.13.93l-4.05,2.28c-1.71.24-3.47.14-5.05-.61-.42-.88.14-2.06-.2-2.91Z"/>
        <path class="cls-183" d="M129.1,78.85c-.38.95-.99,1.84-1.95,2.26l-2.09.03c.8-1.46,2.5-1.95,4.05-2.28Z"/>
        <path class="cls-183" d="M127.19,82.1c.42.24.75.59,1.03.96-1.25.66-2.54,1.18-3.98,1.25.64-1.12,1.75-1.8,2.95-2.21Z"/>
        <path class="cls-104" d="M130.68,70.18c2.96-.34,6.02.72,8.83-.39l1.33.49c-1.24,2.3-3.86,3.08-6.17,4.01l-.95.49c-.53.27-1.79.68-1.59-.27.14-.69,1.38-1.69.54-2.48-.75-.7-1.69.42-2.35.52-.38.06-1.43.24-.9-.83.26-.53.75-1.16,1.27-1.53Z"/>
        <path class="cls-83" d="M120.42,60.33l1.02-.04c-.11,4.54,4.95,7.4,9.22,6.56-1.61,1.6-3.74,1.4-5.96,1.33-2.19,1.35-6.9-5.44-5.24-6.82-.44-.84-.07-1.15.96-1.03Z"/>
        <path class="cls-153" d="M118.47,60.35c.93-1.03,1.35-.37.99,1.01,1.13,2.68,3.29,4.71,5.24,6.82.64.69,1.23,1.44,2.13,1.82-.12.71-.21,1.48-.73,2.01.2,1.82-1.33,1.47-2.26.08-2.32-.95-3.73-2.08-4.25-3.38l1.01-1.21c-1.83-.94-2.92-2.17-3.27-3.7-.31.84-.59.79-.83-.11-.85-1.05.69-3.2,1.98-3.35Z"/>
        <path class="cls-22" d="M83.53,57.77c1.74-.91,3.4-1.31,4.99-1.19.17-.88.44-.82.79.06,1.89.32,3.54-.37,4.78-1.83,1.72-4.46,5.01,1.09,2.17,2.33-1.33.63-2.53,1.56-3.91,2.08-1.56.59-3.28,1.05-4.95,1.23-.23,1.61-3.21,1.71-4.13.44-1.31.14-1.87,1.07-2.88,1.64.09,1.4-1.85,1.53-3.15,1.4-.27.33-1.12.67-1.51.89-.54.3-1.55-.02-2.19.13l-2.03-.93c-.1-.48-.13-.9.06-1.07,2.28-2.09,8.7-5.86,11.95-5.19Z"/>
        <path class="cls-171" d="M63.53,64.32c.23-3.12,6.22-1.73,7.99-.28.79-.03,1.8.02,2.03.93-.64.16-1.35-.05-2,.07l-6.96,1.24c-.64.1-1.38-.92-2.03-.9.07-.44.46-1.05.96-1.06Z"/>
        <path class="cls-138" d="M71.56,65.04c-1.5,2.05-4.63.87-6.96,1.24,1.53-2.1,4.66-.82,6.96-1.24Z"/>
        <path class="cls-10" d="M63.04,57.22c2.63-.75,4.44-5.85,1.97-7.97.12-1.23-.65-2.51-.2-3.78,2.74-.91,4.12-1.49,5.83-3.62.92-2.31,7.58-2.92,8.11-.12,1.77,1.26,1.21,2.54-.92,2.12.55,1.18.88,2.64-.67,2.94l-1.18.4c4.47,5.29,1.83,6.42-3.76,6.09.28,3.74-1.56,5.65-4.07,7.88-.52,1.84-2.48,2.24-5.88,1.22.44-1.59-.23-3.73.76-5.16Z"/>
        <path class="cls-130" d="M64.61,41.17c-2,.2-2.11-1.46-.16-1.97-2.3-.09-2.42-2.62.1-2.99,2.54-1.75,3.57-1.14,3.15,1.95,1.41-1.32,1.94-.79.91.89,2.23-.78,2.87-.39,2.11,1.92-1.82,4.29-3.38,5.41-4.68,3.34-.6-.98-1.08-2.04-1.43-3.14Z"/>
        <path class="cls-167" d="M63.04,57.22c1.68-2.41,1.7-5.08,1.97-7.97,1.06-.12,3.27-.57,4.23.95l-5.05,8.97c-.86-.47-.83-1.36-1.14-1.94Z"/>
        <path class="cls-181" d="M66.04,44.31c4.64-.66-.03-1.11,4.68-3.34.86.31.82.61-.08.88-.92,1.89-.74,3.88-1.5,6.35-1.59-1.74-2.53-3.14-4.33-2.73.2-.56.68-1.08,1.23-1.15Z"/>
        <path class="cls-138" d="M68.16,61.16c2.36-.47,3.67-1.9,3.92-4.29,2.33-3.6,6.17-6.9,8.91-3.09,2.99-1.39,5.7-3.21,8.12-5.45,4.78.09,1.8,7.63-1.69,6.12.86,2.08-1.98,3.26-3.9,3.32-2.93,3.71-8.07,3.88-12,6.26l-7.99.28-1.25-1.93c.98-.5,1.17-1.56,2.04-2.98.78,2.84,2.97,1.27,3.85,1.76Z"/>
        <path class="cls-38" d="M98.45,59.16l1.72-.1c2.52.39,6.48,3.03,5.34,5.82,1.19-.13,1.93.12,1.26,1.23l-.07.86c-4.14-1.05-7.71-3.43-8.25-7.82Z"/>
        <path class="cls-162" d="M116.48,63.7c.26.09.56.04.83.11.66,1.46,1.75,2.69,3.27,3.7.45,2.14,2.39,2.67,3.25,4.59,1.74.29,2.7,1.19.99,2.22-1.26,2.59-2.57,1.73-3.22-.83l-1.72-.02c-1.59.2-2.84-1.85-3.21-3.22-.54.1-1.17-.09-1.68.11-1.71.19-3.21-1.18-2.35-2.86-1.99-2.93.99-5.24,3.84-3.8Z"/>
        <path class="cls-92" d="M112.64,67.51c1,.76,1.94,1.64,2.35,2.86-.65.25-1.43.42-2.06.71-1.49-.59-2.3-1.79-3.04-3.09.54-1.88,1.61-2.06,2.75-.48Z"/>
        <path class="cls-92" d="M116.67,70.25c2.1-.38,2.41,1.76,3.21,3.22,2.78-.29,4.26,3.13,1,4.02l-1.07.13c-3.36-8.27-5.51-2.3-3.14-7.36Z"/>
        <path class="cls-25" d="M110.23,61.49c-.38-.7-.76-1.58-.37-2.15,1.52-2.26,1.23-5.73.25-8.65-.65-1.28-.36-2.32,1.1-2.05,2.55-1.92,5.68,5.84,6.23,8.63.06.32-.43.75-1.09,1.21,1.1,1.19,1.15,2.93.13,5.23-1.2,1.41-3.21,1.91-3.84,3.8-.88.34-1.81.5-2.75.48-.58-1.01-2.39-1.15-3.12-1.86l-1.26-1.23.63-2.33c1.68.63,3.04.27,4.09-1.07Z"/>
        <path class="cls-50" d="M132.86,20.86l1.02.06.4,8.04c-.3.02-.64-.13-.94-.09-1.36.48-1.73-.51-1.1-2.96-2.57.43-2.41-6.83.63-5.04Z"/>
        <path class="cls-104" d="M119.88,73.47c-.8-.99,1.48-3.16,2.1-2.47,1.13,1.27,1.23,3.73,2.85,3.32.17-.91.44-.87.82.03-.56.75.27,1.36.44,2.04.35,1.43-1.66,1.86-2.92,2.56-.9.51-1.94-.29-2.29-1.47.03-1.46-.32-2.78-1-4.02Z"/>
        <path class="cls-153" d="M126.1,72.02l.94.71c.32.25.89.74.65.9-.79.53-1.62.66-2.04.73-.27.03-.56-.1-.82-.03l-.99-2.22,2.26-.08Z"/>
        <path class="cls-22" d="M107.94,40.7c-1.06-1.5-.59-2.09,1.01-1.08,1.72-1.9,3.62,1.14,3.73,2.91-.74,3.28,1.61,5.39,3.05,8.3l4.69,9.5c-.3.36-.63.71-.96,1.03-.18-.42-.78-.62-.99-1.01-1.03,1.06-1.73.44-2.11-1.88-.9-3.77-1.42-8.08-5.14-9.84-1.07.07-1.17-.92-.31-2.98-2.32.4-4.66-3.14-2.96-4.96Z"/>
        <path class="cls-164" d="M116.35,58.47c.94.33,1.65,1.01,2.11,1.88-.09,1.43-1.12,2.34-1.98,3.35-.45-.15-1.03.09-2.02-.58,1.35-1.24,2.31-2.89,1.89-4.65Z"/>
        <path class="cls-153" d="M117.31,63.81c1.45.39,2.95,2.13,3.27,3.7-.96-.17-2.02-.45-3.34-1.11-.76-.38-.04-1.54.07-2.59Z"/>
        <path class="cls-135" d="M130.65,6.94c-1.69-1.28-1.18-3.35-.48-5.1-.32-1.56.92-1.55,2.26-1,.14-.88.41-.87.81-.03-.25,1.61.26,3.39.31,5.02-.76,1.37-.7,3.65.16,4.97.01.32.12.67.07.98-.32,2.01-.73,4-.94,6.03.07,2.92-3.18,2.87-3.87.08-3.96.69-2.84-3.48-.48-5.66.1-2.56.82-4.33,2.16-5.29Z"/>
        <path class="cls-21" d="M128.96,26.1c-.46-1.45-.43-3.2.09-5.23-1.45.89-1.85.34-.87-.99-1.86-.99-1.38-1.95.78-1.98l3.87-.08c-.1,1.01.07,2.04.03,3.05-1.17,1.08-1.56,3.7-.63,5.04,1.7,3.34-1.44,2.98-3.82,1.92-1.93-.78-1.59-1.67.55-1.71Z"/>
        <path class="cls-51" d="M133.55,5.84l.16,4.97c-1.27,1.3-1.76-5.81-.16-4.97Z"/>
        <path class="cls-96" d="M78.12,47.62l-.28-3.77c.36-.68.67-1.39.92-2.12-.36-1.83.35-2.19,1.59-.76,1.13-.07,1.62.3,1.22,1.45,1.08,1.08,1.8,2.53,2.15,4.37l2.14-.72c1.39-1.79,2.83-2.34,4.33-1.64,3.84,2.16,4.39,9.23-.06,11.98-.26.11-.55.13-.81.23l-.79-.06c-2.72,1.51-3.53-.05-1.09-2.13,1.81-1.13,3.53-2.77,3.16-5.14-3.04,3.75-6.13,5.9-9.59,4.47-3.56-.11-4.42-3.81-2.88-6.16Z"/>
        <path class="cls-113" d="M87.43,54.45c.02.84.46,1.58,1.09,2.13-.8,1.92-3.35,2.17-4.99,1.19,1-1.27,2.54-2.47,3.9-3.32Z"/>
        <path class="cls-38" d="M76.69,34.87c3.48-.37,7.13-1.2,10.93-2.51l.98,1.31c0,.47.35.86.47,1.29.04,1.22-.2,2.32-.73,3.29l-1.4,1.55c-.88-1.26-1.63-1.56-2.25-.93-.48,2.26-2.29,3.47-4.35,2.09-.49.24-1.02.73-1.59.76-2.72.16-5.46.9-8.11.12.12-.25,0-.61.08-.88-.62-.72-1.43-1.25-2.11-1.92-.14-2.03,6.16-6.69,8.08-4.18Z"/>
        <path class="cls-161" d="M77.16,46.79c.89-.39,1.21-.11.95.83.17,2.42,2.28,3.91,2.88,6.16-3.23-1.34-5.97,1.61-7.53,4.73-.76,2.32,1.4,1.74-.32,2.78-3.07,1.85-3.59.64-4.98-.13-2.31-4.14,4.17-2.23,1.16-9.4,2.95-.85,5.22-.38,8.22-.35-2.35-2.93-3.86-4.86-2.88-7.86,1.59,1.22,1.31,2.71,2.49,3.24Z"/>
        <path class="cls-41" d="M77.83,43.85c.59.59,1.57,1.27,1.77,2.43.1.57-.9,1.09-1.49,1.34-.37-.2-.58-.66-.95-.83-.33-1.05-.32-2.28.67-2.94Z"/>
        <path class="cls-139" d="M69.48,34.09c.97.67,1.97-.18,1.36-1.4-1.46-1.66-.9-3.97.29-5.61.63-1.82,1.97-3.49,4.02-4.99.04-.8.38-.78.99-.1,1.15-1.97,2.59-1.84,2.58.5,1.31,1.12,1.16,3.14-.43,6.06-.97,1.79-1.23,3.56-.76,5.3,1.55,1.1.99,1.67-.84,1.03l-8.08,4.18-.91-.89c-2.22-1.93-1.18-5.09,1.78-4.07Z"/>
        <path class="cls-63" d="M64.47,32.33c-2.79-.76-2.07-2.93.71-2.94-1.11-2.67,2.96-5.05,4.93-3.15,1.17-1.58,1.81-1.03,1.02.84,1.61,1.32,1.15,4.02-.29,5.61.79,1.21.08,1.73-1.36,1.4-1.2,1.01-1.45,2.6-1.78,4.07-.89-.87-1.96-1.55-3.15-1.95-1.35,1.47-2,.9-1.2-.95.88-.92,1-1.49,1.12-2.94Z"/>
        <path class="cls-162" d="M99.01,49.32c3.16-1.35.05-2.55,3.87-4.27-.51-3.15.94-3.54,2.94-1.11,2.99-.81,4.27,2.24,3.11,4.78,1.63-.55,1.5.51,1.19,1.97,1.65,3.66.77,8.09-.7,10.87-2.88,3.25-9.89-4.04-9.16-7.84-1.51-.4-3.26-3.63-1.24-4.39Z"/>
        <path class="cls-148" d="M99.01,49.32c.06.72-.21,1.44-.44,2.2,1.48.23,3.06.13,3.5,1,.54,1.07.04,2.53-.37,3.9,3.67,1.98,6.71,5.48,7.71,5.14.02-.86.31-.85.82-.07l.55,3.75c-2.33-.32-3.85-1.32-5.27-.35-1.84-1.8-4.93-2.99-5.34-5.82-.28-1.9-.58-3.45-2.83-4.41.82-.85,1.38-1.25,1.32-1.73-.05-.44-.35-.88-.83-1.32-.89-.82-.8-1.58-.17-2.23.25-.26,1.02.09,1.35-.06Z"/>
        <path class="cls-131" d="M77.53,33.84c.03-2.51,2.36-3.6,3.85-1.19.76-2.05,2.5-3.38,4.15-1.17-.56-2.61,8.43-4.71,9.71-3.97,1.72,1,3.86,5.21.21,4.39-.4,1.55-1.48,1.85-3.26.9l-2.34.38-1.26.49c-2.5-.4-5.05.52-6.59,2.44-2.54-2.62-2.86,1.98-5.31-1.25l.84-1.03Z"/>
        <path class="cls-75" d="M89.07,34.97c.33,1.22.61,2.51,1.57,3.39,1.23.18,1.53,2.66.1,3l.42,1.99-.95.22c-3.03.92-4.77-3.86-1.87-5.31-.11-1.07-.54-2.03-1.76-2.31,1.13-.67,1.78-1.62,2.49-.99Z"/>
        <path class="cls-113" d="M102.7,37.7c.31-.87.65-.88,1.01-.03,1.55,1.35,3.58,4.3,2.1,6.28-1.12,0-1.98.68-2.94,1.11-.05-1.45-.34-2.92-1.25-4.08,1.05-.72,1.19-2.07,1.08-3.28Z"/>
        <g>
          <path class="cls-113" d="M90.12,56.41c3.75-2.96,4.1-7.31,1.04-13.07-.94-.16-1.29-1.4-.42-1.99,1.48-1.54.25-6.31-.1-3-1.56,1.12-2.84-2.34-1.57-3.39-2.08-.17-2.23-.6-.47-1.29-.66-1.79.03-2.03,1.26-.49,2.63-1.53,6.35,0,4.71,3.03-.08,1.42,1.29,2.37,4.1,2.86,1.37-2.12,3.93-.51,2.96,1.9,1.94-.52,3.45,3.22,1.25,4.08.25,2.61-.79,6.77-3.87,4.27-1.35,1.29-1.43,1.78,1.39,3.5.93,3.12.85,5.2-.23,6.24-.25,1.94-1.06,1.96-1.72.1-.11-.9-1.59-1.52-2.18-2.02-.27-.97.31-2.17-.56-2.95-1.8,2.48-4.4,4.14-6.4,2.45-.18-.89.12-.93.81-.23Z"/>
          <g>
            <path class="cls-131" d="M90.18,44.44c-.87-.18-.83-.47.02-.87.07-.91.39-.97.95-.22,3.22.98,2.86,9.88,2.43,10.69-.56,1.05-2.02,1.76-3.47,2.38-.58-1.76,2.43-2.86,2.71-4.23-.24-2.8-1.81-5.47-2.65-7.75Z"/>
            <path class="cls-38" d="M95.45,31.91c2.31-.41,3.35,1.28,3.11,5.09.9.08.91.37.1.85-1.44.9-4.97.8-4.1-1.63-1.09-1.64-2.61-3.05-4.71-3.03,1-2.14,3.61-1.58,5.6-1.28Z"/>
            <path class="cls-92" d="M98.67,37.85l-.1-.85c-.12-.89.17-.89.8-.12-.08-3.19,4.62-2.14,3.34.82.79,1.1,1.15,4.7-1.08,3.28-.92-.57-1.89-1.6-2.96-1.9-1.72-.39-1.74-.8,0-1.23Z"/>
            <path class="cls-113" d="M94.57,36.22c.85,1.28,2.87.98,4.1,1.63v1.23c-1.48-.42-3.85,1.01-5.03-.45-.33-1.32-.07-2.59.93-2.41Z"/>
            <path class="cls-153" d="M90.64,38.36c-1.24-7.78,5.14,7.57.1,3l-.1-3Z"/>
            <path class="cls-53" d="M96.32,41.18c.76,1.4.81,2.99.21,5.05-1.08-1.04-1.01-2.4-.21-5.05Z"/>
          </g>
        </g>
        <path class="cls-84" d="M110.12,50.69c1.7,1.07,3.17,8.14,2.72,8.88-.47.79-1.77,1.28-2.61,1.92-.21.16-.57.06-.82.07-.15-1.39-1.44-1.99-2.15-3.54,2.97-1.8,2.96-4.65,2.85-7.34Z"/>
        <path class="cls-113" d="M108.93,48.72c-1.19-2.49-.53-3.51,1.98-3.07.26.9.32,2.05.31,2.98,0,.72-.92,1.38-1.1,2.05-.78-.49-.82-1.23-1.19-1.97Z"/>
        <path class="cls-98" d="M106.69,31.65c-.04-1.81.25-2.36,1.61-.99,1.51-1.92,1.49-4.09.68-6.43,2.83-2,4.42-.88,4.79,3.36.33-1.65,1.02-1.71,1.27,0,.99-.07,1.44,1.18,1.34,1.19-2.69.2,2.27-4.18,4.59-.7.18-1.93.95-1.91,1.53-.01.39-1.66,2.18-2.12,2.48-.14.77-2.78,2.45-2.78,3.41-.11,1.86,1.01,3.26.94,4.2-.2l.72,1.25c-.86,3.23-12.42-1.51-17.84,3.58-1.51.2-3.66-.31-4.96.93l-3.69.35c-.79-.27-.84-.65-.16-1.12-.9-.24-.88-.56,0-.96Z"/>
        <path class="cls-170" d="M132.23,25.9c.62.9,1.44,1.71,1.1,2.96-1.74.23-3.77.51-4.93-1.05,1.04-.34,1.73.22,2.44.23,1.36.01,1.71-.98,1.39-2.15Z"/>
        <path class="cls-25" d="M103.71,37.66c-.49-1.91.48-2.19,1.9-.76,1.89,0,2.74,2.09,2.33,3.79,1.24,1.44,2.44,3.14,2.96,4.96-.68,1.01-1.18,2.14-1.98,3.07-.85-1.69-2.05-3.21-3.11-4.78-1.31-1.93-2.7-3.78-2.1-6.28Z"/>
        <path class="cls-6" d="M105.39,34.73c-3.12-1.52-1.5-4.12,1.29-2.13.06.36.07.77.16,1.12.52,2.05,2.2,3.65,2.11,5.89l-1.01,1.08c-.97-1.13-1.88-2.27-2.33-3.79-2.76-.03-2.75-1.06-.22-2.17Z"/>
        <path class="cls-44" d="M123.7,16.1l-1.17-.83c3.22-3.06,4.51-6.45,3.88-10.16.27-1.52.8-3.52,1.98-4.41,1.24-.94,3.02-.96,4.04.15-.92-.01-1.68.32-2.26,1-.64,2.05-1.05,3.4.48,5.1,1.21,7.1-3.94,7.02-1.68,10.95-.35.62-.59,1.3-.78,1.98-.28,1.72-1.01,1.71-1.38.07-1.3,1.57-2.1,1.22-1.81-.8-3.25-.05-3.49-.67-1.28-3.05Z"/>
        <path class="cls-99" d="M130.17,1.85l.48,5.1c-1.14-.23-2.24-1-2.05-2.27.17-1.1.89-2.03,1.57-2.83Z"/>
        <path class="cls-104" d="M125.14,25.13c-.51-1.74-.2-4.6,1.67-5.19.09-.63,1-.03,1.38-.07.75-.07.54.59.87.99-.36,1.87-.39,3.61-.09,5.23-.27.54-.49,1.12-.55,1.71-1.13.14-2.27.04-3.41.11-1.99,0-1.53-2.22.14-2.79Z"/>
        <path class="cls-72" d="M129.05,20.87c1.27,1.6.76,3.51-.09,5.23-1.27,0-1.64-1.48-1.34-2.19.44-1.05.43-2.77,1.43-3.04Z"/>
        <path class="cls-47" d="M121.69,14.06c2.98-2.08,4.11-5.43,4.72-8.95,1.93-.6.37,4.66.78,6.6-1.79,1.27-3.16,2.41-3.48,4.39.39,2.14-2.48,4.6-3.75,2.22-.81.54-1.11.22-.99-.84,1.75-.19,1.88-2.55,2.72-3.42Z"/>
        <path class="cls-14" d="M81.56,42.42c3.19-2.33,4.23-3.51,3.13-3.54.61-1.59,2.36-1.3,3.65-.62.2,1.88,1.07,3.62,1.87,5.31,0,.29,0,.58-.02.87-1.25,1.84-4.21,4.98-7.02,4.24-2.29-.6-2.45-4.77-1.61-6.26Z"/>
        <path class="cls-7" d="M80.34,40.97l4.35-2.09c.38.26.84-.06,1.58.25-1.41,1.05-2.19,2.28-2.75,4.5-.47-.24-.54-.77-.87-1.2-.23-.29-.57-.16-1.09-.01-.34.1-.79-.45-1.06-.49-.53-.07-.73-.53-.16-.97Z"/>
        <path class="cls-140" d="M78.29,28.54c.14-2.66,1.05-2.53,1.8,0,2.1.87,2.85,2.18,1.29,4.1-.98-.07-2.6,1.71-3.85,1.19-1.59-.06-2.49-1.45-3.33-2.91,1.09-1.17,2.68-1.64,4.09-2.39Z"/>
        <path class="cls-184" d="M78.73,22.49c.71.13,1.53-.91,2.44-.35.5.31.43,1.06.8,1.46,1.64,3.04,2.33,6.62-1.87,4.95h-1.8c-.36-1.35-1.57-1.04-3.44-1.76,1.82-1.59,3.32-2.46,3.87-4.3Z"/>
        <path class="cls-24" d="M75.16,22.09c.3,2.25-2.82,3.25-4.02,4.99l-1.02-.84c1.63-1.46,2.41-4.17,5.05-4.15Z"/>
        <path class="cls-67" d="M69.48,34.09c.5-.42.89-.95,1.36-1.4.39.15.83.22,1.1.44.59.48-.1,1.12-.9,1.87-.99,1.68-2.1.71-1.57-.91Z"/>
        <path class="cls-58" d="M64.47,32.33c.89.85,1.19,1.12,1.03,2.47-.09.72-1.82.93-2.15.47-.72-1.01.75-2.1,1.12-2.94Z"/>
        <path class="cls-92" d="M101.49,33.15c1.79-1.99,3.59-.91,3.9,1.58.02.69.02,1.51.22,2.17-.61.29-1.23.6-1.9.76-.32.08-.68-.03-1.01.03-.44-1.27-2.28-.75-3.34-.82.09-.92-.79-2.32-.46-3.15.38-.93,2.05-.35,2.59-.57Z"/>
        <path class="cls-38" d="M85.91,17.51l4.96-1.17c.27-.41.73-.69.97-1.13,4.1-.29,7.87,1.89,11.92.8,1.18.44,2.46,1.45,3.71,1.17.87-.18.89.09.17.75,1.83.83,3.3,1.33,5.28.66,5.66-1.42,7.73-1.38,3.29,3.73l.18.92c-1.18.71-2.05,2.16-2.61,4.34-1.69.27-1.4-3.64-3.47-2.19-.52.57.21,2.5,0,3.64-.16.83-.8,1.41-2,1.63l-1.04-.33c.18-2.79-.56-5.18-2.23-7.18-.17.72-.94.57-2.29-.43-2.03.8-3.67.62-4.91-.51-.72.31-2.83.04-2.98-.3l-1.45-3.24c-2.31-.09-5.25-.28-7.47-.15-1.16.08-1.22-.99-.03-1Z"/>
        <path class="cls-53" d="M118.22,23.61c-.24-2.15,1.27-2.31,2.03-.28,1.28-.58,2.55-1.25,3.82-1.99-4.32-.73-4.34-1.54-.25-3.63l1.17,1.44c.58.32,1.19.58,1.81.8-.08,1.9-.46,3.7-1.67,5.19-.61,1.22-1.42,2.51-2.62,2.93h-1.53c-2.39,0-4.95-.86-3.84-3.71-1.03-1.64-.39-2.07,1.07-.74Z"/>
        <path class="cls-38" d="M100.39,28.96c1.75-1.77,4.57-1,5.79.92,1.45-.61,1.63.83.51,1.76,0,.31-.06.65,0,.96-1.07-.06-1.32,1.28-1.29,2.13-1.34-.21-2.85-.64-3.9-1.58-.85-.76-1.46-1.76-3.08-2.33-1.25-.44-.26-2,.46-2.33.49-.23.6.56,1.52.48Z"/>
        <path class="cls-84" d="M105.03,23.14c.92.57,3.08.42,3.63,2.02.62,1.82-.62,3.81-.35,5.5-.54.1-.99.97-1.61.99-.01-.58-.57-1.19-.51-1.76-2.25-.61-3.1-1.9-2.16-4.12.16-1.04.49-1.92,1.01-2.63Z"/>
        <path class="cls-53" d="M115.05,27.59c-1.62-2.57,1.16-8.87,2.09-3.23,1.24,1.44,3.84,1.57,3.84,3.72-1.86.01-3.33,1.34-5.96,1.6-.78-.13-.22-1.71.03-2.08Z"/>
        <path class="cls-120" d="M113.92,17.53l5.05-.05c.3.31.64.58.99.84,3.62-.86,3.04.91-1.74,5.29l-1.07.74c-.54-.21-.91-.76-1.92-.88l-.18,4.12c-.42.26-.86-.07-1.27,0,.32-2.45,1.49-4.91.23-7.46,1.55-.64,2.83.37,4.09-1.6-1.83-.29-3.48.09-5.19.06-.87-.3-.85-.64.01-1.01.26-.82.59-.81,1-.03Z"/>
        <path class="cls-53" d="M125.14,25.13c-.49.68-.01,2.01-.14,2.79l-2.48.14c-.02-.64,0-1.34.3-1.89.48-.85,1.45-1.06,2.32-1.04Z"/>
        <path class="cls-142" d="M119.96,18.32c1.16-.21,3.18-1.08,3.75-2.22.31,1.06.7,2.1,1.28,3.05-.83.13-1.65-.24-3.08.39l2.16,1.8c-.5,1.02-1.77,1.68-3.82,1.99l-2.03.28c.16-1.16-1.35-2.18-.66-3.26,1.5.08,2.57.04,3.07-.5.32-.34-.41-1.13-.67-1.53Z"/>
        <path class="cls-34" d="M97.84,22.19c1.75-1.93,5.07-.35,7.19.95.12.39.27.84.23,1.29-.04.56-.61,1.29-1.24,1.34q-2.65-.88,0,0c1.41.94,2.36,2.27,2.16,4.12-1.74,1.05-4.06.01-5.79-.92-1.21-.65-2.21-1.13-4.07-.46.08-3,2.14-4.18,1.52-6.31Z"/>
        <g>
          <path class="cls-21" d="M79.04,18.52c2.96-1.37,5.26-1.37,6.9-.01,5.9-2.71,9.87-1.49,11.9,3.68l2.06,1.23c-1.48,1.34-1.31,3.19.49,5.54l-1.08.96c2.52.71,3.25,1.79,2.18,3.23-.05,1.77-.76,3.01-2.13,3.73-.27-.02-.53.11-.8.12-1.17-1.61-2.35-3.24-3.11-5.09.44-.83.87-1.5.36-1.9-2.61-2-3.92.7-10.28,1.47-2.44-.9-3.63-3.53-3.56-7.89-1.44.58-2.53.42-3.24-1.11-.83-.15-1.65-.77-2.58-.5-1.9.39-1.99-.37-.13-1.14.89-.93,1.99-1.59,3.02-2.34Z"/>
          <path class="cls-98" d="M85.55,14.65c2.04-.95,4.34.69,6.28.56,1.53,1.3.93,1.95-.97,1.13l-4.96,1.17.03,1c-2.16.13-4.68.94-6.9.01,2.04-1.48,4.22-2.81,6.51-3.88Z"/>
          <path class="cls-139" d="M80.1,28.55c1.78-1.04,2.47-2.99,1.87-4.95,1.98,2.13,3.13,5.03,3.56,7.89-1.15.14-2.45,2.24-4.15,1.17-1.03-1.17-1.91-2.55-1.29-4.1Z"/>
          <path class="cls-84" d="M85.63,22.09c.33-.98,1.13-.4,1.38-.16.65.61.69,1.39.73,2.68.03.91-1.3.75-1.75.25-.4-.44-.87-1.27-.37-2.76Z"/>
          <path class="cls-96" d="M90.87,16.34c-1.08,1.63-3.23,1.1-4.96,1.17.92-1.8,3.3-.95,4.96-1.17Z"/>
        </g>
        <path class="cls-6" d="M107.64,17.92c1.76-.21,3.52-.29,5.29-.36v1.01c.19,1.98-2,2.03-3.39,1.35-.77-.37-1.94-.72-1.9-2.01Z"/>
        <path class="cls-9" d="M124.06,21.34c.13,1.09-.1,2.43-1.52,2.69-.64.11-1.55-.29-2.3-.7-.22-.84-.32-1.8.47-1.94,1.32-.24,2.36-.09,3.34-.05Z"/>
        <path class="cls-2" d="M104.03,25.77c-.98.08-1.76,1.6-2.54,1.71-1.71.25-1.47-1.99-1.15-2.81.25-.63.97-.79,2.26-1.38,1.4-.64,1,1.78,1.43,2.48Z"/>
      </g>
      <g>
        <path class="cls-186" d="M31.73,70.43c.58-1.57,1.34-2.06,2.68-1.2,1.04-2.6,2.34-5.04,4.43-2.19.51.21.54.54.15.96-1.17,1.1-.7,3.76-2.26,4.67s-3.93.75-4.98-1.02l-.02-1.22Z"/>
        <path class="cls-168" d="M25.48,63.64c.65-.01,1,.31,1.03.96l3.1,2.89c4.6-1.12,6.73,2.83,2.1,2.93-3.82.12-6.02-2.44-7.35-5.87-1.25-1.57-.6-2.06,1.1-.92Z"/>
        <path class="cls-177" d="M22.35,59.75c.98.44,1.74,1.41,2.27,2.92.95-.27,1.24.05.87.97-.44.22-.83.52-1.1.92-1.29-.05-2.15-.84-2.93-1.74-1.9-1.42-1.75-4.28.9-3.08Z"/>
        <path class="cls-95" d="M19.22,57.86c-.31-2.02,1.81-1.74,2.34-.03,1.74-1.1,1.61.31.79,1.92-1.2.48-1.35,2.04-.9,3.08l-2.25-1.2c-.14-1.26,0-2.52.02-3.77Z"/>
        <path class="cls-149" d="M14.15,48.19c.4-1.76.95-3.17,1.64-4.22l-.03-1c.28-.89.64-.88,1.09-.04,2.31-.54,2.47.77.49,3.94,2.86-.18,3.09,1.5.63,2.94,2.65,1.35,1.78,3.09-.7,3.83l-1.04.17c-.77-1.83-2.28-3.55-2.08-5.62Z"/>
        <path class="cls-165" d="M13.86,46.04l-.2-3.99c1.55-2.18,2.26-1.54,2.13,1.92.05,1.57.51,4.28-1.64,4.22.1-.99-.24-1.3-.29-2.15Z"/>
        <path class="cls-54" d="M26.17,54.62c.84.55.77.95-.2,1.2l-.67,2.19c-1.2-.17-2.44-.23-3.73-.17l-2.34.03c.04-1.63-1.52-2.71-1.95-4.21.76-2.35,2.13-2.37,4.1-.07l1.68.74c1.78-1.15,2.82-1.05,3.12.29Z"/>
        <path class="cls-154" d="M38.46,58.5c.24-1.28,1.2-1.09,2.88.59.86.31.84.64-.03,1-.08,2.97-.14,5.86-2.32,7.91-.1-.3-.01-.68-.15-.96-2.74-.41-2.87-3.26-.37-8.54Z"/>
        <path class="cls-152" d="M41.3,58.09c-.68-1.24,3.08-2.62,4.03-1.51-.07-3.18,5.14-1.11,6.05.87.4.94-.28,1.4-2.05,1.37-2.69-.45-5.47.59-8.02,1.28l.03-1c-.88-.25-.88-.59-.03-1Z"/>
        <path class="cls-57" d="M25.97,55.81c.32-2.81,1.12-2.74,2.24-.27.63-.73,1.27-.69,1.69.23,1.96.44,2.81,2.66,2.55,6.67l.74-.06c.5-.71,1.39-.78,2.67-.22-.08-2.05.4-3.36,1.45-3.94.27-1.93,1.04-1.74,1.16.27.18,2.85-.88,5.91.37,8.54-2.2-.06-1.89,2.64-3.16,4.07-1.17.81-2.98-.72-3.95-.69.23-.56,1.2-1.72.35-1.85-.98-.15-1.61-.68-2.45-1.08.66-.8.96-1.81.88-3.06-1.43,1.06-2.33-.72-.98-1.89-1.52-1.07-2.63-1.91-3.38-3.93-2.17-.78-2.72-1.77-.17-2.81Z"/>
        <path class="cls-145" d="M25.97,55.81c-.21.96.03,1.87.17,2.81,1.58,1.36,1.71,3.36.38,5.99-.35-.32-.72-.61-1.03-.96-.29-.33-.55-.67-.87-.97-1.54-1.32-1.38-2.69-.63-4.33.06-.14-.03,2.86-1.64,1.41,0-.67-.58-1.31-.79-1.92,1.33-.97,2.74-1.82,4.4-2.02Z"/>
        <path class="cls-13" d="M26.52,64.61c-.05-2-.08-4.01-.38-5.99,1.9.5,3.12,2.02,3.38,3.93-1.54-.05-1.23,2.04.98,1.89.73.37,1.05.83,1.15,1.5.23,1.51-.91,1.76-2.03,1.55-.78-.37-1.99.13-2.53-.89-.32-.62-.53-1.29-.57-2Z"/>
        <path class="cls-187" d="M22.35,59.75c.83-.33.77-.81,1.47-2.09.99,1.6.46,3.36.79,5.02-1.47-.29-2.25-1.48-2.27-2.92Z"/>
        <path class="cls-28" d="M13.63,8.7c1.58,1.01,2.53,1.97,3.98,1.18,1.58-.06,3.27.54,5.07,1.82,1.99.84,3.63,2.59,3.05,4.9-1.37,1.99-2.43,1.45-2-.94-1.91.22-3.24-.4-3.98-1.86-.52.55-1.52.59-3,.1,1.03,1.42,1.03,2.18,0,2.25-.48,2.33-2.02,1.87-2.23-.4l-1.4-.65c.9-1.17.73-2.86-.51-5.07l-1.01-.14c.49-.66,1.2-1.14,2.02-1.22Z"/>
        <path class="cls-173" d="M17.33,46.87c.24-2.39.87-4.07,3.11-5.19,1.77-1.6,3.45-2.65,5.04-3.14,2.59,2.4,2.78,7.57,1.51,11.04-2.05,1.88-2.99.24-3.15-2.25.37,1.78.45,3.53.24,5.27,1.98.99-.32,2.12-2.07,1.89-.67-.09-4.12-3.56-4.05-4.67-.03-.93-.51-1.98-.63-2.94Z"/>
        <path class="cls-105" d="M16.84,42.93c-.3-2.64,6.16-7.33,8.5-6.09.81.11.76.4-.03.85.87-.11.89.19.18.85-1.02,1.02-.76,2.66-1.8,4.22-3.17.2-4.69,2.17-6.35,4.1l-.49-3.94Z"/>
        <path class="cls-145" d="M17.97,49.81c4.33.37,4.32,6.32,6.12,2.78,0-2.67.9-2.66,1.92-.22,1.62-.28,1.61,1.81.16,2.24-2.06-.43-3.98,1.52-6.17.71-.5-.71-.82-1.69-1.37-2.22-.31-.3-.95.13-1.36.55-.36-1.27.57-2.64.7-3.83Z"/>
        <path class="cls-106" d="M17.82,38.88c.93-3.41,2.54-4.51,4.8-3.3.07-1.79,2.63-1.64,2.89-.12,1.76.31,1.56.95-.18,1.38-.86-.1-8.69,4.55-8.5,6.09l-1.09.04c-.06-1.77,1.5-2.74,2.07-4.09Z"/>
        <path class="cls-4" d="M26.01,52.38c-1.75-1.93-1.58-2.4.99-2.79.23-3.77-.54-7.41-1.51-11.04-.07-.27-.16-.57-.18-.85.47-1.49,1.17-2.63,2.23-1.14,2.85,1,2.72,5.64,1.43,7.8.85.48.82.87-.11,1.16.39,1.16.91,7.28.68,8.23-.09.36-.66.6-1.36.8.87.22.86.55.03,1l-2.24.27c.08-.38.23-.81.2-1.2l-.16-2.24Z"/>
        <path class="cls-158" d="M62.11,52.36c-.54-3.39-.25-6.35.88-8.9-.39-1.73-.37-3.03,1.62-2.29,2.8,0,3.26,1.01,1.43,3.14.55.56.14.94-1.23,1.15,1.89.97,2.83,3.09.2,3.78l1.9,1.25c-.61,3.49-1.9,5.73-3.87,6.72,1.11,2.31,1.17,3.21.19,2.7l-.95,2.46c.77,1.75-1.21,2.35-2.7,1.95-1.28-.21-2.26-.77-3.08-1.71l-1.1-2.08c3.61-1.08,5.84-3.81,6.71-8.18Z"/>
        <path class="cls-132" d="M56.41,58.54c-.59-1.85.07-2.39,1.53-1.07,1.25-2.22,2.29-4.58,3.1-7.07.95-.79,1.3-.14,1.07,1.96-.84,3.13-.19,7.42-3.22,9.81-.54-.47-1.29-.87-1.43-1.17-.25-.51-1.16-.63-1.26-.05-.12.67.43,1.35.3,1.67-.74-.85-1.68-1.55-1.98-2.72-.37-2.34-.21-2.28,1.89-1.36Z"/>
        <path class="cls-12" d="M51.38,57.44c.17-.95.52-1.01,1.05-.2,2.13-3.49,3.14.57,2.09,2.66-1.89.44-3.48-.81-5.19-1.09-.11-.75,1.46-1.13,2.05-1.37Z"/>
        <path class="cls-18" d="M37.2,55.23c-.59-1.71-.29-2.75.9-3.12.77-.57,1.07-.27.97.77.87,1.82,1.61,3.56,2.23,5.21l.03,1c-.98-.04-1.96-.2-2.88-.59l-1.16-.27c-2.16.27-2.25-2.58-.1-3Z"/>
        <path class="cls-118" d="M39.07,52.88c.19-1.36.49-1.4.88-.1.94-.03,1.66.73,2.17,2.27l1.33-.04c-.79-1.89.73-2.49,1.84-.75,2.65.09,2.92,1.81.03,2.31l-4.03,1.51c-2.25-.61-2.1-3.19-2.23-5.21Z"/>
        <path class="cls-78" d="M45.29,54.27c-2.36-.98-.03-2.8,1.7-1.59,1.44.13,2.89.71,4.35,1.74.92-1.72,1.32-.74,1.63,1.25,1.6,1.04,1.36,1.76-.54,1.57-.31.05-.79.1-1.05.2-1.79-.91-4.32-1.52-6.05-.87.26-.79.08-1.55-.03-2.31Z"/>
        <path class="cls-115" d="M28.85,45.52c.21-.27-.03-.85.11-1.16-.66-2.26-.18-2.19,1.84-1.49,1.17-2.15,2.91-1.19,2.53,1.24,1.89-.23,1.87.51.02,1.16-.83,2.83-.56,5.82.81,8.94,2.96-2.52,3.97-2.18,3.04,1.03.04,2.86-2.23,2.81-3,.1-.25.88-.59.88-1,.03-.51,2.78-2.15,3.01-3.31.4-.55.07-1.14-.29-1.69-.23.01-.33-.07-.67-.03-1,1.07-2.48,1.81-6.63.69-9.03Z"/>
        <path class="cls-90" d="M29.9,55.77c1.1-.13,2.19-.36,3.31-.4,1.44,3.14,1.44,5.47-.02,7.01-.15,1.47,1.25,3.04-.21,5.09l-3.08-11.7Z"/>
        <path class="cls-27" d="M34.2,55.34l3-.1.1,3c.05,1.48.26,3.46-1.45,3.94-2.3.1-2.29-4.73-1.65-6.83Z"/>
        <path class="cls-33" d="M33.2,55.37l1-.03c-.22,2.41.97,4.57,1.65,6.83-.41,1.02.05,2.27-.8,3.14-.74-1.71-1.01-2.51-1.87-2.93.24-2.33.17-4.68.02-7.01Z"/>
        <path class="cls-5" d="M29.52,62.55c.08.58.69,1.43.98,1.89.22.7-.58,1.04-.93,1.59-.42.67-.94.51-.98-.05-.07-1.15-2.31-3.12-.76-4.31.38-.29,1.05,1.02,1.68.88Z"/>
        <path class="cls-59" d="M23.72,15.67l2,.94c-.08.31.06.68.05,1,.88.21.85.51-.02.89.53.25.5.5-.04.77-.09.8-.38.82-.84.1-.26,1.51-1.14,1.64-1.93.29-5.15,2.84-3.42-5.69.78-3.98Z"/>
        <path class="cls-111" d="M11.64,12.25c.69-.52.87-1.37.97-2.19.36.05,1.48-.37,1.71.21.77,1.93-.13,3.8.2,5.5,1.64,1.55,2.12,2.96,1.43,4.23-.93-.31-1.85-.68-2.8-.94-2.07.23-2.26-.02-1.6-2.02-.15-.76-1.06-1.55-.3-2.05.81-.53,1.33-.55,2.61-1.18-.67-.89-1.63-1.02-2.24-1.57Z"/>
        <path class="cls-69" d="M17.64,32.9c-.76-1.16-.12-2.25.92-2.95-.01-.87.27-1.26.85-1.17,1.58-1.15,2.11-.56,1,1.07,1.18,1.2,2.83,4.11,2.22,5.73-1.61,1.16-2.68,3.24-4.8,3.3.76-1.82-.5-4.14-.19-5.98Z"/>
        <path class="cls-23" d="M16.75,16.17v-2.25c.89-1.23,3.08,1.58,2.91,1.52-.71-.24-.73-1.1.08-1.63.85.33,2.18-.58,3.21.08.48.3.78,1.01.77,1.78-.84.8-2.3,1.5-2.53,3.09-.1.68,1.4.87,1.76.89.89.27.89.62.04,1.05l-.45,2.14c-2.46,2.19-2.92,2.16-4.42-.86-.84.44-1.18.06-1.11-.98l.04-.86c-.31-1.37-.41-2.7-.29-3.97Z"/>
        <path class="cls-112" d="M14.52,15.78c.57.37,1.74-.04,2.23.4.76.67,1.79,1.26,2.36,1.95.7.86-1.35,1.79-2.07,2.02-.35-.09-.75-.02-1.08-.14-1.06-1.36-3.62-3.01-1.43-4.23Z"/>
        <path class="cls-169" d="M19.74,13.82c.13.61.82,1,1.09,1.81-2.25.93-3-.68-4.09-1.7,0-.96-.3-2.31.96-1.65.65.34,1.32,1.26,2.04,1.54Z"/>
        <path class="cls-80" d="M27,49.58c-.06.99-.51,1.95-.99,2.79l-1.92.22c-2.43.32-2.66-7.11-1.74-7.72.7-.46,3.08-.6,3.29.49.38,1.98-.03,3.67,1.36,4.21Z"/>
        <path class="cls-182" d="M25.52,35.46c-.91-2.51-.36-4.23,2.61-2.88.53-1.3,1.65-1.5,2.2-.07,2.02-.1,2.77.49,2.26,1.79-1.99,2.45-3.67,3.2-5.05,2.26-.64.51-1.56.69-2.23,1.14-.02-.27-.03-.59.03-.85.1-.42,0-.99.18-1.38Z"/>
        <path class="cls-30" d="M20.4,29.85c.14-.88.4-.86.79,0l2.38-.82c2.75-1.92,3.91-1.85,3.48.23,1.68.25,1.34,1.32.32,2.29,1.44-.87,1.81-.29.77,1.02-1.06.76-2.04,1.69-2.61,2.88-.97-.03-1.93,0-2.89.12-1.12-1.84-2.72-3.49-2.22-5.73Z"/>
        <path class="cls-175" d="M27.54,36.56c1.5-1.21,2.99-2.7,5.05-2.26.92.13.9.46.04.96.47,1.1.13,2.15-1.02,3.15,2.09.71,2.07,1.19-.04,2,1.83,1.37,1.5,2.39-.77,2.45-.1.94-1.01,1.33-1.84,1.49-1.04-2.48-1.65-5.1-1.43-7.8Z"/>
        <path class="cls-175" d="M28.85,45.52c5.02-1.75-.43,5.42,2.21,8.48-.61.87-1.89.42-2.9.54.28-3.05-1.3-6.47.69-9.03Z"/>
        <path class="cls-160" d="M60.94,47.4c-2.29-1.31.27-6.48,2.05-3.94.43,3.21-.12,6.1-.88,8.9-.18-.74-.51-1.44-1.07-1.96-.42-.9-.53-2.19-.1-3Z"/>
        <path class="cls-122" d="M61.9,39.41c.61-1.93,1.64-2.02,2.55-.21l.16,1.97c-.48.76-.86,1.74-1.62,2.29-2.72,1.32-2.2-.17-1.24-2.38-1.89-.63-1.79-1.34.15-1.67Z"/>
        <path class="cls-126" d="M52.97,55.67c-1.2-1.06-.07-2.29,1.34-2.21-1.17-1.91,1.48-2.85,2.52-.95.79,1.15.66,3.17-.41,6.04-.37.88-1.01,1.15-1.89,1.36-.13-.49-.14-1.05-.37-1.77-.18-.57-.85-1.04-1.72-.89.14-.53.33-1.05.54-1.57Z"/>
        <path class="cls-150" d="M56.83,52.51c-.9-.37-.85-.71.1-1.02,1.67-2.55,2.99-1.98,2.18.98,1.03,1.42.4,4.13-1.18,5-.4.32-1.2.69-1.53,1.07-.96.35-1.48-.48-1.15-1.61.51-1.72,1.51-2.99,1.56-4.42Z"/>
        <path class="cls-88" d="M59.11,52.46c-.78-1.48-.5-3.16.82-5.03.25-.88.59-.88,1-.03.48.99.81,1.99.1,3-.51,2.24-.05,7.7-3.1,7.07.59-1.5.34-3.6,1.18-5Z"/>
        <path class="cls-114" d="M33.35,45.26c1.15-1.78,2.02-.78,2.61,3.01,1.36-1.04,1.93-.55,1.04.97,1.61-.13,3.56,1.56,1.1,2.87.11,1.13-.07,2.3-.9,3.12.11-.66-.41-.8-.6-1.15-.52-.95-1.85-.23-2.44.13-1.56-3.21-1.83-6.19-.81-8.94Z"/>
        <path class="cls-178" d="M36.99,49.24c-1.32-3.12-.61-3.29,1.96-1.08,1.41-.27,2.43.03,3.03.89.92.02.94.36.17.98.14,1.3-.88,2.77-2.21,2.75-.35-.44-.65-.42-.88.1-.3-.28-.63-.53-.97-.77l-1.1-2.87Z"/>
        <path class="cls-134" d="M42.79,52.04c-.14-2.96,5.8-5.41,6.39-1.7,1.95.18,1.79.98-.23,1.23.12,2.12-.08,2.17-1.95,1.1-.4.45-1.84.66-1.7,1.59l-1.84.75c-2.28.64-3.25-2.63-.66-2.98Z"/>
        <path class="cls-46" d="M39.95,52.78c-.18-1.43.8-2.58,2.21-2.75,2.06-.4,2.3.62.63,2-.64,1.05-.17,2.19.66,2.98-.14,1.63-1.38,1.71-2.33.65-.65-.72-.89-1.84-1.17-2.88Z"/>
        <path class="cls-15" d="M46.99,52.67c.42-.47.98-1.41,1.95-1.1,1.07-.79,2.75-1,4.1-.86,2.83-.12,3.18.64,1.27,2.74.23.88-.77,1.74-1.34,2.21-2.25-.6-5.33-.37-5.98-3Z"/>
        <path class="cls-11" d="M33.35,45.26c.04,2.72.9,5.38,2.89,7.71l-2.07,1.24c-.34.21-1.12.06-1.49-.03-.91-.21-2.15-8.21.68-8.91Z"/>
        <path class="cls-68" d="M34.68,40.31c-2.28.3-1.92-1.03-.07-2.1.29-.92.62-.94,1-.05,1.58-1.55,2.23-.89,1.04,1.08.65,1.16,1.76,4.02.14,4l-.21,3.23c1.02,1.19.82,1.79-.61,1.8-1.08-.69-.98-3.41-2.61-3.01l-.02-1.16c-1.45-1.39-.48-3.44,1.35-3.79Z"/>
        <path class="cls-11" d="M31.57,40.42c-.19-1.27,2.76-1.49,3.11-.11.05,1.44-.17,2.87-1.35,3.79-.72-.63-1.6-1.03-2.53-1.24.09-.86.57-1.62.77-2.45Z"/>
        <path class="cls-65" d="M32.01,15.58c.27-.09.58-.03.86-.09,1.62-1.34,3.24-2.11,4.86-2.3,4.01-.6,10.1-.98,7.17,4.75-.87.93-2.38.35-4.52-1.75l-3.2.78c-.65,2.04-1.82,3.04-3.28,1.35-.77.66-1.72.09-2.03-.93l.13-1.81Z"/>
        <path class="cls-119" d="M41.69,12.05c1.35.05,2.66.77,4.04.57,2.83-.74,3.33.17,1.21,2.17-.26,1.46-.59,2.83-1.01,4.11-.14.89-.48.94-.99.18-1.92.25-1.95-.52-.04-1.14-.04-1.14.17-2.31-.3-3.87-2.65-.01-4.79-.21-6.87-.88-.88-.25-.88-.59-.03-1,1.3-.11,2.7-.19,4-.14Z"/>
        <path class="cls-129" d="M37.7,12.19l.03,1c-1.55.97-3.04,3.46-4.86,2.3.67-2.02,2.75-3.13,4.83-3.3Z"/>
        <path class="cls-66" d="M22.98,20.71l1.88-1.34.84-.1c1.3-.37,2.62-.34,2.5,1.11,1.25,3.24.56,6.49-2.91,4.03-.94,1.93-1.97,1.47-2.21-.73l-.57-.82c-1.87-2.09-1.88-1.65-.94-1.86.56-.12.98-.25,1.39-.29Z"/>
        <path class="cls-127" d="M28.91,18.5c1.37.14,2.38.44,3.03.89.83-.34.99-.04.57.83.88.15.87.44.02.84.58,2.57-1.96,3.54-3.42,1.44l-.89-2.13c-.82-.41-1.65-.79-2.5-1.11-.29-.29-.34-.55.04-.77,1.04.25,2.11-.08,3.15,0Z"/>
        <path class="cls-166" d="M22.94,19.65c.58-.39,1.34-.89,1.93-.29.44,1.14,1.37,1.79,2.28,3.03-2.12.63-3.18-.79-4.16-1.69l-.04-1.05Z"/>
        <path class="cls-31" d="M31.87,17.4c.48-.42,2.27.1,2.03.93.61,1.45-.73,1.71-1.96,1.07-1.07-.02-2.6.42-3.03-.89,1.22.1,2.09-.34,2.96-1.1Z"/>
        <path class="cls-61" d="M19.41,26.57c-.61-3.16.95-4.12,3.69-2.9.7.34,1.45.58,2.21.73,1.88-.45,2.06.31.42,1.36,1.23,1.16.49,2.48-2.23,3.96.84,1.81.07,1.85-2.31.13-.24.07-.54-.05-.79,0l-1-1.07c-.14-.7.2-1.53,0-2.22Z"/>
        <path class="cls-112" d="M18.11,21.99c1.37.7,2.9.88,4.42.86.22.25.41.52.57.82-.68.12-1.84-.14-2.5.43-.24.38.94,1.41.66,1.75-.35.42-1.53.51-1.85.71-.44-1.53-1.1-2.99-1.3-4.58Z"/>
        <path class="cls-43" d="M31.29,29.42c.28-.41.54-.72.78-.7,2.98.28,8.49,2.73,9.41,5.47.05,2.7-1.26,3.12-2.91,1.02-.49-.41-.92-1.07-1.3-1.99l-1.03.9-5.91-1.61c-.64.25-1.53.07-2.2.07-.47,0-.76-.63-.77-1.02-.54-1.41,2.92-2.58,3.93-2.14Z"/>
        <path class="cls-180" d="M37.27,33.23c1.08,1.18,1.31,3.87-.64,3.06-1.22.94-2.57.28-4.05-1.99-.79-.54-1.61-1.07-2.26-1.79,2.32-.89,4.83-.58,6.94.72Z"/>
        <path class="cls-69" d="M25.73,25.76c1.03-1.62,1.77-1.18,1.42.75,1.84.8,1.96,2.33-.1,2.76-.89-.79-1.28-.42-1.91-.11-1.3.62-1.95,1.16-.55,2.7.43.47.04.97-.01,1.26-.61,3.66-1.82-3.95-3.39-3.26,2.16-.67,4.22-1.72,4.54-4.1Z"/>
        <path class="cls-110" d="M27.04,29.27l1.15-2.74c-.2-2.66.78-2.81,2.96-1.31,2.65.45,2.61,1.35.08,2.21.96.49,1.58,1.77.07,2l-3.93,2.14c-1.17-.34-.45-1.46-.32-2.29Z"/>
        <path class="cls-26" d="M36.64,36.29c2.13.72.92,2.32-1.03,1.87-.34-.04-.66,0-1,.05-.17.9-.5.93-1,.13-1.48-.4-1.96-1.97-.97-3.08,0-.32,0-.64-.04-.96,1.65-.16,3.07.7,4.05,1.99Z"/>
        <path class="cls-73" d="M32.63,35.26c1.06.65,1,1.97.97,3.08.1,1.92-1.79,1.87-2,.07-.03-.44-.94-.95-.67-1.45.42-.8,1.19-1.19,1.7-1.7Z"/>
        <path class="cls-115" d="M31.61,38.42c.19.17.6.35,1,.53.33.14.76-.12.99-.6l1-.13.07,2.1-3.11.11c.14-.58.07-1.41.04-2Z"/>
        <path class="cls-93" d="M61.52,35.34c.15-2.69.97-2.6,1.83-.07.44.11.75.79,1.2.95l-.1,2.99c-.84.12-1.7.19-2.55.21-1.91.74-2.44-.46-1.1-1.98-1.78-1.31-1.33-1.82.72-2.09Z"/>
        <path class="cls-39" d="M60.81,41.05c-.4-2.11.44-2.2.94.03l1.24,2.38c-.55.39-1.47.36-1.72.96-.38.91-.73,2.16-.34,2.98l-1,.03c-.95.26-1.31-.4-1.07-1.96-.88-.25-.88-.59-.03-1-.5-1.27.35-3.3,1.98-3.42Z"/>
        <path class="cls-133" d="M60.8,37.43c.44.59.91,1.25,1.1,1.98.13.51-.38,1.23-.15,1.67-.31-.49-.63-.58-.94-.03-1.35,2.01-1.68,1.74-1.93-.63-.98-.41-1.8-1.96-1.29-2.92-.14-1.67,2.79-1.64,3.21-.08Z"/>
        <path class="cls-163" d="M53.05,50.72c-.73-3.56,3.24-2.74,4.83-1.31,1.59,1.08,1.04,2.01-.94,2.08-.14.25-.09.73-.1,1.02l-2.52.95c-.25-.95-.91-1.83-1.27-2.74Z"/>
        <path class="cls-74" d="M57.87,49.4c-1.05-.54-1.02-1.15.07-1.84-1.7-1.15-.75-1.51.93-2.09.61.5.89,1.22,1.07,1.96.47,1.93.1,3.46-.82,5.03-.39-.84-1.35-.99-2.18-.98.38-.67.66-1.37.94-2.08Z"/>
        <path class="cls-179" d="M36.78,43.24c1.97-.64,2.46.34,1.07,1.87.93.33,1.56,1.03,1.07,2.05.88.25.88.59.03,1-.5.05-.99-.07-1.47.06-.4.1-.64.55-.49,1.02-.22-.32-.7-.76-1.04-.97.07-1.66-.87-4.02.82-5.03Z"/>
        <path class="cls-147" d="M41.99,49.06c-1.65-.65-1.72-1.13-.15-2.14-1.92-1.34-.85-2.63,1.23-1.95-.03-1.19.79-2.2,2.44-3.03.05-.95.39-1.02,1.01-.27.51-2.29,1.78-2.17,2.21.14,1.43.51,2.15,1.82,2.14,3.93,1.22-1.08,3.34-1.03,3.93.77,1.39-.05,2.44.3,3.13,1.05.21.17.47.4.55.63.19.58-.47.85-.62,1.21-1.57-.82-3.17.98-4.83,1.31-1.51,1.3-2.63,1.5-3.87-.38-2.39-.71-3.95,1.7-6.39,1.7-.11-.7-.36-1.35-.63-2-.13-.3-.07-.67-.17-.98Z"/>
        <path class="cls-37" d="M38.95,48.17l-.03-1c-.4-1.88,2.5-2.24,2.92-.24.19.68.94,1.52.15,2.14-.69.08-1.51.74-2.44.62-.44-.06-.53-1.11-.59-1.52Z"/>
        <path class="cls-1" d="M53.05,50.72c-1.03.21-.71,1.68-1.28,3.04-.95-.89-1.66-1.81-2.81-2.18l.23-1.23c1.09.32,3.11-1.56,3.87.38Z"/>
        <path class="cls-79" d="M36.78,43.24l-.14-4c.25-.88.59-.88,1-.03.62.79.97,1.11,1.03.96,1.16-1.3,2.49-.68,3.98,1.86,2.33.48,1.67,2.35-.69,1.7.58,2-2.97,3.01-4.12,1.38-.28-.51-1.04-1.16-1.07-1.87Z"/>
        <path class="cls-91" d="M36.64,36.29c.81-.81.79-1.99.64-3.06.36.22.94.15,1.12.57.22.52.11,1.01.18,1.42,2.07-.38,2.5,1.21,1.18,2.8-.31.92-1.23,1.57-2.11,1.19l-1,.03c-.02-.58-.48-1.01-1.04-1.08l1.03-1.87Z"/>
        <path class="cls-42" d="M56.75,13.72c-.05-2.69,1.13-2.62,2.37-.23,1.07-1.48,1.46-3.59,1.18-6.35l.23-2.75c-.93-1.81.39-2,1.96-1.08,1.93.82,2.8,2.84,3.2,4.81.5,1.91,1.12,4.55.03,6.1,0,1.08-.71,1.82-1.07,2.72-3.63,1.37-5.84.96-6.64-1.23-2.47,1.87-3.73-.02-1.26-1.99Z"/>
        <path class="cls-87" d="M59.43,1.52c1.1.47,2.34.71,3.07,1.79-.77-.02-1.36.86-1.96,1.08-.56,2-1.92,2.48-3.91,2.16-.22.89-.55.9-.98.07-.88.02-.96-.29-.29-.9.88-1.89,1.76-4.16,4.07-4.21Z"/>
        <path class="cls-17" d="M65.69,8.13c1.44,1.65.96,3.97,1.23,6.02l-1.19.08-.03-6.1Z"/>
        <path class="cls-123" d="M44.9,17.94l.04,1.14c-.97,2.37-3.82,3.93-4,.03-.57-.37-1-.74-1-1.11,0-.8,2.7,1.44-2.17.05-.27-.08-.44-.52-.58-1.07.91-1.61,2.91-2.43,4.89-1.08,1.09.74,1.87,1.62,2.82,2.05Z"/>
        <path class="cls-100" d="M33.91,18.32c.83-.54,2.71-.33,3.28-1.35.79.49,1.38,1.22,1.75,2.17,1.51,1.43-1,2.86-1.96,1.07-1.4.68-3.36,1.35-4.46,0-.21-.27-.39-.54-.57-.83.88.01,1.33-.66,1.96-1.07Z"/>
        <path class="cls-8" d="M52.55,10.62c1.54-2.2,2.1-1.86,2.09.78l-.05,2.55c-2.23.55-4.4,1.23-6.5,2.03-.31.79-.61.7-.89-.16-.75-.13-.82-.48-.26-1.03-.21-.82-.54-1.62-1.21-2.17,1.49-2.09,4.39-2.29,6.82-2Z"/>
        <path class="cls-128" d="M54.18,6.03l1.17-.29c.02.3.31.6.29.9,1.73.65,1.96,2.43-.1,2.77,2.25,1.45,1.72,2.13-.9,1.99-.79,0-1.41-.7-2.09-.78.36-1.59,1.06-3.07,1.63-4.59Z"/>
        <path class="cls-143" d="M29.11,22.5c1.2-.32,2.36-.8,3.42-1.44l4.44-.85c.77-.11,1.53-.4,1.96-1.07-.16-1.64,1.3-1.47,2-.04,1.35.45,2.81,1,4-.03.22-.19.72-.04.99-.18.87-.16.72,1.5.06,2.1.2,1.05-.13,1.75-.79,1.4-2.81-1.48.19-1.18.67-.3.3.55-.11,1.21-.63,1.72l-.34,1.37c-3.43-.75-6.73-1.39-9.89-1.92.84,3.01-1.9,4.2-3.87,1.94-2.94.95-4.76-.53-2.04-2.72Z"/>
        <path class="cls-108" d="M45.93,18.91c-.04-1.45-.59-3.39,1.01-4.11l.26,1.03c2.23,1.73,2.37,3.82-.25,5.21-.3.86-.62.84-.96-.03l-.06-2.1Z"/>
        <path class="cls-190" d="M28.22,20.37c.83.41.84,1.32.89,2.13.09,1.23.98,2.16,2.04,2.72-.96.21-1.77,1.55-2.96,1.31-.31.89-.66.86-1.05-.02-.47-.19-1.01-.44-1.42-.75-.33-.25-.18-.99-.42-1.36,1.99-.44,3.28-1.98,2.91-4.03Z"/>
        <path class="cls-45" d="M32.51,20.23h4.46c-1.16,1.3-3.06,2.23-4.44.84l-.02-.84Z"/>
        <path class="cls-121" d="M31.22,27.42c.22-.88.55-.87,1-.03,2.21,1.29,4.85,1.87,7.93,1.75l.3,1.04c2,.52,4.36,1.75,4.81,3.77,3.08,1.75.86,8.21-2.71,7.03-2.45-.4-2.25-1.91.06-2.78-1.23-.53-3.36-2.23-1.5-3.92-1.41-2.25-1.25-2.12.37-.07-2.47-3.13-6.63-3.36-10.19-4.78l-.07-2Z"/>
        <path class="cls-79" d="M38.57,35.22c.92-.48,1.91-.79,2.91-1.02-5.88-7.47,8.31,11.82,1.13,3.99-.16,2.56-1.19,2.55-2.8.7-.89-.13-.89-.42-.06-.88-.57-.84-1.01-1.79-1.18-2.8Z"/>
        <path class="cls-137" d="M27.14,26.51c.3.12.73-.05,1.05.02.38.5,1.22.69,1.59,1.03.75.71-.28,1.18-.58,1.55-.4.49-1.76.52-2.16.16.14-.89-.1-1.87.1-2.76Z"/>
        <path class="cls-188" d="M31.15,25.22c1.46-.32,2.94-.58,3.87-1.94,1.55-.22,1.89.09,1.74,1.7,1.57,1.85.85,3.04-1.5,3.31-.94.52-1.96.22-3.03-.89-.32.07-.67,0-1,.03l-.08-2.21Z"/>
        <path class="cls-144" d="M59.64,35.3c.62-.03,1.26.03,1.88.04-.18.71-.4,1.42-.72,2.09l-3.21.08c-1.55.61-2.48-1-1.09-2.1.91-2.69,2.03-2.73,3.13-.11Z"/>
        <path class="cls-117" d="M57.87,41.57c-.14-1.09.2-1.47,1.01-1.15.7,0,1.38.19,1.93.63-.11,1.4-.55,2.92-1.98,3.42-1.95.66-2.28-.35-.94-1.97-.91-.22-.9-.53-.02-.92Z"/>
        <path class="cls-16" d="M56.04,42.83c-.33-2.65.63-2.68,1.86-.33.25.68.61,1.33.94,1.97l.03,1c-.81,1.32-2.69,2.02-3,.1-1.22-.14-1.48-2.62.16-2.75Z"/>
        <path class="cls-20" d="M54.32,35.54c.1-.92.47-.97,1.09-.22.34-.88.71-.82,1.09.09l1.09,2.1c.61.89,1.04,1.87,1.29,2.92-.22.47-.54.9-1.01,1.15-1.32-.12-2.3-1.34-2.93-3.67-2.79.36-3-1.01-.62-2.37Z"/>
        <path class="cls-48" d="M54.81,46.52c.02-1.41.38-1.72,1.06-.94l3-.1c0,.82-.64,1.39-.93,2.09-.73.06-1.57.77-2.45.57-.53-.12-.57-1.22-.68-1.61Z"/>
        <path class="cls-85" d="M37.85,45.11l4.12-1.38c1.58-1.95,3.31-.33,1.1,1.24-.54.23-1.33,1.37-1.23,1.95l-2.92.24c-.44-.01-1.25.06-1.61-.44s.74-1.26.54-1.61Z"/>
        <path class="cls-116" d="M45.26,33.95c-.26-.96.06-1.22.95-.78,3.24-.19,4.34,1.84,2.38,4.65-.35,1.8-1.04,3.08-2.07,3.86-.33-.02-.69.21-1.01.27-.89,1.98-2.01,2.11-2.86.09-.92-.17-.93-.53-.11-1.06,2.79-1.23,3.29-4.2,2.71-7.03Z"/>
        <path class="cls-86" d="M48.74,41.82c.39-1.14.99-2.3,2.17-1.74-.19-1.92.56-1.99,1.4-.18,2.04,1.17.51,3.48-.97,4.85.51.64.35.98-.47,1-1.78-.73-2.01-2.06-2.14-3.93Z"/>
        <path class="cls-97" d="M42.66,42.03c.94.14,1.92.07,2.86-.09.1.63.16,1.32-.19,2.02-.39.77-1.5.69-2.25,1.01-.1-.63-.02-1.83-1.1-1.24.63-.21.73-1.16.69-1.7Z"/>
        <path class="cls-89" d="M51.34,44.75c.82-2.23,1.62-2.61,2.4-1.16,1.77-.09,1.8,1.51,1.07,2.93-1.54.52-2.69-.26-3.93-.77.03-.38.18-.74.47-1Z"/>
        <path class="cls-56" d="M48.6,37.82c1.81.05,1.64,3.06.14,4l-2.21-.14c-.19-1.62.47-3.28,2.07-3.86Z"/>
        <path class="cls-124" d="M39.82,38.9c.82-.56,1.81-.73,2.8-.7-.13.89-.02,1.88-.06,2.78-.02.35.08.71.11,1.06-.85-.12-2.06,1.17-2.69.47-.49-.54.36-2.31-1.29-2.33-.26-1,.12-1.43,1.14-1.27Z"/>
        <path class="cls-55" d="M37.64,39.21c.58-.59,1.32-.96,2.11-1.19l.06.88c-.43.38-.81.81-1.14,1.27-.11.68.06,1.45-.59,2.11-.73-1.41-.3-2.25-.44-3.08Z"/>
        <path class="cls-103" d="M58.02,15.72c2.05,1.22,5.14-1.5,6.64,1.23-1.07,2.72-4.48,1.8-6.77,3.35-.44.18-1.37-.13-1.88-.1-1.65-2.15-.63-4.21,2.01-4.48Z"/>
        <path class="cls-76" d="M54.64,11.4c2.67-2.27,4.51-.13,2.11,2.33.13.79.56,1.57,1.26,1.99-.03,1.72-1.2,3.03-2.01,4.48-.29,2.09-1.8,2.32-2.73.31-1.93.31-1.98-.49-.08-1.24-1-1.1-1.93-1.77-3.3-2.4-1.24,2.4-2.15,1.8-1.8-.89,1.14-2.73,4.52-2.54,6.55-4.58Z"/>
        <path class="cls-176" d="M60.54,4.4c.86.96,1.79,1.78,3.08,2.55-7.47,4.85,3.93,8.12-4.49,6.55-1.9-1.37-2.13-3.07-.55-4.83-1.69.38-2.59-.41-1.95-2.1.72-2.16,1.78-2.38,3.91-2.16Z"/>
        <path class="cls-174" d="M55.54,9.4c.26-1.93,1.67-1.94,3.03-.74,1.11,1.35,1.38,3.27.55,4.83-.75-.14-1.6.31-2.37.23-.17-1.05-.9-2.32-2.11-2.33.04-.75.72-1.32.9-1.99Z"/>
        <path class="cls-185" d="M55.64,6.63l.98-.07c.91.42,1.58,1.17,1.95,2.1-.92.52-1.98.68-3.03.74.24-.88.03-1.88.1-2.77Z"/>
        <path class="cls-81" d="M37.19,16.98c1.35-.29,2.71.35,4.74.17-.36.99-.88,1.31-.99,1.96-.57-.14-1.4.03-2,.04-.74,0-1.81.29-2.01-.46-.16-.57-.1-1.59.26-1.71Z"/>
        <path class="cls-82" d="M47.21,15.82c.24.11.71-.02.89.16.46.51,1.31.53,1.8.89,1.48-.51,2.58.29,3.3,2.4l.08,1.24c.31,2.49-.46,2.92-2.44,1.43-2.15,2.73-4.37,2.57-3.88-.91-.03-1.74.05-3.48.25-5.21Z"/>
        <path class="cls-155" d="M45.24,23.82c2.31-2.07,4.99.56,2.99,2.88,1.44,1.43.86,2.03-.99,1.07l-1.23.84c-2.36-1.38-4.98-2.57-7.87-3.57-.51.81-.97.79-1.39-.08-1.03.13-1.59-.78-1.74-1.7,1.63-.3,3.21-.57,4.67-1.88,1.48,2.23,3.5,2.68,5.56,2.43Z"/>
        <path class="cls-70" d="M45.99,21l.96.03c.96,1.21,2.47,1.39,3.88.91.81,1.04.93,2.27.33,3.71.3.57.02,1.45.35,1.98l-.23,1.09c-.25.88-.59.88-1,.03-1.27,1.32-2.61-.73-2.05-2.05-.31-1.65-1.74-2.2-2.99-2.88-.71-.38-.91-2.25-2.33-2.33,1.4-.9,2.28-.28,3.08-.49Z"/>
        <path class="cls-151" d="M43.25,29.92c3.01.35,4,1.43,2.96,3.25-.37.18-.63.53-.95.78-1.72-1.11-3.87-1.86-4.81-3.77.81-1.68,1.85-1.91,2.79-.26Z"/>
        <path class="cls-109" d="M35.26,28.28c.81-2.51,3.8-1.99,5.17-.04,2.57.23,2.49,1.2.03,1.93-2.98-1.87-7.47.41-8.23-2.79,1.06-.23,2.08.9,3.03.89Z"/>
        <path class="cls-136" d="M36.76,24.98c.45-.06.93.09,1.39.08,3.64.91,4.4,1.98,2.28,3.19l-5.17.04c.04-1.27.39-2.58,1.5-3.31Z"/>
        <path class="cls-157" d="M50.84,21.94c.6-.73,1.6-1.08,2.44-1.43s1.82-.26,2.73-.31c.66,3.16-2.29,4.36-4.84,5.45-.64-.42-1.95-.95-1.59-1.9.24-.64.84-1.3,1.26-1.81Z"/>
        <path class="cls-29" d="M54.96,39.6c-2.7-.21-2.5-.83-.02-1.7,1.97-.02,2.62,1.96,2.93,3.67.05.29-.08.65.02.92l-1.86.33c-1.16,1.09-1.74.2-1.3-1.22-1.96-.15-1.7-1.86.23-2.01Z"/>
        <path class="cls-101" d="M54.73,41.61c.48.17,1.34.65,1.3,1.22l-.16,2.75c-.04.71-.31,1.21-1.06.94-.29-1-.51-2.04-1.07-2.93-1.54-1.02-.84-2.63.99-1.98Z"/>
        <path class="cls-172" d="M48.13,31.77c1.97-1.51,2.56-1.26,3.04,1.19,1.39.35,2.97,1.17,3.15,2.58l.62,2.37.02,1.7c-.69,1.64-1.57,1.73-2.65.29l-1.4.18c-1.36.41-1.51-2.73-1.15-3.28s.91,1.96-1.16,1.03c-.45-1.67-1.48-3.22-2.38-4.65-1.15-2.06.03-2.87,1.91-1.41Z"/>
        <path class="cls-189" d="M51.17,32.96c-.74-1.47.03-1.54,2.28-.23,1,.58,1.72,1.44,1.96,2.59-.37.02-.72.18-1.09.22-1.52-.06-2.72-1.15-3.15-2.58Z"/>
        <path class="cls-125" d="M52.31,39.9c.48-1.19,1.75-.86,2.65-.29l-.23,2.01-.99,1.98-2.4,1.16c.15-1.65.54-3.25.97-4.85Z"/>
        <path class="cls-40" d="M48.6,37.82c.69-.25.69-.98,1.47-2.08.96,1.3.45,2.92.84,4.34-.11,1.15-1.06,1.81-2.17,1.74-.09-1.25.19-2.8-.14-4Z"/>
        <path class="cls-52" d="M49.9,16.87l1.85-1.26c.83-.56,1.66.25,1.8.83.22.92.22,2.16-.35,2.83-.87.11-2.14.24-2.53-.64l-.77-1.75Z"/>
        <path class="cls-19" d="M47.25,27.78c1.19-.36,2.31,1.17,1.07,2.05-.61,2.07-2.9,2.03-4-.01-1.33-.63-2.63-1.16-3.89-1.57-.02-1.37-1.22-2.38-2.28-3.19,3.27-.07,6.29,1.11,9.1,2.73Z"/>
        <path class="cls-94" d="M48.23,26.71c.16.85,1.63,1.35,2.05,2.05,1.48,2.61.77,4.12-2.15,3.01-2.61-.57-2.41-1.45.19-1.94l-1.07-2.05c.41-.28.74-.65.99-1.07Z"/>
        <path class="cls-35" d="M50.28,28.76l1-.03c-.36,1.67.73,3.17,2.17,4.01l-2.28.23c-1.15.04-2.38-.18-3.04-1.19,1.43-.35,2.25-1.49,2.15-3.01Z"/>
        <path class="cls-71" d="M40.43,28.25l2.48-.92c1.36-.5,1.45,1.27,1.41,2.49-.32.44-.67.47-1.07.1-.93.06-1.86.15-2.79.26l-.03-1.93Z"/>
        <path class="cls-107" d="M44.32,29.82h4s-.19,1.95-.19,1.95c-.72.18-1.26,1.09-1.91,1.41-.79-1.25-1.92-2.21-2.96-3.25.35-.02.71-.1,1.07-.1Z"/>
      </g>
    </g>
  </g>
</svg>