<?xml version="1.0" encoding="UTF-8"?>
<svg id="Enemy" xmlns="http://www.w3.org/2000/svg" viewBox="0 0 86.88 143.15">
  <defs>
    <style>
      .cls-1 {
        fill: #feaf97;
      }

      .cls-2 {
        fill: #525252;
      }

      .cls-3 {
        fill: #181818;
      }

      .cls-4 {
        fill: #331611;
      }

      .cls-5 {
        fill: #fec5a3;
      }

      .cls-6 {
        fill: #111;
      }

      .cls-7 {
        fill: #585858;
      }

      .cls-8 {
        fill: #896157;
      }

      .cls-9 {
        fill: #5a5a5a;
      }

      .cls-10 {
        fill: #2e2e2d;
      }

      .cls-11 {
        fill: #44250d;
      }

      .cls-12 {
        fill: #6e423a;
      }

      .cls-13 {
        fill: #f7ad92;
      }

      .cls-14 {
        fill: #434343;
      }

      .cls-15 {
        fill: #f4a18a;
      }

      .cls-16 {
        fill: #b57461;
      }

      .cls-17 {
        fill: #29201a;
      }

      .cls-18 {
        fill: #633724;
      }

      .cls-19 {
        fill: #d68f83;
      }

      .cls-20 {
        fill: #955c51;
      }

      .cls-21 {
        fill: #2c2c2c;
      }

      .cls-22 {
        fill: #141414;
      }

      .cls-23 {
        fill: #a46f5f;
      }

      .cls-24 {
        fill: #242322;
      }

      .cls-25 {
        fill: #2a2a2a;
      }

      .cls-26 {
        fill: #341d0a;
      }

      .cls-27 {
        fill: #efaf9b;
      }

      .cls-28 {
        fill: #855f58;
      }

      .cls-29 {
        fill: #cb8c7f;
      }

      .cls-30 {
        fill: #ca826e;
      }

      .cls-31 {
        fill: #794940;
      }

      .cls-32 {
        fill: #251f1e;
      }

      .cls-33 {
        fill: #bf7158;
      }

      .cls-34 {
        fill: #3e3e3e;
      }

      .cls-35 {
        fill: #5e3d34;
      }

      .cls-36 {
        fill: #505050;
      }

      .cls-37 {
        fill: #dd9483;
      }

      .cls-38 {
        fill: #272727;
      }

      .cls-39 {
        fill: #966251;
      }

      .cls-40 {
        fill: #79402b;
      }

      .cls-41 {
        fill: #494949;
      }

      .cls-42 {
        fill: #2c1007;
      }

      .cls-43 {
        fill: #c78677;
      }

      .cls-44 {
        fill: #4d4d4d;
      }

      .cls-45 {
        fill: #7d4032;
      }

      .cls-46 {
        fill: #bc7360;
      }

      .cls-47 {
        fill: #2d2d2d;
      }

      .cls-48 {
        fill: #a35b4d;
      }

      .cls-49 {
        fill: #5e5e5e;
      }

      .cls-50 {
        fill: #1e1e1e;
      }

      .cls-51 {
        fill: #131313;
      }

      .cls-52 {
        fill: #fecfb0;
      }

      .cls-53 {
        fill: #3c3c3c;
      }

      .cls-54 {
        fill: #906055;
      }

      .cls-55 {
        fill: #fec2b3;
      }

      .cls-56 {
        fill: #f9cdb7;
      }

      .cls-57 {
        fill: #e48f79;
      }

      .cls-58 {
        fill: #050403;
      }

      .cls-59 {
        fill: #7b5344;
      }

      .cls-60 {
        fill: #0c0807;
      }

      .cls-61 {
        fill: #fab599;
      }

      .cls-62 {
        fill: #32312f;
      }

      .cls-63 {
        fill: #252426;
      }

      .cls-64 {
        fill: #303030;
      }

      .cls-65 {
        fill: #9c6352;
      }

      .cls-66 {
        fill: #975d4e;
      }

      .cls-67 {
        fill: #414145;
      }

      .cls-68 {
        fill: #310b02;
      }

      .cls-69 {
        fill: #df9a83;
      }

      .cls-70 {
        fill: #6f4738;
      }

      .cls-71 {
        fill: #edaa9d;
      }

      .cls-72 {
        fill: #6a6a6a;
      }

      .cls-73 {
        fill: #5e3920;
      }

      .cls-74 {
        fill: #bc7a64;
      }

      .cls-75 {
        fill: #171717;
      }

      .cls-76 {
        fill: #dd947f;
      }

      .cls-77 {
        fill: #404040;
      }

      .cls-78 {
        fill: #cf8672;
      }

      .cls-79 {
        fill: #df9282;
      }

      .cls-80 {
        fill: #f4b79e;
      }

      .cls-81 {
        fill: #f6a891;
      }

      .cls-82 {
        fill: #e8a18d;
      }

      .cls-83 {
        fill: #1f1f1f;
      }

      .cls-84 {
        fill: #363636;
      }

      .cls-85 {
        fill: #a25d4e;
      }

      .cls-86 {
        fill: #fecfb9;
      }

      .cls-87 {
        fill: #30231a;
      }

      .cls-88 {
        fill: #7b4f2e;
      }

      .cls-89 {
        fill: #edad9d;
      }

      .cls-90 {
        fill: #f5a990;
      }

      .cls-91 {
        fill: #9d7162;
      }

      .cls-92 {
        fill: #454545;
      }

      .cls-93 {
        fill: #362018;
      }

      .cls-94 {
        fill: #a66e63;
      }

      .cls-95 {
        fill: #9d6e64;
      }

      .cls-96 {
        fill: #373737;
      }

      .cls-97 {
        fill: #743f31;
      }

      .cls-98 {
        fill: #202020;
      }

      .cls-99 {
        fill: #686868;
      }

      .cls-100 {
        fill: #bc7969;
      }

      .cls-101 {
        fill: #eeab99;
      }

      .cls-102 {
        fill: #0c0c05;
      }

      .cls-103 {
        fill: #826156;
      }

      .cls-104 {
        fill: #555;
      }

      .cls-105 {
        fill: #d38976;
      }

      .cls-106 {
        fill: #88503d;
      }

      .cls-107 {
        fill: #f3aea0;
      }

      .cls-108 {
        fill: #3e1105;
      }

      .cls-109 {
        fill: #8f5747;
      }

      .cls-110 {
        fill: #af6b59;
      }

      .cls-111 {
        fill: #46312b;
      }

      .cls-112 {
        fill: #d69d8f;
      }

      .cls-113 {
        fill: #2b2b2b;
      }

      .cls-114 {
        fill: #230b01;
      }

      .cls-115 {
        fill: #573313;
      }

      .cls-116 {
        fill: #7d4737;
      }

      .cls-117 {
        fill: #ce8776;
      }

      .cls-118 {
        fill: #b17461;
      }

      .cls-119 {
        fill: #664238;
      }

      .cls-120 {
        fill: #333;
      }

      .cls-121 {
        fill: #b77566;
      }

      .cls-122 {
        fill: #624034;
      }

      .cls-123 {
        fill: #cf8470;
      }

      .cls-124 {
        fill: #f6a394;
      }

      .cls-125 {
        fill: #c07f6d;
      }

      .cls-126 {
        fill: #a45f4a;
      }

      .cls-127 {
        fill: #a56e66;
      }

      .cls-128 {
        fill: #412722;
      }

      .cls-129 {
        fill: #94675d;
      }

      .cls-130 {
        fill: #1a1914;
      }

      .cls-131 {
        fill: #1b1b1b;
      }

      .cls-132 {
        fill: #76593d;
      }

      .cls-133 {
        fill: #a87063;
      }

      .cls-134 {
        fill: #ea9b84;
      }

      .cls-135 {
        fill: #232323;
      }

      .cls-136 {
        fill: #fcc0ac;
      }

      .cls-137 {
        fill: #f0a792;
      }

      .cls-138 {
        fill: #212122;
      }

      .cls-139 {
        fill: #343435;
      }

      .cls-140 {
        fill: #484848;
      }

      .cls-141 {
        fill: #2d2b27;
      }

      .cls-142 {
        fill: #464646;
      }

      .cls-143 {
        fill: #9f6153;
      }

      .cls-144 {
        fill: #83635c;
      }

      .cls-145 {
        fill: #bc7763;
      }

      .cls-146 {
        fill: #323033;
      }

      .cls-147 {
        fill: #da8c79;
      }

      .cls-148 {
        fill: #353535;
      }

      .cls-149 {
        fill: #9c675c;
      }

      .cls-150 {
        fill: #d59777;
      }

      .cls-151 {
        fill: #935a4b;
      }

      .cls-152 {
        fill: #8e6c61;
      }

      .cls-153 {
        fill: #393939;
      }

      .cls-154 {
        fill: #6b473d;
      }

      .cls-155 {
        fill: #b17164;
      }

      .cls-156 {
        fill: #1e0603;
      }

      .cls-157 {
        fill: #956259;
      }

      .cls-158 {
        fill: #352e24;
      }

      .cls-159 {
        fill: #292929;
      }

      .cls-160 {
        fill: #5b422d;
      }

      .cls-161 {
        fill: #282727;
      }

      .cls-162 {
        fill: #4b4b4b;
      }

      .cls-163 {
        fill: #f8b09b;
      }

      .cls-164 {
        fill: #151515;
      }

      .cls-165 {
        fill: #3f231f;
      }

      .cls-166 {
        fill: #ab7a6a;
      }

      .cls-167 {
        fill: #323235;
      }

      .cls-168 {
        fill: #a9786a;
      }

      .cls-169 {
        fill: #bb8578;
      }

      .cls-170 {
        fill: #070707;
      }

      .cls-171 {
        fill: #0d0c0d;
      }

      .cls-172 {
        fill: #ae7365;
      }

      .cls-173 {
        fill: #f49f89;
      }

      .cls-174 {
        fill: #dca895;
      }

      .cls-175 {
        fill: #412005;
      }

      .cls-176 {
        fill: #381d0a;
      }

      .cls-177 {
        fill: #85574c;
      }

      .cls-178 {
        fill: #e5ab96;
      }

      .cls-179 {
        fill: #b37867;
      }

      .cls-180 {
        fill: #290c06;
      }

      .cls-181 {
        fill: #252724;
      }

      .cls-182 {
        fill: #391306;
      }

      .cls-183 {
        fill: #323232;
      }

      .cls-184 {
        fill: #414141;
      }

      .cls-185 {
        fill: #d0a693;
      }

      .cls-186 {
        fill: #91655d;
      }

      .cls-187 {
        fill: #efa897;
      }

      .cls-188 {
        fill: #d99481;
      }

      .cls-189 {
        fill: #58382f;
      }

      .cls-190 {
        fill: #834936;
      }
    </style>
  </defs>
  <path class="cls-60" d="M59.06,12.01c4.76.32,4.96,5.77-.07,3.97.95,1.58-.39,1.5-2,1.23-.96,3.12-4.62,2.68-5.99-.02-.93.56-2.26-.18-4.01-2.21h-1l1.99-2.06c3.08-.05,6.82-.27,10.03-1.86.28.24,1,.54,1.05.95Z"/>
  <g>
    <path class="cls-6" d="M73.07,2.03c4.17,1.98,7.77,5.3,7.09,9.96.35.38.28.71-.17,1-.86,1.73-2.93,1.08-2.15-1.04-2.49-.42.68-2.82-.53-.88-.91,1.46-1.13,1.63-1.67-.08-1.23-.6-2.42-1.23-3.58-1.89-.29.88-.58.8-.86-.14-2.02-.2-4.08-.12-6.21.23-.49-.84-1.18-.9-2.07-.21,1.2.84.64,1.37-.82.98.29,2.79-.47,3.69-3.02,2.05-1.36,1.2-1.93.68-1.05-.95l1.32-2.25c.28-6.79,5.69-9.54,12.07-8.64,1.38.19,2.14.31,1.68,1.86Z"/>
    <path class="cls-32" d="M71.18,8.96c.34,1.39.27,2.81-.22,4.26.49.72.15,1.64-1.04,2.76.79.49.73.85-.17,1.08-.26.86-.54.82-.86-.07-1.74.33-3.65.01-5.72-.97.4,2.26-5.49,2.3-4.19-.04l3.08-.45c-1.62-.8-2.78-1.82-3-3.52.89-.84,1.94-1.48,3.02-2.05,1.55.43,1.82.1.82-.98-2.2-3.21,11.88-1.16,7.58-2.95,1.02.42.73,2.03.7,2.92Z"/>
    <path class="cls-32" d="M77.83,11.94c2.54,3.57-3.92,2.94-4.79-.24-2.18,1.68-3.51-1.34-.99-2.6.59-.72,1.58-1.1,2.33-.89,1.18.34,1.22,1.43,2.08,2.82.99-.88-.1-2.31,1.15-3.13.96,1.69.15,2.89.23,4.04Z"/>
    <path class="cls-141" d="M73.04,11.7c-.38.85-1.09,1.58-2.07,1.52-.69-.59-2.11-1.4-1.71-2.55.27-.77,1.47-1.12,1.92-1.71.28.08.57.13.86.14.05.85-.34,2.7.99,2.6Z"/>
    <path class="cls-146" d="M62.08,9.97c.3-.16.66-.71.82-.98,1.83-.37,2.62.52.81,1.72-1.15,1.78-2.19,1.06-1.63-.75Z"/>
    <path class="cls-156" d="M63.17,16.03c6.65.63.86,3.79-3.27,2.21-1.13.35-2.03-.82-2.92-1.02.63-.47,1.27-1.12,2-1.23.06,1.2,1.54,1.07,2.48,1.05.67-.02,1.34-.34,1.71-1.01Z"/>
    <path class="cls-62" d="M68.9,16.99c-.32.38-.66.74-1.02,1.08-1.08,2.46-2.62,2.84-4.62,1.14-.33,2.73-1.39,2.52-2.22-.08l-1.14-.89,5.14-.38c-.39-1.14-1.24-1.37-1.87-1.84-.51-2.05.45-3.99,2.68-5.09.68,2.16-1.16,2.33-2.15,4.03,2.37.62,4,.74,5.2,2.02Z"/>
    <g>
      <path class="cls-131" d="M16.03,139.95c.84-2,2.67-.91,2.06,1.06,1.23-.76,2.37-1.61,3.41-2.55l1.69,1.67c1.66.88,1.27,1.58-.5,2.08-2.28,1.24-5.12,1.05-7.76.62-1.55-.25-2.95-2.03-4.13-2.89.23-2.66,1.98-2.65,5.24.02Z"/>
      <path class="cls-113" d="M7.17,127.01c.31-.82.62-.73.92.16,3,.1,3.63,2.03,1.89,5.81-.53,1.06-1.19.4-2-2,.17,1.94-.6,1.93-1.15,0-.61,0-1.28.05-1.88-.04-.83-.13-.92-1.4-1.47-1.75-1.3-.93-2.35-2.4-.49-3.2-.3-1.33-.23-1.7,1-1,.28-.87.62-.86,1,0,.91.06,1.64.74,2.19,2.03Z"/>
      <path class="cls-153" d="M11.54,132.73c2.09.68,3.35,2.78,3.8,6.31,1.01-.29,1.24.01.7.91-1.73-.37-3.5-.25-5.24-.02.01-.28-.09-.58-.05-.86-.87-1.67-1.83-4.67-.75-6.1-.1-1.94.68-2.03,1.55-.25Z"/>
      <path class="cls-6" d="M9.99,132.98c.62,1.91,1.02,4.03.75,6.1-.8-.26-1.61-1.21-1.75-2.1-1-1.72-2.03-4.33-1-6l2,2Z"/>
      <path class="cls-153" d="M8.99,136.98c-1.98-1.27-2.17-3.81-2.15-6.01h1.15s1,6.01,1,6.01Z"/>
      <path class="cls-153" d="M19.11,128.98c.74.79-.24,3.03.74,3.92s2.39,1.18,3.61,1.54c.5.3.64.55,0,.69-.02.79-.87,1.01-2.54.65-.29,1.82-2.13,1.9-3.66,1.64.37,1.9-.38,2.03-1.38.31-3.37-1.85-2.63-6.37-.08-8.84-2.13-1.04-2.03-2.32.31-3.84-1.96-1.59-.04-3.4,1.89-2.07,1,.12,1.19,1.22.56,3.29l.56,2.71Z"/>
      <path class="cls-51" d="M22.69,142.21c.12-.7.28-1.4.5-2.08-.7-1.94-.55-2.93,1.78-3.24,1.28.82,2.18,2.27,1.85,3.65-.52,2.22-3.01,1.05-4.13,1.66Z"/>
      <path class="cls-64" d="M23.45,135.13c1.02.12.99,1.24,1.51,1.76-1.26,2.79-4.44,2.04-4.06-1.11.88-.39,1.49-.78,2.54-.65Z"/>
      <path class="cls-102" d="M25.96,60.8c1.15,2.29-.08,3.1-1.98,1.18-1.09.84-1.44.31-1.03-1v-1c.54-.53,1-1.19,1.15-1.95,1.14.53,1.38,1.74,1.86,2.77Z"/>
      <path class="cls-77" d="M15.51,111.12c2-.02,2.2.87.64,2.08,2.02.2,2,1.06.05,1.68-2.55,2.11-5.04,3.07-7.47,2.88-1.27,2.46-2.24,2.49-2.91.1-.45-.18-.39-.43.06-.73,2.37-2.76,5.21-5.17,8.4-7.1,1.41-1.12,2.02-.57,1.23,1.09Z"/>
      <path class="cls-159" d="M5.82,117.86c1.27.82.63,4.2-.78,5.02.86,1.09.84,1.79-.05,2.09h-1c-.96-.57-1.66-1.58-2.11-3.02-.78.7-1.02.38-.72-.95,1.35-1.7,2.98-2.76,4.72-3.87l-.06.73Z"/>
      <path class="cls-131" d="M1.88,121.96c1.03,1.36,1.4,2.7,1.11,4.02.46.96.29,2.19.49,3.2-.75-.47-1.79-.56-2.47-1.17-1.1-2.98-1.62-4.76.16-7,.55-.12.71.51.72.95Z"/>
      <path class="cls-3" d="M20.67,105.14c1.16,1.17-.08,4.26-1.97,3.05-.3,1.74-1.24,3.52-3.19,2.93-.33-.31-1.11-.5-1.23-1.09-.06-.3-.1-.65-.13-.96,2-1.21,3.33-3.36,5.66-4.04.29-.85.57-.8.85.1Z"/>
      <path class="cls-36" d="M20.91,135.78c1.34.39,2.56,1.36,4.06,1.11l-.22,2.33c-.04.45-.88.75-1.55.9-1.69.37-3.37.79-5.1.88l-.84-3.59c.31-.6.71-1.17,1.04-1.55.72-.81,2.02.18,2.62-.09Z"/>
      <path class="cls-72" d="M17.24,137.42c.87-.03,1.4.62,2.23,1.4,1.23,1.16-.68,1.19-1.39,2.19l-2.06-1.06c-.16-.34-.36-.72-.7-.91-1-1-.95-1.43.54-1.31l1.38-.31Z"/>
      <path class="cls-162" d="M11.79,123.71c1.01.81,1.79.99,2.32.53,1.22-1.34,2.04-1.02,1.99.8,1.47,1.18-.39,2.75-.31,3.84-.82,1.21-1.33-.17-1.29-.09,1.32,2.48-.03,4.89-2.96,3.94l-1.55.25-1.89-5.81c-.08-1.72.46-2.75,1.63-3.09-.4-2.87.98-3.09,2.06-.36Z"/>
      <path class="cls-49" d="M8.73,117.76c.9.24.91.59.09,1.07.51,1.64.81,3.39.91,5.24.06.75.03,1.64-.16,2.81-.08.5-.64.45-1.48.28-.29-.09-.64-.04-.92-.16l-2.14-4.12c-.18-1.72-.02-3.47.78-5.02.89-.39,2.05.21,2.91-.1Z"/>
      <path class="cls-183" d="M7.17,127.01c-.94-.41-1.81-1.06-2.19-2.03l.05-2.09c1.43.85,1.86,2.57,2.14,4.12Z"/>
      <path class="cls-183" d="M3.99,124.98c-.25.41-.61.73-1,1-.61-1.28-1.09-2.58-1.11-4.02,1.1.67,1.73,1.81,2.11,3.02Z"/>
      <path class="cls-104" d="M15.78,128.89c.23,2.97-.93,5.99.08,8.84l-.54,1.31c-2.26-1.32-2.94-3.96-3.8-6.31l-.45-.97c-.25-.54-.61-1.81.33-1.58.69.17,1.65,1.44,2.46.63.72-.72-.36-1.71-.44-2.37-.05-.38-.19-1.43.86-.87.52.28,1.14.79,1.49,1.32Z"/>
      <path class="cls-83" d="M25.99,118.98v1.02c-4.53-.27-7.57,4.69-6.88,8.98-1.55-1.67-1.27-3.79-1.12-6-1.27-2.24,5.68-6.71,7-5,.85-.41,1.15-.03,1,1Z"/>
      <path class="cls-153" d="M26.03,117.02c1,.97.33,1.36-1.04.96-2.72,1.03-4.82,3.12-7,5-.71.61-1.48,1.18-1.89,2.07-.71-.14-1.47-.26-1.99-.8-1.83.13-1.42-1.38,0-2.26,1.04-2.28,2.21-3.66,3.53-4.13l1.17,1.05c1-1.8,2.27-2.84,3.81-3.14-.83-.34-.77-.61.14-.83,1.07-.81,3.17.8,3.28,2.1Z"/>
      <path class="cls-22" d="M29.83,82.2c.85,1.77,1.19,3.44,1.02,5.03.87.2.81.47-.09.79-.38,1.88.24,3.55,1.66,4.85,4.39,1.87-1.26,4.97-2.41,2.09-.58-1.35-1.47-2.58-1.94-3.98-.53-1.58-.94-3.31-1.06-4.99-1.6-.29-1.59-3.27-.3-4.14-.1-1.32-1-1.91-1.54-2.93-1.4.04-1.47-1.9-1.29-3.2-.32-.28-.64-1.14-.83-1.54-.28-.55.08-1.55-.06-2.19l1-2c.49-.08.9-.1,1.07.09,2.01,2.35,5.56,8.9,4.77,12.12Z"/>
      <path class="cls-171" d="M23.99,61.98c3.11.34,1.51,6.27,0,8,0,.79-.08,1.8-1,2-.14-.65.1-1.34,0-2l-1-7c-.08-.64.97-1.34.97-2,.43.08,1.03.5,1.03,1Z"/>
      <path class="cls-138" d="M22.99,69.98c-1.99-1.57-.71-4.66-1-7,2.04,1.6.65,4.68,1,7Z"/>
      <path class="cls-10" d="M31.09,61.74c.66,2.65,5.69,4.64,7.9,2.25,1.23.16,2.53-.57,3.79-.07.81,2.77,1.35,4.17,3.41,5.95,2.27,1,2.66,7.68-.17,8.11-1.32,1.72-2.59,1.12-2.09-.99-1.2.51-2.67.79-2.92-.77l-.36-1.19c-5.44,4.28-6.48,1.6-5.96-3.97-3.75.15-5.6-1.75-7.73-4.34-1.82-.58-2.16-2.56-1.02-5.92,1.57.49,3.74-.1,5.13.94Z"/>
      <path class="cls-130" d="M47.08,63.87c-.13-2.01,1.53-2.06,1.98-.09.17-2.3,2.7-2.32,2.98.21,1.66,2.6,1.01,3.6-2.06,3.08,1.27,1.46.72,1.97-.92.88.7,2.25.29,2.88-1.99,2.04-4.23-1.97-5.29-3.57-3.18-4.79,1-.57,2.07-1.01,3.19-1.32Z"/>
      <path class="cls-167" d="M31.09,61.74c2.35,1.76,5.01,1.87,7.9,2.25.08,1.07.46,3.29-1.1,4.19l-8.78-5.36c.5-.84,1.39-.78,1.98-1.08Z"/>
      <path class="cls-181" d="M43.89,65.19c.49,4.66,1.11,0,3.18,4.79-.34.85-.63.8-.87-.11-1.85-.99-3.85-.87-6.29-1.72,1.79-1.53,3.23-2.42,2.88-4.23.55.22,1.05.72,1.11,1.27Z"/>
      <path class="cls-138" d="M26.98,66.73c.39,2.38,1.77,3.73,4.15,4.07,3.51,2.45,6.68,6.4,2.78,9.01,1.29,3.04,3.01,5.81,5.16,8.31-.25,4.78-7.69,1.54-6.06-1.9-2.11.79-3.19-2.1-3.18-4.01-3.6-3.06-3.6-8.2-5.84-12.21v-8l1.98-1.18c.47,1,1.52,1.23,2.91,2.14-2.87.68-1.37,2.92-1.89,3.78Z"/>
      <path class="cls-38" d="M27.92,97.06l.04,1.72c-.48,2.5-3.25,6.37-6.01,5.14.09,1.2-.18,1.92-1.28,1.22l-.85-.1c1.19-4.1,3.69-7.58,8.1-7.97Z"/>
      <path class="cls-162" d="M22.75,114.93c-.1.26-.06.56-.14.83-1.48.61-2.75,1.65-3.81,3.14-2.16.37-2.76,2.3-4.7,3.09-.35,1.73-1.29,2.66-2.26.91-2.54-1.35-1.64-2.63.95-3.19l.08-1.72c-.15-1.6,1.95-2.77,3.33-3.09-.08-.54.13-1.16-.05-1.68-.13-1.71,1.29-3.17,2.94-2.25,3-1.89,5.2,1.17,3.67,3.97Z"/>
      <path class="cls-92" d="M19.08,110.95c-.79.98-1.71,1.88-2.94,2.25-.23-.66-.37-1.44-.64-2.08.64-1.47,1.87-2.23,3.19-2.93,1.86.6,2.01,1.68.38,2.76Z"/>
      <path class="cls-92" d="M16.2,114.89c.31,2.12-1.84,2.35-3.33,3.09.19,2.79-3.27,4.15-4.05.86l-.09-1.07c8.39-3.07,2.49-5.43,7.47-2.88Z"/>
      <path class="cls-25" d="M25.18,108.76c.71-.35,1.6-.7,2.17-.29,2.21,1.59,5.68,1.43,8.63.55,1.3-.61,2.33-.27,2.01,1.17,1.83,2.61-6.04,5.47-8.84,5.92-.32.05-.73-.46-1.17-1.13-1.23,1.06-2.97,1.04-5.23-.06-1.36-1.24-1.8-3.27-3.67-3.97-.31-.89-.43-1.83-.38-2.76,1.03-.55,1.23-2.35,1.97-3.05l1.28-1.22,2.31.72c-.68,1.66-.37,3.03.93,4.12Z"/>
      <path class="cls-50" d="M65,132.79l-.09,1.01-8.05.12c0-.3.16-.64.13-.94-.43-1.37.57-1.71,3-1-.34-2.59,6.91-2.17,5.02.81Z"/>
      <path class="cls-104" d="M12.87,117.98c1.01-.77,3.11,1.59,2.4,2.18-1.31,1.08-3.77,1.1-3.42,2.73.9.2.86.47-.06.82-.73-.58-1.37.23-2.06.36-1.44.3-1.8-1.72-2.46-3-.47-.92.36-1.93,1.55-2.24,1.46.08,2.79-.22,4.05-.86Z"/>
      <path class="cls-153" d="M14.11,124.24l-.74.91c-.26.32-.77.87-.92.62-.5-.81-.6-1.64-.65-2.06-.02-.27.12-.56.06-.82l2.26-.91v2.26Z"/>
      <path class="cls-22" d="M46.04,107.19c1.54-1.01,2.11-.51,1.05,1.05,1.84,1.78-1.27,3.58-3.04,3.63-3.25-.85-5.45,1.42-8.4,2.76l-9.66,4.35c-.35-.32-.68-.65-1-1,.42-.16.65-.76,1.04-.96-1.03-1.06-.38-1.74,1.96-2.04,3.8-.77,8.12-1.13,10.01-4.79-.04-1.07.96-1.14,2.99-.21-.32-2.34,3.3-4.55,5.06-2.79Z"/>
      <path class="cls-164" d="M27.99,114.98c-.36.93-1.07,1.62-1.96,2.04-1.42-.14-2.3-1.2-3.28-2.1.17-.44-.05-1.04.65-2,1.19,1.4,2.81,2.41,4.58,2.05Z"/>
      <path class="cls-153" d="M22.61,115.75c-.44,1.43-2.23,2.87-3.81,3.14.2-.95.52-2,1.23-3.3.41-.75,1.54,0,2.58.16Z"/>
      <path class="cls-135" d="M78.98,131.06c1.33-1.65,3.39-1.06,5.11-.3,1.57-.27,1.52.97.92,2.29.88.17.86.44,0,.81-1.6-.3-3.4.14-5.03.13-1.35-.81-3.63-.83-4.97-.01-.32,0-.67.09-.98.03-1.99-.39-3.97-.87-5.99-1.15-2.92-.03-2.76-3.28.05-3.87-.55-3.98,3.58-2.71,5.67-.28,2.56.19,4.29.97,5.21,2.35Z"/>
      <path class="cls-21" d="M59.9,128.7c1.47-.41,3.21-.32,5.23.27-.84-1.48-.28-1.86,1.02-.83,1.06-1.82,1.99-1.32,1.96.85l-.05,3.87c-1-.14-2.04,0-3.05-.08-1.04-1.21-3.64-1.68-5.02-.81-3.4,1.58-2.93-1.54-1.78-3.89.85-1.9,1.73-1.53,1.69.61Z"/>
      <path class="cls-51" d="M79.98,134h-4.97c-1.25-1.33,5.86-1.57,4.97,0Z"/>
      <path class="cls-96" d="M40.16,77.14l3.78-.15c.67.38,1.37.72,2.09.99,1.84-.3,2.17.43.71,1.61.03,1.13-.35,1.6-1.5,1.17-1.11,1.04-2.59,1.71-4.44,2l.64,2.17c1.74,1.45,2.24,2.91,1.49,4.38-2.29,3.76-9.38,4.07-11.97-.48-.1-.26-.11-.55-.2-.82l.09-.79c-1.41-2.77.17-3.52,2.16-1.01,1.07,1.85,2.64,3.62,5.03,3.34-3.64-3.17-5.68-6.33-4.13-9.74.24-3.56,3.96-4.29,6.25-2.66Z"/>
      <path class="cls-113" d="M33.01,86.21c-.84,0-1.6.4-2.16,1.01-1.89-.87-2.05-3.42-1.02-5.03,1.23,1.04,2.38,2.62,3.18,4.01Z"/>
      <path class="cls-38" d="M52.95,76.17c.24,3.49.95,7.16,2.12,11.01l-1.35.93c-.47-.02-.87.32-1.3.42-1.23,0-2.31-.28-3.26-.84l-1.5-1.45c1.29-.84,1.62-1.58,1-2.21-2.24-.56-3.39-2.41-1.93-4.42-.22-.5-.69-1.04-.71-1.61-.06-2.73-.71-5.48.17-8.11.24.13.61.02.87.11.74-.6,1.3-1.39,1.99-2.04,2.03-.06,6.47,6.39,3.9,8.22Z"/>
      <path class="cls-161" d="M41.02,76.22c.36.91.07,1.21-.86.92-2.42.08-3.98,2.14-6.25,2.66,1.45-3.18-1.4-6.03-4.46-7.69-2.29-.84-1.79,1.34-2.77-.42-1.74-3.14-.52-3.61.31-4.97,4.22-2.17,2.08,4.25,9.35,1.49.75,2.98.19,5.23.07,8.23,3.01-2.25,5-3.69,7.95-2.61-1.27,1.55-2.75,1.21-3.33,2.38Z"/>
      <path class="cls-41" d="M43.94,76.99c-.61.57-1.32,1.52-2.49,1.68-.58.08-1.06-.94-1.29-1.54.21-.36.68-.56.86-.92,1.07-.29,2.28-.24,2.92.77Z"/>
      <path class="cls-139" d="M53.98,68.98c-.71.94.11,1.97,1.35,1.41,1.71-1.4,4-.76,5.6.49,1.8.69,3.41,2.09,4.84,4.2.8.06.77.41.07.99,1.92,1.22,1.75,2.65-.59,2.56-1.17,1.27-3.18,1.05-6.04-.65-1.76-1.03-3.51-1.35-5.27-.94-1.16,1.51-1.7.93-1-.88l-3.9-8.22.92-.88c2-2.15,5.13-1.01,4.01,1.92Z"/>
      <path class="cls-63" d="M55.92,64.04c.85-2.76,3-1.97,2.91.81,2.71-1.01,4.95,3.13,2.97,5.04,1.53,1.23.97,1.85-.87.99-1.37,1.56-4.06,1.01-5.6-.49-1.23.75-1.73.02-1.35-1.41-.97-1.24-2.55-1.54-4.01-1.92.9-.86,1.62-1.91,2.06-3.08-1.43-1.4-.83-2.03.99-1.17.89.91,1.45,1.05,2.9,1.22Z"/>
      <path class="cls-162" d="M37.73,97.96c1.24,3.2,2.55.14,4.13,4.02,3.17-.4,3.51,1.06,1.01,2.97.7,3.02-2.39,4.18-4.88,2.94.49,1.65-.56,1.48-2.01,1.12-3.71,1.52-8.11.49-10.84-1.08-3.15-2.99,4.38-9.74,8.16-8.88.46-1.5,3.74-3.13,4.43-1.09Z"/>
      <path class="cls-148" d="M37.73,97.96c-.72.03-1.44-.26-2.18-.51-.28,1.48-.24,3.06-1.12,3.46-1.09.5-2.53-.05-3.89-.5-2.1,3.6-5.71,6.51-5.4,7.53.86.05.84.33.04.82l-3.77.41c.41-2.32,1.45-3.8.53-5.25,1.86-1.77,3.16-4.82,6.01-5.14,1.91-.21,3.47-.46,4.51-2.67.82.85,1.2,1.42,1.68,1.38.45-.03.89-.32,1.35-.79.85-.86,1.61-.75,2.23-.09.25.26-.12,1.01,0,1.35Z"/>
      <path class="cls-131" d="M53.96,77.04c2.51.12,3.52,2.49,1.05,3.89,2.03.83,3.29,2.62,1.02,4.19,2.63-.47,4.42,8.59,3.63,9.84-1.06,1.69-5.34,3.68-4.4.06-1.54-.45-1.8-1.55-.79-3.29l-.29-2.35-.45-1.27c.49-2.48-.35-5.06-2.21-6.68,2.71-2.45-1.88-2.92,1.43-5.26l1,.88Z"/>
      <path class="cls-75" d="M52.43,88.53c-1.23.29-2.53.52-3.44,1.45-.22,1.22-2.71,1.43-3,0l-2.01.35-.19-.96c-.82-3.06,4.02-4.63,5.37-1.68,1.07-.08,2.05-.47,2.37-1.68.63,1.15,1.55,1.83.9,2.52Z"/>
      <path class="cls-113" d="M49.22,102.06c.86.34.86.68,0,1.01-1.4,1.51-4.42,3.42-6.35,1.88.05-1.12-.61-2.01-1.01-2.97,1.45,0,2.93-.24,4.12-1.11.69,1.07,2.03,1.27,3.24,1.19Z"/>
      <g>
        <path class="cls-113" d="M30.96,88.83c2.82,3.86,7.16,4.35,13.02,1.49.19-.93,1.45-1.24,2.01-.35,1.49,1.53,6.3.47,3,0-1.07-1.6,2.44-2.75,3.44-1.45.24-2.07.68-2.21,1.3-.42,1.82-.6,2.03.1.45,1.27,1.43,2.68-.22,6.35-3.19,4.6-1.41-.13-2.41,1.2-3,4,2.07,1.44.37,3.95-2,2.89.45,1.96-3.34,3.34-4.12,1.11-2.62.16-6.74-1.03-4.13-4.02-1.24-1.4-1.73-1.49-3.55,1.27-3.15.82-5.22.67-6.23-.45-1.93-.32-1.92-1.12-.04-1.72.9-.08,1.58-1.54,2.09-2.11.98-.23,2.16.38,2.97-.45-2.42-1.88-3.99-4.54-2.22-6.48.89-.15.92.15.2.82Z"/>
        <g>
          <path class="cls-131" d="M42.93,89.32c.21-.86.5-.81.87.06.91.1.96.43.19.96-1.1,3.18-9.98,2.51-10.77,2.06-1.03-.59-1.69-2.08-2.26-3.55,1.78-.52,2.77,2.53,4.13,2.85,2.8-.14,5.53-1.62,7.84-2.37Z"/>
          <path class="cls-38" d="M55.26,95.02c.33,2.33-1.4,3.3-5.19,2.93-.11.89-.4.89-.85.07-.85-1.47-.63-5,1.77-4.04,1.67-1.03,3.14-2.51,3.19-4.6,2.1,1.08,1.45,3.66,1.08,5.64Z"/>
          <path class="cls-92" d="M49.21,98.02l.85-.07c.89-.09.88.2.09.8,3.19.03,1.98,4.7-.94,3.31-1.12.75-4.74.98-3.24-1.19.6-.9,1.66-1.83,2-2.89.45-1.71.86-1.71,1.23.04Z"/>
          <path class="cls-113" d="M50.99,93.98c-1.31.81-1.08,2.84-1.77,4.04l-1.23-.04c.47-1.47-.87-3.89.62-5.02,1.33-.28,2.59.02,2.38,1.02Z"/>
          <path class="cls-153" d="M48.99,89.98c7.82-.97-7.75,4.87-3,0h3Z"/>
          <path class="cls-53" d="M45.97,95.56c-1.43.71-3.02.71-5.05.04,1.07-1.05,2.43-.93,5.05-.04Z"/>
        </g>
      </g>
      <path class="cls-84" d="M35.98,109.02c-1.12,1.66-8.24,2.88-8.97,2.41-.77-.49-1.21-1.81-1.83-2.67-.16-.22-.04-.57-.04-.82,1.4-.1,2.03-1.37,3.61-2.03,1.7,3.03,4.54,3.12,7.23,3.11Z"/>
      <path class="cls-113" d="M37.99,107.9c2.53-1.1,3.53-.41,3,2.08-.91.23-2.06.25-2.99.21-.72-.03-1.35-.97-2.01-1.17.52-.76,1.26-.78,2.01-1.12Z"/>
      <path class="cls-98" d="M55.13,106.26c1.81.03,2.35.33.94,1.65,1.87,1.57,4.03,1.63,6.4.91,1.9,2.9.72,4.45-3.52,4.67,1.64.39,1.67,1.08-.05,1.27.04.99-1.23,1.4-1.23,1.3-.11-2.69,4.1,2.41.54,4.61,1.92.25,1.87,1.02-.04,1.53,1.64.44,2.04,2.25.05,2.49,2.76.86,2.69,2.54-.01,3.41-1.07,1.83-1.05,3.23.06,4.2l-1.27.68c-3.19-.97,1.94-12.36-2.95-17.95-.15-1.52.44-3.65-.76-4.99l-.22-3.7c.3-.78.67-.82,1.13-.12.27-.89.59-.86.96.04Z"/>
      <path class="cls-170" d="M59.98,131.98c-.92.59-1.76,1.38-3,1-.17-1.75-.38-3.78,1.22-4.89.31,1.05-.28,1.72-.31,2.43-.06,1.36.92,1.74,2.1,1.46Z"/>
      <path class="cls-25" d="M49.22,103.07c1.93-.42,2.18.55.69,1.92-.07,1.89-2.19,2.67-3.87,2.2-1.48,1.19-3.22,2.33-5.06,2.79-.98-.72-2.1-1.25-3-2.08,1.72-.79,3.28-1.94,4.88-2.94,1.97-1.24,3.87-2.57,6.35-1.88Z"/>
      <path class="cls-6" d="M52.09,104.85c1.63-3.06,4.17-1.35,2.08,1.36-.37.04-.77.04-1.13.12-2.07.45-3.72,2.07-5.96,1.91l-1.05-1.05c1.16-.93,2.33-1.8,3.87-2.2.12-2.76,1.16-2.71,2.18-.14Z"/>
      <path class="cls-44" d="M70.07,123.8l.87-1.14c2.95,3.32,6.28,4.73,10.02,4.23,1.51.32,3.49.93,4.34,2.13.9,1.27.86,3.05-.29,4.03.05-.92-.26-1.69-.92-2.29-2.03-.71-3.36-1.17-5.11.3-7.14.96-6.88-4.19-10.88-2.07-.61-.37-1.28-.63-1.96-.85-1.71-.34-1.67-1.07-.02-1.38-1.53-1.35-1.15-2.14.86-1.78.17-3.25.79-3.46,3.09-1.18Z"/>
      <path class="cls-99" d="M84.09,130.76l-5.11.3c.27-1.13,1.08-2.2,2.34-1.97,1.1.21,2,.96,2.77,1.67Z"/>
      <path class="cls-104" d="M61,124.92c1.75-.45,4.6-.04,5.13,1.85.63.12,0,1,.02,1.38.05.76-.61.52-1.02.83-1.86-.43-3.6-.52-5.23-.27-.53-.29-1.1-.53-1.69-.61-.1-1.14.04-2.27.01-3.41.07-1.99,2.27-1.45,2.78.24Z"/>
      <path class="cls-72" d="M65.12,128.98c-1.64,1.22-3.53.64-5.23-.27.05-1.27,1.54-1.58,2.23-1.26,1.03.48,2.75.53,2.99,1.53Z"/>
      <path class="cls-47" d="M72.18,121.86c1.97,3.05,5.28,4.29,8.78,5.03.53,1.95-4.67.21-6.62.55-1.2-1.83-2.3-3.24-4.26-3.64-2.15.32-4.51-2.64-2.09-3.82-.51-.83-.18-1.12.87-.96.13,1.76,2.48,1.97,3.33,2.84Z"/>
      <path class="cls-14" d="M45.24,80.76c2.22,3.27,3.36,4.35,3.43,3.25,1.56.67,1.22,2.41.49,3.67-1.89.13-3.65.94-5.37,1.68-.29,0-.58-.02-.87-.06-1.8-1.32-4.83-4.38-4-7.16.68-2.26,4.86-2.28,6.31-1.39Z"/>
      <path class="cls-7" d="M46.73,79.59l1.93,4.42c-.27.37.04.84-.31,1.57-1-1.45-2.21-2.27-4.4-2.91.26-.46.79-.51,1.23-.83.3-.22.18-.56.05-1.09-.08-.35.48-.77.52-1.04.09-.53.55-.71.97-.13Z"/>
      <path class="cls-140" d="M59.22,77.99c2.66.23,2.49,1.14-.07,1.8-.94,2.06-2.28,2.77-4.15,1.14.11-.97-1.62-2.66-1.05-3.89.11-1.58,1.54-2.44,3.02-3.23,1.13,1.13,1.54,2.74,2.24,4.17Z"/>
      <path class="cls-184" d="M65.26,78.63c-.15.71.86,1.57.26,2.45-.33.49-1.08.39-1.48.75-3.1,1.53-6.7,2.1-4.88-2.04l.07-1.8c1.36-.31,1.09-1.53,1.87-3.37,1.52,1.88,2.34,3.4,4.16,4.02Z"/>
      <path class="cls-24" d="M65.78,75.08c-2.26.23-3.15-2.93-4.84-4.2l.87-.99c1.41,1.68,4.08,2.55,3.97,5.19Z"/>
      <path class="cls-67" d="M53.98,68.98c.4.51.92.93,1.35,1.41-.16.39-.25.83-.48,1.08-.5.57-1.11-.14-1.83-.96-1.64-1.05-.63-2.12.96-1.54Z"/>
      <path class="cls-58" d="M55.92,64.04c-.88.86-1.16,1.15-2.51.94-.71-.11-.87-1.85-.39-2.17,1.03-.69,2.07.82,2.9,1.22Z"/>
      <path class="cls-92" d="M53.81,101.01c1.93,1.86.79,3.62-1.72,3.84-.69,0-1.51-.03-2.18.14-.27-.62-.55-1.25-.69-1.92-.07-.32.05-.68,0-1.01,1.29-.4.83-2.25.94-3.31.91.12,2.35-.71,3.17-.35.92.41.27,2.06.48,2.6Z"/>
      <path class="cls-38" d="M69.98,85.98l1,5c.4.29.66.76,1.1,1.01.15,4.11-2.17,7.8-1.22,11.89-.48,1.17-1.54,2.41-1.3,3.67.15.88-.12.88-.75.14-.89,1.8-1.45,3.25-.84,5.25,1.22,5.71,1.11,7.78-3.84,3.16l-.93.15c-.67-1.21-2.09-2.13-4.25-2.76-.21-1.7,3.69-1.27,2.31-3.39-.55-.54-2.51.12-3.64-.13-.83-.18-1.38-.85-1.56-2.05l.37-1.03c2.78.27,5.2-.38,7.26-1.97-.71-.2-.54-.96.51-2.27-.72-2.06-.5-3.69.68-4.89-.29-.73.06-2.83.4-2.97l3.29-1.33c.17-2.3.46-5.24.41-7.46-.04-1.16,1.03-1.19,1,0Z"/>
      <path class="cls-53" d="M62.76,118.06c2.15-.16,2.27,1.35.21,2.03.54,1.3,1.16,2.6,1.86,3.88.88-4.3,1.69-4.29,3.64-.12l-1.48,1.12c-.34.57-.62,1.17-.86,1.78-1.9-.15-3.68-.59-5.13-1.85-1.19-.65-2.46-1.5-2.84-2.72l.04-1.53c.09-2.39,1.05-4.92,3.85-3.71,1.67-.97,2.08-.32.71,1.1Z"/>
      <path class="cls-38" d="M58.03,100.06c1.71,1.81.84,4.6-1.12,5.75.56,1.47-.88,1.6-1.78.45-.31,0-.64-.08-.96-.04.1-1.07-1.23-1.36-2.08-1.36.25-1.33.74-2.82,1.72-3.84.78-.82,1.81-1.4,2.44-3,.48-1.23,2.01-.19,2.32.54.21.5-.58.58-.53,1.51Z"/>
      <path class="cls-84" d="M63.69,104.9c-.6.9-.53,3.07-2.14,3.55-1.84.56-3.79-.75-5.48-.55-.08-.54-.93-1.02-.94-1.65.58,0,1.21-.53,1.78-.45.69-2.23,2.01-3.03,4.19-2.01,1.04.19,1.9.56,2.59,1.1Z"/>
      <path class="cls-53" d="M58.89,114.76c2.63-1.53,8.82,1.47,3.16,2.2-1.48,1.19-1.7,3.78-3.85,3.71.05-1.86-1.22-3.38-1.39-6.02.16-.77,1.71-.16,2.08.11Z"/>
      <path class="cls-120" d="M68.98,113.98l-.13,5.04c-.32.29-.61.61-.87.96.73,3.65-1.01,3.01-5.23-1.92l-.71-1.1c.23-.53.8-.89.95-1.88l-4.11-.32c-.25-.43.1-.86.05-1.27,2.44.4,4.86,1.66,7.44.49.58,1.57-.47,2.82,1.46,4.14.36-1.82.03-3.48.12-5.19.33-.86.67-.83,1.01.05.81.29.79.62,0,1Z"/>
      <path class="cls-53" d="M61,124.92c-.66-.51-2.01-.08-2.78-.24l-.05-2.49c.64,0,1.34.04,1.87.37.83.51,1.01,1.48.96,2.35Z"/>
      <path class="cls-142" d="M67.98,119.98c.17,1.17.97,3.21,2.09,3.82-1.07.28-2.13.62-3.09,1.18-.1-.84.3-1.64-.28-3.1l-1.88,2.09c-1-.54-1.62-1.83-1.86-3.88l-.21-2.03c1.15.2,2.22-1.27,3.28-.55-.13,1.49-.13,2.56.39,3.09.33.33,1.14-.37,1.56-.62Z"/>
      <path class="cls-34" d="M64.89,97.74c1.87,1.81.18,5.08-1.2,7.16-.4.1-.85.24-1.29.19-.56-.06-1.27-.66-1.3-1.29q.97-2.62,0,0c-.99,1.38-2.35,2.28-4.19,2.01-.99-1.78.13-4.05,1.12-5.75.69-1.18,1.2-2.17.6-4.05,2.99.18,4.11,2.29,6.25,1.74Z"/>
      <g>
        <path class="cls-21" d="M69.21,79.08c1.26,3.01,1.19,5.3-.23,6.9,2.51,5.99,1.14,9.91-4.09,11.76l-1.3,2.02c-1.29-1.52-3.14-1.42-5.56.3l-.92-1.11c-.8,2.49-1.9,3.18-3.3,2.06-1.76-.11-2.98-.86-3.65-2.26.03-.26-.09-.53-.09-.8,1.65-1.12,3.32-2.23,5.19-2.93.81.47,1.47.92,1.88.42,2.09-2.54-.57-3.94-1.11-10.32.98-2.41,3.65-3.5,8.01-3.29-.53-1.46-.33-2.54,1.22-3.2.18-.83.83-1.62.59-2.56-.33-1.91.44-1.97,1.14-.09.9.92,1.52,2.04,2.23,3.1Z"/>
        <path class="cls-98" d="M72.86,85.73c.87,2.07-.84,4.31-.77,6.26-1.36,1.48-1.98.86-1.1-1.01l-1-5h-1c-.05-2.16-.77-4.71.23-6.9,1.41,2.09,2.66,4.31,3.65,6.64Z"/>
        <path class="cls-139" d="M59.16,79.79c.98,1.81,2.91,2.57,4.88,2.04-2.19,1.9-5.14,2.96-8.01,3.29-.1-1.15-2.15-2.53-1.02-4.19,1.2-.98,2.62-1.82,4.15-1.14Z"/>
        <path class="cls-84" d="M65.41,85.55c.96.36.36,1.14.11,1.38-.64.63-1.42.64-2.7.64-.91,0-.7-1.32-.19-1.75.46-.38,1.29-.83,2.77-.27Z"/>
        <path class="cls-96" d="M70.98,90.98c-1.59-1.14-.98-3.27-1-5,1.77.98.84,3.33,1,5Z"/>
      </g>
      <path class="cls-6" d="M68.81,107.68c.15,1.76.17,3.53.17,5.3l-1.01-.05c-1.98.13-1.96-2.06-1.24-3.42.4-.76.79-1.92,2.08-1.83Z"/>
      <path class="cls-9" d="M64.83,123.98c-1.09.09-2.43-.19-2.63-1.61-.09-.64.35-1.54.78-2.27.85-.19,1.81-.26,1.93.54.19,1.32,0,2.36-.07,3.34Z"/>
      <path class="cls-2" d="M61.1,103.8c-.04-.99-1.53-1.82-1.62-2.6-.19-1.72,2.04-1.4,2.85-1.05.62.27.76.99,1.3,2.3.59,1.42-1.82.94-2.53,1.35Z"/>
    </g>
    <g>
      <path class="cls-186" d="M18.99,29.98c1.55.63,2.01,1.41,1.1,2.72,2.57,1.13,4.95,2.51,2.03,4.5-.23.5-.55.52-.96.12-1.06-1.21-3.74-.83-4.59-2.42s-.61-3.96,1.2-4.94l1.22.02Z"/>
      <path class="cls-168" d="M25.99,23.99c-.01.65-.35.99-1,1l-3,3c.96,4.64-3.06,6.62-3,2,0-3.82,2.65-5.94,6.12-7.14,1.61-1.2,2.08-.53.88,1.14Z"/>
      <path class="cls-177" d="M29.99,20.99c-.47.96-1.47,1.69-3,2.16.24.96-.1,1.24-1,.84-.2-.44-.49-.85-.88-1.14.1-1.28.91-2.12,1.84-2.87,1.49-1.85,4.34-1.6,3.04,1.01Z"/>
      <path class="cls-95" d="M31.99,17.92c2.03-.24,1.68,1.87-.06,2.34,1.04,1.78-.36,1.59-1.94.72-.43-1.21-1.99-1.42-3.04-1.01l1.27-2.21c1.26-.1,2.52.08,3.77.15Z"/>
      <path class="cls-149" d="M41.83,13.2c1.75.46,3.14,1.06,4.16,1.79h1c.87.31.86.67,0,1.09.46,2.32-.85,2.44-3.95.35.08,2.86-1.61,3.03-2.96.53-1.45,2.6-3.15,1.67-3.81-.83l-.13-1.04c1.85-.7,3.62-2.15,5.69-1.88Z"/>
      <path class="cls-165" d="M43.99,12.99l3.99-.06c2.12,1.62,1.46,2.31-1.99,2.06-1.57,0-4.29.36-4.16-1.79.99.13,1.31-.2,2.16-.21Z"/>
      <path class="cls-54" d="M34.99,24.99c-.58.82-.98.74-1.19-.25l-2.16-.75c.21-1.19.31-2.44.3-3.73l.06-2.34c1.62.09,2.76-1.42,4.28-1.8,2.32.84,2.29,2.21-.08,4.1l-.8,1.65c1.09,1.82.95,2.85-.4,3.11Z"/>
      <path class="cls-154" d="M30.67,37.13c1.27.29,1.04,1.24-.69,2.85-.34.85-.67.82-1-.06-2.96-.19-5.85-.35-7.83-2.6.3-.09.68,0,.96-.12.51-2.73,3.36-2.75,8.55-.08Z"/>
      <path class="cls-152" d="M30.99,39.98c1.26-.64,2.51,3.17,1.37,4.08,3.18.04.93,5.17-1.08,6.02-.96.37-1.39-.33-1.3-2.09.54-2.68-.4-5.49-1-8.06l1,.06c.28-.87.62-.86,1,0Z"/>
      <path class="cls-57" d="M33.8,24.74c2.79.41,2.7,1.22.19,2.25.71.66.65,1.29-.29,1.68-.51,1.94-2.76,2.72-6.76,2.32l.03.74c.69.52.73,1.42.13,2.67,2.05,0,3.34.52,3.88,1.59,1.92.34,1.71,1.1-.31,1.15-2.86.08-5.87-1.08-8.55.08.13-2.19-2.57-1.98-3.96-3.3-.76-1.19.82-2.95.82-3.93.55.25,1.68,1.26,1.84.42.18-.97.73-1.59,1.16-2.42.77.69,1.78,1.02,3.03.99-1.01-1.47.8-2.3,1.93-.92,1.12-1.49,2-2.56,4.05-3.24.85-2.14,1.86-2.66,2.81-.08Z"/>
      <path class="cls-145" d="M33.8,24.74c-.95-.24-1.87-.03-2.81.08-1.42,1.53-3.42,1.59-6,.17.33-.34.64-.7,1-1,.34-.28.69-.53,1-.84,1.38-1.5,2.74-1.28,4.35-.48.14.07-2.85-.13-1.35-1.68.67.01,1.33-.54,1.94-.72.92,1.36,1.73,2.81,1.87,4.47Z"/>
      <path class="cls-13" d="M24.99,24.99c2,.02,4.01.06,6-.17-.57,1.88-2.13,3.05-4.05,3.24.1-1.53-1.99-1.3-1.93.92-.4.72-.87,1.02-1.54,1.1-1.52.17-1.72-.97-1.48-2.09.4-.77-.06-2,.98-2.5.63-.3,1.31-.49,2.02-.5Z"/>
      <path class="cls-187" d="M29.99,20.99c.3.84.78.8,2.04,1.55-1.64.94-3.37.34-5.04.62.34-1.46,1.56-2.19,3-2.16Z"/>
      <path class="cls-28" d="M81.31,14.05c-1.07,1.55-2.06,2.46-1.32,3.93,0,1.58-.66,3.24-2,5-.91,1.96-2.71,3.53-5,2.88-1.95-1.44-1.36-2.48,1.01-1.97-.16-1.92.51-3.22,1.99-3.91-.53-.54-.53-1.54,0-3-1.46.98-2.21.96-2.25-.07-2.31-.56-1.8-2.09.48-2.22l.7-1.38c1.14.94,2.83.83,5.08-.33l.17-1c.65.51,1.09,1.23,1.15,2.07Z"/>
      <path class="cls-173" d="M43.04,16.42c2.38.32,4.04,1.01,5.07,3.29,1.54,1.82,2.52,3.54,2.96,5.15-2.49,2.51-7.66,2.52-11.08,1.12-1.81-2.11-.13-2.99,2.36-3.07-1.79.31-3.55.33-5.27.06-1.05,1.95-2.1-.39-1.82-2.14.11-.67,3.71-4,4.81-3.89.93,0,2-.44,2.96-.53Z"/>
      <path class="cls-105" d="M46.99,16.07c2.65-.21,7.12,6.41,5.79,8.7-.14.81-.43.74-.85-.06.08.87-.22.88-.85.15-.99-1.05-2.64-.85-4.16-1.94-.09-3.18-2.01-4.77-3.88-6.49l3.95-.35Z"/>
      <path class="cls-145" d="M40.07,16.95c-.52,4.32-6.46,4.1-2.99,6.02,2.67.1,2.63,1,.15,1.93.23,1.63-1.87,1.54-2.24.08.5-2.04-1.38-4.03-.49-6.2.73-.48,1.72-.76,2.27-1.29.31-.3-.09-.95-.5-1.37,1.28-.32,2.62.66,3.81.83Z"/>
      <path class="cls-106" d="M51,17.19c3.38,1.05,4.42,2.69,3.13,4.92,1.78.13,1.55,2.68.02,2.89-.37,1.75-1.01,1.53-1.38-.23.13-.86-4.25-8.84-5.79-8.7v-1.09c1.77,0,2.68,1.6,4.01,2.21Z"/>
      <path class="cls-4" d="M37.23,24.9c1.99-1.68,2.46-1.5,2.76,1.08,3.76.37,7.42-.28,11.08-1.12.27-.06.57-.14.85-.15,1.47.52,2.59,1.26,1.06,2.27-1.1,2.82-5.73,2.52-7.84,1.15-.51.84-.9.79-1.15-.15-1.17.35-7.3.66-8.25.39-.35-.1-.57-.68-.75-1.39-.25.87-.58.84-1,0l-.19-2.25c.38.1.8.26,1.19.25l2.24-.08Z"/>
      <path class="cls-158" d="M35.99,60.98c3.4-.43,6.36-.03,8.86,1.19,1.74-.33,3.04-.26,2.23,1.7-.11,2.8-1.13,3.22-3.19,1.32-.58.53-.95.1-1.11-1.27-1.04,1.85-3.18,2.72-3.79.07l-1.31,1.85c-3.47-.73-5.66-2.1-6.58-4.1-2.34,1.03-3.25,1.06-2.71.1l-2.42-1.03c-1.77.71-2.3-1.29-1.86-2.77.25-1.27.85-2.23,1.82-3.02l2.12-1.03c.95,3.64,3.6,5.97,7.94,7Z"/>
      <path class="cls-132" d="M30,55.07c1.87-.53,2.39.16,1.02,1.56,2.17,1.33,4.49,2.45,6.96,3.35.76.97.09,1.31-2,1-3.1-.95-7.41-.45-9.69-3.56.49-.52.92-1.26,1.21-1.39.52-.23.67-1.14.09-1.26-.67-.14-1.36.39-1.68.24.87-.71,1.61-1.62,2.79-1.88,2.35-.29,2.28-.13,1.29,1.94Z"/>
      <path class="cls-12" d="M31.28,50.08c.94.2,1,.55.17,1.06,3.41,2.25-.68,3.11-2.74,2-.37-1.9.93-3.45,1.27-5.15.76-.08,1.07,1.5,1.3,2.09Z"/>
      <path class="cls-18" d="M33.99,35.98c1.73-.53,2.76-.19,3.08,1.01.54.79.23,1.08-.8.94-1.85.8-3.61,1.49-5.28,2.05h-1c.07-.98.27-1.96.69-2.85l.31-1.15c-.19-2.17,2.66-2.15,3,0Z"/>
      <path class="cls-118" d="M36.27,37.93c1.35.24,1.38.54.07.88,0,.94-.79,1.63-2.35,2.09v1.33c1.91-.72,2.45.82.68,1.87-.19,2.65-1.91,2.85-2.31-.05l-1.37-4.08c.69-2.23,3.26-1.98,5.28-2.05Z"/>
      <path class="cls-78" d="M34.67,44.11c1.06-2.33,2.8.07,1.53,1.75-.18,1.44-.81,2.86-1.9,4.29,1.69.98.69,1.35-1.31,1.58-1.09,1.56-1.81,1.3-1.55-.59-.04-.32-.07-.79-.17-1.06.97-1.76,1.67-4.26,1.08-6.02.78.28,1.55.14,2.31.05Z"/>
      <path class="cls-115" d="M43.99,27.99c.26.22.85,0,1.15.15,2.28-.58,2.19-.1,1.43,1.89,2.11,1.24,1.09,2.95-1.32,2.48.16,1.89-.58,1.85-1.16-.02-2.8-.93-5.79-.76-8.97.5,2.42,3.04,2.04,4.04-1.13,3-2.86-.06-2.73-2.32,0-3-.87-.28-.86-.62,0-1-2.76-.6-2.94-2.25-.29-3.32-.05-.55.33-1.13.29-1.68.33.02.67-.04,1,0,2.44,1.16,6.56,2.04,9,1Z"/>
      <path class="cls-90" d="M33.7,28.67c.09,1.11.29,2.21.29,3.32-3.18,1.33-5.52,1.25-7.01-.26-1.47-.2-3.08,1.14-5.08-.39l11.8-2.67Z"/>
      <path class="cls-27" d="M33.99,32.98v3h-3c-1.48,0-3.46.14-3.88-1.59-.02-2.31,4.8-2.13,6.88-1.41Z"/>
      <path class="cls-33" d="M33.99,31.98v1c-2.4-.3-4.6.81-6.88,1.41-1.01-.44-2.27-.03-3.11-.91,1.74-.68,2.54-.92,2.99-1.76,2.32.32,4.67.33,7.01.26Z"/>
      <path class="cls-5" d="M26.94,28.06c-.58.06-1.45.64-1.93.92-.7.19-1.02-.62-1.55-.98-.65-.44-.47-.96.09-.98,1.15-.03,3.2-2.2,4.34-.61.28.39-1.05,1.02-.94,1.65Z"/>
      <path class="cls-59" d="M73.99,23.9l-1.01,1.97c-.31-.09-.68.04-1,.02-.24.87-.54.83-.88-.05-.26.52-.52.49-.76-.07-.8-.12-.8-.41-.07-.85-1.5-.32-1.59-1.2-.22-1.93-2.66-5.24,5.8-3.22,3.95.92Z"/>
      <path class="cls-111" d="M77.83,11.94c.49.71,1.34.91,2.15,1.04-.06.36.32,1.49-.27,1.7-1.96.7-3.79-.26-5.51,0-1.61,1.59-3.03,2.02-4.28,1.29.35-.92.75-1.82,1.04-2.76-.16-2.07.1-2.26,2.07-1.52.76-.13,1.59-1.01,2.06-.23.5.83.5,1.35,1.08,2.65.91-.64,1.07-1.59,1.65-2.18Z"/>
      <path class="cls-69" d="M56.98,17.21c1.19-.71,2.25-.04,2.92,1.02.87.02,1.25.32,1.14.89,1.09,1.62.49,2.13-1.1.96-1.24,1.14-4.21,2.69-5.81,2.02-1.1-1.65-3.14-2.79-3.13-4.92,1.79.82,4.16-.35,5.99.02Z"/>
      <path class="cls-23" d="M73.73,16.91l2.25.07c1.2.94-1.69,3.03-1.62,2.86.27-.7,1.13-.69,1.62.14-.36.83.5,2.2-.19,3.2-.32.47-1.04.75-1.8.71-.77-.86-1.42-2.35-3-2.64-.68-.12-.92,1.36-.95,1.72-.3.88-.65.86-1.06,0l-2.13-.53c-2.1-2.53-2.06-2.99,1.02-4.39-.41-.86-.02-1.18,1.02-1.08l.86.07c1.38-.26,2.71-.31,3.98-.15Z"/>
      <path class="cls-112" d="M74.21,14.7c-.39.56-.02,1.74-.48,2.22-.7.73-1.32,1.75-2.04,2.29-.89.67-1.74-1.41-1.94-2.14.1-.34.05-.74.17-1.08,1.39-1.01,3.14-3.51,4.28-1.29Z"/>
      <path class="cls-169" d="M75.98,19.99c-.61.1-1.03.79-1.85,1.03-.85-2.28.79-2.97,1.85-4.03.96.03,2.32-.22,1.61,1.02-.37.64-1.31,1.27-1.61,1.98Z"/>
      <path class="cls-80" d="M39.99,25.99c-.99-.1-1.93-.58-2.76-1.08l-.15-1.93c-.24-2.44,7.2-2.41,7.77-1.47.44.71.49,3.1-.6,3.27-1.99.31-3.67-.16-4.26,1.21Z"/>
      <path class="cls-182" d="M54.15,25c2.54-.82,4.24-.21,2.78,2.71,1.28.58,1.44,1.7,0,2.2.03,2.02-.59,2.75-1.86,2.19-2.38-2.07-3.07-3.78-2.08-5.12-.49-.65-.63-1.58-1.06-2.27.27,0,.59-.01.85.06.42.12.99.03,1.38.23Z"/>
      <path class="cls-30" d="M59.93,20.09c.88.17.84.43-.03.78l.73,2.4c1.82,2.81,1.71,3.97-.35,3.47-.31,1.67-1.37,1.29-2.3.24.82,1.47.23,1.82-1.05.73-.72-1.09-1.62-2.1-2.78-2.71.06-.96.07-1.93-.02-2.89,1.88-1.06,3.59-2.6,5.81-2.02Z"/>
      <path class="cls-175" d="M52.98,26.99c1.16,1.54,2.59,3.09,2.08,5.12-.16.91-.49.88-.97,0-1.12.43-2.16.05-3.12-1.13-.78,2.06-1.27,2.02-2-.11-1.43,1.78-2.44,1.41-2.42-.85-.93-.13-1.3-1.05-1.43-1.89,2.52-.95,5.16-1.47,7.84-1.15Z"/>
      <path class="cls-175" d="M43.99,27.99c1.57,5.08-5.4-.62-8.56,1.92-.84-.64-.36-1.9-.44-2.92,3.04.39,6.51-1.08,9,1Z"/>
      <path class="cls-160" d="M40.99,59.98c1.39-2.24,6.47.49,3.86,2.19-3.22.31-6.09-.34-8.86-1.19.74-.16,1.46-.46,2-1,.91-.39,2.21-.45,3,0Z"/>
      <path class="cls-122" d="M48.94,61.22c1.91.67,1.96,1.7.12,2.56l-1.98.09c-.74-.5-1.71-.92-2.23-1.7-1.22-2.77.25-2.2,2.42-1.16.69-1.87,1.4-1.75,1.67.21Z"/>
      <path class="cls-126" d="M33,51.73c1.11-1.16,2.29.01,2.17,1.42,1.95-1.1,2.8,1.58.86,2.55-1.18.75-3.19.54-6.02-.62-.87-.41-1.12-1.05-1.29-1.94.49-.11,1.05-.1,1.78-.31.58-.16,1.07-.82.95-1.69.53.16,1.04.37,1.55.59Z"/>
      <path class="cls-150" d="M36.02,55.7c.4-.89.74-.83,1.02.14,2.49,1.76,1.87,3.06-1.05,2.15-1.45.98-4.14.26-4.96-1.35-.31-.41-.65-1.22-1.02-1.56-.31-.97.53-1.46,1.65-1.09,1.71.57,2.94,1.62,4.36,1.71Z"/>
      <path class="cls-88" d="M35.99,57.98c1.51-.73,3.18-.39,5,1,.87.28.86.62,0,1-1,.44-2.01.74-3,0-2.22-.59-7.7-.32-6.96-3.35,1.47.64,3.59.47,4.96,1.35Z"/>
      <path class="cls-114" d="M44.09,32.48c1.74,1.21.71,2.05-3.1,2.5,1,1.39.48,1.95-1.01,1.01.07,1.61-1.68,3.51-2.91,1-1.13.07-2.29-.15-3.08-1.01.65.14.81-.38,1.17-.56.97-.48.29-1.84-.04-2.44,3.26-1.45,6.25-1.61,8.97-.5Z"/>
      <path class="cls-178" d="M39.98,35.99c3.16-1.21,3.3-.49,1.01,1.99.22,1.42-.12,2.42-1,3-.05.91-.39.93-.98.14-1.3.09-2.74-.98-2.67-2.3.45-.34.44-.63-.07-.88.29-.29.56-.61.8-.94l2.91-1Z"/>
      <path class="cls-134" d="M36.98,41.69c2.97-.03,5.21,5.99,1.47,6.44-.25,1.94-1.04,1.75-1.23-.28-2.13.05-2.17-.16-1.03-1.99-.44-.42-.59-1.87-1.53-1.75l-.69-1.87c-.56-2.3,2.75-3.16,3-.56Z"/>
      <path class="cls-46" d="M36.34,38.82c1.43-.13,2.55.89,2.67,2.3.33,2.07-.7,2.27-2.02.56-1.02-.68-2.18-.25-3,.56-1.63-.19-1.66-1.44-.57-2.36.75-.62,1.87-.83,2.92-1.07Z"/>
      <path class="cls-15" d="M36.2,45.86c.46.44,1.38,1.03,1.03,1.99.75,1.1.9,2.78.71,4.13.02,2.83-.75,3.16-2.78,1.17-.88.2-1.71-.83-2.17-1.42.68-2.23.56-5.31,3.2-5.87Z"/>
      <path class="cls-11" d="M44.09,32.48c-2.72-.06-5.41.72-7.8,2.62l-1.16-2.11c-.2-.35-.02-1.12.08-1.49.25-.9,8.28-1.86,8.88.99Z"/>
      <path class="cls-68" d="M48.99,33.98c-.22-2.28,1.09-1.88,2.1,0,.91.32.92.65.02,1,1.49,1.64.81,2.26-1.12,1-1.18.61-4.08,1.62-4,0l-3.22-.32c-1.22.98-1.81.76-1.78-.68.72-1.06,3.44-.87,3.1-2.5l1.16.02c1.44-1.4,3.45-.36,3.74,1.48Z"/>
      <path class="cls-11" d="M48.99,30.88c1.27-.15,1.39,2.81,0,3.11-1.44,0-2.87-.27-3.74-1.48.65-.7,1.08-1.56,1.32-2.48.86.12,1.6.62,2.42.85Z"/>
      <path class="cls-65" d="M73.79,32.18c.08.27,0,.58.06.87,1.28,1.67,1.99,3.31,2.13,4.94.46,4.03.62,10.13-5,7-.9-.91-.27-2.39,1.9-4.45l-.67-3.22c-2.02-.72-2.97-1.92-1.23-3.33-.63-.8-.03-1.72,1-2l1.81.19Z"/>
      <path class="cls-119" d="M76.98,41.98c-.1,1.34-.86,2.63-.71,4.02.64,2.86-.28,3.32-2.22,1.13-1.45-.31-2.8-.69-4.07-1.15-.89-.17-.92-.51-.14-1-.18-1.93.59-1.93,1.14,0,1.14,0,2.3.25,3.88-.17.1-2.64.37-4.78,1.12-6.83.28-.87.62-.86,1,0,.06,1.3.1,2.7,0,4Z"/>
      <path class="cls-129" d="M76.98,37.98h-1c-.92-1.59-3.35-3.16-2.13-4.94,1.99.74,3.03,2.86,3.13,4.94Z"/>
      <path class="cls-66" d="M68.98,22.99l1.28,1.93.07.85c.32,1.31.25,2.63-1.19,2.46-3.28,1.13-6.51.33-3.93-3.04-1.9-1.01-1.4-2.02.81-2.18l.84-.54c2.15-1.79,1.71-1.83,1.89-.87.1.56.22.99.24,1.4Z"/>
      <path class="cls-127" d="M70.98,28.98c-.18,1.37-.52,2.37-1,3,.31.84,0,.99-.85.54-.18.88-.47.86-.84,0-2.59.49-3.47-2.08-1.31-3.47l2.16-.82c.44-.8.85-1.62,1.19-2.46.3-.28.56-.32.76.07-.29,1.04,0,2.11-.12,3.15Z"/>
      <path class="cls-166" d="M70.04,22.98c.37.6.84,1.37.22,1.93-1.15.4-1.84,1.31-3.11,2.17-.55-2.14.9-3.15,1.83-4.1h1.06Z"/>
      <path class="cls-31" d="M71.98,31.98c.4.49-.18,2.27-1,2-1.47.56-1.68-.79-1-2,.05-1.07-.33-2.61,1-3-.14,1.22.26,2.1,1,3Z"/>
      <path class="cls-61" d="M63.25,19.21c3.18-.5,4.08,1.09,2.77,3.79-.37.69-.63,1.43-.81,2.18.38,1.9-.38,2.05-1.38.37-1.2,1.19-2.5.4-3.88-2.37-1.84.78-1.85.01-.05-2.31-.07-.24.07-.53.03-.78l1.1-.96c.7-.12,1.53.25,2.22.08Z"/>
      <path class="cls-112" d="M67.88,18.07c-.75,1.34-.98,2.87-1.02,4.39-.26.21-.54.39-.84.54-.1-.68.2-1.83-.35-2.52-.38-.26-1.44.89-1.77.59-.4-.36-.46-1.55-.65-1.87,1.54-.38,3.03-1,4.62-1.14Z"/>
      <path class="cls-43" d="M59.98,30.98c.4.29.7.57.67.8-.38,2.97-3.02,8.39-5.8,9.22-2.7-.04-3.07-1.37-.91-2.95.42-.47,1.1-.88,2.03-1.23l-.86-1.06,1.82-5.85c-.22-.65-.02-1.53,0-2.2.02-.47.66-.74,1.05-.73,1.43-.49,2.48,3.01,2,4Z"/>
      <path class="cls-180" d="M55.97,36.83c-1.21,1.04-3.91,1.18-3.03-.74-.9-1.25-.19-2.58,2.13-3.98.57-.77,1.13-1.57,1.86-2.19.81,2.35.41,4.84-.96,6.91Z"/>
      <path class="cls-69" d="M63.83,25.55c1.59,1.09,1.12,1.81-.8,1.39-.86,1.81-2.4,1.88-2.75-.2.82-.86.46-1.26.18-1.91-.58-1.32-1.09-1.99-2.68-.64-.48.41-.97,0-1.26-.05-3.64-.74,4.01-1.68,3.38-3.27.59,2.18,1.57,4.28,3.93,4.68Z"/>
      <path class="cls-110" d="M60.29,26.74l2.7,1.24c2.66-.11,2.78.88,1.21,3-.54,2.63-1.44,2.56-2.21,0-.53.95-1.82,1.51-2,0l-2-4c.38-1.15,1.47-.4,2.3-.24Z"/>
      <path class="cls-26" d="M52.94,36.08c-.79,2.1-2.35.84-1.84-1.1.05-.34.02-.66-.02-1-.9-.2-.92-.53-.1-1,.46-1.47,2.04-1.89,3.12-.87.32.02.64.02.97,0,.1,1.65-.81,3.04-2.13,3.98Z"/>
      <path class="cls-73" d="M54.1,32.12c-.69,1.03-2,.93-3.12.87-1.92.04-1.81-1.86,0-2,.44-.01.98-.9,1.48-.62.79.45,1.15,1.23,1.64,1.75Z"/>
      <path class="cls-115" d="M50.99,30.98c-.18.18-.37.58-.56.98-.15.33.09.76.56,1.01l.1,1h-2.1v-3.11c.57.16,1.41.12,2,.11Z"/>
      <path class="cls-93" d="M53.01,60.98c2.68.25,2.57,1.06.01,1.83-.13.43-.82.72-.99,1.17l-2.98-.21c-.1-.85-.14-1.7-.12-2.56-.67-1.93.55-2.43,2.02-1.03,1.37-1.74,1.86-1.26,2.06.79Z"/>
      <path class="cls-39" d="M47.33,60.08c2.12-.33,2.18.52-.06.93l-2.42,1.16c-.37-.56-.31-1.48-.89-1.75-.9-.41-2.14-.81-2.97-.44v-1c-.22-.96.44-1.29,2-1,.28-.87.62-.86,1,0,1.28-.46,3.28.47,3.35,2.09Z"/>
      <path class="cls-133" d="M50.95,60.19c-.61.42-1.28.87-2.02,1.03-.52.11-1.21-.42-1.67-.21.5-.3.6-.61.06-.93-1.96-1.42-1.68-1.74.69-1.91.44-.97,2.02-1.73,2.96-1.19,1.67-.08,1.54,2.85-.03,3.21Z"/>
      <path class="cls-163" d="M37.94,51.98c3.58-.6,2.63,3.34,1.14,4.87-1.14,1.55-2.04.97-2.05-1.02-.25-.15-.72-.12-1.02-.14l-.86-2.55c.96-.21,1.86-.85,2.78-1.17Z"/>
      <path class="cls-74" d="M39.09,56.85c.57-1.03,1.18-.98,1.84.13,1.21-1.66,1.54-.7,2.06,1-.52.59-1.25.84-2,1-1.94.4-3.47-.02-5-1,.85-.36,1.03-1.31,1.05-2.15.65.41,1.35.71,2.05,1.02Z"/>
      <path class="cls-179" d="M45.99,35.98c.57,1.99-.43,2.45-1.91,1-.37.92-1.08,1.53-2.09,1-.28.87-.62.86-1,0-.03-.5.1-.98,0-1.47-.09-.4-.53-.66-1-.53.33-.21.78-.67,1.01-1.01,1.66.13,4.05-.73,5,1Z"/>
      <path class="cls-147" d="M39.99,40.98c.7-1.63,1.19-1.68,2.14-.07,1.4-1.87,2.66-.75,1.9,1.3,1.19.01,2.17.86,2.94,2.55.94.08,1,.43.23,1.02,2.27.59,2.1,1.86-.22,2.2-.56,1.41-1.89,2.08-4,2,1.03,1.26.91,3.38-.91,3.91,0,1.4-.39,2.43-1.15,3.09-.18.21-.42.46-.65.53-.59.17-.83-.5-1.19-.66.88-1.54-.87-3.2-1.14-4.87-1.25-1.56-1.4-2.68.51-3.85.79-2.37-1.56-4-1.47-6.44.7-.08,1.36-.31,2.02-.56.3-.11.67-.05.98-.14Z"/>
      <path class="cls-37" d="M40.99,37.98h1c1.89-.34,2.15,2.58.14,2.93-.68.17-1.55.88-2.14.07-.05-.69-.69-1.53-.54-2.46.07-.44,1.13-.5,1.54-.54Z"/>
      <path class="cls-1" d="M37.94,51.98c-.17-1.04-1.65-.77-2.99-1.39.92-.92,1.87-1.59,2.28-2.74l1.23.28c-.36,1.07,1.45,3.17-.51,3.85Z"/>
      <path class="cls-79" d="M45.99,35.98h4c.87.28.86.62,0,1-.81.59-1.14.93-1,1,1.26,1.2.59,2.51-2,3.92-.56,2.31-2.41,1.59-1.68-.75-2.02.51-2.9-3.08-1.23-4.17.52-.26,1.19-1,1.91-1Z"/>
      <path class="cls-91" d="M52.94,36.08c.78.84,1.96.86,3.03.74-.23.35-.18.93-.61,1.1-.52.21-1.01.08-1.42.13.31,2.08-1.3,2.45-2.84,1.08-.91-.34-1.52-1.29-1.12-2.15v-1c.58,0,1.03-.45,1.12-1l1.84,1.1Z"/>
      <path class="cls-42" d="M74.78,56.98c2.69.04,2.58,1.22.15,2.38,1.44,1.12,3.54,1.59,6.3,1.4l2.74.33c1.84-.87,1.99.46,1.02,1.99-.89,1.9-2.94,2.7-4.92,3.03-1.93.43-4.59.96-6.1-.18-1.08-.03-1.8-.77-2.68-1.16-1.24-3.67-.76-5.87,1.46-6.59-1.79-2.53.15-3.72,2.04-1.19Z"/>
      <path class="cls-87" d="M86.88,60.08c-.51,1.08-.79,2.32-1.89,3,.05-.77-.82-1.39-1.02-1.99-1.97-.63-2.41-2.01-2.03-3.99-.88-.25-.88-.58-.03-.98.01-.88.32-.95.91-.25,1.86.94,4.09,1.91,4.06,4.21Z"/>
      <path class="cls-17" d="M80.07,66.1c-1.7,1.38-4,.82-6.05,1.02l-.04-1.2,6.1.18Z"/>
      <path class="cls-123" d="M70.98,44.98h-1.14c-2.34-1.05-3.79-3.96.11-4,.39-.55.78-.98,1.15-.97.8.03-1.53,2.65.03-2.17.09-.27.54-.42,1.09-.54,1.58.96,2.32,3,.91,4.93-.78,1.06-1.68,1.82-2.14,2.75Z"/>
      <path class="cls-100" d="M70.98,33.98c.51.85.24,2.72,1.23,3.33-.52.77-1.26,1.33-2.23,1.67-1.49,1.46-2.82-1.1-1-2-.63-1.42-1.23-3.41.15-4.46.27-.2.56-.37.85-.54-.04.88.61,1.35,1,2Z"/>
      <path class="cls-8" d="M78.03,52.89c2.15,1.62,1.78,2.16-.85,2.06l-2.54-.14c-.47-2.25-1.07-4.44-1.81-6.56-.77-.34-.68-.63.19-.88.16-.74.51-.8,1.04-.23.83-.18,1.64-.49,2.22-1.13,2.03,1.56,2.13,4.47,1.76,6.88Z"/>
      <path class="cls-128" d="M82.57,54.68l.25,1.18c-.3.01-.61.29-.91.25-.71,1.71-2.5,1.88-2.77-.2-1.53,2.2-2.19,1.65-1.96-.97.03-.79.75-1.39.85-2.06,1.58.42,3.03,1.16,4.54,1.79Z"/>
      <path class="cls-143" d="M66.98,29.05c.28,1.21.71,2.38,1.31,3.47l.69,4.47c.08.77.35,1.54,1,2,1.64-.1,1.42,1.35-.03,2-.49,1.33-1.1,2.78-.11,4,.18.23.02.72.14,1,.13.88-1.53.66-2.1-.02-1.05.16-1.74-.19-1.37-.84,1.58-2.75,1.17.23.28.68-.56.28-1.21-.16-1.7-.69l-1.36-.38c.87-3.4,1.63-6.68,2.26-9.82-3.04.73-4.14-2.05-1.8-3.94-.85-2.97.7-4.74,2.79-1.94Z"/>
      <path class="cls-108" d="M69.98,45.98c1.45.01,3.41-.48,4.07,1.15l-1.04.23c-1.81,2.17-3.9,2.24-5.19-.43-.85-.33-.82-.65.06-.96l2.1.02Z"/>
      <path class="cls-190" d="M69.14,28.23c-.44.81-1.35.79-2.16.82-1.24.04-2.19.9-2.79,1.94-.17-.97-1.49-1.83-1.21-3-.88-.34-.84-.69.06-1.05.21-.46.47-.99.8-1.39.26-.32.99-.15,1.38-.37.37,2,1.87,3.35,3.93,3.04Z"/>
      <path class="cls-45" d="M69.13,32.52l-.15,4.46c-1.27-1.2-2.13-3.14-.69-4.47h.84Z"/>
      <path class="cls-121" d="M61.98,30.98c.87.25.85.58,0,1-1.36,2.16-2.04,4.78-2.03,7.87l-1.05.27c-.59,1.98-1.9,4.29-3.94,4.67-1.86,3.02-8.24.57-6.93-2.96.49-2.44,1.99-2.19,2.78.16.57-1.21,2.35-3.28,3.97-1.36,2.3-1.33,2.16-1.17.06.38,3.22-2.35,3.59-6.51,5.13-10.02h2Z"/>
      <path class="cls-79" d="M53.94,38.06c.45.93.73,1.93.91,2.95,7.67-5.61-12.1,7.89-4.03.99-2.55-.25-2.5-1.28-.6-2.82.16-.89.45-.88.88-.03.86-.54,1.82-.95,2.84-1.08Z"/>
      <path class="cls-137" d="M63.04,26.94c-.14.3.02.73-.06,1.05-.52.36-.73,1.2-1.08,1.55-.73.73-1.17-.32-1.53-.63-.48-.42-.45-1.77-.09-2.16.88.17,1.87-.03,2.75.2Z"/>
      <path class="cls-188" d="M64.19,30.98c.26,1.47.48,2.96,1.8,3.94.16,1.56-.15,1.88-1.76,1.68-1.9,1.5-3.07.74-3.25-1.61-.49-.96-.15-1.96,1-3-.06-.32.03-.67,0-1h2.21Z"/>
      <path class="cls-144" d="M53.12,59.11c.01.62-.07,1.25-.11,1.88-.71-.2-1.4-.45-2.06-.79l.03-3.21c-.55-1.57,1.08-2.45,2.14-1.01,2.65,1,2.66,2.13,0,3.14Z"/>
      <path class="cls-117" d="M46.91,57.12c1.09-.1,1.46.25,1.11,1.05-.02.7-.23,1.38-.69,1.91-1.39-.16-2.9-.65-3.35-2.09-.59-1.97.43-2.27,2.01-.87.25-.9.56-.88.92.01Z"/>
      <path class="cls-16" d="M45.73,55.24c2.66-.24,2.66.72.27,1.87-.69.23-1.35.57-2.01.87h-1c-1.29-.85-1.92-2.76,0-3,.18-1.22,2.67-1.38,2.74.26Z"/>
      <path class="cls-20" d="M53.07,53.79c.92.13.95.51.18,1.09.87.37.8.74-.12,1.09l-2.14,1.01c-.91.58-1.91.98-2.96,1.19-.46-.24-.88-.57-1.11-1.05.17-1.32,1.42-2.25,3.77-2.8-.26-2.81,1.11-2.96,2.39-.54Z"/>
      <path class="cls-48" d="M42.08,53.89c1.41.07,1.71.44.91,1.09v3c-.82-.03-1.37-.69-2.06-1-.04-.73-.71-1.6-.48-2.47.14-.52,1.24-.52,1.63-.62Z"/>
      <path class="cls-85" d="M44.07,36.98l1.23,4.17c1.89,1.64.22,3.32-1.28,1.06-.21-.55-1.33-1.37-1.9-1.3l-.14-2.93c.03-.44-.02-1.25.5-1.6s1.23.78,1.59.6Z"/>
      <path class="cls-116" d="M54.97,44.79c.97-.22,1.22.1.75.98.08,3.25-1.99,4.27-4.73,2.22-1.78-.42-3.05-1.15-3.78-2.2.03-.33-.19-.69-.23-1.02-1.94-.96-2.04-2.08.01-2.86.21-.91.56-.91,1.06-.07,1.13,2.83,4.08,3.43,6.93,2.96Z"/>
      <path class="cls-86" d="M46.99,47.98c1.13.43,2.26,1.07,1.66,2.23,1.93-.13,1.97.63.13,1.41-1.24,1.99-3.5.38-4.81-1.14-.66.48-.99.32-.98-.5.79-1.75,2.13-1.93,4-2Z"/>
      <path class="cls-97" d="M46.98,41.9c-.17.94-.14,1.91-.01,2.86-.63.08-1.32.12-2.01-.26-.75-.42-.64-1.52-.93-2.28.64-.08,1.83.05,1.28-1.06.19.63,1.13.77,1.68.75Z"/>
      <path class="cls-89" d="M43.97,50.49c2.2.89,2.55,1.71,1.07,2.44.03,1.77-1.57,1.75-2.96.96-.47-1.56.35-2.68.91-3.91.38.05.73.21.98.5Z"/>
      <path class="cls-56" d="M50.99,47.98c-.12,1.81-3.12,1.54-4,0l.22-2.2c1.62-.14,3.26.59,3.78,2.2Z"/>
      <path class="cls-124" d="M50.22,39.17c.53.84.67,1.84.6,2.82-.88-.16-1.88-.09-2.78-.16-.35-.03-.71.05-1.06.07.15-.84-1.1-2.1-.37-2.71.56-.47,2.3.44,2.38-1.21,1.01-.23,1.42.17,1.23,1.19Z"/>
      <path class="cls-55" d="M49.99,36.98c.57.6.92,1.36,1.12,2.15l-.88.03c-.36-.44-.78-.84-1.23-1.19-.68-.13-1.45,0-2.09-.66,1.43-.68,2.26-.22,3.09-.34Z"/>
      <path class="cls-103" d="M72.75,58.17c-1.3,2.01,1.32,5.18-1.46,6.59-2.69-1.17-1.64-4.54-3.11-6.88-.17-.44.18-1.37.17-1.88,2.21-1.57,4.23-.48,4.41,2.16Z"/>
      <path class="cls-76" d="M77.18,54.95c2.17,2.75-.03,4.51-2.4,2.03-.8.1-1.59.51-2.04,1.19-1.71-.09-2.98-1.31-4.41-2.16-2.08-.36-2.25-1.88-.21-2.74-.25-1.94.56-1.96,1.24-.04,1.14-.96,1.84-1.87,2.51-3.22-2.35-1.32-1.72-2.22.96-1.77,2.69,1.23,2.38,4.61,4.35,6.7Z"/>
      <path class="cls-176" d="M83.97,61.09c-.99.83-1.84,1.73-2.65,2.99-4.58-7.63-8.26,3.64-6.39-4.71,1.44-1.85,3.15-2.02,4.85-.38-.33-1.7.5-2.57,2.17-1.88,2.13.8,2.32,1.87,2.03,3.99Z"/>
      <path class="cls-174" d="M79.14,55.92c1.92.32,1.88,1.74.64,3.06-1.39,1.06-3.32,1.26-4.85.38.17-.75-.26-1.61-.15-2.38,1.06-.14,2.34-.81,2.4-2.03.75.07,1.29.76,1.96.97Z"/>
      <path class="cls-185" d="M81.91,56.11l.03.98c-.45.89-1.23,1.54-2.17,1.88-.49-.94-.61-2.01-.64-3.06.87.27,1.88.1,2.77.2Z"/>
      <path class="cls-81" d="M72.22,37.31c.25,1.36-.44,2.7-.34,4.73-.97-.4-1.28-.93-1.93-1.05.16-.56.02-1.4.03-2,.02-.74-.23-1.82.53-2,.57-.14,1.6-.04,1.7.32Z"/>
      <path class="cls-82" d="M73.02,47.36c-.12.24,0,.71-.19.88-.53.44-.57,1.29-.96,1.77.46,1.5-.38,2.57-2.51,3.22l-1.24.04c-2.5.23-2.9-.56-1.35-2.49-2.65-2.25-2.41-4.45,1.04-3.85,1.74.03,3.47.17,5.19.43Z"/>
      <path class="cls-155" d="M65.09,45.12c1.99,2.38-.73,4.97-2.98,2.89-1.48,1.39-2.06.79-1.04-1.03l-.8-1.26c1.46-2.31,2.74-4.89,3.84-7.75-.8-.54-.75-1,.13-1.38-.1-1.03.84-1.56,1.76-1.68.24,1.64.46,3.23,1.72,4.73-2.28,1.4-2.81,3.41-2.62,5.47Z"/>
      <path class="cls-70" d="M67.89,45.97l-.06.96c-1.24.91-1.47,2.42-1.04,3.85-1.07.78-2.31.85-3.72.2-.58.28-1.45-.03-1.99.28l-1.08-.27c-.87-.28-.86-.62,0-1-1.27-1.32.82-2.58,2.12-1.97,1.66-.25,2.26-1.66,2.98-2.89.41-.7,2.28-.83,2.41-2.25.85,1.43.2,2.29.38,3.09Z"/>
      <path class="cls-151" d="M59.07,42.92c-.46,3-1.57,3.95-3.35,2.85-.16-.37-.51-.65-.75-.98,1.17-1.68,1.99-3.8,3.94-4.67,1.65.87,1.84,1.92.16,2.8Z"/>
      <path class="cls-109" d="M60.98,34.98c2.48.89,1.85,3.87-.14,5.17-.32,2.56-1.28,2.45-1.93-.04,1.98-2.92-.15-7.48,3.07-8.13.19,1.07-.97,2.04-1,3Z"/>
      <path class="cls-136" d="M64.24,36.6c.04.46-.12.93-.13,1.38-1.04,3.61-2.13,4.33-3.27,2.17l.14-5.17c1.27.09,2.57.48,3.25,1.61Z"/>
      <path class="cls-157" d="M66.78,50.78c.71.62,1.02,1.64,1.35,2.49s.2,1.82.21,2.74c-3.18.55-4.28-2.44-5.28-5.03.44-.62,1.02-1.91,1.95-1.52.63.26,1.27.88,1.77,1.32Z"/>
      <path class="cls-29" d="M48.99,54.29c.3-2.7.91-2.47,1.7.04-.05,1.97-2.05,2.55-3.77,2.8-.29.04-.65-.1-.92-.01l-.27-1.87c-1.05-1.19-.14-1.75,1.26-1.26.21-1.95,1.92-1.64,2,.3Z"/>
      <path class="cls-101" d="M46.99,53.98c-.19.47-.69,1.31-1.26,1.26l-2.74-.26c-.71-.07-1.2-.35-.91-1.09,1.01-.26,2.05-.44,2.96-.96,1.07-1.5,2.66-.75,1.94,1.06Z"/>
      <path class="cls-172" d="M57.06,47.73c1.44,2.02,1.17,2.61-1.3,3-.39,1.38-1.27,2.92-2.69,3.06l-2.39.54-1.7-.04c-1.61-.75-1.68-1.63-.2-2.66l-.13-1.41c-.37-1.37,2.78-1.42,3.32-1.04s-1.99.84-.99-1.19c1.68-.4,3.27-1.37,4.73-2.22,2.1-1.08,2.87.13,1.34,1.96Z"/>
      <path class="cls-189" d="M55.76,50.72c1.49-.68,1.54.08.15,2.29-.61.98-1.5,1.66-2.66,1.87,0-.37-.15-.73-.18-1.09.11-1.52,1.24-2.67,2.69-3.06Z"/>
      <path class="cls-125" d="M48.78,51.62c1.17.52.79,1.78.2,2.66l-2-.3-1.94-1.06-1.07-2.44c1.64.21,3.23.66,4.81,1.14Z"/>
      <path class="cls-40" d="M50.99,47.98c.23.7.95.73,2.03,1.54-1.33.91-2.94.34-4.36.69-1.14-.15-1.77-1.12-1.66-2.23,1.25-.04,2.79.29,4,0Z"/>
      <path class="cls-52" d="M71.88,50.01l1.2,1.9c.53.85-.31,1.65-.89,1.77-.93.19-2.17.14-2.81-.45-.08-.88-.16-2.15.73-2.51l1.78-.71Z"/>
      <path class="cls-19" d="M61.07,46.98c.31,1.2-1.25,2.26-2.08,1-2.05-.68-1.93-2.97.15-4,.68-1.31,1.25-2.59,1.71-3.84,1.37.03,2.42-1.13,3.27-2.17-.04,3.27-1.33,6.25-3.04,9Z"/>
      <path class="cls-94" d="M62.11,48.01c-.85.13-1.41,1.59-2.12,1.97-2.66,1.39-4.15.63-2.93-2.26.66-2.59,1.53-2.36,1.93.26l2.08-1c.27.42.62.76,1.04,1.03Z"/>
      <path class="cls-35" d="M59.98,49.98v1c-1.66-.42-3.19.61-4.08,2.03l-.15-2.29c0-1.15.27-2.37,1.3-3,.3,1.44,1.41,2.3,2.93,2.26Z"/>
      <path class="cls-71" d="M60.84,40.15l.83,2.51c.45,1.37-1.32,1.41-2.53,1.32-.43-.33-.45-.69-.06-1.07-.02-.93-.08-1.87-.16-2.8l1.93.04Z"/>
      <path class="cls-107" d="M59.13,43.99l-.15,4-1.93-.26c-.15-.72-1.05-1.29-1.34-1.96,1.28-.74,2.28-1.84,3.35-2.85,0,.35.08.72.06,1.07Z"/>
    </g>
  </g>
</svg>