<?xml version="1.0" encoding="UTF-8"?>
<svg id="Enemy" xmlns="http://www.w3.org/2000/svg" viewBox="0 0 82.87 133.98">
  <defs>
    <style>
      .cls-1 {
        fill: #ba8a66;
      }

      .cls-2 {
        fill: #4f4b46;
      }

      .cls-3 {
        fill: #fbcba3;
      }

      .cls-4 {
        fill: #f9cfab;
      }

      .cls-5 {
        fill: #0d0f57;
      }

      .cls-6 {
        fill: #98918d;
      }

      .cls-7 {
        fill: #05175f;
      }

      .cls-8 {
        fill: #b08d83;
      }

      .cls-9 {
        fill: #8f4f15;
      }

      .cls-10 {
        fill: #f6c7a7;
      }

      .cls-11 {
        fill: #b59c91;
      }

      .cls-12 {
        fill: #c7916f;
      }

      .cls-13 {
        fill: #54575a;
      }

      .cls-14 {
        fill: #0e1857;
      }

      .cls-15 {
        fill: #f5be96;
      }

      .cls-16 {
        fill: #2a292e;
      }

      .cls-17 {
        fill: #8d6354;
      }

      .cls-18 {
        fill: #081e79;
      }

      .cls-19 {
        fill: #c3a38e;
      }

      .cls-20 {
        fill: #071554;
      }

      .cls-21 {
        fill: #0a0b23;
      }

      .cls-22 {
        fill: #fff;
      }

      .cls-23 {
        fill: #b88b73;
      }

      .cls-24 {
        fill: #e4873b;
      }

      .cls-25 {
        fill: #884009;
      }

      .cls-26 {
        fill: #bd907d;
      }

      .cls-27 {
        fill: #091251;
      }

      .cls-28 {
        fill: #bb9c85;
      }

      .cls-29 {
        fill: #1930a7;
      }

      .cls-30 {
        fill: #dbb69f;
      }

      .cls-31 {
        fill: #aa9278;
      }

      .cls-32 {
        fill: #021558;
      }

      .cls-33 {
        fill: #985837;
      }

      .cls-34 {
        fill: #c3957c;
      }

      .cls-35 {
        fill: #010634;
      }

      .cls-36 {
        fill: #6f3810;
      }

      .cls-37 {
        fill: #091042;
      }

      .cls-38 {
        fill: #cdab90;
      }

      .cls-39 {
        fill: #fee3ba;
      }

      .cls-40 {
        fill: #968576;
      }

      .cls-41 {
        fill: #413d3b;
      }

      .cls-42 {
        fill: #574f4b;
      }

      .cls-43 {
        fill: #756d69;
      }

      .cls-44 {
        fill: #784f34;
      }

      .cls-45 {
        fill: #af5d18;
      }

      .cls-46 {
        fill: #0b0e23;
      }

      .cls-47 {
        fill: #0f1c5e;
      }

      .cls-48 {
        fill: #151f56;
      }

      .cls-49 {
        fill: #2a2824;
      }

      .cls-50 {
        fill: #8e857d;
      }

      .cls-51 {
        fill: #2b2726;
      }

      .cls-52 {
        fill: #b38f77;
      }

      .cls-53 {
        fill: #040d34;
      }

      .cls-54 {
        fill: #fcd8b6;
      }

      .cls-55 {
        fill: #282627;
      }

      .cls-56 {
        fill: #918a84;
      }

      .cls-57 {
        fill: #b6856c;
      }

      .cls-58 {
        fill: #edb490;
      }

      .cls-59 {
        fill: #9c7959;
      }

      .cls-60 {
        fill: #d38269;
      }

      .cls-61 {
        fill: #47423d;
      }

      .cls-62 {
        fill: #cb9974;
      }

      .cls-63 {
        fill: #051143;
      }

      .cls-64 {
        fill: #061b6e;
      }

      .cls-65 {
        fill: #4a3f37;
      }

      .cls-66 {
        fill: #0e1e6e;
      }

      .cls-67 {
        fill: #3d3635;
      }

      .cls-68 {
        fill: #766b62;
      }

      .cls-69 {
        fill: #373227;
      }

      .cls-70 {
        fill: #070a3d;
      }

      .cls-71 {
        fill: #89847d;
      }

      .cls-72 {
        fill: #07175b;
      }

      .cls-73 {
        fill: #030c34;
      }

      .cls-74 {
        fill: #c06d17;
      }

      .cls-75 {
        fill: #ba8b79;
      }

      .cls-76 {
        fill: #f4bc98;
      }

      .cls-77 {
        fill: #6b523a;
      }

      .cls-78 {
        fill: #26292e;
      }

      .cls-79 {
        fill: #8c674e;
      }

      .cls-80 {
        fill: #0a134f;
      }

      .cls-81 {
        fill: #efad88;
      }

      .cls-82 {
        fill: #444240;
      }

      .cls-83 {
        fill: #fee0ae;
      }

      .cls-84 {
        fill: #0f2175;
      }

      .cls-85 {
        fill: #59524e;
      }

      .cls-86 {
        fill: #f15a24;
      }

      .cls-87 {
        fill: #0b102f;
      }

      .cls-88 {
        fill: #081e77;
      }

      .cls-89 {
        fill: #f6ad80;
      }

      .cls-90 {
        fill: #606275;
      }

      .cls-91 {
        fill: #d2a591;
      }

      .cls-92 {
        fill: #0d0e21;
      }

      .cls-93 {
        fill: #f7931e;
      }

      .cls-94 {
        fill: #dd9a59;
      }

      .cls-95 {
        fill: #050f38;
      }

      .cls-96 {
        fill: #0c0f25;
      }

      .cls-97 {
        fill: #e4892e;
      }

      .cls-98 {
        fill: #a86d3a;
      }

      .cls-99 {
        fill: #b17660;
      }

      .cls-100 {
        fill: #f0c7a5;
      }

      .cls-101 {
        fill: #836851;
      }

      .cls-102 {
        fill: #d4996e;
      }

      .cls-103 {
        fill: #88807a;
      }

      .cls-104 {
        fill: #2f2924;
      }

      .cls-105 {
        fill: #feccad;
      }

      .cls-106 {
        fill: #db9770;
      }

      .cls-107 {
        fill: #101e78;
      }

      .cls-108 {
        fill: #171a35;
      }

      .cls-109 {
        fill: #8c6239;
      }

      .cls-110 {
        fill: #142796;
      }

      .cls-111 {
        fill: #2a2522;
      }

      .cls-112 {
        fill: #483f3d;
      }

      .cls-113 {
        fill: #837d78;
      }

      .cls-114 {
        fill: #9a602e;
      }

      .cls-115 {
        fill: #976047;
      }
    </style>
  </defs>
  <g id="CrimeGuy">
    <g id="front-shoe">
      <path class="cls-51" d="M6.19,133.82c1.34-.57,8.52-1.24,9.19-2.11s1.48-6.31,1.36-8.33-.41-6.23.07-7.66,2.44-10.27,2.75-11.26,1.27-3.29-.26-3.1-3.26-.38-5.07-.19c-1.82.19-5.27.77-5.94,1.15s-1.53,1.24-.96,2.11,1.82,4.98,1.82,5.65-.19,10.44-.77,11.59-.29,4.88-1.82,5.17c-1.53.29-4.02,1.34-5.27,2.11s-1.44,3.54-1.24,3.93,4.79,1.53,6.13.96Z"/>
      <path class="cls-56" d="M13.63,121.47c.15,2.51-2.14,5.7-4.25,4.19-1.04,1.32-1.65.93-1.81-1.19v-1c.28-2.67,1.18-2.54,2,0,.47-2.05,1.47-3.38,3-4,.28-.87.62-.86,1,0,1.47-.09,1.34,1.45.06,2Z"/>
      <path class="cls-51" d="M19.57,104.46c1.18.87.96,2.12-.63,2.42-.96,3.41-1.1,7.09-2.48,10.38-.73,2.28-.64,4.32.28,6.12l-.19,8.38c-2.56,1.14-5.17.39-7.55,1.05-.19-.24-.43-.72-.47-1.02l-.98-1.91c3.13-2.13,5.15-4.94,6.07-8.41l-.06-2c-.71-2.57-.31-4.47,1.2-5.7.26-2.41.89-4.51,1.89-6.29-.87-.28-.86-.62,0-1-1.66-.99-1-2.57.91-2,.04-3.11,2.02-3.08,2,0Z"/>
      <path class="cls-82" d="M16.57,122.46c0,.31.18.62.17.92-2.51-1.07-1.06-4.28-.28-6.12.1,1.73.14,3.47.11,5.2Z"/>
      <path class="cls-41" d="M13.57,119.46h-2c.24,1.4-.96,1.82-2,1-1.57,1-1.47-.48-1.17-2.08.21-3.29.32-6.58.03-9.86,2.09-1.92,4.24,1.43,1.95,3.01h1.11c-.02,1.22.36,2.14,1.14,2.76l.87-2.95c-1.51-1.02-1.18-1.7,1.01-2.04-1.82-2.11.25-3.52,2.15-1.84,0,4.15-1.26,8.27-3.09,12Z"/>
      <path class="cls-2" d="M11.5,103.49c.87-.48,2.39.19,3.07.98.87.31.86.66,0,1.07-.17,1.29-.3,2.47-.07,3.77-.16,1.87.36,4.46-1.88,4.98-.71-.66-1.46-1.57-2.25-2.76-.16-1.2-1.02-2.24-1.95-3.01-.36-.29-.51-.84-.9-1.11.04-.3-.04-.63.02-.93,1.38-4.8,2.7-5.79,3.96-2.99Z"/>
      <path class="cls-61" d="M9.57,120.46c2.08-.33,1.04,1.69,0,3-.6.19-1.39-.14-2,0,0-1.74-.27-3.62.83-5.08.24.77.6,1.5,1.17,2.08Z"/>
      <path class="cls-50" d="M8.54,131.79c-1.92,1.55-4.61,1.83-6.97,1.72-.35-2.63,2.47-4.55,5-3.81,2.46-1.56,4.13-.62,1.96,2.1Z"/>
      <path class="cls-43" d="M6.57,129.7c-1.9,1.09-4.37,1.51-5,3.81l-.99-.05c.3-1.46,1.03-2.88,2-4,.47-.31,1.42-.91,2-1,1.56-.15,2.22.26,2,1.23Z"/>
      <path class="cls-61" d="M8.54,131.79c-.12-1.16-.77-2.03-1.96-2.1-.8-.05-1.59-.58-2-1.23.76-.12,1.45-.52,2.14-.74.74-.76,1.63-1.45,2.67-2.06,2.13-.52,3.11-2.47,4.25-4.19.03,1.14,1.25,2.75-.16,3.82-.83.63-1.96,1.3-2.31,2.05-.27.59.32,1.78.23,2.62-1.76-.33-2.07,1.2-2.86,1.83Z"/>
      <path class="cls-103" d="M9.38,125.66c.09.54.31,1.09.48,1.49.36.87-.48.84-.83.99-.76.34-1.73-.61-2.31-.42.61-.98.86-2.11.86-3.26.63.35,1.23.76,1.81,1.19Z"/>
      <path class="cls-6" d="M11.57,119.46c.28-.87.62-.86,1,0-.48,1.44-1.43,3.5-3,4v-3c.24-.88,1.2-1,2-1Z"/>
      <path class="cls-69" d="M14.57,105.53c.99-1.09,2.43-.57,2.09.93v1c-.71.34-2.07.87-2.15,1.84-.91-.73-2.1-.89-3.29-1.27.6-1.79,2.01-2.47,3.36-2.5Z"/>
      <path class="cls-41" d="M17.57,104.46l-.91,2c-.71-.08-1.36-.95-2.09-.93v-1.07c-.87-.28-.86-.62,0-1,.92.55,1.92.92,3,1Z"/>
      <path class="cls-113" d="M12.57,119.46h-1c-.67-.92-2.18-3.69.16-3.97,1.1-.13,1.16,3,.84,3.97Z"/>
      <path class="cls-71" d="M12.63,114.28c-.84.19-1.81.6-1.95-.45l-.3-2.3c.68-.16,1.14-.67,2.02-1.13.43,1.75.19,2.76.23,3.89Z"/>
      <path class="cls-90" d="M14.57,103.46v1c-1.11.03-2.28-.14-3.07-.98l.07-1.02c1.04.16,2.09.46,3,1Z"/>
    </g>
    <g id="front-leg">
      <path class="cls-64" d="M18.26,104.71c-1.44,0-4.21-1.53-6.03-.86-1.82.67-4.02,2.11-4.6,1.63s0-4.5,0-5.84.1-8.62.1-11.2-.77-5.74-.29-7.37,2.39-5.46,3.26-6.51,4.5-8.9,6.13-9.86,5.43-4.79,5.73-6.22.97-3.73,2.41-4.02c1.44-.29,4.88-.77,5.65-.57s3.45,2.01,5.65,1.91,6.8,0,8.81,0,3.16.38,3.26,1.24.96,3.06,1.15,4.02,1.05,4.31.19,5.46-7.28,4.98-9.19,5.36c-1.91.38-3.83-.48-5.07.48-1.24.96-2.11,3.73-3.45,4.88s-4.79,6.13-5.94,7.37c-1.15,1.24-4.12,6.13-5.17,6.8-1.05.67-1.15,3.06-1.15,4.5s.67,6.22.29,6.8-1.72,2.01-1.72,2.01Z"/>
      <path class="cls-95" d="M10.27,79.31c0-.79.61-2.13.18-2.84.55-.36,1.06-.78,1.53-1.24.26-.86.55-.82.88.07,3.93.87.61,7.39-2.59,4.02Z"/>
      <path class="cls-37" d="M26.35,57.7c.89-.29,1.18,0,.86.88,2.61,2.13,1.27,6.66-2.85,4.98-.37,2.15-1.88,4.18-4.53,6.09-1.78,4.55-4.11,6.43-6.97,5.63l-.88-.07c.5-.49.21-1.5.57-1.99,2.52-3.46,4.84-7.07,8.07-9.93,1.42-1.26,2.27-2.57,1.93-4.83.58.01.92-.61,1.2-.93.85-1.75,2.07-1.7,2.6.16Z"/>
      <path class="cls-95" d="M32.67,65.69c.03.57,0,1.03-.21,1.14-3.68,1.95-3.49-.73.64-.12,1.91.28,1.4,1.31.33,2.98.54.63.51,1.53-.07,2.7l.42,2.37-5.81,8.79-2.48.02c-1.19,3.46-4.01,6.79-6.84,8.91.03.23-.19.48-.18.71l-.94,1.03c2.2,6.75,1.21,9.83-2.97,9.24-.97.73-2.35.02-3-1-1.15-1.1.76-3.53.96-3.19.46.82-1.07,2.7-2,3.27l-1.37.42c-.3-2.86-.25-5.73.15-8.6-.2-.6-.65-1.3-.65-1.94.04-2.94-.61-5.99.08-8.89.37-.86,1.52-1.75,1.52-3.08,2.86-.35,4.85-1.84,5.97-4.45l2.48.38c2.46-3.49,5.29-6.65,8.49-9.49-.04-4.73,6.18-5.42,5.46-1.2Z"/>
      <path class="cls-64" d="M18.73,76.39c-2,1.31-2.43,4.72-4.94,5.89-1.29-.75-2.41-1.54-3.52-1.82v-1.15c2.13.54,2.47-2.62,2.6-4.02,6.32-4.59,1.16-5.13,11.5-11.72,3.96-2.98,4.93-.03,2.63,3.65-3.12,2.71-5.87,5.77-8.26,9.17Z"/>
      <path class="cls-78" d="M10.53,102.55c.28-.91.63-.94,1.04-.08.85.35.81.69-.07,1.02-2.36-.63-2.36,2.18-3.96,2.99.78-4.03.62-8.26,1.77-12.11.89,2.68-.88,5.95,1.22,8.18Z"/>
      <path class="cls-32" d="M45.65,58.53c.47.82.25,1.16-.68,1.02.95,1.44.96,2.27.02,2.48-.51.12-1.3.06-2.37-.19-.17-.03-.34-.08-.52-.12-.11-.03-.21-.06-.32-.09-.12,2.48-.57,4.33-1.34,5.56-1.97-.41-4.01-.36-6.11.16-.08.02-.17.04-.25.06l-.47-.58-.94-1.14c-.4-.53-.99-1.13-1.6-1.09-.63.04-1.79.51-2.02,1.3-1,3.29-3.58,4.29-5.84,6.29-1.73,1.52-2.83,3.11-4.49,4.2,1.75-2.85,3.02-6.36,5.7-8.93.95-.91,2.28-1.13,2.23-2.34-.02-.57-.19-.95-.46-1.19-.43-.38-1.1-.44-1.83-.36.14-.09.28-.19.42-.3,1.49-1.11,2.81-2.98,2.43-4.68.45-.8.86-.78,1.25.05l.92.09c1.94.87,2.88,1.98,2.84,3.33,1.19-.65,1.72-1.71,1.57-3.17,0-.12-.02-.25-.04-.38l2.91-.19.69-1.26c1.99,1.14,3.82.61,5.47-1.59.14-.9.46-.89.92-.06,2.85-1.48,4.01.74,1.91,3.12Z"/>
      <path class="cls-72" d="M33.57,57.47c-1.46.32-3.17.71-5.11,1.17-.38-.06-.91.12-1.25-.05-.34-.17-.54-.66-.86-.88.46-.7.9-1.4,1.27-2.15.02-1.83.86-2.47,1.68-1.96.45.27.88.88,1.18,1.82,1.2.28,2.23.63,3.09,1.05.87.28.86.62,0,1Z"/>
      <path class="cls-46" d="M18.48,93.19c.18,3.84,1.89,7.46,1.09,11.27-.6-.52-1.49-.72-2,0-.69,1.7-2.63.73-3-1,7.51-1.66-2.3-13.22,3.91-10.27Z"/>
      <path class="cls-27" d="M11.57,102.46c-.34-.05-.7.1-1.04.08.24-1.68-.43-3.75.57-5.5.74-1.31,2.6-1.49,3.42-.81.88.73,1.26,2.4.35,3.59-.97,1.27-2.55,1.53-3.3,2.64Z"/>
      <path class="cls-48" d="M41.59,58.17c-1.87-.06-3.6.39-4.93.15-.51.49-.95.84-1.33,1.04-.76.4-1.27.25-1.54-.47-.13-.35-.2-.82-.22-1.42v-1c.34-.58,1.01-.95,2-1.09h2c1.05.58,1.97.88,3,.01l2.25.08c.17.73.2,2.74-1.23,2.7Z"/>
      <path class="cls-66" d="M33.57,57.47c1.26-.22,2.04.65,3.08.85-3.65,1.88-.41,5.11-4.43,3.75-1.13-.89-2.07-2-2.84-3.33-.3.01-.63-.04-.92-.09.93-2.06,3.37-.87,5.11-1.17Z"/>
      <path class="cls-35" d="M35.57,55.38c-.51.59-1.22.98-2,1.09-1.01-.1-2.75.19-3.09-1.05l5.09-.04Z"/>
    </g>
    <g id="back-leg">
      <path class="cls-72" d="M53.97,109.88c.86,1.05,2.39.19,3.54-.57s3.83-4.31,3.45-5.94-2.2-5.55-2.2-7.37-2.68-8.52-2.39-10.34.57-5.94,0-7.85-2.68-5.94-2.78-6.99-2.59-7.66-2.87-8.9-2.87-5.55-4.88-5.65-4.31-.77-5.74-.67-14.46.86-15.7.48c-1.24-.38-2.2,3.06-2.01,4.69s-.29,7.09,2.11,7.56c2.39.48,6.61,4.21,8.23,4.31s2.68-1.53,3.83-.96,4.4,7.76,4.4,9.19,1.15,7.28,1.91,8.23,1.91,4.02,3.26,5.55c1.34,1.53,4.23,8.74,4.51,9.88s3.34,5.35,3.34,5.35Z"/>
      <path class="cls-92" d="M46.61,87.51c3.36-1.12,5.13,1.2,2.77,3.95,2.51.11,5.74,1.36,5.19,4.27l-.05,2.83c1.58,1.89,1.89,3.53.92,4.92.34,1.02.35,2.02.03,3.01,1.9,1.8,1.94,2.8.1,2.99.49,1.46.48,2.59-1.12,1.85-.68-1.81-1.29-3.74-3.05-4.75l-.77-2.02-1.09-6.07c-.52-2.91-2.36-4.43-3.94-6.78-2.81,1.25-4.87-5.95-2.24-7.34l.14-.63c1.42-1.05,2.46.21,3.11,3.79Z"/>
      <path class="cls-73" d="M32.67,65.69c2.71-.36,5.38.15,7.77,1.49,2.32,3.9,4.03,8.33,5.13,13.28,1.94,1.22,3.04,5.64,1.04,7.04-1.31-.98-1.27-3.41-3.11-3.79-3.82-10.01-5.73-15.02-5.73-15.02l.16.63c-1.47.24-2.97.37-4.49.37-1.73-.14-1.39-.86.13-1.92l-4.38.13c.75-2.25,2.48-1.66,3.48-2.22Z"/>
      <path class="cls-96" d="M43.5,83.72l-.14.63c-.63-2.06-3.05-3.72-3.72-5.81l-2.91-9.09-3.37,2.94c-.86.2-.64-.75-.58-1.2.07-.56.31-1.03.65-1.49,1.43-.88,2.81-2.34,5.08-2.25,1.91,2.81,1.54,6.21,3.19,8.99,1.39,2.35,2.38,4.71,1.79,7.27Z"/>
      <path class="cls-87" d="M46.67,58.46c2.37-1.87,5.18,3.09,2.99,4.98,2.92-.53,3.52,2.6.99,3.96-.26.88-.59.87-.99.02-1.56.9-3.09-.29-3.1-2.04-.86-.25-.82-.53.07-.84-1.63-1.67-2.05-2.89-1.66-4.99.09-.35.54-.67.69-1.02l1.01-.07Z"/>
      <path class="cls-72" d="M44.97,59.54c1.3,1.27,1.79,3.24,1.66,4.99-.55,1.27-1.49,1.84-2.49.97.48,2.29-.04,3.62-1.56,3.97,1.15.77,1.82,2.1,2,4,2.35.7,2.56,1.05.93,2.98,1.14,2.1,1.16,3.44.07,4.02-2.39-1.08-1.32-4.31-2.47-6.45-1.34-2.51-2.74-4.29-2.66-6.83.07-2.3,1.14-5.53-2.54-7.13,2.24-2.84,7,4.14,7.07-.51Z"/>
      <path class="cls-13" d="M50.63,104.54c-.27-.71-.97-1.24-1.06-2.07v-3l-.04-1c.33,1.85,2,3.75,1.09,6.07Z"/>
      <path class="cls-108" d="M53.03,73.35c2.77-.11,3.82,3.49,1.55,4.98,3.11.52,2.44,2.11.48,3.82l.26,4.32c.55.3.52.64-.02,1,2.26.69,4.62,3.99,2.25,5.77.4,3.41,3.03,5.82,3.03,9.23l-1.68-.19c-2.32-.36-4.45-4.36-4.32-6.54-1.76-.83-4.72-2.28-5.19-4.27,1.53-2.59,2.53-5.69,2.98-9.32l-3.82-14.05,1.13-.67.99-.02c3.08-.46,2.73,3.56,2.38,5.95Z"/>
      <path class="cls-7" d="M49.66,67.42c.36,8.48,4.84,8.65,3.09,19.06-.18,1.07,1.11,3.39.02,4.2-.76.57-2.33.24-3.4.77-.42-1.81-1.33-2.87-2.77-3.95.26-2.43-1-4.64-1.04-7.04l-.07-4.02c1.55.31,1.99-1.41,1.33-5.18-3.72-5.11-3.81-7.07-.28-5.89.94.82,1.93,1.59,3.1,2.04Z"/>
      <path class="cls-80" d="M54.57,95.73c2.67,1.25,4.09,3.25,4.32,6.54l-1.38,1.15c-.19.89-.51.87-.95.02-.3.88-.67.88-1.12.03-1.44-2.07-3.7-3.79-2.77-7.03.25-.87,1.34-.76,1.9-.72Z"/>
      <path class="cls-18" d="M46.63,64.53l-.07.84c-.74.28-1.13.94-.86,1.38.48.81,1.45,1.1,2.01,1.71,2.06,2.24.58,5.45,1.41,8.06.66,2.08,2.5,3.57,2.44,5.47-.07,2.32-.77,4.13-2.64,5.43-.13-4.15-1.11-8.16-3.42-10.99-.73-.9-1.22-1.7-.93-2.98-.22-1.71-.88-3.04-2-4-.18-2.59-.91-5.1-.45-7.88,2.3,1.06,2.97,2.64,4.5,2.94Z"/>
      <path class="cls-7" d="M44.57,73.47c-.82-1.03-1.9-2.59-2-4,1.33-.4,2.11.44,2.05,1.49-.05.97.12,1.76-.05,2.51Z"/>
    </g>
    <g id="back-shoe">
      <path class="cls-49" d="M66.99,123.58c-1.32-1.03-2.39-3.45-2.78-4.31s-1.72-2.97-1.82-4.5-.38-6.99-.57-8.04-.68-3.35-1.25-4.26-3.44-2.44-4.69-1.48-1.72,3.64-2.68,3.93c-.96.29-1.82,1.72-1.44,2.49s2.39,2.49,2.39,3.06,1.15,5.27,1.15,5.74.19,4.21.19,5.74.38,2.49,1.15,3.35,4.4,2.97,5.55,3.26c1.15.29,2.68.96,4.21.96s1.91-.29,1.91-1.05.86-3.16-1.34-4.88Z"/>
      <path class="cls-49" d="M56.9,112.71c3.04-.06,3.66,3.87,1.85,5.89,2.13-.55,2.58,1.99.74,2.86,1.88.31,2.43.59,1.06,2.06,1.42.96,2.1,2.23,2.02,3.82.29,1.05-.09,1.43-1.14,1.14-1.27-1.26-4.26-1.85-4.83-3.92-1.27-4.62-.63-9.2-2.14-13.25.44-.57.81-1.2,1.12-1.85,2.1-1.63,2.63,1.62,1.33,3.25Z"/>
      <path class="cls-104" d="M65.86,121.45l-.03,1.66c.08,2.31-1.13,2.32-1.79.06-1.46.55-2.81-.3-1.64-1.79-2.08.07-2.49-2.36-1.69-3.89-1.54-1.91-1.43-2.06,1.04-2.06,1.67,1.82,2.13,4.43,4.1,6.03Z"/>
      <path class="cls-42" d="M65.82,123.11c2.03,1.21,3.13,3.23,1.74,5.13-.85.26-1.14-.03-.87-.88-2.6.64-6.56-2.19-2.67-3.32-.85-.23-.83-.53,0-.88l1.79-.06Z"/>
      <path class="cls-111" d="M66.7,127.37c.35.21.62.56.87.88-1.37,1.88-4.38,1.97-6.14.23.44-.32.83-.7,1.14-1.14.38-1,1.21-.98,2.5.06l1.63-.03Z"/>
      <path class="cls-67" d="M61.65,113.46c.23.63.29,1.31.1,1.96s-.35,1.68-1.04,2.06c.48,2.52.03,2.64-1.96,1.11-1.56-1.67-.76-3.97-1.85-5.89.2-1.55.75-2.63,1.67-3.25.83-.79,1.38,0,1.67,2.38l1.41,1.61Z"/>
      <path class="cls-55" d="M60.57,102.46v5l1,5,.08,1c-2.42-.15-1.85-2.69-3.08-4-2.06-.04-2.06-.7,0-2-.84-1.33-1.19-2.67-1.07-4.04-1.6-2.13-.83-2.61,1.38-1.15.04-2.26,1.03-1.9,1.68.19Z"/>
      <path class="cls-67" d="M61.8,109.46c.03,1-.31,2.01-.23,3-1.73-.95-1-3.34-1-5,.79.29,1.21,1.18,1.23,2Z"/>
      <path class="cls-112" d="M58.57,107.46v2c0,.62.05,1.65-.14,2.23-.18.53-.66,1.6-1.53,1.02-.56-.99-.2-2.51-1.33-3.25l-.1-2.99c-.2-1.93.57-1.94,1.15-.01l1.95,1Z"/>
      <path class="cls-16" d="M55.43,103.47l1.12-.03c1.52.71,2.05,2.88.06,3.02h-1.15c-.59-.38-1.41-.86-1.52-1.61s.85-1.19,1.49-1.38Z"/>
      <path class="cls-68" d="M64.03,124.05c-.72,2.05,1.13,2.41,2.67,3.32-.6,1.88-2.79.38-4.13-.03-.87-.26-1.83-.87-2.42-1.77-.36-.54.05-1.42.4-2.05.93-1.73,2.38-.81,3.49.53Z"/>
      <path class="cls-85" d="M60.71,117.49c1.38.77,1.07,2.58,1.69,3.89.4,2.02-1.76,1.4-2.91.08-.49-.74-.13-2.22-.74-2.86.48-.66,1.31-.75,1.96-1.11Z"/>
      <path class="cls-65" d="M62.4,121.38c.33.71,1.16,1.2,1.64,1.79-.05.27.09.62,0,.88-1.18-.08-2.34-.25-3.49-.53-.31-.7-.63-1.42-1.06-2.06l2.91-.08Z"/>
      <path class="cls-67" d="M58.57,107.46c-.36.05-1.1.94-1.51.77-.58-.25-.37-1.38-.45-1.77l-.06-3.02.95-.02c.7.44,1.26,1.05,1.7,1.99.31.65.21,1.53-.63,2.05Z"/>
    </g>
    <g id="back-arm">
      <path class="cls-4" d="M74.65,53.59s-5.07-5.74-5.74-6.32-6.13-4.79-6.32-5.27-4.6-5.74-5.07-6.51-3.64-6.13-4.21-6.51-2.3-2.2-3.26-1.63-2.87,4.12-2.87,5.65.1,6.7,1.34,7.66,2.68,2.87,3.35,3.06,4.31.96,4.98,1.63,1.53,2.68,2.2,3.16,3.54,2.68,4.5,3.16,3.93,3.16,5.07,3.64,3.64.57,4.4.57,1.63-2.3,1.63-2.3Z"/>
      <path class="cls-91" d="M53.65,29.48c.76.96,1.94,1.8,2.16,3.04l.53,3.02c.47.75.26,1.06-.61.93-1.17,1.5-2.74-.32-2.31-1.99-1.47.61-1.76-.29-1.94-1.78-1.06-1.6-.78-4.03,1.32-3.03.26-.14.56-.16.85-.18Z"/>
      <path class="cls-98" d="M74.33,52.48c.73,1.93,2.9,2.52,4.24,3.99.78,1.73-.49,1.87-2,1-.23.85-.82.89-1.77.12-.2.96-.61,1.06-1.22.3-2.26,2.63-4.2.03-2.22-2.18-2.5-1-2.26-1.88.39-2.18-.81-.37-.74-.71.14-1.02l2.44-.02Z"/>
      <path class="cls-38" d="M71.65,51.61c-1.66,1.47-5.16-.95-4-2.98-2.41.71-4.19-1.9-3.73-4.06-.87-.3-.86-.65,0-1.04-.89-.15-.89-.46-.06-.92,2.57,1.59,7,5.64,7.78,9Z"/>
      <path class="cls-100" d="M71.65,51.61c.07.28.23.6.24.89.02.33-.08.69-.14,1.02-1.79,1.92-5.75-.74-5.87-3.16-.65-2.38-.63-2.41,1.77-1.72.96,1.37,2.37,2.71,4,2.98Z"/>
      <path class="cls-26" d="M60.48,39.45c.5.84.17,1.11-.87.91-2.03,1.4-4.5-1.93-3.87-3.89.15-.34.35-.66.61-.93,1.93.67,3.04,2.32,4.13,3.92Z"/>
      <path class="cls-58" d="M63.87,42.61l.06.92c-.61,1.9-2.63,1.66-4.35.93-.28.87-.62.86-1,0-.87-.28-.86-.62,0-1-1.27-2.16-.99-2.25,1.28-1.28-.13-1.7,1.56-1.42,2.65-.73.11.43.99.91,1.37,1.15Z"/>
      <path class="cls-34" d="M62.5,41.46c-.39,1.06-1.7.83-2.65.73-2.15.36-2.29-1.06-.24-1.83.32-.27.61-.57.87-.91.5.73,1.76.97,2.02,2.01Z"/>
      <path class="cls-4" d="M55.74,36.46c1.4,1.21,2.23,2.96,3.87,3.89l.24,1.83c-.31.53-.71,1.02-1.28,1.28-1.43,2.46-2.51,1.8-1.91-1-1.34-1.59-2.93-3.2-4.77-4.82l.78-1.37c-.62-.96-.37-1.57.75-1.81.59.8,1.56,1.35,2.31,1.99Z"/>
      <path class="cls-1" d="M52.68,36.28c1.02,2.39,3.9,3.54,3.98,6.19.25,1.92-.52,2.07-1.5.35-.17.5-.41.45-.71-.06l-3.88-4.29c-.11-.66.27-1.43.08-2.06.67-.14,1.35-.19,2.03-.13Z"/>
      <path class="cls-28" d="M54.45,42.76c-1.73,3.47-3.25.53-3.57-2.39.1-.25-.03-.65-.03-.93,0-.33-.22-.65-.28-.97,2.1.67,4.44,1.78,3.88,4.29Z"/>
      <path class="cls-9" d="M82.87,62.85c-.08.38-.39.74-.44,1.12-.47.79-.79.7-.97-.22-2.11-.04-4.06-2.95-1.89-4.27.31-.46.64-.45,1,0,1,.97,1.71,2.12,2.3,3.38Z"/>
      <path class="cls-25" d="M78.57,56.47c.8.87,1.16,2.18,2,3h-1c-1.2,2.12-3.23.15-3-2,.56-.38,1.23-1,2-1Z"/>
      <path class="cls-94" d="M76.57,57.47c.75.99,1.84,1.6,3,2,.2,1.58.75,3.13,1.89,4.27.8,3.66-1.61,2.65-2.59-.24-1.77-1.7-2.72-3.9-4.06-5.92.33-.91,1.21-.33,1.77-.12Z"/>
      <path class="cls-23" d="M71.75,53.52l-.39,2.18-1.67-.08-5.22-4.05.1-1.11c-.26-1.95.58-2,1.31-.11,1.56,1.68,3.55,2.97,5.87,3.16Z"/>
      <path class="cls-39" d="M67.65,48.63c-.32.81-.89,1.52-1.77,1.72l-1.31.11c-1.31-.63-2.98-1.57-3-3-1.28.62-2.22-1.15-1-2,.95-.52,2.07-.82,3.35-.89,2,.51,2.67,2.55,3.73,4.06Z"/>
      <path class="cls-3" d="M63.92,43.54v1.04c-.14.46-.38,1.39-.86,1.45-.95.13-1.74-.46-2.5-.56-1.07,1.01-1.41.45-1-1,1.43-.39,2.88-.72,4.35-.93Z"/>
      <path class="cls-19" d="M60.57,45.47l1,2c.39.84.01,1.14-1,1-1.29,1.43-1.95.95-1.24-.9-.56-.94-.76-2.02-.76-3.1h1l1,1Z"/>
      <path class="cls-30" d="M81.46,63.74l.97.22c-.23,1.56.2,3.43-1.94,4.73-1.2-1.35-.89-2.78-1.59-3.86-.22-.33.11-.96-.04-1.33.38.36.91.49,1.4.77s1.34.37,1.2-.53Z"/>
      <path class="cls-31" d="M64.57,50.47c.11.29-.07.69,0,1-.83-1.28-3.27-1.47-4-3,.3-.37.63-.7,1-1,1.29.66,2.47,1.62,3,3Z"/>
    </g>
    <g id="body">
      <path id="shirt" class="cls-22" d="M44.59,43.47c-2.88,1.65-3.38,2.78-1.49,3.4-1.39,2.66-.9,3.53,1.47,2.6l-1.91.89c1.08.07,1.4,1.15.98,3.22l.1,1.83c-.46-.83-.78-.84-.92.06l-2.25-.08h-3s-2-.01-2-.01l-5.09.04c-.3-.94-.73-1.55-1.18-1.82-.26-.33-.81-.69-1.66-1.11,4.5-.7,4.92-6.26,3.97-10.03.1-.31.05-.68.13-1,2.72.91,3.21.01,1-1.82,2.16-.12,2.44-1.17.83-3.17h1c1.7-1.55.7-7.07,0-9h-1c2.65-1.11,3.08-3.76,0-4-.33-.71.2-1.79.75-2.55.25.26,2.05,1.1,2.26,1.39.29.38.82.71.99,1.16.27.71,1.01,1.44,1.46,1.86,1.7,1.02,2.91,1.42,3.63,1.2.15,1.16.98,2.31,1.98,2.94-.76,1.44-1.85,3.6-.07,4,.15,2.48,1.57,6.37-2,6v1.03c1.46.12,2.42,1.55,2.02,2.97Z"/>
      <g>
        <path class="cls-29" d="M46.02,23.33c-.64-.05-2.36-1.72-2.74-.26s-.83,6.19-.7,7.6-.13,8.21,0,8.8-1.08,7.54-.83,8.18,1.15,1.15,1.28,2.87-.32,4.34-.06,5.62,1.6,5.49,2.94,4.47,2.43-1.28,2.94-1.6-.19-2.94-.13-4.21.32-7.53.7-8.68.45-3.26.77-4.47,1.02-1.91,1.21-3.51.51-2.26.48-3.87-.29-4.3-.41-5.51-2.74-5.23-5.43-5.43Z"/>
        <path class="cls-47" d="M52.06,37.36c0,.12-.03.24-.09.35h0c-.19.36-.66.67-1.4.76.36.12.52.31.49.55-.01.12-.09.26-.21.42-1.32,1.31-2.26,1.29-2.84.59-.71-.84-.88-2.68-.5-4.26.18-.8.51-1.54.96-2.04.09-.08.19-.17.29-.27-.21-1.07-.81-1.72-1.79-1.94-.08-.02-.16-.04-.24-.05-.48-.07-1.03-.06-1.67.04l-.42-2.04c-1-.63-1.83-1.78-1.98-2.94-.09-.77.11-1.55.76-2.21-2.18.16-1.42-1.72.3-2.1,2.49.93,4.69,2.51,6.65,4.28.71.86,1.07,1.87,1.08,3.05.01.71-.12,1.49-.37,2.32-.16.52-.36,1.06-.62,1.63.75.09,1.2.39,1.4.77.36.68-.11,1.63-1.21,2.14.94.03,1.41.48,1.41.95Z"/>
        <path class="cls-107" d="M47.51,35.77c.22,1.44.56,2.78.99,4.01-.18.06-.34.14-.49.25-1.42.87-1.15,2.97-.44,4.44,1.09,2.31-.63,8.51-2.38,4.64l-.62.36c-2.37.93-2.86.06-1.47-2.6-1.89-.62-1.39-1.75,1.49-3.4.4-1.42-.56-2.85-2.02-2.97v-1.03c3.57.37,2.15-3.52,2-6-1.78-.4-.69-2.56.07-4,.99.53,1.72,1.34,1.88.37.22-1.31-.52-2.07.63-3.41.56,2.33,1.31,4.64,1.61,7.03-.1.1-.2.19-.29.27-.65.54-1.06.45-1.24-.28.06.8.15,1.58.28,2.32Z"/>
        <path class="cls-29" d="M48.76,33.46c.22,1.74-.92,3.73.14,5.78.3.58,1.63.14,1.95.2.92.22.92.54.03.93-.64,2.34-1.4,3.71-2.31,4.1-.32-1.55-.65-1.55-1,0-1.72,1.55-.87-11.27-.84-13.1,1.19.65,1.02,1.88,2.03,2.09Z"/>
        <path class="cls-72" d="M48.4,56.46c.35,1.05.54,1.64.43,1.94-.14.39-.77.3-2.16.06-.23.89-.57.9-1.02.07-.3-1.22-.97-2.29-1.91-3.12l-.1-1.83c.42-2.07.1-3.15-.98-3.22l1.91-.89c-.23-1.93.48-2.59,1.53-.06.87-1.62,1.14-3.19,1.47-4.94.25-1.32-.62-2.83.55-4.06.97,1.61.25,2.92.45,4.06.48.07.9.19,1.08.46.33.49-.85,9.9-1.25,11.53Z"/>
      </g>
      <g>
        <path class="cls-88" d="M33.57,20.47c-1.72-.2-3.35-.3-4.88-.3s-3.73-.38-5.46.48-2.2,2.2-2.2,3.06,1.24,2.87.38,3.64-.48,4.31-.48,5.17,1.05,10.05.67,10.91-.77,9.1-.57,10.24.36,5.17,1.52,4.79,3.3-.25,4.26-.35c.96-.1,2.94-3.19,3.8-4.72.86-1.53,2.59-7.95,2.59-8.9s1.05-2.78,1.05-4.4.29-4.4.77-5.74-1.07-5.42-.44-6.87.44-4.04.44-4.81-1.44-2.19-1.44-2.19Z"/>
        <path class="cls-5" d="M33.57,27.47c-1.32,1.21-2.46-.38-2.06-1.81.03-.06.05-.12.06-.19-.71-.01-1.25-.08-1.62-.2-.76-.26-.82-.72-.18-1.39.36-.39.96-.86,1.8-1.41-1.52-.03-1.27-1.25,0-2h1c.29-.82.62-.8,1,0,.51.01.81.17.95.42.36.62-.22,1.78-.95,2.58,3.08.24,2.65,2.89,0,4Z"/>
        <path class="cls-21" d="M23.85,35.68c1.63.47,2.36,1.87,2.19,4.2l-2.46,14.59c.79.32.79.65,0,1,2.7-.41,2.6,1.13.18,2.08,1.14,1.77.48,2.29-1.2.93-1.23-3.2-.87-6.62-.96-10-.78-2.79-1.07-6.27.02-9,0-2.69.29-5.42-.63-8-1.27-2.51-.7-3.14,1.68-1.88,2.06.29,2.45,2.32,1.18,6.09Z"/>
        <path class="cls-88" d="M32.74,39.64c2.21,1.83,1.72,2.73-1,1.82-.36.11-.57-.06-.68-.3.03,1.03-.49,2.32-1.42,2.31-1.23,1.03-1.98,1.45-2.35,1.36-.58-.12-.33-1.4.3-3.44-2.25-.39-1.94-1.28.25-1.84-.13-1.35-.08-2.45.15-3.29.04-.13.08-.25.12-.37.27-.73.71-1.22,1.32-1.49-1.43-.6-1.97-1.9-1.94-3.13.02-.65.19-1.28.48-1.78.1-.19.22-.35.35-.49l.32-.27h0c.26-.19.55-.28.87-.25,0-.27.13-.55.37-.82h0c.15-.18.35-.34.59-.51-1.33-1.12-1.42-1.8-.54-1.88.38-.05.92.02,1.62.2.62.71,1.28,1.39,2,2,.86,2.43.8,6.47,0,9,1.61,2,1.33,3.05-.83,3.17Z"/>
        <path class="cls-63" d="M31.57,25.47c-.15.66-.77,1.06-1.08,1.68l-2.51,2.14c-.07,2.05-.93,3.04-2.59,2.97.7,3.42.19,4.56-1.55,3.43-.41-2.03-.37-4.17-1.18-6.09.55-.53.44-1.44.85-2.01-2.86-2.35,2.65-6.56,3.92-3.25,0-1.71.93-2.14,2.14-.86.56-.46,1.4-.59,2-1-.22,1.01-.81,2.12,0,3Z"/>
        <path class="cls-53" d="M25.91,33.65c2.63,1.35,2.75,3.11,1.94,5.89-.24.52.06,1.37-.25,1.85.14,1.99-.3,4.1-1.33,6.34.08,3.62-.82,5.86-2.69,6.74-.41-6.28,1.53-12.62.27-18.79.96-.65,1.2-2.34,1.55-3.43,1.91-.43,2.17.33.51,1.4Z"/>
        <path class="cls-20" d="M29.64,43.46c-.55,2.95-1.5,5.89-2.85,8.84,1.04,2.35-1.4,5.88-3.22,3.16-.02-.27-.13-.77,0-1,2.25-4.06,1.46-9.12,4.02-13.08-.1.67-.1,1.62.56,1.94.47.23,1.06.15,1.48.13Z"/>
        <path class="cls-14" d="M30.49,27.14c1.24.65.7,2.42,1.08,3.32-.76.18-.88-.77-1.9-1.07-.02,2.15-.08,3.49-.24,5-.42,2.86-1.6,2.61-3.52-.75l-.51-1.4c.42-1.3.09-2.72,1.09-4.17.88-1.27,2.31-1.89,4-.93Z"/>
        <path class="cls-70" d="M27.64,52.49l-.85-.18c-.62-3.39.49-6.29,2.85-8.84.62-1.29.46-2.87,1.43-4.04.9.86.37,1.59.67,2.03-.08.32-.03.69-.13,1,.95,3.77.53,9.33-3.97,10.03Z"/>
        <path class="cls-63" d="M29.43,34.4c-.2,1.82-.22,3.76-1.58,5.14-.36-2.05-1.23-3.95-1.94-5.89,1,.8,2.3.67,3.52.75Z"/>
        <path class="cls-84" d="M34.57,36.47h-1v-9h1c.7,1.93,1.7,7.45,0,9Z"/>
        <path class="cls-110" d="M31.57,30.47c1.44,2.12,2.19,5.6-.98,7.12.27-2.89,1.55-4.84.98-7.12Z"/>
        <path class="cls-63" d="M26.57,21.47c.44.9.77,1.85.86,2.86-2.17-.65-2.81,1.69-3.92,3.25-.68-.23-1.34-.54-1.87-1.03-2.2-.04-2.49-.78-.85-2.23-.94-1.85,1.08-2.37,2.76-1.86-.23-1.62,1.85-2.2,3.02-.99Z"/>
      </g>
    </g>
    <g id="Head">
      <path class="cls-79" d="M50.62,6.29c0-.7-.19-2.94-1.02-3.64S42.44-.32,40.4.43s-3.76,1.45-4.66,2.67-2.11,3.06-1.85,4.79.57,3.19.51,4.85-1.85,4.6-1.85,5.3-.79,2.63.02,2.43,3.24,1.01,3.68,1.91,2.55,4.02,3.26,4.02,2.47.9,3.15.13,1.45-2.37,1.38-3.32-.89-1.85-1.21-2.3.57-1.09,1.72-.96,2.68-.13,3.32-.89,1.09-2.81,1.09-3.45.51-.77.89-.64.96.38.96-.06-.96-1.53-.96-1.85-.38-1.34-.32-1.66,1.09-5.11,1.09-5.11Z"/>
      <path class="cls-79" d="M34.57,19.47c.78,1.35.34,1.88-1,1h-1c.66-2.49,2.58-4.37,2-7,.28-.87.62-.86,1,0,3.7.61,1.81,5.53-1,6Z"/>
      <path class="cls-44" d="M36.57,6.47c2.47.66,1.38,4.3-1,3-.32.62-.65.29-1-1-.18-1.17.17-2.2,1-3,.89-.46,1.19-.08,1,1Z"/>
      <path class="cls-77" d="M35.57,9.47c2.05.13,1.93,1.51.36,2.59,1.86.63,1.64,1.31-.36,1.41h-1c-.35-1.6.24-3.38,0-5,.35.23.91.54,1,1Z"/>
      <path class="cls-59" d="M37.57,3.47c2.79.58,1.54,3.52-1,3-.3-.37-.63-.7-1-1,.46-.45-.32-2.12.74-2.13.32.21.9-.03,1.26.13Z"/>
      <path class="cls-102" d="M40.33,1.26c1.29-.36,2.55-.18,2.31,1.23,1.93,1.33,1.23,2.56-1.08,2.07,1.23,1.52,1.13,2.58-.8,2.66.45,2.81-.52,4.11-2.91,3.92.33,2.62-.03,2.77-1.92.91-.11-.86-.19-1.74-.36-2.59,1.46-.39.49-2.19,1-3,.63-1.01,1.01-1.73,1-3,0-.67.36-1.2.62-1.61.35-.57,1.72-.69,2.14-.59Z"/>
      <path class="cls-40" d="M48.56,2.67l.07.76c-.2,1.7-.52,1.32-1.21-.21-1.34.9-3.86.99-4.78-.72-.79-.36-1.56-.78-2.31-1.23-.07-.28-.04-.56.07-.83,2.92.44,6.6-.73,8.16,2.24Z"/>
      <path class="cls-81" d="M39.85,17.47c-.05.45-.14.89-.32,1.27-.12.26-2.02,3.19-2.95,3.57-.21-.29-.64-.39-.89-.65-.15-.83-.44-1.66-1.12-2.19,1.18-1.76,1.09-3.95,1-6-.02-.46.42-.95.36-1.41.64-.25,1.24-.77,1.92-.91.1-.13.19-.26.28-.39,1.16-1.49,1.98-2,2.62-1.28.33.37.6,1.07.85,2.14.19.19.34.39.47.61,1.1,1.89-.02,4.61-2.22,5.24Z"/>
      <path class="cls-75" d="M49.61,12.58c-.04,1.72-.37,3.41-1.05,4.99-.38.88-.6,2.31-1.72,2.6-1.72.25-1.91-.44-.22-1.17l-.27-.7c-2.36-2.24-1.54-6.74,2.02-6.84,1.04-.33,1.45.04,1.24,1.11Z"/>
      <path class="cls-8" d="M43.42,24.32c.17,1.28-.08,2.01-.76,2.21-.72.22-1.93-.18-3.63-1.2-.45-.42-1.19-1.15-1.46-1.86.28-.87.62-.86,1,0,.2-.53.5-.95.91-1.26.22-.19.48-.33.77-.44.38-.16.82-.26,1.32-.3-.47-.51-.7-.91-.72-1.17-.03-.25.12-.37.41-.35.29.01.73.17,1.29.5-.1.88.93,1.06,1.17,1.77l-.3,2.1Z"/>
      <path class="cls-17" d="M46.63,19.01l.22,1.17c-1.38.37-2.89.24-4.3.27-2.14-2.48,2.04-3.02,4.08-1.43Z"/>
      <path class="cls-101" d="M50.47,8.24c-.17,2.66-1.1,2.52-1.84-.03-1.68.37-2.05-1-1.1-4.09-.92-.05-.93-.36-.1-.9.36.15.84.08,1.21.21,2.04.75,1.9,2.96,1.83,4.81Z"/>
      <path class="cls-11" d="M50.47,8.24c-.05,1.51.47,3.19-.86,4.34-.36-.43-.78-.8-1.24-1.11-2.67-.16-2.61-1.08-.12-1.98-1.92-.5-1.66-1.3.37-1.27l1.84.03Z"/>
      <path class="cls-89" d="M45.77,4.57c3.23.2,2.36,3.92-1.11,4.43l-1.94,2.57c-.33.9-.7.92-1.11.05-1.2-.36-2.49-.73-3.75-.47,1.6-2.03,1.64-4.89,3.71-6.58,1.12-1.34,3.13-1.19,4.21,0Z"/>
      <path class="cls-62" d="M47.43,3.22c.07.29,0,.62.1.9.66,1.62.07,1.77-1.76.45-1.26,1.05-2.89.88-4.21,0,.57-.47.61-1.52,1.08-2.07,1.59-.92,3.23.06,4.78.72Z"/>
      <path class="cls-105" d="M41.26,19.95c-.08.14-.22.26-.41.35-.3.14-.73.22-1.28.17.28.2.46.43.58.68.09.2.12.41.1.62,0,.25-.08.5-.21.72-.27.49-.8.88-1.47.98h-1c-.17-.45-.7-.78-.99-1.16.94-1.15.74-4.29,1.62-4.71.54-.26,1.18-.21,1.65-.13.76.1.95.35.59.77-.02.02-.04.03-.05.04-.1.09-.2.18-.29.27,1.11.3,1.45.93,1.16,1.4Z"/>
      <path class="cls-10" d="M48.26,9.48l.12,1.98c-1.33,2.07-1.09,4.63-2.02,6.84-2.32.29-4.4.37-6.25.24.09-.33-.28-.74-.25-1.08.21-2.13.28-4.2,1.75-5.85.33.1.77-.11,1.11-.05-1.33-2.66,5.43-4.99,5.54-2.08Z"/>
      <path class="cls-81" d="M46.36,18.31c.07.24.23.45.27.7-1.66-.31-3.61-.51-4.08,1.43-.13.38-.79.64-.97,1.03-1.24,1.8-2.98,1.07-2-1l.53-1.92c1.82-1.81,4.12-1.39,6.25-.24Z"/>
      <path class="cls-106" d="M47.52,4.12c.45,1.34.98,2.67,1.1,4.09.04.42-.4.85-.37,1.27-2.3-.8-3.65,1.05-5.54,2.08-.07-1.35-1.36-2.13-1.1-4.07,1.89.88,3.84.57,5.25-1.22.62-.78-.21-1.99-1.1-1.71.58-.19,1.16-.34,1.76-.45Z"/>
      <g id="eye">
        <g>
          <path class="cls-22" d="M47.87,10.02c-.21-.22-.64-.57-1.1-.43s-.86.06-1.07.22.06.35.38.53,1.63.94,1.88.73-.1-1.05-.1-1.05Z"/>
          <path d="M47.86,10.03c-.45-.38-.83-.4-1.38-.19-.26.06-.58.06-.65.14-.01.03.03-.06.01-.07,0,0,.03.04.07.06.62.35,1.29.82,1.96.99.18-.16.04-.67,0-.93h0ZM47.88,10.02c.79,1.93-.94.81-1.79.36-.17-.11-.65-.31-.41-.57.24-.16.52-.11.77-.16.55-.18,1.04-.09,1.43.37h0Z"/>
        </g>
        <g>
          <path d="M47.7,10.21c-.18-.24-.32-.26-.47-.16s-.2.3-.17.43.4.36.6.3.22-.39.2-.44-.16-.13-.16-.13Z"/>
          <path class="cls-22" d="M47.76,10.47c0,.07-.07.13-.13.13s-.13-.05-.13-.1h.02c.08,0,.15-.07.15-.13,0-.02,0-.03-.02-.05.07.02.12.07.12.15Z"/>
        </g>
        <path class="cls-86" d="M48.06,9.64c-.51-1.03-.83-1.07-1.77-.5-.24.13-.48.3-.76.36.26-.09.47-.29.69-.46.44-.36,1.12-.85,1.66-.36.26.2.44.48.6.67.22.27-.24.59-.41.29h0Z"/>
      </g>
      <g id="eye-2" data-name="eye">
        <g>
          <path class="cls-22" d="M49.41,10.32c.08-.08.25-.21.41-.13s.31.06.37.13-.04.14-.16.2-.62.31-.71.22.08-.42.08-.42Z"/>
          <path d="M49.4,10.31c.15-.21.35-.23.55-.14.09.03.2,0,.32.13.06.12-.05.19-.08.22-.22.14-.45.22-.7.28-.35.08-.21-.32-.08-.49h0ZM49.41,10.32c-.06.13-.22.49.06.42.17-.06.73-.23.73-.4-.05-.08-.17-.07-.26-.1-.18-.11-.39-.07-.53.08h0Z"/>
        </g>
        <g>
          <path d="M49.46,10.4c.08-.09.12-.09.18-.05s.06.13.04.18-.16.13-.23.1-.06-.16-.05-.18.06-.05.06-.05Z"/>
          <path class="cls-22" d="M49.43,10.5s.02.06.04.06.05-.01.05-.03h0s-.05-.03-.05-.06c0,0,0-.01,0-.02-.02,0-.04.02-.05.05Z"/>
        </g>
        <path class="cls-86" d="M49.22,10.03c.11-.15.37-.42.58-.26.19.12.29.32.47.43-.25-.07-.48-.52-.73-.29-.1.06-.14.35-.31.27-.05-.03-.06-.11-.01-.15h0Z"/>
      </g>
      <path class="cls-101" d="M49.8,12.88s-.19-.62-.27-1.15-.74-1.47-.76-1.66-.13.35-.13.65.44,1.9.17,2.23-.78.57-.78.83.13,1.05.35.89.48-.3.7-.24.61.21.73.1.13-.59.13-.73-.14-.93-.14-.93Z"/>
      <path class="cls-86" d="M34.01,6.05c.38.19,1.39.62,1.82-.1s1.01-2.05,1.75-2.48,3.04-1.35,4-1.25,3.83.05,4.74.48,1.34,1.34,1.96,1.15,1.53-.53,1.53-.91-2.87-1.96-3.11-2.11S41.95-.13,41.14.02s-5.98,2.2-6.22,2.97-.91,3.06-.91,3.06Z"/>
      <path class="cls-109" d="M37.4,10.52c.17.09.27.22.47.16.09-.02.17-.06.25-.02.07.04.28.08.32.22-.07.16-.18.22-.29.26-.11.05-.23,0-.34-.04-.24-.05-.4-.31-.45-.54-.01-.02.02-.05.04-.03h0Z"/>
      <path class="cls-79" d="M37.43,10.47c-.02-.13.05-.49.13-.66s.48-.53.76-.58.65-.29.64-.31-.69-.3-.83-.33-.46-.02-.56.06-.29.39-.3.51-.05.93-.02,1.04.19.28.19.28Z"/>
      <path class="cls-75" d="M39.06,8.97c-.19-.51-.51-1.02-1.09-.77s-1.15,1.02-1.02,1.79-.06,1.53-.13,1.91.06,1.02.83.51c0,0,.37-.34.22-.45s-.36-.05-.38-.41-.12-1.32-.12-1.58-.05-1.12.29-1.27,1.39.38,1.39.38v-.12Z"/>
      <path class="cls-93" d="M35.92,5.3c1.07-4.05,7.57-3.96,10.5-2.68.63.78,1.44,1.36,2.36.99,1.44-1.32-3.3-2.03-4.32-2.3-.97-.03-4.32-.02-4.6.14s-2.92.91-3.51,1.47c-.65.86-1.56,2.28-.43,2.38Z"/>
      <path class="cls-60" d="M48.37,16.68c-.24-.02-.26.02-.5-.1s-1.05-.12-1.39-.07-1.12.29-1.27.34-.17.07-.02.24,1.03.14,1.29.17,1.03.29,1.24.41.82-.08.84-.09.38-.61.28-.68-.48-.22-.48-.22Z"/>
    </g>
    <g id="front-arm">
      <path class="cls-83" d="M25.2,17.3c-1.01.19-5.36,2.15-6.03,2.2s-6.32,1.91-7.13,1.96-4.36.91-5.36,1.1-3.73,1.34-4.4,1.82-2.01,2.39-1.58,2.82.53,1.15,1.68,1.34,13.79-2.97,14.51-3.54,5.84-3.16,6.61-3.64,2.68-1.68,2.68-2.54-.96-1.53-.96-1.53Z"/>
      <path class="cls-36" d="M20.7,29.65c-.96-.29-4.79-1.15-7.18-1.34-2.39-.19-8.62,1.29-9.14.72s-.29-3.16.53-3.78,4.6.72,6.89-.19c2.3-.91,6.03-1.53,7.8-1.68,1.77-.14,4.26.24,4.5.77s.19,2.82-.05,3.78-1.34,1.72-2.3,2.01c-.96.29-1.05-.29-1.05-.29Z"/>
      <path class="cls-114" d="M29.57,17.47c.47.31.46.64,0,1-.28.87-.62.86-1,0-.32,1.55-2.13,1.26-3,0-1.07,1.72-3.44,1.15-2-1,1.25.08,2.04-.35,3-1.01,1.16-.81,2.26.6,3,1.01Z"/>
      <path class="cls-115" d="M31.57,20.47c-.08.64.14,1.37,0,2-.75,2.08-1.42,2.41-2,1-1.77-.03-1.91-1.81,0-2-.6-.81-.45-2.01,0-3v-1c1.17.66,2.2,1.42,2,3Z"/>
      <path class="cls-15" d="M7.57,24.39c2.8-.72,4.8-.69,6,.08-.04-1.88.78-1.86,1.23.07,1.99.14,1.41,1.14-.23,1.93-.24.9-.58.88-1,0-1.56,1.47-3.87,1.93-6,2-1.42.32-3.03.65-4.86,1-1.17,0-1.51-1.24-1.06-2.28.27-.62,1.03-1.32,1.76-1.74,1.1-1.55,2.86-2.66,4.15-1.06Z"/>
      <path class="cls-33" d="M23.51,27.58c1.87.88,1.24,2.42-.85,2.01-.61.58-1.16,1.22-1.68,1.88-.14-.39-.53-.73-.6-1.13-.31-1.83-2.24-1.87-3.81-1.87-.87-.28-.86-.62,0-1,1.14-1.47,3.6-2.54,5.07-.93,1.4-1.25,2.19-.82,1.87,1.03Z"/>
      <path class="cls-52" d="M7.49,22.4c1.42-.94,2.7-.67,2.08,1.07.43,1.31-.8,1.39-2,.92-1.45.03-2.82.53-4.15,1.06.19-2.03,2.12-3.04,4.07-3.06Z"/>
      <path class="cls-45" d="M25.57,18.47c.87.28.86.62,0,1-.19,2.79-6.03,1.94-8.06.79l3.95-1.84c.62-.29,1.42-.97,2.1-.95.21.92,1.21,1,2,1Z"/>
      <path class="cls-74" d="M29.57,21.47c-.2,2.04-2.09,1.87-3,0-.95-.25-.93-.59,0-1,.19-1.14,1.14-1.67,2-2h1c.32.48.62.98.76,1.67.1.5-.47.91-.76,1.33Z"/>
      <path class="cls-97" d="M28.57,18.47c.02.42.08.96-.15,1.41-.32.63-1.2.68-1.85.59-1.19.72-1.63.22-1-1v-1h3Z"/>
      <path class="cls-57" d="M29.57,21.47v2c-.56.46-1.3,1.11-2.14.86-2.64,0-2.63-.98-.86-2.86h3Z"/>
      <path class="cls-54" d="M17.51,20.25c.93.2.9.62.06,1.21,2.05,1.62-1.04,4.79-2.77,3.07l-1.23-.07c-2.66-.32-2.54-1.24,0-2,.64-1.87,2.51-1.55,3.94-2.21Z"/>
      <path class="cls-83" d="M13.57,22.47v2c-2.14-.12-4.48,1.92-6-.08l2-.92c.69-.32,1.39-.54,2-1,.56-.2,1.4.12,2,0Z"/>
      <path class="cls-12" d="M19.65,21.77c1.62.84,1.27,1.88-.37,2.34,1.33,2.24-1.97,3.1-3.71,2.23-.12.94-.46.96-.99.13l.23-1.93c1.62-.08,2.63-1.52,2.77-3.07.77-.84,1.54-.75,2.08.3Z"/>
      <path class="cls-99" d="M15.57,26.34c1.41-.28,1.91-.05,1.01,1.13v1h-4l1-2c.33-.03.67.05,1,0s.69-.02.99-.13Z"/>
      <path class="cls-76" d="M21.64,26.54c-1.45,1.07-3.33.97-5.07.93-.56-.01-.98-.62-1.01-1.13,1.35-.49,2.64-1.3,3.71-2.23.67-1.84,1.39-1.76,1.51.21.52.48.89,1.45.85,2.23Z"/>
      <path class="cls-24" d="M26.57,20.47c-.04.28-.11.75,0,1-1.05.17-2.1.45-3.02.99-2.12.58-3.42.35-3.9-.69-.67.02-1.39-.39-2.08-.3,0-.41-.02-.81-.06-1.21,2.7.13,5.87,1.13,8.06-.79.68-.13,1.08.34,1,1Z"/>
      <path class="cls-36" d="M23.55,22.46c-.95.56-1.9,1.16-2.76,1.86-.29-.26-1.22-.46-1.51-.21-.35-.76.16-1.57.37-2.34,1.26-.03,3.31-.84,3.9.69Z"/>
    </g>
  </g>
</svg>