<?xml version="1.0" encoding="UTF-8"?>
<svg id="Enemy" xmlns="http://www.w3.org/2000/svg" viewBox="0 0 62.08 135.31">
  <defs>
    <style>
      .cls-1 {
        fill: #ba8a66;
      }

      .cls-2 {
        fill: #4f4b46;
      }

      .cls-3 {
        fill: #fbcba3;
      }

      .cls-4 {
        fill: #f9cfab;
      }

      .cls-5 {
        fill: #0d0f57;
      }

      .cls-6 {
        fill: #98918d;
      }

      .cls-7 {
        fill: #05175f;
      }

      .cls-8 {
        fill: #b08d83;
      }

      .cls-9 {
        fill: #8f4f15;
      }

      .cls-10 {
        fill: #f6c7a7;
      }

      .cls-11 {
        fill: #b59c91;
      }

      .cls-12 {
        fill: #c7916f;
      }

      .cls-13 {
        fill: #54575a;
      }

      .cls-14 {
        fill: #0e1857;
      }

      .cls-15 {
        fill: #f5be96;
      }

      .cls-16 {
        fill: #2a292e;
      }

      .cls-17 {
        fill: #8d6354;
      }

      .cls-18 {
        fill: #081e79;
      }

      .cls-19 {
        fill: #c3a38e;
      }

      .cls-20 {
        fill: #071554;
      }

      .cls-21 {
        fill: #0a0b23;
      }

      .cls-22 {
        fill: #fff;
      }

      .cls-23 {
        fill: #b88b73;
      }

      .cls-24 {
        fill: #e4873b;
      }

      .cls-25 {
        fill: #884009;
      }

      .cls-26 {
        fill: #bd907d;
      }

      .cls-27 {
        fill: #091251;
      }

      .cls-28 {
        fill: #bb9c85;
      }

      .cls-29 {
        fill: #1930a7;
      }

      .cls-30 {
        fill: #dbb69f;
      }

      .cls-31 {
        fill: #aa9278;
      }

      .cls-32 {
        fill: #021558;
      }

      .cls-33 {
        fill: #985837;
      }

      .cls-34 {
        fill: #c3957c;
      }

      .cls-35 {
        fill: #010634;
      }

      .cls-36 {
        fill: #6f3810;
      }

      .cls-37 {
        fill: #091042;
      }

      .cls-38 {
        fill: #cdab90;
      }

      .cls-39 {
        fill: #fee3ba;
      }

      .cls-40 {
        fill: #968576;
      }

      .cls-41 {
        fill: #413d3b;
      }

      .cls-42 {
        fill: #574f4b;
      }

      .cls-43 {
        fill: #756d69;
      }

      .cls-44 {
        fill: #784f34;
      }

      .cls-45 {
        fill: #af5d18;
      }

      .cls-46 {
        fill: #0b0e23;
      }

      .cls-47 {
        fill: #0f1c5e;
      }

      .cls-48 {
        fill: #151f56;
      }

      .cls-49 {
        fill: #2a2824;
      }

      .cls-50 {
        fill: #8e857d;
      }

      .cls-51 {
        fill: #2b2726;
      }

      .cls-52 {
        fill: #b38f77;
      }

      .cls-53 {
        fill: #040d34;
      }

      .cls-54 {
        fill: #fcd8b6;
      }

      .cls-55 {
        fill: #282627;
      }

      .cls-56 {
        fill: #918a84;
      }

      .cls-57 {
        fill: #b6856c;
      }

      .cls-58 {
        fill: #edb490;
      }

      .cls-59 {
        fill: #9c7959;
      }

      .cls-60 {
        fill: #d38269;
      }

      .cls-61 {
        fill: #47423d;
      }

      .cls-62 {
        fill: #cb9974;
      }

      .cls-63 {
        fill: #051143;
      }

      .cls-64 {
        fill: #061b6e;
      }

      .cls-65 {
        fill: #4a3f37;
      }

      .cls-66 {
        fill: #0e1e6e;
      }

      .cls-67 {
        fill: #3d3635;
      }

      .cls-68 {
        fill: #766b62;
      }

      .cls-69 {
        fill: #373227;
      }

      .cls-70 {
        fill: #070a3d;
      }

      .cls-71 {
        fill: #89847d;
      }

      .cls-72 {
        fill: #07175b;
      }

      .cls-73 {
        fill: #030c34;
      }

      .cls-74 {
        fill: #c06d17;
      }

      .cls-75 {
        fill: #ba8b79;
      }

      .cls-76 {
        fill: #f4bc98;
      }

      .cls-77 {
        fill: #6b523a;
      }

      .cls-78 {
        fill: #26292e;
      }

      .cls-79 {
        fill: #8c674e;
      }

      .cls-80 {
        fill: #0a134f;
      }

      .cls-81 {
        fill: #efad88;
      }

      .cls-82 {
        fill: #444240;
      }

      .cls-83 {
        fill: #fee0ae;
      }

      .cls-84 {
        fill: #0f2175;
      }

      .cls-85 {
        fill: #59524e;
      }

      .cls-86 {
        fill: #f15a24;
      }

      .cls-87 {
        fill: #0b102f;
      }

      .cls-88 {
        fill: #081e77;
      }

      .cls-89 {
        fill: #f6ad80;
      }

      .cls-90 {
        fill: #606275;
      }

      .cls-91 {
        fill: #d2a591;
      }

      .cls-92 {
        fill: #0d0e21;
      }

      .cls-93 {
        fill: #f7931e;
      }

      .cls-94 {
        fill: #dd9a59;
      }

      .cls-95 {
        fill: #050f38;
      }

      .cls-96 {
        fill: #0c0f25;
      }

      .cls-97 {
        fill: #e4892e;
      }

      .cls-98 {
        fill: #a86d3a;
      }

      .cls-99 {
        fill: #b17660;
      }

      .cls-100 {
        fill: #f0c7a5;
      }

      .cls-101 {
        fill: #836851;
      }

      .cls-102 {
        fill: #d4996e;
      }

      .cls-103 {
        fill: #88807a;
      }

      .cls-104 {
        fill: #2f2924;
      }

      .cls-105 {
        fill: #feccad;
      }

      .cls-106 {
        fill: #db9770;
      }

      .cls-107 {
        fill: #101e78;
      }

      .cls-108 {
        fill: #171a35;
      }

      .cls-109 {
        fill: #8c6239;
      }

      .cls-110 {
        fill: #142796;
      }

      .cls-111 {
        fill: #2a2522;
      }

      .cls-112 {
        fill: #483f3d;
      }

      .cls-113 {
        fill: #837d78;
      }

      .cls-114 {
        fill: #9a602e;
      }

      .cls-115 {
        fill: #976047;
      }
    </style>
  </defs>
  <g id="CrimeGuy_attack">
    <g id="back-leg-assembly">
      <g id="back-leg">
        <path class="cls-72" d="M36.8,111.41c.84,1.24,2.34.38,3.48-.4s3.86-4.67,3.47-6.55-2.23-6.4-2.23-8.46-2.66-9.61-2.38-11.66.57-6.7,0-8.83-2.62-6.45-2.71-7.61-2.47-8.22-2.75-9.56-2.69-5.71-4.54-5.53c-1.82.17-3.88-.23-5.15.07s-12.09,2.74-13.08,2.5-1.73,3.33-1.58,4.93-.22,7.11,1.65,7.4,5.34,3.8,6.69,3.78c1.37-.01,2.26-1.79,3.24-1.27.99.52,3.83,7.92,3.83,9.45s1.02,7.73,1.7,8.74,1.73,4.31,2.95,5.97c1.23,1.68,3.93,9.65,4.2,10.91s3.2,6.12,3.2,6.12Z"/>
        <path class="cls-92" d="M29.86,86.62c3.12-1.29,4.8,1.23,2.57,4.27,2.38.11,5.49,1.49,4.95,4.75l-.05,3.16c1.55,2.16,1.85,4.01.89,5.53.34,1.16.35,2.28.03,3.37,1.87,2.14,1.91,3.27.1,3.35.48,1.67.47,2.95-1.1,1.99-.66-2.07-1.24-4.25-2.94-5.48l-.73-2.27-1.03-6.71c-.49-3.19-2.2-4.87-3.64-7.42-2.54,1.35-4.37-6.31-2.03-7.86l.13-.68c1.29-1.19,2.23.14,2.83,4.01Z"/>
        <path class="cls-73" d="M17.65,64.31c2.29-.64,4.58-.36,6.66.84,2.06,3.96,3.59,8.59,4.6,13.88,1.78,1.24,2.8,6.02.95,7.6-1.2-1.04-1.17-3.66-2.83-4.01-3.39-10.49-5.05-15.63-5.05-15.63l.14.65c-1.27.38-2.54.63-3.83.76-1.45,0-1.16-.78.11-2l-3.62.5c.62-2.37,2.04-1.93,2.87-2.59Z"/>
        <path class="cls-96" d="M27.03,82.62l-.13.68c-.56-2.19-2.71-3.85-3.29-6.04l-2.52-9.38-2.86,3.33c-.72.27-.54-.73-.49-1.2.06-.58.26-1.09.55-1.6,1.2-1.03,2.38-2.68,4.34-2.78,1.67,2.81,1.35,6.45,2.8,9.3,1.24,2.43,2.13,4.92,1.6,7.7Z"/>
        <path class="cls-87" d="M29.91,55.08c2.2-2.36,4.85,2.73,2.78,5.06,2.77-.93,3.34,2.49.94,4.25-.25.99-.56,1.02-.93.12-1.46,1.13-2.87-.02-2.88-1.92-.79-.18-.75-.49.06-.92-1.49-1.63-1.87-2.89-1.51-5.21.08-.39.49-.79.62-1.19l.93-.2Z"/>
        <path class="cls-72" d="M28.36,56.47c1.18,1.21,1.64,3.29,1.51,5.21-.51,1.44-1.36,2.15-2.27,1.3.43,2.42-.04,3.9-1.4,4.41,1.03.73,1.63,2.11,1.8,4.14,2.15.59,2.34.96.85,3.15,1.04,2.2,1.06,3.66.06,4.34-2.16-1.05-1.2-4.58-2.23-6.8-1.2-2.58-2.43-4.36-2.37-7.07.06-2.45,1-6-2.22-7.28,1.95-3.28,6.2,3.63,6.27-1.4Z"/>
        <path class="cls-13" d="M33.6,105.29c-.25-.79-.92-1.41-.99-2.32v-3.29l-.04-1.1c.31,2.03,1.89,4.19,1.03,6.71Z"/>
        <path class="cls-108" d="M35.89,70.77c2.69-.34,3.72,3.63,1.5,5.44,3.06.4,2.4,2.24.47,4.25l.25,4.83c.53.33.51.7-.02,1.12,2.23.73,4.59,4.45,2.21,6.47.39,3.86,3.04,6.65,3.04,10.54l-1.7-.29c-2.31-.5-4.39-5.04-4.27-7.48-1.7-.94-4.52-2.57-4.95-4.75,1.45-2.86,2.39-6.31,2.82-10.33l-3.61-15.2,1.06-.85.93-.12c2.95-.83,2.61,3.68,2.27,6.37Z"/>
        <path class="cls-7" d="M32.69,64.52c.34,9.28,4.63,9.17,2.94,20.84-.17,1.19,1.07,3.75.02,4.66-.73.63-2.22.28-3.22.87-.39-1.98-1.24-3.12-2.57-4.27.24-2.65-.92-5-.95-7.6l-.06-4.34c1.42.24,1.83-1.66,1.22-5.71-3.38-5.18-3.46-7.27-.25-6.37.87.79,1.78,1.54,2.88,1.92Z"/>
        <path class="cls-80" d="M37.38,95.64c2.62,1.45,4.04,3.73,4.27,7.48l-1.38,1.25c-.19.99-.51.95-.94-.02-.29.98-.66.96-1.1-.01-1.4-2.36-3.57-4.35-2.69-7.91.24-.96,1.29-.83,1.84-.77Z"/>
        <path class="cls-18" d="M29.87,61.68l-.06.92c-.68.38-1.03,1.13-.79,1.59.44.83,1.33,1.05,1.85,1.67,1.92,2.27.54,5.89,1.31,8.7.62,2.24,2.36,3.78,2.31,5.89-.06,2.57-.73,4.58-2.49,6.05-.13-4.54-1.04-8.88-3.16-11.81-.67-.92-1.11-1.76-.85-3.15-.2-1.83-.8-3.21-1.8-4.14-.16-2.75-.81-5.37-.4-8.38,2.06.88,2.68,2.5,4.07,2.67Z"/>
        <path class="cls-7" d="M28,71.53c-.74-1.05-1.71-2.63-1.8-4.14,1.19-.54,1.89.29,1.84,1.43-.05,1.06.11,1.89-.04,2.7Z"/>
      </g>
      <g id="back-shoe">
        <path class="cls-49" d="M50.03,128.37c-1.4-1.38-2.53-4.32-2.93-5.36s-1.79-3.61-1.89-5.38-.39-8.06-.59-9.28-.69-3.87-1.27-4.94-3.46-2.89-4.68-1.86-1.68,4-2.61,4.27c-.92.27-1.74,1.81-1.38,2.68s2.3,2.92,2.3,3.56,1.12,5.98,1.12,6.52.19,4.74.19,6.46.38,2.84,1.13,3.91,4.42,4,5.6,4.5,2.79,1.53,4.4,1.78,2.05-.02,2.05-.92.93-3.59-1.44-5.92Z"/>
        <path class="cls-49" d="M39.67,114.8c3.05.19,3.67,4.72,1.84,6.83,2.15-.4,2.61,2.57.74,3.34,1.91.58,2.47.98,1.07,2.48,1.46,1.29,2.15,2.85,2.07,4.66.3,1.26-.09,1.63-1.17,1.14-1.29-1.62-4.29-2.73-4.85-5.14-1.25-5.34-.62-10.41-2.1-15.07.43-.61.79-1.28,1.1-1.99,2.07-1.7,2.6,2.02,1.31,3.75Z"/>
        <path class="cls-104" d="M48.83,125.75l-.04,1.93c.09,2.71-1.19,2.54-1.88-.17-1.52.44-2.9-.71-1.69-2.28-2.13-.17-2.55-2.99-1.73-4.65-1.55-2.33-1.45-2.49,1.06-2.26,1.72,2.26,2.2,5.33,4.27,7.42Z"/>
        <path class="cls-42" d="M48.79,127.67c2.16,1.69,3.35,4.23,1.85,6.25-.91.17-1.22-.21-.93-1.16-2.74.34-6.81-3.48-2.81-4.24-.88-.38-.86-.72,0-1.02l1.88.17Z"/>
        <path class="cls-111" d="M49.72,132.76c.38.3.66.76.93,1.16-1.46,1.98-4.62,1.59-6.43-.69.45-.3.85-.68,1.17-1.14.39-1.1,1.26-.96,2.6.44l1.73.21Z"/>
        <path class="cls-67" d="M44.45,116.06c.23.75.3,1.53.1,2.26s-.36,1.89-1.06,2.26c.49,2.94.03,3.02-1.98,1.05-1.55-2.05-.76-4.57-1.84-6.83.19-1.73.75-2.91,1.66-3.54.83-.84,1.39.1,1.68,2.84l1.44,1.97Z"/>
        <path class="cls-55" d="M43.35,103.41v5.71l1.02,5.79.08,1.15c-2.46-.39-1.88-3.23-3.12-4.8-2.05-.18-2.05-.93,0-2.27-.83-1.55-1.19-3.09-1.06-4.63-1.59-2.46-.82-2.98,1.38-1.25.04-2.57,1.04-2.12,1.7.29Z"/>
        <path class="cls-67" d="M44.61,111.49c.03,1.15-.32,2.28-.24,3.42-1.76-1.23-1.02-3.89-1.02-5.79.8.38,1.24,1.43,1.26,2.37Z"/>
        <path class="cls-112" d="M41.33,108.99v2.27c0,.7.05,1.87-.14,2.51-.18.58-.66,1.76-1.52,1.03-.55-1.15-.2-2.84-1.31-3.75l-.1-3.35c-.2-2.17.56-2.15,1.13.05l1.94,1.24Z"/>
        <path class="cls-16" d="M38.23,104.33h1.1c1.51.88,2.04,3.37.06,3.42l-1.13-.05c-.58-.48-1.37-1.05-1.48-1.9s.83-1.29,1.45-1.47Z"/>
        <path class="cls-68" d="M46.91,128.52c-.75,2.27,1.19,2.95,2.81,4.24-.64,2.1-2.94.01-4.33-.66-.89-.43-1.87-1.27-2.47-2.37-.36-.67.05-1.62.4-2.29.95-1.86,2.44-.62,3.59,1.07Z"/>
        <path class="cls-85" d="M43.49,120.58c1.42,1.03,1.1,3.07,1.73,4.65.42,2.37-1.8,1.39-2.96-.26-.49-.9-.13-2.54-.74-3.34.48-.7,1.32-.71,1.98-1.05Z"/>
        <path class="cls-65" d="M45.22,125.23c.34.86,1.2,1.52,1.69,2.28-.06.31.09.73,0,1.02-1.22-.25-2.42-.6-3.59-1.07-.32-.84-.64-1.7-1.07-2.48l2.96.26Z"/>
        <path class="cls-67" d="M41.33,108.99c-.36.03-1.1.99-1.5.77-.57-.31-.37-1.58-.44-2.02l-.06-3.4.94.02c.7.53,1.25,1.24,1.7,2.34.31.76.21,1.74-.64,2.29Z"/>
      </g>
    </g>
    <g id="front-leg-assembly">
      <g id="front-shoe">
        <path class="cls-51" d="M6.19,133.41c1.34-.58,8.52-1.26,9.19-2.12s1.47-6.32,1.35-8.33-.42-6.23.06-7.66,2.42-10.27,2.73-11.27,1.26-3.29-.27-3.1c-1.53.19-3.26-.38-5.07-.18s-5.26.78-5.93,1.16-1.53,1.25-.95,2.11,1.83,4.98,1.83,5.65-.17,10.44-.74,11.59-.28,4.88-1.81,5.17c-1.53.29-4.02,1.35-5.26,2.12s-1.43,3.55-1.24,3.93,4.79,1.52,6.13.95Z"/>
        <path class="cls-56" d="M13.61,121.04c.15,2.51-2.13,5.7-4.24,4.2-1.04,1.33-1.65.93-1.81-1.19v-1c.27-2.68,1.17-2.54,2,0,.47-2.05,1.47-3.39,2.99-4.01.28-.87.62-.86,1,0,1.47-.09,1.34,1.45.06,2Z"/>
        <path class="cls-51" d="M19.52,104.03c1.18.87.97,2.12-.63,2.42-.95,3.42-1.08,7.09-2.46,10.38-.73,2.28-.63,4.32.3,6.12l-.18,8.38c-2.55,1.14-5.16.4-7.55,1.07-.19-.24-.44-.72-.47-1.02l-.98-1.91c3.12-2.14,5.14-4.95,6.06-8.43l-.06-2c-.71-2.57-.32-4.47,1.19-5.7.26-2.42.88-4.52,1.88-6.3-.87-.28-.86-.62,0-1-1.66-.99-1.01-2.56.91-2,.04-3.11,2.01-3.08,2,0Z"/>
        <path class="cls-82" d="M16.55,122.03c0,.31.18.62.18.92-2.51-1.06-1.07-4.28-.3-6.12.1,1.73.14,3.46.12,5.2Z"/>
        <path class="cls-41" d="M13.55,119.04h-1s-1,0-1,0c.24,1.4-.96,1.82-2,1-1.57,1-1.47-.47-1.18-2.08.2-3.29.3-6.58,0-9.86,2.08-1.93,4.25,1.42,1.96,3.01h1.11c-.02,1.22.36,2.14,1.15,2.75l.87-2.95c-1.52-1.02-1.18-1.7,1-2.04-1.82-2.11.24-3.52,2.15-1.84,0,4.15-1.24,8.27-3.06,12Z"/>
        <path class="cls-2" d="M11.45,103.07c.87-.48,2.39.18,3.07.97.87.3.86.66,0,1.07-.17,1.29-.3,2.47-.06,3.77-.16,1.87.37,4.46-1.87,4.99-.71-.65-1.47-1.57-2.25-2.75-.16-1.2-1.02-2.24-1.96-3.01-.36-.29-.51-.84-.91-1.11.04-.3-.04-.63.01-.93,1.37-4.8,2.69-5.8,3.96-3Z"/>
        <path class="cls-61" d="M9.55,120.05c2.08-.34,1.04,1.69,0,3-.6.19-1.39-.14-2,0,0-1.74-.28-3.62.82-5.09.25.77.6,1.5,1.18,2.08Z"/>
        <path class="cls-50" d="M8.54,131.38c-1.92,1.55-4.61,1.84-6.97,1.73-.35-2.63,2.46-4.55,5-3.82,2.45-1.57,4.12-.62,1.97,2.09Z"/>
        <path class="cls-43" d="M6.57,129.29c-1.9,1.09-4.37,1.52-5,3.82l-.99-.05c.3-1.46,1.02-2.88,1.99-4,.47-.31,1.42-.91,2-1,1.55-.15,2.22.26,2,1.23Z"/>
        <path class="cls-61" d="M8.54,131.38c-.12-1.16-.77-2.03-1.97-2.09-.8-.04-1.59-.58-2-1.23.76-.12,1.45-.52,2.14-.75.74-.77,1.63-1.45,2.66-2.07,2.12-.52,3.11-2.48,4.24-4.2.04,1.14,1.25,2.75-.15,3.82-.83.63-1.96,1.3-2.3,2.06-.27.59.33,1.78.23,2.62-1.76-.33-2.07,1.2-2.86,1.84Z"/>
        <path class="cls-103" d="M9.37,125.24c.09.54.31,1.09.48,1.49.36.87-.47.84-.83.99-.76.34-1.74-.61-2.31-.42.6-.98.85-2.11.85-3.26.63.35,1.23.76,1.81,1.19Z"/>
        <path class="cls-6" d="M11.55,119.04c.28-.87.62-.86,1,0-.48,1.44-1.43,3.5-2.99,4.01v-3c.23-.88,1.19-1,1.99-1Z"/>
        <path class="cls-69" d="M14.52,105.11c.99-1.1,2.43-.57,2.09.93v1c-.7.34-2.07.88-2.15,1.84-.91-.73-2.11-.89-3.3-1.26.6-1.79,2-2.47,3.36-2.51Z"/>
        <path class="cls-41" d="M17.52,104.03l-.91,2c-.72-.08-1.37-.95-2.09-.93v-1.07c-.88-.28-.86-.62,0-1,.92.55,1.92.91,3,.99Z"/>
        <path class="cls-113" d="M12.55,119.04h-1c-.67-.92-2.18-3.69.15-3.96,1.1-.13,1.17,3,.85,3.96Z"/>
        <path class="cls-71" d="M12.59,113.86c-.84.2-1.81.6-1.95-.45l-.31-2.3c.68-.16,1.14-.67,2.01-1.14.43,1.75.19,2.76.24,3.89Z"/>
        <path class="cls-90" d="M14.52,103.04v1c-1.11.04-2.28-.14-3.07-.97l.07-1.02c1.04.16,2.09.45,3,.99Z"/>
      </g>
      <g id="front-leg">
        <path class="cls-64" d="M17.87,104.18c-1.41.28-4.43-.69-6.08.33s-3.54,2.85-4.19,2.49-.87-4.41-1.13-5.73-1.58-8.47-2.08-11.01-1.87-5.49-1.71-7.18,1.29-5.82,1.93-7.02,2.69-9.61,4.1-10.86,4.4-5.75,4.42-7.22.23-3.85,1.58-4.41c1.35-.56,4.64-1.7,5.43-1.66s3.77,1.3,5.91.78c2.14-.52,6.67-1.32,8.64-1.71,1.97-.39,3.17-.24,3.43.59s1.53,2.82,1.91,3.72,1.87,4.02,1.25,5.32-6.17,6.3-7.98,7.04-3.85.27-4.89,1.45-1.34,4.07-2.43,5.46-3.51,6.94-4.39,8.38c-.89,1.44-2.85,6.81-3.75,7.67s-.53,3.23-.25,4.64,1.87,5.98,1.6,6.61-1.3,2.31-1.3,2.31Z"/>
        <path class="cls-95" d="M5.11,80.81c-.15-.78.19-2.21-.37-2.83.47-.46.89-.98,1.26-1.52.09-.9.38-.91.88-.1,4.03.09,2.03,7.13-1.76,4.45Z"/>
        <path class="cls-37" d="M16.69,56.49c.82-.46,1.16-.23,1.02.7,2.98,1.58,2.54,6.29-1.83,5.44.05,2.18-1.03,4.47-3.26,6.86-.87,4.81-2.78,7.1-5.75,6.87l-.88.1c.4-.58-.09-1.51.17-2.06,1.8-3.88,3.38-7.88,5.99-11.31,1.15-1.52,1.73-2.96.96-5.11.57-.1.79-.77,1-1.14.49-1.88,1.7-2.07,2.58-.34Z"/>
        <path class="cls-95" d="M24.44,63.1c.14.55.21,1.01.02,1.16-3.23,2.63-3.56-.04.61-.24,1.92-.09,1.62,1.02.9,2.86.65.51.8,1.4.45,2.66l.87,2.24-4,9.75-2.42.5c-.5,3.62-2.62,7.44-4.98,10.06.07.22-.09.51-.04.73l-.72,1.19c3.47,6.2,3.09,9.41-1.12,9.64-.81.9-2.3.47-3.14-.4-1.35-.86.06-3.61.32-3.32.61.72-.53,2.86-1.33,3.6l-1.26.68c-.84-2.75-1.35-5.57-1.52-8.47-.31-.55-.89-1.15-1.01-1.78-.54-2.9-1.76-5.76-1.65-8.74.2-.92,1.15-2.01.9-3.32,2.74-.9,4.4-2.74,4.99-5.53l2.51-.11c1.73-3.9,3.9-7.55,6.49-10.96-.96-4.63,5.01-6.52,5.12-2.24Z"/>
        <path class="cls-64" d="M12.84,76.3c-1.71,1.68-1.47,5.1-3.7,6.73-1.41-.48-2.66-1.04-3.8-1.1l-.22-1.13c2.19.12,1.91-3.05,1.76-4.45,5.31-5.72.14-5.26,9-13.73,3.31-3.69,4.83-.99,3.28,3.07-2.53,3.26-4.64,6.8-6.33,10.6Z"/>
        <path class="cls-78" d="M9.87,103.55c.1-.95.43-1.04,1.01-.29.9.18.93.52.13,1.02-2.44-.16-1.9,2.59-3.31,3.7-.01-4.11-.99-8.22-.61-12.22,1.39,2.46.29,6.01,2.78,7.79Z"/>
        <path class="cls-32" d="M35.78,53.56c.62.71.47,1.09-.47,1.13,1.21,1.23,1.38,2.04.5,2.43-.48.22-1.26.31-2.36.27-.17,0-.35-.01-.53-.02-.11,0-.22-.02-.33-.03.36,2.46.28,4.36-.24,5.71-2.01-.02-4,.42-5.96,1.34-.07.04-.16.07-.23.11l-.57-.48-1.14-.94c-.5-.44-1.19-.92-1.78-.76-.61.16-1.66.85-1.73,1.67-.34,3.42-2.68,4.9-4.51,7.3-1.4,1.83-2.17,3.6-3.59,4.99,1.16-3.14,1.73-6.83,3.86-9.87.76-1.08,2.02-1.55,1.73-2.73-.13-.56-.37-.9-.68-1.08-.5-.29-1.16-.22-1.87,0,.12-.12.24-.24.35-.38,1.25-1.38,2.18-3.47,1.48-5.06.29-.87.69-.93,1.24-.19l.92-.09c2.07.48,3.21,1.38,3.43,2.72,1.04-.87,1.36-2.01.93-3.41-.02-.12-.07-.24-.11-.37l2.82-.75.43-1.37c2.17.73,3.87-.14,5.06-2.62-.04-.91.28-.96.89-.24,2.51-2,4.08-.05,2.48,2.69Z"/>
        <path class="cls-72" d="M23.73,54.86c-1.37.6-2.97,1.31-4.79,2.14-.38.01-.87.29-1.24.19-.37-.1-.66-.54-1.01-.7.32-.78.61-1.55.83-2.36-.34-1.8.36-2.59,1.27-2.25.49.18,1.03.69,1.51,1.56,1.23.04,2.31.19,3.24.43.91.11.96.44.19.98Z"/>
        <path class="cls-46" d="M15.86,92.83c.92,3.73,3.3,6.95,3.26,10.84-.69-.4-1.6-.42-1.96.39-.35,1.8-2.44,1.23-3.14-.4,7.04-3.08-4.82-12.52,1.84-10.83Z"/>
        <path class="cls-27" d="M10.88,103.27c-.34.01-.67.24-1.01.29-.09-1.69-1.15-3.59-.51-5.51.47-1.43,2.26-1.96,3.2-1.46,1.01.55,1.71,2.11,1.04,3.45-.71,1.43-2.2,2-2.72,3.23Z"/>
        <path class="cls-48" d="M31.73,53.99c-1.85.3-3.46,1.08-4.81,1.1-.41.58-.77,1.01-1.1,1.28-.67.54-1.2.49-1.6-.16-.2-.32-.36-.77-.49-1.35l-.19-.98c.22-.63.81-1.13,1.75-1.46l1.96-.39c1.14.37,2.1.48,2.94-.57l2.22-.36c.31.68.73,2.65-.68,2.89Z"/>
        <path class="cls-66" d="M23.73,54.86c1.19-.46,2.13.25,3.19.23-3.22,2.55.59,5.09-3.62,4.54-1.28-.65-2.42-1.56-3.43-2.72-.29.07-.62.08-.92.09.52-2.2,3.13-1.51,4.79-2.14Z"/>
        <path class="cls-35" d="M25.28,52.42c-.39.68-1.01,1.2-1.75,1.46-1.01.1-2.66.72-3.24-.43l4.99-1.03Z"/>
      </g>
    </g>
    <g id="back-arm">
      <path class="cls-4" d="M49.88,59.31s-1.63-7.49-1.93-8.32-3.01-7.17-2.95-7.68-1.21-7.26-1.25-8.16-.19-7.12-.5-7.74-.93-3.04-2.05-3.01c-1.12.03-4.52,2.19-5.26,3.53s-3.19,5.9-2.57,7.34.94,3.82,1.43,4.31,3.29,2.94,3.55,3.85.03,3.09.38,3.83,1.79,4.07,2.39,4.95,1.89,4.67,2.66,5.65,2.9,2.28,3.56,2.65,2.54-1.21,2.54-1.21Z"/>
      <path class="cls-91" d="M43.3,28.03c.2,1.21.82,2.51.4,3.7l-1.01,2.89c.04.88-.29,1.05-.99.51-1.76.74-2.23-1.61-1.04-2.86-1.58-.19-1.39-1.11-.83-2.5-.15-1.91,1.28-3.9,2.63-2,.3,0,.57.13.83.26Z"/>
      <path class="cls-98" d="M50.13,58.19c-.31,2.04,1.3,3.61,1.76,5.55-.16,1.9-1.34,1.39-2.23-.1-.61.63-1.14.37-1.6-.76-.64.74-1.05.63-1.21-.33-3.26,1.2-3.68-2.02-.87-2.99-1.69-2.09-1.06-2.74,1.41-1.72-.52-.72-.3-.98.62-.82l2.14,1.17Z"/>
      <path class="cls-38" d="M48.22,56.12c-2.17.47-4.04-3.35-2.04-4.55-2.45-.56-2.73-3.7-1.28-5.37-.61-.69-.43-.98.51-.9-.71-.56-.55-.83.4-.83,1.47,2.64,3.36,8.34,2.41,11.65Z"/>
      <path class="cls-100" d="M48.22,56.12c-.08.28-.1.64-.22.9-.15.3-.41.57-.62.82-2.49.81-4.66-3.45-3.58-5.62.59-2.4.63-2.41,2.39-.64.17,1.66.75,3.52,2.04,4.55Z"/>
      <path class="cls-26" d="M44.4,40.06c.03.98-.39,1.05-1.2.37-2.45.23-2.99-3.88-1.48-5.29.3-.23.63-.4.99-.51,1.35,1.53,1.52,3.5,1.69,5.43Z"/>
      <path class="cls-58" d="M45.82,44.47l-.4.83c-1.46,1.36-3.11.17-4.26-1.31-.67.62-.96.45-.87-.49-.62-.67-.45-.96.49-.87-.06-2.5.23-2.44,1.74-.49.72-1.55,2.05-.48,2.67.66-.12.43.42,1.28.64,1.67Z"/>
      <path class="cls-34" d="M45.18,42.8c-.85.73-1.89-.1-2.67-.66-2.05-.73-1.48-2.05.68-1.72.41-.08.81-.2,1.2-.37.08.88,1.07,1.71.78,2.74Z"/>
      <path class="cls-4" d="M41.72,35.14c.63,1.73.5,3.67,1.48,5.29l-.68,1.72c-.53.31-1.12.54-1.74.49-2.45,1.45-3.07.35-1.18-1.8-.39-2.05-1-4.22-1.81-6.54l1.35-.81c-.07-1.14.44-1.55,1.54-1.21.13.98.71,1.94,1.04,2.86Z"/>
      <path class="cls-1" d="M39.13,33.49c-.27,2.59,1.68,5,.46,7.35-.72,1.8-1.46,1.56-1.48-.43-.39.35-.58.19-.59-.4l-1.29-5.63c.22-.63.94-1.11,1.07-1.76.65.2,1.27.49,1.83.88Z"/>
      <path class="cls-28" d="M37.52,40.01c-3.21,2.19-3.09-1.12-1.95-3.83.21-.17.3-.58.43-.83.16-.29.12-.67.23-.98,1.51,1.61,3,3.72,1.29,5.63Z"/>
      <path class="cls-9" d="M52.53,71.41c-.25.29-.7.46-.93.76-.79.46-1.03.23-.74-.67-1.83-1.06-2.11-4.55.44-4.65.49-.26.78-.08.87.49.4,1.34.46,2.68.36,4.07Z"/>
      <path class="cls-25" d="M51.89,63.74c.27,1.14-.05,2.47.28,3.59l-.87-.49c-2.08,1.27-2.89-1.44-1.64-3.21.67-.05,1.56-.28,2.23.1Z"/>
      <path class="cls-94" d="M49.66,63.64c.17,1.23.83,2.29,1.64,3.21-.59,1.48-.87,3.1-.44,4.65-1.08,3.59-2.7,1.53-2.15-1.47-.72-2.34-.48-4.74-.66-7.15.73-.63,1.22.3,1.6.76Z"/>
      <path class="cls-23" d="M47.38,57.84l-1.41,1.72-1.42-.88-2.58-6.08.63-.92c.73-1.82,1.48-1.46,1.2.54.55,2.23,1.65,4.32,3.58,5.62Z"/>
      <path class="cls-39" d="M46.18,51.58c-.68.55-1.52.89-2.39.64l-1.2-.54c-.84-1.19-1.84-2.83-1.16-4.08-1.42-.09-1.38-2.09.1-2.23,1.08.01,2.2.3,3.36.85,1.49,1.42,1.09,3.53,1.28,5.37Z"/>
      <path class="cls-3" d="M45.42,45.31l-.51.9c-.34.34-1,1.03-1.45.85-.9-.35-1.3-1.25-1.91-1.71-1.43.36-1.46-.29-.39-1.36,1.44.36,2.87.78,4.26,1.31Z"/>
      <path class="cls-19" d="M41.55,45.36l-.1,2.23c-.07.92-.55,1-1.36.39-1.83.62-2.17-.12-.64-1.39-.03-1.09.32-2.13.85-3.08l.87.49.39,1.36Z"/>
      <path class="cls-30" d="M50.87,71.5l.74.67c-.96,1.25-1.5,3.09-4,3.18-.39-1.76.58-2.86.5-4.14-.03-.4.56-.78.62-1.18.15.5.56.87.84,1.35s.99.97,1.3.12Z"/>
      <path class="cls-31" d="M42.6,51.67c-.04.31-.4.57-.49.87-.1-1.52-2.14-2.88-2.03-4.57.44-.18.89-.3,1.36-.39.81,1.21,1.36,2.62,1.16,4.08Z"/>
    </g>
    <g id="body">
      <path id="shirt" class="cls-22" d="M30.74,43.02c-2.88,1.65-3.38,2.78-1.49,3.4-1.39,2.66-.9,3.53,1.47,2.6l-1.91.89c1.08.07,1.4,1.15.98,3.22l.1,1.83c-.46-.83-.78-.84-.92.06l-2.25-.08h-3s-2-.01-2-.01l-5.09.04c-.3-.94-.73-1.55-1.18-1.82-.26-.33-.81-.69-1.66-1.11,4.5-.7,4.92-6.26,3.97-10.03.1-.31.05-.68.13-1,2.72.91,3.21.01,1-1.82,2.16-.12,2.44-1.17.83-3.17h1c1.7-1.55.7-7.07,0-9h-1c2.65-1.11,3.08-3.76,0-4-.33-.71.2-1.79.75-2.55.25.26,2.05,1.1,2.26,1.39.29.38.82.71.99,1.16.27.71,1.01,1.44,1.46,1.86,1.7,1.02,2.91,1.42,3.63,1.2.15,1.16.98,2.31,1.98,2.94-.76,1.44-1.85,3.6-.07,4,.15,2.48,1.57,6.37-2,6v1.03c1.46.12,2.42,1.55,2.02,2.97Z"/>
      <g>
        <path class="cls-29" d="M32.17,22.89c-.64-.05-2.36-1.72-2.74-.26s-.83,6.19-.7,7.6-.13,8.21,0,8.8-1.08,7.54-.83,8.18,1.15,1.15,1.28,2.87-.32,4.34-.06,5.62,1.6,5.49,2.94,4.47,2.43-1.28,2.94-1.6-.19-2.94-.13-4.21.32-7.53.7-8.68.45-3.26.77-4.47,1.02-1.91,1.21-3.51.51-2.26.48-3.87-.29-4.3-.41-5.51-2.74-5.23-5.43-5.43Z"/>
        <path class="cls-47" d="M38.21,36.91c0,.12-.03.24-.09.35h0c-.19.36-.66.67-1.4.76.36.12.52.31.49.55-.01.12-.09.26-.21.42-1.32,1.31-2.26,1.29-2.84.59-.71-.84-.88-2.68-.5-4.26.18-.8.51-1.54.96-2.04.09-.08.19-.17.29-.27-.21-1.07-.81-1.72-1.79-1.94-.08-.02-.16-.04-.24-.05-.48-.07-1.03-.06-1.67.04l-.42-2.04c-1-.63-1.83-1.78-1.98-2.94-.09-.77.11-1.55.76-2.21-2.18.16-1.42-1.72.3-2.1,2.49.93,4.69,2.51,6.65,4.28.71.86,1.07,1.87,1.08,3.05.01.71-.12,1.49-.37,2.32-.16.52-.36,1.06-.62,1.63.75.09,1.2.39,1.4.77.36.68-.11,1.63-1.21,2.14.94.03,1.41.48,1.41.95Z"/>
        <path class="cls-107" d="M33.66,35.32c.22,1.44.56,2.78.99,4.01-.18.06-.34.14-.49.25-1.42.87-1.15,2.97-.44,4.44,1.09,2.31-.63,8.51-2.38,4.64l-.62.36c-2.37.93-2.86.06-1.47-2.6-1.89-.62-1.39-1.75,1.49-3.4.4-1.42-.56-2.85-2.02-2.97v-1.03c3.57.37,2.15-3.52,2-6-1.78-.4-.69-2.56.07-4,.99.53,1.72,1.34,1.88.37.22-1.31-.52-2.07.63-3.41.56,2.33,1.31,4.64,1.61,7.03-.1.1-.2.19-.29.27-.65.54-1.06.45-1.24-.28.06.8.15,1.58.28,2.32Z"/>
        <path class="cls-29" d="M34.91,33.01c.22,1.74-.92,3.73.14,5.78.3.58,1.63.14,1.95.2.92.22.92.54.03.93-.64,2.34-1.4,3.71-2.31,4.1-.32-1.55-.65-1.55-1,0-1.72,1.55-.87-11.27-.84-13.1,1.19.65,1.02,1.88,2.03,2.09Z"/>
        <path class="cls-72" d="M34.55,56.01c.35,1.05.54,1.64.43,1.94-.14.39-.77.3-2.16.06-.23.89-.57.9-1.02.07-.3-1.22-.97-2.29-1.91-3.12l-.1-1.83c.42-2.07.1-3.15-.98-3.22l1.91-.89c-.23-1.93.48-2.59,1.53-.06.87-1.62,1.14-3.19,1.47-4.94.25-1.32-.62-2.83.55-4.06.97,1.61.25,2.92.45,4.06.48.07.9.19,1.08.46.33.49-.85,9.9-1.25,11.53Z"/>
      </g>
      <g>
        <path class="cls-88" d="M26.32,20.02c-2.54-.2-4.94-.3-7.21-.3s-5.51-.38-8.06.48-3.25,2.2-3.25,3.06,1.84,2.87.57,3.64c-1.27.77-.71,4.31-.71,5.17s1.56,10.05.99,10.91-1.13,9.1-.85,10.24.53,5.17,2.24,4.79,4.87-.25,6.29-.35c1.41-.1,4.34-3.19,5.61-4.72,1.27-1.53,3.82-7.95,3.82-8.9s1.56-2.78,1.56-4.4.42-4.4,1.13-5.74-1.58-5.42-.65-6.87.65-4.04.65-4.81-2.13-2.19-2.13-2.19Z"/>
        <path class="cls-5" d="M26.32,27.02c-1.95,1.21-3.63-.38-3.04-1.81.04-.06.07-.12.09-.19-1.05-.01-1.85-.08-2.39-.2-1.12-.26-1.21-.72-.27-1.39.53-.39,1.42-.86,2.66-1.41-2.24-.03-1.88-1.25,0-2h1.48c.43-.82.92-.8,1.48,0,.75.01,1.2.17,1.4.42.53.62-.32,1.78-1.4,2.58,4.55.24,3.91,2.89,0,4Z"/>
        <path class="cls-21" d="M11.95,35.23c2.4.47,3.48,1.87,3.23,4.2l-3.64,14.59c1.17.32,1.17.65,0,1,3.99-.41,3.83,1.13.27,2.08,1.69,1.77.71,2.29-1.77.93-1.82-3.2-1.28-6.62-1.41-10-1.15-2.79-1.58-6.27.03-9,0-2.69.43-5.42-.93-8-1.87-2.51-1.04-3.14,2.48-1.88,3.04.29,3.62,2.32,1.74,6.09Z"/>
        <path class="cls-88" d="M25.09,39.19c3.26,1.83,2.54,2.73-1.48,1.82-.53.11-.84-.06-1-.3.04,1.03-.72,2.32-2.1,2.31-1.82,1.03-2.92,1.45-3.47,1.36-.86-.12-.49-1.4.44-3.44-3.32-.39-2.86-1.28.37-1.84-.19-1.35-.12-2.45.22-3.29.06-.13.12-.25.18-.37.4-.73,1.05-1.22,1.95-1.49-2.11-.6-2.91-1.9-2.86-3.13.03-.65.28-1.28.71-1.78.15-.19.32-.35.52-.49l.47-.27h.01c.38-.19.81-.28,1.28-.25,0-.27.19-.55.55-.82h.01c.22-.18.52-.34.87-.51-1.96-1.12-2.1-1.8-.8-1.88.56-.05,1.36.02,2.39.2.92.71,1.89,1.39,2.95,2,1.27,2.43,1.18,6.47,0,9,2.38,2,1.96,3.05-1.23,3.17Z"/>
        <path class="cls-63" d="M23.36,25.02c-.23.66-1.14,1.06-1.6,1.68l-3.7,2.14c-.11,2.05-1.38,3.04-3.82,2.97,1.04,3.42.27,4.56-2.29,3.43-.61-2.03-.54-4.17-1.74-6.09.82-.53.65-1.44,1.25-2.01-4.23-2.35,3.91-6.56,5.79-3.25,0-1.71,1.37-2.14,3.16-.86.83-.46,2.07-.59,2.95-1-.33,1.01-1.19,2.12,0,3Z"/>
        <path class="cls-53" d="M15,33.2c3.88,1.35,4.06,3.11,2.86,5.89-.35.52.09,1.37-.37,1.85.21,1.99-.44,4.1-1.97,6.34.11,3.62-1.21,5.86-3.97,6.74-.6-6.28,2.26-12.62.4-18.79,1.41-.65,1.77-2.34,2.29-3.43,2.81-.43,3.2.33.75,1.4Z"/>
        <path class="cls-20" d="M20.51,43.02c-.81,2.95-2.22,5.89-4.2,8.84,1.54,2.35-2.07,5.88-4.75,3.16-.04-.27-.19-.77,0-1,3.32-4.06,2.16-9.12,5.94-13.08-.15.67-.15,1.62.83,1.94.7.23,1.56.15,2.19.13Z"/>
        <path class="cls-14" d="M21.76,26.7c1.82.65,1.03,2.42,1.6,3.32-1.12.18-1.3-.77-2.81-1.07-.04,2.15-.11,3.49-.36,5-.63,2.86-2.36,2.61-5.2-.75l-.75-1.4c.62-1.3.13-2.72,1.61-4.17,1.3-1.27,3.41-1.89,5.91-.93Z"/>
        <path class="cls-70" d="M17.56,52.04l-1.26-.18c-.92-3.39.72-6.29,4.21-8.84.92-1.29.68-2.87,2.11-4.04,1.33.86.55,1.59.99,2.03-.12.32-.04.69-.19,1,1.4,3.77.78,9.33-5.86,10.03Z"/>
        <path class="cls-63" d="M20.2,33.96c-.3,1.82-.33,3.76-2.34,5.14-.54-2.05-1.82-3.95-2.86-5.89,1.47.8,3.4.67,5.2.75Z"/>
        <path class="cls-84" d="M27.79,36.02h-1.48v-9h1.48c1.03,1.93,2.51,7.45,0,9Z"/>
        <path class="cls-110" d="M23.36,30.02c2.12,2.12,3.24,5.6-1.45,7.12.4-2.89,2.28-4.84,1.45-7.12Z"/>
        <path class="cls-63" d="M15.98,21.02c.65.9,1.13,1.85,1.27,2.86-3.2-.65-4.15,1.69-5.79,3.25-1.01-.23-1.98-.54-2.77-1.03-3.26-.04-3.67-.78-1.26-2.23-1.38-1.85,1.6-2.37,4.08-1.86-.34-1.62,2.73-2.2,4.46-.99Z"/>
      </g>
    </g>
    <g id="Head">
      <path class="cls-79" d="M39.58,7.77c.12-.69.3-2.93-.4-3.76S32.62-.12,30.49.28s-3.95.81-5.04,1.85c-1.08,1.05-2.59,2.67-2.62,4.41s.03,3.24-.31,4.87-2.59,4.22-2.71,4.91-1.55,3.65-.72,3.59,3.36.35,3.65,1.31,1.85,4.39,2.54,4.51,2.29,1.3,3.08.66,1.82-2.09,1.92-3.05-.57-1.97-.81-2.47.75-.97,1.86-.66,2.66.32,3.42-.33,1.54-2.59,1.65-3.22.63-.67.99-.48.88.54.95.1-.69-1.67-.64-1.98-.15-1.39-.04-1.69,1.92-4.85,1.92-4.85Z"/>
      <path class="cls-79" d="M21.56,18.08c.54,1.47.02,1.91-1.15.82l-.99-.17c1.07-2.35,3.27-3.88,3.14-6.57.43-.81.75-.75.99.17,3.54,1.22.86,5.75-1.99,5.75Z"/>
      <path class="cls-44" d="M25.7,5.6c2.33,1.06.64,4.47-1.49,2.79-.42.56-.69.17-.82-1.15.02-1.18.54-2.14,1.49-2.79.95-.31,1.19.12.82,1.15Z"/>
      <path class="cls-77" d="M24.22,8.39c2,.47,1.65,1.81-.08,2.61,1.73.93,1.39,1.57-.59,1.33l-.99-.17c-.08-1.64.8-3.29.83-4.93.3.29.81.68.82,1.15Z"/>
      <path class="cls-59" d="M27.19,2.81c2.65,1.03.93,3.73-1.49,2.79-.23-.41-.51-.8-.82-1.15.53-.37.03-2.14,1.09-1.97.28.26.9.12,1.22.33Z"/>
      <path class="cls-102" d="M30.28,1.09c1.33-.14,2.55.24,2.07,1.6,1.68,1.63.79,2.73-1.41,1.86.96,1.7.68,2.74-1.23,2.49-.02,2.84-1.2,3.97-3.52,3.38-.11,2.64-.49,2.73-2.04.58.03-.87.1-1.75.08-2.61,1.5-.14.85-2.07,1.49-2.79.79-.89,1.28-1.54,1.49-2.79.11-.66.56-1.12.88-1.49.44-.5,1.81-.39,2.21-.23Z"/>
      <path class="cls-40" d="M38.16,3.85l-.06.77c-.48,1.64-.74,1.22-1.16-.41-1.47.66-3.98.33-4.59-1.51-.72-.49-1.41-1.03-2.07-1.6-.02-.29.05-.56.21-.81,2.81.92,6.63.39,7.67,3.57Z"/>
      <path class="cls-81" d="M27.1,16.99c-.12.44-.29.85-.53,1.2-.16.24-2.52,2.81-3.5,3.03-.16-.32-.57-.49-.77-.79,0-.84-.16-1.71-.74-2.35,1.46-1.54,1.73-3.71,1.99-5.75.06-.46.57-.87.59-1.33.67-.14,1.35-.55,2.04-.58.12-.11.23-.22.34-.34,1.39-1.28,2.29-1.64,2.8-.82.26.42.41,1.16.48,2.25.16.22.27.44.36.68.77,2.05-.79,4.54-3.06,4.8Z"/>
      <path class="cls-75" d="M37.54,13.8c-.33,1.69-.93,3.3-1.87,4.75-.52.81-.98,2.17-2.13,2.28-1.73-.04-1.81-.75-.02-1.18l-.15-.73c-1.95-2.61-.39-6.9,3.13-6.41,1.08-.15,1.43.28,1.04,1.3Z"/>
      <path class="cls-8" d="M29.48,24.34c-.05,1.29-.41,1.97-1.12,2.05-.75.1-1.87-.5-3.38-1.79-.37-.49-.98-1.33-1.13-2.08.42-.81.75-.74.99.17.29-.49.65-.85,1.11-1.09.25-.15.53-.25.83-.31.4-.09.85-.12,1.35-.08-.38-.58-.54-1.01-.51-1.27.01-.25.18-.34.46-.28.28.06.69.29,1.19.71-.25.85.74,1.2.86,1.94l-.65,2.02Z"/>
      <path class="cls-17" d="M33.52,19.64l.02,1.18c-1.42.13-2.89-.24-4.28-.45-1.7-2.8,2.51-2.64,4.26-.73Z"/>
      <path class="cls-101" d="M39.11,9.66c-.62,2.6-1.5,2.3-1.81-.33-1.72.08-1.85-1.32-.41-4.22-.9-.21-.85-.51.05-.9.33.21.81.22,1.16.41,1.89,1.08,1.38,3.23,1,5.05Z"/>
      <path class="cls-11" d="M39.11,9.66c-.3,1.48-.07,3.23-1.57,4.14-.28-.48-.63-.92-1.04-1.3-2.6-.6-2.39-1.5.22-1.98-1.81-.81-1.42-1.56.58-1.19l1.81.33Z"/>
      <path class="cls-89" d="M35.09,5.26c3.15.74,1.67,4.26-1.84,4.19l-2.34,2.21c-.48.83-.85.79-1.11-.13-1.12-.56-2.33-1.13-3.62-1.09,1.91-1.73,2.43-4.55,4.75-5.87,1.33-1.13,3.29-.65,4.15.7Z"/>
      <path class="cls-62" d="M36.95,4.21c.02.29-.1.61-.05.9.38,1.7-.22,1.75-1.81.15-1.42.83-3,.39-4.15-.7.64-.37.86-1.39,1.41-1.86,1.73-.64,3.17.6,4.59,1.51Z"/>
      <path class="cls-105" d="M28.08,19.67c-.1.12-.26.22-.46.28-.32.09-.76.1-1.29-.05.24.24.38.5.46.77.06.21.05.42,0,.63-.04.25-.16.48-.33.67-.35.44-.94.73-1.61.72l-.99-.17c-.09-.47-.56-.89-.78-1.31,1.12-.98,1.45-4.11,2.38-4.37.58-.17,1.2-.01,1.65.15.73.23.88.5.45.86-.02.02-.04.02-.06.03-.11.07-.23.14-.33.22,1.04.48,1.27,1.16.91,1.57Z"/>
      <path class="cls-10" d="M36.72,10.52l-.22,1.98c-1.66,1.82-1.84,4.38-3.13,6.41-2.33-.1-4.4-.37-6.2-.81.15-.31-.16-.77-.07-1.11.56-2.07.98-4.1,2.7-5.48.31.16.77.02,1.11.13-.87-2.84,6.19-4.01,5.81-1.13Z"/>
      <path class="cls-81" d="M33.37,18.91c.03.24.15.48.15.73-1.59-.58-3.48-1.11-4.26.73-.19.36-.88.5-1.13.85-1.52,1.56-3.12.56-1.8-1.32l.85-1.8c2.1-1.48,4.29-.69,6.2.81Z"/>
      <path class="cls-106" d="M36.89,5.11c.22,1.4.52,2.8.41,4.22-.03.42-.53.78-.58,1.19-2.13-1.18-3.77.42-5.81,1.13.16-1.34-.99-2.33-.41-4.19,1.71,1.19,3.69,1.2,5.38-.33.74-.67.12-1.99-.79-1.87.6-.09,1.2-.14,1.81-.15Z"/>
      <g id="eye">
        <g>
          <path class="cls-22" d="M36.33,11.02c-.18-.28-.58-.73-1.1-.66s-.93-.09-1.18.05,0,.39.31.63,1.57,1.3,1.88,1.12.09-1.14.09-1.14Z"/>
          <path d="M36.32,11.02c-.41-.48-.81-.58-1.44-.46-.29.02-.63-.04-.72.04-.02.03.04-.06.02-.07.56.53,1.28,1.17,1.98,1.49.22-.14.17-.71.16-1h0ZM36.34,11.01c.48,2.22-1.14.68-1.98.06-.17-.15-.64-.46-.34-.68.28-.13.57-.03.85-.03.64-.09,1.11.09,1.46.66h0Z"/>
        </g>
        <g>
          <path d="M36.11,11.18c-.15-.29-.29-.34-.48-.25s-.27.29-.26.43.36.45.59.43.3-.37.29-.43-.15-.17-.15-.17Z"/>
          <path class="cls-22" d="M36.13,11.47c-.01.07-.09.13-.16.12s-.13-.08-.12-.13h.02c.09.02.17-.04.18-.11,0-.02,0-.04,0-.06.07.03.11.09.1.18Z"/>
        </g>
        <path class="cls-86" d="M36.6,10.64c-.13-.34-.19-.57-.34-.8-.31-.54-.99-.2-1.46-.05-.28.09-.57.23-.88.24.3-.05.55-.23.82-.37.53-.31,1.35-.71,1.83-.08.24.26.38.6.51.83.19.33-.36.59-.49.23h0Z"/>
      </g>
      <g id="eye-2" data-name="eye">
        <g>
          <path class="cls-22" d="M37.58,11.53c.13-.09.39-.22.59-.08s.4.15.47.26-.08.18-.26.23-.91.28-1,.14.2-.54.2-.54Z"/>
          <path d="M37.57,11.53c.26-.25.51-.23.78-.06.11.06.27.03.4.24.04.28-.22.28-.36.35-.57.16-1.59.34-.81-.53h0ZM37.58,11.54c-.11.16-.41.62-.02.57.27-.02.52-.1.78-.18.11-.04.3-.07.29-.19-.06-.12-.21-.14-.33-.2-.23-.17-.49-.19-.73,0h0Z"/>
        </g>
        <g>
          <path d="M37.63,11.65c.12-.1.19-.1.25-.02s.05.19.02.25-.24.14-.33.08-.05-.23-.03-.26.09-.05.09-.05Z"/>
          <path class="cls-22" d="M37.56,11.78s.01.08.04.09.07,0,.08-.03h0s-.06-.06-.05-.09c0,0,0-.02.02-.02-.03,0-.06.02-.08.06Z"/>
        </g>
        <path class="cls-86" d="M37.39,11.1c.77-.73.91-.06,1.38.47-.24-.16-.39-.43-.61-.58-.26-.16-.42.14-.6.31-.13.14-.33-.1-.16-.2h0Z"/>
      </g>
      <path class="cls-101" d="M37.68,14.13s-.08-.65-.08-1.18-.49-1.57-.47-1.76-.18.32-.24.62.12,1.95-.21,2.23-.87.44-.91.69-.05,1.06.2.94.52-.22.73-.12.56.31.71.22.22-.56.25-.7.01-.94.01-.94Z"/>
      <path class="cls-86" d="M23.24,4.76c.35.25,1.26.85,1.81.21s1.33-1.85,2.14-2.16,3.22-.82,4.15-.57,3.77.69,4.59,1.26,1.1,1.55,1.74,1.46,1.6-.26,1.66-.64-2.5-2.41-2.72-2.6S32.11,0,31.28,0c-.83,0-6.27,1.17-6.63,1.89s-1.41,2.87-1.41,2.87Z"/>
      <path class="cls-109" d="M25.84,9.73c.15.12.23.26.43.23.09,0,.18-.03.26.02.06.05.26.13.28.27-.09.14-.21.18-.33.21-.12.03-.23-.04-.33-.1-.23-.09-.34-.37-.35-.61,0-.02.02-.04.04-.03h0Z"/>
      <path class="cls-79" d="M25.88,9.69c0-.13.13-.47.24-.63s.56-.44.84-.45.69-.17.68-.2-.63-.41-.76-.46-.45-.09-.56-.04-.35.34-.38.45-.2.91-.2,1.02.14.31.14.31Z"/>
      <path class="cls-75" d="M27.74,8.48c-.1-.54-.33-1.09-.94-.94s-1.3.82-1.31,1.59-.32,1.5-.45,1.87-.11,1.02.73.64c0,0,.42-.27.3-.41s-.35-.11-.31-.47.1-1.32.15-1.58.14-1.12.49-1.2,1.3.61,1.3.61l.03-.12Z"/>
      <path class="cls-93" d="M25.26,4.34c1.73-3.82,8.13-2.64,10.8-.89.5.87,1.2,1.58,2.16,1.37,1.64-1.06-2.91-2.56-3.88-2.99-.95-.19-4.26-.74-4.56-.63s-3.03.41-3.71.86c-.78.74-1.92,1.99-.82,2.27Z"/>
      <path class="cls-60" d="M35.71,17.14c-.23-.09-.27,0-.46-.29s-.99-.44-1.34-.39-1.22.44-1.37.52-.19.13-.11.52.96.49,1.21.58.91.8,1.08,1.1.84-.03.86-.05.6-1.26.53-1.44-.39-.55-.39-.55Z"/>
      <path d="M35.71,17.42c-.17-.07-.2,0-.35-.22s-.75-.33-1.01-.29-.91.33-1.03.39-.14.1-.08.39.72.36.91.44.68.6.81.82.63-.03.65-.04.45-.95.4-1.08-.29-.41-.29-.41Z"/>
      <path class="cls-22" d="M34.06,16.96s.68.6.87.72.89.46.96.46.1-.36.1-.36l-.3-.47s-.77-.49-.8-.49-.84.14-.84.14Z"/>
    </g>
    <g id="front-arm">
      <path class="cls-15" d="M48.07,24.42c-2.17.77-7.6,2.49-10.09,2.94s-9.57,1.6-10.66,1.53-6.38-1.02-8.17-.64c-1.79.38-4.98,1.21-6.45,1.66s-1.91,1.21-4.91.77-3.13-.19-3.64-2.04-1.09-4.4-.13-5.55,1.66-2.11,3.06-2.36,5.49-.96,6.57-.32,2.74.83,3.77.83,3.96-.7,6.06-.7,5.04.13,5.87.51,3.77.32,5.55-.06c1.79-.38,6.83-.51,8.23-.32,1.4.19,4.02.13,5.49.06,1.47-.06,4.66-.89,4.02.13s-1.77.96-2.67,1.79-1.92,1.79-1.92,1.79Z"/>
      <g>
        <path class="cls-36" d="M9.62,29.53c.96-.29,4.79-1.15,7.18-1.34,2.39-.19,8.62,1.29,9.14.72s.29-3.16-.53-3.78-4.6.72-6.89-.19c-2.3-.91-6.03-1.53-7.8-1.68s-4.26.24-4.5.77-.19,2.82.05,3.78,1.34,1.72,2.3,2.01,1.05-.29,1.05-.29Z"/>
        <path class="cls-33" d="M6.8,27.45c-1.87.88-1.24,2.42.85,2.01.61.58,1.16,1.22,1.68,1.88.14-.39.53-.73.6-1.13.31-1.83,2.24-1.87,3.81-1.87.87-.28.86-.62,0-1-1.14-1.47-3.6-2.54-5.07-.93-1.4-1.25-2.19-.82-1.87,1.03Z"/>
        <path class="cls-12" d="M10.67,21.65c-1.62.84-1.27,1.88.37,2.34-1.33,2.24,1.97,3.1,3.71,2.23.12.94.46.96.99.13l-.23-1.93c-1.62-.08-2.63-1.52-2.77-3.07-.77-.84-1.54-.75-2.08.3Z"/>
        <path class="cls-99" d="M14.75,26.21c-1.41-.28-1.91-.05-1.01,1.13v1s4,0,4,0l-1-2c-.33-.03-.67.05-1,0s-.69-.02-.99-.13Z"/>
        <path class="cls-76" d="M8.68,26.42c1.45,1.07,3.33.97,5.07.93.56-.01.98-.62,1.01-1.13-1.35-.49-2.64-1.3-3.71-2.23-.67-1.84-1.39-1.76-1.51.21-.52.48-.89,1.45-.85,2.23Z"/>
      </g>
      <g>
        <path class="cls-83" d="M56.38,19.46c-1.02-.03-5.7.94-6.37.84s-6.58.5-7.39.37-4.45-.06-5.47-.09c-1.02-.03-3.94.5-4.69.82s-2.48,1.9-2.15,2.42.27,1.24,1.35,1.67c1.08.44,14.1.09,14.93-.32s6.39-1.82,7.24-2.12c.85-.3,2.98-1.06,3.17-1.9s-.6-1.7-.6-1.7Z"/>
        <path class="cls-114" d="M60.61,20.58c.39.4.31.72-.22.98-.47.79-.79.71-.98-.22-.64,1.45-2.35.77-2.93-.65-1.42,1.44-3.6.37-1.74-1.41,1.21.35,2.07.1,3.15-.34,1.31-.54,2.08,1.07,2.71,1.64Z"/>
        <path class="cls-115" d="M61.91,23.94c-.22.61-.16,1.37-.43,1.95-1.18,1.87-1.91,2.05-2.17.54-1.72-.41-1.47-2.18.43-1.95-.41-.92,0-2.06.65-2.93l.22-.98c1,.9,1.84,1.86,1.3,3.36Z"/>
        <path class="cls-45" d="M56.49,20.69c.79.47.71.79-.22.98-.79,2.68-6.31.59-8.04-.98l4.26-.94c.66-.15,1.6-.64,2.26-.47,0,.94.96,1.24,1.74,1.41Z"/>
        <path class="cls-74" d="M59.75,24.48c-.64,1.95-2.44,1.38-2.93-.65-.88-.45-.78-.77.22-.98.43-1.07,1.48-1.38,2.39-1.52l.98.22c.21.54.4,1.09.38,1.79-.01.51-.66.79-1.03,1.14Z"/>
        <path class="cls-97" d="M59.42,21.34c-.07.41-.13.96-.45,1.34-.45.54-1.32.4-1.93.18-1.32.44-1.64-.14-.76-1.19l.22-.98,2.93.65Z"/>
        <path class="cls-57" d="M59.75,24.48l-.43,1.95c-.65.33-1.51.8-2.27.38-2.58-.57-2.36-1.52-.22-2.98l2.93.65Z"/>
        <path class="cls-24" d="M57.03,22.86c-.1.27-.27.71-.22.98-1.06-.06-2.15-.02-3.17.31-2.19.11-3.41-.4-3.66-1.52-.66-.13-1.27-.68-1.96-.75.09-.4.16-.8.21-1.2,2.61.71,5.48,2.37,8.04.98.69.02.98.57.76,1.19Z"/>
        <path class="cls-36" d="M53.65,24.15c-1.05.34-2.1.72-3.1,1.21-.22-.32-1.09-.72-1.43-.53-.18-.81.49-1.5.87-2.2,1.23.24,3.41-.1,3.66,1.52Z"/>
        <path class="cls-15" d="M37.63,22.57c2.89-.1,4.84.36,5.84,1.37.37-1.85,1.17-1.64,1.19.34,1.91.57,1.13,1.42-.64,1.83-.43.82-.76.73-.98-.22-1.84,1.1-4.2,1.05-6.29.65-1.45,0-3.1-.02-4.96-.07-1.14-.25-1.2-1.54-.54-2.45.4-.55,1.29-1.07,2.1-1.32,1.41-1.28,3.37-1.98,4.28-.14Z"/>
        <path class="cls-83" d="M43.91,21.99l-.43,1.95c-2.06-.58-4.79.9-5.84-1.37l2.16-.47c.75-.16,1.47-.22,2.17-.54.59-.07,1.34.42,1.95.43Z"/>
        <path class="cls-54" d="M48.24,20.69c.87.4.75.8-.21,1.2,1.65,2.03-2.05,4.45-3.37,2.4l-1.19-.34c-2.52-.89-2.21-1.76.43-1.95,1.03-1.69,2.79-.97,4.33-1.31Z"/>
        <path class="cls-52" d="M37.99,20.61c1.59-.61,2.78-.07,1.8,1.5.13,1.37-1.08,1.18-2.16.47-1.42-.29-2.86-.09-4.28.14.62-1.94,2.73-2.51,4.64-2.1Z"/>
      </g>
    </g>
  </g>
</svg>