<?xml version="1.0" encoding="UTF-8"?>
<svg id="Enemy" xmlns="http://www.w3.org/2000/svg" viewBox="0 0 70.43 139.1">
  <defs>
    <style>
      .cls-1 {
        fill: #ba8a66;
      }

      .cls-2 {
        fill: #4f4b46;
      }

      .cls-3 {
        fill: #fbcba3;
      }

      .cls-4 {
        fill: #f9cfab;
      }

      .cls-5 {
        fill: #0d0f57;
      }

      .cls-6 {
        fill: #98918d;
      }

      .cls-7 {
        fill: #05175f;
      }

      .cls-8 {
        fill: #b08d83;
      }

      .cls-9 {
        fill: #8f4f15;
      }

      .cls-10 {
        fill: #f6c7a7;
      }

      .cls-11 {
        fill: #b59c91;
      }

      .cls-12 {
        fill: #c7916f;
      }

      .cls-13 {
        fill: #54575a;
      }

      .cls-14 {
        fill: #0e1857;
      }

      .cls-15 {
        fill: #f5be96;
      }

      .cls-16 {
        fill: #2a292e;
      }

      .cls-17 {
        fill: #8d6354;
      }

      .cls-18 {
        fill: #081e79;
      }

      .cls-19 {
        fill: #c3a38e;
      }

      .cls-20 {
        fill: #071554;
      }

      .cls-21 {
        fill: #0a0b23;
      }

      .cls-22 {
        fill: #fff;
      }

      .cls-23 {
        fill: #b88b73;
      }

      .cls-24 {
        fill: #e4873b;
      }

      .cls-25 {
        fill: #884009;
      }

      .cls-26 {
        fill: #bd907d;
      }

      .cls-27 {
        fill: #091251;
      }

      .cls-28 {
        fill: #bb9c85;
      }

      .cls-29 {
        fill: #1930a7;
      }

      .cls-30 {
        fill: #dbb69f;
      }

      .cls-31 {
        fill: #aa9278;
      }

      .cls-32 {
        fill: #021558;
      }

      .cls-33 {
        fill: #985837;
      }

      .cls-34 {
        fill: #c3957c;
      }

      .cls-35 {
        fill: #010634;
      }

      .cls-36 {
        fill: #6f3810;
      }

      .cls-37 {
        fill: #091042;
      }

      .cls-38 {
        fill: #cdab90;
      }

      .cls-39 {
        fill: #fee3ba;
      }

      .cls-40 {
        fill: #968576;
      }

      .cls-41 {
        fill: #413d3b;
      }

      .cls-42 {
        fill: #574f4b;
      }

      .cls-43 {
        fill: #756d69;
      }

      .cls-44 {
        fill: #784f34;
      }

      .cls-45 {
        fill: #af5d18;
      }

      .cls-46 {
        fill: #0b0e23;
      }

      .cls-47 {
        fill: #0f1c5e;
      }

      .cls-48 {
        fill: #151f56;
      }

      .cls-49 {
        fill: #2a2824;
      }

      .cls-50 {
        fill: #8e857d;
      }

      .cls-51 {
        fill: #2b2726;
      }

      .cls-52 {
        fill: #b38f77;
      }

      .cls-53 {
        fill: #040d34;
      }

      .cls-54 {
        fill: #fcd8b6;
      }

      .cls-55 {
        fill: #282627;
      }

      .cls-56 {
        fill: #918a84;
      }

      .cls-57 {
        fill: #b6856c;
      }

      .cls-58 {
        fill: #edb490;
      }

      .cls-59 {
        fill: #9c7959;
      }

      .cls-60 {
        fill: #d38269;
      }

      .cls-61 {
        fill: #47423d;
      }

      .cls-62 {
        fill: #cb9974;
      }

      .cls-63 {
        fill: #051143;
      }

      .cls-64 {
        fill: #061b6e;
      }

      .cls-65 {
        fill: #4a3f37;
      }

      .cls-66 {
        fill: #0e1e6e;
      }

      .cls-67 {
        fill: #3d3635;
      }

      .cls-68 {
        fill: #766b62;
      }

      .cls-69 {
        fill: #373227;
      }

      .cls-70 {
        fill: #070a3d;
      }

      .cls-71 {
        fill: #89847d;
      }

      .cls-72 {
        fill: #07175b;
      }

      .cls-73 {
        fill: #030c34;
      }

      .cls-74 {
        fill: #c06d17;
      }

      .cls-75 {
        fill: #ba8b79;
      }

      .cls-76 {
        fill: #f4bc98;
      }

      .cls-77 {
        fill: #6b523a;
      }

      .cls-78 {
        fill: #26292e;
      }

      .cls-79 {
        fill: #8c674e;
      }

      .cls-80 {
        fill: #0a134f;
      }

      .cls-81 {
        fill: #efad88;
      }

      .cls-82 {
        fill: #444240;
      }

      .cls-83 {
        fill: #fee0ae;
      }

      .cls-84 {
        fill: #0f2175;
      }

      .cls-85 {
        fill: #59524e;
      }

      .cls-86 {
        fill: #f15a24;
      }

      .cls-87 {
        fill: #0b102f;
      }

      .cls-88 {
        fill: #081e77;
      }

      .cls-89 {
        fill: #f6ad80;
      }

      .cls-90 {
        fill: #606275;
      }

      .cls-91 {
        fill: #d2a591;
      }

      .cls-92 {
        fill: #0d0e21;
      }

      .cls-93 {
        fill: #f7931e;
      }

      .cls-94 {
        fill: #dd9a59;
      }

      .cls-95 {
        fill: #050f38;
      }

      .cls-96 {
        fill: #0c0f25;
      }

      .cls-97 {
        fill: #e4892e;
      }

      .cls-98 {
        fill: #a86d3a;
      }

      .cls-99 {
        fill: #b17660;
      }

      .cls-100 {
        fill: #f0c7a5;
      }

      .cls-101 {
        fill: #836851;
      }

      .cls-102 {
        fill: #d4996e;
      }

      .cls-103 {
        fill: #88807a;
      }

      .cls-104 {
        fill: #2f2924;
      }

      .cls-105 {
        fill: #feccad;
      }

      .cls-106 {
        fill: #db9770;
      }

      .cls-107 {
        fill: #101e78;
      }

      .cls-108 {
        fill: #171a35;
      }

      .cls-109 {
        fill: #8c6239;
      }

      .cls-110 {
        fill: #142796;
      }

      .cls-111 {
        fill: #2a2522;
      }

      .cls-112 {
        fill: #483f3d;
      }

      .cls-113 {
        fill: #837d78;
      }

      .cls-114 {
        fill: #9a602e;
      }

      .cls-115 {
        fill: #976047;
      }
    </style>
  </defs>
  <g id="CrimeGuy_walk_1">
    <g id="back-leg-assembly">
      <g id="back-leg">
        <path class="cls-72" d="M45.33,114.54c.67,1.19,2.33.6,3.59.04,1.26-.56,4.51-3.59,4.41-5.26s-1.22-5.85-.91-7.64-1.18-8.85-.59-10.6,1.58-5.75,1.35-7.73-1.62-6.31-1.54-7.36-1.23-7.99-1.3-9.26-1.88-5.96-3.84-6.4-4.11-1.49-5.54-1.65c-1.43-.15-14.39-1.63-15.55-2.22-1.16-.59-2.69,2.64-2.79,4.28s-1.5,6.93.78,7.81c2.28.88,5.79,5.28,7.37,5.66,1.59.37,2.9-1.05,3.94-.29s3.01,8.4,2.76,9.81c-.25,1.41-.12,7.37.47,8.44.59,1.07,1.2,4.29,2.26,6.03,1.06,1.74,2.67,9.34,2.75,10.5.08,1.16,2.38,5.84,2.38,5.84Z"/>
        <path class="cls-92" d="M41.91,91.23c3.5-.52,4.85,2.07,2.05,4.36,2.46.54,5.42,2.32,4.38,5.1l-.53,2.78c1.23,2.13,1.25,3.8.06,5,.16,1.06,0,2.05-.48,2.97,1.56,2.1,1.43,3.09-.41,2.96.23,1.52.03,2.64-1.42,1.63-.36-1.9-.63-3.9-2.19-5.21l-.41-2.12-.04-6.17c-.02-2.95-1.57-4.77-2.72-7.36-2.98.75-3.78-6.69-.95-7.61l.25-.59c1.58-.8,2.39.63,2.41,4.26Z"/>
        <path class="cls-73" d="M31.92,67.35c2.74.11,5.28,1.07,7.4,2.8,1.61,4.24,2.54,8.9,2.78,13.97,1.7,1.53,2.02,6.08-.18,7.12-1.12-1.19-.67-3.58-2.41-4.26l-3.07-15.78.05.65c-1.49-.01-2.99-.15-4.49-.4-1.68-.43-1.22-1.09.46-1.87l-4.34-.63c1.13-2.08,2.73-1.21,3.81-1.59Z"/>
        <path class="cls-96" d="M39.5,86.97l-.25.59c-.27-2.14-2.37-4.18-2.67-6.36l-1.31-9.45-3.82,2.32c-.88.05-.5-.85-.37-1.28.17-.54.48-.96.9-1.36,1.56-.62,3.17-1.82,5.39-1.34,1.4,3.1.46,6.39,1.6,9.41.97,2.55,1.54,5.04.52,7.47Z"/>
        <path class="cls-87" d="M46.95,62.62c2.65-1.44,4.58,3.93,2.09,5.41,2.97-.02,3.02,3.17.3,4.07-.41.82-.74.76-.98-.15-1.69.61-2.99-.82-2.7-2.55-.81-.39-.72-.66.21-.82-1.32-1.93-1.52-3.2-.78-5.2.15-.33.65-.56.85-.89l1.01.11Z"/>
        <path class="cls-72" d="M45.09,63.4c1.06,1.47,1.21,3.49.78,5.2-.76,1.16-1.78,1.56-2.62.52.08,2.34-.66,3.56-2.22,3.64,1,.96,1.43,2.38,1.28,4.28,2.2,1.1,2.34,1.47.41,3.09.76,2.26.55,3.58-.62,3.97-2.17-1.48-.56-4.48-1.33-6.78-.89-2.7-1.96-4.69-1.45-7.19.46-2.26,2.07-5.25-1.28-7.46,2.7-2.41,6.19,5.28,7.05.71Z"/>
        <path class="cls-13" d="M42.95,108.7c-.14-.75-.75-1.39-.68-2.22l.51-2.96.13-.99c.01,1.88,1.32,4.04.04,6.17Z"/>
        <path class="cls-108" d="M50.66,78.38c2.75.37,3.16,4.09.67,5.17,2.98,1.04,2.05,2.5-.18,3.85l-.49,4.3c.49.39.41.72-.19.98,2.11,1.07,3.86,4.72,1.22,6.07-.19,3.43,1.99,6.25,1.4,9.61l-1.62-.48c-2.22-.75-3.64-5.05-3.14-7.19-1.59-1.12-4.26-3.06-4.38-5.1,1.96-2.28,3.47-5.17,4.53-8.67l-1.36-14.5,1.23-.47.98.15c3.12.07,2.08,3.97,1.32,6.27Z"/>
        <path class="cls-7" d="M48.36,71.96c-1.1,8.42,3.29,9.35-.22,19.31-.36,1.03.52,3.53-.7,4.14-.85.43-2.34-.17-3.48.18-.1-1.86-.82-3.05-2.05-4.36.68-2.35-.19-4.74.18-7.12l.62-3.97c1.47.57,2.2-1.05,2.2-4.88-2.79-5.67-2.54-7.62.74-5.85.79.97,1.63,1.9,2.7,2.55Z"/>
        <path class="cls-80" d="M48.34,100.69c2.42,1.69,3.47,3.9,3.14,7.19l-1.56.9c-.34.84-.65.76-.94-.15-.45.82-.82.75-1.11-.16-1.06-2.28-2.99-4.37-1.53-7.4.39-.81,1.45-.52,2-.38Z"/>
        <path class="cls-18" d="M45.87,68.6l-.21.82c-.78.15-1.27.73-1.09,1.22.33.88,1.24,1.33,1.69,2.03,1.64,2.56-.36,5.47,0,8.19.29,2.16,1.85,3.94,1.47,5.81-.46,2.28-1.46,3.93-3.53,4.9.58-4.11.3-8.24-1.49-11.41-.57-1.01-.91-1.89-.41-3.09.08-1.72-.35-3.15-1.28-4.28.27-2.58-.02-5.18.91-7.84,2.08,1.44,2.48,3.11,3.93,3.67Z"/>
        <path class="cls-7" d="M42.31,77.05c-.63-1.16-1.43-2.88-1.28-4.28,1.38-.16,2,.79,1.76,1.82-.22.95-.18,1.76-.48,2.46Z"/>
      </g>
      <g id="back-shoe">
        <path class="cls-49" d="M55.81,130.26c-1.12-1.24-1.77-3.81-2-4.72-.23-.91-1.19-3.22-1.02-4.75s.82-6.95.81-8.02-.09-3.42-.5-4.41-2.97-3-4.36-2.27c-1.39.73-2.32,3.29-3.31,3.41s-2.09,1.39-1.84,2.21,1.93,2.86,1.83,3.43.23,5.38.15,5.86-.53,4.18-.8,5.69-.05,2.52.56,3.5,3.83,3.68,4.91,4.16,2.48,1.4,3.99,1.67c1.51.26,1.94.05,2.07-.71s1.39-2.97-.48-5.04Z"/>
        <path class="cls-49" d="M47.73,117.83c3.01.46,2.95,4.44.81,6.12,2.19-.18,2.2,2.41.24,2.95,1.8.63,2.29,1,.69,2.21,1.24,1.19,1.68,2.56,1.33,4.11.11,1.09-.33,1.4-1.32.93-1.04-1.46-3.88-2.55-4.09-4.69-.46-4.77.96-9.17.16-13.42.53-.49,1-1.04,1.42-1.63,2.34-1.25,2.31,2.05.75,3.43Z"/>
        <path class="cls-104" d="M55.06,127.97l-.32,1.63c-.31,2.29-1.51,2.09-1.77-.25-1.54.29-2.71-.77-1.3-2.05-2.07-.29-2.05-2.75-1-4.12-1.19-2.14-1.06-2.27,1.38-1.85,1.33,2.08,1.34,4.73,3.01,6.64Z"/>
        <path class="cls-42" d="M54.74,129.6c1.79,1.54,2.53,3.72.84,5.36-.89.11-1.12-.22-.71-1.02-2.67.18-6.08-3.28-2.06-3.73-.79-.37-.73-.66.15-.87l1.77.25Z"/>
        <path class="cls-111" d="M54.87,133.94c.31.27.52.66.71,1.02-1.67,1.62-4.66,1.19-6.09-.82.49-.24.93-.55,1.32-.93.55-.92,1.36-.76,2.45.48l1.61.25Z"/>
        <path class="cls-67" d="M52.28,119.38c.11.66.06,1.34-.24,1.95s-.63,1.6-1.38,1.85c.04,2.57-.43,2.61-2.12.76-1.25-1.91-.07-4.04-.81-6.12.46-1.49,1.19-2.46,2.2-2.91.95-.64,1.36.24,1.24,2.64l1.11,1.83Z"/>
        <path class="cls-55" d="M53.1,108.36l-.86,4.93.13,5.1-.09,1c-2.36-.57-1.36-2.97-2.35-4.47-2.03-.39-1.91-1.05.34-1.97-.6-1.45-.71-2.84-.36-4.16-1.22-2.37-.37-2.71,1.56-.9.43-2.22,1.34-1.7,1.62.48Z"/>
        <path class="cls-67" d="M53.12,115.47c-.14.99-.65,1.93-.74,2.92-1.54-1.24-.41-3.46-.13-5.1.73.42.99,1.37.87,2.18Z"/>
        <path class="cls-112" d="M50.28,112.94l-.34,1.97c-.11.61-.23,1.64-.52,2.17-.27.49-.92,1.47-1.68.74-.38-1.07.23-2.51-.75-3.43l.41-2.96c.13-1.94.89-1.81,1.14.18l1.75,1.32Z"/>
        <path class="cls-16" d="M47.87,108.47l1.11.16c1.38.96,1.53,3.19-.46,2.99l-1.14-.18c-.51-.49-1.24-1.1-1.22-1.86s1.04-1.03,1.71-1.1Z"/>
        <path class="cls-68" d="M52.81,130.22c-1.06,1.9.7,2.57,2.06,3.73-.92,1.75-2.81-.11-4.07-.73-.81-.41-1.65-1.17-2.08-2.16-.26-.6.29-1.39.74-1.95,1.21-1.55,2.48-.39,3.34,1.12Z"/>
        <path class="cls-85" d="M50.66,123.19c1.23,1,.62,2.73,1,4.12.05,2.06-1.97,1.08-2.88-.42-.36-.82.25-2.21-.24-2.95.58-.57,1.42-.51,2.12-.76Z"/>
        <path class="cls-65" d="M51.66,127.31c.21.76.94,1.38,1.3,2.05-.1.26-.02.62-.15.87-1.14-.28-2.26-.64-3.34-1.12-.19-.74-.38-1.51-.69-2.21l2.88.42Z"/>
        <path class="cls-67" d="M50.28,112.94c-.37-.02-1.24.74-1.61.5-.53-.34-.13-1.42-.14-1.82l.46-2.99.94.15c.62.55,1.06,1.25,1.33,2.25.19.69-.06,1.54-.98,1.91Z"/>
      </g>
    </g>
    <g id="front-leg-assembly">
      <g id="front-shoe">
        <path class="cls-51" d="M27.61,137.51c1.11-.94,7.78-3.69,8.17-4.71s-.44-6.47-1.14-8.36-2.22-5.83-2.18-7.35-.68-10.53-.68-11.57.24-3.52-1.16-2.89c-1.41.63-3.22.59-4.91,1.31-1.68.72-4.81,2.28-5.34,2.84s-1.1,1.64-.3,2.29,3.2,4.22,3.4,4.86,2.88,10.03,2.67,11.3,1.16,4.75-.22,5.48-3.45,2.46-4.41,3.56c-.96,1.1-.33,3.81-.04,4.12s5.03.06,6.14-.89Z"/>
        <path class="cls-56" d="M31.09,123.52c.88,2.36-.37,6.08-2.83,5.25-.61,1.57-1.3,1.37-2.08-.61l-.29-.96c-.52-2.64.38-2.77,1.91-.59-.15-2.1.41-3.67,1.69-4.7.01-.92.34-1,.96-.29,1.38-.52,1.7,1,.64,1.9Z"/>
        <path class="cls-51" d="M31.77,105.52c1.38.48,1.54,1.74.11,2.5.08,3.55,1.04,7.1.68,10.65-.03,2.4.66,4.32,2.07,5.77l2.28,8.06c-2.11,1.84-4.82,1.89-6.91,3.22-.25-.18-.63-.56-.75-.84l-1.5-1.54c2.36-2.96,3.47-6.23,3.33-9.83l-.64-1.9c-1.43-2.25-1.61-4.18-.53-5.8-.46-2.39-.47-4.58-.04-6.57-.92-.01-1-.34-.29-.96-1.87-.46-1.71-2.16.28-2.18-.87-2.99,1.03-3.54,1.91-.59Z"/>
        <path class="cls-82" d="M34.2,123.61c.09.29.35.54.44.83-2.71-.28-2.27-3.78-2.07-5.77.6,1.63,1.15,3.27,1.63,4.94Z"/>
        <path class="cls-41" d="M30.45,121.62l-.96.29-.96.29c.64,1.27-.38,2.02-1.62,1.54-1.2,1.41-1.55-.02-1.73-1.65-.77-3.2-1.63-6.38-2.87-9.44,1.43-2.45,4.48.12,2.75,2.31l1.06-.31c.33,1.17.96,1.93,1.9,2.29l-.03-3.07c-1.75-.53-1.63-1.28.36-2.24-2.36-1.49-.8-3.44,1.52-2.39,1.22,3.96,1.22,8.27.58,12.37Z"/>
        <path class="cls-2" d="M23.77,106.96c.69-.72,2.34-.52,3.22.03.93.04,1.02.38.31,1.02.22,1.28.44,2.45,1.04,3.62.39,1.83,1.66,4.16-.33,5.31-.87-.42-1.86-1.07-2.96-1.97-.5-1.1-1.63-1.85-2.75-2.31-.43-.18-.73-.65-1.19-.8-.05-.3-.22-.59-.26-.89-.09-4.99.88-6.33,2.91-4.02Z"/>
        <path class="cls-61" d="M26.92,123.75c1.89-.93,1.49,1.31.88,2.87-.51.36-1.37.27-1.91.59-.51-1.67-1.33-3.38-.7-5.1.46.66,1.02,1.26,1.73,1.65Z"/>
        <path class="cls-50" d="M29.26,134.88c-1.38,2.04-3.87,3.1-6.16,3.69-1.11-2.41,1.03-5.08,3.66-5.12,1.89-2.21,3.76-1.8,2.49,1.43Z"/>
        <path class="cls-43" d="M26.76,133.46c-1.49,1.6-3.73,2.73-3.66,5.12l-.96.25c-.14-1.48.14-3.05.74-4.41.36-.44,1.09-1.29,1.62-1.54,1.44-.6,2.2-.4,2.27.59Z"/>
        <path class="cls-61" d="M29.26,134.88c-.45-1.08-1.33-1.71-2.49-1.43-.77.19-1.69-.09-2.27-.59.69-.34,1.23-.92,1.83-1.34.49-.95,1.13-1.87,1.94-2.76,1.88-1.12,2.25-3.28,2.83-5.25.37,1.08,2,2.26.97,3.7-.61.85-1.49,1.82-1.6,2.64-.09.65.83,1.61.99,2.44-1.78.2-1.63,1.76-2.19,2.59Z"/>
        <path class="cls-103" d="M28.26,128.77c.25.49.61.95.89,1.29.6.73-.21.94-.5,1.19-.63.55-1.84-.07-2.33.27.29-1.11.2-2.27-.14-3.36.71.15,1.4.36,2.08.61Z"/>
        <path class="cls-6" d="M28.53,122.21c.01-.92.34-1,.96-.29-.03,1.52-.34,3.77-1.69,4.7l-.88-2.87c-.03-.91.86-1.31,1.62-1.54Z"/>
        <path class="cls-69" d="M27.31,108.01c.62-1.34,2.15-1.25,2.27.28l.29.96c-.57.54-1.72,1.44-1.52,2.39-1.08-.43-2.27-.23-3.52-.24.05-1.89,1.19-2.95,2.48-3.38Z"/>
        <path class="cls-41" d="M29.86,106.11l-.28,2.18c-.71.14-1.58-.51-2.27-.28l-.31-1.02c-.92-.01-1-.34-.29-.96,1.04.25,2.11.31,3.16.07Z"/>
        <path class="cls-113" d="M29.49,121.91l-.96.29c-.91-.68-3.17-2.89-1.02-3.84,1.02-.45,1.99,2.53,1.97,3.54Z"/>
        <path class="cls-71" d="M28.02,116.95c-.75.43-1.55,1.1-2,.14l-.96-2.11c.61-.35.89-.97,1.59-1.68.92,1.55.99,2.59,1.37,3.65Z"/>
        <path class="cls-90" d="M26.7,106.03l.29.96c-1.05.36-2.22.54-3.22-.03l-.23-1c1.04-.15,2.13-.18,3.16.07Z"/>
      </g>
      <g id="front-leg">
        <path class="cls-64" d="M30.59,106.15c-1.37.42-4.48-.23-6.02.95-1.54,1.18-3.22,3.2-3.91,2.91s-1.32-4.3-1.72-5.58-2.44-8.26-3.2-10.74-2.42-5.27-2.44-6.96.68-5.92,1.2-7.18c.51-1.26,1.68-9.83,2.96-11.23,1.27-1.39,3.79-6.17,3.65-7.63s-.17-3.85,1.12-4.55,4.44-2.17,5.23-2.21c.79-.04,3.89.91,5.96.17,2.08-.74,6.5-2,8.42-2.59,1.92-.59,3.13-.56,3.48.23s1.82,2.65,2.28,3.51,2.27,3.81,1.79,5.16-5.49,6.9-7.21,7.83-3.8.67-4.71,1.95-.92,4.19-1.86,5.68c-.94,1.49-2.78,7.26-3.51,8.79s-2.13,7.07-2.94,8.02-.2,3.27.22,4.64c.42,1.37,2.47,5.75,2.27,6.41s-1.06,2.43-1.06,2.43Z"/>
        <path class="cls-95" d="M15.49,84.21c-.23-.76-.04-2.21-.66-2.77.42-.5.79-1.06,1.1-1.64,0-.9.29-.94.86-.19,4.01-.32,2.76,6.88-1.3,4.6Z"/>
        <path class="cls-37" d="M24.51,58.83c.77-.54,1.13-.34,1.08.59,3.13,1.27,3.17,5.99-1.26,5.6.28,2.17-.57,4.55-2.54,7.16-.37,4.87-2.04,7.35-5.01,7.43l-.86.19c.34-.62-.24-1.49-.04-2.07,1.39-4.04,2.55-8.18,4.79-11.86.99-1.63,1.42-3.12.43-5.19.55-.16.7-.85.88-1.24.3-1.92,1.48-2.24,2.53-.61Z"/>
        <path class="cls-95" d="M32.9,64.61c.19.53.31.98.14,1.15-2.94,2.95-3.55.32.58-.3,1.91-.29,1.72.84,1.19,2.76.7.44.94,1.31.72,2.6l1.1,2.14-2.97,10.11-2.36.74c-.12,3.65-1.84,7.67-3.92,10.52.09.21-.04.51.04.73l-.6,1.26c4.09,5.81,4.05,9.05-.12,9.71-.71.98-2.24.7-3.16-.07-1.43-.71-.31-3.6-.02-3.33.68.65-.23,2.89-.95,3.72l-1.18.81c-1.12-2.65-1.92-5.4-2.39-8.27-.37-.52-1.01-1.05-1.19-1.66-.83-2.83-2.34-5.55-2.53-8.52.1-.93.94-2.12.55-3.4,2.63-1.18,4.1-3.18,4.4-6.01l2.49-.37c1.32-4.05,3.1-7.91,5.33-11.57-1.43-4.51,4.31-7,4.86-2.75Z"/>
        <path class="cls-64" d="M22.71,78.93c-1.53,1.84-.94,5.23-2.99,7.08-1.46-.33-2.75-.76-3.89-.7l-.33-1.1c2.19-.11,1.59-3.23,1.3-4.6,4.69-6.24-.4-5.24,7.55-14.59,2.91-4.02,4.7-1.48,3.58,2.72-2.18,3.51-3.92,7.24-5.2,11.19Z"/>
        <path class="cls-78" d="M22.57,106.35c0-.95.32-1.08.97-.39.92.09.98.42.23,1-2.44.1-1.62,2.78-2.91,4.02-.44-4.08-1.83-8.08-1.87-12.09,1.64,2.3.91,5.95,3.57,7.46Z"/>
        <path class="cls-32" d="M43.2,53.95c.69.65.58,1.04-.35,1.17,1.33,1.1,1.58,1.89.75,2.36-.45.26-1.22.44-2.32.51-.17.02-.35.02-.53.04-.11,0-.22,0-.33,0,.61,2.41.73,4.31.35,5.71-2,.19-3.94.83-5.79,1.95-.07.04-.15.09-.22.13l-.62-.42-1.23-.81c-.54-.39-1.28-.79-1.85-.57-.59.22-1.56,1.01-1.55,1.84.01,3.44-2.16,5.15-3.73,7.73-1.21,1.96-1.79,3.8-3.06,5.33.84-3.24,1.02-6.97,2.82-10.21.64-1.15,1.85-1.75,1.44-2.89-.19-.54-.46-.85-.79-1-.52-.24-1.18-.1-1.86.19.11-.13.21-.26.31-.41,1.1-1.5,1.81-3.67.95-5.19.19-.9.59-1,1.21-.32l.91-.18c2.11.26,3.33,1.05,3.69,2.35.95-.97,1.14-2.14.57-3.49-.04-.11-.09-.23-.15-.35l2.73-1.04.29-1.41c2.24.5,3.83-.54,4.76-3.13-.13-.9.18-.99.86-.33,2.29-2.25,4.05-.47,2.74,2.42Z"/>
        <path class="cls-72" d="M31.34,56.48c-1.3.73-2.82,1.61-4.54,2.62-.38.05-.83.38-1.21.32-.37-.06-.71-.47-1.08-.59.23-.8.45-1.6.58-2.43-.52-1.76.1-2.61,1.03-2.37.51.13,1.1.58,1.66,1.39,1.23-.09,2.32-.05,3.26.1.91.01,1,.34.29.96Z"/>
        <path class="cls-46" d="M27.42,95.07c1.3,3.61,4,6.58,4.35,10.45-.73-.32-1.63-.25-1.91.59-.16,1.83-2.3,1.47-3.16-.07,6.69-3.79-6.09-11.96.72-10.97Z"/>
        <path class="cls-27" d="M23.54,105.96c-.34.05-.64.3-.97.39-.27-1.67-1.51-3.45-1.08-5.43.32-1.47,2.05-2.19,3.03-1.78,1.06.44,1.91,1.93,1.39,3.33-.56,1.5-1.99,2.21-2.37,3.49Z"/>
        <path class="cls-48" d="M39.21,54.8c-1.81.49-3.33,1.43-4.67,1.59-.34.62-.66,1.08-.97,1.38-.61.61-1.14.61-1.61,0-.23-.3-.43-.73-.63-1.29l-.29-.96c.15-.65.69-1.2,1.59-1.63l1.91-.59c1.17.25,2.14.26,2.87-.87l2.17-.58c.38.65,1,2.56-.38,2.94Z"/>
        <path class="cls-66" d="M31.34,56.48c1.14-.58,2.15.02,3.2-.1-2.94,2.87,1.11,5-3.14,4.89-1.34-.52-2.57-1.3-3.69-2.35-.28.1-.61.15-.91.19.29-2.25,2.96-1.82,4.54-2.62Z"/>
        <path class="cls-35" d="M32.64,53.9c-.31.71-.88,1.3-1.59,1.63-.99.2-2.57.99-3.26-.1l4.85-1.53Z"/>
      </g>
    </g>
    <g id="back-arm">
      <path class="cls-4" d="M63.47,60.48s-2.82-7.13-3.25-7.9-4.14-6.58-4.15-7.1-2.37-6.96-2.56-7.85-1.34-7-1.75-7.55-1.41-2.85-2.51-2.64-4.1,2.9-4.62,4.34-2.19,6.34-1.34,7.66,1.54,3.61,2.11,4.02,3.73,2.36,4.13,3.22.53,3.04,1,3.72c.47.68,2.42,3.73,3.16,4.5.74.78,2.62,4.31,3.54,5.15.92.84,3.23,1.78,3.95,2.04s2.31-1.61,2.31-1.61Z"/>
      <path class="cls-91" d="M51.92,30.67c.39,1.16,1.21,2.35,1,3.59l-.52,3.02c.18.87-.11,1.09-.89.67-1.62,1.02-2.47-1.23-1.49-2.66-1.59.07-1.55-.87-1.23-2.33-.45-1.87.63-4.05,2.28-2.4.29-.04.58.04.86.12Z"/>
      <path class="cls-98" d="M63.54,59.33c.03,2.06,1.87,3.35,2.64,5.19.15,1.9-1.1,1.59-2.22.26-.5.72-1.07.56-1.7-.49-.51.84-.93.79-1.25-.13-3.02,1.71-3.96-1.4-1.34-2.8-2.01-1.78-1.49-2.53,1.11-1.92-.63-.62-.45-.92.48-.91l2.3.81Z"/>
      <path class="cls-38" d="M61.32,57.6c-2.06.82-4.53-2.65-2.75-4.16-2.5-.15-3.3-3.21-2.13-5.09-.72-.58-.58-.9.36-.97-.79-.44-.68-.73.26-.89,1.88,2.37,4.66,7.68,4.26,11.11Z"/>
      <path class="cls-100" d="M61.32,57.6c-.03.29,0,.64-.08.92-.1.32-.31.62-.48.91-2.33,1.2-5.16-2.65-4.44-4.97.2-2.46.23-2.48,2.25-1.02.44,1.61,1.31,3.36,2.75,4.16Z"/>
      <path class="cls-26" d="M54.95,42.37c.19.96-.21,1.1-1.12.56-2.38.62-3.58-3.34-2.32-4.98.26-.27.56-.5.89-.67,1.58,1.29,2.07,3.21,2.55,5.09Z"/>
      <path class="cls-58" d="M57.06,46.49l-.26.89c-1.22,1.58-3.04.67-4.41-.6-.56.72-.87.6-.94-.34-.72-.56-.6-.87.34-.94-.46-2.46-.17-2.45,1.63-.77.46-1.65,1.94-.8,2.74.22-.05.44.62,1.19.9,1.54Z"/>
      <path class="cls-34" d="M56.16,44.95c-.72.86-1.88.2-2.74-.22-2.14-.39-1.8-1.78.4-1.8.4-.14.77-.33,1.12-.56.22.85,1.33,1.51,1.22,2.58Z"/>
      <path class="cls-4" d="M51.5,37.95c.91,1.61,1.09,3.54,2.32,4.98l-.4,1.8c-.47.4-1.01.72-1.63.77-2.18,1.82-2.97.84-1.46-1.59-.72-1.95-1.67-4.01-2.84-6.16l1.2-1.02c-.25-1.12.19-1.6,1.32-1.44.29.95,1.01,1.8,1.49,2.66Z"/>
      <path class="cls-1" d="M48.69,36.73c.15,2.6,2.47,4.66,1.64,7.17-.42,1.89-1.19,1.77-1.53-.18-.33.41-.54.28-.65-.3l-2.19-5.35c.12-.66.74-1.25.78-1.91.67.09,1.33.28,1.95.57Z"/>
      <path class="cls-28" d="M48.15,43.42c-2.81,2.68-3.23-.61-2.54-3.46.18-.21.2-.62.29-.88.11-.31,0-.68.07-1.01,1.75,1.34,3.57,3.19,2.19,5.35Z"/>
      <path class="cls-9" d="M68.05,71.98c-.2.33-.61.56-.79.9-.71.58-.98.39-.83-.54-1.97-.75-2.82-4.15-.32-4.66.45-.33.76-.21.94.34.61,1.25.89,2.57,1.01,3.96Z"/>
      <path class="cls-25" d="M66.18,64.52c.45,1.09.35,2.44.86,3.5l-.94-.34c-1.85,1.59-3.08-.96-2.14-2.9.65-.16,1.49-.52,2.22-.26Z"/>
      <path class="cls-94" d="M63.96,64.78c.37,1.18,1.19,2.13,2.14,2.9-.34,1.55-.36,3.2.32,4.66-.49,3.71-2.41,1.95-2.36-1.11-1.09-2.2-1.24-4.6-1.81-6.95.62-.74,1.25.1,1.7.49Z"/>
      <path class="cls-23" d="M60.77,59.43l-1.11,1.92-1.55-.64-3.53-5.58.47-1.01c.42-1.92,1.23-1.68,1.27.34.9,2.11,2.33,4,4.44,4.97Z"/>
      <path class="cls-39" d="M58.57,53.44c-.58.65-1.36,1.13-2.25,1.02l-1.27-.34c-1.02-1.04-2.27-2.49-1.8-3.84-1.42.14-1.7-1.84-.26-2.22,1.07-.16,2.22-.06,3.45.3,1.71,1.16,1.65,3.3,2.13,5.09Z"/>
      <path class="cls-3" d="M56.8,47.38l-.36.97c-.28.39-.82,1.18-1.29,1.08-.94-.2-1.49-1.02-2.16-1.37-1.35.59-1.48-.05-.6-1.28,1.48.12,2.96.3,4.41.6Z"/>
      <path class="cls-19" d="M52.99,48.06l.26,2.22c.08.92-.38,1.08-1.28.6-1.7.9-2.16.23-.86-1.27-.2-1.07-.03-2.16.34-3.17l.94.34.6,1.28Z"/>
      <path class="cls-30" d="M66.42,72.34l.83.54c-.74,1.39-.98,3.29-3.43,3.79-.67-1.67.11-2.92-.18-4.17-.09-.39.43-.86.42-1.27.23.47.69.77,1.05,1.2s1.13.8,1.31-.09Z"/>
      <path class="cls-31" d="M55.05,54.12c0,.31-.3.63-.34.94-.35-1.49-2.58-2.49-2.74-4.18.4-.24.83-.45,1.28-.6.99,1.06,1.77,2.36,1.8,3.84Z"/>
    </g>
    <g id="body">
      <path id="shirt" class="cls-22" d="M44.05,43.75c-2.88,1.65-3.38,2.78-1.49,3.4-1.39,2.66-.9,3.53,1.47,2.6l-1.91.89c1.08.07,1.4,1.15.98,3.22l.1,1.83c-.46-.83-.78-.84-.92.06l-2.25-.08h-3s-2-.01-2-.01l-5.09.04c-.3-.94-.73-1.55-1.18-1.82-.26-.33-.81-.69-1.66-1.11,4.5-.7,4.92-6.26,3.97-10.03.1-.31.05-.68.13-1,2.72.91,3.21.01,1-1.82,2.16-.12,2.44-1.17.83-3.17h1c1.7-1.55.7-7.07,0-9h-1c2.65-1.11,3.08-3.76,0-4-.33-.71.2-1.79.75-2.55.25.26,2.05,1.1,2.26,1.39.29.38.82.71.99,1.16.27.71,1.01,1.44,1.46,1.86,1.7,1.02,2.91,1.42,3.63,1.2.15,1.16.98,2.31,1.98,2.94-.76,1.44-1.85,3.6-.07,4,.15,2.48,1.57,6.37-2,6v1.03c1.46.12,2.42,1.55,2.02,2.97Z"/>
      <g>
        <path class="cls-29" d="M45.48,23.61c-.64-.05-2.36-1.72-2.74-.26s-.83,6.19-.7,7.6-.13,8.21,0,8.8-1.08,7.54-.83,8.18,1.15,1.15,1.28,2.87-.32,4.34-.06,5.62,1.6,5.49,2.94,4.47,2.43-1.28,2.94-1.6-.19-2.94-.13-4.21.32-7.53.7-8.68.45-3.26.77-4.47,1.02-1.91,1.21-3.51.51-2.26.48-3.87-.29-4.3-.41-5.51-2.74-5.23-5.43-5.43Z"/>
        <path class="cls-47" d="M51.52,37.64c0,.12-.03.24-.09.35h0c-.19.36-.66.67-1.4.76.36.12.52.31.49.55-.01.12-.09.26-.21.42-1.32,1.31-2.26,1.29-2.84.59-.71-.84-.88-2.68-.5-4.26.18-.8.51-1.54.96-2.04.09-.08.19-.17.29-.27-.21-1.07-.81-1.72-1.79-1.94-.08-.02-.16-.04-.24-.05-.48-.07-1.03-.06-1.67.04l-.42-2.04c-1-.63-1.83-1.78-1.98-2.94-.09-.77.11-1.55.76-2.21-2.18.16-1.42-1.72.3-2.1,2.49.93,4.69,2.51,6.65,4.28.71.86,1.07,1.87,1.08,3.05.01.71-.12,1.49-.37,2.32-.16.52-.36,1.06-.62,1.63.75.09,1.2.39,1.4.77.36.68-.11,1.63-1.21,2.14.94.03,1.41.48,1.41.95Z"/>
        <path class="cls-107" d="M46.97,36.05c.22,1.44.56,2.78.99,4.01-.18.06-.34.14-.49.25-1.42.87-1.15,2.97-.44,4.44,1.09,2.31-.63,8.51-2.38,4.64l-.62.36c-2.37.93-2.86.06-1.47-2.6-1.89-.62-1.39-1.75,1.49-3.4.4-1.42-.56-2.85-2.02-2.97v-1.03c3.57.37,2.15-3.52,2-6-1.78-.4-.69-2.56.07-4,.99.53,1.72,1.34,1.88.37.22-1.31-.52-2.07.63-3.41.56,2.33,1.31,4.64,1.61,7.03-.1.1-.2.19-.29.27-.65.54-1.06.45-1.24-.28.06.8.15,1.58.28,2.32Z"/>
        <path class="cls-29" d="M48.22,33.74c.22,1.74-.92,3.73.14,5.78.3.58,1.63.14,1.95.2.92.22.92.54.03.93-.64,2.34-1.4,3.71-2.31,4.1-.32-1.55-.65-1.55-1,0-1.72,1.55-.87-11.27-.84-13.1,1.19.65,1.02,1.88,2.03,2.09Z"/>
        <path class="cls-72" d="M47.86,56.74c.35,1.05.54,1.64.43,1.94-.14.39-.77.3-2.16.06-.23.89-.57.9-1.02.07-.3-1.22-.97-2.29-1.91-3.12l-.1-1.83c.42-2.07.1-3.15-.98-3.22l1.91-.89c-.23-1.93.48-2.59,1.53-.06.87-1.62,1.14-3.19,1.47-4.94.25-1.32-.62-2.83.55-4.06.97,1.61.25,2.92.45,4.06.48.07.9.19,1.08.46.33.49-.85,9.9-1.25,11.53Z"/>
      </g>
      <g>
        <path class="cls-88" d="M33.03,20.75c-1.72-.2-3.35-.3-4.88-.3s-3.73-.38-5.46.48-2.2,2.2-2.2,3.06,1.24,2.87.38,3.64-.48,4.31-.48,5.17,1.05,10.05.67,10.91-.77,9.1-.57,10.24.36,5.17,1.52,4.79,3.3-.25,4.26-.35c.96-.1,2.94-3.19,3.8-4.72s2.59-7.95,2.59-8.9,1.05-2.78,1.05-4.4.29-4.4.77-5.74-1.07-5.42-.44-6.87.44-4.04.44-4.81-1.44-2.19-1.44-2.19Z"/>
        <path class="cls-5" d="M33.03,27.75c-1.32,1.21-2.46-.38-2.06-1.81.03-.06.05-.12.06-.19-.71-.01-1.25-.08-1.62-.2-.76-.26-.82-.72-.18-1.39.36-.39.96-.86,1.8-1.41-1.52-.03-1.27-1.25,0-2h1c.29-.82.62-.8,1,0,.51.01.81.17.95.42.36.62-.22,1.78-.95,2.58,3.08.24,2.65,2.89,0,4Z"/>
        <path class="cls-21" d="M23.31,35.96c1.63.47,2.36,1.87,2.19,4.2l-2.46,14.59c.79.32.79.65,0,1,2.7-.41,2.6,1.13.18,2.08,1.14,1.77.48,2.29-1.2.93-1.23-3.2-.87-6.62-.96-10-.78-2.79-1.07-6.27.02-9,0-2.69.29-5.42-.63-8-1.27-2.51-.7-3.14,1.68-1.88,2.06.29,2.45,2.32,1.18,6.09Z"/>
        <path class="cls-88" d="M32.2,39.92c2.21,1.83,1.72,2.73-1,1.82-.36.11-.57-.06-.68-.3.03,1.03-.49,2.32-1.42,2.31-1.23,1.03-1.98,1.45-2.35,1.36-.58-.12-.33-1.4.3-3.44-2.25-.39-1.94-1.28.25-1.84-.13-1.35-.08-2.45.15-3.29.04-.13.08-.25.12-.37.27-.73.71-1.22,1.32-1.49-1.43-.6-1.97-1.9-1.94-3.13.02-.65.19-1.28.48-1.78.1-.19.22-.35.35-.49l.32-.27h0c.26-.19.55-.28.87-.25,0-.27.13-.55.37-.82h0c.15-.18.35-.34.59-.51-1.33-1.12-1.42-1.8-.54-1.88.38-.05.92.02,1.62.2.62.71,1.28,1.39,2,2,.86,2.43.8,6.47,0,9,1.61,2,1.33,3.05-.83,3.17Z"/>
        <path class="cls-63" d="M31.03,25.75c-.15.66-.77,1.06-1.08,1.68l-2.51,2.14c-.07,2.05-.93,3.04-2.59,2.97.7,3.42.19,4.56-1.55,3.43-.41-2.03-.37-4.17-1.18-6.09.55-.53.44-1.44.85-2.01-2.86-2.35,2.65-6.56,3.92-3.25,0-1.71.93-2.14,2.14-.86.56-.46,1.4-.59,2-1-.22,1.01-.81,2.12,0,3Z"/>
        <path class="cls-53" d="M25.37,33.93c2.63,1.35,2.75,3.11,1.94,5.89-.24.52.06,1.37-.25,1.85.14,1.99-.3,4.1-1.33,6.34.08,3.62-.82,5.86-2.69,6.74-.41-6.28,1.53-12.62.27-18.79.96-.65,1.2-2.34,1.55-3.43,1.91-.43,2.17.33.51,1.4Z"/>
        <path class="cls-20" d="M29.1,43.75c-.55,2.95-1.5,5.89-2.85,8.84,1.04,2.35-1.4,5.88-3.22,3.16-.02-.27-.13-.77,0-1,2.25-4.06,1.46-9.12,4.02-13.08-.1.67-.1,1.62.56,1.94.47.23,1.06.15,1.48.13Z"/>
        <path class="cls-14" d="M29.95,27.43c1.24.65.7,2.42,1.08,3.32-.76.18-.88-.77-1.9-1.07-.02,2.15-.08,3.49-.24,5-.42,2.86-1.6,2.61-3.52-.75l-.51-1.4c.42-1.3.09-2.72,1.09-4.17.88-1.27,2.31-1.89,4-.93Z"/>
        <path class="cls-70" d="M27.1,52.77l-.85-.18c-.62-3.39.49-6.29,2.85-8.84.62-1.29.46-2.87,1.43-4.04.9.86.37,1.59.67,2.03-.08.32-.03.69-.13,1,.95,3.77.53,9.33-3.97,10.03Z"/>
        <path class="cls-63" d="M28.89,34.68c-.2,1.82-.22,3.76-1.58,5.14-.36-2.05-1.23-3.95-1.94-5.89,1,.8,2.3.67,3.52.75Z"/>
        <path class="cls-84" d="M34.03,36.75h-1v-9h1c.7,1.93,1.7,7.45,0,9Z"/>
        <path class="cls-110" d="M31.03,30.75c1.44,2.12,2.19,5.6-.98,7.12.27-2.89,1.55-4.84.98-7.12Z"/>
        <path class="cls-63" d="M26.03,21.75c.44.9.77,1.85.86,2.86-2.17-.65-2.81,1.69-3.92,3.25-.68-.23-1.34-.54-1.87-1.03-2.2-.04-2.49-.78-.85-2.23-.94-1.85,1.08-2.37,2.76-1.86-.23-1.62,1.85-2.2,3.02-.99Z"/>
      </g>
    </g>
    <g id="Head">
      <path class="cls-79" d="M50.08,6.57c0-.7-.19-2.94-1.02-3.64S41.9-.04,39.86.71c-2.04.75-3.76,1.45-4.66,2.67s-2.11,3.06-1.85,4.79.57,3.19.51,4.85-1.85,4.6-1.85,5.3-.79,2.63.02,2.43,3.24,1.01,3.68,1.91,2.55,4.02,3.26,4.02,2.47.9,3.15.13,1.45-2.37,1.38-3.32-.89-1.85-1.21-2.3.57-1.09,1.72-.96,2.68-.13,3.32-.89,1.09-2.81,1.09-3.45.51-.77.89-.64.96.38.96-.06-.96-1.53-.96-1.85-.38-1.34-.32-1.66,1.09-5.11,1.09-5.11Z"/>
      <path class="cls-79" d="M34.03,19.75c.78,1.35.34,1.88-1,1h-1c.66-2.49,2.58-4.37,2-7,.28-.87.62-.86,1,0,3.7.61,1.81,5.53-1,6Z"/>
      <path class="cls-44" d="M36.03,6.75c2.47.66,1.38,4.3-1,3-.32.62-.65.29-1-1-.18-1.17.17-2.2,1-3,.89-.46,1.19-.08,1,1Z"/>
      <path class="cls-77" d="M35.03,9.75c2.05.13,1.93,1.51.36,2.59,1.86.63,1.64,1.31-.36,1.41h-1c-.35-1.6.24-3.38,0-5,.35.23.91.54,1,1Z"/>
      <path class="cls-59" d="M37.03,3.75c2.79.58,1.54,3.52-1,3-.3-.37-.63-.7-1-1,.46-.45-.32-2.12.74-2.13.32.21.9-.03,1.26.13Z"/>
      <path class="cls-102" d="M39.79,1.54c1.29-.36,2.55-.18,2.31,1.23,1.93,1.33,1.23,2.56-1.08,2.07,1.23,1.52,1.13,2.58-.8,2.66.45,2.81-.52,4.11-2.91,3.92.33,2.62-.03,2.77-1.92.91-.11-.86-.19-1.74-.36-2.59,1.46-.39.49-2.19,1-3,.63-1.01,1.01-1.73,1-3,0-.67.36-1.2.62-1.61.35-.57,1.72-.69,2.14-.59Z"/>
      <path class="cls-40" d="M48.02,2.95l.07.76c-.2,1.7-.52,1.32-1.21-.21-1.34.9-3.86.99-4.78-.72-.79-.36-1.56-.78-2.31-1.23-.07-.28-.04-.56.07-.83,2.92.44,6.6-.73,8.16,2.24Z"/>
      <path class="cls-81" d="M39.31,17.75c-.05.45-.14.89-.32,1.27-.12.26-2.02,3.19-2.95,3.57-.21-.29-.64-.39-.89-.65-.15-.83-.44-1.66-1.12-2.19,1.18-1.76,1.09-3.95,1-6-.02-.46.42-.95.36-1.41.64-.25,1.24-.77,1.92-.91.1-.13.19-.26.28-.39,1.16-1.49,1.98-2,2.62-1.28.33.37.6,1.07.85,2.14.19.19.34.39.47.61,1.1,1.89-.02,4.61-2.22,5.24Z"/>
      <path class="cls-75" d="M49.07,12.86c-.04,1.72-.37,3.41-1.05,4.99-.38.88-.6,2.31-1.72,2.6-1.72.25-1.91-.44-.22-1.17l-.27-.7c-2.36-2.24-1.54-6.74,2.02-6.84,1.04-.33,1.45.04,1.24,1.11Z"/>
      <path class="cls-8" d="M42.88,24.6c.17,1.28-.08,2.01-.76,2.21-.72.22-1.93-.18-3.63-1.2-.45-.42-1.19-1.15-1.46-1.86.28-.87.62-.86,1,0,.2-.53.5-.95.91-1.26.22-.19.48-.33.77-.44.38-.16.82-.26,1.32-.3-.47-.51-.7-.91-.72-1.17-.03-.25.12-.37.41-.35.29.01.73.17,1.29.5-.1.88.93,1.06,1.17,1.77l-.3,2.1Z"/>
      <path class="cls-17" d="M46.09,19.29l.22,1.17c-1.38.37-2.89.24-4.3.27-2.14-2.48,2.04-3.02,4.08-1.43Z"/>
      <path class="cls-101" d="M49.93,8.52c-.17,2.66-1.1,2.52-1.84-.03-1.68.37-2.05-1-1.1-4.09-.92-.05-.93-.36-.1-.9.36.15.84.08,1.21.21,2.04.75,1.9,2.96,1.83,4.81Z"/>
      <path class="cls-11" d="M49.93,8.52c-.05,1.51.47,3.19-.86,4.34-.36-.43-.78-.8-1.24-1.11-2.67-.16-2.61-1.08-.12-1.98-1.92-.5-1.66-1.3.37-1.27l1.84.03Z"/>
      <path class="cls-89" d="M45.23,4.85c3.23.2,2.36,3.92-1.11,4.43l-1.94,2.57c-.33.9-.7.92-1.11.05-1.2-.36-2.49-.73-3.75-.47,1.6-2.03,1.64-4.89,3.71-6.58,1.12-1.34,3.13-1.19,4.21,0Z"/>
      <path class="cls-62" d="M46.89,3.5c.07.29,0,.62.1.9.66,1.62.07,1.77-1.76.45-1.26,1.05-2.89.88-4.21,0,.57-.47.61-1.52,1.08-2.07,1.59-.92,3.23.06,4.78.72Z"/>
      <path class="cls-105" d="M40.72,20.23c-.08.14-.22.26-.41.35-.3.14-.73.22-1.28.17.28.2.46.43.58.68.09.2.12.41.1.62,0,.25-.08.5-.21.72-.27.49-.8.88-1.47.98h-1c-.17-.45-.7-.78-.99-1.16.94-1.15.74-4.29,1.62-4.71.54-.26,1.18-.21,1.65-.13.76.1.95.35.59.77-.02.02-.04.03-.05.04-.1.09-.2.18-.29.27,1.11.3,1.45.93,1.16,1.4Z"/>
      <path class="cls-10" d="M47.72,9.77l.12,1.98c-1.33,2.07-1.09,4.63-2.02,6.84-2.32.29-4.4.37-6.25.24.09-.33-.28-.74-.25-1.08.21-2.13.28-4.2,1.75-5.85.33.1.77-.11,1.11-.05-1.33-2.66,5.43-4.99,5.54-2.08Z"/>
      <path class="cls-81" d="M45.82,18.6c.07.24.23.45.27.7-1.66-.31-3.61-.51-4.08,1.43-.13.38-.79.64-.97,1.03-1.24,1.8-2.98,1.07-2-1l.53-1.92c1.82-1.81,4.12-1.39,6.25-.24Z"/>
      <path class="cls-106" d="M46.99,4.4c.45,1.34.98,2.67,1.1,4.09.04.42-.4.85-.37,1.27-2.3-.8-3.65,1.05-5.54,2.08-.07-1.35-1.36-2.13-1.1-4.07,1.89.88,3.84.57,5.25-1.22.62-.78-.21-1.99-1.1-1.71.58-.19,1.16-.34,1.76-.45Z"/>
      <g id="eye">
        <g>
          <path class="cls-22" d="M47.33,10.31c-.21-.22-.64-.57-1.1-.43s-.86.06-1.07.22.06.35.38.53,1.63.94,1.88.73-.1-1.05-.1-1.05Z"/>
          <path d="M47.32,10.31c-.45-.38-.83-.4-1.38-.19-.26.06-.58.06-.65.14-.01.03.03-.06.01-.07,0,0,.03.04.07.06.62.35,1.29.82,1.96.99.18-.16.04-.67,0-.93h0ZM47.34,10.3c.79,1.93-.94.81-1.79.36-.17-.11-.65-.31-.41-.57.24-.16.52-.11.77-.16.55-.18,1.04-.09,1.43.37h0Z"/>
        </g>
        <g>
          <path d="M47.16,10.49c-.18-.24-.32-.26-.47-.16s-.2.3-.17.43.4.36.6.3.22-.39.2-.44-.16-.13-.16-.13Z"/>
          <path class="cls-22" d="M47.23,10.75c0,.07-.07.13-.13.13s-.13-.05-.13-.1h.02c.08,0,.15-.07.15-.13,0-.02,0-.03-.02-.05.07.02.12.07.12.15Z"/>
        </g>
        <path class="cls-86" d="M47.52,9.92c-.51-1.03-.83-1.07-1.77-.5-.24.13-.48.3-.76.36.26-.09.47-.29.69-.46.44-.36,1.12-.85,1.66-.36.26.2.44.48.6.67.22.27-.24.59-.41.29h0Z"/>
      </g>
      <g id="eye-2" data-name="eye">
        <g>
          <path class="cls-22" d="M48.87,10.6c.08-.08.25-.21.41-.13s.31.06.37.13-.04.14-.16.2-.62.31-.71.22.08-.42.08-.42Z"/>
          <path d="M48.86,10.6c.14-.21.36-.23.55-.14.09.03.2,0,.32.13.06.12-.05.19-.08.22-.22.14-.45.22-.7.28-.35.08-.21-.32-.08-.49h0ZM48.87,10.6c-.34.69.25.36.6.19.32-.13.19-.24-.07-.28-.18-.11-.39-.07-.53.08h0Z"/>
        </g>
        <g>
          <path d="M48.92,10.68c.08-.09.12-.09.18-.05s.06.13.04.18-.16.13-.23.1-.06-.16-.05-.18.06-.05.06-.05Z"/>
          <path class="cls-22" d="M48.89,10.78s.02.06.04.06.05-.01.05-.03h0s-.05-.03-.05-.06c0,0,0-.01,0-.02-.02,0-.04.02-.05.05Z"/>
        </g>
        <path class="cls-86" d="M48.68,10.31c.11-.15.37-.42.58-.26.19.12.29.31.47.43-.25-.07-.48-.52-.73-.29-.1.06-.14.35-.31.27-.05-.03-.06-.11-.01-.15h0Z"/>
      </g>
      <path class="cls-101" d="M49.26,13.16s-.19-.62-.27-1.15-.74-1.47-.76-1.66-.13.35-.13.65.44,1.9.17,2.23-.78.57-.78.83.13,1.05.35.89.48-.3.7-.24.61.21.73.1.13-.59.13-.73-.14-.93-.14-.93Z"/>
      <path class="cls-86" d="M33.47,6.33c.38.19,1.39.62,1.82-.1s1.01-2.05,1.75-2.48,3.04-1.35,4-1.25,3.83.05,4.74.48,1.34,1.34,1.96,1.15,1.53-.53,1.53-.91-2.87-1.96-3.11-2.11-4.74-.96-5.55-.81-5.98,2.2-6.22,2.97-.91,3.06-.91,3.06Z"/>
      <path class="cls-109" d="M36.86,10.8c.17.09.27.22.47.16.09-.02.17-.06.25-.02.07.04.28.08.32.22-.07.16-.18.22-.29.27-.11.05-.23,0-.34-.04-.24-.05-.4-.31-.45-.54-.01-.02.02-.05.04-.03h0Z"/>
      <path class="cls-79" d="M36.89,10.75c-.02-.13.05-.49.13-.66s.48-.53.76-.58.65-.29.64-.31-.69-.3-.83-.33-.46-.02-.56.06-.29.39-.3.51-.05.93-.02,1.04.19.28.19.28Z"/>
      <path class="cls-75" d="M38.53,9.25c-.19-.51-.51-1.02-1.09-.77s-1.15,1.02-1.02,1.79-.06,1.53-.13,1.91.06,1.02.83.51c0,0,.37-.34.22-.45s-.36-.05-.38-.41-.12-1.32-.12-1.58-.05-1.12.29-1.27,1.39.38,1.39.38v-.12Z"/>
      <path class="cls-93" d="M35.38,5.58c1.07-4.05,7.57-3.96,10.5-2.68.63.78,1.44,1.36,2.36.99,1.44-1.32-3.3-2.03-4.32-2.3-.97-.03-4.32-.02-4.6.14s-2.92.91-3.51,1.47c-.65.86-1.56,2.28-.43,2.38Z"/>
      <path class="cls-60" d="M47.83,16.96c-.24-.02-.26.02-.5-.1s-1.05-.12-1.39-.07-1.12.29-1.27.34-.17.07-.02.24,1.03.14,1.29.17,1.03.29,1.24.41.82-.08.84-.09.38-.61.28-.68-.48-.22-.48-.22Z"/>
    </g>
    <g id="front-arm">
      <path class="cls-83" d="M20.64,18.75c-.76.68-3.48,4.62-4.02,5s-4.42,4.91-5.09,5.37-3.26,3.03-4.02,3.72c-.76.68-2.5,3.08-2.83,3.83s-.48,3.09.11,3.23,1.04.71,2.13.28c1.08-.43,10.27-9.67,10.58-10.53s3.37-5.72,3.77-6.53,1.43-2.82.98-3.56-1.61-.82-1.61-.82Z"/>
      <path class="cls-36" d="M23.17,31.65c-.97.25-4.69,1.49-6.84,2.57s-6.71,5.56-7.45,5.34-1.88-2.56-1.5-3.51,4.3-1.76,5.8-3.73c1.5-1.97,4.37-4.43,5.81-5.47,1.44-1.04,3.77-2,4.25-1.67s1.62,2.32,1.91,3.26-.26,2.17-.93,2.91c-.67.74-1.05.3-1.05.3Z"/>
      <path class="cls-114" d="M24.47,16.64c.56.02.72.31.52.86.21.89-.08,1.06-.86.52.53,1.49-1.17,2.18-2.57,1.55-.03,2.02-2.35,2.76-2.23.18,1.11-.58,1.57-1.35,2.04-2.42.58-1.29,2.24-.66,3.09-.68Z"/>
      <path class="cls-115" d="M27.73,18.17c.26.59.83,1.1,1.03,1.71.43,2.17.03,2.8-1.19,1.89-1.53.89-2.57-.56-1.03-1.71-.93-.38-1.42-1.48-1.55-2.57l-.52-.86c1.34-.04,2.62.08,3.26,1.53Z"/>
      <path class="cls-15" d="M9.22,33.94c2.02-2.06,3.75-3.08,5.18-3.04-1.01-1.59-.29-1.99,1.09-.58,1.78-.91,1.8.25.8,1.77.26.89-.04,1.05-.86.52-.57,2.06-2.31,3.66-4.1,4.81-1.05,1.01-2.26,2.13-3.64,3.37-1,.61-1.93-.29-2.08-1.4-.09-.67.2-1.67.61-2.4.14-1.9,1.07-3.75,3-3.06Z"/>
      <path class="cls-33" d="M24.51,28.42c2.06-.21,2.31,1.43.31,2.16-.22.81-.36,1.65-.47,2.48-.32-.26-.83-.35-1.09-.66-1.21-1.4-2.89-.44-4.23.37-.89.21-1.06-.08-.52-.86.22-1.85,1.77-4.03,3.86-3.41.55-1.8,1.45-1.83,2.14-.08Z"/>
      <path class="cls-52" d="M8.12,32.27c.73-1.54,1.96-1.97,2.34-.16,1.04.9.03,1.6-1.24,1.83-1.23.78-2.14,1.91-3,3.06-.89-1.84.25-3.7,1.91-4.72Z"/>
      <path class="cls-45" d="M21.56,19.56c.89-.21,1.06.08.52.86,1.27,2.49-4.16,4.78-6.49,4.84l2.44-3.62c.38-.56.72-1.57,1.31-1.9.65.68,1.55.23,2.23-.18Z"/>
      <path class="cls-74" d="M26.54,20.06c.88,1.85-.82,2.68-2.57,1.55-.94.28-1.1-.02-.52-.86-.43-1.07.11-2.02.68-2.75l.86-.52c.52.25,1.04.52,1.51,1.03.35.38.07,1.02.04,1.53Z"/>
      <path class="cls-97" d="M24.13,18.01c.23.34.56.79.6,1.29.05.7-.68,1.2-1.28,1.46-.65,1.23-1.28,1.03-1.37-.34l-.52-.86,2.57-1.55Z"/>
      <path class="cls-57" d="M26.54,20.06l1.03,1.71c-.24.69-.54,1.63-1.39,1.84-2.26,1.37-2.76.52-2.22-2l2.57-1.55Z"/>
      <path class="cls-54" d="M15.59,25.26c.9-.31,1.09.06.68,1.01,2.59.32,1.58,4.64-.78,4.06l-1.09.58c-2.44,1.1-2.82.25-1.03-1.71-.42-1.93,1.35-2.63,2.23-3.93Z"/>
      <path class="cls-83" d="M13.36,29.19l1.03,1.71c-1.89,1-2.85,3.96-5.18,3.04l1.24-1.83c.43-.63.91-1.18,1.19-1.89.37-.46,1.26-.62,1.71-1.03Z"/>
      <path class="cls-12" d="M18.2,25.45c1.82-.12,2.06.95.89,2.19,2.3,1.23-.09,3.67-2.02,3.83.38.87.11,1.06-.78.62l-.8-1.77c1.34-.91,1.46-2.67.78-4.06.23-1.11.93-1.44,1.93-.81Z"/>
      <path class="cls-99" d="M17.07,31.47c1.06-.97,1.61-1.03,1.44.45l.52.86-3.42,2.07-.18-2.23c.27-.2.6-.3.86-.52s.58-.38.78-.62Z"/>
      <path class="cls-76" d="M22.37,28.51c-.69,1.66-2.35,2.55-3.86,3.41-.49.28-1.16-.02-1.44-.45.9-1.12,1.59-2.48,2.02-3.83-.38-1.92.27-2.23,1.4-.6.7.14,1.51.78,1.88,1.47Z"/>
      <path class="cls-24" d="M23.45,20.76c.12.26.29.7.52.86-.81.69-1.57,1.47-2.07,2.41-1.51,1.59-2.74,2.07-3.69,1.43-.56.36-1.39.39-1.93.81-.21-.35-.44-.68-.68-1.01,2.38-1.29,5.6-2.07,6.49-4.84.51-.46,1.1-.27,1.37.34Z"/>
      <path class="cls-36" d="M21.9,24.02c-.53.98-1.03,1.97-1.4,3.02-.38-.08-1.28.24-1.4.6-.69-.47-.68-1.42-.89-2.19,1.06-.68,2.4-2.43,3.69-1.43Z"/>
    </g>
  </g>
</svg>