<?xml version="1.0" encoding="UTF-8"?>
<svg id="Enemy" xmlns="http://www.w3.org/2000/svg" viewBox="0 0 131.98 44.51">
  <defs>
    <style>
      .cls-1 {
        fill: #ba8a66;
      }

      .cls-2 {
        fill: #4f4b46;
      }

      .cls-3 {
        fill: #fbcba3;
      }

      .cls-4 {
        fill: #f9cfab;
      }

      .cls-5 {
        fill: #0d0f57;
      }

      .cls-6 {
        fill: #98918d;
      }

      .cls-7 {
        fill: #e4b89b;
      }

      .cls-8 {
        fill: #05175f;
      }

      .cls-9 {
        fill: #b08d83;
      }

      .cls-10 {
        fill: #8f4f15;
      }

      .cls-11 {
        fill: #f6c7a7;
      }

      .cls-12 {
        fill: #b59c91;
      }

      .cls-13 {
        fill: #e0deeb;
      }

      .cls-14 {
        fill: #54575a;
      }

      .cls-15 {
        fill: #0e1857;
      }

      .cls-16 {
        fill: #2a292e;
      }

      .cls-17 {
        fill: #8d6354;
      }

      .cls-18 {
        fill: #081e79;
      }

      .cls-19 {
        fill: #c3a38e;
      }

      .cls-20 {
        fill: #071554;
      }

      .cls-21 {
        fill: #0a0b23;
      }

      .cls-22 {
        fill: #fff;
      }

      .cls-23 {
        fill: #b88b73;
      }

      .cls-24 {
        fill: #884009;
      }

      .cls-25 {
        fill: #bd907d;
      }

      .cls-26 {
        fill: #091251;
      }

      .cls-27 {
        fill: #bb9c85;
      }

      .cls-28 {
        fill: #1930a7;
      }

      .cls-29 {
        fill: #dbb69f;
      }

      .cls-30 {
        fill: #aa9278;
      }

      .cls-31 {
        fill: #021558;
      }

      .cls-32 {
        fill: #c3957c;
      }

      .cls-33 {
        fill: #010634;
      }

      .cls-34 {
        fill: #07103b;
      }

      .cls-35 {
        fill: #091042;
      }

      .cls-36 {
        fill: #cdab90;
      }

      .cls-37 {
        fill: #fee3ba;
      }

      .cls-38 {
        fill: #968576;
      }

      .cls-39 {
        fill: #413d3b;
      }

      .cls-40 {
        fill: #574f4b;
      }

      .cls-41 {
        fill: #756d69;
      }

      .cls-42 {
        fill: #784f34;
      }

      .cls-43 {
        fill: #0b0e23;
      }

      .cls-44 {
        fill: #0f1c5e;
      }

      .cls-45 {
        fill: #151f56;
      }

      .cls-46 {
        fill: #2a2824;
      }

      .cls-47 {
        fill: #8e857d;
      }

      .cls-48 {
        fill: #2b2726;
      }

      .cls-49 {
        fill: #040d34;
      }

      .cls-50 {
        fill: #282627;
      }

      .cls-51 {
        fill: #918a84;
      }

      .cls-52 {
        fill: #e2b09e;
      }

      .cls-53 {
        fill: #edb490;
      }

      .cls-54 {
        fill: #9c7959;
      }

      .cls-55 {
        fill: #47423d;
      }

      .cls-56 {
        fill: #cb9974;
      }

      .cls-57 {
        fill: #051143;
      }

      .cls-58 {
        fill: #061b6e;
      }

      .cls-59 {
        fill: #4a3f37;
      }

      .cls-60 {
        fill: #0e1e6e;
      }

      .cls-61 {
        fill: #3d3635;
      }

      .cls-62 {
        fill: #766b62;
      }

      .cls-63 {
        fill: #373227;
      }

      .cls-64 {
        fill: #070a3d;
      }

      .cls-65 {
        fill: #89847d;
      }

      .cls-66 {
        fill: #07175b;
      }

      .cls-67 {
        fill: #030c34;
      }

      .cls-68 {
        fill: #14172d;
      }

      .cls-69 {
        fill: #ba8b79;
      }

      .cls-70 {
        fill: #6b523a;
      }

      .cls-71 {
        fill: #efaa9d;
      }

      .cls-72 {
        fill: #26292e;
      }

      .cls-73 {
        fill: #8c674e;
      }

      .cls-74 {
        fill: #0a134f;
      }

      .cls-75 {
        fill: #efad88;
      }

      .cls-76 {
        fill: #444240;
      }

      .cls-77 {
        fill: #0f2175;
      }

      .cls-78 {
        fill: #26326e;
      }

      .cls-79 {
        fill: #59524e;
      }

      .cls-80 {
        fill: #0b102f;
      }

      .cls-81 {
        fill: #081e77;
      }

      .cls-82 {
        fill: #f6ad80;
      }

      .cls-83 {
        fill: #606275;
      }

      .cls-84 {
        fill: #d2a591;
      }

      .cls-85 {
        fill: #0d0e21;
      }

      .cls-86 {
        fill: #dd9a59;
      }

      .cls-87 {
        fill: #050f38;
      }

      .cls-88 {
        fill: #0c0f25;
      }

      .cls-89 {
        fill: #a86d3a;
      }

      .cls-90 {
        fill: #f0c7a5;
      }

      .cls-91 {
        fill: #836851;
      }

      .cls-92 {
        fill: #d4996e;
      }

      .cls-93 {
        fill: #88807a;
      }

      .cls-94 {
        fill: #2f2924;
      }

      .cls-95 {
        fill: #feccad;
      }

      .cls-96 {
        fill: #db9770;
      }

      .cls-97 {
        fill: #101e78;
      }

      .cls-98 {
        fill: #171a35;
      }

      .cls-99 {
        fill: #142796;
      }

      .cls-100 {
        fill: #031765;
      }

      .cls-101 {
        fill: #2a2522;
      }

      .cls-102 {
        fill: #483f3d;
      }

      .cls-103 {
        fill: #837d78;
      }
    </style>
  </defs>
  <g id="CrimeGuy_defeat">
    <g>
      <g>
        <path class="cls-67" d="M61.63,23.39c.37-2.71,1.58-5.15,3.51-7.09,4.38-1.19,9.1-1.66,14.17-1.4,1.69-1.55,6.25-1.42,7.06.88-1.3,1-3.63.32-4.48,1.99-10.67,1.01-16.01,1.51-16.01,1.51l.65.02c-.16,1.49-.44,2.96-.84,4.43-.59,1.63-1.2,1.11-1.81-.64l-1.05,4.25c-1.96-1.33-.94-2.84-1.21-3.95Z"/>
        <path class="cls-88" d="M81.89,17.76l.57.31c-2.15.06-4.4,1.94-6.59,2.03l-9.53.38,1.94,4.03c-.03.88-.9.42-1.31.24-.52-.22-.91-.57-1.26-1.03-.47-1.61-1.5-3.33-.81-5.49,3.22-1.09,6.4.17,9.52-.67,2.63-.71,5.17-1.04,7.49.21Z"/>
        <path class="cls-80" d="M58.39,7.97c-1.17-2.78,4.36-4.17,5.59-1.55.27-2.96,3.45-2.69,4.08.1.78.49.68.81-.24.96.45,1.74-1.11,2.9-2.8,2.44-.47.77-.73.65-.79-.29-2.05,1.13-3.33,1.2-5.25.26-.31-.18-.5-.7-.8-.93l.21-.99Z"/>
        <path class="cls-66" d="M58.99,9.89c1.57-.91,3.6-.86,5.25-.26,1.08.87,1.38,1.93.27,2.66,2.34.15,3.47,1.01,3.41,2.57,1.05-.9,2.51-1.19,4.39-.86,1.31-2.08,1.69-2.18,3.12-.11,2.32-.54,3.62-.2,3.89,1.01-1.68,2.01-4.51.12-6.88.66-2.78.63-4.86,1.5-7.29.74-2.2-.68-5.02-2.57-7.55.54-2.14-2.92,5.86-5.64,1.4-6.95Z"/>
        <path class="cls-98" d="M74.44,5.81c.63-2.7,4.38-2.75,5.21-.16,1.33-2.86,2.69-1.79,3.81.56l4.23.9c.44-.44.76-.33.96.29,1.27-2,5.08-3.38,6.16-.62,3.39.53,6.41-1.37,9.7-.46l-.64,1.57c-.97,2.14-5.38,3.12-7.46,2.42-1.27,1.48-3.46,3.94-5.5,3.86-2.08-2.17-4.81-3.95-8.18-5.35l-14.56-.06-.35-1.27.24-.96c.38-3.1,4.16-1.68,6.37-.7Z"/>
        <path class="cls-8" d="M67.83,7.48c8.27,1.91,9.63-2.36,19.19,2.11.99.46,3.56-.17,4.06,1.1.34.89-.39,2.31-.16,3.48-1.86-.08-3.12.52-4.54,1.61-2.27-.9-4.74-.27-7.06-.88l-3.89-1.01c.72-1.41-.83-2.3-4.64-2.67-5.92,2.22-7.83,1.79-5.75-1.31,1.04-.69,2.05-1.43,2.8-2.44Z"/>
        <path class="cls-18" d="M64.24,9.63l.79.29c.07.79.6,1.33,1.1,1.2.91-.24,1.44-1.1,2.19-1.48,2.71-1.38,5.41.89,8.15.8,2.18-.08,4.1-1.45,5.92-.9,2.22.68,3.77,1.84,4.53,3.99-4.03-.98-8.17-1.1-11.5.36-1.06.47-1.97.72-3.12.11-1.71-.25-3.17.04-4.39.86-2.54-.52-5.16-.48-7.71-1.67,1.64-1.93,3.34-2.16,4.04-3.56Z"/>
        <path class="cls-8" d="M72.3,14c-1.21.52-3,1.14-4.39.86-.03-1.38.98-1.91,1.99-1.57.92.31,1.73.35,2.4.71Z"/>
      </g>
      <g>
        <path class="cls-85" d="M86.37,15.78c-.18-3.54,2.53-4.62,4.54-1.61.78-2.39,2.84-5.17,5.5-3.86l2.71.8c2.24-1.02,3.9-.88,4.98.43,1.07-.06,2.04.2,2.9.77,2.25-1.35,3.21-1.12,2.91.7,1.54-.08,2.63.23,1.48,1.58-1.93.17-3.95.24-5.4,1.68l-2.15.2-6.14-.57c-2.94-.27-4.9,1.09-7.59,1.98.46,3.04-7.03,3.1-7.67.2l-.57-.31c-.64-1.65.86-2.32,4.48-1.99Z"/>
        <path class="cls-46" d="M113.41,12.59c.76-2.95,4.71-2.5,6.17-.21.03-2.2,2.61-1.95,2.96.05.8-1.73,1.22-2.18,2.26-.47,1.31-1.12,2.71-1.42,4.22-.92,1.09,0,1.36.47.79,1.4-1.55.89-2.92,3.61-5.07,3.61-4.79,0-9.03-1.85-13.34-1.47-.43-.58-.94-1.1-1.48-1.58-1.01-2.45,2.27-2.1,3.48-.42Z"/>
        <path class="cls-94" d="M124.22,6.29l1.59.48c2.25.54,1.93,1.71-.42,1.74.14,1.56-1.03,2.62-2.16,1.1-.49,2.03-2.94,1.77-4.2.59-2.25.97-2.37.83-1.71-1.55,2.2-1.12,4.84-.87,6.9-2.35Z"/>
        <path class="cls-40" d="M125.81,6.77c1.71-1.63,3.95-2.15,5.41-.31.03.89-.33,1.09-1.08.6-.08,2.68-3.86,5.73-3.91,1.68-.45.75-.73.66-.85-.24l.42-1.74Z"/>
        <path class="cls-101" d="M130.15,7.06c.3-.28.71-.45,1.08-.6,1.45,1.82.73,4.75-1.41,5.98-.19-.51-.45-.98-.79-1.4-.87-.63-.63-1.43.72-2.39l.41-1.58Z"/>
        <path class="cls-14" d="M103.86,16.45c-.76.07-1.45.61-2.28.46l-2.89-.8-.97-.23c1.87.17,4.15-.92,6.14.57Z"/>
        <path class="cls-61" d="M115.4,8.21c.67-.05,1.34.07,1.92.43s1.53.78,1.71,1.55c2.56.21,2.56.68.54,2.18-2.02,1.06-4.03-.33-6.17.21-1.44-.6-2.33-1.43-2.68-2.48-.54-1.01.37-1.33,2.74-.97l1.93-.93Z"/>
        <path class="cls-50" d="M104.51,6.32l4.82,1.33,5.09.37.99.19c-.8,2.29-3.09,1.06-4.68,1.9-.59,1.98-1.23,1.8-1.93-.53-1.5.45-2.89.43-4.18-.05-2.48.98-2.74.1-.74-1.64-2.17-.64-1.56-1.5.64-1.57Z"/>
        <path class="cls-61" d="M111.59,7c.97.24,1.86.84,2.83,1.03-1.38,1.42-3.48.07-5.09-.37.49-.68,1.46-.85,2.26-.65Z"/>
        <path class="cls-74" d="M96.42,10.31c1.92-2.24,4.22-3.07,7.46-2.42l.74,1.64c.8.42.7.73-.24.92.77.52.67.88-.27,1.09-2.37.84-4.64,2.55-7.51.8-.77-.47-.38-1.49-.19-2.03Z"/>
        <path class="cls-102" d="M108.8,9.58l1.93.53c.6.17,1.61.39,2.11.73.46.31,1.37,1.06.58,1.74-1.1.28-2.47-.48-3.48.42l-2.91-.7c-1.92-.32-1.72-1.07.29-1.11l1.48-1.61Z"/>
        <path class="cls-16" d="M104.11,11.54l.27-1.09c1.09-1.28,3.32-1.21,2.93.75l-.29,1.11c-.54.46-1.21,1.12-1.98,1.03s-.92-1.14-.93-1.81Z"/>
        <path class="cls-62" d="M126.24,8.75c1.78,1.24,2.62-.45,3.91-1.68,1.65,1.08-.38,2.79-1.13,3.98-.48.77-1.33,1.53-2.35,1.86-.62.2-1.36-.43-1.87-.93-1.42-1.36-.15-2.51,1.44-3.22Z"/>
        <path class="cls-79" d="M119.03,10.19c1.11-1.13,2.77-.35,4.2-.59,2.05.15.88,2.07-.7,2.82-.85.28-2.17-.46-2.96-.05-.51-.64-.37-1.46-.54-2.18Z"/>
        <path class="cls-59" d="M123.23,9.61c.77-.13,1.46-.8,2.16-1.1.25.13.62.08.85.24-.39,1.11-.86,2.19-1.44,3.22-.76.11-1.54.23-2.26.47l.7-2.82Z"/>
        <path class="cls-61" d="M108.8,9.58c-.05.36.61,1.31.34,1.66-.39.49-1.43-.01-1.82-.04l-2.93-.75.24-.92c.61-.56,1.34-.93,2.37-1.11.71-.12,1.53.21,1.8,1.16Z"/>
      </g>
    </g>
    <g>
      <g>
        <path class="cls-51" d="M114.93,17.07c2.19-1.24,6.06-.6,5.64,1.95,1.65.35,1.56,1.07-.27,2.15l-.9.44c-2.52.94-2.79.07-.89-1.79-2.05.48-3.69.18-4.91-.92-.91.13-1.05-.17-.44-.9-.73-1.28.71-1.84,1.77-.94Z"/>
        <path class="cls-48" d="M97.06,19.27c.26-1.44,1.47-1.8,2.45-.51,3.49-.65,6.85-2.16,10.41-2.37,2.37-.35,4.16-1.34,5.37-2.96l7.6-3.54c2.15,1.79,2.63,4.46,4.28,6.3-.13.28-.45.71-.71.87l-1.28,1.73c-3.29-1.86-6.71-2.43-10.23-1.72l-1.77.94c-1.99,1.77-3.87,2.26-5.64,1.45-2.28.83-4.44,1.2-6.48,1.09.13.91-.17,1.05-.9.44-.15,1.92-1.86,2.03-2.2.07-2.81,1.34-3.65-.45-.89-1.79Z"/>
        <path class="cls-76" d="M114.52,13.99c.28-.13.48-.44.75-.56.16,2.72-3.37,2.84-5.37,2.96,1.51-.86,3.05-1.66,4.61-2.4Z"/>
        <path class="cls-39" d="M113.16,18.01l.44.9.44.9c1.15-.84,2.06.06,1.78,1.35,1.59.96.22,1.53-1.35,1.97-3.04,1.27-6.04,2.63-8.86,4.34-2.65-1.02-.6-4.44,1.84-3.08l-.48-1c1.1-.51,1.75-1.26,1.96-2.24l-3.03.52c-.25,1.81-1,1.81-2.27,0-1.09,2.56-3.27,1.33-2.6-1.12,3.72-1.84,7.97-2.53,12.12-2.54Z"/>
        <path class="cls-2" d="M99.75,26.94c-.82-.57-.89-2.23-.48-3.19-.11-.92.21-1.06.96-.47,1.23-.42,2.35-.82,3.41-1.61,1.75-.68,3.84-2.3,5.3-.52-.27.93-.76,2.01-1.48,3.24-1.01.67-1.56,1.91-1.84,3.08-.11.45-.53.83-.6,1.3-.29.1-.54.32-.84.4-4.91.88-6.39.14-4.43-2.23Z"/>
        <path class="cls-55" d="M115.83,21.15c-1.22-1.72,1.06-1.68,2.69-1.33.43.45.49,1.31.89,1.79-1.56.77-3.13,1.85-4.92,1.51.58-.56,1.08-1.21,1.35-1.97Z"/>
        <path class="cls-47" d="M126.45,17.06c2.24,1.04,3.68,3.33,4.62,5.49-2.21,1.48-5.17-.2-5.63-2.8-2.49-1.51-2.38-3.43,1.01-2.69Z"/>
        <path class="cls-41" d="M125.44,19.75c1.82,1.22,3.29,3.25,5.63,2.8l.4.91c-1.44.38-3.04.35-4.47-.02-.49-.28-1.45-.87-1.78-1.35-.82-1.33-.75-2.11.22-2.34Z"/>
        <path class="cls-55" d="M126.45,17.06c-.99.62-1.48,1.58-1.01,2.69.31.73.18,1.68-.22,2.34-.45-.63-1.11-1.07-1.62-1.59-1.01-.33-2.02-.82-3.03-1.48-1.41-1.68-3.59-1.7-5.64-1.95,1.01-.54,1.92-2.34,3.49-1.55.93.47,2.03,1.18,2.86,1.16.65-.02,1.45-1.08,2.25-1.37.49,1.73,1.99,1.33,2.91,1.75Z"/>
        <path class="cls-93" d="M120.57,19.02c.45-.32.84-.76,1.13-1.09.62-.71.96.06,1.26.31.64.53.22,1.82.64,2.26-1.15-.11-2.27.17-3.3.67.04-.72.14-1.44.27-2.15Z"/>
        <path class="cls-6" d="M114.05,19.8c-.91.13-1.05-.17-.44-.9,1.51-.21,3.77-.27,4.91.92l-2.69,1.33c-.9.18-1.43-.64-1.78-1.35Z"/>
        <path class="cls-72" d="M99.34,28.22c-.94.15-1.12-.15-.54-.9-.06-.92.26-1.04.95-.39.48,2.4,3,1.15,4.43,2.23-3.96,1.08-7.68,3.1-11.64,3.77,2.01-1.98,5.73-1.85,6.79-4.71Z"/>
        <path class="cls-43" d="M87.43,25.23c3.36-1.86,5.85-5,9.62-5.97-.2.77.01,1.65.89,1.79,1.83-.13,1.82,2.04.43,3.13-4.81-6-10.84,7.92-10.94,1.04Z"/>
        <path class="cls-63" d="M100.23,23.28c-1.42-.4-1.58-1.93-.09-2.28l.9-.44c.62.48,1.7,1.47,2.6,1.12-.26,1.14.13,2.28.32,3.52-1.87.25-3.1-.71-3.73-1.91Z"/>
        <path class="cls-39" d="M97.94,21.06l2.2-.07c.25.68-.25,1.65.09,2.28l-.96.47c.13.91-.17,1.05-.9.44.09-1.07-.03-2.13-.43-3.13Z"/>
        <path class="cls-103" d="M113.6,18.9l.44.9c-.53,1.01-2.35,3.59-3.62,1.61-.6-.93,2.18-2.37,3.18-2.51Z"/>
        <path class="cls-65" d="M108.94,21.15c.55.67,1.34,1.36.46,1.95l-1.93,1.29c-.44-.54-1.1-.73-1.91-1.31,1.38-1.16,2.39-1.39,3.38-1.93Z"/>
        <path class="cls-83" d="M98.37,24.19l.9-.44c.52.98.88,2.1.48,3.19l-.95.39c-.32-1.01-.52-2.07-.43-3.13Z"/>
        <path class="cls-26" d="M98.8,27.33c.1.33.4.59.54.9-1.61.53-3.17,2.04-5.18,1.93-1.5-.08-2.48-1.67-2.24-2.71.27-1.12,1.6-2.2,3.06-1.91,1.57.31,2.5,1.61,3.82,1.79Z"/>
      </g>
      <g>
        <path class="cls-13" d="M83.11,36.2c-.97-1.68-.27-2,1.04-.48.4-3.2,2.83-2.92,3.44.1,1.3.79.82.99-.49,1.51-1.16.11-2.37-.18-3.53.06-.17-.39-.39-.77-.47-1.19Z"/>
        <path class="cls-13" d="M76.63,36.67c-.14-1.47,1.07-1.24,2.04-.32,1-.54,1.59-.25,1.77.87-.69,1.02-1.84,1.09-2.73,1.75-.97-.35-1.3-1.35-1.08-2.31Z"/>
        <path class="cls-87" d="M83.11,36.2c-.72.33-2.19.33-2.66,1.02-.55-.35-1.16-.64-1.77-.87-.89.13-.97-.16-.31-.83-.85-3.94,6.46-3.64,4.74.68Z"/>
        <path class="cls-35" d="M56.76,30.61c-.64-.69-.49-1.07.44-1.15.84-3.27,5.52-3.94,5.72.51,2.11-.56,4.59-.04,7.43,1.57,4.88-.28,7.56,1.05,8.03,3.98l.31.83c-.66-.25-1.45.44-2.04.32-4.19-.84-8.45-1.45-12.39-3.18-1.74-.77-3.28-.99-5.2.26-.23-.53-.94-.58-1.34-.71-1.95-.04-2.41-1.17-.94-2.43Z"/>
        <path class="cls-87" d="M61.38,21.53c.5-.26-1.73-4.82-1.73-4.82l2.3-2.94,2.9-.07,2.95.42,1.36,2.61,10.42,1.61,1.05,2.24c3.64-.36,7.85.81,10.95,2.49.2-.12.51-.03.72-.13l1.32.42c5.22-4.82,8.43-5.21,9.64-1.16,1.06.58,1,2.13.34,3.14-.52,1.51-3.53.78-3.3.46.55-.76,2.9-.15,3.81.45l.96,1.07c-2.48,1.46-5.1,2.62-7.88,3.46-.46.43-.91,1.14-1.49,1.4-2.69,1.2-5.19,3.05-8.11,3.64-.94.02-2.23-.65-3.44-.1-1.52-2.45-3.7-3.64-6.54-3.57l-.69-2.42c-4.19-.78-8.25-2.03-12.17-3.75-4.28,2.02-7.51-3.35-3.37-4.46Z"/>
        <path class="cls-58" d="M76.92,29.74c2.03,1.27,5.3.24,7.41,2.03-.14,1.49-.39,2.83-.18,3.95l-1.04.48c-.4-2.16-3.42-1.14-4.74-.68-6.8-3.82-5.14,1.09-15.45-5.55-4.36-2.35-2.09-4.46,2.22-3.91,3.76,1.7,7.69,2.93,11.78,3.68Z"/>
        <path class="cls-31" d="M49.45,12.74c.55-.77.95-.71,1.21.19.91-1.46,1.66-1.82,2.24-1.05.32.41.6,1.16.82,2.23.04.17.07.34.11.52.02.11.03.22.05.33,2.3-.93,4.17-1.29,5.61-1.11.45,1.96,1.35,3.79,2.7,5.48.05.06.11.14.16.2l-.33.67-.64,1.33c-.31.58-.61,1.37-.32,1.91.3.56,1.21,1.41,2.02,1.29,3.41-.47,5.39,1.46,8.15,2.68,2.1.94,4.01,1.27,5.69,2.33-3.32-.4-7.04-.09-10.49-1.45-1.22-.48-1.98-1.6-3.06-1.05-.51.26-.78.57-.89.92-.17.55.06,1.18.44,1.81-.14-.09-.29-.18-.45-.26-1.63-.89-3.88-1.31-5.27-.25-.91-.07-1.07-.46-.48-1.16l-.3-.87c-.02-2.13.6-3.44,1.84-3.97-1.09-.81-2.27-.85-3.54-.1-.11.05-.22.12-.33.2l-1.39-2.56-1.43-.1c.2-2.28-1.04-3.73-3.73-4.31-.88.25-1-.05-.44-.81-2.54-1.97-1-3.95,2.04-3.04Z"/>
        <path class="cls-60" d="M53.53,24.15c-.72-1.05-.26-2.13-.52-3.16,3.23,2.53,4.81-1.76,5.26,2.46-.34,1.39-.95,2.72-1.84,3.97.13.27.23.58.3.87-2.26.01-2.2-2.69-3.2-4.15Z"/>
        <path class="cls-100" d="M58.27,23.46l.3,2.86c.1.99-1.16,1.37-2.14,1.12-.57-1.12-1.51-1.92-1.84-3.87,1.47.35,2.57.33,3.68-.11Z"/>
      </g>
    </g>
    <g>
      <path class="cls-84" d="M29.7,2.31c1.23.01,2.62-.37,3.72.24l2.68,1.49c.88.11.99.47.33,1.06.43,1.86-1.97,1.92-3,.53-.46,1.53-1.33,1.18-2.61.39-1.91-.19-3.62-1.93-1.52-2.94.06-.29.23-.54.4-.77Z"/>
      <path class="cls-89" d="M60.58.78c1.96.65,3.78-.66,5.77-.78,1.84.49,1.14,1.56-.49,2.18.51.71.17,1.19-1.03,1.45.62.76.44,1.14-.54,1.14.62,3.42-2.63,3.28-3.09.34-2.35,1.31-2.88.57-1.45-1.68-.8.39-1.02.13-.7-.75l1.52-1.9Z"/>
      <path class="cls-36" d="M58.22,2.31c.09,2.22-3.99,3.4-4.83,1.22-.97,2.31-4.12,2.05-5.51.33-.78.49-1.04.25-.8-.66-.68.6-.92.4-.75-.54,2.86-.99,8.79-1.87,11.89-.36Z"/>
      <path class="cls-90" d="M58.22,2.31c.26.13.61.2.84.38.27.2.49.5.7.75.36,2.6-4.2,4-6.16,2.56-2.26-1-2.27-1.03-.22-2.46,1.67.12,3.6-.13,4.83-1.22Z"/>
      <path class="cls-25" d="M41.74,3.31c.97.14.97.57.15,1.25-.2,2.46-4.34,2.28-5.46.55-.17-.33-.29-.69-.33-1.06,1.74-1.07,3.71-.89,5.64-.73Z"/>
      <path class="cls-53" d="M46.33,2.67l.75.54c1.09,1.68-.37,3.09-2.02,3.97.5.77.28,1.02-.63.78-.77.5-1.02.28-.78-.63-2.47-.38-2.37-.65-.18-1.79-1.4-.97-.12-2.1,1.11-2.52.4.19,1.33-.19,1.75-.34Z"/>
      <path class="cls-32" d="M44.57,3.01c.58.97-.43,1.84-1.11,2.52-1.07,1.89-2.27,1.11-1.57-.97,0-.42-.06-.84-.15-1.25.88.07,1.87-.75,2.83-.3Z"/>
      <path class="cls-4" d="M36.43,5.1c1.82-.32,3.7.14,5.46-.55l1.57.97c.22.57.34,1.19.18,1.79,1,2.66-.18,3.08-1.98.85-2.08.03-4.33.25-6.75.65l-.56-1.47c-1.14-.13-1.45-.7-.93-1.72.99.04,2.04-.36,3-.53Z"/>
      <path class="cls-7" d="M33.43,5.63c.24.61.55,1.19.93,1.72,1.42,1.31.74,2.01-1.18,1.65-.92-.37-1.53-1.24-2.38-1.69.09-.34.29-.97.03-1.3.18-.36.57-.6,1.03-1,.54-.47,1.07.59,1.58.61Z"/>
      <path class="cls-1" d="M34.35,7.35c2.5.71,5.21-.79,7.31.81,1.65,1.02,1.28,1.71-.67,1.38.28.45.08.6-.5.52l-5.77.3c-.58-.33-.93-1.11-1.55-1.36.31-.61.7-1.17,1.18-1.65Z"/>
      <path class="cls-27" d="M40.49,10.07c1.6,3.54-1.64,2.85-4.11,1.26-.13-.24-.52-.39-.74-.56-.26-.2-.64-.23-.93-.4,1.85-1.21,4.18-2.32,5.77-.3Z"/>
      <path class="cls-10" d="M74.01.7c.24.3.33.77.59,1.05.31.86.04,1.06-.78.61-1.36,1.62-4.85,1.29-4.51-1.23-.17-.53.05-.78.63-.78,1.38-.16,2.72.01,4.07.35Z"/>
      <path class="cls-24" d="M66.35,0c1.17-.07,2.42.48,3.59.34l-.63.78c.89,2.27-1.92,2.6-3.44,1.06.06-.67,0-1.58.49-2.18Z"/>
      <path class="cls-86" d="M65.87,2.19c1.24.04,2.4-.42,3.44-1.06,1.35.84,2.9,1.39,4.51,1.23,3.34,1.68,1.04,2.92-1.82,1.86-2.43.3-4.75-.35-7.15-.58-.5-.83.51-1.15,1.03-1.45Z"/>
      <path class="cls-23" d="M59.76,3.44l1.45,1.68-1.11,1.25c-.01,3.02-5.13,4.48-6.46,1.34l-.78-.63c-1.67-1.03-1.18-1.71.74-1.09,2.29-.15,4.54-.88,6.16-2.56Z"/>
      <path class="cls-37" d="M53.39,3.53c.42.76.62,1.65.22,2.46l-.74,1.09c-1.31.62-3.1,1.32-4.22.43-.33,1.38-2.3,1-2.18-.49.2-1.06.67-2.12,1.42-3.16,1.66-1.23,3.66-.46,5.51-.33Z"/>
      <path class="cls-3" d="M47.08,3.21l.8.66c.27.39.84,1.16.59,1.58-.5.82-1.45,1.07-2.01,1.58.11,1.47-.54,1.38-1.41.14.6-1.36,1.26-2.69,2.02-3.97Z"/>
      <path class="cls-19" d="M46.46,7.03l2.18.49c.9.23.89.71.14,1.41.29,1.9-.49,2.12-1.48.39-1.08-.16-2.05-.69-2.88-1.37l.63-.78,1.41-.14Z"/>
      <path class="cls-29" d="M73.82,2.36l.78-.61c1.07,1.16,2.78,2.01,2.45,4.49-1.8.08-2.72-1.07-3.99-1.2-.4-.04-.67-.69-1.06-.81.52-.06.96-.4,1.48-.6s1.13-.8.35-1.26Z"/>
      <path class="cls-30" d="M52.86,7.08c.3.1.49.49.78.63-1.52-.16-3.2,1.61-4.85,1.21-.1-.46-.15-.93-.14-1.41,1.33-.59,2.81-.89,4.22-.43Z"/>
    </g>
    <g>
      <path class="cls-84" d="M21.12,36.63c1.22.16,2.54.73,3.72.28l2.86-1.1c.88.01,1.04-.32.48-1,.68-1.78-1.68-2.18-2.9-.95-.24-1.57-1.16-1.35-2.53-.75-.24-.01.17-2.63-.36-3.12-.88-.82-2.82.29-3.42.08-.81-.29-.45,1.71-.58,2.05-.08.23-.19,1.21.52,2.29.66,1,2.14,2.1,2.2,2.22Z"/>
      <path class="cls-89" d="M51.49,42.46c2.03-.37,3.65,1.18,5.61,1.58,1.89-.23,1.34-1.39-.18-2.23.61-.63.34-1.16-.81-1.57.72-.67.6-1.07-.37-1.2,1.09-3.3-2.14-3.62-3.01-.77-2.14-1.62-2.77-.97-1.67,1.46-.73-.5-.99-.27-.8.64l1.24,2.1Z"/>
      <path class="cls-36" d="M49.36,40.62c.4-2.18-3.48-3.93-4.61-1.89-.64-2.43-3.79-2.61-5.41-1.1-.71-.59-1-.4-.88.54-.59-.69-.85-.52-.82.43,2.69,1.38,8.44,3.08,11.72,2.02Z"/>
      <path class="cls-90" d="M49.36,40.62c.28-.09.63-.12.89-.25.29-.16.55-.43.8-.64.72-2.52-3.6-4.54-5.74-3.39-2.38.67-2.39.71-.56,2.41,1.67.12,3.55.63,4.61,1.89Z"/>
      <path class="cls-25" d="M33.18,37.33c.98,0,1.04-.42.33-1.21.15-2.46-3.98-2.86-5.33-1.3-.22.31-.38.64-.48,1,1.57,1.3,3.55,1.41,5.49,1.51Z"/>
      <path class="cls-53" d="M37.63,38.6l.82-.43c1.31-1.51.06-3.11-1.45-4.21.6-.69.42-.97-.52-.86-.69-.6-.97-.42-.86.52-2.5.03-2.43.31-.43,1.75-1.53.77-.41,2.06.75,2.65.43-.13,1.29.38,1.69.58Z"/>
      <path class="cls-32" d="M35.94,38.02c.71-.88-.17-1.88-.75-2.65-.8-2.03-2.1-1.41-1.69.74-.06.42-.18.82-.33,1.21.88.05,1.74,1.01,2.77.69Z"/>
      <path class="cls-4" d="M28.17,34.81c1.75.58,3.69.38,5.33,1.3l1.69-.74c.3-.54.51-1.13.43-1.75,1.37-2.49.25-3.08-1.84-1.12-2.06-.32-4.25-.86-6.59-1.59l-.76,1.38c-1.14-.03-1.53.49-1.16,1.58.99.1,1.97.64,2.9.95Z"/>
      <path class="cls-7" d="M25.64,33.65c.38-.74.83-1.43,1.37-2.04,1.95-1.37,1.17-2.46-1.31-2.47-1.21.26-2.09,1.25-3.21,1.63.08.47.25,1.35-.12,1.71.19.53.66.94,1.19,1.57.64.76,1.42-.51,2.07-.41Z"/>
      <path class="cls-1" d="M26.43,32.29c2.58-.36,5.05,1.51,7.36.22,1.78-.78,1.51-1.51-.47-1.46.34-.41.17-.59-.42-.58l-5.67-1.11c-.62.24-1.08.97-1.73,1.13.22.64.53,1.25.94,1.8Z"/>
      <path class="cls-27" d="M32.89,30.46c2.08-3.28-1.23-3.05-3.89-1.82-.17.22-.57.31-.81.45-.28.17-.67.14-.97.26,1.66,1.45,3.82,2.88,5.67,1.11Z"/>
      <path class="cls-10" d="M64.77,44.43c.28-.26.43-.71.73-.95.43-.81.19-1.04-.69-.71-1.12-1.79-4.62-1.95-4.63.59-.24.5-.06.78.52.86,1.35.35,2.7.37,4.08.22Z"/>
      <path class="cls-24" d="M57.09,44.04c1.15.23,2.46-.13,3.6.16l-.52-.86c1.2-2.13-1.54-2.84-3.26-1.54-.03.67-.22,1.57.18,2.23Z"/>
      <path class="cls-86" d="M56.91,41.81c1.23.13,2.32.76,3.26,1.54,1.46-.64,3.07-.97,4.63-.59,3.55-1.2,1.44-2.75-1.54-2.1-2.36-.64-4.75-.32-7.17-.42-.61.75.34,1.21.81,1.57Z"/>
      <path class="cls-23" d="M51.05,39.72l1.67-1.46-.93-1.39c.41-2.99-4.46-5.16-6.2-2.24l-.86.52c-1.8.79-1.41,1.53.58,1.18,2.25.47,4.38,1.5,5.74,3.39Z"/>
      <path class="cls-37" d="M44.74,38.74c.52-.69.84-1.55.56-2.41l-.58-1.18c-1.21-.8-2.89-1.74-4.12-1.02-.14-1.42-2.14-1.31-2.23.18.05,1.08.37,2.19.96,3.33,1.47,1.45,3.56.97,5.41,1.1Z"/>
      <path class="cls-3" d="M38.46,38.18l.88-.54c.33-.35,1-1.03.81-1.48-.38-.88-1.29-1.26-1.77-1.85.31-1.44-.34-1.44-1.37-.34.41,1.43.87,2.84,1.45,4.21Z"/>
      <path class="cls-19" d="M38.38,34.31l2.23-.18c.92-.1.98-.58.34-1.37.56-1.84-.19-2.17-1.41-.6-1.09,0-2.12.39-3.05.95l.52.86,1.37.34Z"/>
      <path class="cls-29" d="M64.81,42.76l.69.71c1.22-1,3.04-1.6,3.05-4.1-1.77-.33-2.84.68-4.12.63-.4-.01-.76.59-1.16.65.51.14.89.53,1.38.8s1.01.95.17,1.3Z"/>
      <path class="cls-30" d="M44.72,35.15c.31-.05.56-.42.86-.52-1.53-.05-2.95-2.05-4.63-1.88-.16.44-.28.9-.34,1.37,1.23.77,2.66,1.28,4.12,1.02Z"/>
    </g>
    <path class="cls-78" d="M55.13,27.26c1-1.24,2.04-.8,2.2.36.03.27.02.58-.05.91.36.83-.13,1.75-.16,2.6l-2.08.18c.05-.21.02-.46-.07-.73-.4-1.18-2.05-2.68-3.09-2.49-.82-.37-.74-.65.18-.85.42-.85.78-1.4,1.11-1.66.63-.48,1.18.07,1.96,1.68Z"/>
    <path class="cls-66" d="M57.04,21.31c.32,1.46.71,3.17,1.17,5.11-.06.38.12.91-.05,1.25-.17.34-.66.54-.88.86-.7-.46-1.4-.9-2.15-1.27-1.83-.02-2.47-.86-1.96-1.68.27-.45.88-.88,1.82-1.18.28-1.2.63-2.23,1.05-3.09.28-.87.62-.86,1,0Z"/>
    <g>
      <path class="cls-73" d="M19.04,20.31c1.35-.78,1.88-.34,1,1v1c-2.49-.66-4.37-2.58-7-2-.87-.28-.86-.62,0-1,.61-3.7,5.53-1.81,6,1Z"/>
      <path class="cls-52" d="M21.23,19.19c.76.55,1.38,1.28,1.81,2.12h-3c-.47-.15-.64-.76-1-1-.37-.51-.53-.93-.52-1.24.02-.95,1.49-.97,2.71.12Z"/>
      <g>
        <path class="cls-42" d="M6.04,18.31c.66-2.47,4.3-1.38,3,1,.62.32.29.65-1,1-1.17.18-2.2-.17-3-1-.46-.89-.08-1.19,1-1Z"/>
        <path class="cls-70" d="M9.04,19.31c.13-2.05,1.51-1.93,2.59-.36.63-1.86,1.31-1.64,1.41.36v1c-1.6.35-3.38-.24-5,0,.23-.35.54-.91,1-1Z"/>
        <path class="cls-54" d="M3.04,17.31c.58-2.79,3.52-1.54,3,1-.37.3-.7.63-1,1-.45-.46-2.12.32-2.13-.74.21-.32-.03-.9.13-1.26Z"/>
        <path class="cls-92" d="M.83,14.55c-.36-1.29-.18-2.55,1.23-2.31,1.33-1.93,2.56-1.23,2.07,1.08,1.52-1.23,2.58-1.13,2.66.8,2.81-.45,4.11.52,3.92,2.91,2.62-.33,2.77.03.91,1.92-.86.11-1.74.19-2.59.36-.39-1.46-2.19-.49-3-1-1.01-.63-1.73-1.01-3-1-.67,0-1.2-.36-1.61-.62-.57-.35-.69-1.72-.59-2.14Z"/>
        <path class="cls-38" d="M2.24,6.32l.76-.07c1.7.2,1.32.52-.21,1.21.9,1.34.99,3.86-.72,4.78-.36.79-.78,1.56-1.23,2.31-.28.07-.56.04-.83-.07.44-2.92-.73-6.6,2.24-8.16Z"/>
        <path class="cls-75" d="M17.04,15.03c.45.05.89.14,1.27.32.26.12,3.19,2.02,3.57,2.95-.29.21-.39.64-.65.89-.83.15-1.66.44-2.19,1.12-1.76-1.18-3.95-1.09-6-1-.46.02-.95-.42-1.41-.36-.25-.64-.77-1.24-.91-1.92-.13-.1-.26-.19-.39-.28-1.49-1.16-2-1.98-1.28-2.62.37-.33,1.07-.6,2.14-.85.19-.19.39-.34.61-.47,1.89-1.1,4.61.02,5.24,2.22Z"/>
        <path class="cls-69" d="M12.15,5.27c1.72.04,3.41.37,4.99,1.05.88.38,2.31.6,2.6,1.72.25,1.72-.44,1.91-1.17.22l-.7.27c-2.24,2.36-6.74,1.54-6.84-2.02-.33-1.04.04-1.45,1.11-1.24Z"/>
        <path class="cls-9" d="M23.89,11.46c1.28-.17,2.01.08,2.21.76.22.72-.18,1.93-1.2,3.63-.42.45-1.15,1.19-1.86,1.46-.87-.28-.86-.62,0-1-.53-.2-.95-.5-1.26-.91-.19-.22-.33-.48-.44-.77-.16-.38-.26-.82-.3-1.32-.51.47-.91.7-1.17.72-.25.03-.37-.12-.35-.41.01-.29.17-.73.5-1.29.88.1,1.06-.93,1.77-1.17l2.1.3Z"/>
        <path class="cls-17" d="M18.58,8.25l1.17-.22c.37,1.38.24,2.89.27,4.3-2.48,2.14-3.02-2.04-1.43-4.08Z"/>
        <path class="cls-91" d="M7.81,4.41c2.66.17,2.52,1.1-.03,1.84.37,1.68-1,2.05-4.09,1.1-.05.92-.36.93-.9.1.15-.36.08-.84.21-1.21.75-2.04,2.96-1.9,4.81-1.83Z"/>
        <path class="cls-12" d="M7.81,4.41c1.51.05,3.19-.47,4.34.86-.43.36-.8.78-1.11,1.24-.16,2.67-1.08,2.61-1.98.12-.5,1.92-1.3,1.66-1.27-.37l.03-1.84Z"/>
        <path class="cls-82" d="M4.14,9.11c.2-3.23,3.92-2.36,4.43,1.11l2.57,1.94c.9.33.92.7.05,1.11-.36,1.2-.73,2.49-.47,3.75-2.03-1.6-4.89-1.64-6.58-3.71-1.34-1.12-1.19-3.13,0-4.21Z"/>
        <path class="cls-56" d="M2.79,7.45c.29-.07.62,0,.9-.1,1.62-.66,1.77-.07.45,1.76,1.05,1.26.88,2.89,0,4.21-.47-.57-1.52-.61-2.07-1.08-.92-1.59.06-3.23.72-4.78Z"/>
        <path class="cls-95" d="M19.52,13.62c.14.08.26.22.35.41.14.3.22.73.17,1.28.2-.28.43-.46.68-.58.2-.09.41-.12.62-.1.25,0,.5.08.72.21.49.27.88.8.98,1.47v1c-.45.17-.78.7-1.16.99-1.15-.94-4.29-.74-4.71-1.62-.26-.54-.21-1.18-.13-1.65.1-.76.35-.95.77-.59.02.02.03.04.04.05.09.1.18.2.27.29.3-1.11.93-1.45,1.4-1.16Z"/>
        <path class="cls-11" d="M9.05,6.62l1.98-.12c2.07,1.33,4.63,1.09,6.84,2.02.29,2.32.37,4.4.24,6.25-.33-.09-.74.28-1.08.25-2.13-.21-4.2-.28-5.85-1.75.1-.33-.11-.77-.05-1.11-2.66,1.33-4.99-5.43-2.08-5.54Z"/>
        <path class="cls-75" d="M17.88,8.52c.24-.07.45-.23.7-.27-.31,1.66-.51,3.61,1.43,4.08.38.13.64.79,1.03.97,1.8,1.24,1.07,2.98-1,2l-1.92-.53c-1.81-1.82-1.39-4.12-.24-6.25Z"/>
        <path class="cls-71" d="M21.04,13.31c.7-.04,1.59.12,1.84.69.37.83.16,1.62.16,2.31-1.11.12-2.26-.11-3-1,.81-.32,1.02-1.2,1-2Z"/>
        <path class="cls-96" d="M3.69,7.36c1.34-.45,2.67-.98,4.09-1.1.42-.04.85.4,1.27.37-.8,2.3,1.05,3.65,2.08,5.54-1.35.07-2.13,1.36-4.07,1.1.88-1.89.57-3.84-1.22-5.25-.78-.62-1.99.21-1.71,1.1-.19-.58-.34-1.16-.45-1.76Z"/>
      </g>
    </g>
    <path class="cls-45" d="M60.5,8.49s1.44,1.42.98,3.06c-.71,2.56-3.45,5.87-3.6,6.68.49.51.84.95,1.04,1.33.4.76.25,1.27-.47,1.54-.35.13-.82.2-1.42.22h-1c-.58-.34-.95-1.01-1.09-2v-2c.58-1.05.88-1.97.01-3l.08-2.25c.35-.08.98-3.05.98-3.05l4.48-.52Z"/>
    <path class="cls-33" d="M54.95,19.31c.59.51.98,1.22,1.09,2-.1,1.01.19,2.75-1.05,3.09l-.04-5.09Z"/>
    <path class="cls-22" d="M43.04,10.29c1.65,2.88,2.78,3.38,3.4,1.49,2.66,1.39,3.53.9,2.6-1.47l.89,1.91c.07-1.08,1.15-1.4,3.22-.98l1.83-.1c-.83.46-.84.78.06.92l-.08,2.25v3s-.01,2-.01,2l.04,5.09c-.94.3-1.55.73-1.82,1.18-.33.26-.69.81-1.11,1.66-.7-4.5-6.26-4.92-10.03-3.97-.31-.1-.68-.05-1-.13.91-2.72.01-3.21-1.82-1-.12-2.16-1.17-2.44-3.17-.83v-1c-1.55-1.7-7.07-.7-9,0v1c-1.11-2.65-3.76-3.08-4,0-.43-.84-1.05-1.57-1.81-2.12.26-.25.36-.68.65-.89.38-.29.71-.82,1.16-.99.71-.27,1.44-1.01,1.86-1.46,1.02-1.7,1.42-2.91,1.2-3.63,1.16-.15,2.31-.98,2.94-1.98,1.44.76,3.6,1.85,4,.07,2.48-.15,6.37-1.57,6,2h1.03c.12-1.46,1.55-2.42,2.97-2.02Z"/>
    <path class="cls-34" d="M56.52,14.33c.86.35.75,1.42.05,2-.42.34-.95.81-1.62.98v-3c.37.09,1.02-.2,1.57.02Z"/>
    <g>
      <path class="cls-5" d="M27.04,17.56c1.21,1.69-.38,3.16-1.81,2.64-.06-.04-.12-.06-.19-.08-.01.91-.08,1.6-.2,2.08-.26.98-.72,1.05-1.39.23-.39-.46-.86-1.23-1.41-2.31-.03,1.95-1.25,1.63-2,0v-1.28c-.82-.37-.8-.8,0-1.28.01-.65.17-1.04.42-1.22.62-.46,1.78.28,2.58,1.22.24-3.95,2.89-3.4,4,0Z"/>
      <path class="cls-21" d="M35.25,30.04c.47-2.09,1.87-3.02,4.2-2.81l14.59,3.16c.32-1.02.65-1.01,1,0-.41-3.47,1.13-3.33,2.08-.23,1.77-1.47,2.29-.62.93,1.54-3.2,1.58-6.62,1.12-10,1.23-2.79,1-6.27,1.37-9-.02-2.69,0-5.42-.37-8,.81-2.51,1.62-3.14.9-1.88-2.16.29-2.64,2.32-3.15,6.09-1.52Z"/>
      <path class="cls-81" d="M39.21,18.62c1.83-2.84,2.73-2.21,1.82,1.28.11.46-.06.73-.3.87,1.03-.04,2.32.63,2.31,1.82,1.03,1.58,1.45,2.54,1.36,3.02-.12.74-1.4.42-3.44-.38-.39,2.89-1.28,2.49-1.84-.32-1.35.17-2.45.1-3.29-.19-.13-.05-.25-.1-.37-.15-.73-.35-1.22-.91-1.49-1.69-.6,1.84-1.9,2.53-3.13,2.49-.65-.03-1.28-.24-1.78-.62-.19-.13-.35-.28-.49-.45l-.27-.41h-.01c-.18-.35-.27-.72-.24-1.13-.27,0-.55-.17-.82-.47h-.01c-.17-.21-.33-.46-.5-.77-1.12,1.71-1.8,1.82-1.88.69-.05-.49.02-1.18.2-2.08.71-.8,1.39-1.64,2-2.57,2.43-1.1,6.47-1.03,9,0,2-2.07,3.05-1.71,3.17,1.07Z"/>
      <path class="cls-57" d="M25.04,20.12c.66.2,1.06.99,1.68,1.39l2.14,3.22c2.05.09,3.04,1.2,2.97,3.32,3.42-.9,4.56-.24,3.43,1.99-2.03.53-4.17.47-6.09,1.52-.53-.71-1.44-.57-2.01-1.09-2.35,3.67-6.56-3.4-3.25-5.03-1.71,0-2.14-1.19-.86-2.74-.46-.72-.59-1.8-1-2.57,1.01.28,2.12,1.04,3,0Z"/>
      <path class="cls-49" d="M33.22,27.39c1.35-3.37,3.11-3.53,5.89-2.49.52.3,1.37-.07,1.85.32,1.99-.19,4.1.38,6.34,1.71,3.62-.1,5.86,1.05,6.74,3.45-6.28.52-12.62-1.97-18.79-.35-.65-1.23-2.34-1.54-3.43-1.99-.43-2.45.33-2.78,1.4-.65Z"/>
      <path class="cls-20" d="M43.03,22.6c2.95.71,5.89,1.93,8.84,3.65,2.35-1.33,5.88,1.8,3.16,4.13-.27.03-.77.17-1,0-4.06-2.89-9.12-1.88-13.08-5.16.67.13,1.62.13,1.94-.72.23-.61.15-1.35.13-1.9Z"/>
      <path class="cls-15" d="M26.72,21.51c.65-1.59,2.42-.9,3.32-1.39.18.97-.77,1.13-1.07,2.44,2.15.03,3.49.1,5,.31,2.86.54,2.61,2.05-.75,4.52l-1.4.65c-1.3-.54-2.72-.11-4.17-1.4-1.27-1.13-1.89-2.96-.93-5.13Z"/>
      <path class="cls-64" d="M52.06,25.17l-.18,1.09c-3.39.8-6.29-.63-8.84-3.66-1.29-.8-2.87-.59-4.04-1.84.86-1.15,1.59-.47,2.03-.86.32.1.69.04,1,.17,3.77-1.22,9.33-.68,10.03,5.09Z"/>
      <path class="cls-57" d="M33.97,22.87c1.82.26,3.76.29,5.14,2.03-2.05.47-3.95,1.58-5.89,2.49.8-1.28.67-2.96.75-4.52Z"/>
      <path class="cls-77" d="M36.04,16.27v1.28h-9v-1.28c1.93-.9,7.45-2.18,9,0Z"/>
      <path class="cls-99" d="M30.04,20.12c2.12-1.84,5.6-2.81,7.12,1.26-2.89-.35-4.84-1.98-7.12-1.26Z"/>
      <path class="cls-5" d="M20.33,31.11s-.34.86-.54-.45-.8-5-.69-5.84-.2-5.39.19-6.29,2.23-2.04,2.95-1.74,3.07,3.4,3.01,5.43-.22,5.96-.62,6.14.65,4.04-.21,4.18-4.09-1.43-4.09-1.43Z"/>
    </g>
    <g>
      <path class="cls-44" d="M36.93,3.02c.12,0,.24.04.35.11h.01c.35.24.66.83.75,1.77.12-.45.31-.66.55-.62.12.01.26.11.42.27,1.31,1.67,1.29,2.85.59,3.59-.84.9-2.68,1.11-4.26.63-.8-.23-1.54-.64-2.04-1.21-.08-.11-.17-.24-.27-.37-1.07.27-1.72,1.02-1.94,2.26-.02.1-.04.2-.05.3-.07.61-.06,1.3.04,2.11l-2.04.53c-.63,1.26-1.78,2.31-2.94,2.5-.77.11-1.55-.14-2.21-.96.16,2.75-1.72,1.79-2.1-.38.93-3.15,2.51-5.92,4.28-8.4.86-.9,1.87-1.35,3.05-1.36.71-.01,1.49.15,2.32.47.52.2,1.06.45,1.63.78.09-.95.39-1.52.77-1.77.68-.45,1.63.14,2.14,1.53.03-1.19.48-1.78.95-1.78Z"/>
      <path class="cls-68" d="M29.23,2.08c.59,1.41,1.94,1.38,3.03,1.67,1.64-1.63,2.14-.81.8,1.29-2.27.55-4.79.35-7,.11-.14-2.3,1.55-3.21,3.17-3.07Z"/>
      <path class="cls-97" d="M35.34,8.77c1.44-.28,2.78-.71,4.01-1.25.06.23.14.43.25.62.87,1.79,2.97,1.45,4.44.56,2.31-1.38,8.51.8,4.64,3.01l.36.78c.93,2.99.06,3.61-2.6,1.86-.62,2.39-1.75,1.76-3.4-1.88-1.42-.51-2.85.71-2.97,2.55h-1.03c.37-4.51-3.52-2.72-6-2.53-.4,2.25-2.56.87-4-.09.53-1.25,1.34-2.17.37-2.37-1.31-.28-2.07.66-3.41-.8,2.33-.71,4.64-1.65,7.03-2.03.1.13.19.25.27.37.54.82.45,1.34-.28,1.57.8-.08,1.58-.19,2.32-.35Z"/>
      <path class="cls-28" d="M33.03,7.19c1.74-.28,3.73,1.17,5.78-.18.58-.38.14-2.06.2-2.46.22-1.17.54-1.16.93-.04,2.34.8,3.71,1.77,4.1,2.91-1.55.4-1.55.82,0,1.26,1.55,2.17-11.27,1.09-13.1,1.07.65-1.5,1.88-1.29,2.09-2.56Z"/>
      <path class="cls-66" d="M56.03,7.64c1.05-.44,1.64-.68,1.94-.54.39.18.3.97.06,2.73.89.29.9.72.07,1.29-1.22.38-2.29,1.23-3.12,2.41l-1.83.13c-2.07-.53-3.15-.13-3.22,1.24l-.89-2.41c-1.93.29-2.59-.61-.06-1.93-1.62-1.1-3.19-1.44-4.94-1.86-1.32-.32-2.83.78-4.06-.69,1.61-1.23,2.92-.32,4.06-.57.07-.61.19-1.14.46-1.36.49-.42,9.9,1.07,11.53,1.58Z"/>
    </g>
  </g>
</svg>