<?xml version="1.0" encoding="UTF-8"?>
<svg id="Enemy" xmlns="http://www.w3.org/2000/svg" viewBox="0 0 70.43 139.1">
  <defs>
    <style>
      .cls-1 {
        fill: #ba8a66;
      }

      .cls-2 {
        fill: #4f4b46;
      }

      .cls-3 {
        fill: #fbcba3;
      }

      .cls-4 {
        fill: #f9cfab;
      }

      .cls-5 {
        fill: #0d0f57;
      }

      .cls-6 {
        fill: #98918d;
      }

      .cls-7 {
        fill: #05175f;
      }

      .cls-8 {
        fill: #b08d83;
      }

      .cls-9 {
        fill: #8f4f15;
      }

      .cls-10 {
        fill: #f6c7a7;
      }

      .cls-11 {
        fill: #b59c91;
      }

      .cls-12 {
        fill: #c7916f;
      }

      .cls-13 {
        fill: #54575a;
      }

      .cls-14 {
        fill: #0e1857;
      }

      .cls-15 {
        fill: #f5be96;
      }

      .cls-16 {
        fill: #2a292e;
      }

      .cls-17 {
        fill: #8d6354;
      }

      .cls-18 {
        fill: #081e79;
      }

      .cls-19 {
        fill: #c3a38e;
      }

      .cls-20 {
        fill: #071554;
      }

      .cls-21 {
        fill: #0a0b23;
      }

      .cls-22 {
        fill: #fff;
      }

      .cls-23 {
        fill: #b88b73;
      }

      .cls-24 {
        fill: #e4873b;
      }

      .cls-25 {
        fill: #884009;
      }

      .cls-26 {
        fill: #bd907d;
      }

      .cls-27 {
        fill: #091251;
      }

      .cls-28 {
        fill: #bb9c85;
      }

      .cls-29 {
        fill: #1930a7;
      }

      .cls-30 {
        fill: #dbb69f;
      }

      .cls-31 {
        fill: #aa9278;
      }

      .cls-32 {
        fill: #021558;
      }

      .cls-33 {
        fill: #985837;
      }

      .cls-34 {
        fill: #c3957c;
      }

      .cls-35 {
        fill: #010634;
      }

      .cls-36 {
        fill: #6f3810;
      }

      .cls-37 {
        fill: #091042;
      }

      .cls-38 {
        fill: #cdab90;
      }

      .cls-39 {
        fill: #fee3ba;
      }

      .cls-40 {
        fill: #968576;
      }

      .cls-41 {
        fill: #413d3b;
      }

      .cls-42 {
        fill: #574f4b;
      }

      .cls-43 {
        fill: #756d69;
      }

      .cls-44 {
        fill: #784f34;
      }

      .cls-45 {
        fill: #af5d18;
      }

      .cls-46 {
        fill: #0b0e23;
      }

      .cls-47 {
        fill: #0f1c5e;
      }

      .cls-48 {
        fill: #151f56;
      }

      .cls-49 {
        fill: #2a2824;
      }

      .cls-50 {
        fill: #8e857d;
      }

      .cls-51 {
        fill: #2b2726;
      }

      .cls-52 {
        fill: #b38f77;
      }

      .cls-53 {
        fill: #040d34;
      }

      .cls-54 {
        fill: #fcd8b6;
      }

      .cls-55 {
        fill: #282627;
      }

      .cls-56 {
        fill: #918a84;
      }

      .cls-57 {
        fill: #b6856c;
      }

      .cls-58 {
        fill: #edb490;
      }

      .cls-59 {
        fill: #9c7959;
      }

      .cls-60 {
        fill: #d38269;
      }

      .cls-61 {
        fill: #47423d;
      }

      .cls-62 {
        fill: #cb9974;
      }

      .cls-63 {
        fill: #051143;
      }

      .cls-64 {
        fill: #061b6e;
      }

      .cls-65 {
        fill: #4a3f37;
      }

      .cls-66 {
        fill: #0e1e6e;
      }

      .cls-67 {
        fill: #3d3635;
      }

      .cls-68 {
        fill: #766b62;
      }

      .cls-69 {
        fill: #373227;
      }

      .cls-70 {
        fill: #070a3d;
      }

      .cls-71 {
        fill: #89847d;
      }

      .cls-72 {
        fill: #07175b;
      }

      .cls-73 {
        fill: #030c34;
      }

      .cls-74 {
        fill: #c06d17;
      }

      .cls-75 {
        fill: #ba8b79;
      }

      .cls-76 {
        fill: #f4bc98;
      }

      .cls-77 {
        fill: #6b523a;
      }

      .cls-78 {
        fill: #26292e;
      }

      .cls-79 {
        fill: #8c674e;
      }

      .cls-80 {
        fill: #0a134f;
      }

      .cls-81 {
        fill: #efad88;
      }

      .cls-82 {
        fill: #444240;
      }

      .cls-83 {
        fill: #fee0ae;
      }

      .cls-84 {
        fill: #0f2175;
      }

      .cls-85 {
        fill: #59524e;
      }

      .cls-86 {
        fill: #f15a24;
      }

      .cls-87 {
        fill: #0b102f;
      }

      .cls-88 {
        fill: #081e77;
      }

      .cls-89 {
        fill: #f6ad80;
      }

      .cls-90 {
        fill: #606275;
      }

      .cls-91 {
        fill: #d2a591;
      }

      .cls-92 {
        fill: #0d0e21;
      }

      .cls-93 {
        fill: #f7931e;
      }

      .cls-94 {
        fill: #dd9a59;
      }

      .cls-95 {
        fill: #050f38;
      }

      .cls-96 {
        fill: #0c0f25;
      }

      .cls-97 {
        fill: #e4892e;
      }

      .cls-98 {
        fill: #a86d3a;
      }

      .cls-99 {
        fill: #b17660;
      }

      .cls-100 {
        fill: #f0c7a5;
      }

      .cls-101 {
        fill: #836851;
      }

      .cls-102 {
        fill: #d4996e;
      }

      .cls-103 {
        fill: #88807a;
      }

      .cls-104 {
        fill: #2f2924;
      }

      .cls-105 {
        fill: #feccad;
      }

      .cls-106 {
        fill: #db9770;
      }

      .cls-107 {
        fill: #101e78;
      }

      .cls-108 {
        fill: #171a35;
      }

      .cls-109 {
        fill: #8c6239;
      }

      .cls-110 {
        fill: #142796;
      }

      .cls-111 {
        fill: #2a2522;
      }

      .cls-112 {
        fill: #483f3d;
      }

      .cls-113 {
        fill: #837d78;
      }

      .cls-114 {
        fill: #9a602e;
      }

      .cls-115 {
        fill: #976047;
      }
    </style>
  </defs>
  <g id="CrimeGuy_walk">
    <g id="back-leg-assembly">
      <g id="back-leg">
        <path class="cls-72" d="M13.84,105.88c-.13,1.35,1.56,1.83,2.91,2.1,1.35.27,5.75-.34,6.63-1.77s2.36-5.49,3.65-6.77,4.12-7.92,5.61-9.01c1.49-1.08,4.6-3.8,5.55-5.56s2.3-6.1,2.97-6.91,3.58-7.25,4.26-8.33,1.89-5.96.53-7.45-2.51-3.59-3.59-4.53-10.84-9.6-11.45-10.75-3.72.61-4.74,1.9c-1.01,1.29-5.21,4.81-3.85,6.84,1.36,2.03,1.7,7.65,2.78,8.87,1.08,1.22,2.98.81,3.39,2.03s-2.36,8.6-3.38,9.62-4.33,5.96-4.46,7.18-1.49,4.2-1.62,6.23c-.13,2.03-3.18,9.18-3.79,10.18s-1.41,6.15-1.41,6.15Z"/>
        <path class="cls-92" d="M24.45,84.85c3.17,1.58,2.78,4.48-.83,4.75,1.7,1.86,3.1,5.02.65,6.69l-2.03,1.97c-.21,2.45-1.16,3.83-2.82,4.13-.48.96-1.18,1.68-2.1,2.15.07,2.62-.61,3.35-2.04,2.19-.68,1.38-1.49,2.18-2.1.51.8-1.76,1.73-3.56,1.2-5.52l.89-1.97,3.52-5.07c1.68-2.43,1.46-4.8,2-7.58-2.87-1.1.76-7.65,3.6-6.77l.55-.34c1.75.26,1.59,1.88-.47,4.88Z"/>
        <path class="cls-73" d="M29.99,59.56c2.18,1.66,3.7,3.91,4.44,6.54-1.12,4.4-3.03,8.74-5.75,13.03.51,2.23-1.84,6.14-4.24,5.72-.23-1.62,1.51-3.31.47-4.88l6.56-14.68-.33.56c-1.22-.87-2.36-1.84-3.44-2.91-1.13-1.32-.37-1.59,1.45-1.26l-3.19-3c2.12-1.06,2.93.58,4.03.89Z"/>
        <path class="cls-96" d="M24.92,79.97l-.55.34c1.01-1.9.47-4.78,1.47-6.74l4.36-8.48-4.46-.3c-.75-.46.08-.98.44-1.26.45-.34.95-.51,1.52-.59,1.63.38,3.64.33,5.18,2-.64,3.34-3.3,5.49-4.1,8.62-.67,2.64-1.64,5.01-3.87,6.41Z"/>
        <path class="cls-87" d="M45.01,64.33c3,.35,1.48,5.85-1.4,5.63,2.45,1.69.65,4.33-2.1,3.51-.81.44-1.04.2-.72-.69-1.74-.47-1.98-2.39-.75-3.64-.44-.79-.21-.95.64-.55.03-2.34.59-3.49,2.35-4.7.31-.18.85-.09,1.2-.24l.76.67Z"/>
        <path class="cls-72" d="M43.04,63.9c.02,1.82-1.02,3.56-2.35,4.7-1.29.51-2.36.25-2.44-1.08-1.28,1.96-2.59,2.53-3.91,1.7.27,1.36-.2,2.77-1.41,4.24,1.17,2.16,1.07,2.55-1.44,2.77-.67,2.29-1.61,3.25-2.79,2.89-.93-2.45,2.11-3.99,2.81-6.31.82-2.72,1.09-4.97,2.94-6.72,1.68-1.58,4.71-3.11,3.24-6.84,3.59-.43,2.03,7.88,5.36,4.64Z"/>
        <path class="cls-13" d="M15.26,99.74c.31-.69.19-1.56.72-2.21l2.12-2.12.68-.74c-1.07,1.54-1.24,4.07-3.52,5.07Z"/>
        <path class="cls-108" d="M38.99,79.36c2.04,1.88.24,5.17-2.42,4.61,1.84,2.57.24,3.22-2.36,3.04l-2.87,3.24c.17.6-.08.82-.72.7,1.11,2.09.45,6.09-2.49,5.67-2.13,2.69-1.96,6.26-4.37,8.67l-1.05-1.33c-1.39-1.89-.07-6.23,1.56-7.68-.66-1.83-1.73-4.95-.65-6.69,2.91-.75,5.81-2.24,8.69-4.49l7.22-12.64,1.27.32.72.69c2.51,1.85-.58,4.45-2.52,5.89Z"/>
        <path class="cls-7" d="M40.8,72.78c-5.73,6.26-2.68,9.54-11.27,15.67-.89.63-1.61,3.19-2.95,2.99-.94-.14-1.82-1.48-2.95-1.85.98-1.58,1.08-2.97.83-4.75,1.9-1.54,2.57-3.99,4.24-5.72l2.79-2.89c.87,1.32,2.41.41,4.6-2.73.98-6.24,2.3-7.7,3.97-4.36.09,1.24.24,2.49.75,3.64Z"/>
        <path class="cls-80" d="M24.27,96.29c1.01,2.77.6,5.19-1.56,7.68l-1.79-.16c-.76.49-.98.25-.68-.66-.84.41-1.1.15-.82-.77.44-2.48.06-5.29,3-6.93.79-.44,1.48.41,1.86.84Z"/>
        <path class="cls-18" d="M40.69,68.6l-.64.55c-.72-.33-1.46-.13-1.59.37-.23.91.25,1.8.22,2.63-.13,3.04-3.44,4.27-4.7,6.7-1,1.93-.75,4.29-2.13,5.6-1.69,1.6-3.46,2.38-5.7,1.98,2.84-3.03,4.98-6.57,5.34-10.19.12-1.15.34-2.07,1.44-2.77,1.05-1.36,1.52-2.78,1.41-4.24,1.7-1.96,2.96-4.26,5.25-5.89.87,2.38.24,3.97,1.11,5.26Z"/>
        <path class="cls-7" d="M32.92,73.47c.15-1.31.48-3.17,1.41-4.24,1.22.66,1.18,1.8.39,2.5-.73.65-1.16,1.33-1.8,1.74Z"/>
      </g>
      <g id="back-shoe">
        <path class="cls-49" d="M13.39,124.77c-.2-1.66.74-4.13,1.08-5.01s.88-3.32,1.89-4.47,4.67-5.22,5.28-6.1,1.89-2.85,2.13-3.9-.71-4.16-2.27-4.36c-1.56-.2-3.79,1.36-4.67.88s-2.51-.07-2.78.75-.06,3.45-.47,3.86-2.91,4.54-3.25,4.88-2.84,3.12-3.92,4.2-1.49,2.03-1.55,3.18,1.02,5.21,1.63,6.23,1.22,2.57,2.31,3.65c1.08,1.08,1.56,1.15,2.1.61s2.84-1.63,2.5-4.4Z"/>
        <path class="cls-49" d="M13.92,109.96c2.2,2.11-.14,5.33-2.85,5.47,1.9,1.11.41,3.23-1.5,2.55,1.11,1.55,1.3,2.13-.71,2.2.33,1.69-.09,3.06-1.27,4.13-.54.95-1.08.95-1.61,0-.01-1.79-1.71-4.32-.65-6.19,2.36-4.17,6.06-6.95,7.84-10.89.72-.09,1.42-.27,2.1-.51,2.63.33.71,3.01-1.35,3.24Z"/>
        <path class="cls-104" d="M14.09,122.47l-1.2,1.15c-1.57,1.7-2.44.84-1.31-1.22-1.42-.64-1.78-2.19.11-2.42-1.53-1.42-.1-3.43,1.55-3.94.26-2.44.44-2.47,2.19-.72-.1,2.47-1.62,4.64-1.35,7.16Z"/>
        <path class="cls-42" d="M12.89,123.62c.58,2.29-.07,4.5-2.39,4.86-.79-.42-.79-.83,0-1.24-2.29-1.39-3.09-6.18.46-4.23-.44-.76-.22-.96.62-.62l1.31,1.22Z"/>
        <path class="cls-111" d="M10.5,127.25c.1.4.04.84,0,1.24-2.3.36-4.5-1.7-4.51-4.18.53.09,1.08.09,1.61,0,.98-.44,1.55.16,1.73,1.81l1.18,1.13Z"/>
        <path class="cls-67" d="M16.75,113.84c-.29.61-.72,1.14-1.32,1.46s-1.43.94-2.19.72c-1.44,2.13-1.85,1.89-2.17-.6.07-2.28,2.27-3.35,2.85-5.47,1.23-.96,2.39-1.33,3.47-1.12,1.15.02.98.98-.5,2.87l-.14,2.14Z"/>
        <path class="cls-55" d="M23.76,105.3l-3.53,3.54-2.82,4.25-.65.77c-1.6-1.82.6-3.21.64-5.01-1.43-1.48-.96-1.95,1.41-1.42.35-1.53,1.05-2.73,2.1-3.61.37-2.64,1.26-2.43,1.79.16,1.63-1.57,2.07-.62,1.05,1.33Z"/>
        <path class="cls-67" d="M19.69,111.12c-.69.73-1.64,1.2-2.28,1.96-.55-1.9,1.65-3.07,2.82-4.25.35.76.02,1.69-.54,2.29Z"/>
        <path class="cls-112" d="M18.81,107.42l-1.41,1.42c-.44.44-1.13,1.21-1.67,1.48-.5.25-1.6.67-1.8-.36.3-1.09,1.63-1.92,1.35-3.24l2.04-2.19c1.22-1.51,1.77-.97.82.8l.68,2.09Z"/>
        <path class="cls-16" d="M19.41,102.38l.82.77c.58,1.57-.58,3.49-2.09,2.18l-.82-.8c-.14-.7-.38-1.61.07-2.23s1.45-.24,2.03.08Z"/>
        <path class="cls-68" d="M10.96,123.02c-1.96.94-.9,2.51-.46,4.23-1.75.9-2.24-1.7-2.91-2.94-.43-.8-.67-1.91-.46-2.96.13-.64,1.04-.97,1.73-1.17,1.88-.57,2.26,1.1,2.09,2.84Z"/>
        <path class="cls-85" d="M13.24,116.03c.44,1.52-1.06,2.59-1.55,3.94-1.14,1.71-2.23-.25-2.12-1.99.18-.87,1.47-1.66,1.5-2.55.8-.13,1.46.39,2.17.6Z"/>
        <path class="cls-65" d="M11.69,119.97c-.27.74-.02,1.67-.11,2.42-.23.16-.37.5-.62.62-.78-.88-1.48-1.83-2.09-2.84.27-.71.55-1.45.71-2.2l2.12,1.99Z"/>
        <path class="cls-67" d="M18.81,107.42c-.29-.22-1.44-.11-1.61-.52-.23-.58.71-1.24.93-1.57l2.09-2.18.68.66c.19.81.15,1.63-.2,2.61-.24.68-.93,1.23-1.9,1Z"/>
      </g>
    </g>
    <g id="front-leg-assembly">
      <g id="front-shoe">
        <path class="cls-51" d="M35.03,137.08c.98-1.08,7.22-4.7,7.47-5.76s-1.3-6.35-2.25-8.13-2.97-5.48-3.14-6.99-2.08-10.35-2.21-11.38-.23-3.52-1.54-2.71-3.12,1.01-4.69,1.95-4.46,2.9-4.91,3.53-.87,1.77.01,2.31,3.74,3.76,4.02,4.37,4.19,9.56,4.15,10.84,1.78,4.56.51,5.46-3.09,2.9-3.9,4.12.18,3.82.51,4.09,4.99-.61,5.97-1.69Z"/>
        <path class="cls-56" d="M36.62,122.74c1.18,2.22.44,6.07-2.1,5.58-.39,1.64-1.11,1.53-2.14-.33l-.42-.91c-.87-2.55,0-2.79,1.82-.84-.43-2.06-.08-3.69,1.05-4.89-.11-.91.2-1.04.91-.42,1.3-.7,1.82.76.89,1.79Z"/>
        <path class="cls-51" d="M34.9,104.82c1.43.3,1.76,1.52.44,2.46.56,3.5,1.97,6.9,2.09,10.47.29,2.38,1.23,4.19,2.82,5.44l3.33,7.69c-1.85,2.1-4.53,2.51-6.42,4.11-.27-.14-.7-.47-.85-.73l-1.69-1.33c1.95-3.24,2.61-6.64,2-10.18l-.89-1.79c-1.72-2.04-2.15-3.93-1.3-5.68-.77-2.3-1.08-4.47-.92-6.51-.91.11-1.04-.2-.42-.91-1.92-.2-1.98-1.91,0-2.2-1.26-2.85.55-3.64,1.82-.84Z"/>
        <path class="cls-82" d="M39.71,122.42c.12.28.42.49.54.77-2.73.08-2.75-3.44-2.82-5.44.82,1.53,1.58,3.09,2.28,4.68Z"/>
        <path class="cls-41" d="M35.73,120.95l-.91.42-.91.42c.81,1.17-.11,2.05-1.4,1.75-1.01,1.56-1.54.18-1.94-1.4-1.19-3.07-2.47-6.11-4.1-8.97,1.09-2.62,4.45-.48,3.03,1.92l1.01-.45c.48,1.11,1.21,1.78,2.18,2.02l-.44-3.04c-1.8-.29-1.78-1.05.06-2.27-2.53-1.16-1.25-3.3,1.19-2.57,1.73,3.77,2.31,8.04,2.22,12.19Z"/>
        <path class="cls-2" d="M27.16,107.31c.59-.8,2.25-.83,3.2-.4.92-.09,1.06.24.45.97.39,1.24.76,2.37,1.52,3.45.63,1.77,2.2,3.9.38,5.31-.92-.3-1.99-.82-3.2-1.56-.65-1.03-1.86-1.61-3.03-1.92-.45-.12-.81-.55-1.29-.63-.09-.29-.3-.55-.37-.85-.75-4.94.03-6.39,2.35-4.37Z"/>
        <path class="cls-61" d="M32.52,123.53c1.75-1.17,1.65,1.1,1.26,2.72-.46.42-1.32.45-1.82.84-.73-1.58-1.76-3.18-1.38-4.96.54.6,1.18,1.12,1.94,1.4Z"/>
        <path class="cls-50" d="M36.32,134.26c-1.1,2.21-3.42,3.59-5.61,4.48-1.42-2.25.34-5.17,2.95-5.56,1.58-2.44,3.49-2.29,2.66,1.08Z"/>
        <path class="cls-43" d="M33.65,133.17c-1.27,1.78-3.34,3.2-2.95,5.56l-.92.37c-.34-1.45-.27-3.05.14-4.47.29-.48.91-1.42,1.4-1.75,1.35-.79,2.13-.69,2.33.28Z"/>
        <path class="cls-61" d="M36.32,134.26c-.59-1.01-1.54-1.52-2.66-1.08-.74.29-1.69.14-2.33-.28.64-.43,1.1-1.08,1.64-1.57.36-1.01.88-2,1.56-2.99,1.71-1.36,1.79-3.55,2.1-5.58.51,1.02,2.29,1.98,1.46,3.53-.49.92-1.24,2-1.24,2.83,0,.65,1.04,1.48,1.31,2.29-1.74.44-1.38,1.96-1.83,2.86Z"/>
        <path class="cls-103" d="M34.52,128.33c.31.45.73.86,1.06,1.16.69.64-.08.96-.34,1.25-.55.62-1.83.17-2.28.58.14-1.14-.11-2.28-.59-3.32.72.06,1.44.17,2.14.33Z"/>
        <path class="cls-6" d="M33.91,121.79c-.11-.91.2-1.04.91-.42.17,1.51.16,3.78-1.05,4.89l-1.26-2.72c-.15-.9.67-1.41,1.4-1.75Z"/>
        <path class="cls-69" d="M30.81,107.88c.44-1.41,1.97-1.53,2.29-.02l.42.91c-.5.61-1.51,1.66-1.19,2.57-1.13-.29-2.28.07-3.52.23-.2-1.88.79-3.08,2.01-3.68Z"/>
        <path class="cls-41" d="M33.09,105.65v2.2c-.67.23-1.63-.29-2.28.02l-.45-.97c-.91.11-1.04-.2-.42-.91,1.07.11,2.13.03,3.14-.35Z"/>
        <path class="cls-113" d="M34.82,121.37l-.91.42c-.99-.56-3.52-2.44-1.52-3.67.95-.58,2.31,2.24,2.42,3.25Z"/>
        <path class="cls-71" d="M32.7,116.64c-.68.53-1.39,1.3-1.96.4l-1.24-1.97c.55-.43.76-1.08,1.36-1.87,1.12,1.41,1.32,2.43,1.84,3.43Z"/>
        <path class="cls-90" d="M29.94,106l.42.91c-.99.5-2.13.83-3.2.4l-.36-.96c1.01-.29,2.09-.46,3.14-.35Z"/>
      </g>
      <g id="front-leg">
        <path class="cls-64" d="M33.81,105.59c-1.3.6-4.47.37-5.84,1.74-1.37,1.37-2.77,3.6-3.49,3.4s-1.88-4.09-2.44-5.3-3.52-7.87-4.6-10.21-3.1-4.9-3.35-6.58-.11-5.96.23-7.28.36-9.97,1.44-11.52c1.08-1.55,2.93-6.62,2.6-8.05s-.68-3.8.5-4.66,4.11-2.74,4.89-2.89,3.97.38,5.93-.62c1.96-1.01,6.17-2.84,8-3.69,1.83-.84,3.03-.97,3.48-.23s2.15,2.38,2.73,3.17,2.76,3.47,2.46,4.88-4.53,7.57-6.1,8.72c-1.58,1.15-3.68,1.17-4.41,2.56s-.35,4.27-1.09,5.88-1.78,7.57-2.31,9.18-1.18,7.29-1.85,8.34.24,3.26.84,4.57,3.21,5.37,3.11,6.05-.72,2.55-.72,2.55Z"/>
        <path class="cls-95" d="M15.93,85.86c-.33-.72-.33-2.19-1.03-2.66.35-.55.64-1.16.87-1.77-.13-.89.16-.97.83-.31,3.94-.85,3.65,6.46-.67,4.74Z"/>
        <path class="cls-37" d="M21.49,59.51c.69-.64,1.07-.49,1.15.44,3.27.84,3.94,5.52-.51,5.72.56,2.11.04,4.59-1.56,7.43.29,4.88-1.04,7.56-3.98,8.03l-.83.31c.25-.66-.44-1.45-.32-2.04.84-4.19,1.44-8.45,3.17-12.4.76-1.74.99-3.28-.27-5.2.53-.23.58-.94.7-1.34.04-1.95,1.17-2.41,2.43-.94Z"/>
        <path class="cls-95" d="M30.58,64.12c.26.5.44.93.29,1.12-2.52,3.31-3.47.79.53-.38,1.85-.54,1.82.61,1.55,2.57.75.35,1.11,1.17,1.06,2.48l1.38,1.98-1.6,10.42-2.24,1.05c.37,3.64-.8,7.85-2.48,10.95.12.2.03.51.14.72l-.42,1.32c4.82,5.21,5.21,8.43,1.17,9.64-.58,1.06-2.13,1-3.14.35-1.51-.52-.78-3.53-.47-3.3.76.55.16,2.9-.45,3.81l-1.06.96c-1.46-2.47-2.62-5.1-3.47-7.87-.43-.46-1.14-.9-1.4-1.49-1.2-2.69-3.06-5.19-3.65-8.11-.02-.94.65-2.23.09-3.44,2.45-1.52,3.64-3.7,3.56-6.54l2.42-.69c.77-4.19,2.02-8.25,3.74-12.17-2.02-4.28,3.34-7.51,4.45-3.38Z"/>
        <path class="cls-64" d="M22.38,79.67c-1.27,2.03-.23,5.3-2.02,7.41-1.49-.14-2.83-.39-3.95-.18l-.48-1.04c2.16-.4,1.14-3.42.67-4.74,3.82-6.81-1.1-5.14,5.54-15.46,2.35-4.37,4.46-2.09,3.91,2.22-1.7,3.77-2.92,7.69-3.67,11.78Z"/>
        <path class="cls-78" d="M25.89,106.86c-.13-.94.18-1.11.91-.51.92-.04,1.03.29.36.96-2.41.42-1.23,2.97-2.35,4.37-.97-3.99-2.89-7.76-3.46-11.74,1.93,2.06,1.69,5.78,4.53,6.92Z"/>
        <path class="cls-32" d="M39.37,52.18c.77.55.71.95-.19,1.21,1.47.91,1.82,1.66,1.06,2.24-.41.32-1.16.6-2.23.82-.17.04-.34.07-.52.11-.11.02-.22.03-.33.05.93,2.3,1.29,4.17,1.11,5.61-1.96.45-3.79,1.35-5.48,2.7-.06.05-.14.11-.2.16l-.67-.33-1.33-.64c-.58-.31-1.37-.61-1.91-.32-.56.3-1.41,1.21-1.29,2.03.47,3.41-1.46,5.39-2.67,8.16-.94,2.1-1.27,4.01-2.32,5.69.4-3.32.08-7.04,1.44-10.5.48-1.22,1.6-1.98,1.05-3.06-.26-.51-.57-.78-.92-.89-.55-.17-1.18.06-1.81.44.09-.14.17-.29.26-.45.89-1.63,1.31-3.88.25-5.27.07-.91.45-1.07,1.16-.48l.87-.3c2.13-.02,3.44.59,3.97,1.84.81-1.09.85-2.27.1-3.54-.05-.11-.12-.22-.2-.33l2.56-1.39.1-1.43c2.28.2,3.72-1.04,4.3-3.73-.25-.88.05-1,.81-.44,1.97-2.54,3.95-1.01,3.04,2.03Z"/>
        <path class="cls-72" d="M27.95,56.27c-1.19.9-2.58,1.97-4.15,3.2-.37.1-.78.49-1.16.48-.38-.01-.77-.37-1.15-.44.12-.83.23-1.65.25-2.48-.75-1.67-.25-2.6.71-2.48.52.06,1.17.43,1.83,1.16,1.21-.25,2.29-.36,3.25-.34.91-.11,1.04.2.42.91Z"/>
        <path class="cls-46" d="M29.2,95.04c1.77,3.41,4.84,5.98,5.7,9.78-.76-.23-1.65-.03-1.82.84.08,1.83-2.09,1.77-3.14.35,6.12-4.65-7.62-11.04-.75-10.96Z"/>
        <path class="cls-27" d="M26.8,106.35c-.33.09-.6.39-.91.51-.49-1.62-1.96-3.22-1.79-5.23.12-1.5,1.74-2.44,2.77-2.16,1.11.3,2.15,1.66,1.82,3.11-.35,1.56-1.67,2.46-1.89,3.77Z"/>
        <path class="cls-48" d="M35.53,53.55c-1.72.73-3.11,1.86-4.41,2.2-.26.66-.51,1.16-.77,1.5-.52.68-1.05.76-1.6.22-.26-.26-.52-.66-.79-1.2l-.42-.91c.07-.67.52-1.29,1.36-1.83l1.82-.84c1.2.09,2.16-.03,2.73-1.25l2.08-.87c.46.59,1.33,2.4.01,2.97Z"/>
        <path class="cls-66" d="M27.95,56.27c1.05-.72,2.13-.26,3.16-.52-2.53,3.23,1.77,4.81-2.46,5.26-1.39-.33-2.72-.95-3.97-1.84-.27.14-.58.23-.87.3-.01-2.26,2.69-2.2,4.15-3.2Z"/>
        <path class="cls-35" d="M28.89,53.54c-.22.75-.7,1.4-1.36,1.83-.96.33-2.42,1.32-3.25.34l4.61-2.17Z"/>
      </g>
    </g>
    <g id="back-arm">
      <path class="cls-4" d="M64.46,58.42s-3.68-6.72-4.21-7.43-4.92-6.02-5-6.53-3.21-6.62-3.51-7.47-2.2-6.78-2.67-7.28-1.76-2.65-2.82-2.31-3.71,3.38-4.05,4.88-1.39,6.56-.38,7.77,1.98,3.39,2.59,3.73,3.99,1.88,4.5,2.69.9,2.95,1.45,3.57,2.86,3.4,3.69,4.07,3.13,3.95,4.15,4.67,3.42,1.36,4.17,1.53,2.09-1.88,2.09-1.88Z"/>
      <path class="cls-91" d="M49.31,30.27c.53,1.11,1.5,2.18,1.44,3.44l-.15,3.06c.29.84.02,1.09-.8.77-1.48,1.21-2.6-.91-1.81-2.45-1.57.26-1.65-.67-1.5-2.16-.68-1.79.13-4.1,1.96-2.67.29-.08.58-.04.87.01Z"/>
      <path class="cls-98" d="M64.39,57.26c.28,2.04,2.27,3.1,3.26,4.82.38,1.86-.89,1.71-2.17.53-.41.78-.99.68-1.75-.28-.41.89-.83.9-1.26.02-2.79,2.07-4.11-.9-1.68-2.62-2.21-1.52-1.79-2.33.86-2.04-.71-.54-.56-.85.36-.96l2.38.52Z"/>
      <path class="cls-38" d="M61.97,55.82c-1.94,1.07-4.82-2.07-3.24-3.78-2.5.16-3.67-2.78-2.75-4.78-.78-.49-.69-.82.24-1.01-.84-.34-.76-.64.15-.91,2.16,2.12,5.58,7.05,5.6,10.49Z"/>
      <path class="cls-100" d="M61.97,55.82c0,.29.09.64.04.92-.06.33-.23.66-.36.96-2.16,1.48-5.45-1.99-5.03-4.38-.11-2.47-.08-2.49,2.11-1.29.64,1.55,1.72,3.17,3.24,3.78Z"/>
      <path class="cls-26" d="M53.76,41.5c.31.93-.07,1.12-1.05.69-2.29.92-3.97-2.87-2.92-4.65.22-.3.49-.56.8-.77,1.73,1.08,2.45,2.93,3.16,4.73Z"/>
      <path class="cls-58" d="M56.37,45.33l-.15.91c-1.02,1.72-2.93,1.04-4.45-.05-.47.79-.79.7-.98-.22-.79-.47-.7-.79.22-.98-.76-2.38-.47-2.41,1.53-.96.25-1.69,1.83-1.04,2.75-.12,0,.45.76,1.11,1.08,1.42Z"/>
      <path class="cls-34" d="M55.29,43.91c-.61.95-1.84.43-2.75.12-2.17-.12-2-1.54.17-1.84.37-.19.72-.42,1.05-.69.32.82,1.51,1.34,1.53,2.41Z"/>
      <path class="cls-4" d="M49.8,37.54c1.1,1.48,1.52,3.38,2.92,4.65l-.17,1.84c-.42.45-.92.84-1.53.96-1.94,2.08-2.84,1.2-1.64-1.4-.96-1.85-2.15-3.77-3.59-5.76l1.07-1.16c-.39-1.08-.01-1.61,1.13-1.59.4.91,1.23,1.66,1.81,2.45Z"/>
      <path class="cls-1" d="M46.85,36.69c.47,2.56,3.03,4.32,2.52,6.92-.18,1.93-.96,1.9-1.54,0-.28.45-.5.34-.68-.22l-2.83-5.04c.04-.67.58-1.33.53-1.99.68,0,1.36.11,2,.32Z"/>
      <path class="cls-28" d="M47.15,43.39c-2.46,3-3.28-.2-2.95-3.12.16-.23.12-.64.18-.91.07-.32-.08-.68-.06-1.01,1.9,1.12,3.93,2.72,2.83,5.04Z"/>
      <path class="cls-9" d="M70.43,69.26c-.16.35-.54.63-.68.99-.63.66-.93.51-.9-.43-2.05-.5-3.31-3.77-.9-4.58.4-.39.72-.3.98.22.76,1.17,1.2,2.44,1.49,3.8Z"/>
      <path class="cls-25" d="M67.65,62.09c.58,1.02.65,2.38,1.29,3.37l-.98-.22c-1.64,1.81-3.18-.57-2.48-2.61.63-.24,1.42-.71,2.17-.53Z"/>
      <path class="cls-94" d="M65.48,62.62c.51,1.13,1.45,1.96,2.48,2.61-.15,1.59.04,3.22.9,4.58-.02,3.74-2.15,2.23-2.48-.81-1.35-2.04-1.8-4.41-2.66-6.67.52-.81,1.26-.05,1.75.28Z"/>
      <path class="cls-23" d="M61.65,57.71l-.86,2.04-1.61-.44-4.2-5.1.34-1.06c.18-1.96,1.01-1.82,1.3.18,1.16,1.99,2.8,3.68,5.03,4.38Z"/>
      <path class="cls-39" d="M58.73,52.04c-.49.72-1.21,1.29-2.11,1.29l-1.3-.18c-1.14-.9-2.56-2.19-2.26-3.59-1.39.32-1.91-1.62-.53-2.17,1.04-.29,2.2-.34,3.46-.13,1.84.94,2.04,3.07,2.75,4.78Z"/>
      <path class="cls-3" d="M56.22,46.25l-.24,1.01c-.23.42-.67,1.27-1.15,1.23-.96-.08-1.6-.83-2.31-1.1-1.27.75-1.48.13-.75-1.2,1.48-.06,2.97-.06,4.45.05Z"/>
      <path class="cls-19" d="M52.52,47.39l.53,2.17c.2.91-.24,1.12-1.2.75-1.58,1.11-2.12.5-1.01-1.15-.34-1.04-.29-2.14-.06-3.19l.98.22.75,1.2Z"/>
      <path class="cls-30" d="M68.86,69.82l.9.43c-.56,1.47-.56,3.39-2.93,4.18-.87-1.58-.25-2.91-.7-4.11-.14-.37.32-.91.26-1.31.29.44.78.68,1.19,1.06s1.22.66,1.28-.25Z"/>
      <path class="cls-31" d="M55.32,53.15c.05.31-.22.66-.22.98-.53-1.43-2.87-2.15-3.24-3.81.37-.29.77-.55,1.2-.75,1.11.93,2.05,2.13,2.26,3.59Z"/>
    </g>
    <g id="body">
      <path id="shirt" class="cls-22" d="M40.85,43.47c-2.88,1.65-3.38,2.78-1.49,3.4-1.39,2.66-.9,3.53,1.47,2.6l-1.91.89c1.08.07,1.4,1.15.98,3.22l.1,1.83c-.46-.83-.78-.84-.92.06l-2.25-.08h-3s-2-.01-2-.01l-5.09.04c-.3-.94-.73-1.55-1.18-1.82-.26-.33-.81-.69-1.66-1.11,4.5-.7,4.92-6.26,3.97-10.03.1-.31.05-.68.13-1,2.72.91,3.21.01,1-1.82,2.16-.12,2.44-1.17.83-3.17h1c1.7-1.55.7-7.07,0-9h-1c2.65-1.11,3.08-3.76,0-4-.33-.71.2-1.79.75-2.55.25.26,2.05,1.1,2.26,1.39.29.38.82.71.99,1.16.27.71,1.01,1.44,1.46,1.86,1.7,1.02,2.91,1.42,3.63,1.2.15,1.16.98,2.31,1.98,2.94-.76,1.44-1.85,3.6-.07,4,.15,2.48,1.57,6.37-2,6v1.03c1.46.12,2.42,1.55,2.02,2.97Z"/>
      <g>
        <path class="cls-29" d="M42.28,23.33c-.64-.05-2.36-1.72-2.74-.26s-.83,6.19-.7,7.6-.13,8.21,0,8.8-1.08,7.54-.83,8.18,1.15,1.15,1.28,2.87-.32,4.34-.06,5.62,1.6,5.49,2.94,4.47,2.43-1.28,2.94-1.6-.19-2.94-.13-4.21.32-7.53.7-8.68.45-3.26.77-4.47,1.02-1.91,1.21-3.51.51-2.26.48-3.87-.29-4.3-.41-5.51-2.74-5.23-5.43-5.43Z"/>
        <path class="cls-47" d="M48.32,37.36c0,.12-.03.24-.09.35h0c-.19.36-.66.67-1.4.76.36.12.52.31.49.55-.01.12-.09.26-.21.42-1.32,1.31-2.26,1.29-2.84.59-.71-.84-.88-2.68-.5-4.26.18-.8.51-1.54.96-2.04.09-.08.19-.17.29-.27-.21-1.07-.81-1.72-1.79-1.94-.08-.02-.16-.04-.24-.05-.48-.07-1.03-.06-1.67.04l-.42-2.04c-1-.63-1.83-1.78-1.98-2.94-.09-.77.11-1.55.76-2.21-2.18.16-1.42-1.72.3-2.1,2.49.93,4.69,2.51,6.65,4.28.71.86,1.07,1.87,1.08,3.05.01.71-.12,1.49-.37,2.32-.16.52-.36,1.06-.62,1.63.75.09,1.2.39,1.4.77.36.68-.11,1.63-1.21,2.14.94.03,1.41.48,1.41.95Z"/>
        <path class="cls-107" d="M43.77,35.77c.22,1.44.56,2.78.99,4.01-.18.06-.34.14-.49.25-1.42.87-1.15,2.97-.44,4.44,1.09,2.31-.63,8.51-2.38,4.64l-.62.36c-2.37.93-2.86.06-1.47-2.6-1.89-.62-1.39-1.75,1.49-3.4.4-1.42-.56-2.85-2.02-2.97v-1.03c3.57.37,2.15-3.52,2-6-1.78-.4-.69-2.56.07-4,.99.53,1.72,1.34,1.88.37.22-1.31-.52-2.07.63-3.41.56,2.33,1.31,4.64,1.61,7.03-.1.1-.2.19-.29.27-.65.54-1.06.45-1.24-.28.06.8.15,1.58.28,2.32Z"/>
        <path class="cls-29" d="M45.01,33.46c.22,1.74-.92,3.73.14,5.78.3.58,1.63.14,1.95.2.92.22.92.54.03.93-.64,2.34-1.4,3.71-2.31,4.1-.32-1.55-.65-1.55-1,0-1.72,1.55-.87-11.27-.84-13.1,1.19.65,1.02,1.88,2.03,2.09Z"/>
        <path class="cls-72" d="M44.66,56.46c.35,1.05.54,1.64.43,1.94-.14.39-.77.3-2.16.06-.23.89-.57.9-1.02.07-.3-1.22-.97-2.29-1.91-3.12l-.1-1.83c.42-2.07.1-3.15-.98-3.22l1.91-.89c-.23-1.93.48-2.59,1.53-.06.87-1.62,1.14-3.19,1.47-4.94.25-1.32-.62-2.83.55-4.06.97,1.61.25,2.92.45,4.06.48.07.9.19,1.08.46.33.49-.85,9.9-1.25,11.53Z"/>
      </g>
      <g>
        <path class="cls-88" d="M29.83,20.47c-1.72-.2-3.35-.3-4.88-.3s-3.73-.38-5.46.48-2.2,2.2-2.2,3.06,1.24,2.87.38,3.64-.48,4.31-.48,5.17,1.05,10.05.67,10.91-.77,9.1-.57,10.24.36,5.17,1.52,4.79,3.3-.25,4.26-.35c.96-.1,2.94-3.19,3.8-4.72s2.59-7.95,2.59-8.9,1.05-2.78,1.05-4.4.29-4.4.77-5.74-1.07-5.42-.44-6.87.44-4.04.44-4.81-1.44-2.19-1.44-2.19Z"/>
        <path class="cls-5" d="M29.83,27.47c-1.32,1.21-2.46-.38-2.06-1.81.03-.06.05-.12.06-.19-.71-.01-1.25-.08-1.62-.2-.76-.26-.82-.72-.18-1.39.36-.39.96-.86,1.8-1.41-1.52-.03-1.27-1.25,0-2h1c.29-.82.62-.8,1,0,.51.01.81.17.95.42.36.62-.22,1.78-.95,2.58,3.08.24,2.65,2.89,0,4Z"/>
        <path class="cls-21" d="M20.1,35.68c1.63.47,2.36,1.87,2.19,4.2l-2.46,14.59c.79.32.79.65,0,1,2.7-.41,2.6,1.13.18,2.08,1.14,1.77.48,2.29-1.2.93-1.23-3.2-.87-6.62-.96-10-.78-2.79-1.07-6.27.02-9,0-2.69.29-5.42-.63-8-1.27-2.51-.7-3.14,1.68-1.88,2.06.29,2.45,2.32,1.18,6.09Z"/>
        <path class="cls-88" d="M29,39.64c2.21,1.83,1.72,2.73-1,1.82-.36.11-.57-.06-.68-.3.03,1.03-.49,2.32-1.42,2.31-1.23,1.03-1.98,1.45-2.35,1.36-.58-.12-.33-1.4.3-3.44-2.25-.39-1.94-1.28.25-1.84-.13-1.35-.08-2.45.15-3.29.04-.13.08-.25.12-.37.27-.73.71-1.22,1.32-1.49-1.43-.6-1.97-1.9-1.94-3.13.02-.65.19-1.28.48-1.78.1-.19.22-.35.35-.49l.32-.27h0c.26-.19.55-.28.87-.25,0-.27.13-.55.37-.82h0c.15-.18.35-.34.59-.51-1.33-1.12-1.42-1.8-.54-1.88.38-.05.92.02,1.62.2.62.71,1.28,1.39,2,2,.86,2.43.8,6.47,0,9,1.61,2,1.33,3.05-.83,3.17Z"/>
        <path class="cls-63" d="M27.83,25.47c-.15.66-.77,1.06-1.08,1.68l-2.51,2.14c-.07,2.05-.93,3.04-2.59,2.97.7,3.42.19,4.56-1.55,3.43-.41-2.03-.37-4.17-1.18-6.09.55-.53.44-1.44.85-2.01-2.86-2.35,2.65-6.56,3.92-3.25,0-1.71.93-2.14,2.14-.86.56-.46,1.4-.59,2-1-.22,1.01-.81,2.12,0,3Z"/>
        <path class="cls-53" d="M22.16,33.65c2.63,1.35,2.75,3.11,1.94,5.89-.24.52.06,1.37-.25,1.85.14,1.99-.3,4.1-1.33,6.34.08,3.62-.82,5.86-2.69,6.74-.41-6.28,1.53-12.62.27-18.79.96-.65,1.2-2.34,1.55-3.43,1.91-.43,2.17.33.51,1.4Z"/>
        <path class="cls-20" d="M25.89,43.46c-.55,2.95-1.5,5.89-2.85,8.84,1.04,2.35-1.4,5.88-3.22,3.16-.02-.27-.13-.77,0-1,2.25-4.06,1.46-9.12,4.02-13.08-.1.67-.1,1.62.56,1.94.47.23,1.06.15,1.48.13Z"/>
        <path class="cls-14" d="M26.75,27.14c1.24.65.7,2.42,1.08,3.32-.76.18-.88-.77-1.9-1.07-.02,2.15-.08,3.49-.24,5-.42,2.86-1.6,2.61-3.52-.75l-.51-1.4c.42-1.3.09-2.72,1.09-4.17.88-1.27,2.31-1.89,4-.93Z"/>
        <path class="cls-70" d="M23.9,52.49l-.85-.18c-.62-3.39.49-6.29,2.85-8.84.62-1.29.46-2.87,1.43-4.04.9.86.37,1.59.67,2.03-.08.32-.03.69-.13,1,.95,3.77.53,9.33-3.97,10.03Z"/>
        <path class="cls-63" d="M25.68,34.4c-.2,1.82-.22,3.76-1.58,5.14-.36-2.05-1.23-3.95-1.94-5.89,1,.8,2.3.67,3.52.75Z"/>
        <path class="cls-84" d="M30.83,36.47h-1v-9h1c.7,1.93,1.7,7.45,0,9Z"/>
        <path class="cls-110" d="M27.83,30.47c1.44,2.12,2.19,5.6-.98,7.12.27-2.89,1.55-4.84.98-7.12Z"/>
        <path class="cls-63" d="M22.83,21.47c.44.9.77,1.85.86,2.86-2.17-.65-2.81,1.69-3.92,3.25-.68-.23-1.34-.54-1.87-1.03-2.2-.04-2.49-.78-.85-2.23-.94-1.85,1.08-2.37,2.76-1.86-.23-1.62,1.85-2.2,3.02-.99Z"/>
      </g>
    </g>
    <g id="Head">
      <path class="cls-79" d="M46.87,6.29c0-.7-.19-2.94-1.02-3.64S38.7-.32,36.66.43c-2.04.75-3.76,1.45-4.66,2.67s-2.11,3.06-1.85,4.79.57,3.19.51,4.85-1.85,4.6-1.85,5.3-.79,2.63.02,2.43,3.24,1.01,3.68,1.91,2.55,4.02,3.26,4.02,2.47.9,3.15.13,1.45-2.37,1.38-3.32-.89-1.85-1.21-2.3.57-1.09,1.72-.96,2.68-.13,3.32-.89,1.09-2.81,1.09-3.45.51-.77.89-.64.96.38.96-.06-.96-1.53-.96-1.85-.38-1.34-.32-1.66,1.09-5.11,1.09-5.11Z"/>
      <path class="cls-79" d="M30.83,19.47c.78,1.35.34,1.88-1,1h-1c.66-2.49,2.58-4.37,2-7,.28-.87.62-.86,1,0,3.7.61,1.81,5.53-1,6Z"/>
      <path class="cls-44" d="M32.83,6.47c2.47.66,1.38,4.3-1,3-.32.62-.65.29-1-1-.18-1.17.17-2.2,1-3,.89-.46,1.19-.08,1,1Z"/>
      <path class="cls-77" d="M31.83,9.47c2.05.13,1.93,1.51.36,2.59,1.86.63,1.64,1.31-.36,1.41h-1c-.35-1.6.24-3.38,0-5,.35.23.91.54,1,1Z"/>
      <path class="cls-59" d="M33.83,3.47c2.79.58,1.54,3.52-1,3-.3-.37-.63-.7-1-1,.46-.45-.32-2.12.74-2.13.32.21.9-.03,1.26.13Z"/>
      <path class="cls-102" d="M36.59,1.26c1.29-.36,2.55-.18,2.31,1.23,1.93,1.33,1.23,2.56-1.08,2.07,1.23,1.52,1.13,2.58-.8,2.66.45,2.81-.52,4.11-2.91,3.92.33,2.62-.03,2.77-1.92.91-.11-.86-.19-1.74-.36-2.59,1.46-.39.49-2.19,1-3,.63-1.01,1.01-1.73,1-3,0-.67.36-1.2.62-1.61.35-.57,1.72-.69,2.14-.59Z"/>
      <path class="cls-40" d="M44.82,2.67l.07.76c-.2,1.7-.52,1.32-1.21-.21-1.34.9-3.86.99-4.78-.72-.79-.36-1.56-.78-2.31-1.23-.07-.28-.04-.56.07-.83,2.92.44,6.6-.73,8.16,2.24Z"/>
      <path class="cls-81" d="M36.11,17.47c-.05.45-.14.89-.32,1.27-.12.26-2.02,3.19-2.95,3.57-.21-.29-.64-.39-.89-.65-.15-.83-.44-1.66-1.12-2.19,1.18-1.76,1.09-3.95,1-6-.02-.46.42-.95.36-1.41.64-.25,1.24-.77,1.92-.91.1-.13.19-.26.28-.39,1.16-1.49,1.98-2,2.62-1.28.33.37.6,1.07.85,2.14.19.19.34.39.47.61,1.1,1.89-.02,4.61-2.22,5.24Z"/>
      <path class="cls-75" d="M45.87,12.58c-.04,1.72-.37,3.41-1.05,4.99-.38.88-.6,2.31-1.72,2.6-1.72.25-1.91-.44-.22-1.17l-.27-.7c-2.36-2.24-1.54-6.74,2.02-6.84,1.04-.33,1.45.04,1.24,1.11Z"/>
      <path class="cls-8" d="M39.68,24.32c.17,1.28-.08,2.01-.76,2.21-.72.22-1.93-.18-3.63-1.2-.45-.42-1.19-1.15-1.46-1.86.28-.87.62-.86,1,0,.2-.53.5-.95.91-1.26.22-.19.48-.33.77-.44.38-.16.82-.26,1.32-.3-.47-.51-.7-.91-.72-1.17-.03-.25.12-.37.41-.35.29.01.73.17,1.29.5-.1.88.93,1.06,1.17,1.77l-.3,2.1Z"/>
      <path class="cls-17" d="M42.88,19.01l.22,1.17c-1.38.37-2.89.24-4.3.27-2.14-2.48,2.04-3.02,4.08-1.43Z"/>
      <path class="cls-101" d="M46.72,8.24c-.17,2.66-1.1,2.52-1.84-.03-1.68.37-2.05-1-1.1-4.09-.92-.05-.93-.36-.1-.9.36.15.84.08,1.21.21,2.04.75,1.9,2.96,1.83,4.81Z"/>
      <path class="cls-11" d="M46.72,8.24c-.05,1.51.47,3.19-.86,4.34-.36-.43-.78-.8-1.24-1.11-2.67-.16-2.61-1.08-.12-1.98-1.92-.5-1.66-1.3.37-1.27l1.84.03Z"/>
      <path class="cls-89" d="M42.03,4.57c3.23.2,2.36,3.92-1.11,4.43l-1.94,2.57c-.33.9-.7.92-1.11.05-1.2-.36-2.49-.73-3.75-.47,1.6-2.03,1.64-4.89,3.71-6.58,1.12-1.34,3.13-1.19,4.21,0Z"/>
      <path class="cls-62" d="M43.68,3.22c.07.29,0,.62.1.9.66,1.62.07,1.77-1.76.45-1.26,1.05-2.89.88-4.21,0,.57-.47.61-1.52,1.08-2.07,1.59-.92,3.23.06,4.78.72Z"/>
      <path class="cls-105" d="M37.52,19.95c-.08.14-.22.26-.41.35-.3.14-.73.22-1.28.17.28.2.46.43.58.68.09.2.12.41.1.62,0,.25-.08.5-.21.72-.27.49-.8.88-1.47.98h-1c-.17-.45-.7-.78-.99-1.16.94-1.15.74-4.29,1.62-4.71.54-.26,1.18-.21,1.65-.13.76.1.95.35.59.77-.02.02-.04.03-.05.04-.1.09-.2.18-.29.27,1.11.3,1.45.93,1.16,1.4Z"/>
      <path class="cls-10" d="M44.51,9.48l.12,1.98c-1.33,2.07-1.09,4.63-2.02,6.84-2.32.29-4.4.37-6.25.24.09-.33-.28-.74-.25-1.08.21-2.13.28-4.2,1.75-5.85.33.1.77-.11,1.11-.05-1.33-2.66,5.43-4.99,5.54-2.08Z"/>
      <path class="cls-81" d="M42.61,18.31c.07.24.23.45.27.7-1.66-.31-3.61-.51-4.08,1.43-.13.38-.79.64-.97,1.03-1.24,1.8-2.98,1.07-2-1l.53-1.92c1.82-1.81,4.12-1.39,6.25-.24Z"/>
      <path class="cls-106" d="M43.78,4.12c.45,1.34.98,2.67,1.1,4.09.04.42-.4.85-.37,1.27-2.3-.8-3.65,1.05-5.54,2.08-.07-1.35-1.36-2.13-1.1-4.07,1.89.88,3.84.57,5.25-1.22.62-.78-.21-1.99-1.1-1.71.58-.19,1.16-.34,1.76-.45Z"/>
      <g id="eye">
        <g>
          <path class="cls-22" d="M44.13,10.02c-.21-.22-.64-.57-1.1-.43s-.86.06-1.07.22.06.35.38.53,1.63.94,1.88.73-.1-1.05-.1-1.05Z"/>
          <path d="M44.12,10.03c-.45-.38-.83-.4-1.38-.19-.26.06-.58.06-.65.14-.01.03.03-.06.01-.07,0,0,.03.04.07.06.62.35,1.29.82,1.96.99.18-.16.04-.67,0-.93h0ZM44.14,10.02c.79,1.93-.94.81-1.79.36-.17-.11-.65-.31-.41-.57.24-.16.52-.11.77-.16.55-.18,1.04-.09,1.43.37h0Z"/>
        </g>
        <g>
          <path d="M43.95,10.21c-.18-.24-.32-.26-.47-.16s-.2.3-.17.43.4.36.6.3.22-.39.2-.44-.16-.13-.16-.13Z"/>
          <path class="cls-22" d="M44.02,10.47c0,.07-.07.13-.13.13s-.13-.05-.13-.1h.02c.08,0,.15-.07.15-.13,0-.02,0-.03-.02-.05.07.02.12.07.12.15Z"/>
        </g>
        <path class="cls-86" d="M44.32,9.64c-.51-1.03-.83-1.07-1.77-.5-.24.13-.48.3-.76.36.26-.09.47-.29.69-.46.44-.36,1.12-.85,1.66-.36.26.2.44.49.6.67.22.27-.24.59-.41.29h0Z"/>
      </g>
      <g id="eye-2" data-name="eye">
        <g>
          <path class="cls-22" d="M45.66,10.32c.08-.08.25-.21.41-.13s.31.06.37.13-.04.14-.16.2-.62.31-.71.22.08-.42.08-.42Z"/>
          <path d="M45.66,10.31c.14-.21.36-.23.55-.14.09.03.2,0,.32.13.06.12-.05.19-.08.22-.22.14-.45.22-.7.28-.35.08-.21-.32-.08-.49h0ZM45.67,10.32c-.34.69.25.36.6.19.32-.13.19-.24-.07-.28-.18-.11-.39-.07-.53.08h0Z"/>
        </g>
        <g>
          <path d="M45.72,10.4c.08-.09.12-.09.18-.05s.06.13.04.18-.16.13-.23.1-.06-.16-.05-.18.06-.05.06-.05Z"/>
          <path class="cls-22" d="M45.68,10.5s.02.06.04.06.05-.01.05-.03h0s-.05-.03-.05-.06c0,0,0-.01,0-.02-.02,0-.04.02-.05.05Z"/>
        </g>
        <path class="cls-86" d="M45.48,10.03c.11-.15.37-.42.58-.26.19.12.29.31.47.43-.25-.07-.48-.52-.73-.29-.1.06-.14.35-.31.27-.05-.03-.06-.11-.01-.15h0Z"/>
      </g>
      <path class="cls-101" d="M46.06,12.88s-.19-.62-.27-1.15-.74-1.47-.76-1.66-.13.35-.13.65.44,1.9.17,2.23-.78.57-.78.83.13,1.05.35.89.48-.3.7-.24.61.21.73.1.13-.59.13-.73-.14-.93-.14-.93Z"/>
      <path class="cls-86" d="M30.26,6.05c.38.19,1.39.62,1.82-.1s1.01-2.05,1.75-2.48,3.04-1.35,4-1.25,3.83.05,4.74.48,1.34,1.34,1.96,1.15,1.53-.53,1.53-.91-2.87-1.96-3.11-2.11S38.21-.13,37.4.02s-5.98,2.2-6.22,2.97-.91,3.06-.91,3.06Z"/>
      <path class="cls-109" d="M33.66,10.52c.17.09.27.22.47.16.09-.02.17-.06.25-.02.07.04.28.08.32.22-.07.16-.18.22-.29.27-.11.05-.23,0-.34-.04-.24-.05-.4-.31-.45-.54-.01-.02.02-.05.04-.03h0Z"/>
      <path class="cls-79" d="M33.69,10.47c-.02-.13.05-.49.13-.66s.48-.53.76-.58.65-.29.64-.31-.69-.3-.83-.33-.46-.02-.56.06-.29.39-.3.51-.05.93-.02,1.04.19.28.19.28Z"/>
      <path class="cls-75" d="M35.32,8.97c-.19-.51-.51-1.02-1.09-.77s-1.15,1.02-1.02,1.79-.06,1.53-.13,1.91.06,1.02.83.51c0,0,.37-.34.22-.45s-.36-.05-.38-.41-.12-1.32-.12-1.58-.05-1.12.29-1.27,1.39.38,1.39.38v-.12Z"/>
      <path class="cls-93" d="M32.18,5.3c1.07-4.05,7.57-3.96,10.5-2.68.63.78,1.44,1.36,2.36.99,1.44-1.32-3.3-2.03-4.32-2.3-.97-.03-4.32-.02-4.6.14s-2.92.91-3.51,1.47c-.65.86-1.56,2.28-.43,2.38Z"/>
      <path class="cls-60" d="M44.62,16.68c-.24-.02-.26.02-.5-.1s-1.05-.12-1.39-.07-1.12.29-1.27.34-.17.07-.02.24,1.03.14,1.29.17,1.03.29,1.24.41.82-.08.84-.09.38-.61.28-.68-.48-.22-.48-.22Z"/>
    </g>
    <g id="front-arm">
      <path class="cls-83" d="M18.04,17.95c-.82.61-3.89,4.27-4.47,4.61s-4.85,4.48-5.57,4.87-3.53,2.72-4.35,3.33-2.78,2.83-3.17,3.56-.77,3.03-.19,3.23.97.8,2.09.48c1.12-.33,11.12-8.68,11.51-9.51s3.88-5.39,4.36-6.15,1.68-2.68,1.31-3.45-1.53-.96-1.53-.96Z"/>
      <path class="cls-36" d="M19.37,31.03c-.99.16-4.81,1.05-7.05,1.92s-7.19,4.92-7.92,4.63-1.63-2.72-1.17-3.63,4.45-1.36,6.12-3.17c1.67-1.82,4.76-4.01,6.29-4.91,1.53-.9,3.94-1.64,4.38-1.27s1.4,2.46,1.6,3.43-.46,2.14-1.19,2.81-1.07.2-1.07.2Z"/>
      <path class="cls-114" d="M22.06,16.2c.56.07.69.38.44.9.12.91-.18,1.04-.9.44.39,1.54-1.37,2.06-2.7,1.31-.22,2.01-2.6,2.53-2.24-.03,1.16-.48,1.69-1.2,2.26-2.22.69-1.23,2.3-.45,3.14-.39Z"/>
      <path class="cls-115" d="M25.16,18.03c.21.61.72,1.17.87,1.8.23,2.2-.23,2.79-1.36,1.77-1.61.74-2.51-.8-.87-1.8-.89-.46-1.28-1.61-1.31-2.7l-.44-.9c1.34.08,2.6.32,3.11,1.83Z"/>
      <path class="cls-15" d="M5.27,32.01c2.21-1.87,4.02-2.71,5.44-2.55-.85-1.68-.1-2.01,1.14-.47,1.86-.74,1.77.41.63,1.84.17.91-.14,1.04-.9.44-.76,2-2.64,3.43-4.53,4.41-1.13.9-2.45,1.91-3.94,3.02-1.05.51-1.9-.46-1.94-1.59-.03-.68.35-1.64.83-2.33.31-1.88,1.42-3.64,3.27-2.77Z"/>
      <path class="cls-33" d="M21,27.94c2.07-.02,2.17,1.64.11,2.18-.3.79-.52,1.61-.69,2.43-.29-.29-.79-.43-1.03-.76-1.08-1.51-2.83-.7-4.25-.02-.91.12-1.04-.18-.44-.9.39-1.82,2.13-3.85,4.16-3.04.72-1.74,1.61-1.69,2.14.11Z"/>
      <path class="cls-52" d="M4.33,30.25c.87-1.46,2.13-1.78,2.34.06.95.99-.12,1.6-1.4,1.7-1.29.66-2.3,1.7-3.27,2.77-.72-1.91.59-3.66,2.34-4.53Z"/>
      <path class="cls-45" d="M18.89,18.84c.91-.12,1.04.18.44.9,1.04,2.59-4.58,4.37-6.91,4.22l2.76-3.37c.43-.53.86-1.49,1.48-1.77.58.73,1.52.37,2.24.03Z"/>
      <path class="cls-74" d="M23.8,19.8c.7,1.92-1.06,2.59-2.7,1.31-.97.19-1.1-.12-.44-.9-.33-1.1.3-2,.93-2.67l.9-.44c.5.3.99.61,1.41,1.17.31.41-.03,1.02-.1,1.53Z"/>
      <path class="cls-97" d="M21.59,17.54c.2.36.49.83.48,1.34-.01.7-.78,1.13-1.41,1.34-.76,1.16-1.37.91-1.34-.46l-.44-.9,2.7-1.31Z"/>
      <path class="cls-57" d="M23.8,19.8l.87,1.8c-.31.66-.69,1.57-1.55,1.71-2.37,1.15-2.79.27-2.02-2.2l2.7-1.31Z"/>
      <path class="cls-54" d="M12.42,23.96c.93-.22,1.08.16.58,1.07,2.55.56,1.15,4.76-1.16,3.97l-1.14.47c-2.53.87-2.83,0-.87-1.8-.24-1.96,1.59-2.49,2.58-3.71Z"/>
      <path class="cls-83" d="M9.83,27.67l.87,1.8c-1.98.82-3.2,3.68-5.44,2.55l1.4-1.7c.49-.59,1.02-1.09,1.36-1.77.42-.42,1.31-.5,1.8-.87Z"/>
      <path class="cls-12" d="M15,24.4c1.82.05,1.96,1.14.68,2.26,2.18,1.44-.43,3.65-2.37,3.62.3.9,0,1.06-.84.55l-.63-1.84c1.42-.78,1.7-2.52,1.16-3.97.33-1.09,1.06-1.34,2-.63Z"/>
      <path class="cls-99" d="M13.31,30.28c1.14-.87,1.7-.87,1.4.58l.44.9-3.6,1.74.03-2.24c.29-.17.63-.25.9-.44s.62-.32.84-.55Z"/>
      <path class="cls-76" d="M18.87,27.82c-.84,1.59-2.57,2.32-4.16,3.04-.51.23-1.15-.13-1.4-.58,1-1.03,1.81-2.32,2.37-3.62-.2-1.95.48-2.19,1.45-.47.68.21,1.43.92,1.73,1.63Z"/>
      <path class="cls-24" d="M20.66,20.21c.09.27.23.72.44.9-.87.61-1.7,1.32-2.29,2.21-1.65,1.44-2.92,1.8-3.81,1.08-.59.31-1.42.26-2,.63-.18-.37-.37-.72-.58-1.07,2.49-1.06,5.77-1.54,6.91-4.22.55-.41,1.12-.16,1.34.46Z"/>
      <path class="cls-36" d="M18.81,23.32c-.61.92-1.21,1.87-1.68,2.87-.37-.11-1.3.12-1.45.47-.64-.53-.54-1.48-.68-2.26,1.12-.58,2.61-2.19,3.81-1.08Z"/>
    </g>
  </g>
</svg>