<?xml version="1.0" encoding="UTF-8"?>
<svg id="Enemy" xmlns="http://www.w3.org/2000/svg" viewBox="0 0 131.28 57.82">
  <defs>
    <style>
      .cls-1 {
        fill: #ba8a66;
      }

      .cls-2 {
        fill: #4f4b46;
      }

      .cls-3 {
        fill: #fbcba3;
      }

      .cls-4 {
        fill: #f9cfab;
      }

      .cls-5 {
        fill: #0d0f57;
      }

      .cls-6 {
        fill: #98918d;
      }

      .cls-7 {
        fill: #e4b89b;
      }

      .cls-8 {
        fill: #05175f;
      }

      .cls-9 {
        fill: #b08d83;
      }

      .cls-10 {
        fill: #8f4f15;
      }

      .cls-11 {
        fill: #f6c7a7;
      }

      .cls-12 {
        fill: #b59c91;
      }

      .cls-13 {
        fill: #e0deeb;
      }

      .cls-14 {
        fill: #54575a;
      }

      .cls-15 {
        fill: #0e1857;
      }

      .cls-16 {
        fill: #2a292e;
      }

      .cls-17 {
        fill: #8d6354;
      }

      .cls-18 {
        fill: #081e79;
      }

      .cls-19 {
        fill: #c3a38e;
      }

      .cls-20 {
        fill: #071554;
      }

      .cls-21 {
        fill: #0a0b23;
      }

      .cls-22 {
        fill: #fff;
      }

      .cls-23 {
        fill: #b88b73;
      }

      .cls-24 {
        fill: #884009;
      }

      .cls-25 {
        fill: #bd907d;
      }

      .cls-26 {
        fill: #091251;
      }

      .cls-27 {
        fill: #bb9c85;
      }

      .cls-28 {
        fill: #1930a7;
      }

      .cls-29 {
        fill: #dbb69f;
      }

      .cls-30 {
        fill: #aa9278;
      }

      .cls-31 {
        fill: #021558;
      }

      .cls-32 {
        fill: #c3957c;
      }

      .cls-33 {
        fill: #010634;
      }

      .cls-34 {
        fill: #07103b;
      }

      .cls-35 {
        fill: #091042;
      }

      .cls-36 {
        fill: #cdab90;
      }

      .cls-37 {
        fill: #fee3ba;
      }

      .cls-38 {
        fill: #968576;
      }

      .cls-39 {
        fill: #413d3b;
      }

      .cls-40 {
        fill: #574f4b;
      }

      .cls-41 {
        fill: #756d69;
      }

      .cls-42 {
        fill: #784f34;
      }

      .cls-43 {
        fill: #0b0e23;
      }

      .cls-44 {
        fill: #0f1c5e;
      }

      .cls-45 {
        fill: #151f56;
      }

      .cls-46 {
        fill: #2a2824;
      }

      .cls-47 {
        fill: #8e857d;
      }

      .cls-48 {
        fill: #2b2726;
      }

      .cls-49 {
        fill: #040d34;
      }

      .cls-50 {
        fill: #282627;
      }

      .cls-51 {
        fill: #918a84;
      }

      .cls-52 {
        fill: #e2b09e;
      }

      .cls-53 {
        fill: #edb490;
      }

      .cls-54 {
        fill: #9c7959;
      }

      .cls-55 {
        fill: #47423d;
      }

      .cls-56 {
        fill: #cb9974;
      }

      .cls-57 {
        fill: #051143;
      }

      .cls-58 {
        fill: #061b6e;
      }

      .cls-59 {
        fill: #4a3f37;
      }

      .cls-60 {
        fill: #0e1e6e;
      }

      .cls-61 {
        fill: #3d3635;
      }

      .cls-62 {
        fill: #766b62;
      }

      .cls-63 {
        fill: #373227;
      }

      .cls-64 {
        fill: #070a3d;
      }

      .cls-65 {
        fill: #89847d;
      }

      .cls-66 {
        fill: #07175b;
      }

      .cls-67 {
        fill: #030c34;
      }

      .cls-68 {
        fill: #14172d;
      }

      .cls-69 {
        fill: #ba8b79;
      }

      .cls-70 {
        fill: #f3f0fe;
      }

      .cls-71 {
        fill: #6b523a;
      }

      .cls-72 {
        fill: #efaa9d;
      }

      .cls-73 {
        fill: #26292e;
      }

      .cls-74 {
        fill: #8c674e;
      }

      .cls-75 {
        fill: #0a134f;
      }

      .cls-76 {
        fill: #efad88;
      }

      .cls-77 {
        fill: #444240;
      }

      .cls-78 {
        fill: #0f2175;
      }

      .cls-79 {
        fill: #26326e;
      }

      .cls-80 {
        fill: #59524e;
      }

      .cls-81 {
        fill: #0b102f;
      }

      .cls-82 {
        fill: #081e77;
      }

      .cls-83 {
        fill: #f6ad80;
      }

      .cls-84 {
        fill: #606275;
      }

      .cls-85 {
        fill: #d2a591;
      }

      .cls-86 {
        fill: #0d0e21;
      }

      .cls-87 {
        fill: #dd9a59;
      }

      .cls-88 {
        fill: #050f38;
      }

      .cls-89 {
        fill: #0c0f25;
      }

      .cls-90 {
        fill: #a86d3a;
      }

      .cls-91 {
        fill: #f0c7a5;
      }

      .cls-92 {
        fill: #836851;
      }

      .cls-93 {
        fill: #d4996e;
      }

      .cls-94 {
        fill: #88807a;
      }

      .cls-95 {
        fill: #2f2924;
      }

      .cls-96 {
        fill: #feccad;
      }

      .cls-97 {
        fill: #db9770;
      }

      .cls-98 {
        fill: #101e78;
      }

      .cls-99 {
        fill: #171a35;
      }

      .cls-100 {
        fill: #142796;
      }

      .cls-101 {
        fill: #031765;
      }

      .cls-102 {
        fill: #2a2522;
      }

      .cls-103 {
        fill: #483f3d;
      }

      .cls-104 {
        fill: #837d78;
      }
    </style>
  </defs>
  <g id="CrimeGuy_defeat">
    <g>
      <path class="cls-85" d="M29.7,13.61c1.23.01,2.62-.37,3.72.24l2.68,1.49c.88.11.99.47.33,1.06.43,1.86-1.97,1.92-3,.53-.46,1.53-1.33,1.18-2.61.39-1.91-.19-3.62-1.93-1.52-2.94.06-.29.23-.54.4-.77Z"/>
      <path class="cls-90" d="M60.58,12.09c1.96.65,3.78-.66,5.77-.78,1.84.49,1.14,1.56-.49,2.18.51.71.17,1.19-1.03,1.45.62.76.44,1.14-.54,1.14.62,3.42-2.63,3.28-3.09.34-2.35,1.31-2.88.57-1.45-1.68-.8.39-1.02.13-.7-.75l1.52-1.9Z"/>
      <path class="cls-36" d="M58.22,13.61c.09,2.22-3.99,3.4-4.83,1.22-.97,2.31-4.12,2.05-5.51.33-.78.49-1.04.25-.8-.66-.68.6-.92.4-.75-.54,2.86-.99,8.79-1.87,11.89-.36Z"/>
      <path class="cls-91" d="M58.22,13.61c.26.13.61.2.84.38.27.2.49.5.7.75.36,2.6-4.2,4-6.16,2.56-2.26-1-2.27-1.03-.22-2.46,1.67.12,3.6-.13,4.83-1.22Z"/>
      <path class="cls-25" d="M41.74,14.61c.97.14.97.57.15,1.25-.2,2.46-4.34,2.28-5.46.55-.17-.33-.29-.69-.33-1.06,1.74-1.07,3.71-.89,5.64-.73Z"/>
      <path class="cls-53" d="M46.33,13.97l.75.54c1.09,1.68-.37,3.09-2.02,3.97.5.77.28,1.02-.63.78-.77.5-1.02.28-.78-.63-2.47-.38-2.37-.65-.18-1.79-1.4-.97-.12-2.1,1.11-2.52.4.19,1.33-.19,1.75-.34Z"/>
      <path class="cls-32" d="M44.57,14.31c.58.97-.43,1.84-1.11,2.52-1.07,1.89-2.27,1.11-1.57-.97,0-.42-.06-.84-.15-1.25.88.07,1.87-.75,2.83-.3Z"/>
      <path class="cls-4" d="M36.43,16.4c1.82-.32,3.7.14,5.46-.55l1.57.97c.22.57.34,1.19.18,1.79,1,2.66-.18,3.08-1.98.85-2.08.03-4.33.25-6.75.65l-.56-1.47c-1.14-.13-1.45-.7-.93-1.72.99.04,2.04-.36,3-.53Z"/>
      <path class="cls-7" d="M33.43,16.93c.24.61.55,1.19.93,1.72,1.42,1.31.74,2.01-1.18,1.65-.92-.37-1.53-1.24-2.38-1.69.09-.34.29-.97.03-1.3.18-.36.57-.6,1.03-1,.54-.47,1.07.59,1.58.61Z"/>
      <path class="cls-1" d="M34.35,18.66c2.5.71,5.21-.79,7.31.81,1.65,1.02,1.28,1.71-.67,1.38.28.45.08.6-.5.52l-5.77.3c-.58-.33-.93-1.11-1.55-1.36.31-.61.7-1.17,1.18-1.65Z"/>
      <path class="cls-27" d="M40.49,21.37c1.6,3.54-1.64,2.85-4.11,1.26-.13-.24-.52-.39-.74-.56-.26-.2-.64-.23-.93-.4,1.85-1.21,4.18-2.32,5.77-.3Z"/>
      <path class="cls-10" d="M74.01,12c.24.3.33.77.59,1.05.31.86.04,1.06-.78.61-1.36,1.62-4.85,1.29-4.51-1.23-.17-.53.05-.78.63-.78,1.38-.16,2.72.01,4.07.35Z"/>
      <path class="cls-24" d="M66.35,11.31c1.17-.07,2.42.48,3.59.34l-.63.78c.89,2.27-1.92,2.6-3.44,1.06.06-.67,0-1.58.49-2.18Z"/>
      <path class="cls-87" d="M65.87,13.49c1.24.04,2.4-.42,3.44-1.06,1.35.84,2.9,1.39,4.51,1.23,3.34,1.68,1.04,2.92-1.82,1.86-2.43.3-4.75-.35-7.15-.58-.5-.83.51-1.15,1.03-1.45Z"/>
      <path class="cls-23" d="M59.76,14.74l1.45,1.68-1.11,1.25c-.01,3.02-5.13,4.48-6.46,1.34l-.78-.63c-1.67-1.03-1.18-1.71.74-1.09,2.29-.15,4.54-.88,6.16-2.56Z"/>
      <path class="cls-37" d="M53.39,14.83c.42.76.62,1.65.22,2.46l-.74,1.09c-1.31.62-3.1,1.32-4.22.43-.33,1.38-2.3,1-2.18-.49.2-1.06.67-2.12,1.42-3.16,1.66-1.23,3.66-.46,5.51-.33Z"/>
      <path class="cls-3" d="M47.08,14.51l.8.66c.27.39.84,1.16.59,1.58-.5.82-1.45,1.07-2.01,1.58.11,1.47-.54,1.38-1.41.14.6-1.36,1.26-2.69,2.02-3.97Z"/>
      <path class="cls-19" d="M46.46,18.33l2.18.49c.9.23.89.71.14,1.41.29,1.9-.49,2.12-1.48.39-1.08-.16-2.05-.69-2.88-1.37l.63-.78,1.41-.14Z"/>
      <path class="cls-29" d="M73.82,13.66l.78-.61c1.07,1.16,2.78,2.01,2.45,4.49-1.8.08-2.72-1.07-3.99-1.2-.4-.04-.67-.69-1.06-.81.52-.06.96-.4,1.48-.6s1.13-.8.35-1.26Z"/>
      <path class="cls-30" d="M52.86,18.38c.3.1.49.49.78.63-1.52-.16-3.2,1.61-4.85,1.21-.1-.46-.15-.93-.14-1.41,1.33-.59,2.81-.89,4.22-.43Z"/>
    </g>
    <g>
      <path class="cls-85" d="M21.12,49.94c1.22.16,2.54.73,3.72.28l2.86-1.1c.88.01,1.04-.32.48-1,.68-1.78-1.68-2.18-2.9-.95-.24-1.57-1.16-1.35-2.53-.75-.24-.01.17-2.63-.36-3.12-.88-.82-2.82.29-3.42.08-.81-.29-.45,1.71-.58,2.05-.08.23-.19,1.21.52,2.29.66,1,2.14,2.1,2.2,2.22Z"/>
      <path class="cls-90" d="M51.49,55.77c2.03-.37,3.65,1.18,5.61,1.58,1.89-.23,1.34-1.39-.18-2.23.61-.63.34-1.16-.81-1.57.72-.67.6-1.07-.37-1.2,1.09-3.3-2.14-3.62-3.01-.77-2.14-1.62-2.77-.97-1.67,1.46-.73-.5-.99-.27-.8.64l1.24,2.1Z"/>
      <path class="cls-36" d="M49.36,53.92c.4-2.18-3.48-3.93-4.61-1.89-.64-2.43-3.79-2.61-5.41-1.1-.71-.59-1-.4-.88.54-.59-.69-.85-.52-.82.43,2.69,1.38,8.44,3.08,11.72,2.02Z"/>
      <path class="cls-91" d="M49.36,53.92c.28-.09.63-.12.89-.25.29-.16.55-.43.8-.64.72-2.52-3.6-4.54-5.74-3.39-2.38.67-2.39.71-.56,2.41,1.67.12,3.55.63,4.61,1.89Z"/>
      <path class="cls-25" d="M33.18,50.63c.98,0,1.04-.42.33-1.21.15-2.46-3.98-2.86-5.33-1.3-.22.31-.38.64-.48,1,1.57,1.3,3.55,1.41,5.49,1.51Z"/>
      <path class="cls-53" d="M37.63,51.91l.82-.43c1.31-1.51.06-3.11-1.45-4.21.6-.69.42-.97-.52-.86-.69-.6-.97-.42-.86.52-2.5.03-2.43.31-.43,1.75-1.53.77-.41,2.06.75,2.65.43-.13,1.29.38,1.69.58Z"/>
      <path class="cls-32" d="M35.94,51.32c.71-.88-.17-1.88-.75-2.65-.8-2.03-2.1-1.41-1.69.74-.06.42-.18.82-.33,1.21.88.05,1.74,1.01,2.77.69Z"/>
      <path class="cls-4" d="M28.17,48.12c1.75.58,3.69.38,5.33,1.3l1.69-.74c.3-.54.51-1.13.43-1.75,1.37-2.49.25-3.08-1.84-1.12-2.06-.32-4.25-.86-6.59-1.59l-.76,1.38c-1.14-.03-1.53.49-1.16,1.58.99.1,1.97.64,2.9.95Z"/>
      <path class="cls-7" d="M25.64,46.95c.38-.74.83-1.43,1.37-2.04,1.95-1.37,1.17-2.46-1.31-2.47-1.21.26-2.09,1.25-3.21,1.63.08.47.25,1.35-.12,1.71.19.53.66.94,1.19,1.57.64.76,1.42-.51,2.07-.41Z"/>
      <path class="cls-1" d="M26.43,45.59c2.58-.36,5.05,1.51,7.36.22,1.78-.78,1.51-1.51-.47-1.46.34-.41.17-.59-.42-.58l-5.67-1.11c-.62.24-1.08.97-1.73,1.13.22.64.53,1.25.94,1.8Z"/>
      <path class="cls-27" d="M32.89,43.76c2.08-3.28-1.23-3.05-3.89-1.82-.17.22-.57.31-.81.45-.28.17-.67.14-.97.26,1.66,1.45,3.82,2.88,5.67,1.11Z"/>
      <path class="cls-10" d="M64.77,57.73c.28-.26.43-.71.73-.95.43-.81.19-1.04-.69-.71-1.12-1.79-4.62-1.95-4.63.59-.24.5-.06.78.52.86,1.35.35,2.7.37,4.08.22Z"/>
      <path class="cls-24" d="M57.09,57.34c1.15.23,2.46-.13,3.6.16l-.52-.86c1.2-2.13-1.54-2.84-3.26-1.54-.03.67-.22,1.57.18,2.23Z"/>
      <path class="cls-87" d="M56.91,55.11c1.23.13,2.32.76,3.26,1.54,1.46-.64,3.07-.97,4.63-.59,3.55-1.2,1.44-2.75-1.54-2.1-2.36-.64-4.75-.32-7.17-.42-.61.75.34,1.21.81,1.57Z"/>
      <path class="cls-23" d="M51.05,53.03l1.67-1.46-.93-1.39c.41-2.99-4.46-5.16-6.2-2.24l-.86.52c-1.8.79-1.41,1.53.58,1.18,2.25.47,4.38,1.5,5.74,3.39Z"/>
      <path class="cls-37" d="M44.74,52.04c.52-.69.84-1.55.56-2.41l-.58-1.18c-1.21-.8-2.89-1.74-4.12-1.02-.14-1.42-2.14-1.31-2.23.18.05,1.08.37,2.19.96,3.33,1.47,1.45,3.56.97,5.41,1.1Z"/>
      <path class="cls-3" d="M38.46,51.48l.88-.54c.33-.35,1-1.03.81-1.48-.38-.88-1.29-1.26-1.77-1.85.31-1.44-.34-1.44-1.37-.34.41,1.43.87,2.84,1.45,4.21Z"/>
      <path class="cls-19" d="M38.38,47.61l2.23-.18c.92-.1.98-.58.34-1.37.56-1.84-.19-2.17-1.41-.6-1.09,0-2.12.39-3.05.95l.52.86,1.37.34Z"/>
      <path class="cls-29" d="M64.81,56.06l.69.71c1.22-1,3.04-1.6,3.05-4.1-1.77-.33-2.84.68-4.12.63-.4-.01-.76.59-1.16.65.51.14.89.53,1.38.8s1.01.95.17,1.3Z"/>
      <path class="cls-30" d="M44.72,48.45c.31-.05.56-.42.86-.52-1.53-.05-2.95-2.05-4.63-1.88-.16.44-.28.9-.34,1.37,1.23.77,2.66,1.28,4.12,1.02Z"/>
    </g>
    <path class="cls-79" d="M55.13,40.56c1-1.24,2.04-.8,2.2.36.03.27.02.58-.05.91.36.83-.13,1.75-.16,2.6l-2.08.18c.05-.21.02-.46-.07-.73-.4-1.18-2.05-2.68-3.09-2.49-.82-.37-.74-.65.18-.85.42-.85.78-1.4,1.11-1.66.63-.48,1.18.07,1.96,1.68Z"/>
    <path class="cls-66" d="M57.04,34.61c.32,1.46.71,3.17,1.17,5.11-.06.38.12.91-.05,1.25-.17.34-.66.54-.88.86-.7-.46-1.4-.9-2.15-1.27-1.83-.02-2.47-.86-1.96-1.68.27-.45.88-.88,1.82-1.18.28-1.2.63-2.23,1.05-3.09.28-.87.62-.86,1,0Z"/>
    <g>
      <path class="cls-5" d="M27.04,34.61c1.21,1.32-.38,2.46-1.81,2.06-.06-.03-.12-.05-.19-.06-.01.71-.08,1.25-.2,1.62-.26.76-.72.82-1.39.18-.39-.36-.86-.96-1.41-1.8-.03,1.52-1.25,1.27-2,0v-1c-.82-.29-.8-.62,0-1,.01-.51.17-.81.42-.95.62-.36,1.78.22,2.58.95.24-3.08,2.89-2.65,4,0Z"/>
      <path class="cls-21" d="M35.25,44.34c.47-1.63,1.87-2.36,4.2-2.19l14.59,2.46c.32-.79.65-.79,1,0-.41-2.7,1.13-2.6,2.08-.18,1.77-1.14,2.29-.48.93,1.2-3.2,1.23-6.62.87-10,.96-2.79.78-6.27,1.07-9-.02-2.69,0-5.42-.29-8,.63-2.51,1.27-3.14.7-1.88-1.68.29-2.06,2.32-2.45,6.09-1.18Z"/>
      <path class="cls-82" d="M39.21,35.44c1.83-2.21,2.73-1.72,1.82,1,.11.36-.06.57-.3.68,1.03-.03,2.32.49,2.31,1.42,1.03,1.23,1.45,1.98,1.36,2.35-.12.58-1.4.33-3.44-.3-.39,2.25-1.28,1.94-1.84-.25-1.35.13-2.45.08-3.29-.15-.13-.04-.25-.08-.37-.12-.73-.27-1.22-.71-1.49-1.32-.6,1.43-1.9,1.97-3.13,1.94-.65-.02-1.28-.19-1.78-.48-.19-.1-.35-.22-.49-.35l-.27-.32h-.01c-.18-.27-.27-.56-.24-.88-.27,0-.55-.13-.82-.37h-.01c-.17-.16-.33-.36-.5-.6-1.12,1.33-1.8,1.42-1.88.54-.05-.38.02-.92.2-1.62.71-.62,1.39-1.28,2-2,2.43-.86,6.47-.8,9,0,2-1.61,3.05-1.33,3.17.83Z"/>
      <path class="cls-57" d="M25.04,36.61c.66.15,1.06.77,1.68,1.08l2.14,2.51c2.05.07,3.04.93,2.97,2.59,3.42-.7,4.56-.19,3.43,1.55-2.03.41-4.17.37-6.09,1.18-.53-.55-1.44-.44-2.01-.85-2.35,2.86-6.56-2.65-3.25-3.92-1.71,0-2.14-.93-.86-2.14-.46-.56-.59-1.4-1-2,1.01.22,2.12.81,3,0Z"/>
      <path class="cls-49" d="M33.22,42.28c1.35-2.63,3.11-2.75,5.89-1.94.52.24,1.37-.06,1.85.25,1.99-.14,4.1.3,6.34,1.33,3.62-.08,5.86.82,6.74,2.69-6.28.41-12.62-1.53-18.79-.27-.65-.96-2.34-1.2-3.43-1.55-.43-1.91.33-2.17,1.4-.51Z"/>
      <path class="cls-20" d="M43.03,38.55c2.95.55,5.89,1.5,8.84,2.85,2.35-1.04,5.88,1.4,3.16,3.22-.27.02-.77.13-1,0-4.06-2.25-9.12-1.46-13.08-4.02.67.1,1.62.1,1.94-.56.23-.47.15-1.06.13-1.48Z"/>
      <path class="cls-15" d="M26.72,37.69c.65-1.24,2.42-.7,3.32-1.08.18.76-.77.88-1.07,1.9,2.15.02,3.49.08,5,.24,2.86.42,2.61,1.6-.75,3.52l-1.4.51c-1.3-.42-2.72-.09-4.17-1.09-1.27-.88-1.89-2.31-.93-4Z"/>
      <path class="cls-64" d="M52.06,40.54l-.18.85c-3.39.62-6.29-.49-8.84-2.85-1.29-.62-2.87-.46-4.04-1.43.86-.9,1.59-.37,2.03-.67.32.08.69.03,1,.13,3.77-.95,9.33-.53,10.03,3.97Z"/>
      <path class="cls-57" d="M33.97,38.76c1.82.2,3.76.22,5.14,1.58-2.05.36-3.95,1.23-5.89,1.94.8-1,.67-2.3.75-3.52Z"/>
      <path class="cls-78" d="M36.04,33.61v1h-9v-1c1.93-.7,7.45-1.7,9,0Z"/>
      <path class="cls-100" d="M30.04,36.61c2.12-1.44,5.6-2.19,7.12.98-2.89-.27-4.84-1.55-7.12-.98Z"/>
      <path class="cls-5" d="M20.33,45.17s-.34.67-.54-.35-.8-3.89-.69-4.55-.2-4.2.19-4.9,2.23-1.59,2.95-1.36,3.07,2.65,3.01,4.23-.22,4.64-.62,4.79.65,3.14-.21,3.26-4.09-1.12-4.09-1.12Z"/>
    </g>
    <g>
      <path class="cls-51" d="M114.23,25.64c2.06-1.44,5.98-1.16,5.79,1.42,1.67.2,1.65.92-.07,2.17l-.85.52c-2.42,1.16-2.78.33-1.05-1.7-1.99.67-3.65.52-4.98-.46-.89.22-1.06-.08-.52-.85-.85-1.21.54-1.9,1.68-1.1Z"/>
      <path class="cls-48" d="M96.63,29.48c.12-1.46,1.3-1.93,2.39-.73,3.41-.97,6.62-2.78,10.14-3.32,2.33-.57,4.02-1.72,5.07-3.45l7.24-4.22c2.31,1.58,3.04,4.2,4.85,5.88-.11.29-.38.75-.63.93l-1.12,1.84c-3.45-1.55-6.9-1.8-10.35-.77l-1.68,1.1c-1.82,1.95-3.64,2.61-5.48,1.97-2.19,1.04-4.31,1.6-6.35,1.69.22.89-.08,1.06-.85.52.03,1.93-1.66,2.2-2.18.27-2.67,1.59-3.68-.11-1.05-1.7Z"/>
      <path class="cls-77" d="M113.53,22.61c.26-.16.43-.48.7-.63.41,2.7-3.09,3.14-5.07,3.45,1.42-.99,2.88-1.93,4.37-2.82Z"/>
      <path class="cls-39" d="M112.55,26.74l.52.85.52.85c1.06-.94,2.05-.13,1.9,1.18,1.67.81.37,1.5-1.16,2.09-2.91,1.55-5.77,3.18-8.42,5.14-2.73-.77-1-4.36,1.55-3.24l-.57-.95c1.05-.61,1.63-1.42,1.74-2.41l-2.97.8c-.08,1.82-.83,1.89-2.26.21-.85,2.65-3.13,1.63-2.69-.87,3.53-2.17,7.7-3.26,11.84-3.65Z"/>
      <path class="cls-2" d="M100.02,36.87c-.87-.49-1.09-2.14-.78-3.13-.2-.9.11-1.08.91-.56,1.18-.53,2.26-1.03,3.25-1.92,1.68-.84,3.61-2.65,5.23-1.01-.18.95-.57,2.07-1.17,3.36-.94.76-1.38,2.04-1.55,3.24-.06.46-.45.87-.48,1.35-.28.13-.51.36-.8.47-4.81,1.34-6.35.73-4.62-1.81Z"/>
      <path class="cls-55" d="M115.5,29.62c-1.37-1.6.9-1.77,2.56-1.57.47.41.61,1.25,1.05,1.7-1.49.91-2.94,2.13-4.76,1.96.53-.61.97-1.3,1.16-2.09Z"/>
      <path class="cls-47" d="M125.69,24.57c2.33.83,3.97,2.97,5.11,5.04-2.06,1.68-5.17.28-5.87-2.27-2.62-1.27-2.68-3.19.76-2.77Z"/>
      <path class="cls-41" d="M124.93,27.34c1.92,1.05,3.57,2.93,5.87,2.27l.48.87c-1.4.51-2.99.63-4.45.39-.51-.24-1.52-.74-1.9-1.18-.94-1.25-.94-2.03,0-2.35Z"/>
      <path class="cls-55" d="M125.69,24.57c-.93.71-1.33,1.71-.76,2.77.38.7.34,1.66,0,2.35-.5-.59-1.2-.96-1.76-1.44-1.04-.23-2.09-.63-3.15-1.19-1.55-1.54-3.73-1.36-5.79-1.42.96-.63,1.69-2.51,3.34-1.87.97.38,2.13.99,2.95.89.65-.08,1.35-1.21,2.11-1.57.64,1.67,2.11,1.14,3.06,1.48Z"/>
      <path class="cls-94" d="M120.02,27.06c.41-.36.77-.83,1.02-1.19.55-.76.96-.03,1.28.19.69.47.39,1.8.85,2.19-1.15,0-2.25.38-3.22.98-.03-.72,0-1.45.07-2.17Z"/>
      <path class="cls-6" d="M113.6,28.44c-.89.22-1.06-.08-.52-.85,1.48-.35,3.73-.61,4.98.46l-2.56,1.57c-.88.26-1.48-.5-1.9-1.18Z"/>
      <path class="cls-73" d="M99.73,38.19c-.92.24-1.13-.04-.62-.85-.15-.91.16-1.06.91-.48.7,2.34,3.09.87,4.62,1.81-3.85,1.44-7.36,3.8-11.24,4.83,1.82-2.16,5.53-2.37,6.33-5.32Z"/>
      <path class="cls-43" d="M87.6,36.31c3.17-2.16,5.36-5.52,9.03-6.83-.13.78.16,1.64,1.05,1.7,1.81-.3,2,1.86.72,3.08-5.34-5.53-10.06,8.89-10.8,2.05Z"/>
      <path class="cls-63" d="M100.16,33.18c-1.45-.27-1.75-1.77-.3-2.27l.85-.52c.66.42,1.83,1.31,2.69.87-.15,1.16.34,2.26.64,3.47-1.84.42-3.15-.42-3.89-1.55Z"/>
      <path class="cls-39" d="M97.68,31.19l2.18-.27c.31.65-.1,1.66.3,2.27l-.91.56c.22.89-.08,1.06-.85.52-.01-1.07-.23-2.12-.72-3.08Z"/>
      <path class="cls-104" d="M113.07,27.59l.52.85c-.43,1.05-2.01,3.79-3.46,1.94-.69-.87,1.95-2.56,2.94-2.79Z"/>
      <path class="cls-65" d="M108.63,30.26c.61.62,1.46,1.23.63,1.9l-1.8,1.46c-.49-.5-1.17-.62-2.02-1.12,1.27-1.28,2.26-1.6,3.19-2.24Z"/>
      <path class="cls-84" d="M98.4,34.27l.85-.52c.61.93,1.07,2.01.78,3.13l-.91.48c-.41-.97-.71-2.02-.72-3.08Z"/>
      <path class="cls-26" d="M99.12,37.35c.13.32.45.55.62.85-1.55.68-2.97,2.33-4.98,2.4-1.51.06-2.63-1.44-2.48-2.49.16-1.14,1.39-2.33,2.87-2.18,1.59.16,2.64,1.37,3.97,1.43Z"/>
    </g>
    <g>
      <path class="cls-74" d="M19.04,33.61c1.35-.78,1.88-.34,1,1v1c-2.49-.66-4.37-2.58-7-2-.87-.28-.86-.62,0-1,.61-3.7,5.53-1.81,6,1Z"/>
      <path class="cls-52" d="M21.23,32.49c.76.55,1.38,1.28,1.81,2.12h-3c-.47-.15-.64-.76-1-1-.37-.51-.53-.93-.52-1.24.02-.95,1.49-.97,2.71.12Z"/>
      <g>
        <path class="cls-42" d="M6.04,31.61c.66-2.47,4.3-1.38,3,1,.62.32.29.65-1,1-1.17.18-2.2-.17-3-1-.46-.89-.08-1.19,1-1Z"/>
        <path class="cls-71" d="M9.04,32.61c.13-2.05,1.51-1.93,2.59-.36.63-1.86,1.31-1.64,1.41.36v1c-1.6.35-3.38-.24-5,0,.23-.35.54-.91,1-1Z"/>
        <path class="cls-54" d="M3.04,30.61c.58-2.79,3.52-1.54,3,1-.37.3-.7.63-1,1-.45-.46-2.12.32-2.13-.74.21-.32-.03-.9.13-1.26Z"/>
        <path class="cls-93" d="M.83,27.85c-.36-1.29-.18-2.55,1.23-2.31,1.33-1.93,2.56-1.23,2.07,1.08,1.52-1.23,2.58-1.13,2.66.8,2.81-.45,4.11.52,3.92,2.91,2.62-.33,2.77.03.91,1.92-.86.11-1.74.19-2.59.36-.39-1.46-2.19-.49-3-1-1.01-.63-1.73-1.01-3-1-.67,0-1.2-.36-1.61-.62-.57-.35-.69-1.72-.59-2.14Z"/>
        <path class="cls-38" d="M2.24,19.62l.76-.07c1.7.2,1.32.52-.21,1.21.9,1.34.99,3.86-.72,4.78-.36.79-.78,1.56-1.23,2.31-.28.07-.56.04-.83-.07.44-2.92-.73-6.6,2.24-8.16Z"/>
        <path class="cls-76" d="M17.04,28.33c.45.05.89.14,1.27.32.26.12,3.19,2.02,3.57,2.95-.29.21-.39.64-.65.89-.83.15-1.66.44-2.19,1.12-1.76-1.18-3.95-1.09-6-1-.46.02-.95-.42-1.41-.36-.25-.64-.77-1.24-.91-1.92-.13-.1-.26-.19-.39-.28-1.49-1.16-2-1.98-1.28-2.62.37-.33,1.07-.6,2.14-.85.19-.19.39-.34.61-.47,1.89-1.1,4.61.02,5.24,2.22Z"/>
        <path class="cls-69" d="M12.15,18.57c1.72.04,3.41.37,4.99,1.05.88.38,2.31.6,2.6,1.72.25,1.72-.44,1.91-1.17.22l-.7.27c-2.24,2.36-6.74,1.54-6.84-2.02-.33-1.04.04-1.45,1.11-1.24Z"/>
        <path class="cls-9" d="M23.89,24.76c1.28-.17,2.01.08,2.21.76.22.72-.18,1.93-1.2,3.63-.42.45-1.15,1.19-1.86,1.46-.87-.28-.86-.62,0-1-.53-.2-.95-.5-1.26-.91-.19-.22-.33-.48-.44-.77-.16-.38-.26-.82-.3-1.32-.51.47-.91.7-1.17.72-.25.03-.37-.12-.35-.41.01-.29.17-.73.5-1.29.88.1,1.06-.93,1.77-1.17l2.1.3Z"/>
        <path class="cls-17" d="M18.58,21.56l1.17-.22c.37,1.38.24,2.89.27,4.3-2.48,2.14-3.02-2.04-1.43-4.08Z"/>
        <path class="cls-92" d="M7.81,17.72c2.66.17,2.52,1.1-.03,1.84.37,1.68-1,2.05-4.09,1.1-.05.92-.36.93-.9.1.15-.36.08-.84.21-1.21.75-2.04,2.96-1.9,4.81-1.83Z"/>
        <path class="cls-12" d="M7.81,17.72c1.51.05,3.19-.47,4.34.86-.43.36-.8.78-1.11,1.24-.16,2.67-1.08,2.61-1.98.12-.5,1.92-1.3,1.66-1.27-.37l.03-1.84Z"/>
        <path class="cls-83" d="M4.14,22.41c.2-3.23,3.92-2.36,4.43,1.11l2.57,1.94c.9.33.92.7.05,1.11-.36,1.2-.73,2.49-.47,3.75-2.03-1.6-4.89-1.64-6.58-3.71-1.34-1.12-1.19-3.13,0-4.21Z"/>
        <path class="cls-56" d="M2.79,20.76c.29-.07.62,0,.9-.1,1.62-.66,1.77-.07.45,1.76,1.05,1.26.88,2.89,0,4.21-.47-.57-1.52-.61-2.07-1.08-.92-1.59.06-3.23.72-4.78Z"/>
        <path class="cls-96" d="M19.52,26.92c.14.08.26.22.35.41.14.3.22.73.17,1.28.2-.28.43-.46.68-.58.2-.09.41-.12.62-.1.25,0,.5.08.72.21.49.27.88.8.98,1.47v1c-.45.17-.78.7-1.16.99-1.15-.94-4.29-.74-4.71-1.62-.26-.54-.21-1.18-.13-1.65.1-.76.35-.95.77-.59.02.02.03.04.04.05.09.1.18.2.27.29.3-1.11.93-1.45,1.4-1.16Z"/>
        <path class="cls-11" d="M9.05,19.93l1.98-.12c2.07,1.33,4.63,1.09,6.84,2.02.29,2.32.37,4.4.24,6.25-.33-.09-.74.28-1.08.25-2.13-.21-4.2-.28-5.85-1.75.1-.33-.11-.77-.05-1.11-2.66,1.33-4.99-5.43-2.08-5.54Z"/>
        <path class="cls-76" d="M17.88,21.83c.24-.07.45-.23.7-.27-.31,1.66-.51,3.61,1.43,4.08.38.13.64.79,1.03.97,1.8,1.24,1.07,2.98-1,2l-1.92-.53c-1.81-1.82-1.39-4.12-.24-6.25Z"/>
        <path class="cls-72" d="M21.04,26.61c.7-.04,1.59.12,1.84.69.37.83.16,1.62.16,2.31-1.11.12-2.26-.11-3-1,.81-.32,1.02-1.2,1-2Z"/>
        <path class="cls-97" d="M3.69,20.66c1.34-.45,2.67-.98,4.09-1.1.42-.04.85.4,1.27.37-.8,2.3,1.05,3.65,2.08,5.54-1.35.07-2.13,1.36-4.07,1.1.88-1.89.57-3.84-1.22-5.25-.78-.62-1.99.21-1.71,1.1-.19-.58-.34-1.16-.45-1.76Z"/>
      </g>
    </g>
    <path class="cls-45" d="M60.5,21.79s1.44,1.42.98,3.06c-.71,2.56-3.45,5.87-3.6,6.68.49.51.84.95,1.04,1.33.4.76.25,1.27-.47,1.54-.35.13-.82.2-1.42.22h-1c-.58-.34-.95-1.01-1.09-2v-2c.58-1.05.88-1.97.01-3l.08-2.25c.35-.08.98-3.05.98-3.05l4.48-.52Z"/>
    <g>
      <path class="cls-13" d="M84.31,47.63c-1.12-1.59-.45-1.97,1-.57.11-3.22,2.55-3.17,3.43-.22,1.37.67.91.91-.35,1.55-1.14.21-2.37.04-3.51.38-.2-.37-.46-.73-.58-1.14Z"/>
      <path class="cls-13" d="M77.9,48.7c-.28-1.45.95-1.33,2.01-.5.95-.63,1.56-.4,1.84.71-.6,1.08-1.74,1.25-2.56,2-.99-.26-1.42-1.23-1.29-2.2Z"/>
      <path class="cls-88" d="M84.31,47.63c-.69.39-2.15.53-2.55,1.27-.58-.3-1.21-.53-1.84-.71-.88.21-.98-.07-.38-.8-1.21-3.84,6.09-4.22,4.78.24Z"/>
      <path class="cls-35" d="M57.56,44.51c-.7-.63-.59-1.02.33-1.19.54-3.33,5.13-4.43,5.74-.02,2.05-.75,4.56-.46,7.54.87,4.83-.73,7.62.34,8.36,3.22l.38.8c-.68-.19-1.4.57-2.01.5-4.25-.45-8.55-.66-12.63-2.02-1.81-.6-3.36-.69-5.15.74-.28-.5-.99-.49-1.4-.58-1.94.14-2.51-.95-1.16-2.33Z"/>
      <path class="cls-88" d="M61.31,35.04c.48-.31-2.17-4.64-2.17-4.64l2.02-3.14,2.88-.34,2.98.14,1.6,2.47,10.52.64,1.25,2.13c3.59-.7,7.89.08,11.13,1.47.19-.14.51-.07.71-.2l1.36.3c4.75-5.28,7.91-5.96,9.49-2.05,1.11.48,1.19,2.03.63,3.1-.38,1.55-3.44,1.1-3.24.77.48-.81,2.87-.42,3.84.1l1.05.97c-2.33,1.69-4.84,3.08-7.52,4.17-.42.47-.8,1.21-1.36,1.53-2.57,1.44-4.88,3.52-7.74,4.37-.93.11-2.28-.44-3.43.22-1.74-2.3-4.02-3.28-6.84-2.95l-.91-2.34c-4.25-.38-8.4-1.25-12.47-2.61-4.08,2.4-7.79-2.64-3.77-4.13Z"/>
      <path class="cls-58" d="M77.55,41.77c2.14,1.08,5.3-.25,7.57,1.34,0,1.49-.13,2.85.19,3.95l-1,.57c-.6-2.11-3.51-.82-4.78-.24-7.13-3.18-5.02,1.56-15.9-4.1-4.56-1.94-2.49-4.25,1.85-4.1,3.91,1.35,7.93,2.2,12.07,2.57Z"/>
      <path class="cls-31" d="M48.62,27.39c.48-.82.88-.8,1.22.08.77-1.54,1.49-1.97,2.14-1.26.36.38.7,1.1,1.02,2.15.06.16.1.33.16.51.03.11.05.21.08.32,2.21-1.14,4.03-1.67,5.49-1.62.63,1.91,1.69,3.65,3.19,5.21.06.06.12.13.18.19l-.27.7-.52,1.38c-.26.61-.48,1.42-.14,1.93.35.53,1.34,1.3,2.14,1.1,3.35-.78,5.51.96,8.37,1.91,2.18.74,4.11.9,5.88,1.79-3.34-.09-7.02.56-10.58-.47-1.26-.37-2.12-1.41-3.14-.76-.48.3-.73.64-.8.99-.11.56.17,1.17.6,1.76-.15-.08-.3-.15-.47-.21-1.71-.74-3.99-.94-5.27.24-.92.01-1.11-.35-.58-1.11l-.38-.84c-.22-2.12.27-3.48,1.46-4.12-1.16-.71-2.34-.63-3.53.23-.1.06-.21.14-.31.22l-1.62-2.43-1.44.03c0-2.29-1.38-3.61-4.11-3.94-.85.33-1,.05-.51-.77-2.71-1.73-1.36-3.84,1.75-3.21Z"/>
      <path class="cls-60" d="M53.74,38.38c-.82-.98-.46-2.1-.81-3.09,3.45,2.22,4.63-2.2,5.46,1.97-.2,1.42-.69,2.79-1.47,4.13.16.25.28.56.38.84-2.25.22-2.44-2.48-3.57-3.84Z"/>
      <path class="cls-101" d="M58.39,37.25l.56,2.82c.2.98-1.03,1.47-2.03,1.31-.67-1.06-1.68-1.77-2.19-3.68,1.5.21,2.59.09,3.66-.45Z"/>
    </g>
    <path class="cls-33" d="M54.95,32.61c.59.51.98,1.22,1.09,2-.1,1.01.19,2.75-1.05,3.09l-.04-5.09Z"/>
    <g>
      <path class="cls-44" d="M36.93,16.12c.12,0,.24.03.35.09h.01c.35.19.66.66.75,1.4.12-.36.31-.52.55-.49.12.01.26.09.42.21,1.31,1.32,1.29,2.26.59,2.84-.84.71-2.68.88-4.26.5-.8-.18-1.54-.51-2.04-.96-.08-.09-.17-.19-.27-.29-1.07.21-1.72.81-1.94,1.79-.02.08-.04.16-.05.24-.07.48-.06,1.03.04,1.67l-2.04.42c-.63,1-1.78,1.83-2.94,1.98-.77.09-1.55-.11-2.21-.76.16,2.18-1.72,1.42-2.1-.3.93-2.49,2.51-4.69,4.28-6.65.86-.71,1.87-1.07,3.05-1.08.71-.01,1.49.12,2.32.37.52.16,1.06.36,1.63.62.09-.75.39-1.2.77-1.4.68-.36,1.63.11,2.14,1.21.03-.94.48-1.41.95-1.41Z"/>
      <path class="cls-68" d="M29.23,15.38c.59,1.11,1.94,1.09,3.03,1.32,1.64-1.29,2.14-.64.8,1.02-2.27.44-4.79.28-7,.09-.14-1.82,1.55-2.54,3.17-2.43Z"/>
      <path class="cls-98" d="M35.34,20.67c1.44-.22,2.78-.56,4.01-.99.06.18.14.34.25.49.87,1.42,2.97,1.15,4.44.44,2.31-1.09,8.51.63,4.64,2.38l.36.62c.93,2.37.06,2.86-2.6,1.47-.62,1.89-1.75,1.39-3.4-1.49-1.42-.4-2.85.56-2.97,2.02h-1.03c.37-3.57-3.52-2.15-6-2-.4,1.78-2.56.69-4-.07.53-.99,1.34-1.72.37-1.88-1.31-.22-2.07.52-3.41-.63,2.33-.56,4.64-1.31,7.03-1.61.1.1.19.2.27.29.54.65.45,1.06-.28,1.24.8-.06,1.58-.15,2.32-.28Z"/>
      <path class="cls-28" d="M33.03,19.43c1.74-.22,3.73.92,5.78-.14.58-.3.14-1.63.2-1.95.22-.92.54-.92.93-.03,2.34.64,3.71,1.4,4.1,2.31-1.55.32-1.55.65,0,1,1.55,1.72-11.27.87-13.1.84.65-1.19,1.88-1.02,2.09-2.03Z"/>
      <path class="cls-66" d="M56.03,19.78c1.05-.35,1.64-.54,1.94-.43.39.14.3.77.06,2.16.89.23.9.57.07,1.02-1.22.3-2.29.97-3.12,1.91l-1.83.1c-2.07-.42-3.15-.1-3.22.98l-.89-1.91c-1.93.23-2.59-.48-.06-1.53-1.62-.87-3.19-1.14-4.94-1.47-1.32-.25-2.83.62-4.06-.55,1.61-.97,2.92-.25,4.06-.45.07-.48.19-.9.46-1.08.49-.33,9.9.85,11.53,1.25Z"/>
      <path class="cls-70" d="M46.95,17.5c1.41.31,2.65,1.99,5.22,1.15,1.55-.51,3.38-.11,3.86,1.14l-11.99-.17c-1.07-.93-3.83-.46-4.1-2.31,2.54-1.57,5.58-3.33,7.01.19Z"/>
    </g>
    <path class="cls-22" d="M43.04,23.59c1.65,2.88,2.78,3.38,3.4,1.49,2.66,1.39,3.53.9,2.6-1.47l.89,1.91c.07-1.08,1.15-1.4,3.22-.98l1.83-.1c-.83.46-.84.78.06.92l-.08,2.25v3s-.01,2-.01,2l.04,5.09c-.94.3-1.55.73-1.82,1.18-.33.26-.69.81-1.11,1.66-.7-4.5-6.26-4.92-10.03-3.97-.31-.1-.68-.05-1-.13.91-2.72.01-3.21-1.82-1-.12-2.16-1.17-2.44-3.17-.83v-1c-1.55-1.7-7.07-.7-9,0v1c-1.11-2.65-3.76-3.08-4,0-.43-.84-1.05-1.57-1.81-2.12.26-.25.36-.68.65-.89.38-.29.71-.82,1.16-.99.71-.27,1.44-1.01,1.86-1.46,1.02-1.7,1.42-2.91,1.2-3.63,1.16-.15,2.31-.98,2.94-1.98,1.44.76,3.6,1.85,4,.07,2.48-.15,6.37-1.57,6,2h1.03c.12-1.46,1.55-2.42,2.97-2.02Z"/>
    <path class="cls-34" d="M56.52,27.63c.86.35.75,1.42.05,2-.42.34-.95.81-1.62.98v-3c.37.09,1.02-.2,1.57.02Z"/>
    <g>
      <path class="cls-67" d="M65.26,35.51c-.36-2.71.15-5.38,1.49-7.77,3.9-2.32,8.33-4.03,13.28-5.13,1.22-1.94,5.64-3.04,7.04-1.04-.98,1.31-3.41,1.27-3.79,3.11-10.01,3.82-15.02,5.73-15.02,5.73l.63-.16c.24,1.47.37,2.97.37,4.49-.14,1.73-.86,1.39-1.92-.13l.13,4.38c-2.25-.75-1.66-2.48-2.22-3.48Z"/>
      <path class="cls-89" d="M83.29,24.68l.63.14c-2.06.63-3.72,3.05-5.81,3.72l-9.09,2.91,2.94,3.37c.2.86-.75.64-1.2.58-.56-.07-1.03-.31-1.49-.65-.88-1.43-2.34-2.81-2.25-5.08,2.81-1.91,6.21-1.54,8.99-3.19,2.35-1.39,4.71-2.38,7.27-1.79Z"/>
      <path class="cls-81" d="M58.03,21.51c-1.87-2.37,3.09-5.18,4.98-2.99-.53-2.92,2.6-3.52,3.96-.99.88.26.87.59.02.99.9,1.56-.29,3.09-2.04,3.1-.25.86-.53.82-.84-.07-1.67,1.63-2.89,2.05-4.99,1.66-.35-.09-.67-.54-1.02-.69l-.07-1.01Z"/>
      <path class="cls-66" d="M59.11,23.21c1.27-1.3,3.24-1.79,4.99-1.66,1.27.55,1.84,1.49.97,2.49,2.29-.48,3.62.04,3.97,1.56.77-1.15,2.1-1.82,4-2,.7-2.35,1.05-2.56,2.98-.93,2.1-1.14,3.44-1.16,4.02-.07-1.08,2.39-4.31,1.32-6.45,2.47-2.51,1.34-4.29,2.74-6.83,2.66-2.3-.07-5.53-1.14-7.13,2.54-2.84-2.24,4.14-7-.51-7.07Z"/>
      <path class="cls-99" d="M72.92,15.16c-.11-2.77,3.49-3.82,4.98-1.55.52-3.11,2.11-2.44,3.82-.48l4.32-.26c.3-.55.64-.52,1,.02.69-2.26,3.99-4.62,5.77-2.25,3.41-.4,5.82-3.03,9.23-3.03l-.19,1.68c-.36,2.32-4.36,4.45-6.54,4.32-.83,1.76-2.28,4.72-4.27,5.19-2.59-1.53-5.69-2.53-9.32-2.98l-14.05,3.82-.67-1.13-.02-.99c-.46-3.08,3.56-2.73,5.95-2.38Z"/>
      <path class="cls-8" d="M66.99,18.52c8.48-.36,8.65-4.84,19.06-3.09,1.07.18,3.39-1.11,4.2-.02.57.76.24,2.33.77,3.4-1.81.42-2.87,1.33-3.95,2.77-2.43-.26-4.64,1-7.04,1.04l-4.02.07c.31-1.55-1.41-1.99-5.18-1.33-5.11,3.72-7.07,3.81-5.89.28.82-.94,1.59-1.93,2.04-3.1Z"/>
      <path class="cls-18" d="M64.1,21.56l.84.07c.28.74.94,1.13,1.38.86.81-.48,1.1-1.45,1.71-2.01,2.24-2.06,5.45-.58,8.06-1.41,2.08-.66,3.57-2.5,5.47-2.44,2.32.07,4.13.77,5.43,2.64-4.15.13-8.16,1.11-10.99,3.42-.9.73-1.7,1.22-2.98.93-1.71.22-3.04.88-4,2-2.59.18-5.1.91-7.88.45,1.06-2.3,2.64-2.97,2.94-4.5Z"/>
      <path class="cls-8" d="M73.04,23.61c-1.03.82-2.59,1.9-4,2-.4-1.33.44-2.11,1.49-2.05.97.05,1.76-.12,2.51.05Z"/>
    </g>
    <g>
      <path class="cls-86" d="M87.08,21.57c-1.12-3.36,1.2-5.13,3.95-2.77.11-2.51,1.36-5.74,4.27-5.19l2.83.05c1.89-1.58,3.53-1.89,4.92-.92,1.02-.34,2.02-.35,3.01-.03,1.8-1.9,2.8-1.94,2.99-.1,1.46-.49,2.59-.48,1.85,1.12-1.81.68-3.74,1.29-4.75,3.05l-2.02.77-6.07,1.09c-2.91.52-4.43,2.36-6.78,3.94,1.25,2.81-5.95,4.87-7.34,2.24l-.63-.14c-1.05-1.42.21-2.46,3.79-3.11Z"/>
      <path class="cls-46" d="M112.28,11.28c-.06-3.04,3.87-3.66,5.89-1.85-.55-2.13,1.99-2.58,2.86-.74.31-1.88.59-2.43,2.06-1.06.96-1.42,2.23-2.1,3.82-2.02,1.05-.29,1.43.09,1.14,1.14-1.26,1.27-1.85,4.26-3.92,4.83-4.62,1.27-9.2.63-13.25,2.14-.57-.44-1.2-.81-1.85-1.12-1.63-2.1,1.62-2.63,3.25-1.33Z"/>
      <path class="cls-95" d="M121.02,2.33l1.66.03c2.31-.08,2.32,1.13.06,1.79.55,1.46-.3,2.81-1.79,1.64.07,2.08-2.36,2.49-3.89,1.69-1.91,1.54-2.06,1.43-2.06-1.04,1.82-1.67,4.43-2.13,6.03-4.1Z"/>
      <path class="cls-40" d="M122.68,2.36c1.21-2.03,3.23-3.13,5.13-1.74.26.85-.03,1.14-.88.87.64,2.6-2.19,6.56-3.32,2.67-.23.85-.53.83-.88,0l-.06-1.79Z"/>
      <path class="cls-102" d="M126.94,1.49c.21-.35.56-.62.88-.87,1.88,1.37,1.97,4.38.23,6.14-.32-.44-.7-.83-1.14-1.14-1-.38-.98-1.21.06-2.5l-.03-1.63Z"/>
      <path class="cls-14" d="M104.11,17.56c-.71.27-1.24.97-2.07,1.06h-3l-1,.04c1.85-.33,3.75-2,6.07-1.09Z"/>
      <path class="cls-61" d="M113.03,6.53c.63-.23,1.31-.29,1.96-.1s1.68.35,2.06,1.04c2.52-.48,2.64-.03,1.11,1.96-1.67,1.56-3.97.76-5.89,1.85-1.55-.2-2.63-.75-3.25-1.67-.79-.83,0-1.38,2.38-1.67l1.61-1.41Z"/>
      <path class="cls-50" d="M102.03,7.61h5l5-1,1-.08c-.15,2.42-2.69,1.85-4,3.08-.04,2.06-.7,2.06-2,0-1.33.84-2.67,1.19-4.04,1.07-2.13,1.6-2.61.83-1.15-1.38-2.26-.04-1.9-1.03.19-1.68Z"/>
      <path class="cls-61" d="M109.03,6.38c1-.03,2.01.31,3,.23-.95,1.73-3.34,1-5,1,.29-.79,1.18-1.21,2-1.23Z"/>
      <path class="cls-75" d="M95.3,13.62c1.25-2.67,3.25-4.09,6.54-4.32l1.15,1.38c.89.19.87.51.02.95.88.3.88.67.03,1.12-2.07,1.44-3.79,3.7-7.03,2.77-.87-.25-.76-1.34-.72-1.9Z"/>
      <path class="cls-103" d="M107.03,9.61h2c.62,0,1.65-.05,2.23.14.53.18,1.6.66,1.02,1.53-.99.56-2.51.2-3.25,1.33l-2.99.1c-1.93.2-1.94-.57-.01-1.15l1-1.95Z"/>
      <path class="cls-16" d="M103.04,12.75l-.03-1.12c.71-1.52,2.88-2.05,3.02-.06v1.15c-.38.59-.86,1.41-1.61,1.52s-1.19-.85-1.38-1.49Z"/>
      <path class="cls-62" d="M123.62,4.15c2.05.72,2.41-1.13,3.32-2.67,1.88.6.38,2.79-.03,4.13-.26.87-.87,1.83-1.77,2.42-.54.36-1.42-.05-2.05-.4-1.73-.93-.81-2.38.53-3.49Z"/>
      <path class="cls-80" d="M117.06,7.47c.77-1.38,2.58-1.07,3.89-1.69,2.02-.4,1.4,1.76.08,2.91-.74.49-2.22.13-2.86.74-.66-.48-.75-1.31-1.11-1.96Z"/>
      <path class="cls-59" d="M120.95,5.79c.71-.33,1.2-1.16,1.79-1.64.27.05.62-.09.88,0-.08,1.18-.25,2.34-.53,3.49-.7.31-1.42.63-2.06,1.06l-.08-2.91Z"/>
      <path class="cls-61" d="M107.03,9.61c.05.36.94,1.1.77,1.51-.25.58-1.38.37-1.77.45l-3.02.06-.02-.95c.44-.7,1.05-1.26,1.99-1.7.65-.31,1.53-.21,2.05.63Z"/>
    </g>
  </g>
</svg>