<?xml version="1.0" encoding="UTF-8"?>
<svg id="Enemy" xmlns="http://www.w3.org/2000/svg" viewBox="0 0 68.46 136.44">
  <defs>
    <style>
      .cls-1 {
        fill: #ba8a66;
      }

      .cls-2 {
        fill: #4f4b46;
      }

      .cls-3 {
        fill: #fbcba3;
      }

      .cls-4 {
        fill: #f9cfab;
      }

      .cls-5 {
        fill: #0d0f57;
      }

      .cls-6 {
        fill: #98918d;
      }

      .cls-7 {
        fill: #05175f;
      }

      .cls-8 {
        fill: #b08d83;
      }

      .cls-9 {
        fill: #8f4f15;
      }

      .cls-10 {
        fill: #f6c7a7;
      }

      .cls-11 {
        fill: #b59c91;
      }

      .cls-12 {
        fill: #c7916f;
      }

      .cls-13 {
        fill: #54575a;
      }

      .cls-14 {
        fill: #0e1857;
      }

      .cls-15 {
        fill: #f5be96;
      }

      .cls-16 {
        fill: #2a292e;
      }

      .cls-17 {
        fill: #8d6354;
      }

      .cls-18 {
        fill: #081e79;
      }

      .cls-19 {
        fill: #c3a38e;
      }

      .cls-20 {
        fill: #071554;
      }

      .cls-21 {
        fill: #0a0b23;
      }

      .cls-22 {
        fill: #fff;
      }

      .cls-23 {
        fill: #b88b73;
      }

      .cls-24 {
        fill: #e4873b;
      }

      .cls-25 {
        fill: #884009;
      }

      .cls-26 {
        fill: #bd907d;
      }

      .cls-27 {
        fill: #091251;
      }

      .cls-28 {
        fill: #bb9c85;
      }

      .cls-29 {
        fill: #1930a7;
      }

      .cls-30 {
        fill: #dbb69f;
      }

      .cls-31 {
        fill: #aa9278;
      }

      .cls-32 {
        fill: #021558;
      }

      .cls-33 {
        fill: #985837;
      }

      .cls-34 {
        fill: #c3957c;
      }

      .cls-35 {
        fill: #010634;
      }

      .cls-36 {
        fill: #6f3810;
      }

      .cls-37 {
        fill: #091042;
      }

      .cls-38 {
        fill: #cdab90;
      }

      .cls-39 {
        fill: #fee3ba;
      }

      .cls-40 {
        fill: #968576;
      }

      .cls-41 {
        fill: #413d3b;
      }

      .cls-42 {
        fill: #574f4b;
      }

      .cls-43 {
        fill: #756d69;
      }

      .cls-44 {
        fill: #784f34;
      }

      .cls-45 {
        fill: #af5d18;
      }

      .cls-46 {
        fill: #0b0e23;
      }

      .cls-47 {
        fill: #0f1c5e;
      }

      .cls-48 {
        fill: #151f56;
      }

      .cls-49 {
        fill: #2a2824;
      }

      .cls-50 {
        fill: #8e857d;
      }

      .cls-51 {
        fill: #2b2726;
      }

      .cls-52 {
        fill: #b38f77;
      }

      .cls-53 {
        fill: #040d34;
      }

      .cls-54 {
        fill: #fcd8b6;
      }

      .cls-55 {
        fill: #282627;
      }

      .cls-56 {
        fill: #918a84;
      }

      .cls-57 {
        fill: #b6856c;
      }

      .cls-58 {
        fill: #edb490;
      }

      .cls-59 {
        fill: #9c7959;
      }

      .cls-60 {
        fill: #d38269;
      }

      .cls-61 {
        fill: #47423d;
      }

      .cls-62 {
        fill: #cb9974;
      }

      .cls-63 {
        fill: #051143;
      }

      .cls-64 {
        fill: #061b6e;
      }

      .cls-65 {
        fill: #4a3f37;
      }

      .cls-66 {
        fill: #0e1e6e;
      }

      .cls-67 {
        fill: #3d3635;
      }

      .cls-68 {
        fill: #766b62;
      }

      .cls-69 {
        fill: #373227;
      }

      .cls-70 {
        fill: #070a3d;
      }

      .cls-71 {
        fill: #89847d;
      }

      .cls-72 {
        fill: #07175b;
      }

      .cls-73 {
        fill: #030c34;
      }

      .cls-74 {
        fill: #c06d17;
      }

      .cls-75 {
        fill: #ba8b79;
      }

      .cls-76 {
        fill: #f4bc98;
      }

      .cls-77 {
        fill: #6b523a;
      }

      .cls-78 {
        fill: #26292e;
      }

      .cls-79 {
        fill: #8c674e;
      }

      .cls-80 {
        fill: #0a134f;
      }

      .cls-81 {
        fill: #efad88;
      }

      .cls-82 {
        fill: #444240;
      }

      .cls-83 {
        fill: #fee0ae;
      }

      .cls-84 {
        fill: #0f2175;
      }

      .cls-85 {
        fill: #59524e;
      }

      .cls-86 {
        fill: #f15a24;
      }

      .cls-87 {
        fill: #0b102f;
      }

      .cls-88 {
        fill: #081e77;
      }

      .cls-89 {
        fill: #f6ad80;
      }

      .cls-90 {
        fill: #606275;
      }

      .cls-91 {
        fill: #d2a591;
      }

      .cls-92 {
        fill: #0d0e21;
      }

      .cls-93 {
        fill: #f7931e;
      }

      .cls-94 {
        fill: #dd9a59;
      }

      .cls-95 {
        fill: #050f38;
      }

      .cls-96 {
        fill: #0c0f25;
      }

      .cls-97 {
        fill: #e4892e;
      }

      .cls-98 {
        fill: #a86d3a;
      }

      .cls-99 {
        fill: #b17660;
      }

      .cls-100 {
        fill: #f0c7a5;
      }

      .cls-101 {
        fill: #836851;
      }

      .cls-102 {
        fill: #d4996e;
      }

      .cls-103 {
        fill: #88807a;
      }

      .cls-104 {
        fill: #2f2924;
      }

      .cls-105 {
        fill: #feccad;
      }

      .cls-106 {
        fill: #db9770;
      }

      .cls-107 {
        fill: #101e78;
      }

      .cls-108 {
        fill: #171a35;
      }

      .cls-109 {
        fill: #8c6239;
      }

      .cls-110 {
        fill: #142796;
      }

      .cls-111 {
        fill: #2a2522;
      }

      .cls-112 {
        fill: #483f3d;
      }

      .cls-113 {
        fill: #837d78;
      }

      .cls-114 {
        fill: #9a602e;
      }

      .cls-115 {
        fill: #976047;
      }
    </style>
  </defs>
  <g id="CrimeGuy_attack">
    <g id="back-arm">
      <path class="cls-4" d="M37.39,59.41s1.18-7.57,1.2-8.46-.23-7.77.02-8.23,1.49-7.2,1.77-8.06,2.39-6.71,2.32-7.4.23-3.17-.82-3.54c-1.05-.37-5,.42-6.18,1.39s-5.1,4.35-5.04,5.92-.5,3.9-.22,4.54,2.01,3.93,1.92,4.87-1.09,2.89-1.03,3.71.2,4.44.44,5.48.07,5.04.44,6.23,1.88,3.17,2.37,3.76,2.81-.21,2.81-.21Z"/>
      <path class="cls-91" d="M42.54,27.87c-.25,1.2-.14,2.64-.96,3.6l-1.98,2.33c-.28.84-.65.88-1.11.12-1.91.06-1.5-2.31.06-3.05-1.41-.75-.9-1.54.13-2.63.55-1.84,2.6-3.17,3.18-.92.27.11.48.33.68.54Z"/>
      <path class="cls-98" d="M38.04,58.46c-1.02,1.79-.09,3.84-.36,5.81-.84,1.71-1.75.81-2.05-.9-.8.37-1.2-.06-1.22-1.29-.87.46-1.21.21-1.01-.75-3.47-.06-2.71-3.21.26-3.1-.83-2.56,0-2.94,1.93-1.09-.23-.86.07-1.02.87-.54l1.57,1.86Z"/>
      <path class="cls-38" d="M37,55.84c-2.19-.34-2.56-4.58-.26-4.98-2.08-1.4-1.22-4.44.74-5.47-.32-.86-.05-1.07.8-.66-.46-.78-.21-.98.67-.63.41,3,.12,8.99-1.96,11.73Z"/>
      <path class="cls-100" d="M37,55.84c-.18.23-.32.56-.53.76-.24.22-.58.38-.87.54-2.62-.15-3.1-4.9-1.31-6.54,1.42-2.02,1.46-2.02,2.46.26-.44,1.61-.57,3.56.26,4.98Z"/>
      <path class="cls-26" d="M39.22,39.48c-.32.92-.74.84-1.25-.09-2.37-.67-1.39-4.7.53-5.47.36-.1.73-.15,1.11-.12.71,1.91.16,3.82-.38,5.68Z"/>
      <path class="cls-58" d="M38.96,44.11l-.67.63c-1.86.74-2.96-.97-3.5-2.76-.85.34-1.06.07-.64-.77-.34-.85-.07-1.06.77-.64.85-2.35,1.1-2.2,1.8.17,1.23-1.19,2.08.29,2.25,1.58-.27.36-.07,1.34,0,1.79Z"/>
      <path class="cls-34" d="M38.96,42.32c-1.06.38-1.72-.78-2.25-1.58-1.65-1.42-.64-2.44,1.26-1.35.41.08.83.1,1.25.09-.24.85.38,1.98-.26,2.84Z"/>
      <path class="cls-4" d="M38.5,33.93c-.03,1.85-.85,3.61-.53,5.47l-1.26,1.35c-.6.1-1.24.1-1.8-.17-2.8.47-2.99-.78-.45-2.11.37-2.05.59-4.3.67-6.75l1.55-.27c.35-1.09.97-1.28,1.87-.57-.23.97-.04,2.07-.06,3.05Z"/>
      <path class="cls-1" d="M36.69,31.45c-1.19,2.31-.24,5.27-2.22,7.02-1.32,1.42-1.92.92-1.23-.93-.49.19-.61-.04-.41-.59l.83-5.72c.43-.51,1.27-.7,1.64-1.26.53.42,1.01.92,1.39,1.48Z"/>
      <path class="cls-28" d="M32.83,36.95c-3.78.88-2.48-2.16-.44-4.27.26-.08.48-.43.7-.62.25-.21.35-.58.57-.83.82,2.04,1.46,4.55-.83,5.72Z"/>
      <path class="cls-9" d="M35.51,71.65c-.34.18-.81.17-1.14.37-.91.14-1.04-.16-.45-.89-1.32-1.65-.32-5,2.08-4.18.55-.06.76.21.64.77-.11,1.39-.54,2.67-1.14,3.93Z"/>
      <path class="cls-25" d="M37.68,64.27c-.16,1.17-.94,2.28-1.03,3.45l-.64-.77c-2.4.43-2.17-2.39-.38-3.59.65.19,1.55.31,2.05.9Z"/>
      <path class="cls-94" d="M35.63,63.37c-.28,1.2-.05,2.44.38,3.59-1.08,1.17-1.93,2.58-2.08,4.18-2.3,2.95-3.07.45-1.47-2.15.18-2.44,1.27-4.59,1.96-6.91.91-.33,1.03.72,1.22,1.29Z"/>
      <path class="cls-23" d="M35.59,57.14l-1.93,1.09-1.01-1.34-.21-6.6.92-.63c1.34-1.44,1.91-.83.92.94-.3,2.28-.02,4.63,1.31,6.54Z"/>
      <path class="cls-39" d="M36.74,50.86c-.83.27-1.74.28-2.46-.26l-.92-.94c-.35-1.41-.69-3.3.39-4.22-1.29-.6-.53-2.45.9-2.05,1.01.4,1.95,1.07,2.82,2,.88,1.87-.26,3.68-.74,5.47Z"/>
      <path class="cls-3" d="M38.28,44.74l-.8.66c-.44.19-1.3.6-1.66.27-.71-.65-.76-1.63-1.16-2.28-1.47-.18-1.25-.8.13-1.41,1.21.85,2.39,1.76,3.5,2.76Z"/>
      <path class="cls-19" d="M34.65,43.39l-.9,2.05c-.4.84-.87.74-1.41-.13-1.93-.08-1.98-.9-.1-1.53.37-1.03,1.07-1.87,1.9-2.56l.64.77-.13,1.41Z"/>
      <path class="cls-30" d="M33.92,71.13l.45.89c-1.35.82-2.51,2.34-4.88,1.53.27-1.78,1.58-2.46,1.96-3.68.12-.38.81-.53,1-.88-.04.52.21,1.02.3,1.56s.57,1.26,1.17.58Z"/>
      <path class="cls-31" d="M33.36,49.66c-.15.27-.58.39-.77.64.45-1.46-.96-3.46-.24-4.99.47,0,.94.04,1.41.13.32,1.42.33,2.93-.39,4.22Z"/>
    </g>
    <g id="front-leg-assembly">
      <g id="front-shoe">
        <path class="cls-51" d="M31.23,134.5c-1.23-.78-8.21-2.59-8.74-3.55s-.45-6.47-.02-8.44,1.4-6.08,1.15-7.58-.77-10.52-.92-11.56-.73-3.45.76-3.02c1.48.43,3.27.14,5.04.62s5.08,1.6,5.68,2.08,1.31,1.47.61,2.23-2.59,4.62-2.7,5.29-1.48,10.33-1.1,11.56-.5,4.87.97,5.39,3.76,1.97,4.86,2.92.85,3.73.6,4.07-4.97.75-6.2-.03Z"/>
        <path class="cls-56" d="M25.86,121.11c-.55,2.45,1.2,5.97,3.52,4.82.82,1.47,1.48,1.18,1.98-.89l.16-.99c.15-2.68-.76-2.69-1.97-.32-.14-2.1-.91-3.58-2.32-4.43-.14-.91-.47-.95-.99-.16-1.44-.32-1.55,1.22-.38,1.97Z"/>
        <path class="cls-51" d="M22.71,103.38c-1.3.67-1.29,1.94.24,2.49.4,3.52-.05,7.18.79,10.64.36,2.37-.06,4.37-1.26,6l-1.15,8.3c2.34,1.53,5.04,1.21,7.29,2.24.23-.21.54-.64.62-.93l1.27-1.73c-2.75-2.6-4.3-5.69-4.65-9.28l.38-1.97c1.11-2.42,1.02-4.36-.27-5.82.13-2.43-.16-4.6-.86-6.52.91-.14.95-.47.16-.99,1.79-.71,1.4-2.37-.58-2.12.46-3.08-1.5-3.36-1.97-.32Z"/>
        <path class="cls-82" d="M22.79,121.63c-.04.3-.28.58-.32.88,2.65-.65,1.73-4.06,1.26-6-.38,1.69-.69,3.4-.94,5.11Z"/>
        <path class="cls-41" d="M26.23,119.14l.99.16.99.16c-.46,1.34.66,1.95,1.81,1.31,1.39,1.24,1.53-.24,1.49-1.87.32-3.28.74-6.55,1.55-9.74-1.75-2.23-4.42.73-2.41,2.66l-1.1-.17c-.17,1.2-.69,2.04-1.56,2.53l-.39-3.05c1.66-.77,1.43-1.49-.67-2.17,2.13-1.8.32-3.51-1.83-2.16-.66,4.09-.08,8.36,1.13,12.34Z"/>
        <path class="cls-2" d="M30.83,103.7c-.78-.61-2.39-.2-3.19.47-.91.16-.95.52-.17,1.05-.04,1.3-.09,2.48-.54,3.73-.14,1.87-1.07,4.35,1.06,5.22.81-.53,1.7-1.32,2.66-2.36.35-1.16,1.36-2.05,2.41-2.66.4-.23.64-.75,1.07-.95.01-.31.14-.61.13-.92-.6-4.96-1.74-6.15-3.43-3.58Z"/>
        <path class="cls-61" d="M30.02,120.77c-2-.66-1.3,1.5-.48,2.96.56.28,1.39.08,1.97.32.28-1.72.85-3.53,0-5.15-.36.72-.83,1.39-1.49,1.87Z"/>
        <path class="cls-50" d="M29.23,132.12c1.65,1.84,4.26,2.54,6.61,2.81.76-2.54-1.71-4.89-4.33-4.56-2.17-1.93-3.97-1.27-2.27,1.76Z"/>
        <path class="cls-43" d="M31.51,130.36c1.7,1.38,4.07,2.19,4.33,4.56l.99.11c-.06-1.48-.56-3.01-1.34-4.27-.41-.38-1.26-1.13-1.81-1.31-1.51-.4-2.23-.1-2.17.9Z"/>
        <path class="cls-61" d="M29.23,132.12c.3-1.13,1.08-1.88,2.27-1.76.79.08,1.66-.32,2.17-.9-.73-.24-1.35-.74-2-1.08-.61-.87-1.38-1.69-2.3-2.46-2.02-.85-2.68-2.94-3.52-4.82-.22,1.12-1.67,2.52-.46,3.8.72.75,1.73,1.6,1.95,2.39.17.63-.6,1.71-.65,2.55,1.79-.04,1.85,1.51,2.53,2.27Z"/>
        <path class="cls-103" d="M29.38,125.93c-.18.52-.48,1.03-.71,1.4-.5.8.34.9.66,1.11.7.45,1.81-.32,2.35-.05-.44-1.06-.51-2.22-.32-3.35-.68.25-1.34.55-1.98.89Z"/>
        <path class="cls-6" d="M28.21,119.46c-.14-.91-.47-.95-.99-.16.24,1.5.85,3.69,2.32,4.43l.48-2.96c-.09-.91-1.03-1.18-1.81-1.31Z"/>
        <path class="cls-69" d="M27.47,105.23c-.8-1.24-2.31-.95-2.21.59l-.16.99c.64.45,1.9,1.19,1.83,2.16,1.01-.58,2.22-.54,3.46-.73-.31-1.86-1.59-2.76-2.92-3.01Z"/>
        <path class="cls-41" d="M24.68,103.7l.58,2.12c.72.04,1.5-.72,2.21-.59l.17-1.05c.91-.14.95-.47.16-.99-1,.4-2.04.6-3.12.51Z"/>
        <path class="cls-113" d="M27.22,119.3l.99.16c.81-.8,2.74-3.3.48-3.94-1.07-.3-1.63,2.78-1.47,3.78Z"/>
        <path class="cls-71" d="M28,114.18c.8.33,1.69.88,2-.14l.67-2.23c-.65-.27-1.02-.84-1.81-1.44-.7,1.66-.62,2.7-.85,3.8Z"/>
        <path class="cls-90" d="M27.8,103.19l-.16.99c1.09.21,2.27.23,3.19-.47l.09-1.02c-1.05,0-2.13.12-3.12.51Z"/>
      </g>
      <g id="front-leg">
        <path class="cls-64" d="M23.91,103.72c1.35.5,4.48.02,5.96,1.28s3.04,3.37,3.75,3.12,1.56-4.22,2.02-5.48,2.9-8.12,3.79-10.54,2.71-5.12,2.82-6.82-.35-5.95-.8-7.24-1.14-9.91-2.33-11.37-3.44-6.37-3.22-7.82.38-3.84-.86-4.61-4.32-2.41-5.1-2.5-3.93.69-5.96-.16c-2.03-.85-11.19,12.61-9.52,13.63,1.66,1.02,3.76.88,4.59,2.21s.68,4.23,1.54,5.77,2.37,7.41,3.01,8.97c.65,1.57,1.74,7.17,2.49,8.17.76.99.02,3.27-.48,4.62s-2.78,5.61-2.62,6.28.92,2.48.92,2.48Z"/>
        <path class="cls-95" d="M40.2,82.66c.27-.74.16-2.21.82-2.73-.39-.52-.73-1.1-1.01-1.7.06-.9-.23-.96-.85-.24-3.99-.54-3.13,6.72,1.04,4.67Z"/>
        <path class="cls-37" d="M32.6,56.82c-.73-.58-1.11-.41-1.12.53-3.19,1.09-3.5,5.81.95,5.66-.4,2.15.31,4.58,2.14,7.29.1,4.89,1.63,7.45,4.59,7.7l.85.24c-.3-.64.32-1.48.16-2.06-1.16-4.11-2.09-8.31-4.13-12.11-.9-1.68-1.24-3.19-.14-5.2-.54-.19-.65-.89-.81-1.29-.19-1.94-1.36-2.31-2.49-.75Z"/>
        <path class="cls-95" d="M23.9,62.12c-.22.52-.36.97-.2,1.14,2.77,3.1,3.52.52-.56-.34-1.89-.39-1.76.75-1.34,2.69-.72.4-1.01,1.25-.86,2.55l-1.22,2.08,2.41,10.26,2.32.87c-.08,3.65,1.41,7.76,3.33,10.72-.11.21.01.51-.08.73l.52,1.29c-4.4,5.57-4.54,8.81-.41,9.7.66,1.02,2.2.83,3.16.1,1.46-.63.51-3.58.21-3.32-.72.61.07,2.9.74,3.76l1.14.87c1.27-2.58,2.21-5.29,2.84-8.12.4-.5,1.06-.99,1.28-1.6.99-2.77,2.65-5.41,3-8.37-.05-.94-.82-2.17-.36-3.42-2.56-1.32-3.92-3.41-4.06-6.25l-2.46-.5c-1.1-4.12-2.66-8.07-4.68-11.85,1.68-4.42-3.92-7.23-4.7-3.02Z"/>
        <path class="cls-64" d="M33.28,76.99c1.42,1.93.65,5.27,2.6,7.23,1.47-.25,2.79-.61,3.93-.49l.39-1.08c-2.18-.23-1.4-3.32-1.04-4.67-4.34-6.49.69-5.21-6.72-14.98-2.68-4.17-4.61-1.74-3.73,2.52,1.99,3.62,3.51,7.44,4.57,11.46Z"/>
        <path class="cls-78" d="M31.9,104.37c.05-.95-.26-1.1-.95-.44-.92.04-1,.37-.29.98,2.43.23,1.46,2.86,2.68,4.18.66-4.05,2.28-7.96,2.53-11.97-1.76,2.21-1.24,5.89-3.98,7.25Z"/>
        <path class="cls-32" d="M16.43,55.13c.11,0,.22.02.33.03-.75,2.37-.97,4.26-.67,5.68,1.99.3,3.89,1.05,5.68,2.27.07.05.15.1.21.14l.64-.38,1.28-.74c.56-.36,1.32-.72,1.88-.47.58.26,1.5,1.1,1.44,1.92-.2,3.43,1.87,5.26,3.3,7.92,1.1,2.03,1.58,3.9,2.76,5.5-.65-3.28-.63-7.01-2.25-10.35-.58-1.18-1.75-1.85-1.28-2.97.22-.53.51-.83.84-.96.54-.21,1.18-.03,1.84.3-.1-.13-.2-.28-.29-.43-1.01-1.56-1.6-3.77-.66-5.23-.14-.91-.54-1.03-1.19-.39l-.89-.23c-2.12.14-3.39.86-3.82,2.14-.89-1.02-1.02-2.2-.37-3.52.04-.11.11-.23.17-.34l-2.66-1.19-.21-1.42c-2.26.38-3.79-.75-4.58-3.39.18-.89-1.67,6.09-1.49,6.11Z"/>
        <path class="cls-72" d="M25.91,54.1c1.26.81,2.73,1.76,4.39,2.87.38.08.81.43,1.19.39.38-.04.74-.43,1.11-.53-.19-.82-.36-1.63-.45-2.46.62-1.72.05-2.61-.9-2.42-.52.1-1.13.52-1.74,1.3-1.22-.15-2.31-.18-3.26-.09-.91-.04-1.02.28-.35.94Z"/>
        <path class="cls-46" d="M27.68,92.84c-1.5,3.54-4.36,6.34-4.93,10.19.74-.28,1.64-.16,1.88.69.06,1.83,2.22,1.6,3.16.1-6.47-4.16,6.74-11.6-.11-10.99Z"/>
        <path class="cls-27" d="M30.95,103.93c.34.07.63.34.95.44.36-1.66,1.7-3.37,1.38-5.36-.24-1.49-1.93-2.3-2.93-1.94-1.08.38-2.02,1.82-1.58,3.24.47,1.53,1.86,2.32,2.18,3.62Z"/>
        <path class="cls-48" d="M18.14,51.97c1.77.59,3.24,1.61,4.57,1.85.31.64.6,1.12.89,1.44.57.64,1.1.67,1.61.09.24-.28.47-.7.7-1.26l.35-.94c-.12-.66-.62-1.24-1.5-1.72l-1.88-.69c-1.19.18-2.15.14-2.82-1.03l-2.14-.7c-.41.63-1.14,2.5.22,2.96Z"/>
        <path class="cls-66" d="M25.91,54.1c-1.11-.64-2.14-.09-3.19-.27,2.78,3.03-1.39,4.93,2.86,5.05,1.36-.44,2.64-1.16,3.82-2.14.28.11.6.18.9.24-.16-2.26-2.86-1.99-4.39-2.87Z"/>
        <path class="cls-35" d="M24.76,51.44c.27.73.8,1.34,1.5,1.72.98.26,2.51,1.13,3.26.09l-4.76-1.8Z"/>
      </g>
    </g>
    <g id="back-leg-assembly">
      <g id="back-leg">
        <path class="cls-72" d="M13.04,111.46c-.73,1.3-2.3.58-3.5-.1s-4.24-4.32-4.01-6.23,1.67-6.56,1.5-8.62,1.83-9.8,1.38-11.82-1.14-6.63-.75-8.79,2.06-6.65,2.05-7.81,1.76-8.4,1.92-9.76,2.19-5.92,4.05-5.9c1.83.02,3.84-.56,5.13-.37s12.28,1.7,13.24,1.38,2.01,3.17,1.99,4.78.83,7.06-1.02,7.51-5,4.24-6.34,4.34c-1.36.1-2.4-1.59-3.34-.99-.94.6-3.14,8.22-3.01,9.74s-.36,7.78-.95,8.85-1.35,4.44-2.43,6.2-3.1,9.95-3.25,11.23-2.66,6.37-2.66,6.37Z"/>
        <path class="cls-92" d="M17.84,86.17c-3.22-1.02-4.68,1.63-2.2,4.48-2.36.32-5.34,1.96-4.53,5.15l.32,3.14c-1.36,2.28-1.5,4.15-.42,5.59-.24,1.18-.15,2.31.26,3.36-1.68,2.3-1.62,3.42.18,3.35-.34,1.71-.22,2.97,1.26,1.89.48-2.12.88-4.34,2.46-5.71l.53-2.32.45-6.78c.22-3.22,1.77-5.04,3-7.71,2.64,1.13,3.81-6.66,1.35-8.01l-.19-.66c-1.38-1.07-2.21.33-2.47,4.23Z"/>
        <path class="cls-73" d="M28.1,62.9c-2.33-.44-4.59.04-6.56,1.4-1.71,4.12-2.85,8.87-3.4,14.22-1.67,1.38-2.27,6.24-.3,7.65,1.1-1.13.85-3.75,2.47-4.23,2.48-10.74,3.7-16,3.7-16l-.08.66c1.3.27,2.59.41,3.88.43,1.44-.13,1.09-.87-.28-1.98l3.65.19c-.82-2.3-2.2-1.74-3.08-2.33Z"/>
        <path class="cls-96" d="M20.32,81.94l.19.66c.37-2.23,2.37-4.07,2.77-6.3l1.71-9.56,3.13,3.07c.74.21.47-.78.38-1.24-.11-.58-.35-1.07-.68-1.54-1.29-.93-2.6-2.46-4.56-2.4-1.42,2.94-.79,6.54-2,9.51-1.03,2.53-1.71,5.08-.94,7.81Z"/>
        <path class="cls-87" d="M15.1,54.75c-2.39-2.16-4.6,3.13-2.33,5.28-2.84-.69-3.12,2.76-.57,4.31.33.97.65.97.94.04,1.55,1,2.86-.26,2.7-2.16.77-.25.71-.55-.14-.91,1.35-1.75,1.61-3.04,1.06-5.32-.12-.38-.56-.74-.72-1.13l-.94-.12Z"/>
        <path class="cls-72" d="M16.76,56c-1.08,1.31-1.35,3.42-1.06,5.32.63,1.39,1.54,2.03,2.37,1.11-.22,2.45.37,3.88,1.78,4.27-.96.81-1.45,2.24-1.44,4.28-2.09.77-2.25,1.15-.58,3.21-.85,2.29-.75,3.74.31,4.33,2.06-1.23.8-4.67,1.64-6.97.97-2.68,2.05-4.55,1.75-7.25-.27-2.44-1.51-5.89,1.59-7.44-2.23-3.1-5.87,4.14-6.36-.86Z"/>
        <path class="cls-13" d="M15.71,105.09c.19-.81.79-1.48.79-2.4l-.28-3.28-.06-1.1c-.14,2.05-1.52,4.34-.45,6.78Z"/>
        <path class="cls-108" d="M10.48,70.89c-2.71-.11-3.4,3.93-1.03,5.55-3.02.66-2.2,2.44-.11,4.27l.16,4.83c-.5.37-.45.75.11,1.12-2.16.92-4.2,4.82-1.65,6.63-.06,3.88-2.47,6.88-2.13,10.76l1.67-.43c2.26-.69,3.95-5.39,3.62-7.82,1.62-1.08,4.28-2.94,4.53-5.15-1.68-2.72-2.92-6.08-3.69-10.06l2.3-15.45-1.12-.75-.94-.04c-3.01-.57-2.28,3.89-1.71,6.54Z"/>
        <path class="cls-7" d="M13.13,64.39c.45,9.28-3.83,9.53-1.15,21.01.27,1.17-.75,3.83.38,4.65.78.57,2.24.09,3.28.6.22-2.01.97-3.21,2.2-4.48-.47-2.62.49-5.06.3-7.65l-.31-4.33c-1.39.37-1.96-1.5-1.7-5.59,2.92-5.45,2.83-7.54-.29-6.37-.79.86-1.65,1.68-2.7,2.16Z"/>
        <path class="cls-80" d="M11.12,95.8c-2.49,1.67-3.7,4.06-3.62,7.82l1.48,1.13c.28.97.59.91.93-.1.38.95.74.9,1.1-.11,1.19-2.48,3.19-4.64,2-8.11-.32-.94-1.36-.71-1.9-.62Z"/>
        <path class="cls-18" d="M15.7,61.32l.14.91c.71.32,1.12,1.04.92,1.51-.36.87-1.24,1.16-1.7,1.82-1.72,2.42-.03,5.92-.56,8.78-.42,2.28-2.03,3.97-1.79,6.06.28,2.55,1.11,4.5,2.99,5.82-.26-4.53.28-8.93,2.14-12.04.59-.98.96-1.85.58-3.21.04-1.84.52-3.26,1.44-4.28-.07-2.76.35-5.42-.32-8.38-1.98,1.05-2.45,2.72-3.83,3Z"/>
        <path class="cls-7" d="M18.41,70.97c.65-1.11,1.48-2.77,1.44-4.28-1.23-.44-1.86.45-1.71,1.58.14,1.05.05,1.89.27,2.69Z"/>
      </g>
      <g id="back-shoe">
        <path class="cls-49" d="M1.3,129.49c1.28-1.5,2.15-4.52,2.46-5.59s1.47-3.75,1.42-5.52c-.05-1.77-.3-8.06-.2-9.3s.36-3.92.85-5.03,3.2-3.18,4.51-2.25,2.02,3.84,2.96,4.03,1.89,1.66,1.6,2.55c-.29.9-2.04,3.1-1.99,3.74s-.6,6.05-.56,6.59.22,4.74.36,6.45-.13,2.86-.79,3.99-4.06,4.36-5.19,4.96-2.65,1.76-4.24,2.14-2.04.15-2.12-.75-1.23-3.49.93-6.03Z"/>
        <path class="cls-49" d="M10.47,115.08c-3.02.45-3.26,5.02-1.25,6.96-2.18-.22-2.38,2.78-.45,3.39-1.85.74-2.38,1.18-.85,2.56-1.34,1.41-1.9,3.02-1.66,4.82-.19,1.28.23,1.62,1.27,1.03,1.15-1.73,4.04-3.08,4.4-5.53.79-5.43-.27-10.42.81-15.19-.48-.57-.9-1.21-1.26-1.89-2.21-1.51-2.42,2.23-.99,3.85Z"/>
        <path class="cls-104" d="M2.28,126.77l.2,1.92c.14,2.7,1.4,2.43,1.86-.33,1.55.31,2.82-.95,1.49-2.41,2.11-.35,2.28-3.2,1.33-4.78,1.35-2.45,1.23-2.6-1.25-2.16-1.52,2.4-1.74,5.5-3.63,7.76Z"/>
        <path class="cls-42" d="M2.48,128.69c-2.01,1.87-2.97,4.5-1.31,6.39.92.09,1.2-.32.82-1.24,2.76.11,6.48-4.05,2.44-4.47.84-.46.8-.79-.09-1.01l-1.86.33Z"/>
        <path class="cls-111" d="M1.99,133.83c-.35.33-.6.81-.82,1.24,1.62,1.85,4.74,1.19,6.35-1.23-.47-.26-.9-.6-1.27-1.03-.48-1.06-1.33-.85-2.56.66l-1.7.36Z"/>
        <path class="cls-67" d="M5.81,116.75c-.17.77-.17,1.55.09,2.26s.52,1.85,1.25,2.16c-.24,2.97.23,3.02,2.06.88,1.37-2.17.37-4.62,1.25-6.96-.34-1.7-.99-2.83-1.96-3.39-.9-.77-1.38.22-1.43,2.97l-1.27,2.08Z"/>
        <path class="cls-55" d="M5.83,104.05l.49,5.69-.52,5.86.02,1.16c2.42-.6,1.6-3.38,2.7-5.05,2.03-.36,1.96-1.11-.19-2.26.7-1.62.92-3.18.66-4.7,1.37-2.59.56-3.03-1.48-1.13-.26-2.55-1.22-2.03-1.67.43Z"/>
        <path class="cls-67" d="M5.27,112.2c.07,1.15.52,2.25.53,3.39,1.65-1.38.68-3.97.52-5.86-.77.45-1.11,1.53-1.05,2.47Z"/>
        <path class="cls-112" d="M8.32,109.44l.19,2.26c.06.7.11,1.87.36,2.49.23.56.8,1.7,1.6.9.45-1.2-.04-2.85.99-3.85l-.18-3.35c.01-2.18-.74-2.09-1.12.15l-1.83,1.41Z"/>
        <path class="cls-16" d="M11.02,104.53l-1.1.11c-1.43.99-1.75,3.52.23,3.4l1.12-.15c.53-.52,1.28-1.16,1.32-2.02s-.93-1.22-1.57-1.34Z"/>
        <path class="cls-68" d="M4.43,129.37c.94,2.2-.93,3.04-2.44,4.47.82,2.03,2.93-.24,4.26-1.02.85-.5,1.76-1.42,2.26-2.58.3-.7-.19-1.61-.6-2.24-1.1-1.78-2.48-.41-3.48,1.38Z"/>
        <path class="cls-85" d="M7.16,121.16c-1.32,1.15-.83,3.15-1.33,4.78-.21,2.4,1.91,1.23,2.93-.51.42-.94-.08-2.54.45-3.39-.54-.65-1.38-.6-2.06-.88Z"/>
        <path class="cls-65" d="M5.83,125.94c-.27.88-1.07,1.62-1.49,2.41.08.3-.03.73.09,1.01,1.19-.35,2.36-.8,3.48-1.38.24-.86.49-1.75.85-2.56l-2.93.51Z"/>
        <path class="cls-67" d="M8.32,109.44c.36,0,1.18.9,1.56.64.54-.36.23-1.6.27-2.05l-.23-3.4-.93.1c-.65.59-1.14,1.35-1.49,2.48-.24.78-.06,1.76.83,2.22Z"/>
      </g>
    </g>
    <g id="body">
      <path id="shirt" class="cls-22" d="M29.73,43.02c-2.3,1.65-2.7,2.78-1.19,3.4-1.11,2.66-.72,3.53,1.18,2.6l-1.53.89c.86.07,1.12,1.15.78,3.22l.08,1.83c-.37-.83-.62-.84-.74.06l-1.8-.08h-2.4s-1.6-.01-1.6-.01l-4.07.04c-.24-.94-.58-1.55-.94-1.82-.21-.33-.65-.69-1.33-1.11,3.6-.7,3.94-6.26,3.18-10.03.08-.31.04-.68.1-1,2.18.91,2.57.01.8-1.82,1.73-.12,1.95-1.17.66-3.17h.8c1.36-1.55.56-7.07,0-9h-.8c2.12-1.11,2.46-3.76,0-4-.27-.71.16-1.79.6-2.55.2.26,1.64,1.1,1.81,1.39.23.38.66.71.79,1.16.22.71.81,1.44,1.17,1.86,1.36,1.02,2.33,1.42,2.9,1.2.12,1.16.78,2.31,1.58,2.94-.61,1.44-1.48,3.6-.06,4,.12,2.48,1.26,6.37-1.6,6v1.03c1.17.12,1.94,1.55,1.62,2.97Z"/>
      <g>
        <path class="cls-29" d="M30.88,22.89c-.51-.05-1.89-1.72-2.2-.26s-.66,6.19-.56,7.6-.11,8.21,0,8.8-.87,7.54-.66,8.18.92,1.15,1.02,2.87-.26,4.34-.05,5.62,1.28,5.49,2.35,4.47,1.94-1.28,2.35-1.6-.15-2.94-.1-4.21.26-7.53.56-8.68.36-3.26.61-4.47.82-1.91.97-3.51.41-2.26.38-3.87-.23-4.3-.33-5.51-2.2-5.23-4.34-5.43Z"/>
        <path class="cls-47" d="M35.71,36.91c0,.12-.02.24-.07.35h0c-.15.36-.53.67-1.12.76.29.12.42.31.39.55,0,.12-.07.26-.17.42-1.06,1.31-1.81,1.29-2.27.59-.57-.84-.7-2.68-.4-4.26.14-.8.41-1.54.77-2.04.07-.08.15-.17.23-.27-.17-1.07-.65-1.72-1.43-1.94-.06-.02-.13-.04-.19-.05-.38-.07-.82-.06-1.34.04l-.34-2.04c-.8-.63-1.46-1.78-1.58-2.94-.07-.77.09-1.55.61-2.21-1.74.16-1.14-1.72.24-2.1,1.99.93,3.75,2.51,5.32,4.28.57.86.86,1.87.86,3.05,0,.71-.1,1.49-.3,2.32-.13.52-.29,1.06-.5,1.63.6.09.96.39,1.12.77.29.68-.09,1.63-.97,2.14.75.03,1.13.48,1.13.95Z"/>
        <path class="cls-107" d="M32.07,35.32c.18,1.44.45,2.78.79,4.01-.14.06-.27.14-.39.25-1.14.87-.92,2.97-.35,4.44.87,2.31-.5,8.51-1.9,4.64l-.5.36c-1.9.93-2.29.06-1.18-2.6-1.51-.62-1.11-1.75,1.19-3.4.32-1.42-.45-2.85-1.62-2.97v-1.03c2.86.37,1.72-3.52,1.6-6-1.42-.4-.55-2.56.06-4,.79.53,1.38,1.34,1.5.37.18-1.31-.42-2.07.5-3.41.45,2.33,1.05,4.64,1.29,7.03-.08.1-.16.19-.23.27-.52.54-.85.45-.99-.28.05.8.12,1.58.22,2.32Z"/>
        <path class="cls-29" d="M33.06,33.01c.18,1.74-.74,3.73.12,5.78.24.58,1.3.14,1.56.2.74.22.74.54.02.93-.51,2.34-1.12,3.71-1.85,4.1-.25-1.55-.52-1.55-.8,0-1.37,1.55-.69-11.27-.67-13.1.95.65.82,1.88,1.62,2.09Z"/>
        <path class="cls-72" d="M32.78,56.01c.28,1.05.43,1.64.34,1.94-.11.39-.62.3-1.73.06-.18.89-.46.9-.82.07-.24-1.22-.78-2.29-1.53-3.12l-.08-1.83c.34-2.07.08-3.15-.78-3.22l1.53-.89c-.18-1.93.38-2.59,1.22-.06.7-1.62.91-3.19,1.18-4.94.2-1.32-.5-2.83.44-4.06.78,1.61.2,2.92.36,4.06.38.07.72.19.86.46.26.49-.68,9.9-1,11.53Z"/>
      </g>
      <g>
        <path class="cls-88" d="M28.67,20.02c-2.34-.2-4.56-.3-6.64-.3s-5.08-.38-7.43.48-3,2.2-3,3.06,1.69,2.87.52,3.64c-1.17.77-.65,4.31-.65,5.17s1.43,10.05.91,10.91-1.04,9.1-.78,10.24.49,5.17,2.07,4.79,4.49-.25,5.79-.35c1.3-.1,9.43.77,10.6-.77s-1.91-11.9-1.91-12.86,1.43-2.78,1.43-4.4.39-4.4,1.04-5.74-1.46-5.42-.6-6.87.6-4.04.6-4.81-1.96-2.19-1.96-2.19Z"/>
        <path class="cls-5" d="M28.67,27.02c-1.8,1.21-3.35-.38-2.8-1.81.04-.06.07-.12.08-.19-.97-.01-1.7-.08-2.2-.2-1.03-.26-1.12-.72-.24-1.39.49-.39,1.31-.86,2.45-1.41-2.07-.03-1.73-1.25,0-2h1.36c.39-.82.84-.8,1.36,0,.69.01,1.1.17,1.29.42.49.62-.3,1.78-1.29,2.58,4.19.24,3.61,2.89,0,4Z"/>
        <path class="cls-21" d="M15.44,35.23c2.21.47,3.21,1.87,2.98,4.2l-3.35,14.59c1.08.32,1.07.65,0,1,3.68-.41,3.53,1.13.25,2.08,1.56,1.77.66,2.29-1.64.93-1.68-3.2-1.18-6.62-1.3-10-1.06-2.79-1.45-6.27.03-9,0-2.69.39-5.42-.86-8-1.72-2.51-.96-3.14,2.29-1.88,2.8.29,3.34,2.32,1.61,6.09Z"/>
        <path class="cls-88" d="M27.54,39.19c3.01,1.83,2.34,2.73-1.36,1.82-.49.11-.78-.06-.93-.3.04,1.03-.67,2.32-1.93,2.31-1.67,1.03-2.69,1.45-3.2,1.36-.79-.12-.45-1.4.41-3.44-3.06-.39-2.64-1.28.34-1.84-.18-1.35-.11-2.45.2-3.29.05-.13.11-.25.16-.37.37-.73.97-1.22,1.8-1.49-1.95-.6-2.68-1.9-2.64-3.13.03-.65.26-1.28.65-1.78.14-.19.3-.35.48-.49l.44-.27h.01c.35-.19.75-.28,1.18-.25,0-.27.18-.55.5-.82h.01c.2-.18.48-.34.8-.51-1.81-1.12-1.93-1.8-.73-1.88.52-.05,1.25.02,2.2.2.84.71,1.74,1.39,2.72,2,1.17,2.43,1.09,6.47,0,9,2.19,2,1.81,3.05-1.13,3.17Z"/>
        <path class="cls-63" d="M25.95,25.02c-.21.66-1.05,1.06-1.48,1.68l-3.41,2.14c-.1,2.05-1.27,3.04-3.52,2.97.96,3.42.25,4.56-2.11,3.43-.56-2.03-.5-4.17-1.61-6.09.75-.53.6-1.44,1.15-2.01-3.9-2.35,3.6-6.56,5.34-3.25,0-1.71,1.26-2.14,2.91-.86.77-.46,1.91-.59,2.72-1-.3,1.01-1.1,2.12,0,3Z"/>
        <path class="cls-53" d="M18.24,33.2c3.57,1.35,3.75,3.11,2.64,5.89-.32.52.08,1.37-.34,1.85.2,1.99-.41,4.1-1.81,6.34.1,3.62-1.12,5.86-3.66,6.74-.55-6.28,2.09-12.62.37-18.79,1.3-.65,1.63-2.34,2.11-3.43,2.59-.43,2.95.33.69,1.4Z"/>
        <path class="cls-20" d="M23.32,43.02c-.75,2.95-2.04,5.89-3.88,8.84,1.42,2.35-1.91,5.88-4.38,3.16-.03-.27-.18-.77,0-1,3.06-4.06,1.99-9.12,5.47-13.08-.14.67-.13,1.62.77,1.94.64.23,1.44.15,2.02.13Z"/>
        <path class="cls-14" d="M24.48,26.7c1.68.65.95,2.42,1.48,3.32-1.03.18-1.19-.77-2.59-1.07-.03,2.15-.1,3.49-.33,5-.58,2.86-2.18,2.61-4.79-.75l-.69-1.4c.57-1.3.12-2.72,1.49-4.17,1.19-1.27,3.14-1.89,5.44-.93Z"/>
        <path class="cls-70" d="M20.6,52.04l-1.16-.18c-.84-3.39.67-6.29,3.88-8.84.84-1.29.63-2.87,1.95-4.04,1.22.86.5,1.59.91,2.03-.11.32-.04.69-.18,1,1.29,3.77.72,9.33-5.4,10.03Z"/>
        <path class="cls-63" d="M23.03,33.96c-.27,1.82-.3,3.76-2.15,5.14-.5-2.05-1.68-3.95-2.64-5.89,1.36.8,3.14.67,4.79.75Z"/>
        <path class="cls-84" d="M30.03,36.02h-1.36v-9h1.36c.95,1.93,2.31,7.45,0,9Z"/>
        <path class="cls-110" d="M25.95,30.02c1.96,2.12,2.98,5.6-1.34,7.12.37-2.89,2.1-4.84,1.34-7.12Z"/>
        <path class="cls-63" d="M19.15,21.02c.6.9,1.04,1.85,1.17,2.86-2.95-.65-3.82,1.69-5.34,3.25-.93-.23-1.82-.54-2.55-1.03-3-.04-3.39-.78-1.16-2.23-1.28-1.85,1.47-2.37,3.76-1.86-.32-1.62,2.52-2.2,4.11-.99Z"/>
      </g>
    </g>
    <g id="Head">
      <path class="cls-79" d="M40.31,7.77c.12-.69.3-2.93-.4-3.76S33.35-.12,31.21.28s-3.95.81-5.04,1.85c-1.08,1.05-2.59,2.67-2.62,4.41s.03,3.24-.31,4.87-2.59,4.22-2.71,4.91-1.55,3.65-.72,3.59,3.36.35,3.65,1.31,1.85,4.39,2.54,4.51,2.29,1.3,3.08.66,1.82-2.09,1.92-3.05-.57-1.97-.81-2.47.75-.97,1.86-.66,2.66.32,3.42-.33,1.54-2.59,1.65-3.22.63-.67.99-.48.88.54.95.1-.69-1.67-.64-1.98-.15-1.39-.04-1.69,1.92-4.85,1.92-4.85Z"/>
      <path class="cls-79" d="M22.29,18.08c.54,1.47.02,1.91-1.15.82l-.99-.17c1.07-2.35,3.27-3.88,3.14-6.57.43-.81.75-.75.99.17,3.54,1.22.86,5.75-1.99,5.75Z"/>
      <path class="cls-44" d="M26.43,5.6c2.33,1.06.64,4.47-1.49,2.79-.42.56-.69.17-.82-1.15.02-1.18.54-2.14,1.49-2.79.95-.31,1.19.12.82,1.15Z"/>
      <path class="cls-77" d="M24.94,8.39c2,.47,1.65,1.81-.08,2.61,1.73.93,1.39,1.57-.59,1.33l-.99-.17c-.08-1.64.8-3.29.83-4.93.3.29.81.68.82,1.15Z"/>
      <path class="cls-59" d="M27.91,2.81c2.65,1.03.93,3.73-1.49,2.79-.23-.41-.51-.8-.82-1.15.53-.37.03-2.14,1.09-1.97.28.26.9.12,1.22.33Z"/>
      <path class="cls-102" d="M31,1.09c1.33-.14,2.55.24,2.07,1.6,1.68,1.63.79,2.73-1.41,1.86.96,1.7.68,2.74-1.23,2.49-.02,2.84-1.2,3.97-3.52,3.38-.11,2.64-.49,2.73-2.04.58.03-.87.1-1.75.08-2.61,1.5-.14.85-2.07,1.49-2.79.79-.89,1.28-1.54,1.49-2.79.11-.66.56-1.12.88-1.49.44-.5,1.81-.39,2.21-.23Z"/>
      <path class="cls-40" d="M38.88,3.85l-.06.77c-.48,1.64-.74,1.22-1.16-.41-1.47.66-3.98.33-4.59-1.51-.72-.49-1.41-1.03-2.07-1.6-.02-.29.05-.56.21-.81,2.81.92,6.63.39,7.67,3.57Z"/>
      <path class="cls-81" d="M27.82,16.99c-.12.44-.29.85-.53,1.2-.16.24-2.52,2.81-3.5,3.03-.16-.32-.57-.49-.77-.79,0-.84-.16-1.71-.74-2.35,1.46-1.54,1.73-3.71,1.99-5.75.06-.46.57-.87.59-1.33.67-.14,1.35-.55,2.04-.58.12-.11.23-.22.34-.34,1.39-1.28,2.29-1.64,2.8-.82.26.42.41,1.16.48,2.25.16.22.27.44.36.68.77,2.05-.79,4.54-3.06,4.8Z"/>
      <path class="cls-75" d="M38.26,13.8c-.33,1.69-.93,3.3-1.87,4.75-.52.81-.98,2.17-2.13,2.28-1.73-.04-1.81-.75-.02-1.18l-.15-.73c-1.95-2.61-.39-6.9,3.13-6.41,1.08-.15,1.43.28,1.04,1.3Z"/>
      <path class="cls-8" d="M30.2,24.34c-.05,1.29-.41,1.97-1.12,2.05-.75.1-1.87-.5-3.38-1.79-.37-.49-.98-1.33-1.13-2.08.42-.81.75-.74.99.17.29-.49.65-.85,1.11-1.09.25-.15.53-.25.83-.31.4-.09.85-.12,1.35-.08-.38-.58-.54-1.01-.51-1.27.01-.25.18-.34.46-.28.28.06.69.29,1.19.71-.25.85.74,1.2.86,1.94l-.65,2.02Z"/>
      <path class="cls-17" d="M34.25,19.64l.02,1.18c-1.42.13-2.89-.24-4.28-.45-1.7-2.8,2.51-2.64,4.26-.73Z"/>
      <path class="cls-101" d="M39.83,9.66c-.62,2.6-1.5,2.3-1.81-.33-1.72.08-1.85-1.32-.41-4.22-.9-.21-.85-.51.05-.9.33.21.81.22,1.16.41,1.89,1.08,1.38,3.23,1,5.05Z"/>
      <path class="cls-11" d="M39.83,9.66c-.3,1.48-.07,3.23-1.57,4.14-.28-.48-.63-.92-1.04-1.3-2.6-.6-2.39-1.5.22-1.98-1.81-.81-1.42-1.56.58-1.19l1.81.33Z"/>
      <path class="cls-89" d="M35.81,5.26c3.15.74,1.67,4.26-1.84,4.19l-2.34,2.21c-.48.83-.85.79-1.11-.13-1.12-.56-2.33-1.13-3.62-1.09,1.91-1.73,2.43-4.55,4.75-5.87,1.33-1.13,3.29-.65,4.15.7Z"/>
      <path class="cls-62" d="M37.67,4.21c.02.29-.1.61-.05.9.38,1.7-.22,1.75-1.81.15-1.42.83-3,.39-4.15-.7.64-.37.86-1.39,1.41-1.86,1.73-.64,3.17.6,4.59,1.51Z"/>
      <path class="cls-105" d="M28.8,19.67c-.1.12-.26.22-.46.28-.32.09-.76.1-1.29-.05.24.24.38.5.46.77.06.21.05.42,0,.63-.04.25-.16.48-.33.67-.35.44-.94.73-1.61.72l-.99-.17c-.09-.47-.56-.89-.78-1.31,1.12-.98,1.45-4.11,2.38-4.37.58-.17,1.2-.01,1.65.15.73.23.88.5.45.86-.02.02-.04.02-.06.03-.11.07-.23.14-.33.22,1.04.48,1.27,1.16.91,1.57Z"/>
      <path class="cls-10" d="M37.44,10.52l-.22,1.98c-1.66,1.82-1.84,4.38-3.13,6.41-2.33-.1-4.4-.37-6.2-.81.15-.31-.16-.77-.07-1.11.56-2.07.98-4.1,2.7-5.48.31.16.77.02,1.11.13-.87-2.84,6.19-4.01,5.81-1.13Z"/>
      <path class="cls-81" d="M34.1,18.91c.03.24.15.48.15.73-1.59-.58-3.48-1.11-4.26.73-.19.36-.88.5-1.13.85-1.52,1.56-3.12.56-1.8-1.32l.85-1.8c2.1-1.48,4.29-.69,6.2.81Z"/>
      <path class="cls-106" d="M37.62,5.11c.22,1.4.52,2.8.41,4.22-.03.42-.53.78-.58,1.19-2.13-1.18-3.77.42-5.81,1.13.16-1.34-.99-2.33-.41-4.19,1.71,1.19,3.69,1.2,5.38-.33.74-.67.12-1.99-.79-1.87.6-.09,1.2-.14,1.81-.15Z"/>
      <g id="eye">
        <g>
          <path class="cls-22" d="M37.05,11.02c-.18-.28-.58-.73-1.1-.66s-.93-.09-1.18.05,0,.39.31.63,1.57,1.3,1.88,1.12.09-1.14.09-1.14Z"/>
          <path d="M37.04,11.02c-.41-.48-.81-.58-1.44-.46-.29.02-.63-.04-.72.04-.02.03.04-.06.02-.07.56.53,1.28,1.17,1.98,1.49.22-.14.17-.71.16-1h0ZM37.07,11.01c.48,2.22-1.14.68-1.98.06-.17-.15-.64-.46-.34-.68.28-.13.57-.03.85-.03.64-.09,1.11.09,1.46.66h0Z"/>
        </g>
        <g>
          <path d="M36.83,11.18c-.15-.29-.29-.34-.48-.25s-.27.29-.26.43.36.45.59.43.3-.37.29-.43-.15-.17-.15-.17Z"/>
          <path class="cls-22" d="M36.86,11.47c-.01.07-.09.13-.16.12s-.13-.08-.12-.13h.02c.09.02.17-.04.18-.11,0-.02,0-.04,0-.06.07.03.11.09.1.18Z"/>
        </g>
        <path class="cls-86" d="M37.32,10.64c-.13-.34-.19-.57-.34-.8-.31-.54-.99-.2-1.46-.05-.28.09-.57.23-.88.24.3-.05.55-.23.82-.37.53-.31,1.35-.71,1.83-.08.24.26.38.6.51.83.19.33-.36.59-.49.23h0Z"/>
      </g>
      <g id="eye-2" data-name="eye">
        <g>
          <path class="cls-22" d="M38.3,11.53c.13-.09.39-.22.59-.08s.4.15.47.26-.08.18-.26.23-.91.28-1,.14.2-.54.2-.54Z"/>
          <path d="M38.3,11.53c.26-.25.51-.23.78-.06.11.06.27.03.4.24.04.28-.22.28-.36.35-.57.16-1.59.34-.81-.53h0ZM38.31,11.54c-.11.16-.41.62-.02.57.27-.02.52-.1.78-.18.11-.04.3-.07.29-.19-.06-.12-.21-.14-.33-.2-.23-.17-.49-.19-.73,0h0Z"/>
        </g>
        <g>
          <path d="M38.36,11.65c.12-.1.19-.1.25-.02s.05.19.02.25-.24.14-.33.08-.05-.23-.03-.26.09-.05.09-.05Z"/>
          <path class="cls-22" d="M38.29,11.78s.01.08.04.09.07,0,.08-.03h0s-.06-.06-.05-.09c0,0,0-.02.02-.02-.03,0-.06.02-.08.06Z"/>
        </g>
        <path class="cls-86" d="M38.12,11.1c.77-.73.91-.06,1.38.47-.24-.16-.39-.43-.61-.58-.26-.16-.42.14-.6.31-.13.14-.33-.1-.16-.2h0Z"/>
      </g>
      <path class="cls-101" d="M38.4,14.13s-.08-.65-.08-1.18-.49-1.57-.47-1.76-.18.32-.24.62.12,1.95-.21,2.23-.87.44-.91.69-.05,1.06.2.94.52-.22.73-.12.56.31.71.22.22-.56.25-.7.01-.94.01-.94Z"/>
      <path class="cls-86" d="M23.97,4.76c.35.25,1.26.85,1.81.21s1.33-1.85,2.14-2.16,3.22-.82,4.15-.57,3.77.69,4.59,1.26,1.1,1.55,1.74,1.46,1.6-.26,1.66-.64-2.5-2.41-2.72-2.6S32.83,0,32.01,0c-.83,0-6.27,1.17-6.63,1.89s-1.41,2.87-1.41,2.87Z"/>
      <path class="cls-109" d="M26.57,9.73c.15.12.23.26.43.23.09,0,.18-.03.26.02.06.05.26.13.28.27-.09.14-.21.18-.33.21-.12.03-.23-.04-.33-.1-.23-.09-.34-.37-.35-.61,0-.02.02-.04.04-.03h0Z"/>
      <path class="cls-79" d="M26.6,9.69c0-.13.13-.47.24-.63s.56-.44.84-.45.69-.17.68-.2-.63-.41-.76-.46-.45-.09-.56-.04-.35.34-.38.45-.2.91-.2,1.02.14.31.14.31Z"/>
      <path class="cls-75" d="M28.47,8.48c-.1-.54-.33-1.09-.94-.94s-1.3.82-1.31,1.59-.32,1.5-.45,1.87-.11,1.02.73.64c0,0,.42-.27.3-.41s-.35-.11-.31-.47.1-1.32.15-1.58.14-1.12.49-1.2,1.3.61,1.3.61l.03-.12Z"/>
      <path class="cls-93" d="M25.98,4.34c1.73-3.82,8.13-2.64,10.8-.89.5.87,1.2,1.58,2.16,1.37,1.64-1.06-2.91-2.56-3.88-2.99-.95-.19-4.26-.74-4.56-.63s-3.03.41-3.71.86c-.78.74-1.92,1.99-.82,2.27Z"/>
      <path class="cls-60" d="M36.44,17.14c-.23-.09-.27,0-.46-.29s-.99-.44-1.34-.39-1.22.44-1.37.52-.19.13-.11.52.96.49,1.21.58.91.8,1.08,1.1.84-.03.86-.05.6-1.26.53-1.44-.39-.55-.39-.55Z"/>
      <path d="M36.44,17.42c-.17-.07-.2,0-.35-.22s-.75-.33-1.01-.29-.91.33-1.03.39-.14.1-.08.39.72.36.91.44.68.6.81.82.63-.03.65-.04.45-.95.4-1.08-.29-.41-.29-.41Z"/>
      <path class="cls-22" d="M34.78,16.96s.68.6.87.72.89.46.96.46.1-.36.1-.36l-.3-.47s-.77-.49-.8-.49-.84.14-.84.14Z"/>
    </g>
    <g id="front-arm">
      <path class="cls-15" d="M54.44,24.42c-2.17.77-7.6,2.49-10.09,2.94s-9.57,1.6-10.66,1.53-6.38-1.02-8.17-.64c-1.79.38-4.98,1.21-6.45,1.66s-1.91,1.21-4.91.77-3.13-.19-3.64-2.04-1.09-4.4-.13-5.55,1.66-2.11,3.06-2.36,5.49-.96,6.57-.32,2.74.83,3.77.83,3.96-.7,6.06-.7,5.04.13,5.87.51,3.77.32,5.55-.06c1.79-.38,6.83-.51,8.23-.32,1.4.19,4.02.13,5.49.06,1.47-.06,4.66-.89,4.02.13s-1.77.96-2.67,1.79-1.92,1.79-1.92,1.79Z"/>
      <g>
        <path class="cls-36" d="M15.99,29.53c.96-.29,4.79-1.15,7.18-1.34,2.39-.19,8.62,1.29,9.14.72s.29-3.16-.53-3.78-4.6.72-6.89-.19c-2.3-.91-6.03-1.53-7.8-1.68s-4.26.24-4.5.77-.19,2.82.05,3.78,1.34,1.72,2.3,2.01,1.05-.29,1.05-.29Z"/>
        <path class="cls-33" d="M13.18,27.45c-1.87.88-1.24,2.42.85,2.01.61.58,1.16,1.22,1.68,1.88.14-.39.53-.73.6-1.13.31-1.83,2.24-1.87,3.81-1.87.87-.28.86-.62,0-1-1.14-1.47-3.6-2.54-5.07-.93-1.4-1.25-2.19-.82-1.87,1.03Z"/>
        <path class="cls-12" d="M17.04,21.65c-1.62.84-1.27,1.88.37,2.34-1.33,2.24,1.97,3.1,3.71,2.23.12.94.46.96.99.13l-.23-1.93c-1.62-.08-2.63-1.52-2.77-3.07-.77-.84-1.54-.75-2.08.3Z"/>
        <path class="cls-99" d="M21.12,26.21c-1.41-.28-1.91-.05-1.01,1.13v1s4,0,4,0l-1-2c-.33-.03-.67.05-1,0s-.69-.02-.99-.13Z"/>
        <path class="cls-76" d="M15.05,26.42c1.45,1.07,3.33.97,5.07.93.56-.01.98-.62,1.01-1.13-1.35-.49-2.64-1.3-3.71-2.23-.67-1.84-1.39-1.76-1.51.21-.52.48-.89,1.45-.85,2.23Z"/>
      </g>
      <g>
        <path class="cls-83" d="M62.75,19.46c-1.02-.03-5.7.94-6.37.84s-6.58.5-7.39.37-4.45-.06-5.47-.09c-1.02-.03-3.94.5-4.69.82s-2.48,1.9-2.15,2.42.27,1.24,1.35,1.67c1.08.44,14.1.09,14.93-.32s6.39-1.82,7.24-2.12c.85-.3,2.98-1.06,3.17-1.9s-.6-1.7-.6-1.7Z"/>
        <path class="cls-114" d="M66.99,20.58c.39.4.31.72-.22.98-.47.79-.79.71-.98-.22-.64,1.45-2.35.77-2.93-.65-1.42,1.44-3.6.37-1.74-1.41,1.21.35,2.07.1,3.15-.34,1.31-.54,2.08,1.07,2.71,1.64Z"/>
        <path class="cls-115" d="M68.29,23.94c-.22.61-.16,1.37-.43,1.95-1.18,1.87-1.91,2.05-2.17.54-1.72-.41-1.47-2.18.43-1.95-.41-.92,0-2.06.65-2.93l.22-.98c1,.9,1.84,1.86,1.3,3.36Z"/>
        <path class="cls-45" d="M62.86,20.69c.79.47.71.79-.22.98-.79,2.68-6.31.59-8.04-.98l4.26-.94c.66-.15,1.6-.64,2.26-.47,0,.94.96,1.24,1.74,1.41Z"/>
        <path class="cls-74" d="M66.12,24.48c-.64,1.95-2.44,1.38-2.93-.65-.88-.45-.78-.77.22-.98.43-1.07,1.48-1.38,2.39-1.52l.98.22c.21.54.4,1.09.38,1.79-.01.51-.66.79-1.03,1.14Z"/>
        <path class="cls-97" d="M65.79,21.34c-.07.41-.13.96-.45,1.34-.45.54-1.32.4-1.93.18-1.32.44-1.64-.14-.76-1.19l.22-.98,2.93.65Z"/>
        <path class="cls-57" d="M66.12,24.48l-.43,1.95c-.65.33-1.51.8-2.27.38-2.58-.57-2.36-1.52-.22-2.98l2.93.65Z"/>
        <path class="cls-24" d="M63.41,22.86c-.1.27-.27.71-.22.98-1.06-.06-2.15-.02-3.17.31-2.19.11-3.41-.4-3.66-1.52-.66-.13-1.27-.68-1.96-.75.09-.4.16-.8.21-1.2,2.61.71,5.48,2.37,8.04.98.69.02.98.57.76,1.19Z"/>
        <path class="cls-36" d="M60.02,24.15c-1.05.34-2.1.72-3.1,1.21-.22-.32-1.09-.72-1.43-.53-.18-.81.49-1.5.87-2.2,1.23.24,3.41-.1,3.66,1.52Z"/>
        <path class="cls-15" d="M44.01,22.57c2.89-.1,4.84.36,5.84,1.37.37-1.85,1.17-1.64,1.19.34,1.91.57,1.13,1.42-.64,1.83-.43.82-.76.73-.98-.22-1.84,1.1-4.2,1.05-6.29.65-1.45,0-3.1-.02-4.96-.07-1.14-.25-1.2-1.54-.54-2.45.4-.55,1.29-1.07,2.1-1.32,1.41-1.28,3.37-1.98,4.28-.14Z"/>
        <path class="cls-83" d="M50.28,21.99l-.43,1.95c-2.06-.58-4.79.9-5.84-1.37l2.16-.47c.75-.16,1.47-.22,2.17-.54.59-.07,1.34.42,1.95.43Z"/>
        <path class="cls-54" d="M54.61,20.69c.87.4.75.8-.21,1.2,1.65,2.03-2.05,4.45-3.37,2.4l-1.19-.34c-2.52-.89-2.21-1.76.43-1.95,1.03-1.69,2.79-.97,4.33-1.31Z"/>
        <path class="cls-52" d="M44.36,20.61c1.59-.61,2.78-.07,1.8,1.5.13,1.37-1.08,1.18-2.16.47-1.42-.29-2.86-.09-4.28.14.62-1.94,2.73-2.51,4.64-2.1Z"/>
      </g>
    </g>
  </g>
</svg>