<?xml version="1.0" encoding="UTF-8"?>
<svg id="Enemy" xmlns="http://www.w3.org/2000/svg" viewBox="0 0 107.52 64.62">
  <defs>
    <style>
      .cls-1 {
        fill: #471925;
      }

      .cls-2 {
        fill: #181818;
      }

      .cls-3 {
        fill: #fcc39a;
      }

      .cls-4 {
        fill: #7b655e;
      }

      .cls-5 {
        fill: #c4825c;
      }

      .cls-6 {
        fill: #602492;
      }

      .cls-7 {
        fill: #691cb1;
      }

      .cls-8 {
        fill: #560b98;
      }

      .cls-9 {
        fill: #6a4937;
      }

      .cls-10 {
        fill: #2e2d2e;
      }

      .cls-11 {
        fill: #a09d98;
      }

      .cls-12 {
        fill: #f6e3db;
      }

      .cls-13 {
        fill: #f2aa96;
      }

      .cls-14 {
        fill: #3d0969;
      }

      .cls-15 {
        fill: #523d35;
      }

      .cls-16 {
        fill: #60473a;
      }

      .cls-17 {
        fill: #eab997;
      }

      .cls-18 {
        fill: #eda280;
      }

      .cls-19 {
        fill: #a36d52;
      }

      .cls-20 {
        fill: #ddaa94;
      }

      .cls-21 {
        fill: #333538;
      }

      .cls-22 {
        fill: #3e3e3e;
      }

      .cls-23 {
        fill: #5b1599;
      }

      .cls-24 {
        fill: #8803f1;
      }

      .cls-25 {
        fill: #6e3e23;
      }

      .cls-26 {
        fill: #e7957f;
      }

      .cls-27 {
        fill: #5b109e;
      }

      .cls-28 {
        fill: #090909;
      }

      .cls-29 {
        fill: #7105d6;
      }

      .cls-30 {
        fill: #58228d;
      }

      .cls-31 {
        fill: #52281a;
      }

      .cls-32 {
        fill: #c1a08f;
      }

      .cls-33 {
        fill: #845947;
      }

      .cls-34 {
        fill: #501b81;
      }

      .cls-35 {
        fill: #cd8c6f;
      }

      .cls-36 {
        fill: #1d1b1e;
      }

      .cls-37 {
        fill: #f3caa4;
      }

      .cls-38 {
        fill: #7806db;
      }

      .cls-39 {
        fill: #a37367;
      }

      .cls-40 {
        fill: #1a1109;
      }

      .cls-41 {
        fill: #461277;
      }

      .cls-42 {
        fill: #b77048;
      }

      .cls-43 {
        fill: #620faa;
      }

      .cls-44 {
        fill: #b4775d;
      }

      .cls-45 {
        fill: #090908;
      }

      .cls-46 {
        fill: #caaca2;
      }

      .cls-47 {
        fill: #2f2522;
      }

      .cls-48 {
        fill: #9e7869;
      }

      .cls-49 {
        fill: #5e1b97;
      }

      .cls-50 {
        fill: #efb895;
      }

      .cls-51 {
        fill: #a1816d;
      }

      .cls-52 {
        fill: #886b5e;
      }

      .cls-53 {
        fill: #372a50;
      }

      .cls-54 {
        fill: #dfa27f;
      }

      .cls-55 {
        fill: #6d5350;
      }

      .cls-56 {
        fill: #4a200e;
      }

      .cls-57 {
        fill: #230d01;
      }

      .cls-58 {
        fill: #c19d81;
      }

      .cls-59 {
        fill: #7811d1;
      }

      .cls-60 {
        fill: #56099d;
      }

      .cls-61 {
        fill: #fecea8;
      }

      .cls-62 {
        fill: #b2817d;
      }

      .cls-63 {
        fill: #201f22;
      }

      .cls-64 {
        fill: #323133;
      }

      .cls-65 {
        fill: #361459;
      }

      .cls-66 {
        fill: #725241;
      }

      .cls-67 {
        fill: #664535;
      }

      .cls-68 {
        fill: #ae856e;
      }

      .cls-69 {
        fill: #9901fe;
      }

      .cls-70 {
        fill: #51158e;
      }

      .cls-71 {
        fill: #f4b086;
      }

      .cls-72 {
        fill: #25211c;
      }

      .cls-73 {
        fill: #d29a7b;
      }

      .cls-74 {
        fill: #efe9ce;
      }

      .cls-75 {
        fill: #de9573;
      }

      .cls-76 {
        fill: #8b04f0;
      }

      .cls-77 {
        fill: #410c71;
      }

      .cls-78 {
        fill: #ad8067;
      }

      .cls-79 {
        fill: #40146e;
      }

      .cls-80 {
        fill: #2e0902;
      }

      .cls-81 {
        fill: #432131;
      }

      .cls-82 {
        fill: #847570;
      }

      .cls-83 {
        fill: #7103b5;
      }

      .cls-84 {
        fill: #7b05dd;
      }

      .cls-85 {
        fill: #6712b4;
      }

      .cls-86 {
        fill: #4b1281;
      }

      .cls-87 {
        fill: #9a6c52;
      }

      .cls-88 {
        fill: #512f20;
      }

      .cls-89 {
        fill: #d9a287;
      }

      .cls-90 {
        fill: #c5a18e;
      }

      .cls-91 {
        fill: #5a1892;
      }
    </style>
  </defs>
  <g id="DivaMohawk">
    <path class="cls-10" d="M96.02,2.01c1.2-.34,2.46-.6,3.71-.65,3.16.07,7.57.16,4.13,3.59-.34.02-.72.12-1.04.24-1.17.44-2.75.42-3.8,1.19-3.13,1.68-4-.3-1.27-2.44-.61.91-1.28,1.54-2.08.58-.96-.09-1.02-.42-.23-.98l.57-1.52Z"/>
    <path class="cls-45" d="M103.86,4.95c.04-2.33-2.76-2.14-4.13-3.59,1.83-.08,4.81-2.35,6.77-.83,2.06,1.59-.91,4.3-2.65,4.43Z"/>
    <path class="cls-85" d="M87.85,6.71l7.6-3.18c-.11.28.21.66.23.98.52,1.01.88,2.29.39,3.3-.24.58-.56,1.12-.97,1.6-.08.9-.39.92-.91.12-1.9.56-3.63,1.84-5.19,3.83l-.98-.76c-2.33.97-2.55.79-2.07-1.7-.9-.31-.89-.69,0-1.14-2.03-2.37-1.08-3.81,1.91-3.06Z"/>
    <path class="cls-53" d="M95.68,4.51c.9-.55,2.58-1.84,3.07-.49-.09.49-1.09,1.27-1.36,1.47-.35.27-.62.8.13.99.62.16,1.15-.08,1.51-.11-.9.67-1.62,1.66-2.96,1.44-.41-.49-.84-.99-1.02-1.73-.12-.51.18-1.13.63-1.57Z"/>
    <path class="cls-86" d="M86.77,52.8c1.24-.24,2.59.55,4.06,2.35l2.78,1.36c1.85.06,3.67,1.09,5.57.82l.03.79c-.05,1.12-.85,1.95-2.4,2.47,1.93.33,1.78,1.08-.22,1.17-3.89-1.23-7.99-2.27-11.81-3.92-2.64-.04-7.17-3.26-6.37-5.7-.92-1.01-.09-1.6,2.49-1.74,2.78,2.96,4.73,3.76,5.87,2.41Z"/>
    <path class="cls-36" d="M99.22,58.12c1.04-.03,2.06.37,2.63,1.26,1.06,1.13.52,1.13-.96,1.03.41,2.43-2.78,1.48-4.06.18-.1-1.44,1-2.43,2.4-2.47Z"/>
    <path class="cls-28" d="M101.84,59.38l4-.14c.84.23.77,1.45.07,2-.64,2.88-4.75,2.1-5.03-.82.09-.43.47-1.02.96-1.03Z"/>
    <path class="cls-22" d="M105.91,61.24l-.07-2,1-.03c.9.94.87,3.77.17,5-.32.05-.69.02-1,.13-2.89.01-2.79-2.32-.11-3.09Z"/>
    <path class="cls-38" d="M71.47,20.42c.76.19,2.36-.58,2.96-1.1,1.8-.41,3.49-.94,5.06-1.58-.55-2.94,3.27-7.4,6.45-6.83.87.31,1.69.84,2.07,1.7.79,2.25-3.03,6.47-5.73,6.53,1.13,1.17.6,1.65-1.02,1.12-2.42,1.72-5.27,3.02-8.54,3.89l-2.18-1.7c-1.66-1.07-.68-1.5.93-2.03Z"/>
    <path class="cls-77" d="M88,12.61c2.75-.79,4.39-5.66,6.18-3.07-2.77,2.58-5.46,5.31-7.52,8.49-.14.22-.09.56-.2.79l-2.22.91c-1.05,1.65-2.13,1.4-1.97-.59,1.87-2.27,4.26-3.93,5.73-6.53Z"/>
    <path class="cls-49" d="M78.32,16.09c1.2-1.63,1.9-3.78,3.68-5,1.14-.77,2.64-1,3.94-1.32-.1.35.03.78,0,1.14-3.01,1.32-5.07,3.87-6.45,6.83-2.57.94-2.9.47-1.18-1.65Z"/>
    <path class="cls-65" d="M82.83,48.55c-1.48-1.23-.99-1.81.86-1.1,1.02,1.46,2.76,2.26,3.96,3.39l5.97,5.67c-3.09-.09-2.26.52-6.84-3.71-2.76,1.39-6.32-1.68-3.95-4.25Z"/>
    <path class="cls-34" d="M80.58,45.23c.51.04,1.02.03,1.53-.04l1.58,2.25-.86,1.1c-.12,1.93-.88,1.87-1.42-.05-1.94,1.37-2.49.42-.9-1.38-1.76-.81-1.87-1.54.08-1.88Z"/>
    <path class="cls-2" d="M96.82,60.59l4.06-.18c1.54.85,3.3,1,5.03.82l.11,3.09c-3.63,1.2-6.51-1.65-9.42-2.57,0-.38.24-.78.22-1.17Z"/>
    <path class="cls-43" d="M81.41,48.5l1.42.05c.62,1.9,2.51,2.93,3.95,4.25,3.05,9.37-8.47-3.78-8.36-.66-.5.04-1.26-.51-1.8-.56-3.15-2.36,2.33-4.49,4.79-3.08Z"/>
    <path class="cls-59" d="M78.32,16.09c.34.58.73,1.14,1.18,1.65-.45.96-1.59,2.08-2.83,2.18-.72.05-1.97.74-2.23-.6,1.08-.95,2.99-2.01,3.89-3.22Z"/>
    <path class="cls-6" d="M80.95,21.96c.8-.45,1.03-.22.71.66l-.88,2.31c-1.16.04-2.14.57-3.13,1.09-1.04,1.26-2.32,2.27-3.59,1.12-2.04-3.54,3.98-6,6.9-5.18Z"/>
    <path class="cls-30" d="M81.26,20.26c.24-.41.71-.75,1.02-1.12.66-.06,1.37.57,1.97.59-.46,1.27-1.29,2.39-2.57,2.9l-.71-.66c-1.96-.61-1.79-1.48.3-1.7Z"/>
    <path class="cls-76" d="M70.54,22.45c3.7-.09,6.93-3.12,10.72-2.19-.29.49-.22,1.17-.3,1.7-1.97,2.21-5.49,2.51-6.9,5.18-.04,1.48-.71,1.59-1.35.23-4.7.41-9.32,2.05-13.87,4.92l-.99-.53c-2.85,2.57-5.18,2.7-6.98.38-.89.52-1.55-.18-1.96-2.1-.42.81-.78.78-1.08-.08-.82-.12-.79-.39,0-.78-.09-.72-.11-1.33.17-1.53.5-.36,10.13-4.43,11.15-4.75,2.75-.85,9.35-1.7,11.38-.45Z"/>
    <path class="cls-8" d="M47.37,26.25c.88-.86,2.25-1.49,4.11-1.89,2.06-2.76,10.37-4.58,13.03-2.7,1.75-.34,5.3-1.66,6.96-1.24.06.8-.63,1.35-.93,2.03-12.9.33-11.35,1.89-22.71,6.72-3.08.27-2.34-1.12-.46-2.92Z"/>
    <path class="cls-70" d="M66.51,40.67c3.74.26,7.02,2.2,10.54,3.38.88.17.82.46-.07.85-2.51.73-7.83-.07-10.5-1.15-.45-.18-.23-1.41.02-2.22-.78-.17-.74-.46,0-.86Z"/>
    <path class="cls-27" d="M57.03,36.93c-.25-1.91,1.39-2.23,2.01-.33,2.24,1.29,4.48,2.77,7.09,3.01l.38,1.06c.09.26-.04.58,0,.86-1.48,2.7-6.56,1.4-6.37-1.71-1.73,1.3-4.25-1.11-3.1-2.89Z"/>
    <path class="cls-7" d="M77.05,44.05c1.15.39,2.66.04,3.54,1.18l-.08,1.88c-1.22,2.04-2.54,1.39-3.14-.89-1.33-.31-1.56-.49-.39-1.32-.08-.26.09-.57.07-.85Z"/>
    <path class="cls-24" d="M57.84,31.76c-2.62,2.87-2.47,8.91,2.29,8.06,1.96.72,4.42,1.18,6.37,1.71,2.94,2.37,6.78,2.76,10.48,3.37l.39,1.32q-7.69,1.24,0,0c1.09.09,2.16.45,3.14.89l.9,1.38c-.7,1.89-4.75.71-4.79,3.08-.3-.03-.62-.04-.91-.11-.89-.28-1.29-.66-1.2-1.14-2.44-.3-4.78-.55-7.03-.76-.42.86-1.21.67-2,.07-3.95.15-7.72-.56-11.33-2.14l-.03-1.59c-3.06-.45-3.76-3.05-2.1-7.78-1.01-1.28-1.38-2.94-1.12-4.99-.85-.25-.85-.58-.03-1,2.27-.91,4.65.08,6.98-.38Z"/>
    <path class="cls-39" d="M36.82,29.64c2.69.37,5.04-.04,7.04-1.22-1.39-2.63,1.43-4.15,3.5-2.17l.46,2.92c.04.23.09.57,0,.78-2.19,4.12-4.12,4.91-5.8,2.37-.48,2.91-2.43,3.01-3.29.22,0,2.61-1.01,2.52-1.86.08-2.12,1.93-3.09-1.52-2.12-3.3.38-2.82,1.66-2.34,2.07.32Z"/>
    <path class="cls-29" d="M57.84,31.76c.77-.48,15.33-8.15,14.87-4.39l-1.96,1.07c-2.6,1.67-5.27,2.83-8.02,3.47-2,1.33-3.9,3-5.69,5.01.2,1.53,1.65,2.36,3.1,2.89.08,1.39-1.49,1.2-2.42,1.04s-1.03-1.11-1.5-2.02c-1.53-2.93-.87-5.5,1.63-7.07Z"/>
    <path class="cls-13" d="M47.82,29.96c.33.09.77-.07,1.08.08,1,1.5,1.43,3.4,1.17,5.21,2.38,1.22,2.67,3.03-.03,4.01l-1.46.26c-.47-1.3-1.32-2.11-2.57-2.44,0,.98-.33,1.05-.97.26l-1.23-.07c-2.09-.28-2.09-.49.01-1.03.33-2.72,1.92-4.6,4-6.29Z"/>
    <path class="cls-83" d="M48.9,30.04c.88.43,1.55,1.22,1.96,2.1.13.27,0,.7.03,1,1.01,3.01.73,3.71-.83,2.11-1.14-1.49-1.37-3.38-1.17-5.21Z"/>
    <path class="cls-79" d="M70.74,28.45l-1.02,1.89-5.78,2.44c-2.11.77-2.52.49-1.21-.86,2.54-1.6,4.78-4.07,8.02-3.47Z"/>
    <path class="cls-41" d="M62.73,31.92c-.38.8.71.76,1.21.86-1.87.79-3.8,1.98-4.9,3.82l-2.01.33c-.09-.69-1.28-1.23-.35-2.24,1.76-1.92,4.31-1.68,6.04-2.77Z"/>
    <path class="cls-84" d="M50.04,39.26c.1-1.34.12-2.68.03-4.01,1.09.13.65-1.44.83-2.11.19,1.64,1.17,2.5,2.44,3.59,2.37,2.04-3.33,6.29.78,9.19.24,2.67-4.85.83-4.69-1.46-2.51-1.19-1-3.78.61-5.19Z"/>
    <path class="cls-69" d="M77.37,46.22c2.06,3.53-21.67.7-21.7-1.71l21.7,1.71Z"/>
    <path class="cls-23" d="M49.43,44.46c1.09,1.48,2.95,2,4.69,1.46,4.56,4.55,11.05,1.59,11.36,3.73-1.45.38-3.11.77-4.96,1.17-.33.03-.68-.05-1,.03-3.98-.59-7.71-1.46-11.18-2.63l-.25-2.92c-.85-1.67-.12-2.08,1.34-.85Z"/>
    <path class="cls-14" d="M65.48,49.64c.65-.06,1.35-.14,2-.07.88.25.88.59.03,1l-6,.21c-.33.01-.67,0-1,.03.89-1.74,3.31-1.02,4.96-1.17Z"/>
    <path class="cls-60" d="M74.51,50.33c-1.27,1.06-4.2.82-6,.21l-1,.03-.03-1c2.33.25,5.36-1.22,7.03.76Z"/>
    <path class="cls-91" d="M74.51,50.33c.53-.02,1.02.73,1.2,1.14-2.38-.54-5.48,1.07-7.19-.93l6-.21Z"/>
    <path class="cls-20" d="M28.25,14.92c.62-.88,2.06-.98,4.31-.29l2.09-.28c.26-.12.5-.1.73.09-.21.31.05.89-.1,1.23,2.11,1.25.29,6.62-1.89,4.88-1.86,1.28-2.62.69-2.27-1.75-2.36,1.15-3.23.62-2.81-1.97-2.66-.36-2.59-.93-.07-1.92Z"/>
    <path class="cls-51" d="M33.39,20.56c2.2-.58,2.42-2.93,1.89-4.88,1.16-.06,2.01.56,1.79,1.36l-1.01,3.76c-1.07,1.41-2.1,2.77-3.38,3.99-1.44,1.37-2.05,1.27-1.8-.3-1.48-1.6.88-3.91,2.52-3.93Z"/>
    <path class="cls-40" d="M25.84,32.01c-1.4-1.54-.85-2.14.96-1.03.5-1.62,2.42-2.41,4.01-2.44,1.37-.06,2.66.59,3.94.78.4,1.28,1,2.52,2.12,3.3,1.63,1.26,1.09,2.25-.98,2-.14,3.24-2.93,4.94-3.73,1.43-.33-.85-.23-2.12.3-3.8l-1.72-.29c-.72,1.6-2.44,3.62-3.72,5.01-3.52,2.99-4.85-4.24-1.17-4.96Z"/>
    <path class="cls-75" d="M38.73,32.55c1.09-.05,2.22-.02,3.29-.22,2.85-.58,3.93,2.09,1.8,3.92-.56.32-.5.67-.01,1.03-.76,2.51-3.43,2.42-4.41-.1-2.02-1.48-3.05-3.08-.67-4.62Z"/>
    <path class="cls-3" d="M47.82,29.96c-1.08,2.56-.67,6.29-4,6.29-.77-1.22-1.17-2.63-1.8-3.92,2.08-.38,3.89-1.52,5.8-2.37Z"/>
    <path class="cls-71" d="M35.9,34.63c.16-.71.77-1.3.98-2l1.86-.08.67,4.62c-1.47,1.48-2.37.92-3.34-.56-1.28.13-1.33-.54-.17-1.99Z"/>
    <path class="cls-26" d="M46.57,39.91c-1.75-.7-2.09-1.65-.56-2.82.6-.41,1.61-1.2,2.37-.64.89.66.92,2.09,1.66,2.82.07,1.76.11,3.56-.61,5.19-.37.39-.83.67-1.34.85-.72-.85-1.9-1.4-2.84-1.96-.88-.25-.88-.59-.03-1,.13-.86.58-1.67,1.35-2.44Z"/>
    <path class="cls-5" d="M35.97,38.91c-2.8-.29-2.56-1.68.1-2.29,1.06-1.33,2.26.08,3.34.56,1.41.1,2.99-.25,4.41.1.38.09.84.08,1.23.07,1.29,1.31-.32,2.33-1.73,2.83,1.21,1.95-3.42,2.3-4.17.37l-1,.4c-.1-1.52-.46-1.6-1.08-.24-1.48.37-2.94-.72-1.1-1.8Z"/>
    <path class="cls-61" d="M45.04,37.35c.28-.01.74-.12.97-.26.62.85,1,1.86.56,2.82-.74,1.68-2.4,1.96-3.25.27-.13-1.25.72-2.2,1.73-2.83Z"/>
    <path class="cls-44" d="M20.16,41.22c1.55-1.35,2.96.09,4.24,4.32l2.85,2.21c1.28-.39,2.66.31,2.2,1.77-.6.3-1.48,0-2.13.18-1.78,1.97-3.7,1.56-4.75-.83-.32-1.19-2.27-2.16-2.29-3.5-.91-.76-.95-2.14-.12-4.15Z"/>
    <path class="cls-81" d="M41.47,50.4c-.98-1.78.32-3.04,2.02-1.91.67,1.29,2.06,2.36,2.05,3.88,1.24.63,1.35,1.3-.02,1.66-.79,2.54-1.86,2.89-3.98,1.27-.32-1.62-1.12-3.41-.07-4.9Z"/>
    <path class="cls-11" d="M45.52,54.03l.02-1.66,1.96.68c-.58,3.11,2.02,4.15,4.24,5.95-.67.83-1.84,2.01-3.38,1.96-.91-.03-1.17-2.42-2.42-2.8-.95-1.37-1.09-2.75-.41-4.12Z"/>
    <path class="cls-68" d="M38.48,43.93c.05-.87.34-.88.85-.1.75-.71,2.09-.69,2.83.07.25.4,0,1.19.32,1.53.37,2.44-1.58,5-3.81,3.16-.61-.04-1.41-.49-2.02-.26-.89-.12-.89-.41-.07-.86-1.25-1.51-.11-3.58,1.9-3.55Z"/>
    <path class="cls-47" d="M28,46.84c.11-1.03,1.15-1.11,3.12-.24,3.1-.87,4.92-.58,5.46.88l.07.86c-2.34.91-4.91.02-7.19,1.18-.84-.44-1.61-1.02-2.2-1.77-.58-.85-.32-1.14.74-.91Z"/>
    <path class="cls-55" d="M41.54,55.3c1.17-.82,2.54-1.31,3.98-1.27.77.47,1.77,1.48,1.58,2.65-.09.54-.59.98-1.17,1.47-.89-.27-2.2.64-3.18-.18-.75-.63-1.01-1.66-1.21-2.67Z"/>
    <path class="cls-52" d="M42.48,45.44c.78.83.52,2.14,1,3.05-.63.65-1.49,1.16-2.02,1.91-1.19-.09-2.25-.73-2.8-1.8,1.92.13,2.3-2.28,3.81-3.16Z"/>
    <path class="cls-25" d="M40.22,42.52c.56-1.12,4.58-1.95,5-.17l.03,1c-.99.26-2.13.18-3.09.57s-1.98.75-2.83-.07c-1.3-1.41-.88-2.08.89-1.32Z"/>
    <path class="cls-90" d="M16.01,13.46c1.17-.34,2.23-.41,3.18-.22,1.76.26,2.24,2.01,1.07,3.27-.99.98-2.8,2.19-3.81,1.07-1.31-1.45-1.47-2.86-.44-4.12Z"/>
    <path class="cls-62" d="M19.19,13.24c.27-.71.6-.71,1-.03l1.94-.03c2.86-.2,2.73,2.12,0,2.8-.59-.11-.8-.23-1.04.45l-.83.08c-.83-.89-1.16-2.07-1.07-3.27Z"/>
    <path class="cls-32" d="M20.15,12.2l.03,1-1,.03c-.47.36-1.04.71-1.67.82-.46.08-1.72.38-1.51-.6,1.06-1.3,2.42-1.47,4.14-1.26Z"/>
    <path class="cls-1" d="M22.12,13.17c.32,0,.66-.12.98-.07,2.07-.87,3.76-.93,5.08-.18,1.7.88,2.02,1.54.07,2l.07,1.92c-2.09-.11-4.14-.47-6.19-.88v-2.8Z"/>
    <path class="cls-48" d="M28.18,12.92c2.02.9,4.17,1.15,6.4.66.6.17.53.44.07.77-1.7,2.41-4.18-.06-6.4.57l-.07-2Z"/>
    <path class="cls-82" d="M26.57,27.81c.35-.82.73-.83,1.13-.03,1.44-1.17,2.17-1.14,2.18.11l.94.66c-.63,2.66-2.11,2.28-4.01,2.44-3.54.55-3.8-3.18-.24-3.17Z"/>
    <path class="cls-87" d="M30.88,24.49c.61.06,1.21.16,1.8.3-.98.94-1.33,2.62-2.81,3.1l-2.18-.11c-1-1.73,1.09-4.44,3.18-3.29Z"/>
    <path class="cls-50" d="M27.45,22.8c1.45-1.31,4.48-1.65,3.67-3.99.76.56,2.11.56,2.27,1.75-.57,1.46-1.49,2.74-2.52,3.93s-2.35,1.99-3.18,3.29c-.35-.02-.82.16-1.13.03-1.26,1.51-1.83,1.01-.88-.77-.32-.98.27-2.39,1.76-4.24Z"/>
    <path class="cls-37" d="M22.13,36.06c-1.57-3.18,0-8.64,3.72-4.05-1.26,1.65-.7,4.08,1.17,4.96.21-.91.54-.96,1-.14,1.94.18,2.06,1.37.06,1.82-1.02.72-1.36,1.81-1,3.26.89.23.9.57.06,1.01-.21,2.75-.93,4.15-2.18,4.2-2.83-4.19-3.78-7.88-2.83-11.06Z"/>
    <path class="cls-54" d="M20.98,34.2c-1.72-1.85-1.15-4.28,1.69-7.28.32-.02.67-.2,1-.15,1.54-1.36,2.21-1.27,2.03.27.31.2.54.62.88.77-.71,1.01-.57,2.26.24,3.17-.49.04-.73.72-.96,1.03-1.17.48-2.1.16-4.2.36,2.22,1.12.31,2.75.49,3.69-.23.89-.57.9-1.02.06-1.7-.42-1.69-1.14-.14-1.92Z"/>
    <path class="cls-21" d="M30.74,31.96c3.6-.73,1.09,4.74-1.74,4.85-.22.85-.55.84-.98.02-.33,0-.66.12-1,.14-.1-1.21-.46-2.59.43-3.89.61-.9,2.22-.74,3.29-1.12Z"/>
    <path class="cls-16" d="M30.89,37.11c-.96-.83.23-1.89,1.28-1.06,1.49.65,2.92-.1,3.73-1.43-.14.62.2,1.36.17,1.99l-.1,2.29c.84,2.55-2.29,2.2-3.53.8-2.9,1.91-4.2-.98-1.55-2.6Z"/>
    <path class="cls-63" d="M30.74,31.96c.59-.21.66-1.86,1.61-1.54,1.03.34,1.67.99,1.56,2.37-.12,1.49-1.23,2.31-1.74,3.26l-1.28,1.06c-.56,2.62-1.49,2.32-1.89-.3,1.28-1.22,3.02-3.21,1.74-4.85Z"/>
    <path class="cls-42" d="M39.15,40.55c1.4.52,3.09.71,4.17-.37,1.09-.03,2.17-.13,3.25-.27.62.2,2.3.61,1.06,1.28-.83.45-1.57.77-2.41,1.16l-5,.17c-1.3,1.59-2.86-.89-1.07-1.96Z"/>
    <path class="cls-57" d="M27.14,42.93c1.66-2.35,2.4-1.69,2.2,1.97,3.45-.68,4.75-1.72,3.9-3.11-1.72-.57-2.25-.83-.81-2.08,1.21-.1,2.41-.32,3.53-.8-.04.82.87,1.21,1.1,1.8,1.42.14,2.18,2.09,1.41,3.22-.12,1.4-1.12,2.44-1.9,3.55-2.85-.72-5.84.5-8.58-.64-2.81,1.74-3.09.44-.86-3.91Z"/>
    <path class="cls-89" d="M37.07,40.71c.08-.36-.04-.79-.01-1.17.07-.85.6-.91,1.01-.58.37.3.62,1.43,1.08,1.6-.13.79.05,2,1.07,1.96l-.89,1.32c-.28.06-.57.09-.85.1-.76-.94-.98-2.13-1.41-3.22Z"/>
    <path class="cls-88" d="M2.06,42.84c.27-.88.6-.87,1,0,.25-1.66,1.04-1.4,2.36.79.28-2.63,4.18-2.24,4.72.04,1.38-.61,2.8-.82,3.07.78-1.34,1.52-2.95,2.9-5,3.22-2.46-1.88-6.38-.82-6.14-4.84Z"/>
    <path class="cls-15" d="M15.91,37.41c.9-.61,1.61-.65,2.11-.12.39,1.6.78,3.25,1.17,4.96,1.08,1.11.58,2.6-1.01,2.25-1.6.77-3.34.4-4.99-.04-1.01-.27-2.09-.35-3.07-.78-1.27-1.89-.04-2.9,3.69-3.04l2.09-3.22Z"/>
    <path class="cls-33" d="M19.2,42.25c-.68-1.21-1.07-2.98-.14-4-.16-1.94.61-1.93,1.16.01,1.74.66,1.82,2.35-.05,2.95.98,1.31.31,2.69.12,4.15-.76-.11-1.5-.36-2.09-.86.14-.76,1.03-1.48,1.01-2.25Z"/>
    <path class="cls-73" d="M20.22,38.27c-1.65-1.17-1.03-2.48.89-2.14l1.02-.06c.5,2.66,1.24,8.1,3.74,9.79.86-1.19.16-2.96,1.27-2.92.08,1.27-.47,3.21.86,3.91-.33.23-.59.54-.74.91-6.49,3.92-1.02-4.81-7.1-6.53-.26-.74,0-2.13.05-2.95Z"/>
    <path class="cls-35" d="M5.1,36.94c-.71-1.83.59-3.56,2.52-2.97,2.58,2.43,3.38,2.63,2.4.58-1.98-.96-1.09-2.74.84-2.01-.44-1.6,1.34-1.28,2.09-.06l5.75,2c3.16,1.84-.17,2.59-2.78,2.94-.33,1.47.53,3.25-.76,4.71-1.97.39-4.46-.03-5.02,1.55l-4.72-.04c-1.35-.82-2.25-1.93-1.03-3.16.74-1.21.97-2.39.71-3.53Z"/>
    <path class="cls-4" d="M5.67,27.81c1.24.08,2.46.64,2.81,1.91.05,1.67-2.18,2.51-3.7,2.03-.42,1.41-.65,2.05-1.75.9-.03-2.2,1.09-3.43,2.64-4.85Z"/>
    <path class="cls-78" d="M21.77,26.97l.89-.05c-.35,2.6-2.58,4.65-1.69,7.28-1.59,2.44-2.17,1.83-2.23-.93-.49-2.58,1.86-4.14,3.02-6.3Z"/>
    <path class="cls-19" d="M18.7,34.48c-.13-.37.13-.82.06-1.2l2.23.93c.19.56.1,1.33.14,1.92.05.77-.85,1.42-.89,2.14h-1.16c-.32.34-.67.02-1.03-.98l-2.11.12c.96-1.22,3.41-1.19,2.78-2.94Z"/>
    <path class="cls-46" d="M8.48,29.72l1.3.85c1.42.28,2.31.91,1.07,1.96-.84.29-.96,1.23-.84,2.01-.87,1.69-1.71,1.02-2.4-.58-1.5-.29-1.07-.6.24-1.32-1.1-1.38-1.26-2.2.62-2.92Z"/>
    <path class="cls-12" d="M12.94,32.48l-2.09.06-1.07-1.96c.67-.09,1.46-.24,2.25.15.53.26.78,1.08.9,1.75Z"/>
    <path class="cls-58" d="M27.45,22.8c.38,1.65-.99,2.89-1.76,4.24l-2.03-.27c.95-1.6,2.43-2.74,3.79-3.97Z"/>
    <path class="cls-72" d="M28.08,38.65l-.06-1.82c.32,0,.67-.07.98-.02l1.89.3c-.06,1.12.6,2.05,1.55,2.6.36.66.64,1.35.81,2.08-.79,1.51-2.2,2.66-3.9,3.11-.5-.73-1.24-1.94-2.2-1.97l-.06-1.01c-.6-1.08-.31-2.88,1-3.26Z"/>
    <path class="cls-74" d="M28.08,38.65c.04,1.15-.36,2.3-1,3.26-1.34.1-.93-1.67-.99-3.32-.03-.7,1.18-.7,2,.06Z"/>
    <path class="cls-64" d="M33.24,41.79c.37.66.68.23,1.48-1.04.87,1.38,1.18,4.37-.88,4.76-1.59.3-3.52.85-4.51-.61.15-.8-.15-2.56.79-3.3.62-.49,2.14.29,3.11.2Z"/>
    <path class="cls-56" d="M.88,36.68c.61-1.21,2.17-2.56,2.15-4.02.56-.34,1.15-.64,1.75-.9,2.23-.23,2.21.46-.06,2.08.67,1.01.42,2.36-.73,4.05.89.18.87.48.02.91.03,1.9-.29,3.25-.96,4.05-.3-.1-.68.06-1,0l-.82-.86c-.59-1.67-.67-3.55-.37-5.3Z"/>
    <path class="cls-67" d="M.04,37.92c.05-.48.62-.85.84-1.24,1.11,1.58.4,3.5.37,5.3-1.06-1.12-1.36-2.58-1.21-4.06Z"/>
    <path class="cls-66" d="M4.02,38.8c1.96-.06,2.11.73.37,1.68l1.03,3.16-2.36-.79c.07-1.35-.56-3.38.96-4.05Z"/>
    <path class="cls-80" d="M18.02,37.29c.59-.03,1.01.35,1.03.96l.14,4c-1.76-.89-.99-3.31-1.17-4.96Z"/>
    <path class="cls-17" d="M7.62,33.97c1.16.23,1.86.27,2.4.58,1.78,1.04,3.53.65,4.98,2.06.02,1.41-2.15,3.74-3.67,3.11-1.98-.82-3.76-3.82-3.7-5.75Z"/>
    <path class="cls-31" d="M4.78,31.75c.87-1.22,2.21-1.91,3.7-2.03-.3.62.22.97.32,1.42.13.6-.43,1.2-.94,1.51-.71,1.11-1.96,1.9-3.13,1.19l.06-2.08Z"/>
    <path class="cls-9" d="M4.73,33.84c.96-.6,2.02-1.01,3.13-1.19l-.24,1.32c-1.25.59-2.11,1.67-2.52,2.97,1.28,1.6.69,2.07-1.1.95-.03-1.38.18-2.77.73-4.05Z"/>
    <path class="cls-18" d="M4.02,38.8l-.02-.91c.36-.23.96-.49,1.1-.95,1.84.07,2.88,1.73,4.01,3.59-2.02-.42-3.29-.71-4.72-.06l-.37-1.68Z"/>
  </g>
</svg>