<?xml version="1.0" encoding="UTF-8"?>
<svg id="Enemy" xmlns="http://www.w3.org/2000/svg" viewBox="0 0 64.56 108.43">
  <defs>
    <style>
      .cls-1 {
        fill: #471925;
      }

      .cls-2 {
        fill: #181818;
      }

      .cls-3 {
        fill: #fcc39a;
      }

      .cls-4 {
        fill: #7b655e;
      }

      .cls-5 {
        fill: #c4825c;
      }

      .cls-6 {
        fill: #602492;
      }

      .cls-7 {
        fill: #691cb1;
      }

      .cls-8 {
        fill: #560b98;
      }

      .cls-9 {
        fill: #6a4937;
      }

      .cls-10 {
        fill: #2e2d2e;
      }

      .cls-11 {
        fill: #a09d98;
      }

      .cls-12 {
        fill: #f6e3db;
      }

      .cls-13 {
        fill: #f2aa96;
      }

      .cls-14 {
        fill: #3d0969;
      }

      .cls-15 {
        fill: #523d35;
      }

      .cls-16 {
        fill: #60473a;
      }

      .cls-17 {
        fill: #eab997;
      }

      .cls-18 {
        fill: #eda280;
      }

      .cls-19 {
        fill: #a36d52;
      }

      .cls-20 {
        fill: #ddaa94;
      }

      .cls-21 {
        fill: #333538;
      }

      .cls-22 {
        fill: #3e3e3e;
      }

      .cls-23 {
        fill: #5b1599;
      }

      .cls-24 {
        fill: #8803f1;
      }

      .cls-25 {
        fill: #6e3e23;
      }

      .cls-26 {
        fill: #e7957f;
      }

      .cls-27 {
        fill: #5b109e;
      }

      .cls-28 {
        fill: #090909;
      }

      .cls-29 {
        fill: #7105d6;
      }

      .cls-30 {
        fill: #58228d;
      }

      .cls-31 {
        fill: #52281a;
      }

      .cls-32 {
        fill: #c1a08f;
      }

      .cls-33 {
        fill: #845947;
      }

      .cls-34 {
        fill: #501b81;
      }

      .cls-35 {
        fill: #cd8c6f;
      }

      .cls-36 {
        fill: #1d1b1e;
      }

      .cls-37 {
        fill: #f3caa4;
      }

      .cls-38 {
        fill: #7806db;
      }

      .cls-39 {
        fill: #a37367;
      }

      .cls-40 {
        fill: #1a1109;
      }

      .cls-41 {
        fill: #461277;
      }

      .cls-42 {
        fill: #b77048;
      }

      .cls-43 {
        fill: #620faa;
      }

      .cls-44 {
        fill: #b4775d;
      }

      .cls-45 {
        fill: #090908;
      }

      .cls-46 {
        fill: #caaca2;
      }

      .cls-47 {
        fill: #2f2522;
      }

      .cls-48 {
        fill: #9e7869;
      }

      .cls-49 {
        fill: #5e1b97;
      }

      .cls-50 {
        fill: #efb895;
      }

      .cls-51 {
        fill: #a1816d;
      }

      .cls-52 {
        fill: #886b5e;
      }

      .cls-53 {
        fill: #372a50;
      }

      .cls-54 {
        fill: #dfa27f;
      }

      .cls-55 {
        fill: #6d5350;
      }

      .cls-56 {
        fill: #4a200e;
      }

      .cls-57 {
        fill: #230d01;
      }

      .cls-58 {
        fill: #c19d81;
      }

      .cls-59 {
        fill: #7811d1;
      }

      .cls-60 {
        fill: #56099d;
      }

      .cls-61 {
        fill: #fecea8;
      }

      .cls-62 {
        fill: #b2817d;
      }

      .cls-63 {
        fill: #201f22;
      }

      .cls-64 {
        fill: #323133;
      }

      .cls-65 {
        fill: #361459;
      }

      .cls-66 {
        fill: #725241;
      }

      .cls-67 {
        fill: #664535;
      }

      .cls-68 {
        fill: #ae856e;
      }

      .cls-69 {
        fill: #9901fe;
      }

      .cls-70 {
        fill: #51158e;
      }

      .cls-71 {
        fill: #f4b086;
      }

      .cls-72 {
        fill: #25211c;
      }

      .cls-73 {
        fill: #d29a7b;
      }

      .cls-74 {
        fill: #efe9ce;
      }

      .cls-75 {
        fill: #de9573;
      }

      .cls-76 {
        fill: #8b04f0;
      }

      .cls-77 {
        fill: #410c71;
      }

      .cls-78 {
        fill: #ad8067;
      }

      .cls-79 {
        fill: #40146e;
      }

      .cls-80 {
        fill: #2e0902;
      }

      .cls-81 {
        fill: #432131;
      }

      .cls-82 {
        fill: #847570;
      }

      .cls-83 {
        fill: #7103b5;
      }

      .cls-84 {
        fill: #7b05dd;
      }

      .cls-85 {
        fill: #6712b4;
      }

      .cls-86 {
        fill: #4b1281;
      }

      .cls-87 {
        fill: #9a6c52;
      }

      .cls-88 {
        fill: #512f20;
      }

      .cls-89 {
        fill: #d9a287;
      }

      .cls-90 {
        fill: #c5a18e;
      }

      .cls-91 {
        fill: #5a1892;
      }
    </style>
  </defs>
  <g id="DivaMohawk">
    <path class="cls-10" d="M62.86,97.24c.29,1.21.51,2.48.52,3.73-.18,3.15-.43,7.56-3.73,4-.01-.34-.1-.72-.2-1.04-.4-1.19-.32-2.76-1.06-3.84-1.57-3.19.44-3.99,2.49-1.18-.89-.64-1.49-1.33-.5-2.1.12-.95.46-1.01.99-.19l1.5.62Z"/>
    <path class="cls-45" d="M59.65,104.97c2.32.12,2.23-2.68,3.73-4,.02,1.83,2.18,4.89.6,6.8-1.67,2.01-4.27-1.06-4.33-2.8Z"/>
    <path class="cls-85" d="M58.45,88.91l2.91,7.71c-.28-.12-.67.19-.99.19-1.02.49-2.32.8-3.31.27-.57-.26-1.1-.6-1.56-1.03-.9-.11-.9-.43-.09-.92-.5-1.92-1.71-3.69-3.64-5.32l.79-.96c-.89-2.36-.7-2.58,1.77-2.01.34-.89.72-.86,1.14.04,2.44-1.95,3.85-.95,2.99,2.02Z"/>
    <path class="cls-53" d="M60.37,96.81c.52.91,1.74,2.64.38,3.09-.49-.11-1.23-1.13-1.42-1.41-.25-.36-.78-.64-.99.09-.18.61.04,1.15.05,1.51-.63-.93-1.6-1.68-1.33-3.01.5-.4,1.02-.8,1.77-.95.51-.11,1.13.22,1.55.68Z"/>
    <path class="cls-86" d="M12.42,86.23c.19,1.25-.64,2.57-2.49,3.98l-1.46,2.73c-.12,1.85-1.22,3.63-1.01,5.54h-.79c-1.12-.08-1.92-.91-2.39-2.48-.4,1.92-1.14,1.74-1.16-.26,1.37-3.84,2.55-7.91,4.33-11.67.13-2.64,3.5-7.05,5.92-6.17,1.05-.89,1.6-.04,1.66,2.55-3.05,2.67-3.92,4.6-2.61,5.78Z"/>
    <path class="cls-36" d="M6.67,98.48c0,1.04-.44,2.04-1.35,2.58-1.16,1.02-1.15.48-1-1-2.44.33-1.38-2.83-.04-4.07,1.44-.05,2.39,1.08,2.39,2.49Z"/>
    <path class="cls-28" d="M5.32,101.06v4c-.26.83-1.47.72-2,0-2.85-.74-1.93-4.82,1-5,.42.1,1,.51,1,1Z"/>
    <path class="cls-22" d="M3.32,105.06h2v1c-.97.86-3.79.74-5,0-.04-.32,0-.69-.09-1,.09-2.89,2.41-2.7,3.09,0Z"/>
    <path class="cls-38" d="M45.32,72.06c-.22.75.5,2.38,1,3,.35,1.81.82,3.52,1.4,5.12,2.95-.45,7.28,3.53,6.6,6.68-.34.86-.9,1.66-1.77,2.01-2.27.71-6.36-3.25-6.33-5.95-1.21,1.09-1.67.54-1.09-1.06-1.63-2.48-2.83-5.37-3.59-8.67l1.78-2.12c1.13-1.62,1.52-.62,2,1Z"/>
    <path class="cls-77" d="M52.55,88.86c.69,2.77,5.5,4.58,2.85,6.28-2.48-2.85-5.12-5.64-8.22-7.81-.21-.15-.55-.11-.78-.22l-.83-2.25c-1.61-1.11-1.33-2.18.66-1.94,2.2,1.95,3.78,4.39,6.33,5.95Z"/>
    <path class="cls-49" d="M49.41,79.06c1.58,1.25,3.72,2.03,4.87,3.86.73,1.16.9,2.67,1.18,3.98-.35-.11-.78,0-1.14-.04-1.21-3.06-3.69-5.21-6.6-6.68-.85-2.6-.37-2.92,1.69-1.12Z"/>
    <path class="cls-65" d="M16.81,82.43c1.29-1.44,1.84-.93,1.07.9-1.49.97-2.35,2.68-3.52,3.83l-5.88,5.77c.2-3.09-.44-2.27,3.94-6.71-1.29-2.81,1.9-6.26,4.39-3.8Z"/>
    <path class="cls-34" d="M20.2,80.31c-.06.51-.06,1.02-.01,1.53l-2.31,1.5-1.07-.9c-1.92-.19-1.84-.95.1-1.41-1.3-1.99-.33-2.5,1.41-.85.87-1.74,1.61-1.82,1.88.14Z"/>
    <path class="cls-2" d="M4.28,95.99l.04,4.07c-.91,1.5-1.12,3.27-1,5H.23c-1.07-3.67,1.87-6.45,2.89-9.32.38.02.77.27,1.16.26Z"/>
    <path class="cls-43" d="M16.91,81.02l-.1,1.41c-1.92.55-3.01,2.41-4.39,3.8-9.47,2.72,4.08-8.33.95-8.33-.03-.5.56-1.24.62-1.78,2.47-3.07,4.4,2.49,2.91,4.89Z"/>
    <path class="cls-59" d="M49.41,79.06c-.59.32-1.16.69-1.69,1.12-.95-.48-2.02-1.66-2.07-2.91-.03-.72-.67-2,.68-2.21.91,1.11,1.9,3.06,3.09,4Z"/>
    <path class="cls-6" d="M43.44,81.49c.42.81.19,1.03-.69.69l-2.27-.96c0-1.16-.49-2.16-.98-3.17-1.22-1.08-2.19-2.4-.99-3.63,3.61-1.91,5.85,4.19,4.93,7.07Z"/>
    <path class="cls-30" d="M45.13,81.85c.4.26.73.73,1.09,1.06.04.66-.62,1.35-.66,1.94-1.25-.51-2.35-1.38-2.81-2.67l.69-.69c.67-1.94,1.54-1.74,1.69.36Z"/>
    <path class="cls-76" d="M43.32,71.06c-.04,3.7,2.87,7.04,1.81,10.79-.48-.3-1.16-.26-1.69-.36-2.14-2.05-2.31-5.57-4.93-7.07-1.48-.09-1.56-.76-.19-1.36-.24-4.71-1.72-9.39-4.43-14.04l.57-.97c-2.47-2.94-2.51-5.27-.13-6.99-.49-.91.24-1.54,2.17-1.89-.79-.45-.75-.8.12-1.07.15-.82.41-.78.78.03.72-.07,1.33-.06,1.52.23.34.51,4.08,10.28,4.35,11.31.75,2.77,1.38,9.4.05,11.39Z"/>
    <path class="cls-8" d="M40.33,47.77c.83.91,1.41,2.3,1.75,4.17,2.69,2.16,4.22,10.53,2.24,13.12.28,1.76,1.47,5.35,1,7-.8.03-1.32-.68-2-1,.12-12.9-1.49-11.41-5.93-22.93-.17-3.09,1.2-2.3,2.93-.36Z"/>
    <path class="cls-70" d="M25.25,66.4c-.39,3.73-2.44,6.94-3.75,10.41-.21.88-.49.81-.85-.1-.64-2.53.35-7.82,1.51-10.45.19-.44,1.42-.18,2.22.1.19-.77.49-.73.86.04Z"/>
    <path class="cls-27" d="M29.32,57.06c1.92-.18,2.18,1.47.26,2.02-1.37,2.19-2.93,4.38-3.26,6.98l-1.07.34c-.27.08-.58-.06-.86-.04-2.65-1.57-1.17-6.61,1.93-6.3-1.24-1.77,1.25-4.21,3-3Z"/>
    <path class="cls-7" d="M21.51,76.81c-.43,1.14-.13,2.66-1.31,3.49l-1.88-.14c-2-1.29-1.3-2.59,1-3.1.36-1.32.54-1.54,1.34-.34.26-.07.57.11.85.1Z"/>
    <path class="cls-24" d="M34.45,58.05c-2.78-2.72-8.82-2.78-8.13,2.01-.79,1.93-1.33,4.37-1.93,6.3-2.47,2.85-2.99,6.68-3.73,10.35l-1.34.34q-.97-7.73,0,0c-.12,1.09-.53,2.14-1,3.1l-1.41.85c-1.87-.76-.54-4.77-2.91-4.89.04-.3.07-.61.14-.91.31-.88.7-1.27,1.18-1.16.38-2.42.71-4.76,1-7-.85-.45-.63-1.23,0-2-.01-3.95.83-7.7,2.53-11.25l1.59.03c.56-3.04,3.18-3.65,7.85-1.83,1.31-.97,2.99-1.28,5.03-.94.28-.84.61-.83,1,0,.83,2.3-.24,4.64.13,6.99Z"/>
    <path class="cls-39" d="M37.31,37.12c-.46,2.68-.14,5.04.97,7.08,2.67-1.3,4.1,1.58,2.05,3.58l-2.93.36c-.23.03-.57.07-.78-.03-4.04-2.33-4.76-4.29-2.17-5.88-2.9-.58-2.93-2.53-.1-3.3-2.61-.1-2.48-1.09-.01-1.86-1.86-2.18,1.62-3.03,3.38-2,2.81.47,2.28,1.74-.39,2.06Z"/>
    <path class="cls-29" d="M34.45,58.05c.45.78,7.61,15.6,3.87,15.01l-1-2c-1.58-2.65-2.64-5.36-3.19-8.13-1.26-2.04-2.86-4-4.81-5.87-1.54.15-2.41,1.57-3,3-1.39.04-1.14-1.53-.95-2.46s1.15-.99,2.07-1.43c2.98-1.42,5.53-.68,7.01,1.88Z"/>
    <path class="cls-13" d="M36.61,48.1c-.1.32.04.77-.12,1.07-1.54.95-3.45,1.31-5.25.99-1.31,2.34-3.12,2.56-4.01-.17l-.21-1.47c1.31-.42,2.15-1.25,2.53-2.48-.98-.04-1.04-.37-.23-.98l.11-1.22c.35-2.08.57-2.07,1.03.05,2.71.43,4.53,2.08,6.15,4.21Z"/>
    <path class="cls-83" d="M36.49,49.17c-.46.87-1.28,1.51-2.17,1.89-.28.12-.7-.02-1,0-3.04.9-3.74.6-2.08-.9,1.53-1.08,3.43-1.25,5.25-.99Z"/>
    <path class="cls-79" d="M37.32,71.06l-1.85-1.09-2.24-5.86c-.7-2.14-.4-2.53.9-1.18,1.51,2.59,3.9,4.92,3.19,8.13Z"/>
    <path class="cls-41" d="M34.13,62.93c-.79-.41-.78.68-.9,1.18-.72-1.9-1.84-3.87-3.65-5.03l-.26-2.02c.7-.07,1.27-1.24,2.25-.27,1.86,1.83,1.53,4.37,2.56,6.14Z"/>
    <path class="cls-84" d="M27.23,49.99c1.33.14,2.67.22,4.01.17-.17,1.08,1.42.7,2.08.9-1.64.13-2.54,1.08-3.67,2.31-2.12,2.3-6.17-3.54-9.21.46-2.68.15-.66-4.88,1.62-4.64,1.27-2.47,3.81-.86,5.17.79Z"/>
    <path class="cls-69" d="M19.32,77.06c-3.6,1.94.05-21.68,2.47-21.62l-2.47,21.62Z"/>
    <path class="cls-23" d="M22.06,49.2c-1.51,1.04-2.1,2.88-1.62,4.64-4.71,4.4-1.98,10.99-4.12,11.23-.33-1.46-.66-3.13-1-5-.02-.33.08-.68,0-1,.73-3.96,1.73-7.65,3.02-11.08l2.92-.15c1.7-.79,2.08-.05.8,1.36Z"/>
    <path class="cls-14" d="M16.32,65.06c.04.65.09,1.35,0,2-.28.87-.62.86-1,0v-6c0-.33.02-.67,0-1,1.71.95.9,3.34,1,5Z"/>
    <path class="cls-60" d="M15.32,74.06c-1.02-1.31-.67-4.22,0-6v-1h1c-.33,2.32,1.03,5.4-1,7Z"/>
    <path class="cls-91" d="M15.32,74.06c0,.53-.76.99-1.18,1.16.63-2.35-.87-5.51,1.18-7.16v6Z"/>
    <path class="cls-20" d="M52.32,29.06c.86.65.91,2.09.14,4.32l.2,2.1c.11.27.08.51-.12.72-.3-.22-.89.02-1.23-.14-1.32,2.06-6.62.06-4.82-2.06-1.21-1.91-.6-2.64,1.83-2.21-1.07-2.4-.51-3.25,2.06-2.73.45-2.65,1.02-2.56,1.92,0Z"/>
    <path class="cls-51" d="M46.5,34.01c.5,2.22,2.84,2.52,4.82,2.06.02,1.16-.63,1.99-1.42,1.74l-3.72-1.14c-1.38-1.12-2.69-2.19-3.87-3.52-1.32-1.49-1.2-2.09.36-1.79,1.66-1.43,3.88,1.02,3.84,2.65Z"/>
    <path class="cls-40" d="M35.32,26.06c1.58-1.34,2.17-.78,1,1,1.61.56,2.33,2.51,2.3,4.09,0,1.37-.68,2.64-.92,3.91-1.29.35-2.55.91-3.38,2-1.31,1.59-2.28,1.01-1.96-1.04-3.23-.25-4.83-3.1-1.3-3.78.86-.3,2.13-.16,3.79.43l.35-1.71c-1.58-.78-3.53-2.57-4.88-3.89-2.87-3.63,4.41-4.7,5-1Z"/>
    <path class="cls-75" d="M34.33,38.93c0,1.09-.05,2.21.1,3.3.48,2.86-2.23,3.85-3.98,1.66-.3-.57-.65-.53-1.03-.05-2.48-.85-2.3-3.51.26-4.4,1.55-1.96,3.18-2.95,4.65-.51Z"/>
    <path class="cls-3" d="M36.61,48.1c-2.52-1.17-6.27-.89-6.15-4.21,1.25-.73,2.67-1.07,3.98-1.66.3,2.09,1.38,3.94,2.17,5.88Z"/>
    <path class="cls-71" d="M32.36,36.02c.7.19,1.28.81,1.96,1.04v1.86s-4.63.51-4.63.51c-1.43-1.52-.83-2.4.67-3.31-.08-1.28.58-1.31,2-.1Z"/>
    <path class="cls-26" d="M26.71,46.5c.76-1.73,1.73-2.03,2.84-.46.39.61,1.15,1.65.56,2.39-.69.87-2.12.84-2.88,1.56-1.76,0-3.56-.01-5.17-.79-.38-.38-.64-.86-.8-1.36.88-.69,1.47-1.85,2.06-2.77.28-.87.62-.86,1,0,.85.16,1.65.64,2.39,1.44Z"/>
    <path class="cls-5" d="M28.07,35.94c.39-2.79,1.77-2.5,2.29.18,1.29,1.1-.16,2.25-.67,3.31-.15,1.41.15,2.99-.26,4.4-.11.37-.11.83-.11,1.22-1.35,1.24-2.32-.4-2.77-1.82-1.99,1.14-2.18-3.5-.23-4.18l-.37-1.01c1.52-.05,1.61-.4.28-1.07-.32-1.5.82-2.91,1.83-1.04Z"/>
    <path class="cls-61" d="M29.32,45.06c0,.28.09.74.23.98-.87.59-1.9.93-2.84.46-1.65-.79-1.87-2.47-.16-3.26,1.26-.09,2.18.79,2.77,1.82Z"/>
    <path class="cls-44" d="M26.32,20.06c1.29,1.59-.2,2.95-4.47,4.09l-2.31,2.78c.34,1.29-.4,2.65-1.85,2.14-.28-.61.06-1.48-.1-2.14-1.91-1.85-1.43-3.76,1-4.72,1.2-.27,2.24-2.19,3.58-2.17.79-.89,2.17-.88,4.15.03Z"/>
    <path class="cls-81" d="M16.4,41.03c1.81-.92,3.03.43,1.84,2.08-1.31.63-2.43,1.98-3.95,1.91-.67,1.22-1.35,1.3-1.66-.07-2.51-.88-2.83-1.96-1.13-4.02,1.63-.27,3.44-1,4.9.1Z"/>
    <path class="cls-11" d="M12.63,44.95l1.66.07-.75,1.94c-3.09-.68-4.22,1.87-6.09,4.03-.8-.7-1.95-1.91-1.84-3.44.06-.91,2.46-1.08,2.88-2.32,1.41-.9,2.78-.99,4.13-.27Z"/>
    <path class="cls-68" d="M22.97,38.27c.87.08.87.37.07.86.68.78.62,2.11-.17,2.83-.41.24-1.19-.04-1.54.27-2.46.28-4.94-1.75-3.02-3.92.06-.61.54-1.39.33-2.01.15-.89.44-.88.86-.04,1.55-1.2,3.58.01,3.48,2.02Z"/>
    <path class="cls-47" d="M20.43,27.7c1.02.15,1.07,1.19.13,3.13.76,3.13.41,4.94-1.07,5.43l-.86.04c-.83-2.37.15-4.91-.92-7.23.47-.83,1.07-1.57,1.85-2.14.87-.55,1.15-.28.88.77Z"/>
    <path class="cls-55" d="M11.5,40.94c.78,1.2,1.23,2.58,1.13,4.02-.49.75-1.54,1.72-2.7,1.48-.54-.11-.96-.63-1.43-1.22.3-.88-.56-2.22.29-3.17.65-.73,1.69-.95,2.71-1.12Z"/>
    <path class="cls-52" d="M21.32,42.22c-.86.75-2.16.45-3.08.89-.63-.65-1.11-1.53-1.84-2.08.13-1.19.8-2.23,1.9-2.73-.2,1.92,2.19,2.38,3.02,3.92Z"/>
    <path class="cls-25" d="M24.32,40.06c1.1.6,1.79,4.65,0,5h-1c-.22-1-.11-2.13-.46-3.1s-.68-2.01.17-2.83c1.45-1.25,2.11-.81,1.29.93Z"/>
    <path class="cls-90" d="M54.21,16.88c.3,1.19.34,2.25.11,3.19-.32,1.75-2.08,2.17-3.3.96-.94-1.03-2.09-2.88-.94-3.84,1.5-1.26,2.91-1.37,4.13-.3Z"/>
    <path class="cls-62" d="M54.32,20.06c.7.29.69.63,0,1l-.03,1.94c.1,2.86-2.22,2.65-2.8-.1.14-.58.26-.8-.42-1.06l-.06-.83c.91-.8,2.11-1.09,3.3-.96Z"/>
    <path class="cls-32" d="M55.32,21.06h-1v-1c-.34-.48-.68-1.06-.76-1.69-.06-.46-.32-1.73.65-1.49,1.26,1.11,1.38,2.47,1.11,4.19Z"/>
    <path class="cls-1" d="M54.29,23c0,.32.1.66.03.98.8,2.1.8,3.79,0,5.08-.94,1.67-1.61,1.97-2,0h-1.92c.18-2.08.62-4.12,1.09-6.16l2.8.1Z"/>
    <path class="cls-48" d="M54.32,29.06c-.97,1.99-1.3,4.13-.88,6.38-.19.6-.45.51-.77.04-2.35-1.78.2-4.18-.35-6.42h2Z"/>
    <path class="cls-82" d="M39.5,26.93c.81.38.8.75-.01,1.13,1.12,1.48,1.06,2.21-.18,2.17l-.69.92c-2.64-.72-2.2-2.19-2.3-4.09-.43-3.56,3.31-3.69,3.18-.13Z"/>
    <path class="cls-87" d="M42.67,31.36c-.08.61-.2,1.2-.36,1.79-.9-1.01-2.57-1.42-3-2.91l.18-2.17c1.76-.94,4.4,1.24,3.18,3.29Z"/>
    <path class="cls-50" d="M44.48,27.99c1.26,1.5,1.49,4.54,3.86,3.81-.59.74-.64,2.09-1.83,2.21-1.44-.62-2.69-1.59-3.84-2.65s-1.9-2.41-3.18-3.29c.03-.35-.13-.82.01-1.13-1.46-1.31-.94-1.86.8-.85.99-.28,2.38.35,4.18,1.9Z"/>
    <path class="cls-37" d="M31.41,22.21c3.24-1.46,8.64.3,3.92,3.86-1.6-1.32-4.05-.85-5,1,.9.24.94.58.1,1-.25,1.93-1.44,2.01-1.82,0-.68-1.05-1.76-1.42-3.22-1.12-.27.88-.61.88-1.02.03-2.74-.3-4.11-1.08-4.12-2.32,4.29-2.68,8-3.5,11.16-2.44Z"/>
    <path class="cls-54" d="M33.3,21.12c1.91-1.65,4.31-1,7.22,1.94,0,.33.17.68.12,1,1.31,1.58,1.19,2.26-.34,2.02-.21.31-.64.52-.8.85-.99-.75-2.24-.65-3.18.13-.02-.49-.69-.75-1-1-.44-1.19-.08-2.11-.21-4.21-1.19,2.18-2.76.22-3.7.36-.88-.26-.88-.61-.03-1.02.48-1.69,1.2-1.65,1.93-.07Z"/>
    <path class="cls-21" d="M35.2,30.96c.6,3.62-4.78.92-4.79-1.91-.85-.25-.82-.58.01-.98,0-.33-.09-.67-.1-1,1.21-.06,2.61-.36,3.87.56.88.64.66,2.24,1,3.33Z"/>
    <path class="cls-16" d="M30.05,30.93c.86-.93,1.88.3,1.01,1.31-.7,1.47,0,2.92,1.3,3.78-.61-.16-1.37.15-2,.1l-2.29-.18c-2.58.75-2.11-2.36-.67-3.56-1.8-2.97,1.13-4.16,2.65-1.45Z"/>
    <path class="cls-63" d="M35.2,30.96c.19.6,1.83.72,1.48,1.66-.38,1.01-1.04,1.64-2.43,1.48-1.48-.17-2.27-1.31-3.2-1.86l-1.01-1.31c-2.6-.65-2.27-1.57.36-1.88,1.17,1.32,3.1,3.13,4.79,1.91Z"/>
    <path class="cls-42" d="M26.32,39.06c-.57,1.38-.82,3.06.23,4.18-.01,1.09.05,2.18.16,3.26-.23.61-.69,2.28-1.31,1.01-.42-.85-.72-1.59-1.07-2.45v-5c-1.54-1.36.99-2.82,2-1Z"/>
    <path class="cls-57" d="M24.37,26.97c2.29,1.75,1.61,2.45-2.05,2.13.56,3.47,1.55,4.81,2.97,4.01.63-1.69.91-2.22,2.11-.73.05,1.21.24,2.42.67,3.56-.82-.06-1.24.82-1.83,1.04-.19,1.42-2.17,2.11-3.27,1.3-1.39-.17-2.4-1.2-3.48-2.02.82-2.82-.3-5.86.94-8.56-1.64-2.87-.33-3.11,3.94-.72Z"/>
    <path class="cls-89" d="M26.24,36.98c.36.09.8-.02,1.17.03.85.1.89.63.55,1.03-.31.36-1.45.57-1.63,1.03-.78-.16-2-.02-2,1l-1.29-.93c-.05-.28-.07-.57-.07-.86.97-.73,2.17-.9,3.27-1.3Z"/>
    <path class="cls-88" d="M25.33,1.92c.87.3.85.63-.03.99,1.65.31,1.36,1.08-.87,2.33,2.62.37,2.09,4.26-.2,4.71.56,1.4.72,2.82-.89,3.04-1.47-1.39-2.8-3.05-3.05-5.11,1.97-2.39,1.04-6.35,5.05-5.97Z"/>
    <path class="cls-15" d="M30.27,15.95c.58.93.6,1.63.05,2.12-1.61.34-3.28.67-5,1-1.14,1.04-2.62.49-2.21-1.08-.71-1.63-.28-3.35.22-4.98.31-1,.43-2.08.89-3.04,1.93-1.2,2.9.06,2.91,3.79l3.15,2.2Z"/>
    <path class="cls-33" d="M25.32,19.06c1.23-.64,3.01-.96,4,0,1.94-.09,1.91.68-.05,1.16-.72,1.71-2.41,1.74-2.95-.16-1.34.93-2.7.21-4.15-.03.13-.76.42-1.48.94-2.06.76.16,1.44,1.08,2.21,1.08Z"/>
    <path class="cls-73" d="M29.27,20.22c1.23-1.61,2.51-.95,2.11.97l.03,1.02c-2.67.4-8.14.96-9.91,3.4,1.16.9,2.95.26,2.87,1.37-1.28.03-3.19-.58-3.94.72-.22-.34-.52-.6-.88-.77-3.69-6.62,4.84-.85,6.77-6.86.75-.24,2.13.08,2.95.16Z"/>
    <path class="cls-35" d="M31.12,5.16c1.86-.65,3.54.72,2.88,2.62-2.52,2.49-2.74,3.28-.67,2.37,1.03-1.94,2.78-.99,1.98.91,1.61-.38,1.23,1.38-.01,2.09l-2.2,5.68c-1.95,3.09-2.58-.26-2.84-2.88-1.46-.38-3.27.42-4.68-.92-.32-1.98.19-4.45-1.38-5.07l.2-4.71c.87-1.32,2.01-2.18,3.2-.92,1.18.78,2.35,1.06,3.5.83Z"/>
    <path class="cls-4" d="M40.23,6.05c-.12,1.24-.73,2.43-2.01,2.74-1.67,0-2.43-2.27-1.9-3.77-1.39-.47-2.03-.72-.84-1.78,2.2.05,3.39,1.21,4.75,2.81Z"/>
    <path class="cls-78" d="M40.5,22.17l.02.89c-2.59-.44-4.56-2.74-7.22-1.94-2.38-1.68-1.75-2.23,1.01-2.19,2.6-.4,4.08,2.01,6.19,3.24Z"/>
    <path class="cls-19" d="M33.11,18.83c.37-.12.81.16,1.2.1l-1.01,2.19c-.57.17-1.33.05-1.93.07-.77.02-1.39-.9-2.11-.97l.05-1.16c-.35-.34-.01-.67,1-1l-.05-2.12c1.19,1.01,1.07,3.44,2.84,2.88Z"/>
    <path class="cls-46" d="M38.22,8.79l-.9,1.27c-.33,1.41-.99,2.28-2,1-.26-.85-1.19-1-1.98-.91-1.66-.93-.96-1.74.67-2.37.34-1.49.64-1.05,1.31.28,1.41-1.05,2.24-1.18,2.9.73Z"/>
    <path class="cls-12" d="M35.31,13.15v-2.09s2.01-1,2.01-1c.07.68.19,1.47-.23,2.25-.28.52-1.11.75-1.79.84Z"/>
    <path class="cls-58" d="M44.48,27.99c-1.67.32-2.86-1.09-4.18-1.9l.34-2.02c1.57,1.01,2.66,2.52,3.84,3.92Z"/>
    <path class="cls-72" d="M28.61,28.06h1.82c0,.32.05.67-.01.98l-.36,1.88c-1.11-.1-2.07.52-2.65,1.45-.67.33-1.37.59-2.11.73-1.48-.85-2.58-2.3-2.97-4.01.75-.47,1.98-1.18,2.05-2.13l1.02-.03c1.1-.57,2.89-.21,3.22,1.12Z"/>
    <path class="cls-74" d="M28.61,28.06c-1.15,0-2.28-.44-3.22-1.12-.06-1.34,1.7-.87,3.35-.88.7,0,.65,1.2-.13,1.99Z"/>
    <path class="cls-64" d="M25.29,33.11c-.67.35-.25.67.99,1.52-1.41.82-4.4,1.02-4.72-1.05-.25-1.6-.72-3.55.76-4.48.8.18,2.56-.07,3.27.91.47.64-.36,2.13-.3,3.1Z"/>
    <path class="cls-56" d="M31.53.95c1.19.65,2.48,2.26,3.94,2.29.32.58.6,1.17.84,1.78.15,2.23-.54,2.19-2.08-.13-1.03.63-2.37.34-4.02-.87-.21.88-.51.85-.91-.01-1.9-.04-3.24-.41-4.01-1.1.11-.3-.04-.69.03-.99l.89-.78c1.69-.53,3.57-.54,5.31-.19Z"/>
    <path class="cls-67" d="M30.32.06c.47.07.82.65,1.21.88-1.62,1.05-3.51.28-5.31.19C27.37.12,28.85-.14,30.32.06Z"/>
    <path class="cls-66" d="M29.31,4.01c0,1.96-.8,2.08-1.69.31l-3.2.92.87-2.33c1.35.12,3.4-.44,4.01,1.1Z"/>
    <path class="cls-80" d="M30.32,18.06c.01.59-.39,1-1,1h-4c.95-1.73,3.34-.87,5-1Z"/>
    <path class="cls-17" d="M34.01,7.78c-.27,1.15-.33,1.85-.67,2.37-1.1,1.75-.77,3.51-2.23,4.91-1.41-.03-3.66-2.27-2.98-3.78.89-1.95,3.95-3.62,5.88-3.5Z"/>
    <path class="cls-31" d="M36.32,5.02c1.19.91,1.83,2.28,1.9,3.77-.61-.32-.98.18-1.43.27-.61.11-1.18-.47-1.47-.99-1.08-.75-1.83-2.02-1.08-3.17l2.08.13Z"/>
    <path class="cls-9" d="M34.24,4.89c.57.98.94,2.05,1.08,3.17l-1.31-.28c-.55-1.27-1.59-2.17-2.88-2.62-1.64,1.23-2.09.62-.91-1.13,1.38.02,2.76.27,4.02.87Z"/>
    <path class="cls-18" d="M29.31,4.01h.91c.22.38.46.99.91,1.14-.13,1.83-1.83,2.81-3.73,3.89.49-2.01.82-3.26.22-4.72l1.69-.31Z"/>
  </g>
</svg>