<?xml version="1.0" encoding="UTF-8"?>
<svg id="Enemy" xmlns="http://www.w3.org/2000/svg" viewBox="0 0 132.65 71.63">
  <defs>
    <style>
      .cls-1 {
        fill: #001501;
      }

      .cls-2 {
        fill: #045521;
      }

      .cls-3 {
        fill: #07df63;
      }

      .cls-4 {
        fill: #a99a6e;
      }

      .cls-5 {
        fill: #743c2b;
      }

      .cls-6 {
        fill: #966e5c;
      }

      .cls-7 {
        fill: #25884c;
      }

      .cls-8 {
        fill: #c68d7b;
      }

      .cls-9 {
        fill: #c7c25b;
      }

      .cls-10 {
        fill: #5b5853;
      }

      .cls-11 {
        fill: #99c46e;
      }

      .cls-12 {
        fill: #09612d;
      }

      .cls-13 {
        fill: #cc8975;
      }

      .cls-14 {
        fill: #03692c;
      }

      .cls-15 {
        fill: #775347;
      }

      .cls-16 {
        fill: #034216;
      }

      .cls-17 {
        fill: #d89b83;
      }

      .cls-18 {
        fill: #755c50;
      }

      .cls-19 {
        fill: #044b1d;
      }

      .cls-20 {
        fill: #0c0c0c;
      }

      .cls-21 {
        fill: #112c15;
      }

      .cls-22 {
        fill: #0b591e;
      }

      .cls-23 {
        fill: #f5f391;
      }

      .cls-24 {
        fill: #cfc270;
      }

      .cls-25 {
        fill: #73624a;
      }

      .cls-26 {
        fill: #0d5f2e;
      }

      .cls-27 {
        fill: #0f532b;
      }

      .cls-28 {
        fill: #252621;
      }

      .cls-29 {
        fill: #927766;
      }

      .cls-30 {
        fill: #1f3c2a;
      }

      .cls-31 {
        fill: #021b05;
      }

      .cls-32 {
        fill: #29a35f;
      }

      .cls-33 {
        fill: #012007;
      }

      .cls-34 {
        fill: #19522c;
      }

      .cls-35 {
        fill: #d6df78;
      }

      .cls-36 {
        fill: #aa7e55;
      }

      .cls-37 {
        fill: #effea6;
      }

      .cls-38 {
        fill: #b2846e;
      }

      .cls-39 {
        fill: #413d3a;
      }

      .cls-40 {
        fill: #186e40;
      }

      .cls-41 {
        fill: #d9957b;
      }

      .cls-42 {
        fill: #403c37;
      }

      .cls-43 {
        fill: #eff18f;
      }

      .cls-44 {
        fill: #1aad43;
      }

      .cls-45 {
        fill: #237238;
      }

      .cls-46 {
        fill: #092c12;
      }

      .cls-47 {
        fill: #f5f890;
      }

      .cls-48 {
        fill: #27ba69;
      }

      .cls-49 {
        fill: #08220f;
      }

      .cls-50 {
        fill: #113f23;
      }

      .cls-51 {
        fill: #3a3834;
      }

      .cls-52 {
        fill: #1fdf72;
      }

      .cls-53 {
        fill: #01250e;
      }

      .cls-54 {
        fill: #21cb67;
      }

      .cls-55 {
        fill: #f9fc91;
      }

      .cls-56 {
        fill: #03c758;
      }

      .cls-57 {
        fill: #d7ca8b;
      }

      .cls-58 {
        fill: #ca8b77;
      }

      .cls-59 {
        fill: #aa6a5f;
      }

      .cls-60 {
        fill: #31692d;
      }

      .cls-61 {
        fill: #e4ee8e;
      }

      .cls-62 {
        fill: #11461e;
      }

      .cls-63 {
        fill: #063217;
      }

      .cls-64 {
        fill: #826856;
      }

      .cls-65 {
        fill: #0e4725;
      }

      .cls-66 {
        fill: #564b4a;
      }

      .cls-67 {
        fill: #0d4b0e;
      }

      .cls-68 {
        fill: #01400b;
      }

      .cls-69 {
        fill: #163c1f;
      }

      .cls-70 {
        fill: #916d5c;
      }

      .cls-71 {
        fill: #edf39a;
      }

      .cls-72 {
        fill: #221f1d;
      }

      .cls-73 {
        fill: #0b7537;
      }

      .cls-74 {
        fill: #79706a;
      }

      .cls-75 {
        fill: #34905d;
      }

      .cls-76 {
        fill: #174225;
      }

      .cls-77 {
        fill: #0d733b;
      }

      .cls-78 {
        fill: #a67b6f;
      }

      .cls-79 {
        fill: #0e7632;
      }

      .cls-80 {
        fill: #13291a;
      }

      .cls-81 {
        fill: #016017;
      }

      .cls-82 {
        fill: #d1998e;
      }

      .cls-83 {
        fill: #796e6a;
      }

      .cls-84 {
        fill: #9c7766;
      }

      .cls-85 {
        fill: #063316;
      }

      .cls-86 {
        fill: #0a4210;
      }

      .cls-87 {
        fill: #4d4843;
      }

      .cls-88 {
        fill: #024c1e;
      }

      .cls-89 {
        fill: #4a4e34;
      }

      .cls-90 {
        fill: #47300b;
      }

      .cls-91 {
        fill: #452115;
      }

      .cls-92 {
        fill: #c78979;
      }

      .cls-93 {
        fill: #236937;
      }

      .cls-94 {
        fill: #a87865;
      }

      .cls-95 {
        fill: #78914f;
      }

      .cls-96 {
        fill: #646261;
      }

      .cls-97 {
        fill: #787757;
      }

      .cls-98 {
        fill: #1d6b37;
      }

      .cls-99 {
        fill: #362307;
      }

      .cls-100 {
        fill: #0b381c;
      }

      .cls-101 {
        fill: #cba16e;
      }

      .cls-102 {
        fill: #112110;
      }

      .cls-103 {
        fill: #0e4421;
      }

      .cls-104 {
        fill: #0a7026;
      }

      .cls-105 {
        fill: #144a25;
      }

      .cls-106 {
        fill: #706c68;
      }

      .cls-107 {
        fill: #000900;
      }

      .cls-108 {
        fill: #0f4517;
      }

      .cls-109 {
        fill: #f0f3b0;
      }

      .cls-110 {
        fill: #0b1f11;
      }

      .cls-111 {
        fill: #c28976;
      }

      .cls-112 {
        fill: #1c1713;
      }

      .cls-113 {
        fill: #0c803e;
      }

      .cls-114 {
        fill: #05632d;
      }

      .cls-115 {
        fill: #078a3f;
      }

      .cls-116 {
        fill: #057936;
      }

      .cls-117 {
        fill: #022611;
      }

      .cls-118 {
        fill: #68625d;
      }

      .cls-119 {
        fill: #c6c864;
      }

      .cls-120 {
        fill: #0b7b3a;
      }

      .cls-121 {
        fill: #02531f;
      }

      .cls-122 {
        fill: #170b0a;
      }

      .cls-123 {
        fill: #ce968a;
      }

      .cls-124 {
        fill: #323932;
      }

      .cls-125 {
        fill: #dfa996;
      }

      .cls-126 {
        fill: #4b433f;
      }

      .cls-127 {
        fill: #573d2e;
      }

      .cls-128 {
        fill: #1f2b05;
      }

      .cls-129 {
        fill: #327128;
      }

      .cls-130 {
        fill: #02461d;
      }

      .cls-131 {
        fill: #09602b;
      }

      .cls-132 {
        fill: #252b24;
      }

      .cls-133 {
        fill: #d89173;
      }

      .cls-134 {
        fill: #165728;
      }

      .cls-135 {
        fill: #f6f695;
      }

      .cls-136 {
        fill: #383633;
      }

      .cls-137 {
        fill: #322a26;
      }

      .cls-138 {
        fill: #33352f;
      }

      .cls-139 {
        fill: #c8c76d;
      }

      .cls-140 {
        fill: #371e1d;
      }

      .cls-141 {
        fill: #9d7c74;
      }

      .cls-142 {
        fill: #cec96a;
      }

      .cls-143 {
        fill: #70492c;
      }
    </style>
  </defs>
  <g id="GreenJetter">
    <path class="cls-102" d="M26.15,62.42c-2.27-4,3.14-3.25,3.11-2.4s-.24,1.65-.85,2.32c2.01,2.21.3,3.09-2.12,2.2-.08-.28-.25-.58-.27-.87-.03-.41.13-.84.13-1.25Z"/>
    <path class="cls-89" d="M28.41,62.34c.12-.91.45-.96.99-.19,2.68.62,2.72.81,1.11,3.12-.03.75-.7.78-2,.07-.43.02-.89.1-1.32.05s-.78-.46-.9-.85c.45-.02.97-.09,1.55-.34s.72-1.14.57-1.86Z"/>
    <path class="cls-25" d="M19.07,51.55c.81-1.22,2.6-2.19,3.73-1.09,0-1.49.99-1.47,2.93.06,2.52.72,1.97,2.63-.64,2.93.7,1.98-.29,2.28-2.99.89-1-.04-2.01.04-2.98.31l-.03-1c.93.04,1.49-.29.71-.92-.41-.34-.43-.9-.74-1.19Z"/>
    <path class="cls-8" d="M15.86,46.77c-.94-3.38,5.94-4.38,3.96-1.14,1.48,1.56.19,3.29-3.87,5.18-1.69-.17-.77-2.66-1.85-3.69-.34-1.65,1.21-2.2,1.76-.35Z"/>
    <path class="cls-5" d="M19.82,45.63c-.6-2.1.46-2.34,1.96-1.07,2.76-.63,1.83,4.73-.86,4.03,1.74,1.6-1.2,2.66-2.87,2.02-.48.4-1.54-.05-2.11.2-.38-3.19,4.04-1.11,3.87-5.18Z"/>
    <path class="cls-8" d="M20.93,48.59c1.99-1.43,2.95-.24,1.87,1.86-.95,1.04-2.38,1.29-3.73,1.09l-1.01-.93c.8-.68,2.31-1.15,2.87-2.02Z"/>
    <path class="cls-62" d="M24.03,57.58c-2.16-2.7,2.12-3.18,4.35-2.08.64-.88,1.25-.86,1.84.06,2.86.95,3.8,2.11,2.81,3.48.86.26.81.53-.08.81-.07.99-1.51,2.1-2.55,2.19-.18.9-.52.93-1,.11l-.99.19c-.36-.6-.76-1.16-1.04-1.52-.55-.71-.97-.22-1,.15-.06.69-.14,1.12-.22,1.45-1.34-1.25-1.21-3.4-2.12-4.84Z"/>
    <path class="cls-93" d="M22.11,54.35c-.14-2.73,1.79.43,2.99-.89,1.33-3.71,5.17-.11,3.28,2.04-.39.11-.75.36-.95.79-.14.3-.07.87.44,1.78-.05,1.57-1.59,1.62-2.02-.05-.17-.66-.79-1.42-1.14-1.52-.32-.09-.69.82-.68,1.07-.63-1-2.19-1.62-1.91-3.23Z"/>
    <g>
      <path class="cls-122" d="M10.32,37.93c1.86-.56,2.01.19.23,1.12.31,1.83,1.04,3.53,2.19,5.11l-.86,1.39c2.07-.14,2.82.38,2.23,1.57,2.26-1.07,2.88.16,1.85,3.69.49-1.22,1.62-1.51,2.11-.2,1.6-.78,1.89-.69,1.01.93,3.95-.04,3.58,3.08.03,2.11-2.25.38-3.66,1.19-4.22,2.44-2.24.39-3.83-.31-4.78-2.12-3.34.09-5.78-1.42-8.09-3.94-2.67.46-2.14-5.73-1.5-7.3,1.83-4.54,5.78-8.47,9.8-4.81Z"/>
      <path class="cls-123" d="M10.54,39.05c1.03.12,2.36-.31,3.07.63-.66.73-.28,2.11,1.14,4.13,1.1,2.32-.91,2.71-2.89,1.74-.38-1.77-1.63-3.13-3.09-4.53.54-1,1.2-1.45,1.76-1.96Z"/>
      <path class="cls-125" d="M14.76,43.81c2.95-1.22,3.81,1.45,1.1,2.96l-1.76.35c-.57-.55-2-.49-2.23-1.57.87-.73,2.75-.13,2.89-1.74Z"/>
      <path class="cls-140" d="M7.71,47.3c-.85.99-1.85,1.4-2.28,1.68-.4.27-1.58-1.22-1.43-1.54,1.25-.51,2.33-.51,3.7-.14Z"/>
    </g>
    <path class="cls-17" d="M41.89,20.86c3-3.6,6.63-6.58,10.89-8.94,2.36-.18,2.4,1.29.12,4.39-1.33,1.09-2.3,2.5-2.93,4.25,1.33,1.43.74,2-.96,1.03-.83.81-1.96,1.76-2.96,1.1-2.02,1.02-3.37.98-4.04-.1-.67.61-.98.37-1-.62.16-.36.78-.75.89-1.12Z"/>
    <path class="cls-91" d="M58.29,1.38c3.88-1.46,5.77-1.02,3.17,2.96-1.23.93-2.93,1.21-3.62,2.16-1,1.37-.56,3.49.04,4.71,1.68.28.15,1.95-1.25,1.92-1.62,1.02-2.17.49-1.19-1.16-1.8-.7-1.89-2.33-.73-3.7,0-2.72,1.78-5.09,3.58-6.89Z"/>
    <path class="cls-38" d="M52.65,11.22c1.24-1.79,2.23-1.29,2.79.76.42.36.82.75,1.19,1.16-1.26,2.87-2.5,3.93-3.73,3.18-.8-1.25.5-2.28.62-4.12l-11.63,8.66c1.26-4.64,6.79-7.25,10.76-9.65Z"/>
    <path class="cls-94" d="M41,21.98c.35.18.68.39,1,.62,1.66,1.42-.09,2.09-1.89,2.42.65,2.36-2.58,5.42-4.79,4.1-.44,1.96-1.39,1.77-1.92-.21,2.27-2.5,4.47-5.59,7.6-6.93Z"/>
    <path class="cls-21" d="M25.47,35.1c.47-1,1.18-1.86,1.94-2.66l.9-.05c1.22-1.52,1.79-.97.87.84,2.55,1.68,1.26,4.08-1.65,3.96-.22.89-.55.91-1,.08-1.46,1.33-2.06-.86-1.07-2.17Z"/>
    <path class="cls-141" d="M65.33,1.02c-2-.04-2.45,2.24-3.87,3.32-.08-.92.3-2.5-.75-3.09-.68-.38-1.75.1-2.42.12,1.4-1.4,5.24-2.08,7.04-.36Z"/>
    <path class="cls-57" d="M32.26,29.08c.38-.03.77-.18,1.14-.17,1.39,1.54,2.05,3.94.03,5.24-1.78,2.11-2.68,1.84-3.03-.89-1.72-1.11.45-3.18,1.86-4.17Z"/>
    <path class="cls-4" d="M32.26,29.08l-1.86,4.17c-.44.91-.84.9-1.22-.03l-.87-.84c.71-1.7,2.05-3.13,3.94-3.31Z"/>
    <path class="cls-127" d="M54.71,8.27c0,1.1,1.47,2.41.73,3.7-.87-.44-1.82-.65-2.79-.76.38-1.04.68-2.66,2.06-2.94Z"/>
    <path class="cls-133" d="M35.39,57.93c0-2.83,1.39-2.86,2.54-.31.66-.74,1.11-.63,1.34.34,1.65-.71,2.12-.37.95,1.1,2.2.28,2.65.92,1.33,1.92,3.28,2.12,5.87,5.72,6.21,9.7-1.55,1.61-3.91.51-5.79.94.04-.48-.4-.98-.38-1.46-4.78-2.54-6.81-5.51-6.09-8.92-1.39.73-1.8-1.11-.89-2.12-1.38-1.04-.96-1.67.77-1.2Z"/>
    <path class="cls-70" d="M33.87,62.57c-.16-1.59.25-2.24,1.63-1.32-.98-.9,6.12,7.9,6.09,8.92-2.66.19-4.5-2.12-7-2.92-1.9-.42-2.6-1.1-2.07-2.04.04-1.08.5-1.97,1.36-2.63Z"/>
    <path class="cls-97" d="M30.52,65.27c-.16-1.89,1.66-1.96,2-.07.81.37,1.24,1.77,2.07,2.04-2.11-.29-4.54-.27-6.07-1.9l2-.07Z"/>
    <path class="cls-101" d="M29.41,62.15l1-.11c1.04-.74,2.03-1.03,2.97-.87,1.41-.23,1.55.44.5,1.4.61.6.68,1.41.47,1.99-.23.63-1.33.83-1.82.64l-2,.07c-.61-.94-.93-2.02-1.11-3.12Z"/>
    <path class="cls-92" d="M21.79,44.56c-.88-.25-.88-.59-.03-1,.44-.02.92-.44,1.32-.31.82-1.77,1.56-1.51,1.37.44.87.24.84.54-.03.88.24,1.54.76,2.82,1.56,3.82,1.93.19,1.78,2.03-.24,2.13-.93.42-1.97.17-2.93-.06-.35-.85-1.05-1.47-1.87-1.86.15-1.45,2.81-2.76.86-4.03Z"/>
    <path class="cls-13" d="M16.72,42.74c.36-1.45,2.25-1.25,3-.1l2.03.93.03,1-1.96,1.07c.12-.4-.17-1.05-.72-.89-.98,1.47-2.11,1.86-3.25,2.03.06-1.11-.23-2.23-1.1-2.96-.81-.26-.81-.59-.03-1-.06-2.08,1.53-2.11,2-.07Z"/>
    <path class="cls-34" d="M24.39,38.4c1.34-1.01,1.88-.5,1.22,1.03.75,1.35.47,3.94-1.16,4.27l-1.37-.44c-.36-1.81-.62-3.99,1.31-4.85Z"/>
    <path class="cls-59" d="M13.61,39.68h1c1.88.58,1.7,2.41.11,3.13l.03,1c-1.71.18-1.87-1.74-3.04-3.44.3-.76,1.2-.69,1.89-.69Z"/>
    <path class="cls-82" d="M14.61,39.69c1.27,0,2.08.63,3.04,1.02,1.1,1.11.54,1.78-.93,2.03l-2,.07-.11-3.12Z"/>
    <path class="cls-78" d="M17.65,40.7c.98.4,2.17.37,2.07,1.93l-3,.1c-.05-.8.13-1.69.93-2.03Z"/>
    <path class="cls-134" d="M24.56,35.1c.29-.58.6-.53.91,0-.4,1.04.58,1.52,1.07,2.17,1.8-.16.68,2.59-.93,2.16l-1.22-1.03.17-3.3Z"/>
    <path class="cls-90" d="M25.74,50.52l.24-2.13c-.89-.2-.91-.52-.09-.97.25-.88.59-.88,1-.03,1.46.35,2.06.97,1.78,1.88,1.21,1.93,2.74,3.43,4.57,4.5-.08-1.82.54-1.97,1.85-.44,1.86-2.73,4.78.21,2.94,2.67,1.83.44,1.69,1.17-.1,1.63-.76-.06-1.89-.13-2.54.31-1.69.02-3.67-1.23-5.17-2.37-.61-.07-1.23-.05-1.84-.06-.15-.62-.29-1.55-1.17-1.67-.54-.07-1.34.05-2.11-.37.49-.9.71-1.91.64-2.93Z"/>
    <path class="cls-128" d="M30.22,55.55c1.88.2,5.23-.11,5.17,2.37-.31.21-.13,1.17-.77,1.2-.4,1.83-1.11,1.68-1.58-.09-.84-1.3-2.52-1.92-2.81-3.48Z"/>
    <path class="cls-15" d="M32.95,59.85l.08-.81,1.58.09c.73.38.41,1.68.89,2.12-.35.65-.89,1.18-1.63,1.32l-.5-1.4c-1.78.56-1.9-.11-.42-1.32Z"/>
    <path class="cls-109" d="M32.95,59.85l.42,1.32c-1.04.61-2.2,2.6-2.97.87.48-1.09,1.29-2.12,2.55-2.19Z"/>
    <path class="cls-103" d="M90.22,24.2c1.61-2.39,4.48-3.65,5.72-6.3.18.06.49-.08.7-.07,1.32-.62,2.63-.35,2.5,1.23,2.26.32,2.14,1.72-.36,4.2l.42,1.68c.91,1.09.26,1.93-1.94,2.52-1.22-2.12-2.59-2.48-4.1-1.09,1.3,2.15-.01,3.28-1.98,1.82-1.04,2.03-2.78,1.18-1.83-.89-2.16-1.46-1.22-2.35.87-3.09Z"/>
    <path class="cls-132" d="M98.85,15.65c5.77-.18,12.23.01,16.1-4.59.54-1.64,3.57-2.58,4.6-1.1,1.67-.42,2.9-.68,2.07,1.13.88.18.85.46,0,.83-.87,2.17-2.06,2.16-3.95,1.1-.15,1.66-1,1.65-1.92.25.17,2.37-1.8,3.36-5.9,2.99-.8,2.33-4.79,3.55-7.08,2.53-1.18,1.73-1.98,1.43-1.73-.65-1.72-.09-2.78-.6-3.18-1.51.35-.31.62-.69,1-.97Z"/>
    <path class="cls-110" d="M97.86,16.63c1.26.23,4.54-.5,3.18,1.51.23,1.88-.57,2.26-1.9.91-.94-.15-1.84-.53-2.5-1.23.33-.47.79-.82,1.22-1.2Z"/>
    <path class="cls-76" d="M70.42,27.85c4.14-1.27,8.45-2.19,12.75-2.5,2.67-.17,2.64.79.22,1.88l-.67.87c-4.28.51-8.41,1.34-12.4,2.5.56,1.07-.08,1.52-1.94,1.33.34,2.04-3.7,2.01-3.95-.04,1.59-1.61,3.74-3.35,5.99-4.04Z"/>
    <path class="cls-85" d="M58.45,34.28c.32-.6.98-.96,1.96-1.07.95-.66,2.84-1.68,4.01-1.32.9.44.92.78-.02,1.18-.65,1.55-1.47,2.76-2.48,3.62-.21,7.45-7.04,2.6-3.48-2.41Z"/>
    <path class="cls-130" d="M55.16,31.15c1.39.34,2.31.49,2.26,2.16-.11,1.38-1.33,1.31-2,.07-.37,1.03-1.65,1.28-2,.07-1.69.48-2.21.32-1.13-1.16.9-.28,1.67-1.54,2.86-1.13Z"/>
    <path class="cls-40" d="M57.42,33.31l3-.1c-.66.46-1.16.86-1.96,1.07-.35,2.09-1,2.45-1.96,1.07-.84.44-1.15.07-1.03-.96-.88-.25-.88-.59-.03-1l2-.07Z"/>
    <path class="cls-117" d="M83.17,25.35c1.05-.08,2.18.02,2.95-.86l4.1-.29c.67,1.1-.33,2.12-.87,3.09,1.24,3.5-4.76,2.23-5.96-.06l-.22-1.88Z"/>
    <path class="cls-29" d="M46.04,22.7c.65-1,1.84-1.2,2.96-1.1-.54,2.53-3.33,2.81-4.99,4.16-1.26.92-1.75.38-.82-.78-.79-2.07.89-2.18,2.84-2.28Z"/>
    <path class="cls-58" d="M42,22.61c1.28-.72,2.7-.24,4.04.1-1,.7-2.03,1.36-2.84,2.28-.08.9-.36.92-.83.11-1.11,1.49-1.92,2.01-2.25-.07.88-.45,1.25-1.73,1.89-2.42Z"/>
    <path class="cls-84" d="M52.9,16.31l-1.93,4.22-1,.03c-.08-1.01-.1-2.06.36-3.01s1.7-.84,2.57-1.24Z"/>
    <path class="cls-41" d="M35.32,29.12c1.57-1.45,2.88-3.13,4.79-4.1l2.25.07c1.07,1.15-.79,3.68-1.96,4.83-1.22,2.4-2.57,3.06-4.03,1.98-2.07,2.87-3.1-1.57-1.04-2.78Z"/>
    <path class="cls-36" d="M33.4,28.91c.64.02,1.28.15,1.92.21-.22.31.15,1.14.04,1.55-.15.56.05,1.65,1,1.24,2.11,1.38.47,3-1.68,2.26-.13.9-.81.72-1.26-.01-.1-1.74-.13-3.49-.03-5.24Z"/>
    <path class="cls-108" d="M29.18,33.23c.33.16.85-.03,1.22.03,1.06.15,2.07.45,3.03.89.35.16.88-.09,1.26.01.96-.29,1.22.01.78.92l-.93,2.03c-.82.46-1.84.7-3.06.74-1.51,2.33-2.45,2.14-2.96-.58-.34.73-.67.69-.98-.08l1.65-3.96Z"/>
    <path class="cls-7" d="M25.61,39.43c.35-.52,1.53-1.36.93-2.16l1-.08.98.08c2.3,1.66.58,5.14-1.75,6.24.07,2.76-.96,2.23-2.32.18.24-1.39.39-3.11,1.16-4.27Z"/>
    <path class="cls-6" d="M43.49,61.06c.53.82,1.49,2.44,2.66,2.43-.17,2.59,3.66,4.68,1.61,7.2-.55,0-1.64.38-1.91-.42-.12-.35.81-1.22.78-1.79-.91-3.11-3.81-4.8-5.07-7.49.6-1.68,1.48-1.7,1.94.08Z"/>
    <path class="cls-98" d="M40.22,59.06c.87-.9,1.87-1.65,3.01-2.24.19-1.31,2.04-.83,2.86.06l2.25,1.43c3.24-.86,7.18-.17,3.01,2.13-2.63.06-5.26.13-7.86.63-.62.12-1.31-.16-1.94-.08-.32-.69-1.19-1.08-1.33-1.92Z"/>
    <path class="cls-95" d="M38.03,55.99c.44-2.23,2.46-2.6,4.13-1.14.25-.88.59-.88,1-.03.75-1.64,1.98-1.14,1.96.64.5-.77.85-.67,1.07.25,1.94,0,1.87.77-.11,1.16-.9.19-1.94-.04-2.86-.06-.58,1.34-2.66,1.58-3.96,1.14-.45-.06-.88-.3-1.34-.34l.1-1.63Z"/>
    <path class="cls-22" d="M43.23,56.82c.23.79.02,1.65-.6,1.93-.87.38-1.67.35-2.41.31-.07-.43-.8-.68-.95-1.1,1.02-1.16,2.53-1.17,3.96-1.14Z"/>
    <path class="cls-24" d="M24.45,43.7l2.32-.18c1.79-2.04,2.44-1.78,1.94.86,1.62,1.46,1.01,2.47-1.82,3.01l-1,.03c-.88-.07-1.37-1.02-1.48-2.85.07-.28-.01-.59.03-.88Z"/>
    <path class="cls-111" d="M24.41,44.57c.9.69,1.38,1.72,1.48,2.85l.09.97c-.65.15-.91.76-1.97,1.12.2-2.09.02-3.48.4-4.94Z"/>
    <path class="cls-43" d="M33.82,50.25c-2.18-2.68.99-1.67,3.3-.87,2.58.12,3.52-1.16,3.73-3.48-1.42,1.1-1.93.57-1.03-.96-2.66-.23-2.53-1.09-.07-2,.27-.66.61-.66,1-.03,1.04-.46,2.91-.45,3.03.89,1.54-.7,2.8-.74,1.91.99,1,1.58.91,3.89-.72,5.05,1.64,2.06,1.19,2.82-1.34,2.27l-1.46,2.75c-.77.82-3.04,1.85-4.13,1.14-1-.76-1.56-2.26-2.94-2.67-1.47.43-2.33-2.18-1.27-3.08Z"/>
    <path class="cls-99" d="M31.73,47.8c1.46-.59,2.83.97,2.09,2.45.67.61.39,2.62,1.27,3.08,1.62.81-1.76.41-1.85.44-1.94-.59-3.96-2.45-4.57-4.5-.61-.25-1.9-1.18-1.78-1.88,1.72-2.07,4.06-2.27,4.84.41Z"/>
    <path class="cls-143" d="M28.67,49.26c1.68.69,4.54,2.14,4.57,4.5-1.24.32-2.9.39-4.03-.9-.67-.76-.52-2.31-.54-3.6Z"/>
    <path class="cls-131" d="M83.38,27.23c2.03-.02,4.1,1.37,5.96.06.43.59,1.11.91,1.83.89,2.73.32,2.96.97.99,2.9.91.18.91.47.05.88-.5,1.64-3.46,3.21-4.12,1.18-5.1-2.42-10.73-2.75-16.91-.97-1.59-.1-2.12-.46-.87-1.57,3.72-2.79,8.47-3.32,13.07-3.37Z"/>
    <path class="cls-49" d="M93.16,26.36c.9-3.11,4.63.44,6.03-1.43.41-2.53,2.33-3.94,4.83-3.06-.79-4.05,7.02-2.38,3.1.4,2.41,3.18-5.64,7.71-7.93,5.73.64,2.08-.95,3.76-4.76,5.04-.3.87-.68.9-1.13.09-1.69.64-2.25.28-1.09-1.18-.07-.27.05-.62-.05-.88,1.31-2.1,1.64-3.67.99-4.71Z"/>
    <path class="cls-27" d="M99.14,19.05c.56-.44,1.22-.71,1.9-.91.52.36,1.12.55,1.73.65,2.63-.15,2.7.96,1.25,3.08-1.22,1.55-2.81,2.89-4.83,3.06-2.11.8-2.54-2.14-1.8-3.72.38-.8,1.97-.29,1.74-2.16Z"/>
    <path class="cls-65" d="M91.18,28.18c.72-.53,1.4-1.13,1.98-1.82,1-.21,2.24-.75,3.21.39-.79,2.62-2.35,3.8-4.2,4.32-.37-.95-.73-1.91-.99-2.9Z"/>
    <path class="cls-138" d="M102.77,18.79c2-1.72,4.4-2.96,7.08-2.53,2.75-1.37,5.85-1.57,5.09,2.15l-.06.77c-1.12,2.7-4.69,5.89-7.75,3.08.12-.35.29-.65.44-.95l-3.54.55c-.63-.93-1.08-1.97-1.25-3.08Z"/>
    <path class="cls-42" d="M115.75,13.27l3.18,1.55c-1.84-.17-2.26-.77-1.26-1.8,1.02-1.08,2.51-1.42,3.95-1.1,1.91.56,1.93,1.47.06,2.14l.34,1.66c-1.5.49-1.88,1-1.12,1.53-1.61.69-4.15,1.52-5.95,1.15-1.51-.83-3.06-2.36-5.09-2.15,1.53-1.68,3.81-2.25,5.9-2.99Z"/>
    <path class="cls-118" d="M121.61,11.92v-.83c-.24-1.35.91-1.74,2.03-1.1.91-.29,1.26.03,1.03.96,1.07.8,1.77,1.78,2.1,2.93.76.49.44,1.45-.3,1.89-1,.8-2.26.88-3.47,1.08-2.72,0-3.06-.71-1.32-2.79-.06-.71-.07-1.43-.06-2.14Z"/>
    <path class="cls-10" d="M115.75,13.27c.6-.21,1.31-.07,1.92-.25.32.95,1.36.96,2.15,1.65-1.24.93-2.33.49-3.45.55-.64.03-.7-1.19-.61-1.95Z"/>
    <path class="cls-136" d="M122.73,8.94c.97-.23,1.28.12.91,1.05-.65.41-1.32.79-2.02,1.1-.31-.86-1.24-1.08-2.07-1.13,1.11-.66,1.87-.85,3.18-1.03Z"/>
    <path class="cls-46" d="M35.46,35.08c.39-1.99,2.34-2.47,3.81-1.14l3.15-.11c1.01.16,1.69.53,2.04,1.12l.27,1.53-6.2.49c-.09,1.24-1.42,1.29-4,.14.08-.49-1.05-1.1-.94-1.54.14-.53,1.45-.54,1.87-.5Z"/>
    <path class="cls-64" d="M36.36,31.9c1.01-.93,2.58-2.05,4.03-1.98-.05,1.39-.83,2.69-1.12,4.02-.77,1.17-2.59,1.26-3.81,1.14-.22-.34-.47-.65-.78-.92.91-.44,1.01-1.65,1.68-2.26Z"/>
    <path class="cls-31" d="M52.29,32.29c.4.36.78.75,1.13,1.16-.25,1.06-1.23,1.76-2.93,2.1-.19.94-.53.92-1,.03-2.87.67-4.55.46-5.02-.64-.81-.06-1.67-.35-2.04-1.12,3.3-.11,6.68-.55,9.87-1.55Z"/>
    <path class="cls-18" d="M42.36,25.09c.28,0,.56-.1.83-.11.65-.4.73.36.82.78-1.39,1.14-1.1,4.29-3.62,4.16.07-1.87,1.42-3.12,1.96-4.83Z"/>
    <path class="cls-116" d="M70.31,30.6c-.97,3.07,8.45-2.24,12.64-1.62,1.97.29,3.53,3.34,6.02,1.18-.08,1.65-.72,2.11-.89,2.97.51.79.26,1.09-.7.92-3.05.83-5.7,1.06-7.93.69-2.3-.91-5.92-1.46-10.86-1.66l-.24-1.16c.25-.93,1.34-.88,1.94-1.33Z"/>
    <path class="cls-113" d="M64.43,31.89c1.3.68,2.67,1.3,3.95.04,4.08,2.61,12.32-1.76,11.1,2.81-1.5,1.2-4.92,2.06-5.99.27-2.87.71-7.27,1.64-9.09-.91-.63-.32-.6-.67.02-1.04l.02-1.18Z"/>
    <path class="cls-26" d="M56.49,35.35c.65-.24,1.29-.9,1.96-1.07.13,1.45-.1,3.05.34,4.87.5.22,1-.69,1.33-.92.59-.41-.38-1.39-.38-2.18,1.01-1.77,3.25-1.93,4.67-2.99l-.02,1.04c2.31,1.73,5.34,2.03,9.09.91,1.83.05,4.07-.51,5.99-.27.75.09,8.54-2.96,7.93-.69.47,1.1-.15,1.87-1.88,2.3l-16.69,4.98c.13,1.79.04,2.79-1.97,3.32.34,1.93-.48,1.98-1.26.1-1.12,1.13-2.64,1.13-2.79-.6.38-1.37-.96-.97-4.01,1.2.52.76.3,1.02-.61.79-.53,1.06-.97.79-1.34-.81-.67-.27-.67-.61-.03-1,.82-1.98.57-4.06-.27-5.99-1.92.37-2.15-.61-.69-1.98-1.31-.73-.88-1.17.64-1.02Z"/>
    <path class="cls-75" d="M53.42,33.45l2-.07.03,1c.44,1.66-1.55,1.94-2.96,1.1-.16,2.04-1.16,1.99-2,.07.67-1.06,1.78-1.67,2.93-2.1Z"/>
    <path class="cls-68" d="M55.45,34.38c.36.3.71.63,1.03.96-.21.23-.23.88-.64,1.02.62,2.59-.4,2.67-1.67.33-1.61,2.46-3.1,1.39-1.69-1.21,1.06-.13,2.06-.55,2.96-1.1Z"/>
    <path class="cls-79" d="M28.52,37.27c1.01.08,1.99.29,2.96.58.51-.44.89-.33,1.1.33,2.74.3,2.49.91.07,2-.72,1.39-.68,2.39.1,3,.33-1.77,3.7-1.07,5-.17.81,1.94-3.68,2.35-5.02,1.43.16,2.47-3.6,2.13-4.01-.05-.63,0-1.3-.91-1.94-.86-.31-2.25.82-4.25,1.75-6.24Z"/>
    <path class="cls-14" d="M34.54,37.11l4-.14c2.17-.52,3.85-.25,5.03.82.88.25.88.59.03,1-.26.87-2.28.8-3,.1.28,1.52-2.02.9-3,.1-2.12.03-3.8-.24-5.03-.82l-1.1-.33c.4-1.09,2.1-.71,3.06-.74Z"/>
    <path class="cls-45" d="M52.88,56.9c-.03-1.53,1.39-2.39,4.27-2.57,1.35-2.39,1.64-2.6,2.97-.07,1.89-.39,2.13.3.54,1.49,2.91.16,4.5.91,4.76,2.26-3.38-.39-6.69.08-10.02.68-2.07,1.59-4.67-.51-2.52-1.79Z"/>
    <path class="cls-105" d="M85.43,62.05c1.77-.91,2.26-.31,1.05,1.26l-2.08,1.09c-3.06.05-6.05-.61-8.93-1.63-1.95-.66-2.95-1.67-2.99-3.01,1.68-2.07,4.38-1.82,8.1.75,2.45-.39,4.07.12,4.85,1.54Z"/>
    <path class="cls-69" d="M68.26,56.97c2.35-1.37,3.15-1.08,3.05,1.79.3,1.03-.08,1.43-1.13,1.19-1.15-1.07-3.51-1.11-4.76-1.95-1.31-1.63-4.96.61-4.76-2.26.17-4.68,5.18-.73,7.6,1.22Z"/>
    <path class="cls-86" d="M46.09,56.88c1.28-1.08,5.03-.44,6.8.02-.55,1.11,1.65,1.94,2.52,1.79-.68,1.41-2.58,1.71-4.06,1.74.2-.73,1.45-1.27.27-2.14-1.77.84-3.01,1.79-4.27.97-.7-.45-1.35-1.45-1.26-2.39Z"/>
    <path class="cls-30" d="M71.31,58.76c1.39-1.45,2.02-.87,1.17,1,1.03.98,2.21,1.81,2.99,3.01-2.23-.1-3.89-1.26-5.29-2.82.42-.36.8-.75,1.13-1.19Z"/>
    <path class="cls-72" d="M116.42,61.27c1.36-1.37,1.89-.83,1.03.96-1.75-.05-3.7-.22-4.96,1.17-1.71.14-3.33.68-4.96,1.17-.84.44-1.15.07-1.03-.96-.88-.25-.88-.59-.03-1,0-.66.08-1.22.4-1.43.41-.28,8.71-1.1,9.56.09Z"/>
    <path class="cls-107" d="M103.34,63.82c-.29-2.32,2.56-2.4,3.17-.21.36.3.71.62,1.03.96-.96,1.22-2.53,1.22-3.96,1.14l-.03-1c-.9,0-.95-.31-.2-.9Z"/>
    <path class="cls-12" d="M79.16,53.56c3.63-.36,9.7,2.28,13.24,4.11,2.1.66,3.04,1.84,2.84,3.54,1.53,1.25.23,2.51-3.88,3.8-.57,0-1.58,0-1.93-.59l-2.96-1.1c-.32-.45-.67-.87-1.05-1.26-2.5-3.43-6.33-5.4-11.5-5.92-2.07-.62-2.53-1.76-.95-3.36.89-2.01,2.95-1.75,6.18.79Z"/>
    <path class="cls-100" d="M95.24,61.22c-.59-1.85.13-2.13,1.4-.61-.16-3.1,5.91-7.16,7.74-4.51,2.72-.33,2.77-.28,1.77,2.35,1.03,1.42.95,2.25-.84,2.06-.54,1.55-2.5,2.22-5.87,2.04-1.73,1.06-1.39,1.15,1.01.28,1.07-1.59,3.32-1.19,2.87,1l.2.9-3.98.04c-1.85,1-4.09,1.13-6.01.25h-2.18c-.1-.73-1.29-1.32-.2-1.98,2.27.2,3.89-.26,4.08-1.82Z"/>
    <path class="cls-33" d="M86.48,63.32c1.23-.19,2.28-.05,2.96,1.1-1.68-.06-3.36-.05-5.04-.02-.09-1.32,1.26-.96,2.08-1.09Z"/>
    <path class="cls-139" d="M44.97,49.83c.26-.87.6-.91,1.02-.11.97.43,1.66,1.08,2.07,1.93,1.36-1.04,3.64-.17,3.15,1.74,2.13-1.76,2.32-1.81,1.93,1-.1,3.09-4.71,2.37-6.94,1.32-.36.02-.72-.23-1.07-.25-.59-1.37-1.25-1.59-1.96-.64l-1,.03c.01-.95-.28-1.88-1.03-2.54,2.02-.59,3.31-1.09,3.83-2.48Z"/>
    <path class="cls-60" d="M53.13,54.39c-.38-2.9,2.45-3.05,3.99-1.06.88.25.88.59.03,1-1.21,1.19-2.96,1.55-4.27,2.57-2.13,1.66-4.42-.52-6.8-.02l.11-1.16c2.46-.15,5.11.52,6.94-1.32Z"/>
    <path class="cls-23" d="M45.12,55.47c-.7-.04-1.4-.21-1.96-.64.04-.6.04-1.3.34-1.87.33-.63,1.8-.43,2.25.16.39.51-.62,1.54-.63,2.35Z"/>
    <path class="cls-61" d="M28.71,44.38l4.01.05c1.14.04,1.29.36.44,1.15,1.06.16,1.22.63.48,1.4.5,1.83-.64,2.25-1.92.81-1.56-.52-3.22-.47-4.84-.41.2-1.15,1.26-2.04,1.82-3.01Z"/>
    <path class="cls-35" d="M49.66,40.59c-.04-1.1,1.25-.77,2-.07.89.19.87.51.01.94,6.2-1.41,2.76,11.55-1.59,6.32-.88.24-.78-.42-.22-1.2.89-1.27.82-2.4-1.07-1.96.78,1.99,1.72,6.87-.79,6.03-1.31.01-1.58-.76-1.07-1.96-.59-.7-1.01-2-1.26-3.9-.61-.26-1.12-1.04-1.91-.99-.23-.81-.02-1.63.62-2.47l5.27-.74Z"/>
    <path class="cls-37" d="M39.81,44.93c.54,0,.77.69,1.03.96.77,4.32-7.41,4.74-7.2,1.09-.07-.49-.24-.97-.48-1.4,2.71-1.59,4.93-1.81,6.64-.65Z"/>
    <path class="cls-44" d="M40.71,41.9l-.03-1c-.68-.27-.68-.6-.03-1,.52-.9,3.01-.85,4-.14,2.12-.16,3.8.11,5.03.82-1.14,2.45-4.36,1.25-5.89,3.21-1.1.06-2.24-.07-3.03-.89-.88-.25-.88-.59-.03-1Z"/>
    <path class="cls-142" d="M33.64,46.99c1.2.47,2.21,2.07,3.72,1.87,1.43-.19,2.42-1.98,3.48-2.96,1.46.67.75,2.01.31,2.84-1.73,3.28-7.53-.81-7.34,1.51-.78-.72-1.82-1.28-2.09-2.45.56-.43,1.21-.74,1.92-.81Z"/>
    <path class="cls-54" d="M37.71,42.01c.36-1.53,1.88-.97,3-.1l.03,1-1,.03c.04,1.49-1.56,1.5-2,.07l-5,.17c-2.32-2.87,4.22-4.26,4.96-1.17Z"/>
    <path class="cls-129" d="M37.74,43.01l2-.07.07,2c-2.23,0-4.47.16-6.64.65l-.44-1.15c1.69.02,4.04.12,5.02-1.43Z"/>
    <path class="cls-9" d="M45.68,44.78c1.53.65,1.33,2.41,1.26,3.9.68,1.33.41,1.72-.96,1.03-.27.16-.72,0-1.02.11.33-1.67.87-3.33.72-5.05Z"/>
    <path class="cls-112" d="M121.68,14.06c.63.83,1.07,1.78,1.32,2.79-.65.11-1.51.15-2.11.4-1.01-.22-2.14.32-3.07-.67,1.97-.61,3.12-1.28,3.86-2.52Z"/>
    <path class="cls-39" d="M126.78,13.88c-1.85-.83-1.37-3.57.89-3.03l.17,5-1.37-.07c-1.17-.16.29-1.36.3-1.89Z"/>
    <path class="cls-96" d="M126.52,8c.52.52.96,1.11,1.11,1.85-.94,1.39-1.8,2.61-2.96,1.1-.35-.31-.73-.61-1.03-.96s-.58-.73-.91-1.05c1.23-.17,2.4-1.29,3.8-.93Z"/>
    <path class="cls-106" d="M124.67,10.95c.9-.57,1.91-.92,2.96-1.1.07.32.02.68.03,1-1.19.51-.88,2.01-.89,3.03-.73.21-1.55.02-1.83-.62-.33-.75-.28-1.54-.28-2.31Z"/>
    <path class="cls-85" d="M66.85,44.66c-.05-1.42-.05-2.6-.29-5.02,3.81-.24,7.04-2.33,10.97-2.96,3.62-.58,7.21-.57,9.87-2.62.29-.23.43-.67.7-.92,1.43-.16,2.81-.58,4.12-1.18l1.09,1.18c.71,2.9-5.59,7.02-7.58,4.36l-.55,2.36-9.66,3.75c2.1.93,2.9,2.24,2.4,3.91,1.17.51,1.49,1.06.94,1.65-.88,1.85-2.06,1.05-3.09-.5-1.6,1.68-4.29,2.32-5.68.09-3.04,2.38-6.39-1.71-3.24-4.1Z"/>
    <path class="cls-16" d="M44.47,34.95c1.7.12,3.46-.12,5.02.64-.6.98-1.91,1.69-3.93,2.14-.35,1.05-1.07.67-2,.07-1.74.18-3.66.45-5.03-.82,1.3-2.27,4.44-.06,5.93-2.02Z"/>
    <path class="cls-104" d="M49.49,35.59c.25.12.71-.02,1-.03.66-.04,1.34.01,2-.07.25.74.87,1.31,1.69,1.21,1.75.93,1.14,2.3-.79,2.52.12,1.42-1.2,1.68-1.75.3-.27.67-.61.67-1,.03-.93-.64-1.29-1.29-1.07-1.96-2.28.14-2.15-1.17-.07-2Z"/>
    <path class="cls-73" d="M64.39,34.11c3.14-.46,6.17-.17,9.09.91-2.27,2.24-5.27,2.98-9,1.87-1.37-.4-.72-2.03-.09-2.78Z"/>
    <path class="cls-114" d="M65.59,44.76l1.26-.1c.07,2.11,1.51,3.32,3.24,4.1,3.26-.7,4.44,2.92,1.24,3.99-.1,2.67-2.34,2.59-6.71-.25-.37,2.62-4.36,1.98-3.78-.98-1.89.28-1.96-.51-.1-1.16-.71-3.89,1.51-5.18,4.84-5.6Z"/>
    <path class="cls-77" d="M58.79,45.36c1.61-1.37,2.95-1.77,4.01-1.2.7-.33,2.27.17,2.79.6-.32,1.43-1.98,2.12-3.56,2.72.08,1.04,2.6,2.22,1.03,2.56-.89.2-1.51.24-2.31.32-1.34,1.96-2.15.91-2.44-3.16-.96-.23-1.01-.58-.13-1.05l.61-.79Z"/>
    <path class="cls-11" d="M54.17,36.7l1.67-.33c.34.61.55,1.29.69,1.98.85,1.86,1.14,4.08.27,5.99l.03,1c1.11,1.45,1.01,4.46.21,6-4.45,1.85-3.07-4.6-2.05-7.86-1.21-1.42-1.33-2.77-.36-4.06-.54.74-.95.67-1.24-.19.05-.9.3-1.77.79-2.52Z"/>
    <path class="cls-121" d="M62.8,44.15c-1.28.6-2.51,1.33-4.01,1.2,1.39-1.79,3.27-3.58,5.72-4.5.9,2.21-.92,2.43-1.71,3.3Z"/>
    <path class="cls-67" d="M57.04,51.34l-.21-6,1.34.81c0,.26-.03.84.13,1.05,1.76,4.38,1.36,6.43-1.2,6.13-2.67-.23-2.58-1.15-.07-2Z"/>
    <path class="cls-67" d="M56.53,38.35c1.61,1.41,2.05,4.62.27,5.99l-.27-5.99Z"/>
    <path class="cls-56" d="M32.64,40.18c.22-1.62,2.75-1.82,3.96-1.14.83.06,1.18.38,1.03.96,1.8.64,2.04,1.57.07,2-1.5-.08-3.04-1.48-5-.51-.63.31.07,1.43.04,1.68-.82.03-1.19-.6-1.12-1.48.04-.48.58-1.04,1.01-1.52Z"/>
    <path class="cls-115" d="M32.57,38.18c1.67.07,4.05-.86,5.03.82-.27.5-.6.49-1,.03l-3.96,1.14-.07-2Z"/>
    <path class="cls-32" d="M45.56,37.73c2.01-1.4,3.34-1.45,4-.14.41.61.97,1.18,1.07,1.96-1.63.29-3.45.51-5,.17l-2.03-.93-.03-1c.66-.07,1.34-.05,2-.07Z"/>
    <path class="cls-52" d="M37.6,39.01l3-.1c.88.25.88.59.03,1l.03,1c-1.26.63-2.71.57-3.03-.89-.44-.03-.76-.7-1.03-.96.31-.09.68-.02,1-.03Z"/>
    <path class="cls-48" d="M43.6,38.8c.79-.03,1.79.02,2.03.93-.3.41-.63.41-1,.03l-4,.14-.03-1,3-.1Z"/>
    <path class="cls-137" d="M130.55,64.78c-2.61-.36-2.95-3.69-1.25-5.28-.38-.9-.13-1.16.76-.77.38-.14.88.09,1.28.02,0,.29-.09.76.03,1,1.5,2.3,1.17,5.14,1.28,7.81-1,.1-2.01.24-3.02.26-1.89-1.07-.82-2.08.92-3.03Z"/>
    <path class="cls-19" d="M60.12,54.26c-1.9-.95-1.36-2.84.73-2.74,1.36.17,2.6,1.96,3.78.98,2.16.07,5.39,1.99,3.62,4.47-2.47-.93-5.2-2.92-7.6-1.22.06-.52-.55-1.02-.54-1.49Z"/>
    <path class="cls-26" d="M58.31,47.2c.82,1.11,1,2.8,2.44,3.16-.06.35.22.83.1,1.16-.32.87-.71,1.79-.73,2.74-.99.09-1.98.12-2.97.07l-.03-1c1.75-1.49.55-4.07,1.2-6.13Z"/>
    <path class="cls-120" d="M64.63,52.49c.58-.48,1.99-1.81,2.51-1.24.99,1.97,2.6,1.59,4.19,1.48.46-1.96,1.26-1.95,1.64.03-1.01,2.76,15.72,2.06,12.44,9.28-7.29,2.17-7.24-2.17-12.95-2.29-.36-.34-.75-.75-1.17-1-.93-.56-2.42-.8-3.05-1.79-1.06-1.65-2.94-2.57-3.62-4.47Z"/>
    <path class="cls-51" d="M115.2,55.13c1.51.58,3.58-.24,5.01-.03,3.01-.17,6.21-.28,9.03.94.65.75.76,1.72.82,2.68-.31.12-.49.58-.76.77-.22,2.62-1.24,3.79-3.04,3.53-.1.89-.39.9-.85.08-2.82-1.09-2.64-1.9-.04-3.16-3.3-1.19-4.64-1.14-4,.14,2.79.18,2.65,1.61-.02,2.37-1.3-.15-2.61-.19-3.91-.23l-1.03-.96c-2.4-.38-3.09-1.05-2.06-2.01-.09-1.42.19-2.79.84-4.13Z"/>
    <path class="cls-126" d="M122.15,62.42c.28-2.19,3.18-1.71,3.27.69l.85-.08c2.6.53,2.78,1.62.32,2.84-1.89-.49-3.97-1.43-4.43-3.45Z"/>
    <path class="cls-74" d="M121.39,60.1c.18-1.2,1.51-1.25,4-.14.21,1.01-.09,2.13.04,3.16-.91-.79-2.12-.88-3.27-.69-.24.04-.54.07-.78.04l.02-2.37Z"/>
    <path class="cls-66" d="M130.55,64.78c-.06,1.07-.39,2.11-.92,3.03-1.33.02-2.51-.72-3.05-1.94.44-3.03,2.05-3.55,3.97-1.09Z"/>
    <path class="cls-124" d="M106.16,58.45c-.34-1.48.33-1.99,1.72-1.97,2.3.7,4.45,1.63,6.48,2.78.61.74,1.31,1.41,2.06,2.01-3.4-.31-6.64.73-9.96,1.35-2.49.52-2.57-.08-1.14-2.11.11-.75.44-1.43.84-2.06Z"/>
    <path class="cls-50" d="M105.33,60.51c.59.57.94,1.32,1.14,2.11l.03,1-3.17.21c-.86-.57-1.89-.72-2.87-1-.45.41-.78.31-1.01-.28,1.28-1.89,3.75-1.91,5.87-2.04Z"/>
    <path class="cls-63" d="M75.77,48.67c1.04.08,2.08.25,3.09.5,2.52.33,5.08,1.57,7.68,3.7l8.73,3.12c3.72-.35,4.01,2.47,1.36,4.63l-1.4.61c-2.68-.81-4.98-2.66-7.8-4.12-2.76-1.43-6.3-1.43-8.28-3.53-4.75-1.21-5.88-2.84-3.39-4.9Z"/>
    <path class="cls-88" d="M75.77,48.67c.19,2,2,3.42,3.39,4.9-2.1.25-4.14-.37-6.18-.79-.48-.1-1.15-.06-1.64-.03.19-1.17-.5-3.06-1.24-3.99,1.88-.56,3.97-1.37,5.68-.09Z"/>
    <path class="cls-28" d="M107.36,54.46c1.36-1.67,4.65-1.22,6,.37.82-1.88,1.66-1.75,1.84.3-.13,1.2,1.82.91,3.15,1.33-1.03,1.41-2.43,2.55-3.99,2.79-2.22.34-4.14,1.44-6.98,1.26-.1-1,1.46-.81,1.81-1.56.18-.4-3.23-1.11-3.03-.51-.76-.64-1.29-1.49-1.77-2.35-.04-1.09.95-1.63,2.97-1.63Z"/>
    <path class="cls-53" d="M102.93,53.94c1.14-1.31,4.16-1.45,4.43.53-.55.97-1.82,1.68-2.97,1.63-4.48-.21-1.93,2-7.74,4.51-.17-1.41-.18-3.58-1.36-4.63.6-2.94,5.46-4.27,7.64-2.04Z"/>
    <path class="cls-1" d="M99.46,62.55l1.01.28c-1.05,1.5-3.5,1.59-5.07.62,1.71-.93,2.93-.54,4.06-.9Z"/>
    <path class="cls-47" d="M50.09,47.78c2.43.6,3.6-2.44,4.17-4.62l-2.58-1.7c.39-.98,1.37-1.66,2.95-2.04,2.49.73-.14,11.9,2.42,11.92l.07,2c-1.07.91-2.86.69-3.99,1.06l-1.93-1c-2.18-2.29-2.55-4.16-1.11-5.61Z"/>
    <path class="cls-119" d="M48.81,44.62c1.37-1.08,2.86,1.04,1.07,1.96l.22,1.2c-.2.81-.47,2.02.42,2.54.43.25,1.77-.44,2.16-.07,1.17,1.14-.35,2.8-1.47,3.15-1.07-.56-2.37-.77-3.15-1.74-.88-.25-.88-.59-.03-1,1.54-1.63.85-3.96.79-6.03Z"/>
    <path class="cls-135" d="M45.98,49.72c.4-.24.66-.69.96-1.03.51.56.86,1.24,1.07,1.96l.03,1c-.31-.38-1.59.13-1.83-.6-.16-.46-.29-.91-.24-1.33Z"/>
    <path class="cls-81" d="M45.63,39.73c1.46-1.2,3.46-1.26,5-.17l1-.03c.88.25.88.59.03,1l-2,.07c-1.66.06-4.02.86-5.03-.82l1-.03Z"/>
    <path class="cls-55" d="M49.87,46.58c-.14-.78-.21-1.7-1.07-1.96-.03-.9.8-1.48,1.44-1.01.57.42,1.4,1,1.56,1.47.41,1.19-.93,1.88-1.93,1.5Z"/>
    <path class="cls-71" d="M51.63,39.52c.59-.02,1.17-.29,1.75-.3.37,0,.89.09,1.24.19-.35,1.34-1.56,2.24-2.95,2.04v-.94s-.05-1-.05-1Z"/>
    <path class="cls-3" d="M37.64,40.01c1.08.08,2.05.49,3.03.89.75.31,1.75-.62,3.09.29-.72,1.05-2.03.67-3.05.71s-2.02.16-3,.1l-.07-2Z"/>
    <path class="cls-80" d="M82.87,48.54c1.14-.8,2.21.17,3.19,2.93,2.93,1.76,6.62,2.19,9.21,4.5-6.07-.17-11.78-3-16.41-6.82-.48-.39-.61-1.15-.94-1.65,1.4.47,3.44.75,4.95,1.02Z"/>
    <path class="cls-2" d="M49.49,35.59c.14.61-.15,1.44.07,2l-4,.14c.95-1.24,2.28-2.35,3.93-2.14Z"/>
    <path class="cls-83" d="M126.27,63.03c.96-1.55.9-4.51,3.04-3.53.96,1.59,1.36,3.43,1.25,5.28-1.39.09-2.62.78-3.97,1.09.11-.74-.73-2.18-.32-2.84Z"/>
    <path class="cls-20" d="M129.24,56.04c-2.94.17-6.29.48-9.03-.94,2.76-1.71,6.87-1.57,9.03.94Z"/>
    <path class="cls-87" d="M125.38,59.96l-4,.14c-.5-.28-.99-.2-1.05-.57-.14-.83.18-1.34.54-1.46.24-.08,4.33,1.02,4.5,1.89Z"/>
  </g>
</svg>