<?xml version="1.0" encoding="UTF-8"?>
<svg id="Enemy" xmlns="http://www.w3.org/2000/svg" viewBox="0 0 70.97 131.89">
  <defs>
    <style>
      .cls-1 {
        fill: #001501;
      }

      .cls-2 {
        fill: #045521;
      }

      .cls-3 {
        fill: #07df63;
      }

      .cls-4 {
        fill: #a99a6e;
      }

      .cls-5 {
        fill: #743c2b;
      }

      .cls-6 {
        fill: #966e5c;
      }

      .cls-7 {
        fill: #25884c;
      }

      .cls-8 {
        fill: #c68d7b;
      }

      .cls-9 {
        fill: #c7c25b;
      }

      .cls-10 {
        fill: #5b5853;
      }

      .cls-11 {
        fill: #99c46e;
      }

      .cls-12 {
        fill: #09612d;
      }

      .cls-13 {
        fill: #cc8975;
      }

      .cls-14 {
        fill: #03692c;
      }

      .cls-15 {
        fill: #775347;
      }

      .cls-16 {
        fill: #034216;
      }

      .cls-17 {
        fill: #d89b83;
      }

      .cls-18 {
        fill: #755c50;
      }

      .cls-19 {
        fill: #044b1d;
      }

      .cls-20 {
        fill: #0c0c0c;
      }

      .cls-21 {
        fill: #112c15;
      }

      .cls-22 {
        fill: #0b591e;
      }

      .cls-23 {
        fill: #f5f391;
      }

      .cls-24 {
        fill: #cfc270;
      }

      .cls-25 {
        fill: #73624a;
      }

      .cls-26 {
        fill: #0d5f2e;
      }

      .cls-27 {
        fill: #0f532b;
      }

      .cls-28 {
        fill: #252621;
      }

      .cls-29 {
        fill: #927766;
      }

      .cls-30 {
        fill: #1f3c2a;
      }

      .cls-31 {
        fill: #021b05;
      }

      .cls-32 {
        fill: #29a35f;
      }

      .cls-33 {
        fill: #012007;
      }

      .cls-34 {
        fill: #19522c;
      }

      .cls-35 {
        fill: #d6df78;
      }

      .cls-36 {
        fill: #aa7e55;
      }

      .cls-37 {
        fill: #effea6;
      }

      .cls-38 {
        fill: #b2846e;
      }

      .cls-39 {
        fill: #413d3a;
      }

      .cls-40 {
        fill: #186e40;
      }

      .cls-41 {
        fill: #d9957b;
      }

      .cls-42 {
        fill: #403c37;
      }

      .cls-43 {
        fill: #eff18f;
      }

      .cls-44 {
        fill: #1aad43;
      }

      .cls-45 {
        fill: #237238;
      }

      .cls-46 {
        fill: #092c12;
      }

      .cls-47 {
        fill: #f5f890;
      }

      .cls-48 {
        fill: #27ba69;
      }

      .cls-49 {
        fill: #08220f;
      }

      .cls-50 {
        fill: #113f23;
      }

      .cls-51 {
        fill: #3a3834;
      }

      .cls-52 {
        fill: #1fdf72;
      }

      .cls-53 {
        fill: #01250e;
      }

      .cls-54 {
        fill: #21cb67;
      }

      .cls-55 {
        fill: #f9fc91;
      }

      .cls-56 {
        fill: #03c758;
      }

      .cls-57 {
        fill: #d7ca8b;
      }

      .cls-58 {
        fill: #ca8b77;
      }

      .cls-59 {
        fill: #aa6a5f;
      }

      .cls-60 {
        fill: #31692d;
      }

      .cls-61 {
        fill: #e4ee8e;
      }

      .cls-62 {
        fill: #11461e;
      }

      .cls-63 {
        fill: #063217;
      }

      .cls-64 {
        fill: #826856;
      }

      .cls-65 {
        fill: #0e4725;
      }

      .cls-66 {
        fill: #564b4a;
      }

      .cls-67 {
        fill: #0d4b0e;
      }

      .cls-68 {
        fill: #01400b;
      }

      .cls-69 {
        fill: #163c1f;
      }

      .cls-70 {
        fill: #916d5c;
      }

      .cls-71 {
        fill: #edf39a;
      }

      .cls-72 {
        fill: #221f1d;
      }

      .cls-73 {
        fill: #0b7537;
      }

      .cls-74 {
        fill: #79706a;
      }

      .cls-75 {
        fill: #34905d;
      }

      .cls-76 {
        fill: #174225;
      }

      .cls-77 {
        fill: #0d733b;
      }

      .cls-78 {
        fill: #a67b6f;
      }

      .cls-79 {
        fill: #0e7632;
      }

      .cls-80 {
        fill: #13291a;
      }

      .cls-81 {
        fill: #016017;
      }

      .cls-82 {
        fill: #d1998e;
      }

      .cls-83 {
        fill: #796e6a;
      }

      .cls-84 {
        fill: #9c7766;
      }

      .cls-85 {
        fill: #063316;
      }

      .cls-86 {
        fill: #0a4210;
      }

      .cls-87 {
        fill: #4d4843;
      }

      .cls-88 {
        fill: #024c1e;
      }

      .cls-89 {
        fill: #4a4e34;
      }

      .cls-90 {
        fill: #47300b;
      }

      .cls-91 {
        fill: #452115;
      }

      .cls-92 {
        fill: #c78979;
      }

      .cls-93 {
        fill: #236937;
      }

      .cls-94 {
        fill: #a87865;
      }

      .cls-95 {
        fill: #78914f;
      }

      .cls-96 {
        fill: #646261;
      }

      .cls-97 {
        fill: #787757;
      }

      .cls-98 {
        fill: #1d6b37;
      }

      .cls-99 {
        fill: #362307;
      }

      .cls-100 {
        fill: #0b381c;
      }

      .cls-101 {
        fill: #cba16e;
      }

      .cls-102 {
        fill: #112110;
      }

      .cls-103 {
        fill: #0e4421;
      }

      .cls-104 {
        fill: #0a7026;
      }

      .cls-105 {
        fill: #144a25;
      }

      .cls-106 {
        fill: #706c68;
      }

      .cls-107 {
        fill: #000900;
      }

      .cls-108 {
        fill: #0f4517;
      }

      .cls-109 {
        fill: #f0f3b0;
      }

      .cls-110 {
        fill: #0b1f11;
      }

      .cls-111 {
        fill: #c28976;
      }

      .cls-112 {
        fill: #1c1713;
      }

      .cls-113 {
        fill: #0c803e;
      }

      .cls-114 {
        fill: #05632d;
      }

      .cls-115 {
        fill: #078a3f;
      }

      .cls-116 {
        fill: #057936;
      }

      .cls-117 {
        fill: #022611;
      }

      .cls-118 {
        fill: #68625d;
      }

      .cls-119 {
        fill: #c6c864;
      }

      .cls-120 {
        fill: #0b7b3a;
      }

      .cls-121 {
        fill: #02531f;
      }

      .cls-122 {
        fill: #170b0a;
      }

      .cls-123 {
        fill: #ce968a;
      }

      .cls-124 {
        fill: #323932;
      }

      .cls-125 {
        fill: #dfa996;
      }

      .cls-126 {
        fill: #4b433f;
      }

      .cls-127 {
        fill: #573d2e;
      }

      .cls-128 {
        fill: #1f2b05;
      }

      .cls-129 {
        fill: #327128;
      }

      .cls-130 {
        fill: #02461d;
      }

      .cls-131 {
        fill: #09602b;
      }

      .cls-132 {
        fill: #252b24;
      }

      .cls-133 {
        fill: #d89173;
      }

      .cls-134 {
        fill: #165728;
      }

      .cls-135 {
        fill: #f6f695;
      }

      .cls-136 {
        fill: #383633;
      }

      .cls-137 {
        fill: #322a26;
      }

      .cls-138 {
        fill: #33352f;
      }

      .cls-139 {
        fill: #c8c76d;
      }

      .cls-140 {
        fill: #371e1d;
      }

      .cls-141 {
        fill: #9d7c74;
      }

      .cls-142 {
        fill: #cec96a;
      }

      .cls-143 {
        fill: #70492c;
      }
    </style>
  </defs>
  <path class="cls-102" d="M9.84,25.58c4.08-2.13,3.14,3.25,2.29,3.2-.88-.06-1.64-.3-2.29-.93-2.28,1.93-3.1.2-2.12-2.19.28-.07.59-.23.87-.24.42-.02.83.16,1.25.17Z"/>
  <path class="cls-89" d="M9.84,27.84c.91.15.95.48.16,1-.72,2.65-.91,2.69-3.16,1-.75-.06-.75-.73,0-2,0-.43-.07-.9,0-1.33s.48-.77.88-.87c0,.45.05.98.28,1.56s1.12.76,1.84.63Z"/>
  <path class="cls-25" d="M20.96,18.88c1.19.85,2.1,2.67.96,3.77,1.49.06,1.44,1.04-.17,2.93-.81,2.49-2.7,1.87-2.91-.74-2.01.63-2.27-.37-.79-3.02.07-1,.03-2.01-.21-2.99h1c-.07.93.24,1.5.9.74.35-.4.91-.39,1.21-.7Z"/>
  <path class="cls-8" d="M25.84,15.84c3.42-.82,4.17,6.09,1,4-1.61,1.42-3.29.07-5.04-4.05.22-1.68,2.69-.68,3.75-1.72,1.66-.28,2.15,1.29.29,1.77Z"/>
  <path class="cls-5" d="M26.84,19.84c2.12-.52,2.32.54,1,2,.53,2.78-4.79,1.67-4-1-1.66,1.68-2.62-1.29-1.92-2.94-.39-.49.11-1.54-.12-2.11,3.2-.27.97,4.08,5.04,4.05Z"/>
  <path class="cls-8" d="M23.84,20.84c1.36,2.04.14,2.96-1.93,1.81-1.01-.99-1.2-2.42-.96-3.77l.97-.98c.65.82,1.07,2.35,1.92,2.94Z"/>
  <path class="cls-62" d="M14.76,23.63c2.77-2.06,3.1,2.23,1.93,4.42.85.67.81,1.28-.12,1.84-1.04,2.82-2.24,3.72-3.58,2.69-.29.85-.55.79-.81-.11-.99-.1-2.05-1.58-2.1-2.62-.89-.22-.91-.55-.08-1l-.16-1c.61-.34,1.18-.72,1.56-.99.73-.53.26-.96-.12-1.01-.69-.08-1.11-.18-1.44-.27,1.29-1.3,3.44-1.09,4.92-1.95Z"/>
  <path class="cls-93" d="M18.05,21.83c2.73-.04-.49,1.77.79,3.02,3.66,1.46-.07,5.17-2.16,3.2-.09-.39-.33-.76-.76-.98-.29-.15-.87-.1-1.8.38-1.57-.11-1.56-1.65.12-2.02.67-.15,1.45-.74,1.56-1.09.1-.31-.8-.72-1.05-.72,1.02-.59,1.7-2.13,3.29-1.8Z"/>
  <g>
    <path class="cls-122" d="M34.87,10.61c.49,1.88-.26,2-1.13.19-1.84.24-3.56.91-5.18,2.01l-1.36-.91c.07,2.08-.48,2.8-1.65,2.17.99,2.3-.26,2.87-3.75,1.72,1.2.53,1.46,1.67.12,2.11.72,1.62.62,1.91-.97.98-.09,3.95-3.2,3.47-2.11-.04-.3-2.26-1.06-3.69-2.29-4.3-.32-2.25.45-3.82,2.29-4.7.03-3.34,1.62-5.72,4.22-7.95-.37-2.68,5.8-1.93,7.35-1.25,4.47,1.99,8.26,6.07,4.46,9.97Z"/>
    <path class="cls-123" d="M33.74,10.8c-.15,1.02.22,2.37-.73,3.04-.71-.69-2.09-.35-4.17,1-2.36,1.02-2.68-1.01-1.64-2.94,1.78-.32,3.19-1.52,4.64-2.93.98.58,1.41,1.25,1.9,1.83Z"/>
    <path class="cls-125" d="M28.84,14.84c1.12,2.99-1.58,3.76-3,1l-.29-1.77c.57-.56.56-1.98,1.65-2.17.7.9.03,2.75,1.64,2.94Z"/>
    <path class="cls-140" d="M25.6,7.68c-.96-.88-1.33-1.9-1.6-2.34-.25-.41,1.27-1.54,1.59-1.37.46,1.27.43,2.35.01,3.71Z"/>
  </g>
  <path class="cls-17" d="M50.83,42.76c3.49,3.12,6.34,6.85,8.55,11.2.09,2.36-1.37,2.35-4.39-.04-1.04-1.37-2.42-2.39-4.15-3.08-1.48,1.28-2.03.67-1-1-.78-.86-1.69-2.02-1-3-.95-2.06-.87-3.4.24-4.03-.59-.69-.33-.99.66-.97.36.17.72.81,1.09.92Z"/>
  <path class="cls-91" d="M69.72,59.83c1.32,3.93.82,5.81-3.07,3.07-.89-1.26-1.1-2.97-2.03-3.7-1.34-1.05-3.47-.68-4.71-.13-.33,1.67-1.95.09-1.88-1.31-.97-1.66-.41-2.19,1.2-1.15.76-1.77,2.39-1.81,3.72-.6,2.71.09,5.03,1.96,6.76,3.82Z"/>
  <path class="cls-38" d="M60.09,53.85c1.75,1.31,1.21,2.28-.86,2.76-.37.41-.78.8-1.2,1.15-2.82-1.36-3.84-2.64-3.05-3.84,1.27-.75,2.26.58,4.09.77l-8.25-11.93c4.6,1.42,7.01,7.04,9.26,11.09Z"/>
  <path class="cls-94" d="M49.74,41.84c-.19.34-.41.67-.66.97-1.47,1.61-2.09-.16-2.35-1.97-2.38.57-5.32-2.76-3.93-4.93-1.94-.5-1.73-1.45.27-1.91,2.42,2.36,5.43,4.67,6.66,7.84Z"/>
  <path class="cls-21" d="M37.17,25.85c.99.51,1.82,1.25,2.59,2.04l.02.9c1.48,1.27.9,1.82-.87.84-1.77,2.49-4.12,1.12-3.9-1.78-.88-.25-.89-.58-.04-1-1.27-1.51.93-2.03,2.2-.99Z"/>
  <path class="cls-141" d="M69.84,66.88c.11-2-2.16-2.52-3.19-3.98.93-.05,2.49.38,3.11-.64.41-.67-.04-1.76-.04-2.43,1.35,1.44,1.89,5.31.12,7.05Z"/>
  <path class="cls-57" d="M42.95,32.85c.02.38.16.77.13,1.15-1.58,1.33-4.01,1.91-5.24-.15-2.04-1.85-1.74-2.75,1-3,1.17-1.68,3.16.56,4.1,2Z"/>
  <path class="cls-4" d="M42.95,32.85l-4.1-2c-.89-.47-.87-.87.07-1.22l.87-.84c1.67.77,3.06,2.16,3.17,4.05Z"/>
  <path class="cls-127" d="M62.96,56.01c-1.1-.03-2.46,1.38-3.72.6.47-.85.72-1.8.86-2.76,1.03.41,2.64.77,2.87,2.16Z"/>
  <path class="cls-133" d="M14.01,34.97c2.83.09,2.81,1.49.22,2.55.72.69.59,1.13-.39,1.33.65,1.67.29,2.13-1.13.91-.36,2.19-1.02,2.61-1.97,1.26-2.23,3.2-5.92,5.67-9.92,5.87-1.55-1.6-.38-3.92-.74-5.82.48.06.99-.36,1.47-.33,2.71-4.69,5.75-6.61,9.13-5.77-.68-1.41,1.18-1.76,2.15-.81,1.09-1.34,1.71-.9,1.17.82Z"/>
  <path class="cls-70" d="M9.43,33.29c1.59-.11,2.23.33,1.26,1.67.93-.95-8.11,5.84-9.13,5.77-.1-2.66,2.27-4.43,3.17-6.89.48-1.89,1.19-2.56,2.12-2,1.08.08,1.95.57,2.59,1.45Z"/>
  <path class="cls-97" d="M6.84,29.84c1.9-.1,1.91,1.73,0,2-.4.8-1.82,1.17-2.12,2,.37-2.1.43-4.52,2.12-6v2Z"/>
  <path class="cls-101" d="M10,28.84l.08,1c.71,1.06.96,2.06.76,3,.19,1.41-.49,1.53-1.41.45-.62.59-1.43.63-2.01.4-.62-.26-.78-1.36-.58-1.84v-2c.96-.58,2.05-.86,3.16-1Z"/>
  <path class="cls-92" d="M27.84,21.84c.28-.87.62-.86,1,0,0,.44.41.94.27,1.33,1.74.88,1.46,1.61-.49,1.35-.27.86-.57.82-.87-.06-1.55.18-2.84.66-3.88,1.43-.26,1.92-2.09,1.71-2.12-.31-.39-.95-.1-1.97.17-2.93.87-.32,1.5-1,1.93-1.81,1.44.2,2.66,2.9,4,1Z"/>
  <path class="cls-13" d="M29.84,16.84c1.43.41,1.17,2.29,0,3l-1,2h-1l-1-2c.4.14,1.06-.13.92-.68-1.44-1.03-1.79-2.17-1.92-3.32,1.11.1,2.24-.15,3-1,.29-.8.62-.79,1,0,2.08,0,2.05,1.6,0,2Z"/>
  <path class="cls-34" d="M33.91,24.66c.97,1.38.44,1.89-1.07,1.18-1.37.7-3.95.34-4.23-1.31l.49-1.35c1.82-.29,4.01-.48,4.81,1.48Z"/>
  <path class="cls-59" d="M33.01,13.84l-.04,1c-.64,1.86-2.46,1.61-3.12,0h-1c-.12-1.71,1.8-1.8,3.54-2.92.75.33.65,1.22.62,1.92Z"/>
  <path class="cls-82" d="M32.97,14.84c-.05,1.27-.7,2.06-1.12,3-1.15,1.06-1.8.47-2-1v-2h3.12Z"/>
  <path class="cls-78" d="M31.84,17.84c-.44.97-.45,2.15-2,2v-3c.8-.02,1.68.19,2,1Z"/>
  <path class="cls-134" d="M37.21,24.95c.56.31.51.62-.04.91-1.03-.44-1.54.53-2.2.99.1,1.81-2.61.59-2.12-1l1.07-1.18,3.29.29Z"/>
  <path class="cls-90" d="M21.75,25.58l2.12.31c.23-.89.56-.89.98-.05.87.28.86.62,0,1-.4,1.45-1.04,2.02-1.94,1.71-1.97,1.14-3.53,2.61-4.66,4.41,1.83-.01,1.95.61.37,1.87,2.66,1.96-.37,4.77-2.77,2.84-.5,1.82-1.23,1.65-1.62-.16.09-.76.2-1.89-.22-2.55.04-1.69,1.36-3.63,2.55-5.08.09-.61.1-1.23.12-1.84.63-.13,1.56-.23,1.71-1.11.09-.54,0-1.34.45-2.09.88.53,1.88.77,2.91.74Z"/>
  <path class="cls-128" d="M16.56,29.89c-.27,1.88-.07,5.23-2.55,5.08-.2-.32-1.17-.18-1.17-.82-1.81-.47-1.64-1.17.15-1.57,1.33-.8,2.01-2.45,3.58-2.69Z"/>
  <path class="cls-15" d="M12.18,32.47l.81.11-.15,1.57c-.41.72-1.69.35-2.15.81-.63-.37-1.15-.93-1.26-1.67l1.41-.45c-.5-1.79.18-1.9,1.34-.38Z"/>
  <path class="cls-109" d="M12.18,32.47l-1.34.38c-.57-1.06-2.52-2.29-.76-3,1.07.51,2.07,1.36,2.1,2.62Z"/>
  <path class="cls-103" d="M45.8,90.94c2.34,1.69,3.49,4.61,6.09,5.94-.06.18.07.49.05.7.57,1.34.26,2.64-1.31,2.46-.4,2.25-1.79,2.08-4.18-.51l-1.69.36c-1.12.87-1.94.19-2.46-2.03,2.16-1.15,2.57-2.5,1.24-4.06-2.19,1.23-3.28-.12-1.75-2.04-1.99-1.11-1.08-2.82.95-1.8,1.54-2.1,2.39-1.14,3.05.98Z"/>
  <path class="cls-132" d="M54.04,99.87c-.02,5.77-.44,12.22,4.03,16.25,1.62.6,2.45,3.66.94,4.63.36,1.68.58,2.92-1.2,2.03-.22.87-.49.84-.83-.04-2.14-.95-2.08-2.14-.96-3.98-1.66-.21-1.61-1.06-.18-1.93-2.37.09-3.3-1.91-2.78-6-2.3-.88-3.38-4.91-2.28-7.16-1.68-1.24-1.36-2.02.71-1.71.15-1.72.69-2.76,1.62-3.13.29.36.67.65.94,1.03Z"/>
  <path class="cls-110" d="M53.11,98.84c-.27,1.25.34,4.55-1.62,3.13-1.89.16-2.24-.65-.85-1.93.18-.94.59-1.82,1.31-2.46.46.35.79.82,1.16,1.26Z"/>
  <path class="cls-76" d="M42.85,71.03c1.12,4.18,1.89,8.52,2.05,12.83.07,2.67-.89,2.61-1.88.15l-.85-.7c-.36-4.3-1.05-8.46-2.06-12.48-1.09.53-1.51-.14-1.26-1.99-2.05.27-1.88-3.76.18-3.94,1.55,1.64,3.22,3.86,3.83,6.13Z"/>
  <path class="cls-85" d="M36.84,58.84c.59.34.92,1.01,1,2,.62.97,1.58,2.89,1.18,4.06-.47.88-.81.89-1.18-.06-1.53-.7-2.7-1.57-3.53-2.6-7.44-.47-2.35-7.13,2.53-3.4Z"/>
  <path class="cls-130" d="M40.08,55.66c-.39,1.38-.57,2.29-2.24,2.18-1.38-.16-1.26-1.37,0-2-1.02-.41-1.22-1.7,0-2-.42-1.7-.24-2.22,1.2-1.08.25.91,1.48,1.72,1.03,2.9Z"/>
  <path class="cls-40" d="M37.84,57.84v3c-.43-.68-.82-1.19-1-2-2.08-.42-2.41-1.09-1-2-.41-.85-.03-1.15,1-1,.28-.87.62-.86,1,0v2Z"/>
  <path class="cls-117" d="M44.9,83.85c.04,1.06-.09,2.17.76,2.98l.15,4.11c-1.12.63-2.11-.41-3.05-.98-3.54,1.12-2.07-4.84.27-5.96l1.88-.15Z"/>
  <path class="cls-29" d="M48.84,46.84c.97.68,1.14,1.89,1,3-2.51-.63-2.7-3.42-3.99-5.13-.87-1.29-.32-1.76.81-.79,2.1-.72,2.15.97,2.18,2.92Z"/>
  <path class="cls-58" d="M49.08,42.81c.67,1.3.15,2.71-.24,4.03-.66-1.02-1.29-2.08-2.18-2.92-.89-.11-.91-.39-.08-.84-1.45-1.16-1.94-1.99.15-2.24.41.89,1.69,1.31,2.35,1.97Z"/>
  <path class="cls-84" d="M54.99,53.92l-4.15-2.08v-1c1.01-.04,2.06-.03,3,.46s.78,1.73,1.15,2.61Z"/>
  <path class="cls-41" d="M42.8,35.91c1.39,1.62,3.02,2.99,3.93,4.93l-.15,2.24c-1.19,1.02-3.65-.92-4.76-2.13-2.35-1.31-2.97-2.67-1.84-4.1-2.79-2.17,1.68-3.05,2.82-.94Z"/>
  <path class="cls-36" d="M43.08,33.99c-.04.64-.19,1.28-.27,1.91-.3-.23-1.14.11-1.55-.01-.56-.16-1.66,0-1.27.96-1.45,2.06-3.02.36-2.2-1.76-.9-.16-.69-.83.06-1.25,1.75-.04,3.5,0,5.24.15Z"/>
  <path class="cls-108" d="M38.91,29.63c-.17.32,0,.85-.07,1.22-.19,1.05-.52,2.05-1,3-.17.35.06.88-.06,1.25.26.97-.06,1.22-.94.75l-2-1c-.43-.83-.64-1.86-.63-3.08-2.28-1.59-2.06-2.52.68-2.94-.72-.37-.67-.69.11-.98l3.9,1.78Z"/>
  <path class="cls-7" d="M32.84,25.84c.5.36,1.3,1.58,2.12,1l.04,1-.11.98c-1.74,2.24-5.16.4-6.18-1.97-2.76-.02-2.19-1.04-.1-2.33,1.38.29,3.1.5,4.23,1.31Z"/>
  <path class="cls-6" d="M10.6,42.96c-.84.5-2.49,1.4-2.52,2.57-2.58-.26-4.81,3.5-7.25,1.36.02-.55-.33-1.66.49-1.9.35-.1,1.19.85,1.77.84,3.14-.8,4.93-3.64,7.66-4.81,1.65.66,1.65,1.53-.14,1.94Z"/>
  <path class="cls-98" d="M12.71,39.75c.87.9,1.58,1.93,2.13,3.09,1.3.24.76,2.07-.16,2.85l-1.5,2.2c.75,3.27-.08,7.18-2.23,2.93.03-2.63.05-5.26-.35-7.87-.1-.63.2-1.31.14-1.94.7-.3,1.12-1.15,1.97-1.26Z"/>
  <path class="cls-95" d="M15.85,37.68c2.22.52,2.52,2.55.99,4.17.87.28.86.62,0,1,1.61.81,1.07,2.02-.71,1.93.76.52.64.87-.29,1.07-.06,1.94-.83,1.85-1.16-.15-.15-.9.11-1.94.16-2.85-1.32-.63-1.49-2.72-1-4,.08-.45.33-.87.39-1.33l1.62.16Z"/>
  <path class="cls-22" d="M14.84,42.84c-.8.2-1.65-.03-1.91-.67-.35-.88-.29-1.69-.22-2.42.43-.06.7-.78,1.13-.91,1.12,1.06,1.08,2.57,1,4Z"/>
  <path class="cls-24" d="M28.62,24.53l.1,2.33c1.97,1.86,1.69,2.5-.93,1.91-1.52,1.56-2.5.92-2.94-1.92v-1c.1-.87,1.07-1.33,2.9-1.38.28.08.59,0,.87.06Z"/>
  <path class="cls-111" d="M27.74,24.47c-.72.87-1.77,1.32-2.9,1.38l-.98.05c-.13-.66-.73-.94-1.05-2,2.08.27,3.48.14,4.93.57Z"/>
  <path class="cls-43" d="M21.74,33.67c2.76-2.09,1.64,1.04.76,3.33-.21,2.58,1.04,3.55,3.34,3.84-1.05-1.46-.5-1.95,1-1,.33-2.65,1.18-2.49,2,0,.65.29.64.63,0,1,.43,1.05.35,2.92-1,3,.64,1.57.64,2.82-1.06,1.87-1.61.94-3.92.78-5.02-.89-2.12,1.56-2.86,1.09-2.23-1.42l-2.7-1.56c-.79-.8-1.75-3.1-.99-4.17.79-.97,2.31-1.48,2.77-2.84-.38-1.48,2.26-2.25,3.13-1.17Z"/>
  <path class="cls-99" d="M24.26,31.66c.54,1.48-1.07,2.8-2.52,2.01-.64.65-2.63.3-3.13,1.17-.86,1.6-.35-1.77-.37-1.87.65-1.92,2.59-3.87,4.66-4.41.27-.6,1.24-1.86,1.94-1.71,2.01,1.79,2.13,4.14-.58,4.82Z"/>
  <path class="cls-143" d="M22.9,28.55c-.75,1.66-2.3,4.46-4.66,4.41-.28-1.25-.28-2.91,1.04-4,.78-.64,2.33-.44,3.62-.41Z"/>
  <path class="cls-131" d="M43.01,84.01c-.05,2.03-1.51,4.05-.27,5.96-.6.41-.95,1.07-.95,1.8-.41,2.72-1.07,2.92-2.93.89-.21.91-.51.9-.88.02-1.62-.56-3.09-3.57-1.03-4.16,2.6-5.01,3.12-10.63,1.56-16.87.16-1.59.53-2.1,1.6-.82,2.65,3.82,3.02,8.58,2.91,13.18Z"/>
  <path class="cls-49" d="M43.54,93.81c3.08,1.01-.6,4.61,1.22,6.08,2.51.5,3.86,2.47,2.89,4.93,4.07-.65,2.14,7.1-.5,3.09-3.26,2.29-7.51-5.91-5.45-8.12-2.1.56-3.72-1.08-4.87-4.93-.86-.33-.87-.71-.05-1.13-.58-1.71-.2-2.26,1.21-1.05.28-.06.62.07.88-.02,2.06,1.38,3.62,1.76,4.67,1.15Z"/>
  <path class="cls-27" d="M50.64,100.04c.42.58.66,1.25.85,1.93-.37.5-.59,1.1-.71,1.71.05,2.63-1.05,2.66-3.12,1.14-1.51-1.27-2.79-2.91-2.89-4.93-.73-2.14,2.23-2.46,3.78-1.67.79.41.23,1.98,2.1,1.81Z"/>
  <path class="cls-65" d="M41.8,91.76c.51.74,1.08,1.44,1.75,2.04.17,1,.67,2.27-.51,3.19-2.59-.88-3.71-2.48-4.17-4.35.96-.34,1.93-.66,2.93-.89Z"/>
  <path class="cls-138" d="M50.77,103.68c1.65,2.06,2.81,4.5,2.28,7.16,1.28,2.8,1.37,5.9-2.33,5.02l-.77-.09c-2.66-1.22-5.73-4.89-2.81-7.86.34.13.64.31.93.47l-.43-3.56c.95-.59,2-1.01,3.12-1.14Z"/>
  <path class="cls-42" d="M55.84,116.84l-1.66,3.13c.23-1.83.85-2.23,1.85-1.2,1.05,1.06,1.33,2.56.96,3.98-.63,1.89-1.53,1.88-2.14-.01l-1.67.28c-.44-1.52-.94-1.91-1.49-1.18-.63-1.63-1.37-4.2-.94-5.98.88-1.48,2.47-2.97,2.33-5.02,1.62,1.59,2.11,3.88,2.78,6Z"/>
  <path class="cls-118" d="M56.98,122.75l.83.04c1.36-.2,1.71.96,1.03,2.06.26.92-.08,1.26-1,1-.84,1.04-1.84,1.71-3,2-.52.74-1.47.39-1.88-.37-.77-1.02-.8-2.29-.96-3.51.1-2.71.82-3.03,2.84-1.23.71-.03,1.43-.02,2.14.01Z"/>
  <path class="cls-10" d="M55.84,116.84c.19.6.03,1.31.18,1.93-.96.28-1.01,1.33-1.73,2.09-.88-1.27-.41-2.35-.43-3.47-.01-.64,1.21-.66,1.97-.54Z"/>
  <path class="cls-136" d="M59.92,123.96c.19.98-.17,1.27-1.08.87-.38-.66-.74-1.34-1.03-2.06.87-.28,1.12-1.2,1.2-2.03.62,1.13.79,1.89.92,3.21Z"/>
  <path class="cls-46" d="M36.84,35.84c1.98.46,2.38,2.43,1,3.85v3.15c-.2,1-.6,1.67-1.19,2l-1.54.22-.27-6.22c-1.24-.13-1.24-1.46,0-4,.49.1,1.14-1.01,1.57-.88.52.16.49,1.46.43,1.88Z"/>
  <path class="cls-64" d="M39.99,36.85c.9,1.05,1.96,2.65,1.84,4.1-1.38-.1-2.66-.92-3.98-1.26-1.14-.81-1.17-2.63-1-3.85.35-.2.67-.45.94-.75.4.92,1.62,1.07,2.2,1.76Z"/>
  <path class="cls-31" d="M39.04,52.76c-.38.39-.77.75-1.2,1.08-1.05-.29-1.71-1.29-2-3-.93-.22-.91-.56,0-1-.57-2.89-.3-4.56.81-5,.09-.81.4-1.66,1.19-2,0,3.3.31,6.69,1.2,9.92Z"/>
  <path class="cls-18" d="M46.58,43.08c-.02.28.08.56.08.84.38.66-.39.71-.81.79-1.09-1.43-4.25-1.25-4.03-3.76,1.87.13,3.07,1.53,4.76,2.13Z"/>
  <path class="cls-116" d="M40.1,70.83c-3.03-1.08,1.94,8.53,1.18,12.69-.36,1.96-3.46,3.42-1.39,5.98-1.65-.14-2.09-.79-2.94-.99-.81.48-1.09.22-.89-.73-.72-3.08-.86-5.73-.41-7.94.99-2.26,1.67-5.86,2.03-10.8l1.16-.2c.93.29.83,1.37,1.26,1.99Z"/>
  <path class="cls-113" d="M39.02,64.9c-.72,1.27-1.39,2.62-.18,3.94-2.75,3.99,1.33,12.38-3.2,10.99-1.15-1.54-1.88-4.99-.07-5.99-.61-2.89-1.39-7.32,1.22-9.05.34-.61.69-.58,1.04.06l1.18.06Z"/>
  <path class="cls-26" d="M35.84,56.84c.22.65.85,1.32,1,2-1.45.08-3.04-.21-4.88.17-.24.5.65,1.02.87,1.36.39.6,1.41-.33,2.19-.31,1.73,1.07,1.81,3.32,2.83,4.77l-1.04-.06c-1.81,2.25-2.22,5.27-1.22,9.05-.12,1.83.37,4.09.07,5.99-.12.74,2.66,8.64.41,7.94-1.12.44-1.86-.22-2.24-1.96l-4.39-16.86c-1.8.06-2.79-.06-3.25-2.08-1.94.27-1.97-.55-.06-1.26-1.09-1.15-1.04-2.68.7-2.77,1.35.42,1-.93-1.06-4.05-.78.49-1.03.27-.77-.64-1.04-.56-.75-1,.86-1.31.29-.66.63-.65,1,0,1.95.89,4.04.71,6-.06-.3-1.94.69-2.12,2-.62.78-1.28,1.2-.84,1,.68Z"/>
  <path class="cls-75" d="M37.84,53.84v2h-1c-1.68.38-1.88-1.62-1-3-2.04-.23-1.95-1.23,0-2,1.03.71,1.61,1.84,2,3Z"/>
  <path class="cls-68" d="M36.84,55.84c-.32.35-.65.68-1,1-.22-.22-.87-.26-1-.68-2.61.53-2.66-.49-.27-1.68-2.4-1.7-1.28-3.14,1.27-1.64.1,1.06.47,2.08,1,3Z"/>
  <path class="cls-79" d="M34.89,28.82c-.12,1.01-.36,1.98-.68,2.94.42.53.3.9-.37,1.08-.39,2.72-1,2.46-2,0-1.36-.76-2.36-.76-3,0,1.76.39.94,3.74,0,5-1.97.74-2.22-3.76-1.25-5.07-2.48.08-2.01-3.68.19-4.01.03-.63.96-1.26.93-1.91,2.26-.23,4.22.97,6.18,1.97Z"/>
  <path class="cls-14" d="M34.84,34.84v4c.45,2.19.11,3.85-1,5-.28.87-.62.86-1,0-.86-.29-.72-2.3,0-3-1.53.23-.83-2.05,0-3,.04-2.12.38-3.79,1-5l.37-1.08c1.07.44.63,2.12.63,3.08Z"/>
  <path class="cls-45" d="M14.43,52.49c1.53.02,2.34,1.47,2.42,4.35,2.34,1.43,2.54,1.73-.03,2.97.32,1.9-.37,2.12-1.5.49-.26,2.9-1.07,4.46-2.42,4.68.51-3.37.15-6.69-.33-10.04-1.52-2.12.68-4.65,1.87-2.46Z"/>
  <path class="cls-105" d="M8.14,84.83c.84,1.8.24,2.27-1.3,1.01l-1.01-2.12c.05-3.06.82-6.02,1.94-8.86.73-1.93,1.77-2.89,3.11-2.89,2.01,1.75,1.66,4.44-1.03,8.07.31,2.46-.26,4.06-1.71,4.8Z"/>
  <path class="cls-69" d="M13.82,67.85c1.29,2.4.97,3.18-1.89,2.99-1.04.26-1.43-.13-1.15-1.17,1.11-1.11,1.23-3.47,2.11-4.69,1.67-1.25-.44-4.97,2.42-4.68,4.68.33.55,5.2-1.49,7.55Z"/>
  <path class="cls-86" d="M14.69,45.7c1.04,1.32.26,5.04-.26,6.79-1.09-.59-2,1.58-1.87,2.46-1.38-.73-1.62-2.64-1.6-4.12.73.23,1.21,1.49,2.13.35-.77-1.8-1.68-3.07-.82-4.3.48-.69,1.5-1.3,2.43-1.18Z"/>
  <path class="cls-30" d="M11.93,70.84c1.4,1.44.8,2.05-1.04,1.13-1.02.99-1.89,2.15-3.11,2.89.17-2.22,1.4-3.84,3-5.19.34.43.73.83,1.15,1.17Z"/>
  <path class="cls-72" d="M7.84,115.84c1.33,1.41.77,1.92-1,1,.11-1.74.35-3.69-1-5-.08-1.71-.56-3.35-1-5-.41-.85-.03-1.15,1-1,.28-.87.62-.86,1,0,.66.03,1.22.12,1.42.44.27.42.79,8.75-.42,9.55Z"/>
  <path class="cls-107" d="M5.75,102.67c2.33-.21,2.31,2.64.09,3.17-.31.35-.65.69-1,1-1.19-1-1.13-2.57-1-4h1c.04-.9.34-.94.91-.17Z"/>
  <path class="cls-12" d="M16.85,78.87c.23,3.64-2.61,9.61-4.57,13.09-.73,2.07-1.94,2.98-3.64,2.71-1.3,1.48-2.52.14-3.66-4.01.02-.57.06-1.58.66-1.91l1.2-2.92c.46-.3.9-.63,1.3-1.01,3.52-2.38,5.62-6.14,6.32-11.28.69-2.05,1.85-2.47,3.39-.83,1.98.96,1.65,3.01-1.01,6.15Z"/>
  <path class="cls-100" d="M8.64,94.67c1.87-.52,2.12.21.56,1.43,3.11-.05,6.95,6.16,4.24,7.9.24,2.73.18,2.78-2.41,1.69-1.45.98-2.28.87-2.03-.91-1.53-.6-2.14-2.58-1.83-5.93-1-1.77-1.1-1.43-.31,1,1.55,1.13,1.08,3.36-1.09,2.83l-.91.17.1-3.98c-.94-1.88-.98-4.12-.04-6.02l.07-2.18c.74-.08,1.37-1.24,1.99-.14-.28,2.26.12,3.9,1.67,4.15Z"/>
  <path class="cls-33" d="M6.84,85.84c.15,1.23-.03,2.28-1.2,2.92.12-1.68.16-3.35.19-5.03,1.32-.05.91,1.29,1.01,2.12Z"/>
  <path class="cls-139" d="M21.77,44.82c.86.29.89.63.07,1.02-.47.96-1.13,1.62-2,2,.99,1.4.04,3.64-1.85,3.09,1.69,2.19,1.73,2.38-1.07,1.89-3.09-.21-2.21-4.79-1.08-6.98,0-.36.26-.71.29-1.07,1.39-.55,1.63-1.19.71-1.93v-1c.95.04,1.89-.21,2.58-.94.52,2.04.97,3.34,2.35,3.92Z"/>
  <path class="cls-60" d="M16.92,52.82c2.91-.27,2.97,2.55.92,4.02-.28.87-.62.86-1,0-1.15-1.25-1.44-3.01-2.42-4.35-1.58-2.19.67-4.4.26-6.79l1.16.15c.07,2.46-.7,5.09,1.08,6.98Z"/>
  <path class="cls-23" d="M16.13,44.78c.07-.7.25-1.39.71-1.93.6.06,1.3.09,1.86.41.61.35.36,1.82-.24,2.24-.53.37-1.52-.67-2.33-.72Z"/>
  <path class="cls-61" d="M27.78,28.76l-.19,4.01c-.08,1.13-.4,1.28-1.17.4-.2,1.05-.67,1.2-1.42.43-1.85.44-2.22-.71-.75-1.94.58-1.54.58-3.21.58-4.82,1.14.24,1.99,1.33,2.94,1.92Z"/>
  <path class="cls-35" d="M30.84,49.84c1.1,0,.73,1.28,0,2-.22.88-.54.85-.94-.02,1.2,6.24-11.64,2.35-6.26-1.81-.21-.89.44-.76,1.2-.17,1.24.93,2.37.9,2-1-2.01.71-6.93,1.48-6-1,.03-1.31.81-1.55,2-1,.72-.57,2.03-.94,3.94-1.13.28-.61,1.07-1.08,1.06-1.87.82-.2,1.63.04,2.44.7l.56,5.29Z"/>
  <path class="cls-37" d="M26.84,39.84c-.02.54-.72.75-1,1-4.34.62-4.48-7.57-.84-7.24.5-.06.97-.2,1.42-.43,1.49,2.77,1.63,4.99.42,6.66Z"/>
  <path class="cls-44" d="M29.84,40.84h1c.29-.67.63-.65,1,0,.88.55.74,3.04,0,4,.09,2.13-.24,3.79-1,5-2.41-1.22-1.1-4.41-3-6-.03-1.1.14-2.23,1-3,.28-.87.62-.86,1,0Z"/>
  <path class="cls-142" d="M25.01,33.61c-.51,1.19-2.15,2.14-2,3.66.14,1.44,1.9,2.49,2.84,3.58-.72,1.43-2.04.68-2.84.21-3.21-1.84,1.07-7.5-1.25-7.39.75-.76,1.34-1.77,2.52-2.01.41.57.7,1.23.75,1.94Z"/>
  <path class="cls-54" d="M29.84,37.84c1.52.41.9,1.91,0,3h-1v-1c-1.49-.02-1.45-1.61,0-2v-5c2.95-2.22,4.11,4.37,1,5Z"/>
  <path class="cls-129" d="M28.84,37.84v2h-2c.08-2.23,0-4.47-.42-6.66l1.17-.4c-.08,1.69-.27,4.03,1.25,5.07Z"/>
  <path class="cls-9" d="M26.79,45.72c-.7,1.51-2.46,1.24-3.94,1.13-1.36.63-1.73.35-1-1-.15-.27.02-.72-.07-1.02,1.66.39,3.3.99,5.02.89Z"/>
  <path class="cls-112" d="M54.84,122.74c-.85.6-1.82,1.01-2.84,1.23-.08-.65-.09-1.52-.33-2.12.26-1-.24-2.15.78-3.05.54,1.99,1.17,3.17,2.39,3.95Z"/>
  <path class="cls-39" d="M54.84,127.84c.89-1.82,3.62-1.25,3,1h-5l.12-1.37c.2-1.16,1.35.34,1.88.37Z"/>
  <path class="cls-96" d="M60.73,127.79c-.53.5-1.15.92-1.88,1.05-1.36-.99-2.55-1.89-1-3,.32-.34.63-.7,1-1s.75-.55,1.08-.87c.12,1.24,1.21,2.45.8,3.83Z"/>
  <path class="cls-106" d="M57.84,125.84c.54.92.85,1.95,1,3-.32.06-.68,0-1,0-.47-1.21-1.98-.95-3-1-.18-.73.04-1.55.68-1.8.77-.31,1.55-.23,2.32-.2Z"/>
  <path class="cls-85" d="M26.18,66.88c1.42,0,2.6.04,5.03-.12.1,3.81,2.08,7.12,2.57,11.06.46,3.64.31,7.22,2.28,9.96.22.3.65.45.89.73.11,1.44.48,2.83,1.03,4.16l-1.21,1.05c-2.92.6-6.82-5.83-4.09-7.73l-2.34-.64-3.42-9.78c-1.01,2.06-2.34,2.82-3.99,2.26-.55,1.16-1.11,1.45-1.68.88-1.82-.94-.97-2.09.6-3.07-1.62-1.65-2.17-4.37.11-5.68-2.28-3.12,1.93-6.33,4.21-3.1Z"/>
  <path class="cls-16" d="M36.65,44.84c-.18,1.69,0,3.46-.81,5-.96-.63-1.63-1.96-2-4-1.04-.39-.64-1.09,0-2-.12-1.74-.32-3.67,1-5,2.22,1.38-.09,4.44,1.81,6Z"/>
  <path class="cls-104" d="M35.84,49.84c-.13.25,0,.71,0,1,.02.66-.06,1.34,0,2-.75.22-1.34.83-1.27,1.64-.99,1.72-2.34,1.06-2.49-.88-1.42.07-1.63-1.26-.24-1.76-.66-.29-.64-.63,0-1,.67-.91,1.34-1.24,2-1-.06-2.29,1.25-2.11,2,0Z"/>
  <path class="cls-73" d="M36.8,64.79c.35,3.15-.05,6.17-1.22,9.05-2.16-2.34-2.79-5.37-1.56-9.06.45-1.35,2.06-.65,2.78,0Z"/>
  <path class="cls-114" d="M26.12,65.62l.06,1.26c-2.11,0-3.37,1.39-4.21,3.1.59,3.28-3.07,4.33-4.03,1.1-2.67-.2-2.51-2.43.48-6.69-2.61-.46-1.82-4.43,1.11-3.75-.21-1.9.58-1.94,1.16-.06,3.91-.58,5.12,1.69,5.43,5.03Z"/>
  <path class="cls-77" d="M25.76,58.8c1.31,1.66,1.66,3.01,1.06,4.05.3.71-.25,2.26-.7,2.77-1.42-.37-2.05-2.05-2.6-3.65-1.04.05-2.31,2.52-2.6.94-.16-.89-.18-1.52-.24-2.32-1.92-1.4-.84-2.18,3.24-2.33.26-.95.61-.98,1.06-.09l.77.64Z"/>
  <path class="cls-11" d="M34.57,54.49l.27,1.68c-.63.32-1.31.51-2,.62-1.88.78-4.11,1-6,.06h-1c-1.49,1.06-4.49.85-6,0-1.7-4.51,4.71-2.91,7.93-1.78,1.46-1.16,2.82-1.23,4.07-.22-.72-.56-.64-.98.24-1.24.89.08,1.76.36,2.49.88Z"/>
  <path class="cls-121" d="M26.82,62.84c-.55-1.3-1.25-2.56-1.06-4.05,1.74,1.45,3.47,3.39,4.3,5.87-2.24.82-2.4-1-3.24-1.82Z"/>
  <path class="cls-67" d="M19.84,56.84h6l-.86,1.31c-.26,0-.84-.06-1.06.09-4.44,1.61-6.47,1.14-6.09-1.41.32-2.66,1.24-2.54,2,0Z"/>
  <path class="cls-67" d="M32.84,56.78c-1.47,1.56-4.69,1.89-6,.06l6-.06Z"/>
  <path class="cls-56" d="M31.84,32.84c1.61.28,1.72,2.81,1,4-.09.83-.42,1.16-1,1-.7,1.77-1.64,1.99-2,0,.13-1.5,1.58-2.99.68-4.98-.29-.64-1.44.02-1.68-.02,0-.82.64-1.17,1.52-1.06.48.06,1.02.61,1.48,1.06Z"/>
  <path class="cls-115" d="M33.84,32.84c-.13,1.67.72,4.08-1,5-.49-.29-.46-.62,0-1l-1-4h2Z"/>
  <path class="cls-32" d="M33.84,45.84c1.33,2.06,1.33,3.39,0,4-.62.39-1.21.93-2,1-.23-1.63-.39-3.47,0-5l1-2h1c.04.66,0,1.34,0,2Z"/>
  <path class="cls-52" d="M32.84,37.84v3c-.28.87-.62.86-1,0h-1c-.58-1.28-.47-2.73,1-3,.05-.44.73-.73,1-1,.08.31,0,.68,0,1Z"/>
  <path class="cls-48" d="M32.84,43.84c0,.79-.08,1.79-1,2-.4-.31-.39-.65,0-1v-4h1v3Z"/>
  <path class="cls-137" d="M3.84,129.84c.45-2.59,3.79-2.82,5.32-1.07.91-.35,1.16-.09.75.79.13.38-.12.87-.06,1.28-.29,0-.76-.12-1,0-2.35,1.42-5.18.99-7.85,1-.07-1.01-.17-2.02-.15-3.03,1.14-1.85,2.11-.75,3,1.03Z"/>
  <path class="cls-19" d="M16.81,59.81c1.01-1.86,2.89-1.26,2.72.83-.22,1.35-2.05,2.53-1.11,3.75-.15,2.16-2.18,5.31-4.6,3.46,1.02-2.44,3.1-5.1,1.49-7.55.52.07,1.04-.51,1.5-.49Z"/>
  <path class="cls-26" d="M23.93,58.25c-1.13.78-2.83.9-3.24,2.33-.35-.07-.84.19-1.16.06-.86-.35-1.77-.78-2.72-.83-.06-.99-.05-1.98.03-2.97h1c1.43,1.8,4.04.69,6.09,1.41Z"/>
  <path class="cls-120" d="M18.42,64.39c.46.59,1.74,2.06,1.15,2.55-2.01.92-1.68,2.55-1.63,4.14,1.94.53,1.9,1.33-.09,1.64-2.72-1.1-2.61,15.64-9.71,12.11-1.92-7.37,2.42-7.16,2.74-12.86.35-.34.77-.72,1.04-1.13.59-.91.89-2.39,1.89-2.99,1.68-1,2.67-2.85,4.6-3.46Z"/>
  <path class="cls-51" d="M14.02,114.83c-.63,1.49.12,3.59-.15,5.01.07,3.01.07,6.21-1.25,8.99-.77.62-1.74.7-2.71.73-.11-.31-.56-.51-.75-.79-2.61-.31-3.75-1.37-3.42-3.16-.89-.13-.88-.42-.05-.85,1.18-2.78,1.99-2.58,3.15.07,1.3-3.26,1.3-4.59,0-4-.28,2.78-1.71,2.59-2.36-.1.2-1.29.29-2.6.36-3.9l1-1c.46-2.39,1.16-3.05,2.08-1.99,1.42-.04,2.79.28,4.1.98Z"/>
  <path class="cls-126" d="M6.49,121.52c2.18.36,1.59,3.24-.81,3.24l.05.85c-.62,2.58-1.71,2.72-2.85.22.56-1.87,1.56-3.91,3.61-4.31Z"/>
  <path class="cls-74" d="M8.84,120.84c1.19.22,1.19,1.56,0,4-1.02.17-2.13-.16-3.15-.07.82-.88.96-2.09.81-3.24-.03-.25-.05-.54-.02-.78l2.36.1Z"/>
  <path class="cls-66" d="M3.84,129.84c-1.07-.1-2.09-.47-3-1.03.02-1.33.81-2.48,2.05-2.98,3.02.54,3.48,2.17.95,4Z"/>
  <path class="cls-124" d="M11.02,105.68c1.5-.29,1.98.39,1.91,1.79-.78,2.27-1.78,4.4-3.01,6.38-.76.59-1.45,1.26-2.08,1.99.43-3.39-.5-6.66-1-10-.44-2.51.17-2.56,2.14-1.07.74.13,1.41.49,2.03.91Z"/>
  <path class="cls-50" d="M8.99,104.77c-.59.57-1.35.9-2.14,1.07h-1l-.09-3.17c.6-.84.79-1.86,1.09-2.83-.4-.46-.28-.79.31-1,1.85,1.34,1.78,3.82,1.83,5.93Z"/>
  <path class="cls-63" d="M21.86,75.65c-.12,1.04-.33,2.07-.6,3.07-.42,2.51-1.74,5.03-3.96,7.55l-3.42,8.62c.22,3.72-2.61,3.92-4.68,1.2l-.56-1.43c.91-2.65,2.83-4.89,4.39-7.65s1.65-6.25,3.82-8.15c1.37-4.71,3.04-5.78,5.01-3.22Z"/>
  <path class="cls-88" d="M21.86,75.65c-2.01.12-3.49,1.88-5.01,3.22-.18-2.11.52-4.12,1.01-6.15.12-.48.1-1.15.09-1.64,1.16.23,3.08-.4,4.03-1.1.49,1.9,1.23,4.02-.11,5.68Z"/>
  <path class="cls-28" d="M14.96,107.02c1.62,1.41,1.06,4.69-.58,5.99,1.85.88,1.69,1.72-.36,1.83-1.2-.17-.97,1.79-1.44,3.1-1.37-1.07-2.47-2.51-2.65-4.08-.26-2.23-1.3-4.19-1.02-7.02,1-.07.76,1.49,1.5,1.86.39.2,1.22-3.19.61-3.01.67-.74,1.54-1.23,2.41-1.69,1.09,0,1.6,1.01,1.53,3.02Z"/>
  <path class="cls-53" d="M15.64,102.61c1.27,1.18,1.31,4.21-.68,4.41-.95-.58-1.62-1.88-1.53-3.02.36-4.47-1.93-2-4.24-7.9,1.41-.12,3.58-.06,4.68-1.2,2.91.7,4.08,5.6,1.77,7.71Z"/>
  <path class="cls-1" d="M7.16,98.84l-.31,1c-1.46-1.1-1.47-3.55-.44-5.09.87,1.74.44,2.95.76,4.09Z"/>
  <path class="cls-47" d="M23.64,50.02c-.68,2.41,2.31,3.68,4.47,4.33l1.79-2.52c.97.42,1.61,1.43,1.94,3.02-.82,2.46-11.89-.55-12,2h-2c-.88-1.1-.59-2.89-.92-4.02l1.07-1.89c2.36-2.1,4.25-2.4,5.65-.92Z"/>
  <path class="cls-119" d="M26.84,48.84c1.03,1.41-1.14,2.82-2,1l-1.2.17c-.8-.23-2-.54-2.55.34-.26.42.38,1.79,0,2.16-1.18,1.13-2.79-.45-3.1-1.58.59-1.05.85-2.34,1.85-3.09.28-.87.62-.86,1,0,1.57,1.59,3.93.99,6,1Z"/>
  <path class="cls-135" d="M21.84,45.84c.23.41.67.68,1,1-.58.49-1.27.82-2,1h-1c.4-.3-.07-1.59.66-1.81.46-.14.92-.25,1.34-.19Z"/>
  <path class="cls-81" d="M31.84,45.84c1.15,1.5,1.14,3.5,0,5v1c-.28.87-.62.86-1,0v-2c0-1.66-.72-4.05,1-5v1Z"/>
  <path class="cls-55" d="M24.84,49.84c.78-.11,1.71-.15,2-1,.9,0,1.45.85.96,1.48-.44.55-1.05,1.36-1.52,1.51-1.2.37-1.84-.99-1.44-1.99Z"/>
  <path class="cls-71" d="M31.84,51.84c0,.59.25,1.17.24,1.76,0,.37-.12.88-.24,1.24-1.33-.39-2.19-1.64-1.94-3.02l.94.02h1Z"/>
  <path class="cls-3" d="M31.84,37.84c-.12,1.08-.56,2.03-1,3-.34.74.55,1.77-.4,3.08-1.03-.76-.6-2.05-.6-3.08s-.09-2.02,0-3h2Z"/>
  <path class="cls-80" d="M21.74,82.75c.76,1.17-.25,2.2-3.04,3.09-1.86,2.86-2.42,6.54-4.82,9.05.38-6.06,3.41-11.67,7.38-16.17.41-.46,1.17-.57,1.68-.88-.52,1.38-.87,3.42-1.2,4.91Z"/>
  <path class="cls-2" d="M35.84,49.84c-.61.11-1.43-.2-2,0v-4c1.21,1,2.27,2.36,2,4Z"/>
  <path class="cls-83" d="M5.74,125.62c1.52,1.01,4.47,1.06,3.42,3.16-1.62.9-3.47,1.24-5.32,1.07-.04-1.39-.69-2.64-.95-4,.74.13,2.2-.65,2.85-.22Z"/>
  <path class="cls-20" d="M12.62,128.83c-.07-2.95-.26-6.3,1.25-8.99,1.61,2.82,1.33,6.93-1.25,8.99Z"/>
  <path class="cls-87" d="M8.84,124.84v-4c.3-.49.23-.98.6-1.03.83-.11,1.33.22,1.44.6.07.24-1.17,4.29-2.04,4.43Z"/>
</svg>