<?xml version="1.0" encoding="UTF-8"?>
<svg id="Enemy" xmlns="http://www.w3.org/2000/svg" viewBox="0 0 106.9 140.09">
  <defs>
    <style>
      .cls-1 {
        fill: #22262a;
      }

      .cls-2 {
        fill: #16171a;
      }

      .cls-3 {
        fill: #238322;
      }

      .cls-4 {
        fill: #066307;
      }

      .cls-5 {
        fill: #292e31;
      }

      .cls-6 {
        fill: #005c00;
      }

      .cls-7 {
        fill: #1f8421;
      }

      .cls-8 {
        fill: #121e13;
      }

      .cls-9 {
        fill: #111518;
      }

      .cls-10 {
        fill: #207b25;
      }

      .cls-11 {
        fill: #023702;
      }

      .cls-12 {
        fill: #252525;
      }

      .cls-13 {
        fill: #29211d;
      }

      .cls-14 {
        fill: #5c885f;
      }

      .cls-15 {
        fill: #2b3033;
      }

      .cls-16 {
        fill: #383d43;
      }

      .cls-17 {
        fill: #09590a;
      }

      .cls-18 {
        fill: #2e3238;
      }

      .cls-19 {
        fill: #0b610b;
      }

      .cls-20 {
        fill: #4a4a4a;
      }

      .cls-21 {
        fill: #505253;
      }

      .cls-22 {
        fill: #1f741f;
      }

      .cls-23 {
        fill: #267e24;
      }

      .cls-24 {
        fill: #095f09;
      }

      .cls-25 {
        fill: #42474d;
      }

      .cls-26 {
        fill: #242b21;
      }

      .cls-27 {
        fill: #262c25;
      }

      .cls-28 {
        fill: #20811f;
      }

      .cls-29 {
        fill: #2d2d2d;
      }

      .cls-30 {
        fill: #1d841e;
      }

      .cls-31 {
        fill: #292d31;
      }

      .cls-32 {
        fill: #383838;
      }

      .cls-33 {
        fill: #3c3c3c;
      }

      .cls-34 {
        fill: #282b30;
      }

      .cls-35 {
        fill: #453b44;
      }

      .cls-36 {
        fill: #004501;
      }

      .cls-37 {
        fill: #161916;
      }

      .cls-38 {
        fill: #061604;
      }

      .cls-39 {
        fill: #30353a;
      }

      .cls-40 {
        fill: #5b5b5b;
      }

      .cls-41 {
        fill: #32322f;
      }

      .cls-42 {
        fill: #28282d;
      }

      .cls-43 {
        fill: #1c501d;
      }

      .cls-44 {
        fill: #1b811b;
      }

      .cls-45 {
        fill: #0a300a;
      }

      .cls-46 {
        fill: #323935;
      }

      .cls-47 {
        fill: #024c03;
      }

      .cls-48 {
        fill: #111010;
      }

      .cls-49 {
        fill: #083607;
      }

      .cls-50 {
        fill: #279d28;
      }

      .cls-51 {
        fill: #171717;
      }

      .cls-52 {
        fill: #32373c;
      }

      .cls-53 {
        fill: #034004;
      }

      .cls-54 {
        fill: #202225;
      }

      .cls-55 {
        fill: #2f3437;
      }

      .cls-56 {
        fill: #17181b;
      }

      .cls-57 {
        fill: #404040;
      }

      .cls-58 {
        fill: #045a04;
      }

      .cls-59 {
        fill: #005000;
      }

      .cls-60 {
        fill: #1b861b;
      }

      .cls-61 {
        fill: #34393c;
      }

      .cls-62 {
        fill: #282d31;
      }

      .cls-63 {
        fill: #113615;
      }

      .cls-64 {
        fill: #096205;
      }

      .cls-65 {
        fill: #1f1f1f;
      }

      .cls-66 {
        fill: #383d41;
      }

      .cls-67 {
        fill: #011801;
      }

      .cls-68 {
        fill: #013401;
      }

      .cls-69 {
        fill: #141517;
      }

      .cls-70 {
        fill: #23262b;
      }

      .cls-71 {
        fill: #685b38;
      }

      .cls-72 {
        fill: #1c2124;
      }

      .cls-73 {
        fill: #575757;
      }

      .cls-74 {
        fill: #141719;
      }

      .cls-75 {
        fill: #666;
      }

      .cls-76 {
        fill: #43464b;
      }

      .cls-77 {
        fill: #0b7f0b;
      }

      .cls-78 {
        fill: #064405;
      }

      .cls-79 {
        fill: #313128;
      }

      .cls-80 {
        fill: #232321;
      }

      .cls-81 {
        fill: #4b452a;
      }

      .cls-82 {
        fill: #292d30;
      }

      .cls-83 {
        fill: #055705;
      }

      .cls-84 {
        fill: #383e41;
      }

      .cls-85 {
        fill: #433d44;
      }

      .cls-86 {
        fill: #167813;
      }

      .cls-87 {
        fill: #3f8f3c;
      }

      .cls-88 {
        fill: #23262a;
      }

      .cls-89 {
        fill: #165315;
      }

      .cls-90 {
        fill: #21262b;
      }

      .cls-91 {
        fill: #177517;
      }

      .cls-92 {
        fill: #616161;
      }

      .cls-93 {
        fill: #181d21;
      }

      .cls-94 {
        fill: #3b8b3a;
      }

      .cls-95 {
        fill: #42474a;
      }

      .cls-96 {
        fill: #0d230d;
      }

      .cls-97 {
        fill: #272c32;
      }

      .cls-98 {
        fill: #363737;
      }

      .cls-99 {
        fill: #0e4f0f;
      }

      .cls-100 {
        fill: #156515;
      }

      .cls-101 {
        fill: #056505;
      }

      .cls-102 {
        fill: #0a280b;
      }

      .cls-103 {
        fill: #1d1d1d;
      }

      .cls-104 {
        fill: #42474b;
      }

      .cls-105 {
        fill: #44494f;
      }

      .cls-106 {
        fill: #106c0f;
      }

      .cls-107 {
        fill: #101316;
      }

      .cls-108 {
        fill: #515151;
      }

      .cls-109 {
        fill: #145c11;
      }

      .cls-110 {
        fill: #032c07;
      }

      .cls-111 {
        fill: #171718;
      }

      .cls-112 {
        fill: #0b740e;
      }

      .cls-113 {
        fill: #1d871f;
      }

      .cls-114 {
        fill: #222425;
      }

      .cls-115 {
        fill: #2d3136;
      }

      .cls-116 {
        fill: #4a4e55;
      }

      .cls-117 {
        fill: #1f7822;
      }

      .cls-118 {
        fill: #154817;
      }

      .cls-119 {
        fill: #484848;
      }

      .cls-120 {
        fill: #1d2119;
      }

      .cls-121 {
        fill: #076008;
      }

      .cls-122 {
        fill: #185b1e;
      }

      .cls-123 {
        fill: #26292d;
      }

      .cls-124 {
        fill: #2e271e;
      }

      .cls-125 {
        fill: #545454;
      }

      .cls-126 {
        fill: #1a1e21;
      }

      .cls-127 {
        fill: #191b1b;
      }

      .cls-128 {
        fill: #0c6b10;
      }

      .cls-129 {
        fill: #32373b;
      }

      .cls-130 {
        fill: #0f4c05;
      }

      .cls-131 {
        fill: #353535;
      }

      .cls-132 {
        fill: #2a2c2e;
      }

      .cls-133 {
        fill: #0b3508;
      }

      .cls-134 {
        fill: #0a0c0e;
      }

      .cls-135 {
        fill: #474c50;
      }

      .cls-136 {
        fill: #001a00;
      }

      .cls-137 {
        fill: #419b45;
      }

      .cls-138 {
        fill: #144c13;
      }

      .cls-139 {
        fill: #092906;
      }

      .cls-140 {
        fill: #125a11;
      }

      .cls-141 {
        fill: #4a4f55;
      }

      .cls-142 {
        fill: #20851f;
      }

      .cls-143 {
        fill: #233823;
      }

      .cls-144 {
        fill: #373c40;
      }

      .cls-145 {
        fill: #024402;
      }

      .cls-146 {
        fill: #0a3a0a;
      }

      .cls-147 {
        fill: #061805;
      }

      .cls-148 {
        fill: #072001;
      }

      .cls-149 {
        fill: #101510;
      }

      .cls-150 {
        fill: #1c5420;
      }

      .cls-151 {
        fill: #164104;
      }

      .cls-152 {
        fill: #087608;
      }

      .cls-153 {
        fill: #0b0c0f;
      }

      .cls-154 {
        fill: #242424;
      }

      .cls-155 {
        fill: #177c18;
      }

      .cls-156 {
        fill: #09290a;
      }

      .cls-157 {
        fill: #676767;
      }

      .cls-158 {
        fill: #171818;
      }

      .cls-159 {
        fill: #035b03;
      }

      .cls-160 {
        fill: #323232;
      }

      .cls-161 {
        fill: #071407;
      }

      .cls-162 {
        fill: #161616;
      }

      .cls-163 {
        fill: #034903;
      }

      .cls-164 {
        fill: #177d19;
      }

      .cls-165 {
        fill: #181a1e;
      }

      .cls-166 {
        fill: #1f7b21;
      }
    </style>
  </defs>
  <path class="cls-8" d="M98.74,37.94c1.3,0,2.13,1.08,1.3,2.2,2.41-.78,4.83.66,3.59,3.23.67.85.48,1.38-.59,1.57-.27,2.63-5.26.52-4.21-1.9-.77,1.66-1.11,1.32-1-1-1.07.13-2.07.13-3,0,.51.98-.15,1.65-2,2,.47.45.13.81-1.02,1.08,1.26,4.8-6.32.16-2.13-1.85,2.63-2.36,5.52-4.73,9.07-5.33Z"/>
  <g>
    <g>
      <path class="cls-37" d="M91.81,45.12c5.09-1.9,5.25,1.19.98,3.23.64,1.68-.95,2.11-1.98.72-1.51,1.09-2.5,1.08-2.98-.03-.44,2.78-1.6,2.6-2.91.14-.47-.92-.2-2.25.79-3.98l2.91-2.1c.27.04.7.47,1.05.17-.04.81-.24,1.99.6,2.61.39.29,1.08-.74,1.53-.75Z"/>
      <path class="cls-118" d="M102.92,38.97c.16,2.53-1.03,2-2.87,1.17-.85-.41-1.3-1.28-1.3-2.2l1.09-.92c.89.79,1.95,1.53,3.09,1.95Z"/>
      <path class="cls-19" d="M102.92,38.97c.99.37,2.04.43,3.04,1.38.68.65.9,1.66.03,2.63.14,2.79-1.15,2.9-2.35.39-1.3-.98-2.09-2.51-3.59-3.23.72-.84,1.81-1.1,2.87-1.17Z"/>
      <path class="cls-47" d="M81.71,11.1c-3.34,4.81,2.13,1.4-4.02,5.17-.3,2.68-.86,3.71-3.1,1.75-1.89.22-3.1,1.23-3.65,3.04.51.63.18,1.05-1,1.25-.39.45-.38.74-.74.79-1,.15-1.84-.56-1.16-1.82.52-.96,1.48-2.01.23-3.3-.61,2.22-1.62,3.92-3.41,5.14-.9-.29-.9-.64-.03-1.07-3.1-2.69,2.64-8.61,4.78-6.27-.36-1.94.4-2.02,1.27-.15,2.81-1.69,4.52-3.55,5.11-5.58.37-2.48.78-2.65,2.81-1.18-.22-1.93.56-1.95,1.17-.02.8.58.49,2.16,1.74,2.25Z"/>
      <path class="cls-45" d="M71.77,22.28c-.6.08-1.22-.03-1.82.02.25-.48.68-.82,1-1.25-.87-2.34,1.64-3.05,3.65-3.04.65-.69,2.25-1.22,3.1-1.75-.14,1.4.97,3.95-.34,5.28-1.41,1.42-4.05.54-5.58.74Z"/>
      <path class="cls-26" d="M85.71,45.2c.95.89,2.85.25,3.36,2.35-1.66.72-3.69.04-4.15,1.63,3.17,1.3.72,4.83-1.92,2.82-.86.21-.89-.01-.16-.63-.93-.08-1.69-.93-2.3-2.56l-.52-1.95c1.78-.97,3.7-1.49,5.69-1.66Z"/>
      <path class="cls-147" d="M98.83,43.05c1.98,2.24,1.76,2.47-1,2.8l-2,2.2c.26,1.73-2.44,1.79-3.04.3.02-1.32.96-2.11,2.11-2.9-1.34-.76-2.29-.36-3.1-.33.2-.43.86-.65,1.02-1.08,1.44-.55,3.11-.89,5-1-.87-.28-.86-.62,0-1,.19.4.78.61,1,1Z"/>
      <path class="cls-80" d="M103.04,44.95c1.86-1.93,3.33.58,1.79,2.34l-2.23.09c-.72,1.88-1.56,1.78-1.87-.2-1.24-.02-2.47.51-3.7,1.6l-1.2-.73c-.36-2.46,3.01-2.67,3-5,1.89-.12,2.45,3.44,4.21,1.9Z"/>
      <path class="cls-14" d="M105.99,42.98c.06,2.48,1.86,4.01.24,5.03-.48.3-1.09.11-1.39-.73-.22-.87-.82-2.21-1.79-2.34.25-.5.47-1.02.59-1.57.8.03,1.57-.4,2.35-.39Z"/>
      <path class="cls-150" d="M97.83,43.05c-.83,1.86-3.35.79-5,1,.38-.99,1.17-1.47,2-2,.99-.49,2.48-.07,3,1Z"/>
      <path class="cls-87" d="M97.83,42.05v1c-1.08.05-2.54.22-3-1,.52-.33.6-1.2,1.52-1.08.76.1,1.16.4,1.48,1.08Z"/>
      <path class="cls-48" d="M100.73,47.18c.77,2.45.16,2.99-2.27,2.47-1.7,1.22-6.67,3.1-7.63,1.4-2.33.66-2.53-3.02-.02-1.97.69.29,1.43-.51,1.98-.72.91-.35,2.15.11,3.04-.3.98-.45,1.65-1.51,2.73-1.83.86-.25,1.64.22,2.17.96Z"/>
      <path class="cls-46" d="M87.83,49.04c1.69-.64,2.53,2.71.67,3.25.11,1.78-.9,3.07-2.43,1.82-.88,1.73-1.59,1.68-2.12-.16-1.98.6-2.43-.37-.96-1.95,1.22-.47,1.59-1.68,1.92-2.82.96-.1,1.96.04,2.91-.14Z"/>
      <path class="cls-42" d="M90.81,49.07c-.33-.2-1.06.21-.93.46.34.66.78,1.11.95,1.51,2.14.74-.27,5.05-1.87,3.11-1.94.09-1.57-.42-.46-1.86,0-1.13,0-2.28-.67-3.25.52-.09.94-.7,1.65-.76.54-.04.84.59,1.33.79Z"/>
      <path class="cls-138" d="M74.58,0c2.36,2.86,6.15,4.84,5.38,8.84l-1.17.02c-2.57.35-4.6-1.54-3.07-4-4.15-2.28-7.22-1.98-9.2.88-.07,1.67-1.96,8.89-2.65,9.15-.99.37-2.92.31-3.56-.47-.61.75-1.07.67-1.37-.25-2.69-.1-5.92-.96-8.19-1.89-1.26.02-1.77-.26-.92-1.25-1.24-3.92,6.79-4.74,7.34-1.05,8.44,7.79,1.33-6.75,10.06-9.61,2.38-.78,5.1-.09,7.34-.38Z"/>
      <path class="cls-83" d="M60.69,23.4l1.87,2.5c-.03.48.08.94.32,1.36,2.31,1.95,1.87,4.21-1.04,4.79,1.57,0,1.36,2.2-.18,2.31-2.38,4.86-9,7.48-13.85,4.43-1.16,1.76-2.82.24-2.83-1.74-1.81-.51-3.77-6.7-1.1-7.81.02-1.16,3.02-.84,3.9-.01.84.23.82.52-.02.86,1.77.95,2.53.94,2.26-.03-1.4-.98-1.24-3.11.75-3.11.72-1.11,1.45-2.12,2.21-3.03-.95-3.57-.32-5.19,1.88-4.87,2.53-2.07,8,2.61,5.83,4.34Z"/>
      <path class="cls-121" d="M79.03,53.97c1.74-.85,4.09-1.5,4.62.71,3.53.23,1.39,4-1.88,3.39,0,1.51-2.1,2.39-2.88.93-3.12,2.23-9.14-2.72-5.06-3.8,1.38.21,2.81-.22,3.89-1.08-.32-1.92.51-2.01,1.3-.17Z"/>
      <path class="cls-96" d="M70.75,56.11c.77-.65,1.59-.86,1.84-.23,1.23,3.19,2.67,4.58,6.3,3.13.97-.27,1.9-.72,2.88-.93,1.93-.96,3.08-1.19,1.99.97.55,4.71-10.11,6.86-11.88,1.93-.84-1.59-1.83-3.06-2.77-4.59l1.64-.28Z"/>
      <path class="cls-102" d="M59.83,46.05c1.52,1.18.63,2.31-.95,3.14-.28.12-.64-.03-.94.03-1.22.67-2.32,1.6-3.69,1.9.08-.34-.04-.76-.02-1.11-.88-.13-.89-.43-.09-.88.71.16.63-.45.72-.93-.51-1.43-.46-1.84.96-1.15,1.16-.83,2.62-.98,4-1Z"/>
      <path class="cls-59" d="M80.86,52.09c1.44,1.64.04,2.12-1.82,1.88l-1.3.17c-.24-.37-.49-.72-.78-1.05.66-.76.43-2.71,1.65-3.02,1.13-.28,2.01-.09,2.21.48.15.43-.02,1.08.04,1.54Z"/>
      <path class="cls-4" d="M60.42,16.99c1.73,1.5,3.2,3.18,4.41,5.05-.16.27.12.76.03,1.07-.93.64-.92,2.57-2.31,2.78l-1.87-2.5c-.42-.22-.08-1.76-.9-1.84-2.12-.22-3.62-1.17-4.93-2.5-1.74.88-2.13.16-.73-1.21.02-2.35,5.44-3.01,6.29-.85Z"/>
      <path class="cls-67" d="M64.09,47.25c.02.3-.09.62-.09.92-.11,1.38-1.21,1.59-3.29.62-.44.31-1.31.17-1.82.39.09-1.1.36-2.19.95-3.14.3,0,.7.02.98-.08,1.59-.04,2.68.39,3.28,1.29Z"/>
      <g>
        <path class="cls-53" d="M69.94,22.3c.98-.93,1.59-.93,1.82-.02-1.09,2.36-.52,5.57,2.05,6.55l3.01,3.33c1.46.09,1.66,2.32,1.1,3.69l-.14,4.36c-.99,1.07-1.21,2.49-.53,3.87.56,1.13,1.54,2.17,2.77,2.77,2.65-.37,2.78.56.52,1.95-2.32,1.6-3.57,1.01-3.77-1.79-1.14,1.25-2.87.91-5.17-1.03,1.34,1.34,1.67,2.33.24,3.91,2,.96,3.7,2.03,5.11,3.19.91-.34,1.13.05.78,1.05,1.1,3.22-2.48,4.06-3.89,1.08-.88-.13-1.22.41-1.03,1.62l-2.05-.72c.59,2.05-.25,1.72-1.64.28-.42.86-.78.79-1.09-.15-2.4,1.66-4.15-1.09-2.2-3.19-.14-1.92.62-1.99,1.31-.16.83-1.08,1.06-2.4.69-3.97-1.28,1.45-1.88.84-.89-.91l-2.1-1.97c-1.27.37-2.71.5-4.02-.08-.08.95-.42.95-.98.08-1.1,1.71-2.47,2.56-4,1-1.46-.13-1.47-1.65,0-2-.35-1.51.9-1.01,2.07-.26,1.72-1.66,3.34-2.82,4.85-3.48,1.65-3.29,2.4-6.69,2.26-10.18-1.45-.97-2.16-2.26-2.13-3.87-2,.41-2.18-.38-.32-1.36-.92-2.81-.15-3.74,2.31-2.78,1.93-4.57,6.21-9.71,3.95-1.26l1.13.45Z"/>
        <g>
          <path class="cls-58" d="M57.9,44.79c-.29-.74-1.41-1.36-2.07-1.74-.34-1.66,1.47-2.45,3-3-.41-.9-.01-1.21,1.06-1.03,1.18.1,1.82-.85,1.92-2.84-.9-.21-.92-.55-.1-1.03,1.44-2.03,1.48-3.07.12-3.1.12-1.63.73-3.19,1.04-4.79,7.99,2.3.97,15.41.48,15.86-1.46,1.34-3.32,2.04-5.45,1.67Z"/>
          <path class="cls-44" d="M76.77,47.02l2.07,1.97c-1.78,3.76-3.75,3.44-7,.9-.74-1.94-2.92-3.15-3.5-5.52,4.1-1.63,6.04,1.08,8.43,2.65Z"/>
          <path class="cls-17" d="M80.54,48.81c1.2.12,2.03,1.54,2.3,2.56.14,2.13-.73,2.44-1.98.72-1.68-.76-2.13-.84-1.36-.23-.87,1.02-1.71,1.43-2.54,1.23-2.19-.31-4.3-1.07-5.11-3.19,1.6-.13,2.84.95,4.81,1.27.41-1.77.05-2.98.12-4.15,1.23.81,2.26,1.63,3.77,1.79Z"/>
          <path class="cls-78" d="M73.83,55.21c-1.62,1.42.11,2.1.83,2.78,1.28,1.2,3.09,1.37,4.23,1.02-.83,1.13-2.21,1.22-3.48,1.1-2.75-.25-2.68-2.75-4.66-4,.51-.58,1.01-1.15,1.94-1.63.42-.21.79.35,1.14.73Z"/>
          <path class="cls-78" d="M67.14,52.89c-1.1-1.4-1.53-4.13.69-3.97.61,1.95,2.58,2.4,4.64,4.34-2.3,1.54-3.63-.51-5.33-.37Z"/>
          <path class="cls-100" d="M71.56,39.6l-1.87-6.5c2.14-.54,2.51,1.18,3.35,2.18.66.79.23,3.03-1.48,4.32Z"/>
          <path class="cls-91" d="M66.94,48.02c.16.35.78.55.89.91-.38,1.29-.63,2.62-.69,3.97-.43.04-.88.15-1.31.16-1.63-1.85-2.24-3.47-1.83-4.87-.85-.31-.8-.62.09-.92,1.13-1.29,2.66-1.06,2.85.76Z"/>
          <path class="cls-78" d="M66.94,48.02c-.91-.35-1.87-.69-2.85-.76-2.26-.27-1.41-1.93.74-1.21.56,0,1.68-1.52,1.92-.38.19.91.16,1.56.19,2.35Z"/>
          <path class="cls-102" d="M64.83,46.05c-.84-.14-.78.66-.74,1.21-1.21-.09-2.66-.05-3.28-1.29,1.39-.51,2.85-.91,4.02.08Z"/>
        </g>
      </g>
      <path class="cls-60" d="M67.91,10.99c2.03.1,2.45,3.07,1.7,4.78-2.94.53-3.41,3.92-4.78,6.27-1.36-.04-2.78-.22-3.95-1.46-.79-.83-1.06-2.27-.46-3.59-1.86-.39-1.76-1.14.16-1.38,3.3-.62,4.83-2.56,4.58-5.81,1.43-1.56,2.52-.91,2.74,1.19Z"/>
      <path class="cls-30" d="M75.73,4.87c1,1.33,2.67,2.23,3.07,4-.71.82-1.74,1.19-2.81,1.18.21,1.31-.82,1.31-3.11,0-3.4.32-2.31-3.52-.08-5.14-.34-1.45.63-1.46,2.93-.03Z"/>
      <path class="cls-112" d="M75.99,10.05c.1.6.23,1.2.46,1.97.15.5-3.79,4.08-5.57,3.61-1.59-.49-1.46-1.95.36-1.73-.26-2.19,1.72-4.5,2.29-2.54.34,1.17-1.85,1.01-.66-1.31,1.03-.17,2.08-.23,3.11,0Z"/>
      <path class="cls-6" d="M71.25,13.89c.1.56-.38,1.17-.36,1.73-.35-.09-.91.08-1.27.15-1.15-1.34-1.73-3.02-1.7-4.78-.88-1.2-.42-1.87,1.06-1.85,2.45-2.86,5,2.8,2.28,4.76Z"/>
      <path class="cls-53" d="M74.59,18.01c-.84,1.55-2.63,1.65-3.65,3.04-.12-.67-1.35-1.9-.91-2.93,1.18-1.22,3.49-.87,4.56-.1Z"/>
      <path class="cls-113" d="M83,52c.18.71.51,1.37.96,1.95.78.44.65.67-.3.73-1.57,0-3.27.22-4.62-.71l1.82-1.88c.7-.09,1.37-.34,1.98-.72l.16.63Z"/>
      <path class="cls-63" d="M86.07,54.12c1.89-.55,2.19.39.82,1.85-.42.58-.52,1.51-.82,2.17,0,2.71-.51,2.93-2.3.91-.29-.72-1.22-1.14-1.99-.97,1.21-.91,3.47-1.9,1.88-3.39l.3-.73c.62-.57,1.49-.31,2.12.16Z"/>
      <path class="cls-149" d="M88.96,54.15c.02.33-.06.68-.1,1.01-.54.43-1.43.47-1.97.81-.37-.57-.61-1.21-.82-1.85.88-.51,1.68-1.14,2.43-1.82,0,.62.43,1.24.46,1.86Z"/>
      <path class="cls-152" d="M75.73,4.87l-2.93.03-1.14,1.96c-1.4-.39-2.3.37-2.7,2.28.44.39-.32,2.11-1.06,1.85-3.66-1.26-.4,1.92-1.61,3.98-.33.57-1.34,1.53-2.17,1.26-1.35-.44-2.38-1.4-3.53-.62-1.78.38-1.93-.35-.27-1.18,4.31,1.6,2.49-8.73,7.08-11.76,2.98-1.97,6.62-.08,8.33,2.19Z"/>
      <path class="cls-86" d="M58.94,14.19c.44.14.94.09,1.37.25.18.36.38.77.27,1.18s.02.98-.16,1.38c-2.12-.23-4.41-.26-6.29.85-2.16,1.97-4.1-.7-2.18-2.78l-.5-1.14c2.04-.75,4.53-.67,7.49.26Z"/>
      <path class="cls-64" d="M58.94,14.19c-2.78,2.8-6.62-1.3-6.98.87-2.92.97-4.03-1.28-1.2-2.76,2.51-1.53,6.16-.14,8.19,1.89Z"/>
      <path class="cls-146" d="M49.83,11.05c.46.08.95.84.92,1.25.12,3.37-2.19,2.96-6.92-1.25-.87-.28-.86-.62,0-1l6,1Z"/>
      <path class="cls-136" d="M42.83,8.89c0,.57.41,1.06,1,1.15v1c-.73.92-2.97.54-4.27.1-1.74,1.24-2.21.58-.89-1.15,1.32-.63,2.51-1.56,4.15-1.1Z"/>
      <path class="cls-79" d="M54.03,59.89l-1.89,1.3c-2.13,1.36-2.21-.46-1.23-2.29.83.07,1.65-.17,2.17-.85.64.4.94,1.11.95,1.84Z"/>
      <path class="cls-145" d="M43.83,11.05c2.37-.06,4.63,2.65,6.92,1.25-.08,1.08.69,1.88,1.2,2.76.61,1.05,1.08,2.12,2.18,2.78.36.22.43.91.73,1.21-1,2.31-1.4,4.88,1.1,6.68-2.3.52-3.73.51-5.19,1.23-1.13-1.66-1.18-3.94-.13-6.86-.89-.01-.85-.25.02-.69l-1.58-.62c-1.86.46-2.94.15-3.25-.93-.32-2.88-1.96-4.23-4.91-4.06l-1.3-1.78c-.89-.13-.89-.43-.06-.88l4.27-.1Z"/>
      <path class="cls-163" d="M61.66,34.36c.88,0,.85.28.05.79l.1,1.03c.47,1.21-.47,3.05-1.92,2.84-.36.34-.73.66-1.06,1.03-4.5,2.94-6.43,3.81-11.11.46-.71-.51-.74-.88.08-1.72,10.7-1.4,5.39.8,13.85-4.43Z"/>
      <path class="cls-164" d="M47.77,30.09c.27-2.07,1.73-2.1,2.26-.03,1.35,1.35,1.89-1.7,3.41-1.68,1.43,2.47.89,5.31-.43,7.67-2.33-.55-3.78-.71-5.25-1.51,1.39-1.2,2.79-.78,3.25-2.52-1.74-.53-2.93-.7-3.24-1.93Z"/>
      <path class="cls-68" d="M47.81,38.79c1.33,1.88,3.86,4.09,6.53,2.86,1.66-.77,2.88-2.06,4.5-1.6-.95,1.05-1.93,2.07-3,3-1.47.78-3.22.14-4.86.14-.4.83-.78.76-1.14-.14-2.23.23-3.2-.35-2.91-1.75-1.62.72-4.27-1.93-3.09-3.25-.23-1.04.16-1.37,1.15-1,.83.74,1.77,1.36,2.83,1.74Z"/>
      <path class="cls-36" d="M43.89,29.24l1.1,7.81c-.43.28-.81.61-1.15,1-1.13,1.34-3.03-.58-2-2-1.23-1.01-1.53-1.99-.91-2.94-.88-.25-.88-.59-.03-1-.15-1.68-.83-2.63-2.04-2.83l1.98-1.23c1.05-.68,2.88-.11,3.05,1.19Z"/>
      <path class="cls-110" d="M44.83,28.05c.75-1.39,2.21-1.22,3,0,1.94-.11,1.91.68-.05,1.18h-3.9c-1.06-.27-2.09-.65-3.05-1.18-1.84.22-1.72-.39,0-1.14,1.45-1.5,4.28-1.18,3.99,1.14Z"/>
      <path class="cls-49" d="M50.78,26.96c-.41.89.27,2.38-.75,3.11-.51-.3-1.65.2-2.26.03-.07-.26,0-.59.02-.86l.05-1.18c-.86-.33-.84-.67.03-1.05.49-2.65,2.05-2.62,2.91-.04Z"/>
      <path class="cls-28" d="M62.56,25.9c-1.11-.28-2-1.35-1.87-2.5l1.52.79.35,1.72Z"/>
      <path class="cls-3" d="M61.71,35.15c-.03-.26-.07-.53-.05-.79l.18-2.31c.68.02,1.36-1.28,1.66-.78.49.81.32,2,.38,2.54.12,1.03-1.23,1.62-2.16,1.34Z"/>
      <path class="cls-159" d="M34.07,30.95c2.01-.3,4.15,1.13,4.75,3.07v2.03c2.49.92,4.62,2.62,6.39,5.11l1.71.14c1.09.38,2.2.82,2.91,1.75.12.85-.55,1.16-2.01.94-2.62-.46-5.26.11-7.01,3.2,1.35.39,2.29,1.13,3.09,1.69,2.08-.05,1.97,2.05-.08,2.24-1.08.14-2.62-.43-3.2.78l-1.4.38c-1.41-2.78-2.53-3.24-3.36-1.38-1.66,1.69-2.06,1.39-2.04-.92-.71.47-1.52.73-2.34.4-1.19-.47.39-13.53.79-15.88.08-.48,0-1.09-.3-1.5-3.23-1.94-.12-5.72,2.08-2.06Z"/>
      <path class="cls-130" d="M35.88,50.91c1.72-1.39,2.3-1.32,2.72.73l1.91,1.32c1.72.35,1.69,2.34,2.24,3.73.05,1.77-.89,1.79-1.93.32-3.6-.14-7.13-.95-10.6-2.42l-.47-2.44c.41-2.42,1.91-3.04,4.1-2.15.85-.09,1.37.55,2.04.92Z"/>
      <path class="cls-142" d="M40.63,51.9l-.12,1.06c-1.67,1.63-3.07-1.19-4.63-2.06.17-2.5-.15-4.97,1.31-8.03,4.96,6.7-.03,6.93,3.45,9.03Z"/>
      <path class="cls-81" d="M42.75,56.69c.35-.02.72.17,1.07.2,2.36.56,4.42,1.22,6.19,1.99.81.09.55.69-.18,1.16-.77,1.49-5.28.79-6-1-.28.87-.62.86-1,0-1.64.75-4.79.92-5-1-.06-1.25.93-1.59,2.98-1.03.64-.1,1.28-.27,1.93-.32Z"/>
      <g>
        <path class="cls-163" d="M55.83,43.05c2.4-1.68,3.32-.92,2.07,1.74-.65-.11-1.4.31-2.07.26-.77.69-1.09,1.74-.96,3.15,1.62,1.19,1.16,1.78-.72.93-2.81-.34-2.78-.04.09.88.9.36.91.73.02,1.11l-1.18,4.93c-1.45.66-.63-1.39-.63-1.28-.07,2.07-.49,4.03-2.36,2.29-1.68,1.64-4.21.86-6.27-.16-.51.76-.87.7-1.07-.2-1.79.15-3.06-2.04-2.24-3.73-.83-.4-.78-.75.12-1.06-1.05-3.35,2.14-3.55,3.2-.78.46-.83.5-1.57.08-2.24-2.68,2.7-4.71-1.07-3.81-4.16.76-2.6,6.85-2.81,7.73-.74,1.1.03,2.15-.24,3.15-.8.74-.92,3.83-.94,4.86-.14Z"/>
        <g>
          <path class="cls-89" d="M55.83,45.05v2c-.34.24-.71.83-.96,1.15-.29-.77-1.38-1.6-1.03-2.63.28-.8,1.42-.55,1.99-.51Z"/>
          <path class="cls-148" d="M53.08,56.04v2c.89,1.63-1.44,2.76-2.17.85-.17.87-.48.83-.9-.01-2.66-.25-2.48-1.16.08-1.83,1.3-.03,1.2-1.53,2.23-3.21.99.58.26,1.58.76,2.21Z"/>
          <path class="cls-151" d="M50.09,57.05l-.08,1.83c-2.21.05-4.83-.05-6.19-1.99,2.08.16,4.18.21,6.27.16Z"/>
          <path class="cls-22" d="M49.7,47.74c-1.35.25-3.21-.15-4.67-1-.33-.33.78-1.66,1.31-1.61.8.08,1.13,1.57,3.36,2.61Z"/>
          <path class="cls-109" d="M47.6,55.69c-.46.81-2.2.47-2.76-.08-.64-.64-1.75-1.58-.55-2.49,1.3,1.19,3.46,1.23,3.3,2.57Z"/>
          <path class="cls-10" d="M43.83,51.12l.08-2.24c.63.43,3.03-.68,2.97,1.26-.05,1.38-2.27.88-3.04.97Z"/>
          <path class="cls-137" d="M49.83,43.05c.38-.01.76.12,1.14.14-.12.57-.28,1.32-.82,1.64-.9.54-1.6-.71-2.32-.84-.32-1.06,1.35-.92,2.01-.94Z"/>
          <path class="cls-140" d="M54.15,49.12c0,.29.11.59.09.88-.76-.08-3.48.66-3.4-.9.1-2.12,2.57-.6,3.32.01Z"/>
        </g>
      </g>
      <path class="cls-166" d="M59.9,39.02c.35-1.12.87-2.24,1.92-2.84,2.17.57-.44,4.64-.46,4.65-.68.36-.9-.04-1.06-.48-.19-.54-.63-.82-.4-1.33Z"/>
      <path class="cls-78" d="M64,48.17c1.38,1.21,1.73,3.1,1.83,4.87l-5.12-4.25c.93-.81,2.1-.86,3.29-.62Z"/>
      <path class="cls-50" d="M72.8,4.9c1.96,2.36-2,4.59.08,5.14.66.44,1.34.99,2.03,1.63-1.78.88-2.75,1.38-3.66,2.22-.31-1.8.02-4.73-2.28-4.76-.83-.74-2.11-2.54-.73-3.58,1.42-1.07,3.26-.64,4.57-.66Z"/>
      <path class="cls-146" d="M38.68,10c.13.31.42,1.16.89,1.15l.06.88c-.03,2.66-3.64,4.8-6.13,4.6-.96,1.07-1.65.87-1.66-.58-2.77-.34-3.03-1.03-1-3,1.32.03,3.26.35,4.14-.95.92-1.36,2.36-1.46,3.7-2.1Z"/>
      <path class="cls-24" d="M39.63,12.03c1.54-.61,4.68.21,6.21,1.08,1.93,1.09.93,3.68,0,4.76-.84,1.86-1.97,1.89-2.88.05-1.4-.81-2.56-1.36-5.12.02-.51,1.03-2.06.81-3,.11-1.23.41-1.74-.21-1.34-1.42.71-2.36,3.82-3.69,6.13-4.6Z"/>
      <path class="cls-38" d="M37.84,17.94c1.47-1.12,3.91-1.58,5.12-.02.94-.08,1.94-.15,2.88-.05,1.74.18,4.16-.47,4.83,1.55-2.67,2.75-5.57,4.3-8.68,4.64-1.62.89-4.08-.38-2.08-1.99-.92-.12-.95-.49-.18-1.07l-2.19-.84c-1.71,1.39-1.9,1.17-2.7-1.1-.87-.28-.86-.62,0-1,.99,0,2.01-.2,3-.11Z"/>
      <path class="cls-41" d="M50.66,19.41l-.02.69c.79,3.19-1.6,7.42-4.81,4.85-.71,2.03-3.04,1.91-3.89.18-.87-.33-.84-.69.03-1.08,2.32-2.48,5.15-5,8.68-4.64Z"/>
      <path class="cls-120" d="M50.78,26.96c-.92-.04-2.01.34-2.91.04-1.08.67-2.27.41-2.03-.95-.87-.32-.86-.69,0-1.1,2.47-.4,3.31-3.1,4.81-4.85,2.02,1.82,1.14,4.65.13,6.86Z"/>
      <path class="cls-117" d="M41.84,36.05c.36.92,1.11,1.59,2,2,.68,1.37,1.78,2.46,3.09,3.25.34,1.13-1.11.8-1.66.79-.79-.01-1.16-.95-1.9-1.67l-4.53-4.37c.05-1.6,2.83-1.98,3,0Z"/>
      <path class="cls-155" d="M40.89,32.1l.03,1c.93,2.13-.91,2.65-2.1.91-2.18.21-4.36-.78-4.75-3.07-.84-2.53-.17-2.65,1.74-.8,3.69-2.63,4.42-2.73,5.08,1.96Z"/>
      <path class="cls-106" d="M40.84,26.91v1.14s.05,4.06.05,4.06c-.84-.39-.78-2.64-1.55-2.67-1.12-.05-2.41.87-3.52.72-2.03-2.33-.74-3.4,3.87-3.19-.23-1.51.46-1.48,1.15-.05Z"/>
      <path class="cls-128" d="M41.84,36.05h-3c-.38-.29-1.69.45-1.99-.5-.39-1.23,1.24-.32,1.98-1.53.8-.08,1.68-.08,2.1-.91l1.12,1.27c.61.69,1.18,1.7-.21,1.67Z"/>
      <path class="cls-161" d="M41.95,25.13c1.25.02,2.66.02,3.89-.18v1.1c1.59,1.09.64,1.54-1.01,2-1.22-.69-2.61-1.2-3.99-1.14l-1.15.05c-5.78,1.78-7.33,1.13-4.66-1.95-.58-2.19,3.22-1.93,4.74-1.47l2.18,1.59Z"/>
      <path class="cls-143" d="M47.87,27l-.03,1.05h-3c.14-.75.46-1.46,1-2,.81-.05,1.36.73,2.03.95Z"/>
      <path class="cls-156" d="M35.03,25.01c.01.28-.09,1.29.26,1.42,1.72.16,3.17-.26,4.4.53-1.51.79-3.27,1.48-3.87,3.19-.56-.08-1.16.79-1.74.8-.43.01-.96.01-1.5.22-.76.29-.42,1.18-.58,1.84.8,1.87.28,5.57-2,4.04-.88-.1-.91-.44-.16-1-.21-3.43-1.21-4.77-3-4-.14.82-1.44.68-2,0-.46,1.48-3.31,1.29-3.93-.19-2.81,2.02-6.79-.62-4.24-3.63.35-2.85,1.22-2.87,2.23-.21,3.52,1.46,7.16.86,9.73-2.09,1.02-1.5,5.12-1.89,6.41-.9Z"/>
      <path class="cls-133" d="M33.84,49.99c-.8,1.52-2.45,2.12-4.1,2.15-1.55,2.11-2.53,1.6-1.85-.94-2.01-1.57-1.48-2.66,1.13-2.94v-10.28s.97-.93.97-.93c1.35-.85,1.66-2.55,2-4.04,2.99-.76-1.82,14.92,1.85,16.98Z"/>
      <path class="cls-71" d="M27.89,51.2c.42.67,1.25.63,1.85.94,3.59,1.88,7.71,2.57,11.07,4.87-.73.9-1.87,1.15-2.98,1.03-1.58,1.42-6.17-.12-8-1.17-.22.86-.53.81-.92-.06-3.49.45-4.14-.54-2.94-3.79-2.23-2.08-.29-3.86,1.93-1.83Z"/>
      <path class="cls-124" d="M37.84,58.04c1.33,1.31,3.26,1.13,5,1-.37,2.37-10.95-.75-13.07-1-.82-.43-.8-.82.06-1.17,2.73.06,5.25,1.37,8,1.17Z"/>
      <path class="cls-124" d="M49.83,60.04c-.07.47.22.97-.24,2.04-1.91-1.31-3.95-.93-5.9-1.13l.14-1.91c1.81,1.08,3.94,1.13,6,1Z"/>
      <path class="cls-99" d="M29.84,13.05l.61,1.39c-1.58.85-2.12,1.38-1.61,1.61,2.29.92,2.28,2.28-.01,4.07.91.26.89.59-.02,1-1.53,1.4-2.17.81-1.18-1.07-2.38.81-3.13-.94-3.77-3.01-1.38.73-2.74,1.04-4.09.92-.12.89-.41.89-.85.06-1.34,1.49-2.02,1.2-2.05-.89,2.13-2.29,5.48-1.84,8.18-3.22,1.36-.69,3.43-.98,4.77-.86Z"/>
      <path class="cls-122" d="M31.84,16.05c-.05,1.6-2.89,2.03-3,0-.7-.05-1.5.1-2.09-.67,1.8-.61,2.74-1.15,3.09-2.33.33.03.67,0,1,0,.15,1.05.46,2.08,1,3Z"/>
      <path class="cls-43" d="M18.93,18.02c1.96,1.21,1.62,3.09-1.04,5.64.64,2.37.24,3.89-1.22,4.57-.87,2.93-3.38,1.81-3.81-.96-.21-1.72.29-3.39.18-5.01,2.23-.66,2.97-3.14,3.84-5.12.8-.11,1.67.12,2.05.89Z"/>
      <path class="cls-94" d="M42.96,17.92c-1.71.15-3.41.18-5.12.02.32-1.26,1.49-1.81,2.51-1.96,1.58-.23,3.08.19,2.61,1.93Z"/>
      <path class="cls-101" d="M27.63,20.05c.41,1.43.26,2.68-.45,3.74-.22,1.35-1.34,1.99-3.36,1.9l.09,1.46c.84,2.27-3.62,2.19-5.03.86-.57.1-1.65-.26-2.23.21-2.2-7.49.64-4.82,2.26-10.2l.85-.06,4.09-.92c1.69-.71,3.3,1.66,3.77,3.01Z"/>
      <path class="cls-11" d="M18.89,28l5.03-.86c-.42-2.03,2.43-2.29,3.77-1.26.23-.88.54-.84.93.03-.35,1.95-2.04,3.67-3.52,3.93-2.65.46-5.53.77-6.21-1.84Z"/>
      <path class="cls-13" d="M28.91,56.82c-1.31.3-2.59.75-3.84,1.23-1.07,1.87-1.75,1.77-2.04-.3l2.94-4.71c.8,1.4,1.56,2.89,2.94,3.79Z"/>
      <path class="cls-23" d="M23.86,17.04c-1.28.73-3.09,3.46-4.09.92.45-1.79,2.73-.71,4.09-.92Z"/>
      <g>
        <path class="cls-139" d="M31.84,16.05c.59.06,1.17.23,1.66.58.53.38,1,.86,1.34,1.42v1c-1.26,1.32-3.27,1.68-6.01,1.07-.04-1.36-.06-2.72.01-4.07h3Z"/>
        <path class="cls-27" d="M34.84,19.05c1.84.34,4.9-.58,4.89,1.94-1.75.79-1.69,1.15.18,1.07.26,1.02,1.15,1.6,2.08,1.99l-.03,1.08c-2.48-.04-4.55-1.04-6.92-.12-1.49.58-1.57,1.27-2.33,1.65-1.3.66-3.32-.72-4.08-.75-1.51-2.74-1.45-4.34.19-4.8.08-.3.02-.68.02-1,.66-.92,1.41-2.02,2.49-2.01,1.32.01,2.39.73,3.53.94Z"/>
        <path class="cls-85" d="M39.72,20.98c0,.36.16.71.18,1.07-.67.37-1.17.78-1.63.99-.52.24-1.69-.05-1.51-1.1.25-1.49,2.13-.81,2.96-.96Z"/>
        <path class="cls-7" d="M28.81,21.12c-.43,1.55.08,3.25-.19,4.8l-.93-.03c-2.67-.2-2.76-.65-.5-2.1-.19-1.82-2.06-1.28-4.37-2.23l4.82-1.51c.18.51.71.86,1.18,1.07Z"/>
        <path class="cls-35" d="M32.98,20.64c.8.21-.48,3.06-.74,3.18-.82.38-2.04-.45-1.49-1.77.34-.83.7-1.21.8-1.68.08-.42.8.11,1.44.28Z"/>
      </g>
      <path class="cls-77" d="M27.18,23.79c.07.71.46,1.37.5,2.1-.77,1.39-2.7,1.07-3.77,1.26-.96-.32-2.12-.34-2.14-2.27,1.85-.85,3.67-1.08,5.41-1.08Z"/>
    </g>
    <g>
      <path class="cls-62" d="M67.17,72.67c.39,1.19,2.89,1.01,2.68,3.35-.53,1.86.05,3.9,1.75,6.11.74,3.25.06,12.57-2.77,13.91-.22,2.02-.8,2.42-2.17.85-1.89.5-2.2-.31-.74-1.63-1.93-1.39-3.97-2.26-6.12-2.61-.84,2.27-1.63,1.46-2.07-.94-1.37-1.26-.96-3.93.9-4.49.63-1.66,2.03-1.72,4.19-.16l1.08-1.94c1.12-1.06.5-1.75-1.87-2.09.25,3.42-.81,4.31-3.19,2.69-2.42,1.51-4.13-2-1.96-3.66-.18-2.42,1.86-3.46,6.12-3.11.54-1.59,1.22-3.09,2.02-4.52-1.86.07-1.86-.75.03-1.23-.21-2.32.83-2.42,2.11-.53Z"/>
      <path class="cls-74" d="M72.83,85.04c-1.14,2.2-.6,4.72-1,7,1.17,1.88.71,5.61-.92,7-.42,1.69-.73,2.71-1.92,1.09-2.99-.39-2.54-2.76-.17-4.09,2.03-2.46,1.8-5.56,2.25-8.91,1.18-8.77-4.77-7.92-1.23-11.11-.27,3.05,3.64,5.9,2.98,9.02Z"/>
      <path class="cls-127" d="M62.95,68.02c1.31,1.37,1.27,2.05-.12,2.03-.3.88-.65.86-1.05,0-2.03.29-2.38-.65-1.09-2.29-1.63-.8-3.8-2.17-3.77-3.96-1.15-.95-2.72-1.43-4.09-.75-.42.69-.77.66-1.06-.1-1.89-.04-1.32-1.64.36-1.76-1.26-1.34.58-2.18,1.89-1.3,4.44.43,6.85,4.61,8.92,8.13Z"/>
      <path class="cls-153" d="M67.17,72.67l-2.11.53c-1.95-.01-2.86-1.31-2.23-3.15-.04-.68.01-1.36.12-2.03,1.82,1.14,3.46,2.33,4.21,4.66Z"/>
      <path class="cls-131" d="M71.07,117.83c.72.98,1.74,1.61,2.92,1.9.52.61.8,1.82,1.62,2.1,1.78.95,1.21,2.19-.78,2.29-.52,1.92-3.37-.73-2.84-2.11l-2.4.62c.1-1.32-.49-2.85-1.76-4.59.38-1.09.78-2.09,1.2-3l2.04,2.79Z"/>
      <path class="cls-93" d="M53.38,72.94c.87-.18,1.35.55,1.45,2.19,2.75-.63,2.83.92.41,2.11,2.78-.15,2.97,2.99,1.64,4.82.15,1.45.98,2.63,1.96,3.66.78.71,1.16,1.19-.2,1.5.07,1.47-.06,3.24-.9,4.49.69.53.61.88-.25,1.04-1.1,1.07-1.33.63-1.78-.61-1.87,1.01-2.69-.7-2.45-5.12,1.03-.34,1.01-1.16-.05-2.45-1.35-3.07-1.51-5.91-.46-8.53-3.51.3-2.84-4.89.63-3.1Z"/>
      <path class="cls-104" d="M65.93,95.26c.37.46.46,1.12.74,1.63.85,1.85.31,3.08-1.78,3.31-2,5.03-7.97.22-5.2-2.92-3.87-6.39,2.57-6.35,6.25-2.03Z"/>
      <path class="cls-84" d="M65.03,74.43c.52,1.35,1.46,2.51,1.57,4.28-1.48.32-2.53.21-3.59.25-2.46,1.27-5.73,1.34-6.3-1.83-1.82-3.22,1.67-3.12,3.88-2.24-3.06-2.89,2.71-4.3,4.45-.45Z"/>
      <path class="cls-15" d="M69,100.14c1.69.86.7,3.48-1.12,3.99-2.93,3.02-4.91,3.42-5.94,1.18-2.33-2.33.74-4.46,2.93-5.1-.09-1.45.19-3,1.78-3.31.74-.15,1.38-.8,2.17-.85-.21,1.35.29,2.75.17,4.09Z"/>
      <path class="cls-5" d="M63.91,85.13c.37,1.81,2.15,2.46,3.95,3.57-.84,1.59-1.44,2.31-2.05,2.1-5.51-1.89-3.16-2.82-7.17-3.58-.05-.25-.7-.45-.59-.73.16-.42.6-.6.79-.77l3.19-2.69c.99.76,1.61,1.45,1.87,2.09Z"/>
      <path class="cls-5" d="M65.93,95.26c-2.5.62-4.16-1.51-6.87-2.32-.39,1.24.92,1.46,1.33,1.97.75.94-.68,1.66-.71,2.38.65,2.59-.29,2.74-1.79.55-.89-.05-.88-.31-.05-.78-1.33-2.13-1.44-3.57-.35-4.3,0-.26.1-.82.25-1.04,1.6.83,3.35.28,5.17-1.51,1.83,1.37,1.79,3.53,3.01,5.06Z"/>
      <path class="cls-129" d="M56.7,77.12c2.33-.22,4.02,1.8,6.3,1.83-1.5,1.89-4,2.19-6.12,3.11-1.49-1.16-1.31-3.1-1.64-4.82.25-1.55.92-1.62,1.46-.12Z"/>
      <path class="cls-52" d="M52.86,65.11c.72-1.38,2.35-.89,2.04.72,2.27,2.27,4.57,3.68,6.88,4.21h1.05c1.34.49,2.26,1.77,2.23,3.15l-.03,1.23c-2.8,1.69-3.04-2.79-4.75-.9-.25.28.39.83.3,1.35l-.63.54c-1.85-.31-3.56-.41-5.12-.29-.53-.66-1.19-1.36-1.45-2.19-2.57.18-3.08-.82-1.53-3.01-2.21.81-3.08-.76-2.01-2.82-1.68.97-2.15.31-.99-1.27-1.14-1.57-.53-2.03,1.01-.8,1.01-.86,2.47-1.2,3,.06Z"/>
      <path class="cls-55" d="M63.91,85.13c-.32.13-1.34.89-1.68.59-.71-.63.06-2.11-.19-2.68,1.54-1.29,3.98-1.11,5.53-3.22,1.01,3.28-1.47,4.9-3.66,5.31Z"/>
      <path class="cls-162" d="M69.95,104.04l-1.12,7,.2,4c.06,1.17.29,2.76-1.2,3-1.77.05-1.35-2.04,0-3-2.81-.52-2.58-2.83-.23-4.17-3.67-.25-3.23-6.51.28-6.74.36-1.3.99-2.63,1.12-3.99l1.92-1.09c.24,1.26-.09,4.07-.97,5Z"/>
      <path class="cls-111" d="M52.14,61.19l-.36,1.76c.69,1.48-.4,2.23-1.92,2.1l-1.01.8c-.22,2.91-2.47,3.18-3.05.08-1.46,1.26-1.93.69-.9-1-.32-1-.99-1.85-2-2.55l.79-1.43c1.8-.39,3.85-.69,6.14-.91l.18-1.16c.29,0,.6-.01.9.01-.19.98.24,1.98,1.23,2.29Z"/>
      <path class="cls-88" d="M56.92,63.79c2.04.29,3.15,2.17,3.77,3.96-.88,2.09-2.81,1.45-5.79-1.92l-2.04-.72c-1.86.18-2.4-.86-1.08-2.16.32.18.73,0,1.06.1,1.27-.77,3.02-.23,4.09.75Z"/>
      <path class="cls-97" d="M60.69,67.76c.26.74,1.35,1.31,1.09,2.29-.07.7-.05,1.44-1.42,2.49-2-2.33-3.98-4.34-5.47-6.7,1.96.7,3.63,2.34,5.79,1.92Z"/>
      <path class="cls-132" d="M56.92,63.79c-1.37-.19-2.75-.36-4.09-.75,0-1.19,1.41-1.2,2.28-.86.67.26,2.01.59,1.81,1.6Z"/>
      <path class="cls-31" d="M42.83,59.04h1c1.79.86,1.84,1.59-.14,1.91.1,1.45.5,2.78,1.21,3.98l.9,1c4.69,3.08-5.4,6.99-8.11,7.13-3.11.16-8.57-5.95-9.64-9.15-.85-2.55-1.28-5.42,1.71-5.86,4.26.58,8.62.91,13.07,1Z"/>
      <path class="cls-74" d="M68.83,111.04c-.13-2.56-.02-5.79,1.12-7-.52,2.31.92,5.4-1.12,7Z"/>
      <path class="cls-12" d="M67.82,125.21c.24-1.02.76-1.61,1.56-1.76.57.97,1.73,1.84,3.49,2.62.77-1.89,2.53-.95,1.91.93,1.94-.41,3.31-.07,4.13,1.03.59-2.28,3.78-1.47,4.92.07-.86-2.72.3-2.81,2.13-1.06.17.82.79,3.08-.76,3.32-3.93.61-8.63,1.34-12.39.52-13.43-2.94-.58.49-14.95.15-2.66.14-2.84-2.25-.55-7.16.05-.89.32-.88.8-.05,1.53-.33,3.12.1,4.75,1.29,1.89-.53,3.54-.49,4.97.11Z"/>
      <path class="cls-160" d="M85.96,127.04l-2.13,1.06c-2.25-.98-4.51-1.96-6.94-2.99-1.85-1.41-.13-2.6,1.94-2.17.29.1.69.02,1,.09,2.41.56,5.7,1.92,6.13,4Z"/>
      <path class="cls-51" d="M78.83,122.95l-1.94,2.17c-1.38,1.1-2.36.89-2.07-.99.09-.81.33-1.6.78-2.29l3.23,1.12Z"/>
      <path class="cls-73" d="M74.83,124.12c.54.4,1.53.56,2.07.99,2.73-.2,6.96-.4,6.94,2.99-1.41.7-3.31-.18-4.92-.07-.97-.88-2.35-1.22-4.13-1.03-.41-.32-1.39-.85-1.91-.93-3.64-1.53-4.62-2.77-2.96-3.72-1.02-1.78-.33-1.89,2.08-.34l2.84,2.11Z"/>
      <path class="cls-20" d="M67.83,118.04c1.41,1.44,2.68,2.88,4.15,3.97-.9.09-1.7.77-2.21,1.83,1.17.31,1.57.33,2.24.57.57.21,1.17.78.86,1.66l-5.05-.86c-2.12-1.01-1.95-1.15.01-2.17l-2.19-3.1c-2.09-1.08-2-2.6.02-3.81-.75-2.6.15-2.81,2.16-1.08v3Z"/>
      <path class="cls-1" d="M28.91,56.82c.28-.06.63.05.92.06-.11.36.08.83-.06,1.17-1.64,3.92,1.41,7.78,4,10.81,2,2.35,3.41,3.03,6.61,1.7,2.42-1,5.45-1.75,5.43-4.63,1.02.15,2.19.61,3.05-.08.45.32.62.9.99,1.27.49,2.43,1.16,3.37,2.01,2.82.83.82,1.19,1.92,1.53,3.01-1.5.18-.57,2.13-.63,3.1-.13,2.16-.77,3.16-1.92,3,.03,1.84-.35,2.13-1.14.87-1.72,1.2-3.67-.38-2.18-2.17-1.98.19-2.26-.6-.66-1.77l-2.32-.24c.51-1.84,0-2.77-1.49-2.79.05,1.64-.7,1.55-1.22-.08-1.36,2.79-2.85,5.47-5.99,2.88-1.49.73-2.82-.03-3.98-2.28-3.3.97-4.99.26-5.07-2.12-2.2.61-3.45-3.3-2.27-4.96l-.76-.57c.86-2.21,1.31-4.5,1.33-6.88-.42-.3-.43-.59,0-.89.53-3.2,1.42-3.13,3.84-1.23Z"/>
      <path class="cls-90" d="M57.5,92.75c.25,1.38.44,2.87.35,4.3-1.8.71-2.56-.2-2.3-2.73-.38-1.12-2.17-.69-5.37,1.29l-.15-1.16c-2.11-.13-3.49-.94-4.13-2.43-2.35,1.31-3.45-.43-2.58-2.83,3.49-.65,6.36-1.8,8.61-3.47-1.42-1.27-1.79-3.5-1.1-6.68.74-.91,1.24-2.04,1.92-3-.47,8.17,6.13,13.52,1.09,14.58,1.7.84,2.78,1.23,3.65,2.13Z"/>
      <path class="cls-95" d="M60.58,74.88c-.34,1.99-2.96.79-3.88,2.24-.43.21-.99.62-1.46.12l-.41-2.11c-.11-.57.27-2.73.64-3.74.21-.58.83-.58,2.06-.13.9,1.6,1.24,3.97,3.04,3.62Z"/>
      <path class="cls-144" d="M64.88,100.2c.13,2.16-1.89,3.38-2.93,5.1-.36,1.99-2.5,1.68-3.26-.17-2.23,0-2.71-3.07-.48-3.51.16-.03-.58,2.75-1.53.34-2.4-1.12-1.38-4.46,1.21-4.13l1.79-.55c-.05,1.06,1.16,1.93,1.76,2.63.91,1.06,2.3,1.17,3.44.29Z"/>
      <path class="cls-114" d="M67.89,104.13c-.63,2.26-1.02,4.48-.28,6.74.49,3.04-7.84,3.32-8.63.38-2.32-1.89-2.92-3.66-1.81-5.31-.46-1.96.19-2.32,1.53-.8,1.07.05,2.2-.02,3.26.17,1.4.25,2.17-.67,3.42-1.88.86-.84,2,.24,2.52.71Z"/>
      <path class="cls-70" d="M57.84,97.06l.05.78c-.62,1.31-1.02,2.7-1.21,4.13-.04,1.88-.76,1.79-1.56.08-.96.63-1.6.25-1.53-.9-2.61-1.58-.54-5.6,1.96-6.82.81.74,1.58,1.85,2.3,2.73Z"/>
      <path class="cls-32" d="M67.61,110.87c.42,1.29.23,2.84.23,4.17-.74.3-1.41.82-2.16,1.08-.17,2.04-1.1,2.04-1.91.15-1.28.75-3.07,1.8-4.79,1.55-1.79.62-1.94-1.43-1.11-2.77-2.31-1.33-2.11-5.24,1.12-3.8l8.63-.38Z"/>
      <path class="cls-54" d="M44.9,64.93c-.87-.21-3.67.59-3.79-.64-.19-1.9,1.84-2.62,2.59-3.34.01,1.39,1.69.77,3.01,1.72.9.65-1.05,1.96-1.8,2.26Z"/>
      <path class="cls-97" d="M52.86,65.11c-.89.79-2.09.64-3-.06.38-.9,1.04-1.65,1.92-2.1.01.88.77,1.41,1.08,2.16Z"/>
      <path class="cls-33" d="M63.76,116.27c.42,1.32,1.05,2.54,1.89,3.67.56-.32,1.44-.66,1.95-.2l2.01,1.78c.37.33-1.77.99-1.78,1.53-.14,1.39-1.3,2.07-3.47,2.05l-6.26-1.28-.8.05-.23-.97c-1.69.44-1.82-1.2-.25-1.86,1.99-.52,2.66-1.19,2-2-1.57-.06-1.47-.85.13-1.23.6-.77,1.39-1.55,2.04-2.11.93-.81,1.99.04,2.75.57Z"/>
      <path class="cls-20" d="M78.91,128.03c-1.48.1-3.15.17-4.13-1.03.76-.58,1.69-1.01,2.63-1.09,1.14-.1,2.26.98,1.5,2.11Z"/>
      <path class="cls-108" d="M65.67,116.12c.08,1.27.08,2.54-.02,3.81-1.12.63-3.58,1.42-3.59-.8,0-1.32,1.59-1.99,1.7-2.87.6-.15,1.32.05,1.91-.15Z"/>
      <path class="cls-39" d="M46.85,75.98c-3.62,2.36-5.43,3.53-5.43,3.53l1.25,4.58c2.67.15,2.62,1.09.13,2.03-.34,2.19-4.32,3.2-6.21,2.18-1.38-.46-2.65-1.78-3.29-3.15-.87-.19-.92-.51-.15-.98-.02-1.07.25-2.15.8-3.22-4.25-1.27-1.8-7.5,1.87-5.2,1.98-.98,4.09-1.71,5.99-2.88.49.16.9.35,1.02.66.29.74-1.43,1.48.2-.58.34-.51,1.77-1.32,2.19-.42l1.62,3.45Z"/>
      <path class="cls-72" d="M35.82,75.75c-1.87.92-2.86,3.41-1.87,5.2-.28.89-.65.89-1.12.06-1.2,1.12-2.65.49-3.1-1.05-1.4-.86-2.39-2.52-2.98-4.97-1.23-1.11-1.83-3.25.02-3.64,1.34,1.27,3.16.05,5.05.14,2.24.1,2.87,2.97,4,4.26Z"/>
      <path class="cls-93" d="M51.94,85.72c-2.01,1.61-4.53,2.66-7.56,3.16-.16,2.29-2.11,2.12-3.33.13.28,2.93-6.75,3.92-8.31,2.04-.78-.41-.76-.75.09-1.01l-3-6c-1.26-.35-1.29-1.6-.08-2.06.63-1.56,2.63-.48,2.08,1.06,1.41-.87,1.78-.39,1.32,1.12-.02.29.25.72.15.98.84,1.41,1.93,2.28,3.29,3.15,2.36,0,4.13-1.46,6.21-2.18,1.36-1.44,3.41-2.13,6.15-2.07-.31-1.49-.54-3.1.74-4.14-.07-.54.91-.58,1.14-.87.12,2.29,2,4.36,1.1,6.68Z"/>
      <path class="cls-25" d="M46.85,75.98c.28.59.38,1.21.66,1.77.11,1.82-1.13,2.88-3.74,3.18,1.59,1.44.75,2.7-1.1,3.16-1.41-.19-2.26-1.04-2.66-1.93-.6-1.31-1.01-3.56.43-4.33,2.19-1.16,4.42-1.34,6.41-1.84Z"/>
      <path class="cls-141" d="M47.51,77.74c.46.91,1.41,1.56,2.18,2.17.22.93.43,1.78.8,2.74.53,1.34-1.06.84-1.55,1.4-1.67.75-2.63.75-1.78-1.1-1.22-.57-2.35-1.25-3.4-2.03.85-1.31,1.87-3.5,3.74-3.18Z"/>
      <path class="cls-56" d="M24.5,66.39c-.12,1.76,1.33,3.61,2.27,4.96-.13,1.21-.16,2.43-.02,3.64,1.46,1.42.9,2.02-.96,1.06-2.77.46-4.01-3.35-1.83-4.9-3.24.21-3.56-3.52-.95-4.82.38-.86.89-.78,1.5.07Z"/>
      <path class="cls-9" d="M24.5,66.39c-.5.03-1,0-1.5-.07-1.96.28-2.04-.52-.17-1.28.34-2.1.65-4.2.93-6.29l1.3.19c1.98,2.17.09,5.01-.57,7.46Z"/>
      <path class="cls-93" d="M51.85,69.94c.13.43.1,2-.41,1.65-.78-.54-1.74-.1-2.88-.65-1.74-.84.8-2.69,1.29-3.81.83.82,1.6,1.71,2.01,2.82Z"/>
      <path class="cls-134" d="M25.06,58.04c.48.32.43.55,0,.89-1.96,1.56-.6,4.37-2.23,6.11-2.95-.83-3.22-6.62.18-7.3,1.08-.41.9-.1,2.04.3Z"/>
      <path class="cls-135" d="M41.81,72.87l1.22.08c.86-.07,1.06.96.78,1.6-.32.74-1.22.59-2.44.47-.94-.09.17-1.31.44-2.15Z"/>
      <path class="cls-34" d="M45.91,92.03c4.61.03-.21-2.69,6.89-1.5-1.36.89-2.22.7-2.65,1.25-.67.86-.3,1.5.61,2,1.06.57,4.55-1.27,4.49-1.26.76-.04-.02,1.52.3,1.81-1.97,1.59-3.1,3.54-3.39,5.85-1.47.4-3.05,0-4.75-1.21.67-1.26.86-2.22.54-2.87-1.17.5-1.82-.07-1.18-.9.58-.76-1.97,4.54-4.04,2.85-.28.86-.58.81-.91-.08-.87.34-1.16.13-.94-.8l-1.21.07c-1.43-1.5-3.07-2.33-4.92-2.49-1.03,1.72-1.97,1.2-2.1-.85-1.56-1-1.62-2.08.1-2.85,2.51-1.59,5.53-1.38,8.31-2.04l1.39.06c.44,1.34,1.59,2.33,3.47,2.97Z"/>
      <path class="cls-18" d="M51.94,85.72c2.01.12,2.41,1.48.24,1.3-2.54,1.72-4.82,2.49-7.85,2.72l1.58,2.29c-1.26,0-3.23,2.98-4.47.65-.58-1.09.01-2.69-.38-3.67,3.69-.87,7.06-3.03,10.89-3.29Z"/>
      <path class="cls-15" d="M58.69,105.14c-.53-.02-1.05.64-1.53.8-1.8,1.64-3.61-2.91-2.04-3.88l1.56-.08,2.18-.9c-.16,1.82-1.05,2.97-.17,4.07Z"/>
      <path class="cls-158" d="M55.12,102.05c-.21,1.78,1.26,2.63,2.04,3.88.88,1.4,1.52,1.98,3.97,1.92-1.82.8-1.43,2.69-2.16,3.39-1.16,1.11-1.59,2.06-1.12,3.8-.42.82-.77.76-1.04-.15-.34.85-.66.82-.97-.07-3.55-.03-4.42-9.52-2.42-11.68-2.2-.27-1.78-1.23.16-1.99.62-.09,1.64-.01,1.53.9Z"/>
      <path class="cls-66" d="M55.55,94.33c-.28,2.5-2.12,4.43-1.96,6.82-.52,1.37-1.91,2.15-2.84.77-5.67.45-10.17-3.77-2.79-5.82.37-.27.74-.49.95-.71.61-.62.73.05.72.33-.02.54-.41,1.07-.76,1.79-1.04,2.14,1.4,3.36,2.25,1.07.07-2.08.59-3.43,1.9-3.71l2.52-.54Z"/>
      <path class="cls-65" d="M58.97,117.82c-.23.29-.03.88-.13,1.23.89,1.78-.61,2.06-2,1-1.33-.41-1.33-2.13-.02-5.15l1.04.15c.27.97.07,2.16,1.11,2.77Z"/>
      <path class="cls-98" d="M22.93,112.13c.15-1.19,3.31.39,4.17.97,1.32.88.13,3.91-2.21,3.89-.1.33-.07.76-.12,1.1-.92,1.31-2.37,2.89-3.89,2.9-.07,1.08-.41,1.76-1.04,2.05-1.17,1.89-1.17,3.56,0,5,.33.98.93,1.9,1.78,2.78.29-1.9,1.08-1.81,1.39.14,2.23-1.6,3.28-.45,2.83,2.08l.17.92c.76,1.73.29,2.33-1.17,1.08-1.45.77-2.47.8-2-1-7.45.6-8.07-2.63-7.63-9.71-2.98-.68-4.43-1.53-2.25-4.31-.89-.15-.87-.44-.03-.85,2.25-2.63,4.67-5.24,7.27-7.85l2.73.81Z"/>
      <path class="cls-12" d="M10.78,128.03l2.18,3.99c.96.34,1.58,1.35,1.87,3.02,1.32-.06,3.52.68,4,2,1.79-1.06,3.79-1.73,6-2,.26-.39,1.31-.37,1.17-1.08,1.59.81.64,2.98.84,4.12-1.33,1.6-3.54,2.23-6.01,1.95l-7.46-.84c-4.36,1.8-6.24-5.22-5.58-8.15l-.08-3.17c-2.25-1.58-1.57-2.43,1-1.44.07-.91.39-.97.94-.21,1.58-.32,2.24.62,1.13,1.81Z"/>
      <path class="cls-32" d="M56.83,121.04c-.04-.33,0-.67,0-1,.8.02,1.68-.19,2-1,.62.05,1.16.02,1.5.17.86.38.89,1.71-.51,2.04-1.25.3-2.2-.26-2.98-.21Z"/>
      <g>
        <path class="cls-108" d="M67.83,123.04c.73.57.36,1.48-.01,2.17-1.48,1.18-3.28,2.15-5.34,1.84-1.77-.27-3.22-1.79-4.37-3.23,1.6-3.76,5.29.45,9.73-.77Z"/>
        <path class="cls-75" d="M65.14,124.54c-.35,1.94-1.92,1.62-2.72,1.45-.56-.12-1.13-.86-1.63-1.78,1.64-.18,2.62-.63,4.35.33Z"/>
      </g>
      <path class="cls-105" d="M48.95,84.05c-1.63,1.87-4.09,1.35-6.15,2.07l-.13-2.03c.75-1.84,3.09-2.77,4.5-1.14.46.55,1.11.88,1.78,1.1Z"/>
      <path class="cls-61" d="M36.59,88.3c-1.02,0-1.67.26-2.27-.31-1.07-1.03-1.5-1.8-1.02-2.84,1.66.25,2.71,1.65,3.29,3.15Z"/>
      <path class="cls-126" d="M33.15,84.16c-.75.08-1.37-.32-1.32-1.12-1.53-1.02-.85-2.1,1-2.04l1.12-.06c.38.68,1.19,1.11.46,2.01-.36.44-.72.89-1.26,1.2Z"/>
      <path class="cls-107" d="M29.73,79.96c1.86.63,1.94,1.51.02,2.03.07.68.09,1.38.08,2.06l3,6c.05.31-.05.69-.09,1.01-.13.94-.2,1.89-.1,2.85-.17.86-.48.82-.89-.02-.72.59-1.08.3-1.12-.72-1.71-1.06-2.61-3.08-2.7-6.07-1.75-.81-2.42-2.83-2.02-6.05-1.01-2.03-1.05-3.69-.11-4.98.4-.27.73-.63.96-1.06,1.9.91,2.36,3.09,2.98,4.97Z"/>
      <path class="cls-39" d="M32.83,81.01c-.13.77-.31,1.58-1,2.04l-2.08-1.06c-.07-.64.18-1.42-.02-2.03,1.1.11,2.18.42,3.1,1.05Z"/>
      <path class="cls-82" d="M32.84,90.04c-2.31-.99-3.02-3.63-3-6,1.76,1.48,2.61,3.77,3,6Z"/>
      <path class="cls-16" d="M47.17,82.95c-1.36.67-2.94,1.35-4.5,1.14-.09-1.43.46-2.17,1.1-3.16.56-.35,2.22-.52,3.27.04.61.33,1.02,1.04.13,1.99Z"/>
      <path class="cls-70" d="M47.96,96.09c-.43,1.54-2.25,1.29-3.42,2.96,2.95.21,5.31.5,6.2,2.86.34.55.59.99.54,1.02-3.62,2.54-12.01,7.63-15.47,5.09-2.05-.74-1.13-1.21.8-1.56l.1-.94c2.19-2.46,4.19-4.95,6.02-7.49,1.32-1.35,3.32-1.63,4.59-3.95.4.62.5,1.31.64,2.01Z"/>
      <path class="cls-116" d="M40.88,97.16l.94.8c.56,2.03-.76,2.74-2.41,3.36-.18,3.38-2.56,4.82-5.9,4.26-1.61-.27-5.34-2.03-4.68-3.63-5.37-3.37,4.32-9.59,6-3.9.34-.91.78-1.94,1.32-3.1,1.5,1.03,3.08,1.77,4.73,2.22Z"/>
      <path class="cls-115" d="M34.75,94.74c2-.28,2.03.82.09,3.3-1.29-.36-2.88-1.06-4.29-.55-1.66.6-1.56,2.92-1.71,4.45-1.87,4.01-5.04-1.52-3.37-4.41-1.2-2.57,4.08-3.41,6.29-3.65.29.05.61-.05.89.02.73.2,1.43.5,2.1.85Z"/>
      <path class="cls-76" d="M28.83,101.94c1.95.55,7.22,5.87,8.45,1.74.93-3.15-1.63-3.04,4.54-5.72l.91.08c.44.75,1.15,1.4,1.9,2.29-2.52,2.58-5.54,3.94-8.02,6.14-3.82,1.78-14.29.7-11.93-5.54-2.03-.33-2.15-1.03-.52-2.15-1.01-1.4-.14-2.51,1.3-1.25-.07,1.2-.09,2.61.54,3.78.58,1.07,1.93.38,2.83.63Z"/>
      <path class="cls-76" d="M40.88,97.16c-.47.42-1.12.81-1.65.75-1.15-.13-1.22-1.56-2.75-2.27-1.52,2.11.08,4.06-1.03,6.49-1.2-1.25-.58-2.76-.61-4.09l-.09-3.3c2.29-1.7,4.32.88,6.14,2.42Z"/>
      <path class="cls-69" d="M53.59,101.15c.04.58-.41,1.44-.16,1.99l-11.43,5.89c.12.79.27,1.86-.28,2.27-2.29,1.73-9.91,4.78-12.85,5.47-1.03-.6-2.88.4-3.98.23.29-.93.97-2.02.45-3.05-.45-.88-1.56-1.35-2.41-1.81-.88-.32-.76-.6.23-.86-2.79-4.35,1.08-3.96,3.96-.87l6.91-1.5c-.37-1.76.42-1.99,1.78-.87,2.34-.77,5.47-.28,7.7-1.66l7.23-4.46c.84-.52,1.86-.63,2.84-.77Z"/>
      <path class="cls-119" d="M22.84,134.04c1.53,1.95-3.13,3.11-4,1-.81,1.68-2.97.41-4-1-.81-.68-1.1-1.87-.88-3.55-.72-2.34-2.15-3.76-4.31-4.27l-.94.21c-1.67.92-2.12.28-.91-1.27-1.89-.35-1.75-1.07.21-1.34-.24-2.59.94-2.01,2.59-.94-1.7-2.72-.5-4.55,2.35-2.86-.21.9.16,1.58.7,1.79.79.3,2.31.25,3.43.39.92,4.31-2.81,8.77.59,10.41,1.39.67,3.81-1.7,5.17,1.44Z"/>
      <path class="cls-21" d="M23.16,111.27c-.13.27-.2.56-.23.86-4.23,1.65-6.61,6.93-10,7.04l-.71-.75c-2.47,1.73-4.98-.89-2.47-2.53-.65-2.4,1.47-4.32,6.35-5.75.84-1.62,1.9-2.61,3.18-2.96.31-.84.6-.78.85.13,2.38-.49,3.39.83,3.03,3.96Z"/>
      <path class="cls-125" d="M9.75,115.89c-.12,3.98,4.51-2.14,5.97-.54-.6,1.78-2.13,2.41-2.79,3.81l.03.85c-.88.77-2.07,1.64-2.35,2.86l-1.46.16c-1.35-2.25-2.67-4.52-3.97-6.82-1.67.84-1.78.18-.41-1.15.43-.55,1.42-1.25,1.97-1.71,2.69-1.41,5.42-.4,3.02,2.54Z"/>
      <path class="cls-75" d="M24.84,135.04c-1.31,1.97-3.79,2.15-6,2-1.85-.55-2.01-1.63,0-2,1.33.14,3.37.41,4-1,.56.28,1.61.32,2,1Z"/>
      <path class="cls-154" d="M19.84,128.04c-1.26-.18-2.29-.9-2-2.34.22-1.09,1.49-1.67,2-2.66v5Z"/>
      <path class="cls-103" d="M5.17,116.21c.87.92,1.17,1.4-.15,1.61-.64,2.77.29,5.22,2.78,7.34l.91,1.27c-.24.47-.93.91-1,1.44C3.1,127.45.61,123.47,0,119.08c1.32-1.47,3.15-3.01,4.76-4.02l.41,1.15Z"/>
      <path class="cls-40" d="M14.84,134.04c.85.33.85.66,0,1-1.33-.38-1.86-1.71-1.87-3.02l-2.18-3.99c-.68-.22-.95-1.24-1.13-1.81.53-.37,1.08-.81,1.78-.98-.27.06,5.03,2.46,3.4,8.8Z"/>
      <path class="cls-157" d="M18.84,135.04v2c-1.56-.1-3.09-.67-4-2,.05-.32-.08-.69,0-1,1.35.21,2.64.86,4,1Z"/>
      <path class="cls-119" d="M12.97,132.02c-1.37-.88-2.18-2.36-2.18-3.99,1.75.56,2.3,2.26,2.18,3.99Z"/>
      <path class="cls-165" d="M30.63,93.15c.35.28.73.52,1.12.72-1.84,1.99-5.01,1.33-6.29,3.65-.28.5-1.05.71-1.3,1.25-2.34,1.23-2.6-.69-1.14-2.64,2.26-1.62,4.81-2.68,7.61-2.99Z"/>
      <path class="cls-115" d="M24.68,100.93c.19,1.12.58,2.22,1.24,3.48.52,1,2.28-.33,3.17.33,2.49,1.84,4.95,1.72,7.53,1.73-.46.41-.75.94-.8,1.56-.61.2-1.11.79-1.78.87-4.11,3.72-15.45-1.22-11.35-5.59.1-.1.89,2.19-.71-.6-2.23.05-2.18-1.28,0-1.8-.63-3.12,1.68-2.95,2.71.01Z"/>
      <path class="cls-123" d="M34.04,108.91c.62,2.33-6.48,4.07-7.84,3.25s-2-1.91-2.94-3.16l-.09,2.28c-1.47-.9-2.47-2.34-3.03-3.96-.97-3.31-.36-4.85,1.84-4.6.29-.36,1.15-.5,1.6-.4,1.13.24-.51,1.62-.31,2.27,1.72,5.45,9.88,3.44,8.85,3.02.81.33,1.33.91,1.92,1.31Z"/>
      <path class="cls-57" d="M19.28,107.19c-2.57,7.46-2.25,2.05-9.53,8.71-.05-1.86-2.38-1.21-3.02-2.54,1.11-.94,2.38-1.77,3.35-2.74l3.57-2c1.35-1.82,2.82-3.03,4.41-3.64,2.27-1.59,3.02.57,1.23,2.22Z"/>
      <path class="cls-160" d="M18.05,104.97c-1.8,2.99-4.25,6.27-7.98,5.64l2.59-2.6c1.71-1.72,3.16-3.61,5.43-4.91,2.3.03,2.21,1.32-.04,1.86Z"/>
      <path class="cls-2" d="M21.98,100.92v1.8c-1.14.95.09,5.47-1.84,4.6l-.85-.13c-.2-.84-.54-1.68-1.23-2.22l.04-1.86c.6-.34.53-1.53.99-1.97.54-.51,1.34-.78,1.92-1.24,1.44-1.29,1.94-.72.98,1.02Z"/>
      <path class="cls-29" d="M5.02,117.82c2.01.07,4.19,4.27,2.99,6l-.21,1.34c-2,.03-4.42-.98-4.88-3.43-.26-1.39-.2-3.77,2.09-3.91Z"/>
      <path class="cls-92" d="M10.61,122.88c-.34,1.46-1.6.49-2.59.94-1.08-1.98-1.46-4.32-2.99-6l.15-1.61c2.79,1.29,3.23,4.71,5.43,6.67Z"/>
      <path class="cls-123" d="M24.16,98.78c.63.51.41,1.48.52,2.15-.81-.69-1.9-.73-2.71-.01l-.98-1.02c-.15-1.81.73-2.83,2.02-3.75-.24,1.1.31,1.98,1.14,2.64Z"/>
    </g>
  </g>
</svg>