<?xml version="1.0" encoding="UTF-8"?>
<svg id="Enemy" xmlns="http://www.w3.org/2000/svg" viewBox="0 0 141.84 104.32">
  <defs>
    <style>
      .cls-1 {
        fill: #22262a;
      }

      .cls-2 {
        fill: #16171a;
      }

      .cls-3 {
        fill: #238322;
      }

      .cls-4 {
        fill: #066307;
      }

      .cls-5 {
        fill: #292e31;
      }

      .cls-6 {
        fill: #005c00;
      }

      .cls-7 {
        fill: #1f8421;
      }

      .cls-8 {
        fill: #121e13;
      }

      .cls-9 {
        fill: #111518;
      }

      .cls-10 {
        fill: #207b25;
      }

      .cls-11 {
        fill: #023702;
      }

      .cls-12 {
        fill: #252525;
      }

      .cls-13 {
        fill: #29211d;
      }

      .cls-14 {
        fill: #5c885f;
      }

      .cls-15 {
        fill: #2b3033;
      }

      .cls-16 {
        fill: #383d43;
      }

      .cls-17 {
        fill: #09590a;
      }

      .cls-18 {
        fill: #2e3238;
      }

      .cls-19 {
        fill: #0b610b;
      }

      .cls-20 {
        fill: #4a4a4a;
      }

      .cls-21 {
        fill: #505253;
      }

      .cls-22 {
        fill: #1f741f;
      }

      .cls-23 {
        fill: #267e24;
      }

      .cls-24 {
        fill: #095f09;
      }

      .cls-25 {
        fill: #42474d;
      }

      .cls-26 {
        fill: #242b21;
      }

      .cls-27 {
        fill: #262c25;
      }

      .cls-28 {
        fill: #20811f;
      }

      .cls-29 {
        fill: #2d2d2d;
      }

      .cls-30 {
        fill: #1d841e;
      }

      .cls-31 {
        fill: #292d31;
      }

      .cls-32 {
        fill: #383838;
      }

      .cls-33 {
        fill: #3c3c3c;
      }

      .cls-34 {
        fill: #282b30;
      }

      .cls-35 {
        fill: #453b44;
      }

      .cls-36 {
        fill: #004501;
      }

      .cls-37 {
        fill: #161916;
      }

      .cls-38 {
        fill: #061604;
      }

      .cls-39 {
        fill: #30353a;
      }

      .cls-40 {
        fill: #5b5b5b;
      }

      .cls-41 {
        fill: #32322f;
      }

      .cls-42 {
        fill: #28282d;
      }

      .cls-43 {
        fill: #1c501d;
      }

      .cls-44 {
        fill: #1b811b;
      }

      .cls-45 {
        fill: #0a300a;
      }

      .cls-46 {
        fill: #323935;
      }

      .cls-47 {
        fill: #024c03;
      }

      .cls-48 {
        fill: #111010;
      }

      .cls-49 {
        fill: #083607;
      }

      .cls-50 {
        fill: #279d28;
      }

      .cls-51 {
        fill: #171717;
      }

      .cls-52 {
        fill: #32373c;
      }

      .cls-53 {
        fill: #034004;
      }

      .cls-54 {
        fill: #202225;
      }

      .cls-55 {
        fill: #2f3437;
      }

      .cls-56 {
        fill: #17181b;
      }

      .cls-57 {
        fill: #404040;
      }

      .cls-58 {
        fill: #045a04;
      }

      .cls-59 {
        fill: #005000;
      }

      .cls-60 {
        fill: #1b861b;
      }

      .cls-61 {
        fill: #34393c;
      }

      .cls-62 {
        fill: #282d31;
      }

      .cls-63 {
        fill: #113615;
      }

      .cls-64 {
        fill: #096205;
      }

      .cls-65 {
        fill: #1f1f1f;
      }

      .cls-66 {
        fill: #383d41;
      }

      .cls-67 {
        fill: #011801;
      }

      .cls-68 {
        fill: #013401;
      }

      .cls-69 {
        fill: #141517;
      }

      .cls-70 {
        fill: #23262b;
      }

      .cls-71 {
        fill: #685b38;
      }

      .cls-72 {
        fill: #1c2124;
      }

      .cls-73 {
        fill: #575757;
      }

      .cls-74 {
        fill: #141719;
      }

      .cls-75 {
        fill: #666;
      }

      .cls-76 {
        fill: #43464b;
      }

      .cls-77 {
        fill: #0b7f0b;
      }

      .cls-78 {
        fill: #064405;
      }

      .cls-79 {
        fill: #313128;
      }

      .cls-80 {
        fill: #232321;
      }

      .cls-81 {
        fill: #4b452a;
      }

      .cls-82 {
        fill: #292d30;
      }

      .cls-83 {
        fill: #055705;
      }

      .cls-84 {
        fill: #383e41;
      }

      .cls-85 {
        fill: #433d44;
      }

      .cls-86 {
        fill: #167813;
      }

      .cls-87 {
        fill: #3f8f3c;
      }

      .cls-88 {
        fill: #23262a;
      }

      .cls-89 {
        fill: #165315;
      }

      .cls-90 {
        fill: #21262b;
      }

      .cls-91 {
        fill: #177517;
      }

      .cls-92 {
        fill: #616161;
      }

      .cls-93 {
        fill: #181d21;
      }

      .cls-94 {
        fill: #3b8b3a;
      }

      .cls-95 {
        fill: #42474a;
      }

      .cls-96 {
        fill: #0d230d;
      }

      .cls-97 {
        fill: #272c32;
      }

      .cls-98 {
        fill: #363737;
      }

      .cls-99 {
        fill: #0e4f0f;
      }

      .cls-100 {
        fill: #156515;
      }

      .cls-101 {
        fill: #056505;
      }

      .cls-102 {
        fill: #0a280b;
      }

      .cls-103 {
        fill: #1d1d1d;
      }

      .cls-104 {
        fill: #42474b;
      }

      .cls-105 {
        fill: #44494f;
      }

      .cls-106 {
        fill: #106c0f;
      }

      .cls-107 {
        fill: #101316;
      }

      .cls-108 {
        fill: #515151;
      }

      .cls-109 {
        fill: #145c11;
      }

      .cls-110 {
        fill: #032c07;
      }

      .cls-111 {
        fill: #171718;
      }

      .cls-112 {
        fill: #0b740e;
      }

      .cls-113 {
        fill: #1d871f;
      }

      .cls-114 {
        fill: #222425;
      }

      .cls-115 {
        fill: #2d3136;
      }

      .cls-116 {
        fill: #4a4e55;
      }

      .cls-117 {
        fill: #1f7822;
      }

      .cls-118 {
        fill: #154817;
      }

      .cls-119 {
        fill: #484848;
      }

      .cls-120 {
        fill: #1d2119;
      }

      .cls-121 {
        fill: #076008;
      }

      .cls-122 {
        fill: #185b1e;
      }

      .cls-123 {
        fill: #26292d;
      }

      .cls-124 {
        fill: #2e271e;
      }

      .cls-125 {
        fill: #545454;
      }

      .cls-126 {
        fill: #1a1e21;
      }

      .cls-127 {
        fill: #191b1b;
      }

      .cls-128 {
        fill: #0c6b10;
      }

      .cls-129 {
        fill: #32373b;
      }

      .cls-130 {
        fill: #0f4c05;
      }

      .cls-131 {
        fill: #353535;
      }

      .cls-132 {
        fill: #2a2c2e;
      }

      .cls-133 {
        fill: #0b3508;
      }

      .cls-134 {
        fill: #0a0c0e;
      }

      .cls-135 {
        fill: #474c50;
      }

      .cls-136 {
        fill: #001a00;
      }

      .cls-137 {
        fill: #419b45;
      }

      .cls-138 {
        fill: #144c13;
      }

      .cls-139 {
        fill: #092906;
      }

      .cls-140 {
        fill: #125a11;
      }

      .cls-141 {
        fill: #4a4f55;
      }

      .cls-142 {
        fill: #20851f;
      }

      .cls-143 {
        fill: #233823;
      }

      .cls-144 {
        fill: #373c40;
      }

      .cls-145 {
        fill: #024402;
      }

      .cls-146 {
        fill: #0a3a0a;
      }

      .cls-147 {
        fill: #061805;
      }

      .cls-148 {
        fill: #072001;
      }

      .cls-149 {
        fill: #101510;
      }

      .cls-150 {
        fill: #1c5420;
      }

      .cls-151 {
        fill: #164104;
      }

      .cls-152 {
        fill: #087608;
      }

      .cls-153 {
        fill: #0b0c0f;
      }

      .cls-154 {
        fill: #242424;
      }

      .cls-155 {
        fill: #177c18;
      }

      .cls-156 {
        fill: #09290a;
      }

      .cls-157 {
        fill: #676767;
      }

      .cls-158 {
        fill: #171818;
      }

      .cls-159 {
        fill: #035b03;
      }

      .cls-160 {
        fill: #323232;
      }

      .cls-161 {
        fill: #071407;
      }

      .cls-162 {
        fill: #161616;
      }

      .cls-163 {
        fill: #034903;
      }

      .cls-164 {
        fill: #177d19;
      }

      .cls-165 {
        fill: #181a1e;
      }

      .cls-166 {
        fill: #1f7b21;
      }
    </style>
  </defs>
  <g id="GreenStomper">
    <path class="cls-8" d="M37.07,8.46c-.05-1.3,1.01-2.17,2.16-1.38-.87-2.38.5-4.85,3.11-3.7.83-.7,1.36-.52,1.59.54,2.64.17.7,5.24-1.75,4.27,1.68.71,1.36,1.06-.96,1.03.17,1.06.2,2.06.1,3,.96-.55,1.65.1,2.07,1.93.44-.48.81-.16,1.11.98,4.75-1.43.38,6.31-1.78,2.2-2.45-2.55-4.92-5.36-5.64-8.87Z"/>
    <g>
      <g>
        <path class="cls-37" d="M44.49,15.14c-2.08-5.02,1.01-5.29,3.19-1.09,1.66-.7,2.14.88.79,1.96,1.14,1.47,1.17,2.46.08,2.98,2.79.35,2.65,1.51.24,2.9-.91.5-2.24.28-4.01-.65l-2.2-2.84c.03-.27.45-.71.13-1.06.81,0,1.99.17,2.58-.69.27-.4-.77-1.05-.81-1.5Z"/>
        <path class="cls-118" d="M37.95,4.26c2.52-.24,2.03.95,1.27,2.83-.38.86-1.23,1.34-2.16,1.38l-.95-1.06c.75-.92,1.46-2.01,1.84-3.15Z"/>
        <path class="cls-19" d="M37.95,4.26c.33-1,.35-2.05,1.27-3.09.63-.7,1.63-.96,2.63-.12,2.78-.24,2.94,1.05.48,2.34-.93,1.33-2.44,2.17-3.11,3.7-.86-.69-1.16-1.77-1.27-2.83Z"/>
        <path class="cls-47" d="M10.84,26.43c4.92,3.17,1.33-2.18,5.3,3.83,2.69.2,3.74.73,1.85,3.04.29,1.88,1.34,3.06,3.16,3.54.62-.53,1.04-.22,1.29.96.46.37.75.36.82.71.19,1-.5,1.86-1.78,1.23-.98-.48-2.06-1.41-3.3-.12,2.24.53,3.97,1.48,5.26,3.23-.25.91-.61.92-1.06.07-2.58,3.19-8.7-2.34-6.43-4.55-1.92.43-2.03-.33-.19-1.27-1.79-2.75-3.71-4.39-5.75-4.91-2.49-.29-2.68-.69-1.28-2.77-1.92.29-1.97-.49-.06-1.17.55-.82,2.14-.57,2.19-1.82Z"/>
        <path class="cls-45" d="M22.36,35.97c.1.6.01,1.22.08,1.82-.49-.24-.85-.66-1.29-.96-2.31.95-3.1-1.54-3.16-3.54-.71-.63-1.3-2.2-1.85-3.04,1.4.09,3.92-1.1,5.29.16,1.47,1.36.68,4.03.94,5.55Z"/>
        <path class="cls-26" d="M44.78,21.23c.86-.98.15-2.85,2.23-3.44.78,1.63.17,3.68,1.78,4.09,1.19-3.21,4.8-.89,2.89,1.82.24.85.02.89-.62.18-.05.93-.87,1.73-2.48,2.38l-1.93.58c-1.03-1.74-1.61-3.65-1.86-5.63Z"/>
        <path class="cls-147" d="M42.17,8.2c2.16-2.06,2.41-1.84,2.83.9l2.27,1.92c1.72-.32,1.88,2.37.41,3.03-1.32.03-2.14-.89-2.97-2.01-.71,1.36-.28,2.3-.22,3.11-.43-.18-.68-.84-1.11-.98-.6-1.42-.99-3.07-1.17-4.96-.25.88-.59.88-1,.03.39-.2.58-.8.96-1.03Z"/>
        <path class="cls-80" d="M43.92,3.92c-1.99-1.79.46-3.35,2.27-1.87l.17,2.22c1.91.65,1.84,1.49-.13,1.88.02,1.24.6,2.45,1.72,3.64l-.69,1.23c-2.45.44-2.77-2.92-5.1-2.82-.19-1.89,3.35-2.57,1.75-4.27Z"/>
        <path class="cls-14" d="M41.85,1.05c2.47-.14,3.95-2,5.02-.41.32.47.15,1.08-.68,1.42-.86.25-2.18.89-2.27,1.87-.51-.23-1.04-.43-1.59-.54,0-.8-.45-1.56-.48-2.34Z"/>
        <path class="cls-150" d="M42.2,9.2c1.89.77.91,3.32,1.17,4.96-1-.34-1.51-1.12-2.07-1.93-.52-.97-.15-2.47.89-3.03Z"/>
        <path class="cls-87" d="M41.2,9.23l1-.03c.08,1.08.31,2.54-.89,3.03-.35-.5-1.22-.56-1.14-1.48.07-.76.36-1.17,1.03-1.52Z"/>
        <path class="cls-48" d="M46.23,6.15c2.42-.86,2.99-.27,2.55,2.18,1.28,1.66,3.33,6.56,1.66,7.58.74,2.31-2.93,2.63-1.97.09.26-.7-.56-1.41-.79-1.96-.38-.9.03-2.15-.41-3.03-.49-.96-1.57-1.6-1.92-2.66-.28-.85.16-1.65.88-2.2Z"/>
        <path class="cls-46" d="M48.55,18.98c-.7-1.67,2.62-2.63,3.22-.78,1.78-.18,3.1.79,1.91,2.37,1.76.82,1.73,1.53-.09,2.12.67,1.96-.29,2.44-1.92,1.03-.52-1.21-1.73-1.53-2.89-1.82-.14-.95-.03-1.96-.24-2.9Z"/>
        <path class="cls-42" d="M48.47,16c-.19.34.25,1.05.49.92.65-.36,1.08-.82,1.48-1.01.66-2.17,5.06.09,3.17,1.76.16,1.93-.37,1.58-1.84.53-1.13.03-2.28.09-3.22.78-.11-.51-.74-.91-.82-1.62-.06-.54.56-.86.74-1.35Z"/>
        <path class="cls-138" d="M0,33.93c2.78-2.45,4.63-6.32,8.65-5.69l.06,1.17c.44,2.56-1.38,4.65-3.89,3.21-2.13,4.23-1.73,7.29,1.2,9.17,1.67,0,8.96,1.64,9.24,2.33.4.98.41,2.91-.34,3.57.78.59.71,1.05-.21,1.38,0,2.7-.75,5.95-1.6,8.25.06,1.26-.19,1.78-1.22.96-3.88,1.37-4.97-6.62-1.3-7.3,7.49-8.7-6.79-1.09-9.96-9.72-.86-2.35-.27-5.09-.64-7.33Z"/>
        <path class="cls-83" d="M23.86,47l2.43-1.95c.48,0,.94-.12,1.35-.37,1.86-2.37,4.14-2.02,4.82.87-.05-1.57,2.15-1.43,2.31.1,4.94,2.2,7.78,8.73,4.91,13.68,1.8,1.1.34,2.81-1.64,2.89-.45,1.83-6.57,4-7.76,1.37-1.16.02-.95-2.99-.15-3.9.2-.85.49-.84.86-.01.88-1.81.85-2.56-.11-2.26-.93,1.43-3.06,1.35-3.13-.64-1.14-.68-2.17-1.38-3.11-2.11-3.53,1.07-5.18.5-4.94-1.7-2.16-2.46,2.33-8.08,4.14-5.97Z"/>
        <path class="cls-121" d="M53.78,27.6c-.91-1.71-1.64-4.03.55-4.64.11-3.53,3.95-1.53,3.45,1.76,1.51-.05,2.46,2.01,1.03,2.85,2.34,3.04-2.4,9.22-3.62,5.19.16-1.38-.32-2.81-1.21-3.85-1.9.39-2.03-.44-.21-1.3Z"/>
        <path class="cls-96" d="M56.21,35.8c-.68-.75-.92-1.56-.3-1.83,3.14-1.34,4.49-2.83,2.9-6.41-.31-.96-.78-1.87-1.03-2.85-1.03-1.9-1.3-3.04.9-2.02,4.69-.71,7.21,9.86,2.34,11.8-1.56.9-2.99,1.93-4.49,2.93l-.34-1.63Z"/>
        <path class="cls-102" d="M46.53,47.07c1.13-1.56,2.29-.71,3.17.84.13.28-.01.64.06.94.71,1.19,1.68,2.26,2.03,3.62-.35-.07-.75.07-1.11.06-.1.88-.39.9-.88.12.14-.71-.47-.61-.95-.69-1.41.56-1.82.53-1.18-.92-.87-1.13-1.07-2.58-1.14-3.96Z"/>
        <path class="cls-59" d="M51.83,25.85c1.59-1.49,2.12-.11,1.94,1.76l.21,1.3c-.36.25-.7.52-1.02.81-.78-.64-2.73-.33-3.07-1.55-.32-1.12-.16-2.01.4-2.23.42-.17,1.08-.01,1.54-.09Z"/>
        <path class="cls-4" d="M17.47,47.49c1.44-1.78,3.07-3.31,4.9-4.58.27.15.76-.15,1.06-.07.67.91,2.6.83,2.86,2.21l-2.43,1.95c-.2.42-1.75.14-1.81.96-.14,2.13-1.04,3.66-2.33,5.01.94,1.71.23,2.13-1.19.77-2.35.06-3.2-5.33-1.06-6.26Z"/>
        <path class="cls-67" d="M47.58,42.77c.3-.03.62.07.92.06,1.38.06,1.63,1.15.74,3.26.33.43.21,1.3.45,1.81-1.11-.06-2.2-.28-3.17-.84-.02-.3,0-.7-.12-.97-.09-1.59.3-2.7,1.18-3.32Z"/>
        <g>
          <path class="cls-53" d="M22.44,37.79c-.96-.95-.99-1.56-.08-1.82,2.4,1.01,5.59.32,6.47-2.28l3.23-3.13c.04-1.46,2.26-1.74,3.65-1.23l4.37-.02c1.1.95,2.53,1.12,3.88.4,1.11-.6,2.12-1.62,2.67-2.86-.46-2.64.46-2.79,1.93-.58,1.68,2.26,1.13,3.53-1.66,3.83,1.29,1.1,1.01,2.83-.85,5.2,1.29-1.39,2.27-1.75,3.9-.38.89-2.03,1.9-3.77,3.01-5.22-.37-.9,0-1.14,1.02-.81,3.18-1.22,4.15,2.34,1.21,3.85-.1.88.45,1.21,1.65.97l-.64,2.08c2.02-.66,1.73.19.34,1.63.88.39.82.75-.11,1.09,1.75,2.34-.94,4.19-3.11,2.31-1.91.21-2.02-.55-.2-1.3-1.11-.79-2.44-.98-3.99-.55,1.49,1.23.91,1.85-.87.92l-1.9,2.17c.41,1.26.6,2.69.06,4.02.96.05.96.38.12.97,1.75,1.04,2.65,2.37,1.14,3.96-.08,1.46-1.6,1.52-2,.07-1.5.4-1.04-.87-.33-2.06-1.72-1.66-2.93-3.24-3.65-4.72-3.35-1.53-6.77-2.17-10.25-1.9-.91,1.48-2.18,2.24-3.8,2.26.48,1.98-.31,2.19-1.35.37-2.78,1.02-3.73.28-2.86-2.21-4.63-1.77-9.92-5.87-1.39-3.9l.41-1.15Z"/>
          <g>
            <path class="cls-58" d="M45.33,49.04c-.73.32-1.31,1.45-1.67,2.12-1.65.4-2.5-1.38-3.1-2.89-.88.45-1.21.05-1.07-1.03.06-1.18-.91-1.79-2.91-1.82-.17.9-.52.94-1.02.14-2.08-1.37-3.12-1.37-3.1-.02-1.64-.07-3.21-.61-4.82-.87,2.02-8.06,15.36-1.51,15.83-1.03,1.39,1.41,2.16,3.25,1.86,5.39Z"/>
            <path class="cls-44" d="M46.91,30.11l1.9-2.14c3.82,1.65,3.57,3.63,1.15,6.97-1.91.81-3.05,3.03-5.4,3.69-1.77-4.04.87-6.07,2.35-8.51Z"/>
            <path class="cls-17" d="M48.57,26.28c.08-1.21,1.47-2.08,2.48-2.38,2.12-.22,2.47.64.79,1.95-.7,1.7-.77,2.16-.19,1.37,1.05.83,1.49,1.66,1.32,2.5-.23,2.2-.92,4.33-3.01,5.22-.19-1.59.85-2.87,1.1-4.85-1.78-.35-2.98.06-4.15.03.76-1.26,1.55-2.31,1.66-3.83Z"/>
            <path class="cls-78" d="M55.2,32.76c1.48,1.56,2.1-.18,2.75-.92,1.16-1.32,1.26-3.14.87-4.27,1.15.79,1.3,2.17,1.22,3.44-.16,2.76-2.66,2.77-3.83,4.8-.6-.49-1.18-.97-1.69-1.88-.23-.41.32-.81.69-1.16Z"/>
            <path class="cls-78" d="M53.11,39.53c-1.36,1.15-4.08,1.67-3.99-.55,1.93-.68,2.3-2.66,4.18-4.79,1.62,2.25-.39,3.64-.19,5.34Z"/>
            <path class="cls-100" d="M39.67,35.57l-6.43,2.09c-.61-2.12,1.09-2.55,2.06-3.42.76-.69,3.02-.34,4.37,1.33Z"/>
            <path class="cls-91" d="M48.25,39.9c.35-.18.52-.8.87-.92,1.31.33,2.64.53,3.99.55.05.43.18.87.2,1.3-1.79,1.7-3.39,2.36-4.81,2-.28.86-.59.82-.92-.06-1.32-1.08-1.15-2.62.66-2.87Z"/>
            <path class="cls-78" d="M48.25,39.9c-.32.92-.63,1.89-.66,2.87-.19,2.27-1.88,1.47-1.23-.7-.02-.56-1.57-1.62-.45-1.9.91-.22,1.56-.21,2.34-.27Z"/>
            <path class="cls-102" d="M46.35,42.07c-.12.84.69.76,1.23.7-.04,1.21.04,2.66-1.18,3.32-.56-1.37-1.01-2.82-.06-4.02Z"/>
          </g>
        </g>
        <path class="cls-60" d="M11.21,40.22c.03-2.03,2.98-2.56,4.72-1.87.63,2.91,4.04,3.27,6.43,4.55,0,1.36-.12,2.78-1.32,4-.81.82-2.23,1.13-3.57.58-.33,1.87-1.08,1.8-1.38-.11-.74-3.28-2.73-4.74-5.97-4.37-1.61-1.37-.99-2.48,1.09-2.78Z"/>
        <path class="cls-30" d="M4.82,32.62c1.29-1.05,2.13-2.75,3.89-3.21.84.68,1.25,1.7,1.28,2.77,1.3-.26,1.33.78.1,3.11.44,3.39-3.44,2.43-5.14.26-1.44.39-1.48-.58-.13-2.92Z"/>
        <path class="cls-112" d="M9.99,32.18c.59-.12,1.2-.27,1.95-.53.5-.17,4.21,3.64,3.8,5.44-.44,1.61-1.9,1.53-1.75-.3-2.18.34-4.56-1.56-2.61-2.2,1.16-.38,1.07,1.81-1.29.71-.21-1.02-.3-2.08-.1-3.11Z"/>
        <path class="cls-6" d="M14,36.78c.55-.12,1.18.34,1.75.3-.08.35.11.91.19,1.27-1.3,1.2-2.96,1.84-4.72,1.87-1.17.92-1.85.48-1.89-.99-2.95-2.35,2.62-5.09,4.67-2.45Z"/>
        <path class="cls-53" d="M17.99,33.3c1.58.78,1.74,2.57,3.16,3.54-.67.14-1.86,1.41-2.9,1.02-1.26-1.14-.99-3.46-.26-4.55Z"/>
        <path class="cls-113" d="M51.67,23.71c.7-.21,1.36-.55,1.92-1.03.41-.79.65-.67.74.28.05,1.57.33,3.26-.55,4.64l-1.94-1.76c-.12-.7-.39-1.36-.79-1.95l.62-.18Z"/>
        <path class="cls-63" d="M53.68,20.56c-.61-1.87.32-2.2,1.82-.88.59.4,1.53.47,2.2.75,2.71-.1,2.94.41.99,2.27-.71.32-1.09,1.26-.9,2.02-.95-1.17-2.02-3.4-3.45-1.76l-.74-.28c-.59-.6-.36-1.48.09-2.12Z"/>
        <path class="cls-149" d="M53.61,17.67c.33-.03.68.04,1.01.06.44.52.52,1.41.88,1.94-.56.39-1.18.66-1.82.88-.54-.86-1.19-1.64-1.91-2.37.62-.02,1.22-.47,1.84-.53Z"/>
        <path class="cls-152" d="M4.82,32.62l.13,2.92,1.99,1.07c-.34,1.41.45,2.29,2.37,2.62.38-.46,2.12.25,1.89.99-1.14,3.7,1.93.33,4.04,1.47.58.31,1.58,1.28,1.34,2.13-.39,1.37-1.32,2.43-.5,3.55.44,1.77-.28,1.94-1.17.31,1.45-4.36-8.81-2.19-12-6.67-2.07-2.91-.31-6.61,1.9-8.4Z"/>
        <path class="cls-86" d="M14.72,49.07c.12-.45.06-.94.21-1.38.35-.19.75-.41,1.17-.31s.98-.05,1.38.11c-.16,2.13-.11,4.42,1.06,6.26,2.05,2.09-.55,4.13-2.7,2.27l-1.12.54c-.83-2.01-.82-4.5,0-7.49Z"/>
        <path class="cls-64" d="M14.72,49.07c2.9,2.68-1.07,6.66,1.12,6.95,1.07,2.88-1.14,4.07-2.72,1.3-1.62-2.46-.36-6.16,1.6-8.25Z"/>
        <path class="cls-146" d="M11.9,58.28c.06-.46.81-.98,1.22-.96,3.37-.23,3.03,2.09-1.01,6.96-.25.88-.59.88-1,.03l.79-6.03Z"/>
        <path class="cls-136" d="M9.99,65.35c.57-.02,1.04-.45,1.12-1.04l1-.03c.95.69.64,2.95.25,4.26,1.3,1.69.66,2.19-1.12.93-.67-1.3-1.65-2.45-1.25-4.11Z"/>
        <path class="cls-79" d="M60.56,52.39l1.37,1.84c1.43,2.08-.39,2.22-2.25,1.31.04-.83-.23-1.64-.93-2.14.37-.65,1.07-.98,1.81-1.02Z"/>
        <path class="cls-145" d="M12.11,64.28c-.14-2.36,2.49-4.72,1.01-6.96,1.08.04,1.85-.76,2.72-1.3,1.02-.64,2.08-1.15,2.7-2.27.2-.37.89-.46,1.19-.77,2.34.92,4.93,1.23,6.63-1.33.6,2.28.64,3.71,1.41,5.14-1.62,1.19-3.9,1.31-6.85.37.02.89-.22.86-.69,0l-.56,1.6c.52,1.84.25,2.94-.81,3.28-2.87.42-4.16,2.1-3.89,5.05l-1.73,1.36c-.1.9-.39.9-.87.09l-.25-4.26Z"/>
        <path class="cls-163" d="M34.78,45.65c-.03-.87.25-.86.79-.08l1.02-.14c1.19-.51,3.07.36,2.91,1.82.35.34.69.71,1.07,1.03,3.1,4.39,4.03,6.29.85,11.08-.48.73-.85.77-1.72-.02-1.77-10.65.61-5.41-4.91-13.68Z"/>
        <path class="cls-164" d="M31.01,59.68c-2.08-.2-2.16-1.66-.11-2.26,1.3-1.39-1.77-1.83-1.8-3.35,2.42-1.51,5.28-1.07,7.68.16-.47,2.34-.58,3.8-1.33,5.3-1.24-1.35-.88-2.76-2.63-3.16-.46,1.76-.6,2.96-1.81,3.3Z"/>
        <path class="cls-68" d="M39.69,59.34c1.83-1.4,3.95-4,2.63-6.62-.83-1.64-2.16-2.81-1.75-4.44,1.08.91,2.14,1.85,3.1,2.89.83,1.45.26,3.21.31,4.85.85.37.79.75-.1,1.14.31,2.22-.24,3.21-1.65,2.97.77,1.59-1.78,4.34-3.14,3.2-1.03.26-1.37-.11-1.04-1.11.71-.86,1.3-1.82,1.64-2.89Z"/>
        <path class="cls-36" d="M30.29,63.59l7.76-1.37c.29.42.64.79,1.04,1.11,1.38,1.08-.48,3.05-1.93,2.07-.97,1.27-1.94,1.6-2.91,1.01-.22.89-.56.9-1,.07-1.68.21-2.6.92-2.76,2.14l-1.3-1.94c-.71-1.03-.21-2.87,1.09-3.09Z"/>
        <path class="cls-110" d="M29.06,62.68c-1.41-.7-1.29-2.17-.1-3-.17-1.94.61-1.93,1.18,0l.15,3.9c-.24,1.07-.58,2.12-1.09,3.09.28,1.83-.33,1.74-1.14.03-1.55-1.4-1.32-4.23,1-4.03Z"/>
        <path class="cls-49" d="M27.77,56.79c.9.38,2.37-.35,3.13.64-.28.52.26,1.64.11,2.26-.26.07-.59.01-.86.01h-1.18c-.29.87-.64.86-1.05,0-2.66-.39-2.69-1.96-.14-2.91Z"/>
        <path class="cls-28" d="M26.29,45.05c-.24,1.12-1.28,2.05-2.43,1.95l.73-1.55,1.7-.41Z"/>
        <path class="cls-3" d="M35.57,45.57c-.26.03-.53.09-.79.08l-2.31-.1c0-.68-1.33-1.31-.83-1.63.79-.52,1.99-.39,2.52-.47,1.03-.15,1.66,1.18,1.41,2.12Z"/>
        <path class="cls-159" d="M32.34,73.34c-.37-2,.98-4.19,2.9-4.86l2.03-.08c.83-2.51,2.46-4.7,4.88-6.55l.08-1.71c.34-1.1.74-2.22,1.65-2.97.84-.15,1.18.51,1.01,1.97-.37,2.63.3,5.26,3.45,6.89.35-1.36,1.05-2.32,1.58-3.15-.12-2.08,1.98-2.04,2.24,0,.18,1.08-.34,2.63.89,3.17l.43,1.38c-2.73,1.51-3.15,2.64-1.26,3.4,1.75,1.6,1.46,2.01-.85,2.07.49.69.78,1.49.48,2.32-.43,1.21-13.54.09-15.9-.24-.48-.07-1.09.05-1.48.35-1.82,3.3-5.71.32-2.13-2.01Z"/>
        <path class="cls-130" d="M52.22,70.84c-1.45-1.67-1.4-2.26.64-2.75l1.26-1.96c.29-1.73,2.28-1.77,3.65-2.36,1.77-.11,1.82.83.38,1.92-.02,3.6-.7,7.16-2.05,10.68l-2.43.56c-2.43-.33-3.1-1.8-2.3-4.02-.12-.84.5-1.39.85-2.07Z"/>
        <path class="cls-142" d="M53.05,66.05l1.06.08c1.69,1.61-1.09,3.11-1.89,4.7-2.51-.08-4.96.32-8.07-1.03,6.53-5.2,6.93-.22,8.9-3.76Z"/>
        <path class="cls-81" d="M57.76,63.77c-.04-.35.14-.72.16-1.07.47-2.38,1.07-4.46,1.77-6.26.07-.81.67-.58,1.17.13,1.51.72.97,5.25-.79,6.03.88.25.88.59.03,1,.81,1.61,1.08,4.76-.82,5.03-1.25.11-1.63-.87-1.14-2.94-.12-.64-.32-1.27-.38-1.92Z"/>
        <g>
          <path class="cls-163" d="M43.67,51.17c-1.76-2.34-1.03-3.29,1.67-2.12-.09.66.35,1.39.33,2.06.71.75,1.77,1.03,3.18.85,1.13-1.67,1.74-1.22.95.69-.24,2.82.05,2.78.88-.12.33-.91.7-.93,1.11-.06l4.97,1.01c.71,1.43-1.37.68-1.26.68,2.07,0,4.05.35,2.37,2.28,1.7,1.63,1,4.18.06,6.27.78.48.73.84-.16,1.07.21,1.78-1.94,3.13-3.65,2.36-.37.85-.73.81-1.06-.08-3.31,1.16-3.63-2.02-.89-3.17-.84-.44-1.59-.45-2.24,0,2.79,2.59-.91,4.74-4.02,3.96-2.62-.66-3.05-6.75-1.01-7.7,0-1.1-.31-2.14-.91-3.12-.94-.71-1.07-3.8-.31-4.85Z"/>
          <g>
            <path class="cls-89" d="M45.67,51.1l2-.07c.26.33.86.68,1.18.92-.76.31-1.56,1.44-2.6,1.12-.81-.25-.6-1.4-.58-1.97Z"/>
            <path class="cls-148" d="M56.76,53.47l2-.07c1.6-.95,2.81,1.34.93,2.14.88.14.85.45.02.9-.16,2.67-1.08,2.52-1.83-.01-.08-1.3-1.57-1.14-3.29-2.12.54-1.01,1.57-.31,2.18-.83Z"/>
            <path class="cls-151" d="M57.86,56.42h1.83c.13,2.22.12,4.84-1.77,6.27.09-2.09.07-4.18-.06-6.27Z"/>
            <path class="cls-22" d="M48.57,57.14c.3,1.35-.04,3.22-.84,4.7-.32.34-1.69-.72-1.66-1.25.05-.8,1.53-1.18,2.49-3.45Z"/>
            <path class="cls-109" d="M56.59,58.96c.83.43.55,2.18.02,2.76-.61.66-1.51,1.8-2.47.63,1.14-1.34,1.11-3.5,2.45-3.39Z"/>
            <path class="cls-10" d="M52.16,62.88h-2.24c.41-.64-.79-3,1.16-3.01,1.38,0,.95,2.24,1.08,3.01Z"/>
            <path class="cls-137" d="M43.88,57.16c-.02-.38.09-.76.1-1.14.57.1,1.32.23,1.67.76.57.88-.66,1.63-.76,2.35-1.05.36-.97-1.32-1.01-1.97Z"/>
            <path class="cls-140" d="M49.8,52.64c.29-.01.59-.13.88-.12-.06.76.78,3.45-.78,3.43-2.12-.03-.69-2.55-.1-3.32Z"/>
          </g>
        </g>
        <path class="cls-166" d="M39.5,47.25c-1.13-.31-2.27-.79-2.91-1.82.49-2.19,4.65.27,4.66.3.38.67,0,.9-.44,1.08-.53.21-.8.66-1.31.44Z"/>
        <path class="cls-78" d="M48.51,42.83c1.16-1.42,3.04-1.84,4.81-2l-4.07,5.26c-.84-.9-.93-2.07-.74-3.26Z"/>
        <path class="cls-50" d="M4.96,35.54c2.29-2.04,4.66,1.84,5.14-.26.42-.68.94-1.37,1.56-2.08.94,1.75,1.47,2.7,2.35,3.58-1.79.37-4.73.14-4.67,2.45-.71.85-2.46,2.19-3.55.85-1.12-1.38-.76-3.23-.81-4.54Z"/>
        <path class="cls-146" d="M11.24,69.47c.3-.14,1.15-.46,1.12-.93l.87-.09c2.66-.06,4.92,3.47,4.81,5.97,1.11.92.93,1.62-.52,1.68-.24,2.78-.93,3.07-2.96,1.1-.01-1.32.23-3.27-1.09-4.1-1.39-.87-1.55-2.31-2.23-3.63Z"/>
        <path class="cls-24" d="M13.23,68.45c-.66-1.52.04-4.68.86-6.25,1.02-1.97,3.65-1.05,4.76-.16,1.89.78,1.96,1.9.15,2.87-.76,1.43-1.27,2.6.2,5.12,1.04.48.89,2.03.21,2.99.45,1.21-.15,1.75-1.37,1.39-2.38-.62-3.82-3.69-4.81-5.97Z"/>
        <path class="cls-38" d="M19.21,70.03c-1.17-1.43-1.72-3.85-.2-5.12-.12-.94-.22-1.93-.15-2.87.12-1.74-.61-4.14,1.38-4.88,2.85,2.57,4.49,5.41,4.94,8.52.95,1.59-.24,4.09-1.92,2.14-.09.92-.45.97-1.06.22l-.76,2.22c1.45,1.66,1.24,1.86-1,2.73-.25.88-.59.88-1,.03-.03-.99-.27-2-.21-2.99Z"/>
        <path class="cls-41" d="M20.23,57.16h.69c3.16-.91,7.48,1.33,5.01,4.62,2.05.64,2.02,2.97.32,3.88-.3.88-.66.87-1.08,0-2.56-2.24-5.18-4.97-4.94-8.52Z"/>
        <path class="cls-120" d="M27.77,56.79c0,.92.41,1.99.14,2.91.71,1.06.48,2.25-.88,2.06-.29.88-.66.88-1.1.03-.49-2.46-3.22-3.2-5.01-4.63,1.75-2.08,4.61-1.3,6.85-.37Z"/>
        <path class="cls-117" d="M37.16,65.4c.91-.39,1.55-1.16,1.93-2.07,1.35-.73,2.39-1.87,3.14-3.2,1.12-.37.84,1.08.85,1.63.01.79-.91,1.19-1.6,1.96l-4.21,4.68c-1.6,0-2.08-2.76-.1-3Z"/>
        <path class="cls-155" d="M33.25,66.48l1-.07c2.09-1.01,2.68.82.99,2.07.29,2.17-.62,4.38-2.9,4.86-2.5.93-2.65.26-.86-1.71-2.76-3.6-2.88-4.33,1.78-5.14Z"/>
        <path class="cls-106" d="M28.07,66.72l1.14-.03,4.05-.2c-.36.85-2.61.87-2.61,1.64,0,1.12.96,2.38.84,3.5-2.26,2.11-3.37.86-3.32-3.76-1.5.28-1.5-.41-.09-1.15Z"/>
        <path class="cls-128" d="M37.16,65.4l.1,3c-.28.39.51,1.67-.43,2.01-1.22.43-.36-1.22-1.6-1.93-.1-.79-.14-1.68-.99-2.07l1.23-1.17c.67-.64,1.65-1.23,1.68.16Z"/>
        <path class="cls-161" d="M26.25,65.67c-.03-1.25-.07-2.66-.32-3.88l1.1-.03c1.03-1.64,1.52-.7,2.03.93-.65,1.25-1.11,2.65-1,4.03l.09,1.15c1.98,5.72,1.39,7.29-1.79,4.73-2.17.66-2.04-3.15-1.64-4.69l1.51-2.23Z"/>
        <path class="cls-143" d="M27.91,59.69h1.05s.1,2.99.1,2.99c-.75-.11-1.47-.41-2.03-.93-.07-.81.69-1.38.88-2.06Z"/>
        <path class="cls-156" d="M26.37,72.59c.28-.02,1.29.05,1.41-.31.1-1.72-.37-3.16.38-4.41.85,1.48,1.59,3.22,3.32,3.76-.06.56.83,1.13.86,1.71.03.43.05.96.27,1.49.32.75,1.19.38,1.86.51,1.84-.87,5.56-.48,4.1,1.86-.07.88-.41.92-.99.2-3.42.33-4.72,1.38-3.89,3.14.83.11.73,1.42.07,2,1.5.41,1.4,3.27-.06,3.94,2.12,2.73-.38,6.81-3.48,4.36-2.86-.25-2.91-1.12-.29-2.22,1.34-3.57.61-7.19-2.43-9.65-1.54-.97-2.06-5.05-1.12-6.37Z"/>
        <path class="cls-133" d="M51.37,72.9c1.54.74,2.2,2.37,2.3,4.02,2.16,1.47,1.69,2.47-.88,1.88-1.5,2.07-2.61,1.57-2.98-1.03l-10.27.36-.97-.94c-.89-1.32-2.61-1.57-4.1-1.86-.86-2.96,14.98,1.29,16.9-2.44Z"/>
        <path class="cls-71" d="M52.79,78.81c.65-.44.59-1.27.88-1.88,1.75-3.66,2.3-7.79,4.48-11.24.92.69,1.22,1.83,1.14,2.94,1.47,1.53.1,6.17-.89,8.04.87.19.83.5-.03.93.58,3.48-.39,4.15-3.68,3.08-2,2.31-3.84.42-1.9-1.87Z"/>
        <path class="cls-124" d="M59.29,68.63c1.26-1.37,1.02-3.29.82-5.03,2.38.29-.37,10.97-.54,13.09-.4.84-.8.83-1.17-.02-.04-2.73,1.18-5.3.89-8.04Z"/>
        <path class="cls-124" d="M60.87,56.57c.48.05.96-.26,2.04.17-1.24,1.95-.79,3.98-.93,5.93l-1.91-.07c1.02-1.84.99-3.98.79-6.03Z"/>
        <path class="cls-99" d="M14.6,78.2l1.37-.65c.9,1.55,1.45,2.07,1.66,1.55.84-2.32,2.2-2.36,4.07-.13.23-.92.56-.91,1-.02,1.45,1.48.89,2.14-1.03,1.21.89,2.35-.83,3.16-2.87,3.87.78,1.35,1.14,2.71,1.06,4.05.89.09.9.38.08.85,1.54,1.28,1.27,1.97-.82,2.08-2.36-2.05-2.03-5.42-3.5-8.07-.74-1.33-1.1-3.39-1.03-4.74Z"/>
        <path class="cls-122" d="M17.52,76.09c1.6,0,2.13,2.82.1,3-.03.7.15,1.49-.6,2.11-.67-1.78-1.25-2.7-2.44-3,.02-.33-.03-.67-.03-1,1.05-.18,2.06-.53,2.96-1.1Z"/>
        <path class="cls-43" d="M19.94,88.93c1.14-2,3.03-1.72,5.67.85,2.34-.73,3.88-.37,4.6,1.06,2.96.77,1.93,3.31-.83,3.84-1.71.27-3.4-.17-5.01,0-.74-2.21-3.25-2.86-5.25-3.66-.14-.8.06-1.68.82-2.08Z"/>
        <path class="cls-94" d="M19,64.91c.21,1.7.3,3.4.2,5.12-1.27-.27-1.86-1.43-2.04-2.44-.29-1.57.08-3.08,1.84-2.68Z"/>
        <path class="cls-101" d="M21.67,80.16c1.42-.46,2.67-.35,3.75.32,1.36.18,2.03,1.27,2.01,3.29l1.45-.14c2.24-.92,2.31,3.54,1.04,4.99.12.57-.21,1.66.29,2.22-7.41,2.46-4.84-.47-10.27-1.9l-.08-.85-1.06-4.05c-.77-1.66,1.54-3.35,2.87-3.87Z"/>
        <path class="cls-11" d="M29.93,88.61l-1.04-4.99c-2.01.5-2.37-2.34-1.39-3.72-.88-.2-.86-.51,0-.93,1.96.28,3.74,1.91,4.05,3.38.55,2.63.96,5.5-1.62,6.27Z"/>
        <path class="cls-13" d="M58.37,77.6c.34,1.3.84,2.56,1.36,3.8,1.9,1,1.83,1.69-.23,2.05l-4.81-2.78c1.37-.85,2.84-1.66,3.68-3.08Z"/>
        <path class="cls-23" d="M18.8,84.03c.78,1.25,3.56,2.96,1.06,4.05-1.81-.38-.81-2.7-1.06-4.05Z"/>
        <g>
          <path class="cls-139" d="M17.52,76.09c.04-.59.19-1.18.52-1.68.36-.55.83-1.03,1.37-1.39l1-.03c1.37,1.22,1.79,3.21,1.28,5.97-1.36.09-2.71.16-4.07.13l-.1-3Z"/>
          <path class="cls-27" d="M20.42,72.99c.27-1.85-.75-4.88,1.77-4.95.85,1.73,1.2,1.65,1.06-.22,1.01-.29,1.56-1.21,1.92-2.14h1.08c.05,2.47-.88,4.58.12,6.91.63,1.46,1.32,1.53,1.73,2.27.71,1.28-.61,3.34-.61,4.1-2.69,1.61-4.29,1.6-4.8-.02-.31-.07-.68,0-1,.02-.94-.63-2.07-1.34-2.1-2.42-.03-1.32.65-2.41.81-3.56Z"/>
          <path class="cls-85" d="M22.18,68.04c.36-.01.71-.18,1.06-.22.4.65.82,1.15,1.05,1.6.25.51.01,1.69-1.05,1.55-1.5-.2-.89-2.1-1.07-2.93Z"/>
          <path class="cls-7" d="M22.7,78.94c1.57.37,3.24-.2,4.8.02v.93c-.1,2.67-.54,2.78-2.07.57-1.81.26-1.21,2.11-2.08,4.45l-1.68-4.76c.5-.19.84-.74,1.03-1.21Z"/>
          <path class="cls-35" d="M22.07,74.8c.18-.8,3.08.38,3.21.63.41.81-.38,2.05-1.72,1.55-.84-.31-1.23-.66-1.71-.74-.43-.07.08-.8.23-1.45Z"/>
        </g>
        <path class="cls-77" d="M25.42,80.47c.7-.1,1.36-.51,2.08-.57,1.41.72,1.17,2.66,1.39,3.72-.28.97-.26,2.13-2.19,2.22-.91-1.82-1.21-3.63-1.27-5.37Z"/>
      </g>
      <g>
        <path class="cls-62" d="M72.88,38.81c1.18-.43.91-2.92,3.26-2.8,1.88.47,3.89-.19,6.04-1.96,3.22-.85,12.56-.5,14,2.28,2.03.15,2.45.71.92,2.13.57,1.87-.24,2.21-1.6.79-1.33,1.98-2.12,4.04-2.4,6.2,2.3.76,1.52,1.58-.86,2.1-1.21,1.42-3.9,1.1-4.51-.74-1.68-.57-1.79-1.97-.31-4.18l-1.97-1.01c-1.1-1.08-1.77-.44-2.02,1.94,3.41-.37,4.34.66,2.8,3.1,1.59,2.37-1.85,4.2-3.59,2.09-2.41.26-3.52-1.74-3.32-6.01-1.61-.49-3.13-1.11-4.59-1.86.14,1.85-.68,1.89-1.23,0-2.31.29-2.45-.74-.6-2.09Z"/>
        <path class="cls-74" d="M85.05,32.71c2.24,1.06,4.74.43,7.03.76,1.84-1.23,5.58-.9,7.03.67,1.71.36,2.73.64,1.16,1.88-.29,3-2.67,2.64-4.09.31-2.53-1.94-5.62-1.6-8.99-1.94-8.8-.87-7.75,5.04-11.06,1.62,3.06.16,5.77-3.85,8.91-3.29Z"/>
        <path class="cls-127" d="M68.37,43.18c1.32-1.36,2-1.35,2.03.05.88.26.89.62.04,1.05.36,2.02-.57,2.4-2.25,1.17-.75,1.66-2.04,3.88-3.83,3.9-.91,1.19-1.34,2.76-.6,4.11.7.39.68.75-.06,1.06.02,1.89-1.59,1.38-1.77-.3-1.29,1.31-2.2-.51-1.37-1.84.27-4.45,4.37-7.01,7.81-9.2Z"/>
        <path class="cls-153" d="M72.88,38.81l.6,2.09c.06,1.95-1.21,2.9-3.08,2.33-.68.06-1.36.04-2.03-.05,1.07-1.86,2.21-3.54,4.51-4.37Z"/>
        <path class="cls-131" d="M117.87,33.33c.95-.75,1.55-1.79,1.8-2.98.59-.54,1.79-.87,2.05-1.69.88-1.81,2.15-1.29,2.31.7,1.94.45-.62,3.39-2.01,2.91l.7,2.37c-1.33-.05-2.83.59-4.53,1.92-1.1-.34-2.11-.71-3.04-1.1l2.71-2.13Z"/>
        <path class="cls-93" d="M73.63,52.58c-.21-.86.5-1.37,2.14-1.53-.73-2.72.82-2.86,2.1-.48-.25-2.77,2.88-3.08,4.76-1.81,1.44-.2,2.6-1.07,3.59-2.09.69-.8,1.15-1.2,1.5.15,1.47-.12,3.25-.05,4.51.74.51-.71.86-.64,1.05.21,1.11,1.06.68,1.3-.54,1.8,1.07,1.84-.6,2.71-5.03,2.63-.38-1.02-1.19-.97-2.45.13-3.02,1.46-5.86,1.71-8.51.76.42,3.5-4.79,3.01-3.12-.52Z"/>
        <path class="cls-104" d="M95.5,39.26c.45-.38,1.1-.5,1.6-.79,1.82-.92,3.07-.42,3.37,1.67,5.09,1.82.5,7.96-2.73,5.3-6.25,4.09-6.44-2.35-2.24-6.17Z"/>
        <path class="cls-84" d="M74.71,40.89c1.33-.57,2.46-1.55,4.22-1.72.37,1.47.3,2.52.37,3.58,1.36,2.42,1.54,5.68-1.61,6.36-3.15,1.93-3.18-1.56-2.38-3.8-2.78,3.16-4.39-2.56-.61-4.43Z"/>
        <path class="cls-15" d="M100.26,36.02c.8-1.72,3.46-.82,4.03.98,3.12,2.82,3.58,4.78,1.38,5.89-2.24,2.41-4.48-.59-5.2-2.75-1.45.14-3-.09-3.37-1.67-.17-.73-.85-1.35-.92-2.13,1.36.16,2.74-.38,4.09-.31Z"/>
        <path class="cls-5" d="M85.44,41.63c1.8-.43,2.39-2.24,3.43-4.07,1.62.78,2.36,1.36,2.17,1.97-1.69,5.57-2.71,3.26-3.33,7.29-.24.05-.43.71-.71.61-.43-.15-.62-.57-.79-.77l-2.8-3.1c.72-1.01,1.4-1.66,2.02-1.94Z"/>
        <path class="cls-5" d="M95.5,39.26c.71,2.48-1.37,4.21-2.08,6.94,1.25.34,1.42-.97,1.93-1.4.92-.78,1.68.62,2.4.63,2.57-.74,2.74.2.62,1.77-.02.89-.28.89-.78.07-2.09,1.4-3.52,1.56-4.29.5-.26.01-.82-.07-1.05-.21.77-1.63.16-3.36-1.69-5.12,1.31-1.88,3.46-1.92,4.95-3.19Z"/>
        <path class="cls-129" d="M77.69,49.11c-.31-2.32,1.66-4.08,1.61-6.36,1.94,1.43,2.32,3.92,3.32,6.01-1.1,1.53-3.06,1.42-4.76,1.81-1.55-.19-1.65-.86-.17-1.46Z"/>
        <path class="cls-52" d="M65.82,53.37c-1.4-.67-.97-2.32.65-2.07,2.19-2.35,3.52-4.69,3.97-7.03l-.04-1.05c.45-1.35,1.7-2.32,3.08-2.33h1.23c1.79,2.73-2.68,3.12-.73,4.76.29.24.82-.42,1.34-.35l.57.61c-.25,1.86-.29,3.57-.11,5.12-.64.55-1.32,1.24-2.14,1.53.27,2.56-.72,3.1-2.95,1.63.89,2.18-.65,3.1-2.75,2.1,1.03,1.65.38,2.14-1.23,1.04-1.53,1.19-2.01.6-.84-.98-.9-.97-1.29-2.43-.04-3Z"/>
        <path class="cls-55" d="M85.44,41.63c.15.32.94,1.31.65,1.66-.61.73-2.11.02-2.67.28-1.35-1.49-1.25-3.94-3.41-5.41,3.24-1.13,4.95,1.3,5.44,3.47Z"/>
        <path class="cls-162" d="M104.13,34.93l7.03.87,3.99-.34c1.17-.1,2.75-.39,3.04,1.1.12,1.77-1.99,1.42-3,.1-.42,2.82-2.74,2.68-4.16.37-.12,3.68-6.39,3.45-6.75-.05-1.31-.32-2.67-.9-4.03-.98l-1.16-1.88c1.25-.28,4.07-.06,5.03.79Z"/>
        <path class="cls-111" d="M61.93,54.23l1.77.3c1.46-.74,2.25.32,2.17,1.84l.84.98c2.91.12,3.27,2.36.18,3.04,1.31,1.41.76,1.91-.97.94-.99.36-1.82,1.05-2.48,2.08l-1.46-.74c-.45-1.79-.83-3.82-1.12-6.1l-1.17-.13c-.02-.29-.03-.6-.02-.9.99.16,1.98-.31,2.25-1.31Z"/>
        <path class="cls-88" d="M64.36,49.36c.22-2.05,2.06-3.22,3.83-3.9,2.12.8,1.54,2.75-1.72,5.85l-.65,2.07c.24,1.85-.77,2.43-2.12,1.16.16-.33-.02-.73.06-1.06-.81-1.24-.33-3.01.6-4.11Z"/>
        <path class="cls-97" d="M68.19,45.45c.73-.28,1.26-1.4,2.25-1.17.7.05,1.44,0,2.54,1.33-2.25,2.08-4.19,4.13-6.51,5.7.63-1.99,2.22-3.71,1.72-5.85Z"/>
        <path class="cls-132" d="M64.36,49.36c-.15,1.38-.26,2.76-.6,4.11-1.19.04-1.24-1.37-.94-2.25.24-.68.52-2.03,1.54-1.86Z"/>
        <path class="cls-31" d="M60.11,63.6l-.03-1c.79-1.82,1.52-1.9,1.91.07,1.44-.15,2.76-.6,3.93-1.34l.97-.94c2.92-4.8,7.17,5.15,7.41,7.86.27,3.1-5.64,8.77-8.81,9.95-2.52.94-5.37,1.47-5.92-1.51.43-4.28.61-8.65.54-13.09Z"/>
        <path class="cls-74" d="M111.17,35.8c-2.56.22-5.79.22-7.03-.87,2.33.44,5.37-1.11,7.03.87Z"/>
        <path class="cls-12" d="M125.37,36.32c-1.03-.2-1.64-.7-1.82-1.5.95-.6,1.78-1.8,2.5-3.58-1.92-.7-1.04-2.49.87-1.94-.48-1.92-.19-3.31.88-4.16-2.3-.51-1.61-3.73-.1-4.92-2.69.95-2.82-.2-1.13-2.09.82-.2,3.05-.9,3.35.65.75,3.9,1.64,8.58.95,12.37-2.47,13.53.51.56.67,14.93.23,2.65-2.15,2.92-7.14.8-.89-.01-.89-.29-.08-.79-.38-1.52,0-3.12,1.12-4.79-.6-1.87-.62-3.52-.06-4.97Z"/>
        <path class="cls-160" d="M126.56,18.13l1.13,2.09c-.9,2.29-1.8,4.58-2.74,7.04-1.35,1.89-2.59.22-2.23-1.86.09-.3,0-.69.06-1,.47-2.43,1.72-5.77,3.78-6.26Z"/>
        <path class="cls-51" d="M122.72,25.4l2.23,1.86c1.14,1.34.98,2.33-.92,2.1-.81-.07-1.61-.27-2.31-.7l1-3.27Z"/>
        <path class="cls-73" d="M124.03,29.36c.38-.56.51-1.55.92-2.1-.29-2.72-.64-6.94,2.74-7.04.75,1.39-.06,3.31.1,4.92-.85,1-1.14,2.39-.88,4.16-.31.42-.8,1.42-.87,1.94-1.41,3.69-2.61,4.72-3.61,3.09-1.74,1.08-1.88.4-.41-2.06l2.01-2.91Z"/>
        <path class="cls-20" d="M118.2,36.56c1.39-1.46,2.78-2.78,3.82-4.29.12.9.83,1.68,1.9,2.14.27-1.18.27-1.59.49-2.26.19-.58.74-1.2,1.63-.91l-.68,5.08c-.94,2.15-1.08,1.99-2.17.07l-3.03,2.29c-1.01,2.12-2.52,2.09-3.81.11-2.57.84-2.81-.06-1.16-2.12l3-.1Z"/>
        <path class="cls-1" d="M58.37,77.6c-.07-.28.03-.63.03-.93.36.09.83-.11,1.17.02,3.97,1.51,7.73-1.68,10.66-4.37,2.28-2.09,2.91-3.51,1.47-6.67-1.08-2.38-1.94-5.39-4.82-5.26.12-1.02.53-2.21-.18-3.04.3-.46.87-.65,1.23-1.04,2.41-.58,3.33-1.28,2.75-2.1.79-.86,1.88-1.25,2.95-1.63.23,1.49,2.15.5,3.12.52,2.16.05,3.18.65,3.06,1.81,1.84-.1,2.14.27.91,1.11,1.25,1.67-.25,3.68-2.09,2.26.26,1.97-.52,2.28-1.74.72l-.16,2.33c-1.85-.44-2.77.09-2.74,1.59,1.63-.11,1.58.65-.03,1.22,2.83,1.26,5.57,2.66,3.09,5.89.78,1.46.07,2.82-2.14,4.06,1.09,3.27.44,4.98-1.94,5.14.69,2.18-3.18,3.56-4.87,2.44l-.55.78c-2.24-.79-4.54-1.15-6.92-1.09-.28.43-.58.45-.89.04-3.22-.42-3.18-1.31-1.36-3.8Z"/>
        <path class="cls-90" d="M93.29,47.77c1.37-.3,2.85-.54,4.29-.5.77,1.77-.11,2.57-2.64,2.39-1.11.42-.62,2.2,1.48,5.32l-1.16.19c-.06,2.11-.82,3.52-2.28,4.21,1.39,2.3-.31,3.46-2.74,2.68-.77-3.47-2.03-6.3-3.77-8.48-1.22,1.46-3.44,1.91-6.64,1.33-.93-.71-2.08-1.17-3.06-1.81,8.18.19,13.3-6.6,14.53-1.6.78-1.73,1.13-2.82,2-3.73Z"/>
        <path class="cls-95" d="M75.32,45.32c2,.27.89,2.93,2.38,3.8.23.42.66.97.17,1.46l-2.1.48c-.57.13-2.74-.18-3.76-.51-.59-.19-.61-.8-.21-2.06,1.57-.95,3.92-1.37,3.52-3.17Z"/>
        <path class="cls-144" d="M100.47,40.13c2.15-.2,3.45,1.77,5.2,2.75,2,.29,1.77,2.44-.05,3.26.07,2.23-2.98,2.82-3.49.61-.04-.16,2.77.49.39,1.52-1.03,2.43-4.41,1.54-4.17-1.07l-.62-1.77c1.06,0,1.88-1.23,2.56-1.85,1.03-.95,1.09-2.34.17-3.45Z"/>
        <path class="cls-114" d="M104.29,36.99c2.29.56,4.52.87,6.75.05,3.02-.6,3.59,7.72.68,8.61-1.81,2.38-3.56,3.05-5.24,2-1.94.52-2.33-.11-.85-1.5,0-1.07-.09-2.2.05-3.26.2-1.41-.75-2.15-2-3.35-.87-.83.17-2,.62-2.54Z"/>
        <path class="cls-70" d="M97.58,47.27l.78-.07c1.33.58,2.74.92,4.17,1.07,1.88-.03,1.81.7.14,1.56.66.94.31,1.59-.85,1.56-1.49,2.67-5.58.73-6.88-1.72.71-.84,1.79-1.65,2.64-2.39Z"/>
        <path class="cls-32" d="M111.04,37.04c1.27-.47,2.83-.33,4.16-.37.32.73.87,1.38,1.16,2.12,2.04.1,2.08,1.03.21,1.9.8,1.25,1.9,3.01,1.71,4.74.68,1.77-1.36,1.99-2.73,1.21-1.25,2.35-5.16,2.29-3.83-.98l-.68-8.61Z"/>
        <path class="cls-54" d="M65.92,61.33c-.18.88.72,3.65-.51,3.81-1.89.25-2.68-1.75-3.43-2.47,1.39-.06.71-1.72,1.61-3.07.62-.92,1.99.98,2.32,1.72Z"/>
        <path class="cls-97" d="M65.82,53.37c.82.86.71,2.07.04,3-.92-.35-1.69-.99-2.17-1.84.88-.04,1.39-.82,2.12-1.16Z"/>
        <path class="cls-33" d="M116.57,40.69c1.3-.46,2.5-1.13,3.6-2.01-.34-.55-.71-1.42-.27-1.95l1.7-2.07c.32-.39,1.05,1.73,1.59,1.73,1.39.09,2.12,1.22,2.17,3.4l-1.06,6.3.08.79-.96.26c.5,1.68-1.14,1.87-1.85.31-.59-1.97-1.28-2.62-2.07-1.93,0,1.57-.8,1.5-1.23-.09-.79-.58-1.59-1.33-2.18-1.96-.84-.9-.03-1.99.47-2.77Z"/>
        <path class="cls-20" d="M127.8,25.14c.15,1.47.28,3.14-.88,4.16-.6-.74-1.07-1.65-1.18-2.59-.14-1.13.9-2.3,2.06-1.57Z"/>
        <path class="cls-108" d="M116.36,38.79c1.27-.13,2.54-.17,3.81-.11.67,1.09,1.54,3.53-.67,3.61-1.31.05-2.05-1.52-2.92-1.6-.17-.6,0-1.32-.21-1.9Z"/>
        <path class="cls-39" d="M76.89,58.99c2.48,3.54,3.72,5.3,3.72,5.3l4.53-1.41c.06-2.68,1-2.65,2.02-.2,2.2.27,3.35,4.2,2.4,6.13-.42,1.4-1.69,2.71-3.04,3.4-.15.88-.48.94-.98.19-1.07.06-2.15-.17-3.24-.69-1.12,4.29-7.44,2.07-5.26-1.69-1.04-1.94-1.85-4.03-3.09-5.89.14-.5.32-.91.62-1.04.73-.31,1.53,1.37-.59-.18-.52-.32-1.38-1.73-.5-2.18l3.4-1.74Z"/>
        <path class="cls-72" d="M77.05,70.03c.99,1.83,3.51,2.74,5.26,1.69.9.25.92.62.1,1.12,1.16,1.16.58,2.63-.94,3.14-.81,1.43-2.43,2.48-4.86,3.15-1.06,1.27-3.19,1.94-3.64.11,1.22-1.39-.06-3.16-.04-5.05.02-2.24,2.87-2.98,4.12-4.15Z"/>
        <path class="cls-93" d="M86.46,53.57c1.68,1.95,2.82,4.44,3.42,7.45,2.29.08,2.19,2.03.25,3.32,2.92-.38,4.16,6.61,2.33,8.23-.39.8-.72.78-1.01-.06l-5.89,3.21c-.3,1.27-1.55,1.35-2.06.16-1.58-.57-.57-2.62.99-2.12-.91-1.38-.45-1.76,1.07-1.36.29.01.71-.28.98-.19,1.38-.88,2.21-2.01,3.04-3.4-.08-2.36-1.6-4.08-2.4-6.13-1.49-1.31-2.25-3.33-2.28-6.07-1.47.36-3.08.65-4.16-.6-.53.09-.61-.89-.91-1.11,2.28-.2,4.29-2.15,6.64-1.33Z"/>
        <path class="cls-25" d="M76.89,58.99c.58-.3,1.2-.42,1.74-.72,1.81-.17,2.92,1.03,3.31,3.62,1.38-1.64,2.67-.85,3.2.99-.14,1.41-.96,2.29-1.84,2.73-1.29.64-3.53,1.13-4.34-.28-1.24-2.15-1.49-4.38-2.07-6.34Z"/>
        <path class="cls-141" d="M78.64,58.28c.89-.49,1.51-1.46,2.09-2.26.92-.25,1.76-.49,2.71-.9,1.33-.57.88,1.03,1.46,1.5.81,1.64.84,2.61-1.04,1.82-.53,1.24-1.16,2.4-1.91,3.47-1.34-.8-3.56-1.74-3.31-3.62Z"/>
        <path class="cls-56" d="M68.1,81.67c1.76.06,3.56-1.45,4.87-2.44,1.21.09,2.43.07,3.64-.11,1.36-1.51,1.98-.97,1.09.92.56,2.76-3.21,4.12-4.83,2,.32,3.23-3.39,3.68-4.78,1.12-.87-.35-.81-.86.01-1.5Z"/>
        <path class="cls-9" d="M68.1,81.67c.04.5.04,1-.01,1.5.35,1.95-.45,2.06-1.28.21-2.11-.27-4.22-.51-6.32-.71l.14-1.31c2.1-2.05,5-.27,7.47.31Z"/>
        <path class="cls-93" d="M70.68,54.21c.42-.14,2-.17,1.66.36-.52.8-.04,1.74-.55,2.91-.78,1.77-2.71-.7-3.86-1.16.79-.86,1.65-1.66,2.75-2.1Z"/>
        <path class="cls-134" d="M59.73,81.4c.3-.5.54-.45.89-.04,1.63,1.91,4.39.45,6.18,2.02-.73,2.97-6.5,3.45-7.3.07-.45-1.07-.13-.89.23-2.05Z"/>
        <path class="cls-135" d="M73.96,64.14l.03-1.22c-.1-.86.92-1.1,1.57-.84.75.3.63,1.2.56,2.42-.06.94-1.31-.12-2.16-.36Z"/>
        <path class="cls-34" d="M92.97,59.38c-.13-4.6-2.68.31-1.74-6.83.93,1.32.78,2.2,1.34,2.6.88.64,1.51.25,1.97-.68.54-1.08-1.42-4.51-1.42-4.44-.07-.76,1.52-.03,1.8-.37,1.66,1.91,3.64,2.97,5.96,3.18.45,1.45.1,3.05-1.05,4.79-1.28-.63-2.24-.78-2.89-.44.54,1.15,0,1.82-.86,1.21-.78-.56,4.61,1.81,2.98,3.94.87.24.83.55-.05.91.37.85.17,1.15-.76.97l.11,1.21c-1.45,1.48-2.22,3.15-2.32,5.01,1.76.97,1.27,1.93-.77,2.13-.95,1.6-2.03,1.7-2.85,0-1.68-2.45-1.57-5.48-2.33-8.23v-1.39c1.33-.49,2.28-1.68,2.85-3.57Z"/>
        <path class="cls-18" d="M86.46,53.57c.05-2.02,1.39-2.46,1.29-.28,1.8,2.48,2.66,4.73,2.99,7.75l2.24-1.66c.04,1.26,3.09,3.13.8,4.45-1.07.62-2.69.08-3.65.51-1-3.66-3.27-6.95-3.67-10.77Z"/>
        <path class="cls-15" d="M105.62,46.15c0,.53.68,1.03.85,1.5,1.7,1.74-2.78,3.71-3.81,2.18l-.14-1.56-.98-2.15c1.82.09,3.01.95,4.07.03Z"/>
        <path class="cls-158" d="M102.66,49.83c1.79.15,2.58-1.35,3.81-2.18,1.37-.93,1.93-1.59,1.78-4.04.86,1.79,2.74,1.33,3.47,2.04,1.15,1.12,2.12,1.52,3.83.98.84.39.78.74-.12,1.04.86.31.84.63-.03.97.1,3.55-9.36,4.75-11.59,2.83-.19,2.21-1.16,1.82-1.99-.09-.11-.61-.07-1.64.85-1.56Z"/>
        <path class="cls-66" d="M94.93,49.66c2.51.2,4.5,1.96,6.88,1.72,1.39.47,2.22,1.83.86,2.81.65,5.65-3.42,10.3-5.72,2.99-.29-.36-.52-.72-.74-.93-.64-.59.02-.73.31-.73.54,0,1.08.37,1.81.7,2.17.97,3.31-1.52.99-2.29-2.08,0-3.45-.47-3.77-1.77l-.62-2.5Z"/>
        <path class="cls-65" d="M118.28,45.43c.3.22.88,0,1.23.09,1.75-.95,2.08.54,1.07,1.96-.36,1.34-2.08,1.41-5.15.2l.12-1.04c.96-.3,2.15-.14,2.73-1.21Z"/>
        <path class="cls-98" d="M113.86,81.64c-1.19-.1.28-3.32.82-4.2.84-1.35,3.91-.26,3.96,2.07.34.09.76.05,1.11.08,1.35.87,2.97,2.27,3.03,3.79,1.08.03,1.78.35,2.08.97,1.93,1.1,3.6,1.04,5-.17.96-.36,1.87-.99,2.71-1.88-1.91-.23-1.84-1.01.09-1.39-1.68-2.17-.57-3.26,1.98-2.9l.91-.2c1.71-.82,2.32-.37,1.12,1.13.83,1.42.89,2.44-.93,2.03.86,7.42-2.35,8.16-9.44,7.96-.57,3-1.37,4.48-4.23,2.4-.12.89-.41.89-.85.06-2.7-2.16-5.4-4.49-8.1-6.99l.71-2.76Z"/>
        <path class="cls-12" d="M130.17,93.23l3.92-2.32c.31-.97,1.29-1.63,2.95-1.98-.11-1.32.56-3.54,1.86-4.07-1.12-1.75-1.86-3.73-2.21-5.93-.39-.24-.42-1.3-1.12-1.13.76-1.61,2.96-.74,4.09-.98,1.64,1.28,2.35,3.46,2.16,5.94l-.58,7.48c1.95,4.3-4.99,6.41-7.95,5.86l-3.17.19c-1.5,2.3-2.37,1.65-1.47-.95-.91-.04-.98-.36-.24-.93-.38-1.57.54-2.26,1.77-1.19Z"/>
        <path class="cls-32" d="M121.58,47.45c-.33.05-.67.02-1,.03,0-.8-.25-1.67-1.07-1.96.02-.62-.02-1.16.11-1.5.35-.88,1.68-.95,2.06.44.34,1.24-.18,2.21-.1,2.99Z"/>
        <g>
          <path class="cls-108" d="M123.2,36.38c.54-.74,1.46-.41,2.17-.07,1.23,1.44,2.26,3.2,2.02,5.28-.21,1.77-1.67,3.28-3.08,4.48-3.81-1.46.27-5.3-1.11-9.7Z"/>
          <path class="cls-75" d="M124.79,39.02c1.95.28,1.68,1.87,1.55,2.66-.1.56-.82,1.16-1.73,1.69-.24-1.64-.72-2.6.18-4.36Z"/>
        </g>
        <path class="cls-105" d="M84.89,56.62c1.92,1.56,1.49,4.04,2.28,6.07l-2.02.2c-1.86-.68-2.88-2.99-1.29-4.46.53-.48.84-1.14,1.04-1.82Z"/>
        <path class="cls-61" d="M89.56,68.82c.03,1.02.32,1.66-.23,2.28-.99,1.1-1.74,1.56-2.8,1.12.19-1.67,1.56-2.77,3.04-3.4Z"/>
        <path class="cls-126" d="M85.55,72.4c.11.75-.27,1.38-1.07,1.36-.97,1.57-2.07.92-2.07-.93l-.1-1.12c.67-.4,1.07-1.22,2-.53.46.34.92.69,1.24,1.22Z"/>
        <path class="cls-107" d="M81.47,75.97c.56-1.89,1.44-1.99,2.02-.09.67-.1,1.38-.14,2.06-.16l5.89-3.21c.31-.06.7.03,1.01.06.95.09,1.9.14,2.85,0,.86.14.83.45.01.89.61.7.34,1.07-.68,1.15-1,1.74-2.99,2.71-5.97,2.91-.75,1.78-2.74,2.52-5.98,2.23-1.99,1.08-3.65,1.17-4.98.29-.28-.39-.66-.71-1.09-.92.84-1.93,3-2.46,4.86-3.15Z"/>
        <path class="cls-39" d="M82.41,72.83c.77.1,1.59.26,2.07.93l-.99,2.12c-.64.09-1.43-.13-2.02.09.07-1.11.34-2.2.94-3.14Z"/>
        <path class="cls-82" d="M91.44,72.51c-.91,2.34-3.52,3.15-5.89,3.21,1.42-1.81,3.68-2.74,5.89-3.21Z"/>
        <path class="cls-16" d="M83.85,58.43c.72,1.33,1.45,2.89,1.29,4.46-1.42.14-2.19-.38-3.2-.99-.37-.55-.6-2.2-.08-3.27.31-.62,1.01-1.05,1.98-.2Z"/>
        <path class="cls-70" d="M96.96,57.19c1.56.37,1.37,2.21,3.08,3.31.1-2.95.31-5.33,2.64-6.3.54-.36.97-.63,1.01-.58,2.66,3.53,8.04,11.73,5.63,15.28-.67,2.07-1.17,1.17-1.59-.74l-.94-.06c-2.53-2.1-5.1-4.02-7.7-5.75-1.4-1.27-1.75-3.26-4.11-4.45.6-.42,1.29-.54,1.99-.71Z"/>
        <path class="cls-116" d="M98.27,64.22l.76-.97c2.01-.63,2.77.67,3.44,2.29,3.39.07,4.91,2.39,4.46,5.75-.21,1.62-1.84,5.41-3.47,4.8-3.18,5.48-9.73-3.98-4.1-5.87-.92-.31-1.97-.71-3.15-1.21.98-1.54,1.66-3.14,2.06-4.81Z"/>
        <path class="cls-115" d="M96.07,70.44c-.35-1.99.75-2.06,3.3-.2-.31,1.3-.95,2.92-.4,4.31.65,1.63,2.97,1.46,4.5,1.56,4.07,1.73-1.34,5.09-4.29,3.52-2.52,1.29-3.55-3.95-3.87-6.16.04-.29-.08-.61-.01-.89.17-.74.45-1.44.77-2.13Z"/>
        <path class="cls-76" d="M103.47,76.1c.49-1.97,5.61-7.42,1.44-8.5-3.18-.82-2.98,1.73-5.88-4.34l.05-.91c.74-.47,1.36-1.2,2.22-1.98,2.66,2.42,4.13,5.4,6.42,7.8,1.91,3.76,1.2,14.26-5.12,12.12-.26,2.04-.95,2.18-2.13.6-1.36,1.06-2.51.23-1.3-1.26,1.2.02,2.61,0,3.76-.67,1.05-.61.31-1.95.54-2.85Z"/>
        <path class="cls-76" d="M98.27,64.22c.44.46.85,1.09.81,1.62-.09,1.16-1.52,1.28-2.17,2.83,2.16,1.45,4.06-.22,6.52.81-1.21,1.24-2.74.67-4.07.75l-3.3.2c-1.78-2.22.73-4.35,2.21-6.22Z"/>
        <path class="cls-69" d="M101.82,51.39c.58-.06,1.45.36,1.99.09l6.28,11.22c.79-.15,1.85-.33,2.28.2,1.81,2.23,5.12,9.74,5.91,12.65-.57,1.05.5,2.86.36,3.97-.94-.26-2.05-.9-3.06-.34-.87.48-1.3,1.6-1.73,2.48-.29.89-.58.78-.87-.2-4.25,2.94-3.99-.95-1-3.93l-1.74-6.86c-1.75.43-2.01-.35-.94-1.75-.85-2.31-.47-5.46-1.92-7.63l-4.71-7.07c-.55-.82-.69-1.84-.86-2.81Z"/>
        <path class="cls-119" d="M135.76,80.97c1.89-1.6,3.22,3.02,1.14,3.96,1.71.75.51,2.96-.86,4.03-.65.83-1.83,1.16-3.52,1-2.31.8-3.69,2.28-4.12,4.46l.24.93c.98,1.64.35,2.11-1.24.95-.28,1.9-1.01,1.79-1.34-.16-2.58.33-2.04-.87-1.03-2.56-2.65,1.79-4.53.65-2.94-2.25.91.18,1.58-.21,1.76-.76.27-.8.17-2.31.27-3.44,4.27-1.07,8.87,2.5,10.38-.95.62-1.41-1.84-3.75,1.25-5.22Z"/>
        <path class="cls-21" d="M112.99,81.44c.28.12.57.18.87.2,1.8,4.16,7.16,6.36,7.38,9.75l-.73.73c1.82,2.41-.72,5.01-2.44,2.56-2.37.73-4.36-1.32-5.97-6.14-1.65-.78-2.67-1.81-3.06-3.08-.85-.28-.8-.57.1-.86-.57-2.37.71-3.42,3.85-3.16Z"/>
        <path class="cls-125" d="M118.08,94.68c3.98-.02-2.3-4.43-.74-5.94,1.8.54,2.49,2.05,3.91,2.66l.85-.06c.8.85,1.71,2.01,2.94,2.25l.21,1.46c-2.2,1.43-4.43,2.83-6.68,4.2.9,1.64.25,1.77-1.13.45-.57-.41-1.29-1.37-1.78-1.9-1.5-2.64-.59-5.4,2.44-3.11Z"/>
        <path class="cls-75" d="M136.69,78.94c2.01,1.24,2.28,3.71,2.21,5.93-.49,1.87-1.56,2.06-2,.07.09-1.33.29-3.38-1.14-3.96.26-.57.27-1.62.93-2.03Z"/>
        <path class="cls-154" d="M129.87,84.18c-.13,1.26-.82,2.32-2.27,2.08-1.09-.18-1.72-1.43-2.72-1.9l5-.17Z"/>
        <path class="cls-103" d="M118.56,99.25c.88-.91,1.36-1.22,1.61.1,2.79.54,5.21-.47,7.24-3.04l1.24-.95c.47.22.94.9,1.47.95-.26,4.62-4.15,7.25-8.52,8.01-1.52-1.27-3.12-3.04-4.18-4.62l1.13-.45Z"/>
        <path class="cls-40" d="M136.04,88.97c.3-.86.63-.88,1-.03-.33,1.34-1.65,1.92-2.95,1.98l-3.92,2.32c-.19.69-1.2.99-1.77,1.19-.39-.51-.85-1.05-1.04-1.75.07.27,2.28-5.11,8.68-3.71Z"/>
        <path class="cls-157" d="M136.9,84.93l2-.07c-.05,1.56-.57,3.11-1.86,4.07-.32-.04-.69.1-1,.03.16-1.36.77-2.67.86-4.03Z"/>
        <path class="cls-119" d="M134.09,90.91c-.84,1.4-2.28,2.26-3.92,2.32.5-1.76,2.18-2.38,3.92-2.32Z"/>
        <path class="cls-165" d="M94.62,74.61c.27-.36.49-.74.68-1.15,2.06,1.77,1.5,4.96,3.87,6.16.51.26.74,1.02,1.3,1.26,1.31,2.29-.6,2.63-2.6,1.23-1.7-2.21-2.84-4.71-3.26-7.5Z"/>
        <path class="cls-115" d="M102.6,80.28c1.11-.23,2.2-.66,3.44-1.36.98-.56-.41-2.27.21-3.18,1.75-2.55,1.55-5.01,1.47-7.58.42.45.97.72,1.59.74.22.6.83,1.09.94,1.75,3.86,3.98-.68,15.48-5.19,11.54-.11-.09,2.16-.96-.58.73.13,2.23-1.2,2.22-1.79.06-3.1.74-3.01-1.57-.08-2.7Z"/>
        <path class="cls-123" d="M110.25,70.65c2.3-.7,4.3,6.33,3.52,7.72-.75,1.34-1.84,2.07-3.06,3.05l2.28.02c-.84,1.5-2.25,2.55-3.85,3.16-3.28,1.08-4.83.52-4.66-1.68-.37-.28-.54-1.13-.46-1.58.2-1.14,1.64.46,2.28.23,5.39-1.91,3.09-10,2.71-8.95.3-.82.87-1.36,1.24-1.97Z"/>
        <path class="cls-57" d="M109.05,85.46c7.54,2.31,2.13,2.17,9.03,9.22-1.86.12-1.12,2.42-2.44,3.11-.98-1.07-1.85-2.32-2.86-3.25l-2.13-3.5c-1.87-1.29-3.13-2.71-3.79-4.28-1.67-2.21.47-3.04,2.18-1.31Z"/>
        <path class="cls-160" d="M106.87,86.76c3.05,1.69,6.42,4.03,5.92,7.78l-2.69-2.49c-1.77-1.65-3.72-3.03-5.09-5.26-.05-2.3,1.25-2.25,1.86-.03Z"/>
        <path class="cls-2" d="M102.69,82.98l1.79-.06c.99,1.11,5.46-.29,4.66,1.68l-.1.86c-.83.23-1.66.59-2.18,1.31l-1.86.03c-.36-.59-1.54-.47-2-.93-.53-.52-.83-1.31-1.31-1.87-1.34-1.39-.79-1.91.99-1.01Z"/>
        <path class="cls-29" d="M120.17,99.34c0-2.01,4.12-4.34,5.9-3.2l1.34.16c.1,2-.83,4.46-3.26,5-1.38.3-3.76.33-3.98-1.96Z"/>
        <path class="cls-92" d="M125.03,93.58c1.47.29.55,1.58,1.03,2.56-1.94,1.15-4.27,1.61-5.9,3.2l-1.61-.1c1.19-2.83,4.59-3.39,6.48-5.66Z"/>
        <path class="cls-123" d="M100.47,80.88c.49-.65,1.47-.46,2.13-.6-.66.83-.66,1.92.08,2.7l-.99,1.01c-1.8.21-2.86-.64-3.82-1.89,1.11.2,1.97-.38,2.6-1.23Z"/>
      </g>
    </g>
  </g>
</svg>