<?xml version="1.0" encoding="UTF-8"?>
<svg id="Enemy" xmlns="http://www.w3.org/2000/svg" viewBox="0 0 66.46 117.81">
  <defs>
    <style>
      .cls-1 {
        fill: #3d424e;
      }

      .cls-2 {
        fill: #0c0f1b;
      }

      .cls-3 {
        fill: #2e3c53;
      }

      .cls-4 {
        fill: #2e3a54;
      }

      .cls-5 {
        fill: #353c44;
      }

      .cls-6 {
        fill: #0d1a3b;
      }

      .cls-7 {
        fill: #141622;
      }

      .cls-8 {
        fill: #050b1b;
      }

      .cls-9 {
        fill: #242e3a;
      }

      .cls-10 {
        fill: #15274b;
      }

      .cls-11 {
        fill: #203154;
      }

      .cls-12 {
        fill: #3e4452;
      }

      .cls-13 {
        fill: #010418;
      }

      .cls-14 {
        fill: #0b1531;
      }

      .cls-15 {
        fill: #2e3442;
      }

      .cls-16 {
        fill: #0f2048;
      }

      .cls-17 {
        fill: #132a52;
      }

      .cls-18 {
        fill: #b47a68;
      }

      .cls-19 {
        fill: #112252;
      }

      .cls-20 {
        fill: #1e2a3a;
      }

      .cls-21 {
        fill: #1c2739;
      }

      .cls-22 {
        fill: #101d33;
      }

      .cls-23 {
        fill: #2b405e;
      }

      .cls-24 {
        fill: #161f31;
      }

      .cls-25 {
        fill: #676f80;
      }

      .cls-26 {
        fill: #2e3a50;
      }

      .cls-27 {
        fill: #1f2a48;
      }

      .cls-28 {
        fill: #122142;
      }

      .cls-29 {
        fill: #272e42;
      }

      .cls-30 {
        fill: #19263c;
      }

      .cls-31 {
        fill: #28282b;
      }

      .cls-32 {
        fill: #172c50;
      }

      .cls-33 {
        fill: #17243d;
      }

      .cls-34 {
        fill: #223455;
      }

      .cls-35 {
        fill: #1a2d51;
      }

      .cls-36 {
        fill: #111322;
      }

      .cls-37 {
        fill: #0e1936;
      }

      .cls-38 {
        fill: #070a23;
      }

      .cls-39 {
        fill: #12162b;
      }

      .cls-40 {
        fill: #192b4a;
      }

      .cls-41 {
        fill: #e07f55;
      }

      .cls-42 {
        fill: #444757;
      }

      .cls-43 {
        fill: #3a5989;
      }

      .cls-44 {
        fill: #292e3d;
      }

      .cls-45 {
        fill: #30353e;
      }

      .cls-46 {
        fill: #111420;
      }

      .cls-47 {
        fill: #171a23;
      }

      .cls-48 {
        fill: #04040d;
      }

      .cls-49 {
        fill: #39445b;
      }

      .cls-50 {
        fill: #08122d;
      }

      .cls-51 {
        fill: #161a29;
      }

      .cls-52 {
        fill: #302920;
      }

      .cls-53 {
        fill: #24304b;
      }

      .cls-54 {
        fill: #232731;
      }

      .cls-55 {
        fill: #293455;
      }

      .cls-56 {
        fill: #222b42;
      }

      .cls-57 {
        fill: #2e1e1f;
      }

      .cls-58 {
        fill: #23324d;
      }

      .cls-59 {
        fill: #434953;
      }

      .cls-60 {
        fill: #242423;
      }

      .cls-61 {
        fill: #08132a;
      }

      .cls-62 {
        fill: #10141e;
      }

      .cls-63 {
        fill: #070a18;
      }

      .cls-64 {
        fill: #10141d;
      }

      .cls-65 {
        fill: #272c41;
      }

      .cls-66 {
        fill: #3b0707;
      }

      .cls-67 {
        fill: #33414d;
      }

      .cls-68 {
        fill: #141926;
      }

      .cls-69 {
        fill: #35373f;
      }

      .cls-70 {
        fill: #232b3a;
      }

      .cls-71 {
        fill: #a8a6ae;
      }

      .cls-72 {
        fill: #4f5460;
      }

      .cls-73 {
        fill: #0f1b2b;
      }

      .cls-74 {
        fill: #0d1b35;
      }

      .cls-75 {
        fill: #262d4c;
      }

      .cls-76 {
        fill: #221311;
      }

      .cls-77 {
        fill: #3a3a3a;
      }

      .cls-78 {
        fill: #1e1e2b;
      }

      .cls-79 {
        fill: #24272c;
      }

      .cls-80 {
        fill: #090d1d;
      }

      .cls-81 {
        fill: #192133;
      }

      .cls-82 {
        fill: #0c1535;
      }

      .cls-83 {
        fill: #0f1d3a;
      }

      .cls-84 {
        fill: #00010c;
      }

      .cls-85 {
        fill: #2d406b;
      }

      .cls-86 {
        fill: #343b40;
      }

      .cls-87 {
        fill: #121525;
      }

      .cls-88 {
        fill: #071332;
      }

      .cls-89 {
        fill: #32466d;
      }

      .cls-90 {
        fill: #15171f;
      }

      .cls-91 {
        fill: #272d3f;
      }

      .cls-92 {
        fill: #0b1025;
      }

      .cls-93 {
        fill: #313e56;
      }

      .cls-94 {
        fill: #161c2c;
      }

      .cls-95 {
        fill: #757986;
      }

      .cls-96 {
        fill: #252b38;
      }

      .cls-97 {
        fill: #272f47;
      }

      .cls-98 {
        fill: #0f1021;
      }

      .cls-99 {
        fill: #4b5161;
      }

      .cls-100 {
        fill: #13203e;
      }

      .cls-101 {
        fill: #353a4f;
      }

      .cls-102 {
        fill: #171c32;
      }

      .cls-103 {
        fill: #121a2c;
      }

      .cls-104 {
        fill: #252938;
      }

      .cls-105 {
        fill: #29314b;
      }

      .cls-106 {
        fill: #080710;
      }

      .cls-107 {
        fill: #191f32;
      }

      .cls-108 {
        fill: #d58f6c;
      }

      .cls-109 {
        fill: #3f444b;
      }

      .cls-110 {
        fill: #202a3d;
      }

      .cls-111 {
        fill: #11203f;
      }

      .cls-112 {
        fill: #0f101c;
      }

      .cls-113 {
        fill: #1b1b1b;
      }

      .cls-114 {
        fill: #161026;
      }

      .cls-115 {
        fill: #191b21;
      }

      .cls-116 {
        fill: #213c6f;
      }

      .cls-117 {
        fill: #6b7780;
      }

      .cls-118 {
        fill: #0a0f19;
      }

      .cls-119 {
        fill: #1a2b51;
      }

      .cls-120 {
        fill: #3e2215;
      }

      .cls-121 {
        fill: #2a3654;
      }

      .cls-122 {
        fill: #0f1320;
      }

      .cls-123 {
        fill: #0a1221;
      }

      .cls-124 {
        fill: #485a71;
      }

      .cls-125 {
        fill: #070e1f;
      }

      .cls-126 {
        fill: #060a15;
      }

      .cls-127 {
        fill: #c3805e;
      }

      .cls-128 {
        fill: #4d4c4d;
      }

      .cls-129 {
        fill: #2a313d;
      }

      .cls-130 {
        fill: #213c66;
      }

      .cls-131 {
        fill: #23293c;
      }

      .cls-132 {
        fill: #151826;
      }

      .cls-133 {
        fill: #0c0e0b;
      }

      .cls-134 {
        fill: #2d3750;
      }

      .cls-135 {
        fill: #2f2b35;
      }

      .cls-136 {
        fill: #444f67;
      }

      .cls-137 {
        fill: #111628;
      }

      .cls-138 {
        fill: #384661;
      }

      .cls-139 {
        fill: #2a201d;
      }

      .cls-140 {
        fill: #0a1837;
      }

      .cls-141 {
        fill: #434848;
      }

      .cls-142 {
        fill: #1b2342;
      }

      .cls-143 {
        fill: #1c2942;
      }

      .cls-144 {
        fill: #841f24;
      }

      .cls-145 {
        fill: #1c2431;
      }

      .cls-146 {
        fill: #565962;
      }

      .cls-147 {
        fill: #0d1529;
      }

      .cls-148 {
        fill: #814a33;
      }

      .cls-149 {
        fill: #15274d;
      }

      .cls-150 {
        fill: #091a40;
      }

      .cls-151 {
        fill: #313f58;
      }

      .cls-152 {
        fill: #45464e;
      }

      .cls-153 {
        fill: #192638;
      }

      .cls-154 {
        fill: #1d2636;
      }

      .cls-155 {
        fill: #0f1c3d;
      }

      .cls-156 {
        fill: #14171e;
      }

      .cls-157 {
        fill: #0a0d19;
      }

      .cls-158 {
        fill: #3d3d3d;
      }

      .cls-159 {
        fill: #19294a;
      }

      .cls-160 {
        fill: #161e31;
      }

      .cls-161 {
        fill: #181c2d;
      }

      .cls-162 {
        fill: #262d44;
      }

      .cls-163 {
        fill: #0f1732;
      }

      .cls-164 {
        fill: #11131f;
      }

      .cls-165 {
        fill: #a27463;
      }

      .cls-166 {
        fill: #2c2f36;
      }

      .cls-167 {
        fill: #314054;
      }

      .cls-168 {
        fill: #0a0e19;
      }

      .cls-169 {
        fill: #161e2d;
      }

      .cls-170 {
        fill: #31303d;
      }

      .cls-171 {
        fill: #1d2c4d;
      }

      .cls-172 {
        fill: #191c23;
      }

      .cls-173 {
        fill: #172d54;
      }
    </style>
  </defs>
  <g id="HyJungScout_walk_1">
    <g id="back-leg">
      <path class="cls-87" d="M38.76,63.56c-.95-1.64-1.64-4.21-3.13-5.31-1.49-1.1-5.63-4.12-9.73-4.34s-9.73-1.07-12.87,1.35-3.63,4.57-3.97,6.16.47,6.28,2.75,8.1,7.24,3.66,8.87,4.6c1.63.94,6.36,3.62,8.85,4.3,2.49.68,10.01.05,10.43-1.12s1.35-5.68.3-8.75-1.51-4.99-1.51-4.99Z"/>
      <path class="cls-87" d="M40.48,117.05v-2.37c0-.62,0-1.25-.15-1.86-.4-1.53-1.74-2.65-3.19-3.31-1.44-.65-3.02-.94-4.52-1.44-.98-.33-1.92-.75-2.91-1.03s-2.05-.41-3.05-.15c-.8.21-1.52.68-2.05,1.32-.76.92-1.05,2.13-1.33,3.29-.03.14-.06.28-.03.42.04.14.14.25.24.35,1.12,1.11,2.55,1.9,4.09,2.26.74.17,1.5.25,2.26.34,1.78.23,3.56.61,5.19,1.37.91.43,1.81.99,2.82,1.02l2.63-.21Z"/>
      <path class="cls-28" d="M37.91,83.12c1.35-.47,2.13,1.03,2.35,4.48l-1.43,6.03c-.5.77-.82.67-.96-.26.09-1.69.26-3.5.51-5.44-.36.8-.71.74-1.05-.12-1.03,2.72-2.81,1.96-2.93-.72-1.9,1.92-4.41,1.15-6.09-.48l.34-3.24c-2.29-1.19-1.84-2.1.41-2.9.66-.11.99-.63,1.01-1.56-.76-3.09,3.83-4.67,5.12-1.55.66.82.74,1.88.23,3.18.65,1.78,1.49,2.63,2.5,2.57Z"/>
      <path class="cls-160" d="M41.61,76.71c.34.43.16,1.01.28,1.49-.68,1.37-1.11,2.92-1.29,4.63.27.83.38,1.86.34,3.1-.08.3-.28.57-.39.87l-.29.82c-1.39-1.14-1.26-3.13-2.35-4.48-3.44-.03-2.28-5.4.34-6.33-.22-1.07.63-2.34,1.73-2.54.81-.44,1.35.38,1.63,2.45Z"/>
      <path class="cls-71" d="M38.84,93.64l-.79,2.89-2.11,7.72c-.5.77-.82.67-.96-.26.27-2.47.65-5.13,1.14-7.98-.77-.5-.67-.82.26-.96-2.32-1.41-2.22-1.75.53-1.93.5-.77.82-.67.96.26l.96.26Z"/>
      <path class="cls-68" d="M41.12,66.28c0,.31-.33.67-.26.96-.21.93-.44,1.89-1.49,1.67-1.64.94-1.85.29-.7-1.23-2.28-1.96-3.26-3.15.09-4.12.85,1.04.91,2.18,2.37,2.72Z"/>
      <path class="cls-56" d="M38.76,63.56c.15,1.3-.57,2.77-.09,4.12l-1.49,1.67c-1.6,1.7-2.82,2.13-3.65,1.3-.59.68-.82.52-.74-.41-1.74.32-2.06-.32-.8-1.52l-.78-1.07c1.15-1.27,1.73-2.82,1.72-4.66-1.19-1.07-.38-3.18,1.36-2.56,2.21-1.39,3.12,1.47,4.47,3.14Z"/>
      <path class="cls-70" d="M31.56,60.61l.88,1.02c-1.22,1.73-2.11,3.58-2.65,5.57.8.46.72.78-.2.98.39,2.6-.56,2.65-2.06.49-.52,1.94-1.31,1.69-1.2-.38-1.17-1.35-1.42-2.82.62-2.75-.83-2.59-1.25-3.88-1.25-3.88l2.21-.82c.59-.48,1.09-1.05,1.53-1.67.63.58,1.37,1.03,2.12,1.44Z"/>
      <path class="cls-35" d="M27.92,60.83l-.96,4.7c-.79-.15-1.6-.44-2.4-.88-.72-1.01-1.19-2.17-1.52-3.36.29-.47,1.27-1.04,1.25-1.65,1.17.59,2.29,1.85,3.64,1.2Z"/>
      <path class="cls-107" d="M24.16,66.41c1.59-1.4,2.06-.04,2.17,1.86.31.17.85.38,1.2.38,2.09.34,1.95,1.41-.09,2.17,1.08,1.34.59,1.58-1.48.71-1.61,1.55-3.27.2-3.38-1.77-2.19-.34-2.35-1.41-.37-2.39-1.57-1.16-1.17-1.85.72-1.3l1.22.34Z"/>
      <path class="cls-92" d="M26.96,65.53l-.62,2.75c-.85-.45-1.52-1.17-2.17-1.86l.39-1.76c-.44-.92.6-1.21,1.39-1.44,1.4-.41.42,1.77,1.02,2.32Z"/>
      <path class="cls-141" d="M42.29,80.97c-.48.92-1.05,1.53-1.69,1.85,0-.86-1.58-1.81-1.09-3.08.31-.79,1.51-1.12,2.37-1.55.21.87.65,1.87.4,2.78Z"/>
      <path class="cls-80" d="M41.61,76.71c-1.76.61-1.03-1.66-1.63-2.45-.59-.43-.47-.75.26-.96-2.48-1.01-2.12-1.86.53-1.93-.73-.49-.63-.81.26-.96,1.41,1.82,1.23,4.2.57,6.31Z"/>
      <path class="cls-63" d="M41.04,70.4l-.26.96c-2.34,1.69-3.08,1.03-1.67-1.49-.77-.5-.67-.82.26-.96.21-.77.58-1.67,1.49-1.67.22,1.04.3,2.1.17,3.16Z"/>
      <path class="cls-168" d="M40.94,85.92c-1.29-.74-.33-2.04-.34-3.1.5-.6.7-2.03,1.69-1.85l-1.35,4.95Z"/>
      <path class="cls-159" d="M33.48,105.65c.92.49,1.65,1.73,2.2,3.71-.05.39-.28.75-.36,1.13-1.21,2.54-3.13,2.34-4.03-.29-2.36.49-3.63.08-3.82-1.24-2.43-.06-2.37-.3-.6-1.96-.76-3.46,1.74-5.51,3.68-2.18-.48-4.76,3.74-3.48,2.93.84Z"/>
      <path class="cls-102" d="M35.94,104.25c-.37,1.36-.49,2.76-.09,4.12.08.27-.12.7-.16.99-1.66-.35-2.2-2.15-2.2-3.71-.38-.98-.21-1.63.53-1.93.5-.77.82-.67.96.26l.96.26Z"/>
      <path class="cls-77" d="M38.66,113.28c.47.61.44.93.1,1.19-.87.68-1.89.64-2.56.21l.53-1.93,1.93.53Z"/>
      <path class="cls-87" d="M28.31,86.62l.7,1.23c.77.5.67.82-.26.96l-.35,5.09c1.13-2.43,2.95-2.68,3.47.08,2.9,1.26,4.12,3.46,1.84,5.68-.66,2.55-2.5,2.65-5.54.29l-1.41,1.02c1.89,1.85,1.73,2.36-.89,2.35.2,2.02.13,2.21-1.55.87-3.26-.96-2.76-7.35.4-8.18-.9-3.55-.56-8.09,2.16-10.73.85-.27,1.38-1.17,1.77-1.89,1.09-.61,1.19,1.07,1.66,1.86.55.93-1.59.58-1.99,1.39Z"/>
      <path class="cls-16" d="M35.29,71.92c1.53-.77,2.29.2,2.28,2.9,1.66-1.13,1.73.75.67,1.98-.41,2.8-1.8,3.42-3.07.58-1.78-.23-3.5,1.04-5.12,1.55-2.19.01-2.72-1.93-.89-3.25-1.74-.29-1.11-2.47.56-2.46-2.14-2.69.43-4.92,3.05-2.97l.74.41c.61.19,1.2.62,1.77,1.28Z"/>
      <path class="cls-64" d="M25.97,71.54c.06.92.43,1.85,1.11,2.78.85-.29,1.55.16,2.11,1.35.22,1.1.42,2.25.89,3.25l.56,1.11c.19.37,0,.98-.25.89-.58-.21-1-.47-1.31-.45-.64-1.48-2.47-2.01-3.43-3.15-2.06-.56-3.94-2.3-4.89-4.09-1.86,1.76-2.18-1.25-.42-2.16-.55-1.97.66-2.6,2.26-1.3,1.33-.09,2.6.81,3.38,1.77Z"/>
      <path class="cls-4" d="M37.91,83.12c.35.7-.16.85-.49,1.16-1.2,1.13-4.24-2.01-4.03-4.27.09-.92.81-2,1.8-2.64,1.16.15,1.94-.4,3.07-.58.67,1.96-1.01,4.35-.34,6.33Z"/>
      <path class="cls-32" d="M37.33,87.82c.46,3.8-2.1,7.54-5.11,4.05-.57.81-.93.68-1.1-.33-1.43-.49-1.12-2.13.53-1.93-.54-1.03.38-1.87,2.76-2.5.97-.06,1.98.63,2.93.72Z"/>
      <path class="cls-26" d="M36.91,93.11l-.53,1.93c-1.02,2.08-3.77.54-4.51-1.06-1.92-1.34-1.81-2.04.35-2.12,1.26-.06,2.6.21,3.38-.35,1.16-.83,1.49-2.7,1.74-3.7.35.03.72,0,1.05.12.21,1.78-.23,3.83-1.48,5.17Z"/>
      <path class="cls-130" d="M34.4,87.1c-.5,1.21-1.55,2.05-2.76,2.5-1.06.93-1.94.35-2.63-1.75-.61-.21-1.04-.54-.7-1.23,1.96.77,4.04.61,6.09.48Z"/>
      <path class="cls-13" d="M37.87,93.37l-.96-.26c.47-1.73.88-3.48,1.48-5.17,1.41,1.49-.27,3.68-.51,5.44Z"/>
      <path class="cls-121" d="M39.98,74.26c-.12,1.29-.4,2.33-1.73,2.54l-.67-1.98c-1.02-2.95.59-3.87,2.67-1.53-.08.31-.23.65-.26.96Z"/>
      <path class="cls-79" d="M36.38,95.04l-.26.96c.13,1.49.13,3.55-1.31,4.01-.43,1.89-1.17,1.65-1.09-.36.21-1.13.46-2.35-.27-3.32-.96,1.22-2.3,1.26-3.12.83-.56-.29-1.89-1.52-.64-1.89,1.01-.3,1.73,0,2.21-.41.2-.17-.05-.63-.01-.89,1.5.05,3.24.1,4.51,1.06Z"/>
      <path class="cls-106" d="M34.98,103.99l-.96-.26c-2.92-.43-2.07-3.62.8-3.7l1.31-4.01c1.57,2.44-.87,5.31-1.14,7.98Z"/>
      <path class="cls-113" d="M26.55,112.05c3.29.4,6.31,2.76,9.65,2.63.59.79,1.51,1.68,2.63,1.75.7.18,2.15-.47,1.77,1.37-2.11-.32-3.48-.75-4.93-1.19-3.53-.39-7.07-1.17-10.63-2.35-4.78.27-2.48-5.53,1.51-2.22Z"/>
      <path class="cls-73" d="M38.67,67.68c.16.45.42.85.7,1.23l-.26.96c.07,2.72-1.33,2.88-2.4.37-.19-.48-.04-.78.47-.9-.28-.81-1.46-1.11-1.62-2.94,1.49-.53,1.95,1.16,3.11,1.27Z"/>
      <path class="cls-112" d="M33.2,60.09c.26.23.77.15,1.08.33-.47.52-.75,2.06-1.36,2.56.39,1.91-1.19,5.77-3.13,4.22-.58-.07-1.31.11-2.24-.84,2.05-1.04,3.56-4.06,4.01-5.75.07-.26.12-.85.15-1.47.01-.29.6-.71.94.04.11.24.28.67.56.91Z"/>
      <path class="cls-50" d="M31.99,68.71c.51.2.62,1.09.8,1.52-1.5.4-2.45,1.58-3.05,2.97-1.24,1.45-2,.66-2.3-2.37.12-.72.13-1.45.09-2.17.68,0,1.38-.54,2.06-.49,1.39-1.45,2.31-1.53,2.4.54Z"/>
      <path class="cls-117" d="M31.99,68.71c-.73-.29-1.62-.48-2.4-.54l.2-.98c1.77-.75,1.61-2.99,3.13-4.22,2.13,1.55.12,3.93-.94,5.73Z"/>
      <path class="cls-55" d="M37.18,69.34c-.18.27-.25.66-.47.9,1.61,2.09,1.03,2.51-1.42,1.68-.09.39-.39.81-.68.76-.87-.15-1.38-1.08-1.09-2.04,1.15-.62,2.37-1.09,3.65-1.3Z"/>
      <path class="cls-29" d="M29.74,73.21c.08.79-.72,1.7-.56,2.46-.03,1.01-.9.73-1.36.24-.4-.42-.68-.92-.75-1.59-.93-.67-1.47-1.72-1.11-2.78.5-.21.93-.6,1.48-.71.75.81,1.36,1.77,2.3,2.37Z"/>
      <path class="cls-14" d="M40.77,71.36l-.53,1.93c-1.19-.12-1.78,1.09-2.67,1.53-1.13.55-3.21.41-3.59-.7.67-.58,1.91-.72,1.83-1.25-.05-.37-.6-.71-.52-.94.32-.63.94-1.16,1.42-1.68l2.4-.37c.34.7.98,1.16,1.67,1.49Z"/>
      <path class="cls-91" d="M33.71,99.66l1.09.36-.8,3.7c-.13.62-.53,1.3-.53,1.93l-.94-2.16c-.14-.33-1.39,1.3-1.98,1.32-1.97-.03-3.53-1.99-3.8-3.85-.85-1.35-1-3.25.3-4.31,1.29,3.26,4.28,3.12,6.65,3Z"/>
      <path class="cls-134" d="M30.56,104.81c-1.56.07-3.26.53-3.68,2.18-2.31.64-2.21-2.41-1-3.68-.08-.78.74-1.61.89-2.35,1.61-.4,4.35,2.02,3.8,3.85Z"/>
      <path class="cls-94" d="M26.87,107c.27.62.83,1.22.6,1.96,1.98.9,1.31,1.59-.65,2.13-3.39,1.59-4.52,1.01-3.37-1.73-.3-1.71,1.04-3.53.87-5.17.42-.44.94-.78,1.55-.87.13,1.25.5,2.54,1,3.68Z"/>
      <path class="cls-134" d="M31.29,110.2c-1.25.87-3,.72-4.48.89l.65-2.13,3.82,1.24Z"/>
      <path class="cls-105" d="M29.19,91c2.12.41,1.86,1.38-.79,2.89-1.29-1.16-1.26-4.21.35-5.09,1.76-.33,2.58,1.87.44,2.19Z"/>
      <path class="cls-100" d="M31.12,91.53c.35.1.74.35,1.1.33l-.35,2.12c-.5-.24-1.15-1.6-1.99-1.02-.37.26-.72.94-1.48.94l.79-2.89c.37-1.91,1.88-1.28,1.93.53Z"/>
      <path class="cls-28" d="M31.65,89.6l-.53,1.93-1.93-.53c.21-.76.39-1.75-.44-2.19l.26-.96c1,.35,1.84,1.07,2.63,1.75Z"/>
      <path class="cls-137" d="M27.07,74.32c-.94.3-1.79-.23-2.04-.86-.38-.95.24-1.62.93-1.91.41.5,1.45.62,1.5,1.33.05.59-.09,1.08-.4,1.44Z"/>
    </g>
    <g id="front-leg">
      <path class="cls-51" d="M28.44,71.7c.82-1.55,1.11-5.02,3.08-7.85,1.98-2.83,8.01-6.86,7.36-9.17s-5.15-5.81-8.78-5.38-13.26,2.53-15.86,4.71c-2.59,2.17-6.07,3.35-3.66,10.58,2.41,7.23,5.85,7.82,7.69,8.24s10.17-1.12,10.17-1.12Z"/>
      <path class="cls-133" d="M18.45,112.33c-1.33-1.1-2.73-2.13-4.17-3.07-.78-.51-1.61-1.01-2.52-1.2-.77-.15-1.57-.07-2.35.03-2.16.28-4.3.74-6.44,1.19-.23.05-.46.1-.66.23-.15.1-.27.24-.39.38-.21.25-.42.5-.64.75-.45.53-.92,1.09-1.06,1.77-.19.86.17,1.74.52,2.55.23.53.48,1.08.96,1.39.44.29.99.32,1.52.34,1.58.06,3.16.12,4.75.18,1.61.06,3.23.12,4.82-.07.52-.06,1.03-.15,1.55-.16.64-.01,1.3.09,1.89-.13.48-.18.86-.54,1.3-.79.45-.25.95-.37,1.42-.57s.92-.53,1.09-1.01-.08-1.12-.58-1.22l-.99-.58Z"/>
      <path class="cls-62" d="M11.82,69.94c2.41.07,2.98,1.32,1.7,3.77l.81.02c.77,2.8,1.1,5.72.99,8.74.99,2.5-2.88,3.26-4.02,1.67-.79,2.01-1.32,2.14-1.6.38-1.07,1.61-1.71,1.21-1.09-.66l1.34-2.41c.41-1.65.72-3.43.94-5.34-.84-2.3-.75-4.55-.27-6.87,1.02-1.64,1.65-1.23,1.2.7Z"/>
      <path class="cls-46" d="M14.42,68.28c1.4,1.9-.98,3.54-2.6,1.66l-1.2-.7c.35-1.66-.61-3.63-.12-5.34.27.1.89-.04,1.17-.09,2.33.03,3.3,2.48,2.74,4.47Z"/>
      <path class="cls-46" d="M9.95,81.45c.17-.93-.83-2.17-.52-3.04.27-.71.63-2.08,1.46-2.3.72,1.97,1.87,5-.94,5.34Z"/>
      <path class="cls-103" d="M13.16,61.24c1.55-1.5,3.85-2.03,4.14.32,2.69.29,2.87.64.52,2.13.11.89-.16.95-.77.25-1.29,1.83-4.19,1.83-5.37-.14.03-.68-.5-1.37-.53-2.05l2.02-.52Z"/>
      <path class="cls-111" d="M18.28,61.37c-.11.91-.44.96-.98.19-1.33-.45-2.79-.67-4.14-.32.49-.84,1.34-2.11,2.26-2.46,1.11.77,2.85-.86,3.9-.36,1.56.75-.51,2.29-1.04,2.95Z"/>
      <path class="cls-155" d="M22.08,60.5c2.19.33,1.45,1.67-.47,2.24,1.92-.29,2.1,1.45.21,1.94-1.09,1.4-3.42.49-4-.99l-.52-2.13.98-.19c1.35.66,2.61-.19,3.8-.86Z"/>
      <path class="cls-122" d="M4.31,103.99c.48,1.64.24,3.32-.75,5.05l1.9,1.5c2.09-2.08,2.4-1.53,1.48,1.19-1.23.62-2.5,1.15-3.8,1.61-2.29-.15-3.59-3.51-2.98-5.64l1.79-6.21c2.67-1.87,3.68-.05,2.37,2.5Z"/>
      <path class="cls-128" d="M12.86,112.52c1.26-.54,2.36.23,1.61,1.6.91.11.96.44.19.98-1.77,1.23-4.86,1.92-6.8,1.1-.7.03-1.6-.11-2.23-.33.16-.6.78-1,1.86-1.2,1.6-.57,4.18-.66,5.36-2.15Z"/>
      <path class="cls-133" d="M7.5,114.66c-.59.3-1.1,1.11-1.86,1.2-.11-.04-5.3,1.44-2.16-.59,1.32-.29,2.67-.49,4.02-.61Z"/>
      <path class="cls-39" d="M5.61,95.29c.21.71,1.17,1.85,2.9,3.42l-2.69,2.58c.79-.21,1.59.41,2.4,1.84,1.93-.14,2.03.62.26,1.5-.87,2.04-4.44,2.15-4.16-.63-.46-1.1-1.24-2.07-2.37-2.5.66-2.31,1.74-4.75,1.67-7.04,1.01-3.18,3.62-2.01,2,.84Z"/>
      <path class="cls-129" d="M6.99,91.3c2.39-.86,2.81.14,2.22,2.39,1.82-.01,2.52,1.93.83,2.85.13,1.07-.17,1.2-.9.41-1.32,2.15-3.05-.13-3.54-1.66-.31-.18-.41-.81-.81-.96s-.82-.12-1.18.12l-.02-.69c-.03-.92.44-1.91.41-2.89.28-.41.61-.8.86-1.23,2.29-1.73,2.98-.95,2.14,1.66Z"/>
      <path class="cls-145" d="M19.9,73.17c2.92-.76,3.31.78,1.26,2.95-.24.37-.46.66-.66.64-3.26-.37-.02-1.45,1.02.39.11.19-.37.7-1.02,1.32.15,2.16-3.23,3.5-5.18,4-2.98-1.5-3.13-6.29-.99-8.74,1.32-2.64,3.83-3,5.56-.55Z"/>
      <path class="cls-167" d="M16.72,69.91c.87,1.33-.19,2.6-3.2,3.8-.95-1.04-1.36-2.43-1.7-3.77.99-.35,1.96-.8,2.6-1.66-1.42-2.35-1.05-2.92,1.67-2.56,2.71.83,3.44,2.95.63,4.2Z"/>
      <path class="cls-49" d="M11.3,84.14l2.63,1.53c1.57.68,2.19,1.41.39,2.11,1.6,1.11,1.08,1.72-.78.92-1.76,3.4-5.86,1.91-4.56-2.1.38-.62.43-1.42.72-2.08l1.6-.38Z"/>
      <path class="cls-119" d="M18.28,70.55c2.04-1.17,3.36-.38,1.96,1.82.55.49.42.75-.34.8-1.88-.41-3.83-.31-5.56.55-.3.15-.55.27-.81-.02.69-1.55,1.94-2.7,3.2-3.8,1.1-1.48,1.81-1.19,1.56.64Z"/>
      <path class="cls-131" d="M15.9,83.36c2.86.04,2.81,1.5.36,2.63.15,1.92-1.58,1.16-2.33-.31-.68.14-1.45.53-1.81.96-.74.9-1.28.09-1.24-.87.02-.53.18-1.12.41-1.63,1.31-.32,3.07-.57,4.02-1.67.92-.26,1.1.05.58.89Z"/>
      <path class="cls-152" d="M17.05,63.94c1.92.28,1.86,1.06-.06,1.56-.04.8-.35.85-.9.22-.5.9-1.06,1.74-1.67,2.56-1.74-.87-2.83-2.52-2.74-4.47,1.71-.62,3.81-1.13,5.37.14Z"/>
      <path class="cls-101" d="M21.82,64.68c.83-.27.88,0,.25.72,2.05,3.23-5.31,4.46-5.08.1l.06-1.56.77-.25c1.4-.45,2.74.35,4,.99Z"/>
      <path class="cls-37" d="M28.01,62.09l-.07,1.49c.36,2.14-.09,2.11-1.93,1.35-1.14,1.82-1.95,1.25-1.36-.92-2.11.5-2.28-.48-.31-1.61-1.26-1.32-.75-1.75,1-1.41.91.3,2.26-.23,2.67,1.1Z"/>
      <path class="cls-19" d="M25.34,60.98c-.3.49-.63.97-1,1.41-.46,1.5-2.28,2.06-2.73.35l.47-2.24c1.16-.66,2.27.15,3.26.48Z"/>
      <path class="cls-89" d="M24.34,62.4c-.15.56-.03,1.15.31,1.61.3,2.71-.54,3.14-2.58,1.39-.05-.24-.22-.47-.25-.72l-.21-1.94,2.73-.35Z"/>
      <path class="cls-72" d="M10.94,107.48c.74.94-.3,2.25-3.13,3.93-.28.03-.63.2-.88.32-.37-.41-.87-1.13-1.48-1.19-1.3.24-1.94-.41-1.97-1.74-.11-4.14,5.37-3.87,7.46-1.32Z"/>
      <path class="cls-54" d="M13.26,108.27c-1.11,1.91-3.36,2.91-5.44,3.14-1.08-2.5,2.27-1.84,3.13-3.93-.02-1.66.24-2.7,1.94-2.24l.37,3.02Z"/>
      <path class="cls-158" d="M15.65,114.9l-.98.19-.19-.98c1.07-.16,2.54-.28,2.75-1.56.82.21,1.73.31,2.37,1.41-1.68.69-2.8.64-3.95.94Z"/>
      <path class="cls-65" d="M8.47,104.61c.24-1.95,1.95-1.69,1.96.3,1.43-.25,1.6.61.51,2.57-1.72-.1-3.74-.57-6.04.33-1.23.48.12,2.15.56,2.73-.51-.05-1.15.56-2.13.56-.3,0-.83-.21-.34-1.14-1.22-2.31-.79-4.89,1.32-5.98,1.36.37,2.78.42,4.16.63Z"/>
      <path class="cls-1" d="M9.15,96.95c3.71.85,3.06,6.4-.54,3.04-.95,2.01-1.88,2.44-2.79,1.3-.21-1.07,1.68-2.06.89-3.16-.57-.79-1.47-1.12-1.86-1.92-.24-.49-.08-1.09.76-.91,1.13.65,2.3,1.25,3.54,1.66Z"/>
      <path class="cls-157" d="M10.44,104.91l-1.96-.3-.26-1.5c-.95-.09-1-.42-.19-.98,3.32-4.59,6.59,1.48,2.42,2.77Z"/>
      <path class="cls-65" d="M8.61,99.98c1.87.82,1.46,1.81-.59,2.16-.05.3.14.68.19.98-.79.52-1.8,1.22-2.06-.08l-.34-1.76c.79-.7,1.77-1.08,2.79-1.3Z"/>
      <path class="cls-47" d="M10.98,96.33c1,.14,1.84,1.03,2.53,2.68,1.2.33,1.19,1.4-.01,3.19.08,1.06-.09,2.12-.62,3.04-.55.82-1.18,1.6-1.94,2.24-.29-.75-.65-1.74-.51-2.57s1.27-1.84.32-2.52c-.82-.59-1.94-.33-2.74-.25.13-.73.39-1.44.59-2.16.81-.08,1.81-.49,1.49-1.46-.17-.54-.55-1.07-.95-1.58.35.02.68-.12.9-.41.07-1.21.38-1.28.94-.21Z"/>
      <path class="cls-17" d="M13.54,88.71c3.08,1.76.5,6.7-2.36,3.61.8,2.28.09,2.6-1.97,1.37-1.13-.33-1.85-1.31-2.22-2.39,1.15-1.35,1.08-3.22,1.99-4.69.58,1.99,2.73,2.19,4.56,2.1Z"/>
      <path class="cls-124" d="M11.18,92.32c2.82-.46,3.86,1.66,1.6,3.49.71,2-.66,2.28-1.8.53-.38-.25-.68-.14-.94.21-.38-.92-.66-1.87-.83-2.85.59-.41,1.21-1.25,1.97-1.37Z"/>
      <path class="cls-51" d="M27.13,70.87c.86-.38,1.29-.1,1.31.83,1.87,2.59.78,10.3-3.53,9.08-1.67,2.47-2.55,3.5-3.82.33-2.82-.14-2.6-.92-.59-2.64.04-1.36-1.44-1.8-2.29-2.37.89-1.58,2.2,0,2.94.02.57-1.5,1.98-2.76,4.21-3.79-1.65-2.09-.41-3.01,1.76-1.47Z"/>
      <path class="cls-109" d="M25.36,72.33c.13.92.44,2.23-.16,2.71-1.1.87-2.88,1.13-4.05,1.09-.15-1.08-.59-2.09-1.26-2.95.05-.29-.01-.69.34-.8.71-2.54,4.44-2.62,5.13-.04Z"/>
      <path class="cls-86" d="M21.08,81.11c1.58,2.57-3.53,4.61-5.19,2.25-.08-.27-.42-.67-.58-.89,1.45-1.68,3.19-2.98,5.18-4-.02.88.56,1.75.59,2.64Z"/>
      <path class="cls-40" d="M22.07,65.4c.68-.68,1.76-.96,2.58-1.39.32.47.8.81,1.36.92,2.67-.79.7,3.95-.05,4.69-1.45,1.44-5.58,1.19-7.69.93-.56-.12-1.1-.3-1.56-.64l-.63-4.2c.27-.19.57-.27.9-.22,1.06.4,2.01.93,3.29,1.26.82.21,1.18-.75,1.79-1.36Z"/>
      <path class="cls-173" d="M16.81,89.36c1.12.78,1.38,1.68.47,2.76,1.69,3.17-1.75,5.64-4.51,3.69-.49-1.18-1.16-2.28-1.6-3.49,1.77-.27,2.23-1.97,2.36-3.61l.78-.92c.99-1.86,3.17-.02,2.49,1.57Z"/>
      <path class="cls-6" d="M16.25,85.99c3.63.89,4.37,5.97.56,3.37-.55-.89-1.4-1.62-2.49-1.57l-.39-2.11c.69-.14,1.63.58,2.33.31Z"/>
      <path class="cls-140" d="M27.94,63.58c.52.62.98,1.28,1.4,1.98-.41.62-.67,1.7-1.44,2.17.25,1.5-.01,2.54-.78,3.14-.72.31-1.36.79-1.76,1.47-1.71-.1-3.42-.18-5.13.04-.59-.67-1.24-1.29-1.96-1.82.61-2.88,4.74-.43,6.93-2.46.92-.85.81-2.01.8-3.16-.01-.88,1.26-1.3,1.93-1.35Z"/>
      <path class="cls-172" d="M21.08,81.11c1.29.17,2.62.22,3.82-.33,2.83,1.96-.24,7.72-3.31,8.5-.05.89-.35.93-.9.18l-2.26.09c.96-1.51.23-2.69-2.18-3.55-.3-.82-.11-1.8-.36-2.63l5.19-2.25Z"/>
      <path class="cls-137" d="M29.24,69.47c.18.84-.7,1.52-.8,2.23-.48-.21-.93-.48-1.31-.83-.17-1.06-.25-2.5.78-3.14-.18.42-.13,1.05.06,1.37s.97.73,1.27.37Z"/>
      <path class="cls-156" d="M16.24,97.69c-.08,1.86-1.17,3.52-2.74,4.51-.35-1.04-.4-2.16.01-3.19-1.06-.62-1.28-1.18-.12-1.72.93-1.53,3.42-1.76,2.84.41Z"/>
      <path class="cls-24" d="M18.12,96.04l-1.88,1.65c-.83-.61-1.87-.61-2.84-.41-1.47.12-1.75-.53-.62-1.48,1.15-.34,2.61-.09,3.67-1.04.65-.58.8-1.71.84-2.66.28-.94.7-.87,1.23.05l-.4,3.88Z"/>
      <path class="cls-129" d="M12.78,95.8l.62,1.48.12,1.72c-1.44-.04-2.23-1.38-2.53-2.68l1.8-.53Z"/>
      <path class="cls-110" d="M20.7,89.46c-.24,1.21-1.06,2.2-2.18,2.7-.41-.07-.82-.08-1.23-.05-.14-.39-1.09-.79-1.2-1.24-.09-.4.62-1.13.72-1.52l1.77-.93c-.95-.68-1.95-1.38-2.33-2.44,2.44-.95,3.32,1.67,4.44,3.47Z"/>
      <path class="cls-22" d="M9.7,84.53c.84,1.03.82,2.35-.72,2.08,1.64,2.61,1.63,5.05-1.99,4.69-.69-.58-1.38-1.17-2.14-1.66,1.13-2.01,2.66-3.79,3.76-5.77l1.09.66Z"/>
    </g>
    <g id="head">
      <path class="cls-85" d="M36.51,0l1.31.89c2.73.81,2.87,1.52.34,2.89-.19.92-.56,1-1.12.25-.39,2.63-4.03.72-5.35-1-.16.91-.5.94-1.01.15-1.93.28-1.97-.51-.06-1.21l5.87-1.97Z"/>
      <path class="cls-144" d="M42.62,2.1l.2,1.07c.65.7,1.14,1.39.28,1.94-.45,2.79-5.71,1.52-4.94-1.34-.02-.97-.14-1.94-.34-2.89,1.7-.15,3.26.57,4.81,1.22Z"/>
      <path class="cls-127" d="M41.65,9.34l1.14.08c-.26,1.77-.11,3.4.46,4.89l.1.95c-1.18.9-1.04,3.56-2.99,3.42l-.64-.71c1.63,4.94-2.32,4.05-4.76.74-2.35,2.21-4.03.47-2.11-2.15l.85-2.13c5.22.57,6.91-.96,5.08-4.58-1.39-1.61-.88-2.27.96-1.16.41-1.03,2.07-.6,1.91.66Z"/>
      <path class="cls-148" d="M43.85,9.1l.14.99c-.86,1.24-.89,2.77-.74,4.22-1.5-1.06-1.15-3.32-1.6-4.97.09-1.22,1.45-1.12,2.2-.24Z"/>
      <path class="cls-76" d="M37.43,6.82c2.08.82.75,2.99-1.17,2.47.03,2.34-1.97,4.03-4.15,2.52-.77,1.53-1.34,2.43-2.88,1.23-.56-3.32-.1-6.88,1.46-9.87l1.01-.15,2.05,1.65c2.04.21,3.27.92,3.69,2.14Z"/>
      <path class="cls-66" d="M43.1,5.12c.14,1,.46,1.98.61,2.99-1.01.9-3.21.41-4.13-.58-.72,1.74-2.55,1.23-2.14-.71-2.29-1.23-2.42-2.16-.39-2.79.35-.14.76-.13,1.12-.25,1.28,1.39,3.15,2.1,4.94,1.34Z"/>
      <path class="cls-147" d="M37.04,4.02c-.03.91.53,1.89.39,2.79-2.28-.75-5.4-1.07-5.73-3.79,1.8.57,3.48,1.77,5.35,1Z"/>
      <path class="cls-127" d="M32.12,11.82c2.01,1.59,1.94,2.09-.43,3.09-.68-.29-1.54-.48-2.26-.68l-.2-1.18c.69-.87,2.05-.71,2.88-1.23Z"/>
      <path class="cls-41" d="M36.26,9.29c1.19-1.45,2.19-1.26,2.53.55,1.9-.62,2.46.7,2.44,2.25-.01,1.32.28,3.11-1.58,3.63-2.44.69-4.72.46-6.79.82-.29-.46-.63-1.41-1.16-1.64-.13-1.05-.02-2.12.43-3.09,1.31-.82,2.34-2.84,4.15-2.52Z"/>
      <path class="cls-120" d="M39.57,7.52c1.51.19,1.58.52.18,1.16-.49.13-1.44.47-.96,1.16-1.01.33-1.69-.4-2.53-.55.99-.03,1.04-1.64,1.17-2.47l2.14.71Z"/>
      <path class="cls-18" d="M43.7,8.11l.14.99-2.2.24c-.46-.53-1.21-.84-1.91-.66l-.18-1.16c1.28.42,2.83-.02,4.13.58Z"/>
    </g>
    <g id="body">
      <path class="cls-36" d="M37.71,46.64c-.54-1.59-.57-3.3-.09-4.91,1.3-4.36,3.84-12.97,3.84-14.01,0-1.4.32-5.11-1.66-6.32-1.98-1.21-4.6-2.55-6.19-3.7-1.6-1.15-6.96-1.66-9.32-1.53s-6.77.13-8.55,1.21-6.83,2.74-7.02,4.85-3.32,6.83-2.68,9.51.77,6.77.77,8.55,1.34,11.23.89,14.23-2.62,6.96-1.66,7.47,6.06.13,7.66.77,6.19,1.66,8.11,1.91c1.91.26,3.51,1.79,5.17,1.15,1.66-.64,8.94-2.17,9.64-2.62s3.32-3.64,3.38-4.15-.64-5.68-.89-7.6c-.14-1.06-.81-3.16-1.38-4.82Z"/>
      <path class="cls-31" d="M29.87,12.67c1.53-1.25,2.44-1,2.13,1,2.6-1.04,3.09,0,.92,1.79.45,2.46.25,2.41-1.93,1.26-1.37,1.82-2.36,1.42-2.98-1.19l-.16-1.74.04-1.25c.59.04,1.45-.1,1.99.14Z"/>
      <path class="cls-36" d="M10.16,37.46c3.03-.78,5.76.69,2.63,2.98.21.98-.71,1.27-2.75.87l.82.36c2.4,2.51,1.06,8.04-3,6-1.27-1.91-.59-5.57-.03-8.03l-.02-1.88c-1.12-.72-1.11-1.93.44-1.67l.81-.08c2.22-1.49,2.65-.68,1.08,1.45Z"/>
      <path class="cls-151" d="M13.98,26.64c.31.27.6.56.88.86-1.41.64-2.92,1.46-3.23,3.07-.83-.68-1.21-2.51-.69-3.39.61-1.04,2.26-.38,3.03-.53Z"/>
      <path class="cls-169" d="M28.01,15.53c2.39,1.05,1.4,2.57-.14,4.15-.26.92-.59.9-1,0-1.3,1.7-1.99,1.82-2.08.35-.44-.9-.97-1.76-1.74-2.41.49-1.98,3.18-2.07,4.95-2.09Z"/>
      <path class="cls-96" d="M32.92,15.46c.39.85.73,2.12,1.77,2.43.91.76.99,1.31.23,1.64,1.28,1.46.73,2.01-1.06,1.14-.25.87-.58.84-1,0-.71.78-1.36.76-1.96-.05-.43,1.8-1.1,2.25-2.01,1.32,1.5,3.4-3,4.54-3.26.87.2-1.12.55-2.22,1.23-3.14.31-.05.71.11,1,0,.9-2.42,1.94-3.4,3.12-2.95.34-.49,1.33-1.24,1.93-1.26Z"/>
      <path class="cls-125" d="M30.99,16.72c-.84,1.19-1.71,2.41-3.12,2.95.44-1.36.79-2.81.14-4.15,1.08,0,2.07.71,2.98,1.19Z"/>
      <path class="cls-170" d="M7.87,47.67c.83.23.8.57,0,1,1.69.33,2.52.87,1,2,1.5,2.79-.87,3.22-3,2,.97-1.99.67-4.06.75-6.14.09-2.32-.26-5.18,1.23-6.89l.03,8.03Z"/>
      <path class="cls-74" d="M14.79,44.79c2.38.74,3.97,1.72,4.78,2.95.3,2.9-.63,4.89-2.79,5.96l.43,1.13c-1.61.94-2.73,2.22-3.34,3.84.89.63.79.93-.3.9-1.69,1.18-2.79.4-3.29-2.35-1.78-1.22.28-5.56,1.73-3.7,1.02-1.93.63-3.57-1.14-4.91-.27,2.79-1.4,1.8-3,.06-.15-.22,0-.72,0-1,3.14.76,1.05-3.13,3-6,1.42-.46,2.73.58,3.92,3.12Z"/>
      <path class="cls-34" d="M30.9,23.69c2.19-.81,3.54.83,2.08,2.76,1.93.37,1.78,1.32-.13,1.93l-2.98,2.29c.96,1.25.42,1.46-1.05,1.04-.65,1.56-1.37,1.64-1.71-.03-1.26-1.05-2.34-2.39-3.24-4.02.8-1.12,1.06-2.49.97-3.85l.8-1.01c1.13.57,2.48.14,3.26-.87,1-.76,1.66-.18,1.99,1.75Z"/>
      <path class="cls-99" d="M23.87,22.67c-.72.18-.73.94-1.51,2.03-1.01-1.06-.34-2.63-.04-3.88.93.14,1.21,1.1,1.55,1.85Z"/>
      <path class="cls-115" d="M32.87,20.67l1.83,2.15c1.94.17,1.87,3.03.04,3.49.41,1.93-.96,1.76-1.77.14l-2.08-2.76c-1.06-1.14-1.36-2.12.02-3.07.37-.05.6-1.09,1.16-.67.33.24.61.45.8.72Z"/>
      <path class="cls-135" d="M34.7,22.82c-.44.02-2.27.07-2.71-.58-.24-.36,1.03-1.07.88-1.57.33.03.67-.04,1,0,.42.06.95.37,1.18.79.25.45-.35,1-.35,1.36Z"/>
      <path class="cls-38" d="M30.91,20.62l-.02,3.07c-.5-.67-1.79-.73-1.99-1.75.51-.66,1.22-1.21,2.01-1.32Z"/>
      <path class="cls-126" d="M8.87,54.67c1.29.19.89,1.75-.32,2.21,1.13,1.79,1.21,3.38.24,4.78,2.67,0,2.58,1.06.12,2.11-.5.89-.89.85-1.16-.13-.5-.31-1.25-.52-1.72-.91-.59-2.98-.65-6.05-.22-9.06,1.33-1.07,3.35-1.19,3.06,1Z"/>
      <path class="cls-78" d="M8.87,54.67c-.94-.56-1.99-.86-3.06-1,.04-.31-.07-.72.06-1,.65-.32,1.41-.45,2.06-.34,1.09.18,1.08-.85.94-1.66,2.4-1.55,3.11,3.92,0,4Z"/>
      <path class="cls-162" d="M10.87,48.62c2.06.95,3.84,3.8,1.14,4.91-1.4.45-1.91,2.43-1.73,3.7,1.85,4.18-3.79,3.3-1.73-.34.22-.67.02-1.58.32-2.21.4-.52.94-.96,1.06-1.63.2-1.12-.34-1.74-1.06-2.37-.51-.45-.61-1.44-1-2,.98-.13,2.03.14,3-.06Z"/>
      <path class="cls-163" d="M39.5,31.6l1.31,1.34c.06.54-.11,1.12-.02,1.65-.56,2.51-1.29,2.39-2.59.23-.24,2.04-1.1,1.98-1.51-.06-1.95,2.03-2.65,1.65-1.98-1.07-2.87-.73-2.51-3.18-.37-4.72l1.14-.78c1.13,1.4,2.47,2.54,4.02,3.42Z"/>
      <path class="cls-11" d="M30.79,39.58l1.08.09c.97,1.12.19,1.39-1.03,1.63-.15.03,1.63-1.54,2.03.37,1.57,1.26,1.02,2.8-.92,3.15,2.94,2.12,1.57,3.18-4.12,3.16-2.11-2.01-3.43-2.12-3.96-.32-.89.57-3.52,1.36-4.3.07-2.02-.82-3.6-1.02-4.78-2.95.93-1.48,2.96-2.19,6.08-2.12.1-.98,1.09-1.34,2.96-1.09.05-.91.36-.87.91-.04.73-1.87,1.64-1.79,2.13.13-.06-2.5,1.95-3.73,3.92-2.09Z"/>
      <path class="cls-88" d="M10.29,57.22c.56-.9,2.01-.5,2.4.27.24.47-.46,1.85.89,2.08.56,1.23-.34,1.89-2.7,1.97.45,1.54-1.61,1.59-2.08.12-.5-.88-1.28-1.58-1.63-2.67-.27-.84.49-1.72,1.39-2.12-.49,1.73,1.28,2.26,1.73.34Z"/>
      <path class="cls-20" d="M20.76,49.82c1.66-.84,2.71.57,2.42,2.14.91-.04.88.25.05.81-1.05,1.33-2.66,1.9-3.3.14-1.06,1.15-2.09,2.14-3.15.8.6-2.41-.09-5.37,2.79-5.96,2.2.59,2.6,1.29,1.19,2.08Z"/>
      <path class="cls-58" d="M19.87,60.67c2.66.29,2.46,1.24-.11,1.89-1.31,2.4-3.25,2.8-3.89.11.2-1.16-.47-1.72-2.02-1.69l-.28-1.4c.3.01.32-.65.3-.9.13-.61.33-1.04,1-1.08,2.52-1.07,5.55.12,5,3.08Z"/>
      <path class="cls-5" d="M19.93,52.91c2.01,1.18-.55,3.13-2.33,3.51-.33.81-1.23,1.2-2.72,1.18-.24.42-.71.69-1,1.08-.14-1.49,1.15-4.24,2.91-4.97.98-.41,2.13-.54,3.15-.8Z"/>
      <path class="cls-3" d="M12.02,53.53c-.16-1.68-.76-3.27-1.14-4.91,1.96-.4,3.03,1.12,4.46,2.76-.61,1.46-1.95,1.72-3.31,2.15Z"/>
      <path class="cls-21" d="M20.11,39.43c-1.88.46-2.24-1.58-3.24-2.73l.04-2.03c1.84.9,2.7,2.85,3.2,4.76Z"/>
      <path class="cls-69" d="M22.83,32.71l-.74,5.09c-1.99-.1-2.06-2.53-2.47-4.08.93-.69,2.06-.98,3.21-1.01Z"/>
      <path class="cls-136" d="M27.11,31.69c-.14.92-.5.98-1.09.22l-1.27-.29c-1.68.03-2-1.91-.88-2.94v-1c1.19.07,2.24-.22,4.06.18-.95,1.36-1.02,2.58-.82,3.84Z"/>
      <path class="cls-97" d="M24.76,31.62l-1.88.06c-1-.37-1.21-1.24-.59-1.9.52-.55,1.02-.9,1.59-1.1.83.75,1.01,1.87.88,2.94Z"/>
      <path class="cls-27" d="M34.72,33.69c.02,3.99-4.61,2.14-4.87-1.06-1.5.88-1.92.58-1.02-.92.02-.48.55-1.02,1.05-1.04.85-.8,1.84-1.56,2.98-2.29.74-.42.99.16,1.49.58.45,1.53.46,3.14.37,4.72Z"/>
      <path class="cls-114" d="M28.82,31.72c.4.13.66.7,1.02.92,1.04,2.82-.73,3.96-2.88,1.9-.5-.8-.77-1.7-.93-2.63l1.09-.22c.52-.11,1.18-.11,1.71.03Z"/>
      <path class="cls-43" d="M32.85,28.39c-.04.71-.25,1.51-.8,1.97-.63.53-1.47.28-2.18.31-.16-.74.1-1.51.7-1.8.74-.37,1.5-.44,2.28-.48Z"/>
      <path class="cls-90" d="M40.79,34.59c.86,4.91-2.36,3.16-2.05,10.08-.18,1.2-.58,2.07-1.18,2.61-.1,1.47-.75,1.48-.86.07-2.96.75-3.57-1.27-.84-2.68.08-1.88-.26-3.21-1-4-.28.87-.62.86-1,0-1.15.56-2.23.33-2-1l-1.08-.09c-.57-1.57.67-1.46,2.08-1.07.19-2.66,1.16-2.5,1.92.06,1.87-.32,3.01-1.57,3.41-3.75.84-.27,1.7-.51,2.59-.23Z"/>
      <path class="cls-118" d="M37.87,53.67l2,5c-1.39,1.31-3.11.69-5.14-1.85-.59-2.21,1.08-4.87,3.14-6.15-2.16.2-2.26-.93-.3-3.39-.09-1,.2-2.14,1.18-2.61.14,3.04.69,6.28-.87,9Z"/>
      <path class="cls-57" d="M34.79,38.57c1.46-.73,2.38-2.17,1.91-3.81.39.08,1.13.18,1.51.06.9,1,.28,2.01-.13,2.73-.69,1.2-2.31,1.41-3.28,1.02Z"/>
      <path class="cls-150" d="M31.95,44.82c1.22-2.26,1.96-2.82,2.92-.15.28-.87.62-.86,1,0-.27.83.58,1.95.84,2.68,1.9,3.07-5.24,6.05-4.84,1.32-.66.87-2,1.21-4.04,1.02.1.88-.13.88-.64.08-1.32,1.77-1.74,1.39-1.25-1.14-.62.99-1.72.02-2.07-.96-.25-1.14-1.38-1.59-2.24-3.19,5.25-1.53,9.04,5.91,10.32.34Z"/>
      <path class="cls-25" d="M23.87,47.67c.81.21,1.4.35,2.07.96,1.22,2.44-.51,2.83-5.18,1.19-.19-.72-1.22-1.22-1.19-2.08,1.21.49,3.01-.4,4.3-.07Z"/>
      <path class="cls-149" d="M34.87,44.67c-.98,0-1.95,0-2.92.15.39-1.02.7-2.08.92-3.15-1.02-1.14-.47-1.57,1-1h1c1.7.34,1.13,2.96,0,4Z"/>
      <path class="cls-82" d="M33.87,40.67l-1,1c-.84-.11-1.63.32-3.08-.3.62-.91,1.67-.88,2.08-1.7.75.07,1.42.51,2,1Z"/>
      <path class="cls-83" d="M26.04,51.65c2.19-.03,2.54.99,2.14,3,2.5-.22,2.64,0,1.55,2.24,1.77,1.21,1.17,2.15-1.03,2.01,0,2.59-3.79,2.81-3.83-.19-2.83-.14-2.92-2.35-1.26-4.17-2.06-.03-2.22-.87-.38-1.76-.08-.26,0-.55-.05-.81-.01-2.23,1.38-1.71,2.86-.31Z"/>
      <path class="cls-59" d="M25.94,48.63l1.25,1.14c2.97,1.08,1.69,3.37-1.15,1.88-.93.22-1.93.14-2.86.31-1.24-.26-2.11-.96-2.42-2.14.11-1.29,1.42-1.47,2.52-1.15.9.26,1.63,1.05,2.15,2.01.83-.88.36-1.56.51-2.05Z"/>
      <path class="cls-75" d="M23.23,52.77c.15.51.09,1.34.38,1.76-.39,2.29-1.48,3.02-3.68,2.12.04,2.11-1.87,1.52-2.33-.24.53-1.35,2.06-2.02,2.33-3.51,1.07-.27,2.21-.21,3.3-.14Z"/>
      <path class="cls-143" d="M24.1,60.63c2.93-.78,3.38.37,2.35,2.84,1.79-.21,1.92,1.43.09,1.8.18,1.95-.64,1.94-1.27,0-1.99,1.07-2.3.72-2.4-1.6-1.14.67-3.01.21-3.11-1.11l.11-1.89c-1.03-1.46-.36-1.9,1.08-.84,1.22-2.7,2.58-2.09,3.14.8Z"/>
      <path class="cls-8" d="M17.6,56.42l2.33.24c2.63.06,2.61,1.16,1.03,3.17-.13.5-.6.75-1.08.84-.85-1.97-3.03-2.65-5-3.08.56-.98,1.64-1.29,2.72-1.18Z"/>
      <path class="cls-171" d="M37.87,50.67c-1.62,2.29-2.68,2.67-3.16,1.13-.89,1.94-1.56,2.64-2.92.76-2.14.32-2.53-.81-.65-1.88-1.24-1.12-.86-1.81.74-2,1.24,1.14,1.35,2.35,3,.8.71-.67,2.27-.48,1.84-2.12.23-.57.52-.56.86-.07l.3,3.39Z"/>
      <path class="cls-82" d="M35.87,44.67h-1v-4c1.14,0,2.21-.01,2.05,1.46-.09.82-.75,1.63-1.05,2.54Z"/>
      <path class="cls-9" d="M34.73,56.82c-.41.89-.78.88-1.13-.03-2.75-2.02-1.34-3.45,1.11-4.99,1.1-.23,2.18-.58,3.16-1.13l-3.14,6.15Z"/>
      <path class="cls-153" d="M31.13,50.67c.15.65.36,1.29.65,1.88,1.74,2.48-1.78,4.37-3.61,2.09-1.44-.3-2.35-1.53-2.14-3,.78-.19,1.03-1.2,1.15-1.88l.64-.08c1.44-.57,2.91-.6,3.3.98Z"/>
      <path class="cls-23" d="M31.87,48.67c.16.76.11,1.71-.74,2-1.15-.12-2.28-.43-3.3-.98.56-1.18,2.95-1.51,4.04-1.02Z"/>
      <path class="cls-61" d="M34.71,51.8l-1.11,4.99c-1.06-.51-1.25.11-1.45.93-1.37,1.67-2.37,1.33-2.42-.83-.86-.45-1.36-1.31-1.55-2.24,1.43-.2,2.63-1.06,3.61-2.09.96-.32,1.94-.55,2.92-.76Z"/>
      <path class="cls-5" d="M23.61,54.54c1.27.98.79,2.67,1.26,4.17,2.42,1.49,2.02,2.26-.77,1.92-1-.42-2.05-.75-3.14-.8-.59-.97-.94-2.05-1.03-3.17.75-1.34,2.11-2.3,3.68-2.12Z"/>
      <path class="cls-2" d="M27.85,13.79c1.95.19,2,1,.16,1.74.11,2.64-3.01,2.55-4.95,2.09-1.29-.22-2.44-.88-3.26-1.9,2.34-1.61,5.26-1.88,8.05-1.93Z"/>
    </g>
    <g id="back-arm">
      <path class="cls-60" d="M66.46,12.71c-.78,1.64-1.71,3.3-3.31,4.25-.51.76-.83.66-.96-.28.51-.82.39-2.03.83-2.88,2.11-.9,1.43-3.58,3.05-5.39.72,1.78-.77,3.26.39,4.3Z"/>
      <path class="cls-165" d="M60.67,18.32c.72.52.62.84-.28.96-1.18,4.57-3.33,7.06-6.47,7.48-3.61,2.49-3.27-2.76-1.67-5.03.76-2.55,3.66-2.76,5.27-4.51,1.02.45,2.08.81,3.16,1.1Z"/>
      <path class="cls-104" d="M53.92,26.76c.41.47.26.74-.39.85-1.02,3.94-2.52,4.88-4.52,2.81-1.78-1.68-1.58-3.61.61-5.8.21-.86,1.66-1.93,1.6-3.03l1.02.14c1.13,1.6-.44,4.05,1.67,5.03Z"/>
      <path class="cls-139" d="M63.15,16.96c-.46,2.01-1.07,4.07-2.62,5.49l-.61,1.97c-1.96.28-1.8-1.43.48-5.13-.09-.28.26-.66.28-.96.05-.86,1.16-1.08,1.51-1.64l.96.28Z"/>
      <path class="cls-98" d="M53.53,27.61c1.13.8-.21,3.82-1.11,5.1.69.5.53.7-.39.64-1.02,1.12-1.79.52-2.31-1.82-1.65,1.99-2.86,1.08-1.91-1.35-.43-.86-.9-1.7-1.61-2.38.7-1.46,2.02-2.42,3.41-3.18.59,1.39-1.7,3.28-.54,4.83,1.94,2.58,3.42-.66,4.45-1.85Z"/>
      <path class="cls-52" d="M59.92,24.42l-5.33,4.64c-.55-.24-.77-1-.67-2.3.84-1.73,3.17-2.1,4.35-4.09.77-1.29.68-3.43,2.12-3.38.64,2.03-2.39,3.83-.48,5.13Z"/>
      <path class="cls-132" d="M54.59,29.06l-.95,2.85c.23,1.26-.19,1.63-1.21.8l1.11-5.1c.06-.28.26-.58.39-.85.87.4.93,1.51.67,2.3Z"/>
      <g>
        <path class="cls-132" d="M40.1,21.73c.51,3.01,3.18,5.39,6.12,6.08,1.86-1.27,2.23.45,1.61,2.38-.5.93-1.14,2.11-1.92,3.55,1.22,1.38,1.11,2.46-.85,1.79q-3.07-1.01,0,0c1.66-.54,2.25.29,1.85,1.96,2.25,4.28-5.27,5.6-4.37.76-4.44.25-6.33-.61-5.66-2.56-2.05,1.07-2.59-.05-.89-1.65-1.84-1.64-4.65-5.3-1.03-5.46-.61-1.34-.56-3.02.16-5.04l-.18-2.36.23-1.64c.78.5,1.4,2.21,2.2,2.34,1.05.16,1.9-2.05,3.02-2.44,1.51,1.16-.11,1.46-.29,2.3Z"/>
        <g>
          <path class="cls-142" d="M34.96,28.57c-1.04,2.32-2.44,1.44-2.07-.93l.93-3.37c-.96-.51-.85-1.27-.2-2.3l1.33-.8c1.92,2.28,1.33,4.95.02,7.4Z"/>
          <path class="cls-30" d="M32.88,27.64l2.07.93c-.98,1.83.56,3.69,1.03,5.46-2.08-.38-3.13-2.3-4.23-3.96-1.28.91-1.85.45-1.27-.97.13-.63.38-1.24.66-1.82l1.74.36Z"/>
          <path class="cls-42" d="M47.82,30.19c.37.75,1.24.98,1.91,1.35,2.47,2.55-.87,5.97-2.94,2.45-.43.79-.73.69-.89-.25-.37-.95-.75-2.04-.63-2.75.24-1.52,1.61-1.5,2.55-.8Z"/>
          <path class="cls-45" d="M45.06,35.53c-1.39.72-3.56.74-4.05-.78.6-.46,1.43-1.74,2.09-1.21.75.59,1.34,1.38,1.96,2Z"/>
          <path class="cls-15" d="M37.43,30.36c.14-1.33.64-1.88,1.51-1.64l3.43-1.14c-.62,1.74-1.54,2.93-2.66,4.19-.65.72-2.95-.38-2.28-1.4Z"/>
          <path class="cls-48" d="M48.28,37.06c-.3.44-1.01.29-1.37.43-.59-.67-1.21-1.32-1.85-1.96.52-.27.53-1.35.85-1.79l.89.25c3.13.15,3.28.42,1.49,3.07Z"/>
          <path class="cls-123" d="M38.95,28.72c-.2.78-.65,1.56-1.51,1.64-.18-1.19-.42-2.09-.28-2.59.13-.46,1.22-.97,1.82-.94.47.02-.14,1.87-.02,1.89Z"/>
        </g>
      </g>
      <path class="cls-132" d="M52.03,33.35c-1.07,1.21-2.13,2.44-2.82,3.91-.32-.04-.63-.11-.93-.2-.36-1.08-.8-2.15-1.49-3.07.83.61,1.75.99,2.69.2.81-.68.34-1.67.25-2.65.86.47,1.6,1.15,2.31,1.82Z"/>
    </g>
    <g id="front-arm">
      <path class="cls-154" d="M12.66,25.3c-1.81.49-2.86,1.6-3.13,3.34.81.28.8.52-.03.73-.74,2.19-1.95,3.54-3.62,4.04-.27.85-.54.8-.81-.09-1.17-.94-1.3-2.54-.38-4.81-2.11-.53-.2-2.3,1.38-2.55.93-.6,3.2-2.04,3.01-3.44l.97.25c1.77-1.24,4.66,1.17,2.61,2.53Z"/>
      <path class="cls-44" d="M23.44,18.41c2.83-.77,3.2.6,1.19,2.73-.49,1.72-1.33,1.54-2.52-.56-.94-.86-2.25-.77-3.92.29-2.24,3.57-4.43-.87-1.64-1.09l-.35-1.74c.81-.72,1.56-1.56,2.59-1.99.58-.24,1.25-.2,1.86-.18,1.91-.04,3.31.52,2.79,2.55Z"/>
      <path class="cls-7" d="M18.19,20.86c.55,1.55.38,3.32-1.41,3.35-2.09,1.72-5.59-.52-4.24-2.94,1.05-1.27,2.44-2.16,3.66-3.25.13.13,1.06.07,1.41.26.38.2-.3,1.22-.76,1.85-.1,1.2.64,1.35,1.34.73Z"/>
      <path class="cls-166" d="M16.79,24.21c2.05-.48,2.31,2.77.41,3.22-.69.45-1.63.19-2.82-.78-.56.72-.9.61-1.04-.32-.82.22-1.01-.16-.68-1.03-.24-1.35-1.3-2.2-2.61-2.53.56-.87,1.51-1.32,2.51-1.49.42,1.89,2.72,2.12,4.24,2.94Z"/>
      <path class="cls-146" d="M9.5,29.37c.99-1.84,2.28-1.28,1.82.8,1.88.74,1.83,1.66-.24,1.88,1.71.85,1.63,2.06-.34,2.08-.93,3.08-1.8,2.89-4.1.93l-.75-1.65c.15-1.01.12-2.27.83-3.55.4-.72,1.74-.77,2.79-.49Z"/>
      <path class="cls-10" d="M14.38,26.65c1.14,0,2.16,1.45,1.46,2.49,4.46.85,1.29,4.98-1.53,2.6-1.28.09-2.99-.2-2.99-1.57l-1.82-.8c-.03-.24-.02-.49.03-.73-.36-2.58,1.69-3.57,3.81-2.31.31-.07.71.32,1.04.32Z"/>
      <path class="cls-84" d="M5.06,33.32c-.06.55-.68.99-.79,1.54-1.41-.4-1.4-2.04-1.39-3.07.01-1.59,1.22-2.22,1.8-3.28,1.06,1.36.56,3.2.38,4.81Z"/>
      <path class="cls-12" d="M22.11,20.57c-1.04.65-1.69,1.47-1.97,2.45,1.71,3.61-.11,8.85-2.95,4.41.47-1.11.42-2.32-.41-3.22.59-1.06.88-2.28,1.41-3.35.39-.78,1.6-1.76,2.51-1.89.69-.1,1.17,1.11,1.41,1.6Z"/>
      <path class="cls-164" d="M24.63,21.13l2.1.1c1.03,1.66.02,2.84-1.86,2.81,1.16,1.55.56,2.02-1,.81-1.8.64-2.05,0-.71-1.33-1.03.45-1.41-.26-1.12-2.14-.38-.31-.36-.58.07-.82.82.27,1.66.52,2.52.56Z"/>
      <path class="cls-67" d="M17.2,27.43c1.74,1.97,1.07,2.44-1.36,1.71-.83-.58-1.29-1.5-1.46-2.49.11-.67.21-1.43.89-1.81.63,1.66.96,2.43,1.93,2.59Z"/>
      <path class="cls-33" d="M13.34,35.74c.91.23,1.77,1.35,2.59,3.36,1.81-1.06,3,.03,1.46,1.58-.42.87-.82.86-1.2-.02-1.29,2.44-4.81,1.13-6.84.14-1.36.1-2.32-1.62-.78-2.28.76-1.53-1.35-2.18-1.94-3.47,1.35-.37,2.71-.72,4.1-.93,1.35-.81,2.71-.14,2.61,1.62Z"/>
      <path class="cls-53" d="M8.56,38.53c-.27.55.67,1.68.78,2.28,2.93-.24,3.08,1.51.24,2.4l-3.17-3.88c-.8.05-1.67,1.29-2.4-.46,1.56-1.56,3.19-.44,4.54-.34Z"/>
      <path class="cls-138" d="M13.01,32.57l.8,1.2c.6,1.16.98,1.98-.47,1.97-.69-.47-2.47-.34-2.61-1.62l.34-2.08c.42-1.34,1.92-.9,1.94.52Z"/>
      <path class="cls-93" d="M14.31,31.74c1.94.29,1.76,1.11-.26,1.28-.04.47-.39.32-1.04-.45l-1.94-.52.24-1.88c.98.43,2.73.3,2.99,1.57Z"/>
      <path class="cls-81" d="M22.04,21.39c.12,1.09.49,1.8,1.12,2.14.1.49.44.92.71,1.33,2.48,2.43,1.64,3.77-1.77,3.56.79.46.71.79-.21.98-.09.98-.63,1.89-1.61,2.72.77.51.67.84-.26,1-1.25,2.11-1.86,2.39-3.35.3-.47,2.14-1.59,1.11-2.62-.39l.26-1.28c.78.22,1.74.16,1.87-.77.08-.57-.36-1.22-.34-1.83.18-.68.95-1.18,1.36-1.71,4.27,1.18.15-4.44,2.9-6.57.48-.37,1.23-1.18,2.02-.29.48.55.42.6-.07.82Z"/>
      <path class="cls-116" d="M16.19,40.67c1.66.48,1.75,1.76-.2,1.76-.57.62-.87,2.88-2.51,2.39-1.52-.45-2.56-1.6-3.88-1.62.21-.83-.08-1.6-.24-2.4,1.73-2.07,4.53-.69,6.84-.14Z"/>
      <path class="cls-156" d="M16.67,33.41c1.2.44,1.72,1.94,1.54,4.51.63-1.88,1.5-1.63,1.64.4,2.62-.78,2,3,.16,3.82-.3-.03-.59-.11-.89-.16-1.29.25-2.35.01-1.73-1.3-.37-.42-.7-1.61-1.46-1.58-1.13-1.5-1.83-3.28-2.11-5.33-.37-.29-.51-.85-.8-1.2l1.04.45,2.62.39Z"/>
      <path class="cls-95" d="M19.11,41.99c-.76,1-2.24.4-3.13.44l.2-1.76c.37.09.82-.05,1.2.02.46.54,1.19.85,1.73,1.3Z"/>
      <path class="cls-27" d="M22.13,32.45c.91-1.71,1.59-1.37,1.18.56,2.05.24,2.12,1.68.35,2.77.68.63.56.99-.36,1.08-.8,1.5-2.11,2.77-3.45,1.47-.52-.19-1.1-.26-1.64-.4-1.06-1.66-.56-4.76,1.8-4.81l.26-1c.26-1.94,1.87-1.67,1.85.34Z"/>
      <path class="cls-108" d="M31.42,36.59c.51.53,1.02,1.16,1.71,1.47,1.95,1.58-.48,3.76-2.67,3.31-.51-.34-1.31-.19-1.86-.47-3.2.24-5.03-.49-5.49-2.18-2.04-.04-1.49-1.03.2-1.87.04-.37.29-.71.36-1.08,1.12-.29,2.19-.73,3.22-1.25,1.99-.1,2.51,3.08,4.54,2.07Z"/>
      <path class="cls-57" d="M28.59,40.91c-.84-.16-1.51.47-2.26.6-1.47.27-2.75,1.2-4.28,1.21-1.58-1.27-1.43-5.3,1.04-4,1.95.42,4.14.57,5.49,2.18Z"/>
      <path class="cls-161" d="M23.1,38.73c-1.38.84-.83,2.61-1.04,4-.68,0-1.38-.52-2.05-.58.41-1.26.51-2.64-.16-3.82.97-.84,2.18-1.32,3.45-1.47l-.2,1.87Z"/>
    </g>
  </g>
</svg>