<?xml version="1.0" encoding="UTF-8"?>
<svg id="Enemy" xmlns="http://www.w3.org/2000/svg" viewBox="0 0 97.25 116.7">
  <defs>
    <style>
      .cls-1 {
        fill: #3d424e;
      }

      .cls-2 {
        fill: #0c0f1b;
      }

      .cls-3 {
        fill: #2e3c53;
      }

      .cls-4 {
        fill: #2e3a54;
      }

      .cls-5 {
        fill: #353c44;
      }

      .cls-6 {
        fill: #0d1a3b;
      }

      .cls-7 {
        fill: #141622;
      }

      .cls-8 {
        fill: #050b1b;
      }

      .cls-9 {
        fill: #242e3a;
      }

      .cls-10 {
        fill: #15274b;
      }

      .cls-11 {
        fill: #203154;
      }

      .cls-12 {
        fill: #3e4452;
      }

      .cls-13 {
        fill: #010418;
      }

      .cls-14 {
        fill: #0b1531;
      }

      .cls-15 {
        fill: #2e3442;
      }

      .cls-16 {
        fill: #0f2048;
      }

      .cls-17 {
        fill: #132a52;
      }

      .cls-18 {
        fill: #b47a68;
      }

      .cls-19 {
        fill: #112252;
      }

      .cls-20 {
        fill: #1e2a3a;
      }

      .cls-21 {
        fill: #1c2739;
      }

      .cls-22 {
        fill: #101d33;
      }

      .cls-23 {
        fill: #2b405e;
      }

      .cls-24 {
        fill: #161f31;
      }

      .cls-25 {
        fill: #676f80;
      }

      .cls-26 {
        fill: #2e3a50;
      }

      .cls-27 {
        fill: #1f2a48;
      }

      .cls-28 {
        fill: #122142;
      }

      .cls-29 {
        fill: #272e42;
      }

      .cls-30 {
        fill: #19263c;
      }

      .cls-31 {
        fill: #28282b;
      }

      .cls-32 {
        fill: #172c50;
      }

      .cls-33 {
        fill: #17243d;
      }

      .cls-34 {
        fill: #223455;
      }

      .cls-35 {
        fill: #1a2d51;
      }

      .cls-36 {
        fill: #111322;
      }

      .cls-37 {
        fill: #0e1936;
      }

      .cls-38 {
        fill: #070a23;
      }

      .cls-39 {
        fill: #12162b;
      }

      .cls-40 {
        fill: #192b4a;
      }

      .cls-41 {
        fill: #e07f55;
      }

      .cls-42 {
        fill: #444757;
      }

      .cls-43 {
        fill: #3a5989;
      }

      .cls-44 {
        fill: #292e3d;
      }

      .cls-45 {
        fill: #30353e;
      }

      .cls-46 {
        fill: #111420;
      }

      .cls-47 {
        fill: #171a23;
      }

      .cls-48 {
        fill: #04040d;
      }

      .cls-49 {
        fill: #39445b;
      }

      .cls-50 {
        fill: #08122d;
      }

      .cls-51 {
        fill: #161a29;
      }

      .cls-52 {
        fill: #302920;
      }

      .cls-53 {
        fill: #24304b;
      }

      .cls-54 {
        fill: #232731;
      }

      .cls-55 {
        fill: #293455;
      }

      .cls-56 {
        fill: #222b42;
      }

      .cls-57 {
        fill: #2e1e1f;
      }

      .cls-58 {
        fill: #23324d;
      }

      .cls-59 {
        fill: #434953;
      }

      .cls-60 {
        fill: #242423;
      }

      .cls-61 {
        fill: #08132a;
      }

      .cls-62 {
        fill: #10141e;
      }

      .cls-63 {
        fill: #070a18;
      }

      .cls-64 {
        fill: #10141d;
      }

      .cls-65 {
        fill: #272c41;
      }

      .cls-66 {
        fill: #3b0707;
      }

      .cls-67 {
        fill: #33414d;
      }

      .cls-68 {
        fill: #141926;
      }

      .cls-69 {
        fill: #35373f;
      }

      .cls-70 {
        fill: #232b3a;
      }

      .cls-71 {
        fill: #a8a6ae;
      }

      .cls-72 {
        fill: #4f5460;
      }

      .cls-73 {
        fill: #0f1b2b;
      }

      .cls-74 {
        fill: #0d1b35;
      }

      .cls-75 {
        fill: #262d4c;
      }

      .cls-76 {
        fill: #221311;
      }

      .cls-77 {
        fill: #3a3a3a;
      }

      .cls-78 {
        fill: #1e1e2b;
      }

      .cls-79 {
        fill: #24272c;
      }

      .cls-80 {
        fill: #090d1d;
      }

      .cls-81 {
        fill: #192133;
      }

      .cls-82 {
        fill: #0c1535;
      }

      .cls-83 {
        fill: #0f1d3a;
      }

      .cls-84 {
        fill: #00010c;
      }

      .cls-85 {
        fill: #2d406b;
      }

      .cls-86 {
        fill: #343b40;
      }

      .cls-87 {
        fill: #121525;
      }

      .cls-88 {
        fill: #071332;
      }

      .cls-89 {
        fill: #32466d;
      }

      .cls-90 {
        fill: #15171f;
      }

      .cls-91 {
        fill: #272d3f;
      }

      .cls-92 {
        fill: #0b1025;
      }

      .cls-93 {
        fill: #313e56;
      }

      .cls-94 {
        fill: #161c2c;
      }

      .cls-95 {
        fill: #757986;
      }

      .cls-96 {
        fill: #252b38;
      }

      .cls-97 {
        fill: #272f47;
      }

      .cls-98 {
        fill: #0f1021;
      }

      .cls-99 {
        fill: #4b5161;
      }

      .cls-100 {
        fill: #13203e;
      }

      .cls-101 {
        fill: #353a4f;
      }

      .cls-102 {
        fill: #171c32;
      }

      .cls-103 {
        fill: #121a2c;
      }

      .cls-104 {
        fill: #252938;
      }

      .cls-105 {
        fill: #29314b;
      }

      .cls-106 {
        fill: #080710;
      }

      .cls-107 {
        fill: #191f32;
      }

      .cls-108 {
        fill: #d58f6c;
      }

      .cls-109 {
        fill: #3f444b;
      }

      .cls-110 {
        fill: #202a3d;
      }

      .cls-111 {
        fill: #11203f;
      }

      .cls-112 {
        fill: #0f101c;
      }

      .cls-113 {
        fill: #1b1b1b;
      }

      .cls-114 {
        fill: #161026;
      }

      .cls-115 {
        fill: #191b21;
      }

      .cls-116 {
        fill: #213c6f;
      }

      .cls-117 {
        fill: #6b7780;
      }

      .cls-118 {
        fill: #0a0f19;
      }

      .cls-119 {
        fill: #1a2b51;
      }

      .cls-120 {
        fill: #3e2215;
      }

      .cls-121 {
        fill: #2a3654;
      }

      .cls-122 {
        fill: #0f1320;
      }

      .cls-123 {
        fill: #0a1221;
      }

      .cls-124 {
        fill: #485a71;
      }

      .cls-125 {
        fill: #070e1f;
      }

      .cls-126 {
        fill: #060a15;
      }

      .cls-127 {
        fill: #c3805e;
      }

      .cls-128 {
        fill: #4d4c4d;
      }

      .cls-129 {
        fill: #2a313d;
      }

      .cls-130 {
        fill: #213c66;
      }

      .cls-131 {
        fill: #23293c;
      }

      .cls-132 {
        fill: #151826;
      }

      .cls-133 {
        fill: #0c0e0b;
      }

      .cls-134 {
        fill: #2d3750;
      }

      .cls-135 {
        fill: #2f2b35;
      }

      .cls-136 {
        fill: #444f67;
      }

      .cls-137 {
        fill: #111628;
      }

      .cls-138 {
        fill: #384661;
      }

      .cls-139 {
        fill: #2a201d;
      }

      .cls-140 {
        fill: #0a1837;
      }

      .cls-141 {
        fill: #434848;
      }

      .cls-142 {
        fill: #1b2342;
      }

      .cls-143 {
        fill: #1c2942;
      }

      .cls-144 {
        fill: #841f24;
      }

      .cls-145 {
        fill: #1c2431;
      }

      .cls-146 {
        fill: #565962;
      }

      .cls-147 {
        fill: #0d1529;
      }

      .cls-148 {
        fill: #814a33;
      }

      .cls-149 {
        fill: #15274d;
      }

      .cls-150 {
        fill: #091a40;
      }

      .cls-151 {
        fill: #313f58;
      }

      .cls-152 {
        fill: #45464e;
      }

      .cls-153 {
        fill: #192638;
      }

      .cls-154 {
        fill: #1d2636;
      }

      .cls-155 {
        fill: #0f1c3d;
      }

      .cls-156 {
        fill: #14171e;
      }

      .cls-157 {
        fill: #0a0d19;
      }

      .cls-158 {
        fill: #3d3d3d;
      }

      .cls-159 {
        fill: #19294a;
      }

      .cls-160 {
        fill: #161e31;
      }

      .cls-161 {
        fill: #181c2d;
      }

      .cls-162 {
        fill: #262d44;
      }

      .cls-163 {
        fill: #0f1732;
      }

      .cls-164 {
        fill: #11131f;
      }

      .cls-165 {
        fill: #a27463;
      }

      .cls-166 {
        fill: #2c2f36;
      }

      .cls-167 {
        fill: #314054;
      }

      .cls-168 {
        fill: #0a0e19;
      }

      .cls-169 {
        fill: #161e2d;
      }

      .cls-170 {
        fill: #31303d;
      }

      .cls-171 {
        fill: #1d2c4d;
      }

      .cls-172 {
        fill: #191c23;
      }

      .cls-173 {
        fill: #172d54;
      }
    </style>
  </defs>
  <g id="HyJungScout_attack">
    <g id="back-leg">
      <path class="cls-87" d="M36.01,61.45c-1.14-1.51-2.14-3.98-3.74-4.89-1.61-.91-6.08-3.41-10.19-3.14-4.1.27-9.79.12-12.62,2.89-2.83,2.78-3.05,4.97-3.19,6.6s1.22,6.18,3.71,7.7c2.49,1.53,7.63,2.76,9.36,3.5,1.73.74,6.75,2.83,9.3,3.2,2.56.37,9.94-1.16,10.22-2.38s.66-5.81-.76-8.72c-1.41-2.92-2.1-4.77-2.1-4.77Z"/>
      <path class="cls-87" d="M44.18,114.34l-.29-2.36c-.07-.62-.15-1.24-.38-1.82-.58-1.47-2.05-2.42-3.56-2.9s-3.11-.56-4.66-.88c-1.01-.21-2-.51-3.01-.67-1.02-.16-2.09-.16-3.04.22-.77.31-1.43.86-1.87,1.56-.64,1.01-.79,2.24-.92,3.43-.02.14-.03.29.02.42.05.13.17.23.28.32,1.25.96,2.76,1.58,4.33,1.74.76.08,1.52.06,2.28.07,1.8.01,3.61.17,5.32.74.96.32,1.92.77,2.93.67l2.58-.53Z"/>
      <path class="cls-28" d="M37.53,80.98c1.28-.63,2.24.76,2.88,4.16l-.69,6.16c-.41.82-.74.76-.99-.14-.12-1.69-.17-3.51-.15-5.46-.26.84-.62.82-1.06,0-.69,2.83-2.55,2.28-3-.36-1.65,2.14-4.24,1.67-6.1.26l-.06-3.26c-2.42-.91-2.08-1.86.06-2.93.64-.19.91-.74.81-1.67-1.13-2.97,3.24-5.09,4.89-2.16.75.74.96,1.78.61,3.13.86,1.68,1.8,2.43,2.79,2.25Z"/>
      <path class="cls-160" d="M40.43,74.16c.39.39.29.99.46,1.44-.51,1.45-.75,3.03-.72,4.75.37.79.61,1.8.72,3.03-.04.31-.21.6-.28.91l-.19.85c-1.52-.97-1.63-2.95-2.88-4.16-3.42.38-2.92-5.08-.43-6.32-.34-1.03.34-2.4,1.41-2.73.75-.53,1.39.21,1.91,2.24Z"/>
      <path class="cls-71" d="M39.72,91.3l-.43,2.97-1.16,7.92c-.41.82-.74.76-.99-.14-.03-2.48.02-5.17.17-8.06-.82-.41-.76-.74.14-.99-2.47-1.12-2.42-1.47.29-1.98.41-.82.74-.76.99.14l.99.14Z"/>
      <path class="cls-68" d="M38.68,63.86c.03.3-.24.71-.14.99-.1.95-.21,1.93-1.28,1.83-1.52,1.14-1.8.51-.84-1.13-2.51-1.67-3.62-2.73-.41-4.1.97.93,1.17,2.05,2.68,2.41Z"/>
      <path class="cls-56" d="M36.01,61.45c.31,1.28-.23,2.82.41,4.1l-1.28,1.83c-1.38,1.88-2.54,2.46-3.47,1.73-.5.75-.75.62-.78-.32-1.69.53-2.08-.07-.98-1.42l-.91-.97c.99-1.4,1.37-3.01,1.14-4.83-1.31-.92-.76-3.11,1.04-2.7,2.03-1.64,3.27,1.09,4.82,2.58Z"/>
      <path class="cls-70" d="M28.51,59.39l1,.91c-1.01,1.86-1.66,3.81-1.96,5.85.85.36.81.69-.08.99.7,2.54-.24,2.7-1.99.74-.28,1.99-1.1,1.83-1.23-.24-1.32-1.2-1.76-2.63.29-2.8-1.14-2.47-1.71-3.7-1.71-3.7l2.09-1.08c.53-.54.96-1.17,1.31-1.84.7.5,1.48.86,2.28,1.18Z"/>
      <path class="cls-35" d="M24.91,60.06l-.39,4.78c-.81-.05-1.64-.25-2.49-.58-.84-.92-1.45-2.01-1.92-3.15.23-.5,1.13-1.18,1.04-1.79,1.23.44,2.5,1.55,3.76.75Z"/>
      <path class="cls-107" d="M21.86,66.05c1.41-1.58,2.04-.29,2.38,1.59.33.13.89.28,1.23.24,2.11.08,2.1,1.16.18,2.17,1.24,1.2.78,1.49-1.38.88-1.41,1.73-3.22.6-3.57-1.35-2.21-.08-2.5-1.11-.66-2.33-1.7-.96-1.39-1.7.56-1.38l1.26.19Z"/>
      <path class="cls-92" d="M24.53,64.84l-.29,2.8c-.9-.34-1.65-.98-2.38-1.59l.17-1.8c-.54-.86.45-1.28,1.2-1.6,1.35-.57.63,1.7,1.29,2.18Z"/>
      <path class="cls-141" d="M41.62,78.31c-.37.97-.85,1.65-1.45,2.04-.11-.85-1.78-1.6-1.45-2.92.21-.82,1.36-1.29,2.17-1.83.31.83.87,1.78.73,2.71Z"/>
      <path class="cls-80" d="M40.43,74.16c-1.68.82-1.22-1.52-1.91-2.24-.63-.36-.56-.68.14-.99-2.58-.7-2.33-1.59.29-1.98-.78-.4-.72-.73.14-.99,1.62,1.63,1.73,4.02,1.33,6.19Z"/>
      <path class="cls-63" d="M39.09,67.97l-.14.99c-2.12,1.96-2.93,1.39-1.83-1.28-.82-.41-.76-.74.14-.99.12-.79.37-1.72,1.28-1.83.34,1.01.55,2.05.55,3.11Z"/>
      <path class="cls-168" d="M40.88,83.39c-1.37-.58-.58-1.99-.72-3.03.42-.65.45-2.1,1.45-2.04l-.74,5.08Z"/>
      <path class="cls-159" d="M35.86,103.87c.97.37,1.85,1.51,2.64,3.42,0,.39-.19.78-.22,1.17-.89,2.67-2.82,2.7-4.03.19-2.28.77-3.6.52-3.95-.77-2.42.24-2.38,0-.83-1.88-1.17-3.35,1.07-5.68,3.39-2.61-1.05-4.67,3.29-3.9,3.01.48Z"/>
      <path class="cls-102" d="M38.13,102.19c-.2,1.4-.16,2.79.41,4.1.11.26-.04.71-.04,1-1.69-.14-2.44-1.87-2.64-3.42-.5-.93-.4-1.59.29-1.98.41-.82.74-.76.99.14l.99.14Z"/>
      <path class="cls-77" d="M41.92,110.82c.54.55.55.87.25,1.17-.78.78-1.8.86-2.51.52l.29-1.98,1.98.29Z"/>
      <path class="cls-87" d="M28.43,85.61l.84,1.13c.82.41.76.74-.14.99l.27,5.09c.83-2.55,2.6-3.01,3.46-.34,3.03.9,4.51,2.94,2.51,5.41-.34,2.61-2.17,2.93-5.47.95l-1.28,1.19c2.1,1.6,2,2.13-.6,2.44.44,1.99.39,2.18-1.43,1.05-3.35-.56-3.63-6.96-.59-8.17-1.33-3.41-1.53-7.97.85-10.92.81-.37,1.22-1.33,1.53-2.09,1-.74,1.31.92,1.87,1.64.66.86-1.51.77-1.81,1.62Z"/>
      <path class="cls-16" d="M33.58,70.17c1.42-.95,2.29-.08,2.62,2.6,1.51-1.33,1.81.53.91,1.88-.07,2.83-1.37,3.62-2.97.94-1.79-.01-3.35,1.46-4.89,2.16-2.17.28-2.93-1.58-1.27-3.12-1.76-.08-1.4-2.31.26-2.51-2.45-2.42-.17-4.94,2.66-3.32l.78.32c.63.12,1.27.47,1.91,1.05Z"/>
      <path class="cls-64" d="M24.27,70.92c.17.91.65,1.78,1.43,2.62.81-.39,1.56-.03,2.26,1.09.36,1.06.69,2.18,1.27,3.12l.69,1.04c.23.35.12.97-.14.91-.61-.14-1.05-.35-1.36-.28-.81-1.39-2.69-1.69-3.79-2.71-2.11-.31-4.19-1.81-5.35-3.47-1.64,1.97-2.31-.98-.67-2.09-.78-1.89.34-2.66,2.08-1.57,1.31-.25,2.67.49,3.57,1.35Z"/>
      <path class="cls-4" d="M37.53,80.98c.43.66-.06.87-.35,1.21-1.05,1.26-4.46-1.48-4.51-3.76-.02-.93.56-2.09,1.46-2.84,1.17,0,1.87-.63,2.97-.94.9,1.87-.48,4.44.43,6.32Z"/>
      <path class="cls-32" d="M37.52,85.7c.92,3.71-1.18,7.74-4.59,4.64-.46.87-.84.79-1.13-.2-1.48-.31-1.37-1.98.29-1.98-.66-.96.15-1.9,2.43-2.82.96-.18,2.04.38,3,.36Z"/>
      <path class="cls-26" d="M37.74,91.01l-.29,1.98c-.76,2.18-3.67.99-4.6-.51-2.07-1.09-2.04-1.81.09-2.14,1.24-.21,2.6-.1,3.31-.75,1.05-.96,1.15-2.86,1.28-3.88.35,0,.71-.08,1.06,0,.42,1.75.23,3.83-.84,5.31Z"/>
      <path class="cls-130" d="M34.53,85.35c-.35,1.26-1.29,2.22-2.43,2.82-.94,1.05-1.88.58-2.82-1.42-.63-.14-1.09-.41-.84-1.13,2.03.52,4.08.12,6.1-.26Z"/>
      <path class="cls-13" d="M38.73,91.16l-.99-.14c.26-1.77.45-3.56.84-5.31,1.58,1.31.18,3.69.15,5.46Z"/>
      <path class="cls-121" d="M38.51,71.92c.03,1.3-.12,2.36-1.41,2.73l-.91-1.88c-1.37-2.81.12-3.92,2.47-1.84-.05.32-.15.67-.14.99Z"/>
      <path class="cls-79" d="M37.45,92.99l-.14.99c.31,1.46.56,3.51-.82,4.14-.2,1.93-.96,1.78-1.13-.23.07-1.15.17-2.39-.67-3.27-.81,1.33-2.14,1.53-3,1.21-.6-.22-2.06-1.28-.86-1.8.97-.42,1.72-.22,2.14-.68.18-.19-.13-.62-.12-.88,1.49-.13,3.23-.3,4.6.51Z"/>
      <path class="cls-106" d="M37.14,102.04l-.99-.14c-2.95-.07-2.49-3.35.34-3.77l.82-4.14c1.86,2.23-.23,5.37-.17,8.06Z"/>
      <path class="cls-113" d="M29.75,111.07c3.32,0,6.59,1.98,9.89,1.45.68.71,1.7,1.48,2.82,1.42.71.1,2.07-.73,1.92,1.14-2.13-.06-3.54-.32-5.03-.59-3.55.04-7.16-.3-10.84-1.04-4.71.84-3.13-5.19,1.23-2.38Z"/>
      <path class="cls-73" d="M36.42,65.55c.21.42.52.79.84,1.13l-.14.99c.4,2.7-.97,3.02-2.34.66-.25-.45-.13-.77.36-.95-.38-.77-1.58-.93-1.96-2.72,1.41-.71,2.08.91,3.24.89Z"/>
      <path class="cls-112" d="M30.07,58.68c.29.2.79.06,1.11.19-.41.57-.5,2.14-1.04,2.7.62,1.85-.48,5.87-2.6,4.57-.58,0-1.29.27-2.32-.56,1.91-1.28,3.04-4.46,3.28-6.19.04-.27.02-.86-.03-1.47-.02-.29.51-.77.93-.07.14.23.36.63.66.84Z"/>
      <path class="cls-50" d="M29.91,67.38c.53.14.75,1.01.98,1.42-1.44.58-2.24,1.87-2.66,3.32-1.05,1.59-1.91.9-2.57-2.08.04-.73-.04-1.45-.18-2.17.68-.08,1.3-.7,1.99-.74,1.2-1.61,2.11-1.79,2.45.24Z"/>
      <path class="cls-117" d="M29.91,67.38c-.76-.2-1.66-.28-2.45-.24l.08-.99c1.67-.96,1.24-3.16,2.6-4.57,2.3,1.29.59,3.88-.24,5.81Z"/>
      <path class="cls-55" d="M35.14,67.39c-.15.29-.16.68-.36.95,1.85,1.88,1.32,2.37-1.2,1.84-.04.4-.29.85-.58.84-.88-.05-1.5-.9-1.33-1.89,1.06-.75,2.22-1.37,3.47-1.73Z"/>
      <path class="cls-29" d="M28.22,72.12c.17.78-.5,1.77-.26,2.51.1,1.01-.8.83-1.32.4-.45-.37-.79-.83-.94-1.49-1-.56-1.67-1.53-1.43-2.62.47-.27.85-.7,1.38-.88.85.71,1.56,1.6,2.57,2.08Z"/>
      <path class="cls-14" d="M38.95,68.96l-.29,1.98c-1.19.03-1.63,1.3-2.47,1.84-1.06.69-3.14.8-3.65-.26.6-.66,1.8-.94,1.66-1.46-.1-.36-.68-.63-.63-.87.24-.66.79-1.27,1.2-1.84l2.34-.66c.43.65,1.11,1.03,1.83,1.28Z"/>
      <path class="cls-91" d="M35.36,97.9l1.13.23-.34,3.77c-.06.63-.37,1.36-.29,1.98l-1.2-2.03c-.18-.31-1.22,1.46-1.81,1.55-1.96.21-3.74-1.55-4.23-3.36-1-1.24-1.39-3.1-.22-4.31,1.68,3.08,4.63,2.58,6.97,2.17Z"/>
      <path class="cls-134" d="M32.85,103.4c-1.54.25-3.17.92-3.39,2.61-2.21.91-2.48-2.12-1.44-3.53-.17-.77.54-1.69.6-2.44,1.55-.59,4.56,1.48,4.23,3.36Z"/>
      <path class="cls-94" d="M29.46,106.01c.35.58.97,1.11.83,1.88,2.07.65,1.49,1.42-.39,2.19-3.18,1.99-4.36,1.55-3.55-1.31-.51-1.66.6-3.63.24-5.24.36-.49.84-.89,1.43-1.05.28,1.22.8,2.46,1.44,3.53Z"/>
      <path class="cls-134" d="M34.24,108.66c-1.13,1.01-2.89,1.08-4.34,1.42l.39-2.19,3.95.77Z"/>
      <path class="cls-105" d="M29.83,89.85c2.16.15,2.01,1.14-.43,2.97-1.42-.99-1.76-4.02-.27-5.09,1.71-.54,2.79,1.55.7,2.12Z"/>
      <path class="cls-100" d="M31.81,90.14c.36.05.78.26,1.13.2l-.09,2.14c-.53-.18-1.34-1.44-2.1-.77-.34.3-.61,1.02-1.36,1.11l.43-2.97c.14-1.94,1.71-1.5,1.98.29Z"/>
      <path class="cls-28" d="M32.09,88.16l-.29,1.98-1.98-.29c.11-.78.18-1.79-.7-2.12l.14-.99c1.04.23,1.96.84,2.82,1.42Z"/>
      <path class="cls-137" d="M25.7,73.54c-.89.41-1.8-.01-2.13-.61-.49-.9.04-1.64.7-2.01.47.44,1.51.44,1.65,1.14.12.58.04,1.08-.22,1.48Z"/>
    </g>
    <g id="front-leg">
      <path class="cls-51" d="M24.83,69.07c.67-1.62.63-5.1,2.33-8.11s7.33-7.58,6.46-9.82c-.87-2.24-5.68-5.3-9.25-4.53s-12.96,3.77-15.34,6.18-5.73,3.91-2.65,10.88c3.08,6.97,6.56,7.23,8.43,7.48,1.87.24,10.02-2.07,10.02-2.07Z"/>
      <path class="cls-133" d="M18.7,113.09c-1.07-1.36-2.21-2.66-3.41-3.9-.66-.67-1.35-1.33-2.21-1.71-.72-.32-1.52-.41-2.3-.48-2.17-.19-4.36-.2-6.54-.22-.23,0-.47,0-.69.08-.17.06-.32.18-.47.29-.26.2-.52.4-.78.59-.55.42-1.13.87-1.42,1.5-.37.8-.21,1.74-.04,2.61.11.56.23,1.16.63,1.57.37.37.9.52,1.41.65,1.53.4,3.06.8,4.6,1.2,1.56.41,3.12.81,4.73.97.52.05,1.04.07,1.55.17.62.12,1.25.36,1.88.28.5-.07.95-.34,1.44-.49.49-.14,1.01-.15,1.51-.25s1.02-.32,1.28-.76.16-1.12-.31-1.31l-.85-.78Z"/>
      <path class="cls-62" d="M8.12,68.89c2.41-.16,3.09,1.04,2.05,3.6l.81-.06c1.03,2.72,1.63,5.59,1.81,8.61,1.22,2.4-2.56,3.52-3.85,2.05-.59,2.07-1.11,2.25-1.56.53-.92,1.7-1.59,1.36-1.14-.56l1.11-2.53c.25-1.68.39-3.48.43-5.4-1.05-2.21-1.18-4.46-.92-6.82.86-1.73,1.53-1.38,1.26.58Z"/>
      <path class="cls-46" d="M10.55,66.99c1.57,1.76-.64,3.62-2.43,1.9l-1.26-.58c.19-1.69-.95-3.56-.62-5.3.28.08.88-.12,1.15-.2,2.32-.19,3.52,2.16,3.15,4.2Z"/>
      <path class="cls-46" d="M7.35,80.52c.09-.94-1.03-2.08-.81-2.97.2-.73.43-2.13,1.24-2.43.9,1.9,2.33,4.8-.43,5.4Z"/>
      <path class="cls-103" d="M8.63,60.1c1.4-1.64,3.64-2.39,4.15-.07,2.71.03,2.92.37.72,2.08.19.87-.07.96-.74.32-1.11,1.94-4,2.22-5.36.37-.03-.68-.63-1.32-.72-1.99l1.96-.71Z"/>
      <path class="cls-111" d="M13.75,59.74c-.02.92-.35,1-.96.29-1.37-.32-2.84-.41-4.15.07.41-.88,1.13-2.23,2.02-2.67,1.18.66,2.75-1.13,3.85-.72,1.63.6-.29,2.33-.76,3.03Z"/>
      <path class="cls-155" d="M17.45,58.53c2.21.13,1.6,1.53-.25,2.27,1.88-.47,2.23,1.24.39,1.91-.95,1.5-3.36.81-4.08-.6l-.72-2.08.96-.29c1.41.53,2.58-.44,3.7-1.22Z"/>
      <path class="cls-122" d="M3.85,103.49c.64,1.59.55,3.29-.27,5.1l2.03,1.32c1.89-2.27,2.24-1.74,1.58,1.05-1.17.73-2.38,1.38-3.64,1.96-2.29.07-3.91-3.16-3.5-5.33l1.19-6.35c2.48-2.12,3.65-.4,2.6,2.26Z"/>
      <path class="cls-128" d="M13.92,112c1.37-.12,2.17.96,1.02,2.02.83.39.78.72-.12.99-2.07.61-5.22.29-6.8-1.09-.68-.19-1.49-.61-2.01-1.02.34-.52,1.05-.7,2.14-.55,1.7-.04,4.18.69,5.76-.35Z"/>
      <path class="cls-133" d="M8.16,112.35c-.66.1-1.39.71-2.14.55-.09-.07-5.48-.3-1.86-1.24,1.35.14,2.68.38,4,.69Z"/>
      <path class="cls-39" d="M4.32,94.71c.27.69,1.34,1.73,3.21,3.13l-2.43,2.82c.77-.28,1.62.26,2.56,1.61,1.91-.32,2.08.43.4,1.46-.67,2.11-4.21,2.56-4.21-.23-.56-1.05-1.43-1.94-2.6-2.26.44-2.36,1.28-4.9,1-7.17.71-3.26,3.42-2.34,2.07.65Z"/>
      <path class="cls-129" d="M5.33,90.61c2.29-1.09,2.81-.12,2.44,2.17,1.82-.19,2.69,1.69,1.1,2.76.23,1.05-.06,1.22-.85.49-1.11,2.27-3.05.16-3.68-1.32-.32-.15-.49-.76-.9-.88s-.83-.04-1.16.24l-.09-.69c-.11-.91.26-1.94.13-2.92.24-.43.54-.85.74-1.31,2.12-1.94,2.88-1.23,2.28,1.45Z"/>
      <path class="cls-145" d="M16.47,71.35c2.83-1.03,3.37.47,1.53,2.82-.2.4-.4.7-.59.7-3.28-.06-.16-1.44,1.05.29.12.18-.3.74-.89,1.41.36,2.13-2.89,3.79-4.78,4.47-3.11-1.21-3.71-5.96-1.81-8.61,1.07-2.75,3.53-3.34,5.49-1.08Z"/>
      <path class="cls-167" d="M13,68.4c1,1.24.05,2.61-2.83,4.08-1.05-.95-1.58-2.29-2.05-3.6.95-.44,1.88-.98,2.43-1.9-1.63-2.21-1.32-2.8,1.42-2.71,2.77.57,3.71,2.61,1.02,4.12Z"/>
      <path class="cls-49" d="M8.94,83.08l2.76,1.28c1.63.53,2.31,1.2.59,2.06,1.7.96,1.24,1.61-.69.99-1.43,3.55-5.66,2.46-4.74-1.66.32-.65.29-1.45.52-2.14l1.56-.53Z"/>
      <path class="cls-119" d="M14.61,68.89c1.92-1.35,3.31-.69,2.12,1.63.59.44.49.71-.26.83-1.91-.23-3.84.05-5.49,1.08-.28.18-.52.32-.81.06.54-1.6,1.68-2.87,2.83-4.08.96-1.58,1.69-1.36,1.61.49Z"/>
      <path class="cls-131" d="M13.45,81.86c2.85-.23,2.94,1.23.6,2.58.33,1.89-1.47,1.3-2.34-.09-.67.2-1.4.67-1.71,1.13-.65.97-1.26.21-1.31-.75-.03-.53.08-1.13.26-1.66,1.28-.44,3-.85,3.85-2.05.89-.35,1.1-.06.66.83Z"/>
      <path class="cls-152" d="M12.76,62.42c1.94.1,1.95.88.08,1.56.03.8-.27.88-.87.3-.41.94-.9,1.83-1.42,2.71-1.81-.7-3.06-2.25-3.15-4.2,1.64-.78,3.68-1.48,5.36-.37Z"/>
      <path class="cls-101" d="M17.58,62.71c.8-.35.87-.09.31.69,2.35,3.02-4.87,4.94-5.05.58l-.08-1.56.74-.32c1.35-.58,2.76.09,4.08.6Z"/>
      <path class="cls-37" d="M23.5,59.54l.08,1.49c.56,2.1.11,2.11-1.79,1.53-.96,1.92-1.82,1.43-1.44-.79-2.05.7-2.32-.27-.46-1.58-1.38-1.2-.91-1.67.86-1.5.93.22,2.23-.44,2.76.84Z"/>
      <path class="cls-19" d="M20.74,58.7c-.25.52-.54,1.02-.86,1.5-.32,1.53-2.07,2.27-2.68.6l.25-2.27c1.1-.76,2.27-.07,3.29.17Z"/>
      <path class="cls-89" d="M19.87,60.2c-.09.57.07,1.15.46,1.58.55,2.67-.24,3.18-2.44,1.63-.08-.24-.26-.45-.31-.69l-.39-1.91,2.68-.6Z"/>
      <path class="cls-72" d="M10.79,106.35c.83.87-.09,2.27-2.74,4.2-.28.06-.61.25-.85.41-.4-.38-.97-1.05-1.58-1.05-1.27.36-1.97-.22-2.13-1.54-.5-4.11,4.99-4.36,7.3-2.02Z"/>
      <path class="cls-54" d="M13.17,106.91c-.93,2-3.07,3.21-5.12,3.64-1.31-2.39,2.09-2.04,2.74-4.2-.17-1.65-.02-2.71,1.72-2.41l.66,2.97Z"/>
      <path class="cls-158" d="M15.81,115.13l-.99-.12.12-.99c1.07.18,2.5.53,3.1-.62.71.46,1.54.83,1.81,2.09-1.81.13-2.86-.27-4.04-.35Z"/>
      <path class="cls-65" d="M8.06,103.72c.06-1.96,1.78-1.86,1.98.11,1.4-.38,1.65.45.75,2.51-1.72.06-3.77-.22-5.98.89-1.18.6.32,2.13.81,2.67-.52,0-1.09.67-2.07.76-.3.03-.85-.13-.44-1.1-1.43-2.19-1.25-4.79.75-6.08,1.39.24,2.8.15,4.21.23Z"/>
      <path class="cls-1" d="M8.01,96.03c3.77.49,3.65,6.08-.25,3.07-.75,2.09-1.64,2.6-2.66,1.56-.31-1.05,1.48-2.2.58-3.23-.64-.73-1.57-.98-2.03-1.74-.28-.46-.18-1.08.67-.98,1.19.54,2.41,1.03,3.68,1.32Z"/>
      <path class="cls-157" d="M10.04,103.84l-1.98-.11-.4-1.46c-.95,0-1.04-.33-.29-.96,2.88-4.89,6.7.85,2.67,2.53Z"/>
      <path class="cls-65" d="M7.76,99.1c1.94.64,1.63,1.67-.39,2.2-.02.3.21.66.29.96-.74.59-1.68,1.38-2.05.11l-.5-1.72c.72-.77,1.66-1.24,2.66-1.56Z"/>
      <path class="cls-47" d="M9.77,95.24c1.01.04,1.93.85,2.77,2.43,1.22.22,1.32,1.28.29,3.18.18,1.04.11,2.12-.33,3.09-.47.87-1.02,1.7-1.72,2.41-.36-.72-.81-1.67-.75-2.51s1.09-1.95.08-2.54c-.87-.51-1.96-.15-2.75,0,.06-.74.26-1.47.39-2.2.8-.16,1.75-.66,1.35-1.59-.22-.52-.65-1.01-1.1-1.48.35-.02.67-.19.85-.49-.05-1.21.26-1.31.91-.3Z"/>
      <path class="cls-17" d="M11.6,87.41c3.23,1.46,1.13,6.63-2.01,3.82,1.01,2.2.34,2.58-1.83,1.55-1.16-.22-1.96-1.13-2.44-2.17,1.01-1.46.77-3.3,1.54-4.86.76,1.93,2.92,1.92,4.74,1.66Z"/>
      <path class="cls-124" d="M9.59,91.23c2.76-.73,4,1.28,1.92,3.32.9,1.93-.44,2.33-1.74.69-.4-.22-.69-.07-.91.3-.46-.88-.84-1.8-1.1-2.76.55-.47,1.08-1.36,1.83-1.55Z"/>
      <path class="cls-51" d="M23.44,68.37c.82-.46,1.28-.22,1.38.71,2.1,2.41,1.75,10.18-2.66,9.37-1.43,2.62-2.21,3.72-3.78.69-2.82.13-2.67-.67-.83-2.57-.09-1.36-1.61-1.66-2.5-2.14.74-1.66,2.19-.21,2.93-.25.43-1.55,1.71-2.94,3.83-4.17-1.84-1.92-.69-2.96,1.61-1.63Z"/>
      <path class="cls-109" d="M21.83,69.99c.22.9.65,2.18.09,2.71-1.01.97-2.76,1.39-3.93,1.46-.25-1.06-.79-2.02-1.53-2.82.03-.29-.08-.69.26-.83.47-2.59,4.17-3.03,5.1-.52Z"/>
      <path class="cls-86" d="M18.4,79.13c1.81,2.41-3.08,4.92-4.95,2.73-.11-.26-.48-.63-.66-.83,1.29-1.81,2.9-3.26,4.78-4.47.06.88.72,1.69.83,2.57Z"/>
      <path class="cls-40" d="M17.9,63.4c.61-.74,1.66-1.12,2.44-1.63.36.44.87.74,1.44.79,2.58-1.04,1.07,3.86.4,4.67-1.31,1.57-5.45,1.71-7.56,1.65-.56-.06-1.12-.2-1.61-.49l-1.02-4.12c.25-.21.54-.32.87-.3,1.09.3,2.09.74,3.4.95.84.13,1.1-.86,1.65-1.53Z"/>
      <path class="cls-173" d="M14.92,87.75c1.19.67,1.53,1.55.73,2.7,1.98,3-1.21,5.78-4.14,4.1-.6-1.12-1.37-2.16-1.92-3.32,1.74-.43,2.03-2.17,2.01-3.82l.69-.99c.81-1.94,3.15-.31,2.63,1.33Z"/>
      <path class="cls-6" d="M14.05,84.45c3.69.54,4.91,5.53.87,3.3-.64-.83-1.54-1.48-2.63-1.33l-.59-2.06c.68-.2,1.68.43,2.34.09Z"/>
      <path class="cls-140" d="M23.57,61.03c.58.57,1.1,1.19,1.58,1.84-.35.66-.51,1.76-1.23,2.3.39,1.47.23,2.53-.48,3.2-.68.38-1.28.91-1.61,1.63-1.71.07-3.43.14-5.1.52-.65-.61-1.35-1.17-2.12-1.63.34-2.92,4.68-.88,6.67-3.1.83-.93.62-2.08.5-3.22-.09-.88,1.13-1.41,1.79-1.53Z"/>
      <path class="cls-172" d="M18.4,79.13c1.3.05,2.63-.03,3.78-.69,3,1.69.49,7.71-2.5,8.77.04.89-.26.96-.88.27l-2.24.3c.81-1.59-.02-2.7-2.51-3.33-.37-.79-.28-1.78-.6-2.58l4.95-2.73Z"/>
      <path class="cls-137" d="M25.41,66.78c.25.81-.55,1.57-.59,2.29-.5-.16-.97-.39-1.38-.71-.27-1.04-.49-2.47.48-3.2-.14.44-.03,1.06.19,1.36s1.03.64,1.3.25Z"/>
      <path class="cls-156" d="M15.13,96.1c.09,1.86-.83,3.62-2.3,4.75-.45-1.01-.61-2.12-.29-3.18-1.11-.52-1.39-1.06-.28-1.7.78-1.61,3.24-2.08,2.87.14Z"/>
      <path class="cls-24" d="M16.85,94.28l-1.72,1.82c-.88-.53-1.92-.44-2.87-.14-1.45.26-1.79-.37-.75-1.42,1.11-.44,2.59-.33,3.55-1.38.59-.64.63-1.78.59-2.72.19-.96.61-.94,1.23-.07l-.03,3.9Z"/>
      <path class="cls-129" d="M11.51,94.55l.75,1.42.28,1.7c-1.43.09-2.35-1.16-2.77-2.43l1.74-.69Z"/>
      <path class="cls-110" d="M18.8,87.48c-.12,1.23-.84,2.29-1.92,2.9-.41-.03-.82,0-1.23.07-.18-.38-1.16-.69-1.31-1.12-.13-.39.51-1.18.57-1.58l1.68-1.09c-1.01-.58-2.07-1.19-2.55-2.21,2.34-1.17,3.47,1.35,4.75,3.03Z"/>
      <path class="cls-22" d="M7.38,83.61c.94.94,1.04,2.26-.52,2.14,1.88,2.44,2.1,4.88-1.54,4.86-.74-.51-1.48-1.04-2.28-1.45.94-2.11,2.29-4.02,3.2-6.1l1.14.56Z"/>
    </g>
    <g id="head">
      <path class="cls-85" d="M33.27,0l1.31.89c2.73.81,2.87,1.52.34,2.89-.19.92-.56,1-1.12.25-.39,2.63-4.03.72-5.35-1-.16.91-.5.94-1.01.15-1.93.28-1.97-.51-.06-1.21l5.87-1.97Z"/>
      <path class="cls-144" d="M39.39,2.1l.2,1.07c.65.7,1.14,1.39.28,1.94-.45,2.79-5.71,1.52-4.94-1.34-.02-.97-.14-1.94-.34-2.89,1.7-.15,3.26.57,4.81,1.22Z"/>
      <path class="cls-127" d="M38.42,9.34l1.14.08c-.26,1.77-.11,3.4.46,4.89l.1.95c-1.18.9-1.04,3.56-2.99,3.42l-.64-.71c1.63,4.94-2.32,4.05-4.76.74-2.35,2.21-4.03.47-2.11-2.15l.85-2.13c5.22.57,6.91-.96,5.08-4.58-1.39-1.61-.88-2.27.96-1.16.41-1.03,2.07-.6,1.91.66Z"/>
      <path class="cls-148" d="M40.61,9.1l.14.99c-.86,1.24-.89,2.77-.74,4.22-1.5-1.06-1.15-3.32-1.6-4.97.09-1.22,1.45-1.12,2.2-.24Z"/>
      <path class="cls-76" d="M34.2,6.82c2.08.82.75,2.99-1.17,2.47.03,2.34-1.97,4.03-4.15,2.52-.77,1.53-1.34,2.43-2.88,1.23-.56-3.32-.1-6.88,1.46-9.87l1.01-.15,2.05,1.65c2.04.21,3.27.92,3.69,2.14Z"/>
      <path class="cls-66" d="M39.87,5.12c.14,1,.46,1.98.61,2.99-1.01.9-3.21.41-4.13-.58-.72,1.74-2.55,1.23-2.14-.71-2.29-1.23-2.42-2.16-.39-2.79.35-.14.76-.13,1.12-.25,1.28,1.39,3.15,2.1,4.94,1.34Z"/>
      <path class="cls-147" d="M33.81,4.02c-.03.91.53,1.89.39,2.79-2.28-.75-5.4-1.07-5.73-3.79,1.8.57,3.48,1.77,5.35,1Z"/>
      <path class="cls-127" d="M28.88,11.82c2.01,1.59,1.94,2.09-.43,3.09-.68-.29-1.54-.48-2.26-.68l-.2-1.18c.69-.87,2.05-.71,2.88-1.23Z"/>
      <path class="cls-41" d="M33.03,9.29c1.19-1.45,2.19-1.26,2.53.55,1.9-.62,2.46.7,2.44,2.25-.01,1.32.28,3.11-1.58,3.63-2.44.69-4.72.46-6.79.82-.29-.46-.63-1.41-1.16-1.64-.13-1.05-.02-2.12.43-3.09,1.31-.82,2.34-2.84,4.15-2.52Z"/>
      <path class="cls-120" d="M36.34,7.52c1.51.19,1.58.52.18,1.16-.49.13-1.44.47-.96,1.16-1.01.33-1.69-.4-2.53-.55.99-.03,1.04-1.64,1.17-2.47l2.14.71Z"/>
      <path class="cls-18" d="M40.47,8.11l.14.99-2.2.24c-.46-.53-1.21-.84-1.91-.66l-.18-1.16c1.28.42,2.83-.02,4.13.58Z"/>
    </g>
    <g id="body">
      <path class="cls-36" d="M34.48,46.64c-.54-1.59-.57-3.3-.09-4.91,1.3-4.36,3.84-12.97,3.84-14.01,0-1.4.32-5.11-1.66-6.32-1.98-1.21-4.6-2.55-6.19-3.7-1.6-1.15-6.96-1.66-9.32-1.53s-6.77.13-8.55,1.21-6.83,2.74-7.02,4.85-3.32,6.83-2.68,9.51.77,6.77.77,8.55,1.34,11.23.89,14.23-2.62,6.96-1.66,7.47,6.06.13,7.66.77,6.19,1.66,8.11,1.91c1.91.26,3.51,1.79,5.17,1.15,1.66-.64,8.94-2.17,9.64-2.62s3.32-3.64,3.38-4.15-.64-5.68-.89-7.6c-.14-1.06-.81-3.16-1.38-4.82Z"/>
      <path class="cls-31" d="M26.64,12.67c1.53-1.25,2.44-1,2.13,1,2.6-1.04,3.09,0,.92,1.79.45,2.46.25,2.41-1.93,1.26-1.37,1.82-2.36,1.42-2.98-1.19l-.16-1.74.04-1.25c.59.04,1.45-.1,1.99.14Z"/>
      <path class="cls-36" d="M6.93,37.46c3.03-.78,5.76.69,2.63,2.98.21.98-.71,1.27-2.75.87l.82.36c2.4,2.51,1.06,8.04-3,6-1.27-1.91-.59-5.57-.03-8.03l-.02-1.88c-1.12-.72-1.11-1.93.44-1.67l.81-.08c2.22-1.49,2.65-.68,1.08,1.45Z"/>
      <path class="cls-151" d="M10.75,26.64c.31.27.6.56.88.86-1.41.64-2.92,1.46-3.23,3.07-.83-.68-1.21-2.51-.69-3.39.61-1.04,2.26-.38,3.03-.53Z"/>
      <path class="cls-169" d="M24.78,15.53c2.39,1.05,1.4,2.57-.14,4.15-.26.92-.59.9-1,0-1.3,1.7-1.99,1.82-2.08.35-.44-.9-.97-1.76-1.74-2.41.49-1.98,3.18-2.07,4.95-2.09Z"/>
      <path class="cls-96" d="M29.69,15.46c.39.85.73,2.12,1.77,2.43.91.76.99,1.31.23,1.64,1.28,1.46.73,2.01-1.06,1.14-.25.87-.58.84-1,0-.71.78-1.36.76-1.96-.05-.43,1.8-1.1,2.25-2.01,1.32,1.5,3.4-3,4.54-3.26.87.2-1.12.55-2.22,1.23-3.14.31-.05.71.11,1,0,.9-2.42,1.94-3.4,3.12-2.95.34-.49,1.33-1.24,1.93-1.26Z"/>
      <path class="cls-125" d="M27.76,16.72c-.84,1.19-1.71,2.41-3.12,2.95.44-1.36.79-2.81.14-4.15,1.08,0,2.07.71,2.98,1.19Z"/>
      <path class="cls-170" d="M4.64,47.67c.83.23.8.57,0,1,1.69.33,2.52.87,1,2,1.5,2.79-.87,3.22-3,2,.97-1.99.67-4.06.75-6.14.09-2.32-.26-5.18,1.23-6.89l.03,8.03Z"/>
      <path class="cls-74" d="M11.56,44.79c2.38.74,3.97,1.72,4.78,2.95.3,2.9-.63,4.89-2.79,5.96l.43,1.13c-1.61.94-2.73,2.22-3.34,3.84.89.63.79.93-.3.9-1.69,1.18-2.79.4-3.29-2.35-1.78-1.22.28-5.56,1.73-3.7,1.02-1.93.63-3.57-1.14-4.91-.27,2.79-1.4,1.8-3,.06-.15-.22,0-.72,0-1,3.14.76,1.05-3.13,3-6,1.42-.46,2.73.58,3.92,3.12Z"/>
      <path class="cls-34" d="M27.67,23.69c2.19-.81,3.54.83,2.08,2.76,1.93.37,1.78,1.32-.13,1.93l-2.98,2.29c.96,1.25.42,1.46-1.05,1.04-.65,1.56-1.37,1.64-1.71-.03-1.26-1.05-2.34-2.39-3.24-4.02.8-1.12,1.06-2.49.97-3.85l.8-1.01c1.13.57,2.48.14,3.26-.87,1-.76,1.66-.18,1.99,1.75Z"/>
      <path class="cls-99" d="M20.64,22.67c-.72.18-.73.94-1.51,2.03-1.01-1.06-.34-2.63-.04-3.88.93.14,1.21,1.1,1.55,1.85Z"/>
      <path class="cls-115" d="M29.64,20.67l1.83,2.15c1.94.17,1.87,3.03.04,3.49.41,1.93-.96,1.76-1.77.14l-2.08-2.76c-1.06-1.14-1.36-2.12.02-3.07.37-.05.6-1.09,1.16-.67.33.24.61.45.8.72Z"/>
      <path class="cls-135" d="M31.47,22.82c-.44.02-2.27.07-2.71-.58-.24-.36,1.03-1.07.88-1.57.33.03.67-.04,1,0,.42.06.95.37,1.18.79.25.45-.35,1-.35,1.36Z"/>
      <path class="cls-38" d="M27.68,20.62l-.02,3.07c-.5-.67-1.79-.73-1.99-1.75.51-.66,1.22-1.21,2.01-1.32Z"/>
      <path class="cls-126" d="M5.64,54.67c1.29.19.89,1.75-.32,2.21,1.13,1.79,1.21,3.38.24,4.78,2.67,0,2.58,1.06.12,2.11-.5.89-.89.85-1.16-.13-.5-.31-1.25-.52-1.72-.91-.59-2.98-.65-6.05-.22-9.06,1.33-1.07,3.35-1.19,3.06,1Z"/>
      <path class="cls-78" d="M5.64,54.67c-.94-.56-1.99-.86-3.06-1,.04-.31-.07-.72.06-1,.65-.32,1.41-.45,2.06-.34,1.09.18,1.08-.85.94-1.66,2.4-1.55,3.11,3.92,0,4Z"/>
      <path class="cls-162" d="M7.64,48.62c2.06.95,3.84,3.8,1.14,4.91-1.4.45-1.91,2.43-1.73,3.7,1.85,4.18-3.79,3.3-1.73-.34.22-.67.02-1.58.32-2.21.4-.52.94-.96,1.06-1.63.2-1.12-.34-1.74-1.06-2.37-.51-.45-.61-1.44-1-2,.98-.13,2.03.14,3-.06Z"/>
      <path class="cls-163" d="M36.27,31.6l1.31,1.34c.06.54-.11,1.12-.02,1.65-.56,2.51-1.29,2.39-2.59.23-.24,2.04-1.1,1.98-1.51-.06-1.95,2.03-2.65,1.65-1.98-1.07-2.87-.73-2.51-3.18-.37-4.72l1.14-.78c1.13,1.4,2.47,2.54,4.02,3.42Z"/>
      <path class="cls-11" d="M27.56,39.58l1.08.09c.97,1.12.19,1.39-1.03,1.63-.15.03,1.63-1.54,2.03.37,1.57,1.26,1.02,2.8-.92,3.15,2.94,2.12,1.57,3.18-4.12,3.16-2.11-2.01-3.43-2.12-3.96-.32-.89.57-3.52,1.36-4.3.07-2.02-.82-3.6-1.02-4.78-2.95.93-1.48,2.96-2.19,6.08-2.12.1-.98,1.09-1.34,2.96-1.09.05-.91.36-.87.91-.04.73-1.87,1.64-1.79,2.13.13-.06-2.5,1.95-3.73,3.92-2.09Z"/>
      <path class="cls-88" d="M7.05,57.22c.56-.9,2.01-.5,2.4.27.24.47-.46,1.85.89,2.08.56,1.23-.34,1.89-2.7,1.97.45,1.54-1.61,1.59-2.08.12-.5-.88-1.28-1.58-1.63-2.67-.27-.84.49-1.72,1.39-2.12-.49,1.73,1.28,2.26,1.73.34Z"/>
      <path class="cls-20" d="M17.53,49.82c1.66-.84,2.71.57,2.42,2.14.91-.04.88.25.05.81-1.05,1.33-2.66,1.9-3.3.14-1.06,1.15-2.09,2.14-3.15.8.6-2.41-.09-5.37,2.79-5.96,2.2.59,2.6,1.29,1.19,2.08Z"/>
      <path class="cls-58" d="M16.64,60.67c2.66.29,2.46,1.24-.11,1.89-1.31,2.4-3.25,2.8-3.89.11.2-1.16-.47-1.72-2.02-1.69l-.28-1.4c.3.01.32-.65.3-.9.13-.61.33-1.04,1-1.08,2.52-1.07,5.55.12,5,3.08Z"/>
      <path class="cls-5" d="M16.7,52.91c2.01,1.18-.55,3.13-2.33,3.51-.33.81-1.23,1.2-2.72,1.18-.24.42-.71.69-1,1.08-.14-1.49,1.15-4.24,2.91-4.97.98-.41,2.13-.54,3.15-.8Z"/>
      <path class="cls-3" d="M8.79,53.53c-.16-1.68-.76-3.27-1.14-4.91,1.96-.4,3.03,1.12,4.46,2.76-.61,1.46-1.95,1.72-3.31,2.15Z"/>
      <path class="cls-21" d="M16.88,39.43c-1.88.46-2.24-1.58-3.24-2.73l.04-2.03c1.84.9,2.7,2.85,3.2,4.76Z"/>
      <path class="cls-69" d="M19.6,32.71l-.74,5.09c-1.99-.1-2.06-2.53-2.47-4.08.93-.69,2.06-.98,3.21-1.01Z"/>
      <path class="cls-136" d="M23.88,31.69c-.14.92-.5.98-1.09.22l-1.27-.29c-1.68.03-2-1.91-.88-2.94v-1c1.19.07,2.24-.22,4.06.18-.95,1.36-1.02,2.58-.82,3.84Z"/>
      <path class="cls-97" d="M21.53,31.62l-1.88.06c-1-.37-1.21-1.24-.59-1.9.52-.55,1.02-.9,1.59-1.1.83.75,1.01,1.87.88,2.94Z"/>
      <path class="cls-27" d="M31.48,33.69c.02,3.99-4.61,2.14-4.87-1.06-1.5.88-1.92.58-1.02-.92.02-.48.55-1.02,1.05-1.04.85-.8,1.84-1.56,2.98-2.29.74-.42.99.16,1.49.58.45,1.53.46,3.14.37,4.72Z"/>
      <path class="cls-114" d="M25.59,31.72c.4.13.66.7,1.02.92,1.04,2.82-.73,3.96-2.88,1.9-.5-.8-.77-1.7-.93-2.63l1.09-.22c.52-.11,1.18-.11,1.71.03Z"/>
      <path class="cls-43" d="M29.62,28.39c-.04.71-.25,1.51-.8,1.97-.63.53-1.47.28-2.18.31-.16-.74.1-1.51.7-1.8.74-.37,1.5-.44,2.28-.48Z"/>
      <path class="cls-90" d="M37.56,34.59c.86,4.91-2.36,3.16-2.05,10.08-.18,1.2-.58,2.07-1.18,2.61-.1,1.47-.75,1.48-.86.07-2.96.75-3.57-1.27-.84-2.68.08-1.88-.26-3.21-1-4-.28.87-.62.86-1,0-1.15.56-2.23.33-2-1l-1.08-.09c-.57-1.57.67-1.46,2.08-1.07.19-2.66,1.16-2.5,1.92.06,1.87-.32,3.01-1.57,3.41-3.75.84-.27,1.7-.51,2.59-.23Z"/>
      <path class="cls-118" d="M34.64,53.67l2,5c-1.39,1.31-3.11.69-5.14-1.85-.59-2.21,1.08-4.87,3.14-6.15-2.16.2-2.26-.93-.3-3.39-.09-1,.2-2.14,1.18-2.61.14,3.04.69,6.28-.87,9Z"/>
      <path class="cls-57" d="M31.56,38.57c1.46-.73,2.38-2.17,1.91-3.81.39.08,1.13.18,1.51.06.9,1,.28,2.01-.13,2.73-.69,1.2-2.31,1.41-3.28,1.02Z"/>
      <path class="cls-150" d="M28.72,44.82c1.22-2.26,1.96-2.82,2.92-.15.28-.87.62-.86,1,0-.27.83.58,1.95.84,2.68,1.9,3.07-5.24,6.05-4.84,1.32-.66.87-2,1.21-4.04,1.02.1.88-.13.88-.64.08-1.32,1.77-1.74,1.39-1.25-1.14-.62.99-1.72.02-2.07-.96-.25-1.14-1.38-1.59-2.24-3.19,5.25-1.53,9.04,5.91,10.32.34Z"/>
      <path class="cls-25" d="M20.64,47.67c.81.21,1.4.35,2.07.96,1.22,2.44-.51,2.83-5.18,1.19-.19-.72-1.22-1.22-1.19-2.08,1.21.49,3.01-.4,4.3-.07Z"/>
      <path class="cls-149" d="M31.64,44.67c-.98,0-1.95,0-2.92.15.39-1.02.7-2.08.92-3.15-1.02-1.14-.47-1.57,1-1h1c1.7.34,1.13,2.96,0,4Z"/>
      <path class="cls-82" d="M30.64,40.67l-1,1c-.84-.11-1.63.32-3.08-.3.62-.91,1.67-.88,2.08-1.7.75.07,1.42.51,2,1Z"/>
      <path class="cls-83" d="M22.81,51.65c2.19-.03,2.54.99,2.14,3,2.5-.22,2.64,0,1.55,2.24,1.77,1.21,1.17,2.15-1.03,2.01,0,2.59-3.79,2.81-3.83-.19-2.83-.14-2.92-2.35-1.26-4.17-2.06-.03-2.22-.87-.38-1.76-.08-.26,0-.55-.05-.81-.01-2.23,1.38-1.71,2.86-.31Z"/>
      <path class="cls-59" d="M22.71,48.63l1.25,1.14c2.97,1.08,1.69,3.37-1.15,1.88-.93.22-1.93.14-2.86.31-1.24-.26-2.11-.96-2.42-2.14.11-1.29,1.42-1.47,2.52-1.15.9.26,1.63,1.05,2.15,2.01.83-.88.36-1.56.51-2.05Z"/>
      <path class="cls-75" d="M20,52.77c.15.51.09,1.34.38,1.76-.39,2.29-1.48,3.02-3.68,2.12.04,2.11-1.87,1.52-2.33-.24.53-1.35,2.06-2.02,2.33-3.51,1.07-.27,2.21-.21,3.3-.14Z"/>
      <path class="cls-143" d="M20.87,60.63c2.93-.78,3.38.37,2.35,2.84,1.79-.21,1.92,1.43.09,1.8.18,1.95-.64,1.94-1.27,0-1.99,1.07-2.3.72-2.4-1.6-1.14.67-3.01.21-3.11-1.11l.11-1.89c-1.03-1.46-.36-1.9,1.08-.84,1.22-2.7,2.58-2.09,3.14.8Z"/>
      <path class="cls-8" d="M14.37,56.42l2.33.24c2.63.06,2.61,1.16,1.03,3.17-.13.5-.6.75-1.08.84-.85-1.97-3.03-2.65-5-3.08.56-.98,1.64-1.29,2.72-1.18Z"/>
      <path class="cls-171" d="M34.64,50.67c-1.62,2.29-2.68,2.67-3.16,1.13-.89,1.94-1.56,2.64-2.92.76-2.14.32-2.53-.81-.65-1.88-1.24-1.12-.86-1.81.74-2,1.24,1.14,1.35,2.35,3,.8.71-.67,2.27-.48,1.84-2.12.23-.57.52-.56.86-.07l.3,3.39Z"/>
      <path class="cls-82" d="M32.64,44.67h-1v-4c1.14,0,2.21-.01,2.05,1.46-.09.82-.75,1.63-1.05,2.54Z"/>
      <path class="cls-9" d="M31.5,56.82c-.41.89-.78.88-1.13-.03-2.75-2.02-1.34-3.45,1.11-4.99,1.1-.23,2.18-.58,3.16-1.13l-3.14,6.15Z"/>
      <path class="cls-153" d="M27.9,50.67c.15.65.36,1.29.65,1.88,1.74,2.48-1.78,4.37-3.61,2.09-1.44-.3-2.35-1.53-2.14-3,.78-.19,1.03-1.2,1.15-1.88l.64-.08c1.44-.57,2.91-.6,3.3.98Z"/>
      <path class="cls-23" d="M28.64,48.67c.16.76.11,1.71-.74,2-1.15-.12-2.28-.43-3.3-.98.56-1.18,2.95-1.51,4.04-1.02Z"/>
      <path class="cls-61" d="M31.48,51.8l-1.11,4.99c-1.06-.51-1.25.11-1.45.93-1.37,1.67-2.37,1.33-2.42-.83-.86-.45-1.36-1.31-1.55-2.24,1.43-.2,2.63-1.06,3.61-2.09.96-.32,1.94-.55,2.92-.76Z"/>
      <path class="cls-5" d="M20.38,54.54c1.27.98.79,2.67,1.26,4.17,2.42,1.49,2.02,2.26-.77,1.92-1-.42-2.05-.75-3.14-.8-.59-.97-.94-2.05-1.03-3.17.75-1.34,2.11-2.3,3.68-2.12Z"/>
      <path class="cls-2" d="M24.61,13.79c1.95.19,2,1,.16,1.74.11,2.64-3.01,2.55-4.95,2.09-1.29-.22-2.44-.88-3.26-1.9,2.34-1.61,5.26-1.88,8.05-1.93Z"/>
    </g>
    <g id="back-arm">
      <path class="cls-48" d="M46.23,25.17c1.39.53,5.7-.72,7.99.29s6.99.62,7.66,1.34,3.93,3.16,2.54,5.31-.72,2.68-2.63,3.64-5.51,1.91-7.95,2.06c-2.44.14-3.4.96-4.26.72s-1.24.34-4.79-1.39-3.73-2.68-4.74-3.59c-1.01-.91-8.81.81-9.34-.34s-3.69-7.18-2.49-8.9,1.58-4.12,3.59-4.93c2.01-.81,4.31-1.2,5.46-1.01s3.83,3.73,4.98,4.45c1.15.72,3.97,2.35,3.97,2.35Z"/>
      <path class="cls-60" d="M91.14,32.33c-3.68.54-7.57.99-11.35.46-1.92.14-2.21-.16-.95-.89,2-.18,3.7-1.09,5.67-1.35,4.44.93,7.61-1.39,12.75-1.43-1.74,1.74-6.17,1.65-6.11,3.2Z"/>
      <path class="cls-165" d="M78.81,31.46c.11.88-.19,1.02-.89.45-4.15,2.25-7.45,2.36-9.88.33-4.28-.96-.2-4.27,2.55-4.65,2.39-1.18,4.52.81,6.89.8.36,1.06.82,2.08,1.34,3.06Z"/>
      <path class="cls-104" d="M68.04,32.24c-.06.62-.37.69-.89.29-3.58,1.94-5.3,1.47-5.14-1.4.02-2.45,1.57-3.61,4.67-3.49.77-.43,2.54-.1,3.32-.89l.59.84c-.41,1.91-3.27,2.42-2.55,4.65Z"/>
      <path class="cls-139" d="M81.5,32.34c-1.78,1.03-3.71,1.98-5.81,1.81l-1.86.89c-1.54-1.25-.17-2.29,4.09-3.14.15-.25.66-.26.89-.45.66-.55,1.59.12,2.24,0l.45.89Z"/>
      <path class="cls-98" d="M67.15,32.53c.18,1.38-2.95,2.44-4.49,2.65.1.85-.16.86-.74.15-1.52.01-1.6-.96-.24-2.93-2.59.14-2.74-1.36-.31-2.31.34-.9.63-1.82.65-2.79,1.55-.48,3.15-.17,4.65.34-.62,1.38-3.57.98-3.91,2.89-.58,3.18,2.81,2.06,4.38,2Z"/>
      <path class="cls-52" d="M73.83,35.05l-7.03-.75c-.2-.56.21-1.25,1.23-2.05,1.84-.56,3.69.9,5.96.41,1.47-.32,2.98-1.84,3.92-.74-1.06,1.85-4.44.85-4.09,3.14Z"/>
      <path class="cls-132" d="M66.81,34.29l-2.74,1.24c-.76,1.02-1.32.97-1.41-.35l4.49-2.65c.25-.15.61-.2.89-.29.3.91-.48,1.71-1.23,2.05Z"/>
      <g>
        <path class="cls-132" d="M37.98,20.63c1.38,2.73,4.63,4.21,7.64,4,1.4-1.76,2.27-.23,2.24,1.8-.2,1.04-.47,2.36-.78,3.96,1.57.95,1.79,2.03-.28,1.96q-3.23-.06,0,0c1.43-1.01,2.23-.39,2.35,1.32,3.41,3.42-3.38,6.91-3.95,2.01-4.17,1.55-6.23,1.29-6.16-.77-1.64,1.63-2.49.71-1.33-1.31-2.24-1.03-6.01-3.69-2.6-4.91-.98-1.1-1.43-2.72-1.34-4.86l-.87-2.2-.26-1.63c.89.24,1.99,1.7,2.8,1.58,1.05-.16,1.21-2.52,2.16-3.22,1.78.67.32,1.43.4,2.29Z"/>
        <g>
          <path class="cls-142" d="M35.09,28.68c-.3,2.53-1.91,2.1-2.26-.28l-.11-3.49c-1.06-.21-1.19-.96-.87-2.13l1.03-1.16c2.5,1.61,2.73,4.33,2.21,7.06Z"/>
          <path class="cls-30" d="M32.83,28.4l2.26.28c-.39,2.04,1.63,3.36,2.6,4.91-2.1.26-3.67-1.27-5.21-2.53-.96,1.25-1.63.98-1.5-.55-.06-.65,0-1.29.09-1.93l1.77-.17Z"/>
          <path class="cls-42" d="M47.85,26.42c.58.61,1.47.57,2.22.72,3.11,1.7.94,5.96-2.08,3.21-.18.89-.49.87-.92.03-.64-.79-1.32-1.73-1.42-2.44-.22-1.52,1.1-1.91,2.2-1.52Z"/>
          <path class="cls-45" d="M46.79,32.34c-1.12,1.1-3.18,1.76-4.1.45.44-.61.85-2.08,1.64-1.78.89.34,1.69.93,2.46,1.33Z"/>
          <path class="cls-15" d="M37.98,29.65c-.26-1.31.06-1.99.96-2.02l2.94-2.1c-.08,1.85-.6,3.26-1.31,4.79-.4.88-2.93.51-2.59-.67Z"/>
          <path class="cls-48" d="M50.32,32.85c-.15.5-.88.57-1.18.81-.77-.47-1.55-.9-2.35-1.32.42-.41.1-1.45.28-1.96l.92-.03c3.03-.78,3.26-.57,2.33,2.49Z"/>
          <path class="cls-123" d="M38.94,27.64c.04.8-.16,1.69-.96,2.02-.53-1.09-1.02-1.87-1.03-2.39,0-.48.88-1.29,1.46-1.44.46-.12.42,1.83.53,1.81Z"/>
        </g>
      </g>
      <path class="cls-132" d="M61.92,35.34c-1.61.04-3.24.1-4.78.59-.19-.26-.35-.53-.49-.82.55-1,1.03-2.05,1.24-3.18.12,1.02.46,1.96,1.68,2.11,1.05.13,1.46-.88,2.11-1.62.24.95.24,1.96.24,2.93Z"/>
    </g>
    <g id="front-arm">
      <path class="cls-154" d="M12.57,28.23c-1.44,1.2-1.92,2.65-1.44,4.34.86-.08.95.14.27.68.24,2.3-.29,4.03-1.59,5.18.11.89-.15.96-.78.26-1.46-.36-2.24-1.76-2.36-4.21-2.14.4-1.14-2,.18-2.89.59-.93,2.05-3.19,1.29-4.39l.98-.18c1.09-1.87,4.72-.9,3.43,1.21Z"/>
      <path class="cls-44" d="M19.47,17.45c2.25-1.88,3.16-.8,2.22,1.98.28,1.77-.56,1.95-2.52.54-1.22-.39-2.36.25-3.44,1.9-.54,4.18-4.39,1.06-1.95-.31l-1.04-1.43c.43-.99.76-2.07,1.51-2.89.42-.46,1.06-.7,1.61-.94,1.72-.83,3.22-.92,3.6,1.15Z"/>
      <path class="cls-7" d="M15.73,21.88c1.15,1.18,1.74,2.86.13,3.64-1.18,2.44-5.29,1.87-5.08-.9.42-1.59,1.31-2.98,1.96-4.48.18.06.99-.38,1.38-.36.43.03.24,1.23.09,2,.41,1.13,1.15.96,1.52.1Z"/>
      <path class="cls-166" d="M15.86,25.52c1.66-1.29,3.26,1.55,1.72,2.75-.44.7-1.4.86-2.89.47-.2.89-.56.93-1.08.14-.65.54-.98.28-1.05-.65-.78-1.13-2.1-1.45-3.43-1.21.14-1.02.82-1.83,1.65-2.41,1.17,1.54,3.36.79,5.08.9Z"/>
      <path class="cls-146" d="M11.4,33.25c.13-2.08,1.53-2.12,1.99-.03,2.01-.11,2.36.74.56,1.81,1.91.06,2.34,1.19.56,2.03.45,3.18-.43,3.38-3.33,2.56l-1.37-1.18c-.29-.98-.85-2.11-.74-3.57.06-.82,1.26-1.43,2.33-1.62Z"/>
      <path class="cls-10" d="M14.7,28.74c1.04-.48,2.57.41,2.37,1.65,4.41-1.09,3.26,3.98-.3,3-1.12.62-2.8,1.07-3.38-.17l-1.99.03c-.13-.21-.22-.43-.27-.68-1.4-2.19.04-3.95,2.49-3.69.26-.19.78,0,1.08-.14Z"/>
      <path class="cls-84" d="M9.03,38.69c.18.53-.2,1.19-.07,1.73-1.45.22-2.12-1.26-2.54-2.2-.65-1.45.18-2.53.26-3.73,1.53.8,1.85,2.67,2.36,4.21Z"/>
      <path class="cls-12" d="M19.17,19.98c-.67,1.03-.92,2.04-.76,3.05,3.06,2.56,3.61,8.08-.83,5.24-.04-1.2-.59-2.28-1.72-2.75.09-1.21-.16-2.43-.13-3.64.02-.87.72-2.27,1.49-2.77.58-.38,1.52.52,1.95.86Z"/>
      <path class="cls-164" d="M21.69,19.43l1.95-.79c1.63,1.08,1.21,2.57-.52,3.33,1.7.92,1.36,1.6-.57,1.16-1.37,1.34-1.86.87-1.2-.91-.75.84-1.39.35-1.92-1.47-.48-.12-.57-.38-.28-.77.86-.09,1.72-.22,2.52-.54Z"/>
      <path class="cls-67" d="M17.58,28.26c2.41,1.06,2,1.76-.52,2.12-1-.18-1.8-.83-2.37-1.65-.18-.65-.41-1.39.05-2.02,1.26,1.24,1.89,1.8,2.84,1.54Z"/>
      <path class="cls-33" d="M17.56,37.43c.92-.17,2.18.48,3.76,1.97,1.2-1.72,2.73-1.23,1.99.83-.01.96-.38,1.13-1.1.48-.14,2.76-3.89,3.05-6.15,2.99-1.19.66-2.79-.5-1.67-1.74.04-1.71-2.14-1.41-3.22-2.34,1.07-.9,2.16-1.79,3.33-2.56.89-1.31,2.41-1.26,3.05.38Z"/>
      <path class="cls-53" d="M14.39,41.96c-.02.61,1.31,1.25,1.67,1.74,2.56-1.45,3.43.08,1.23,2.08l-4.5-2.2c-.7.38-.98,1.87-2.37.59.76-2.07,2.71-1.73,3.98-2.21Z"/>
      <path class="cls-138" d="M15.93,34.69l1.23.75c1.03.8,1.72,1.38.4,1.99-.82-.14-2.39.73-3.05-.38l-.56-2.03c-.18-1.39,1.37-1.63,1.98-.34Z"/>
      <path class="cls-93" d="M16.76,33.39c1.88-.55,2.07.27.31,1.27.16.44-.22.45-1.13.03l-1.98.34-.56-1.81c1.07-.02,2.61-.87,3.38.17Z"/>
      <path class="cls-81" d="M19.45,20.75c.56.94,1.2,1.43,1.92,1.47.3.4.79.65,1.2.91,3.27,1.17,3.07,2.73-.11,3.97.91.09.97.42.22.98.33.93.22,1.98-.33,3.15.91.14.96.48.18,1.02-.25,2.44-.68,2.95-2.91,1.68.47,2.14-.98,1.68-2.54.75l-.31-1.27c.8-.13,1.64-.58,1.37-1.48-.17-.55-.84-.96-1.07-1.53-.13-.69.36-1.47.52-2.12,4.37-.71-1.72-4.1-.12-7.18.28-.54.62-1.59,1.71-1.11.67.29.63.37.28.77Z"/>
      <path class="cls-116" d="M22.21,40.71c1.71-.26,2.33.86.55,1.69-.26.8.41,2.98-1.28,3.23-1.56.23-2.99-.39-4.2.16-.15-.84-.75-1.42-1.23-2.08.7-2.61,3.83-2.53,6.15-2.99Z"/>
      <path class="cls-156" d="M19.61,33.92c1.28-.11,2.37,1.04,3.29,3.45-.21-1.97.68-2.11,1.66-.32,2.05-1.8,3.07,1.89,1.74,3.4-.28.1-.59.15-.88.23-1.06.77-2.12,1-2.11-.46-.51-.23-1.31-1.16-1.99-.83-1.65-.89-3.04-2.21-4.15-3.96-.46-.11-.82-.56-1.23-.75l1.13-.03,2.54-.75Z"/>
      <path class="cls-95" d="M25.42,40.68c-.27,1.23-1.86,1.3-2.66,1.71l-.55-1.69c.38-.07.72-.38,1.1-.48.64.29,1.44.28,2.11.46Z"/>
      <path class="cls-27" d="M24.16,30.76c.1-1.93.87-1.92,1.3.01,1.97-.64,2.63.64,1.48,2.36.89.29.93.66.13,1.13-.09,1.7-.75,3.4-2.52,2.78-.56.04-1.11.23-1.66.32-1.65-1.06-2.5-4.08-.38-5.13l-.18-1.02c-.58-1.87,1-2.3,1.83-.46Z"/>
      <path class="cls-108" d="M34.33,30.62c.69.26,1.41.62,2.17.62,2.44.62,1.14,3.61-1.04,4.13-.61-.1-1.27.38-1.89.36-2.81,1.56-4.77,1.66-5.9.32-1.86.82-1.78-.32-.6-1.79-.12-.35-.04-.77-.13-1.13.9-.73,1.68-1.58,2.4-2.48,1.76-.92,3.57,1.75,4.98-.02Z"/>
      <path class="cls-57" d="M33.58,35.73c-.83.2-1.18,1.06-1.8,1.5-1.22.86-2,2.24-3.37,2.89-1.96-.49-3.52-4.21-.73-4.07,1.95-.44,4-1.22,5.9-.32Z"/>
      <path class="cls-161" d="M27.68,36.05c-.9,1.34.34,2.71.73,4.07-.61.29-1.47.1-2.11.33-.16-1.32-.64-2.61-1.74-3.4.53-1.17,1.43-2.12,2.52-2.78l.6,1.79Z"/>
    </g>
  </g>
</svg>