<?xml version="1.0" encoding="UTF-8"?>
<svg id="Enemy" xmlns="http://www.w3.org/2000/svg" viewBox="0 0 118.79 70.59">
  <defs>
    <style>
      .cls-1 {
        fill: #3d424e;
      }

      .cls-2 {
        fill: #0c0f1b;
      }

      .cls-3 {
        fill: #2e3c53;
      }

      .cls-4 {
        fill: #2e3a54;
      }

      .cls-5 {
        fill: #353c44;
      }

      .cls-6 {
        fill: #0d1a3b;
      }

      .cls-7 {
        fill: #141622;
      }

      .cls-8 {
        fill: #050b1b;
      }

      .cls-9 {
        fill: #242e3a;
      }

      .cls-10 {
        fill: #15274b;
      }

      .cls-11 {
        fill: #203154;
      }

      .cls-12 {
        fill: #3e4452;
      }

      .cls-13 {
        fill: #010418;
      }

      .cls-14 {
        fill: #0b1531;
      }

      .cls-15 {
        fill: #2e3442;
      }

      .cls-16 {
        fill: #0f2048;
      }

      .cls-17 {
        fill: #132a52;
      }

      .cls-18 {
        fill: #b47a68;
      }

      .cls-19 {
        fill: #112252;
      }

      .cls-20 {
        fill: #1e2a3a;
      }

      .cls-21 {
        fill: #1c2739;
      }

      .cls-22 {
        fill: #101d33;
      }

      .cls-23 {
        fill: #2b405e;
      }

      .cls-24 {
        fill: #161f31;
      }

      .cls-25 {
        fill: #676f80;
      }

      .cls-26 {
        fill: #2e3a50;
      }

      .cls-27 {
        fill: #1f2a48;
      }

      .cls-28 {
        fill: #122142;
      }

      .cls-29 {
        fill: #272e42;
      }

      .cls-30 {
        fill: #19263c;
      }

      .cls-31 {
        fill: #28282b;
      }

      .cls-32 {
        fill: #172c50;
      }

      .cls-33 {
        fill: #17243d;
      }

      .cls-34 {
        fill: #223455;
      }

      .cls-35 {
        fill: #1a2d51;
      }

      .cls-36 {
        fill: #111322;
      }

      .cls-37 {
        fill: #0e1936;
      }

      .cls-38 {
        fill: #070a23;
      }

      .cls-39 {
        fill: #12162b;
      }

      .cls-40 {
        fill: #192b4a;
      }

      .cls-41 {
        fill: #e07f55;
      }

      .cls-42 {
        fill: #444757;
      }

      .cls-43 {
        fill: #3a5989;
      }

      .cls-44 {
        fill: #292e3d;
      }

      .cls-45 {
        fill: #30353e;
      }

      .cls-46 {
        fill: #111420;
      }

      .cls-47 {
        fill: #171a23;
      }

      .cls-48 {
        fill: #04040d;
      }

      .cls-49 {
        fill: #39445b;
      }

      .cls-50 {
        fill: #08122d;
      }

      .cls-51 {
        fill: #161a29;
      }

      .cls-52 {
        fill: #302920;
      }

      .cls-53 {
        fill: #24304b;
      }

      .cls-54 {
        fill: #232731;
      }

      .cls-55 {
        fill: #293455;
      }

      .cls-56 {
        fill: #222b42;
      }

      .cls-57 {
        fill: #2e1e1f;
      }

      .cls-58 {
        fill: #23324d;
      }

      .cls-59 {
        fill: #434953;
      }

      .cls-60 {
        fill: #242423;
      }

      .cls-61 {
        fill: #08132a;
      }

      .cls-62 {
        fill: #10141e;
      }

      .cls-63 {
        fill: #070a18;
      }

      .cls-64 {
        fill: #10141d;
      }

      .cls-65 {
        fill: #272c41;
      }

      .cls-66 {
        fill: #3b0707;
      }

      .cls-67 {
        fill: #33414d;
      }

      .cls-68 {
        fill: #141926;
      }

      .cls-69 {
        fill: #35373f;
      }

      .cls-70 {
        fill: #232b3a;
      }

      .cls-71 {
        fill: #a8a6ae;
      }

      .cls-72 {
        fill: #4f5460;
      }

      .cls-73 {
        fill: #0f1b2b;
      }

      .cls-74 {
        fill: #0d1b35;
      }

      .cls-75 {
        fill: #262d4c;
      }

      .cls-76 {
        fill: #221311;
      }

      .cls-77 {
        fill: #3a3a3a;
      }

      .cls-78 {
        fill: #1e1e2b;
      }

      .cls-79 {
        fill: #24272c;
      }

      .cls-80 {
        fill: #090d1d;
      }

      .cls-81 {
        fill: #192133;
      }

      .cls-82 {
        fill: #0c1535;
      }

      .cls-83 {
        fill: #0f1d3a;
      }

      .cls-84 {
        fill: #00010c;
      }

      .cls-85 {
        fill: #2d406b;
      }

      .cls-86 {
        fill: #343b40;
      }

      .cls-87 {
        fill: #121525;
      }

      .cls-88 {
        fill: #071332;
      }

      .cls-89 {
        fill: #32466d;
      }

      .cls-90 {
        fill: #15171f;
      }

      .cls-91 {
        fill: #272d3f;
      }

      .cls-92 {
        fill: #0b1025;
      }

      .cls-93 {
        fill: #313e56;
      }

      .cls-94 {
        fill: #161c2c;
      }

      .cls-95 {
        fill: #757986;
      }

      .cls-96 {
        fill: #252b38;
      }

      .cls-97 {
        fill: #272f47;
      }

      .cls-98 {
        fill: #0f1021;
      }

      .cls-99 {
        fill: #4b5161;
      }

      .cls-100 {
        fill: #13203e;
      }

      .cls-101 {
        fill: #353a4f;
      }

      .cls-102 {
        fill: #171c32;
      }

      .cls-103 {
        fill: #121a2c;
      }

      .cls-104 {
        fill: #252938;
      }

      .cls-105 {
        fill: #29314b;
      }

      .cls-106 {
        fill: #080710;
      }

      .cls-107 {
        fill: #191f32;
      }

      .cls-108 {
        fill: #d58f6c;
      }

      .cls-109 {
        fill: #3f444b;
      }

      .cls-110 {
        fill: #202a3d;
      }

      .cls-111 {
        fill: #11203f;
      }

      .cls-112 {
        fill: #0f101c;
      }

      .cls-113 {
        fill: #1b1b1b;
      }

      .cls-114 {
        fill: #161026;
      }

      .cls-115 {
        fill: #191b21;
      }

      .cls-116 {
        fill: #213c6f;
      }

      .cls-117 {
        fill: #6b7780;
      }

      .cls-118 {
        fill: #0a0f19;
      }

      .cls-119 {
        fill: #1a2b51;
      }

      .cls-120 {
        fill: #3e2215;
      }

      .cls-121 {
        fill: #2a3654;
      }

      .cls-122 {
        fill: #0f1320;
      }

      .cls-123 {
        fill: #0a1221;
      }

      .cls-124 {
        fill: #485a71;
      }

      .cls-125 {
        fill: #070e1f;
      }

      .cls-126 {
        fill: #060a15;
      }

      .cls-127 {
        fill: #c3805e;
      }

      .cls-128 {
        fill: #4d4c4d;
      }

      .cls-129 {
        fill: #2a313d;
      }

      .cls-130 {
        fill: #213c66;
      }

      .cls-131 {
        fill: #23293c;
      }

      .cls-132 {
        fill: #151826;
      }

      .cls-133 {
        fill: #0c0e0b;
      }

      .cls-134 {
        fill: #2d3750;
      }

      .cls-135 {
        fill: #2f2b35;
      }

      .cls-136 {
        fill: #444f67;
      }

      .cls-137 {
        fill: #111628;
      }

      .cls-138 {
        fill: #384661;
      }

      .cls-139 {
        fill: #2a201d;
      }

      .cls-140 {
        fill: #0a1837;
      }

      .cls-141 {
        fill: #434848;
      }

      .cls-142 {
        fill: #1b2342;
      }

      .cls-143 {
        fill: #1c2942;
      }

      .cls-144 {
        fill: #841f24;
      }

      .cls-145 {
        fill: #1c2431;
      }

      .cls-146 {
        fill: #565962;
      }

      .cls-147 {
        fill: #0d1529;
      }

      .cls-148 {
        fill: #814a33;
      }

      .cls-149 {
        fill: #15274d;
      }

      .cls-150 {
        fill: #091a40;
      }

      .cls-151 {
        fill: #313f58;
      }

      .cls-152 {
        fill: #45464e;
      }

      .cls-153 {
        fill: #192638;
      }

      .cls-154 {
        fill: #1d2636;
      }

      .cls-155 {
        fill: #0f1c3d;
      }

      .cls-156 {
        fill: #14171e;
      }

      .cls-157 {
        fill: #0a0d19;
      }

      .cls-158 {
        fill: #3d3d3d;
      }

      .cls-159 {
        fill: #19294a;
      }

      .cls-160 {
        fill: #161e31;
      }

      .cls-161 {
        fill: #181c2d;
      }

      .cls-162 {
        fill: #262d44;
      }

      .cls-163 {
        fill: #0f1732;
      }

      .cls-164 {
        fill: #11131f;
      }

      .cls-165 {
        fill: #a27463;
      }

      .cls-166 {
        fill: #2c2f36;
      }

      .cls-167 {
        fill: #314054;
      }

      .cls-168 {
        fill: #0a0e19;
      }

      .cls-169 {
        fill: #161e2d;
      }

      .cls-170 {
        fill: #31303d;
      }

      .cls-171 {
        fill: #1d2c4d;
      }

      .cls-172 {
        fill: #191c23;
      }

      .cls-173 {
        fill: #172d54;
      }
    </style>
  </defs>
  <g id="HyJungScout">
    <path class="cls-22" d="M87.05,57.06c1.15-.67,2.45-.43,1.94,1.04,2.84-1.2,5.25-.8,4.31,2.71-.68.59-1.38,1.17-1.98,1.84-1.8-1.44-3.31-3.23-5.09-4.63l.83-.97Z"/>
    <g>
      <path class="cls-154" d="M29.62,48.02c.92,1.64,2.25,2.37,4.01,2.21.07-.86.31-.91.71-.15,2.31.18,3.91,1.02,4.81,2.51.89.05.91.33.11.81-.62,1.37-2.14,1.88-4.57,1.55,0,2.18-2.18.76-2.81-.71-.81-.75-2.76-2.6-4.08-2.07v-1c-1.63-1.41-.02-4.8,1.82-3.16Z"/>
      <path class="cls-85" d="M1.74,24.04l1.02-1.21c1.1-2.63,1.82-2.68,2.91-.02.89.29.93.67.12,1.14,2.57.67.27,4.08-1.58,5.2.88.26.88.6.04,1.02.07,1.95-.72,1.9-1.21-.07l-1.31-6.05Z"/>
      <path class="cls-44" d="M20.28,39.27c-1.44-2.55-.21-3.25,2.35-1.82,1.79.05,1.81.91.07,2.58-.6,1.12-.19,2.37,1.25,3.73,4.02,1.29.24,4.51-.66,1.86l-1.6.76c-.9-.61-1.9-1.12-2.57-2.02-.37-.5-.5-1.17-.63-1.76-.51-1.84-.32-3.33,1.79-3.33Z"/>
      <path class="cls-7" d="M23.95,43.75c1.37-.92,3.13-1.19,3.6.54,2.18,1.6.87,5.54-1.81,4.83-1.48-.7-2.7-1.83-4.05-2.74.1-.16-.19-1.05-.1-1.43.1-.42,1.25-.01,1.98.28,1.19-.19,1.15-.95.38-1.47Z"/>
      <path class="cls-144" d="M4.5,18.19l1.09-.08c.77-.57,1.51-.99,1.96-.06,2.73.75.88,5.84-1.87,4.76-.97-.08-1.94-.07-2.91.02.04-1.71.92-3.18,1.73-4.64Z"/>
      <path class="cls-166" d="M27.55,44.29c-.97-1.87,2.12-2.92,3.02-1.19.61.56.59,1.54-.06,2.93.84.36.81.72-.05,1.09.41.74.09,1.02-.83.91-1.25.56-1.81,1.8-1.81,3.16-.98-.33-1.65-1.14-2.07-2.06,1.73-.87,1.39-3.16,1.81-4.83Z"/>
      <path class="cls-60" d="M3.96,0c1.81.24,3.67.6,5.07,1.82.88.25.88.59.03,1-.93-.23-2.05.26-3,.1-1.51-1.72-3.85-.25-6.07-1.23C1.47.47,3.34,1.43,3.96,0Z"/>
      <path class="cls-2" d="M16.29,34.62c.12-1.96.93-2.04,1.73-.22,2.63-.2,2.65,2.92,2.26,4.88-.18,1.3-.8,2.47-1.79,3.33-1.69-2.29-2.06-5.19-2.21-7.98Z"/>
      <path class="cls-31" d="M15.11,32.63c-1.3-1.48-1.09-2.4.92-2.17-1.13-2.56-.1-3.09,1.76-.98,2.44-.54,2.4-.34,1.32,1.89,1.86,1.3,1.5,2.31-1.09,3.02l-1.73.22h-1.25c.02-.59-.15-1.44.07-1.99Z"/>
      <path class="cls-165" d="M11.1,3.75c.27-.85.6-.85,1-.03,4.71-.3,7.75.98,9.12,3.84,3.49,2.66-1.61,3.96-4.26,3.15-2.66.07-3.76-2.62-5.92-3.61.12-1.11.13-2.23.07-3.34Z"/>
      <path class="cls-127" d="M11.59,19.95l.2-1.12c1.73.46,3.37.48,4.91.08h.95c.77,1.27,3.42,1.42,3.07,3.35l-.78.56c5.08-1.08,3.77,2.75.21,4.81,1.94,2.58.03,4.06-2.37,1.86l-2.02-1.08c1.13-5.12-.2-6.97-3.99-5.55-1.75,1.2-2.35.63-1.05-1.08-.98-.52-.37-2.13.86-1.82Z"/>
      <path class="cls-104" d="M21.21,7.55c.32-.54.62-.48.93.11,4.07-.26,5.42.88,4.08,3.42-1.04,2.21-2.94,2.62-5.7,1.22-.88.07-2.35-.97-3.38-.58l-.18-1.01c1.17-1.57,3.98-.83,4.26-3.15Z"/>
      <path class="cls-148" d="M11.59,17.74l1-.03c1.14.99,2.66,1.19,4.11,1.2-1.21,1.38-3.42.78-5.11,1.05-1.2-.23-.95-1.56,0-2.21Z"/>
      <path class="cls-36" d="M40.56,51.46c-.88-3,.49-5.78,2.89-2.73.98-.24,1.3.66.97,2.71l.33-.84c2.43-2.48,8-1.34,6.1,2.79-1.87,1.33-5.54.79-8.03.31l-1.88.09c-.69,1.15-1.89,1.17-1.68-.39l-.11-.81c-1.56-2.16-.77-2.63,1.41-1.13Z"/>
      <path class="cls-146" d="M34.35,50.08c-2.02-.5-1.8-1.9.33-1.96.26-2,1.16-2.18,1.88-.23.4-1.86,1.59-2.08,2.09-.18,3.21.14,3.24,1.03,1.91,3.75l-1.41,1.13c-1.02.1-2.23.45-3.64.08-.8-.21-1.18-1.5-1.16-2.59Z"/>
      <path class="cls-10" d="M30.51,46.02c-.28-1.11.87-2.45,2.05-2.03-.27-4.53,4.51-2.48,2.9.84.4,1.22.54,2.95-.78,3.29l-.33,1.96c-.23.09-.47.14-.71.15-2.41.98-3.87-.76-3.18-3.12-.14-.29.13-.77.05-1.09Z"/>
      <path class="cls-84" d="M39.26,53.4c.55-.08,1.13.41,1.68.39-.04,1.47-1.63,1.86-2.63,2.1-1.54.38-2.45-.64-3.62-.93,1.06-1.36,2.96-1.33,4.57-1.55Z"/>
      <path class="cls-151" d="M29.62,48.02c.26-.32.54-.62.83-.91.69,1.39,1.56,2.86,3.18,3.12-.65.85-2.46,1.29-3.37.81-1.06-.57-.45-2.24-.64-3.01Z"/>
      <path class="cls-76" d="M8.62,23.87c1.05-1.98,3.05-.41,2.33,1.43,2.33.23,3.79,2.4,2.05,4.4,1.44.93,2.27,1.59.91,3-3.37.19-6.85-.66-9.66-2.53l-.04-1.02,1.86-1.85c.43-2.01,1.28-3.15,2.53-3.43Z"/>
      <path class="cls-66" d="M7.55,18.05c1.01-.03,2.02-.24,3.04-.27.78,1.1.05,3.23-1.03,4.05,1.65.91.95,2.67-.94,2.05-1.47,2.14-2.41,2.16-2.82.08-.1-.36-.04-.77-.12-1.14,1.52-1.12,2.43-2.9,1.87-4.76Z"/>
      <path class="cls-147" d="M5.8,23.95c.91.13,1.93-.32,2.82-.08-1,2.18-1.65,5.25-4.39,5.28.76-1.73,2.14-3.27,1.58-5.2Z"/>
      <path class="cls-169" d="M18.03,34.39c.97-2.42,2.52-1.49,4.15,0,.92.23.92.56.03,1,1.75,1.24,1.89,1.93.42,2.06-.88.47-1.73,1.03-2.35,1.82-2-.42-2.18-3.1-2.26-4.88Z"/>
      <path class="cls-12" d="M22.71,40.02c.89.84,1.84,1.28,2.86,1.3,3.07-2.55,8.6-2.07,5,1.77-1.19-.18-2.35.17-3.02,1.19-1.17-.31-2.42-.29-3.6-.54-.85-.18-2.1-1.12-2.45-1.97-.27-.64.79-1.4,1.2-1.76Z"/>
      <path class="cls-164" d="M22.63,37.45l-.42-2.06c1.36-1.41,2.74-.72,3.18,1.12,1.22-1.5,1.82-1.04,1.04.77,1.07,1.59.52,1.99-1.11,1.01.69.89.09,1.43-1.79,1.62-.21.45-.48.49-.81.13.06-.86.1-1.73-.07-2.58Z"/>
      <path class="cls-67" d="M30.57,43.1c1.48-2.17,2.1-1.64,1.99.9-.36.95-1.14,1.62-2.05,2.03-.67.06-1.44.15-1.97-.42,1.45-1.02,2.12-1.52,2.03-2.51Z"/>
      <path class="cls-139" d="M9.03,1.82c2.05-.19,4.2-.24,6.03.79l2.06-.03c.87,1.78-.8,2.16-5.03,1.14-.24.17-.71-.04-1,.03-.83.22-1.39-.77-2.03-.93l-.03-1Z"/>
      <path class="cls-127" d="M13.01,29.7c1.81-1.82,2.29-1.7,3.03.76-.37.65-.65,1.48-.92,2.17l-1.19.07c-.79-.79-.48-2.11-.91-3Z"/>
      <path class="cls-41" d="M10.95,25.3c-1.32-1.34-1.02-2.32.82-2.45-.41-1.96.97-2.37,2.5-2.18,1.31.16,3.12.06,3.44,1.97.42,2.5-.06,4.74.07,6.84-.49.24-1.47.47-1.76.98-1.06.01-2.11-.22-3.03-.76-.68-1.39-2.57-2.63-2.05-4.4Z"/>
      <path class="cls-96" d="M17.79,29.48c.84-.42,2.1-.8,2.37-1.86.73-.94,1.27-1.03,1.63-.29,1.41-1.33,1.98-.8,1.18,1.01.87.22.86.55.03,1,.8.68.81,1.33.02,1.96,1.82.36,2.28,1.02,1.39,1.96,3.34-1.62,4.64,2.84.98,3.22-1.12-.16-2.23-.47-3.18-1.12-.06-.31.09-.71-.03-1-2.45-.82-3.47-1.82-3.06-3.01-.5-.33-1.29-1.28-1.32-1.89Z"/>
      <path class="cls-125" d="M19.11,31.37c1.22.79,2.47,1.62,3.06,3.01-1.37-.39-2.84-.69-4.15,0-.05-1.08.63-2.1,1.09-3.02Z"/>
      <path class="cls-170" d="M50.85,53.39c.2-.84.54-.82,1-.03.27-1.7.78-2.55,1.96-1.07,2.74-1.6,3.24.75,2.1,2.93-2.02-.9-4.08-.52-6.16-.53-2.32-.01-5.16.44-6.93-.98l8.03-.31Z"/>
      <path class="cls-98" d="M22.14,7.66c.41-1.33,3.7-.98,5.19-.53.26-.81.51-.72.73.17,1.39.62,1.05,1.54-1.01,2.76,2.41.95,1.92,2.38-.69,2.23-.69.68-1.34,1.39-1.76,2.26-1.61-.21-2.93-1.17-4.08-2.26,1.14-.99,3.65.6,4.76-.99,1.85-2.64-1.69-3.05-3.14-3.65Z"/>
      <path class="cls-52" d="M17.12,2.58l6.07,3.62c-.05.6-.71,1.05-1.98,1.35-1.91-.26-2.98-2.36-5.24-2.87-1.47-.33-3.47.42-3.87-.97,1.74-1.24,4.38,1.09,5.03-1.14Z"/>
      <path class="cls-120" d="M9.56,21.82c.36-1.48.69-1.52,1.17-.05.07.5.31,1.48,1.05,1.08.22,1.04-.58,1.63-.82,2.45.08-.98-1.52-1.21-2.33-1.43l.94-2.05Z"/>
      <path class="cls-18" d="M10.59,17.78l1-.03v2.21c-.58.4-.96,1.11-.86,1.82l-1.17.05c.56-1.23.29-2.81,1.03-4.05Z"/>
      <path class="cls-132" d="M23.19,6.21l3,.02c1.12-.61,1.61-.33,1.14.91l-5.19.53c-.29.03-.64-.07-.93-.11.11-.95,1.15-1.35,1.98-1.35Z"/>
      <path class="cls-74" d="M47.73,46.58c.65-2.4,1.58-4.03,2.79-4.88,2.89-.4,4.91.46,6.05,2.58l1.11-.47c1,1.58,2.31,2.65,3.95,3.2.6-.92.91-.83.91.27,1.24,1.65.49,2.77-2.23,3.37-1.16,1.82-5.56-.08-3.75-1.6-1.97-.95-3.59-.51-4.87,1.31,2.8.18,1.85,1.34.16,3-.21.16-.72.02-1,.03.65-3.16-3.16-.94-6.1-2.79-.51-1.41.48-2.75,2.98-4.03Z"/>
      <path class="cls-33" d="M39.58,44.78c0-.94.87-2.05,2.62-3.33-1.47-1.49-.71-2.91,1.18-1.8.95.19,1.04.58.27,1.17,2.69.64,2.28,4.38,1.82,6.59.43,1.29-1,2.65-2.01,1.32-1.67-.36-1.78,1.85-2.89,2.73-.69-1.22-1.37-2.45-1.91-3.75-1.12-1.11-.8-2.59.93-2.93Z"/>
      <path class="cls-53" d="M43.45,48.73c.6.13,1.47-1.06,2.01-1.32-.96-2.78.7-3.36,2.27-.83l-2.98,4.03c.25.76,1.66,1.3.15,2.44-1.9-1.13-1.21-2.98-1.45-4.32Z"/>
      <path class="cls-138" d="M36.58,45.89l.96-1.07c.97-.87,1.68-1.44,2.03-.03-.29.79.28,2.48-.93,2.93l-2.09.18c-1.4-.08-1.35-1.64.03-2.01Z"/>
      <path class="cls-93" d="M35.46,44.84c-.2-1.95.64-1.98,1.31-.07.47-.07.4.3-.18,1.12l-.03,2.01-1.88.23c.18-1.05-.38-2.72.78-3.29Z"/>
      <path class="cls-81" d="M23.52,39.89c1.02-.38,1.62-.92,1.79-1.62.45-.22.79-.65,1.11-1.01,1.75-3,3.25-2.52,3.88.84.25-.88.59-.88,1-.03.97-.15,1.98.14,3.03.89.3-.87.65-.86,1.04,0,2.35.69,2.77,1.21,1.12,3.17,2.19-.07,1.47,1.27.27,2.63l-1.31.07c.02-.81-.27-1.72-1.2-1.62-.57.06-1.1.65-1.7.78-.7,0-1.38-.63-1.99-.9.09-4.43-4.34.95-7.08-1.19-.48-.37-1.45-.9-.78-1.88.41-.6.48-.55.81-.13Z"/>
      <path class="cls-34" d="M26.09,31.22c-.89-2.17.71-3.57,2.69-2.17.3-1.94,1.25-1.82,1.93.06l2.39,2.89c1.21-1,1.44-.47,1.08,1.01,1.58.6,1.69,1.31.03,1.71-1,1.3-2.3,2.42-3.9,3.38-1.14-.77-2.53-.97-3.88-.84l-1.04-.77c.53-1.14.05-2.48-.98-3.22-.8-.97-.24-1.66,1.68-2.05Z"/>
      <path class="cls-99" d="M25.31,38.28c.21.71.96.7,2.08,1.44-1.02,1.04-2.61.43-3.87.18.11-.94,1.05-1.25,1.79-1.62Z"/>
      <path class="cls-115" d="M23,29.35l2.08-1.91c.1-1.95,2.96-1.98,3.49-.16,1.92-.48,1.79.9.2,1.77l-2.69,2.17c-1.11,1.1-2.07,1.43-3.07.09-.06-.37-1.11-.56-.71-1.13.23-.33.43-.63.7-.82Z"/>
      <path class="cls-135" d="M25.08,27.45c.04.44.15,2.27-.49,2.73-.35.26-1.11-.99-1.6-.83.01-.33-.07-.67-.03-1,.04-.42.34-.97.74-1.21.44-.26,1.01.32,1.38.3Z"/>
      <path class="cls-38" d="M23.02,31.31l3.07-.09c-.65.53-.66,1.81-1.68,2.05-.68-.48-1.26-1.18-1.39-1.96Z"/>
      <path class="cls-126" d="M57.81,52.15c.14-1.29,1.72-.95,2.22.24,1.75-1.2,3.34-1.33,4.77-.41-.09-2.67.96-2.62,2.11-.2.91.47.88.86-.09,1.17-.3.51-.47,1.27-.85,1.76-2.96.7-6.02.86-9.05.53-1.11-1.29-1.31-3.31.89-3.1Z"/>
      <path class="cls-78" d="M57.81,52.15c-.52.95-.79,2.02-.89,3.1-.31-.03-.72.1-1-.03-.34-.64-.5-1.39-.42-2.05.14-1.09-.89-1.05-1.69-.88-1.63-2.34,3.81-3.25,4-.14Z"/>
      <path class="cls-162" d="M51.69,50.36c.88-2.1,3.66-3.97,4.87-1.31.49,1.39,2.5,1.83,3.75,1.6,4.11-2,3.43,3.67-.28,1.74-.68-.2-1.58.03-2.22-.24-.54-.39-.99-.91-1.66-1-1.13-.16-1.72.4-2.34,1.14-.44.53-1.42.66-1.96,1.07-.16-.98.07-2.03-.16-3Z"/>
      <path class="cls-163" d="M33.69,22.35l1.29-1.35c.53-.08,1.12.07,1.65-.04,2.53.47,2.43,1.21.32,2.58,2.04.17,2.02,1.03,0,1.51,2.09,1.88,1.75,2.59-1,2.02-.63,2.89-3.09,2.62-4.71.54l-.82-1.11c1.36-1.18,2.46-2.56,3.27-4.14Z"/>
      <g>
        <path class="cls-132" d="M20.72,22.26c2.71-1.42,4.14-4.69,3.88-7.7-1.78-1.37-.27-2.26,1.76-2.26,1.04.19,2.36.43,3.97.72.93-1.59,2-1.82,1.96.25q0,3.23,0,0c-1.03-1.41-.42-2.22,1.28-2.37,3.37-3.47,6.96,3.27,2.08,3.92,1.61,4.15,1.39,6.21-.68,6.17,1.65,1.61.75,2.48-1.29,1.35-.99,2.26-3.6,6.06-4.87,2.68-1.08,1-2.7,1.47-4.84,1.41l-2.19.91-1.63.29c.23-.89,1.67-2.02,1.54-2.82-.17-1.05-2.53-1.17-3.25-2.11.64-1.79,1.42-.35,2.28-.44Z"/>
        <g>
          <path class="cls-142" d="M28.82,25.02c2.53.27,2.13,1.88-.24,2.26l-3.49.16c-.19,1.07-.94,1.21-2.12.91l-1.18-1.01c1.57-2.53,4.29-2.8,7.03-2.32Z"/>
          <path class="cls-30" d="M28.57,27.28l.24-2.26c2.04.36,3.34-1.68,4.87-2.68.29,2.1-1.22,3.69-2.45,5.25,1.26.94,1,1.62-.53,1.51-.64.07-1.29.03-1.93-.06l-.2-1.77Z"/>
          <path class="cls-42" d="M26.36,12.29c.6-.59.55-1.48.69-2.23,1.66-3.14,5.95-1.03,3.24,2.03.89.16.88.48.04.92-.78.65-1.71,1.34-2.42,1.46-1.52.24-1.92-1.07-1.55-2.18Z"/>
          <path class="cls-45" d="M32.3,13.26c1.11,1.1,1.81,3.15.51,4.09-.62-.43-2.09-.82-1.8-1.61.33-.9.9-1.7,1.29-2.48Z"/>
          <path class="cls-15" d="M29.75,22.11c-1.31.28-1.99-.03-2.03-.93l-2.15-2.91c1.85.05,3.26.55,4.81,1.23.88.39.55,2.92-.63,2.6Z"/>
          <path class="cls-48" d="M32.75,9.73c.51.15.58.87.83,1.17-.45.77-.88,1.57-1.28,2.37-.42-.41-1.45-.08-1.96-.25l-.04-.92c-.83-3.02-.62-3.25,2.46-2.37Z"/>
          <path class="cls-123" d="M27.72,21.18c.8-.05,1.69.13,2.03.93-1.08.54-1.85,1.05-2.38,1.07-.48.02-1.3-.86-1.46-1.44-.13-.46,1.82-.45,1.8-.56Z"/>
        </g>
      </g>
      <path class="cls-132" d="M28.06,7.3c1.48.64,2.98,1.27,4.59,1.47.06.31.09.63.1.95-.92.68-1.79,1.43-2.46,2.37.32-.98.4-1.97-.64-2.62-.9-.56-1.7.19-2.6.59.18-.96.6-1.88,1.01-2.76Z"/>
      <path class="cls-11" d="M41.96,30.77l.06-1.08c1.08-1.01,1.38-.24,1.67.98.04.15-1.6-1.58.3-2.04,1.21-1.61,2.76-1.12,3.18.81,2.02-3.01,3.12-1.68,3.31,4.01-1.93,2.18-1.99,3.5-.18,3.97.6.87,1.48,3.47.22,4.3-.75,2.04-.89,3.64-2.79,4.88-1.51-.88-2.29-2.88-2.33-6-.98-.06-1.38-1.04-1.2-2.92-.91-.01-.88-.33-.07-.9-1.9-.66-1.85-1.58.06-2.13-2.5.14-3.79-1.82-2.23-3.85Z"/>
      <path class="cls-88" d="M60.31,50.65c-.92-.53-.57-1.99.18-2.41.46-.25,1.86.4,2.05-.96,1.21-.6,1.9.28,2.07,2.63,1.53-.51,1.64,1.55.19,2.07-.86.53-1.54,1.34-2.61,1.72-.83.3-1.74-.43-2.16-1.32,1.75.43,2.21-1.35.28-1.74Z"/>
      <path class="cls-20" d="M52.55,40.44c-.9-1.63.48-2.73,2.05-2.49-.07-.91.21-.89.81-.08,1.36,1.01,1.99,2.59.25,3.29,1.19,1.02,2.21,2.01.91,3.12-2.43-.51-5.37.28-6.05-2.58.51-2.22,1.19-2.64,2.04-1.26Z"/>
      <path class="cls-58" d="M63.43,40.95c.2-2.67,1.15-2.5,1.9.04,2.45,1.23,2.92,3.15.24,3.89-1.16-.16-1.71.53-1.62,2.08l-1.39.33c0-.3-.66-.3-.91-.27-.62-.11-1.06-.29-1.11-.96-1.16-2.48-.07-5.55,2.9-5.1Z"/>
      <path class="cls-5" d="M55.67,41.16c1.11-2.05,3.15.44,3.59,2.21.82.3,1.25,1.19,1.27,2.68.43.22.72.69,1.11.96-1.49.2-4.27-1.01-5.06-2.73-.44-.97-.62-2.11-.91-3.12Z"/>
      <path class="cls-3" d="M56.56,49.05c-1.67.22-3.24.87-4.87,1.31-.47-1.94,1.01-3.07,2.6-4.55,1.48.56,1.79,1.89,2.27,3.24Z"/>
      <path class="cls-116" d="M43.64,40.81c.05-1.73,1.27-2.13,1.76-.24.74.4,3,.14,2.94,1.84-.06,1.58-.92,2.87-.61,4.16-.85,0-1.53.48-2.27.83-2.43-1.17-1.79-4.22-1.82-6.59Z"/>
      <path class="cls-156" d="M36.49,42.14c.13-1.27,1.46-2.14,3.99-2.61-1.97-.15-1.95-1.05-.01-1.69-1.4-2.34,2.41-2.68,3.66-1.09.05.3.04.6.07.9.56,1.18.59,2.27-.84,1.99-.32.46-1.38,1.08-1.18,1.8-1.18,1.46-2.73,2.58-4.65,3.36-.19.43-.69.7-.96,1.07l.18-1.12-.27-2.63Z"/>
      <path class="cls-21" d="M42.19,41.45c.53,1.86-1.5,2.29-2.62,3.33l-2.03.03c.83-1.87,2.75-2.8,4.65-3.36Z"/>
      <path class="cls-95" d="M44.21,37.65c1.16.49.94,2.07,1.2,2.92l-1.76.24c0-.38-.25-.78-.27-1.17.4-.58.53-1.36.84-1.99Z"/>
      <path class="cls-27" d="M34.22,37.08c-1.88-.46-1.72-1.21.25-1.28-.27-2.05,1.11-2.46,2.59-1.03.44-.82.82-.79,1.14.08,1.65.4,3.2,1.36,2.28,2.99-.06.56.02,1.13.01,1.69-1.35,1.43-4.47,1.72-5.11-.56h-1.04c-1.94.22-2.08-1.41-.12-1.89Z"/>
      <path class="cls-69" d="M35.38,38.97l5.11.56c-.03,1.99-2.46,2.14-3.99,2.61-.72-.9-1.05-2.03-1.12-3.17Z"/>
      <path class="cls-136" d="M34.21,34.72c.92.11,1,.47.26,1.08l-.25,1.28c.09,1.68-1.83,2.06-2.91.99l-1,.03c.03-1.19-.3-2.23.03-4.06,1.39.9,2.61.93,3.87.68Z"/>
      <path class="cls-97" d="M34.22,37.08l.12,1.88c-.33,1.01-1.2,1.26-1.88.65-.56-.5-.93-.99-1.16-1.55.72-.86,1.83-1.08,2.91-.99Z"/>
      <path class="cls-27" d="M35.94,27.06c3.99-.16,2.3,4.53-.88,4.9.93,1.47.64,1.9-.88,1.05-.48,0-1.04-.52-1.08-1.01-.83-.82-1.63-1.78-2.39-2.89-.45-.73.12-1,.53-1.51,1.52-.5,3.12-.57,4.71-.54Z"/>
      <path class="cls-114" d="M34.18,33.01c.12-.4.68-.68.88-1.05,2.78-1.14,3.98.59,2,2.81-.78.53-1.68.83-2.59,1.03l-.26-1.08c-.12-.51-.16-1.17-.03-1.71Z"/>
      <path class="cls-43" d="M30.71,29.11c.71.02,1.52.19,2,.73.55.62.33,1.46.39,2.16-.74.18-1.51-.05-1.83-.63-.4-.73-.5-1.48-.56-2.26Z"/>
      <path class="cls-62" d="M72.99,52.63c.45-2.37,1.78-2.73,4-1.07l.15-.8c2.89-.31,5.82-.17,8.79.43,2.63-.57,2.76,3.37,1.01,4.24,1.86,1.1,1.9,1.65.12,1.64,1.41,1.32.91,1.89-.83.97l-2.17-1.71c-1.57-.66-3.27-1.26-5.12-1.78-2.41.46-4.61.01-6.83-.84-1.45-1.27-.95-1.83.88-1.07Z"/>
      <path class="cls-46" d="M71.77,49.8c2.1-1.08,3.34,1.53,1.22,2.83l-.88,1.07c-1.59-.61-3.68.02-5.29-.74.15-.25.11-.88.09-1.17.4-2.29,2.97-2.86,4.86-1.99Z"/>
      <path class="cls-46" d="M84.06,56.31c-.89-.32-2.28.47-3.08.03-.66-.38-1.96-.95-2.04-1.81,2.06-.39,5.23-1.04,5.12,1.78Z"/>
      <path class="cls-103" d="M64.62,49.91c-1.24-1.77-1.39-4.12.98-4.04.72-2.61,1.1-2.73,2.19-.17.89.04.92.31.12.8,1.6,1.56,1.14,4.43-1,5.28-.66-.14-1.43.27-2.11.2l-.19-2.07Z"/>
      <path class="cls-90" d="M36.63,20.95c4.88-1.03,3.24,2.24,10.15,1.69,1.2.14,2.09.5,2.65,1.08,1.48.05,1.51.69.1.85.85,2.93-1.15,3.61-2.65.93-1.88-.01-3.2.37-3.96,1.14.88.25.88.59.03,1,.6,1.13.41,2.22-.93,2.03l-.06,1.08c-1.55.62-1.48-.61-1.14-2.04-2.66-.1-2.54-1.07,0-1.92-.39-1.86-1.67-2.95-3.86-3.28-.3-.83-.57-1.69-.32-2.58Z"/>
      <path class="cls-118" d="M55.8,23.2l4.93-2.17c1.35,1.35.8,3.08-1.67,5.2-2.19.67-4.9-.91-6.26-2.93.28,2.15-.85,2.29-3.38.42-.99.12-2.14-.13-2.65-1.08,3.03-.24,6.25-.91,9.02.56Z"/>
      <path class="cls-108" d="M35.94,27.06c.38-.63.87-1.28,1-2.02,1.05-2.28,3.76-.47,3.87,1.77-.21.58.14,1.32,0,1.92,1.02,3.04.77,5-.76,5.86.46,1.98-.64,1.69-1.87.27-.37.05-.76-.1-1.14-.08-.55-1.01-1.25-1.94-2-2.81-.59-1.9,2.37-3.19.88-4.9Z"/>
      <path class="cls-57" d="M40.82,26.81c-.78-1.44-2.25-2.3-3.87-1.77.07-.4.14-1.13,0-1.51.96-.94,2-.35,2.73.03,1.22.65,1.49,2.26,1.13,3.25Z"/>
      <path class="cls-150" d="M47.17,29.43c-2.3-1.14-2.88-1.86-.25-2.91-.88-.25-.88-.59-.03-1,.84.24,1.92-.64,2.65-.93,3-2.01,6.23,5.03,1.49,4.79.89.63,1.28,1.96,1.16,4,.88-.13.88.1.1.64,1.81,1.26,1.45,1.69-1.09,1.29,1.01.58.08,1.72-.89,2.1-1.14.29-1.54,1.43-3.11,2.35-1.71-5.19,5.59-9.24-.02-10.32Z"/>
      <path class="cls-57" d="M40.82,28.73c.05.85.83,1.35,1.14,2.04.62,1.36,1.84,2.37,2.23,3.85-.84,1.84-4.78,2.69-4.13-.02-.08-2-.47-4.15.76-5.86Z"/>
      <path class="cls-161" d="M40.06,34.59c1.16,1.13,2.73.16,4.13.02.17.66-.17,1.46-.06,2.13-1.32-.09-2.68.16-3.66,1.09-1.05-.74-1.82-1.79-2.28-2.99l1.87-.27Z"/>
      <path class="cls-25" d="M50.3,37.4c.18-.82.3-1.41.89-2.1,2.39-1.31,2.85.41,1.37,5.14-.71.22-1.18,1.26-2.04,1.26.45-1.22-.51-2.99-.22-4.3Z"/>
      <path class="cls-149" d="M46.91,26.52c.03.97.08,1.95.25,2.91-1.04-.36-2.1-.62-3.18-.81-1.1,1.06-1.55.52-1.03-.96l-.03-1c.28-1.71,2.92-1.23,4-.14Z"/>
      <path class="cls-82" d="M42.95,27.65l1.03.96c-.08.84.38,1.62-.19,3.09-.93-.59-.94-1.64-1.78-2.02.04-.75.46-1.44.93-2.03Z"/>
      <path class="cls-111" d="M65.56,44.87c.88.25.88.59.03,1-.65,1.24-1.11,2.65-.98,4.04-.75-.62-1.87-1.66-2.07-2.63.93-.97-.4-2.95.27-3.9.99-1.42,2.18.87,2.74,1.5Z"/>
      <path class="cls-83" d="M54.19,35.1c-.11-2.19.9-2.58,2.92-2.24-.31-2.49-.1-2.64,2.18-1.63,1.15-1.81,2.11-1.24,2.05.96,2.59-.09,2.94,3.68-.06,3.83-.04,2.84-2.24,3-4.12,1.4.05,2.06-.79,2.25-1.75.44-.25.08-.55.03-.81.08-2.22.09-1.75-1.32-.41-2.85Z"/>
      <path class="cls-59" d="M51.18,35.3l1.09-1.29c.98-3.01,3.31-1.81,1.92,1.09.25.92.21,1.92.41,2.85-.21,1.24-.89,2.14-2.05,2.49-1.3-.07-1.52-1.37-1.24-2.48.23-.91.99-1.67,1.93-2.22-.91-.8-1.57-.31-2.07-.44Z"/>
      <path class="cls-75" d="M55.41,37.87c.5-.17,1.33-.13,1.75-.44,2.3.31,3.07,1.37,2.25,3.61,2.11-.12,1.59,1.81-.16,2.33-1.37-.48-2.09-1.99-3.59-2.21-.31-1.06-.28-2.2-.25-3.29Z"/>
      <path class="cls-143" d="M63.23,36.72c-.88-2.9.25-3.4,2.76-2.45-.27-1.78,1.36-1.97,1.8-.15,1.95-.25,1.96.57.04,1.27,1.14,1.95.8,2.27-1.51,2.46.71,1.11.31,3.01-1,3.14l-1.9-.04c-1.43,1.08-1.89.42-.88-1.05-2.74-1.12-2.18-2.5.69-3.17Z"/>
      <path class="cls-155" d="M65.32,40.99c.68-2.1,1.88-1.16,2.14.82.02-1.94,1.76-1.84,1.94.11,1.21,1.3-.07,3.46-1.61,3.79l-2.19.17-.03-1c.87-1.23.23-2.61-.24-3.89Z"/>
      <path class="cls-8" d="M59.25,43.37l.16-2.33c-.04-2.63,1.07-2.65,3.14-1.14.51.11.77.57.88,1.05-1.94.92-2.55,3.12-2.9,5.1-1-.52-1.35-1.6-1.27-2.68Z"/>
      <path class="cls-28" d="M79.67,16.03c-.85-1.15.35-2.34,3.58-3.58l6.19-.43c.88.25.88.59.03,1-1.64.42-3.42.79-5.34,1.12.87.11.92.46.2,1.04,2.9.17,2.7,2.1.18,3.01,2.4,1.24,2.4,3.87,1.35,5.96l-3.2.64c-.46,2.54-1.46,2.38-2.89.47-.3-.6-.89-.76-1.78-.5-2.72,1.64-5.59-2.27-3-4.43.59-.87,1.58-1.26,2.97-1.16,1.5-1.15,2.07-2.2,1.71-3.15Z"/>
      <path class="cls-160" d="M72.44,14.4c.31-.46.92-.46,1.34-.71,1.51.24,3.12.19,4.8-.14.71-.5,1.67-.92,2.86-1.25.31-.01.63.1.94.11l.87.04c-.68,1.67-2.61,2.13-3.58,3.58.99,3.29-4.48,3.78-6.15,1.55-.95.52-2.42.1-2.94-.9-.66-.64-.04-1.4,1.86-2.28Z"/>
      <path class="cls-71" d="M89.43,12.02l3-.1,7.99-.28c.88.25.88.59.03,1-2.44.48-5.09.91-7.96,1.28-.25.88-.59.88-1,.03-.66,2.63-1.01,2.64-2,.07-.88-.25-.88-.59-.03-1l-.03-1Z"/>
      <path class="cls-122" d="M105.4,65.5c1.69-.22,3.32.3,4.87,1.55l1.79-1.63c-1.72-2.4-1.12-2.61,1.41-1.27.41,1.32.73,2.65.98,4.01-.51,2.24-4.04,2.98-6.04,2.04l-5.85-2.76c-1.42-2.93.54-3.64,2.85-1.94Z"/>
      <path class="cls-128" d="M115.19,58.42c-.33-1.33.61-2.3,1.83-1.33.25-.88.59-.88,1-.03.93,1.95,1.12,5.1,0,6.89-.08.7-.36,1.56-.69,2.14-.57-.25-.86-.93-.88-2.03-.3-1.67.01-4.23-1.26-5.63Z"/>
      <path class="cls-133" d="M116.45,64.05c.2.63.92,1.26.88,2.03-.06.1.57,5.46-.93,2.03-.07-1.35-.05-2.71.04-4.06Z"/>
      <path class="cls-39" d="M97.02,62.82c.74-.09,2.01-.86,3.84-2.32l2.11,3.07c-.08-.82.66-1.51,2.2-2.07.17-1.93.94-1.91,1.52-.02,1.87,1.18,1.41,4.72-1.29,4.01-1.16.28-2.24.89-2.85,1.94-2.17-1.02-4.41-2.48-6.68-2.78-2.97-1.51-1.4-3.9,1.15-1.84Z"/>
      <path class="cls-129" d="M93.3,60.82c-.47-2.49.59-2.75,2.72-1.81.28-1.8,2.31-2.18,2.95-.37,1.08.05,1.16.36.26.95,1.91,1.64-.61,2.99-2.21,3.23-.22.28-.86.28-1.08.65s-.25.79-.07,1.19l-.69-.09c-.91-.12-1.81-.74-2.79-.86-.36-.34-.69-.73-1.08-1.04-1.34-2.54-.46-3.1,1.98-1.84Z"/>
      <path class="cls-145" d="M77.48,45.17c-.28-3,1.3-3.14,3.12-.77.33.29.58.56.53.75-.89,3.16-1.43-.21.55-.94.2-.07.64.48,1.14,1.21,2.16.19,2.94,3.75,3.12,5.75-1.95,2.7-6.71,2.09-8.79-.43-2.39-1.73-2.35-4.26.34-5.58Z"/>
      <path class="cls-167" d="M73.75,47.79c1.46-.65,2.53.61,3.24,3.77-1.18.77-2.61.95-4,1.07-.19-1.03-.47-2.06-1.22-2.83-2.55,1.02-3.05.57-2.26-2.06,1.25-2.54,3.46-2.93,4.24.05Z"/>
      <path class="cls-49" d="M86.93,55.42l1.93-2.35c.93-1.44,1.74-1.93,2.14-.05,1.36-1.4,1.87-.79.79.92,3.08,2.28.95,6.1-2.8,4.17-.55-.47-1.33-.65-1.94-1.04l-.12-1.64Z"/>
      <path class="cls-119" d="M74.63,46.35c-.82-2.2.17-3.38,2.11-1.64.57-.46.81-.3.74.47-.71,1.79-.92,3.73-.34,5.58.1.32.18.59-.15.8-1.42-.93-2.35-2.35-3.24-3.77-1.28-1.32-.89-1.97.88-1.44Z"/>
      <path class="cls-131" d="M86.89,50.75c.49-2.82,1.93-2.54,2.65.07,1.91.16.89,1.75-.68,2.25.03.7.29,1.52.66,1.94.77.87-.12,1.28-1.05,1.08-.52-.11-1.07-.36-1.54-.67-.1-1.35-.07-3.12-1.01-4.24-.11-.95.22-1.08.97-.43Z"/>
      <path class="cls-152" d="M67.91,46.51c.58-1.85,1.34-1.66,1.53.31.78.17.78.48.07.92.81.63,1.55,1.33,2.26,2.06-1.13,1.58-2.94,2.39-4.86,1.99-.34-1.79-.5-3.94,1-5.28Z"/>
      <path class="cls-101" d="M69.4,41.91c-.14-.86.13-.87.75-.13,3.52-1.51,3.55,5.96-.72,5.03l-1.53-.31-.12-.8c-.22-1.45.78-2.65,1.61-3.79Z"/>
      <path class="cls-68" d="M62.62,17.96c.29-.08.74.11,1-.03.95-.07,1.93-.14,2.03.93,1.39,1.29.83,1.68-.96,1.03-1.2,2.76-2.04,4.05-3.96,1.14.74-1.12,1.81-1.52,1.89-3.07Z"/>
      <path class="cls-171" d="M52.8,23.31c2.35,1.54,2.76,2.58,1.24,3.12,1.97.82,2.69,1.46.86,2.9.39,2.13-.72,2.56-1.86.72-1.07,1.27-1.78.92-2.02-.67,1.1-1.28,2.3-1.43.69-3.03-.69-.69-.56-2.25-2.18-1.76-.58-.21-.58-.5-.1-.85l3.38-.42Z"/>
      <path class="cls-82" d="M46.88,25.52l.03,1-4,.14c-.04-1.14-.09-2.21,1.39-2.1.82.06,1.65.7,2.58.96Z"/>
      <path class="cls-56" d="M60.73,21.03c1.2-.53,2.81-.28,3.96-1.14l2.03.93c2.1,1.02,2.87,2.06,2.32,3.1.82.36.74.63-.17.83.82,1.56.3,2.06-1.22,1.21l-.79,1.07c-1.55-.72-3.21-.81-4.96-.26-.67,1.46-2.92,1.31-2.84-.54-1.98-1.7.48-3.41,1.67-5.2Z"/>
      <path class="cls-9" d="M59.06,26.24c.9.38.91.75.01,1.13-1.92,2.81-3.4,1.46-5.03-.94-.27-1.09-.66-2.16-1.24-3.12l6.26,2.93Z"/>
      <path class="cls-153" d="M53.04,30.04c.64-.18,1.27-.4,1.86-.72,2.41-1.83,4.43,1.63,2.22,3.53-.25,1.45-1.45,2.4-2.92,2.24-.21-.77-1.23-.99-1.92-1.09l-.1-.64c-.62-1.42-.7-2.89.86-3.33Z"/>
      <path class="cls-23" d="M51.02,29.37c.76-.19,1.71-.17,2.02.67-.08,1.15-.36,2.29-.86,3.33-1.2-.52-1.61-2.89-1.16-4Z"/>
      <path class="cls-61" d="M54.04,26.43l5.03.94c-.47,1.08.15,1.24.98,1.41,1.71,1.32,1.41,2.33-.75,2.45-.42.87-1.26,1.41-2.18,1.63-.25-1.42-1.15-2.59-2.22-3.53-.35-.94-.62-1.92-.86-2.9Z"/>
      <path class="cls-5" d="M57.16,37.43c.94-1.3,2.64-.88,4.12-1.4,1.41-2.47,2.19-2.1,1.95.7-.39,1.02-.68,2.08-.69,3.17-.94.62-2.01,1.01-3.14,1.14-1.37-.7-2.38-2.03-2.25-3.61Z"/>
      <path class="cls-70" d="M60.05,28.78l.71-1.15c2.01.66,4.05.95,6.1.88.2-.9.53-.92.99-.1,2.37-1.15,2.7-.25,1.08,1.82,2.01-.08,2,.75-.01,1.26-.94,1.52-2.27,2.2-2.81.22-2.22,1.56-3.34,2.34-3.34,2.34l-1.44-1.87c-.63-.42-1.32-.73-2.05-.96.37-.77.58-1.61.75-2.45Z"/>
      <path class="cls-35" d="M61.35,32.19l4.77-.48c.09.8.05,1.65-.13,2.56-.75.99-1.71,1.78-2.76,2.45-.54-.14-1.37-.9-1.95-.7.22-1.29,1.08-2.73.06-3.83Z"/>
      <path class="cls-107" d="M67.79,34.12c-1.81-1.1-.65-1.95,1.13-2.63.07-.35.11-.92.01-1.26-.3-2.09.76-2.28,2.1-.56.96-1.43,1.33-1.03,1.12,1.2,1.95,1.08,1.16,3.06-.68,3.75.32,2.19-.64,2.66-2.17,1.06-.64,1.85-1.42,1.67-1.46-.3l-.04-1.27Z"/>
      <path class="cls-37" d="M67.83,35.39l1.46.3c2.17-.01,2.07.43,1.03,2.12,1.61,1.41.92,2.12-1.13,1.19.16,2.16-.84,2.17-1.64.05-1.51,1.04-1.84.46-1.23-1.21.45-.85.14-2.27,1.51-2.46Z"/>
      <path class="cls-19" d="M66.32,37.84c.44.38.85.78,1.23,1.21,1.4.69,1.67,2.58-.09,2.75l-2.14-.82c-.46-1.25.51-2.22,1-3.14Z"/>
      <path class="cls-92" d="M66.12,31.71l2.81-.22c-.18.94-.66,1.8-1.13,2.63l-1.8.15c-.75.69-1.34-.21-1.79-.9-.81-1.22,1.56-.93,1.91-1.66Z"/>
      <path class="cls-89" d="M67.55,39.06c.53.24,1.13.22,1.64-.05,2.72.14,3.01,1.04.96,2.77-.25.01-.5.14-.75.13l-1.94-.11.09-2.75Z"/>
      <path class="cls-141" d="M76.31,12.49c1.02.19,1.78.54,2.27,1.06-.82.26-1.26,2.04-2.61,1.95-.84-.06-1.52-1.11-2.19-1.81.76-.46,1.6-1.17,2.53-1.21Z"/>
      <path class="cls-80" d="M72.44,14.4c1.11,1.5-1.28,1.48-1.86,2.28-.24.69-.57.67-1,.03-.23,2.67-1.15,2.58-2,.07-.26.84-.59.84-1,.03,1.32-1.89,3.64-2.42,5.86-2.42Z"/>
      <path class="cls-63" d="M66.59,16.82l1-.03c2.31,1.73,1.89,2.63-.93,2.03-.25.88-.59.88-1,.03-.8.03-1.76-.06-2.03-.93.93-.52,1.91-.91,2.96-1.1Z"/>
      <path class="cls-168" d="M81.44,12.3c-.33,1.46-1.85.93-2.86,1.25-.72-.3-2.15-.06-2.27-1.06l5.13-.18Z"/>
      <path class="cls-159" d="M102.49,13.57c.19-1.02,1.16-2.09,2.89-3.2.39-.06.8.04,1.19.01,2.79.4,3.17,2.29.91,3.93,1.17,2.11,1.15,3.45-.05,4.02.67,2.34.42,2.35-1.7,1.15-3.08,1.75-5.78-.03-3.18-2.87-4.41,1.87-4.43-2.54-.07-3.04Z"/>
      <path class="cls-102" d="M100.42,11.64c1.41-.05,2.78-.35,3.96-1.14.24-.16.71-.09,1-.14.16,1.68-1.4,2.74-2.89,3.2-.83.66-1.49.68-2,.07-.88-.25-.88-.59-.03-1l-.03-1Z"/>
      <path class="cls-77" d="M108.24,6.36c.45-.63.76-.69,1.11-.45.91.62,1.17,1.62.96,2.38l-2,.07-.07-2Z"/>
      <path class="cls-87" d="M85.85,24.16l.96-1.03c.25-.88.59-.88,1-.03l4.96-1.17c-2.65-.36-3.43-2.02-.95-3.34.35-3.15,2.08-4.96,4.87-3.44,2.63-.13,3.27,1.61,1.92,5.21l1.4,1.05c1.2-2.35,1.74-2.35,2.51.15,1.88-.79,2.07-.78,1.29,1.22.05,3.4-6.2,4.82-7.93,2.05-3.12,1.92-7.56,2.93-10.89,1.12-.51-.73-1.53-.97-2.33-1.13-.91-.86.67-1.46,1.28-2.13.73-.8,1.03,1.35,1.92,1.49Z"/>
      <path class="cls-16" d="M69.75,21.86c-1.19-1.23-.49-2.24,2.09-3.04-1.58-1.25.2-1.87,1.69-1.23,2.8-.44,3.8.7,1.46,2.76.31,1.77,2.03,3.04,3,4.43.66,2.09-1.03,3.17-2.84,1.81.24,1.75-2.03,1.79-2.52.2-1.94,2.84-4.83,1.05-3.74-2.03l.17-.83c0-.64.23-1.33.69-2.07Z"/>
      <path class="cls-64" d="M72.15,30.88c.86-.33,1.64-.96,2.32-1.88-.53-.72-.3-1.53.67-2.42.98-.54,2.02-1.07,2.84-1.81l.9-.86c.3-.29.94-.3.92-.03-.03.62-.15,1.1-.04,1.39-1.23,1.05-1.18,2.95-1.99,4.21.07,2.13-1.03,4.44-2.45,5.88,2.24,1.26-.55,2.45-1.94,1.04-1.72,1.11-2.68.14-1.92-1.77-.48-1.24,0-2.72.68-3.75Z"/>
      <path class="cls-4" d="M79.67,16.03c.57-.54.86-.1,1.26.13,1.43.81-.66,4.65-2.89,5.12-.91.19-2.15-.18-3.06-.93-.2-1.15-.96-1.73-1.46-2.76,1.68-1.22,4.45-.32,6.15-1.55Z"/>
      <path class="cls-32" d="M84.32,15.19c3.49-1.57,7.83-.23,5.38,3.68.94.3.92.68,0,1.15-.04,1.51-1.7,1.7-2,.07-.83.82-1.9.19-3.21-1.89-.35-.91.01-2.07-.18-3.01Z"/>
      <path class="cls-26" d="M89.5,14.02l2-.07c2.29.35,1.63,3.44.33,4.62-.7,2.23-1.41,2.33-2.12.3-.43-1.18-.57-2.54-1.33-3.12-1.14-.86-3.02-.62-4.05-.56-.07-.34-.2-.69-.2-1.04,1.64-.73,3.72-.91,5.38-.12Z"/>
      <path class="cls-130" d="M84.5,18.2c1.31.12,2.41.87,3.21,1.89,1.2.74.91,1.75-.89,3.03-.02.64-.21,1.15-.96,1.03.15-2.1-.61-4.04-1.35-5.96Z"/>
      <path class="cls-13" d="M89.47,13.02l.03,1c-1.79.06-3.58.19-5.38.12,1.01-1.79,3.6-.84,5.34-1.12Z"/>
      <path class="cls-121" d="M70.58,16.68c1.27-.27,2.34-.31,2.94.9l-1.69,1.23c-2.52,1.85-3.87.59-2.25-2.1.32-.01.69.03,1-.03Z"/>
      <path class="cls-79" d="M91.5,13.95l1-.03c1.38-.56,3.36-1.18,4.22.06,1.94-.15,1.92.62-.02,1.15-1.15.14-2.38.26-3.09,1.25,1.46.56,1.89,1.83,1.72,2.73-.11.63-.89,2.26-1.61,1.17-.59-.88-.52-1.65-1.05-1.99-.22-.14-.58.24-.84.27-.4-1.44-.87-3.12-.33-4.62Z"/>
      <path class="cls-106" d="M100.46,12.64l.03,1c.46,2.91-2.85,3.05-3.77.34l-4.22-.06c1.86-2.23,5.33-.74,7.96-1.28Z"/>
      <path class="cls-113" d="M110.66,18.29c-.59-3.27.77-6.84-.35-9.99.58-.8,1.15-1.94.89-3.03-.03-.72-.47-1.72.78-2.09.32,2.11.32,3.54.32,5.06.68,3.49.98,7.1.91,10.85,1.67,4.48-4.55,4.01-2.56-.78Z"/>
      <path class="cls-72" d="M109.91,59.5c1.05-.58,2.17.66,3.37,3.72-.01.28.09.65.18.92-.47.3-1.26.67-1.41,1.27.03,1.32-.71,1.85-2.03,1.67-4.1-.55-2.96-5.93-.11-7.57Z"/>
      <path class="cls-54" d="M111.05,57.35c1.71,1.4,2.33,3.79,2.23,5.87-2.64.67-1.45-2.54-3.37-3.72-1.65-.25-2.63-.67-1.9-2.27l3.04.11Z"/>
      <path class="cls-158" d="M117.98,56.05l.03,1-1,.03c0-1.09.13-2.55-1.1-2.96.34-.78.58-1.65,1.78-2.12.41,1.77.19,2.87.29,4.05Z"/>
      <path class="cls-65" d="M106.68,61.49c-1.89-.55-1.35-2.19.61-1.89-.02-1.45.86-1.48,2.62-.09-.38,1.68-1.16,3.6-.65,6.02.28,1.29,2.15.23,2.78-.11-.13.5.37,1.22.21,2.19-.05.3-.34.79-1.17.15-2.48.83-4.95,0-5.69-2.26.59-1.28.86-2.67,1.29-4.01Z"/>
      <path class="cls-1" d="M99.22,59.59c1.43-3.52,6.81-2,2.91,1.02,1.83,1.26,2.11,2.24.83,2.96-1.09.03-1.76-1.99-2.98-1.38-.87.43-1.34,1.27-2.19,1.52-.52.15-1.09-.1-.78-.89.82-1.01,1.6-2.07,2.21-3.23Z"/>
      <path class="cls-157" d="M107.29,59.59l-.61,1.89-1.52.02c-.24.92-.58.92-1,.03-4-4.02,2.51-6.27,3.13-1.94Z"/>
      <path class="cls-65" d="M102.13,60.61c1.11-1.71,2.02-1.15,2.03.93.29.1.69-.03,1-.03.38.86.92,1.98-.41,2.02l-1.79.05c-.57-.89-.78-1.92-.83-2.96Z"/>
      <path class="cls-47" d="M98.91,57.68c.29-.97,1.31-1.66,3.05-2.07.52-1.13,1.57-.95,3.15.53,1.05.09,2.08.43,2.91,1.1.73.68,1.39,1.42,1.9,2.27-.78.17-1.82.36-2.62.09s-1.61-1.54-2.44-.72c-.72.71-.64,1.86-.68,2.66-.7-.24-1.36-.62-2.03-.93.05-.81-.19-1.86-1.2-1.71-.56.09-1.14.37-1.71.69.07-.35-.01-.69-.26-.95-1.18-.26-1.2-.58-.06-.96Z"/>
      <path class="cls-17" d="M91.79,53.94c2.23-2.76,6.7.58,3.19,2.91,2.38-.42,2.58.33,1.04,2.16-.51,1.06-1.58,1.61-2.72,1.81-1.15-1.35-3-1.58-4.31-2.71,2.06-.25,2.59-2.35,2.8-4.17Z"/>
      <path class="cls-124" d="M94.98,56.84c0-2.86,2.25-3.55,3.7-1.02,2.09-.38,2.14,1.02.23,1.86-.31.33-.24.64.06.96-.97.22-1.96.35-2.95.37-.31-.65-1.04-1.39-1.04-2.16Z"/>
      <path class="cls-51" d="M76.36,37.67c-.24-.91.11-1.29,1.03-1.16,2.86-1.43,10.3.88,8.39,4.94,2.17,2.05,3.05,3.08-.28,3.83-.59,2.76-1.33,2.41-2.7.15-1.34-.25-2.01,1.13-2.7,1.88-1.42-1.13.35-2.17.5-2.9-1.39-.81-2.41-2.39-3.07-4.76-2.32,1.3-3.03-.08-1.17-1.97Z"/>
      <path class="cls-109" d="M77.53,39.64c.93.02,2.27-.08,2.65.6.68,1.22.65,3.02.42,4.17-1.09-.02-2.16.25-3.12.77-.27-.1-.68-.1-.74-.47-2.39-1.11-1.88-4.8.78-5.07Z"/>
      <path class="cls-86" d="M85.5,45.27c2.79-1.14,3.98,4.22,1.39,5.48-.28.04-.73.31-.97.43-1.42-1.7-2.43-3.63-3.12-5.75.87.16,1.82-.27,2.7-.15Z"/>
      <path class="cls-40" d="M70.15,41.78c-.56-.78-.67-1.89-.96-2.77.52-.24.93-.66,1.13-1.19-.35-2.76,4.01-.06,4.62.8,1.19,1.66.28,5.7-.31,7.74-.2.53-.47,1.04-.88,1.44l-4.24-.05c-.14-.3-.17-.6-.07-.92.57-.98,1.24-1.83,1.78-3.05.34-.78-.56-1.28-1.06-1.98Z"/>
      <path class="cls-173" d="M92.96,50.81c.95-.98,1.88-1.09,2.8-.03,3.4-1.16,5.29,2.63,2.92,5.04-1.24.29-2.44.78-3.7,1.02.02-1.79-1.59-2.52-3.19-2.91l-.79-.92c-1.68-1.27.49-3.13,1.95-2.21Z"/>
      <path class="cls-6" d="M89.55,50.82c1.46-3.44,6.59-3.35,3.41-.01-.96.41-1.82,1.12-1.95,2.21l-2.14.05c-.03-.71.84-1.51.68-2.25Z"/>
      <path class="cls-140" d="M69.29,35.69c.69-.42,1.43-.76,2.17-1.06.55.5,1.57.94,1.92,1.77,1.52,0,2.51.42,2.98,1.27.2.76.56,1.47,1.17,1.97-.37,1.67-.73,3.35-.78,5.07-.75.48-1.47,1.01-2.11,1.64-2.74-1.07.33-4.75-1.32-7.24-.69-1.04-1.86-1.12-2.99-1.29-.87-.13-1.08-1.45-1.03-2.12Z"/>
      <path class="cls-172" d="M85.5,45.27c.37-1.25.64-2.55.28-3.83,2.39-2.48,7.59,1.47,7.86,4.63.87.19.86.5.03.92l-.28,2.25c-1.34-1.19-2.62-.66-3.86,1.58-.85.16-1.79-.18-2.65-.07l-1.39-5.48Z"/>
      <path class="cls-73" d="M64.69,19.89c.38-.28.69-.65.96-1.03l1-.03c2.58-.88,3.15.41,1.07,2.18-.4.33-.73.27-1-.18-.69.51-.63,1.72-2.33,2.42-.95-1.26.52-2.21.29-3.35Z"/>
      <path class="cls-112" d="M59.07,27.36c.14-.32-.08-.78-.01-1.13.63.3,2.19.1,2.84.54,1.71-.94,5.86-.58,4.96,1.74.1.58.5,1.22-.14,2.39-1.6-1.65-4.93-2.19-6.68-2.12-.27.01-.84.14-1.44.29-.28.07-.85-.36-.24-.91.2-.18.55-.47.7-.8Z"/>
      <path class="cls-50" d="M67.66,25.96c.04-.55.86-.92,1.22-1.21.83,1.32,2.24,1.87,3.74,2.03,1.75.75,1.22,1.72-1.58,2.9-.72.09-1.42.3-2.1.56-.2-.65-.92-1.15-1.08-1.82-1.8-.89-2.14-1.75-.2-2.45Z"/>
      <path class="cls-117" d="M67.66,25.96c-.06.78.02,1.69.2,2.45l-.99.1c-1.24-1.47-3.33-.65-4.96-1.74.85-2.5,3.71-1.28,5.75-.81Z"/>
      <path class="cls-55" d="M66.73,20.82c.31.1.7.04,1,.18,1.52-2.16,2.09-1.73,2.02.85.4-.03.89.13.93.42.11.87-.62,1.63-1.62,1.65-.93-.91-1.75-1.93-2.32-3.1Z"/>
      <path class="cls-29" d="M72.62,26.78c.73-.31,1.84.18,2.52-.2.98-.28.96.64.63,1.23-.28.51-.68.93-1.3,1.19-.37,1.08-1.2,1.91-2.32,1.88-.35-.41-.84-.71-1.12-1.2.55-.96,1.29-1.82,1.58-2.9Z"/>
      <path class="cls-14" d="M67.59,16.79l2-.07c.24,1.17,1.57,1.37,2.25,2.1.86.92,1.35,2.94.39,3.64-.75-.47-1.25-1.61-1.74-1.38-.34.16-.5.78-.75.78-.69-.12-1.39-.55-2.02-.85l-1.07-2.18c.56-.54.81-1.28.93-2.03Z"/>
      <path class="cls-91" d="M96.7,15.13l.02-1.15,3.77-.34c.63-.06,1.4.12,2-.07l-1.78,1.54c-.27.24,1.65.94,1.85,1.5.55,1.89-.85,3.96-2.55,4.77-1.04,1.21-2.8,1.92-4.2.99,2.73-2.21,1.7-5.02.89-7.24Z"/>
      <path class="cls-134" d="M102.56,16.61c.53,1.47,1.48,2.95,3.18,2.87,1.3,2.01-1.64,2.83-3.22,2.05-.72.31-1.76-.23-2.51-.15-.86-1.42.64-4.75,2.55-4.77Z"/>
      <path class="cls-94" d="M105.74,19.48c.51-.44.92-1.15,1.7-1.15.27-2.16,1.13-1.72,2.23,0,2.53,2.77,2.31,4.01-.65,3.73-1.54.8-3.68.06-5.2.7-.55-.27-1.03-.67-1.29-1.22,1.15-.49,2.28-1.23,3.22-2.05Z"/>
      <path class="cls-134" d="M107.49,14.31c1.2.93,1.58,2.65,2.18,4.01h-2.23s.05-4.01.05-4.01Z"/>
      <path class="cls-105" d="M89.78,22.02c-.23-2.15.76-2.18,3-.1-.72,1.57-3.64,2.46-4.96,1.17-.83-1.59,1.02-3.02,1.96-1.07Z"/>
      <path class="cls-100" d="M89.71,20.02c-.01-.36.11-.81,0-1.15l2.12-.3c-.08.55-1.18,1.57-.38,2.21.36.28,1.11.41,1.33,1.14l-3,.1c-1.93.21-1.78-1.42-.07-2Z"/>
      <path class="cls-28" d="M87.71,20.09l2-.07.07,2c-.79.03-1.79.15-1.96,1.07l-1,.03c.04-1.06.48-2.08.89-3.03Z"/>
      <path class="cls-137" d="M75.32,35.36c.85-.04,1.38.93,2.07,1.15-.28.44-.62.84-1.03,1.16-1.07,0-2.51-.15-2.98-1.27.39.25,1.02.29,1.36.16s.88-.84.57-1.19Z"/>
      <path class="cls-137" d="M74.47,29c.56.81.31,1.78-.22,2.2-.79.64-1.62.25-2.1-.33.35-.54.16-1.57.82-1.83.55-.22,1.06-.23,1.5-.05Z"/>
      <path class="cls-156" d="M101.09,52.71c1.83.38,3.29,1.72,4.01,3.42-1.09.18-2.2.05-3.15-.53-.78.94-1.37,1.08-1.72-.16-1.36-1.16-1.19-3.66.85-2.74Z"/>
      <path class="cls-24" d="M99.77,50.59l1.33,2.12c-.74.72-.91,1.75-.85,2.74-.11,1.47-.81,1.64-1.56.37-.15-1.19.33-2.59-.44-3.78-.47-.73-1.56-1.06-2.49-1.26-.88-.43-.75-.83.24-1.2l3.77,1.01Z"/>
      <path class="cls-129" d="M98.68,55.82l1.56-.37,1.72.16c-.27,1.41-1.72,1.98-3.05,2.07l-.23-1.86Z"/>
      <path class="cls-110" d="M93.68,46.99c1.16.43,2,1.39,2.32,2.59-.13.39-.21.79-.24,1.2-.41.08-.96.95-1.42.98-.41.03-1.01-.79-1.38-.95l-.63-1.9c-.82.83-1.67,1.7-2.78,1.91-.54-2.56,2.18-3.01,4.14-3.83Z"/>
    </g>
  </g>
</svg>