<?xml version="1.0" encoding="UTF-8"?>
<svg id="Enemy" xmlns="http://www.w3.org/2000/svg" viewBox="0 0 66.63 118.24">
  <defs>
    <style>
      .cls-1 {
        fill: #3d424e;
      }

      .cls-2 {
        fill: #0c0f1b;
      }

      .cls-3 {
        fill: #2e3c53;
      }

      .cls-4 {
        fill: #2e3a54;
      }

      .cls-5 {
        fill: #353c44;
      }

      .cls-6 {
        fill: #0d1a3b;
      }

      .cls-7 {
        fill: #141622;
      }

      .cls-8 {
        fill: #050b1b;
      }

      .cls-9 {
        fill: #242e3a;
      }

      .cls-10 {
        fill: #15274b;
      }

      .cls-11 {
        fill: #203154;
      }

      .cls-12 {
        fill: #3e4452;
      }

      .cls-13 {
        fill: #010418;
      }

      .cls-14 {
        fill: #0b1531;
      }

      .cls-15 {
        fill: #2e3442;
      }

      .cls-16 {
        fill: #0f2048;
      }

      .cls-17 {
        fill: #132a52;
      }

      .cls-18 {
        fill: #b47a68;
      }

      .cls-19 {
        fill: #112252;
      }

      .cls-20 {
        fill: #1e2a3a;
      }

      .cls-21 {
        fill: #1c2739;
      }

      .cls-22 {
        fill: #101d33;
      }

      .cls-23 {
        fill: #2b405e;
      }

      .cls-24 {
        fill: #161f31;
      }

      .cls-25 {
        fill: #676f80;
      }

      .cls-26 {
        fill: #2e3a50;
      }

      .cls-27 {
        fill: #1f2a48;
      }

      .cls-28 {
        fill: #122142;
      }

      .cls-29 {
        fill: #272e42;
      }

      .cls-30 {
        fill: #19263c;
      }

      .cls-31 {
        fill: #28282b;
      }

      .cls-32 {
        fill: #172c50;
      }

      .cls-33 {
        fill: #17243d;
      }

      .cls-34 {
        fill: #223455;
      }

      .cls-35 {
        fill: #1a2d51;
      }

      .cls-36 {
        fill: #111322;
      }

      .cls-37 {
        fill: #0e1936;
      }

      .cls-38 {
        fill: #070a23;
      }

      .cls-39 {
        fill: #12162b;
      }

      .cls-40 {
        fill: #192b4a;
      }

      .cls-41 {
        fill: #e07f55;
      }

      .cls-42 {
        fill: #444757;
      }

      .cls-43 {
        fill: #3a5989;
      }

      .cls-44 {
        fill: #292e3d;
      }

      .cls-45 {
        fill: #30353e;
      }

      .cls-46 {
        fill: #111420;
      }

      .cls-47 {
        fill: #171a23;
      }

      .cls-48 {
        fill: #04040d;
      }

      .cls-49 {
        fill: #39445b;
      }

      .cls-50 {
        fill: #08122d;
      }

      .cls-51 {
        fill: #161a29;
      }

      .cls-52 {
        fill: #302920;
      }

      .cls-53 {
        fill: #24304b;
      }

      .cls-54 {
        fill: #232731;
      }

      .cls-55 {
        fill: #293455;
      }

      .cls-56 {
        fill: #222b42;
      }

      .cls-57 {
        fill: #2e1e1f;
      }

      .cls-58 {
        fill: #23324d;
      }

      .cls-59 {
        fill: #434953;
      }

      .cls-60 {
        fill: #242423;
      }

      .cls-61 {
        fill: #08132a;
      }

      .cls-62 {
        fill: #10141e;
      }

      .cls-63 {
        fill: #070a18;
      }

      .cls-64 {
        fill: #10141d;
      }

      .cls-65 {
        fill: #272c41;
      }

      .cls-66 {
        fill: #3b0707;
      }

      .cls-67 {
        fill: #33414d;
      }

      .cls-68 {
        fill: #141926;
      }

      .cls-69 {
        fill: #35373f;
      }

      .cls-70 {
        fill: #232b3a;
      }

      .cls-71 {
        fill: #a8a6ae;
      }

      .cls-72 {
        fill: #4f5460;
      }

      .cls-73 {
        fill: #0f1b2b;
      }

      .cls-74 {
        fill: #0d1b35;
      }

      .cls-75 {
        fill: #262d4c;
      }

      .cls-76 {
        fill: #221311;
      }

      .cls-77 {
        fill: #3a3a3a;
      }

      .cls-78 {
        fill: #1e1e2b;
      }

      .cls-79 {
        fill: #24272c;
      }

      .cls-80 {
        fill: #090d1d;
      }

      .cls-81 {
        fill: #192133;
      }

      .cls-82 {
        fill: #0c1535;
      }

      .cls-83 {
        fill: #0f1d3a;
      }

      .cls-84 {
        fill: #00010c;
      }

      .cls-85 {
        fill: #2d406b;
      }

      .cls-86 {
        fill: #343b40;
      }

      .cls-87 {
        fill: #121525;
      }

      .cls-88 {
        fill: #071332;
      }

      .cls-89 {
        fill: #32466d;
      }

      .cls-90 {
        fill: #15171f;
      }

      .cls-91 {
        fill: #272d3f;
      }

      .cls-92 {
        fill: #0b1025;
      }

      .cls-93 {
        fill: #313e56;
      }

      .cls-94 {
        fill: #161c2c;
      }

      .cls-95 {
        fill: #757986;
      }

      .cls-96 {
        fill: #252b38;
      }

      .cls-97 {
        fill: #272f47;
      }

      .cls-98 {
        fill: #0f1021;
      }

      .cls-99 {
        fill: #4b5161;
      }

      .cls-100 {
        fill: #13203e;
      }

      .cls-101 {
        fill: #353a4f;
      }

      .cls-102 {
        fill: #171c32;
      }

      .cls-103 {
        fill: #121a2c;
      }

      .cls-104 {
        fill: #252938;
      }

      .cls-105 {
        fill: #29314b;
      }

      .cls-106 {
        fill: #080710;
      }

      .cls-107 {
        fill: #191f32;
      }

      .cls-108 {
        fill: #d58f6c;
      }

      .cls-109 {
        fill: #3f444b;
      }

      .cls-110 {
        fill: #202a3d;
      }

      .cls-111 {
        fill: #11203f;
      }

      .cls-112 {
        fill: #0f101c;
      }

      .cls-113 {
        fill: #1b1b1b;
      }

      .cls-114 {
        fill: #161026;
      }

      .cls-115 {
        fill: #191b21;
      }

      .cls-116 {
        fill: #213c6f;
      }

      .cls-117 {
        fill: #6b7780;
      }

      .cls-118 {
        fill: #0a0f19;
      }

      .cls-119 {
        fill: #1a2b51;
      }

      .cls-120 {
        fill: #3e2215;
      }

      .cls-121 {
        fill: #2a3654;
      }

      .cls-122 {
        fill: #0f1320;
      }

      .cls-123 {
        fill: #0a1221;
      }

      .cls-124 {
        fill: #485a71;
      }

      .cls-125 {
        fill: #070e1f;
      }

      .cls-126 {
        fill: #060a15;
      }

      .cls-127 {
        fill: #c3805e;
      }

      .cls-128 {
        fill: #4d4c4d;
      }

      .cls-129 {
        fill: #2a313d;
      }

      .cls-130 {
        fill: #213c66;
      }

      .cls-131 {
        fill: #23293c;
      }

      .cls-132 {
        fill: #151826;
      }

      .cls-133 {
        fill: #0c0e0b;
      }

      .cls-134 {
        fill: #2d3750;
      }

      .cls-135 {
        fill: #2f2b35;
      }

      .cls-136 {
        fill: #444f67;
      }

      .cls-137 {
        fill: #111628;
      }

      .cls-138 {
        fill: #384661;
      }

      .cls-139 {
        fill: #2a201d;
      }

      .cls-140 {
        fill: #0a1837;
      }

      .cls-141 {
        fill: #434848;
      }

      .cls-142 {
        fill: #1b2342;
      }

      .cls-143 {
        fill: #1c2942;
      }

      .cls-144 {
        fill: #841f24;
      }

      .cls-145 {
        fill: #1c2431;
      }

      .cls-146 {
        fill: #565962;
      }

      .cls-147 {
        fill: #0d1529;
      }

      .cls-148 {
        fill: #814a33;
      }

      .cls-149 {
        fill: #15274d;
      }

      .cls-150 {
        fill: #091a40;
      }

      .cls-151 {
        fill: #313f58;
      }

      .cls-152 {
        fill: #45464e;
      }

      .cls-153 {
        fill: #192638;
      }

      .cls-154 {
        fill: #1d2636;
      }

      .cls-155 {
        fill: #0f1c3d;
      }

      .cls-156 {
        fill: #14171e;
      }

      .cls-157 {
        fill: #0a0d19;
      }

      .cls-158 {
        fill: #3d3d3d;
      }

      .cls-159 {
        fill: #19294a;
      }

      .cls-160 {
        fill: #161e31;
      }

      .cls-161 {
        fill: #181c2d;
      }

      .cls-162 {
        fill: #262d44;
      }

      .cls-163 {
        fill: #0f1732;
      }

      .cls-164 {
        fill: #11131f;
      }

      .cls-165 {
        fill: #a27463;
      }

      .cls-166 {
        fill: #2c2f36;
      }

      .cls-167 {
        fill: #314054;
      }

      .cls-168 {
        fill: #0a0e19;
      }

      .cls-169 {
        fill: #161e2d;
      }

      .cls-170 {
        fill: #31303d;
      }

      .cls-171 {
        fill: #1d2c4d;
      }

      .cls-172 {
        fill: #191c23;
      }

      .cls-173 {
        fill: #172d54;
      }
    </style>
  </defs>
  <g id="HyJungScout_walk_2">
    <g id="back-leg">
      <path class="cls-87" d="M37.09,69.02c-.1-1.89.46-4.5-.37-6.15s-3.14-6.22-6.69-8.3c-3.55-2.07-8.18-5.38-12.08-4.65s-5.31,2.42-6.33,3.68-2.44,5.81-1.23,8.46,4.78,6.55,5.8,8.13,4.01,6.12,5.92,7.86,8.89,4.6,9.8,3.74,3.79-4.45,4.25-7.65.93-5.13.93-5.13Z"/>
      <path class="cls-87" d="M14.29,117.44l1.08-2.11c.28-.55.57-1.12.7-1.72.34-1.55-.34-3.16-1.33-4.39s-2.27-2.21-3.37-3.34c-.72-.74-1.37-1.54-2.12-2.24s-1.64-1.3-2.65-1.52c-.81-.17-1.67-.09-2.42.25-1.09.48-1.91,1.42-2.68,2.32-.09.11-.19.22-.21.36-.03.14.01.28.06.42.49,1.5,1.41,2.85,2.61,3.87.58.49,1.23.9,1.86,1.33,1.48,1.02,2.9,2.16,4,3.58.62.8,1.16,1.71,2.05,2.19l2.44,1.01Z"/>
      <path class="cls-28" d="M27.43,86.06c1.41.2,1.43,1.88.06,5.06l-4.02,4.72c-.8.45-1.04.22-.74-.67.85-1.47,1.82-3,2.93-4.61-.69.55-.97.33-.88-.59-2.15,1.96-3.39.47-2.28-1.97-2.57.85-4.45-.98-5.2-3.2l1.77-2.74c-1.49-2.1-.68-2.71,1.68-2.4.64.2,1.17-.11,1.6-.93.73-3.1,5.53-2.41,5.26.95.21,1.03-.2,2.01-1.25,2.94-.22,1.88.13,3.02,1.06,3.42Z"/>
      <path class="cls-160" d="M33.65,82.03c.11.54-.31.98-.43,1.45-1.23.92-2.31,2.09-3.25,3.54-.14.86-.51,1.83-1.1,2.91-.21.23-.51.38-.74.6l-.63.59c-.72-1.65.3-3.36-.06-5.06-3.05-1.59.42-5.84,3.18-5.48.29-1.05,1.62-1.8,2.7-1.47.92-.02,1.03.95.33,2.92Z"/>
      <path class="cls-71" d="M23.48,95.84l-2.02,2.22-5.39,5.91c-.8.45-1.04.22-.74-.67,1.36-2.08,2.91-4.27,4.65-6.59-.45-.8-.22-1.04.67-.74-1.42-2.31-1.18-2.57,1.35-1.48.8-.45,1.04-.22.74.67l.74.67Z"/>
      <path class="cls-68" d="M37.96,72.52c-.15.27-.6.45-.67.74-.61.73-1.25,1.48-2.09.81-1.89.09-1.78-.59-.07-1.41-1.14-2.79-1.47-4.29,1.95-3.63.28,1.31-.18,2.35.87,3.5Z"/>
      <path class="cls-56" d="M37.09,69.02c-.46,1.23-1.77,2.21-1.95,3.63l-2.09.81c-2.2.78-3.48.61-3.85-.51-.83.34-.97.09-.47-.7-1.69-.51-1.68-1.22-.02-1.72l-.21-1.31c1.6-.61,2.82-1.73,3.65-3.37-.58-1.49,1.11-3.01,2.37-1.66,2.6-.23,2.1,2.73,2.56,4.83Z"/>
      <path class="cls-70" d="M32.02,63.12l.32,1.31c-1.88.98-3.51,2.23-4.89,3.75.5.77.28,1.02-.63.78-.84,2.49-1.71,2.1-2.06-.5-1.34,1.49-1.94.9-.89-.89-.43-1.73.02-3.16,1.8-2.16.44-2.68.66-4.02.66-4.02l2.34.28c.74-.16,1.45-.44,2.12-.79.3.81.75,1.54,1.23,2.25Z"/>
      <path class="cls-35" d="M28.68,61.66l-2.99,3.75c-.64-.49-1.22-1.12-1.74-1.88-.18-1.23-.08-2.47.17-3.69.48-.29,1.6-.35,1.86-.91.77,1.06,1.2,2.68,2.7,2.72Z"/>
      <path class="cls-107" d="M22.79,64.92c2.05-.52,1.85.9,1.09,2.65.2.29.58.72.89.89,1.7,1.25,1.1,2.14-1.07,1.89.36,1.69-.19,1.67-1.64-.04-2.14.64-3-1.31-2.21-3.11-1.79-1.3-1.45-2.32.76-2.3-.88-1.75-.2-2.18,1.24-.83l.94.86Z"/>
      <path class="cls-92" d="M25.68,65.41l-1.8,2.16c-.55-.79-.83-1.73-1.09-2.65l1.15-1.39c.03-1.02,1.08-.81,1.89-.65,1.44.28-.43,1.76-.15,2.53Z"/>
      <path class="cls-141" d="M32.31,86.13c-.85.6-1.63.89-2.35.88.39-.77-.58-2.33.43-3.23.63-.56,1.85-.31,2.82-.3-.21.87-.28,1.96-.91,2.66Z"/>
      <path class="cls-80" d="M33.65,82.03c-1.85-.26-.16-1.95-.33-2.92-.33-.65-.08-.88.67-.74-1.75-2.02-1.04-2.63,1.35-1.48-.42-.77-.19-1.01.67-.74.43,2.26-.81,4.3-2.36,5.88Z"/>
      <path class="cls-63" d="M36.01,76.15l-.67.74c-2.85.44-3.21-.48-.81-2.09-.45-.8-.22-1.04.67-.74.54-.59,1.27-1.22,2.09-.81-.28,1.03-.68,2.01-1.28,2.89Z"/>
      <path class="cls-168" d="M28.86,89.93c-.81-1.25.63-1.97,1.1-2.91.71-.31,1.55-1.49,2.35-.88l-3.45,3.79Z"/>
      <path class="cls-159" d="M13.24,104.11c.59.85.69,2.29.27,4.31-.23.32-.59.54-.84.84-2.23,1.71-3.85.67-3.45-2.09-2.33-.63-3.27-1.58-2.84-2.85-2.14-1.16-1.97-1.34.36-2.02.9-3.43,4.06-4.12,4.27-.27,1.74-4.46,4.91-1.39,2.23,2.08Z"/>
      <path class="cls-102" d="M16.07,103.97c-.95,1.04-1.69,2.23-1.95,3.63-.05.28-.43.57-.6.81-1.32-1.06-.98-2.92-.27-4.31.11-1.05.56-1.54,1.35-1.48.8-.45,1.04-.22.74.67l.74.67Z"/>
      <path class="cls-77" d="M14.38,113.26c.14.76-.03,1.02-.45,1.11-1.08.22-1.97-.29-2.37-.98l1.35-1.48,1.48,1.35Z"/>
      <path class="cls-87" d="M17.3,84.81l.07,1.41c.45.8.22,1.04-.67.74l-2.63,4.37c2.11-1.65,3.84-1.04,3.06,1.65,2.01,2.45,2.09,4.96-.94,5.89-1.75,1.97-3.43,1.22-5.06-2.27l-1.72.27c.84,2.5.47,2.89-1.86,1.69-.75,1.89-.89,2.02-1.78.07-2.47-2.34.89-7.8,4.08-7.11.81-3.57,3.19-7.46,6.81-8.58.88.15,1.76-.42,2.44-.88,1.25-.05.58,1.49.63,2.41.07,1.08-1.68-.2-2.41.33Z"/>
      <path class="cls-16" d="M30.2,74.89c1.71,0,1.95,1.21.72,3.62,1.99-.25,1.2,1.45-.3,2.07-1.64,2.31-3.16,2.23-2.99-.88-1.48-1.01-3.59-.67-5.26-.95-1.95-.99-1.55-2.95.69-3.3-1.41-1.05.13-2.7,1.62-1.94-.68-3.37,2.62-4.19,4.07-1.26l.47.7c.46.45.79,1.1,1,1.94Z"/>
      <path class="cls-64" d="M22.06,70.31c-.36.85-.46,1.84-.28,2.97.89.13,1.31.85,1.26,2.17-.3,1.08-.65,2.19-.69,3.3v1.24c-.02.42-.45.88-.64.68-.42-.45-.68-.88-.97-1,.11-1.61-1.29-2.91-1.62-4.37-1.58-1.44-2.46-3.84-2.49-5.87-2.46.72-1.37-2.1.61-2.11.41-2,1.77-2.01,2.6-.13,1.22.53,1.94,1.91,2.21,3.11Z"/>
      <path class="cls-4" d="M27.43,86.06c0,.78-.53.68-.97.81-1.58.46-2.87-3.72-1.64-5.64.5-.78,1.63-1.42,2.8-1.53.97.66,1.91.52,2.99.88-.3,2.05-2.88,3.41-3.18,5.48Z"/>
      <path class="cls-32" d="M24.79,89.97c-1.32,3.59-5.3,5.76-6.39,1.28-.87.47-1.14.18-.83-.8-1.05-1.09-.03-2.4,1.35-1.48,0-1.16,1.19-1.49,3.59-.98.89.38,1.47,1.46,2.28,1.97Z"/>
      <path class="cls-26" d="M22,94.5l-1.35,1.48c-1.85,1.39-3.6-1.23-3.53-2.99-1.1-2.06-.68-2.64,1.27-1.73,1.14.52,2.21,1.37,3.16,1.23,1.41-.21,2.55-1.73,3.23-2.51.29.19.63.33.88.59-.63,1.68-1.95,3.3-3.67,3.94Z"/>
      <path class="cls-130" d="M22.5,88c-1,.85-2.31,1.12-3.59.98-1.37.35-1.88-.57-1.54-2.76-.44-.47-.68-.95-.07-1.41,1.39,1.57,3.31,2.38,5.2,3.2Z"/>
      <path class="cls-13" d="M22.74,95.17l-.74-.67c1.21-1.33,2.37-2.7,3.67-3.94.57,1.97-1.92,3.16-2.93,4.61Z"/>
      <path class="cls-121" d="M33.31,79.1c-.7,1.09-1.42,1.89-2.7,1.47l.3-2.07c.44-3.09,2.29-3.18,3.07-.15-.22.24-.5.47-.67.74Z"/>
      <path class="cls-79" d="M20.65,95.97l-.67.74c-.56,1.38-1.5,3.22-2.99,2.98-1.25,1.49-1.79.94-.81-.82.7-.91,1.48-1.89,1.27-3.08-1.42.65-2.62.07-3.16-.68-.37-.52-.99-2.21.29-1.97,1.04.19,1.55.78,2.16.64.26-.06.24-.58.39-.79,1.31.72,2.84,1.56,3.53,2.99Z"/>
      <path class="cls-106" d="M15.33,103.3l-.74-.67c-2.41-1.71-.19-4.17,2.39-2.94l2.99-2.98c.29,2.89-3.19,4.33-4.65,6.59Z"/>
      <path class="cls-113" d="M4.16,106.65c2.75,1.86,4.36,5.33,7.39,6.73.17.97.58,2.18,1.54,2.76.54.48,2.13.55.95,2.02-1.74-1.24-2.76-2.25-3.84-3.3-2.97-1.95-5.77-4.26-8.4-6.93-4.38-1.94.31-6.06,2.35-1.29Z"/>
      <path class="cls-73" d="M35.14,72.65c-.06.47-.01.95.07,1.41l-.67.74c-1.18,2.46-2.49,1.96-2.3-.76.05-.52.32-.71.83-.59.12-.85-.79-1.65-.1-3.36,1.57.2,1.22,1.92,2.19,2.55Z"/>
      <path class="cls-112" d="M33.72,63.4c.13.32.62.49.82.78-.65.25-1.61,1.5-2.37,1.66-.52,1.87-3.68,4.6-4.71,2.33-.48-.33-1.22-.5-1.61-1.77,2.3,0,5.02-2,6.18-3.3.18-.2.49-.7.8-1.24.14-.25.85-.36.81.46-.01.27-.05.72.08,1.06Z"/>
      <path class="cls-50" d="M28.72,70.53c.36.41.05,1.26.02,1.72-1.52-.33-2.9.3-4.07,1.26-1.76.73-2.08-.33-.97-3.16.44-.58.78-1.23,1.07-1.89.61.32,1.47.15,2.06.5,1.89-.66,2.75-.31,1.89,1.57Z"/>
      <path class="cls-117" d="M28.72,70.53c-.51-.59-1.22-1.17-1.89-1.57l.63-.78c1.92.14,2.8-1.93,4.71-2.33,1.19,2.35-1.68,3.55-3.44,4.68Z"/>
      <path class="cls-55" d="M33.05,73.45c-.29.15-.52.47-.83.59.48,2.6-.23,2.7-2.02.85-.26.31-.72.55-.95.37-.7-.53-.74-1.58-.04-2.31,1.3-.03,2.6.1,3.85.51Z"/>
      <path class="cls-29" d="M24.67,73.51c-.29.74-1.41,1.19-1.62,1.94-.48.89-1.13.24-1.32-.41-.16-.56-.19-1.13.05-1.76-.52-1.02-.53-2.2.28-2.97.54.04,1.1-.11,1.64.04.3,1.06.4,2.2.97,3.16Z"/>
      <path class="cls-14" d="M35.33,76.89l-1.35,1.48c-1.01-.64-2.08.16-3.07.15-1.26-.02-3.05-1.09-2.88-2.26.86-.21,2.02.23,2.2-.28.12-.35-.21-.9-.04-1.08.57-.41,1.37-.61,2.02-.85l2.3.76c-.01.78.35,1.47.81,2.09Z"/>
      <path class="cls-91" d="M16.18,98.87l.81.82-2.39,2.94c-.4.49-1.06.92-1.35,1.48l.14-2.35c.02-.36-1.83.53-2.37.28-1.74-.92-2.24-3.38-1.63-5.15-.14-1.59.58-3.35,2.23-3.7-.33,3.5,2.4,4.72,4.56,5.69Z"/>
      <path class="cls-134" d="M11.02,102.03c-1.42-.65-3.14-1.01-4.27.27-2.34-.48-.87-3.15.78-3.73.28-.73,1.39-1.1,1.86-1.69,1.62.37,2.95,3.77,1.63,5.15Z"/>
      <path class="cls-94" d="M6.75,102.3c-.04.68.18,1.46-.36,2.02,1.35,1.7.44,2.01-1.55,1.6-3.75-.13-4.48-1.15-2.21-3.07.51-1.66,2.53-2.67,3.13-4.21.57-.21,1.19-.27,1.78-.07-.45,1.17-.71,2.49-.78,3.73Z"/>
      <path class="cls-134" d="M9.23,107.16c-1.51.21-3-.72-4.39-1.25l1.55-1.6,2.84,2.85Z"/>
      <path class="cls-105" d="M16.08,89.11c1.7,1.33,1.03,2.07-2.02,2.22-.62-1.61.79-4.32,2.63-4.37,1.72.51,1.45,2.84-.61,2.15Z"/>
      <path class="cls-100" d="M17.56,90.46c.27.24.5.65.83.8l-1.27,1.73c-.34-.44-.3-1.94-1.31-1.81-.45.06-1.07.51-1.75.16l2.02-2.22c1.2-1.53,2.26-.28,1.48,1.35Z"/>
      <path class="cls-28" d="M18.91,88.98l-1.35,1.48-1.48-1.35c.53-.59,1.14-1.38.61-2.15l.67-.74c.73.77,1.15,1.8,1.54,2.76Z"/>
      <path class="cls-137" d="M21.79,73.28c-.97-.16-1.49-1.02-1.42-1.7.09-1.02.95-1.33,1.7-1.28.14.63,1.01,1.21.73,1.87-.23.55-.58.92-1.01,1.1Z"/>
    </g>
    <g id="front-leg">
      <path class="cls-51" d="M42.03,66.95c-.39-1.71-2.45-4.52-2.81-7.95s1.57-10.43-.44-11.75-7.7-1.02-10.16,1.67-8.37,10.59-8.91,13.93c-.54,3.34-2.4,6.51,4.16,10.4,6.56,3.89,9.54,2.09,11.2,1.2,1.66-.89,6.96-7.5,6.96-7.5Z"/>
      <path class="cls-133" d="M61.06,104.22c-1.73.04-3.45.18-5.17.4-.93.12-1.88.28-2.69.75-.68.39-1.24.97-1.76,1.56-1.45,1.63-2.77,3.37-4.09,5.11-.14.19-.29.38-.35.6-.05.18-.05.36-.05.54,0,.33,0,.66,0,.98,0,.69.02,1.42.35,2.03.42.78,1.27,1.21,2.06,1.59.51.25,1.07.51,1.63.43.52-.07.96-.41,1.37-.74,1.24-.99,2.47-1.98,3.71-2.97,1.26-1.01,2.52-2.02,3.6-3.21.35-.39.68-.79,1.07-1.14.47-.43,1.04-.78,1.34-1.34.24-.45.29-.97.47-1.45.18-.48.48-.9.7-1.36s.35-1.01.16-1.48-.8-.8-1.24-.54l-1.13.21Z"/>
      <path class="cls-62" d="M28.31,76.49c1.87-1.53,3.12-.95,3.75,1.74l.63-.52c2.42,1.62,4.57,3.6,6.47,5.96,2.39,1.25-.04,4.35-1.95,3.9.72,2.03.4,2.48-.96,1.34.24,1.92-.51,2.03-1.25.21l-.57-2.7c-.77-1.51-1.7-3.07-2.78-4.65-2.14-1.19-3.55-2.95-4.7-5.02-.3-1.9.44-2.01,1.36-.25Z"/>
      <path class="cls-46" d="M29.19,73.54c2.3.52,1.58,3.32-.88,2.95l-1.36.25c-.83-1.48-2.84-2.35-3.58-3.96.27-.1.65-.61.82-.84,1.78-1.5,4.12-.28,5,1.59Z"/>
      <path class="cls-46" d="M34.43,86.42c-.48-.82-2.05-1.1-2.38-1.96-.27-.71-.89-1.99-.4-2.7,1.83,1.02,4.68,2.56,2.78,4.65Z"/>
      <path class="cls-103" d="M23.63,69.04c.19-2.15,1.58-4.06,3.34-2.47,2.23-1.54,2.59-1.39,1.79,1.27.66.6.5.82-.42.69.23,2.23-1.97,4.13-4.15,3.41-.42-.53-1.28-.71-1.74-1.2l1.18-1.71Z"/>
      <path class="cls-111" d="M27.59,65.78c.51.76.3,1.02-.61.79-1.3.53-2.55,1.32-3.34,2.47-.18-.96-.37-2.47.1-3.34,1.34-.15,1.59-2.52,2.71-2.82,1.67-.45,1.12,2.07,1.14,2.91Z"/>
      <path class="cls-155" d="M29.9,62.65c1.87-1.18,2.19.32,1.11,2,1.26-1.47,2.54-.28,1.42,1.33.09,1.77-2.27,2.61-3.67,1.87l-1.79-1.27.61-.79c1.46-.39,1.85-1.86,2.31-3.14Z"/>
      <path class="cls-122" d="M44.91,107.16c1.44.92,2.35,2.36,2.74,4.31l2.42-.11c.22-2.94.81-2.72,1.9-.06-.53,1.27-1.14,2.51-1.83,3.7-1.83,1.39-5.01-.31-5.94-2.31l-2.72-5.87c.79-3.16,2.75-2.44,3.43.34Z"/>
      <path class="cls-128" d="M56.96,108.01c.6-1.24,1.94-1.37,2.26.15.76-.51,1.02-.3.79.61-.54,2.09-2.42,4.63-4.42,5.28-.51.48-1.28.97-1.9,1.2-.27-.56-.06-1.26.62-2.12.84-1.48,2.73-3.24,2.65-5.13Z"/>
      <path class="cls-133" d="M54.31,113.14c-.25.62-.11,1.56-.62,2.12-.11.04-3.06,4.56-2.02.96.81-1.08,1.7-2.11,2.64-3.09Z"/>
      <path class="cls-39" d="M40.2,99.73c.62.4,2.1.63,4.43.69l-.35,3.71c.46-.67,1.47-.73,3.02-.18,1.37-1.37,1.95-.86,1.17.96.67,2.11-1.95,4.53-3.56,2.25-1.07-.53-2.29-.76-3.43-.34-1.01-2.18-1.8-4.73-3.34-6.42-1.31-3.06,1.43-3.89,2.06-.67Z"/>
      <path class="cls-129" d="M38.63,95.81c1.24-2.22,2.22-1.73,3.24.35,1.37-1.2,3.17-.19,2.5,1.61.79.73.66,1.02-.41.89.41,2.49-2.39,1.9-3.77,1.06-.35.07-.84-.34-1.25-.19s-.7.45-.81.87l-.47-.51c-.62-.67-.92-1.73-1.58-2.45-.06-.49-.06-1-.16-1.49.6-2.81,1.63-2.67,2.7-.14Z"/>
      <path class="cls-145" d="M36.54,73.66c1.71-2.49,3.02-1.57,2.88,1.41.07.44.08.8-.08.91-2.71,1.86-.96-1.08,1.02-.37.2.07.18.78.09,1.66,1.53,1.53-.15,4.77-1.3,6.41-3.23.82-6.48-2.7-6.47-5.96-.72-2.86.93-4.77,3.84-4.06Z"/>
      <path class="cls-167" d="M32,73.27c1.53.44,1.55,2.09.06,4.97-1.4-.17-2.61-.95-3.75-1.74.52-.91.96-1.89.88-2.95-2.61-.85-2.7-1.52-.41-3.03,2.59-1.15,4.53-.03,3.22,2.76Z"/>
      <path class="cls-49" d="M37.21,87.58l2.99-.56c1.64-.51,2.58-.36,1.68,1.34,1.94-.21,1.94.59.01,1.21.9,3.73-3.18,5.28-4.82,1.4-.12-.72-.6-1.36-.82-2.04l.96-1.34Z"/>
      <path class="cls-119" d="M33.6,72.73c.78-2.22,2.29-2.48,2.67.1.74.01.81.29.27.83-1.69.92-3.1,2.27-3.84,4.06-.13.31-.24.57-.63.52-.49-1.62-.3-3.31-.06-4.97-.14-1.84.59-2.09,1.6-.54Z"/>
      <path class="cls-131" d="M40.18,83.98c2.19-1.84,3.11-.71,1.99,1.75,1.37,1.35-.44,1.91-1.96,1.28-.43.55-.75,1.35-.74,1.91.03,1.16-.91.9-1.5.15-.33-.41-.59-.96-.75-1.5.79-1.1,1.95-2.43,1.95-3.9.53-.8.86-.68,1.02.3Z"/>
      <path class="cls-152" d="M28.34,68.54c1.64-1.05,2.1-.41.97,1.22.49.63.29.87-.54.75.21,1,.33,2.01.41,3.03-1.88.48-3.79-.06-5-1.59.88-1.59,2.14-3.34,4.15-3.41Z"/>
      <path class="cls-101" d="M32.43,65.97c.45-.75.66-.58.66.38,3.67,1.1-1.1,6.85-3.78,3.4l-.97-1.22.42-.69c.76-1.26,2.3-1.53,3.67-1.87Z"/>
      <path class="cls-37" d="M35.42,59.96l.93,1.17c1.68,1.39,1.31,1.66-.57,2.29.33,2.12-.66,2.22-1.63.19-1.26,1.76-2.04,1.13-1.29-1.02-1.82-.17-1.71-.83-.17-1.72.89-.36,1.56-1.65,2.74-.91Z"/>
      <path class="cls-19" d="M32.68,60.87c.09.57.16,1.14.17,1.72.63,1.43-.37,3.05-1.83,2.05l-1.11-2c.45-1.26,1.81-1.37,2.78-1.77Z"/>
      <path class="cls-89" d="M32.84,62.6c.26.52.73.89,1.29,1.02,2,1.85,1.65,2.73-1.04,2.74-.2-.15-.48-.21-.66-.38l-1.42-1.33,1.83-2.05Z"/>
      <path class="cls-72" d="M52.22,105.46c1.18.23,1.25,1.9.2,5.01-.19.21-.35.56-.45.82-.55-.07-1.4-.29-1.9.06-.82,1.03-1.73.96-2.63-.02-2.79-3.06,1.53-6.44,4.77-5.88Z"/>
      <path class="cls-54" d="M54.48,104.54c.41,2.17-.64,4.4-2.06,5.94-2.45-1.18.52-2.88-.2-5.01-1.1-1.25-1.58-2.2,0-2.96l2.26,2.04Z"/>
      <path class="cls-158" d="M60.62,107.99l-.61.79-.79-.61c.7-.83,1.73-1.87,1.05-2.98.76-.38,1.51-.9,2.72-.48-.82,1.62-1.7,2.32-2.37,3.29Z"/>
      <path class="cls-65" d="M48.47,104.91c-1.09-1.63.37-2.55,1.68-1.06.92-1.13,1.61-.59,2.07,1.61-1.37,1.05-3.2,2.01-4.35,4.2-.62,1.17,1.5,1.55,2.21,1.7-.42.3-.5,1.18-1.24,1.82-.23.2-.77.38-1-.64-2.43-.95-3.8-3.18-2.92-5.38,1.27-.61,2.37-1.5,3.56-2.25Z"/>
      <path class="cls-1" d="M43.96,98.67c3.36-1.79,6.5,2.84,1.58,2.65.6,2.14.18,3.07-1.26,2.81-.86-.67-.07-2.65-1.4-2.97-.94-.22-1.84.11-2.66-.24-.5-.21-.77-.78-.02-1.18,1.28-.25,2.56-.56,3.77-1.06Z"/>
      <path class="cls-157" d="M50.15,103.85l-1.68,1.06-1.17-.96c-.78.55-1.03.34-.79-.61-.49-5.65,5.95-3.2,3.64.52Z"/>
      <path class="cls-65" d="M45.54,101.31c1.95-.6,2.29.41.96,2.02.16.26.55.42.79.61-.26.91-.57,2.1-1.61,1.28l-1.41-1.11c.14-1.04.64-1.98,1.26-2.81Z"/>
      <path class="cls-47" d="M44.95,97c.85-.55,2.07-.43,3.67.37,1.12-.53,1.82.28,2.08,2.42.75.75,1.32,1.66,1.53,2.71.12.98.16,1.98,0,2.96-.71-.38-1.63-.89-2.07-1.61s-.24-2.22-1.41-2.12c-1.01.09-1.68,1.02-2.23,1.6-.38-.64-.64-1.35-.96-2.02.56-.59,1.05-1.55.17-2.08-.48-.29-1.11-.44-1.75-.57.28-.22.44-.54.41-.89-.74-.96-.55-1.21.57-.77Z"/>
      <path class="cls-17" d="M41.89,89.56c3.48-.68,4.77,4.74.58,4.28,2.1,1.2,1.77,1.91-.59,2.32-1.07.49-2.25.22-3.24-.35-.02-1.77-1.29-3.14-1.57-4.85,1.74,1.13,3.49-.13,4.82-1.4Z"/>
      <path class="cls-124" d="M42.47,93.84c1.83-2.19,4-1.27,3.49,1.59,1.85,1.05.99,2.15-1.01,1.57-.45.05-.6.34-.57.77-.89-.45-1.73-.98-2.5-1.61.18-.7.09-1.74.59-2.32Z"/>
      <path class="cls-51" d="M40.49,67.18c.4-.85.91-.92,1.54-.23,3.11.74,7.33,7.28,3.27,9.17.35,2.96.36,4.32-2.67,2.75-2.22,1.74-2.57,1-2.17-1.61-.87-1.05-2.27-.42-3.28-.29-.36-1.78,1.66-1.44,2.24-1.91-.55-1.51-.31-3.38.7-5.62-2.61-.5-2.28-2.01.37-2.26Z"/>
      <path class="cls-109" d="M40.12,69.44c.7.61,1.79,1.4,1.65,2.16-.26,1.37-1.44,2.74-2.35,3.47-.82-.72-1.82-1.19-2.88-1.41-.15-.25-.46-.51-.27-.83-1.12-2.39,1.64-4.89,3.85-3.38Z"/>
      <path class="cls-86" d="M42.63,78.88c2.87.91.35,5.79-2.45,5.1-.24-.15-.75-.23-1.02-.3,0-2.22.47-4.34,1.3-6.41.56.68,1.57.95,2.17,1.61Z"/>
      <path class="cls-40" d="M33.09,66.36c.07-.96.7-1.88,1.04-2.74.55.15,1.13.09,1.63-.19,1.5-2.34,3.11,2.53,3.03,3.58-.15,2.04-3.45,4.55-5.2,5.73-.5.28-1.03.49-1.6.54l-3.22-2.76c.08-.32.26-.57.54-.75,1.06-.39,2.13-.61,3.32-1.2.76-.38.4-1.34.46-2.2Z"/>
      <path class="cls-173" d="M44.79,87.91c1.36-.15,2.14.37,2.16,1.78,3.35,1.3,2.37,5.41-.99,5.74-1.14-.57-2.37-.97-3.49-1.59,1.16-1.36.39-2.95-.58-4.28v-1.21c-.48-2.05,2.37-2.08,2.9-.44Z"/>
      <path class="cls-6" d="M42.17,85.73c3.32-1.7,7.21,1.65,2.62,2.18-1-.31-2.12-.31-2.91.44l-1.68-1.34c.43-.56,1.61-.62,1.96-1.28Z"/>
      <path class="cls-140" d="M36.34,61.13c.8.13,1.58.33,2.35.58.1.74.6,1.73.33,2.59,1.17.97,1.66,1.93,1.47,2.88-.34.71-.51,1.49-.37,2.26-1.35,1.05-2.71,2.1-3.85,3.38-.89-.11-1.78-.17-2.67-.1-1.42-2.58,3.3-3.43,3.63-6.4.14-1.24-.7-2.05-1.47-2.91-.59-.66.11-1.81.57-2.29Z"/>
      <path class="cls-172" d="M42.63,78.88c1.09-.72,2.13-1.55,2.67-2.75,3.42-.37,4.87,6,3.06,8.59.55.7.34.93-.56.73l-1.65,1.54c-.26-1.77-1.59-2.19-3.97-1.26-.76-.42-1.26-1.29-1.99-1.75l2.45-5.1Z"/>
      <path class="cls-137" d="M41.18,64.74c.68.52.46,1.6.85,2.21-.5.15-1.01.24-1.54.23-.82-.69-1.83-1.73-1.47-2.88.14.44.59.88.95.99s1.21-.08,1.2-.55Z"/>
      <path class="cls-156" d="M49.81,94.59c1.16,1.46,1.42,3.43.88,5.2-.95-.56-1.72-1.37-2.08-2.42-1.2.22-1.74-.05-1.22-1.22-.29-1.76,1.43-3.57,2.41-1.55Z"/>
      <path class="cls-24" d="M50.15,92.11l-.34,2.48c-1.02.08-1.82.76-2.41,1.55-1.03,1.05-1.67.74-1.44-.72.65-1.01,1.91-1.77,2.09-3.18.11-.86-.52-1.82-1.1-2.56-.4-.89-.04-1.12.96-.77l2.24,3.19Z"/>
      <path class="cls-129" d="M45.96,95.43l1.44.72,1.22,1.22c-1.12.91-2.59.42-3.67-.37l1.01-1.57Z"/>
      <path class="cls-110" d="M47.8,85.45c.61,1.07.64,2.36.12,3.47-.35.21-.67.47-.96.77-.36-.2-1.34.11-1.72-.16-.33-.24-.27-1.26-.45-1.62l.73-1.86c-1.16.11-2.38.23-3.36-.32,1.22-2.31,3.6-.91,5.63-.28Z"/>
      <path class="cls-22" d="M36.25,88.91c1.31.23,2.16,1.24.82,2.04,2.95.9,4.54,2.75,1.57,4.85-.9.01-1.81.02-2.7.14-.46-2.26-.47-4.6-.93-6.82l1.25-.21Z"/>
    </g>
    <g id="head">
      <path class="cls-85" d="M39.42,0l1.31.89c2.73.81,2.87,1.52.34,2.89-.19.92-.56,1-1.12.25-.39,2.63-4.03.72-5.35-1-.16.91-.5.94-1.01.15-1.93.28-1.97-.51-.06-1.21l5.87-1.97Z"/>
      <path class="cls-144" d="M45.54,2.1l.2,1.07c.65.7,1.14,1.39.28,1.94-.45,2.79-5.71,1.52-4.94-1.34-.02-.97-.14-1.94-.34-2.89,1.7-.15,3.26.57,4.81,1.22Z"/>
      <path class="cls-127" d="M44.56,9.34l1.14.08c-.26,1.77-.11,3.4.46,4.89l.1.95c-1.18.9-1.04,3.56-2.99,3.42l-.64-.71c1.63,4.94-2.32,4.05-4.76.74-2.35,2.21-4.03.47-2.11-2.15l.85-2.13c5.22.57,6.91-.96,5.08-4.58-1.39-1.61-.88-2.27.96-1.16.41-1.03,2.07-.6,1.91.66Z"/>
      <path class="cls-148" d="M46.76,9.1l.14.99c-.86,1.24-.89,2.77-.74,4.22-1.5-1.06-1.15-3.32-1.6-4.97.09-1.22,1.45-1.12,2.2-.24Z"/>
      <path class="cls-76" d="M40.35,6.82c2.08.82.75,2.99-1.17,2.47.03,2.34-1.97,4.03-4.15,2.52-.77,1.53-1.34,2.43-2.88,1.23-.56-3.32-.1-6.88,1.46-9.87l1.01-.15,2.05,1.65c2.04.21,3.27.92,3.69,2.14Z"/>
      <path class="cls-66" d="M46.01,5.12c.14,1,.46,1.98.61,2.99-1.01.9-3.21.41-4.13-.58-.72,1.74-2.55,1.23-2.14-.71-2.29-1.23-2.42-2.16-.39-2.79.35-.14.76-.13,1.12-.25,1.28,1.39,3.15,2.1,4.94,1.34Z"/>
      <path class="cls-147" d="M39.96,4.02c-.03.91.53,1.89.39,2.79-2.28-.75-5.4-1.07-5.73-3.79,1.8.57,3.48,1.77,5.35,1Z"/>
      <path class="cls-127" d="M35.03,11.82c2.01,1.59,1.94,2.09-.43,3.09-.68-.29-1.54-.48-2.26-.68l-.2-1.18c.69-.87,2.05-.71,2.88-1.23Z"/>
      <path class="cls-41" d="M39.18,9.29c1.19-1.45,2.19-1.26,2.53.55,1.9-.62,2.46.7,2.44,2.25-.01,1.32.28,3.11-1.58,3.63-2.44.69-4.72.46-6.79.82-.29-.46-.63-1.41-1.16-1.64-.13-1.05-.02-2.12.43-3.09,1.31-.82,2.34-2.84,4.15-2.52Z"/>
      <path class="cls-120" d="M42.48,7.52c1.51.19,1.58.52.18,1.16-.49.13-1.44.47-.96,1.16-1.01.33-1.69-.4-2.53-.55.99-.03,1.04-1.64,1.17-2.47l2.14.71Z"/>
      <path class="cls-18" d="M46.62,8.11l.14.99-2.2.24c-.46-.53-1.21-.84-1.91-.66l-.18-1.16c1.28.42,2.83-.02,4.13.58Z"/>
    </g>
    <g id="body">
      <path class="cls-36" d="M40.63,46.64c-.54-1.59-.57-3.3-.09-4.91,1.3-4.36,3.84-12.97,3.84-14.01,0-1.4.32-5.11-1.66-6.32s-4.6-2.55-6.19-3.7-6.96-1.66-9.32-1.53-6.77.13-8.55,1.21-6.83,2.74-7.02,4.85-3.32,6.83-2.68,9.51.77,6.77.77,8.55,1.34,11.23.89,14.23-2.62,6.96-1.66,7.47,6.06.13,7.66.77,6.19,1.66,8.11,1.91,3.51,1.79,5.17,1.15,8.94-2.17,9.64-2.62,3.32-3.64,3.38-4.15-.64-5.68-.89-7.6c-.14-1.06-.81-3.16-1.38-4.82Z"/>
      <path class="cls-31" d="M32.79,12.67c1.53-1.25,2.44-1,2.13,1,2.6-1.04,3.09,0,.92,1.79.45,2.46.25,2.41-1.93,1.26-1.37,1.82-2.36,1.42-2.98-1.19l-.16-1.74.04-1.25c.59.04,1.45-.1,1.99.14Z"/>
      <path class="cls-36" d="M13.08,37.46c3.03-.78,5.76.69,2.63,2.98.21.98-.71,1.27-2.75.87l.82.36c2.4,2.51,1.06,8.04-3,6-1.27-1.91-.59-5.57-.03-8.03l-.02-1.88c-1.12-.72-1.11-1.93.44-1.67l.81-.08c2.22-1.49,2.65-.68,1.08,1.45Z"/>
      <path class="cls-151" d="M16.9,26.64c.31.27.6.56.88.86-1.41.64-2.92,1.46-3.23,3.07-.83-.68-1.21-2.51-.69-3.39.61-1.04,2.26-.38,3.03-.53Z"/>
      <path class="cls-169" d="M30.92,15.53c2.39,1.05,1.4,2.57-.14,4.15-.26.92-.59.9-1,0-1.3,1.7-1.99,1.82-2.08.35-.44-.9-.97-1.76-1.74-2.41.49-1.98,3.18-2.07,4.95-2.09Z"/>
      <path class="cls-96" d="M35.84,15.46c.39.85.73,2.12,1.77,2.43.91.76.99,1.31.23,1.64,1.28,1.46.73,2.01-1.06,1.14-.25.87-.58.84-1,0-.71.78-1.36.76-1.96-.05-.43,1.8-1.1,2.25-2.01,1.32,1.5,3.4-3,4.54-3.26.87.2-1.12.55-2.22,1.23-3.14.31-.05.71.11,1,0,.9-2.42,1.94-3.4,3.12-2.95.34-.49,1.33-1.24,1.93-1.26Z"/>
      <path class="cls-125" d="M33.9,16.72c-.84,1.19-1.71,2.41-3.12,2.95.44-1.36.79-2.81.14-4.15,1.08,0,2.07.71,2.98,1.19Z"/>
      <path class="cls-170" d="M10.79,47.67c.83.23.8.57,0,1,1.69.33,2.52.87,1,2,1.5,2.79-.87,3.22-3,2,.97-1.99.67-4.06.75-6.14.09-2.32-.26-5.18,1.23-6.89l.03,8.03Z"/>
      <path class="cls-74" d="M17.71,44.79c2.38.74,3.97,1.72,4.78,2.95.3,2.9-.63,4.89-2.79,5.96l.43,1.13c-1.61.94-2.73,2.22-3.34,3.84.89.63.79.93-.3.9-1.69,1.18-2.79.4-3.29-2.35-1.78-1.22.28-5.56,1.73-3.7,1.02-1.93.63-3.57-1.14-4.91-.27,2.79-1.4,1.8-3,.06-.15-.22,0-.72,0-1,3.14.76,1.05-3.13,3-6,1.42-.46,2.73.58,3.92,3.12Z"/>
      <path class="cls-34" d="M33.81,23.69c2.19-.81,3.54.83,2.08,2.76,1.93.37,1.78,1.32-.13,1.93l-2.98,2.29c.96,1.25.42,1.46-1.05,1.04-.65,1.56-1.37,1.64-1.71-.03-1.26-1.05-2.34-2.39-3.24-4.02.8-1.12,1.06-2.49.97-3.85l.8-1.01c1.13.57,2.48.14,3.26-.87,1-.76,1.66-.18,1.99,1.75Z"/>
      <path class="cls-99" d="M26.79,22.67c-.72.18-.73.94-1.51,2.03-1.01-1.06-.34-2.63-.04-3.88.93.14,1.21,1.1,1.55,1.85Z"/>
      <path class="cls-115" d="M35.79,20.67l1.83,2.15c1.94.17,1.87,3.03.04,3.49.41,1.93-.96,1.76-1.77.14l-2.08-2.76c-1.06-1.14-1.36-2.12.02-3.07.37-.05.6-1.09,1.16-.67.33.24.61.45.8.72Z"/>
      <path class="cls-135" d="M37.62,22.82c-.44.02-2.27.07-2.71-.58-.24-.36,1.03-1.07.88-1.57.33.03.67-.04,1,0,.42.06.95.37,1.18.79.25.45-.35,1-.35,1.36Z"/>
      <path class="cls-38" d="M33.83,20.62l-.02,3.07c-.5-.67-1.79-.73-1.99-1.75.51-.66,1.22-1.21,2.01-1.32Z"/>
      <path class="cls-126" d="M11.79,54.67c1.29.19.89,1.75-.32,2.21,1.13,1.79,1.21,3.38.24,4.78,2.67,0,2.58,1.06.12,2.11-.5.89-.89.85-1.16-.13-.5-.31-1.25-.52-1.72-.91-.59-2.98-.65-6.05-.22-9.06,1.33-1.07,3.35-1.19,3.06,1Z"/>
      <path class="cls-78" d="M11.79,54.67c-.94-.56-1.99-.86-3.06-1,.04-.31-.07-.72.06-1,.65-.32,1.41-.45,2.06-.34,1.09.18,1.08-.85.94-1.66,2.4-1.55,3.11,3.92,0,4Z"/>
      <path class="cls-162" d="M13.79,48.62c2.06.95,3.84,3.8,1.14,4.91-1.4.45-1.91,2.43-1.73,3.7,1.85,4.18-3.79,3.3-1.73-.34.22-.67.02-1.58.32-2.21.4-.52.94-.96,1.06-1.63.2-1.12-.34-1.74-1.06-2.37-.51-.45-.61-1.44-1-2,.98-.13,2.03.14,3-.06Z"/>
      <path class="cls-163" d="M42.42,31.6l1.31,1.34c.06.54-.11,1.12-.02,1.65-.56,2.51-1.29,2.39-2.59.23-.24,2.04-1.1,1.98-1.51-.06-1.95,2.03-2.65,1.65-1.98-1.07-2.87-.73-2.51-3.18-.37-4.72l1.14-.78c1.13,1.4,2.47,2.54,4.02,3.42Z"/>
      <path class="cls-11" d="M33.71,39.58l1.08.09c.97,1.12.19,1.39-1.03,1.63-.15.03,1.63-1.54,2.03.37,1.57,1.26,1.02,2.8-.92,3.15,2.94,2.12,1.57,3.18-4.12,3.16-2.11-2.01-3.43-2.12-3.96-.32-.89.57-3.52,1.36-4.3.07-2.02-.82-3.6-1.02-4.78-2.95.93-1.48,2.96-2.19,6.08-2.12.1-.98,1.09-1.34,2.96-1.09.05-.91.36-.87.91-.04.73-1.87,1.64-1.79,2.13.13-.06-2.5,1.95-3.73,3.92-2.09Z"/>
      <path class="cls-88" d="M13.2,57.22c.56-.9,2.01-.5,2.4.27.24.47-.46,1.85.89,2.08.56,1.23-.34,1.89-2.7,1.97.45,1.54-1.61,1.59-2.08.12-.5-.88-1.28-1.58-1.63-2.67-.27-.84.49-1.72,1.39-2.12-.49,1.73,1.28,2.26,1.73.34Z"/>
      <path class="cls-20" d="M23.67,49.82c1.66-.84,2.71.57,2.42,2.14.91-.04.88.25.05.81-1.05,1.33-2.66,1.9-3.3.14-1.06,1.15-2.09,2.14-3.15.8.6-2.41-.09-5.37,2.79-5.96,2.2.59,2.6,1.29,1.19,2.08Z"/>
      <path class="cls-58" d="M22.79,60.67c2.66.29,2.46,1.24-.11,1.89-1.31,2.4-3.25,2.8-3.89.11.2-1.16-.47-1.72-2.02-1.69l-.28-1.4c.3.01.32-.65.3-.9.13-.61.33-1.04,1-1.08,2.52-1.07,5.55.12,5,3.08Z"/>
      <path class="cls-5" d="M22.84,52.91c2.01,1.18-.55,3.13-2.33,3.51-.33.81-1.23,1.2-2.72,1.18-.24.42-.71.69-1,1.08-.14-1.49,1.15-4.24,2.91-4.97.98-.41,2.13-.54,3.15-.8Z"/>
      <path class="cls-3" d="M14.93,53.53c-.16-1.68-.76-3.27-1.14-4.91,1.96-.4,3.03,1.12,4.46,2.76-.61,1.46-1.95,1.72-3.31,2.15Z"/>
      <path class="cls-21" d="M23.03,39.43c-1.88.46-2.24-1.58-3.24-2.73l.04-2.03c1.84.9,2.7,2.85,3.2,4.76Z"/>
      <path class="cls-69" d="M25.74,32.71l-.74,5.09c-1.99-.1-2.06-2.53-2.47-4.08.93-.69,2.06-.98,3.21-1.01Z"/>
      <path class="cls-136" d="M30.03,31.69c-.14.92-.5.98-1.09.22l-1.27-.29c-1.68.03-2-1.91-.88-2.94v-1c1.19.07,2.24-.22,4.06.18-.95,1.36-1.02,2.58-.82,3.84Z"/>
      <path class="cls-97" d="M27.67,31.62l-1.88.06c-1-.37-1.21-1.24-.59-1.9.52-.55,1.02-.9,1.59-1.1.83.75,1.01,1.87.88,2.94Z"/>
      <path class="cls-27" d="M37.63,33.69c.02,3.99-4.61,2.14-4.87-1.06-1.5.88-1.92.58-1.02-.92.02-.48.55-1.02,1.05-1.04.85-.8,1.84-1.56,2.98-2.29.74-.42.99.16,1.49.58.45,1.53.46,3.14.37,4.72Z"/>
      <path class="cls-114" d="M31.74,31.72c.4.13.66.7,1.02.92,1.04,2.82-.73,3.96-2.88,1.9-.5-.8-.77-1.7-.93-2.63l1.09-.22c.52-.11,1.18-.11,1.71.03Z"/>
      <path class="cls-43" d="M35.76,28.39c-.04.71-.25,1.51-.8,1.97-.63.53-1.47.28-2.18.31-.16-.74.1-1.51.7-1.8.74-.37,1.5-.44,2.28-.48Z"/>
      <path class="cls-90" d="M43.7,34.59c.86,4.91-2.36,3.16-2.05,10.08-.18,1.2-.58,2.07-1.18,2.61-.1,1.47-.75,1.48-.86.07-2.96.75-3.57-1.27-.84-2.68.08-1.88-.26-3.21-1-4-.28.87-.62.86-1,0-1.15.56-2.23.33-2-1l-1.08-.09c-.57-1.57.67-1.46,2.08-1.07.19-2.66,1.16-2.5,1.92.06,1.87-.32,3.01-1.57,3.41-3.75.84-.27,1.7-.51,2.59-.23Z"/>
      <path class="cls-118" d="M40.79,53.67l2,5c-1.39,1.31-3.11.69-5.14-1.85-.59-2.21,1.08-4.87,3.14-6.15-2.16.2-2.26-.93-.3-3.39-.09-1,.2-2.14,1.18-2.61.14,3.04.69,6.28-.87,9Z"/>
      <path class="cls-57" d="M37.7,38.57c1.46-.73,2.38-2.17,1.91-3.81.39.08,1.13.18,1.51.06.9,1,.28,2.01-.13,2.73-.69,1.2-2.31,1.41-3.28,1.02Z"/>
      <path class="cls-150" d="M34.87,44.82c1.22-2.26,1.96-2.82,2.92-.15.28-.87.62-.86,1,0-.27.83.58,1.95.84,2.68,1.9,3.07-5.24,6.05-4.84,1.32-.66.87-2,1.21-4.04,1.02.1.88-.13.88-.64.08-1.32,1.77-1.74,1.39-1.25-1.14-.62.99-1.72.02-2.07-.96-.25-1.14-1.38-1.59-2.24-3.19,5.25-1.53,9.04,5.91,10.32.34Z"/>
      <path class="cls-25" d="M26.79,47.67c.81.21,1.4.35,2.07.96,1.22,2.44-.51,2.83-5.18,1.19-.19-.72-1.22-1.22-1.19-2.08,1.21.49,3.01-.4,4.3-.07Z"/>
      <path class="cls-149" d="M37.79,44.67c-.98,0-1.95,0-2.92.15.39-1.02.7-2.08.92-3.15-1.02-1.14-.47-1.57,1-1h1c1.7.34,1.13,2.96,0,4Z"/>
      <path class="cls-82" d="M36.79,40.67l-1,1c-.84-.11-1.63.32-3.08-.3.62-.91,1.67-.88,2.08-1.7.75.07,1.42.51,2,1Z"/>
      <path class="cls-83" d="M28.95,51.65c2.19-.03,2.54.99,2.14,3,2.5-.22,2.64,0,1.55,2.24,1.77,1.21,1.17,2.15-1.03,2.01,0,2.59-3.79,2.81-3.83-.19-2.83-.14-2.92-2.35-1.26-4.17-2.06-.03-2.22-.87-.38-1.76-.08-.26,0-.55-.05-.81-.01-2.23,1.38-1.71,2.86-.31Z"/>
      <path class="cls-59" d="M28.85,48.63l1.25,1.14c2.97,1.08,1.69,3.37-1.15,1.88-.93.22-1.93.14-2.86.31-1.24-.26-2.11-.96-2.42-2.14.11-1.29,1.42-1.47,2.52-1.15.9.26,1.63,1.05,2.15,2.01.83-.88.36-1.56.51-2.05Z"/>
      <path class="cls-75" d="M26.14,52.77c.15.51.09,1.34.38,1.76-.39,2.29-1.48,3.02-3.68,2.12.04,2.11-1.87,1.52-2.33-.24.53-1.35,2.06-2.02,2.33-3.51,1.07-.27,2.21-.21,3.3-.14Z"/>
      <path class="cls-143" d="M27.02,60.63c2.93-.78,3.38.37,2.35,2.84,1.79-.21,1.92,1.43.09,1.8.18,1.95-.64,1.94-1.27,0-1.99,1.07-2.3.72-2.4-1.6-1.14.67-3.01.21-3.11-1.11l.11-1.89c-1.03-1.46-.36-1.9,1.08-.84,1.22-2.7,2.58-2.09,3.14.8Z"/>
      <path class="cls-8" d="M20.51,56.42l2.33.24c2.63.06,2.61,1.16,1.03,3.17-.13.5-.6.75-1.08.84-.85-1.97-3.03-2.65-5-3.08.56-.98,1.64-1.29,2.72-1.18Z"/>
      <path class="cls-171" d="M40.79,50.67c-1.62,2.29-2.68,2.67-3.16,1.13-.89,1.94-1.56,2.64-2.92.76-2.14.32-2.53-.81-.65-1.88-1.24-1.12-.86-1.81.74-2,1.24,1.14,1.35,2.35,3,.8.71-.67,2.27-.48,1.84-2.12.23-.57.52-.56.86-.07l.3,3.39Z"/>
      <path class="cls-82" d="M38.79,44.67h-1v-4c1.14,0,2.21-.01,2.05,1.46-.09.82-.75,1.63-1.05,2.54Z"/>
      <path class="cls-9" d="M37.64,56.82c-.41.89-.78.88-1.13-.03-2.75-2.02-1.34-3.45,1.11-4.99,1.1-.23,2.18-.58,3.16-1.13l-3.14,6.15Z"/>
      <path class="cls-153" d="M34.05,50.67c.15.65.36,1.29.65,1.88,1.74,2.48-1.78,4.37-3.61,2.09-1.44-.3-2.35-1.53-2.14-3,.78-.19,1.03-1.2,1.15-1.88l.64-.08c1.44-.57,2.91-.6,3.3.98Z"/>
      <path class="cls-23" d="M34.79,48.67c.16.76.11,1.71-.74,2-1.15-.12-2.28-.43-3.3-.98.56-1.18,2.95-1.51,4.04-1.02Z"/>
      <path class="cls-61" d="M37.62,51.8l-1.11,4.99c-1.06-.51-1.25.11-1.45.93-1.37,1.67-2.37,1.33-2.42-.83-.86-.45-1.36-1.31-1.55-2.24,1.43-.2,2.63-1.06,3.61-2.09.96-.32,1.94-.55,2.92-.76Z"/>
      <path class="cls-5" d="M26.52,54.54c1.27.98.79,2.67,1.26,4.17,2.42,1.49,2.02,2.26-.77,1.92-1-.42-2.05-.75-3.14-.8-.59-.97-.94-2.05-1.03-3.17.75-1.34,2.11-2.3,3.68-2.12Z"/>
      <path class="cls-2" d="M30.76,13.79c1.95.19,2,1,.16,1.74.11,2.64-3.01,2.55-4.95,2.09-1.29-.22-2.44-.88-3.26-1.9,2.34-1.61,5.26-1.88,8.05-1.93Z"/>
    </g>
    <g id="back-arm">
      <path class="cls-60" d="M66.63,4.21c-.26,1.8-.65,3.66-1.9,5.04-.27.88-.6.87-1,.02.25-.93-.23-2.05-.06-3,1.75-1.49.3-3.84,1.32-6.05,1.21,1.49.22,3.34,1.64,3.99Z"/>
      <path class="cls-165" d="M62.77,11.29c.84.28.84.61.02,1,.23,4.72-1.1,7.73-3.97,9.06-2.72,3.45-3.94-1.67-3.09-4.31-.03-2.66,2.68-3.72,3.7-5.87,1.11.13,2.23.16,3.34.12Z"/>
      <path class="cls-104" d="M58.81,21.34c.53.32.47.63-.12.92.2,4.07-.97,5.41-3.48,4.02-2.2-1.07-2.57-2.98-1.13-5.72-.05-.88,1.01-2.34.63-3.37l1.02-.17c1.55,1.2.77,4,3.09,4.31Z"/>
      <path class="cls-139" d="M64.73,9.25c.16,2.05.18,4.2-.88,6.02v2.06c-1.79.84-2.14-.84-1.06-5.04-.17-.24.05-.71-.02-1-.21-.84.79-1.38.96-2.02l1-.02Z"/>
      <path class="cls-98" d="M58.69,22.27c1.32.43.93,3.72.45,5.2.81.28.71.52-.18.73-.65,1.38-1.56,1.03-2.74-1.05-.99,2.39-2.41,1.88-2.22-.72-.67-.7-1.37-1.36-2.24-1.8.23-1.6,1.21-2.91,2.32-4.05.97,1.16-.66,3.64.91,4.78,2.61,1.9,3.07-1.64,3.7-3.09Z"/>
      <path class="cls-52" d="M63.85,17.33l-3.72,6.01c-.6-.06-1.04-.73-1.32-2,.29-1.91,2.41-2.94,2.95-5.2.35-1.46-.37-3.48,1.03-3.86,1.21,1.75-1.15,4.37,1.06,5.04Z"/>
      <path class="cls-132" d="M60.13,23.34l-.07,3c.59,1.13.3,1.61-.92,1.12l-.45-5.2c-.02-.29.08-.64.12-.92.95.13,1.34,1.17,1.32,2Z"/>
      <g>
        <path class="cls-132" d="M44.12,20.63c1.38,2.73,4.63,4.21,7.64,4,1.4-1.76,2.27-.23,2.24,1.8-.2,1.04-.47,2.36-.78,3.96,1.57.95,1.79,2.03-.28,1.96q-3.23-.06,0,0c1.43-1.01,2.23-.39,2.35,1.32,3.41,3.42-3.38,6.91-3.95,2.01-4.17,1.55-6.23,1.29-6.16-.77-1.64,1.63-2.49.71-1.33-1.31-2.24-1.03-6.01-3.69-2.6-4.91-.98-1.1-1.43-2.72-1.34-4.86l-.87-2.2-.26-1.63c.89.24,1.99,1.7,2.8,1.58,1.05-.16,1.21-2.52,2.16-3.22,1.78.67.32,1.43.4,2.29Z"/>
        <g>
          <path class="cls-142" d="M41.23,28.68c-.3,2.53-1.91,2.1-2.26-.28l-.11-3.49c-1.06-.21-1.19-.96-.87-2.13l1.03-1.16c2.5,1.61,2.73,4.33,2.21,7.06Z"/>
          <path class="cls-30" d="M38.98,28.4l2.26.28c-.39,2.04,1.63,3.36,2.6,4.91-2.1.26-3.67-1.27-5.21-2.53-.96,1.25-1.63.98-1.5-.55-.06-.65,0-1.29.09-1.93l1.77-.17Z"/>
          <path class="cls-42" d="M54,26.42c.58.61,1.47.57,2.22.72,3.11,1.7.94,5.96-2.08,3.21-.18.89-.49.87-.92.03-.64-.79-1.32-1.73-1.42-2.44-.22-1.52,1.1-1.91,2.2-1.52Z"/>
          <path class="cls-45" d="M52.94,32.34c-1.12,1.1-3.18,1.76-4.1.45.44-.61.85-2.08,1.64-1.78.89.34,1.69.93,2.46,1.33Z"/>
          <path class="cls-15" d="M44.13,29.65c-.26-1.31.06-1.99.96-2.02l2.94-2.1c-.08,1.85-.6,3.26-1.31,4.79-.4.88-2.93.51-2.59-.67Z"/>
          <path class="cls-48" d="M56.47,32.85c-.15.5-.88.57-1.18.81-.77-.47-1.55-.9-2.35-1.32.42-.41.1-1.45.28-1.96l.92-.03c3.03-.78,3.26-.57,2.33,2.49Z"/>
          <path class="cls-123" d="M45.09,27.64c.04.8-.16,1.69-.96,2.02-.53-1.09-1.02-1.87-1.03-2.39,0-.48.88-1.29,1.46-1.44.46-.12.42,1.83.53,1.81Z"/>
        </g>
      </g>
      <path class="cls-132" d="M58.96,28.2c-.66,1.47-1.31,2.96-1.54,4.57-.31.06-.63.08-.95.08-.67-.93-1.4-1.82-2.33-2.49.98.33,1.97.43,2.63-.6.57-.89-.17-1.7-.55-2.61.96.2,1.87.63,2.74,1.05Z"/>
    </g>
    <g id="front-arm">
      <path class="cls-154" d="M18.71,28.23c-1.44,1.2-1.92,2.65-1.44,4.34.86-.08.95.14.27.68.24,2.3-.29,4.03-1.59,5.18.11.89-.15.96-.78.26-1.46-.36-2.24-1.76-2.36-4.21-2.14.4-1.14-2,.18-2.89.59-.93,2.05-3.19,1.29-4.39l.98-.18c1.09-1.87,4.72-.9,3.43,1.21Z"/>
      <path class="cls-44" d="M25.62,17.45c2.25-1.88,3.16-.8,2.22,1.98.28,1.77-.56,1.95-2.52.54-1.22-.39-2.36.25-3.44,1.9-.54,4.18-4.39,1.06-1.95-.31l-1.04-1.43c.43-.99.76-2.07,1.51-2.89.42-.46,1.06-.7,1.61-.94,1.72-.83,3.22-.92,3.6,1.15Z"/>
      <path class="cls-7" d="M21.88,21.88c1.15,1.18,1.74,2.86.13,3.64-1.18,2.44-5.29,1.87-5.08-.9.42-1.59,1.31-2.98,1.96-4.48.18.06.99-.38,1.38-.36.43.03.24,1.23.09,2,.41,1.13,1.15.96,1.52.1Z"/>
      <path class="cls-166" d="M22.01,25.52c1.66-1.29,3.26,1.55,1.72,2.75-.44.7-1.4.86-2.89.47-.2.89-.56.93-1.08.14-.65.54-.98.28-1.05-.65-.78-1.13-2.1-1.45-3.43-1.21.14-1.02.82-1.83,1.65-2.41,1.17,1.54,3.36.79,5.08.9Z"/>
      <path class="cls-146" d="M17.55,33.25c.13-2.08,1.53-2.12,1.99-.03,2.01-.11,2.36.74.56,1.81,1.91.06,2.34,1.19.56,2.03.45,3.18-.43,3.38-3.33,2.56l-1.37-1.18c-.29-.98-.85-2.11-.74-3.57.06-.82,1.26-1.43,2.33-1.62Z"/>
      <path class="cls-10" d="M20.84,28.74c1.04-.48,2.57.41,2.37,1.65,4.41-1.09,3.26,3.98-.3,3-1.12.62-2.8,1.07-3.38-.17l-1.99.03c-.13-.21-.22-.43-.27-.68-1.4-2.19.04-3.95,2.49-3.69.26-.19.78,0,1.08-.14Z"/>
      <path class="cls-84" d="M15.18,38.69c.18.53-.2,1.19-.07,1.73-1.45.22-2.12-1.26-2.54-2.2-.65-1.45.18-2.53.26-3.73,1.53.8,1.85,2.67,2.36,4.21Z"/>
      <path class="cls-12" d="M25.32,19.98c-.67,1.03-.92,2.04-.76,3.05,3.06,2.56,3.61,8.08-.83,5.24-.04-1.2-.59-2.28-1.72-2.75.09-1.21-.16-2.43-.13-3.64.02-.87.72-2.27,1.49-2.77.58-.38,1.52.52,1.95.86Z"/>
      <path class="cls-164" d="M27.84,19.43l1.95-.79c1.63,1.08,1.21,2.57-.52,3.33,1.7.92,1.36,1.6-.57,1.16-1.37,1.34-1.86.87-1.2-.91-.75.84-1.39.35-1.92-1.47-.48-.12-.57-.38-.28-.77.86-.09,1.72-.22,2.52-.54Z"/>
      <path class="cls-67" d="M23.73,28.26c2.41,1.06,2,1.76-.52,2.12-1-.18-1.8-.83-2.37-1.65-.18-.65-.41-1.39.05-2.02,1.26,1.24,1.89,1.8,2.84,1.54Z"/>
      <path class="cls-33" d="M23.71,37.43c.92-.17,2.18.48,3.76,1.97,1.2-1.72,2.73-1.23,1.99.83-.01.96-.38,1.13-1.1.48-.14,2.76-3.89,3.05-6.15,2.99-1.19.66-2.79-.5-1.67-1.74.04-1.71-2.14-1.41-3.22-2.34,1.07-.9,2.16-1.79,3.33-2.56.89-1.31,2.41-1.26,3.05.38Z"/>
      <path class="cls-53" d="M20.54,41.96c-.02.61,1.31,1.25,1.67,1.74,2.56-1.45,3.43.08,1.23,2.08l-4.5-2.2c-.7.38-.98,1.87-2.37.59.76-2.07,2.71-1.73,3.98-2.21Z"/>
      <path class="cls-138" d="M22.08,34.69l1.23.75c1.03.8,1.72,1.38.4,1.99-.82-.14-2.39.73-3.05-.38l-.56-2.03c-.18-1.39,1.37-1.63,1.98-.34Z"/>
      <path class="cls-93" d="M22.91,33.39c1.88-.55,2.07.27.31,1.27.16.44-.22.45-1.13.03l-1.98.34-.56-1.81c1.07-.02,2.61-.87,3.38.17Z"/>
      <path class="cls-81" d="M25.59,20.75c.56.94,1.2,1.43,1.92,1.47.3.4.79.65,1.2.91,3.27,1.17,3.07,2.73-.11,3.97.91.09.97.42.22.98.33.93.22,1.98-.33,3.15.91.14.96.48.18,1.02-.25,2.44-.68,2.95-2.91,1.68.47,2.14-.98,1.68-2.54.75l-.31-1.27c.8-.13,1.64-.58,1.37-1.48-.17-.55-.84-.96-1.07-1.53-.13-.69.36-1.47.52-2.12,4.37-.71-1.72-4.1-.12-7.18.28-.54.62-1.59,1.71-1.11.67.29.63.37.28.77Z"/>
      <path class="cls-116" d="M28.36,40.71c1.71-.26,2.33.86.55,1.69-.26.8.41,2.98-1.28,3.23-1.56.23-2.99-.39-4.2.16-.15-.84-.75-1.42-1.23-2.08.7-2.61,3.83-2.53,6.15-2.99Z"/>
      <path class="cls-156" d="M25.75,33.92c1.28-.11,2.37,1.04,3.29,3.45-.21-1.97.68-2.11,1.66-.32,2.05-1.8,3.07,1.89,1.74,3.4-.28.1-.59.15-.88.23-1.06.77-2.12,1-2.11-.46-.51-.23-1.31-1.16-1.99-.83-1.65-.89-3.04-2.21-4.15-3.96-.46-.11-.82-.56-1.23-.75l1.13-.03,2.54-.75Z"/>
      <path class="cls-95" d="M31.57,40.68c-.27,1.23-1.86,1.3-2.66,1.71l-.55-1.69c.38-.07.72-.38,1.1-.48.64.29,1.44.28,2.11.46Z"/>
      <path class="cls-27" d="M30.31,30.76c.1-1.93.87-1.92,1.3.01,1.97-.64,2.63.64,1.48,2.36.89.29.93.66.13,1.13-.09,1.7-.75,3.4-2.52,2.78-.56.04-1.11.23-1.66.32-1.65-1.06-2.5-4.08-.38-5.13l-.18-1.02c-.58-1.87,1-2.3,1.83-.46Z"/>
      <path class="cls-108" d="M40.48,30.62c.69.26,1.41.62,2.17.62,2.44.62,1.14,3.61-1.04,4.13-.61-.1-1.27.38-1.89.36-2.81,1.56-4.77,1.66-5.9.32-1.86.82-1.78-.32-.6-1.79-.12-.35-.04-.77-.13-1.13.9-.73,1.68-1.58,2.4-2.48,1.76-.92,3.57,1.75,4.98-.02Z"/>
      <path class="cls-57" d="M39.72,35.73c-.83.2-1.18,1.06-1.8,1.5-1.22.86-2,2.24-3.37,2.89-1.96-.49-3.52-4.21-.73-4.07,1.95-.44,4-1.22,5.9-.32Z"/>
      <path class="cls-161" d="M33.82,36.05c-.9,1.34.34,2.71.73,4.07-.61.29-1.47.1-2.11.33-.16-1.32-.64-2.61-1.74-3.4.53-1.17,1.43-2.12,2.52-2.78l.6,1.79Z"/>
    </g>
  </g>
</svg>