<?xml version="1.0" encoding="UTF-8"?>
<svg id="Enemy" xmlns="http://www.w3.org/2000/svg" viewBox="0 0 126.01 59.55">
  <defs>
    <style>
      .cls-1 {
        fill: #3d424e;
      }

      .cls-2 {
        fill: #0c0f1b;
      }

      .cls-3 {
        fill: #2e3c53;
      }

      .cls-4 {
        fill: #2e3a54;
      }

      .cls-5 {
        fill: #353c44;
      }

      .cls-6 {
        fill: #0d1a3b;
      }

      .cls-7 {
        fill: #141622;
      }

      .cls-8 {
        fill: #050b1b;
      }

      .cls-9 {
        fill: #242e3a;
      }

      .cls-10 {
        fill: #15274b;
      }

      .cls-11 {
        fill: #203154;
      }

      .cls-12 {
        fill: #3e4452;
      }

      .cls-13 {
        fill: #010418;
      }

      .cls-14 {
        fill: #0b1531;
      }

      .cls-15 {
        fill: #2e3442;
      }

      .cls-16 {
        fill: #0f2048;
      }

      .cls-17 {
        fill: #132a52;
      }

      .cls-18 {
        fill: #b47a68;
      }

      .cls-19 {
        fill: #112252;
      }

      .cls-20 {
        fill: #1e2a3a;
      }

      .cls-21 {
        fill: #1c2739;
      }

      .cls-22 {
        fill: #101d33;
      }

      .cls-23 {
        fill: #2b405e;
      }

      .cls-24 {
        fill: #161f31;
      }

      .cls-25 {
        fill: #676f80;
      }

      .cls-26 {
        fill: #2e3a50;
      }

      .cls-27 {
        fill: #1f2a48;
      }

      .cls-28 {
        fill: #122142;
      }

      .cls-29 {
        fill: #272e42;
      }

      .cls-30 {
        fill: #19263c;
      }

      .cls-31 {
        fill: #28282b;
      }

      .cls-32 {
        fill: #172c50;
      }

      .cls-33 {
        fill: #223455;
      }

      .cls-34 {
        fill: #1a2d51;
      }

      .cls-35 {
        fill: #111322;
      }

      .cls-36 {
        fill: #0e1936;
      }

      .cls-37 {
        fill: #070a23;
      }

      .cls-38 {
        fill: #12162b;
      }

      .cls-39 {
        fill: #192b4a;
      }

      .cls-40 {
        fill: #e07f55;
      }

      .cls-41 {
        fill: #444757;
      }

      .cls-42 {
        fill: #3a5989;
      }

      .cls-43 {
        fill: #292e3d;
      }

      .cls-44 {
        fill: #30353e;
      }

      .cls-45 {
        fill: #111420;
      }

      .cls-46 {
        fill: #171a23;
      }

      .cls-47 {
        fill: #04040d;
      }

      .cls-48 {
        fill: #39445b;
      }

      .cls-49 {
        fill: #08122d;
      }

      .cls-50 {
        fill: #161a29;
      }

      .cls-51 {
        fill: #302920;
      }

      .cls-52 {
        fill: #232731;
      }

      .cls-53 {
        fill: #293455;
      }

      .cls-54 {
        fill: #222b42;
      }

      .cls-55 {
        fill: #2e1e1f;
      }

      .cls-56 {
        fill: #23324d;
      }

      .cls-57 {
        fill: #434953;
      }

      .cls-58 {
        fill: #242423;
      }

      .cls-59 {
        fill: #08132a;
      }

      .cls-60 {
        fill: #10141e;
      }

      .cls-61 {
        fill: #070a18;
      }

      .cls-62 {
        fill: #10141d;
      }

      .cls-63 {
        fill: #272c41;
      }

      .cls-64 {
        fill: #3b0707;
      }

      .cls-65 {
        fill: #33414d;
      }

      .cls-66 {
        fill: #141926;
      }

      .cls-67 {
        fill: #35373f;
      }

      .cls-68 {
        fill: #232b3a;
      }

      .cls-69 {
        fill: #4f5460;
      }

      .cls-70 {
        fill: #0f1b2b;
      }

      .cls-71 {
        fill: #0d1b35;
      }

      .cls-72 {
        fill: #262d4c;
      }

      .cls-73 {
        fill: #221311;
      }

      .cls-74 {
        fill: #3a3a3a;
      }

      .cls-75 {
        fill: #1e1e2b;
      }

      .cls-76 {
        fill: #24272c;
      }

      .cls-77 {
        fill: #090d1d;
      }

      .cls-78 {
        fill: #192133;
      }

      .cls-79 {
        fill: #0c1535;
      }

      .cls-80 {
        fill: #0f1d3a;
      }

      .cls-81 {
        fill: #2d406b;
      }

      .cls-82 {
        fill: #343b40;
      }

      .cls-83 {
        fill: #121525;
      }

      .cls-84 {
        fill: #071332;
      }

      .cls-85 {
        fill: #32466d;
      }

      .cls-86 {
        fill: #15171f;
      }

      .cls-87 {
        fill: #272d3f;
      }

      .cls-88 {
        fill: #0b1025;
      }

      .cls-89 {
        fill: #313e56;
      }

      .cls-90 {
        fill: #161c2c;
      }

      .cls-91 {
        fill: #252b38;
      }

      .cls-92 {
        fill: #272f47;
      }

      .cls-93 {
        fill: #0f1021;
      }

      .cls-94 {
        fill: #4b5161;
      }

      .cls-95 {
        fill: #13203e;
      }

      .cls-96 {
        fill: #353a4f;
      }

      .cls-97 {
        fill: #171c32;
      }

      .cls-98 {
        fill: #121a2c;
      }

      .cls-99 {
        fill: #252938;
      }

      .cls-100 {
        fill: #29314b;
      }

      .cls-101 {
        fill: #080710;
      }

      .cls-102 {
        fill: #191f32;
      }

      .cls-103 {
        fill: #d58f6c;
      }

      .cls-104 {
        fill: #3f444b;
      }

      .cls-105 {
        fill: #202a3d;
      }

      .cls-106 {
        fill: #11203f;
      }

      .cls-107 {
        fill: #0f101c;
      }

      .cls-108 {
        fill: #1b1b1b;
      }

      .cls-109 {
        fill: #161026;
      }

      .cls-110 {
        fill: #191b21;
      }

      .cls-111 {
        fill: #6b7780;
      }

      .cls-112 {
        fill: #0a0f19;
      }

      .cls-113 {
        fill: #1a2b51;
      }

      .cls-114 {
        fill: #3e2215;
      }

      .cls-115 {
        fill: #2a3654;
      }

      .cls-116 {
        fill: #0f1320;
      }

      .cls-117 {
        fill: #0a1221;
      }

      .cls-118 {
        fill: #485a71;
      }

      .cls-119 {
        fill: #070e1f;
      }

      .cls-120 {
        fill: #060a15;
      }

      .cls-121 {
        fill: #c3805e;
      }

      .cls-122 {
        fill: #4d4c4d;
      }

      .cls-123 {
        fill: #2a313d;
      }

      .cls-124 {
        fill: #213c66;
      }

      .cls-125 {
        fill: #23293c;
      }

      .cls-126 {
        fill: #151826;
      }

      .cls-127 {
        fill: #0c0e0b;
      }

      .cls-128 {
        fill: #2d3750;
      }

      .cls-129 {
        fill: #2f2b35;
      }

      .cls-130 {
        fill: #444f67;
      }

      .cls-131 {
        fill: #111628;
      }

      .cls-132 {
        fill: #384661;
      }

      .cls-133 {
        fill: #2a201d;
      }

      .cls-134 {
        fill: #0a1837;
      }

      .cls-135 {
        fill: #434848;
      }

      .cls-136 {
        fill: #1b2342;
      }

      .cls-137 {
        fill: #1c2942;
      }

      .cls-138 {
        fill: #841f24;
      }

      .cls-139 {
        fill: #1c2431;
      }

      .cls-140 {
        fill: #0d1529;
      }

      .cls-141 {
        fill: #814a33;
      }

      .cls-142 {
        fill: #15274d;
      }

      .cls-143 {
        fill: #091a40;
      }

      .cls-144 {
        fill: #313f58;
      }

      .cls-145 {
        fill: #45464e;
      }

      .cls-146 {
        fill: #192638;
      }

      .cls-147 {
        fill: #0f1c3d;
      }

      .cls-148 {
        fill: #14171e;
      }

      .cls-149 {
        fill: #0a0d19;
      }

      .cls-150 {
        fill: #3d3d3d;
      }

      .cls-151 {
        fill: #19294a;
      }

      .cls-152 {
        fill: #161e31;
      }

      .cls-153 {
        fill: #181c2d;
      }

      .cls-154 {
        fill: #262d44;
      }

      .cls-155 {
        fill: #0f1732;
      }

      .cls-156 {
        fill: #11131f;
      }

      .cls-157 {
        fill: #a27463;
      }

      .cls-158 {
        fill: #2c2f36;
      }

      .cls-159 {
        fill: #314054;
      }

      .cls-160 {
        fill: #0a0e19;
      }

      .cls-161 {
        fill: #161e2d;
      }

      .cls-162 {
        fill: #31303d;
      }

      .cls-163 {
        fill: #1d2c4d;
      }

      .cls-164 {
        fill: #191c23;
      }

      .cls-165 {
        fill: #172d54;
      }
    </style>
  </defs>
  <g id="HyJungScout_defeat">
    <g id="back-leg">
      <path class="cls-83" d="M73.05,19.5c-1.83.51-4.49.52-5.93,1.68-1.44,1.16-5.4,4.4-6.66,8.32s-3.49,9.15-1.94,12.8c1.55,3.65,3.5,4.66,4.96,5.39,1.46.73,6.2,1.13,8.53-.62,2.33-1.75,5.37-6.08,6.69-7.42,1.32-1.34,5.11-5.24,6.4-7.48,1.29-2.24,2.58-9.67,1.55-10.38s-5.16-2.74-8.39-2.5c-3.23.24-5.2.2-5.2.2Z"/>
      <path class="cls-83" d="M125.25,31.33c-.77-.2-1.53-.4-2.3-.6-.6-.16-1.21-.32-1.83-.32-1.58,0-3.01,1.02-4,2.25s-1.67,2.69-2.53,4.01c-.56.86-1.21,1.67-1.73,2.56s-.92,1.88-.91,2.91c0,.82.28,1.65.76,2.31.7.96,1.79,1.56,2.85,2.12.12.07.25.13.39.13.14,0,.27-.07.4-.15,1.35-.8,2.48-1.99,3.21-3.39.35-.67.62-1.39.9-2.1.67-1.67,1.49-3.3,2.64-4.67.65-.77,1.42-1.5,1.7-2.47l.46-2.59Z"/>
      <path class="cls-28" d="M91.77,25.26c-.11-1.42,1.53-1.81,4.93-1.15l5.48,2.9c.62.68.44.96-.5.87-1.61-.51-3.32-1.13-5.13-1.87.68.55.53.88-.38.99,2.37,1.68,1.19,3.21-1.43,2.65,1.38,2.32,0,4.56-2,5.77l-3.05-1.14c-1.73,1.91-2.5,1.25-2.7-1.13.06-.66-.36-1.12-1.25-1.37-3.18-.05-3.55-4.88-.21-5.34.96-.43,2.01-.24,3.14.58,1.88-.19,2.92-.78,3.12-1.77Z"/>
      <path class="cls-152" d="M86.5,20.06c.5-.22,1.02.1,1.51.1,1.16,1,2.54,1.81,4.15,2.41.87-.05,1.9.1,3.08.45.27.15.48.42.74.59l.72.49c-1.46,1.06-3.34.43-4.93,1.15-.9,3.32-5.8.85-6.04-1.93-1.09-.06-2.11-1.2-2.02-2.32-.22-.89.71-1.21,2.78-.96Z"/>
      <path class="cls-66" d="M76.28,17.9c.29.09.57.48.87.5.84.44,1.72.9,1.24,1.86.5,1.83-.19,1.87-1.37.37-2.48,1.71-3.87,2.36-3.97-1.13,1.22-.56,2.34-.33,3.23-1.6Z"/>
      <path class="cls-54" d="M73.05,19.5c1.3.18,2.54,1.25,3.97,1.13l1.24,1.86c1.24,1.98,1.35,3.26.33,3.86.51.74.3.93-.58.61-.13,1.76-.83,1.91-1.68.39l-1.24.49c-.94-1.44-2.3-2.38-4.08-2.84-1.34.88-3.18-.43-2.13-1.96-.78-2.49,2.21-2.64,4.17-3.54Z"/>
      <path class="cls-68" d="M68.38,25.72l1.21-.6c1.36,1.62,2.94,2.94,4.72,3.97.64-.66.93-.5.89.44,2.62.28,2.42,1.21-.05,2.12,1.75.99,1.3,1.7-.67,1.06-1.6.79-3.09.67-2.5-1.29l-4.07.23-.23-2.34c-.31-.69-.74-1.32-1.23-1.9.72-.46,1.34-1.06,1.93-1.68Z"/>
      <path class="cls-34" d="M67.68,29.3l4.3,2.12c-.34.73-.83,1.43-1.46,2.1-1.16.45-2.4.61-3.64.63-.38-.4-.68-1.49-1.29-1.62.86-.98,2.36-1.75,2.08-3.22Z"/>
      <path class="cls-102" d="M72.13,34.35c-.95-1.89.48-2,2.35-1.63.24-.26.58-.72.67-1.06.85-1.93,1.85-1.53,2.08.63,1.57-.71,1.67-.17.31,1.61,1.09,1.95-.63,3.21-2.56,2.83-.88,2.03-1.95,1.92-2.41-.25-1.52,1.23-2.09.67-1.08-1.03l.64-1.1Z"/>
      <path class="cls-88" d="M71.98,31.42l2.5,1.29c-.65.71-1.52,1.18-2.35,1.63l-1.61-.82c-1,.19-1.02-.88-1.05-1.71-.04-1.46,1.82.04,2.5-.4Z"/>
      <path class="cls-135" d="M90.8,20.48c.77.7,1.22,1.4,1.37,2.1-.84-.21-2.15,1.07-3.25.28-.68-.49-.7-1.74-.9-2.69.89.01,1.97-.15,2.79.31Z"/>
      <path class="cls-77" d="M86.5,20.06c.14,1.86-1.87.58-2.78.96-.56.46-.84.27-.87-.5-1.6,2.14-2.34,1.59-1.73-1-.66.58-.95.4-.87-.5,2.11-.91,4.37-.13,6.25,1.04Z"/>
      <path class="cls-61" d="M80.25,19.02l.87.5c1.05,2.69.22,3.24-1.86,1.24-.68.62-.96.44-.87-.5-.69-.4-1.47-.98-1.24-1.86,1.06.05,2.11.24,3.1.63Z"/>
      <path class="cls-160" d="M95.24,23.03c-1.05,1.06-2.06-.19-3.08-.45-.45-.63-1.79-1.19-1.37-2.1l4.45,2.55Z"/>
      <path class="cls-151" d="M112.45,35.22c.7-.76,2.09-1.16,4.15-1.2.36.15.65.46,1,.64,2.15,1.81,1.48,3.62-1.3,3.82-.12,2.41-.84,3.54-2.17,3.39-.67,2.34-.88,2.21-2.05.08-3.54-.14-4.89-3.08-1.18-4.12-4.73-.74-2.42-4.5,1.55-2.62Z"/>
      <path class="cls-97" d="M111.72,32.49c1.22.7,2.54,1.17,3.97,1.13.28,0,.65.3.92.41-.75,1.51-2.64,1.58-4.15,1.2-1.05.12-1.63-.21-1.73-1-.62-.68-.44-.96.5-.87l.5-.87Z"/>
      <path class="cls-74" d="M121.14,32.15c.71-.3,1.01-.19,1.18.2.44,1.01.14,1.99-.44,2.53l-1.73-1,1-1.73Z"/>
      <path class="cls-83" d="M92.73,35.43l1.37-.37c.68-.62.96-.44.87.5l4.83,1.62c-2.07-1.7-1.84-3.53.96-3.34,1.95-2.49,4.39-3.11,5.96-.35,2.3,1.28,1.93,3.09-1.12,5.43l.63,1.63c2.26-1.36,2.72-1.08,2.05,1.45,2.01.32,2.17.43.45,1.72-1.75,2.91-7.81.81-7.82-2.45-3.66-.02-7.97-1.5-9.84-4.8-.04-.89-.79-1.63-1.38-2.19-.32-1.21,1.33-.88,2.21-1.14,1.04-.3.16,1.69.84,2.28Z"/>
      <path class="cls-16" d="M80.27,24.96c-.36-1.67.77-2.16,3.38-1.48-.68-1.89,1.16-1.49,2.08-.15,2.61,1.11,2.86,2.6-.22,3.11-.67,1.67.12,3.65.21,5.34-.54,2.12-2.55,2.15-3.37.04-.72,1.61-2.67.45-2.24-1.16-3.15,1.39-4.65-1.66-2.11-3.7l.58-.61c.34-.54.9-1.01,1.68-1.39Z"/>
      <path class="cls-62" d="M77.55,33.9c.91.17,1.9.05,2.96-.37-.07-.89.55-1.46,1.84-1.7,1.12.06,2.28.16,3.37-.04l1.22-.26c.41-.09.95.24.8.47-.35.51-.71.85-.76,1.16-1.59.24-2.56,1.88-3.91,2.52-1.06,1.85-3.22,3.23-5.19,3.7,1.23,2.25-1.76,1.79-2.19-.14-2.04.03-2.35-1.3-.69-2.51.25-1.31,1.44-2.31,2.56-2.83Z"/>
      <path class="cls-4" d="M91.77,25.26c.77-.16.78.37,1,.77.79,1.44-3.02,3.6-5.15,2.82-.87-.32-1.74-1.29-2.1-2.41.44-1.09.1-1.98.22-3.11,2.07-.15,3.95,2.07,6.04,1.93Z"/>
      <path class="cls-32" d="M96.17,27c3.79.51,6.77,3.94,2.63,5.97.64.75.42,1.07-.6.98-.84,1.26-2.34.54-1.73-1-1.13.26-1.71-.84-1.73-3.3.18-.96,1.11-1.75,1.43-2.65Z"/>
      <path class="cls-26" d="M101.18,28.75l1.73,1c1.75,1.51-.43,3.78-2.16,4.09-1.78,1.52-2.43,1.23-1.96-.87.26-1.23.86-2.46.52-3.36-.51-1.33-2.24-2.12-3.14-2.61.12-.33.19-.69.38-.99,1.78.25,3.64,1.19,4.63,2.74Z"/>
      <path class="cls-124" d="M94.73,29.65c1.05.79,1.59,2.01,1.73,3.3.63,1.26-.15,1.96-2.36,2.1-.36.53-.78.87-1.37.37,1.24-1.7,1.61-3.75,2-5.77Z"/>
      <path class="cls-13" d="M101.68,27.88l-.5.87c-1.55-.89-3.14-1.73-4.63-2.74,1.8-.98,3.5,1.19,5.13,1.87Z"/>
      <path class="cls-115" d="M83.71,21.02c1.22.45,2.15.98,2.02,2.32l-2.08.15c-3.11.24-3.6-1.55-.8-2.97.28.16.57.39.87.5Z"/>
      <path class="cls-76" d="M102.92,29.74l.87.5c1.47.25,3.47.77,3.55,2.28,1.72.9,1.3,1.55-.63.97-1.04-.49-2.16-1.04-3.29-.57.94,1.24.64,2.55.02,3.23-.43.47-1.94,1.45-1.99.14-.03-1.05.43-1.68.16-2.24-.11-.24-.62-.11-.86-.21.42-1.44.91-3.11,2.16-4.09Z"/>
      <path class="cls-101" d="M111.22,33.36l-.5.87c-1.15,2.72-4.03,1.09-3.38-1.7l-3.55-2.28c2.75-.91,4.91,2.18,7.43,3.12Z"/>
      <path class="cls-108" d="M116.9,43.55c1.22-3.09,4.27-5.4,4.98-8.67.91-.37,2-1.04,2.36-2.1.35-.63.08-2.2,1.77-1.37-.84,1.96-1.6,3.18-2.4,4.47-1.26,3.32-2.91,6.55-4.95,9.69-.95,4.69-5.98,1-1.76-2.02Z"/>
      <path class="cls-70" d="M77.02,20.63c.47-.04.93-.19,1.37-.37l.87.5c2.65.62,2.45,2.01-.25,2.41-.51.07-.76-.16-.75-.68-.86.07-1.44,1.13-3.25.82-.14-1.58,1.61-1.6,2.02-2.69Z"/>
      <path class="cls-107" d="M68.3,24c.29-.19.34-.71.59-.96.38.59,1.81,1.25,2.13,1.96,1.94.11,5.29,2.61,3.29,4.1-.21.54-.22,1.29-1.38,1.95-.49-2.25-3.03-4.47-4.55-5.33-.23-.13-.79-.33-1.38-.51-.27-.09-.53-.75.28-.89.26-.05.72-.1,1.02-.31Z"/>
      <path class="cls-49" d="M76.33,27.35c.33-.44,1.22-.32,1.68-.39,0,1.56.92,2.77,2.11,3.7,1.09,1.56.13,2.11-2.88,1.62-.66-.3-1.37-.49-2.08-.63.18-.66-.17-1.47.05-2.12-1.05-1.71-.89-2.62,1.13-2.19Z"/>
      <path class="cls-111" d="M76.33,27.35c-.47.63-.88,1.44-1.13,2.19l-.89-.44c-.28-1.9-2.48-2.31-3.29-4.1,2.04-1.67,3.83.88,5.31,2.35Z"/>
      <path class="cls-53" d="M78.25,22.49c.21.25.57.4.75.68,2.43-1.03,2.69-.36,1.27,1.79.36.19.69.58.57.85-.37.8-1.39,1.06-2.25.54-.31-1.27-.46-2.56-.33-3.86Z"/>
      <path class="cls-29" d="M80.11,30.66c.79.12,1.46,1.12,2.24,1.16.97.28.48,1.05-.11,1.38-.51.28-1.06.43-1.73.33-.88.73-2.03.99-2.96.37-.08-.53-.34-1.05-.31-1.61.97-.52,2.06-.87,2.88-1.62Z"/>
      <path class="cls-14" d="M81.11,19.52l1.73,1c-.41,1.12.61,2,.8,2.97.25,1.23-.41,3.21-1.59,3.3-.39-.8-.22-2.03-.75-2.09-.37-.04-.84.4-1.05.27-.53-.47-.89-1.21-1.27-1.79l.25-2.41c.76-.16,1.37-.66,1.86-1.24Z"/>
      <path class="cls-87" d="M106.71,33.49l.63-.97,3.38,1.7c.56.28,1.13.84,1.73,1l-2.33.37c-.36.06.91,1.67.78,2.25-.53,1.9-2.82,2.91-4.68,2.7-1.52.48-3.4.15-4.09-1.38,3.49-.43,4.1-3.36,4.58-5.68Z"/>
      <path class="cls-128" d="M110.91,37.85c-.33,1.53-.31,3.29,1.18,4.12.04,2.39-2.89,1.53-3.81.04-.78-.12-1.37-1.12-2.05-1.45.02-1.66,3.05-3.7,4.68-2.7Z"/>
      <path class="cls-90" d="M112.09,41.96c.67-.11,1.39-.49,2.05-.08,1.37-1.69,1.87-.87,1.89,1.17.68,3.69-.16,4.63-2.52,2.82-1.73-.14-3.15-1.9-4.78-2.15-.32-.51-.52-1.11-.45-1.72,1.24.19,2.59.16,3.81-.04Z"/>
      <path class="cls-128" d="M116.3,38.49c.53,1.43-.06,3.08-.27,4.56l-1.89-1.17,2.17-3.39Z"/>
      <path class="cls-100" d="M97.2,35.68c.94-1.95,1.8-1.45,2.6,1.49-1.44.95-4.39.16-4.83-1.62.13-1.79,2.46-2.03,2.23.13Z"/>
      <path class="cls-95" d="M98.19,33.95c.18-.31.52-.63.6-.98l1.96.87c-.36.43-1.83.71-1.49,1.67.15.43.73.94.53,1.67l-2.6-1.49c-1.75-.84-.76-2.14,1-1.73Z"/>
      <path class="cls-28" d="M96.46,32.95l1.73,1-1,1.73c-.69-.4-1.6-.82-2.23-.13l-.87-.5c.59-.88,1.5-1.51,2.36-2.1Z"/>
      <path class="cls-131" d="M80.52,33.53c.05.98-.68,1.67-1.35,1.76-1.01.13-1.51-.64-1.61-1.39.58-.27.96-1.25,1.67-1.12.59.1,1.02.36,1.3.75Z"/>
    </g>
    <g id="front-leg">
      <path class="cls-50" d="M74.77,22.33c-1.75-.13-5.05.99-8.43.3-3.39-.68-9.48-4.61-11.34-3.09s-3.28,7.04-1.44,10.2c1.84,3.15,7.61,11.15,10.64,12.67,3.03,1.51,5.49,4.23,11.17-.86,5.67-5.09,4.84-8.48,4.49-10.33-.35-1.85-5.08-8.88-5.08-8.88Z"/>
      <path class="cls-127" d="M118.51,14.5c-.96,1.43-1.85,2.92-2.65,4.45-.43.83-.85,1.7-.94,2.63-.08.78.08,1.57.26,2.34.49,2.13,1.16,4.21,1.82,6.29.07.22.15.45.29.63.11.14.27.25.42.35.27.19.54.37.81.56.57.4,1.17.8,1.86.88.88.1,1.72-.34,2.49-.77.5-.28,1.03-.58,1.29-1.09.24-.47.22-1.02.18-1.54-.1-1.58-.19-3.16-.29-4.74-.1-1.61-.2-3.22-.55-4.79-.11-.51-.25-1.01-.31-1.53-.08-.63-.04-1.3-.32-1.87-.22-.46-.62-.8-.91-1.22-.29-.42-.46-.91-.71-1.36s-.62-.87-1.12-.99-1.11.19-1.15.7l-.48,1.05Z"/>
      <path class="cls-60" d="M79.78,38.27c-.9-2.24.03-3.26,2.78-3.06l-.31-.75c2.27-1.82,4.81-3.29,7.62-4.39,1.9-1.9,4.14,1.34,3.14,3.02,2.16-.08,2.49.36.99,1.31,1.9.34,1.79,1.09-.17,1.26l-2.75-.27c-1.68.29-3.43.71-5.27,1.27-1.78,1.69-3.87,2.5-6.2,2.98-1.91-.28-1.79-1.02.16-1.38Z"/>
      <path class="cls-45" d="M77.22,36.55c1.19-2.04,3.64-.51,2.56,1.72l-.16,1.38c-1.66.34-3.09,2.01-4.85,2.23-.01-.29-.39-.8-.55-1.03-.9-2.14.96-4.01,3.01-4.3Z"/>
      <path class="cls-45" d="M91.08,35.39c-.92.21-1.66,1.62-2.58,1.69-.76.04-2.16.26-2.69-.42,1.52-1.45,3.84-3.71,5.27-1.27Z"/>
      <path class="cls-98" d="M71.26,40.51c-2-.82-3.4-2.72-1.35-3.93-.81-2.59-.56-2.89,1.75-1.33.77-.45.94-.23.54.61,2.19.45,3.35,3.11,2.02,4.98-.63.24-1.06,1-1.67,1.3l-1.28-1.64Z"/>
      <path class="cls-106" d="M69.34,35.76c.88-.26,1.06.02.57.82.12,1.4.5,2.83,1.35,3.93-.97-.11-2.47-.38-3.16-1.1.26-1.32-1.93-2.27-1.88-3.43.07-1.73,2.31-.45,3.12-.22Z"/>
      <path class="cls-147" d="M67.04,32.62c-.56-2.14.96-2,2.24-.46-1.03-1.64.49-2.5,1.69-.96,1.72.44,1.81,2.94.69,4.06l-1.75,1.33-.57-.82c.07-1.5-1.22-2.32-2.3-3.14Z"/>
      <path class="cls-116" d="M114,31.59c1.31-1.1,2.95-1.54,4.93-1.33l.62-2.34c-2.74-1.09-2.35-1.59.51-1.83,1.06.88,2.05,1.84,2.99,2.85.78,2.16-1.79,4.69-3.98,4.98l-6.41.84c-2.78-1.7-1.51-3.35,1.35-3.17Z"/>
      <path class="cls-122" d="M118.96,19.38c-.54-1.26.24-2.36,1.6-1.6.11-.91.44-.96.98-.19,1.22,1.78,1.9,4.87,1.07,6.8.03.7-.12,1.6-.34,2.22-.6-.16-.99-.78-1.19-1.87-.56-1.6-.64-4.18-2.12-5.37Z"/>
      <path class="cls-127" d="M121.08,24.75c.3.59,1.1,1.11,1.19,1.87-.04.11,1.42,5.31-.6,2.15-.28-1.33-.47-2.67-.59-4.02Z"/>
      <path class="cls-38" d="M105.5,33.87c.57-.47,1.23-1.81,1.98-4.02l3.44,1.44c-.5-.64-.26-1.62.73-2.93-.9-1.72-.24-2.11,1.27-.83,2.21-.01,3.74,3.21,1.08,4.07-.82.86-1.4,1.96-1.35,3.17-2.38.31-5.05.3-7.12,1.27-3.32.34-3.28-2.52-.03-2.16Z"/>
      <path class="cls-123" d="M101.29,34.19c-1.74-1.84-.99-2.64,1.31-2.99-.74-1.67.77-3.08,2.28-1.9.93-.54,1.17-.32.73.66,2.5.35,1.1,2.85-.11,3.91-.04.35-.57.7-.56,1.13s.22.8.59,1.03l-.63.3c-.83.39-1.92.36-2.81.78-.49-.1-.97-.25-1.47-.3-2.5-1.41-2.06-2.36.67-2.62Z"/>
      <path class="cls-139" d="M79.53,29.57c-1.86-2.37-.6-3.35,2.21-2.33.44.07.79.16.85.35.96,3.14-1.32.59-.05-1.09.13-.17.79.06,1.61.41,1.92-1,4.5,1.57,5.73,3.16-.18,3.33-4.52,5.38-7.62,4.39-2.95-.16-4.28-2.32-2.73-4.88Z"/>
      <path class="cls-159" d="M77.8,33.78c.87-1.33,2.46-.86,4.76,1.42-.58,1.29-1.69,2.21-2.78,3.06-.72-.77-1.51-1.48-2.56-1.72-1.59,2.24-2.25,2.13-3.02-.51-.32-2.81,1.33-4.33,3.6-2.25Z"/>
      <path class="cls-48" d="M93.01,33.09l.36-3.02c0-1.72.42-2.57,1.78-1.2.38-1.91,1.14-1.68,1.16.35,3.82.26,4.09,4.62-.11,5.02-.72-.1-1.47.17-2.19.17l-.99-1.31Z"/>
      <path class="cls-113" d="M77.76,32.1c-1.88-1.4-1.68-2.93.89-2.52.23-.7.52-.69.87,0,.37,1.89,1.24,3.63,2.73,4.88.25.21.47.4.31.75-1.69-.02-3.25-.71-4.76-1.42-1.8-.42-1.81-1.18-.04-1.69Z"/>
      <path class="cls-125" d="M90.46,29.18c-1.11-2.64.25-3.18,2.27-1.37,1.7-.9,1.69.99.64,2.26.4.57,1.07,1.12,1.6,1.28,1.12.32.59,1.14-.3,1.48-.49.19-1.1.28-1.66.27-.81-1.08-1.74-2.59-3.14-3.02-.61-.74-.39-1.03.59-.88Z"/>
      <path class="cls-145" d="M72.2,35.86c-.51-1.87.23-2.13,1.45-.56.75-.28.92-.02.56.73,1.02.1,2.02.28,3.02.51-.1,1.94-1.19,3.6-3.01,4.3-1.25-1.32-2.55-3.04-2.02-4.98Z"/>
      <path class="cls-96" d="M70.97,31.19c-.58-.65-.36-.8.56-.51,2.15-3.17,6.21,3.1,2.12,4.62l-1.45.56-.54-.61c-.97-1.1-.78-2.66-.69-4.06Z"/>
      <path class="cls-36" d="M66.12,26.55l1.39-.53c1.82-1.19,1.98-.76,2.01,1.23,2.12.32,1.92,1.29-.3,1.61,1.3,1.73.46,2.29-1.36.93-.71,1.69-1.3,1.38-1.69-.36-.08-.95-1.11-1.98-.05-2.88Z"/>
      <path class="cls-19" d="M66.18,29.43c.57.08,1.14.19,1.69.36,1.55-.17,2.8,1.27,1.41,2.36l-2.24.46c-1.07-.8-.77-2.14-.86-3.18Z"/>
      <path class="cls-85" d="M67.87,29.79c.57-.09,1.07-.43,1.36-.93,2.36-1.35,3.1-.76,2.31,1.81-.2.15-.35.39-.56.51l-1.69.96-1.41-2.36Z"/>
      <path class="cls-69" d="M114.56,24.11c.57-1.06,2.18-.62,4.85,1.3.14.25.43.5.65.68-.23.5-.7,1.25-.51,1.83.74,1.09.4,1.94-.81,2.5-3.75,1.75-5.69-3.39-4.18-6.31Z"/>
      <path class="cls-52" d="M114.36,21.68c2.19.26,4.01,1.93,5.05,3.74-1.86,1.99-2.59-1.35-4.85-1.3-1.52.68-2.57.86-2.83-.89l2.62-1.55Z"/>
      <path class="cls-150" d="M121.36,16.61l.19.98-.98.19c-.16-1.07-.27-2.54-1.55-2.76.22-.82.31-1.72,1.43-2.37.68,1.68.63,2.8.92,3.95Z"/>
      <path class="cls-63" d="M112.92,27.52c-1.88.56-2.32-1.11-.51-1.92-.8-1.21-.08-1.71,2.16-1.49.59,1.62.96,3.65,2.71,5.41.93.94,1.93-.97,2.28-1.6.16.49.97.83,1.36,1.73.12.28.14.85-.91.76-1.64,2.04-4.17,2.68-6.01,1.18-.2-1.4-.72-2.71-1.08-4.07Z"/>
      <path class="cls-1" d="M105.61,29.96c-.7-3.74,4.65-5.36,3-.72,2.22.07,2.98.75,2.3,2.04-.9.62-2.56-.72-3.25.45-.5.83-.44,1.79-1.02,2.47-.35.41-.97.51-1.14-.33.14-1.3.23-2.61.11-3.91Z"/>
      <path class="cls-149" d="M112.41,25.6l.51,1.92-1.27.83c.3.91.01,1.09-.82.57-5.54-1.22-1.27-6.63,1.58-3.32Z"/>
      <path class="cls-63" d="M108.61,29.24c0-2.04,1.08-2.06,2.21-.32.3-.07.56-.4.82-.57.79.52,1.84,1.17.74,1.92l-1.48,1.01c-.96-.44-1.7-1.2-2.3-2.04Z"/>
      <path class="cls-46" d="M104.32,28.52c-.27-.97.21-2.1,1.45-3.39-.17-1.23.81-1.65,2.93-1.26.94-.49,1.98-.76,3.04-.65.98.18,1.94.44,2.83.89-.57.56-1.34,1.29-2.16,1.49s-2.19-.43-2.44.71c-.22.98.47,1.91.86,2.61-.72.18-1.48.21-2.21.32-.4-.71-1.17-1.46-1.93-.79-.42.37-.76.93-1.07,1.5-.13-.33-.39-.58-.73-.66-1.13.42-1.32.16-.57-.78Z"/>
      <path class="cls-17" d="M96.31,29.21c.39-3.53,5.95-3.13,4.25.73,1.77-1.64,2.35-1.12,2.04,1.26.15,1.17-.46,2.21-1.31,2.99-1.7-.51-3.38.29-5.1.05,1.6-1.32.92-3.38.11-5.02Z"/>
      <path class="cls-118" d="M100.56,29.94c-1.55-2.4-.02-4.2,2.56-2.86,1.56-1.45,2.35-.3,1.2,1.44-.08.45.14.67.57.78-.69.71-1.45,1.36-2.28,1.9-.62-.38-1.63-.61-2.04-1.26Z"/>
      <path class="cls-50" d="M74.53,23.86c-.69-.63-.61-1.15.24-1.53,1.64-2.75,9.14-4.82,9.73-.38,2.93.55,4.23.94,1.83,3.37,1,2.64.19,2.75-2.19,1.59-1.26.51-1.08,2.04-1.26,3.04-1.8-.19-.88-2.01-1.15-2.71-1.6.07-3.32-.71-5.16-2.35-1.25,2.35-2.6,1.57-2.05-1.03Z"/>
      <path class="cls-104" d="M76.58,24.89c.79-.49,1.87-1.29,2.55-.93,1.23.66,2.18,2.19,2.61,3.28-.93.57-1.68,1.38-2.21,2.33-.28.06-.63.29-.87,0-2.61.36-4.18-3.02-2.08-4.69Z"/>
      <path class="cls-82" d="M86.33,25.32c1.73-2.47,5.63,1.4,4.13,3.86-.21.18-.45.65-.59.88-2.12-.67-4-1.74-5.73-3.16.82-.33,1.38-1.21,2.19-1.59Z"/>
      <path class="cls-39" d="M71.53,30.68c-.89-.35-1.58-1.23-2.31-1.81.31-.48.43-1.05.3-1.61-1.79-2.13,3.34-2.22,4.32-1.83,1.9.75,3.32,4.65,3.92,6.68.12.56.16,1.13.04,1.69l-3.6,2.25c-.28-.17-.47-.42-.56-.73-.05-1.13.06-2.21-.15-3.53-.13-.84-1.16-.78-1.96-1.1Z"/>
      <path class="cls-165" d="M95.6,25.95c.27-1.34,1-1.93,2.34-1.53,2.24-2.81,5.87-.64,5.18,2.66-.88.92-1.63,1.97-2.56,2.86-.95-1.52-2.7-1.26-4.25-.73l-1.16-.35c-2.1-.16-1.28-2.9.45-2.91Z"/>
      <path class="cls-6" d="M92.73,27.81c-.63-3.68,3.73-6.38,2.87-1.85-.59.86-.93,1.93-.45,2.91l-1.78,1.2c-.4-.58-.11-1.73-.64-2.26Z"/>
      <path class="cls-134" d="M67.52,26.02c.36-.72.79-1.41,1.25-2.07.73.12,1.83-.06,2.57.45,1.28-.82,2.34-1,3.19-.54.57.53,1.27.93,2.05,1.03.59,1.61,1.2,3.21,2.08,4.69-.37.81-.69,1.65-.89,2.52-2.89.59-2.28-4.17-5.02-5.38-1.14-.5-2.17.06-3.22.53-.81.36-1.69-.64-2.01-1.23Z"/>
      <path class="cls-164" d="M86.33,25.32c-.36-1.25-.84-2.49-1.83-3.37.67-3.38,7.18-2.86,9.12-.35.83-.31.99-.05.53.75l.98,2.04c-1.77-.28-2.56.86-2.39,3.42-.63.6-1.61.81-2.27,1.37l-4.13-3.86Z"/>
      <path class="cls-131" d="M72.41,22.48c.7-.49,1.67.04,2.36-.16,0,.52-.07,1.04-.24,1.53-.9.58-2.2,1.23-3.19.54.46,0,1.02-.3,1.23-.61s.28-1.18-.16-1.31Z"/>
      <path class="cls-148" d="M103.47,23.16c1.74-.67,3.7-.33,5.23.71-.82.74-1.82,1.23-2.93,1.26-.15,1.22-.57,1.65-1.53.8-1.77-.25-2.98-2.44-.76-2.77Z"/>
      <path class="cls-24" d="M101.21,22.09l2.26,1.07c-.23,1,.18,1.96.76,2.77.7,1.3.21,1.82-1.11,1.16-.77-.92-1.12-2.35-2.41-2.95-.79-.36-1.89-.05-2.77.29-.97.11-1.08-.29-.44-1.14l3.72-1.18Z"/>
      <path class="cls-123" d="M103.12,27.08l1.11-1.16,1.53-.8c.53,1.34-.37,2.6-1.45,3.39l-1.2-1.44Z"/>
      <path class="cls-105" d="M94.14,22.35c1.21-.27,2.44.09,3.35.92.1.4.25.78.44,1.14-.3.29-.29,1.32-.66,1.59-.33.24-1.28-.12-1.68-.06l-1.56-1.26c-.24,1.14-.49,2.34-1.31,3.11-1.84-1.86.21-3.71,1.41-5.46Z"/>
      <path class="cls-22" d="M94,34.4c.61-1.18,1.82-1.69,2.19-.17,1.74-2.54,3.98-3.51,5.1-.05-.26.87-.53,1.73-.67,2.62-2.29-.24-4.53-.93-6.79-1.15l.17-1.26Z"/>
    </g>
    <g id="head">
      <path class="cls-81" d="M0,33.79l.57-1.48c.18-2.84.84-3.13,2.74-.98.93-.02,1.1.32.49,1.03,2.65-.21,1.59,3.77.22,5.43.92-.05,1.03.28.37.95.71,1.82-.06,2.03-1.16.33l-3.23-5.29Z"/>
      <path class="cls-138" d="M.69,27.36l1-.43c.54-.79,1.1-1.43,1.83-.7,2.82-.18,2.75,5.23-.21,5.11-.94.24-1.86.57-2.74.98-.52-1.63-.17-3.3.11-4.96Z"/>
      <path class="cls-121" d="M7.96,26.7l-.18-1.13c1.78-.14,3.34-.65,4.67-1.54l.9-.31c1.14.95,3.7.22,4,2.15l-.55.78c4.45-2.69,4.46,1.36,1.78,4.47,2.68,1.8,1.36,3.83-1.63,2.53l-2.26-.35c-.61-5.21-2.47-6.52-5.6-3.94-1.26,1.71-2.01,1.37-1.34-.67-1.1-.17-1.05-1.89.21-2.01Z"/>
      <path class="cls-141" d="M7.23,24.61l.93-.36c1.4.56,2.9.25,4.28-.22-.69,1.7-2.98,1.86-4.49,2.67-1.21.18-1.41-1.16-.73-2.09Z"/>
      <path class="cls-73" d="M6.44,31.37c.34-2.21,2.75-1.39,2.67.59,2.27-.55,4.37,1.02,3.38,3.48,1.66.41,2.67.76,1.84,2.53-3.12,1.29-6.68,1.63-9.95.78l-.37-.95,1.15-2.36c-.25-2.04.17-3.39,1.27-4.07Z"/>
      <path class="cls-64" d="M3.52,26.23c.95-.36,1.83-.89,2.78-1.26,1.1.78,1.11,3.04.35,4.16,1.85.31,1.77,2.21-.21,2.24-.69,2.5-1.57,2.84-2.64,1-.22-.31-.29-.71-.49-1.03,1.07-1.55,1.35-3.54.21-5.11Z"/>
      <path class="cls-140" d="M3.8,32.37c.9-.17,1.72-.94,2.64-1-.23,2.39.16,5.5-2.42,6.43.15-1.88.95-3.79-.22-5.43Z"/>
      <path class="cls-121" d="M12.5,35.44c1.11-2.32,1.61-2.36,3.11-.27-.14.73-.13,1.61-.16,2.35l-1.1.46c-1-.48-1.15-1.84-1.84-2.53Z"/>
      <path class="cls-40" d="M9.11,31.96c-1.68-.84-1.72-1.85-.03-2.58-1.03-1.72.14-2.55,1.65-2.88,1.29-.28,2.97-.96,3.9.74,1.22,2.23,1.5,4.5,2.32,6.44-.38.39-1.23.93-1.34,1.5-1,.36-2.06.49-3.11.27-1.09-1.09-3.29-1.65-3.38-3.48Z"/>
      <path class="cls-114" d="M6.65,29.13c-.15-1.52.16-1.66,1.09-.43.23.45.78,1.29,1.34.67.54.91-.02,1.73.03,2.58-.24-.96-1.83-.65-2.67-.59l.21-2.24Z"/>
      <path class="cls-18" d="M6.3,24.97l.93-.36.73,2.09c-.42.56-.55,1.36-.21,2.01l-1.09.43c.13-1.34-.65-2.75-.35-4.16Z"/>
    </g>
    <g id="body">
      <path class="cls-35" d="M45.2,22.23c-1.43.88-3.09,1.29-4.76,1.18-4.55-.3-13.5-.85-14.52-.62-1.37.31-5.05.83-5.79,3.03s-1.47,5.05-2.23,6.86-.07,7.15.58,9.43,1.63,6.57,3.09,8.07c1.46,1.5,4.2,6.05,6.29,5.76s7.4,1.71,9.87.5,6.43-2.25,8.17-2.65c1.74-.4,10.65-3.81,13.68-4.04,3.02-.23,7.37,1,7.65-.05s-1.23-5.94-.96-7.64c.27-1.7.24-6.41.06-8.33-.18-1.92.96-3.82-.03-5.3-.99-1.48-4.11-8.23-4.7-8.81s-4.29-2.43-4.8-2.37-5.4,1.89-7.21,2.56c-1,.37-2.9,1.5-4.39,2.42Z"/>
      <path class="cls-31" d="M13.83,37.44c-1.56-1.21-1.52-2.16.5-2.3-1.59-2.3-.68-3.01,1.54-1.29,2.29-.99,2.3-.78,1.66,1.6,2.08.93,1.91,1.99-.5,3.17l-1.66.55-1.23.24c-.09-.58-.42-1.39-.31-1.97Z"/>
      <path class="cls-35" d="M42.38,51.13c-1.43-2.78-.61-5.77,2.32-3.23.91-.42,1.4.41,1.46,2.48l.17-.89c1.91-2.9,7.6-2.82,6.52,1.59-1.58,1.66-5.29,1.82-7.82,1.81l-1.83.44c-.46,1.26-1.64,1.51-1.73-.06l-.26-.77c-1.94-1.83-1.25-2.44,1.17-1.38Z"/>
      <path class="cls-144" d="M30.99,49.82c.2-.36.41-.71.64-1.05.94,1.23,2.07,2.52,3.71,2.47-.48.96-2.17,1.74-3.16,1.43-1.15-.36-.87-2.12-1.2-2.84Z"/>
      <path class="cls-161" d="M17.03,38.62c.5-2.56,2.2-1.94,4.07-.79.95.05,1.01.38.22.97,1.95.89,2.22,1.53.81,1.95-.78.63-1.5,1.34-1.96,2.23-2.04-.04-2.73-2.64-3.14-4.36Z"/>
      <path class="cls-91" d="M15.87,33.84c.75-.57,1.91-1.19,1.98-2.27.54-1.06,1.05-1.25,1.55-.59,1.14-1.57,1.8-1.16,1.35.77.9.05.95.38.22.97.91.52,1.04,1.16.38,1.92,1.85.01,2.43.57,1.74,1.67,2.98-2.22,5.1,1.92,1.57,2.98-1.13.05-2.28-.04-3.33-.5-.12-.29-.05-.72-.22-.97-2.56-.34-3.75-1.13-3.57-2.38-.55-.23-1.5-1.02-1.66-1.6Z"/>
      <path class="cls-119" d="M17.53,35.45c1.35.55,2.73,1.13,3.57,2.38-1.42-.13-2.92-.14-4.07.79-.25-1.05.23-2.18.5-3.17Z"/>
      <path class="cls-162" d="M52.85,51.09c.04-.86.38-.91.97-.22-.05-1.72.29-2.66,1.73-1.42,2.39-2.08,3.33.13,2.62,2.48-2.15-.5-4.11.26-6.15.64-2.28.43-4.99,1.4-6.99.34l7.82-1.81Z"/>
      <path class="cls-71" d="M48.5,44.99c.19-2.48.79-4.25,1.82-5.31,2.76-.93,4.9-.47,6.43,1.39l1.01-.68c1.28,1.36,2.77,2.16,4.48,2.4.42-1.01.73-.98.95.09,1.53,1.38,1.01,2.63-1.56,3.73-.79,2.01-5.48.97-3.99-.87-2.11-.56-3.62.18-4.53,2.21,2.79-.36,2.06.96.72,2.91-.18.2-.7.16-.97.22.04-3.23-3.28-.33-6.52-1.59-.77-1.29-.05-2.79,2.17-4.52Z"/>
      <path class="cls-33" d="M24.35,33.98c-1.28-1.96.02-3.64,2.23-2.64-.07-1.96.89-2.02,1.91-.31l2.89,2.39c1-1.21,1.33-.73,1.25.79,1.66.29,1.9.97.35,1.67-.74,1.46-1.8,2.81-3.19,4.05-1.27-.54-2.67-.47-3.97-.09l-1.16-.56c.3-1.22-.42-2.45-1.57-2.98-.97-.8-.55-1.58,1.26-2.33Z"/>
      <path class="cls-94" d="M24.92,41.06c.34.66,1.08.5,2.31,1.02-.81,1.22-2.49.92-3.77.9-.07-.94.8-1.43,1.46-1.93Z"/>
      <path class="cls-110" d="M20.96,32.73l1.69-2.26c-.27-1.93,2.53-2.5,3.4-.82,1.79-.83,1.93.54.53,1.7l-2.23,2.64c-.88,1.29-1.77,1.8-3,.67-.13-.35-1.19-.34-.91-.98.16-.37.31-.7.53-.94Z"/>
      <path class="cls-129" d="M22.65,30.47c.12.43.58,2.2.04,2.77-.3.32-1.28-.77-1.73-.51-.05-.33-.19-.64-.22-.97-.04-.42.15-1.01.5-1.33.39-.34,1.05.12,1.41.04Z"/>
      <path class="cls-37" d="M21.35,34.65l3-.67c-.54.64-.31,1.9-1.26,2.33-.75-.35-1.46-.92-1.74-1.67Z"/>
      <path class="cls-120" d="M59.45,48.55c-.11-1.3,1.51-1.25,2.23-.18,1.49-1.5,3.03-1.94,4.61-1.3-.59-2.61.45-2.75,2.03-.59.98.29,1.03.68.13,1.16-.19.56-.22,1.33-.51,1.88-2.78,1.24-5.75,1.98-8.78,2.23-1.34-1.06-1.91-3,.29-3.21Z"/>
      <path class="cls-75" d="M59.45,48.55c-.34,1.04-.39,2.13-.29,3.21-.31.03-.69.23-.99.16-.45-.57-.75-1.27-.79-1.93-.07-1.1-1.07-.87-1.82-.55-2.04-1.99,3.13-3.91,3.9-.89Z"/>
      <path class="cls-154" d="M53.11,47.95c.46-2.22,2.85-4.59,4.53-2.21.75,1.27,2.8,1.32,3.99.87,3.66-2.73,4.06,2.96.05,1.76-.71-.07-1.55.33-2.23.18-.6-.28-1.14-.71-1.82-.67-1.14.06-1.62.71-2.08,1.56-.33.6-1.27.91-1.73,1.42-.34-.93-.31-2.01-.72-2.91Z"/>
      <path class="cls-155" d="M30.14,23.83l1.01-1.57c.51-.18,1.11-.14,1.61-.35,2.58-.02,2.61.73.8,2.47,2.04-.22,2.18.63.28,1.48,2.41,1.45,2.2,2.22-.6,2.17-.07,2.96-2.54,3.16-4.52,1.41l-1.02-.93c1.12-1.41,1.93-2.97,2.44-4.68Z"/>
      <path class="cls-11" d="M39.86,30.55l-.15-1.07c.87-1.2,1.31-.49,1.82.64.06.14-1.87-1.25-.09-2.06.88-1.81,2.5-1.62,3.28.19,1.42-3.34,2.75-2.24,4,3.31-1.49,2.51-1.3,3.82.57,3.93.75.74,2.11,3.13,1.03,4.18-.35,2.15-.19,3.74-1.82,5.31-1.65-.58-2.79-2.4-3.42-5.46-.98.12-1.55-.76-1.73-2.64-.89.16-.93-.16-.24-.87-1.99-.29-2.11-1.2-.35-2.11-2.43.61-4.07-1.07-2.92-3.36Z"/>
      <path class="cls-84" d="M61.63,46.61c-1-.34-.93-1.85-.27-2.4.4-.33,1.91.04,1.83-1.33,1.07-.82,1.92-.08,2.53,2.19,1.4-.79,1.91,1.21.58,2-.75.69-1.26,1.6-2.24,2.18-.76.45-1.79-.1-2.37-.88,1.8.09,1.92-1.75-.05-1.76Z"/>
      <path class="cls-20" d="M52.08,38.05c-1.19-1.43-.05-2.77,1.54-2.83-.24-.88.04-.91.78-.23,1.53.73,2.44,2.17.87,3.19,1.36.78,2.55,1.56,1.48,2.9-2.48-.04-5.22,1.29-6.43-1.39.09-2.28.67-2.82,1.76-1.62Z"/>
      <path class="cls-56" d="M62.85,36.49c-.31-2.66.66-2.68,1.87-.32,2.63.74,3.46,2.54.97,3.77-1.17.06-1.58.84-1.2,2.34l-1.31.59c-.05-.3-.7-.17-.95-.09-.63,0-1.09-.09-1.27-.74-1.61-2.22-1.12-5.44,1.89-5.56Z"/>
      <path class="cls-5" d="M55.27,38.17c.7-2.22,3.17-.16,3.94,1.49.86.14,1.45.93,1.76,2.39.46.14.84.54,1.27.74-1.42.47-4.39-.18-5.49-1.73-.62-.87-1-1.96-1.48-2.9Z"/>
      <path class="cls-3" d="M57.64,45.74c-1.6.53-3.02,1.47-4.53,2.21-.83-1.82.42-3.2,1.7-4.96,1.56.27,2.11,1.52,2.84,2.75Z"/>
      <path class="cls-21" d="M42.1,40.99c.87,1.73-1.04,2.53-1.94,3.77l-1.99.41c.46-2,2.17-3.26,3.93-4.18Z"/>
      <path class="cls-67" d="M34.93,39.84l5.12-.41c.35,1.96-2.01,2.57-3.43,3.31-.88-.75-1.41-1.79-1.69-2.9Z"/>
      <path class="cls-130" d="M32.98,35.89c.93-.07,1.07.27.46,1.01v1.3c.4,1.63-1.42,2.37-2.67,1.52l-.97.22c-.2-1.17-.71-2.14-.73-4,1.54.62,2.74.42,3.93-.06Z"/>
      <path class="cls-92" d="M33.44,38.21l.48,1.82c-.13,1.06-.94,1.46-1.72,1-.65-.39-1.1-.79-1.43-1.3.54-.98,1.6-1.41,2.67-1.52Z"/>
      <path class="cls-27" d="M33.24,28.04c3.88-.91,3.11,4.01.06,4.98,1.19,1.26.99,1.74-.67,1.2-.47.09-1.12-.31-1.25-.79-.97-.65-1.93-1.44-2.89-2.39-.57-.63-.07-1,.23-1.59,1.4-.78,2.95-1.15,4.52-1.41Z"/>
      <path class="cls-109" d="M32.63,34.22c.04-.42.54-.8.67-1.2,2.51-1.64,4.02-.17,2.5,2.39-.67.67-1.49,1.13-2.35,1.5l-.46-1.01c-.22-.48-.37-1.12-.35-1.67Z"/>
      <path class="cls-42" d="M28.49,31.04c.7-.12,1.53-.1,2.1.34.66.5.6,1.37.79,2.05-.69.32-1.49.24-1.91-.28-.53-.64-.77-1.36-.98-2.11Z"/>
      <path class="cls-86" d="M32.77,21.91c4.59-1.93,3.61,1.59,10.29-.25,1.21-.09,2.14.1,2.81.57,1.46-.23,1.61.4.26.82,1.38,2.72-.45,3.76-2.43,1.42-1.85.34-3.07.97-3.68,1.87.91.08.98.41.22.97.8,1,.82,2.1-.53,2.17l.15,1.07c-1.4.9-1.57-.32-1.51-1.79-2.63.41-2.7-.57-.37-1.88-.73-1.75-2.2-2.58-4.41-2.49-.45-.76-.88-1.55-.8-2.47Z"/>
      <path class="cls-112" d="M52.02,20.51l4.43-3.06c1.58,1.07,1.36,2.88-.66,5.43-2.02,1.07-4.99.03-6.69-1.69.68,2.06-.4,2.41-3.24,1.05-.95.31-2.13.28-2.81-.57,2.93-.81,5.96-2.07,8.97-1.16Z"/>
      <path class="cls-55" d="M37.98,26.88c-1.04-1.26-2.65-1.84-4.13-1.01,0-.4-.07-1.14-.28-1.48.77-1.1,1.9-.72,2.69-.48,1.32.41,1.89,1.94,1.73,2.97Z"/>
      <path class="cls-143" d="M44.71,28.25c-2.48-.68-3.18-1.29-.8-2.81-.91-.08-.98-.41-.22-.97.87.08,1.77-.99,2.43-1.42,2.57-2.53,7.06,3.76,2.36,4.42.99.45,1.62,1.69,1.89,3.71.84-.29.89-.07.22.61,2.01.89,1.74,1.38-.83,1.47,1.1.38.41,1.67-.48,2.23-1.06.5-1.25,1.7-2.61,2.89-2.66-4.78,3.74-10.13-1.96-10.13Z"/>
      <path class="cls-25" d="M49.29,35.49c.02-.84.03-1.45.48-2.23,2.1-1.73,2.88-.14,2.32,4.79-.66.35-.92,1.46-1.76,1.62.21-1.29-1.06-2.85-1.03-4.18Z"/>
      <path class="cls-142" d="M43.91,25.44c.22.95.44,1.9.8,2.81-1.09-.16-2.18-.22-3.28-.19-.88,1.25-1.42.81-1.2-.75l-.22-.97c-.05-1.73,2.63-1.76,3.9-.89Z"/>
      <path class="cls-79" d="M40.24,27.3l1.2.75c.08.84.67,1.52.4,3.07-1.03-.4-1.23-1.43-2.12-1.65-.1-.75.18-1.5.53-2.17Z"/>
      <path class="cls-80" d="M52.68,32.49c-.52-2.13.4-2.7,2.45-2.75-.77-2.39-.6-2.57,1.84-2.01.79-1.99,1.83-1.61,2.19.56,2.53-.58,3.58,3.06.66,3.78.49,2.79-1.64,3.37-3.78,2.16.43,2.01-.35,2.36-1.64.76-.23.13-.53.13-.78.23-2.17.51-1.97-.96-.94-2.72Z"/>
      <path class="cls-57" d="M49.76,33.26l.83-1.47c.39-3.14,2.91-2.4,2.09.71.42.85.57,1.85.94,2.72.02,1.26-.47,2.27-1.54,2.83-1.29.18-1.75-1.06-1.68-2.2.05-.93.66-1.83,1.48-2.54-1.04-.61-1.6,0-2.11-.04Z"/>
      <path class="cls-72" d="M54.4,34.98c.46-.26,1.29-.38,1.64-.76,2.32-.12,3.27.77,2.89,3.12,2.05-.51,1.9,1.48.28,2.32-1.44-.21-2.43-1.56-3.94-1.49-.5-.99-.69-2.11-.87-3.19Z"/>
      <path class="cls-137" d="M61.87,32.38c-1.42-2.69-.39-3.38,2.25-2.93-.6-1.7.97-2.19,1.74-.49,1.86-.61,2.03.19.28,1.24,1.49,1.7,1.22,2.08-1.02,2.7.91.96.87,2.89-.39,3.27l-1.87.32c-1.2,1.33-1.77.77-1.06-.87-2.9-.59-2.62-2.05.07-3.24Z"/>
      <path class="cls-8" d="M59.21,39.66l-.28-2.32c-.53-2.57.55-2.8,2.86-1.71.52.01.87.42,1.06.87-1.73,1.26-1.91,3.54-1.89,5.56-1.08-.32-1.62-1.31-1.76-2.39Z"/>
      <path class="cls-163" d="M49.1,21.18c2.6,1.07,3.2,2.01,1.8,2.83,2.09.43,2.92.93,1.39,2.68.79,2.01-.23,2.65-1.69,1.06-.81,1.45-1.58,1.24-2.11-.28.84-1.46,1.99-1.84.11-3.11-.81-.55-.97-2.11-2.47-1.32-.61-.1-.66-.38-.26-.82l3.24-1.05Z"/>
      <path class="cls-79" d="M43.69,24.46l.22.97-3.9.89c-.25-1.11-.51-2.15.96-2.32.82-.09,1.75.37,2.71.46Z"/>
      <path class="cls-9" d="M55.79,22.87c.96.2,1.03.57.22,1.11-1.36,3.13-3.06,2.07-5.11.03-.47-1.02-1.05-1.99-1.8-2.83l6.69,1.69Z"/>
      <path class="cls-146" d="M50.6,27.75c.6-.29,1.18-.63,1.69-1.06,2.03-2.25,4.66.77,2.84,3.05.03,1.48-.97,2.63-2.45,2.75-.36-.72-1.4-.74-2.09-.71l-.22-.61c-.88-1.28-1.24-2.7.22-3.43Z"/>
      <path class="cls-23" d="M48.48,27.47c.71-.33,1.64-.48,2.11.28.14,1.15.08,2.31-.22,3.43-1.27-.29-2.12-2.54-1.89-3.71Z"/>
      <path class="cls-59" d="M50.9,24.01l5.11-.03c-.26,1.15.39,1.19,1.23,1.2,1.93.97,1.82,2.02-.27,2.55-.25.94-.97,1.62-1.84,2.01-.51-1.35-1.62-2.33-2.84-3.05-.52-.86-.97-1.77-1.39-2.68Z"/>
      <path class="cls-5" d="M56.04,34.22c.68-1.46,2.43-1.37,3.78-2.16.91-2.69,1.75-2.47,2.05.32-.19,1.07-.28,2.17-.07,3.24-.81.79-1.79,1.37-2.86,1.71-1.48-.43-2.72-1.55-2.89-3.12Z"/>
      <path class="cls-2" d="M15.37,39.16c-.25-1.94.53-2.18,1.66-.55,2.55-.69,3.16,2.36,3.14,4.36.07,1.31-.32,2.58-1.13,3.61-2.09-1.93-3-4.71-3.67-7.42Z"/>
    </g>
    <g id="back-arm">
      <path class="cls-47" d="M36.53,28.52c1.42-.45,4.03-4.09,6.45-4.73s5.87-3.84,6.84-3.7,5.04.05,5.28,2.6,1.1,2.55.19,4.49-3.13,4.91-4.96,6.54-2.07,2.86-2.9,3.2-.77,1.03-4.62,1.88-4.59.21-5.94.12c-1.35-.09-6.41,6.1-7.53,5.52-1.13-.58-7.34-3.35-7.47-5.44s-1.31-4.21-.24-6.09,2.64-3.61,3.66-4.17,5.32.56,6.67.41,4.57-.62,4.57-.62Z"/>
      <path class="cls-58" d="M76.2,6.3c-2.55,2.71-5.33,5.47-8.62,7.4-1.42,1.3-1.84,1.24-1.3-.11,1.46-1.38,2.22-3.15,3.61-4.57,4.06-2.02,5.11-5.8,9.12-9.02-.29,2.44-3.82,5.12-2.81,6.3Z"/>
      <path class="cls-157" d="M65.99,13.26c.63.62.48.92-.42.91-1.87,4.34-4.38,6.47-7.55,6.39-3.96,1.9-2.8-3.23-.88-5.23,1.14-2.4,4.04-2.17,5.9-3.64.94.61,1.93,1.12,2.95,1.57Z"/>
      <path class="cls-99" d="M58.02,20.55c.33.52.14.77-.52.78-1.61,3.74-3.25,4.44-4.9,2.08-1.5-1.93-1-3.81,1.5-5.63.34-.81,1.93-1.66,2.05-2.75l.99.3c.86,1.76-1.06,3.93.88,5.23Z"/>
      <path class="cls-133" d="M68.65,12.29c-.76,1.91-1.69,3.85-3.44,5.02l-.91,1.85c-1.98-.03-1.56-1.69,1.26-5-.04-.29.36-.62.42-.91.18-.84,1.32-.89,1.75-1.39l.91.42Z"/>
      <path class="cls-93" d="M57.51,21.33c1,.97-.8,3.74-1.88,4.87.6.6.41.78-.49.58-1.18.95-1.85.24-2-2.15-1.94,1.72-2.99.63-1.68-1.62-.29-.92-.63-1.82-1.22-2.6.91-1.34,2.37-2.08,3.86-2.62.37,1.47-2.19,2.98-1.28,4.69,1.52,2.85,3.48-.12,4.68-1.15Z"/>
      <path class="cls-51" d="M64.31,19.16l-5.98,3.77c-.51-.32-.61-1.11-.3-2.37,1.1-1.58,3.46-1.59,4.93-3.37.96-1.16,1.2-3.29,2.62-3.01.31,2.11-2.96,3.42-1.26,5Z"/>
      <path class="cls-126" d="M58.33,22.93l-1.38,2.67c.04,1.28-.44,1.58-1.32.6l1.88-4.87c.1-.27.35-.54.52-.78.8.53.69,1.64.3,2.37Z"/>
      <g>
        <path class="cls-126" d="M27.23,30.07c2.77,1.29,6.24.44,8.47-1.6,0-2.25,1.63-1.59,2.87.02.48.94,1.1,2.14,1.84,3.59,1.82-.23,2.66.48,1,1.71q-2.57,1.96,0,0c.5-1.68,1.51-1.69,2.66-.42,4.8.57,1.63,7.51-1.85,4.03-2.31,3.8-4.08,4.87-5.31,3.21-.27,2.29-1.51,2.1-1.86-.2-2.4.58-7,.83-5.09-2.24-1.45-.25-2.8-1.25-4.06-2.99l-2.05-1.18-1.22-1.12c.85-.36,2.62.1,3.17-.49.73-.78-.61-2.72-.3-3.87,1.81-.58,1.14.92,1.73,1.55Z"/>
        <g>
          <path class="cls-136" d="M29.95,38.18c1.33,2.17-.19,2.83-1.94,1.18l-2.25-2.67c-.96.5-1.53-.01-2.01-1.13l.09-1.55c2.96-.29,4.83,1.71,6.11,4.17Z"/>
          <path class="cls-30" d="M28.01,39.36l1.94-1.18c.95,1.84,3.36,1.63,5.09,2.24-1.49,1.5-3.67,1.28-5.66,1.24.02,1.57-.68,1.78-1.52.5-.45-.47-.81-1.01-1.13-1.57l1.28-1.23Z"/>
          <path class="cls-41" d="M38.57,28.49c.83.12,1.51-.47,2.19-.81,3.5-.59,4.43,4.1.36,3.81.41.81.16.99-.71.59-.99-.23-2.1-.54-2.63-1.04-1.11-1.06-.32-2.17.79-2.56Z"/>
          <path class="cls-44" d="M41.41,33.8c-.2,1.55-1.41,3.35-2.94,2.89-.04-.75-.62-2.16.18-2.41.91-.29,1.9-.32,2.75-.48Z"/>
          <path class="cls-15" d="M32.83,37.15c-1.02-.87-1.19-1.59-.5-2.18l1-3.47c1.08,1.5,1.55,2.93,1.94,4.57.23.94-1.98,2.21-2.45,1.08Z"/>
          <path class="cls-47" d="M44.49,32.01c.19.49-.34.99-.42,1.37-.89.11-1.78.25-2.66.42.07-.58-.82-1.2-1-1.71l.71-.59c1.9-2.49,2.2-2.47,3.37.51Z"/>
          <path class="cls-117" d="M32.33,34.97c.53.6.92,1.42.5,2.18-1.08-.53-1.96-.83-2.29-1.24-.3-.37-.1-1.56.25-2.03.29-.38,1.46,1.17,1.54,1.09Z"/>
        </g>
      </g>
      <path class="cls-126" d="M55.14,26.77c-1.24,1.03-2.48,2.08-3.39,3.42-.31-.09-.6-.2-.89-.34-.19-1.13-.46-2.25-1-3.26.73.73,1.58,1.25,2.63.61.9-.55.6-1.6.65-2.58.77.6,1.4,1.38,2,2.15Z"/>
    </g>
    <g id="front-arm">
      <path class="cls-43" d="M22.33,43.23c-.02-2.93,1.4-2.94,2.94-.45,1.54.91,1.15,1.67-1.19,2.29-1.07.69-1.31,1.98-.72,3.86,2.88,3.08-1.97,4.06-1.48,1.3l-1.77-.11c-.49-.97-1.12-1.91-1.27-3.01-.09-.62.13-1.26.3-1.84.45-1.86,1.34-3.07,3.18-2.04Z"/>
      <path class="cls-7" d="M23.36,48.94c1.64-.14,3.31.48,2.89,2.22,1.13,2.46-1.93,5.27-3.92,3.35-.96-1.34-1.47-2.91-2.21-4.37.16-.1.34-1.01.61-1.3.3-.32,1.1.6,1.59,1.21,1.13.41,1.47-.28,1.04-1.11Z"/>
      <path class="cls-158" d="M26.25,51.15c.06-2.1,3.27-1.52,3.22.42.26.79-.23,1.63-1.47,2.53.56.72.36,1.03-.57.92,0,.84-.41.93-1.17.4-1.37-.11-2.45.7-3.12,1.88-.7-.76-.89-1.8-.81-2.8,1.93.08,2.75-2.09,3.92-3.35Z"/>
      <path class="cls-10" d="M27.99,54.1c.29-1.1,1.95-1.72,2.78-.77,1.96-4.1,5.15.03,2.12,2.14-.24,1.26,2.56,4.11,1.24,3.77l-4.76.28c-.24-.04-.48-.11-.7-.22-1.79-.22-6.02-1.17-5.73-2.42.06-.28.89-1.8,1.93-2.13s2.28.55,2.55.28c.01-.32.49-.61.57-.92Z"/>
      <path class="cls-12" d="M24.08,45.07c.37,1.17.99,2.01,1.87,2.53,3.92-.73,8.53,2.36,3.51,3.97-.95-.74-2.14-1-3.22-.42-.87-.84-1.98-1.43-2.89-2.22-.66-.57-1.29-2-1.18-2.91.08-.69,1.37-.84,1.9-.95Z"/>
      <path class="cls-156" d="M25.27,42.78l.63-2.01c1.87-.57,2.75.7,2.24,2.52,1.8-.72,2.1-.02.53,1.17.16,1.9-.52,1.99-1.46.34.17,1.11-.61,1.29-2.35.54-.4.29-.66.2-.77-.28.47-.72.93-1.47,1.19-2.29Z"/>
      <path class="cls-65" d="M29.46,51.57c2.35-1.18,2.63-.42,1.31,1.75-.77.66-1.78.86-2.78.77-.62-.28-1.33-.57-1.52-1.32,1.76-.19,2.59-.31,2.99-1.2Z"/>
      <path class="cls-132" d="M33.37,56.93l1.36-.47c1.27-.28,2.16-.45,1.79.96-.63.55-.96,2.3-2.23,2.11l-1.92-.86c-1.19-.75-.38-2.09,1-1.75Z"/>
      <path class="cls-89" d="M32.89,55.47c.78-1.8,1.52-1.42,1.18.57.44.16.21.46-.7.89l-1,1.75-1.75-.71c.67-.84.99-2.57,2.28-2.5Z"/>
      <path class="cls-78" d="M24.85,45.35c1.08.16,1.86-.02,2.35-.54.5.02,1-.19,1.46-.34,2.99-1.78,4.06-.62,2.99,2.62.65-.65.94-.49.89.45.92.34,1.66,1.09,2.22,2.25.69-.62.98-.43.9.51,1.72,1.75,1.84,2.4-.56,3.31,1.95,1,.67,1.82-1.04,2.43l-1.18-.57c.41-.7.6-1.64-.26-2-.53-.22-1.28.04-1.86-.14-.61-.34-.9-1.22-1.31-1.75,2.23-3.83-4.26-1.28-5.61-4.48-.24-.56-.83-1.49.23-2.03.65-.33.68-.25.77.28Z"/>
      <path class="cls-148" d="M35.11,53.61c.73-1.05,2.32-1.17,4.76-.34-1.65-1.09-1.19-1.86.81-1.48-.08-2.73,3.41-1.17,3.73.82-.1.28-.26.55-.38.82-.08,1.31-.58,2.27-1.7,1.34-.5.25-1.73.27-1.9,1.01-1.74.71-3.64.93-5.7.68-.37.28-.95.27-1.36.47l.7-.89,1.04-2.43Z"/>
      <path class="cls-27" d="M35.57,48.09c-1.43-1.31-.92-1.89.84-1,.76-1.92,2.17-1.62,2.76.36.79-.5,1.1-.29.95.63,1.25,1.16,2.14,2.74.54,3.72-.32.46-.53,1-.81,1.48-1.87.6-4.74-.67-4.19-2.97l-.9-.51c-1.81-.74-1.14-2.24.81-1.7Z"/>
      <path class="cls-103" d="M41.95,40.16c.64-.36,1.38-.69,1.86-1.28,2.03-1.49,3.51,1.42,2.52,3.43-.46.4-.52,1.22-.93,1.68-.59,3.16-1.76,4.74-3.51,4.76-.56,1.96-1.38,1.17-1.76-.67-.35-.13-.62-.46-.95-.63,0-1.16-.15-2.3-.38-3.43.41-1.95,3.62-1.64,3.15-3.86Z"/>
      <path class="cls-55" d="M45.4,43.99c-.37.77.07,1.58,0,2.34-.12,1.49.46,2.97.08,4.44-1.63,1.2-5.49.03-3.6-2.03.9-1.78,1.61-3.86,3.51-4.76Z"/>
      <path class="cls-153" d="M41.89,48.75c.46,1.55,2.31,1.47,3.6,2.03-.17.66-.86,1.2-1.09,1.84-1.11-.72-2.42-1.17-3.73-.82-.56-1.16-.72-2.45-.54-3.72l1.76.67Z"/>
    </g>
  </g>
</svg>