<?xml version="1.0" encoding="UTF-8"?>
<svg id="Enemy" xmlns="http://www.w3.org/2000/svg" viewBox="0 0 74.86 117.72">
  <defs>
    <style>
      .cls-1 {
        fill: #3d424e;
      }

      .cls-2 {
        fill: #0c0f1b;
      }

      .cls-3 {
        fill: #2e3c53;
      }

      .cls-4 {
        fill: #2e3a54;
      }

      .cls-5 {
        fill: #353c44;
      }

      .cls-6 {
        fill: #0d1a3b;
      }

      .cls-7 {
        fill: #141622;
      }

      .cls-8 {
        fill: #050b1b;
      }

      .cls-9 {
        fill: #242e3a;
      }

      .cls-10 {
        fill: #15274b;
      }

      .cls-11 {
        fill: #203154;
      }

      .cls-12 {
        fill: #3e4452;
      }

      .cls-13 {
        fill: #010418;
      }

      .cls-14 {
        fill: #0b1531;
      }

      .cls-15 {
        fill: #2e3442;
      }

      .cls-16 {
        fill: #0f2048;
      }

      .cls-17 {
        fill: #132a52;
      }

      .cls-18 {
        fill: #b47a68;
      }

      .cls-19 {
        fill: #112252;
      }

      .cls-20 {
        fill: #1e2a3a;
      }

      .cls-21 {
        fill: #1c2739;
      }

      .cls-22 {
        fill: #101d33;
      }

      .cls-23 {
        fill: #2b405e;
      }

      .cls-24 {
        fill: #161f31;
      }

      .cls-25 {
        fill: #676f80;
      }

      .cls-26 {
        fill: #2e3a50;
      }

      .cls-27 {
        fill: #1f2a48;
      }

      .cls-28 {
        fill: #122142;
      }

      .cls-29 {
        fill: #272e42;
      }

      .cls-30 {
        fill: #19263c;
      }

      .cls-31 {
        fill: #28282b;
      }

      .cls-32 {
        fill: #172c50;
      }

      .cls-33 {
        fill: #17243d;
      }

      .cls-34 {
        fill: #223455;
      }

      .cls-35 {
        fill: #1a2d51;
      }

      .cls-36 {
        fill: #111322;
      }

      .cls-37 {
        fill: #0e1936;
      }

      .cls-38 {
        fill: #070a23;
      }

      .cls-39 {
        fill: #12162b;
      }

      .cls-40 {
        fill: #192b4a;
      }

      .cls-41 {
        fill: #e07f55;
      }

      .cls-42 {
        fill: #444757;
      }

      .cls-43 {
        fill: #3a5989;
      }

      .cls-44 {
        fill: #292e3d;
      }

      .cls-45 {
        fill: #30353e;
      }

      .cls-46 {
        fill: #111420;
      }

      .cls-47 {
        fill: #171a23;
      }

      .cls-48 {
        fill: #04040d;
      }

      .cls-49 {
        fill: #39445b;
      }

      .cls-50 {
        fill: #08122d;
      }

      .cls-51 {
        fill: #161a29;
      }

      .cls-52 {
        fill: #302920;
      }

      .cls-53 {
        fill: #24304b;
      }

      .cls-54 {
        fill: #232731;
      }

      .cls-55 {
        fill: #293455;
      }

      .cls-56 {
        fill: #222b42;
      }

      .cls-57 {
        fill: #2e1e1f;
      }

      .cls-58 {
        fill: #23324d;
      }

      .cls-59 {
        fill: #434953;
      }

      .cls-60 {
        fill: #242423;
      }

      .cls-61 {
        fill: #08132a;
      }

      .cls-62 {
        fill: #10141e;
      }

      .cls-63 {
        fill: #070a18;
      }

      .cls-64 {
        fill: #10141d;
      }

      .cls-65 {
        fill: #272c41;
      }

      .cls-66 {
        fill: #3b0707;
      }

      .cls-67 {
        fill: #33414d;
      }

      .cls-68 {
        fill: #141926;
      }

      .cls-69 {
        fill: #35373f;
      }

      .cls-70 {
        fill: #232b3a;
      }

      .cls-71 {
        fill: #a8a6ae;
      }

      .cls-72 {
        fill: #4f5460;
      }

      .cls-73 {
        fill: #0f1b2b;
      }

      .cls-74 {
        fill: #0d1b35;
      }

      .cls-75 {
        fill: #262d4c;
      }

      .cls-76 {
        fill: #221311;
      }

      .cls-77 {
        fill: #3a3a3a;
      }

      .cls-78 {
        fill: #1e1e2b;
      }

      .cls-79 {
        fill: #24272c;
      }

      .cls-80 {
        fill: #090d1d;
      }

      .cls-81 {
        fill: #192133;
      }

      .cls-82 {
        fill: #0c1535;
      }

      .cls-83 {
        fill: #0f1d3a;
      }

      .cls-84 {
        fill: #00010c;
      }

      .cls-85 {
        fill: #2d406b;
      }

      .cls-86 {
        fill: #343b40;
      }

      .cls-87 {
        fill: #121525;
      }

      .cls-88 {
        fill: #071332;
      }

      .cls-89 {
        fill: #32466d;
      }

      .cls-90 {
        fill: #15171f;
      }

      .cls-91 {
        fill: #272d3f;
      }

      .cls-92 {
        fill: #0b1025;
      }

      .cls-93 {
        fill: #313e56;
      }

      .cls-94 {
        fill: #161c2c;
      }

      .cls-95 {
        fill: #757986;
      }

      .cls-96 {
        fill: #252b38;
      }

      .cls-97 {
        fill: #272f47;
      }

      .cls-98 {
        fill: #0f1021;
      }

      .cls-99 {
        fill: #4b5161;
      }

      .cls-100 {
        fill: #13203e;
      }

      .cls-101 {
        fill: #353a4f;
      }

      .cls-102 {
        fill: #171c32;
      }

      .cls-103 {
        fill: #121a2c;
      }

      .cls-104 {
        fill: #252938;
      }

      .cls-105 {
        fill: #29314b;
      }

      .cls-106 {
        fill: #080710;
      }

      .cls-107 {
        fill: #191f32;
      }

      .cls-108 {
        fill: #d58f6c;
      }

      .cls-109 {
        fill: #3f444b;
      }

      .cls-110 {
        fill: #202a3d;
      }

      .cls-111 {
        fill: #11203f;
      }

      .cls-112 {
        fill: #0f101c;
      }

      .cls-113 {
        fill: #1b1b1b;
      }

      .cls-114 {
        fill: #161026;
      }

      .cls-115 {
        fill: #191b21;
      }

      .cls-116 {
        fill: #213c6f;
      }

      .cls-117 {
        fill: #6b7780;
      }

      .cls-118 {
        fill: #0a0f19;
      }

      .cls-119 {
        fill: #1a2b51;
      }

      .cls-120 {
        fill: #3e2215;
      }

      .cls-121 {
        fill: #2a3654;
      }

      .cls-122 {
        fill: #0f1320;
      }

      .cls-123 {
        fill: #0a1221;
      }

      .cls-124 {
        fill: #485a71;
      }

      .cls-125 {
        fill: #070e1f;
      }

      .cls-126 {
        fill: #060a15;
      }

      .cls-127 {
        fill: #c3805e;
      }

      .cls-128 {
        fill: #4d4c4d;
      }

      .cls-129 {
        fill: #2a313d;
      }

      .cls-130 {
        fill: #213c66;
      }

      .cls-131 {
        fill: #23293c;
      }

      .cls-132 {
        fill: #151826;
      }

      .cls-133 {
        fill: #0c0e0b;
      }

      .cls-134 {
        fill: #2d3750;
      }

      .cls-135 {
        fill: #2f2b35;
      }

      .cls-136 {
        fill: #444f67;
      }

      .cls-137 {
        fill: #111628;
      }

      .cls-138 {
        fill: #384661;
      }

      .cls-139 {
        fill: #2a201d;
      }

      .cls-140 {
        fill: #0a1837;
      }

      .cls-141 {
        fill: #434848;
      }

      .cls-142 {
        fill: #1b2342;
      }

      .cls-143 {
        fill: #1c2942;
      }

      .cls-144 {
        fill: #841f24;
      }

      .cls-145 {
        fill: #1c2431;
      }

      .cls-146 {
        fill: #565962;
      }

      .cls-147 {
        fill: #0d1529;
      }

      .cls-148 {
        fill: #814a33;
      }

      .cls-149 {
        fill: #15274d;
      }

      .cls-150 {
        fill: #091a40;
      }

      .cls-151 {
        fill: #313f58;
      }

      .cls-152 {
        fill: #45464e;
      }

      .cls-153 {
        fill: #192638;
      }

      .cls-154 {
        fill: #1d2636;
      }

      .cls-155 {
        fill: #0f1c3d;
      }

      .cls-156 {
        fill: #14171e;
      }

      .cls-157 {
        fill: #0a0d19;
      }

      .cls-158 {
        fill: #3d3d3d;
      }

      .cls-159 {
        fill: #19294a;
      }

      .cls-160 {
        fill: #161e31;
      }

      .cls-161 {
        fill: #181c2d;
      }

      .cls-162 {
        fill: #262d44;
      }

      .cls-163 {
        fill: #0f1732;
      }

      .cls-164 {
        fill: #11131f;
      }

      .cls-165 {
        fill: #a27463;
      }

      .cls-166 {
        fill: #2c2f36;
      }

      .cls-167 {
        fill: #314054;
      }

      .cls-168 {
        fill: #0a0e19;
      }

      .cls-169 {
        fill: #161e2d;
      }

      .cls-170 {
        fill: #31303d;
      }

      .cls-171 {
        fill: #1d2c4d;
      }

      .cls-172 {
        fill: #191c23;
      }

      .cls-173 {
        fill: #172d54;
      }
    </style>
  </defs>
  <g id="HyJungScout">
    <g id="back-leg">
      <path class="cls-87" d="M67.6,111.17l-.62-2.29c-.16-.6-.33-1.21-.64-1.75-.79-1.37-2.38-2.1-3.94-2.35s-3.16-.11-4.74-.2c-1.03-.06-2.05-.22-3.08-.23s-2.09.14-2.98.66c-.71.42-1.29,1.06-1.63,1.81-.49,1.09-.45,2.33-.42,3.52,0,.14.01.29.08.41.07.12.2.2.32.27,1.37.77,2.96,1.16,4.54,1.1.76-.03,1.52-.16,2.27-.26,1.78-.25,3.6-.35,5.37-.04.99.17,2.01.48,2.99.24l2.48-.9Z"/>
      <path class="cls-28" d="M56.19,79.12c1.18-.81,2.33.43,3.45,3.7l.21,6.2c-.28.87-.62.86-1,0-.36-1.65-.67-3.45-.94-5.38-.14.87-.49.9-1.05.16-.27,2.9-2.19,2.63-3.02.08-1.32,2.35-3.95,2.27-6,1.14l-.53-3.22c-2.52-.55-2.33-1.54-.37-2.91.61-.28.79-.87.56-1.77-1.54-2.78,2.46-5.51,4.53-2.84.85.62,1.21,1.62,1.06,3.01,1.1,1.54,2.13,2.15,3.09,1.82Z"/>
      <path class="cls-160" d="M58.07,71.95c.45.32.43.93.66,1.36-.29,1.5-.3,3.11-.02,4.81.48.73.86,1.7,1.15,2.9,0,.31-.12.63-.14.94l-.07.87c-1.64-.73-2.04-2.68-3.45-3.7-3.32.87-3.62-4.61-1.34-6.2-.49-.97-.01-2.43,1-2.9.67-.64,1.4,0,2.22,1.94Z"/>
      <path class="cls-71" d="M59.86,89.02v11c-.28.87-.62.86-1,0-.39-2.45-.73-5.12-1-8-.87-.28-.86-.62,0-1-2.61-.75-2.6-1.1,0-2,.28-.87.62-.86,1,0h1Z"/>
      <path class="cls-68" d="M54.86,62.02c.07.3-.14.74,0,1,.04.95.08,1.94-1,2-1.34,1.34-1.71.77-1-1-2.72-1.29-3.97-2.18-1-4,1.09.78,1.45,1.86,3,2Z"/>
      <path class="cls-56" d="M51.86,60.02c.49,1.22.18,2.82,1,4l-1,2c-1.1,2.06-2.16,2.8-3.18,2.22-.39.81-.66.72-.82-.2-1.59.77-2.07.23-1.17-1.26l-1.04-.83c.78-1.53.92-3.18.43-4.95-1.43-.72-1.21-2.97.64-2.82,1.77-1.92,3.39.6,5.14,1.85Z"/>
      <path class="cls-70" d="M44.14,59.07l1.12.75c-.73,1.99-1.09,4.01-1.09,6.07.89.23.9.56.06.99,1.06,2.41.15,2.71-1.86,1.02,0,2.01-.82,1.97-1.25-.06-1.48-.99-2.12-2.35-.12-2.81-1.48-2.28-2.23-3.42-2.23-3.42l1.92-1.37c.44-.61.78-1.3,1.03-2.01.76.4,1.59.64,2.42.83Z"/>
      <path class="cls-35" d="M40.68,60.24l.31,4.79c-.81.06-1.66,0-2.55-.22-.96-.78-1.72-1.78-2.35-2.84.16-.53.95-1.34.77-1.92,1.28.26,2.69,1.18,3.83.19Z"/>
      <path class="cls-107" d="M38.53,66.62c1.17-1.77,1.97-.58,2.59,1.23.35.08.92.14,1.25.06,2.1-.22,2.25.84.49,2.12,1.4,1.01.99,1.36-1.24,1.07-1.15,1.92-3.1,1.06-3.73-.82-2.2.24-2.64-.74-.99-2.21-1.82-.7-1.62-1.48.35-1.45h1.27Z"/>
      <path class="cls-92" d="M40.99,65.03l.12,2.81c-.94-.21-1.78-.73-2.59-1.23l-.09-1.8c-.66-.77.26-1.33.96-1.76,1.25-.76.87,1.59,1.59,1.97Z"/>
      <path class="cls-141" d="M59.85,75.89c-.23,1.01-.61,1.76-1.14,2.23-.23-.83-2-1.33-1.86-2.68.09-.84,1.16-1.48,1.88-2.12.43.78,1.12,1.64,1.12,2.57Z"/>
      <path class="cls-80" d="M58.07,71.95c-1.54,1.05-1.43-1.33-2.22-1.94-.68-.26-.65-.6,0-1-2.66-.32-2.54-1.24,0-2-.83-.29-.82-.62,0-1,1.84,1.38,2.29,3.73,2.22,5.94Z"/>
      <path class="cls-63" d="M55.86,66.02v1c-1.81,2.25-2.7,1.8-2-1-.87-.28-.86-.62,0-1,0-.8.12-1.76,1-2,.49.94.84,1.94,1,3Z"/>
      <path class="cls-168" d="M59.86,81.02c-1.44-.38-.86-1.88-1.15-2.9.32-.71.14-2.14,1.14-2.23v5.13Z"/>
      <path class="cls-159" d="M57.86,102.02c1.01.23,2.05,1.23,3.1,3,.05.39-.07.79-.05,1.19-.5,2.77-2.4,3.08-3.96.78-2.15,1.1-3.48,1.03-4.02-.19-2.36.58-2.36.34-1.09-1.73-1.65-3.14.23-5.78,2.98-3.08-1.72-4.47,2.69-4.34,3.04.04Z"/>
      <path class="cls-102" d="M59.86,100.02c0,1.41.25,2.79,1,4,.15.24.07.71.1,1-1.69.1-2.68-1.5-3.1-3-.63-.85-.63-1.52,0-2,.28-.87.62-.86,1,0h1Z"/>
      <path class="cls-77" d="M64.86,108.02c.61.47.67.78.41,1.12-.66.89-1.65,1.11-2.41.88v-2h2Z"/>
      <path class="cls-87" d="M47.86,85.02l1,1c.87.28.86.62,0,1l1,5c.45-2.64,2.14-3.36,3.37-.83,3.13.45,4.89,2.25,3.27,4.99.04,2.63-1.72,3.21-5.27,1.73l-1.09,1.36c2.31,1.28,2.29,1.82-.24,2.5.72,1.9.7,2.1-1.27,1.25-3.4-.07-4.6-6.36-1.77-8-1.81-3.18-2.67-7.66-.74-10.92.75-.48,1.02-1.5,1.21-2.29.89-.88,1.43.72,2.09,1.35.78.75-1.38.98-1.56,1.86Z"/>
      <path class="cls-16" d="M50.72,69c1.27-1.14,2.26-.41,2.97,2.19,1.3-1.53,1.86.26,1.17,1.73.34,2.81-.83,3.78-2.81,1.36-1.78.25-3.11,1.93-4.53,2.84-2.11.59-3.13-1.14-1.71-2.9-1.75.18-1.72-2.09-.11-2.52-2.77-2.04-.88-4.86,2.15-3.67l.82.2c.64.03,1.32.28,2.04.77Z"/>
      <path class="cls-64" d="M41.62,71.09c.3.87.9,1.67,1.8,2.39.74-.5,1.54-.25,2.39.75.51,1,1,2.06,1.71,2.9l.83.93c.28.31.26.95,0,.92-.62-.05-1.09-.19-1.38-.09-1-1.26-2.91-1.28-4.14-2.14-2.13,0-4.41-1.19-5.79-2.66-1.33,2.19-2.43-.63-.97-1.97-1.05-1.75-.05-2.68,1.83-1.85,1.26-.43,2.72.1,3.73.82Z"/>
      <path class="cls-4" d="M56.19,79.12c.52.59.07.87-.17,1.25-.86,1.4-4.62-.82-5.01-3.06-.16-.91.25-2.15,1.04-3.02,1.16-.16,1.76-.9,2.81-1.36,1.16,1.72.17,4.46,1.34,6.2Z"/>
      <path class="cls-32" d="M56.87,83.8c1.44,3.54-.04,7.83-3.87,5.25-.33.93-.72.9-1.15-.03-1.51-.1-1.64-1.76,0-2-.79-.85-.12-1.9,2-3.14.92-.32,2.07.08,3.02-.08Z"/>
      <path class="cls-26" d="M57.86,89.02v2c-.43,2.27-3.49,1.51-4.63.17-2.2-.78-2.28-1.49-.22-2.13,1.2-.39,2.56-.48,3.17-1.22.9-1.11.72-2.99.7-4.03.34-.06.69-.18,1.05-.16.67,1.67.78,3.75-.06,5.38Z"/>
      <path class="cls-130" d="M53.86,83.88c-.16,1.3-.95,2.38-2,3.14-.78,1.18-1.78.84-3-1-.64-.04-1.14-.25-1-1,2.09.22,4.06-.47,6-1.14Z"/>
      <path class="cls-13" d="M58.86,89.02h-1c0-1.79-.07-3.59.06-5.38,1.75,1.07.71,3.63.94,5.38Z"/>
      <path class="cls-121" d="M55.86,70.02c.22,1.28.23,2.35-1,2.9l-1.17-1.73c-1.76-2.58-.45-3.89,2.17-2.18,0,.32-.05.68,0,1Z"/>
      <path class="cls-79" d="M57.86,91.02v1c.52,1.4,1.06,3.4-.21,4.22.08,1.94-.69,1.9-1.15-.06-.09-1.15-.18-2.39-1.14-3.14-.61,1.43-1.89,1.82-2.79,1.63-.62-.13-2.22-.97-1.12-1.65.9-.56,1.67-.47,2.02-.98.15-.22-.22-.59-.24-.85,1.46-.35,3.15-.76,4.63-.17Z"/>
      <path class="cls-106" d="M58.86,100.02h-1c-2.93.36-2.95-2.95-.21-3.78l.21-4.22c2.16,1.94.55,5.35,1,8Z"/>
      <path class="cls-113" d="M52.86,110.02c3.28-.48,6.81,1.01,10,0,.78.6,1.9,1.22,3,1,.72,0,1.94-1.02,2.07.85-2.12.25-3.55.19-5.07.15-3.51.56-7.13.74-10.87.54-4.54,1.52-3.85-4.69.87-2.54Z"/>
      <path class="cls-73" d="M52.86,64.02c.27.39.63.71,1,1v1c.78,2.61-.52,3.13-2.22.99-.31-.41-.24-.74.22-.99-.49-.71-1.7-.69-2.34-2.41,1.3-.91,2.19.6,3.34.41Z"/>
      <path class="cls-112" d="M45.59,58.14c.31.15.79-.06,1.13.03-.32.62-.18,2.19-.64,2.82.88,1.74.37,5.88-1.91,4.9-.58.08-1.23.45-2.38-.22,1.71-1.54,2.36-4.86,2.35-6.6,0-.27-.11-.85-.24-1.45-.06-.28.39-.84.91-.21.17.21.45.57.78.73Z"/>
      <path class="cls-50" d="M46.69,66.77c.55.06.89.89,1.17,1.26-1.35.78-1.95,2.17-2.15,3.67-.81,1.72-1.76,1.16-2.84-1.68-.07-.72-.25-1.43-.49-2.12.66-.17,1.19-.88,1.86-1.02.96-1.76,1.82-2.08,2.46-.11Z"/>
      <path class="cls-117" d="M46.69,66.77c-.78-.09-1.69-.04-2.46.11l-.06-.99c1.51-1.19.77-3.31,1.91-4.9,2.46.94,1.15,3.76.61,5.78Z"/>
      <path class="cls-55" d="M51.86,66.02c-.11.31-.06.7-.22.99,2.1,1.59,1.65,2.15-.92,1.99.01.4-.16.89-.45.91-.88.08-1.61-.68-1.59-1.68.94-.9,1.99-1.68,3.18-2.22Z"/>
      <path class="cls-29" d="M45.7,71.7c.29.74-.24,1.83.11,2.52.24.98-.67.94-1.25.59-.49-.3-.9-.71-1.14-1.34-1.07-.41-1.87-1.27-1.8-2.39.43-.33.74-.82,1.24-1.07.94.58,1.78,1.35,2.84,1.68Z"/>
      <path class="cls-14" d="M55.86,67.02v2c-1.18.2-1.43,1.52-2.17,2.18-.95.83-2.99,1.24-3.65.27.5-.74,1.65-1.2,1.43-1.69-.15-.34-.76-.53-.75-.77.14-.69.6-1.37.92-1.99l2.22-.99c.52.58,1.25.86,2,1Z"/>
      <path class="cls-91" d="M56.5,96.17l1.15.06.21,3.78c.03.63-.17,1.4,0,2l-1.48-1.84c-.23-.28-1,1.62-1.57,1.8-1.91.49-3.93-.99-4.68-2.71-1.17-1.08-1.82-2.87-.84-4.23,2.11,2.81,4.95,1.88,7.21,1.14Z"/>
      <path class="cls-134" d="M54.81,101.98c-1.49.48-3,1.37-2.98,3.08-2.06,1.23-2.77-1.74-1.94-3.29-.28-.73.29-1.75.24-2.5,1.45-.81,4.72.8,4.68,2.71Z"/>
      <path class="cls-94" d="M51.83,105.06c.43.52,1.12.96,1.09,1.73,2.14.35,1.68,1.19-.07,2.23-2.85,2.43-4.09,2.17-3.71-.78-.74-1.57.07-3.68-.52-5.22.28-.54.7-1,1.27-1.25.45,1.17,1.15,2.32,1.94,3.29Z"/>
      <path class="cls-134" d="M56.94,106.98c-.97,1.17-2.7,1.49-4.09,2.03l.07-2.23,4.02.19Z"/>
      <path class="cls-105" d="M49.86,89.02c2.16-.16,2.16.84,0,3-1.55-.78-2.33-3.73-1-5,1.61-.78,2.99,1.13,1,2Z"/>
      <path class="cls-100" d="M51.86,89.02c.36,0,.81.14,1.15.03l.22,2.13c-.55-.1-1.53-1.24-2.19-.46-.29.35-.45,1.1-1.18,1.29v-3c-.15-1.94,1.48-1.73,2,0Z"/>
      <path class="cls-28" d="M51.86,87.02v2h-2c0-.79-.08-1.79-1-2v-1c1.06.07,2.06.55,3,1Z"/>
      <path class="cls-137" d="M43.42,73.48c-.83.53-1.79.25-2.2-.3-.62-.82-.19-1.63.4-2.09.52.37,1.56.21,1.8.89.2.56.19,1.07,0,1.5Z"/>
    </g>
    <g id="front-leg">
      <path class="cls-51" d="M35.81,76.13c1.1-1.36,2.06-4.71,4.55-7.1s9.19-5.17,9-7.56-3.93-6.7-7.56-6.99c-3.64-.29-13.5-.1-16.47,1.53-2.97,1.63-6.61,2.11-5.65,9.67.96,7.56,4.21,8.81,5.94,9.57s10.19.88,10.19.88Z"/>
      <path class="cls-133" d="M18.11,114.04c-1.09-1.34-2.26-2.62-3.49-3.83-.67-.66-1.38-1.31-2.24-1.66-.73-.3-1.53-.38-2.31-.43-2.18-.14-4.36-.11-6.55-.08-.23,0-.47,0-.69.1-.17.07-.32.18-.46.3-.26.2-.51.41-.77.61-.54.43-1.11.89-1.39,1.53-.35.81-.17,1.74,0,2.61.12.56.26,1.15.67,1.55.38.37.91.5,1.42.62,1.54.37,3.08.73,4.62,1.1,1.57.37,3.14.75,4.75.87.52.04,1.04.05,1.55.14.63.11,1.25.34,1.88.24.5-.08.95-.36,1.43-.52.49-.15,1.01-.17,1.5-.29s1.01-.34,1.27-.78.14-1.12-.34-1.31l-.86-.76Z"/>
      <path class="cls-62" d="M19.85,71.17c2.35.53,2.67,1.88.93,4.03l.8.18c.21,2.9-.03,5.82-.73,8.77.48,2.65-3.46,2.64-4.27.86-1.16,1.82-1.71,1.84-1.64.07-1.37,1.37-1.92.85-.94-.86l1.78-2.11c.72-1.54,1.37-3.23,1.96-5.05-.38-2.42.15-4.61,1.07-6.79,1.32-1.41,1.86-.89,1.04.92Z"/>
      <path class="cls-46" d="M22.72,70.05c1,2.14-1.65,3.28-2.87,1.12l-1.04-.92c.66-1.56.11-3.68.92-5.26.25.15.88.14,1.16.13,2.28.48,2.75,3.07,1.82,4.92Z"/>
      <path class="cls-46" d="M15.78,82.1c.35-.88-.39-2.29.08-3.08.4-.65,1.02-1.92,1.88-1.97.32,2.07.86,5.27-1.96,5.05Z"/>
      <path class="cls-103" d="M22.86,62.89c1.82-1.17,4.17-1.25,4,1.12,2.59.81,2.69,1.19.09,2.19-.07.89-.34.9-.81.09-1.62,1.54-4.47.98-5.25-1.18.16-.66-.22-1.44-.12-2.11l2.08-.12Z"/>
      <path class="cls-111" d="M27.86,64.02c-.28.87-.62.86-1,0-1.22-.7-2.61-1.2-4-1.12.64-.73,1.72-1.81,2.7-1.97.94.97,2.96-.29,3.89.41,1.39,1.04-.94,2.15-1.59,2.69Z"/>
      <path class="cls-155" d="M31.75,63.91c2.08.75,1.1,1.92-.89,2.11,1.94.09,1.78,1.83-.17,1.94-1.34,1.16-3.45-.19-3.73-1.75l-.09-2.19h1c1.2.91,2.6.32,3.89-.11Z"/>
      <path class="cls-122" d="M5.86,103.11c.16,1.7-.42,3.3-1.71,4.81l1.57,1.84c2.46-1.63,2.65-1.03,1.22,1.46-1.33.37-2.68.64-4.04.83-2.22-.59-2.84-4.15-1.83-6.11l2.96-5.75c2.98-1.32,3.62.67,1.84,2.91Z"/>
      <path class="cls-128" d="M12.59,113.14c1.34-.29,2.27.69,1.27,1.88.87.28.86.62,0,1-1.98.86-5.14.94-6.88-.24-.7-.11-1.55-.42-2.12-.76.27-.56.96-.83,2.06-.81,1.68-.25,4.23.16,5.67-1.07Z"/>
      <path class="cls-133" d="M6.92,114.2c-.64.18-1.3.87-2.06.81-.1-.06-5.48.38-2-1,1.36-.02,2.71.04,4.06.19Z"/>
      <path class="cls-39" d="M8.83,94.82c.06.74.79,2.04,2.18,3.92l-3.14,2.01c.82-.05,1.48.71,1.99,2.27,1.92.24,1.87,1.01-.04,1.52-1.25,1.83-4.77,1.24-3.96-1.43-.24-1.17-.81-2.27-1.84-2.91,1.1-2.13,2.63-4.33,3.01-6.58,1.61-2.92,3.94-1.26,1.8,1.21Z"/>
      <path class="cls-129" d="M10.96,91.18c2.51-.38,2.73.69,1.71,2.78,1.79.34,2.1,2.39.26,2.96-.08,1.07-.4,1.15-.96.22-1.71,1.86-2.97-.72-3.15-2.32-.27-.23-.25-.87-.61-1.1s-.78-.27-1.18-.11l.12-.69c.15-.9.8-1.79.96-2.76.36-.35.76-.66,1.08-1.04,2.58-1.25,3.11-.35,1.77,2.05Z"/>
      <path class="cls-145" d="M27.15,75.91c3.01-.18,3.09,1.41.66,3.14-.31.32-.58.56-.77.5-3.13-1,.26-1.42.92.58.07.2-.5.62-1.25,1.09-.27,2.15-3.85,2.81-5.86,2.92-2.63-2.05-1.85-6.78.73-8.77,1.81-2.33,4.34-2.19,5.56.54Z"/>
      <path class="cls-167" d="M24.67,72.1c.6,1.48-.7,2.51-3.88,3.1-.73-1.21-.86-2.64-.93-4.03,1.04-.15,2.08-.4,2.87-1.12-.93-2.58-.46-3.06,2.14-2.19,2.5,1.34,2.8,3.56-.2,4.24Z"/>
      <path class="cls-49" d="M16.58,85l2.28,2.02c1.41.98,1.87,1.81-.03,2.14,1.35,1.4.73,1.9-.94.75-2.39,3-6.12.73-4.07-2.95.49-.53.7-1.31,1.11-1.9l1.64-.07Z"/>
      <path class="cls-119" d="M26.07,73.03c2.23-.75,3.37.28,1.56,2.17.44.59.27.82-.49.72-1.76-.77-3.69-1.05-5.56-.54-.32.09-.59.16-.8-.18.98-1.38,2.43-2.27,3.88-3.1,1.37-1.24,2-.82,1.41.93Z"/>
      <path class="cls-131" d="M21.24,85.13c2.8.59,2.47,2.02-.16,2.65-.23,1.91-1.78.83-2.22-.76-.7,0-1.53.24-1.96.59-.9.74-1.27-.16-1.05-1.09.12-.51.39-1.06.72-1.52,1.35-.05,3.12.04,4.27-.86.96-.08,1.07.26.39.99Z"/>
      <path class="cls-152" d="M26.15,66.31c1.83.65,1.62,1.4-.36,1.51-.2.77-.51.77-.92.04-.66.78-1.38,1.5-2.14,2.19-1.54-1.19-2.29-3.03-1.82-4.92,1.8-.28,3.95-.37,5.25,1.18Z"/>
      <path class="cls-101" d="M30.69,67.96c.87-.11.86.16.1.76,1.39,3.57-6.08,3.34-5-.89l.36-1.51.81-.09c1.46-.17,2.62.87,3.73,1.75Z"/>
      <path class="cls-37" d="M37.26,66.62l-.35,1.45c-.06,2.17-.5,2.05-2.16.95-1.47,1.56-2.15.84-1.15-1.17-2.16.08-2.14-.92,0-1.64-.98-1.54-.39-1.86,1.26-1.19.83.48,2.26.22,2.4,1.6Z"/>
      <path class="cls-19" d="M34.86,65.02c-.39.42-.81.83-1.26,1.19-.74,1.38-2.63,1.58-2.74-.19l.89-2.11c1.27-.42,2.2.59,3.11,1.11Z"/>
      <path class="cls-89" d="M33.6,66.21c-.25.52-.26,1.12,0,1.64-.23,2.71-1.14,2.98-2.81.86,0-.25-.12-.51-.1-.76l.17-1.94,2.74.19Z"/>
      <path class="cls-72" d="M11.69,107.83c.54,1.07-.73,2.15-3.83,3.24-.28-.02-.65.07-.93.15-.28-.48-.63-1.28-1.22-1.46-1.32-.02-1.82-.78-1.6-2.09.7-4.08,6.03-2.75,7.57.15Z"/>
      <path class="cls-54" d="M13.81,109.04c-1.46,1.66-3.86,2.2-5.95,2.03-.58-2.66,2.59-1.36,3.83-3.24.31-1.64.76-2.6,2.34-1.82l-.22,3.03Z"/>
      <path class="cls-158" d="M14.86,116.02h-1v-1c1.08.05,2.54.22,3-1,.76.37,1.63.64,2.05,1.85-1.78.35-2.87.09-4.05.15Z"/>
      <path class="cls-65" d="M9.82,104.53c.62-1.87,2.24-1.28,1.87.67,1.45.03,1.45.91,0,2.62-1.67-.44-3.55-1.29-5.99-.85-1.3.23-.3,2.14.01,2.79-.5-.15-1.24.33-2.2.14-.3-.06-.77-.37-.11-1.18-.75-2.51.17-4.95,2.45-5.61,1.26.63,2.64.95,3.96,1.43Z"/>
      <path class="cls-1" d="M11.98,97.14c3.47,1.55,1.76,6.88-1.12,2.87-1.32,1.78-2.32,2.03-2.99.73,0-1.09,2.05-1.69,1.48-2.93-.4-.88-1.22-1.38-1.45-2.25-.14-.52.14-1.09.92-.75.98.86,2.02,1.67,3.15,2.32Z"/>
      <path class="cls-157" d="M11.69,105.21l-1.87-.67.04-1.52c-.91-.27-.9-.61,0-1,4.15-3.86,6.18,2.73,1.83,3.19Z"/>
      <path class="cls-65" d="M10.86,100.02c1.67,1.17,1.08,2.06-1,2-.11.28,0,.69,0,1-.88.35-2.01.85-2-.48v-1.79c.91-.53,1.96-.71,3-.73Z"/>
      <path class="cls-47" d="M13.9,96.9c.95.33,1.61,1.37,1.96,3.12,1.11.56.9,1.6-.64,3.13-.13,1.05-.5,2.06-1.2,2.87-.7.7-1.46,1.34-2.34,1.82-.14-.79-.29-1.83,0-2.62s1.6-1.55.8-2.41c-.68-.74-1.84-.7-2.64-.78.27-.7.67-1.34,1-2,.81.08,1.87-.13,1.75-1.14-.07-.56-.33-1.15-.63-1.73.34.08.69.01.96-.22.3-1.17.62-1.18.96-.02Z"/>
      <path class="cls-17" d="M17.89,89.91c2.68,2.33-.81,6.67-3.02,3.08.34,2.39-.42,2.57-2.2.96-1.05-.54-1.56-1.64-1.71-2.78,1.39-1.11,1.69-2.94,2.86-4.21.18,2.07,2.25,2.67,4.07,2.95Z"/>
      <path class="cls-124" d="M14.87,93c2.85.09,3.47,2.38.89,3.73.31,2.1-1.09,2.1-1.86.17-.32-.32-.64-.27-.96.02-.19-.98-.29-1.97-.26-2.96.66-.29,1.43-1,2.2-.96Z"/>
      <path class="cls-51" d="M34.69,75.06c.91-.21,1.29.15,1.12,1.07,1.33,2.91-1.24,10.26-5.23,8.22-2.12,2.1-3.18,2.94-3.82-.42-2.74-.68-2.37-1.41-.06-2.7.3-1.33-1.06-2.05-1.78-2.77,1.18-1.38,2.15.43,2.88.6.85-1.36,2.48-2.33,4.87-2.9-1.22-2.37.18-3.03,2.01-1.1Z"/>
      <path class="cls-109" d="M32.67,76.15c-.05.93,0,2.27-.69,2.62-1.25.64-3.05.54-4.18.28.06-1.09-.18-2.16-.66-3.14.11-.27.12-.68.49-.72,1.19-2.35,4.86-1.71,5.04.96Z"/>
      <path class="cls-86" d="M26.77,83.93c1.05,2.83-4.36,3.83-5.52,1.2-.03-.28-.28-.74-.39-.99,1.75-1.36,3.71-2.3,5.86-2.92-.19.86.21,1.82.06,2.7Z"/>
      <path class="cls-40" d="M30.79,68.71c.8-.53,1.91-.6,2.81-.86.22.53.62.95,1.15,1.17,2.77-.26-.08,4.01-.96,4.59-1.7,1.13-5.71.08-7.72-.58-.52-.22-1.02-.51-1.41-.93l.2-4.24c.3-.13.61-.15.92-.04.96.6,1.79,1.31,2.99,1.88.76.37,1.3-.51,2.02-.99Z"/>
      <path class="cls-173" d="M20.97,91.19c.95.98,1.02,1.92-.07,2.8,1.04,3.44-2.81,5.19-5.14,2.74-.25-1.25-.69-2.46-.89-3.73,1.79.08,2.57-1.5,3.02-3.08l.94-.75c1.33-1.63,3.11.6,2.14,2.03Z"/>
      <path class="cls-6" d="M21.08,87.78c3.38,1.58,3.12,6.7-.11,3.41-.37-.98-1.06-1.86-2.14-2.03l.03-2.14c.71,0,1.48.89,2.22.76Z"/>
      <path class="cls-140" d="M36.91,68.06c.39.71.71,1.45.99,2.21-.52.53-.99,1.54-1.83,1.85-.05,1.52-.51,2.49-1.37,2.93-.76.17-1.49.51-2.01,1.1-1.66-.43-3.32-.85-5.04-.96-.45-.77-.96-1.51-1.56-2.17,1.16-2.71,4.73.5,7.28-1.06,1.06-.65,1.19-1.82,1.4-2.95.16-.87,1.49-1.03,2.16-.95Z"/>
      <path class="cls-172" d="M26.77,83.93c1.23.42,2.53.73,3.82.42,2.39,2.47-1.74,7.53-4.9,7.69-.22.86-.53.84-.92,0l-2.23-.36c1.24-1.29.75-2.6-1.45-3.91-.13-.86.24-1.78.16-2.65l5.52-1.2Z"/>
      <path class="cls-137" d="M37.03,74.1c.01.85-.98,1.35-1.22,2.03-.43-.3-.82-.65-1.12-1.07.03-1.07.24-2.51,1.37-2.93-.26.38-.33,1.01-.2,1.36s.81.9,1.17.61Z"/>
      <path class="cls-156" d="M18.79,99.25c-.44,1.81-1.83,3.23-3.56,3.89-.14-1.09.02-2.2.64-3.13-.92-.81-1.03-1.41.22-1.71,1.21-1.32,3.7-1.06,2.71.95Z"/>
      <path class="cls-24" d="M20.95,98l-2.17,1.25c-.69-.76-1.71-.97-2.71-.95-1.46-.17-1.61-.86-.32-1.57,1.19-.11,2.57.42,3.8-.3.75-.44,1.12-1.53,1.34-2.44.46-.86.85-.72,1.19.29l-1.14,3.73Z"/>
      <path class="cls-129" d="M15.76,96.73l.32,1.57-.22,1.71c-1.4-.32-1.92-1.79-1.96-3.12l1.86-.17Z"/>
      <path class="cls-110" d="M24.76,92.04c-.47,1.14-1.46,1.95-2.67,2.23-.39-.14-.79-.24-1.19-.29-.07-.41-.91-.99-.93-1.45-.01-.41.83-.99,1-1.35l1.92-.57c-.8-.85-1.64-1.73-1.81-2.84,2.57-.45,2.94,2.28,3.68,4.27Z"/>
      <path class="cls-22" d="M14.93,85.07c.63,1.17.35,2.46-1.11,1.9,1.1,2.88.62,5.28-2.86,4.21-.56-.7-1.12-1.42-1.77-2.05,1.5-1.75,3.34-3.2,4.81-4.93l.94.86Z"/>
    </g>
    <g id="head">
      <path class="cls-85" d="M50.91.96l1.17,1.07c2.59,1.19,2.62,1.91-.08,2.91-.32.88-.7.91-1.14.08-.76,2.54-4.09.13-5.15-1.76-.29.87-.63.86-1.02,0-1.95,0-1.87-.79.11-1.2l6.1-1.1Z"/>
      <path class="cls-144" d="M56.66,3.92l.04,1.09c.55.79.93,1.54,0,1.96-.85,2.7-5.87.68-4.69-2.04.12-.97.14-1.94.08-2.91,1.71.1,3.14,1.03,4.58,1.89Z"/>
      <path class="cls-127" d="M54.65,10.94l1.12.24c-.52,1.71-.6,3.35-.25,4.91l-.04.95c-1.29.72-1.54,3.37-3.45,2.95l-.53-.79c.9,5.12-2.88,3.67-4.81.04-2.64,1.85-4.06-.11-1.77-2.43l1.15-1.98c5.08,1.31,6.98.05,5.69-3.8-1.14-1.79-.55-2.37,1.11-1.01.56-.96,2.14-.3,1.79.92Z"/>
      <path class="cls-148" d="M56.86,11.02v1c-1.03,1.1-1.29,2.62-1.34,4.07-1.33-1.26-.66-3.45-.87-5.15.27-1.19,1.59-.9,2.21.08Z"/>
      <path class="cls-76" d="M50.84,7.84c1.94,1.11.31,3.07-1.51,2.28-.31,2.32-2.53,3.71-4.47,1.9-.98,1.4-1.67,2.21-3.03.81-.07-3.37.89-6.82,2.86-9.56h1.02l1.79,1.92c1.99.5,3.1,1.39,3.34,2.65Z"/>
      <path class="cls-66" d="M56.69,6.97c0,1.02.17,2.03.17,3.05-1.13.74-3.23-.06-4.01-1.17-.96,1.61-2.7.85-2.01-1.01-2.09-1.55-2.08-2.49.02-2.82.37-.09.77-.02,1.14-.08,1.06,1.56,2.81,2.53,4.69,2.04Z"/>
      <path class="cls-147" d="M50.86,5.02c-.16.9.25,1.94-.02,2.82-2.14-1.07-5.19-1.84-5.13-4.58,1.7.82,3.19,2.25,5.15,1.76Z"/>
      <path class="cls-127" d="M44.86,12.02c1.76,1.87,1.62,2.35-.87,3-.63-.39-1.45-.7-2.13-1l-.03-1.19c.81-.76,2.13-.41,3.03-.81Z"/>
      <path class="cls-41" d="M49.33,10.12c1.39-1.27,2.35-.93,2.42.91,1.97-.34,2.33,1.05,2.1,2.58-.2,1.3-.17,3.12-2.09,3.37-2.52.33-4.74-.23-6.84-.16-.22-.5-.42-1.49-.92-1.79.02-1.06.29-2.1.87-3,1.41-.63,2.72-2.48,4.47-1.9Z"/>
      <path class="cls-120" d="M52.85,8.85c1.47.41,1.49.74,0,1.17-.5.06-1.49.26-1.11,1.01-1.04.18-1.61-.64-2.42-.91.98.12,1.26-1.48,1.51-2.28l2.01,1.01Z"/>
      <path class="cls-18" d="M56.86,10.02v1l-2.21-.08c-.38-.59-1.07-1-1.79-.92v-1.17c1.2.6,2.79.39,4,1.17Z"/>
    </g>
    <g id="body">
      <path class="cls-36" d="M49.7,47.99c-.54-1.59-.57-3.3-.09-4.91,1.3-4.36,3.84-12.97,3.84-14.01,0-1.4.32-5.11-1.66-6.32-1.98-1.21-4.6-2.55-6.19-3.7-1.6-1.15-6.96-1.66-9.32-1.53s-6.77.13-8.55,1.21-6.83,2.74-7.02,4.85-3.32,6.83-2.68,9.51.77,6.77.77,8.55,1.34,11.23.89,14.23-2.62,6.96-1.66,7.47,6.06.13,7.66.77,6.19,1.66,8.11,1.91c1.91.26,3.51,1.79,5.17,1.15,1.66-.64,8.94-2.17,9.64-2.62s3.32-3.64,3.38-4.15-.64-5.68-.89-7.6c-.14-1.06-.81-3.16-1.38-4.82Z"/>
      <path class="cls-31" d="M41.86,14.02c1.53-1.25,2.44-1,2.13,1,2.6-1.04,3.09,0,.92,1.79.45,2.46.25,2.41-1.93,1.26-1.37,1.82-2.36,1.42-2.98-1.19l-.16-1.74.04-1.25c.59.04,1.45-.1,1.99.14Z"/>
      <path class="cls-36" d="M22.15,38.8c3.03-.78,5.76.69,2.63,2.98.21.98-.71,1.27-2.75.87l.82.36c2.4,2.51,1.06,8.04-3,6-1.27-1.91-.59-5.57-.03-8.03l-.02-1.88c-1.12-.72-1.11-1.93.44-1.67l.81-.08c2.22-1.49,2.65-.68,1.08,1.45Z"/>
      <path class="cls-151" d="M25.97,27.99c.31.27.6.56.88.86-1.41.64-2.92,1.46-3.23,3.07-.83-.68-1.21-2.51-.69-3.39.61-1.04,2.26-.38,3.03-.53Z"/>
      <path class="cls-169" d="M40,16.87c2.39,1.05,1.4,2.57-.14,4.15-.26.92-.59.9-1,0-1.3,1.7-1.99,1.82-2.08.35-.44-.9-.97-1.76-1.74-2.41.49-1.98,3.18-2.07,4.95-2.09Z"/>
      <path class="cls-96" d="M44.91,16.81c.39.85.73,2.12,1.77,2.43.91.76.99,1.31.23,1.64,1.28,1.46.73,2.01-1.06,1.14-.25.87-.58.84-1,0-.71.78-1.36.76-1.96-.05-.43,1.8-1.1,2.25-2.01,1.32,1.5,3.4-3,4.54-3.26.87.2-1.12.55-2.22,1.23-3.14.31-.05.71.11,1,0,.9-2.42,1.94-3.4,3.12-2.95.34-.49,1.33-1.24,1.93-1.26Z"/>
      <path class="cls-125" d="M42.97,18.07c-.84,1.19-1.71,2.41-3.12,2.95.44-1.36.79-2.81.14-4.15,1.08,0,2.07.71,2.98,1.19Z"/>
      <path class="cls-170" d="M19.86,49.02c.83.23.8.57,0,1,1.69.33,2.52.87,1,2,1.5,2.79-.87,3.22-3,2,.97-1.99.67-4.06.75-6.14.09-2.32-.26-5.18,1.23-6.89l.03,8.03Z"/>
      <path class="cls-74" d="M26.78,46.14c2.38.74,3.97,1.72,4.78,2.95.3,2.9-.63,4.89-2.79,5.96l.43,1.13c-1.61.94-2.73,2.22-3.34,3.84.89.63.79.93-.3.9-1.69,1.18-2.79.4-3.29-2.35-1.78-1.22.28-5.56,1.73-3.7,1.02-1.93.63-3.57-1.14-4.91-.27,2.79-1.4,1.8-3,.06-.15-.22,0-.72,0-1,3.14.76,1.05-3.13,3-6,1.42-.46,2.73.58,3.92,3.12Z"/>
      <path class="cls-34" d="M42.88,25.04c2.19-.81,3.54.83,2.08,2.76,1.93.37,1.78,1.32-.13,1.93l-2.98,2.29c.96,1.25.42,1.46-1.05,1.04-.65,1.56-1.37,1.64-1.71-.03-1.26-1.05-2.34-2.39-3.24-4.02.8-1.12,1.06-2.49.97-3.85l.8-1.01c1.13.57,2.48.14,3.26-.87,1-.76,1.66-.18,1.99,1.75Z"/>
      <path class="cls-99" d="M35.86,24.02c-.72.18-.73.94-1.51,2.03-1.01-1.06-.34-2.63-.04-3.88.93.14,1.21,1.1,1.55,1.85Z"/>
      <path class="cls-115" d="M44.86,22.02l1.83,2.15c1.94.17,1.87,3.03.04,3.49.41,1.93-.96,1.76-1.77.14l-2.08-2.76c-1.06-1.14-1.36-2.12.02-3.07.37-.05.6-1.09,1.16-.67.33.24.61.45.8.72Z"/>
      <path class="cls-135" d="M46.69,24.17c-.44.02-2.27.07-2.71-.58-.24-.36,1.03-1.07.88-1.57.33.03.67-.04,1,0,.42.06.95.37,1.18.79.25.45-.35,1-.35,1.36Z"/>
      <path class="cls-38" d="M42.9,21.97l-.02,3.07c-.5-.67-1.79-.73-1.99-1.75.51-.66,1.22-1.21,2.01-1.32Z"/>
      <path class="cls-126" d="M20.86,56.02c1.29.19.89,1.75-.32,2.21,1.13,1.79,1.21,3.38.24,4.78,2.67,0,2.58,1.06.12,2.11-.5.89-.89.85-1.16-.13-.5-.31-1.25-.52-1.72-.91-.59-2.98-.65-6.05-.22-9.06,1.33-1.07,3.35-1.19,3.06,1Z"/>
      <path class="cls-78" d="M20.86,56.02c-.94-.56-1.99-.86-3.06-1,.04-.31-.07-.72.06-1,.65-.32,1.41-.45,2.06-.34,1.09.18,1.08-.85.94-1.66,2.4-1.55,3.11,3.92,0,4Z"/>
      <path class="cls-162" d="M22.86,49.96c2.06.95,3.84,3.8,1.14,4.91-1.4.45-1.91,2.43-1.73,3.7,1.85,4.18-3.79,3.3-1.73-.34.22-.67.02-1.58.32-2.21.4-.52.94-.96,1.06-1.63.2-1.12-.34-1.74-1.06-2.37-.51-.45-.61-1.44-1-2,.98-.13,2.03.14,3-.06Z"/>
      <path class="cls-163" d="M51.49,32.95l1.31,1.34c.06.54-.11,1.12-.02,1.65-.56,2.51-1.29,2.39-2.59.23-.24,2.04-1.1,1.98-1.51-.06-1.95,2.03-2.65,1.65-1.98-1.07-2.87-.73-2.51-3.18-.37-4.72l1.14-.78c1.13,1.4,2.47,2.54,4.02,3.42Z"/>
      <path class="cls-11" d="M42.78,40.92l1.08.09c.97,1.12.19,1.39-1.03,1.63-.15.03,1.63-1.54,2.03.37,1.57,1.26,1.02,2.8-.92,3.15,2.94,2.12,1.57,3.18-4.12,3.16-2.11-2.01-3.43-2.12-3.96-.32-.89.57-3.52,1.36-4.3.07-2.02-.82-3.6-1.02-4.78-2.95.93-1.48,2.96-2.19,6.08-2.12.1-.98,1.09-1.34,2.96-1.09.05-.91.36-.87.91-.04.73-1.87,1.64-1.79,2.13.13-.06-2.5,1.95-3.73,3.92-2.09Z"/>
      <path class="cls-88" d="M22.27,58.57c.56-.9,2.01-.5,2.4.27.24.47-.46,1.85.89,2.08.56,1.23-.34,1.89-2.7,1.97.45,1.54-1.61,1.59-2.08.12-.5-.88-1.28-1.58-1.63-2.67-.27-.84.49-1.72,1.39-2.12-.49,1.73,1.28,2.26,1.73.34Z"/>
      <path class="cls-20" d="M32.74,51.17c1.66-.84,2.71.57,2.42,2.14.91-.04.88.25.05.81-1.05,1.33-2.66,1.9-3.3.14-1.06,1.15-2.09,2.14-3.15.8.6-2.41-.09-5.37,2.79-5.96,2.2.59,2.6,1.29,1.19,2.08Z"/>
      <path class="cls-58" d="M31.86,62.02c2.66.29,2.46,1.24-.11,1.89-1.31,2.4-3.25,2.8-3.89.11.2-1.16-.47-1.72-2.02-1.69l-.28-1.4c.3.01.32-.65.3-.9.13-.61.33-1.04,1-1.08,2.52-1.07,5.55.12,5,3.08Z"/>
      <path class="cls-5" d="M31.92,54.25c2.01,1.18-.55,3.13-2.33,3.51-.33.81-1.23,1.2-2.72,1.18-.24.42-.71.69-1,1.08-.14-1.49,1.15-4.24,2.91-4.97.98-.41,2.13-.54,3.15-.8Z"/>
      <path class="cls-3" d="M24,54.87c-.16-1.68-.76-3.27-1.14-4.91,1.96-.4,3.03,1.12,4.46,2.76-.61,1.46-1.95,1.72-3.31,2.15Z"/>
      <path class="cls-21" d="M32.1,40.78c-1.88.46-2.24-1.58-3.24-2.73l.04-2.03c1.84.9,2.7,2.85,3.2,4.76Z"/>
      <path class="cls-69" d="M34.82,34.06l-.74,5.09c-1.99-.1-2.06-2.53-2.47-4.08.93-.69,2.06-.98,3.21-1.01Z"/>
      <path class="cls-136" d="M39.1,33.04c-.14.92-.5.98-1.09.22l-1.27-.29c-1.68.03-2-1.91-.88-2.94v-1c1.19.07,2.24-.22,4.06.18-.95,1.36-1.02,2.58-.82,3.84Z"/>
      <path class="cls-97" d="M36.74,32.96l-1.88.06c-1-.37-1.21-1.24-.59-1.9.52-.55,1.02-.9,1.59-1.1.83.75,1.01,1.87.88,2.94Z"/>
      <path class="cls-27" d="M46.7,35.04c.02,3.99-4.61,2.14-4.87-1.06-1.5.88-1.92.58-1.02-.92.02-.48.55-1.02,1.05-1.04.85-.8,1.84-1.56,2.98-2.29.74-.42.99.16,1.49.58.45,1.53.46,3.14.37,4.72Z"/>
      <path class="cls-114" d="M40.81,33.06c.4.13.66.7,1.02.92,1.04,2.82-.73,3.96-2.88,1.9-.5-.8-.77-1.7-.93-2.63l1.09-.22c.52-.11,1.18-.11,1.71.03Z"/>
      <path class="cls-43" d="M44.83,29.73c-.04.71-.25,1.51-.8,1.97-.63.53-1.47.28-2.18.31-.16-.74.1-1.51.7-1.8.74-.37,1.5-.44,2.28-.48Z"/>
      <path class="cls-90" d="M52.78,35.94c.86,4.91-2.36,3.16-2.05,10.08-.18,1.2-.58,2.07-1.18,2.61-.1,1.47-.75,1.48-.86.07-2.96.75-3.57-1.27-.84-2.68.08-1.88-.26-3.21-1-4-.28.87-.62.86-1,0-1.15.56-2.23.33-2-1l-1.08-.09c-.57-1.57.67-1.46,2.08-1.07.19-2.66,1.16-2.5,1.92.06,1.87-.32,3.01-1.57,3.41-3.75.84-.27,1.7-.51,2.59-.23Z"/>
      <path class="cls-118" d="M49.86,55.02l2,5c-1.39,1.31-3.11.69-5.14-1.85-.59-2.21,1.08-4.87,3.14-6.15-2.16.2-2.26-.93-.3-3.39-.09-1,.2-2.14,1.18-2.61.14,3.04.69,6.28-.87,9Z"/>
      <path class="cls-57" d="M46.78,39.91c1.46-.73,2.38-2.17,1.91-3.81.39.08,1.13.18,1.51.06.9,1,.28,2.01-.13,2.73-.69,1.2-2.31,1.41-3.28,1.02Z"/>
      <path class="cls-150" d="M43.94,46.17c1.22-2.26,1.96-2.82,2.92-.15.28-.87.62-.86,1,0-.27.83.58,1.95.84,2.68,1.9,3.07-5.24,6.05-4.84,1.32-.66.87-2,1.21-4.04,1.02.1.88-.13.88-.64.08-1.32,1.77-1.74,1.39-1.25-1.14-.62.99-1.72.02-2.07-.96-.25-1.14-1.38-1.59-2.24-3.19,5.25-1.53,9.04,5.91,10.32.34Z"/>
      <path class="cls-25" d="M35.86,49.02c.81.21,1.4.35,2.07.96,1.22,2.44-.51,2.83-5.18,1.19-.19-.72-1.22-1.22-1.19-2.08,1.21.49,3.01-.4,4.3-.07Z"/>
      <path class="cls-149" d="M46.86,46.02c-.98,0-1.95,0-2.92.15.39-1.02.7-2.08.92-3.15-1.02-1.14-.47-1.57,1-1h1c1.7.34,1.13,2.96,0,4Z"/>
      <path class="cls-82" d="M45.86,42.02l-1,1c-.84-.11-1.63.32-3.08-.3.62-.91,1.67-.88,2.08-1.7.75.07,1.42.51,2,1Z"/>
      <path class="cls-83" d="M38.02,52.99c2.19-.03,2.54.99,2.14,3,2.5-.22,2.64,0,1.55,2.24,1.77,1.21,1.17,2.15-1.03,2.01,0,2.59-3.79,2.81-3.83-.19-2.83-.14-2.92-2.35-1.26-4.17-2.06-.03-2.22-.87-.38-1.76-.08-.26,0-.55-.05-.81-.01-2.23,1.38-1.71,2.86-.31Z"/>
      <path class="cls-59" d="M37.93,49.98l1.25,1.14c2.97,1.08,1.69,3.37-1.15,1.88-.93.22-1.93.14-2.86.31-1.24-.26-2.11-.96-2.42-2.14.11-1.29,1.42-1.47,2.52-1.15.9.26,1.63,1.05,2.15,2.01.83-.88.36-1.56.51-2.05Z"/>
      <path class="cls-75" d="M35.22,54.12c.15.51.09,1.34.38,1.76-.39,2.29-1.48,3.02-3.68,2.12.04,2.11-1.87,1.52-2.33-.24.53-1.35,2.06-2.02,2.33-3.51,1.07-.27,2.21-.21,3.3-.14Z"/>
      <path class="cls-143" d="M36.09,61.97c2.93-.78,3.38.37,2.35,2.84,1.79-.21,1.92,1.43.09,1.8.18,1.95-.64,1.94-1.27,0-1.99,1.07-2.3.72-2.4-1.6-1.14.67-3.01.21-3.11-1.11l.11-1.89c-1.03-1.46-.36-1.9,1.08-.84,1.22-2.7,2.58-2.09,3.14.8Z"/>
      <path class="cls-8" d="M29.58,57.76l2.33.24c2.63.06,2.61,1.16,1.03,3.17-.13.5-.6.75-1.08.84-.85-1.97-3.03-2.65-5-3.08.56-.98,1.64-1.29,2.72-1.18Z"/>
      <path class="cls-171" d="M49.86,52.02c-1.62,2.29-2.68,2.67-3.16,1.13-.89,1.94-1.56,2.64-2.92.76-2.14.32-2.53-.81-.65-1.88-1.24-1.12-.86-1.81.74-2,1.24,1.14,1.35,2.35,3,.8.71-.67,2.27-.48,1.84-2.12.23-.57.52-.56.86-.07l.3,3.39Z"/>
      <path class="cls-82" d="M47.86,46.02h-1v-4c1.14,0,2.21-.01,2.05,1.46-.09.82-.75,1.63-1.05,2.54Z"/>
      <path class="cls-9" d="M46.71,58.17c-.41.89-.78.88-1.13-.03-2.75-2.02-1.34-3.45,1.11-4.99,1.1-.23,2.18-.58,3.16-1.13l-3.14,6.15Z"/>
      <path class="cls-153" d="M43.12,52.02c.15.65.36,1.29.65,1.88,1.74,2.48-1.78,4.37-3.61,2.09-1.44-.3-2.35-1.53-2.14-3,.78-.19,1.03-1.2,1.15-1.88l.64-.08c1.44-.57,2.91-.6,3.3.98Z"/>
      <path class="cls-23" d="M43.86,50.02c.16.76.11,1.71-.74,2-1.15-.12-2.28-.43-3.3-.98.56-1.18,2.95-1.51,4.04-1.02Z"/>
      <path class="cls-61" d="M46.7,53.15l-1.11,4.99c-1.06-.51-1.25.11-1.45.93-1.37,1.67-2.37,1.33-2.42-.83-.86-.45-1.36-1.31-1.55-2.24,1.43-.2,2.63-1.06,3.61-2.09.96-.32,1.94-.55,2.92-.76Z"/>
      <path class="cls-5" d="M35.59,55.88c1.27.98.79,2.67,1.26,4.17,2.42,1.49,2.02,2.26-.77,1.92-1-.42-2.05-.75-3.14-.8-.59-.97-.94-2.05-1.03-3.17.75-1.34,2.11-2.3,3.68-2.12Z"/>
      <path class="cls-2" d="M39.83,15.13c1.95.19,2,1,.16,1.74.11,2.64-3.01,2.55-4.95,2.09-1.29-.22-2.44-.88-3.26-1.9,2.34-1.61,5.26-1.88,8.05-1.93Z"/>
    </g>
    <g id="back-arm">
      <path class="cls-60" d="M74.86,4.02c-.3,1.8-.73,3.64-2,5-.28.87-.62.86-1,0,.26-.93-.19-2.05,0-3,1.77-1.45.38-3.84,1.44-6.02,1.18,1.51.16,3.35,1.56,4.02Z"/>
      <path class="cls-165" d="M70.86,11.02c.84.3.83.63,0,1,.14,4.72-1.25,7.71-4.15,8.98-2.78,3.39-3.9-1.75-3-4.37.02-2.66,2.75-3.67,3.81-5.79,1.11.15,2.22.21,3.34.18Z"/>
      <path class="cls-104" d="M66.71,21c.52.33.46.64-.14.92.12,4.07-1.07,5.39-3.56,3.96-2.18-1.12-2.51-3.03-1.02-5.74-.04-.88,1.05-2.32.7-3.36l1.02-.15c1.52,1.23.69,4.01,3,4.37Z"/>
      <path class="cls-139" d="M72.86,9.02c.12,2.06.1,4.21-1,6l-.04,2.06c-1.81.81-2.13-.88-.96-5.06-.16-.24.07-.71,0-1-.19-.84.82-1.36,1-2h1Z"/>
      <path class="cls-98" d="M66.57,21.92c1.31.46.85,3.73.35,5.21.8.29.7.53-.2.73-.67,1.36-1.58.99-2.72-1.11-1.04,2.37-2.45,1.83-2.2-.77-.65-.71-1.34-1.38-2.2-1.84.27-1.6,1.27-2.88,2.4-4,.95,1.18-.73,3.63.82,4.8,2.58,1.95,3.11-1.58,3.76-3.01Z"/>
      <path class="cls-52" d="M71.82,17.08l-3.83,5.94c-.6-.07-1.02-.75-1.28-2.02.33-1.9,2.46-2.9,3.05-5.14.38-1.45-.3-3.49,1.1-3.84,1.17,1.78-1.24,4.34.96,5.06Z"/>
      <path class="cls-132" d="M67.98,23.02l-.13,3c.57,1.14.27,1.62-.94,1.1l-.35-5.21c-.02-.29.09-.63.14-.92.95.15,1.31,1.2,1.28,2.02Z"/>
      <g>
        <path class="cls-132" d="M52.03,19.99c1.32,2.76,4.54,4.3,7.56,4.14,1.43-1.73,2.27-.19,2.2,1.84-.22,1.03-.51,2.35-.86,3.94,1.55.98,1.75,2.06-.32,1.95q-3.23-.12,0,0c1.45-.98,2.24-.34,2.32,1.37,3.35,3.49-3.51,6.84-3.99,1.94-4.2,1.47-6.25,1.17-6.15-.89-1.67,1.6-2.5.66-1.31-1.34-2.22-1.07-5.93-3.81-2.5-4.96-.96-1.12-1.37-2.75-1.24-4.89l-.83-2.22-.23-1.64c.88.26,1.96,1.74,2.77,1.63,1.05-.14,1.26-2.49,2.22-3.18,1.77.7.3,1.43.36,2.29Z"/>
        <g>
          <path class="cls-142" d="M48.98,27.99c-.35,2.52-1.95,2.06-2.25-.32l-.04-3.49c-1.06-.23-1.17-.98-.83-2.15l1.06-1.14c2.47,1.66,2.65,4.39,2.07,7.1Z"/>
          <path class="cls-30" d="M46.73,27.66l2.25.32c-.43,2.03,1.56,3.39,2.5,4.96-2.11.22-3.64-1.34-5.16-2.64-.98,1.23-1.65.94-1.49-.58-.05-.65.02-1.29.13-1.93l1.77-.14Z"/>
          <path class="cls-42" d="M61.79,25.98c.57.62,1.46.6,2.2.77,3.08,1.76.82,5.98-2.14,3.17-.2.88-.51.86-.92,0-.62-.8-1.28-1.75-1.37-2.47-.19-1.53,1.13-1.88,2.23-1.47Z"/>
          <path class="cls-45" d="M60.61,31.88c-1.14,1.07-3.21,1.7-4.11.37.45-.6.89-2.06,1.67-1.75.89.36,1.67.96,2.43,1.38Z"/>
          <path class="cls-15" d="M51.86,29.02c-.24-1.32.09-1.98,1-2l2.98-2.04c-.12,1.84-.66,3.24-1.4,4.76-.42.87-2.94.45-2.58-.72Z"/>
          <path class="cls-48" d="M64.13,32.45c-.16.5-.89.55-1.2.79-.76-.48-1.53-.93-2.32-1.37.43-.4.13-1.45.32-1.95h.92c3.05-.73,3.27-.51,2.28,2.53Z"/>
          <path class="cls-123" d="M52.86,27.02c.02.8-.19,1.68-1,2-.5-1.1-.99-1.89-.98-2.41,0-.48.91-1.27,1.49-1.41.46-.11.38,1.83.5,1.82Z"/>
        </g>
      </g>
      <path class="cls-132" d="M66.72,27.85c-.69,1.46-1.37,2.93-1.63,4.54-.32.05-.63.07-.95.07-.65-.94-1.36-1.84-2.28-2.54.97.35,1.96.47,2.64-.55.59-.88-.13-1.7-.5-2.62.95.22,1.86.66,2.72,1.11Z"/>
    </g>
    <g id="front-arm">
      <path class="cls-154" d="M25.97,27.99c-1.67.86-2.45,2.17-2.35,3.93.85.1.89.34.12.72-.26,2.3-1.15,3.87-2.68,4.72-.08.89-.36.9-.81.08-1.34-.67-1.81-2.21-1.39-4.62-2.18-.07-.68-2.2.8-2.78.78-.78,2.69-2.67,2.21-4.01l1,.04c1.47-1.59,4.8.15,3.09,1.92Z"/>
      <path class="cls-44" d="M35.04,18.96c2.6-1.35,3.26-.09,1.74,2.41-.11,1.79-.97,1.78-2.58-.02-1.1-.64-2.36-.27-3.77,1.11-1.43,3.97-4.51.09-1.83-.72l-.71-1.62c.64-.88,1.19-1.86,2.1-2.5.51-.36,1.18-.46,1.78-.57,1.86-.44,3.34-.2,3.26,1.9Z"/>
      <path class="cls-7" d="M30.43,22.47c.87,1.4,1.08,3.17-.66,3.58-1.68,2.12-5.57.68-4.76-1.97.76-1.46,1.92-2.63,2.88-3.95.16.1,1.05-.16,1.43-.05.42.12-.03,1.25-.35,1.97.15,1.19.91,1.18,1.46.43Z"/>
      <path class="cls-166" d="M29.77,26.05c1.9-.9,2.84,2.22,1.09,3.06-.58.59-1.56.53-2.92-.16-.39.83-.75.78-1.08-.09-.75.38-1.02.06-.88-.86-.52-1.27-1.74-1.87-3.09-1.92.36-.97,1.19-1.61,2.13-1.99.81,1.76,3.11,1.5,4.76,1.97Z"/>
      <path class="cls-146" d="M23.74,32.64c.57-2,1.96-1.74,1.94.4,1.99.33,2.14,1.23.16,1.88,1.85.47,2.03,1.67.11,2.1-.25,3.21-1.15,3.2-3.81,1.78l-1.08-1.45c-.07-1.02-.37-2.24.05-3.64.24-.79,1.54-1.12,2.63-1.07Z"/>
      <path class="cls-10" d="M27.94,28.94c1.11-.24,2.42.96,1.95,2.12,4.54-.11,2.32,4.59-.94,2.87-1.23.36-2.96.44-3.26-.89l-1.94-.4c-.08-.23-.12-.47-.12-.72-.9-2.45.9-3.85,3.23-3.07.29-.13.76.16,1.08.09Z"/>
      <path class="cls-84" d="M20.25,37.44c.06.55-.45,1.11-.44,1.67-1.47-.1-1.8-1.69-2.01-2.7-.32-1.55.73-2.43,1.06-3.59,1.32,1.11,1.22,3.01,1.39,4.62Z"/>
      <path class="cls-12" d="M34.2,21.36c-.87.86-1.34,1.79-1.4,2.81,2.44,3.16,1.77,8.67-1.94,4.93.22-1.18-.09-2.36-1.09-3.06.35-1.16.37-2.41.66-3.58.21-.85,1.19-2.06,2.06-2.38.65-.24,1.37.84,1.71,1.26Z"/>
      <path class="cls-164" d="M36.78,21.37l2.08-.35c1.36,1.41.63,2.77-1.23,3.14,1.46,1.27.98,1.86-.8,1.01-1.62,1.01-2.01.45-.97-1.15-.91.66-1.43.04-1.55-1.85-.44-.22-.47-.5-.1-.81.86.09,1.73.16,2.58.02Z"/>
      <path class="cls-67" d="M30.86,29.1c2.12,1.55,1.57,2.15-.97,1.96-.94-.39-1.58-1.2-1.95-2.12-.03-.68-.1-1.44.49-1.96.97,1.48,1.45,2.17,2.43,2.12Z"/>
      <path class="cls-33" d="M28.86,38.05c.94.03,2.02.94,3.24,2.73,1.54-1.42,2.93-.61,1.76,1.24-.22.94-.61,1.02-1.18.23-.74,2.66-4.46,2.13-6.65,1.59-1.31.39-2.61-1.09-1.25-2.06.41-1.66-1.78-1.84-2.63-2.98,1.24-.65,2.5-1.28,3.81-1.78,1.15-1.08,2.62-.71,2.9,1.03Z"/>
      <path class="cls-53" d="M24.78,41.78c-.15.59,1.01,1.5,1.25,2.06,2.81-.86,3.34.82.75,2.3l-3.92-3.12c-.77.22-1.36,1.61-2.44.06,1.19-1.86,3.02-1.1,4.36-1.3Z"/>
      <path class="cls-138" d="M27.86,35.02l1.04,1c.83,1,1.38,1.72-.04,2.03-.77-.31-2.49.19-2.9-1.03l-.11-2.1c.13-1.4,1.69-1.29,2.01.1Z"/>
      <path class="cls-93" d="M28.95,33.93c1.96-.13,1.96.71.02,1.31.06.47-.31.39-1.11-.22l-2.01-.1-.16-1.88c1.05.21,2.73-.28,3.26.89Z"/>
      <path class="cls-81" d="M34.31,22.17c.34,1.04.86,1.65,1.55,1.85.21.45.63.81.97,1.15,2.94,1.85,2.4,3.33-.97,3.85.87.28.86.62,0,1,.12.98-.21,1.98-1,3,.86.33.83.68-.04,1.04-.77,2.33-1.31,2.73-3.21,1.01,0,2.19-1.32,1.43-2.64.18l-.02-1.31c.81.04,1.73-.21,1.66-1.14-.04-.57-.61-1.12-.72-1.72.03-.7.67-1.35.97-1.96,4.43.25-.8-4.37,1.43-7.04.39-.47.95-1.42,1.91-.71.59.43.54.49.1.81Z"/>
      <path class="cls-116" d="M32.68,42.25c1.72.11,2.08,1.35.18,1.77-.42.73-.24,3-1.95,2.87-1.58-.11-2.84-1.02-4.14-.76.03-.85-.42-1.55-.75-2.3,1.25-2.39,4.28-1.64,6.65-1.59Z"/>
      <path class="cls-156" d="M31.61,35.06c1.27.17,2.09,1.53,2.47,4.08.22-1.97,1.12-1.91,1.68.05,2.39-1.32,2.59,2.51.97,3.7-.3.04-.61.02-.91.04-1.2.52-2.29.51-1.96-.91-.45-.34-1.03-1.42-1.76-1.24-1.42-1.23-2.49-2.82-3.2-4.76-.42-.2-.68-.72-1.04-1l1.11.22,2.64-.18Z"/>
      <path class="cls-95" d="M35.82,42.92c-.53,1.14-2.1.87-2.96,1.09l-.18-1.77c.38,0,.79-.22,1.18-.23.57.42,1.34.58,1.96.91Z"/>
      <path class="cls-27" d="M36.74,32.96c.52-1.87,1.27-1.68,1.27.29,2.06-.2,2.42,1.19.93,2.63.8.47.76.85-.12,1.13-.46,1.64-1.47,3.15-3.06,2.17-.55-.08-1.13-.02-1.68-.05-1.38-1.4-1.56-4.53.74-5.09l.04-1.04c-.16-1.95,1.47-2.03,1.88-.06Z"/>
      <path class="cls-108" d="M46.7,35.04c.61.41,1.25.91,1.98,1.07,2.25,1.13.33,3.77-1.91,3.81-.57-.23-1.33.09-1.92-.06-3.08.91-5.02.59-5.83-.96-2,.4-1.67-.69-.2-1.87-.04-.37.13-.76.12-1.13,1.03-.52,1.98-1.18,2.88-1.9,1.92-.52,3.11,2.48,4.87,1.06Z"/>
      <path class="cls-57" d="M44.86,39.85c-.85.02-1.38.78-2.08,1.07-1.38.57-2.44,1.76-3.92,2.09-1.81-.9-2.52-4.87.17-4.13,2,0,4.17-.32,5.83.96Z"/>
      <path class="cls-161" d="M39.03,38.89c-1.17,1.12-.26,2.72-.17,4.13-.66.15-1.46-.22-2.13-.13.13-1.32-.06-2.68-.97-3.7.77-1.03,1.85-1.76,3.06-2.17l.2,1.87Z"/>
    </g>
  </g>
</svg>