<?xml version="1.0" encoding="UTF-8"?>
<svg id="Enemy" xmlns="http://www.w3.org/2000/svg" viewBox="0 0 58.44 131.49">
  <defs>
    <style>
      .cls-1 {
        fill: #0d60ad;
      }

      .cls-2 {
        fill: #551311;
      }

      .cls-3 {
        fill: #562e24;
      }

      .cls-4 {
        fill: #292828;
      }

      .cls-5 {
        fill: #dda785;
      }

      .cls-6 {
        fill: #26140e;
      }

      .cls-7 {
        fill: #6f0a0b;
      }

      .cls-8 {
        fill: #d09677;
      }

      .cls-9 {
        fill: #fcd5b6;
      }

      .cls-10 {
        fill: #401a0e;
      }

      .cls-11 {
        fill: #e9a68c;
      }

      .cls-12 {
        fill: #411008;
      }

      .cls-13 {
        fill: #6a1012;
      }

      .cls-14 {
        fill: #f3c89f;
      }

      .cls-15 {
        fill: #250a0a;
      }

      .cls-16 {
        fill: #4e1216;
      }

      .cls-17 {
        fill: #5c554e;
      }

      .cls-18 {
        fill: #1563be;
      }

      .cls-19 {
        fill: #680709;
      }

      .cls-20 {
        fill: #644137;
      }

      .cls-21 {
        fill: #342c28;
      }

      .cls-22 {
        fill: #989a97;
      }

      .cls-23 {
        fill: #361111;
      }

      .cls-24 {
        fill: #16100b;
      }

      .cls-25 {
        fill: #fff;
      }

      .cls-26 {
        fill: #351112;
      }

      .cls-27 {
        fill: #817b77;
      }

      .cls-28 {
        fill: #348ce6;
      }

      .cls-29 {
        fill: #093c79;
      }

      .cls-30 {
        fill: #29456e;
      }

      .cls-31 {
        fill: #8d9896;
      }

      .cls-32 {
        fill: #811210;
      }

      .cls-33 {
        fill: #6d635d;
      }

      .cls-34 {
        fill: #8b7f78;
      }

      .cls-35 {
        fill: #5e564f;
      }

      .cls-36 {
        fill: #302322;
      }

      .cls-37 {
        fill: #f5ceb5;
      }

      .cls-38 {
        fill: #464039;
      }

      .cls-39 {
        fill: #e0af97;
      }

      .cls-40 {
        fill: #cf967c;
      }

      .cls-41 {
        fill: #2b2725;
      }

      .cls-42 {
        fill: #250203;
      }

      .cls-43 {
        fill: #e8ac8f;
      }

      .cls-44 {
        fill: #413d3b;
      }

      .cls-45 {
        fill: #5c0509;
      }

      .cls-46 {
        fill: #312c28;
      }

      .cls-47 {
        fill: #dda48a;
      }

      .cls-48 {
        fill: #6a0403;
      }

      .cls-49 {
        fill: #fbd7ba;
      }

      .cls-50 {
        fill: #3f5278;
      }

      .cls-51 {
        fill: #5a0405;
      }

      .cls-52 {
        fill: #490703;
      }

      .cls-53 {
        fill: #212020;
      }

      .cls-54 {
        fill: #25211d;
      }

      .cls-55 {
        fill: #312b27;
      }

      .cls-56 {
        fill: #2e1111;
      }

      .cls-57 {
        fill: #ccb5af;
      }

      .cls-58 {
        fill: #52100f;
      }

      .cls-59 {
        fill: #c79686;
      }

      .cls-60 {
        fill: #601417;
      }

      .cls-61 {
        fill: #9f8790;
      }

      .cls-62 {
        fill: #bfb5b3;
      }

      .cls-63 {
        fill: #946f5f;
      }

      .cls-64 {
        fill: #0b80f2;
      }

      .cls-65 {
        fill: #a77566;
      }

      .cls-66 {
        fill: #420202;
      }

      .cls-67 {
        fill: #ac8d78;
      }

      .cls-68 {
        fill: #4a0c0e;
      }

      .cls-69 {
        fill: #f1b9a2;
      }

      .cls-70 {
        fill: #947565;
      }

      .cls-71 {
        fill: #9e1c21;
      }

      .cls-72 {
        fill: #2a1b1b;
      }

      .cls-73 {
        fill: #441315;
      }

      .cls-74 {
        fill: #be9d84;
      }

      .cls-75 {
        fill: #750506;
      }

      .cls-76 {
        fill: #8e8177;
      }

      .cls-77 {
        fill: #42403e;
      }

      .cls-78 {
        fill: #411f15;
      }

      .cls-79 {
        fill: #af1415;
      }

      .cls-80 {
        fill: #b08a78;
      }

      .cls-81 {
        fill: #3b3835;
      }

      .cls-82 {
        fill: #4c0b0d;
      }

      .cls-83 {
        fill: #381110;
      }

      .cls-84 {
        fill: #510707;
      }

      .cls-85 {
        fill: #311f1a;
      }

      .cls-86 {
        fill: #290303;
      }

      .cls-87 {
        fill: #544a47;
      }

      .cls-88 {
        fill: #0b0b0b;
      }

      .cls-89 {
        fill: #3c0405;
      }

      .cls-90 {
        fill: #1f1d33;
      }

      .cls-91 {
        fill: #865643;
      }

      .cls-92 {
        fill: #e7b2a2;
      }

      .cls-93 {
        fill: #6e0a0c;
      }

      .cls-94 {
        fill: #ad8d7d;
      }

      .cls-95 {
        fill: #38312c;
      }

      .cls-96 {
        fill: #866252;
      }

      .cls-97 {
        fill: #460506;
      }

      .cls-98 {
        fill: #0a0a09;
      }

      .cls-99 {
        fill: #453e3c;
      }

      .cls-100 {
        fill: #504740;
      }

      .cls-101 {
        fill: #550404;
      }

      .cls-102 {
        fill: #341f1e;
      }

      .cls-103 {
        fill: #400405;
      }

      .cls-104 {
        fill: #aea6a5;
      }

      .cls-105 {
        fill: #5f0706;
      }

      .cls-106 {
        fill: #734935;
      }

      .cls-107 {
        fill: #520706;
      }

      .cls-108 {
        fill: #48191a;
      }

      .cls-109 {
        fill: #8e6254;
      }

      .cls-110 {
        fill: #680e0e;
      }

      .cls-111 {
        fill: #1b1610;
      }

      .cls-112 {
        fill: #6a5e55;
      }

      .cls-113 {
        fill: #500e0e;
      }

      .cls-114 {
        fill: #531a17;
      }

      .cls-115 {
        fill: #4d453f;
      }

      .cls-116 {
        fill: #360d0d;
      }

      .cls-117 {
        fill: #3e1010;
      }

      .cls-118 {
        fill: #96887d;
      }

      .cls-119 {
        fill: #3d1422;
      }
    </style>
  </defs>
  <g id="JammingJabber_walk">
    <g id="back-arm-assembly">
      <g id="back-glove">
        <path class="cls-30" d="M58.44,33.56l-.67,1.84c-.85,1.17-1.71,1.62-2.56,1.37-.54.74-.85.63-.95-.31-1.13-.61-.74-2.15-.04-3.16-1.84-.02-1.75-1.32-.4-2.31,2.1-1.74,2.98,2.01,4.62,2.57Z"/>
        <path class="cls-90" d="M55.41,39.99c-.44.26-.9.48-1.35.71-2.73-.53-1.94-1.77.53-2.02-2.04-.76-1.43-1.58.61-1.9.61-.82,1.52-1.39,2.56-1.37-.59,1.62-1.61,3.03-2.36,4.59Z"/>
        <path class="cls-90" d="M54.21,33.3c.27.97-.52,1.88-1.56,1.6-.94,1.51-1.55,2.33-2.21.34-.59-1.46.79-2.32,1.73-3.41.42-.49,1.2-.46,1.65-.84.48.67.57,1.51.4,2.31Z"/>
        <path class="cls-50" d="M54.59,38.68l-.53,2.02c-.35.17-.71.77-1.12.76-1.13,1.59-1.82,2.21-2.6.18-1.27,2.4-2.12,1.93-1.65-.76.17-.84.81-1.59.9-2.43.98-1.2,1.6-1.11,1.85.25.8-1.38,2.71-1.75,3.16-.04Z"/>
        <path class="cls-50" d="M54.25,36.47c.45,1.7-1.35,1.7-2.21.34-1.46-.59-.75-1.34.61-1.9.24-.76.63-1.67,1.56-1.6.66.96.47,2.14.04,3.16Z"/>
        <path class="cls-30" d="M54.59,38.68c-1.03-.17-2.14-.29-3.16.04-1.35-.47-.82-1.93.61-1.9.76.1,1.53.01,2.21-.34l.95.31-.61,1.9Z"/>
        <path class="cls-50" d="M52.04,36.81l-.61,1.9c-.39.12-.71.74-1.13.43-.32-.24-.56-.45-.72-.69.11-.97.91-2.3.86-3.21l2.21-.34-.61,1.9Z"/>
      </g>
      <g id="back-arm">
        <path class="cls-70" d="M37.42,37.93c-.23.63.35,2.83.44,3.16s1.39,3.66,1.65,4.4,2.01,4.22,2.22,4.68,2.9,2.24,3.83,1.68,4.63-3.94,5.05-4.46,2.07-3.46,2.26-4.05.54-2.14.35-2.5-1.72-.9-2.31-1.09-1.86,0-2.01.31-.94,2.16-1.31,2.04-.81-.61-.94-1.16-.06-2.94-.12-4.16.35-4.86-.19-5.19-4.48,1.73-5.43,2.03-2.57,1.74-3.49,4.31Z"/>
        <path class="cls-65" d="M51.11,47.24c-.78,1.72-2.43,2.67-3.72,3.89-1.26.23-1.55-.38-.59-1.22-2.1-1.88,1.03-5.52,3.44-4.23.56-.74.89-.61,1.01.33-.11.38.02.87-.14,1.22Z"/>
        <path class="cls-63" d="M51.25,46.01l-1.01-.33c-2.51-.63-2.01-3.28.09-4.03.86-.11,1.73-.2,2.6-.18-.67,1.48-1.23,3-1.68,4.55Z"/>
        <path class="cls-43" d="M50.33,41.65c.02,1.35.11,2.7-.09,4.03l-3.44,4.23c-.3,2.54-4.44,2.84-3.99-.15-2.24-1.86-.27-4.9,2.41-3.96.01-1.56.94-3.33,2.01-4.31,0-1.04.73-1.1,1.46-.6.44.3,1.17.61,1.65.76Z"/>
        <path class="cls-40" d="M47.22,41.49c1.04,1.94-1.12,2.84-2.01,4.31-.92.07-1.1-.26-.52-.98-1.13-2.58-.8-3.73.98-3.47-.34-.53-.17-.82.48-.89l1.08,1.03Z"/>
        <path class="cls-62" d="M46.52,31.09c.23,1.27.21,2.64-.19,3.88-.88,2.12-2.02,1.65-1.92-.66-1.34,1.32-1.95.75-1.2-1.01.82-1.11,1.9-2.05,3.31-2.21Z"/>
        <path class="cls-67" d="M46.33,34.97c-.57,1.79-.47,3.65-.18,5.49l-.48.89c-2.51,1.23-2.58-3.21-1.86-5.09-2.02-.65-1.51-1.93.6-1.95l1.92.66Z"/>
        <path class="cls-69" d="M44.41,34.32l-.6,1.95c.13.94-.33,1.11-1.26.65-.38,2.11-1.32,1.63-2.01-.29-1.16,1.5-1.81,1.09-1.41-.74-.72-.55-.57-.83.39-.85,1.1-.23,2.17-.6,3.1-1.24.19-.13.44-.3.58-.49.46.26.88.59,1.2,1.01Z"/>
        <path class="cls-11" d="M44.69,44.82c.24.27.31.69.52.98l-2.41,3.96c-.35,1.06-1.02.79-2.01-.81-.66-1.52-1.62-3.17.27-4.11-.73-.56-.58-.86.38-.93-.74-2.19-.48-3.16.81-2.91,1.64-.99,2.45.29,2.45,3.82Z"/>
        <path class="cls-70" d="M47.39,51.13c-1.21,1.14-2.11,2.88-4.14,1.85-1.47-.74-1.84-2.59-2.46-4.03.53.42,1.54.33,2.01.81,1.11,1.12,2.67.91,3.99.15.74-.02,1.01.65.59,1.22Z"/>
        <path class="cls-94" d="M41.44,43.9c-.09.32-.28.61-.38.93l-1.9-.61c-.08-1.91-1.53-3.71-1.33-5.68-.76-.5-.63-.81.31-.95,2.08-.45,3.26,4.13,3.3,6.31Z"/>
        <path class="cls-9" d="M45.67,41.35c-.57,1.06-.84,2.27-.98,3.47-1.02-1.13-1.33-2.77-2.45-3.82-.89-1.88-.78-3.24.31-4.09.41-.24.83-.45,1.26-.65.98,1.63.57,3.72,1.86,5.09Z"/>
        <path class="cls-49" d="M40.55,36.63c1.07.89,1.63,2.34,1.7,4.37l-.81,2.91-3.3-6.31,1-1.71,1.41.74Z"/>
        <path class="cls-5" d="M42.55,36.91c-.06,1.36.06,2.77-.31,4.09-1.22-1.15-1.49-2.75-1.7-4.37l2.01.29Z"/>
      </g>
    </g>
    <g id="back-leg-assembly">
      <g id="back-leg">
        <path class="cls-15" d="M23.05,100.92c1.3.29,2.4-.87,3.46-1.68.94-.72,2.04-1.21,3.07-1.8,5.3-3.01,8.83-8.56,10.43-14.44.38-1.41.67-2.87.57-4.33-.09-1.23-.45-2.43-.75-3.63-.59-2.31-.97-4.66-1.36-7.01-.21-1.29-.42-2.59-.63-3.88-.37-2.24-.73-4.49-.85-6.75-.02-.35-.03-.7-.16-1.02-.21-.5-.67-.85-1.12-1.16-5.15-3.61-10.71-6.62-16.48-9.13-1.01-.44-2.16-.87-3.19-.48-.83.31-1.39,1.08-1.89,1.81-1.84,2.65-3.7,5.33-4.84,8.35-.24.64-.45,1.33-.26,1.99.26.91,1.19,1.43,2.04,1.86,3.09,1.55,6.18,3.1,9.28,4.65.23.11.47.24.61.46.14.22.15.49.16.75.05,2.48-.07,4.97-.35,7.43-.1.84-.21,1.69-.04,2.51.55,2.71,3.97,4.47,3.72,7.23-.18,1.96-2.31,3.26-4.28,3.28-.4,0-.81-.03-1.17.13-.37.16-.63.48-.88.8-1.28,1.66-2.44,3.41-3.47,5.24-.4.71-.79,1.47-.75,2.28.05,1.21,1.01,2.15,1.9,2.96,1.21,1.1,2.42,2.21,3.64,3.31l3.62.27Z"/>
        <path class="cls-56" d="M38.26,85.61c-1.73,7.62-6.88,5.55-10.84,11.07-.4.55-1.16.84-1.6,1.35-.65.65-.96.48-.92-.46-2.93-.53-2.71-1.96.25-2.41-1.16-1.7,1.01-3.35,2.72-2.95,1.49-2.24,4.35-4.16,6.83-5.02-1.1-2.86-1.11-6.88,2.59-5.35.43,1.07,1.24,2.55.97,3.77Z"/>
        <path class="cls-103" d="M30.19,62.84c3.22-1.37,5.5,5.16,2.94,6.86,1.79,3.3,2.45,6.58,2,9.81-.68-2.07-.11-3.07,1.71-3-.23-2.62.67-3.09,1.34-.57-.02,1.88,1.45,4.13-.88,5.9-3.65,2.77,2.31,6.25-2.64,7.47-2.63.64-4.72,1.77-6.78,2.91l-1.4-.1c2.4-2.63,3.78-5.18,4.15-7.65-.82.14-1.64-.43-2.47-1.71-2.38.57-3.88-4.71-1.57-5.49q1.82-.72,0,0c-1.87,1.35-3.04-2.46-1.24-3.22q1.68-1.83,0,0c-1.6.93-2.42-1.56-2.67-3.15-.86.46-1.67-.75-1.32-1.73-.76-2.68-.64-4.62.33-5.81,1.58-.98,2.61,1.09,3.24,2.61-1.06-2.28-2.14-3.15-3.24-2.61-2.28.68-4.09-.98-1.63-3.31-1.63.28-1.33-.23-.32-1.48.72-5.17,12.46-.24,10.44,4.26Z"/>
        <path class="cls-103" d="M29.56,86.17l.53,1.1-5.27,6.44.33,1.46c-.59.74-.42,1.58-.25,2.41.23,1.09-1.19,1.36-1.62,2.03-2.03-.78-3.51-2.43-4.52-4.33-.35-3.02,1.8-5.69,6.45-8.01,1.04-2.1,2.1-3.1,3.18-3.01,1.2-.69,1.66.7,1.16,1.91Z"/>
        <path class="cls-68" d="M27.87,92.22c-.26,1.17-1.9,2.16-2.72,2.95-5.68-1.38-.2-1.7,4.4-9-.57-1.56-.61-2.4,1.07-1.69,4.28,3-4.13,4.99-2.75,7.74Z"/>
        <path class="cls-15" d="M25.35,74.05c.41.95.47,2.43,1.24,3.22-.08,1.97.01,4.07,1.57,5.49,1.22.21,1.32.83.24,1.49-2.32,4.37-6.56,7.2-9.63,11.02l-.81-.23c-1.05-.01-2.32-.03-2.41-1.29-2.21-2.45.77-5.96,3.85-4.63.01-1.74,1.51-3.3,4.51-4.66l-3.39-10.61,1.48-1.92c-.9-1.12-.73-1.42.67-1.02,1.15.68,2.14,1.92,2.67,3.15Z"/>
        <path class="cls-93" d="M35.74,72.16c.14,4.47-2.29.85-2.62-2.47.1-2.6-1.23-4.55-2.94-6.86,1.14-.62,2.46-1.78,3.63-1.2.96.48,3.17,9.24,1.93,10.52Z"/>
        <path class="cls-84" d="M35.74,72.16c.53,1.23,1.09,2.89,1.09,4.35,0,1.61-.82,3.37-2.4,3.84-.13-.99-.06-1.78.02-2.2.38-1.97-.93.8-2.69.14,2.98-2.8,1.24-5.76,1.35-8.6.29.62.7,1.25,1.18,2.41.19.47.58.84,1.44.05Z"/>
        <path class="cls-82" d="M21.69,63.36c-.34-1.76-.04-2.67,1.6-1.01,2.15.76,2.99,2.15,3.56,3.69.35.96-.24,3.53-1.69,2.88-2.28-1.11-1.87-4.3-3.46-5.56Z"/>
        <path class="cls-113" d="M25.35,74.05c.79-2.49.68-4.23,2.22-4.48.58,1.53.46,3.17.16,4.13-.21.66-1.94.89-2.37.34Z"/>
        <path class="cls-58" d="M26.59,77.27c.19-1.31.34-2.66.86-2.6,1.21.14.55,1.12,1.1,1.39.77.38.99,1.84.2,1.99-1.12.21-1.8-.09-2.16-.78Z"/>
        <path class="cls-16" d="M30.62,84.47l-1.07,1.69c-.35-.65-1.04-1.21-1.16-1.91l-.24-1.49c.39-.9,1.08-.1,1.46.14.57.36.58,1.27,1.01,1.57Z"/>
        <path class="cls-83" d="M35.6,55.91c-.36.12-1.1-.13-1.35.12-1.45,1.41,1.68,4.54,1.4,5.61-3.09-1.86-3.58-5.35-5.64-8.19-2.12.7-2.71-.57-3.44-2.27-2.15.51-2.4-.19-.34-1.12-1.69-.98-1.22-1.63.72-1,1.66.41,3.41,1.29,5.27,2.64.79-1.23,2.09-1.36,3.91-.4.36-.49.84-.48,1.4-.11,2.52,1.66.81,4.91-1.91,4.72Z"/>
        <path class="cls-7" d="M26.22,50.06c-.67.32.03.81.34,1.12-.58.4-.94,1.04-1.55,1.08-.97.05-1.46-1.02-2.09-1.02.29-.57.67-1.22,1.42-1.46.54-.17,1.26.07,1.88.28Z"/>
      </g>
      <g id="back-shoe">
        <path class="cls-88" d="M16.69,124.71c.78-1.08,1.61-2.35,1.34-3.66-.23-1.11-1.17-1.91-1.79-2.85-1.05-1.6-1.12-3.79-.17-5.46.37-.65.87-1.21,1.3-1.82.5-.69.91-1.45,1.23-2.24.09-.22.19-.46.39-.58.23-.13.52-.05.78-.07.56-.05.97-.54,1.31-.99,1.19-1.57,2.37-3.13,3.56-4.7.28-.37.57-.76.69-1.21.12-.46.05-.95-.09-1.41-.4-1.33-1.32-2.45-2.4-3.31s-2.34-1.49-3.59-2.09c-.95-.46-1.91-.91-2.87-1.34-.41-.19-.88-.38-1.3-.22-.3.11-.52.38-.69.66-1.07,1.72-.97,3.96-1.92,5.75-.97,1.83-2.92,2.97-3.96,4.77-.29.5-.51,1.05-.88,1.5-.46.55-1.1.9-1.65,1.36-.59.49-1.07,1.09-1.54,1.7-.44.56-.88,1.11-1.32,1.67-1.09,1.39-2.2,2.79-3.02,4.36-.05.09-.1.19-.1.3,0,.15.11.27.21.38.86.88,2.08,1.39,3.31,1.37.65,0,1.32-.15,1.95.02.35.1.67.29.99.48.42.25.83.5,1.25.75.24.15.49.3.69.5.27.28.44.64.61.99,1.35,2.69,3.48,4.98,6.06,6.52l1.63-1.13Z"/>
        <path class="cls-41" d="M21.34,103.52c-.51.39-.75,1.2-1.15,1.71-5.02.51-.6-6.58,3.09-5.62-.83-2.39-.76-2.61,1.62-2.03l.92.46c.28.8.76,2.25-.2,3.09-1.37,1.21-3.1,1.47-4.29,2.39Z"/>
        <path class="cls-81" d="M18.77,95.27c2.58-.88,4.52,1.85,4.52,4.33-2.23,3.44-4.96,4.52-3.09,5.62-1.86,2.4-4.67,4.34-5.76,7.67-.55,1.69.51,3.39-.1,4.75l-2.64-.03c-.07-1.96.15-3.5.65-4.61-1.75-.9-.46-3.51,1.21-3.58-.82-.88-1.1-2.03-.87-3.45-.51-2.13.64-3.41,2.58-4.16.15-1.62.67-3.22,1.57-4.82-1.87.65-2.08-.19-.26-1.21.12-1.35.58-1.6,1.39-.74.41-.8.68-.7.81.23Z"/>
        <path class="cls-33" d="M12.34,113c.14,1.74.58,3.53,2,4.65-.18.41-.39.82-.64,1.19-.51,1.01-1.35,1.61-2.44,1.93-1.7.9-3.15-2.13-2.28-3.91-.83-3.07-.47-4.84,1.07-5.32,2.04-1.9,2.92-1.16,2.29,1.46Z"/>
        <path class="cls-111" d="M17.23,124.49c-.67,1.24-2.37,1.88-3.7.62-1.16-1.11-2.23-1.91-3.3-2.64-.84-1.98-.1-2.32,1.25-.54,2.15.36,3.79,1.04,4.91,2.03l.85.53Z"/>
        <path class="cls-34" d="M16.38,123.96c-1.87.06-3.46-.94-4.91-2.03-.64-.63-.46-.88.48-.77.65.36,1.21.95,2.25,1.29.63.2,1.29-.41,1.56-1.25.6.79.83,1.78.63,2.76Z"/>
        <path class="cls-55" d="M9.02,107.5c4.06-.93,3.72,1.21.28,2.84-1.34,1.42-1.23,3.14.32,5.17l-.64,1.35c.5,1.75.5,2.88-1.48,2.65-.23-.26-.7-.33-.96-.57-.52-2.81-1.99-.18-5.7-2.79-1.12-.79.09-2.32.11-3.3l.42-.62c.68-.06.9-.43.68-1.1,1.04-2.08,3.07-3.4,4.43-5.23.71-.59.98-.4.85.53.16.83.73,1.18,1.69,1.07Z"/>
        <path class="cls-115" d="M11.26,120.77l.69.39-.48.77c-.38-.29-1.08.23-1.25.54-1.1-.76-1.86-1.97-2.72-2.96.32-.97.78-1.9,1.48-2.65l2.28,3.91Z"/>
        <path class="cls-4" d="M15.26,101.81c-.05.85.36,1.97-.26,2.74-.54.68-1.69.78-2.32,1.43,1.5,3.06-3.54,3.04-3.44-.7.39-2.23,2.42-5.33,4.26-6.77,3.02.04,3.93.97,1.75,3.31Z"/>
        <path class="cls-53" d="M17.96,95.05c-.48.17-.9.6-1.39.74l.26,1.21c.74.63,1.39,1.47.95,2.52s-1.44,1.87-2.52,2.3c-.06-1.32-.67-2.54-1.75-3.31-.74.55-1,.34-.82-.58-2.42-1.76.27-5.28,2.86-4.17,1-.01,2.19.16,2.41,1.29Z"/>
        <path class="cls-77" d="M13.55,109.42c-.85.92-1.93,1.45-3.25,1.58-.92,1.72-1.58,1.28-1-.66.07-.65.86-1.11.81-1.59-.05-.56-.84-.99-1.09-1.25-2.05.79-1.4-1.52.22-2.23.62.43,1.02,1.58,1.8,1.78s1.17-1.04,1.64-1.08c.59-.06,1.23,1.02,1.7,1.45.74.66-.67,1.42-.84,2Z"/>
        <path class="cls-27" d="M13.55,109.42c-.36,1.2-.65,2.44-1.21,3.58-.71-.57-1.49-1.04-2.29-1.46-.73-.55-.65-.73.25-.54.34-.65.75-1.25,1.51-2.14.46-.54,1.13-.19,1.74.56Z"/>
        <path class="cls-88" d="M16.83,96.99c-.36.67-.74,1.55-1.54,1.49-.7-.05-1.12-1.14-1.14-1.62-.04-1.03,4.01-1.51,2.41-1.08-.11.37-.06.94.26,1.21Z"/>
        <path class="cls-38" d="M10.05,111.54c-.3,1.63.31,2.96,1.66,5.03l-2.73.29c-1.42-2.43-4.07-4.48-3.57-7.86,1.97.28,2.71,1.61,3.88,1.33l1,.66c-.09.17-.21.36-.25.54Z"/>
        <path class="cls-44" d="M1.37,112.23c.24-.35.49-.71.68-1.1,1.41,1.02,2.51,2.53,3.32,4.34-2.42-.55-2.77-2.3-4-3.24Z"/>
        <path class="cls-98" d="M9.24,105.28c-.41.66-.81,1.6-.22,2.23.14.56-2.26.84-2.28.81-.42-.63.31-1.61.59-1.88l5.36-8.51.82.58-4.26,6.77Z"/>
      </g>
    </g>
    <g id="front-leg-assembly">
      <g id="front-shoe">
        <path class="cls-24" d="M49.48,124.34c-.71-.75-1.09-1.74-1.48-2.7-1.18-2.85-2.66-5.57-4.41-8.1-.15-.22-.3-.43-.38-.68-.07-.25-.07-.52-.06-.78.07-1.95.14-3.9.21-5.85.05-1.42.09-2.9-.46-4.21-.13-.32-.3-.64-.29-.99.01-.27.14-.53.21-.79.11-.44.07-.91-.13-1.32-.53-1.07-1.9-1.39-3.08-1.37s-2.42.27-3.54-.14c-.3-.11-.61-.27-.93-.23-.23.03-.43.15-.62.28-.72.46-1.44.93-2.17,1.39-.4.26-.84.55-.99,1.01-.05.15-.07.31-.07.47-.08,1.36.29,2.71.67,4.01.63,2.15,1.3,4.28,2.02,6.4.1.3.21.61.23.93.02.35-.06.69-.11,1.04-.21,1.52.19,3.05.59,4.53.69,2.55,1.38,5.12,2.47,7.53s2.6,4.68,4.68,6.31c.18.14.36.28.58.35.38.12.79.02,1.18-.08.89-.23,1.78-.46,2.67-.7,1.03-.27,2.1-.56,2.9-1.26.62-.54,1.01-1.29,1.36-2.03.23-.5.46-1.05.34-1.59s-.72-1.01-1.22-.77l-.19-.66Z"/>
        <path class="cls-95" d="M40.79,117c1.01.49,1.83,2.21.8,3.06.28.66,1.2.86,2.77.58,1.01-1,1.62,1.24,1.64,2.51.14.75-.14.92-.84.55-.48,1.69-1.08,1.42-1.38-.29-.41,2.1-.98,2.39-1.7.88l-.72.36c-1.69-.32-3.24-1.72-3.73-3.27l-.48-.78c-1.29-.85-2.44-2.67-1.4-4.04.25-.17.27-.72.76-.55.03-2.59.71-3.4,2.05-2.43,1.63-1.18,2.55,1.72,2.24,3.42Z"/>
        <path class="cls-54" d="M33.52,103.85l2.3-.26c1.27,2.5,2.07,5.18,2.4,8.03,1.72-.31,2.12,1.64.32,1.96-1.05.85-.89,2.11-.13,3.87-1.23.27-1.46-.81-1.92-1.44l-.76-1.68c-.89.24-1.06-.04-.56-.84.53-1.87-1.6-3.16-1.9-4.73-1.15-6.15-3.4-3.28-2.97-7.76,2-.99,3.84.73,3.21,2.84Z"/>
        <path class="cls-24" d="M41.36,124.64c.25,2.06-.7,2-2.85-.18l-1.11-1.48c.3-.44.2-1.12.23-1.61,1.79.28,2.79,1.85,3.73,3.27Z"/>
        <path class="cls-35" d="M41.36,124.64c.25-.08.49-.24.72-.36,1.24.31,1.16,2.07.83,3.27,1.63-.47,3.11-.64,4.44-.51l-.41-1.46c-1.85-.19-2.45-.82-1.78-1.89l.84-.55c-.24-.89.05-1.06.84-.55.46-.06,1.1.32,1.93,1.13-.05.95.47,1.66,1.45,2.51l-4.9,3.49c-1.34.76-2.85.54-4-1.14l-2.82-4.12c.91.37,1.91.48,2.85.18Z"/>
        <path class="cls-46" d="M42.61,114.32c2.25-1.98,4.98,2.18,3,4.25.2.29.25.68.43.98l.8,3.06-.84.55-1.64-2.51c-1.89,1.14-2.63-.08-1.09-1.67-1.23,1.02-2.17-1.23-1.64-2.51-1.19-.62-1.65-1.77-.26-2.22.49-1.01.9-.98,1.24.09Z"/>
        <path class="cls-99" d="M41.37,114.23c.41.45-.09,1.69.26,2.22.24.89-.05,1.06-.84.55l-2.24-3.42c-.29-.45.28-1.47-.32-1.96-2.83-8.5,5.06-4.03,3.14,2.61Z"/>
        <path class="cls-112" d="M45.17,123.7c.79.35,1.53.86,2.21,1.51s.78,1.22-.02,1.83c-1.16.11-2.36.1-3.61-.03-1.2-.17-1.11-2.76.03-3.61.42-.22.99.12,1.38.29Z"/>
        <path class="cls-17" d="M41.63,116.45l1.64,2.51c.79,1.28-.56,2.15-1.67,1.09-.46-.96-1.03-1.95-.8-3.06l.84-.55Z"/>
        <path class="cls-100" d="M43.27,118.96l1.09,1.67c-.74.34-1.45,1.47-2.73,1.26-1.35-.22.17-1.4-.04-1.84l1.67-1.09Z"/>
        <path class="cls-76" d="M43.78,123.41l-.03,3.61c.18.81-.1.98-.84.55-.73-.87-.7-2.22-.83-3.27l1.7-.88Z"/>
        <path class="cls-21" d="M35.91,102.2c.11-2.97,1.49-3.36,3.13-.88.88-.25,1.05.03.54.82,1.62.98,1.73,2.44,1.6,3.84,3.81-.72,4.49,6.56,1.42,8.33-.39-.21-.83-.23-1.24-.09l-2.44-6.9c-.11,1.65.41,3.12-.7,4.29-1.35,2.2-2.61-5.67-4.71-7.77,1.04-.08,1.88-.75,2.39-1.65Z"/>
        <path class="cls-112" d="M48.77,123.73c-.94.37-1.44-.5-1.93-1.13-.7-.88-1.15-1.93-.8-3.06l2.74,4.18Z"/>
        <path class="cls-118" d="M47.36,127.04c-1.26.97-3.2,2-4.44.51l.84-.55c.59-.39,1.17-.93,2.04-1.19.71-.21,1.3.47,1.57,1.22Z"/>
        <path class="cls-102" d="M41.19,105.99c-1.87.02-1.53-2.14-1.6-3.84.67-.07,1.02.65,2.47.98-1.05-1.88-.44-3.83-.69-5.61,2.37,2.55,1.68,5.76-.17,8.48Z"/>
      </g>
      <g id="front-leg">
        <path class="cls-42" d="M31.73,101.41l2.79,1.25c1.04.47,2.09.94,3.22,1.05s2.36-.21,3.08-1.09c.52-.63.71-1.47.88-2.27.5-2.29.99-4.57,1.49-6.86.39-1.8.78-3.61.75-5.45-.01-.63-.07-1.27-.05-1.9.03-1.15.33-2.27.36-3.42.1-3.61-2.32-6.72-4.11-9.85-.92-1.61-1.69-3.3-2.31-5.04-.26-.73-.5-1.48-.59-2.25-.26-2.16.6-4.29,1.44-6.3.15-.36.31-.73.58-1.01.36-.37.88-.54,1.31-.82,1.42-.92,1.75-2.96,1.2-4.56s-1.77-2.87-2.96-4.08c-.55-.56-1.1-1.13-1.65-1.69-.56-.57-1.19-1.17-1.99-1.2-.61-.02-1.17.3-1.69.62-4.13,2.51-8.26,5.01-12.39,7.52-.79.48-1.59.96-2.24,1.61-1.07,1.07-1.69,2.5-2.27,3.9-.24.57-.49,1.19-.38,1.8.07.4.29.75.51,1.1,1.59,2.46,3.41,4.8,4.65,7.45.89,1.88,1.47,3.9,2.39,5.76,1.35,2.75,3.38,5.11,5.04,7.68,1.66,2.58,2.98,5.57,2.64,8.62-.23,2.1-1.25,4.08-1.31,6.2l1.62,3.25Z"/>
        <path class="cls-26" d="M17.56,61.94c3.08-1.05,7.82,4.51,4.53,6.36l3.54,7.24c1.81-.33,5.49,5.09,4.38,6.7,1.19.58,2.17,1.43,3,2.45,3.12,3.82,6.27,10.14-.62,10.22.27.92-.02,1.15-.86.68-.25-1.1-.27-2.22-.05-3.32,3.16-2.18-4.31-10.71-7.52-15.62-1.28,1.1-2.28-1.23-1.64-2.51.72-.34.37-1.32-.22-2.19l-3.91-5.84c-.96-1.43-1.06-3.38-1.95-4.76.35-.51.8-.31,1.33.61Z"/>
        <path class="cls-116" d="M32.39,94.9c2.96-.54,3.77,4.86,3.52,7.3,1.56,2.91-.28,4.12-2.39,1.65-.92-.93-2.92-1.11-3.21-2.84.18-1.85.64-3.64,1.22-5.42.22-.28.68-.38.86-.68Z"/>
        <path class="cls-42" d="M32.7,62.52c.82,2.59,1.6,5.33,3.86,6.99.83-.34.97-.09.48.71,1.72,1.07,1.47,1.88-.55,1.81-1.93-3.21-4.86-6.07-5.26-9.84.43.17,1.09.05,1.47.33Z"/>
        <path class="cls-105" d="M30.84,50.73c.02.91.61,2.34-.01,3.4-5.85,10.07,5.49,14.93,3.98,18.99l-2.71-.43-5.12-7.77-2.12.46c-3.66-.04-5.61-5-2.23-6.95-.94-1.71-.29-2.16,1.17-.84-.35-2.2.16-2.2,2.09-1.34-.21-1.2.28-2.31,1.47-3.33-.17-.97.63-1.77,1.59-2.07.53-.16,1.25.02,1.9-.11Z"/>
        <path class="cls-101" d="M15.47,47.35c1.64-.24,2.57,1.14,1.8,2.6l.68,3.35c-.4-.9-.19-1.41.64-1.53-.33-.83-.07-.95.72-.43,1.91.5,2.99,4.97,3.33,7.09-.26,2.62,1.03,4.84,2.23,6.95.83-.29,2.09-.4,2.34.22.92,6.04,3.36,10.81,7.33,14.3,0-1.89.77-3.02,2.29-3.4.46.78,1.59,1.6,1.72,2.52,2.21,1.67,3.9,6.43,1.92,8.47-3.1,5.86-4.68,3.13-6.71-1.84l-3.74-3.42-4.38-6.7-3.54-7.24c.15-2.97-3.55-3.84-4.53-6.36l-1.34-3.17c2.5-2.96-.38-4.86-2.37-10.05-1.14-1.57-.54-2.06,1.14-1.01l.47-.35Z"/>
        <path class="cls-97" d="M40.46,87.5c.44.46.79.91.78,1.36-.05,2.49-.58,8.99-1,11.31-.08.44-.57.81-1.18,1.16-1.07.2-2.12.49-3.13.88-2.72-1.43-2.52-4.64-3.52-7.3.87-1.47,2.76-3.07,2.22-5.29-.75-3.08-3.12-5.11-4.6-7.38,3.41.16,5.18,3.57,6.39,6.68,1.68-.1,2.89-.91,4.06-1.42Z"/>
        <path class="cls-97" d="M25.63,75.54c-1.55-2.36-3.68-4.36-3.54-7.24,1.08,2.46,4.29,4.44,3.54,7.24Z"/>
        <path class="cls-23" d="M40.24,79.13c2.7-1,4.44,1.86,1.87,3.65-.4,2.42.62,5.13,0,7.77s-1.06,4.65-.74,6.96c1.66,3.1.87,9.86-1.78,4.64l-.54-.82c0-4.73.23-9.28,1.41-13.83.69-2.66-1.55-5.92-1.92-8.47l.94-.59.76.69Z"/>
        <path class="cls-75" d="M34.81,73.13c.75,1.07,1.34,2.26,2.01,3.38-.11,2.38.25,4.76,1.05,7.73-12.4-6.07-10.02-13.58-13.01-18.85.75-1.23-.49-2.85,1.2-4.7,3.68,3.97,5.91,8.39,8.75,12.45Z"/>
        <path class="cls-117" d="M40.24,79.13c-.2-.27-.6-.4-.76-.69-.81-1.46-2.82-3.01-1.9-4.73.81,1.89,2.8,3.19,2.66,5.43Z"/>
        <path class="cls-101" d="M25.57,51.69l.61,1.07c.54,1.04.48,2.57-.3,3.49-.4.85-1.09,1.31-2.09,1.34-2.59-.3-3.55-2.92-.8-4.1.86-.57,1.65-1.31,2.57-1.79Z"/>
      </g>
    </g>
    <g id="head">
      <path class="cls-91" d="M47.33,6.88c.13.35.74,1.3.59,1.93s-.37,2.64-.5,3.11-.16,1.09-.13,1.76.32,1.63,0,1.69-.64.35-.96.06-.67.67-.8.83-.16,2.14-.41,2.52-.57,1.53-1.12,1.63-1.37.35-2.04.35-1.72-.16-2.01-.16-.31.73-.44,1.08-1.12,1.31-2.05.99-2.68-.96-3.13-1.47-1.44-2.17-1.53-2.74.35-2.2.48-3.03-.41-1.79-.48-2.87-.13-2.84.83-4.37,1.37-4.76,3.13-4.85,4.82-.77,6.1-.03,4.47,3.57,4.47,3.57Z"/>
      <path class="cls-10" d="M44.9,4.82c1.47.03,2.11,1.96.96,2.86,1.09,1.17-1.81,4.04-3.35,4.17-.06,2.8-1.43,2.83-2.41.25-1.58-1.05-3.04-1.13-4.38-.24-.28.87-.62.86-1,0-1.08,1.05-1.8.42-2-1v-1c-.33-2.52.49-6.11,2.65-7.95-.74-.56-.66-.95.25-1.17L37.74.02c4.2,1.11,6.58,2.71,7.16,4.81Z"/>
      <path class="cls-78" d="M43.84,0c.92,1.25,1.7,2.58,2.53,3.88-.04,1.01-.53,1.33-1.46.94-1.1-1.05-2.5-2.01-4.41-1.39-1.41-.79-2.29-2.09-2.75-3.42,2.03.16,4.06.17,6.1-.02Z"/>
      <path class="cls-92" d="M46.7,9.79c-.36,1.43-1,2.21-1.92,2.34-.11.89-.4.9-.86.08-.7,1.82-1.46,1.61-1.41-.35l3.35-4.17c-.26-1.92.48-2.24,1.68-.71.05.6.88,1.19.38,1.83-.35.45-.76.76-1.22.98Z"/>
      <path class="cls-59" d="M46.43,13.11c-.07.63.22,1.29.2,1.92-.02,1.01-1.53,1.29-1.87,1.91-.69,1.6-1.12,1.68-1.37-.14-3.11-.73-2.43-3.78.52-4.59l.86-.08c1.24-1.27,1.41-.65,1.65.99Z"/>
      <path class="cls-6" d="M46.37,3.88c.63,1,1.07,1.89,1.17,3.09-.55.27-1.11.51-1.68.71-.47-.9-.73-1.88-.96-2.86.46-.36.96-.65,1.46-.94Z"/>
      <path class="cls-109" d="M46.43,13.11c-.64-.16-1.22-.49-1.65-.99.24-1.05.9-1.95,1.92-2.34.07,1.12-.14,2.22-.27,3.32Z"/>
      <path class="cls-12" d="M32.71,9.87v1c1.04.31,1.08,1.27.79,2.15-.04.11-.32-1.88,1.21-1.15h1c.91.15.95.48.16,1,3.19.11,2.19,5.53-1.15,3.83-1.06,1.18-4.47,1.05-4.01-.83-.04-2.72.63-4.72,2-6Z"/>
      <path class="cls-37" d="M42.51,11.85l1.41.35c-.2,1.53-.7,3.04-.52,4.59-.24,2.27-2.09,1.25-3.66.14-3.7.54-3-4.99.35-3.91v-.93s2.42-.25,2.42-.25Z"/>
      <path class="cls-85" d="M35.36,1.92c-1.5,2.17-.39,6.3-2.65,7.95l-2,6c-.69-3.79,1.06-7.22,1.16-10.93,1.55-.82,1.69-3.06,3.48-3.02Z"/>
      <path class="cls-91" d="M40.09,12.11v.93c-1.25,2.01-2.78,1.19-4.22-.16l-.16-1c.04-.85-.19-1.78.04-2.46s1.12-.93,1.65-.16c.92,1.35,2.7,1.16,2.69,2.86Z"/>
      <path class="cls-3" d="M34.71,11.87c-.33.79-.7,1.58-1.8,2.07-.41-1.45-.2-2.23-.2-3.07.8-.02,1.68.19,2,1Z"/>
      <path class="cls-20" d="M34.72,16.71c1.93.09,1.92.86,0,1.29-.39.83-.73.78-1-.13-2.55,1.26-4.21,1.26-5,0v-1.03s2-.97,2-.97c1.04,1.11,2.59,1.15,4.01.83Z"/>
      <path class="cls-47" d="M39.73,16.94c1.22.09,2.45.05,3.66-.14l1.37.14-.94,3.19-1.01-.03c-1.61-.28-2.56-.41-4.11-.05-.4,1.9-2.29-.88-2.45-1.88-.25-1.59,2.25-3.33,3.48-1.23Z"/>
      <path class="cls-39" d="M40.09,13.03c-1.34.9-.98,2.58-.35,3.91-.76.37-1.6.89-1.94,1.64-.3.66.19,1.35.91,1.47.62-.76.95-.65,1.01.33l-.19,1.31c-.12,1.98-1.83,1.6-2.7.16-.99-.88-2.03-2.56-2.1-3.85v-1.29c1.35-.82,1.39-2.37,1.16-3.83,1.2-1.26,2.94-.79,4.21.16Z"/>
      <path class="cls-96" d="M42.81,20.1c-.85.86-2.07.78-3.1.28-.3-.14-.68-.27-1.01-.33.15-.51.82-2.17,1.48-2.04,1.14.23,2.11,1.35,2.63,2.09Z"/>
      <path class="cls-25" d="M44.97,11.83c.05-.21.44-.3.88-.2s.73.42.71.56c-.03.16-.44.3-.88.2s-.76-.35-.71-.56Z"/>
      <circle cx="46.13" cy="12.06" r=".23"/>
      <path class="cls-25" d="M46.32,12.08c0,.06-.05.1-.1.1-.04,0-.08-.03-.08-.07.04,0,.07-.04.07-.08,0-.01,0-.02-.01-.03,0,0,.01-.01.02-.01.05,0,.1.04.1.09Z"/>
    </g>
    <g id="body">
      <g>
        <path class="cls-52" d="M46.53,29.09c-.36-.81-2.55-3.38-3.45-4.21s-2.36-2.49-3.45-2.62-3.19-.06-3.45.64.19,4.53.13,6.13-.83,8.23-1.6,9.26-1.4,3.13-1.4,4.91.58,5.61.35,6.67-.29,2.78.48,3.68,3.7,2.23,4.09,2.11.51-2.49.51-3.13-.51-4.28-.19-5.49.83-5.55,1.28-5.81,2.04-1.47,2.55-2.17,3-3.51,3.7-4.72,1.28-3.38.45-5.23Z"/>
        <path class="cls-52" d="M46.95,29.65l-.24,1.47c.29,1.91-.35,3.5-2.48,3.11.79.49.61.7-.4.64-.73.52-1.8,1.21-2.22.38-.64-1.26-1.08-6.12,1.23-5.38-.45-1.16-.49-2.16-.12-3,.4.07.87-.12,1.26-.01,1.39.38,2.21,1.65,2.97,2.79Z"/>
        <path class="cls-48" d="M44.24,36.4c-.29.79-1.61,1.08-2.99.61-1.03-.79-1.88-2.17-2.54-4.14-.39-.23-.66-.89-.8-2-1.73-.61-2.09-2.12-1.57-3.49.22-.59.61-1.16,1.12-1.62.26-.24.56-.45.89-.63.09-.04.18-.08.28-.13-.75-2.06,1.03-2.75,2.34-1.12.37.61.66,1.27.74,1.99.29.88.55,1.74.77,2.58.13.48.24.95.35,1.42-.24,1.5-.67,2.88-.59,4.92.59.24,1.15.03,1.58.09.24.31.39.6.45.87.06.24.05.46-.03.65Z"/>
        <path class="cls-114" d="M39.51,21.69c.54.69,1,1.44,1.45,2.19l-2.33,1.12c-1.12.56-1.72.16-1.82-1.13-1.14.02-.7-1.25,0-2.02.9.01,1.81-.03,2.7-.16Z"/>
        <path class="cls-60" d="M42.71,26.87c.71.92,1.23,2.22.12,3-.97-1.26-2.9-2.74-1.12-4,.39.28.71.63,1,1Z"/>
        <path class="cls-107" d="M35.69,54.05c.07-1.61-.11-3.59-.9-5.02-.98.02-.86-1.45-.08-2.17.29-.9,1.37-1.47,1.45-1.18.58,2.12-1.63-.15,1.55-.82-.66-1.74-.3-3.32,1.39-2-.25,3.96-.13,7.96-.95,12.04-1.49-.13-1.95-.64-2.46-.86Z"/>
        <path class="cls-79" d="M41.25,37.01l-.11.93c1.51.67,1.48,2.2-.43,1.93-.07.29-.06.71,0,1h-1c-1.78,1.29-1.85-.2-1-2-1.89-.23-.79-4.52,0-6,.63-.12.96-.72,1.88-1.04.2,2.2.2,3.65.65,5.18Z"/>
        <path class="cls-71" d="M39.71,40.87c.4.65-.58,1.47-.61,2-1.17.14-1.03,1.19-1.39,2-2.75,1.43-1.3-6.82,1-6,0,.8.62,1.38,1,2Z"/>
        <path class="cls-19" d="M38.71,38.87c-1.34,1.52-3.05,4.6-1,6l-1.08,2.45c-.42.97-1.25-.2-1.92-.45-.08-.2-.14-.42-.16-.64-.05-.34,0-.71.09-1.05.16-.59.53-1.11,1.07-1.31-.37-.52-.65-1.01-.86-1.47-.74-1.65-.46-2.96.83-3.93.28-.22.61-.42.99-.6.38-2.38,1.17-4.56,1.24-7,.81.29.8,1.27.8,2v6Z"/>
        <path class="cls-108" d="M34.71,46.87c-.11.53-.02,1.64.08,2.17-.36.3-.73.58-1.12.83-.09-2.12.16-4.23.83-6.25.05-.19.08-.37.09-.53.06-.33.15-.56.26-.69.31-.42.72.1.86,1.47-.15.94-.47,1.82-.86,2.67-.04.11-.09.22-.14.33Z"/>
      </g>
      <g>
        <path class="cls-51" d="M28.71,16.84c-.62-.32-6.94.19-8.03.51s-4.72.83-4.98,1.21-.61.96.01,1.31,4.52.48,5.35,1.37,1.21,3.45.32,4.4-3.06,4.21-4.47,4.72c-1.4.51-2.55,1.09-3.32,1.79s-1.53,3.51-1.6,4.72,0,9.26-.06,10.85-.96,8.3-1.09,8.87,1.53,1.47,2.36,1.02,3.64-1.21,4.79-1.09,4.02-.06,4.15-.89,1.53-4.21,1.34-5.87-.64-4.79-.64-5.68,1.55-6.61,1.86-7.23,3.05-3.5,3.31-4.07,1.61-3.44,1.73-4.88-.2-9.03-.52-9.35-.53-1.72-.53-1.72Z"/>
        <path class="cls-119" d="M28.71,16.84c.87.29.86.63,0,1.03,2.92.17,2.78.94.37,2.37-.39,1.21-3.19,1.99-4.37,1.63-1.35,1.32-1.69.75-1-1-1.94-1.44-1.56-2.77,1.15-3.99l3.84-.04Z"/>
        <path class="cls-87" d="M18.71,17.87c2.71.15,4.05.82,4,2,.1,1.97-3.63,1.01-5,0-.28.87-.62.86-1,0-.28.87-.62.86-1,0,.33-1.36,1.64-2.08,3-2Z"/>
        <path class="cls-36" d="M23.71,20.87c-1.24,1.01-1.75.5-1-1l-4-2c2.11.13,4.27.05,6.15-.99l-1.15,3.99Z"/>
        <path class="cls-61" d="M33.71,17.87c-1.28,1.23-3.06,1.62-4.63,2.37l-.37-2.37h5Z"/>
        <path class="cls-86" d="M18.51,32.79c1.39,1.25,1.04,3.13-1.07,5.63.26,2.36-.04,4.21-.9,5.55,1.27,1.11,1.17,3.12-.27,6.02.49,2.9.03,6.38-3.25,3.68-1.48-4.72-1.01-10.77-.31-15.81-.2-2.41.9-4.62,1-7,1.21-.97,3.36-.34,4.09-1.89.35.02.72.12,1.06.2,3.77,1.81,2.51,2.54-.36,3.61Z"/>
        <path class="cls-51" d="M28.26,28.9c1.26,1.43.67,3.48-1.33,2.42-.47.1-.88.18-1.05.12-.25,1.13-.71,2.51-1.49,3.1-.42.32-.94.41-1.56.09-.15,1.12-.58,1.61-1.09,1.42-.32-.11-.68-.48-1.02-1.12-.63.15-1.08.09-1.4-.12-.41-.28-.62-.8-.74-1.47,0-.03,0-.06-.01-.08,0-.15-.02-.31-.06-.47-1.77-.03-2.07-.64-.32-1.21.98-.43,1.45-.93,1.21-1.55-.11-.27-.39-.58-.53-.84,2.18-.35,4.1-1.16,5.76-2.45.28-.38.65-.68,1.08-.87.95.14,2.04.75,2.4,1.92,1.1-.23,1.65-.13,1.64.13-.01.23-.5.61-1.49.98Z"/>
        <path class="cls-73" d="M24.63,26.74c.07,1.58-.86,2.67-2.55,2.87-.96.11-2.13-.16-3.21-.42.15-2.36,3.91-1.83,5.76-2.45Z"/>
        <path class="cls-73" d="M29.75,27.92c-.4.05-.96.01-1.64-.13-.53.02-1.05,0-1.61-.17-.32-.08-.53-.26-.66-.49-.2-.33-.22-.79-.13-1.26.12-.64-.06-1.34,0-2,1.33-.97,2.35-.86,2.86-.08.35.5.47,1.3.32,2.26.76.33,1.25.67,1.49.97.39.47.15.83-.63.9Z"/>
        <path class="cls-72" d="M13.02,53.68c2.7,1.02,2.24,3.1-.62,3.39l-.78-1.23.09-11.96c.02-2.06-.6-4.39,1-6,.12,5.27-.3,10.56.31,15.81Z"/>
        <path class="cls-66" d="M20.72,34.92l1.1.95-3.78,7.87-1.51.22c.43-1.99-1.92-4.43-.59-6.7.97-1.65,3.04-2.61,2.56-4.48.69-.02,1.54.09,1.94.75.24.39.25.94.27,1.39Z"/>
        <path class="cls-110" d="M22.83,34.63c1.61-1.1,2.12-.5.95,1.08.27,1.3-.98,3.28-2.07,4.16-.63,2.11-1.66,3.39-3.08,3.84l-.58.03c.04-3.15,1.82-5.83,2.68-8.82.7-.14,1.39-.28,2.1-.29Z"/>
        <path class="cls-32" d="M25.71,34.87c.85,1.53.58,1.95-1,1-.35.84-.66.76-.93-.15l-.95-1.09c1.06-1.99,2.83-3.41,3.36-5.81.83,1.24,0,2.01.74,2.5.09,1.31-.23,2.56-1.22,3.55Z"/>
        <path class="cls-13" d="M20.82,51.73c-.02.36-.06.96.24,1.18.11.09.28.13.52.06l-1.58,3.87-1.44.06-1.69-3.74c.95-1.61,3.68-2.09,2.78-4.01-.63-1.84.12-2.02,1.14-.28,1.02.29,1.66.64,1.92,1.01.47.62-.16,1.3-1.89,1.85Z"/>
        <path class="cls-89" d="M20.79,48.87l-1.14.28c-.26.07-.56-.05-.84-.03-.38.08-.64.05-.76-.1-.06-.06-.1-.14-.1-.25-.04-.37.21-1,.76-1.9-.05-1.05-.11-2.1-.08-3.15.74-1.51,1.54-3.07,3.08-3.85.85-.03.85.63,0,2-.42.39-.79,1.48-1,2,2.79.78,2.9,4.18.08,5Z"/>
        <path class="cls-45" d="M18.82,49.11c-.56.55-.81,1.59-2.09,1.72-.14-2.26,1.12-3.04,1.99-3.96l.1,2.24Z"/>
        <path class="cls-2" d="M24.71,36.87c-.83,1.79-1.53,3.66-3,5v-2c-.13-1.69.69-3.19,2.07-4.15l.93.15c-.08.3.13.73,0,1Z"/>
      </g>
      <g id="shirt">
        <path class="cls-104" d="M34.64,45.18c-.01.34-.04.69-.09,1.05-.06.37-.13.74-.21,1.11h0c-.07.35-.16.68-.24,1.01-.1.39-.21.76-.31,1.12-.04.14-.08.27-.12.4,1.12,3.7-7.01,3.18-8.96,3-.37.45-.87.86-1.38,1.04-.71.27-1.42.11-1.75-.94-.94.46-1.54.57-1.77.41-.07-.04-.11-.11-.1-.21.01-.14.1-.34.27-.57,0,0,0-.01,0-.01.19-.25.47-.53.84-.86l1.1-1.99c.27.06.53.1.79.14,3.04.45,5.3-.27,6.79-2.17-3.06-1.33.2-3.61,2.21-4.37.19-2.17,1.88-1.48,2.79.28.13.47.16.99.14,1.56Z"/>
        <path class="cls-25" d="M36.34,27.38c-1.77,1.2-5.04,1.13-5.63-1.51-.08.51-.19.89-.33,1.15.39.47.15.83-.63.9-.01.23-.5.61-1.49.98,1.26,1.43.67,3.48-1.33,2.42.09,1.31-.23,2.56-1.22,3.55.85,1.53.58,1.95-1,1-.08.3.13.73,0,1-.83,1.79-1.53,3.66-3,5-.42.39-.79,1.48-1,2,2.79.78,2.9,4.18.08,5,1.02.29,1.66.64,1.92,1.01,3.04.45,5.3-.27,6.79-2.17-3.06-1.33.2-3.61,2.21-4.37.19-2.17,1.88-1.48,2.79.28.02-.2.05-.38.09-.53.07-1.86-2.59-2.19-2.74-4.11,1.31.11,2.65.03,3.83-.51.28-.22.61-.42.99-.6.38-2.38,1.17-4.56,1.24-7-1.73-.61-2.09-2.12-1.57-3.49ZM27.71,43.87c-.45-.91.2-2.26,1.35-2.01.62.13,1.22.98,1.65,1.59-.98.23-1.99.36-3,.42Z"/>
        <path class="cls-22" d="M30.71,43.45c-.98.23-1.99.36-3,.42-.45-.91.2-2.26,1.35-2.01.62.13,1.22.98,1.65,1.59Z"/>
        <path class="cls-31" d="M36.67,37.87l-.96,6-1.21-.25c.05-.19.08-.37.09-.53.07-1.86-2.59-2.19-2.74-4.11,1.31.11,2.65.03,3.83-.51.35-.16.68-.36.99-.6Z"/>
      </g>
    </g>
    <g id="front-arm-assembly">
      <g id="front-arm">
        <path class="cls-106" d="M23.01,21.47c-1.25-.57-4.15-2.34-5.64-2.23-1.5.11-3.54,1.57-4.65,1.96s-3.66,1.25-4.8,2.41-2.76,3.36-2.2,3.93,3.93,3.11,5.97,2.74,8.17-1.95,9.27-2.68c1.1-.74,2.81-1.83,2.8-2.91s-.75-3.21-.75-3.21Z"/>
        <path class="cls-106" d="M17.15,20.17c3.22,3.91-.39,4.6-3.58,2.28-.65.67-.98.51-1.01-.45,1.2-.14,2.12-1.3,2.64-2.26l.98.22.98.22Z"/>
        <path class="cls-57" d="M23.01,21.47l.76,1.19c.25.4.44.84.76,1.19l-.43,1.95-2.07-.66c-.83-.85-2.53-1.65-5.12-2.39l1.23-2.37,4.88,1.08Z"/>
        <path class="cls-8" d="M25.12,24.54c-.92-.06-6.96-.22-8.07-.32-1.11-.1-5.93-.68-7.22-.18s-2.78,1.25-3.19,2.23-1.76,1.52-.42,2.75,4.28,1.69,5.25,1.76,8.31-.31,9.95-.44c1.65-.12,5.41-.96,6.11-1s1.12-.39,1.05-1.19-.94-2.61-1.4-2.96-2.06-.65-2.06-.65Z"/>
        <path class="cls-14" d="M12.56,22l1.01.45c1.14,1.1,8.4,2.89,8.4,2.89l2.12.47s.79-.71.98.22c.62,1.08.97,1.89-.43,1.95-.04,1.87-.45,2.07-1.24.61-1.6,1.01-3.66,1.39-6.16,1.14-.66.63-.99.48-.99-.43-3.29.58-5.92-.04-7.87-1.87-.57-.79-.62-2.12-.14-3.98.82-1.46,2.94-1.3,4.34-1.46Z"/>
        <path class="cls-74" d="M8.37,27.44c-.5,1.41-1.6,1.04-2.27-.2l2.12-3.78c1.46.71.33,2.75.14,3.98Z"/>
        <path class="cls-8" d="M22.02,25.15c-3.15-1.01-6.85.43-8.45-2.7.89.25,2.25.88,2.96.04.54-.64.44-1.65.62-2.32l.98.22c-.13,3.21,5.68,2.08,3.89,4.76Z"/>
        <path class="cls-80" d="M8.22,27.45c2.64.55,5.28,1.13,7.87,1.87.15,2.27-3.3,3.92-4.4.95-.48.18-1.42-.35-1.95-.43-1.42-.24-4.95-.52-3.79-2.59.65-.12,1.62.07,2.27.2Z"/>
      </g>
      <g id="front-glove">
        <path class="cls-1" d="M36.35,26.47c-.63.7-.95.58-.96-.36-.44.78-.69.68-.79-.25-1.16.05-2.49,0-1.52-.82-1.76.72-3.01.7-3.75-.06-1,2.08-2.39,2.13-4.25,1.05l-.98-.22c-1.51-.31-1.14-2.05.43-1.95,1.28-1.08,3.07-.28,4.62-.64.64-1.2,2.32-1.64,5.03-1.31l.95.34c1.48.9,2.01,2.67,1.22,4.22Z"/>
        <path class="cls-18" d="M29.52,29.06c-.19.48-.38.83-.57,1.05-.55.63-1.05.2-1.24-1.27-1.38-.32-1.34-2.1-2.63-2.82.89-1.5,2.7-1.6,4.25-1.05,1.54-.08,2.01,0,1.72.58-.15.29-.47.68-.95,1.25.22.11.42.2.6.31,1.94,1.07,1.37,1.75-1.16,1.95Z"/>
        <path class="cls-64" d="M34.59,25.85c-.43,1.28-1.93,1.6-4.51.94-.63-.38-.88-1.12-.76-1.82,1.6-.12,3.34-1.59,4.65-.94.53.26.66,1.13.62,1.82Z"/>
        <path class="cls-28" d="M35.38,26.11c-.04,1.41-.87,2.16-2.05,1.85-1.21-.31-2.28-.58-3.25-1.16,1.35-.89,3.08-.26,4.51-.94l.79.25Z"/>
        <path class="cls-29" d="M36.13,30.42c-.23.62-.76,1.07-1.44,1.34-1.99.79-5.17,0-5.17-2.7l.56-2.26c.16.05.32.08.49.12.22.05.45.09.66.12.79.11,1.54.1,2.23-.07.02,0,.03,0,.06-.02.43-.08.84-.23,1.23-.44.22-.11.44-.24.65-.4.32.1.62.28.96.36l-.44,1.97c.26.53.36,1,.34,1.42,0,.21-.05.4-.12.57Z"/>
      </g>
    </g>
  </g>
</svg>