<?xml version="1.0" encoding="UTF-8"?>
<svg id="Enemy" xmlns="http://www.w3.org/2000/svg" viewBox="0 0 126.5 49.95">
  <defs>
    <style>
      .cls-1 {
        fill: #0d60ad;
      }

      .cls-2 {
        fill: #551311;
      }

      .cls-3 {
        fill: #562e24;
      }

      .cls-4 {
        fill: #292828;
      }

      .cls-5 {
        fill: #dda785;
      }

      .cls-6 {
        fill: #26140e;
      }

      .cls-7 {
        fill: #6f0a0b;
      }

      .cls-8 {
        fill: #d09677;
      }

      .cls-9 {
        fill: #d3cccc;
      }

      .cls-10 {
        fill: #fcd5b6;
      }

      .cls-11 {
        fill: #401a0e;
      }

      .cls-12 {
        fill: #e9a68c;
      }

      .cls-13 {
        fill: #411008;
      }

      .cls-14 {
        fill: #6a1012;
      }

      .cls-15 {
        fill: #f3c89f;
      }

      .cls-16 {
        fill: #250a0a;
      }

      .cls-17 {
        fill: #4e1216;
      }

      .cls-18 {
        fill: #5c554e;
      }

      .cls-19 {
        fill: #1563be;
      }

      .cls-20 {
        fill: #680709;
      }

      .cls-21 {
        fill: #ae8675;
      }

      .cls-22 {
        fill: #644137;
      }

      .cls-23 {
        fill: #301918;
      }

      .cls-24 {
        fill: #342c28;
      }

      .cls-25 {
        fill: #989a97;
      }

      .cls-26 {
        fill: #361111;
      }

      .cls-27 {
        fill: #16100b;
      }

      .cls-28 {
        fill: #fff;
      }

      .cls-29 {
        fill: #351112;
      }

      .cls-30 {
        fill: #817b77;
      }

      .cls-31 {
        fill: #348ce6;
      }

      .cls-32 {
        fill: #093c79;
      }

      .cls-33 {
        fill: #29456e;
      }

      .cls-34 {
        fill: #8d9896;
      }

      .cls-35 {
        fill: #811210;
      }

      .cls-36 {
        fill: #6d635d;
      }

      .cls-37 {
        fill: #8b7f78;
      }

      .cls-38 {
        fill: #5e564f;
      }

      .cls-39 {
        fill: #302322;
      }

      .cls-40 {
        fill: #f5ceb5;
      }

      .cls-41 {
        fill: #464039;
      }

      .cls-42 {
        fill: #e0af97;
      }

      .cls-43 {
        fill: #cf967c;
      }

      .cls-44 {
        fill: #2b2725;
      }

      .cls-45 {
        fill: #250203;
      }

      .cls-46 {
        fill: #413d3b;
      }

      .cls-47 {
        fill: #5c0509;
      }

      .cls-48 {
        fill: #312c28;
      }

      .cls-49 {
        fill: #dda48a;
      }

      .cls-50 {
        fill: #6a0403;
      }

      .cls-51 {
        fill: #fbd7ba;
      }

      .cls-52 {
        fill: #3f5278;
      }

      .cls-53 {
        fill: #5a0405;
      }

      .cls-54 {
        fill: #490703;
      }

      .cls-55 {
        fill: #212020;
      }

      .cls-56 {
        fill: #25211d;
      }

      .cls-57 {
        fill: #312b27;
      }

      .cls-58 {
        fill: #2e1111;
      }

      .cls-59 {
        fill: #ccb5af;
      }

      .cls-60 {
        fill: #52100f;
      }

      .cls-61 {
        fill: #c79686;
      }

      .cls-62 {
        fill: #601417;
      }

      .cls-63 {
        fill: #9f8790;
      }

      .cls-64 {
        fill: #bfb5b3;
      }

      .cls-65 {
        fill: #0b80f2;
      }

      .cls-66 {
        fill: #420202;
      }

      .cls-67 {
        fill: #ac8d78;
      }

      .cls-68 {
        fill: #490505;
      }

      .cls-69 {
        fill: #4a0c0e;
      }

      .cls-70 {
        fill: #f1b9a2;
      }

      .cls-71 {
        fill: #9e1c21;
      }

      .cls-72 {
        fill: #2a1b1b;
      }

      .cls-73 {
        fill: #441315;
      }

      .cls-74 {
        fill: #be9d84;
      }

      .cls-75 {
        fill: #750506;
      }

      .cls-76 {
        fill: #8e8177;
      }

      .cls-77 {
        fill: #42403e;
      }

      .cls-78 {
        fill: #411f15;
      }

      .cls-79 {
        fill: #af1415;
      }

      .cls-80 {
        fill: #b08a78;
      }

      .cls-81 {
        fill: #3b3835;
      }

      .cls-82 {
        fill: #4c0b0d;
      }

      .cls-83 {
        fill: #381110;
      }

      .cls-84 {
        fill: #510707;
      }

      .cls-85 {
        fill: #311f1a;
      }

      .cls-86 {
        fill: #290303;
      }

      .cls-87 {
        fill: #544a47;
      }

      .cls-88 {
        fill: #0b0b0b;
      }

      .cls-89 {
        fill: #3c0405;
      }

      .cls-90 {
        fill: #1f1d33;
      }

      .cls-91 {
        fill: #865643;
      }

      .cls-92 {
        fill: #e7b2a2;
      }

      .cls-93 {
        fill: #6e0a0c;
      }

      .cls-94 {
        fill: #ad8d7d;
      }

      .cls-95 {
        fill: #38312c;
      }

      .cls-96 {
        fill: #b3a9bf;
      }

      .cls-97 {
        fill: #866252;
      }

      .cls-98 {
        fill: #460506;
      }

      .cls-99 {
        fill: #0a0a09;
      }

      .cls-100 {
        fill: #453e3c;
      }

      .cls-101 {
        fill: #504740;
      }

      .cls-102 {
        fill: #550404;
      }

      .cls-103 {
        fill: #341f1e;
      }

      .cls-104 {
        fill: #400405;
      }

      .cls-105 {
        fill: #aea6a5;
      }

      .cls-106 {
        fill: #5f0706;
      }

      .cls-107 {
        fill: #734935;
      }

      .cls-108 {
        fill: #520706;
      }

      .cls-109 {
        fill: #48191a;
      }

      .cls-110 {
        fill: #8e6254;
      }

      .cls-111 {
        fill: #680e0e;
      }

      .cls-112 {
        fill: #1b1610;
      }

      .cls-113 {
        fill: #6a5e55;
      }

      .cls-114 {
        fill: #500e0e;
      }

      .cls-115 {
        fill: #531a17;
      }

      .cls-116 {
        fill: #695959;
      }

      .cls-117 {
        fill: #4d453f;
      }

      .cls-118 {
        fill: #360d0d;
      }

      .cls-119 {
        fill: #3e1010;
      }

      .cls-120 {
        fill: #96887d;
      }

      .cls-121 {
        fill: #3d1422;
      }
    </style>
  </defs>
  <g id="JammingJabber_defeat">
    <g>
      <g>
        <path class="cls-58" d="M76.03,1.9c8.05-.51,8.94,4.76,16.26,6.86.73.21,1.41.83,2.13,1.09.96.42.97.74.07.97,1.11,2.82-.35,3.01-2.38.43-.95,1.53-3.68,0-4.24-1.68-2.91-.74-6.27-2.84-8.42-4.86-2.07,1.79-5.82,2.9-6.41-.9.77-.68,1.7-1.83,2.99-1.92Z"/>
        <path class="cls-104" d="M59.18,15.51c-3.04-2.56,1.81-6.43,4.8-4.56,2.11-2.54,4.8-4.04,8.07-4.51-1.56,1.19-2.81.94-3.73-.74-2.32.93-3.25.23-1.27-1.07,1.77-.49,3.06-2.45,5.99-.81,4.59,2.57,4.58-3.82,8.41.36,2.04,2.22,4.23,3.82,6.42,5.4l.67,1.3c-3.77-1.47-6.9-2.04-9.41-1.7.58.71.5,1.61-.25,2.72,1.83,2.01-2.28,4.83-4.27,2.94q-1.67-1.47,0,0c2.28,1.33-.64,3.45-2.33,2.01q-2.62-1.03,0,0c1.74,1.21-.13,2.64-1.48,3.3.9.66.21,1.73-.9,1.68-2.09,1.42-3.96,1.85-5.61,1.29-1.78-1.17-.41-2.69.67-3.67-1.55,1.59-1.77,2.81-.67,3.67,1.87,1.89,1.32,4.01-2.2,2.4,1.15,1.42.52,1.28-1.21.69-5.22.76-7.04-11.31-1.73-10.7Z"/>
        <path class="cls-68" d="M55.09,10.85c.02-1.3,2.01-1.97,2.33-3.13,3.39-.75,6.34-2.18,9.63-3.1-.67.8.71.89,1.27,1.07,1.33,2.09-1.33,3.18-3.46,2.19l-.05.87c-4.65,1.26-6.53,3.51-5.62,6.76-.9,1.61-1.96,11.17,1.73,10.7,4.01,1.02,8,2.26,11.98,3.74.83-1.61,1.84-1.44,2.16.51,1.83.76-1.37,4.08-2.23,1.33-5.48-1.72-11.04-3.33-16.69-4.83-2.72-2.84-4.59-5.75-5.6-8.71-1.98-3.09-.45-3.83,2.39-4.24l2.18-3.15Z"/>
        <path class="cls-104" d="M81.3,9.7l.73-.79,8.89,3.05,1.18-.7c1.01.33,1.71-.05,2.38-.43.89-.51,1.93.72,2.78.93.38,2.07-.35,3.87-1.57,5.31-2.63,1.15-6.3-.08-11-3.7-2.53-.38-4.04-1.07-4.55-2.08-1.3-.91-.25-1.7,1.15-1.58Z"/>
        <path class="cls-69" d="M87.87,9.58c1.24-.08,3.05,1.14,4.24,1.68,1.82,5.56-1.48.64-10.81-1.56-1.14.95-1.91,1.22-2.16-.51.46-4.73,6.92,2.41,8.73.39Z"/>
        <path class="cls-16" d="M72.3,16.85c.66-.64,2.01-1.1,2.33-2.01,1.88-.47,3.79-1.13,4.27-2.94-.47-1.18.05-1.44,1.26-.63,5.34.92,10.3,4.02,15.55,5.78l.23.8c.56.97,1.24,2.12.11,2.55-1.08,2.69-5.99.93-6.42-2.25-1.63.47-3.91-.48-6.82-2.84l-8.06,6-2.61-.83c-.55,1.13-.93,1.06-1.32-.33.01-1.24.62-2.47,1.48-3.3Z"/>
        <path class="cls-93" d="M64.85,7.88c4.09-1.35,2.04,1.86-.87,3.07-2.48.63-3.57,2.37-4.8,4.56-1.2-.87-3.01-1.76-3.1-2.98-.07-1.01,6.9-5.42,8.77-4.64Z"/>
        <path class="cls-84" d="M64.85,7.88c.86-.82,2.1-1.79,3.46-2.19,1.51-.45,3.59-.17,4.9,1.14-.85.38-1.63.54-2.07.58-2.05.2,1.25.63,1.6,2.41-4.24-1.95-6.05.44-8.76,1.12.41-.44.78-.98,1.61-1.73.34-.3.47-.76-.74-1.33Z"/>
        <path class="cls-82" d="M64.31,23.12c-1.46.8-2.47.77-1.82-1.18-.46-2.17.37-3.32,1.5-4.26.7-.59,3.43-.74,3.62.75.21,2.39-3,2.89-3.3,4.69Z"/>
        <path class="cls-114" d="M72.3,16.85c-2.75-.04-4.32.53-5.39-.8,1.11-.95,2.71-1.29,3.77-1.27.73,0,1.89,1.53,1.62,2.07Z"/>
        <path class="cls-60" d="M74.63,14.84c-1.32.19-2.67.42-2.9-.08-.53-1.14.75-.81.7-1.39-.07-.81,1.18-1.41,1.75-.73.8.96.9,1.67.45,2.19Z"/>
        <path class="cls-17" d="M79.14,9.19l2.16.51c-.42.5-.56,1.28-1.15,1.58l-1.26.63c-1.06-.11-.68-.96-.67-1.37.02-.61.86-.88.91-1.35Z"/>
      </g>
      <g>
        <path class="cls-44" d="M102,12.45c.64.36,1.53.36,2.22.58,3.21,4.44-5.82,2.35-6.94-1.28-1.78,1.41-2.03,1.4-2.78-.93l-.07-.97c.6-.47,1.69-1.31,3-.67,1.88.92,3.07,2.43,4.58,3.26Z"/>
        <path class="cls-81" d="M95.7,17.06c-2.23-2.11-.75-4.64,1.57-5.31,4.43,1.09,6.93,3.29,6.94,1.28,3.26,1.05,6.6,3.07,10.3,3.16,1.88.04,2.89-1.39,4.49-1.21l1.41,2.42c-1.79.6-3.35.82-4.66.67.11,1.84-3.02,1.38-4-.12-.38.98-1.29,1.56-2.74,1.74-1.71,1.05-3.54.35-5.3-1.22-1.59.31-3.38.27-5.36-.12,1.63,1.53.96,1.95-.98.57-1.33.26-1.81-.09-1.45-1.07-.97-.15-1.03-.42-.23-.8Z"/>
        <path class="cls-36" d="M115.77,18.07c1.54-.61,2.98-1.5,3.25-3.09.28.03.94-.73.94-.73,0,0,.93-.41,1.03-.66.32-.8.77-1.19.77-1.19l2.62,1.31s-1.04,2.95-.76,3.22c1.77,1.3-.27,3.46-2.4,3.15-2.41,1.59-4.26,1.75-5.55.48-2.89-1.34-2.68-2.35.11-2.49Z"/>
        <path class="cls-112" d="M123.82,10.46c1.52.27,3.06,1.65,2.6,3.21-.4,1.36-.56,2.56-.66,3.74-1.39,1.31-2.11.72-1.19-.99-.84-2.06-1.1-3.74-.78-5.04l.04-.92Z"/>
        <path class="cls-37" d="M123.79,11.38c1.08,1.69,1.01,3.42.78,5.04-.24.76-.57.66-.98-.23-.02-.69.22-1.37-.02-2.4-.15-.63-1.09-1.07-2.01-1.08.41-.77,1.21-1.25,2.23-1.33Z"/>
        <path class="cls-57" d="M112.44,22.61c-3.09-3.45-.91-3.73,2.5-1.03,2.06.83,3.61.26,4.65-1.71l1.61.22c1.36-.94,2.41-1.25,3.28.63-.12.28.07.73-.01,1.03-2.34,1.24-1.28.92-1.68,5.02-.12,1.24-1.83,2.07-1.83,2.07l-.84-.06c-.46-.03-.91-.16-1.31-.38-1.33-.73-4.56-2.45-6.48-3.03-.93-.48-.91-.79.04-.92.68-.38.71-.99.07-1.84Z"/>
        <path class="cls-117" d="M123.61,16.93l-.02-.74.98.23c-.06.42.81.92,1.19.99-.11,1.21-.82,2.24-1.27,3.3-1.08-.02-2.2-.19-3.28-.63l2.4-3.15Z"/>
        <path class="cls-4" d="M103.73,18.47c.82-.19,1.64-.86,2.69-.51.93.31,1.65,1.33,2.6,1.73,2.04-2.21,4.77,2.4,1.22,3.33-2.3.25-6.3-.75-8.65-2.04-1.61-2.77-1.24-3.85,2.13-2.5Z"/>
        <path class="cls-55" d="M95.94,17.86c.42.39,1.05.66,1.45,1.07l.98-.57c.18-.85.61-1.67,1.83-1.56,1.19.11,2.53.8,3.53,1.67-1.21.41-2,1.3-2.13,2.5.91.52.87.82-.1.91-.32,2.69-5.07,1.19-5.46-1.47-.56-.91-1.05-2.04-.11-2.55Z"/>
        <path class="cls-77" d="M111.76,17.95c1.32.52,2.41,1.37,3.25,2.54,2.11.37,2.06,1.09-.07,1.09-.65.11-1.51-.48-1.93-.31-.49.2-.46,1.04-.57,1.34,1.86,1.66-.66,1.69-2.2.41.07-.68.91-1.36.68-2.13s-1.61-.79-1.9-1.2c-.37-.52.28-1.4.42-1.95.21-.86,1.69.22,2.32.22Z"/>
        <path class="cls-30" d="M111.76,17.95c1.32,0,2.64-.07,4,.12-.15.8-.16,1.64-.11,2.49-.11.82-.33.79-.64-.08-.79-.14-1.58-.35-2.82-.8-.75-.27-.79-.98-.43-1.74Z"/>
        <path class="cls-88" d="M98.36,18.35c.82.14,1.85.25,2.23,1,.34.65-.45,1.33-.89,1.48-.94.31-3.6-3.25-2.33-1.91.4,0,.91-.21.98-.57Z"/>
        <path class="cls-41" d="M115.65,20.56c1.68-.17,2.59-1.09,3.79-2.89l1.76,2.41c-1.5,1.96-1.96,4.95-5.39,5.41-.81-1.88.02-2.91-.88-3.91l.07-1.09c.21.04.45.1.64.08Z"/>
        <path class="cls-46" d="M121.04,28.3c-.46-.12-.93-.25-1.4-.32.18-1.57.99-2.98,2.23-4.22.81,2.36-.63,3.16-.84,4.54Z"/>
        <path class="cls-99" d="M110.25,23.01c.84.2,1.93.3,2.2-.41.45-.29,2.02,1.83,2,1.86-.37.55-1.67.16-2.07-.02l-10.87-2.56.1-.91,8.65,2.04Z"/>
      </g>
    </g>
    <g>
      <g>
        <path class="cls-43" d="M40.67,1.34s1.69-.18,2.74,0c.35.61.09.79-.77.56-2.11,1.32-3.31,1.35-3.6.09-.4.34-.73.29-.99-.13l2.63-.52Z"/>
        <path class="cls-64" d="M29.01,3.64c1.14-.43,2.45-.71,3.75-.71,2.29.13,2.19,1-.04,1.43,1.67.62,1.31,1.15-.6,1.03-.95-.23-5.81.46-5.81.46,0,0,.84-.9,1.62-1.56.34-.28,1.12-.57,1.07-.65Z"/>
        <path class="cls-67" d="M32.76,2.93c1.88,0,3.61-.47,5.29-1.06l.99.13c1.94,1.43-2.27,2.43-4.28,2.35,0,1.5-1.37,1.43-2.04.02l.04-1.43Z"/>
        <path class="cls-70" d="M32.72,4.36l2.04-.02c.85-.29,1.15-.02,1,.71,2.13-.2,1.95.53.34,1.41,1.79.46,1.59.98-.27,1.11-.31.6-.62.56-.93-.08-.55-.69-1.24-1.33-2.13-1.82-.19-.1-.42-.23-.64-.29.11-.37.3-.72.6-1.03Z"/>
        <path class="cls-12" d="M42.63,1.91c.18-.22.56-.36.77-.56l4.5.77c1.11,0,1.06.52-.15,1.53-1.24.77-2.52,1.77-4,.71-.31.61-.64.58-1-.05-1.86.97-2.87,1-3.02.08-1.44-.89-.47-1.71,2.89-2.47Z"/>
        <path class="cls-94" d="M42.76,4.29c.33,0,.67.06,1,.05v1.41c-1.8.46-3.06,1.83-5,2.12-.24.62-.58.6-1,0-1.06-1.3,2.93-3.09,5-3.58Z"/>
        <path class="cls-10" d="M39.04,2c1.19.16,2.41.07,3.6-.09-.76.93-2.23,1.49-2.89,2.47-1.52,1-2.85,1.23-3.98.67-.35-.22-.68-.46-1-.71,1.25-1.01,3.36-1.19,4.28-2.35Z"/>
        <path class="cls-51" d="M36.1,6.46c.52-.91,1.73-1.61,3.64-2.09l3.02-.08-5,3.58-1.93-.3.27-1.11Z"/>
        <path class="cls-5" d="M35.76,5.05c1.31-.25,2.62-.64,3.98-.67-.72,1.07-2.16,1.6-3.64,2.09l-.34-1.41Z"/>
      </g>
      <g>
        <path class="cls-43" d="M46.43,2.02c1.83-.27,2.8.65,4.26,1.12.11.37-.2.42-.92.14-2.44.26-3.57.05-3.4-.64-.5.1-.78,0-.88-.26l.94-.35Z"/>
        <path class="cls-64" d="M37.75,1.97c1.21,0,1.19-.32,2.41-.07,2.09.51,1.69.93-.54.72,1.34.63.82.83-.92.41-1.12-.41-.73-.48-.94-1.05Z"/>
        <path class="cls-67" d="M40.16,1.9c1.76.36,3.55.45,5.32.47l.88.26c1.31,1.09-2.98.8-4.83.37-.53.76-1.79.46-1.91-.38l.54-.72Z"/>
        <path class="cls-70" d="M39.62,2.62l1.91.38c.9.02,1.09.21.69.55,2.06.31,1.64.64-.18.78,1.51.57,1.14.8-.65.51-.5.25-.77.17-.84-.22-.27-.46-.69-.91-1.35-1.33-.14-.09-.31-.2-.5-.27.23-.17.53-.31.92-.41Z"/>
        <path class="cls-12" d="M49.76,3.27c.25-.08.65-.07.92-.14l3.94,1.25c1.04.22.81.46-.69.75-1.44.15-2.99.42-3.99-.41-.51.25-.81.17-.92-.22-2.08.14-3.03-.04-2.85-.54-1.03-.73.16-.96,3.58-.7Z"/>
        <path class="cls-94" d="M49.03,4.5c.31.06.6.16.92.22l-.5.72c-1.85-.11-3.51.34-5.43.12-.44.27-.75.19-.94-.19-.53-.86,3.84-1,5.94-.86Z"/>
        <path class="cls-10" d="M46.36,2.63c1.06.31,2.23.5,3.4.64-1.04.32-2.61.33-3.58.7-1.77.22-3.1.08-3.96-.42-.25-.18-.48-.36-.69-.55,1.53-.27,3.57.04,4.83-.37Z"/>
        <path class="cls-51" d="M42.04,4.33c.81-.36,2.19-.48,4.15-.36l2.85.54-5.94.86-1.7-.52.65-.51Z"/>
        <path class="cls-5" d="M42.22,3.55c1.32.12,2.67.18,3.96.42-1.05.4-2.58.4-4.15.36l.18-.78Z"/>
      </g>
      <g>
        <path class="cls-33" d="M58.51,5.69l-1.38-.66c-1.1-.21-1.8-.04-2.11.51-.7-.14-.8.07-.33.63-.25.88.81,1.51,1.75,1.72-.95.9-.18,1.56,1.08,1.43,2.07-.08.44-2.52.99-3.62Z"/>
        <path class="cls-90" d="M53.33,3.71c-.37.07-.74.18-1.1.27-1.13,1.6-.03,1.89,1.41.83-.65,1.39.13,1.54,1.38.73.78.15,1.57,0,2.11-.51-1.21-.58-2.54-.85-3.8-1.32Z"/>
        <path class="cls-21" d="M56.44,7.88c-.4-.65-1.32-.76-1.71-.1-1.34-.36-2.11-.5-1.35.89.51,1.07,1.71.86,2.81,1,.49.06.88-.33,1.33-.35-.12-.6-.55-1.09-1.08-1.43Z"/>
        <path class="cls-52" d="M53.64,4.81l-1.41-.83c-.28.07-.8-.07-1.02.13-1.48-.31-2.19-.3-1.47,1.16-2.01-.67-2.19,0-.44,1.2.56.37,1.31.46,1.83.87,1.18.17,1.46-.18.83-1.03,1.19.35,2.4-.37,1.68-1.51Z"/>
        <path class="cls-96" d="M54.69,6.16c-.71-1.13-1.66-.26-1.35.89-.44,1.03.36,1.08,1.38.73.55.29,1.26.59,1.71.1-.19-.84-.95-1.38-1.75-1.72Z"/>
        <path class="cls-9" d="M53.64,4.81c-.44.59-.96,1.19-1.68,1.51-.45.91.65,1.43,1.38.73.34-.42.79-.75,1.35-.89l.33-.63-1.38-.73Z"/>
        <path class="cls-116" d="M53.34,7.05l-1.38-.73c-.27.12-.79-.06-.83.31-.03.28-.04.52,0,.72.6.47,1.77.79,2.24,1.31l1.35-.89-1.38-.73Z"/>
      </g>
    </g>
    <path class="cls-63" d="M17.87,14.37c1.11,1.16,2.68,2.38,3.31,3.83.07.15-.46,1.49-.39,1.64l-2.92-.47v-5Z"/>
    <g>
      <path class="cls-39" d="M16.88,23.21l3.99,1.15c1.01,1.25.51,1.75-1,1l1.93,3.24.18.3.41.69.56.94.61,1.02.73,1.22.24.41.2.34.29.48-.71-.22s-.08-.03-.12-.04l-1.47-.47-.6-.19c-.22-.07-.42-.18-.59-.34l-.86-.8-.79-.73-.24-.22-.69-.64c-.67-.61-1.03-1.49-1.03-2.4,0-1.41-.17-2.82-.74-4.12-.09-.21-.19-.42-.3-.62Z"/>
      <path class="cls-121" d="M18.81,17.24c.37.16.85.76,1.44,1.75,1.2.39,1.99,3.19,1.62,4.37,1.32,1.36.76,1.7-1,1-1.32,1.78-2.55,1.61-3.69-.53-.1-.19-.2-.4-.3-.62l-.04-3.84c.29-.88.64-.87,1.03-.01.11-1.72.41-2.38.94-2.12Z"/>
    </g>
    <path class="cls-115" d="M23.88,7.11l1.12,2.33c.29.59.32,1.03.1,1.33-.19.28-.61.44-1.23.49.01.47-.2.67-.51.69-.43.04-1.05-.28-1.51-.69.02-.9-.03-1.8-.16-2.7.7-.53,1.44-.99,2.19-1.45Z"/>
    <g>
      <path class="cls-11" d="M4.82,3.18c.03-1.47,1.96-2.11,2.86-.96,1.17-1.09,4.04,1.81,4.17,3.35,2.8.06,2.83,1.43.25,2.41-1.05,1.58-1.13,3.04-.24,4.38.87.28.86.62,0,1,1.05,1.08.42,1.8-1,2h-1c-2.52.33-6.11-.49-7.95-2.65-.56.74-.95.66-1.17-.25L.02,10.34C1.12,6.14,2.72,3.75,4.82,3.18Z"/>
      <path class="cls-78" d="M0,4.24c1.25-.92,2.58-1.7,3.88-2.53,1.01.04,1.33.53.94,1.46-1.05,1.1-2.01,2.5-1.39,4.41-.79,1.41-2.09,2.29-3.42,2.75.16-2.03.17-4.06-.02-6.1Z"/>
      <path class="cls-92" d="M9.79,1.38c1.43.36,2.21,1,2.34,1.92.89.11.9.4.08.86,1.82.7,1.61,1.46-.35,1.41l-4.17-3.35c-1.92.26-2.24-.48-.71-1.68.6-.05,1.19-.88,1.83-.38.45.35.76.76.98,1.22Z"/>
      <path class="cls-61" d="M13.11,1.65c.63.07,1.29-.22,1.92-.2,1.01.02,1.29,1.53,1.91,1.87,1.6.69,1.68,1.12-.14,1.37-.73,3.11-3.78,2.43-4.59-.52l-.08-.86c-1.27-1.24-.65-1.41.99-1.65Z"/>
      <path class="cls-6" d="M3.88,1.71c1-.63,1.89-1.07,3.09-1.17.27.55.51,1.11.71,1.68-.9.47-1.88.73-2.86.96-.36-.46-.65-.96-.94-1.46Z"/>
      <path class="cls-110" d="M13.11,1.65c-.16.64-.49,1.22-.99,1.65-1.05-.24-1.95-.9-2.34-1.92,1.12-.07,2.22.14,3.32.27Z"/>
      <path class="cls-13" d="M9.87,15.37h1c.31-1.04,1.27-1.08,2.15-.79.11.04-1.88.32-1.15-1.21v-1c.15-.91.48-.95,1-.16.11-3.19,5.53-2.19,3.83,1.15,1.18,1.06,1.05,4.47-.83,4.01-2.72.04-4.72-.63-6-2Z"/>
      <path class="cls-40" d="M11.85,5.57l.35-1.41c1.53.2,3.04.7,4.59.52,2.27.24,1.25,2.09.14,3.66.54,3.7-4.99,3-3.91-.35h-.93s-.25-2.42-.25-2.42Z"/>
      <path class="cls-85" d="M1.92,12.72c2.17,1.5,6.3.39,7.95,2.65l6,2c-3.79.69-7.22-1.06-10.93-1.16-.82-1.55-3.06-1.69-3.02-3.48Z"/>
      <path class="cls-91" d="M12.11,7.99h.93c2.01,1.25,1.19,2.78-.16,4.22l-1,.16c-.85-.04-1.78.19-2.46-.04s-.93-1.12-.16-1.65c1.35-.92,1.16-2.7,2.86-2.69Z"/>
      <path class="cls-3" d="M11.87,13.37c.79.33,1.58.7,2.07,1.8-1.45.41-2.23.2-3.07.2-.02-.8.19-1.68,1-2Z"/>
      <path class="cls-22" d="M18,13.36c.83.4.78.73-.13,1,.56,1.14.88,2.1.94,2.88.07.98-.24,1.69-.94,2.12h-1.03s-.97-2-.97-2c1.12-1.03,1.15-2.59.84-4,.03-.72.16-1.17.32-1.35.29-.32.69.14.97,1.35Z"/>
      <path class="cls-49" d="M16.94,8.35c.09-1.22.05-2.45-.14-3.66l.14-1.37,3.19.94-.03,1.01c-.28,1.61-.41,2.56-.05,4.11,1.9.4-.88,2.29-1.88,2.45-1.59.25-3.33-2.25-1.23-3.48Z"/>
      <path class="cls-42" d="M18.59,10.28c.66.31,1.35-.19,1.47-.9-.6-.49-.66-.8-.17-.94.13-.03.29-.06.5-.07l1.3.19c1.98.12,2.49,4.46,2.49,4.46l-2.04,1.96-3.21,1.36-1.34-1.94s.63-1.04.41-1.03h-1.29c-.82-1.34-2.37-1.38-3.84-1.15-.15-.14-.27-.29-.37-.45-.76-1.16-.3-2.64.54-3.77.23.35.52.58.84.73.91.4,2.09.09,3.07-.38.37.76.88,1.6,1.64,1.94Z"/>
      <path class="cls-97" d="M20.1,5.27c.86.85.78,2.07.28,3.1-.14.3-.27.68-.33,1.01-.51-.15-2.17-.82-2.04-1.48.23-1.14,1.35-2.11,2.09-2.63Z"/>
    </g>
    <path class="cls-83" d="M54.05,12.39c.29.25.48.99.83,1.08,1.96.47,2.94-3.84,4-4.17.07,3.61-2.62,5.88-3.93,9.14,1.72,1.42.97,2.59-.08,4.12,1.57,1.54,1.12,2.13-.77.89.07,1.95-.73,1.9-1.23-.07-.53-1.62-.73-3.58-.58-5.86-1.46-.01-2.26-1.04-2.42-3.09-.61-.05-.85-.45-.83-1.12.06-3.02,3.73-3.31,5.02-.9Z"/>
    <path class="cls-71" d="M40.87,8.37c.65-.4,1.47.58,2,.61.14,1.17,1.19,1.03,2,1.39,1.43,2.75-6.82,1.3-6-1,.8,0,1.38-.62,2-1Z"/>
    <g>
      <g>
        <path class="cls-95" d="M112.65,25.54c.56-.85,2.19-1.24,2.83-.06.63-.11.91-.95.86-2.5-.77-1.19,1.31-1.26,2.44-.99.69.04.81.35.39.92,1.45.84,1.13,1.36-.43,1.25,1.82.87,2.01,1.48.57,1.82l.23.77c-.5,1.53-1.94,2.69-3.37,2.81l-.75.28c-.92,1.04-2.69,1.71-3.78.41-.12-.27-.61-.43-.39-.85-2.3-.62-2.94-1.46-1.92-2.51-.85-1.82,1.85-2.03,3.33-1.35Z"/>
        <path class="cls-56" d="M100.02,29.45l.05-2.25c2.39-.64,4.88-.79,7.46-.44-.07-1.71,1.72-1.64,1.79.14.63,1.2,1.78,1.33,3.44,1.01.09,1.23-.9,1.21-1.52,1.49l-1.59.34c.11.9-.17,1-.82.34-1.6-.94-3.02.8-4.46.72-5.63-.31-3.35,2.48-7.29,1.05-.64-2.13,1.12-3.49,2.93-2.4Z"/>
        <path class="cls-27" d="M119.54,26.76c1.87.24,1.7,1.13-.51,2.68l-1.45.72c-.36-.39-.97-.45-1.41-.59.47-1.64,2-2.23,3.37-2.81Z"/>
        <path class="cls-38" d="M119.54,26.76c-.04-.26-.15-.52-.23-.77.43-1.11,1.99-.63,3.02-.04-.22-1.66-.19-3.11.09-4.35l-1.35.05c-.4,1.72-1.03,2.14-1.9,1.26l-.39-.92c-.82.03-.94-.29-.39-.92,0-.45.42-.98,1.24-1.58.84.27,1.54-.06,2.42-.81l2.51,5.47c.52,1.45.13,2.83-1.51,3.54l-4.02,1.74c.44-.78.66-1.71.51-2.68Z"/>
        <path class="cls-48" d="M110.48,23.19c-1.49-2.6,2.56-4.24,4.16-1.88.28-.13.63-.08.92-.19l2.83-.06.39.92-2.44.99c.78,2.06-.4,2.49-1.63.66.76,1.41-1.37,1.78-2.44.99-.7.99-1.79,1.16-2.01-.26-.84-.69-.76-1.08.23-1.16Z"/>
        <path class="cls-100" d="M110.25,24.36c.46-.29,1.49.48,2.01.26.82-.03.94.29.39.92l-3.33,1.35c-.44.18-1.27-.61-1.79-.14-7.93.75-2.97-5.74,2.72-2.39Z"/>
        <path class="cls-113" d="M119.16,22.91c.41-.67.95-1.26,1.62-1.76s1.19-.46,1.63.44c-.04,1.13-.2,2.27-.47,3.43-.3,1.1-2.6.42-3.21-.86-.14-.45.23-.92.43-1.25Z"/>
        <path class="cls-18" d="M112.26,24.62l2.44-.99c1.24-.46,1.85,1.03.77,1.85-.92.22-1.87.53-2.83.06l-.39-.92Z"/>
        <path class="cls-101" d="M114.71,23.63l1.63-.66c.21.79,1.14,1.72.79,2.89-.36,1.23-1.23-.49-1.65-.39l-.77-1.85Z"/>
        <path class="cls-76" d="M118.73,24.16l3.21.86c.74,0,.86.32.39.92-.87.5-2.07.15-3.02.04l-.57-1.82Z"/>
        <path class="cls-24" d="M98.84,26.79c-2.64-.79-2.81-2.19-.4-3.19-.11-.9.16-.99.8-.33,1.07-1.32,2.39-1.09,3.63-.64-.18-3.79,6.41-2.77,7.61.56-.24.32-.31.74-.23,1.16l-6.46.74c1.46.48,2.83.33,3.74,1.65,1.8,1.79-5.38,1.18-7.52,2.7.06-1.01-.44-1.96-1.17-2.65Z"/>
        <path class="cls-113" d="M119.64,19.49c.22.98-.62,1.25-1.24,1.58-.87.46-1.86.65-2.83.06l4.07-1.64Z"/>
        <path class="cls-120" d="M122.42,21.6c.71,1.42,1.39,3.5-.09,4.35l-.39-.92c-.27-.66-.69-1.33-.81-2.21-.1-.72.58-1.13,1.28-1.21Z"/>
      </g>
      <g>
        <path class="cls-102" d="M74.75,18.61s-1.8-.68-2.63-.73-3.05.19-3.33,1.32c-.28,1.13-5.43,2.58-5.4,2.71s.73,2.61,1.47,2.97,16.05.77,16.09.06-1.23-4.46-1.31-4.63.38-1.94.38-1.94l-1.23-.79-3.97,1.03h-.07Z"/>
        <g>
          <path class="cls-118" d="M91.89,28.47c-.12-2.94,4.8-2.47,6.95-1.68,2.79-.82,3.65,1.21,1.17,2.65-.94.67-1.35,2.53-2.93,2.4-1.63-.59-3.17-1.44-4.69-2.4-.22-.27-.25-.74-.5-.98Z"/>
          <g>
            <path class="cls-29" d="M60.64,35.03c-.55-3.17,4.99-6.41,6.24-2.85l6.9-1.71c-.07-1.8,5.22-4.06,6.51-2.63.67-1,1.54-1.74,2.56-2.3,3.79-2.09,9.82-3.64,9.04,2.94.85-.04,1.02.28.5.98-1.01-.01-2.02-.25-2.97-.71-1.55-3.51-10.08,1.65-14.87,3.58.82,1.47-1.38,1.89-2.44.99-.22-.76-1.13-.65-1.99-.29l-5.69,2.38c-1.4.58-3.15.23-4.49.76-.41-.45-.18-.83.7-1.12Z"/>
            <path class="cls-23" d="M59.26,16.72c.69-.77.74-3.16.84-4.32.08-.86,3.81,5.46,2.98,6.11,1.29,1.14,5.7-1.16,6.66.17-.53,2.11-4.66,3.29-6.71,2.07.04-.04,2.09,2.68,2.09,2.68l-3.83,1.39-2.47-1.06,1.07-4.75s-.53-1.96-.63-2.29Z"/>
            <path class="cls-45" d="M63.03,20.75c2.41-.19,4.95-.3,6.71-2.07-.2-.87.04-.95.69-.3,1.17-1.39,1.86-.97,1.55.94-3.1,1.1-6.01,3.23-9.43,2.75.2-.37.18-1.03.47-1.33Z"/>
            <path class="cls-106" d="M72.76,21.18l-.72,2.48-3.72,1.52-3.85,1.58.08,1.13v.02s.07.98.07.98c-.11.8-.44,1.46-.92,1.94-.44.46-.99.77-1.59.92-1.5.38-3.24-.31-3.97-2.33-.83.25-1.32.19-1.43-.07-.11-.25.15-.7.83-1.25-2.01-.17-1.94-.66-.95-2.29-.54-.04-1.05-.23-1.51-.59-.47-.36-.9-.88-1.28-1.57-.44-.03-.8-.27-1.08-.62-.3-.37-.49-.88-.57-1.38-.08-.54.16-1.18.13-1.83.82.19,2.16-.04,3.04.79,3.28,3.13,6.15,3.49,8.65,2.95,3.8-.84,6.71-3.8,8.79-2.37Z"/>
            <path class="cls-102" d="M86.28,19.09c2.78,2.47,3.1,3.81,1.97,4.64,0,0,0,0,0,0-.83.62-2.45.98-4.44,1.31l-3.51,2.78-6.52,2.64-6.54,1.61c-.12.04-.24.07-.36.09-2.64-.82-3.86,2.51-6.24,2.86l-.26.58c-.08.17-.16.33-.26.48h0c-.74,1.13-2.07,1.68-3.44,1.34l-1.76-.43s-1.41-1.04-3.61-1.44h-.03c-.5-.08-1.03-.13-1.61-.13h0c-.41,0-.84.03-1.28.1-1.09.5-1.59.31-1.38-.32.03-.11.09-.24.18-.37.09-.18.22-.36.4-.58.02-.02.03-.05.05-.06l-.26-.53c0-1.61,1.33-2.18,2.54-1.11l2.23.09c-.29-.14-.44-.45-.44-.92-.78.12-.86-.16-.3-.79h0c.08-.21.21-.38.37-.54.57-.53,1.59-.82,2.7-.96.74-.09,1.52-.12,2.23-.11.54,0,1.03.03,1.43.07,2.31.84,4.44.13,6.48-.52-.05-.31-.08-.65-.07-.98v-.02c.02-.59.18-1.12.56-1.18,3.72.35,7.01-.1,9.86-1.36h0c1.37-.6,2.62-1.37,3.79-2.34-1.68-.44-2.6-1.42-2.75-2.96.76-.26,1.63-1.14,2.46-1.06.32-.32.75-.59,1.22-.83,2.1-.98,5.3-.98,6.59.94Z"/>
            <path class="cls-98" d="M86.28,19.09c.46-.32.91-.54,1.31-.43,2.22.62,7.95,2.61,9.97,3.55.39.18.65.73.89,1.39.04,1.06.17,2.13.4,3.19-1.61,2.27-4.45,1.33-6.95,1.68-1.2-1.17-2.4-3.33-4.45-3.33-2.84,0-4.95,1.8-7.15,2.69.56-3.21,3.82-4.11,6.75-4.55.12-1.63-.46-2.97-.77-4.19Z"/>
            <path class="cls-98" d="M73.78,30.46c-2.3.93-4.35,2.51-6.9,1.71,2.33-.46,4.49-3.06,6.9-1.71Z"/>
            <path class="cls-26" d="M78.79,17.38c-.56-2.8,2.21-3.8,3.49-.94,2.11.93,4.65.59,6.93,1.79,2.29,1.21,4.02,2.07,6.12,2.3,2.97-.87,8.9,1.44,3.92,2.76l-.8.33c-4.22-1.09-8.26-2.35-12.17-4.51-2.29-1.26-5.48.12-7.8-.12l-.41-1.03.71-.57Z"/>
            <path class="cls-103" d="M102.87,22.64c-.21,1.79-2.09.96-3.63.64.02-.65.71-.82,1.18-2.12-1.81.57-3.47-.46-5.1-.63,2.57-1.67,5.35-.28,7.55,2.11Z"/>
            <path class="cls-75" d="M72.76,21.17c1.04-.47,2.18-.76,3.26-1.13,2.11.65,4.28.85,7.03.77-6.94,10.42-13.35,6.43-18.43,8.06-1-1-2.61-.18-4.05-2.23,3.99-2.59,8.21-3.7,12.19-5.48Z"/>
            <path class="cls-119" d="M78.79,17.38c-.26.13-.43.48-.71.57-1.4.44-3.04,2-4.46.72,1.79-.34,3.19-1.93,5.17-1.29Z"/>
          </g>
        </g>
      </g>
    </g>
    <path class="cls-102" d="M52.87,23.36l1.23.07c.06.01.12.01.18.03,1.09.18,2.21,1,2.56,2.06.01.02.01.05.02.07.49.8.5,1.63-.02,2.48-1.22,1.47-2.99,1.52-3.67.3-.19-.34-.29-.79-.26-1.35.01-.17.03-.34.06-.53,0-1.03-.19-2.09-.1-3.13Z"/>
    <path class="cls-7" d="M54.1,23.44c.63.4.67-.46.77-.89.65.28,1.38.23,1.74.74.56.79-.08,1.78.25,2.31-.64.06-1.39.08-1.99-.42-.44-.37-.62-1.1-.76-1.74Z"/>
    <g>
      <path class="cls-62" d="M26.87,5.37c.92-.71,2.22-1.23,3-.12-.77.59-1,3.78-2.12,4.13-.32.1-3.41,0-3.41,0l-.55-2.21s2.22-.6,2.08-.8c.28-.39.63-.71,1-1Z"/>
      <g>
        <path class="cls-54" d="M29.65,4.51l1.47.19c1.91-.22,3.5.27,3.11,1.95.49-.62.7-.48.64.32.52.57,1.21,1.41.38,1.74-1.26.5-6.12.85-5.38-.96-1.16.35-2.16.38-3,.09.07-.31-.12-.69-.01-.99.38-1.09,1.65-1.73,2.79-2.34Z"/>
        <path class="cls-50" d="M36.41,6.63c.78.24,1.06,1.27.6,2.36-.79.81-2.17,1.47-4.14,1.99-.23.31-.89.52-2,.64-.61,1.36-2.11,1.64-3.48,1.23-.6-.17-1.17-.48-1.63-.89-.24-.2-.45-.44-.63-.7-.04-.07-.08-.14-.13-.22-2.06.6-2.75-.81-1.12-1.83.61-.3,1.27-.53,1.99-.59.9-.23,1.77-.43,2.62-.61.47-.09.93-.19,1.38-.27,1.5.18,2.88.53,4.92.46.24-.46.03-.9.09-1.24.31-.19.6-.31.87-.35.25-.05.47-.04.66.02Z"/>
        <path class="cls-108" d="M54.05,13.35c-1.61-.05-3.59.09-5.02.71.02.77-1.45.68-2.17.06-.9-.22-1.47-1.08-1.18-1.14,2.12-.45-.15,1.28-.82-1.22-1.74.52-3.32.24-2-1.09,3.96.2,7.96.1,12.04.75-.13,1.17-.64,1.53-.86,1.93Z"/>
        <path class="cls-79" d="M37.01,8.99l.93.08c.67-1.19,2.2-1.16,1.93.34.29.05.71.05,1,0v.79c1.29,1.4-.2,1.46-2,.79-.23,1.49-4.52.62-6,0-.12-.5-.72-.76-1.04-1.48,2.2-.16,3.65-.16,5.18-.51Z"/>
        <path class="cls-20" d="M38.87,10.98c1.52,1.05,4.6,2.4,6,.79l2.45.85c.97.34-.2.99-.45,1.51-.2.07-.42.11-.65.13-.34.03-.69,0-1.03-.08-.59-.13-1.11-.41-1.32-.84-.52.29-1.01.52-1.47.68-1.65.59-2.96.37-3.93-.64-.22-.22-.42-.48-.6-.78-2.38-.3-4.56-.92-7-.97.29-.64,1.27-.64,2-.64h6Z"/>
      </g>
    </g>
    <path class="cls-109" d="M46.87,13.36c.53.11,1.64.02,2.17-.07.3.35.58.73.83,1.12-2.12.08-4.23-.16-6.25-.84-.19-.05-.37-.08-.53-.09-.33-.06-.56-.15-.69-.26-.42-.31.1-.72,1.47-.86.94.15,1.82.47,2.67.86.11.04.22.09.33.14Z"/>
    <path class="cls-102" d="M56.84,25.52c.5.33,1.06.49,1.66.49-1.16,1.75-1.25,2.26.98,2.28-.77.61-1.07,1.09-.96,1.34-.78.04-1.65.13-2.48.28l.86-.39-.06-1.45c.52-.85.51-1.68.02-2.48,0-.02,0-.05-.02-.07Z"/>
    <path class="cls-14" d="M51.73,27.26c.36.02.95.05,1.18-.24.09-.12.13-.29.06-.53l3.87,1.58.06,1.45-.86.39-2.88,1.3c-.06-.03-.11-.07-.16-.11-1.48-1.03-2-3.55-3.85-2.68-1.84.64-2.02-.12-.28-1.13.29-1.02.64-1.66,1.01-1.92.62-.47,1.3.16,1.85,1.89Z"/>
    <g>
      <path class="cls-105" d="M45.19,13.43c.33.01.68.04,1.03.1.37.05.75.12,1.12.2.01.01.02.01.02.01.33.07.65.15.97.24.39.1.78.21,1.14.31.14.04.27.08.4.12,3.7-1.12,3.18,7.01,3,8.95.45.37.86.88,1.04,1.38.27.71.11,1.42-.94,1.75.46.95.57,1.56.41,1.78-.04.07-.12.1-.21.1-.15-.01-.35-.1-.59-.29-.24-.18-.53-.45-.85-.82l-1.99-1.11c.06-.27.1-.53.14-.78.45-3.04-.27-5.31-2.17-6.79-1.33,3.06-3.61-.2-4.37-2.22-2.17-.19-1.48-1.87.28-2.79.47-.12,1-.16,1.57-.14Z"/>
      <path class="cls-34" d="M37.87,11.41l6,.95-.25,1.21c-.19-.05-.37-.08-.53-.09-1.86-.07-2.19,2.59-4.11,2.75.11-1.31.03-2.66-.51-3.83-.16-.35-.36-.68-.6-.99Z"/>
      <path class="cls-28" d="M27.39,11.74c1.19,1.78,1.11,5.04-1.52,5.62.52.08.91.2,1.16.34.46-.38.82-.15.89.62.23.01.61.51.98,1.5,1.43-1.27,3.48-.67,2.42,1.32,1.31-.08,2.56.23,3.55,1.22,1.53-.84,1.95-.57,1,1,.3.08.73-.13,1,0,1.79.84,3.66,1.54,5,3,.39.43,1.48.79,2,1,.78-2.78,4.18-2.89,5-.07.29-1.02.64-1.66,1.01-1.92.45-3.04-.27-5.31-2.17-6.79-1.33,3.06-3.61-.2-4.37-2.22-2.17-.19-1.48-1.87.28-2.79-.2-.02-.38-.05-.53-.09-1.86-.07-2.19,2.59-4.11,2.75.11-1.31.03-2.66-.51-3.83-.22-.28-.42-.61-.6-.99-2.38-.38-4.56-1.17-7-1.24-.61,1.73-2.11,2.09-3.48,1.57ZM43.87,20.36c-.91.45-2.26-.2-2.01-1.35.13-.61.98-1.21,1.59-1.65.23.99.36,2,.42,3Z"/>
      <path class="cls-25" d="M43.45,17.36c.23.99.36,2,.42,3-.91.45-2.26-.2-2.01-1.35.13-.61.98-1.21,1.59-1.65Z"/>
    </g>
    <g>
      <path class="cls-86" d="M32.79,26.24c.55-.92,1.22-1.32,2.02-1.22,1.01.1,2.22,1.05,3.61,2.8,2.36-.4,4.21.04,5.55,1.33,1.11-1.88,3.12-1.75,6.03.4.86-.22,1.78-.31,2.57-.21,1.43.19,2.44,1.04,1.96,2.98-.14.58-.42,1.26-.85,2.05-1.82.85-3.85,1.26-5.94,1.39-3.31.21-6.78-.3-9.87-.95-2.4.3-4.62-1.33-7-1.48-.97-1.79-.33-4.98-1.88-6.07.02-.52.12-1.07.2-1.57,1.81-5.59,2.53-3.72,3.6.53Z"/>
      <path class="cls-53" d="M28.9,11.77c1.43-1.88,3.48-.99,2.42,1.96.1.71.18,1.31.12,1.56,1.13.37,2.5,1.07,3.09,2.21.33.62.42,1.39.1,2.33,1.12.22,1.6.84,1.42,1.6-.11.48-.48,1.01-1.12,1.51.15.94.09,1.61-.12,2.08-.25.57-.71.88-1.3,1.05-.07.02-.14.04-.22.06,0,0-.02,0-.03.02-.06-.02-.12-.01-.19.02-.04,0-.08.01-.12.02-.05.01-.11.03-.16.05,0,.52-.04.95-.09,1.29-.05.45-.14.74-.26.86-.09.1-.21.07-.33-.11-.16-.23-.33-.68-.49-1.39-.01-.06-.03-.12-.04-.18-.31-1.06-.66-1.7-1.06-1.85,0,0,0-.01-.01,0-.15-.06-.31-.04-.48.06-.22.11-.46.42-.69.64-.05.05-.1.1-.15.14-.01-.08-.02-.17-.03-.25-.36-3.14-1.16-5.9-2.42-8.3h0c-.38-.42-.68-.96-.87-1.61.14-1.41.75-3.02,1.92-3.56-.23-1.63-.13-2.44.13-2.43.23.01.61.76.98,2.22Z"/>
      <path class="cls-73" d="M26.74,17.15c1.58-.11,2.67,1.28,2.87,3.78.11,1.36-.15,3.01-.39,4.56-.01.07-.02.14-.03.21-.19-.02-.36-.07-.51-.16-1.78-.93-1.38-5.87-1.94-8.39Z"/>
      <path class="cls-73" d="M27.92,9.55c.05.59.01,1.41-.13,2.43.02.79,0,1.56-.17,2.39-.08.48-.26.8-.5.99-.33.29-.78.32-1.25.18-.64-.18-1.34.11-2,0-.74-1.51-.85-2.75-.51-3.59.11-.26.26-.47.44-.65.32-.32.77-.51,1.3-.53.29-.04.61-.01.95.07.34-1.14.68-1.87.98-2.21.46-.56.82-.22.89.92Z"/>
      <path class="cls-72" d="M53.68,34.38c1.02-4.01,3.1-3.33,3.39.91l-1.23,1.16-11.96-.13c-2.06-.02-4.39.89-6-1.48,5.27-.18,10.56.45,15.81-.46Z"/>
      <path class="cls-66" d="M35.88,21.32l.17.12,7.7,5.49.22,2.24c-1.99-.64-4.43,2.85-6.7.86-1.49-1.31-2.42-3.96-3.98-3.89,0,0-.02,0-.03.01-.07-.01-.15,0-.23.03-.08,0-.16.03-.24.06,0-1.02.09-2.28.75-2.88.39-.37.94-.37,1.39-.42l.95-1.63Z"/>
      <path class="cls-111" d="M34.53,17.5c.28.07.69.37,1.19.92,1.3-.4,3.27,1.44,4.15,3.06,2.11.93,3.39,2.46,3.85,4.58l.03.86c-3.15-.06-5.83-2.7-8.82-3.98-.15-1.02-.29-2.06-.3-3.11-.75-1.63-.71-2.51-.1-2.33Z"/>
      <path class="cls-35" d="M34.87,15.55c1.53-1.25,1.95-.85,1,1.48.84.53.76.99-.15,1.39l-1.09,1.41c-1.99-1.57-3.41-4.21-5.81-5,1.24-1.22,2.01.01,2.5-1.1,1.31-.12,2.56.34,3.55,1.81Z"/>
      <path class="cls-89" d="M54.16,26.19l-.4.45.11,3.19c.07.4-4.78-4.46-4.76-4.04.08.56.05.95-.1,1.14-.06.09-.13.13-.23.15-.36.07-1-.31-1.92-1.14-1.05.07-2.1.18-3.15.13-.91-.66-2.93-1.86-4.41-2.71-1.1-.64-1.88-1.72-2.14-2.96l-1.61-2.7c-.2-.34-.28-.74-.21-1.13.13-.68.37-1.68.73-1.6,1.18.26,3.66.41,5.36.48,1.15.05,2.27.37,3.27.92,2.2,1.21,6.21,3.28,7.88,3.24.59-.01,1.14.27,1.42.79l.64,1.17c.82,1.49.62,3.34-.5,4.63Z"/>
      <path class="cls-102" d="M53,28.51c-.19.25-.34.53-.43.85-.79-.1-1.71-.01-2.57.21-2.91-2.15-4.92-2.28-6.03-.4l-.22-2.24-.03-.86c1.05.04,2.1-.06,3.15-.13.92,1.31,1.7,3.17,3.96,2.97-.12-1.91-1.17-2.28-1.71-3.11-.02-.42.1-.85.03-1.25,1.85-1.29,2.37,2.45,3.85,3.98Z"/>
      <path class="cls-47" d="M49.12,25.78c.54.83,1.59,1.2,1.71,3.11-2.26.21-3.04-1.66-3.96-2.97l2.25-.15Z"/>
      <path class="cls-2" d="M36.87,17.03c1.79,1.25,3.66,2.28,5,4.45h-2c-1.69.21-3.19-1.02-4.15-3.06l.15-1.39c.3.12.73-.19,1,0Z"/>
    </g>
    <g>
      <path class="cls-107" d="M24.57,34s.07.08.11.12c.38.43.69.76.96,1.02,1.33,1.28,1.62.8,3.78,1.8.61.28,1.81.51,3.16.75,3.12.56,7.03,1.16,6.24,2.42-.02.04-.05.08-.08.11-.05.07-.11.13-.17.18-.23.2-.53.32-.89.38h-.01c-1.33.2-3.38-.48-5.11-1.05-2.39-.78-5.76-1.41-7-2.5-.66-.58-1.29-.81-1.74-1-.4-.17-.65-.31-.65-.63.01-.43.21-1.38.59-1.74.22-.2.49-.22.81.14Z"/>
      <g>
        <g>
          <path class="cls-87" d="M32.31,24.98c1.55,1.09,2.01,2.13,1.39,3.13-.94,1.73-2.69-.4-3-1.76-.61.65-.81.52-.6-.35-.61.65-.81.52-.6-.35.89-1.06,2.04-1.22,2.81-.67Z"/>
          <path class="cls-107" d="M28.9,25.3l.26.15.06.04.04.02.08.05.16.09.6.35c.05.27.09.52.11.75.01.05.02.1.02.15.03.32.02.6-.01.85-.02.38-.11.68-.24.92-.01.04-.04.08-.07.11-.03.06-.07.12-.13.17,0,.01-.01.03-.03.04-.31.33-.75.41-1.21.25-.38-.11-.78-.39-1.14-.8-.03-.03-.05-.06-.08-.09-.2-.23-.38-.51-.54-.82-.69.51-.86.31-.54-.57.8.05,1.75-.69,2.44-1.42.08-.08.15-.16.22-.24Z"/>
          <path class="cls-15" d="M26.24,26.96l.54.57c.12.36.3.64.53.83.03.03.06.05.09.08.17.12.37.21.61.25.28.06.58.06.94,0h.01c.12-.01.25-.04.38-.07.14-.04.29-.09.44-.14.02.02.04.03.05.05.05.05.11.1.15.15.21.21.4.42.57.63.34.41.61.82.81,1.25h0c.04.1.07.2.11.29.09.17.15.33.2.49.14-.19.27-.34.4-.47l.08-.08c.61-.56,1-.39,1.01.25,0,.2-.04.45-.12.74-.04.15-.1.32-.17.5.24-.26.42-.4.53-.41.03.01.07.02.1.02.08.08.07.33-.03.74.01.08.01.16.01.24,0,.37-.01.7-.08.95-.01.03-.02.07-.04.1-.12.34-.38.51-.9.43-.71,1.71-1.07,1.84-1.09.37-.93.42-1.9.59-2.9.49-.58-.04-1.18-.18-1.79-.41-.62.42-.83.32-.63-.31.03-.07.05-.15.09-.24-.53,0-1.02-.04-1.46-.12-.33-.06-.63-.15-.92-.26-.39-.15-.74-.34-1.04-.59-.62-.48-1.08-1.14-1.37-1.98-.08-.58.13-1.38.63-2.39.2-.39.44-.82.72-1.28,1.09-1.21,2.52-.73,3.54-.66Z"/>
          <path class="cls-74" d="M22.7,27.62c.42.49.13,1.23-.31,1.97-.34.61-.79,1.22-1.04,1.7-.25.36-.48.56-.68.65-.41.17-.69-.13-.79-.73-.02-.14-.04-.29-.04-.46l1.96-2.15.9-.98Z"/>
          <path class="cls-59" d="M33.7,28.12l.09,1.21c.03.4,0,.84.09,1.21l-1.01,1.72-1.2-.93c-.26-.91-1.16-1.91-2.69-2.99l1.72-1.99,3,1.76Z"/>
          <path class="cls-8" d="M31.67,31.34c-1.82-1.42-4.92-.68-4.89-3.8.53.37,1.24,1.16,2.04.5.61-.5.91-1.45,1.28-2.03l.6.35c-1.26,2.93,3.19,2.8.97,4.98Z"/>
          <path class="cls-80" d="M19.84,30.75c.5,0,1.1.32,1.51.54,1.01.58,2.02,1.16,3.01,1.78.3.18.6.37.89.57.3.19.6.39.89.6-.11.33-.28.64-.5.9-.5.65-1.22,1.07-1.82,1.09-.69.02-1.23-.49-1.09-1.8-.4.09-.86-.54-1.2-.71-.9-.44-3.25-1.25-1.69-2.97Z"/>
        </g>
        <g>
          <path class="cls-87" d="M33.74,28.84c-4.27-1.53-6.25-1.73-5.93-.6.25,1.77,5.96,3.19,7.93,3.09.63.99,1.16,1.18,1.59.62.63.99,1.16,1.18,1.59.62-.81-1.48-3.04-2.96-5.17-3.72Z"/>
          <path class="cls-107" d="M37.33,31.94c-5.69.44-.03,3.89,5.38,4.65.94,1.04,1.49,1.18,1.67.46-1.89-1.07-3.19-2.71-3.88-3.88l-1.59-.62-1.59-.62Z"/>
          <path class="cls-8" d="M26.68,34.79c.61.23,1.21.37,1.79.41,1.22.86,2.59,1.69,4.11,2.49-1.35-.24-2.55-.47-3.16-.75-2.16-1-2.45-.52-3.78-1.8.22-.26.39-.57.5-.9-.33.84-.15,1.02.54.55Z"/>
          <path class="cls-15" d="M28.5,31.22c.14.2.26.42.37.67.11,0,.24,0,.37.02,1.13.05,2.54.29,4.23.71.48.12.98.26,1.5.41.2.06.4.12.61.18.26.21.52.4.78.59,1.52,1.12,2.91,1.9,4.18,2.35.02,0,.03.01.05.01.76.27,1.47.41,2.13.43l1.67.46c1.61.91,3.86,2.01,5.39,3.24.56.44,1.02.91,1.32,1.39.02.07.04.14.05.21.02.07.04.14.05.21.04.17.07.32.09.47.02.15.04.3.04.43.01.09.01.16.01.24,0,.05,0,.1-.01.15v.04c-.02.29-.09.52-.21.71-.16.29-.44.46-.82.52-1.27-.06-2.69-.33-4.22-.82-.29-.09-.59-.19-.89-.29-.25-.09-.5-.19-.76-.28h0c-1.79-.7-3.74-1.66-5.86-2.87-.35-.21-.71-.42-1.08-.64-.01.04-.03.08-.03.13-.17.55-.71.35-1.61-.6-1.16-.52-2.25-1.05-3.27-1.6-1.52-.8-2.89-1.63-4.11-2.49-.82-.57-1.58-1.15-2.27-1.75-.37.13-.69.19-.95.19-.46,0-.76-.19-.89-.57-.1-.27-.12-.63-.06-1.09-2.23-1.18-1.55-1.52-.41-1.87.42-.56.95-.37,1.58.62.22-1.34,2-1.03,3.03.49Z"/>
          <path class="cls-74" d="M50.3,44.66c.6,1.5,2.4,2.1,3.64,1.67l-2.85-4.64c-2.43-.62-.91,1.87-.79,2.97Z"/>
          <path class="cls-59" d="M27.81,28.24l-1.38.32c-.46.1-.82.3-1.38.32l.41,1.87,3.4,1.15c1.44,0,4.27.76,8.5,2.27l-1.62-2.83-7.93-3.09Z"/>
          <path class="cls-8" d="M28.87,31.89c5.16,1.75,10.85,5.84,13.84,4.7-1.45-.52-3.71-1.13-4.72-2.35-.77-.93-.47-1.64-.66-2.3l-1.59-.62c-.25,2.6-9.35-2.96-6.88.56Z"/>
          <path class="cls-80" d="M50.3,44.66c-4.29-1.7-8.57-3.37-12.81-4.89-.57,1.64,4.7,5.7,6.88,4.29.74.53,2.31.87,3.17,1.23,2.3.96,7.96,3.58,6.4,1.04-1.02-.62-2.59-1.25-3.64-1.67Z"/>
        </g>
        <g>
          <path class="cls-87" d="M49.17,39.92c-2.9.49-4.09,1-3.55,1.53.71.91,4.39-.1,5.47-.77.67.35,1.03.29,1.09-.15.67.35,1.03.29,1.09-.15-.93-.57-2.66-.69-4.11-.44Z"/>
          <path class="cls-107" d="M52.19,40.52c-3.08,2.03,1.23,2.17,4.53.9.86.28,1.22.19,1.09-.27-1.41,0-2.67-.5-3.44-.94l-1.09.15-1.09.15Z"/>
          <path class="cls-15" d="M57.82,41.15l-1.09.27c-1.14.58-2.84.7-5.11.36-1.9.42-3.3.88-4.22,1.37-1.17-.87-2.64-.5-2.29.42-.67-.35-1.03-.29-1.09.15-.53.55-.81.95.83.91.36.89.87.96,1.54.23,2.03.4,4.47.47,7.32.22.87.26,1.23.18,1.08-.26,3.91.1,6.85-.33,8.81-1.3.53-.41.36-1.04-.5-1.9-1.19-.65-3.63-.46-5.27-.47Z"/>
          <path class="cls-74" d="M63.59,43.52c.82.65,2.03.41,2.59-.22l-3.1-1.68c-1.57.42.08,1.33.5,1.9Z"/>
          <path class="cls-59" d="M45.62,41.45l-.68.61c-.23.2-.37.42-.68.61l.83.91,2.29-.42c.81-.45,2.66-.92,5.53-1.41l-1.83-1.07-5.47.77Z"/>
          <path class="cls-8" d="M47.39,43.15c3.48-.65,8-.16,9.33-1.73-.99.17-2.46.54-3.42.18-.73-.28-.79-.76-1.11-1.07l-1.09.15c.69,1.52-6.23,1.29-3.71,2.47Z"/>
          <path class="cls-80" d="M63.59,43.52c-2.97.4-5.93.82-8.81,1.3.02.1-1.65-.58-1.94-.16-.32.46.75,2.04.9,2.27.47.73,2.67.48,2.67.48,0,0,3.27-1.69,3.63-2.37.59.06,1.58-.24,2.19-.31,1.61-.19,5.65-.51,3.95-1.43-.77-.02-1.86.12-2.59.22Z"/>
        </g>
        <g>
          <g>
            <path class="cls-65" d="M70.42,44.21c-.76,1.12-2.29,1.02-4.6-.3-.51-.53-.55-1.32-.24-1.96,1.57.31,3.65-.63,4.73.34.44.39.33,1.27.11,1.92Z"/>
            <path class="cls-1" d="M71.94,45.27c-.79.51-1.07.31-.83-.6-.63.64-.85.47-.69-.46-1.13-.26-2.4-.67-1.24-1.19-1.89.22-3.09-.14-3.6-1.07-1.53,1.73-2.88,1.41-4.38-.13l-.88-.47c-1.37-.71-.55-2.28.94-1.76,1.52-.69,3.03.56,4.62.63.94-.98,2.68-.95,5.2.09l.82.58c1.19,1.27,1.22,3.11.04,4.39Z"/>
            <path class="cls-19" d="M64.67,45.94c-.12.16-2.43-1.21-2.43-1.21,0,0-.38-2.26-1.03-2.91,1.26-1.21,3.03-.82,4.38.13,1.5.34,1.92.54,1.49,1.01-.22.24-.63.55-1.25.96.18.17.35.31.5.47,1.57,1.54.83,2.03-1.65,1.56Z"/>
            <path class="cls-31" d="M71.11,44.67c-.41,1.35-1.42,1.84-2.47,1.23s-2.04-1.17-2.82-1.99c1.54-.49,3.04.58,4.6.3l.69.46Z"/>
          </g>
          <path class="cls-32" d="M70.67,49.03c-.39.54-1.03.83-1.76.91-2.13.21-4.97-1.4-4.24-3.99l1.15-2.03c.14.08.29.16.42.24.21.11.42.21.62.3.75.32,1.48.51,2.19.53,0,0,.02,0,.04,0,.44.03.86,0,1.29-.1.24-.04.49-.11.73-.21.29.19.53.44.83.6l-.95,1.78c.11.58.08,1.06-.05,1.46-.06.2-.15.37-.26.52Z"/>
        </g>
      </g>
    </g>
    <path class="cls-53" d="M23.36,11.95c-.34.84-.23,2.08.51,3.59.66.11,1.36-.18,2,0,.19.65.49,1.19.87,1.6h0c.56,2.53.16,7.47,1.94,8.4-.69.73-1.64,1.47-2.44,1.42-1.02-.07-2.45-.55-3.54.66l-.9.98-1.93-3.24c1.51.75,2.01.25,1-1,1.76.7,2.32.36,1-1,.37-1.18-.42-3.98-1.62-4.37-.59-.99-1.07-1.59-1.44-1.75-.06-.78-.38-1.74-.94-2.88,3.73,3.32,5.06-2.37,5.49-2.41Z"/>
  </g>
</svg>