<?xml version="1.0" encoding="UTF-8"?>
<svg id="Enemy" xmlns="http://www.w3.org/2000/svg" viewBox="0 0 73.26 126.04">
  <defs>
    <style>
      .cls-1 {
        fill: #0d60ad;
      }

      .cls-2 {
        fill: #551311;
      }

      .cls-3 {
        fill: #562e24;
      }

      .cls-4 {
        fill: #292828;
      }

      .cls-5 {
        fill: #dda785;
      }

      .cls-6 {
        fill: #26140e;
      }

      .cls-7 {
        fill: #6f0a0b;
      }

      .cls-8 {
        fill: #d09677;
      }

      .cls-9 {
        fill: #fcd5b6;
      }

      .cls-10 {
        fill: #401a0e;
      }

      .cls-11 {
        fill: #e9a68c;
      }

      .cls-12 {
        fill: #411008;
      }

      .cls-13 {
        fill: #6a1012;
      }

      .cls-14 {
        fill: #f3c89f;
      }

      .cls-15 {
        fill: #250a0a;
      }

      .cls-16 {
        fill: #4e1216;
      }

      .cls-17 {
        fill: #5c554e;
      }

      .cls-18 {
        fill: #1563be;
      }

      .cls-19 {
        fill: #680709;
      }

      .cls-20 {
        fill: #644137;
      }

      .cls-21 {
        fill: #342c28;
      }

      .cls-22 {
        fill: #989a97;
      }

      .cls-23 {
        fill: #361111;
      }

      .cls-24 {
        fill: #16100b;
      }

      .cls-25 {
        fill: #fff;
      }

      .cls-26 {
        fill: #351112;
      }

      .cls-27 {
        fill: #817b77;
      }

      .cls-28 {
        fill: #348ce6;
      }

      .cls-29 {
        fill: #093c79;
      }

      .cls-30 {
        fill: #29456e;
      }

      .cls-31 {
        fill: #8d9896;
      }

      .cls-32 {
        fill: #811210;
      }

      .cls-33 {
        fill: #6d635d;
      }

      .cls-34 {
        fill: #8b7f78;
      }

      .cls-35 {
        fill: #5e564f;
      }

      .cls-36 {
        fill: #302322;
      }

      .cls-37 {
        fill: #f5ceb5;
      }

      .cls-38 {
        fill: #464039;
      }

      .cls-39 {
        fill: #e0af97;
      }

      .cls-40 {
        fill: #cf967c;
      }

      .cls-41 {
        fill: #2b2725;
      }

      .cls-42 {
        fill: #250203;
      }

      .cls-43 {
        fill: #e8ac8f;
      }

      .cls-44 {
        fill: #413d3b;
      }

      .cls-45 {
        fill: #5c0509;
      }

      .cls-46 {
        fill: #312c28;
      }

      .cls-47 {
        fill: #dda48a;
      }

      .cls-48 {
        fill: #6a0403;
      }

      .cls-49 {
        fill: #fbd7ba;
      }

      .cls-50 {
        fill: #3f5278;
      }

      .cls-51 {
        fill: #5a0405;
      }

      .cls-52 {
        fill: #490703;
      }

      .cls-53 {
        fill: #212020;
      }

      .cls-54 {
        fill: #25211d;
      }

      .cls-55 {
        fill: #312b27;
      }

      .cls-56 {
        fill: #2e1111;
      }

      .cls-57 {
        fill: #ccb5af;
      }

      .cls-58 {
        fill: #52100f;
      }

      .cls-59 {
        fill: #c79686;
      }

      .cls-60 {
        fill: #601417;
      }

      .cls-61 {
        fill: #bfb5b3;
      }

      .cls-62 {
        fill: #946f5f;
      }

      .cls-63 {
        fill: #0b80f2;
      }

      .cls-64 {
        fill: #a77566;
      }

      .cls-65 {
        fill: #420202;
      }

      .cls-66 {
        fill: #ac8d78;
      }

      .cls-67 {
        fill: #4a0c0e;
      }

      .cls-68 {
        fill: #f1b9a2;
      }

      .cls-69 {
        fill: #947565;
      }

      .cls-70 {
        fill: #9e1c21;
      }

      .cls-71 {
        fill: #2a1b1b;
      }

      .cls-72 {
        fill: #441315;
      }

      .cls-73 {
        fill: #be9d84;
      }

      .cls-74 {
        fill: #750506;
      }

      .cls-75 {
        fill: #8e8177;
      }

      .cls-76 {
        fill: #42403e;
      }

      .cls-77 {
        fill: #411f15;
      }

      .cls-78 {
        fill: #af1415;
      }

      .cls-79 {
        fill: #b08a78;
      }

      .cls-80 {
        fill: #3b3835;
      }

      .cls-81 {
        fill: #4c0b0d;
      }

      .cls-82 {
        fill: #381110;
      }

      .cls-83 {
        fill: #510707;
      }

      .cls-84 {
        fill: #311f1a;
      }

      .cls-85 {
        fill: #290303;
      }

      .cls-86 {
        fill: #544a47;
      }

      .cls-87 {
        fill: #0b0b0b;
      }

      .cls-88 {
        fill: #3c0405;
      }

      .cls-89 {
        fill: #1f1d33;
      }

      .cls-90 {
        fill: #865643;
      }

      .cls-91 {
        fill: #e7b2a2;
      }

      .cls-92 {
        fill: #6e0a0c;
      }

      .cls-93 {
        fill: #ad8d7d;
      }

      .cls-94 {
        fill: #38312c;
      }

      .cls-95 {
        fill: #866252;
      }

      .cls-96 {
        fill: #460506;
      }

      .cls-97 {
        fill: #0a0a09;
      }

      .cls-98 {
        fill: #453e3c;
      }

      .cls-99 {
        fill: #504740;
      }

      .cls-100 {
        fill: #550404;
      }

      .cls-101 {
        fill: #341f1e;
      }

      .cls-102 {
        fill: #400405;
      }

      .cls-103 {
        fill: #aea6a5;
      }

      .cls-104 {
        fill: #5f0706;
      }

      .cls-105 {
        fill: #734935;
      }

      .cls-106 {
        fill: #520706;
      }

      .cls-107 {
        fill: #48191a;
      }

      .cls-108 {
        fill: #8e6254;
      }

      .cls-109 {
        fill: #680e0e;
      }

      .cls-110 {
        fill: #1b1610;
      }

      .cls-111 {
        fill: #6a5e55;
      }

      .cls-112 {
        fill: #500e0e;
      }

      .cls-113 {
        fill: #531a17;
      }

      .cls-114 {
        fill: #4d453f;
      }

      .cls-115 {
        fill: #360d0d;
      }

      .cls-116 {
        fill: #3e1010;
      }

      .cls-117 {
        fill: #96887d;
      }

      .cls-118 {
        fill: #3d1422;
      }
    </style>
  </defs>
  <g id="JammingJabber_walk">
    <g id="back-arm-assembly">
      <g id="back-glove">
        <path class="cls-30" d="M54.2,23.29l.54,1.88c0,1.44-.42,2.32-1.26,2.62,0,.92-.32,1.01-.95.32-1.27.17-1.86-1.3-1.89-2.53-1.49,1.07-2.19-.04-1.68-1.63.66-2.65,3.59-.14,5.24-.65Z"/>
        <path class="cls-89" d="M55.54,30.27c-.2.47-.44.92-.67,1.37-2.51,1.18-2.61-.29-.76-1.95-2.09.59-2.09-.43-.63-1.9,0-1.03.41-2.02,1.26-2.62.48,1.66.49,3.4.8,5.09Z"/>
        <path class="cls-89" d="M50.64,25.58c.79.62.69,1.83-.32,2.21.13,1.78.12,2.8-1.58,1.58-1.34-.83-.73-2.35-.62-3.77.05-.64.69-1.08.84-1.65.79.26,1.35.89,1.68,1.63Z"/>
        <path class="cls-50" d="M54.11,29.69l.76,1.95c-.18.34-.12,1.04-.46,1.28.03,1.95-.17,2.86-1.99,1.69.39,2.69-.57,2.81-1.78.36-.36-.77-.29-1.76-.71-2.5.09-1.55.63-1.84,1.64-.88-.17-1.59,1.15-3.01,2.53-1.89Z"/>
        <path class="cls-50" d="M52.53,28.11c1.37,1.11-.09,2.17-1.58,1.58-1.53.38-1.39-.64-.63-1.9-.25-.75-.47-1.72.32-2.21,1.1.39,1.64,1.45,1.89,2.53Z"/>
        <path class="cls-30" d="M54.11,29.69c-.93.47-1.9,1.03-2.53,1.89-1.37.42-1.8-1.07-.63-1.9.67-.36,1.24-.89,1.58-1.58l.95-.32.63,1.9Z"/>
        <path class="cls-50" d="M50.95,29.69l.63,1.9c-.24.33-.13,1.02-.65,1.01-.4,0-.72-.03-.99-.13-.48-.85-.62-2.4-1.2-3.1l1.58-1.58.63,1.9Z"/>
      </g>
      <g id="back-arm">
        <path class="cls-69" d="M39.81,39.22c.19.64,1.95,2.08,2.22,2.29s3.28,2.14,3.93,2.58,4.12,2.21,4.55,2.47,3.66.09,4.09-.9,1.41-5.92,1.44-6.58-.37-4.01-.57-4.6-.83-2.04-1.19-2.23-1.92.29-2.51.48-1.5,1.1-1.44,1.44.51,2.3.15,2.42-1.01-.02-1.44-.38-1.78-2.33-2.56-3.29-2.58-4.14-3.22-4.08-2.59,4.04-3.18,4.84-1.05,2.92-.28,5.54Z"/>
        <path class="cls-64" d="M56.35,38.65c.38,1.85-.38,3.59-.7,5.33-.88.93-1.48.61-1.2-.63-2.81-.27-2.43-5.07.28-5.45.02-.93.36-1.02,1.01-.33.13.37.53.69.61,1.07Z"/>
        <path class="cls-62" d="M55.74,37.58l-1.01.33c-2.4.97-3.56-1.46-2.31-3.31.63-.59,1.28-1.18,1.99-1.69.33,1.58.78,3.14,1.33,4.66Z"/>
        <path class="cls-43" d="M52.42,34.6c.81,1.07,1.68,2.11,2.31,3.31l-.28,5.45c1.26,2.23-1.91,4.91-3.31,2.23-2.91-.18-3.11-3.79-.39-4.62-.91-1.26-1.21-3.25-.92-4.66-.62-.84-.06-1.32.82-1.35.53-.02,1.3-.19,1.78-.36Z"/>
        <path class="cls-40" d="M49.83,36.31c1.98.96.78,2.95.92,4.66-.7.6-1.04.44-1-.48-2.43-1.42-2.85-2.54-1.26-3.37-.59-.23-.62-.56-.14-1l1.48.2Z"/>
        <path class="cls-61" d="M43.12,28.34c.93.89,1.72,2.01,2.14,3.24.54,2.23-.66,2.52-1.94.6-.3,1.86-1.13,1.76-1.57-.11,0-1.38.32-2.78,1.37-3.74Z"/>
        <path class="cls-66" d="M45.25,31.58c.59,1.78,1.78,3.22,3.1,4.54l.14,1c-1.3,2.48-3.98-1.07-4.5-3.01-2.02.67-2.36-.67-.67-1.93l1.94-.6Z"/>
        <path class="cls-68" d="M43.32,32.18l.67,1.93c.66.68.39,1.09-.63,1.26.94,1.93-.1,2.09-1.79.95-.05,1.9-.82,1.95-1.58.24-.91-.02-.95-.33-.19-.92.75-.83,1.4-1.77,1.77-2.84.08-.22.18-.5.18-.74.53-.06,1.06-.04,1.57.11Z"/>
        <path class="cls-11" d="M49.75,40.49c.36.07.66.37,1,.48l.39,4.62c.34,1.06-.36,1.24-2.1.54-1.43-.84-3.18-1.6-2.21-3.48-.92-.02-.98-.35-.25-.97-1.9-1.33-2.25-2.27-1.06-2.82.74-1.76,2.15-1.21,4.23,1.64Z"/>
        <path class="cls-69" d="M55.65,43.99c-.3,1.64,0,3.57-2.25,3.94-1.62.27-3.01-1.01-4.37-1.8.68.02,1.44-.64,2.1-.54,1.56.24,2.69-.85,3.31-2.23.58-.46,1.2-.07,1.2.63Z"/>
        <path class="cls-93" d="M46.58,41.67c.12.31.13.66.25.97l-1.9.63c-1.19-1.5-3.42-2.09-4.42-3.8-.9.04-.99-.28-.32-.95,1.41-1.59,5.07,1.41,6.39,3.14Z"/>
        <path class="cls-9" d="M48.49,37.12c.17,1.2.66,2.32,1.26,3.37-1.49-.31-2.71-1.45-4.23-1.64-1.82-.99-2.55-2.15-2.16-3.48.19-.43.4-.85.63-1.26,1.75.74,2.65,2.66,4.5,3.01Z"/>
        <path class="cls-49" d="M41.56,36.33c1.39.09,2.7.93,3.95,2.53l1.06,2.82-6.39-3.14-.2-1.97,1.58-.24Z"/>
        <path class="cls-5" d="M43.35,35.37c.76,1.13,1.68,2.2,2.16,3.48-1.66-.21-2.83-1.33-3.95-2.53l1.79-.95Z"/>
      </g>
    </g>
    <g id="back-leg-assembly">
      <g id="back-leg">
        <path class="cls-15" d="M45.66,92.23c1.28-.38,1.66-1.94,2.18-3.17.47-1.09,1.18-2.06,1.79-3.08,3.13-5.23,3.47-11.8,1.97-17.7-.36-1.42-.83-2.83-1.64-4.05-.68-1.03-1.59-1.9-2.44-2.79-1.65-1.72-3.14-3.58-4.63-5.43-.82-1.02-1.64-2.04-2.46-3.06-1.42-1.77-2.85-3.54-4.07-5.46-.19-.29-.37-.59-.65-.81-.43-.34-1-.41-1.55-.46-6.26-.6-12.58-.49-18.83.17-1.1.12-2.3.31-3.01,1.15-.57.68-.68,1.62-.76,2.51-.3,3.21-.59,6.46-.1,9.65.1.67.26,1.38.75,1.86.68.66,1.74.66,2.69.61,3.45-.17,6.91-.35,10.36-.52.26-.01.53-.02.75.1.23.12.37.35.5.58,1.26,2.14,2.39,4.36,3.36,6.64.33.77.65,1.57,1.2,2.21,1.82,2.09,5.66,1.94,6.79,4.46.81,1.8-.41,3.97-2.11,4.96-.34.2-.72.38-.95.69-.24.32-.31.73-.37,1.13-.3,2.08-.45,4.17-.44,6.27,0,.81.04,1.66.47,2.35.64,1.02,1.94,1.37,3.12,1.64,1.6.36,3.2.73,4.79,1.09l3.29-1.54Z"/>
        <path class="cls-56" d="M51.36,71.42c2.25,7.48-3.25,8.22-3.98,14.97-.07.68-.59,1.3-.72,1.96-.25.89-.59.89-1.03.05-2.81.98-3.32-.38-.97-2.22-1.85-.9-.77-3.42.92-3.9.19-2.68,1.74-5.77,3.47-7.73-2.37-1.95-4.36-5.44-.38-5.94.9.72,2.34,1.61,2.7,2.81Z"/>
        <path class="cls-102" d="M33.12,55.57c2.12-2.78,7.33,1.78,5.94,4.53,3.18,2,5.37,4.51,6.57,7.56-1.62-1.47-1.61-2.62.01-3.45-1.49-2.16-.94-3.02.88-1.16.9,1.65,3.29,2.88,2.14,5.57-1.81,4.21,5.09,4.3,1.38,7.8-1.97,1.85-3.24,3.86-4.47,5.87l-1.26.6c.79-3.47.74-6.37-.15-8.7-.64.53-1.64.43-2.99-.27-1.79,1.66-5.69-2.19-4.07-4.01q1.23-1.52,0,0c-.96,2.09-3.85-.65-2.66-2.19q.56-2.42,0,0c-.94,1.6-2.88-.16-3.88-1.42-.52.82-1.82.17-2-.86-1.98-1.96-2.84-3.71-2.57-5.23.89-1.63,2.81-.34,4.11.68-2.04-1.46-3.41-1.69-4.11-.68-1.65,1.71-4.05,1.16-3.05-2.08-1.28,1.05-1.27.46-1-1.13-1.92-4.86,10.73-6.35,11.19-1.43Z"/>
        <path class="cls-102" d="M44.06,76.19l1,.69-1.41,8.2,1,1.11c-.15.93.41,1.59.97,2.22.74.84-.37,1.78-.41,2.57-2.16.32-4.25-.39-6.06-1.54-1.79-2.46-1.24-5.84,1.67-10.15-.13-2.34.3-3.73,1.29-4.19.7-1.19,1.79-.21,1.95,1.09Z"/>
        <path class="cls-67" d="M45.57,82.28c.35,1.15-.59,2.81-.92,3.9-5.62,1.6-1.01-1.38-.6-10-1.27-1.08-1.72-1.79.09-2,5.2.5-1.14,6.38,1.42,8.09Z"/>
        <path class="cls-15" d="M34.43,67.72c.83.62,1.61,1.88,2.66,2.19.9,1.75,2.02,3.54,4.07,4.01,1.17-.42,1.56.07.95,1.17.13,4.94-2.16,9.49-2.96,14.33l-.82.2c-.92.51-2.03,1.11-2.73.06-3.13-1.04-2.26-5.57,1.07-5.92-.85-1.52-.31-3.62,1.63-6.28l-8.18-7.57.34-2.4c-1.34-.53-1.34-.88.08-1.22,1.34.03,2.8.62,3.88,1.42Z"/>
        <path class="cls-92" d="M42.55,60.95c2.33,3.82-1.58,1.86-3.49-.86-1.2-2.31-3.31-3.35-5.94-4.53.68-1.1,1.27-2.76,2.57-2.83,1.07-.05,7.31,6.48,6.86,8.21Z"/>
        <path class="cls-83" d="M42.55,60.95c1.07.81,2.37,1.98,3.09,3.25.8,1.4.95,3.33-.19,4.52-.6-.8-.92-1.52-1.06-1.93-.64-1.9-.42,1.15-2.27,1.45,1.21-3.9-1.75-5.62-3.06-8.15.56.39,1.23.74,2.21,1.52.4.32.92.45,1.28-.66Z"/>
        <path class="cls-81" d="M25.98,60.21c-1.17-1.36-1.35-2.31.89-1.67,2.25-.4,3.66.4,4.91,1.46.78.66,1.52,3.19-.05,3.34-2.53.16-3.75-2.82-5.75-3.13Z"/>
        <path class="cls-112" d="M34.43,67.72c-.54-2.55-1.49-4.02-.27-4.99,1.26,1.05,1.96,2.53,2.17,3.52.14.67-1.25,1.73-1.9,1.47Z"/>
        <path class="cls-58" d="M37.09,69.91c-.48-1.23-1.01-2.48-.53-2.69,1.12-.48,1.03.71,1.64.67.86-.05,1.77,1.11,1.15,1.63-.87.73-1.62.81-2.27.38Z"/>
        <path class="cls-16" d="M44.15,74.19l-.09,2c-.62-.4-1.5-.54-1.95-1.09l-.95-1.17c-.1-.98.89-.62,1.34-.6.67.03,1.13.82,1.65.87Z"/>
        <path class="cls-82" d="M34.42,46.88c-.26.28-1.02.43-1.12.77-.56,1.94,3.7,3.12,3.98,4.2-3.61-.1-5.75-2.9-8.94-4.35-1.5,1.65-2.64.84-4.11-.28-1.62,1.5-2.18,1.02-.85-.81-1.96-.02-1.86-.82.13-1.23,1.65-.46,3.61-.56,5.88-.3.08-1.45,1.15-2.21,3.21-2.27.08-.6.49-.83,1.16-.78,3.01.21,3.13,3.88.66,5.05Z"/>
        <path class="cls-7" d="M23.38,46.41c-.43.61.43.69.85.81-.31.63-.3,1.37-.82,1.7-.82.52-1.77-.16-2.32.14-.03-.64-.02-1.39.52-1.97.39-.42,1.13-.57,1.77-.68Z"/>
      </g>
      <g id="back-shoe">
        <path class="cls-87" d="M51.84,116.08c.15-1.33.25-2.83-.63-3.84-.74-.86-1.96-1.08-2.97-1.6-1.7-.88-2.84-2.75-2.84-4.66,0-.75.16-1.48.24-2.22.09-.85.08-1.71-.03-2.56-.03-.24-.07-.5.06-.7.14-.22.42-.3.64-.45.47-.32.58-.95.66-1.51.26-1.95.52-3.89.78-5.84.06-.46.12-.94,0-1.39-.12-.46-.43-.85-.77-1.18-1-.96-2.36-1.48-3.72-1.7-1.37-.21-2.77-.14-4.15-.05-1.05.07-2.11.15-3.16.24-.45.04-.95.1-1.24.45-.21.25-.26.59-.28.91-.09,2.03,1.11,3.92,1.16,5.95.06,2.07-1.08,4.03-1.1,6.1,0,.58.07,1.17-.03,1.74-.12.7-.52,1.33-.77,2-.27.71-.39,1.48-.51,2.23-.11.7-.21,1.4-.32,2.1-.27,1.75-.54,3.51-.48,5.28,0,.11,0,.22.06.31.08.13.23.18.37.22,1.18.34,2.49.18,3.55-.43.56-.33,1.07-.78,1.7-.94.36-.09.73-.08,1.1-.07.49.01.97.03,1.46.04.28,0,.57.02.84.1.37.11.7.34,1.02.56,2.5,1.67,5.48,2.62,8.48,2.69l.86-1.78Z"/>
        <path class="cls-41" d="M45.45,95.34c-.25.59-.06,1.42-.16,2.05-4.12,2.91-3.76-5.43-.08-6.42-1.9-1.67-1.94-1.9.41-2.57l1.03-.05c.64.56,1.77,1.59,1.35,2.79-.6,1.73-1.97,2.81-2.56,4.19Z"/>
        <path class="cls-80" d="M39.15,89.43c1.81-2.04,4.85-.62,6.06,1.54-.24,4.1-2.09,6.37.08,6.42-.44,3.01-1.93,6.08-1.24,9.51.35,1.74,2.11,2.7,2.25,4.19l-2.32,1.27c-1.02-1.67-1.59-3.12-1.71-4.33-1.96.07-2.13-2.83-.71-3.71-1.14-.36-1.96-1.22-2.45-2.57-1.49-1.61-1.13-3.29.2-4.89-.66-1.48-1-3.14-1.01-4.97-1.31,1.49-1.9.86-.82-.92-.56-1.24-.28-1.68.85-1.32-.04-.9.24-.94.82-.2Z"/>
        <path class="cls-33" d="M42.29,108.02c.98,1.44,2.25,2.78,4.02,3.06.04.44.06.9.03,1.35.06,1.13-.39,2.07-1.17,2.88-1.03,1.62-3.79-.3-3.91-2.28-2.23-2.26-2.79-3.98-1.69-5.16.84-2.66,1.97-2.45,2.71.14Z"/>
        <path class="cls-110" d="M52.2,115.61c.03,1.41-1.14,2.81-2.92,2.36-1.56-.39-2.88-.56-4.17-.67-1.7-1.31-1.22-1.97.82-1.09,2.05-.75,3.81-.97,5.28-.65l1,.05Z"/>
        <path class="cls-34" d="M51.2,115.57c-1.59.98-3.48.89-5.28.65-.87-.24-.83-.54.04-.9.74,0,1.52.23,2.59.02.65-.13.92-.99.74-1.85.91.4,1.6,1.14,1.9,2.09Z"/>
        <path class="cls-55" d="M36.69,104.87c3.07-2.81,3.83-.78,1.64,2.33-.47,1.9.48,3.34,2.83,4.34l.1,1.49c1.3,1.28,1.85,2.25.01,3.03-.33-.12-.77.05-1.11-.03-1.83-2.19-1.82.82-6.34.38-1.37-.13-1.07-2.07-1.53-2.93l.06-.75c.56-.39.57-.82.05-1.29-.12-2.33,1-4.47,1.28-6.74.32-.86.66-.83,1,.05.55.64,1.22.67,2,.09Z"/>
        <path class="cls-114" d="M45.17,115.32h.79s-.04.9-.04.9c-.47-.06-.83.74-.82,1.09-1.33-.12-2.59-.8-3.83-1.23-.21-1-.25-2.04-.01-3.03l3.91,2.28Z"/>
        <path class="cls-4" d="M39.32,96.85c.37.76,1.28,1.54,1.12,2.51-.14.86-1.09,1.51-1.32,2.39,2.81,1.92-1.59,4.39-3.34,1.08-.76-2.14-.52-5.83.38-7.99,2.65-1.45,3.89-1.09,3.15,2.02Z"/>
        <path class="cls-53" d="M38.33,89.63c-.33.38-.49.97-.85,1.32l.82.92c.95.18,1.93.59,2.07,1.72s-.33,2.33-1.06,3.25c-.7-1.12-1.83-1.88-3.15-2.02-.37.84-.71.79-1-.1-2.97-.34-2.36-4.73.44-5.04.87-.51,1.99-.94,2.73-.06Z"/>
        <path class="cls-76" d="M41.58,104.31c-.28,1.22-.97,2.21-2.05,2.97.05,1.95-.74,1.89-1.19-.08-.26-.6.2-1.39-.07-1.78-.32-.46-1.22-.45-1.56-.55-1.4,1.7-1.97-.64-.9-2.05.75.07,1.67.87,2.44.66s.51-1.48.89-1.75c.48-.34,1.58.28,2.2.42.97.21.12,1.57.26,2.15Z"/>
        <path class="cls-27" d="M41.58,104.31c.28,1.22.64,2.45.71,3.71-.9-.15-1.81-.18-2.71-.14-.91-.12-.92-.32-.05-.59-.02-.73.04-1.46.26-2.61.14-.7.89-.72,1.79-.37Z"/>
        <path class="cls-87" d="M38.31,91.88c.02.76.12,1.71-.61,2.06-.63.3-1.54-.44-1.79-.85-.54-.88,2.74-3.29,1.57-2.13.09.37.41.84.82.92Z"/>
        <path class="cls-38" d="M39.58,107.88c.54,1.56,1.73,2.42,3.92,3.56l-2.23,1.6c-2.43-1.42-5.75-1.9-6.97-5.08,1.86-.73,3.15.07,4.04-.75l1.19.08c0,.19-.01.41.05.59Z"/>
        <path class="cls-44" d="M32.36,112.75c.04-.43.08-.86.05-1.29,1.74.2,3.43.97,5.03,2.14-2.37.72-3.55-.63-5.08-.85Z"/>
        <path class="cls-97" d="M35.79,102.82c-.04.78.08,1.79.9,2.05.4.42-1.55,1.84-1.59,1.83-.67-.35-.52-1.55-.41-1.92l.47-10.04,1,.1-.38,7.99Z"/>
      </g>
    </g>
    <g id="front-leg-assembly">
      <g id="front-shoe">
        <path class="cls-24" d="M11.16,121.58c-.29-.99-.17-2.05-.08-3.08.26-3.07.2-6.17-.19-9.22-.03-.26-.07-.52-.02-.78.05-.26.18-.49.31-.72.96-1.7,1.92-3.4,2.87-5.1.7-1.24,1.41-2.53,1.53-3.95.03-.35.02-.71.2-1.01.14-.24.37-.4.55-.61.3-.33.48-.78.49-1.23.02-1.19-1.04-2.11-2.11-2.63s-2.27-.87-3.08-1.75c-.22-.24-.42-.52-.72-.63-.21-.08-.45-.06-.68-.04-.85.08-1.71.16-2.56.24-.48.04-1,.11-1.34.44-.11.11-.2.25-.28.38-.7,1.17-.99,2.54-1.25,3.87-.43,2.19-.81,4.4-1.15,6.61-.05.32-.1.64-.22.93-.14.32-.37.59-.57.87-.89,1.25-1.23,2.79-1.56,4.29-.56,2.58-1.13,5.18-1.27,7.82s.15,5.35,1.25,7.75c.09.21.2.41.35.57.28.29.69.39,1.08.47.9.2,1.79.41,2.69.61,1.04.24,2.12.47,3.16.21.8-.2,1.49-.68,2.15-1.18.44-.34.89-.72,1.04-1.25s-.17-1.22-.73-1.24l.13-.67Z"/>
        <path class="cls-94" d="M6.83,111.06c.67.9.61,2.8-.69,3.09-.06.72.67,1.31,2.19,1.79,1.35-.42.87,1.85.3,2.98-.22.73-.55.75-.99.1-1.2,1.28-1.61.76-1.1-.89-1.33,1.67-1.97,1.67-1.92,0h-.81c-1.35-1.08-2.09-3.04-1.81-4.63l-.07-.91c-.76-1.35-.94-3.5.62-4.24.3-.04.57-.51.93-.14,1.22-2.28,2.19-2.69,2.93-1.22,1.99-.3,1.47,2.7.42,4.07Z"/>
        <path class="cls-54" d="M6.42,96.05l2.16.83c-.02,2.81-.54,5.55-1.56,8.24,1.67.51,1.13,2.43-.62,1.89-1.33.27-1.76,1.47-1.9,3.38-1.21-.33-.92-1.39-1.04-2.16l.1-1.84c-.9-.19-.92-.53-.11-1,1.33-1.42.03-3.54.49-5.08,1.81-6-1.51-4.48.93-8.26,2.23.04,3.08,2.41,1.54,4Z"/>
        <path class="cls-24" d="M3.81,118.11c-.73,1.94-1.54,1.45-2.45-1.47l-.31-1.82c.47-.25.69-.9.94-1.33,1.46,1.07,1.63,2.93,1.81,4.62Z"/>
        <path class="cls-35" d="M3.81,118.11c.26.04.54.01.81.01.96.85.08,2.37-.77,3.29,1.66.33,3.06.86,4.18,1.59l.31-1.48c-1.56-1.02-1.8-1.86-.71-2.5l.99-.1c.19-.9.53-.92.99-.1.44.16.83.79,1.2,1.89-.49.82-.35,1.69.14,2.89l-5.96.85c-1.54.06-2.77-.83-3.02-2.85l-.61-4.96c.64.75,1.47,1.3,2.45,1.47Z"/>
        <path class="cls-46" d="M9.68,109.52c2.91-.73,3.42,4.23.7,5.15.05.35-.09.71-.07,1.06l-.69,3.09-.99.1-.3-2.98c-2.2.14-2.3-1.29-.2-1.99-1.56.34-1.36-2.09-.3-2.98-.78-1.09-.65-2.33.79-2.09.9-.67,1.25-.46,1.06.65Z"/>
        <path class="cls-98" d="M8.61,108.87c.16.59-.86,1.45-.79,2.09-.19.9-.53.92-.99.1l-.42-4.07c-.05-.53.93-1.17.62-1.89,1.4-8.85,6.34-1.25,1.59,3.76Z"/>
        <path class="cls-111" d="M7.63,119.02c.54.67.97,1.46,1.26,2.36s.13,1.44-.86,1.62c-1.08-.44-2.15-1-3.19-1.69-.99-.7.29-2.96,1.69-3.19.47,0,.83.56,1.1.89Z"/>
        <path class="cls-17" d="M7.82,110.96l.3,2.98c.11,1.5-1.49,1.66-1.99.2.03-1.07-.02-2.2.69-3.09l.99-.1Z"/>
        <path class="cls-99" d="M8.12,113.95l.2,1.99c-.82-.04-1.96.64-3.01-.13-1.09-.82.8-1.16.81-1.65l1.99-.2Z"/>
        <path class="cls-75" d="M6.54,118.13l-1.69,3.19c-.21.8-.54.82-.99.1-.25-1.11.4-2.29.77-3.29h1.92Z"/>
        <path class="cls-21" d="M9.3,95.68c1.47-2.59,2.87-2.3,3.19.66.9.19.92.51.1.98.99,1.61.42,2.97-.34,4.15,3.71,1.11.97,7.89-2.57,8.05-.25-.36-.63-.59-1.06-.65l1.01-7.25c-.85,1.42-1.07,2.96-2.6,3.49-2.21,1.34.29-6.23-.6-9.07.97.41,2.01.2,2.88-.36Z"/>
        <path class="cls-111" d="M10.82,120.71c-1-.1-1.05-1.11-1.2-1.89-.21-1.1-.13-2.24.69-3.09l.5,4.97Z"/>
        <path class="cls-117" d="M8.03,123c-1.56.28-3.76.3-4.18-1.59l.99-.1c.71-.07,1.47-.29,2.36-.12.72.14.93,1.02.83,1.8Z"/>
        <path class="cls-101" d="M12.25,101.47c-1.67-.84-.37-2.6.34-4.15.62.25.6,1.05,1.74,2-.07-2.15,1.37-3.6,1.97-5.3.93,3.35-1.16,5.88-4.05,7.45Z"/>
      </g>
      <g id="front-leg">
        <path class="cls-42" d="M5.95,93.05l1.9,2.39c.7.89,1.43,1.8,2.38,2.41s2.2.9,3.24.45c.75-.32,1.3-.98,1.83-1.61,1.49-1.8,2.99-3.6,4.48-5.41,1.17-1.42,2.36-2.85,3.18-4.49.28-.57.52-1.16.83-1.71.56-1,1.34-1.87,1.89-2.87,1.75-3.16,1.03-7.03.88-10.64-.07-1.85.02-3.71.27-5.54.11-.77.24-1.54.51-2.27.76-2.04,2.5-3.54,4.18-4.93.3-.25.61-.51.98-.63.49-.16,1.02-.07,1.54-.12,1.69-.16,2.91-1.82,3.16-3.5s-.25-3.36-.75-4.98c-.23-.75-.46-1.51-.69-2.26-.23-.76-.52-1.59-1.21-1.98-.53-.3-1.18-.27-1.79-.23-4.82.32-9.64.65-14.46.97-.92.06-1.85.13-2.73.4-1.44.45-2.65,1.45-3.81,2.41-.48.4-.98.83-1.16,1.42-.12.39-.09.8-.05,1.21.27,2.92.82,5.83.71,8.75-.08,2.08-.49,4.13-.53,6.21-.07,3.07.65,6.09.94,9.14s.08,6.32-1.62,8.87c-1.18,1.76-2.99,3.05-4.02,4.9l-.06,3.63Z"/>
        <path class="cls-26" d="M11.54,51.49c3.21.49,4.87,7.61,1.09,7.73l-.19,8.06c1.76.54,2.53,7.04.81,7.96.79,1.06,1.27,2.27,1.54,3.56,1.01,4.83.9,11.89-5.25,8.79-.19.94-.55,1.01-1.08.21.28-1.09.78-2.1,1.48-2.98,3.81-.48,1.1-11.49.51-17.33-1.64.38-1.46-2.14-.3-2.98.8.03.93-1,.81-2.05l-.79-6.98c-.19-1.71.61-3.49.46-5.12.55-.29.85.09.9,1.15Z"/>
        <path class="cls-115" d="M9.54,87.58c2.87.88,1.11,6.05-.23,8.1.05,3.3-2.14,3.53-2.88.36-.39-1.25-2.08-2.33-1.54-4,1.01-1.56,2.24-2.94,3.58-4.26.32-.14.78-.02,1.08-.21Z"/>
        <path class="cls-42" d="M24.7,58.97c-.46,2.67-1.03,5.47.21,7.98.9.08.91.37.1.85,1.03,1.74.44,2.35-1.33,1.36-.24-3.74-1.52-7.62-.14-11.15.31.35.94.54,1.16.97Z"/>
        <path class="cls-104" d="M28.48,47.65c-.4.82-.54,2.36-1.58,3.02-9.83,6.25-2,15.78-5.21,18.69l-2.21-1.63-.98-9.25-2.09-.57c-3.23-1.72-2.68-7.02,1.22-7.2-.05-1.95.73-2.05,1.43-.21.7-2.11,1.15-1.87,2.47-.23.36-1.17,1.31-1.93,2.83-2.28.3-.94,1.37-1.29,2.37-1.1.55.1,1.1.59,1.74.77Z"/>
        <path class="cls-100" d="M16.39,37.57c1.56.54,1.76,2.19.4,3.13l-.94,3.29c.05-.98.48-1.34,1.27-1.07.09-.89.38-.88.84-.05,1.47,1.33.37,5.79-.31,7.82-1.44,2.21-1.31,4.77-1.22,7.2.87.13,2.04.6,1.97,1.27-1.97,5.79-1.99,11.14-.07,16.07.87-1.67,2.07-2.33,3.6-1.96.05.91.67,2.15.37,3.03,1.19,2.51.5,7.5-2.19,8.41-5.44,3.78-5.6.62-5.11-4.72l-1.75-4.76-.81-7.96.19-8.06c1.5-2.57-1.39-5.05-1.09-7.73l.27-3.43c3.58-1.48,1.9-4.49,2.52-10.01-.29-1.92.47-2.08,1.48-.37l.58-.09Z"/>
        <path class="cls-96" d="M20.1,84.72c.18.61.28,1.17.07,1.56-1.19,2.19-4.65,7.72-6.1,9.58-.28.36-.88.46-1.58.49-1.04-.32-2.11-.54-3.19-.66-1.76-2.52-.1-5.28.23-8.1,1.45-.9,3.86-1.46,4.4-3.68.75-3.08-.42-5.97-.69-8.67,2.95,1.71,2.96,5.55,2.6,8.87,1.54.69,2.99.52,4.26.61Z"/>
        <path class="cls-96" d="M12.44,67.28c-.28-2.81-1.26-5.57.19-8.06-.18,2.68,1.76,5.92-.19,8.06Z"/>
        <path class="cls-23" d="M23.76,77.19c2.86.35,3.08,3.7-.02,4.1-1.46,1.97-1.81,4.84-3.58,6.89-1.79,2.07-3.08,3.65-3.86,5.84.05,3.52-3.77,9.15-3.71,3.3l-.1-.98c2.18-4.2,4.48-8.14,7.61-11.63,1.83-2.04,1.35-5.97,2.19-8.41l1.1-.09.36.97Z"/>
        <path class="cls-74" d="M21.7,69.36c.17,1.29.15,2.62.23,3.92-1.19,2.06-1.96,4.34-2.62,7.35-8.22-11.09-2.65-16.66-2.88-22.72,1.23-.75.87-2.76,3.23-3.62,1.44,5.21,1.38,10.17,2.04,15.08Z"/>
        <path class="cls-116" d="M23.76,77.19c-.06-.33-.35-.63-.36-.97-.05-1.67-1.12-3.97.49-5.08-.15,2.05,1.01,4.12-.13,6.04Z"/>
        <path class="cls-100" d="M23.36,46.07l.05,1.23c0,1.18-.76,2.5-1.87,2.96-.74.57-1.57.67-2.47.23-2.16-1.46-1.8-4.23,1.18-4.01,1.03-.11,2.07-.4,3.11-.41Z"/>
      </g>
    </g>
    <g id="head">
      <path class="cls-90" d="M44.62,6.88c.13.35.74,1.3.59,1.93s-.37,2.64-.5,3.11-.16,1.09-.13,1.76.32,1.63,0,1.69-.64.35-.96.06-.67.67-.8.83-.16,2.14-.41,2.52-.57,1.53-1.12,1.63-1.37.35-2.04.35-1.72-.16-2.01-.16-.31.73-.44,1.08-1.12,1.31-2.05.99-2.68-.96-3.13-1.47-1.44-2.17-1.53-2.74.35-2.2.48-3.03-.41-1.79-.48-2.87-.13-2.84.83-4.37,1.37-4.76,3.13-4.85,4.82-.77,6.1-.03,4.47,3.57,4.47,3.57Z"/>
      <path class="cls-10" d="M42.2,4.82c1.47.03,2.11,1.96.96,2.86,1.09,1.17-1.81,4.04-3.35,4.17-.06,2.8-1.43,2.83-2.41.25-1.58-1.05-3.04-1.13-4.38-.24-.28.87-.62.86-1,0-1.08,1.05-1.8.42-2-1v-1c-.33-2.52.49-6.11,2.65-7.95-.74-.56-.66-.95.25-1.17L35.03.02c4.2,1.11,6.58,2.71,7.16,4.81Z"/>
      <path class="cls-77" d="M41.13,0c.92,1.25,1.7,2.58,2.53,3.88-.04,1.01-.53,1.33-1.46.94-1.1-1.05-2.5-2.01-4.41-1.39-1.41-.79-2.29-2.09-2.75-3.42,2.03.16,4.06.17,6.1-.02Z"/>
      <path class="cls-91" d="M43.99,9.79c-.36,1.43-1,2.21-1.92,2.34-.11.89-.4.9-.86.08-.7,1.82-1.46,1.61-1.41-.35l3.35-4.17c-.26-1.92.48-2.24,1.68-.71.05.6.88,1.19.38,1.83-.35.45-.76.76-1.22.98Z"/>
      <path class="cls-59" d="M43.72,13.11c-.07.63.22,1.29.2,1.92-.02,1.01-1.53,1.29-1.87,1.91-.69,1.6-1.12,1.68-1.37-.14-3.11-.73-2.43-3.78.52-4.59l.86-.08c1.24-1.27,1.41-.65,1.65.99Z"/>
      <path class="cls-6" d="M43.66,3.88c.63,1,1.07,1.89,1.17,3.09-.55.27-1.11.51-1.68.71-.47-.9-.73-1.88-.96-2.86.46-.36.96-.65,1.46-.94Z"/>
      <path class="cls-108" d="M43.72,13.11c-.64-.16-1.22-.49-1.65-.99.24-1.05.9-1.95,1.92-2.34.07,1.12-.14,2.22-.27,3.32Z"/>
      <path class="cls-12" d="M30.01,9.87v1c1.04.31,1.08,1.27.79,2.15-.04.11-.32-1.88,1.21-1.15h1c.91.15.95.48.16,1,3.19.11,2.19,5.53-1.15,3.83-1.06,1.18-4.47,1.05-4.01-.83-.04-2.72.63-4.72,2-6Z"/>
      <path class="cls-37" d="M39.8,11.85l1.41.35c-.2,1.53-.7,3.04-.52,4.59-.24,2.27-2.09,1.25-3.66.14-3.7.54-3-4.99.35-3.91v-.93s2.42-.25,2.42-.25Z"/>
      <path class="cls-84" d="M32.65,1.92c-1.5,2.17-.39,6.3-2.65,7.95l-2,6c-.69-3.79,1.06-7.22,1.16-10.93,1.55-.82,1.69-3.06,3.48-3.02Z"/>
      <path class="cls-90" d="M37.38,12.11v.93c-1.25,2.01-2.78,1.19-4.22-.16l-.16-1c.04-.85-.19-1.78.04-2.46s1.12-.93,1.65-.16c.92,1.35,2.7,1.16,2.69,2.86Z"/>
      <path class="cls-3" d="M32.01,11.87c-.33.79-.7,1.58-1.8,2.07-.41-1.45-.2-2.23-.2-3.07.8-.02,1.68.19,2,1Z"/>
      <path class="cls-20" d="M32.01,16.71c1.93.09,1.92.86,0,1.29-.39.83-.73.78-1-.13-2.55,1.26-4.21,1.26-5,0v-1.03s2-.97,2-.97c1.04,1.11,2.59,1.15,4.01.83Z"/>
      <path class="cls-47" d="M37.03,16.94c1.22.09,2.45.05,3.66-.14l1.37.14-.94,3.19-1.01-.03c-1.61-.28-2.56-.41-4.11-.05-.4,1.9-2.29-.88-2.45-1.88-.25-1.59,2.25-3.33,3.48-1.23Z"/>
      <path class="cls-39" d="M37.38,13.03c-1.34.9-.98,2.58-.35,3.91-.76.37-1.6.89-1.94,1.64-.3.66.19,1.35.91,1.47.62-.76.95-.65,1.01.33l-.19,1.31c-.12,1.98-1.83,1.6-2.7.16-.99-.88-2.03-2.56-2.1-3.85v-1.29c1.35-.82,1.39-2.37,1.16-3.83,1.2-1.26,2.94-.79,4.21.16Z"/>
      <path class="cls-95" d="M40.1,20.1c-.85.86-2.07.78-3.1.28-.3-.14-.68-.27-1.01-.33.15-.51.82-2.17,1.48-2.04,1.14.23,2.11,1.35,2.63,2.09Z"/>
      <path class="cls-25" d="M42.27,11.83c.05-.21.44-.3.88-.2s.73.42.71.56c-.03.16-.44.3-.88.2s-.76-.35-.71-.56Z"/>
      <circle cx="43.42" cy="12.06" r=".23"/>
      <path class="cls-25" d="M43.61,12.08c0,.06-.05.1-.1.1-.04,0-.08-.03-.08-.07.04,0,.07-.04.07-.08,0-.01,0-.02-.01-.03,0,0,.01-.01.02-.01.05,0,.1.04.1.09Z"/>
    </g>
    <g id="body">
      <g>
        <path class="cls-52" d="M43.82,29.09c-.36-.81-2.55-3.38-3.45-4.21s-2.36-2.49-3.45-2.62-3.19-.06-3.45.64.19,4.53.13,6.13-.83,8.23-1.6,9.26-1.4,3.13-1.4,4.91.58,5.61.35,6.67-.29,2.78.48,3.68,3.7,2.23,4.09,2.11.51-2.49.51-3.13-.51-4.28-.19-5.49.83-5.55,1.28-5.81,2.04-1.47,2.55-2.17,3-3.51,3.7-4.72,1.28-3.38.45-5.23Z"/>
        <path class="cls-52" d="M44.24,29.65l-.24,1.47c.29,1.91-.35,3.5-2.48,3.11.79.49.61.7-.4.64-.73.52-1.8,1.21-2.22.38-.64-1.26-1.08-6.12,1.23-5.38-.45-1.16-.49-2.16-.12-3,.4.07.87-.12,1.26-.01,1.39.38,2.21,1.65,2.97,2.79Z"/>
        <path class="cls-48" d="M41.53,36.4c-.29.79-1.61,1.08-2.99.61-1.03-.79-1.88-2.17-2.54-4.14-.39-.23-.66-.89-.8-2-1.73-.61-2.09-2.12-1.57-3.49.22-.59.61-1.16,1.12-1.62.26-.24.56-.45.89-.63.09-.04.18-.08.28-.13-.75-2.06,1.03-2.75,2.34-1.12.37.61.66,1.27.74,1.99.29.88.55,1.74.77,2.58.13.48.24.95.35,1.42-.24,1.5-.67,2.88-.59,4.92.59.24,1.15.03,1.58.09.24.31.39.6.45.87.06.24.05.46-.03.65Z"/>
        <path class="cls-113" d="M36.81,21.69c.54.69,1,1.44,1.45,2.19l-2.33,1.12c-1.12.56-1.72.16-1.82-1.13-1.14.02-.7-1.25,0-2.02.9.01,1.81-.03,2.7-.16Z"/>
        <path class="cls-60" d="M40.01,26.87c.71.92,1.23,2.22.12,3-.97-1.26-2.9-2.74-1.12-4,.39.28.71.63,1,1Z"/>
        <path class="cls-106" d="M32.98,54.05c.07-1.61-.11-3.59-.9-5.02-.98.02-.86-1.45-.08-2.17.29-.9,1.37-1.47,1.45-1.18.58,2.12-1.63-.15,1.55-.82-.66-1.74-.3-3.32,1.39-2-.25,3.96-.13,7.96-.95,12.04-1.49-.13-1.95-.64-2.46-.86Z"/>
        <path class="cls-78" d="M38.54,37.01l-.11.93c1.51.67,1.48,2.2-.43,1.93-.07.29-.06.71,0,1h-1c-1.78,1.29-1.85-.2-1-2-1.89-.23-.79-4.52,0-6,.63-.12.96-.72,1.88-1.04.2,2.2.2,3.65.65,5.18Z"/>
        <path class="cls-70" d="M37.01,40.87c.4.65-.58,1.47-.61,2-1.17.14-1.03,1.19-1.39,2-2.75,1.43-1.3-6.82,1-6,0,.8.62,1.38,1,2Z"/>
        <path class="cls-19" d="M36,38.87c-1.34,1.52-3.05,4.6-1,6l-1.08,2.45c-.42.97-1.25-.2-1.92-.45-.08-.2-.14-.42-.16-.64-.05-.34,0-.71.09-1.05.16-.59.53-1.11,1.07-1.31-.37-.52-.65-1.01-.86-1.47-.74-1.65-.46-2.96.83-3.93.28-.22.61-.42.99-.6.38-2.38,1.17-4.56,1.24-7,.81.29.8,1.27.8,2v6Z"/>
        <path class="cls-107" d="M32,46.87c-.11.53-.02,1.64.08,2.17-.36.3-.73.58-1.12.83-.09-2.12.16-4.23.83-6.25.05-.19.08-.37.09-.53.06-.33.15-.56.26-.69.31-.42.72.1.86,1.47-.15.94-.47,1.82-.86,2.67-.04.11-.09.22-.14.33Z"/>
      </g>
      <g id="shirt">
        <path class="cls-103" d="M31.93,45.18c-.01.34-.04.69-.09,1.05-.06.37-.13.74-.21,1.11h0c-.07.35-.16.68-.24,1.01-.1.39-.21.76-.31,1.12-.04.14-.08.27-.12.4,1.12,3.7-7.01,3.18-8.96,3-.37.45-.87.86-1.38,1.04-.71.27-1.42.11-1.75-.94-.94.46-1.54.57-1.77.41-.07-.04-.11-.11-.1-.21.01-.14.1-.34.27-.57,0,0,0-.01,0-.01.19-.25.47-.53.84-.86l1.1-1.99c.27.06.53.1.79.14,3.04.45,5.3-.27,6.79-2.17-3.06-1.33.2-3.61,2.21-4.37.19-2.17,1.88-1.48,2.79.28.13.47.16.99.14,1.56Z"/>
        <path class="cls-25" d="M33.63,27.38c-1.77,1.2-5.04,1.13-5.63-1.51-.08.51-.19.89-.33,1.15.39.47.15.83-.63.9-.01.23-.5.61-1.49.98,1.26,1.43.67,3.48-1.33,2.42.09,1.31-.23,2.56-1.22,3.55.85,1.53.58,1.95-1,1-.08.3.13.73,0,1-.83,1.79-1.53,3.66-3,5-.42.39-.79,1.48-1,2,2.79.78,2.9,4.18.08,5,1.02.29,1.66.64,1.92,1.01,3.04.45,5.3-.27,6.79-2.17-3.06-1.33.2-3.61,2.21-4.37.19-2.17,1.88-1.48,2.79.28.02-.2.05-.38.09-.53.07-1.86-2.59-2.19-2.74-4.11,1.31.11,2.65.03,3.83-.51.28-.22.61-.42.99-.6.38-2.38,1.17-4.56,1.24-7-1.73-.61-2.09-2.12-1.57-3.49ZM25,43.87c-.45-.91.2-2.26,1.35-2.01.62.13,1.22.98,1.65,1.59-.98.23-1.99.36-3,.42Z"/>
        <path class="cls-22" d="M28,43.45c-.98.23-1.99.36-3,.42-.45-.91.2-2.26,1.35-2.01.62.13,1.22.98,1.65,1.59Z"/>
        <path class="cls-31" d="M33.96,37.87l-.96,6-1.21-.25c.05-.19.08-.37.09-.53.07-1.86-2.59-2.19-2.74-4.11,1.31.11,2.65.03,3.83-.51.35-.16.68-.36.99-.6Z"/>
      </g>
      <g>
        <path class="cls-51" d="M33.82,16.84c-.9-.32-9.98.19-11.54.51s-6.79.83-7.16,1.21-.88.96.02,1.31,6.5.48,7.69,1.37,1.74,3.45.46,4.4c-1.28.96-4.4,4.21-6.42,4.72-2.02.51-3.67,1.09-4.77,1.79s-2.2,3.51-2.29,4.72,0,9.26-.09,10.85-1.38,8.3-1.56,8.87,2.2,1.47,3.4,1.02,5.23-1.21,6.88-1.09,5.78-.06,5.96-.89,2.2-4.21,1.93-5.87-.92-4.79-.92-5.68,2.23-6.61,2.68-7.23,4.39-3.5,4.76-4.07,2.32-3.44,2.49-4.88-.29-9.03-.74-9.35-.76-1.72-.76-1.72Z"/>
        <path class="cls-118" d="M33.82,16.84c1.26.29,0,1.03,0,1.03l.54,2.37s-4.59,1.99-6.29,1.63c-1.94,1.32-2.44.75-1.44-1-2.79-1.44-2.24-2.77,1.65-3.99l5.53-.04Z"/>
        <path class="cls-86" d="M19.45,17.87c3.9.15,5.82.82,5.75,2,.14,1.97-5.22,1.01-7.19,0-.41.87-.89.86-1.44,0-.41.87-.89.86-1.44,0,.48-1.36,2.36-2.08,4.31-2Z"/>
        <path class="cls-36" d="M26.64,20.87c-1.79,1.01-2.52.5-1.44-1l-5.75-2c3.03.13,6.14.05,8.84-.99l-1.65,3.99Z"/>
        <path class="cls-85" d="M19.16,32.79c2,1.25,1.49,3.13-1.54,5.63.38,2.36-.06,4.21-1.29,5.55,1.82,1.11,1.69,3.12-.39,6.02.71,2.9.05,6.38-4.67,3.68-2.12-4.72-1.45-10.77-.44-15.81-.28-2.41,1.3-4.62,1.44-7,1.74-.97,4.83-.34,5.88-1.89.5.02,1.04.12,1.53.2,5.42,1.81,3.61,2.54-.51,3.61Z"/>
        <path class="cls-51" d="M33.18,28.9c1.81,1.43.96,3.48-1.91,2.42-.68.1-1.27.18-1.51.12-.36,1.13-1.02,2.51-2.14,3.1-.6.32-1.35.41-2.24.09-.22,1.12-.83,1.61-1.57,1.42-.46-.11-.98-.48-1.47-1.12-.91.15-1.55.09-2.01-.12-.59-.28-.89-.8-1.06-1.47,0-.03,0-.06-.01-.08,0-.15-.03-.31-.09-.47-2.54-.03-2.98-.64-.46-1.21,1.41-.43,2.08-.93,1.74-1.55-.16-.27-.56-.58-.76-.84,3.13-.35,5.89-1.16,8.28-2.45.4-.38.93-.68,1.55-.87,1.37.14,2.93.75,3.45,1.92,1.58-.23,2.37-.13,2.36.13-.01.23-.72.61-2.14.98Z"/>
        <path class="cls-72" d="M27.96,26.74c.11,1.58-1.24,2.67-3.67,2.87-1.38.11-3.06-.16-4.62-.42.22-2.36,5.63-1.83,8.29-2.45Z"/>
        <path class="cls-72" d="M35.32,27.92c-.58.05-1.38.01-2.36-.13-.76.02-1.51,0-2.31-.17-.46-.08-.76-.26-.95-.49-.29-.33-.32-.79-.19-1.26.17-.64-.09-1.34,0-2,1.91-.97,3.38-.86,4.11-.08.5.5.68,1.3.46,2.26,1.09.33,1.8.67,2.14.97.56.47.22.83-.91.9Z"/>
        <path class="cls-71" d="M11.27,53.68c3.89,1.02,3.23,3.1-.89,3.39l-1.12-1.23.13-11.96c.02-2.06-.86-4.39,1.44-6,.17,5.27-.43,10.56.44,15.81Z"/>
        <path class="cls-65" d="M22.34,34.92l1.58.95-5.43,7.87-2.17.22c.62-1.99-2.76-4.43-.84-6.7,1.39-1.65,4.37-2.61,3.68-4.48.99-.02,2.21.09,2.79.75.35.39.36.94.39,1.39Z"/>
        <path class="cls-109" d="M25.37,34.63c2.31-1.1,3.04-.5,1.37,1.08.39,1.3-1.4,3.28-2.97,4.16-.9,2.11-2.38,3.39-4.43,3.84l-.84.03c.06-3.15,2.62-5.83,3.85-8.82,1-.14,2-.28,3.03-.29Z"/>
        <path class="cls-32" d="M29.51,34.87c1.22,1.53.83,1.95-1.44,1-.5.84-.95.76-1.34-.15l-1.37-1.09c1.52-1.99,4.07-3.41,4.83-5.81,1.19,1.24,0,2.01,1.06,2.5.13,1.31-.33,2.56-1.75,3.55Z"/>
        <path class="cls-13" d="M22.48,51.73c-.03.36-.09.96.35,1.18.16.09.4.13.75.06l-2.27,3.87-2.07.06-2.43-3.74c1.37-1.61,5.29-2.09,4-4.01-.91-1.84.17-2.02,1.64-.28,1.47.29,2.39.64,2.76,1.01.68.62-.23,1.3-2.72,1.85Z"/>
        <path class="cls-88" d="M22.44,48.87l-1.64.28c-.37.07-.81-.05-1.21-.03-.55.08-.92.05-1.09-.1-.09-.06-.14-.14-.14-.25-.06-.37.3-1,1.09-1.9-.07-1.05-.16-2.1-.12-3.15,1.06-1.51,2.21-3.07,4.43-3.85,1.22-.03,1.22.63,0,2-.6.39-1.14,1.48-1.44,2,4.01.78,4.17,4.18.12,5Z"/>
        <path class="cls-45" d="M19.6,49.11c-.8.55-1.17,1.59-3.01,1.72-.21-2.26,1.61-3.04,2.86-3.96l.15,2.24Z"/>
        <path class="cls-2" d="M28.07,36.87c-1.19,1.79-2.2,3.66-4.31,5v-2c-.19-1.69.99-3.19,2.98-4.15l1.34.15c-.12.3.19.73,0,1Z"/>
      </g>
    </g>
    <g id="front-arm-assembly">
      <g id="front-arm">
        <path class="cls-8" d="M51.29,23.73c-1.53-.38-4.4-1.72-5.74-1.53-1.34.19-9.83.06-11.3-.57s-9.32-1.53-10.66-1.53-6.96-.96-8.04-.96-4.47,1.79-4.34,3-2.11,7.85,1.09,8.62c3.19.77,5.62.57,6.83.13,1.21-.45,6.13-.32,6.89-.26s5.74-.06,6.57-.45c.83-.38,3.32-1.66,4.85-1.21s6.71.73,8.4.87,5.26.82,6.51-.54c1.25-1.36-1.05-5.57-1.05-5.57Z"/>
        <path class="cls-8" d="M61.22,24.54c-.92-.06-6.96-.22-8.07-.32-1.11-.1-5.93-.68-7.22-.18s-2.78,1.25-3.19,2.23-1.76,1.52-.42,2.75,4.28,1.69,5.25,1.76,8.31-.31,9.95-.44c1.65-.12,5.41-.96,6.11-1s1.12-.39,1.05-1.19-.94-2.61-1.4-2.96-2.06-.65-2.06-.65Z"/>
        <path class="cls-73" d="M44.08,22.97c-1.6.13-3.77,1.02-4.79,1.28-1.02.26-3.38,1.02-2.36,1.34s2.49.13,3.7.57c1.21.45,1.47,1.34,3,1.34s3.32-1.28,2.74-2.3-2.3-2.23-2.3-2.23Z"/>
        <path class="cls-14" d="M48.66,22l1.01.45c1.14,1.1,8.4,2.89,8.4,2.89l2.12.47s.79-.71.98.22c.62,1.08.97,1.89-.43,1.95-.04,1.87-.45,2.07-1.24.61-1.6,1.01-3.66,1.39-6.16,1.14-.66.63-.99.48-.99-.43-3.29.58-5.92-.04-7.87-1.87-.57-.79-.62-2.12-.14-3.98.82-1.46,2.94-1.3,4.34-1.46Z"/>
        <g>
          <path class="cls-105" d="M15.1,26.11c1.14.96,3.61,3.6,5.26,4s4.35-.29,5.68-.28c1.34,0,4.37.06,6.01-.66,1.64-.72,4.15-2.24,3.75-2.96s-3.12-4.25-5.43-4.59c-2.31-.34-9.46-.91-10.89-.59s-3.66.78-4.04,1.8-.33,3.28-.33,3.28Z"/>
          <path class="cls-105" d="M20.55,29.71c-2.21-4.56,1.46-4.38,4.01-1.37.79-.5,1.07-.26.88.68-1.19-.15-2.36.76-3.09,1.58l-.9-.44-.9-.44Z"/>
          <path class="cls-57" d="M16.63,27.07l-.46-1.34c-.15-.45-.23-.92-.46-1.34l.88-1.8,1.86,1.13c.6,1.02,2.07,2.2,4.42,3.52l-1.75,2.02-4.49-2.2Z"/>
          <path class="cls-73" d="M30.79,24.71c.82-1.26,1.8-.64,2.16.73l-2.95,3.17c-1.25-1.04.33-2.75.8-3.9Z"/>
          <path class="cls-8" d="M18.45,23.73c2.83,1.72,6.75,1.19,7.58,4.61-.8-.45-1.98-1.39-2.87-.74-.67.5-.82,1.5-1.15,2.11l-.9-.44c.88-3.09-5.03-3.36-2.66-5.54Z"/>
        </g>
        <path class="cls-79" d="M44.32,27.45c2.64.55,5.28,1.13,7.87,1.87.15,2.27-3.3,3.92-4.4.95-.48.18-1.42-.35-1.95-.43-1.42-.24-4.95-.52-3.79-2.59.65-.12,1.62.07,2.27.2Z"/>
        <path class="cls-105" d="M12.23,29.41c-.57-.77-.57-3.13-.13-4.34s2.87-4.21,4.91-4.15c2.04.06.51-1.21-.45-1.28-.96-.06-5.36,1.72-5.36,2.49s-.38,5.49-.32,6,1.34,1.28,1.34,1.28Z"/>
      </g>
      <g id="front-glove">
        <path class="cls-1" d="M72.89,26.47c-.63.7-.95.58-.96-.36-.44.78-.69.68-.79-.25-1.16.05-2.49,0-1.52-.82-1.76.72-3.01.7-3.75-.06-1,2.08-2.39,2.13-4.25,1.05l-.98-.22c-1.51-.31-1.14-2.05.43-1.95,1.28-1.08,3.07-.28,4.62-.64.64-1.2,2.32-1.64,5.03-1.31l.95.34c1.48.9,2.01,2.67,1.22,4.22Z"/>
        <path class="cls-18" d="M66.06,29.06c-.19.48-.38.83-.57,1.05-.55.63-1.05.2-1.24-1.27-1.38-.32-1.34-2.1-2.63-2.82.89-1.5,2.7-1.6,4.25-1.05,1.54-.08,2.01,0,1.72.58-.15.29-.47.68-.95,1.25.22.11.42.2.6.31,1.94,1.07,1.37,1.75-1.16,1.95Z"/>
        <path class="cls-63" d="M71.14,25.85c-.43,1.28-1.93,1.6-4.51.94-.63-.38-.88-1.12-.76-1.82,1.6-.12,3.34-1.59,4.65-.94.53.26.66,1.13.62,1.82Z"/>
        <path class="cls-28" d="M71.93,26.11c-.04,1.41-.87,2.16-2.05,1.85-1.21-.31-2.28-.58-3.25-1.16,1.35-.89,3.08-.26,4.51-.94l.79.25Z"/>
        <path class="cls-29" d="M72.68,30.42c-.23.62-.76,1.07-1.44,1.34-1.99.79-5.17,0-5.17-2.7l.56-2.26c.16.05.32.08.49.12.22.05.45.09.66.12.79.11,1.54.1,2.23-.07.02,0,.03,0,.06-.02.43-.08.84-.23,1.23-.44.22-.11.44-.24.65-.4.32.1.62.28.96.36l-.44,1.97c.26.53.36,1,.34,1.42,0,.21-.05.4-.12.57Z"/>
      </g>
    </g>
  </g>
</svg>