<?xml version="1.0" encoding="UTF-8"?>
<svg id="Enemy" xmlns="http://www.w3.org/2000/svg" viewBox="0 0 58.44 131.49">
  <defs>
    <style>
      .cls-1 {
        fill: #0d60ad;
      }

      .cls-2 {
        fill: #551311;
      }

      .cls-3 {
        fill: #562e24;
      }

      .cls-4 {
        fill: #292828;
      }

      .cls-5 {
        fill: #dda785;
      }

      .cls-6 {
        fill: #26140e;
      }

      .cls-7 {
        fill: #6f0a0b;
      }

      .cls-8 {
        fill: #d09677;
      }

      .cls-9 {
        fill: #fcd5b6;
      }

      .cls-10 {
        fill: #401a0e;
      }

      .cls-11 {
        fill: #e9a68c;
      }

      .cls-12 {
        fill: #411008;
      }

      .cls-13 {
        fill: #6a1012;
      }

      .cls-14 {
        fill: #f3c89f;
      }

      .cls-15 {
        fill: #250a0a;
      }

      .cls-16 {
        fill: #4e1216;
      }

      .cls-17 {
        fill: #5c554e;
      }

      .cls-18 {
        fill: #1563be;
      }

      .cls-19 {
        fill: #680709;
      }

      .cls-20 {
        fill: #644137;
      }

      .cls-21 {
        fill: #342c28;
      }

      .cls-22 {
        fill: #989a97;
      }

      .cls-23 {
        fill: #361111;
      }

      .cls-24 {
        fill: #16100b;
      }

      .cls-25 {
        fill: #fff;
      }

      .cls-26 {
        fill: #351112;
      }

      .cls-27 {
        fill: #817b77;
      }

      .cls-28 {
        fill: #348ce6;
      }

      .cls-29 {
        fill: #093c79;
      }

      .cls-30 {
        fill: #29456e;
      }

      .cls-31 {
        fill: #8d9896;
      }

      .cls-32 {
        fill: #811210;
      }

      .cls-33 {
        fill: #6d635d;
      }

      .cls-34 {
        fill: #8b7f78;
      }

      .cls-35 {
        fill: #5e564f;
      }

      .cls-36 {
        fill: #302322;
      }

      .cls-37 {
        fill: #f5ceb5;
      }

      .cls-38 {
        fill: #464039;
      }

      .cls-39 {
        fill: #e0af97;
      }

      .cls-40 {
        fill: #cf967c;
      }

      .cls-41 {
        fill: #2b2725;
      }

      .cls-42 {
        fill: #250203;
      }

      .cls-43 {
        fill: #e8ac8f;
      }

      .cls-44 {
        fill: #413d3b;
      }

      .cls-45 {
        fill: #5c0509;
      }

      .cls-46 {
        fill: #312c28;
      }

      .cls-47 {
        fill: #dda48a;
      }

      .cls-48 {
        fill: #6a0403;
      }

      .cls-49 {
        fill: #fbd7ba;
      }

      .cls-50 {
        fill: #3f5278;
      }

      .cls-51 {
        fill: #5a0405;
      }

      .cls-52 {
        fill: #490703;
      }

      .cls-53 {
        fill: #212020;
      }

      .cls-54 {
        fill: #25211d;
      }

      .cls-55 {
        fill: #312b27;
      }

      .cls-56 {
        fill: #2e1111;
      }

      .cls-57 {
        fill: #ccb5af;
      }

      .cls-58 {
        fill: #52100f;
      }

      .cls-59 {
        fill: #c79686;
      }

      .cls-60 {
        fill: #601417;
      }

      .cls-61 {
        fill: #9f8790;
      }

      .cls-62 {
        fill: #bfb5b3;
      }

      .cls-63 {
        fill: #946f5f;
      }

      .cls-64 {
        fill: #0b80f2;
      }

      .cls-65 {
        fill: #a77566;
      }

      .cls-66 {
        fill: #420202;
      }

      .cls-67 {
        fill: #ac8d78;
      }

      .cls-68 {
        fill: #4a0c0e;
      }

      .cls-69 {
        fill: #f1b9a2;
      }

      .cls-70 {
        fill: #947565;
      }

      .cls-71 {
        fill: #9e1c21;
      }

      .cls-72 {
        fill: #2a1b1b;
      }

      .cls-73 {
        fill: #441315;
      }

      .cls-74 {
        fill: #be9d84;
      }

      .cls-75 {
        fill: #750506;
      }

      .cls-76 {
        fill: #8e8177;
      }

      .cls-77 {
        fill: #42403e;
      }

      .cls-78 {
        fill: #411f15;
      }

      .cls-79 {
        fill: #af1415;
      }

      .cls-80 {
        fill: #b08a78;
      }

      .cls-81 {
        fill: #3b3835;
      }

      .cls-82 {
        fill: #4c0b0d;
      }

      .cls-83 {
        fill: #381110;
      }

      .cls-84 {
        fill: #510707;
      }

      .cls-85 {
        fill: #311f1a;
      }

      .cls-86 {
        fill: #290303;
      }

      .cls-87 {
        fill: #544a47;
      }

      .cls-88 {
        fill: #0b0b0b;
      }

      .cls-89 {
        fill: #3c0405;
      }

      .cls-90 {
        fill: #1f1d33;
      }

      .cls-91 {
        fill: #865643;
      }

      .cls-92 {
        fill: #e7b2a2;
      }

      .cls-93 {
        fill: #6e0a0c;
      }

      .cls-94 {
        fill: #ad8d7d;
      }

      .cls-95 {
        fill: #38312c;
      }

      .cls-96 {
        fill: #866252;
      }

      .cls-97 {
        fill: #460506;
      }

      .cls-98 {
        fill: #0a0a09;
      }

      .cls-99 {
        fill: #453e3c;
      }

      .cls-100 {
        fill: #504740;
      }

      .cls-101 {
        fill: #550404;
      }

      .cls-102 {
        fill: #341f1e;
      }

      .cls-103 {
        fill: #400405;
      }

      .cls-104 {
        fill: #aea6a5;
      }

      .cls-105 {
        fill: #5f0706;
      }

      .cls-106 {
        fill: #734935;
      }

      .cls-107 {
        fill: #520706;
      }

      .cls-108 {
        fill: #48191a;
      }

      .cls-109 {
        fill: #8e6254;
      }

      .cls-110 {
        fill: #680e0e;
      }

      .cls-111 {
        fill: #1b1610;
      }

      .cls-112 {
        fill: #6a5e55;
      }

      .cls-113 {
        fill: #500e0e;
      }

      .cls-114 {
        fill: #531a17;
      }

      .cls-115 {
        fill: #4d453f;
      }

      .cls-116 {
        fill: #360d0d;
      }

      .cls-117 {
        fill: #3e1010;
      }

      .cls-118 {
        fill: #96887d;
      }

      .cls-119 {
        fill: #3d1422;
      }
    </style>
  </defs>
  <g id="JammingJabber_walk_1">
    <g id="back-arm-assembly">
      <g id="back-glove">
        <path class="cls-30" d="M54.79,30.47l-.09,1.96c-.46,1.37-1.14,2.06-2.03,2.07-.29.87-.62.86-1,0-1.26-.25-1.35-1.83-.98-3.01-1.76.53-2.06-.74-1.07-2.08,1.48-2.29,3.44,1.02,5.18,1.07Z"/>
        <path class="cls-90" d="M53.82,37.51c-.34.38-.71.73-1.07,1.08-2.76.31-2.38-1.11-.1-2.09-2.17-.11-1.84-1.07.01-2,.34-.97,1.03-1.78,2.03-2.07-.08,1.72-.63,3.38-.87,5.08Z"/>
        <path class="cls-90" d="M50.68,31.49c.55.84.07,1.95-1.01,1.99-.44,1.73-.78,2.69-2.01.99-1-1.22.06-2.46.62-3.77.25-.59,1-.8,1.32-1.29.66.5,1,1.27,1.07,2.08Z"/>
        <path class="cls-50" d="M52.65,36.51l.1,2.09c-.28.27-.45.95-.84,1.07-.6,1.85-1.08,2.66-2.43.96-.49,2.67-1.45,2.48-1.8-.23-.09-.85.29-1.76.13-2.59.58-1.44,1.19-1.54,1.84-.31.35-1.56,2.06-2.48,3.01-.98Z"/>
        <path class="cls-50" d="M51.66,34.5c.94,1.49-.78,2.03-2.01.99-1.57-.13-1.11-1.05.01-2,0-.79.1-1.78,1.01-1.99.92.72,1.09,1.9.98,3.01Z"/>
        <path class="cls-30" d="M52.65,36.51c-1.04.14-2.13.37-3.01.98-1.43-.04-1.36-1.59.01-2,.75-.13,1.46-.45,2.01-.99h1s-.01,2.01-.01,2.01Z"/>
        <path class="cls-50" d="M49.66,35.49v2c-.34.23-.47.92-.96.75-.38-.13-.67-.26-.89-.44-.19-.96.18-2.47-.15-3.32l2.01-.99v2Z"/>
      </g>
      <g id="back-arm">
        <path class="cls-70" d="M36.05,40.95c-.03.67,1.18,2.59,1.37,2.88s2.42,3.08,2.9,3.7,3.19,3.42,3.52,3.8,3.44,1.26,4.16.46,3.24-5.15,3.48-5.77.93-3.92.94-4.54-.13-2.2-.42-2.49-1.91-.35-2.54-.35-1.77.56-1.82.9-.25,2.34-.64,2.34-.96-.34-1.24-.82-.94-2.78-1.37-3.93-1.12-4.75-1.74-4.89-3.75,2.99-4.57,3.56-1.93,2.43-2.04,5.16Z"/>
        <path class="cls-65" d="M51.9,45.72c-.23,1.87-1.51,3.27-2.38,4.83-1.13.6-1.6.1-.93-.98-2.57-1.16-.68-5.58,2.02-5.07.31-.87.67-.85,1.06.01,0,.39.28.82.23,1.21Z"/>
        <path class="cls-63" d="M51.67,44.5h-1.06c-2.59.14-2.9-2.54-1.13-3.89.79-.36,1.59-.71,2.43-.96-.19,1.61-.27,3.23-.24,4.84Z"/>
        <path class="cls-43" d="M49.48,40.62c.43,1.28.91,2.54,1.13,3.88l-2.02,5.07c.48,2.51-3.38,4.04-3.85,1.05-2.7-1.1-1.73-4.59,1.11-4.5-.46-1.49-.1-3.46.62-4.71-.32-.99.37-1.27,1.21-1.01.5.16,1.3.24,1.8.23Z"/>
        <path class="cls-40" d="M46.47,41.41c1.57,1.54-.21,3.04-.62,4.71-.86.34-1.12.08-.79-.78-1.85-2.12-1.89-3.32-.11-3.6-.49-.4-.41-.73.19-.99l1.33.66Z"/>
        <path class="cls-62" d="M42.68,31.7c.6,1.14.99,2.45.98,3.76-.2,2.29-1.43,2.18-2.03-.05-.88,1.66-1.63,1.3-1.45-.61.45-1.31,1.2-2.53,2.5-3.1Z"/>
        <path class="cls-67" d="M43.66,35.45c0,1.88.65,3.62,1.48,5.29l-.19.99c-2.03,1.93-3.43-2.29-3.3-4.3-2.12-.02-2.02-1.39-.02-2.04l2.03.05Z"/>
        <path class="cls-69" d="M41.63,35.4l.02,2.04c.4.85.02,1.15-1.01.99.27,2.13-.77,1.95-2,.33-.66,1.78-1.4,1.59-1.57-.28-.85-.31-.79-.62.11-.93.98-.55,1.89-1.23,2.59-2.12.14-.19.33-.42.41-.64.52.11,1.02.3,1.45.61Z"/>
        <path class="cls-11" d="M45.05,45.34c.31.18.5.56.79.78l-1.11,4.5c-.01,1.11-.74,1.05-2.16-.17-1.08-1.25-2.5-2.54-.98-4.01-.86-.32-.81-.65.08-1-1.37-1.87-1.4-2.87-.1-3.02,1.26-1.43,2.42-.46,3.48,2.91Z"/>
        <path class="cls-70" d="M49.52,50.54c-.81,1.45-1.15,3.38-3.39,3.01-1.62-.27-2.53-1.92-3.56-3.11.63.24,1.57-.14,2.16.17,1.4.73,2.82.06,3.85-1.05.7-.25,1.16.32.93.98Z"/>
        <path class="cls-94" d="M41.67,45.44c.01.33-.09.67-.08,1h-2c-.65-1.81-2.57-3.09-2.97-5.03-.87-.25-.84-.58,0-1,1.85-1.05,4.35,2.96,5.04,5.03Z"/>
        <path class="cls-9" d="M44.94,41.74c-.23,1.19-.12,2.41.11,3.6-1.31-.77-2.1-2.24-3.48-2.91-1.41-1.53-1.72-2.86-.93-3.99.32-.35.65-.68,1.01-.99,1.42,1.26,1.66,3.37,3.3,4.3Z"/>
        <path class="cls-49" d="M38.64,38.76c1.29.53,2.26,1.75,2.93,3.66l.1,3.02-5.04-5.03.44-1.93,1.57.28Z"/>
        <path class="cls-5" d="M40.64,38.43c.35,1.32.89,2.62.93,3.99-1.51-.73-2.25-2.17-2.93-3.66l2-.33Z"/>
      </g>
    </g>
    <g id="back-leg-assembly">
      <g id="back-leg">
        <path class="cls-15" d="M33.63,101.23c1.33-.1,2.04-1.54,2.82-2.62.69-.97,1.6-1.76,2.41-2.62,4.19-4.42,5.95-10.76,5.76-16.86-.04-1.46-.2-2.94-.72-4.31-.44-1.16-1.14-2.19-1.78-3.25-1.23-2.04-2.29-4.17-3.34-6.31-.58-1.17-1.16-2.35-1.74-3.52-1-2.04-2.01-4.08-2.79-6.21-.12-.33-.24-.66-.46-.93-.35-.42-.89-.61-1.41-.78-5.98-1.95-12.17-3.21-18.42-3.92-1.1-.12-2.31-.2-3.19.47-.7.54-1.01,1.44-1.28,2.28-.99,3.07-1.98,6.18-2.2,9.4-.04.68-.04,1.41.33,1.98.52.79,1.56,1.02,2.49,1.18,3.41.58,6.82,1.16,10.23,1.74.25.04.52.09.71.26.2.17.29.43.37.67.77,2.36,1.38,4.77,1.83,7.21.15.83.29,1.67.69,2.41,1.32,2.43,5.1,3.12,5.66,5.83.4,1.93-1.26,3.79-3.14,4.39-.38.12-.78.21-1.08.47-.31.26-.47.65-.61,1.02-.74,1.96-1.34,3.98-1.79,6.03-.17.79-.32,1.63-.05,2.4.4,1.14,1.59,1.76,2.69,2.28,1.48.7,2.96,1.4,4.44,2.11l3.54-.79Z"/>
        <path class="cls-56" d="M43.71,82.15c.57,7.79-4.96,7.32-7.13,13.75-.22.64-.86,1.14-1.13,1.76-.44.81-.77.74-1.02-.17-2.96.35-3.16-1.09-.47-2.38-1.61-1.28,0-3.5,1.74-3.61.77-2.58,2.95-5.25,5.07-6.8-1.89-2.42-3.07-6.26.92-5.88.72.9,1.93,2.08,2.03,3.32Z"/>
        <path class="cls-103" d="M29.34,62.72c2.68-2.25,6.76,3.33,4.82,5.71,2.67,2.64,4.27,5.57,4.78,8.8-1.26-1.78-1-2.91.76-3.37-.99-2.44-.26-3.15,1.11-.94.53,1.8,2.59,3.53.88,5.9-2.68,3.72,4.04,5.31-.34,7.91-2.33,1.38-4,3.07-5.64,4.76l-1.36.31c1.53-3.21,2.11-6.06,1.74-8.52-.74.37-1.69.07-2.86-.91-2.11,1.23-5.08-3.37-3.1-4.79q1.53-1.22,0,0c-1.39,1.83-3.62-1.47-2.12-2.72q1.07-2.24,0,0c-1.26,1.36-2.77-.78-3.48-2.23-.68.69-1.82-.23-1.77-1.27-1.51-2.35-1.97-4.23-1.38-5.66,1.22-1.4,2.82.28,3.86,1.55-1.68-1.87-2.96-2.39-3.86-1.55-1.98,1.31-4.2.25-2.53-2.69-1.48.74-1.34.17-.73-1.32-.82-5.16,11.85-3.87,11.23,1.03Z"/>
        <path class="cls-103" d="M35.55,85.22l.83.89-3.16,7.7.74,1.3c-.35.87.06,1.64.47,2.38.54.98-.74,1.65-.96,2.42-2.17-.16-4.06-1.3-5.59-2.82-1.22-2.79.06-5.97,3.83-9.54.38-2.31,1.1-3.58,2.16-3.81.95-1.01,1.79.19,1.67,1.49Z"/>
        <path class="cls-68" d="M35.7,91.5c.09,1.2-1.18,2.62-1.74,3.61-5.83.34-.68-1.57,1.59-9.89-1-1.33-1.29-2.12.53-1.93,4.97,1.62-2.5,5.98-.37,8.21Z"/>
        <path class="cls-15" d="M27.99,74.86c.67.78,1.16,2.18,2.12,2.72.5,1.91,1.2,3.89,3.1,4.79,1.23-.16,1.51.41.67,1.35-.94,4.85-4.17,8.8-6,13.35l-.84.02c-1.01.3-2.22.65-2.68-.53-2.83-1.69-1-5.93,2.33-5.55-.5-1.67.49-3.6,2.95-5.78l-6.34-9.16.86-2.27c-1.19-.81-1.11-1.15.34-1.17,1.3.32,2.6,1.21,3.48,2.23Z"/>
        <path class="cls-93" d="M37.38,70.02c1.44,4.23-1.94,1.48-3.22-1.59-.67-2.52-2.5-3.99-4.82-5.71.91-.93,1.84-2.42,3.12-2.2,1.06.18,5.73,7.92,4.92,9.5Z"/>
        <path class="cls-84" d="M37.38,70.02c.87,1.02,1.89,2.45,2.32,3.84.48,1.54.2,3.46-1.17,4.37-.41-.91-.57-1.68-.62-2.11-.22-2-.66,1.04-2.53.92,2.03-3.55-.49-5.87-1.22-8.62.46.5,1.04.99,1.83,1.96.32.4.8.63,1.39-.37Z"/>
        <path class="cls-82" d="M21.37,65.71c-.84-1.58-.82-2.55,1.23-1.43,2.28.1,3.48,1.18,4.48,2.49.62.81.8,3.44-.77,3.25-2.51-.39-3.05-3.57-4.94-4.31Z"/>
        <path class="cls-113" d="M27.99,74.86c.03-2.61-.58-4.24.81-4.93,1.01,1.29,1.37,2.9,1.36,3.91,0,.69-1.6,1.42-2.17,1.02Z"/>
        <path class="cls-58" d="M30.11,77.58c-.2-1.3-.45-2.64.07-2.74,1.2-.22.85.91,1.46,1.01.85.13,1.49,1.47.77,1.84-1.01.52-1.75.44-2.3-.12Z"/>
        <path class="cls-16" d="M36.08,83.29l-.53,1.93c-.52-.52-1.35-.85-1.67-1.49l-.67-1.35c.11-.98,1-.41,1.43-.29.65.17.93,1.04,1.43,1.2Z"/>
        <path class="cls-83" d="M32.49,54.52c-.31.22-1.09.2-1.26.51-.97,1.77,2.93,3.85,2.97,4.96-3.5-.88-4.99-4.07-7.78-6.19-1.82,1.29-2.76.25-3.95-1.16-1.9,1.11-2.35.52-.66-.98-1.9-.44-1.64-1.21.39-1.17,1.71-.09,3.64.24,5.81.98.39-1.4,1.6-1.91,3.62-1.52.21-.57.66-.7,1.3-.51,2.9.86,2.21,4.46-.45,5.08Z"/>
        <path class="cls-7" d="M21.82,51.66c-.55.5.27.77.66.98-.44.55-.59,1.27-1.17,1.48-.91.33-1.7-.54-2.3-.37.11-.63.28-1.36.93-1.81.47-.32,1.23-.31,1.88-.28Z"/>
      </g>
      <g id="back-shoe">
        <path class="cls-88" d="M34.49,125.85c.43-1.27.86-2.71.22-3.89-.54-1-1.68-1.48-2.55-2.21-1.47-1.23-2.17-3.3-1.76-5.17.16-.73.48-1.41.72-2.12.27-.81.45-1.65.52-2.5.02-.24.04-.5.21-.67.18-.19.48-.2.72-.3.52-.21.77-.8.97-1.33.68-1.84,1.35-3.69,2.03-5.53.16-.44.32-.89.3-1.36-.02-.48-.23-.92-.5-1.32-.77-1.15-1.98-1.96-3.27-2.47s-2.67-.74-4.04-.95c-1.04-.16-2.09-.31-3.13-.45-.45-.06-.95-.1-1.31.17-.26.2-.39.52-.47.83-.53,1.96.23,4.07-.16,6.06-.39,2.04-1.92,3.7-2.4,5.72-.13.57-.18,1.16-.4,1.69-.27.66-.79,1.19-1.19,1.78-.42.64-.7,1.36-.98,2.07-.26.66-.51,1.32-.77,1.98-.64,1.65-1.28,3.31-1.61,5.05-.02.1-.04.21,0,.32.05.14.18.23.31.3,1.07.59,2.39.72,3.56.35.62-.2,1.22-.53,1.87-.55.37-.01.73.08,1.09.17.47.12.94.24,1.41.36.28.07.55.14.8.28.34.19.61.48.87.76,2.07,2.18,4.78,3.74,7.69,4.47l1.23-1.55Z"/>
        <path class="cls-41" d="M32.75,104.22c-.37.52-.37,1.37-.6,1.97-4.65,1.95-2.5-6.12,1.31-6.28-1.49-2.04-1.48-2.28.96-2.42l1.02.17c.5.69,1.38,1.93.71,3.02-.96,1.56-2.53,2.31-3.41,3.54Z"/>
        <path class="cls-81" d="M27.89,97.08c2.21-1.6,4.87.45,5.59,2.82-1.13,3.95-3.42,5.77-1.31,6.28-1.08,2.84-3.2,5.51-3.27,9.01-.04,1.77,1.48,3.09,1.29,4.58l-2.54.74c-.64-1.86-.88-3.39-.73-4.6-1.93-.35-1.47-3.22.11-3.78-1.04-.6-1.65-1.62-1.84-3.04-1.11-1.89-.39-3.45,1.25-4.73-.33-1.59-.3-3.28.1-5.07-1.6,1.17-2.04.42-.6-1.08-.28-1.33.09-1.7,1.11-1.11.16-.88.44-.87.84-.02Z"/>
        <path class="cls-33" d="M26.92,115.91c.65,1.62,1.59,3.21,3.26,3.86-.05.44-.14.89-.26,1.32-.19,1.11-.83,1.94-1.77,2.56-1.36,1.36-3.64-1.12-3.32-3.07-1.69-2.69-1.86-4.49-.53-5.4,1.39-2.41,2.45-1.97,2.62.73Z"/>
        <path class="cls-111" d="M34.94,125.47c-.27,1.38-1.72,2.5-3.36,1.67-1.43-.72-2.69-1.17-3.93-1.56-1.38-1.65-.77-2.19,1.04-.88,2.16-.29,3.93-.12,5.29.51l.96.26Z"/>
        <path class="cls-34" d="M33.98,125.21c-1.77.61-3.59.11-5.29-.51-.8-.42-.7-.71.24-.87.73.16,1.44.55,2.53.58.66.01,1.12-.77,1.13-1.65.81.58,1.32,1.46,1.4,2.46Z"/>
        <path class="cls-55" d="M22.14,111.62c3.61-2.08,3.91.07,1.09,2.63-.87,1.75-.26,3.37,1.82,4.85l-.22,1.48c.99,1.53,1.32,2.6-.65,2.97-.3-.19-.76-.11-1.08-.27-1.31-2.53-1.96.41-6.27-1-1.3-.43-.59-2.25-.86-3.19l.22-.72c.63-.26.73-.67.33-1.25.39-2.3,1.94-4.15,2.71-6.3.5-.77.82-.67.96.26.4.74,1.04.92,1.93.53Z"/>
        <path class="cls-115" d="M28.15,123.66l.78.17-.24.87c-.45-.16-.97.54-1.04.88-1.28-.4-2.35-1.34-3.47-2.03.02-1.02.19-2.04.65-2.97l3.32,3.07Z"/>
        <path class="cls-4" d="M26.44,104.36c.2.83.91,1.78.55,2.69-.32.81-1.39,1.24-1.81,2.04,2.33,2.49-2.5,3.94-3.49.33-.27-2.25.76-5.81,2.1-7.72,2.9-.84,4.04-.22,2.64,2.65Z"/>
        <path class="cls-53" d="M27.04,97.1c-.41.3-.68.84-1.11,1.11l.6,1.08c.89.38,1.76,1,1.65,2.13s-.83,2.2-1.74,2.94c-.44-1.25-1.38-2.23-2.64-2.65-.55.74-.86.62-.95-.32-2.83-.98-1.28-5.13,1.52-4.82.96-.31,2.14-.49,2.68.53Z"/>
        <path class="cls-77" d="M27.03,112.14c-.54,1.13-1.42,1.95-2.65,2.46-.38,1.91-1.13,1.68-1.15-.34-.12-.64.5-1.32.31-1.76-.21-.52-1.1-.7-1.41-.88-1.73,1.35-1.78-1.05-.44-2.19.72.23,1.44,1.21,2.24,1.18s.82-1.33,1.25-1.51c.55-.23,1.48.62,2.05.89.9.42-.22,1.56-.22,2.16Z"/>
        <path class="cls-27" d="M27.03,112.14c.01,1.26.09,2.53-.11,3.78-.84-.34-1.72-.56-2.62-.73-.86-.31-.83-.51.08-.59.14-.72.36-1.42.82-2.49.28-.65,1.02-.51,1.82.03Z"/>
        <path class="cls-88" d="M26.54,99.29c-.15.75-.26,1.7-1.04,1.88-.68.16-1.4-.76-1.56-1.22-.33-.97,3.39-2.61,1.99-1.74,0,.38.22.91.6,1.08Z"/>
        <path class="cls-38" d="M24.3,115.18c.18,1.64,1.16,2.74,3.06,4.33l-2.53,1.07c-2.07-1.91-5.21-3.1-5.7-6.47,1.97-.31,3.06.75,4.1.14l1.15.34c-.04.19-.1.4-.08.59Z"/>
        <path class="cls-44" d="M16.2,118.38c.13-.41.26-.83.33-1.25,1.65.57,3.14,1.69,4.44,3.18-2.47.18-3.32-1.39-4.78-1.93Z"/>
        <path class="cls-98" d="M21.7,109.43c-.2.75-.31,1.76.44,2.19.3.5-1.91,1.46-1.94,1.44-.58-.49-.17-1.63.01-1.97l2.64-9.7.95.32-2.1,7.72Z"/>
      </g>
    </g>
    <g id="front-leg-assembly">
      <g id="front-shoe">
        <path class="cls-24" d="M23.12,126.67c-.44-.93-.49-2-.57-3.02-.23-3.07-.79-6.12-1.65-9.08-.07-.25-.15-.51-.14-.77,0-.26.1-.51.19-.76.68-1.83,1.35-3.66,2.03-5.49.49-1.33.99-2.72.88-4.14-.03-.35-.09-.7.03-1.03.1-.26.3-.46.45-.69.25-.38.35-.85.29-1.29-.17-1.18-1.36-1.91-2.5-2.26-1.14-.35-2.38-.5-3.32-1.24-.25-.2-.49-.45-.81-.51-.22-.04-.45.01-.67.07-.83.21-1.66.43-2.49.64-.47.12-.97.26-1.25.65-.1.13-.16.28-.22.42-.5,1.27-.57,2.66-.62,4.02-.08,2.24-.1,4.47-.08,6.71,0,.32,0,.64-.07.95-.09.34-.27.64-.43.95-.68,1.38-.77,2.96-.85,4.49-.14,2.64-.29,5.29,0,7.92.28,2.63,1,5.26,2.47,7.46.13.19.26.38.44.51.32.24.75.27,1.14.3.92.06,1.84.12,2.76.17,1.06.07,2.17.13,3.15-.29.76-.32,1.37-.91,1.93-1.51.38-.4.76-.85.83-1.4s-.37-1.18-.91-1.11l.02-.69Z"/>
        <path class="cls-95" d="M17.17,116.97c.8.78,1.05,2.67-.19,3.16.06.72.87,1.19,2.45,1.42,1.27-.63,1.15,1.69.77,2.9-.1.76-.43.83-.97.26-.98,1.46-1.47,1.01-1.22-.71-1.05,1.86-1.68,1.96-1.89.3l-.8.12c-1.5-.84-2.54-2.65-2.52-4.27l-.21-.89c-.96-1.22-1.48-3.3-.07-4.28.29-.09.49-.6.89-.28.84-2.45,1.74-3,2.7-1.67,1.92-.61,1.88,2.43,1.06,3.95Z"/>
        <path class="cls-54" d="M14.38,102.21l2.27.48c.43,2.77.35,5.57-.23,8.38,1.73.24,1.5,2.22-.31,1.96-1.27.48-1.5,1.73-1.33,3.64-1.25-.13-1.13-1.23-1.37-1.97l-.19-1.83c-.92-.05-1-.37-.27-.97,1.09-1.61-.54-3.5-.32-5.09.83-6.21-2.2-4.18-.4-8.3,2.2-.32,3.42,1.89,2.16,3.71Z"/>
        <path class="cls-24" d="M15.32,124.41c-.41,2.03-1.29,1.68-2.65-1.06l-.59-1.75c.42-.32.54-1,.72-1.46,1.61.82,2.07,2.63,2.52,4.27Z"/>
        <path class="cls-35" d="M15.32,124.41c.27,0,.54-.07.8-.12,1.08.68.45,2.33-.23,3.37,1.7.06,3.16.36,4.38.9l.07-1.52c-1.7-.76-2.07-1.55-1.1-2.35l.97-.26c.05-.92.38-.99.97-.26.46.09.95.65,1.48,1.67-.35.89-.08,1.72.59,2.84l-5.75,1.78c-1.51.31-2.87-.38-3.44-2.33l-1.39-4.79c.75.64,1.66,1.05,2.65,1.06Z"/>
        <path class="cls-46" d="M19.74,115c2.76-1.18,4.05,3.63,1.51,4.97.1.33.03.72.1,1.06l-.19,3.16-.97.26-.77-2.9c-2.15.49-2.47-.9-.52-1.93-1.49.58-1.68-1.85-.77-2.9-.94-.96-1.01-2.2.45-2.19.78-.81,1.16-.65,1.15.47Z"/>
        <path class="cls-99" d="M18.59,114.53c.25.56-.62,1.57-.45,2.19-.05.92-.38.99-.97.26l-1.06-3.95c-.14-.52.73-1.31.31-1.96-.03-8.96,6.07-2.24,2.17,3.46Z"/>
        <path class="cls-112" d="M19.23,124.7c.64.58,1.19,1.29,1.62,2.13s.36,1.4-.59,1.74c-1.14-.26-2.28-.64-3.41-1.16-1.09-.53-.19-2.97,1.16-3.41.46-.07.91.42,1.22.71Z"/>
        <path class="cls-17" d="M18.14,116.72l.77,2.9c.35,1.46-1.2,1.87-1.93.52-.14-1.06-.37-2.17.19-3.16l.97-.26Z"/>
        <path class="cls-100" d="M18.91,119.62l.52,1.93c-.81.09-1.84.95-2.99.35-1.21-.63.6-1.27.54-1.76l1.93-.52Z"/>
        <path class="cls-76" d="M18.01,124l-1.16,3.41c-.08.83-.4.9-.97.26-.42-1.06.03-2.33.23-3.37l1.89-.3Z"/>
        <path class="cls-21" d="M17.17,101.39c1.04-2.79,2.47-2.72,3.25.15.92.04.99.36.26.95,1.23,1.44.88,2.86.32,4.15,3.84.5,2.21,7.64-1.26,8.36-.3-.32-.72-.48-1.15-.47l-.16-7.32c-.62,1.54-.59,3.09-2.01,3.86-1.97,1.67-.7-6.2-2.04-8.86,1.02.25,2.02-.12,2.78-.82Z"/>
        <path class="cls-112" d="M22.65,125.86c-1,.06-1.21-.93-1.48-1.67-.38-1.06-.49-2.19.19-3.16l1.29,4.83Z"/>
        <path class="cls-118" d="M20.26,128.57c-1.5.52-3.66.9-4.38-.9l.97-.26c.69-.18,1.4-.52,2.31-.49.74.03,1.08.85,1.11,1.65Z"/>
        <path class="cls-102" d="M20.99,106.64c-1.79-.57-.78-2.51-.32-4.15.65.15.76.94,2.04,1.7-.41-2.11.78-3.77,1.1-5.55,1.45,3.16-.21,5.99-2.82,8Z"/>
      </g>
      <g id="front-leg">
        <path class="cls-42" d="M13.44,99.33l2.25,2.06c.84.77,1.7,1.55,2.73,2s2.31.54,3.27-.07c.69-.44,1.13-1.17,1.55-1.88,1.19-2.02,2.37-4.03,3.56-6.05.93-1.58,1.87-3.19,2.42-4.94.19-.61.33-1.23.54-1.82.39-1.08,1.02-2.06,1.41-3.14,1.22-3.4-.1-7.1-.82-10.64-.37-1.81-.57-3.66-.62-5.51-.02-.78,0-1.56.14-2.33.43-2.14,1.91-3.89,3.34-5.54.26-.3.52-.6.87-.78.46-.24,1-.24,1.5-.37,1.64-.43,2.59-2.26,2.56-3.95-.02-1.69-.79-3.28-1.53-4.8-.35-.71-.7-1.41-1.04-2.12-.35-.71-.77-1.49-1.51-1.76-.57-.21-1.21-.08-1.8.06-4.71,1.09-9.42,2.18-14.12,3.26-.9.21-1.81.42-2.63.83-1.35.68-2.38,1.85-3.38,2.99-.41.47-.83.97-.92,1.59-.06.4.04.81.14,1.2.74,2.84,1.73,5.62,2.09,8.53.25,2.06.18,4.16.46,6.22.42,3.04,1.61,5.91,2.38,8.87s1.09,6.23-.19,9.02c-.88,1.92-2.46,3.49-3.19,5.48l.52,3.59Z"/>
        <path class="cls-26" d="M12.34,57.41c3.25-.03,6.02,6.74,2.31,7.46l1.1,7.99c1.82.26,3.62,6.55,2.06,7.73.95.93,1.62,2.04,2.09,3.27,1.76,4.6,2.78,11.59-3.79,9.51-.04.96-.38,1.08-1.03.38.11-1.12.44-2.2.99-3.17,3.68-1.08-.74-11.52-2.26-17.19-1.56.64-1.78-1.88-.77-2.9.79-.1.76-1.14.48-2.15l-1.89-6.77c-.46-1.66.05-3.54-.36-5.13.5-.37.85-.04,1.07.99Z"/>
        <path class="cls-116" d="M16.11,93.36c2.98.41,2.06,5.8,1.06,8.04.57,3.25-1.55,3.83-2.78.82-.59-1.17-2.43-1.97-2.16-3.71.75-1.71,1.75-3.26,2.85-4.77.29-.19.77-.15,1.03-.38Z"/>
        <path class="cls-42" d="M26.53,62.7c-.03,2.71-.15,5.56,1.48,7.84.9-.07.95.22.24.82,1.3,1.56.81,2.25-1.09,1.55-.83-3.65-2.72-7.28-1.92-10.99.36.3,1.02.39,1.3.77Z"/>
        <path class="cls-105" d="M28.46,50.92c-.27.88-.16,2.41-1.08,3.23-8.71,7.73.54,15.9-2.17,19.28l-2.44-1.26-2.44-8.98-2.16-.23c-3.46-1.18-3.76-6.5.06-7.3-.35-1.92.4-2.14,1.38-.43.36-2.2.84-2.03,2.4-.62.17-1.21.99-2.11,2.43-2.71.15-.98,1.15-1.49,2.16-1.47.56.01,1.18.41,1.84.49Z"/>
        <path class="cls-101" d="M14.91,42.9c1.63.29,2.08,1.88.9,3.03l-.41,3.4c-.1-.98.26-1.4,1.08-1.26-.05-.89.23-.92.82-.18,1.66,1.07,1.29,5.66.94,7.77-1.06,2.41-.54,4.92-.06,7.3.88-.01,2.11.27,2.15.94-1.02,6.03-.19,11.32,2.49,15.87.6-1.79,1.68-2.63,3.24-2.51.19.89,1.01,2.02.85,2.93,1.58,2.28,1.69,7.33-.83,8.65-4.77,4.6-5.43,1.51-5.79-3.85l-2.48-4.42-2.06-7.73-1.1-7.99c1.07-2.78-2.17-4.76-2.31-7.46l-.28-3.43c3.3-2.03,1.16-4.73.9-10.29-.59-1.85.13-2.13,1.4-.6l.55-.18Z"/>
        <path class="cls-97" d="M26.08,88.85c.28.57.46,1.11.31,1.53-.82,2.35-3.36,8.36-4.49,10.43-.22.4-.8.59-1.49.73-1.08-.15-2.17-.2-3.25-.15-2.14-2.21-.94-5.2-1.06-8.04,1.29-1.12,3.58-2.06,3.76-4.33.25-3.16-1.36-5.83-2.06-8.45,3.19,1.22,3.8,5.01,3.97,8.34,1.63.44,3.03.04,4.3-.08Z"/>
        <path class="cls-97" d="M15.74,72.85c-.73-2.73-2.13-5.3-1.1-7.99.25,2.68,2.68,5.56,1.1,7.99Z"/>
        <path class="cls-23" d="M28.49,80.83c2.88-.11,3.63,3.16.64,4.05-1.13,2.17-1.02,5.07-2.44,7.37s-2.46,4.09-2.88,6.38c.61,3.46-2.26,9.63-3.14,3.85l-.26-.95c1.48-4.49,3.12-8.75,5.66-12.69,1.48-2.31.38-6.11.83-8.65l1.08-.26.51.9Z"/>
        <path class="cls-75" d="M25.21,73.43c.38,1.25.57,2.57.85,3.84-.85,2.22-1.25,4.6-1.42,7.67-9.88-9.64-5.27-16.03-6.46-21.98,1.1-.93.42-2.86,2.61-4.09,2.25,4.92,2.99,9.82,4.42,14.56Z"/>
        <path class="cls-117" d="M28.49,80.83c-.11-.32-.45-.57-.51-.9-.31-1.64-1.74-3.75-.32-5.09.18,2.05,1.66,3.9.83,5.99Z"/>
        <path class="cls-101" d="M23.15,50.18l.25,1.21c.19,1.16-.35,2.59-1.38,3.22-.64.68-1.45.91-2.4.62-2.37-1.1-2.45-3.89.53-4.15,1-.27,1.98-.72,3-.9Z"/>
      </g>
    </g>
    <g id="head">
      <path class="cls-91" d="M42.54,6.31c.16.34.85,1.23.77,1.87s-.12,2.66-.2,3.15-.06,1.1.04,1.76.47,1.59.16,1.68-.6.41-.95.15-.6.73-.72.9.04,2.14-.18,2.55-.43,1.58-.96,1.72-1.33.48-2,.54-1.73,0-2.02.03-.24.76-.34,1.12-.99,1.41-1.94,1.18-2.76-.7-3.25-1.17-1.63-2.03-1.78-2.59.14-2.23.19-3.06-.58-1.74-.74-2.82-.39-2.82.42-4.43.92-4.86,2.66-5.12,4.73-1.21,6.07-.6,4.78,3.14,4.78,3.14Z"/>
      <path class="cls-10" d="M39.93,4.48c1.47-.11,2.28,1.75,1.22,2.76,1.19,1.06-1.42,4.19-2.95,4.46.21,2.79-1.16,2.95-2.38.48-1.68-.9-3.14-.84-4.38.17-.2.9-.53.91-1,.09-.98,1.14-1.75.59-2.08-.81l-.09-1c-.57-2.48-.08-6.13,1.89-8.16-.79-.49-.74-.88.14-1.19l2.06-.93c4.28.71,6.81,2.08,7.58,4.12Z"/>
      <path class="cls-78" d="M38.42-.22c1.03,1.15,1.94,2.41,2.88,3.63.05,1.01-.4,1.37-1.37,1.07-1.2-.94-2.68-1.77-4.53-.98-1.48-.65-2.48-1.86-3.05-3.14,2.04-.03,4.06-.21,6.07-.58Z"/>
      <path class="cls-92" d="M42.18,9.26c-.23,1.45-.79,2.29-1.7,2.51-.02.9-.31.93-.85.16-.53,1.88-1.31,1.74-1.44-.22l2.95-4.46c-.44-1.89.27-2.27,1.61-.86.1.59.99,1.1.55,1.79-.31.48-.68.83-1.12,1.09Z"/>
      <path class="cls-59" d="M42.22,12.59c-.01.63.34,1.26.38,1.89.08,1.01-1.4,1.43-1.68,2.07-.54,1.66-.96,1.77-1.38-.01-3.16-.43-2.77-3.54.09-4.62l.85-.16c1.12-1.38,1.34-.77,1.74.83Z"/>
      <path class="cls-6" d="M41.3,3.41c.72.93,1.24,1.78,1.45,2.97-.52.32-1.05.61-1.61.86-.55-.85-.9-1.8-1.22-2.76.43-.4.9-.74,1.37-1.07Z"/>
      <path class="cls-109" d="M42.22,12.59c-.65-.1-1.26-.37-1.74-.83.15-1.07.71-2.03,1.7-2.51.18,1.11.07,2.22.04,3.33Z"/>
      <path class="cls-12" d="M28.26,10.64l.09,1c1.07.21,1.19,1.16.98,2.07-.03.11-.49-1.84,1.1-1.26l1-.09c.92.06.99.39.25.98,3.19-.19,2.69,5.3-.79,3.93-.95,1.27-4.35,1.46-4.07-.46-.29-2.7.18-4.75,1.43-6.16Z"/>
      <path class="cls-37" d="M38.2,11.7l1.44.22c-.06,1.55-.41,3.09-.09,4.62-.03,2.28-1.96,1.43-3.63.48-3.64.89-3.45-4.69-.01-3.93l-.08-.92,2.38-.48Z"/>
      <path class="cls-85" d="M30.15,2.48c-1.29,2.3.2,6.31-1.89,8.16l-1.43,6.16c-1.04-3.71.38-7.28.14-10.99,1.47-.96,1.39-3.2,3.19-3.34Z"/>
      <path class="cls-91" d="M35.82,12.18l.08.92c-1.05,2.12-2.65,1.44-4.21.23l-.25-.98c-.04-.85-.36-1.76-.19-2.46s1.03-1.03,1.63-.31c1.04,1.25,2.79.9,2.94,2.6Z"/>
      <path class="cls-3" d="M30.44,12.45c-.26.82-.55,1.64-1.6,2.23-.54-1.4-.4-2.2-.48-3.04.79-.1,1.69.03,2.08.81Z"/>
      <path class="cls-20" d="M30.9,17.26c1.93-.09,1.99.67.12,1.29-.31.86-.65.84-1.01-.03-2.42,1.49-4.08,1.65-4.98.47l-.1-1.03,1.91-1.15c1.13,1.01,2.69.9,4.07.46Z"/>
      <path class="cls-47" d="M35.91,17.03c1.22-.02,2.44-.18,3.63-.48h1.38s-.64,3.28-.64,3.28l-1.01.07c-1.63-.12-2.59-.17-4.1.34-.22,1.93-2.36-.67-2.61-1.65-.39-1.56,1.93-3.53,3.35-1.55Z"/>
      <path class="cls-39" d="M35.9,13.11c-1.24,1.02-.73,2.66.01,3.93-.72.44-1.51,1.03-1.78,1.81-.24.69.32,1.33,1.04,1.38.54-.81.89-.73,1.03.23l-.07,1.32c.07,1.98-1.68,1.76-2.67.41-1.07-.78-2.26-2.36-2.45-3.64l-.12-1.29c1.26-.94,1.16-2.49.79-3.93,1.08-1.36,2.85-1.06,4.21-.23Z"/>
      <path class="cls-96" d="M39.27,19.89c-.77.94-1.99.97-3.06.57-.31-.12-.7-.21-1.03-.23.1-.52.61-2.24,1.28-2.17,1.16.12,2.23,1.14,2.81,1.83Z"/>
      <path class="cls-25" d="M40.65,11.46c.03-.21.41-.34.86-.28s.77.35.76.49c-.01.16-.41.34-.86.28s-.79-.28-.76-.49Z"/>
      <circle cx="41.82" cy="11.57" r=".23"/>
      <path class="cls-25" d="M42.02,11.57c0,.06-.04.1-.09.11-.04,0-.08-.02-.09-.06.04-.01.07-.05.06-.09,0,0,0-.02-.01-.03,0,0,0-.01.02-.01.05,0,.1.03.11.08Z"/>
    </g>
    <g id="body">
      <g>
        <path class="cls-52" d="M42.9,29.73c-.36-.81-2.55-3.38-3.45-4.21s-2.36-2.49-3.45-2.62-3.19-.06-3.45.64.19,4.53.13,6.13-.83,8.23-1.6,9.26-1.4,3.13-1.4,4.91.58,5.61.35,6.67-.29,2.78.48,3.68,3.7,2.23,4.09,2.11.51-2.49.51-3.13-.51-4.28-.19-5.49.83-5.55,1.28-5.81,2.04-1.47,2.55-2.17,3-3.51,3.7-4.72,1.28-3.38.45-5.23Z"/>
        <path class="cls-52" d="M43.32,30.28l-.24,1.47c.29,1.91-.35,3.5-2.48,3.11.79.49.61.7-.4.64-.73.52-1.8,1.21-2.22.38-.64-1.26-1.08-6.12,1.23-5.38-.45-1.16-.49-2.16-.12-3,.4.07.87-.12,1.26-.01,1.39.38,2.21,1.65,2.97,2.79Z"/>
        <path class="cls-48" d="M40.61,37.03c-.29.79-1.61,1.08-2.99.61-1.03-.79-1.88-2.17-2.54-4.14-.39-.23-.66-.89-.8-2-1.73-.61-2.09-2.12-1.57-3.49.22-.59.61-1.16,1.12-1.62.26-.24.56-.45.89-.63.09-.04.18-.08.28-.13-.75-2.06,1.03-2.75,2.34-1.12.37.61.66,1.27.74,1.99.29.88.55,1.74.77,2.58.13.48.24.95.35,1.42-.24,1.5-.67,2.88-.59,4.92.59.24,1.15.03,1.58.09.24.31.39.6.45.87.06.24.05.46-.03.65Z"/>
        <path class="cls-114" d="M35.89,22.32c.54.69,1,1.44,1.45,2.19l-2.33,1.12c-1.12.56-1.72.16-1.82-1.13-1.14.02-.7-1.25,0-2.02.9.01,1.81-.03,2.7-.16Z"/>
        <path class="cls-60" d="M39.09,27.5c.71.92,1.23,2.22.12,3-.97-1.26-2.9-2.74-1.12-4,.39.28.71.63,1,1Z"/>
        <path class="cls-107" d="M32.06,54.68c.07-1.61-.11-3.59-.9-5.02-.98.02-.86-1.45-.08-2.17.29-.9,1.37-1.47,1.45-1.18.58,2.12-1.63-.15,1.55-.82-.66-1.74-.3-3.32,1.39-2-.25,3.96-.13,7.96-.95,12.04-1.49-.13-1.95-.64-2.46-.86Z"/>
        <path class="cls-79" d="M37.62,37.64l-.11.93c1.51.67,1.48,2.2-.43,1.93-.07.29-.06.71,0,1h-1c-1.78,1.29-1.85-.2-1-2-1.89-.23-.79-4.52,0-6,.63-.12.96-.72,1.88-1.04.2,2.2.2,3.65.65,5.18Z"/>
        <path class="cls-71" d="M36.09,41.5c.4.65-.58,1.47-.61,2-1.17.14-1.03,1.19-1.39,2-2.75,1.43-1.3-6.82,1-6,0,.8.62,1.38,1,2Z"/>
        <path class="cls-19" d="M35.08,39.5c-1.34,1.52-3.05,4.6-1,6l-1.08,2.45c-.42.97-1.25-.2-1.92-.45-.08-.2-.14-.42-.16-.64-.05-.34,0-.71.09-1.05.16-.59.53-1.11,1.07-1.31-.37-.52-.65-1.01-.86-1.47-.74-1.65-.46-2.96.83-3.93.28-.22.61-.42.99-.6.38-2.38,1.17-4.56,1.24-7,.81.29.8,1.27.8,2v6Z"/>
        <path class="cls-108" d="M31.08,47.5c-.11.53-.02,1.64.08,2.17-.36.3-.73.58-1.12.83-.09-2.12.16-4.23.83-6.25.05-.19.08-.37.09-.53.06-.33.15-.56.26-.69.31-.42.72.1.86,1.47-.15.94-.47,1.82-.86,2.67-.04.11-.09.22-.14.33Z"/>
      </g>
      <g>
        <path class="cls-51" d="M25.08,17.47c-.62-.32-6.94.19-8.03.51s-4.72.83-4.98,1.21-.61.96.01,1.31,4.52.48,5.35,1.37,1.21,3.45.32,4.4-3.06,4.21-4.47,4.72c-1.4.51-2.55,1.09-3.32,1.79s-1.53,3.51-1.6,4.72,0,9.26-.06,10.85-.96,8.3-1.09,8.87,1.53,1.47,2.36,1.02,3.64-1.21,4.79-1.09,4.02-.06,4.15-.89,1.53-4.21,1.34-5.87-.64-4.79-.64-5.68,1.55-6.61,1.86-7.23,3.05-3.5,3.31-4.07,1.61-3.44,1.73-4.88-.2-9.03-.52-9.35-.53-1.72-.53-1.72Z"/>
        <path class="cls-119" d="M25.08,17.47c.87.29.86.63,0,1.03,2.92.17,2.78.94.37,2.37-.39,1.21-3.19,1.99-4.37,1.63-1.35,1.32-1.69.75-1-1-1.94-1.44-1.56-2.77,1.15-3.99l3.84-.04Z"/>
        <path class="cls-87" d="M15.09,18.5c2.71.15,4.05.82,4,2,.1,1.97-3.63,1.01-5,0-.28.87-.62.86-1,0-.28.87-.62.86-1,0,.33-1.36,1.64-2.08,3-2Z"/>
        <path class="cls-36" d="M20.09,21.5c-1.24,1.01-1.75.5-1-1l-4-2c2.11.13,4.27.05,6.15-.99l-1.15,3.99Z"/>
        <path class="cls-61" d="M30.09,18.5c-1.28,1.23-3.06,1.62-4.63,2.37l-.37-2.37h5Z"/>
        <path class="cls-86" d="M14.88,33.42c1.39,1.25,1.04,3.13-1.07,5.63.26,2.36-.04,4.21-.9,5.55,1.27,1.11,1.17,3.12-.27,6.02.49,2.9.03,6.38-3.25,3.68-1.48-4.72-1.01-10.77-.31-15.81-.2-2.41.9-4.62,1-7,1.21-.97,3.36-.34,4.09-1.89.35.02.72.12,1.06.2,3.77,1.81,2.51,2.54-.36,3.61Z"/>
        <path class="cls-51" d="M24.63,29.53c1.26,1.43.67,3.48-1.33,2.42-.47.1-.88.18-1.05.12-.25,1.13-.71,2.51-1.49,3.1-.42.32-.94.41-1.56.09-.15,1.12-.58,1.61-1.09,1.42-.32-.11-.68-.48-1.02-1.12-.63.15-1.08.09-1.4-.12-.41-.28-.62-.8-.74-1.47,0-.03,0-.06-.01-.08,0-.15-.02-.31-.06-.47-1.77-.03-2.07-.64-.32-1.21.98-.43,1.45-.93,1.21-1.55-.11-.27-.39-.58-.53-.84,2.18-.35,4.1-1.16,5.76-2.45.28-.38.65-.68,1.08-.87.95.14,2.04.75,2.4,1.92,1.1-.23,1.65-.13,1.64.13-.01.23-.5.61-1.49.98Z"/>
        <path class="cls-73" d="M21,27.37c.07,1.58-.86,2.67-2.55,2.87-.96.11-2.13-.16-3.21-.42.15-2.36,3.91-1.83,5.76-2.45Z"/>
        <path class="cls-73" d="M26.12,28.55c-.4.05-.96.01-1.64-.13-.53.02-1.05,0-1.61-.17-.32-.08-.53-.26-.66-.49-.2-.33-.22-.79-.13-1.26.12-.64-.06-1.34,0-2,1.33-.97,2.35-.86,2.86-.08.35.5.47,1.3.32,2.26.76.33,1.25.67,1.49.97.39.47.15.83-.63.9Z"/>
        <path class="cls-72" d="M9.39,54.31c2.7,1.02,2.24,3.1-.62,3.39l-.78-1.23.09-11.96c.02-2.06-.6-4.39,1-6,.12,5.27-.3,10.56.31,15.81Z"/>
        <path class="cls-66" d="M17.1,35.56l1.1.95-3.78,7.87-1.51.22c.43-1.99-1.92-4.43-.59-6.7.97-1.65,3.04-2.61,2.56-4.48.69-.02,1.54.09,1.94.75.24.39.25.94.27,1.39Z"/>
        <path class="cls-110" d="M19.2,35.26c1.61-1.1,2.12-.5.95,1.08.27,1.3-.98,3.28-2.07,4.16-.63,2.11-1.66,3.39-3.08,3.84l-.58.03c.04-3.15,1.82-5.83,2.68-8.82.7-.14,1.39-.28,2.1-.29Z"/>
        <path class="cls-32" d="M22.08,35.5c.85,1.53.58,1.95-1,1-.35.84-.66.76-.93-.15l-.95-1.09c1.06-1.99,2.83-3.41,3.36-5.81.83,1.24,0,2.01.74,2.5.09,1.31-.23,2.56-1.22,3.55Z"/>
        <path class="cls-13" d="M17.19,52.36c-.02.36-.06.96.24,1.18.11.09.28.13.52.06l-1.58,3.87-1.44.06-1.69-3.74c.95-1.61,3.68-2.09,2.78-4.01-.63-1.84.12-2.02,1.14-.28,1.02.29,1.66.64,1.92,1.01.47.62-.16,1.3-1.89,1.85Z"/>
        <path class="cls-89" d="M17.16,49.5l-1.14.28c-.26.07-.56-.05-.84-.03-.38.08-.64.05-.76-.1-.06-.06-.1-.14-.1-.25-.04-.37.21-1,.76-1.9-.05-1.05-.11-2.1-.08-3.15.74-1.51,1.54-3.07,3.08-3.85.85-.03.85.63,0,2-.42.39-.79,1.48-1,2,2.79.78,2.9,4.18.08,5Z"/>
        <path class="cls-45" d="M15.19,49.75c-.56.55-.81,1.59-2.09,1.72-.14-2.26,1.12-3.04,1.99-3.96l.1,2.24Z"/>
        <path class="cls-2" d="M21.08,37.5c-.83,1.79-1.53,3.66-3,5v-2c-.13-1.69.69-3.19,2.07-4.15l.93.15c-.08.3.13.73,0,1Z"/>
      </g>
      <g id="shirt">
        <path class="cls-104" d="M31.01,45.81c-.01.34-.04.69-.09,1.05-.06.37-.13.74-.21,1.11h0c-.07.35-.16.68-.24,1.01-.1.39-.21.76-.31,1.12-.04.14-.08.27-.12.4,1.12,3.7-7.01,3.18-8.96,3-.37.45-.87.86-1.38,1.04-.71.27-1.42.11-1.75-.94-.94.46-1.54.57-1.77.41-.07-.04-.11-.11-.1-.21.01-.14.1-.34.27-.57,0,0,0-.01,0-.01.19-.25.47-.53.84-.86l1.1-1.99c.27.06.53.1.79.14,3.04.45,5.3-.27,6.79-2.17-3.06-1.33.2-3.61,2.21-4.37.19-2.17,1.88-1.48,2.79.28.13.47.16.99.14,1.56Z"/>
        <path class="cls-25" d="M32.71,28.01c-1.77,1.2-5.04,1.13-5.63-1.51-.08.51-.19.89-.33,1.15.39.47.15.83-.63.9-.01.23-.5.61-1.49.98,1.26,1.43.67,3.48-1.33,2.42.09,1.31-.23,2.56-1.22,3.55.85,1.53.58,1.95-1,1-.08.3.13.73,0,1-.83,1.79-1.53,3.66-3,5-.42.39-.79,1.48-1,2,2.79.78,2.9,4.18.08,5,1.02.29,1.66.64,1.92,1.01,3.04.45,5.3-.27,6.79-2.17-3.06-1.33.2-3.61,2.21-4.37.19-2.17,1.88-1.48,2.79.28.02-.2.05-.38.09-.53.07-1.86-2.59-2.19-2.74-4.11,1.31.11,2.65.03,3.83-.51.28-.22.61-.42.99-.6.38-2.38,1.17-4.56,1.24-7-1.73-.61-2.09-2.12-1.57-3.49ZM24.08,44.5c-.45-.91.2-2.26,1.35-2.01.62.13,1.22.98,1.65,1.59-.98.23-1.99.36-3,.42Z"/>
        <path class="cls-22" d="M27.08,44.08c-.98.23-1.99.36-3,.42-.45-.91.2-2.26,1.35-2.01.62.13,1.22.98,1.65,1.59Z"/>
        <path class="cls-31" d="M33.04,38.5l-.96,6-1.21-.25c.05-.19.08-.37.09-.53.07-1.86-2.59-2.19-2.74-4.11,1.31.11,2.65.03,3.83-.51.35-.16.68-.36.99-.6Z"/>
      </g>
    </g>
    <g id="front-arm-assembly">
      <g id="front-arm">
        <path class="cls-106" d="M19.55,20.84c-1.34-.31-4.53-1.45-5.98-1.04-1.44.41-3.14,2.25-4.16,2.86s-3.33,1.96-4.21,3.34-2.02,3.85-1.35,4.29,4.48,2.24,6.4,1.47,7.61-3.57,8.53-4.51c.92-.94,2.38-2.36,2.15-3.42s-1.39-2.99-1.39-2.99Z"/>
        <path class="cls-106" d="M13.55,20.76c3.95,3.18.55,4.59-3.04,2.96-.5.79-.85.69-1.08-.24,1.14-.38,1.81-1.7,2.12-2.75h1s1,.03,1,.03Z"/>
        <path class="cls-57" d="M19.55,20.84l.99,1.01c.33.34.6.73.99,1.01l-.03,2-2.16-.23c-.98-.67-2.81-1.1-5.5-1.3l.72-2.57,5,.07Z"/>
        <path class="cls-8" d="M22.23,23.42c-.91.13-6.86,1.2-7.97,1.32-1.1.13-5.94.54-7.1,1.29-1.16.75-2.47,1.78-2.67,2.84s-1.41,1.85.15,2.78,4.54.78,5.5.65,8.07-1.99,9.66-2.45c1.59-.46,5.1-2.03,5.78-2.22s1.01-.61.79-1.38-1.45-2.37-1.97-2.61-2.15-.22-2.15-.22Z"/>
        <path class="cls-14" d="M9.43,23.48l1.08.24c1.34.84,8.81,1.12,8.81,1.12l2.17.03s.63-.85,1,.01c.82.94,1.33,1.65-.03,2,.34,1.84-.02,2.12-1.09.85-1.37,1.31-3.3,2.1-5.8,2.37-.52.75-.87.68-1.06-.22-3.11,1.24-5.8,1.17-8.09-.23-.72-.66-1.04-1.95-.95-3.87.51-1.59,2.62-1.87,3.95-2.31Z"/>
        <path class="cls-74" d="M6.42,29.66c-.2,1.48-1.36,1.35-2.26.26l1.31-4.13c1.58.4.88,2.63.95,3.87Z"/>
        <path class="cls-8" d="M19.33,24.65c-3.29-.35-6.62,1.81-8.82-.93.92.06,2.38.41,2.91-.56.4-.74.1-1.71.13-2.4h1c.52,3.18,5.99.9,4.78,3.88Z"/>
        <path class="cls-80" d="M6.28,29.71c2.7,0,5.4.04,8.09.23.61,2.19-2.44,4.51-4.12,1.83-.43.28-1.46-.05-2-.03-1.44.06-4.95.5-4.23-1.77.61-.25,1.6-.26,2.26-.26Z"/>
      </g>
      <g id="front-glove">
        <path class="cls-1" d="M33.62,23.02c-.47.82-.81.77-1.02-.15-.27.86-.54.81-.82-.09-1.13.29-2.44.5-1.65-.49-1.58,1.06-2.81,1.29-3.69.7-.56,2.24-1.91,2.57-3.95,1.89h-1c-1.54-.01-1.54-1.79.03-2.01,1.03-1.31,2.95-.9,4.39-1.57.39-1.31,1.94-2.08,4.66-2.31l1,.14c1.64.58,2.51,2.21,2.05,3.88Z"/>
        <path class="cls-18" d="M27.46,26.95c-.09.51-.2.89-.35,1.15-.41.72-.99.41-1.48-.99-1.42-.03-1.74-1.78-3.15-2.22.56-1.65,2.32-2.12,3.95-1.89,1.5-.39,1.97-.4,1.8.22-.08.31-.32.77-.68,1.42.24.06.45.12.65.18,2.11.65,1.7,1.43-.74,2.15Z"/>
        <path class="cls-64" d="M31.78,22.78c-.16,1.34-1.57,1.96-4.23,1.84-.69-.24-1.09-.92-1.11-1.63,1.54-.45,2.95-2.23,4.36-1.87.57.15.88.98.98,1.66Z"/>
        <path class="cls-28" d="M32.61,22.87c.25,1.39-.41,2.29-1.63,2.23-1.25-.06-2.35-.1-3.42-.48,1.14-1.14,2.96-.88,4.23-1.84l.82.09Z"/>
        <path class="cls-29" d="M34.21,26.94c-.1.66-.53,1.2-1.14,1.6-1.79,1.18-5.06,1.06-5.61-1.59l.09-2.33c.17.01.33.01.5.02.23,0,.46,0,.67-.02.8-.05,1.52-.22,2.17-.52.02,0,.03,0,.05-.03.4-.16.78-.4,1.11-.68.19-.15.38-.32.56-.52.33.03.67.15,1.01.15l-.03,2.02c.36.47.56.91.62,1.32.04.21.03.4,0,.58Z"/>
      </g>
    </g>
  </g>
</svg>