<?xml version="1.0" encoding="UTF-8"?>
<svg id="Enemy" xmlns="http://www.w3.org/2000/svg" viewBox="0 0 64.64 130.87">
  <defs>
    <style>
      .cls-1 {
        fill: #0d60ad;
      }

      .cls-2 {
        fill: #551311;
      }

      .cls-3 {
        fill: #562e24;
      }

      .cls-4 {
        fill: #292828;
      }

      .cls-5 {
        fill: #dda785;
      }

      .cls-6 {
        fill: #26140e;
      }

      .cls-7 {
        fill: #6f0a0b;
      }

      .cls-8 {
        fill: #d09677;
      }

      .cls-9 {
        fill: #fcd5b6;
      }

      .cls-10 {
        fill: #401a0e;
      }

      .cls-11 {
        fill: #e9a68c;
      }

      .cls-12 {
        fill: #411008;
      }

      .cls-13 {
        fill: #6a1012;
      }

      .cls-14 {
        fill: #f3c89f;
      }

      .cls-15 {
        fill: #250a0a;
      }

      .cls-16 {
        fill: #4e1216;
      }

      .cls-17 {
        fill: #5c554e;
      }

      .cls-18 {
        fill: #1563be;
      }

      .cls-19 {
        fill: #680709;
      }

      .cls-20 {
        fill: #644137;
      }

      .cls-21 {
        fill: #342c28;
      }

      .cls-22 {
        fill: #989a97;
      }

      .cls-23 {
        fill: #361111;
      }

      .cls-24 {
        fill: #16100b;
      }

      .cls-25 {
        fill: #fff;
      }

      .cls-26 {
        fill: #351112;
      }

      .cls-27 {
        fill: #817b77;
      }

      .cls-28 {
        fill: #348ce6;
      }

      .cls-29 {
        fill: #093c79;
      }

      .cls-30 {
        fill: #29456e;
      }

      .cls-31 {
        fill: #8d9896;
      }

      .cls-32 {
        fill: #811210;
      }

      .cls-33 {
        fill: #6d635d;
      }

      .cls-34 {
        fill: #8b7f78;
      }

      .cls-35 {
        fill: #5e564f;
      }

      .cls-36 {
        fill: #302322;
      }

      .cls-37 {
        fill: #f5ceb5;
      }

      .cls-38 {
        fill: #464039;
      }

      .cls-39 {
        fill: #e0af97;
      }

      .cls-40 {
        fill: #cf967c;
      }

      .cls-41 {
        fill: #2b2725;
      }

      .cls-42 {
        fill: #250203;
      }

      .cls-43 {
        fill: #e8ac8f;
      }

      .cls-44 {
        fill: #413d3b;
      }

      .cls-45 {
        fill: #5c0509;
      }

      .cls-46 {
        fill: #312c28;
      }

      .cls-47 {
        fill: #dda48a;
      }

      .cls-48 {
        fill: #6a0403;
      }

      .cls-49 {
        fill: #fbd7ba;
      }

      .cls-50 {
        fill: #3f5278;
      }

      .cls-51 {
        fill: #5a0405;
      }

      .cls-52 {
        fill: #490703;
      }

      .cls-53 {
        fill: #212020;
      }

      .cls-54 {
        fill: #25211d;
      }

      .cls-55 {
        fill: #312b27;
      }

      .cls-56 {
        fill: #2e1111;
      }

      .cls-57 {
        fill: #ccb5af;
      }

      .cls-58 {
        fill: #52100f;
      }

      .cls-59 {
        fill: #c79686;
      }

      .cls-60 {
        fill: #601417;
      }

      .cls-61 {
        fill: #9f8790;
      }

      .cls-62 {
        fill: #bfb5b3;
      }

      .cls-63 {
        fill: #946f5f;
      }

      .cls-64 {
        fill: #0b80f2;
      }

      .cls-65 {
        fill: #a77566;
      }

      .cls-66 {
        fill: #420202;
      }

      .cls-67 {
        fill: #ac8d78;
      }

      .cls-68 {
        fill: #4a0c0e;
      }

      .cls-69 {
        fill: #f1b9a2;
      }

      .cls-70 {
        fill: #947565;
      }

      .cls-71 {
        fill: #9e1c21;
      }

      .cls-72 {
        fill: #2a1b1b;
      }

      .cls-73 {
        fill: #441315;
      }

      .cls-74 {
        fill: #be9d84;
      }

      .cls-75 {
        fill: #750506;
      }

      .cls-76 {
        fill: #8e8177;
      }

      .cls-77 {
        fill: #42403e;
      }

      .cls-78 {
        fill: #411f15;
      }

      .cls-79 {
        fill: #af1415;
      }

      .cls-80 {
        fill: #b08a78;
      }

      .cls-81 {
        fill: #3b3835;
      }

      .cls-82 {
        fill: #4c0b0d;
      }

      .cls-83 {
        fill: #381110;
      }

      .cls-84 {
        fill: #510707;
      }

      .cls-85 {
        fill: #311f1a;
      }

      .cls-86 {
        fill: #290303;
      }

      .cls-87 {
        fill: #544a47;
      }

      .cls-88 {
        fill: #0b0b0b;
      }

      .cls-89 {
        fill: #3c0405;
      }

      .cls-90 {
        fill: #1f1d33;
      }

      .cls-91 {
        fill: #865643;
      }

      .cls-92 {
        fill: #e7b2a2;
      }

      .cls-93 {
        fill: #6e0a0c;
      }

      .cls-94 {
        fill: #ad8d7d;
      }

      .cls-95 {
        fill: #38312c;
      }

      .cls-96 {
        fill: #866252;
      }

      .cls-97 {
        fill: #460506;
      }

      .cls-98 {
        fill: #0a0a09;
      }

      .cls-99 {
        fill: #453e3c;
      }

      .cls-100 {
        fill: #504740;
      }

      .cls-101 {
        fill: #550404;
      }

      .cls-102 {
        fill: #341f1e;
      }

      .cls-103 {
        fill: #400405;
      }

      .cls-104 {
        fill: #aea6a5;
      }

      .cls-105 {
        fill: #5f0706;
      }

      .cls-106 {
        fill: #734935;
      }

      .cls-107 {
        fill: #520706;
      }

      .cls-108 {
        fill: #48191a;
      }

      .cls-109 {
        fill: #8e6254;
      }

      .cls-110 {
        fill: #680e0e;
      }

      .cls-111 {
        fill: #1b1610;
      }

      .cls-112 {
        fill: #6a5e55;
      }

      .cls-113 {
        fill: #500e0e;
      }

      .cls-114 {
        fill: #531a17;
      }

      .cls-115 {
        fill: #4d453f;
      }

      .cls-116 {
        fill: #360d0d;
      }

      .cls-117 {
        fill: #3e1010;
      }

      .cls-118 {
        fill: #96887d;
      }

      .cls-119 {
        fill: #3d1422;
      }
    </style>
  </defs>
  <g id="JammingJabber">
    <g id="front-shoe">
      <path class="cls-24" d="M10.8,126.76c-.19-1.02.04-2.05.23-3.07.57-3.03.82-6.12.74-9.2,0-.26-.01-.53.06-.78.07-.25.23-.47.38-.68,1.12-1.59,2.25-3.19,3.37-4.78.82-1.16,1.66-2.37,1.92-3.77.06-.34.1-.7.3-.99.16-.22.41-.37.61-.55.33-.3.56-.73.61-1.18.14-1.18-.82-2.2-1.83-2.83s-2.17-1.1-2.89-2.05c-.19-.26-.36-.56-.65-.7-.2-.1-.44-.1-.67-.11-.86,0-1.72-.01-2.58-.02-.48,0-1,0-1.38.3-.13.1-.23.23-.32.35-.81,1.1-1.24,2.42-1.64,3.73-.65,2.14-1.25,4.29-1.81,6.46-.08.31-.16.62-.32.9-.17.3-.43.55-.66.81-1.01,1.16-1.51,2.66-1.98,4.11-.82,2.51-1.64,5.04-2.05,7.65s-.38,5.34.46,7.84c.07.21.15.43.29.61.25.31.65.45,1.03.58.87.29,1.74.59,2.62.88,1.01.34,2.07.68,3.12.53.81-.12,1.55-.52,2.25-.96.47-.29.96-.63,1.16-1.14s-.05-1.23-.6-1.31l.2-.66Z"/>
      <path class="cls-95" d="M7.54,115.87c.57.96.32,2.85-1,3-.13.71.54,1.38,2,2,1.39-.28.68,1.93,0,3-.29.71-.63.69-1,0-1.32,1.15-1.68.59-1-1-1.49,1.53-2.13,1.46-1.91-.2l-.8-.09c-1.24-1.2-1.77-3.22-1.34-4.78l.03-.91c-.62-1.42-.58-3.57,1.04-4.15.3,0,.62-.45.93-.04,1.44-2.15,2.45-2.45,3.04-.91,2.01-.1,1.19,2.84,0,4.09Z"/>
      <path class="cls-54" d="M8.66,100.88l2.07,1.04c-.3,2.79-1.1,5.47-2.38,8.04,1.61.68.88,2.53-.8,1.82-1.35.13-1.9,1.29-2.23,3.17-1.17-.45-.78-1.48-.82-2.26l.28-1.82c-.88-.28-.87-.62,0-1.01,1.47-1.28.39-3.52,1-5,2.4-5.78-1.05-4.6,1.76-8.12,2.21.26,2.82,2.71,1.13,4.14Z"/>
      <path class="cls-24" d="M3.83,122.57c-.92,1.86-1.68,1.29-2.29-1.71l-.12-1.84c.49-.2.78-.82,1.07-1.23,1.34,1.21,1.32,3.08,1.34,4.78Z"/>
      <path class="cls-35" d="M3.83,122.57c.26.07.54.07.8.09.87.94-.16,2.37-1.09,3.2,1.62.5,2.96,1.16,4,2l.46-1.45c-1.45-1.18-1.6-2.03-.46-2.55h1c.28-.87.62-.86,1,0,.42.21.75.87,1,2-.57.77-.52,1.64-.16,2.89l-6.01.24c-1.54-.09-2.68-1.11-2.72-3.14l-.11-4.99c.56.81,1.34,1.44,2.29,1.71Z"/>
      <path class="cls-46" d="M10.54,114.62c2.97-.43,2.97,4.55.18,5.2.01.35-.16.7-.17,1.05l-1,3h-1v-3c-2.2-.08-2.16-1.51,0-2-1.59.18-1.14-2.22,0-3-.66-1.17-.41-2.39,1-2,.96-.58,1.29-.33.99.75Z"/>
      <path class="cls-99" d="M9.54,113.87c.1.61-1,1.36-1,2-.28.87-.62.86-1,0v-4.09c0-.53,1.03-1.07.8-1.82,2.28-8.66,6.44-.6,1.2,3.9Z"/>
      <path class="cls-112" d="M7.54,123.86c.47.73.81,1.55,1.02,2.48s-.02,1.45-1.02,1.52c-1.03-.54-2.03-1.21-3-2-.91-.8.59-2.92,2-3,.47.05.77.64,1,1Z"/>
      <path class="cls-17" d="M8.54,115.87v3c-.04,1.5-1.65,1.5-2,0,.14-1.06.21-2.19,1-3h1Z"/>
      <path class="cls-100" d="M8.54,118.87v2c-.81-.12-2.02.44-2.98-.44-1.01-.92.91-1.07.98-1.56h2Z"/>
      <path class="cls-76" d="M6.54,122.86l-2,3c-.29.78-.62.76-1,0-.14-1.13.63-2.24,1.09-3.2l1.91.2Z"/>
      <path class="cls-21" d="M11.56,100.81c1.72-2.43,3.09-2,3.1.98.87.28.86.6,0,.98.82,1.71.11,2.99-.76,4.09,3.58,1.48.17,7.95-3.37,7.75-.21-.39-.57-.65-.99-.75l1.74-7.11c-.99,1.32-1.37,2.84-2.94,3.21-2.33,1.11.92-6.17.31-9.08.92.5,1.98.4,2.9-.07Z"/>
      <path class="cls-112" d="M10.54,125.86c-.99-.2-.93-1.21-1-2-.1-1.12.09-2.24,1-3v5Z"/>
      <path class="cls-118" d="M7.54,127.86c-1.58.12-3.77-.08-4-2h1c.71,0,1.49-.14,2.36.12.71.22.83,1.11.64,1.88Z"/>
      <path class="cls-102" d="M13.9,106.87c-1.58-1.01-.11-2.62.76-4.09.59.31.49,1.1,1.53,2.17.14-2.15,1.72-3.44,2.49-5.08.59,3.43-1.75,5.74-4.78,7Z"/>
    </g>
    <g id="front-leg">
      <path class="cls-42" d="M8.49,97.86l1.65,2.57c.61.96,1.24,1.93,2.13,2.64s2.09,1.12,3.18.78c.78-.25,1.4-.84,1.98-1.42,1.67-1.64,3.33-3.29,5-4.93,1.31-1.29,2.63-2.6,3.61-4.15.34-.54.63-1.1,1-1.62.66-.94,1.52-1.73,2.17-2.67,2.06-2.97,1.73-6.89,1.95-10.5.11-1.85.39-3.69.82-5.49.18-.76.39-1.51.74-2.21.96-1.96,2.85-3.26,4.65-4.49.32-.22.66-.44,1.04-.53.5-.11,1.03.03,1.54.03,1.69,0,3.08-1.52,3.5-3.16s.09-3.37-.24-5.03c-.15-.77-.31-1.55-.46-2.32-.15-.78-.36-1.63-1-2.09-.5-.35-1.15-.39-1.76-.41-4.83-.16-9.66-.33-14.49-.49-.92-.03-1.85-.06-2.76.13-1.48.31-2.78,1.17-4.04,2.02-.52.35-1.06.73-1.3,1.3-.16.37-.17.79-.17,1.2-.02,2.93.23,5.88-.18,8.78-.29,2.06-.9,4.06-1.16,6.13-.38,3.04.04,6.12.01,9.19s-.55,6.3-2.5,8.66c-1.35,1.63-3.28,2.73-4.49,4.47l-.42,3.6Z"/>
      <path class="cls-26" d="M18.23,57.07c3.15.81,4.08,8.06.31,7.8l-1,8c1.7.72,1.81,7.26,0,8,.68,1.14,1.04,2.39,1.17,3.69.52,4.9-.3,11.92-6.11,8.21-.28.92-.64.95-1.09.1.39-1.05.99-2.01,1.78-2.81,3.84-.09,2.25-11.32,2.25-17.19-1.67.22-1.24-2.28,0-3,.79.11,1.03-.9,1.02-1.96l-.08-7.03c-.02-1.72.96-3.41.97-5.05.58-.23.84.18.78,1.23Z"/>
      <path class="cls-116" d="M12.61,92.77c2.77,1.17.49,6.13-1.05,8.04-.29,3.29-2.49,3.3-2.9.07-.27-1.28-1.84-2.53-1.13-4.14,1.16-1.46,2.53-2.7,3.99-3.87.33-.11.78.06,1.09-.1Z"/>
      <path class="cls-42" d="M30.58,65.84c-.73,2.61-1.58,5.33-.6,7.96.88.17.87.46.02.86.85,1.84.2,2.38-1.46,1.22.14-3.74-.75-7.74.98-11.11.27.38.88.64,1.06,1.08Z"/>
      <path class="cls-105" d="M35.48,54.95c-.48.78-.77,2.29-1.87,2.84-10.41,5.23-3.58,15.5-7.06,18.07l-2.03-1.85-.04-9.31-2.03-.78c-3.04-2.03-1.96-7.25,1.94-7.04.15-1.94.93-1.96,1.44-.06.91-2.03,1.34-1.75,2.48.02.48-1.12,1.5-1.79,3.05-1.99.39-.91,1.5-1.14,2.47-.86.54.16,1.03.7,1.65.94Z"/>
      <path class="cls-101" d="M24.46,43.71c1.5.7,1.53,2.36.08,3.16l-1.27,3.18c.15-.97.61-1.28,1.37-.93.18-.87.46-.83.84.03,1.33,1.47-.22,5.8-1.09,7.75-1.65,2.06-1.79,4.61-1.94,7.04.85.22,1.97.8,1.83,1.46-2.54,5.56-3.1,10.89-1.69,15.98,1.04-1.58,2.3-2.11,3.78-1.59-.04.91.45,2.21.06,3.05.94,2.61-.26,7.51-3.03,8.14-5.8,3.21-5.63.05-4.6-5.21l-1.26-4.91v-8l1-8c1.75-2.41-.87-5.16-.31-7.8l.62-3.39c3.71-1.11,2.34-4.27,3.52-9.71-.09-1.94.68-2.02,1.51-.22l.58-.03Z"/>
      <path class="cls-97" d="M23.41,90.99c.12.62.16,1.19-.09,1.56-1.4,2.06-5.4,7.21-7.03,8.92-.31.33-.93.37-1.62.32-1-.42-2.04-.75-3.1-.98-1.5-2.69.43-5.27,1.05-8.04,1.53-.75,3.99-1.07,4.75-3.22,1.06-2.99.19-5.99.19-8.69,2.77,2,2.38,5.82,1.69,9.09,1.46.84,2.92.82,4.17,1.03Z"/>
      <path class="cls-97" d="M17.54,72.87c0-2.83-.69-5.67,1-8-.45,2.65,1.16,6.06-1,8Z"/>
      <path class="cls-23" d="M27.8,83.87c2.81.64,2.69,3.99-.43,4.08-1.66,1.81-2.29,4.63-4.26,6.5-1.98,1.88-3.43,3.32-4.43,5.42-.3,3.5-4.67,8.72-4.02,2.91v-.98c2.59-3.96,5.27-7.64,8.74-10.8,2.03-1.85,1.94-5.81,3.03-8.14l1.11.02.26,1Z"/>
      <path class="cls-75" d="M26.54,75.87c.04,1.3-.11,2.63-.17,3.93-1.39,1.93-2.39,4.12-3.35,7.04-7.06-11.86-.96-16.85-.57-22.9,1.3-.62,1.15-2.66,3.58-3.28.91,5.33.35,10.25.51,15.21Z"/>
      <path class="cls-117" d="M27.8,83.87c-.02-.34-.28-.67-.26-1,.12-1.66-.72-4.07,1-5-.35,2.02.59,4.2-.74,6Z"/>
      <path class="cls-101" d="M30.54,52.87l-.07,1.23c-.12,1.17-1.01,2.41-2.16,2.76-.8.49-1.63.5-2.48-.02-2-1.67-1.37-4.39,1.58-3.87,1.04,0,2.1-.19,3.13-.1Z"/>
    </g>
    <g id="back-leg">
      <path class="cls-15" d="M54.9,98.82c1.26-.44,1.57-2.02,2.03-3.27.41-1.11,1.08-2.11,1.64-3.16,2.88-5.37,2.91-11.95,1.13-17.78-.43-1.4-.96-2.79-1.83-3.97-.73-1-1.67-1.82-2.57-2.67-1.73-1.64-3.31-3.42-4.88-5.21-.87-.98-1.74-1.96-2.6-2.94-1.5-1.7-3.01-3.4-4.32-5.26-.2-.28-.4-.57-.68-.77-.45-.32-1.02-.36-1.57-.38-6.28-.3-12.59.1-18.8,1.06-1.09.17-2.29.42-2.95,1.29-.54.71-.6,1.65-.64,2.54-.14,3.22-.29,6.48.35,9.65.13.67.33,1.37.84,1.82.71.63,1.77.57,2.71.48,3.44-.34,6.88-.68,10.33-1.01.26-.03.53-.05.76.06.23.11.39.34.53.55,1.36,2.07,2.59,4.24,3.67,6.48.36.76.72,1.54,1.3,2.15,1.91,2,5.74,1.67,7,4.14.89,1.76-.22,3.99-1.87,5.06-.33.21-.7.41-.92.74-.23.33-.28.75-.32,1.15-.2,2.09-.25,4.19-.14,6.29.04.81.12,1.66.58,2.33.69.99,2,1.28,3.19,1.49,1.61.29,3.23.58,4.84.86l3.21-1.7Z"/>
      <path class="cls-56" d="M59.61,77.76c2.6,7.36-2.86,8.37-3.26,15.14-.04.68-.53,1.32-.63,1.99-.21.9-.55.92-1.03.1-2.76,1.11-3.34-.22-1.08-2.17-1.89-.82-.93-3.38.73-3.94.06-2.69,1.46-5.84,3.1-7.89-2.46-1.83-4.61-5.23-.66-5.91.93.68,2.41,1.5,2.83,2.67Z"/>
      <path class="cls-103" d="M40.63,62.79c1.99-2.88,7.4,1.43,6.15,4.24,3.27,1.84,5.58,4.25,6.92,7.24-1.68-1.39-1.73-2.54-.15-3.45-1.59-2.09-1.08-2.97.83-1.2.98,1.6,3.43,2.72,2.4,5.46-1.61,4.29,5.29,4.06,1.75,7.72-1.88,1.95-3.05,4.01-4.19,6.08l-1.23.66c.63-3.5.44-6.4-.57-8.68-.61.55-1.61.51-3-.13-1.71,1.75-5.79-1.92-4.26-3.81q1.16-1.58,0,0c-.86,2.13-3.88-.46-2.76-2.06q.45-2.44,0,0c-.86,1.64-2.88-.03-3.94-1.24-.48.85-1.81.26-2.04-.76-2.07-1.87-3.01-3.57-2.82-5.1.81-1.67,2.79-.47,4.13.48-2.11-1.36-3.49-1.52-4.13-.48-1.57,1.79-3.99,1.35-3.15-1.93-1.23,1.11-1.25.52-1.06-1.08-2.15-4.76,10.42-6.85,11.11-1.96Z"/>
      <path class="cls-103" d="M52.54,82.87l1.04.64-1.02,8.26,1.06,1.06c-.1.93.49,1.56,1.08,2.17.78.8-.28,1.79-.29,2.58-2.14.42-4.26-.19-6.13-1.25-1.91-2.37-1.51-5.77,1.19-10.21-.24-2.33.12-3.74,1.09-4.24.65-1.22,1.78-.29,2,1Z"/>
      <path class="cls-68" d="M54.34,88.89c.4,1.13-.45,2.84-.73,3.94-5.54,1.86-1.07-1.33-1.07-9.96-1.32-1.02-1.8-1.7,0-2,5.22.26-.84,6.42,1.8,8.02Z"/>
      <path class="cls-15" d="M42.52,74.87c.85.58,1.7,1.8,2.76,2.06.99,1.71,2.18,3.44,4.26,3.81,1.15-.47,1.56,0,1,1.13.37,4.93-1.71,9.59-2.28,14.46l-.81.24c-.9.55-1.98,1.21-2.72.19-3.17-.89-2.52-5.45.79-5.97-.92-1.48-.48-3.6,1.33-6.35l-8.53-7.17.23-2.42c-1.36-.47-1.38-.82.02-1.22,1.34-.03,2.83.48,3.94,1.24Z"/>
      <path class="cls-93" d="M50.31,67.72c2.5,3.7-1.48,1.94-3.53-.69-1.31-2.25-3.46-3.19-6.15-4.24.63-1.13,1.14-2.82,2.43-2.95,1.07-.1,7.61,6.13,7.24,7.87Z"/>
      <path class="cls-84" d="M50.31,67.72c1.11.76,2.46,1.87,3.24,3.1.86,1.36,1.1,3.29.02,4.53-.63-.77-.99-1.47-1.15-1.88-.73-1.87-.36,1.17-2.2,1.55,1.03-3.95-2.02-5.53-3.45-7.99.58.36,1.26.68,2.28,1.41.41.3.94.4,1.25-.72Z"/>
      <path class="cls-82" d="M33.72,67.77c-1.23-1.31-1.46-2.24.81-1.71,2.23-.5,3.67.22,4.98,1.22.81.62,1.67,3.11.11,3.34-2.52.28-3.88-2.64-5.9-2.86Z"/>
      <path class="cls-113" d="M42.52,74.87c-.66-2.52-1.67-3.94-.51-4.97,1.31.98,2.08,2.44,2.34,3.41.17.67-1.17,1.79-1.83,1.55Z"/>
      <path class="cls-58" d="M45.29,76.93c-.54-1.2-1.13-2.43-.65-2.66,1.1-.53,1.06.66,1.67.59.85-.09,1.82,1.03,1.23,1.58-.83.77-1.58.88-2.25.49Z"/>
      <path class="cls-16" d="M52.54,80.87v2c-.64-.37-1.52-.46-2-1l-1-1.13c-.15-.97.86-.66,1.31-.66.67,0,1.17.76,1.69.79Z"/>
      <path class="cls-83" d="M41.52,54.05c-.25.29-.99.48-1.08.83-.47,1.96,3.84,2.94,4.17,4-3.61.07-5.88-2.62-9.14-3.93-1.42,1.72-2.59.97-4.12-.08-1.54,1.57-2.13,1.12-.89-.77-1.95.07-1.9-.73.07-1.23,1.62-.53,3.58-.73,5.86-.58.01-1.46,1.04-2.26,3.09-2.42.05-.61.45-.85,1.12-.83,3.02.06,3.31,3.73.9,5.02Z"/>
      <path class="cls-7" d="M30.47,54.1c-.4.63.46.67.89.77-.28.65-.23,1.38-.74,1.74-.79.56-1.78-.08-2.31.25-.06-.64-.08-1.39.42-1.99.37-.44,1.1-.62,1.74-.76Z"/>
    </g>
    <g id="back-shoe">
      <path class="cls-88" d="M62.2,122.34c.09-1.34.11-2.84-.81-3.81-.78-.82-2.01-.99-3.04-1.46-1.74-.8-2.97-2.61-3.06-4.53-.04-.74.09-1.49.13-2.23.05-.85,0-1.71-.16-2.55-.04-.23-.09-.49.03-.7.13-.23.41-.32.62-.48.45-.34.54-.97.58-1.54.17-1.96.34-3.91.51-5.87.04-.47.08-.95-.06-1.39-.15-.45-.47-.83-.83-1.14-1.04-.91-2.42-1.37-3.8-1.52-1.38-.15-2.77-.01-4.15.15-1.05.12-2.1.25-3.14.39-.45.06-.94.15-1.22.51-.2.26-.24.6-.23.92,0,2.03,1.29,3.87,1.44,5.89.16,2.07-.88,4.07-.81,6.15.02.58.13,1.16.05,1.74-.09.71-.45,1.35-.67,2.03-.24.73-.32,1.49-.4,2.26-.07.71-.15,1.41-.22,2.12-.18,1.76-.37,3.53-.23,5.3,0,.11.02.22.08.31.08.12.24.17.38.21,1.19.29,2.5.06,3.53-.6.55-.35,1.03-.83,1.66-1.02.35-.11.73-.12,1.09-.12.49,0,.97-.02,1.46-.03.28,0,.57-.01.85.06.38.09.71.31,1.04.51,2.57,1.55,5.59,2.36,8.6,2.29l.78-1.82Z"/>
      <path class="cls-41" d="M54.84,101.93c-.22.6,0,1.42-.06,2.06-3.97,3.1-4.02-5.25-.38-6.41-1.97-1.58-2.03-1.81.29-2.58l1.03-.1c.66.53,1.84,1.5,1.48,2.72-.51,1.76-1.84,2.9-2.36,4.31Z"/>
      <path class="cls-81" d="M48.27,96.33c1.71-2.12,4.81-.85,6.13,1.25-.05,4.1-1.78,6.47.38,6.41-.3,3.02-1.64,6.16-.78,9.55.43,1.72,2.24,2.6,2.45,4.08l-2.25,1.38c-1.1-1.62-1.74-3.04-1.91-4.25-1.96.17-2.26-2.72-.89-3.67-1.16-.31-2.02-1.13-2.57-2.45-1.57-1.53-1.28-3.23-.04-4.9-.73-1.45-1.15-3.09-1.24-4.92-1.24,1.55-1.86.95-.87-.88-.62-1.21-.36-1.66.78-1.36-.08-.89.2-.95.81-.24Z"/>
      <path class="cls-33" d="M52.28,114.75c1.05,1.39,2.38,2.67,4.17,2.87.06.44.1.9.09,1.35.11,1.12-.29,2.08-1.03,2.94-.95,1.67-3.8-.12-4.01-2.09-2.33-2.16-2.98-3.85-1.93-5.07.71-2.7,1.85-2.54,2.72.01Z"/>
      <path class="cls-111" d="M62.54,121.86c.1,1.41-1,2.86-2.8,2.5-1.57-.32-2.9-.42-4.2-.47-1.76-1.23-1.32-1.91.77-1.13,2.01-.85,3.76-1.15,5.24-.9h1Z"/>
      <path class="cls-34" d="M61.54,121.86c-1.55,1.05-3.43,1.05-5.24.9-.88-.19-.86-.5,0-.91.74-.04,1.53.16,2.59-.11.64-.16.88-1.03.65-1.88.93.35,1.65,1.06,2,2Z"/>
      <path class="cls-55" d="M46.54,111.87c2.93-2.95,3.79-.96,1.75,2.25-.38,1.92.63,3.32,3.03,4.2l.17,1.48c1.36,1.22,1.96,2.16.16,3.03-.34-.1-.77.09-1.11.03-1.93-2.1-1.78.91-6.31.68-1.37-.07-1.16-2.01-1.67-2.85l.03-.75c.54-.41.53-.84,0-1.29-.23-2.32.78-4.51.96-6.79.28-.87.62-.86,1,0,.58.61,1.25.61,2,0Z"/>
      <path class="cls-115" d="M55.51,121.9l.79-.04v.91c-.47-.04-.79.77-.76,1.13-1.34-.05-2.62-.67-3.88-1.05-.25-.99-.35-2.02-.16-3.03l4.01,2.09Z"/>
      <path class="cls-4" d="M48.79,103.73c.41.75,1.35,1.47,1.24,2.45-.1.86-1.02,1.56-1.2,2.45,2.9,1.79-1.38,4.46-3.28,1.24-.86-2.1-.79-5.8,0-8,2.58-1.57,3.84-1.28,3.24,1.86Z"/>
      <path class="cls-53" d="M47.46,96.57c-.32.4-.44.99-.78,1.36l.87.88c.96.14,1.96.5,2.15,1.62s-.22,2.35-.91,3.29c-.75-1.09-1.91-1.79-3.24-1.86-.33.86-.67.83-1-.06-2.99-.2-2.58-4.61.2-5.05.84-.55,1.94-1.03,2.72-.19Z"/>
      <path class="cls-77" d="M51.39,111.08c-.22,1.23-.86,2.26-1.91,3.07.14,1.94-.65,1.92-1.2-.03-.29-.59.13-1.4-.16-1.78-.34-.44-1.24-.39-1.59-.48-1.32,1.76-1.99-.54-1-2,.75.04,1.7.79,2.47.55s.44-1.5.81-1.79c.47-.36,1.59.21,2.21.31.98.16.2,1.56.36,2.14Z"/>
      <path class="cls-27" d="M51.39,111.08c.34,1.21.75,2.41.89,3.67-.9-.11-1.81-.09-2.72-.01-.91-.08-.94-.27-.08-.59-.05-.73-.03-1.46.14-2.62.1-.7.85-.76,1.77-.45Z"/>
      <path class="cls-88" d="M47.54,98.81c.05.76.2,1.7-.51,2.08-.62.33-1.55-.37-1.83-.77-.58-.85,2.59-3.41,1.47-2.2.11.37.45.82.87.88Z"/>
      <path class="cls-38" d="M49.56,114.74c.61,1.54,1.84,2.34,4.09,3.37l-2.16,1.7c-2.5-1.3-5.84-1.62-7.21-4.75,1.82-.81,3.15-.08,4-.94l1.2.03c.01.19,0,.41.08.59Z"/>
      <path class="cls-44" d="M42.59,119.95c.01-.43.03-.86,0-1.29,1.74.11,3.47.8,5.12,1.9-2.34.83-3.57-.46-5.11-.61Z"/>
      <path class="cls-98" d="M45.54,109.87c0,.78.17,1.78,1,2,.42.4-1.46,1.92-1.5,1.9-.69-.32-.6-1.53-.5-1.9v-10.05s1,.06,1,.06v8Z"/>
    </g>
    <g id="head">
      <path class="cls-91" d="M53.16,6.88c.13.35.74,1.3.59,1.93s-.37,2.64-.5,3.11-.16,1.09-.13,1.76.32,1.63,0,1.69-.64.35-.96.06-.67.67-.8.83-.16,2.14-.41,2.52-.57,1.53-1.12,1.63-1.37.35-2.04.35-1.72-.16-2.01-.16-.31.73-.44,1.08-1.12,1.31-2.05.99-2.68-.96-3.13-1.47-1.44-2.17-1.53-2.74.35-2.2.48-3.03-.41-1.79-.48-2.87-.13-2.84.83-4.37,1.37-4.76,3.13-4.85,4.82-.77,6.1-.03,4.47,3.57,4.47,3.57Z"/>
      <path class="cls-10" d="M50.73,4.82c1.47.03,2.11,1.96.96,2.86,1.09,1.17-1.81,4.04-3.35,4.17-.06,2.8-1.43,2.83-2.41.25-1.58-1.05-3.04-1.13-4.38-.24-.28.87-.62.86-1,0-1.08,1.05-1.8.42-2-1v-1c-.33-2.52.49-6.11,2.65-7.95-.74-.56-.66-.95.25-1.17L43.57.02c4.2,1.11,6.58,2.71,7.16,4.81Z"/>
      <path class="cls-78" d="M49.67,0c.92,1.25,1.7,2.58,2.53,3.88-.04,1.01-.53,1.33-1.46.94-1.1-1.05-2.5-2.01-4.41-1.39-1.41-.79-2.29-2.09-2.75-3.42,2.03.16,4.06.17,6.1-.02Z"/>
      <path class="cls-92" d="M52.53,9.79c-.36,1.43-1,2.21-1.92,2.34-.11.89-.4.9-.86.08-.7,1.82-1.46,1.61-1.41-.35l3.35-4.17c-.26-1.92.48-2.24,1.68-.71.05.6.88,1.19.38,1.83-.35.45-.76.76-1.22.98Z"/>
      <path class="cls-59" d="M52.26,13.11c-.07.63.22,1.29.2,1.92-.02,1.01-1.53,1.29-1.87,1.91-.69,1.6-1.12,1.68-1.37-.14-3.11-.73-2.43-3.78.52-4.59l.86-.08c1.24-1.27,1.41-.65,1.65.99Z"/>
      <path class="cls-6" d="M52.2,3.88c.63,1,1.07,1.89,1.17,3.09-.55.27-1.11.51-1.68.71-.47-.9-.73-1.88-.96-2.86.46-.36.96-.65,1.46-.94Z"/>
      <path class="cls-109" d="M52.26,13.11c-.64-.16-1.22-.49-1.65-.99.24-1.05.9-1.95,1.92-2.34.07,1.12-.14,2.22-.27,3.32Z"/>
      <path class="cls-12" d="M38.54,9.87v1c1.04.31,1.08,1.27.79,2.15-.04.11-.32-1.88,1.21-1.15h1c.91.15.95.48.16,1,3.19.11,2.19,5.53-1.15,3.83-1.06,1.18-4.47,1.05-4.01-.83-.04-2.72.63-4.72,2-6Z"/>
      <path class="cls-37" d="M48.33,11.85l1.41.35c-.2,1.53-.7,3.04-.52,4.59-.24,2.27-2.09,1.25-3.66.14-3.7.54-3-4.99.35-3.91v-.93s2.42-.25,2.42-.25Z"/>
      <path class="cls-85" d="M41.19,1.92c-1.5,2.17-.39,6.3-2.65,7.95l-2,6c-.69-3.79,1.06-7.22,1.16-10.93,1.55-.82,1.69-3.06,3.48-3.02Z"/>
      <path class="cls-91" d="M45.92,12.11v.93c-1.25,2.01-2.78,1.19-4.22-.16l-.16-1c.04-.85-.19-1.78.04-2.46s1.12-.93,1.65-.16c.92,1.35,2.7,1.16,2.69,2.86Z"/>
      <path class="cls-3" d="M40.54,11.87c-.33.79-.7,1.58-1.8,2.07-.41-1.45-.2-2.23-.2-3.07.8-.02,1.68.19,2,1Z"/>
      <path class="cls-20" d="M40.55,16.71c1.93.09,1.92.86,0,1.29-.39.83-.73.78-1-.13-2.55,1.26-4.21,1.26-5,0v-1.03s2-.97,2-.97c1.04,1.11,2.59,1.15,4.01.83Z"/>
      <path class="cls-47" d="M45.56,16.94c1.22.09,2.45.05,3.66-.14l1.37.14-.94,3.19-1.01-.03c-1.61-.28-2.56-.41-4.11-.05-.4,1.9-2.29-.88-2.45-1.88-.25-1.59,2.25-3.33,3.48-1.23Z"/>
      <path class="cls-39" d="M45.91,13.03c-1.34.9-.98,2.58-.35,3.91-.76.37-1.6.89-1.94,1.64-.3.66.19,1.35.91,1.47.62-.76.95-.65,1.01.33l-.19,1.31c-.12,1.98-1.83,1.6-2.7.16-.99-.88-2.03-2.56-2.1-3.85v-1.29c1.35-.82,1.39-2.37,1.16-3.83,1.2-1.26,2.94-.79,4.21.16Z"/>
      <path class="cls-96" d="M48.64,20.1c-.85.86-2.07.78-3.1.28-.3-.14-.68-.27-1.01-.33.15-.51.82-2.17,1.48-2.04,1.14.23,2.11,1.35,2.63,2.09Z"/>
      <path class="cls-25" d="M50.8,11.83c.05-.21.44-.3.88-.2s.73.42.71.56c-.03.16-.44.3-.88.2s-.76-.35-.71-.56Z"/>
      <circle cx="51.96" cy="12.06" r=".23"/>
      <path class="cls-25" d="M52.15,12.08c0,.06-.05.1-.1.1-.04,0-.08-.03-.08-.07.04,0,.07-.04.07-.08,0-.01,0-.02-.01-.03,0,0,.01-.01.02-.01.05,0,.1.04.1.09Z"/>
    </g>
    <g id="body">
      <g>
        <path class="cls-52" d="M52.36,29.09c-.36-.81-2.55-3.38-3.45-4.21s-2.36-2.49-3.45-2.62-3.19-.06-3.45.64.19,4.53.13,6.13-.83,8.23-1.6,9.26-1.4,3.13-1.4,4.91.58,5.61.35,6.67-.29,2.78.48,3.68,3.7,2.23,4.09,2.11.51-2.49.51-3.13-.51-4.28-.19-5.49.83-5.55,1.28-5.81,2.04-1.47,2.55-2.17,3-3.51,3.7-4.72,1.28-3.38.45-5.23Z"/>
        <path class="cls-52" d="M52.77,29.65l-.24,1.47c.29,1.91-.35,3.5-2.48,3.11.79.49.61.7-.4.64-.73.52-1.8,1.21-2.22.38-.64-1.26-1.08-6.12,1.23-5.38-.45-1.16-.49-2.16-.12-3,.4.07.87-.12,1.26-.01,1.39.38,2.21,1.65,2.97,2.79Z"/>
        <path class="cls-48" d="M50.07,36.4c-.29.79-1.61,1.08-2.99.61-1.03-.79-1.88-2.17-2.54-4.14-.39-.23-.66-.89-.8-2-1.73-.61-2.09-2.12-1.57-3.49.22-.59.61-1.16,1.12-1.62.26-.24.56-.45.89-.63.09-.04.18-.08.28-.13-.75-2.06,1.03-2.75,2.34-1.12.37.61.66,1.27.74,1.99.29.88.55,1.74.77,2.58.13.48.24.95.35,1.42-.24,1.5-.67,2.88-.59,4.92.59.24,1.15.03,1.58.09.24.31.39.6.45.87.06.24.05.46-.03.65Z"/>
        <path class="cls-114" d="M45.34,21.69c.54.69,1,1.44,1.45,2.19l-2.33,1.12c-1.12.56-1.72.16-1.82-1.13-1.14.02-.7-1.25,0-2.02.9.01,1.81-.03,2.7-.16Z"/>
        <path class="cls-60" d="M48.54,26.87c.71.92,1.23,2.22.12,3-.97-1.26-2.9-2.74-1.12-4,.39.28.71.63,1,1Z"/>
        <path class="cls-107" d="M41.52,54.05c.07-1.61-.11-3.59-.9-5.02-.98.02-.86-1.45-.08-2.17.29-.9,1.37-1.47,1.45-1.18.58,2.12-1.63-.15,1.55-.82-.66-1.74-.3-3.32,1.39-2-.25,3.96-.13,7.96-.95,12.04-1.49-.13-1.95-.64-2.46-.86Z"/>
        <path class="cls-79" d="M47.08,37.01l-.11.93c1.51.67,1.48,2.2-.43,1.93-.07.29-.06.71,0,1h-1c-1.78,1.29-1.85-.2-1-2-1.89-.23-.79-4.52,0-6,.63-.12.96-.72,1.88-1.04.2,2.2.2,3.65.65,5.18Z"/>
        <path class="cls-71" d="M45.54,40.87c.4.65-.58,1.47-.61,2-1.17.14-1.03,1.19-1.39,2-2.75,1.43-1.3-6.82,1-6,0,.8.62,1.38,1,2Z"/>
        <path class="cls-19" d="M44.54,38.87c-1.34,1.52-3.05,4.6-1,6l-1.08,2.45c-.42.97-1.25-.2-1.92-.45-.08-.2-.14-.42-.16-.64-.05-.34,0-.71.09-1.05.16-.59.53-1.11,1.07-1.31-.37-.52-.65-1.01-.86-1.47-.74-1.65-.46-2.96.83-3.93.28-.22.61-.42.99-.6.38-2.38,1.17-4.56,1.24-7,.81.29.8,1.27.8,2v6Z"/>
        <path class="cls-108" d="M40.54,46.87c-.11.53-.02,1.64.08,2.17-.36.3-.73.58-1.12.83-.09-2.12.16-4.23.83-6.25.05-.19.08-.37.09-.53.06-.33.15-.56.26-.69.31-.42.72.1.86,1.47-.15.94-.47,1.82-.86,2.67-.04.11-.09.22-.14.33Z"/>
      </g>
      <g>
        <path class="cls-51" d="M34.54,16.84c-.62-.32-6.94.19-8.03.51s-4.72.83-4.98,1.21-.61.96.01,1.31,4.52.48,5.35,1.37,1.21,3.45.32,4.4-3.06,4.21-4.47,4.72c-1.4.51-2.55,1.09-3.32,1.79s-1.53,3.51-1.6,4.72,0,9.26-.06,10.85-.96,8.3-1.09,8.87,1.53,1.47,2.36,1.02,3.64-1.21,4.79-1.09,4.02-.06,4.15-.89,1.53-4.21,1.34-5.87-.64-4.79-.64-5.68,1.55-6.61,1.86-7.23,3.05-3.5,3.31-4.07,1.61-3.44,1.73-4.88-.2-9.03-.52-9.35-.53-1.72-.53-1.72Z"/>
        <path class="cls-119" d="M34.54,16.84c.87.29.86.63,0,1.03,2.92.17,2.78.94.37,2.37-.39,1.21-3.19,1.99-4.37,1.63-1.35,1.32-1.69.75-1-1-1.94-1.44-1.56-2.77,1.15-3.99l3.84-.04Z"/>
        <path class="cls-87" d="M24.54,17.87c2.71.15,4.05.82,4,2,.1,1.97-3.63,1.01-5,0-.28.87-.62.86-1,0-.28.87-.62.86-1,0,.33-1.36,1.64-2.08,3-2Z"/>
        <path class="cls-36" d="M29.54,20.87c-1.24,1.01-1.75.5-1-1l-4-2c2.11.13,4.27.05,6.15-.99l-1.15,3.99Z"/>
        <path class="cls-61" d="M39.54,17.87c-1.28,1.23-3.06,1.62-4.63,2.37l-.37-2.37h5Z"/>
        <path class="cls-86" d="M24.34,32.79c1.39,1.25,1.04,3.13-1.07,5.63.26,2.36-.04,4.21-.9,5.55,1.27,1.11,1.17,3.12-.27,6.02.49,2.9.03,6.38-3.25,3.68-1.48-4.72-1.01-10.77-.31-15.81-.2-2.41.9-4.62,1-7,1.21-.97,3.36-.34,4.09-1.89.35.02.72.12,1.06.2,3.77,1.81,2.51,2.54-.36,3.61Z"/>
        <path class="cls-51" d="M34.09,28.9c1.26,1.43.67,3.48-1.33,2.42-.47.1-.88.18-1.05.12-.25,1.13-.71,2.51-1.49,3.1-.42.32-.94.41-1.56.09-.15,1.12-.58,1.61-1.09,1.42-.32-.11-.68-.48-1.02-1.12-.63.15-1.08.09-1.4-.12-.41-.28-.62-.8-.74-1.47,0-.03,0-.06-.01-.08,0-.15-.02-.31-.06-.47-1.77-.03-2.07-.64-.32-1.21.98-.43,1.45-.93,1.21-1.55-.11-.27-.39-.58-.53-.84,2.18-.35,4.1-1.16,5.76-2.45.28-.38.65-.68,1.08-.87.95.14,2.04.75,2.4,1.92,1.1-.23,1.65-.13,1.64.13-.01.23-.5.61-1.49.98Z"/>
        <path class="cls-73" d="M30.46,26.74c.07,1.58-.86,2.67-2.55,2.87-.96.11-2.13-.16-3.21-.42.15-2.36,3.91-1.83,5.76-2.45Z"/>
        <path class="cls-73" d="M35.58,27.92c-.4.05-.96.01-1.64-.13-.53.02-1.05,0-1.61-.17-.32-.08-.53-.26-.66-.49-.2-.33-.22-.79-.13-1.26.12-.64-.06-1.34,0-2,1.33-.97,2.35-.86,2.86-.08.35.5.47,1.3.32,2.26.76.33,1.25.67,1.49.97.39.47.15.83-.63.9Z"/>
        <path class="cls-72" d="M18.85,53.68c2.7,1.02,2.24,3.1-.62,3.39l-.78-1.23.09-11.96c.02-2.06-.6-4.39,1-6,.12,5.27-.3,10.56.31,15.81Z"/>
        <path class="cls-66" d="M26.55,34.92l1.1.95-3.78,7.87-1.51.22c.43-1.99-1.92-4.43-.59-6.7.97-1.65,3.04-2.61,2.56-4.48.69-.02,1.54.09,1.94.75.24.39.25.94.27,1.39Z"/>
        <path class="cls-110" d="M28.66,34.63c1.61-1.1,2.12-.5.95,1.08.27,1.3-.98,3.28-2.07,4.16-.63,2.11-1.66,3.39-3.08,3.84l-.58.03c.04-3.15,1.82-5.83,2.68-8.82.7-.14,1.39-.28,2.1-.29Z"/>
        <path class="cls-32" d="M31.54,34.87c.85,1.53.58,1.95-1,1-.35.84-.66.76-.93-.15l-.95-1.09c1.06-1.99,2.83-3.41,3.36-5.81.83,1.24,0,2.01.74,2.5.09,1.31-.23,2.56-1.22,3.55Z"/>
        <path class="cls-13" d="M26.65,51.73c-.02.36-.06.96.24,1.18.11.09.28.13.52.06l-1.58,3.87-1.44.06-1.69-3.74c.95-1.61,3.68-2.09,2.78-4.01-.63-1.84.12-2.02,1.14-.28,1.02.29,1.66.64,1.92,1.01.47.62-.16,1.3-1.89,1.85Z"/>
        <path class="cls-89" d="M26.62,48.87l-1.14.28c-.26.07-.56-.05-.84-.03-.38.08-.64.05-.76-.1-.06-.06-.1-.14-.1-.25-.04-.37.21-1,.76-1.9-.05-1.05-.11-2.1-.08-3.15.74-1.51,1.54-3.07,3.08-3.85.85-.03.85.63,0,2-.42.39-.79,1.48-1,2,2.79.78,2.9,4.18.08,5Z"/>
        <path class="cls-45" d="M24.64,49.11c-.56.55-.81,1.59-2.09,1.72-.14-2.26,1.12-3.04,1.99-3.96l.1,2.24Z"/>
        <path class="cls-2" d="M30.54,36.87c-.83,1.79-1.53,3.66-3,5v-2c-.13-1.69.69-3.19,2.07-4.15l.93.15c-.08.3.13.73,0,1Z"/>
      </g>
      <g id="shirt">
        <path class="cls-104" d="M40.47,45.18c-.01.34-.04.69-.09,1.05-.06.37-.13.74-.21,1.11h0c-.07.35-.16.68-.24,1.01-.1.39-.21.76-.31,1.12-.04.14-.08.27-.12.4,1.12,3.7-7.01,3.18-8.96,3-.37.45-.87.86-1.38,1.04-.71.27-1.42.11-1.75-.94-.94.46-1.54.57-1.77.41-.07-.04-.11-.11-.1-.21.01-.14.1-.34.27-.57,0,0,0-.01,0-.01.19-.25.47-.53.84-.86l1.1-1.99c.27.06.53.1.79.14,3.04.45,5.3-.27,6.79-2.17-3.06-1.33.2-3.61,2.21-4.37.19-2.17,1.88-1.48,2.79.28.13.47.16.99.14,1.56Z"/>
        <path class="cls-25" d="M42.17,27.38c-1.77,1.2-5.04,1.13-5.63-1.51-.08.51-.19.89-.33,1.15.39.47.15.83-.63.9-.01.23-.5.61-1.49.98,1.26,1.43.67,3.48-1.33,2.42.09,1.31-.23,2.56-1.22,3.55.85,1.53.58,1.95-1,1-.08.3.13.73,0,1-.83,1.79-1.53,3.66-3,5-.42.39-.79,1.48-1,2,2.79.78,2.9,4.18.08,5,1.02.29,1.66.64,1.92,1.01,3.04.45,5.3-.27,6.79-2.17-3.06-1.33.2-3.61,2.21-4.37.19-2.17,1.88-1.48,2.79.28.02-.2.05-.38.09-.53.07-1.86-2.59-2.19-2.74-4.11,1.31.11,2.65.03,3.83-.51.28-.22.61-.42.99-.6.38-2.38,1.17-4.56,1.24-7-1.73-.61-2.09-2.12-1.57-3.49ZM33.54,43.87c-.45-.91.2-2.26,1.35-2.01.62.13,1.22.98,1.65,1.59-.98.23-1.99.36-3,.42Z"/>
        <path class="cls-22" d="M36.54,43.45c-.98.23-1.99.36-3,.42-.45-.91.2-2.26,1.35-2.01.62.13,1.22.98,1.65,1.59Z"/>
        <path class="cls-31" d="M42.5,37.87l-.96,6-1.21-.25c.05-.19.08-.37.09-.53.07-1.86-2.59-2.19-2.74-4.11,1.31.11,2.65.03,3.83-.51.35-.16.68-.36.99-.6Z"/>
      </g>
    </g>
    <g id="front-arm">
      <path class="cls-106" d="M28.54,19.87c-1.35-.29-4.55-1.39-5.99-.96s-3.11,2.3-4.12,2.92-3.3,2.01-4.16,3.4-1.96,3.88-1.29,4.31,4.51,2.18,6.42,1.38,7.56-3.67,8.47-4.63,2.35-2.39,2.11-3.45-1.43-2.97-1.43-2.97Z"/>
      <path class="cls-106" d="M22.54,19.87c3.99,3.12.61,4.58-3,3-.49.79-.85.71-1.08-.22,1.14-.39,1.79-1.72,2.08-2.78h2Z"/>
      <path class="cls-57" d="M28.54,19.87l1,1c.33.33.61.72,1,1v2l-2.17-.2c-.99-.65-2.83-1.06-5.52-1.22l.69-2.58h5Z"/>
      <path class="cls-8" d="M31.26,22.41c-.91.14-6.85,1.29-7.95,1.44s-5.94.62-7.09,1.39-2.44,1.82-2.63,2.87-1.39,1.87.19,2.78c1.58.91,4.55.72,5.51.57s8.04-2.11,9.62-2.59c1.58-.48,5.07-2.11,5.74-2.3s1.01-.62.77-1.39-1.48-2.35-2.01-2.59-2.15-.19-2.15-.19Z"/>
      <path class="cls-14" d="M18.46,22.65l1.08.22c1.35.82,8.83,1,8.83,1h2.17s.62-.86,1,0c.84.92,1.36,1.63,0,2,.37,1.83,0,2.12-1.08.87-1.35,1.33-3.27,2.15-5.76,2.45-.51.75-.86.69-1.06-.2-3.09,1.28-5.78,1.25-8.09-.11-.73-.65-1.06-1.94-1-3.85.48-1.6,2.59-1.91,3.92-2.37Z"/>
      <path class="cls-74" d="M15.54,28.87c-.18,1.49-1.34,1.36-2.26.29l1.26-4.15c1.58.38.91,2.61,1,3.85Z"/>
      <path class="cls-8" d="M28.37,23.67c-3.29-.3-6.59,1.9-8.83-.8.92.05,2.39.37,2.9-.6.39-.74.08-1.71.1-2.4h1c.57,3.16,6,.8,4.83,3.8Z"/>
      <path class="cls-80" d="M15.4,28.92c2.7-.03,5.4-.04,8.09.11.64,2.18-2.37,4.54-4.09,1.89-.43.28-1.46-.03-2,0-1.44.08-4.95.57-4.26-1.71.61-.26,1.59-.28,2.26-.29Z"/>
    </g>
    <g id="front-glove">
      <path class="cls-1" d="M42.64,21.85c-.46.82-.8.78-1.02-.14-.26.86-.53.81-.82-.08-1.12.3-2.43.54-1.66-.47-1.56,1.08-2.79,1.33-3.68.75-.53,2.25-1.88,2.6-3.92,1.95h-1c-1.54.02-1.56-1.76,0-2,1.01-1.33,2.94-.94,4.37-1.63.37-1.31,1.91-2.1,4.63-2.37l1,.13c1.64.56,2.54,2.17,2.1,3.85Z"/>
      <path class="cls-18" d="M36.54,25.87c-.08.51-.19.89-.33,1.15-.4.73-.98.42-1.49-.97-1.42-.01-1.76-1.76-3.18-2.18.54-1.66,2.29-2.15,3.92-1.95,1.49-.41,1.96-.43,1.8.19-.08.31-.31.77-.66,1.43.24.06.45.11.65.17,2.12.62,1.72,1.41-.71,2.16Z"/>
      <path class="cls-64" d="M40.8,21.63c-.14,1.34-1.54,1.98-4.2,1.9-.7-.23-1.11-.9-1.14-1.62,1.53-.47,2.92-2.28,4.34-1.93.57.14.89.96,1,1.64Z"/>
      <path class="cls-28" d="M41.63,21.71c.27,1.39-.38,2.29-1.6,2.25-1.25-.04-2.35-.07-3.42-.43,1.13-1.16,2.95-.92,4.2-1.9l.82.08Z"/>
      <path class="cls-29" d="M43.29,25.76c-.09.66-.51,1.21-1.12,1.62-1.77,1.2-5.04,1.13-5.63-1.51l.06-2.33c.17.01.33.01.5.01.23,0,.46-.01.67-.03.8-.06,1.52-.24,2.16-.55.02,0,.03,0,.05-.03.4-.17.77-.41,1.1-.7.19-.15.38-.33.55-.53.33.03.67.14,1.01.14v2.02c.37.46.57.9.64,1.31.04.21.04.4.01.58Z"/>
    </g>
    <g id="back-glove">
      <path class="cls-30" d="M64.64,29.83l-.08,1.96c-.46,1.37-1.13,2.07-2.02,2.09-.28.87-.62.86-1,0-1.26-.24-1.36-1.82-1-3-1.75.54-2.07-.72-1.08-2.08,1.46-2.3,3.45,1,5.18,1.04Z"/>
      <path class="cls-90" d="M63.72,36.87c-.34.38-.71.73-1.07,1.09-2.76.33-2.39-1.09-.11-2.09-2.17-.1-1.85-1.06,0-2,.33-.97,1.02-1.78,2.02-2.09-.07,1.72-.61,3.38-.84,5.09Z"/>
      <path class="cls-90" d="M60.54,30.87c.55.84.08,1.95-1,2-.43,1.73-.76,2.69-2,1-1-1.21.05-2.46.6-3.78.25-.59,1-.8,1.31-1.3.67.49,1,1.27,1.08,2.08Z"/>
      <path class="cls-50" d="M62.54,35.87l.11,2.09c-.28.27-.44.95-.84,1.07-.59,1.86-1.06,2.66-2.42.97-.48,2.67-1.43,2.49-1.8-.22-.1-.85.28-1.76.12-2.59.57-1.44,1.18-1.55,1.83-.32.34-1.56,2.04-2.49,3-1Z"/>
      <path class="cls-50" d="M61.54,33.87c.95,1.48-.77,2.03-2,1-1.57-.12-1.12-1.05,0-2,0-.79.09-1.78,1-2,.93.71,1.1,1.89,1,3Z"/>
      <path class="cls-30" d="M62.54,35.87c-1.03.15-2.13.38-3,1-1.43-.03-1.37-1.59,0-2,.75-.13,1.46-.45,2-1h1v2Z"/>
      <path class="cls-50" d="M59.54,34.87v2c-.33.24-.45.93-.94.76-.38-.13-.67-.26-.89-.43-.19-.96.17-2.47-.17-3.32l2-1v2Z"/>
    </g>
    <g id="back-arm">
      <path class="cls-70" d="M45.96,40.41c-.02.67,1.2,2.59,1.39,2.87s2.44,3.06,2.92,3.69,3.21,3.4,3.54,3.78,3.45,1.24,4.16.43,3.21-5.17,3.45-5.79.91-3.93.91-4.55-.14-2.2-.43-2.49-1.91-.34-2.54-.34-1.77.57-1.82.91-.24,2.35-.62,2.35-.96-.34-1.24-.81-.96-2.78-1.39-3.93-1.15-4.74-1.77-4.88-3.73,3.02-4.55,3.59-1.91,2.44-2.01,5.17Z"/>
      <path class="cls-65" d="M61.84,45.08c-.22,1.87-1.49,3.28-2.35,4.84-1.13.6-1.6.11-.94-.98-2.58-1.14-.71-5.57,1.99-5.08.31-.87.66-.86,1.06,0,.01.39.28.82.24,1.21Z"/>
      <path class="cls-63" d="M61.6,43.87h-1.06c-2.59.16-2.91-2.52-1.15-3.87.79-.36,1.59-.72,2.42-.97-.18,1.61-.25,3.23-.21,4.84Z"/>
      <path class="cls-43" d="M59.39,40c.43,1.27.93,2.54,1.15,3.87l-1.99,5.08c.49,2.51-3.36,4.06-3.85,1.08-2.7-1.09-1.76-4.58,1.08-4.5-.47-1.48-.12-3.46.6-4.71-.33-.99.36-1.27,1.2-1.02.51.15,1.3.23,1.8.22Z"/>
      <path class="cls-40" d="M56.39,40.81c1.58,1.53-.19,3.05-.6,4.71-.86.35-1.12.09-.8-.77-1.86-2.11-1.91-3.31-.13-3.6-.49-.4-.41-.73.18-.99l1.34.65Z"/>
      <path class="cls-62" d="M52.54,31.12c.6,1.14,1,2.45,1.01,3.75-.19,2.29-1.42,2.19-2.03-.04-.87,1.67-1.63,1.31-1.46-.6.44-1.31,1.18-2.54,2.48-3.11Z"/>
      <path class="cls-67" d="M53.54,34.87c0,1.88.67,3.61,1.51,5.29l-.18.99c-2.02,1.94-3.44-2.27-3.32-4.28-2.12,0-2.03-1.37-.03-2.04l2.03.04Z"/>
      <path class="cls-69" d="M51.51,34.83l.03,2.04c.41.85.03,1.15-1,1,.29,2.13-.76,1.95-2,.34-.65,1.79-1.39,1.59-1.57-.27-.85-.31-.79-.62.11-.93.98-.55,1.89-1.24,2.57-2.13.14-.19.33-.42.4-.64.52.11,1.02.3,1.46.6Z"/>
      <path class="cls-11" d="M54.99,44.75c.31.18.51.56.8.77l-1.08,4.5c0,1.11-.73,1.06-2.17-.15-1.09-1.24-2.51-2.52-1-4-.86-.31-.82-.64.07-1-1.38-1.86-1.42-2.87-.12-3.02,1.26-1.44,2.42-.47,3.5,2.89Z"/>
      <path class="cls-70" d="M59.49,49.92c-.8,1.46-1.13,3.39-3.38,3.03-1.62-.26-2.54-1.91-3.57-3.09.64.23,1.57-.15,2.17.15,1.4.72,2.82.04,3.85-1.08.7-.25,1.16.31.94.98Z"/>
      <path class="cls-94" d="M51.61,44.87c.01.33-.08.67-.07,1h-2c-.66-1.8-2.59-3.06-3-5-.87-.24-.85-.58,0-1,1.84-1.06,4.37,2.93,5.07,5Z"/>
      <path class="cls-9" d="M54.86,41.15c-.22,1.19-.1,2.41.13,3.6-1.31-.76-2.11-2.23-3.5-2.89-1.42-1.52-1.74-2.85-.95-3.98.31-.35.65-.68,1-1,1.43,1.25,1.68,3.36,3.32,4.28Z"/>
      <path class="cls-49" d="M48.54,38.21c1.29.52,2.27,1.73,2.95,3.64l.12,3.02-5.07-5,.43-1.93,1.57.27Z"/>
      <path class="cls-5" d="M50.54,37.87c.36,1.31.9,2.62.95,3.98-1.51-.72-2.26-2.16-2.95-3.64l2-.34Z"/>
    </g>
  </g>
</svg>