<?xml version="1.0" encoding="UTF-8"?>
<svg id="Enemy" xmlns="http://www.w3.org/2000/svg" viewBox="0 0 89.02 161.81">
  <defs>
    <style>
      .cls-1 {
        fill: #a5670b;
      }

      .cls-2 {
        fill: #39434c;
      }

      .cls-3 {
        fill: #161c1f;
      }

      .cls-4 {
        fill: #d98654;
      }

      .cls-5 {
        fill: #151e35;
      }

      .cls-6 {
        fill: #f7a97c;
      }

      .cls-7 {
        fill: #0a0c15;
      }

      .cls-8 {
        fill: #b46242;
      }

      .cls-9 {
        fill: #9c3e0a;
      }

      .cls-10 {
        fill: #683e07;
      }

      .cls-11 {
        fill: #0a0e15;
      }

      .cls-12 {
        fill: #3b3e4a;
      }

      .cls-13 {
        fill: #0d8b11;
      }

      .cls-14 {
        fill: #f7af80;
      }

      .cls-15 {
        fill: #2e333c;
      }

      .cls-16 {
        fill: #21201b;
      }

      .cls-17 {
        fill: #f8cc49;
      }

      .cls-18 {
        fill: #a65124;
      }

      .cls-19 {
        fill: #08090f;
      }

      .cls-20 {
        fill: #1d1a19;
      }

      .cls-21 {
        fill: #101d38;
      }

      .cls-22 {
        fill: #6e7379;
      }

      .cls-23 {
        fill: #18202a;
      }

      .cls-24 {
        fill: #d29669;
      }

      .cls-25 {
        fill: #232c34;
      }

      .cls-26 {
        fill: #b78024;
      }

      .cls-27 {
        fill: #b47d24;
      }

      .cls-28 {
        fill: #883819;
      }

      .cls-29 {
        fill: #969fb8;
      }

      .cls-30 {
        fill: #43548a;
      }

      .cls-31 {
        fill: #7a370e;
      }

      .cls-32 {
        fill: #2e323e;
      }

      .cls-33 {
        fill: #a06a2a;
      }

      .cls-34 {
        fill: #502204;
      }

      .cls-35 {
        fill: #5e1600;
      }

      .cls-36 {
        fill: #3f1c0c;
      }

      .cls-37 {
        fill: #808b96;
      }

      .cls-38 {
        fill: #636e85;
      }

      .cls-39 {
        fill: #0c0d12;
      }

      .cls-40 {
        fill: #d0d1e6;
      }

      .cls-41 {
        fill: #f2c13b;
      }

      .cls-42 {
        fill: #f5c58b;
      }

      .cls-43 {
        fill: #111c22;
      }

      .cls-44 {
        fill: #1c2018;
      }

      .cls-45 {
        fill: #38424c;
      }

      .cls-46 {
        fill: #2b3c15;
      }

      .cls-47 {
        fill: #27201e;
      }

      .cls-48 {
        fill: #060816;
      }

      .cls-49 {
        fill: #111516;
      }

      .cls-50 {
        fill: #f2c03f;
      }

      .cls-51 {
        fill: #f4a371;
      }

      .cls-52 {
        fill: #edc896;
      }

      .cls-53 {
        fill: #fb9a6e;
      }

      .cls-54 {
        fill: #0aac19;
      }

      .cls-55 {
        fill: #34436c;
      }

      .cls-56 {
        fill: #0e8d12;
      }

      .cls-57 {
        fill: #613e14;
      }

      .cls-58 {
        fill: #703b25;
      }

      .cls-59 {
        fill: #5d6873;
      }

      .cls-60 {
        fill: #f1ab77;
      }

      .cls-61 {
        fill: #a26814;
      }

      .cls-62 {
        fill: #222e43;
      }

      .cls-63 {
        fill: #101117;
      }

      .cls-64 {
        fill: #050509;
      }

      .cls-65 {
        fill: #111523;
      }

      .cls-66 {
        fill: #be7649;
      }

      .cls-67 {
        fill: #7f570e;
      }

      .cls-68 {
        fill: #1b1d28;
      }

      .cls-69 {
        fill: #ac7b1c;
      }

      .cls-70 {
        fill: #3f5012;
      }

      .cls-71 {
        fill: #1e1e2a;
      }

      .cls-72 {
        fill: #0e700e;
      }

      .cls-73 {
        fill: #f29a6d;
      }

      .cls-74 {
        fill: #47515f;
      }

      .cls-75 {
        fill: #08090d;
      }

      .cls-76 {
        fill: #949db6;
      }

      .cls-77 {
        fill: #a5acb2;
      }

      .cls-78 {
        fill: #1c1e28;
      }

      .cls-79 {
        fill: #74440b;
      }

      .cls-80 {
        fill: #535a69;
      }

      .cls-81 {
        fill: #36363e;
      }

      .cls-82 {
        fill: #164f0b;
      }

      .cls-83 {
        fill: #e8966b;
      }

      .cls-84 {
        fill: #2c2c38;
      }

      .cls-85 {
        fill: #151c27;
      }

      .cls-86 {
        fill: #c77542;
      }

      .cls-87 {
        fill: #b25122;
      }

      .cls-88 {
        fill: #60340c;
      }

      .cls-89 {
        fill: #8a92a1;
      }

      .cls-90 {
        fill: #231312;
      }

      .cls-91 {
        fill: #c5734c;
      }

      .cls-92 {
        fill: #964513;
      }

      .cls-93 {
        fill: #edb981;
      }

      .cls-94 {
        fill: #c4c4d4;
      }

      .cls-95 {
        fill: #626587;
      }

      .cls-96 {
        fill: #a17825;
      }

      .cls-97 {
        fill: #151c25;
      }

      .cls-98 {
        fill: #3c3b55;
      }

      .cls-99 {
        fill: #be6634;
      }

      .cls-100 {
        fill: #181f25;
      }

      .cls-101 {
        fill: #3c251d;
      }

      .cls-102 {
        fill: #eea175;
      }

      .cls-103 {
        fill: #b25e2f;
      }

      .cls-104 {
        fill: #393b49;
      }

      .cls-105 {
        fill: #191a23;
      }

      .cls-106 {
        fill: #373435;
      }

      .cls-107 {
        fill: #8c8481;
      }

      .cls-108 {
        fill: #bcc0d5;
      }

      .cls-109 {
        fill: #adb2bc;
      }

      .cls-110 {
        fill: #9a691f;
      }
    </style>
  </defs>
  <g id="JumpingJunkie">
    <path class="cls-24" d="M9.16,40.64c.38-1.34.26-5.22,1.79-6.6,1.53-1.38,5.48-4.81,6.57-5.77,1.09-.97,1.71-1.14,2.65,0s2.27,3.18,1.89,5.93c-.38,2.74-.64,6.51-3.57,6.89s-4.85.85-6.77.71-2.55-1.16-2.55-1.16Z"/>
    <g>
      <path class="cls-2" d="M64.32,58.56c.5-2.01.56-3.36,2.01-4.14,1.45-.78,2.08-2.76,4.07-1.85,2,.91,4.22,5.08,4.44,7.57.04.44,3.91,2.8,3.68,3.23-1.1,2.04-8.67,1.82-10.11.33-1.74-1.81-5.05-1.31-6.07-2.15-1.02-.83-2.35-2.39-1.33-2.99s3.32,0,3.32,0Z"/>
      <g>
        <path class="cls-2" d="M75.48,69.96c.96-.21,5.94.72,5.65-.93-.29-1.65-1.4-3.65-2.6-4.4-1.2-.75-3.28-2.24-4.22-2.24s-2.93.92-3.08,1.49,1.02,5.57,1.87,5.78,2.38.3,2.38.3Z"/>
        <path class="cls-90" d="M70.18,62.98c.81,4.48,5.34,4.5,9.03,4.52.27.65-.16,1.57,0,2.26-2.15.33-6.52-1.17-6.99,1.77-2.99-2.16-5.81-4.82-6.56-8.54,1.37-.44,3.09.27,4.52,0Z"/>
        <path class="cls-18" d="M71.66,64.32c1.34.59,2.33,1.75,3.48,2.62l-2.05,2.72-3.48-2.62c-1.81-1.36-3.56-2.78-4.94-4.65,2.01-8.34,5.88-2.76,6.99,1.93Z"/>
        <g>
          <g>
            <path class="cls-83" d="M64.15,50.66c2.55.52,4.02,1.72,4.38,3.59.38,2.76-.12,7.01-2.37,8.12,1.74.87,3.33,2.85,2.93,4.66-5.98-.03-9.15-6.22-12.08-10.91-2.78-2.74-5.65-7.13-6.36-10.78-.17-4.1.07-7.95.74-11.54-.27-1.25.23-1.58,1.43-1.05,2.64-1.53,4.65.58,2.09,2.86,3.74-.78,5.89,1.33,6.44,6.34,2.12,1.26,2.97,5.97,2.79,8.69Z"/>
            <path class="cls-42" d="M66.13,36.23c-.23,1.28.85,2.7.93,3.96-.54.19-1,.79-1.56.9-.7,4.72-2.08,5.01-4.14.89-4.09.91-4.44-3.61-6.44-6.34-.29-2.28,1.9-3.31,6.55-3.11,1.93-3.89,3.82.23,4.66,3.71Z"/>
            <path class="cls-93" d="M65.12,43.56c4.62,8.56,4.29,10.93-.97,7.1-1.64-2.17-5.15-2.46-6.58-5.67.36-.91,2.09-.54,2.83-.85.68-.28,1-1.1.97-2.17,1.36-.38,2.76-.61,4.14-.89-.14.82-.16,1.68-.39,2.48Z"/>
            <path class="cls-24" d="M69.97,53.21c.68,1.48.15,1.78-1.43,1.05-.76-.56-1.98-.61-3.22-.89s-1.55-1.31-1.16-2.7c1-.35,2.09.54,3.64-.2-1.82-2.79-3.33-4.56-2.67-6.9,2.33,2.81,4.48,5.94,4.85,9.64Z"/>
            <path class="cls-6" d="M50.65,45.35c-.79-1.28-2.29-2.84-2.52-4.36-4.81-1.34-3.73-3.72.56-4.86-.81-1.46,1.07-2.7,2.7-2.32.81-.57,3.01,10.17,3.15,9.93-1.01,1.76-2.67,1.28-3.89,1.61Z"/>
          </g>
          <g>
            <path class="cls-92" d="M75.18,77.84c-2.92,1.53-4.62-.21-2.09-2.22-1.67-.12-2.42-.91-2.09-2.22-.61-1.17-.1-1.41,1.43-.81,1.86-1.25,3.61.99,4.57,2.52.68-2.88,2.47-3.33,5.34-1.33-1.39-2.48-.16-2.73,2.86-1.63.43-.47,1.26-.37,2.48.3-.51,4.57-7.47,4.78-12.51,5.39Z"/>
            <path class="cls-103" d="M84.16,71.04c1.25-.21,1.58.17,1.05,1.11-.8.65-2.13.94-2.86,1.63-3.73,1.51-6.03-3.05-5.15-5.64.46-.33,1.31-.72,1.91-.88-.34-2.77,1.25-2.83,2.68-.18.86,0,1.12.28.75.87.19.85.74,1.88,1.64,3.09Z"/>
            <path class="cls-99" d="M83.88,66.08c.15,1.42-.56,1.75-2.11,1-.86.1-1.84-.04-2.68.18-.73-.94-3.42-2.03-2.11-3.82,1.44-1.98,3.7-.73,5.26.02.95.45,1.66,1.3,1.64,2.62Z"/>
            <path class="cls-4" d="M77.19,68.14c.87,2.49.24,3.43-1.9,2.82-.79,1.12-1.62.94-2.48-.3-1.83-.39-2.21-2.28-.42-2.97.79-.58,2.05-1.63,3.37-1.24.75.22,1.01,1.33,1.42,1.69Z"/>
            <path class="cls-101" d="M71.1,66.51c-2.91.86-2.95-.05-2.09-2.22.39-.33,1.01-.5,1.43-.81.66-.16,2.58-1.38,3.38-1.01,1.81.84.97,2.54-.35,2.8-.59.12-1.56.6-2.36,1.25Z"/>
            <path class="cls-58" d="M72.81,70.66c2.57.53,2.42,1.56-.39,1.92-3.64-.95-6.33-5.83-1.32-6.07.48.35.84.8,1.29,1.18l.42,2.97Z"/>
            <path class="cls-86" d="M87.02,69.42c.51,1.2.02,1.46-1.43.81-1.8.43-3.62-.75-3.07-2.28-.89-.1-1.45-.14-.75-.87.75-.26,1.46-.6,2.11-1l1.05,1.11c.79.67,1.24,1.6,2.09,2.22Z"/>
            <path class="cls-36" d="M87.68,72.45c-1.59-.07-2.69-1.12-2.09-2.22l1.43-.81c1.39,1.01.79,1.9.66,3.04Z"/>
            <path class="cls-2" d="M84.93,67.19c-.4-.34-.67-.76-1.05-1.11,1.23-.01,2.33.42,1.05,1.11Z"/>
            <path class="cls-18" d="M82.34,73.78c-1.66,1.55-3.22,1.45-5.34,1.33-1.7-1.1-3.15-2.74-1.71-4.15.54-.96.88-2.09,1.9-2.82,1.59,1.43,2.11,5.16,5.15,5.64Z"/>
            <path class="cls-91" d="M77,75.11c-2.48-.15-3.12-.96-4.57-2.52.43-.55.47-1.3.39-1.92.84.03,1.67.13,2.48.3,1.23,1.17,2.52,2.64,1.71,4.15Z"/>
            <path class="cls-9" d="M87.68,72.45c-.75.74-1.73.14-2.48-.3l-1.05-1.11c-.51-1.2-.02-1.46,1.43-.81l2.09,2.22Z"/>
            <path class="cls-73" d="M85.59,70.23l-1.43.81c-.97-.29-2.33-.5-2.66-1.05-.58-.96-.65-2.36,1.02-2.04,1.05.71,2.25,1.41,3.07,2.28Z"/>
          </g>
        </g>
      </g>
    </g>
    <g>
      <g>
        <path class="cls-83" d="M10.13,55.98c-2.55.56-3.99,1.78-4.33,3.65-.34,2.77.22,7.01,2.5,8.09-1.73.9-3.29,2.9-2.86,4.7,5.98-.12,9.06-6.35,11.91-11.08,2.74-2.78,5.54-7.21,6.2-10.87.11-4.11-.19-7.95-.91-11.53.25-1.25-.25-1.58-1.45-1.03-2.66-1.49-4.65.65-2.05,2.9-3.76-.73-5.87,1.42-6.35,6.44-2.1,1.29-2.88,6.02-2.66,8.73Z"/>
        <path class="cls-42" d="M7.93,41.58c.25,1.27-.81,2.71-.87,3.97.54.18,1.01.77,1.58.88.77,4.71,2.16,4.98,4.15.83,4.1.85,4.39-3.67,6.35-6.44.25-2.28-1.95-3.29-6.6-3.02-1.99-3.86-3.82.28-4.6,3.78Z"/>
        <path class="cls-93" d="M9.06,48.9c-4.49,8.63-4.13,10.99,1.07,7.08,1.61-2.19,5.11-2.54,6.5-5.77-.37-.91-2.09-.51-2.84-.8-.69-.27-1.02-1.09-1-2.15-1.37-.36-2.76-.57-4.15-.83.16.82.18,1.67.42,2.47Z"/>
        <path class="cls-24" d="M4.35,58.61c-.66,1.49-.13,1.78,1.45,1.03.75-.57,1.97-.64,3.21-.94,1.25-.3,1.53-1.33,1.12-2.71-1-.34-2.08.57-3.64-.15,1.78-2.82,3.26-4.61,2.57-6.94-2.29,2.84-4.39,6-4.71,9.71Z"/>
        <path class="cls-6" d="M23.54,50.48c.77-1.29,2.25-2.87,2.45-4.4,4.79-1.41,3.67-3.78-.63-4.85.79-1.47-1.11-2.68-2.74-2.28-.81-.56-2.86,10.22-3,9.98,1.03,1.75,2.69,1.24,3.92,1.55Z"/>
      </g>
      <g>
        <path class="cls-92" d="M1.63,71.51c-2.61,1-1.94,3.11.9,2.66-.66,1.15-.35,2.1.9,2.66.7,1.08,1.13.89,1.33-.45,1.89-.47.82-2.92-.02-4.44,2.72,1.25,3.9.36,3.54-2.68,1.44,2.36,2.2,1.71,2.66-.9.59,0,.88-.6.88-1.78-4.05-2.35-7.39,2.03-10.19,4.93Z"/>
        <path class="cls-103" d="M11.39,69.69c.74-.69.57-1.13-.45-1.33-.91.14-1.75.83-2.66.9-2.96,1.53-.2,5.69,2.36,6.64.49-.1,1.2-.43,1.6-.72,2.16,1.85,2.93.85,1.37-1.62.4-.55.27-.89-.39-1-.62-.62-1.23-1.58-1.83-2.87Z"/>
        <path class="cls-99" d="M15.4,72.78c-1.11-.93-1.71-.67-1.79.78-.47.5-.81,1.21-1.37,1.62.45,1.02.14,3.4,2.22,3.61,2.3.23,2.29-1.97,2.38-3.42.05-.88-.33-1.84-1.44-2.59Z"/>
        <path class="cls-4" d="M10.64,75.91c-1.67-2.02-2.75-2.17-3.22-.42-1.29-.14-1.52.5-.88,1.78-.51,1.41.89,2.77,2.29,2.01.84-.17,2.29-.37,2.57-1.45.16-.61-.65-1.43-.76-1.91Z"/>
        <path class="cls-101" d="M9.22,80.8c-2.05,1.38-1.3,1.94.9,2.66.45-.06.88-.36,1.33-.45.44-.34,2.33-.86,2.38-1.59.12-1.66-1.68-2.12-2.49-1.41-.37.31-1.21.66-2.12.79Z"/>
        <path class="cls-58" d="M6.54,77.26c.73-1.98-.2-2.49-1.78-.88-.87,2.91,1.98,7.52,4.46,4.42-.07-.52-.29-1.01-.39-1.53l-2.29-2.01Z"/>
        <path class="cls-86" d="M14.05,68.79c-.77-1.03-1.21-.87-1.33.45-1.18.92-1.02,2.79.5,3.32-.33.63-.55,1.02.39,1,.56-.33,1.16-.6,1.79-.78l-.45-1.33c-.2-.9-.77-1.74-.9-2.66Z"/>
        <path class="cls-36" d="M11.82,66.58c-.66,1.07-.29,2.4.9,2.66l1.33-.45c-.21-1.49-1.23-1.63-2.23-2.21Z"/>
        <path class="cls-2" d="M14.95,71.45c.1.46.32.88.45,1.33.57-.79.71-1.75-.45-1.33Z"/>
        <path class="cls-18" d="M8.28,69.26c-2.05.16-2.68,1.24-3.54,2.68.14,1.75.84,3.65,2.68,3.54,1.04.21,2.14.65,3.22.42-.46-1.87-3.34-4.39-2.36-6.64Z"/>
        <path class="cls-91" d="M4.74,71.94c-1.01,1.69-.62,2.58.02,4.44.66.04,1.3.46,1.78.88.36-.56.65-1.16.88-1.78-.41-1.48-1.06-3.18-2.68-3.54Z"/>
        <path class="cls-9" d="M11.82,66.58c-.96.05-.9,1.04-.88,1.78l.45,1.33c.77,1.03,1.21.87,1.33-.45l-.9-2.66Z"/>
        <path class="cls-73" d="M12.72,69.24l-1.33.45c-.2.8-.64,1.81-.34,2.34.54.94,1.68,1.8,2.17.54-.11-1.1-.15-2.28-.5-3.32Z"/>
      </g>
    </g>
    <path class="cls-94" d="M34.27,32.22c.45-1.47,2.61-1.28,3.55,0,.5-1.55,1.1-1.53,1.77,0,2.68.93,3.63,4.72,2.85,11.4l.95,2.84c.28-1.57.8-1.54,1.52-.04.96.54.93,1.13,0,1.77-4.8,4.92-23.87,5.6-24.84-3.69-2.27-4.02-.68-8.63,1.72-12.47-.18-3.62,3.15-4.09,5.66-1.58,3.49-3.2,5.33-2.76,6.8,1.77Z"/>
    <path class="cls-105" d="M27.89,68.99c.3-1.63.71-1.53,1.22.15,3.26.08,4.98.78,5.16,2.11,3.74.47,7.29,1.06,10.65,1.77,0-3.87,4.64-4.33,5.32,0,0,1.16-.07,2.4.15,3.55-3.08-3.16-6.71.39-10.35.6l-.61,2.37c-3.35.09-5.04,2-5.07,5.71-.97,6.2-2.62,12.24-5.41,3.73-.94.3-1.78.46-2.29.12-2.11-1.4-3.33-16.4-2.91-19.94,1-5.06,2.3-4.88,4.14-.19Z"/>
    <path class="cls-76" d="M46.24,67.83c2.09,3.05-.25,4.38-2.78,1.65-2.43,1.41-10.52,2.19-9.19-1.98,2.05-3.61,1.24-5.15-2.45-4.61-1.06,2.07-2.37,4.1-3.94,6.1-1.41.54-2.87-.93-4.14.19-2.98-2.26.34-6.41,0-8.8-.61-2.17-.55-4.17.2-6,18.91-2.39,26.35,2.09,22.3,13.46Z"/>
    <path class="cls-38" d="M44.91,51.76c4.65-3.92,6.1.15,3.77,4.82,4.34,1.68,4.79,3.62,1.36,5.8.83,2.63,1.48,5.11-1.78,4.27,1.6,3.06.44,3.78-2.01,1.18-1.21-3.04-.63-6.29-2.04-8.17-2.35-3.13-6.31-3.8-9.85-4.11-5.3-.48-8.81.58-10.6,4.84-1.56-3.33-2.95-6.86-3.59-10.63,7.5,1.79,15.27,1.96,23.32.54l1.43,1.47Z"/>
    <path class="cls-29" d="M44.92,48.19c4.71.58,4.5,2.22,0,3.57-6.1,1.2-21.16,4.63-24.75-2.01-.3-1.74-.99-3.64-.07-5.25,2.85,6.5,22.55,4.64,24.84,3.69Z"/>
    <path class="cls-72" d="M50.03,4.12c3.64-.1,4.73,1.81,3.6,5.16,2.61,1.62,1.3,4.67-1.62,3.42-.83,4.87-6.25,3.26-5.19-1.14-2.15.78-4.56.57-7.24-.63-5.88,3.79-5.79,2.21-3.54-3.56v-1.77c3.9-2.55,9.87-3.08,13.98-1.49Z"/>
    <path class="cls-56" d="M55.39,2.65c1.79,2.65,9.72,7.3,8,12.28-.49,1.41-3.5.68-4.12,1.6-2.85,2-5,1.52-3.7-2.05-1.7-.15-1.82-1.51-.37-4.09l-1.56-1.11c-2.35-.44-3.53-2.89-3.6-5.16-1.41-.95-1.2-1.57.54-1.88-1.54-.36-1.44-.83.16-1.41,1.4.18,3.29,1.55,4.66,1.82Z"/>
    <path class="cls-60" d="M35.84,18.25c2.29,4.55,3.76,9.58-1.57,12.19,1.51.59,1.51,1.18,0,1.77-2.39,0-4.8-.43-6.8-1.77-3.81-.91-3.26-3.37,1.65-7.37,1.99-1.56,3.34-4.47,5.04-6.37,1.48-.91,1.99-.32,1.68,1.55Z"/>
    <path class="cls-11" d="M73.31,136.9c-.5,1.55-1.1,1.53-1.77,0l-7.1-1.77-2.23-.52c-1.56-.3-1.53-.81-.02-1.5,1.94.09,5.21.81,7.74-.04,1.68-.57,1.94-3.28,3.5-5.04-.23,2.95-.1,5.92-.13,8.88Z"/>
    <path class="cls-45" d="M64.72,52.06c-3.49,4.69.32,11.47-4.08,15.47l.55-15.5c.87-.73,2.8-.02,3.53.03Z"/>
    <path class="cls-85" d="M50.24,71.25v1.77h-5.32c-1.57-.29-2.21-.51-1.39-1.94-.79-.55-.82-1.08-.06-1.61l2.78-1.65c.74-.26,1.44-.64,2.01-1.18,2.85-1.78,4.34,2.83,1.99,4.61Z"/>
    <path class="cls-54" d="M50.57,2.24c-.07.63-.55,1.25-.54,1.88l-13.98,1.49,3.55-3.55c3.32-1.44,7.91-1.44,10.97.18Z"/>
    <path class="cls-96" d="M16.53,64.16c-.74-.52-.7-1.11,0-1.77v-14.19c3.14,3.9,2.94,11.94,0,15.97Z"/>
    <path class="cls-46" d="M39.59,10.94c2.07,3.45-1.76,6.74-5.43,5.76-3.29-2.49.03-6.61,1.89-9.32-.04.74-.13,1.71.27,2.5.56,1.11,2.11,1.2,3.27,1.06Z"/>
    <path class="cls-82" d="M50.73.83l-.16,1.41-10.97-.18c2.3-3.37,7.52-1.69,11.13-1.22Z"/>
    <g>
      <path class="cls-19" d="M81.25,153.53c-1.24-.53-2.14-2.73-5.28-3.83-3.14-1.1-2.97-2.44-3-3.21s-.19-3.97-.43-5.65-2.73-2.73-3.78-2.11-2.58,4.74-4.83,6.41-5.65,11.46-4.64,12.02,5.74,1.48,9,1.96c3.26.48,11.59-.39,12.69-1.25,1.1-.86,2.78-2.05,2.3-2.53s-2.01-1.82-2.01-1.82Z"/>
      <path class="cls-55" d="M62.21,134.61c.81-1.23,1.72-.76,2.23.52,4.09,1.7,5.03,5.67,2.8,11.93l.98,2.04c.52-.05,1.09.04,1.61.07,1.79,3.62-4.51,3.8-7.4,1.97-.28,1.58-.81,1.56-1.6.07-1.56-.47-1.64-1.11-.24-1.93-3.82.51-2.88-9.37-2.49-13.14.06-.53.5-1.02,1.05-1.5.5-2.52,1.51-1.95,3.06-.03Z"/>
      <path class="cls-20" d="M57.9,155.86c1.2-3.13,5.14-3.32,5.47.43,1.86.09,3.91.96,5.77.57,1.58.18,1.59.68.13,1.48.34,2.06-1.31,3.02-3.06,3.41-4.19-2.33-9.49-2.41-14.2-1.43v-2.11c-.71-1.51-.04-2.04,1.78-1.77-.39-4.94,2.13-5.05,4.11-.56Z"/>
      <path class="cls-106" d="M87.69,159.97c-.61.72-1.27.7-1.96,0-5.69-.73-11.17-1.28-16.46-1.63l-.13-1.48c4.34-.91,9.3.91,13.03-2.21h1.77c1.11.74,3.25.06,4.59,1.51,1.25,1.35-.25,2.21-.85,3.81Z"/>
      <path class="cls-21" d="M71.54,136.9c.73,2.63.74,6.02-1.77,7.1-1.44,1.29-1.81,3.23-1.55,5.09-4.41.44.16-8.8-3.78-13.97,2.35-1.04,7.81-1.63,7.1,1.77Z"/>
      <path class="cls-88" d="M85.73,159.97c-5.11.61-10.44,1.21-15.97,1.77h-3.55c.55-.95,1.55-3.57,3.06-3.41,5.49.59,12.27-2.26,16.46,1.63Z"/>
      <path class="cls-3" d="M85.73,159.97h1.96c-.44,1.17-1.59,1.85-3.63,1.84l-14.3-.07c-.13-1.45,1.59-1.79,3.46-1.79l12.5.02Z"/>
      <path class="cls-89" d="M62.42,151.13c1.94.3,2.66,1.03,2.15,2.21-.07,1.09-.55,2.08-1.2,2.95-1.82-.08-3.67-.68-5.47-.43-5.12-2.81-1.97-6.74,2.92-4.65l1.6-.07Z"/>
      <path class="cls-100" d="M69.76,144c.05-2.48.45-4.97,1.77-7.1h1.77l-.07,8.74c-2.16.57-3.65.18-3.48-1.64Z"/>
      <path class="cls-109" d="M83.96,154.65h-1.77c-1.11.13-5.7.5-5.37-1.89,1.62-4.2,5.26.62,7.15,1.89Z"/>
      <path class="cls-97" d="M64.57,153.34c-.77-.69-1.49-1.42-2.15-2.21,2.56-.12,6.21.93,7.4-1.97,1.7.1,2.15,1.47,1.6,3.53l-6.85.65Z"/>
      <path class="cls-23" d="M59.15,134.64c2.16,4.8-1.34,10.09,1.44,14.64-2.97,4.45-4.9,4.85-6.4-.58,3.78-4.55,3.93-10.19,1.15-15.35,1.34.18,2.67.53,3.81,1.29Z"/>
      <path class="cls-22" d="M60.59,149.28c.32.52,0,1.36.24,1.93-1.96.72-2.92,2.63-2.92,4.65l-4.11.56c-2.82.27-3.02-2.91-1.83-5.44.8-.54,1.61-1.53,2.23-2.28,2.1.47,4.25.66,6.4.58Z"/>
      <path class="cls-47" d="M53.79,156.42c-.55.63-1.15,1.22-1.77,1.77-1.02-.75-1.62-1.82-1.83-2.9-.37-1.95.3-3.34,1.77-4.32.3,1.91.85,3.77,1.83,5.44Z"/>
    </g>
    <path class="cls-68" d="M34.27,131.58c-.7,1.77-1.12,3.56-3.55,3.55.22-2.1-1.99-2.01-3.55-1.77,1.7-2.18,4.57-2.04,7.1-1.77Z"/>
    <g>
      <path class="cls-64" d="M24.98,101.92c-2.22,6.7-6.18,17.76-8.13,20.75s-2.71,6.63-.22,7.59,6.51,2.87,9.19,2.68,4.51-2.35,9.49-4.76c4.99-2.41,1.2-4.61,3.23-10.74,2.02-6.13,3.55-10.16,1.06-14.75-2.48-4.6-7.32-9.69-9.72-13.06-2.4-3.38-5.2,1.91-5.11,4.9.09,2.99.21,7.4.21,7.4Z"/>
      <path class="cls-68" d="M25.4,99.64c.68,6.15,1.27,6.15,1.77,0-1.13-1.15-1.08-2.36.21-3.42,1.69-6.03,5.38-4.25,11.08,5.34l2.91,1.62c3.37,6.8.92,19.11-5.02,25-3.8,2.39-11.94,5.83-14.51,1.63-1.83-1.58-4.42-2.87-4.9-5.19-1.11-5.41,6.64-10.01,6.65-16.02l.03-21.37c4.73-.71,3.29,9.34,1.77,12.42Z"/>
      <path class="cls-64" d="M28.95,89c3.06,3.48,2.7,5.34-1.56,7.22.13,1.07-.05,2.35-.21,3.42-.5,1.55-1.1,1.53-1.77,0,.48-4.57.35-8.58-1.77-12.42,1.25-7.8-4.77-12.99.12-18.05,6.21,13.45-3.05,5.12,5.2,19.82Z"/>
      <path class="cls-48" d="M34.27,131.58c-1.59,1.3-3.96,1.89-7.1,1.77,1.26,2.04-1.75,2.95-3.55,1.77-.46-1.57-.41-4.14-1.77-5.32,5.07.67,9.76-.28,14.51-1.63-.53,1.45-1.63,2.27-2.09,3.41Z"/>
      <path class="cls-19" d="M45.4,105.35c-2.61,5.93.37,20.16-9.04,22.83l4.65-12.69c1.49-4.07-2.27-8.86.37-12.31-2.91-2.15-2.05-3.37,1.49-2.05,1.24,1.12,2.08,2.63,2.53,4.23Z"/>
      <path class="cls-39" d="M42.87,101.12c-.93.34-.98,1.4-1.49,2.05-2.08-.24-1.68,2.12-3.72,4.35-2.13-2.43-6.15-16.18-10.27-11.3-.32-2.56.1-5.05,1.56-7.22,1.22,1.05,2.5,1.27,3.17.18.79-1.27.98-3.28,2.24-3.91-1.47,7.03,3.58,11.4,8.51,15.86Z"/>
      <path class="cls-7" d="M25.4,99.64h1.77c-.52,3.56,1.29,7.34-1.09,10.84-2.07-4.43.06-7.74-.69-10.84Z"/>
    </g>
    <g>
      <path class="cls-12" d="M73.1,123.02c-2.28,10.77-13.85,2.29-6.83-3.86-8.01.69-10.29-4.05-6.85-14.22-5.2-1.76-6.47-4.05-3.79-6.87.25-4.82-1.93-9.04-6.53-12.65l2.81-3.51c4.02.33,5.05,6.02,8.1,8,7.14,4.62,9.77,9.1,11.64,17.2,1.29,5.55,4.35,10.6,1.45,15.92Z"/>
      <path class="cls-104" d="M50.39,76.58c.34,1.78,1.37,3.49,1.51,5.32.57,7.4,8.73,5.89,6.76,11.96-.48,1.48-.52,3.79-3.04,4.2-3.08,2.73-6.8.96-11.16-5.32-14.12,1.46-8.87-7.02-1.63-10.76-4.79.93-5.96-1.1-2.79-4.8.33-3.49,9.61-4.54,10.35-.6Z"/>
      <path class="cls-71" d="M66.27,119.16c.57,1.47.96,5,2.85,6.19,1.07.67,2.55-2.17,3.99-2.33-.63,1.29.45,3.58.34,5.01-.86,8.25-4.61,8.2-11.24,5.08-6.59,1.32-8.38-9.5-4.85-13.94l1.29-2.06c1.93,1.4,4.48,2.09,7.64,2.06Z"/>
      <path class="cls-78" d="M42.84,81.98c3.65,3.48-5.38,3.19-5.67,6.78,1.41,4.94,5.44-1.32,7.01-.52,4.37,2.22,7.17,7.97,11.45,9.82.82,2.59,6.23,3.64,3.79,6.87.45,3.39-.86,3.55-2.39.38-1.39,5.03-5.8,5.1-8.7,1.21-.89-.6-1.86-1.1-2.94-1.18-3.19,1.32-3.59-1.28-2.53-4.23-6.99,2.51-14.5-10.17-8.51-15.86-1.54-5.51,5.49-7.39,8.48-3.28Z"/>
      <path class="cls-63" d="M57.03,105.32c3.57.82,3.94,3.89,1.1,9.21,1.2,3.02.93,4.57-.8,4.64-.29,3.52-.95,4.83-3.55,1.89-4.97-3.9-1.16-11.52-5.46-14.53,2.73-1.43,5.78-.75,8.7-1.21Z"/>
      <path class="cls-75" d="M62.19,133.1l.02,1.5-3.06.03c-.38,2.21-1.65,1.79-3.81-1.29-2.03-3.77-1.82-8.09-1.55-12.3l3.55-1.89c.96,4.98-.57,10.55,4.85,13.94Z"/>
      <path class="cls-32" d="M66.27,119.16c-2.9,1.1-6.01,1.03-8.93,0-.91-4.72-.45-8.86-.31-13.85l2.39-.38c.89,2.36,4.02.71,5.84,3.61-1.52,2.71-5.17,1.33-5.21,3.35-.02,1.14-1.4,3.96-.45,4.66,2.31,1.7,5.78.28,6.67,2.6Z"/>
    </g>
    <path class="cls-40" d="M43.15,32.22c1.6,3.74,1.37,10.13.25,14.24-4.24-1.76.08-11.77-3.8-14.24-1.17-.52-1.14-1.11,0-1.77.51-1.41,1.1-1.39,1.77,0,2.24-1.56,3.11-.74,1.77,1.77Z"/>
    <path class="cls-107" d="M44.92,46.41l-1.52.04-.25-14.24c.5-1.55,1.1-1.53,1.77,0v14.19Z"/>
    <path class="cls-87" d="M37.82,30.44c1.17.52,1.14,1.11,0,1.77h-3.55c.08-.57-.13-1.21,0-1.77.5-1.55,1.1-1.53,1.77,0h1.77Z"/>
    <path class="cls-28" d="M39.6,30.44v1.77h-1.77v-1.77c-.81-.55-.78-1.14,0-1.77.06-1.67.61-1.75,1.62-.32,1.41-.15,1.18.99.15,2.1Z"/>
    <path class="cls-52" d="M52.02,12.7c2.49-2.35,3.41-1.36,1.77,1.77,3.43,1.33,3.19,3.76,0,5.32-.9.52-1.81,2.32-3.22,2.28-3.52-.46-6.59-1.82-9.2-4.06-6.19-1.9,1.16-8.59,5.45-6.46,1.33,1.3,3.48,1.11,5.19,1.14Z"/>
    <path class="cls-14" d="M50.58,22.08c.17.98,1.43,1.93,1.44,3.04-.52.66-1.09,1.28-1.77,1.77-.48,4.58-6.76,4.8-9.23,1.42-1.55-.38-1.5-.9.03-1.57-1.54-5.7,6.3-9.23,9.52-4.66Z"/>
    <path class="cls-70" d="M59.26,16.52c-1.12,1.77-3.15,3.21-5.47,3.27v-5.32c.5-1.55,1.1-1.53,1.77,0,1.03,1,2.32,1.65,3.7,2.05Z"/>
    <path class="cls-84" d="M40.04,77.18c1.16,1.46,2.07,3.09,2.79,4.8-3,.51-5.77,1.91-8.48,3.28-1.2-2.37-3.32-4.15-5.77-7.05,3.92-3.36,7.81-.83,11.46-1.04Z"/>
    <path class="cls-108" d="M34.27,67.5c.67,2.88-2.94,2.96-5.16,1.65-.39.03-.87-.29-1.22-.15-.41-2.13-1.24-4.63-.43-6.84.52-1.42,2.9-3.03,5.27-2.84,4.73.37,9.09,3.7,10.77,7.87-3.87,1.42-6.64-.35-9.23.32Z"/>
    <path class="cls-43" d="M43.47,69.48c.78.52.87,1.06.06,1.61-1.19,2.11-6.45.89-9.25.16-1.13-.95-4.61.38-5.16-2.11,1.97.53,3.5-1.22,5.16-1.65,1.3,3.48,6.1,1.68,9.19,1.98Z"/>
    <path class="cls-81" d="M43.53,71.09c.89.22,1.43,1.03,1.39,1.94-3.82,0-7.62.77-10.65-1.77l9.25-.16Z"/>
    <path class="cls-102" d="M46.83,11.57c-2.8,1.22-5.62,3.13-5.45,6.46-.6,1.57-1.2,1.49-1.78-.15-1,4.69-2.25,4.82-3.74.38-.51-.57-1.08-1.09-1.68-1.55,1.73-1.94,2.95-4.44,5.43-5.76,1.38-.74,3.01-1.32,4.5-1.5,1.53-.18,1.93,1.34,2.74,2.13Z"/>
    <path class="cls-13" d="M55.57,14.48h-1.77l-1.77-1.77c1.4-.53,1.7-2.07,1.62-3.42.52-.41,1.01-1.37,1.49-1.7.67-.46,2.61-.19,2.27,1.5-.47,2.38-1.92,3.73-1.83,5.4Z"/>
    <path class="cls-8" d="M39.59,17.88c2.93,2.28,5.36,6.27,1.46,8.87l-.03,1.57c-.12,1.43-.67,1.35-1.57.03-.52.06-1.14.12-1.62.32l-1.77,1.77h-1.77c.91-4.01,1.1-8.12,1.57-12.19l3.74-.38Z"/>
    <g>
      <path class="cls-23" d="M13.25,155.48c-4-1.38-5.49-.5-5.65-2.14-.16-1.64-1.62-1.71.06-4.02,1.69-2.31,1.34-5.7,2.33-7.02.98-1.33,3.8-9.21,3.69-10.87s.53-3.24,1.31-3.26,3.77-.41,4.67,1.13c.9,1.53,3.25,1.68,4.32,3.09s3.19,4.4,1.42,6.23c-1.77,1.83-.73.54-3.41,2.36s-8.74,14.5-8.74,14.5Z"/>
      <path class="cls-30" d="M21.85,138.68c2.52.4,2.31,1.74-.41,2.2-1.47,2.85-3.11,5.66-4.92,8.45-.5,1.55-1.1,1.53-1.77,0-1.62-1.52-2.37-3,0-3.55-1.29-3.38-1.35-7.27,0-10.65v-1.98c3.9-.09,5.56,1.59,7.1,5.53Z"/>
      <path class="cls-44" d="M18.31,152.87c1.58.33,1.52.93,0,1.77,5.96.63,11.87,1.22,17.74,1.77.13,1.41-1.61,1.8-3.45,1.8l-17.84-.02c-.37-1.09-.13-2.43-.43-3.55-1.57-.6-1.49-1.19.14-1.77-.27-2.69.98-2.6,2.06,0h1.77Z"/>
      <path class="cls-59" d="M14.76,149.32h1.77c.87-3.85,2.06-4.45,3.55-1.77,3.59,2.82,2.41,4.59-3.55,5.32h-2.06c-1.68,1.94-3.42.97-4.48-1.26-.46-.8-1.94-1.3-2.33-2.29-.32-2.94.56-5.23,3.55-3.55,1.78-.1,2.96,1.08,3.55,3.55Z"/>
      <path class="cls-25" d="M25.4,142.23c-1.16-.47-1.12-1.07,0-1.77-1.17-.26-1.93-.44-1.77-1.77v-1.77c1.85-1.65,4.81-3.02,7.1-1.77-.3,3.22-2.27,5.98-5.32,7.1Z"/>
      <path class="cls-16" d="M14.47,152.87c.07.57-.3,1.22-.14,1.77-1.19.68-2.14,2.4-3.16.99-.93-1.3-.83-2.74-1.18-4.03,1.64-.42,3.45-.19,4.48,1.26Z"/>
      <path class="cls-80" d="M30.73,135.13c-2.3,1.03-4.53,2.15-7.1,1.77,0-.58.16-1.22,0-1.77l3.55-1.77c3.17-1.59,6.6-1.34,3.55,1.77Z"/>
      <path class="cls-95" d="M25.4,140.45c-.5,1.55-1.1,1.53-1.77,0-.25,2.23-1.15,2.52-2.18.43l.41-2.2c.56.11,1.23-.17,1.77,0,.79.25,1.58.95,1.77,1.77Z"/>
      <path class="cls-65" d="M30.73,149.32c.28,1.46-.31,2.05-1.77,1.77-7.22,2.95-11.28-1.6-5.32-7.1.46-1.59,1.05-1.47,1.77.15,3.01.45,4.06,2.89,5.32,5.17Z"/>
      <path class="cls-34" d="M32.5,154.65c.5-1.55,1.1-1.53,1.77,0,1.17-.23,2.01.61,1.77,1.77l-15.99-.06c-1.3,0-1.93-.89-1.75-1.72,3.69-1.56,9.96-1.33,14.19,0Z"/>
      <path class="cls-77" d="M34.27,154.65h-1.77l-3.55-1.77c-1.55-.5-1.53-1.1,0-1.77.35-.8.97-1.43,1.77-1.77.98,1.76,3.67,2.82,3.55,5.32Z"/>
      <path class="cls-49" d="M25.4,142.23v1.92c-.58-.09-1.19-.15-1.77-.15-1.53-.51-1.52-2.82,0-3.55h1.77c.13.56,0,1.2,0,1.77Z"/>
      <path class="cls-15" d="M14.76,145.78v3.55c-1.76-.46-2.94-1.88-3.55-3.55.61-1.49-.47-3.86-.19-5.47.7-.47,1.23-1.19,1.96-1.63.72,2.05,1.32,4.42,1.77,7.1Z"/>
      <path class="cls-5" d="M14.76,145.78c-1.93-1.84-2.1-4.57-1.77-7.1.18-1.35.71-2.67,1.77-3.55v10.65Z"/>
      <path class="cls-62" d="M21.45,140.88c1.7-.25,1.66,1.98.41,3.12.52,1.56-.11,3.42-1.77,3.55l-3.55,1.77c.22-1.76-.24-4.93.49-7.25.39-1.24,2.88-.89,4.43-1.19Z"/>
      <path class="cls-37" d="M23.63,144c-1.44,1.69-1.19,3.71-.46,5,1.31,2.33,3.9,2.58,5.78,2.1v1.77c-2.58,1.56-8.07,1.31-10.65,0h-1.77c1.92-1.22,3.22-3.07,3.55-5.32.19-1.33.91-2.55,1.77-3.55.5-1.55,1.1-1.53,1.77,0Z"/>
      <path class="cls-74" d="M28.95,152.87c1.41,0,3.19.14,3.55,1.77h-14.19c.13-.57-.06-1.19,0-1.77h10.65Z"/>
      <path class="cls-98" d="M23.63,144h-1.77l-.41-3.12c.72-.14,1.45-.43,2.18-.43v3.55Z"/>
    </g>
    <path class="cls-35" d="M41.37,30.44h-1.77l-.15-2.1c.49-.06,1.08-.11,1.57-.03l.36,2.13Z"/>
    <path class="cls-51" d="M37.82,30.44h-1.77c.43-.7.98-1.45,1.77-1.77v1.77Z"/>
    <path class="cls-53" d="M50.58,22.08c-3.81-.11-6.21,3.17-9.52,4.66-1.22-3.02-4.04-6.06-1.46-8.87.57-.06,1.23.29,1.78.15,1.98-.5,4.01-.89,6.17-.48,2.2.41,2.85,2.38,3.04,4.54Z"/>
    <g>
      <path class="cls-67" d="M62.41,53.94c-.02,4.68-.61,9.21-1.78,13.59l-1.09-.06c-4.15,4.25-8.2-6.17-3.98-8.64-.51-2.34-1.05-4.87,1.48-5.63-5.92-1.27-5.27-5.14.62-5.24.41-1.06-3.11-2.55-2.65-4.09.2-.67-1.85-3.86-1.42-5.11.45-1.29,3.39-.61,3.45.11.4,5.21,5.36,16.34,5.37,15.07Z"/>
      <path class="cls-79" d="M53.78,53.34c1.69.81,2.29,2.64,1.79,5.5,2.05,2.74.6,7.09,3.98,8.64-.24,3.38-2.93,6.24-5.78,5.57-2.65-2.77-3.86-6.89-3.73-10.66-1.38-1.48-.62-4.14-1.36-5.8l1.31-.8c-4.51-7.32,5.9-10.01,3.79-2.44Z"/>
      <path class="cls-57" d="M53.76,73.04c-1.26-.3-2.32-1.35-3.52-1.79,0-1.7-.72-3.41-1.99-4.61l1.78-4.27c2.71,2.89,2.8,6.93,3.73,10.66Z"/>
      <path class="cls-1" d="M46.7,46.41c2.72,2.72,1.63,3.78-1.77,1.77v-1.77c-1.29-3.93-1.43-10.25,0-14.19.5-1.55,1.1-1.53,1.77,0,.98.24,1.75.49,1.77.79.17,2.53-.53,9.45-.9,12.3-.05.4-.42.76-.87,1.11Z"/>
      <path class="cls-33" d="M64.44,30.62c-4.37,0-6.21,4.95-7.1,8.7h-3.55c-1.17-.52-1.14-1.11,0-1.77-1.55-.5-1.53-1.1,0-1.77,2.16-4.13,2.08-4.62,0-7.1-.79,2.99-1.38,4.63-3.55,1.77-4.71-.34-4.71-1.53,0-3.55-.41-1.6.18-2.19,1.77-1.77,3.96,2.4,9.08,2.01,12.42,5.5Z"/>
      <path class="cls-41" d="M53.79,39.32v1.77l.27,3.55c.32,3.43-1.05,3.43-2.05,0-2.97.12-2.65-5.98,0-7.1.5-1.55,1.1-1.53,1.77,0v1.77Z"/>
      <path class="cls-69" d="M57.66,47.96c-1.53,1.35-1.07,3.46-.62,5.24-.58,3.28-2.44,3.56-3.26.14-1.6-2.34-2.83-2.34-2.68.62.47,1.27.66,2.52.88,3.83.09.55-.83,1.67-1.71.17-.33-.55-.95-1.06-1.58-1.39-.82-1.86-1.97-3.87-3.77-4.82v-3.57c.78-.32,1.78-.74,1.78-1.77.44-1.56,1.03-1.52,1.77,0,.49-2.91,1.33-4.14,3.55-1.77h2.05c1.82,0,2.35,2.48,3.6,3.32Z"/>
      <path class="cls-110" d="M57.04,53.2c.03,1.98-.32,3.98-1.48,5.63-1.22-1.63-2.43-3.19-1.79-5.5l3.26-.14Z"/>
      <path class="cls-66" d="M50.24,30.44c1.55.5,1.53,1.1,0,1.77-.52,4.05-2.55,3.96-3.55,0h-3.55l-1.77-1.77c-1.24-.26-1.27-1.23-.36-2.13,3.17.5,6.54.51,9.23-1.42v3.55Z"/>
      <path class="cls-50" d="M50.24,32.22c2.66.04,2.6,2.87,0,3.55.81,4,.22,7.55-1.77,10.65-.58.09-1.19-.06-1.77,0v-14.19h3.55Z"/>
      <path class="cls-27" d="M53.79,35.77v1.77h-1.77c-1.51.73-2.05.05-1.77-1.77v-5.32c1.15-.65,2.32-1.29,3.55-1.77,3.03.48,2.19,5.11,0,7.1Z"/>
      <path class="cls-17" d="M53.79,35.77v-7.1c3.12-1.22,4.25,1.58,3.51,4.28-.33,1.21-2.09,2.14-3.51,2.81Z"/>
      <path class="cls-26" d="M52.02,37.54v7.1c-.96.95-2.21,1.56-3.55,1.77,0-3.66-.98-7.8,1.77-10.65.62.56,1.21,1.15,1.77,1.77Z"/>
    </g>
    <g>
      <path class="cls-10" d="M18.53,62.38c-.54,3.06-1.13,6.01-1.77,8.87-4.15,6.15.91-28.64,1.77-23.07,1.27,4.47,1.93,9.79,0,14.19Z"/>
      <path class="cls-31" d="M29.12,23.07c-.91,2.36-1.4,4.86-1.65,7.37-1.77.9-3.68,1.49-5.66,1.58-.53-.67-1.2-1.2-1.96-1.58l-.07-2.97c3.21-.61,6.67-2.3,9.35-4.4Z"/>
      <path class="cls-61" d="M17.2,68.59c-.13,3.09,3,8.11-1.11,9.4-.19-3.81-2.84-9,.81-11.67.1.75.32,1.52.29,2.28Z"/>
      <path class="cls-50" d="M28.58,32.22c-2.73-4.02-2.98-5.75-5.83-4.02-2.85,1.72-6.98,21.15-6.75,27.82.23,6.67-.24,19.69.5,20.44s2.22,1.71,5.79-2.4c3.56-4.12.98-7.1,3.6-19.68s2.7-22.16,2.7-22.16Z"/>
      <path class="cls-26" d="M20.36,40.69c-.05-1.2-1.11-1.47-1.37-4.3s-2.5-6.99-1.48-8.12c1.03-1.13,2.37-2.32,4.09-1.85,1.72.48,3.26,3.21,3.16,5.17s-2.15,8.65-2.82,9.5-3.43,4.09-3.72,2.3c-.3-1.79,1.45-2.18,1.41-2.44s.73-.26.73-.26Z"/>
    </g>
  </g>
</svg>