<?xml version="1.0" encoding="UTF-8"?>
<svg id="Enemy" xmlns="http://www.w3.org/2000/svg" viewBox="0 0 176.84 112.3">
  <defs>
    <style>
      .cls-1 {
        fill: #161c1f;
      }

      .cls-2 {
        fill: #3b3e4a;
      }

      .cls-3 {
        fill: #f7af80;
      }

      .cls-4 {
        fill: #f8cc49;
      }

      .cls-5 {
        fill: #08090f;
      }

      .cls-6 {
        fill: #1d1a19;
      }

      .cls-7 {
        fill: #6e7379;
      }

      .cls-8 {
        fill: #18202a;
      }

      .cls-9 {
        fill: #d29669;
      }

      .cls-10 {
        fill: none;
      }

      .cls-11 {
        fill: #883819;
      }

      .cls-12 {
        fill: #969fb8;
      }

      .cls-13 {
        fill: #43548a;
      }

      .cls-14 {
        fill: #0c0d12;
      }

      .cls-15 {
        fill: #f5c58b;
      }

      .cls-16 {
        fill: #1c2018;
      }

      .cls-17 {
        fill: #2b3c15;
      }

      .cls-18 {
        fill: #f2c03f;
      }

      .cls-19 {
        fill: #edc896;
      }

      .cls-20 {
        fill: #0aac19;
      }

      .cls-21 {
        fill: #34436c;
      }

      .cls-22 {
        fill: #a26814;
      }

      .cls-23 {
        fill: #111523;
      }

      .cls-24 {
        fill: #be7649;
      }

      .cls-25 {
        fill: #7f570e;
      }

      .cls-26 {
        fill: #1b1d28;
      }

      .cls-27 {
        fill: #1e1e2a;
      }

      .cls-28 {
        fill: #0e700e;
      }

      .cls-29 {
        fill: #47515f;
      }

      .cls-30 {
        fill: #1c1e28;
      }

      .cls-31 {
        fill: #535a69;
      }

      .cls-32 {
        fill: #e8966b;
      }

      .cls-33 {
        fill: #2c2c38;
      }

      .cls-34 {
        fill: #964513;
      }

      .cls-35 {
        fill: #151c25;
      }

      .cls-36 {
        fill: #be6634;
      }

      .cls-37 {
        fill: #eea175;
      }

      .cls-38 {
        fill: #191a23;
      }

      .cls-39 {
        fill: #373435;
      }
    </style>
  </defs>
  <g id="JumpingJunkie_preDefeat">
    <g id="head">
      <path class="cls-11" d="M13.15,12.96c0-.96,1.72-3.32,2.68-4.53.96-1.21,2.36-.7,3.96-.51,1.6.19,2.68,2.23,3.77,2.17,1.09-.06,2.49-.7,2.68.06s1.4,2.62,2.23,2.74c.83.13,2.49,1.28,3.13,1.34s1.72,1.47.83,2.62c-.89,1.15-2.55,6.45-3.64,6.96s-3.7,2.68-6.64,1.4-6,2.36-7.4,2.23-3.83-2.94-4.15-4.85c-.32-1.91-1.02-5.3-.32-6.57.7-1.28,2.87-3.06,2.87-3.06Z"/>
      <path class="cls-17" d="M17.36,7.4c0-1.79,1.53-5.62-.51-6.38s-7.15,1.02-10.47,3.83S0,15.32,0,18.13s.26,10.98,4.6,13.28,9.45,3.32,10.98.51,2.04-6.38,1.79-9.19,0-15.32,0-15.32Z"/>
      <path class="cls-10" d="M15.83,8.43c-1.53,1.28-4.34,5.36-8.43,5.36s-7.15,2.81-6.64,0S3.83,4.34,6.64,3.32,12.77,0,14.04,0s3.83,2.3,3.83,4.09-2.04,4.34-2.04,4.34Z"/>
      <path class="cls-20" d="M4.4,13.34c-1.34.29-2.3-.29-3.06,1.05s-1.05,5.74-.67,7.37,2.59,7.18,3.26,7.09,1.24-2.39,1.24-3.73-.77-11.78-.77-11.78Z"/>
      <path class="cls-28" d="M3.54,12.48c.67-1.37,4.98-2.11,6.22-2.11s3.35.57,3.35,1.82-1.44,3.45-2.2,5.46.19,4.5.29,5.55.96,4.12-1.05,4.12-4.4-1.05-4.98-2.2-2.3-11.27-1.63-12.64Z"/>
      <path class="cls-24" d="M33.36,23.84c.8,1.56.91,3.38.95,5.14.03,1.22.04,2.47-.38,3.61-.12.33-.28.65-.33.99-.05.32,0,.66-.1.96-.06.21-.19.39-.31.57-.44.64-.89,1.29-1.51,1.76s-1.43.76-2.18.57c-.59-.15-1.08-.56-1.43-1.05s-.59-1.05-.82-1.61c-.19-.45-.38-.9-.43-1.38-.07-.54.04-1.08.14-1.62.09-.46.17-.91.26-1.37.1-.51.2-1.03.38-1.52.36-.97,1.06-1.82,1.26-2.83.04-.19.06-.39.12-.58.26-.74,1.23-1.99,2.01-2.28.69-.25,2.03-.04,2.38.63Z"/>
      <path class="cls-11" d="M30.51,20.34c-.54.13-1.07.32-1.57.58-.13.07-.25.14-.35.25-.12.14-.17.32-.2.5-.16.83-.1,1.69.16,2.49.18.56.46,1.08.76,1.59.45.75.97,1.51,1.74,1.92,1.44.77,2.53-1.52,1.64-2.59-.49-.58-1.06-1.04-1.43-1.72-.5-.93-.63-1.99-.76-3.02Z"/>
      <path class="cls-3" d="M32.23,16.21c.56,2.27-1.92,4.21-3.45,4.91-.43.19-2.12.97-3.96.32-2.12-.75-3.57-3.08-3.57-5.81-.3-1.91.88-3.7,2.62-4.15,1.52-.39,3.19.33,4.02,1.79,2.17.08,3.94,1.34,4.34,2.94Z"/>
      <path d="M32.37,16.67c.06,1.17-.52,2.35-1.26,3.21-.25.27-.32.62-.58.99-.55.71-1.4.86-2.13,1.05-2.26.6-4.24,1.72-6.5,2.41-.8.28-1.77-.07-2.3-.69-.54-.54-1.04-1.18-1.83-1.16,0,0,0-.05,0-.05.83-.2,1.56.45,2.1.92.56.51,1.18.7,1.91.48,1.41-.46,2.87-1.06,4.37-1.43,1.32-.49,3.2-.57,4.05-1.77.34-.8.77-1.23,1.27-1.9.46-.58.65-1.44.91-2.06h0Z"/>
      <path class="cls-19" d="M18.82,21.76c-.29-1.98-.13-4.03.46-5.94.24-.78.58-1.58,1.26-2.03.54-.37,1.29-.51,1.59-1.09.12-.23.15-.5.13-.76-.08-1.37-1.19-2.44-2.33-3.21-.29-.19-.58-.38-.91-.49-.36-.12-.74-.13-1.12-.14-1-.03-2.04-.06-2.97.31-.27.11-.54.26-.71.51-.12.19-.17.41-.23.63-.33,1.24-.95,2.39-1.64,3.47-.41.64-.86,1.3-.94,2.06s.37,1.63,1.13,1.72c.29.03.61-.04.84.13.24.18.26.52.32.81.15.71.68,1.3,1.32,1.65s1.37.48,2.1.53c.02.19.04.39.07.58.19,0,.37,0,.56.01l1.08,1.27Z"/>
      <path class="cls-37" d="M11.82,17.54c-.12-.08-.24-.16-.38-.18-.33-.04-.6.24-.76.53-.41.72-.49,1.62-.23,2.4.44,1.31,1.75,2.26,1.92,3.63.07.6-.07,1.29.32,1.76.18.22.46.37.52.65.03.15-.01.31.07.44.07.1.2.15.31.18,3.06.93,5.97,2.49,8.25,4.74.27.26.52.53.83.75.35.24.75.4,1.12.61.91.5,1.63,1.25,2.39,1.96.77.72,1.59,1.4,2.44,2.02.28.21.57.41.91.51.63.18,1.34-.06,1.83-.5s.81-1.04,1.05-1.66c.6-1.59.73-3.35.37-5.01-.2-.89-.53-1.75-1.05-2.5-.28-.41-.61-.79-.9-1.2-.65-.95-1.04-2.09-1.91-2.85-.7-.6-1.61-.88-2.5-1.13l-1.58-.46c-.49-.14-.99-.29-1.48-.42-2.46-.68-4.94-1.16-7.44-1.66-1.77-.35-2.64-1.63-4.09-2.61Z"/>
      <path d="M17.95,20.36c.32.92-.08,2.5-1.36,2.29-.31-.07-.51-.32-.63-.52-.36-.6-.79-1.19-1.28-1.68-.34-.33-.69-.39-1.19-.44-1.14-.03-1.94-1.53-1.18-2.46.32-.43.87-.67,1.35-.57v.05c-.95.16-1.44,1.18-1.01,1.86.4.9,1.74.52,2.23,1.39.5.63,1.04,1.77,1.79,1.97.9.04,1.16-1.11,1.23-1.88,0,0,.05,0,.05,0h0Z"/>
    </g>
    <path id="back-arm" class="cls-36" d="M97.45,35.98c-2.02-1.33-4.06-2.67-6.34-3.45s-4.87-.95-7.06.05c-1.25.57-2.32,1.5-3.29,2.47-.44.44-.88.93-.99,1.54-.08.47.05.95.23,1.39,1.12,2.81,4.22,4.69,7.23,4.39,1.13-.11,2.22-.5,3.34-.72,1.9-.37,3.87-.24,5.76.2,1.05.24,2.27.54,3.1-.14.59-.48.76-1.35.57-2.09s-.68-1.37-1.23-1.9c-.81-.78-1.78-1.4-2.82-1.82"/>
    <g id="back-leg">
      <path class="cls-26" d="M137.94,106.81c-2.05,2.7-4.99,5.57-8.3,4.85-1.84-.4-3.24-1.84-4.53-3.21-2.52-2.68-5.04-5.36-7.56-8.05-2.12-2.25-4.25-4.53-5.86-7.16-1.22-2.01-2.13-4.2-3.45-6.15-1.82-2.67-4.34-4.75-6.83-6.8-3.24-2.66-6.5-5.34-10.07-7.55-3.1-1.92-6.42-3.49-9.36-5.63-2.19-1.59-4.16-3.5-6.53-4.81-2.43-1.35-5.26-2.07-7.31-3.94-3.71-3.38-3.49-9.72-.43-13.7s8.2-5.88,13.2-6.32c1.98-.17,4.03-.14,5.87.6,2.46,1,4.24,3.13,5.93,5.17,2.6,3.13,5.27,6.25,8.56,8.63,2.29,1.65,4.85,2.93,6.97,4.78,2.98,2.6,4.97,6.22,8.04,8.71,2.56,2.07,6.06,3.66,6.74,6.87.31,1.48-.07,3.02.02,4.53.25,4.08,3.85,7.14,5.14,11.02.68,2.06.92,4.64,2.85,5.64,2.11,1.11,4.6-.57,6.18-2.36s3.2-3.97,5.58-4.15c1.46-.11,4.14.84,4.69,2.36s-1.27,3.8-1.95,5.03c-2.25,4.05-4.79,7.94-7.59,11.63Z"/>
      <path class="cls-16" d="M131.4,107.29c2.44-1.71,3.54-4.7,4.96-7.32.95-1.75,2.1-3.39,3.28-5,1.33-1.8,2.7-3.57,4.13-5.3.5-.61,1.34-1.27,1.98-.82.19.13.31.34.41.54.97,2.06-.06,4.48-1.21,6.44-1.82,3.09-4.05,6-6.91,8.16-.67.51-1.38.98-1.95,1.6-1.25,1.35-1.75,3.31-3.14,4.52-1.14.99-2.7,1.31-4.18,1.6-.7.14-2.55.86-3.19.46s-.42-1.33-.03-1.81c1.26-1.59,4.21-1.93,5.85-3.08Z"/>
      <path class="cls-29" d="M140.01,94.05c.81-1.18,1.79-2.31,3.12-2.85-.05.82-.27,1.61-.52,2.39-.59,1.85-1.36,3.63-2.29,5.34-.61,1.13-1.88,4.06-3.15,4.53-1.47.55-.08-3.25.17-4.01.63-1.91,1.53-3.74,2.67-5.4Z"/>
      <path class="cls-23" d="M133.56,93.42c-.74-.11-1.45-.42-2.21-.45-1.1-.04-2.14.56-2.92,1.33-.33.32-.64.73-.58,1.18.06.47.48.79.87,1.06.74.5,1.52,1.01,2.4,1.12.79.09,1.59-.15,2.34-.43,1.24-.47,4.43-1.4,4.03-3.08-.45-1.86-2.6-.54-3.92-.73Z"/>
      <path class="cls-13" d="M124.52,93.21c-1.24-.58-2.65-1.08-3.94-.62-1.72.61-2.46,2.85-1.86,4.58s2.21,2.93,3.92,3.58c1.29.49,2.69.73,3.88,1.44,1.27.76,2.17,2.01,3.35,2.9.2.15.43.3.67.27.5-.05.66-.71.63-1.21-.08-1.25-.56-2.44-1.26-3.47-.66-.98-1.95-1.64-1.91-2.84.03-.87.66-1.67.15-2.52-.62-1.02-2.6-1.64-3.63-2.13Z"/>
      <path class="cls-8" d="M120.55,89.15c-1.13-.37-2.38-.12-3.46.36s-2.05,1.2-3.06,1.82c-.94.58-2.08,1.33-2,2.44.02.35.17.68.35.97,1.06,1.74,3.13,2.54,4.74,3.79,2.43,1.89,3.81,4.81,4.88,7.7.19.51.57,1.13,1.09.97.16-.05.28-.17.4-.29,1.29-1.43,1.01-3.74.04-5.41s-2.49-2.94-3.68-4.46c-.54-.69-.98-1.8-.29-2.36,1.14-.92,3.73.53,4.04-1.71.22-1.6-1.66-3.39-3.03-3.84Z"/>
      <path class="cls-31" d="M117.1,82.84c.71-1.95,1.87-3.96,3.82-4.64.61-.21,1.32-.27,1.87.07.63.4.87,1.24.74,1.98s-.54,1.39-.97,2.01c-.57.82-1.17,1.62-1.94,2.24-.55.45-1.18.81-1.69,1.3-1.2,1.15-1.62,2.88-2.6,4.22-.49.68-1.94,2.26-2.92,2.05s-.91-1.41-.49-2.02c.8-1.17,2.03-1.79,2.71-3.18.63-1.29.99-2.68,1.48-4.03Z"/>
      <path class="cls-14" d="M121.77,77.67c.42-1.49.84-3.1.34-4.57-.96-2.8-4.61-3.6-6.39-5.97-.44-.58-.75-1.24-1.17-1.83-.79-1.09-1.94-1.87-3.06-2.62-1.62-1.09-3.23-2.17-4.85-3.26-.84-.57-1.69-1.13-2.59-1.6-.55-.28-1.13-.52-1.74-.55-.61-.03-1.21.17-1.79.37-2.51.86-5.16,1.87-7.75,1.29-1.03-.23-2.01-.71-3.05-.88-2.14-.34-4.31.67-5.86,2.19-.99.97-1.81,2.25-1.78,3.63.04,1.75,1.42,3.19,2.95,4.04s3.25,1.28,4.79,2.1c2.25,1.19,4.02,3.16,6.31,4.26-.79-1.87-1.95-3.6-3.47-4.96-.68-.61-1.43-1.15-1.93-1.91s-.66-1.84-.09-2.55c.59-.74,1.68-.8,2.62-.74,1.79.12,3.56.44,5.27.97.64.2,1.27.42,1.94.44s1.38-.2,1.77-.74c.6-.83.22-1.98-.17-2.93.88-.09,1.74.3,2.49.77,4.88,3.05,6.94,9.12,11.16,13.02.51.47,1.06.92,1.44,1.5.45.69.64,1.54,1.19,2.14s1.73.76,2.08.02l1.36-1.65Z"/>
    </g>
    <g id="front-leg">
      <path class="cls-5" d="M66.84,58.42c2.68,3.07,6.83,4.33,10.76,5.4,2.5.68,5.1,1.34,7.64.87,1.91-.35,3.63-1.31,5.36-2.19,3.41-1.73,6.97-3.17,10.55-4.52,4.63-1.75,9.39-3.37,14.33-3.57,8.13-.33,15.93,3.23,22.76,7.64,6.83,4.41,13.07,9.75,20.2,13.66.41.22.83.45,1.29.51,1.21.16,2.25-.81,3.07-1.72,3.86-4.25,7.38-8.8,10.51-13.61,1.87-2.86,3.65-6.03,3.49-9.44s-3.12-6.88-6.49-6.33c-3.66.6-5.33,5.13-8.73,6.62-1.9.83-4.09.59-6.13.18-14.53-2.93-27.24-13.69-42.06-13.48-5.38.08-10.69,1.64-16.07,1.46-8.65-.29-17.39-5.02-25.59-2.23-2.69.91-5.22,2.79-6.12,5.48-.6,1.78-.43,3.73-.14,5.59.42,2.74,1.08,5.44,1.96,8.06l-.63,1.63Z"/>
      <path class="cls-33" d="M74.17,60.97c.65.48,1.4.81,2.17,1.08,1.78.62,3.84.89,5.48-.04,1.79-1.02,2.58-3.14,3.18-5.11.38-1.24.74-2.52.65-3.81s-.71-2.62-1.86-3.22c-.71-.37-1.53-.43-2.3-.63s-1.58-.63-1.83-1.38c-.14-.41-.1-.86-.03-1.29.18-1.16.55-2.3,1.07-3.36.44-.88,1-1.75,1.09-2.73.11-1.15-.44-2.25-1-3.26-.45-.81-1.08-1.71-2-1.7-.75,0-1.35.63-1.78,1.25-1.41,2.06-2.07,4.63-1.82,7.12.19,1.88.82,3.72.33,5.61-.33,1.27-1.07,1.96-1.92,2.89-2.27,2.49-2.28,6.49.56,8.58Z"/>
      <path class="cls-30" d="M83.8,56.77c2.44,1.16,5.31.76,7.97.26,1.56-.29,3.12-.62,4.6-1.2,3.15-1.24,6.05-3.68,9.43-3.45,1.28.09,2.55.56,3.82.36,1.8-.28,3.11-1.84,4.04-3.4.76-1.28,1.36-2.95.54-4.19-.6-.91-1.77-1.25-2.85-1.43-3.34-.55-6.82-.2-9.98.99-1.62.61-3.15,1.44-4.66,2.3-1.27.72-2.58,1.51-3.4,2.72-.86,1.26-1.12,2.88-2.12,4.04-.14.16-.29.31-.49.36-.52.15-.96-.38-1.33-.78-.93-1-2.42-1.43-3.74-1.09s-2.41,1.46-2.72,2.79"/>
      <path class="cls-27" d="M117.84,55.34c1.75.71,3.36,1.71,5.01,2.63,3.92,2.17,8.13,3.88,12.54,4.65,1.26.22,2.57.36,3.78-.05.4-.14.81-.35,1.02-.72.16-.3.18-.65.16-.99-.15-2.52-2.07-4.63-4.29-5.83s-4.73-1.7-7.14-2.42c-3.9-1.16-7.62-2.94-10.98-5.25-1.15-.79-2.29-1.66-3.61-2.12-1.2-.41-2.5-.46-3.75-.25-1.86.32-3.57,1.44-3.44,3.51.08,1.25.56,2.81,1.42,3.75,2.11,2.32,6.54,1.97,9.28,3.08Z"/>
      <path class="cls-21" d="M138.71,57.89c-.21.21-.42.43-.5.71-.2.68.42,1.31,1.02,1.69,1.34.86,2.87,1.37,4.38,1.88,3.22,1.08,6.44,2.16,9.66,3.24.37.12.76.25,1.15.22,1.1-.08,1.73-1.29,2.04-2.35.71-2.45.73-5.42-1.09-7.21-2-1.95-5.66-2.12-8.18-3.09s-6.77,3.22-8.48,4.91Z"/>
      <path class="cls-7" d="M149.15,71.89c.66,1.66,2.59,2.41,4.36,2.67.19.03.39.05.56-.02.2-.08.34-.28.46-.46,1.57-2.4,3.15-4.84,4.01-7.58.27-.85.43-1.87-.15-2.54-.59-.7-1.68-.67-2.56-.45-1.73.44-4.02,1.43-5.28,2.77s-2.05,3.96-1.39,5.61Z"/>
      <path class="cls-6" d="M152.65,75.1c1.17.67,2.56,1.06,3.88.79.28-.06.57-.15.8-.33.47-.36.62-1,.78-1.58.67-2.46,2.09-4.72,4.01-6.4.84-.73,1.8-1.4,2.29-2.4s.24-2.48-.81-2.84c-.91-.31-1.86.34-2.52,1.04-1.85,1.95-2.9,4.51-3.81,7.05-.37,1.04-.79,2.16-1.7,2.77-1.26.84-2.99.4-4.27-.4-.8-.5-2.1-.85-1.17.36.6.78,1.67,1.47,2.51,1.96Z"/>
      <path class="cls-1" d="M168.15,61.55c.87-1.41,1.6-2.91,2.32-4.4,1.3-2.7,2.61-5.39,3.91-8.09.2-.42.41-.85.48-1.32.13-.86-.27-1.78-.99-2.27s-1.72-.53-2.48-.1c-.89.51-1.35,1.56-1.49,2.58s-.02,2.06-.06,3.09c-.1,2.59-1.2,5.02-2.28,7.37-.82,1.78-1.67,3.6-3.02,5.03-.78.82-1.71,1.49-2.48,2.32-.45.48-1.76,1.95-.98,2.57.72.57,2.08-.99,2.56-1.41,1.75-1.56,3.28-3.37,4.51-5.37Z"/>
      <path class="cls-39" d="M165.33,54.54c.88-1.45,1.9-2.81,2.78-4.26.75-1.23,1.4-2.53,2.25-3.69s1.96-2.2,3.33-2.66c.09-.03.19-.06.29-.06.47.03.52.72.35,1.17-.7,1.92-2.31,3.33-3.57,4.94-2.21,2.82-3.37,6.27-5.37,9.23-.51.76-2.59,3.43-2.59.91,0-1.69,1.68-4.17,2.53-5.57Z"/>
      <path class="cls-35" d="M158.11,53.42c-1.17.13-2.37.08-3.49.45s-2.15,1.34-2.12,2.51c.02.68.37,1.29.74,1.86.8,1.24,1.73,2.43,2.96,3.24s2.83,1.17,4.21.65c2.01-.76,2.93-3,3.89-4.91.82-1.64,1.84-3.13,2.97-4.57.78-1,1.38-2.28-.4-2.61-1.36-.26-2.79,1.28-3.94,1.87-1.51.78-3.13,1.34-4.83,1.52Z"/>
      <path class="cls-27" d="M135.53,42.15c-1.75,0-3.55.85-4.4,2.37-.36.65-.55,1.4-.98,2.01-.7.99-1.92,1.43-2.97,2.03s-2.07,1.65-1.88,2.85c.12.75.69,1.33,1.24,1.84.64.59,1.32,1.15,2.07,1.6.94.55,1.98.91,3.03,1.17,3.77.93,8.18.52,10.57-2.89,2.06-2.95,2.04-5.69-.64-8.18-1.64-1.53-3.74-2.8-6.05-2.8Z"/>
      <path class="cls-2" d="M118.62,34.49c-1.96-.13-3.92.03-5.87.24-3.08.34-6.29.87-8.75,2.76-.48.37-.96.85-1.01,1.46-.04.54.27,1.05.62,1.46,2.08,2.46,5.68,3.11,8.87,2.61.96-.15,1.92-.39,2.89-.29,1.62.17,3,1.26,4.05,2.51s1.85,2.69,2.92,3.91c.6.69,1.33,1.33,2.22,1.53,1.33.31,2.65-.4,3.83-1.09,2.53-1.48,5.49-4.5,4.32-7.78-.97-2.72-4.97-4.69-7.41-5.73-2.12-.91-4.38-1.46-6.68-1.61Z"/>
      <path class="cls-38" d="M91.37,38.36c-1.58-.61-2.97-1.67-4.58-2.22-2.24-.77-4.83-.45-6.82.85-1.29.84-2.3,2.05-3.19,3.31-1.42,2.02-2.58,4.22-3.67,6.44-.82,1.67-1.61,3.4-1.72,5.26-.03.59,0,1.21.29,1.74.44.83,1.38,1.27,2.3,1.45,1.23.23,2.52.05,3.65-.48,2.44-1.16,3.77-3.77,5.61-5.75,2.16-2.32,5.18-3.82,8.33-4.15,1.08-.11,2.19-.1,3.19-.52.92-.38,1.7-1.14,2.02-2.08s.16-2.06-.49-2.82c0,0-3.35-.42-4.93-1.03Z"/>
    </g>
    <g id="body">
      <path class="cls-12" d="M78.61,36.03c-2.55-.38.16-1.32-2.59-1.2s-5.27,1.02-8.14-.24-7.6-.2-10.32-1.78c-3.29-1.91-5.98-4.71-9.22-6.69s-7.5-3.04-10.8-1.16c-1.6.91-2.77,2.39-3.91,3.84-2.88,3.68-5.94,7.94-5.25,12.57.46,3.11,2.6,5.75,5.1,7.64s5.4,3.19,8.15,4.72c2.42,1.35,4.81,2.91,7.53,3.46,1.8.36,3.67.28,5.43.87,1.6.53,3.01,1.52,4.62,2.04,2.23.72,4.55.86,6.67-.27,2.23-1.18,7.03-1.32,8.32-3.41.92-1.48,2.34-4.05,3.06-5.65,2.78-6.13,4.55-14.27,1.34-14.74Z"/>
      <g id="right-vest">
        <path class="cls-4" d="M42.79,27.24c-.61-.36-1.25-.77-1.57-1.4-.48-.97-.05-2.2.74-2.95s1.85-1.12,2.88-1.45c3.08-1,6.33-1.89,9.53-1.36,2.74.46,5.2,1.92,7.56,3.39,3.52,2.2,7,4.47,10.47,6.74,2.85,1.86,5.7,3.73,8.54,5.59.48.31.97.65,1.21,1.16.49,1.06-.44,2.34-1.56,2.66s-2.32-.02-3.43-.36c-6.17-1.88-12.62-3.4-18.57-5.89-5.23-2.19-10.98-2.92-15.81-6.14Z"/>
        <path class="cls-25" d="M86.91,34.24c-1.28-1.33-3.03-2.11-4.73-2.85-6.16-2.68-12.35-5.3-18.65-7.66-1.97-.74-3.96-1.45-6.04-1.75-1.27-.18-2.57-.2-3.81.12-.68.17-1.39.49-1.71,1.11-.45.88.04,1.94.66,2.71.87,1.08,1.98,1.93,3.15,2.66,2.33,1.47,4.9,2.52,7.47,3.53,3.85,1.52,7.72,2.99,11.61,4.4,3.1,1.13,6.3,2.23,9.6,2.16.55-.01,1.13-.07,1.59-.37s.75-.93.5-1.43"/>
      </g>
      <g id="left-vest">
        <path class="cls-18" d="M38.51,37.57c2.78.3,5.48,1.1,8.08,2.12,9.68,3.76,17.95,10.35,25.89,17.04,1.19,1,2.4,2.04,3.12,3.41.96,1.81.92,4.11-.09,5.9s-2.97,2.99-5.02,3.09c-1.36.07-2.69-.32-4-.7-8.74-2.54-17.64-5.16-25.16-10.28-2.91-1.98-6-4.45-9.51-4.04-1.42.17-2.82.81-4.22.56-1.53-.27-2.71-1.58-3.25-3.03s-.54-3.05-.48-4.6c.11-2.77.47-7.36,3.36-8.75s8.21-1.06,11.29-.73Z"/>
        <path class="cls-22" d="M32.93,55.84c.78-.56.83-1.68.8-2.64-.05-1.63-.1-3.26-.15-4.88-.03-1.08-.07-2.21-.55-3.18-.27-.55-.67-1.02-1.06-1.49-.95-1.13-1.89-2.25-2.84-3.38-.47-.56-1.12-1.19-1.83-1-.69.18-.95,1.01-1.03,1.72-.23,1.98,2.68,17.69,6.66,14.85Z"/>
        <path class="cls-22" d="M73.15,69.39c-.3-2.49-2.62-4.31-5.02-5.04s-4.96-.67-7.45-1.04c-3.95-.59-8.83-3.76-12.77-3.35-1,.11-3.03,1.03-2.91,2.32.13,1.44,3.18,2.11,4.29,2.48,3.97,1.32,8.17,1.52,12.3,1.92,1.53.15,11.33.88,11.55,2.71Z"/>
      </g>
    </g>
    <g id="front-arm">
      <path class="cls-9" d="M30.99,47.67c-.63.05-1.27.12-1.86.37-1.23.52-2,1.73-2.69,2.87-.53.87-1.08,1.79-1.17,2.8-.2,2.28,2,4.13,4.22,4.68,2.91.73,6.45.78,9.44,1.03,2.32.19,4.24-.37,3.8-3.02-.79-4.7-7.4-9.11-11.74-8.75Z"/>
      <path class="cls-34" d="M55.33,77.71c-.38.58-.69,1.21-.75,1.9-.07.91.33,1.79.73,2.62.56,1.17,1.12,2.34,1.67,3.51.6,1.26,1.51,2.72,2.91,2.67.44-.56.89-1.12,1.33-1.68.13-.16.26-.32.43-.44.57-.37,1.31-.01,1.93.27,2.26,1.05,4.93,1.18,7.28.35.41-.14.84-.35,1.04-.74.37-.75-.43-1.6-1.23-1.8-2.38-.6-5.15-.91-4.91-4.11.12-1.64,2.01-3.83,1.15-5.51-2.11-4.16-10.01.54-11.59,2.96Z"/>
      <path class="cls-32" d="M54.44,65.09c-.79-1.16-1.74-2.22-2.8-3.14-.55-.47-1.15-.92-1.84-1.13-1.3-.39-2.7.12-3.92.71-.93.46-1.86,1-2.5,1.82-1.17,1.52-1.07,3.74-.25,5.48s2.24,3.11,3.63,4.44c2.08,1.99,9.48,11.55,12.02,6.01,2-4.38-1.99-10.77-4.33-14.19Z"/>
      <path class="cls-15" d="M45.54,57.39c-2.19-1.79-4.41-3.67-7.1-4.53s-6.01-.46-7.78,1.74c-1.55,1.93-1.53,4.8-.43,7.02s3.11,3.86,5.24,5.12,4.44,2.19,6.6,3.42c3.24,1.84,11.46,8.1,12.66.81.97-5.9-5.27-10.36-9.2-13.58Z"/>
    </g>
  </g>
</svg>