<?xml version="1.0" encoding="UTF-8"?>
<svg id="Enemy" xmlns="http://www.w3.org/2000/svg" viewBox="0 0 96.3 170.17">
  <defs>
    <style>
      .cls-1 {
        fill: #a5670b;
      }

      .cls-2 {
        fill: #39434c;
      }

      .cls-3 {
        fill: #161c1f;
      }

      .cls-4 {
        fill: #d98654;
      }

      .cls-5 {
        fill: #151e35;
      }

      .cls-6 {
        fill: #f7a97c;
      }

      .cls-7 {
        fill: #0a0c15;
      }

      .cls-8 {
        fill: #b46242;
      }

      .cls-9 {
        fill: #9c3e0a;
      }

      .cls-10 {
        fill: #683e07;
      }

      .cls-11 {
        fill: #0a0e15;
      }

      .cls-12 {
        fill: #3b3e4a;
      }

      .cls-13 {
        fill: #0d8b11;
      }

      .cls-14 {
        fill: #f7af80;
      }

      .cls-15 {
        fill: #2e333c;
      }

      .cls-16 {
        fill: #21201b;
      }

      .cls-17 {
        fill: #f8cc49;
      }

      .cls-18 {
        fill: #a65124;
      }

      .cls-19 {
        fill: #08090f;
      }

      .cls-20 {
        fill: #1d1a19;
      }

      .cls-21 {
        fill: #101d38;
      }

      .cls-22 {
        fill: #6e7379;
      }

      .cls-23 {
        fill: #18202a;
      }

      .cls-24 {
        fill: #d29669;
      }

      .cls-25 {
        fill: #232c34;
      }

      .cls-26 {
        fill: #b78024;
      }

      .cls-27 {
        fill: #b47d24;
      }

      .cls-28 {
        fill: #883819;
      }

      .cls-29 {
        fill: #969fb8;
      }

      .cls-30 {
        fill: #43548a;
      }

      .cls-31 {
        fill: #7a370e;
      }

      .cls-32 {
        fill: #2e323e;
      }

      .cls-33 {
        fill: #a06a2a;
      }

      .cls-34 {
        fill: #502204;
      }

      .cls-35 {
        fill: #5e1600;
      }

      .cls-36 {
        fill: #3f1c0c;
      }

      .cls-37 {
        fill: #808b96;
      }

      .cls-38 {
        fill: #636e85;
      }

      .cls-39 {
        fill: #0c0d12;
      }

      .cls-40 {
        fill: #d0d1e6;
      }

      .cls-41 {
        fill: #f2c13b;
      }

      .cls-42 {
        fill: #f5c58b;
      }

      .cls-43 {
        fill: #111c22;
      }

      .cls-44 {
        fill: #1c2018;
      }

      .cls-45 {
        fill: #2b3c15;
      }

      .cls-46 {
        fill: #27201e;
      }

      .cls-47 {
        fill: #060816;
      }

      .cls-48 {
        fill: #111516;
      }

      .cls-49 {
        fill: #f2c03f;
      }

      .cls-50 {
        fill: #f4a371;
      }

      .cls-51 {
        fill: #edc896;
      }

      .cls-52 {
        fill: #fb9a6e;
      }

      .cls-53 {
        fill: #0aac19;
      }

      .cls-54 {
        fill: #34436c;
      }

      .cls-55 {
        fill: #0e8d12;
      }

      .cls-56 {
        fill: #613e14;
      }

      .cls-57 {
        fill: #703b25;
      }

      .cls-58 {
        fill: #5d6873;
      }

      .cls-59 {
        fill: #f1ab77;
      }

      .cls-60 {
        fill: #a26814;
      }

      .cls-61 {
        fill: #222e43;
      }

      .cls-62 {
        fill: #101117;
      }

      .cls-63 {
        fill: #050509;
      }

      .cls-64 {
        fill: #111523;
      }

      .cls-65 {
        fill: #be7649;
      }

      .cls-66 {
        fill: #7f570e;
      }

      .cls-67 {
        fill: #1b1d28;
      }

      .cls-68 {
        fill: #ac7b1c;
      }

      .cls-69 {
        fill: #3f5012;
      }

      .cls-70 {
        fill: #1e1e2a;
      }

      .cls-71 {
        fill: #0e700e;
      }

      .cls-72 {
        fill: #f29a6d;
      }

      .cls-73 {
        fill: #47515f;
      }

      .cls-74 {
        fill: #08090d;
      }

      .cls-75 {
        fill: #949db6;
      }

      .cls-76 {
        fill: #a5acb2;
      }

      .cls-77 {
        fill: #1c1e28;
      }

      .cls-78 {
        fill: #74440b;
      }

      .cls-79 {
        fill: #535a69;
      }

      .cls-80 {
        fill: #36363e;
      }

      .cls-81 {
        fill: #164f0b;
      }

      .cls-82 {
        fill: #e8966b;
      }

      .cls-83 {
        fill: #2c2c38;
      }

      .cls-84 {
        fill: #151c27;
      }

      .cls-85 {
        fill: #c77542;
      }

      .cls-86 {
        fill: #b25122;
      }

      .cls-87 {
        fill: #60340c;
      }

      .cls-88 {
        fill: #8a92a1;
      }

      .cls-89 {
        fill: #231312;
      }

      .cls-90 {
        fill: #c5734c;
      }

      .cls-91 {
        fill: #964513;
      }

      .cls-92 {
        fill: #edb981;
      }

      .cls-93 {
        fill: #c4c4d4;
      }

      .cls-94 {
        fill: #626587;
      }

      .cls-95 {
        fill: #a17825;
      }

      .cls-96 {
        fill: #151c25;
      }

      .cls-97 {
        fill: #3c3b55;
      }

      .cls-98 {
        fill: #be6634;
      }

      .cls-99 {
        fill: #181f25;
      }

      .cls-100 {
        fill: #3c251d;
      }

      .cls-101 {
        fill: #eea175;
      }

      .cls-102 {
        fill: #b25e2f;
      }

      .cls-103 {
        fill: #393b49;
      }

      .cls-104 {
        fill: #191a23;
      }

      .cls-105 {
        fill: #373435;
      }

      .cls-106 {
        fill: #8c8481;
      }

      .cls-107 {
        fill: #bcc0d5;
      }

      .cls-108 {
        fill: #adb2bc;
      }

      .cls-109 {
        fill: #9a691f;
      }
    </style>
  </defs>
  <g id="JumpingJunkie_damage_1">
    <g id="back-arm">
      <path class="cls-18" d="M67.23,48.81c0-2.68,0-6.13-2.87-9.96s-6.13-7.09-9.38-5.74-6.89,5.17-7.09,8.23c-.19,3.06-.77,9.77,3.26,11.3s16.08,3.52,15.8.9.29-4.73.29-4.73Z"/>
      <path class="cls-2" d="M53.1,71.16c1.52-1.4,2.33-2.49,3.97-2.34s3.26-1.16,4.42.7.72,6.56-.48,8.76c-.21.39,1.71,4.49,1.28,4.73-2.04,1.09-8.24-3.27-8.61-5.31-.45-2.47-3.49-3.89-3.88-5.14-.39-1.25-.64-3.29.54-3.22s2.76,1.83,2.76,1.83Z"/>
      <g>
        <path class="cls-2" d="M56.11,86.82c.92.35,4.56,3.88,5.22,2.34s.85-3.81.27-5.11c-.59-1.29-1.5-3.69-2.28-4.2s-2.95-.85-3.39-.46-2.22,5.21-1.63,5.85,1.82,1.56,1.82,1.56Z"/>
        <path class="cls-89" d="M55.55,78.08c-1.8,4.19,1.97,6.7,5.04,8.75-.13.69-1,1.22-1.25,1.88-1.98-.92-4.79-4.58-6.8-2.39-1.29-3.45-2.18-7.22-.75-10.74,1.39.39,2.43,1.93,3.77,2.49Z"/>
        <path class="cls-18" d="M56.04,80.01c.79,1.23.98,2.75,1.46,4.11l-3.21,1.14-1.46-4.11c-.76-2.13-1.43-4.29-1.55-6.6,6.28-5.84,6.43.94,4.77,5.47Z"/>
        <g>
          <g>
            <path class="cls-82" d="M57.32,64.48c1.84,1.84,2.4,3.65,1.67,5.41-1.21,2.52-3.97,5.78-6.46,5.46.97,1.69,1.2,4.22-.13,5.5-4.97-3.33-4.2-10.24-4.05-15.76-.81-3.82-.77-9.07.65-12.5,2.12-3.52,4.45-6.59,6.99-9.21.47-1.19,1.06-1.19,1.77-.08,3.05.18,3.56,3.06.16,3.54,3.55,1.41,4.18,4.36,1.87,8.85,1.07,2.22-.82,6.62-2.47,8.78Z"/>
            <path class="cls-42" d="M66.94,53.54c-.89.94-.78,2.72-1.41,3.81-.56-.14-1.27.1-1.8-.11-3.19,3.54-4.5,3.03-3.94-1.54-3.91-1.5-1.71-5.46-1.87-8.85,1.02-2.06,3.41-1.72,7.18,1.02,3.75-2.18,3.06,2.3,1.84,5.66Z"/>
            <path class="cls-92" d="M62.04,59.09c-.88,9.69-2.45,11.48-4.72,5.38-.17-2.71-2.93-4.9-2.36-8.36.8-.56,2.04.7,2.82.86.73.14,1.44-.36,2.01-1.27,1.35.43,2.63,1.01,3.94,1.54-.57.6-1.06,1.31-1.69,1.85Z"/>
            <path class="cls-24" d="M60.77,69.81c-.25,1.61-.86,1.57-1.77.08-.33-.89-1.31-1.6-2.19-2.53s-.57-1.95.52-2.89c1.03.25,1.45,1.6,3.14,1.84.02-3.34-.25-5.64,1.58-7.23.39,3.63.46,7.43-1.28,10.72Z"/>
            <path class="cls-6" d="M49,52.6c.05-1.5-.35-3.63.31-5.03-3.27-3.77-1.05-5.16,3.15-3.75.13-1.66,2.38-1.66,3.53-.44.99-.03-3.11,10.15-2.86,10.02-1.81.92-2.94-.41-4.13-.81Z"/>
          </g>
          <g>
            <path class="cls-91" d="M51.51,93.23c-3.28-.34-3.74-2.72-.52-3.01-1.32-1.02-1.52-2.09-.52-3.01.14-1.31.7-1.23,1.64.11,2.24-.02,2.46,2.82,2.42,4.63,2.16-2.03,3.89-1.41,5.19,1.84.21-2.84,1.37-2.36,3.29.23.62-.15,1.25.38,1.9,1.62-2.95,3.53-8.87-.14-13.4-2.41Z"/>
            <path class="cls-102" d="M62.75,92.52c1.16.52,1.22,1.02.26,1.51-1.03.1-2.29-.39-3.29-.23-3.95-.8-3.34-5.87-1.18-7.55.57-.02,1.49.12,2.08.32,1.25-2.5,2.61-1.67,2.33,1.32.72.47.78.85.14,1.14-.31.81-.42,1.97-.34,3.48Z"/>
            <path class="cls-98" d="M65.26,88.23c-.66,1.26-1.43,1.15-2.31-.33-.77-.4-1.51-1.05-2.33-1.32-.09-1.19-1.73-3.58.35-4.35,2.29-.85,3.49,1.44,4.38,2.92.54.9.67,2-.08,3.08Z"/>
            <path class="cls-4" d="M58.54,86.25c-.64,2.56-1.69,2.99-3.14,1.3-1.28.49-1.87-.11-1.9-1.62-1.31-1.33-.59-3.12,1.29-2.71.98-.05,2.61-.22,3.5.83.5.59.11,1.66.25,2.2Z"/>
            <path class="cls-100" d="M54.36,81.53c-2.91-.89-2.43-1.67-.52-3.01.51-.06,1.12.14,1.64.11.64.23,2.92.27,3.38,1.02,1.04,1.7-.59,2.65-1.84,2.14-.56-.23-1.64-.36-2.66-.26Z"/>
            <path class="cls-57" d="M53.5,85.93c1.85,1.86,1.16,2.64-1.38,1.39-2.51-2.8-2.06-8.36,2.25-5.79.21.56.26,1.13.43,1.7l-1.29,2.71Z"/>
            <path class="cls-85" d="M66.04,92.74c-.24,1.28-.79,1.23-1.64-.11-1.74-.64-2.6-2.63-1.3-3.59-.69-.57-1.14-.92-.14-1.14.77.2,1.55.31,2.31.33l.26,1.51c.29,1,.15,2.02.52,3.01Z"/>
            <path class="cls-36" d="M64.91,95.64c-1.29-.94-1.62-2.42-.52-3.01l1.64.11c.6,1.61-.39,2.02-1.12,2.9Z"/>
            <path class="cls-2" d="M65.52,89.73c-.14-.5-.14-1-.26-1.51,1.03.67,1.71,1.63.26,1.51Z"/>
            <path class="cls-18" d="M59.72,93.8c-2.24.38-3.49-.57-5.19-1.84-.81-1.85-1.12-4.02.87-4.4.98-.5,1.89-1.25,3.14-1.3.54,2.07-1.09,5.46,1.18,7.55Z"/>
            <path class="cls-90" d="M54.54,91.95c-1.99-1.49-2.07-2.52-2.42-4.63.67-.22,1.11-.83,1.38-1.39.68.49,1.32,1.03,1.9,1.62.38,1.66.64,3.59-.87,4.4Z"/>
            <path class="cls-9" d="M64.91,95.64c-1.03.2-1.52-.84-1.9-1.62l-.26-1.51c.24-1.28.79-1.23,1.64.11l.52,3.01Z"/>
            <path class="cls-72" d="M64.39,92.63l-1.64-.11c-.65-.78-1.67-1.71-1.64-2.34.05-1.12.77-2.33,1.98-1.14.49,1.17,1.1,2.41,1.3,3.59Z"/>
          </g>
        </g>
      </g>
    </g>
    <g id="front-leg">
      <g>
        <path class="cls-19" d="M88.53,161.88c-1.24-.53-2.14-2.73-5.28-3.83-3.14-1.1-2.97-2.44-3-3.21s-.19-3.97-.43-5.65-2.73-2.73-3.78-2.11-2.58,4.74-4.83,6.41c-2.25,1.68-5.65,11.46-4.64,12.02s5.74,1.48,9,1.96c3.26.48,11.59-.39,12.69-1.25s2.78-2.05,2.3-2.53-2.01-1.82-2.01-1.82Z"/>
        <path class="cls-54" d="M69.49,142.97c.81-1.23,1.72-.76,2.23.52,4.09,1.7,5.03,5.67,2.8,11.93l.98,2.04c.52-.05,1.09.04,1.61.07,1.79,3.62-4.51,3.8-7.4,1.97-.28,1.58-.81,1.56-1.6.07-1.56-.47-1.64-1.11-.24-1.93-3.82.51-2.88-9.37-2.49-13.14.06-.53.5-1.02,1.05-1.5.5-2.52,1.51-1.95,3.06-.03Z"/>
        <path class="cls-20" d="M65.18,164.22c1.2-3.13,5.14-3.32,5.47.43,1.86.09,3.91.96,5.77.57,1.58.18,1.59.68.13,1.48.34,2.06-1.31,3.02-3.06,3.41-4.19-2.33-9.49-2.41-14.2-1.43v-2.11c-.71-1.51-.04-2.04,1.78-1.77-.39-4.94,2.13-5.05,4.11-.56Z"/>
        <path class="cls-105" d="M94.97,168.32c-.61.72-1.27.7-1.96,0-5.69-.73-11.17-1.28-16.46-1.63l-.13-1.48c4.34-.91,9.3.91,13.03-2.21h1.77c1.11.74,3.25.06,4.59,1.51,1.25,1.35-.25,2.21-.85,3.81Z"/>
        <path class="cls-21" d="M78.81,145.26c.73,2.63.74,6.02-1.77,7.1-1.44,1.29-1.81,3.23-1.55,5.09-4.41.44.16-8.8-3.78-13.97,2.35-1.04,7.81-1.63,7.1,1.77Z"/>
        <path class="cls-87" d="M93.01,168.33c-5.11.61-10.44,1.21-15.97,1.77h-3.55c.55-.95,1.55-3.57,3.06-3.41,5.49.59,12.27-2.26,16.46,1.63Z"/>
        <path class="cls-3" d="M93.01,168.33h1.96c-.44,1.17-1.59,1.85-3.63,1.84l-14.3-.07c-.13-1.45,1.59-1.79,3.46-1.79l12.5.02Z"/>
        <path class="cls-88" d="M69.7,159.49c1.94.3,2.66,1.03,2.15,2.21-.07,1.09-.55,2.08-1.2,2.95-1.82-.08-3.67-.68-5.47-.43-5.12-2.81-1.97-6.74,2.92-4.65l1.6-.07Z"/>
        <path class="cls-99" d="M77.04,152.36c.05-2.48.45-4.97,1.77-7.1h1.77l-.07,8.74c-2.16.57-3.65.18-3.48-1.64Z"/>
        <path class="cls-108" d="M91.23,163h-1.77c-1.11.13-5.7.5-5.37-1.89,1.62-4.2,5.26.62,7.15,1.89Z"/>
        <path class="cls-96" d="M71.85,161.7c-.77-.69-1.49-1.42-2.15-2.21,2.56-.12,6.21.93,7.4-1.97,1.7.1,2.15,1.47,1.6,3.53l-6.85.65Z"/>
        <path class="cls-23" d="M66.42,142.99c2.16,4.8-1.34,10.09,1.44,14.64-2.97,4.45-4.9,4.85-6.4-.58,3.78-4.55,3.93-10.19,1.15-15.35,1.34.18,2.67.53,3.81,1.29Z"/>
        <path class="cls-22" d="M67.86,157.64c.32.52,0,1.36.24,1.93-1.96.72-2.92,2.63-2.92,4.65l-4.11.56c-2.82.27-3.02-2.91-1.83-5.44.8-.54,1.61-1.53,2.23-2.28,2.1.47,4.25.66,6.4.58Z"/>
        <path class="cls-46" d="M61.07,164.78c-.55.63-1.15,1.22-1.77,1.77-1.02-.75-1.62-1.82-1.83-2.9-.37-1.95.3-3.34,1.77-4.32.3,1.91.85,3.77,1.83,5.44Z"/>
      </g>
      <g>
        <path class="cls-104" d="M35.17,77.35c.3-1.63.71-1.53,1.22.15,3.26.08,4.98.78,5.16,2.11,3.74.47,7.29,1.06,10.65,1.77,0-3.87,4.64-4.33,5.32,0,0,1.16-.07,2.4.15,3.55-3.08-3.16-6.71.39-10.35.6l-.61,2.37c-3.35.09-5.04,2-5.07,5.71-.97,6.2-2.62,12.24-5.41,3.73-.94.3-1.78.46-2.29.12-2.11-1.4-3.33-16.4-2.91-19.94,1-5.06,2.3-4.88,4.14-.19Z"/>
        <g>
          <path class="cls-12" d="M80.38,131.37c-2.28,10.77-13.85,2.29-6.83-3.86-8.01.69-10.29-4.05-6.85-14.22-5.2-1.76-6.47-4.05-3.79-6.87.25-4.82-1.93-9.04-6.53-12.65l2.81-3.51c4.02.33,5.05,6.02,8.1,8,7.14,4.62,9.77,9.1,11.64,17.2,1.29,5.55,4.35,10.6,1.45,15.92Z"/>
          <path class="cls-103" d="M57.67,84.93c.34,1.78,1.37,3.49,1.51,5.32.57,7.4,8.73,5.89,6.76,11.96-.48,1.48-.52,3.79-3.04,4.2-3.08,2.73-6.8.96-11.16-5.32-14.12,1.46-8.87-7.02-1.63-10.76-4.79.93-5.96-1.1-2.79-4.8.33-3.49,9.61-4.54,10.35-.6Z"/>
          <path class="cls-70" d="M73.55,127.52c.57,1.47.96,5,2.85,6.19,1.07.67,2.55-2.17,3.99-2.33-.63,1.29.45,3.58.34,5.01-.86,8.25-4.61,8.2-11.24,5.08-6.59,1.32-8.38-9.5-4.85-13.94l1.29-2.06c1.93,1.4,4.48,2.09,7.64,2.06Z"/>
          <path class="cls-77" d="M50.12,90.34c3.65,3.48-5.38,3.19-5.67,6.78,1.41,4.94,5.44-1.32,7.01-.52,4.37,2.22,7.17,7.97,11.45,9.82.82,2.59,6.23,3.64,3.79,6.87.45,3.39-.86,3.55-2.39.38-1.39,5.03-5.8,5.1-8.7,1.21-.89-.6-1.86-1.1-2.94-1.18-3.19,1.32-3.59-1.28-2.53-4.23-6.99,2.51-14.5-10.17-8.51-15.86-1.54-5.51,5.49-7.39,8.48-3.28Z"/>
          <path class="cls-62" d="M64.31,113.67c3.57.82,3.94,3.89,1.1,9.21,1.2,3.02.93,4.57-.8,4.64-.29,3.52-.95,4.83-3.55,1.89-4.97-3.9-1.16-11.52-5.46-14.53,2.73-1.43,5.78-.75,8.7-1.21Z"/>
          <path class="cls-74" d="M69.47,141.46l.02,1.5-3.06.03c-.38,2.21-1.65,1.79-3.81-1.29-2.03-3.77-1.82-8.09-1.55-12.3l3.55-1.89c.96,4.98-.57,10.55,4.85,13.94Z"/>
          <path class="cls-32" d="M73.55,127.52c-2.9,1.1-6.01,1.03-8.93,0-.91-4.72-.45-8.86-.31-13.85l2.39-.38c.89,2.36,4.02.71,5.84,3.61-1.52,2.71-5.17,1.33-5.21,3.35-.02,1.14-1.4,3.96-.45,4.66,2.31,1.7,5.78.28,6.67,2.6Z"/>
        </g>
        <path class="cls-83" d="M47.32,85.54c1.16,1.46,2.07,3.09,2.79,4.8-3,.51-5.77,1.91-8.48,3.28-1.2-2.37-3.32-4.15-5.77-7.05,3.92-3.36,7.81-.83,11.46-1.04Z"/>
        <path class="cls-80" d="M50.8,79.45c.89.22,1.43,1.03,1.39,1.94-3.82,0-7.62.77-10.65-1.77l9.25-.16Z"/>
      </g>
      <path class="cls-11" d="M80.59,145.26c-.5,1.55-1.1,1.53-1.77,0l-7.1-1.77-2.23-.52c-1.56-.3-1.53-.81-.02-1.5,1.94.09,5.21.81,7.74-.04,1.68-.57,1.94-3.28,3.5-5.04-.23,2.95-.1,5.92-.13,8.88Z"/>
      <path class="cls-43" d="M50.74,77.84c.78.52.87,1.06.06,1.61-1.19,2.11-6.45.89-9.25.16-1.13-.95-4.61.38-5.16-2.11,1.97.53,3.5-1.22,5.16-1.65,1.3,3.48,6.1,1.68,9.19,1.98Z"/>
      <path class="cls-84" d="M57.52,79.61v1.77h-5.32c-1.57-.29-2.21-.51-1.39-1.94-.79-.55-.82-1.08-.06-1.61l2.78-1.65c.74-.26,1.44-.64,2.01-1.18,2.85-1.78,4.34,2.83,1.99,4.61Z"/>
    </g>
    <g id="back-leg">
      <path class="cls-67" d="M41.55,139.94c-.7,1.77-1.12,3.56-3.55,3.55.22-2.1-1.99-2.01-3.55-1.77,1.7-2.18,4.57-2.04,7.1-1.77Z"/>
      <g>
        <path class="cls-63" d="M32.25,110.28c-2.22,6.7-6.18,17.76-8.13,20.75s-2.71,6.63-.22,7.59,6.51,2.87,9.19,2.68,4.51-2.35,9.49-4.76c4.99-2.41,1.2-4.61,3.23-10.74,2.02-6.13,3.55-10.16,1.06-14.75-2.48-4.6-7.32-9.69-9.72-13.06-2.4-3.38-5.2,1.91-5.11,4.9.09,2.99.21,7.4.21,7.4Z"/>
        <path class="cls-67" d="M32.68,108c.68,6.15,1.27,6.15,1.77,0-1.13-1.15-1.08-2.36.21-3.42,1.69-6.03,5.38-4.25,11.08,5.34l2.91,1.62c3.37,6.8.92,19.11-5.02,25-3.8,2.39-11.94,5.83-14.51,1.63-1.83-1.58-4.42-2.87-4.9-5.19-1.11-5.41,6.64-10.01,6.65-16.02l.03-21.37c4.73-.71,3.29,9.34,1.77,12.42Z"/>
        <path class="cls-63" d="M36.23,97.36c3.06,3.48,2.7,5.34-1.56,7.22.13,1.07-.05,2.35-.21,3.42-.5,1.55-1.1,1.53-1.77,0,.48-4.57.35-8.58-1.77-12.42,1.25-7.8-4.77-12.99.12-18.05,6.21,13.45-3.05,5.12,5.2,19.82Z"/>
        <path class="cls-47" d="M41.55,139.94c-1.59,1.3-3.96,1.89-7.1,1.77,1.26,2.04-1.75,2.95-3.55,1.77-.46-1.57-.41-4.14-1.77-5.32,5.07.67,9.76-.28,14.51-1.63-.53,1.45-1.63,2.27-2.09,3.41Z"/>
        <path class="cls-19" d="M52.67,113.71c-2.61,5.93.37,20.16-9.04,22.83l4.65-12.69c1.49-4.07-2.27-8.86.37-12.31-2.91-2.15-2.05-3.37,1.49-2.05,1.24,1.12,2.08,2.63,2.53,4.23Z"/>
        <path class="cls-39" d="M50.14,109.48c-.93.34-.98,1.4-1.49,2.05-2.08-.24-1.68,2.12-3.72,4.35-2.13-2.43-6.15-16.18-10.27-11.3-.32-2.56.1-5.05,1.56-7.22,1.22,1.05,2.5,1.27,3.17.18.79-1.27.98-3.28,2.24-3.91-1.47,7.03,3.58,11.4,8.51,15.86Z"/>
        <path class="cls-7" d="M32.68,108h1.77c-.52,3.56,1.29,7.34-1.09,10.84-2.07-4.43.06-7.74-.69-10.84Z"/>
      </g>
      <g>
        <path class="cls-23" d="M20.52,163.84c-4-1.38-5.49-.5-5.65-2.14-.16-1.64-1.62-1.71.06-4.02s1.34-5.7,2.33-7.02c.98-1.33,3.8-9.21,3.69-10.87s.53-3.24,1.31-3.26,3.77-.41,4.67,1.13c.9,1.53,3.25,1.68,4.32,3.09s3.19,4.4,1.42,6.23c-1.77,1.83-.73.54-3.41,2.36s-8.74,14.5-8.74,14.5Z"/>
        <path class="cls-30" d="M29.13,147.04c2.52.4,2.31,1.74-.41,2.2-1.47,2.85-3.11,5.66-4.92,8.45-.5,1.55-1.1,1.53-1.77,0-1.62-1.52-2.37-3,0-3.55-1.29-3.38-1.35-7.27,0-10.65v-1.98c3.9-.09,5.56,1.59,7.1,5.53Z"/>
        <path class="cls-44" d="M25.58,161.23c1.58.33,1.52.93,0,1.77,5.96.63,11.87,1.22,17.74,1.77.13,1.41-1.61,1.8-3.45,1.8l-17.84-.02c-.37-1.09-.13-2.43-.43-3.55-1.57-.6-1.49-1.19.14-1.77-.27-2.69.98-2.6,2.06,0h1.77Z"/>
        <path class="cls-58" d="M22.03,157.68h1.77c.87-3.85,2.06-4.45,3.55-1.77,3.59,2.82,2.41,4.59-3.55,5.32h-2.06c-1.68,1.94-3.42.97-4.48-1.26-.46-.8-1.94-1.3-2.33-2.29-.32-2.94.56-5.23,3.55-3.55,1.78-.1,2.96,1.08,3.55,3.55Z"/>
        <path class="cls-25" d="M32.68,150.58c-1.16-.47-1.12-1.07,0-1.77-1.17-.26-1.93-.44-1.77-1.77v-1.77c1.85-1.65,4.81-3.02,7.1-1.77-.3,3.22-2.27,5.98-5.32,7.1Z"/>
        <path class="cls-16" d="M21.75,161.23c.07.57-.3,1.22-.14,1.77-1.19.68-2.14,2.4-3.16.99-.93-1.3-.83-2.74-1.18-4.03,1.64-.42,3.45-.19,4.48,1.26Z"/>
        <path class="cls-79" d="M38,143.49c-2.3,1.03-4.53,2.15-7.1,1.77,0-.58.16-1.22,0-1.77l3.55-1.77c3.17-1.59,6.6-1.34,3.55,1.77Z"/>
        <path class="cls-94" d="M32.68,148.81c-.5,1.55-1.1,1.53-1.77,0-.25,2.23-1.15,2.52-2.18.43l.41-2.2c.56.11,1.23-.17,1.77,0,.79.25,1.58.95,1.77,1.77Z"/>
        <path class="cls-64" d="M38,157.68c.28,1.46-.31,2.05-1.77,1.77-7.22,2.95-11.28-1.6-5.32-7.1.46-1.59,1.05-1.47,1.77.15,3.01.45,4.06,2.89,5.32,5.17Z"/>
        <path class="cls-34" d="M39.78,163c.5-1.55,1.1-1.53,1.77,0,1.17-.23,2.01.61,1.77,1.77l-15.99-.06c-1.3,0-1.93-.89-1.75-1.72,3.69-1.56,9.96-1.33,14.19,0Z"/>
        <path class="cls-76" d="M41.55,163h-1.77l-3.55-1.77c-1.55-.5-1.53-1.1,0-1.77.35-.8.97-1.43,1.77-1.77.98,1.76,3.67,2.82,3.55,5.32Z"/>
        <path class="cls-48" d="M32.68,150.58v1.92c-.58-.09-1.19-.15-1.77-.15-1.53-.51-1.52-2.82,0-3.55h1.77c.13.56,0,1.2,0,1.77Z"/>
        <path class="cls-15" d="M22.03,154.13v3.55c-1.76-.46-2.94-1.88-3.55-3.55.61-1.49-.47-3.86-.19-5.47.7-.47,1.23-1.19,1.96-1.63.72,2.05,1.32,4.42,1.77,7.1Z"/>
        <path class="cls-5" d="M22.03,154.13c-1.93-1.84-2.1-4.57-1.77-7.1.18-1.35.71-2.67,1.77-3.55v10.65Z"/>
        <path class="cls-61" d="M28.73,149.24c1.7-.25,1.66,1.98.41,3.12.52,1.56-.11,3.42-1.77,3.55l-3.55,1.77c.22-1.76-.24-4.93.49-7.25.39-1.24,2.88-.89,4.43-1.19Z"/>
        <path class="cls-37" d="M30.91,152.36c-1.44,1.69-1.19,3.71-.46,5,1.31,2.33,3.9,2.58,5.78,2.1v1.77c-2.58,1.56-8.07,1.31-10.65,0h-1.77c1.92-1.22,3.22-3.07,3.55-5.32.19-1.33.91-2.55,1.77-3.55.5-1.55,1.1-1.53,1.77,0Z"/>
        <path class="cls-73" d="M36.23,161.23c1.41,0,3.19.14,3.55,1.77h-14.19c.13-.57-.06-1.19,0-1.77h10.65Z"/>
        <path class="cls-97" d="M30.91,152.36h-1.77l-.41-3.12c.72-.14,1.45-.43,2.18-.43v3.55Z"/>
      </g>
    </g>
    <g id="head">
      <g>
        <g id="hair">
          <path class="cls-28" d="M38.95,4.13c3.01-2.05,4.96-1.03,5.82,2.4,3.07-.04,3.62,3.23.48,3.76,1.93,4.55-3.49,6.12-4.98,1.85-1.39,1.82-3.53,2.94-6.43,3.38-2.9,6.37-3.68,4.99-4.9-1.08l-.96-1.49c1.91-4.25,6.64-7.92,10.97-8.8Z"/>
          <path class="cls-28" d="M42.66,0c2.94,1.27,12.12.89,13.36,6.01.35,1.45-2.58,2.47-2.6,3.57-1.32,3.22-3.39,3.98-4.22.27-1.51.79-2.35-.29-2.52-3.24l-1.91-.09c-2.21.9-4.54-.53-5.82-2.4-1.7-.04-1.86-.67-.57-1.87-1.49.53-1.66.07-.63-1.27,1.28-.6,3.6-.47,4.9-.99Z"/>
          <path class="cls-28" d="M38.38,2.26c.28.57.21,1.35.57,1.87l-10.97,8.8,1.07-4.9c2.02-3.01,5.88-5.49,9.33-5.77Z"/>
          <path class="cls-28" d="M33.84,15.51c3.6,1.79,2.16,6.63-1.46,7.78-4.12-.32-3.54-5.58-3.44-8.87.36.64.81,1.51,1.58,1.96,1.07.63,2.43-.13,3.32-.87Z"/>
          <path class="cls-28" d="M37.76.99l.63,1.27-9.33,5.77c.12-4.07,5.41-5.49,8.71-7.04Z"/>
          <path class="cls-28" d="M53.41,9.59c.01,2.1-.92,4.4-2.84,5.71l-2.87-4.48c-.41-1.58.1-1.88,1.49-.96,1.41.28,2.85.14,4.22-.27Z"/>
          <path class="cls-28" d="M49.2,9.86l-1.49.96-2.45-.54c.9-1.2.31-2.66-.48-3.76.22-.63.11-1.7.34-2.23.31-.75,2.09-1.56,2.72.04.89,2.26.4,4.17,1.37,5.53Z"/>
        </g>
        <g id="face">
          <path class="cls-28" d="M34.64,23.69c4.39,2.6,8.34,6.03,5.26,11.11,1.59-.32,1.91.18.96,1.49-2.01,1.29-4.27,2.23-6.68,2.18-3.7,1.29-4.56-1.08-2.59-7.1.83-2.39.4-5.57.8-8.08.75-1.56,1.5-1.34,2.26.4Z"/>
          <path class="cls-28" d="M45.25,10.28c.83-3.33,2.13-2.98,2.45.54,3.6-.73,4.71,1.44,2.87,4.48-.48.93-.27,2.93-1.48,3.66-3.22,1.51-6.53,2.03-9.94,1.56-6.24,1.74-3.66-7.86,1.1-8.38,1.83.37,3.53-.94,4.98-1.85Z"/>
          <path class="cls-28" d="M49.1,18.95c.67.74,2.25.85,2.86,1.78-.08.83-.23,1.67-.54,2.45,2.07,4.12-3.1,7.69-7,6.18-1.51.52-1.75.05-.82-1.34-4.38-3.97.32-11.17,5.5-9.07Z"/>
          <path class="cls-28" d="M40.27,12.13c-1.7,2.54-3.05,5.67-1.1,8.38.34,1.65-.21,1.9-1.58.84,1.69,4.49.71,5.27-2.95,2.34-.74-.21-1.49-.34-2.26-.4.41-2.57.09-5.33,1.46-7.78.76-1.36,1.82-2.74,2.98-3.69,1.19-.98,2.34.09,3.45.31Z"/>
          <path class="cls-28" d="M37.58,21.35c3.7.34,7.9,2.38,6.02,6.67l.82,1.34c.67,1.26.17,1.5-1.3.88-.4.33-.89.72-1.19,1.15l-.54,2.45-1.49.96c-1.4-3.87-3.46-7.42-5.26-11.11l2.95-2.34Z"/>
          <path class="cls-28" d="M49.1,18.95c-3.27,1.96-3.51,6.02-5.5,9.07-2.66-1.89-6.68-2.92-6.02-6.67.45-.36,1.19-.42,1.58-.84,1.39-1.49,2.9-2.91,4.93-3.73,2.08-.84,3.68.46,5.01,2.18Z"/>
        </g>
        <path class="cls-28" d="M42.89,32.88l-1.49.96c-.02-.82.04-1.75.54-2.45l.96,1.49Z"/>
        <path class="cls-28" d="M45.87,30.96l-1.49.96-1.26-1.68c.38-.32.85-.68,1.3-.88l1.45,1.6Z"/>
        <path class="cls-28" d="M42.89,32.88c1.26-.19,1.56.32.96,1.49l-2.99,1.92c-.24-.53-.76-.95-.96-1.49-.41-1.58.1-1.88,1.49-.96l1.49-.96Z"/>
        <path class="cls-28" d="M44.38,31.92l.96,1.49-1.49.96-.96-1.49c-.97-.02-1.28-.53-.96-1.49-.85-1.44-.43-1.8,1.19-1.15,1.11-.89,1.53.19,1.26,1.68Z"/>
      </g>
      <g>
        <g id="hair-2" data-name="hair">
          <path class="cls-71" d="M38.95,4.13c3.01-2.05,4.96-1.03,5.82,2.4,3.07-.04,3.62,3.23.48,3.76,1.93,4.55-3.49,6.12-4.98,1.85-1.39,1.82-3.53,2.94-6.43,3.38-2.9,6.37-3.68,4.99-4.9-1.08l-.96-1.49c1.91-4.25,6.64-7.92,10.97-8.8Z"/>
          <path class="cls-55" d="M42.66,0c2.94,1.27,12.12.89,13.36,6.01.35,1.45-2.58,2.47-2.6,3.57-1.32,3.22-3.39,3.98-4.22.27-1.51.79-2.35-.29-2.52-3.24l-1.91-.09c-2.21.9-4.54-.53-5.82-2.4-1.7-.04-1.86-.67-.57-1.87-1.49.53-1.66.07-.63-1.27,1.28-.6,3.6-.47,4.9-.99Z"/>
          <path class="cls-53" d="M38.38,2.26c.28.57.21,1.35.57,1.87l-10.97,8.8,1.07-4.9c2.02-3.01,5.88-5.49,9.33-5.77Z"/>
          <path class="cls-45" d="M33.84,15.51c3.6,1.79,2.16,6.63-1.46,7.78-4.12-.32-3.54-5.58-3.44-8.87.36.64.81,1.51,1.58,1.96,1.07.63,2.43-.13,3.32-.87Z"/>
          <path class="cls-81" d="M37.76.99l.63,1.27-9.33,5.77c.12-4.07,5.41-5.49,8.71-7.04Z"/>
          <path class="cls-69" d="M53.41,9.59c.01,2.1-.92,4.4-2.84,5.71l-2.87-4.48c-.41-1.58.1-1.88,1.49-.96,1.41.28,2.85.14,4.22-.27Z"/>
          <path class="cls-13" d="M49.2,9.86l-1.49.96-2.45-.54c.9-1.2.31-2.66-.48-3.76.22-.63.11-1.7.34-2.23.31-.75,2.09-1.56,2.72.04.89,2.26.4,4.17,1.37,5.53Z"/>
        </g>
        <g id="face-2" data-name="face">
          <path class="cls-59" d="M34.64,23.69c4.39,2.6,8.34,6.03,5.26,11.11,1.59-.32,1.91.18.96,1.49-2.01,1.29-4.27,2.23-6.68,2.18-3.7,1.29-4.56-1.08-2.59-7.1.83-2.39.4-5.57.8-8.08.75-1.56,1.5-1.34,2.26.4Z"/>
          <path class="cls-51" d="M45.25,10.28c.83-3.33,2.13-2.98,2.45.54,3.6-.73,4.71,1.44,2.87,4.48-.48.93-.27,2.93-1.48,3.66-3.22,1.51-6.53,2.03-9.94,1.56-6.24,1.74-3.66-7.86,1.1-8.38,1.83.37,3.53-.94,4.98-1.85Z"/>
          <path class="cls-14" d="M49.1,18.95c.67.74,2.25.85,2.86,1.78-.08.83-.23,1.67-.54,2.45,2.07,4.12-3.1,7.69-7,6.18-1.51.52-1.75.05-.82-1.34-4.38-3.97.32-11.17,5.5-9.07Z"/>
          <path class="cls-101" d="M40.27,12.13c-1.7,2.54-3.05,5.67-1.1,8.38.34,1.65-.21,1.9-1.58.84,1.69,4.49.71,5.27-2.95,2.34-.74-.21-1.49-.34-2.26-.4.41-2.57.09-5.33,1.46-7.78.76-1.36,1.82-2.74,2.98-3.69,1.19-.98,2.34.09,3.45.31Z"/>
          <path class="cls-8" d="M37.58,21.35c3.7.34,7.9,2.38,6.02,6.67l.82,1.34c.67,1.26.17,1.5-1.3.88-.4.33-.89.72-1.19,1.15l-.54,2.45-1.49.96c-1.4-3.87-3.46-7.42-5.26-11.11l2.95-2.34Z"/>
          <path class="cls-52" d="M49.1,18.95c-3.27,1.96-3.51,6.02-5.5,9.07-2.66-1.89-6.68-2.92-6.02-6.67.45-.36,1.19-.42,1.58-.84,1.39-1.49,2.9-2.91,4.93-3.73,2.08-.84,3.68.46,5.01,2.18Z"/>
        </g>
        <path class="cls-50" d="M42.89,32.88l-1.49.96c-.02-.82.04-1.75.54-2.45l.96,1.49Z"/>
        <path class="cls-35" d="M45.87,30.96l-1.49.96-1.26-1.68c.38-.32.85-.68,1.3-.88l1.45,1.6Z"/>
        <path class="cls-86" d="M42.89,32.88c1.26-.19,1.56.32.96,1.49l-2.99,1.92c-.24-.53-.76-.95-.96-1.49-.41-1.58.1-1.88,1.49-.96l1.49-.96Z"/>
        <path class="cls-28" d="M44.38,31.92l.96,1.49-1.49.96-.96-1.49c-.97-.02-1.28-.53-.96-1.49-.85-1.44-.43-1.8,1.19-1.15,1.11-.89,1.53.19,1.26,1.68Z"/>
      </g>
    </g>
    <g id="front-arm">
      <path class="cls-100" d="M9.16,54.36c-.16-1.72,1.76-5.94,3.86-7.85s3.06-5.17,6.7-5.55,8.62-1.15,10.91.38,5.74,7.09,3.45,10.53-5.83,6.28-8.09,7.92-13.55,7.39-14.89,4.33-1.95-9.77-1.95-9.77Z"/>
      <path class="cls-24" d="M9.16,54.36c.38-1.34.26-5.22,1.79-6.6,1.53-1.38,5.48-4.81,6.57-5.77,1.09-.97,1.71-1.14,2.65,0s2.27,3.18,1.89,5.93c-.38,2.74-.64,6.51-3.57,6.89s-4.85.85-6.77.71-2.55-1.16-2.55-1.16Z"/>
      <g>
        <g>
          <path class="cls-82" d="M10.13,69.7c-2.55.56-3.99,1.78-4.33,3.65-.34,2.77.22,7.01,2.5,8.09-1.73.9-3.29,2.9-2.86,4.7,5.98-.12,9.06-6.35,11.91-11.08,2.74-2.78,5.54-7.21,6.2-10.87.11-4.11-.19-7.95-.91-11.53.25-1.25-.25-1.58-1.45-1.03-2.66-1.49-4.65.65-2.05,2.9-3.76-.73-5.87,1.42-6.35,6.44-2.1,1.29-2.88,6.02-2.66,8.73Z"/>
          <path class="cls-42" d="M7.93,55.3c.25,1.27-.81,2.71-.87,3.97.54.18,1.01.77,1.58.88.77,4.71,2.16,4.98,4.15.83,4.1.85,4.39-3.67,6.35-6.44.25-2.28-1.95-3.29-6.6-3.02-1.99-3.86-3.82.28-4.6,3.78Z"/>
          <path class="cls-92" d="M9.06,62.62c-4.49,8.63-4.13,10.99,1.07,7.08,1.61-2.19,5.11-2.54,6.5-5.77-.37-.91-2.09-.51-2.84-.8-.69-.27-1.02-1.09-1-2.15-1.37-.36-2.76-.57-4.15-.83.16.82.18,1.67.42,2.47Z"/>
          <path class="cls-24" d="M4.35,72.33c-.66,1.49-.13,1.78,1.45,1.03.75-.57,1.97-.64,3.21-.94,1.25-.3,1.53-1.33,1.12-2.71-1-.34-2.08.57-3.64-.15,1.78-2.82,3.26-4.61,2.57-6.94-2.29,2.84-4.39,6-4.71,9.71Z"/>
          <path class="cls-6" d="M23.54,64.2c.77-1.29,2.25-2.87,2.45-4.4,4.79-1.41,3.67-3.78-.63-4.85.79-1.47-1.11-2.68-2.74-2.28-.81-.56-2.86,10.22-3,9.98,1.03,1.75,2.69,1.24,3.92,1.55Z"/>
        </g>
        <g>
          <path class="cls-91" d="M1.63,85.23c-2.61,1-1.94,3.11.9,2.66-.66,1.15-.35,2.1.9,2.66.7,1.08,1.13.89,1.33-.45,1.89-.47.82-2.92-.02-4.44,2.72,1.25,3.9.36,3.54-2.68,1.44,2.36,2.2,1.71,2.66-.9.59,0,.88-.6.88-1.78-4.05-2.35-7.39,2.03-10.19,4.93Z"/>
          <path class="cls-102" d="M11.39,83.41c.74-.69.57-1.13-.45-1.33-.91.14-1.75.83-2.66.9-2.96,1.53-.2,5.69,2.36,6.64.49-.1,1.2-.43,1.6-.72,2.16,1.85,2.93.85,1.37-1.62.4-.55.27-.89-.39-1-.62-.62-1.23-1.58-1.83-2.87Z"/>
          <path class="cls-98" d="M15.4,86.5c-1.11-.93-1.71-.67-1.79.78-.47.5-.81,1.21-1.37,1.62.45,1.02.14,3.4,2.22,3.61,2.3.23,2.29-1.97,2.38-3.42.05-.88-.33-1.84-1.44-2.59Z"/>
          <path class="cls-4" d="M10.64,89.63c-1.67-2.02-2.75-2.17-3.22-.42-1.29-.14-1.52.5-.88,1.78-.51,1.41.89,2.77,2.29,2.01.84-.17,2.29-.37,2.57-1.45.16-.61-.65-1.43-.76-1.91Z"/>
          <path class="cls-100" d="M9.22,94.52c-2.05,1.38-1.3,1.94.9,2.66.45-.06.88-.36,1.33-.45.44-.34,2.33-.86,2.38-1.59.12-1.66-1.68-2.12-2.49-1.41-.37.31-1.21.66-2.12.79Z"/>
          <path class="cls-57" d="M6.54,90.98c.73-1.98-.2-2.49-1.78-.88-.87,2.91,1.98,7.52,4.46,4.42-.07-.52-.29-1.01-.39-1.53l-2.29-2.01Z"/>
          <path class="cls-85" d="M14.05,82.51c-.77-1.03-1.21-.87-1.33.45-1.18.92-1.02,2.79.5,3.32-.33.63-.55,1.02.39,1,.56-.33,1.16-.6,1.79-.78l-.45-1.33c-.2-.9-.77-1.74-.9-2.66Z"/>
          <path class="cls-36" d="M11.82,80.3c-.66,1.07-.29,2.4.9,2.66l1.33-.45c-.21-1.49-1.23-1.63-2.23-2.21Z"/>
          <path class="cls-2" d="M14.95,85.17c.1.46.32.88.45,1.33.57-.79.71-1.75-.45-1.33Z"/>
          <path class="cls-18" d="M8.28,82.98c-2.05.16-2.68,1.24-3.54,2.68.14,1.75.84,3.65,2.68,3.54,1.04.21,2.14.65,3.22.42-.46-1.87-3.34-4.39-2.36-6.64Z"/>
          <path class="cls-90" d="M4.74,85.66c-1.01,1.69-.62,2.58.02,4.44.66.04,1.3.46,1.78.88.36-.56.65-1.16.88-1.78-.41-1.48-1.06-3.18-2.68-3.54Z"/>
          <path class="cls-9" d="M11.82,80.3c-.96.05-.9,1.04-.88,1.78l.45,1.33c.77,1.03,1.21.87,1.33-.45l-.9-2.66Z"/>
          <path class="cls-72" d="M12.72,82.96l-1.33.45c-.2.8-.64,1.81-.34,2.34.54.94,1.68,1.8,2.17.54-.11-1.1-.15-2.28-.5-3.32Z"/>
        </g>
      </g>
    </g>
    <g id="body">
      <path class="cls-40" d="M39.06,41.25c2.58,3.15,4.13,9.35,4.2,13.6-4.56-.51-3.2-11.33-7.61-12.62-1.27-.18-1.41-.75-.49-1.7.1-1.5.67-1.64,1.7-.49,1.72-2.12,2.78-1.58,2.2,1.21Z"/>
      <g id="shirt">
        <path class="cls-40" d="M18.57,54.68c-.3-2.41-.32-9.77,1.66-12.45s7.47-8.11,9.38-6.45,5.87,2.49,7.15,1.79,5.3-2.87,6.45-3.77,1.72-3.26,2.43-2.94,5.04,3.13,6.77,4.91,7.79,21.7,9.06,25.28c1.28,3.57,5.23,12.89,4.72,14.49s-15.45,5.11-18.57,4.47-6-1.4-8.94-1.15-6.45,2.43-7.47,2.04-3.26-11.28-4.44-13.04-5.46-9.55-6.48-10.32-1.6-1.85-1.72-2.87Z"/>
        <path class="cls-106" d="M44.71,54.39l-1.45.46-4.2-13.6c.05-1.63.63-1.77,1.7-.49l3.95,13.63Z"/>
        <path class="cls-93" d="M30.53,43.72c.03-1.54,2.15-1.96,3.41-.99.05-1.63.63-1.77,1.7-.49,2.83.14,4.8,3.53,5.91,10.15l1.7,2.47c-.16-1.59.34-1.71,1.45-.46,1.07.25,1.21.82.49,1.7-3.24,6.06-21.37,12.01-24.88,3.36-3.29-3.23-3.05-8.1-1.81-12.46-1.18-3.43,1.88-4.81,5-3.1,2.46-4.04,4.35-4.13,7.03-.19Z"/>
        <path class="cls-75" d="M51.93,74.59c2.86,2.35.98,4.28-2.21,2.36-1.95,2.03-9.5,5.03-9.38.65.97-4.04-.25-5.29-3.63-3.74-.44,2.28-1.14,4.6-2.08,6.96-1.2.91-3.01-.1-3.93,1.33-3.5-1.34-1.46-6.26-2.44-8.45-1.19-1.91-1.69-3.86-1.48-5.82,17.5-7.56,25.89-5.32,25.16,6.72Z"/>
        <path class="cls-38" d="M46.19,59.53c3.38-5.06,5.9-1.56,4.96,3.58,4.64.41,5.61,2.14,2.92,5.2,1.53,2.3,2.84,4.5-.53,4.59,2.39,2.5,1.47,3.51-1.6,1.69-2.01-2.58-2.35-5.87-4.24-7.28-3.13-2.35-7.12-1.89-10.61-1.21-5.22,1.02-8.3,3.01-8.83,7.59-2.43-2.76-4.74-5.77-6.41-9.21,7.7-.37,15.22-2.36,22.55-5.97l1.78,1.02Z"/>
        <path class="cls-29" d="M45.2,56.09c4.69-.75,4.94.88.98,3.43-5.52,2.85-19.04,10.33-24.33,4.95-.77-1.59-1.96-3.22-1.53-5.02,4.55,5.45,22.95-1.82,24.88-3.36Z"/>
        <path class="cls-107" d="M40.35,77.6c1.45,2.58-2,3.67-4.5,3.02-.37.14-.91-.04-1.22.19-.99-1.93-2.48-4.1-2.31-6.45.11-1.51,1.94-3.72,4.27-4.2,4.64-.96,9.76,1.03,12.53,4.56-3.32,2.44-6.47,1.51-8.77,2.87Z"/>
      </g>
      <g id="vest">
        <path class="cls-17" d="M54.38,33.49c2.68.57,6.89,0,7.09,4.02.19,4.02,2.3,4.98,1.91,8.81-.38,3.83.57,11.11.57,12.45s-2.68,1.72-4.98.57-8.14-9.75-7.23-12.53c.91-2.79,2.63-13.32,2.63-13.32Z"/>
        <g>
          <path class="cls-66" d="M63.6,56.75c1.28,4.5,1.98,9.02,2.07,13.55l-1.07.25c-2.81,5.23-9.59-3.64-6.22-7.2-1.15-2.11-2.36-4.39-.15-5.82-6.05.42-6.5-3.47-.86-5.21.1-1.14-3.7-1.58-3.68-3.19,0-.7-2.85-3.2-2.78-4.52s3.09-1.53,3.34-.85c1.83,4.89,9.69,14.21,9.35,12.98Z"/>
          <path class="cls-78" d="M55.14,58.58c1.85.3,2.93,1.9,3.25,4.78,2.73,2.06,2.55,6.65,6.22,7.2.71,3.31-1.08,6.81-4,6.95-3.32-1.92-5.62-5.54-6.55-9.2-1.74-1.03-1.75-3.8-2.92-5.2l1.04-1.14c-6.37-5.78,2.88-11.26,2.96-3.39Z"/>
          <path class="cls-56" d="M60.61,77.51c-1.29.06-2.6-.65-3.88-.74-.47-1.63-1.64-3.07-3.2-3.87l.53-4.59c3.41,2.02,4.62,5.88,6.55,9.2Z"/>
          <path class="cls-1" d="M46.41,53.9c3.37,1.85,2.62,3.18-1.21,2.2l-.49-1.7c-2.34-3.41-4.22-9.45-3.95-13.63.05-1.63.63-1.77,1.7-.49,1.01-.05,1.82-.02,1.92.26.87,2.38,2.12,9.22,2.55,12.07.06.4-.19.85-.53,1.31Z"/>
          <path class="cls-33" d="M59.06,33.79c-4.2,1.21-4.59,6.48-4.4,10.33l-3.41.99c-1.27-.18-1.41-.75-.49-1.7-1.63-.05-1.77-.63-.49-1.7.93-4.57.72-5.02-1.97-6.82.08,3.09-.03,4.83-2.92,2.69-4.62.98-4.95-.16-.99-3.41-.84-1.42-.44-2.15,1.21-2.2,4.47,1.2,9.28-.6,13.46,1.82Z"/>
          <path class="cls-41" d="M51.26,45.1l.49,1.7,1.25,3.33c1.26,3.21-.05,3.59-1.97.57-2.82.94-4.21-5.01-1.97-6.82.05-1.63.63-1.77,1.7-.49l.49,1.7Z"/>
          <path class="cls-68" d="M57.38,52.33c-1.09,1.72-.06,3.62.86,5.21.36,3.31-1.35,4.1-3.1,1.04-2.19-1.8-3.37-1.46-2.4,1.34.81,1.09,1.34,2.24,1.91,3.44.24.5-.34,1.83-1.6.64-.47-.44-1.21-.75-1.9-.89-1.3-1.56-2.97-3.17-4.96-3.58l-.98-3.43c.65-.52,1.5-1.21,1.21-2.2-.01-1.62.57-1.75,1.7-.49-.34-2.93.13-4.34,2.92-2.69l1.97-.57c1.74-.5,2.94,1.73,4.38,2.19Z"/>
          <path class="cls-109" d="M58.24,57.54c.58,1.9.8,3.92.15,5.82-1.62-1.23-3.22-2.38-3.25-4.78l3.1-1.04Z"/>
          <path class="cls-65" d="M45.38,37.57c1.63.05,1.77.63.49,1.7.62,4.04-1.35,4.52-3.41.99l-1.7.49-1.7.49-2.2-1.21c-1.27.1-1.61-1.54-.99-2.65,2.34-.3,3.45-1.29,5.36-2.62.68-.47,2.33-1.17,2.87-1.85l1.27,4.65Z"/>
          <path class="cls-49" d="M45.87,39.27c2.57-.7,3.3,2.03.99,3.41,1.89,3.62,2.31,7.19,1.26,10.72-.53.25-1.16.27-1.7.49l-3.95-13.63,3.41-.99Z"/>
          <path class="cls-27" d="M50.27,41.7l.49,1.7-1.7.49c-1.25,1.12-1.95.62-2.2-1.21l-.99-3.41-.49-1.7c.92-.95,1.87-1.88,2.92-2.69,3.04-.39,3.53,4.3,1.97,6.82Z"/>
          <path class="cls-17" d="M50.27,41.7l-1.97-6.82c2.66-2.04,4.52.33,4.56,3.14.02,1.26-1.41,2.63-2.59,3.68Z"/>
          <path class="cls-26" d="M49.06,43.89l1.97,6.82c-.66,1.18-1.69,2.11-2.92,2.69-1.02-3.51-3.11-7.22-1.26-10.72.75.37,1.49.77,2.2,1.21Z"/>
        </g>
        <g>
          <path class="cls-10" d="M23.8,77.07c.34,3.09.59,6.09.76,9.02-2.28,7.06-7.09-27.77-4.71-22.65,2.46,3.94,4.58,8.87,3.95,13.63Z"/>
          <path class="cls-31" d="M22.11,37.36c.64-.67,1.45-1.14,2.36-1.35,1.84-.43,4.82-1.05,4.83-.48.03,1.69-6.1,6.7-5.79,8.37-1.45,1.36-3.12,2.45-5,3.1-.69-.49-1.49-.82-2.32-.98l-.9-2.83c2.12-1.08,5.27-4.21,6.82-5.83Z"/>
          <path class="cls-60" d="M24.24,83.4c.73,3.01,5.14,6.95,1.55,9.33-1.24-3.61-5.23-7.86-2.46-11.44.3.69.73,1.37.91,2.1Z"/>
          <path class="cls-49" d="M25.07,45.3c-3.74-3.1-4.47-4.69-6.72-2.24-2.26,2.45-.82,22.26,1.25,28.6,2.08,6.35,5.25,18.98,6.17,19.5s2.61,1.03,4.89-3.92c2.28-4.95-1.04-7.09-2.02-19.91-.98-12.82-3.57-22.03-3.57-22.03Z"/>
          <path class="cls-26" d="M19.52,55.72c-.38-1.14-1.47-1.11-2.51-3.75s-4.35-6.02-3.68-7.39c.67-1.37,1.63-2.89,3.42-2.91s4.02,2.18,4.47,4.09.34,8.91-.07,9.91-2.15,4.88-2.94,3.25c-.78-1.63.78-2.5.68-2.74s.63-.45.63-.45Z"/>
        </g>
        <path class="cls-95" d="M22.37,79.33c-.85-.29-.98-.88-.49-1.7l-3.95-13.63c4.1,2.87,6.14,10.65,4.44,15.34Z"/>
      </g>
    </g>
  </g>
</svg>