<?xml version="1.0" encoding="UTF-8"?>
<svg id="Enemy" xmlns="http://www.w3.org/2000/svg" viewBox="0 0 80.26 159.9">
  <defs>
    <style>
      .cls-1 {
        fill: #a5670b;
      }

      .cls-2 {
        fill: #39434c;
      }

      .cls-3 {
        fill: #161c1f;
      }

      .cls-4 {
        fill: #d98654;
      }

      .cls-5 {
        fill: #151e35;
      }

      .cls-6 {
        fill: #f7a97c;
      }

      .cls-7 {
        fill: #0a0c15;
      }

      .cls-8 {
        fill: #b46242;
      }

      .cls-9 {
        fill: #9c3e0a;
      }

      .cls-10 {
        fill: #683e07;
      }

      .cls-11 {
        fill: #0a0e15;
      }

      .cls-12 {
        fill: #3b3e4a;
      }

      .cls-13 {
        fill: #0d8b11;
      }

      .cls-14 {
        fill: #f7af80;
      }

      .cls-15 {
        fill: #2e333c;
      }

      .cls-16 {
        fill: #21201b;
      }

      .cls-17 {
        fill: #f8cc49;
      }

      .cls-18 {
        fill: #a65124;
      }

      .cls-19 {
        fill: #08090f;
      }

      .cls-20 {
        fill: #1d1a19;
      }

      .cls-21 {
        fill: #101d38;
      }

      .cls-22 {
        fill: #6e7379;
      }

      .cls-23 {
        fill: #18202a;
      }

      .cls-24 {
        fill: #d29669;
      }

      .cls-25 {
        fill: #232c34;
      }

      .cls-26 {
        fill: #b78024;
      }

      .cls-27 {
        fill: #b47d24;
      }

      .cls-28 {
        fill: #883819;
      }

      .cls-29 {
        fill: #969fb8;
      }

      .cls-30 {
        fill: #43548a;
      }

      .cls-31 {
        fill: #7a370e;
      }

      .cls-32 {
        fill: #2e323e;
      }

      .cls-33 {
        fill: #a06a2a;
      }

      .cls-34 {
        fill: #502204;
      }

      .cls-35 {
        fill: #5e1600;
      }

      .cls-36 {
        fill: #3f1c0c;
      }

      .cls-37 {
        fill: #808b96;
      }

      .cls-38 {
        fill: #636e85;
      }

      .cls-39 {
        fill: #0c0d12;
      }

      .cls-40 {
        fill: #d0d1e6;
      }

      .cls-41 {
        fill: #f2c13b;
      }

      .cls-42 {
        fill: #f5c58b;
      }

      .cls-43 {
        fill: #111c22;
      }

      .cls-44 {
        fill: #1c2018;
      }

      .cls-45 {
        fill: #38424c;
      }

      .cls-46 {
        fill: #2b3c15;
      }

      .cls-47 {
        fill: #27201e;
      }

      .cls-48 {
        fill: #060816;
      }

      .cls-49 {
        fill: #111516;
      }

      .cls-50 {
        fill: #f2c03f;
      }

      .cls-51 {
        fill: #f4a371;
      }

      .cls-52 {
        fill: #edc896;
      }

      .cls-53 {
        fill: #fb9a6e;
      }

      .cls-54 {
        fill: #0aac19;
      }

      .cls-55 {
        fill: #34436c;
      }

      .cls-56 {
        fill: #0e8d12;
      }

      .cls-57 {
        fill: #613e14;
      }

      .cls-58 {
        fill: #703b25;
      }

      .cls-59 {
        fill: #5d6873;
      }

      .cls-60 {
        fill: #f1ab77;
      }

      .cls-61 {
        fill: #a26814;
      }

      .cls-62 {
        fill: #222e43;
      }

      .cls-63 {
        fill: #101117;
      }

      .cls-64 {
        fill: #050509;
      }

      .cls-65 {
        fill: #111523;
      }

      .cls-66 {
        fill: #be7649;
      }

      .cls-67 {
        fill: #7f570e;
      }

      .cls-68 {
        fill: #1b1d28;
      }

      .cls-69 {
        fill: #ac7b1c;
      }

      .cls-70 {
        fill: #3f5012;
      }

      .cls-71 {
        fill: #1e1e2a;
      }

      .cls-72 {
        fill: #0e700e;
      }

      .cls-73 {
        fill: #f29a6d;
      }

      .cls-74 {
        fill: #47515f;
      }

      .cls-75 {
        fill: #08090d;
      }

      .cls-76 {
        fill: #949db6;
      }

      .cls-77 {
        fill: #a5acb2;
      }

      .cls-78 {
        fill: #1c1e28;
      }

      .cls-79 {
        fill: #74440b;
      }

      .cls-80 {
        fill: #535a69;
      }

      .cls-81 {
        fill: #36363e;
      }

      .cls-82 {
        fill: #164f0b;
      }

      .cls-83 {
        fill: #e8966b;
      }

      .cls-84 {
        fill: #2c2c38;
      }

      .cls-85 {
        fill: #151c27;
      }

      .cls-86 {
        fill: #c77542;
      }

      .cls-87 {
        fill: #b25122;
      }

      .cls-88 {
        fill: #60340c;
      }

      .cls-89 {
        fill: #8a92a1;
      }

      .cls-90 {
        fill: #231312;
      }

      .cls-91 {
        fill: #c5734c;
      }

      .cls-92 {
        fill: #964513;
      }

      .cls-93 {
        fill: #edb981;
      }

      .cls-94 {
        fill: #c4c4d4;
      }

      .cls-95 {
        fill: #626587;
      }

      .cls-96 {
        fill: #a17825;
      }

      .cls-97 {
        fill: #151c25;
      }

      .cls-98 {
        fill: #3c3b55;
      }

      .cls-99 {
        fill: #be6634;
      }

      .cls-100 {
        fill: #181f25;
      }

      .cls-101 {
        fill: #3c251d;
      }

      .cls-102 {
        fill: #eea175;
      }

      .cls-103 {
        fill: #b25e2f;
      }

      .cls-104 {
        fill: #393b49;
      }

      .cls-105 {
        fill: #191a23;
      }

      .cls-106 {
        fill: #373435;
      }

      .cls-107 {
        fill: #8c8481;
      }

      .cls-108 {
        fill: #bcc0d5;
      }

      .cls-109 {
        fill: #adb2bc;
      }

      .cls-110 {
        fill: #9a691f;
      }
    </style>
  </defs>
  <g id="JumpingJunkie_walk">
    <path class="cls-24" d="M5.28,43.12c.38-1.34.26-5.22,1.79-6.6s5.48-4.81,6.57-5.77,1.71-1.14,2.65,0,2.27,3.18,1.89,5.93c-.38,2.74-.64,6.51-3.57,6.89s-4.85.85-6.77.71-2.55-1.16-2.55-1.16Z"/>
    <g>
      <path class="cls-2" d="M54.49,60.43c.85-1.89,1.16-3.21,2.73-3.71s2.54-2.34,4.34-1.09c1.8,1.25,3.24,5.76,2.99,8.25-.04.44,3.34,3.46,3.03,3.85-1.45,1.8-8.86.22-10-1.51-1.39-2.1-4.73-2.21-5.58-3.21-.85-1-1.88-2.78-.77-3.18,1.11-.4,3.26.6,3.26.6Z"/>
      <g>
        <path class="cls-2" d="M63.4,73.66c.98-.04,5.71,1.78,5.73.11.01-1.67-.71-3.84-1.76-4.8-1.05-.96-2.82-2.8-3.75-2.97s-3.05.38-3.3.91,0,5.66.8,6.02,2.29.72,2.29.72Z"/>
        <path class="cls-90" d="M59.46,65.84c-.01,4.56,4.44,5.39,8.07,6.08.15.69-.44,1.51-.41,2.22-2.18-.07-6.2-2.33-7.19.47-2.54-2.67-4.84-5.79-4.91-9.59,1.43-.18,2.99.82,4.44.82Z"/>
        <path class="cls-18" d="M60.67,67.43c1.21.82,1.98,2.15,2.95,3.21l-2.51,2.31-2.95-3.21c-1.53-1.66-3-3.38-4.02-5.47,3.49-7.84,6.29-1.65,6.53,3.16Z"/>
        <g>
          <g>
            <path class="cls-83" d="M55.75,52.63c2.42.97,3.64,2.42,3.66,4.32-.12,2.79-1.38,6.87-3.81,7.56,1.56,1.17,2.76,3.41,2.04,5.11-5.87-1.12-7.88-7.77-9.9-12.91-2.24-3.19-4.27-8.04-4.31-11.75.57-4.07,1.51-7.81,2.82-11.21-.04-1.28.51-1.51,1.6-.77,2.88-1.03,4.47,1.42,1.54,3.2,3.82-.09,5.55,2.38,5.19,7.4,1.86,1.62,1.84,6.41,1.17,9.05Z"/>
            <path class="cls-42" d="M60.32,38.8c-.45,1.22.35,2.81.2,4.06-.57.09-1.13.59-1.7.6-1.54,4.51-2.95,4.55-4.23.13-4.19.15-3.72-4.35-5.19-7.4.13-2.29,2.47-2.92,7.01-1.88,2.6-3.47,3.72.91,3.91,4.49Z"/>
            <path class="cls-93" d="M57.99,45.83c2.99,9.26,2.25,11.53-2.23,6.81-1.22-2.43-4.62-3.35-5.45-6.77.52-.83,2.15-.15,2.93-.32.72-.16,1.19-.9,1.35-1.96,1.41-.13,2.82-.1,4.23-.13-.29.78-.46,1.62-.83,2.37Z"/>
            <path class="cls-24" d="M61.01,56.19c.4,1.58-.17,1.78-1.6.77-.65-.69-1.84-.96-3.01-1.46-1.18-.51-1.29-1.57-.65-2.86,1.04-.17,1.96.91,3.61.46-1.29-3.08-2.45-5.09-1.38-7.27,1.78,3.18,3.33,6.65,3.03,10.36Z"/>
            <path class="cls-6" d="M43.44,44.97c-.55-1.4-1.74-3.2-1.69-4.74-4.49-2.19-2.99-4.34,1.43-4.68-.53-1.58,1.54-2.46,3.08-1.79.9-.42,1.12,10.55,1.3,10.34-1.31,1.55-2.86.78-4.12.88Z"/>
          </g>
          <g>
            <path class="cls-92" d="M61.68,81.36c-3.15.97-4.51-1.04-1.66-2.57-1.62-.42-2.22-1.33-1.66-2.57-.39-1.26.16-1.4,1.56-.54,2.05-.89,3.37,1.63,4.04,3.31,1.19-2.71,3.03-2.83,5.5-.34-.92-2.69.34-2.71,3.11-1.08.51-.39,1.3-.14,2.38.74-1.33,4.41-8.22,3.35-13.27,3.04Z"/>
            <path class="cls-103" d="M71.74,76.3c1.27.02,1.52.46.83,1.28-.91.49-2.26.54-3.11,1.08-3.95.81-5.38-4.09-4.05-6.48.51-.24,1.42-.47,2.04-.52.17-2.79,1.74-2.56,2.67.3.85.15,1.05.48.58.99.03.87.39,1.98,1.05,3.34Z"/>
            <path class="cls-99" d="M72.37,71.37c-.11,1.42-.86,1.62-2.25.6-.87-.06-1.8-.37-2.67-.3-.55-1.06-2.99-2.61-1.39-4.14,1.77-1.68,3.77-.04,5.17.97.85.62,1.4,1.58,1.13,2.87Z"/>
            <path class="cls-4" d="M65.41,72.18c.41,2.6-.38,3.41-2.38,2.43-.98.95-1.77.63-2.38-.74-1.73-.71-1.77-2.64.13-3,.88-.43,2.31-1.23,3.54-.61.7.35.76,1.49,1.09,1.92Z"/>
            <path class="cls-101" d="M59.72,69.48c-3.02.32-2.89-.59-1.66-2.57.44-.26,1.09-.31,1.56-.54.68-.04,2.79-.89,3.5-.39,1.62,1.16.49,2.67-.85,2.69-.6,0-1.65.31-2.55.81Z"/>
            <path class="cls-58" d="M60.65,73.87c2.44.99,2.1,1.98-.73,1.82-3.41-1.59-5.17-6.88-.2-6.21.41.43.68.94,1.06,1.39l-.13,3Z"/>
            <path class="cls-86" d="M74.85,75.22c.28,1.27-.25,1.44-1.56.54-1.85.09-3.43-1.39-2.61-2.8-.86-.25-1.4-.4-.58-.99.79-.12,1.55-.32,2.25-.6l.83,1.28c.65.8.93,1.8,1.66,2.57Z"/>
            <path class="cls-36" d="M74.96,78.32c-1.55-.36-2.44-1.59-1.66-2.57l1.56-.54c1.18,1.25.43,2.01.1,3.11Z"/>
            <path class="cls-2" d="M73.2,72.65c-.33-.4-.53-.87-.83-1.28,1.21.21,2.21.83.83,1.28Z"/>
            <path class="cls-18" d="M69.46,78.66c-1.91,1.22-3.43.84-5.5.34-1.48-1.39-2.61-3.26-.93-4.39.71-.84,1.24-1.89,2.38-2.43,1.31,1.69,1.14,5.45,4.05,6.48Z"/>
            <path class="cls-91" d="M63.96,79c-2.41-.59-2.89-1.51-4.04-3.31.53-.47.7-1.2.73-1.82.82.18,1.62.43,2.38.74,1,1.37,2,3.05.93,4.39Z"/>
            <path class="cls-9" d="M74.96,78.32c-.87.59-1.73-.18-2.38-.74l-.83-1.28c-.28-1.27.25-1.44,1.56-.54l1.66,2.57Z"/>
            <path class="cls-73" d="M73.3,75.76l-1.56.54c-.9-.46-2.2-.92-2.43-1.51-.39-1.05-.21-2.44,1.38-1.82.91.89,1.96,1.79,2.61,2.8Z"/>
          </g>
        </g>
      </g>
    </g>
    <path class="cls-94" d="M30.4,34.69c.45-1.47,2.61-1.28,3.55,0,.5-1.55,1.1-1.53,1.77,0,2.68.93,3.63,4.72,2.85,11.4l.95,2.84c.28-1.57.8-1.54,1.52-.04.96.54.93,1.13,0,1.77-4.8,4.92-23.87,5.6-24.84-3.69-2.27-4.02-.68-8.63,1.72-12.47-.18-3.62,3.15-4.09,5.66-1.58,3.49-3.2,5.33-2.76,6.8,1.77Z"/>
    <path class="cls-76" d="M42.37,70.31c1.27,1.85.9,3.16.9,3.16l-2.11.6s-12.09.09-10.76-4.09c2.05-3.61,1.24-5.15-2.45-4.61-1.06,2.07.07,5.07-1.49,7.08-.4.15-1.75,1.76-1.75,1.76h-3.74s-.65-2.94-1.1-2.55c-2.98-2.26.34-6.41,0-8.8-.61-2.17-.55-4.17.2-6,18.91-2.39,26.35,2.09,22.3,13.46Z"/>
    <path class="cls-29" d="M41.05,50.66c4.71.58,4.5,2.22,0,3.57-6.1,1.2-21.16,4.63-24.75-2.01-.3-1.74-.99-3.64-.07-5.25,2.85,6.5,22.55,4.64,24.84,3.69Z"/>
    <path class="cls-38" d="M41.04,54.23c4.65-3.92,6.1.15,3.77,4.82,4.34,1.68,4.79,3.62,1.36,5.8.46,1.45-.35,5.69-.57,6.77-.03.17-.1.33-.18.47l-1.03,1.72-1.69-.22s-.04-3-.32-3.3c-1.21-3.04-.63-6.29-2.04-8.17-2.35-3.13-6.31-3.8-9.85-4.11-5.3-.48-8.81.58-10.6,4.84-1.56-3.33-2.95-6.86-3.59-10.63,7.5,1.79,15.27,1.96,23.32.54l1.43,1.47Z"/>
    <path class="cls-45" d="M60.84,54.54c-3.49,4.69.32,11.47-4.08,15.47l.55-15.5c.87-.73,2.8-.02,3.53.03Z"/>
    <path class="cls-54" d="M46.7,4.71c-.07.63-.55,1.25-.54,1.88l-13.98,1.49,3.55-3.55c3.32-1.44,7.91-1.44,10.97.18Z"/>
    <path class="cls-96" d="M12.66,66.63c-.74-.52-.7-1.11,0-1.77v-14.19c3.14,3.9,2.94,11.94,0,15.97Z"/>
    <path class="cls-40" d="M39.27,34.69c1.6,3.74,1.37,10.13.25,14.24-4.24-1.76.08-11.77-3.8-14.24-1.17-.52-1.14-1.11,0-1.77.51-1.41,1.1-1.39,1.77,0,2.24-1.56,3.11-.74,1.77,1.77Z"/>
    <path class="cls-107" d="M41.05,48.89l-1.52.04-.25-14.24c.5-1.55,1.1-1.53,1.77,0v14.19Z"/>
    <path class="cls-108" d="M30.4,69.97c.67,2.88-2.94,2.96-5.16,1.65-.39.03-.87-.29-1.22-.15-.41-2.13-1.24-4.63-.43-6.84.52-1.42,2.9-3.03,5.27-2.84,4.73.37,9.09,3.7,10.77,7.87-3.87,1.42-6.64-.35-9.23.32Z"/>
    <g>
      <path class="cls-64" d="M57.46,94.1c-2.92-4.1-4.09-6.47-5.75-9.08-1.67-2.61-3.81-6.39-5.71-7.71-1.1-.77-.76-3.69-1.37-4.03-.21-.12-1.28-.41-1.28-.41l-1.71.54s-.76.14-1.16.21c-3.86.69-4.33.16-4.81,3.99s.45,10.54,1.45,12.83c1,2.29,4.09,11.56,7.34,11.86,3.24.3,13.79-4.53,13.4-5.38s-.4-2.82-.4-2.82Z"/>
      <path class="cls-68" d="M64.07,122.26c.46,1.85,1.15,3.55-.83,4.95-1.04-1.83-2.79-.48-3.92.61.12-2.76,2.54-4.31,4.75-5.56Z"/>
      <g>
        <path class="cls-64" d="M39.29,103.5c2.08,6.75,5.27,18.05,5.42,21.62.15,3.57,1.64,6.97,4.22,6.31,2.58-.66,6.97-1.44,9.04-3.15,2.07-1.71,2.31-4.53,4.97-9.39,2.66-4.86-1.69-4.45-3.6-10.62-1.91-6.17-3.01-10.33-7.7-12.63-4.69-2.3-11.58-3.64-15.5-4.99-3.92-1.36-3.13,4.57-1.32,6.95,1.81,2.38,4.46,5.9,4.46,5.9Z"/>
        <path class="cls-68" d="M38.32,101.4c4.12,4.61,4.6,4.27,1.44-1.03-1.58-.28-2.25-1.3-1.82-2.91-2.12-5.89,1.92-6.58,12.12-2.09l3.31-.37c6.69,3.59,11.83,15.03,10.42,23.28-1.71,4.16-6.34,11.68-10.87,9.75-2.41-.23-5.27.23-7-1.39-4.04-3.77-.4-12.01-3.88-16.9l-12.38-17.42c3.44-3.32,8.1,5.69,8.65,9.09Z"/>
        <path class="cls-64" d="M35.03,90.67c4.51,1.06,5.29,2.78,2.92,6.79.73.8,1.32,1.94,1.82,2.91.49,1.55,0,1.88-1.44,1.03-2.26-4-4.69-7.19-8.65-9.09-3.51-7.08-11.42-7.81-10.38-14.77,12.87,7.35.48,5.94,15.74,13.12Z"/>
        <path class="cls-48" d="M64.07,122.26c-.54,1.98-2.13,3.84-4.75,5.56,2.21.93.28,3.42-1.86,3.5-1.28-1.01-2.73-3.14-4.53-3.31,4.51-2.4,7.78-5.89,10.87-9.75.41,1.49-.01,2.79.28,3.98Z"/>
        <path class="cls-19" d="M57.91,94.44c1.32,6.35,11.99,16.2,5.89,23.83l-3.58-13.04c-1.15-4.18-7-5.9-6.84-10.24-3.62-.07-3.62-1.56.02-2.53,1.66.19,3.22.94,4.51,1.98Z"/>
        <path class="cls-39" d="M53.39,92.47c-.56.82.01,1.71-.02,2.53-1.83,1.01-.14,2.7-.51,5.7-3.14-.74-14.39-9.61-14.92-3.25-1.74-1.9-2.85-4.17-2.92-6.79,1.6.14,2.77-.41,2.69-1.69-.1-1.49-1.1-3.24-.45-4.49,2.88,6.58,9.54,7.21,16.13,7.98Z"/>
        <path class="cls-7" d="M38.32,101.4l1.44-1.03c1.65,3.2,5.31,5.23,5.41,9.46-4.25-2.41-4.44-6.34-6.85-8.43Z"/>
      </g>
      <g>
        <path class="cls-23" d="M60.82,153.93c-4.06,1.19-4.76,2.78-5.84,1.54s-2.32-.45-2.28-3.31c.03-2.86-2.21-5.42-2.18-7.07s-2.25-9.71-3.3-10.99c-1.05-1.28-1.45-2.94-.83-3.41s2.83-2.52,4.45-1.79c1.62.72,3.62-.51,5.32,0s5.15,1.73,4.77,4.25c-.38,2.52-.28.87-1.41,3.9-1.13,3.04,1.3,16.88,1.3,16.88Z"/>
        <path class="cls-30" d="M58.08,135.25c2.29-1.14,2.89.08.95,2.03.46,3.17.76,6.41.9,9.73.49,1.55,0,1.88-1.44,1.03-2.2-.3-3.67-1.07-2.06-2.89-3.01-2-5.32-5.13-6.18-8.67l-1.15-1.61c3.12-2.34,5.45-1.93,8.99.38Z"/>
        <path class="cls-44" d="M63.43,148.87c1.48-.65,1.78-.12,1.03,1.44,5.21-2.95,10.37-5.9,15.48-8.85.92,1.07-.26,2.4-1.76,3.46l-14.55,10.34c-.93-.67-1.51-1.9-2.41-2.64-1.63.43-1.91-.1-.91-1.53-1.78-2.03-.71-2.69,1.68-1.2l1.44-1.03Z"/>
        <path class="cls-59" d="M58.48,148.04l1.44-1.03c-1.53-3.65-.91-4.81,1.86-3.5,4.56.21,4.63,2.34.2,6.39l-1.68,1.2c-.24,2.56-2.22,2.77-4.38,1.57-.84-.39-2.33.07-3.22-.51-1.97-2.2-2.58-4.58.83-4.95,1.39-1.11,3.04-.83,4.95.83Z"/>
        <path class="cls-25" d="M63.03,136.08c-1.22.29-1.53-.22-1.03-1.44-1.11.46-1.83.76-2.47-.42l-1.03-1.44c.55-2.41,2.16-5.25,4.75-5.56,1.62,2.8,1.63,6.19-.22,8.87Z"/>
        <path class="cls-16" d="M60.3,151.09c.39.43.47,1.17.91,1.53-.57,1.24-.35,3.2-2,2.64-1.51-.52-2.27-1.75-3.29-2.6,1.09-1.29,2.7-2.16,4.38-1.57Z"/>
        <path class="cls-80" d="M63.24,127.21c-1.28,2.17-2.44,4.38-4.75,5.56-.33-.47-.58-1.09-1.03-1.44l1.86-3.5c1.65-3.14,4.6-4.92,3.92-.61Z"/>
        <path class="cls-95" d="M62,134.63c.49,1.55,0,1.88-1.44,1.03,1.09,1.96.52,2.72-1.53,1.61l-.95-2.03c.52-.24.9-.85,1.44-1.03.79-.26,1.84-.14,2.47.42Z"/>
        <path class="cls-65" d="M71.48,138.77c1.07,1.03.93,1.85-.42,2.47-4.17,6.59-10.12,5.24-8.45-2.69-.55-1.56,0-1.81,1.53-.91,2.71-1.38,4.98,0,7.34,1.12Z"/>
        <path class="cls-34" d="M76.02,142.07c-.49-1.55,0-1.88,1.44-1.03.81-.87,1.99-.67,2.47.42l-13.06,9.24c-1.06.75-2.09.39-2.42-.38,2.1-3.41,7.34-6.87,11.56-8.24Z"/>
        <path class="cls-77" d="M77.46,141.04l-1.44,1.03-3.92.61c-1.55.49-1.88,0-1.03-1.44-.17-.85-.04-1.73.42-2.47,1.82.87,4.62.17,5.98,2.28Z"/>
        <path class="cls-49" d="M63.03,136.08l1.12,1.57c-.52.27-1.05.57-1.53.91-1.54.48-2.87-1.42-2.06-2.89l1.44-1.03c.43.38.7.98,1.03,1.44Z"/>
        <path class="cls-15" d="M56.42,145.15l2.06,2.89c-1.7.64-3.49.17-4.95-.83-.37-1.57-2.62-2.87-3.33-4.35.3-.79.31-1.68.65-2.46,1.78,1.25,3.64,2.84,5.56,4.75Z"/>
        <path class="cls-5" d="M56.42,145.15c-2.64-.38-4.36-2.51-5.56-4.75-.64-1.21-.97-2.58-.61-3.92l6.18,8.67Z"/>
        <path class="cls-62" d="M59.03,137.27c1.24-1.19,2.5.64,2.14,2.31,1.33.97,1.9,2.85.61,3.92l-1.86,3.5c-.84-1.56-3.06-3.88-3.81-6.19-.4-1.24,1.83-2.4,2.91-3.54Z"/>
        <path class="cls-37" d="M62.61,138.55c-.19,2.21,1.18,3.71,2.53,4.34,2.42,1.13,4.67-.16,5.92-1.65l1.03,1.44c-1.2,2.77-5.81,5.75-8.67,6.18l-1.44,1.03c.86-2.11.84-4.37-.2-6.39-.62-1.19-.73-2.61-.61-3.92-.49-1.55,0-1.88,1.44-1.03Z"/>
        <path class="cls-74" d="M72.1,142.69c1.14-.82,2.68-1.74,3.92-.61l-11.56,8.24c-.23-.54-.74-.93-1.03-1.44l8.67-6.18Z"/>
        <path class="cls-98" d="M62.61,138.55l-1.44,1.03-2.14-2.31c.5-.53.94-1.19,1.53-1.61l2.06,2.89Z"/>
      </g>
    </g>
    <g>
      <path class="cls-57" d="M47.41,27.68c-.76-.16-4.39-.57-5.66-.48-1.27.1-4.81-.28-5.38-.01s-.16,3.13-.29,3.66,2.01,2.68,3.37,2.69,5.45-.31,6.58-.31,2.82-1.66,2.6-2.17-1.21-3.38-1.21-3.38Z"/>
      <path class="cls-57" d="M49.89,75.52c-1.26-.3-4.8-1.37-6-1.81,0-1.7,1.76-3.38.49-4.58l1.78-4.27c2.71,2.89,2.8,6.93,3.73,10.66Z"/>
      <path class="cls-67" d="M58.54,56.42c-.02,4.68-.61,9.21-1.78,13.59l-1.09-.06c-4.15,4.25-8.2-6.17-3.98-8.64-.51-2.34-1.05-4.87,1.48-5.63-5.92-1.27-5.27-5.14.62-5.24.41-1.06-3.11-2.55-2.65-4.09.2-.67-1.85-3.86-1.42-5.11.45-1.29,3.39-.61,3.45.11.4,5.21,5.36,16.34,5.37,15.07Z"/>
      <path class="cls-79" d="M49.9,55.81c1.69.81,2.29,2.64,1.79,5.5,2.05,2.74.6,7.09,3.98,8.64-.24,3.38-2.93,6.24-5.78,5.57-2.65-2.77-3.86-6.89-3.73-10.66-1.38-1.48-.62-4.14-1.36-5.8l1.31-.8c-4.51-7.32,5.9-10.01,3.79-2.44Z"/>
      <path class="cls-1" d="M42.82,48.89c2.72,2.72,1.63,3.78-1.77,1.77v-1.77c-1.29-3.93-1.43-10.25,0-14.19.5-1.55,1.1-1.53,1.77,0,.98.24,1.75.49,1.77.79.17,2.53-.53,9.45-.9,12.3-.05.4-.42.76-.87,1.11Z"/>
      <path class="cls-33" d="M58.25,33.04c-2.58,3.39-3.9,5.01-4.79,8.75h-3.55c-1.17-.52-1.14-1.11,0-1.77-1.55-.5-1.53-1.1,0-1.77,2.16-4.13,2.08-4.62,0-7.1-.79,2.99-1.38,4.63-3.55,1.77-4.71-.34-4.71-1.53,0-3.55-.41-1.6.18-2.19,1.77-1.77,3.96,2.4,6.77,1.95,10.11,5.44Z"/>
      <path class="cls-41" d="M49.92,41.79v1.77l.27,3.55c.32,3.43-1.05,3.43-2.05,0-2.97.12-2.65-5.98,0-7.1.5-1.55,1.1-1.53,1.77,0v1.77Z"/>
      <path class="cls-69" d="M53.79,50.43c-1.53,1.35-1.07,3.46-.62,5.24-.58,3.28-2.44,3.56-3.26.14-1.6-2.34-2.83-2.34-2.68.62.47,1.27.66,2.52.88,3.83.09.55-.83,1.67-1.71.17-.33-.55-.95-1.06-1.58-1.39-.82-1.86-1.97-3.87-3.77-4.82v-3.57c.78-.32,1.78-.74,1.78-1.77.44-1.56,1.03-1.52,1.77,0,.49-2.91,1.33-4.14,3.55-1.77h2.05c1.82,0,2.35,2.48,3.6,3.32Z"/>
      <path class="cls-110" d="M53.17,55.68c.03,1.98-.32,3.98-1.48,5.63-1.22-1.63-2.43-3.19-1.79-5.5l3.26-.14Z"/>
      <path class="cls-66" d="M46.37,32.92c1.55.5,1.53,1.1,0,1.77-.52,4.05-2.55,3.96-3.55,0h-3.55l-1.77-1.77c-1.24-.26-1.27-1.23-.36-2.13,3.17.5,6.54.51,9.23-1.42v3.55Z"/>
      <path class="cls-50" d="M46.37,34.69c2.66.04,2.6,2.87,0,3.55.81,4,.22,7.55-1.77,10.65-.58.09-1.19-.06-1.77,0v-14.19h3.55Z"/>
      <path class="cls-27" d="M49.92,38.24v1.77h-1.77c-1.51.73-2.05.05-1.77-1.77v-5.32c1.15-.65,2.32-1.29,3.55-1.77,3.03.48,2.19,5.11,0,7.1Z"/>
      <path class="cls-17" d="M49.92,38.24v-7.1c3.12-1.22,4.25,1.58,3.51,4.28-.33,1.21-2.09,2.14-3.51,2.81Z"/>
      <path class="cls-26" d="M48.14,40.02v7.1c-.96.95-2.21,1.56-3.55,1.77,0-3.66-.98-7.8,1.77-10.65.62.56,1.21,1.15,1.77,1.77Z"/>
    </g>
    <g>
      <path class="cls-11" d="M21.47,139.79c-1.22.83-1.63.49-1.28-.98l-4.12-5.21-1.31-1.61c-.96-1.08-.65-1.43.82-1.09,1.34,1.15,3.3,3.48,5.59,4.26,1.53.52,3.21-1.29,5.31-1.68-1.8,1.99-3.35,4.2-5.01,6.31Z"/>
      <g>
        <g>
          <path class="cls-32" d="M13.13,122.31c-1.41,1.37-3.91,6.48-3.96,7.31s-.33,3.01,0,3.57.22,4,1.9,4.17,5.77,1.32,7.17-.56,6.57-7.85,5.74-10.26c-.83-2.41-10.86-4.23-10.86-4.23Z"/>
          <g>
            <path class="cls-12" d="M29.01,129.69c-7.61,6.48-11.22-6.03-2.77-6.56-6.14-3.95-5.15-8.62,2.96-14.02-2.77-4.15-2.41-6.49,1.08-7.04,2.85-3.33,3.62-7.57,2.32-12.72l3.96-.97c2.7,2.47.29,7.13,1.39,10.24,2.57,7.28,1.98,11.96-1.16,18.82-2.15,4.7-2.75,10.03-7.78,12.25Z"/>
            <path class="cls-104" d="M38.43,83.72c-.74,1.47-.95,3.27-1.86,4.67-3.69,5.63,3.01,9.08-1.77,12.35-1.17.8-2.47,2.44-4.51,1.34-3.73.26-5.42-3.08-5.07-10.01-10.96-6.78-2.48-9.97,4.79-8.64-3.96-1.99-3.68-4.1.65-5,2.17-2.32,9.43,2.06,7.77,5.3Z"/>
            <path class="cls-71" d="M26.24,123.13c-.41,1.37-2.08,4.13-1.38,6.02.39,1.07,3.04-.15,4.16.53-1.17.58-1.66,2.82-2.54,3.79-5.19,5.45-7.86,3.34-10.9-2.58-5.47-2.71-.76-11.47,4.24-12.71l2.06-.76c.61,2.08,2.06,3.98,4.35,5.71Z"/>
            <path class="cls-78" d="M30,83.42c.7,4.52-5.63-.69-7.83,1.73-1.73,4.33,4.64,2.07,5.32,3.51,1.91,4.02.74,9.7,2.79,13.41-.85,2.31,2.46,6.07-1.08,7.04-1.56,2.68-2.58,2.07-1.93-1.05-3.78,2.85-7,.45-6.93-3.95-.31-.92-.72-1.82-1.46-2.48-3.03-.82-1.87-2.91.53-4.44-6.42-2.07-4.79-15.35,2.67-16.11,1.94-4.81,8.04-2.27,7.92,2.34Z"/>
            <path class="cls-63" d="M27.28,108.06c2.11,2.57.68,4.98-4.31,7.23-.81,2.83-1.86,3.8-3.14,2.89-2.16,2.37-3.36,2.94-3.6-.61-1.41-5.56,5.55-8.92,4.13-13.47,2.75.49,4.57,2.66,6.93,3.95Z"/>
            <path class="cls-75" d="M15.58,130.9l-.82,1.09-2.22-1.68c-1.5,1.38-2.17.37-2.03-3.04.63-3.84,3.17-6.82,5.71-9.7l3.6.61c-2.07,4.12-6.25,7.27-4.24,12.71Z"/>
            <path class="cls-32" d="M26.24,123.13c-2.7-.81-4.89-2.59-6.42-4.95,1.96-3.9,4.59-6.62,7.45-10.12l1.93,1.05c-.67,2.19,2.5,2.74,2.19,5.83-2.6,1.11-4.46-1.91-5.6-.48-.64.81-3.2,2.07-2.91,3.1.72,2.5,4,3.4,3.35,5.57Z"/>
          </g>
        </g>
        <path class="cls-105" d="M18.33,67.17c1.12-1.01,7.11.35,7.11.35,0,0,4.95,2.38,4.35,3.44,2.43,2.41,4.65,4.8,6.67,7.18,2.14-2.79,5.73-.54,3.83,2.95-.64.83-1.38,1.69-1.86,2.63-.47-3.98-5.04-3.44-7.77-5.3l-1.76,1.37c-2.46-1.79-4.73-1.36-6.81,1.3-4.14,3.92-8.67,7.35-5.96-.31-.84-.3-1.54-.65-1.72-1.18-.74-2.17,5.2-16.81,3.92-12.41Z"/>
        <path class="cls-85" d="M41.27,79.81l-.98,1.28-3.83-2.95c-.97-1.08-1.31-1.59.07-2.16-.26-.83,0-1.24.85-1.19l2.91.35c.68.22,1.39.34,2.1.26,3.04.3,1.56,4.44-1.12,4.42Z"/>
        <g>
          <path class="cls-19" d="M27.05,151.81c-.96-.73-1.25-2.86-3.71-4.51-2.46-1.64-2.02-2.78-1.89-3.47s.69-3.54.84-5.07c.15-1.53-1.76-2.99-2.79-2.67-1.04.32-3.23,3.63-5.53,4.62-2.29,1-7.31,8.89-6.56,9.61s4.61,2.53,7.3,3.65c2.69,1.12,10.03,2.13,11.16,1.61,1.13-.52,2.82-1.22,2.52-1.74s-1.34-2.03-1.34-2.03Z"/>
          <path class="cls-55" d="M14.76,131.05c.96-.91,1.64-.3,1.8.94,3.15,2.37,3.1,6.08-.16,11.12l.4,2.01c.46.07.92.26,1.37.4.76,3.57-4.68,2.39-6.78.15-.57,1.33-1.03,1.2-1.39-.28-1.24-.75-1.17-1.33.21-1.75-3.39-.37-.46-8.88.68-12.12.16-.46.65-.8,1.22-1.1.97-2.11,1.71-1.39,2.64.63Z"/>
          <path class="cls-20" d="M6.51,148.86c1.7-2.5,5.13-1.82,4.6,1.55,1.58.47,3.15,1.68,4.83,1.74,1.32.5,1.22.94-.21,1.33-.15,1.89-1.77,2.38-3.36,2.35-3.1-2.95-7.63-4.16-11.88-4.3l.46-1.86c-.29-1.48.4-1.81,1.9-1.18.73-4.44,2.91-4,3.65.38Z"/>
          <path class="cls-106" d="M31.19,158.86c-.68.51-1.24.35-1.68-.42-4.72-1.86-9.31-3.52-13.77-4.96l.21-1.33c3.92.13,7.79,2.79,11.66.84l1.52.38c.79.89,2.78.75,3.61,2.31.78,1.46-.69,1.89-1.55,3.18Z"/>
          <path class="cls-21" d="M22.27,135.07c.06,2.48-.66,5.46-3.05,5.88-1.51.83-2.25,2.46-2.42,4.16-3.88-.56,2.03-7.72-.25-13.12,2.24-.41,7.05.24,5.71,3.08Z"/>
          <path class="cls-88" d="M29.51,158.45c-4.52-.55-9.22-1.17-14.09-1.85l-3.05-.76c.68-.72,2.09-2.82,3.36-2.35,4.58,1.69,11.02.63,13.77,4.96Z"/>
          <path class="cls-3" d="M29.51,158.45l1.68.42c-.63.94-1.76,1.3-3.51.85l-12.26-3.12c.2-1.3,1.75-1.24,3.36-.84l10.73,2.69Z"/>
          <path class="cls-89" d="M11.4,145.66c1.61.68,2.06,1.48,1.37,2.41-.29.95-.92,1.72-1.66,2.34-1.54-.46-3.01-1.39-4.6-1.55-3.79-3.57-.25-6.36,3.5-3.48l1.39.28Z"/>
          <path class="cls-100" d="M19.23,140.95c.57-2.17,1.46-4.29,3.05-5.88l1.52.38-1.94,7.69c-1.98.04-3.18-.62-2.63-2.19Z"/>
          <path class="cls-109" d="M29.13,153.37l-1.52-.38c-.98-.13-5-.78-4.21-2.81,2.3-3.36,4.38,1.67,5.73,3.19Z"/>
          <path class="cls-97" d="M12.77,148.07c-.51-.77-.97-1.57-1.37-2.41,2.22.44,5.13,2.15,6.78-.15,1.44.45,1.53,1.76.61,3.45l-6.02-.89Z"/>
          <path class="cls-23" d="M12.13,130.42c.83,4.7-3.32,8.61-1.91,13.22-3.5,3.29-5.24,3.23-5.37-1.88,4.22-3.21,5.55-8.14,4.28-13.29,1.11.45,2.18,1.04,2.99,1.95Z"/>
          <path class="cls-22" d="M10.22,143.63c.16.53-.29,1.2-.21,1.75-1.84.21-3.07,1.69-3.5,3.48l-3.65-.38c-2.48-.36-1.97-3.21-.4-5.19.8-.3,1.71-1.01,2.4-1.53,1.7.86,3.51,1.49,5.37,1.88Z"/>
          <path class="cls-47" d="M2.86,148.48c-.61.44-1.25.83-1.9,1.18-.71-.88-1-1.96-.95-2.95.1-1.8.98-2.88,2.45-3.43-.15,1.75-.08,3.51.4,5.19Z"/>
        </g>
        <path class="cls-84" d="M30.66,78.42c.03,1.69-.22,3.37-.65,5-2.44-1.3-5.2-1.82-7.92-2.34.45-2.37-.08-4.83-.24-8.27,4.68-.24,6.07,3.74,8.81,5.61Z"/>
        <path class="cls-43" d="M41.1,71.91c.13.38,1.43,2.45.46,3.32-1.11.99-4.55.77-5.03.74-2.03.86-5.13-2.94-6.74-5.01-.28-1.31.65-3.32,2.08-2.7,1.26,2.72,7.18,1.72,9.23,3.65Z"/>
        <path class="cls-81" d="M36.54,75.97c.52.65.46,1.53-.07,2.16-2.75-2.12-5.91-3.67-6.67-7.18l6.74,5.01Z"/>
      </g>
    </g>
    <g>
      <path class="cls-72" d="M41.8,3.37c3.53-.92,5.02.7,4.67,4.22,2.9.99,2.32,4.26-.81,3.7.28,4.93-5.35,4.58-5.32.06-1.92,1.24-4.31,1.58-7.19,1.01-4.88,5.02-5.14,3.46-4.25-2.67l-.4-1.73c3.23-3.36,8.92-5.22,13.29-4.59Z"/>
      <path class="cls-56" d="M46.69.74c2.34,2.18,11.11,4.93,10.55,10.17-.16,1.48-3.26,1.45-3.66,2.48-2.32,2.58-4.53,2.6-4.06-1.17-1.69.24-2.11-1.06-1.28-3.9l-1.76-.73c-2.39.1-4.09-2.03-4.67-4.22-1.59-.61-1.52-1.26.1-1.95-1.59,0-1.59-.49-.16-1.41,1.41-.14,3.55.77,4.95.72Z"/>
      <path class="cls-60" d="M31.15,20.34c3.26,3.92,5.82,8.49,1.21,12.23,1.61.23,1.74.81.4,1.73-2.32.54-4.77.66-7.03-.2-3.91-.03-3.93-2.55-.05-7.55,1.59-1.96,2.25-5.11,3.47-7.34,1.24-1.22,1.87-.76,1.99,1.13Z"/>
      <path class="cls-46" d="M33.16,12.37c2.79,2.9-.2,6.97-3.99,6.84-3.77-1.69-1.45-6.44-.25-9.51.13.73.26,1.69.83,2.37.8.95,2.33.7,3.42.3Z"/>
      <path class="cls-82" d="M41.74.01l.16,1.41-10.73,2.29C32.65-.09,38.11.37,41.74.01Z"/>
      <path class="cls-87" d="M35.82,31.77c1.25.25,1.36.83.4,1.73l-3.46.8c-.05-.58-.4-1.15-.4-1.73.14-1.62.73-1.73,1.73-.4l1.73-.4Z"/>
      <path class="cls-28" d="M37.55,31.37l.4,1.73-1.73.4-.4-1.73c-.91-.35-1.02-.93-.4-1.73-.31-1.64.21-1.84,1.51-.68,1.34-.46,1.37.7.62,2.01Z"/>
      <path class="cls-52" d="M45.66,11.29c1.9-2.85,3.01-2.09,2.13,1.33,3.64.53,3.95,2.94,1.2,5.19-.76.71-1.24,2.67-2.62,2.95-3.54.34-6.83-.29-9.88-1.88-6.46-.46-.8-8.63,3.86-7.52,1.59.97,3.64.3,5.32-.06Z"/>
      <path class="cls-14" d="M46.37,20.75c.38.92,1.83,1.56,2.09,2.64-.35.76-.77,1.5-1.33,2.13.56,4.57-5.51,6.2-8.67,3.46-1.6-.02-1.67-.54-.32-1.54-2.78-5.21,4.07-10.41,8.23-6.68Z"/>
      <path class="cls-70" d="M53.58,13.39c-.7,1.98-2.35,3.83-4.6,4.42l-1.2-5.19c.14-1.62.73-1.73,1.73-.4,1.23.74,2.64,1.09,4.06,1.17Z"/>
      <path class="cls-102" d="M40.35,11.35c-2.45,1.82-4.78,4.31-3.86,7.52-.24,1.66-.83,1.72-1.77.26.08,4.8-1.11,5.2-3.56,1.21-.62-.44-1.29-.82-1.99-1.13,1.25-2.28,1.88-4.99,3.99-6.84,1.18-1.03,2.64-1.97,4.05-2.47,1.45-.52,2.18.87,3.15,1.46Z"/>
      <path class="cls-13" d="M49.52,12.22l-1.73.4-2.13-1.33c1.25-.83,1.19-2.39.81-3.7.42-.52.68-1.56,1.07-1.99.54-.6,2.5-.77,2.55.95.08,2.43-1.03,4.06-.57,5.67Z"/>
      <path class="cls-8" d="M34.72,19.13c3.37,1.56,6.63,4.9,3.42,8.31l.32,1.54c.2,1.42-.35,1.47-1.52.39-.49.18-1.08.38-1.51.68l-1.33,2.13-1.73.4c-.01-4.11-.76-8.16-1.21-12.23l3.56-1.21Z"/>
      <path class="cls-35" d="M39.28,30.97l-1.73.4-.62-2.01c.46-.17,1.03-.35,1.52-.39l.83,2Z"/>
      <path class="cls-51" d="M35.82,31.77l-1.73.4c.26-.78.63-1.63,1.33-2.13l.4,1.73Z"/>
      <path class="cls-53" d="M46.37,20.75c-3.74.75-5.34,4.49-8.23,6.68-1.87-2.67-5.3-5-3.42-8.31.54-.18,1.27,0,1.77-.26,1.81-.93,3.71-1.76,5.9-1.85s3.31,1.67,3.98,3.74Z"/>
      <path class="cls-46" d="M29.35,8.08c.08-.98.61-2.93,1.32-3.89s2.66-1.28,4.63-1.98,5.9-1.28,6.45-1.28,1.57.77,1.54,1.79.73,3,0,3.45-8.94,1.65-9.72,1.91c-.78.26-4.23,0-4.23,0Z"/>
    </g>
    <g>
      <path class="cls-10" d="M14.66,64.86c-.54,3.06-1.13,6.01-1.77,8.87-4.15,6.15.91-28.64,1.77-23.07,1.27,4.47,1.93,9.79,0,14.19Z"/>
      <path class="cls-31" d="M26.59,25.15s-.08,1.01-.17,1.3c-.71,2.1-2.6,4.26-2.82,6.47-1.77.9-3.68,1.49-5.66,1.58-.53-.67-1.2-1.2-1.96-1.58l-.07-2.97c-.14-1.7,10.69-4.8,10.69-4.8Z"/>
      <path class="cls-61" d="M13.32,71.06c-.13,3.09,3,8.11-1.11,9.4-.19-3.81-2.84-9,.81-11.67.1.75.32,1.52.29,2.28Z"/>
      <path class="cls-50" d="M24.71,34.69c-2.73-4.02-2.98-5.75-5.83-4.02-2.85,1.72-6.98,21.15-6.75,27.82.23,6.67-.24,19.69.5,20.44.74.76,2.22,1.71,5.79-2.4,3.56-4.12.98-7.1,3.6-19.68,2.62-12.58,2.7-22.16,2.7-22.16Z"/>
      <path class="cls-26" d="M16.49,43.17c-.05-1.2-1.11-1.47-1.37-4.3-.26-2.83-2.5-6.99-1.48-8.12s2.37-2.32,4.09-1.85c1.72.48,5.43,6.84,5.33,8.8s-4.33,5.02-5,5.87c-.67.84-3.43,4.09-3.72,2.3-.3-1.79,1.45-2.18,1.41-2.44s.73-.26.73-.26Z"/>
    </g>
    <g>
      <g>
        <path class="cls-83" d="M9.96,60.95c-2.74,1.14-4.11,2.8-4.11,4.97.18,3.17,1.66,7.81,4.43,8.55-1.76,1.36-3.1,3.91-2.25,5.85,6.67-1.35,11.94-27.09,11.94-27.09,0,0,2.09-10.03.56-13.89.03-1.45-.6-1.72-1.83-.86-3.29-1.13-5.07,1.67-1.71,3.66-4.35-.06-6.29,2.78-5.81,8.49-2.09,1.87-2.01,7.32-1.21,10.31Z"/>
        <path class="cls-42" d="M4.58,45.26c.53,1.38-.36,3.2-.18,4.62.65.09,1.29.66,1.94.66,1.82,5.11,3.42,5.14,4.82.09,4.77.12,4.17-5,5.81-8.49-.18-2.61-2.84-3.29-8-2.04-3-3.92-4.22,1.09-4.39,5.16Z"/>
        <path class="cls-93" d="M7.32,53.24c-3.28,10.58-2.41,13.15,2.63,7.72,1.36-2.78,5.21-3.88,6.11-7.78-.6-.94-2.45-.14-3.34-.33-.82-.17-1.36-1.01-1.56-2.21-1.6-.13-3.21-.08-4.82-.09.34.88.55,1.84.97,2.69Z"/>
        <path class="cls-24" d="M4.01,65.07c-.43,1.8.22,2.03,1.83.86.73-.79,2.08-1.12,3.41-1.7,1.34-.59,1.45-1.8.71-3.27-1.19-.18-2.22,1.06-4.11.57,1.43-3.52,2.72-5.82,1.47-8.29-1.99,3.65-3.71,7.61-3.31,11.83Z"/>
        <path class="cls-6" d="M19.74,50.77c.44-1.17,1.57-6.46,2.15-9.21.28-1.36-.28-2.81-1.49-3.49-.52-.3-1.11-.43-1.69-.17-1.03-.46-1.14,12.02-1.35,11.78,1.51,1.75.95,1,2.38,1.1Z"/>
      </g>
      <g>
        <path class="cls-92" d="M3.58,80.06c-2.72,1.64-1.54,3.88,1.55,2.8-.5,1.42.03,2.42,1.55,2.8,1,1.06,1.45.77,1.4-.77,2.02-.91.32-3.43-.92-4.97,3.3.85,4.44-.39,3.42-3.72,2.08,2.35,2.81,1.46,2.8-1.55.66-.12.87-.85.63-2.17-5.01-1.82-7.87,3.77-10.42,7.58Z"/>
        <path class="cls-103" d="M14.14,76.05c.69-.92.42-1.38-.77-1.4-.99.34-1.79,1.28-2.8,1.55-3.01,2.31.92,6.42,3.98,6.97.52-.22,1.26-.72,1.65-1.13,2.79,1.63,3.45.36,1.21-2.1.33-.7.13-1.05-.64-1.04-.82-.57-1.7-1.52-2.63-2.85Z"/>
        <path class="cls-99" d="M19.26,78.7c-1.44-.81-2.05-.4-1.85,1.24-.43.66-.66,1.52-1.21,2.1.71,1.06.84,3.78,3.22,3.59,2.63-.21,2.17-2.67,1.97-4.31-.12-1-.74-2-2.13-2.62Z"/>
        <path class="cls-4" d="M14.56,83.17c-2.28-1.93-3.51-1.87-3.69.18-1.48.1-1.61.87-.63,2.17-.28,1.68,1.56,2.92,2.97,1.79.91-.36,2.49-.88,2.59-2.15.06-.72-1.01-1.48-1.24-1.99Z"/>
        <path class="cls-101" d="M13.96,88.94c-2.02,1.96-1.06,2.44,1.55,2.8.5-.16.91-.58,1.4-.77.42-.46,2.44-1.44,2.35-2.26-.2-1.89-2.3-2.03-3.08-1.08-.35.43-1.23.98-2.22,1.32Z"/>
        <path class="cls-58" d="M10.24,85.51c.42-2.36-.73-2.74-2.17-.63-.38,3.44,3.74,8.02,5.89,4.05-.19-.57-.53-1.08-.75-1.63l-2.97-1.79Z"/>
        <path class="cls-86" d="M16.94,74.51c-1.07-1-1.53-.73-1.4.77-1.13,1.27-.58,3.33,1.23,3.62-.24.77-.41,1.25.64,1.04.56-.49,1.18-.9,1.85-1.24l-.77-1.4c-.41-.97-1.21-1.8-1.55-2.8Z"/>
        <path class="cls-36" d="M14,72.48c-.53,1.34.16,2.74,1.55,2.8l1.4-.77c-.54-1.63-1.7-1.57-2.95-2.03Z"/>
        <path class="cls-2" d="M18.49,77.3c.21.49.54.92.77,1.4.48-1,.44-2.11-.77-1.4Z"/>
        <path class="cls-18" d="M10.57,76.2c-2.26.6-2.75,1.93-3.42,3.72.51,1.93,1.68,3.91,3.72,3.42,1.21.02,2.53.3,3.69-.18-.9-2-4.63-4.25-3.98-6.97Z"/>
        <path class="cls-91" d="M7.15,79.92c-.79,2.1-.17,3.02.92,4.97.75-.08,1.55.25,2.17.63.28-.7.49-1.43.63-2.17-.76-1.58-1.82-3.35-3.72-3.42Z"/>
        <path class="cls-9" d="M14,72.48c-1.06.25-.8,1.34-.63,2.17l.77,1.4c1.07,1,1.53.73,1.4-.77l-1.55-2.8Z"/>
        <path class="cls-73" d="M15.54,75.28l-1.4.77c-.06.94-.35,2.15.09,2.69.79.94,2.24,1.68,2.54.16-.35-1.21-.63-2.52-1.23-3.62Z"/>
      </g>
    </g>
  </g>
</svg>