<?xml version="1.0" encoding="UTF-8"?>
<svg id="Player" xmlns="http://www.w3.org/2000/svg" viewBox="0 0 120.86 161.81">
  <defs>
    <style>
      .cls-1 {
        fill: #a5670b;
      }

      .cls-2 {
        fill: #39434c;
      }

      .cls-3 {
        fill: #161c1f;
      }

      .cls-4 {
        fill: #d98654;
      }

      .cls-5 {
        fill: #151e35;
      }

      .cls-6 {
        fill: #f7a97c;
      }

      .cls-7 {
        fill: #fead81;
      }

      .cls-8 {
        fill: #f09f71;
      }

      .cls-9 {
        fill: #0a0c15;
      }

      .cls-10 {
        fill: #f4ba91;
      }

      .cls-11 {
        fill: #b46242;
      }

      .cls-12 {
        fill: #9c3e0a;
      }

      .cls-13 {
        fill: #ee9d70;
      }

      .cls-14 {
        fill: #683e07;
      }

      .cls-15 {
        fill: #0a0e15;
      }

      .cls-16 {
        fill: #a5511b;
      }

      .cls-17 {
        fill: #3b3e4a;
      }

      .cls-18 {
        fill: #0d8b11;
      }

      .cls-19 {
        fill: #f7af80;
      }

      .cls-20 {
        fill: #fcae82;
      }

      .cls-21 {
        fill: #2e333c;
      }

      .cls-22 {
        fill: #21201b;
      }

      .cls-23 {
        fill: #f8cc49;
      }

      .cls-24 {
        fill: #a65124;
      }

      .cls-25 {
        fill: #08090f;
      }

      .cls-26 {
        fill: #1d1a19;
      }

      .cls-27 {
        fill: #101d38;
      }

      .cls-28 {
        fill: #6e7379;
      }

      .cls-29 {
        fill: #18202a;
      }

      .cls-30 {
        fill: #d29669;
      }

      .cls-31 {
        fill: #232c34;
      }

      .cls-32 {
        fill: #b78024;
      }

      .cls-33 {
        fill: #b47d24;
      }

      .cls-34 {
        fill: #c16c38;
      }

      .cls-35 {
        fill: #883819;
      }

      .cls-36 {
        fill: #969fb8;
      }

      .cls-37 {
        fill: #43548a;
      }

      .cls-38 {
        fill: #7a370e;
      }

      .cls-39 {
        fill: #2e323e;
      }

      .cls-40 {
        fill: #a06a2a;
      }

      .cls-41 {
        fill: #502204;
      }

      .cls-42 {
        fill: #5e1600;
      }

      .cls-43 {
        fill: #3f1c0c;
      }

      .cls-44 {
        fill: #808b96;
      }

      .cls-45 {
        fill: #636e85;
      }

      .cls-46 {
        fill: #fce0a0;
      }

      .cls-47 {
        fill: #0c0d12;
      }

      .cls-48 {
        fill: #f4b27d;
      }

      .cls-49 {
        fill: #d0d1e6;
      }

      .cls-50 {
        fill: #f2c13b;
      }

      .cls-51 {
        fill: #f5c58b;
      }

      .cls-52 {
        fill: #6f3010;
      }

      .cls-53 {
        fill: #111c22;
      }

      .cls-54 {
        fill: #ac5722;
      }

      .cls-55 {
        fill: #1c2018;
      }

      .cls-56 {
        fill: #38424c;
      }

      .cls-57 {
        fill: #2b3c15;
      }

      .cls-58 {
        fill: #27201e;
      }

      .cls-59 {
        fill: #060816;
      }

      .cls-60 {
        fill: #111516;
      }

      .cls-61 {
        fill: #f2c03f;
      }

      .cls-62 {
        fill: #f4a371;
      }

      .cls-63 {
        fill: #edc896;
      }

      .cls-64 {
        fill: #212a3b;
      }

      .cls-65 {
        fill: #fb9a6e;
      }

      .cls-66 {
        fill: #0aac19;
      }

      .cls-67 {
        fill: #34436c;
      }

      .cls-68 {
        fill: #0e8d12;
      }

      .cls-69 {
        fill: #613e14;
      }

      .cls-70 {
        fill: #21160c;
      }

      .cls-71 {
        fill: #703b25;
      }

      .cls-72 {
        fill: #5d6873;
      }

      .cls-73 {
        fill: #f1ab77;
      }

      .cls-74 {
        fill: #e49469;
      }

      .cls-75 {
        fill: #a26814;
      }

      .cls-76 {
        fill: #222e43;
      }

      .cls-77 {
        fill: #a44e23;
      }

      .cls-78 {
        fill: #101117;
      }

      .cls-79 {
        fill: #050509;
      }

      .cls-80 {
        fill: #111523;
      }

      .cls-81 {
        fill: #be7649;
      }

      .cls-82 {
        fill: #e19269;
      }

      .cls-83 {
        fill: #7f570e;
      }

      .cls-84 {
        fill: #1b1d28;
      }

      .cls-85 {
        fill: #ac7b1c;
      }

      .cls-86 {
        fill: #3f5012;
      }

      .cls-87 {
        fill: #1e1e2a;
      }

      .cls-88 {
        fill: #0e700e;
      }

      .cls-89 {
        fill: #f29a6d;
      }

      .cls-90 {
        fill: #47515f;
      }

      .cls-91 {
        fill: #08090d;
      }

      .cls-92 {
        fill: #949db6;
      }

      .cls-93 {
        fill: #a5acb2;
      }

      .cls-94 {
        fill: #7c808c;
      }

      .cls-95 {
        fill: #1c1e28;
      }

      .cls-96 {
        fill: #74440b;
      }

      .cls-97 {
        fill: #535a69;
      }

      .cls-98 {
        fill: #36363e;
      }

      .cls-99 {
        fill: #164f0b;
      }

      .cls-100 {
        fill: #e8966b;
      }

      .cls-101 {
        fill: #2c2c38;
      }

      .cls-102 {
        fill: #151c27;
      }

      .cls-103 {
        fill: #c77542;
      }

      .cls-104 {
        fill: #b25122;
      }

      .cls-105 {
        fill: #60340c;
      }

      .cls-106 {
        fill: #8a92a1;
      }

      .cls-107 {
        fill: #ecb882;
      }

      .cls-108 {
        fill: #231312;
      }

      .cls-109 {
        fill: #c5734c;
      }

      .cls-110 {
        fill: #964513;
      }

      .cls-111 {
        fill: #edb981;
      }

      .cls-112 {
        fill: #c4c4d4;
      }

      .cls-113 {
        fill: #626587;
      }

      .cls-114 {
        fill: #a17825;
      }

      .cls-115 {
        fill: #151c25;
      }

      .cls-116 {
        fill: #3c3b55;
      }

      .cls-117 {
        fill: #be6634;
      }

      .cls-118 {
        fill: #181f25;
      }

      .cls-119 {
        fill: #3c251d;
      }

      .cls-120 {
        fill: #eea175;
      }

      .cls-121 {
        fill: #b25e2f;
      }

      .cls-122 {
        fill: #393b49;
      }

      .cls-123 {
        fill: #191a23;
      }

      .cls-124 {
        fill: #373435;
      }

      .cls-125 {
        fill: #8c8481;
      }

      .cls-126 {
        fill: #cd7a4b;
      }

      .cls-127 {
        fill: #bcc0d5;
      }

      .cls-128 {
        fill: #adb2bc;
      }

      .cls-129 {
        fill: #9a691f;
      }
    </style>
  </defs>
  <path d="M36.46,122.67c-.71.7-2.01,1.03-2.06,1.89s-.64,1.29-.75,2.06-.28,1.48.09,1.55,3.1,1.22,3.1,1.22h1.89s1.99-1.49,1.85-1.94-4.12-4.79-4.12-4.79Z"/>
  <path class="cls-31" d="M43.52,130.31c-1.07-.57-5.52-3.69-5.76-2.63-.24,1.05-.96,5.55-.91,6.41s1.2,6.64,2.11,6.93c.91.3,3.07.09,3.57,0s1.62-.62,1.77-1.98-.78-8.73-.78-8.73Z"/>
  <path class="cls-59" d="M33.25,136.15c.17-.62.23-1.1.34-3.3.11-2.2-1.93-5.6-.17-5.74,1.76-.14,3.52-.02,4.66.71s.46,5.15.43,7.32c-.03,2.17-2.89,4.13-3.7,3.89s-1.56-2.87-1.56-2.87Z"/>
  <path class="cls-84" d="M44.3,99.64c.68,6.15,1.27,6.15,1.77,0-1.13-1.15-1.08-2.36.21-3.42,1.69-6.03,5.38-4.25,11.08,5.34l2.91,1.62c3.37,6.8.92,19.11-5.02,25-3.8,2.39-11.94,5.83-14.51,1.63-1.83-1.58-4.42-2.87-4.9-5.19-1.11-5.41,6.64-10.01,6.65-16.02l.03-21.37c4.73-.71,3.29,9.34,1.77,12.42Z"/>
  <path class="cls-17" d="M92,123.02c-2.28,10.77-13.85,2.29-6.83-3.86-8.01.69-10.29-4.05-6.85-14.22-5.2-1.76-6.47-4.05-3.79-6.87.25-4.82-1.93-9.04-6.53-12.65l2.81-3.51c4.02.33,5.05,6.02,8.1,8,7.14,4.62,9.77,9.1,11.64,17.2,1.29,5.55,4.35,10.6,1.45,15.92Z"/>
  <path class="cls-112" d="M53.17,32.22c.45-1.47,2.61-1.28,3.55,0,.5-1.55,1.1-1.53,1.77,0,2.68.93,3.63,4.72,2.85,11.4l.95,2.84c.28-1.57.8-1.54,1.52-.04.96.54.93,1.13,0,1.77-4.8,4.92-23.87,5.6-24.84-3.69-2.27-4.02-.68-8.63,1.72-12.47-.18-3.62,3.15-4.09,5.66-1.58,3.49-3.2,5.33-2.76,6.8,1.77Z"/>
  <path class="cls-122" d="M69.29,76.58c.34,1.78,1.37,3.49,1.51,5.32.57,7.4,8.73,5.89,6.76,11.96-.48,1.48-.52,3.79-3.04,4.2-3.08,2.73-6.8.96-11.16-5.32-14.12,1.46-8.87-7.02-1.63-10.76-4.79.93-5.96-1.1-2.79-4.8.33-3.49,9.61-4.54,10.35-.6Z"/>
  <path class="cls-100" d="M93.82,40.74c1.93-1.75,3.76-2.23,5.49-1.42,2.46,1.32,5.59,4.23,5.16,6.71,1.73-.89,4.27-1.01,5.49.39-3.56,4.81-10.42,3.72-15.93,3.31-3.85.63-9.09.35-12.45-1.22-3.42-2.28-6.37-4.75-8.88-7.41-1.17-.52-1.14-1.11,0-1.77.32-3.04,3.22-3.41,3.55,0,1.58-3.48,4.55-3.97,8.92-1.46,2.27-.97,6.57,1.13,8.66,2.88Z"/>
  <path class="cls-123" d="M46.79,68.99c.3-1.63.71-1.53,1.22.15,3.26.08,4.98.78,5.16,2.11,3.74.47,7.29,1.06,10.65,1.77,0-3.87,4.64-4.33,5.32,0,0,1.16-.07,2.4.15,3.55-3.08-3.16-6.71.39-10.35.6l-.61,2.37c-3.35.09-5.04,2-5.07,5.71-.97,6.2-2.62,12.24-5.41,3.73-.94.3-1.78.46-2.29.12-2.11-1.4-3.33-16.4-2.91-19.94,1-5.06,2.3-4.88,4.14-.19Z"/>
  <path class="cls-92" d="M65.14,67.83c2.09,3.05-.25,4.38-2.78,1.65-2.43,1.41-10.52,2.19-9.19-1.98,2.05-3.61,1.24-5.15-2.45-4.61-1.06,2.07-2.37,4.1-3.94,6.1-1.41.54-2.87-.93-4.14.19-2.98-2.26.34-6.41,0-8.8-.61-2.17-.55-4.17.2-6,18.91-2.39,26.35,2.09,22.3,13.46Z"/>
  <path class="cls-87" d="M85.16,119.16c.57,1.47.96,5,2.85,6.19,1.07.67,2.55-2.17,3.99-2.33-.63,1.29.45,3.58.34,5.01-.86,8.25-4.61,8.2-11.24,5.08-6.59,1.32-8.38-9.5-4.85-13.94l1.29-2.06c1.93,1.4,4.48,2.09,7.64,2.06Z"/>
  <path class="cls-13" d="M11.99,34.11c2.66.53,2.8,2.82,1.96,5.05,2.29-.26,2.95.87,1.97,3.37,4.54,1.5,4.65,2.36,0,3.87-4.37-.04-9.87-3.19-14.16-5.78-3.89-2.35-.53-11.38,2.54-11.61,3.02,1.9,4.79,5.15,7.7,5.1Z"/>
  <path class="cls-45" d="M63.81,51.76c4.65-3.92,6.1.15,3.77,4.82,4.34,1.68,4.79,3.62,1.36,5.8.83,2.63,1.48,5.11-1.78,4.27,1.6,3.06.44,3.78-2.01,1.18-1.21-3.04-.63-6.29-2.04-8.17-2.35-3.13-6.31-3.8-9.85-4.11-5.3-.48-8.81.58-10.6,4.84-1.56-3.33-2.95-6.86-3.59-10.63,7.5,1.79,15.27,1.96,23.32.54l1.43,1.47Z"/>
  <path class="cls-83" d="M94.02,49.72c-2.1,2.99-7.39,2.55-10.4,2.34-1.56,3.46-2.33,4.09-2.3,1.88-.02,4.68-.61,9.21-1.78,13.59l-1.09-.06c-4.15,4.25-8.2-6.17-3.98-8.64-.51-2.34-1.05-4.87,1.48-5.63-5.92-1.27-5.27-5.14.62-5.24,1.32-3.41,4.03-2.78,5.01.54,4.02-3.25,8.33-.98,12.45,1.22Z"/>
  <path class="cls-36" d="M63.82,48.19c4.71.58,4.5,2.22,0,3.57-6.1,1.2-21.16,4.63-24.75-2.01-.3-1.74-.99-3.64-.07-5.25,2.85,6.5,22.55,4.64,24.84,3.69Z"/>
  <path class="cls-74" d="M24.78,32.47c.93,2.07.16,3.81-.8,3.04-2.07-1.65,5.11-1.22,4.35,2.03,1.71-.04,3.49-.63,5.32-1.77.5-1.55,1.1-1.53,1.77,0l-.23,10.82-19.28-.17v-3.87c.24-1.59.8-1.59,1.64-.13,2.39-2.03,7.82-1.02,10.78.45q4.5.02,0,0c-4.11-.3-7.16-1.48-9.16-3.54-1.15-2.45-2.26-5.58.29-7.1.89-5.12,3.96-4.69,5.32.25Z"/>
  <path class="cls-16" d="M27.9,23.35c.7,3.68,4.48,4.23,7.76,3.82,1.55.41,1.48.94-.07,1.58-1.44,2.8-4.22,4.65-7.26,3.69.07,3.6-2.88,3.59-3.55.03-1.74.01-3.59-.5-5.32-.25-.82,3.86-2,4.45-3.55,1.77-.59,1.58-1.18,1.58-1.77,0l-.2-3.03c1.22-1.88,3.06-3.24,5.52-4.07-1.56-.59-1.55-1.18,0-1.77-.39-1.57.2-2.16,1.77-1.77,1.25-2.15,4.99-1.69,6.66,0Z"/>
  <path class="cls-96" d="M72.67,53.34c1.69.81,2.29,2.64,1.79,5.5,2.05,2.74.6,7.09,3.98,8.64-.24,3.38-2.93,6.24-5.78,5.57-2.65-2.77-3.86-6.89-3.73-10.66-1.38-1.48-.62-4.14-1.36-5.8l1.31-.8c-4.51-7.32,5.9-10.01,3.79-2.44Z"/>
  <path class="cls-88" d="M68.93,4.12c3.64-.1,4.73,1.81,3.6,5.16,2.61,1.62,1.3,4.67-1.62,3.42-.83,4.87-6.25,3.26-5.19-1.14-2.15.78-4.56.57-7.24-.63-5.88,3.79-5.79,2.21-3.54-3.56v-1.77c3.9-2.55,9.87-3.08,13.98-1.49Z"/>
  <path class="cls-68" d="M74.28,2.65c1.79,2.65,9.72,7.3,8,12.28-.49,1.41-3.5.68-4.12,1.6-2.85,2-5,1.52-3.7-2.05-1.7-.15-1.82-1.51-.37-4.09l-1.56-1.11c-2.35-.44-3.53-2.89-3.6-5.16-1.41-.95-1.2-1.57.54-1.88-1.54-.36-1.44-.83.16-1.41,1.4.18,3.29,1.55,4.66,1.82Z"/>
  <path class="cls-67" d="M81.11,134.61c.81-1.23,1.72-.76,2.23.52,4.09,1.7,5.03,5.67,2.8,11.93l.98,2.04c.52-.05,1.09.04,1.61.07,1.79,3.62-4.51,3.8-7.4,1.97-.28,1.58-.81,1.56-1.6.07-1.56-.47-1.64-1.11-.24-1.93-3.82.51-2.88-9.37-2.49-13.14.06-.53.5-1.02,1.05-1.5.5-2.52,1.51-1.95,3.06-.03Z"/>
  <path class="cls-73" d="M54.74,18.25c2.29,4.55,3.76,9.58-1.57,12.19,1.51.59,1.51,1.18,0,1.77-2.39,0-4.8-.43-6.8-1.77-3.81-.91-3.26-3.37,1.65-7.37,1.99-1.56,3.34-4.47,5.04-6.37,1.48-.91,1.99-.32,1.68,1.55Z"/>
  <path class="cls-79" d="M47.85,89c3.06,3.48,2.7,5.34-1.56,7.22.13,1.07-.05,2.35-.21,3.42-.5,1.55-1.1,1.53-1.77,0,.48-4.57.35-8.58-1.77-12.42,1.25-7.8-4.77-12.99.12-18.05,6.21,13.45-3.05,5.12,5.2,19.82Z"/>
  <path class="cls-51" d="M83.33,30.62c.9.94,2.68.91,3.74,1.58-.17.55.04,1.27-.2,1.79,3.39,3.35,2.82,4.64-1.72,3.87-1.68,3.84-5.53,1.46-8.92,1.46-2.01-1.11-1.56-3.49,1.35-7.13-2-3.85,2.44-2.95,5.74-1.57Z"/>
  <path class="cls-107" d="M38.67,27.47c4.71-.32,4.56,1.47.07,2.97.06,2.28-2.31,3.86-3.32,5.32h-1.77c-1.37,1.44-3.52,2.24-5.32,1.77-2.66.06-5.71-.06-7.15-2.92,1.92-1.08,2.89-1.39,3.6-2.15l3.55-.03c3.73.39,5.08-.92,7.26-3.69l.07-1.58c.96-.12,2.04.49,3.01.3Z"/>
  <path class="cls-26" d="M76.8,155.86c1.2-3.13,5.14-3.32,5.47.43,1.86.09,3.91.96,5.77.57,1.58.18,1.59.68.13,1.48.34,2.06-1.31,3.02-3.06,3.41-4.19-2.33-9.49-2.41-14.2-1.43v-2.11c-.71-1.51-.04-2.04,1.78-1.77-.39-4.94,2.13-5.05,4.11-.56Z"/>
  <path class="cls-37" d="M40.75,138.68c2.52.4,2.31,1.74-.41,2.2-1.47,2.85-3.11,5.66-4.92,8.45-.5,1.55-1.1,1.53-1.77,0-1.62-1.52-2.37-3,0-3.55-1.29-3.38-1.35-7.27,0-10.65v-1.98c3.9-.09,5.56,1.59,7.1,5.53Z"/>
  <path class="cls-111" d="M88.66,35.77c9.64,1.33,11.36,2.98,5.16,4.97-2.72.05-5.03,2.7-8.46,1.97-.52-.83.8-2,.99-2.78.17-.72-.3-1.46-1.18-2.06.49-1.32,1.13-2.58,1.72-3.87.58.6,1.26,1.12,1.77,1.77Z"/>
  <path class="cls-110" d="M117.05,44.64c-.14,3.52-2.94,3.58-3.55,0-1.11,1.25-2.37,1.27-3.55,0-1.57-.4-1.52-.99,0-1.77-.21-2.45,3.16-2.16,5.32-1.77-2.6-2.75-2-4.52,1.77-5.32-3.4-.76-2.93-1.95,0-3.55-.24-.71.36-1.3,1.77-1.77,4.45,3.89.56,9.67-1.77,14.19Z"/>
  <path class="cls-55" d="M37.2,152.87c1.58.33,1.52.93,0,1.77,5.96.63,11.87,1.22,17.74,1.77.13,1.41-1.61,1.8-3.45,1.8l-17.84-.02c-.37-1.09-.13-2.43-.43-3.55-1.57-.6-1.49-1.19.14-1.77-.27-2.69.98-2.6,2.06,0h1.77Z"/>
  <path class="cls-124" d="M106.59,159.97c-.61.72-1.27.7-1.96,0-5.69-.73-11.17-1.28-16.46-1.63l-.13-1.48c4.34-.91,9.3.91,13.03-2.21h1.77c1.11.74,3.25.06,4.59,1.51,1.25,1.35-.25,2.21-.85,3.81Z"/>
  <path class="cls-27" d="M90.43,136.9c.73,2.63.74,6.02-1.77,7.1-1.44,1.29-1.81,3.23-1.55,5.09-4.41.44.16-8.8-3.78-13.97,2.35-1.04,7.81-1.63,7.1,1.77Z"/>
  <path class="cls-14" d="M35.43,62.38c-.54,3.06-1.13,6.01-1.77,8.87-4.15,6.15.91-28.64,1.77-23.07,1.27,4.47,1.93,9.79,0,14.19Z"/>
  <path class="cls-38" d="M48.02,23.07c-.91,2.36-1.4,4.86-1.65,7.37-1.77.9-3.68,1.49-5.66,1.58-.53-.67-1.2-1.2-1.96-1.58l-.07-2.97c3.21-.61,6.67-2.3,9.35-4.4Z"/>
  <path class="cls-52" d="M30.1,16.25c.09,1.47-1.45,2.24-1.77,3.55-.88,3.11-4.96,3.51-5.32,0-2.2,2.15-5.16,1.56-8.87-1.77v-1.77c5.16-1.56,10.79-1.56,15.97,0Z"/>
  <path class="cls-59" d="M53.17,131.58c-1.59,1.3-3.96,1.89-7.1,1.77,1.26,2.04-1.75,2.95-3.55,1.77-.46-1.57-.41-4.14-1.77-5.32,5.07.67,9.76-.28,14.51-1.63-.53,1.45-1.63,2.27-2.09,3.41Z"/>
  <path class="cls-15" d="M92.21,136.9c-.5,1.55-1.1,1.53-1.77,0l-7.1-1.77-2.23-.52c-1.56-.3-1.53-.81-.02-1.5,1.94.09,5.21.81,7.74-.04,1.68-.57,1.94-3.28,3.5-5.04-.23,2.95-.1,5.92-.13,8.88Z"/>
  <path class="cls-72" d="M33.65,149.32h1.77c.87-3.85,2.06-4.45,3.55-1.77,3.59,2.82,2.41,4.59-3.55,5.32h-2.06c-1.68,1.94-3.42.97-4.48-1.26-.46-.8-1.94-1.3-2.33-2.29-.32-2.94.56-5.23,3.55-3.55,1.78-.1,2.96,1.08,3.55,3.55Z"/>
  <path class="cls-105" d="M104.63,159.97c-5.11.61-10.44,1.21-15.97,1.77h-3.55c.55-.95,1.55-3.57,3.06-3.41,5.49.59,12.27-2.26,16.46,1.63Z"/>
  <path class="cls-56" d="M83.61,52.06c-3.49,4.69.32,11.47-4.08,15.47l.55-15.5c.87-.73,2.8-.02,3.53.03Z"/>
  <path class="cls-102" d="M69.14,71.25v1.77h-5.32c-1.57-.29-2.21-.51-1.39-1.94-.79-.55-.82-1.08-.06-1.61l2.78-1.65c.74-.26,1.44-.64,2.01-1.18,2.85-1.78,4.34,2.83,1.99,4.61Z"/>
  <path class="cls-121" d="M115.27,32.22c.52-1.17,1.11-1.14,1.77,0,.2,1.14-.28,2.43,0,3.55-.63,4.17-6.73,2.55-8.91-.13-.07-.63.02-1.61.21-2.21-3.09-1.84-2.21-3.16,1.39-2.3.5-.7.95-.69,1.35.06.99.49,2.39.83,4.18,1.03Z"/>
  <path class="cls-117" d="M109.95,28.67c1.56.96,1.49,1.78-.21,2.46-.41.77-1.12,1.45-1.39,2.3-1.41-.13-4.13,1.22-5.22-1.2-1.21-2.67,1.43-3.54,3.13-4.23,1.03-.42,2.33-.36,3.69.67Z"/>
  <path class="cls-3" d="M104.63,159.97h1.96c-.44,1.17-1.59,1.85-3.63,1.84l-14.3-.07c-.13-1.45,1.59-1.79,3.46-1.79l12.5.02Z"/>
  <path class="cls-126" d="M15.91,19.8c3.5,6.29.13,7.76-5.58,5.32-2.06-2.71,2.4-4.84,3.81-7.1,1.36.49,1.95,1.08,1.77,1.77Z"/>
  <path class="cls-82" d="M19.46,26.9c.33,1.49.08,2.97-1.18,3.39-1.65.55-3.03.64-4.34.68-2.03-.41-3.41-2.01-3.55-4.07,2.88-.3,4.87-1.37,5.97-3.21l3.1,3.21Z"/>
  <path class="cls-66" d="M69.47,2.24c-.07.63-.55,1.25-.54,1.88l-13.98,1.49,3.55-3.55c3.32-1.44,7.91-1.44,10.97.18Z"/>
  <path class="cls-30" d="M99.3,37.54c1.6.33,1.53.93,0,1.77-.9.29-1.66,1.24-2.62,2.08s-1.97.48-2.86-.65c.3-1.01,1.67-1.37,1.98-3.05-3.33-.18-5.64,0-7.14-1.92,3.64-.22,7.44-.11,10.65,1.77Z"/>
  <path class="cls-34" d="M28.33,19.8c-.28,1.14-.21,2.4-.43,3.55-1.98,1.56-4.69,1.58-6.66,0-4.7-2.16-3.36-4.55,1.77-3.55h5.32Z"/>
  <path class="cls-64" d="M30.1,16.25h-15.97c4.08-3.07,11.89-3.07,15.97,0Z"/>
  <path class="cls-56" d="M117.05,44.64c1.37,1.22,1,2.36.47,3.32-.71,1.29-3.21,2.66-5,3.34-1.92-.23-.21-3.62.98-4.89-1.55-.5-1.53-1.1,0-1.77h3.55Z"/>
  <path class="cls-114" d="M35.43,64.16c-.74-.52-.7-1.11,0-1.77v-14.19c3.14,3.9,2.94,11.94,0,15.97Z"/>
  <path class="cls-106" d="M81.32,151.13c1.94.3,2.66,1.03,2.15,2.21-.07,1.09-.55,2.08-1.2,2.95-1.82-.08-3.67-.68-5.47-.43-5.12-2.81-1.97-6.74,2.92-4.65l1.6-.07Z"/>
  <path class="cls-118" d="M88.66,144c.05-2.48.45-4.97,1.77-7.1h1.77l-.07,8.74c-2.16.57-3.65.18-3.48-1.64Z"/>
  <path class="cls-54" d="M19.46,25.12c.09.57-.12,1.21,0,1.77h-9.07c-.03-.48.22-1.4-.06-1.77,1.27-.06,2.97.51,4.52-.17,1.7-.75,1.17-3.48,1.07-5.15,3.26-1.99,5.48,1.89,3.55,5.32Z"/>
  <path class="cls-57" d="M58.48,10.94c2.07,3.45-1.76,6.74-5.43,5.76-3.29-2.49.03-6.61,1.89-9.32-.04.74-.13,1.71.27,2.5.56,1.11,2.11,1.2,3.27,1.06Z"/>
  <path class="cls-10" d="M15.91,33.99c4.93-.38,2.02,9.52-1.96,5.17-1.15-.32-2.27-1.07-2.33-2.04-.07-1.19.16-2.07.37-3.01l2.14-.12c.57-.03,1.23.13,1.77,0Z"/>
  <path class="cls-31" d="M44.3,142.23c-1.16-.47-1.12-1.07,0-1.77-1.17-.26-1.93-.44-1.77-1.77v-1.77c1.85-1.65,4.81-3.02,7.1-1.77-.3,3.22-2.27,5.98-5.32,7.1Z"/>
  <path class="cls-69" d="M72.66,73.04c-1.26-.3-2.32-1.35-3.52-1.79,0-1.7-.72-3.41-1.99-4.61l1.78-4.27c2.71,2.89,2.8,6.93,3.73,10.66Z"/>
  <path class="cls-22" d="M33.36,152.87c.07.57-.3,1.22-.14,1.77-1.19.68-2.14,2.4-3.16.99-.93-1.3-.83-2.74-1.18-4.03,1.64-.42,3.45-.19,4.48,1.26Z"/>
  <path class="cls-97" d="M49.62,135.13c-2.3,1.03-4.53,2.15-7.1,1.77,0-.58.16-1.22,0-1.77l3.55-1.77c3.17-1.59,6.6-1.34,3.55,1.77Z"/>
  <path class="cls-4" d="M108.14,35.64c3.1,1.18,3.7,2.41,1.81,3.68.69,1.49.02,2.02-1.77,1.77-1.48,1.18-3.67.06-3.33-1.92-.14-1.08-.48-2.89.7-3.67.66-.44,1.98.19,2.6.14Z"/>
  <path class="cls-119" d="M102.85,39.32c-.82,3.01-1.8,2.34-3.55,0-.11-.57.08-1.2,0-1.77.23-.66.09-3.14.94-3.5,1.94-.82,3.21,1.15,2.7,2.41-.23.57-.3,1.72-.09,2.86Z"/>
  <path class="cls-128" d="M102.85,154.65h-1.77c-1.11.13-5.7.5-5.37-1.89,1.62-4.2,5.26.62,7.15,1.89Z"/>
  <path class="cls-115" d="M83.47,153.34c-.77-.69-1.49-1.42-2.15-2.21,2.56-.12,6.21.93,7.4-1.97,1.7.1,2.15,1.47,1.6,3.53l-6.85.65Z"/>
  <path class="cls-99" d="M69.62.83l-.16,1.41-10.97-.18c2.3-3.37,7.52-1.69,11.13-1.22Z"/>
  <path class="cls-75" d="M35.43,64.16c-.4,2.36,1.5,6.51-1.77,7.1.23-2.94-1.29-7.19,1.77-8.87,0,.58.1,1.2,0,1.77Z"/>
  <path class="cls-70" d="M109.95,44.64c1.16-.18,2.38,0,3.55,0v1.77h-3.55c-1.84,0-3.68-.04-5.49-.39-2.77-4.1,2.47-2.99,5.49-1.39Z"/>
  <path class="cls-71" d="M108.17,41.09c2.07-1.68,3.06-.77,1.77,1.77-3.14,2.22-9.8.67-7.1-3.55.65-.12,1.33-.07,1.99-.15l3.33,1.92Z"/>
  <path class="cls-103" d="M115.27,28.67c1.55.5,1.53,1.1,0,1.77-.62,1.78-2.92,2.35-4.18.75-.62.65-1,1.07-1.35-.06.17-.81.24-1.63.21-2.46h1.77c1.16-.13,2.4.22,3.55,0Z"/>
  <path class="cls-113" d="M44.3,140.45c-.5,1.55-1.1,1.53-1.77,0-.25,2.23-1.15,2.52-2.18.43l.41-2.2c.56.11,1.23-.17,1.77,0,.79.25,1.58.95,1.77,1.77Z"/>
  <path class="cls-43" d="M118.82,30.44c-1.02,1.23-2.75,1.32-3.55,0v-1.77c1.87-.35,2.44.81,3.55,1.77Z"/>
  <path class="cls-2" d="M111.72,28.67c-.59.06-1.18-.03-1.77,0,.71-1,1.81-1.56,1.77,0Z"/>
  <path class="cls-95" d="M61.73,81.98c3.65,3.48-5.38,3.19-5.67,6.78,1.41,4.94,5.44-1.32,7.01-.52,4.37,2.22,7.17,7.97,11.45,9.82.82,2.59,6.23,3.64,3.79,6.87.45,3.39-.86,3.55-2.39.38-1.39,5.03-5.8,5.1-8.7,1.21-.89-.6-1.86-1.1-2.94-1.18-3.19,1.32-3.59-1.28-2.53-4.23-6.99,2.51-14.5-10.17-8.51-15.86-1.54-5.51,5.49-7.39,8.48-3.28Z"/>
  <path class="cls-78" d="M75.93,105.32c3.57.82,3.94,3.89,1.1,9.21,1.2,3.02.93,4.57-.8,4.64-.29,3.52-.95,4.83-3.55,1.89-4.97-3.9-1.16-11.52-5.46-14.53,2.73-1.43,5.78-.75,8.7-1.21Z"/>
  <path class="cls-25" d="M64.29,105.35c-2.61,5.93.37,20.16-9.04,22.83l4.65-12.69c1.49-4.07-2.27-8.86.37-12.31-2.91-2.15-2.05-3.37,1.49-2.05,1.24,1.12,2.08,2.63,2.53,4.23Z"/>
  <path class="cls-91" d="M81.09,133.1l.02,1.5-3.06.03c-.38,2.21-1.65,1.79-3.81-1.29-2.03-3.77-1.82-8.09-1.55-12.3l3.55-1.89c.96,4.98-.57,10.55,4.85,13.94Z"/>
  <path class="cls-29" d="M78.04,134.64c2.16,4.8-1.34,10.09,1.44,14.64-2.97,4.45-4.9,4.85-6.4-.58,3.78-4.55,3.93-10.19,1.15-15.35,1.34.18,2.67.53,3.81,1.29Z"/>
  <path class="cls-28" d="M79.48,149.28c.32.52,0,1.36.24,1.93-1.96.72-2.92,2.63-2.92,4.65l-4.11.56c-2.82.27-3.02-2.91-1.83-5.44.8-.54,1.61-1.53,2.23-2.28,2.1.47,4.25.66,6.4.58Z"/>
  <path class="cls-80" d="M49.62,149.32c.28,1.46-.31,2.05-1.77,1.77-7.22,2.95-11.28-1.6-5.32-7.1.46-1.59,1.05-1.47,1.77.15,3.01.45,4.06,2.89,5.32,5.17Z"/>
  <path class="cls-41" d="M51.4,154.65c.5-1.55,1.1-1.53,1.77,0,1.17-.23,2.01.61,1.77,1.77l-15.99-.06c-1.3,0-1.93-.89-1.75-1.72,3.69-1.56,9.96-1.33,14.19,0Z"/>
  <path class="cls-58" d="M72.69,156.42c-.55.63-1.15,1.22-1.77,1.77-1.02-.75-1.62-1.82-1.83-2.9-.37-1.95.3-3.34,1.77-4.32.3,1.91.85,3.77,1.83,5.44Z"/>
  <path class="cls-84" d="M53.17,131.58c-.7,1.77-1.12,3.56-3.55,3.55.22-2.1-1.99-2.01-3.55-1.77,1.7-2.18,4.57-2.04,7.1-1.77Z"/>
  <path class="cls-93" d="M53.17,154.65h-1.77l-3.55-1.77c-1.55-.5-1.53-1.1,0-1.77.35-.8.97-1.43,1.77-1.77.98,1.76,3.67,2.82,3.55,5.32Z"/>
  <path class="cls-60" d="M44.3,142.23v1.92c-.58-.09-1.19-.15-1.77-.15-1.53-.51-1.52-2.82,0-3.55h1.77c.13.56,0,1.2,0,1.77Z"/>
  <path class="cls-47" d="M61.76,101.12c-.93.34-.98,1.4-1.49,2.05-2.08-.24-1.68,2.12-3.72,4.35-2.13-2.43-6.15-16.18-10.27-11.3-.32-2.56.1-5.05,1.56-7.22,1.22,1.05,2.5,1.27,3.17.18.79-1.27.98-3.28,2.24-3.91-1.47,7.03,3.58,11.4,8.51,15.86Z"/>
  <path class="cls-9" d="M44.3,99.64h1.77c-.52,3.56,1.29,7.34-1.09,10.84-2.07-4.43.06-7.74-.69-10.84Z"/>
  <path class="cls-39" d="M85.16,119.16c-2.9,1.1-6.01,1.03-8.93,0-.91-4.72-.45-8.86-.31-13.85l2.39-.38c.89,2.36,4.02.71,5.84,3.61-1.52,2.71-5.17,1.33-5.21,3.35-.02,1.14-1.4,3.96-.45,4.66,2.31,1.7,5.78.28,6.67,2.6Z"/>
  <path class="cls-49" d="M62.04,32.22c1.6,3.74,1.37,10.13.25,14.24-4.24-1.76.08-11.77-3.8-14.24-1.17-.52-1.14-1.11,0-1.77.51-1.41,1.1-1.39,1.77,0,2.24-1.56,3.11-.74,1.77,1.77Z"/>
  <path class="cls-1" d="M65.59,46.41c2.72,2.72,1.63,3.78-1.77,1.77v-1.77c-1.29-3.93-1.43-10.25,0-14.19.5-1.55,1.1-1.53,1.77,0,.98.24,1.75.49,1.77.79.17,2.53-.53,9.45-.9,12.3-.05.4-.42.76-.87,1.11Z"/>
  <path class="cls-125" d="M63.82,46.41l-1.52.04-.25-14.24c.5-1.55,1.1-1.53,1.77,0v14.19Z"/>
  <path class="cls-104" d="M56.72,30.44c1.17.52,1.14,1.11,0,1.77h-3.55c.08-.57-.13-1.21,0-1.77.5-1.55,1.1-1.53,1.77,0h1.77Z"/>
  <path class="cls-35" d="M58.49,30.44v1.77h-1.77v-1.77c-.81-.55-.78-1.14,0-1.77.06-1.67.61-1.75,1.62-.32,1.41-.15,1.18.99.15,2.1Z"/>
  <path class="cls-63" d="M70.91,12.7c2.49-2.35,3.41-1.36,1.77,1.77,3.43,1.33,3.19,3.76,0,5.32-.9.52-1.81,2.32-3.22,2.28-3.52-.46-6.59-1.82-9.2-4.06-6.19-1.9,1.16-8.59,5.45-6.46,1.33,1.3,3.48,1.11,5.19,1.14Z"/>
  <path class="cls-40" d="M83.33,30.62c-4.37,0-6.21,4.95-7.1,8.7h-3.55c-1.17-.52-1.14-1.11,0-1.77-1.55-.5-1.53-1.1,0-1.77,2.16-4.13,2.08-4.62,0-7.1-.79,2.99-1.38,4.63-3.55,1.77-4.71-.34-4.71-1.53,0-3.55-.41-1.6.18-2.19,1.77-1.77,3.96,2.4,9.08,2.01,12.42,5.5Z"/>
  <path class="cls-19" d="M69.47,22.08c.17.98,1.43,1.93,1.44,3.04-.52.66-1.09,1.28-1.77,1.77-.48,4.58-6.76,4.8-9.23,1.42-1.55-.38-1.5-.9.03-1.57-1.54-5.7,6.3-9.23,9.52-4.66Z"/>
  <path class="cls-86" d="M78.16,16.52c-1.12,1.77-3.15,3.21-5.47,3.27v-5.32c.5-1.55,1.1-1.53,1.77,0,1.03,1,2.32,1.65,3.7,2.05Z"/>
  <path class="cls-101" d="M58.94,77.18c1.16,1.46,2.07,3.09,2.79,4.8-3,.51-5.77,1.91-8.48,3.28-1.2-2.37-3.32-4.15-5.77-7.05,3.92-3.36,7.81-.83,11.46-1.04Z"/>
  <path class="cls-6" d="M81.56,48.5c-1.5-.12-3.64.18-5.01-.54-3.92,3.09-5.21.81-3.6-3.32-1.65-.21-1.54-2.46-.27-3.55.01-.99,9.99,3.57,9.88,3.32.83,1.85-.54,2.92-1,4.09Z"/>
  <path class="cls-108" d="M102.85,39.32c.64,3.52,4.2,3.54,7.1,3.55.21.51-.13,1.23,0,1.77-1.69.26-5.13-.92-5.49,1.39-2.35-1.7-4.56-3.79-5.16-6.71,1.08-.34,2.43.21,3.55,0Z"/>
  <path class="cls-50" d="M72.69,39.32v1.77l.27,3.55c.32,3.43-1.05,3.43-2.05,0-2.97.12-2.65-5.98,0-7.1.5-1.55,1.1-1.53,1.77,0v1.77Z"/>
  <path class="cls-127" d="M53.17,67.5c.67,2.88-2.94,2.96-5.16,1.65-.39.03-.87-.29-1.22-.15-.41-2.13-1.24-4.63-.43-6.84.52-1.42,2.9-3.03,5.27-2.84,4.73.37,9.09,3.7,10.77,7.87-3.87,1.42-6.64-.35-9.23.32Z"/>
  <path class="cls-53" d="M62.36,69.48c.78.52.87,1.06.06,1.61-1.19,2.11-6.45.89-9.25.16-1.13-.95-4.61.38-5.16-2.11,1.97.53,3.5-1.22,5.16-1.65,1.3,3.48,6.1,1.68,9.19,1.98Z"/>
  <path class="cls-98" d="M62.42,71.09c.89.22,1.43,1.03,1.39,1.94-3.82,0-7.62.77-10.65-1.77l9.25-.16Z"/>
  <path class="cls-77" d="M19.17,39.32c.69,1.68.15,2.71-1.62,3.09l-1.63.13c-.71-.16-1.67-.34-2.09-1.05s-.08-1.62.13-2.32c1.21.21,3.33-1.07,3.57-2.43.14-.8-1.47-1.88-1.61-2.75,1.23-.29,2.3-1.59,3.55-1.77.05,2.37-.04,4.74-.29,7.1Z"/>
  <path class="cls-85" d="M76.56,47.96c-1.53,1.35-1.07,3.46-.62,5.24-.58,3.28-2.44,3.56-3.26.14-1.6-2.34-2.83-2.34-2.68.62.47,1.27.66,2.52.88,3.83.09.55-.83,1.67-1.71.17-.33-.55-.95-1.06-1.58-1.39-.82-1.86-1.97-3.87-3.77-4.82v-3.57c.78-.32,1.78-.74,1.78-1.77.44-1.56,1.03-1.52,1.77,0,.49-2.91,1.33-4.14,3.55-1.77h2.05c1.82,0,2.35,2.48,3.6,3.32Z"/>
  <path class="cls-129" d="M75.94,53.2c.03,1.98-.32,3.98-1.48,5.63-1.22-1.63-2.43-3.19-1.79-5.5l3.26-.14Z"/>
  <path class="cls-7" d="M28.33,42.86c-3.57,1.46-7.47,1.65-10.78-.45.41-1.1.95-2.13,1.62-3.09,3.56-.39,7.91-.35,9.16,3.54Z"/>
  <path class="cls-20" d="M28.33,42.86c1.47-.83,2.03-1.63,2.91-1.8,1.78-.35,3.25,1.11,2.44,2.69-.69,1.34-2.55,1.15-3.58.53-.52-.31-.81-.53-1.77-1.42Z"/>
  <path class="cls-8" d="M33.65,35.77c-.38,1.37-1.2,2.7-2.88,3.33-1.05.39-1.79-.94-2.44-1.55.74-2.21,3.41-1.77,5.32-1.77Z"/>
  <path class="cls-48" d="M23.01,19.8c-1.19.78-1.63,2.18-1.77,3.55-.48.69-1.08,1.3-1.77,1.77l-3.55-5.32c-1.17.23-2.01-.61-1.77-1.77,3.09-.08,6.57-.62,8.87,1.77Z"/>
  <path class="cls-46" d="M28.33,32.44c2.31-1.44,4.71-2.73,7.26-3.69-.06,1.57-.48,3.35-1.86,4.46-1.64,1.32-4.05.94-5.41-.77Z"/>
  <path class="cls-94" d="M30.1,145.78c-1.06,1.1-1.73,3.36-3.55,3.55-.62-1.81-1.75-3.37-1.35-5.32,1.53-1.29,3.05-2.59,4.71-3.7,1.34,1.77,2.34,4.49.19,5.47Z"/>
  <path class="cls-21" d="M33.65,145.78v3.55c-1.76-.46-2.94-1.88-3.55-3.55.61-1.49-.47-3.86-.19-5.47.7-.47,1.23-1.19,1.96-1.63.72,2.05,1.32,4.42,1.77,7.1Z"/>
  <path class="cls-5" d="M33.65,145.78c-1.93-1.84-2.1-4.57-1.77-7.1.18-1.35.71-2.67,1.77-3.55v10.65Z"/>
  <path class="cls-120" d="M65.72,11.57c-2.8,1.22-5.62,3.13-5.45,6.46-.6,1.57-1.2,1.49-1.78-.15-1,4.69-2.25,4.82-3.74.38-.51-.57-1.08-1.09-1.68-1.55,1.73-1.94,2.95-4.44,5.43-5.76,1.38-.74,3.01-1.32,4.5-1.5,1.53-.18,1.93,1.34,2.74,2.13Z"/>
  <path class="cls-18" d="M74.46,14.48h-1.77l-1.77-1.77c1.4-.53,1.7-2.07,1.62-3.42.52-.41,1.01-1.37,1.49-1.7.67-.46,2.61-.19,2.27,1.5-.47,2.38-1.92,3.73-1.83,5.4Z"/>
  <path class="cls-11" d="M58.48,17.88c2.93,2.28,5.36,6.27,1.46,8.87l-.03,1.57c-.12,1.43-.67,1.35-1.57.03-.52.06-1.14.12-1.62.32l-1.77,1.77h-1.77c.91-4.01,1.1-8.12,1.57-12.19l3.74-.38Z"/>
  <path class="cls-76" d="M40.35,140.88c1.7-.25,1.66,1.98.41,3.12.52,1.56-.11,3.42-1.77,3.55l-3.55,1.77c.22-1.76-.24-4.93.49-7.25.39-1.24,2.88-.89,4.43-1.19Z"/>
  <path class="cls-24" d="M117.05,35.77c.63,2.52-.39,3.71-1.77,5.32-2.14.54-4.71.47-5.32-1.77-.67-1.17-1.65-2.3-1.81-3.68,2.43-.2,6.61,2.22,8.91.13Z"/>
  <path class="cls-109" d="M115.27,41.09c-1.62,1.89-2.84,1.78-5.32,1.77-.32-.77-1.08-1.37-1.77-1.77.53-.65,1.12-1.25,1.77-1.77,1.94-.1,4.23-.02,5.32,1.77Z"/>
  <path class="cls-12" d="M118.82,30.44c.33,1.17-.87,1.5-1.77,1.77h-1.77c-1.55-.5-1.53-1.1,0-1.77h3.55Z"/>
  <path class="cls-44" d="M42.52,144c-1.44,1.69-1.19,3.71-.46,5,1.31,2.33,3.9,2.58,5.78,2.1v1.77c-2.58,1.56-8.07,1.31-10.65,0h-1.77c1.92-1.22,3.22-3.07,3.55-5.32.19-1.33.91-2.55,1.77-3.55.5-1.55,1.1-1.53,1.77,0Z"/>
  <path class="cls-90" d="M47.85,152.87c1.41,0,3.19.14,3.55,1.77h-14.19c.13-.57-.06-1.19,0-1.77h10.65Z"/>
  <path class="cls-89" d="M115.27,30.44v1.77c-.88.56-1.9,1.5-2.66,1.35-1.34-.26-2.84-1.28-1.52-2.38,1.36-.31,2.79-.75,4.18-.75Z"/>
  <path class="cls-116" d="M42.52,144h-1.77l-.41-3.12c.72-.14,1.45-.43,2.18-.43v3.55Z"/>
  <path class="cls-81" d="M69.14,30.44c1.55.5,1.53,1.1,0,1.77-.52,4.05-2.55,3.96-3.55,0h-3.55l-1.77-1.77c-1.24-.26-1.27-1.23-.36-2.13,3.17.5,6.54.51,9.23-1.42v3.55Z"/>
  <path class="cls-42" d="M60.27,30.44h-1.77l-.15-2.1c.49-.06,1.08-.11,1.57-.03l.36,2.13Z"/>
  <path class="cls-61" d="M69.14,32.22c2.66.04,2.6,2.87,0,3.55.81,4,.22,7.55-1.77,10.65-.58.09-1.19-.06-1.77,0v-14.19h3.55Z"/>
  <path class="cls-62" d="M56.72,30.44h-1.77c.43-.7.98-1.45,1.77-1.77v1.77Z"/>
  <path class="cls-65" d="M69.47,22.08c-3.81-.11-6.21,3.17-9.52,4.66-1.22-3.02-4.04-6.06-1.46-8.87.57-.06,1.23.29,1.78.15,1.98-.5,4.01-.89,6.17-.48,2.2.41,2.85,2.38,3.04,4.54Z"/>
  <path class="cls-33" d="M72.69,35.77v1.77h-1.77c-1.51.73-2.05.05-1.77-1.77v-5.32c1.15-.65,2.32-1.29,3.55-1.77,3.03.48,2.19,5.11,0,7.1Z"/>
  <path class="cls-23" d="M72.69,35.77v-7.1c3.12-1.22,4.25,1.58,3.51,4.28-.33,1.21-2.09,2.14-3.51,2.81Z"/>
  <path class="cls-32" d="M70.91,37.54v7.1c-.96.95-2.21,1.56-3.55,1.77,0-3.66-.98-7.8,1.77-10.65.62.56,1.21,1.15,1.77,1.77Z"/>
</svg>