<?xml version="1.0" encoding="UTF-8"?>
<svg id="Enemy" xmlns="http://www.w3.org/2000/svg" viewBox="0 0 93.24 150.25">
  <defs>
    <style>
      .cls-1 {
        fill: #a5670b;
      }

      .cls-2 {
        fill: #39434c;
      }

      .cls-3 {
        fill: #161c1f;
      }

      .cls-4 {
        fill: #d98654;
      }

      .cls-5 {
        fill: #151e35;
      }

      .cls-6 {
        fill: #f7a97c;
      }

      .cls-7 {
        fill: #0a0c15;
      }

      .cls-8 {
        fill: #b46242;
      }

      .cls-9 {
        fill: #9c3e0a;
      }

      .cls-10 {
        fill: #683e07;
      }

      .cls-11 {
        fill: #0a0e15;
      }

      .cls-12 {
        fill: #3b3e4a;
      }

      .cls-13 {
        fill: #0d8b11;
      }

      .cls-14 {
        fill: #f7af80;
      }

      .cls-15 {
        fill: #2e333c;
      }

      .cls-16 {
        fill: #21201b;
      }

      .cls-17 {
        fill: #f8cc49;
      }

      .cls-18 {
        fill: #a65124;
      }

      .cls-19 {
        fill: #08090f;
      }

      .cls-20 {
        fill: #1d1a19;
      }

      .cls-21 {
        fill: #101d38;
      }

      .cls-22 {
        fill: #6e7379;
      }

      .cls-23 {
        fill: #18202a;
      }

      .cls-24 {
        fill: #d29669;
      }

      .cls-25 {
        fill: #232c34;
      }

      .cls-26 {
        fill: #b78024;
      }

      .cls-27 {
        fill: #b47d24;
      }

      .cls-28 {
        fill: #883819;
      }

      .cls-29 {
        fill: #969fb8;
      }

      .cls-30 {
        fill: #43548a;
      }

      .cls-31 {
        fill: #7a370e;
      }

      .cls-32 {
        fill: #2e323e;
      }

      .cls-33 {
        fill: #a06a2a;
      }

      .cls-34 {
        fill: #502204;
      }

      .cls-35 {
        fill: #5e1600;
      }

      .cls-36 {
        fill: #3f1c0c;
      }

      .cls-37 {
        fill: #808b96;
      }

      .cls-38 {
        fill: #636e85;
      }

      .cls-39 {
        fill: #0c0d12;
      }

      .cls-40 {
        fill: #d0d1e6;
      }

      .cls-41 {
        fill: #f2c13b;
      }

      .cls-42 {
        fill: #f5c58b;
      }

      .cls-43 {
        fill: #111c22;
      }

      .cls-44 {
        fill: #1c2018;
      }

      .cls-45 {
        fill: #2b3c15;
      }

      .cls-46 {
        fill: #27201e;
      }

      .cls-47 {
        fill: #060816;
      }

      .cls-48 {
        fill: #111516;
      }

      .cls-49 {
        fill: #f2c03f;
      }

      .cls-50 {
        fill: #f4a371;
      }

      .cls-51 {
        fill: #edc896;
      }

      .cls-52 {
        fill: #fb9a6e;
      }

      .cls-53 {
        fill: #0aac19;
      }

      .cls-54 {
        fill: #34436c;
      }

      .cls-55 {
        fill: #0e8d12;
      }

      .cls-56 {
        fill: #613e14;
      }

      .cls-57 {
        fill: #703b25;
      }

      .cls-58 {
        fill: #5d6873;
      }

      .cls-59 {
        fill: #f1ab77;
      }

      .cls-60 {
        fill: #a26814;
      }

      .cls-61 {
        fill: #222e43;
      }

      .cls-62 {
        fill: #101117;
      }

      .cls-63 {
        fill: #050509;
      }

      .cls-64 {
        fill: #111523;
      }

      .cls-65 {
        fill: #7f570e;
      }

      .cls-66 {
        fill: #1b1d28;
      }

      .cls-67 {
        fill: #ac7b1c;
      }

      .cls-68 {
        fill: #3f5012;
      }

      .cls-69 {
        fill: #1e1e2a;
      }

      .cls-70 {
        fill: #0e700e;
      }

      .cls-71 {
        fill: #f29a6d;
      }

      .cls-72 {
        fill: #47515f;
      }

      .cls-73 {
        fill: #08090d;
      }

      .cls-74 {
        fill: #949db6;
      }

      .cls-75 {
        fill: #a5acb2;
      }

      .cls-76 {
        fill: #1c1e28;
      }

      .cls-77 {
        fill: #74440b;
      }

      .cls-78 {
        fill: #535a69;
      }

      .cls-79 {
        fill: #36363e;
      }

      .cls-80 {
        fill: #164f0b;
      }

      .cls-81 {
        fill: #e8966b;
      }

      .cls-82 {
        fill: #2c2c38;
      }

      .cls-83 {
        fill: #151c27;
      }

      .cls-84 {
        fill: #c77542;
      }

      .cls-85 {
        fill: #b25122;
      }

      .cls-86 {
        fill: #60340c;
      }

      .cls-87 {
        fill: #8a92a1;
      }

      .cls-88 {
        fill: #231312;
      }

      .cls-89 {
        fill: #c5734c;
      }

      .cls-90 {
        fill: #964513;
      }

      .cls-91 {
        fill: #edb981;
      }

      .cls-92 {
        fill: #c4c4d4;
      }

      .cls-93 {
        fill: #626587;
      }

      .cls-94 {
        fill: #a17825;
      }

      .cls-95 {
        fill: #151c25;
      }

      .cls-96 {
        fill: #3c3b55;
      }

      .cls-97 {
        fill: #be6634;
      }

      .cls-98 {
        fill: #181f25;
      }

      .cls-99 {
        fill: #3c251d;
      }

      .cls-100 {
        fill: #eea175;
      }

      .cls-101 {
        fill: #b25e2f;
      }

      .cls-102 {
        fill: #393b49;
      }

      .cls-103 {
        fill: #191a23;
      }

      .cls-104 {
        fill: #373435;
      }

      .cls-105 {
        fill: #8c8481;
      }

      .cls-106 {
        fill: #bcc0d5;
      }

      .cls-107 {
        fill: #adb2bc;
      }

      .cls-108 {
        fill: #9a691f;
      }
    </style>
  </defs>
  <g id="JumpingJunkie_damage_2">
    <g id="back-leg">
      <path class="cls-66" d="M52.39,92.99c1.03-3.43,2.21-11.76,1.36-14.75-.85-2.98.43-10.84-.07-14.04s-2.01-9.96-4.78-9.94-18.68-.06-22.23,1.12-4.72,5.08-3.74,8.8c.98,3.72,3.13,13.32,4.92,15.61s7.08,17.31,12.5,19.77c5.42,2.46,8.26.37,10.09-1.3s1.95-5.27,1.95-5.27Z"/>
      <path class="cls-66" d="M49.24,120.08c-.24,1.89-.2,3.73-2.55,4.32-.31-2.09-2.43-1.45-3.88-.83,1.1-2.53,3.91-3.11,6.43-3.49Z"/>
      <g>
        <path class="cls-63" d="M32.82,93.69c-.48,7.05-1.55,18.74-2.69,22.12-1.14,3.39-.97,7.1,1.68,7.4s7.02,1.15,9.57.3c2.55-.86,3.78-3.4,8-6.99,4.22-3.58.01-4.76.44-11.21.43-6.45.9-10.72-2.66-14.55-3.55-3.83-9.51-7.55-12.68-10.22-3.17-2.67-4.56,3.15-3.72,6.02.84,2.87,2.05,7.11,2.05,7.11Z"/>
        <path class="cls-66" d="M32.67,91.37c2.19,5.78,2.77,5.63,1.72-.44-1.38-.83-1.63-2.02-.65-3.37.13-6.26,4.15-5.46,12.07,2.4l3.22.84c4.96,5.74,5.66,18.27,1.39,25.46-3.08,3.27-10.1,8.63-13.64,5.2-2.17-1.08-5-1.67-6.04-3.8-2.42-4.97,3.93-11.35,2.43-17.17l-5.31-20.7c4.4-1.87,5.52,8.22,4.82,11.58Z"/>
        <path class="cls-63" d="M33.44,80.18c3.83,2.6,3.95,4.5.29,7.38.4,1.01.53,2.29.65,3.37-.1,1.63-.68,1.75-1.72.44-.68-4.55-1.8-8.4-4.82-11.58-.74-7.87-7.87-11.39-4.4-17.5,9.38,11.47-1.68,5.72,9.99,17.89Z"/>
        <path class="cls-47" d="M49.24,120.08c-1.22,1.66-3.36,2.82-6.43,3.49,1.73,1.66-.96,3.29-2.99,2.6-.83-1.41-1.43-3.91-3.05-4.71,5.07-.62,9.38-2.71,13.64-5.2-.15,1.54-1.01,2.6-1.17,3.82Z"/>
        <path class="cls-19" d="M53.45,91.9c-1.04,6.4,5.39,19.42-3.04,24.36l1.33-13.45c.43-4.32-4.42-8.01-2.71-12.01-3.36-1.36-2.82-2.75.93-2.36,1.48.78,2.67,2.03,3.51,3.46Z"/>
        <path class="cls-39" d="M49.95,88.44c-.82.56-.6,1.6-.93,2.36-2.07.29-1.1,2.47-2.52,5.14-2.67-1.82-10-14.13-12.77-8.38-.95-2.4-1.17-4.91-.29-7.38,1.45.71,2.74.61,3.12-.62.44-1.43.13-3.42,1.19-4.35.33,7.18,6.32,10.15,12.2,13.23Z"/>
        <path class="cls-7" d="M32.67,91.37l1.72-.44c.39,3.58,3.08,6.79,1.66,10.77-3.11-3.77-1.87-7.51-3.37-10.33Z"/>
      </g>
      <g>
        <path class="cls-16" d="M43.9,128.47c1.15-2.69,4.27-2.96,3.03-7.17-1.24-4.21-12.18-11.65-14.01-8.12-1.83,3.53-3.32,7.19-3.25,9.44s6.22,7.06,7.74,7.45,6.48-1.61,6.48-1.61Z"/>
        <path class="cls-23" d="M26.67,146.06c-3.88-1.67-5.44-.9-5.48-2.55-.04-1.64-1.49-1.82.36-4,1.85-2.18,1.76-5.58,2.84-6.83,1.08-1.25,4.47-8.91,4.48-10.56s.76-3.19,1.54-3.16,3.78-.13,4.57,1.47c.79,1.59,3.11,1.92,4.08,3.4s2.86,4.62.96,6.32c-1.9,1.7-.77.49-3.57,2.1s-9.78,13.82-9.78,13.82Z"/>
        <path class="cls-30" d="M36.49,129.94c2.49.59,2.17,1.91-.57,2.16-1.67,2.73-3.51,5.42-5.53,8.06-.62,1.51-1.21,1.44-1.77-.13-1.5-1.63-2.14-3.17.26-3.54-1.04-3.46-.81-7.35.78-10.62l.15-1.97c3.89.19,5.43,2,6.67,6.04Z"/>
        <path class="cls-44" d="M31.91,143.83c1.55.44,1.45,1.04-.13,1.77,5.89,1.06,11.75,2.09,17.56,3.08.03,1.41-1.73,1.68-3.57,1.54l-17.79-1.34c-.29-1.11.05-2.43-.17-3.57-1.52-.71-1.4-1.3.27-1.76-.07-2.7,1.17-2.52,2.06.15l1.77.13Z"/>
        <path class="cls-58" d="M28.63,140.03l1.77.13c1.15-3.78,2.38-4.28,3.67-1.51,3.37,3.07,2.06,4.76-3.93,5.05l-2.06-.15c-1.82,1.81-3.48.72-4.38-1.59-.4-.83-1.84-1.44-2.15-2.45-.11-2.95.94-5.17,3.8-3.28,1.78.03,2.87,1.3,3.28,3.8Z"/>
        <path class="cls-25" d="M39.77,133.74c-1.12-.56-1.03-1.15.13-1.77-1.15-.35-1.9-.59-1.64-1.9l.13-1.77c1.97-1.51,5.02-2.66,7.21-1.25-.54,3.19-2.7,5.8-5.83,6.69Z"/>
        <path class="cls-16" d="M28.08,143.55c.02.58-.38,1.2-.27,1.76-1.23.59-2.32,2.24-3.22.76-.83-1.37-.63-2.8-.88-4.1,1.67-.3,3.46.06,4.38,1.59Z"/>
        <path class="cls-78" d="M45.6,127.05c-2.37.85-4.68,1.81-7.21,1.25.04-.57.25-1.21.13-1.77l3.67-1.51c3.28-1.36,6.68-.85,3.41,2.03Z"/>
        <path class="cls-93" d="M39.9,131.97c-.62,1.51-1.21,1.44-1.77-.13-.41,2.21-1.34,2.42-2.2.26l.57-2.16c.55.15,1.24-.08,1.77.13.77.31,1.51,1.07,1.64,1.9Z"/>
        <path class="cls-64" d="M44.55,141.21c.17,1.48-.46,2.02-1.9,1.64-7.42,2.41-11.13-2.43-4.79-7.47.57-1.55,1.16-1.39,1.76.28,2.96.67,3.84,3.18,4.93,5.55Z"/>
        <path class="cls-34" d="M45.93,146.65c.62-1.51,1.21-1.44,1.77.13,1.18-.15,1.96.76,1.64,1.9l-15.95-1.23c-1.3-.1-1.86-1.03-1.62-1.84,3.79-1.29,10.03-.6,14.16,1.04Z"/>
        <path class="cls-75" d="M47.7,146.78l-1.77-.13-3.41-2.03c-1.51-.62-1.44-1.21.13-1.77.41-.77,1.08-1.35,1.9-1.64.84,1.83,3.45,3.08,3.15,5.57Z"/>
        <path class="cls-48" d="M39.77,133.74l-.14,1.92c-.57-.13-1.17-.24-1.76-.28-1.49-.62-1.3-2.93.26-3.54l1.77.13c.09.56-.09,1.2-.13,1.77Z"/>
        <path class="cls-15" d="M28.89,136.49l-.26,3.54c-1.72-.59-2.79-2.09-3.28-3.8.72-1.44-.19-3.88.22-5.47.73-.41,1.31-1.1,2.07-1.48.57,2.1.99,4.51,1.25,7.21Z"/>
        <path class="cls-5" d="M28.89,136.49c-1.79-1.98-1.75-4.71-1.25-7.21.28-1.33.9-2.61,2.03-3.41l-.78,10.62Z"/>
        <path class="cls-61" d="M35.92,132.1c1.72-.13,1.51,2.09.17,3.14.4,1.6-.36,3.41-2.03,3.41l-3.67,1.51c.35-1.74.12-4.94,1.02-7.2.48-1.21,2.94-.68,4.5-.86Z"/>
        <path class="cls-37" d="M37.87,135.38c-1.56,1.58-1.46,3.61-.82,4.95,1.14,2.42,3.7,2.86,5.61,2.52l-.13,1.77c-2.69,1.37-8.14.71-10.62-.78l-1.77-.13c2.01-1.07,3.44-2.82,3.93-5.05.29-1.31,1.1-2.48,2.03-3.41.62-1.51,1.21-1.44,1.77.13Z"/>
        <path class="cls-72" d="M42.52,144.62c1.4.1,3.17.37,3.41,2.03l-14.16-1.04c.17-.56.02-1.19.13-1.77l10.62.78Z"/>
        <path class="cls-96" d="M37.87,135.38l-1.77-.13-.17-3.14c.72-.08,1.48-.32,2.2-.26l-.26,3.54Z"/>
      </g>
    </g>
    <g id="back-arm">
      <path class="cls-18" d="M82.25,38.02c-.31-2.66-.7-6.09-4-9.56-3.29-3.47-6.9-6.33-9.98-4.63-3.08,1.71-6.25,5.93-6.09,8.99.16,3.07.36,9.79,4.53,10.85s16.38,1.65,15.79-.92-.26-4.73-.26-4.73Z"/>
      <path class="cls-2" d="M70.78,61.84c1.35-1.57,2.02-2.74,3.67-2.78s3.1-1.52,4.47.19,1.47,6.44.53,8.76c-.17.41,2.22,4.27,1.81,4.55-1.9,1.32-8.56-2.3-9.16-4.29-.74-2.4-3.91-3.46-4.44-4.66-.53-1.2-1.02-3.2.16-3.26s2.96,1.5,2.96,1.5Z"/>
      <g>
        <path class="cls-2" d="M75.57,77.06c.95.24,4.97,3.33,5.46,1.73.49-1.6.41-3.89-.32-5.1-.73-1.22-1.91-3.49-2.75-3.91s-3.03-.5-3.42-.07-1.61,5.43-.95,6,1.99,1.34,1.99,1.34Z"/>
        <path class="cls-88" d="M74.01,68.44c-1.3,4.37,2.72,6.43,6.01,8.11-.05.7-.86,1.32-1.02,2.01-2.07-.68-5.29-3.99-7.03-1.59-1.68-3.28-3-6.92-1.98-10.58,1.42.23,2.64,1.64,4.03,2.04Z"/>
        <path class="cls-18" d="M74.72,70.3c.93,1.13,1.29,2.62,1.92,3.91l-3.06,1.5-1.92-3.91c-1-2.03-1.92-4.09-2.3-6.38,5.57-6.53,6.5.2,5.36,4.88Z"/>
        <g>
          <g>
            <path class="cls-81" d="M74.2,54.72c2.04,1.62,2.8,3.35,2.28,5.19-.91,2.64-3.28,6.2-5.79,6.17,1.16,1.57,1.68,4.05.5,5.48-5.32-2.74-5.35-9.69-5.83-15.19-1.24-3.7-1.81-8.92-.8-12.49,1.7-3.74,3.66-7.06,5.88-9.95.33-1.24.92-1.31,1.75-.29,3.05-.17,3.89,2.63.57,3.5,3.69,1,4.65,3.85,2.87,8.57,1.32,2.08-.06,6.67-1.45,9.01Z"/>
            <path class="cls-42" d="M82.51,42.75c-.78,1.04-.47,2.79-.96,3.95-.57-.08-1.25.25-1.8.1-2.76,3.89-4.13,3.53-4.09-1.08-4.06-1.04-2.33-5.23-2.87-8.57.77-2.16,3.19-2.1,7.25.19,3.48-2.59,3.31,1.93,2.48,5.42Z"/>
            <path class="cls-91" d="M78.28,48.83c.24,9.73-1.12,11.69-4.07,5.89-.48-2.68-3.47-4.53-3.3-8.04.73-.65,2.1.46,2.9.52.74.06,1.39-.53,1.85-1.49,1.39.27,2.73.7,4.09,1.08-.5.67-.9,1.42-1.47,2.04Z"/>
            <path class="cls-24" d="M78.24,59.62c-.06,1.63-.67,1.66-1.75.29-.43-.84-1.49-1.44-2.47-2.26s-.79-1.87.19-2.93c1.05.13,1.62,1.43,3.33,1.47-.36-3.32-.9-5.57.74-7.36.81,3.56,1.31,7.32-.04,10.79Z"/>
            <path class="cls-6" d="M64.57,43.88c-.13-1.49-.76-3.57-.27-5.03-3.68-3.37-1.64-5.01,2.7-4.08-.06-1.67,2.17-1.92,3.46-.84.98-.14-1.92,10.44-1.69,10.28-1.7,1.12-2.96-.07-4.2-.33Z"/>
          </g>
          <g>
            <path class="cls-90" d="M71.74,83.95c-3.3.04-4.03-2.28-.86-2.93-1.43-.86-1.75-1.9-.86-2.93-.01-1.31.55-1.3,1.65-.08,2.22-.28,2.77,2.52,2.94,4.32,1.92-2.26,3.7-1.85,5.37,1.24-.12-2.84,1.09-2.51,3.29-.15.6-.23,1.29.24,2.08,1.39-2.53,3.85-8.83.88-13.59-.85Z"/>
            <path class="cls-101" d="M82.82,81.95c1.21.38,1.33.87.43,1.47-1.01.21-2.32-.13-3.29.15-4.02-.34-4-5.45-2.04-7.36.56-.09,1.5-.05,2.1.08.95-2.63,2.4-1.96,2.47,1.05.77.38.87.76.27,1.12-.21.84-.19,2.01.06,3.5Z"/>
            <path class="cls-97" d="M84.82,77.4c-.51,1.33-1.29,1.31-2.33-.07-.81-.31-1.62-.86-2.47-1.05-.22-1.17-2.13-3.36-.16-4.36,2.18-1.11,3.63,1.03,4.68,2.4.64.84.9,1.91.27,3.07Z"/>
            <path class="cls-4" d="M77.92,76.21c-.35,2.61-1.34,3.16-2.97,1.65-1.21.64-1.87.1-2.08-1.39-1.45-1.17-.94-3.03.97-2.84.97-.16,2.56-.52,3.57.42.57.53.3,1.64.5,2.15Z"/>
            <path class="cls-99" d="M73.23,72c-2.99-.55-2.61-1.38-.86-2.93.5-.12,1.13.01,1.65-.08.66.16,2.93-.06,3.47.62,1.23,1.57-.29,2.7-1.58,2.33-.58-.16-1.67-.17-2.67.05Z"/>
            <path class="cls-57" d="M72.87,76.47c2.06,1.64,1.45,2.49-1.21,1.54-2.82-2.49-3-8.07,1.57-6.01.27.53.39,1.1.62,1.64l-.97,2.84Z"/>
            <path class="cls-84" d="M86.11,81.8c-.09,1.3-.65,1.31-1.65.08-1.8-.44-2.89-2.31-1.71-3.42-.75-.49-1.23-.78-.27-1.12.79.11,1.57.13,2.33.07l.43,1.47c.4.96.38,1.99.86,2.93Z"/>
            <path class="cls-36" d="M85.33,84.81c-1.39-.79-1.89-2.21-.86-2.93l1.65-.08c.78,1.53-.16,2.05-.78,3.01Z"/>
            <path class="cls-2" d="M85.25,78.87c-.2-.48-.26-.98-.43-1.47,1.1.54,1.89,1.42.43,1.47Z"/>
            <path class="cls-18" d="M79.96,83.57c-2.18.63-3.53-.17-5.37-1.24-1.02-1.75-1.57-3.87.35-4.47.92-.61,1.73-1.46,2.97-1.65.78,2-.45,5.55,2.04,7.36Z"/>
            <path class="cls-89" d="M74.6,82.33c-2.15-1.25-2.34-2.27-2.94-4.32.64-.3,1.01-.95,1.21-1.54.73.41,1.43.87,2.08,1.39.57,1.6,1.05,3.49-.35,4.47Z"/>
            <path class="cls-9" d="M85.33,84.81c-1,.32-1.6-.66-2.08-1.39l-.43-1.47c.09-1.3.65-1.31,1.65-.08l.86,2.93Z"/>
            <path class="cls-71" d="M84.47,81.87l-1.65.08c-.73-.7-1.85-1.51-1.9-2.14-.08-1.12.49-2.4,1.84-1.36.62,1.11,1.37,2.27,1.71,3.42Z"/>
          </g>
        </g>
      </g>
    </g>
    <g id="front-leg">
      <path class="cls-103" d="M45.03,67.93c1.47-2.53,5.72-3.04,7.27-6.52,1.55-3.48-2.35-10.16-4.87-13.34s-6.51-6.57-9.75-6.74-7.79,4.27-9.15,6.04-3.91,11.43-.39,16.44,10.74,7.37,12.9,6.92,3.98-2.79,3.98-2.79Z"/>
      <g>
        <path class="cls-19" d="M30.26,140.4c-1.05-.78-1.32-3.04-4.04-4.8-2.72-1.76-2.19-2.96-2.02-3.69s.88-3.75,1.1-5.37-1.89-3.18-3.06-2.84-3.74,3.83-6.35,4.87-8.48,9.39-7.67,10.15,5.11,2.71,8.1,3.91c2.99,1.2,11.21,2.32,12.49,1.77,1.28-.54,3.21-1.27,2.88-1.83s-1.44-2.16-1.44-2.16Z"/>
        <path class="cls-54" d="M17.07,118.32c1.1-.96,1.85-.31,1.99,1,3.47,2.54,3.3,6.46-.51,11.78l.4,2.13c.52.07,1.03.28,1.53.43.74,3.79-5.33,2.5-7.62.12-.69,1.41-1.2,1.27-1.55-.3-1.37-.8-1.28-1.42.29-1.86-3.8-.41-.25-9.42,1.13-12.84.2-.48.75-.84,1.41-1.16,1.16-2.23,1.97-1.47,2.94.68Z"/>
        <path class="cls-20" d="M7.26,137.16c1.98-2.64,5.82-1.9,5.12,1.67,1.76.51,3.49,1.8,5.38,1.87,1.47.54,1.34,1-.27,1.41-.23,2-2.06,2.51-3.84,2.47-3.4-3.14-8.45-4.45-13.22-4.63l.57-1.97c-.29-1.58.5-1.92,2.17-1.25.95-4.7,3.39-4.22,4.09.43Z"/>
        <path class="cls-104" d="M34.71,147.9c-.78.53-1.4.36-1.88-.45-5.25-2-10.36-3.78-15.33-5.34l.27-1.41c4.41.16,8.67,3,13.08.96l1.7.41c.86.95,3.1.81,3.99,2.47.83,1.55-.83,2-1.84,3.36Z"/>
        <path class="cls-21" d="M25.39,122.63c0,2.63-.9,5.79-3.6,6.21-1.73.87-2.6,2.6-2.84,4.4-4.35-.61,2.51-8.18.12-13.91,2.53-.42,7.92.29,6.33,3.3Z"/>
        <path class="cls-86" d="M32.83,147.45c-5.06-.61-10.32-1.29-15.78-2.05l-3.4-.82c.78-.76,2.44-2.98,3.84-2.47,5.1,1.82,12.37.73,15.33,5.34Z"/>
        <path class="cls-3" d="M32.83,147.45l1.88.45c-.74,1-2.02,1.36-3.97.88l-13.69-3.38c.27-1.38,2.01-1.31,3.8-.87l11.98,2.92Z"/>
        <path class="cls-87" d="M12.85,133.8c1.78.73,2.27,1.58,1.47,2.56-.36,1-1.08,1.82-1.94,2.47-1.72-.5-3.34-1.49-5.12-1.67-4.15-3.81-.09-6.75,4.04-3.67l1.55.3Z"/>
        <path class="cls-98" d="M21.79,128.84c.71-2.3,1.76-4.54,3.6-6.21l1.7.41-2.41,8.14c-2.22.03-3.55-.68-2.89-2.34Z"/>
        <path class="cls-107" d="M32.55,142.07l-1.7-.41c-1.09-.14-5.6-.86-4.64-3.01,2.68-3.55,4.87,1.8,6.34,3.42Z"/>
        <path class="cls-95" d="M14.32,136.36c-.55-.82-1.05-1.67-1.47-2.56,2.49.48,5.7,2.3,7.62-.12,1.61.49,1.66,1.87.59,3.67l-6.74-.98Z"/>
        <path class="cls-23" d="M14.13,117.64c.79,4.99-3.99,9.11-2.54,14-4.03,3.46-5.99,3.39-5.98-2.02,4.84-3.37,6.49-8.6,5.21-14.06,1.24.48,2.42,1.12,3.31,2.08Z"/>
        <path class="cls-22" d="M11.59,131.64c.17.56-.36,1.27-.29,1.86-2.07.21-3.51,1.78-4.04,3.67l-4.09-.43c-2.78-.4-2.12-3.41-.3-5.51.91-.31,1.95-1.06,2.74-1.61,1.89.92,3.9,1.6,5.98,2.02Z"/>
        <path class="cls-46" d="M3.17,136.73c-.7.46-1.43.87-2.17,1.25-.77-.93-1.07-2.08-.98-3.13.16-1.9,1.18-3.05,2.86-3.62-.22,1.85-.19,3.72.3,5.51Z"/>
        <path class="cls-19" d="M25.88,126.18c.6-1.05,1.65-3.75,1.25-6.1s-3.21-4.65-5.57-5.67-6.07-1.66-7.34-.89-2.38,1.13-2.59,2.03-.21,2.75.49,4.16,10.09,6.58,11.49,6.51,2.28-.05,2.28-.05Z"/>
      </g>
      <g>
        <path class="cls-103" d="M33.65,47.93c1.28-1,1.53-.67.84.87,2.45,2.08,3.31,3.66,2.59,4.74,2.56,2.66,4.9,5.3,7.01,7.91,2.48-2.82,6.33-.27,4.07,3.31-.74.84-1.6,1.71-2.17,2.68-.33-4.21-5.38-3.89-8.31-5.99l-2,1.35c-2.62-2.01-5.14-1.68-7.55,1.01-4.73,3.91-9.87,7.28-6.54-.64-.91-.36-1.66-.77-1.83-1.34-.72-2.33,7.99-14.01,10.59-16.33,4.02-3.06,4.9-2.12,3.29,2.44Z"/>
        <g>
          <path class="cls-12" d="M33.53,115.35c-8.67,6.42-12.07-6.94-2.75-7.05-6.57-4.48-5.27-9.35,3.9-14.61-2.86-4.51-2.35-6.97,1.52-7.36,3.28-3.35,4.33-7.78,3.13-13.27l4.41-.81c2.86,2.74,0,7.53,1.06,10.85,2.49,7.8,1.63,12.69-2.14,19.75-2.58,4.84-3.48,10.42-9.12,12.49Z"/>
          <path class="cls-102" d="M46,67.44c-.88,1.51-1.19,3.4-2.26,4.82-4.32,5.74,2.89,9.72-2.52,12.91-1.32.78-2.83,2.43-5.02,1.17-4.11.08-5.82-3.52-5.12-10.81-11.75-7.71-2.27-10.62,5.67-8.85-4.27-2.3-3.86-4.51.95-5.23,2.49-2.33,10.28,2.66,8.31,5.99Z"/>
          <path class="cls-69" d="M30.78,108.3c-.51,1.43-2.47,4.24-1.8,6.27.38,1.15,3.35,0,4.55.78-1.31.55-1.96,2.88-2.96,3.86-5.96,5.47-8.8,3.11-11.87-3.29-5.9-3.14-.3-12.12,5.25-13.16l2.31-.7c.58,2.22,2.09,4.3,4.53,6.24Z"/>
          <path class="cls-76" d="M36.75,66.67c.56,4.8-6.17-1.02-8.69,1.41-2.1,4.47,5.01,2.42,5.7,3.98,1.92,4.33.36,10.26,2.45,14.27-1.04,2.39,2.43,6.52-1.52,7.36-1.84,2.74-2.94,2.05-2.07-1.21-4.29,2.8-7.72.11-7.44-4.52-.3-.99-.71-1.96-1.49-2.68-3.29-1.02-1.93-3.16.78-4.65-6.96-2.52-4.57-16.41,3.68-16.83,2.36-4.97,8.95-1.97,8.6,2.88Z"/>
          <path class="cls-62" d="M32.61,92.48c2.21,2.82.52,5.28-5.07,7.39-1.03,2.94-2.22,3.9-3.59,2.88-2.48,2.38-3.83,2.92-3.93-.83-1.3-5.93,6.52-9.11,5.16-13.96,3.01.66,4.91,3.05,7.44,4.52Z"/>
          <path class="cls-73" d="M18.7,115.92l-.95,1.11-2.36-1.88c-1.71,1.38-2.41.28-2.09-3.3.87-4.01,3.8-7.02,6.72-9.91l3.93.83c-2.47,4.23-7.21,7.32-5.25,13.16Z"/>
          <path class="cls-32" d="M30.78,108.3c-2.93-1-5.27-2.99-6.83-5.55,2.34-4,5.36-6.73,8.66-10.27l2.07,1.21c-.83,2.27,2.62,3.01,2.15,6.26-2.91,1.03-4.81-2.25-6.14-.8-.75.81-3.62,2.01-3.34,3.12.68,2.67,4.24,3.79,3.43,6.04Z"/>
        </g>
        <path class="cls-82" d="M37.7,61.44c-.05,1.78-.4,3.53-.95,5.23-2.62-1.49-5.64-2.19-8.6-2.88.61-2.47.13-5.09.11-8.72,5.16,0,6.51,4.25,9.44,6.36Z"/>
        <path class="cls-79" d="M44.28,59.18c.54.72.43,1.64-.18,2.28-2.92-2.37-6.33-4.17-7.01-7.91l7.19,5.63Z"/>
      </g>
      <path class="cls-11" d="M24.77,125.59c-1.38.81-1.82.43-1.36-1.1l-4.29-5.7-1.37-1.76c-1-1.19-.65-1.54.95-1.11,1.43,1.28,3.47,3.83,5.95,4.78,1.66.63,3.59-1.19,5.92-1.49-2.07,2-3.88,4.25-5.8,6.38Z"/>
      <path class="cls-43" d="M45.26,57.97c.26.87-.01,1.31-.99,1.21-2.27.8-5.51-3.36-7.19-5.63-.25-1.39-3.77-2.59-2.59-4.74,1.17,1.61,3.47,1.28,5.01,2.01-1.24,3.35,3.59,5.01,5.76,7.16Z"/>
      <path class="cls-83" d="M49.31,63.47l-1.14,1.29-4.07-3.31c-1.02-1.19-1.36-1.75.18-2.28-.25-.89.06-1.3.99-1.21l3.18.52c.74.27,1.51.43,2.3.39,3.33.47,1.51,4.76-1.43,4.59Z"/>
    </g>
    <path class="cls-40" d="M53.89,23c.77,4-.81,10.19-2.77,13.97-3.77-2.62,2.57-11.49-.7-14.72-1.03-.76-.88-1.33.38-1.73.8-1.27,1.37-1.12,1.73.38,2.52-1.05,3.19-.07,1.36,2.11Z"/>
    <g id="shirt">
      <path class="cls-40" d="M33.91,23.42c1.35-2.02,6.15-7.59,9.4-8.33s10.95-1.24,11.31,1.27,2.81,5.73,4.24,6.03,5.89,1.29,7.34,1.37,3.43-1.33,3.76-.63,1.77,5.66,1.9,8.14c.13,2.48-8.31,21.51-9.69,25.04-1.37,3.54-9.53,11.1-10.96,11.97-1.43.87-9.97-4.17-11.92-6.7s-3.62-4.99-6.01-6.72-6.46-2.38-6.98-3.34,4.92-10.66,5.18-12.77c.26-2.11,2.12-10.79,1.85-12.04s0-2.44.58-3.3Z"/>
      <path class="cls-105" d="M53.86,40.3l-1.4-.6,5.73-13.04c1.11-1.2,1.63-.93,1.61.74l-5.94,12.89Z"/>
      <path class="cls-92" d="M50.13,22.96c1.03-1.14,2.91-.07,3.22,1.48,1.11-1.2,1.63-.93,1.61.74,2.04,1.96,1.32,5.81-2.17,11.55l-.33,2.98c.91-1.31,1.37-1.07,1.4.6.65.89.38,1.42-.74,1.61-6.41,2.46-24.02-4.9-21.02-13.74-.37-4.6,2.99-8.12,6.78-10.61,1.35-3.36,4.57-2.4,5.81.93,4.5-1.45,6-.28,5.44,4.46Z"/>
      <path class="cls-74" d="M46.1,60.31c.63,3.65-2.06,3.88-3.21.34-2.8.26-10.47-2.41-7.52-5.65,3.38-2.42,3.28-4.16-.3-5.21-1.83,1.43-3.87,2.73-6.13,3.9-1.51-.1-2.21-2.04-3.84-1.56-1.77-3.3,2.99-5.68,3.68-7.99.35-2.23,1.25-4.02,2.69-5.37,18.18,5.74,23.06,12.92,14.63,21.55Z"/>
      <path class="cls-38" d="M51.61,45.16c5.87-1.61,5.48,2.68,1.41,5.95,3.24,3.35,2.84,5.29-1.2,5.84-.35,2.74-.8,5.26-3.4,3.13.17,3.45-1.18,3.62-2.32.23.17-3.27,2.06-5.97,1.56-8.28-.83-3.83-4.14-6.09-7.23-7.86-4.61-2.65-8.25-3.16-11.65-.04-.03-3.68.19-7.47,1.19-11.16,6.07,4.76,13.05,8.17,20.96,10.24l.68,1.94Z"/>
      <path class="cls-29" d="M53.12,41.91c4.04,2.5,3.16,3.9-1.5,3.24-6.04-1.46-21.16-4.64-21.64-12.18.46-1.71.62-3.72,2.13-4.8-.13,7.1,18.54,13.64,21.02,13.74Z"/>
      <path class="cls-106" d="M35.37,55c-.6,2.9-3.91,1.46-5.38-.66-.37-.14-.67-.63-1.05-.65.52-2.11.81-4.72,2.47-6.39,1.07-1.07,3.9-1.54,5.98-.38,4.14,2.31,6.7,7.17,6.49,11.65-4.11-.33-5.88-3.09-8.51-3.57Z"/>
    </g>
    <path class="cls-94" d="M21.12,48.58c-.61-.66-.45-1.24.38-1.73l3.01-13.87c2.25,4.47.34,12.29-3.38,15.61Z"/>
    <g id="right_vest" data-name="right vest">
      <path class="cls-17" d="M75.83,31.05c1.65,2.19,5.21,4.51,2.73,7.68-2.49,3.17-1.52,5.27-4.32,7.91-2.8,2.65-6.83,8.77-7.71,9.79s-3.15-.45-4.14-2.82.22-12.69,2.73-14.21,10.71-8.35,10.71-8.35Z"/>
      <g>
        <path class="cls-65" d="M67.58,54.67c-1.97,4.24-4.41,8.11-7.3,11.6l-.97-.51c-5.55,2.12-4.87-9.03,0-9.51.51-2.34,1.08-4.86,3.7-4.5-4.85-3.64-2.64-6.88,2.76-4.5.82-.79-1.76-3.61-.7-4.82.46-.53-.07-4.28.85-5.24s3.33.86,3.08,1.54c-1.82,4.9-1.97,17.08-1.43,15.93Z"/>
        <path class="cls-77" d="M59.98,50.51c1.2,1.44.97,3.35-.67,5.74.72,3.34-2.42,6.69,0,9.51-1.63,2.97-5.27,4.45-7.58,2.64-1.25-3.62-.62-7.87,1.07-11.24-.64-1.92,1.17-4.02,1.2-5.84l1.53-.18c-1.03-8.53,9.55-6.63,4.46-.63Z"/>
        <path class="cls-56" d="M51.73,68.41c-1.02-.8-1.54-2.19-2.45-3.1.71-1.54.77-3.4.12-5.02l3.4-3.13c1.25,3.76-.35,7.47-1.07,11.24Z"/>
        <path class="cls-1" d="M56.45,41.26c1.33,3.6-.1,4.12-2.35.87l.74-1.61c.47-4.11,2.99-9.91,5.94-12.89,1.11-1.2,1.63-.93,1.61.74.8.63,1.39,1.18,1.28,1.46-.91,2.37-4.43,8.37-5.96,10.8-.22.34-.7.52-1.26.64Z"/>
        <path class="cls-33" d="M79.17,34.33c-3.97-1.84-7.71,1.9-10.09,4.93l-3.22-1.48c-.84-.96-.57-1.49.74-1.61-1.2-1.11-.93-1.63.74-1.61,3.69-2.85,3.83-3.33,2.97-6.45-1.97,2.39-3.18,3.63-3.97.13-4.14-2.28-3.64-3.36,1.48-3.22.29-1.62,1.08-1.91,2.35-.87,2.59,3.83,7.41,5.62,8.98,10.19Z"/>
        <path class="cls-41" d="M65.86,37.78l-.74,1.61-1.23,3.34c-1.14,3.25-2.39,2.68-1.86-.86-2.75-1.14.09-6.55,2.97-6.45,1.11-1.2,1.63-.93,1.61.74l-.74,1.61Z"/>
        <path class="cls-67" d="M65.76,47.25c-1.95.58-2.42,2.69-2.76,4.5-1.9,2.74-3.7,2.21-3.02-1.24-.48-2.8-1.59-3.31-2.69-.56-.1,1.36-.45,2.57-.81,3.85-.15.54-1.45,1.17-1.63-.56-.06-.64-.42-1.36-.86-1.92.03-2.03-.17-4.34-1.41-5.95l1.5-3.24c.83.03,1.92.07,2.35-.87,1.05-1.23,1.57-.95,1.61.74,1.67-2.44,2.94-3.2,3.97-.13l1.86.86c1.65.76,1.1,3.23,1.88,4.52Z"/>
        <path class="cls-108" d="M63.01,51.76c-.8,1.81-1.96,3.48-3.7,4.5-.43-1.99-.88-3.91.67-5.74l3.02,1.24Z"/>
        <path class="cls-49" d="M65.61,29.85c2.4,1.15,1.16,3.69-1.48,3.22-.94,3.97-2.96,6.95-6.06,8.93-.56-.16-1.06-.55-1.61-.74l5.94-12.89,3.22,1.48Z"/>
        <path class="cls-27" d="M67.35,34.56l-.74,1.61-1.61-.74c-1.68.03-1.88-.81-.87-2.35l1.48-3.22.74-1.61c1.32-.11,2.64-.2,3.97-.13,2.55,1.7-.15,5.56-2.97,6.45Z"/>
        <path class="cls-17" d="M67.35,34.56l2.97-6.45c3.34.2,3.21,3.21,1.4,5.36-.81.96-2.79,1.07-4.37,1.09Z"/>
        <path class="cls-26" d="M64.99,35.43l-2.97,6.45c-1.27.46-2.66.49-3.97.13,1.53-3.33,2.37-7.49,6.06-8.93.33.77.62,1.55.87,2.35Z"/>
      </g>
    </g>
    <g id="head">
      <g>
        <path class="cls-28" d="M65.37,28.02c1.2,1.11.93,1.63-.74,1.61-2.17,3.46-3.97,2.53-3.22-1.48l-1.61-.74-1.61-.74-.87-2.35c-1.02-.76-.21-2.22.99-2.65,1.97,1.31,3.46,1.28,5.77,1.53.82.09,2.53.65,3.38.48l-2.08,4.35Z"/>
        <g id="hair">
          <path class="cls-28" d="M85.72,7.58c3.17,1.81,3.1,4.01.4,6.28,1.39,2.74-1.31,4.66-3.16,2.08-3.24,3.73-7.03-.46-3.85-3.67-2.24-.45-4.19-1.88-5.86-4.3-6.99.18-6.1-1.12-1.18-4.88l.92-1.52c4.66-.15,10.03,2.5,12.72,6Z"/>
          <path class="cls-28" d="M91.06,9.1c.15,3.2,4.51,11.29.46,14.65-1.15.95-3.35-1.24-4.35-.77-3.47.23-5.06-1.3-2.09-3.67-1.37-1.01-.77-2.24,1.81-3.69l-.76-1.75c-1.78-1.59-1.52-4.31-.4-6.28-.71-1.54-.21-1.96,1.44-1.33-1.13-1.11-.79-1.46.87-1.12,1.11.89,2,3.03,3.04,3.97Z"/>
          <path class="cls-28" d="M87.16,6.25c-.39.5-1.13.78-1.44,1.33l-12.72-6,4.88-1.19c3.59.5,7.51,2.88,9.28,5.86Z"/>
          <path class="cls-28" d="M73.26,7.98c-.03,4.02-5.01,4.85-7.63,2.1-1.51-3.84,3.46-5.63,6.46-6.98-.42.61-1,1.39-1.07,2.28-.1,1.24,1.18,2.13,2.24,2.6Z"/>
          <path class="cls-28" d="M88.03,5.13l-.87,1.12L77.88.39c3.71-1.68,7.3,2.46,10.15,4.74Z"/>
          <path class="cls-28" d="M87.17,22.97c-1.88.93-4.36,1.1-6.38-.05l2.77-4.55c1.24-1.06,1.73-.73,1.52.92.37,1.39,1.13,2.62,2.09,3.67Z"/>
          <path class="cls-28" d="M85.07,19.3l-1.52-.92-.59-2.44c1.47.28,2.52-.88,3.16-2.08.66-.08,1.57-.64,2.16-.68.81-.05,2.32,1.2,1.16,2.46-1.64,1.79-3.58,2.19-4.37,3.66Z"/>
        </g>
        <g id="face">
          <path class="cls-28" d="M66.26,12.28c-.41,5.08-1.76,10.14-7.68,9.6.99,1.29.68,1.79-.92,1.52-2.04-1.24-3.88-2.86-4.89-5.05-2.78-2.76-1.03-4.57,5.24-5.44,2.51-.3,5.18-2.08,7.61-2.83,1.74,0,1.87.76.63,2.2Z"/>
          <path class="cls-28" d="M82.96,15.94c3.35-.71,3.62.61.59,2.44,2.23,2.92.77,4.87-2.77,4.55-1.04-.03-2.75,1.05-3.93.28-2.77-2.23-4.69-4.98-5.76-8.25-4.3-4.84,5.46-6.74,8.02-2.69.46,1.81,2.39,2.76,3.85,3.67Z"/>
          <path class="cls-28" d="M76.86,23.2c-.37.92.22,2.39-.35,3.35-.78.29-1.6.53-2.44.59-2.79,3.66-8.27.59-8.62-3.58-1.13-1.13-.81-1.55.85-1.32,1.65-5.67,10.18-4.61,10.56.96Z"/>
          <path class="cls-28" d="M79.11,12.27c-3.03-.41-6.43-.25-8.02,2.69-1.33,1.03-1.8.65-1.45-1.05-3.29,3.49-4.42,2.95-3.4-1.62-.14-.75-.35-1.49-.63-2.2,2.49-.76,4.83-2.26,7.63-2.1,1.56.09,3.26.44,4.62,1.06,1.41.64.95,2.14,1.23,3.24Z"/>
          <path class="cls-28" d="M69.65,13.9c1.32,3.47,1.32,8.14-3.36,8.34l-.85,1.32c-.84,1.16-1.27.81-1.36-.79-.48-.21-1.04-.49-1.55-.57l-2.44.59-1.52-.92c2.86-2.95,5.15-6.37,7.68-9.6l3.4,1.62Z"/>
          <path class="cls-28" d="M76.86,23.2c-3.2-2.08-6.96-.52-10.56-.96.53-3.22-.3-7.28,3.36-8.34.52.25.9.89,1.45,1.05,1.95.6,3.89,1.33,5.52,2.79,1.67,1.5,1.2,3.51.24,5.45Z"/>
        </g>
        <path class="cls-28" d="M61.61,23.73l-1.52-.92c.73-.38,1.59-.73,2.44-.59l-.92,1.52Z"/>
        <path class="cls-28" d="M64.65,25.57l-1.52-.92.96-1.87c.45.2.98.47,1.36.79l-.8,2.01Z"/>
        <path class="cls-28" d="M61.61,23.73c.73,1.05.4,1.55-.92,1.52l-3.03-1.84c.37-.45.52-1.1.92-1.52,1.24-1.06,1.73-.73,1.52.92l1.52.92Z"/>
        <path class="cls-28" d="M63.13,24.65l-.92,1.52-1.52-.92.92-1.52c-.41-.89-.08-1.38.92-1.52.92-1.4,1.43-1.17,1.55.57,1.28.61.5,1.46-.96,1.87Z"/>
      </g>
      <g>
        <path class="cls-33" d="M65.37,28.02c1.2,1.11.93,1.63-.74,1.61-2.17,3.46-3.97,2.53-3.22-1.48l-1.61-.74-1.61-.74-.87-2.35c-1.02-.76-.21-2.22.99-2.65,1.97,1.31,3.46,1.28,5.77,1.53.82.09,2.53.65,3.38.48l-2.08,4.35Z"/>
        <g id="hair-2" data-name="hair">
          <path class="cls-70" d="M85.72,7.58c3.17,1.81,3.1,4.01.4,6.28,1.39,2.74-1.31,4.66-3.16,2.08-3.24,3.73-7.03-.46-3.85-3.67-2.24-.45-4.19-1.88-5.86-4.3-6.99.18-6.1-1.12-1.18-4.88l.92-1.52c4.66-.15,10.03,2.5,12.72,6Z"/>
          <path class="cls-55" d="M91.06,9.1c.15,3.2,4.51,11.29.46,14.65-1.15.95-3.35-1.24-4.35-.77-3.47.23-5.06-1.3-2.09-3.67-1.37-1.01-.77-2.24,1.81-3.69l-.76-1.75c-1.78-1.59-1.52-4.31-.4-6.28-.71-1.54-.21-1.96,1.44-1.33-1.13-1.11-.79-1.46.87-1.12,1.11.89,2,3.03,3.04,3.97Z"/>
          <path class="cls-53" d="M87.16,6.25c-.39.5-1.13.78-1.44,1.33l-12.72-6,4.88-1.19c3.59.5,7.51,2.88,9.28,5.86Z"/>
          <path class="cls-45" d="M73.26,7.98c-.03,4.02-5.01,4.85-7.63,2.1-1.51-3.84,3.46-5.63,6.46-6.98-.42.61-1,1.39-1.07,2.28-.1,1.24,1.18,2.13,2.24,2.6Z"/>
          <path class="cls-80" d="M88.03,5.13l-.87,1.12L77.88.39c3.71-1.68,7.3,2.46,10.15,4.74Z"/>
          <path class="cls-68" d="M87.17,22.97c-1.88.93-4.36,1.1-6.38-.05l2.77-4.55c1.24-1.06,1.73-.73,1.52.92.37,1.39,1.13,2.62,2.09,3.67Z"/>
          <path class="cls-13" d="M85.07,19.3l-1.52-.92-.59-2.44c1.47.28,2.52-.88,3.16-2.08.66-.08,1.57-.64,2.16-.68.81-.05,2.32,1.2,1.16,2.46-1.64,1.79-3.58,2.19-4.37,3.66Z"/>
        </g>
        <g id="face-2" data-name="face">
          <path class="cls-59" d="M66.26,12.28c-.41,5.08-1.76,10.14-7.68,9.6.99,1.29.68,1.79-.92,1.52-2.04-1.24-3.88-2.86-4.89-5.05-2.78-2.76-1.03-4.57,5.24-5.44,2.51-.3,5.18-2.08,7.61-2.83,1.74,0,1.87.76.63,2.2Z"/>
          <path class="cls-51" d="M82.96,15.94c3.35-.71,3.62.61.59,2.44,2.23,2.92.77,4.87-2.77,4.55-1.04-.03-2.75,1.05-3.93.28-2.77-2.23-4.69-4.98-5.76-8.25-4.3-4.84,5.46-6.74,8.02-2.69.46,1.81,2.39,2.76,3.85,3.67Z"/>
          <path class="cls-14" d="M76.86,23.2c-.37.92.22,2.39-.35,3.35-.78.29-1.6.53-2.44.59-2.79,3.66-8.27.59-8.62-3.58-1.13-1.13-.81-1.55.85-1.32,1.65-5.67,10.18-4.61,10.56.96Z"/>
          <path class="cls-100" d="M79.11,12.27c-3.03-.41-6.43-.25-8.02,2.69-1.33,1.03-1.8.65-1.45-1.05-3.29,3.49-4.42,2.95-3.4-1.62-.14-.75-.35-1.49-.63-2.2,2.49-.76,4.83-2.26,7.63-2.1,1.56.09,3.26.44,4.62,1.06,1.41.64.95,2.14,1.23,3.24Z"/>
          <path class="cls-8" d="M69.65,13.9c1.32,3.47,1.32,8.14-3.36,8.34l-.85,1.32c-.84,1.16-1.27.81-1.36-.79-.48-.21-1.04-.49-1.55-.57l-2.44.59-1.52-.92c2.86-2.95,5.15-6.37,7.68-9.6l3.4,1.62Z"/>
          <path class="cls-52" d="M76.86,23.2c-3.2-2.08-6.96-.52-10.56-.96.53-3.22-.3-7.28,3.36-8.34.52.25.9.89,1.45,1.05,1.95.6,3.89,1.33,5.52,2.79,1.67,1.5,1.2,3.51.24,5.45Z"/>
        </g>
        <path class="cls-50" d="M61.61,23.73l-1.52-.92c.73-.38,1.59-.73,2.44-.59l-.92,1.52Z"/>
        <path class="cls-35" d="M64.65,25.57l-1.52-.92.96-1.87c.45.2.98.47,1.36.79l-.8,2.01Z"/>
        <path class="cls-85" d="M61.61,23.73c.73,1.05.4,1.55-.92,1.52l-3.03-1.84c.37-.45.52-1.1.92-1.52,1.24-1.06,1.73-.73,1.52.92l1.52.92Z"/>
        <path class="cls-28" d="M63.13,24.65l-.92,1.52-1.52-.92.92-1.52c-.41-.89-.08-1.38.92-1.52.92-1.4,1.43-1.17,1.55.57,1.28.61.5,1.46-.96,1.87Z"/>
      </g>
    </g>
    <g id="front-arm">
      <path class="cls-99" d="M21.38,23.16c.39-1.69,3.52-5.09,6.12-6.26s4.52-3.96,8.1-3.19,8.55,1.59,10.25,3.77,3.25,8.52,0,11.08-7.5,4.14-10.15,5.01-15.18,2.8-15.5-.53c-.32-3.33,1.19-9.89,1.19-9.89Z"/>
      <path class="cls-24" d="M21.38,23.16c.78-1.15,1.87-4.88,3.76-5.71,1.89-.83,6.7-2.86,8.04-3.44,1.34-.58,1.98-.55,2.51.82s1.17,3.73-.05,6.22c-1.22,2.49-2.64,5.99-5.55,5.44s-4.87-.71-6.65-1.43-2.06-1.9-2.06-1.9Z"/>
      <g>
        <g>
          <path class="cls-81" d="M17.52,38.04c-2.59-.26-4.35.44-5.25,2.12-1.19,2.52-1.97,6.73-.15,8.46-1.92.31-4.03,1.73-4.18,3.58,5.72,1.75,10.59-3.21,14.77-6.82,3.47-1.78,7.52-5.13,9.28-8.39,1.39-3.87,2.3-7.61,2.73-11.24.63-1.11.26-1.58-1.06-1.43-2.07-2.25-4.62-.83-2.85,2.11-3.34-1.86-6.02-.48-8.04,4.14-2.4.57-4.61,4.82-5.25,7.46Z"/>
          <path class="cls-42" d="M19.93,23.67c-.16,1.29-1.61,2.33-2.07,3.5.46.34.72,1.05,1.22,1.32-.73,4.71.5,5.41,3.68,2.08,3.63,2.08,5.32-2.12,8.04-4.14.95-2.09-.82-3.73-5.33-4.92-.68-4.28-3.72-.92-5.55,2.15Z"/>
          <path class="cls-91" d="M18.71,30.97c-6.96,6.8-7.35,9.16-1.19,7.06,2.21-1.58,5.65-.82,7.97-3.46-.07-.98-1.83-1.13-2.45-1.65-.57-.47-.63-1.35-.28-2.36-1.18-.77-2.45-1.4-3.68-2.08-.11.83-.35,1.65-.37,2.48Z"/>
          <path class="cls-24" d="M11.21,38.73c-1.09,1.21-.68,1.66,1.06,1.43.89-.31,2.07,0,3.34.11,1.28.1,1.87-.79,1.91-2.23-.85-.64-2.16-.11-3.41-1.27,2.57-2.12,4.53-3.36,4.6-5.79-3.06,1.99-6.05,4.33-7.5,7.76Z"/>
          <path class="cls-6" d="M31.99,36.99c1.13-.98,3.03-2.03,3.7-3.41,4.99.15,4.67-2.45.91-4.81,1.21-1.15-.22-2.89-1.89-3.02-.6-.79-5.9,8.82-5.96,8.54.44,1.98,2.17,2.02,3.24,2.69Z"/>
        </g>
        <g>
          <path class="cls-90" d="M4.61,50.14c-2.79.13-2.81,2.36.03,2.81-.98.89-.99,1.89.03,2.81.33,1.24.8,1.2,1.4-.01,1.94.14,1.68-2.52,1.37-4.23,2.19,2.03,3.59,1.55,4.2-1.44.63,2.69,1.56,2.31,2.81-.03.56.18,1.03-.29,1.39-1.42-3.11-3.5-7.66-.38-11.22,1.51Z"/>
          <path class="cls-101" d="M14.45,51.46c.92-.42.9-.89-.01-1.4-.9-.15-1.92.24-2.81.03-3.29.53-1.97,5.34.17,7.05.5.05,1.27-.03,1.75-.18,1.48,2.43,2.52,1.72,1.81-1.12.55-.4.54-.76-.06-1.07-.39-.78-.68-1.88-.84-3.3Z"/>
          <path class="cls-97" d="M17.3,55.64c-.77-1.23-1.42-1.17-1.94.18-.61.33-1.14.9-1.81,1.12.11,1.12-.93,3.27.99,4.12,2.12.93,2.79-1.16,3.33-2.51.33-.82.26-1.85-.56-2.91Z"/>
          <path class="cls-4" d="M11.8,57.13c-.96-2.45-1.93-2.91-2.92-1.41-1.18-.54-1.6,0-1.39,1.42-.92,1.18-.02,2.91,1.55,2.62.85.1,2.29.36,2.9-.58.34-.53-.17-1.56-.13-2.06Z"/>
          <path class="cls-99" d="M8.93,61.34c-2.38.67-1.84,1.44.03,2.81.45.09.95-.07,1.4-.01.52-.18,2.48-.09,2.76-.77.63-1.54-.93-2.53-1.93-2.12-.45.19-1.36.25-2.26.09Z"/>
          <path class="cls-57" d="M7.48,57.14c1.31-1.65.59-2.42-1.42-1.39-1.73,2.5-.46,7.76,2.86,5.59.09-.52.04-1.05.1-1.57l-1.55-2.62Z"/>
          <path class="cls-84" d="M17.26,51.43c-.41-1.22-.88-1.2-1.4.01-1.41.5-1.84,2.33-.56,3.32-.51.5-.84.8.06,1.07.64-.14,1.29-.2,1.94-.18v-1.4c.08-.92-.2-1.9-.04-2.81Z"/>
          <path class="cls-36" d="M15.83,48.64c-.97.81-1.03,2.19.03,2.81h1.4c.26-1.5-.66-1.94-1.43-2.81Z"/>
          <path class="cls-2" d="M17.29,54.24c-.05.46.03.94.01,1.4.79-.57,1.22-1.44-.01-1.4Z"/>
          <path class="cls-18" d="M11.63,50.08c-2-.48-2.93.34-4.2,1.44-.41,1.7-.33,3.73,1.44,4.2.93.52,1.83,1.29,2.92,1.41.14-1.92-1.8-5.21-.17-7.05Z"/>
          <path class="cls-89" d="M7.43,51.52c-1.49,1.29-1.39,2.26-1.37,4.23.61.25,1.09.84,1.42,1.39.51-.42.98-.9,1.39-1.42.07-1.54-.01-3.35-1.44-4.2Z"/>
          <path class="cls-9" d="M15.83,48.64c-.93-.25-1.18.7-1.39,1.42v1.4c.42,1.22.89,1.2,1.42-.01l-.03-2.81Z"/>
          <path class="cls-71" d="M15.86,51.44h-1.4c-.44.71-1.17,1.53-1.05,2.13.22,1.06,1.03,2.24,1.89,1.19.24-1.08.57-2.21.56-3.32Z"/>
        </g>
      </g>
    </g>
    <g id="left-vest">
      <path class="cls-10" d="M23.21,43.77c-1.77,2.55-3.54,4.99-5.32,7.32-6.34,3.85,12.81-25.63,11.26-20.21-.72,4.59-2.34,9.7-5.94,12.89Z"/>
      <path class="cls-31" d="M47.85,12.79c.97-.2,1.92-.07,2.73.37,1.67.9,4.3,2.44,3.87,3.01-.49.66-2.55,6.34-4.32,6.79-2.78.7-5.59-3.88-6.23-2.74-2.08.29-4.12.16-5.98-.56-.13-.98-.46-1.87-.95-2.63l1.5-3.43c2.36.47,7.02-.34,9.38-.81Z"/>
      <path class="cls-60" d="M19.4,48.85c-1.41,2.75-.66,8.62-4.93,8.07,1.42-3.54,1.18-9.37,5.62-10.26-.23.72-.34,1.52-.69,2.19Z"/>
      <path class="cls-49" d="M49.33,22.59c-1.75-5.23-1.34-6.95-5.64-7.03-4.3-.08-17.61,15.18-20.11,21.37-2.5,6.19-8.53,17.75-7.92,18.86s2.07,2.84,8.27,1.16c6.2-1.68,4.19-5.88,12.75-15.8,8.56-9.91,12.65-18.57,12.65-18.57Z"/>
      <path class="cls-26" d="M33.94,24.83c.46-1.11-.39-1.8.56-4.48s.65-7.4,2.05-7.99c1.4-.59,3.12-1.12,4.49.03,1.37,1.16,1.62,4.27.71,6.02s-5.58,6.96-6.54,7.44-4.82,2.28-4.35.54c.48-1.75,2.23-1.38,2.31-1.63s.77.07.77.07Z"/>
    </g>
  </g>
</svg>