<?xml version="1.0" encoding="UTF-8"?>
<svg id="Enemy" xmlns="http://www.w3.org/2000/svg" viewBox="0 0 96.74 158.28">
  <defs>
    <style>
      .cls-1 {
        fill: #a5670b;
      }

      .cls-2 {
        fill: #39434c;
      }

      .cls-3 {
        fill: #161c1f;
      }

      .cls-4 {
        fill: #d98654;
      }

      .cls-5 {
        fill: #151e35;
      }

      .cls-6 {
        fill: #f7a97c;
      }

      .cls-7 {
        fill: #0a0c15;
      }

      .cls-8 {
        fill: #b46242;
      }

      .cls-9 {
        fill: #9c3e0a;
      }

      .cls-10 {
        fill: #683e07;
      }

      .cls-11 {
        fill: #0a0e15;
      }

      .cls-12 {
        fill: #3b3e4a;
      }

      .cls-13 {
        fill: #0d8b11;
      }

      .cls-14 {
        fill: #f7af80;
      }

      .cls-15 {
        fill: #2e333c;
      }

      .cls-16 {
        fill: #21201b;
      }

      .cls-17 {
        fill: #f8cc49;
      }

      .cls-18 {
        fill: #a65124;
      }

      .cls-19 {
        fill: #08090f;
      }

      .cls-20 {
        fill: #1d1a19;
      }

      .cls-21 {
        fill: #101d38;
      }

      .cls-22 {
        fill: #6e7379;
      }

      .cls-23 {
        fill: #18202a;
      }

      .cls-24 {
        fill: #d29669;
      }

      .cls-25 {
        fill: #232c34;
      }

      .cls-26 {
        fill: #b78024;
      }

      .cls-27 {
        fill: #b47d24;
      }

      .cls-28 {
        fill: #883819;
      }

      .cls-29 {
        fill: #969fb8;
      }

      .cls-30 {
        fill: #43548a;
      }

      .cls-31 {
        fill: #7a370e;
      }

      .cls-32 {
        fill: #2e323e;
      }

      .cls-33 {
        fill: #a06a2a;
      }

      .cls-34 {
        fill: #502204;
      }

      .cls-35 {
        fill: #5e1600;
      }

      .cls-36 {
        fill: #3f1c0c;
      }

      .cls-37 {
        fill: #808b96;
      }

      .cls-38 {
        fill: #636e85;
      }

      .cls-39 {
        fill: #0c0d12;
      }

      .cls-40 {
        fill: #d0d1e6;
      }

      .cls-41 {
        fill: #f2c13b;
      }

      .cls-42 {
        fill: #f5c58b;
      }

      .cls-43 {
        fill: #111c22;
      }

      .cls-44 {
        fill: #1c2018;
      }

      .cls-45 {
        fill: #2b3c15;
      }

      .cls-46 {
        fill: #27201e;
      }

      .cls-47 {
        fill: #060816;
      }

      .cls-48 {
        fill: #111516;
      }

      .cls-49 {
        fill: #f2c03f;
      }

      .cls-50 {
        fill: #f4a371;
      }

      .cls-51 {
        fill: #edc896;
      }

      .cls-52 {
        fill: #fb9a6e;
      }

      .cls-53 {
        fill: #0aac19;
      }

      .cls-54 {
        fill: #34436c;
      }

      .cls-55 {
        fill: #0e8d12;
      }

      .cls-56 {
        fill: #613e14;
      }

      .cls-57 {
        fill: #703b25;
      }

      .cls-58 {
        fill: #5d6873;
      }

      .cls-59 {
        fill: #f1ab77;
      }

      .cls-60 {
        fill: #a26814;
      }

      .cls-61 {
        fill: #222e43;
      }

      .cls-62 {
        fill: #101117;
      }

      .cls-63 {
        fill: #050509;
      }

      .cls-64 {
        fill: #111523;
      }

      .cls-65 {
        fill: #be7649;
      }

      .cls-66 {
        fill: #7f570e;
      }

      .cls-67 {
        fill: #1b1d28;
      }

      .cls-68 {
        fill: #ac7b1c;
      }

      .cls-69 {
        fill: #3f5012;
      }

      .cls-70 {
        fill: #1e1e2a;
      }

      .cls-71 {
        fill: #0e700e;
      }

      .cls-72 {
        fill: #f29a6d;
      }

      .cls-73 {
        fill: #47515f;
      }

      .cls-74 {
        fill: #08090d;
      }

      .cls-75 {
        fill: #949db6;
      }

      .cls-76 {
        fill: #a5acb2;
      }

      .cls-77 {
        fill: #1c1e28;
      }

      .cls-78 {
        fill: #74440b;
      }

      .cls-79 {
        fill: #535a69;
      }

      .cls-80 {
        fill: #36363e;
      }

      .cls-81 {
        fill: #164f0b;
      }

      .cls-82 {
        fill: #e8966b;
      }

      .cls-83 {
        fill: #2c2c38;
      }

      .cls-84 {
        fill: #151c27;
      }

      .cls-85 {
        fill: #c77542;
      }

      .cls-86 {
        fill: #b25122;
      }

      .cls-87 {
        fill: #60340c;
      }

      .cls-88 {
        fill: #8a92a1;
      }

      .cls-89 {
        fill: #231312;
      }

      .cls-90 {
        fill: #c5734c;
      }

      .cls-91 {
        fill: #964513;
      }

      .cls-92 {
        fill: #edb981;
      }

      .cls-93 {
        fill: #c4c4d4;
      }

      .cls-94 {
        fill: #626587;
      }

      .cls-95 {
        fill: #a17825;
      }

      .cls-96 {
        fill: #151c25;
      }

      .cls-97 {
        fill: #3c3b55;
      }

      .cls-98 {
        fill: #be6634;
      }

      .cls-99 {
        fill: #181f25;
      }

      .cls-100 {
        fill: #3c251d;
      }

      .cls-101 {
        fill: #eea175;
      }

      .cls-102 {
        fill: #b25e2f;
      }

      .cls-103 {
        fill: #393b49;
      }

      .cls-104 {
        fill: #191a23;
      }

      .cls-105 {
        fill: #373435;
      }

      .cls-106 {
        fill: #8c8481;
      }

      .cls-107 {
        fill: #bcc0d5;
      }

      .cls-108 {
        fill: #adb2bc;
      }

      .cls-109 {
        fill: #9a691f;
      }
    </style>
  </defs>
  <g id="JumpingJunkie_walk_1">
    <g id="back-leg">
      <path class="cls-67" d="M56.07,76.68c-.09-1.44-.44-4.31-1.35-6.13s-3.05-7.87-6.22-8.45-14.18-3.73-15.97-3.85-5.71,6.69-6.89,8.74-1.35,5.4-.34,6.95,6.58,5.19,7.6,6.81,1.69,7.03,4.13,8.22,9.96,2.28,11.47,2.17,6.36-2.59,6.78-4.64.79-9.82.79-9.82Z"/>
      <path class="cls-63" d="M62.87,97.94c-1.61-4.77-2.05-7.37-2.89-10.35-.84-2.98-1.8-7.22-3.24-9.03-.84-1.05.33-3.75-.15-4.25-.16-.17-1.1-.77-1.1-.77l-1.79.03s-.77-.09-1.18-.14c-3.89-.45-4.19-1.1-5.76,2.43-1.56,3.53-2.61,10.22-2.31,12.7.3,2.48.58,12.25,3.6,13.48,3.02,1.22,14.51-.35,14.38-1.28s.43-2.82.43-2.82Z"/>
      <path class="cls-67" d="M61.07,126.81c-.1,1.91.08,3.73-2.22,4.5-.46-2.06-2.53-1.27-3.93-.54.91-2.61,3.67-3.39,6.15-3.95Z"/>
      <g>
        <path class="cls-63" d="M42.76,101.69c.04,7.06-.17,18.8-1.05,22.26-.88,3.46-.44,7.15,2.22,7.26,2.66.11,7.09.63,9.57-.41,2.48-1.04,3.52-3.67,7.47-7.56,3.95-3.88-.34-4.75-.38-11.21-.05-6.46.11-10.76-3.72-14.31-3.83-3.56-10.04-6.83-13.4-9.26-3.36-2.43-4.31,3.47-3.27,6.28,1.05,2.81,2.57,6.94,2.57,6.94Z"/>
        <path class="cls-67" d="M42.44,99.4c2.61,5.6,3.17,5.42,1.68-.57-1.44-.72-1.78-1.9-.9-3.31-.33-6.25,3.74-5.75,12.21,1.5l3.28.6c5.37,5.36,6.99,17.8,3.25,25.29-2.83,3.49-9.44,9.35-13.22,6.19-2.24-.91-5.11-1.3-6.31-3.35-2.78-4.77,3.08-11.61,1.16-17.31l-6.82-20.25c4.25-2.19,6.11,7.79,5.66,11.2Z"/>
        <path class="cls-63" d="M42.39,88.18c4.01,2.32,4.26,4.19.83,7.34.47.98.7,2.24.9,3.31.02,1.63-.55,1.8-1.68.57-1.01-4.48-2.42-8.24-5.66-11.2-1.31-7.79-8.68-10.78-5.67-17.13,10.2,10.75-1.25,5.82,11.28,17.11Z"/>
        <path class="cls-47" d="M61.07,126.81c-1.09,1.74-3.14,3.06-6.15,3.95,1.84,1.53-.71,3.35-2.79,2.82-.94-1.34-1.71-3.79-3.39-4.47,5.01-.99,9.15-3.39,13.22-6.19-.04,1.54-.82,2.67-.88,3.89Z"/>
        <path class="cls-19" d="M63.2,98.4c-.57,6.46,6.8,18.98-1.25,24.52l.34-13.51c.11-4.34-4.99-7.67-3.59-11.78-3.45-1.11-3.02-2.54.75-2.42,1.54.67,2.81,1.83,3.75,3.2Z"/>
        <path class="cls-39" d="M59.45,95.2c-.77.62-.48,1.64-.75,2.42-2.05.44-.92,2.54-2.13,5.31-2.79-1.62-11.01-13.35-13.35-7.42-1.12-2.32-1.53-4.81-.83-7.34,1.49.6,2.77.41,3.06-.84.34-1.46-.12-3.42.86-4.42.86,7.14,7.05,9.65,13.14,12.29Z"/>
        <path class="cls-7" d="M42.44,99.4l1.68-.57c.65,3.54,3.57,6.54,2.44,10.62-3.38-3.53-2.42-7.36-4.12-10.05Z"/>
      </g>
      <g>
        <path class="cls-23" d="M48.81,156.19c-4.23-.03-5.36,1.28-6.04-.22s-2.09-1.1-1.23-3.83c.86-2.73-.55-5.83-.04-7.4s.65-9.94.01-11.47-.54-3.24.19-3.51,3.44-1.59,4.78-.43,3.61.55,5.09,1.54,4.43,3.14,3.34,5.44c-1.09,2.3-.52.75-2.47,3.33-1.96,2.58-3.63,16.53-3.63,16.53Z"/>
        <path class="cls-30" d="M51.58,137.52c2.52-.43,2.74.91.32,2.21-.48,3.17-1.13,6.36-1.95,9.58.02,1.63-.55,1.8-1.68.57-2.02-.92-3.21-2.08-1.14-3.36-2.3-2.79-3.61-6.45-3.41-10.08l-.63-1.87c3.66-1.34,5.78-.27,8.49,2.96Z"/>
        <path class="cls-44" d="M52.77,152.1c1.6-.2,1.74.4.57,1.68,5.84-1.32,11.64-2.65,17.38-4,.58,1.29-.94,2.22-2.69,2.81l-16.91,5.7c-.7-.91-.9-2.26-1.55-3.22-1.68-.06-1.8-.65-.43-1.73-1.12-2.46.09-2.78,1.95-.66l1.68-.57Z"/>
        <path class="cls-58" d="M48.27,149.87l1.68-.57c-.41-3.93.52-4.87,2.79-2.82,4.3,1.52,3.75,3.58-1.66,6.18l-1.95.66c-.97,2.38-2.92,2.01-4.65.24-.69-.61-2.25-.61-2.94-1.42-1.25-2.68-1.15-5.13,2.22-4.5,1.65-.66,3.15.08,4.5,2.22Z"/>
        <path class="cls-25" d="M56.08,139.74c-1.25-.08-1.4-.65-.57-1.68-1.19.13-1.97.2-2.25-1.11l-.57-1.68c1.23-2.15,3.59-4.4,6.15-3.95.75,3.15-.23,6.39-2.77,8.43Z"/>
        <path class="cls-16" d="M49.13,153.33c.25.52.11,1.25.43,1.73-.9,1.03-1.26,2.97-2.68,1.95-1.3-.93-1.67-2.33-2.4-3.44,1.42-.92,3.21-1.29,4.65-.24Z"/>
        <path class="cls-79" d="M58.85,131.31c-1.85,1.71-3.6,3.49-6.15,3.95-.18-.54-.24-1.21-.57-1.68l2.79-2.82c2.49-2.52,5.83-3.38,3.93.54Z"/>
        <path class="cls-94" d="M55.51,138.06c.02,1.63-.55,1.8-1.68.57.48,2.19-.29,2.75-1.93,1.1l-.32-2.21c.57-.08,1.11-.56,1.68-.57.83-.02,1.81.39,2.25,1.11Z"/>
        <path class="cls-64" d="M63.4,144.76c.73,1.29.36,2.04-1.11,2.25-5.9,5.1-11.2,2.1-7.32-5.02-.08-1.65.53-1.73,1.73-.43,2.99-.54,4.77,1.44,6.7,3.2Z"/>
        <path class="cls-34" d="M66.78,149.23c-.02-1.63.55-1.8,1.68-.57,1.03-.6,2.1-.07,2.25,1.11l-15.17,5.07c-1.24.41-2.12-.23-2.21-1.07,2.99-2.66,9.01-4.45,13.45-4.55Z"/>
        <path class="cls-76" d="M68.46,148.66l-1.68.57-3.93-.54c-1.63.02-1.8-.55-.57-1.68.08-.87.47-1.66,1.11-2.25,1.49,1.36,4.38,1.5,5.07,3.91Z"/>
        <path class="cls-48" d="M56.08,139.74l.62,1.82c-.58.1-1.17.24-1.73.43-1.62,0-2.34-2.19-1.14-3.36l1.68-.57c.3.49.39,1.14.57,1.68Z"/>
        <path class="cls-15" d="M47.13,146.51l1.14,3.36c-1.81.12-3.39-.84-4.5-2.22.1-1.61-1.68-3.5-1.93-5.12.51-.67.78-1.52,1.34-2.17,1.34,1.71,2.66,3.77,3.95,6.15Z"/>
        <path class="cls-5" d="M47.13,146.51c-2.42-1.13-3.45-3.66-3.95-6.15-.26-1.34-.19-2.75.54-3.93l3.41,10.08Z"/>
        <path class="cls-61" d="M51.9,139.73c1.53-.79,2.21,1.34,1.38,2.83.99,1.32,1,3.28-.54,3.93l-2.79,2.82c-.36-1.74-1.81-4.6-1.86-7.03-.03-1.3,2.44-1.77,3.81-2.55Z"/>
        <path class="cls-37" d="M54.97,141.99c-.82,2.07.06,3.89,1.17,4.88,1.99,1.78,4.52,1.2,6.15.13l.57,1.68c-1.95,2.31-7.22,3.83-10.08,3.41l-1.68.57c1.43-1.77,2.07-3.94,1.66-6.18-.24-1.32.05-2.71.54-3.93-.02-1.63.55-1.8,1.68-.57Z"/>
        <path class="cls-73" d="M62.85,148.69c1.33-.45,3.07-.89,3.93.54l-13.45,4.55c-.06-.58-.44-1.11-.57-1.68l10.08-3.41Z"/>
        <path class="cls-97" d="M54.97,141.99l-1.68.57-1.38-2.83c.63-.36,1.24-.87,1.93-1.1l1.14,3.36Z"/>
      </g>
    </g>
    <g id="front-leg">
      <path class="cls-84" d="M57.74,69.98c-.87-1.77-10.56-7.55-13.81-7.05s-9.91,2.09-11.89,3.7-3.27,6.13-2.9,8.41-1.29,5.42.53,7.15,10.65,5.96,12.63,5.51,7-1.97,8.76-3.2,6.64-2.37,8.34-4.2-.8-8.54-1.67-10.31Z"/>
      <path class="cls-11" d="M49.1,139.6c-1.02,1.07-1.5.82-1.45-.7l-5.11-4.24-1.62-1.3c-1.16-.86-.94-1.26.58-1.24,1.55.84,3.95,2.71,6.35,3.01,1.6.2,2.87-1.93,4.84-2.75-1.35,2.32-2.41,4.81-3.59,7.22Z"/>
      <g>
        <g>
          <path class="cls-32" d="M37.32,124.23c-1.09,1.63-2.48,7.15-2.36,7.98s.3,3.02.74,3.49,1.05,3.86,2.73,3.69,5.92.09,6.9-2.04,4.8-9.04,3.48-11.23c-1.31-2.19-11.5-1.88-11.5-1.88Z"/>
          <g>
            <path class="cls-12" d="M54.38,128.15c-6.09,7.92-12.23-3.56-4.08-5.84-6.83-2.58-6.83-7.36-.02-14.33-3.57-3.48-3.71-5.85-.4-7.11,2.09-3.85,1.96-8.15-.38-12.92l3.68-1.77c3.16,1.85,1.77,6.91,3.49,9.72,4.03,6.59,4.42,11.28,2.78,18.65-1.13,5.05-.6,10.38-5.06,13.6Z"/>
            <path class="cls-103" d="M54.03,81.23c-.42,1.59-.25,3.4-.85,4.95-2.44,6.28,4.83,8.25.84,12.45-.98,1.03-1.91,2.9-4.13,2.25-3.59,1.03-5.94-1.88-7.04-8.74-12.13-4.35-4.5-9.23,2.89-9.45-4.29-1.12-4.45-3.24-.4-5.03,1.64-2.72,9.65.05,8.71,3.57Z"/>
            <path class="cls-70" d="M50.31,122.31c-.11,1.43-1.17,4.47-.1,6.18.61.97,2.94-.78,4.18-.34-1.02.81-1.04,3.11-1.69,4.23-3.94,6.41-6.99,4.91-11.19-.26-5.92-1.51-3.13-11.06,1.5-13.32l1.86-1.18c1.03,1.9,2.84,3.46,5.45,4.68Z"/>
            <path class="cls-77" d="M45.72,82.68c1.62,4.28-5.66.5-7.3,3.32-.79,4.59,4.97,1.06,5.94,2.33,2.7,3.53,2.74,9.34,5.51,12.53-.35,2.44,3.67,5.43.4,7.11-.96,2.95-2.1,2.57-2.1-.63-3.11,3.57-6.75,1.9-7.6-2.42-.49-.84-1.09-1.63-1.94-2.12-3.13-.17-2.44-2.45-.41-4.45-6.71-.69-7.88-14.01-.74-16.32.9-5.11,7.39-3.89,8.23.64Z"/>
            <path class="cls-62" d="M48.18,107.36c2.6,2.08,1.7,4.73-2.71,7.97-.21,2.94-1.03,4.1-2.47,3.48-1.62,2.76-2.67,3.58-3.65.15-2.54-5.15,3.57-9.88,1.23-14.03,2.79-.1,5.02,1.65,7.6,2.42Z"/>
            <path class="cls-74" d="M41.5,132.13l-.58,1.24-2.52-1.18c-1.18,1.67-2.05.82-2.61-2.55-.18-3.88,1.68-7.33,3.56-10.67l3.65-.15c-1.17,4.46-4.6,8.41-1.5,13.32Z"/>
            <path class="cls-32" d="M50.31,122.31c-2.81-.23-5.33-1.52-7.31-3.5,1.11-4.22,3.11-7.43,5.18-11.45l2.1.63c-.2,2.28,3.01,2.16,3.36,5.25-2.31,1.62-4.76-.95-5.58.69-.46.92-2.7,2.69-2.2,3.64,1.22,2.3,4.62,2.49,4.44,4.75Z"/>
          </g>
        </g>
        <path class="cls-104" d="M30.92,69.22c.88-1.22,7.03-1.13,7.03-1.13,0,0,5.34,1.3,4.97,2.46,2.88,1.85,5.55,3.73,8.02,5.63,1.52-3.17,5.5-1.72,4.36,2.09-.45.95-1,1.94-1.27,2.96-1.28-3.79-5.64-2.31-8.71-3.57l-1.43,1.7c-2.78-1.24-4.91-.34-6.39,2.68-3.23,4.7-6.95,8.99-5.89.93-.89-.12-1.64-.32-1.93-.8-1.18-1.97,1.59-17.52,1.25-12.96Z"/>
        <path class="cls-84" d="M55.99,76.81l-.7,1.45-4.36-2.09c-1.17-.86-1.61-1.29-.38-2.13-.43-.76-.25-1.21.58-1.34l2.92-.26c.71.08,1.43.04,2.11-.18,3.03-.34,2.45,4.02-.18,4.55Z"/>
        <g>
          <path class="cls-19" d="M57.06,150.19c-1.09-.52-1.82-2.54-4.57-3.64-2.75-1.1-2.56-2.3-2.57-3s-.06-3.61-.23-5.14c-.17-1.53-2.34-2.56-3.29-2.03s-2.41,4.22-4.44,5.67c-2.03,1.45-5.3,10.22-4.42,10.76s5.04,1.52,7.9,2.05c2.87.53,10.25,0,11.25-.74,1-.74,2.51-1.78,2.1-2.23s-1.73-1.71-1.73-1.71Z"/>
          <path class="cls-54" d="M40.73,132.44c.75-1.09,1.54-.64,1.95.54,3.57,1.67,4.29,5.3,2.16,10.91l.81,1.88c.46-.03.96.07,1.42.11,1.48,3.34-4.08,3.31-6.6,1.56-.28,1.42-.76,1.39-1.41.02-1.37-.48-1.42-1.06-.16-1.76-3.39.34-2.3-8.59-1.85-11.99.06-.48.47-.91.97-1.33.51-2.27,1.38-1.72,2.71.07Z"/>
          <path class="cls-20" d="M36.36,151.59c1.14-2.8,4.63-2.85,4.82.56,1.64.13,3.43.99,5.09.69,1.39.21,1.38.67.07,1.34.24,1.88-1.23,2.7-2.79,3-3.65-2.24-8.32-2.48-12.51-1.74l.06-1.92c-.6-1.39.01-1.86,1.62-1.55-.21-4.49,2.02-4.52,3.65-.38Z"/>
          <path class="cls-105" d="M62.58,156.23c-.56.64-1.14.6-1.73-.06-5.01-.84-9.84-1.5-14.51-1.99l-.07-1.34c3.86-.69,8.2,1.11,11.58-1.6l1.57.05c.96.71,2.87.16,4.02,1.51,1.07,1.26-.28,2-.85,3.43Z"/>
          <path class="cls-21" d="M48.91,134.81c.58,2.41.49,5.48-1.76,6.38-1.31,1.13-1.68,2.88-1.5,4.57-3.91.26.38-7.98-2.97-12.79,2.1-.87,6.95-1.23,6.23,1.83Z"/>
          <path class="cls-87" d="M60.85,156.17c-4.54.4-9.26.77-14.16,1.12l-3.14-.11c.51-.85,1.46-3.19,2.79-3,4.83.7,10.91-1.67,14.51,1.99Z"/>
          <path class="cls-3" d="M60.85,156.17l1.73.06c-.42,1.05-1.45,1.63-3.25,1.56l-12.64-.5c-.07-1.32,1.46-1.58,3.11-1.52l11.05.4Z"/>
          <path class="cls-88" d="M40.48,147.44c1.71.33,2.33,1.02,1.84,2.07-.09.99-.54,1.87-1.14,2.64-1.6-.13-3.23-.73-4.82-.56-4.45-2.71-1.57-6.17,2.7-4.13l1.41-.02Z"/>
          <path class="cls-99" d="M47.15,141.2c.11-2.24.53-4.5,1.76-6.38l1.57.05-.29,7.93c-1.93.45-3.23.05-3.03-1.6Z"/>
          <path class="cls-108" d="M59.42,151.29l-1.57-.05c-.98.08-5.06.28-4.7-1.88,1.55-3.76,4.63.73,6.27,1.93Z"/>
          <path class="cls-96" d="M42.32,149.51c-.66-.65-1.28-1.34-1.84-2.07,2.27-.03,5.47,1.03,6.6-1.56,1.5.14,1.86,1.4,1.32,3.25l-6.07.38Z"/>
          <path class="cls-23" d="M38.02,132.38c1.79,4.42-1.45,9.11.89,13.33-2.74,3.94-4.46,4.25-5.64-.72,3.46-4.01,3.74-9.12,1.42-13.89,1.18.2,2.35.56,3.33,1.28Z"/>
          <path class="cls-22" d="M38.9,145.7c.27.48-.03,1.24.16,1.76-1.75.59-2.65,2.29-2.7,4.13l-3.65.38c-2.5.16-2.6-2.73-1.47-4.99.72-.46,1.46-1.34,2.03-2,1.84.49,3.74.73,5.64.72Z"/>
          <path class="cls-46" d="M32.71,151.97c-.51.55-1.05,1.07-1.62,1.55-.88-.71-1.39-1.7-1.54-2.68-.28-1.78.36-3.02,1.68-3.87.21,1.74.65,3.45,1.47,4.99Z"/>
        </g>
        <path class="cls-83" d="M45.32,77.66c.38,1.65.48,3.34.4,5.03-2.65-.76-5.47-.7-8.23-.64-.05-2.41-1.09-4.7-1.96-8.03,4.53-1.21,6.72,2.39,9.79,3.65Z"/>
        <path class="cls-43" d="M54.18,69.12c.2.34,1.91,2.1,1.14,3.15-.88,1.2-4.29,1.7-4.76,1.77-1.8,1.26-5.63-1.81-7.64-3.5-.55-1.22-.05-3.38,1.48-3.08,1.8,2.4,7.38.19,9.79,1.65Z"/>
        <path class="cls-80" d="M50.56,74.04c.64.53.76,1.4.38,2.13-3.13-1.5-6.54-2.36-8.02-5.63l7.64,3.5Z"/>
      </g>
    </g>
    <g id="back-arm">
      <path class="cls-2" d="M72.83,59.82c.45-2.02.48-3.38,1.91-4.19s2.01-2.81,4.02-1.96c2.02.86,4.35,4.97,4.63,7.45.05.44,3.98,2.7,3.76,3.14-1.05,2.06-8.63,2.04-10.1.58-1.79-1.77-5.09-1.19-6.12-1.99-1.04-.81-2.41-2.33-1.41-2.95,1.01-.62,3.31-.08,3.31-.08Z"/>
      <g>
        <path class="cls-2" d="M84.27,70.94c.95-.24,5.96.56,5.62-1.07-.33-1.64-1.49-3.61-2.71-4.34-1.22-.72-3.34-2.16-4.28-2.13s-2.91,1-3.04,1.57,1.17,5.54,2.02,5.73,2.39.24,2.39.24Z"/>
        <path class="cls-89" d="M78.8,64.09c.93,4.46,5.45,4.36,9.14,4.28.28.64-.12,1.57.06,2.26-2.15.38-6.55-1-6.94,1.94-3.04-2.09-5.93-4.67-6.78-8.37,1.36-.47,3.1.19,4.51-.11Z"/>
        <path class="cls-18" d="M80.31,65.39c1.36.55,2.38,1.69,3.55,2.53l-1.98,2.77-3.55-2.53c-1.84-1.31-3.63-2.69-5.06-4.52,1.8-8.39,5.81-2.91,7.04,1.75Z"/>
        <g>
          <g>
            <path class="cls-82" d="M72.46,51.93c2.57.46,4.06,1.61,4.47,3.48.45,2.75.06,7.01-2.17,8.18,1.77.83,3.4,2.76,3.05,4.58-5.98.12-9.31-5.98-12.35-10.6-2.85-2.66-5.83-6.99-6.63-10.61-.28-4.1-.13-7.95.45-11.55-.3-1.24.19-1.59,1.41-1.08,2.6-1.6,4.67.47,2.17,2.81,3.72-.88,5.92,1.18,6.6,6.18,2.15,1.21,3.12,5.9,3.01,8.61Z"/>
            <path class="cls-42" d="M74.07,37.45c-.19,1.28.92,2.68,1.03,3.93-.54.2-.98.81-1.54.94-.58,4.73-1.95,5.06-4.11,1-4.07,1.01-4.53-3.49-6.6-6.18-.34-2.27,1.81-3.36,6.47-3.28,1.83-3.93,3.83.13,4.75,3.59Z"/>
            <path class="cls-92" d="M73.24,44.81c4.83,8.44,4.57,10.82-.78,7.12-1.7-2.13-5.21-2.33-6.73-5.5.33-.92,2.07-.59,2.8-.92.67-.3.97-1.13.92-2.19,1.35-.42,2.74-.68,4.11-1-.12.82-.12,1.68-.32,2.49Z"/>
            <path class="cls-24" d="M78.34,54.33c.72,1.46.2,1.78-1.41,1.08-.78-.54-1.99-.56-3.25-.81-1.26-.25-1.59-1.27-1.23-2.67.99-.38,2.1.48,3.63-.29-1.89-2.75-3.44-4.47-2.85-6.83,2.4,2.75,4.63,5.82,5.09,9.51Z"/>
            <path class="cls-6" d="M58.83,46.97c-.82-1.26-2.36-2.78-2.63-4.29-4.84-1.22-3.82-3.63.43-4.87-.85-1.44,1-2.72,2.64-2.38.79-.59,3.27,10.09,3.4,9.85-.96,1.79-2.64,1.35-3.85,1.71Z"/>
          </g>
          <g>
            <path class="cls-91" d="M84.17,78.82c-2.88,1.6-4.63-.09-2.15-2.17-1.67-.08-2.44-.84-2.15-2.17-.64-1.15-.13-1.41,1.41-.85,1.82-1.3,3.63.9,4.64,2.41.61-2.9,2.38-3.39,5.31-1.46-1.45-2.44-.23-2.73,2.82-1.7.42-.48,1.25-.4,2.49.24-.4,4.59-7.35,4.97-12.36,5.71Z"/>
            <path class="cls-102" d="M92.98,71.8c1.24-.24,1.58.13,1.08,1.08-.79.67-2.1.99-2.82,1.7-3.7,1.61-6.1-2.89-5.29-5.51.45-.34,1.29-.75,1.88-.93-.41-2.77,1.18-2.86,2.67-.25.86-.03,1.12.25.77.85.21.84.78,1.86,1.72,3.05Z"/>
            <path class="cls-98" d="M92.57,66.84c.18,1.41-.51,1.76-2.08,1.05-.86.12-1.84,0-2.67.25-.75-.92-3.47-1.94-2.21-3.76,1.39-2.01,3.68-.82,5.26-.11.96.43,1.7,1.26,1.7,2.57Z"/>
            <path class="cls-4" d="M85.94,69.07c.94,2.46.33,3.42-1.83,2.87-.76,1.14-1.6.98-2.49-.24-1.84-.34-2.27-2.22-.49-2.96.77-.6,2.01-1.68,3.34-1.33.75.2,1.05,1.3,1.47,1.66Z"/>
            <path class="cls-100" d="M79.81,67.6c-2.89.94-2.95.02-2.15-2.17.38-.34,1-.53,1.41-.85.66-.18,2.55-1.45,3.35-1.1,1.83.8,1.03,2.51-.28,2.81-.59.13-1.55.64-2.33,1.31Z"/>
            <path class="cls-57" d="M81.62,71.7c2.59.46,2.46,1.5-.34,1.93-3.67-.86-6.48-5.67-1.48-6.04.49.34.86.78,1.32,1.14l.49,2.96Z"/>
            <path class="cls-85" d="M95.8,70.1c.54,1.19.05,1.46-1.41.85-1.79.47-3.64-.66-3.13-2.2-.89-.07-1.46-.1-.77-.85.75-.28,1.45-.63,2.08-1.05l1.08,1.08c.81.65,1.28,1.57,2.15,2.17Z"/>
            <path class="cls-36" d="M96.54,73.12c-1.59-.03-2.72-1.05-2.15-2.17l1.41-.85c1.41.98.84,1.88.74,3.02Z"/>
            <path class="cls-2" d="M93.65,67.93c-.41-.33-.69-.74-1.08-1.08,1.23-.05,2.34.36,1.08,1.08Z"/>
            <path class="cls-18" d="M91.23,74.58c-1.62,1.59-3.19,1.53-5.31,1.46-1.73-1.05-3.22-2.65-1.81-4.1.52-.97.83-2.11,1.83-2.87,1.63,1.39,2.24,5.1,5.29,5.51Z"/>
            <path class="cls-90" d="M85.92,76.04c-2.48-.08-3.14-.88-4.64-2.41.42-.56.44-1.32.34-1.93.84.01,1.67.09,2.49.24,1.26,1.14,2.58,2.57,1.81,4.1Z"/>
            <path class="cls-9" d="M96.54,73.12c-.73.76-1.72.18-2.49-.24l-1.08-1.08c-.54-1.19-.05-1.46,1.41-.85l2.15,2.17Z"/>
            <path class="cls-72" d="M94.39,70.95l-1.41.85c-.98-.27-2.35-.45-2.69-.98-.6-.94-.71-2.35.97-2.07,1.07.68,2.28,1.35,3.13,2.2Z"/>
          </g>
        </g>
      </g>
    </g>
    <g id="right-vest">
      <path class="cls-56" d="M60.1,26.74c-.76-.16-4.39-.57-5.66-.48-1.27.1-4.81-.28-5.38-.01s-.16,3.13-.29,3.66,2.01,2.68,3.37,2.69,5.45-.31,6.58-.31,2.82-1.66,2.6-2.17-1.21-3.38-1.21-3.38Z"/>
      <path class="cls-56" d="M62.57,74.57c-1.26-.3-4.8-1.37-6-1.81,0-1.7,1.76-3.38.49-4.58l1.78-4.27c2.71,2.89,2.8,6.93,3.73,10.66Z"/>
      <path class="cls-66" d="M71.22,55.47c-.02,4.68-.61,9.21-1.78,13.59l-1.09-.06c-4.15,4.25-8.2-6.17-3.98-8.64-.51-2.34-1.05-4.87,1.48-5.63-5.92-1.27-5.27-5.14.62-5.24.41-1.06-3.11-2.55-2.65-4.09.2-.67-1.85-3.86-1.42-5.11.45-1.29,3.39-.61,3.45.11.4,5.21,5.36,16.34,5.37,15.07Z"/>
      <path class="cls-78" d="M62.59,54.87c1.69.81,2.29,2.64,1.79,5.5,2.05,2.74.6,7.09,3.98,8.64-.24,3.38-2.93,6.24-5.78,5.57-2.65-2.77-3.86-6.89-3.73-10.66-1.38-1.48-.62-4.14-1.36-5.8l1.31-.8c-4.51-7.32,5.9-10.01,3.79-2.44Z"/>
      <path class="cls-1" d="M55.5,47.94c2.72,2.72,1.63,3.78-1.77,1.77v-1.77c-1.29-3.93-1.43-10.25,0-14.19.5-1.55,1.1-1.53,1.77,0,.98.24,1.75.49,1.77.79.17,2.53-.53,9.45-.9,12.3-.05.4-.42.76-.87,1.11Z"/>
      <path class="cls-33" d="M70.94,32.09c-2.58,3.39-3.9,5.01-4.79,8.75h-3.55c-1.17-.52-1.14-1.11,0-1.77-1.55-.5-1.53-1.1,0-1.77,2.16-4.13,2.08-4.62,0-7.1-.79,2.99-1.38,4.63-3.55,1.77-4.71-.34-4.71-1.53,0-3.55-.41-1.6.18-2.19,1.77-1.77,3.96,2.4,6.77,1.95,10.11,5.44Z"/>
      <path class="cls-41" d="M62.6,40.85v1.77l.27,3.55c.32,3.43-1.05,3.43-2.05,0-2.97.12-2.65-5.98,0-7.1.5-1.55,1.1-1.53,1.77,0v1.77Z"/>
      <path class="cls-68" d="M66.47,49.49c-1.53,1.35-1.07,3.46-.62,5.24-.58,3.28-2.44,3.56-3.26.14-1.6-2.34-2.83-2.34-2.68.62.47,1.27.66,2.52.88,3.83.09.55-.83,1.67-1.71.17-.33-.55-.95-1.06-1.58-1.39-.82-1.86-1.97-3.87-3.77-4.82v-3.57c.78-.32,1.78-.74,1.78-1.77.44-1.56,1.03-1.52,1.77,0,.49-2.91,1.33-4.14,3.55-1.77h2.05c1.82,0,2.35,2.48,3.6,3.32Z"/>
      <path class="cls-109" d="M65.85,54.73c.03,1.98-.32,3.98-1.48,5.63-1.22-1.63-2.43-3.19-1.79-5.5l3.26-.14Z"/>
      <path class="cls-65" d="M59.05,31.98c1.55.5,1.53,1.1,0,1.77-.52,4.05-2.55,3.96-3.55,0h-3.55l-1.77-1.77c-1.24-.26-1.27-1.23-.36-2.13,3.17.5,6.54.51,9.23-1.42v3.55Z"/>
      <path class="cls-49" d="M59.05,33.75c2.66.04,2.6,2.87,0,3.55.81,4,.22,7.55-1.77,10.65-.58.09-1.19-.06-1.77,0v-14.19h3.55Z"/>
      <path class="cls-27" d="M62.6,37.3v1.77h-1.77c-1.51.73-2.05.05-1.77-1.77v-5.32c1.15-.65,2.32-1.29,3.55-1.77,3.03.48,2.19,5.11,0,7.1Z"/>
      <path class="cls-17" d="M62.6,37.3v-7.1c3.12-1.22,4.25,1.58,3.51,4.28-.33,1.21-2.09,2.14-3.51,2.81Z"/>
      <path class="cls-26" d="M60.83,39.07v7.1c-.96.95-2.21,1.56-3.55,1.77,0-3.66-.98-7.8,1.77-10.65.62.56,1.21,1.15,1.77,1.77Z"/>
    </g>
    <g id="shirt">
      <path class="cls-93" d="M43.08,33.75c.45-1.47,2.61-1.28,3.55,0,.5-1.55,1.1-1.53,1.77,0,2.68.93,3.63,4.72,2.85,11.4l.95,2.84c.28-1.57.8-1.54,1.52-.04.96.54.93,1.13,0,1.77-4.8,4.92-23.87,5.6-24.84-3.69-2.27-4.02-.68-8.63,1.72-12.47-.18-3.62,3.15-4.09,5.66-1.58,3.49-3.2,5.33-2.76,6.8,1.77Z"/>
      <path class="cls-75" d="M55.05,69.36c1.27,1.85.9,3.16.9,3.16l-2.11.6s-12.09.09-10.76-4.09c2.05-3.61,1.24-5.15-2.45-4.61-1.06,2.07.07,5.07-1.49,7.08-.4.15-1.75,1.76-1.75,1.76h-3.74s-.65-2.94-1.1-2.55c-2.98-2.26.34-6.41,0-8.8-.61-2.17-.55-4.17.2-6,18.91-2.39,26.35,2.09,22.3,13.46Z"/>
      <path class="cls-29" d="M53.73,49.72c4.71.58,4.5,2.22,0,3.57-6.1,1.2-21.16,4.63-24.75-2.01-.3-1.74-.99-3.64-.07-5.25,2.85,6.5,22.55,4.64,24.84,3.69Z"/>
      <path class="cls-38" d="M53.72,53.29c4.65-3.92,6.1.15,3.77,4.82,4.34,1.68,4.79,3.62,1.36,5.8.46,1.45-.35,5.69-.57,6.77-.03.17-.1.33-.18.47l-1.03,1.72-1.69-.22s-.04-3-.32-3.3c-1.21-3.04-.63-6.29-2.04-8.17-2.35-3.13-6.31-3.8-9.85-4.11-5.3-.48-8.81.58-10.6,4.84-1.56-3.33-2.95-6.86-3.59-10.63,7.5,1.79,15.27,1.96,23.32.54l1.43,1.47Z"/>
      <path class="cls-95" d="M25.34,65.69c-.74-.52-.7-1.11,0-1.77v-14.19c3.14,3.9,2.94,11.94,0,15.97Z"/>
      <path class="cls-40" d="M51.96,33.75c1.6,3.74,1.37,10.13.25,14.24-4.24-1.76.08-11.77-3.8-14.24-1.17-.52-1.14-1.11,0-1.77.51-1.41,1.1-1.39,1.77,0,2.24-1.56,3.11-.74,1.77,1.77Z"/>
      <path class="cls-106" d="M53.73,47.94l-1.52.04-.25-14.24c.5-1.55,1.1-1.53,1.77,0v14.19Z"/>
      <path class="cls-107" d="M43.08,69.03c.67,2.88-2.94,2.96-5.16,1.65-.39.03-.87-.29-1.22-.15-.41-2.13-1.24-4.63-.43-6.84.52-1.42,2.9-3.03,5.27-2.84,4.73.37,9.09,3.7,10.77,7.87-3.87,1.42-6.64-.35-9.23.32Z"/>
    </g>
    <g id="head">
      <path class="cls-53" d="M61.9,5.21c-.13.62-.66,1.2-.7,1.83l-14.06.23,3.85-3.22c3.44-1.14,8.01-.73,10.91,1.16Z"/>
      <path class="cls-71" d="M57.15,3.44c3.6-.6,4.94,1.15,4.28,4.62,2.8,1.25,1.93,4.45-1.14,3.61-.16,4.94-5.74,4.09-5.3-.42-2.02,1.07-4.44,1.19-7.25.37-5.31,4.56-5.43,2.98-3.99-3.04l-.24-1.76c3.52-3.06,9.35-4.4,13.65-3.38Z"/>
      <path class="cls-55" d="M62.24,1.25c2.14,2.38,10.63,5.9,9.6,11.07-.29,1.46-3.38,1.16-3.86,2.15-2.55,2.37-4.74,2.19-3.94-1.52-1.7.09-2.01-1.25-.93-4l-1.69-.88c-2.39-.11-3.9-2.38-4.28-4.62-1.53-.75-1.4-1.39.27-1.94-1.58-.15-1.54-.63-.04-1.41,1.42-.01,3.47,1.08,4.86,1.16Z"/>
      <path class="cls-59" d="M45.02,19.38c2.89,4.2,5.03,8.97.11,12.29,1.58.38,1.66.96.24,1.76-2.36.33-4.81.23-6.98-.83-3.9-.38-3.69-2.89.63-7.53,1.76-1.81,2.7-4.89,4.12-7,1.34-1.1,1.93-.59,1.88,1.31Z"/>
      <path class="cls-45" d="M47.73,11.62c2.52,3.14-.82,6.92-4.59,6.45-3.6-2.02-.87-6.55.6-9.49.06.74.1,1.71.61,2.44.71,1.02,2.26.9,3.38.6Z"/>
      <path class="cls-81" d="M57.38.09l.04,1.41-10.89,1.32C48.34-.83,53.74.12,57.38.09Z"/>
      <path class="cls-86" d="M48.65,31.19c1.23.36,1.28.95.24,1.76l-3.52.49c0-.58-.29-1.18-.24-1.76.29-1.6.88-1.66,1.76-.24l1.76-.24Z"/>
      <path class="cls-28" d="M50.41,30.95l.24,1.76-1.76.24-.24-1.76c-.87-.43-.93-1.02-.24-1.76-.17-1.67.37-1.81,1.56-.54,1.38-.34,1.3.82.44,2.05Z"/>
      <path class="cls-51" d="M60.28,11.67c2.15-2.67,3.19-1.81,2,1.52,3.58.85,3.67,3.29.73,5.27-.82.64-1.47,2.55-2.87,2.7-3.55.02-6.78-.9-9.67-2.76-6.39-1.04-.02-8.67,4.52-7.14,1.5,1.11,3.6.63,5.3.42Z"/>
      <path class="cls-14" d="M60.14,21.16c.3.95,1.68,1.72,1.84,2.82-.42.72-.91,1.42-1.52,2,.15,4.6-6.04,5.68-8.95,2.67-1.59-.16-1.61-.69-.18-1.56-2.3-5.44,4.98-10.01,8.8-5.92Z"/>
      <path class="cls-69" d="M67.98,14.47c-.87,1.91-2.68,3.61-4.97,3.99l-.73-5.27c.29-1.6.88-1.66,1.76-.24,1.16.85,2.53,1.32,3.94,1.52Z"/>
      <path class="cls-101" d="M54.98,11.26c-2.61,1.59-5.14,3.86-4.52,7.14-.38,1.64-.98,1.64-1.79.1-.35,4.78-1.57,5.08-3.66.89-.58-.5-1.22-.93-1.88-1.31,1.45-2.16,2.32-4.8,4.59-6.45,1.26-.92,2.81-1.72,4.25-2.1,1.49-.39,2.09,1.06,3,1.73Z"/>
      <path class="cls-13" d="M64.04,12.94l-1.76.24-2-1.52c1.32-.71,1.4-2.28,1.14-3.61.46-.48.82-1.49,1.24-1.89.6-.55,2.56-.54,2.46,1.18-.14,2.42-1.39,3.95-1.08,5.6Z"/>
      <path class="cls-8" d="M48.68,18.5c3.22,1.86,6.17,5.48,2.66,8.58l.18,1.56c.08,1.43-.48,1.43-1.55.25-.5.13-1.11.28-1.56.54l-1.52,2-1.76.24c.36-4.09-.02-8.19-.11-12.29l3.66-.89Z"/>
      <path class="cls-35" d="M52.16,30.7l-1.76.24-.44-2.05c.48-.13,1.06-.26,1.55-.25l.64,2.06Z"/>
      <path class="cls-50" d="M48.65,31.19l-1.76.24c.33-.75.78-1.57,1.52-2l.24,1.76Z"/>
      <path class="cls-52" d="M60.14,21.16c-3.79.41-5.72,3.99-8.8,5.92-1.62-2.83-4.83-5.45-2.66-8.58.56-.13,1.26.12,1.79-.1,1.89-.76,3.86-1.43,6.04-1.32s3.15,1.96,3.63,4.08Z"/>
      <path class="cls-45" d="M44.32,7.01c.17-.97.87-2.86,1.67-3.75s2.77-1.03,4.79-1.56,5.99-.74,6.54-.69,1.5.9,1.37,1.92.46,3.05-.31,3.43-9.05.84-9.85,1.03c-.8.19-4.21-.38-4.21-.38Z"/>
    </g>
    <g id="left-vest">
      <path class="cls-10" d="M27.34,63.91c-.54,3.06-1.13,6.01-1.77,8.87-4.15,6.15.91-28.64,1.77-23.07,1.27,4.47,1.93,9.79,0,14.19Z"/>
      <path class="cls-31" d="M39.81,24.11s-.61,1.1-.71,1.39c-.71,2.1-2.6,4.26-2.82,6.47-1.77.9-3.68,1.49-5.66,1.58-.53-.67-1.2-1.2-1.96-1.58l-.07-2.97c-.14-1.7,11.23-4.89,11.23-4.89Z"/>
      <path class="cls-60" d="M26,70.12c-.13,3.09,3,8.11-1.11,9.4-.19-3.81-2.84-9,.81-11.67.1.75.32,1.52.29,2.28Z"/>
      <path class="cls-49" d="M37.39,33.75c-2.73-4.02-2.98-5.75-5.83-4.02-2.85,1.72-6.98,21.15-6.75,27.82.23,6.67-.24,19.69.5,20.44.74.76,2.22,1.71,5.79-2.4,3.56-4.12.98-7.1,3.6-19.68,2.62-12.58,2.7-22.16,2.7-22.16Z"/>
      <path class="cls-26" d="M29.17,42.22c-.05-1.2-1.11-1.47-1.37-4.3-.26-2.83-2.5-6.99-1.48-8.12s2.37-2.32,4.09-1.85c1.72.48,5.43,6.84,5.33,8.8s-4.33,5.02-5,5.87c-.67.84-3.43,4.09-3.72,2.3-.3-1.79,1.45-2.18,1.41-2.44s.73-.26.73-.26Z"/>
    </g>
    <g id="front-arm">
      <path class="cls-24" d="M15.04,38.28c.78-1.16,1.84-4.89,3.72-5.73s6.69-2.9,8.02-3.48,1.98-.56,2.52.81,1.19,3.73-.02,6.22c-1.21,2.5-2.6,6-5.52,5.47-2.91-.54-4.88-.68-6.66-1.4s-2.08-1.88-2.08-1.88Z"/>
      <g>
        <path class="cls-82" d="M14.02,56.69c-2.96.25-4.77,1.4-5.44,3.47-.8,3.07-.81,7.94,1.59,9.5-2.09.75-4.15,2.77-3.94,4.87,6.76.76,19.67-22.12,19.67-22.12,0,0,5.06-8.91,4.79-13.05.47-1.38-.04-1.82-1.48-1.38-2.78-2.09-5.34.04-2.75,2.96-4.13-1.39-6.84.71-8.13,6.3-2.57,1.14-4.15,6.35-4.31,9.45Z"/>
        <path class="cls-42" d="M13.72,40.11c.09,1.47-1.32,2.94-1.58,4.35.59.28,1.03,1.02,1.65,1.23.16,5.43,1.68,5.95,4.56,1.56,4.5,1.57,5.51-3.48,8.13-6.3.63-2.53-1.7-4-6.99-4.4-1.66-4.65-4.35-.26-5.76,3.57Z"/>
        <path class="cls-92" d="M13.88,48.54c-6.37,9.06-6.32,11.78.14,8.15,2.15-2.23,6.15-2.09,8.2-5.53-.28-1.08-2.29-.89-3.08-1.34-.73-.41-.99-1.38-.81-2.58-1.49-.62-3.03-1.06-4.56-1.56.05.95-.04,1.92.1,2.85Z"/>
        <path class="cls-24" d="M7.1,58.79c-.97,1.58-.41,1.99,1.48,1.38.94-.53,2.32-.43,3.76-.58,1.45-.15,1.93-1.27,1.67-2.89-1.08-.53-2.44.33-4.08-.71,2.44-2.91,4.37-4.71,3.94-7.44-3.01,2.86-5.86,6.11-6.78,10.25Z"/>
        <path class="cls-6" d="M26.45,49.99c.78-.98,3.48-5.67,4.87-8.11.69-1.21.59-2.76-.35-3.78-.41-.44-.92-.75-1.55-.68-.83-.75-4.77,11.1-4.89,10.8.9,2.13.6,1.24,1.93,1.77Z"/>
      </g>
      <g>
        <path class="cls-91" d="M2.09,72.93c-3.09.73-2.65,3.22.61,3.14-.92,1.2-.71,2.32.61,3.14.62,1.32,1.14,1.17,1.57-.31,2.2-.24,1.36-3.17.65-5.01,2.88,1.82,4.34.99,4.4-2.49,1.26,2.87,2.23,2.26,3.14-.61.67.09,1.09-.54,1.26-1.88-4.21-3.27-8.65,1.17-12.24,4.02Z"/>
        <path class="cls-102" d="M13.38,72.35c.94-.66.82-1.18-.31-1.57-1.04.02-2.1.67-3.14.61-3.57,1.28-1.09,6.39,1.66,7.85.57-.04,1.42-.3,1.92-.57,2.16,2.41,3.18,1.4,1.79-1.63.53-.56.44-.96-.29-1.18-.6-.79-1.15-1.97-1.63-3.52Z"/>
        <path class="cls-98" d="M17.44,76.44c-1.12-1.21-1.83-1.01-2.14.61-.61.5-1.09,1.24-1.79,1.63.36,1.22-.36,3.86,1.96,4.41,2.56.6,2.88-1.88,3.2-3.5.19-.99-.09-2.12-1.23-3.14Z"/>
        <path class="cls-4" d="M11.59,79.24c-1.58-2.54-2.77-2.86-3.56-.96-1.44-.36-1.79.33-1.26,1.88-.78,1.52.59,3.26,2.28,2.62.98-.07,2.64-.07,3.12-1.25.27-.66-.51-1.71-.57-2.28Z"/>
        <path class="cls-100" d="M9.25,84.56c-2.52,1.25-1.76,1.99.61,3.14.52,0,1.05-.28,1.57-.31.54-.31,2.76-.62,2.93-1.43.39-1.86-1.57-2.64-2.6-1.97-.46.3-1.47.56-2.51.57Z"/>
        <path class="cls-57" d="M6.77,80.16c1.12-2.12.15-2.83-1.88-1.26-1.42,3.16,1.1,8.78,4.37,5.66,0-.6-.17-1.19-.21-1.78l-2.28-2.62Z"/>
        <path class="cls-85" d="M16.52,71.73c-.71-1.28-1.23-1.16-1.57.31-1.47.86-1.57,2.99.06,3.83-.46.66-.77,1.07.29,1.18.69-.29,1.4-.5,2.14-.61l-.31-1.57c-.09-1.05-.61-2.08-.61-3.14Z"/>
        <path class="cls-36" d="M14.34,68.9c-.91,1.11-.69,2.66.61,3.14l1.57-.31c-.01-1.71-1.14-2.02-2.18-2.83Z"/>
        <path class="cls-2" d="M17.13,74.87c.05.53.23,1.04.31,1.57.76-.8,1.07-1.87-.31-1.57Z"/>
        <path class="cls-18" d="M9.94,71.39c-2.34-.12-3.21.99-4.4,2.49-.11,1.99.4,4.24,2.49,4.4,1.15.39,2.32,1.06,3.56.96-.24-2.18-3.1-5.46-1.66-7.85Z"/>
        <path class="cls-90" d="M5.54,73.88c-1.39,1.76-1.09,2.82-.65,5.01.74.15,1.4.72,1.88,1.26.49-.58.91-1.21,1.26-1.88-.24-1.74-.71-3.74-2.49-4.4Z"/>
        <path class="cls-9" d="M14.34,68.9c-1.09-.09-1.18,1.03-1.26,1.88l.31,1.57c.71,1.28,1.23,1.16,1.57-.31l-.61-3.14Z"/>
        <path class="cls-72" d="M14.95,72.04l-1.57.31c-.34.87-1,1.94-.73,2.59.46,1.14,1.62,2.29,2.37.93.04-1.25.18-2.6-.06-3.83Z"/>
      </g>
    </g>
  </g>
</svg>