<?xml version="1.0" encoding="UTF-8"?>
<svg id="Player" xmlns="http://www.w3.org/2000/svg" viewBox="0 0 228.37 49.64">
  <defs>
    <style>
      .cls-1 {
        fill: #313035;
      }

      .cls-2 {
        fill: #040814;
      }

      .cls-3 {
        fill: #1e1b23;
      }

      .cls-4 {
        fill: #717985;
      }

      .cls-5 {
        fill: #c27342;
      }

      .cls-6 {
        fill: #0a1312;
      }

      .cls-7 {
        fill: #13141d;
      }

      .cls-8 {
        fill: #754d14;
      }

      .cls-9 {
        fill: #2a3139;
      }

      .cls-10 {
        fill: #8c9199;
      }

      .cls-11 {
        fill: #fbd359;
      }

      .cls-12 {
        fill: #724009;
      }

      .cls-13 {
        fill: #1a2325;
      }

      .cls-14 {
        fill: #85431c;
      }

      .cls-15 {
        fill: #d6a065;
      }

      .cls-16 {
        fill: #352f36;
      }

      .cls-17 {
        fill: #2a2c38;
      }

      .cls-18 {
        fill: #24150b;
      }

      .cls-19 {
        fill: #0d1014;
      }

      .cls-20 {
        fill: #343747;
      }

      .cls-21 {
        fill: #a9633d;
      }

      .cls-22 {
        fill: #babebf;
      }

      .cls-23 {
        fill: #6f3d07;
      }

      .cls-24 {
        fill: #030d0f;
      }

      .cls-25 {
        fill: #c18f27;
      }

      .cls-26 {
        fill: #3b3f4b;
      }

      .cls-27 {
        fill: #14151c;
      }

      .cls-28 {
        fill: #282b33;
      }

      .cls-29 {
        fill: #090a04;
      }

      .cls-30 {
        fill: #9c701a;
      }

      .cls-31 {
        fill: #2b2c38;
      }

      .cls-32 {
        fill: #282f37;
      }

      .cls-33 {
        fill: #cc9e6c;
      }

      .cls-34 {
        fill: #f8dfaa;
      }

      .cls-35 {
        fill: #815618;
      }

      .cls-36 {
        fill: #0ca60e;
      }

      .cls-37 {
        fill: #753d20;
      }

      .cls-38 {
        fill: #c49a6b;
      }

      .cls-39 {
        fill: #0d1316;
      }

      .cls-40 {
        fill: #fef7b5;
      }

      .cls-41 {
        fill: #3b1d0b;
      }

      .cls-42 {
        fill: #3d414f;
      }

      .cls-43 {
        fill: #12700e;
      }

      .cls-44 {
        fill: #0f1a18;
      }

      .cls-45 {
        fill: #eabf83;
      }

      .cls-46 {
        fill: #0b0b0e;
      }

      .cls-47 {
        fill: #090a12;
      }

      .cls-48 {
        fill: #f9dd9b;
      }

      .cls-49 {
        fill: #984c0d;
      }

      .cls-50 {
        fill: #1e1f2b;
      }

      .cls-51 {
        fill: #dda732;
      }

      .cls-52 {
        fill: #fdc849;
      }

      .cls-53 {
        fill: #0c1412;
      }

      .cls-54 {
        fill: #383949;
      }

      .cls-55 {
        fill: #3e4c7e;
      }

      .cls-56 {
        fill: #0c1a17;
      }

      .cls-57 {
        fill: #c49d6b;
      }

      .cls-58 {
        fill: #3d404b;
      }

      .cls-59 {
        fill: #2e2218;
      }

      .cls-60 {
        fill: #13660b;
      }

      .cls-61 {
        fill: #0a0b08;
      }

      .cls-62 {
        fill: #bb6842;
      }

      .cls-63 {
        fill: #c37448;
      }

      .cls-64 {
        fill: #0b162a;
      }

      .cls-65 {
        fill: #a57b21;
      }

      .cls-66 {
        fill: #161b18;
      }

      .cls-67 {
        fill: #c17741;
      }

      .cls-68 {
        fill: #e7b07b;
      }

      .cls-69 {
        fill: #824b14;
      }

      .cls-70 {
        fill: #a2761f;
      }

      .cls-71 {
        fill: #171311;
      }

      .cls-72 {
        fill: #692708;
      }

      .cls-73 {
        fill: #bf723f;
      }

      .cls-74 {
        fill: #e2b27c;
      }

      .cls-75 {
        fill: #f0c78b;
      }

      .cls-76 {
        fill: #a9adbc;
      }

      .cls-77 {
        fill: #1d2428;
      }

      .cls-78 {
        fill: #895315;
      }

      .cls-79 {
        fill: #2c1c18;
      }

      .cls-80 {
        fill: #e4c695;
      }

      .cls-81 {
        fill: #0c9111;
      }

      .cls-82 {
        fill: #1d2533;
      }

      .cls-83 {
        fill: #d29e30;
      }

      .cls-84 {
        fill: #f6b684;
      }

      .cls-85 {
        fill: #1f1d23;
      }

      .cls-86 {
        fill: #02070d;
      }

      .cls-87 {
        fill: #ca7b5b;
      }
    </style>
  </defs>
  <path class="cls-32" d="M216.65,49.53c.04-1.49,1.2-2.59,1.76-3.91,1.32,1.76,3.51,1.74,5.47,3.12-2.96,1.68-5.19.44-7.23.79Z"/>
  <path class="cls-9" d="M198.9,12.26c2.31-3.61,2.55-7.32,5.21-10.76.43,3.44.38,6.9-1.64,10.6,2.53.47,3.55-1.73,4.49-1.5,1.53.38.95,2.87.73,4.31.17-1.1-12.43,2.33-8.79-2.65Z"/>
  <path class="cls-58" d="M120.35,5.61c2.9,1.36,1.98,3.64-1.19,2.94-.84,3.42-2.06,4.66-3.66,3.72-4.94,2.71-9.48,3.07-13.62,1.09-4.5,5.88-18.5,14.07-24.08,7.53-2.43-2.52-1.09-3.8,2.39-3.08,4.98-3.06,10.33-6.09,16.07-9.07,8.51-1.51,15.52-8.85,24.09-3.13Z"/>
  <path class="cls-26" d="M62.28,11.93c4.15.43,10.45,1.76,11.84,5.57,1.54.44,1.46.96-.1,1.57,1.45,2.27-.89,4.71-3.41,3.54-8.55-5.83-17.77-10.48-27.89-8.61,5.17-5.07,12.86-3.36,19.56-2.07Z"/>
  <path class="cls-53" d="M62.28,33.56c.79-1.05,2.57-1.05,5.32,0l2.97-1.93c4.28.83,8.8,1.28,13.56,1.35l12.13-1.62,1.51,2.2c.61-2.78,1.83-3.9,3.65-3.36.41,1.16,1.81,2.19,2.39,3.28.41.77-2,2.16-3.42,2.28l-27.1,2.24c-3.93.32-8.21-2.56-11-4.44Z"/>
  <path class="cls-52" d="M162.11,4.97c5.37,2.7,1.53,5.07-2.24,7.3-6.61-8.06-21.07-6.58-24.84-10.65l19.44-.13c3.41-.02,5.85,1.64,7.64,3.48Z"/>
  <path class="cls-8" d="M156.3,33.24c-.18,2.11-.05,3.86-.75,7.1-4.89-2.32-9.97.06-14.97-3.42,4.28-3.61,8.65-4.99,12.56-6.82,2.88-2.17,4.32-.23,3.16,3.13Z"/>
  <path class="cls-19" d="M60.51,29.92c1.55.53,1.53,1.15,0,1.86-.79,1.92-4.85,1.2-7.1.4-6.11.34-12.01,1.67-17.74-.41.61-.56,1.23-1.11,1.92-1.57.48-3.99,1.76-4.9,3.83-2.74,5.04-4.24,15.18-2.77,19.09,2.46Z"/>
  <path class="cls-18" d="M17.92,19.36c3.44-.49,3.49.95.11,2.22.62,1.76.08,2.25-1.62,1.47-1.14-.37-5.78-.48-7.6.65-1.13.7.11,2.47-1.53,3.89-.5,1.55-1.1,1.53-1.77,0-.42,1.46-1.03,1.08-1.83-1.14.92-6.57,8.76-7.19,13.94-10.17,3.43.28,3.5,1.71.31,3.08Z"/>
  <path class="cls-5" d="M168.74,30.01c4.07-1.46,6.6-.87,7.61,1.77,2.78-2.73,3.9-1.42,1.26,1.77.55.71.02,1.39-1.61,2.05-2.05,1.15-5.47,4.19-8.05,2.55-2.23-1.42-2.75-4.85-5.08-5.14-5.66-2.49,2.3-6.38,5.86-3Z"/>
  <path class="cls-3" d="M122.9,35.66c3.34.91,3.12,2.31-.37,2.6-.44-.09-1.04.04-1.49.12-4.3.37-7.3-.67-9-3.12l-1.79-3.85,3.62-2.71,1.83-1.73c1.68,3.88,4.08,6.78,7.2,8.69Z"/>
  <path class="cls-77" d="M96.27,8.74c-3.78,5.04-10.06,7.55-16.07,9.07-2.96,1.87-3.88.92-1.95-1.99,6.27-1.74,11.6-5.94,18.02-7.07Z"/>
  <path class="cls-67" d="M135.03,31.78c1.5-3.44,4.65-2.04,3.55,1.77-1.06,1.96-.69,4.53-3.15,4.95-2.24.38-3.93.45-5.71.42-4.03-.72-3.49-2.51,1.63-5.37-.97-2.77,1.53-3.21,3.69-1.77Z"/>
  <path class="cls-24" d="M24.44,26.06c.15.52,2.08.39,2.62,1,.4.46-3.13,2.87-3.81,2.95.25,3.54-2.58,4.46-5.37,5.23-4.67,1.15-4.86-5.56-.31-5.24-1.96-4.51,3.42-8.12,6.87-3.94Z"/>
  <path class="cls-62" d="M136.8,24.69c1.36.97,2.84,1.39,4.42,1.27l.75,2.44c.34,2.52-2.49,3.46-3.4,5.16l-3.55-1.77c-1.55-.5-1.53-1.1,0-1.77-2.96.52-3.68-.8-2.16-3.94-1.14-1.34-.6-2.02,1.32-2.16,1.2-.85,2.14-.64,2.61.78Z"/>
  <path class="cls-86" d="M17.56,30c-.91,1.69-1.01,3.77.31,5.24-1.43.88-3.75,1.43-5.29,2.09-.47-3.36-1.25-7.22,1.71-9.52,2.39-2.58,3.8-1.35,3.26,2.19Z"/>
  <path class="cls-25" d="M131.61,3.92c-1.51.62-2.69,1.81-4.08,2.6-.37,2.68-2.66,3.68-3.18.39-2.41,2.46-3.29,1.42-1.3-1.54.78-3.23,3.81-4.11,6.65-4.95l1.91,3.49Z"/>
  <path class="cls-38" d="M131.33,33.56c3.71.93-2.39,3.37-1.63,5.37-2.41-.05-4.81-.16-7.18-.67l.37-2.6c-1.02-4.36-.15-4.45,3.39-1.89,2.87-2.29,4.56-2.36,5.04-.21Z"/>
  <path class="cls-65" d="M158.21,29.43c4.04-.29,3.88,2.05-.12,2.98-.44.27-.96,1.33-1.8.83-1.18-.89-2.39-1.85-3.16-3.13-.29-.48-.17-1.31-.25-1.87.61-3.45,2.63-5.94,5.51-3.41,3.27,1.19,2.5,2.65-.18,4.61Z"/>
  <path class="cls-13" d="M76.47,15.81c1.28,3.11.19,3.9-2.36,1.68l-11.84-5.57c4.59-1.91,10.24,1.34,14.19,3.89Z"/>
  <path class="cls-41" d="M25.02,17.59c-1,2.75-4.53,2.8-7.1,1.77l-.31-3.08c1.85-1.06,3.36-2.63,6.65-3.83,1.36,1.06.65,3.3.76,5.13Z"/>
  <path class="cls-79" d="M5.5,27.6c1.48,2.72,1.39,8.16,0,11.28-1.61.24-2.41-1.15-3.55-1.77-.93-2.67-1.12-7.54,1.77-8.87.02-.58-.14-1.21-.06-1.78.85-.21,1.66.28,1.83,1.14Z"/>
  <path class="cls-10" d="M25.02,17.59c.63.55,1.22,1.15,1.77,1.77-1.04-.01-2.09.92-1.64,2.03-.49.04-.99.11-1.49.12-.97,3.82-4.73,4.32-5.63.07l-.11-2.22c2.11-1.37,4.61-1.81,7.1-1.77Z"/>
  <path class="cls-6" d="M60.51,31.78c2.5-1.5,7.85-1.73,7.1,1.77h-5.32c-2.91,0-6.86,1.17-8.87-1.38l7.1-.4Z"/>
  <path class="cls-78" d="M168.74,19.36h-5.32c.23-2.28,1.7-4.06,3.55-5.32-2.06-2.12-1.07-2.8,1.77-1.77v7.1Z"/>
  <path class="cls-56" d="M3.73,28.23c-.09,3.04-.98,5.95-1.77,8.87C-.26,35.9,0,33.61.01,30.91c0-2.07,1.21-3.32,3.71-2.67Z"/>
  <path class="cls-61" d="M121.04,38.37c-1.89.33-3.68.6-6.38.67-1.79.05-3.04-1.16-2.62-3.79l9,3.12Z"/>
  <path class="cls-57" d="M179.39,33.56c3.08.59,3.13,1.29.07,2.13-1.06-.3-2.37.14-3.45-.09-.45-1.15.55-2.05,1.61-2.05.5-1.55,1.1-1.53,1.77,0Z"/>
  <path class="cls-64" d="M101.42,30.2c.15,1.39-2.32,3.18-3.65,3.36v-5.32c2.23-5.48.71,2.51,3.65,1.97Z"/>
  <path class="cls-70" d="M157.68,16.18c4.24.02,4.31,2.16,1.46,4.79,1.59.36,1.61.95.15,1.75-.33,1.53-.62,1.52-.87-.02-1.86,1.02-3.59,1.91-5.91,3.09-5.82-1.89-2.88-5.69-6.68-10.08-1.56.46-3.37-1.04-5.44-4.5l-3.6-.59c-.98,3.46-2.53,3.47-3.55.02-3.16-.03-4.94-.67-5.32-1.91-2.85.87-2.91-.4-.4-2.2-1.25-3.35,1.41-4.84,4.08-2.6.69-.92,1.31-1.61,1.74-1.5,7.57,1.96,19.93,7.52,24.33,13.76Z"/>
  <path class="cls-17" d="M42.72,14c8.31-4.04,26.36-.25,27.89,8.61,3.15,1.47,2.43,2.79-1.09,2.09-2.81,4.73-21.6.35-25.69-2.26-1.44-.92-2.6-3.23-2.98-4.93-2.94,1.01-3.8-.17-2.12-2.77l3.99-.74Z"/>
  <path class="cls-50" d="M101.32,19.39c1.74-.57,2.33,0,1.75,1.75,3.35,1,3.39,2.6.03,3.67-1.64,1.16-2.36,3.46-1.68,5.39-.93,2.4-2.15,1.75-3.65-1.97-1.9,5.54-21.18,7.84-20.54.36-2.02-1.4-1.84-3.99-.91-6.21.25-2.6.68-2.66,1.29-.14,6.86,1.56,14.07,0,21.62-4.67l2.1,1.8Z"/>
  <path class="cls-51" d="M135.03,1.62c9.45.55,17.75,2.7,24.92,6.44l-.08,4.21c3.56,2.32,1.91,5.08-2.19,3.91-10.74.57-5.97-7.19-26.07-12.26-4.51,2.14-5.4-.14-1.91-3.49,2.47-.72,3.62-.65,5.32,1.19Z"/>
  <path class="cls-4" d="M16.41,23.05c3.83,2.56,1.98,5.18-2.11,4.76.91,2.32,1.25,8.39-1.71,9.52-1.8.77-2.91,3.42-5.31,3.33-1.36-3.84-1.5-9.53,0-13.06-4.63-4.17,7.57-10.57,9.14-4.55Z"/>
  <path class="cls-33" d="M110.19,21.14c3.09-1.82,7.06.22,5.32,3.55,2.36,1.91,1.55,4.22-1.64,4.01,2.43,4.36.27,5.69-3.62,2.71-3.06-1.42-6.38-3.1-7.16-6.6.18-1.16-.34-2.55-.03-3.67-1.48-2.04-.43-4.21,2.07-2.34.49-1.52,1.02-1.43,1.58.15,2.28-.77,4.44-.22,3.47,2.18Z"/>
  <path class="cls-83" d="M168.74,10.49c-2.63,1.66-3.22,2.84-1.77,3.55,1.42,2.77-.63,4.77-3.55,5.32.22,2.2-2.24,2.38-4.28,1.6-1.29-1.23-1.46-3.07-1.46-4.79l2.19-3.91,2.24-7.3c1.79.06,9.93.98,8.27,4.16-.27.52-.89.97-1.65,1.36Z"/>
  <path class="cls-60" d="M182.93,15.81c3.63,5.52,3.75,9.51.36,11.99,3.07.87,4.41,2.38,1.41,4.18,1.12,3.86-1.13,4.79-3.55,1.57-3.03-1.64-3.71-6.22-1.77-8.87-7.44-1.66-9.81-4.02-7.1-7.1,3.13-2.02,7.01-2.37,10.65-1.77Z"/>
  <path class="cls-80" d="M193.58,21.3c1.2.94,3.84,1.96,5.37,1.67,2.54-1.05,3.01-.74,1.73,1.72.73,1.51.06,2.05-1.77,1.77-.44,3.31-1.62,4.44-3.55,3.39-5.5-1.13-12.83-5.43-9.9-11.61,3.23-1.26,5.72,1.17,8.13,3.06Z"/>
  <path class="cls-81" d="M185.45,18.24c1.52,3.5,6.55,9.08,9.9,11.61,1.55.55,1.53,1.2,0,1.93h-1.77c-2.99-.08-8.01-1.65-10.28-3.98-.45-3.98-.38-7.99-.36-11.99.9.15,2.17,1.61,2.52,2.42Z"/>
  <path class="cls-44" d="M38.73,14.73c.49,1.07,1.19,2.03,2.12,2.77,4.23,2.88,7.64,9.21.57,9.96-1.25.95-2.53,1.86-3.83,2.74-.26-3.01-.31-6.04-.14-9.06-2.76-.2-3.83-1.49-1.94-3.86.98-1.02,1.54-2.23,3.23-2.54Z"/>
  <path class="cls-23" d="M145.84,15.69c-.64,3.55,1.42,8.47-1.94,10.77-4.71-.35-4.71-1.53,0-3.55-4.29,1.12-4.39-.12-1.77-3.55-2.58.36-2.58-.82,0-3.55-4.26,1.7-6-1.03-5.32-5.21,3.4-4.26,6.58,2.25,9.03,5.09Z"/>
  <path class="cls-78" d="M179.39,24.69c.5,4.97-2.23,4.78-3.8.25-1.36,5.01-7.02,3.25-6.86-1.85-1.55-.56-1.52-1.21,0-1.94-1.23-.67-.64-1.26,1.77-1.77.64-.51,1.08-1.33,1.77-1.77-.78,4.83,6.04,2.77,7.1,7.1Z"/>
  <path class="cls-40" d="M168.74,30.01c-1.05-.12-2.87.03-4.07.41-.88.28-2.97.99-1.79,2.59l-4.78-.61.12-2.98c.56-4.37,4.78-6.26,7.38-2.8,3.89-2.22,5.63-.4,3.15,3.38Z"/>
  <path class="cls-49" d="M163.42,19.36c1.85-2.9,4.73-3.88,5.32,0h1.77c-.58.46-1.04,1.56-1.77,1.77-2.14,3.44-8.17,6.26-9.45,1.57l-.15-1.75c1.24-.94,2.72-1.47,4.28-1.6Z"/>
  <path class="cls-30" d="M124.35,6.91c3.12,3.32-1.31,8.12-5.3,5.36-2.52-.47-1.64-1.87.11-3.72.13-1.04.79-1.99,1.19-2.94l2.7-.24,1.3,1.54Z"/>
  <path class="cls-39" d="M78.25,15.81c.61.71,1.26,1.37,1.95,1.99-.66,1.12-1.49,2.14-2.39,3.08,1.53.42,1.4.87-.21,1.36-.65-1.05-.98-.99-1.29.14-3.2,1.52-4.08-.18-2.29-3.33l.1-1.57c.76-.57,1.48-1.27,2.36-1.68.49-.23,1.24.15,1.77,0Z"/>
  <path class="cls-35" d="M158.42,22.69c3.45-.28,3.42,1.13-.03,2.14-2.13.6-3.97,1.84-5.51,3.41l-.37-2.46c.3-1.35.98-2.69,2.01-3.69,1.25-1.22,2.78-.39,3.9.6Z"/>
  <path class="cls-87" d="M143.9,26.46l-1.92,1.94c-1.11-.6-2.41-.84-3.51-.75-1.87.15-1.89-1.6-1.66-2.97,1.57-2.18,4.81-3.38,7.1-1.77v3.55Z"/>
  <path class="cls-76" d="M7.28,40.65c-.73-.44-1.31-1.06-1.77-1.77v-11.28h1.77v13.06Z"/>
  <path class="cls-11" d="M168.74,10.49v1.77l-1.77,1.77c-1.47-.15-2.96.43-5.42-.38,1.51-3.38,4.31-3.56,7.19-3.17Z"/>
  <path class="cls-85" d="M205.97,28.22c3.12.22,6.14.45,9.06.67l-.46,2.88c-.63.7-3.42,2.03-3.04,2.67l1.57,2.66c.42,1.66-.76,2.14-3.55,1.43-3.48-1.59-7.99-.3-10.72-3.13-1.5-2.1-.5-2.36,3-.79l.62-1.06c-2.66-.67-2.59-4.69,0-5.58.62-4.19,2.71-3.97,3.52.25Z"/>
  <path class="cls-42" d="M216.65,30.01c-.57.72-1.48,1.1-2.08,1.77-1.04-2.87-4.48.33-6.72-1.04-.85-.52-1.37-1.59-1.87-2.52-1.54-.53-1.51-1.12.03-1.76,2.82-.63,5.77-1.22,8.87-1.77.52-1.12,1.12-1.1,1.77,0,2.38.81,2.74,4.67,0,5.32Z"/>
  <path class="cls-15" d="M226.54,35.14c-1.76-1.73-3.88-3.04-6.35-3.35-2.14-1.64-2.9-4.46,0-5.32,2.66-.48,4.61.33,6.5,3.18,1.2,1.81,3.17,3.55-.15,5.5Z"/>
  <path class="cls-14" d="M213.1,37.11c1.17-.09,3.05-.36,3.55.91.43,1.11.01,2.29-.92,2.62-.78.27-1.84-.06-2.69.07-.86-.78-2.45-1.66-3.49-2.17.68-1.29,2.22-1.44,3.55-1.43Z"/>
  <path class="cls-16" d="M220.19,26.46v5.32l-3.55-1.77v-5.32h1.77c.45.7,1.21,1.18,1.77,1.77Z"/>
  <path class="cls-46" d="M214.87,22.91c1.46,0,2.74.51,3.55,1.77h-3.55c-2.78.93-6.6,1.83-8.87,0-1.55-.5-1.53-1.1,0-1.77h8.87Z"/>
  <path class="cls-43" d="M192,33.66c-.05.87,1.25,3.94-.35,4.56-4.72,1.82-8.54-1.51-12.19-2.53l-.07-2.13c.5-1.46,1.1-1.43,1.77,0l3.55-1.57c-.58-4.22,6.85-1.68,7.29,1.68Z"/>
  <path class="cls-36" d="M193.58,31.78c-.48.66-1.01,1.29-1.58,1.88-2.14-1.33-4.99-2.69-7.29-1.68-.59-1.35-1.06-2.75-1.41-4.18,3.89-.38,7.3,1.61,10.28,3.98Z"/>
  <path class="cls-29" d="M202.45,33.56c2.89.6.9,1.79.19,1.8l-3.81.04-3.48-3.62v-1.93c1.32-.98,2.43-2.2,3.55-3.39,1.37,2.49,2.55,4.85,3.55,7.1Z"/>
  <path class="cls-7" d="M206,22.91v1.77c1.55.5,1.53,1.1,0,1.77l-.03,1.76-3.52-.25c-2.42,1.64-2.88-.95-1.77-3.29-.26-.75-1.23-1.15-1.73-1.72,1.33-.26,2.33-2.44,4.27-1.86.95.28,1.98,1.31,2.79,1.8Z"/>
  <path class="cls-31" d="M115.51,12.26c4.06,2.1,1.7,3.88-7.1,5.32,1.8,1.98.76,2.59-1.7,1.36l-1.58-.15c-1.8-1.92-3.07-1.73-3.82.59-3.79.55-20.85,14.16-23.72,2.86l.21-1.36c22.04-1.6,18.39-13.12,37.7-8.62Z"/>
  <path class="cls-69" d="M119.06,12.26c3.53,1.97,5.97,0,6.62-3.74l2.26.19c1.72-.92,4.21.72,5.32,1.91-.99,4.14-2.77,7.1-5.34,8.87-3.12,1.24-6.66.61-10.63-1.91-.5,1.55-1.1,1.53-1.77,0-1.37,1.18-6.3,2.52-7.1,0,1.2-2.32,3.75-2.8,6.57-2.34.64-1.28.27-2.29.53-2.98.63-1.71,1.88-3.21,3.66-3.72-.15,1.21-.09,2.5-.11,3.72Z"/>
  <path class="cls-45" d="M133.25,10.63c1.18.06,2.37.05,3.55-.02,2.39.95,4.36,2.8,5.32,5.21l-3.55,5.32c1.15,2.81-2.4,3.38-4.37,1.51-2.68,3.09-6.64,1.63-6.3-3.16,0-2.23-.51-4.64.8-7.25.64-1.26,2.66-1.9,4.54-1.62Z"/>
  <path class="cls-72" d="M168.74,21.14v1.94c4.05,3.16,1.08,5.91-3.15,3.55-2.47.92-5.06,1.54-7.38,2.8-.04-1.54.02-3.08.18-4.61l.03-2.14.87.02c3.23.09,6.36-.68,9.45-1.57Z"/>
  <path class="cls-12" d="M127.53,6.52l.4,2.2c-2.12,1.13-1.53,4.72-3.02,5.05-2.3.5-5.89,1.22-5.85-1.5,1.65.13,3.43-.26,4.29-1.77.61-1.08.84-2.35,1.01-3.59.92-.41,2.33.09,3.18-.39Z"/>
  <path class="cls-50" d="M69.52,24.69c2.83-3.64,4.4-2.59,5.18,1.77,1.53.73,1.42,1.41-.22,2.04-2.31,4.13-6.97,4.6-13.97,1.43-6.48-.16-12.71-1.22-19.09-2.46,2.01-3.15-1.84-6.52-.57-9.96,7.35,3.17,20.85,6.38,28.67,7.19Z"/>
  <path class="cls-28" d="M74.02,19.06c.87,1.03,1.68,2.12,2.29,3.33-.13,1.81-.66,3.17-1.61,4.07-1.87-.1-3.72-.56-5.18-1.77l1.09-2.09c.78-1.5,1.86-2.83,3.41-3.54Z"/>
  <path class="cls-27" d="M74.48,28.49l2.75.1c5.71,5.28,14.26,3.14,20.54-.36,2.2,1.08,2.27,3.68,0,5.32-3.67.5-7.78-.71-12.15.47-6.24,1.68-12.54,2.04-18.02-.47-2.47-1.13-3.78-1.96-7.1-1.77v-1.86c4.73.12,9.2-.89,13.97-1.43Z"/>
  <path class="cls-66" d="M105.14,18.8l-2.07,2.34c-.51-.66-1.1-1.24-1.75-1.75v-4.37c.01-1.76,1.93-.29,2.63.74.44.66.74,1.64,1.2,3.05Z"/>
  <path class="cls-47" d="M77.22,28.6c-.23.7-.5,1.41-.97,2.3s-1.09.48-1.24-.06c-.33-1.16-.59-1.82-.54-2.34-.04-.66.32-1.38.22-2.04-.23-1.66,0-3.28,1.61-4.07.49,2.04.79,4.11.91,6.21Z"/>
  <path class="cls-55" d="M23.66,21.51c.14,1.48.36,3.14.78,4.55-2.73.38-5.12,1.83-6.87,3.94-1.2-.56-2.28-1.32-3.26-2.19,1.4-1.09,1.65-3.22,2.11-4.76.56-.27,1.33-.92,1.62-1.47,1.84-.17,3.77-.04,5.63-.07Z"/>
  <g>
    <path class="cls-82" d="M37.44,21.14c3.47,2.16,2.62,6.22.14,9.06.56,1.55-.16,2.01-1.92,1.57-3.69-1.34-9.14,1.73-12.42-1.76-.49-.92-.09-2.23,1.19-3.94-3.75-.73-4.05-2.6-.78-4.55.13-1.57.64-1.56,1.49-.12,3.8-1.27,9.7-3.05,12.29-.26Z"/>
    <path class="cls-22" d="M37.44,21.14c-4.1-.04-8.2-.09-12.29.26-4.29-.88-2.06-3.85,1.64-2.03,2.96.03,6.48.23,8.71-2.09,1.41.76,2.02,2.31,1.94,3.86Z"/>
    <path class="cls-2" d="M29.69,30.1c-2.57-.5.4-1.67.64-3.61-.52-2.5,2.44-2.22,3.69-1.05.71.67.71,1.52.3,3.05-.39,1.43-1.75,1.75-4.63,1.61Z"/>
  </g>
  <path class="cls-1" d="M119.06,24.69c3.02,1.15,3.02,2.33,0,3.55,4.45,1.02,7.47,3.22,3.84,7.43-1.51-.67-3.29-.03-5.13-.5-.56-3.52-1.68-5.64-3.9-6.46.08-1.49.46-3.03,1.64-4.01-.66-2.9.52-2.9,3.55,0Z"/>
  <path class="cls-75" d="M115.51,19.36c1.68-1.24,4.73,3.35,3.55,5.32h-3.55c-.79-2.42-2.99-3.28-5.32-3.55-2.27-3.02,3-3.55,5.32-1.77Z"/>
  <path class="cls-21" d="M115.51,17.59c1.55.5,1.53,1.1,0,1.77-1.93-.08-4.52-.38-5.32,1.77-1.26-.15-2.32-1.72-3.47-2.18.37-.57,1.4-.78,1.7-1.36h7.1Z"/>
  <path class="cls-63" d="M179.39,24.69c1.69,2.64,1.96,5.8,1.77,8.87-.51.22-1.2,0-1.77,0h-1.77c.23-1.15-.23-1.5-1.26-1.77-4.72-1.8-4.98-4.05-.76-6.85l3.8-.25Z"/>
  <path class="cls-20" d="M202.45,27.97c.33,1.81-.22,3.76,0,5.58-2.38.71-3.68-.79-3.64-2.66.04-1.74-.07-3.08.09-4.44.57-.61,1.15-1.21,1.77-1.77.38,1.1,1.57,2.16,1.77,3.29Z"/>
  <path class="cls-74" d="M175.59,24.93c.53,2.25.78,4.54.76,6.85-2.79-1.06-3.33,2.83-6.01,3.69-2.93.94-1.57-4.03-1.6-5.46-.37-1.39-2.07-2.54-3.15-3.38l3.15-3.55,6.86,1.85Z"/>
  <path class="cls-84" d="M143.9,22.91c-2.1,1.39-4.6,1.87-7.1,1.77l-2.61-.78c-1.59,0-1.51-.44.01-1.25,1.68.84,3.31-.8,4.37-1.51.04-2,1.92-2.95,3.55-1.77.7,1.1,1.77,2.12,1.77,3.55Z"/>
  <path class="cls-48" d="M142.12,19.36c-.55,1.58-2.54,1.09-3.55,1.77-2.98-.27-.76-2.16.01-2.81,1.39-1.17,2.31-1.95,3.53-2.51.4,1-.51,2.62,0,3.55Z"/>
  <path class="cls-59" d="M135.03,30.01v1.77c-1.43.07-2.73.73-3.69,1.77l-5.04.21c-4.15-3.08-.67-4.72,3.41-3.76-.28-3.02,4.67-2.72,5.32,0Z"/>
  <path class="cls-68" d="M134.21,22.65v1.25c-.51.69-.94,1.41-1.34,2.16.74,3.31-4.74,2.53-6.72.4-1.48,1.73-4.31.89-3.55-1.77.7-2.48,2.47-4.21,5.31-5.19l6.3,3.16Z"/>
  <path class="cls-37" d="M132.87,26.06c2.52-.15,2.16,3.52,2.16,3.94h-5.32c-3.36,2.69-4.3,2.72-3.55-1.77-1.55-.5-1.53-1.1,0-1.77l6.72-.4Z"/>
  <path class="cls-54" d="M126.16,28.23l3.55,1.77-3.41,3.76c-.93.95-2.09,1.62-3.39,1.89-1.28-2.6-3.71-4.67-3.84-7.43-.07-3.16,4.92-1.93,7.1,0Z"/>
  <path class="cls-16" d="M214.87,24.69c-2.33,2.38-5.78,1.99-8.87,1.77v-1.77h8.87Z"/>
  <path class="cls-34" d="M127.91,19.49c0,1.14.36,3.12-.01,4.22-.44,1.3-4.3,1.67-5.29.97-2.9-.82-5.95-4.23-5.32-7.1,3.21-4.01,7.39-.72,10.63,1.91Z"/>
  <path class="cls-73" d="M122.61,24.69c-.04,2.66-2.87,2.6-3.55,0l-3.55-5.32v-1.77h1.77l5.32,7.1Z"/>
  <path class="cls-71" d="M122.61,24.69c.97.8,2.21,1.85,3.55,1.77v1.77h-7.1c-.38-.54-1.16-1.16-.81-1.83s.48-1.25.81-1.72h3.55Z"/>
</svg>