<?xml version="1.0" encoding="UTF-8"?>
<svg id="Enemy" xmlns="http://www.w3.org/2000/svg" viewBox="0 0 73.2 169.3">
  <defs>
    <style>
      .cls-1 {
        fill: #e8aa8b;
      }

      .cls-2 {
        fill: #969596;
      }

      .cls-3 {
        fill: #f6b89b;
      }

      .cls-4 {
        fill: #959492;
      }

      .cls-5 {
        fill: #969a98;
      }

      .cls-6 {
        fill: #a4a49f;
      }

      .cls-7 {
        fill: #646464;
      }

      .cls-8 {
        fill: #95725d;
      }

      .cls-9 {
        fill: #939190;
      }

      .cls-10 {
        fill: #222320;
      }

      .cls-11 {
        fill: #5c5d5b;
      }

      .cls-12 {
        fill: #343636;
      }

      .cls-13 {
        fill: #e2aa8e;
      }

      .cls-14 {
        fill: #755951;
      }

      .cls-15 {
        fill: #959897;
      }

      .cls-16 {
        fill: #423c35;
      }

      .cls-17 {
        fill: #313131;
      }

      .cls-18 {
        fill: #979898;
      }

      .cls-19 {
        fill: #757677;
      }

      .cls-20 {
        fill: #b0b4b4;
      }

      .cls-21 {
        fill: #816858;
      }

      .cls-22 {
        fill: #858586;
      }

      .cls-23 {
        fill: #737674;
      }

      .cls-24 {
        fill: #4e5253;
      }

      .cls-25 {
        fill: #ba9581;
      }

      .cls-26 {
        fill: #969495;
      }

      .cls-27 {
        fill: #666664;
      }

      .cls-28 {
        fill: #242322;
      }

      .cls-29 {
        fill: #797b7b;
      }

      .cls-30 {
        fill: #5e605f;
      }

      .cls-31 {
        fill: #2a2a2a;
      }

      .cls-32 {
        fill: #828484;
      }

      .cls-33 {
        fill: #656362;
      }

      .cls-34 {
        fill: #818686;
      }

      .cls-35 {
        fill: #a5a9a7;
      }

      .cls-36 {
        fill: #e4a785;
      }

      .cls-37 {
        fill: #5d5c57;
      }

      .cls-38 {
        fill: #efb897;
      }

      .cls-39 {
        fill: #777a7c;
      }

      .cls-40 {
        fill: #362518;
      }

      .cls-41 {
        fill: #a4877d;
      }

      .cls-42 {
        fill: #484a49;
      }

      .cls-43 {
        fill: #e4a98d;
      }

      .cls-44 {
        fill: #69594b;
      }

      .cls-45 {
        fill: #fdc4a6;
      }

      .cls-46 {
        fill: #989a97;
      }

      .cls-47 {
        fill: #babbb6;
      }

      .cls-48 {
        fill: #99908a;
      }

      .cls-49 {
        fill: #ae8b75;
      }

      .cls-50 {
        fill: #57595b;
      }

      .cls-51 {
        fill: #bbb8b6;
      }

      .cls-52 {
        fill: #a86e4f;
      }

      .cls-53 {
        fill: #9b9c9a;
      }

      .cls-54 {
        fill: #888b88;
      }

      .cls-55 {
        fill: #946143;
      }

      .cls-56 {
        fill: #555758;
      }

      .cls-57 {
        fill: #545858;
      }

      .cls-58 {
        fill: #2a2928;
      }

      .cls-59 {
        fill: #b18162;
      }

      .cls-60 {
        fill: #cd987c;
      }

      .cls-61 {
        fill: #777575;
      }

      .cls-62 {
        fill: #818483;
      }

      .cls-63 {
        fill: #965e49;
      }

      .cls-64 {
        fill: #cc9a82;
      }

      .cls-65 {
        fill: #e9ac91;
      }

      .cls-66 {
        fill: #8f8f8f;
      }

      .cls-67 {
        fill: #a48570;
      }

      .cls-68 {
        fill: #626262;
      }

      .cls-69 {
        fill: #8b8b8a;
      }

      .cls-70 {
        fill: #0d0c08;
      }

      .cls-71 {
        fill: #6e6e6b;
      }

      .cls-72 {
        fill: #fff;
      }

      .cls-73 {
        fill: #0f0c0b;
      }

      .cls-74 {
        fill: #646665;
      }

      .cls-75 {
        fill: #eab8a0;
      }

      .cls-76 {
        fill: #9b6f58;
      }

      .cls-77 {
        fill: #fecfb0;
      }

      .cls-78 {
        fill: #3c3c3c;
      }

      .cls-79 {
        fill: #9a6d5c;
      }

      .cls-80 {
        fill: #1e1d1a;
      }

      .cls-81 {
        fill: #8c8d88;
      }

      .cls-82 {
        fill: #6c5850;
      }

      .cls-83 {
        fill: #be8366;
      }

      .cls-84 {
        fill: #292724;
      }

      .cls-85 {
        fill: #080604;
      }

      .cls-86 {
        fill: #707371;
      }

      .cls-87 {
        fill: #6a3d27;
      }

      .cls-88 {
        fill: #bf8a76;
      }

      .cls-89 {
        fill: #656967;
      }

      .cls-90 {
        fill: #7c655b;
      }

      .cls-91 {
        fill: #32322f;
      }

      .cls-92 {
        fill: #606060;
      }

      .cls-93 {
        fill: #6a696a;
      }

      .cls-94 {
        fill: #555959;
      }

      .cls-95 {
        fill: #a5a9a8;
      }

      .cls-96 {
        fill: #ab745e;
      }

      .cls-97 {
        fill: #88573e;
      }

      .cls-98 {
        fill: #d19c80;
      }

      .cls-99 {
        fill: #5f6261;
      }

      .cls-100 {
        fill: #818583;
      }

      .cls-101 {
        fill: #fcbe9d;
      }

      .cls-102 {
        fill: #e0af93;
      }

      .cls-103 {
        fill: #686b69;
      }

      .cls-104 {
        fill: #858685;
      }

      .cls-105 {
        fill: #3b362f;
      }

      .cls-106 {
        fill: #8d8d8d;
      }

      .cls-107 {
        fill: #b4b4b0;
      }

      .cls-108 {
        fill: #201c1b;
      }

      .cls-109 {
        fill: #757877;
      }

      .cls-110 {
        fill: #db9c7a;
      }

      .cls-111 {
        fill: #727375;
      }

      .cls-112 {
        fill: #575755;
      }

      .cls-113 {
        fill: #6b6d6e;
      }

      .cls-114 {
        fill: #646765;
      }

      .cls-115 {
        fill: #3c3d3c;
      }

      .cls-116 {
        fill: #433531;
      }

      .cls-117 {
        fill: #5f6263;
      }

      .cls-118 {
        fill: #161412;
      }

      .cls-119 {
        fill: #846658;
      }

      .cls-120 {
        fill: #e8b090;
      }

      .cls-121 {
        fill: #8a8c8e;
      }

      .cls-122 {
        fill: #878b8a;
      }

      .cls-123 {
        fill: #402f27;
      }

      .cls-124 {
        fill: #40372e;
      }

      .cls-125 {
        fill: #9e6f5b;
      }

      .cls-126 {
        fill: #303533;
      }

      .cls-127 {
        fill: #5d4034;
      }

      .cls-128 {
        fill: #80543f;
      }

      .cls-129 {
        fill: #a0a1a3;
      }

      .cls-130 {
        fill: #737373;
      }

      .cls-131 {
        fill: #c89478;
      }

      .cls-132 {
        fill: #373b3a;
      }

      .cls-133 {
        fill: #aaabab;
      }

      .cls-134 {
        fill: #737572;
      }

      .cls-135 {
        fill: #747677;
      }

      .cls-136 {
        fill: #262827;
      }

      .cls-137 {
        fill: #41413f;
      }

      .cls-138 {
        fill: #888a8e;
      }

      .cls-139 {
        fill: #a7806d;
      }

      .cls-140 {
        fill: #878682;
      }

      .cls-141 {
        fill: #464749;
      }

      .cls-142 {
        fill: #daa184;
      }

      .cls-143 {
        fill: #737476;
      }

      .cls-144 {
        fill: #856653;
      }

      .cls-145 {
        fill: #7f807d;
      }

      .cls-146 {
        fill: #be886d;
      }

      .cls-147 {
        fill: #2c2b29;
      }

      .cls-148 {
        fill: #77422d;
      }

      .cls-149 {
        fill: #462216;
      }

      .cls-150 {
        fill: #3a3a3a;
      }

      .cls-151 {
        fill: #76634b;
      }

      .cls-152 {
        fill: #d09d83;
      }

      .cls-153 {
        fill: #313332;
      }

      .cls-154 {
        fill: #808183;
      }

      .cls-155 {
        fill: #4e4d4e;
      }

      .cls-156 {
        fill: #686868;
      }

      .cls-157 {
        fill: #50514e;
      }

      .cls-158 {
        fill: #292b2a;
      }

      .cls-159 {
        fill: #444;
      }

      .cls-160 {
        fill: #dba382;
      }

      .cls-161 {
        fill: #0b0a09;
      }

      .cls-162 {
        fill: #f8c7b2;
      }

      .cls-163 {
        fill: #7e7f7f;
      }

      .cls-164 {
        fill: #e4a98a;
      }

      .cls-165 {
        fill: #1a1a1b;
      }

      .cls-166 {
        fill: #4b4d4a;
      }

      .cls-167 {
        fill: #cb9780;
      }

      .cls-168 {
        fill: #665648;
      }

      .cls-169 {
        fill: #474034;
      }

      .cls-170 {
        fill: #71736f;
      }

      .cls-171 {
        fill: #646465;
      }

      .cls-172 {
        fill: #fccfb3;
      }

      .cls-173 {
        fill: #12100d;
      }

      .cls-174 {
        fill: #39393c;
      }

      .cls-175 {
        fill: #d29c7f;
      }

      .cls-176 {
        fill: #73593d;
      }

      .cls-177 {
        fill: #7c8081;
      }

      .cls-178 {
        fill: #404141;
      }

      .cls-179 {
        fill: #515050;
      }

      .cls-180 {
        fill: #744c3c;
      }

      .cls-181 {
        fill: #b4b2b3;
      }

      .cls-182 {
        fill: #47484a;
      }

      .cls-183 {
        fill: #615f5f;
      }

      .cls-184 {
        fill: #939693;
      }

      .cls-185 {
        fill: #ebba9b;
      }

      .cls-186 {
        fill: #292d2d;
      }

      .cls-187 {
        fill: #edb49c;
      }

      .cls-188 {
        fill: #433325;
      }

      .cls-189 {
        fill: #99634a;
      }

      .cls-190 {
        fill: #6b554b;
      }

      .cls-191 {
        fill: #d09e84;
      }

      .cls-192 {
        fill: #5d4135;
      }

      .cls-193 {
        fill: #292016;
      }

      .cls-194 {
        fill: #5f4d40;
      }

      .cls-195 {
        fill: #666865;
      }

      .cls-196 {
        fill: #b3b3b1;
      }

      .cls-197 {
        fill: #2a2e2d;
      }

      .cls-198 {
        fill: #656a6a;
      }

      .cls-199 {
        fill: #5c5f5c;
      }

      .cls-200 {
        fill: #a16f59;
      }

      .cls-201 {
        fill: #d8a28d;
      }

      .cls-202 {
        fill: #8a5c46;
      }

      .cls-203 {
        fill: #939695;
      }

      .cls-204 {
        fill: #64686a;
      }

      .cls-205 {
        fill: #d59d80;
      }

      .cls-206 {
        fill: #a1a2a1;
      }

      .cls-207 {
        fill: #797978;
      }

      .cls-208 {
        fill: #2b2a26;
      }

      .cls-209 {
        fill: #82513b;
      }

      .cls-210 {
        fill: #c9b7ae;
      }

      .cls-211 {
        fill: #949595;
      }

      .cls-212 {
        fill: #5e6060;
      }

      .cls-213 {
        fill: #1c1915;
      }

      .cls-214 {
        fill: #484848;
      }

      .cls-215 {
        fill: #d09c80;
      }

      .cls-216 {
        fill: #545654;
      }

      .cls-217 {
        fill: #a07157;
      }

      .cls-218 {
        fill: #b88772;
      }

      .cls-219 {
        fill: #9da09f;
      }

      .cls-220 {
        fill: #ebb08b;
      }

      .cls-221 {
        fill: #909493;
      }

      .cls-222 {
        fill: #9a9e9a;
      }

      .cls-223 {
        fill: #b3b3b3;
      }

      .cls-224 {
        fill: #828282;
      }

      .cls-225 {
        fill: #545454;
      }

      .cls-226 {
        fill: #7f8280;
      }

      .cls-227 {
        fill: #75675d;
      }

      .cls-228 {
        fill: #3c3934;
      }

      .cls-229 {
        fill: #616463;
      }

      .cls-230 {
        fill: #989c98;
      }

      .cls-231 {
        fill: #d08c6a;
      }

      .cls-232 {
        fill: #e5ad8e;
      }

      .cls-233 {
        fill: #605f5a;
      }

      .cls-234 {
        fill: #946348;
      }

      .cls-235 {
        fill: #6e4b30;
      }

      .cls-236 {
        fill: #78503b;
      }

      .cls-237 {
        fill: #7f5741;
      }

      .cls-238 {
        fill: #6d6e6e;
      }

      .cls-239 {
        fill: #444643;
      }

      .cls-240 {
        fill: #979797;
      }

      .cls-241 {
        fill: #292929;
      }

      .cls-242 {
        fill: #898b89;
      }

      .cls-243 {
        fill: #b37f63;
      }

      .cls-244 {
        fill: #dea991;
      }

      .cls-245 {
        fill: #444845;
      }

      .cls-246 {
        fill: #a47259;
      }

      .cls-247 {
        fill: #828688;
      }

      .cls-248 {
        fill: #634234;
      }

      .cls-249 {
        fill: #522b19;
      }

      .cls-250 {
        fill: #906c59;
      }

      .cls-251 {
        fill: #c99b86;
      }

      .cls-252 {
        fill: #9c9e9d;
      }

      .cls-253 {
        fill: #241816;
      }

      .cls-254 {
        fill: #787877;
      }

      .cls-255 {
        fill: #654f37;
      }

      .cls-256 {
        fill: #bf8c75;
      }

      .cls-257 {
        fill: #a9735b;
      }

      .cls-258 {
        fill: #eeb798;
      }

      .cls-259 {
        fill: #2e2c2d;
      }

      .cls-260 {
        fill: #be8b75;
      }

      .cls-261 {
        fill: #949697;
      }

      .cls-262 {
        fill: #704b3b;
      }

      .cls-263 {
        fill: #f7b993;
      }

      .cls-264 {
        fill: #c5937a;
      }

      .cls-265 {
        fill: #95654c;
      }

      .cls-266 {
        fill: #484a4a;
      }

      .cls-267 {
        fill: #828583;
      }

      .cls-268 {
        fill: #727071;
      }

      .cls-269 {
        fill: #5c5d5c;
      }

      .cls-270 {
        fill: #5b5e5f;
      }

      .cls-271 {
        fill: #fcc2a0;
      }

      .cls-272 {
        fill: #848788;
      }

      .cls-273 {
        fill: #7b7e7e;
      }

      .cls-274 {
        fill: #676767;
      }

      .cls-275 {
        fill: #707270;
      }

      .cls-276 {
        fill: #1d150d;
      }

      .cls-277 {
        fill: #9a9f99;
      }

      .cls-278 {
        fill: #d89e80;
      }

      .cls-279 {
        fill: #5c3a29;
      }

      .cls-280 {
        fill: #694835;
      }

      .cls-281 {
        fill: #0d0b07;
      }

      .cls-282 {
        fill: #909292;
      }

      .cls-283 {
        fill: #d39775;
      }

      .cls-284 {
        fill: #59392a;
      }

      .cls-285 {
        fill: #5c5c5c;
      }

      .cls-286 {
        fill: #797673;
      }

      .cls-287 {
        fill: #939593;
      }

      .cls-288 {
        fill: #c38d71;
      }

      .cls-289 {
        fill: #edad8a;
      }

      .cls-290 {
        fill: #b5b5b5;
      }

      .cls-291 {
        fill: #8d5f47;
      }

      .cls-292 {
        fill: #707272;
      }

      .cls-293 {
        fill: #919291;
      }

      .cls-294 {
        fill: #875335;
      }

      .cls-295 {
        fill: #b48d7e;
      }

      .cls-296 {
        fill: #a2a2a2;
      }
    </style>
  </defs>
  <g id="KingBruteBreaker">
    <g>
      <path class="cls-237" d="M57.86,68.16c.68-1.74,1.56-.35,2.27.99l.29,2.08c-.47,2.25-2.06,4.08-4.42,4.12-1.08-1.35-1.63-4.53-.83-6.49.11-.28.46-.46.87-.61-.12-2.52.84-2.42,1.82-.08Z"/>
      <path class="cls-16" d="M54.02,63.13c1.58,1.05,3.37,1.6,4.8,2.86.38.99.23,2.15-.96,2.16-.53-.23-1.25.18-1.82.08l-2.04-1.1c-1.01,1.83-1.9,1.37-1.78-.78-2.81-.02-2.71-1.38-.11-2.23-.7-1.45,1-2.3,1.91-1.01Z"/>
      <path class="cls-193" d="M60.13,69.14l-2.27-.99c.19-.7-.15-2.3.96-2.16.98.86,1.13,1.81,1.31,3.15Z"/>
      <path class="cls-14" d="M56.04,68.24l-.04,7.11c-.51.2-1.09.83-1.73.83-.52-1.01-.95-2.36-1.27-4.03-.69-.35-.66-.72.04-1.1-1.07-1.82-1.12-2.97.96-3.9.22-.45.91-1.12,1.3-.81.61.48.59,1.28.74,1.91Z"/>
    </g>
    <path class="cls-82" d="M33.71,18.88c1.34,1.41,3.25,2.22,5.73,2.43,1.04,1.16.16,1.69-2.64,1.57-2.81,1.98-4.77,2.07-5.89.28-.12-.21.06-.62,0-.88-.35-1.65,1.79-2.25,2.23-3.29l.57-.12Z"/>
    <path class="cls-180" d="M19.05,47c1.93-.26,1.99.54.07,1.15-.23,2.02-1.54,3.68-3.12,1.99.86-1.24.85-2.72,1.17-4.13.77-.03,1.54.27,1.88.99Z"/>
    <path class="cls-218" d="M20,48.93c1.08,1.48-.39,2.69-2,3.21l-2.13-1c.11-.29-.05-.75.13-1,1.31-.14,2.31-1,3.12-1.99.94-.55,1.36-.17.88.78Z"/>
    <path class="cls-128" d="M45,25.14l1.07,1.18c3.64-.76,3.57,5.67.02,2.58-1.21-1.46-5.26-2.74-3.43-4.84.92-1.87,2.29-.89,2.34,1.08Z"/>
    <path class="cls-201" d="M45,25.14c-.55-.61-1.58-.7-2.34-1.08.17-.2-.05-.69.06-.94.75-.4,1.18-1.16,1.2-2.01.68.48.99,1.27,1.38,2.15.24.54,1.26,1.84-.3,1.88Z"/>
    <path class="cls-189" d="M19,52.14c-.31-.02-.73.13-1,0,.71-1.04,1.41-2.1,2-3.21.25-.16.65,0,.92-.1,5.51-1,.71,4.88-1.92,3.31Z"/>
    <path class="cls-284" d="M57,23.14c.1,1.18,2.24,1.08,3,1v1h-5c-3.63-1.44-.88-4.5,2-2Z"/>
    <path class="cls-205" d="M38,51.14c1.4.8,1.93,1.64,0,2,1.53,1.08-.67,3.54-2,2-.87-.28-.86-.62,0-1-.92-1.04-2.25-1.47-3.37-2.22-1.83-2.26.45-5.82,3.23-2.05.07.09-1.44-1.31.14-1.83,1.1.46,1.73,1.96,2,3.1Z"/>
    <path class="cls-87" d="M44.99,44.2c-.54,2.25-3.38,2.25-5,.94-.28.87-.62.86-1,0,0-.74.26-1.44.56-2.09,1.66-.77,7.17-1.67,5.44,1.16Z"/>
    <path class="cls-217" d="M40,52.14c1.45-2.57,4.65-.76,4,2,.38,2.16-3.15,2.71-4,1-2.5.7-2.56.5-2-2,.09-.56.13-1.45,0-2h1c.44-.33.77,0,1,1Z"/>
    <path class="cls-55" d="M40.19,46.3c1.9.61,1.98,1.32.02,1.79,2.35,1.65,2.29,2.66-.21,4.06-.34-.17-1-.48-1-1v-6h1c1.76.11,1.84.45.19,1.15Z"/>
    <g>
      <path class="cls-295" d="M30.91,23.18c3.99,0,1.98,2.76.28,5.04.13,4.04-2.64,1.56-1.23-1.23-1.16.28-2.1.28-2.83.02-1.46.58-1.56.34-1.04-1.03l1.91-2.66c1.03-.17,2.01-.52,2.92-1.03.87.2.84.5,0,.88Z"/>
      <path class="cls-250" d="M27.12,27.01c1.86.82.92,3.2-1.12,2.13-.09,4.85-3.46,8.94-2,2,.49-1.62.29-3.5,1.01-5.09.35-.04.73.03,1.07-.07.77-.21,1.21.25,1.04,1.03Z"/>
      <path class="cls-8" d="M22.53,34.39c1.87.2.91,1.02-.55,1.82,1.68.17,1.36.75-.96,1.74,2.01,1.16.25,4.65-1,6.29-1.09.11-1.75-1.05-1.99-3.47.37-2.8,1.61-5.71,4.51-6.38Z"/>
      <path class="cls-76" d="M26.17,33.3c.66,3.74-1.14,5.54-4.19,2.91.23-.42.6-1.34.55-1.82-.1-1.1,1.19-2.33,1.46-3.25.17,1.01-.66,2.48.84,3.11.37-2.3-.25-4.01,1.16-5.11,2.39-.4,2.06,3.27.17,4.16Z"/>
      <path class="cls-289" d="M29.95,26.99c-.26,3.75.38,7.38,1.91,10.9,1.32,2.52,1.35,4.61.09,6.27,1.97,1.21-1,3.99-2.76,2.88-4.6.51-8.46-5.46-2.09-5.81-1.78-3.01-2.09-5.65-.93-7.92-.63-1.11.25-2.97-.17-4.16.65-.51.96-1.4,1.12-2.13.54-.38,1.05-.85,1.86-1.3s1.13.63.97,1.28Z"/>
      <path class="cls-125" d="M42.72,23.12c.87.33.84.64-.06.94,1.52,1.39,2.67,3,3.43,4.84-2.08,3.01-4.56-.46-6.08-2.93-2.46-.68-4.75.13-6.89,2.41l-1.39-.05c-.1.88-.29.82-.55-.11.16-1.71.72-3.52-.28-5.04,2.67-.48,5.6-.23,7.99-1.67l-4.2-.48c-.81-.09-1.98-1.12-.99-2.14.3.06.89-.15,1.12.03,1.7.24,7.41,1.31,8.07,2.79.17.37.03.88-.19,1.42Z"/>
      <path class="cls-110" d="M31.18,28.22l.55.11c1.79-.34,1.83.49.33,1.56,1.93,1.35,1.4,2.95-.34,4.2,2.71,2.26,2.76,3.53.14,3.79-3.79,1.48-3.09-12.98-1.91-10.9-.1.42-.25,1.41.52,2.14.21.2.45-.71.71-.91Z"/>
      <path class="cls-236" d="M20.02,44.25c.8.79.69,1.47-.36,1.8,1.71.98,1.28,1.63-.62.96-1.68,1.56-1.82,1.2-1.88-.99.39-1.74.62-3.47.86-5.23,1.76.43,1.14,2.37,1.99,3.47Z"/>
      <path class="cls-231" d="M27.09,41.23c-2.52,1.47-3.32.92-2.82-1.96-1.54.76-2.36-.15-3.25-1.31l.96-1.74c1.83-.11,3.3-1.35,4.19-2.91-.16-.27,4.11,9.55.93,7.92Z"/>
      <path class="cls-36" d="M24.27,39.26c1.73,1.99-.38,5.03-2.99,4.79,1.51,1.64,1.42,2.34-.29,2.08-.19,1.91-.92,1.84-1.34-.1.09-.59.32-1.2.36-1.8.15-2.16-.06-4.37,1-6.29.71-.35,1.62-.74,2.28-.43.77.36.59,1.38.97,1.74Z"/>
      <path class="cls-283" d="M39.61,42.14c.86.3.83.61-.06.91,2.15,1.15,1.76,1.71-.56,2.09,1.05,1.22.8,4.5,0,6-.28.87-.62.86-1,0-1.2.69-1.56.07-1.08-1.88l-.92-1.22c-1.05.47-2.27.92-3.67,1.36l-.92,2.52c-.36,1.55-2.01.82-2.47-.59-1.22-2.42-1.14-3.85.26-4.29l2.76-2.88c.22-2.33,1.66-3.8,4.03-2.85.28-1.26,3.07-5.29,3.8-5.4,2.3-.33,2.67,5.53-.16,6.23Z"/>
      <path class="cls-101" d="M27.09,41.23c-.28,1.41-1.64,2.06-2.2,3.71,2.11.4,3.48.8,4.29,2.1.02,1.44-.09,2.87-.26,4.29-.39.65-.7.57-.93-.19-2.29-.47-3.45-1.67-1.94-3.88-2.78-.41-4.37-1.48-4.77-3.2,1.05-1.58,1.61-3.47,2.99-4.79.82.8,1.89,1.32,2.82,1.96Z"/>
      <path class="cls-271" d="M31.72,34.09c-.73-1.39-.69-2.87.34-4.2.38-.49,1.42-.36,1.81-.73,1.67-.27,3.69.35,4.65,2,.65,1.12-.03,3.74-1.8,5.1-1.15.89-3.82-1.4-5-2.15Z"/>
      <path class="cls-13" d="M25,47.35c.41,3.15-1.85,3.33-4.08,1.49-.11.89-.42.9-.92.1-.67.42-1.15-.09-.88-.78.13-.35-.16-.8-.07-1.15s.56-.61.62-.96l1.34.1c1.23-.45,3.16.17,4,1.2Z"/>
      <path class="cls-77" d="M26.06,47.26c-.22.91-.57.92-1.06.09-1.45.09-3.02-.02-4-1.2.26-.59-.07-1.55.29-2.08,1.48,1.77,3.66,1.1,4.77,3.2Z"/>
      <path class="cls-1" d="M36,48.04c.11.56.73,1.09.73,1.54s-1.02,1.81-1.28,1.43c-.86-1.27-1.84-2.39-2.56-1.61-.64.7-1.22,2.16-.27,2.52-.31-.14-.87-.01-1.23,0,.3-1.74.4-3.53,1.43-5.21l3.16,1.33Z"/>
      <path class="cls-43" d="M40.01,25.97l3.06,3.38c3.88-.38,6.59,3.65,4.93,6.79,2.34,1.23-.74,4.7-3.01,5.09.6,2.09-3.78,1.39-5.37.91-1.05-1.43.43-2.82.2-5.13-1.55,1.48-2.77,2.8-3.84,4.3-.28-4.49,7-6.96,4.13-10.67-1.66-2.14-4.3-3.73-6.24-1.48.48,2.66-.04,2.7-1.81.73-.23-.49-.44-1.01-.33-1.56,1.49-1.64,3.01-4.03,5.41-5.06,1.99-.86,2.15,2.03,2.86,2.69Z"/>
      <path class="cls-263" d="M35.98,41.3c-1.02,1.43-2.09,2.8-4.03,2.85-.98-2.37-2.59-4.51-.09-6.27-.15-1.13.42-2.73-.14-3.79l.92-.99c3,1.51,4.37,1.13,4.09-1.15-1.45-.61-2.41-1.55-2.86-2.8-1-.98.29-2.32,1.46-2.78,3.4-1.32,9.97,6.95,5.2,10.6-2.27-.87-3.7,2.35-4.56,4.33Z"/>
    </g>
    <path class="cls-167" d="M46.08,28.9c2.61-1.19,2.74-.51,2.53,2.13,3.07-.19,3.62,3.77.64,4.96.15,1.93-.6,2.01-1.27.15,0-2.03-.58-5.01-2.68-5.76-.45-.16-1.4,1.86-1.83,1.67.54.24-4.46-5.38-3.48-6.08,1.21,1.13,4.28,3.44,6.08,2.93Z"/>
    <path class="cls-200" d="M47.08,41.4c1.77.48,1.68,1.21-.08,1.63.77,2.49-.16,2.85-2.01,1.17-.96-1.94-3.65-.89-5.44-1.16.12-.26-.02-.63.06-.91,1.82-.09,3.68-.17,5.37-.91,1.44-1,2.14-.94,2.1.17Z"/>
    <path class="cls-3" d="M40.94,39.81c1.14-2.83,2.08-5.05,3.67-6.78,3.88,1.88-3.6,8.25-3.67,6.78Z"/>
    <path class="cls-59" d="M50.1,36.8c.73.51.74.94-.1,1.34-.44,2.84-1.41,3.92-2.91,3.26l-2.1-.17c1.53-1.36,2.96-2.96,3.01-5.09l1.27-.15c.38.15.61.53.84.82Z"/>
    <path class="cls-256" d="M53.11,26.19c-.12,1.16-.12,2.2-1.12,2.95-2.24,1.89-2.17-1.1-1-3l-1-2c-.05-1.16.29-1.83,1-2,.81,1.34.87,2.99,2.12,4.05Z"/>
    <path class="cls-148" d="M52,29.14c-.84.63-1.5,1.67-3.06,1.97.08-2.2,1.32-3.36,1.06-4.97.3.09.68-.06,1,0-.04,1.09-.15,2.5,1,3Z"/>
    <g>
      <path class="cls-169" d="M46.14,2.15c2.37-.84,7.36-1.77,5.98,1.88,2.07-.39,1.3,1.13-.12,2.1-.35.57-.68.56-.99-.03-.38,2.17-2.58,2.13-3.37.23-1.78,1.02-3.12,2.31-4.02,3.86l-1.52-.06c-.63.25-1-.39-1.1-1.91.25-2.33,2.23-3.83,3.05-6,.6.12,1.55-.4,2.1-.07Z"/>
      <path class="cls-276" d="M42.1,10.14c2.84-.09,1.86,4.5-1.17,3.01-.26-.67-.6-1.3-1.03-1.88.45-.96.97-1.97,1.09-3.04,1.17-.23.76,1.29,1.1,1.91Z"/>
      <path class="cls-105" d="M58.04,3.1c.24,0,.54.06.77.15,2.66,2.95-1.17,3.47-3,1.11-.38.82-.66.73-.86-.19-1.15.61-2.1.57-2.82-.13-1.52-2.09-4.04-.74-5.98-1.88,5.16-5.35,10.19.96,11.9.95Z"/>
      <path class="cls-194" d="M47.63,6.34c3.42,1.32,1.29,2.24-1.66,2.82.92,2.77.85,5.1-.22,6.99-.15,2.54-.97,3.55-2.7.88-.9,1.65-2.93,1.13-2.98-.82-2.44.95-5.64.59-2.26-.93,1.79-.19,2.7-.41,3.12-2.14.22-.93,1.94-1.6,1.17-3.01.94-1.33.95-3.12,2.55-4.64,1.39-.18,1.88,1.35,2.98.84Z"/>
      <path class="cls-90" d="M37.81,15.29c-2.51.94,2.89.84,2.26.93,1.4,2.48-1.81,2.06-3.89,1.76.82,1.01.37,1.33-1.35.94.07,1.51-.61,1.43-1.12-.03-.18-.03-.38.11-.57.12.84-1.98,2.34-3.48,4.67-3.72Z"/>
      <path class="cls-168" d="M51,6.11c2.38.2,2.16,2.57-.12,3.28-.32.85-.64.78-.94-.12-2.41,1.16-3.74,1.12-3.97-.1.92-.71,1.91-1.56,1.66-2.82,1.01-.46,2.31-.1,3.37-.23Z"/>
      <path class="cls-124" d="M54.94,4.17c1.67,2.33.62,3.08-1.94,1.78-.16.96-.5,1.02-1,.19l.12-2.1c.52-.27,1.02-.48,1.71-.64.46-.1,1.05.04,1.12.77Z"/>
      <path class="cls-44" d="M53,5.96c1.94-1.15,2.85.74,1.08,2.09,1.02,2.1-.84,2.84-2.24,1.38-.24.87-.56.84-.96-.03.8-.98,1.02-2.3.12-3.28.33-.04.67.1.99.03.3-.06.73-.04,1-.19Z"/>
      <path class="cls-168" d="M61.42,7.14l-.16,1.16c-1.02,2.54-1.33,2.37-2.29-.14-1.81,1.54-4.46,2.92-4.89-.12l-1.08-2.09c.78-.43,1.41-1.09,1.94-1.78l.86.19c1.67.41,3.39,1.02,5.18,1.82l.43.96Z"/>
      <path class="cls-251" d="M61.26,8.3c-.13.93-.17,1.88-.31,2.82-.05.31.01.63-.02.94-.13,1.96-.94,2.03-1.73.22-.33,1.62-1.32,1.13-2.2-.13-.88-.29-.88-.66-.03-1.1-1.71-1.26-1.04-2.22,2.01-2.88.73-.14,1.55.23,2.29.14Z"/>
      <path class="cls-124" d="M61.42,7.14c-2.13-.41-4.94-.38-5.61-2.78.54.65,1.41.92,2.1.29.39-.36.66-.9.9-1.4,1.62.63,2.85,2.15,2.61,3.89Z"/>
      <path class="cls-88" d="M47.95,17.03c-.8,2.15-.57,4.48.69,6.99l-1.32,1.06c1.02,1.71.45,2.28-1.25,1.24-1.49.73-2.01.2-1.07-1.18-.97-1.31-1.33-2.66-1.08-4.03-1.27,1.22-2.78-.17-1.94-1.8-1.59-1.57-1.15-2.52,1.08-2.28.87.18,1.91-.65,2.7-.88-.21-1.88.6-2.28,1.97-.98,2.67-.17,2.64.78.22,1.86Z"/>
      <path class="cls-144" d="M49.94,9.27c.12,1.19-.23,2.49-1.05,3.89,2.45,1.57,1.66,2.71-1.16,2.02-.58.48-1.26.77-1.97.98-1.09-.47-1.28-5.84.22-6.99,1.32-.02,2.66-.07,3.97.1Z"/>
      <path class="cls-264" d="M43.05,17.04c-.28.79-.65,1.56-1.08,2.28-.64,1.9-5.68.58-5.78-1.34,1.06-1.12,3.09-.34,3.89-1.76,1.09-.15,1.99.61,2.98.82Z"/>
      <path class="cls-187" d="M41.97,19.32c.5.75,1.22,1.28,1.94,1.8.93,1.92.91,2.94-1.2,2.01-1.83-2.59-5.38-2.28-7.88-4.21-.09-.81,1-.57,1.35-.94,1.41,1.59,3.82.98,5.78,1.34Z"/>
      <path class="cls-67" d="M51.84,9.42c2.21-.13,3.92.42,5.13,1.62l.03,1.1c-1.23.29-.71.59,1.55.88l-.48,1.24c-.94,1.06-2.59,1.42-3.23-.07-1.32,2.89-4.38.72-5.94-1.04-.74.02-2.3-.5-1.68-2.1.36-.91,2.28-.92,2.73-1.79l.94.12.96.03Z"/>
      <path class="cls-151" d="M58.97,8.17c-.76.89-1.48,1.83-2.01,2.88-.98.21-2.06.4-3.4.3-.76-.06-1.85-.62-1.72-1.92l2.24-1.38c1.63.27,3.26.43,4.89.12Z"/>
      <path class="cls-288" d="M58,18.14c-.42.86.27,1.17,2.09.92,2.07-.49,2.08.37,1.12,2.15-.38.96.01,2.33-1.21,2.92-.77,1.07-4.44.75-3-1-2.48.4-5.2.3-4.01-3.07-.07-2.74,3.11-3.98,5.01-1.93Z"/>
      <path class="cls-116" d="M60.92,12.06c1.23.57.74,2.12,1.2,3,1.13,2.41-.03,3.87-1.96,1.87-2.59.25-2.63-.63-1.14-2.64-1.3-1.06-1.78-2.02.16-2.01l1.73-.22Z"/>
      <path class="cls-41" d="M61.21,21.22c-.22-.79-.57-1.54-1.12-2.15-2.05.36-1.08-.96.08-2.14,1.01-.25,1.94-.66,1.96-1.87.55,1.04,1.74,1.81,1.32,3.24-.33,1.11-1.79,1.79-2.24,2.92Z"/>
      <path class="cls-262" d="M57,12.14l2.2.13-.16,2.01c-.29.87-.61.85-.97-.02-.17-1.73-2.25-.83-4.12-1.28.66-1.34,2.05-.74,3.06-.84Z"/>
      <path class="cls-142" d="M54.83,14.2c1.36.79,1.85.98,3.23.07l.97.02c.59.77.97,1.68,1.14,2.64-.45,1.36-.83,2.17-2.17,1.22-1.72.57-3.16,1.89-5.01,1.93-1.44.17-3.99-.99-4.88-2.13-.86-.01-.88-.33-.15-.91l-.22-1.86c.63-.52,1.01-1.22,1.16-2.02,1.48-1.52,4.04.81,5.94,1.04Z"/>
      <path class="cls-63" d="M48.1,17.94c2.27.6,2.54,1.73.79,3.39,1.37-.41,1.73,1.57,1.1,2.82,1.14-.69,1.81,1.05,1,2-.27.88-.61.87-1,0-.92-.28-1.8-.67-2.67-1.06.31-2.4-.74-4.64-2.36-6.51,1.43-.77,2.28-.98,2.99-1.53.03.29.19.62.15.91Z"/>
      <path class="cls-162" d="M58.06,14.26c.07.74-1.14,1.61-1.74,1.88-.97.43-1.41-1.33-1.49-1.95l3.23.07Z"/>
      <path class="cls-96" d="M52.99,20.07c.72,1.45,3.83,1.05,4.01,3.07-.42-.02-.96-.08-1.41.15-.63.32-.68,1.2-.59,1.85-.56,0-1.81.4-1.88,1.05-1.89,1.27-2.12-2.2-2.12-4.05-.57-.2-1.27-.48-2.1-.82-.92-.91-.97-2.14-.79-3.39,2.36-.26,4.08-.06,4.88,2.13Z"/>
      <path class="cls-232" d="M60.09,19.07c-.88.44-1.47,1.5-3.15.92.34-.86.94-1.21,1.06-1.84.76-.25,1.41-1.03,2.17-1.22l-.08,2.14Z"/>
      <path class="cls-244" d="M51,22.14c.02.8-.19,1.68-1,2-.43-.86-.36-2.08-1.1-2.82-.01-.97.67-1.56,1.17-.73l.94,1.55Z"/>
    </g>
    <path class="cls-209" d="M40,55.14c-.28.62-.62.61-1,0,.62,1.49.75,2.2-1,2,1.09,2.03-.6,2.69-2,1v-1c-1.44-.16-1.53-1.72,0-2,.85-.35,1.83-1.01,2-2,.93.35,1.65,1.07,2,2Z"/>
    <path class="cls-246" d="M36,54.14v3c-.74.07-1.75.18-1.99-.52-.3-.86-.04-2.21.77-2.5.35-.12.65,0,1.22.01Z"/>
    <path class="cls-102" d="M43.91,47.04c.15.95.05,2.51-1.39,1.83-.6-.28-1.53-.49-2.31-.78l-.02-1.79c1.21.37,2.45.67,3.72.74Z"/>
    <path class="cls-260" d="M41.06,57.45c2.11,1.71.27,2.31-2.05,1.63-1.86.41-2.35-.45-1.01-1.94.08-.77.31-1.57,1-2,.43.97,1.19,1.73,2.07,2.31Z"/>
    <path class="cls-257" d="M39.01,59.08c.88-.16.93.11.23.77,1.26,1.41.76,1.94-.89,1.02-.64-.77-1.37-1.43-2.35-1.72v-1l2-1c.2.71.55,1.36,1.01,1.94Z"/>
    <path class="cls-278" d="M43.92,57.1c-.16.7.42,1.7-.03,2.45-.59.98-2.03.63-2.98.58-.72,1.01-1.34.85-1.66-.29l-.23-.77c.96-.11,1.82-.66,2.05-1.63l2.85-.35Z"/>
    <path class="cls-49" d="M52.1,64.14l.11,2.23c-1.28,1.07-2.91.78-4.08-.3l-.14-.93c-.31-2.57-.09-2.52,2-1,.61-.21,1.46.12,2.11,0Z"/>
    <g>
      <path class="cls-79" d="M50,26.14c.25,1.79.92,2.79,2,3-.48-1.1-.27-2.9,1.12-2.95-1.08-2.78.06-3.4,1.88-1.05.88-1.28,2.55-1.28,5,0v1h-4c.67,3.17.72,6.17.15,8.98,1.42,1.52,1.1,2.37-.96,1.92-.73.73-1.8.47-3.2-.77l-1.89.54c-1.33,1.31-1.84.78-.84-.82.26-2.47-.86-5.86-3.18-7.09.47-.04,2.04-.08,1.33-1-.46-.61-.9-1.08-1.35-1.58.44-.39.86-.8,1.25-1.24,1.3-1.63,2.3-.86,2.67,1.06Z"/>
      <path class="cls-119" d="M57.87,36.19c.36,1.91,1.44,3.55,2.34,5.26-.02.27.04.55,0,.82-.66,1.61-.98,3.53-.97,5.76l-1.25.11c-1.01-.55-1.16-2.22-.44-4.99-2.36-2.31-3.15-4.35-2.37-6.11.49-.54.83-1.2.96-1.92.55.39,1.13.75,1.72,1.07Z"/>
      <path class="cls-60" d="M55.19,37.04c3.18,2.8,3.05,7.07,2.81,11.1,1.47,1.2.92,2.51-1,2-.28.87-.62.86-1,0-.87-.2-.93-.54-.16-1-2.66-1.15-3.09-3.08.28-2.8-.05-1.57-1.06-4.96-3.04-4.44-.2-2.16-.89-3.75-2.07-4.76-.51.81-.8.67-.9-.34-.12-1.29,1.46-1.65,2.47-1.39.9.23,1.87.96,2.63,1.63Z"/>
      <path class="cls-215" d="M48.33,45.14c3.55,1.51.38,3.93-2.08,2.15-1.15,1.29-1.93,1.21-2.34-.25-.76,1.56-3.33.77-3.72-.74l-.19-1.15c1.72,0,3.49-.06,5-.94l2.01-1.17c1.04-.07,1.48.63,1.33,2.1Z"/>
      <path class="cls-185" d="M48.33,45.14c-.52.04-1.01-.18-1.18-.62-.2-.52-.17-1.03-.15-1.48.02-.54.03-1.09.08-1.63l2.91-3.26c1.75,2.38,2.41,7.08-1.67,7Z"/>
      <path class="cls-131" d="M46.25,47.29c1.03.2,1.95.04,2.78-.48l.83,2.3c1.33-.32,2.94-.46,4.13.11.43-1.66,1.23-1.68,1.84-.08.13.29.11.69.16,1,.91.24.89.58,0,1l-.38,1.23c-3.6-.72-6.13-.46-7.62.77.87.28.86.62,0,1,.8,1.57.49,2.07-1.08,1.1-.17,2.67-1.12,2.52-1.9-.02-1.57,1.1-2.09.51-1.02-1.09l-4-2c-.02-1.36.05-2.71.21-4.06,1.78-.1,3.01-.45,3.7-1.04-.15-.99.88-1.01,1.24-.57.2.24,1.09.49,1.1.82Z"/>
      <path class="cls-191" d="M44,54.14c.42.21.65.76,1.02,1.09,1.31,1.49.82,2.27-1.1,1.87-.13,2.05-2.24,2.37-2.85.35-1.81,1.06-2.7-.49-2.07-2.31.3-.08.71.07,1,0l4-1Z"/>
      <path class="cls-120" d="M56.11,46.35c-.78.77-.69,1.85-.28,2.8-.57.35-1.3.3-1.84.08l-4.13-.11c-1.08-.78-3.54.27-3.61-1.82.58.29,1.62-.44,2.09-1.07.23-.31.41-.53-.01-1.09.91-2.3,2.3-4.5,1.67-7-.11-.41.14-.91.1-1.34.21.1.67.34.9.34,1.03.66,1.63,1.83,1.8,3.51,3.1,1.5,4.21,3.39,3.31,5.7Z"/>
      <path class="cls-291" d="M54.02,63.13c-.55-.27-1.59.59-1.91,1.01,0,1.97-1.67,1.92-2.11,0-2.08.96-2.47-3.08,0-2,.28-.87.62-.86,1,0,.84-.91,1.5-1.91,2-3,.28-.87.62-.86,1,0l.02,3.99Z"/>
      <path class="cls-248" d="M57.18,56.15l-3.19,2.99h-1c-.87-.28-.86-.62,0-1-1.33-1.41-.77-1.92,1-1-.38-1.18-.15-2.49,1-3,.29-.66.63-.64,1,0l1.19,2.01Z"/>
      <path class="cls-192" d="M59,52.14c-.91-.1-.85-.45,0-1-.97.08-1.64-.25-2-1,.46-.52.46-1.56,1-2,2.11-1.72.05-7.02,2.22-5.88-.56,3.4.5,10.48-1.22,9.88Z"/>
      <path class="cls-149" d="M59,51.14c-.03.33.02.67,0,1-.85.93-1.65,2-3,2h-1c-.11,1.12-1.18,1.68-2,1-.99.32-1.32-.01-1-1-.87-.28-.86-.62,0-1,.07-1.23,3.37-1.06,4,0,.29-1.98,1.11-2.98,3-2Z"/>
      <path class="cls-175" d="M56.11,46.35c-.05-.51.2-1.76-.55-1.87s-1.68,1.15-2.42.25c-.05-.45,1.86-1.87,1.77-2.09-.4-.98-1.55.13-2.59.34-.69-2.01-.07-4.17-1.32-5.83,2.23-.51,1.6,2.64,2.88,3.91,1.09,1.07,3.41.9,3.3,2.67-.05.87-.34,1.9-1.07,2.62Z"/>
      <path class="cls-127" d="M59,51.14c-1.25.2-2.23,1.03-3,2-2.66-.19-2.66-.86,0-2,0-.33.05-.68,0-1h1c.84,0,2.12-.16,2,1Z"/>
      <path class="cls-160" d="M46.91,55.25c1.06.12,1.76,1.08,2.08,2.89.78,1.23-.6,2.82-2,2-1.39,4.67-6.42,4.56-6.09,0,.22-1.28,1.73-2.25,3.01-3.03.16-.68.82-1.24,1.1-1.87l1.9.02Z"/>
      <path class="cls-97" d="M56,51.14v2h-4c-.83,0-1.83,0-3,0-.28.87-.62.86-1,0-.75-.38-1.62-.68-2.04-1.84,5.1-1.1,7.95,1.71,10.04-.16Z"/>
      <path class="cls-64" d="M52,54.14c.29.38.62.71,1,1,1.35-.46,1.33.83,1,2l-1,1c-1.35.22-2.35-.11-3-1-1.48,1.33-2.55-1.55-2-3v-1h1c1.11-.61,2.42-.08,3,1Z"/>
      <path class="cls-258" d="M50,57.14c.91.1.85.45,0,1-.28.87-.62.86-1,0-.77.13-1.76.13-1.67-.94.05-.6-.07-1.34-.41-1.96l1.08-1.1,2,3Z"/>
      <path class="cls-175" d="M54,49.22c-1.56.66-2.84.83-4.13-.11.42-.98,1.5-1.13,2.57-1.03.61.06,1.75.09,1.57,1.13Z"/>
      <path class="cls-25" d="M49,61.14c1.74-1.47,2.33-.9,1,1-.4.3-.73.77-.75,1.38,0,.47.2.78.75.62-.63.37-1.21.94-2,1-1.03-.26-1.36-1.26-1-3-.87-.28-.86-.62,0-1,.62-1.19,1.83-1.63,2,0Z"/>
      <path class="cls-75" d="M52,59.14c.79,1.04.21,2.49-1,3h-1c.13-.69-.34-1-1-1-1.58-.47-.34-1.86,1-2-.09-1.99,1.34-1.79,2,0Z"/>
      <path class="cls-25" d="M51,62.14c.15-1.05.46-2.08,1-3,.28-.85.62-.83,1,0,0,.7.17,1.5-.09,2.4-.2.69-1.18.6-1.91.6Z"/>
      <path class="cls-202" d="M53,58.14v1h-3c-.82-.32-.82-.66,0-1,.04-.33-.02-.67,0-1-.13-2.57,1.49.51,3,1Z"/>
      <path class="cls-210" d="M55,54.14c.16,1.14-.16,2.16-1,3-.62-.48-.91-1.23-1-2,.24-.89,1.2-1,2-1Z"/>
      <path class="cls-249" d="M52,53.14v1c-1.05-.17-2.06-.5-3-1,.34-.5.85-.89,1.46-.97.67-.08,1.09.87,1.54.97Z"/>
      <path class="cls-243" d="M40.9,60.13c.77.88,1.99,2.83,3,2.14l3.1-2.13c.87.28.86.62,0,1v1c.29,1.13.27,2.64-.87,3.01-.93-.67-2.37-1.08-3.02.09-.38-.06-.77-.09-1.15-.1-.32-2.01-2.39-2.8-3.61-4.27.17-.45.63-.66.89-1.02.67-.91,1.13-.31,1.66.29Z"/>
      <path class="cls-265" d="M50,59.14l-1,2h-2v-1c.79-.54,1.58-1.13,2-2h1c-.04.3.13.73,0,1Z"/>
    </g>
    <path class="cls-172" d="M48,65.14l.14.93c-.5-.47-1.44-.51-2.01-.92-.22-1.1-.02-2.26.87-3.01,1.22.46.84,1.95,1,3Z"/>
    <path class="cls-115" d="M71.05,160.22c-1.5-.19-3.11.45-5.13-.53,1.29-.91,2.83-.58,3.81-1.65,1.01.16,1.3,1.31,1.33,2.19Z"/>
    <g>
      <path class="cls-241" d="M17,166.13c1.19-.55,2.6-.31,3,1,1.76-.86,5.24-1.31,5,1-.15.53-.82.87-2,1l-1-.1c-3.15-.27-6.04-1.27-9.18-1.97-.75-.47-1.04-1.5-1.72-2.01-.84-.84-.95-1.43-.33-1.79,1.72-1.36,4.94,1.26,6.23,2.87Z"/>
      <path class="cls-165" d="M4,154.34c.16,1.76,1.74,3.32,4.73,4.67,2.66,1.78,3.33,3.2,2.03,4.26l.33,1.79c-1.3-.98-2.45-2.14-3.88-2.94-1.56-.64-3.04-1.35-4.42-2.13-.69-.26-.94-1.18-1.51-1.54.12-.92-.23-2.07-1.06-3.45.17-.48.71-1.1.69-1.62,1.86-3.27,5.32-2.32,3.09.95Z"/>
      <path class="cls-70" d="M10.91,136.23c1.28-1.44,1.85-.93,1.09.91,1.25-.58,1.7-.17.95,1.05,2.91-.02,4.62.66,5.14,2.02.71-.57,1-.3.92.69l2.73.91c2.12-1.46,5.02-3.27,3.19.08,2.73,2.62.26,3.64-2.65,4.05,0,1.34-.76,3.23-2.1,2.21-1.17,2.97-1.15,4.64.06,4.98l1.37.21c1.59,2.82,3.43,5.4,5.52,7.73,2.04-1.23,2.21-1.19,1.98,1.12.74,1.57.74,3.33.85,5.03.87.88.42,1.95-.86,2.07-1.91-.14-4.17.03-6.1-.17.45-.66,1.23-.92,2-1-1.32-1.31-.76-1.7,1-1l.5-1.22c-3.67.36-6.55.07-8.64-.85-.38.25-.73.42-.95.32-2.16-.94-11.25-7.81-13.12-9.62-.2-.19-.04-.76.22-1.42-.26-.2-.4-1.15-.83-1.34-.31-.13-.81.52-1.34.78-.66.32-1.05.28-.92-.39-.1-2.97,2.02-5.52,2.13-8.44l-.56-2.2c1.34.22,2.49-.36,3.44-1.73-.86-1.24-.67-3.21,1.07-2.99-1.07-3.02-.45-4.63,1.85-4.83,2.07-.58,2.42,1.17,2.06,3.02Z"/>
      <path class="cls-70" d="M1.28,158.45c-1.26-.78-1.54-2.05-1.06-3.45,1.12.76,1.99,1.85,2.94,2.75-1.08.75-1.29,1.42-1.88.69Z"/>
      <path class="cls-58" d="M17.86,165.06c.49.78.15,1.12-.86,1.07-2.05-1.01-4.25-1.71-6.23-2.87-1.24-6.74-14.07-5.4-6.77-8.93,3.25,1.77,11.44,10.28,13.86,10.72Z"/>
      <path class="cls-17" d="M26,167.13c-2.01-.77-4.01-.77-6,0-1.08-.08-2.05-.54-3-1,.25-.38.54-.74.86-1.07,8.83,1.62,10.9-3.3,10.1,1.52-.09.57-1.34.55-1.97.55Z"/>
      <path class="cls-159" d="M26,167.13l-1,1c-.95-1.73-3.34-.87-5-1,1.25-1.68,4.75-1.68,6,0Z"/>
      <path class="cls-228" d="M20.18,148.14c.05,1.57-.47,3.44.06,4.98-.78.52-.81,1.45-2.51,2.33.39-2.34-2.25-2.84-2.38-4.23-.08-.89,2.21-2,2.31-3.13.33,2.11-1,3.58.71,4.98.79-2.97.89-3.83,1.8-4.93Z"/>
    </g>
    <path class="cls-274" d="M22,138.14c1.2-.53,2.27-.26,2.04,1.11-1.35,1.3-3.17,1.73-5.03,1.65-.32-.21-.63-.44-.92-.69.75-.54,1.45-1.16,1.99-1.92.34-1.46,1.05-1.34,1.92-.15Z"/>
    <path class="cls-268" d="M15,136.14c.19-1.43,1.64-1.42,2,0-.5,1.78-2.35,2.23-4.05,2.05-.25-.38-.6-.76-.95-1.05.6-1.19,2.06-.35,3-1Z"/>
    <path class="cls-113" d="M52.92,138l.08,1.14-8.03.02c-1.58,0-2.87-.87-3.08-2.07,3.09-1.78,5.38-1.97,6.87-.58-1.13.59-.74.48,1.18-.34,1.51-1.42,2.97.11,2.99,1.83Z"/>
    <path class="cls-62" d="M52.82,134.12l1.04,3.7c-.31-.02-.64.15-.95.18-1.31.1-2.24-.85-2.99-1.83-4.31-1.4.48-4.25,2.89-2.05Z"/>
    <g>
      <path class="cls-118" d="M69.73,158.03l1.33,2.19c.88.18.87.49.02.92-3.08,2.35-7.45.53-11.17.78-.64.04-1.28-.51-1.89-.64-1.74-.37-1.92-.58-.24-1.35-3.2-2.57-.65-2.79,2.53-2.78,2.94,1.64,4.23,1.91,3.89.82-4.01-4.79,3.82-4.29,5.53.06Z"/>
      <path class="cls-84" d="M46.12,156.12c1.77-2.25,2.61-2.04,3.08.78,1.51-2.72,8.3.66,3.64,3.3h-1.83c-6.61,1.05-8.95-.58-7.01-4.89.7-.35,1.41-.08,2.13.81Z"/>
      <path class="cls-80" d="M45,154.13c2.53-1.24,3.06.06,1.12,1.99-.41.1-1.22-.2-1.62.03-.78.45-.66,1.79-.45,2.47.52,1.68,6.39-.12,6.95,1.57-.32.33-.73.58-1,.94-1.52.64-3.73.97-5,0h-2c-1.1-2.73-1.01-11.31,2-7Z"/>
      <path class="cls-208" d="M50,161.13c-1.16,1.57-3.27.99-5,1.02v-1.02h5Z"/>
      <path class="cls-115" d="M57.77,159.93l.24,1.35c-1.69-.34-4.13.62-5.18-1.08-.27-2.93,4.24-3.04,4.94-.27Z"/>
      <path class="cls-173" d="M71,156.13c.93.48,2.44.44,2.17,2-.07,1.07-.46,2.09-1.14,2.92-.25-.04-.71.04-.95.08l-.02-.92c-1.51-.11-2.1-.76-1.33-2.19-1.81-.29-3.29-1.23-4.34-2.99-.66,1.43-.49,2.31-1.19,2.93-1.42.97-4.41-.19-3.38-2.01-1.95-.67-2.39-1.29-1.33-1.84-2.69.29-5.5-.6-3.46-3.04.1-2.02,1.48-1.92,2.96-1.09l12.01,6.15Z"/>
      <path class="cls-173" d="M57.74,138.19c-.28,1.01-.53,2.02-.75,3.04-.5,2.3-.88,4.66.15,6.85-.98.51-1.69,1.22-2.14,2.15-.45,1.95-1.26,1.96-1.79.03-.93,1.79-2.96,2.27-3.36-.13.01-1.34,1.15-2.95,2.17-4,.75-2.21,1.07-4.54.97-7-1.74-.13-1.8-.64-.08-1.14,0-.91.33-.94.95-.18,1.66-2.43,2.71-2.33,3.87.38Z"/>
      <path class="cls-85" d="M57.14,148.09c.72.46,1.28,1.35,1.84,1.9-.4,1.29-1.83,1.31-2.96,1.09-1.17,1.57-1.81,1.03-1.02-.83l-2.01-2.74c1.81-1.44,2.97-.17,4.14.58Z"/>
      <path class="cls-161" d="M41.88,137.09c2.95,1.43,5.82,1.73,8.61.9l2.5,1.15c2.01-.52,2.4,5.28,1.66,6.05-.53.55-1.67.77-2.62.95-.29.87-.64.86-1.03,0-2.22-1.03-4.1-.84-5.63.55,2.53,2.07,4.8,8.62-.37,7.45-.49.12-1.8-.1-1.95.97-.33,2.27.08,4.19-.05,6.03-2.72-.64.59-11.17-1.81-16.06-.13-.26.02-.66-.06-.94-1.66.34-2.29-2.97-1.14-4-.7-1.95-.66-3.34.12-4.15.42-6.38,11.02.12,1.76,1.11Z"/>
      <path class="cls-73" d="M55.08,155.04c.4-2.26,5.5-1.41,5.73.92,1.12.56,1.85,2.15,3.38,2.01,4.33,3.65-7.01-1.89-6.42,1.96l-4.94.27c-.43-.7.1-2.11-.78-2.69s-1.93-.42-2.86-.61c-2.89-1.34-2.31-3.11.82-2.72,2.21-.83,3.9-.54,5.07.86Z"/>
      <path class="cls-281" d="M51,146.14c-.08,1.24-.46,2.57-1.14,4,1.11.05,2.25-.03,3.36.13,1.95.16,1.89,1.61-.15,1.76,1.82,1.87-1.16,2.72-3.05,2.15-.87.61-.86,1.71-.82,2.72-1.03-.21-2.02-.68-3.08-.78l-1.12-1.99c1.33-.33,1.25-2.87.74-4.18-.32-.83-2.4-1.29-2.46-2.68-.14-3.03,3.66-3.31,6.01-4.89.98,1.15,1.12,2.5,1.71,3.75Z"/>
      <path class="cls-213" d="M55.01,150.24l1.02.83c.27.56.41,1.21.99,1.66.7.54,1.71,0,2.79.1,1.46.13,1.19,2.17,1.01,3.12-1.73-.86-3.87-.83-5.73-.92-2.11-.34-3.06-.99-2.02-3.01l.15-1.76c.59.08,1.2-.02,1.79-.03Z"/>
      <path class="cls-108" d="M52.03,146.14c.43,1.76-.57,3.28-2.17,4-1.32-.06-1.01-1.45-.45-2.12.53-.63.75-1.53,1.59-1.89h1.03Z"/>
      <path class="cls-173" d="M55.08,155.04c-1.67-.07-4.05.85-5.07-.86l3.05-2.15c.9.83,1.55,1.88,2.02,3.01Z"/>
    </g>
    <path class="cls-188" d="M21.86,68.53c2.47,1.81,1.29,4.13-1.52,4.24-1.88,1.06-2.49-1.39-1.18-2.64.44-.62,1.01-1.15,1.7-1.48.33.43.64.14,1-.12Z"/>
    <path class="cls-137" d="M20.34,72.77c.8.48.78.93-.05,1.34.71,3.85-3.86,3.59-2.29.23l-.32-3.79,1.49-.41c-.08,1.04.3,2.05,1.18,2.64Z"/>
    <path class="cls-197" d="M64.34,114.49c-.32.58-.5,1.23-1.05,1.64-.54-.02-1.11-.25-1.27-.81-1.98-.88-1.55-1.92.66-2.19.43-1.02,1.19-1.11,1.31-.44.18.95.32,1.42.35,1.8Z"/>
    <path class="cls-186" d="M42.95,126.2c.14.61.17,1.07.1,1.39h0c-.16.76-.89.68-1.96-.35-.98.59-1.18,1.96-1.24,3.04-.15.09-.29.13-.41.14-.59.03-.89-.77-1.14-1.36-.49-1.16.88-2.55-.27-3.25-.36-.21-.8-.25-1.07-.47-1.28.41-1.88.3-1.61-.33.09-.22.3-.52.64-.88,0-2.68.87-2.79,2.12-.44.29-1.12.71-1.49,1.11-1.2.25.18.5.66.69,1.39,1.38-.63,2.64-.78,3.31-.41.68.36.76,1.26-.27,2.73Z"/>
    <path class="cls-255" d="M27.25,70.07c2.71,1.86,1.65,3.58-1.54,3.34-1.61,2.71-4.72,2.58-5.37-.64.09-1.55,1.3-2.72,1.52-4.24,1.5-1.1,4.01.63,5.39,1.55Z"/>
    <path class="cls-176" d="M28.91,70.71c3.62.59,4.93,1.65,3.92,3.18-1.62.98-7.11,1.58-7.11-.48.78-.98,1.4-2.08,1.54-3.34.45.29,1.27.15,1.65.64Z"/>
    <g>
      <path class="cls-139" d="M18,52.14c.84,1.11.47,2.8-1.05,2.98,0,1.45-.32,2.46-.95,3.02-.66,2-1.53.63-2-1,.05-.32-.08-.74.03-1.04l1.84-4.96c1.29-1.21,2.72-1.07,2.13,1Z"/>
      <path class="cls-279" d="M23.22,65.07l2.29-.88c2.07.64,8.01,4.07,8.9,5.85.88.16.83.43-.05.79-.28,1.83-2.1,1.79-5.45-.11-1.12,1.45-1.8,1.22-1.65-.64-1.79,2.08-4.1.29-5.39-1.55-.29.86-.55.93-1,.12,0-.91,0-2.86-.81-3.49-.32-1.02.03-1.37,1.05-1.06,1.4-1.54,2.26-1.09,2.11.97Z"/>
      <path class="cls-280" d="M21.11,64.1c-.41.29-.76.65-1.05,1.06-1.68-.6-2.6-2.03-3.91-3.08-.83-1.09-.79-1.71.12-1.83,1.52-1.47,6.16,2.01,4.84,3.85Z"/>
      <path class="cls-21" d="M16,58.14c1.6-.28,2.19,1.7.27,2.11l-.12,1.83c-1.57-1.25-2.46-2.77-2.15-4.95l2,1Z"/>
      <path class="cls-98" d="M19,59.14c1.25-1.28,1.85-.66,1,1,1.35.13,2.35.46,3,1,3.92,1.01,4.47,5.28.22,3.93-.64-.43-1.39-.7-2.11-.97-1.29-1.64-2.98-2.92-4.84-3.85l-.27-2.11c-.25-1.12,0-2.31.95-3.02,1.32.64,2.34,2.58,2.05,4.02Z"/>
      <path class="cls-294" d="M20,57.14c1.73,1.61,1.27,2.85-1,2-1.32-.93-1.89-2.44-2.05-4.02.55-.91.87-1.93,1.05-2.98h1c1.11.1,1.32,1.15.61,3.14l.39,1.86Z"/>
      <path class="cls-83" d="M31.4,51.92c.42-.94.83-.94,1.23,0,1.44-1.38,4.62-.37,3.37,2.22-1.06,1.24-1.17,1.98,0,3,.73.29.72.62,0,1-.39,2.43-2.67.63-4.05-.97-3.23,2.89-6.59-3.5-3.95-6.03.28.12.68.03.93.19.75.46,1.6.62,2.47.59Z"/>
      <path class="cls-146" d="M28,51.14c.6,2.34-.97,3.23-4.72,2.66-.83,1.91-1.92,3.02-3.28,3.34-1.64-1.09-.94-3.3-1-5,.93.07,1.55-.46,2.2-1.34.51-.7,1.2-1.51-.28-1.97l4.08-1.49c.31-.11.74.02,1.06-.09.71,1.34,2.35,1.82,1.94,3.88Z"/>
      <path class="cls-65" d="M25.1,61.05c.82-1.4,2.52-1.33,3.14.27,1.88.82,7.13,3.15,7.35,5.29.05.51-.15,1.05-.41,1.59,1.87,1.47,1.55,1.68-.76,1.83-4.06-.44-7.83-2.7-11.19-4.96.27-.43.6-.81,1.69-1.42-.96-.56-1.6-1.46-1.91-2.51-.38-1.5,1.64-1.52,2.1-.09Z"/>
      <path class="cls-152" d="M39.01,70.77c.12.64-.03.82-.42.6-.02-.01-.03-.02-.04-.03-.12-.1-.24-.2-.36-.29.63,1.24.08,1.78-1.2,1.08-.84-.51-1.71-.97-2.64-1.31l.05-.79c.05-.67.16-1.43.77-1.83-.19-.94.1-.96.78-.16.49-.09.9-.14,1.23-.15,1.08-.05,1.35.33.81,1.13.34-.07.64-.12.89-.16,1.71-.27,1.64.18.13,1.91Z"/>
      <path class="cls-52" d="M26,59.02c1.89,1.14,1.27,2.22-.9,2.03l-2.1.09c-1.17.05-2.33.05-3-1-.13-1.4.87-1.73,3-1-.05-2.86,2.22-2.82,3-.12Z"/>
      <path class="cls-234" d="M23,59.14c-.77.84-1.9,1.08-3,1-.21-.34-.67-.77-1-1,.87-.26,1-1.21,1-2,1.38-2.59,4.04-.66,3,2Z"/>
      <path class="cls-220" d="M28,51.14c-.36,1.8,2.26,1.99,3.66,3.14-.58.42-1.32.41-2.07.72-1.2.49-.07,1.36.62,1.59.41.13,1.1.3,1.75.58,2.58,1.36,3.63,2.72,3.13,4.07-.61,2.89-3.77,2.27-4.09-.6-2.06-.19-3.72-.73-4.99-1.62l-3,.12-3-2c0-1.85.77-4.93,3.11-5.34,1.71-.3,3.64.72,4.89-.66Z"/>
      <path class="cls-164" d="M36,58.14c.87.28.86.62,0,1,2.2,2.11,1.83,4.24-.92,2.11-.64-1.54-2.95-2.25-3.13-4.07,1.23.72,2.63,1.03,4.05.97Z"/>
      <path class="cls-45" d="M30.99,60.64l4.09.6c4.19.21,6.51,8.31.87,6.8-.27-.03-.55,0-.78.16-3.25-4.27-5.45-1.6-6.93-6.88-.21-2.05,1.41-1.94,2.76-.68Z"/>
      <path class="cls-164" d="M30.99,60.64c-.9-.13-1.89.53-2.76.68-1.07.18-2.27.56-3.14-.27l.9-2.03c1.77-.94,4.38-.41,4.99,1.62Z"/>
      <path class="cls-38" d="M43.34,66.7c-.1.24-.54.39-1.31.44h-.03c-.27.02-.58.03-.93.01-.08.01-.16,0-.24,0-.41.82-1.11,1.44-1.95,1.71-.28.09-.58.15-.89.16-.78-.06-1.6-.29-2.04-.98.16.17.76.08,1.23-.15.39-.21.7-.51.58-.84-.76-2.13-1.91-3.94-2.68-5.81.72.11.84.05.89-.66.03-.57.02-1.03.02-1.44,1.2-1.65,2.71-.06,2.35,1.72,1.75-.36,5.42,2.1,4.28,3.71-.14.2-.36.39-.67.56,1.08.71,1.54,1.23,1.39,1.57Z"/>
      <path class="cls-235" d="M34.36,70.82c1.34-1.76,3.27-.83,2.64,1.31,1.66.63.44,1.63-1,2-.44.86-2.6.68-3.17-.25-.89-1.53-2.85-1.8-3.92-3.18l5.45.11Z"/>
    </g>
    <path class="cls-37" d="M25.71,73.41c1.49,1.03.47,1.87-.92,2.65.06,1.8-1.81,4.96-3.62,2.15.05-1.39-.61-2.76-.88-4.1-.08-.4.03-.93.05-1.34,1.75.46,3.57.54,5.37.64Z"/>
    <path class="cls-89" d="M53,115.14c.75-2.52,1.75-2.52,3,0,.07.57-.17,1.43,0,2-2.62-1.09-5.29.49-8,0-.47-1.26-.43-2.95,1-3,.28-.87.62-.86,1,0,.97-1.02,1.97-.68,3,1Z"/>
    <path class="cls-143" d="M36.96,125.34c-1.03,1.47-3.3.56-4.87.98l1-2.46c.03-.16.04-.3.04-.42v-.06c.07-.39.2-.59.37-.64.05-.03.1-.03.17-.02.36.05.85.61,1.32,1.41.34-.81.67-.81,1,0,.33.39.58.88.97,1.21Z"/>
    <path class="cls-42" d="M45.43,123.13c-.06.2-.18.42-.36.64l-2.12,2.43c.27-.72.22-1.42-.23-1.74-.09-.07-.2-.12-.32-.15-1-.26-1.75-.38-2.49-.43-.45-.64-.67-1.11-.69-1.39-.03-.55.66-.43,1.86.43-.18-1.54.32-1.85,1.24-1.19.2.14.42.32.65.54,1.04-1.66,3.02-.67,2.46.86Z"/>
    <path class="cls-27" d="M46.99,123.13c.28.41.41.71.42.91.01.07-.01.12-.04.16h0c-.07.14-.28.16-.6.03h-.01c-.23-.08-.51-.23-.84-.45-.25.08-.58-.05-.84-.01.1-.93-1.37-1.17-2.1-1.5-.53-.14-.74-.32-.65-.54.07-.15.28-.31.63-.49-.8-.4-.83-.74-.08-1.06.04-.02.08-.03.12-.05,2.91-2.63,3.44-2.14,3.83.61,0,.05.01.1.02.16.05.37.1.78.15,1.23.87.29.86.62,0,1Z"/>
    <path class="cls-227" d="M32.82,73.89l3.17.25c.3-.58.63-.57,1,0,.87.28.86.62,0,1-.3,1.93-1.09,1.82-2,0-1.13,1.22-3.19,1.45-4,0-.68,2.6-3.21,2.49-5,1,.06,1.94-.73,1.88-1.2-.08.08-.94.32-1.9.92-2.65,2.3.76,4.73.86,7.11.48Z"/>
    <g>
      <path class="cls-225" d="M63.29,116.14c-.48,7.11-3,6.24-2.3,14l-1,.05c-1.82.74-1.91-.72-.44-1.77-1.57-.44-1.29-3.25-.4-4.34-2.16-1.68-1.74-3.12.79-3.88-3.2-1.55-3.22-4.43,1.23-4.1-.43-.83-.11-1.05.86-.77,1.17-1.1,1.75-.73,1.27.81Z"/>
      <path class="cls-94" d="M57.99,135.24c.08.98.02,1.99-.25,2.95-1.29-.16-2.58-.3-3.87-.38-2.04-.29-3.31-2.66-1.04-3.7-.86-.35-.83-.73.04-1.12.35-2.76,1.79-3.06,3.26-.71,1.77-.02,2.47,1.41,1.87,2.96Z"/>
      <path class="cls-158" d="M59.99,130.19c-.21,1.86-1.43,3.33-2.01,5.06-1.42-.25-2.02-1.61-1.87-2.96-2.01-2.14-.98-3.26,1.73-3.24-.63-2.27.28-2.58,1.7-.63l.44,1.77Z"/>
      <path class="cls-50" d="M49.92,136.17c.31.31.13,1.16,0,1.51-.52,1.53-3.59-.88-6.67-.81h-.02c-.46.01-.92.08-1.37.22-.18-1.04.84-.82,1.89-.93h.01c.4-.05.81-.14,1.15-.38.03-.02.06-.04.09-.06-1.53-1.27-3.3-.23-4.9.26l-1.22-1.99.25-.99c-.19-.13-.36-.26-.51-.37-1.29-1.05-.9-1.64.8-2.21,0,0,0-.01.01,0,.13-.05.26-.1.41-.14-1.14-.8-.96-3.16.16-3.37.3-.07.66.02,1.08.33.95-.05,1.59.06,1.96.35h0c.55.42.49,1.25-.1,2.52,1.8,1.11,3.67,1.82,5.62,2.11.08.02.18.04.3.05,1.45-2.82,4.09-2.68,3.99.72l-.04,1.13c-1.16.34-4.5.41-2.9,2.05Z"/>
      <path class="cls-109" d="M57.1,120.22c1.22-2.21,1.58-2.21,2.83-.02.25,1.32-.35,2.68-.79,3.88.23,1.91-.5,1.99-1.33.19-1.01.42-1.59,1.62-1.74,3.6-1.86.32-3.23.04-4.08-.83-.79.33-.99.07-.64-.75-.88-.18-.82-.44.07-.79-.73-1.59,1.18-2.77,2.72-3.37-.8-.42-.73-.78.16-1.09.16-2.78,1.16-3.06,2.8-.82Z"/>
      <path class="cls-11" d="M58.01,115.3c1.18-2.16,2.66-1.5,3.16.79-.62.54-1.41,1.01-1.9,1.77-.55.87.52,1.57.67,2.33-.93.28-1.91.33-2.83.02-1.67-.63-1.97-1.43-1.11-3.08-1.98-.54-1.97-1.45,0-2,.94-1.6,1.74-1.71,2.01.17Z"/>
      <path class="cls-266" d="M59.55,128.42l-1.7.63c-3.82-.9-2.43-3.22-.02-4.78l1.33-.19c1.26,1.14.79,2.87.4,4.34Z"/>
      <path class="cls-221" d="M57.84,129.04c-.41,1.17-1.06,2.21-1.73,3.24-1.05.38-2.14.59-3.25.71-1.15-.86-2.61-.99-3.99-.72-.12-.01-.22-.03-.3-.05-.59-.13-.51-.41.2-.84-.38-.45-.53-.84-.5-1.15.05-.58.73-.95,1.72-1.1-.38-1.09.05-1.67.73-1.61.38.02.84.25,1.27.71.37-.19.73-.36,1.07-.51.94-.41,1.75-.62,2.42-.64.25-.02.48,0,.69.05.66.13,1.14.53,1.43,1.18.01,0,.01.03.02.05.07.23.15.45.22.68Z"/>
      <path class="cls-226" d="M47.37,124.2h0c-.03.27-.48.6-1.37.93.24.38.28.94.17,1.55-.09.54-.29,1.12-.56,1.65-.43.83-1.02,1.54-1.61,1.8l-1.04-.02c-1.04-.67-1.99-1.5-1.86-2.87.59-.35,1.4-.51,1.86-1.04-.18-.72-.26-1.3-.23-1.74.02-.52.19-.85.5-.99.39-.2,1-.1,1.85.3.08-.48.2-.69.36-.64.13.04.29.26.48.65.8-.03,1.27.08,1.41.27.04.05.05.1.05.15Z"/>
      <path class="cls-100" d="M56,117.14c.22.39,1.04.72,1.34,1.34.23.48.5,1.24-.23,1.74-.93.3-1.85.63-2.8.82-1.44-.05-2.2-.68-2.3-1.89-.24,2.5-1.55,2.27-3.93-.69-1.95.19-1.98-.65-.07-1.31,1.13-2.12,6.82-1.75,8,0Z"/>
      <path class="cls-229" d="M57.83,124.27c-1.22,1.4-.5,3.15.02,4.78l-5.85-.82c-1.94-.01-1.92-.78,0-1.19.68.36,2.05.32,2.97-.26.57-.36.4-1.34.95-2.33.33-.59,1.45-.11,1.91-.18Z"/>
      <path class="cls-35" d="M51.36,126.29c.19.23.55.45.64.75.11.37-.07.81,0,1.19-.59.22-1.25.91-2,.91-.72,1.69-3.04,1.21-4,0-1.99-2.77,3.05-4.21,5.36-2.85Z"/>
      <path class="cls-222" d="M45.99,129.13c.52.17.73.36.62.56-.06.14-.27.29-.62.44h-2c.79-1.63.84-3.54,2-5,.08-.41.37-.71.76-.9h.01c.17-.08.36-.14.56-.18.03,0,.06,0,.09,0,.25-.05.5-.06.76-.03h0c.81.06,1.59.43,1.81,1.12.56-1.29,1.12-1.52,1.34-.78h0c.08.27.11.65.09,1.14l-.07.79c-2.09.37-5.36.09-5.36,2.85Z"/>
      <path class="cls-221" d="M54.14,122.12c-.63,1.34-1.28,2.8-2.72,3.37l-1.43-.36c-1.66-.2-2.23-.63-1.82-1.12h0c.26-.29.87-.6,1.81-.88-.17-1.79-.12-2.31.66-1.91.32.15.75.47,1.34.91-.07-.37-.06-.67,0-.91.11-.43.4-.65.73-.66.26-.01.55.11.8.36.1.09.2.21.28.35.15.23.27.51.34.85Z"/>
      <path class="cls-95" d="M54.3,121.03c-.12.34,0,.77-.16,1.09h-2.15c-1.84.36-1.87-2.84,0-2.99.48.08,1.53-.14,1.86.62.18.42.41.83.44,1.27Z"/>
      <path class="cls-72" d="M48.57,132.22c-1.95-.29-3.82-1-5.62-2.11l1.04.02h2c.85.57,1.78,1,2.78,1.25-.71.43-.79.71-.2.84Z"/>
      <path class="cls-134" d="M49.99,129.13c.03.93-.43,1.76-1.22,2.25-1-.25-1.93-.68-2.78-1.25v-1h4Z"/>
      <path class="cls-23" d="M51.99,119.13v3c-.55.52-1.25.88-2,1-.32.05-.67,0-1,0-.42-.42-.79-.89-1.14-1.39-.37-.54-.71-1.11-1.05-1.69.07-.73.66-1.27,1.26-1.61l3.93.69Z"/>
    </g>
    <path class="cls-34" d="M53,115.14c-1.11.02-2.25-.07-3-1,.21-.6-.05-1.37.22-1.94.38-.83.79-2.13,1.78-2.11-.46,1.76.38,3.42,1,5.05Z"/>
    <path class="cls-126" d="M49,114.14c0,1.09-.73,1.95-1,3-.98-.76-1.05-2.04-.92-3.2l1.92.2Z"/>
    <g>
      <path class="cls-150" d="M29.95,137.38c1.44,1.34-.38,4.23-2.52,2.94-.59.69-2.09.53-2.49,1.57.26-.56-.07-.87-.72-.72-.83.96-1.62,1.91-2.45,1.8-1.24-.16-2.15-1.16-2.74-2.07.98-1.46,2.65-2.01,5.03-1.65-.6-1.52.69-1.79,1.96-1.11.09-1.45,1.76-3.36,3-2,.98-.09,1.29.33.95,1.24Z"/>
      <path class="cls-155" d="M11.8,132.21c1.08-.15.73,1.06.2,1.93,2.16,1.07,1.01,2-1.09,2.09-.93-.78-1.43-1.97-2.06-3.02l.2-1.27,1.01-5.84c2.79-2.03,3.37,0,1.74,6.11Z"/>
      <path class="cls-183" d="M20.08,138.29c.82,1.81-.1,2.21-1.99,1.92-1.94.08-4.03-.32-5.14-2.02.94-.78,2.29-1.46,4.05-2.05,1.32-.46,3.1.66,3.08,2.15Z"/>
      <path class="cls-183" d="M15,135.14c.87.28.86.62,0,1,.02,1.51-1.74,1.43-3,1l-1.09-.91,1.09-2.09c.28-.87.62-.86,1,0,1.4-2.44,2.54-1.68,2,1Z"/>
      <path class="cls-68" d="M14.84,121.12c.54,1.07.51,2.33-.07,3.79,2.17-.45,2.47.96.49,1.97l.28,2.53c-1.2.21-2.45,1.14-3.75,2.79-1.84-1.97,1.08-4.82-1.74-6.11.52-3.01,2.73-5.08,4.96-7,1.85.55,1.43,1.13-.17,2.02Z"/>
      <path class="cls-61" d="M20.1,120.52c-.07.06-.14.12-.23.19-.25.17-.58.34-1.01.51.59.76.31,1.04-.72.91-.64-.42-1.27-.75-1.9-.99-.1,1.33-.51,1.7-.91,1.14-.07-.09-.13-.2-.19-.33-.11-.22-.21-.49-.3-.83.25-.61.02-1.39.17-2.02,1.24-1.07,2.3-2.26,3.86-2.88.04-.04.08-.09.12-.14,1.26-1.35,1.82-.8,1,1.05.78.8.37,1.16-1.23,1.09,1.49.82,2.08,1.59,1.34,2.3Z"/>
      <path class="cls-157" d="M21.71,112.39c3.42,2.28,2.01,6.15-1.71,4.74-.3-.39-.69-.7-1.13-.91.69-.7.96-2.36,1.12-3.32.06-.37-.1-.85.46-.71.27.07.89,0,1.25.2Z"/>
      <path class="cls-17" d="M33.94,133.15c-1.78,1.14-1.55,4.27-3.99,4.23-.36-.38-.65-.82-.95-1.24-.23-1.42.38-3.05,1.99-3.03-1.12-2.43-.26-2.82,1.73-1.07,1.05-.34,1.45.03,1.22,1.1Z"/>
      <path class="cls-7" d="M28.18,132.24c1.9.32,1.78,2.57.82,3.9-1.08.48-1.96,1.43-3,2-1.48.38-1.89.26-1-1-1.01-.82-.34-1.49,2-2-4.57-1.11-2.79-5.09,1.18-2.9Z"/>
      <path class="cls-130" d="M25,137.14c.49,0,.89.58,1,1-.61.34-1.46.63-1.96,1.11-.78-.14-1.52-.5-2.04-1.11-.87-.28-.86-.62,0-1-.29-1.76,2.48-1.48,3,0Z"/>
      <path class="cls-130" d="M17.09,127.94c3.55-.16,3.39,3.04.91,5.19.87.28.86.62,0,1-.28.87-.62.86-1,0-1.47-.84-2.81-.84-4,0h-1l-.2-1.93c.22-2.25,1.9-3.8,3.46-5.32.47-3.4,3.07-1.64,1.83,1.06Z"/>
      <path class="cls-224" d="M22,137.14v1c-.63.1-1.27.15-1.92.15-1.24-.37-2.26-1.17-3.08-2.15-1.15-1.21-.57-1.61,1-1,1.5-1.08,4.11.08,4,2Z"/>
      <path class="cls-26" d="M17,134.14c-.12,1.14-.99,1.41-2,1l-2-1c-.92-1.94,1.24-1.89,2.46-4.67l1.54,4.67Z"/>
      <path class="cls-181" d="M17,134.14h1c.87.28.86.62,0,1-.22.35-.88.59-1,1-.56.23-1.51-.34-2,0v-1c0-1.01,1.19-1,2-1Z"/>
      <path class="cls-56" d="M39.85,130.29c-.05.97.14,2.03-.71,2.72-1.29-1.24-3.72-.81-5.2.14-.34-.43-.76-.8-1.22-1.1-2.08-1.99-.6-2.69,1.91-3.11.2-.03-3.32,2-2.7-.84-2.18.87-2.62-2.73.17-1.77,1.1-1.34,2.72-1.66,4.88-.97,2.97-1.57,4.22.31,2.23,3.12l.66,1.82Z"/>
      <path class="cls-207" d="M25.29,117.05c.29.57.43,1,.43,1.3-.01,0,0,0,0,0-.01.41-.28.54-.78.34h-.01c-.25-.1-.57-.29-.94-.57.96.94.76,1.8-.04,2.07-.39.13-.92.13-1.53-.07-.8.89-1.64.87-2.32.39-.66-.45-1.17-1.36-1.34-2.3-.11-.53.84-.91,1.23-1.09,1.11-.5,2.06-2.11,1.97-3.64h0c-.02-.38-.1-.75-.26-1.1,1.39.75,2.63,1.92,4.3,1.79-.05.96-.18,2.03-.71,2.87Z"/>
      <path class="cls-290" d="M18.14,122.14c1.62.84,2.16,3.64.85,5,.18,1.95-.63,2.29-1.91.81-.29-.57-1.05-1.81-1.83-1.06l-.49-1.97c-.25-1.26.24-2.52,1.47-3.76.15-.78.64-.92.92-.66.71.66.84,1.19.98,1.65Z"/>
      <path class="cls-106" d="M14.77,124.91c-.86-.43-1.08-1.27-.89-2.05.18-.72.72-1.16.96-1.74l1.4.03c1.37,1.42-.54,2.61-1.47,3.76Z"/>
      <path class="cls-106" d="M21.31,125.45c.25,2.48-.03,2.68-2.32,1.68-1.01-1.46-1.14-3.27-.85-5,.27-.28.51-.58.72-.91.38-.27.72-.44,1.01-.51,1.05-.25,1.43.89,1.12,3.42,1.88-.4,2.03.32.32,1.32Z"/>
      <path class="cls-93" d="M35.44,130.12c-1.88-.12-2.59.94-2.73,1.92l-1.73,1.06c-.56.45-1,.62-1.35.56h-.03c-.5-.09-.83-.61-1.1-1.34-.11-.29-.21-.61-.31-.95-1.3-.43-1.91-.9-1.84-1.42.03-.26.25-.54.64-.82.05-.46.18-.79.38-1.02.63-.76,1.88-.33,2.62,1.02-.38-1.44-.34-2.08.15-2.07.34,0,.89.34,1.67.95.03.03.07.06.1.08.79,1.11,2.16-.63,3.15-.42,2.48.52,2.71,2.59.38,2.45Z"/>
      <path class="cls-159" d="M30.99,133.11c-.02,1.47-.73,2.46-1.99,3.03-.8-1.14-.85-2.53-.82-3.9-.88-.21-.85-.5.02-.87,1.02.39,1.89,1.15,2.79,1.74Z"/>
      <path class="cls-206" d="M28.19,131.37l-.02.86s-.03-.02-.06-.03c-.06-.02-.15-.04-.26-.06-.01,0-.02,0-.03-.01-.57-.09-1.57-.08-1.7.43-.14.59,1.02,1.6.87,2.57-.64.46-1.43.76-2.26.89-.25.04-.51.07-.77.08-.48.02-.96,0-1.43-.08-.33-.05-.65-.13-.96-.23-.68-.23-1.29-.57-1.76-1.03-.5-.48-.84-1.09-.91-1.83-.07-.19-.12-.38-.16-.56-.21-1.18.23-2.29,1.02-2.96.8-.68,1.97-.9,3.16-.26.1-.3.31-.51.57-.61.52-.21,1.21-.02,1.5.59.45.25.9.52,1.36.82.61.41,1.23.88,1.84,1.42Z"/>
      <path class="cls-285" d="M27,135.14c-.48.84-1.28,1.38-2,2h-3c-1.14-1-2.6-1.46-4-2v-2c0-.91.32-.95.91-.2,2.05,2.21,5.21,2.33,8.09,2.2Z"/>
      <path class="cls-32" d="M23.49,128.54c.01.17-.18.37-.57.61-1.14,1.46-2.63,2.58-4.02,3.78l-.91.2c0-1.8-.07-3.58-.9-5.19.61-.32,1.25-.59,1.9-.81.08-.11.16-.22.25-.32.54-.65,1.24-1.14,2.07-1.36,2.32.63,2.8,1.53,1.44,2.68.47.1.72.24.74.41Z"/>
      <path class="cls-2" d="M34.33,125.04c.05.51-.7.93-2.24,1.28l-.57.68c-.24.28-.03.73.29,1.01.03.03.07.06.1.08-.62.26-1.22,1.04-1.92,1.04-1.44-.31-2.4-.57-2.62-1.02-.2-.42.22-1,1.45-1.93-1.58.62-1.93.27-.73-1-.12-.13-.23-.26-.32-.37-.01-.03-.04-.06-.07-.09-.8-1.07-.11-1.38,1.39-.4.15-.75.78-1.2,1.5-1.37.1-.03.21-.05.32-.06.42-.06.84-.03,1.21.08.69-.41,1.01-.25,1.01.41v.06c0,.12-.01.26-.04.42.8.43,1.22.83,1.24,1.18Z"/>
      <path class="cls-238" d="M32.84,120.99c.9,1.68.26,2.06-1.1.66-.14.92-.43.93-.86.08-2.27,1.4-2.86.95-2.58-1.7-.87-.23-.83-.51.05-.84.89-.25,1.76-.57,2.59-.98,1.01.62,1.75,1.59,1.91,2.78Z"/>
      <path class="cls-199" d="M28.35,119.19l-.05.84c-.25,2.8-1.67,2.73-2.52.11-2.17.47-2.5.08-1.78-2,.36-.39,1.02-.64,1.3-1.08,1.13.54,2.12,1.31,3.05,2.14Z"/>
      <path class="cls-69" d="M27.48,122.06c-.01.63-.46,1.29-1.41,1.85-.14.87-.48.96-1.01.26-2.28,1.33-4-.92-2.77-3.04.11-.3-.01-.72.13-1,.38-.78,1.01-1.37,1.57-2,.37.12.69.32.94.57h.01c.4.38.68.88.83,1.43,1.13.5,1.72,1.2,1.71,1.93Z"/>
      <path class="cls-51" d="M28.19,131.37c-.71-.28-1.6.07-2.53-.4-.54-.27-.9-.99-.67-1.84h2l1.2,2.24Z"/>
      <path class="cls-66" d="M24.35,127.89l-1.6.24c-.42-.92-1.21-1.73-1.44-2.68.98.15,1.98.12,2.96.02.88-.02,1.48.05,1.85.2.21.07.34.17.39.29.24.45-.58,1.17-2.16,1.93Z"/>
      <path class="cls-53" d="M28.3,120.03c.96.41,2.01.78,2.58,1.7-.07,1.18-.64,2.35-1.78,2.6l-1,.86c-2,1.3-2.16,1.05-2.02-1.27-.47-1.23-1.19-2.61-.29-3.78l2.52-.11Z"/>
      <path class="cls-72" d="M27.37,128.11c-.2.23-.33.56-.38,1.02h-2c-.29-.61-.98-.8-1.5-.59-.02-.17-.27-.31-.74-.41l1.6-.24c1.62-.25,3.06-.93,4.47-1.71-1.23.93-1.65,1.51-1.45,1.93Z"/>
      <path class="cls-72" d="M25.06,124.17c.09.58-.27,1.07-.79,1.3-.98.1-1.98.13-2.96-.02,1.71-1,1.56-1.72-.32-1.32.31-2.53-.07-3.67-1.12-3.42.09-.07.16-.13.23-.19.68.48,1.52.5,2.32-.39-.14.28-.02.7-.13,1-1.23,2.12.49,4.37,2.77,3.04Z"/>
      <path class="cls-196" d="M24.35,127.89c.56-.74.51-1.71-.08-2.42.52-.23.88-.72.79-1.3.32-.14.66-.23,1.01-.26.66-.05,1.2.33,1.63.81.03.03.06.06.07.09.09.11.2.24.32.37.23.3.6.64.73,1-1.41.78-2.85,1.46-4.47,1.71Z"/>
    </g>
    <path class="cls-56" d="M34.99,124.13l-1.9-.27c-.3-.32-.63-.62-.97-.89-.61.09-1.02.05-1.21-.08-.23-.16-.17-.43.19-.78.15-.14.37-.3.64-.47.37-.19.7-.49,1.1-.65l1.56.97.59,2.17Z"/>
    <path class="cls-72" d="M49.99,123.13c-.94.28-1.55.59-1.81.88h0c-.26-.03-.51-.02-.76.03-.01-.2-.14-.5-.42-.91h2c.33,0,.68.05,1,0Z"/>
    <path class="cls-4" d="M48.99,123.13h-2v-1c0-.4-.09-.82-.15-1.23-.01-.06-.02-.11-.02-.16-.03-.23-.04-.46-.02-.69.04,0,.07.01.11.01.58.05,2.57-.22,2.88.5.27.6-1.23,1.75-.8,2.57Z"/>
    <path class="cls-48" d="M35,75.14c-.24.8-.73,1.55-1.62,1.85-.77.26-1.62-.07-2.27-.6l-.11-1.25h4Z"/>
    <path class="cls-174" d="M49.73,80.47l.09,2.47c-.27,2.72-.75,2.74-3.05,1.44-.81,1.57-2.71.72-3.81-.24.09-1.1.72-1.95,1.33-2.81.55-.79,1.02-1.61,1.99-1.96.02.87.49,1.43,1.28,1.46s1.49-.2,2.18-.38Z"/>
    <path class="cls-132" d="M49.03,94.14c.82.44.79.81-.08,1.14-.14.91,0,1.82.05,2.73,2.71.82,2.66,2.24-.07,2.92.83.39.78.72-.12,1-.59-.06-1.24-.05-1.91-.3-.55-.21-.67-.96-.64-1.57-1.79-.69-1.44-1.4.54-1.13,1.6-1.14.2-3.14.2-4.78.17-1.85,1.69-1.92,2.03,0Z"/>
    <path class="cls-107" d="M52.88,104.3v1.61s-2.69.39-2.69.39c-.22-.64-.08-1.57-.35-2.16-1.93-4.15,6.45-3.5,3.04.16Z"/>
    <path class="cls-5" d="M53,95.14c-1.23.9-2.79,1.05-4.04.14.06-.37-.02-.77.08-1.14-1.49-.87-1.34-1.61.4-1.54,1.49.68,4.01.44,3.56,2.54Z"/>
    <path class="cls-99" d="M49.43,92.6l-.4,1.54h-2.03c-2.31-.15-2.25-1.44,0-2-1.16-1.35-.57-1.89,1-1,.53.43.97.96,1.44,1.46Z"/>
    <g>
      <path class="cls-178" d="M20.29,74.1c3.03-.25,3.53,2.63.88,4.1l-1.75,4.56c1.89-.54,2.06.28.3,1.28,2.94.28,3.13,2.28.28,3.1l-.51.55c-1.34-.52-2.17-.71-2.49-.55l-1.13.06c.53-5.03-1.2-8.81,2.13-12.87-.15.59.3.85.53.72l1.76-.95Z"/>
      <path class="cls-216" d="M23.92,108.16c.95,0,1.98.32,3.08.98,1.7.36,2.47,1.02,2.31,2,.85.37.81.71-.08,1.05,3.25,2.25-1.8,5.78-3.23,2-1.47,3.52-3.74,1.48-4.29-1.79-.17,1.93-.74,2.1-1.72.51-1.96-.03-1.88-2.23-1.99-3.77,1.17-.72,2.52-.97,4.05-.74-.09-1.48,1.29-1.72,1.87-.25Z"/>
      <path class="cls-12" d="M19,101.14c1.14,1.71,1.49,3.45,0,5,1.15,1.21.99,3.54-1,2-1.38-2.31-.98-5.09-1.21-7.7.32-.47,1.13-.77,1.21-1.3,2.43-2.18,4.04.56,1,2Z"/>
      <path class="cls-136" d="M22.05,108.4c-.97.8-1.75,1.77-2.61,2.76-.74-1.08-.97-1.62-1.44-2.02-.02-.29.14-.76,0-1,.93-.2,1-1.21,1-2,.28-.87.62-.86,1,0,1.08.44,1.77,1.2,2.05,2.26Z"/>
      <path class="cls-212" d="M21.79,95.56c2.63-.49,2.71.47.44,1.84,2.07-.14,2.17.87.33,1.97,2.46,1.45,2.32,2.26-.48,2.79.46,1.86.09,2.19-1.09.99-.72,1.52-1.38.85-2-2,0-.79-.07-1.8-1-2l.31-2c-.13-.92.1-1.59.68-2,1.34-.73,2.54-1.33,2.8.42Z"/>
      <path class="cls-179" d="M22,91.04c2.05,2.26-.4,4.1-3,4.09,0,.75-.58,1.34-.68,2-.45-1.28-.1-2.7-.31-4,.04-1.06.37-1.72,1-2-.29-2.2,2.6-2.18,3-.09Z"/>
      <path class="cls-259" d="M19,88.14c2.86.06,2.73,2.32,0,3,0,.79-.08,1.79-1,2-.28-1.67-1.07-3.27-1-5,.24-2.61.91-2.61,2,0Z"/>
      <path class="cls-31" d="M20,87.14c.87.28.86.62,0,1-.28.87-.62.86-1,0h-2c.01-.33-.05-.67,0-1,.19-1.32-.53-2.84.51-4.04.9,1.1.39,2.23.7,3.24.18.58.79,1.13,1.79.8Z"/>
      <path class="cls-57" d="M23.85,83.94c1.15-2.12,2.73-1.81,3.96.12,4.1-.88,3.33,4.66-.52,3.16.64,1.85-.04,2.26-1.37.82.79,2.91-5.29,2-5.92.1v-1c0-1.04-.04-2.09-.28-3.1,1.24-1.84,3.07-2.07,4.13-.1Z"/>
      <path class="cls-286" d="M23.85,82c2.3.13,2.25,1.39,0,1.94-1.38.1-2.76.17-4.13.1l-.3-1.28c-.68-1.34.34-2.13,1.72-1.71,1.5-1.7,2.59-1.32,2.71.94Z"/>
      <path class="cls-33" d="M21.13,81.06c.08.77-1.04,1.66-1.72,1.71-.7-.69-1.28-1.82-.7-2.46.71-.79,1.54-1.94,2.45-2.1,1.86.89,1.83,2-.04,2.85Z"/>
      <path class="cls-114" d="M45.01,111.33l.35,1.48c-.05,0-.09,0-.14.02-2.87.37-5.64,1.09-8.33,2.13-.13.06-.26.11-.39.16-.83.3-1.89.53-2.95.59,0,0-.02-.01-.03,0-.26.02-.53.02-.79.01h-.01c-1.09-.02-2.12-.26-2.8-.79-.71-.56-1.05-1.44-.69-2.75l.08-1.05c-.05-.26-.07-.48-.07-.66.01-.2.04-.35.11-.47.14-.27.43-.35.83-.24.24.06.51.18.81.37,1.95-.36,3.93-.7,5.92-.88.58-.06,1.16-.1,1.74-.13.78-.02,1.56-.02,2.34.01.29-.87.62-.86,1,0,.45-.34,1.07-.39,1.61-.23.03.01.05.02.08.03.63.22,1.16.75,1.2,1.47.88.04.89.36.13.93Z"/>
      <path class="cls-287" d="M36.89,114.96c1.62,1.28.8,2.5-1.13,1.87-1.33.74-2.93,1.2-4.82,1.38.19,2.29-.89,2.33-2.59.98-1.51.72-3.01-.62-3.05-2.14-2.28-1.33-1.8-2.33.7-2.87,1.44.14,2.91-.52,3.23-2,2.48,1.38,4.84,4.08,7.66,2.77Z"/>
      <path class="cls-135" d="M29.89,102.08c-.73.97-1.08,1.98-1.07,3.05,1.94,0,2.16,1.5.17,2-1.03,1.28-3.67,1.9-5.08,1.02l-1.87.25c-1.43-.68-1.49-1.56-.05-2.26.05-1.22.38-2.27,1-3.17.11-2.14,2.27-2.27,4.14-1.97,2.33-2.1,4.85-2.18,2.76,1.08Z"/>
      <path class="cls-153" d="M29,107.14l2,1c.25,2.05-2.54,2.51-4,1-.71.03-1.42,1.11-2.16.54-.62-.48-1.4-.68-.92-1.52,1.53-.92,3.33-1.04,5.08-1.02Z"/>
      <path class="cls-252" d="M36.99,108.13l-.08,1.12v.03l-5.92.85c-.58.29-1.15.63-1.68,1-1.05-.28-2.01-.91-2.32-2,1.42-.05,2.97.22,4-1,.28-.17.64-.3,1.05-.4.74-.19,1.66-.26,2.53-.2.94.05,1.83.25,2.42.6Z"/>
      <path class="cls-111" d="M21,103.14c.87.28.86.62,0,1,.61.99.31,2.14-1,2h-1v-5l2,2Z"/>
      <path class="cls-261" d="M22,106.14c-.02.75,0,1.51.05,2.26-.79-.38-1.75.32-1.94-.73-.09-.47-.09-.97-.11-1.53.13-.75.46-1.46,1-2,1.37-1.42,2.56,1.16,1,2Z"/>
      <path class="cls-140" d="M26,79.14c-1.75,2.2-1.25-.48-1.18-.32.68,1.4.83,3.37-.98,3.18-.84-.48-1.75-.8-2.71-.94-.1-.97,0-1.89.04-2.85,1.47-.26,2.79-.8,3.62-2.15l1.2.08c2.86.06,2.73,2.32,0,3Z"/>
      <path class="cls-273" d="M39,94.14c2.53-1.25,3.79-.55,2.74,2.19.85.31.8.61-.09.91-.77,1.09-1.62,2.09-2.53,2.99-1.18.18-2.15-.78-2.92-2.88-.48.75-1.52,1.05-3.12.9.19,2.66-.41,2.72-1.8.16-2.46,1.28-.58-.25-.46-.18,1.92.97-1.28,3.64-3.76,1.78-1.26,1.81-5.01,2.22-4.49-.65-.02-.65-.18-1.33-.33-1.97,0-1.6,4.7-3.92,5.76-2.25,1.59-.75,3.26-1.42,5-2-1.1-.86-.12-1.58,2.92-2.17.18-2,.94-2.38,1.31-.46l1.77-.37c3.19-1.11,2.21,2.15-.58,3.47l.58.53Z"/>
      <path class="cls-78" d="M25.1,93.78c.07,1.87-1.76,2.64-3.31,1.77-.96.49-1.91.07-2.8-.42,1.22-1.2,2.52-2.41,3-4.09.89-3.7,6.56.29,3.1,2.74Z"/>
      <path class="cls-282" d="M29,92.14c.87.28.86.62,0,1,1.73.47,1.4,1.14-1,2l-5.76,2.25-.44-1.84c1.12-.57,2.23-1.13,3.31-1.77-1.02-2.79.62-3.53,2.74-1.64.21-1.31.76-1.32,1.15,0Z"/>
      <path class="cls-121" d="M27.05,100.01c.89.21.91.54.09.99-1,1.23-2.47,1.64-4.14,1.97-1.31,1.28-1.86.78-.91-.83.17-.92.51-1.84.48-2.79,1.42.49,2.97.83,4.49.65Z"/>
      <path class="cls-141" d="M23,102.97c.15.86.37,1.49.66,2.1.56,1.17-.69,1.25-1.67,1.06.02-.8-.1-1.78-1-2v-1c.3-.4.67-.74,1.09-.99-.1.54.27,1.23.91.83Z"/>
      <path class="cls-171" d="M25.92,88.04c1.13.27,1.83,1.18,2.08,2.1,2.39.41,2.18,1.4-.15,2l-2.74,1.64c-.18-.86-.33-1.93-1.01-2.49-.63-.51-1.44-.27-2.09-.25l-3,.09v-3h1l5.92-.1Z"/>
      <path class="cls-198" d="M31,75.14c1.75.18,1.81.68.11,1.25,2.08,1.34,2.12,3.5-.18,4.8,1.77.66,2.77,2.42,3.12,3.79,1.82,1.48,2.13,2.55.94,3.2.77,2.05-1.03,2.47-2.91,1.96-1.13.91-2.47,1.42-3.07,0-1.48-.25-2.67-1.56-1.71-2.92.59-.46,1.04-1.08,1.25-1.75s-.58-.95-.73-1.41c-2.74.39-3.67-3.28-1.82-4.92v-3c1.28-1.43,3.26-1,5-1Z"/>
      <path class="cls-9" d="M26,79.14c0,1.77,1.27,3.24,1.82,4.92-1.3.58-2.75.7-3.96-.12v-1.94s.47-4.2.47-4.2c.63.6.94,1.24,1.67,1.34Z"/>
      <path class="cls-270" d="M29,90.14c-.28.87-.62.86-1,0-.43,0-1.01.09-1.42-.14-.68-.38-.7-1.29-.66-1.96l1.37-.82c.94.71,1.26,1.88,1.71,2.92Z"/>
      <path class="cls-245" d="M48.8,101.93c.91-.69,1.25.05,1.04,2.21,2.09-.06,2.21,1.25.35,2.16,1.46,1.18,1.47,3.14.02,5.9,1.47.24,1.47,1.84-.22,1.94h-1c-.57,1.93-1.43,1.81-1.92-.2-1.48-.37-2.25-.93-2.06-2.6,0-.31-.15-.62-.14-.93-1.78-.47-1.87-1.9.12-2.26,1.1-.84,1.45-1.9,1.03-3.19-1.83,4.22-4.89-3.23-1.05-3.9-.87-1.76-.24-2.26,1.27-.99,1.67-.15,2.39-.11,2.56,1.87Z"/>
      <path class="cls-30" d="M47.08,113.93c-.11,2.7-.75,2.84-2.24.55-.43,2.23-4.82,1.79-6.49.72-.41,1.76-1.13,1.58-1.46-.25,1.21-4.37,6.02-1.06,8.12-3.63.63.06,1.42.16,1.81.63.49.58.32,1.35.25,1.97Z"/>
      <path class="cls-71" d="M43.68,108.93c.08.26.03.44-.12.52-.25.15-.79.05-1.57-.32h-1c-1.05.3-1.83.3-2.34-.01-.34-.19-.56-.52-.66-.99l-1.77-1.14c-.55-.27-.58-.59-.1-.98-.44-.89.06-1.8.84-2.28.3-.18.65-.3,1.01-.33,1.05-1.58,1.79-1.23,1.85.64,1.08-.26,2.89-.19,3.32,1.07.16.04.31.1.43.17h.01c.36.2.57.47.64.78.04.12.05.24.03.37-.04.54-.45,1.12-1.12,1.47.27.37.45.69.52.93.02.04.03.07.03.1Z"/>
      <path class="cls-81" d="M45,108.14l-.12,2.26c-1.11,0-2.21-.35-2.88-1.27.41-.38.79-.79,1.14-1.23.22-2.22,1.59-2,1.86.23Z"/>
      <path class="cls-19" d="M38.24,119.36c-1.86-.37-3.73.6-3.84,2.6-.21.46-.47.7-.73.76-.07-.01-.12-.01-.17.02-.17-.01-.33-.1-.45-.25-.26-.3-.39-.84-.21-1.5-.94.19-1.8-.45-2.07-1.29-.17-.47-.14-1.01.16-1.49,0-1.08.69-2.24,1.8-2.49.2-.04.4-.06.62-.04.07,0,.13.01.2.03.71.11,1.49.62,2.21,1.11.44-.61.99-.81,1.49-.7.17.03.34.1.49.2.03,0,.05.02.07.04.46.3.83.86.99,1.57.11-.04.21-.08.3-.12,2.81-.95,1.97,5.05-.86,1.55Z"/>
      <path class="cls-272" d="M38.86,117.07c.86.25.82.54-.06.86-1.07-.13-2.14-.49-3.04-1.11.15-.7.95-1.21,1.13-1.87.35.04,1.15.04,1.46.25,2.97-.09,3.17.49.51,1.87Z"/>
      <path class="cls-247" d="M31.27,98.41c4.28,1.4,2.17,5.46-1.38,3.67.79-.98-2.25-1.71-2.76-1.08l-.09-.99c.74-.09,1.49.08,2-.14.66-.28,1.02-1.48,1.33-2.58.48.22.68.74.89,1.12Z"/>
      <path class="cls-293" d="M36.22,106.99c-.52.24-1.08.42-1.65.54-.82.18-1.67.24-2.52.2h0c-1.07-.05-2.12-.26-3.05-.6l-.17-2c.76-.71,1.43-1.2,1.85-.72.13.14.24.37.32.72,2.33-.11,4.04.19,5.13.88.37.3.44.62.1.98Z"/>
      <path class="cls-129" d="M29.89,102.08c1.64.2,1.53.81-.04,1.13,1.56.8,1.21,1.44-1.03,1.92-.49-.42-1.29-.95-1.35-1.61-.11-1.37,1.79-.49,2.42-1.45Z"/>
      <path class="cls-72" d="M38.65,109.12c-.58.03-1.16.07-1.74.13l.08-1.12h1c.1.47.32.8.66.99Z"/>
      <path class="cls-10" d="M37.99,108.13h-7c-.8.16-1.92-.07-2-1,2.41.04,4.83.04,7.23-.14.78-.05,1.66.3,1.77,1.14Z"/>
      <path class="cls-239" d="M46.8,120.05s.07.01.11.01c1.51.2,1.86,1.06.94,1.68-.22.15-.5.28-.86.39-.88-1.39-2.32-2.35-4-2-.38-.99-.06-1.32.94-1-.05-.5-.17-1.08-.38-1.76-.13-.43-.29-.9-.49-1.41-.03-.07-.06-.14-.09-.22l1.87-1.26c.72.11,1.51-.63,2.23-.55.4.11.69.41.85.87.07.2.12.44.14.71.05.44.02.99-.07,1.62l.07,1.31c.34.21.51.41.51.6,0,.36-.59.7-1.77,1.01Z"/>
      <path class="cls-72" d="M41.08,122.92c-1.2-.86-1.89-.98-1.86-.43-.4-.29-.82.08-1.11,1.2-1.25-2.35-2.13-2.24-2.12.44-.33-.81-.66-.81-1,0l-.59-2.17c.11-2,1.98-2.97,3.84-2.6l.15,1.78c1.1.24,2.5.49,2.69,1.78Z"/>
      <path class="cls-18" d="M42.97,122.27c-.55.03-1.3.56-1.89.65-.19-1.29-1.59-1.54-2.69-1.78l-.15-1.78c1.41.27,2.39-.98.56-1.43l.06-.86c.07-.65.5-1.08,1.03-1.25.26-.09.54-.12.81-.08.28.04.54.14.76.32.29.23.49.58.53,1.07.45.9.75,1.92.88,3.05.04.34.07.69.08,1.06-.05.34.04.69.02,1.03Z"/>
      <path class="cls-170" d="M37,75.14c4.29-.26,3.74,3.86,7.29,6.2,1.54,1.15,1.09,2.09-1.33,2.81-.35.47-.68.41-.98-.13-.87,1.75-2.41.93-3.01-.89-.44.62-1.46.58-3.05-.11.74,4.05-6.86-1.22-2.24-1.79,1.76-1.09,1.51-1.36-.75-.83.51,2.75-.17,2.9-2,.79.11-1.35-.99-3.46.18-4.8,1.31-.19,2.61-.61,3.89-1.25.66,0,1.34.04,2,0Z"/>
      <path class="cls-103" d="M44.99,108.13l-1.86-.23c-.36-.88-.12-1.87.01-2.79-.88-.75-1.98-1.1-3.32-1.07-.63-.17-1.24-.4-1.85-.64-.42.3-.75.41-1.01.33-.36-.1-.56-.56-.61-1.38h0c-.02-.37-.02-.8.02-1.3-.29-.36-.57-.72-.81-1.07t0-.01c-.42-.64-.67-1.24-.49-1.74h0c.02-.05.04-.09.06-.13.16-.3.5-.55,1.06-.75,1.76-.41,2.24,1.49,2.92,2.88,1.01-.42,2.03-.38,3.06.11.03.02.05.03.07.05.27.12.56.29.83.49.07-.35.15-.64.25-.87.01-.01,0-.01,0-.01.1-.22.21-.37.32-.47h.01c.22-.22.46-.21.69.01h.01c.08.07.17.17.24.31h0c.16.28.3.68.39,1.19.1,1.06.25,2.16-.88,3.63.54.39,1.27.15,1.93.27.54,1.28.35,2.7-1.04,3.19Z"/>
      <path class="cls-282" d="M38,87.14c1.5-.48,1.84-.28,1,1,.87.28.86.62,0,1-.96.67-.96,1.01,0,1-.39,1.42-2.04.78-3.08.83-2.13,1.28-3.43,1.33-3.92.17-.85-.34-.82-.67.07-1,1.1-.46,1.99-1.23,2.91-1.96-.83-1.99,1.67-1.77,3.02-1.05Z"/>
      <path class="cls-92" d="M47,94.14c1.69.48,2.07,5.22-.2,4.78-1.65.63-4.21,1.29-4.96-.73-.91-.06-.95-.38-.19-.94-.02-.3.09-.61.09-.91-.57-1.98.26-2.56,2.23-2.19-.13-1.57,2.59-1.46,3.03,0Z"/>
      <path class="cls-261" d="M30.76,103.94c-.38-.14-.7-.38-.91-.73-.4-.29-.31-.61-.09-.94.04-.06.08-.13.13-.19.83.09,2.29-.07,2.42-1.28.07-.69-.76-1.58-1.04-2.4l1.8-.15c.79-.55,1.47-.5,1.92-.11.02.03.05.05.08.08h0c.38.4.57,1.04.49,1.75t0,.01c-.02.23-.07.47-.15.7,1.1,2.2-2.64,4.05-4.65,3.26Z"/>
      <path class="cls-133" d="M41.65,97.25c.02.32.16.63.19.94,1.18.62,1.91,1.38,1.23,2.7-.81.25-1.51.59-2.62.75-.84.12-.93-.57-1.33-1.4.15-.84-.83-2.38.35-2.91.58-.26,1.56.08,2.18-.08Z"/>
      <path class="cls-68" d="M39,89.14c1-.88,2.51-.52,2,1,.97.64,1.3,1.3,1,2,.28,2.58-.74,3.23-3,2-.31-.03-.85.44-1.07.65-.42.41-.97.03-1-.29-.15-1.53,7.11-5.43,2.07-4.36-.29.06-.8.06-1.46-.01s-.67-.9,0-.97,1.16-.02,1.47-.01Z"/>
      <path class="cls-240" d="M43.96,94.14c-.02,1.24-1.03,2.09-2.23,2.19-.86-.74-1.67-1.77-2.74-2.19.9-.8,2.01-1.3,3-2,.28-.87.62-.86,1,0,1.77.44,2.66.87.97,2.01Z"/>
      <path class="cls-204" d="M35.92,90.97l-2.92,2.17c-.68,1.28-3.52,1.36-4,0v-1c.16-1.45,1.88-1.71,3-1l3.92-.17Z"/>
      <path class="cls-138" d="M32.07,90.14l-.07,1c-.99.04-1.91,1-3,1h-1.15l.15-2h1c1.02,0,2.05-.03,3.07,0Z"/>
      <path class="cls-54" d="M33.67,81.23c-.5.47-.81,1.24-.51,1.69.73,1.09,1.75.53,2.75.1,1.21-.54,2.9.81,2.08,2.12.06,2.41-3.24,2.52-3.96-.16-.85-1.67-4.38-1.47-3.12-3.79.59-.29,1.5-.32,2-.79.79-.41,1.01-.1.75.83Z"/>
      <path class="cls-292" d="M38,85.14c.18-.88.52-.85,1,0,1.48-1.22,2.08-.64,1,1,1.01,1.38-.77,1.62-2,1-.92.46-2.17.37-3.02,1.05-.56-.98-.83-2.09-.94-3.2.5.42,1.05.79,1.7,1.01.85.28,1.69-.14,2.26-.85Z"/>
      <path class="cls-163" d="M46.79,98.92c-.29.21-.25.9-.54,1.13l-1.27.99c-.53.23-1.34-.33-1.91-.16-.54-.37-1.28-.63-1.68-1.33-.23-.41.14-.99.45-1.36,1.7.03,4.37-1.45,4.96.73Z"/>
      <path class="cls-71" d="M45,108.14c.06-1.13.53-2.19,1.03-3.19.99.19.93,1,1.02,1.7.2,1.49-.83,1.64-2.05,1.49Z"/>
      <path class="cls-72" d="M42.99,120.13s-.08.03-.12.05c-.13-1.13-.43-2.15-.88-3.05.45.16,1.13-.03,1.56.24.21.68.33,1.26.38,1.76-1-.32-1.32.01-.94,1Z"/>
      <path class="cls-114" d="M43.93,119.13c.08-.41.12-.94-.08-1.4-.07-.17-.18-.29-.3-.36-.43-.27-1.11-.08-1.56-.24-1.02-.35-2.08-.45-3.13-.06.04-.61.03-1.49-.51-1.87,2.2-.06,4.26-1.06,6.49-.72.16,1.63.63,3.61-.91,4.65Z"/>
      <path class="cls-242" d="M43.14,105.11c-1.1-.09-2.93.27-3.32-1.07.54-.53,1.2-.83,1.73-.94,1.31-.27,1.73.93,1.59,2.01Z"/>
      <path class="cls-72" d="M36.12,106.01c-1.09-.69-2.8-.99-5.13-.88,2.19-.42,4.91-.75,5.36-2.78.05.82.25,1.28.61,1.38-.78.48-1.28,1.39-.84,2.28Z"/>
      <path class="cls-72" d="M36.37,101.05c-.2-.23-.7-.19-.96-.37.08-.23.13-.47.15-.7.24.35.52.71.81,1.07Z"/>
      <path class="cls-22" d="M36.35,102.34h0c-.45,2.04-3.17,2.37-5.36,2.79h-2.17c.07-.8,1.3-1.02,1.03-1.92,2.27.24,4.83-.14,5.56-2.53.26.18.76.14.96.37.08.49.07.92-.02,1.29Z"/>
      <path class="cls-269" d="M46.77,84.39c.03.28.03.56.07.83.33,2.01-.58,4.51,1.16,5.92-.18.37-.54.94-1,1-.29,1.59-1.21,1.45-2,0-1.13-.2-1.82-.62-2.07-1.25-.82-1.79-.12-2.39,2.09-1.82-.89-1.08-1.61-2.35-2.16-3.82-1.69.77-2.21.19-.88-1.24.29.13.67.03.98.13,1.16-.94,2.59-.38,3.81.24Z"/>
      <path class="cls-254" d="M41.98,84.02c.26.35.44,1.05.88,1.24l2.16,3.82c-.32.85-1.46,1.25-2.09,1.82-.8.88-1.48.26-1.93-.75-.52-.57-1.24-.9-2-1v-1c2.09-.98,2.42-1.65,1-2-.34-.19-.55-.88-1-1-1.25-.56-1.81-1.83-.03-2.01,1,.31,2.04.46,3.01.89Z"/>
      <path class="cls-47" d="M38.97,83.13l.03,2.01c-.3-.08-.69.06-1,0l-2.08-2.12c-.24-.91.98-.65,1.41-.66.58-.01,1.14.61,1.65.77Z"/>
      <path class="cls-277" d="M33.67,81.23c-.28-.25-.53-.52-.75-.83.73-.69,2.71-2.4,3.1-.29.25,1.36-1.81,1.1-2.35,1.12Z"/>
      <path class="cls-223" d="M39,88.14c-.52-.1-.78-.56-1-1l2-1c.5.18,1.17-.16,1.51,0,.48.24.97,1.29.24,1.78-.9.59-2.01.05-2.75.22Z"/>
      <path class="cls-104" d="M45,92.14c.66,0,1.35.08,2,0v2h-3.03s-.97-2-.97-2c.14-1.02,1.16-.5,2,0Z"/>
      <path class="cls-214" d="M42.93,90.89c.84.1,1.65.48,2.07,1.25h-3c-.81-.32-1.02-1.2-1-2,.66.2,1.31.45,1.93.75Z"/>
    </g>
    <path class="cls-24" d="M54,86.14c-.48.88-1.06,1.59-2,2-.28-.38-.62-.72-1-1v-3c.33.03.67-.05,1,0l2,2Z"/>
    <g>
      <path class="cls-182" d="M57.66,83.73c-.22.71.34,1.66.34,2.41s-.35,1.64-.17,2.32c-.27.86-.57.81-.88-.08-2.7-.1-2.71-1.42-.95-3.24-1.16-1.37-.87-1.97.89-1.36.27-.54.42-.54.77-.04Z"/>
      <path class="cls-166" d="M63.66,105.24c1.08.36,1.29,1.33.62,2.89.06,1.07.16,2.22.96,3,1.94.11,1.86,1.62-.13,1.96l-.77,1.4c-.87-.07-1.43-.52-1.66-1.36l-.54-.15c-2.39-.68-3.39-2.27-3-4.78-.84-.34-.81-.56.09-.66.02-.87.32-.93.88-.22.09-1.36,1.07-1.89,2.12-2.12.27-1.93,1.05-1.9,1.43.03Z"/>
      <path class="cls-6" d="M62.14,112.99l.54.15c-.33.69-.57,1.43-.66,2.19-.3.23-.57.52-.86.77-1.14.05-2.15-.36-3.16-.79-.87-.15-1.71-.84-1.38-1.41,1.55-2.66,3.85-4.1,5.52-.9Z"/>
      <path class="cls-275" d="M60,100.36c1.03-1.72,2-1.69,2.92.08.43.22.79.81,1.23.96l.12.78c.49,1.32.74,2.41-.6,3.05l-1.43-.03c-1.73-.48-3.13-1.2-4.22-2.16-2.1-.28-1.99-1.43-.05-2.41-.41-1.76,1.27-1.85,2.03-.28Z"/>
      <path class="cls-46" d="M59.23,107.55c-.02.22-.1.44-.09.66,1.81,2.9,1.09,4.55-2.15,4.93-3.21.01-4.54-1-3.97-3.04-.38-2.71,1.47-3.76,3.88-2.95.37-2.11,1.99-1.54,2.32.41Z"/>
      <path class="cls-145" d="M62.14,112.99c-.82-.22-1.85-.98-2.57-.75-1.4.45-1.61,1.95-1.56,3.06-.54-.23-1.42-.14-2.01-.17-4.42-1.01-1.4-5.31,1-2,1.37-.73,2.17-3.34,2.15-4.93.91,1.65,2.5,2.91,3,4.78Z"/>
      <path class="cls-267" d="M59,105.14c1.77.5,2.83.85,1.12,2.19-.29.02-.6.27-.88.22l-2.32-.41c-2.66.11-2.62-.8-.16-1.79-1.1-2.09-.87-2.12,1.25-1.22.89-.46,1.19-.09,1,1Z"/>
      <path class="cls-86" d="M62.23,105.21c0,.45.01.94-.28,1.35-.41.57-1.16.73-1.83.77l-1.12-2.19c.45-1.69,3.09-2,3.24.07Z"/>
      <path class="cls-74" d="M59.02,92.25c.23-.88.6-.9,1.12-.11v1c.41,1.15.01,1.78-1.19,1.91-1.1,1.72-4.06,3.69-4.83.08-1.78-1.93-1.82-3.26-.13-3.99,2.47-1.4,3.62-1.57,5.03,1.11Z"/>
      <path class="cls-112" d="M62.91,100.45c-.87.76-2.09.72-2.92-.08-4.5-1.63-5.49-3.03-2.96-4.2,1.69.35,2.33-.02,1.92-1.12-.13-.37-.02-1.03.06-1.37.12-.51.65-.69,1.12-.53,1.36,2.28,2.73,4.61,2.77,7.31Z"/>
      <path class="cls-117" d="M60.15,92.14c-.36-.03-.77.17-1.12.11-2.2-1.08-3.04-1.88-1.19-3.79-.87-.4-.77-1.88.17-2.32h1.14c-.06,2.05,1.01,3.99,1.01,6Z"/>
      <path class="cls-156" d="M54,81.14c1.19.59,2.3,1.44,2.89,2.64-.24.48-.69.85-.89,1.36-.28.87-.62.86-1,0-.75-1.16-2.09-1.83-4-2-.53.75-.93.69-1.18-.2-2.79-.26-2.72-1.66-.09-2.47l1.26-.33c1.23.77,2.23,1.1,3,1Z"/>
      <path class="cls-147" d="M54,81.14c.08,1.3-1.18,1.21-1.98.52-.39-.33-.76-.86-1.02-1.52l1.16-.95c.12,1.04.99,1.52,1.84,1.95Z"/>
      <path class="cls-230" d="M53,95.14c.3-.89.68-.87,1.13-.01,1.58.48,3.21-.08,4.83-.08.12.33.87.49.98.92.21.87-.83,1.19-2.38,1.1-1.11.93.09,1.26,1.46,1.07.88-.06,1.64-.06,1.98.5.41.68-.21,1.58-1,1.73-.64-.05-1.4.4-2.03.28-.82,2.35-1.36,2.15-2.97.49-.91,1.79-1.81,1.62-2.11-.34-1.37-.41-2.67-1.34-3.88-2.79-1.24-.36-1.2-2.1-.05-2.73.68-1.42,2.93-1.09,4.04-.14Z"/>
      <path class="cls-273" d="M57.96,100.64c-.05.8,0,1.61.05,2.41.91.28.88.65-.02,1.08-.11.58-.69,1.08-1.25,1.22-.55,2-3.16,3.02-3.88.55-1.92-.42-1.92-1.22.01-1.61-.32-2.38.39-3.43,2.12-3.16.78-.9,1.93-.7,2.97-.49Z"/>
      <path class="cls-203" d="M62.23,105.21l-3.24-.07c-.29-.37-.63-.71-1-1,.07-.33.04-.74.02-1.08,1.25.08,2.46-.09,3.75-.98.43,1.48.47,2.27.46,3.14Z"/>
      <path class="cls-195" d="M56.75,105.36l.16,1.79c-1.09,1.23-2.56,2-3.88,2.95-.31.87-.65.85-1.03-.01-.45,1.45-1.04,2.15-1.78,2.11.1-1.19-2.01-1.89-2.04-3.02s2.45-1.62,2.03-2.88c-.23-2.82,1.6-2.96,2.68-.39,1.29-.19,2.61-.23,3.88-.55Z"/>
      <path class="cls-219" d="M57,113.14c-.37.2-1.6-.14-1.85.48-.16.39.8,1.1.85,1.52-.99-.05-2.01-.02-3,0-2.36-.72-2.5-3.28-1-5.05h1.03c.59,1.03,1.75.83,3.43-.05.91.88.28,2.09.54,3.1Z"/>
      <path class="cls-122" d="M51,89.14c1.55-.92,2.88-.92,3,1,.87.28.86.62,0,1,.12,1.33.17,2.66.13,3.99-.35-.11-.77.08-1.13.01-2.23-.2-3.42-1.05-3.56-2.54-1.49,1.22-1.93.4-1.44-1.46-.5-1.28-.51-2.46,1-2,0-1.52,1.6-1.47,2,0Z"/>
      <path class="cls-29" d="M59.02,92.25c-1.7-.28-3.31-.92-5.03-1.11v-1c-.16-2.25.97-2.58,2.95-1.76l.88.08c.35,1.27.96,2.48,1.19,3.79Z"/>
      <path class="cls-117" d="M56.95,88.38c-.55,1.13-1.67,1.89-2.95,1.76-1.06-.1-2.07-.5-3-1-1.25-1.33-.69-1.68,1-1-.82-1.52-.16-2.19,2-2-.99-.92-.66-1.25,1-1h1c.66.95.88,2.1.95,3.24Z"/>
      <path class="cls-39" d="M49.82,82.94c.36-.07.8.19,1.18.2.87.28.86.62,0,1,.75,1.03,1.99,3.03,0,3-.28.87-.62.86-1,0-1.7,1.08-2.76.44-3.16-1.92-.9-.06-.9-.35-.07-.83.94-.62,1.94-1.21,3.05-1.44Z"/>
      <path class="cls-211" d="M55,85.14c-1,.67-2.6.26-3-1-.25.87-.58.84-1,0v-1c1,.02,2.04-.12,3.44.02.78.08.54,1.18.56,1.98Z"/>
      <path class="cls-184" d="M52.88,100.8c.69-.05,1.42.35,2.11.34.06,1.42-.82,2.61-2.12,3.16.15-.67.42-1.95-.39-2.12-.86-.18-2.02-.31-2.47.45-.21.36-.05,1.07-.18,1.51-.33-.72-1.14-1.35-1.04-2.21l.12-1c.61-2.24,3.29-2.59,3.96-.13Z"/>
      <path class="cls-15" d="M50,87.14c-.24.46-.57,1.13-1,2l-1,2c-3.27,1.68-2.61-5.13-1.16-5.92,1.24.29,2.36.93,3.16,1.92Z"/>
      <path class="cls-20" d="M50,87.14h1c.99-.33,1.33,0,1,1-.41.18-.65.73-1,1h-2c-.14-.39-1-1.11-.86-1.54.26-.76,1.41-.47,1.86-.46Z"/>
      <path class="cls-177" d="M55,85.14c.01.65-.8.63-1,1-.65.09-1.53.04-1.85-.59-.23-.45-.17-1-.15-1.41,1.05.15,2.08.47,3,1Z"/>
    </g>
    <path class="cls-296" d="M45.01,89.08c-1.34.77-1.89-.42-2.07-1.46-.15-.85-.19-1.6-.09-2.35.95.43,3.08,1.37,2.16,3.82Z"/>
    <g>
      <path class="cls-40" d="M37,74.14h-1l1-2c.24-.49.7-.88,1.2-1.08,2.31,1.66,2.98,5.45-1.2,3.08Z"/>
      <path class="cls-91" d="M45.51,81.7c-.34-.06-.76-.18-1.23-.37l-2.56.47c-1.77-2.15-3.34-4.37-4.73-6.67v-1c.93.1,1.92-.3,2.02-1.35.06-.66-.37-1.25-.82-1.73.24-.09.58-.29.82-.28.37.1.86.18,1.2.37,1.24,2.43,3.2,4.27,5.85,5.5l-.07,1.49c.95.23,1.04.64.28,1.24.91,1.84.6,2.59-.76,2.33Z"/>
      <path class="cls-253" d="M54.27,76.17c-.46,1.11-1.23,2.31-2.11,3.02,1.03,1.66.4,2.16-1.16.95.4,1.9-.34,2.08-1.26.33-1.1,3.35-6.39,2.26-3.46-1.09,3.55-1.55,5.79-3.97,6.72-7.24.73,0,1.53-.17,2.14.31-1.35,1.51-.46,2.74-.87,3.72Z"/>
      <path class="cls-123" d="M53.03,71.03c-.23.87-.53.84-.89-.03-1.13-1.03-2.53-1.69-4.04-1.89-1.07.15-1.55.09-1.11-.98-1.49-.32-2.55-.78-3.18-1.39-.45-.43-.69-.93-.71-1.51-1.03-2.59,3.69-3.62,3.03-.09.76-1.98,1.34-.84,2.01.92,1.06-1.14,3.15-.66,4.07.3.55.35,1.15.6,1.78.77.51,1.42.56,3.17-.96,3.9Z"/>
      <path class="cls-233" d="M50.05,76.95c-.18.28-.47.52-.83.71,0,0,0,.01-.01.01-.92.5-2.27.7-3.22.46-2.87-1.69-7.31-3.34-5.78-6.99,3.36,1.93,8.27,5.99,9.6,4.19.53.61.54,1.17.24,1.62Z"/>
      <path class="cls-28" d="M53.03,71.03l-.04,1.1c-.06,1.71.23,3.71-1.41,5-1.33,1.05-3.48,1.59-5.31,2.24-.01-.41-.24-.82-.28-1.24,1.42-.82,3.61-.89,3.82-2.8,2.48.06,1.57-2.59,2.33-4.33l.89.03Z"/>
      <path class="cls-154" d="M48.1,69.11c-2.32,1.15-5.09.51-6.1-1.97h-.01c.37-.3.82-.45,1.35-.44.15,0,.31.02.47.04.87.14,1.92.6,3.18,1.39l1.11.98Z"/>
      <path class="cls-253" d="M52.14,71c-.76,1.74.15,4.39-2.33,4.33-1.33,1.8-6.24-2.26-9.6-4.19-.34-.19-.83-.27-1.2-.37,1.51-1.73,1.58-2.18-.13-1.91.84-.27,1.54-.89,1.95-1.71.08.01.16.01.24,0,.35.02.66.01.93-.01,1.01,2.48,3.78,3.12,6.1,1.97,1.51.2,2.91.86,4.04,1.89Z"/>
      <path class="cls-190" d="M46.99,68.13c-1.7-.03-3.31-.61-4.96-.99-.01,0-.03-.01-.04-.01-.28-.06-.61.02-.92.02-.08.01-.16.01-.24,0,.46-.63.91-1.27,1.12-2.02.19-.57.41-.75.67-.56.15.1.31.32.48.66l3.89,2.9Z"/>
    </g>
  </g>
</svg>