<?xml version="1.0" encoding="UTF-8"?>
<svg id="Enemy" xmlns="http://www.w3.org/2000/svg" viewBox="0 0 90.88 113.1">
  <defs>
    <style>
      .cls-1 {
        fill: #ac877b;
      }

      .cls-2 {
        fill: #392106;
      }

      .cls-3 {
        fill: #fee5c7;
      }

      .cls-4 {
        fill: #da997a;
      }

      .cls-5 {
        fill: #ab8375;
      }

      .cls-6 {
        fill: #ccbaaa;
      }

      .cls-7 {
        fill: #efa889;
      }

      .cls-8 {
        fill: #b1745d;
      }

      .cls-9 {
        fill: #b66d4f;
      }

      .cls-10 {
        fill: #f7c9aa;
      }

      .cls-11 {
        fill: #161009;
      }

      .cls-12 {
        fill: #b2a7a0;
      }

      .cls-13 {
        fill: #141414;
      }

      .cls-14 {
        fill: #d8cfc8;
      }

      .cls-15 {
        fill: #fde1c3;
      }

      .cls-16 {
        fill: #b2866f;
      }

      .cls-17 {
        fill: #6b3d2a;
      }

      .cls-18 {
        fill: #f4b79a;
      }

      .cls-19 {
        fill: #bc9c8a;
      }

      .cls-20 {
        fill: #272727;
      }

      .cls-21 {
        fill: #2a2928;
      }

      .cls-22 {
        fill: #494949;
      }

      .cls-23 {
        fill: #c28b6f;
      }

      .cls-24 {
        fill: #503f3a;
      }

      .cls-25 {
        fill: #f2ab8a;
      }

      .cls-26 {
        fill: #b17b69;
      }

      .cls-27 {
        fill: #21100a;
      }

      .cls-28 {
        fill: #16100d;
      }

      .cls-29 {
        fill: #865d4b;
      }

      .cls-30 {
        fill: #484546;
      }

      .cls-31 {
        fill: #262626;
      }

      .cls-32 {
        fill: #1c1c1c;
      }

      .cls-33 {
        fill: #161716;
      }

      .cls-34 {
        fill: #f2c198;
      }

      .cls-35 {
        fill: #e0937b;
      }

      .cls-36 {
        fill: #3d3b3a;
      }

      .cls-37 {
        fill: #e0b49a;
      }

      .cls-38 {
        fill: #b9927c;
      }

      .cls-39 {
        fill: #eab292;
      }

      .cls-40 {
        fill: #e3d9cc;
      }

      .cls-41 {
        fill: #39393a;
      }

      .cls-42 {
        fill: #fef1d9;
      }

      .cls-43 {
        fill: #f9ac8a;
      }

      .cls-44 {
        fill: #5e2a14;
      }

      .cls-45 {
        fill: #2c2c2d;
      }

      .cls-46 {
        fill: #824631;
      }

      .cls-47 {
        fill: #1f1f1f;
      }

      .cls-48 {
        fill: #4f3827;
      }

      .cls-49 {
        fill: #ac7664;
      }

      .cls-50 {
        fill: #fdcaa7;
      }

      .cls-51 {
        fill: #9d593f;
      }

      .cls-52 {
        fill: #b5795e;
      }

      .cls-53 {
        fill: #3a3a3a;
      }

      .cls-54 {
        fill: #feebc3;
      }

      .cls-55 {
        fill: #4f453f;
      }

      .cls-56 {
        fill: #b3b1aa;
      }

      .cls-57 {
        fill: #f8c7a6;
      }

      .cls-58 {
        fill: #1f1e1e;
      }

      .cls-59 {
        fill: #2c2b2a;
      }

      .cls-60 {
        fill: #161517;
      }

      .cls-61 {
        fill: #716963;
      }

      .cls-62 {
        fill: #333233;
      }

      .cls-63 {
        fill: #222;
      }

      .cls-64 {
        fill: #fdd7b7;
      }

      .cls-65 {
        fill: #cba391;
      }

      .cls-66 {
        fill: #fed6b6;
      }

      .cls-67 {
        fill: #dab195;
      }

      .cls-68 {
        fill: #2b2b2b;
      }

      .cls-69 {
        fill: #fec5a4;
      }

      .cls-70 {
        fill: #fab893;
      }

      .cls-71 {
        fill: #333;
      }

      .cls-72 {
        fill: #9a6c5a;
      }

      .cls-73 {
        fill: #1a1a1a;
      }

      .cls-74 {
        fill: #c1785a;
      }

      .cls-75 {
        fill: #fcd1b4;
      }

      .cls-76 {
        fill: #f1bb9f;
      }

      .cls-77 {
        fill: #b59388;
      }

      .cls-78 {
        fill: #232323;
      }

      .cls-79 {
        fill: #594b44;
      }

      .cls-80 {
        fill: #705a4c;
      }

      .cls-81 {
        fill: #f7b193;
      }

      .cls-82 {
        fill: #998677;
      }

      .cls-83 {
        fill: #b19082;
      }

      .cls-84 {
        fill: #f6c1a2;
      }

      .cls-85 {
        fill: #f7c7a4;
      }

      .cls-86 {
        fill: #846b5f;
      }

      .cls-87 {
        fill: #212423;
      }

      .cls-88 {
        fill: #d7a893;
      }

      .cls-89 {
        fill: #1a1b19;
      }

      .cls-90 {
        fill: #513e32;
      }

      .cls-91 {
        fill: #be927f;
      }

      .cls-92 {
        fill: #f3c0a5;
      }

      .cls-93 {
        fill: #a27560;
      }

      .cls-94 {
        fill: #feddb6;
      }

      .cls-95 {
        fill: #353535;
      }

      .cls-96 {
        fill: #e8c39d;
      }

      .cls-97 {
        fill: #e4ae96;
      }

      .cls-98 {
        fill: #75412f;
      }

      .cls-99 {
        fill: #97745f;
      }

      .cls-100 {
        fill: #96593d;
      }

      .cls-101 {
        fill: #313031;
      }

      .cls-102 {
        fill: #cbb7af;
      }

      .cls-103 {
        fill: #de9077;
      }

      .cls-104 {
        fill: #ac8770;
      }

      .cls-105 {
        fill: #c2a28c;
      }

      .cls-106 {
        fill: #070707;
      }

      .cls-107 {
        fill: #1a1919;
      }

      .cls-108 {
        fill: #302221;
      }

      .cls-109 {
        fill: #504035;
      }

      .cls-110 {
        fill: #c8a28e;
      }

      .cls-111 {
        fill: #9a6c5e;
      }

      .cls-112 {
        fill: #b4795e;
      }

      .cls-113 {
        fill: #aa836e;
      }

      .cls-114 {
        fill: #e9af8e;
      }

      .cls-115 {
        fill: #2f1f12;
      }

      .cls-116 {
        fill: #f8c8ad;
      }

      .cls-117 {
        fill: #161616;
      }

      .cls-118 {
        fill: #39261b;
      }

      .cls-119 {
        fill: #c7958b;
      }
    </style>
  </defs>
  <g id="LowGoblin">
    <path class="cls-68" d="M24.07,60.07l.93,1.35c2.35-.87,3.72-.34,4.12,1.6l-.17,2.19c-3.02,4.99-5.24,10.21-6.63,15.63.39,2.67,0,4.75-1.18,6.21.09.72.09,1.72,0,3,1.65,1.4-.27,4.29-2.26,4.17-2.01,5.14-4.21,2.9-3.73-2.26.8-2.87,1.18-5.84,1.14-8.9-1.51.61-1.91-.42-1.22-3.08.16-.25.13-.7.18-1,2.21-3.04,3.07-6.07,3.53-9.77,1.1-3.84,2.06-8.02,4.46-11.17l.83,2.03Z"/>
    <path class="cls-31" d="M16.29,83.06c.27,3.54-.17,7.21-1.3,11-.42,5.44-4.15,5.82-3.04.99l.19-3c.27-4.1.67-8.58,2.93-12.07.63.94.82,2.05,1.22,3.08Z"/>
    <path class="cls-13" d="M15.25,78.98c.13-.69.08-1.41.04-2.1-.25-2.05-.39-4.55,1.87-4.92.19-1.03,1.35-1.79,1.62-2.75,1.4,3.12-.14,8.68-3.53,9.77Z"/>
    <path class="cls-39" d="M52.38,16.37c1.51,1.01,1.39,2.65-.37,4.9-.73,2.53-2.51,2.13-5.36-1.19-2.58.28-4.48-.38-5.68-1.97.96-1.2,2.1-2.31,3.82-2.23.53-1.26,2.31-1.77,3.34-.83,2.36-.13,3.77.3,4.24,1.31Z"/>
    <path class="cls-23" d="M35.08,19.99c1.85-1.16,2.83-1.04,1.5.92,1.93.18,2.35,2.43,2.52,4.16,2.71-.26,3.05.4,1.03,1.99-.47,1.46-2.48,1.5-3.25.25-.28.88-.56.83-.83-.08-1.81.26-2-1.26-.54-2.3-1.87.25-2.84-.14-3.31-2.05-1.22.46-1.67.09-.95-1.04.82-1.3,2.36-1.71,3.82-1.86Z"/>
    <path class="cls-83" d="M66.14,1.06c.26.91-.07,1.25-.99,1.05-1.04,1.91-5.74,2.31-7.8,2.1-.8.29-.82-.09-.07-1.14.89-.59,1.28-1.96,1.93-2.75,2.56-.28,4.89-.79,6.93.75Z"/>
    <path class="cls-1" d="M40.98,18.11c-.18,1.16-1.43,2.09-3.75,2.77.06.86-.16.83-.64.02-.06-.84-.79-1.04-1.5-.92,1.64-1.74,3.68-2.77,5.9-1.87Z"/>
    <path class="cls-77" d="M57.34,4.2c2.08.53,2.32,4.58-.21,4.86-.59,1.82-1.56.52-2-1,0-2.03.43-3.88,2.13-5l.07,1.14Z"/>
    <path class="cls-5" d="M57.14,9.06c.87.28.86.62,0,1,1.21,1.46,1.07,4.46-1,4,.14-1.43.14-3-1-4v-2l2,1Z"/>
    <path class="cls-113" d="M31.26,21.84c.5.05,1.34.43.95,1.04,1.58,3.92-6.01,4.58-4.07.18.41-.36.76-.79,1.11-1.2.67.03,1.34-.08,2.01-.01Z"/>
    <path class="cls-47" d="M31.17,50.89c4.77.72,2.32,3.41-1.64,4.15l-5.46,5.02c-1.65,1.49-1.84-.7-.83-2.03,0-.31-.13-.63-.1-.93,2.1-1.84,3.37-4.45,5.74-6.02.21-.94,1.85-1.23,2.29-.19Z"/>
    <path class="cls-21" d="M37.17,47.96c.93.09,1.01.45.28,1.07,1.9.84,1.81,1.81-.2,2.31-.32.86-.66.84-1.02-.04-1.77,1.56-3.89,1.98-5.07-.42l-2.29.19c-.03-.33.07-.68.02-1.01l7.16-2.82c.8-.44,1.18-.2,1.12.71Z"/>
    <path class="cls-114" d="M32.21,22.88c.64-.35,1.62.01,2.26.18.93.25.74,1.2,1.05,1.87-.33,1.14-1.33,1.85-2.25,2.35,2.06.84,2.02,1.68-.12,2.53,2.61,3.46-3.17,5.69-4.04,1.21-.55-.2-1.15-.32-1.64-.66-2.9.64-1.62-1.79-.53-3.15-2.87-.45-2.65-2.44.09-3.15.32-.39.73-.68,1.11-1.01-.12.99.96.99,1.48.98,1.11-.02,1.79-.72,2.59-1.16Z"/>
    <path class="cls-86" d="M27.02,24.07l-.09,3.15c-.45,2.63-1.33,2.39-1.79-.21-.43,2.16-1.55,2.59-3.03.91-.16,2.02-1.7,1.73-1.9-.23l-.09-1.49c1.46-2.3,4.34-2.61,6.89-2.13Z"/>
    <path class="cls-118" d="M26.94,27.21l.53,3.15c-3.77,4.1-5.18-.4-11.42-1.72,1.27-1.06,2.82-.62,4.18-.96.6-.15,1.29.28,1.9.23,1.19.28,2.29-.02,3.03-.91l1.79.21Z"/>
    <path class="cls-71" d="M18.88,94.22c2.33-.13,1.47,2.68-.28,3.41.67,1.78-1.1,5.44-3.2,5.2-.42.83-.84.83-1.26,0-1.98-.14-4.53-.57-3-2.78-.6-1.72-.56-3.68.81-5,.26.65.09,1.55.81,1.99,1.72-4.98,1.01-10.05,3.54-13.98.57,1.45.59,3.55,2.72,3.97-.84,1.89-4.1,5.81-2.27,7.88.46.53,1.51.02,2.13-.7Z"/>
    <path class="cls-80" d="M14.14,102.83c-.75,1.57-2.81,1.09-4.15.17-.09-1,0-2.01.08-3.01l1.07.07c.1,1.63,1.68,2.18,3,2.78Z"/>
    <path class="cls-63" d="M31.17,63.17c.93,1.7,1.01,3.87.95,5.85,1.94-.21,1.95.59.02,1.22-.17,1.97-1.91,4.55-3.94,4.94.18.95.15,1.31-.82,1.01-.03,1.96-.84,1.86-1.24-.14-1.05-.94-.57,3.07,0,4l-.03,1.1c2.46.87,1.92,4.1-.74,4.11-.31.85-.68.83-1.11-.01-1.06.73-2.1,1.33-3.12,1.8-2.41-6.28.27-11,3.86-18.15,1.22-2.43,1.19-5.15,4.12-5.88.2-.88.51-.86.92,0,.47-.47.81-.46,1.13.15Z"/>
    <path class="cls-95" d="M33.01,56.03c1.59.22,1.59,1.25,0,3.08,1.76,2.11-.48,4.21-2.97,3.91h-.92c-1.53,0-3.27-.19-4.49.93-.99.91-.35,3.04-2.74,4.19-.4-2.83,1.34-5.51,2.18-8.07l5.09-4.77c2.97-2.18,4.25-1.94,3.85.74Z"/>
    <path class="cls-78" d="M19.66,97.92c-.64,1.24-1.29,1.03-1.06-.29.97-.95.21-2.28.28-3.41.1-1.63,1.7-2.72,2.26-4.17-.49-1.84,1.16-4.28,3.12-4.8.34.08.77-.09,1.11.01,3.19,2.88-1.48,13.02-5.71,12.65Z"/>
    <path class="cls-95" d="M24.26,85.25c-1.21,1.5-2.42,2.99-3.12,4.8-.89.16-.78-.8-.76-1.29.02-.62.64-1.2.76-1.71.3-1.46,1.72-2.13,3.12-1.8Z"/>
    <path class="cls-14" d="M18.14,107.05c-.86,1.61-1.51,3.44-3.82,3.42-1.85-.02-15.27,6.26-14.27-.55.1-.68,1.35-.46,1.89-.57,1.24-1.1,3.57-1.3,4.23.55,3.36-2.65,7.04-3.96,11.01-3.94,1.54-1.1,1.44-.65.95,1.1Z"/>
    <path class="cls-82" d="M9.99,103c1.07.23,1.43.66,1.05,1.27,3.26,2.54-2.93,5.97-4.8,3.8-1.34,1-2.03.84-2.4-.99,2.06-1.38,3.6-3.88,6.14-4.08Z"/>
    <path class="cls-24" d="M6.24,108.07c1.94.57,1.9,1.4-.07,1.83-1.34.1-3.47.91-4.23-.55,1.05-.23,1.19-1.79,1.9-2.27.92-.11,2.26-.2,2.4.99Z"/>
    <path class="cls-119" d="M71.37,8.06c.1,1.29-.78,3.19.54,4-.46,2.14-1.7,3.96-2.77,5.84-1.06.8-1.52.39-1-.84l-1.04-.89c.45-2.09,1.17-4.44,2.17-7.05-.86-.25-.82-.54.06-.87.13-.89.42-.89.87-.06-.4-1.91.38-1.99,1.18-.13Z"/>
    <path class="cls-57" d="M52.01,21.27c2.45-.11,2.89.52,2.17,2.83,2.66,1.71,1.32,6.01-2,4-1.43-1.52-3.08-2.58-4.96-3.18-1.79.26-2.85-.13-3.2-1.17-1.69.03-2.47-.48-2.5-2.02-2.21,1.39-3.65,1.11-4.3-.85.68-1.51,2.76-1.53,3.75-2.77,1.87.76,4.67-1.04,6.79.32,1.54.99,2.36,3.06,4.25,2.83Z"/>
    <path class="cls-35" d="M55.12,17.31c1.58-2.2,2.53-.34,3.07,1.75,1.74-.49,1.72.27,1.13,1.86.59.1.5.35-.1.69,1.04,1.27.49,1.79-1.08,1.44.45,1.16-.53,2.01-1.74,1.86-1.74,1.99-2.13,1.83-2.21-.82-1.21-.46-1.97-1.57-2.17-2.83-.45-.69-1.74-1.49-1.19-2.22.71-.93,1.19-1.71,1.56-2.68,1.58-1.09,3.08-1.26,2.74.94Z"/>
    <path class="cls-38" d="M55.14,14.06c.44,1.67-1.09,2.6-2.76,2.31-1.32-.61-3.49.34-4.24-1.31,2.25-.78,4.64-1,7-1Z"/>
    <path class="cls-91" d="M71.37,8.06l-1.18.13c-1.41-.32-2.18-1.82-2.06-3.13-.95,1.75-1.6,1.32-1.11-.71-2.29.74-3.03-.18-1.88-2.24.29-.39.62-.74.99-1.05,1.28.96,3.65.81,4.41,2.24.88,1.66.7,3.23.82,4.76Z"/>
    <path class="cls-64" d="M44.02,23.75c-.38,2.02-3.68,3.21-4.92,1.31-.9-.23-1.94-.44-2.31-1.05-.65-1.05-.35-2.25-.21-3.11.2.03.45-.09.64-.02,1.46.56,3.01-1.41,4.7-1.03,1.82.41,1.65,2.87,2.1,3.9Z"/>
    <path class="cls-48" d="M40.14,27.06c.66-1.6,1.48-1.67,2,0,1.24-.73,2.24-.73,3,0,.87.28.86.62,0,1,.22.33-.07.74-.87,1.23,0,.94-.31.92-.9.08-1.07,2.76-2.37,2.16-3.23-.3-.21,1.24-1.21,1.24-3,0-2.69-.1-2.67-.54-.25-1.75,1.08-.1,2.16-.24,3.25-.25Z"/>
    <path class="cls-92" d="M44.02,23.75c.91-.28,2.84.32,3.2,1.17-.54,1.21-2.23,1.92-5.08,2.14-.67-.03-1.33,0-2,0l-1.03-1.99c1.78.18,3.29-.82,4.92-1.31Z"/>
    <path class="cls-99" d="M36.06,27.23c.27.02.56.11.83.08l.25,1.75c-.45.8-1.52,1.06-3.19.8l-.8-.04c-.46-.84-.05-1.7.12-2.53.42-1.65,2.43-1.81,2.79-.06Z"/>
    <path class="cls-66" d="M35.52,24.93c.33.72.74,1.43.54,2.3-.93-.06-1.86-.06-2.79.06.15-.73-.4-1.82.49-2.11.67-.22,1.27-.27,1.76-.24Z"/>
    <path class="cls-52" d="M55.12,17.31c-.76-.36-1.96-.49-2.74-.94.45-1.18,1.77-1.67,2.76-2.31h1c1.52,1.35,1.28,3.52-1.02,3.25Z"/>
    <path class="cls-116" d="M65.14,2.11c.92.21,1.29,1.67,1.88,2.24.76.84.07,1.77-1.05,1.46.2,2.04-1.3,2.14-1.83.1-1.38.39-2.46,1.07-3.24,2.03-.35,2.19.4,3.56,2.27,4.13,1.44.83,1.27,1.87,0,2.89.16,1.09-.53,2.14-2.08,3.15,2.59,1.66.51,2.52-1.78,2.81-.53-.52-.91-1.16-1.13-1.86-1.62-1.75-1.73-4.08-.34-6.98l-.71-2.02v-1c0-1.62.31-3.25.21-4.86,2.37-1.51,4.96-2.74,7.8-2.1Z"/>
    <path class="cls-43" d="M58.19,19.06c-1.34.01-2.05-1.26-3.07-1.75.44-1.05.8-2.13,1.02-3.25,1.16-1,1.17-2.57,1-4,2.49,1.02,1,3.54.9,5.71-.05,1.07,1.7,2.77.16,3.3Z"/>
    <path class="cls-62" d="M42.14,41.91c3.28,1.72,4.39,6.11,2.92,9.24,1.76,2.76-1.06,3.93-3.07,1.76-1.79-.71-3.3-2.01-4.53-3.87l-.28-1.07c.3-1.11.86-2.4,1.66-3.87-.21-.74,0-1.55-.17-2.28.49-.28,1-.52,1.52-.73,1.04-1.26,2.32-.95,1.95.83Z"/>
    <path class="cls-60" d="M37.17,47.96c-.41-.18-.78-.42-1.12-.71.68-1.25,1.39-2.64,2.78-3.16,1.79,1.39-.32,2.91-1.66,3.87Z"/>
    <path class="cls-45" d="M36.23,51.31c2.16,2.5-.77,6.71-3.23,4.72-3.93-2.22-2.92,2.46-8.94,4.04,1.15-3.48,3.93-5.81,8.02-7.4-.27-.59-.76-1.15-.93-1.78,1.74-.15,3.87-1.23,5.07.42Z"/>
    <path class="cls-95" d="M41.09,53.05c2.38,1.65-2.94,3.95-4.85,4.72-.65.26-1.29.49-2.02.45.83,1.78.24,2.21-1.21.9-.08-1.03-.1-2.06,0-3.08,2.88-.2.99-3.68,3.23-4.72l1.02.04c1.98-1.05,3.28-.49,3.84,1.7Z"/>
    <path class="cls-87" d="M41.98,52.91c-.07.9-.37.92-.9.13-1.5.15-2.97-.44-3.84-1.7.11-.77.18-1.54.2-2.31,1.11.01,2.54-.4,3.05.3.9,1.23,1.13,2.55,1.49,3.58Z"/>
    <path class="cls-90" d="M22.12,27.91c1.07-.05,2.12-.34,3.03-.91v2.5c0,.71-1.43.79-1.97.16-.37-.42-.7-1.09-1.06-1.75Z"/>
    <path class="cls-110" d="M50.13,39.72c.03-2.54,2.59-2.68,3.83-.64,1.27-.59,1.7-.12.88,1.04,1.7,1.19,1.17,1.61-.71,1.93-.33.92-1.29.41-2,0-1.83,1.14-4.17,1.48-7,1-.59,1.52-1.59,1.14-3-1.14-.68-.2-1.37-.4-1.95-.83l-.04-1.11c.31-2.5,2.9-4.34,4.99-1.91,2.2,0,3.87.56,4.99,1.67Z"/>
    <path class="cls-72" d="M43.37,29.36c1.84.12,2.32.56.74,1.67.06,1.49.07,2.83.03,4.03.9.79,1.67,1.99,1,3l-4.99,1.91c-.41-.28-.89-.66-.94-1.2-.04-.51.3-1,.59-1.41,1.5-1.8,1.04-4.27.34-6.3-1.58-.83-1.93-1.76,0-2,1.08,0,2.15.22,3.23.3Z"/>
    <path class="cls-102" d="M39.8,37.36c-.67-1.25-.55-2.68.34-4.3.02-.33,0-.67,0-1v-1c1.6,1.43,1.92,5.39-.34,6.3Z"/>
    <path class="cls-58" d="M19.58,99.05c.45,2.39-.5,6.51-3.02,4.75-1.3.6-1.85.29-1.16-.97,1.42-1.49,2.54-3.24,3.2-5.2.53-.71.68-.27,1.06.29.47.68.15.68-.08,1.13Z"/>
    <path class="cls-40" d="M14.14,102.83c.39-.09.86.02,1.26,0,.64-.03.83.61,1.16.97,2.09-.55,2.24.31.02.96-1.29,2.21-5.55,2.93-5.55-.49-.56-.11-1.01-.73-1.05-1.27,1.37-.11,2.79.14,4.15-.17Z"/>
    <path class="cls-20" d="M43.83,57.22c1.55.94.18,2.59-1.28,3.13-1.65,4.4-11.55,11.19-11.37,2.82l-1.13-.15c1.06-1.26,2.4-2.33,2.97-3.91.39-.31.86-.54,1.21-.9,4.58-2.26,6.86-3.39,6.86-3.39l1.05,1.23c1.05-.46,1.64.08,1.69,1.16Z"/>
    <path class="cls-32" d="M43.21,61.04l-.13.91c-2.9,3.33-6.58,6.21-10.96,7.07-1.39-.11-1.99-1.32-2.05-2.47-.07-1.32.23-2.52,1.1-3.38,2.6,2.23,2.34-1.7,5.41-1.11.6.12.69.59.07,1.03-.45.32-.98.99-1.69.77-2.55-.8-4.05,7.45,7.58-3.5.7-.32.91-.07.66.69Z"/>
    <path class="cls-106" d="M26.14,76.05c1.2.33.62,2.78,0,4-1.44-.41-.92-2.34-1.08-4.31.03-2.15,1.33-1.85,1.08.31Z"/>
    <path class="cls-33" d="M78.21,73.96c-2.73-8.09,9.43,26.33,3.92,13.09,1.08,2.61,3.22,7.32,2.74,9.94l-.67.79c-1.7,1.28-2.6.03-2.71-3.74l-2.36-.98v1c-.62.63-1.49,1.16-1.85.78-2.94-3.11-4.39-7.91-5.23-12.05-1.81-.69-3.02-2.9-1.21-3.76-.59-3.36.41-3.21,3.22-2.44.23-2.85.99-4.72,2.26-5.61.75.82,1.52,1.9,1.88,2.99Z"/>
    <path class="cls-79" d="M86.13,103.15c-.18-1.99,1.26-1.87,2.01-.1l2.66,3.19.08.87c-.7.89-1.88,1.23-3.35.73l-5.26-1.8-2.99-2.16.05-2.96c-.08-2.67.84-2.7,1.98-.3,2.25-1.42,4.3-.08,4.82,2.53Z"/>
    <path class="cls-12" d="M86.19,99.91c1.61,2.03,1.59,3.11-.06,3.24-1.82-.32-3.55-1.17-4.82-2.53-.37-2.11.8-3.12,2.9-2.84.07-.34.43-.59.67-.79-.15.8.64,2.47,1.31,2.92Z"/>
    <path class="cls-61" d="M89.13,103.05c-.28.87-.62.86-1,0l-2.01.1.06-3.24c1.25.85,2.24,1.79,2.95,3.14Z"/>
    <path class="cls-27" d="M90.8,106.25c-1.73.03-2.74-1.57-2.66-3.19h1c.55,1.06,1.55,1.94,1.66,3.19Z"/>
    <path class="cls-31" d="M84.2,97.78c-.29,1.5-1.3,2.76-2.9,2.84l-1.98.3c-.03-.43-.74-.75-1.03-1.01l-.09-.97c-.64-1.75-.35-2.68.87-2.8.65-.66.67-1.69.06-3.08.6-.52,1.34-.89,1.92-1.85-1.66-1.6-1.81-3.19-2.28-5.13-1.12,2.28-1.75,2.25-1.72,0,.48-1.05,1.63-1.75,1.74-2.55.13-.91-1.86-1.25-1.73-2.85,3.15-3.35,5.09,15.46,7.13,17.1Z"/>
    <path class="cls-56" d="M82.27,106.04c-.64-.22-1.44.03-2.16-.46-.5-.34-.84-.97-.83-1.7.7-.1,1.51-.14,2.17.3.55.37,1.42,1.11.82,1.87Z"/>
    <path class="cls-80" d="M16.58,104.76c.55-.06.38.93.6,1.19-2.98,2.57-7.11,3.65-11.01,3.94.03-.6.14-1.22.07-1.83,2.53.53,3.5-2.01,4.8-3.8,1.84.35,3.68.7,5.55.49Z"/>
    <path class="cls-85" d="M69.4,19.07l.05,1c.91.75,1.95,1.84,1.69,2.98,1.49,2.3,2.7,7.46-.19,8.83.78,1.99-.15,2.05-2.81.17-.6,1.38-1.25,1-1.96-1.13-.26.87-.56.82-.91-.06-1.79.39-1.96-.34-.34-1.25l-1.13-1.2c-6.79.37-3.74-3.68-.63-7.19.18-.2.5-.28.86-.33-1.79-1.85-1.36-2.44,1.06-1.68,1.06-.68,3.48-1.25,4.29-.15Z"/>
    <path class="cls-49" d="M74.14,33.06c2.93-.09,2.91,3.25.13,4,.91,2.83,1.22,5.49.92,7.98l-2.05,1.02c-.12.9-.45.99-.98.25-2.43-.42-1.71-5.49.09-6.25-.69-1.91-1.56-3.74-2.59-5.51l1.46-1.58c1.41-2.59,2.88-5.66-.09-7.2.16-.7.53-1.6,1.11-2.71l.93-.15c1.79,3.07.96,6.71,1.07,10.15Z"/>
    <path class="cls-18" d="M72.14,23.06c.61,2.2,2.66,9.49-1.02,9.92-.92-.23-.97-.6-.16-1.09.56-1.92,1.96-3.97.73-5.86l-1.12,3.11c-.07-2.38-2.53-3.63-2.2-5.97,1.06.47,1.41.96,1.74,1.42s.74.71,1.02-.04c.2-.56-.15-1.17.02-1.49-1.28-1.39-.71-2.02,1-1,.11.3-.09.7,0,1Z"/>
    <path class="cls-93" d="M69.14,17.9c-.06.39.24.78.26,1.18-1.33.78-2.87.57-4.29.15-1.92-.22-1.86-.98.09-1.29.69-2.39,1.1-2.43,2.94-.88.62-.11,1.12.13,1,.84Z"/>
    <path class="cls-88" d="M72.14,22.06c-.34.29-.78.59-1,1-1.24-.45-1.63-1.74-1.69-2.98,1.19.16,2.28.81,2.69,1.98Z"/>
    <path class="cls-75" d="M68.14,5.06c.66.82,1.06,1.89,1.19,3.19l-.06.87c-.56,4.65-2.27,6.97-5.13,6.94-1.83,1.14-2.33.56-.96-1.1-.11-.96-.04-1.93,0-2.89-.88,0-.91-.31-.17-.91.17-1.34.63-1.97,1.37-1.89.35-1.23.89-2.38,1.6-3.46,0-.63.55-1.17,1.05-1.46.27.26.76.61,1.11.71Z"/>
    <path class="cls-76" d="M68.14,17.06c-.69.92-1.87,1.03-2.94.88-.94.32-1.25,0-.93-.93-.95-.06-.97-.39-.12-.94.87-1.18.71-2.63,1.42-3.98,2.66,4.87,1.2-2.26,3.72-2.96-.19,2.68.18,5.51-1.13,7.94Z"/>
    <path class="cls-10" d="M70.2,8.19l-.87.06c-.8-.1-2.13-.27-1.81-1.18.27-.79.53-1.39.62-2.01,1.4.42,2.08,1.71,2.06,3.13Z"/>
    <path class="cls-81" d="M56.39,24.92c1.65-.87,1.94-.2.7,1.17,1.78.59,1.79,1.24.04,1.96,2-.02,1.65,1.4-.19,1.84.48,1.37-.47,2.09-2.87,2.14.28,3.15-4.89,3.85-6.94,1.96-1.66,1.98-4.13-.78-3.03-2.96-.15-.58-.54-1.1-.74-1.67.29.02.62-.01.9-.08,2.43-.58,5.07-.97,7.91-1.18,1.32-1.03,2.37-2.07,2-4,.72.27,1.56.39,2.21.82Z"/>
    <path class="cls-15" d="M52.18,28.1l-1.05-.05c-2.09-.38-4.09-.71-6-1-.99-.1-2,.04-3,0,1.32-1.48,3.52-1.04,5.08-2.14,1.18-.82,2.5-.35,3.58.38s1.63,1.47,1.38,2.8Z"/>
    <path class="cls-8" d="M64.26,17c.24.36.65.6.93.93l-.09,1.29c-.04.56-1.08,1.09-1.06,1.68-.66.93-1.66,1.71-3,2.33-.7-.3-1.31-.84-1.82-1.61.1-.16.04-.49.1-.69.5-.93,1.49-1.77,1.78-2.81.88-1.67,1.81-2.65,3.16-1.11Z"/>
    <path class="cls-46" d="M61.04,23.22c.25,1.55-.82,2.4-1.84.91-1.64,1.08-2.15.56-1.07-1.07.45-.33.64-1.07,1.08-1.44.49-.1,1.18-.81,1.48-.47.55.63.52,1.67.35,2.07Z"/>
    <path class="cls-51" d="M59.2,24.13c1.65,2.6.4,3.78-2.11,1.96-.42-.21-.46-.89-.7-1.17.23-.92,1.04-1.35,1.74-1.86.33.39.68.74,1.07,1.07Z"/>
    <path class="cls-67" d="M51.14,28.06c.35,0,.7,0,1.05.05-2.35,1.84-5.21.56-7.91,1.18-.41-.7.22-1.23.87-1.23,1.33-.95,4.24-.73,6,0Z"/>
    <path class="cls-2" d="M51.14,28.06h-6v-1c1.99.2,4.73-.87,6,1Z"/>
    <path class="cls-84" d="M63,11.16c0,.3.18.61.17.91-.85.69-2.08,1.12-3.05.44-.74-.52-1.29-1.6-.81-2.54.3-.59.95-1.28,1.59-2.02,1.77-3.39,3.68.5,2.1,3.22Z"/>
    <path class="cls-3" d="M64.14,5.91c1.51.23,1.38,2.56.23,3.35-.53.41-.51,1.68-1.37,1.89-.02-.73.02-1.51-.25-2.44-.19-.66-1.05-.9-1.85-.78-.74-.59-1.03-1.71-.71-2.34.44-.88,1.66-.91,2.31-.68.49.18,1.03.41,1.64,1Z"/>
    <path class="cls-10" d="M65.97,5.81c0,.74.18,1.48,0,2.53-.11.7-1.06.51-1.61.93l-.23-3.35,1.83-.1Z"/>
    <path class="cls-97" d="M64.14,16.06c.1.28-.04.71.12.94-1.1.22-2.18.55-3.16,1.11.35-1.26.42-3.06,2.08-3.15.06.51.48.95.96,1.1Z"/>
    <path class="cls-45" d="M48.24,53.42c-.69,3.2-2.27,1.33-.17.41.9-.4.1,4.66-2.77,2.37-1.05.18-2.19.15-3.17-.13-5.89.21-3.74,3.79-7.92,2.16,2.66-2.7,5.61-1.25,6.87-5.17l.9-.13c1.22-.18,2.39-.7,3.07-1.76,1.31.3,2.1,1.73,3.18,2.26Z"/>
    <path class="cls-29" d="M61.92,37.34c2.46.39,2.84,2.51.56,3.61,1.98,1.77,1.22,2.4-1.14,1.18.08,1.93-.7,1.86-1.21-.07-1.83-.15-2.25-.48-1.25-1.01-2.02.37-3.36.06-4.03-.92-.5.02-1.18-.49-.88-1.04-2.34-1.51-1.48-2.68,1.17-2.03,1.53-1.38,4.89-.76,6.78.28Z"/>
    <path class="cls-26" d="M53.14,36.03c1.64-.28,2.3.06,2,1.03l-1.17,2.03c-1.28.08-2.55.62-3.83.64-1.31-.45-2.5-1.29-1.53-2.53-.9-.13-.91-.46-.11-.99,1.26-1.88,3.53-2.23,4.65-.17Z"/>
    <path class="cls-42" d="M60.14,42.06c-.48,2.81-.76,2.38-2,0-.48,1.27-3,.91-4,0,.17-.67.4-1.32.71-1.93l3.76-.14c1.07-.04,1.86.55,1.52,2.08Z"/>
    <path class="cls-44" d="M50.13,39.72c-1.86.02-3.68-.4-4.99-1.67-.13-1.75,1.95-1.29,3.46-.87.97.48,1.43,1.49,1.53,2.53Z"/>
    <path class="cls-100" d="M47.14,33.99c2.52.19,2.97.92,1.35,2.21-1.3,1.52-4.09,1.06-4.35-1.14-.69-.6-1.14-1.49-1.02-2.42.06-.51.02-1.95,1-1.61.4,1.53,1.34,2.91,3.03,2.96Z"/>
    <path class="cls-112" d="M48.49,36.2c.16.26,0,.7.11.99-1.02.69-2.24.91-3.46.87-.95-.91-2.19-1.7-1-3,1.3.83,2.84,1.05,4.35,1.14Z"/>
    <path class="cls-73" d="M48.24,53.42c1.17.58,3.88.19,4.67,1.66,3.48-.28,5.54,4.43,2.36,6.25,1.47,1,1.83,1.6-.08,1.78-1.27-2.08-2.87-4.13-4.39-6.93-3.36.43-5.31,3.06-7.59,4.87-.3-.15-.59-.34-.66-.69.57-.81.56-2.33,1.28-3.13-.39-1.39.21-1.74,1.47-1.03.49-.24,1.35,0,1.4-.81.04-.61-.11-1.13-.3-2.23l1.84.27Z"/>
    <path class="cls-32" d="M45.3,56.19c-.49.24-.83.99-1.47,1.03-.39.02-.8,0-1.17-.17-.41-.18-.63-.53-.52-.99.42-.39.91-1.13,1.53-1.01.76.15,1.89.23,1.63,1.14Z"/>
    <path class="cls-28" d="M70.08,76.32c1.63-.49,1.88.41.76,2.7.22.5-.2,1.48.75,1.59.48.05,1.47-.24,2.5,0-.26,5.1.39,10.97,5.04,13.44.97.55.98,1.55-.06,2.08.32.87-.12,2.34-.87,2.8l-4.6-6.82c.1-2.98-2.48-5.57-3.49-8.19-.54-1.4-.41-3.23-2.07-4.02-2.97-.71-2.56-3.47.43-3.62.3-.84.53-.75.7.18.06-.9.36-.93.9-.14Z"/>
    <path class="cls-107" d="M65.14,68.06c.44,1.25.45,3.05-1,3-.41,2.06-2.2,1.51-2.91-.19-2.61-2.16-4.32-4.95-6.03-7.76l.08-1.78c2.43-2.02,5.2-.37,8.33,4.97,1.33.42,1.84,1.01,1.53,1.77Z"/>
    <path class="cls-105" d="M66.14,75.05c-.16-1.94.62-1.93,1.17.01,1.08-1.68,1.56-.51,1.17,1.23-.31,1.18-.51,2.39-.43,3.62-.26-.05-.72.31-.93.17-5.59,2.99-7.58-2.34-2.68-4.85-.44-1.96,1.07-2.18,1.7-.18Z"/>
    <path class="cls-6" d="M64.14,71.05c1.3-1.11,1.63-.59,1,1,.73.84.03,1.73-1,2-1.31-.12-2.31-.98-3.07-2-.13-.34.22-.83.15-1.19.96.15,1.94.15,2.91.19Z"/>
    <path class="cls-108" d="M76.33,70.97c-1.03,2.05-.43,3.7.27,6.69.34,1.47-4.57,1.29-4.85-.53-.88,1.04-.8,1.54-.9,1.89-.31-.69-1.12-1.89-.76-2.7-.67-3.03.01-4.56,2.06-4.61-1.51-1.56-1.86-3.82-1.05-6.78-2.01-.47-1.99-1.32.04-1.66.04-2.08.72-3.16,2.04-3.22.53,3.73,2.96,7.13,3.14,10.92Z"/>
    <path class="cls-117" d="M79.07,96.14c-.26-.72-.7-1.35.06-2.08v-1c.99.96,2.26,1.94,1.95,4.01-.98-.22-1.35-.9-2.01-.92Z"/>
    <path class="cls-7" d="M64.04,20.9c.06,1.84-1.77,2.63-2.71,4.26-1.78,3.08,5.35.52,3.6,4.46l-1.84,3.56c.03,1.62-1.29,2.53-3.96,2.72-1.01,1.11-3.54.84-2.91-.84-.55-.75-.87-1.75-.95-3.02-.4.51-.8.51-1.2,0,.19-1.31,1.51-2.34,2.87-2.14.82-.66.88-1.27.19-1.84-.63-.53-.52-1.36-.04-1.96.96-.36,1.52-1.18,2.11-1.96.38-.51,1.4-.46,1.84-.91.62-.65.99-1.32,1.32-2.25.26-.71.9-.62,1.68-.08Z"/>
    <path class="cls-70" d="M70.95,31.88c.1.35.05.75.16,1.09.8,2.33,1.53,4.63,1.14,7.08-1.67,2.32-1.8,1.23-1.91-1.19-1.66.4-1.58-1.38-1.05-2.81-1.32,1.16-1.96.65-2.15-1.01-.8-.29-.78-.62,0-1-.82-1.78,2.15-.85,2.12-.7-.03.13-2.35.15-1.12-1.3l2.81-.17Z"/>
    <path class="cls-4" d="M68.14,32.06c-.36.34,3.45,1.55,1.48,1.98-.91.2-1.66-.06-2.48.02-.28.87-.62.86-1,0-.33.88-.67.95-1.19.15-1.29-.18-1.32-.49-.09-.93l1.32-2.36c.73.23,1.41.6,1.96,1.13Z"/>
    <path class="cls-9" d="M64.93,29.61l.34,1.25c1.15,1.21.16,1.86-1.22,2.44-.38.83-.7.78-.96-.12-.09-1.17-.44-2.33-.68-3.43,1.16-.53,1.83-.46,2.52-.13Z"/>
    <path class="cls-17" d="M66.17,30.92c.03.49.99,1.29.71,1.67-.44.58-1.65.6-2.03.69l-.8.02c.17-.91.55-1.78,1.22-2.44l.91.06Z"/>
    <path class="cls-25" d="M72.25,40.06c-.33,2.05-.01,4.19-.09,6.25-1.22.94-2.36,2.06-3.84,2.57-1.48-.63-1.52-2.15-.01-2.75-.65-3.49.03-5.91,2.04-7.27l1.91,1.19Z"/>
    <path class="cls-103" d="M55.28,32.04c.57.91.43,2.22-.25,3.02.61,1.59-.49,1.52-1.89.97-1.55-.03-3.1.02-4.65.17-.45-.74-.96-1.44-1.35-2.21,2.49.25,4.75-.85,6.94-1.96.36-.09.86.14,1.2,0Z"/>
    <path class="cls-69" d="M56.95,29.89l.19-1.84c.84.07,1.61-.18,3.05.15-.71,1.78-1.9,1.89-3.24,1.68Z"/>
    <path class="cls-59" d="M60.16,52.23l2.02,1.21c.08,3.18.04,6.03-.12,8.56,1.48-.2,2.9,2.08,2.19,3.2-.1.16-.88-3.39.89-3.15-3.33-1.7-3.92-6.97-.98-9.23-.91-1.72-.24-2.12,1.28-.85.09,1.86,1.01,4.05.82,6.1.61,3.3,1.36,7.52-1.11,9.99-2.53,0-3.15-4.34-9.86-6.73.1-2.15-1.3-4.29-2.36-6.25.78-1.23,1.58-3.15,2.95-3.44,1.54-.32,2.95.59,4.3.59Z"/>
    <path class="cls-101" d="M62.93,48.95c1.05,1.24,1.46,2.53,1.22,3.87.07,3.09.51,6.19.98,9.23-.2,2.95-1.48,1.68-3.08-.06-2.91-3.34-1.68.42-1.89-9.77-.03-1.63,1.34-3.09,1.42-4.7h.7c1.78-.53,2.09.21.65,1.43Z"/>
    <g>
      <path class="cls-41" d="M45.14,43.06c2.71-.04,5.38-.04,8,0,1.33-.62,3-.62,5,0,.43-.7,1.1-.37,2,1,1.6-.26,1.98,2.11,1.45,3.47.71,1.27.24,4.84-1.42,4.7-.59,1.64-1.85,2.07-3.79,1.3-.92,1.61-2.07,2.13-3.47,1.55-1.28.3-4.82.78-4.67-1.66-2.99.75-4.05,0-3.18-2.26-2.33-2.52-1.29-6.29-2.92-9.24,1.02.3,2.07.61,3,1.14Z"/>
      <g>
        <path class="cls-36" d="M52.14,42.06l1,1c-2.28,1.13-5.7,1.33-8,0,2.13-.88,4.73-1,7-1Z"/>
        <path class="cls-19" d="M54.14,42.06h4c.87.28.86.62,0,1-1.32,1.45-3.5-.51-5,0-.37-.3-.7-.63-1-1h2Z"/>
        <path class="cls-22" d="M60.14,42.06c1.08.28,1.06,1.47,0,2,.24,1.57.07,4.16-2.22,3.62.76-2.33,1.85-3.8.22-4.62v-1h2Z"/>
        <path class="cls-11" d="M62.29,47.52c-.14.65-.4.51-.7,0,.06-1.24-.71-2.56-1.45-3.47.1-.65-.14-1.36,0-2l1.21.07c2.84.48,4.07,4.65.94,5.39Z"/>
        <path class="cls-30" d="M56.69,47.25c.55-.22.44.99.48,1.36.05.4.03,1.36-.86,1.52-.39.07-1.03-.11-1.18-.61-.24-.8.26-1.75,1.56-2.27Z"/>
      </g>
    </g>
    <path class="cls-98" d="M59.14,35.9c1.75-1.08,2.8-.99,3.14.28l-.36,1.16c-2.25-.26-4.52-.33-6.78-.28-.75-.14-1.45-.49-2-1.03.72-.12,1.42-.39,1.89-.97-.18-1.94.62-1.94,1.2,0,.72.89,1.85.91,2.91.84Z"/>
    <path class="cls-115" d="M66.14,75.05l-1.7.18c-.2-.26-.29-.85-.3-1.18-.04-.76.02-2.01,1-2,1.07.62,1.13,1.86,1,3Z"/>
    <path class="cls-111" d="M64.05,33.3l.8-.02c-.38.35-.35.66.09.93-.71.87-1.56,1.66-2.66,1.97-1.03-.15-2.09-.35-3.14-.28,1.15-1.13,2.66-1.77,3.96-2.72l.96.12Z"/>
    <path class="cls-74" d="M56.23,35.06h-1.2c-.81-.94-.7-2.23.25-3.02,1.29-.52,1.13.05,1.21.7.15,1.29-.02,1.75-.25,2.32Z"/>
    <path class="cls-50" d="M70.34,38.87c-.62,2.44-.47,5.3-2.04,7.27-1.96.66-2.87-3.28-1.17-4.08-.46-.71-.63-1.4,0-2,.19-3,.91-4.33,2.15-3.99.36.74,1.28,1.91,1.05,2.81Z"/>
    <path class="cls-37" d="M67.14,35.06c1.03.91,1.03,2.58,0,5,0,.65.09,1.36,0,2-1.52.74-1.91-.78-1-2-.77-1.97-.87-4.04,0-6h1v1Z"/>
    <path class="cls-94" d="M69.29,36.06c-1.58.83-.83,2.97-2.15,3.99v-5c.8,0,1.77.22,2.15,1.01Z"/>
    <path class="cls-65" d="M67.14,42.06c-.21,1.49-.08,3.08,1.17,4.08.08.91.08,1.83.01,2.75-.69.24-1.48.17-2.17.37.54-3.13-1.12-5.95-1.2-9.02l1.19-.17c.27.69.02,1.74,1,2Z"/>
    <path class="cls-89" d="M65.34,50.07l.1,1.9-1.28.85c-.75-.34-1.38-.94-1.73-1.57-.48-.88-.14-1.71.5-2.29l2.4,1.12Z"/>
    <g>
      <path class="cls-34" d="M73.14,46.06v1l-1,9c-.27,2.42-1.47,4.72-.99,7.22-.13.39-.14,1.25-.04,1.66-.11,2.43-.01,4.79.31,7.07-.98.66-1.73,2.15-2.22,4.46l-.7-.18-1.17-1.23c-2.02-3.07-2.41-5.41-1.17-7.01.58-3.33,1.04-6.66.11-9.99-1.35-1.36-1.76-4.42-.82-6.1-1.97.18-2.08-1.42-.1-1.9-.47-.78-.16-1.03.81-.82.41-2.69.73-2.72,2.17-.37.58-1.92,1.76-3.88,3.84-2.57.24-.19.7-.11.98-.25Z"/>
      <g>
        <path class="cls-16" d="M74.14,55.22c-.37.23-.7.52-1,.84-.28.87-.62.86-1,0-3.12-.95-1.89-8.12,1-9,2.18,1.99.54,5.46,1,8.16Z"/>
        <path class="cls-104" d="M73.19,60.06c-.87.9-1.48,2.12-2.04,3.22-3.26-1.57-2.28-6.26.99-7.22h1c.1,1.31-.13,2.69.05,4Z"/>
        <path class="cls-55" d="M70.08,76.32l-.9.14c.19-3.84.12-8.18,1.92-11.53.34,1.56.51,2.91.54,4.46,3.77-1.9,2.58,3.94,1.36,6.23-1.58.48-1.35-1.99-2.5-3.46.73,1.66.26,2.69-.41,4.16Z"/>
        <path class="cls-96" d="M67.31,75.07h-1.17c-1.16-.48-1.43-1.94-1-3.01-.34-.2-.48-.98-1-1,.13-1.06.47-2.08,1-3,.3-.61.63-.6,1,0-.34.59.03,2.19.08,3.15.02.47.75.36,1.86.57l-.76,3.29Z"/>
        <path class="cls-109" d="M66.14,68.06h-1c1.72-2.99.79-6.61,1.11-9.99,1.63,2.79,1.5,7.16-.11,9.99Z"/>
        <path class="cls-54" d="M67.55,56.04c-.4-1.9-1.62-5.07,1.05-6.39.35,2.11-.51,3.42-1.05,6.39Z"/>
      </g>
    </g>
    <path class="cls-53" d="M65.14,62.06c.17,1.12.05,2.38-.19,4.06-2-.82-1.82-2.9-2.89-4.12l3.08.06Z"/>
  </g>
</svg>