<?xml version="1.0" encoding="UTF-8"?>
<svg id="Enemy" xmlns="http://www.w3.org/2000/svg" viewBox="0 0 115.11 90.7">
  <defs>
    <style>
      .cls-1 {
        fill: #ac877b;
      }

      .cls-2 {
        fill: #392106;
      }

      .cls-3 {
        fill: #fee5c7;
      }

      .cls-4 {
        fill: #da997a;
      }

      .cls-5 {
        fill: #ab8375;
      }

      .cls-6 {
        fill: #ccbaaa;
      }

      .cls-7 {
        fill: #efa889;
      }

      .cls-8 {
        fill: #b1745d;
      }

      .cls-9 {
        fill: #b66d4f;
      }

      .cls-10 {
        fill: #f7c9aa;
      }

      .cls-11 {
        fill: #161009;
      }

      .cls-12 {
        fill: #b2a7a0;
      }

      .cls-13 {
        fill: #141414;
      }

      .cls-14 {
        fill: #d8cfc8;
      }

      .cls-15 {
        fill: #fde1c3;
      }

      .cls-16 {
        fill: #b2866f;
      }

      .cls-17 {
        fill: #6b3d2a;
      }

      .cls-18 {
        fill: #f4b79a;
      }

      .cls-19 {
        fill: #bc9c8a;
      }

      .cls-20 {
        fill: #272727;
      }

      .cls-21 {
        fill: #2a2928;
      }

      .cls-22 {
        fill: #494949;
      }

      .cls-23 {
        fill: #c28b6f;
      }

      .cls-24 {
        fill: #503f3a;
      }

      .cls-25 {
        fill: #f2ab8a;
      }

      .cls-26 {
        fill: #b17b69;
      }

      .cls-27 {
        fill: #21100a;
      }

      .cls-28 {
        fill: #16100d;
      }

      .cls-29 {
        fill: #865d4b;
      }

      .cls-30 {
        fill: #484546;
      }

      .cls-31 {
        fill: #262626;
      }

      .cls-32 {
        fill: #1c1c1c;
      }

      .cls-33 {
        fill: #161716;
      }

      .cls-34 {
        fill: #f2c198;
      }

      .cls-35 {
        fill: #e0937b;
      }

      .cls-36 {
        fill: #3d3b3a;
      }

      .cls-37 {
        fill: #e0b49a;
      }

      .cls-38 {
        fill: #b9927c;
      }

      .cls-39 {
        fill: #eab292;
      }

      .cls-40 {
        fill: #e3d9cc;
      }

      .cls-41 {
        fill: #39393a;
      }

      .cls-42 {
        fill: #fef1d9;
      }

      .cls-43 {
        fill: #f9ac8a;
      }

      .cls-44 {
        fill: #5e2a14;
      }

      .cls-45 {
        fill: #2c2c2d;
      }

      .cls-46 {
        fill: #824631;
      }

      .cls-47 {
        fill: #1f1f1f;
      }

      .cls-48 {
        fill: #4f3827;
      }

      .cls-49 {
        fill: #ac7664;
      }

      .cls-50 {
        fill: #fdcaa7;
      }

      .cls-51 {
        fill: #9d593f;
      }

      .cls-52 {
        fill: #b5795e;
      }

      .cls-53 {
        fill: #3a3a3a;
      }

      .cls-54 {
        fill: #feebc3;
      }

      .cls-55 {
        fill: #4f453f;
      }

      .cls-56 {
        fill: #b3b1aa;
      }

      .cls-57 {
        fill: #f8c7a6;
      }

      .cls-58 {
        fill: #1f1e1e;
      }

      .cls-59 {
        fill: #2c2b2a;
      }

      .cls-60 {
        fill: #161517;
      }

      .cls-61 {
        fill: #716963;
      }

      .cls-62 {
        fill: #333233;
      }

      .cls-63 {
        fill: #222;
      }

      .cls-64 {
        fill: #fdd7b7;
      }

      .cls-65 {
        fill: #cba391;
      }

      .cls-66 {
        fill: #fed6b6;
      }

      .cls-67 {
        fill: #dab195;
      }

      .cls-68 {
        fill: #2b2b2b;
      }

      .cls-69 {
        fill: #fec5a4;
      }

      .cls-70 {
        fill: #fab893;
      }

      .cls-71 {
        fill: #333;
      }

      .cls-72 {
        fill: #9a6c5a;
      }

      .cls-73 {
        fill: #1a1a1a;
      }

      .cls-74 {
        fill: #c1785a;
      }

      .cls-75 {
        fill: #fcd1b4;
      }

      .cls-76 {
        fill: #f1bb9f;
      }

      .cls-77 {
        fill: #b59388;
      }

      .cls-78 {
        fill: #232323;
      }

      .cls-79 {
        fill: #594b44;
      }

      .cls-80 {
        fill: #705a4c;
      }

      .cls-81 {
        fill: #f7b193;
      }

      .cls-82 {
        fill: #998677;
      }

      .cls-83 {
        fill: #b19082;
      }

      .cls-84 {
        fill: #f6c1a2;
      }

      .cls-85 {
        fill: #f7c7a4;
      }

      .cls-86 {
        fill: #846b5f;
      }

      .cls-87 {
        fill: #212423;
      }

      .cls-88 {
        fill: #d7a893;
      }

      .cls-89 {
        fill: #1a1b19;
      }

      .cls-90 {
        fill: #513e32;
      }

      .cls-91 {
        fill: #be927f;
      }

      .cls-92 {
        fill: #f3c0a5;
      }

      .cls-93 {
        fill: #a27560;
      }

      .cls-94 {
        fill: #feddb6;
      }

      .cls-95 {
        fill: #353535;
      }

      .cls-96 {
        fill: #e8c39d;
      }

      .cls-97 {
        fill: #e4ae96;
      }

      .cls-98 {
        fill: #75412f;
      }

      .cls-99 {
        fill: #97745f;
      }

      .cls-100 {
        fill: #96593d;
      }

      .cls-101 {
        fill: #313031;
      }

      .cls-102 {
        fill: #cbb7af;
      }

      .cls-103 {
        fill: #de9077;
      }

      .cls-104 {
        fill: #ac8770;
      }

      .cls-105 {
        fill: #c2a28c;
      }

      .cls-106 {
        fill: #070707;
      }

      .cls-107 {
        fill: #1a1919;
      }

      .cls-108 {
        fill: #302221;
      }

      .cls-109 {
        fill: #504035;
      }

      .cls-110 {
        fill: #c8a28e;
      }

      .cls-111 {
        fill: #9a6c5e;
      }

      .cls-112 {
        fill: #b4795e;
      }

      .cls-113 {
        fill: #aa836e;
      }

      .cls-114 {
        fill: #e9af8e;
      }

      .cls-115 {
        fill: #2f1f12;
      }

      .cls-116 {
        fill: #f8c8ad;
      }

      .cls-117 {
        fill: #161616;
      }

      .cls-118 {
        fill: #39261b;
      }

      .cls-119 {
        fill: #c7958b;
      }
    </style>
  </defs>
  <g id="LowGoblin">
    <path class="cls-68" d="M61.38,68.41l1.32-.97c-.95-2.32-.47-3.71,1.45-4.17l2.19.09c5.1,2.85,10.38,4.88,15.85,6.08,2.66-.48,4.74-.16,6.25.96.72-.11,1.72-.15,3-.1,1.34-1.69,4.3.12,4.24,2.12,5.21,1.83,3.04,4.11-2.13,3.81-2.9-.7-5.88-.98-8.93-.83.66,1.48-.35,1.93-3.03,1.33-.25-.15-.71-.1-1-.15-3.11-2.1-6.18-2.85-9.89-3.19-3.88-.97-8.09-1.78-11.32-4.07l2-.9Z"/>
    <path class="cls-31" d="M84.63,75.38c3.53-.39,7.21-.09,11.04.92,5.45.23,5.96,3.95,1.1,3.01l-3-.09c-4.1-.12-8.6-.37-12.17-2.51.91-.66,2.02-.89,3.03-1.33Z"/>
    <path class="cls-13" d="M80.59,76.56c-.7-.1-1.41-.03-2.1.03-2.04.33-4.54.55-4.99-1.69-1.04-.15-1.83-1.28-2.8-1.53,3.07-1.51,8.68-.16,9.89,3.19Z"/>
    <path class="cls-39" d="M16.72,41.64c.96-1.55,2.6-1.48,4.91.2,2.55.64,2.22,2.44-1,5.39.37,2.57-.22,4.49-1.77,5.74-1.23-.92-2.38-2.02-2.36-3.74-1.27-.48-1.85-2.24-.95-3.31-.21-2.35.17-3.78,1.16-4.29Z"/>
    <path class="cls-23" d="M20.94,58.8c-1.23-1.81-1.14-2.79.87-1.53.11-1.93,2.35-2.43,4.07-2.67-.35-2.7.3-3.06,1.95-1.1,1.48.42,1.59,2.42.37,3.24.89.25.85.53-.05.83.32,1.8-1.19,2.04-2.28.62.31,1.86-.04,2.85-1.94,3.38.51,1.2.15,1.67-1,.99-1.32-.77-1.79-2.3-1.99-3.76Z"/>
    <path class="cls-83" d="M.94,28.43c.9-.29,1.26.03,1.08.95,1.94.97,2.51,5.66,2.37,7.72.31.79-.06.82-1.14.11-.62-.87-2-1.21-2.82-1.83-.37-2.55-.96-4.86.51-6.96Z"/>
    <path class="cls-1" d="M18.86,52.98c1.17.14,2.14,1.36,2.9,3.65.86-.09.84.13.04.64-.84.09-1.02.83-.87,1.53-1.79-1.58-2.9-3.58-2.08-5.83Z"/>
    <path class="cls-77" d="M4.39,37.1c.46-2.1,4.5-2.47,4.86.04,1.84.52.58,1.54-.93,2.03-2.03.07-3.89-.3-5.07-1.96l1.14-.11Z"/>
    <path class="cls-5" d="M9.25,37.14c.25-.88.59-.88,1-.03,1.41-1.26,4.42-1.22,4.03.86-1.44-.09-3-.03-3.96,1.14l-2,.07.93-2.03Z"/>
    <path class="cls-113" d="M22.93,62.56c.03-.51.39-1.36,1-.99,3.86-1.71,4.79,5.85.32,4.06-.37-.4-.82-.73-1.24-1.07,0-.67-.13-1.34-.08-2Z"/>
    <path class="cls-47" d="M51.96,61.64c.55-4.79,3.33-2.43,4.21,1.49l5.21,5.28c1.54,1.6-.63,1.86-2,.9-.31.01-.62.16-.93.14-1.92-2.03-4.57-3.21-6.22-5.52-.94-.18-1.3-1.81-.27-2.28Z"/>
    <path class="cls-21" d="M48.83,55.73c.06-.93.42-1.02,1.06-.32.77-1.93,1.75-1.87,2.32.12.87.29.86.63,0,1.02,1.62,1.71,2.11,3.82-.24,5.08l.27,2.28c-.33.04-.68-.04-1.01.02l-3.06-7.06c-.47-.79-.25-1.17.67-1.14Z"/>
    <path class="cls-114" d="M23.93,61.57c-.37-.63-.05-1.62.11-2.26.22-.94,1.17-.79,1.83-1.11,1.15.29,1.9,1.26,2.43,2.17.77-2.08,1.61-2.07,2.53.03,3.36-2.72,5.79,2.97,1.35,4-.18.56-.28,1.16-.6,1.66.74,2.87-1.73,1.68-3.13.64-.35,2.89-2.35,2.74-3.15.02-.4-.31-.71-.71-1.05-1.08,1,.09.96-.99.93-1.51-.06-1.11-.78-1.76-1.25-2.55Z"/>
    <path class="cls-86" d="M25.3,66.71l3.15-.02c2.64.35,2.44,1.25-.15,1.79,2.17.36,2.65,1.46,1.02,2.99,2.02.09,1.78,1.63-.16,1.9l-1.48.14c-2.35-1.38-2.76-4.25-2.37-6.81Z"/>
    <path class="cls-118" d="M28.45,66.69l3.13-.64c4.23,3.63-.22,5.19-1.32,11.47-1.11-1.24-.72-2.8-1.1-4.15-.17-.59.24-1.3.16-1.9.24-1.2-.1-2.29-1.02-2.99l.15-1.79Z"/>
    <path class="cls-71" d="M95.69,72.41c-.21-2.32,2.62-1.57,3.42.16,1.75-.73,5.48.91,5.31,3.01.85.39.86.81.05,1.26-.07,1.98-.41,4.55-2.67,3.09-1.69.65-3.66.68-5.02-.63.64-.28,1.55-.14,1.96-.88-5.04-1.54-10.08-.66-14.1-3.05,1.43-.62,3.52-.71,3.88-2.86,1.92.77,5.95,3.89,7.96,1.99.51-.48-.03-1.51-.77-2.11Z"/>
    <path class="cls-80" d="M104.47,76.84c1.6.69,1.19,2.77.32,4.14-1,.12-2.01.07-3.02.02l.03-1.07c1.63-.16,2.12-1.75,2.67-3.09Z"/>
    <path class="cls-63" d="M64.24,61.2c1.66-.99,3.83-1.14,5.81-1.15-.28-1.93.52-1.97,1.21-.06,1.98.1,4.61,1.75,5.08,3.77.94-.21,1.31-.2,1.04.78,1.96-.04,1.89.78-.1,1.25-.9,1.08,3.09.47,4-.14h1.1c.78-2.49,4.03-2.07,4.14.59.86.28.85.65.03,1.11.77,1.03,1.4,2.05,1.91,3.05-6.19,2.63-11.01.12-18.27-3.22-2.47-1.14-5.19-1.01-6.02-3.91-.89-.17-.87-.48-.03-.92-.48-.45-.49-.79.11-1.14Z"/>
    <path class="cls-95" d="M57.04,59.62c.17-1.6,1.2-1.63,3.08-.11,2.05-1.84,4.22.34,4.01,2.83l.03.92c.05,1.53-.07,3.27,1.08,4.45.94.96,3.05.25,4.29,2.59-2.81.5-5.55-1.14-8.14-1.9l-4.95-4.92c-2.29-2.89-2.08-4.18.6-3.87Z"/>
    <path class="cls-78" d="M99.37,71.5c1.26.6,1.07,1.25-.25,1.07-.99-.93-2.29-.13-3.42-.16-1.63-.05-2.77-1.61-4.24-2.12-1.82.55-4.32-1.01-4.91-2.95.07-.35-.12-.77-.03-1.11,2.77-3.29,13.06,1.03,12.85,5.26Z"/>
    <path class="cls-95" d="M86.55,67.34c1.54,1.16,3.08,2.31,4.91,2.95.19.88-.77.8-1.26.81-.62,0-1.23-.6-1.74-.7-1.47-.25-2.19-1.65-1.91-3.05Z"/>
    <path class="cls-14" d="M108.55,72.7c1.64.81,3.49,1.39,3.55,3.7.05,1.85,6.79,15.05-.05,14.28-.69-.08-.5-1.34-.64-1.86-1.14-1.2-1.42-3.52.4-4.25-2.77-3.27-4.21-6.89-4.32-10.87-1.15-1.5-.69-1.41,1.06-.99Z"/>
    <path class="cls-82" d="M104.78,80.99c.2-1.08.61-1.45,1.24-1.1,2.42-3.34,6.07,2.72,3.96,4.66,1.05,1.31.91,2-.9,2.43-1.45-2.01-4-3.46-4.29-6Z"/>
    <path class="cls-24" d="M109.98,84.55c.51-1.96,1.33-1.95,1.83,0,.15,1.34,1.03,3.44-.4,4.25-.27-1.04-1.83-1.13-2.33-1.82-.14-.91-.28-2.25.9-2.43Z"/>
    <path class="cls-119" d="M7.75,22.95c1.28-.15,3.22.66,3.98-.68,2.15.39,4.02,1.56,5.93,2.57.84,1.03.44,1.51-.8,1.03l-.85,1.07c-2.11-.38-4.48-1.02-7.12-1.92-.22.87-.51.84-.87-.03-.89-.09-.9-.39-.09-.86-1.89.47-2-.31-.17-1.17Z"/>
    <path class="cls-57" d="M21.63,41.84c-.2-2.44.42-2.91,2.75-2.27,1.62-2.72,5.96-1.52,4.07,1.86-1.47,1.48-2.47,3.17-3.01,5.07.32,1.78-.03,2.86-1.06,3.24.09,1.69-.39,2.49-1.93,2.57,1.47,2.16,1.23,3.61-.7,4.33-1.53-.63-1.63-2.71-2.9-3.65.69-1.9-1.2-4.63.09-6.79.94-1.57,2.98-2.47,2.68-4.34Z"/>
    <path class="cls-35" d="M17.56,38.87c-2.26-1.5-.42-2.51,1.64-3.13-.55-1.72.21-1.73,1.82-1.19.08-.59.33-.51.7.08,1.24-1.08,1.77-.56,1.48,1.03,1.14-.49,2.02.46,1.92,1.68,2.05,1.67,1.9,2.06-.74,2.24-.42,1.23-1.5,2.03-2.75,2.27-.67.47-1.43,1.79-2.17,1.26-.96-.67-1.75-1.13-2.74-1.46-1.14-1.54-1.36-3.04.84-2.77Z"/>
    <path class="cls-38" d="M14.32,38.97c1.65-.5,2.64,1,2.4,2.67-.56,1.34.47,3.48-1.16,4.29-.85-2.22-1.16-4.6-1.24-6.96Z"/>
    <path class="cls-91" d="M7.75,22.95l.17,1.17c-.27,1.42-1.74,2.25-3.06,2.17,1.78.89,1.38,1.55-.67,1.14.82,2.27-.07,3.03-2.17,1.96-.4-.27-.76-.59-1.08-.95.92-1.31.69-3.68,2.09-4.49,1.63-.94,3.21-.81,4.72-.99Z"/>
    <path class="cls-64" d="M24.39,49.74c2.03.31,3.34,3.57,1.48,4.87-.2.91-.37,1.95-.97,2.35-1.03.68-2.24.43-3.1.32.02-.21-.11-.45-.04-.64.51-1.48-1.52-2.96-1.19-4.66.35-1.83,2.81-1.75,3.82-2.23Z"/>
    <path class="cls-48" d="M27.83,53.5c-1.62-.6-1.72-1.42-.07-2-.77-1.22-.81-2.22-.1-3,.25-.88.59-.88,1-.03.32-.23.74.04,1.26.82.93-.04.93.28.11.9,2.79.97,2.24,2.29-.19,3.24,1.25.17,1.28,1.17.1,3,0,2.69-.45,2.68-1.74.31-.14-1.08-.31-2.15-.37-3.24Z"/>
    <path class="cls-92" d="M24.39,49.74c-.31-.9.22-2.85,1.06-3.24,1.23.5,2,2.17,2.31,5.01,0,.67.04,1.33.07,2l-1.95,1.1c.12-1.78-.93-3.26-1.48-4.87Z"/>
    <path class="cls-99" d="M28.14,57.58c0-.27.09-.56.05-.83l1.74-.31c.81.43,1.12,1.48.91,3.16v.8c-.84.49-1.71.11-2.54-.03-1.66-.36-1.89-2.36-.16-2.79Z"/>
    <path class="cls-66" d="M25.87,58.2c.71-.35,1.4-.79,2.28-.62-.03.93,0,1.86.16,2.79-.73-.13-1.8.47-2.13-.42-.25-.67-.31-1.26-.3-1.75Z"/>
    <path class="cls-52" d="M17.56,38.87c-.34.77-.42,1.97-.84,2.77-1.2-.41-1.73-1.71-2.4-2.67l-.03-1c1.3-1.56,3.47-1.41,3.28.9Z"/>
    <path class="cls-116" d="M2.02,29.38c.18-.93,1.63-1.35,2.17-1.96.82-.79,1.77-.13,1.5,1,2.03-.27,2.18,1.22.17,1.82.44,1.37,1.15,2.42,2.14,3.17,2.2.28,3.55-.53,4.05-2.42.78-1.47,1.82-1.33,2.88-.11,1.08-.2,2.15.46,3.23,1.97,1.57-2.65,2.5-.6,2.87,1.68-.5.55-1.13.95-1.82,1.19-1.69,1.68-4.02,1.88-6.96.59l-2,.78-1,.03c-1.62.06-3.26-.2-4.86-.04-1.59-2.31-2.91-4.86-2.37-7.72Z"/>
    <path class="cls-43" d="M19.21,35.74c.06,1.34-1.19,2.09-1.64,3.13-1.06-.41-2.16-.73-3.28-.9-1.04-1.12-2.61-1.08-4.03-.86.93-2.53,3.5-1.12,5.67-1.1,1.07.01,2.71-1.8,3.29-.27Z"/>
    <path class="cls-62" d="M42.61,50.99c1.6-3.34,5.96-4.6,9.13-3.24,2.7-1.86,3.97.93,1.87,3.01-.65,1.81-1.89,3.37-3.71,4.66l-1.06.32c-1.12-.27-2.43-.77-3.92-1.53-.73.24-1.54.06-2.27.25-.3-.48-.56-.98-.79-1.5-1.29-.99-1.03-2.29.76-1.98Z"/>
    <path class="cls-60" d="M48.83,55.73c-.17.41-.4.79-.67,1.14-1.27-.63-2.69-1.3-3.25-2.67,1.33-1.84,2.91.22,3.92,1.53Z"/>
    <path class="cls-45" d="M52.2,56.56c2.42-2.25,6.73.53,4.83,3.06-2.08,4.01,2.56,2.83,4.34,8.79-3.52-1.03-5.95-3.73-7.68-7.76-.58.29-1.12.8-1.74.99-.21-1.74-1.37-3.82.24-5.08Z"/>
    <path class="cls-95" d="M53.77,51.65c1.56-2.44,4.05,2.8,4.88,4.68.28.64.54,1.28.52,2,1.75-.89,2.2-.32.94,1.18-1.02.12-2.05.17-3.08.11-.3-2.87-3.71-.86-4.83-3.06v-1.02c-1.11-1.94-.6-3.26,1.57-3.89Z"/>
    <path class="cls-87" d="M53.61,50.75c.9.03.93.34.17.89.2,1.5-.34,2.98-1.56,3.89-.77-.08-1.54-.13-2.32-.12-.03-1.11-.49-2.52.19-3.06,1.19-.94,2.51-1.21,3.52-1.61Z"/>
    <path class="cls-90" d="M29.32,71.48c-.09-1.07-.41-2.1-1.02-2.99l2.5-.08c.7-.02.84,1.4.23,1.96-.41.38-1.07.74-1.72,1.12Z"/>
    <path class="cls-110" d="M40.14,43.07c-2.54.06-2.77-2.49-.77-3.81-.63-1.25-.18-1.69,1.01-.92,1.13-1.74,1.57-1.22,1.96.64.93.3.46,1.28.07,2,1.21,1.79,1.62,4.11,1.24,6.96,1.54.53,1.2,1.54-1.04,3.04-.18.69-.35,1.38-.76,1.98l-1.11.08c-2.51-.22-4.44-2.75-2.09-4.92-.07-2.2.42-3.89,1.49-5.05Z"/>
    <path class="cls-72" d="M30.02,50.19c.06-1.85.47-2.33,1.64-.8,1.48-.12,2.83-.17,4.03-.17.76-.93,1.93-1.73,2.96-1.1l2.09,4.92c-.27.42-.62.91-1.17.98-.5.06-1.01-.26-1.43-.55-1.85-1.44-4.3-.89-6.31-.12-.77,1.61-1.69,1.99-2,.07-.04-1.08.15-2.16.19-3.24Z"/>
    <path class="cls-102" d="M38.14,53.48c-1.23.71-2.66.65-4.31-.19-.33-.01-.67.02-1,.03l-1,.03c1.38-1.65,5.32-2.11,6.31.12Z"/>
    <path class="cls-58" d="M100.5,71.54c2.37-.53,6.52.27,4.85,2.85.64,1.28.35,1.84-.93,1.2-1.54-1.36-3.33-2.42-5.31-3.01-.73-.51-.29-.67.25-1.07.67-.49.67-.18,1.14.04Z"/>
    <path class="cls-40" d="M104.47,76.84c-.1-.39-.01-.86-.05-1.26-.05-.64.58-.85.93-1.2-.62-2.07.23-2.25.96-.05,2.25,1.21,3.12,5.45-.29,5.56-.09.56-.69,1.03-1.24,1.1-.16-1.37.04-2.79-.32-4.14Z"/>
    <path class="cls-20" d="M57.84,48.76c.88-1.58,2.58-.27,3.18,1.17,4.46,1.5,11.58,11.15,3.22,11.26l-.11,1.14c-1.3-1.01-2.41-2.31-4.01-2.83-.32-.38-.57-.84-.94-1.18-2.42-4.49-3.62-6.74-3.62-6.74l1.19-1.09c-.5-1.03.03-1.64,1.1-1.73Z"/>
    <path class="cls-32" d="M61.68,49.25l.91.1c3.43,2.78,6.43,6.36,7.45,10.7-.07,1.4-1.25,2.03-2.39,2.14-1.32.12-2.53-.15-3.42-.99,2.14-2.67-1.78-2.28-1.3-5.37.1-.6.56-.71,1.02-.11.34.44,1.02.94.83,1.66-.71,2.58,7.59,3.79-3.77-7.45-.34-.69-.11-.91.66-.69Z"/>
    <path class="cls-106" d="M77.29,65.78c.29-1.21,2.76-.72,4-.14-.36,1.45-2.31,1-4.27,1.23-2.15.05-1.9-1.26.27-1.09Z"/>
    <path class="cls-33" d="M73.38,13.82c-7.99,3.01,25.98-10.34,12.95-4.38,2.57-1.17,7.2-3.48,9.83-3.09l.81.65c1.34,1.65.12,2.6-3.64,2.84l-.9,2.39,1-.03c.65.6,1.21,1.45.84,1.82-3,3.04-7.75,4.67-11.86,5.65-.63,1.83-2.79,3.12-3.71,1.34-3.33.71-3.22-.3-2.55-3.14-2.86-.13-4.76-.82-5.69-2.06.79-.78,1.85-1.58,2.92-1.99Z"/>
    <path class="cls-79" d="M102.27,4.88c-1.99.25-1.91-1.2-.17-2l3.1-2.77.86-.11c.92.67,1.3,1.84.85,3.32l-1.62,5.32-2.06,3.07-2.96.06c-2.67.18-2.73-.75-.37-1.96-1.5-2.2-.23-4.29,2.36-4.91Z"/>
    <path class="cls-12" d="M99.04,4.94c1.98-1.68,3.06-1.7,3.24-.06-.26,1.83-1.05,3.59-2.36,4.91-2.1.44-3.14-.69-2.94-2.8-.34-.05-.6-.41-.81-.65.81.12,2.44-.72,2.88-1.41Z"/>
    <path class="cls-61" d="M102.07,1.88c.88.25.88.59.03,1l.17,2-3.24.06c.81-1.28,1.71-2.3,3.03-3.06Z"/>
    <path class="cls-27" d="M105.2.11c.09,1.73-1.47,2.8-3.1,2.77l-.03-1c1.04-.59,1.88-1.62,3.13-1.77Z"/>
    <path class="cls-31" d="M96.97,7c1.51.24,2.8,1.21,2.94,2.8l.37,1.96c-.43.05-.72.77-.98,1.06l-.96.13c-1.72.7-2.67.44-2.83-.77-.68-.63-1.71-.62-3.08.05-.54-.59-.93-1.31-1.91-1.86-1.54,1.72-3.13,1.92-5.04,2.46,2.31,1.04,2.31,1.67.06,1.71-1.07-.45-1.8-1.56-2.61-1.65-.92-.1-1.18,1.9-2.79,1.83-3.46-3.03,15.27-5.63,16.84-7.73Z"/>
    <path class="cls-56" d="M105.3,8.64c-.2.64.08,1.44-.38,2.18-.32.51-.94.87-1.67.89-.13-.7-.19-1.51.22-2.18.35-.57,1.06-1.46,1.84-.88Z"/>
    <path class="cls-80" d="M106.31,74.33c-.08-.55.92-.41,1.17-.64,2.67,2.89,3.9,6.98,4.32,10.87-.6-.01-1.23-.1-1.83,0,.44-2.55-2.13-3.43-3.96-4.66.29-1.85.57-3.7.29-5.56Z"/>
    <path class="cls-85" d="M18.83,24.54l1-.08c.71-.94,1.78-2.02,2.92-1.8,2.25-1.57,7.37-2.96,8.83-.12,1.96-.85,2.05.08.27,2.81,1.4.55,1.05,1.22-1.06,2,.87.23.84.53-.03.91.45,1.78-.27,1.98-1.24.38l-1.16,1.17c.6,6.77-3.55,3.87-7.16.88-.21-.17-.3-.49-.36-.85-1.79,1.85-2.39,1.44-1.71-1-.72-1.03-1.37-3.43-.3-4.29Z"/>
    <path class="cls-49" d="M32.64,19.32c-.2-2.92,3.15-3.02,3.99-.27,2.8-1.01,5.44-1.41,7.94-1.2l1.09,2.01c.9.09,1,.41.29.97-.34,2.44-5.42,1.9-6.25.13-1.88.76-3.69,1.69-5.41,2.78l-1.63-1.4c-2.64-1.32-5.76-2.68-7.2.34-.7-.13-1.62-.47-2.75-1.02l-.18-.92c3-1.9,6.68-1.19,10.11-1.42Z"/>
    <path class="cls-18" d="M22.72,21.66c2.17-.69,9.39-2.99,9.95.68-.2.93-.56.99-1.09.2-1.94-.49-4.04-1.82-5.88-.52l3.15,1.01c-2.38.15-3.54,2.66-5.89,2.4.43-1.07.91-1.44,1.36-1.79s.69-.77-.08-1.01c-.57-.18-1.16.19-1.49.04-1.35,1.33-2,.78-1.03-.96.29-.12.7.06,1-.03Z"/>
    <path class="cls-93" d="M17.67,24.84c.39.05.78-.27,1.17-.3.82,1.31.67,2.85.3,4.29-.15,1.93-.91,1.89-1.29-.04-2.42-.6-2.47-1.02-.98-2.91-.13-.62.09-1.12.8-1.03Z"/>
    <path class="cls-88" d="M21.72,21.7c.3.33.62.76,1.03.96-.41,1.26-1.69,1.69-2.92,1.8.12-1.2.73-2.31,1.89-2.76Z"/>
    <path class="cls-75" d="M4.87,26.29c.8-.69,1.85-1.12,3.15-1.3l.87.03c4.67.4,7.04,2.03,7.11,4.89,1.2,1.79.64,2.31-1.07,1-.95.15-1.92.1-2.88.11.03.88-.28.92-.9.2-1.34-.12-1.99-.56-1.94-1.31-1.24-.31-2.41-.8-3.51-1.48-.63.03-1.19-.51-1.5-1,.25-.28.58-.78.67-1.14Z"/>
    <path class="cls-76" d="M16.86,25.87c.94.66,1.09,1.84.98,2.91.35.93.05,1.25-.9.96-.03.95-.35.98-.94.16-1.21-.83-2.65-.61-4.02-1.28,4.77-2.82-2.3-1.12-3.09-3.61,2.69.09,5.5-.37,7.97.86Z"/>
    <path class="cls-10" d="M7.93,24.12l.09.86c-.07.81-.2,2.14-1.12,1.86-.8-.24-1.41-.48-2.03-.55.37-1.42,1.63-2.14,3.06-2.17Z"/>
    <path class="cls-81" d="M25.13,37.33c-.93-1.62-.27-1.94,1.15-.74.52-1.8,1.18-1.84,1.96-.11-.09-2,1.34-1.7,1.84.12,1.36-.53,2.1.4,2.24,2.79,3.14-.39,4.02,4.76,2.2,6.87,2.03,1.59-.63,4.16-2.86,3.13-.58.17-1.08.58-1.64.8.01-.29-.03-.62-.11-.9-.66-2.41-1.15-5.03-1.46-7.86-1.08-1.28-2.15-2.3-4.07-1.86.25-.73.33-1.57.74-2.24Z"/>
    <path class="cls-15" d="M28.46,41.43v1.05c-.31,2.1-.58,4.11-.8,6.03-.07.99.11,2,.1,3-1.52-1.27-1.17-3.48-2.31-5.01-.86-1.15-.44-2.49.26-3.59s1.41-1.68,2.75-1.48Z"/>
    <path class="cls-8" d="M16.94,29.75c.35-.26.58-.67.9-.96l1.29.04c.56.02,1.13,1.04,1.71,1,.96.63,1.77,1.6,2.43,2.92-.28.71-.79,1.34-1.54,1.88-.17-.1-.49-.02-.7-.08-.95-.46-1.82-1.42-2.87-1.68-1.7-.82-2.71-1.72-1.22-3.12Z"/>
    <path class="cls-46" d="M23.27,32.75c1.54-.3,2.42.74.97,1.8,1.14,1.6.64,2.13-1.04,1.1-.35-.44-1.09-.6-1.48-1.03-.12-.49-.85-1.15-.52-1.46.61-.57,1.65-.57,2.06-.42Z"/>
    <path class="cls-51" d="M24.24,34.55c2.54-1.74,3.76-.54,2.04,2.04-.2.43-.88.49-1.15.74-.92-.19-1.38-1-1.92-1.68.37-.34.72-.71,1.04-1.1Z"/>
    <path class="cls-67" d="M28.45,42.48c-.01-.35-.03-.7,0-1.05,1.93,2.29.74,5.19,1.46,7.86-.68.43-1.23-.18-1.26-.82-.99-1.3-.87-4.21-.21-6Z"/>
    <path class="cls-2" d="M28.45,42.48l.21,6-1,.03c.13-1.99-1.04-4.7.79-6.03Z"/>
    <path class="cls-84" d="M11.15,31.21c.3-.02.6-.2.9-.2.72.83,1.19,2.04.54,3.03-.49.76-1.55,1.34-2.51.9-.6-.28-1.31-.9-2.08-1.51-3.45-1.66.37-3.69,3.15-2.21Z"/>
    <path class="cls-3" d="M5.86,30.25c.18-1.52,2.51-1.46,3.34-.35.43.52,1.69.46,1.94,1.31-.73.04-1.51.03-2.43.33-.65.21-.86,1.08-.72,1.88-.57.76-1.68,1.08-2.31.79-.89-.41-.97-1.63-.76-2.29.16-.5.37-1.05.94-1.68Z"/>
    <path class="cls-10" d="M5.69,28.43c.74-.03,1.47-.23,2.52-.09.7.09.55,1.04.99,1.57l-3.34.35-.17-1.82Z"/>
    <path class="cls-97" d="M16,29.9c.27-.11.71.01.94-.16.26,1.09.63,2.16,1.22,3.12-1.28-.31-3.07-.31-3.23-1.97.51-.08.94-.51,1.07-1Z"/>
    <path class="cls-45" d="M53.89,44.49c3.22.58,1.41,2.22.41.15-.43-.89,4.65-.26,2.46,2.68.22,1.04.23,2.19-.02,3.17.41,5.88,3.92,3.6,2.43,7.84-2.8-2.56-1.45-5.56-5.41-6.68l-.17-.89c-.22-1.21-.78-2.36-1.87-3.01.25-1.32,1.65-2.16,2.15-3.26Z"/>
    <path class="cls-29" d="M37.35,31.37c.31-2.48,2.41-2.92,3.59-.69,1.7-2.04,2.36-1.31,1.22,1.1,1.92-.15,1.88.63-.03,1.21-.08,1.83-.4,2.26-.97,1.29.44,2,.18,3.36-.78,4.06.04.5-.45,1.2-1.01.92-1.42,2.39-2.62,1.57-2.07-1.1-1.43-1.49-.93-4.86.04-6.79Z"/>
    <path class="cls-26" d="M36.34,40.2c-.34-1.63-.02-2.31.96-2.03l2.07,1.1c.12,1.28.71,2.52.77,3.81-.4,1.33-1.2,2.54-2.48,1.62-.1.9-.43.93-.99.14-1.92-1.19-2.35-3.45-.33-4.64Z"/>
    <path class="cls-42" d="M42.12,32.99c2.83.39,2.4.68.07,2,1.29.44,1.01,2.97.14,4-.67-.14-1.33-.35-1.96-.64l-.28-3.76c-.08-1.07.48-1.88,2.02-1.6Z"/>
    <path class="cls-44" d="M40.14,43.07c.09,1.86-.27,3.69-1.49,5.05-1.74.19-1.36-1.9-.99-3.43.45-.99,1.44-1.48,2.48-1.62Z"/>
    <path class="cls-100" d="M34.51,46.26c.1-2.53.82-3,2.16-1.43,1.56,1.25,1.2,4.05-.99,4.39-.57.71-1.45,1.19-2.38,1.11-.51-.05-1.95.04-1.65-.94,1.51-.46,2.86-1.44,2.86-3.13Z"/>
    <path class="cls-112" d="M36.68,44.84c.25-.17.7-.03.99-.14.73.99.99,2.21.99,3.43-.88.98-1.62,2.24-2.96,1.1.79-1.32.95-2.88.99-4.39Z"/>
    <path class="cls-73" d="M53.89,44.49c.54-1.19.06-3.88,1.49-4.73-.41-3.47,4.24-5.69,6.16-2.58.95-1.51,1.53-1.89,1.78.02-2.03,1.34-4.03,3.01-6.78,4.63.55,3.35,3.24,5.2,5.13,7.42-.14.3-.32.6-.66.69-.83-.54-2.35-.48-3.18-1.17-1.37.43-1.74-.14-1.08-1.44-.26-.48-.04-1.35-.86-1.37-.61-.01-1.13.15-2.22.38l.2-1.84Z"/>
    <path class="cls-32" d="M56.77,47.32c.25.48,1.02.79,1.08,1.44.03.38.02.8-.13,1.17-.17.42-.51.65-.97.56-.41-.4-1.16-.87-1.06-1.5.13-.77.16-1.9,1.08-1.67Z"/>
    <path class="cls-28" d="M76.02,21.86c-.54-1.61.35-1.9,2.67-.85.49-.24,1.48.15,1.56-.81.04-.48-.29-1.46-.08-2.5,5.11.08,10.95-.77,13.25-5.5.52-.98,1.51-1.04,2.08-.01.86-.35,2.34.04,2.83.77l-6.65,4.83c-2.98,0-5.48,2.67-8.07,3.77-1.38.59-3.22.52-3.94,2.21-.61,2.99-3.38,2.68-3.63-.31-.85-.27-.77-.51.15-.71-.9-.03-.94-.33-.18-.89Z"/>
    <path class="cls-107" d="M67.93,27.09c1.23-.49,3.03-.55,3.03.89,2.07.34,1.58,2.14-.09,2.92-2.07,2.69-4.79,4.49-7.55,6.3l-1.78-.02c-2.11-2.35-.55-5.19,4.67-8.5.38-1.34.95-1.87,1.71-1.59Z"/>
    <path class="cls-105" d="M74.89,25.85c-1.93.23-1.95-.55-.03-1.17-1.72-1.02-.56-1.54,1.19-1.22,1.19.27,2.41.43,3.63.31-.04.26.33.71.2.92,3.19,5.49-2.08,7.66-4.75,2.85-1.94.51-2.21-.99-.24-1.69Z"/>
    <path class="cls-6" d="M70.96,27.98c-1.15-1.26-.64-1.61.96-1.03.82-.76,1.73-.09,2.03.93-.07,1.31-.9,2.34-1.89,3.14-.34.14-.84-.19-1.2-.11.11-.97.08-1.95.09-2.92Z"/>
    <path class="cls-108" d="M70.46,15.8c2.08.96,3.71.3,6.68-.5,1.45-.39,1.45,4.52-.36,4.87,1.07.84,1.57.75,1.92.84-.68.33-1.84,1.19-2.67.85-3,.78-4.56.14-4.68-1.9-1.5,1.57-3.75,1.99-6.74,1.28-.4,2.03-1.25,2.04-1.66.01-2.08.04-3.18-.61-3.29-1.93,3.71-.66,7.02-3.21,10.8-3.52Z"/>
    <path class="cls-117" d="M95.51,12.18c-.71.29-1.32.75-2.08.01l-1,.03c.93-1.03,1.86-2.32,3.94-2.09-.19.99-.86,1.38-.85,2.04Z"/>
    <path class="cls-7" d="M20.84,29.83c1.84-.12,2.69,1.67,4.35,2.56,3.14,1.68.33-5.36,4.33-3.76l3.63,1.71c1.62-.09,2.57,1.2,2.86,3.86,1.15.97.96,3.51-.74,2.93-.73.58-1.72.93-2.98,1.06.53.38.54.78.04,1.2-1.32-.14-2.4-1.42-2.24-2.79-.68-.8-1.3-.84-1.84-.12-.51.64-1.34.57-1.96.11-.4-.95-1.24-1.48-2.04-2.04-.52-.37-.5-1.38-.97-1.8-.67-.6-1.36-.94-2.29-1.24-.72-.23-.65-.88-.14-1.67Z"/>
    <path class="cls-70" d="M31.58,22.54c.34-.11.75-.07,1.09-.2,2.3-.88,4.57-1.69,7.04-1.38,2.37,1.59,1.29,1.76-1.12,1.95.46,1.65-1.32,1.63-2.77,1.15,1.2,1.27.71,1.93-.93,2.19-.26.81-.59.8-1,.03-1.75.88-.93-2.12-.77-2.09.13.02.24,2.34-1.26,1.17l-.27-2.81Z"/>
    <path class="cls-4" d="M31.85,25.35c.36.35,1.43-3.5,1.92-1.54.23.9,0,1.66.11,2.47.88.25.88.59.03,1,.89.29.97.63.19,1.19-.14,1.3-.45,1.34-.92.12l-2.4-1.24c.21-.74.55-1.43,1.06-2Z"/>
    <path class="cls-9" d="M29.52,28.63l1.24-.38c1.17-1.19,1.86-.22,2.48,1.13.84.35.8.67-.09.96-1.17.13-2.31.52-3.41.79-.57-1.14-.52-1.81-.22-2.51Z"/>
    <path class="cls-17" d="M30.79,27.35c.49-.05,1.26-1.04,1.64-.77.59.42.65,1.62.76,2.01l.05.8c-.92-.13-1.8-.49-2.48-1.13l.03-.91Z"/>
    <path class="cls-25" d="M39.7,20.96c2.06.26,4.19-.13,6.25-.13.99,1.19,2.14,2.29,2.7,3.75-.58,1.5-2.1,1.6-2.74.11-3.46.77-5.91.18-7.34-1.78l1.12-1.95Z"/>
    <path class="cls-103" d="M32.28,38.2c.89-.6,2.2-.51,3.02.15,1.57-.66,1.53.43,1.04,1.85.02,1.55.13,3.1.33,4.64-.72.48-1.4,1.01-2.16,1.43.16-2.5-1.02-4.72-2.2-6.87-.11-.35.11-.86-.04-1.2Z"/>
    <path class="cls-69" d="M30.08,36.6l-1.84-.12c.04-.84-.24-1.6.05-3.06,1.8.64,1.95,1.83,1.8,3.18Z"/>
    <path class="cls-59" d="M52.29,32.61l1.14-2.06c3.17-.19,6.03-.25,8.56-.18-.25-1.47,1.98-2.97,3.12-2.3.17.1-3.36.99-3.17-.78-1.58,3.39-6.82,4.16-9.19,1.3-1.68.96-2.11.32-.89-1.25,1.85-.16,4.01-1.15,6.06-1.03,3.28-.72,7.46-1.63,10.02.76.09,2.53-4.23,3.3-6.39,10.09-2.15-.02-4.24,1.45-6.16,2.58-1.26-.73-3.21-1.47-3.54-2.83-.37-1.53.48-2.97.44-4.32Z"/>
    <path class="cls-101" d="M48.92,29.96c1.21-1.1,2.48-1.55,3.82-1.36,3.09-.17,6.16-.72,9.19-1.3,2.95.09,1.73,1.42.05,3.08-3.24,3.03.48,1.66-9.7,2.23-1.63.09-3.14-1.23-4.75-1.26l-.03-.7c-.58-1.76.15-2.09,1.41-.7Z"/>
    <g>
      <path class="cls-41" d="M43.65,47.95c-.13-2.71-.23-5.37-.28-7.99-.67-1.31-.72-2.97-.17-5-.71-.41-.4-1.08.93-2.03-.32-1.59,2.04-2.05,3.42-1.57,1.24-.76,4.83-.41,4.75,1.26,1.66.53,2.13,1.77,1.43,3.74,1.64.86,2.2,2,1.67,3.41.34,1.27.95,4.79-1.49,4.73.86,2.97.14,4.05-2.15,3.26-2.44,2.42-6.25,1.51-9.13,3.24.27-1.03.54-2.09,1.04-3.04Z"/>
      <g>
        <path class="cls-36" d="M42.4,40.99l.96-1.03c1.21,2.24,1.53,5.65.28,7.99-.96-2.09-1.16-4.7-1.24-6.96Z"/>
        <path class="cls-19" d="M42.33,38.99l-.14-4c.25-.88.59-.88,1-.03,1.5,1.27-.38,3.51.17,5-.28.38-.61.72-.96,1.03l-.07-2Z"/>
        <path class="cls-22" d="M42.12,32.99c.24-1.09,1.43-1.11,2-.07,1.57-.29,4.15-.21,3.69,2.1-2.36-.68-3.86-1.72-4.62-.06l-1,.03-.07-2Z"/>
        <path class="cls-11" d="M47.51,30.65c.65.12.52.38.03.7-1.24-.02-2.53.8-3.42,1.57-.65-.08-1.36.19-2,.07l.03-1.21c.38-2.85,4.51-4.23,5.35-1.13Z"/>
        <path class="cls-30" d="M47.44,36.26c-.24-.54.97-.48,1.34-.53.4-.06,1.36-.08,1.55.81.08.39-.08,1.03-.57,1.2-.79.27-1.75-.2-2.33-1.48Z"/>
      </g>
    </g>
    <path class="cls-98" d="M36,34.21c-1.14-1.71-1.08-2.76.17-3.15l1.17.32c-.18,2.26-.18,4.53-.04,6.79-.12.76-.44,1.47-.96,2.03-.15-.71-.44-1.41-1.04-1.85-1.94.25-1.96-.55-.04-1.2.87-.75.84-1.88.74-2.93Z"/>
    <path class="cls-115" d="M74.89,25.85l.24,1.69c-.26.21-.84.31-1.17.35-.75.07-2.01.05-2.03-.93.58-1.09,1.82-1.19,2.96-1.1Z"/>
    <path class="cls-111" d="M33.23,29.38l-.05-.8c.36.37.67.32.92-.12.9.68,1.72,1.5,2.07,2.59-.11,1.04-.28,2.11-.17,3.15-1.17-1.11-1.86-2.6-2.86-3.86l.09-.96Z"/>
    <path class="cls-74" d="M35.26,37.14l.04,1.2c-.91.84-2.2.78-3.02-.15-.56-1.28,0-1.13.65-1.23,1.28-.2,1.75-.04,2.33.17Z"/>
    <path class="cls-50" d="M38.58,22.91c2.46.54,5.31.29,7.34,1.78.73,1.93-3.18,2.98-4.04,1.31-.69.49-1.37.68-2,.07-3-.09-4.36-.76-4.07-2.01.73-.39,1.87-1.34,2.77-1.15Z"/>
    <path class="cls-37" d="M34.88,26.24c.88-1.06,2.54-1.12,5-.17.65-.02,1.35-.14,2-.07.8,1.5-.71,1.94-1.96,1.07-1.94.84-4.01,1.01-6,.21l-.03-1,1-.03Z"/>
    <path class="cls-94" d="M35.81,24.05c.88,1.55,2.99.73,4.07,2.01l-5,.17c-.03-.79.16-1.78.93-2.19Z"/>
    <path class="cls-65" d="M41.88,26c1.5.16,3.08-.03,4.04-1.31.91-.11,1.83-.15,2.74-.11.26.68.22,1.47.45,2.16-3.15-.43-5.9,1.33-8.98,1.51l-.21-1.19c.68-.29,1.74-.08,1.96-1.07Z"/>
    <path class="cls-89" d="M49.95,27.52l1.9-.16.89,1.25c-.32.76-.89,1.42-1.51,1.78-.87.51-1.71.2-2.31-.42l1.03-2.44Z"/>
    <g>
      <path class="cls-34" d="M45.67,19.86l1-.03,9.03.69c2.43.18,4.77,1.3,7.25.74.4.11,1.25.09,1.66-.01,2.44.03,4.79-.16,7.06-.55.7.96,2.21,1.65,4.53,2.07l-.15.71-1.19,1.22c-3,2.13-5.32,2.6-6.96,1.42-3.34-.47-6.69-.81-9.98.24-1.31,1.39-4.35,1.91-6.06,1.03.25,1.97-1.35,2.13-1.9.16-.76.49-1.02.2-.85-.78-2.71-.32-2.75-.63-.45-2.16-1.93-.52-3.94-1.63-2.7-3.75-.2-.24-.13-.7-.29-.97Z"/>
      <g>
        <path class="cls-16" d="M54.79,18.54c.24.36.54.69.87.97.88.25.88.59.03,1-.84,3.16-8.05,2.17-9.03-.69,1.91-2.24,5.44-.73,8.12-1.28Z"/>
        <path class="cls-104" d="M59.66,19.32c.93.84,2.17,1.4,3.29,1.93-1.46,3.31-6.17,2.5-7.25-.74l-.03-1c1.31-.15,2.69.04,4-.19Z"/>
        <path class="cls-55" d="M76.02,21.86l.18.89c-3.84-.06-8.18.16-11.59-1.51,1.54-.39,2.89-.62,4.44-.69-2.03-3.71,3.85-2.72,6.17-1.57.54,1.56-1.94,1.42-3.37,2.62,1.63-.79,2.68-.36,4.17.27Z"/>
        <path class="cls-96" d="M74.86,24.67l.03,1.17c-.43,1.17-1.88,1.49-2.96,1.1-.18.34-.96.51-.96,1.03-1.06-.09-2.09-.39-3.03-.89-.62-.28-.62-.61-.03-1,.6.32,2.19-.11,3.15-.19.47-.04.33-.76.5-1.88l3.31.65Z"/>
        <path class="cls-109" d="M67.9,26.09l.03,1c-3.04-1.62-6.64-.56-10.02-.76,2.73-1.73,7.1-1.75,9.98-.24Z"/>
        <path class="cls-54" d="M55.84,25.1c-1.88.47-5.01,1.79-6.42-.83,2.09-.42,3.43.39,6.42.83Z"/>
      </g>
    </g>
    <path class="cls-53" d="M61.94,27.3c1.11-.21,2.38-.13,4.06.05-.75,2.03-2.83,1.92-4.02,3.03l-.05-3.08Z"/>
  </g>
</svg>