<?xml version="1.0" encoding="UTF-8"?>
<svg id="Enemy" xmlns="http://www.w3.org/2000/svg" viewBox="0 0 135.5 66.31">
  <defs>
    <style>
      .cls-1 {
        fill: #312d28;
      }

      .cls-2 {
        fill: #625f5f;
      }

      .cls-3 {
        fill: #ca9282;
      }

      .cls-4 {
        fill: #585858;
      }

      .cls-5 {
        fill: #22190e;
      }

      .cls-6 {
        fill: #480c0d;
      }

      .cls-7 {
        fill: #451010;
      }

      .cls-8 {
        fill: #313131;
      }

      .cls-9 {
        fill: #b78787;
      }

      .cls-10 {
        fill: #434343;
      }

      .cls-11 {
        fill: #2e2b1f;
      }

      .cls-12 {
        fill: #680f0d;
      }

      .cls-13 {
        fill: #373637;
      }

      .cls-14 {
        fill: #7b0b09;
      }

      .cls-15 {
        fill: #141213;
      }

      .cls-16 {
        fill: #363532;
      }

      .cls-17 {
        fill: #5a1a1e;
      }

      .cls-18 {
        fill: #2d2b25;
      }

      .cls-19 {
        fill: #6d1617;
      }

      .cls-20 {
        fill: #3b3120;
      }

      .cls-21 {
        fill: #d8b095;
      }

      .cls-22 {
        fill: #53504f;
      }

      .cls-23 {
        fill: #921c1d;
      }

      .cls-24 {
        fill: #4a4a4a;
      }

      .cls-25 {
        fill: #292220;
      }

      .cls-26 {
        fill: #121212;
      }

      .cls-27 {
        fill: #1d140f;
      }

      .cls-28 {
        fill: #0e0b04;
      }

      .cls-29 {
        fill: #807562;
      }

      .cls-30 {
        fill: #1e1f1d;
      }

      .cls-31 {
        fill: #594d2e;
      }

      .cls-32 {
        fill: #494949;
      }

      .cls-33 {
        fill: #322918;
      }

      .cls-34 {
        fill: #4f4f4e;
      }

      .cls-35 {
        fill: #494848;
      }

      .cls-36 {
        fill: #e3b9a3;
      }

      .cls-37 {
        fill: #390c0b;
      }

      .cls-38 {
        fill: #a42722;
      }

      .cls-39 {
        fill: #383838;
      }

      .cls-40 {
        fill: #130b08;
      }

      .cls-41 {
        fill: #40161b;
      }

      .cls-42 {
        fill: #30241f;
      }

      .cls-43 {
        fill: #292721;
      }

      .cls-44 {
        fill: #433936;
      }

      .cls-45 {
        fill: #d6c2c9;
      }

      .cls-46 {
        fill: #403634;
      }

      .cls-47 {
        fill: #1e1e1d;
      }

      .cls-48 {
        fill: #4b0910;
      }

      .cls-49 {
        fill: #b3b0b0;
      }

      .cls-50 {
        fill: #606060;
      }

      .cls-51 {
        fill: #39322a;
      }

      .cls-52 {
        fill: #3b3b3a;
      }

      .cls-53 {
        fill: #1c1c1c;
      }

      .cls-54 {
        fill: #231c17;
      }

      .cls-55 {
        fill: #2a2516;
      }

      .cls-56 {
        fill: #422118;
      }

      .cls-57 {
        fill: #3c3d3c;
      }

      .cls-58 {
        fill: #211416;
      }

      .cls-59 {
        fill: #404040;
      }

      .cls-60 {
        fill: #614f2b;
      }

      .cls-61 {
        fill: #2d2623;
      }

      .cls-62 {
        fill: #2e2922;
      }

      .cls-63 {
        fill: #4a4329;
      }

      .cls-64 {
        fill: #130e0c;
      }

      .cls-65 {
        fill: #1f1f1f;
      }

      .cls-66 {
        fill: #2e2822;
      }

      .cls-67 {
        fill: #39342f;
      }

      .cls-68 {
        fill: #5a4a46;
      }

      .cls-69 {
        fill: #636363;
      }

      .cls-70 {
        fill: #1a1816;
      }

      .cls-71 {
        fill: #b14647;
      }

      .cls-72 {
        fill: #b53330;
      }

      .cls-73 {
        fill: #6b6141;
      }

      .cls-74 {
        fill: #1a1314;
      }

      .cls-75 {
        fill: #321c1c;
      }

      .cls-76 {
        fill: #25211b;
      }

      .cls-77 {
        fill: #302825;
      }

      .cls-78 {
        fill: #555;
      }

      .cls-79 {
        fill: #300000;
      }

      .cls-80 {
        fill: #2f3334;
      }

      .cls-81 {
        fill: #1d1914;
      }

      .cls-82 {
        fill: #616161;
      }

      .cls-83 {
        fill: #333;
      }

      .cls-84 {
        fill: #020100;
      }

      .cls-85 {
        fill: #4b4a4a;
      }

      .cls-86 {
        fill: #272829;
      }

      .cls-87 {
        fill: #ab2821;
      }

      .cls-88 {
        fill: #1b1a11;
      }

      .cls-89 {
        fill: #23221e;
      }

      .cls-90 {
        fill: #b6988f;
      }

      .cls-91 {
        fill: #725f34;
      }

      .cls-92 {
        fill: #e8b493;
      }

      .cls-93 {
        fill: #38312c;
      }

      .cls-94 {
        fill: #232017;
      }

      .cls-95 {
        fill: #938081;
      }

      .cls-96 {
        fill: #27201a;
      }

      .cls-97 {
        fill: #fcd6b7;
      }

      .cls-98 {
        fill: #281a16;
      }

      .cls-99 {
        fill: #4b4b48;
      }

      .cls-100 {
        fill: #584c3e;
      }

      .cls-101 {
        fill: #292929;
      }

      .cls-102 {
        fill: #efc1ae;
      }

      .cls-103 {
        fill: #b03431;
      }

      .cls-104 {
        fill: #5d5d5d;
      }

      .cls-105 {
        fill: #3d3d3d;
      }

      .cls-106 {
        fill: #7e6f4d;
      }

      .cls-107 {
        fill: #151411;
      }

      .cls-108 {
        fill: #131010;
      }

      .cls-109 {
        fill: #150000;
      }

      .cls-110 {
        fill: #3a1b17;
      }

      .cls-111 {
        fill: #6a0a0a;
      }

      .cls-112 {
        fill: #fee9d5;
      }

      .cls-113 {
        fill: #6a0400;
      }

      .cls-114 {
        fill: #241f1c;
      }

      .cls-115 {
        fill: #332e27;
      }

      .cls-116 {
        fill: #313027;
      }

      .cls-117 {
        fill: #322a1f;
      }

      .cls-118 {
        fill: #82201e;
      }

      .cls-119 {
        fill: #161616;
      }

      .cls-120 {
        fill: #2e2e2e;
      }

      .cls-121 {
        fill: #15100c;
      }

      .cls-122 {
        fill: #24140c;
      }
    </style>
  </defs>
  <g id="MaskedMayhem">
    <g>
      <path class="cls-45" d="M0,26.64c-.02-.85.26-1.52.93-2.03.8,1.27,1.01,2.88.63,4.83l-.08.82C.15,30.9,0,30.05.04,29.11s-.03-1.71-.04-2.47Z"/>
      <path class="cls-41" d="M.93,24.61c.34-.26.39-.9.82-1.12-.05.51.72,1.15.58,1.65-.39,1.4.25,3.14-.77,4.3-.5-1.56-.69-3.2-.63-4.83Z"/>
    </g>
    <g>
      <path class="cls-108" d="M115.65,15.86c-2.56-1.65-1.8-2.02.94-2.08-1.6-1.61-.93-5,1.88-4.28.4-.9,1.42-.63,1.96-1.07,2.69.67.47,8.98,1.3,10.96,2.51,3.35-3.41,4.07-1.88,1.07-.95-.17-1.59.52-1.93,2.07-1.3.97-1.83.51-1.03-.96-1.2.65-1.6-.02-1.2-2.03-1.81,1.81-1.88,1.77-1.96-.78-1.15-1.62-.51-2.58,1.92-2.89Z"/>
      <path class="cls-66" d="M116.89,21.56c-.01.64.35,1.12,1.03.96.28-1.96.93-2.65,1.93-2.07-.1.58.25.93.61.99.63.1,1.36-.11,1.42-.59s-.06-1-.14-1.47c.66.82,1.63,1.62,1.43,2.9-.17,1.05-.38,1.51-1.17,2.13-1.14-.09-2.15-.4-3.03-.93-.63,1.51-2.29,1.59-3,.1-1.4-.98-.74-2.64.93-2.03Z"/>
      <path class="cls-121" d="M111.97,22.63c1.92-1.76,2.28-1.56,1.99,1.03.86-1.53,1.5-1.88,2-.07.97-.07,2.04.09,3-.1,2.09-.32,2.2,1.24.18,1.9-1.7.2-3.46.19-5.16.39-.9-.11-1.54-.41-1.92-.9-2.45-.92-2.71-1.31-.08-2.24Z"/>
      <path class="cls-61" d="M118.96,23.49c.63-.13,1.22-.83,1.7-.97,1.33-.39,1.54.89,1.34,1.9-.88.7-1.73.83-2.86.96l-.18-1.9Z"/>
      <path class="cls-25" d="M123.42,65.35c.3-.85.64-.86,1-.03,4.42-1.25,4.75-1.71,1-1.38l-1.94-1.65c.91-.82,1.49-2.18,1.72-4.07,1.13-2.65,3.78-2.74,5.12-.2,1.1.22.53,2.19.38,2.2-.26.02-.39-2,.74-2.13-.88-.18-.86-.47-.01-.84.96.24,2.32-.13,3.03.22,1.43.72.94,2.94.98,4.4.08,2.65-1.38,3.94-3.36,4.35l-8.64.08c-.89-.18-.88-.5-.03-.95Z"/>
      <path class="cls-26" d="M104.88,23.93c-.72-2.92,6.58-1.41,7.17.94.76,0,1.56.14,1.92.9l-13.08,1.51c-2.51.29-6.55-1.18-8.04-2.82l3.29-1.92c3.03.37,5.95.83,8.74,1.39Z"/>
      <path class="cls-63" d="M114.11,50.81l.84-.13c2,1.87,4.59,2.85,7.14,3.65,1.01.6,2.06,2.8,1.92,3.92-1.4,4.3-4.76,2.33-6.54-1.1-5.09-2.46-6.21-4.57-3.36-6.35Z"/>
      <path class="cls-33" d="M99.69,14.14c-.86-.2-.87-.53-.06-.97-.37-1.97.77-1.35,2-.1,4.65,1.18,9.18,3.17,14.02,2.79-.49,1.1-.81,2.22-1.92,2.89-1.37,2.64-5.83,1.37-6.91-.95-.5.75-1.17,1.17-2.03,1.18l-1.07.86c-1.35-1.51-2.66-2.39-3.92-2.64-1.91,4.53-4.85-1.83-.11-3.06Z"/>
      <path class="cls-31" d="M106.82,17.8c2.34.01,4.61.58,6.91.95.77.12,1.33.33,1.96.78.68,1.41-.33,3.71-1.73,4.13-.62-.23-1.49-.6-1.99-1.03-1.42,1.05-3.8.37-4.65-1.15-1.26-.86-1.99-2.81-.49-3.69Z"/>
      <path class="cls-61" d="M119.85,20.45c-.98.41-.67,2.05-1.93,2.07-.74-4.52.57-8.78,2.09-13.14,2.38,6.1-3.29,6.42-.16,11.07Z"/>
      <path class="cls-29" d="M115.69,19.53c.69.49,1.21,1.09,1.2,2.03-.8.35-.98,1.23-.93,2.03-.57.04-1.47.27-2,.07.54-1.4.78-2.94,1.73-4.13Z"/>
      <path class="cls-5" d="M102.8,20.83c-.16-1.94,1.49-1.59,2.38-.12.9-1.65,1.75-.9,2.13.77,1.68-.2,3.35.03,4.65,1.15l.08,2.24c-2.26,0-4.99-2.14-7.17-.94-3.72,1.34-6.61-2.33-2.08-3.1Z"/>
      <path class="cls-55" d="M104.13,56.22c-2.38-1.07-2.56-3.49-.52-7.26,1.28-.94,2.61-1.67,3.23-.04.23-.49.58-.46,1-.03,1.44,1.66-.09,2.65-1.93,2.07.45,4.29,3.38,6.82,8.81,7.6l.63.88c1.37-2.52,3.34-.73,4.84,1,1.22.19,2.5-.54,3.82-2.19.37-.06.83-.06,1.2-.03.25,1.9.36,3.81.22,5.72.61.62.28,1.08-1,1.38-.33.03-.67.07-1,.03-1.35-.13-2.83.28-4.17.05-4.1,1.2-16.6,1.52-14.9-4.27-.84-1.4-.92-3.04-.22-4.91Z"/>
      <path class="cls-15" d="M125.43,63.94c2.52-1.44,5.53-.96,8.08.76-3.56.82-6.26.34-9.09.62.35-.38.54-1.11,1-1.38Z"/>
      <path class="cls-74" d="M130.33,58.02c.36-.06.76.11,1.13.07.7,1.16,1.12,2.73.44,3.95-1.12-1.43-2.12-.44-2.44-.94-.6-.94.22-2.7.87-3.07Z"/>
      <path class="cls-85" d="M72.33,34.81c1.24-1.61,5.86-1.49,7.81,0,2.37-2.98,4.56-1.23,6.79,1.05l.04.88c1.71.58,1.53,1.37-.27,1.63l1.72,2.53c4.59,2.43.57,7.88-2.97,2.91-2.95,1.58-5.56.49-7.82-3.28-5.09.25-7.52-1.24-7.29-4.47-1.64-2.5-.46-3.13,1.99-1.28Z"/>
      <path class="cls-10" d="M87.66,17.51c1.07-1.13,2.74-.53,5.02,1.78l.57-1.34c.8.26,1.64.38,2.51.35-1.23-.99-1.63-2.65-.03-3.32,1.86-.24,2.47.55,1.51,2.05,3.33,3.1.02,7.3-4.39,7.43l-5.84-2.11c-1.32-.35-1.29-1.08.09-2.19l.55-2.66Z"/>
      <path class="cls-53" d="M78.29,29.94c.16-1.64,1.33-3,3.52-4.1.28-4.02,1.88-6.41,4.8-7.19-1.48-2.75-.79-3.75,1.05-1.15.89.94-.02,3.52-.64,4.85-.93,1.97-3.17,2.91-2.08,5.5-2.63.35-3.38,3.42-5.82,4.21-1.71.95-2.18.29-.89-1.21-.87-.25-.83-.56.05-.91Z"/>
      <path class="cls-8" d="M90.7,37.57c1.02.21,2.82.33,3.85.65,1.29,1.51,3.05,2.56,4.95,3.12l.08,1.03c1.17,1.27.65,1.79-.81.9-.6,2.7-1.17,2.48-2.18,0-1.96.25-5.09-2.29-5.84-4.16-1.94-.15-1.92-.93-.04-1.55Z"/>
      <path class="cls-39" d="M86.97,36.75c1.45-.61,2.7-.12,3.73.82l.04,1.55c.63,1.74-.08,1.93-1.07.31-.05.9-.4.92-1.02.17-1.28.75-2.33.31-1.95-1.22-.04-.56-.04-1.15.27-1.63Z"/>
      <path class="cls-91" d="M107.94,52.06c-.07-1.93,1.35-2.08,2.92-1.31-.17-1.85,1.16-1.42,2.04-.04l1.2.09c-.18,4.56,5.25,2.33,6.58,8.29,1.36-.05,2.27-.68,3.32-.84-.12.94.23,3.45-.76,3.75-3.38,1.03-5.65-1.73-7.91-2.56-2.4-1.47-5-2.75-7.8-3.83-1.35-1.36-1.69-3.75.4-3.55Z"/>
      <path class="cls-86" d="M98.76,43.27c-.04-.42.45-.81.81-.9,1.93.52,3.87,5.42,6.19,4.41,1.19,1.49-.9,2.2-2.23,1.24-1.06,1.74-2.51,1.1-4.37-1.91-1.58-.66-2.43-2.4-.4-2.84Z"/>
      <path class="cls-20" d="M107.77,46.89c1.89,1.18,5.14,1.14,5.14,3.82l-2.04.04c-1.82.58-3.18.13-3.02-1.86-.3-.09-.69.03-1,.03-1.77-.46-.6-1.95.93-2.03Z"/>
      <path class="cls-28" d="M105.76,46.78c.83-.36,1.13-.44,2,.11l-.93,2.03c-1.08.01-2.15.15-3.23.04-2.08.63-2.27-.22-.07-.94.98.23,1.6-.63,2.23-1.24Z"/>
      <path class="cls-54" d="M95.73,14.98c-.25-2.1.6-2.36,1.88-.69-.67-1.93,1.12-1.48,2.08-.15-.27,1.1-1.08,1.91-2.01,2.69,1.04.69,1.63.36,2.13.37,1.75-.53,3.77,2.16,3,3.63-.43.68-.64,1.54-.06,1.96.77.55,1.48.82,2.14,1.14-3.18,3-8.98-.23-12.03.53,3.28-1.87,5.14-6.35,2.88-9.48Z"/>
      <path class="cls-100" d="M104.79,18.98c1.6-.49,2.01,1.09.39,1.73-.7-.23-1.64.22-2.38.12-1.13-1.1-2.23-2.25-3-3.63-.06-.86.8-.92,1.45-.92,2.4,0,1.04,2.25,3.54,2.7Z"/>
      <path class="cls-73" d="M104.79,18.98c-.12-.35-.16-1.69.37-1.9.42-.17,1.13.72,1.66.72.07,1.26,1.3,2.53.49,3.69-.83.1-1.47-.46-2.13-.77l-.39-1.73Z"/>
      <path class="cls-16" d="M99.63,13.17c-.04.31.14.67.06.97l-2.08.15c-2.14.25-3.91-1.16-2.09-3.03,1.57.17,3.09.63,4.11,1.92Z"/>
      <path class="cls-106" d="M105.91,50.96c1.56-1.48,2.43-1.01,2.03,1.1-2.96,3.35,8.85,4.51,7.4,7.38-2.64-.98-6.31-.63-8.9-2.93-1.39-1.23-.76-4.1-.53-5.55Z"/>
      <path class="cls-35" d="M99.82,48.31c1.19-.2,2.45.02,3.78.65.33,2.4.77,4.82.52,7.26,1.9,2.75-1.72,4.09-2.95,1.01-1.76-.27-2.14-.86-1.13-1.78-3.1-4.04-3.18-6.42-.23-7.14Z"/>
      <path class="cls-89" d="M101.18,57.23c1.08-.07,2.37.15,2.95-1.01.86.49,1.88,1.26,1.73,2.22-.18,1.15-.6,2.22-1.51,2.69-1.05-.4-2.13-.68-3.23-.9-.67-1.66-2.95-1.83-3.93-3.14.39-1.56,1.72-1.51,4,.14Z"/>
      <path class="cls-60" d="M107.84,48.89c1.16.33,2.22.97,3.02,1.86-.74.84-1.83,1.18-2.92,1.31-.6-.5-1.3-.84-2.03-1.1.2-.82,1.5-1.37,1.93-2.07Z"/>
      <path class="cls-101" d="M70,31.32c1.64-1.38,3.98-1.51,7.02-.39-.32-1.85.12-1.58,1.22-.07l.89,1.21c.06,1,.29,2.02,1.01,2.75-2.21,2.16-5.03.11-7.81,0-2.8.75-3.95-.02-2.98-2.85-.38-.74-.15-.94.66-.63Z"/>
      <path class="cls-59" d="M68.31,32.09c.24-.85.59-.89,1.03-.14.81,1.13,1.95,1.94,2.98,2.85-.81-.03-1.4.93-1.99,1.28-.52.3-1.32.13-1.89.33-.89,1.03-3.54-.75-2.22-2.18-2.42-2.26-.06-3.41,2.09-2.14Z"/>
      <path class="cls-4" d="M86.7,38.38c.77.17,1.47.58,1.95,1.22-.11.43-.26.91-.23,1.31-.65-.18-1.63.16-2.57-.3s-.33-2.03.85-2.23Z"/>
      <path class="cls-32" d="M89.56,12.4c.39-.77.76-.72,1.11.11,3.18-.2,4.62.58,4.31,2.36-.29,1.47-.18,1.97.78,3.42.12,1.88-1.94.82-3.08,1-3.47-1.3-4.37-3.66-3.13-6.88Z"/>
      <path class="cls-69" d="M88.52,12.39c.36-1.07.71-1.06,1.04.02-.41,2.83,1.96,4.51,3.13,6.88-1.89.28-3.42-.88-5.02-1.78l-.51-1.04c.04-1.35.49-2.71,1.37-4.08Z"/>
      <path class="cls-78" d="M94.98,14.87c.23-.82.48-.76.75.1-.09,1.1-.04,2.22.03,3.32-.69-.23-1.26-.56-1.65-.96-.87-.89-.29-2.24.87-2.46Z"/>
      <path class="cls-10" d="M73.56,18.92c-.65-4.84,9.46-2.19,8.67,1.67l1.2.33-1.62,4.93c-1.56,1.13-2.74,2.5-3.52,4.1l-.05.91-1.22.07c-3.3,2.23-3.79-1.03-2.56-4.18-1.82-1.92-2.6-3.71-2.34-5.37-1.52-2.14-1.18-2.75,1.43-2.46Z"/>
      <path class="cls-83" d="M82.23,20.59c-2.85-2.32.89-5.53,3.32-3.01.6-1.03.95-.67,1.06,1.08.04.39-.05,1.13-.26,1.65-.14.35-1.23,0-1.64.48-1.35,1.55-1.92,3.47-2.9,5.05-.71-1.94.74-3.3.43-5.25Z"/>
      <path class="cls-104" d="M87.15,16.47l.51,1.04c-1.31-1.33-.87.41-1.05,1.15-.29-.31-.99-.61-1.06-1.08-8.69-3.38,2.91-10.95,1.59-1.12Z"/>
      <path class="cls-83" d="M81.81,25.85c-.97,1.55-1.29,3.84-3.52,4.1-.26-.25-1.58-1.33-1.08-1.96,1.23-1.55,3.17-1.76,4.6-2.14Z"/>
      <path class="cls-57" d="M96.58,43.27h2.18c.08.94.18,1.91.4,2.84,1.18.77,2.1,1.42.66,2.2-.85,2.26-.25,4.82.23,7.14-.7,1.7-1.98,1.18-3.84-1.58-4.45-.59-6.27-1.72-5.48-3.38,2.81-.11,7.01-.86,6.64-4.69-.04-.39-1.01-1.12-1.27-1.38-.47-.49-.6-1.04.48-1.14Z"/>
      <path class="cls-80" d="M103.54,48.02c-.54.35-.51.66.07.94-1.33-.03-.28,1.71-1.68,3.04-1.14-.97-1.34-2.51-2.1-3.69-.39-.62-.49-1.5-.66-2.2,1.62.17,2.86,1.36,4.37,1.91Z"/>
      <path class="cls-65" d="M90.67,12.52c1.72-.34,3.11-1.46,4.85-1.27l2.09,3.03c-.68.05-1.34.28-1.88.69-.23-.08-.54.02-.75-.1-1.48-.86-3.66-.6-4.31-2.36Z"/>
      <path class="cls-21" d="M47.28,4.06c.8.07.76.36.02.83.39,1.93-.98,2.01-4.11.22h-1.45c.12-1.47-.62-3.44.77-4.33,1.24-.79,3.51-1.24,4.79-.07.77.7.31,2.55-.01,3.35Z"/>
      <path class="cls-105" d="M85.35,7.76c.36,1.38,2.14,1.26,3.13,1.88,1.08.67,1.99,1.55,2.2,2.87-.35-.07-.78.03-1.11-.11-.35-.15-.69-.29-1.04-.02-.99.28-2.34.19-4.04-.27-1.93-.18-3.57-.75-4.92-1.71-1.34.5-2.04.28-2.1-.66,1.91-2.19,5.21-1.51,7.89-1.98Z"/>
      <path class="cls-120" d="M74.76,51.11l15.98-.62c1.19,2.37,4.46.95,6.69,1.53,1.4.37.8,4.42,2.63,3.42.13.61,1.06,1.09,1.13,1.78-1.34.09-2.68.21-4-.14-2.92-3.92-7.52-3.92-12.19-3.35-4.38.53-8.8-1.39-13,.29-1.71,2.48-2.71,2.57-3,.26-6.99-7.6.02-5.59,5.76-3.17Z"/>
      <g>
        <path class="cls-78" d="M68.45,36.41c-.14-2.67.69-2.65,1.89-.33l3.98,2.53c3.59-1.42,6.24,1.09,7.23,4.2,1.5.04,3.26-1.26,4.43-1.1,1.37.19,1.11,2.18,2.69,3.02l-.26-3.82c-.84-.59-.76-1.02.23-1.31.34-.05.68-.14,1.02-.17,2.93,1.03,8.44,5.92,5.19,8.76-.46.4-10.7,1.69-11.96,1.71-2.28,1.65-15.69-3.94-16.29-4.93-.22-.36.2-7.99.43-8.34.18-.27.74-.28,1.41-.21Z"/>
        <path class="cls-85" d="M62.8,47.46c-.57-.36-.51-.68.12-.98-1.88-.45-1.89-1.27-.06-1.81,1.76-1.77,2.74-5.47,1.33-7.35-1.33-1.74-.15-4.62,2.02-3.09l2.22,2.18c-.46,2.22-1.9,6.69.67,8.31,1.82,1.15,3.94,1.09,5.51,2.48,4.19,3.7,10.85,1.41,15.74-.43.93-.35,2.54.97,3.1.66,4.17-2.34-3.91-4.92-3.8-8.01.33-.03.76-.39,1.07-.31,2.39.61,5.05,1.67,5.84,4.16,4.68,5.24.39,9.46-5.84,7.22-.07.72-.17,1.29-.41,1.35-2.92.78-11.68.77-14.86.37-.28-.04-.5-.51-.7-1.1-1.93-.25-3.94-.99-6.03-2.22-1.72.71-3.26,1.12-4.63,1.23-.26.88-.61.88-1.03.04-1.36.5-1.45-.39-.26-2.69Z"/>
        <path class="cls-50" d="M82.68,45.34c-1.4.76-2.99.81-5.05.21,1.04-1.08,2.4-1.01,5.05-.21Z"/>
      </g>
      <path class="cls-24" d="M72.13,21.38c1.97,1.41,4.9,3.61,4.24,6.45-.21.9-.93,1.59-.72,2.36.12.44.65,1.07,1.37.73-.16.72-.37,1.62-1.39,1.88l-5.63-1.49c-.8-.43-.76-.79.11-1.07q.82-1.86,0,0c-.77,1.88-2.45.72-1.14-.91-2.59-3.68-1.77-8.67,3.16-7.96Z"/>
      <path class="cls-47" d="M68.2,28.68l.77.67c-.3.78.38,1.42,1.14.91-.1.33.05.76-.11,1.07-.12.22-.43.53-.66.63-.29.14-.71.11-1.03.14-2.05.33-2.82-.57-2.32-2.71-3.16-2.59.05-3.65,2.21-.7Z"/>
      <path class="cls-32" d="M73.52,11.88c-.86-1.82.68-2.05,1.97-.88l4.06-.59c3.02-1.74,6.48-.2,8.96,1.98.11.98.13,1.81.14,2.62,0,.94-.21,2.01-1.5,1.46-.64-1.3-.78-3.05-2.64-3.99-.53,2.43.83,3.54,1.05,5.1-.82.26-3.51,1.82-3.32,3.01-.49-.43-9.74-4.32-8.67-1.67-4.36,1.39-1.78-5-.04-7.04Z"/>
      <path class="cls-52" d="M64.83,17.23c-2.25-2.05,2.85-6.17,5.09-4.28.26-2.74,2.24-3.13,3.61-1.07,2.13,3.77-1.92,5.18.04,7.04-.17.88-.83,1.81-1.43,2.46-2.14,2.29-4.16,4.75-3.16,7.96-.04-.19-.85-.31-.77-.67-3.36-.84-4.15-1.92-2.4-3.24-.89-1.05-1.53-2.06-1.92-3.02l-2.65-.95c2.28-1.88,3.47-3.29,3.59-4.23Z"/>
      <path class="cls-13" d="M62.94,52.46l1.16-2.34c.95-.83,1.14-2.1,1.69-3.88,3.98,1.83,9.04,2.56,8.97,4.87-3.93,3.39-4.68-2.62-7.95-.39,1.23,1,2.2,2.08,2.19,3.57-.04.92-.32.87-.8-.03-3.55,1.32-10.9-1.67-5.26-1.79Z"/>
      <path class="cls-119" d="M76.46,9.83c.33,0,.67-.11,1-.08.74.06,1.46.28,2.1.66-1.28.78-2.86,2.01-4.06.59.35-.36.68-.75.96-1.17Z"/>
      <path class="cls-82" d="M70.11,30.25c.32-1.2-.8-2.72.59-3.85l1.11,3.26c.15.43-1.35.55-1.7.59Z"/>
      <path class="cls-7" d="M1.75,23.49c.33-3.69,1.48-7.04,3.78-10,1.14-1.47,4.11-2.53,5.9-2.16-.03.34-.03.69,0,1.03.89,1.9.08,2.55-1.83,1.77-.43.84-.72,1.97-.84,3.41,1.83,1.54.64,2.55-1.4,3.59.69,2.77-2.72,4.22-5.03,4-1.03-.07-1.01-.74-.58-1.65Z"/>
      <path class="cls-109" d="M16.88,23.05c1.23-3.38,2.54-4.1,3.93-2.14l.07,2c1.09,1.01.49,1.46-.96,1.03-.78.7-3.6,1.67-4,.14-1.94.13-1.92-.65.03-1.16.31-.74.62-.67.93.13Z"/>
      <path class="cls-90" d="M22.67,16.84c-.49,1.42-.9,2.89-1.86,4.07-2.12,1.23-2.97-1.21-2.1-2.93,1.33-.07,2.64-1.19,3.96-1.14Z"/>
      <path class="cls-3" d="M20.88,22.91c.74-.41,1.37-1.4,2-.6.47.59,1.09.88,1.29,1.54-.26,1.67-3.01,2.34-4.22,1.09-.88-.25-.88-.59-.03-1,.55-.02.98-.49.96-1.03Z"/>
      <path class="cls-12" d="M2.33,25.14c.96-1.22,3.17-1.47,3.1-2.67l-.28-5.01c1.3-.47,1.57,1.3,2.11,1.46s1.13-.86,1.5-1.37c1.05.68,1.04-.21-.01-2.67l.86-.74c.61-.52,1.33-1.13,1.83-1.77l2.03.75c1.18.94,1.56,1.39.05,1.9.11,1.69.22,3.38.35,5.08.89.04.88.3.05.76l-1.99,2.56c-.19,2.67-.68,2.94-2.73,1.47-4.13,1.38-5.59,2.3-4.39,2.76,2.74,4.16-.02,6.41-3.34,2.61-.86-.26-.81-.53.08-.82-.23-1.99.03-3.42.77-4.3Z"/>
      <path class="cls-102" d="M13.52,15.01c-.17-.59.05-1.31-.05-1.9,1.39.51,2.55,1.76,4.13,1.88.19.23.34.55.65,1.02.23.35-.02.77-.58,1.02,1.62,2.97,1.36,4.98-.79,6.03-.2.11-.73,0-.93-.13-.93.37-1.24.07-.94-.88-1.66.62-2.19.24-1.09-1.18l-.05-.76c-.29-1.92-.4-3.61-.35-5.08Z"/>
      <path class="cls-56" d="M17.67,17.02c.23.39.84.56,1.03.96.53,1.11,1.77,1.72,2.1,2.93l-3.93,2.14c2.14-2.67-1.33-5.12.79-6.03Z"/>
      <path class="cls-14" d="M11.94,23.42c-.51-2.49,1.06-2.34,3.07-1.38.29.3.61.64.94.88l-.03,1.16c.31,2.6-2.08.43-1.88.46,1.88.3,3.28.84,1.99,2.72l3.02,2.6c2.51.82,2.33,3.89.17,5.11-.87,1.97-.76,4,.41,5.99l-.03.79c-.82,1.47-1.46.58-2.09-.72-.91-.21-.9-.55-.03-1-.76-.75-1.78-1.03-3.07-.84-1.79.48-2.83-4.09-1.32-4.87.05-1.7,1.38-.32,1.28-.33-1.11-.13-4.04-2.09-2.29-3.19l-1.16-2.58c-.45.17-.82.27-.96.13-.79-.8-.31-2.48-.44-1.22-.02.16-.8-.16-1.53-.77.99,1.68-.72,1.93-1.96,1.05-.2,1.77-.54,1.92-1.22.24-.61-.12-1.5-.01-1.87-.89,3.19-1.89,6.09-2.42,9-3.34Z"/>
      <path class="cls-95" d="M19.6,41.76l.03-.79c1.25,1.02,2.08,2.33,3.7,2.62,2.54,1.28,2.62,2.36.22,3.23.6,3.69-5.26,2.65-4.95-.67-1.21.15-1.24-.54-.06-1.16.33-1.11.68-2.18,1.05-3.24Z"/>
      <g>
        <path class="cls-96" d="M37.1,19.61c-.04-.9-.11-2.04-.23-3.42,1.09-2.83,4.45-.3,3.91,1.88,2.06,1.09,1.63-3.01.77-4.89-1.02-.82-1.78-2.66-.1-3-.06-1.72.14-3.39.28-5.09.25-1.93,1.03-1.92,1.45,0,.78.05,1.16.37,1.13.98.82,1.44,1.97,3.52-.08,3.88,2.17,4.04,2.82,7.58,1.96,10.61l-1.42.33c2.05,1.23,2.02,1.78.24,3.24-.1.94-.43.93-.95.06-5.2.36-7.51-.85-6.92-3.64-.89-.18-.88-.5-.04-.95Z"/>
        <path class="cls-30" d="M44.31,6.08l2.99-1.2c.03-.25-.11-.59-.02-.83.38-.05.95-.09,1.18.14.37.37.37.97.52,1.71l1.6,7.96-.75,2.13c-2.32,2.39-4.07-.13-1.25-2.06-1.31-1.98-2.07-2.96-4.36-3.98.18-1.11-1.06-2.82.08-3.88Z"/>
        <path class="cls-116" d="M60.19,27.99c2.31-2.12,5.04-2.1,5.81,1.39,1.37.21,2.22,1.36,2.32,2.71-1.24.08-1.36,1.62-2.09,2.14-1.16.83-1.86,1.57-2.02,3.09,2.08,2.02.85,3.52-1.78,2.25-1.93-1.15-.91-4.91.71-6.28-4.68.7-8.05-2.93-2.94-5.3Z"/>
        <path class="cls-22" d="M61.64,41.63c-2.04-1.05-1.53-2.16.79-2.07.35-.75,1.68-1.37,1.78-2.25,1.15-.48,1.99-1.17,2.32-.44.72,1.59-.03,6.22-.88,7.42-.51.72-1.74.97-2.77.37-2.18.79-2.42-1.72-1.23-3.04Z"/>
        <path class="cls-18" d="M59.53,46.76c1.09-1.84,2.22-1.93,3.39-.27.05.32-.15.66-.12.98-.94,2.04-.9,3.37.1,4,.88.25.88.59.03,1-1.82.49-.61,1.92.98,1.15,1.8-.46,3.37-.35,4.28.65,1.27,1.6.59,2.15-1.16,1.06-1.51.8-3.48,1.06-4.89-.06.29,2.99-4.51,3.37-5.37.66-.86-.05-.86-.33-.08-.82,2.31-.92,3.07-1.42,2.28-1.51-1.93-.05-2.98-.45-3.17-1.18-2.33-2.6.49-6.28,3.73-5.66Z"/>
        <path class="cls-1" d="M61.64,41.63l1.23,3.04c.22.54-.04,1.24.06,1.81-1,.3-2.95,1.89-3.39.27-3.8-1.01-.55-7.51,2.1-5.12Z"/>
        <path class="cls-1" d="M62.8,47.46l.26,2.69c1.7.46,1.68,1.18-.16,1.31-1.62.49-2.75-.51-1.67-2.04.44-.62.85-1.47,1.57-1.96Z"/>
        <path class="cls-2" d="M63.07,50.15l1.03-.04,2.91,1.85c-1.7.81-2.92.29-4.08.49l-.03-1c-.02-.43.21-.88.16-1.31Z"/>
        <path class="cls-27" d="M44.77,20.9c.38-1.77,1.24-2.19,2.8-1.46.14-1.82.9-2.97,2.27-3.44-.04-.77-.59-2.08.75-2.13.85,4.23,1.45,7.27,4.19,7.5,4.5.37,2.52,2.21,10.06-4.13,3.77.13-4.12,2.86-.94,5.18-.88,1.08-1.8.57-2.94-.09l-.35,1.11c-2.48.03-3.36.4-2.64,1.13.88.28.88.64.03,1.07-3.36,2.37-10.05.84-12.99-1.48-1.12-1.16-.48-2.12-.24-3.24Z"/>
        <path class="cls-115" d="M44.22,9.96c2.36.47,3.66,1.67,4.36,3.98.06.89.24,1.81,1.25,2.06l.33,6.19c-2.41-.4-3.78-1.24-5.4-1.29,1.4-6.44-3.22-7.23-.54-10.93Z"/>
        <path class="cls-17" d="M45.01,24.13c3.4-.63,6.63,2.54,12.99,1.48.88.25.88.59.03,1-1.74,3.3-14.05,2.04-13.98-2.42.27.07.68-.01.95-.06Z"/>
        <path class="cls-110" d="M34.78,20.45c-.15-2.15,1.45-1.39,2.36.11,1.98,1.69,4.4,2.98,6.92,3.64.18,3.56,11.91,4.66,13.98,2.42-.04-1.55,1.58-1.58,2-.07.16.92-.52,1.61-2.05,2.08-.86,2.68-1.63,2.73-2.8.18-.91,1.63-1.65,1.86-2.07-.01-1.21,2.3-2.21,2.33-3,.1-.25.88-.59.88-1,.03-2.28,1.48-3.42.65-4.07-1.86l-2.6.62s-1.7-.75-5.09-2.25c-1.28.84-3.54.6-2.24-1.11-3.79,1.22-4.2-3.96-.34-3.87Z"/>
        <path class="cls-75" d="M32.9,15.6c1.37-.39,2.73-.16,3.97.59l.23,3.42.04.95-2.36-.11c-1.38,1.56-2.03.97-.99-.91-2.96.16-3.15-2.29-.89-3.94Z"/>
        <path class="cls-62" d="M47.29,4.89c-.17,1.36.6,2.84-.38,4.16-.83-1.68-1.4-2.63-2.6-2.96-.46-.12-.77-.7-1.13-.98l4.11-.22Z"/>
        <path class="cls-49" d="M41.62,15.18c-.88-.16-.86-.5-.03-1-.02-.33-.02-.67-.03-1,1.45.35,1.03,2.36,1.17,4.21.57,1.91-1.69,2.75-1.94.68,1.26-.18.79-1.97.84-2.89Z"/>
        <path class="cls-34" d="M36.87,16.19c.4.83.83,1.47,1.4,2.14.6.71-.31,1.26-1.17,1.28-.66-1.04-1.54-1.81-2.52-2.86l2.29-.56Z"/>
        <path class="cls-62" d="M48.58,13.94c-2.1-.31-2.95-2.62-4.36-3.98,1.28.48,3.5-.73,4.11.57.49,1.05.19,2.44.25,3.4Z"/>
        <path class="cls-43" d="M60.95,22.31c2.42.4,4.03,1.44,4.85,3.12.08,1.77,2.86,1.11,2.4,3.24l-1.59-.44c-.36-.1-.61.8-.62,1.15-.02.57.5,1.79-.41,1.9-1.45-2.75-3.37-4.44-5.39-3.3-1.14,2.1-1.88,2.31-2.21.63.73-.65,1.43-1.32,2.05-2.08.37-.53-.32-1.19-2.07-2-.47,0-1.05.42-2.09-.29,1.45-1.3,3.23-1.97,5.07-1.95Z"/>
        <path class="cls-94" d="M49.6,42.92c-1.73-.15-1.48-1.79.24-1.93,1.28-1.58,2.87-1.3,4.78.84,1.38-2.12,2.82-2.94,4.33-2.49-.99-3.32.26-9.98,4.18-6.05-.38,2.07-.64,4.17-.71,6.28-.3.66-.44,1.43-.79,2.07-2.43.67-1.66,3.39-2.1,5.12-1.09,1.87-3.13,3.45-3.73,5.66-.38,1.14-2,1.34-4.86.59-2.51.87-2.75.82-2-1.97-.49-2.86-.27-5.56.66-8.11Z"/>
        <path class="cls-11" d="M55.18,28.8c.92-.1,1.9.03,2.8-.18.68-.16,1.6-.29,2.21-.63-.18.97-1.54,2.89.16,3.26l2.14.46c.78.17.81.67.64,1.58-4.12-.91-.17,1.93-4.18,6.05-7.17,2.75-8.85-6.79-3.77-10.54Z"/>
        <path class="cls-99" d="M63.89,22.41c1.31.39,2.12,1.59,1.92,3.02-1.37-1.44-3.66-1.46-4.85-3.12.98.01,1.96.15,2.94.09Z"/>
        <path class="cls-107" d="M38.05,54.31c-1.55-2.35-.92-4.12.91-6.11-2.55-.78-2.2-2.22-.37-3.89.42-.63.8-1.11,1.04-1.05,2.77.71,5.16,3.37,2.41,5.65.47,2.43,0,4.08-1.39,4.95.96,4.19,3.12,5.6,5.29,1.29-2.33-1.44-3.16-7.36-1.16-9.29.09-.84.38-.8.83,0,1.45-1.63,2.15-1.59,2.1.12,1.21,1.09,1.62,2.78,1.23,5.05,1.53,2.06,4.56,1.47,6.86,1.38,1.17-.04,2.35.37,3.17,1.18l-3.06,1.5c-.37,2.15-1.19,1.91-.9-.36-1.96-.57-4.18-.92-6.03.21,5.89,4.8-4.51,12.36-8.55,6.38-.86-1.81-2.96-2.99-3.39-5.05-1.94-1.89-1.72-2.28,1-1.97Z"/>
        <path class="cls-84" d="M58.97,53.6c.8.15,1.82-.63,3.19.5-1.74.85-3.68.37-5.47,1.01-.13.92-.39.89-.78,0,.28-1.44,1.78-1.74,3.06-1.5Z"/>
        <path class="cls-37" d="M20.81,20.91c-1.02-2.26-.17-2.9,1.86-4.07.19-1.05,1.23-1.42,3.13-1.09,2.36-1.02,5.09-1.69,7.1-.15.59,1.19.45,2.7.89,3.94.53,3.53-3.68,4.12-4.91.87-2.64-1.57-3.73-1.5-3.26.21,2.24,1.98,1.38,2.89-1.44,3.23l-3.29-.94c-2.06.09-1.43-.74-.07-2Z"/>
        <path class="cls-68" d="M57.97,24.55c1.93-.03,4.08-.61,5.13,1.73-1.5.83-2.33.16-3.06.27l-2,.07-.03-1-.03-1.07Z"/>
        <path class="cls-76" d="M30.23,32.59c.46-.96,1.39-1.21,2.8-.77,1-2.87,2.47-4.66,4.41-5.38-.89-.22-.91-.56-.08-1.01,1.24-.33,2.43-1.53,3.86-1.11,1.46.43,2.37,2.07,3.83,2.74l.16,1.27c-3.7-.19-2.39,0,3.91.59l1-.03c2.19.63,1.64,2.62-1.66,5.95l-.38,2.23c.88.19.85.47,0,.84.86.97.44,1.53-.72.87-.95,2.43-1.92,1.95-1.74-.68-1.87.46-3.65,1.51-5.34,3.14-.51,1.92-3.41,1.86-4.98,1.06l-1.7,1.61c-1.69-1.91-4.53-9.15-3.36-11.32Z"/>
        <path class="cls-98" d="M19.22,34.98c-.13-2.58,1.53-3.62,3.93-3.04.51-.72,1.57-1.12,3.19-1.18-1.62-1.29-.29-3.08,1.52-3-.21-.93.26-1.61,1.17-2.13-2.66-.3-2.55-1.25-.02-2.06,1.89-1.38,4.51-.91,6.11.76.52.44,1.47,1.32,2.24,1.11l.08,1.01-2.22,1.06c-.76,3.22-2.42,4.91-4.99,5.09-.48,1.87-1.13,1.1-2.13-.26-1.01,1.96-.6,4.08,1.23,6.38l-.38,2.24c-2.43.85-4.31,1.73-5.62,2.64-1.59,2.33-2.83,1.46-3.7-2.62-1.13-.28-3.25-3.61-2.9-4.41.39-.91,1.48-1.32,2.49-1.58Z"/>
        <path class="cls-122" d="M28.88,20.42c1.69.16,3.49.16,4.91-.87.11.32.66.83.99.91-.77,1.27-.84,2.86.34,3.87-1.45.24-2.78.97-3.63,2.2-.79-1.7-1.23-2.84-2.48-2.96-2.74-.81-2.77-2.08-.13-3.15Z"/>
        <path class="cls-88" d="M45.04,27.07l4.07,1.86c-1.13,1.33-2.53,2.76-4.99,1.91.27-.55.82-.74,1.38-.93,1.75-.61-.11-1-3.17-1.01.33-1.19,2.1-.73,2.71-1.83Z"/>
        <path class="cls-81" d="M38.05,54.31c-.53.29-.47,1.59-1,1.97-1.6.05-3.41-.89-5.01-.58l.04-1.32c-1.16-4.15,6.75-4.07,5.97-.07Z"/>
        <path class="cls-51" d="M53.11,28.79c.69-.02,1.39.08,2.07.01-1.12,2.49-2.13,6.73.33,8.87.93.81,4.38-.25,3.44,1.67-1.22,1.26-1.75,4.43-4.42,4.46-1.85.02-2.96-2.68-4.69-2.81-1.13.53-1.73-.5-1.78-3.08v-.84c-.21-1.55.75-3.37,2.88-5.48.37-1.71,1.1-2.64,2.17-2.8Z"/>
        <path class="cls-81" d="M47.34,38.78c-.1-.43.08-1.23.72-.87,1.4.32,1.34,2.27,1.78,3.08l-.24,1.93c-.19,2.21-.82,3.23-1.89,3.07l-2.1-.12c-1.82-1.67-.48-6.27,1.74-7.08Z"/>
        <path class="cls-18" d="M47.7,45.99c.19-1.09,1.48-2.07,1.89-3.07-.34,2.72,1.18,5.92-.66,8.11-.97-1.31-1.52-3.42-1.23-5.05Z"/>
        <path class="cls-114" d="M27.68,45.69c.23-.51.57-.48,1-.03-1.1-1.22-.83-2.02.98-2.07-3.04-1.54-2.18-3.8.59-4.87,1.74.97,3.22,4.04,3.4,5.89,1.47-1.83,2.78.51.96,1.84.98.97,2.43,1.56,4.35,1.76-.54,2.12,1.42,4.86-.91,6.11-1.21.01-2.02-.9-3.19-1.95-.98,1.08-1.65,1.99-2.78,2.02-.41-.88-1.37-1.13-2.15-1.56l-1.53-3.06c-3.1-1.85-3.34-3.21-.72-4.07Z"/>
        <path class="cls-81" d="M35.28,42.31c1.69-1.48,3.1-1.57,4.98-1.06,2.14.73,5.21,1.98,4.51,4.61,1.18,3.09,1.69,6.11,1.16,9.29-.79,2.9-5.44,1.55-5.29-1.29-.67-2.8-1.86-6.46,2.05-8.19-1.35-.82-2.74-.81-4.1-1.35-.32,2.58-.89,2.49-1.9.1-1.5,1-1.96.37-1.51-1.34-1.33-.48-1.3-.73.1-.77Z"/>
        <path class="cls-92" d="M40.26,41.24c1.71-1.72,3.48-2.77,5.34-3.14.28.43,1.38.26,1.74.68.58,2.55-.26,4.98-1.74,7.08-.25-.01-.62.09-.83,0-1.5-.75-5.35-2.45-4.51-4.61Z"/>
        <path class="cls-70" d="M40.64,53.86l5.29,1.29c-.22,1.33,2.42,2.87-.49,4.13-1.52.66-2.93,1.04-4.7-.77-.74-.76-1.55-1.55-1.55-2.7,0-.67.78-1.43,1.45-1.95Z"/>
        <path class="cls-67" d="M34.61,46.44c.15-1.97.85-2.65,2.08-2.03.58.1,1.35-.31,1.9-.1.56,1.37.71,2.59.37,3.89-1.64.82-2.5,2.6-4.65,3.27-.9-2.05-.21-3.62.3-5.03Z"/>
        <path class="cls-18" d="M55.01,54.74l-6.03.21c.56-2.11,4.84-1.49,6.03-.21Z"/>
        <path class="cls-42" d="M23.02,26.65c-.57-1.23-.19-2.16,1.15-2.79.49-1.05.83-2.23,1.44-3.23.14-1.89,2.45-1.83,3.26-.21,0,1.06.11,2.11.13,3.15l.02,2.06c-.03,1.14-1.02,1.54-2.01,1.07-.73,1.41-.96,2.76-.68,4.06-.77,1.42-.81,1.27-3.19,1.18-2.79-.14-3.24-1.62-1.08-3.36-2.61-1.22-1.6-1.8.95-1.93Z"/>
        <path class="cls-48" d="M28.88,20.42l-3.26.21c-.18-.04-1.86-.66-1.39-1.2.09-.1,2.96-2.56,4.02-.77.25.43.64,1.12.64,1.76Z"/>
        <path class="cls-11" d="M50.11,28.89l3-.1c-.72,3.27-3.35,5.5-5.04,8.28-.47-.28-.92-.55-1.66-1.43,1.01-1.19,6.02-5.91,3.7-6.75Z"/>
        <path class="cls-46" d="M28.1,32.33c.92-.22,1.16-.13,2.13.26.95,3.78,1.63,9.5,5.06,9.72-.58.29-.59.32-.1.77.42,1.37,0,2.08-1.53,1.53-.27.55.37,1.57-.92,1.97.27-3.81-1.68-5.47-2.48-7.86-1.68-.47-5.25-4.66-2.15-6.39Z"/>
        <path class="cls-93" d="M37.43,26.44c-2.97,2.86-3.16,7.79-7.21,6.15-.24-.95-.29-2.37.42-3.05.9.69,1.56,1.95,2.04,1.85.98-.19.77-4.33,2.04-4.85,1-.4,1.93-.19,2.71-.11Z"/>
        <path class="cls-97" d="M45.6,38.1c-1.43.97-3.3,3.69-5.34,3.14.76-1.95,3.86-5.38,5.34-3.14Z"/>
        <path class="cls-77" d="M28.1,32.33l2.15,6.39c-1.21,1.47.24,3.27-.59,4.87-1.1.29-2.1.67-3.01,1.14-1.53,1.65-2.69,1.01-3.31-1.13-.13-.49-.87-.83-.43-1.23,1.42-1.28,3.23-3.52,3.03-3.4.38-.23,1.31,1.65,1.67,1.38,2.01-1.58.2-2.55-1.6-3.71-2.01-1.3-1.8,1.22-4.13,3.19-.31-3.87,2.9-6.69,6.24-7.48Z"/>
        <path class="cls-117" d="M19.05,29.87c-2.34-.15-2.2-1.12.04-1.76.47-1.46,2.69-1,2.98.47.52,1.06.83,2.21,1.08,3.36-.66,1.66-2.3,2.5-3.93,3.04-.19-1.45-.85-3.5-.17-5.11Z"/>
        <path class="cls-117" d="M27.02,26.7c1.37-.52,1.76,0,.84,1.06-.46.96-1,2.05-1.52,3-.71-.21-1.56-.1-2.57-.98.58-1.87,2.01-2.41,3.24-3.08Z"/>
        <path class="cls-44" d="M29.03,25.63c0,.43,1.05,1.4.74,1.5l-1.91.63c-.64.34-.66-.68-.84-1.06.49-.64,1.23-.98,2.01-1.07Z"/>
        <path class="cls-64" d="M24.72,46.79c-1.23-2.3,1.3-1.96,2.96-1.1-.24.54-.74.97-.89,1.87,2.87.79,3.58,3,3.14,5.26-1.3-.73-1.98-2.19-3.11-3.1-.98-.79-2.07-1.52-2.1-2.93Z"/>
        <path class="cls-58" d="M23.33,43.59c1.11.2,2.06,1.26,3.31,1.13.73-1.8,2.65-.96,2.03.93-.32.02-.68.04-1,.03-1.11-.03-2.25.19-2.96,1.1-.34.11-.84-.14-1.16.03-.14-1.05.05-2.2-.22-3.23Z"/>
        <path class="cls-40" d="M29.66,43.58c-.34.66.31,1.98-.98,2.07-.34-.77-1.25-1.01-2.03-.93-.26-1-.17-2.37,1.31-1.98.49.13,1.12.57,1.7.84Z"/>
        <path class="cls-76" d="M35.18,43.08c.22.73.75,1.2,1.51,1.34-.15,1.09-1.11,1.7-2.08,2.03.14-.39.12-1,.06-1.46-.04-.34-.65-.79-1.02-.38.37-.58.57-2.16,1.53-1.53Z"/>
      </g>
      <path class="cls-19" d="M9.61,14.14c.03,1.31.12,2.61,1.16,3.92-1.23.51-1.62-.13-2-.52-.02-.86-.79-1.7-.94-2.76-.11-.73,1.42-.34,1.79-.65Z"/>
      <path class="cls-36" d="M19.95,24.94c1.45-.16,2.7-1.27,4.22-1.09.02.39.43.95.3,1.39-.22.73-1.17.84-1.45,1.4-1.3,1.54-4.8.63-6.03-.6-1.31-1.68,1.6-1.99,2.96-1.1Z"/>
      <path class="cls-112" d="M16.99,26.05c2.03-.12,4.01.43,6.03.6l-.95,1.93c-.96-.21-2.04-.13-2.98-.47-1.38,1.82-2.8,1.32-3.06-.84-2.26-1.86-1.45-2.73.96-1.22Z"/>
      <path class="cls-118" d="M15.92,24.08l4-.14.03,1c-1.11.12-2.45-.14-2.96,1.1-.58.03-1.27.43-.96,1.22-.69-1.12-2.06-1.78-3.17-2.67,1.32-.87,2.24-.37,3.05-.51Z"/>
      <path class="cls-72" d="M4.82,27.65c.37-.15.86-.05,1.22-.24,1.34-.39,1.66.61.95,2.99,4.46,1.69-.23,4.67-3.63,3.15-.54-.75-1.58-1.13-2.16-1.85l.29-1.45c1.24-.61,2.37.26,3.41,1.33l-.07-3.94Z"/>
      <path class="cls-71" d="M13.92,20.86c.43.33.72.8,1.09,1.18-.91.72-1.99,1.03-3.07,1.38-.07-1.36-1.39-2.19-1.1-4.24,1.32.63,2.03,1.42,3.09,1.68Z"/>
      <path class="cls-71" d="M13.52,15.01c.49,1.72,1.91,3.65.35,5.08-.36-1.62-1.1-3.15-2.28-4.47.93-.83,1.46-.91,1.93-.61Z"/>
      <path class="cls-111" d="M3.35,33.55c-.21-.61.19-.83.54-.91.82-.2,1.44.32,2.54.33.87,0,.45-1.89.55-2.57-1.12-2.66.64-3.84,2.29-1.33,2.21-.57,3.07-.31,1.89,1.96.8.85,1.44,1.95,1.93,3.29.12,1.8,0,3.6,1.32,4.87.94-.71,2.54-.22,3.07.84-.05.32.02.68.03,1,1.04.36,1.08.69.04,1.13.58,2.93-2.94,2.65-4.95,1.3-.22-.73-.81-1.33-.94-2.11-.99-1.37-1.76-3.11-2.29-5.19-1.86.82-3.2.53-4.01-.88-.26.09-.68-.12-.97-.06-.21-.45-.75-1.25-1.05-1.67Z"/>
      <path class="cls-113" d="M10.93,28.22c.84.02,2.65-1.6,3.25.06.49,1.35-1.45,1.95-2.09,2.52.01.91-.3.96-.92.23-.58-.63-1.51-1.16-1.89-1.96-.44-1.97.3-2.35,1.66-.85Z"/>
      <path class="cls-23" d="M11.16,31.03l.92-.23c.6,1.48,2.39,1.57,3.47,3.3-1.02,1.03-1.73.18-2.46.23-.78-.28-1.77-.41-2.36-1.06-.56-.61.09-1.59.43-2.24Z"/>
      <path class="cls-87" d="M16.03,27.27c1.11-.06,2.06.48,3.06.84-.15.55.18,1.24-.04,1.76-1.08.89-2.2,1.63-3.27.19-.61-.83-.11-1.93.25-2.79Z"/>
      <path class="cls-118" d="M10.93,28.22c-.57.24-1.13.53-1.66.85-1.88-.65-2.84-.98-1.27-2.71.69-.37,1.37-1.41,1.96-.62.51.68.62,1.89.97,2.48Z"/>
      <path class="cls-38" d="M6.03,27.41l1.96-1.05c.69.77.84,1.82,1.27,2.71-.52-.09-1.33-.65-1.73-.47-.73.33-.49,1.36-.55,1.8-.94-.69-1.01-1.91-.95-2.99Z"/>
      <path class="cls-79" d="M17.51,41.04c.72.15,1.43.39,2.09.72.28.68.77,1.28.9,2.06.15.92-1.14,1.19-1.95,1.17-2.61.05-2.58-.89-1-2.83l-.04-1.13Z"/>
      <path class="cls-103" d="M17.48,40.04c-1.33.32-2.19,0-3.07-.84-.15-1.14.78-1.04,1.51-1.15,1.49-.24,1.75.8,1.56,2Z"/>
      <path class="cls-9" d="M17.55,42.17c.58.84.89,1.82,1,2.83-.22.21-.3,1.11.06,1.16-.25.32-.52.63-.81.91-1.4.28-2.45-.36-3.36-1.05-.39-.91-1.53-1.54-1.84-2.55,1.74-.03,3.32-.78,4.95-1.3Z"/>
      <path class="cls-6" d="M11.66,41.35l-2.24-.12c-.92-2.24-3.28-3.62-4.05-5.95l4.41-1.54c2.33,1.86,3.32,5.2,1.88,7.61Z"/>
    </g>
  </g>
</svg>