<?xml version="1.0" encoding="UTF-8"?>
<svg id="Enemy" xmlns="http://www.w3.org/2000/svg" viewBox="0 0 69.22 134.32">
  <defs>
    <style>
      .cls-1 {
        fill: #312d28;
      }

      .cls-2 {
        fill: #625f5f;
      }

      .cls-3 {
        fill: #ca9282;
      }

      .cls-4 {
        fill: #585858;
      }

      .cls-5 {
        fill: #22190e;
      }

      .cls-6 {
        fill: #480c0d;
      }

      .cls-7 {
        fill: #451010;
      }

      .cls-8 {
        fill: #313131;
      }

      .cls-9 {
        fill: #b78787;
      }

      .cls-10 {
        fill: #434343;
      }

      .cls-11 {
        fill: #2e2b1f;
      }

      .cls-12 {
        fill: #680f0d;
      }

      .cls-13 {
        fill: #373637;
      }

      .cls-14 {
        fill: #7b0b09;
      }

      .cls-15 {
        fill: #141213;
      }

      .cls-16 {
        fill: #363532;
      }

      .cls-17 {
        fill: #5a1a1e;
      }

      .cls-18 {
        fill: #2d2b25;
      }

      .cls-19 {
        fill: #6d1617;
      }

      .cls-20 {
        fill: #3b3120;
      }

      .cls-21 {
        fill: #d8b095;
      }

      .cls-22 {
        fill: #53504f;
      }

      .cls-23 {
        fill: #921c1d;
      }

      .cls-24 {
        fill: #4a4a4a;
      }

      .cls-25 {
        fill: #292220;
      }

      .cls-26 {
        fill: #121212;
      }

      .cls-27 {
        fill: #1d140f;
      }

      .cls-28 {
        fill: #0e0b04;
      }

      .cls-29 {
        fill: #807562;
      }

      .cls-30 {
        fill: #1e1f1d;
      }

      .cls-31 {
        fill: #594d2e;
      }

      .cls-32 {
        fill: #494949;
      }

      .cls-33 {
        fill: #322918;
      }

      .cls-34 {
        fill: #4f4f4e;
      }

      .cls-35 {
        fill: #494848;
      }

      .cls-36 {
        fill: #e3b9a3;
      }

      .cls-37 {
        fill: #390c0b;
      }

      .cls-38 {
        fill: #a42722;
      }

      .cls-39 {
        fill: #383838;
      }

      .cls-40 {
        fill: #130b08;
      }

      .cls-41 {
        fill: #40161b;
      }

      .cls-42 {
        fill: #30241f;
      }

      .cls-43 {
        fill: #292721;
      }

      .cls-44 {
        fill: #433936;
      }

      .cls-45 {
        fill: #d6c2c9;
      }

      .cls-46 {
        fill: #403634;
      }

      .cls-47 {
        fill: #1e1e1d;
      }

      .cls-48 {
        fill: #4b0910;
      }

      .cls-49 {
        fill: #b3b0b0;
      }

      .cls-50 {
        fill: #606060;
      }

      .cls-51 {
        fill: #39322a;
      }

      .cls-52 {
        fill: #3b3b3a;
      }

      .cls-53 {
        fill: #1c1c1c;
      }

      .cls-54 {
        fill: #231c17;
      }

      .cls-55 {
        fill: #2a2516;
      }

      .cls-56 {
        fill: #422118;
      }

      .cls-57 {
        fill: #3c3d3c;
      }

      .cls-58 {
        fill: #211416;
      }

      .cls-59 {
        fill: #404040;
      }

      .cls-60 {
        fill: #614f2b;
      }

      .cls-61 {
        fill: #2d2623;
      }

      .cls-62 {
        fill: #2e2922;
      }

      .cls-63 {
        fill: #4a4329;
      }

      .cls-64 {
        fill: #130e0c;
      }

      .cls-65 {
        fill: #1f1f1f;
      }

      .cls-66 {
        fill: #2e2822;
      }

      .cls-67 {
        fill: #39342f;
      }

      .cls-68 {
        fill: #5a4a46;
      }

      .cls-69 {
        fill: #636363;
      }

      .cls-70 {
        fill: #1a1816;
      }

      .cls-71 {
        fill: #b14647;
      }

      .cls-72 {
        fill: #b53330;
      }

      .cls-73 {
        fill: #6b6141;
      }

      .cls-74 {
        fill: #1a1314;
      }

      .cls-75 {
        fill: #321c1c;
      }

      .cls-76 {
        fill: #25211b;
      }

      .cls-77 {
        fill: #302825;
      }

      .cls-78 {
        fill: #555;
      }

      .cls-79 {
        fill: #300000;
      }

      .cls-80 {
        fill: #2f3334;
      }

      .cls-81 {
        fill: #1d1914;
      }

      .cls-82 {
        fill: #616161;
      }

      .cls-83 {
        fill: #333;
      }

      .cls-84 {
        fill: #020100;
      }

      .cls-85 {
        fill: #4b4a4a;
      }

      .cls-86 {
        fill: #272829;
      }

      .cls-87 {
        fill: #ab2821;
      }

      .cls-88 {
        fill: #1b1a11;
      }

      .cls-89 {
        fill: #23221e;
      }

      .cls-90 {
        fill: #b6988f;
      }

      .cls-91 {
        fill: #725f34;
      }

      .cls-92 {
        fill: #e8b493;
      }

      .cls-93 {
        fill: #38312c;
      }

      .cls-94 {
        fill: #232017;
      }

      .cls-95 {
        fill: #938081;
      }

      .cls-96 {
        fill: #27201a;
      }

      .cls-97 {
        fill: #fcd6b7;
      }

      .cls-98 {
        fill: #281a16;
      }

      .cls-99 {
        fill: #4b4b48;
      }

      .cls-100 {
        fill: #584c3e;
      }

      .cls-101 {
        fill: #292929;
      }

      .cls-102 {
        fill: #efc1ae;
      }

      .cls-103 {
        fill: #b03431;
      }

      .cls-104 {
        fill: #5d5d5d;
      }

      .cls-105 {
        fill: #3d3d3d;
      }

      .cls-106 {
        fill: #7e6f4d;
      }

      .cls-107 {
        fill: #151411;
      }

      .cls-108 {
        fill: #131010;
      }

      .cls-109 {
        fill: #150000;
      }

      .cls-110 {
        fill: #3a1b17;
      }

      .cls-111 {
        fill: #6a0a0a;
      }

      .cls-112 {
        fill: #fee9d5;
      }

      .cls-113 {
        fill: #6a0400;
      }

      .cls-114 {
        fill: #241f1c;
      }

      .cls-115 {
        fill: #332e27;
      }

      .cls-116 {
        fill: #313027;
      }

      .cls-117 {
        fill: #322a1f;
      }

      .cls-118 {
        fill: #82201e;
      }

      .cls-119 {
        fill: #161616;
      }

      .cls-120 {
        fill: #2e2e2e;
      }

      .cls-121 {
        fill: #15100c;
      }

      .cls-122 {
        fill: #24140c;
      }
    </style>
  </defs>
  <g id="MaskedMayhem">
    <g>
      <path class="cls-45" d="M44.17.06c.85.01,1.51.31,2,1-1.3.75-2.92.91-4.85.46l-.81-.11c-.6-1.34.26-1.47,1.2-1.39s1.71.03,2.47.04Z"/>
      <path class="cls-41" d="M46.17,1.06c.25.35.89.42,1.09.86-.51-.06-1.17.68-1.67.52-1.39-.44-3.15.14-4.27-.92,1.58-.45,3.22-.57,4.85-.46Z"/>
    </g>
    <g>
      <path class="cls-108" d="M50.91,116.01c1.73-2.5,2.08-1.73,2.05,1.01,1.67-1.54,5.03-.76,4.21,2.03.89.43.58,1.44,1,2-.77,2.66-8.99.16-11,.92-3.43,2.39-3.95-3.55-1-1.92.2-.95-.47-1.61-2-2-.93-1.34-.45-1.85,1-1-.61-1.23.08-1.6,2.07-1.13-1.74-1.87-1.71-1.94.85-1.93,1.66-1.1,2.6-.42,2.82,2.02Z"/>
      <path class="cls-66" d="M45.17,117.05c-.64-.03-1.14.31-1,1,1.95.35,2.61,1.02,2,2-.58-.12-.94.21-1.01.57-.13.62.06,1.37.54,1.44s1-.02,1.48-.09c-.84.63-1.67,1.58-2.95,1.33-1.04-.2-1.49-.44-2.09-1.25.13-1.13.48-2.13,1.04-3-1.49-.68-1.5-2.34,0-3,1.02-1.37,2.67-.65,2,1Z"/>
      <path class="cls-121" d="M44.27,112.1c1.69,1.98,1.48,2.34-1.1,1.96,1.5.92,1.83,1.57,0,2,.03.98-.16,2.04,0,3,.24,2.1-1.31,2.16-1.9.11-.14-1.71-.07-3.47-.21-5.17.14-.89.46-1.52.97-1.89,1.01-2.42,1.4-2.66,2.24,0Z"/>
      <path class="cls-61" d="M43.17,119.05c.1.64.79,1.24.91,1.73.34,1.35-.95,1.51-1.95,1.27-.67-.91-.77-1.76-.86-2.89l1.9-.11Z"/>
      <path class="cls-25" d="M1.17,122.05c.83.33.83.67,0,1,1.1,4.46,1.55,4.81,1.34,1.05l1.71-1.88c.79.94,2.13,1.56,4.01,1.86,2.6,1.22,2.61,3.88.02,5.12-.26,1.09-2.21.45-2.21.31,0-.26,2.02-.32,2.11.82.22-.87.5-.85.84.02-.28.95.05,2.32-.33,3.02-.77,1.4-2.97.84-4.43.83-2.65-.01-3.89-1.51-4.23-3.51l.22-8.63c.21-.88.53-.86.95,0Z"/>
      <path class="cls-26" d="M43.22,104.97c2.94-.62,1.18,6.63-1.19,7.13-.02.76-.19,1.56-.97,1.89l-1.05-13.13c-.2-2.52,1.4-6.5,3.1-7.93l1.8,3.36c-.48,3.02-1.04,5.91-1.69,8.68Z"/>
      <path class="cls-63" d="M16.04,113.25l.1.84c-1.93,1.93-3.01,4.49-3.9,7.01-.63.99-2.87,1.96-3.99,1.78-4.25-1.55-2.16-4.84,1.33-6.5,2.63-5,4.79-6.05,6.46-3.14Z"/>
      <path class="cls-33" d="M53.19,100.12c.23-.86.56-.85.97-.03,1.98-.3,1.32.82.03,2-1.34,4.61-3.49,9.07-3.28,13.92-1.08-.53-2.19-.89-2.82-2.02-2.59-1.46-1.17-5.87,1.19-6.87-.73-.53-1.13-1.21-1.11-2.07l-.82-1.09c1.56-1.3,2.48-2.57,2.78-3.83-4.46-2.07,2-4.79,3.06,0Z"/>
      <path class="cls-31" d="M49.28,107.13c-.1,2.34-.74,4.59-1.19,6.87-.15.77-.38,1.32-.85,1.93-1.44.63-3.69-.46-4.07-1.87.25-.61.65-1.47,1.1-1.96-1-1.45-.24-3.81,1.31-4.61.91-1.22,2.87-1.89,3.7-.36Z"/>
      <path class="cls-61" d="M46.17,120.05c-.37-1-2.03-.74-2-2,4.54-.58,8.76.88,13.06,2.55-6.18,2.17-6.3-3.52-11.06-.55Z"/>
      <path class="cls-29" d="M47.24,115.93c-.52.67-1.13,1.18-2.07,1.13-.32-.81-1.2-1.02-2-1-.02-.57-.22-1.48,0-2,1.38.59,2.91.88,4.07,1.87Z"/>
      <path class="cls-5" d="M46.39,103c1.94-.09,1.54,1.55.03,2.38,1.61.95.84,1.78-.85,2.1.14,1.69-.15,3.35-1.31,4.61h-2.24c.07-2.26,2.32-4.91,1.19-7.13-1.21-3.77,2.56-6.52,3.17-1.97Z"/>
      <path class="cls-55" d="M10.98,103.09c1.15-2.34,3.58-2.43,7.27-.27.9,1.31,1.57,2.66-.08,3.23.48.25.44.59,0,1-1.71,1.38-2.65-.18-2-2-4.3.3-6.94,3.14-7.91,8.54l-.9.59c2.47,1.46.61,3.36-1.17,4.8-.23,1.22.45,2.52,2.05,3.9.04.37.04.83-.01,1.2-1.9.18-3.82.22-5.72.02-.64.59-1.09.24-1.34-1.05-.02-.33-.04-.68,0-1,.18-1.34-.18-2.84.1-4.17-1.06-4.14-.94-16.64,4.79-14.74,1.43-.79,3.07-.81,4.92-.04Z"/>
      <path class="cls-15" d="M2.51,124.11c1.35,2.57.77,5.56-1.04,8.05-.7-3.58-.12-6.27-.3-9.1.37.36,1.09.57,1.34,1.05Z"/>
      <path class="cls-74" d="M8.26,129.21c.05.36-.13.76-.11,1.12-1.18.66-2.77,1.02-3.96.3,1.46-1.06.52-2.11,1.03-2.41.96-.57,2.69.32,3.04.98Z"/>
      <path class="cls-85" d="M33.49,72.06c1.56,1.29,1.28,5.91-.28,7.8,2.9,2.48,1.07,4.6-1.29,6.75h-.88c-.64,1.7-1.43,1.5-1.62-.32l-2.59,1.63c-2.59,4.5-7.89.29-2.81-3.07-1.48-3-.3-5.57,3.55-7.7-.07-5.1,1.51-7.47,4.72-7.13,2.55-1.56,3.14-.35,1.2,2.04Z"/>
      <path class="cls-10" d="M50.24,87.98c1.09,1.1.44,2.76-1.96,4.96l1.32.61c-.29.79-.44,1.63-.44,2.5,1.03-1.2,2.7-1.53,3.32.08.18,1.87-.63,2.45-2.1,1.44-3.21,3.22-7.29-.24-7.27-4.65l2.31-5.76c.4-1.31,1.13-1.25,2.18.17l2.64.64Z"/>
      <path class="cls-53" d="M38.14,78.18c1.63.22,2.95,1.44,3.97,3.66,4,.42,6.34,2.11,7.01,5.05,2.8-1.38,3.77-.66,1.12,1.09-.97.85-3.51-.14-4.82-.81-1.94-1-2.8-3.27-5.43-2.27-.26-2.64-3.3-3.5-4-5.96-.89-1.74-.21-2.18,1.24-.85.28-.86.58-.81.91.08Z"/>
      <path class="cls-8" d="M30.08,90.32c-.25,1.02-.42,2.81-.78,3.82-1.56,1.24-2.66,2.96-3.29,4.84l-1.04.04c-1.31,1.12-1.81.59-.87-.85-2.68-.69-2.44-1.25.07-2.18-.18-1.97,2.47-5,4.36-5.7.22-1.93,1-1.89,1.55.01Z"/>
      <path class="cls-39" d="M31.03,86.63c.56,1.47.03,2.7-.94,3.7h-1.55c-1.76.56-1.92-.16-.27-1.1-.9-.08-.91-.43-.14-1.02-.71-1.3-.23-2.34,1.28-1.91.56-.02,1.15,0,1.62.33Z"/>
      <path class="cls-91" d="M15,107.05c1.93,0,2.03,1.42,1.2,2.96,1.86-.11,1.38,1.21-.03,2.04l-.14,1.2c-4.55-.34-2.51,5.17-8.51,6.29,0,1.37.6,2.3.73,3.35-.94-.15-3.45.11-3.72-.89-.91-3.42,1.93-5.59,2.84-7.81,1.56-2.35,2.92-4.9,4.1-7.66,1.41-1.3,3.81-1.55,3.53.52Z"/>
      <path class="cls-86" d="M24.11,98.18c.42-.02.8.48.87.85-.58,1.91-5.56,3.68-4.62,6.03-1.53,1.14-2.17-.98-1.17-2.27-1.7-1.12-1.01-2.55,2.07-4.3.71-1.56,2.48-2.34,2.86-.3Z"/>
      <path class="cls-20" d="M20.17,107.05c-1.24,1.85-1.32,5.1-4,5l.03-2.04c-.52-1.84-.02-3.18,1.97-2.96.1-.29,0-.69,0-1,.52-1.76,1.97-.53,2,1Z"/>
      <path class="cls-28" d="M20.35,105.05c.33.84.4,1.14-.18,2l-2-1c.03-1.08-.07-2.16.08-3.23-.56-2.1.3-2.26.94-.04-.27.98.57,1.62,1.17,2.27Z"/>
      <path class="cls-54" d="M52.49,96.14c2.11-.17,2.33.68.63,1.9,1.95-.6,1.44,1.17.07,2.08-1.09-.31-1.88-1.14-2.61-2.11-.72,1.01-.42,1.62-.45,2.11.47,1.76-2.29,3.69-3.73,2.87-.67-.46-1.52-.69-1.96-.13-.58.75-.87,1.45-1.22,2.1-2.88-3.28.54-8.97-.11-12.04,1.76,3.34,6.17,5.36,9.38,3.21Z"/>
      <path class="cls-100" d="M48.17,105.05c.44,1.61-1.16,1.97-1.75.33.25-.69-.17-1.65-.03-2.38,1.14-1.09,2.32-2.15,3.73-2.87.86-.03.89.83.87,1.48-.09,2.4-2.29.96-2.82,3.45Z"/>
      <path class="cls-73" d="M48.17,105.05c.35-.11,1.69-.1,1.89.44.16.42-.76,1.1-.78,1.63-1.26.02-2.58,1.21-3.7.36-.07-.83.51-1.45.85-2.1l1.75-.33Z"/>
      <path class="cls-16" d="M54.16,100.09c-.31-.05-.67.11-.97.03l-.07-2.08c-.18-2.15,1.3-3.86,3.1-1.98-.23,1.56-.74,3.06-2.06,4.04Z"/>
      <path class="cls-106" d="M16.17,105.05c1.42,1.61.92,2.46-1.17,1.99-3.25-3.07-4.82,8.68-7.63,7.14,1.07-2.6.85-6.28,3.24-8.8,1.28-1.35,4.12-.62,5.57-.34Z"/>
      <path class="cls-35" d="M19.03,99.07c.16,1.19-.1,2.44-.78,3.76-2.41.25-4.85.6-7.27.27-2.81,1.81-4.03-1.86-.91-2.98.33-1.75.94-2.11,1.82-1.06,4.15-2.95,6.53-2.95,7.14.02Z"/>
      <path class="cls-89" d="M10.07,100.11c.04,1.08-.24,2.36.91,2.98-.52.84-1.32,1.83-2.28,1.65-1.14-.22-2.2-.67-2.64-1.61.43-1.03.75-2.11,1.01-3.2,1.69-.61,1.93-2.88,3.28-3.82,1.55.45,1.45,1.78-.28,3.99Z"/>
      <path class="cls-60" d="M18.17,107.05c-.37,1.15-1.05,2.18-1.97,2.96-.81-.77-1.12-1.87-1.2-2.96.52-.58.88-1.27,1.17-1.99.82.23,1.31,1.55,2,2Z"/>
      <path class="cls-101" d="M37.05,69.85c1.32,1.69,1.37,4.03.14,7.03,1.86-.26,1.58.18.03,1.22l-1.24.85c-1,.02-2.03.22-2.78.92-2.08-2.28.07-5.03.28-7.8-.65-2.83.16-3.95,2.96-2.88.76-.35.95-.11.61.68Z"/>
      <path class="cls-59" d="M36.34,68.14c.84.27.87.62.1,1.03-1.16.77-2,1.88-2.96,2.88.06-.81-.88-1.43-1.2-2.04-.29-.53-.08-1.33-.26-1.9-1-.92.88-3.51,2.26-2.14,2.34-2.34,3.41.06,2.07,2.16Z"/>
      <path class="cls-4" d="M29.41,86.29c-.2.77-.63,1.45-1.28,1.91-.42-.12-.9-.29-1.3-.28.2-.64-.1-1.63.38-2.55s2.04-.26,2.2.92Z"/>
      <path class="cls-32" d="M55.27,90.06c.76.42.69.79-.15,1.11.09,3.19-.74,4.59-2.5,4.23-1.46-.34-1.96-.25-3.45.66-1.88.06-.76-1.97-.89-3.11,1.42-3.42,3.81-4.24,6.99-2.88Z"/>
      <path class="cls-69" d="M55.33,89.02c1.06.4,1.04.74-.05,1.04-2.82-.51-4.57,1.8-6.99,2.88-.22-1.9,1-3.39,1.96-4.96l1.06-.47c1.35.08,2.69.59,4.03,1.51Z"/>
      <path class="cls-78" d="M52.62,95.4c.81.26.74.5-.13.74-1.1-.13-2.21-.12-3.32-.08.25-.69.6-1.24,1.01-1.61.92-.84,2.25-.22,2.43.96Z"/>
      <path class="cls-10" d="M49.32,73.84c4.86-.48,1.86,9.53-1.97,8.61l-.37,1.18-4.87-1.8c-1.08-1.6-2.4-2.82-3.97-3.66l-.91-.08-.03-1.22c-2.11-3.38,1.16-3.75,4.26-2.41,1.98-1.76,3.8-2.47,5.45-2.15,2.19-1.45,2.79-1.09,2.41,1.52Z"/>
      <path class="cls-83" d="M47.35,82.46c2.41-2.77,5.5,1.09,2.89,3.42,1.01.63.64.97-1.11,1.02-.39.03-1.12-.09-1.64-.31-.35-.15.03-1.23-.43-1.66-1.5-1.4-3.4-2.04-4.94-3.08,1.96-.64,3.27.85,5.24.61Z"/>
      <path class="cls-104" d="M51.3,87.51l-1.06.47c1.37-1.26-.38-.88-1.12-1.09.32-.28.64-.97,1.11-1.02,3.68-8.56,10.85,3.29,1.06,1.63Z"/>
      <path class="cls-83" d="M42.11,81.84c-1.52-1.02-3.79-1.42-3.97-3.66.26-.25,1.38-1.53,2-1.01,1.5,1.28,1.65,3.23,1.98,4.67Z"/>
      <path class="cls-57" d="M24.18,96l-.07,2.18c-.95.05-1.92.11-2.86.3-.81,1.15-1.49,2.05-2.22.58-2.23-.93-4.81-.42-7.14-.02-1.68-.76-1.11-2.02,1.71-3.78.74-4.42,1.93-6.21,3.57-5.36.01,2.82.62,7.03,4.46,6.8.4-.02,1.15-.97,1.43-1.22.5-.46,1.06-.57,1.12.52Z"/>
      <path class="cls-80" d="M19.19,102.79c-.33-.56-.64-.53-.94.04.08-1.33-1.7-.34-2.98-1.79,1.01-1.11,2.55-1.26,3.76-1.97.63-.37,1.51-.44,2.22-.58-.22,1.62-1.46,2.82-2.07,4.3Z"/>
      <path class="cls-65" d="M55.12,91.17c.28,1.73,1.35,3.16,1.1,4.89l-3.1,1.98c-.02-.68-.23-1.35-.63-1.9.09-.23,0-.54.13-.74.92-1.45.73-3.63,2.5-4.23Z"/>
      <path class="cls-21" d="M65.09,48.09c-.1.79-.39.75-.83-.01-1.94.32-1.97-1.05-.08-4.12l.06-1.45c1.46.17,3.46-.5,4.29.92.74,1.26,1.12,3.55-.1,4.79-.73.74-2.56.22-3.35-.13Z"/>
      <path class="cls-105" d="M60.06,86.01c-1.4.32-1.34,2.09-1.99,3.06-.71,1.06-1.61,1.94-2.95,2.1.08-.35,0-.78.15-1.11.16-.35.32-.68.05-1.04-.24-1-.11-2.35.41-4.03.25-1.92.88-3.54,1.89-4.86-.45-1.36-.21-2.05.73-2.08,2.12,1.98,1.33,5.26,1.71,7.96Z"/>
      <path class="cls-120" d="M17.11,73.92l.06,15.99c-2.41,1.11-1.11,4.43-1.77,6.63-.42,1.38-4.45.64-3.51,2.51-.62.11-1.12,1.02-1.82,1.06-.04-1.34-.12-2.68.28-3.99,4.02-2.79,4.18-7.38,3.78-12.06-.38-4.39,1.69-8.75.17-13-2.42-1.79-2.47-2.79-.15-3.01,7.84-6.72,5.59.22,2.97,5.87Z"/>
      <g>
        <path class="cls-78" d="M32.02,68.12c2.67-.04,2.62.78.26,1.9l-2.66,3.89c1.29,3.64-1.31,6.2-4.45,7.08-.09,1.5,1.14,3.3.94,4.46-.24,1.36-2.22,1.03-3.11,2.59l3.83-.12c.62-.82,1.05-.73,1.3.28.04.34.12.68.14,1.02-1.14,2.89-6.21,8.23-8.93,4.88-.38-.47-1.32-10.76-1.29-12.02-1.56-2.33,4.49-15.54,5.49-16.1.37-.21,7.98.47,8.32.72.26.19.25.75.16,1.42Z"/>
        <path class="cls-85" d="M21.17,62.1c.38-.56.7-.49.97.15.52-1.87,1.34-1.85,1.81,0,1.71,1.83,5.37,2.93,7.3,1.59,1.79-1.27,4.63.01,3.02,2.13l-2.26,2.14c-2.2-.54-6.62-2.13-8.33.37-1.22,1.78-1.23,3.9-2.67,5.42-3.85,4.06-1.79,10.79-.12,15.75.32.94-1.06,2.5-.77,3.07,2.19,4.25,5.05-3.73,8.14-3.52.02.33.36.77.27,1.08-.69,2.36-1.85,4.99-4.36,5.7-5.4,4.49-9.47.06-7.01-6.09-.71-.09-1.28-.22-1.33-.46-.68-2.94-.36-11.7.15-14.87.04-.28.52-.48,1.12-.66.32-1.92,1.13-3.9,2.43-5.95-.65-1.74-1-3.3-1.07-4.67-.87-.29-.86-.64,0-1.03-.46-1.37.45-1.43,2.7-.17Z"/>
        <path class="cls-50" d="M22.59,82.04c-.71-1.43-.71-3.02-.04-5.05,1.05,1.07.93,2.43.04,5.05Z"/>
      </g>
      <path class="cls-24" d="M46.91,72.32c-1.48,1.92-3.78,4.77-6.6,4.01-.89-.24-1.56-.98-2.34-.8-.45.1-1.09.61-.78,1.35-.71-.19-1.6-.42-1.83-1.45l1.68-5.57c.46-.78.81-.73,1.06.15q1.83.88,0,0c-1.85-.84-.64-2.48.95-1.11,3.76-2.46,8.73-1.46,7.85,3.43Z"/>
      <path class="cls-47" d="M39.76,68.15l-.69.75c-.77-.33-1.43.33-.95,1.11-.32-.11-.77.02-1.06-.15-.22-.12-.51-.45-.61-.68-.12-.29-.09-.71-.1-1.03-.26-2.06.67-2.8,2.79-2.23,2.7-3.07,3.65.18.63,2.23Z"/>
      <path class="cls-32" d="M56.36,74.05c1.85-.8,2.03.75.81,2l.45,4.08c1.63,3.08-.02,6.49-2.29,8.89-.98.08-1.81.07-2.62.05-.94-.02-2-.28-1.4-1.55,1.32-.59,3.08-.68,4.08-2.5-2.41-.62-3.57.7-5.14.87-.23-.83-1.7-3.57-2.89-3.42.45-.48,4.66-9.58,1.97-8.61-1.24-4.4,5.06-1.6,7.04.21Z"/>
      <path class="cls-52" d="M51.31,65.18c2.13-2.18,6.07,3.06,4.1,5.23,2.72.36,3.05,2.34.94,3.65-3.84,1.99-5.11-2.1-7.04-.21-.87-.2-1.78-.89-2.41-1.52-2.21-2.22-4.6-4.32-7.85-3.43.19-.04.34-.84.69-.75.95-3.32,2.06-4.08,3.33-2.28,1.08-.85,2.11-1.45,3.09-1.81l1.04-2.62c1.8,2.34,3.17,3.59,4.1,3.73Z"/>
      <path class="cls-13" d="M16.17,62.06l2.3,1.24c.8.97,2.06,1.21,3.82,1.82-1.96,3.91-2.87,8.94-5.18,8.8-3.25-4.05,2.78-4.59.67-7.93-1.04,1.2-2.16,2.13-3.64,2.06-.92-.07-.86-.35.06-.8-1.2-3.6,2.05-10.83,1.98-5.2Z"/>
      <path class="cls-119" d="M58.3,77.06c-.01.33.09.67.05,1-.09.74-.33,1.45-.73,2.08-.74-1.3-1.91-2.93-.45-4.08.35.36.72.7,1.13,1Z"/>
      <path class="cls-82" d="M38.11,70c1.19.36,2.74-.7,3.83.72l-3.3,1c-.43.13-.5-1.37-.53-1.72Z"/>
      <path class="cls-7" d="M47.26,1.92c3.68.46,6.99,1.73,9.87,4.13,1.43,1.19,2.38,4.19,1.95,5.98-.34-.04-.69-.05-1.03-.03-1.93.82-2.56,0-1.71-1.89-.82-.46-1.95-.78-3.38-.96-1.6,1.78-2.57.55-3.54-1.52-2.79.59-4.12-2.87-3.83-5.17.11-1.02.77-.99,1.67-.52Z"/>
      <path class="cls-109" d="M47.17,17.06c3.34,1.34,4,2.68,2,4h-2c-1.05,1.05-1.48.44-1-1-.67-.81-1.54-3.65,0-4-.06-1.94.72-1.89,1.16.07.73.34.65.65-.16.93Z"/>
      <path class="cls-90" d="M53.17,23.06c-1.4-.54-2.85-1.01-4-2-1.15-2.16,1.31-2.93,3-2,.03,1.33,1.1,2.68,1,4Z"/>
      <path class="cls-3" d="M47.17,21.06c.38.75,1.35,1.41.53,2.02-.61.45-.91,1.06-1.59,1.24-1.66-.32-2.24-3.09-.94-4.25.28-.87.62-.86,1,0,0,.55.45,1,1,1Z"/>
      <path class="cls-12" d="M45.59,2.44c1.18,1,1.35,3.22,2.56,3.2l5.02-.1c.43,1.32-1.36,1.52-1.53,2.06s.82,1.15,1.32,1.54c-.71,1.02.18,1.05,2.67.08l.71.89c.5.63,1.09,1.36,1.71,1.89l-.82,2c-.98,1.15-1.44,1.51-1.91-.02-1.69.05-3.39.11-5.09.18-.07.89-.33.87-.76.03l-2.49-2.07c-2.66-.28-2.92-.78-1.37-2.78-1.23-4.17-2.1-5.67-2.6-4.48-4.26,2.6-6.4-.24-2.49-3.43.29-.85.56-.79.81.11,2-.16,3.42.15,4.27.92Z"/>
      <path class="cls-102" d="M55.32,13.97c.59-.15,1.3.1,1.91.02-.56,1.37-1.85,2.49-2.02,4.07-.23.18-.56.32-1.04.62-.36.22-.77-.04-1-.62-3.02,1.52-5.02,1.18-6-1-.1-.2.02-.73.16-.93-.33-.94-.03-1.25.91-.91-.56-1.68-.17-2.2,1.22-1.04l.76-.03c1.93-.22,3.62-.28,5.09-.18Z"/>
      <path class="cls-56" d="M53.17,18.06c-.4.22-.59.82-1,1-1.13.49-1.78,1.71-3,2l-2-4c2.6,2.23,5.16-1.15,6,1Z"/>
      <path class="cls-14" d="M46.98,12.1c2.51-.42,2.3,1.14,1.27,3.12-.31.28-.66.59-.91.91l-1.16-.07c-2.61.22-.36-2.09-.4-1.9-.37,1.87-.95,3.25-2.79,1.9l-2.71,2.93c-.91,2.48-3.96,2.19-5.11-.01-1.94-.94-3.97-.9-6,.2l-.78-.06c-1.44-.87-.53-1.48.79-2.06.24-.9.58-.88,1,0,.77-.74,1.09-1.75.95-3.04-.42-1.81,4.19-2.69,4.92-1.15,1.7.11.27,1.39.29,1.29.17-1.1,2.23-3.96,3.27-2.18l2.62-1.07c-.15-.45-.24-.83-.1-.96.83-.77,2.49-.22,1.23-.4-.16-.02.18-.79.82-1.5-1.72.93-1.9-.79-.98-2-1.76-.26-1.9-.61-.2-1.22.14-.6.06-1.5.96-1.84,1.78,3.26,2.2,6.17,3.02,9.11Z"/>
      <path class="cls-95" d="M28.38,19.12l.78.06c-1.06,1.22-2.4,2-2.74,3.61-1.37,2.5-2.45,2.53-3.23.11-3.71.47-2.46-5.35.84-4.92-.11-1.21.58-1.22,1.16-.02,1.09.37,2.16.75,3.2,1.16Z"/>
      <g>
        <path class="cls-96" d="M49.91,37.38c.9,0,2.04-.04,3.42-.11,2.79,1.19.15,4.46-2.01,3.85-1.16,2.02,2.95,1.73,4.86.94.86-.99,2.72-1.69,3,0,1.72,0,3.39.26,5.07.46,1.92.32,1.88,1.1-.06,1.45-.07.78-.41,1.15-1.02,1.09-1.47.77-3.59,1.84-3.87-.22-4.12,2.02-7.67,2.55-10.67,1.59l-.28-1.43c-1.3,2-1.85,1.96-3.24.13-.94-.13-.91-.46-.03-.95-.18-5.21,1.11-7.47,3.88-6.79.21-.88.53-.86.95,0Z"/>
        <path class="cls-30" d="M63.17,45.06l1.09,3.03c.25.04.6-.09.83.01.03.38.06.95-.18,1.18-.38.35-.98.34-1.73.46l-8.01,1.32-2.1-.82c-2.3-2.4.27-4.06,2.1-1.18,2.02-1.24,3.03-1.97,4.13-4.22,1.1.22,2.86-.96,3.87.22Z"/>
        <path class="cls-116" d="M40.72,60.16c2.03,2.38,1.92,5.11-1.6,5.75-.26,1.36-1.44,2.17-2.79,2.23-.04-1.25-1.57-1.42-2.07-2.16-.79-1.19-1.51-1.92-3.02-2.13-2.09,2.01-3.55.73-2.18-1.85,1.22-1.89,4.94-.74,6.25.92-.53-4.7,3.21-7.94,5.4-2.76Z"/>
        <path class="cls-22" d="M27.04,61.14c1.12-2,2.21-1.46,2.04.86.73.37,1.31,1.73,2.18,1.85.44,1.16,1.1,2.02.36,2.33-1.61.67-6.22-.25-7.38-1.14-.7-.54-.91-1.77-.28-2.78-.72-2.21,1.8-2.35,3.08-1.12Z"/>
        <path class="cls-18" d="M21.99,58.86c1.8,1.15,1.85,2.28.15,3.4-.32.04-.65-.18-.97-.15-2-1.01-3.34-1.02-4-.04-.28.87-.62.86-1,0-.43-1.83-1.9-.68-1.18.94.4,1.82.23,3.38-.8,4.26-1.64,1.21-2.17.52-1.02-1.2-.75-1.54-.94-3.52.23-4.89-3,.19-3.21-4.62-.48-5.39.08-.86.36-.85.82-.06.84,2.34,1.31,3.11,1.43,2.33.12-1.92.55-2.97,1.29-3.13,2.68-2.24,6.26.7,5.52,3.93Z"/>
        <path class="cls-1" d="M27.04,61.14l-3.08,1.12c-.54.2-1.24-.08-1.81,0-.27-1.01-1.79-3.01-.15-3.4,1.15-3.77,7.53-.29,5.04,2.28Z"/>
        <path class="cls-1" d="M21.17,62.1l-2.7.17c-.52,1.68-1.24,1.63-1.3-.21-.43-1.64.61-2.73,2.09-1.6.61.46,1.44.9,1.9,1.64Z"/>
        <path class="cls-2" d="M18.47,62.27v1.03l-1.95,2.85c-.75-1.73-.19-2.93-.35-4.09h1c.43,0,.87.24,1.3.21Z"/>
        <path class="cls-27" d="M48.35,45c1.76.44,2.14,1.32,1.36,2.85,1.81.21,2.93,1,3.36,2.39.77-.01,2.1-.52,2.1.82-4.25.7-7.32,1.2-7.64,3.92-.53,4.48-2.3,2.44,3.78,10.19-.26,3.77-2.72-4.21-5.14-1.12-1.05-.91-.5-1.82.2-2.93l-1.1-.38c.06-2.48-.28-3.38-1.03-2.68-.31.87-.67.86-1.07,0-2.26-3.44-.49-10.08,1.93-12.93,1.2-1.08,2.14-.41,3.24-.13Z"/>
        <path class="cls-115" d="M59.3,44.84c-.55,2.35-1.79,3.59-4.13,4.22-.89.03-1.82.18-2.1,1.18l-6.19.11c.48-2.39,1.37-3.73,1.47-5.35,6.39,1.62,7.34-2.97,10.95-.16Z"/>
        <path class="cls-17" d="M45.11,45.13c.51,3.42-2.77,6.54-1.93,12.93-.28.87-.62.86-1,0-3.24-1.85-1.55-14.11,2.91-13.88-.08.27-.01.68.03.95Z"/>
        <path class="cls-110" d="M49.14,35.03c2.15-.08,1.34,1.5-.19,2.35-1.76,1.92-3.13,4.29-3.88,6.79-3.56.06-5.07,11.74-2.91,13.88,1.55.02,1.53,1.64,0,2-.92.13-1.59-.58-2-2.12-2.65-.96-2.67-1.72-.08-2.81-1.59-.96-1.8-1.72.08-2.07-2.25-1.29-2.25-2.29,0-3-.87-.28-.86-.62,0-1-1.4-2.33-.53-3.44,2-4l-.53-2.62s.81-1.67,2.43-5.01c-.8-1.31-.48-3.56,1.19-2.2-1.08-3.83,4.1-4.06,3.88-.2Z"/>
        <path class="cls-75" d="M54.05,33.33c.34,1.39.06,2.73-.72,3.95l-3.42.11h-.95s.19-2.35.19-2.35c-1.51-1.44-.89-2.07.94-.96-.05-2.97,2.4-3.07,3.97-.75Z"/>
        <path class="cls-62" d="M64.26,48.08c-1.35-.22-2.86.5-4.14-.53,1.71-.77,2.68-1.3,3.05-2.5.14-.46.73-.74,1.02-1.09l.08,4.12Z"/>
        <path class="cls-49" d="M54.17,42.06c.19-.87.53-.84,1,0,.33,0,.67,0,1,0-.4,1.44-2.39.95-4.25,1.02-1.93.51-2.69-1.79-.61-1.96.13,1.27,1.94.86,2.86.94Z"/>
        <path class="cls-34" d="M53.33,37.28c-.84.37-1.5.78-2.19,1.32-.73.57-1.25-.36-1.23-1.22,1.06-.62,1.86-1.47,2.95-2.42l.48,2.31Z"/>
        <path class="cls-62" d="M55.17,49.06c.38-2.09,2.72-2.86,4.13-4.22-.53,1.26.61,3.52-.72,4.08-1.06.45-2.44.1-3.41.13Z"/>
        <path class="cls-43" d="M46.37,61.13c-.49,2.4-1.58,3.98-3.29,4.74-1.77.02-1.21,2.82-3.33,2.28l.5-1.57c.11-.36-.78-.64-1.13-.66-.57-.04-1.81.44-1.89-.48,2.8-1.35,4.56-3.21,3.48-5.28-2.06-1.21-2.24-1.96-.56-2.23.62.75,1.27,1.48,2,2.12.51.38,1.2-.28,2.07-1.99.02-.47-.38-1.07.36-2.07,1.24,1.49,1.85,3.29,1.77,5.14Z"/>
        <path class="cls-94" d="M26.17,49.06c.21-1.73,1.84-1.42,1.92.31,1.53,1.33,1.2,2.91-1,4.75,2.07,1.45,2.84,2.92,2.34,4.41,3.35-.87,9.96.6,5.9,4.39-2.06-.46-4.15-.79-6.25-.92-.64-.33-1.41-.49-2.04-.86-.58-2.45-3.33-1.77-5.04-2.28-1.83-1.16-3.34-3.25-5.52-3.93-1.13-.42-1.27-2.05-.42-4.88-.79-2.54-.73-2.78,2.04-1.93,2.87-.39,5.57-.07,8.09.94Z"/>
        <path class="cls-11" d="M40.09,55.13c.06.92-.1,1.9.08,2.81.14.69.23,1.61.56,2.23-.96-.21-2.84-1.64-3.26.04l-.54,2.13c-.19.77-.7.79-1.6.59,1.05-4.08-1.92-.23-5.9-4.39-2.5-7.26,7.1-8.61,10.67-3.4Z"/>
        <path class="cls-99" d="M46.17,64.06c-.44,1.3-1.67,2.07-3.09,1.81,1.49-1.32,1.59-3.61,3.29-4.74-.05.98-.22,1.95-.2,2.93Z"/>
        <path class="cls-107" d="M15.19,37.12c2.4-1.47,4.15-.77,6.08,1.12.87-2.53,2.29-2.12,3.9-.24.62.44,1.09.84,1.02,1.07-.81,2.75-3.55,5.04-5.73,2.21-2.45.38-4.08-.14-4.9-1.56-4.22.81-5.71,2.93-1.47,5.24,1.52-2.28,7.47-2.91,9.32-.83.84.12.79.4-.04.83,1.58,1.5,1.52,2.2-.2,2.1-1.14,1.17-2.83,1.52-5.09,1.06-2.12,1.46-1.62,4.51-1.62,6.81,0,1.17-.45,2.33-1.29,3.13l-1.39-3.11c-2.14-.45-1.87-1.25.39-.89.64-1.93,1.07-4.14,0-6.03-5,5.72-12.2-4.94-6.08-8.76,1.84-.8,3.09-2.85,5.17-3.21,1.95-1.87,2.34-1.64,1.93,1.07Z"/>
        <path class="cls-84" d="M15.17,58.06c-.17.79.57,1.85-.61,3.17-.79-1.77-.25-3.7-.82-5.5-.91-.16-.87-.42.04-.78,1.43.33,1.68,1.84,1.39,3.11Z"/>
        <path class="cls-37" d="M49.17,21.06c2.29-.94,2.9-.07,4,2,1.05.23,1.37,1.28.98,3.16.94,2.39,1.52,5.15-.1,7.1-1.21.55-2.72.36-3.97.75-3.54.4-3.99-3.82-.7-4.94,1.66-2.59,1.63-3.68-.09-3.27-2.05,2.17-2.93,1.28-3.18-1.55l1.06-3.25c-.02-2.06.79-1.41,2,0Z"/>
        <path class="cls-68" d="M44.24,58.06c-.03,1.93.47,4.1-1.91,5.07-.78-1.53-.08-2.34-.16-3.07v-2h2.07Z"/>
        <path class="cls-76" d="M37.17,30.06c.94.49,1.16,1.43.67,2.83,2.83,1.1,4.57,2.63,5.22,4.59.25-.89.59-.89,1.01-.04.29,1.25,1.44,2.48.97,3.9-.48,1.45-2.16,2.3-2.87,3.73l-1.28.11c.32-3.69.07-2.39-.72,3.89v1c-.71,2.17-2.67,1.54-5.89-1.87l-2.21-.45c-.22.87-.5.84-.84-.04-1,.83-1.54.39-.85-.75-2.39-1.04-1.88-1.99.74-1.72-.39-1.88-1.38-3.7-2.96-5.44-1.9-.58-1.74-3.47-.89-5.01l-1.54-1.75c1.97-1.62,9.31-4.2,11.43-2.96Z"/>
        <path class="cls-98" d="M35.17,18.98c2.58-.04,3.56,1.66,2.9,4.04.7.53,1.06,1.61,1.07,3.23,1.35-1.58,3.09-.18,2.94,1.62.94-.17,1.6.31,2.09,1.24.39-2.65,1.33-2.51,2.06.05,1.31,1.94.76,4.54-.97,6.08-.46.5-1.37,1.42-1.19,2.2l-1.01.04-.98-2.25c-3.19-.87-4.83-2.59-4.91-5.16-1.85-.54-1.06-1.17.33-2.12-1.92-1.08-4.06-.74-6.42,1.01l-2.22-.45c-.77-2.46-1.58-4.36-2.44-5.71-2.27-1.68-1.36-2.88,2.74-3.61.32-1.12,3.72-3.12,4.51-2.75.9.42,1.27,1.53,1.5,2.54Z"/>
        <path class="cls-122" d="M49.38,29.14c-.21,1.69-.28,3.48.7,4.94-.32.1-.86.63-.94.96-1.24-.81-2.83-.94-3.88.2-.19-1.46-.87-2.81-2.07-3.71,1.73-.73,2.88-1.13,3.04-2.37.91-2.71,2.18-2.7,3.15-.02Z"/>
        <path class="cls-88" d="M42.17,45.06l-2,4c-1.29-1.18-2.67-2.62-1.74-5.05.54.29.71.85.88,1.41.55,1.77,1.01-.08,1.12-3.13,1.18.37.65,2.13,1.73,2.77Z"/>
        <path class="cls-81" d="M15.19,37.12c-.27-.54-1.57-.53-1.93-1.07,0-1.6,1.01-3.38.75-4.98l1.31.08c4.19-1.01,3.83,6.89-.14,5.97Z"/>
        <path class="cls-51" d="M40.17,53.06c0,.69-.13,1.38-.08,2.07-2.45-1.2-6.66-2.37-8.88.02-.84.9.09,4.39-1.79,3.38-1.21-1.27-4.37-1.9-4.3-4.57.05-1.85,2.78-2.86,2.97-4.59-.49-1.15.56-1.71,3.14-1.67l.84.04c1.55-.16,3.35.86,5.38,3.06,1.7.43,2.6,1.19,2.72,2.26Z"/>
        <path class="cls-81" d="M30.39,46.95c.43-.08,1.22.12.85.75-.37,1.38-2.32,1.26-3.14,1.67l-1.92-.31c-2.2-.27-3.2-.94-3-2l.2-2.1c1.73-1.76,6.28-.26,7.02,1.98Z"/>
        <path class="cls-18" d="M23.17,47.06c1.08.23,2.02,1.56,3,2-2.7-.43-5.96.97-8.09-.94,1.34-.93,3.48-1.39,5.09-1.06Z"/>
        <path class="cls-114" d="M24.17,27.06c.5.25.46.59,0,1,1.26-1.06,2.05-.76,2.03,1.05,1.65-2.99,3.87-2.04,4.84.76-1.03,1.7-4.15,3.08-6,3.19,1.78,1.54-.61,2.76-1.87.89-1,.95-1.64,2.38-1.91,4.29-2.1-.62-4.9,1.25-6.08-1.12.03-1.21.97-1.99,2.06-3.12-1.04-1.02-1.94-1.72-1.92-2.85.89-.38,1.18-1.33,1.64-2.09l3.11-1.42c1.96-3.03,3.33-3.22,4.1-.58Z"/>
        <path class="cls-81" d="M27.28,34.77c1.42,1.74,1.46,3.15.89,5.01-.8,2.12-2.16,5.14-4.77,4.34-3.13,1.08-6.17,1.48-9.32.83-2.87-.89-1.36-5.49,1.47-5.24,2.82-.57,6.52-1.64,8.11,2.33.87-1.32.91-2.71,1.5-4.05-2.57-.41-2.46-.98-.03-1.9-.95-1.53-.3-1.98,1.39-1.46.52-1.32.78-1.28.76.13Z"/>
        <path class="cls-92" d="M28.17,39.79c1.66,1.76,2.64,3.58,2.96,5.44-.44.27-.31,1.37-.74,1.72-2.57.49-4.97-.43-7.02-1.98.02-.25-.07-.62.04-.83.8-1.47,2.64-5.26,4.77-4.34Z"/>
        <path class="cls-70" d="M15.55,39.72l-1.47,5.24c-1.32-.27-2.95,2.32-4.11-.63-.61-1.55-.94-2.97.93-4.67.78-.72,1.6-1.5,2.75-1.46.67.03,1.4.83,1.9,1.51Z"/>
        <path class="cls-67" d="M23.17,33.95c1.96.22,2.62.94,1.96,2.15-.12.58.27,1.36.03,1.9-1.39.51-2.61.62-3.9.24-.76-1.67-2.51-2.59-3.11-4.76,2.08-.83,3.63-.08,5.02.48Z"/>
        <path class="cls-18" d="M14.17,54.06v-6.03c2.09.63,1.32,4.89,0,6.03Z"/>
        <path class="cls-42" d="M43.36,23.07c1.25-.52,2.16-.11,2.75,1.24,1.03.53,2.2.91,3.18,1.55,1.88.21,1.74,2.51.09,3.27-1.06-.04-2.11.04-3.15.02l-2.06-.05c-1.14-.07-1.5-1.07-1-2.05-1.38-.78-2.73-1.05-4.03-.82-1.39-.82-1.24-.86-1.07-3.23.24-2.78,1.73-3.19,3.4-.96,1.31-2.56,1.86-1.54,1.89,1.02Z"/>
        <path class="cls-48" d="M49.38,29.14l-.09-3.27c.05-.18.73-1.83,1.24-1.35.1.09,2.45,3.04.63,4.05-.44.24-1.14.6-1.78.57Z"/>
        <path class="cls-11" d="M40.17,50.06v3c-3.24-.83-5.38-3.54-8.1-5.33.29-.46.58-.9,1.49-1.61,1.16,1.05,5.7,6.22,6.61,3.93Z"/>
        <path class="cls-46" d="M37.5,27.94c.18.93.09,1.17-.33,2.12-3.81.82-9.55,1.3-9.89,4.71-.27-.59-.3-.6-.76-.13-1.38.37-2.08-.08-1.47-1.59-.54-.29-1.58.32-1.94-.99,3.8.41,5.53-1.49,7.94-2.21.53-1.67,4.84-5.08,6.46-1.92Z"/>
        <path class="cls-93" d="M43.06,37.48c-2.76-3.06-7.68-3.43-5.89-7.42.96-.21,2.38-.21,3.03.53-.72.87-2,1.49-1.92,1.98.15.98,4.3.92,4.77,2.21.37,1.01.12,1.94.01,2.71Z"/>
        <path class="cls-97" d="M31.13,45.23c-.92-1.46-3.57-3.42-2.96-5.44,1.92.83,5.24,4.05,2.96,5.44Z"/>
        <path class="cls-77" d="M37.5,27.94l-6.46,1.92c-1.43-1.26-3.28.12-4.84-.76-.25-1.1-.6-2.12-1.03-3.05-1.59-1.59-.92-2.73,1.25-3.27.5-.11.86-.84,1.25-.39,1.23,1.47,3.41,3.35,3.29,3.14.21.39-1.69,1.25-1.44,1.62,1.51,2.06,2.54.29,3.77-1.47,1.37-1.96-1.15-1.85-3.04-4.24,3.88-.18,6.59,3.13,7.25,6.5Z"/>
        <path class="cls-117" d="M40.28,18.99c.23-2.33,1.19-2.16,1.76.1,1.44.52.9,2.72-.57,2.96-1.08.49-2.24.76-3.4.96-1.64-.72-2.42-2.39-2.9-4.04,1.45-.14,3.53-.73,5.11.01Z"/>
        <path class="cls-117" d="M43.17,27.06c.47,1.38-.06,1.76-1.09.8-.94-.49-2.01-1.07-2.94-1.62.24-.7.16-1.55,1.07-2.53,1.85.64,2.33,2.1,2.96,3.35Z"/>
        <path class="cls-44" d="M44.17,29.11c-.43,0-1.44,1-1.53.69l-.56-1.93c-.32-.65.7-.64,1.09-.8.62.51.93,1.26,1,2.05Z"/>
        <path class="cls-64" d="M23.17,24.06c2.34-1.15,1.91,1.37,1,3-.53-.26-.94-.78-1.84-.96-.89,2.84-3.12,3.48-5.37,2.96.77-1.27,2.26-1.9,3.21-3,.82-.95,1.59-2.01,3-2Z"/>
        <path class="cls-58" d="M26.42,22.79c-.23,1.1-1.33,2.02-1.25,3.27,1.77.79.87,2.68-1,2-.01-.32-.02-.68,0-1,.07-1.11-.11-2.26-1-3-.1-.35.17-.84.01-1.16,1.05-.1,2.2.13,3.23-.11Z"/>
        <path class="cls-40" d="M26.21,29.11c-.64-.36-1.99.24-2.03-1.05.78-.31,1.05-1.22,1-2,1.01-.22,2.37-.08,1.93,1.38-.14.48-.61,1.1-.9,1.67Z"/>
        <path class="cls-76" d="M26.52,34.64c-.73.2-1.23.7-1.39,1.46-1.08-.18-1.66-1.16-1.96-2.15.38.15.99.15,1.46.11.34-.03.81-.62.42-1,.57.39,2.14.64,1.47,1.59Z"/>
      </g>
      <path class="cls-19" d="M56.33,10.1c-1.31-.01-2.61.03-3.96,1.02-.47-1.24.19-1.62.59-1.99.86.01,1.73-.73,2.79-.85.74-.08.29,1.43.58,1.81Z"/>
      <path class="cls-36" d="M45.17,20.06c.11,1.45,1.18,2.74.94,4.25-.39,0-.96.4-1.4.25-.72-.25-.8-1.2-1.35-1.49-1.49-1.35-.46-4.82.81-6.01,1.73-1.25,1.93,1.66,1,3Z"/>
      <path class="cls-112" d="M44.17,17.06c.05,2.04-.57,4-.81,6.01l-1.89-1.02c.24-.96.2-2.04.57-2.96-1.77-1.44-1.22-2.84.95-3.03,1.94-2.2,2.78-1.35,1.18,1Z"/>
      <path class="cls-118" d="M46.17,16.06v4h-1c-.08-1.12.22-2.44-1-3-.01-.58-.39-1.29-1.18-1,1.14-.65,1.85-1.99,2.78-3.07.82,1.35.29,2.25.4,3.07Z"/>
      <path class="cls-72" d="M43,4.84c.14.38.02.86.2,1.22.34,1.36-.66,1.64-3.02.85-1.84,4.4-4.66-.39-3.03-3.74.77-.51,1.18-1.54,1.92-2.1l1.44.34c.56,1.26-.34,2.36-1.45,3.36l3.94.07Z"/>
      <path class="cls-71" d="M49.46,14.18c-.35.41-.82.69-1.22,1.04-.69-.93-.96-2.03-1.27-3.12,1.36-.03,2.24-1.31,4.28-.95-.68,1.3-1.49,1.97-1.79,3.03Z"/>
      <path class="cls-71" d="M55.32,13.97c-1.74.43-3.71,1.78-5.09.18,1.63-.3,3.19-.99,4.55-2.12.79.96.85,1.49.54,1.95Z"/>
      <path class="cls-111" d="M37.14,3.17c.62-.19.82.21.89.57.17.82-.37,1.43-.41,2.53-.03.87,1.87.52,2.55.64,2.7-1.03,3.81.77,1.25,2.33.49,2.23.2,3.08-2.02,1.82-.88.77-2,1.37-3.36,1.81-1.8.05-3.6-.12-4.92,1.15.68.97.13,2.54-.95,3.04-.31-.06-.68,0-1,0-.39,1.03-.73,1.05-1.13,0-2.95.47-2.54-3.03-1.13-5,.74-.2,1.36-.77,2.14-.87,1.41-.95,3.17-1.65,5.27-2.1-.76-1.89-.42-3.22,1.02-3.97-.08-.27.14-.68.09-.96.46-.19,1.28-.7,1.71-.99Z"/>
      <path class="cls-113" d="M42.22,10.92c-.05.83,1.51,2.7-.17,3.25-1.36.44-1.9-1.52-2.45-2.18-.91-.02-.95-.34-.2-.93.65-.56,1.21-1.47,2.02-1.82,1.98-.37,2.34.39.8,1.68Z"/>
      <path class="cls-23" d="M39.4,11.06l.2.93c-1.5.54-1.65,2.33-3.42,3.35-1-1.05-.12-1.74-.14-2.47.31-.77.47-1.75,1.14-2.32.63-.54,1.59.15,2.22.51Z"/>
      <path class="cls-87" d="M42.99,16.06c.03,1.11-.55,2.04-.95,3.03-.54-.17-1.25.14-1.76-.1-.85-1.11-1.56-2.26-.07-3.28.85-.58,1.93-.04,2.78.35Z"/>
      <path class="cls-118" d="M42.22,10.92c-.22-.58-.49-1.14-.8-1.68.71-1.85,1.08-2.8,2.75-1.18.34.71,1.36,1.42.55,1.98-.7.49-1.91.55-2.51.89Z"/>
      <path class="cls-38" d="M43.19,6.06l.98,2c-.79.67-1.85.78-2.75,1.18.11-.51.7-1.3.53-1.72-.3-.74-1.34-.54-1.78-.61.73-.91,1.94-.94,3.02-.85Z"/>
      <path class="cls-79" d="M29.17,17.06c-.18.72-.44,1.41-.79,2.06-.69.25-1.31.73-2.09.83-.92.12-1.15-1.18-1.11-1.99.04-2.61.98-2.55,2.86-.9h1.13Z"/>
      <path class="cls-103" d="M30.17,17.06c-.28-1.34.07-2.19.95-3.04,1.15-.11,1.01.82,1.1,1.55.19,1.5-.86,1.72-2.05,1.49Z"/>
      <path class="cls-9" d="M28.04,17.06c-.86.55-1.85.82-2.86.9-.2-.23-1.1-.34-1.16.02-.32-.26-.61-.54-.88-.85-.23-1.41.45-2.44,1.17-3.32.93-.36,1.59-1.47,2.61-1.75-.03,1.74.66,3.35,1.13,5Z"/>
      <path class="cls-6" d="M29.06,11.2l.2-2.24c2.27-.84,3.73-3.15,6.09-3.84l1.38,4.46c-1.94,2.27-5.32,3.13-7.67,1.62Z"/>
    </g>
  </g>
</svg>