<?xml version="1.0" encoding="UTF-8"?>
<svg id="Enemy" xmlns="http://www.w3.org/2000/svg" viewBox="0 0 129.6 84.26">
  <defs>
    <style>
      .cls-1 {
        fill: #181818;
      }

      .cls-2 {
        fill: #111;
      }

      .cls-3 {
        fill: #4f4f4f;
      }

      .cls-4 {
        fill: #d8c1ad;
      }

      .cls-5 {
        fill: #86604c;
      }

      .cls-6 {
        fill: #434343;
      }

      .cls-7 {
        fill: #010101;
      }

      .cls-8 {
        fill: #303132;
      }

      .cls-9 {
        fill: #624234;
      }

      .cls-10 {
        fill: #2c2c2c;
      }

      .cls-11 {
        fill: #141414;
      }

      .cls-12 {
        fill: #2f1e0f;
      }

      .cls-13 {
        fill: #f5eccc;
      }

      .cls-14 {
        fill: #353534;
      }

      .cls-15 {
        fill: #d1bfac;
      }

      .cls-16 {
        fill: #c09680;
      }

      .cls-17 {
        fill: #1b1009;
      }

      .cls-18 {
        fill: #505050;
      }

      .cls-19 {
        fill: #a68367;
      }

      .cls-20 {
        fill: #684837;
      }

      .cls-21 {
        fill: #272727;
      }

      .cls-22 {
        fill: #6c5531;
      }

      .cls-23 {
        fill: #1c273b;
      }

      .cls-24 {
        fill: #6a4f38;
      }

      .cls-25 {
        fill: #271407;
      }

      .cls-26 {
        fill: #e8b695;
      }

      .cls-27 {
        fill: #e3b593;
      }

      .cls-28 {
        fill: #1e1e1e;
      }

      .cls-29 {
        fill: #6f5336;
      }

      .cls-30 {
        fill: #152335;
      }

      .cls-31 {
        fill: #142139;
      }

      .cls-32 {
        fill: #424242;
      }

      .cls-33 {
        fill: #7c6256;
      }

      .cls-34 {
        fill: #241b13;
      }

      .cls-35 {
        fill: #39291f;
      }

      .cls-36 {
        fill: #545455;
      }

      .cls-37 {
        fill: #2d180c;
      }

      .cls-38 {
        fill: #5c2700;
      }

      .cls-39 {
        fill: #1b0c02;
      }

      .cls-40 {
        fill: #2f2f2f;
      }

      .cls-41 {
        fill: #868289;
      }

      .cls-42 {
        fill: #2d2d2f;
      }

      .cls-43 {
        fill: #fbf9e8;
      }

      .cls-44 {
        fill: #404040;
      }

      .cls-45 {
        fill: #22180e;
      }

      .cls-46 {
        fill: #6b4932;
      }

      .cls-47 {
        fill: #090300;
      }

      .cls-48 {
        fill: #311a12;
      }

      .cls-49 {
        fill: #b59c8a;
      }

      .cls-50 {
        fill: #2b1e12;
      }

      .cls-51 {
        fill: #6c4f3a;
      }

      .cls-52 {
        fill: #271e16;
      }

      .cls-53 {
        fill: #7f5843;
      }

      .cls-54 {
        fill: #765029;
      }

      .cls-55 {
        fill: #6a4734;
      }

      .cls-56 {
        fill: #625f64;
      }

      .cls-57 {
        fill: #ae8769;
      }

      .cls-58 {
        fill: #3a3a3a;
      }

      .cls-59 {
        fill: #202020;
      }

      .cls-60 {
        fill: #212121;
      }

      .cls-61 {
        fill: #664a34;
      }

      .cls-62 {
        fill: #866242;
      }

      .cls-63 {
        fill: #2b1d0e;
      }

      .cls-64 {
        fill: #20211c;
      }

      .cls-65 {
        fill: #5e3d2b;
      }

      .cls-66 {
        fill: #b28d72;
      }

      .cls-67 {
        fill: #101c2d;
      }

      .cls-68 {
        fill: #413a3a;
      }

      .cls-69 {
        fill: #d5b0a2;
      }

      .cls-70 {
        fill: #030402;
      }

      .cls-71 {
        fill: #2b2b2b;
      }

      .cls-72 {
        fill: #222f48;
      }

      .cls-73 {
        fill: #333c49;
      }

      .cls-74 {
        fill: #1a1a1a;
      }

      .cls-75 {
        fill: #1d1d1d;
      }

      .cls-76 {
        fill: #c5ac9a;
      }

      .cls-77 {
        fill: #192335;
      }

      .cls-78 {
        fill: #654d37;
      }

      .cls-79 {
        fill: #272728;
      }

      .cls-80 {
        fill: #fde6d8;
      }

      .cls-81 {
        fill: #85746d;
      }

      .cls-82 {
        fill: #161a25;
      }

      .cls-83 {
        fill: #613c11;
      }

      .cls-84 {
        fill: #171209;
      }

      .cls-85 {
        fill: #3a210b;
      }

      .cls-86 {
        fill: #1b1f1d;
      }

      .cls-87 {
        fill: #241208;
      }

      .cls-88 {
        fill: #d8c5b5;
      }

      .cls-89 {
        fill: #a97f69;
      }

      .cls-90 {
        fill: #bbab9d;
      }

      .cls-91 {
        fill: #644e3c;
      }

      .cls-92 {
        fill: #353535;
      }

      .cls-93 {
        fill: #41474f;
      }

      .cls-94 {
        fill: #393939;
      }

      .cls-95 {
        fill: #211407;
      }

      .cls-96 {
        fill: #684534;
      }

      .cls-97 {
        fill: #3e4242;
      }

      .cls-98 {
        fill: #1c2432;
      }

      .cls-99 {
        fill: #543820;
      }

      .cls-100 {
        fill: #4b4b4b;
      }

      .cls-101 {
        fill: #414553;
      }

      .cls-102 {
        fill: #9f735d;
      }

      .cls-103 {
        fill: #fbf2ce;
      }

      .cls-104 {
        fill: #cda185;
      }

      .cls-105 {
        fill: #7c5b3b;
      }

      .cls-106 {
        fill: #190c04;
      }

      .cls-107 {
        fill: #46291a;
      }

      .cls-108 {
        fill: #101010;
      }

      .cls-109 {
        fill: #4f382b;
      }

      .cls-110 {
        fill: #241608;
      }

      .cls-111 {
        fill: #c19c7e;
      }

      .cls-112 {
        fill: #6b4f37;
      }

      .cls-113 {
        fill: #bf9c81;
      }

      .cls-114 {
        fill: #161616;
      }
    </style>
  </defs>
  <g id="NastyKnifer">
    <path class="cls-22" d="M49.81,49.12l.75-.15,2.17,3.07c-.11.51.08,1.49-.13,2.24-.13.47-1.43,1.07-1.89.08-.84-1.77.19-3.83-.89-5.24Z"/>
    <g>
      <path class="cls-1" d="M113.51,10.73c.74-3.44,3.85-5.25,6.67-7.06,3.55,0,3.28,3.87,3.17,6.75-.94.77-2.82.73-3.01,2.3-2.09.91-4.76-.21-6.75.99-1.95-.12-1.62-2.38-.09-2.97Z"/>
      <path class="cls-108" d="M103.1,18.28c.49-1.01,1.16-2.03,2.33-2.19.69-1.97.14-2.58-1.67-1.81l-1.46-2.3c.47-1.25,2.57-1.53,3.83-1.52,2.52.02,5.32-1.47,7.38.26-.2.95.17,2.02.09,2.97-2.46,1.48-5.33,2.89-6.8,5.41-1.32,2.24-4.46,2.58-6.1,4.18-1.11-.2-1.37-.78-.8-1.75-.23-2.28.99-3.33,3.2-3.26Z"/>
      <path class="cls-59" d="M79.15,33.34l.69-.72c-5.06.19-1.34-4.79,1.27-2.32,2.55-.66,5.18-1.5,7.9-2.53-.14-.75.15-.89.84-.49-.55-2.64.51-2.96,2.03-.69,2.74-1.99,4.29-3.32,5.63-6.16,2-1.92,2.6-1.64,2.38,1.12.21.61.48,1.19.8,1.75-8.25,8.03-7.21,3.17-10.67,8.19-.03.62-.11,1.15-.42,1.35-1.54,1.01-8.18,2.96-10.22,3.35-.43,1.74-2.07,2.13-3.22.85-.1.9-.4.9-.88.09-9.19,3.85-8.89-9.91.9-3.55l2.98-.24Z"/>
      <path class="cls-72" d="M70.52,39.51c.22-1.42,1.81-2.21,4.75-2.38l.88-.09c1.82.58,5.51,1.63,6.4-.2-.25-1.74.47-2.03,1.61-.65l11.32-1.99c1.94.66,2,1.82.66,3.44-1.46,2.57-3.78,3.93-6.69,3.11-1.13-.93-.58-1.14.76-1.45-4.34.65-8.58,1.61-12.72,2.87-.15.52-.84.88-2.05,1.06.33,2.93-3,2.92-3.82.18-.99.57-1.68.59-2.09.05-2.01-1.58-1.21-3.07.98-3.94Z"/>
      <path class="cls-77" d="M91.33,34.09c4.01.17,7.43-4.25,10.24-2.83,1,.51,1.24,3.59.39,4.82-1.21,1.74-4.13.96-5.81,1.55-1.85-5.29-11.52,1.32-11.98-1.45.36-2.67,5.57-4.51,7.16-2.1Z"/>
      <path class="cls-31" d="M89.46,40.75c-.29-.08-.7,0-1,.03-1.45.38-3.1.77-4.96,1.17l-3,.1c-.35,1.08-2.38.86-3,.1,1.43-3.19,5.42-2.34,8.68-2.65,2.97-.28,5.73-1.83,8.3-.4-1.97,1.26-4.38-.22-5.03,1.63Z"/>
      <path class="cls-72" d="M88.47,40.79l.03,1-5,.17c.89-1.75,3.31-.99,4.96-1.17Z"/>
      <path class="cls-21" d="M94.19,65.47c1.97-.67,2.95-1,2.95-1-.17-3.67,10.32-3.79,8.26.67,4.19-.22,8.16.62,12.19,1.86.28-.11.66.08.96.02,2.14.38,1.61,5.41-1.1,4.61-1.54-.05-2.84-.28-3.92-.7-7.72.72-16.53-.18-23.64-2.85-1.93.18-2.02-.58-.18-1.29-1.96-3.37,2.05-2.99,4.48-1.31Z"/>
      <path class="cls-108" d="M118.7,72.82c.66-2.28,1.22-4.58,1.69-6.89l1.78-.22c2.77-.34,3.93,2.24,4.25,4.72l.89,2.73c2.2-.1,2.28,3.06,2.29,5.09.04,5-1.54,7.99-5.57,4.49-1.78,2.66-6.5-7.23-6.47-7.8.05-.85.56-1.54,1.13-2.12Z"/>
      <path class="cls-74" d="M94.13,60.42c.63.02,1.37-.1,2.02.02,1.93.44,3.94.68,6.03.72.99,0,1.99-.07,2.98,0l3.31,2.63c.04,1.76-1.75,2.06-3.07,1.35-.8-1.09-1.62-2.66-3.09-2.63-1.28.03-3.53-.17-3.59,1.46-.02.47,1.67.65,1.57.94.11-.32-2.68,3.25-6.09.56-1.12-1.62-1.73-3.58-.06-5.05Z"/>
      <path class="cls-28" d="M108.47,63.79c3.13.51,6.62,1.19,9.12,3.21-2.82,1.07-5.59-1.21-8.81-.64-.93.16-1.66.59-2.47.28-.58-.22-.54-1-.9-1.5.32-1.29,2.02-1.08,3.07-1.35Z"/>
      <path class="cls-75" d="M97.73,17.61l3.86-2.3c-.65-1-.62-2.09-.17-3.2.26-.02.64-.21.89-.13,3.12,1.08,5.81-.92,9.67-.6-1.51,2.98-4.59,3.83-6.54,4.71-1.03.39-1.81,1.12-2.33,2.19-.13,1.74-1.56,2.94-3.2,3.26-.79-.38-1.57-.79-2.38-1.12-.57.7-.9.61-1-.29-2.12-1.01-.66-2.76,1.21-2.52Z"/>
      <path class="cls-60" d="M92.65,17.57c1.9-1.11,2.3-1.09,1.2.06l6.63-5.28c.32-.05.62-.21.94-.23.23.64,1.77.86,1.98,1.65.23.84-1.64.99-1.82,1.55l-3.86,2.3c-.16.85-1.69,1.46-1.21,2.52-.09.87-.41.86-.91.07-.56,1.24-1.71,1.64-2.82.78,0,2.2-.79,2.19-1.12-.08-1.55.46-2.32-.88-1.67-2.14.79-.45,1.74-1.15,2.66-1.19Z"/>
      <path class="cls-60" d="M105.43,16.1c-.49.99-1.29,1.8-2.33,2.19.05-.67-.08-1.41.68-2.21.36-.38,1.07-.12,1.65.02Z"/>
      <path class="cls-14" d="M71.64,43.4l3.82-.18c1.59-.62,3.67-1.01,4.9.14-.03.25.22.54.16.77,1.76,1.78,2.96,3.67,3.59,5.65,1.8.13,1.76.95-.14,1.24,2.02,1.5.38,3.57-1.1,4.93-.13.89-.41.88-.84.04-3.48,2.68-8.37-4.26-8.54-7.65-1.54.95-2.79.14-3.75-2.45-.27,1.92-1.02,1.74-1.12-.27-.62-1.16.39-1.91,3.03-2.25Z"/>
      <path class="cls-75" d="M84.87,48.99c.65.75,2.27,1.44,2.76,2.8,1.36,3.83,4.39,5.8,6.51,8.63.5,2.58-3.87,1.83-5,.85-1.73-1.48-5.77-7.76-5.17-10.23l.14-1.24c-.32-.81-.06-1.08.77-.81Z"/>
      <path class="cls-114" d="M80.52,44.14c2.38.46,3.46,2.8,4.36,4.85-.2.32-.46.59-.77.81-1.36-1.63-4.18-3.35-3.59-5.65Z"/>
      <path class="cls-21" d="M102.18,61.16c-1.98.01-4.86,1.34-6.03-.72,1.97.36,4.61-.95,6.03.72Z"/>
      <path class="cls-73" d="M77.51,42.17l3-.1-.15,1.31c-1.63-.07-3.27-.22-4.9-.14.49-.63,1.28-.9,2.05-1.06Z"/>
      <path class="cls-42" d="M66.23,32.46c-.78-1.98.59-3.05,2.45-2.83.38-1.12,1.51-1.85,3.38-2.19,1.2,1.03,3.11,1.49,5.75,1.38.13,1.4.58,2.91,1.35,4.53-2.38,2.07-5.56,1.17-9.02-.17.15,2.96,3.18,4.16,5.14,3.96-.5,1.93-2.97,2.17-4.75,2.38-.72,3.39-5.47,2.63-5.31-.99-.79-3.13-.46-5.15,1.01-6.07Z"/>
      <path class="cls-6" d="M83.62,22.24c-2.01.7-2.22-.09-.14-1.01.8-1.02,2.28-1.19,4.46-.52,1.17-1.11,2.75-.93,2.9.83.19,1.69-.14,3.6-.98,5.73-.25.11-.67.31-.84.49-1.16.88-2.57,1.76-3,.1-1.86.16-3.2-.19-4.04-1.07-2.38-1.35,2.07-3.96,3.67-4.33.16-.04-1.46,2.05-2.02-.22Z"/>
      <path class="cls-3" d="M90.83,21.54c-.34-.88-.05-1.08.82-.64.27.54.79.59,1.12.08,1.86-.44,2.1,1.05,1.05,2.37,1.42,1.25-.43,2.46-1.94,3.22-.61-.22-1.51.46-2.03.69-.5-.7-1.43-.63-2.74-1.02.89-1.89,2.62-3.02,3.72-4.71Z"/>
      <path class="cls-79" d="M77.81,28.81c.04-1.25,1.42-1.64,2.21-.74,2.18.97,2.55,1.71,1.09,2.22l-2.96,1.34c1.25.79,2.34-.53,2.84-.18.65.46-.01,1.34-.32,1.65-.36.38-1.07.6-1.52.24-1.7.02-4.38-.5-3.81-2.76.41-.64,2.54-.69,2.47-1.77Z"/>
      <path class="cls-40" d="M93.83,23.36c-.54-1.34.44-2.93,1.77-3.15.3.02.62-.13.91-.07.33.06.69.16,1,.29-.37,1.51.57,3.4-.95,4.2-1.61.85-2.97,2.57-4.68,1.96.29-1.26,1.02-2.34,1.94-3.22Z"/>
      <path class="cls-30" d="M76.16,37.04c.78-.77,2.13-1.2,3.22-.85,1.04.33,2.2,1.05,3.19.65,1.27.11.7,1.07.28,1.42-1.27,1.05-4.3.99-5.86.74-.72-.12-1.07-.93-.82-1.95Z"/>
      <path class="cls-8" d="M86.01,27.86l3-.1c-1.31,2.86-5.05,2.75-7.9,2.53l-1.09-2.22c1.82-.6,3.82-.67,6-.21Z"/>
      <path class="cls-23" d="M59.49,35.07c-1.81-2.36.04-5.24,2.99-3.9,2.78,1.25,2.86,6.21,2.72,7.36,1.48,1.1,3.48,1.2,5.31.99.26,1.4-.08,2.82-.98,3.94-.95,1.64-2.4,2.12-3.09.19-1.55,1.51-3.13,2.88-4.75,4.11-.2.89-.54.88-1.01.06-2.1.01-2.41-.43-.92-1.32-2.14-1.5-1.87-5.74-.22-7.29-1.37-1.83-1.38-3.21-.06-4.13Z"/>
      <path class="cls-93" d="M66.46,43.64c1.03-.12,2.06-.17,3.09-.19l2.09-.05c-1.04.71-2.13,1.36-3.03,2.25.45.81.17,1.01-.77.67-.26,1.93-1.04,1.91-1.43-.02-3.27.3-2.99-2.51.04-2.66Z"/>
      <path class="cls-75" d="M89.89,68.07c12-.2,7.3.98,10.59,1.6,4.63.87,9.04-.06,13.05,1.26.18.68-.19,1-.96,1.03-.29.07-.62-.07-.92-.08-1.11,2.97-3.55,2.94-5.07.26-.91.85-3.94.86-5.01,0-1.84-.18-3.51-.41-5.03-.68-1.07.87-2.69.3-3.32-.75-.08.92-.32.85-.69-.09-2.8.37-4.04-.17-3.71-1.6-1.1-1.59-.5-2.09,1.08-.95Z"/>
      <path class="cls-59" d="M76.41,61.37c1.29-1.85,2.75-1.19,2.93.99l2.24-.5c.81,1.45,2.03,2.51,3.66,3.18,3.2-.52,4.69.06,4.47,1.74l.18,1.29-1.08.95c-2.31,2.74-10.6-1.57-11.49-4.92-2.58.66-2.73-.13-.97-2.06l.07-.67Z"/>
      <path class="cls-58" d="M86.23,62.88c-.19-.98.12-1.65.93-2.03,4.65.08,6.99,1.62,7.03,4.63-1.36-1.07-3.51.57-4.48,1.31-1.58.48-3.18-1.43-4.47-1.74l.99-2.16Z"/>
      <path class="cls-7" d="M113.53,70.93c1.2.39,3.37-.88,3.92.7-1.38.73-3.43-.02-4.89.34.28-.38.61-.72.96-1.03Z"/>
      <path class="cls-71" d="M83.96,51.04c2.8.88,3.17,5.84,5.71,9.2l4.46.18c.97,1.3,1.86,4.47.06,5.05-1.55-2.4-5.83-2.11-7.03-4.63-1.88-.13-4.23-2.91-4.3-4.87-1.46-1.56.11-3.42,1.1-4.93Z"/>
      <path class="cls-60" d="M75.92,20.35l5.81-.49c2.9-.99,4.97-.71,6.2.85l-4.46.52c-3.71,1.71-7.46,3.61-11.24,5.71l-1.27-.63c-1.64.94-2.67.95-3.1.03l8.06-5.99Z"/>
      <path class="cls-2" d="M100.48,12.35c-.07.34.36,1.5-.12,1.74-7.77,3.82-5.44,6.03-7.71,3.49,2.46-2.09,4.39-5.17,7.83-5.22Z"/>
      <path class="cls-92" d="M89.99,18.76c.98.26,1.54,1.17,1.67,2.14-.21.26-.64.36-.82.64-1.02-.03-2.08-.18-2.9-.83-1.76-1.39-4.1-.71-6.2-.85,1.41-.12,2.49-1.65,4.76-.81,1.21.45,2.63.22,3.5-.29Z"/>
      <path class="cls-59" d="M101.58,15.31c-.49,1.45-2.22,2.48-3.86,2.3.36-1.88,2.01-2.54,3.86-2.3Z"/>
      <path class="cls-94" d="M69.73,45.92c1.19.28,3.19,1.19,3.75,2.45.61,3.08,2.37,5.86,5.3,8.35l-.65,1.33c1.26.22,1.61.68,1.05,1.38,3.35-.25,3.38,3.23.15,2.94-.81-.25-2.39-.24-2.93-.99-3.56-3.46-8.91-10.68-6.68-15.45Z"/>
      <path class="cls-86" d="M67.84,46.32c.26-.22.53-.43.77-.67l1.12.27c.23,5.86,4.4,10.19,6.68,15.45l-.07.67c-2.28,3.09-8.1-3.28-5.36-5.57-3.17.07-4.55-3.01-3.32-5.74-2.94-.86-1.45-2.91.18-4.42Z"/>
      <path class="cls-36" d="M73.49,48.36c1.75,3.9,4.42,6.39,8.54,7.65,3.92,2.61-1.22,3.43-3.89,2.02-.94-1.16-7.25-8.94-4.65-9.68Z"/>
      <path class="cls-100" d="M82.02,56.01l.84-.04c2.42,1.24,3.32,2.82,4.3,4.87.14.36.94,1.05.68,1.5-.3.53-1.23.49-1.61.54-.47,2.38-3.95-.31-2.03-2.13-1.73.92-4,.37-5.02-1.33-.18-.49-.72-.96-1.05-1.38,1.73.3,3.75.01,3.89-2.02Z"/>
      <path class="cls-92" d="M70.96,26.32c1.49-1.32,8.63-4.63,12.51-5.09-.42.39-.32.72.14,1.01l-.29,1.53c-2.22.97-2.67,1.98-1.35,3.02,1.37-.19,2.95-.08,4.04,1.07-1.89.86-4.05,1.04-6,.21-1.06-.45-1.43.43-2.21.74-2.94,1.17-6.13-.01-9.13.82-1.77,2.4-3.35.82-1-1.17.1-1.23,1.19-1.95,3.29-2.15Z"/>
      <path class="cls-98" d="M57.13,29.82c1.95-1.27,4.35-1.18,6.61-1.36,2.22.75,2.88,1.53,2.49,4,.51,2.07-.32,4.74,2.23,5.59-1.47.95-2.37.34-3.24.48-.41-.3-1.48.18-1.49-.7-.04-2.15.05-4.15-2.34-4.97-1.23-.42-1.86,1.22-1.89,2.21.08,1.96-.74,1.95-1.22.02-2.75-.54-3.49-3.66-1.15-5.27Z"/>
      <path class="cls-97" d="M63.74,28.46c1.18-.67,2.98-1.02,3.94,0-.28.71.23,1.38,1,1.17-.14,1.35-1.52,2.22-2.45,2.83-1.88-.34-2.37-2.32-2.49-4Z"/>
      <path class="cls-18" d="M83.62,22.24c.84.07,1.76-.46,3.08.16l-4.73,4.39-9.12,1.26c3.75-2.13,6.98-4.48,10.77-5.81Z"/>
      <path class="cls-32" d="M92.78,20.99c.64-.98,1.8-1.54,2.82-.78.12,1.35-.5,2.61-1.77,3.15-.47-.73-.83-1.53-1.05-2.37Z"/>
      <path class="cls-45" d="M54.03,40.62c-.85-1.68-.25-1.53,1.39-.68,1.04-2.27,1.03-2.6-.03-1-2.48,3.02-3.36-2.08-2.32-4,.95-1.76,4.21-1.65,5.22.15.3-.18.87.09,1.22-.02,1.26,3.67,1.34,7.69.28,11.42-1.54,2.08-5.59,1.18-7.15-.45l-.03-1c.55-1.56,1.03-3.03,1.43-4.42Z"/>
      <path class="cls-82" d="M60.7,47.81c.33-.07.68-.02,1.01-.06,1.38-1.5,2.76-2.8,4.71-1.45l1.43.02c1.41,1.12-.31,3.18-.18,4.42-.11,2.99-4.49,2.7-4.99-.06-.94,2.83-4.02,1.84-4.03-1.03-3.48-2.21-.84-3.39,2.06-1.83Z"/>
      <path class="cls-67" d="M66.46,43.64c-.78.72-.43,1.8-.04,2.66-1.34,1.18-3.15,2.99-4.71,1.45.06-1.33.48-2.55,1.48-3.95.67-.94,2.06-1.31,3.27-.16Z"/>
      <path class="cls-101" d="M52.63,46.04c2.41-.31,4.74.5,7.15.45.35.41.65.86.92,1.32-.6.13-1.55-.1-2.32.62-.28.26-.17.71.27,1.21-1.44,2.38-4.34,1.29-5.49-1.03-1.42-.38-1.5-1.47-.52-2.57Z"/>
      <path class="cls-44" d="M79.19,59.41c1.83-.82,4.11-.61,5.02,1.33l.35,2.1c.43.03.66.76.69,2.19-2.14-.52-4.53-.68-5.9-2.68,1.27-.34.16-2.07-.15-2.94Z"/>
      <path class="cls-10" d="M84.2,60.75c.23.49.28.94.33,1.33.08.74,1.06,1.05,1.71.8.12.72,3.97,1.88,1.15,1.93-.42,0-1.91.54-2.14.23-.63-.88-1.63-1.45-2.88-2.38-.1-.67,1.22-1.66,1.84-1.91Z"/>
      <path class="cls-95" d="M52.18,30.11c-1.59-1.13-1.07-1.73.79-.92l4.16.62c.58,1.71,1.06,3.46,1.15,5.27-1.01.61-2.18.71-3.94.78-1.18.05-1.15,1.7-.97,2.6.12.58,1.3.52,2.02.47.88.25.88.59.03,1-.48,0-.93.56-1.39.68.08,1.95-.69,2.17-1.57.42-.67-.12-1.19-.25-1.2-.42-.26-3.12.31-7.66.93-10.52Z"/>
      <path class="cls-105" d="M50.45,10.32c1.86-2.46,2.16-2.43,3.14.57,1.26.41.68,2.25.09,3.1-.3,1.55-1.09,2.93-2.13,4.1-2.74,1.47-3.31-.34-1.8-2.73-.86-.25-.82-.53.06-.85-.13-1.09-.71-2.15-1.72-3.18l.52-1.23c.74-1.83,1.56-1.72,1.85.22Z"/>
      <path class="cls-99" d="M51.69,19.06c-.88-.2-.92-.52-.13-.97,2.44,2.2,1.41,5.92,1.41,8.93.15,2.05-1.79,2.12-2.16-.02-3.73-1.54-1.13-5.57.88-7.94Z"/>
      <path class="cls-11" d="M67.87,26.34l3.1-.03c-.98.87-2.21,1.41-3.29,2.15-1.22.83-2.72.83-3.94,0l-.07-1c1.36-.5,2.76-.91,4.2-1.12Z"/>
      <path class="cls-37" d="M53.59,10.89c.41,0,1.07-.66,1.24-.33.47.89.44,1.89.51,2.39-.46.46-1.14.71-1.67,1.04-1.34-.39-.41-2.18-.09-3.1Z"/>
      <path class="cls-29" d="M50.81,27l2.16.02v2.18s-.78.92-.78.92c.15,1.95-.66,1.93-1.24-.02-2.19.49-2.29-.45-1.06-2.21-1.26-1.46-.71-1.98.93-.88Z"/>
      <path class="cls-83" d="M52.59,45.04l.03,1c.78.83.96,1.64.52,2.57-.46,1-.19,2.36-.43,3.43-1.15,1.19-1.87.17-2.17-3.07-.89-.18-.87-.5-.03-.94.23-2.26.91-3.25,2.06-2.99Z"/>
      <path class="cls-39" d="M55.42,39.94l-.03-1c.07-.63-1.29-1.27-.92-1.58.59-.48,2.19-.86,2.37-.41.14.36.35,1.2,2.27,2.17-1.97.87-2.43.82-3.68.82Z"/>
      <path class="cls-39" d="M52.45,41.04l1.57-.42c-.12,1.79,1.08,4.45-1.43,4.42-1.74.15-1.9-3.59-.14-4Z"/>
      <path class="cls-68" d="M43.59,47.45c.28-2.34.87-3.79,3.01-2.2,1.13.45,2.02.53,2.93-.24.09-.89.39-.9.86-.09,1.09.43,1.14,1.46.13,3.1l.03.94c.08.89-.18.91-.75.15l-.98.13-5.09.1c-3.39,1.65-3.44-2.32-.15-1.9Z"/>
      <path class="cls-57" d="M52.16,4.03c.25-.88.59-.88,1-.03.86,2.25,1.25,4.55.43,6.89-1.02-.34-2.05-.59-3.14-.57-1.31-1.89-.27-5.19,1.71-6.28Z"/>
      <path class="cls-33" d="M50.98,1.01C51.52.35,52.12-.01,53.02,0c.31,1.23-.31,2.82.14,4l-1,.03c-2.59,1.23-2.98.22-1.18-3.03Z"/>
      <path class="cls-54" d="M50.39,44.92c-2.88.19-2.92-2.13-.29-3.05-1.89-.05-2.14-1.27-.77-3.67-.55-3.77-.02-6.48,1.6-8.12l1.24.02.27,10.93.14,4c-.71.99-1.15,2.17-2.06,2.99-.03-1.04-.04-2.07-.13-3.1Z"/>
      <path class="cls-103" d="M42.62,17.37c.18-1.12,1.15-2.16,2.89-3.1-.93-.34-.95-.71-.04-1.09-2.54-1.19-1.68-2.46.98-1.91,1.87-.51,3.62,1.4,3.35,3.24l-.06.85c1.7,2.97-3.29,5.69-5.81,6.8-1.65.56-3.34.65-5.07.28-.34,1.5-1.62,1.42-2.15-.1.26-2.39,2.23-4.05,5.91-4.97Z"/>
      <path class="cls-26" d="M50.98,1.01c-.13,1.15.19,2.34,1.18,3.03.41,2.3.18,4.76-1.71,6.28-.62.01-1.23-.2-1.85-.22-1.38.91-1.69-.51-1.3-1.86.19-2.79,1.95-5.12,3.68-7.23Z"/>
      <path class="cls-113" d="M49.75,15.36c.73.81,1,2,1.8,2.73-.03.3.22.68.13.97-.63,1.31-1.25,1.67-1.88,1.08-3.24,3.59-5.19,4.27-5.87,2.02l5.81-6.8Z"/>
      <path class="cls-25" d="M46.33,9.02c.35-.23.67-.5.97-.79.69.44.94,1.19,1.3,1.86.47.86,1.36,1.35,1.98,2.18.57.77.2,1.75-.77,2.23-1.32-.86-2.23-2.16-3.35-3.24-2.64-.53-2.58-1.27-.13-2.25Z"/>
      <path class="cls-88" d="M49.81,20.13c.45-.58,1.22-.93,1.88-1.08-.75,2.58-.93,5.26-.88,7.94l-.93.88c-2,.41-5.22-.11-3.87-2.81l-1.09-1.86c1.77-.39,3.41-1.41,4.89-3.07Z"/>
      <path class="cls-106" d="M30.74,21.65c.27-.89.63-.89,1.07-.05l1.73,1.21c-1.34,1.33-1.54,2.31-.6,2.93.74-1.22,2.41-1.31,5.04-.28l.06-.89c-1.3-1.34-.75-1.81,1.05-1.35,1.31-1.94,6.72.06,6.92,1.83l3.87,2.81c.04.81.94,1.47,1.06,2.21.67,3.96-1.21,7.82-.83,11.79-1.27,2.15-4.1,2.26-4.56-.49-.4-.81-.16-1.13.73-.93-.09-3.45-.16-6.86-.22-10.22l-1.03-1.06c-1.31,1.28-3.43.77-5.02.24-.65,1.28-3.41.93-3.74-.61-.7.78-1.8.42-3.3-1.09-1.36,2.89-3.28,1.95-3.22-1.03-.86-.33-.83-.69.03-1.08-2.98-1.11-1.92-3.71.96-3.94Z"/>
      <path class="cls-55" d="M39.74,47.45c-.69-2.46.2-3.38,2.67-2.69.13-.89.44-.89.91-.07,1.6.05,1.69.96.27,2.75.03.35-.37.87-.58,1.2-.46.71-.12.86.73.71-.45.65-1.18,1.01-1.96,1.07-2.27,3.81-3.27-.07-2.03-2.97Z"/>
      <path class="cls-62" d="M38.58,52.46c-3.34-.39-2.4-6.67,1.16-5-.07.71-.17,1.51.12,2.39.23.69,1.15.79,1.91.57l-.93,2.03c.62,1.43.77,2.85-.89,3.03-1.44,1.26-1.9.25-1.37-3.03Z"/>
      <path class="cls-81" d="M40.85,52.45c1.45.66,1.26,2.57,1.29,3.96.01.56.12,1.48,0,2-2.61,1.49-3.83-.9-2.19-2.93.35-1.02.44-2.03.89-3.03Z"/>
      <path class="cls-17" d="M43.32,44.7c-1.04-1.02-1.26-2.5.34-3.02.3-1.7,1.12-1.91,1.89-.3,1.48.76,3.17-.59,4.56.49l.29,3.05-.86.09c-1.05,1.33-2.03,1.74-2.93.24-1.17.48-2.08,1.37-3.01,2.2-.07-.91-.36-1.82-.27-2.75Z"/>
      <path class="cls-56" d="M46.6,45.25c.98-.05,1.96-.13,2.93-.24-.06.72-.5,1.24-.85,1.7-.54.7-1.55.9-2.01.02-.24-.47.03-1.14-.07-1.48Z"/>
      <path class="cls-20" d="M11.8,29.31c-.29-1.73,1.9-3.82,3.01-4.75,2.42-1.86,3.99,1.37,3.04,4.09.55.89.76,2.55.63,4.98,2.39.47,1.7,1.62-.51,2.43l-.51.96c-1.41-1.04-2.49-1.28-3.25-.7-2.11-1.27-2.01-4.56-2.41-7.01Z"/>
      <path class="cls-109" d="M16.78,22.28c.33.02.68-.1,1-.03,1.02.98,2.39,1.58,4.1,1.81l.98,1.92c-1.84.26-3.51,1.15-5.01,2.68-.43.74-1.39.33-1.36-.45.12-1.77-.36-2.97-1.68-3.63.76-.64,1.27-1.58,1.97-2.29Z"/>
      <path class="cls-78" d="M3.15,31.71c1.26.63,1.83,1.95,2.33,3.21,2.09,2.27.71,3.41-.94.87-.79-.65-1.61-1.24-2.48-1.77-.34-.21-.38-.96-.06-1.21-.92-1.6-.4-2.11,1.15-1.1Z"/>
      <path class="cls-85" d="M0,28.87c.82-.09,1.61.2,2.03.93l1.12,1.91c-.29.46-.73.77-1.15,1.1-.83-1.23-1.68-2.47-2-3.94Z"/>
      <path class="cls-69" d="M43.94,22.16c2.32,1.09,3.68-1.41,5.87-2.02l-3.81,4.93-6.92-1.83c-.89.06-.95-.21-.22-.79.78-.24,1.47-1.8,2.32-1.57.99.27,1.91.89,2.76,1.29Z"/>
      <path class="cls-87" d="M31.81,21.6c1.26-.06,2.54.16,3.8-.05,1.11-1.63,1.8-1.1,1.1.79.63.1,1.53.28,2.15.1l.22.79-1.05,1.35c-1.59.32-3.29.71-5.09,1.17-2,.28-1.55-3.03-1.13-4.14Z"/>
      <path class="cls-15" d="M41.54,17.37c.33-.58.69-.57,1.08,0-1.67,2.09-4.46,2.71-5.91,4.97-.41-.06-.71-.64-1.1-.79.27-2.84,3.36-3.83,5.93-4.18Z"/>
      <path class="cls-76" d="M45.52,14.27c-.2,1.66-2.04,2.04-2.89,3.1h-1.08c.73-1.66,2.1-3.04,3.98-3.1Z"/>
      <path class="cls-96" d="M29.75,26.67c1,.23,2.14,1.18,3.22,1.03.88.25.88.59.04,1.01.82,1.23,1.22,2.57,1.2,4.02-.42.26-.86.54-1.26.84-2.9.62-4.18.08-3.83-1.62-2.1,1.47-4.34.06-4.06-2.99.26-2.81,2.5-3.27,4.67-2.29Z"/>
      <path class="cls-53" d="M24.95,27.66c-2.69-1.23-1.76-2.73,1.11-1.91,1.23-.17,2.47-.19,3.72-.16.09.34-.07.73-.03,1.08-1.01.42-1.26.38-1.93.23-1.53-.34-3.32,2.49-2.14,3.17,1.39.8,2.62,1.34,3.45,1.88,2.89.72,1.6,2.29-.71,2.99-1.42,2.01-3.24.08-4.41-1.66-2.06-3.1-1.75-4.98.94-5.63Z"/>
      <path class="cls-34" d="M38.03,24.58c.74.42,1.54.89,2.93,1.48-2.82,1.07-5.25-.7-8.02-.31-.01-.5-.26-1,.08-2.02,1.91.41,3.65.07,5.01.85Z"/>
      <path class="cls-9" d="M36.27,28.79v1.91c-.32-.07-.72.12-1.05.08-1.47,1.06-2.7-.49-2.21-2.07l-.04-1.01c1.41-.19,2.17.52,3.3,1.09Z"/>
      <path class="cls-5" d="M17.85,28.65l4.03-4.59c-.89-.23-.9-.57-.06-1,1.75.35,3.72.81,4.25,2.7-.72.37-1.04,1.13-1.11,1.91-.22,1.52-1.42,1.95-3.59,1.28-1.9,2.35-1.96,3.79-.2,4.3-.07-1.65,1.53-1.6,1.88.06.22-.84.54-.82.97,0,2.36,1.32,1.79,2.37-.66,3.36-.67,2.04-5.02,1.48-5.39-.59l-.11-7.41Z"/>
      <path class="cls-50" d="M17.78,22.24l4.04.81.06,1c-.99.13-2.03.32-3.35.07-.7-.14-.94-.98-.75-1.88Z"/>
      <path class="cls-64" d="M38.27,64.55c1.06.05,1.41.83,1.05,2.35l1.31.65c.2.39.89.76,1.02,1.38.06.28-4.02,3.65-8.38,1.56-1.68-.8-3.24-2.37-4.68-3.53-2.06-5.15,7.66-5.92,9.69-2.4Z"/>
      <path class="cls-111" d="M37.66,56.72c-2.56-1.45-2.35-4.34.92-4.26.12,1.14.43,2.31,1.37,3.03.69,1.01,1.32,2.06,2.19,2.93l-1.58,7.06c-.92-.03-1.01-.37-.3-.99-1.99-.26-2.7-.91-2.12-1.97-2.29-1.07-2.35-4.32-.49-5.79Z"/>
      <path class="cls-70" d="M38.27,64.55c-.23-.98.44-1.01,2-.07l.3.99c-.12.54.15,1.52.06,2.08.07,1.1-1.01,1.04-2.86,1.13l.5-4.13Z"/>
      <path class="cls-13" d="M32.71,48.74c-1.36-1.47-.45-3.94,1.86-4.16,1.79-.96,4.01-.92,5.96-1.12-.07-1.32.41-1.11,1.27-.13l.61,1.44c-.85.89-1.67,1.96-2.67,2.69-1.71,1.23-.77,3.25-1.16,5-.32,1.41-1.17,2.69-.92,4.26-1.56,2.5-2.18,2.04-2.47-.78-.69-.21-1.13-.96-1.3-2.24-1.54-.32-2.44-4.06-1.17-4.96Z"/>
      <path class="cls-27" d="M18.12,60.25c-.86-1.09-.46-3.49,1.07-3.77-.69-2.08-.11-2.46,1.76-1.14l3.07-.33c1.58.86,1.06,3.31,1.89,4.69.43,1.37-.71,1.02-1.82.34-1.59.2-.38-3.57-.43-3.38-.42,1.53-.97,4-.53,5.4.85.4.78.74-.15,1.01-1.18.2-2.59.69-3.35.08-.92-.73-1.86-1.97-1.52-2.9Z"/>
      <path class="cls-48" d="M17.96,36.06c1.67.74,3.62,1.27,5.39.59.67-3.88,6.18-.72,5.22,1.99-.95.57-2.18,1.16-2.24,2.34-2.04-2.81-5.86-2.14-9.05-2.81l-3.07-1.85c-.18-1.06.07-1.89,1.1-1.44l2.65,1.17Z"/>
      <path class="cls-24" d="M9.42,42.68c-1.25-1.63-.75-2.3,1.09-1.23,1.86,1.64,3.54,3.6,4.17,6.03.51.8.2,1.07-.82.88-1.5,2.44-3.51-1.97-4.27-4.04l-.17-1.65Z"/>
      <path class="cls-46" d="M16.67,52.18c-1.68-1.53-1.14-2.17.82-.97,1.42,1.14,2.6,2.53,3.46,4.13-.41.4-1.02,1.25-1.76,1.14-.99.86-1.71.1-2.14-2.29-2,.12-2.08-.88-.38-2.01Z"/>
      <path class="cls-51" d="M13.86,48.37c.29-.28.56-.57.82-.88,1.42.79,2.19,2.26,2.81,3.73-.6.04-1.05.27-.82.97-1.43,2.26-1.9,1.8-1.64-.79-1.74-.42-3.13-2.22-1.17-3.02Z"/>
      <path class="cls-112" d="M5.48,34.92c1.33.85,2.26,2.17,2.73,3.67.57,1.33-.02,1.7-.89.63-1.2-.9-2.53-1.73-2.77-3.43.75.57,1.63-.01.94-.87Z"/>
      <path class="cls-91" d="M7.31,39.22c-.39-.71.48-.66.89-.63,1.05.7,1.98,1.62,2.3,2.87-.47.21-1.15.66-1.09,1.23-1.81.06-1.15-2.74-2.1-3.46Z"/>
      <path class="cls-65" d="M24.01,33.29c.45-.28,1.98-.56,2.63-.09.55.4.24,1.66,1.78,1.75,1.21-1.64,1.9-1.11,1.17.83.91-.3,1.12,0,.65.88-.56.75-.82,1.48-1.67,1.99-1.49-1.46-3.13-2.78-5.22-1.99.01-1.15.29-2.28.66-3.36Z"/>
      <path class="cls-90" d="M31.71,48.77c.25-.88.59-.88,1-.03.25,1.66.51,3.39,1.17,4.96l.03,1c-.11.85-.43,1.19-.96,1.03-2.01.34.37-5.03-3.2-7l1.96.04Z"/>
      <path class="cls-107" d="M33.01,28.71c.97.4,1.71,1.15,2.21,2.07.06.83-.31,1.52-1.01,1.95-.56-.51-1.82-.74-2.06-1.54-.27-.89.57-1.79.86-2.48Z"/>
      <g>
        <path class="cls-110" d="M28.57,38.64c-1.56-2.16-.81-2.83,1.67-1.99-.22-.75.33-1.45,1.64-2.11-1.23-1.45-.64-1.75,1.07-.98-1.08-1.45-.66-1.73,1.26-.84-1.21-1.39-.76-2.1,1.01-1.95.22-.9.58-.91,1.06-.08,1.12-.95,2.97-.87,5.54.26l2.26-.63c-.11-.43.21-.82.96-1.17,1.46-.46,2.87-1.2,3.96.51-4.23.17,2.73,9.42-2.71,10.78-.89-.14-1.76.27-2.63,1.23-.02.97-.25,2.02-.34,3.02l-.91.07c-1.86.57-2.13-.16-.61-1.44-1.58-1.09-2-1.05-1.27.13-.39,2.93-3.99,2.99-5.96,1.12-1.79.44-2.74,1.83-2.86,4.19.31,1.02-.34,1.01-1.96-.04-3.6,1.38-4.09-2.97-.32-2.88-.09-1.61.45-2.54,2.07-3.08-.82.17-1.38-.13-1.96-.66-.78-.71,3.36.33-1.61.61-.63.03-1.13-.24-1.53-.72-.95-.18-.94-.53-.07-1.02-2.01-2.63-.48-3.95,2.24-2.34Z"/>
        <g>
          <path class="cls-104" d="M36.27,28.79c1,.51,2.81-.43,3.74.61l4.06.93c-1.8,2.27-5.28.93-7.79.37-1.21-.44-1.64-1.71,0-1.91Z"/>
          <path class="cls-63" d="M46.29,40.44c-.27.25-.41.76-.73.93-.56.3-1.27.27-1.89.3,0-.49-.02-1.63.22-2.2.19-.46.63-1,1.71-.69.64.19.68.86.69,1.66Z"/>
          <path class="cls-80" d="M45.04,29.16c-.01.57-.4,1.06-.96,1.17-1.47.29-3.03.23-4.06-.93,1.59-.28,3.46.26,5.02-.24Z"/>
          <path class="cls-102" d="M29.13,31.95c1.12.74,3.33.06,3.83,1.62-.33.25-.86.66-1.07.98-.81.78-1.57,1.19-2.29,1.23-.34-.17-.81-.81-1.17-.83l.71-2.99Z"/>
          <path class="cls-41" d="M31.5,42.78c-.67,1.04-1.92,1.8-2.96,1.1-.95-.31-1.86-.87-2.14-1.88,1.54-.31,2.86-1.5,4.91-1.18.24.89.28,1.48.2,1.95Z"/>
          <path class="cls-66" d="M31.88,34.54c-.15,1.02-1.1,1.4-1.64,2.11-.28-.2-.35-.72-.65-.88.71-.33,1.52-2.15,2.29-1.23Z"/>
          <path class="cls-12" d="M38.16,32.7c-.99,1.7-2.12,2.76-3.74,4.06-.36-2.05.72-3.92,3.74-4.06Z"/>
          <path class="cls-47" d="M41.8,43.33l-1.27.13c-.8-1.2-2.24-.69-4.15-1.09.69-1.39,2.07-.74,3.57-.91.86-.1,1.35.69,1.86,1.87Z"/>
          <path class="cls-52" d="M34.57,44.58c-1.47.79-2.07,2.68-1.86,4.16l-1,.03c.01-1-.39-2.2,0-3.38.33-1,1.92-.77,2.86-.82Z"/>
          <path class="cls-52" d="M31.5,42.78c-.23,1.27-.98,2.41-2.07,3.08.14-.29.1-.92.01-1.37-.06-.3-.52-.48-.9-.6.41-1.23,1.88-1.11,2.96-1.1Z"/>
          <path class="cls-35" d="M42.32,37.97c-1.4.76-2.99.81-5.05.21,1.04-1.08,2.4-1.01,5.05-.21Z"/>
        </g>
      </g>
      <path class="cls-89" d="M24.95,27.66c-.16,1.9-.59,3.76-.94,5.63-.21.12-.7.02-.97,0-1.31-1.54-1.93-1.56-1.88-.06-.46.35-1.95,1.57-2.25.1-.57-2.79.28-5.83,2.18-6.83l3.86,1.16Z"/>
      <path class="cls-16" d="M23.04,33.3l-1.88-.06c.13-.64-1.32-1.39-.9-1.69.72-.52,2.1-.76,2.46-.4.45.45.53,1.58.32,2.16Z"/>
      <path class="cls-84" d="M27.2,62.94c-.95-.22-.94-.56-.03-1-2.37-1.28-.3-1.93,1.96-1.23,1.15.36,2.6-.19,3.67.63.76-1.6,1.4-1.77,1.75.05,2.13-2.1,2.96-1.75,3.6,1.13.63.73,1.36,1.37,2.12,1.97l-2,.07c-3.77-1.37-7.31-.96-9.69,2.4-.6-.44-1.6-.44-2.26-.84-1.24-.85-.95-1.91.88-3.18Z"/>
      <path class="cls-38" d="M24.1,60.04c1.96.11,2.98.74,3.07,1.89.03.26-.11.8.03,1-.44,1.51-1.85,2.26-3.14,1.2-.29-.41-.74-.69-1.07-1.07-.02-.32.21-.69.15-1.01-.82-1.32-.64-2.83.96-2.02Z"/>
      <path class="cls-61" d="M27.2,62.94c1.03,1.11-1.01,1.99-.88,3.18-.87-.53-1.66-1.15-2.26-1.98.96-.6,2.02-1.01,3.14-1.2Z"/>
      <path class="cls-43" d="M35.19,55.94l2.47.78c.3,1.91.49,3.86.49,5.79-1.18-.44-2.38-.82-3.6-1.13-.7-1.44-.49-3.25.64-5.45Z"/>
      <path class="cls-4" d="M33.1,59.73l.82-5.03-.03-1c.31.74,1.35,1.26,1.3,2.24-.08,1.83.15,3.75-.64,5.45-.49-.12-1.35.25-1.75-.05.19-.42-.04-1.27.29-1.61Z"/>
      <path class="cls-61" d="M25.92,59.7c1.3-.24,2.17.68,3.21,1.01-.79.06-2.09.16-1.96,1.23-.97-.49-2.64-.7-3.07-1.89l1.82-.34Z"/>
      <path class="cls-49" d="M32.96,55.73c-.02-.49.55-.92.96-1.03.06,1.76.5,3.68-.82,5.03l-.14-4Z"/>
      <path class="cls-19" d="M24.1,60.04c-.96.18-1.11,1.16-.96,2.02-1.92-.99-.39-3.53.28-6.01,1.33,1.23.22,2.73.68,3.99Z"/>
    </g>
  </g>
</svg>