<?xml version="1.0" encoding="UTF-8"?>
<svg id="Enemy" xmlns="http://www.w3.org/2000/svg" viewBox="0 0 86.8 127.81">
  <defs>
    <style>
      .cls-1 {
        fill: #181818;
      }

      .cls-2 {
        fill: #111;
      }

      .cls-3 {
        fill: #4f4f4f;
      }

      .cls-4 {
        fill: #d8c1ad;
      }

      .cls-5 {
        fill: #86604c;
      }

      .cls-6 {
        fill: #434343;
      }

      .cls-7 {
        fill: #010101;
      }

      .cls-8 {
        fill: #303132;
      }

      .cls-9 {
        fill: #624234;
      }

      .cls-10 {
        fill: #2c2c2c;
      }

      .cls-11 {
        fill: #141414;
      }

      .cls-12 {
        fill: #2f1e0f;
      }

      .cls-13 {
        fill: #f5eccc;
      }

      .cls-14 {
        fill: #353534;
      }

      .cls-15 {
        fill: #d1bfac;
      }

      .cls-16 {
        fill: #c09680;
      }

      .cls-17 {
        fill: #1b1009;
      }

      .cls-18 {
        fill: #505050;
      }

      .cls-19 {
        fill: #a68367;
      }

      .cls-20 {
        fill: #684837;
      }

      .cls-21 {
        fill: #272727;
      }

      .cls-22 {
        fill: #6c5531;
      }

      .cls-23 {
        fill: #1c273b;
      }

      .cls-24 {
        fill: #6a4f38;
      }

      .cls-25 {
        fill: #271407;
      }

      .cls-26 {
        fill: #e8b695;
      }

      .cls-27 {
        fill: #e3b593;
      }

      .cls-28 {
        fill: #1e1e1e;
      }

      .cls-29 {
        fill: #6f5336;
      }

      .cls-30 {
        fill: #152335;
      }

      .cls-31 {
        fill: #142139;
      }

      .cls-32 {
        fill: #424242;
      }

      .cls-33 {
        fill: #7c6256;
      }

      .cls-34 {
        fill: #241b13;
      }

      .cls-35 {
        fill: #39291f;
      }

      .cls-36 {
        fill: #545455;
      }

      .cls-37 {
        fill: #2d180c;
      }

      .cls-38 {
        fill: #5c2700;
      }

      .cls-39 {
        fill: #1b0c02;
      }

      .cls-40 {
        fill: #2f2f2f;
      }

      .cls-41 {
        fill: #868289;
      }

      .cls-42 {
        fill: #2d2d2f;
      }

      .cls-43 {
        fill: #fbf9e8;
      }

      .cls-44 {
        fill: #404040;
      }

      .cls-45 {
        fill: #22180e;
      }

      .cls-46 {
        fill: #6b4932;
      }

      .cls-47 {
        fill: #090300;
      }

      .cls-48 {
        fill: #311a12;
      }

      .cls-49 {
        fill: #b59c8a;
      }

      .cls-50 {
        fill: #2b1e12;
      }

      .cls-51 {
        fill: #6c4f3a;
      }

      .cls-52 {
        fill: #271e16;
      }

      .cls-53 {
        fill: #7f5843;
      }

      .cls-54 {
        fill: #765029;
      }

      .cls-55 {
        fill: #6a4734;
      }

      .cls-56 {
        fill: #625f64;
      }

      .cls-57 {
        fill: #ae8769;
      }

      .cls-58 {
        fill: #3a3a3a;
      }

      .cls-59 {
        fill: #202020;
      }

      .cls-60 {
        fill: #212121;
      }

      .cls-61 {
        fill: #664a34;
      }

      .cls-62 {
        fill: #866242;
      }

      .cls-63 {
        fill: #2b1d0e;
      }

      .cls-64 {
        fill: #20211c;
      }

      .cls-65 {
        fill: #5e3d2b;
      }

      .cls-66 {
        fill: #b28d72;
      }

      .cls-67 {
        fill: #101c2d;
      }

      .cls-68 {
        fill: #413a3a;
      }

      .cls-69 {
        fill: #d5b0a2;
      }

      .cls-70 {
        fill: #030402;
      }

      .cls-71 {
        fill: #2b2b2b;
      }

      .cls-72 {
        fill: #222f48;
      }

      .cls-73 {
        fill: #333c49;
      }

      .cls-74 {
        fill: #1a1a1a;
      }

      .cls-75 {
        fill: #1d1d1d;
      }

      .cls-76 {
        fill: #c5ac9a;
      }

      .cls-77 {
        fill: #192335;
      }

      .cls-78 {
        fill: #654d37;
      }

      .cls-79 {
        fill: #272728;
      }

      .cls-80 {
        fill: #fde6d8;
      }

      .cls-81 {
        fill: #85746d;
      }

      .cls-82 {
        fill: #161a25;
      }

      .cls-83 {
        fill: #613c11;
      }

      .cls-84 {
        fill: #171209;
      }

      .cls-85 {
        fill: #3a210b;
      }

      .cls-86 {
        fill: #1b1f1d;
      }

      .cls-87 {
        fill: #241208;
      }

      .cls-88 {
        fill: #d8c5b5;
      }

      .cls-89 {
        fill: #a97f69;
      }

      .cls-90 {
        fill: #bbab9d;
      }

      .cls-91 {
        fill: #644e3c;
      }

      .cls-92 {
        fill: #353535;
      }

      .cls-93 {
        fill: #41474f;
      }

      .cls-94 {
        fill: #393939;
      }

      .cls-95 {
        fill: #211407;
      }

      .cls-96 {
        fill: #684534;
      }

      .cls-97 {
        fill: #3e4242;
      }

      .cls-98 {
        fill: #1c2432;
      }

      .cls-99 {
        fill: #543820;
      }

      .cls-100 {
        fill: #4b4b4b;
      }

      .cls-101 {
        fill: #414553;
      }

      .cls-102 {
        fill: #9f735d;
      }

      .cls-103 {
        fill: #fbf2ce;
      }

      .cls-104 {
        fill: #cda185;
      }

      .cls-105 {
        fill: #7c5b3b;
      }

      .cls-106 {
        fill: #190c04;
      }

      .cls-107 {
        fill: #46291a;
      }

      .cls-108 {
        fill: #101010;
      }

      .cls-109 {
        fill: #4f382b;
      }

      .cls-110 {
        fill: #241608;
      }

      .cls-111 {
        fill: #c19c7e;
      }

      .cls-112 {
        fill: #6b4f37;
      }

      .cls-113 {
        fill: #bf9c81;
      }

      .cls-114 {
        fill: #161616;
      }
    </style>
  </defs>
  <path class="cls-22" d="M37.81,49.07l.13.76-3.15,2.06c-.5-.13-1.49.03-2.23-.21-.47-.15-1.02-1.46-.02-1.9,1.8-.78,3.82.32,5.27-.71Z"/>
  <g>
    <path class="cls-1" d="M73.96,114.08c3.41.86,5.11,4.03,6.82,6.91-.12,3.55-3.99,3.14-6.86,2.94-.74-.96-.63-2.84-2.19-3.09-.83-2.12.37-4.75-.75-6.78.19-1.95,2.43-1.54,2.97.02Z"/>
    <path class="cls-108" d="M66.77,103.4c1,.53,1.99,1.23,2.1,2.41,1.95.76,2.57.23,1.87-1.6l2.35-1.38c1.23.51,1.44,2.62,1.38,3.88-.11,2.51,1.28,5.37-.52,7.37-.94-.24-2.02.1-2.97-.02-1.39-2.51-2.7-5.43-5.17-6.99-2.19-1.39-2.43-4.55-3.97-6.25.24-1.1.83-1.34,1.78-.73,2.29-.15,3.29,1.1,3.15,3.31Z"/>
    <path class="cls-59" d="M52.56,78.95l.7.72c-.02-5.07,4.83-1.17,2.28,1.35.57,2.57,1.32,5.23,2.25,7.99.75-.11.89.18.46.86,2.66-.45,2.94.61.62,2.06,1.89,2.81,3.17,4.4,5.96,5.84,1.85,2.06,1.55,2.65-1.2,2.34-.62.19-1.21.44-1.78.73-7.74-8.53-2.91-7.32-7.81-10.95-.62-.05-1.15-.15-1.34-.46-.95-1.57-2.67-8.28-2.99-10.34-1.72-.49-2.06-2.15-.74-3.24-.89-.14-.89-.44-.06-.89-3.52-9.32,10.22-8.54,3.52,1.02l.14,2.99Z"/>
    <path class="cls-72" d="M46.69,70.11c1.41.27,2.15,1.88,2.21,4.83l.06.89c-.65,1.8-1.82,5.45-.02,6.41,1.75-.19,2.01.54.59,1.63l1.6,11.38c-.73,1.92-1.89,1.93-3.46.54-2.52-1.55-3.8-3.91-2.88-6.79.97-1.09,1.16-.54,1.42.81-.5-4.36-1.3-8.63-2.42-12.81-.52-.17-.85-.87-.98-2.08-2.94.23-2.82-3.1-.04-3.82-.54-1-.53-1.7.03-2.09,1.65-1.95,3.11-1.1,3.9,1.11Z"/>
    <path class="cls-77" d="M51.38,91.09c-.31,4,3.99,7.57,2.47,10.33-.54.98-3.63,1.12-4.83.22-1.7-1.27-.82-4.17-1.35-5.86,5.35-1.66-.91-11.56,1.86-11.92,2.66.46,4.31,5.72,1.85,7.23Z"/>
    <path class="cls-31" d="M44.79,89c.09-.29.02-.69,0-1-.33-1.46-.66-3.13-1-5v-3c-1.07-.39-.78-2.41,0-3,3.13,1.54,2.15,5.5,2.34,8.77.18,2.98,1.63,5.79.11,8.31-1.19-2.02.38-4.37-1.45-5.08Z"/>
    <path class="cls-72" d="M44.79,88h-1v-5c1.72.95.88,3.34,1,5Z"/>
    <path class="cls-21" d="M19.93,92.86l.9,2.99c3.68-.04,3.43,10.45-.96,8.23.08,4.2-.9,8.13-2.28,12.11.1.29-.1.66-.05.96-.45,2.13-5.46,1.42-4.57-1.26.1-1.53.38-2.83.83-3.9-.45-7.74.76-16.51,3.68-23.53-.11-1.93.65-2,1.3-.13,3.44-1.84,2.92,2.16,1.15,4.52Z"/>
    <path class="cls-108" d="M11.72,117.09c2.26.74,4.54,1.38,6.83,1.93l.16,1.78c.25,2.78-2.37,3.85-4.86,4.09l-2.76.79c.02,2.21-3.14,2.17-5.17,2.11-5-.13-7.93-1.82-4.3-5.72-2.6-1.87,7.45-6.24,8.02-6.19.84.07,1.51.61,2.08,1.2Z"/>
    <path class="cls-74" d="M24.98,92.98c-.05.63.05,1.38-.09,2.02-.5,1.92-.81,3.92-.93,6-.03.99,0,1.99-.1,2.98l-2.74,3.22c-1.76-.02-2-1.82-1.24-3.12,1.12-.76,2.72-1.53,2.73-3,.01-1.28.3-3.52-1.33-3.64-.47-.04-.71,1.65-.99,1.54.32.12-3.16-2.8-.35-6.11,1.66-1.07,3.64-1.6,5.05.12Z"/>
    <path class="cls-28" d="M21.11,107.19c-.62,3.11-1.43,6.58-3.52,9-.97-2.85,1.41-5.55.95-8.79-.13-.93-.53-1.68-.19-2.48.24-.57,1.01-.5,1.53-.85,1.28.36,1.01,2.06,1.24,3.12Z"/>
    <path class="cls-75" d="M67.63,98.06l2.16,3.93c1.03-.62,2.11-.55,3.2-.06.01.26.19.65.1.89-1.19,3.08.71,5.84.26,9.69-2.92-1.61-3.66-4.72-4.48-6.7-.36-1.05-1.06-1.85-2.1-2.41-1.73-.19-2.89-1.66-3.15-3.31.41-.77.84-1.54,1.2-2.34-.68-.59-.58-.92.33-.99,1.08-2.08,2.78-.56,2.48,1.3Z"/>
    <path class="cls-60" d="M67.85,92.99c1.05,1.94,1.01,2.34-.1,1.19l5.05,6.81c.04.32.19.63.2.94-.65.21-.92,1.74-1.72,1.92-.84.2-.94-1.67-1.48-1.87l-2.16-3.93c-.84-.19-1.4-1.74-2.48-1.3-.86-.13-.84-.44-.04-.92-1.22-.6-1.58-1.77-.69-2.84-2.2-.07-2.16-.87.12-1.12-.41-1.57.96-2.29,2.2-1.59.42.8,1.08,1.78,1.09,2.7Z"/>
    <path class="cls-60" d="M68.87,105.81c-.97-.53-1.76-1.35-2.1-2.41.67.08,1.41-.03,2.18.76.37.37.08,1.07-.08,1.65Z"/>
    <path class="cls-14" d="M42.77,71.09l.04,3.82c.56,1.62.88,3.71-.31,4.89-.25-.04-.54.2-.78.13-1.84,1.7-3.77,2.83-5.77,3.39-.19,1.79-1.01,1.72-1.24-.18-1.57,1.96-3.58.26-4.89-1.28-.88-.16-.87-.44-.02-.84-2.56-3.58,4.55-8.22,7.94-8.27-.9-1.57-.04-2.79,2.57-3.66-1.91-.34-1.71-1.08.31-1.11,1.18-.58,1.9.46,2.14,3.1Z"/>
    <path class="cls-75" d="M36.72,84.12c-.78.63-1.52,2.22-2.9,2.66-3.87,1.23-5.95,4.19-8.85,6.2-2.59.41-1.69-3.93-.68-5.03,1.54-1.68,7.95-5.49,10.41-4.81l1.24.18c.83-.29,1.09-.02.78.8Z"/>
    <path class="cls-114" d="M41.72,79.94c-.54,2.36-2.92,3.36-4.99,4.18-.31-.21-.58-.48-.78-.8,1.67-1.3,3.49-4.06,5.77-3.39Z"/>
    <path class="cls-21" d="M23.95,100.99c.06-1.98-1.17-4.91.93-6-.42,1.96.79,4.64-.93,6Z"/>
    <path class="cls-73" d="M43.79,77v3l-1.3-.19c.12-1.63.33-3.26.31-4.89.62.52.86,1.31.98,2.08Z"/>
    <path class="cls-42" d="M53.89,66.06c2-.72,3.03.7,2.74,2.55,1.1.42,1.8,1.57,2.08,3.45-1.07,1.16-1.6,3.06-1.58,5.7-1.4.08-2.93.47-4.57,1.19-1.99-2.45-.98-5.6.49-9.01-2.96.05-4.27,3.03-4.14,5-1.91-.57-2.07-3.04-2.21-4.83-3.36-.83-2.43-5.56,1.17-5.28,3.16-.68,5.17-.28,6.03,1.23Z"/>
    <path class="cls-6" d="M63.5,83.8c-.63-2.04.17-2.21,1.01-.11.99.83,1.11,2.32.36,4.47,1.07,1.2.83,2.78-.93,2.87-1.69.13-3.59-.27-5.69-1.18-.1-.25-.28-.68-.46-.86-.84-1.19-1.67-2.63,0-3-.1-1.86.31-3.2,1.22-4,1.43-2.33,3.88,2.21,4.2,3.82.03.17-1.99-1.53.3-2.01Z"/>
    <path class="cls-3" d="M63.95,91.03c.89-.3,1.08-.01.61.85-.55.25-.62.77-.12,1.12.38,1.88-1.12,2.06-2.4.96-1.3,1.38-2.45-.52-3.15-2.06.24-.6-.41-1.53-.62-2.06.71-.48.68-1.41,1.12-2.7,1.86.95,2.93,2.73,4.57,3.88Z"/>
    <path class="cls-79" d="M57.13,77.76c1.25.09,1.59,1.47.66,2.24-1.04,2.15-1.79,2.49-2.25,1.01l-1.23-3c-.83,1.22.45,2.36.08,2.84-.48.64-1.33-.06-1.64-.37-.37-.38-.56-1.09-.19-1.53.04-1.7.65-4.36,2.89-3.71.63.43.6,2.56,1.69,2.53Z"/>
    <path class="cls-40" d="M62.03,93.96c1.36-.49,2.91.54,3.09,1.88-.03.3.1.63.04.92-.08.32-.19.69-.33.99-1.5-.42-3.42.45-4.16-1.09-.79-1.64-2.47-3.06-1.79-4.75,1.25.33,2.3,1.1,3.15,2.06Z"/>
    <path class="cls-30" d="M48.96,75.83c.74.8,1.13,2.17.74,3.24s-1.12,2.16-.76,3.16c-.15,1.27-1.09.66-1.43.23-1.01-1.3-.84-4.33-.53-5.88.14-.71.96-1.04,1.98-.75Z"/>
    <path class="cls-8" d="M57.79,86v3c-2.81-1.41-2.58-5.14-2.25-7.99l2.25-1.01c.53,1.84.53,3.84,0,6Z"/>
    <path class="cls-23" d="M51.52,59.24c2.43-1.72,5.23.22,3.79,3.13-1.35,2.73-6.31,2.64-7.45,2.47-1.15,1.44-1.32,3.43-1.17,5.28-1.41.21-2.82-.18-3.9-1.11-1.6-1.01-2.04-2.47-.08-3.1-1.46-1.6-2.77-3.23-3.94-4.89-.88-.23-.86-.57-.03-1.01.06-2.1.51-2.39,1.35-.88,1.57-2.09,5.8-1.67,7.29.03,1.88-1.3,3.26-1.27,4.13.09Z"/>
    <path class="cls-93" d="M42.71,65.9c.08,1.03.1,2.06.08,3.1l-.03,2.09c-.67-1.07-1.28-2.18-2.14-3.1-.82.42-1.01.13-.64-.79-1.92-.33-1.87-1.11.07-1.43-.19-3.28,2.61-2.9,2.65.14Z"/>
    <path class="cls-75" d="M17.47,88.47c-.22,12-1.23,7.27-1.97,10.53-1.04,4.6-.25,9.04-1.71,13-.68.15-.99-.22-1-1-.06-.29.1-.62.11-.92-2.93-1.22-2.82-3.65-.08-5.08-.82-.93-.72-3.97.18-5,.25-1.83.53-3.5.86-5-.83-1.1-.2-2.7.86-3.3-.92-.11-.84-.35.11-.69-.27-2.82.31-4.03,1.73-3.66,1.63-1.04,2.1-.43.91,1.11Z"/>
    <path class="cls-59" d="M24.64,75.23c1.81,1.35,1.09,2.79-1.09,2.89l.42,2.26c-1.48.76-2.58,1.94-3.31,3.55.41,3.21-.22,4.68-1.9,4.41l-1.3.13-.91-1.11c-2.65-2.41,1.94-10.53,5.32-11.31-.57-2.6.22-2.72,2.09-.9l.67.09Z"/>
    <path class="cls-58" d="M22.8,85c.98-.16,1.65.18,2,1-.24,4.64-1.86,6.93-4.87,6.86,1.12-1.32-.45-3.52-1.15-4.52-.42-1.59,1.54-3.12,1.9-4.41l2.13,1.07Z"/>
    <path class="cls-7" d="M13.8,111.99c-.44,1.18.77,3.4-.83,3.9-.68-1.4.14-3.43-.17-4.9.37.3.7.63,1,1Z"/>
    <path class="cls-71" d="M34.71,83.14c-.98,2.76-5.95,2.96-9.4,5.38l-.33,4.45c-1.33.93-4.54,1.71-5.05-.12,2.45-1.47,2.31-5.75,4.87-6.86.2-1.87,3.05-4.12,5.02-4.13,1.61-1.4,3.41.23,4.89,1.28Z"/>
    <path class="cls-60" d="M65.65,76.17l.29,5.82c.89,2.94.54,4.99-1.07,6.17l-.36-4.47c-1.57-3.77-3.35-7.58-5.32-11.44l.67-1.24c-.88-1.67-.85-2.7.08-3.1l5.71,8.26Z"/>
    <path class="cls-2" d="M72.79,100.99c-.34-.08-1.51.31-1.73-.18-3.54-7.9-5.83-5.64-3.22-7.82,2.01,2.53,5.01,4.57,4.95,8Z"/>
    <path class="cls-92" d="M66.75,90.29c-.29.97-1.22,1.5-2.2,1.59-.25-.22-.34-.66-.61-.85.06-1.02.26-2.07.93-2.87,1.45-1.71.85-4.07,1.07-6.17.07,1.41,1.56,2.55.64,4.78-.49,1.2-.31,2.62.16,3.51Z"/>
    <path class="cls-59" d="M69.79,101.99c-1.43-.54-2.4-2.3-2.16-3.93,1.87.43,2.47,2.1,2.16,3.93Z"/>
    <path class="cls-94" d="M40.32,69.1c-.33,1.18-1.3,3.14-2.57,3.66-3.1.5-5.94,2.17-8.53,5l-1.3-.69c-.26,1.25-.73,1.59-1.41,1,.13,3.36-3.35,3.27-2.95.05.28-.8.32-2.38,1.09-2.89,3.58-3.44,10.98-8.54,15.68-6.13Z"/>
    <path class="cls-86" d="M39.99,67.19c.21.27.41.54.64.79l-.31,1.11c-5.86.03-10.34,4.04-15.68,6.13l-.67-.09c-3.01-2.38,3.56-7.98,5.75-5.16.04-3.17,3.17-4.44,5.85-3.12.96-2.91,2.96-1.35,4.41.34Z"/>
    <path class="cls-36" d="M37.74,72.76c-3.96,1.61-6.54,4.19-7.94,8.27-2.74,3.83-3.38-1.33-1.89-3.96,1.19-.9,9.18-6.93,9.83-4.31Z"/>
    <path class="cls-100" d="M29.8,81.03l.02.84c-1.32,2.38-2.93,3.22-5.02,4.13-.36.13-1.08.9-1.52.63-.52-.32-.45-1.24-.48-1.63-2.36-.56.44-3.93,2.2-1.96-.86-1.76-.23-4.01,1.51-4.97.5-.16.99-.68,1.41-1-.36,1.71-.14,3.75,1.89,3.96Z"/>
    <path class="cls-92" d="M59.87,71.01c1.27,1.54,4.33,8.79,4.65,12.68-.38-.43-.71-.34-1.01.11l-1.52-.35c-.89-2.25-1.88-2.74-2.97-1.46.14,1.37-.02,2.95-1.22,4-.79-1.92-.89-4.08,0-6,.48-1.04-.38-1.45-.66-2.24-1.06-2.98.23-6.13-.5-9.15-2.33-1.85-.7-3.38,1.2-.96,1.23.14,1.9,1.26,2.03,3.36Z"/>
    <path class="cls-98" d="M56.85,57.06c1.2,2,1.03,4.39,1.13,6.66-.83,2.19-1.63,2.82-4.09,2.34-2.09.44-4.73-.48-5.66,2.03-.89-1.51-.25-2.38-.36-3.26.32-.4-.13-1.48.75-1.47,2.15.03,4.15.19,5.04-2.16.46-1.21-1.15-1.91-2.14-1.96-1.96,0-1.92-.81.02-1.22.63-2.73,3.78-3.36,5.31-.96Z"/>
    <path class="cls-97" d="M57.98,63.72c.63,1.2.91,3.01-.14,3.93-.7-.3-1.39.18-1.2.96-1.35-.19-2.16-1.6-2.74-2.55.4-1.87,2.4-2.28,4.09-2.34Z"/>
    <path class="cls-18" d="M63.5,83.8c-.1.84.4,1.78-.27,3.07l-4.22-4.88-.94-9.16c2,3.83,4.24,7.13,5.43,10.97Z"/>
    <path class="cls-32" d="M64.43,93c.95.67,1.47,1.85.69,2.84-1.36.08-2.59-.59-3.09-1.88.75-.45,1.56-.77,2.4-.96Z"/>
    <path class="cls-45" d="M46.16,53.59c1.71-.79,1.54-.2.64,1.41,2.23,1.12,2.57,1.12,1,0-2.94-2.58,2.19-3.28,4.08-2.18,1.73,1.01,1.5,4.26-.33,5.21.17.31-.12.86-.02,1.22-3.71,1.13-7.73,1.07-11.42-.12-2.03-1.62-.98-5.63.7-7.13h1c1.54.6,3,1.13,4.36,1.59Z"/>
    <path class="cls-82" d="M38.75,60c.06.33,0,.68.03,1.01,1.45,1.43,2.71,2.86,1.28,4.75l-.07,1.43c-1.16,1.37-3.16-.42-4.41-.34-2.98-.21-2.54-4.58.24-4.99-2.79-1.04-1.69-4.08,1.17-3.99,2.33-3.4,3.41-.72,1.76,2.12Z"/>
    <path class="cls-67" d="M42.71,65.9c-.69-.8-1.78-.49-2.65-.14-1.13-1.38-2.87-3.25-1.28-4.75,1.32.11,2.53.57,3.89,1.61.92.7,1.24,2.11.04,3.28Z"/>
    <path class="cls-101" d="M40.79,52c.22,2.42-.66,4.72-.7,7.13-.42.33-.88.62-1.35.88-.11-.6.15-1.55-.54-2.34-.25-.28-.71-.19-1.22.22-2.33-1.52-1.13-4.39,1.22-5.45.43-1.4,1.52-1.45,2.59-.43Z"/>
    <path class="cls-44" d="M26.5,78.07c.75,1.85.47,4.13-1.51,4.97l-2.11.28c-.05.43-.79.63-2.22.61.59-2.12.84-4.5,2.88-5.81.3,1.28,2.06.23,2.95-.05Z"/>
    <path class="cls-10" d="M24.99,83.04c-.5.21-.95.25-1.34.28-.74.06-1.09,1.02-.86,1.68-.73.09-2.02,3.9-1.97,1.08,0-.42-.47-1.93-.15-2.14.9-.6,1.5-1.57,2.48-2.8.68-.08,1.62,1.28,1.85,1.91Z"/>
    <path class="cls-95" d="M56.73,52.1c1.19-1.55,1.77-1.01.89.82l-.77,4.13c-1.73.52-3.49.94-5.31.96-.57-1.03-.63-2.2-.64-3.96,0-1.18-1.66-1.21-2.56-1.06-.59.1-.57,1.29-.54,2-.28.87-.62.86-1,0,.02-.48-.53-.95-.64-1.41-1.95.01-2.14-.77-.36-1.59.14-.66.29-1.18.46-1.19,3.13-.15,7.65.58,10.48,1.3Z"/>
    <path class="cls-105" d="M76.57,51.07c2.4,1.94,2.35,2.25-.68,3.12-.46,1.25-2.27.61-3.1-.02-1.54-.35-2.89-1.19-4.03-2.27-1.37-2.79.45-3.3,2.79-1.71.28-.85.56-.8.85.09,1.1-.1,2.18-.63,3.24-1.61l1.21.56c1.8.8,1.66,1.62-.29,1.84Z"/>
    <path class="cls-99" d="M67.79,52c.23-.87.56-.9.97-.1-2.28,2.36-5.96,1.2-8.97,1.1-2.05.08-2.05-1.86.09-2.16,1.67-3.68,5.61-.94,7.91,1.16Z"/>
    <path class="cls-11" d="M59.95,67.91l-.08,3.1c-.83-1.01-1.34-2.26-2.03-3.36-.79-1.25-.74-2.75.14-3.93l1-.04c.45,1.38.81,2.79.97,4.23Z"/>
    <path class="cls-37" d="M75.89,54.19c-.01.41.62,1.09.29,1.25-.9.44-1.91.38-2.4.43-.44-.47-.67-1.16-.98-1.71.44-1.32,2.19-.33,3.1.02Z"/>
    <path class="cls-29" d="M59.89,50.84l-.09,2.16-2.18-.07-.89-.82c-1.96.08-1.9-.73.07-1.24-.41-2.21.53-2.27,2.24-.99,1.51-1.21,2-.64.84.96Z"/>
    <path class="cls-83" d="M41.79,52h-1c-.86.75-1.67.9-2.59.43-.98-.5-2.35-.27-3.41-.55-1.15-1.19-.1-1.88,3.15-2.06.21-.88.53-.86.94,0,2.25.3,3.22,1.03,2.91,2.17Z"/>
    <path class="cls-39" d="M46.79,55h1c.63.09,1.32-1.25,1.61-.86.46.61.79,2.22.32,2.38-.36.12-1.21.31-2.24,2.19-.8-2-.74-2.46-.69-3.71Z"/>
    <path class="cls-39" d="M45.79,52l.36,1.59c-1.79-.18-4.49.92-4.36-1.59-.09-1.74,3.65-1.78,4,0Z"/>
    <path class="cls-68" d="M39.7,42.91c2.33.36,3.76,1,2.09,3.08-.49,1.11-.6,2,.13,2.94.89.13.89.42.06.87-.47,1.08-1.5,1.09-3.11.03h-.94c-.89.05-.9-.21-.13-.76l-.1-.98.08-5.09c-1.54-3.44,2.44-3.36,1.91-.08Z"/>
    <path class="cls-57" d="M82.79,53c.87.28.86.62,0,1-2.28.79-4.59,1.09-6.9.19.38-1.01.66-2.03.68-3.12,1.94-1.24,5.19-.09,6.22,1.93Z"/>
    <path class="cls-33" d="M85.86,51.92c.64.56.98,1.17.93,2.07-1.24.27-2.81-.41-4,0v-1c-1.13-2.63-.11-2.99,3.07-1.07Z"/>
    <path class="cls-54" d="M41.99,49.8c-.09-2.89,2.23-2.84,3.06-.18.11-1.88,1.35-2.1,3.7-.64,3.79-.42,6.47.21,8.05,1.88l-.07,1.24-10.94-.11h-4c-.96-.75-2.13-1.22-2.91-2.17,1.04,0,2.07.04,3.11-.03Z"/>
    <path class="cls-103" d="M69.79,43c1.12.22,2.12,1.22,3,3,.38-.92.74-.92,1.09,0,1.28-2.49,2.52-1.59,1.87,1.05.44,1.88-1.52,3.57-3.35,3.24l-.85-.09c-3.03,1.59-5.57-3.49-6.59-6.04-.5-1.66-.53-3.36-.1-5.08-1.49-.39-1.36-1.66.17-2.14,2.38.34,3.97,2.37,4.76,6.08Z"/>
    <path class="cls-26" d="M85.86,51.92c-1.15-.17-2.35.11-3.07,1.07-2.31.33-4.76.02-6.22-1.93.01-.62.24-1.22.29-1.84-.87-1.41.56-1.67,1.9-1.24,2.79.28,5.05,2.13,7.1,3.93Z"/>
    <path class="cls-113" d="M71.55,50.19c-.83.7-2.03.93-2.79,1.71-.3-.04-.69.19-.97.1-1.29-.67-1.63-1.31-1.01-1.91-3.48-3.36-4.08-5.34-1.82-5.94l6.59,6.04Z"/>
    <path class="cls-25" d="M78.01,46.99c.22.35.47.69.75,1-.46.67-1.22.9-1.9,1.24-.88.44-1.4,1.31-2.25,1.9-.79.55-1.76.14-2.21-.85.9-1.28,2.23-2.15,3.35-3.24.62-2.62,1.36-2.54,2.25-.05Z"/>
    <path class="cls-88" d="M66.78,50.08c.57.47.89,1.25,1.01,1.91-2.56-.84-5.23-1.11-7.91-1.16l-.84-.96c-.34-2.02.29-5.21,2.95-3.77l1.9-1.02c.32,1.79,1.29,3.45,2.89,5Z"/>
    <path class="cls-106" d="M65.93,30.97c.88.3.87.66.01,1.07l-1.27,1.69c-1.28-1.39-2.25-1.62-2.91-.7,1.19.78,1.23,2.46.11,5.04l.88.09c1.39-1.26,1.84-.69,1.31,1.09,1.89,1.38-.29,6.71-2.07,6.86l-2.95,3.77c-.81.01-1.5.89-2.24.99-3.98.53-7.77-1.48-11.75-1.24-2.11-1.34-2.12-4.17.65-4.54.83-.38,1.13-.12.91.77,3.45.03,6.86.08,10.22.13l1.1-.99c-1.23-1.35-.65-3.45-.06-5.03-1.26-.69-.81-3.44.74-3.71-.76-.73-.36-1.82,1.2-3.26-2.85-1.46-1.83-3.35,1.14-3.19.35-.84.72-.8,1.08.07,1.21-2.94,3.77-1.79,3.9,1.09Z"/>
    <path class="cls-55" d="M39.83,39.07c2.48-.61,3.37.32,2.59,2.76.89.17.88.47.03.91-.1,1.6-1.02,1.66-2.76.17-.35.01-.86-.4-1.17-.62-.69-.49-.86-.15-.73.71-.64-.47-.96-1.22-1-2-3.73-2.4.18-3.26,3.04-1.93Z"/>
    <path class="cls-62" d="M34.87,37.73c.51-3.33,6.75-2.17,4.96,1.34-.71-.09-1.5-.22-2.4.04-.7.2-.83,1.12-.64,1.89l-2-1c-1.45.57-2.88.67-3-1-1.21-1.48-.18-1.91,3.08-1.27Z"/>
    <path class="cls-81" d="M34.79,40c-.71,1.43-2.61,1.17-4,1.15-.56,0-1.48.07-2-.07-1.4-2.66,1.03-3.79,3-2.09,1.01.39,2.02.51,3,1Z"/>
    <path class="cls-17" d="M42.46,42.74c1.06-1,2.55-1.17,3.01.45,1.69.36,1.87,1.18.23,1.9-.81,1.45.48,3.19-.65,4.54l-3.06.18-.06-.87c-1.3-1.1-1.66-2.09-.13-2.94-.44-1.19-1.3-2.12-2.09-3.08.91-.03,1.83-.29,2.76-.17Z"/>
    <path class="cls-56" d="M41.79,46c.01.98.07,1.96.13,2.94-.71-.08-1.22-.54-1.67-.91-.68-.56-.84-1.59.05-2.01.48-.23,1.14.07,1.48-.02Z"/>
    <path class="cls-20" d="M58.94,11.77c1.74-.23,3.75,2.03,4.64,3.18,1.77,2.49-1.51,3.94-4.19,2.89-.91.52-2.58.67-5,.45-.56,2.37-1.68,1.64-2.41-.6l-.94-.54c1.09-1.37,1.36-2.44.81-3.22,1.34-2.06,4.63-1.85,7.09-2.17Z"/>
    <path class="cls-109" d="M65.79,17c-.04.33.08.68,0,1-1.01.99-1.66,2.33-1.95,4.03l-1.95.91c-.19-1.85-1.03-3.55-2.5-5.1-.72-.46-.28-1.4.5-1.34,1.77.18,2.98-.26,3.69-1.55.61.78,1.54,1.33,2.22,2.05Z"/>
    <path class="cls-78" d="M56.84,3.05c-.67,1.23-2.02,1.76-3.29,2.22-2.34,2.01-3.43.59-.84-.97.67-.77,1.3-1.57,1.86-2.42.22-.33.97-.35,1.21-.02,1.64-.87,2.12-.32,1.06,1.18Z"/>
    <path class="cls-85" d="M59.79,0c.06.82-.25,1.6-1,2l-1.95,1.05c-.45-.31-.74-.75-1.06-1.18,1.26-.79,2.53-1.59,4.01-1.87Z"/>
    <path class="cls-69" d="M64.96,44.14c-1.17,2.28,1.28,3.73,1.82,5.94l-4.79-3.98,2.07-6.86c-.03-.9.24-.94.8-.19.21.79,1.75,1.53,1.49,2.37-.31.98-.96,1.88-1.39,2.71Z"/>
    <path class="cls-87" d="M65.94,32.04c.01,1.26-.25,2.54-.08,3.8,1.59,1.17,1.03,1.83-.82,1.07-.12.63-.34,1.52-.17,2.14l-.8.19-1.31-1.09c-.26-1.6-.59-3.31-.99-5.13-.21-2.01,3.08-1.45,4.18-.98Z"/>
    <path class="cls-15" d="M69.83,41.92c.57.35.54.71-.04,1.08-2.03-1.74-2.55-4.55-4.76-6.08.08-.41.66-.69.82-1.07,2.83.37,3.71,3.5,3.97,6.07Z"/>
    <path class="cls-76" d="M72.79,46c-1.65-.26-1.97-2.11-3-3l.04-1.08c1.63.78,2.97,2.21,2.96,4.08Z"/>
    <path class="cls-96" d="M60.95,29.81c-.27.99-1.25,2.1-1.14,3.19-.28.87-.62.86-1.02,0-1.26.77-2.61,1.13-4.06,1.06-.24-.43-.51-.88-.79-1.29-.52-2.92.07-4.18,1.75-3.77-1.4-2.15.09-4.34,3.13-3.95,2.8.36,3.18,2.61,2.12,4.75Z"/>
    <path class="cls-53" d="M60.13,24.98c1.32-2.65,2.79-1.66,1.87,1.18.13,1.24.11,2.48.03,3.72-.35.08-.73-.1-1.08-.07-.38-1.03-.33-1.28-.16-1.93.39-1.51-2.37-3.4-3.09-2.25-.85,1.36-1.43,2.57-2,3.38-.82,2.87-2.35,1.51-2.97-.81-1.96-1.49.03-3.24,1.81-4.35,3.17-1.95,5.03-1.57,5.59,1.14Z"/>
    <path class="cls-34" d="M62.75,38.16c-.45.72-.94,1.51-1.58,2.88-.98-2.85.88-5.22.59-8.01.5,0,1.01-.22,2.01.15-.48,1.89-.2,3.64-1.02,4.98Z"/>
    <path class="cls-9" d="M58.6,36.26l-1.91-.06c.08-.32-.09-.73-.05-1.06-1.01-1.51.59-2.69,2.14-2.14h1.02c.14,1.41-.59,2.15-1.2,3.26Z"/>
    <path class="cls-5" d="M59.39,17.84l4.45,4.19c.26-.88.6-.87,1-.02-.41,1.74-.94,3.69-2.84,4.15-.34-.73-1.09-1.08-1.87-1.18-1.51-.28-1.89-1.49-1.16-3.63-2.29-1.98-3.72-2.1-4.29-.35,1.65-.01,1.54,1.59-.13,1.87.83.24.8.57-.02.97-1.41,2.31-2.43,1.7-3.34-.78-2.02-.74-1.31-5.06.78-5.37l7.41.14Z"/>
    <path class="cls-50" d="M65.79,18l-.95,4.01-1,.02c-.1-1-.25-2.04.05-3.35.16-.7,1.01-.91,1.9-.68Z"/>
    <path class="cls-64" d="M22.8,37c-.08,1.05-.88,1.38-2.39.96l-.7,1.29c-.4.19-.8.86-1.41.97-.28.05-3.5-4.14-1.27-8.43.86-1.65,2.48-3.15,3.7-4.55,5.21-1.88,5.65,7.86,2.06,9.76Z"/>
    <path class="cls-111" d="M30.65,36.66c1.54-2.51,4.41-2.2,4.23,1.07-1.14.08-2.33.34-3.08,1.27-1.03.65-2.11,1.25-3,2.09l-7-1.82c.06-.92.4-.99,1-.26.33-1.98,1.01-2.66,2.04-2.05,1.15-2.25,4.4-2.2,5.81-.29Z"/>
    <path class="cls-70" d="M22.8,37c.99-.2.99.47,0,2l-1,.26c-.53-.14-1.52.1-2.08,0-1.1.03-1-1.05-1.03-2.9l4.11.65Z"/>
    <path class="cls-13" d="M38.79,32c1.52-1.3,3.95-.31,4.09,2,.89,1.82.78,4.04.91,6,1.33-.03,1.1.45.08,1.27l-1.46.56c-.86-.88-1.9-1.73-2.59-2.76-1.17-1.76-3.22-.88-4.96-1.34-1.39-.37-2.65-1.26-4.23-1.07-2.44-1.64-1.96-2.25.87-2.44.24-.69,1-1.09,2.28-1.23.38-1.52,4.15-2.29,5-1Z"/>
    <path class="cls-27" d="M27.79,17.01c1.12-.83,3.5-.34,3.73,1.2,2.1-.62,2.46-.02,1.08,1.8l.22,3.08c-.92,1.54-3.34.94-4.75,1.73-1.38.38-.99-.75-.28-1.83-.15-1.59,3.58-.25,3.39-.31-1.51-.48-3.96-1.1-5.38-.71-.43.84-.76.76-1-.19-.16-1.19-.6-2.61.03-3.35.76-.89,2.03-1.79,2.95-1.42Z"/>
    <path class="cls-48" d="M51.98,17.7c-.8,1.64-1.39,3.57-.78,5.37,3.86.8.51,6.2-2.17,5.15-.54-.97-1.09-2.22-2.26-2.33,2.88-1.94,2.35-5.78,3.13-8.94l1.96-3.01c1.06-.14,1.89.14,1.4,1.15l-1.26,2.61Z"/>
    <path class="cls-24" d="M45.66,8.93c1.67-1.19,2.32-.67,1.19,1.13-1.7,1.8-3.72,3.42-6.17,3.96-.82.49-1.08.17-.86-.85-2.38-1.59,2.09-3.44,4.19-4.13l1.66-.11Z"/>
    <path class="cls-46" d="M35.91,15.84c1.59-1.62,2.21-1.07.94.86-1.19,1.38-2.61,2.51-4.25,3.31-.39-.42-1.21-1.07-1.08-1.8-.82-1.02-.04-1.71,2.37-2.06-.05-2,.95-2.05,2.02-.31Z"/>
    <path class="cls-51" d="M39.82,13.17c.27.3.55.58.86.85-.84,1.39-2.34,2.11-3.82,2.68-.02-.6-.24-1.06-.94-.86-2.2-1.51-1.74-1.96.85-1.61.48-1.72,2.33-3.06,3.06-1.06Z"/>
    <path class="cls-112" d="M53.55,5.27c-.9,1.3-2.25,2.18-3.76,2.6-1.35.52-1.7-.08-.6-.92.94-1.17,1.81-2.47,3.53-2.65-.6.73-.05,1.63.84.97Z"/>
    <path class="cls-91" d="M49.19,6.95c.72-.37.65.51.6.92-.74,1.02-1.69,1.92-2.94,2.2-.19-.48-.62-1.17-1.19-1.13,0-1.82,2.78-1.05,3.53-1.98Z"/>
    <path class="cls-65" d="M54.54,23.85c.27.46.5,2,0,2.63-.42.54-1.67.19-1.81,1.72,1.6,1.27,1.05,1.94-.87,1.14.27.92-.04,1.11-.9.62-.73-.59-1.45-.87-1.93-1.74,1.51-1.44,2.89-3.03,2.17-5.15,1.15.05,2.27.37,3.34.78Z"/>
    <path class="cls-90" d="M38.79,31c.87.28.86.62,0,1-1.67.19-3.4.39-5,1h-1c-.84-.14-1.18-.47-1-1-.27-2.02,5.02.54,7.11-2.96l-.11,1.96Z"/>
    <path class="cls-107" d="M58.79,33c-.43.95-1.21,1.67-2.14,2.14-.83.03-1.51-.37-1.92-1.08.53-.54.8-1.79,1.61-2.01.9-.24,1.77.63,2.45.95Z"/>
    <g>
      <path class="cls-110" d="M49.03,28.22c2.22-1.49,2.86-.71,1.93,1.74.76-.19,1.44.38,2.05,1.71,1.49-1.18,1.77-.58.94,1.11,1.49-1.03,1.75-.6.79,1.29,1.44-1.16,2.12-.69,1.92,1.08.89.25.89.61.05,1.06.91,1.16.76,3-.45,5.52l.55,2.28c.43-.1.81.24,1.13,1,.41,1.48,1.1,2.91-.65,3.94-.03-4.23-9.51,2.4-10.67-3.09.17-.88-.21-1.77-1.14-2.67-.97-.05-2.01-.32-3.01-.45l-.03-.91c-.51-1.88.24-2.13,1.46-.56,1.14-1.54,1.12-1.96-.08-1.27-2.92-.49-2.84-4.09-.91-6-.37-1.81-1.74-2.81-4.09-3-1.03.28-1-.37.11-1.96-1.25-3.64,3.12-3.98,2.89-.22,1.62-.03,2.52.54,3,2.18-.14-.83.18-1.37.73-1.94.73-.76-.45,3.35-.55-1.63-.01-.63.28-1.12.77-1.51.22-.94.56-.93,1.02-.03,2.7-1.92,3.97-.34,2.26,2.33Z"/>
      <g>
        <path class="cls-104" d="M58.6,36.26c-.55.98.33,2.82-.74,3.71l-1.07,4.03c-2.21-1.88-.75-5.31-.09-7.8.49-1.2,1.77-1.58,1.91.06Z"/>
        <path class="cls-63" d="M46.61,45.85c-.24-.27-.75-.43-.91-.77-.28-.57-.23-1.28-.23-1.9.49.03,1.63.04,2.19.29.45.2.98.66.63,1.74-.21.63-.89.65-1.68.63Z"/>
        <path class="cls-80" d="M57.93,45c-.57-.03-1.04-.44-1.13-1-.24-1.48-.12-3.04,1.07-4.03.22,1.6-.38,3.45.06,5.03Z"/>
        <path class="cls-102" d="M55.7,29c-.78,1.1-.18,3.33-1.75,3.77-.24-.34-.63-.88-.94-1.11-.75-.83-1.13-1.61-1.15-2.33.19-.34.84-.78.87-1.14l2.97.81Z"/>
        <path class="cls-41" d="M44.79,31c-1.01-.7-1.73-1.98-1-3,.34-.93.94-1.83,1.95-2.08.25,1.55,1.4,2.91,1,4.94-.9.21-1.49.23-1.95.13Z"/>
        <path class="cls-66" d="M53.01,31.66c-1.01-.19-1.36-1.15-2.05-1.71.21-.28.74-.33.9-.62.31.72,2.09,1.59,1.15,2.33Z"/>
        <path class="cls-12" d="M54.63,38c-1.66-1.05-2.69-2.21-3.92-3.87,2.06-.29,3.89.86,3.92,3.87Z"/>
        <path class="cls-47" d="M43.88,41.27l-.08-1.27c1.23-.75.76-2.21,1.23-4.11,1.37.73.67,2.09.79,3.6.07.87-.73,1.33-1.93,1.79Z"/>
        <path class="cls-52" d="M42.89,34c-.74-1.5-2.6-2.17-4.09-2v-1c1,.05,2.21-.32,3.38.11.99.37.7,1.95.72,2.89Z"/>
        <path class="cls-52" d="M44.79,31c-1.26-.27-2.37-1.06-3-2.18.28.15.92.13,1.37.06.3-.05.5-.5.63-.88,1.22.46,1.05,1.91,1,3Z"/>
        <path class="cls-35" d="M49.22,41.98c-.71-1.43-.71-3.02-.04-5.05,1.05,1.07.93,2.43.04,5.05Z"/>
      </g>
    </g>
    <path class="cls-89" d="M60.13,24.98c-1.89-.23-3.74-.73-5.59-1.14-.11-.22,0-.7.02-.97,1.59-1.25,1.63-1.88.13-1.87-.33-.47-1.51-2-.02-2.25,2.81-.47,5.82.49,6.75,2.42l-1.29,3.81Z"/>
    <path class="cls-16" d="M54.56,22.87l.13-1.87c.64.15,1.43-1.27,1.72-.84.49.74.68,2.13.32,2.47-.47.43-1.6.47-2.17.24Z"/>
    <path class="cls-84" d="M24.8,26c.26-.94.59-.92,1,0,1.36-2.32,1.94-.23,1.16,2-.4,1.13.1,2.6-.75,3.65,1.58.82,1.72,1.46-.11,1.75,2.03,2.2,1.65,3.02-1.25,3.56-.75.6-1.41,1.31-2.04,2.05v-2c1.5-3.72,1.21-7.27-2.06-9.76.46-.58.49-1.59.92-2.23.9-1.21,1.94-.88,3.15.99Z"/>
    <path class="cls-38" d="M27.79,23c-.18,1.95-.84,2.95-2,3-.26.02-.8-.14-1,0-1.5-.49-2.19-1.92-1.09-3.18.42-.28.72-.72,1.1-1.03.32,0,.68.23,1,.19,1.35-.77,2.85-.54,1.98,1.03Z"/>
    <path class="cls-61" d="M24.8,26c-1.14.99-1.96-1.08-3.15-.99.56-.85,1.21-1.61,2.06-2.19.57.98.94,2.06,1.09,3.18Z"/>
    <path class="cls-43" d="M31.51,34.22l-.87,2.44c-1.92.24-3.88.35-5.81.29.48-1.16.9-2.35,1.25-3.56,1.46-.65,3.27-.38,5.42.83Z"/>
    <path class="cls-4" d="M27.79,32l5,1h1c-.75.28-1.31,1.3-2.28,1.23-1.83-.15-3.76.02-5.42-.83.14-.48-.2-1.36.11-1.75.42.21,1.27,0,1.6.35Z"/>
    <path class="cls-61" d="M28.07,24.83c.2,1.31-.76,2.14-1.12,3.17-.03-.79-.09-2.09-1.16-2,.52-.95.8-2.61,2-3l.28,1.83Z"/>
    <path class="cls-49" d="M31.79,32c.49,0,.9.58,1,1-1.76,0-3.69.37-5-1h4Z"/>
    <path class="cls-19" d="M27.79,23c-.15-.97-1.12-1.15-1.98-1.03,1.06-1.88,3.54-.26,6,.49-1.27,1.29-2.73.13-4.01.54Z"/>
  </g>
</svg>