<?xml version="1.0" encoding="UTF-8"?>
<svg id="Enemy" xmlns="http://www.w3.org/2000/svg" viewBox="0 0 124.58 83.45">
  <defs>
    <style>
      .cls-1 {
        fill: #2e2b25;
      }

      .cls-2 {
        fill: #3b3a38;
      }

      .cls-3 {
        fill: #434241;
      }

      .cls-4 {
        fill: #2d2c2c;
      }

      .cls-5 {
        fill: #484644;
      }

      .cls-6 {
        fill: #736b67;
      }

      .cls-7 {
        fill: #1f1d1e;
      }

      .cls-8 {
        fill: #2e2625;
      }

      .cls-9 {
        fill: #211c19;
      }

      .cls-10 {
        fill: #242322;
      }

      .cls-11 {
        fill: #383536;
      }

      .cls-12 {
        fill: #1c1919;
      }

      .cls-13 {
        fill: #212d57;
      }

      .cls-14 {
        fill: #151113;
      }

      .cls-15 {
        fill: #181517;
      }

      .cls-16 {
        fill: #333230;
      }

      .cls-17 {
        fill: #453f3f;
      }

      .cls-18 {
        fill: #47444a;
      }

      .cls-19 {
        fill: #3f3f3f;
      }

      .cls-20 {
        fill: #2d2d31;
      }

      .cls-21 {
        fill: #2e1d1a;
      }

      .cls-22 {
        fill: #302f34;
      }

      .cls-23 {
        fill: #423e3e;
      }

      .cls-24 {
        fill: #292522;
      }

      .cls-25 {
        fill: #4d322b;
      }

      .cls-26 {
        fill: #2c292a;
      }

      .cls-27 {
        fill: #23201e;
      }

      .cls-28 {
        fill: #1d1a19;
      }

      .cls-29 {
        fill: #231c1b;
      }

      .cls-30 {
        fill: #1c120e;
      }

      .cls-31 {
        fill: #19151a;
      }

      .cls-32 {
        fill: #0e0d09;
      }

      .cls-33 {
        fill: #56545b;
      }

      .cls-34 {
        fill: #1a1718;
      }

      .cls-35 {
        fill: #13110f;
      }

      .cls-36 {
        fill: #484649;
      }

      .cls-37 {
        fill: #2b2828;
      }

      .cls-38 {
        fill: #202021;
      }

      .cls-39 {
        fill: #f8dbc8;
      }

      .cls-40 {
        fill: #2f3a5c;
      }

      .cls-41 {
        fill: #c6b1a5;
      }

      .cls-42 {
        fill: #353334;
      }

      .cls-43 {
        fill: #332e31;
      }

      .cls-44 {
        fill: #16161b;
      }

      .cls-45 {
        fill: #c1a592;
      }

      .cls-46 {
        fill: #1a0f0d;
      }

      .cls-47 {
        fill: #4d4c4f;
      }

      .cls-48 {
        fill: #3a3a3a;
      }

      .cls-49 {
        fill: #141614;
      }

      .cls-50 {
        fill: #504b49;
      }

      .cls-51 {
        fill: #4b4439;
      }

      .cls-52 {
        fill: #312e2a;
      }

      .cls-53 {
        fill: #4a3832;
      }

      .cls-54 {
        fill: #3b3739;
      }

      .cls-55 {
        fill: #5a5556;
      }

      .cls-56 {
        fill: #35322e;
      }

      .cls-57 {
        fill: #2a2f4b;
      }

      .cls-58 {
        fill: #1c1c26;
      }

      .cls-59 {
        fill: #304278;
      }

      .cls-60 {
        fill: #e3c9be;
      }

      .cls-61 {
        fill: #1f1d1f;
      }

      .cls-62 {
        fill: #3f487f;
      }

      .cls-63 {
        fill: #20211b;
      }

      .cls-64 {
        fill: #323030;
      }

      .cls-65 {
        fill: #282f49;
      }

      .cls-66 {
        fill: #3f3d3d;
      }

      .cls-67 {
        fill: #4c4f5a;
      }

      .cls-68 {
        fill: #333;
      }

      .cls-69 {
        fill: #2e2929;
      }

      .cls-70 {
        fill: #332f30;
      }

      .cls-71 {
        fill: #0f0f0f;
      }

      .cls-72 {
        fill: #191819;
      }

      .cls-73 {
        fill: #6d5955;
      }

      .cls-74 {
        fill: #323031;
      }

      .cls-75 {
        fill: #39383a;
      }

      .cls-76 {
        fill: #443b36;
      }

      .cls-77 {
        fill: #494746;
      }

      .cls-78 {
        fill: #110a05;
      }

      .cls-79 {
        fill: #312a2a;
      }

      .cls-80 {
        fill: #262228;
      }

      .cls-81 {
        fill: #444040;
      }

      .cls-82 {
        fill: #120a08;
      }

      .cls-83 {
        fill: #524a4e;
      }

      .cls-84 {
        fill: #1a120e;
      }

      .cls-85 {
        fill: #222124;
      }

      .cls-86 {
        fill: #5c4a44;
      }

      .cls-87 {
        fill: #1e1a19;
      }

      .cls-88 {
        fill: #261f23;
      }

      .cls-89 {
        fill: #0c0e0b;
      }

      .cls-90 {
        fill: #333132;
      }

      .cls-91 {
        fill: #2a2a29;
      }

      .cls-92 {
        fill: #1a1a18;
      }

      .cls-93 {
        fill: #41403d;
      }

      .cls-94 {
        fill: #313031;
      }

      .cls-95 {
        fill: #5d5448;
      }

      .cls-96 {
        fill: #2e2d25;
      }

      .cls-97 {
        fill: #324278;
      }

      .cls-98 {
        fill: #26242c;
      }

      .cls-99 {
        fill: #302018;
      }

      .cls-100 {
        fill: #242424;
      }

      .cls-101 {
        fill: #47484e;
      }

      .cls-102 {
        fill: #333231;
      }

      .cls-103 {
        fill: #514d4b;
      }

      .cls-104 {
        fill: #535350;
      }

      .cls-105 {
        fill: #33323a;
      }

      .cls-106 {
        fill: #3b2f24;
      }

      .cls-107 {
        fill: #2b3864;
      }

      .cls-108 {
        fill: #3d393c;
      }

      .cls-109 {
        fill: #161616;
      }

      .cls-110 {
        fill: #504137;
      }

      .cls-111 {
        fill: #2a2420;
      }

      .cls-112 {
        fill: #302b2d;
      }
    </style>
  </defs>
  <g id="NinjaWarriorOfCrime">
    <path class="cls-24" d="M15.58,69.01c1.34-1.39,3.6-1.16,5.3-.26,1.12-1.17,1.46-.66,1.16.9,1.97-.04,2.23.66.77,2.1,2.19-.94,5.44,9.15,5.3,9.72-.21.87-2.2.61-3.08.04l-1.8.31-4.51-4.28c-1.47-1.39-2.02-4.07-3.83-5.54-2.58-1.94-2.71-3.67.69-2.99Z"/>
    <path class="cls-61" d="M30.65,60.46c-.86-3.68,2.95-6.29,5.58-4.19,2.87-3.32,6.95-3.22,10.07-.35.88.27.87.61.02,1.01-.39.41-1.07.77-2.03,1.09-.09,2.62-5.38,4.68-6.77,2.17.11,1.73-.24,2.38-1.78,2.64-.14,1.39-.57,2.9-1.29,4.52.58,3.49.18,6.95-1.29,10.02-.21.59-.54.63-.97.15-3.04-1.04-1.48-5.97-.51-8.34-.9-.02-.89-.29-.06-.79-1.96-1.16-2.45-2.13-1.46-2.91l.5-5.02Z"/>
    <path class="cls-10" d="M26.34,73.83c2.2.65,2.42,1.29.65,1.9,1.6.63,2.36,2.43,1.1,3.85,1.12.28,2.18-.39,3.17-1.99.11-.87.42-.86.92-.06l.97-.15c-.84,1.76-.31,4.82-2.86,5.85-1.8.73-3.87-.38-5.27-1.72.28-.32,1.31-.72,1.7-1.28-.24-3.31-1.97-6.09-3.92-8.48-.14-4.41,6.33-2.06,3.53,2.09Z"/>
    <path class="cls-41" d="M7.79,65.52c1.22-.98,3.12-1.12,3.83.63.9-1.34,2.26-1.59,3-.1-.51-3.87,4.09-1.65,2.03.93,1.37,1.1.59,2.15-1.07,2.04-.97.69-.96,1.93-.69,2.99-1.43-1.16-3.62-1.39-4.97-2.72-1.06-1.04-2.03-2.24-2.13-3.76Z"/>
    <path class="cls-60" d="M10.52,63.18c1.07-1.66,2.02-1.2,2.03.84,1.79.81.78,1.74-.93,2.13-.12.54-.12,1.2-.74,1.65-1.03-1.25-1.87-2.11-3.1-2.27-.03-.41-.14-.84-.23-1.23,1.16.42,2.42.04,2.96-1.1Z"/>
    <path class="cls-51" d="M12.63,36.15c-.27.83.41,1.89.44,2.71,2.18-.02,2.34,1.42.13,2.02,1.41.87.7,2.32-.97,1.32.16,1.77-1.29,2.79-2.41,1-1.35,1.87-1.95,3.89-1.79,6.07,1.93-.2,1.99.57.09,1.18,1.5,1.21,2.86,1.07,4.1-.43,3.41-.02,4.74.99,3.99,3.03-1.15,2.52-1.86,2.53-3.04.04l-3.84,1.12c.21.87-.02.87-.63.1-3.56,3.05-5.86.69-6.89-7.06-2.89-3.36,3.4-11.99,6.96-13.65s3.86-1.68,3.86,2.55Z"/>
    <path class="cls-32" d="M13.12,47.16c-.95-.9.21-3.66,1.73-3.15,1.12-.32,1.08-1.37-.12-3.15-.56,1.94-1.07,1.94-1.53,0,.36-.49-.11-1.39-.13-2.02,1.01-2.67,5.97,3.37,5.83,2.94,2.04-.6,5.01,1.7,4.94,3.88,1.84,3.23-5.75,4.88-8.26,4.89-3.64.01-4.47-.73-2.45-3.4Z"/>
    <path class="cls-1" d="M0,45.67c-.29-5.07,6.03-11.21,9.42-13.47.4-.26,1.04-.18,1.39-.5l.99-.89c.53-.48,1.14-.07,1.59.25.25,1.76-.24,3.43-.77,5.08-.55-.82-1.04-1.92-1.84-2.24-2.15-.86-9.84,6.92-8.98,13.34.94,2.22.78,3.04-.5,2.47-.28-1.31-1.22-2.71-1.29-4.04Z"/>
    <path class="cls-38" d="M18.89,41.8c3.72-3.67.18-7.79,4.78-7.82l1.32,2.77s-.28,2.02-.84,6.05c.91.22.92.59.09,1.08,1.89.64,1.61,1.54-.41,1.81-2.04-1.17-4.18-1.6-4.94-3.88Z"/>
    <path class="cls-64" d="M24.42,31.68c2.08-.48,3.72-1.22,4.92-2.24,1.66-.24,3.23-1.23,4.96-1.16,2.61.69,2.61,1.11.01,2.02,1.4,2.95-5.11,3.94-7.04,2.77-.16,2.03-1.19,2.39-2.61.93-.35.92-.68.91-1.01-.03.11-1.05.23-1.45.76-2.3Z"/>
    <path class="cls-68" d="M37.11,27.04c1.46-1.72,3.47-1.54,5.34-2.05,2.17-.16,3.04.43,1.09,1.75-.43.59-1.51,1.05-3.23,1.39-.26.79-.59.79-1,.03-.25.88-.59.88-1,.03-.23,2.07-4.1,2.04-3.09-.08.34-.69,1.47-.58,1.88-1.07Z"/>
    <path class="cls-94" d="M29.35,29.44c.47,1.46-.4,2.16-1.47,2.18l-3.46.06c1.13-1.8,2.95-1.95,4.92-2.24Z"/>
    <path class="cls-66" d="M34.31,28.28c.31.01.61-.15.92-.17.37.42.87.94,1.43.91.66-.04,1.18-.49,1.65-.82.89.41,1.44,1.76.07,2-2.33,2.1-3.69,2.13-4.06.1v-2.02Z"/>
    <path class="cls-96" d="M1.8,47.24l3.96,8.25c1.84-.72,1.23-4.55,2.15-3.31.42.56.64,1.84.78,2.12,2.59,1.03,2.38,1.69-.62,1.99-.67,1.61-1.63,1.96-2.85,1.05-2.2-1.89-3.32-4.81-3.91-7.63.96-.09.59-1.79.5-2.47Z"/>
    <path class="cls-63" d="M5.22,57.34c.03-.43.2-1.06.54-1.08.75-.04,1.72.18,2.31.03-.23.73-.28,1.92-.86,3.11-.23.47-.58.82-1.48.17l-.51-2.22Z"/>
    <path class="cls-11" d="M22.05,69.65c-1.24-1.18-1.1-1.98.64-1.89.67-.59,1.63.31,1.68.92.03.35-2.43-4.17-.93-6.08-.2-.92.14-1.19,1-.82.03-2.86,2.25-3.04,3.1-.26l.86,4.05c1.43-.44,2.5.5,3.21,2.83.12.21-.01.55.06.79-.77,2.03-1.36,4.08-1.79,6.14-1.57,0-2.75-.49-3.55-1.49l-1.99-2.97c-.44-.65-1.8,0-1.54.88-.46-.57-1.2-1.18-.77-2.1Z"/>
    <path class="cls-99" d="M16.65,66.97c.05-2.23,1.09-2.02,2-.07.64.73,1.42,1.33,2.23,1.85-1.78-.48-3.78,1.71-5.3.26.07-.8.4-1.58,1.07-2.04Z"/>
    <path class="cls-54" d="M29.34,51.27c-1.73-.85.81-3.68,2.46-2.9,1.48-1.29,2.01.63,1.44,2.09.85.95,1.81,1.53,2.91,1.74.07-.89.33-.87.78-.03,2.84,1.62,2.52,3.5-.7,4.1-2.41.3-3.69,2.92-5.58,4.19-.05,6.19-1.93,8.86-3.11,1.06l-1.21-.57c.76-3.12,1.76-6.35,3.01-9.68Z"/>
    <path class="cls-112" d="M36.93,52.17c-.79-1.6-.42-2.12,1.06-1.02,2.02-2.99,3.87-1.25,5.9.81,2.12-1.3,5.31-.92,6.26,1.89,1.15-1.74,1.4-.96,1.95.75.92.17.97.55.18,1.12-1.63.84-4.41.81-5.98.2-2.16.47-4.24-.18-6.76-.37-.59.29-.8,1.39-1.28,1.5-.78.19-1.67-.43-2.04-.78.64-1.26.69-2.7.7-4.1Z"/>
    <path class="cls-70" d="M31.67,69.18c2.49,2.08.12,5.09.51,8.34-.3.05-.62.08-.92.06-.55,1.69-.9,1.69-1.24-.08-1.28.56-2.54-.45-3.03-1.78-.02-.54-.35-1.44-.65-1.9.92-.18,1.89.77,2.78.1-.49-2.01-.58-3.29.23-4.4.42-.57,1.54-.57,2.32-.35Z"/>
    <path class="cls-70" d="M27.54,61.52c1.65.32.19,2.69,1.65,4.04.74-2.27-.26-3.94,1.45-5.09,1.67,2.44-.54,5.38.97,7.93-1.34-.56-3.04-.95-3.55-1.98-.71-1.43-.99-3.76-.53-4.9Z"/>
    <path class="cls-112" d="M46.32,56.93c1.48-1,3.71-.9,5.28-.27,2.08-.57,2.24.3.04.91l-7.36.44c-.12-.89,1.37-1.05,2.03-1.09Z"/>
    <path class="cls-89" d="M52.28,55.72c1.69,1.11,1.19,1.72-.68.94-1.75.2-3.52.16-5.28.27l-.02-1.01c1.93-.42,4.02-.08,5.98-.2Z"/>
    <path class="cls-37" d="M27,75.73c1.33-.14,2.65.43,3.03,1.78.79,1.4-.44,3.38-1.93,2.07-.63-1.04-1.05-2.59-1.1-3.85Z"/>
    <path class="cls-19" d="M28.1,79.58c.92-.38,1.61-1.12,1.93-2.07l1.24.08c-.56,1.01-.47,3.54-1.96,3.93-1.68.44-.93-1.48-1.21-1.94Z"/>
    <path class="cls-25" d="M12.55,64.02c.32-.83.65-.79,1,.06.82.29,1.06,1.16,1.07,1.96l-3,.1.93-2.13Z"/>
    <path class="cls-35" d="M43.54,26.73c-.18-1.97,4.03-1.46,5.74-.8,1.76,1.94,1.57,4.76.86,7.2-.58,1.92-1.33,1.81-1.61-.23-1.24-.84-2.3-1.83-3.15-2.96-2.61.7-4.29.1-5.07-1.82.51-1.2,2.07-1.23,3.23-1.39Z"/>
    <path class="cls-28" d="M49.27,25.93l-5.74.8c.08-.78-.34-1.49-1.09-1.75,2.35-.65,4.97-1.1,6.82.95Z"/>
    <path class="cls-44" d="M8.12,50.44l1.84-3.25c.31-.96,3.22-1.74,3.17-.03.12.58.17,1.77.67,2.06-1.13-.66,9.15-1.36,10.04-3.54.07-.62.3-1.2.41-1.81-.45-2.29,5.83-1.08,6.08-.84,2.18,2.11-2.41,4.96-4.44,5.66.73,2.52-3.66,5.08-5.9,5.96-1.09-.68-2.8-.74-3.77-1.61-3.22-2.88-8.77,1.49-8.1-2.6Z"/>
    <path class="cls-9" d="M10.01,45.54c.84-1.16,1.58-2.27,2.22-3.34l.97-1.32c.39-.65,1.03-.31,1.53,0,1.51,1.79,1.55,2.84.12,3.15-.78.94-.79,2.31-1.73,3.15l-3.17.03c-.25.88-.59.88-1,.03-1.28-1.49-.84-2.25,1.05-1.69Z"/>
    <path class="cls-95" d="M9.82,43.19c2.02-.41,1.97,1.71.19,2.35-.34.51-.91,1.06-1.05,1.69,1.78,2.01,1.82,2.62-.93,2.03-1.09-.77-1.24-2.01-1.01-3.21.32-1.63,1.13-2.74,2.8-2.86Z"/>
    <path class="cls-84" d="M9.82,43.19c.8-.06,1.55-1,2.41-1,.54.8.49,1.77.03,2.86-.35.8-1.33,1.26-2.25.49l-.19-2.35Z"/>
    <path class="cls-92" d="M8.96,47.23l1-.03c-.15.36.01,1.36.5,1.35.37,0,1.69-.71,1.64.44-.09,1.94-2.81,1.15-3.98,1.46.06-.38-.12-.8-.09-1.18.78-.42.77-1.28.93-2.03Z"/>
    <path class="cls-44" d="M14.73,40.87c1.62.99,3,2.53,3.21,4.99-1.54-.37-2.38-1.1-3.08-1.84l-.12-3.15Z"/>
    <path class="cls-42" d="M23.67,33.98c.29,0,.76.15,1.01.03,1.4.02,2.83.96,2.88,2.51,1.04-1.01,2.6-1.12,4.71-.35,2.73-1.89,5.09.1,2.38,2.1,2.4.45.55,4.14-.9,5.42-.34.82-.62.77-.84-.12-2.89-.75-5.81-1.01-8.77-.78.08-1.05-1.71-1.52-1.99-2.23-.34-2.36,1.3-4.5,1.52-6.59Z"/>
    <path class="cls-20" d="M32.92,43.57c.18,2.09-2.54,5.78-4.84,6.03-1.09,1.87-2.1,1.32-2.2-.9.41-.72-.23-2.59.84-3.04.81-.34,1.9.44,3.26-.62-1.74-1.14-3.83-.61-5.73-1.16.06-.33-.12-.75-.09-1.08.38-1.11.82-2.15,2.1-2.18,1.04-.03,2.18,1.23,3.29,1.13,1.02-.1,1.6-2.05,2.49-.87.61.81.84,1.71.89,2.71Z"/>
    <path class="cls-50" d="M27.29,33.07c2.43-.72,5.05-1.13,7.04-2.77l4.06-.1c.21,1.5-.25,3.14-2.07,3.02.82,3.48-6.41,3.84-7.77,1.37-1.73,1.6-2.96.14-1.26-1.51Z"/>
    <path class="cls-23" d="M27.29,33.07c.11.5.64,1.49,1.26,1.51,2.68,1.38,2.04,2.19-.98,1.94-1.61,0-2.8-.7-2.88-2.51.83-.42,1.72-.67,2.61-.93Z"/>
    <path class="cls-28" d="M39.31,28.16l1-.03c1.96-.07,4.55-.51,5.07,1.82,2.09.57,1.43,1.58-1.99,3.03.91.17.96.53.17,1.07-.34,1.34-1.48,1.31-2.04.03-1.33.87-2.74.75-2.03-.93-2.03.73-2.09-.94-.17-5Z"/>
    <path class="cls-76" d="M36.31,33.21c.35-1.21,1.16-2.17,2.07-3.02l-.07-2,1-.03c.04,1.67,2.84,1.84,1.8,3.87-1-.41-1.46-.67-2.06-.69-.27,0-.55.3-.27.77.2.32.42.66.7,1.05.09.92-.55,1.61-1.93,2.07-2.36,1.92-4.11-.35-1.24-2.01Z"/>
    <path class="cls-53" d="M87.75,15.52c2.12.95,2.47.86,1.06-.29,1.2-1.06,2.47-2.04,3.84-2.86.27-.16.82-.2,1.13-.2.88.28.88.64.04,1.08,1.85.69,1.72.91.07,2-.02,1.91.35,2.9,1.1,2.96,1.4-1.38,1.94-.87,1.03.96,2.39.16,2.14.96.07,2,.89.59.56.9-.97.92-1.17,1.38-4.46,2.58-5.92,1.36-.53-1.51-1.29-2.84-2.29-3.99-1.89.13-2.27-.71-.94-2.05.45-.74,1.06-1.38,1.77-1.89Z"/>
    <path class="cls-29" d="M93.82,13.25c1.43-.48,3.09-.87,4.96-1.17l.98-.85c3.36-.47,6.68-1.35,9.86-2.54,5.58-1.74,4.66.81-.59,3.17-3.48,1.57-8.64,3.52-12.18,2.29,1.37,1.95.31,5.15-1.89,3.07-1.14-.04-1.35-.92-1.07-1.96-.29-.61-.81-1.44-.07-2Z"/>
    <path class="cls-88" d="M98.78,12.07c-1.42,1.24-3.22,1.15-4.96,1.17l-.04-1.08c1.67,0,3.34,0,5-.1Z"/>
    <path class="cls-65" d="M52.28,55.72c.03-.37-.18-.75-.18-1.12-1.57-4.15-3.03-11.29-1.47-15.58-1.96.2-1.96-.55,0-2.25-.06-1.12.92-1.62,2.95-1.5,1.27-.29,2.48-.85,3.77-1.06,2.66-.1,2.79,1.34,1.21,3.19,1.33,1.37,1.04,2.31-.89,2.33-2.07.89-3.24-1.06-2.98-2.98-1.25.36-1.96,1.04-2.12,2.06,1.01,1.1,2.52,4.58.33,5.88,2.8,1.16,2.49,5.94,1.46,8.38,2.32-.94,3.41.11,3.77,2.32.4-.87.78-.86,1.13.04,1.87-.35,1.84.39.09,1.25,1.11,1.35.52,1.57-1.08.9-2.2.15-4.43-.15-6.62-.01.44-.36.56-.67-.04-.91.54.21.64-.54.68-.94Z"/>
    <path class="cls-69" d="M59.34,56.69c.17-.91.47-.9.89-.03,2.33-.67,3.58-.38,3.75.86,2.62.14,2.94.72,1.64,3.02.89.06.84.29-.04.65-2.06-1.01-4.18-1.95-6.36-2.66-.3-.33-.62-.64-.97-.93.23-.41.61-.78,1.08-.9Z"/>
    <path class="cls-56" d="M26.23,54.63c-.8-.89.15-1.63,1.1-2.23.27-1.39.84-2,2.01-1.13.66-.58.8-.14,1.17.45s.49,1.29.13,2.18l-3.1,7.61c-.98-.19-2.12.33-3.1.26-4.95-.34-.89-5.45,1.79-7.15Z"/>
    <path class="cls-91" d="M21.2,57.72c-.59-3.32.58-3.19,3.15-2.14-.05-1.2,1.01-1.82,1.88-.96l-2.28,3.41.49,3.74c-.28.33-.68.54-1,.82-.11,1.47-.47,2.53-1.06,3.17l-1.83-4c-1.41,1.11-2.08.43-.99-1.06,1.07-.64.98-2.26,1.64-2.99Z"/>
    <path class="cls-15" d="M22.37,65.77c0-1.13.18-2.39,1.06-3.17-.21,2.33,1.21,4.17,1.35,7.07-1.44.02-1.19-1.64-2.1-1.91-.05-.66-.31-1.32-.31-1.99Z"/>
    <path class="cls-58" d="M16.48,61.97c.29-.1.74.12,1-.03l2.08-1.23c.44.24.8.65.99,1.06l-3,2.17c-.61-.49-.97-1.2-1.07-1.96Z"/>
    <path class="cls-5" d="M34.05,45.5c1.3-1.95,3.03-2.89,3.71-.07,2.49,2,3.62,4.22.23,5.71l-1.06,1.02-.78.03c-1.84-.16-2.45-1.03-1.91-2.75-1.89-.53-1.19-2.61-.19-3.94Z"/>
    <path class="cls-36" d="M28.07,49.6c1.83-1.82,3.16-4.07,4.84-6.03.22.16.66-.04.84.12l.88-.19c2.38,1.18,1.88,1.53-.58,2-.5,2.35-1.25,3.31-2.25,2.87-.97.83-2.32,1.39-2.46,2.9-.64.42-1.28.88-2.01,1.13-.26.78-.58.76-.96,0-1.69-1.42-.21-3.39,1.71-2.8Z"/>
    <path class="cls-55" d="M33.24,50.46c-.81-1.42-.42-1.94,1-1.01,1.41.14,2.17,1.41,1.91,2.75-1,.88-1.53,2.18-2.47,3.25-1.92-1.8-.64-3.4-.44-4.99Z"/>
    <path class="cls-2" d="M34.05,45.5c-.05,1.31.13,2.63.19,3.94-.24.42-.57.78-1,1.01l-1.44-2.09c.85-.73.76-2.84,2.25-2.87Z"/>
    <path class="cls-108" d="M37.76,45.43c1.4-1.99,3.61-.54,4.87.9.66.13.98.53,1.23,1.11,1.56,3.67-.65,2.86.18.94.12-.28.63-.4,1.26-.47-1.07-1.81-.88-2.47.56-1.99.93-.42,2.01.6,3.25,3.06,2.44-.23,2.77,3.51,1.04,4.85-4.15-.08-8.04-2.05-12.15-2.7,0-1.91.07-3.83-.23-5.71Z"/>
    <path class="cls-47" d="M44.76,40.97c.95-1.39,4.05-2.13,5.86-1.96.77.89,1.28,2.09,1.3,3.67l.17,11.9c-.71.19-1.36-.74-1.95-.75.33-1.8-.22-3.34-1.04-4.85-1.04-.17-1.54-1.1-1.5-2.77l-2.14-2.36c-2.2-.39-2.49-1.53-.71-2.88Z"/>
    <path class="cls-105" d="M19.98,54.65c.04-3.07,3.85-4.1,5.9-5.96.69.4,1.43.71,2.2.9-.8.8-1.07,1.93-1.71,2.8-.65,1.09-1.33,2.15-2.01,3.19-.81,1.01-2.25,1.33-3.15,2.14-.67-.79-1.23-2-1.22-3.07Z"/>
    <path class="cls-102" d="M57.34,34.21c1.67-2.58,4.15-4.71,6.89-6.09,1.66-1.56,3.32-2.12,4.97-1.69,3.23-.57,3.41,2.58.8,4l-4.86,6.23c.12,3.63-.53,4.78-1.96,3.44-1.12.66-2.02-.2-2.72-2.57-.09,2.1-1.52,1.95-1.92-.13-.87-.83-1.09-2.03-1.21-3.19Z"/>
    <path class="cls-45" d="M48.53,32.9c.4.32,1.15.12,1.61.23-.22.49-.36,1.01-.2,1.36.65,1.4,2.78-.02,3.62.78-1.16.27-1.96.96-2.95,1.5-.36,1.48-.98,2.45-2.11,1.16-3.03.63-4.2-1.19-4.95-3.87l-.17-1.07c1.68-1.99,5.34-3.36,5.14-.08Z"/>
    <path class="cls-109" d="M68.22,25.15c1.23-.3,2.28-1.6,3.7-1.42,1.97-.22,2.1.53.3,1.37.7,2.81-1.23,3.55-3.02,1.34-1.61.72-3.18,1.6-4.97,1.69.74-1.79,2.25-2.56,3.99-2.98Z"/>
    <path class="cls-110" d="M45.38,29.95c.87.17,3.18-.68,3.82.33.35.56-1.2,1.89-.66,2.63-1.56-1.24-3.42-.51-5.14.08l1.99-3.03Z"/>
    <path class="cls-79" d="M28.54,34.58c2.66.08,5.37-.18,7.77-1.37.06.8.28,1.89,1.24,2.01.75-1.14,1.45-1.36,2-.07,1.53,1.02,2.98,1.91,4.35,2.68,1.73-.86,2.06-.17.67,1.25l-.65,2.52c-1.75-.4-3.41-.64-5-.71-2.33,2.37-2.42,1.01-1.39-1.78-1.15.36-2.11.08-2.88-.84-.1-.47-.11-1.39-.53-1.51-.37-.1-.78.73-1.27,1.1-1.85.13-3.56-1.34-5.29-1.35.62-.46.9-1.19.98-1.94Z"/>
    <path class="cls-103" d="M34.66,38.27c.7-.28,1.29-.55,1.79-.72,1.33-.45,1.24.59,1.09,1.56,1.6,2.62.5,6.2-2.9,4.39-.29.35-.5.51-.88.19.42-1.79.94-3.57.9-5.42Z"/>
    <path class="cls-6" d="M39.48,33.15c.35.8,1.23.98,2.03.93.49.87.12,1.18-.96,1.03-.25.88-.59.88-1,.03-.65.02-1.35.15-2,.07-.08-1.14.81-2,1.93-2.07Z"/>
    <path class="cls-76" d="M41.52,34.08c.67-.08,1.58-.39,2.04-.03,1.12,1.25,1.13,1.91.03,1.96-.35,1.58-3.27.78-3.03-.89.35-.32.68-.66.96-1.03Z"/>
    <path class="cls-52" d="M109.62,8.68c.2-.44.61-.74.89-1.12.91-.35,2.21.21,3.11-.11,2.22-.99,2.69,2.3,1.56,4.09-.29.46-4.32,1.05-5.36,1.15-1.55.76-3.19,1.49-4.93,2.17-1.45,1.09-4.42,2.14-5.96,1.21-2.21,2.33-2.27.66-2.07-1.93,5.53-.93,10.92-2.35,15.87-5.11-1.31-.86-2.28-.22-3.11-.36Z"/>
    <path class="cls-27" d="M81.98,17.57c1.3-.2,2.69.15,3.99-.16.47.6.77,1.31.94,2.05,1.94.49,1.96,1.39.1,2.06-.02,1.88-.41,1.54-1.2-.15l-1.53-.76c-2.52-.58-4.41.06-5.67,1.93-3.13,1.38-5.03,1.44-5.69.19,2.39-2.53,5.57-4.64,9.05-5.17Z"/>
    <path class="cls-16" d="M72.93,22.74c5.37,1.1,6.84-5.46,11.36-2.12,3.23,2.57.9,6.53-2.54,3.1l-2.55-.05c-1.66,1.6-7.06,5.47-6.98,1.43-.18-.42-.06-.98-.3-1.37-.53-.87.28-1.13,1.01-.98Z"/>
    <path class="cls-21" d="M87.75,15.52c.27-.2.81-.06,1.06-.29.94.04,2.28.28,2.16,1.49-.07.71.63,2.95-.86,2.23.15-2.92-3.08-1.48-2.36-3.44Z"/>
    <path class="cls-12" d="M80.3,31.69c-.77-1.78,2.44-4.32,4.23-4.2l-.22-3.57c1.01-.2,1.52-1.05,1.51-2.54l1.2.15c.96-.55,1.69.09,2.19,1.93,1.62-1.26,3.97-1.17,5.92-1.36,1.03-.59,2.39-.8,2.56.45.57.76.39,1.24-.54,1.44-1.27,2.65-5.83,3.25-8.77,3.59,1.03,2.9-4.28,7.09-7,6.1-2.38,2.18-3.98-.38-1.07-1.99Z"/>
    <path class="cls-43" d="M96.03,19.17c-.34-1.34.91-2.12,1.96-1.07.96-1.24,2.73-2.43,3.96-1.14,2.99,1.46-.43,4.32-2.89,3.1.6,1.59-1.76,2.15-2.96,1.1l-.07-2Z"/>
    <path class="cls-98" d="M96.85,14.14l2.07,1.93c1.49.21,1.18.88-.93,2.03-.52.57-1.21.92-1.96,1.07-.14-.4-.74-.67-1.03-.96-.88-.25-.88-.59-.03-1,2.58.21.33-2.26,1.89-3.07Z"/>
    <path class="cls-73" d="M93.89,15.24c.82.29,1.06,1.16,1.07,1.96l.03,1c-.04.45.18.93.05,1.46-.54,2.24-2.02-3.01-2.03-2.81.02-.51.53-1.13.88-1.62Z"/>
    <path class="cls-86" d="M86.92,19.46c.84.02,2.09-.21,2.77.62.8.97-.18,2.35-.48,3.37-.44,1.37-1.39,1.02-1.56-.38-.06-.46-.42-.93-.63-1.55s.05-1.41-.1-2.06Z"/>
    <path class="cls-98" d="M96.1,21.17c1.08-.13,1.99-.69,2.96-1.1,2.6-1.08,3.31-.56,2.15,1.58,0,1.79-2.81,2.62-3.53.89-.78.27-1.76-.53-2.56-.45.27-.25.56-.88.97-.92Z"/>
    <path class="cls-72" d="M69.46,60.88c3.21-.5,8.84.42,9.17,4.02,2.17-1.31,8.45-.63,10.04,1.42,3.62-2.18,4.15.72,1.15,1.39-1.25.65-2.67.85-4.07.85.03,1.55-1.51,1.54-2,.07-7.33-.99-7.94-4.25-13.1-3.69-1.44-1.49-3.18-2.83-5.06-3.76l.04-.65c.31-2.83,3.5-2.5,3.83.35Z"/>
    <path class="cls-75" d="M61.91,48.2c.79-1.04.72-2.57-.22-4.56-2.22.1-2.47-1.95-.97-3.2-2.14.22-2.14-2.17-.26-2.9,1.09.47,2.09,1.54,2.72,2.57,1.09-.08,2.23.32,3.4,1.19.62-1.27,1.15-.97,1.58.89,3-.32,2.65,2.31.87,3.91,1.61,3.09-.77,5.15-3.7,6.11l-.04,1.09c.95,2.98-2.53,3.74-5.07,3.37-.29.05-.61-.04-.89.03l-.09-1.25c-.79-1.94.5-6.05,2.66-7.24Z"/>
    <path class="cls-107" d="M52.89,44.69c.06-2.63,1-3.23,2.82-1.79,1.01-1.75,2.02-1.6,2.48.37.19,2.47-.12,4.67-.95,6.6.51,2.53-.28,5.41-2.89,3.21-2.18-2.22-1.29-5.4-1.46-8.38Z"/>
    <path class="cls-40" d="M58.01,50.68c-.45-2.81.3-11.09,3.02-7.14,1.3.7,2.47,3.57.89,4.67.81,2.8-1.79,4.67-2.66,7.24-.37.04-.77-.11-1.13-.04-2.66-.89-1.7-3.02-.11-4.72Z"/>
    <path class="cls-59" d="M53.68,38.66c-1.25-1.11-.49-1.68,1-1.91,1.56.2,1.95,2.06,2.98,2.98,1.32-1.4,1.86-.88,1.04.92,1.65,1.06,1.73,2.23-.51,2.62-.83-.07-1.66-.19-2.48-.37-2.27.74-2.81-2.39-2.03-4.24Z"/>
    <path class="cls-97" d="M57.24,49.87c.55-.68.81-.41.77.81.93,1.53-.5,3.12.11,4.72-1.94.39-2.68-1.22-3.77-2.32,1.11-.32,2.53-2.08,2.89-3.21Z"/>
    <path class="cls-62" d="M52.56,38.82c-1.38-1.8,2.17-2.48,1.12-.15.15,1.61,1.12,2.94,2.03,4.24-.48,1.11-1.93,1.07-2.82,1.79l-.33-5.88Z"/>
    <path class="cls-106" d="M44.57,39.08c-.07-2.12,1.24-2.51,3.94-1.16l2.11-1.16v2.25c-1.59,1.47-3.69,2.16-5.86,1.96-2.86-.02-2.4-.38-.19-1.89Z"/>
    <path class="cls-67" d="M58.55,37.4c.57.21,1.37-.11,1.92.13.26.86-.17,2.09.26,2.9.19,2.1-1.38,2.23-2.02.22l-1.04-.92c.2-.81.46-1.61.89-2.33Z"/>
    <path class="cls-57" d="M54.68,36.75c-.11.73-.41,1.44-1,1.91-.04-1.33-1.18-.98-1.12.15-1.36.09-1.23-1.96-.41-2.09.98-.15,1.81-.07,2.53.03Z"/>
    <path class="cls-14" d="M98.63,65.11c-2.18-2.15-2.22-3.26-.12-3.35,1.46-2.11,3.9-1.83,7.32.84,4.43.19,6.37,1.52,5.82,3.97,2.72.45-.44,4.05-2.83,4.18-.05.66-.41,1.01-1.07,1.06l-1.84.02c-.36-.32-.76-.6-1.09-.95-1.98-.7-4.08-.56-6.1-.1-.25-.03-.62-.09-.84,0,.39-.58-.64-.92-1.06-.85-.89-.11-.81-.3.12-.57,1.52-1.32,1.68-2.35,1.68-4.28Z"/>
    <path class="cls-87" d="M94.76,63.43c.87.22.84.51-.03.87.12,1.75-.18,2.25-.9,1.49,3.04,2.91,3.01,4.09-.1,3.55-1.39-.16-3.24-.15-3.92-1.62.25-.41.76-1.12.29-1.21-.74-.15-1.19-.26-1.44-.18-.15-5.15,2.58-5.53,6.09-2.89Z"/>
    <path class="cls-8" d="M94.73,64.3c1.04.05,2.02.66,2.94,1.84,1.55.84.72,2.55-.71,3.24l-.12.57c-1.1.18-2.08-.5-3.1-.62,4.09-.37-2.25-1.56-.87-4.43.24-.51,1.11-.68,1.86-.61Z"/>
    <path class="cls-4" d="M69.03,46.09c1.37-1.27,1.53-.6,1.14,1.2,1.07,1.29,2.37,2.16,3.89,2.63,1.73-.93,2.25-.32,1.04,1.23,3.69.51,4.25,2.78,2.04,5.51-.69,1.16-2.26,1.42-4.73.78-.74,1.63-1.72,2.78-2.95,3.44l-3.83-.35c-.73-.89-1.38-1.88-1.64-3.02.15-1.25,1.06-2.27,2.74-3.08l-1.43-1.14c-4.58-.17,1.97-2.97,1.83-4.22-.04-.35-1.04-1.01-.71-1.37.52-.57,1.41.11,1.87-.13.55-.28.66-.96.75-1.47Z"/>
    <path class="cls-93" d="M65.3,53.28c.73-.37,2.92-1.59,3.32-.57,1.08,2.8-2.09,4.93-4.63,4.79-1.31-.07-2.71.26-3.75-.86,1.66-.55,3.61-2.62,5.07-3.37Z"/>
    <path class="cls-104" d="M26.36,52.4c.3-.06.67.1.96,0-.02.76-.8,1.78-1.1,2.23-.47.49-1.47.44-1.88.96-.53.3-1.08.11-1.03-.46.94-1.53,2.38-1.83,3.05-2.73Z"/>
    <path class="cls-22" d="M34.63,43.5c1.68-.83,1.74-3.12,2.9-4.39-.13.8.66,1.69,1.39,1.78.4-.52.79-.92,1.2-.93.79-.02,5.1,4.03,5.46,4.77.89.22.99.62.28,1.19.08.71-.41,1.35-.56,1.99-1.07.69-1.95.16-2.66-1.59-1.68,1.07-3.31.22-4.87-.9l-3.71.07c.02-.57.29-1.53.58-2Z"/>
    <path class="cls-33" d="M45.47,43.85c1.03.27,2.11.64,2.82,1.15,1.41,1,.24,2.92.82,3.99-.54.23-1.03.74-1.81.89-.4-1.91-.68-2.96-1.44-3.95-.22-.29-.15-.85-.28-1.19-.93-.03-.94-.34-.11-.88Z"/>
    <path class="cls-18" d="M42.63,46.33c.87-.56,2.4.87,2.66,1.59-.27,1.13.5,2.75-1.52,3.54-1.23-1.82-.78-3.55-1.14-5.13Z"/>
    <path class="cls-81" d="M44.57,39.08l.19,1.89c.1.98.37,1.95.71,2.88.07.29,0,.61.11.88-1.03-.53-2.79.68-3.78-.48-1.12-1.31-1.32-3.15-2.88-3.36.65-.83.49-2.02,1.22-2.75,1.07,1.27,1.76,1.81,2.58,1.76.73-.04,1.27-.76,1.85-.82Z"/>
    <path class="cls-3" d="M69.2,26.44l3.02-1.34c2.87,1.34,2.51-2.54,6.98-1.43,4.72.78.74,3.73-2.15,5.29-.36,1.88-1.21,2.87-2.55,2.97-4.39,2.26-7.03,5.39-7.92,9.37-.81.25-1.65.42-2.3.58-1.54.38-.71-1.16-1.09-1.77,1.24-.06.72-1.47.6-2.19-.14-.83-1.18-1.38-1.54-2.42-.44-1.28,1.21-1.24,1.67-.96.27.16,1.05.43,1.64.39,1.67-5.36,5.75-5.9,3.64-8.49Z"/>
    <path class="cls-39" d="M43.59,36.01l-.03-1.96,4.95,3.87c-1.25.69-2.53,1-3.94,1.16l-.67-1.25c-1.74-.71-2.27-1.24-.32-1.82Z"/>
    <path class="cls-30" d="M39.55,35.15l1-.03c.79.82,1.93,1.03,3.03.89,0,.6.04,1.31.32,1.82-1.76-.47-4.59-.3-4.35-2.68Z"/>
    <path class="cls-34" d="M116.37,6.47c2.56-.91,2.12-5.6,6.02-6.3,1.65-.6,2.63.49,2.02,2.03-1.79,2.6-3.4,6.1-3.45,9.7-.62.14-1.52.3-2.06.64-4.54,1.57-4.38-4.09-2.53-6.06Z"/>
    <path class="cls-80" d="M113.61,7.45l2.76-.98c.3,1.62.63,3.24.71,5.22.48.71,1.22.8,1.82.84-.87.54-1.84,1.24-2.96,1.08-.91.56-2.28.37-3.09-.03-1.08.11-2.08.15-3,.1-.88-.25-.88-.59-.03-1,1.05-1.07,4.46-2.06,4.63-3.65.06-.52-.58-1.1-.84-1.59Z"/>
    <path class="cls-78" d="M98.92,16.07c1.96-.68,3.9-1.16,5.96-1.21.88.25.88.59.03,1,.12,2.4-1.48,2.97-2.96,1.1l-3.96,1.14.93-2.03Z"/>
    <path class="cls-82" d="M109.81,12.69l.03,1c-.59,1.74-3.38,1.84-4.96,1.17.89-1.8,3.08-2.01,4.93-2.17Z"/>
    <path class="cls-77" d="M74.5,31.93c.5-1.02.41-3.09.84-4.73,1.6-.08,3.08-.45,4.04-1.36.46-.44-.12-1.35-.17-2.18,1.3-.87.83-2.48,1.72-2.56,1.76-.16,2.23,1.72,3.53,2.3,1.25.56.8-2.29-.16-2.78.42.31,1.23.18,1.53.76.51,2.22,1.37,5.27-1.29,6.11-2.04,1.35-4,2.17-5.88,2.45,1.33,2.48-.59,4.7-3.16,4.94-3.16,1.71-4.42-1.97-.99-2.96Z"/>
    <path class="cls-7" d="M75.49,34.88c.29-2.17,1.85-3.43,3.16-4.94,2.16-1.8,3.04-.62,1.65,1.75-.43,1.05.56,1.39,1.07,1.99,1.16,3.65-6.45,9.2-9.67,9.33l-.53,4.36c-.36.75-.7.7-1.01-.09-.28-.48-.66-.9-1.14-1.2.25-1.44-.4-2.65-.87-3.91-3.73-4.9,2.7-7.22,7.33-7.3Z"/>
    <path class="cls-90" d="M84.53,27.49c-.91,1.83-2.52,3.13-4.23,4.2l-1.65-1.75c1.4-1.62,3.8-4.42,5.88-2.45Z"/>
    <path class="cls-111" d="M101.95,16.96c1.02-.29,2.05-.54,2.96-1.1.61-.84,3.34-1.26,4-.14,1.85-.19,1.64.32-.02,1.16.94,2.5.6,2.82-1.83,1.71-2.26.35-4,1.82-5.84,3.05l-2.15-1.58c1.43-.6,3.15-1.27,2.89-3.1Z"/>
    <path class="cls-109" d="M108.84,70.75l2.62-1.12c.92-2.36,2.07-3.09,3.47-2.18,2.73-2.04,6.19,2.19,4.74,4.86-.21,1.03.17,3.92-1.6,3.98s-3.34-2.27-4.18-3.55l-5.01-1-1.1.06c.36-.35.69-.74,1.07-1.06Z"/>
    <path class="cls-85" d="M113.88,72.75l-2.61.13c-.44-.6-2.06-.16-2.41-1.13,1.88-.11,3.88-.74,5.01,1Z"/>
    <path class="cls-85" d="M104.84,70.89c-2.03.16-4.07.16-6.1-.1,1.65-1.19,4.59-1.51,6.1.1Z"/>
    <path class="cls-26" d="M79.17,57.67c.58-2.11,1.27-2.48,3.13-1.17-.26-2.85,2.28-2.64,2.94-.23,1.02-.11,2.08-.05,3.18.2,1.8-2.56,3.87-1.38,2.95,1.5,1.82.65,1.84,1.11.06,1.38,1.76,1.58,3.69,2.35,6.07,1.79.72-.62,1.05-.39,1.02.61l.12,3.35c-1.49,1.55-3.33-.03-3.87-1.68l-3.82-.46c-.05.77.56,2.03-.07,2.25-.74.26-1.51.97-2.2,1.11-3.88.77-7.01.53-10.04-1.42-1.99-1.43-2.67-2.01-.73-3.67-.7-1.78-.9-2.79,1.27-3.55Z"/>
    <path class="cls-42" d="M77.14,56.66c1.23-1.87,1.59-.98,2.02,1.01-.13,1.5,1.15,3.09.63,4.7-.17.52-1.25.73-1.41,1.15-.17.45,0,.94.24,1.37-2.67-1.73-7.05-1.11-9.17-4.02-.21-2.12.17-4.49,2.59-5.46,1.49-.6,3.4.59,5.09,1.25Z"/>
    <path class="cls-74" d="M74.5,31.93c-.36.72.11,3,.99,2.96-.2,1.51-1.04,3.31-2.58,3.49-.2-2.03-1.15-3.06-1.39-.94-.01,1.28-.04,1.78-.71,2.31s-.92-.56-1.64-1.43c-1.06.41-1.48,2.65-1.02,3.88-.54-.27-1.07-.56-1.58-.89-.08-1.45-1.83-3.87-.36-5.28,1.98-1.9,4.37-2.85,5.23-5.48,1.27.63,2.07,1.07,3.05,1.39Z"/>
    <path class="cls-13" d="M58.19,43.27c.63-.77-.72-2.27.51-2.62l2.02-.22c.53,1,1.12,1.97.97,3.2-.12.88-.35.81-.67-.1-3.53-.54-1.28,4.82-3.02,7.14-.5-.03-1.08-.15-.77-.81-.01-2.24-.55-4.65.95-6.6Z"/>
    <path class="cls-101" d="M61.03,43.53l.67.1c4.08.62-1.5-.79,3.25,3.18.42.35.06,1.35-.46,1.43-.73.11-1.61-.08-2.57-.04-1.14-1.2-.65-3.12-.89-4.67Z"/>
    <path class="cls-85" d="M111.66,66.57l2.79-.23c1.72-.92,2.02-.18.47,1.12-3.4.31-.61,3.98-6.09,3.3,1.34-1.16,3.14-2.2,2.83-4.18Z"/>
    <path class="cls-83" d="M97.67,66.14c-.2-.83.12-1.18.96-1.03.77.54,1.3,1.52.99,2.27-.49,1.23-1.41,2.55-2.67,2.01.23-1.08.53-2.15.71-3.24Z"/>
    <path class="cls-46" d="M94.76,63.43c1.68-.56,2.63.45,3.87,1.68-.18.46-.55.78-.96,1.03-.69.32-1.52,1.74-2.29.66-.5-.7-.38-1.81-.64-2.5l.03-.87Z"/>
    <path class="cls-49" d="M70.17,47.29l1.01.09c2.37-1.21,4.12-.1,2.88,2.54-2.13.96-1.22,3.81-3.7,5.29.12-3.16,1.09-5.51-.19-7.92Z"/>
    <path class="cls-31" d="M112.84,13.58c.48-.36,1.01-.62,1.65-.77.57-.14.98.73,1.44.8-1.37,1.9-4.1,1.68-5.8,3.22l-1.24.05.02-1.16c.24-1.67,2.29-2.34,3.93-2.14Z"/>
    <path class="cls-17" d="M109.84,13.69c1.05-.38,2.02-1.35,3-.1-1.38.59-2.82,1.09-3.93,2.14l-4,.14-.03-1c1.64-.04,3.42-.61,4.96-1.17Z"/>
    <path class="cls-100" d="M75.1,51.15c2.39-.48,4.97.35,7.23,1.34,1.75.77,3.49,1.85,5.04,2.96.18,1.35-1.05,1.26-2.13.83-.72-.23-2.42-.38-2.94.23l-3.13,1.17c-.72-.23-1.33-.74-2.02-1.01-.08-2.04-.9-4.16-2.04-5.51Z"/>
    <path class="cls-46" d="M91.43,59.35c2.1.29,4.12.97,6.07,1.79-.52,1.66-2.6,1.13-4.03.75-1.13-.31-1.98-1.11-2.04-2.54Z"/>
    <path class="cls-48" d="M82.3,56.5c-.83.95-1.76,1.6-3.13,1.17.11-1.31-.23-2.83.43-3.83,2,.8,2.21,1.45,2.7,2.66Z"/>
    <path class="cls-71" d="M87.37,55.45c.4.29.75.64,1.05,1.03-.48.13-.95,1.05-1.59,1.02-.81-.04-1.11-1.08-1.59-1.23-.01-1,1.49-.6,2.13-.83Z"/>
  </g>
</svg>