<?xml version="1.0" encoding="UTF-8"?>
<svg id="Enemy" xmlns="http://www.w3.org/2000/svg" viewBox="0 0 80.12 126.05">
  <defs>
    <style>
      .cls-1 {
        fill: #2e2b25;
      }

      .cls-2 {
        fill: #3b3a38;
      }

      .cls-3 {
        fill: #434241;
      }

      .cls-4 {
        fill: #2d2c2c;
      }

      .cls-5 {
        fill: #484644;
      }

      .cls-6 {
        fill: #736b67;
      }

      .cls-7 {
        fill: #1f1d1e;
      }

      .cls-8 {
        fill: #2e2625;
      }

      .cls-9 {
        fill: #211c19;
      }

      .cls-10 {
        fill: #242322;
      }

      .cls-11 {
        fill: #383536;
      }

      .cls-12 {
        fill: #1c1919;
      }

      .cls-13 {
        fill: #212d57;
      }

      .cls-14 {
        fill: #151113;
      }

      .cls-15 {
        fill: #181517;
      }

      .cls-16 {
        fill: #333230;
      }

      .cls-17 {
        fill: #453f3f;
      }

      .cls-18 {
        fill: #47444a;
      }

      .cls-19 {
        fill: #3f3f3f;
      }

      .cls-20 {
        fill: #2d2d31;
      }

      .cls-21 {
        fill: #2e1d1a;
      }

      .cls-22 {
        fill: #302f34;
      }

      .cls-23 {
        fill: #423e3e;
      }

      .cls-24 {
        fill: #292522;
      }

      .cls-25 {
        fill: #4d322b;
      }

      .cls-26 {
        fill: #2c292a;
      }

      .cls-27 {
        fill: #23201e;
      }

      .cls-28 {
        fill: #1d1a19;
      }

      .cls-29 {
        fill: #231c1b;
      }

      .cls-30 {
        fill: #1c120e;
      }

      .cls-31 {
        fill: #19151a;
      }

      .cls-32 {
        fill: #0e0d09;
      }

      .cls-33 {
        fill: #56545b;
      }

      .cls-34 {
        fill: #1a1718;
      }

      .cls-35 {
        fill: #13110f;
      }

      .cls-36 {
        fill: #484649;
      }

      .cls-37 {
        fill: #2b2828;
      }

      .cls-38 {
        fill: #202021;
      }

      .cls-39 {
        fill: #f8dbc8;
      }

      .cls-40 {
        fill: #2f3a5c;
      }

      .cls-41 {
        fill: #c6b1a5;
      }

      .cls-42 {
        fill: #353334;
      }

      .cls-43 {
        fill: #332e31;
      }

      .cls-44 {
        fill: #16161b;
      }

      .cls-45 {
        fill: #c1a592;
      }

      .cls-46 {
        fill: #1a0f0d;
      }

      .cls-47 {
        fill: #4d4c4f;
      }

      .cls-48 {
        fill: #3a3a3a;
      }

      .cls-49 {
        fill: #141614;
      }

      .cls-50 {
        fill: #504b49;
      }

      .cls-51 {
        fill: #4b4439;
      }

      .cls-52 {
        fill: #312e2a;
      }

      .cls-53 {
        fill: #4a3832;
      }

      .cls-54 {
        fill: #3b3739;
      }

      .cls-55 {
        fill: #5a5556;
      }

      .cls-56 {
        fill: #35322e;
      }

      .cls-57 {
        fill: #2a2f4b;
      }

      .cls-58 {
        fill: #1c1c26;
      }

      .cls-59 {
        fill: #304278;
      }

      .cls-60 {
        fill: #e3c9be;
      }

      .cls-61 {
        fill: #1f1d1f;
      }

      .cls-62 {
        fill: #3f487f;
      }

      .cls-63 {
        fill: #20211b;
      }

      .cls-64 {
        fill: #323030;
      }

      .cls-65 {
        fill: #282f49;
      }

      .cls-66 {
        fill: #3f3d3d;
      }

      .cls-67 {
        fill: #4c4f5a;
      }

      .cls-68 {
        fill: #333;
      }

      .cls-69 {
        fill: #2e2929;
      }

      .cls-70 {
        fill: #332f30;
      }

      .cls-71 {
        fill: #0f0f0f;
      }

      .cls-72 {
        fill: #191819;
      }

      .cls-73 {
        fill: #6d5955;
      }

      .cls-74 {
        fill: #323031;
      }

      .cls-75 {
        fill: #39383a;
      }

      .cls-76 {
        fill: #443b36;
      }

      .cls-77 {
        fill: #494746;
      }

      .cls-78 {
        fill: #110a05;
      }

      .cls-79 {
        fill: #312a2a;
      }

      .cls-80 {
        fill: #262228;
      }

      .cls-81 {
        fill: #444040;
      }

      .cls-82 {
        fill: #120a08;
      }

      .cls-83 {
        fill: #524a4e;
      }

      .cls-84 {
        fill: #1a120e;
      }

      .cls-85 {
        fill: #222124;
      }

      .cls-86 {
        fill: #5c4a44;
      }

      .cls-87 {
        fill: #1e1a19;
      }

      .cls-88 {
        fill: #261f23;
      }

      .cls-89 {
        fill: #0c0e0b;
      }

      .cls-90 {
        fill: #333132;
      }

      .cls-91 {
        fill: #2a2a29;
      }

      .cls-92 {
        fill: #1a1a18;
      }

      .cls-93 {
        fill: #41403d;
      }

      .cls-94 {
        fill: #313031;
      }

      .cls-95 {
        fill: #5d5448;
      }

      .cls-96 {
        fill: #2e2d25;
      }

      .cls-97 {
        fill: #324278;
      }

      .cls-98 {
        fill: #26242c;
      }

      .cls-99 {
        fill: #302018;
      }

      .cls-100 {
        fill: #242424;
      }

      .cls-101 {
        fill: #47484e;
      }

      .cls-102 {
        fill: #333231;
      }

      .cls-103 {
        fill: #514d4b;
      }

      .cls-104 {
        fill: #535350;
      }

      .cls-105 {
        fill: #33323a;
      }

      .cls-106 {
        fill: #3b2f24;
      }

      .cls-107 {
        fill: #2b3864;
      }

      .cls-108 {
        fill: #3d393c;
      }

      .cls-109 {
        fill: #161616;
      }

      .cls-110 {
        fill: #504137;
      }

      .cls-111 {
        fill: #2a2420;
      }

      .cls-112 {
        fill: #302b2d;
      }
    </style>
  </defs>
  <path class="cls-24" d="M14.91,14.75c1.34,1.39,1.03,3.64.08,5.31,1.13,1.16.6,1.48-.94,1.13-.03,1.97-.74,2.2-2.12.7.86,2.23-9.33,5.11-9.9,4.96-.86-.24-.53-2.22.07-3.08l-.25-1.81,4.43-4.36c1.44-1.42,4.14-1.88,5.67-3.63,2.02-2.51,3.76-2.58,2.97.79Z"/>
  <path class="cls-61" d="M22.93,30.1c3.7-.73,6.18,3.17,4,5.72,3.22,2.98,2.98,7.06,0,10.08-.3.87-.64.85-1.01-.02-.4-.41-.74-1.1-1.02-2.07-2.61-.18-4.49-5.54-1.93-6.84-1.73.05-2.37-.32-2.58-1.87-1.39-.19-2.88-.67-4.48-1.44-3.51.46-6.95-.07-9.97-1.64-.58-.23-.61-.56-.12-.98,1.15-3,6.02-1.27,8.35-.22.05-.9.32-.88.79-.03,1.23-1.92,2.22-2.38,2.96-1.36l5,.67Z"/>
  <path class="cls-10" d="M9.71,25.34c-.73,2.17-1.37,2.37-1.92.59-.68,1.58-2.51,2.28-3.88.97-.32,1.11.31,2.19,1.88,3.23.86.14.84.45.03.93l.12.98c-1.73-.9-4.81-.48-5.75-3.06-.67-1.82.52-3.85,1.9-5.21.31.3.67,1.33,1.22,1.75,3.32-.13,6.16-1.76,8.61-3.63,4.42.02,1.84,6.4-2.21,3.45Z"/>
  <path class="cls-41" d="M18.67,7.08c.93,1.25,1.01,3.16-.76,3.81,1.31.95,1.52,2.31,0,3,3.89-.38,1.5,4.14-1,2-1.14,1.33-2.17.51-2-1.14-.66-.99-1.89-1.03-2.97-.79,1.21-1.39,1.52-3.57,2.89-4.88,1.08-1.02,2.31-1.95,3.83-2Z"/>
  <path class="cls-60" d="M20.91,9.89c1.62,1.12,1.13,2.06-.91,2-.87,1.76-1.76.71-2.09-1-.54-.14-1.2-.16-1.62-.79,1.28-.99,2.17-1.8,2.38-3.01.41-.01.84-.11,1.24-.19-.46,1.14-.12,2.42,1,3Z"/>
  <path class="cls-51" d="M47.85,12.94c-.82-.3-1.9.34-2.72.34-.05,2.18-1.5,2.29-2.02.06-.92,1.38-2.34.62-1.29-1.02-1.78.09-2.74-1.39-.91-2.44-1.82-1.42-3.82-2.09-6-2,.14,1.93-.64,1.97-1.19.04-1.26,1.45-1.17,2.82.29,4.11-.1,3.41-1.16,4.71-3.17,3.89-2.48-1.24-2.47-1.94.06-3.04l-.99-3.88c-.88.18-.87-.05-.07-.63-2.92-3.67-.49-5.88,7.29-6.64,3.46-2.77,11.87,3.82,13.4,7.43s1.54,3.92-2.69,3.77Z"/>
  <path class="cls-32" d="M36.83,13.06c.93-.92,3.65.34,3.08,1.83.28,1.13,1.33,1.13,3.15-.01-1.92-.63-1.91-1.14.05-1.53.48.38,1.39-.06,2.02-.06,2.63,1.1-3.58,5.85-3.14,5.72.53,2.06-1.88,4.95-4.05,4.8-3.29,1.73-4.67-5.91-4.59-8.42.11-3.64.88-4.44,3.48-2.32Z"/>
  <path class="cls-1" d="M38.78,0c5.08-.11,10.99,6.42,13.13,9.89.25.4.14,1.04.45,1.4l.86,1.02c.46.54.03,1.14-.31,1.58-1.77.19-3.42-.36-5.05-.95.84-.52,1.96-.98,2.31-1.76.94-2.12-6.57-10.08-13.02-9.44-2.25.87-3.07.67-2.45-.59C36.02.92,37.45.03,38.78,0Z"/>
  <path class="cls-38" d="M41.99,19.01c3.54,3.85,7.78.45,7.65,5.05l-2.81,1.22s-2-.35-6.01-1.05c-.25.9-.62.9-1.09.06-.71,1.87-1.6,1.56-1.79-.47,1.24-1.99,1.74-4.13,4.05-4.8Z"/>
  <path class="cls-64" d="M51.91,24.89c.4,2.1,1.09,3.76,2.07,5,.19,1.67,1.11,3.27.99,5-.78,2.59-1.2,2.56-2.02-.06-3,1.3-3.76-5.24-2.52-7.13-2.02-.23-2.35-1.27-.84-2.64-.9-.38-.88-.72.06-1.01,1.04.15,1.44.28,2.27.84Z"/>
  <path class="cls-68" d="M56.11,37.73c1.67,1.52,1.41,3.53,1.86,5.41.09,2.17-.54,3.02-1.78,1.03-.57-.45-1-1.55-1.28-3.28-.78-.29-.77-.62,0-1-.87-.28-.86-.62,0-1-2.06-.3-1.9-4.17.19-3.08.67.36.53,1.49,1.01,1.92Z"/>
  <path class="cls-94" d="M53.97,29.89c-1.47.42-2.14-.48-2.12-1.54l.06-3.46c1.76,1.19,1.84,3.02,2.07,5Z"/>
  <path class="cls-66" d="M54.96,34.89c-.02.3.13.61.14.92-.44.35-.97.84-.96,1.4.02.66.45,1.19.76,1.68-.44.87-1.81,1.38-2,0-2.02-2.4-2-3.76.04-4.06l2.02.06Z"/>
  <path class="cls-96" d="M37.14,1.74l-8.38,3.67c.65,1.86,4.51,1.39,3.23,2.27-.57.4-1.86.57-2.15.7-1.12,2.55-1.77,2.32-1.97-.69-1.58-.73-1.9-1.69-.95-2.89,1.97-2.13,4.92-3.15,7.76-3.65.05.97,1.77.66,2.45.59Z"/>
  <path class="cls-63" d="M26.93,4.8c.43.05,1.05.24,1.06.58.02.75-.24,1.72-.11,2.31-.73-.26-1.91-.35-3.08-.97-.46-.24-.8-.6-.11-1.49l2.24-.43Z"/>
  <path class="cls-11" d="M14.04,21.19c1.23-1.2,2.02-1.03,1.87.7.56.69-.37,1.62-.98,1.65-.35.02,4.25-2.28,6.11-.72.93-.16,1.19.18.78,1.03,2.86.13,2.96,2.36.15,3.11l-4.07.72c.39,1.45-.59,2.48-2.94,3.11-.21.12-.55-.03-.79.03-2-.84-4.03-1.5-6.07-2,.05-1.57.58-2.73,1.61-3.49l3.04-1.89c.67-.42.07-1.8-.83-1.57.59-.44,1.22-1.16,2.12-.7Z"/>
  <path class="cls-99" d="M16.91,15.89c2.22.12,1.98,1.16,0,2-.75.62-1.37,1.37-1.92,2.17.54-1.77-1.58-3.84-.08-5.31.8.1,1.56.45,2,1.14Z"/>
  <path class="cls-54" d="M32.15,29.12c.91-1.7,3.65.93,2.82,2.56,1.24,1.52-.7,1.99-2.14,1.37-.98.81-1.59,1.76-1.84,2.84.89.1.86.36,0,.78-1.71,2.78-3.59,2.4-4.07-.84-.22-2.42-2.79-3.79-4-5.72-6.18-.26-8.79-2.23-.95-3.14l.61-1.19c3.09.86,6.28,1.98,9.56,3.34Z"/>
  <path class="cls-112" d="M30.99,36.67c1.62-.73,2.14-.34.98,1.1,2.92,2.13,1.12,3.92-1.02,5.87,1.23,2.16.74,5.34-2.1,6.19,1.7,1.21.91,1.44-.82,1.93-.2.92-.58.95-1.13.14-.78-1.66-.65-4.44,0-5.98-.4-2.18.33-4.24.61-6.74-.27-.6-1.36-.85-1.46-1.33-.16-.79.49-1.66.86-2.01,1.24.69,2.68.78,4.07.84Z"/>
  <path class="cls-70" d="M14.18,30.83c-2.17,2.41-5.09-.05-8.35.22-.04-.3-.06-.62-.03-.93-1.67-.61-1.65-.96.12-1.23-.52-1.3.54-2.53,1.88-2.97.54,0,1.46-.3,1.92-.59.15.93-.83,1.87-.2,2.78,2.03-.42,3.31-.46,4.39.38.56.44.52,1.56.27,2.33Z"/>
  <path class="cls-70" d="M21.98,26.96c-.38,1.64-2.69.1-4.09,1.51,2.24.82,3.95-.12,5.04,1.63-2.49,1.58-5.36-.73-7.96.69.61-1.32,1.05-3,2.1-3.48,1.46-.66,3.79-.86,4.92-.35Z"/>
  <path class="cls-112" d="M25.91,45.89c.95,1.51.77,3.74.08,5.29.5,2.1-.37,2.23-.91.01l-.19-7.37c.89-.09,1,1.4,1.02,2.07Z"/>
  <path class="cls-89" d="M26.91,51.89c-1.17,1.65-1.76,1.13-.92-.71-.14-1.76-.04-3.52-.08-5.29l1.01.02c.35,1.95-.06,4.02,0,5.98Z"/>
  <path class="cls-37" d="M7.8,25.92c.1,1.34-.52,2.63-1.88,2.97-1.43.74-3.37-.56-2-2,1.06-.59,2.62-.96,3.88-.97Z"/>
  <path class="cls-19" d="M3.91,26.89c.35.93,1.07,1.65,2,2l-.12,1.23c-.99-.6-3.52-.59-3.86-2.09-.38-1.69,1.51-.88,1.98-1.14Z"/>
  <path class="cls-25" d="M20,11.89c.81.34.77.68-.09,1-.32.81-1.2,1.02-2,1v-3l2.09,1Z"/>
  <path class="cls-35" d="M56.18,44.16c1.98-.11,1.32,4.07.6,5.76-2,1.69-4.82,1.41-7.22.61-1.9-.65-1.76-1.39.28-1.6.88-1.21,1.91-2.23,3.07-3.05-.61-2.63.05-4.29,2-5,1.18.56,1.15,2.11,1.28,3.28Z"/>
  <path class="cls-28" d="M56.78,49.93l-.6-5.76c.78.11,1.5-.28,1.78-1.03.57,2.37.93,5.01-1.18,6.79Z"/>
  <path class="cls-44" d="M33.72,7.94l3.19,1.96c.95.35,1.63,3.28-.08,3.17-.59.1-1.78.11-2.08.59.7-1.11,1.04,9.19,3.19,10.15.61.09,1.19.34,1.79.47,2.3-.37.87,5.86.62,6.11-2.18,2.1-4.88-2.58-5.5-4.64-2.55.64-4.95-3.83-5.75-6.1.72-1.07.84-2.77,1.74-3.71,3-3.12-1.18-8.82,2.88-8Z"/>
  <path class="cls-9" d="M38.56,10c1.13.88,2.22,1.66,3.26,2.34l1.29,1.02c.64.42.27,1.05-.05,1.53-1.85,1.45-2.9,1.45-3.15.01-.91-.81-2.28-.87-3.08-1.83l.08-3.17c-.87-.28-.86-.62,0-1,1.54-1.23,2.28-.76,1.65,1.1Z"/>
  <path class="cls-95" d="M40.91,9.89c.34,2.03-1.78,1.91-2.35.1-.5-.36-1.02-.95-1.65-1.1-2.07,1.7-2.68,1.73-2-1,.81-1.07,2.06-1.17,3.24-.89,1.62.37,2.7,1.22,2.76,2.89Z"/>
  <path class="cls-84" d="M40.91,9.89c.03.8.95,1.58.91,2.44-.82.52-1.79.43-2.86-.07-.79-.37-1.22-1.37-.41-2.26l2.35-.1Z"/>
  <path class="cls-92" d="M36.91,8.89v1c-.35-.17-1.36-.03-1.37.45,0,.37.65,1.72-.5,1.62-1.93-.16-1.05-2.85-1.32-4.03.37.08.81-.09,1.19-.04.39.79,1.25.81,2,1Z"/>
  <path class="cls-44" d="M43.06,14.88c-1.05,1.58-2.63,2.91-5.1,3.03.42-1.53,1.18-2.34,1.94-3.02h3.15Z"/>
  <path class="cls-42" d="M49.64,24.05c0,.29-.17.76-.06,1.01-.07,1.4-1.05,2.79-2.61,2.8.97,1.07,1.03,2.64.18,4.72,1.79,2.79-.28,5.08-2.18,2.31-.53,2.38-4.16.41-5.39-1.09-.81-.36-.75-.64.15-.84.85-2.86,1.21-5.77,1.09-8.74,1.05.11,1.58-1.66,2.29-1.92,2.37-.26,4.46,1.45,6.53,1.75Z"/>
  <path class="cls-20" d="M39.73,32.96c-2.09.1-5.69-2.74-5.85-5.05-1.83-1.16-1.25-2.15.98-2.17.71.43,2.6-.14,3.01.94.32.83-.51,1.88.51,3.28,1.2-1.7.74-3.81,1.36-5.69.33.07.75-.09,1.09-.06,1.1.42,2.12.9,2.11,2.17,0,1.04-1.31,2.13-1.24,3.25.06,1.02,1.99,1.67.78,2.52-.83.58-1.74.78-2.74.8Z"/>
  <path class="cls-50" d="M50.42,27.7c.64,2.45.96,5.08,2.52,7.13l-.04,4.06c-1.51.16-3.13-.36-2.94-2.17-3.5.7-3.62-6.54-1.1-7.81-1.54-1.79-.03-2.96,1.55-1.2Z"/>
  <path class="cls-23" d="M50.42,27.7c-.51.1-1.51.58-1.55,1.2-1.48,2.63-2.26,1.96-1.9-1.05.07-1.61.8-2.77,2.61-2.8.39.85.61,1.74.84,2.64Z"/>
  <path class="cls-28" d="M54.91,39.89v1c0,1.96.35,4.56-2,5-.64,2.07-1.63,1.37-2.96-2.1-.2.91-.56.94-1.08.14-1.33-.38-1.25-1.53.04-2.04-.83-1.36-.66-2.77,1-2-.66-2.05,1.01-2.05,5,0Z"/>
  <path class="cls-76" d="M49.96,36.72c1.19.39,2.13,1.24,2.94,2.17h2v1c-1.67-.02-1.93,2.78-3.93,1.67.44-.99.72-1.44.76-2.04.02-.27-.28-.56-.76-.29-.33.19-.68.4-1.08.66-.92.06-1.59-.61-2-2-1.83-2.43.49-4.1,2.06-1.17Z"/>
  <path class="cls-53" d="M65.84,88.74c-1.02,2.08-.94,2.44.25,1.07,1.02,1.23,1.96,2.54,2.72,3.94.15.27.18.83.17,1.14-.31.87-.67.86-1.08,0-.75,1.82-.97,1.69-2,0-1.91-.09-2.91.24-3,1,1.33,1.45.8,1.97-1,1-.24,2.38-1.04,2.11-2,0-.62.86-.91.53-.89-1-1.34-1.22-2.42-4.54-1.15-5.97,1.53-.47,2.88-1.19,4.07-2.15-.07-1.89.79-2.25,2.08-.87.73.48,1.34,1.11,1.83,1.84Z"/>
  <path class="cls-29" d="M67.91,94.89c.43,1.45.77,3.12,1,5l.82,1.01c.35,3.38,1.12,6.72,2.2,9.94,1.55,5.64-.97,4.63-3.15-.7-1.44-3.53-3.22-8.75-1.87-12.25-1.99,1.3-5.16.13-3-2,.08-1.14.97-1.32,2-1,.62-.27,1.47-.76,2,0Z"/>
  <path class="cls-88" d="M68.91,99.89c-1.19-1.47-1.03-3.26-1-5h1.08c-.06,1.66-.11,3.33-.08,5Z"/>
  <path class="cls-65" d="M26.91,51.89c.37.05.76-.15,1.13-.14,4.2-1.43,11.39-2.64,15.62-.93-.13-1.97.62-1.94,2.25.07,1.12-.02,1.59.98,1.39,3,.25,1.28.76,2.51.92,3.81,0,2.66-1.43,2.74-3.23,1.1-1.41,1.28-2.35.96-2.29-.97-.82-2.1,1.17-3.2,3.08-2.88-.31-1.26-.97-1.99-1.99-2.19-1.13.97-4.66,2.36-5.88.13-1.26,2.76-6.02,2.28-8.43,1.17.86,2.35-.23,3.4-2.45,3.68.85.43.83.81-.08,1.13.29,1.88-.46,1.83-1.25.04-1.39,1.06-1.58.47-.86-1.11-.07-2.2.3-4.42.24-6.62.34.46.65.58.91-.01-.22.53.52.66.92.71Z"/>
  <path class="cls-69" d="M25.7,58.91c.9.21.88.5,0,.89.59,2.35.26,3.59-.99,3.72-.23,2.62-.83,2.92-3.07,1.54-.09.88-.31.83-.65-.06,1.08-2.02,2.1-4.11,2.88-6.26.34-.29.66-.6.96-.93.41.25.76.63.86,1.11Z"/>
  <path class="cls-56" d="M28.91,25.89c.92-.77,1.62.21,2.19,1.18,1.38.32,1.96.91,1.06,2.05.55.68.12.8-.5,1.15s-1.31.45-2.18.05l-7.5-3.36c.22-.97-.25-2.13-.15-3.11.51-4.93,5.48-.7,7.08,2.04Z"/>
  <path class="cls-91" d="M25.99,20.76c3.33-.47,3.17.7,2.03,3.23,1.2-.01,1.79,1.08.89,1.91l-3.32-2.4-3.76.36c-.32-.29-.51-.7-.78-1.03-1.46-.16-2.51-.56-3.13-1.17l4.07-1.69c-1.06-1.45-.35-2.09,1.09-.95.6,1.1,2.22,1.06,2.93,1.75Z"/>
  <path class="cls-15" d="M17.91,21.65c1.13.04,2.39.26,3.13,1.17-2.32-.29-4.21,1.06-7.11,1.1.03-1.44,1.68-1.13,1.98-2.03.67-.03,1.33-.27,2-.24Z"/>
  <path class="cls-58" d="M21.91,15.89c.09.3-.15.73,0,1l1.16,2.12c-.26.44-.68.78-1.09.95l-2.07-3.07c.51-.59,1.23-.92,2-1Z"/>
  <path class="cls-5" d="M37.76,34.03c1.9,1.36,2.79,3.13-.06,3.71-2.08,2.42-4.35,3.47-5.72.03l-.98-1.1v-.78c.22-1.83,1.11-2.41,2.82-1.81.6-1.87,2.65-1.1,3.95-.05Z"/>
  <path class="cls-36" d="M33.87,27.91c1.76,1.9,3.96,3.3,5.85,5.05-.17.22.02.66-.15.84l.15.88c-1.26,2.34-1.59,1.83-1.98-.65-2.33-.58-3.26-1.37-2.79-2.35-.8-1-1.31-2.37-2.82-2.56-.4-.65-.84-1.31-1.06-2.05-.77-.29-.74-.61.04-.96,1.48-1.64,3.4-.09,2.74,1.81Z"/>
  <path class="cls-55" d="M32.83,33.04c1.45-.76,1.96-.35.98,1.03-.19,1.4-1.48,2.12-2.82,1.81-.84-1.03-2.13-1.6-3.16-2.58,1.86-1.85,3.42-.52,5.01-.27Z"/>
  <path class="cls-2" d="M37.76,34.03c-1.31-.1-2.64.03-3.95.05-.42-.25-.76-.6-.98-1.03l2.14-1.37c.7.87,2.81.86,2.79,2.35Z"/>
  <path class="cls-108" d="M37.7,37.74c1.94,1.47.42,3.63-1.07,4.83-.16.66-.56.96-1.16,1.19-3.73,1.43-2.84-.75-.95.15.28.13.38.65.42,1.27,1.85-1,2.5-.79,1.97.63.39.94-.67,1.99-3.17,3.14.15,2.44-3.61,2.65-4.88.87.22-4.14,2.33-7.96,3.12-12.05,1.91.06,3.82.21,5.72-.03Z"/>
  <path class="cls-47" d="M41.91,44.89c1.35,1,1.99,4.12,1.75,5.93-.92.74-2.13,1.2-3.72,1.17l-11.9-.24c-.16-.72.79-1.34.82-1.93,1.78.4,3.35-.11,4.88-.87.21-1.03,1.15-1.5,2.83-1.4l2.44-2.05c.46-2.19,1.61-2.43,2.9-.61Z"/>
  <path class="cls-105" d="M29.1,19.64c3.07.15,3.97,3.99,5.75,6.1-.43.67-.76,1.4-.98,2.17-.77-.83-1.89-1.14-2.74-1.81-1.06-.69-2.1-1.4-3.12-2.12-.98-.84-1.25-2.29-2.03-3.23.81-.64,2.04-1.16,3.11-1.11Z"/>
  <path class="cls-102" d="M48.23,57.69c2.52,1.75,4.56,4.32,5.84,7.1,1.5,1.72,2,3.39,1.51,5.03.46,3.25-2.7,3.32-4.02.66l-6.05-5.07c-3.64,0-4.76-.7-3.37-2.08-.62-1.14.27-2.01,2.66-2.62-2.09-.16-1.9-1.59.2-1.91.86-.84,2.07-1.02,3.23-1.1Z"/>
  <path class="cls-45" d="M49.84,48.94c-.33.39-.16,1.14-.28,1.6-.48-.23-1-.39-1.36-.24-1.42.6-.07,2.78-.9,3.59-.23-1.17-.89-1.99-1.39-3-1.46-.41-2.42-1.06-1.08-2.15-.52-3.05,1.34-4.15,4.04-4.81l1.08-.14c1.93,1.75,3.18,5.45-.1,5.14Z"/>
  <path class="cls-109" d="M56.91,68.89c.25,1.24,1.52,2.33,1.29,3.75.15,1.97-.6,2.09-1.38.25-2.83.61-3.51-1.35-1.24-3.07-.66-1.64-1.49-3.23-1.51-5.03,1.76.8,2.48,2.34,2.84,4.09Z"/>
  <path class="cls-110" d="M52.91,45.89c-.2.87.57,3.2-.46,3.8-.57.33-1.84-1.27-2.61-.75,1.29-1.51.63-3.4.1-5.14l2.96,2.1Z"/>
  <path class="cls-79" d="M48.87,28.91c-.17,2.66,0,5.37,1.1,7.81-.8.03-1.9.22-2.06,1.17,1.11.79,1.31,1.5,0,2-1.07,1.5-2.01,2.92-2.83,4.25.8,1.76.1,2.07-1.27.62l-2.49-.74c.46-1.73.76-3.39.88-4.97-2.29-2.41-.92-2.46,1.83-1.32-.32-1.16,0-2.11.94-2.84.47-.09,1.39-.06,1.52-.47.11-.36-.7-.8-1.05-1.31-.07-1.86,1.46-3.52,1.53-5.24.43.64,1.15.94,1.9,1.05Z"/>
  <path class="cls-103" d="M44.96,34.88c.25.71.51,1.31.66,1.81.4,1.35-.63,1.22-1.6,1.04-2.67,1.51-6.21.28-4.29-3.05-.34-.3-.49-.52-.15-.88,1.77.48,3.54,1.06,5.39,1.09Z"/>
  <path class="cls-6" d="M49.91,39.89c-.81.32-1.02,1.2-1,2-.88.45-1.19.08-1-1-.87-.28-.86-.62,0-1,0-.65-.1-1.35,0-2,1.14-.04,1.97.88,2,2Z"/>
  <path class="cls-76" d="M48.91,41.89c.06.67.34,1.59-.04,2.04-1.29,1.08-1.94,1.07-1.96-.04-1.56-.4-.66-3.29,1-3,.31.36.64.7,1,1Z"/>
  <path class="cls-52" d="M71.92,110.83c.43.22.71.64,1.08.92.31.92-.28,2.2,0,3.11.91,2.26-2.39,2.61-4.14,1.42-.45-.3-.9-4.35-.96-5.4-.71-1.57-1.37-3.24-2-5-1.04-1.49-1.98-4.49-1-6-2.25-2.29-.58-2.29,2-2,.74,5.56,1.96,10.99,4.55,16.04.91-1.28.3-2.27.46-3.09Z"/>
  <path class="cls-27" d="M64,82.9c.15,1.31-.24,2.69.02,4-.62.44-1.34.72-2.08.87-.56,1.92-1.45,1.91-2.07.03-1.87-.08-1.52-.46.19-1.19l.81-1.5c.67-2.5.09-4.41-1.74-5.74-1.27-3.18-1.27-5.08.01-5.69,2.45,2.47,4.45,5.73,4.85,9.22Z"/>
  <path class="cls-16" d="M59.14,73.68c-1.29,5.33,5.22,7.03,1.72,11.43-2.68,3.14-6.56.67-3.01-2.65l.14-2.54c-1.54-1.72-5.22-7.24-1.19-7.03.43-.17.98-.03,1.38-.25.89-.5,1.12.31.95,1.04Z"/>
  <path class="cls-21" d="M65.84,88.74c.19.28.04.81.25,1.07-.07.94-.36,2.27-1.57,2.11-.7-.09-2.97.52-2.2-.93,2.92.25,1.59-3.03,3.52-2.24Z"/>
  <path class="cls-12" d="M49.95,80.73c1.81-.7,4.23,2.59,4.05,4.37l3.58-.1c.16,1.02.99,1.55,2.49,1.6l-.19,1.19c.52.98-.15,1.69-2.01,2.12,1.2,1.67,1.03,4.01,1.15,5.97.55,1.05.71,2.42-.54,2.54-.78.54-1.25.35-1.42-.59-2.6-1.36-3.05-5.94-3.29-8.89-2.93.93-6.94-4.52-5.86-7.21-2.09-2.46.52-3.96,2.02-1Z"/>
  <path class="cls-43" d="M61.91,96.89c1.35-.29,2.08.98,1,2,1.2,1.01,2.33,2.82,1,4-1.56,2.94-4.3-.58-3-3-1.61.54-2.08-1.84-1-3h2Z"/>
  <path class="cls-98" d="M66.91,97.89l-2,2c-.26,1.49-.93,1.15-2-1-.55-.54-.88-1.24-1-2,.4-.13.69-.72,1-1,.28-.87.62-.86,1,0-.3,2.57,2.25.41,3,2Z"/>
  <path class="cls-73" d="M65.91,94.89c-.32.81-1.2,1.02-2,1h-1c-.45-.06-.94.15-1.47,0-2.22-.62,3.08-1.92,2.88-1.93.51.04,1.11.57,1.58.93Z"/>
  <path class="cls-86" d="M61.93,87.77c-.04.84.13,2.09-.72,2.74-1,.77-2.34-.26-3.36-.59-1.35-.48-.97-1.43.43-1.55.46-.04.94-.38,1.57-.57s1.41.1,2.07-.03Z"/>
  <path class="cls-98" d="M59.91,96.89c.09,1.09.62,2.01,1,3,.99,2.63.44,3.33-1.66,2.1-1.79-.07-2.52-2.9-.77-3.56-.24-.79.59-1.74.54-2.54.24.28.86.59.89,1Z"/>
  <path class="cls-72" d="M21.15,68.88c.39,3.23-.73,8.82-4.34,9.02,1.23,2.21.33,8.47-1.77,9.98,2.06,3.69-.86,4.12-1.43,1.1-.6-1.27-.76-2.7-.7-4.1-1.55-.03-1.49-1.56,0-2,1.25-7.29,4.53-7.79,4.15-12.96,1.54-1.39,2.94-3.07,3.93-4.92l.65.06c2.82.4,2.38,3.58-.49,3.82Z"/>
  <path class="cls-75" d="M34.09,61.78c1.02.83,2.54.81,4.57-.06-.03-2.22,2.04-2.4,3.23-.86-.15-2.15,2.25-2.06,2.91-.15-.51,1.07-1.62,2.03-2.66,2.62.04,1.1-.39,2.21-1.31,3.35,1.25.67.93,1.18-.94,1.55.21,3.01-2.4,2.57-3.94.74-3.14,1.5-5.12-.95-5.97-3.91l-1.08-.08c-3.02.85-3.65-2.66-3.19-5.18-.04-.29.06-.6,0-.89l1.25-.04c1.97-.72,6.03.71,7.14,2.91Z"/>
  <path class="cls-107" d="M37.91,52.89c2.63.15,3.19,1.11,1.69,2.88,1.71,1.07,1.53,2.07-.45,2.46-2.48.11-4.66-.28-6.56-1.18-2.55.42-5.4-.47-3.1-3,2.3-2.1,5.44-1.1,8.43-1.17Z"/>
  <path class="cls-40" d="M31.75,57.79c2.82-.36,11.08.69,7.03,3.26-.74,1.28-3.65,2.34-4.7.72-2.83.71-4.6-1.95-7.14-2.91-.03-.37.14-.76.08-1.13.98-2.62,3.08-1.59,4.72.05Z"/>
  <path class="cls-59" d="M43.91,53.89c1.16-1.21,1.7-.43,1.87,1.06-.25,1.55-2.12,1.88-3.08,2.88,1.36,1.37.82,1.89-.96,1.01-1.12,1.61-2.29,1.65-2.6-.6.1-.83.25-1.65.45-2.46-.66-2.3,2.49-2.73,4.31-1.88Z"/>
  <path class="cls-97" d="M32.58,57.05c.66.58.38.82-.83.74-1.56.87-3.1-.6-4.72-.05-.32-1.95,1.31-2.64,2.45-3.68.28,1.12,1.99,2.61,3.1,3Z"/>
  <path class="cls-62" d="M43.79,52.76c1.85-1.32,2.4,2.26.12,1.13-1.62.1-2.98,1.01-4.31,1.88-1.1-.52-1-1.97-1.69-2.88l5.88-.13Z"/>
  <path class="cls-106" d="M43.8,44.76c2.13,0,2.47,1.33,1.02,3.97l1.08,2.15-2.25-.07c-1.41-1.65-2.03-3.77-1.75-5.93.12-2.85.46-2.38,1.9-.12Z"/>
  <path class="cls-67" d="M45,58.8c-.23.56.06,1.37-.2,1.91-.87.23-2.09-.25-2.91.15-2.11.12-2.18-1.45-.14-2.03l.96-1.01c.8.23,1.59.51,2.29.97Z"/>
  <path class="cls-57" d="M45.78,54.95c-.73-.14-1.42-.46-1.87-1.06,1.33,0,1.02-1.15-.12-1.13-.04-1.36,2-1.16,2.1-.34.12.99,0,1.81-.11,2.52Z"/>
  <path class="cls-14" d="M15.91,97.89c2.22-2.1,3.34-2.1,3.35,0,2.06,1.53,1.69,3.96-1.1,7.29-.35,4.42-1.74,6.32-4.17,5.68-.54,2.7-4.03-.58-4.08-2.97-.65-.08-1-.44-1.03-1.1l.04-1.84c.33-.35.62-.74.99-1.06.77-1.95.71-4.06.31-6.09.04-.25.11-.61.02-.84.57.41.94-.61.88-1.03.14-.88.33-.8.56.14,1.27,1.56,2.29,1.76,4.21,1.83Z"/>
  <path class="cls-87" d="M17.72,94.07c-.25.87-.54.82-.87-.06-1.75.06-2.24-.26-1.46-.95-3.01,2.94-4.19,2.87-3.54-.22.21-1.39.26-3.23,1.76-3.86.4.26,1.09.8,1.2.34.18-.74.3-1.18.23-1.43,5.15.03,5.44,2.78,2.68,6.19Z"/>
  <path class="cls-8" d="M16.85,94.01c-.09,1.04-.73,2-1.94,2.87-.89,1.52-2.58.63-3.22-.83l-.56-.14c-.14-1.1.57-2.07.72-3.08.23,4.1,1.64-2.19,4.46-.71.5.26.64,1.13.54,1.88Z"/>
  <path class="cls-4" d="M35.95,68.97c1.22,1.42.55,1.55-1.24,1.09-1.32,1.03-2.25,2.29-2.76,3.8.87,1.76.24,2.26-1.27,1-.64,3.67-2.92,4.15-5.58,1.85-1.14-.73-1.34-2.31-.61-4.75-1.61-.8-2.72-1.82-3.33-3.07l.49-3.82c.92-.7,1.93-1.31,3.07-1.54,1.24.19,2.24,1.14,2.99,2.85l1.19-1.39c.33-4.57,2.9,2.07,4.15,1.98.35-.03,1.04-1.01,1.39-.67.55.54-.16,1.4.07,1.87.26.56.94.7,1.44.8Z"/>
  <path class="cls-93" d="M28.89,64.98c.35.74,1.49,2.98.45,3.34-2.84.98-4.86-2.26-4.63-4.8.12-1.31-.16-2.72.99-3.72.49,1.68,2.49,3.7,3.19,5.18Z"/>
  <path class="cls-104" d="M31.14,26.11c.05.3-.12.67-.04.96-.76-.04-1.75-.86-2.19-1.18-.47-.48-.39-1.48-.89-1.91-.28-.54-.07-1.08.49-1.02,1.5,1,1.74,2.44,2.62,3.14Z"/>
  <path class="cls-22" d="M39.73,34.68c.77,1.7,3.06,1.85,4.29,3.05-.79-.15-1.71.6-1.83,1.32.5.41.89.82.89,1.23-.01.79-4.21,4.96-4.96,5.29-.25.88-.65.96-1.2.24-.71.06-1.33-.46-1.97-.63-.65-1.09-.09-1.96,1.68-2.61-1.01-1.71-.1-3.32,1.07-4.83l.06-3.71c.56.04,1.52.34,1.98.65Z"/>
  <path class="cls-33" d="M39.01,45.5c-.3,1.02-.72,2.08-1.25,2.78-1.05,1.38-2.93.14-4.01.68-.21-.55-.7-1.05-.83-1.84,1.92-.33,2.99-.58,4-1.3.3-.21.85-.12,1.2-.24.07-.93.37-.92.89-.08Z"/>
  <path class="cls-18" d="M36.63,42.57c.53.89-.95,2.37-1.68,2.61-1.12-.31-2.77.4-3.49-1.64,1.87-1.16,3.57-.65,5.17-.97Z"/>
  <path class="cls-81" d="M43.8,44.76l-1.9.12c-.98.06-1.96.3-2.9.61-.29.06-.61-.02-.89.08.57-1.01-.58-2.81.61-3.76,1.35-1.08,3.2-1.21,3.46-2.76.81.68,2,.56,2.71,1.32-1.31,1.03-1.87,1.7-1.85,2.51.02.73.71,1.3.76,1.88Z"/>
  <path class="cls-3" d="M55.58,69.82l1.24,3.07c-1.44,2.82,2.45,2.6,1.19,7.03-.95,4.69-3.75.61-5.21-2.33-1.86-.42-2.82-1.31-2.88-2.66-2.11-4.46-5.14-7.21-9.09-8.24-.22-.82-.36-1.67-.5-2.32-.33-1.55,1.18-.67,1.81-1.03.01,1.24,1.44.77,2.16.68.84-.11,1.42-1.13,2.47-1.45,1.3-.39,1.19,1.25.9,1.7-.17.26-.46,1.03-.45,1.62,5.29,1.86,5.7,5.96,8.36,3.94Z"/>
  <path class="cls-39" d="M46.91,43.89l1.96.04-4.04,4.81c-.64-1.27-.91-2.57-1.02-3.97l1.27-.62c.77-1.71,1.32-2.23,1.83-.25Z"/>
  <path class="cls-30" d="M47.91,39.89v1c-.85.76-1.1,1.89-1,3-.6-.01-1.31,0-1.83.25.53-1.74.46-4.57,2.83-4.25Z"/>
  <path class="cls-34" d="M73.89,117.66c.82,2.59,5.52,2.32,6.09,6.23.54,1.67-.59,2.61-2.1,1.94-2.53-1.88-5.98-3.61-9.57-3.79-.12-.62-.25-1.53-.56-2.08-1.41-4.59,4.24-4.24,6.15-2.31Z"/>
  <path class="cls-80" d="M73.01,114.86l.89,2.79c-1.63.24-3.26.52-5.24.53-.72.46-.84,1.19-.91,1.79-.51-.89-1.17-1.88-.98-3-.53-.93-.29-2.29.14-3.08-.08-1.09-.08-2.09,0-3,.28-.87.62-.86,1,0,1.03,1.08,1.9,4.53,3.49,4.76.52.07,1.12-.54,1.61-.78Z"/>
  <path class="cls-78" d="M64.91,99.89c.61,1.99,1.02,3.94,1,6-.28.87-.62.86-1,0-2.4.03-2.92-1.58-1-3l-1-4,2,1Z"/>
  <path class="cls-82" d="M67.91,110.89h-1c-1.72-.65-1.73-3.44-1-5,1.77.95,1.9,3.15,2,5Z"/>
  <path class="cls-77" d="M49.91,74.93c1,.54,3.07.52,4.69,1,.02,1.61.34,3.1,1.21,4.08.42.47,1.35-.07,2.18-.09.82,1.33,2.45.92,2.5,1.81.1,1.76-1.8,2.17-2.42,3.45-.6,1.23,2.26.88,2.79-.07-.33.41-.22,1.23-.81,1.5-2.23.43-5.32,1.18-6.07-1.5-1.28-2.09-2.03-4.07-2.24-5.96-2.52,1.24-4.68-.75-4.83-3.33-1.6-3.22,2.12-4.35,2.99-.89Z"/>
  <path class="cls-7" d="M46.92,75.82c2.15.36,3.36,1.97,4.83,3.33,1.72,2.23.51,3.06-1.81,1.59-1.03-.47-1.4.51-2.02,1-3.69,1.03-8.97-6.77-8.99-9.99l-4.34-.68c-.73-.38-.68-.72.12-1.01.49-.26.92-.63,1.24-1.09,1.43.3,2.67-.31,3.94-.74,5.03-3.55,7.12,2.95,7.04,7.58Z"/>
  <path class="cls-90" d="M53.99,85.11c-1.8-.97-3.04-2.63-4.05-4.37l1.81-1.59c1.57,1.46,4.29,3.95,2.24,5.96Z"/>
  <path class="cls-111" d="M63.91,102.89c.26,1.03.47,2.07,1,3,.82.64,1.14,3.38,0,4,.12,1.85-.38,1.63-1.16-.06-2.53.86-2.84.5-1.65-1.89-.27-2.27-1.68-4.06-2.84-5.95l1.66-2.1c.55,1.45,1.16,3.19,3,3Z"/>
  <path class="cls-109" d="M9.91,107.89l1.02,2.65c2.33,1,3.02,2.18,2.06,3.54,1.95,2.8-2.41,6.11-5.02,4.57-1.03-.24-3.92.03-3.93-1.74s2.39-3.26,3.69-4.05l1.18-4.98-.03-1.1c.34.37.71.71,1.03,1.1Z"/>
  <path class="cls-85" d="M7.74,112.86l-.04-2.61c.61-.42.23-2.06,1.21-2.36.04,1.88.6,3.9-1.18,4.98Z"/>
  <path class="cls-85" d="M9.91,103.89c-.09-2.04-.02-4.08.31-6.09,1.13,1.69,1.35,4.64-.31,6.09Z"/>
  <path class="cls-26" d="M24.02,78.69c2.09.66,2.44,1.35,1.06,3.17,2.85-.16,2.56,2.37.12,2.95.08,1.02-.03,2.08-.31,3.17,2.5,1.88,1.25,3.92-1.6,2.9-.71,1.8-1.17,1.8-1.38,0-1.64,1.7-2.47,3.61-2,6,.6.75.36,1.07-.65,1h-3.35c-1.5-1.54.15-3.32,1.81-3.81l.6-3.8c-.76-.07-2.05.49-2.25-.15-.23-.75-.92-1.54-1.03-2.24-.64-3.91-.29-7.03,1.77-9.98,1.5-1.94,2.1-2.6,3.7-.6,1.8-.64,2.82-.8,3.51,1.39Z"/>
  <path class="cls-42" d="M25.1,76.71c1.83,1.29.92,1.63-1.08,1.99-1.5-.18-3.13,1.04-4.72.46-.52-.19-.69-1.27-1.1-1.45-.44-.19-.94-.03-1.38.2,1.82-2.61,1.35-7.01,4.34-9.02,2.12-.14,4.48.33,5.37,2.78.55,1.51-.71,3.37-1.42,5.05Z"/>
  <path class="cls-74" d="M49.91,74.93c-.71-.38-3.01,0-2.99.89-1.5-.25-3.27-1.15-3.39-2.7,2.03-.13,3.1-1.04.98-1.36-1.28-.06-1.78-.1-2.28-.79s.59-.9,1.49-1.59c-.37-1.07-2.59-1.57-3.84-1.15.29-.53.6-1.05.94-1.55,1.45-.03,3.93-1.7,5.29-.17,1.83,2.04,2.69,4.47,5.3,5.42-.67,1.25-1.14,2.03-1.5,3Z"/>
  <path class="cls-13" d="M39.15,58.23c.75.66,2.29-.64,2.6.6l.14,2.03c-1.02.5-2.01,1.06-3.23.86-.88-.16-.8-.38.13-.66.66-3.5-4.77-1.45-7.03-3.26.05-.5.18-1.08.83-.74,2.23.06,4.66-.38,6.56,1.18Z"/>
  <path class="cls-101" d="M38.78,61.06l-.13.66c-.76,4.06.84-1.47-3.29,3.14-.37.41-1.35.01-1.42-.51-.09-.73.14-1.6.13-2.57,1.24-1.1,3.14-.54,4.7-.72Z"/>
  <path class="cls-85" d="M13.99,110.86l.13,2.8c.86,1.75.11,2.03-1.13.43-.19-3.4-3.96-.75-3.08-6.2,1.12,1.38,2.09,3.22,4.08,2.97Z"/>
  <path class="cls-83" d="M14.91,96.89c.84-.17,1.17.16,1,1-.57.75-1.56,1.24-2.3.91-1.21-.53-2.5-1.5-1.91-2.74,1.07.26,2.13.61,3.22.83Z"/>
  <path class="cls-46" d="M17.72,94.07c.5,1.7-.54,2.61-1.81,3.81-.45-.2-.76-.58-1-1-.3-.71-1.69-1.58-.58-2.32.72-.47,1.82-.32,2.52-.55l.87.06Z"/>
  <path class="cls-49" d="M34.71,70.06l-.12,1.01c1.13,2.41-.04,4.12-2.64,2.78-.88-2.16-3.76-1.35-5.16-3.88,3.15.23,5.47,1.29,7.92.09Z"/>
  <path class="cls-31" d="M66.91,113.89c.34.49.58,1.03.71,1.67.12.58-.77.95-.85,1.41-1.85-1.44-1.54-4.16-3.02-5.91v-1.24s1.15.06,1.15.06c1.66.3,2.26,2.37,2,4Z"/>
  <path class="cls-17" d="M66.91,110.89c.35,1.07,1.28,2.07,0,3-.54-1.4-.99-2.86-2-4v-4h1c-.02,1.64.49,3.44,1,5Z"/>
  <path class="cls-100" d="M30.68,74.86c.4,2.41-.52,4.96-1.59,7.18-.83,1.73-1.97,3.42-3.13,4.94-1.36.13-1.22-1.1-.75-2.16.25-.71.46-2.4-.12-2.95l-1.06-3.17c.25-.71.78-1.3,1.08-1.99,2.04-.01,4.19-.75,5.58-1.85Z"/>
  <path class="cls-46" d="M21.91,90.89c-.36,2.09-1.11,4.08-2,6-1.64-.58-1.04-2.64-.61-4.05.35-1.12,1.18-1.94,2.61-1.95Z"/>
  <path class="cls-48" d="M25.08,81.86c-.92-.86-1.54-1.81-1.06-3.17,1.31.16,2.84-.13,3.81.56-.87,1.97-1.52,2.15-2.75,2.6Z"/>
  <path class="cls-71" d="M25.95,86.97c-.3.39-.66.73-1.07,1.01-.11-.48-1.02-.99-.97-1.63.07-.81,1.11-1.08,1.28-1.54,1,.02.55,1.51.75,2.16Z"/>
</svg>