<?xml version="1.0" encoding="UTF-8"?>
<svg id="Enemy" xmlns="http://www.w3.org/2000/svg" viewBox="0 0 75.99 132.16">
  <defs>
    <style>
      .cls-1 {
        fill: #684223;
      }

      .cls-2 {
        fill: #3c2c25;
      }

      .cls-3 {
        fill: #725035;
      }

      .cls-4 {
        fill: #966656;
      }

      .cls-5 {
        fill: #1b212e;
      }

      .cls-6 {
        fill: #a67c57;
      }

      .cls-7 {
        fill: #291e1e;
      }

      .cls-8 {
        fill: #936d51;
      }

      .cls-9 {
        fill: #763d24;
      }

      .cls-10 {
        fill: #785551;
      }

      .cls-11 {
        fill: #735345;
      }

      .cls-12 {
        fill: #383f57;
      }

      .cls-13 {
        fill: #926361;
      }

      .cls-14 {
        fill: #4d5770;
      }

      .cls-15 {
        fill: #5e260f;
      }

      .cls-16 {
        fill: #252e42;
      }

      .cls-17 {
        fill: #a66343;
      }

      .cls-18 {
        fill: #534236;
      }

      .cls-19 {
        fill: #855629;
      }

      .cls-20 {
        fill: #3f3f3d;
      }

      .cls-21 {
        fill: #141823;
      }

      .cls-22 {
        fill: #834422;
      }

      .cls-23 {
        fill: #161c30;
      }

      .cls-24 {
        fill: #8e665d;
      }

      .cls-25 {
        fill: #4b2b16;
      }

      .cls-26 {
        fill: #7f5b4d;
      }

      .cls-27 {
        fill: #be968d;
      }

      .cls-28 {
        fill: #af8463;
      }

      .cls-29 {
        fill: #1d212d;
      }

      .cls-30 {
        fill: #7a573a;
      }

      .cls-31 {
        fill: #422410;
      }

      .cls-32 {
        fill: #725032;
      }

      .cls-33 {
        fill: #242b3d;
      }

      .cls-34 {
        fill: #2f333e;
      }

      .cls-35 {
        fill: #292c35;
      }

      .cls-36 {
        fill: #40434f;
      }

      .cls-37 {
        fill: #8c5c47;
      }

      .cls-38 {
        fill: #6a381a;
      }

      .cls-39 {
        fill: #262626;
      }

      .cls-40 {
        fill: #b2836c;
      }

      .cls-41 {
        fill: #b97965;
      }

      .cls-42 {
        fill: #e19d89;
      }

      .cls-43 {
        fill: #ab6f5e;
      }

      .cls-44 {
        fill: #744735;
      }

      .cls-45 {
        fill: #d7ad8c;
      }

      .cls-46 {
        fill: #43291b;
      }

      .cls-47 {
        fill: #252c3f;
      }

      .cls-48 {
        fill: #654b38;
      }

      .cls-49 {
        fill: #41485b;
      }

      .cls-50 {
        fill: #703e26;
      }

      .cls-51 {
        fill: #7d5e45;
      }

      .cls-52 {
        fill: #1d232c;
      }

      .cls-53 {
        fill: #485269;
      }

      .cls-54 {
        fill: #de9a8d;
      }

      .cls-55 {
        fill: #2d323c;
      }

      .cls-56 {
        fill: #8e523f;
      }

      .cls-57 {
        fill: #e3a48a;
      }

      .cls-58 {
        fill: #de937c;
      }

      .cls-59 {
        fill: #475166;
      }

      .cls-60 {
        fill: #c08c65;
      }

      .cls-61 {
        fill: #c4835a;
      }

      .cls-62 {
        fill: #352213;
      }

      .cls-63 {
        fill: #26252c;
      }

      .cls-64 {
        fill: #3a3940;
      }

      .cls-65 {
        fill: #d4c9c6;
      }

      .cls-66 {
        fill: #775233;
      }

      .cls-67 {
        fill: #ae7667;
      }

      .cls-68 {
        fill: #915a34;
      }

      .cls-69 {
        fill: #885b4b;
      }

      .cls-70 {
        fill: #1e2234;
      }

      .cls-71 {
        fill: #6b4220;
      }

      .cls-72 {
        fill: #323231;
      }

      .cls-73 {
        fill: #552b1b;
      }

      .cls-74 {
        fill: #885b4f;
      }

      .cls-75 {
        fill: #6d4c38;
      }

      .cls-76 {
        fill: #352115;
      }

      .cls-77 {
        fill: #4c3422;
      }

      .cls-78 {
        fill: #313750;
      }

      .cls-79 {
        fill: #1f1e1e;
      }

      .cls-80 {
        fill: #ca8c79;
      }

      .cls-81 {
        fill: #8d6345;
      }

      .cls-82 {
        fill: #89584c;
      }

      .cls-83 {
        fill: #4b2c21;
      }

      .cls-84 {
        fill: #27211f;
      }

      .cls-85 {
        fill: #543423;
      }

      .cls-86 {
        fill: #99795b;
      }

      .cls-87 {
        fill: #893f23;
      }

      .cls-88 {
        fill: #9e6556;
      }

      .cls-89 {
        fill: #663925;
      }

      .cls-90 {
        fill: #844930;
      }

      .cls-91 {
        fill: #774c3f;
      }

      .cls-92 {
        fill: #b1835a;
      }

      .cls-93 {
        fill: #8f5a49;
      }

      .cls-94 {
        fill: #835f40;
      }

      .cls-95 {
        fill: #54596e;
      }

      .cls-96 {
        fill: #773b2c;
      }

      .cls-97 {
        fill: #393f4b;
      }

      .cls-98 {
        fill: #9d7554;
      }

      .cls-99 {
        fill: #262624;
      }

      .cls-100 {
        fill: #3f485d;
      }

      .cls-101 {
        fill: #875c38;
      }

      .cls-102 {
        fill: #ebaa90;
      }

      .cls-103 {
        fill: #ad9988;
      }

      .cls-104 {
        fill: #424656;
      }

      .cls-105 {
        fill: #896140;
      }

      .cls-106 {
        fill: #483524;
      }

      .cls-107 {
        fill: #171823;
      }

      .cls-108 {
        fill: #282f48;
      }

      .cls-109 {
        fill: #363734;
      }

      .cls-110 {
        fill: #b97f6d;
      }

      .cls-111 {
        fill: #61432a;
      }

      .cls-112 {
        fill: #2f1e10;
      }

      .cls-113 {
        fill: #2f3248;
      }

      .cls-114 {
        fill: #56321d;
      }

      .cls-115 {
        fill: #343c4f;
      }

      .cls-116 {
        fill: #bc7e6b;
      }

      .cls-117 {
        fill: #e9a590;
      }

      .cls-118 {
        fill: #522f14;
      }

      .cls-119 {
        fill: #1e0c04;
      }

      .cls-120 {
        fill: #171d2d;
      }

      .cls-121 {
        fill: #66503c;
      }

      .cls-122 {
        fill: #3b3e58;
      }

      .cls-123 {
        fill: #705a41;
      }

      .cls-124 {
        fill: #272e36;
      }

      .cls-125 {
        fill: #303448;
      }

      .cls-126 {
        fill: #aa7d57;
      }

      .cls-127 {
        fill: #2b282b;
      }

      .cls-128 {
        fill: #af6e5b;
      }

      .cls-129 {
        fill: #c9927e;
      }

      .cls-130 {
        fill: #876141;
      }

      .cls-131 {
        fill: #6b4320;
      }

      .cls-132 {
        fill: #643a28;
      }

      .cls-133 {
        fill: #a3756e;
      }

      .cls-134 {
        fill: #191e28;
      }

      .cls-135 {
        fill: #dac9c3;
      }

      .cls-136 {
        fill: #592107;
      }

      .cls-137 {
        fill: #a07269;
      }

      .cls-138 {
        fill: #ce8574;
      }

      .cls-139 {
        fill: #593a26;
      }

      .cls-140 {
        fill: #2f354a;
      }

      .cls-141 {
        fill: #a7856a;
      }

      .cls-142 {
        fill: #3c1409;
      }

      .cls-143 {
        fill: #b56f59;
      }

      .cls-144 {
        fill: #543f2a;
      }

      .cls-145 {
        fill: #975028;
      }

      .cls-146 {
        fill: #f5b09c;
      }

      .cls-147 {
        fill: #1e0200;
      }

      .cls-148 {
        fill: #444b63;
      }

      .cls-149 {
        fill: #c98f7d;
      }

      .cls-150 {
        fill: #cf8f7c;
      }

      .cls-151 {
        fill: #5e3c2f;
      }

      .cls-152 {
        fill: #2a3144;
      }

      .cls-153 {
        fill: #1d0e0a;
      }

      .cls-154 {
        fill: #bb8172;
      }

      .cls-155 {
        fill: #644020;
      }

      .cls-156 {
        fill: #d6927e;
      }

      .cls-157 {
        fill: #c28273;
      }

      .cls-158 {
        fill: #8d4f34;
      }

      .cls-159 {
        fill: #8e6d58;
      }

      .cls-160 {
        fill: #4d5671;
      }

      .cls-161 {
        fill: #ce8978;
      }

      .cls-162 {
        fill: #836242;
      }
    </style>
  </defs>
  <g id="NunChuckLarry">
    <path class="cls-65" d="M73.19,37.14c.93,1.59.54,1.69-1.17.29.42,2.89-1.45,3.03-2.89.58l-1.12.26c-.24-1.39-.88-2.64-1.93-3.75-2.17.18-2.24-.68-.12-1.32-.48-1.56.65-3.56,2.28-3.81,1.83.34,4.37-.62,4.72.74.61,2.39.57,4.48-1.59,5.54.76.39,1.29.91,1.83,1.48Z"/>
    <g>
      <path class="cls-81" d="M50.19,117.13c.28-.87.62-.86,1,0,1.86.09,2.28,2.42,1.93,3.94,1.35.11,1.37,1.46.07,4.05-.26,1.93-3.77,1.22-5.06,0-.61-2.9.25-6.06.06-9l-.07-1.04c.83.08,1.52.76,2.07,2.04Z"/>
      <path class="cls-77" d="M57.19,124.13c1.57.82.9,1.49-2,2-1.78,1.66-6.45,1.89-7.06-1h5.06c.28-2.25.95-3.25,2-3,1.36-.31,1.8.68,2,2Z"/>
      <path class="cls-48" d="M60.19,125.13c.75-1.59,2.15-.84,2,.82,2.65-1.59,6.02-3.52,4.91,1.19-.66,1.39-2.3,1.68-4.93.88-1.2-.9-2.62-1.69-4.11-1.76l-2.87-.13,2-2c.22-.88.56-.86,1,0,.34-1.56,1-1.23,2,1Z"/>
      <path class="cls-55" d="M43.44,82.91c2.8,2.1,4.07,5.21.84,7.31-.63,2.63-2.27,5.11-2.12,7.96.31,1.64-2.57,4.24-4.16,4.45l-.9-.07c-1.87.62-2.27-.08-.81-1.39-.27-2.38.93-4.81,3.61-7.31,1.01-3.25,1.35-6.57,1.01-9.95-.86-.27-.8-.56.09-.85.22-.89.61-1.2,1.18-.93.13-2.27,1.41-1.06,1.25.78Z"/>
      <path class="cls-75" d="M15.49,118.87c-2.74,7.68,7.64,9.9,5.42,12.41-.6.67-1.96.33-2.68.69-1.47.16-1.69-.48-.31-1.1-3.24-.91-7.06-2.48-4.79-6.36-2.37-.91-2.34-2.03.08-3.37-.88-.27-.87-.6-.02-1-1.36-1.24-.62-1.58,1.01-2.09-.33-1.92.46-1.98,1.2-.09.9.11.9.42.1.92Z"/>
      <path class="cls-36" d="M28.19,105.28c.89-.94,2.5-1.63,2.95-.22.82-.21,1.14.1.97.93-1.13,1.02-2.27,1.93-3.81,2.38-1.39.45-2.4.42-3.05-.1-2.9,1.32-2.88-.95-2.34-3.26.3-1.91,1.03-1.81,1.27.13,2.38-2.28,3.72-2.23,4,.14Z"/>
      <path class="cls-62" d="M28.31,108.36c-.33.28-.48.81-.83,1.07-1.69,1.23-3.7,2.18-5.29,3.55-2.38,1.56-3.7,1.88-2.06-.93-.19-1.53,3.64-4.6,5.14-3.78.51-.39,1.35-.35,1.76-.76.73-.73,1.35,0,1.29.86Z"/>
      <path class="cls-144" d="M18.93,115.41c-1.03.6-1.56,2.49-2.42,3.33-.33-.04-.69.14-1.02.13.09-.26-.15-.64-.1-.92-2.31-2.05.31-5.55,2.95-3.74,1.29.1,1.48.5.58,1.2Z"/>
      <path class="cls-124" d="M33.21,103.38c.97-1.18,1.54-.82.96.69-.56.72-1.39,1.32-2.06,1.92-.43-.18-.75-.52-.97-.93-1.29-1.27.86-3.21,2.07-1.68Z"/>
      <path class="cls-34" d="M37.1,102.56c-.36,1.31-2.18.86-2.93,1.5l-.96-.69c-1.92-2.77.78-4.44,3.08-2.2l.81,1.39Z"/>
      <path class="cls-8" d="M66.17,122.29c.71-1.6,2.1-1.03,2.94.12.69,1.09,1.28,2.36,1.08,3.72-1.51,2.48-2.54,2.82-3.09,1.01-.84-1.66-3.3-1-4.91-1.19-1.28-1.38-1.66-2.68-1.12-3.88.83-1.4,3.64-.44,5.1.21Z"/>
      <path class="cls-123" d="M63.21,120.88c.79.22,2.25.24,3,0,1.93.11,1.88.87-.04,1.41-1.59.45-3.46-.32-5.1-.21-.11.89-.39.89-.82.06-1.12,1.09-1.81.76-2.07-1-1.85.22-1.79-.82.18-3.14,1.96-.23,2.97,2.37,4.84,2.88Z"/>
      <path class="cls-111" d="M50.24,102.06c2.68.47,2.61,3.22.89,4.97.65,1.35,1.03,2.74.06,4.1.42,1.91.61,4.76-1,6-.05,1.68.67,3.63-.78,5.19-.13-3.4-.02-5.15-1.28-7.23-1.17-1.93-1.56-4.78-1.94-6.95.24-2.39.92-4.07,2.04-5.04-1.08-1.6-.69-2.02,1-.94.16-.93.5-.94,1.02-.1Z"/>
      <path class="cls-63" d="M49.34,93.17c1.25.3.91.87.03,1.73.55,2.26.5,4.68-.15,7.26-.42.13-.88.5-1,.94-.76.7-1.39.23-1.89-1.41-.1-.64-.55-.5-.71-.02.03-2.92.09-5.89,1.41-8.54.2-2.75,1.65-2.58,2.3.03Z"/>
      <path class="cls-112" d="M48.23,103.11c-.47,1.76-.56,3.82-2.04,5.04-.37-2.08.17-4.36.15-6.45.98-.78,1.16,1.17,1.89,1.41Z"/>
      <path class="cls-6" d="M54.19,116.13c.96,1.47,1.01,5.38-1.07,4.94-1.53-.67-1.89-2.4-1.93-3.94-.78-1.15-.3-1.61,1-1,.2-2.66.87-2.66,2,0Z"/>
      <path class="cls-1" d="M55.19,120.13c.87.28.86.62,0,1,.87.28.86.62,0,1-.81.91-.94,2.27-2,3l-.07-4.05c1.33-1.23,1.3-3.23,1.07-4.94.28-.87.62-.86,1,0,1.67-.06,1.32,3.14,0,4Z"/>
      <path class="cls-130" d="M52.19,116.13l-1,1h-1c.06-2.05.31-4.04,1-6,1.76-1.38,2.33,4.35,1,5Z"/>
      <path class="cls-30" d="M58.19,121.13c1.16.47.99,2.47,0,3-.26-.15-.71.09-1,0-.65.09-1.53.04-1.85-.59-.23-.45-.17-1-.15-1.41v-1c1.09-.94,2.84-2.21,3,0Z"/>
      <path class="cls-60" d="M61.07,122.08c.35,1.25,1.54,1.42,3.27,2.29-.8.82-1.69.88-2.16,1.58-.83-.09-1.39-.24-2-.82-1.63-1.2-2.23-4.1.07-3l.82-.06Z"/>
      <path class="cls-8" d="M60.25,122.13c-1.06-.13-.95.67-.71,1.11.42.78.47,1.35.65,1.89-.52-.5-1.38-.66-2-1v-3c.78,0,1.49.51,2.07,1Z"/>
      <path class="cls-18" d="M4.1,116.91c1.92,1.01,1.11,2.74-.86,3.04,1.12.39,2.27.74,3.47,1.03l.48,2.37c2.42.13,3.81,2.33,4.16,6.58,2.4,1.32,2.53,1.52-.24,2.17l-.8.03c-2.13.17-3.68-1.85-4.67-6.05C1.97,124.53.1,122.57,0,120.19c.17-.19.03-.63.14-.86.93-1.61,2.82-2.16,4.16-3.27.82.35.73.63-.2.85Z"/>
      <path class="cls-31" d="M17.92,130.87c.17.39.72.59.31,1.1-2.36.39-4.75.05-7.12.13l.24-2.17c1.44-1.97,4.84-.44,6.58.94Z"/>
      <path class="cls-106" d="M22.19,112.97c-1.08.93-1.9,1.8-3.26,2.44-1.11.75-.62-.76-.58-1.2-2.39-1.77-.83-3.81,1.78-2.16.11.37.35.93.75,1.13s.97-.03,1.32-.2Z"/>
      <path class="cls-108" d="M42.51,60.68l2.73.18c2.47,1.86,7.14,6.45,6.93,9.31,2.12.57,4.18,5.63,4.02,7.79-.32,2.24.3,2.95,1.85,2.14.95,2.23-.12,15.19-1.23,16.51-.64.77-1.63.52-2.48-.22-3.19-.18-2.08-4.11-.14-5.26-.22-5.57-.4-9.22-4.99-13.04.77,4.81-1.44,3.77-4.34.94-1.31.6-2.2,1.64-2.67,3.1-.41.21-.65.84-1.18.93-1.87-2.89-2.63-9.61-1.92-13.05-2.99.08-3.06-1.06-.7-2.7.34-1.08.96-2.47,1.86-4.18-2.58-1.88-1.58-3.64,1.34-2.34.11-1.19.45-1.24.92-.12Z"/>
      <path class="cls-49" d="M36.3,101.17c-.92.77-2.62.77-3.08,2.2-.21.64-2.08.6-2.07,1.68-.78.3-2.09.26-2.95.22-1.72-.19-1.77-.77,0-1.14l3.13-5c.34-2.31,3.53-6.07,5.63-6.93.96-2.29,1.59-4.79,1.87-7.5l1.12-.74c.23-.89.55-.89.98-.06,3.57,5.9.57,12.93-4.62,17.26Z"/>
      <path class="cls-33" d="M49.2,78.1c2.7,1.82,3.37,3.46,2.01,4.93,1.16,2.1,1.85,5.47-1.01,5.11-.56-.54-.92-1.55-1.06-3.03l-.96.22c-1.37-2.41-2.65-3.22-3.84-2.43-.17.88-.47.87-.88.02-.16-.48-.64-1.08-1.25-.78l-.08-12.47c1.65,3.44.3,7.01,4.3,8.32.61.2.79,2.82,1.7,1.61.27-.36.65-1.09,1.09-1.5Z"/>
      <path class="cls-59" d="M39.08,70.02c2.5,3.78,2.38,8.66,1.92,13.05l-.09.85-.98.06c-1.51,1.31-2.06.77-.97-.96-4.86.02-5.71-17.57.11-12.99Z"/>
      <path class="cls-66" d="M18.31,109.04c3.13-.14,3.73.86,1.81,3.01-1.06.23-1.11,1.68-1.78,2.16-1.33.97-2.65,2-2.95,3.74l-1.2.09c-.94.92-4.18,1.44-3.92-.23.77-2.54,2.4-5.07,4.89-7.61.97-1.64,2.22-3.25,3.15-1.16Z"/>
      <path class="cls-19" d="M11.19,121.13c.7-.82,1.37-.96,2.02,0,.02,1.13,0,2.25-.08,3.37.47,3.33-.13,5.14-1.79,5.43-2.42-1.39-2.71-4.19-4.16-6.58-2.76-1.24-.04-3.83,1.89-4.21,1.39-1.17,2.09-.5,2.12,1.99Z"/>
      <path class="cls-92" d="M17.92,130.87c-2.45.67-4.52.24-6.58-.94.21-1.95-.3-4.52,1.79-5.43.27,4.31,2.87,1.94,4.79,6.36Z"/>
      <path class="cls-28" d="M14.2,118.04c-.17.77-.5,1.49-1.01,2.09l-2,1c-.56-.74-1.31-1.47-2.12-1.99-1.74-.78-1.53-1.53.4-1.39.23-.86.5-.83.81.06,1.29.29,2.6.33,3.92.23Z"/>
      <path class="cls-45" d="M13.19,120.13l.02,1c-.37.15-.97.7-1.52.89-.24.08-.35-.69-.5-.89v-1.47c-.01-.47.82-.66,1.43-.54.34.06.7.44.57,1.01Z"/>
      <path class="cls-148" d="M26.61,101.7c.21,1.95-1.15,2.31-.7,1.08.64-1.78,2.78,2.27-1.72,2.35-.42.01-.84-.12-1.27-.13-.15.9-.4.81-.76-.12-2.68.05-2.69-.89-.29-2.02-3.68-2.02.16-6.34,3.35-6.7.41-1.02,1.45-1.66,3.12-1.94-.27-.93.06-1.25.98-.96.36-2.45,2.17-2.79,3.88-1.07,2.24-.54,3.06.05,1.78,2-2.86,2.52-5.66,5.01-8.39,7.49Z"/>
      <path class="cls-155" d="M22.93,105c-.23,1.59,2.05,1.84,2.34,3.26-1.7,1.31-2.96,3.3-5.14,3.78-.33-1.15-1-2.14-1.81-3.01-.26-1.16.38-1.81,1.92-1.95l1.03-2.16c.1-.94.41-.92.9-.04.25-.02.5.11.76.12Z"/>
      <path class="cls-160" d="M28.19,102.13c1.98-.14,1.46.99,0,2v1.14c-1.33-.06-2.66-.19-4-.14.23-.49,1.51-.76,1.43-1.4-.06-.47-1.22-.85-1.14-1.25.59-.69,1.57-.57,2.13-.78,1.62-2.85,3.21-2.55,1.58.44Z"/>
      <path class="cls-47" d="M62.21,89.23c-.36,3.62-1.21,7.3-2.17,10.79l-.6,2.17c-2.35-1.05-4.35-2.43-6.02-4.13-1.64-1.25-1.16-2.05.91-1.67,1.67,1.3,1.26-11.11,2.94-15.47-1.71.28-.92,1.94-1.67,2.59-1.1-2.58.34-3.95.59-5.55.59.7.96.09,1.1-1.83-.16-1.43.14-2.09.89-2,.41-.83.77-.81,1.09.06l2.17.95c1.28,2.79,4.51,13.22.76,14.08Z"/>
      <path class="cls-3" d="M59.44,102.19c.31,2,.07,3.97-.23,5.95l-1.02,5,.18,4.86c-.21,1.76-.55,1.82-1.18.14-1.58.11-1.45-2.64,0-3l-1.26-.59c.4-2.81.27-5.03-.41-6.66-.48-.15-.48-.45-.1-.87-1.4-1.75-1.62-4.01.8-4.89-.24-3.11,2.09-2.54,3.23.06Z"/>
      <path class="cls-51" d="M58.19,113.13c-.06-1.66-.71-4.08,1.02-5-.25,1.65.78,4.06-1.02,5Z"/>
      <path class="cls-86" d="M58.19,121.13h-3v-1c.39-.97.94-1.98,2-2l1.18-.14-.18,3.14Z"/>
      <path class="cls-5" d="M50.19,88.14c1.67.81.67,4.31-.85,5.03l-2.3-.03.15-3c.54-.54.84-1.25.98-1.99-.05-1.56.27-2.57.96-3.04.72.9,1.44,1.7,1.06,3.03Z"/>
      <path class="cls-113" d="M54.19,91.13l.14,5.26c-.47.46-.6,1.12-.91,1.67,1.95,1.77,1.26,3.05-2.09,3.82-.17.91-.54.96-1.09.18-.33.05-.7,0-1.02.1-1.09-.94-1.98-2.12-1.78-3.19.33-1.82.89-3.06,1.93-4.08.7-2.13,1.49-4.17,2.34-6.12l1.47.35c.52-.04.85.63,1,2Z"/>
      <path class="cls-130" d="M56.21,102.12c.27,1.6.66,3.75-.8,4.89l-1.06,6.05-1.17.07c-.9-.97-1.96-3.03,0-3-.14-1.82-.83-2.85-2.06-3.1-.99-1.49-.98-3.25-.89-4.97l1.09-.18c1.93-2.55,3.75-2.93,4.88.24Z"/>
      <path class="cls-105" d="M53.19,110.13v3c1.36-.2,1.56,1.82,1,3h-2c0-1.87.55-3.75-1-5-1.03-.83-1.71.04-2.54-.29-.72-.28,1.25-1.4-.41-2.25,1.06-.41,1.86.37,2.42.11.6-.28.53-1.28.47-1.67,1.02-.65,1.7.39,2.06,3.1Z"/>
      <path class="cls-108" d="M53.19,89.14c-1.83,1.64-.85,4.59-3.82,5.77l-.03-1.73c-.03-1.48-.09-3.72.85-5.03,1.1-1.54,1.49-3.11,1.01-5.11,3.03-1.57,3.49,3.94,1.99,6.11Z"/>
      <path class="cls-118" d="M55.52,107.88c1.23,1.73.64,5.43-.33,7.25.87.28.86.62,0,1h-1c-.11-.81-1.4-2.13-1-3,1.62-1.82.2-4.53,2.23-6.12-.01.28.15.59.1.87Z"/>
      <path class="cls-141" d="M57.19,115.13v3c-.05.43-.14.87-.36,1.27-.31.57-1,.77-1.64.73v-5c.19-2.66.86-2.66,2,0Z"/>
      <path class="cls-32" d="M7.18,113.89c1.16.49,1.89,1.53,2.2,3.12.95-.12.94.15.09.74l-.4,1.39c-.42,1.48-1.77,2.62-1.89,4.21-1.73-.52-3.21-1.74-3.94-3.41,1.65-.84,1.94-1.86.86-3.04.13-.25.1-.59.2-.85.86-.71,1.22-2.51,2.88-2.17Z"/>
      <path class="cls-121" d="M11.03,110.94c.77,1.91-3.09,6.31-3.84,2.94,1.38-3.28,3.73-6.14,4.19-9.72.52-.37,1.22-.63,1.62-1.14,3.88-.5,1.81,7.61-1.97,7.92Z"/>
      <path class="cls-159" d="M3.23,119.95c-.07-1.09.38-2.09.86-3.04.99-.17,2.17.03,2.63,1.16.39.96-.55,1.85-1.2,2.25s-1.8.08-2.29-.36Z"/>
      <path class="cls-14" d="M35.21,62.13c.77,1.86,1.83,3.59,3.18,5.18.34.8.22,1.98.7,2.7-3.98-.93-.99,10.63-.11,12.99.16.39.27.78.23,1.14-.23,1.84-.83,6.24-2.04,6.35-.65.06-1.28.05-1.79-.19-.58-4.9-1.68-9.62-3.3-14.17l-2.29-.03c-.96-5.64-2.52-10.92-4.68-15.84-1.9.77-2.37-.76-.74-1.9.15-.48.47-.45.93-.06.2-1.31.9-.98,1.91-.18-.34-2.01.15-2.83,1.32-1.21,4.3-2.24,6.07-1.55,5.32,2.05l1.37,3.15Z"/>
      <path class="cls-152" d="M42.7,53c3.16-.91,4.04,1.05,1.6,3.04,1.55,1.3,1.17,2.32-1.16,3.09l-1.55,1.67c-.76.54-1.28,1.38-1.34,2.34-.02,1.05-.7,1.72-2.06,2-1.71.93-2.55-1.38-2.98-3.01-2.21-3.45-3.11-9.37,2.18-8.78.84-1.15,2.35-1.73,3.74-1.26,1.11-1.48,1.75-.93,1.57.91Z"/>
      <path class="cls-100" d="M55.33,68.14c.92.21.88.59,0,1.1-.12,2.64-1.44,2.64-3.15.93-3.23-3.06-6.94-5.9-9.66-9.5.5-3.93,4.38-2.91,6.95-.57l5.87,8.02Z"/>
      <path class="cls-97" d="M50.25,59.14c3.24.12,8.31,6.75,5.08,9-1.77,1.16-6.25-8.95-9.4-8.8-1.06.05-2.54.47-3.41,1.34-.49-.64-.46-.34-.92.12-.44-2.04,1.87-3.06,2.71-4.76,1.05-2.86,6.83.3,5.95,3.1Z"/>
      <path class="cls-78" d="M54.19,91.13c-.41-.55-1.02-1.26-1-2,.06-2.23-.2-4.6-1.99-6.11-.47-1.73-1.73-3.13-2.01-4.93,4.17.94,6.97,4.81,5.39,9.47-.43,1.28-.4,2.54-.4,3.57Z"/>
      <path class="cls-115" d="M55.33,69.24c1.21-.94,1.69-.39.86.89.9,2.04,1.26,4.04,1.11,6,.27,1.51,2.1,3.06-.38,4.59-.34-1.84,0-1.81-.73-2.76-1.9-2.45-3.87-4.94-4.02-7.79.84-.78,2.03-.93,3.15-.93Z"/>
      <path class="cls-23" d="M40.25,63.13c-.05.82,0,1.59,0,2.52,0,.98-.46,2.26-1.86,1.66-1.02-.96-1.64-1.64-.2-2.18-.1-.67-.03-1.57.6-1.85.5-.22,1.04-.18,1.46-.15Z"/>
      <path class="cls-53" d="M38.98,83.01c.15.41.67.67.97.96.12,3.08-.55,6.18-1.57,9.47-5.64,2.37-1.87,3.88-7.06,5.69-.6,2.37-1.64,3.37-3.13,3,.18-.29-.12-.8-.47-.97-.32-.16-.8.25-1.11.53,3.29-9.29,9.5-6.2,6.61-9.49-2.05-1.8-1.57-3.26.98-3.95-.91-3.67-2.18-7.19-3.81-10.56l1.69-1.56c4,5.38,1.38,11.14,5.62,13.39-.8-3.19-.64-4.62,1.29-6.52Z"/>
      <path class="cls-148" d="M28.19,104.13v-2c1.03-1.03,1.7-2.5,3.13-3,.54,2.4-.64,4.59-3.13,5Z"/>
      <path class="cls-21" d="M49.13,85.11c.17,1.12,0,2.34-.96,3.04-.25-2.32-1.73-4.28-3.84-5.25.14-.98-.86-1.44-1.05-2.84,2.84,1.03,4.3,3.13,5.85,5.05Z"/>
      <path class="cls-71" d="M10.28,117.81l-.81-.06c.07-.26.03-.51-.09-.74-2.86-1.48,1.23-4.37,2.98-4.94-.71-1.94,1.11-3.53,2.81-1.87-.17,3.28-2.84,5.26-4.89,7.61Z"/>
      <path class="cls-131" d="M18.31,109.04c-1.05.21-2.29.48-3.15,1.16-2.27-1.35-.56-4.88,2.02-4.06.27-.86.61-.85,1,0,2.87-.21,2.77,2.09.12,2.9Z"/>
      <path class="cls-16" d="M29.17,80.31c.93-.57,2.23-.8,2.52-.06,1.05,2.63,1.84,5.26,2.5,8.01.19,1.35-.45,2.76-.98,3.95-1.15.74-2.5,1.43-3.88,1.07-2.52.56-2.62-.11-1.15-2.14-2.67-.06-2.56-1-.06-1.86.02-1.44-.28-2.85-.89-4.23-3.99-4.59-.89-11.4,1.7-2.53-.54-.94-.94-1.82.23-2.21Z"/>
      <path class="cls-122" d="M25.23,96.17l-1.76,3.31c-.44.83-2.09.7-1.94,1.62.1.63.27,1.21.35,1.77-.96,1.62-2.16,1.39-2.45-.47-1.97.65-2.04-1.4-.44-2.3-1.02-.94-.66-2.25,1.08-3.92.02-.96.36-1.02.99-.23,1.38-.46,3.24-.85,4.17.23Z"/>
      <path class="cls-126" d="M21.88,102.87l.29,2.02c-.28.02-.64-.06-.9.04.59,2.68-1.5,3.34-3.08,1.2-.29.11-.69-.07-1,0-3.56,1.89-3.79-3.71-.83-2.77.75-1.3,1.88-1.49,3.07-.96.79-.12,1.75.09,2.45.47Z"/>
      <path class="cls-120" d="M29.34,93.28c-.35.28-.61.7-.98.96-2.14,1.25-4.19,1.55-6.16.9-3.28-2.86,3.38-5.35,6-4,.56.61.92,1.35,1.15,2.14Z"/>
      <path class="cls-125" d="M28.35,94.23c-.94.66-1.93,1.72-3.12,1.94-1.35.25-2.82-.29-4.17-.23-1.08-1.65-.43-2.06,1.13-.81,2.09-.1,4.05-1.01,6.16-.9Z"/>
      <path class="cls-101" d="M18.31,109.04l-.12-2.9,3.08-1.2c.74.82,1.39,2.4.72,3.63-.58,1.07-2.61.27-3.67.48Z"/>
      <path class="cls-94" d="M17.19,100.19c1.66.98,1.16,2.94-.83,3.18-.09.35-.99.71-.72,1.19.37.66,1.07,1.01,1.55,1.58-.81,1.41-1.94,2.45-2.02,4.06-.8.63-2.23,1.01-2.81,1.87-1.56,1.11-2.17.61-1.33-1.12,1.01-2.6,3.85-5.45,1.97-7.92.43-.54.93-1.18,1.18-1.83.39-1.04,1.61-1.16,2.26-1.84.8-.22,1.05.06.75.83Z"/>
      <path class="cls-127" d="M59.44,102.19c-.79-1.29-2.27.26-3.23-.06-1.58-.53-3.21-.51-4.88-.24.52-1.36,1.37-2.56,2.09-3.82,1.49-.02,3.2-.32,4.57.83.91.76,1,2.06,1.44,3.3Z"/>
      <path class="cls-29" d="M58.19,74.14c.18.69-.56,1.46-.89,2-.25-2.1-2.5-3.82-1.11-6,.19-.89.51-.91.97-.09l1.03,4.09Z"/>
      <path class="cls-51" d="M57.19,115.13h-2c0-2.43-.08-4.86.33-7.25,3.86-.53-.46,5.55,1.67,7.25Z"/>
      <path class="cls-98" d="M53.19,110.13l-2.06-3.1c-.16-.95,1.14-1.29,1.83-.74.57,1.37.1,2.73.22,3.84Z"/>
      <path class="cls-159" d="M12.36,112.07c-1.12,1.65-3.23,2.87-2.98,4.94-.68-.01-1.77-.07-2.01-.6-.35-.79-.44-1.92-.19-2.52,1.87.38,3.19-1.26,3.84-2.94.47.34.92.71,1.33,1.12Z"/>
      <path class="cls-12" d="M32.07,76.14c1.93,8.26,1.14,5.26,2.12,12.11-1.48-2.97-1.9-6.29-5.02-7.94-2.13-.06-4.54-2.75-1.13-4.03-1.89-2.24-1.93-6.29-1.86-9.26-2.77.4-3.01-5.16-1.08-6.75,1.43.27,2.81-.57,5.08.2-.11.75-2.65,1.45-2.23,2.69,1.53,4.5,1.56,9.51,4.13,12.97Z"/>
      <path class="cls-104" d="M27.37,50.23c1.52-1.65,3.6-2.23,4.86.04,2.84-1.48,4.75-1.2,5.73.85,2.18.4,1.51,2.27-.57,2.22l-2.2,3.37c-.95,1.45.49,3.73.02,5.4-1.57-1.23-3.09-2.57-2.61-5.08-2.5-.05-3.84.61-5.4,1.09-3.98-.31-4.84-6.78-1-3.99l1.72-.86c.27,1.39,1.04,2.02,2.3,1.88-.26-1.11-.63-2.09-1.51-2.98.63,2.84-.57,2.81-2.51.95-1.38.7-2,.54-2.08-1.2-1.73-.27-1.56-1.55-.01-2.04.13-.89.41-.86.82,0,.9-2.58,1.91-2.32,2.45.34Z"/>
      <path class="cls-70" d="M24.36,58.37c.29.6.39,1.32.74,1.9,1.17,1.95.23,4.85,1.08,6.75.43,1.79.1,2.45-.99,2-3.73,1.12-5.32-8.47-2.99-10.89.21-2,1.15-1.19,2.17.24Z"/>
      <path class="cls-35" d="M24.1,49.9c.15.65-.09,1.38.01,2.04l.93.95c-1.64,1.42-1.56,3.23.25,5.43-.29.06-.63.09-.93.06l-2.17-.24c-.95-.69-1.37-2.26-1.25-4.71-2.2-2.45-1.13-5.36,2.28-5.3,1.46-.15,1.55.53.88,1.77Z"/>
      <path class="cls-140" d="M26.19,53.14c.87.28.86.62,0,1-.36-.07-2.35.02-2.03,1.06.5,1.6,2.88,1.43,3.03,2.94-.59.18-1.3.05-1.91.18-.98-.74-1.94-1.66-2.14-2.79-.24-1.39.13-2.63.96-3.59.88,0,2.08.03,2.08,1.2Z"/>
      <path class="cls-59" d="M38.19,65.14c.2.68-.08,1.52.2,2.18-2.02-.86-3.83-2.84-3.18-5.18,1.1.86,1.63,2.43,2.98,3.01Z"/>
      <path class="cls-99" d="M41.5,43.08c.83-.33,1.06-.05.72.81.9.32.86.68-.05,1.06.02,1.22.32,2.25,1.01,3.23,2.18-.26,1.18,1.62-.07,2.95-.2.6-.69,1.15-.43,1.85-.49-.29-1.17-.51-1.57-.91-1.53.64-2.58.32-3.17-.96l-1.77-2.02c-2.66.28-3.84-.51-2.72-3.04.07-2.24,6.83-4.82,8.04-2.98Z"/>
      <path class="cls-64" d="M41.13,52.09c-.44.6-.82,1.4-1.63,1.77-.65.3-1.49-.1-2.11-.51l.57-2.22c.69.04,1.43-.59,2.31-.34.52.15.57.88.86,1.29Z"/>
      <path class="cls-107" d="M22.19,58.14c.04,4.15-.69,9.44,2.99,10.89h.83c.08,2.8.76,5.21,2.02,7.26.25,1.11-.15,3.35,1.13,4.03-.08.97.44,2.19-.52,2.85l-2.11-4.28c-.9,2.76.99,4.19.7,6.16.73.54.61.9-.31,1.09-4.16.79-6.1-5.74-2.76-8,.93-1.95.51-4.02-.09-6-2.36-3.63-4.14-7.69-3.98-12-3.07-.93-2.63-7.04.85-6.71,1.44,1.17,1.23,3.04,1.25,4.71Z"/>
      <path class="cls-134" d="M28.13,89.28c-.19-.42-.78-.7-1.04-1.09-2.05-.08-2.05-1.1-.16-2.05,0-.36.26-.73.31-1.09,1.09.72,2.15,1.61,2.98,2.72-1.03,1.12-1.3,1.85-2.09,1.51Z"/>
      <path class="cls-52" d="M18.98,100.1c.09,2.41-1.03,2.41-1.79.09-.33-.2-.62-.46-.75-.83,1.12-1.16,2.08-2.53,3.62-3.18-.2,1.35-.55,2.67-1.08,3.92Z"/>
      <path class="cls-162" d="M18.98,100.1l.44,2.3c-.23.35-.23,1.26-.71,1.34-.92.16-1.68-.21-2.36-.38.25-1.03.42-2.19.83-3.18l1.79-.09Z"/>
      <path class="cls-84" d="M44.91,15.84c3.56-1.88,7.97,2.82,3.44,4.37l-5.99,1.44c-.94,2.86-2.29,4.04-4.05,3.53l-1.56,4.21c-2.28-.11-4.5.13-6.66.73.86,2.38.66,4.41-.6,6.1.01,2.4-1.32,2.6-3.31,1.81-.09.89-.35.86-.77,0,.06-2.71.85-5.27,1.76-7.84.26-.72,1.07-1.26.98-2.17,1.59-.21,2.83-1.47,3.91-3.02,5.31-7.59,8.9-4.46,10.18-8.82.18-1.77.53-1.85,1.25-.2.26-1.78.85-1.94,1.41-.14Z"/>
      <path class="cls-16" d="M28.04,76.28c-2.01,1.41-2.79-6.27-2.86-7.26.58-.52.85-1.25.99-2,1.33,2.96,1.15,6.09,1.86,9.26Z"/>
      <path class="cls-72" d="M38.31,25.18c1.85,1.16,2.19,3.8,1.01,7.93,1.05,2.85.99,5.2-.19,7.04,1.26.57,1.32,1.19.51,2.29l-10.07,3.35c.29,2.93-.44,4.41-2.2,4.44-.62-.34-1.75-.09-2.45-.34l-.72-1.47c1.22-3.37,1.88-6.83,1.98-10.39.57-1.32,1.92-1.91,3.31-1.81,1.64-.62,3.59-.83,5.84-.65-3.45-.05-6.95-1.84-5.24-5.45,1.33-1.74,2.37-3.97,4.98-4.64.09,1.24-.4,2.27.88,2.73.34-1.87,1.79-2.27,2.36-3.03Z"/>
      <path class="cls-20" d="M41.2,41.18c1.88.29,2.01,1.03.3,1.9-2.82.51-5.44,1.8-8.04,2.98,1.36,1.75.92,3.45-1.23,4.21-1.66.48-3.48,1.22-4.86-.04.94-1.56-1.16-4.3,1-6,2.56-2.02,11.38-.44,10.76-4.08,1.39-2.54,1.95-1.74,2.07,1.03Z"/>
      <path class="cls-109" d="M37.96,51.13c-1.3-.08-2.54.23-4.15.63-.98.25-1.42-.92-1.58-1.49-.1-1.47-.37-3.48,1.23-4.21.42.57.85,1.11,1.37,1.18,1.07.16,1.99-.87,2.98-2.13.19,2.01.64,4.11.15,6.01Z"/>
      <path class="cls-79" d="M24.92,49.89c-.25-.09-.56.05-.82,0-.15-.63-.64-1.18-.88-1.77-2.54-1.17-1.92-3.52.91-3.73,1.07-1.89,1.23-4.23,1.28-6.37h.77c.77,1.94,1.13,4.15.31,6.51-.89,1.89-1.38,3.64-1.57,5.34Z"/>
      <path class="cls-95" d="M30.22,55.16c-1.67,1.11-3.57-2.22-1.51-2.98.64-.24,1.77-.54,2.82.05.51.29,1.29.46.77,1.73-.25.61-1.74.63-2.08,1.2Z"/>
      <path class="cls-14" d="M30.22,55.16c-.44.72-1.71,1.72-2.49.69-.35-.46.08-1.43-.39-1.57s-.83-.28-1.15-.15v-1l2.51-.95c.14,1.15.53,2.3,1.51,2.98Z"/>
      <path class="cls-4" d="M45.09,42.17c2.48,1.14,3.85,2.8,4.09,4.97-.05,1.28-1.81,1.22-3,1,1.19,1.84.94,2.21-1.23,1.85l-1.84,1.15c.3-.92.16-2.01.07-2.95-1.94-1.3-2.28-2.38-1.01-3.23-.06-.33.15-.75.05-1.06-.67-2.85,1.38-5.08,2.87-1.73Z"/>
      <path class="cls-96" d="M52.05,49.13c2.22,1.32,1.91,2.36-.64,2.92,1.55.86,1.48,1.2-.31,1.17-.43-1.02-1.57-2.16-2.68-2.3-1.78-.49-2.08-1.23-.22-1.78-.28-1.36.91-1.62,2.08-1.06.18-2.9,1.44-3.37,3.67-1.6,2.07,1.19,1.43,2.08-1.9,2.65Z"/>
      <path class="cls-151" d="M55.11,52.96c1.89-1.2,4.22-1.45,3.08,1.01-.56.1-1,.58-.86,1.17-2.33.07-5.2.54-6.24-1.91l.31-1.17c1.73-1.7,3-1.48,3.71.91Z"/>
      <path class="cls-26" d="M48.19,49.14l.22,1.78c-1.2-.15-2.44-.13-3.45-.93.19-.74.58-1.42,1.23-1.85.86-.71,1.84-.14,2,1Z"/>
      <path class="cls-161" d="M44.23,33.19c.06,2.33.76,4.62,2.11,6.86,2.57,1.55,1.56,3.18-1.24,2.12-1.45-.79-1.86,1.24-2.87,1.73-.1-.31-.66-.5-.72-.81-.02-.61-.36-1.3-.3-1.9-1.65-1.62-1.99-5.28-.26-6.97-.75-3.75,4.03-4.47,3.29-1.02Z"/>
      <path class="cls-153" d="M43.19,48.19c-1.05-.73-2.22-.81-4.09-1.44l3.08-1.79c.51,1.01.9,2.1,1.01,3.23Z"/>
      <path class="cls-134" d="M24.17,78.14l-.12-2c-.08-1.32.14-2.67.02-4,1.13,1.74,2.35,4.45.09,6Z"/>
      <path class="cls-88" d="M48.35,20.21c.9.07.93.37.14.88l-.68,2.13c-2.7-.24-4.53.12-5.49,1.07,2.98,1.88,1.15,4.06-1.03,5.83,2.61,1.27,2.4,1.38-.18,2.14l-.18,1.95c1.26,1.86.44,5.02.26,6.97-.67-.38-1.26-1-2.07-1.03-1.37.47-1.18-14.18-.82-14.97,2.01-3.77,5.78-5.97,10.04-4.97Z"/>
      <path class="cls-39" d="M29.48,36.22c-.48-1.06-.9-2.2-1.12-3.47-.19-1.11,1.06-1.77,1.72-2.63,3.03,6.7,8.31-.11,7.04,7.27-.05.3-6.58,1.18-7.64-1.17Z"/>
      <path class="cls-44" d="M48.09,14.01c2.55-.65,4.63-1.09,5.1,2.13.74.13.68.48,0,1,.43,2.12-.25,2.48-2.03,1.09.44,1.46.91,3.72-.9,3.84,1,1.7.96,2.86-1.08,2.13-2.74-.32-3.02-1.63-.7-3.1-.11-.27-.06-.6-.14-.88.32-.25.69-.53.81-.84.49-1.28-3.32-2.35-4.25-3.53-1.2-1.49-.42-3.2,1.34-1.94.85-1.68,1.55-1.84,1.84.1Z"/>
      <path class="cls-114" d="M47.07,11.31c2.28.52,1.06,2.07-.82,2.6-.75.38-1.47,1.04-1.34,1.94-.48-.02-.94.07-1.41.14.03-1.28.03-2.81.75-3.95.57-.91.58-1.95.95-2.9,2.3-2.31,3.66-.39,1.88,2.17Z"/>
      <path class="cls-89" d="M55.19.26c.79,0,1.13.29,1,.88l2,1c.87.28.86.62,0,1-2.29.2-1.64.54,1.95,1.02l-1.1,1.22c-.44,1.31-1.62,1.84-3.56,1.6-.32-1.45-1.77-1.82-4.35-1.11-.5,1.61-1.23,1.61-1.67-.02-.85,0-.84-.27-.08-.8-.41-1.56.58-2.85,2.96-3.89.97-.09,1.92-.67,2.86-.89Z"/>
      <path class="cls-132" d="M49.44,5.84c2.57.87,2.4,1.66-.25,2.3,1.42.98,1.08,2.03-1.01,3.15-.35.9-.72.9-1.11.02,0-1.03-1-1.87-1.88-2.17.41-1.05,1.75-1.72,2.03-2.89.66-1.63,1.38-2.03,2.15-1.21-.03.25.17.56.08.8Z"/>
      <path class="cls-46" d="M66.46,43.14c1.22-.05,2.46.98,3.72,3.08.21-.89.55-.91,1.01-.08.7.4,1.16,1.37,1.39,2.89l.03.78c-2.16.75-4.96,2.08-5.69-.81-2.12.46-2.68-.84-1.68-3.91-2.73.17-3.13-.53-1.18-2.1-2.88.52-3.35-2.77-.71-3.91-.66-2.6.18-2.93,1.98-.96,1.89.96,2.33,3.3,1.13,5Z"/>
      <path class="cls-11" d="M66.92,49.01c-3.44.84-5.31,4.37-8.73,4.97-.51-1.19-1.97-1.08-3.08-1.01-1.58-2.38-.55-3.06,1.95-1.68l6.18-3.18c-.59-1.34.7-2.51,2-3,.7,1.25,1.23,2.55,1.68,3.91Z"/>
      <path class="cls-129" d="M49.19,47.14c.42.2.71.67,1.08.94-.71.32-1.07,1.27-2.08,1.06-.77-.16-1.93.12-2-1,.57-1.13,1.87-1.28,3-1Z"/>
      <path class="cls-156" d="M56.3,49.09c.89.15.88.45.04.89.68.09.88.56.72,1.3-.72.47-1.45.96-1.95,1.68-1.31.08-2.67-.03-3.71-.91.21-.81-.04-2.29.64-2.92,2.49-2.3,3.91-2.32,4.25-.04Z"/>
      <path class="cls-56" d="M57.19,48.14c.26.84-.03,1.16-.89.96l-4.25.04c.93-.78,1.81-1.35,1.9-2.65.08-1.16,1.68-1.65,2.24-2.34,2.03.58,1.67,2.17,1,4Z"/>
      <path class="cls-157" d="M58.07,30.16c1.08.17,2.07.91,2.95,2.23.67-2.48,1.7-2.23,3.29-.41.87.3.86.65,0,1.05,1.68,1.97.44,3.52-2.05,2.06-.63.86-1.31,1.54-2.06,2.05.73.89-.8,2.88-2,2-1.87-.36-5.33-.69-3.83-3.04-.89-.2-.87-.52-.02-.96-.06-1.56,1.06-5.16,2.99-4.89l.73-.09Z"/>
      <path class="cls-128" d="M60.34,13.38c1.97.19,2.02.91.16,1.52.89,1.12,1.46,2.53,1.69,4.24.89.54.52,1.52-1.11,2.96-1.69.5-3.26,1.19-4.66,2.29-2.58.91-2.89-.38-1.23-2.25-.95-.25-.93-.59,0-1-1.05-1.04-1.46-2.58.26-2.72.19-1.96.84-4.21,2.76-5.04.63-1.73,1.51-1.71,2.13,0Z"/>
      <path class="cls-7" d="M57.33,30.25c-.89,1.71-1.31,3.8-2.99,4.89-3.71,1.54-4.56-2.42-.1-3-2.1-.3-2.05-2.41.02-3.01-2.65-1.05-.96-5.71,1.16-3.84.78,1.59,1.56,3.2,1.9,4.95Z"/>
      <path class="cls-91" d="M55.19,22.14l1.23,2.25c-.31.24-.62.8-.99.91-1.81.54-1.4,2.34-1.16,3.84-1.82,4.46-5.97-5.31-1.49-4.26-.74-1.26-1.34-2.5.43-2.59-.33-1.97.74-1.33,1.99-.14Z"/>
      <path class="cls-10" d="M75.19,43.14c-.71.28-1.39.62-2.06.98-1.01-1.57-1.57-4.73-1.11-6.69l1.17-.29c1.43,1.5,4.15,4.35,2,6Z"/>
      <path class="cls-74" d="M65.36,16.45c-1.18,1.83-1.85,4.93-4.28,5.65l1.11-2.96c-.89-1.52-.84-2.53.13-3.03-.18-.87.07-.87.7-.13,1.58-2.27,1.66-2.1,2.34.47Z"/>
      <path class="cls-43" d="M61.07,29.29c2.76.59,2.55,2.14-.06,3.11-.6-.16-1.63,1.14-2.06.44-.64-1.03-.72-1.93-.89-2.68l1.03-1c1.17-1.41,1.79-1.85,1.98.13Z"/>
      <path class="cls-133" d="M67.28,29.21c.07,1.8-.72,1.85-1.2,0-2.28,1.31-3.54.58-3.89-1.97.77-1.04,2.02-1.45,3.3-.84,1.02.49,1.65,1.63,1.79,2.82Z"/>
      <path class="cls-69" d="M68.22,29.38c-.46,1.43-1.41,2.6-2.28,3.81-.49,2.66-1.07,2.4-1.65-.16v-1.05c-1.05-2.31-.75-2.77,1.79-2.78h1.2s.94.18.94.18Z"/>
      <path class="cls-24" d="M62.19,27.23c1.83,2.05,1.54,2.65-1.12,2.05l-1.98-.13c.57-.56.57-1.53,1.19-2.33.45-.57,1.32-.16,1.9.41Z"/>
      <path class="cls-116" d="M51.19,32.14c.44.88.06,1.18-1,1-.85.17-2.51.72-2.08,1.87-1.46.13-3.33-.26-3.88-1.81-.41-1.14-1.24-1.39-2.54-1.01-.75.22-.62,1.41-.75,2.03-1.17-1.72.6-2.45.35-4.09.22-1.84,1.2-2.16,1.84-.29,2.04-1,5.15.21,6,2.36l.56-1.76c-.83-1.52-1-2.62-.51-3.29-.87-.31-.86-.68,0-1.1,1.15-2.25,2.93,2.06,3.54,3.67.43,1.15-.23,2.31-1.54,2.42Z"/>
      <path class="cls-154" d="M48.49,21.1c.39.99.59,2.04.7,3.1,2.38.02,2.33,1.2,0,1.85v1.1c.15,1.85-.97,1.14-2.01-.06-2.2,1.3-3.82.37-4.86-2.78.04-.64-.37-2.2.88-2.39l5.29-.81Z"/>
      <path class="cls-42" d="M47.18,27.08c1.58-.11,1.6.64,0,1.17-.31,2.06-2.41,2.4-4.05,1.59l-1.84.29c-.31-2.08.9-3.64,1.03-5.83.64-.06,1.3-.4,2.05-.26.49,1.69,1.46,2.75,2.81,3.04Z"/>
      <path class="cls-93" d="M52.77,24.88c-.24,1.02-1.45,1.84-1.2,2.59.46,1.4,1.64,1.98,2.7,1.67.13.84.27,2.21-.02,3.01-2.15,1.33-3.17,1.33-3.05,0-.18-2.18.36-5.14-2-6.1v-1.85c.41-.6,1.08-1.35,1.07-2.13,1.43-.85,2.27.08,2.51,2.81Z"/>
      <path class="cls-68" d="M53.19,10.14c1.99-.16,1.33.87,0,2-.23.85-.57.82-1,0,.63,1.36-.74,1.98-4.1,1.87-.55-.23-1.27.06-1.84-.1.14-.86.82-1.71.82-2.6.34-.09.79.11,1.11-.02.91-2.16,3.66-2.97,5.01-1.15Z"/>
      <path class="cls-149" d="M53.2,22.28c.04.66-.27,1.92-.43,2.59-1.18-.59-1.5-2.02-2.51-2.81,0-1.44-.21-2.8.9-3.84,1.35-1.16,3.13,3.28,2.04,4.06Z"/>
      <path class="cls-38" d="M53.19,16.14c-.83-2.13-3.22-1.33-5.1-2.13,1.05-1.18,2.81-1.06,4.1-1.87,1.72.25,2.03,2.68,1,4Z"/>
      <path class="cls-143" d="M53.19,17.14c.96,1.1,1.63,2.43,2,4-.03.29-.11.75,0,1l-1.99.14c-.52-1.37-.74-3.23-2.04-4.06.59-.55.94-1.33,2.03-1.09Z"/>
      <path class="cls-136" d="M54.19,12.14c2.37,0,2.46,1.03.27,3.07,1.72.84,1.6,1.59-.27,1.93-.19.89-.52.85-1,0,.04-.33,0-.67,0-1,.03-1.4-.23-2.81-1-4,.24-.15.71.03,1,0,.18-.92.52-.88,1,0Z"/>
      <path class="cls-85" d="M63.41,0c.48.45.77.52.13,1.02-.37.89-.82.93-1.35.12-.28.87-.62.86-1,0-1.42.82-3.53.68-5,0-.18-.33-1-.41-1-.88C57.81-.35,60.85.81,63.41,0Z"/>
      <path class="cls-90" d="M59.03,5.38c2.64.38,2.51,1.68.16,2.76-.82,1.28-2.68,1.79-4,1-1.43.55-1.78.34-1-1l-.49-.89c-2.34.37-3.21-.09-2.58-1.4,2.01-2.19,5.22-.34,7.91-.48Z"/>
      <path class="cls-15" d="M58.19,3.14c2.28-1.75,6.55-.44,4.79,2.18-1.29,1.56-3.09,2.05-3.95.05.27-1.29-.78-1.24-1.39-1.28-1.03-.08-2,.46-3.54-.35,1.06-1.18,2.72-.46,4.08-.6Z"/>
      <path class="cls-50" d="M51.12,5.86c-.73,1.24,6.1-.3,3.73,1.28-.23.15-.52.68-.66,1-.49,1.49-4.82,1.89-5,0,.35-.63,0-1.63.25-2.3.56-.04,1.12-.03,1.67.02Z"/>
      <path class="cls-37" d="M65.3,4.23c.91,2.36-1.06,3.3-2.32,1.09,0-2.48-2.84-2.39-4.79-2.18v-1c.87-.37,1.87-.71,3-1h1c1.49.5,3,1.49,3.11,3.09Z"/>
      <path class="cls-40" d="M61.19,1.14c-.41,1.28-1.92,1.01-3,1-.85,0-1.57-.22-2-1h5Z"/>
      <path class="cls-22" d="M54.19,8.14c.29.31.77.6,1,1,.64,1.17-1.01,2.02-2,1-1.73.14-3.4.48-5.01,1.15.31-1.07.46-2.16,1.01-3.15h5Z"/>
      <path class="cls-27" d="M73.12,44.12l.06,2.02c-.28.87-.62.86-1,0-1.58-1.27-3.32-5.61-3.07-8.12l2.89-.58c2,1.99,2.65,4.21,1.11,6.69Z"/>
      <path class="cls-119" d="M73.19,46.14c.03,1,.03,2.07-.61,2.89-.76.36-2.78.38-1.99-.87.41-.64.57-1.35.6-2.03.28-.87.62-.86,1,0h1Z"/>
      <path class="cls-135" d="M63.35,39.09l.71,3.91c.44,1.56-3.25,2.5-4.25,1.36-.55,1.74-1.24,1.68-1.42-.23-1.57.27-1.38-1.21-.2-1.99.16-1.78,1.16-3.44,3-5,.31-.87.67-.86,1.07,0,1.86-.69,2.26.3,1.09,1.95Z"/>
      <path class="cls-25" d="M65.94,33.2c-.36.51-.35.91.12,1.32,1.62,1.36,2.94,4.87.13,3.62-.19.88-.48.86-.86,0l-1.98.96c-.45-.6-.81-1.26-1.09-1.95-1.57-.01-1.57-1.65-.02-2.05l2.05-2.06,1.65.16Z"/>
      <path class="cls-25" d="M70.18,46.22c-.91,1.04-2.04.92-2.49-.16s-.97-1.95-1.23-2.92c-.07-1.93.5-2.6,1.73-2,1.88-1.21,3.61,3.8,1.99,5.08Z"/>
      <path class="cls-142" d="M72.19,46.14h-1l-1.01.08c.1-1.93-.35-3.93-1.99-5.08-1.75-.02-1.86-1.8,0-2-1.16-1.3-.74-1.91.93-1.12,1.5,2.53,2.05,5.35,3.07,8.12Z"/>
      <path class="cls-13" d="M64.06,43l1.18,2.1c-1.2,1.8-4.86,3.26-6.03,1.26-1.94-.81-1.57-1.79.59-2l4.25-1.36Z"/>
      <path class="cls-139" d="M68.19,39.14v2c-.3.87-.87,1.62-1.73,2-.46-1.65-.91-3.31-1.13-5h.86c1.62-.91,1.99-.97,2,1.01Z"/>
      <path class="cls-54" d="M65.25,45.1c.19,1.41-.7,2.54-2,3-2.48,2.2-4.78,2.83-6.91,1.88l-.04-.89c.25-.32.5-.79.89-.96-.57-2,.14-2.6,2.03-1.78,2.08-.13,3.9-1.43,6.03-1.26Z"/>
      <path class="cls-110" d="M63.25,48.1c-1.12,2.3-3.73,3.12-6.18,3.18-.26-.42-.51-.85-.72-1.3,2.57.46,4.47-1.6,6.91-1.88Z"/>
      <g>
        <path class="cls-41" d="M54.36,36.1c1.98.37,3.26,1.38,3.83,3.04,1.48.52.39,2.06-1,2,.64,1.37.64,3.11-1,3-.68,1.92-1.43,2.71-2.24,2.34-1.1.81-2.46,1.05-3.67,1.6-1.23.76-1.74.39-1.08-.94-2.35-1.1-4.87-2.01-4.09-4.97.82-.32.84-1.59,1.24-2.12,0-1.8.59-3.48,1.77-5.04-3.46-1.35-.64-2.8,2.08-1.87l1.32.14c-.5,1.42.45,2.36,2.86,2.82Z"/>
        <g>
          <path class="cls-117" d="M44.23,33.19c1.25-.65,3.65.3,3.88,1.81.38,1.02,1.4,1.93.82,3.12-.49,1-1.65,1.52-2.59,1.92-1.81.08-3.04-1.14-3.54-2.89-.46-1.63-1.03-3.99,1.43-3.97Z"/>
          <path class="cls-2" d="M54.24,32.14c-.33.72-1.2.85-1.61,1.14-.75.54-.6,1.74.13,1.81s1.21.08,1.58.05l.02.96c-1.04.06-2.11.08-3.16-.45-.82-.4-1.08-1.51-1.01-2.52.35-.32.68-.65,1-1h3.05Z"/>
          <path class="cls-102" d="M48.19,44.99c-2.08.01-2.62-1.79-.56-2.07.86-.12,1.47-.47,1.9-.39.48.08.55.77.43,1.09-.16.42-.46,1-1.78,1.38Z"/>
          <path class="cls-137" d="M61.19,37.14c-.24,2.02-1.52,3.67-3,5-.82.15-1.15-.18-1-1l1-2,2-2c.28-.87.62-.86,1,0Z"/>
          <path class="cls-82" d="M58.19,42.14l.2,1.99c-.5,2.58-1.46,2.51-2.2,0,.44-.87.53-2.07,1-3,.46.19.8.55,1,1Z"/>
        </g>
      </g>
      <path class="cls-67" d="M58.39,44.13c.44,0,1,.36,1.42.23-.29.64-.48,1.31-.59,2-.34.92-1.17,1.41-2.03,1.78-.21-.55-1.73-.93-1.74-1.49,0-.74,1.14-1.54.74-2.51h2.2Z"/>
      <path class="cls-147" d="M69.03,8.97c.14,1.38-.9,1.53-3.12.44-.42.94-.92.98-1.5.14-2.19.46-2.45-.37-.36-1.31.3-1.31,1.04-2.66,2.23-4.05.05-.6.32-.65.8-.23,1.96,1.32,1.89,2.86,1.96,5.02Z"/>
      <path class="cls-103" d="M69.03,8.97c.06,2.03-.03,3.44-.8,5.32-.96-.06-1.23-.8-.83-1.94.23-.66.58-1.33.43-1.77-.22-.66-1.4-.35-1.87-.31-1.79.72-1.86,0-.04-.87,1.03-.2,2.07-.36,3.12-.44Z"/>
      <path class="cls-83" d="M67.08,3.95c-.27.06-.52.21-.8.23-.23.89-.56.89-.98.06-1.36-.66-2.51-1.69-3.11-3.09.44,0,.91-.16,1.35-.12,1.76.13,2.32,2.11,3.53,2.93Z"/>
      <path class="cls-138" d="M66.08,29.2c-.3,1.09-.89,2.08-1.78,2.78-1.1.58-2.15.72-3.29.41.12-1.01-.12-2.1.06-3.11.13-.74,1.04-1.26,1.12-2.05,1.53.04,2.82.92,3.89,1.97Z"/>
      <path class="cls-43" d="M62.24,35.09l.02,2.05h-2.07c-.03-.77-.31-2.19.48-2.78.36-.27,1.19.5,1.57.73Z"/>
      <path class="cls-76" d="M69.12,38.02c-.53.11-.93.58-.93,1.12-.75-.14-1.47-.44-2-1,2.61.32-1.19-2.61-.13-3.62,2.18.05,2.24,2.11,3.06,3.5Z"/>
      <path class="cls-17" d="M60.47,9.27c2.15.01,2.19.05,1.5,2.08.8,1.88.33,2.79-1.63,2.03-.7.3-1.42.1-2.13,0-.79,1.64-1.99,3.35-3.75,1.84.02-.94-.56-2.15-.27-3.07l4-2c-.45-1.48,1.13-1.72,2.28-.87Z"/>
      <path class="cls-57" d="M65.92,9.4c-.44.37-.62.69.04.87.53.57-.12,1.65-.77,1.87-.54,1.51-1.26,2.79-2.17,3.84-.22-.04-.48.13-.7.13-.56.76-1.17.36-1.83-1.21-.09-.5.13-1.05-.16-1.52.67-.57,1.24-1.24,1.63-2.03-.39-2.22.48-2.8,2.45-1.81.5-.03,1.01-.04,1.5-.14Z"/>
      <path class="cls-58" d="M58.21,13.37c-.46,1.87-.23,5.41-2.76,5.04-.96,1.69-1.91.37-1.26-1.28-.08-.61.25-1.31.27-1.93,1.09-.93,2.22-2.07,3.75-1.84Z"/>
      <path class="cls-87" d="M55.45,18.41l-.26,2.72c-1.81-.42-2.2-2.35-2-4,.32.07.67-.04,1,0,.08.58.89.94,1.26,1.28Z"/>
      <path class="cls-80" d="M62.32,16.11l-.13,3.03c-1.33-.96-1.43-2.72-1.69-4.24.72.2,1.35.63,1.83,1.21Z"/>
      <path class="cls-128" d="M65.19,12.14c0,1.44-.1,2.89.17,4.31-.81.02-1.56-.31-2.34-.47-.05-.96-.17-1.99.32-3.1.29-.65,1.16-.51,1.85-.74Z"/>
      <path class="cls-146" d="M47.18,28.25c2.07-1.37,3.28,2.36,1.96,3.94-2.22.58-4.27-1.23-6-2.36.81-1.45,2.51-1.68,4.05-1.59Z"/>
      <path class="cls-150" d="M49.19,27.14c.69,1.36,2.12,4.48-.05,5.05.22-1.65-.13-3.55-1.96-3.94v-1.17s2.01.06,2.01.06Z"/>
      <path class="cls-61" d="M59.19,8.14c.02-1.97.79-1.91,1.33.1,2.17-.08,2.18.72-.05,1.03-.85-.03-1.54.65-2.28.87l-4,2c-.32-.04-.68-.03-1,0v-2c.63-.08,1.43-.69,2-1,1.24-.67,2.56-1.12,4-1Z"/>
      <path class="cls-158" d="M62.98,5.32c1.96.13,1.86,1.05-.07,1.62.54,2.34-.42,2.61-2.39,1.3-.38-.21-.91-.06-1.33-.1-.03-.9-.35-1.86-.16-2.76,1.31-.07,2.63-.06,3.95-.05Z"/>
      <path class="cls-73" d="M64.05,8.23c-1.86,2.14-3.21.63-1.14-1.29-.12-.51.07-1.1.07-1.62.85,0,1.67-.63,2.32-1.09l.98-.06c.27.78,1.05,1.68.82,2.34-.42,1.22-2.03,1.65-3.05,1.71Z"/>
      <path class="cls-9" d="M62.91,6.94c.12.47.47,1.6,1.14,1.29-.46.53-.04.92.36,1.31-.31,1.1-1.44,1.5-2.45,1.81-.98-.23-1.51-1.11-1.5-2.08.42-.31.59-.73.05-1.03.68-.63,1.5-1.06,2.39-1.3Z"/>
      <path class="cls-145" d="M58.19,10.14c-.5,1.73-2.36,2.18-4,2,.52-1.64,2.62-1.58,4-2Z"/>
    </g>
  </g>
</svg>