<?xml version="1.0" encoding="UTF-8"?>
<svg id="Enemy" xmlns="http://www.w3.org/2000/svg" viewBox="0 0 133.92 73.2">
  <defs>
    <style>
      .cls-1 {
        fill: #684223;
      }

      .cls-2 {
        fill: #3c2c25;
      }

      .cls-3 {
        fill: #725035;
      }

      .cls-4 {
        fill: #966656;
      }

      .cls-5 {
        fill: #1b212e;
      }

      .cls-6 {
        fill: #a67c57;
      }

      .cls-7 {
        fill: #291e1e;
      }

      .cls-8 {
        fill: #936d51;
      }

      .cls-9 {
        fill: #763d24;
      }

      .cls-10 {
        fill: #785551;
      }

      .cls-11 {
        fill: #735345;
      }

      .cls-12 {
        fill: #383f57;
      }

      .cls-13 {
        fill: #926361;
      }

      .cls-14 {
        fill: #4d5770;
      }

      .cls-15 {
        fill: #5e260f;
      }

      .cls-16 {
        fill: #252e42;
      }

      .cls-17 {
        fill: #a66343;
      }

      .cls-18 {
        fill: #534236;
      }

      .cls-19 {
        fill: #855629;
      }

      .cls-20 {
        fill: #3f3f3d;
      }

      .cls-21 {
        fill: #141823;
      }

      .cls-22 {
        fill: #834422;
      }

      .cls-23 {
        fill: #161c30;
      }

      .cls-24 {
        fill: #8e665d;
      }

      .cls-25 {
        fill: #4b2b16;
      }

      .cls-26 {
        fill: #7f5b4d;
      }

      .cls-27 {
        fill: #be968d;
      }

      .cls-28 {
        fill: #af8463;
      }

      .cls-29 {
        fill: #1d212d;
      }

      .cls-30 {
        fill: #7a573a;
      }

      .cls-31 {
        fill: #422410;
      }

      .cls-32 {
        fill: #725032;
      }

      .cls-33 {
        fill: #242b3d;
      }

      .cls-34 {
        fill: #2f333e;
      }

      .cls-35 {
        fill: #292c35;
      }

      .cls-36 {
        fill: #40434f;
      }

      .cls-37 {
        fill: #8c5c47;
      }

      .cls-38 {
        fill: #6a381a;
      }

      .cls-39 {
        fill: #262626;
      }

      .cls-40 {
        fill: #b2836c;
      }

      .cls-41 {
        fill: #b97965;
      }

      .cls-42 {
        fill: #e19d89;
      }

      .cls-43 {
        fill: #ab6f5e;
      }

      .cls-44 {
        fill: #744735;
      }

      .cls-45 {
        fill: #d7ad8c;
      }

      .cls-46 {
        fill: #43291b;
      }

      .cls-47 {
        fill: #252c3f;
      }

      .cls-48 {
        fill: #654b38;
      }

      .cls-49 {
        fill: #41485b;
      }

      .cls-50 {
        fill: #703e26;
      }

      .cls-51 {
        fill: #7d5e45;
      }

      .cls-52 {
        fill: #1d232c;
      }

      .cls-53 {
        fill: #485269;
      }

      .cls-54 {
        fill: #de9a8d;
      }

      .cls-55 {
        fill: #2d323c;
      }

      .cls-56 {
        fill: #8e523f;
      }

      .cls-57 {
        fill: #e3a48a;
      }

      .cls-58 {
        fill: #de937c;
      }

      .cls-59 {
        fill: #475166;
      }

      .cls-60 {
        fill: #c08c65;
      }

      .cls-61 {
        fill: #c4835a;
      }

      .cls-62 {
        fill: #352213;
      }

      .cls-63 {
        fill: #26252c;
      }

      .cls-64 {
        fill: #3a3940;
      }

      .cls-65 {
        fill: #d4c9c6;
      }

      .cls-66 {
        fill: #775233;
      }

      .cls-67 {
        fill: #ae7667;
      }

      .cls-68 {
        fill: #915a34;
      }

      .cls-69 {
        fill: #885b4b;
      }

      .cls-70 {
        fill: #1e2234;
      }

      .cls-71 {
        fill: #6b4220;
      }

      .cls-72 {
        fill: #323231;
      }

      .cls-73 {
        fill: #552b1b;
      }

      .cls-74 {
        fill: #885b4f;
      }

      .cls-75 {
        fill: #6d4c38;
      }

      .cls-76 {
        fill: #352115;
      }

      .cls-77 {
        fill: #4c3422;
      }

      .cls-78 {
        fill: #313750;
      }

      .cls-79 {
        fill: #1f1e1e;
      }

      .cls-80 {
        fill: #ca8c79;
      }

      .cls-81 {
        fill: #8d6345;
      }

      .cls-82 {
        fill: #89584c;
      }

      .cls-83 {
        fill: #4b2c21;
      }

      .cls-84 {
        fill: #27211f;
      }

      .cls-85 {
        fill: #543423;
      }

      .cls-86 {
        fill: #99795b;
      }

      .cls-87 {
        fill: #893f23;
      }

      .cls-88 {
        fill: #9e6556;
      }

      .cls-89 {
        fill: #663925;
      }

      .cls-90 {
        fill: #844930;
      }

      .cls-91 {
        fill: #774c3f;
      }

      .cls-92 {
        fill: #b1835a;
      }

      .cls-93 {
        fill: #8f5a49;
      }

      .cls-94 {
        fill: #835f40;
      }

      .cls-95 {
        fill: #54596e;
      }

      .cls-96 {
        fill: #773b2c;
      }

      .cls-97 {
        fill: #393f4b;
      }

      .cls-98 {
        fill: #9d7554;
      }

      .cls-99 {
        fill: #262624;
      }

      .cls-100 {
        fill: #3f485d;
      }

      .cls-101 {
        fill: #875c38;
      }

      .cls-102 {
        fill: #ebaa90;
      }

      .cls-103 {
        fill: #ad9988;
      }

      .cls-104 {
        fill: #424656;
      }

      .cls-105 {
        fill: #896140;
      }

      .cls-106 {
        fill: #483524;
      }

      .cls-107 {
        fill: #171823;
      }

      .cls-108 {
        fill: #282f48;
      }

      .cls-109 {
        fill: #363734;
      }

      .cls-110 {
        fill: #b97f6d;
      }

      .cls-111 {
        fill: #61432a;
      }

      .cls-112 {
        fill: #2f1e10;
      }

      .cls-113 {
        fill: #2f3248;
      }

      .cls-114 {
        fill: #56321d;
      }

      .cls-115 {
        fill: #343c4f;
      }

      .cls-116 {
        fill: #bc7e6b;
      }

      .cls-117 {
        fill: #e9a590;
      }

      .cls-118 {
        fill: #522f14;
      }

      .cls-119 {
        fill: #1e0c04;
      }

      .cls-120 {
        fill: #171d2d;
      }

      .cls-121 {
        fill: #66503c;
      }

      .cls-122 {
        fill: #3b3e58;
      }

      .cls-123 {
        fill: #705a41;
      }

      .cls-124 {
        fill: #272e36;
      }

      .cls-125 {
        fill: #303448;
      }

      .cls-126 {
        fill: #aa7d57;
      }

      .cls-127 {
        fill: #2b282b;
      }

      .cls-128 {
        fill: #af6e5b;
      }

      .cls-129 {
        fill: #c9927e;
      }

      .cls-130 {
        fill: #876141;
      }

      .cls-131 {
        fill: #6b4320;
      }

      .cls-132 {
        fill: #643a28;
      }

      .cls-133 {
        fill: #a3756e;
      }

      .cls-134 {
        fill: #191e28;
      }

      .cls-135 {
        fill: #dac9c3;
      }

      .cls-136 {
        fill: #592107;
      }

      .cls-137 {
        fill: #a07269;
      }

      .cls-138 {
        fill: #ce8574;
      }

      .cls-139 {
        fill: #593a26;
      }

      .cls-140 {
        fill: #2f354a;
      }

      .cls-141 {
        fill: #a7856a;
      }

      .cls-142 {
        fill: #3c1409;
      }

      .cls-143 {
        fill: #b56f59;
      }

      .cls-144 {
        fill: #543f2a;
      }

      .cls-145 {
        fill: #975028;
      }

      .cls-146 {
        fill: #f5b09c;
      }

      .cls-147 {
        fill: #1e0200;
      }

      .cls-148 {
        fill: #444b63;
      }

      .cls-149 {
        fill: #c98f7d;
      }

      .cls-150 {
        fill: #cf8f7c;
      }

      .cls-151 {
        fill: #5e3c2f;
      }

      .cls-152 {
        fill: #2a3144;
      }

      .cls-153 {
        fill: #1d0e0a;
      }

      .cls-154 {
        fill: #bb8172;
      }

      .cls-155 {
        fill: #644020;
      }

      .cls-156 {
        fill: #d6927e;
      }

      .cls-157 {
        fill: #c28273;
      }

      .cls-158 {
        fill: #8d4f34;
      }

      .cls-159 {
        fill: #8e6d58;
      }

      .cls-160 {
        fill: #4d5671;
      }

      .cls-161 {
        fill: #ce8978;
      }

      .cls-162 {
        fill: #836242;
      }
    </style>
  </defs>
  <g id="NunChuckLarry">
    <path class="cls-65" d="M36.77,2.95c1.56-.98,1.67-.6.33,1.16,2.88-.52,3.08,1.35.68,2.87l.3,1.11c-1.38.29-2.6.98-3.68,2.06.25,2.16-.6,2.26-1.32.17-1.55.53-3.58-.53-3.89-2.15.28-1.84-.78-4.35.57-4.74,2.36-.69,4.46-.72,5.59,1.39.37-.77.86-1.32,1.42-1.88Z"/>
    <g>
      <path class="cls-81" d="M117.52,23.15c-.88-.25-.88-.59-.03-1,.03-1.86,2.34-2.37,3.87-2.07.06-1.35,1.41-1.42,4.05-.21,1.94.19,1.35,3.73.18,5.06-2.87.71-6.07-.03-9,.25l-1.04.1c.05-.83.7-1.54,1.97-2.14Z"/>
      <path class="cls-77" d="M124.27,15.91c.76-1.6,1.45-.95,2.07,1.93,1.72,1.72,2.11,6.38-.75,7.09l-.18-5.06c-2.26-.21-3.29-.84-3.07-1.89-.36-1.35.62-1.82,1.93-2.07Z"/>
      <path class="cls-48" d="M125.17,12.87c-1.62-.7-.91-2.12.75-2.03-1.68-2.59-3.73-5.89,1.01-4.95,1.41.61,1.76,2.24,1.05,4.9-.85,1.23-1.6,2.68-1.61,4.17l-.03,2.87-2.07-1.93c-.89-.19-.88-.53-.03-1-1.57-.28-1.26-.96.93-2.03Z"/>
      <path class="cls-55" d="M83.56,31.08c2-2.88,5.07-4.25,7.28-1.09,2.65.54,5.19,2.09,8.03,1.84,1.63-.36,4.33,2.42,4.59,4l-.04.9c.68,1.84,0,2.27-1.36.85-2.37.35-4.84-.77-7.43-3.36-3.28-.9-6.61-1.12-9.98-.66-.24.86-.53.82-.85-.06-.89-.19-1.22-.57-.97-1.15-2.28-.05-1.11-1.37.73-1.28Z"/>
      <path class="cls-75" d="M120.47,57.76c7.77,2.47,9.63-7.98,12.21-5.85.69.57.4,1.95.78,2.66.21,1.46-.42,1.71-1.09.35-.79,3.27-2.23,7.14-6.19,5.01-.82,2.4-1.95,2.41-3.37.04-.24.89-.57.89-1,.05-1.19,1.41-1.55.68-2.13-.93-1.91.39-1.99-.39-.13-1.19.08-.9.39-.92.91-.13Z"/>
      <path class="cls-36" d="M106.44,45.55c-.97-.85-1.71-2.45-.32-2.94-.23-.81.06-1.14.89-1,1.05,1.1,2.01,2.2,2.51,3.72.5,1.37.5,2.39,0,3.05,1.42,2.86-.85,2.91-3.18,2.45-1.91-.23-1.85-.97.09-1.27-2.36-2.3-2.36-3.64,0-4Z"/>
      <path class="cls-62" d="M109.52,45.32c.29.32.83.45,1.09.79,1.29,1.64,2.3,3.62,3.73,5.16,1.65,2.32,2.01,3.63-.86,2.1-1.52.25-4.72-3.48-3.96-5-.41-.5-.4-1.33-.82-1.73-.75-.71-.04-1.34.81-1.32Z"/>
      <path class="cls-144" d="M116.89,54.45c.64,1.01,2.54,1.48,3.41,2.3-.03.33.16.68.16,1.02-.27-.08-.63.17-.91.13-1.96,2.38-5.56-.11-3.84-2.82.05-1.29.45-1.5,1.18-.62Z"/>
      <path class="cls-124" d="M104.37,40.59c-1.21-.93-.87-1.51.66-.99.74.53,1.37,1.34,1.99,1.99-.16.44-.49.77-.89,1-1.22,1.33-3.24-.75-1.76-2.01Z"/>
      <path class="cls-34" d="M103.42,36.73c1.32.31.93,2.15,1.6,2.87l-.66.99c-2.7,2.02-4.46-.62-2.31-3.01l1.36-.85Z"/>
      <path class="cls-8" d="M122.12,6.99c-1.62-.66-1.1-2.06.02-2.94,1.07-.73,2.32-1.36,3.68-1.21,2.53,1.43,2.9,2.44,1.12,3.05-1.63.9-.89,3.33-1.01,4.95-1.34,1.33-2.62,1.75-3.84,1.25-1.43-.78-.57-3.62.03-5.11Z"/>
      <path class="cls-123" d="M120.81,10c.19-.8.17-2.26-.11-3,.04-1.93.8-1.91,1.42-.01.51,1.58-.2,3.47-.03,5.11.89.08.9.36.08.81,1.13,1.08.82,1.78-.92,2.1.29,1.84-.76,1.82-3.15-.07-.3-1.95,2.26-3.05,2.71-4.94Z"/>
      <path class="cls-111" d="M102.46,23.62c.37-2.69,3.12-2.72,4.94-1.06,1.33-.69,2.71-1.13,4.09-.2,1.89-.48,4.74-.77,6.03.79,1.68,0,3.61-.8,5.22.6-3.39.24-5.14.19-7.18,1.53-1.89,1.24-4.72,1.72-6.88,2.18-2.39-.15-4.1-.77-5.11-1.86-1.56,1.13-1.99.76-.98-.97-.93-.12-.96-.47-.14-1.01Z"/>
      <path class="cls-63" d="M93.6,24.83c.26-1.26.83-.94,1.73-.09,2.24-.63,4.66-.67,7.26-.11.14.42.54.86.98.97.73.74.28,1.38-1.35,1.94-.64.13-.48.57,0,.71-2.92.07-5.89.11-8.59-1.11-2.76-.1-2.64-1.56-.05-2.3Z"/>
      <path class="cls-112" d="M103.58,25.6c1.78.41,3.84.43,5.11,1.86-2.07.44-4.37-.02-6.46.07-.81-.95,1.13-1.2,1.35-1.94Z"/>
      <path class="cls-6" d="M116.38,19.18c1.43-1.01,5.34-1.2,4.98.89-.62,1.56-2.33,1.97-3.87,2.07-1.12.82-1.6.36-1.03-.96-2.66-.11-2.68-.77-.07-2Z"/>
      <path class="cls-1" d="M120.35,18.05c.25-.88.59-.88,1-.03.25-.88.59-.88,1-.03.94.78,2.3.86,3.07,1.89l-4.05.21c-1.27-1.29-3.27-1.19-4.98-.89-.88-.25-.88-.59-.03-1-.12-1.67,3.09-1.43,4-.14Z"/>
      <path class="cls-130" d="M116.45,21.18l1.03.96.03,1c-2.05.01-4.04-.17-6.03-.79-1.44-1.71,4.27-2.48,4.96-1.17Z"/>
      <path class="cls-30" d="M121.24,15.01c.43-1.17,2.44-1.08,3-.1-.14.27.11.7.03,1,.11.65.09,1.53-.52,1.87-.44.24-.99.21-1.4.2l-1,.03c-.98-1.05-2.31-2.76-.1-3Z"/>
      <path class="cls-60" d="M122.08,12.1c1.24-.39,1.36-1.59,2.18-3.35.84.77.94,1.65,1.66,2.1-.07.83-.19,1.4-.75,2.03-1.15,1.67-4.02,2.37-3,.04l-.08-.81Z"/>
      <path class="cls-8" d="M122.17,12.91c-.09,1.06.7.92,1.13.67.76-.44,1.33-.52,1.87-.71-.48.54-.61,1.4-.93,2.03l-3,.1c-.03-.78.46-1.51.92-2.1Z"/>
      <path class="cls-18" d="M118.9,69.22c.94-1.95,2.7-1.21,3.07.76.35-1.13.66-2.29.91-3.5l2.36-.56c.05-2.43,2.19-3.89,6.43-4.39,1.24-2.45,1.43-2.58,2.17.16l.06.8c.24,2.12-1.72,3.75-5.89,4.88-1.42,3.71-3.31,5.65-5.69,5.83-.2-.16-.63,0-.87-.11-1.65-.87-2.26-2.74-3.41-4.04.32-.83.61-.75.85.17Z"/>
      <path class="cls-31" d="M132.38,54.92c.39-.18.56-.74,1.09-.35.47,2.34.21,4.75.38,7.11l-2.17-.16c-2.02-1.37-.61-4.82.71-6.6Z"/>
      <path class="cls-106" d="M114.34,51.27c.97,1.05,1.87,1.84,2.55,3.17.78,1.08-.74.65-1.18.62-1.68,2.45-3.78.97-2.22-1.7.37-.12.91-.38,1.11-.79.19-.4-.06-.96-.25-1.31Z"/>
      <path class="cls-108" d="M61.37,32.79l.09-2.73c1.77-2.54,6.2-7.36,9.07-7.25.5-2.14,5.48-4.37,7.65-4.29,2.25.24,2.94-.4,2.07-1.92,2.2-1.02,15.18-.41,16.54.65.79.62.57,1.61-.14,2.49-.07,3.19-4.04,2.22-5.25.33-5.56.41-9.2.72-12.86,5.44,4.78-.94,3.81,1.31,1.09,4.3.65,1.29,1.71,2.14,3.19,2.56.22.41.86.62.97,1.15-2.82,1.97-9.51,2.97-12.97,2.38.18,2.99-.95,3.09-2.68.79-1.09-.3-2.51-.87-4.24-1.71-1.79,2.65-3.58,1.7-2.38-1.26-1.19-.06-1.26-.41-.15-.92Z"/>
      <path class="cls-49" d="M102.06,37.59c.8.89.86,2.59,2.31,3.01.65.19.67,2.06,1.76,2.01.32.77.33,2.08.32,2.94-.13,1.73-.7,1.79-1.14.04l-5.11-2.95c-2.32-.26-6.19-3.32-7.12-5.38-2.32-.88-4.84-1.42-7.56-1.61l-.78-1.1c-.89-.2-.91-.52-.09-.97,5.77-3.77,12.9-1.02,17.41,4.02Z"/>
      <path class="cls-33" d="M78.54,25.5c1.72-2.76,3.34-3.49,4.85-2.18,2.06-1.23,5.4-2.04,5.14.83-.52.58-1.52.97-2.99,1.17l.25.96c-2.36,1.46-3.13,2.76-2.3,3.92.89.14.88.44.05.88-.48.18-1.06.68-.73,1.28l-12.46.52c3.38-1.77,6.99-.55,8.17-4.59.18-.62,2.79-.89,1.55-1.75-.37-.26-1.12-.62-1.54-1.04Z"/>
      <path class="cls-59" d="M70.82,35.89c3.69-2.63,8.57-2.68,12.97-2.38l.85.06.09.97c1.36,1.46.84,2.03-.93,1,.19,4.86-17.36,6.32-12.99.35Z"/>
      <path class="cls-66" d="M110.55,55.28c-.25-3.12.73-3.76,2.94-1.91.27,1.05,1.72,1.05,2.22,1.7,1.01,1.3,2.09,2.58,3.84,2.82l.13,1.19c.95.91,1.59,4.13-.1,3.92-2.56-.68-5.16-2.22-7.77-4.62-1.68-.91-3.32-2.11-1.27-3.1Z"/>
      <path class="cls-19" d="M122.88,61.98c-.84-.67-1.01-1.34-.07-2.02,1.12-.06,2.25-.09,3.37-.04,3.31-.59,5.14-.05,5.49,1.6-1.3,2.46-4.09,2.86-6.43,4.39-1.15,2.8-3.83.17-4.28-1.75-1.21-1.35-.58-2.07,1.92-2.19Z"/>
      <path class="cls-92" d="M132.38,54.92c.76,2.43.4,4.51-.71,6.6-1.96-.14-4.51.46-5.49-1.6,4.3-.42,1.84-2.93,6.19-5.01Z"/>
      <path class="cls-28" d="M119.68,59.08c.77.14,1.51.44,2.13.93l1.07,1.96c-.72.59-1.42,1.36-1.92,2.19-.72,1.76-1.48,1.58-1.4-.35-.87-.2-.84-.47.03-.81.24-1.3.24-2.61.1-3.92Z"/>
      <path class="cls-45" d="M121.81,60.02l1-.05c.16.37.74.95.94,1.49.09.24-.67.37-.87.53l-1.47.06c-.47.02-.69-.81-.59-1.42.05-.34.42-.72.99-.61Z"/>
      <path class="cls-148" d="M102.92,47.25c1.94-.27,2.34,1.06,1.1.66-1.8-.58,2.17-2.86,2.41,1.63.03.42-.09.85-.09,1.27.9.12.83.38-.09.76.15,2.67-.8,2.72-2.01.36-1.89,3.74-6.35.06-6.81-3.11-1.03-.38-1.71-1.39-2.05-3.05-.92.3-1.25-.02-.99-.95-2.46-.28-2.86-2.07-1.2-3.84-.62-2.22-.06-3.06,1.94-1.85,2.61,2.77,5.21,5.48,7.78,8.12Z"/>
      <path class="cls-155" d="M106.35,50.82c1.6.17,1.77-2.11,3.18-2.45,1.37,1.65,3.4,2.84,3.96,5-1.14.37-2.11,1.07-2.94,1.91-1.15.3-1.82-.32-2.01-1.85l-2.2-.96c-.95-.07-.94-.37-.07-.9-.03-.25.09-.51.09-.76Z"/>
      <path class="cls-160" d="M103.3,45.66c-.21-1.97.93-1.49,2-.07l1.14-.04c-.01,1.33-.1,2.67,0,4-.5-.21-.81-1.49-1.45-1.38-.46.08-.81,1.25-1.21,1.18-.71-.57-.62-1.54-.85-2.11-2.91-1.52-2.66-3.12.38-1.59Z"/>
      <path class="cls-47" d="M89.22,12.11c3.63.24,7.34.96,10.86,1.8l2.19.52c-.97,2.38-2.28,4.44-3.91,6.16-1.19,1.68-2.01,1.24-1.7-.85,1.24-1.72-11.15-.87-15.56-2.4.34,1.7,1.97.85,2.65,1.58-2.54,1.19-3.96-.21-5.57-.4.68-.62.06-.96-1.87-1.04-1.42.21-2.1-.07-2.03-.82-.85-.38-.84-.75.02-1.09l.88-2.2c2.75-1.38,13.06-4.97,14.05-1.25Z"/>
      <path class="cls-3" d="M102.26,14.42c1.98-.38,3.96-.21,5.95.02l5.03.85,4.85-.35c1.76.15,1.84.49.18,1.18.17,1.58-2.59,1.54-3,.1l-.55,1.28c-2.83-.3-5.04-.09-6.64.64-.13.49-.43.5-.86.14-1.7,1.46-3.96,1.76-4.91-.62-3.1.35-2.61-2-.05-3.23Z"/>
      <path class="cls-51" d="M113.25,15.29c-1.65.12-4.06.85-5.03-.85,1.66.19,4.03-.92,5.03.85Z"/>
      <path class="cls-86" d="M121.24,15.01l.1,3-1,.03c-.98-.35-2.02-.87-2.07-1.93l-.18-1.18,3.15.07Z"/>
      <path class="cls-5" d="M88.54,24.16c.75-1.7,4.28-.82,5.06.67l.05,2.3-3-.04c-.55-.52-1.28-.79-2.02-.91-1.56.11-2.58-.18-3.07-.86.87-.75,1.65-1.49,2.99-1.17Z"/>
      <path class="cls-113" d="M91.4,20.06l5.25-.33c.47.45,1.14.56,1.7.85,1.71-2.01,3-1.36,3.89,1.95.92.14.98.51.21,1.08.07.33.03.7.14,1.01-.9,1.12-2.05,2.05-3.12,1.89-1.83-.27-3.09-.79-4.14-1.79-2.15-.63-4.22-1.34-6.2-2.13l.3-1.48c-.06-.52.6-.87,1.96-1.07Z"/>
      <path class="cls-130" d="M102.31,17.65c1.59-.32,3.72-.79,4.91.62l6.08.84.11,1.17c-.94.93-2.96,2.06-3,.1-1.81.2-2.82.92-3.02,2.17-1.46,1.04-3.22,1.1-4.94,1.06l-.21-1.08c-2.61-1.84-3.06-3.64.07-4.88Z"/>
      <path class="cls-105" d="M110.42,20.39l3-.1c-.25-1.35,1.77-1.62,2.96-1.1l.07,2c-1.86.06-3.77-.42-4.96,1.17-.79,1.06.1,1.71-.2,2.55-.25.73-1.45-1.2-2.23.49-.45-1.04.3-1.88.02-2.42-.3-.59-1.3-.48-1.69-.41-.68-.99.33-1.72,3.02-2.17Z"/>
      <path class="cls-108" d="M89.44,21.13c1.7,1.77,4.61.69,5.9,3.61l-1.73.09c-1.48.08-3.71.22-5.06-.67-1.58-1.05-3.16-1.38-5.14-.83-1.68-2.98,3.81-3.63,6.04-2.2Z"/>
      <path class="cls-118" d="M108.09,18.14c1.69-1.29,5.41-.83,7.26.08.25-.88.59-.88,1-.03l.03,1c-.81.14-2.08,1.47-2.96,1.1-1.88-1.56-4.53-.04-6.19-2.01.28,0,.59-.17.86-.14Z"/>
      <path class="cls-141" d="M115.28,16.22l3-.1c.43.04.87.11,1.28.31.58.29.81.97.79,1.62l-4,.14-1,.03c-2.66-.1-2.69-.77-.07-2Z"/>
      <path class="cls-32" d="M115.78,66.24c.45-1.17,1.46-1.94,3.04-2.31-.15-.94.11-.95.74-.12l1.4.35c1.49.37,2.68,1.68,4.28,1.75-.46,1.75-1.63,3.27-3.27,4.06-.9-1.62-1.92-1.87-3.07-.76-.25-.12-.59-.08-.85-.17-.74-.84-2.55-1.13-2.27-2.8Z"/>
      <path class="cls-121" d="M112.71,62.5c1.88-.83,6.41,2.87,3.07,3.74-3.33-1.26-6.27-3.51-9.86-3.85-.39-.51-.67-1.19-1.2-1.58-.64-3.86,7.55-2.08,7.98,1.7Z"/>
      <path class="cls-159" d="M121.97,69.98c-1.09.11-2.1-.31-3.07-.76-.2-.99-.04-2.17,1.06-2.67.94-.43,1.87.48,2.29,1.12s.15,1.8-.28,2.3Z"/>
      <path class="cls-14" d="M63.07,40.04c1.84-.84,3.53-1.96,5.07-3.36.78-.37,1.97-.29,2.68-.79-.79,4.01,10.66.62,12.99-.35.39-.17.77-.3,1.13-.27,1.84.16,6.27.61,6.42,1.82.08.65.09,1.27-.13,1.8-4.88.75-9.56,2.02-14.05,3.79l.05,2.29c-5.6,1.16-10.82,2.9-15.67,5.23.83,1.88-.68,2.39-1.87.8-.49-.13-.46-.46-.09-.92-1.31-.16-1.01-.86-.25-1.9-2,.41-2.84-.05-1.25-1.28-2.38-4.22-1.76-6.02,1.86-5.39l3.1-1.48Z"/>
      <path class="cls-152" d="M53.69,32.87c-1.02-3.13.91-4.08,2.99-1.71,1.24-1.6,2.28-1.25,3.13,1.05l1.72,1.49c.57.74,1.42,1.23,2.38,1.26,1.05-.02,1.74.64,2.07,1.99.99,1.68-1.3,2.6-2.9,3.09-3.37,2.33-9.25,3.44-8.85-1.87-1.18-.79-1.81-2.29-1.39-3.7-1.52-1.06-.99-1.72.85-1.6Z"/>
      <path class="cls-100" d="M68.38,19.72c.18-.92.56-.9,1.1-.04,2.64.03,2.69,1.35,1.04,3.12-2.95,3.33-5.66,7.14-9.15,9.98-3.94-.37-3.06-4.28-.81-6.92l7.81-6.14Z"/>
      <path class="cls-97" d="M59.56,25.11c0-3.24,6.45-8.54,8.81-5.39,1.22,1.73-8.73,6.56-8.46,9.7.09,1.05.56,2.52,1.46,3.36-.63.51-.32.47.15.92-2.02.51-3.12-1.77-4.85-2.54-2.9-.95.07-6.84,2.89-6.05Z"/>
      <path class="cls-78" d="M91.4,20.06c-.53.43-1.22,1.06-1.96,1.07-2.23.02-4.59.36-6.04,2.2-1.71.53-3.06,1.84-4.85,2.18.79-4.2,4.57-7.13,9.28-5.72,1.3.39,2.56.31,3.58.28Z"/>
      <path class="cls-115" d="M69.48,19.69c-.98-1.17-.45-1.67.86-.89,2-.97,3.99-1.4,5.96-1.32,1.5-.32,2.98-2.21,4.6.21-1.83.41-1.81.05-2.74.82-2.39,1.98-4.8,4.04-7.65,4.29-.81-.82-1-2-1.04-3.12Z"/>
      <path class="cls-23" d="M63.9,34.96c.83.03,1.59-.05,2.52-.08.98-.03,2.27.38,1.72,1.8-.92,1.06-1.58,1.7-2.17.27-.66.12-1.56.09-1.87-.53-.24-.49-.21-1.04-.2-1.46Z"/>
      <path class="cls-53" d="M83.81,35.54c.4-.17.64-.7.93-1,3.07-.23,6.2.33,9.52,1.24,2.57,5.55,3.94,1.73,5.94,6.85,2.39.51,3.42,1.52,3.11,3.02-.29-.17-.79.15-.95.5-.15.33.28.79.57,1.09-9.39-2.97-6.52-9.28-9.72-6.27-1.72,2.11-3.2,1.69-3.98-.84-3.64,1.04-7.11,2.43-10.42,4.18l-1.62-1.63c5.24-4.18,11.08-1.77,13.18-6.08-3.16.91-4.59.8-6.56-1.06Z"/>
      <path class="cls-148" d="M105.3,45.59l-2,.07c-1.06-1-2.56-1.61-3.11-3.02,2.38-.62,4.61.48,5.11,2.95Z"/>
      <path class="cls-21" d="M85.55,25.32c1.11-.2,2.34-.09,3.07.86-2.31.33-4.22,1.88-5.11,4.02-.98-.11-1.41.91-2.8,1.14.93-2.87,2.98-4.41,4.85-6.02Z"/>
      <path class="cls-71" d="M119.59,63.01l-.03.81c-.26-.07-.52-.02-.74.12-1.38,2.91-4.41-1.08-5.04-2.8-1.92.78-3.57-.98-1.97-2.75,3.29.06,5.36,2.66,7.77,4.62Z"/>
      <path class="cls-131" d="M110.55,55.28c.25,1.04.56,2.27,1.27,3.1-1.27,2.32-4.86.73-4.13-1.88-.87-.24-.87-.58-.03-1-.31-2.86,1.99-2.85,2.9-.23Z"/>
      <path class="cls-16" d="M81.46,45.43c-.6-.91-.87-2.2-.15-2.52,2.6-1.14,5.19-2.02,7.91-2.77,1.35-.24,2.77.35,3.98.84.78,1.13,1.51,2.45,1.2,3.84.65,2.5-.02,2.62-2.1,1.22.04,2.67-.91,2.59-1.86.12-1.44.03-2.84.38-4.19,1.04-4.45,4.15-11.36,1.29-2.59-1.61-.92.57-1.78,1-2.21-.15Z"/>
      <path class="cls-122" d="M97.45,48.82l3.37,1.64c.84.41.77,2.07,1.69,1.88.62-.12,1.2-.31,1.75-.41,1.66.9,1.47,2.11-.38,2.47.72,1.95-1.33,2.09-2.29.52-.91,1.05-2.23.74-3.96-.94-.96,0-1.03-.33-.27-.98-.51-1.37-.96-3.2.09-4.18Z"/>
      <path class="cls-126" d="M104.26,51.94l2.01-.36c.03.28-.04.64.07.9,2.66-.69,3.39,1.39,1.31,3.03.12.29-.04.69.03,1,2.01,3.49-3.58,3.92-2.74.93-1.32-.7-1.55-1.83-1.07-3.03-.15-.78.03-1.75.38-2.47Z"/>
      <path class="cls-120" d="M94.41,44.82c.3.34.72.59.99.95,1.33,2.1,1.7,4.14,1.11,6.13-2.74,3.37-5.47-3.2-4.21-5.86.59-.58,1.32-.96,2.1-1.22Z"/>
      <path class="cls-125" d="M95.4,45.77c.69.92,1.79,1.87,2.05,3.05.3,1.34-.19,2.83-.09,4.18-1.61,1.14-2.04.5-.85-1.1-.17-2.08-1.15-4.01-1.11-6.13Z"/>
      <path class="cls-101" d="M110.55,55.28l-2.9.23-1.31-3.03c.79-.76,2.35-1.47,3.6-.84,1.09.55.36,2.6.61,3.65Z"/>
      <path class="cls-94" d="M101.74,56.71c.92-1.7,2.9-1.26,3.21.72.36.07.74.97,1.22.68.64-.39.97-1.11,1.52-1.61,1.43.76,2.51,1.85,4.13,1.88.66.78,1.09,2.19,1.97,2.75,1.17,1.52.68,2.14-1.08,1.37-2.63-.92-5.58-3.65-7.98-1.7-.56-.41-1.21-.89-1.87-1.11-1.05-.35-1.21-1.57-1.92-2.2-.25-.79.02-1.05.8-.78Z"/>
      <path class="cls-127" d="M102.26,14.42c-1.26.83.34,2.26.05,3.23-.47,1.59-.39,3.23-.07,4.88-1.38-.48-2.61-1.28-3.89-1.95-.07-1.49-.43-3.19.67-4.6.73-.94,2.03-1.07,3.24-1.56Z"/>
      <path class="cls-29" d="M74.27,16.65c.69-.2,1.48.51,2.03.82-2.09.32-3.73,2.63-5.96,1.32-.9-.16-.93-.48-.13-.96l4.05-1.18Z"/>
      <path class="cls-51" d="M115.28,16.22l.07,2c-2.42.08-4.85.25-7.26-.08-.66-3.84,5.56.27,7.19-1.92Z"/>
      <path class="cls-98" d="M110.42,20.39l-3.02,2.17c-.94.19-1.33-1.09-.8-1.81,1.35-.62,2.72-.19,3.83-.36Z"/>
      <path class="cls-159" d="M113.78,61.13c1.69,1.06,2.98,3.12,5.04,2.8.01.68,0,1.77-.53,2.03-.78.38-1.9.51-2.51.28.31-1.88-1.37-3.14-3.07-3.74.32-.48.68-.94,1.08-1.37Z"/>
      <path class="cls-12" d="M77.19,42.68c8.18-2.22,5.22-1.33,12.03-2.54-2.92,1.58-6.22,2.12-7.76,5.29.01,2.13-2.59,4.63-3.99,1.27-2.17,1.97-6.22,2.15-9.19,2.19.5,2.75-5.05,3.18-6.71,1.32.22-1.44-.67-2.79.02-5.08.75.08,1.54,2.6,2.77,2.14,4.44-1.68,9.45-1.89,12.82-4.58Z"/>
      <path class="cls-104" d="M51.46,48.29c-1.7-1.47-2.36-3.52-.13-4.86-1.58-2.79-1.36-4.71.65-5.75.32-2.19,2.21-1.58,2.24.5l3.45,2.08c1.49.9,3.72-.62,5.4-.21-1.17,1.61-2.46,3.18-4.99,2.79.04,2.5.75,3.81,1.27,5.36-.17,3.98-6.61,5.07-3.96,1.14l-.92-1.69c1.38-.32,1.98-1.11,1.8-2.37-1.1.3-2.07.7-2.92,1.62,2.82-.73,2.83.47,1.04,2.48.75,1.36.61,1.98-1.13,2.12-.21,1.74-1.5,1.61-2.04.08-.89-.1-.87-.38-.03-.82-2.61-.81-2.39-1.83.26-2.46Z"/>
      <path class="cls-70" d="M59.7,51.01c.59-.31,1.31-.44,1.87-.8,1.91-1.24,4.84-.4,6.71-1.32,1.77-.49,2.45-.18,2.03.92,1.25,3.69-8.28,5.61-10.78,3.37-2-.14-1.23-1.11.16-2.18Z"/>
      <path class="cls-35" d="M51.24,51.57c.64-.17,1.39.04,2.04-.08l.92-.96c1.48,1.59,3.28,1.44,5.42-.44.07.29.11.63.09.92l-.16,2.18c-.65.98-2.21,1.45-4.67,1.42-2.37,2.29-5.32,1.32-5.37-2.1-.2-1.45.48-1.57,1.74-.94Z"/>
      <path class="cls-140" d="M54.4,49.36c.25-.88.59-.88,1-.03-.06.36.11,2.35,1.13,1.99,1.58-.55,1.33-2.92,2.83-3.13.2.59.1,1.3.25,1.9-.71,1.01-1.59,2-2.71,2.23-1.38.29-2.63-.04-3.62-.83-.04-.88-.04-2.08,1.13-2.12Z"/>
      <path class="cls-59" d="M65.98,36.95c.67-.22,1.52.03,2.17-.27-.79,2.05-2.71,3.93-5.07,3.36.83-1.13,2.37-1.71,2.9-3.09Z"/>
      <path class="cls-99" d="M43.82,34.41c-.36-.82-.09-1.06.79-.75.29-.91.65-.89,1.06.01,1.22-.06,2.24-.4,3.19-1.13-.34-2.17,1.58-1.24,2.95-.04.61.18,1.17.65,1.87.36-.27.5-.47,1.19-.85,1.6.69,1.5.41,2.57-.85,3.2l-1.96,1.84c.37,2.65-.38,3.85-2.95,2.82-2.24.01-5.06-6.65-3.26-7.93Z"/>
      <path class="cls-64" d="M52.83,34.47c.61.42,1.42.77,1.83,1.57.32.64-.05,1.49-.44,2.13l-2.24-.5c.02-.69-.64-1.41-.42-2.29.13-.52.86-.6,1.26-.91Z"/>
      <path class="cls-107" d="M59.54,53.19c4.14-.19,9.45.36,10.78-3.37l-.02-.83c2.78-.18,5.17-.94,7.17-2.28,1.1-.29,3.35.04,3.99-1.27.98.05,2.18-.51,2.87.42l-4.2,2.25c2.79.8,4.15-1.14,6.13-.91.51-.75.87-.64,1.1.27.93,4.13-5.52,6.3-7.9,3.04-1.98-.86-4.03-.37-5.99.3-3.55,2.48-7.54,4.41-11.85,4.4-.82,3.1-6.94,2.88-6.74-.61,1.12-1.48,2.99-1.34,4.67-1.42Z"/>
      <path class="cls-134" d="M90.45,46.16c-.41.2-.67.8-1.05,1.07,0,2.05-1.03,2.08-2.04.23-.36.01-.74-.23-1.1-.27.68-1.11,1.54-2.2,2.62-3.07,1.15.99,1.9,1.23,1.58,2.03Z"/>
      <path class="cls-52" d="M101.59,54.93c2.41-.17,2.44.94.15,1.79-.18.34-.44.64-.8.78-1.2-1.08-2.6-1.99-3.31-3.51,1.35.15,2.68.46,3.96.94Z"/>
      <path class="cls-162" d="M101.59,54.93l2.29-.52c.35.22,1.27.19,1.37.66.2.92-.16,1.69-.3,2.37-1.04-.22-2.2-.35-3.21-.72l-.15-1.79Z"/>
      <path class="cls-84" d="M16.48,31.96c-2-3.49,2.54-8.07,4.25-3.59l1.65,5.93c2.89.84,4.11,2.15,3.67,3.93l4.26,1.41c-.03,2.28.29,4.49.96,6.63,2.35-.94,4.39-.81,6.12.39,2.4-.09,2.64,1.23,1.92,3.24.89.06.87.32.03.77-2.72.03-5.3-.67-7.89-1.48-.73-.23-1.3-1.02-2.2-.91-.26-1.58-1.57-2.78-3.15-3.81-7.77-5.04-4.77-8.74-9.17-9.87-1.78-.11-1.86-.47-.24-1.24-1.79-.2-1.97-.78-.19-1.41Z"/>
      <path class="cls-16" d="M77.47,46.71c1.48,1.96-6.17,3.01-7.16,3.11-.54-.56-1.28-.81-2.03-.92,2.91-1.43,6.05-1.36,9.19-2.19Z"/>
      <path class="cls-72" d="M26.04,38.23c1.09-1.89,3.72-2.32,7.89-1.29,2.81-1.15,5.16-1.17,7.04-.06.53-1.28,1.15-1.36,2.27-.59l3.7,9.95c2.92-.39,4.42.29,4.51,2.04-.32.63-.03,1.75-.26,2.46l-1.45.77c-3.41-1.1-6.89-1.64-10.45-1.61-1.34-.52-1.97-1.85-1.92-3.24-.67-1.62-.96-3.56-.85-5.82.07,3.45-1.6,7.01-5.27,5.43-1.79-1.27-4.05-2.23-4.81-4.81,1.23-.13,2.28.32,2.7-.98-1.88-.28-2.33-1.71-3.11-2.25Z"/>
      <path class="cls-20" d="M41.93,34.78c.22-1.89.96-2.05,1.89-.37.61,2.8,1.98,5.37,3.26,7.93,1.7-1.42,3.42-1.04,4.25,1.09.54,1.64,1.34,3.44.13,4.86-1.59-.88-4.26,1.31-6.04-.79-2.1-2.49-.84-11.36-4.45-10.61-2.58-1.3-1.81-1.88.96-2.11Z"/>
      <path class="cls-109" d="M51.99,37.67c-.04,1.3.32,2.53.78,4.12.28.97-.87,1.45-1.43,1.63-1.46.15-3.47.49-4.25-1.09.56-.44,1.08-.88,1.14-1.41.12-1.07-.94-1.96-2.23-2.9,2-.26,4.09-.78,6-.36Z"/>
      <path class="cls-79" d="M51.2,50.75c-.08.25.07.55.03.82-.63.17-1.15.68-1.74.94-1.08,2.58-3.45,2.04-3.76-.77-1.93-1-4.27-1.08-6.41-1.06l-.03-.77c1.92-.84,4.11-1.27,6.5-.54,1.92.82,3.68,1.25,5.39,1.38Z"/>
      <path class="cls-95" d="M56.29,45.27c1.17,1.63-2.09,3.64-2.92,1.62-.27-.64-.61-1.75-.05-2.82.27-.52.41-1.31,1.7-.83.62.23.69,1.71,1.27,2.04Z"/>
      <path class="cls-14" d="M56.29,45.27c.74.41,1.77,1.64.78,2.47-.45.37-1.44-.03-1.55.44s-.26.84-.11,1.15l-1,.03-1.04-2.48c1.14-.18,2.28-.61,2.92-1.62Z"/>
      <path class="cls-4" d="M42.78,30.85c1.05-2.52,2.66-3.94,4.82-4.27,1.28,0,1.29,1.76,1.1,2.96,1.8-1.25,2.18-1.02,1.89,1.16l1.22,1.8c-.93-.27-2.01-.09-2.95.04-1.23,1.99-2.3,2.36-3.19,1.13-.33.07-.75-.12-1.06-.01-2.83.77-5.13-1.2-1.83-2.81Z"/>
      <path class="cls-96" d="M49.5,23.66c1.24-2.26,2.29-1.99,2.94.54.8-1.58,1.15-1.52,1.18.27-1.01.46-2.11,1.64-2.21,2.76-.43,1.79-1.15,2.12-1.78.28-1.35.33-1.66-.86-1.13-2.05-2.9-.08-3.42-1.32-1.72-3.61,1.12-2.11,2.03-1.5,2.72,1.8Z"/>
      <path class="cls-151" d="M53.22,20.47c-1.26-1.85-1.6-4.17.91-3.11.12.56.62.98,1.2.82.15,2.32.72,5.18-1.69,6.3l-1.18-.27c-1.76-1.67-1.59-2.95.78-3.74Z"/>
      <path class="cls-26" d="M49.64,27.52l1.78-.28c-.11,1.2-.05,2.44-.81,3.48-.75-.17-1.44-.53-1.89-1.16-.74-.83-.2-1.83.93-2.03Z"/>
      <path class="cls-161" d="M33.84,32.04c2.33-.14,4.59-.92,6.78-2.35,1.46-2.63,3.12-1.66,2.16,1.17-.73,1.47,1.3,1.81,1.83,2.81-.3.11-.48.68-.79.75-.61.04-1.29.4-1.89.37-1.56,1.71-5.21,2.17-6.96.51-3.72.88-4.61-3.87-1.13-3.25Z"/>
      <path class="cls-153" d="M48.87,32.55c-.69,1.08-.73,2.24-1.3,4.14l-1.9-3.01c.99-.54,2.06-.97,3.19-1.13Z"/>
      <path class="cls-134" d="M79.46,50.51l-1.99.19c-1.32.12-2.67-.05-4,.12,1.7-1.19,4.36-2.5,5.99-.3Z"/>
      <path class="cls-88" d="M20.73,28.37c.04-.9.34-.94.88-.17l2.15.61c-.14,2.71.28,4.52,1.26,5.45,1.78-3.04,4.01-1.29,5.86.82,1.18-2.65,1.3-2.45,2.14.1l1.96.11c1.81-1.32,5-.61,6.96-.51-.36.68-.96,1.29-.96,2.11.52,1.35-14.13,1.67-14.93,1.35-3.84-1.88-6.17-5.57-5.32-9.86Z"/>
      <path class="cls-39" d="M37.38,46.67c-1.04.51-2.16.98-3.43,1.24-1.11.23-1.81-1-2.69-1.63,6.59-3.26-.4-8.3,7.02-7.29.3.04,1.41,6.54-.9,7.68Z"/>
      <path class="cls-44" d="M14.53,28.85c-.74-2.52-1.25-4.59,1.95-5.17.11-.74.46-.7,1-.03,2.1-.5,2.49.16,1.16,1.99,1.44-.49,3.69-1.04,3.87.76,1.67-1.06,2.83-1.06,2.17,1-.23,2.75-1.53,3.08-3.07.81-.27.12-.6.08-.88.17-.26-.31-.55-.67-.87-.78-1.29-.44-2.23,3.4-3.38,4.37-1.44,1.25-3.19.53-1.99-1.27-1.71-.79-1.89-1.48.04-1.84Z"/>
      <path class="cls-114" d="M11.87,29.96c.44-2.29,2.03-1.13,2.62.73.41.74,1.09,1.43,1.99,1.27,0,.48.1.94.19,1.41-1.28.01-2.81.06-3.98-.61-.93-.53-1.97-.51-2.93-.85-2.38-2.22-.52-3.64,2.1-1.95Z"/>
      <path class="cls-89" d="M.54,22.23c-.03-.79.26-1.14.85-1.03l.93-2.03c.25-.88.59-.88,1-.03.28,2.28.59,1.62.95-1.98l1.26,1.06c1.32.39,1.9,1.56,1.72,3.5-1.44.37-1.76,1.83-.96,4.39,1.63.44,1.65,1.17.03,1.67.04.85-.24.85-.79.11-1.54.46-2.87-.48-4-2.83-.13-.96-.74-1.89-.99-2.83Z"/>
      <path class="cls-132" d="M6.32,27.78c.78-2.6,1.58-2.46,2.31.17.93-1.45,1.99-1.15,3.18.9.91.31.93.68.06,1.11-1.03.04-1.84,1.07-2.1,1.95-1.07-.38-1.78-1.69-2.96-1.92-1.65-.6-2.08-1.31-1.28-2.1.25.02.56-.19.79-.11Z"/>
      <path class="cls-46" d="M43,9.47c-.09-1.22.9-2.49,2.95-3.83-.9-.18-.93-.52-.12-1,.38-.71,1.33-1.21,2.84-1.49l.78-.06c.83,2.13,2.25,4.88-.61,5.71.53,2.1-.75,2.7-3.85,1.81.27,2.73-.42,3.14-2.06,1.26.62,2.86-2.65,3.45-3.88.85-2.58.75-2.93-.08-1.02-1.94.89-1.92,3.21-2.44,4.96-1.3Z"/>
      <path class="cls-11" d="M48.85,8.8c.96,3.41,4.56,5.15,5.27,8.55-1.17.55-1.01,2.01-.91,3.11-2.33,1.67-3.04.65-1.74-1.89l-3.4-6.07c-1.31.64-2.53-.61-3.07-1.89,1.22-.74,2.5-1.32,3.85-1.81Z"/>
      <path class="cls-129" d="M47.61,26.59c.18-.43.65-.74.9-1.12.34.7,1.3,1.02,1.13,2.05-.13.78.19,1.92-.93,2.03-1.15-.53-1.34-1.82-1.1-2.96Z"/>
      <path class="cls-156" d="M49.31,19.42c.12-.89.42-.9.89-.08.07-.68.52-.9,1.27-.77.5.71,1.01,1.42,1.74,1.89.13,1.31.07,2.67-.78,3.74-.82-.19-2.28.12-2.94-.54-2.39-2.41-2.45-3.83-.19-4.25Z"/>
      <path class="cls-56" d="M48.33,18.56c.83-.29,1.16,0,.99.86l.19,4.25c-.81-.9-1.41-1.76-2.72-1.8-1.16-.04-1.71-1.62-2.42-2.16.51-2.05,2.11-1.74,3.96-1.14Z"/>
      <path class="cls-157" d="M30.33,18.31c.13-1.09.84-2.1,2.13-3.02-2.51-.59-2.29-1.62-.52-3.27.27-.88.62-.88,1.05-.03,1.91-1.75,3.51-.56,2.13,1.98.88.6,1.59,1.26,2.12,1.98.86-.76,2.9.69,2.07,1.93-.29,1.88-.5,5.35-2.9,3.93-.16.89-.49.88-.96.05-1.56.11-5.19-.88-4.99-2.82l-.12-.73Z"/>
      <path class="cls-128" d="M13.48,16.63c.12-1.98.84-2.05,1.51-.21,1.09-.93,2.48-1.54,4.18-1.84.51-.91,1.5-.57,2.99,1.01.55,1.67,1.31,3.21,2.45,4.58,1,2.55-.28,2.9-2.2,1.31-.22.96-.55.95-1,.03-1.01,1.08-2.53,1.55-2.73-.17-1.96-.12-4.24-.69-5.13-2.58-1.75-.57-1.76-1.45-.07-2.13Z"/>
      <path class="cls-7" d="M30.44,19.04c1.74.83,3.84,1.18,4.99,2.82,1.67,3.66-2.26,4.65-3,.2-.22,2.11-2.34,2.14-3,.08-.96,2.69-5.68,1.16-3.88-1.03,1.57-.83,3.14-1.67,4.88-2.07Z"/>
      <path class="cls-91" d="M22.41,21.47l2.2-1.31c.25.3.82.59.94.95.61,1.79,2.38,1.31,3.88,1.03,4.53,1.66-5.1,6.15-4.2,1.64-1.23.78-2.45,1.43-2.61-.33-1.96.4-1.35-.7-.21-1.98Z"/>
      <path class="cls-10" d="M42.7.75c.3.7.67,1.37,1.05,2.03-1.54,1.06-4.67,1.73-6.64,1.34l-.33-1.16c1.45-1.48,4.21-4.3,5.93-2.21Z"/>
      <path class="cls-74" d="M16.37,11.5c1.87,1.11,4.99,1.67,5.79,4.08l-2.99-1.01c-1.49.94-2.5.93-3.03-.03-.86.21-.87-.04-.15-.7-2.32-1.5-2.16-1.58.38-2.35Z"/>
      <path class="cls-43" d="M29.35,15.34c.5-2.78,2.05-2.62,3.11-.05-.14.61,1.2,1.59.51,2.05-1,.67-1.91.79-2.64.98l-1.04-.99c-1.45-1.13-1.91-1.73.06-1.98Z"/>
      <path class="cls-133" d="M29.05,9.14c1.8-.14,1.88.66.04,1.2,1.39,2.24.7,3.52-1.83,3.96-1.07-.73-1.52-1.97-.96-3.27.45-1.03,1.57-1.7,2.75-1.89Z"/>
      <path class="cls-69" d="M29.2,8.19c1.44.41,2.65,1.32,3.89,2.15,2.68.4,2.43.99-.1,1.65l-1.05.03c-2.27,1.13-2.74.85-2.84-1.69l-.04-1.2.14-.95Z"/>
      <path class="cls-24" d="M27.26,14.29c1.98-1.9,2.6-1.63,2.09,1.05l-.06,1.98c-.58-.55-1.55-.51-2.37-1.11-.59-.43-.21-1.31.34-1.91Z"/>
      <path class="cls-116" d="M32.55,25.11c.86-.47,1.17-.11,1.03.96.2.84.8,2.48,1.94,2.01.18,1.45-.14,3.34-1.68,3.94-1.13.45-1.35,1.29-.92,2.57.25.74,1.44.57,2.05.68-1.68,1.23-2.46-.51-4.1-.21-1.84-.16-2.2-1.13-.35-1.83-1.07-2.01.03-5.16,2.15-6.08l-1.78-.5c-1.49.88-2.58,1.09-3.27.63-.28.88-.65.88-1.1.04-2.29-1.07,1.95-3,3.55-3.66,1.14-.47,2.32.15,2.48,1.45Z"/>
      <path class="cls-154" d="M21.6,28.2c.98-.43,2.02-.66,3.07-.81-.07-2.38,1.12-2.37,1.85-.07l1.1-.04c1.84-.21,1.18.93,0,2.01,1.38,2.15.51,3.8-2.61,4.95-.64-.01-2.19.45-2.42-.8l-.99-5.26Z"/>
      <path class="cls-42" d="M27.63,29.3c-.16-1.58.59-1.62,1.17-.04,2.07.24,2.48,2.32,1.73,3.99l.35,1.83c-2.07.38-3.67-.77-5.86-.82-.08-.64-.45-1.28-.33-2.04,1.67-.55,2.7-1.55,2.94-2.92Z"/>
      <path class="cls-93" d="M25.23,23.78c1.03.2,1.89,1.39,2.63,1.11,1.38-.51,1.92-1.71,1.57-2.75.83-.16,2.2-.35,3-.08,1.4,2.1,1.44,3.12.1,3.05-2.17.26-5.15-.18-6.02,2.21l-1.85.07c-.61-.39-1.38-1.03-2.17-1-.9-1.4,0-2.27,2.72-2.61Z"/>
      <path class="cls-68" d="M10.49,23.88c-.23-1.99.82-1.36,2-.07.86.2.84.54.03,1,1.34-.68,2.01.67,2.01,4.03-.21.55.1,1.27-.04,1.84-.86-.11-1.74-.76-2.62-.73-.1-.33.08-.79-.06-1.11-2.19-.84-3.1-3.55-1.32-4.97Z"/>
      <path class="cls-149" d="M22.63,23.45c.65-.07,1.92.2,2.61.33-.55,1.2-1.97,1.57-2.72,2.61-1.44.06-2.8.31-3.87-.76-1.2-1.31,3.17-3.24,3.98-2.18Z"/>
      <path class="cls-38" d="M16.49,23.67c-2.1.91-1.22,3.27-1.95,5.17-1.21-1-1.16-2.77-2.01-4.03.19-1.73,2.61-2.12,3.96-1.14Z"/>
      <path class="cls-143" d="M17.49,23.64c1.07-1,2.38-1.71,3.93-2.14.29.02.75.08,1-.03l.21,1.98c-1.35.57-3.2.86-3.98,2.18-.57-.57-1.36-.9-1.16-1.99Z"/>
      <path class="cls-136" d="M12.45,22.81c-.08-2.37.94-2.49,3.06-.37.78-1.75,1.54-1.65,1.94.2.89.15.87.49.03,1-.33-.03-.67.03-1,.03-1.4.02-2.8.33-3.96,1.14-.16-.23,0-.71-.03-1-.93-.15-.9-.49-.03-1Z"/>
      <path class="cls-85" d="M0,14.02c.43-.5.49-.79,1.01-.16.9.34.96.79.17,1.35.88.25.88.59.03,1,.87,1.39.81,3.5.17,5-.32.19-.38,1.01-.85,1.03-.69-2.59.35-5.68-.54-8.21Z"/>
      <path class="cls-90" d="M5.53,18.21c.28-2.65,1.6-2.57,2.75-.25,1.31.77,1.88,2.62,1.14,3.96.6,1.41.4,1.76-.96,1.03l-.87.52c.45,2.33.02,3.21-1.3,2.63-2.26-1.93-.52-5.21-.76-7.89Z"/>
      <path class="cls-15" d="M3.32,19.13c-1.82-2.22-.66-6.53,2.02-4.86,1.6,1.24,2.15,3.02.19,3.94-1.3-.22-1.21.82-1.23,1.43-.04,1.03.53,1.99-.23,3.55-1.22-1.02-.55-2.71-.75-4.06Z"/>
      <path class="cls-50" d="M6.28,26.1c1.26.69-.51-6.08,1.15-3.77.16.22.7.49,1.02.62,1.51.44,2.06,4.75.17,5-.64-.33-1.62.06-2.31-.17-.06-.56-.07-1.12-.03-1.67Z"/>
      <path class="cls-37" d="M4.17,11.99c2.33-.99,3.33.94,1.17,2.28-2.48.08-2.29,2.92-2.02,4.86l-1,.03c-.4-.86-.77-1.84-1.1-2.96l-.03-1c.45-1.51,1.38-3.05,2.98-3.21Z"/>
      <path class="cls-40" d="M1.22,16.2c1.3.36,1.07,1.89,1.1,2.96.03.85-.17,1.57-.93,2.03l-.17-5Z"/>
      <path class="cls-22" d="M8.46,22.95c.3-.3.57-.79.96-1.03,1.15-.68,2.06.94,1.07,1.96.2,1.72.6,3.38,1.32,4.97-1.08-.27-2.17-.39-3.18-.9l-.17-5Z"/>
      <path class="cls-27" d="M43.75,2.77l2.01-.13c.88.25.88.59.03,1-1.21,1.62-5.49,3.51-8.01,3.35l-.68-2.87c1.92-2.07,4.11-2.8,6.64-1.34Z"/>
      <path class="cls-119" d="M45.77,2.64c1-.07,2.07-.1,2.91.51.39.75.48,2.76-.8,2.02-.66-.38-1.36-.52-2.05-.53-.88-.25-.88-.59-.03-1l-.03-1Z"/>
      <path class="cls-135" d="M39.07,12.72l3.88-.85c1.55-.49,2.61,3.16,1.51,4.2,1.76.49,1.72,1.18-.18,1.43.33,1.56-1.16,1.42-1.99.27-1.78-.1-3.48-1.04-5.1-2.82-.88-.28-.88-.64-.04-1.07-.75-1.84.22-2.27,1.91-1.16Z"/>
      <path class="cls-25" d="M33.09,10.34c.52.35.92.32,1.32-.17,1.3-1.67,4.76-3.11,3.61-.25.88.16.87.45.02.86l1.02,1.94c-.58.47-1.23.86-1.91,1.16.04,1.57-1.6,1.62-2.05.09l-2.13-1.98.1-1.65Z"/>
      <path class="cls-25" d="M45.96,5.64c1.07.87.99,2-.08,2.49s-1.92,1.03-2.88,1.34c-1.93.14-2.62-.41-2.06-1.66-1.28-1.84,3.67-3.74,5.01-2.17Z"/>
      <path class="cls-142" d="M45.8,3.64l.03,1,.12,1c-1.93-.03-3.92.49-5.01,2.17.04,1.75-1.73,1.93-2,.07-1.26,1.21-1.88.81-1.15-.89,2.48-1.59,5.28-2.24,8.01-3.35Z"/>
      <path class="cls-13" d="M42.95,11.87l2.06-1.26c1.84,1.13,3.43,4.75,1.47,5.98-.75,1.97-1.74,1.63-2.02-.52l-1.51-4.2Z"/>
      <path class="cls-139" d="M38.95,7.88l2-.07c.88.27,1.65.82,2.06,1.66-1.63.51-3.28,1.03-4.96,1.3l-.02-.86c-.97-1.58-1.04-1.95.93-2.03Z"/>
      <path class="cls-54" d="M45.01,10.61c1.4-.23,2.57.61,3.07,1.89,2.29,2.4,3,4.68,2.12,6.84l-.89.08c-.33-.24-.8-.47-.99-.86-1.98.64-2.6-.05-1.85-1.97-.21-2.08-1.56-3.85-1.47-5.98Z"/>
      <path class="cls-110" d="M48.07,12.5c2.34,1.04,3.25,3.62,3.4,6.07-.41.28-.83.53-1.27.77.37-2.58-1.76-4.41-2.12-6.84Z"/>
      <g>
        <path class="cls-41" d="M36.4,21.81c.3-2,1.27-3.31,2.9-3.93.46-1.5,2.04-.46,2.03.93,1.34-.69,3.09-.75,3.03.89,1.95.61,2.75,1.33,2.42,2.16.84,1.07,1.14,2.42,1.72,3.61.8,1.21.45,1.72-.9,1.12-1.01,2.39-1.84,4.94-4.82,4.27-.35-.81-1.62-.78-2.16-1.17-1.8.07-3.5-.47-5.1-1.59-1.23,3.51-2.78.74-1.94-2.01l.1-1.32c1.44.45,2.34-.53,2.72-2.95Z"/>
        <g>
          <path class="cls-117" d="M33.84,32.04c-.69-1.23.17-3.66,1.68-3.94,1.01-.42,1.88-1.47,3.09-.93,1.02.45,1.58,1.6,2.01,2.52.14,1.81-1.03,3.08-2.76,3.64-1.61.52-3.95,1.17-4.02-1.29Z"/>
          <path class="cls-2" d="M32.44,22.06c.73.3.89,1.17,1.2,1.57.56.73,1.76.54,1.81-.19s.04-1.21,0-1.58l.96-.05c.09,1.04.15,2.1-.33,3.17-.38.83-1.47,1.13-2.48,1.1-.33-.34-.67-.66-1.03-.96l-.1-3.05Z"/>
          <path class="cls-102" d="M45.49,27.66c.09,2.07-1.7,2.68-2.05.63-.15-.86-.52-1.45-.46-1.89.07-.48.75-.58,1.07-.47.43.14,1.01.43,1.44,1.73Z"/>
          <path class="cls-137" d="M37.19,14.95c2.02.17,3.72,1.39,5.1,2.82.18.81-.14,1.16-.96,1.03l-2.03-.93-2.07-1.93c-.88-.25-.88-.59-.03-1Z"/>
          <path class="cls-82" d="M42.29,17.77l1.99-.27c2.59.41,2.56,1.37.08,2.2-.89-.41-2.08-.46-3.03-.89.17-.46.52-.82.96-1.03Z"/>
        </g>
      </g>
      <path class="cls-67" d="M44.28,17.5c-.02-.44.32-1.02.18-1.43.65.27,1.33.43,2.02.52.93.31,1.45,1.12,1.85,1.97-.54.23-.87,1.77-1.43,1.79-.74.03-1.58-1.09-2.53-.65l-.08-2.2Z"/>
      <path class="cls-147" d="M8.76,8.09c1.38-.19,1.56.85.54,3.1.95.39,1.02.89.19,1.5.53,2.18-.29,2.46-1.3.41-1.32-.25-2.7-.95-4.13-2.09-.6-.03-.66-.3-.26-.79,1.25-2.01,2.79-1.99,4.95-2.13Z"/>
      <path class="cls-103" d="M8.76,8.09c2.03-.14,3.44-.09,5.35.61-.03.96-.75,1.26-1.91.9-.66-.21-1.35-.53-1.79-.37-.65.24-.3,1.41-.24,1.88.79,1.77.06,1.86-.87.07-.23-1.02-.44-2.05-.54-3.1Z"/>
      <path class="cls-83" d="M3.82,10.22c.07.27.23.52.26.79.9.2.91.53.09.98-.61,1.38-1.61,2.56-2.98,3.21-.02-.44-.19-.91-.17-1.35.07-1.76,2.03-2.39,2.8-3.63Z"/>
      <path class="cls-138" d="M29.09,10.33c1.1.26,2.11.82,2.84,1.69.62,1.08.79,2.12.52,3.27-1.02-.08-2.09.2-3.11.05-.74-.11-1.3-1-2.09-1.05-.01-1.53.82-2.85,1.83-3.96Z"/>
      <path class="cls-43" d="M35.11,13.96l2.05-.09.04,1.07.03,1c-.77.06-2.18.39-2.79-.39-.28-.35.46-1.2.68-1.6Z"/>
      <path class="cls-76" d="M37.79,6.99c.13.53.61.91,1.15.89-.11.75-.39,1.48-.93,2.03.23-2.62-2.57,1.28-3.61.25-.02-2.18,2.03-2.31,3.39-3.18Z"/>
      <path class="cls-17" d="M9.37,16.64c-.06-2.15-.03-2.19,2.03-1.57,1.85-.86,2.77-.43,2.09,1.56.32.69.15,1.42.07,2.13,1.67.73,3.41,1.88,1.97,3.69-.94.01-2.13.63-3.06.37l-2.14-3.93c-1.46.5-1.76-1.06-.95-2.25Z"/>
      <path class="cls-57" d="M9.31,11.19c.38.43.71.6.87-.07.56-.54,1.65.06,1.89.7,1.52.49,2.83,1.16,3.92,2.03-.03.22.14.47.15.7.78.53.4,1.15-1.14,1.87-.49.1-1.05-.09-1.51.21-.59-.65-1.28-1.2-2.09-1.56-2.2.47-2.81-.38-1.89-2.38-.05-.5-.08-1.01-.19-1.5Z"/>
      <path class="cls-58" d="M13.55,18.76c1.89.39,5.42.04,5.13,2.58,1.72.9.44,1.89-1.23,1.31-.6.1-1.32-.2-1.94-.2-.97-1.06-2.14-2.14-1.97-3.69Z"/>
      <path class="cls-87" d="M18.68,21.33l2.73.17c-.36,1.82-2.27,2.28-3.93,2.14.06-.32-.07-.67-.03-1,.57-.1.91-.92,1.23-1.31Z"/>
      <path class="cls-80" d="M16.14,14.55l3.03.03c-.91,1.36-2.67,1.52-4.18,1.84.18-.73.58-1.37,1.14-1.87Z"/>
      <path class="cls-128" d="M12.07,11.82c1.44-.04,2.89,0,4.3-.32.04.81-.26,1.57-.38,2.35-.95.08-1.98.24-3.11-.21-.66-.26-.55-1.15-.81-1.82Z"/>
      <path class="cls-146" d="M28.8,29.26c-1.44-2.02,2.24-3.36,3.87-2.09.66,2.2-1.08,4.31-2.15,6.08-1.48-.76-1.76-2.45-1.73-3.99Z"/>
      <path class="cls-150" d="M27.62,27.29c1.34-.74,4.4-2.28,5.05-.12-1.66-.17-3.55.26-3.87,2.09l-1.17.04v-2.01Z"/>
      <path class="cls-61" d="M8.28,17.96c-1.97.05-1.94-.73.05-1.33-.16-2.17.65-2.2,1.03.01,0,.85.7,1.51.95,2.25l2.14,3.93c-.02.32,0,.68.03,1l-2,.07c-.11-.63-.74-1.4-1.07-1.96-.71-1.22-1.21-2.52-1.14-3.96Z"/>
      <path class="cls-158" d="M5.34,14.27c.07-1.97.98-1.89,1.62.01,2.32-.62,2.62.33,1.38,2.34-.2.38-.03.91-.05,1.33-.9.06-1.85.41-2.75.25-.12-1.31-.16-2.63-.19-3.94Z"/>
      <path class="cls-73" d="M8.2,13.1c2.21,1.78.74,3.19-1.25,1.18-.5.14-1.1-.03-1.62-.01-.02-.85-.69-1.65-1.17-2.28l-.09-.98c.77-.3,1.64-1.11,2.31-.9,1.24.38,1.72,1.97,1.82,2.99Z"/>
      <path class="cls-9" d="M6.95,14.28c.47-.13,1.58-.52,1.25-1.18.55.45.92,0,1.3-.41,1.11.27,1.55,1.38,1.89,2.38-.19.98-1.05,1.55-2.03,1.57-.32-.4-.75-.56-1.03-.01-.65-.65-1.11-1.46-1.38-2.34Z"/>
      <path class="cls-145" d="M10.32,18.89c1.75.44,2.26,2.28,2.14,3.93-1.66-.47-1.67-2.57-2.14-3.93Z"/>
    </g>
  </g>
</svg>