<?xml version="1.0" encoding="UTF-8"?>
<svg id="Objects" xmlns="http://www.w3.org/2000/svg" viewBox="0 0 78.92 129.26">
  <defs>
    <style>
      .cls-1 {
        fill: #dbdce0;
      }

      .cls-2 {
        fill: #c3c8cd;
      }

      .cls-3 {
        fill: #c7cacf;
      }

      .cls-4 {
        fill: #363f48;
      }

      .cls-5 {
        fill: #bcc2c7;
      }

      .cls-6 {
        fill: #38424c;
      }

      .cls-7 {
        fill: #d7d9db;
      }
    </style>
  </defs>
  <g id="Object_FadingImpact_2">
    <path class="cls-7" d="M36.95,105c-3.83.09-9.21.16-11.78-2.81-2.4-2.78,1.45-7.32,1.46-10.28.01-2.59-2.73-3.39-4.27-6.02,5.24-1.48,10.86-2.09,16.5.08-6.15,5.56-7.73,11.48-1.91,19.02Z"/>
    <path class="cls-4" d="M71.1,129.26c-2.68.18-1.42-3.41-1.54-5.13-3.88.34-7.92,2-11.12-1.69,6.36-7.01,15.12-4.28,20.48,2.77-2.3.58-4.06,3.8-7.81,4.06Z"/>
    <path class="cls-1" d="M6.85,72.71c.04,1.53-3.65.11-5.03-.42-2.21-.85-2.34-3.91-.74-6.84.52-.95.05-3.09.81-3.33l3.21-1.01,1.76,11.6Z"/>
    <path class="cls-3" d="M72.06,68.7c-3.49,5.36-9.1,6.39-14.63,3.36,4.15-2.32,8.29-4.73,14.63-3.36Z"/>
    <path class="cls-5" d="M9.85,8.87v7.1c-1.66,3.69-2.94,1.59-3.55-1.77C6.69,10.11,4.35,3.35,8.08,0c.62,2.73,1.21,5.69,1.77,8.87Z"/>
    <path class="cls-6" d="M9.85,15.97c0,2.32.8,5.86-2.09,5.32-2.42-.46-1.39-5.33-1.45-7.09l3.55,1.77Z"/>
    <path class="cls-2" d="M9.85,8.87C7.76,6.78,7.86,3.69,8.08,0c-.24-.74.06-1.93,1.68-1.66l.1,10.53Z"/>
  </g>
</svg>