<?xml version="1.0" encoding="UTF-8"?>
<svg id="Objects" xmlns="http://www.w3.org/2000/svg" viewBox="0 0 44.01 39.45">
  <defs>
    <style>
      .cls-1 {
        fill: #a94520;
      }

      .cls-2 {
        fill: #7b260f;
      }

      .cls-3 {
        fill: #f7f7f3;
      }

      .cls-4 {
        fill: #0b0606;
      }

      .cls-5 {
        fill: #e48e61;
      }

      .cls-6 {
        fill: #d4794a;
      }

      .cls-7 {
        fill: #60180a;
      }

      .cls-8 {
        fill: #e9a481;
      }

      .cls-9 {
        fill: #a13b1a;
      }

      .cls-10 {
        fill: #a43c1a;
      }

      .cls-11 {
        fill: #d78051;
      }
    </style>
  </defs>
  <path class="cls-11" d="M15.38,14.34c5.34-6.93,8.38-6.87,9.13.2,4.04.08,3.87,2.34-.1,3.19,2.78,3.87.76,5.65-3.7,5.68,3.75,2.31.32,4.13-3.28,3.82,2.64,6.53-10.15,6.4-14.32,3.06-7.55-6.1.53-20.18,4.99-22.47,2.61,1.96,5.04,4.14,7.3,6.52Z"/>
  <path class="cls-4" d="M41.69,35.55c.33.62.16,1.86-.08,2.48-.29.75-1.56,1.43-3.05,1.42l-33.23-.35c-.78,0-1.92-1.99-2.21-2.44-.27-.41,1.64-.36,1.66-.84l1.08-1.62c9.84,2.42,18.38,1.2,25.61-3.67l1.82,1.53c3.56-1.65,6.75.16,8.39,3.48Z"/>
  <path class="cls-2" d="M4.94,32.28c-.8-.38-1.18-1.46-1.84-2,4.84,2.89,10.01-.16,14.32-3.06,2.66-1.7,6.57-2.47,8.78.03.59-4.08,1.36-4.42,4.67-1.58,4.03,4.48-1.05,7.15-5.74,8.52-5.2,1.52-17.64,1.95-20.19-1.91Z"/>
  <path class="cls-3" d="M41.69,35.55c-3.33,1.32-6.62-.53-8.39-3.48-2.38-1.12-1.41-5.04.52-6.45,2.94.25,8.3-.07,10.05,3.61.92,1.94-3.19,4.46-2.18,6.32Z"/>
  <path class="cls-1" d="M29.78,12.61c2.32,3.02,2.86,5.54,1.62,7.55-1.74,5.78-7.08,2.38-6.99-2.44l.1-3.19c-4.5-5.3-4.62-8.22-.35-8.77-1.54-.44-1.46-.96.1-1.56,3.5,2.25,4.13,4.53,5.53,8.42Z"/>
  <path class="cls-8" d="M15.43,7.13c4.63,2.04,4.09,4.97-.05,7.21l-8.81.66c-.04-3.53.92-5.23,1.51-7.18.58-.45,1.54-1.55,2.02-2.1,2.67-2.56,5.46-2.59,5.33,1.42Z"/>
  <path class="cls-6" d="M24.25,4.2l-.1,1.56c-.8,5.02-6.33,6.14-8.73,1.37-1.62-.95-3.46-1.37-5.33-1.42.76-2.99,4.41-3.97,6.51-4.98,5.06-2.43,5.15,1.86,7.65,3.47Z"/>
  <path class="cls-10" d="M31.4,20.16c.67-1.56,1.27-1.52,1.81.09-.42.78.24,2.18.08,3.06-.27,1.59-.65,2.86-2.42,2.36-1.5.77-2.96,2.7-4.67,1.58-2.42.71-4.75-1.67-5.5-3.85.69-2.21,1.89-4.22,3.7-5.68,2.59.16,4.26,3.72,6.99,2.44Z"/>
  <path class="cls-7" d="M33.82,25.62c.19,2.17.01,4.34-.52,6.45-13.93,5.92-13.24,3.22-28.51,3.76l.16-3.55c4.12,1.95,27.42,5.31,25.93-6.6-.11-.88,1.39-3.13,2.42-2.36-.14.74.46,1.55.53,2.3Z"/>
  <path class="cls-9" d="M33.21,20.25c-.55.13-1.31-.33-1.81-.09l-1.62-7.55c.78,2.18,5.56,3.75,3.43,7.64Z"/>
  <path class="cls-5" d="M24.15,5.76c-.18,2.92.1,5.86.35,8.77-1.53-.55-1.18-2.15-3.03-4.02-.3,5.27-4.09,8.29-5.63,12.83-.63,1.85-1.5,1.29-2.45-.17-1.43-2.2,2.83-1.66,4.14-5.93.42-1.37-1.98-1.93-2.16-2.89-.42-2.26.14-4.94.05-7.21,2.85-.96,5.98-.02,8.73-1.37Z"/>
  <path class="cls-9" d="M26.2,27.25c-2.84,1.19-6.08,1.63-8.78-.03l3.28-3.82c1.24-.05,2.63-.1,3.92.6,1.06.57,1.53,1.97,1.58,3.25Z"/>
</svg>