<?xml version="1.0" encoding="UTF-8"?>
<svg id="Objects" xmlns="http://www.w3.org/2000/svg" viewBox="0 0 91.17 81.91">
  <defs>
    <style>
      .cls-1 {
        fill: #fcfcfc;
      }

      .cls-2 {
        fill: #b6b8bc;
      }

      .cls-3 {
        fill: #f8f9f9;
      }

      .cls-4 {
        fill: #f3f4f4;
      }

      .cls-5 {
        fill: #a9abaf;
      }

      .cls-6 {
        fill: #d1d2d4;
      }

      .cls-7 {
        fill: #a3a6aa;
      }

      .cls-8 {
        fill: #c6c9cd;
      }

      .cls-9 {
        fill: #cecfd2;
      }

      .cls-10 {
        fill: #fcfcfb;
      }

      .cls-11 {
        fill: #a6a9ae;
      }

      .cls-12 {
        fill: #d5d5d7;
      }

      .cls-13 {
        fill: #bfc2c5;
      }

      .cls-14 {
        fill: #b1b4b8;
      }

      .cls-15 {
        fill: #d1d2d3;
      }

      .cls-16 {
        fill: #eaebec;
      }

      .cls-17 {
        fill: #c4c9cc;
      }
    </style>
  </defs>
  <g id="Object_FadingImpact">
    <path class="cls-3" d="M21.87,53.45c2.46,2.18,3.45,3.82,2.96,4.93l9.91.53c5.43,3.46,4.61,10.97,1.3,15.7-4.36,3.53-16.11,6.4-13.82-1.41-3.48-2.86-5.85-3.47-7.09-1.83-1.1,3.44-2.94,2.93-3.88-.66-3.18,2.42-7.42-3.02-8.31-5.98-2.5-8.25,2.84-13.08,10.45-14.81,1.78-.19,3.01-1.49,4.85-.48,2.06,1.14,2.7,2.31,3.65,4.01Z"/>
    <path class="cls-16" d="M80.52,58.89c8.9,10.35-7.15,24.92-16.19,20.86-4.72-2.12-5.98-12.27-6.32-17.53,4.56-8.1,17.01-10.17,22.51-3.33Z"/>
    <path class="cls-4" d="M27.73,14.38c4.08,4.03,2.17,14.61-3.9,10.9-2.77,3.78-12.19-1.77-15.47-4.96C-.57,14.46,13.5,6.7,20.53,7.52c5.57-1.7,4.93,5.33,7.2,6.86Z"/>
    <path class="cls-7" d="M58.01,62.22c0,1.24.73,2.95,1.6,4.5.64,1.14,4.1-.36,4.59.84.37,2.57-1.83,5.47-1.97,7.92-.09,1.58,2.46,2.35,3.8,3.24,2.85,1.87,4.76-1.12,7.2-2.4,7.26-3.79,10.93-10.57,7.29-17.43,3.82,4.75,5.21,14.02,1.47,18.22-7.33,3.33-18.59,7.41-23.4,1.23.85,1.1-4.13-18.15-.58-16.12Z"/>
    <path class="cls-11" d="M5.95,23.39c-.89-3.37.38-4,2.54-1.27,5.98,2.84,11.1,3.89,15.34,3.16,3.49-2.31,6.96-7.02,3.9-10.9,4.24,2.86,5.74,11.87-.32,16.05-4.18,2.88-12.11,1.27-16.56.8-5.47-.57-3.79-5.51-4.89-7.84Z"/>
    <path class="cls-8" d="M13.38,49.92c-1.46,2.17-4.21,2.06-7.26,4.36l5.63,2.17c-3.32,1.1-6.15,1.14-6.93,3.44-2.03,6.05,5,7.47,6.43,10.81,1.28,4.96-1.99,6.36-6.42,4.03,2.34-3.46-8.97-9.25-3.12-19.88,2.29-4.15,7.31-4.47,11.68-4.94Z"/>
    <path class="cls-10" d="M11.24,70.71c1.29.24,2.61.34,3.88.66,2.18-3.05,4.05-1.91,3.98,1.7,3.53.98,3.3,3.17-.39,3.48-.06,3.57-3.81,2.24-6.45,3.19-2.66.95-4.59,4.21-6.76.28-.97-1.76-2.3-2.86-.67-5.27,2.14-1.36,4.06-3.07,6.42-4.03Z"/>
    <path class="cls-2" d="M22.22,73.2c3.5,6.11,9.98-1.53,13.82,1.41-2.22,3.18-3.3,6.02-7.7,6.16-4.14.14-7.48-.78-9.63-4.22.02-1.16.48-2.31.39-3.48-.18-2.01.86-1.96,3.12.14Z"/>
    <path class="cls-17" d="M20.53,7.52c-3.29,1-13.15,4.54-13.86,8.22-.32,1.67.82,3.25,1.69,4.59.77.51.79,1.11.13,1.8l-2.54,1.27c-1.55-3.3-2.36-6.59-.8-11.02,1.32-3.73,18.55-8.43,15.38-4.85Z"/>
    <path class="cls-13" d="M34.74,58.9c-4.64-.16-8.22,2.26-14.08,4.09l1.22-9.54c2.89,5.21,6.83,1.61,12.87,5.45Z"/>
    <path class="cls-12" d="M22.22,73.2c-.98-.21-2.16.17-3.12-.14-1.36-.43-2.58-1.35-3.98-1.7-.7-1.21-1.09-2.38.03-2.89.8-.37,2.36-1.48,3.92-1.33.6,2.22,1.34,4.45,3.14,6.05Z"/>
    <path class="cls-5" d="M79.18,39.25c-4.18-.68-8.43-1.11-12.61-.06-4.09-3.12-11.4-3.22-14.74-8.25-2.93-4.41-.1-10.52-1.25-14.88,2.88-3.11,4.6-1.53,5.15,4.76,1.51.54,2.73,2.01,3.67,4.4,3.27-1.82,4.72-.34,5.13,3.06,2.62,1.65,5.67,1.05,9.14-1.79,3.97,1.16,6.07-.79,6.31-5.84l4.19-.65c-2.16-3.87-1.98-6.88.55-9.03,2.68-.05,6.61,1.11,6.45,5.39-.33,9.17-4.02,19.35-11.99,22.88Z"/>
    <path class="cls-9" d="M84.71,10.98c1.02,3.7,3.27,6.84-.55,9.03l-4.69.81c-5.53-10.18-10.65-14.13-21.52-8.49,2.35.46,2.36,2.42.03,5.88,5.53-.77,5.22,4.23,1.41,7.02-1.88-.73-5.41-.6-6.39-3.03-.85-2.13.12-5.67-2.43-6.13-.83-3.15-.93-10.72,2.27-11.26l10.91-1.87c5.4-.93,9.18-4.53,14.01-2.1,4.07,2.05,5.72,5.74,6.94,10.15Z"/>
    <path class="cls-14" d="M79.18,39.25c-3.24,1.43-9.32.42-12.61-.06,3.23-2.71,9.34-2.8,12.61.06Z"/>
    <path class="cls-1" d="M84.16,20.01c-1.85,2.73-1.48,8.47-4.87,11.1-1.05.81-2.66-1.55-3.58-1.46-4.94.46-5.34,6.37-13.29,1.39-1.66-1.04-1.23-4.12-3.02-5.81-1.91-1.81-.12-5.68-1.41-7.02.95-2.21.94-4.17-.03-5.88-.61-4.98,5.46-6.26,8.63-6,15.02,1.23,7.71,6.99,17.58,13.68Z"/>
    <path class="cls-15" d="M57.99,18.2c-2.17-2.27.28-3.29-.03-5.88,1.97.57,3.93-.35,7.02,1.19-2.9,1.19-4.86,2.86-6.99,4.69Z"/>
    <path class="cls-6" d="M23.83,25.28c-.36,1.14-.38,2.95-1.31,3.42-4.21,2.14-10-3.56-14.03-6.58l-.13-1.8c3.68,2.8,8.36,1.1,12.54-.07-.22,1.95-1.46,3.08-.84,3.61.98.85,3.08,1.38,3.77,1.41Z"/>
  </g>
</svg>