<?xml version="1.0" encoding="UTF-8"?>
<svg id="Objects" xmlns="http://www.w3.org/2000/svg" viewBox="0 0 131.69 123.06">
  <defs>
    <style>
      .cls-1 {
        fill: #865980;
      }

      .cls-2 {
        fill: #150e1d;
      }

      .cls-3 {
        fill: #665283;
      }

      .cls-4 {
        fill: #472c63;
      }

      .cls-5 {
        fill: #6f4a76;
      }

      .cls-6 {
        fill: #6e4a78;
      }

      .cls-7 {
        fill: #5c3f6f;
      }

      .cls-8 {
        fill: #202466;
      }

      .cls-9 {
        fill: #58376b;
      }

      .cls-10 {
        fill: #9572a0;
      }

      .cls-11 {
        fill: #7d567e;
      }

      .cls-12 {
        fill: #6d4874;
      }

      .cls-13 {
        fill: #795e90;
      }

      .cls-14 {
        fill: #73507c;
      }

      .cls-15 {
        fill: #a87389;
      }

      .cls-16 {
        fill: #5c4476;
      }

      .cls-17 {
        fill: #715688;
      }

      .cls-18 {
        fill: #73597d;
      }

      .cls-19 {
        fill: #80587c;
      }

      .cls-20 {
        fill: #74547b;
      }

      .cls-21 {
        fill: #75537a;
      }

      .cls-22 {
        fill: #0f0a11;
      }

      .cls-23 {
        fill: #6e3f73;
      }

      .cls-24 {
        fill: #502c61;
      }

      .cls-25 {
        fill: #65406e;
      }

      .cls-26 {
        fill: #2c2f72;
      }

      .cls-27 {
        fill: #404a54;
      }

      .cls-28 {
        fill: #6f4c79;
      }

      .cls-29 {
        fill: #342a56;
      }

      .cls-30 {
        fill: #704b76;
      }

      .cls-31 {
        fill: #7f5680;
      }

      .cls-32 {
        fill: #19112f;
      }

      .cls-33 {
        fill: #654574;
      }

      .cls-34 {
        fill: #7c5587;
      }

      .cls-35 {
        fill: #8c7297;
      }

      .cls-36 {
        fill: #755a8b;
      }

      .cls-37 {
        fill: #4b2b61;
      }

      .cls-38 {
        fill: #7c6390;
      }

      .cls-39 {
        fill: #271c3d;
      }

      .cls-40 {
        fill: #72517c;
      }

      .cls-41 {
        fill: #9e7eaa;
      }

      .cls-42 {
        fill: #8d5c84;
      }

      .cls-43 {
        fill: #ac8098;
      }

      .cls-44 {
        fill: #98759c;
      }

      .cls-45 {
        fill: #393556;
      }

      .cls-46 {
        fill: #47275e;
      }

      .cls-47 {
        fill: #593672;
      }

      .cls-48 {
        fill: #6e4974;
      }

      .cls-49 {
        fill: #231933;
      }

      .cls-50 {
        fill: #794f7c;
      }
    </style>
  </defs>
  <g id="Object_Box_Broken">
    <path class="cls-12" d="M114.26,21.78l2.14,1.46c-2.02,4.01-4.54,7.71-7.54,11.11-.64,2.21-1.95,3.4-3.64,4.91-3.4,1.13-4.42.97-3.08-.48-2.99,3.67-5.23,4.94-5.9-.46l-1.78-.63-1-1.14c5.24-5.38,10.38-10.87,15.4-16.47,3.32-3.4,5.12-2.83,5.4,1.69Z"/>
    <path class="cls-5" d="M122.7,20.85c-5.92,4.37-8.74,4.68-8.44.93-5.58-1.46-.47-7.68,3.47-7.02l8.66-6.21,1.99,1.58c1.63,5.2-2.01,8-5.69,10.72Z"/>
    <path class="cls-11" d="M128.37,4.12l.76,2.47c-3.66,2.91-7.46,5.63-11.41,8.17-1.51,2.6-6.83,3.82-3.47,7.02-1.39-1.05-4.05-.27-5.4-1.69,4.83-7.52,12.78-12.8,19.24-19.99.59-.65,3.3,2.18,1.45,2.28-.5.03-.67,1.22-1.17,1.73Z"/>
    <path class="cls-20" d="M122.7,20.85c-5.19,3.83-8.3,10.1-13.84,13.51,1.29-4.44,4.81-7.85,5.4-12.58,3.06,2.32,5.18-1.61,8.44-.93Z"/>
    <path class="cls-14" d="M105.21,39.27l-9.3,8.36.32-9.3c.57.2,1.13.74,1.96.8.97.06,1.45-1.36,2.62-2.4,1.98-1.75,3.72,1.09,4.4,2.54Z"/>
    <path class="cls-9" d="M128.38,10.13c-3.95,1.08-6.35,5.38-10.66,4.63,2.58-4.47,6.81-7.23,10.65-10.65,1.23.59,3.23,1.49,3.31,2.74.12,1.89-2.1,2.54-3.3,3.28Z"/>
    <path class="cls-31" d="M94.45,37.7c-1,.76-3.99,1.07-3.87,2.9-.24,3.08-1.61,3.09-2.55.08,3.3-2.49,4.84-6.99,8.24-10.06,4.32-3.89,9.07-6.61,12.57-10.54-2.27,3.53-4.05,6.88-7.36,10.32l-7.04,7.29Z"/>
    <path class="cls-29" d="M88.04,40.68c.83-.27,1.71-.32,2.55-.08.08,1.14.91,3.82-.38,4.26s-2.78.08-4.63.03c-2.43-.07-2.04-2.88-.66-3.55.86-.42,2.32-.05,3.13-.66Z"/>
    <path class="cls-47" d="M25.24,16.55c2.09,1.98,2.19,8-1.55,8.86,2.35,4.82,3.77,16.29,0,19.52,3.22-1.17,3.36.7.39,5.61,2.81,1.6,3.27,5.65,1.38,12.14-.08,1.94-1.31,3.54-1.77,5.32-.73.59-1.36,1.01-1.63.84-2.57-1.58-.89-53.16.37-59.56,4.76-2.52,5.7-.09,2.82,7.27Z"/>
    <path class="cls-45" d="M22.42,9.28l-.56,56.84c-.01,1.22,1.25,2.09,1.83,1.88-.43,1.66-1.02,2.39-3.56,1.56l-.12-58.46c0-2.31,1.15-2.73,2.21-3.38,1.58.18,1.62.7.2,1.56Z"/>
    <path class="cls-19" d="M34.33,64.44c.11,1.25-.71,1.77-1.77,1.77-3.52-1.64-4.45-6.66-.76-8.7-1.56-.7-1.44-1.27.27-1.72-1.44-6.94-1.27-13.52.49-19.74-4.07.17-3.8-8.3,0-8.87-2.24-4.87-2.26-10.91-1.77-15.97-5.99.33-4.47-5.58,1.24-3.46l1.75,1.49c2.19,18.43,2.38,36.83.56,55.2Z"/>
    <path class="cls-23" d="M34.33,64.44c-1.61-18.92,3.18-38.79-2.31-56.69-1.59-.46-1.56-1.02.02-1.67-.45-3.19.74-3.07,2.29-.2,4.4,17.45.14,36.11,2.11,55.04.19,1.8-1.12,3.68-2.11,3.51Z"/>
    <path class="cls-33" d="M55.63,18.31c.93-.62,1.5.03,1.71,1.94l1.61.07c2.06,1.27,1.17,7.55.23,10.41-1.26-.48-2.97.56-4.01.54-.93-.02-1.85-2.07-2.86-2.46-1.93-2.71-1.55-7.55.2-10.08.61.56.95.35,1.49-.14.02-1.75.58-1.79,1.64-.29Z"/>
    <path class="cls-37" d="M28.96,4.59c1.9-1.9,2.98-1.36,3.08,1.49.1.53-.18,1.16-.02,1.67-1.11-.24-1.83,2.71-1.24,3.46-.5,1.55-1.1,1.53-1.77,0-.56,4.08-1.82,5.86-3.77,5.34-1.34-2.27-.72-5.46-2.82-7.27,0-.51-.19-1.04-.2-1.56,2.08-1.27,4.39-2.51,6.74-3.12Z"/>
    <path class="cls-40" d="M30.18,52.38c1.11-.17,1.73.97,1.88,3.42-.07.53-.37,1.21-.27,1.72-.48,2.99-2.81,3.59-5.64,3.22-.28.56-.67,1.31-.69,1.93-3.66-2.71-1.1-8.12-1.38-12.14,1.13-8.03,3.17-7.41,6.11,1.84Z"/>
    <path class="cls-7" d="M31.8,57.52c.58,2.87.87,5.77.76,8.7-1.7,0-3.66,1.08-4.61-1.3-.45-1.14-.74-2.92-1.79-4.18.52-1.02.73-2.41,1.55-3.81.68-1.17,2.77.59,4.09.59Z"/>
    <path class="cls-42" d="M59.17,30.73l-.23-10.41c-.07-3.29-.6-6.87,1.19-11.01,1.2-2.3,1.69,26.06-.96,21.42Z"/>
    <path class="cls-27" d="M34.33,5.89c-.76-.04-1.54.34-2.29.2-1.02-.19-3.57.16-3.08-1.49.67-.41.1-2.6,1.17-3.59,1.3-1.2,2.54.23,3.03,1.58.29.78.81,1.89,1.17,3.32Z"/>
    <path class="cls-18" d="M52.31,28.82c-2.81-.15-2.01-3.81-2.11-6.04-.06-1.39-.49-5,2.3-4.04-.03,3.2-.71,6.95-.2,10.08Z"/>
    <path class="cls-34" d="M55.63,11.21c1.08,2.2,1.72,5.31,0,7.1-.48.13-1.25-.07-1.64.29.92-1.91-2.61-7.79,1.64-7.39Z"/>
    <path class="cls-46" d="M57.33,20.25l-1.71-1.94v-7.1c3.09,1.86,1.51,6.04,1.71,9.04Z"/>
    <path class="cls-6" d="M32.56,27.18v8.87c-.39,4.19-1.57,5.96-3.55,5.32l-2.97.2c.13-5.9-.66-11.29-2.35-16.17,0-3.11-.79-6.45,1.55-8.86,1.51-1.56,2-3.96,3.77-5.34,1.26,5.09,2.44,10.41,3.55,15.97Z"/>
    <path class="cls-21" d="M29.01,41.38c1.55.5,1.53,1.1,0,1.77.51,4.14-1.26,4.73-5.32,1.77v-19.52c7.08,1.68.7,12.68,5.32,15.97Z"/>
    <path class="cls-48" d="M29.01,43.15c3.62.41,3.45,6.83,1.17,9.23-1.25.61-2,.92-2.36.24-1-1.85.04-4.14-1.36-5.97-1.49,1.19-.78,3.3-2.38,3.88l-.39-5.61c1.63-.96,3.45-1.51,5.32-1.77Z"/>
    <path class="cls-4" d="M32.56,27.18c-5.08-3.48-3.31-10.39-3.55-15.97h1.77c2.53,3.18,1.77,11.46,1.77,15.97Z"/>
    <path class="cls-25" d="M32.07,55.79c-1.02-.87-1.62-2.11-1.88-3.42.66-3.14.72-6.51-1.17-9.23v-1.77l3.55-5.32c0,6.59.43,13.21-.49,19.74Z"/>
    <g>
      <path class="cls-49" d="M39.5,83.8c4.81-1.48,10.17-2.03,10.44,3.9,6.68-.58,5.5,8.51-.18,10.78,1.06,5.62.51,14.26-6.42,8.66-2.45,1.73-3.68,1.06-3.69-2.03-4.8,4.77-13.05-5.22-12.36-10.1l-5.36,3.39c4.47,4.62-2.16,11.71-5.17,4.74-3.71.46-4.73-3.12-1.97-5.29.82-4.15.9-5.21-2.72-7.82-3.07,3.75-6.44,1.75-7.65-2.63.91-1.92.75-4.34,2.96-4.72-.56.1,12.77-.39,13.13-.24,1.81.74,2.21,3.26,3.9,4.74,3.12,2.74,4.54-3.7,6.33-4.16,2.92.7,6.04,2.84,8.76.77Z"/>
      <path class="cls-8" d="M12.06,90.05c2.48.66,2.49,1.08-.03,1.27l1.47,10.73-2.23,1.43c.34,3.07,1.11,5.88,2.31,8.44,3.17.78,2.69,1.78-.53,2.21-.87,2.7-1.46,5.66-1.78,8.88C-5.09,118.73-.09,96.85,4.41,87.42c2.79-.07,5.32,1.18,7.65,2.63Z"/>
      <path class="cls-28" d="M64.76,95.57c1.11,4.41,1.29,11.9-.27,16.77-1.49.63-25.99,1.38-26.13-.05-.04-.43,3.6-7.24,4.98-5.15,4.43-.83,1.48-1.24,6.42-8.66l3.79,1.33c3.39-2.67,6.63-4.05,9.7-4.13.61-.85,1.2-1.43,1.51-.11Z"/>
      <path class="cls-17" d="M36.11,117.67c2.96,1.89,5.44,1.71,7.1,0,.45-1.47,2.61-1.28,3.55,0,.44-1.5,3.99-1.32,5.32,0,2.19,1.63,6.33,2.22,12.42,1.77,2.45-1.76,3.03,1.4,1.77,3.55-12.54-.28-25.11.63-37.6-.59-3.91-.8-4.98-2.38-3.21-4.73,3.13-1.25,7.55-1.31,10.65,0Z"/>
      <path class="cls-24" d="M36.11,112.35c1.28-1.49,2.47-3.27,3.55-5.32-1.55-.54-1.53-1.18,0-1.9,1.07.28,4.66-.21,3.69,2.03-.43.99-1.98,1.62-2.02,2.61-.27,6.49,14.71.41,13.4.66,2.58-.48,6.24,4.19,9.78,1.94.47-1.63,1.07-1.6,1.77,0v1.77c-16.69,1.48-36.18,1.45-53.23,0l.53-2.21,3.65-3.36c2.8.46,5.74-.64,8.8-3.3l2.42-.45c2.24,2.57,4.79,5.09,7.66,7.54Z"/>
      <path class="cls-39" d="M63.25,95.68c-2.46,3.44-3.69,6.67-8.66,6.16-1.18,2.38-2.47,2.61-3.27,1.55-1.67-2.23-2.22-3.33-1.56-4.9,2.32-2.04,4.41-3.93,6.26-5.65,1.04-4.11,6.96-6.11,10.73-6.5-2.08,4.52-4.61,6.22-3.5,9.35Z"/>
      <path class="cls-13" d="M66.27,114.12c1.06,0,1.89.84,1.77,1.77-.56,4.69-2.21,4.49-3.55,0-4.9,1.53-12.66,1.43-17.74,0-7.11,1.54-17.35,1.61-24.84,0-1.64,1.51-6.61,1.33-8.87,0-1.61-.44-1.57-1.03,0-1.77h53.23Z"/>
      <path class="cls-39" d="M50.64,85.18c3.19,1.34,2.79,2.69-.7,2.52-1.55-.28-.77-1.94-2.48-3.78-.41,3.34.24,6.41-1.18,10.83-5.69-3.54-.67-11-6.79-10.95,1.79-1.36,4.01-2.6,6.28-2.86,2.51-.29,3.73,2.7,4.87,4.24Z"/>
      <path class="cls-32" d="M56.02,92.83c-.78,3.09-2.22,5.31-6.26,5.65,1.06-1.6,3.26-4.08,2.97-5.65-.33-1.76-2.6-3.18-2.78-5.13l.7-2.52c2.09-.9,3.9-.71,4.61.68,1.23,2.38,1.46,5.35.76,6.97Z"/>
      <path class="cls-26" d="M13.04,114.12c-.14.56,0,1.19,0,1.77,1.57.33,1.5.93,0,1.77,5.27.08,4.84,3.51.28,5.04-.65,0-1.44.46-2.06.29-1.53-1.25.31-4.81-.67-6.27-3.67-2.48-9.15-4.03-7.85-10,3.91,2.94,5.71,7.39,10.3,7.39Z"/>
      <path class="cls-36" d="M21.91,117.67c.52-1.17,1.11-1.14,1.77,0,1.66,1.15.97,2.8-2.1,4.94l-8.27.1-.28-5.04c1.72-1.53,6.73-1.31,8.87,0Z"/>
      <path class="cls-15" d="M66.27,112.35c-.52.18-1.32-.29-1.77,0l.27-16.77c-.66-1.01.33-1.22,1.42-.73l.09,17.5Z"/>
      <path class="cls-38" d="M28.68,122.4c-2.33-.23-4.75.18-7.08.21-.38-.64-1.62-1.83-1.1-2.26l3.2-2.68c.25-1.26.87-1.15,1.77,0,1.43,1.31,2.83,2.77,3.21,4.73Z"/>
      <path class="cls-10" d="M68.05,115.9c-.24,1.92,1.31,7.17-1.77,7.1l-1.77-3.55c-1.55-.5-1.53-1.1,0-1.77-1.55-.5-1.53-1.1,0-1.77h3.55Z"/>
      <path class="cls-30" d="M39.65,105.12v1.9c-.61,1.76-1.79,3.54-3.54,5.32-1.7-.18-5.14.58-7.57-.16-1.87-.57-1.13-4.84-2.51-6.94-2.96-1.43-3.17-3.75-2.25-6.68-1.78-2.9-.11-6.08,3.51-3.54,4.22,2.78,7.98,7.95,12.36,10.1Z"/>
      <path class="cls-1" d="M23.78,98.57c1.29.54,2.32,1.44,2.98,2.52.83,1.36-1.21,3.28-.73,4.17l-.93,6.95c-4.28.75-7.88-.37-11.52-.29-1.25-.46-1.19-.97.09-1.53-.24-5.72.79-8.13,3.08-7.23,3.41,1.96,3.3-3.13,5.17-4.74.65-1.5,1.27-1.43,1.85.15Z"/>
      <path class="cls-43" d="M14.79,97.87c1.03,1.55,1.13,3.64,1.97,5.29-1.6,2.17-.85,5.49-3.08,7.23-1.31-1.07-2.11-3.38-2.4-6.91-.24-2.55-1.73-13.9.76-12.16,4.01-1.17,4.22,3.6,2.76,6.55Z"/>
      <path class="cls-2" d="M14.79,97.87c-1.36-2.04-.81-4.96-2.76-6.55,1.12-.26.9-.73.03-1.27,1.58,1.46,2.01-.97,3.5-3.97,1.17,3.31,3.58,9.93-.77,11.79Z"/>
      <path class="cls-22" d="M27.29,95.03l-3.51,3.54-1.85-.15c.73-2.34-1.29-5.3.04-8.36,2.36,1.22,3.5,3.76,5.33,4.96Z"/>
      <path class="cls-26" d="M13.67,110.38c.09.48.02,1.06-.09,1.53-4.17.1-2.03-5.52-2.31-8.44,2.27,1.46,1.96,4.49,2.4,6.91Z"/>
      <path class="cls-41" d="M46.75,115.9c1.55.5,1.53,1.1,0,1.77h-3.55c-.44,2.54-5.29,1.7-7.1,0-3.55.19-7.11.37-10.65,0-.58-.06-1.19,0-1.77,0h-1.77c-1.55-.5-1.53-1.1,0-1.77h24.84Z"/>
      <path class="cls-3" d="M64.5,117.67v1.77c-3.41,2.04-7.5,2.4-12.09,1.46-.62-1.41-.42-2.41-.33-3.23,3.13-1.51,9.11-1.39,12.42,0Z"/>
      <polygon class="cls-44" points="64.5 115.9 64.5 117.67 52.08 117.67 46.75 117.67 46.75 115.9 64.5 115.9"/>
      <path class="cls-16" d="M43.21,117.67c.4,2.83-.3,3.32-2.7,2.87-2.13-.4-4.11-.29-4.4-2.87h7.1Z"/>
      <path class="cls-50" d="M39.66,107.03c0,1.25.32,2.67-.14,4.25-.37,1.31-2.12,1.21-3.41,1.07.56-1.16.8-2.49.61-3.66-.32-1.93,1.5-1.92,2.94-1.67Z"/>
      <path class="cls-35" d="M21.91,115.9v1.77h-8.87c-.03-.59,0-1.19,0-1.77h8.87Z"/>
    </g>
  </g>
</svg>