<?xml version="1.0" encoding="UTF-8"?>
<svg id="Objects" xmlns="http://www.w3.org/2000/svg" viewBox="0 0 130.76 138.55">
  <defs>
    <style>
      .cls-1 {
        fill: #484f57;
      }

      .cls-2 {
        fill: #9da2a8;
      }

      .cls-3 {
        fill: #363d46;
      }

      .cls-4 {
        fill: #575e66;
      }

      .cls-5 {
        fill: #b3b7bb;
      }

      .cls-6 {
        fill: #474e56;
      }

      .cls-7 {
        fill: #3b434b;
      }

      .cls-8 {
        fill: #535a61;
      }

      .cls-9 {
        fill: #7f848b;
      }

      .cls-10 {
        fill: #3c434c;
      }

      .cls-11 {
        fill: #3e444c;
      }

      .cls-12 {
        fill: #646971;
      }

      .cls-13 {
        fill: #80858b;
      }

      .cls-14 {
        fill: #5f666d;
      }

      .cls-15 {
        fill: #30343d;
      }

      .cls-16 {
        fill: #6a6f78;
      }

      .cls-17 {
        fill: #464d55;
      }

      .cls-18 {
        fill: #40474e;
      }

      .cls-19 {
        fill: #31383f;
      }

      .cls-20 {
        fill: #8c8f95;
      }

      .cls-21 {
        fill: #b3b5b9;
      }

      .cls-22 {
        fill: #575c65;
      }

      .cls-23 {
        fill: #40474f;
      }

      .cls-24 {
        fill: #292e37;
      }

      .cls-25 {
        fill: #272d35;
      }

      .cls-26 {
        fill: #9ea3a9;
      }

      .cls-27 {
        fill: #232a32;
      }

      .cls-28 {
        fill: #9a9fa8;
      }

      .cls-29 {
        fill: #373e46;
      }

      .cls-30 {
        fill: #2e373e;
      }

      .cls-31 {
        fill: #555c64;
      }

      .cls-32 {
        fill: #535961;
      }

      .cls-33 {
        fill: #353941;
      }

      .cls-34 {
        fill: #acafb3;
      }

      .cls-35 {
        fill: #4f555d;
      }

      .cls-36 {
        fill: #a8abb0;
      }

      .cls-37 {
        fill: #9b9ea3;
      }

      .cls-38 {
        fill: #5e636b;
      }

      .cls-39 {
        fill: #2c3239;
      }

      .cls-40 {
        fill: #414851;
      }
    </style>
  </defs>
  <path class="cls-27" d="M55.8,108.63c-4.11-4.73-3.59-6.04,1.56-3.93,3.45.08,3.55,4.45,2.06,7.22,2.7-.03,2.51,2.46,0,3.55-2.22,8.47,9.05,17.91,12.42,23.07h-22.94c.75-3.71-4.47-5.31-5.65-8.47-2.75-7.38-4.73-14.15-11.76-18.81-2.3-1.52-13.78-14.55-7.38-13.79l4.04-1.69c7.64,6.71,17.85,13.94,27.65,12.85Z"/>
  <path class="cls-25" d="M9.75,0c6,5.71,8.86,11.63,8.59,17.73l2.14,2.77c-12.19,20.77-10.39,45.38,2.18,64.56l-2.14,3.49c-.14,1.64-.85,1.78-2.09.56-4.3-.14-5.72-4.88-8.44-7.28.48-24.12-9.67-24.57-3.26-43.07,1.77-5.12-.81-12.33,2.7-18.02,2.44-3.96-3.74-11.21-5.67-8.9,1.06,3.13,4.89,3.72,2.23,6.84C2.13,13.88-1.64,8.13.75,3.3L2.37.02c1.43.57,2.76,3.06,4.69,3.21,1.04.08,1.87-2.71,2.69-3.23Z"/>
  <path class="cls-39" d="M25.26,21.19c-10.14,11.85-10.49,28.29-7.97,43.36,1.62.43,1.5.88-.2,1.35l6.85,14.09c5.44,1.87,1.65,5.66.42,2.71-1.08-2.58,4.22-3.73,2.92,2.26l-.34,1.83c-2.01,2.72-4.39,4.91-6.42,1.76-6.16-19.75-17.39-28.98-7.97-53.41,1.62-4.2,1.21-8.78,4.79-12.47.88-.91-1.34-4.73,1.01-4.94-.1-2.95.53-3.38,1.88-1.3,1.21.76,3.49,1.58,5.32,2.28.78.3.62,1.17-.27,2.48Z"/>
  <path class="cls-33" d="M43.47,90.81c3.1-4.63,11.73.25,11.39,5.48,1.52.44,1.51,1.05.06,1.82,2.87,8.72-2.95,6.65-9.83,3.43-6.87-3.22-15.08-9.48-17.82-16.57-1.1-1.26-2.72-.82-5.2-2.15,2.06-1.05,2.33-1.35,1.86-2.82-2.87-4.39-5.16-9.08-6.85-14.09.07-.41.32-.97.2-1.35.34-1.39.86-1.4,1.57-.11.65-.49,1.11-1.21,1.59-1.86l3.83,8.24c4.19,9.02,11.1,16.09,19.2,19.98Z"/>
  <path class="cls-7" d="M107.36,35.77c-.96.92-1.47,2.22-1.71,3.51l-8.83-8.7c-8.67-7.4-18.61-13.29-29.81-17.66l1.26-2.68c7.55-3.57,14.07,2.59,20.9,5.8,9.34,4.38,15.34,10.34,18.17,19.73Z"/>
  <path class="cls-24" d="M55.8,108.63c.08,2.35,2.3,4.03.08,7.48-3.18-5.46-7.72-4.9-12.34-6.69-6.83-2.66-13.46-8.52-19.44-11.94-.37-.47-.81-2-1.77-1.73-3.5-4.01.28-7.58,5.02-6.92,8.95,8.86,18.29,13.7,28.01,14.53l.44,5.28Z"/>
  <path class="cls-13" d="M26.93,86.79c1.56.28,1.66.97.42,2.04-2.55,1.55-4.39,3.99-5.02,6.92-1.4.4-2.4,1.75-4.06,1.85.69-3.27,1.03-5.91.15-8.48.67-.28,1.4-.36,2.09-.56,2.13-.63,4.25-1.28,6.42-1.76Z"/>
  <path class="cls-15" d="M54.91,98.11c.54-3.05,1.36-3.38,2.3-.28,1.6.77,1.43,2.02.43,3.46,2.7.28,2.47,3.13-.29,3.42-1.57-.06-1.6,2.73-1.56,3.93-2.03-3.65-6.32-3.08-10.08-4.54-7.6-2.96-14.34-8.75-18.37-15.26-.31-.5-.31-1.45-.42-2.04s.36-1.23.34-1.83c5.54,6.32,12.95,11.38,20.19,15.53.99-.94,1.9-2.51,2.26-2.16.77.76,1.1,2.87,2.02,4.28,2.5-.2,1.48-3.37,3.19-4.51Z"/>
  <path class="cls-9" d="M61.19,110.16l-1.77,1.77c.18-2.58-.58-5.12-2.06-7.22l.29-3.42,1.77-1.77c.5-1.55,1.1-1.53,1.77,0v10.65Z"/>
  <path class="cls-11" d="M32.71,30.5l1.43,2.25c-7.75,15.01-6.08,33.65,6.17,45.63,3.49-.39,10.43,4.68,12.43,8.15,5.84-3.45,5.74,6.87,2.11,9.77l-11.39-5.48c-17.47-19.16-27-34.94-12.46-60.27l1.7-.04Z"/>
  <path class="cls-7" d="M68.29,10.24c1.37,2.97-.14,4.38-4.51,4.25-2.18,3.2-4.71,4.04-7.58,2.53-5.06,1.6-9.75,3.87-14.07,6.81-3.15,4.14-6.29,6.36-9.42,6.66l-1.7.04c7.5-13.07,21.15-24.71,37.27-20.3Z"/>
  <path class="cls-30" d="M23.93,79.99c-4.49-3.12-7.74-8.57-6.85-14.09,4.53,3.11,5.26,9.11,6.85,14.09Z"/>
  <path class="cls-37" d="M66.98,78.15c.22,1.73-.53,2.43-2.24,2.08-.17,2.05-.93,4.12-2.27,6.2-1.85.56-2.94,2.51-3.26,5.84-.35,2.34-1.02,4.19-2,5.55l-2.3.28c.09-.57-.21-1.27-.06-1.82.97-3.5,1.4-7.77-2.11-9.77-2.86-1.25-4.35-3.63-2.37-6.35.61-3.16,3.51-3.82,8.71-1.98-.83-3.92,1.61-5.75,7.34-5.47-.2-2.94,1.97-3.94,3.28-.87,4.72,1.56,1,5.83-2.73,6.3Z"/>
  <path class="cls-23" d="M96.83,30.58l-3.78-.27c-3.2.87-6.78-.4-10.73-3.81-.49-2.88-3.15-4-7.98-3.38-4.2-3.01-8.41-3.98-12.63-2.89,1.42.75,1.2,1.27-.48,1.59-22.26.74-34.55,26.03-24.32,45.91,6.32,8.36,7.45,11.92,3.41,10.66-.92-.46-3-.48-4.02-1.87-10.27-13.95-10.03-30.92-3.58-46.01,20.86-22.41,15.1-7.71,35.57-20.26,1.85,6.79,19.67,2.85,28.54,20.34Z"/>
  <path class="cls-17" d="M93.05,30.3c-.92-.55,12.76,16.59,5.4,14.2-2.92.28-6.36-.53-8.87-1.77-2.51,1.39-3.8-.66-3.86-6.13-4.9-2.79-9.48-5.97-13.73-9.54-3.25,10.64-12.27.18-10.28-6.85.8-1.82,2.16-4.61,3.97-5.15,5.79,3.09,12.29,5.73,18.21,8.29,3.58,1.55,5.94,5.01,9.16,6.95Z"/>
  <path class="cls-6" d="M93.67,67.83c3.9-3.72,4.83-4.13,3.19,1.52-.78,2.04-1.5,4.96-2.01,7.1-1.47,6.12-7.91,8.2-12.36,12.42-2.73,1.63-5.95-2.24-5.32-5.32-4.88-1.97-2.98-4.83,5.69-8.57,2.34-4.47,5.95-6.85,10.82-7.15Z"/>
  <path class="cls-1" d="M96.86,69.35c.29-.74-.92-1.5-1.61-1.69-.49-.14-.93-.06-1.58.18-3.56-1.09-2.96-2.59.92-2.03l-.62-3.07c-6.6-4.82-9.94-17.68,1.03-16.16-2.03-2.82.8-3.57,3.46-2.06,5.46,7.4,1.52,16.76-1.59,24.84Z"/>
  <path class="cls-6" d="M73.61,88.86l-.07,2.41c-4.63.1-8.75,1.07-12.35,2.91-.29,1.72,0,3.57,0,5.32h-1.77c-1.88-1.52-1.2-4.96-.21-7.23-.29-2.32-.8-6.13.44-8.93.7-1.57,2.79-2.6,5.09-3.11,1.09-.51,2.3-.26,3.63.77,8.28-3.28,8.21,2.14,5.24,7.86Z"/>
  <path class="cls-18" d="M73.61,88.86c-.02-3.18,1.16-3.18,3.55,0,2.46-1.58,3.38-.5,1.96,2.11-.63,6.18-13.24,1.38-16.02,4.6-.25-.75-1.22-1.21-1.91-1.38.4-2.37-1.26-5.03.59-6.79,3.99,3.46,8.51,1.98,11.83,1.46Z"/>
  <path class="cls-26" d="M82.48,88.86v1.77c-.82-.52-2.49.13-3.36.34-.35-.74-.96-2.08-1.96-2.11-3.5-.48-3.65-5.81,0-5.32,1.73,1.83,3.12,4.02,5.32,5.32Z"/>
  <path class="cls-2" d="M59.41,99.51c-.56.62-1.15,1.21-1.77,1.77.1-1.14-.58-2.32-.43-3.46.23-1.84-.05-4.84,2-5.55.3,2.39.12,4.83.21,7.23Z"/>
  <path class="cls-3" d="M113.95,29.04c1.97,2.56.45,4.17-4.58,4.82l-2.01,1.91-2.65-.5c-7.91-14.14-20.82-21.6-36.43-25.03-16.18,1.79-27.31,7.14-37.27,20.3-9,21.07-5.7,41.21,12.7,55.69l-.24,4.58c-6.61,3.06-14.22-6.99-17.39-11.86-.61-.94-6.69-13.37-7.01-14.53-.12-.45.52-1.11,1.38-1.82-1.21-2.6.8-6.43-.06-9.21-.81-4.13-.62-8.92,1.78-12.53,2.96-14.34,12.16-27.95,27.51-32.51,28.75-8.55,36.33.01,57.6,14.41,2.59,1.76,3.35,5.98,6.68,6.3Z"/>
  <path class="cls-40" d="M96.83,30.58c4.55-3.65,8.92,4.34,8.83,8.7,3.43,3.38.09,9.95-.71,13.7-.87,4.12,2.12,7.91,0,11.84-2.09,3.88-2.88,7.67-2.94,11.36-2.65,4.97-7.42,7.23-7.16.27-4.98-2.3-2.12-4.77,2.01-7.1l-1.05-2.34c2.58-5.56,2.76-11.98.52-19.26l2.12-3.23c.92-1.54-.1-2.92-3.05-4.14-3.03-3.97-3.81-7.33-2.35-10.07-.73-3.06.52-2.97,3.78.27Z"/>
  <path class="cls-19" d="M63.1,95.57c4.71,1.13,8.16,3.05,10.36,5.77,6.13.98,12.48-2.66,19.06-.75,6.47,9.14-28.87,3.81-29.55,9.57-.5,1.55-1.1,1.53-1.77,0-1.86-2.48-3.22-8.51,0-10.65-1.4-1.53-1.48-3.84,0-5.32,1.82-3.24,3.19-2.32,1.91,1.38Z"/>
  <path class="cls-29" d="M82.48,90.64c5.77-3.8,9.23-3.97,10.39-.5,9.06,6.97-22.38,8.99-19.42,11.2-2.47-.39-5.35.55-8.51-.61-2.03-.75-1.41-3.82-1.85-5.16-2.26-3.47-.06-4.68,6.58-3.65,3.23-.42,6.38-.73,9.44-.95-.94-3.6,1.46-3.02,3.36-.34Z"/>
  <path class="cls-10" d="M102.01,76.18c-.1,6.07-8.87,9.6-9.14,13.96-2.8-.62-5.21,1.04-7.39,3.86-1.6-.77-1.87-2.63-3-3.36-1.55-.5-1.53-1.1,0-1.77-1.37-5.72,7.38-11.05,12.36-12.42,2.22,1.71,5.04,1.52,7.16-.27Z"/>
  <path class="cls-30" d="M25.26,21.19c-7.4,23.11-11.48,13.68-6.4,43.25-.44.33-1.08.19-1.57.11-7.61-25.36,5.53-45.23,6.79-44.56.48.26.56.73,1.18,1.19Z"/>
  <path class="cls-5" d="M109.38,33.86c1.61-1.52,3.21-3.07,4.58-4.82,5.49.07,9.7-4.79,16.81-3.5-5.33,5.6-14.24,9.8-21.39,8.32Z"/>
  <path class="cls-20" d="M20.21,16.43c-.13.98-1.07,1.23-1.88,1.3.03-6.69-8.15-7.93-8.59-17.73,7.07,1.94,10.41,9.32,10.46,16.43Z"/>
  <path class="cls-33" d="M20.38,53.38c-3.16-3.75-3.07-10.48,1.78-12.53.54,4.28-.32,8.5-1.78,12.53Z"/>
  <path class="cls-4" d="M59.41,115.48c.29-1.1-.08-2.41,0-3.55.09-1.41.68-2.01,1.77-1.77h1.77c-.32,3.28.73,6.45-.57,10.75-1.53-1.81-1.32-4.07-2.98-5.43Z"/>
  <path class="cls-28" d="M121.41,73.95c-1.38,1.09-6.23,1.78-7.03-.7-.67-2.07,2.01-2.71,2.66-2.15.5.43.94,1.68,4.37,2.85Z"/>
  <path class="cls-6" d="M61.22,21.8c3.54,2.31,2.62,4.66-1.94,3.24l-2.34,2.52c-23.52,6.61-24.08,36.62-6.4,50.21l-.18,2.4c2.18.51,2.55,4.71,2.37,6.35-5.02-.77-9.75-3.83-12.43-8.15,1.86.28,1.72-1.89-.16-2.04-13.64-15.41-12.71-37.81,3.75-51.45,3.4-2.81,9.18-2.4,12.73-6.84,2.33.93,3.07,2.64,4.59,3.76Z"/>
  <path class="cls-35" d="M59.28,25.04c4.45,2.04,3.5,5.12-1.43,5.35l-1.17,3.56c-18.93,4.81-18.17,37.04,1.49,39.33,0,0,.3,1.64.91,4.91-2.8,1.1-5.59,2.12-8.71,1.98-6.13-1.44-16.94-17.89-14.25-32.88,2.18-12.18,16.64-26.1,23.16-22.25Z"/>
  <path class="cls-22" d="M57.82,33.95c5.85,1.16,3.67,4.66-6.52,10.5-4.69,8.05-4.15,20.86,6.34,23.12,4.21-1.39,6.54,0,6.97,4.17,1.14-1.25,1.72-.85,1.82.98-1.15,3.34-4.37,4.31-7.34,5.47-2.75-2.56-6.56-3.26-10.75-4.85-5.11-7.12-8.77-15.77-7.71-24.46,1.26-10.31,8.27-16.44,17.22-18.49,4.54.6,4.17,1.97-.04,3.56Z"/>
  <path class="cls-8" d="M87.96,63.95c3.61-4.05,5.65-3.5,6.63,1.85-.71.32-.95,1.35-.92,2.03-.36,1.02-.21,1.96-.61,2.51-1.14,1.56-3.66,1.9-4.1-2.85-.1-.72.23-.05.74,1.47-6.25,15.31-12.27,7.44-12.53,14.58-2.06,1.27-1.5,3.61,0,5.32-1.11-.03-2.45-.17-3.55,0-.28-2.08.73-4.08-.64-7.22-1.31,1.97-2.42,3.63-4.1,2.64-2.06-1.22-3.68-2.22-4.13-4.06.67-.78,1.41-1.48,2.24-2.08,7.54-3.27,12.97-8.13,16.3-14.59l4.69.39Z"/>
  <path class="cls-31" d="M87.96,63.95c-8.73,2.05,3.53,5.33-13.17,12.03-2.81,1.13-5.11,5.03-7.81,2.18l2.73-6.3c2.29-3.94,5.6-7.23,9.93-9.88,2.22-5.8,9.28-4.22,8.32,1.98Z"/>
  <path class="cls-34" d="M71.99,27.07c4.19.91,8.21,8.81,4.85,12.14,2.58,2.41,2.03,3.51-1.63,3.31-2.99-1.08-6.21-2.84-9.67-5.25-2.84,1.49-7.1.4-7.72-3.3.01-1.02-.34-2.63.04-3.56.71-1.75.52-3.84,1.43-5.35l1.94-3.24c.26-.43.27-1.09.48-1.59,3.59-.63,2.59,6.84,5.85,7.72,1.18.32,3.1-.41,4.43-.87Z"/>
  <path class="cls-32" d="M89.58,42.73c1.59.56,1.58,1.15,0,1.77-3,6.95-12.89,1.65-12.74-5.3-2.61-3.5-4.59-7.92-4.85-12.14,2.72-.96,5.27-2.37,8.91-1.88-.78,1.72-2.36,1.73-2.92,3.53,5.2,1.49,10.31,4.05,13.28,9.19-.19,2.15-3.68,3.27-1.68,4.82Z"/>
  <path class="cls-36" d="M98.45,44.51c-1.47.03-2.4,1.27-3.46,2.06-3.3,2.09-4.2,1.91-5.42-2.06-.1-.5.21-1.37,0-1.77,2.77.78,7.22-2.01,8.87,1.77Z"/>
  <path class="cls-21" d="M89.58,44.51c2.08-.01,4.63-.4,5.42,2.06-11.83,8.91,9.66,14.71-.41,19.23-2.07-1.04-4.35-1.49-6.63-1.85-2.3-1.99-5.4-2.13-8.32-1.98l-.61-6.97-3.72-1.56c-.9-3.79-.93-7.44-.09-10.92.32-1.14.04-3.28,1.63-3.31,2.99,4,8.09,5.33,12.74,5.3Z"/>
  <path class="cls-14" d="M79.64,61.97c.51,5.78-4.65,8.85-9.93,9.88-1.1.21-2.14.82-3.28.87-.58-.38-1.19-.7-1.82-.98-3.32-5.42,1.06-8.57,5.92-10.72,2.36-4.77,5.19-6.78,8.49-6.02,5.17-.46,5.47,5.4.61,6.97Z"/>
  <path class="cls-12" d="M75.21,42.51c2.71,3.7,3.4,7.77,3.82,12.49-10.37,17.43-7.48,3.93-14.41,16.74-.49.93-1.93,1.35-2.5.37-.27-.47.07-1.88-.87-2.2-1.33-.46-2.87,1.25-3.39,0-.35-.83-.19-1.71-.22-2.34-9.51-.92-11.57-15.74-6.75-22.55.94-1.32,12.25-8.36,13.03-8.28,3.44.38,8.29,4.52,10.62,7.12.11.12-2.73-.12.67-1.35Z"/>
  <path class="cls-38" d="M75.21,42.51c-.25.9.67,2.11-.5,3.78-3.05-2.28-6.13-6.07-10.13-7.07-3.58,7.58-13.54.39-12.89,15.98.25,5.94,1.8,10.25,9.65,10.97-.98,1.62-2.53,1.2-3.7,1.4l-3.14,3.02c-5.44-4.4-10.08-9.77-9.16-16.32,2.57-18.34,10.63-15.26,13.12-17.95.48-.52-.65-1.45-.64-2.37,7.2-.71,13.28,2.95,17.39,8.56Z"/>
  <path class="cls-16" d="M60.83,63.85c-4.46-4.18-6.15-8.49-4.2-13.06l9.84-4.2c3.06,2.85,4.91,6.76,3.84,10.32-1.12,3.69-4.67,6.76-9.48,6.95Z"/>
</svg>