<?xml version="1.0" encoding="UTF-8"?>
<svg id="Objects" xmlns="http://www.w3.org/2000/svg" viewBox="0 0 68.1 127.32">
  <defs>
    <style>
      .cls-1 {
        fill: #816694;
      }

      .cls-2 {
        fill: #9f83af;
      }

      .cls-3 {
        fill: #664071;
      }

      .cls-4 {
        fill: #1e2366;
      }

      .cls-5 {
        fill: #4d2c62;
      }

      .cls-6 {
        fill: #684171;
      }

      .cls-7 {
        fill: #57376c;
      }

      .cls-8 {
        fill: #8f5e7e;
      }

      .cls-9 {
        fill: #a67cac;
      }

      .cls-10 {
        fill: #52336b;
      }

      .cls-11 {
        fill: #a27aa3;
      }

      .cls-12 {
        fill: #423267;
      }

      .cls-13 {
        fill: #b4788d;
      }

      .cls-14 {
        fill: #181b67;
      }

      .cls-15 {
        fill: #715685;
      }

      .cls-16 {
        fill: #2b2f75;
      }

      .cls-17 {
        fill: #4c2c65;
      }

      .cls-18 {
        fill: #956281;
      }

      .cls-19 {
        fill: #212667;
      }

      .cls-20 {
        fill: #222768;
      }

      .cls-21 {
        fill: #6f4a77;
      }

      .cls-22 {
        fill: #684271;
      }

      .cls-23 {
        fill: #6c4977;
      }

      .cls-24 {
        fill: #704c79;
      }

      .cls-25 {
        fill: #b4778b;
      }

      .cls-26 {
        fill: #b88190;
      }

      .cls-27 {
        fill: #623f6f;
      }

      .cls-28 {
        fill: #735789;
      }

      .cls-29 {
        fill: #89577c;
      }

      .cls-30 {
        fill: #6d4876;
      }

      .cls-31 {
        fill: #9d81ab;
      }

      .cls-32 {
        fill: #674574;
      }

      .cls-33 {
        fill: #b994ab;
      }

      .cls-34 {
        fill: #755b8a;
      }

      .cls-35 {
        fill: #704a77;
      }

      .cls-36 {
        fill: #634176;
      }

      .cls-37 {
        fill: #6d4976;
      }

      .cls-38 {
        fill: #764e79;
      }

      .cls-39 {
        fill: #8d5f80;
      }

      .cls-40 {
        fill: #c09bb2;
      }

      .cls-41 {
        fill: #675282;
      }

      .cls-42 {
        fill: #7d5d8b;
      }

      .cls-43 {
        fill: #252665;
      }

      .cls-44 {
        fill: #714d78;
      }

      .cls-45 {
        fill: #38424c;
      }

      .cls-46 {
        fill: #3d2c58;
      }

      .cls-47 {
        fill: #8e597b;
      }

      .cls-48 {
        fill: #292663;
      }

      .cls-49 {
        fill: #6b5386;
      }

      .cls-50 {
        fill: #6c4975;
      }

      .cls-51 {
        fill: #6a4e7d;
      }

      .cls-52 {
        fill: #714d79;
      }

      .cls-53 {
        fill: #613f6f;
      }

      .cls-54 {
        fill: #6d4a76;
      }

      .cls-55 {
        fill: #492963;
      }

      .cls-56 {
        fill: #9c7ca5;
      }

      .cls-57 {
        fill: #7a537d;
      }

      .cls-58 {
        fill: #232869;
      }

      .cls-59 {
        fill: #c77181;
      }

      .cls-60 {
        fill: #29296b;
      }

      .cls-61 {
        fill: #663d6b;
      }

      .cls-62 {
        fill: #a388b6;
      }

      .cls-63 {
        fill: #82587c;
      }

      .cls-64 {
        fill: #735a8a;
      }

      .cls-65 {
        fill: #8a7095;
      }

      .cls-66 {
        fill: #704d7b;
      }

      .cls-67 {
        fill: #7a608e;
      }

      .cls-68 {
        fill: #87587e;
      }

      .cls-69 {
        fill: #9e7eaa;
      }

      .cls-70 {
        fill: #79557e;
      }

      .cls-71 {
        fill: #98759c;
      }

      .cls-72 {
        fill: #3d2c5e;
      }

      .cls-73 {
        fill: #b5798f;
      }

      .cls-74 {
        fill: #b48497;
      }

      .cls-75 {
        fill: #956182;
      }

      .cls-76 {
        fill: #b8858e;
      }

      .cls-77 {
        fill: #644171;
      }

      .cls-78 {
        fill: #745d8c;
      }
    </style>
  </defs>
  <path class="cls-10" d="M37.84,79.3c.76-10.69,1.34-21.36,1.73-32.02.52-1.2,1.11-1.18,1.77,0l3.54,1.6-.19,26.56c2.75.41,4.58,1.69,5.48,3.84l1.34-2.27c.7-7.3,1.45-15.43,2.25-24.41-5.07-.11-4.85-4.12,0-5.32.52-1.22,1.11-1.2,1.77,0,1.79,6.76,1.3,15.77,0,23.07l2.76-.53c2.58,2.62,5.24,5.17,7.97,7.63.02,1.46.85,3.46,1.19,4.73-1.62,4.32-2.42,3.78-4.44.01-13.28,2.22-28.09,1.71-41.19.58-2.78.69-5.74,1.28-8.87,1.77-1.11-.02-1.26-1.1-1.77-1.77.31-1.21,1.77-2.31,1.77-3.55.76-1.44,1.35-1.32,1.77.3,1.36-4.62,7.45-4.92,8.87-.15.81-10.7,1.4-21.39,1.78-32.08.59.06,1.18,0,1.77,0l3.55,1.57.12,27.28c3.24-.3,5.51-.24,7.03,3.17Z"/>
  <path class="cls-59" d="M64.42,4.92c-17.26.23-34.62.82-52.08,1.76l-1.16-1.98c.13,3.44-2.85,3.1-3.54-.1l-1.78.1C7.71,1.47,11.97,0,16.47,0l35.63.02c4.92,0,9.41,2.21,12.32,4.91Z"/>
  <path class="cls-48" d="M67.96,15.34c-.5,1.55-1.1,1.53-1.77,0-2.39,1.08-5.46,1.36-9.21.84l-1.59,2.71c-3.76-2.03-8.44-3.21-14.04-3.55-.5,1.55-1.1,1.53-1.77,0-2.12,4.9-8.54,4.86-12.33,1.54-.68,1.61-1.31,1.59-1.86-.06-1.81,3.19-3.53,3.21-5.16.07-.47,3.6-2.9,3.68-7.26.22,1.55,4.55,1.68,9.65,0,14.19,1.55.5,1.53,1.1,0,1.77-3.64-5.32-2.47-13.41-.46-19.36-1.03-4.95,8.41-6.97,9.33-1.93.45-2.28,3.04-2.54,3.55,0,7.81-1.59,17.03-1.5,24.84,0,1.89-3.17,6.16-3.94,12.8-2.31l3.17-1.23c1.38.83,1.77,4.75,1.77,7.1Z"/>
  <path class="cls-7" d="M37.79,112.93c.66-5.95,1.25-11.87,1.77-17.74.59.05,1.19.01,1.77,0,3.98.22,3.71,2.26,0,3.55,5.01,1.6,4.23,2.68,0,5.32l1.77,8.87c.44-1.55,1.03-1.51,1.77,0,3.44-.86,6.39-2.63,8.87-5.32-2.56-3.02-2.93-10.13,0-12.42h1.77c.55,5.48,1.14,11.39,1.77,17.74,0-5.19,5.93-4.97,7.1,0,.5-1.55,1.1-1.53,1.77,0,1.13.52,1.1,1.12,0,1.77-13.72,1.03-27.79,1.37-42.2,1.02l-11.11,2.77c-1.8-1.45-1.45-3.77.06-5.33,2.35-4.78,8.76-5.73,10.66-.24.65-5.95,1.24-11.87,1.77-17.74.58.02,1.2-.06,1.77-.15,3.75,1.94,4.95,6.7,3.59,14.28,3.47-.53,5.82.68,7.05,3.61Z"/>
  <path class="cls-35" d="M37.79,94.97c1.53,4.95,1.43,12.6,0,17.96-3.24-.14-6.45.38-10.59-.17l-.06-17.72c3.53-.55,7.11-.67,10.65-.07Z"/>
  <path class="cls-21" d="M64.41,65.02c.56,2.03,1.16,4.39,1.79,7.1l.06,5.32c-2.04.42-4.13,4.39-7.62,1.79-1.48-1.11,2.14-4.98-.4-7.16-2.26,1.86.35,4.74-1.76,7.35-1.94-2.53-.99-6.57-.95-9.08.43-3.82,1.1-7.32,2.02-10.52-.1-10.24,1.85-13.5,5.84-9.78-1.01,5.3-.67,10.29,1.01,14.97Z"/>
  <path class="cls-50" d="M23.6,94.99c1.53,4.94,1.43,12.59,0,17.94l-10.66.24c.86-1.71,1.81-3.6,1.81-5.56-1.66-2.44-1.13-6.26-.02-8.87l.26-3.29c2.79-.94,5.77-1.28,8.62-.46Z"/>
  <path class="cls-78" d="M64.41,6.47c.9-.21,1.23,1.44,1.77,1.77.02.75.33,1.94-.08,2.58-.53.84-1.81,1.08-3.35,1.07l-12.55-.1c-7.77-1.55-17.02-1.55-24.84,0h-3.55c-3.8-1.66-4.37-4.12-.37-4.18,9.69.08,19.28-.3,28.76-1.14,3.56-2,9.85-.85,14.19,0Z"/>
  <path class="cls-36" d="M41.34,31.31c.5-1.55,1.1-1.53,1.77,0,1.51-.73,2.05-.05,1.77,1.77,2.93-5.54,5.06-7.61,8.87-1.77.59-.97,1.18-.97,1.77,0-.94-2.5.49-2.79,4.3-.86,3.85-1.65,5.96-.77,6.35,2.63.5-1.55,1.1-1.53,1.77,0,0,.58-.04,1.19,0,1.77-.47,4.48-2.29,4.37-3.55,0-3.72,1.52-10.29,1.41-14.19,0-7.12,1.6-17.26,1.31-24.84,0-1.55-.5-1.53-1.1,0-1.77l1.15-3.53c1.08,2.32,2.47,2.9,4.18,1.75,1.96-4.49,5.32-4.99,8.87-1.77l1.77,1.77Z"/>
  <path class="cls-28" d="M37.79,118.25c2.35,2.35,5.8,2.22,10.65,0,.53-1.51,2.69-1.24,3.55,0,2.37,1.6,6.51,2.19,12.42,1.77,2.73-.04,2.49,2.69,0,3.55H28.92c-2.81.2-2.57-4.68,0-5.32,1.7-1.55,6.74-1.32,8.87,0Z"/>
  <path class="cls-54" d="M50.21,105.83c4.32,4.66-.28,6.62-5.32,7.1-.58.08-1.19-.03-1.77,0l-1.77-8.87c-.2-1.75,0-3.56,0-5.32.94-1.65,3.3-2.88,7.1-3.68.59-.01,1.19-.02,1.77,0,2.8.68,2.77,9.53,0,10.78Z"/>
  <path class="cls-64" d="M21.82,84.54c7.07-1.54,17.57-1.78,24.84,0,3.42,5.69-14.06,3.72-14.34,1.93-.05-.32,6.3,1.2,3.69,3.42-3.55.07-7.11-.1-10.65.02-2.21-2.7-3.84-2.11-3.47.13l-1.59.07c-.52,2.52-5.12,2.43-5.58-.26-3.52-5.27,2.39-8.25,7.1-5.32Z"/>
  <path class="cls-26" d="M64.42,4.92v1.55c-4.3,1-10.11-1.43-14.21,0-13.56.26-26.57,1.44-39.04,3.55-4-2.33-4.56-3.53,0-5.32l53.24.22Z"/>
  <path class="cls-3" d="M66.18,49.06l.02,3.55c-.69,4.3-1.29,8.44-1.79,12.42-4.68-3.85-1.79-10.48-4.52-16.07-.85,4.47-.98,7.65-2.34,10.88-1.78-2.94-1.55-9.2-.24-12.55,2.4-1.88,7.61-1.49,8.87,1.77Z"/>
  <path class="cls-67" d="M55.54,84.81c2.36,2.45,1.24,4.05-3.38,4.78l-16.14.31-3.69-3.42c5.77-.61,10.73,1.54,14.34-1.93,2.09-1.67,7.21-1.89,8.87.27Z"/>
  <path class="cls-15" d="M67.45,82.18c.4,1.46,1.3,5.06-.62,6.1-4.87,2.63-10.09,1.23-14.67,1.32.89-1.75,2.11-3.29,3.38-4.78,2.22-1.14,4.72-2.01,7.48-2.62.91-1.06,3.39-.29,4.44-.01Z"/>
  <path class="cls-12" d="M66.18,49.06c-2.65-1.68-5.79-2.06-8.87-1.77-.59,1.56-1.18,1.56-1.77,0h-1.77c-.62,5.37-11.36,5.13-12.42,0h-1.77c-.5,1.55-1.1,1.53-1.77,0-.02,5.32-9.78,5.06-10.65,0,0-.62.16-1.8,1.75-1.8l33.86-.08c1.52,0,2.83.25,3.35,1.08.4.64.1,1.83.08,2.58Z"/>
  <path class="cls-46" d="M67.96,116.48c-.5,1.55-1.1,1.53-1.77,0-1.55-.5-1.53-1.1,0-1.77v-1.77c-.56-5.77-1.15-11.69-1.77-17.74,0,5.19-5.93,4.97-7.1,0-.5,1.55-1.1,1.53-1.77,0,.89-3.15,10.85-3,12.16-.21.83,6.6-.05,15.5.26,21.5Z"/>
  <path class="cls-34" d="M21.82,118.25c.46-.78,1.06-.72,1.77,0,.83,2.04.04,3.7-2.36,4.96-2.78.27-5.7-.29-8.46.17l.1-4.9c4.02-2.21,7-2.29,8.94-.24Z"/>
  <path class="cls-68" d="M53.76,95.19c-.22,3.46.4,9.25,0,12.42-2.39,4.16-4.56,2.93-3.55-1.77v-10.78l3.55.13Z"/>
  <path class="cls-13" d="M66.2,72.12c-2.54-1.11-2.06-4.73-1.79-7.1.47-4.12-1.77-9.61,1.79-12.42v19.52Z"/>
  <path class="cls-72" d="M67.96,33.09h-1.77c-2.78-1.8-3.47-2.94,0-3.55-1.46-3.76-1.51-8.94,0-12.42-1.55-.5-1.53-1.1,0-1.77h1.77v17.74Z"/>
  <path class="cls-75" d="M23.6,112.93v-17.94c.55.16,1.2.18,1.77.2v16.03c0,1.41-1.11,1.99-1.77,1.71Z"/>
  <path class="cls-47" d="M37.79,112.93v-17.96c.58.1,1.18.17,1.77.21v16.02c0,1.55-1.1,1.75-1.77,1.72Z"/>
  <path class="cls-45" d="M27.06,126.43c-4.99,1.12-9.93,1.26-16.03-.03,4.46-1.77,8.98-1.73,16.03.03Z"/>
  <path class="cls-9" d="M67.96,34.86c.13,1.76.35,3.56-.27,5.79-.4,1.43-1.88.93-3.28,1.31-5.12-.14-4.8-4.16,0-5.32-1.55-.5-1.53-1.1,0-1.77h3.55Z"/>
  <path class="cls-60" d="M20.31,90.12c.94,2.52-1.13,3.49-2.62,3.42-2.06-.1-3.36.03-4.73-.12.1-1.17,0-2.37,0-3.55.5-1.55,1.1-1.53,1.77,0l5.58.26Z"/>
  <path class="cls-11" d="M67.96,116.48c.09,1.77.3,3.63-.12,5.99-.25,1.39-1.97,1.1-3.43,1.1v-3.55c-1.55-.5-1.53-1.1,0-1.77-1.55-.5-1.53-1.1,0-1.77.52-1.16,1.12-1.14,1.77,0h1.77Z"/>
  <path class="cls-38" d="M48.44,95.06c-1.36,2.62-4.32,3.42-7.1,3.68v-3.55l7.1-.13Z"/>
  <path class="cls-51" d="M25.37,89.92l-3.47.13c.36-.8-2.02-2.27-1.62-2.93.76-1.26,4.03-.94,5.9-.74,1.72.18-.21,2.16-.8,3.54Z"/>
  <path class="cls-1" d="M25.37,123.58c-1.37,0-2.77-.49-4.14-.36-.59-.71-1.14-1.77-.68-2.3,1.07-1.22,2.19-1.87,3.04-2.66.52-1.16,1.12-1.13,1.77,0,2.81-.2,2.57,4.68,0,5.32Z"/>
  <path class="cls-34" d="M28.92,118.25v5.32h-3.55v-5.32c.44-1.49,2.61-1.31,3.55,0Z"/>
  <path class="cls-77" d="M20.21,16.89c1.97,1.2,2.29,4.25.97,9.15l2.42,5.27c1.58-.39,2.17.2,1.77,1.77v1.77c-3.6,1.31-8.76,1.15-12.42,0v-3.55c1.64-4.6,1.52-9.57,0-14.19,0-3.82,5.23-.07,7.26-.22Z"/>
  <path class="cls-42" d="M50.21,6.47c-2.96,5.23-32.58-2.54-28.39,5.32-3.24,0-7.06-.86-9.33,1.93-.72-1.08-1.32-2.38-1.32-3.7,1.79-2.77,4.73-3.77,8.74-3.74l30.29.19Z"/>
  <g>
    <path class="cls-19" d="M11.18,82.77c2.56-1.72,3.38-.8,1.77,1.77,1.9-.23,1.05,3.82,0,5.32,3.61.4,3.47,2.18,0,3.55-.11,1.33.81,1.97,2.03,2.03,4.7.61,4.33,2.25-.26,3.29-1.05,2.75-1.64,6.23.02,8.87,4.77,3.11,3.21,4.4-1.81,5.56,1.95,2.04,2.21,3.51-.06,5.33,5.12-.23,4.71,3.85-.1,4.9-5.8.97-12.09-5.71-12.68-12.05-.39-4.21.46-7.69.43-10.83h1.77c1.46-3.55,1.05-10.96.25-15.97.21-2.68,1.6-5.39,4.49-5.68,3.51-2.78,5.24-.37,4.13,3.9Z"/>
    <path class="cls-14" d="M2.31,100.51c-.03-5.32-.16-10.66.25-15.97,1.99,1.54,4.66,1.26,6.88,2.63-10.38,1.07-2.72,12.71-6.09,18.66-2.33-2.13-1.04-4.05-1.05-5.32Z"/>
    <path class="cls-56" d="M21.82,82.77c1.55.5,1.53,1.1,0,1.77-1.78,0-3.94-.5-6.02.19-1.81.6-1.13,3.49-1.08,5.14h-1.77v-5.32c2.28-2.64,5.8-1.73,8.87-1.77Z"/>
    <path class="cls-40" d="M14.75,107.61c-2.11,1.28-3.05-7.17-.02-8.87l.02,8.87Z"/>
    <path class="cls-16" d="M7.24,112.75c-2.98.75-5.63-1.6-4.69-5.23,1.96,1.11,3.4,2.04,4.69,5.23Z"/>
  </g>
  <path class="cls-49" d="M50.21,36.64c3.72-1.52,10.29-1.41,14.19,0v5.32l-51.2.18c.64-2.67.74-4.26-.32-5.72,11.74-1.23,25.54-1.25,37.33.21Z"/>
  <path class="cls-62" d="M25.37,34.86h24.84c1.55.5,1.53,1.1,0,1.77l-37.33-.21.07-1.56c3.93-.26,8.43,0,12.42,0Z"/>
  <path class="cls-2" d="M63.02,82.19c-1.98,2.29-4.49,3.04-7.48,2.62s-5.93-.22-8.87-.27h-24.84v-1.77l41.19-.58Z"/>
  <path class="cls-70" d="M57.55,59.83c-1.34,3.2,1.34,7.88-2.02,10.52v-23.07c.59,0,1.19.06,1.77,0l.24,12.55Z"/>
  <g>
    <path class="cls-23" d="M23.6,47.28c1.43,9.78,1.66,21.88,0,32.08-2.95.28-5.95.64-8.87.15-1.45-2.22-1.36-6.89,0-9.17-2.03-6.81-1.5-15.66,0-23.07,3.13.21,6.23-1.94,8.87,0Z"/>
    <path class="cls-18" d="M23.59,79.36v-32.08c.41.24,1.27-.06,1.78,0l.24,28.56c.02,2.1-.21,3.35-2.02,3.52Z"/>
    <path class="cls-76" d="M14.73,70.35c-.5,1.55-1.1,1.53-1.77,0,0-7.68-2.27-16.05,1.77-23.07v23.07Z"/>
    <polygon class="cls-33" points="14.73 79.52 12.95 79.22 12.95 70.35 14.73 70.35 14.73 79.52"/>
    <path class="cls-53" d="M19.01,72.32c-1.3-6.52-1.09-11.67-.15-18.18,3.65,5.69,2.06,12.09.15,18.18Z"/>
  </g>
  <path class="cls-32" d="M39.57,15.34c1.17.52,1.14,1.11,0,1.77-1.48,3.42-1.48,7.22,0,10.65,1.22.38,1.16.98,0,1.77-2.63,1.68-5.81,1.91-8.87,1.77-6.94,4.22-4.6-10.21-3.46-14.43,3.69-1.97,8.22-1.54,12.33-1.54Z"/>
  <path class="cls-5" d="M66.18,15.34v1.77c-.5,1.55-1.1,1.53-1.77,0-.5,1.55-1.1,1.53-1.77,0-.57,4.71-2.2,4.51-3.55,0-1.39,1.84-2.26,5.46-2.6,10.87,1.63,1.42,1.22,2.51-.95,3.33-.57.58-1.2.58-1.77,0-3.39-.98-4.67-4.49-3.84-10.56-4.77.9-7.63-.31-8.58-3.64-1.17-.52-1.14-1.11,0-1.77h24.84Z"/>
  <path class="cls-37" d="M25.37,16.82c-.62,4.84-1.21,9.67-1.77,14.49-2.48-.33-4.89-1.38-6.51-4.04,2.43-3.27,3.32-6.8,3.12-10.38,1.64-.13,3.57-1.57,5.16-.07Z"/>
  <path class="cls-42" d="M50.21,11.8h-24.84c-5.75-2.62,30.59-2.62,24.84,0Z"/>
  <path class="cls-17" d="M30.7,31.31c-1.37,1.47-3.37,1.92-5.32,1.77-.7-.48-1.29-1.09-1.77-1.77.64-4.83,1.23-9.66,1.77-14.49.41.16,1.41.09,1.86.06l-.19,11c-.03,1.55.21,2.82,1.07,3.36.63.4,1.83.1,2.58.08Z"/>
  <path class="cls-55" d="M41.34,17.12c3.37.67,4.55,3.54,3.55,8.61-1.94.48-3.12,2.35-3.55,5.59-.27.44-.59,1.96-.96,1.68-1.03-.8-1-2.77-.81-3.45.13-.45,0-1.24,0-1.77-1.52-3.33-1.54-7.31,0-10.65v-1.77h1.77v1.77Z"/>
  <path class="cls-52" d="M64.41,95.19c1.53,5.2,1.44,12.7,0,17.74h-7.1c-1.52-5.34-1.48-12.6,0-17.74h7.1Z"/>
  <path class="cls-65" d="M66.18,114.71v1.77h-1.77c-4.9,1.53-12.66,1.43-17.74,0-8.1.55-16.38,1.14-24.84,1.77-2.98-.24-5.94.25-8.94.24,2.32-3.13,8.08-3.58,12.42-3.6l40.88-.19Z"/>
  <path class="cls-57" d="M57.31,112.93c-3.14,1.82-1.31-15.99-1.77-17.74h1.77v17.74Z"/>
  <path class="cls-73" d="M66.18,112.93h-1.77v-17.74c.68,0,1.77.16,1.77,1.73v16.02Z"/>
  <path class="cls-38" d="M53.76,107.61c-.14,1.07.83,3.83-.52,4.68-2.71,1.7-5.89.29-8.35.64,3.47-1.58,5.32-3.12,5.32-7.1l3.55,1.77Z"/>
  <path class="cls-38" d="M43.12,112.93c-3.33-1.4-1.45-5.94-1.77-8.87,3.06,1.69,1.54,5.93,1.77,8.87Z"/>
  <path class="cls-30" d="M53.76,31.31c-3.06-.26-6.21.21-8.87,1.77-.32-1.43-.92-2.02-1.77-1.77h-1.77v-14.19l12.32.12.1,14.07Z"/>
  <path class="cls-66" d="M59.09,17.12c3.19-.1,1.4,10.96.79,11.06s1.07-10.87,2.76-11.06h1.77c.51,3.98,1.1,8.12,1.77,12.42v3.55c-3.18-1.94-7-2.03-10.65-1.77.42-4.35-.91-8.93.52-13.74.29-.99,2.38-.46,3.03-.46Z"/>
  <rect class="cls-31" x="50.21" y="34.86" width="14.19" height="1.77"/>
  <path class="cls-27" d="M44.89,33.09c-.62-.56-1.21-1.15-1.77-1.77v-4.42c0-.93,2.56-1.7,3.19-.47,1.26,2.46-1.62,4.55-1.41,6.67Z"/>
  <path class="cls-69" d="M46.67,116.48c1.55.5,1.53,1.1,0,1.77-1.52,2.29-7.68,2.97-8.87,0h-14.19c-.59,0-1.19.05-1.77,0-.13-1.39,1.62-1.81,3.45-1.81l21.39.03Z"/>
  <path class="cls-41" d="M64.41,118.25v1.77c-3.34,1.98-7.35,2.47-11.84,1.39-.8-1.31-.74-2.35-.58-3.17,3.13-1.51,9.11-1.39,12.42,0Z"/>
  <polygon class="cls-71" points="64.41 116.48 64.41 118.25 51.99 118.25 48.44 118.25 46.67 118.25 46.67 116.48 64.41 116.48"/>
  <path class="cls-41" d="M46.67,118.25h1.77c-1.27,2.29-3.91,3.16-6.28,3.59-2.88.53-5.22-.19-4.37-3.59h8.87Z"/>
  <path class="cls-25" d="M66.18,29.54c-3.63-2.84-1.15-8.31-1.77-12.42h1.77v12.42Z"/>
  <g>
    <path class="cls-4" d="M5.86,4.7l1.78-.1c3.24,4.11-1.89,2.48-1.54,2.38,3.15-.85,4.6-.45,5.08,3.04,4.47.31,4.55.59,1.32,3.7-1.06,6.54-.91,12.99.46,19.36,1.55.5,1.53,1.1,0,1.77-4.49,12.86-5.56,26.59-3.24,41.19l-2.67,2.81c.5,3.83-.4,5.68-4.49,5.68l2.22,2.37c-1.42,4.37-2.24,8.9-2.47,13.6-.5,1.55-1.1,1.53-1.77,0l-.17-16.03c-.2-19.53-.1-38.12.02-56.72,1.83-6.47,1.47-13.23.13-19.76,0-1.15-.56-3.98,1.02-4.87,1.01-.57,3.12,1.14,4.33,1.56Z"/>
    <g>
      <path class="cls-58" d="M12.89,36.42c2.02.18,3.85,1.13,5.49,2.87,14.96-.12,29.9-.01,44.83.31l1.2,2.36c-16.3,4.34-33.77.3-51.29,1.95-.1,1.48,1.23,2.43,1.61,3.37-.89,7.88-1.48,15.56-1.77,23.07,1.53,1.72,1.31,6.73,0,8.87,3.16,1.89,1.4,3.48-1.77,3.55-1.15-1.51-2.69-2.7-4.13-3.9-1.29-4.18-2.2-8.59-1.52-13.79,2.16-16.53-5.05-21.75,7.42-30.22,1.55.4,1.48.93-.07,1.56Z"/>
      <path class="cls-43" d="M.38,27.76l.13-19.76c2.72,5.56,3.49,14.47-.13,19.76Z"/>
      <path class="cls-20" d="M9.87,14.68c-3.87,10.78,1.72,11.24-1.32,14.47-.66.7-4.11-.6-4.33-1.76-.76-3.96-.07-10.53.33-15.22.63-1.43,5.93.79,5.32,2.51Z"/>
      <path class="cls-43" d="M11.18,4.7v5.32c-2.1-1.52-4.78-1.26-7.14-2.57,1.85-1.54,3.19-1.7,3.6-2.86l3.54.1Z"/>
      <path class="cls-74" d="M12.95,31.31v-14.19c3.04,3.48,3.28,10.83,0,14.19Z"/>
    </g>
  </g>
  <g>
    <path class="cls-44" d="M53.76,47.28v5.32c-.97,8.63-1.63,17.32-1.96,26.06l-1.63.62c-2.33.24-5.44,1.05-9.06-.2l.23-31.81h12.42Z"/>
    <path class="cls-29" d="M50.17,79.28c1.92-1.78,0-27.65,3.6-26.68l.14,24.82c.01,2.22-2.73,1.75-3.73,1.86Z"/>
    <path class="cls-6" d="M49.77,59.4c-1.65-1.55-2.39-3.36-2.84-4.14s2.28-2.81,2.79-2.4c.89,2.19.78,4.15.05,6.54Z"/>
  </g>
  <g>
    <path class="cls-24" d="M37.79,47.28c1.49,9.52,1.62,21.86.05,32.02-3.29.23-6.58.93-10.69-.26v-31.76s10.64,0,10.64,0Z"/>
    <path class="cls-8" d="M37.84,79.3l-.05-32.02h1.77l.23,28.59c.02,2.13-.13,3.3-1.96,3.43Z"/>
    <path class="cls-61" d="M34.94,75.59c-1.08-4.99-1.33-9.94.09-16.07,1.64,4.5,1.7,9.01-.09,16.07Z"/>
  </g>
  <path class="cls-63" d="M39.57,27.76c-2.98-2.21-2.98-8.44,0-10.65v10.65Z"/>
  <path class="cls-22" d="M62.63,17.12l-.22,12.09c-1.29.65-3.35.65-5.38-.14,1.36-4.31,2.79-7.97,2.05-11.95h3.55Z"/>
  <path class="cls-39" d="M23.6,31.31c1.06-4.69-2.26-10.67,1.77-14.49-1.11,4.66,2.34,10.76-1.77,14.49Z"/>
</svg>