<?xml version="1.0" encoding="UTF-8"?>
<svg id="Objects" xmlns="http://www.w3.org/2000/svg" viewBox="0 0 106.22 139.93">
  <defs>
    <style>
      .cls-1 {
        fill: #b7bbbf;
      }

      .cls-2 {
        fill: #5c646c;
      }

      .cls-3 {
        fill: #656d75;
      }

      .cls-4 {
        fill: #eaebed;
      }

      .cls-5 {
        fill: #e9ebee;
      }

      .cls-6 {
        fill: #c9ccd0;
      }

      .cls-7 {
        fill: #e2e5ea;
      }

      .cls-8 {
        fill: #e5e7ea;
      }

      .cls-9 {
        fill: #e3e6e9;
      }

      .cls-10 {
        fill: #a4acb3;
      }

      .cls-11 {
        fill: #bbbdc2;
      }

      .cls-12 {
        fill: #e2e5e6;
      }

      .cls-13 {
        fill: #eff0f1;
      }

      .cls-14 {
        fill: #dadde2;
      }

      .cls-15 {
        fill: #f4f5f5;
      }

      .cls-16 {
        fill: #d6dbdf;
      }

      .cls-17 {
        fill: #eeeff0;
      }

      .cls-18 {
        fill: #b5bbc1;
      }

      .cls-19 {
        fill: #dadde1;
      }
    </style>
  </defs>
  <path class="cls-15" d="M49.88,56.61c2.3-2.23,6.91-2.28,6.88,1.69,6.19,11.06,13.49,17.66,27.03,14.02,1.76.08,3.51.09,5.22-.4,3.01-1.63,3.63-.46,1.22,2.12,1.98-.26,2.56.84,1.83,2.63,3.09,4.42-.8,8.78-4.99,4.91-2.25,5.37-2.65,7.11-1.49,12.44,4.31-2.94,7.67,2.22,8.54,6.38,2.74-2.07,3.63-1.03,1.83,1.98,1.83,3.29-2.66,3.84-5.3,2.07-3.25,6.16-12.34,3.31-10.52-3.54-2.35-1.82-5.11-1.9-8.29-.24-9.68,3.17-20.13-2.45-9.92-8.59.13-4.16-1.96-7.56-6.24-10.22l-.93-4-6.16-3.08c-7.11-.54-10.39-2.82-9.86-6.86-1.62-3.18.89-5.04,3.78-5.91-3.12-3.93-.98-5.46,3.35-5.48.98-4.35,2.91-4.55,4.02.08Z"/>
  <path class="cls-13" d="M51.35,43.97c-.01,2.36-.52,4.18-1.52,5.47.57,3.41-.84,3.5-2.13.15-4.3.2-4.62-1.04-.97-3.7-2.42-.48-3.05-2.89-1.89-7.25-4.99.51-5.44-1.96-1.75-5.04,2.05-9.93,2.32-26.11,9.73-33.6l.2,28.19c.04,5.84-.35,10.95-1.67,15.78Z"/>
  <path class="cls-12" d="M103.21,67.41c-2.07.59-3.92,1.73-5.3,3.38-.39,5.11-3.73,6.53-7.67,3.25l-1.22-2.12c4.92-4.57,9.2-10.08,17.21-7.9-.84,1.57-2.17,2.35-3.01,3.39Z"/>
  <path class="cls-8" d="M12.33,51.05c.4,1.41,1.16,2.67,2.16,3.73,4.09-2.19,4.87-.7,3.74,3.71,3.13-.96,3.36.25,1.66,2.92,3.83-2.77,4.64-1.4,1.96,2.45,1.45.68,1.29,1.17-.35,1.49.28,2.08-.74,1.67-2.34.23-.67,1.4-1.16,1.25-1.49-.34-5.63,1.29-7.55-.29-5.75-4.72-3.96,1.12-4.63-.02-2-3.42-4.87,1.57-5.64-1.44-1.31-4.01-1.98-2.95-.68-3.88,2.36-1.85.36-.22.96-.05,1.36-.2Z"/>
  <path class="cls-2" d="M5.77,51.33c1.33-2.8,3.34-1.1,2.84,1.77.88.97.34,3.11,1.31,4.01,1.44,3.03-1.8,7.69-4.55,4.82l-3.63-.23c-.67-.93-1.25-1.91-1.74-2.94,2.02-.68,1.44-5.68.19-7.19,2.56-.48,4.54,1.71,5.59-.24Z"/>
  <path class="cls-16" d="M10.97,51.25c-.85.52-1.57,1.24-2.36,1.85-.6-.66-2.52-.82-2.84-1.77-.41-2.66-2.58-4.37-2.62-7.7,4.22,1.87,5.89,4.95,7.82,7.62Z"/>
  <path class="cls-3" d="M9.5,123.51c2.65,2.82,2.72,3.37-.31,5.65-.68-.4-2.55.96-1.95,1.9-.64-2.14-3.2-4.3-1.77-7.1.4-.78,1.57-1.59,2.35-1.93,2.25-2.86,3.36-1.9,1.68,1.48Z"/>
  <path class="cls-10" d="M104.71,105.81l.33,2.19c-2.48-.33-4.95.41-7.41.39-3.46.15-3.38-1.27.11-2.17-.64-1.44.54-2.03,3.55-1.77,1.19.3,2.32.85,3.42,1.36Z"/>
  <path class="cls-4" d="M54.74,77.85c6.37,1.13,8.34,8.23,7.18,14.22-2.22-1.75-.14-4.79-2.72-7.4-.7,6.26-2.32,9.3-6.4,11.5-4.35,2.35-8.67.92-11.18-2.37-2.41-3.15-3.64-7.9-1.56-11.92,2.83-5.47,9.79-4.9,14.68-4.03Z"/>
  <path class="cls-1" d="M79.63,71.87c1.33-.13,2.81.39,4.16.45-1.06,2.6-18.47,5.09-22.65-1.41-2.27-3.53-6.31-7.08-4.38-12.61,4.71,2.57,10.32,4.31,14.15,8.99,1.41,1.72,1.8,3.93,3.41,4.64,1.83.8,3.57.11,5.31-.06Z"/>
  <path class="cls-11" d="M42.51,62c-1.06,1.89-1.14,5.13-3.78,5.91-1.71.51-3.08,1.91-4.67,2.51-3.26,2.92-8.34,4.68-7.24-1.29,6.38-1.15,4.27-6.72,15.69-7.13Z"/>
  <path class="cls-7" d="M49.88,56.61l-4.02-.08c.11-.65-.3-1.45-.1-2.07-3.95-3.12-2.94-5.18,1.95-4.87l2.13-.15c.33,2.38.49,4.79.05,7.17Z"/>
  <path class="cls-9" d="M101.29,104.44c-.48,1.64-2.15,1.62-3.55,1.77-2.56,2.11-6.8,4.65-7.13.03l.03-1.81c2.01-.12,4.11-.09,5.3-2.07l1.8.3c.93,1.04,2.24,1.45,3.55,1.77Z"/>
  <path class="cls-19" d="M25.28,69.19c3.06.76,3.02,2.02-.29,2.26-.81,1.44-1.46,1.31-1.95-.32-3.75.73-4.52-.06-3.68-3.79l-.19-1.76c.74.06,1.62-.41,2.34-.23,1.85.47,3.2,2.06,3.78,3.84Z"/>
  <path class="cls-14" d="M20.88,109.32c3.25-.15,3.5,1.15.33,2.28,2.73,2.11,1.79,3.11-1.41,1.5-.47,6.38-2.94,9.88-7.42,10.5l-2.87-.09c-.38-.63-.95-1.26-1.68-1.48,1.5-.66.88-2.38,1.53-3.39.72-1.13,1.81-2.63,2.21-3.86,1.81-.57,3.11-2.04,4.47-3.33,1.25-1.19,3.4-1.3,4.85-2.13Z"/>
  <path class="cls-17" d="M64.25,112.8c1.76,5.18,5.05,10.6,10.18,12.92.83,1.28,1.46,3.73,3.52,3.82.29.76.44,1.92.95,2.56-2.08,0-4.22.03-6.15-.85-4.64,1.99-15.35-3.89-13.72-9.07l-5.14-3.95c-3.95-8.84-6.82-3.64-9.38,1.91,5.15,1.42,3.92,5.08-1.37,5.24-3.6,4.78-9.15-1.1-4.01-4.86-4.54.56-5-1.3-1.37-5.56-4.62-1.34-4.66-2.3-.04-3.59,3.88-3.35,9.41-2.83,13.89-5.09l6.45-3.24c.28,4.96,4.78,6.88,6.19,9.75Z"/>
  <path class="cls-5" d="M34.06,70.42l.17,2.11c-3.57-.25-5.44,4.67-8.83,3.64-4.02-.83-4.23-3.21-.41-4.71-.02-.7.51-1.61.29-2.26l1.54-.06c1.88,1.2,4.98,2.14,7.24,1.29Z"/>
  <path class="cls-18" d="M44.51,139.93c.08-.55.07-1.22,0-1.77-.23-1.75-.85-3.39-1.7-4.92-.33-.59.12-1.58-.09-2.24-3.19-2.48-3.33-3.42.42-5.62,5.42,1.35,4.51,11.07,1.37,14.55Z"/>
  <path class="cls-6" d="M59.03,122.18c-4.17-2.68-9.44-2.57-14.52-2.04-1.54-3-1.65-7.15.83-8.68,3.48-2.15,7.7-1.71,9.96,1.65,2.02,2.99,2.51,6.3,3.73,9.07Z"/>
</svg>