<?xml version="1.0" encoding="UTF-8"?>
<svg id="Objects" xmlns="http://www.w3.org/2000/svg" viewBox="0 0 97.83 100.84">
  <defs>
    <style>
      .cls-1 {
        fill: #8d9096;
      }

      .cls-2 {
        fill: #c1c2c6;
      }

      .cls-3 {
        fill: #c4c5c8;
      }

      .cls-4 {
        fill: #a5a8ae;
      }

      .cls-5 {
        fill: #c0c0c4;
      }

      .cls-6 {
        fill: #7f8489;
      }

      .cls-7 {
        fill: #9ba0a6;
      }

      .cls-8 {
        fill: #bebfc3;
      }

      .cls-9 {
        fill: #6e747b;
      }

      .cls-10 {
        fill: #5a6169;
      }

      .cls-11 {
        fill: #cacbcd;
      }

      .cls-12 {
        fill: #868b8f;
      }

      .cls-13 {
        fill: #96989d;
      }

      .cls-14 {
        fill: #8c9095;
      }

      .cls-15 {
        fill: #acb1b7;
      }

      .cls-16 {
        fill: #83888e;
      }

      .cls-17 {
        fill: #caced3;
      }
    </style>
  </defs>
  <path class="cls-3" d="M56.82,49.77c5.23,6.16,8.42,13.91,9.56,23.24,5.72,2.16,7.38,4.61,4.98,7.35-1.3,4.36-12.76,5.85-16.06,3.28-1.98,8.23-5.63,5.98-10.94-6.75-.82-6.31-3.55-12.06-8.19-17.26,3.18-5.46,3.62-10.66,1.33-15.61l1.65-4.5-1.04-14.41c-.55-7.66,4.48-14.52,6.31-21.34,2.39-.11,3.67,2.26,3.86,7.1,1.6,6.37,1.06,13.14,3.28,19.35,4.87-.14,4.91,1.62.35,3.38,4.69,4.71,5.14,7.69,1.34,8.92"/>
  <path class="cls-2" d="M55.3,83.63c4.48,1.36,4.14,7.43,1.49,10.63,2.95,2.69,1.83,3.89-1.55,1.48-.51,1.5-1.22,1.39-2.1-.1-3.17.42-6.69-.12-10.56-1.62-2.71,1.96-5.59,3.22-8.63,3.78,1.45.46,1.41,1.05,0,1.77-.36,1.58-.97,1.69-1.83.31-2.26-4.02-2.28-6.44-.07-7.27,1.26-3.86.52-6.9-2.2-9.13-2.97-5.12-3.5-10.76-1.59-16.94-8.31-14.04-7.44-20.48,2.6-19.33l3.11-1.14c1.08-2.58,3.47-4.43,5.18-6.56,3.74,6.52,5.66,13.43-.09,19.9,4.4,3.66,8.18,8.25,8.44,15.21.15,3.87,6.07,7.07,4.2,12.78,2.49-1.49,2.26-2.81,3.61-3.77Z"/>
  <path class="cls-11" d="M81.73,48.34c3.02,1.06,3.96,2.34,3.34,5.57,4.84,1.5,4.01,5.55-1.43,4.97.55,3.85-3.65,6.92-7.36,6.81,1.4,1.4,1.53,3.25.38,5.57,1.56.34,1.52.86,0,1.55l3.05,1.76c4.53-2.03,7.8,3.03,4.29,6.98.78,3.39-.51,3.98-2.57,1.18-2.44,4.37-5.49,4.05-6.98-.73-3.14,3.5-4.08,2.87-3.09-1.66-1.36-3.74-6.5-1.98-10.83-2.26,7.94-1.75-6.92-25.81-3.72-28.32-.62-3.39.74-3.51,2.02-.18,4.5,2.06,9.44,1.55,14.15.49.28-1.49,2.1-2.03,5.48-1.61.85-.39,2.55.44,3.26-.14Z"/>
  <path class="cls-8" d="M33.96,46.08c-1.03,2.46-4.27,2.01-7.58,2.09-3.12,8.18,11.1,17.8,3.24,25.02,1.95,5.71,3.81,10.99,7.98,15.69-1.75,2.4-3.65,3.09-5.56,3.74l-2.39.37c-2.28-3.25-5.51-5.3-9.7-6.16-1.86,3.68-4.44,2.55-3.93-1.48-2.61-2.41-1.43-3.52,1.77-1.68-1.43-3.55-1.05-7.28,3.64-6.97l-1.75-1.67c.96-3.47.33-7.04-1.87-10.72-3.49,3.27-4.45,2.39-3.48-2.2-4.18,3.24-5.25.33-2.92-3.51,2.29-4.02,2.85-8.59,1.66-13.69-2.76-2.2-2.54-6.44,1.35-3.7,4.67,4.95,12.47,5.96,19.54,4.86Z"/>
  <path class="cls-16" d="M53.59,33.65c-.37,1.5-.94,1.42-1.68-.07-.01-1.05,0-2.39-.35-3.38"/>
  <path class="cls-16" d="M75.46,47.49c-.62,1.77-3.1,1.71-3.8-.12"/>
  <path class="cls-17" d="M90.73,45.98c3.28-1.75,4.32-.8,1.96,2.26,1.6.27,1.49.75-.14,1.43.99,4.3.35,4.59-3.61,2.49.19,4.73-.6,5.12-3.87,1.76-1.21-.17-2.58-.75-3.35-2.18-.45-.84-.32-2.17,0-3.39,2.5-2.04,6.43-1.02,9-2.37Z"/>
  <path class="cls-5" d="M48.28,10.86c-.6-2.4-2.49-5.07-3.86-7.1.23-.86.05-1.96.17-2.66.17-.96,2.78-1.65,3.13-.51,1.11,3.6.05,7.1.56,10.26Z"/>
  <path class="cls-9" d="M10.88,37.47c1.23,2.24.45,3.08-1.77,1.77-1.24-.22-2.45-.58-3.61-1.08-.88-.23-2.87-2.9-1.24-3.83,2.74-1.56,5.25,1.68,6.62,3.13Z"/>
  <path class="cls-15" d="M97.82,42.8c0,1.29.02,3.08-1.33,3.7,1.8,4.65-.63,5.44-3.81,1.74.03-1.2-1.03-1.75-1.96-2.26,2.49-1.3,3.93-3.15,7.1-3.18Z"/>
  <path class="cls-10" d="M4.03,96.18c-1.84-.84-3.69-2.11-4.01-4.65-.2-1.65,1.01-2.95,1.62-4.38,1.2,2.9,2.36,5.86,2.39,9.03Z"/>
  <path class="cls-4" d="M14.42,41.22c-1.96-.29-1.27,2.5-1.35,3.7-.34,1.59-.94,1.64-1.78.19-2.9,1.32-2.57.5-.86-2.11-.38-1.24-1.2-2.43-1.32-3.75-.08-.91.79-2.12,1.77-1.77l3.54,3.75Z"/>
  <path class="cls-7" d="M60.57,95.9c.07.58-.19,1.3-.35,2.56-.34,2.8-3.48-1.52-4.98-2.71,1.11.33,1.66-.45,1.55-1.48l3.78,1.63Z"/>
  <path class="cls-6" d="M83.64,58.88c2.8,3.12-.54,6.96.06,9.58.54,2.37.74,2.51-1.34,4.39-2.06,1.86-3.62.9-5.7-.04v-1.55c-.71-1.59-.84-3.45-.37-5.57.59-3.55,3.77-6.24,7.36-6.81Z"/>
  <path class="cls-3" d="M67.66,49.89l5.32.19c-4.25,2.41-10.47,3.22-14.15-.49,2.93.29,5.88.38,8.83.3Z"/>
  <path class="cls-1" d="M76.66,71.27c-.99-.61-1.61-1.57-1.87-2.76s1.19-2.01,1.49-2.81c.25.95,3.31,1.61,3.55,2.83.19.98-3.06,1.75-3.17,2.74Z"/>
  <path class="cls-13" d="M21.44,76.7c-3.23.39-3.8-3.19-4.96-6.33-.67-1.8-.99-4.02,1.34-6.06,2.94.61,4.93,2.24,5.78,4.48,1.47,3.88-.75,5.51-2.15,7.9Z"/>
  <path class="cls-12" d="M11.41,58.61c-3.95.18-4-3.21-.17-10.18-1.46-1.13-1.44-2.24.05-3.33l1.78-.19c2.56,1.63,3.66,5.02,4.07,7.96.46,3.37-2.61,5.27-5.73,5.73Z"/>
  <path class="cls-14" d="M56.72,37.05c-1.05-.26-1.94-.04-2.29-.45-.75-.86-.76-1.96-.83-2.95"/>
</svg>