<?xml version="1.0" encoding="UTF-8"?><svg id="Player_Run" xmlns="http://www.w3.org/2000/svg" viewBox="0 0 138.18 127.62"><defs><style>.cls-1{fill:#11233a;}.cls-2{fill:#93956b;}.cls-3{fill:#080d11;}.cls-4{fill:#c3c2a6;}.cls-5{fill:#433c3f;}.cls-6{fill:#3b4251;}.cls-7{fill:#09121b;}.cls-8{fill:#3b4869;}.cls-9{fill:#dbd8cb;}.cls-10{stroke-width:2px;}.cls-10,.Graphic_Style_4{fill:none;stroke:#000;stroke-linecap:round;stroke-miterlimit:10;}.cls-11{fill:#fff;}.cls-12{fill:#999e9c;}.cls-13{fill:#19274d;}.cls-14{fill:#2b2c35;}.cls-15{fill:#f4a679;}.cls-16{fill:#c07b6a;}.cls-17{fill:#79878c;}.cls-18{fill:#364465;}.cls-19{fill:#0d1d35;}.cls-20{fill:#f8c999;}.cls-21{fill:#394146;}.cls-22{fill:#1a1a1a;}.cls-23{fill:#24282b;}.cls-24{fill:#384666;}.cls-25{fill:#c2c6b0;}.cls-26{fill:#f9d4ad;}.cls-27{fill:#121114;}.cls-28{fill:#2a3538;}.cls-29{fill:#e4e5dc;}</style></defs><g id="run_0"><g id="back-arm-assembly"><g id="back-arm"><g id="outline"><path d="M90.37,21.38c1.01-1.07,2.09-2.58,1.61-4.11-.62-1.32-1.94-2.51-3.21-3.21-.63-.31-1.61-.32-2.17-1.04-.57-.63-.87-1.4-1.27-2.04-1.77-3.06-4.89-4.98-8.3-5.67-.44-.14-.84-.58-1.08-.93-1.09-1.31-2.44-2.94-4.1-3.41-7.28,2.94-14.68,8.06-17.51,15.68-.53,1.23-.18,3.11,1.44,2.88.68-.09,1.38-.47,2.09-.8,3.52-1.71,6.84-3.8,9.91-6.23l.38-.3.07.48c.54,3.92,3.88,7.34,7.86,7.91l.16.02v.16c-.36,3.3,2.71,6.33,6.02,5.93,1.48-.05,3.07-1.53,4.28-2.25,1.35-.92,2.67-1.91,3.82-3.08h0ZM90.44,21.45c-1.66,1.72-3.9,3.14-5.88,4.46-2.02,1.6-5.07,1.12-6.88-.6-1.22-1.16-1.9-2.86-1.79-4.56l.15.18c-4.15-.51-7.75-3.98-8.36-8.18l.45.18c-3.07,2.49-6.42,4.64-9.95,6.41-1.05.5-2.42,1.33-3.66.68-1.29-.69-1.34-2.47-.9-3.62,2.7-7.72,9.77-12.73,16.9-16.05,1.74-1.11,3.37.49,4.62,1.6.86.65,1.51,1.99,2.25,2.47,3.52.76,6.79,3.02,8.45,6.27.39.71.65,1.45,1.12,2.01.43.62,1.24.63,1.99,1.02.74.38,1.32.95,1.85,1.53.51.59,1.14,1.13,1.4,1.94.46,1.63-.67,3.14-1.74,4.24h0Z"/></g><g id="arm"><path class="cls-20" d="M90.4,21.42c1.17-1.19,2.27-2.91,1.58-4.43-.2-.44-.53-.8-.86-1.16-.79-.86-1.64-1.75-2.75-2.11-.28-.09-.58-.15-.85-.27-.9-.4-1.32-1.42-1.78-2.3-1.57-3.03-4.52-5.32-7.85-6.08-.35-.08-.71-.15-1-.36-.22-.16-.38-.39-.55-.61-.91-1.24-2.04-2.31-3.31-3.16-.32-.22-.68-.42-1.06-.45-.43-.03-.84.15-1.23.34-3.47,1.65-6.85,3.56-9.78,6.04-2.93,2.49-5.41,5.58-6.8,9.16-.25.64-.46,1.32-.43,2s.37,1.4.98,1.71c.8.41,1.77.04,2.58-.34,3.79-1.8,7.38-4.04,10.66-6.67.57,4.05,4.06,7.51,8.11,8.04-.14,1.83.69,3.71,2.13,4.84,1.66,1.3,4.2,1.69,5.99.49,2.17-1.45,4.38-2.82,6.22-4.68Z"/><path d="M90.37,21.38c1.01-1.07,2.09-2.58,1.61-4.11-.62-1.32-1.94-2.51-3.21-3.21-.63-.31-1.61-.32-2.17-1.04-.57-.63-.87-1.4-1.27-2.04-1.77-3.06-4.89-4.98-8.3-5.67-.44-.14-.84-.58-1.08-.93-1.09-1.31-2.44-2.94-4.1-3.41-7.28,2.94-14.68,8.06-17.51,15.68-.53,1.23-.18,3.11,1.44,2.88.68-.09,1.38-.47,2.09-.8,3.52-1.71,6.84-3.8,9.91-6.23l.38-.3.07.48c.54,3.92,3.88,7.34,7.86,7.91l.16.02v.16c-.36,3.3,2.71,6.33,6.02,5.93,1.48-.05,3.07-1.53,4.28-2.25,1.35-.92,2.67-1.91,3.82-3.08h0ZM90.44,21.45c-1.66,1.72-3.9,3.14-5.88,4.46-2.02,1.6-5.07,1.12-6.88-.6-1.22-1.16-1.9-2.86-1.79-4.56l.15.18c-4.15-.51-7.75-3.98-8.36-8.18l.45.18c-3.07,2.49-6.42,4.64-9.95,6.41-1.05.5-2.42,1.33-3.66.68-1.29-.69-1.34-2.47-.9-3.62,2.7-7.72,9.77-12.73,16.9-16.05,1.74-1.11,3.37.49,4.62,1.6.86.65,1.51,1.99,2.25,2.47,3.52.76,6.79,3.02,8.45,6.27.39.71.65,1.45,1.12,2.01.43.62,1.24.63,1.99,1.02.74.38,1.32.95,1.85,1.53.51.59,1.14,1.13,1.4,1.94.46,1.63-.67,3.14-1.74,4.24h0Z"/></g><g id="strokes"><path d="M75.86,9.12c3.38-1.58,6.41,2.08,7.79,4.74.03.05-.05.1-.08.05-.99-1.25-2.09-2.43-3.4-3.24-1.39-.73-2.71-1.17-4.3-1.46-.05,0-.06-.08-.02-.1h0Z"/><path d="M77.22,18.77c-1.59-.42-2.93-1.72-3.53-3.26-.2-.51-.33-1.01-.61-1.48.44.34.7.86.95,1.32.78,1.39,1.87,2.51,3.18,3.42h0Z"/><path d="M83.91,16.07c1.35-1.27,3.29-1.12,4.92-.57.56.21,1.11.57,1.43,1.08,0,0-.05.04-.05.04l-.19.15s-.11-.03-.07-.07c0,0,.15-.2.15-.2v.11c-1.28-1.02-3.02-.65-4.49-.42-.53.04-1.08.08-1.67-.03-.04,0-.06-.07-.03-.1h0Z"/><path d="M73.98,4.7c-.88-.2-1.65-.87-2.18-1.38.05.05.2,0,.15,0-.52.03-.83.71-1.63.8,0,0-.06.02-.06.02-.23,0-.25-.33-.11-.28,0,0,.04.04.04.04,0,0,.02.04.03.03.46-.33.71-1.24,1.37-1.5.8-.37,1.23.65,1.64,1.11,0,0,.83,1.09.83,1.09.03.05-.03.09-.08.06h0Z"/><path d="M66.94,6.38c-3.69,1.97-6.37,5.12-9.31,8.02,2.38-3.32,5.32-6.68,9.31-8.02h0Z"/></g></g><g id="back-glove"><path id="outline-2" class="Graphic_Style_4" d="M57.83,16.56c-.41-.32-.82-.64-1.3-.84-.53-.22-1.12-.29-1.7-.35-.91-.09-1.89-.17-2.66.31-.45.28-.77.73-1.08,1.16-1.39,1.95-2.78,3.89-4.17,5.84-.39.55-.79,1.11-.98,1.76-.33,1.13.03,2.38.73,3.32s1.71,1.62,2.75,2.16c.54.28,1.11.54,1.72.6,1.08.12,2.12-.35,3.1-.81.94-.44,1.91-.91,2.52-1.76.32-.45.59-1.04,1.13-1.15.23.57.78,1,1.39,1.05s1.24-.27,1.52-.82c.5-.99-.16-2.12-.29-3.12s.23-1.83.48-2.8c.5-1.91-1.86-3.56-3.16-4.58Z"/><path id="glove" class="cls-14" d="M57.83,16.56c-.41-.32-.82-.64-1.3-.84-.53-.22-1.12-.29-1.7-.35-.91-.09-1.89-.17-2.66.31-.45.28-.77.73-1.08,1.16-1.39,1.95-2.78,3.89-4.17,5.84-.39.55-.79,1.11-.98,1.76-.33,1.13.03,2.38.73,3.32s1.71,1.62,2.75,2.16c.54.28,1.11.54,1.72.6,1.08.12,2.12-.35,3.1-.81.94-.44,1.91-.91,2.52-1.76.32-.45.59-1.04,1.13-1.15.23.57.78,1,1.39,1.05s1.24-.27,1.52-.82c.5-.99-.16-2.12-.29-3.12s.23-1.83.48-2.8c.5-1.91-1.86-3.56-3.16-4.58Z"/><path id="light" class="cls-14" d="M60.99,21.15c-.25.96-.6,1.76-.47,2.79.12.98.75,2.08.31,3.05,0,.02-.02.05-.03.07-.28.55-.91.88-1.52.82-.46-.04-.88-.3-1.16-.66-.1-.12-.17-.26-.23-.4-.17.03-.31.12-.44.23-.39-.14-.75-.34-1.03-.63-.76-.8-.8-2.1-1.55-2.91-.48-.52-1.19-.76-1.76-1.18-.7-.51-1.18-1.25-1.62-1.99-.44-.75-.86-1.51-1.25-2.29.29-.4.57-.8.86-1.2.3-.43.63-.87,1.08-1.16.77-.48,1.75-.41,2.66-.31.58.06,1.16.12,1.7.35.47.2.89.52,1.29.83,1.3,1.03,3.66,2.67,3.16,4.59Z"/><path id="dark" class="cls-27" d="M57.45,27.05c-.28.24-.47.61-.69.92-.6.84-1.58,1.32-2.52,1.76-.98.46-2.02.93-3.1.81-.61-.07-1.18-.32-1.72-.6-1.04-.54-2.05-1.22-2.75-2.16-.7-.95-1.06-2.2-.73-3.33.19-.65.59-1.21.99-1.76,1.1-1.54,2.21-3.09,3.31-4.64.39.78.81,1.54,1.25,2.29.44.74.92,1.48,1.62,1.99.57.42,1.28.66,1.76,1.18.75.81.79,2.11,1.55,2.91.28.29.64.49,1.03.63Z"/><g id="strokes-2"><path d="M57.52,25.56c-2.69-.1-2.23-3.46-1.18-5,0,0,.06.09.06.09,0-.01-.03,0-.03.02,0,.06-.09.08-.1.02-.03-.13.11-.2.22-.19-.2.94-.43,1.95-.19,2.77.35.83.72,1.38,1.26,2.19.03.03,0,.09-.04.09h0Z"/><path d="M54.51,21.95c-.19.61-.85,1-1.46.89,0,0-.56-.16-.56-.16-.67-.24-1.37-.64-1.9-.99.14-.12.42-.01.58.01.48.06.98.17,1.45.19.71-.08,1.05-.09,1.83-.02.04,0,.07.04.06.08h0Z"/></g></g></g><g id="front-arm-assembly"><g id="front-arm"><g id="outline-3"><path d="M119.54,50.91c1.86,2.02,2.54,5.26,1.02,7.68-.71,1.19-1.71,2.18-2.18,3.39-.51,1.19-.07,2.54-.35,4.01-.29,1.47-1.22,2.65-2.16,3.66-2.73,3.22-6.68,5.36-10.89,5.67-4.17.45-8.25-.43-12.28-1.33-1.36-.31-2.97-.57-3.85-1.84-1.88-2.74.48-6.11,3.28-6.88,1.35-.46,2.76-.56,4.12-.61,1.35-.04,2.84-.04,4.14.67l-.42.35c-1.03-3.4.85-7.02,3.6-8.99.6-.37.87-.77.86-1.48.08-1.28,0-2.77.85-3.93,1.29-1.63,3.22-2.43,5.03-3.28,1.96-.75,4.02-.03,5.81.82,1.2.56,2.45,1.12,3.4,2.09h0ZM119.47,50.97c-.93-.94-2.17-1.51-3.37-2.06-2.55-1.33-5.04-1.56-7.47.15-2.9,1.49-3.96,2.82-3.78,6.16-.01.33-.03.71-.22,1.06-.64.84-1.56,1.24-2.19,2.08-1.91,2.12-2.77,5.18-1.65,7.82-2.41-1.45-5.8-.99-8.41-.27-2.37.69-4.43,3.49-2.86,5.76.68.98,2.06,1.19,3.39,1.47,3.93.82,8,1.59,11.99,1.18,4.08-.31,7.62-2.34,10.35-5.3.93-.94,1.76-1.99,2.07-3.21.33-1.19-.05-2.68.58-4.05.6-1.33,1.65-2.25,2.39-3.36,1.58-2.25.93-5.44-.8-7.43h0Z"/></g><g id="arm-2"><path class="cls-26" d="M119.51,50.94c1.66,1.86,2.35,4.69,1.26,6.94-.79,1.63-2.41,2.84-2.83,4.61-.25,1.04-.04,2.13-.22,3.19-.29,1.72-1.55,3.09-2.79,4.3-.82.8-1.66,1.59-2.59,2.25-2.83,2-6.39,2.74-9.85,2.72-3.46-.02-6.87-.76-10.25-1.5-.92-.2-1.87-.42-2.59-1.03-1.1-.94-1.33-2.65-.75-3.98s1.82-2.28,3.18-2.78c1.35-.51,2.82-.63,4.27-.68,1.34-.05,2.74-.03,3.92.61-1.02-3.19.76-6.76,3.46-8.73.26-.19.54-.38.71-.66.16-.27.19-.59.21-.91.06-1.09-.02-2.23.41-3.24.56-1.34,1.88-2.18,3.16-2.86.35-.19.76-.42,1.17-.66,1.51-.87,3.32-1.02,4.94-.4,1.89.72,4.25,1.77,5.18,2.81Z"/><path d="M119.54,50.91c1.86,2.02,2.54,5.26,1.02,7.68-.71,1.19-1.71,2.18-2.18,3.39-.51,1.19-.07,2.54-.35,4.01-.29,1.47-1.22,2.65-2.16,3.66-2.73,3.22-6.68,5.36-10.89,5.67-4.17.45-8.25-.43-12.28-1.33-1.36-.31-2.97-.57-3.85-1.84-1.88-2.74.48-6.11,3.28-6.88,1.35-.46,2.76-.56,4.12-.61,1.35-.04,2.84-.04,4.14.67l-.42.35c-1.03-3.4.85-7.02,3.6-8.99.6-.37.87-.77.86-1.48.08-1.28,0-2.77.85-3.93,1.29-1.63,3.22-2.43,5.03-3.28,1.96-.75,4.02-.03,5.81.82,1.2.56,2.45,1.12,3.4,2.09h0ZM119.47,50.97c-.93-.94-2.17-1.51-3.37-2.06-2.55-1.33-5.04-1.56-7.47.15-2.9,1.49-3.96,2.82-3.78,6.16-.01.33-.03.71-.22,1.06-.64.84-1.56,1.24-2.19,2.08-1.91,2.12-2.77,5.18-1.65,7.82-2.41-1.45-5.8-.99-8.41-.27-2.37.69-4.43,3.49-2.86,5.76.68.98,2.06,1.19,3.39,1.47,3.93.82,8,1.59,11.99,1.18,4.08-.31,7.62-2.34,10.35-5.3.93-.94,1.76-1.99,2.07-3.21.33-1.19-.05-2.68.58-4.05.6-1.33,1.65-2.25,2.39-3.36,1.58-2.25.93-5.44-.8-7.43h0Z"/></g><path id="light-2" class="cls-20" d="M120.77,57.88c-.79,1.63-2.41,2.84-2.84,4.61-.24,1.03-.04,2.13-.21,3.18-.29,1.72-1.55,3.09-2.8,4.3-.82.81-1.66,1.59-2.59,2.25-2.18,1.54-4.78,2.34-7.45,2.61v-.03c-.01-.93-.76-1.67-1.45-2.3-.52-.47-1.03-.93-1.59-1.34-1.98-1.42-4.42-1.98-6.71-2.81-1.52-.55-2.99-1.21-4.41-2,.42-.29.88-.52,1.35-.7,1.36-.51,2.82-.63,4.27-.68,1.34-.05,2.74-.03,3.92.61-1.01-3.19.76-6.76,3.46-8.73.27-.19.55-.38.71-.66.16-.27.19-.59.21-.91.07-1.09,0-2.23.41-3.24.56-1.34,1.88-2.18,3.16-2.86.35-.19.76-.42,1.17-.66,1.51-.86,3.33-1.01,4.95-.39,1.89.72,4.25,1.77,5.18,2.81,1.66,1.86,2.34,4.69,1.26,6.94Z"/><path id="dark-2" class="cls-15" d="M104.88,74.8v.03c-.8.08-1.6.12-2.4.11-3.46-.02-6.87-.76-10.25-1.5-.92-.2-1.87-.42-2.59-1.02-1.1-.94-1.33-2.66-.75-3.99.38-.86,1.04-1.56,1.83-2.08,1.42.79,2.89,1.45,4.41,2,2.29.83,4.73,1.39,6.71,2.81.56.41,1.07.87,1.59,1.34.69.63,1.44,1.37,1.45,2.3Z"/><g id="strokes-3"><path d="M113.67,67.78c-1.1-2.94-.14-7.41,3.28-8.2.05-.02.11.04.06.08-2.59,1.81-2.99,5.21-3.24,8.12,0,.06-.09.05-.1,0h0Z"/><path d="M102.79,63.49c.47-.82,1.04-1.54,1.26-2.37.17-.88.25-1.79.46-2.69.42,1.93.04,3.96-1.72,5.05h0Z"/><path d="M111.71,59.48c3.07.06,5.36-1.94,7.75-3.61-1.85,2.17-4.72,4.41-7.75,3.61h0Z"/><path d="M103.06,68.54c.15.73-.09,1.61.14,2.26.31.67.71,1.34,1.53,1.46-.87.31-1.67-.51-1.99-1.27-.29-.87.08-1.65.32-2.45h0Z"/><path d="M106.97,70.55c-.19-1.95,1.78-4.06,3.76-3.31.04.02.03.07,0,.08-.8.24-1.49.75-2.07,1.35-.6.58-1.1,1.26-1.6,1.94-.04.05-.09,0-.08-.06h0Z"/><path d="M100.56,71.13c-3.39-.85-6.8-.98-10.25-.42,3.26-1.25,7.11-1.09,10.25.42h0Z"/><path d="M93.67,66.29c.62.18,1.04.75,1.7.67.65-.06,1.31.2,1.95,0-.2.31-.62.38-.95.42-.53.05-1.03.15-1.56,0-.5-.28-.79-.67-1.13-1.1h0Z"/></g></g><g id="front-glove"><g id="outline-4"><path d="M91.31,66.86c1.66-2.1.05-4.22-2.22-4.71-3.09-.87-6.6.52-7.67,3.63-1.71,3.6,1.56,5.79,4.72,6.56,1.05.47,2.33,1.19,3.04.03.35-.69.11-1.59.31-2.35.29-1.19.91-2.33,1.81-3.16h0ZM91.38,66.93c-1.19,1.09-1.92,2.7-1.75,4.32.21,2.65-2.1,2.43-3.62,1.61-3.64-.77-7.11-3.23-5.42-7.38,1.01-3.63,5.37-5.51,8.75-4.1,2.39.85,3.91,3.37,2.04,5.54h0Z"/></g><path id="glove-2" class="cls-3" d="M91.34,66.9c4.06-5.34-9.28-9.19-10.74.36-.51,3.08,3.11,4.79,5.47,5.34.8.32,1.72.89,2.59.48,1.23-.59.68-1.89.9-2.99.24-1.21.86-2.36,1.78-3.19Z"/><path id="dark-3" class="cls-14" d="M91.34,66.9c-.91.83-1.54,1.97-1.77,3.19-.22,1.1.33,2.4-.9,2.99-4.05.21-10.37-3.42-7.34-8.2,1.11-1.45,3.1-.48,4.14.19.5.32,1.09.48,1.68.48.44,0,.9,0,1.13,0,1.87.03,2.07-1.73,3.73-1.34.23.8.07,1.72-.67,2.69Z"/><path id="light-3" class="cls-6" d="M92.01,64.21c-2.19-.51-1.83,3.04-5.93,1.59-1.6-1.09-3.13-1.93-4.75-.92,2.49-5.14,9.75-3.86,10.68-.67Z"/><g id="strokes-4"><path d="M90.71,64.08c-.66.46-1.03,1.19-1.82,1.5-.76.32-1.69.3-2.36-.16,1.19.12,2.18-.16,3.1-.85.31-.22.68-.46,1.08-.49h0Z"/><path d="M85.38,63.6c-.58,1.17-2.13,1.39-2.83.6.41.37,1.02.35,1.53.28.54-.04.92-.5,1.3-.88h0Z"/></g></g></g><g id="head-assembly"><g id="head"><g id="outline-5"><path d="M131.65,32.33c1.73,2.2,3.72,4.56,4.2,7.4.06,1.91-.57,3.98-2.03,5.3-1.27.77-2.46,1.36-3.22,2.61-.31.42-.32.99-.88,1.27-.6.24-1.05-.08-1.58-.23-.51-.24-1.16-.46-1.16-1.21,0,0,.53.17.53.17-.18.29-.4.53-.76.65-.2.08-.49.04-.67,0-.74.16-1.43.85-2.19,1.15-.27.13-.63.18-.94.1-.47-.05-1.06.01-1.66-.2-1.2-.44-1.44-1.83-1.84-2.8-.1-.23-.2-.38-.3-.41-.7-.34-1.21-.89-2.01-.74-1.5.04-3.96.56-4.9-1.01-1.16-2.52-1.65-5.15-2.01-7.91-.18-1.21.54-2.65,1.73-3.08,1.99-.9,3.95-1.39,5.76-2.58,1.83-1.14,3.71-2.37,5.9-2.69,3.31-.39,6.71,1.01,8.03,4.21h0ZM131.57,32.38c-.52-.93-1.13-1.81-1.91-2.51-1.62-1.27-3.97-1.52-5.95-1.2-3.14.67-5.39,3.34-8.38,4.44-1.58.84-4.35.99-4.09,3.31.29,2.48.74,5.21,1.75,7.54.13.19.14.29.35.4,1.44.65,3.09.1,4.65.32.55.14,1.01.55,1.46.78,1.21.76.74,2.71,2.07,3.25.45.19,1.12.11,1.72.22.36,0,.72-.24,1.07-.43.51-.27,1.06-.74,1.75-.81.44.09.69.07.94-.33,0,0,.53.17.53.17-.03.35,1.02.74,1.44.85.79.32.74-.39,1.19-1.02.29-.43.65-.76.99-1.1.65-.71,1.67-1.01,2.43-1.53,1.36-1.13,2.09-3.22,2.06-4.99-.39-2.82-2.36-5.18-4.09-7.36h0Z"/></g><g id="face"><path class="cls-26" d="M131.61,32.36c1.2,1.38,2.25,2.89,3.13,4.5.45.82.86,1.68.99,2.6.18,1.31-.22,2.64-.8,3.83-.24.5-.52.99-.92,1.36-.54.51-1.27.77-1.91,1.16-.41.25-.95.8-1.32,1.19-.25.28-.46.59-.63.92l-.2.41c-.15.31-.49.47-.82.38-.75-.19-1.95-.6-1.87-1.21,0,0-.38.7-1.05.51s-2.27,1.4-3.03,1.24-1.91.16-2.59-.89c-.67-1.05-.69-2.3-1.27-2.55s-1.12-.89-2.05-.81-3.35.3-4.31-.37c-.96-.67-2.2-6.82-2.23-8.33s.61-2.11,1.85-2.62c1.24-.51,3.8-1.47,4.76-2.07s3.9-2.74,6.05-3.16c2.15-.41,4.51.16,5.82.96,1.31.8,2.41,2.96,2.41,2.96Z"/><path d="M131.61,32.36c1.73,2.18,3.71,4.55,4.15,7.38.05,1.84-.63,3.92-2.05,5.15-.77.56-1.74.82-2.38,1.55-.52.49-1,1.03-1.27,1.7-.16.51-.66.74-1.15.52-.51-.16-1.76-.52-1.63-1.15-.14.23-.34.43-.6.51-.27.11-.54-.08-.79.02-.51.16-.94.48-1.4.75-.45.25-.95.6-1.5.45-.52-.06-1.07,0-1.58-.2-1.07-.41-1.25-1.7-1.64-2.63-.14-.57-.74-.69-1.16-1.01-.44-.3-.97-.46-1.5-.37-1.31.08-2.71.25-3.96-.27-.26-.11-.42-.35-.55-.58-1.08-2.43-1.56-5.11-1.88-7.74-.35-2.61,2.63-2.96,4.41-3.81,3.01-1.07,5.31-3.7,8.53-4.24,3.29-.48,6.57.8,7.95,3.97h0ZM131.61,32.36c-1.4-3.18-4.63-4.43-7.95-3.95-3.22.55-5.51,3.18-8.52,4.25-1.76.83-4.74,1.22-4.39,3.79.21,2.11.68,4.21,1.29,6.24.33.99.64,2.18,1.88,2.27,1.05.18,2.12.11,3.18.03.85-.17,1.52.42,2.21.79.99.71.69,2.75,2.11,3.23.5.19,1.04.14,1.57.2,1.09.18,1.88-.93,2.88-1.2.27-.1.54.09.79-.02.27-.09.48-.31.62-.56-.08.54.56.79.96.97.43.13.91.43,1.36.25.44-.21.49-.79.78-1.16.78-1.26,2.1-1.91,3.33-2.62,1.41-1.22,2.09-3.3,2.05-5.13-.43-2.83-2.41-5.19-4.14-7.38h0Z"/></g><g id="strokes-5"><path d="M128.26,45.73c-.19.2-.49.27-.64.46-.2.16-.18.44-.21.71-.09-.25-.1-.57.11-.81.23-.19.49-.26.75-.36,0,0-.25.09,0,0Z"/><path d="M123.64,43.94c.74.02,1.51,0,2.23.17.29.2.47.51.67.78-.2-.18-.38-.39-.56-.57-.17-.2-.47-.13-.73-.17-.53-.07-1.07-.1-1.6-.22h0Z"/></g><g id="mouth"><path id="teeth" class="cls-11" d="M124.57,47.72l-.09.03c-.27.09-.36.36-.18.55,0,0,.31.49.45.51s.22-.22.42-.3c.2-.08.48-.1.54-.13s-.08-.23-.08-.23c-.12-.38-.62-.58-1.06-.44Z"/><path id="lip-upper" class="cls-16" d="M125.85,48.43s.04-.04.05-.06c0-.02,0-.04,0-.06-.08-.33-.39-.62-.79-.73-.08-.02-.18-.04-.25,0-.03.02-.31.08-.3.11.01.02.29.01.32.02s.06,0,.1,0c.14,0,.25.09.32.19.09.11.26.78.55.53Z"/><path id="lip-lower" class="cls-16" d="M124.99,48.77c-.28-.47-.44-.6-.43-1.07-.2.01-.36.18-.37.34-.03.41.44,1.04.8.73Z"/><g id="stroke"><path d="M124.61,47.72c.22.25.42.51.57.8-.16-.23-.42-.55-.57-.8h0Z"/></g></g><path id="beard" class="cls-5" d="M127.06,47.05c-.38-1.59-3.16-2.97-1.73-4.56.44-.17.61-.91.22-1.2-1.8-.82-4.16,1.67-5.74,2.45-.47,2.38.35,6.46,3.61,5.63,1.5-.46.35-.59.62-1.54.05-.11,1.39-.75,1.57-.41.21,1.04,1.98.72,1.44-.36Z"/><g id="eye-assembly"><g id="eyelash"><path d="M131.76,44.68c.34.19.76,0,1.05.3.08.13.15.39-.02.48-.3-.11-.31-.08-.51-.27-.11-.06-.62-.35-.52-.5h0Z"/></g><path id="eye" class="cls-11" d="M132.45,45.52c-.1.04-.2.1-.29.18-.06.04-.1.1-.14.18-.02.02-.02.06-.02.08h-.06c-.33-.08-.82-.59-.39-.73.43-.1.78.08.9.29Z"/><g id="pupil"><path id="white" class="cls-11" d="M132.5,45.71c0,.09-.08.17-.22.2-.01-.01-.01-.03-.01-.04.01-.04.03-.08.06-.11.04-.03.09-.05.14-.05h.03Z"/><path id="black" d="M132.5,45.71h-.03s-.1.02-.14.05c-.03.03-.05.07-.06.11,0,.01,0,.03.01.04-.07.03-.17.04-.28.04,0-.02,0-.06.02-.08.04-.07.08-.13.13-.17.1-.08.2-.14.3-.18.04.06.06.13.05.19Z"/></g><g id="eyelid"><path d="M132.48,45.59c-.29-.17-.52-.35-.88-.36.31-.2.75.06.88.36h0Z"/></g></g></g></g><g id="back-leg-assembly"><g id="back-shoe"><path id="outline-6" class="cls-10" d="M74.77,107.36c-1.75-.08-3.71-.1-5.02,1.07-.92.83-1.32,2.11-1.39,3.34s.17,2.47.31,3.7c.18,1.61.21,3.23.09,4.85-.08,1.03-.22,2.07-.09,3.09s.58,2.06,1.44,2.64c.86.58,1.96.6,2.99.54,4.25-.24,8.43-1.54,12.69-1.45,2.68.05,5.32.65,7.94,1.26.55.13,1.14.25,1.68.08,1.05-.34,1.45-1.61,1.59-2.7.1-.84.15-1.69.13-2.54-.02-.78-.12-1.64-.69-2.17-.64-.6-1.62-.57-2.49-.61-2.28-.11-4.51-.92-6.32-2.3-.85-.65-1.65-1.49-1.88-2.54-.31-1.43.41-2.93-.47-4.25-.6-.9-1.9-1.62-2.95-1.85-2.3-.51-5.19-.04-7.55-.15Z"/><path id="shoe" class="cls-7" d="M74.77,107.36c-1.75-.08-3.71-.1-5.02,1.07-.92.83-1.32,2.11-1.39,3.34s.17,2.47.31,3.7c.18,1.61.21,3.23.09,4.85-.08,1.03-.22,2.07-.09,3.09s.58,2.06,1.44,2.64c.86.58,1.96.6,2.99.54,4.25-.24,8.43-1.54,12.69-1.45,2.68.05,5.32.65,7.94,1.26.55.13,1.14.25,1.68.08,1.05-.34,1.45-1.61,1.59-2.7.1-.84.15-1.69.13-2.54-.02-.78-.12-1.64-.69-2.17-.64-.6-1.62-.57-2.49-.61-2.28-.11-4.51-.92-6.32-2.3-.85-.65-1.65-1.49-1.88-2.54-.31-1.43.41-2.93-.47-4.25-.6-.9-1.9-1.62-2.95-1.85-2.3-.51-5.19-.04-7.55-.15Z"/><path id="dark-4" class="cls-7" d="M97.12,121.24c.01.85-.03,1.69-.13,2.54-.14,1.09-.53,2.36-1.59,2.7-.54.17-1.12.05-1.68-.08-2.61-.6-5.25-1.2-7.94-1.26-4.26-.08-8.43,1.21-12.68,1.45-1.03.06-2.14.04-2.99-.54-.86-.57-1.31-1.61-1.44-2.64-.13-1.02.01-2.06.09-3.09.13-1.61.1-3.23-.08-4.84-.14-1.23-.37-2.46-.31-3.7s.47-2.52,1.39-3.35c1.31-1.17,3.26-1.15,5.01-1.07,1.79.08,3.89-.17,5.81-.06-.19,2.02-.11,4.05.33,6.04.4,1.83,1.2,3.72,2.8,4.71.92.57,2.02.78,3.01,1.2,1.79.75,3.34,2.19,5.27,2.37,1.73.16,3.38-.75,5.05-1.26.05.29.07.59.08.88Z"/><path id="light-4" class="cls-23" d="M97.04,120.36c-1.67.51-3.32,1.42-5.05,1.26-1.93-.18-3.48-1.62-5.27-2.37-.99-.42-2.09-.63-3.01-1.2-1.6-.99-2.4-2.88-2.8-4.71-.44-1.99-.52-4.02-.33-6.04.6.02,1.19.09,1.74.21,1.05.23,2.35.95,2.95,1.85.87,1.32.15,2.82.47,4.25.23,1.05,1.02,1.89,1.88,2.54,1.81,1.38,4.04,2.2,6.32,2.31.87.04,1.85.01,2.49.61.36.33.53.8.61,1.29Z"/><g id="strokes-6"><path d="M74.19,123.15c.81-1.06,2.22-2.03,3.66-1.81,2.2.36,4.35.85,6.45,1.54.05.02.04.11-.02.1-2.46-.29-5.2-.89-7.62-.53-.76.15-1.54.52-2.42.78-.05.02-.09-.05-.06-.08h0Z"/><path d="M83.23,113.33c1.5,1.95,2.85,3.78,4.72,5.35.89.77,1.89,1.47,3.03,1.36,1.16-.06,2.46-.75,3.62-.2.05.02.02.11-.04.09-1.22-.39-2.31.42-3.52.61-1.31.25-2.58-.49-3.58-1.22-.95-.77-2.08-1.43-2.79-2.52-.72-1.05-1.21-2.2-1.52-3.41-.01-.05.06-.09.09-.05h0Z"/></g></g><g id="back-leg"><path id="outline-7" class="cls-10" d="M76.32,51.01c-.97.14-1.98.3-2.77.88-.72.52-1.17,1.33-1.59,2.1-.62,1.13-1.24,2.3-1.47,3.57-.2,1.13-.09,2.29.03,3.44.68,6.6,1.39,13.32,4.02,19.41.67,1.57,1.49,3.15,1.46,4.85-.01,1.01-.32,1.99-.63,2.95-1.65,5.19-3.32,10.4-5.58,15.36-1.12,2.46-2.41,4.91-2.79,7.59s.38,5.72,2.6,7.26c.49.34,1.07.6,1.67.61,1.04.01,1.91-.71,2.84-1.18,3.22-1.63,7.05-.14,10.63.31,1.88.24,4.28-.16,4.85-1.97.65-2.1-1.72-3.85-2.37-5.95-.54-1.72.13-3.57.98-5.16s1.9-3.12,2.19-4.9c.38-2.27-.48-4.85.77-6.78.58-.9,1.53-1.48,2.24-2.29,1.4-1.6,1.68-3.93,1.36-6.03s-1.16-4.09-1.77-6.12c-.94-3.16-1.33-6.48-1.14-9.76.09-1.58.32-3.17.87-4.65,1.54-4.15,4.86-8.96.08-12.38-4.44-3.18-11.51-1.88-16.48-1.15Z"/><path id="leg" class="cls-24" d="M76.32,51.01c-.97.14-1.98.3-2.77.88-.72.52-1.17,1.33-1.59,2.1-.62,1.13-1.24,2.3-1.47,3.57-.2,1.13-.09,2.29.03,3.44.68,6.6,1.39,13.32,4.02,19.41.67,1.57,1.49,3.15,1.46,4.85-.01,1.01-.32,1.99-.63,2.95-1.65,5.19-3.32,10.4-5.58,15.36-1.12,2.46-2.41,4.91-2.79,7.59s.38,5.72,2.6,7.26c.49.34,1.07.6,1.67.61,1.04.01,1.91-.71,2.84-1.18,3.22-1.63,7.05-.14,10.63.31,1.88.24,4.28-.16,4.85-1.97.65-2.1-1.72-3.85-2.37-5.95-.54-1.72.13-3.57.98-5.16s1.9-3.12,2.19-4.9c.38-2.27-.48-4.85.77-6.78.58-.9,1.53-1.48,2.24-2.29,1.4-1.6,1.68-3.93,1.36-6.03s-1.16-4.09-1.77-6.12c-.94-3.16-1.33-6.48-1.14-9.76.09-1.58.32-3.17.87-4.65,1.54-4.15,4.86-8.96.08-12.38-4.44-3.18-11.51-1.88-16.48-1.15Z"/><path id="mid" class="cls-1" d="M90.39,100.19c-.3,1.77-1.35,3.31-2.2,4.89-.84,1.59-1.51,3.44-.98,5.16.18.56.47,1.1.8,1.62-.37.19-.73.38-1.1.55-3.17,1.48-6.86,1.32-10.29.64-1.16-.23-2.36-.54-3.23-1.33-1.11-1-1.48-2.63-1.32-4.11.16-1.49.79-2.88,1.4-4.25.67-1.48,1.34-2.97,2.01-4.45.79-1.76,1.6-3.7,1.08-5.56-.31-1.11-1.05-2.01-1.95-2.75.25-.79.51-1.59.76-2.38.3-.96.61-1.94.63-2.95.02-1.71-.79-3.29-1.47-4.86-2.62-6.09-3.33-12.81-4.01-19.41-.12-1.14-.24-2.3-.04-3.44.23-1.27.86-2.43,1.48-3.56.42-.78.87-1.59,1.59-2.11.79-.58,1.8-.74,2.77-.88,2.05-.31,4.46-.71,6.89-.84,2.49,5.53,3.06,11.9,1.59,17.79-.54,2.16-1.35,4.29-1.41,6.52-.07,2.54.91,5.1,2.65,6.96,1.15,1.22,2.69,2.29,2.97,3.94.56,3.25-4.16,5.73-3.43,8.95.48,2.09,2.89,2.88,4.91,3.72.02.72.02,1.45-.1,2.14Z"/><path id="light-5" class="cls-24" d="M94.75,85.09c.32,2.1.04,4.42-1.36,6.03-.7.8-1.65,1.39-2.23,2.29-.88,1.34-.72,2.99-.67,4.64-2.02-.84-4.43-1.63-4.91-3.72-.73-3.22,3.99-5.7,3.43-8.95-.28-1.65-1.82-2.72-2.97-3.94-1.74-1.86-2.72-4.42-2.65-6.96.06-2.23.87-4.36,1.41-6.52,1.47-5.89.9-12.26-1.59-17.79,3.46-.2,6.97.12,9.58,1.99,4.79,3.42,1.46,8.23-.08,12.38-.55,1.49-.77,3.07-.87,4.66-.19,3.28.2,6.6,1.14,9.76.61,2.04,1.45,4.02,1.77,6.13Z"/><path id="dark-5" class="cls-7" d="M89.59,116.19c-.57,1.82-2.96,2.21-4.85,1.97-3.58-.45-7.4-1.93-10.63-.31-.92.47-1.8,1.2-2.84,1.18-.6,0-1.17-.26-1.67-.6-2.22-1.54-2.97-4.58-2.6-7.26.38-2.68,1.66-5.13,2.79-7.59,1.91-4.2,3.4-8.58,4.82-12.98.9.74,1.64,1.64,1.95,2.75.52,1.86-.29,3.8-1.08,5.56-.67,1.48-1.34,2.97-2.01,4.45-.61,1.37-1.24,2.76-1.4,4.25-.16,1.48.21,3.11,1.32,4.11.87.79,2.07,1.1,3.23,1.33,3.43.68,7.12.84,10.29-.64.37-.17.73-.36,1.1-.55.91,1.44,2.06,2.79,1.58,4.33Z"/><g id="strokes-7"><path d="M85.16,110.71c-.88.92-1.76,2.48-2.91,2.97-2.72.09-5.81-1.14-7.59-3.22-.62-1.32-.17-2.82-.26-4.17.04-1.06-.02-2.12.16-3.23.44-1.89,1.77-4.13,2.49-5.92,0,0,.03-.07.03-.07l.07.02,1.35.33c.06.02.04.11-.02.1,0,0-1.37-.25-1.37-.25l.1-.05c-.59,1.73-1.79,4.2-2.12,5.94-.12,1-.02,2.08,0,3.14.04,1.04.03,2.17.11,3.13.06.46.27.71.67,1.01,1.82,1.24,4.02,2.28,6.23,2.48,1.08-.52,1.97-1.62,3-2.28.04-.04.11.03.07.07h0Z"/><path d="M88.03,99.74c-1.29-.69-2-1.99-3.27-2.67-.15-.09-.35-.21-.44-.45-.09-.23-.06-.47,0-.66.43-1.05,1.3-1.83,2.31-2.27,0,0,.03.04.03.04-.48.53-.94,1.04-1.34,1.59-.4.55-.95,1.09-.4,1.53.98.98,2.61,1.55,3.1,2.89h0Z"/><path d="M92.14,88.75c-.72-.36-1.18-.95-1.59-1.6-.21-.23-.76-.79-1.02-.72-.49.41-1.14.93-1.81,1.18,0,0-.03-.04-.03-.04.28-.44.64-.81,1.01-1.15.25-.23.87-.71,1.24-.3.29.29.42.65.73.91.57.44,1.33.99,1.47,1.71h0Z"/><path d="M84.32,56.62c2.43,1.37,2.01,4.75,1.28,6.97-.93,3.44-1.89,7.09-1.5,10.67.34,2.43,2.32,4.13,3.99,5.78l2.62,2.58-.19.04c.54-.87.68-1.96.86-2.91.16,1.02-.26,2.21-.71,3.17-1.66-1.55-4.06-3.44-5.55-5.14-1.82-1.86-2.09-4.7-1.86-7.16.14-2.48.59-4.97,1.44-7.31.79-2.16,1.52-4.86-.43-6.6-.05-.03,0-.11.05-.08h0Z"/><path d="M80.65,88.27c1.18-4.03,1.74-6.77-1.5-9.98-.81-.96-1.57-2.2-1.72-3.53-.38-2.66.59-5.09.77-7.53.31-2.43-.57-4.98-2.39-6.7-.05-.04.02-.12.07-.07,1.93,1.63,3.01,4.24,2.82,6.81-.11,2.53-.93,5.02-.48,7.36.2,1.17.85,2.13,1.69,3.03.81.9,1.77,1.87,2.24,3.2.85,2.6-.21,5.21-1.39,7.46-.03.05-.11.02-.09-.04h0Z"/></g></g></g><g id="front-leg-assembly"><g id="front-shoe"><path id="outline-8" class="cls-10" d="M35.34,73.2c-3.13-.83-6.37-1.13-9.61-1.32-.43-.03-.87-.05-1.29.05-.43.1-.82.33-1.2.55-2.5,1.45-5.01,2.9-7.33,4.62-3.95,2.9-7.35,6.51-11.26,9.48-1.08.82-2.24,1.63-2.93,2.8-.71,1.2-.86,2.68-.6,4.05s.88,2.65,1.64,3.82c.79,1.22,1.75,2.38,3.02,3.07,1.81.99,4.09.92,5.99.11,1.9-.82,3.45-2.31,4.64-4,.68-.97,1.26-2.01,1.95-2.96,2.5-3.46,6.58-5.73,10.84-6.04,1.1-.08,2.21-.04,3.28-.26,1.22-.26,2.36-.85,3.33-1.64,3.72-2.99,5.37-10.75-.45-12.31Z"/><path id="shoe-2" class="cls-28" d="M35.34,73.2c-3.13-.83-6.37-1.13-9.61-1.32-.43-.03-.87-.05-1.29.05-.43.1-.82.33-1.2.55-2.5,1.45-5.01,2.9-7.33,4.62-3.95,2.9-7.35,6.51-11.26,9.48-1.08.82-2.24,1.63-2.93,2.8-.71,1.2-.86,2.68-.6,4.05s.88,2.65,1.64,3.82c.79,1.22,1.75,2.38,3.02,3.07,1.81.99,4.09.92,5.99.11,1.9-.82,3.45-2.31,4.64-4,.68-.97,1.26-2.01,1.95-2.96,2.5-3.46,6.58-5.73,10.84-6.04,1.1-.08,2.21-.04,3.28-.26,1.22-.26,2.36-.85,3.33-1.64,3.72-2.99,5.37-10.75-.45-12.31Z"/><path id="dark-6" class="cls-28" d="M37.93,82.88c-3.91-.2-7.81.05-11.52,1.27-2.06.68-4.01,1.64-5.95,2.61-1.07.53-2.16,1.06-3.1,1.8-2.66,2.05-3.97,5.47-4.21,8.82-.06.77-.06,1.54-.02,2.31-.43.27-.89.52-1.37.73-1.9.81-4.17.89-5.99-.11-1.27-.7-2.23-1.85-3.01-3.07-.76-1.17-1.39-2.45-1.64-3.82-.26-1.37-.11-2.85.6-4.05.7-1.17,1.85-1.98,2.94-2.8,3.9-2.97,7.3-6.57,11.25-9.48,2.33-1.71,4.84-3.16,7.34-4.61.38-.22.77-.45,1.2-.55.42-.1.86-.08,1.29-.05,3.23.2,6.47.49,9.6,1.32,4.51,1.21,4.54,6.13,2.59,9.68Z"/><path id="light-6" class="cls-17" d="M37.93,82.88c-.56,1.04-1.29,1.95-2.13,2.63-.98.79-2.11,1.38-3.33,1.64-1.08.23-2.19.18-3.28.26-4.26.31-8.34,2.58-10.84,6.04-.69.96-1.27,2-1.95,2.97-.89,1.26-1.98,2.42-3.27,3.27-.04-.77-.04-1.54.02-2.31.24-3.35,1.55-6.77,4.21-8.82.94-.74,2.03-1.27,3.1-1.8,1.94-.97,3.89-1.93,5.95-2.61,3.71-1.22,7.61-1.47,11.52-1.27Z"/><g id="strokes-8"><path d="M13.34,97.11c.9-.58.9-.71,1.56-1.53.53-.65,1.03-1.5,1.65-2.01-.26,1.02-.83,2-1.19,3.01-.08.17-.2.46-.49.63-.57.34-1.08.23-1.51,0-.04-.02-.04-.07,0-.1h0Z"/><path d="M19.62,85.89c.93-.31,1.83-.49,2.46-.87.62-.36,1.24-1.04,2.26-1.53,1.92-.79,3.91-.62,5.81-.22-1.75.52-3.74.32-5.39,1.13-.83.36-1.51,1.02-2.39,1.35-.89.33-1.84.28-2.75.24-.06,0-.06-.09,0-.1h0Z"/></g></g><g id="front-leg"><path id="outline-9" class="Graphic_Style_4" d="M71.76,41.35c-1.22.17-2.44.46-3.54,1.02-3.33,1.68-5.07,5.68-4.79,9.4.23,3.11,1.66,6.21.96,9.25-.25,1.11-.78,2.13-1.3,3.14-1.22,2.38-2.45,4.77-3.67,7.15-.16.31-.33.64-.61.84-.38.28-.88.3-1.35.29-4.26-.1-8.5-1.83-12.69-1.05-1.16.22-2.3.62-3.48.69-2.03.11-3.97-.78-5.95-1.24s-4.39-.34-5.63,1.28c-.98,1.28-.89,3.03-1.2,4.61-.63,3.18-2.97,5.77-3.83,8.89-.3,1.08-.12,2.63.98,2.79.91.13,1.58-.83,2.45-1.1,1.37-.43,2.58.88,3.72,1.76,2.16,1.67,5.08,1.97,7.81,1.84s5.47-.63,8.18-.29c1.63.2,3.21.71,4.84.91,5.04.62,10.03-1.66,15.1-1.52,2.53.07,5.08.74,7.58.3.9-.16,1.83-.5,2.41-1.21,1.2-1.47.42-3.71,1.04-5.51.97-2.84,5.21-4.21,4.92-7.19-.05-.49-.23-.96-.29-1.45-.24-2.02,1.59-3.62,3.18-4.89,3.04-2.41,6.15-5.55,6.02-9.42-.09-2.64-1.45-5.15-2.17-7.66-.41-1.44-.46-3.02-.98-4.42-1.36-3.65-6.42-5.79-9.88-6.71-2.69-.71-5.11-.49-7.83-.49Z"/><path id="leg-2" class="cls-8" d="M71.76,41.35c-1.22.17-2.44.46-3.54,1.02-3.33,1.68-5.07,5.68-4.79,9.4.23,3.11,1.66,6.21.96,9.25-.25,1.11-.78,2.13-1.3,3.14-1.22,2.38-2.45,4.77-3.67,7.15-.16.31-.33.64-.61.84-.38.28-.88.3-1.35.29-4.26-.1-8.5-1.83-12.69-1.05-1.16.22-2.3.62-3.48.69-2.03.11-3.97-.78-5.95-1.24s-4.39-.34-5.63,1.28c-.98,1.28-.89,3.03-1.2,4.61-.63,3.18-2.97,5.77-3.83,8.89-.3,1.08-.12,2.63.98,2.79.91.13,1.58-.83,2.45-1.1,1.37-.43,2.58.88,3.72,1.76,2.16,1.67,5.08,1.97,7.81,1.84s5.47-.63,8.18-.29c1.63.2,3.21.71,4.84.91,5.04.62,10.03-1.66,15.1-1.52,2.53.07,5.08.74,7.58.3.9-.16,1.83-.5,2.41-1.21,1.2-1.47.42-3.71,1.04-5.51.97-2.84,5.21-4.21,4.92-7.19-.05-.49-.23-.96-.29-1.45-.24-2.02,1.59-3.62,3.18-4.89,3.04-2.41,6.15-5.55,6.02-9.42-.09-2.64-1.45-5.15-2.17-7.66-.41-1.44-.46-3.02-.98-4.42-1.36-3.65-6.42-5.79-9.88-6.71-2.69-.71-5.11-.49-7.83-.49Z"/><path id="dark-7" class="cls-19" d="M68.85,90.06c-.37-.03-.73-.05-1.09-.06-5.07-.14-10.06,2.14-15.1,1.52-1.63-.2-3.21-.7-4.84-.91-2.71-.34-5.45.16-8.18.29-2.73.13-5.65-.17-7.81-1.84-1.14-.87-2.35-2.18-3.72-1.75-.88.27-1.55,1.23-2.46,1.1-1.1-.16-1.28-1.71-.98-2.79.87-3.12,3.2-5.71,3.83-8.89.32-1.57.23-3.33,1.2-4.61,1.24-1.61,3.65-1.73,5.63-1.27.02.01.05.01.07.02.03.39.03.79.02,1.17-.09,2.68-.79,5.34-2.02,7.72-.74,1.44-1.7,2.94-1.46,4.54.03.21.09.43.24.58.23.21.59.19.9.17,4.33-.33,8.62.81,12.94,1.32,4.44.52,8.95.38,13.35-.42.83-.16,1.69-.35,2.38-.84.51-.37.91-.89,1.47-1.18,1.3-.67,2.93.24,3.72,1.47.8,1.23,1.05,2.73,1.63,4.07.09.2.18.4.28.59Z"/><path id="light-7" class="cls-18" d="M92.62,60.63c.13,3.87-2.98,7.02-6.02,9.42-1.59,1.27-3.41,2.87-3.18,4.89.06.49.24.96.29,1.45.29,2.98-3.96,4.36-4.93,7.19-.61,1.8.17,4.04-1.03,5.51-.58.71-1.51,1.05-2.41,1.21-2.14.38-4.32-.06-6.49-.24-.1-.19-.19-.39-.28-.59-.58-1.34-.83-2.84-1.63-4.07-.79-1.23-2.42-2.14-3.72-1.47-.56.29-.96.81-1.47,1.18-.69.49-1.55.68-2.38.84-4.4.8-8.91.94-13.35.42-4.32-.51-8.61-1.65-12.94-1.32-.31.02-.67.04-.9-.17-.15-.15-.21-.37-.24-.58-.24-1.6.72-3.1,1.46-4.54,1.23-2.38,1.93-5.04,2.02-7.72.01-.38.01-.78-.02-1.17,1.96.46,3.87,1.33,5.88,1.21,1.18-.06,2.32-.47,3.48-.69.32-.06.64-.1.95-.13,1.4,2.63,3.46,4.92,5.96,6.56.65.42,1.36.82,2.14.91.79.1,1.59-.12,2.34-.38,1.19-.41,2.34-.93,3.43-1.55.72-.41,1.44-.9,1.82-1.63.27-.5.34-1.08.46-1.63.4-1.9,1.32-3.69,2.62-5.12.46-.51.98-1.01,1.13-1.67.14-.65-.11-1.32-.42-1.91-.39-.75-.87-1.43-1.42-2.07.26-.57.48-1.15.62-1.75.43-1.89.04-3.8-.36-5.72.08.06.15.12.23.18,2.29,1.76,4.74,3.54,5.99,6.15.68,1.43.96,3.03,1.06,4.61.22,3.2-.2,6.44-1.23,9.47,0,0-.74,1.34-.54,1.11-.18.74-.36,1.51-.18,2.25.17.74.82,1.42,1.57,1.37.43-.03.81-.29,1.13-.58.69-.64,1.16-1.49,1.58-2.35,1.1-2.22,1.95-4.58,2.52-7,.47-2.01.76-4.09,1.7-5.93,1.62-3.18,4.98-5.26,6.31-8.57.19-.46.34-.97.26-1.46-.17-1.11-1.33-1.73-2.3-2.31-.84-.5-1.62-1.09-2.34-1.75-.36-.34-.72-.72-.85-1.2-.17-.61.08-1.25.24-1.87.52-2,.06-4.12-1.02-5.88.47.07.94.17,1.43.3,3.46.92,8.52,3.05,9.88,6.71.52,1.4.57,2.98.98,4.42.72,2.5,2.08,5.02,2.17,7.66Z"/><path id="mid-2" class="cls-13" d="M65.61,66.75c-.15.66-.67,1.16-1.13,1.67-1.3,1.43-2.22,3.22-2.62,5.12-.12.55-.19,1.13-.46,1.63-.38.73-1.1,1.22-1.82,1.63-1.09.62-2.24,1.14-3.43,1.55-.75.26-1.55.48-2.34.38-.78-.09-1.49-.49-2.14-.91-2.5-1.64-4.56-3.93-5.96-6.56,3.88-.39,7.8,1.09,11.74,1.18.47.01.97-.01,1.35-.29.29-.2.46-.53.62-.84,1.22-2.38,2.45-4.77,3.67-7.15.24-.46.47-.92.68-1.39.55.64,1.03,1.32,1.42,2.07.31.59.56,1.26.42,1.91Z"/><path id="dark-8" class="cls-19" d="M84.17,56.01c-1.33,3.31-4.69,5.39-6.31,8.57-.94,1.84-1.23,3.92-1.7,5.93-.57,2.42-1.42,4.78-2.52,7-.42.86-.89,1.71-1.58,2.35-.32.29-.7.55-1.13.58-.75.05-1.4-.63-1.57-1.37-.18-.74,0-1.51.18-2.25-.2.23.54-1.11.54-1.11,1.03-3.03,1.45-6.27,1.23-9.47-.1-1.58-.38-3.18-1.06-4.61-1.25-2.61-3.7-4.39-5.99-6.15-.08-.06-.15-.12-.23-.18-.25-1.18-.51-2.36-.6-3.54-.28-3.71,1.47-7.71,4.79-9.39,1.1-.56,2.32-.85,3.54-1.02,2.23,0,4.25-.15,6.39.19h.01c1.08,1.76,1.54,3.88,1.02,5.88-.16.62-.41,1.26-.24,1.87.13.48.49.86.85,1.2.72.66,1.5,1.25,2.34,1.75.97.58,2.13,1.2,2.3,2.31.08.49-.07,1-.26,1.46Z"/><g id="strokes-9"><path d="M88.94,60.1c-2.72,1.52-5.73,3.17-6.82,6.13-.54,1.29-.43,3.17-1.55,4.85-.58.81-1.27,1.29-1.75,1.87-.5.53-.88,1.27-.65,2.07.03.05-.06.11-.09.05-.88-1.75,1.03-3.08,1.82-4.39.83-1.44.7-3.2,1.28-4.8,1.16-3.13,4.91-5.28,7.76-5.79h0Z"/><path d="M77.41,80.89c-.74-.2-1.47-.53-2.15-.86-.49-.27-.65-.18-1.05.25-1.36,2.07-3.46,3.42-5.77,1.67-.43-.29-.85-.59-1.25-.95-.04-.03,0-.1.05-.08,3.3,1.35,3.97,1.64,6.32-1.32.36-.35.89-.62,1.43-.5.52.17.86.55,1.28.82l1.21.88s0,.11-.06.08h0Z"/><path d="M62.74,80.81c-.57,3.04-3.33,5.48-6.43,5.67-3.05.25-5.99-.85-9.02-.53-3.73-.09-11.1,3.3-12.24-2.14-.24-1.6.88-3.18,2.36-3.6v.02s.3.9.3.9l-.34-.88c-1.28.5-2.37,2.06-2.05,3.52,1.09,4.97,8.44,1.57,11.94,1.68,3.09-.29,6.06.81,9.03.65,2.97-.1,5.72-2.34,6.46-5.29h0Z"/><path d="M39.07,76.27c2.17-.26,4.36-.22,6.15-1.09-.07.2.03.04.04-.12.07-.62-.11-1.38-.69-2.08-.05-.03-.01-.12.05-.09.79.4,1.35,1.21,1.43,2.1.19,1.01-1.1,1.34-1.84,1.62-1.71.48-3.49.17-5.15-.24-.06-.02-.04-.1.02-.1h0Z"/><path d="M50.99,76.49c.74.6,1.52,1.26,2.46,1.35,1.82-.1,3.8-.69,5.35-1.64,2.55-1.65,2.15-5.36,4.51-7.22,1.72-1.45,4.51-.55,4.22,1.89.06-.97-.57-1.91-1.43-2.2-4.71-.81-3.79,6.15-7.03,7.9-1.69,1.02-3.69,1.51-5.64,1.51-1.02-.19-1.76-.91-2.42-1.59h0Z"/></g></g></g><g id="shirt-assembly"><path id="outline-10" class="Graphic_Style_4" d="M115.55,57.15c2.03.21,4.53.36,5.62-1.36.68-1.07.49-2.45.28-3.7-.54-3.19-1.38-6.83-4.24-8.33-.97-.51-2.09-.71-3.06-1.22-2.53-1.35-3.47-5.02-1.89-7.41.2-.3.44-.59.51-.95.15-.67-.31-1.3-.74-1.83-1.66-2.04-3.39-4.02-5.17-5.96-1.88-2.05-4.07-4.16-6.84-4.43-.76-.08-1.59-.03-2.19-.5-.29-.23-.48-.55-.65-.87-.75-1.37-1.33-2.84-2.26-4.1-.93-1.25-2.32-2.3-3.88-2.31-1.47,0-2.79.89-3.83,1.92-1.04,1.03-1.92,2.23-3.09,3.12-1.95,1.48-4.48,1.91-6.84,2.57-.44.12-.89.26-1.24.57-.79.69-.73,1.92-.65,2.96.18,2.5.04,5.02-.42,7.49-.42,2.27-1.21,4.65-3.07,6.03-.7.52-1.65,1.22-1.3,2.02.08.19.23.33.34.5.6.88.08,2.29-.95,2.55,1.44,1.92,4.31,1.8,6.69,1.5,2.38-.29,5.27-.36,6.64,1.61.65.94.79,2.15,1.4,3.13.51.83,1.33,1.41,1.96,2.16s1.07,1.8.65,2.68c-.12.26-.31.48-.38.76-.23.95.95,1.53,1.79,2.02,1.46.86,2.35,2.49,2.59,4.16.11.75.1,1.53.35,2.25s.88,1.38,1.64,1.38c.33,0,.65-.13.95-.27,2.87-1.33,4.06-3.89,6.1-6.08,1.95-2.09,5.32-2.1,7.97-2.25,2.4-.14,4.81-.08,7.19.17Z"/><path id="shirt" class="cls-11" d="M115.55,57.15c2.03.21,4.53.36,5.62-1.36.68-1.07.49-2.45.28-3.7-.54-3.19-1.38-6.83-4.24-8.33-.97-.51-2.09-.71-3.06-1.22-2.53-1.35-3.47-5.02-1.89-7.41.2-.3.44-.59.51-.95.15-.67-.31-1.3-.74-1.83-1.66-2.04-3.39-4.02-5.17-5.96-1.88-2.05-4.07-4.16-6.84-4.43-.76-.08-1.59-.03-2.19-.5-.29-.23-.48-.55-.65-.87-.75-1.37-1.33-2.84-2.26-4.1-.93-1.25-2.32-2.3-3.88-2.31-1.47,0-2.79.89-3.83,1.92-1.04,1.03-1.92,2.23-3.09,3.12-1.95,1.48-4.48,1.91-6.84,2.57-.44.12-.89.26-1.24.57-.79.69-.73,1.92-.65,2.96.18,2.5.04,5.02-.42,7.49-.42,2.27-1.21,4.65-3.07,6.03-.7.52-1.65,1.22-1.3,2.02.08.19.23.33.34.5.6.88.08,2.29-.95,2.55,1.44,1.92,4.31,1.8,6.69,1.5,2.38-.29,5.27-.36,6.64,1.61.65.94.79,2.15,1.4,3.13.51.83,1.33,1.41,1.96,2.16s1.07,1.8.65,2.68c-.12.26-.31.48-.38.76-.23.95.95,1.53,1.79,2.02,1.46.86,2.35,2.49,2.59,4.16.11.75.1,1.53.35,2.25s.88,1.38,1.64,1.38c.33,0,.65-.13.95-.27,2.87-1.33,4.06-3.89,6.1-6.08,1.95-2.09,5.32-2.1,7.97-2.25,2.4-.14,4.81-.08,7.19.17Z"/><path class="cls-9" d="M97.07,29.2c-.7.5-1.71.35-2.43-.13-.71-.48-1.2-1.22-1.67-1.95-.83-1.27-1.66-2.55-2.49-3.83-.71-1.09-1.57-2.28-2.86-2.47-1.54-.22-2.99,1.14-4.52.89-.69-.12-1.24-.52-1.67-1.08.96-.35,1.89-.79,2.71-1.41,1.17-.89,2.05-2.09,3.09-3.12.93-.92,2.09-1.73,3.37-1.89.02.25.05.49.09.73.19,1.17.51,2.33,1.06,3.38,1.5,2.86,4.59,4.71,5.78,7.72.42,1.07.47,2.49-.46,3.16Z"/><path class="cls-2" d="M81.47,30.95c.11,1.36-.28,2.72-.68,4.03-.13.42-.28.88-.64,1.15-.39.28-.91.26-1.39.22-1.54-.12-3.08-.3-4.61-.57.4-.95.66-1.97.84-2.97.45-2.46.6-4.99.42-7.49-.08-1.05-.14-2.27.65-2.96.34-.3.8-.44,1.24-.57.17-.05.33-.09.5-.14.54,1.63,1.19,3.22,1.96,4.75.73,1.46,1.57,2.92,1.71,4.55Z"/><path class="cls-25" d="M81.18,45.56c-1.38-.41-3.02-.32-4.48-.14-2.38.3-5.25.42-6.69-1.5,1.03-.27,1.56-1.68.96-2.55-.12-.17-.27-.32-.35-.5-.35-.8.6-1.51,1.3-2.03h.01c.19-.01.38.02.56.07,1.12.3,1.74,1.5,2.73,2.11.88.53,1.96.54,2.98.65,1.02.1,2.14.37,2.73,1.2.55.77.5,1.77.25,2.69Z"/><path class="cls-12" d="M89.99,54.36c-.16.42-.37.83-.63,1.21-.42.63-.94,1.17-1.5,1.67-.58-.38-1.05-.85-.89-1.48.06-.28.25-.5.38-.76.41-.88-.03-1.94-.66-2.68-.62-.75-1.44-1.33-1.95-2.16-.2-.32-.36-.68-.49-1.04.29-.14.59-.27.9-.38.4-.15.82-.28,1.24-.22.61.09,1.09.55,1.49,1.02,1.16,1.36,2.05,3.05,2.11,4.82Z"/><path class="cls-2" d="M114.48,44.07c-.42,1.35-.25,2.8-.25,4.22.01,1.41-.21,2.95-1.21,3.95-.75.76-1.86,1.12-2.51,1.97-.59.78-.69,1.83-1.07,2.73-.36,0-.72.02-1.08.04-2.28.14-5.11.16-7.09,1.5-.47-.09-.93-.22-1.37-.39-1.02-.4-1.95-1.02-2.99-1.38-1.99-.68-4.44-.19-5.73,1.47-.31.4-.54.84-.72,1.31-.43-.69-1-1.29-1.7-1.71-.19-.11-.4-.23-.6-.35.43-.23.87-.44,1.19-.79.43-.46.6-1.12.64-1.76.01-.17.01-.35,0-.52.42-1.02.61-2.13.65-3.23.05-1.27-.09-2.57.23-3.8.41-1.59,1.56-2.9,2.92-3.82.6-.41,1.27-.75,1.78-1.28,1.23-1.27,1.28-3.25,1.95-4.9.74-1.84,2.29-3.26,4.02-4.23,2.8-1.57,5.67-1.64,8.08.46.67.59,1.54,1.26,2.39,2.01-1.2,2.39-.24,5.71,2.15,6.97.25.14.52.25.79.35-.16.39-.34.78-.47,1.18Z"/><path class="cls-21" d="M100.77,58.86c-.13.12-.26.24-.38.37-2.04,2.19-3.23,4.75-6.1,6.08-.3.14-.62.27-.95.27-.76,0-1.38-.66-1.64-1.38-.25-.72-.24-1.5-.35-2.25-.09-.64-.28-1.27-.55-1.85.13-.06.26-.11.39-.18.78-.4,1.32-1.14,2.01-1.68,1.94-1.51,4.84-1.21,6.89.12.24.15.46.32.68.5Z"/><path class="cls-29" d="M112.78,34.19c-.07.35-.31.64-.51.94-.09.14-.18.29-.26.44-.85-.75-1.72-1.42-2.39-2.01-2.41-2.1-5.28-2.03-8.08-.46-1.73.97-3.28,2.39-4.02,4.23-.67,1.65-.72,3.63-1.95,4.9-.51.53-1.18.87-1.78,1.28-1.36.92-2.51,2.23-2.92,3.82-.32,1.23-.18,2.53-.23,3.8-.04,1.1-.23,2.21-.65,3.23-.06-1.77-.95-3.46-2.11-4.82-.4-.47-.88-.93-1.49-1.02-.42-.06-.84.07-1.24.22-.31.11-.61.24-.9.38-.27-.71-.48-1.46-.91-2.09-.53-.77-1.29-1.22-2.16-1.47.25-.92.3-1.92-.25-2.69-.59-.83-1.71-1.1-2.73-1.2-1.02-.11-2.1-.12-2.98-.65-.99-.61-1.61-1.81-2.73-2.11-.18-.05-.37-.08-.56-.08,1.04-.76,1.74-1.85,2.22-3.05,1.53.27,3.07.45,4.61.57.48.04,1,.06,1.39-.22.36-.27.51-.73.64-1.15.4-1.31.79-2.67.68-4.03-.14-1.63-.98-3.09-1.71-4.55-.77-1.53-1.42-3.12-1.96-4.75,1.21-.32,2.45-.61,3.63-1.02.43.56.98.96,1.67,1.08,1.53.25,2.98-1.11,4.52-.89,1.29.19,2.15,1.38,2.86,2.47.83,1.28,1.66,2.56,2.49,3.83.47.73.96,1.47,1.67,1.95.72.48,1.73.63,2.43.13.93-.67.88-2.09.46-3.16-1.19-3.01-4.28-4.86-5.78-7.72-.55-1.05-.87-2.21-1.06-3.38-.04-.24-.07-.48-.09-.73.15-.02.3-.03.46-.03,1.56.01,2.95,1.06,3.88,2.31.93,1.26,1.51,2.73,2.26,4.1.17.32.37.65.65.87.6.48,1.43.43,2.19.51,2.76.27,4.95,2.38,6.83,4.43,1.79,1.93,3.51,3.92,5.17,5.96.43.53.89,1.16.74,1.83Z"/><path class="cls-4" d="M118.25,53.18c-.08,1.36.36,2.69.95,3.92-1.13.28-2.47.18-3.65.05-2.03-.21-4.08-.29-6.11-.21.38-.9.48-1.95,1.07-2.73.65-.85,1.76-1.21,2.51-1.97,1-1,1.22-2.54,1.21-3.95,0-1.42-.17-2.87.25-4.22.13-.4.31-.79.47-1.18.75.3,1.54.5,2.26.88,1.68.88,2.66,2.48,3.29,4.3-1.08,1.56-2.15,3.22-2.25,5.11Z"/><path class="cls-11" d="M121.18,55.79c-.46.72-1.16,1.11-1.98,1.31-.59-1.23-1.03-2.56-.95-3.92.1-1.89,1.17-3.55,2.25-5.11.46,1.29.74,2.7.96,4.02.21,1.25.39,2.63-.28,3.7Z"/><g id="strokes-10"><path d="M110.67,33.83c-1.79-.9-3.76-1.69-5.75-1.77-1.97.25-3.43,2.02-4.73,3.4-.67.78-1.2,1.63-1.75,2.51-.11.14-.26.28-.45.3-.18.02-.39-.06-.43-.24.07.16.27.2.42.16.16-.03.27-.16.35-.3.43-.93.93-1.85,1.56-2.67,1.31-1.54,2.84-3.44,5.01-3.61,2.1.11,4.07,1.05,5.76,2.23h0Z"/><path d="M103.99,29.07c-2.01-1.09-3.73-2.61-5.92-3.1-3.51-.7-4.1-1.85-4.76-5.21-.01-.05.06-.09.09-.04.69.97.9,2.22,1.72,3.04.83.83,2.07.96,3.2,1.24,2.34.58,4.11,2.34,5.74,4,.04.04-.02.11-.07.07h0Z"/><path d="M83.18,22.79c3.83-2.28,8.1.26,7.93,4.72-.68-4.16-3.89-6.15-7.93-4.72h0Z"/><path d="M79.09,24.93c1.05,1.31,2.32,2.44,2.95,4.03.18,1.8-.92,3.25-2.01,4.51.38-.73.8-1.44,1.1-2.18.29-.72.53-1.54.42-2.24-.6-1.41-1.79-2.69-2.46-4.12h0Z"/><path d="M72.44,39.87c.93-.14,2.02-.25,2.89.43.42.33.68.76.99,1.08.71.81,1.62.29,2.58.36.54.05,1.02.28,1.44.55.7.55,1.87,1.19,2.06,2.04,0,0-.07-.27-.07-.27l.12.25-.05.02c-.83-.97-2.27-1.91-3.53-2.11-.9.02-2.2.43-2.88-.52-.35-.39-.58-.8-.9-1.11-.65-.62-1.69-.67-2.64-.71h0Z"/><path d="M91,52.99c-.86-1.05-1.35-3.02-2.5-3.62-.27-.11-.55.07-1.05.13-.52.01-.9-.33-1.14-.64-.47-.6-1.02-1.41-.71-2.19-.05.39.08.76.28,1.06.35.49.91,1.31,1.54,1.29.26-.01.73-.3,1.23-.13.92.39,1.19,1.23,1.5,1.92.31.72.61,1.44.85,2.18h0Z"/><path d="M90.52,47.19c.43-1.41,1.26-3.08,2.89-3.39,1.65-.08,5.29.33,4.84,2.73-.16.51-.63.96-1.16.89.51-.05.85-.51.92-.95.12-1.62-1.8-1.93-3.12-2.09-2.16-.68-3.5,1.04-4.38,2.8h0Z"/><path d="M101.4,57.44c-1.77.23-3.41-.72-5.1-.44-.86.16-1.35.85-2.01,1.42-.65.61-1.79.62-2,1.59,0,.06-.1.06-.1,0,.02-1.01,1.23-1.31,1.76-1.95.58-.67,1.18-1.56,2.13-1.83.95-.32,1.99-.32,2.87-.01.89.3,1.64.71,2.46,1.12.04.02.03.09-.02.1h0Z"/><path d="M111.13,49.2c-.4.47-1.32.62-1.59,1.07-.72,1.33-1.51,2.9-2.19,4.31-.16.37-.63.87-1.1.69-.03,0-.06-.03-.05-.07.76-.19.63-1.17.85-1.78.38-1.38.97-2.72,1.98-3.76.62-.47,1.41-.32,2.05-.55.06-.02.09.06.03.09h0Z"/></g></g><g id="hair"><path id="light-8" class="cls-22" d="M136.18,43.39c-.24.15-.97,1.03-1.24,1.18-1.12.59-1.64.64-2.55-.2-1.14-1.05-2.71-3.75-2.71-3.75v-.04c-1.99-.09-4.07-.13-5.83.79-.96.51-1.76,1.28-2.7,1.85-.71.43-1.55.74-2.36.67.44-.31.87-.64,1.29-.98.3-.25.6-.51.82-.84.21-.32.32-.7.48-1.05.56-1.21,1.72-2.1,2.06-3.39.31-1.18-.2-2.48-1.07-3.35-.87-.87-2.05-1.35-3.25-1.62-.12-.02-.24-.05-.3-.15-.04-.06-.04-.12-.05-.19,0-.89.88-1.48,1.66-1.9,1.28-.69,2.64-1.4,4.1-1.36.91.02,1.9.32,2.7-.12.5-.28.82-.82,1.03-1.34h0c1.57.39,3.03,1.09,4.31,2.26,2.31,2.12,3.81,5.42,4.93,8.3.99,2.54,1.19,3.67-1.31,5.23Z"/><path id="dark-9" d="M132.25,39.21c-.68-1.19-2.16-1.52-3.43-1.61-1.18-.18-2.31.02-3.43.34-.87.25-1.81-.33-1.87-1.23-.13-2.01-1.12-3.79-3.22-4.1-.12-.02-.24-.05-.3-.15-.04-.06-1.23-.07-1.24-.14,0-.89.88-1.48,1.66-1.9,1.28-.69,2.64-1.4,4.1-1.36.91.02,1.9.32,2.7-.12.48-.27.79-.77,1-1.27.01-.02.02-.05.03-.07-1.44-.38-1.87-1.15-3.89-1.06-.19,0-1.77.85-1.96.86-1.09.04-2.62-.18-3.45.02-1.79.44-2.07,1.64-2.63,1.84-2.46.86-2.3,1.98-3.51,3.18-.79.73-3.08-.24-3.03,1.44.03,1.07,2.83,4.94,3.26,5.92.98,2.04,3.54,3.53,5.74,4.09.13-.09.25-.19.37-.28.21.28.62,1.06,2.3.81,1.08-.26,2.19-.59,3.29-.86.9-.31,1.62-.35,2.42,0,.77.14,2.23.12,2.97.38.79.12,2.15.63,2.9.35.53-.3-.48-2.32-.44-2.92.04-.73.02-1.51-.35-2.15Z"/></g></g></svg>