<?xml version="1.0" encoding="UTF-8"?>
<svg id="Player_Attack" xmlns="http://www.w3.org/2000/svg" viewBox="0 0 142.45 141.5">
  <defs>
    <style>
      .cls-1 {
        fill: #0e1118;
      }

      .cls-2 {
        fill: #f4c899;
      }

      .cls-3 {
        fill: #885e42;
      }

      .cls-4 {
        fill: #272a33;
      }

      .cls-5 {
        fill: #ea8664;
      }

      .cls-6 {
        fill: #a4b6ba;
      }

      .cls-7 {
        fill: #433c3f;
      }

      .cls-8 {
        fill: #845b55;
      }

      .cls-9 {
        fill: #acad8a;
      }

      .cls-10 {
        fill: #0e2444;
      }

      .cls-11 {
        fill: #202e32;
      }

      .cls-12 {
        fill: #0d1626;
      }

      .cls-13 {
        fill: #0b1c33;
      }

      .cls-14 {
        fill: #090e12;
      }

      .cls-15 {
        fill: #adb191;
      }

      .cls-16 {
        fill: #05121b;
      }

      .cls-17 {
        fill: #161d26;
      }

      .cls-18 {
        fill: #19294d;
      }

      .cls-19 {
        fill: #2f3c5e;
      }

      .cls-20 {
        fill: #6b4c51;
      }

      .cls-21 {
        fill: #bfc2ad;
      }

      .cls-22 {
        fill: #fff;
      }

      .cls-23 {
        fill: #3b4764;
      }

      .cls-24 {
        fill: #f4dba7;
      }

      .cls-25 {
        fill: #a5ab84;
      }

      .cls-26 {
        fill: #3e4764;
      }

      .cls-27 {
        fill: #bfbfa2;
      }

      .cls-28 {
        fill: #d17c55;
      }

      .cls-29 {
        fill: #232c34;
      }

      .cls-30 {
        fill: #172439;
      }

      .cls-31 {
        fill: #795c5d;
      }

      .cls-32 {
        fill: #535f64;
      }

      .cls-33 {
        fill: #d7784e;
      }

      .cls-34 {
        fill: #221c1e;
      }

      .cls-35 {
        fill: #bcbda9;
      }

      .cls-36 {
        fill: #535766;
      }

      .cls-37 {
        fill: #b7aa8c;
      }

      .cls-38 {
        fill: #070e19;
      }

      .cls-39 {
        fill: #081522;
      }

      .cls-40 {
        fill: #d6d6c4;
      }

      .cls-41 {
        fill: #14233d;
      }

      .cls-42 {
        fill: #fcfcf9;
      }

      .cls-43 {
        fill: #a1a47d;
      }

      .cls-44 {
        fill: #f6cb9b;
      }

      .cls-45 {
        fill: #a8babf;
      }

      .cls-46 {
        fill: #06101b;
      }

      .cls-47 {
        fill: #e6e8e0;
      }

      .cls-48 {
        fill: #060d13;
      }

      .cls-49 {
        fill: #090d1a;
      }

      .cls-50 {
        fill: #102131;
      }

      .cls-51 {
        fill: #40494b;
      }

      .cls-52 {
        fill: #04090d;
      }

      .cls-53 {
        fill: #14253f;
      }

      .cls-54 {
        fill: #0f2039;
      }

      .cls-55 {
        fill: #273238;
      }

      .cls-56 {
        fill: #141920;
      }

      .cls-57 {
        fill: #0c1d31;
      }

      .cls-58 {
        fill: #404a54;
      }

      .cls-59 {
        fill: #061628;
      }

      .cls-60 {
        fill: #12223b;
      }

      .cls-61 {
        fill: #d38269;
      }

      .cls-62 {
        fill: #f0f1eb;
      }

      .cls-63 {
        fill: #1c2747;
      }

      .cls-64 {
        fill: #a4a888;
      }

      .cls-65 {
        fill: #efad81;
      }

      .cls-66 {
        fill: #9e6340;
      }

      .cls-67 {
        fill: #eedca7;
      }

      .cls-68 {
        fill: #563d3f;
      }

      .cls-69 {
        fill: #b8cdd2;
      }

      .cls-70 {
        fill: #131a21;
      }

      .cls-71 {
        fill: #394248;
      }

      .cls-72 {
        fill: #1d2126;
      }

      .cls-73 {
        fill: #e0e1d5;
      }

      .cls-74 {
        fill: #f0b282;
      }

      .cls-75 {
        fill: #dfdfd1;
      }

      .cls-76 {
        fill: #171d26;
      }

      .cls-77 {
        fill: #727f81;
      }

      .cls-78 {
        fill: #f6f6f4;
      }

      .cls-79 {
        fill: #252e37;
      }

      .cls-80 {
        fill: #1d171a;
      }

      .cls-81 {
        fill: #26303f;
      }

      .cls-82 {
        fill: #fbecaf;
      }

      .cls-83 {
        fill: #cacbb3;
      }

      .cls-84 {
        fill: #121c24;
      }

      .cls-85 {
        fill: #1c2a4d;
      }

      .cls-86 {
        fill: #262e34;
      }

      .cls-87 {
        fill: #494756;
      }

      .cls-88 {
        fill: #f9f9f7;
      }

      .cls-89 {
        fill: #101b2a;
      }

      .cls-90 {
        fill: #dbddce;
      }

      .cls-91 {
        fill: #1b2a54;
      }

      .cls-92 {
        fill: #14243e;
      }

      .cls-93 {
        fill: #f2f3ef;
      }

      .cls-94 {
        fill: #f5d0a2;
      }

      .cls-95 {
        fill: #f1f1ed;
      }

      .cls-96 {
        fill: #e4a87b;
      }

      .cls-97 {
        fill: #414a53;
      }

      .cls-98 {
        fill: #1c2a51;
      }

      .cls-99 {
        fill: #0b1b2d;
      }

      .cls-100 {
        fill: #aa997a;
      }

      .cls-101 {
        fill: #2c201d;
      }

      .cls-102 {
        fill: #b88261;
      }

      .cls-103 {
        fill: #141c29;
      }

      .cls-104 {
        fill: #21355e;
      }

      .cls-105 {
        fill: #131920;
      }

      .cls-106 {
        fill: #c5c7a5;
      }

      .cls-107 {
        fill: #adac8e;
      }

      .cls-108 {
        fill: #1e2b4f;
      }

      .cls-109 {
        fill: #263258;
      }

      .cls-110 {
        fill: #040d14;
      }

      .cls-111 {
        fill: #2d343d;
      }

      .cls-112 {
        fill: #c45638;
      }

      .cls-113 {
        fill: #e9af80;
      }

      .cls-114 {
        fill: #221618;
      }

      .cls-115 {
        fill: #f9be90;
      }

      .cls-116 {
        fill: #eae8e0;
      }

      .cls-117 {
        fill: #ca8a60;
      }

      .cls-118 {
        fill: #754c24;
      }
    </style>
  </defs>
  <g id="Player_Punch">
    <g id="Head">
      <g id="neck">
        <path class="cls-113" d="M60.58,19.28s.79-.91,1.72-1.46,2.76-1.86,3.22-2.09,1.8-1.09,2.45-.96,2.48.09,3.13.55,3.8,2.03,4.07,3.11.48,3.69.39,4.43.02,1.49-.3,2.25-1.39,2.78-2.53,2.71c-1.14-.07-4.71.37-6.39-.54-1.68-.91-4.14-2.87-4.73-4.09s-1.03-3.92-1.03-3.92Z"/>
        <path class="cls-113" d="M74.36,29.88c-1.84,2.38-7.64,2.64-11.37-.24s-4.54-7.64-2.7-10.03,6.35-1.98,10.08.89,5.83,6.99,3.99,9.37Z"/>
        <path class="cls-113" d="M69.82,16.63c-1.45-1.58-2.43.68-3.34,1.57-.48.68-5.93,4.97-5.55,8.43,7.67,3.03,11.44,2.88,9.82-6.5-.5-1.17-1.31-2.14-.94-3.49Z"/>
        <path class="cls-117" d="M70.7,16.35c-.43-.04-.83.18-1.2.4-.07.04-.13.08-.18.14-.06.07-.08.17-.1.26-.14.64-.28,1.3-.23,1.96.02.21.05.42.05.63,0,.23-.04.46-.05.69-.02.57.14,1.13.15,1.69,0,.32-.04.64.02.95.04.23.13.46.19.69.19.76-.02,1.55-.07,2.33,0,.1,0,.21.03.3.06.14.2.23.31.34.43.41.47,1.1.87,1.54.15.17.34.29.54.4.44.25.9.46,1.38.64.41.16.85.3,1.28.21.57-.11.99-.6,1.21-1.14s.25-1.12.3-1.7c.06-.65.14-1.3.25-1.94.05-.27.1-.55.09-.83-.04-.71-.51-1.34-1.11-1.71-.23-.14-.51-.27-.61-.52-.06-.15-.05-.32-.05-.48,0-.77-.26-1.52-.51-2.24-.15-.41-.29-.82-.54-1.19-.26-.38-.61-.69-1.03-.89l-.99-.56Z"/>
        <path class="cls-67" d="M64.26,17.03c-2.67,1.33-4.07,2.06-4.2,3.31-.08.76.36,1.33.43,1.42.8,1,2.47.91,3.49.55,1.42-.5,2.08-1.72,2.6-2.67.5-.92,1.42-3.03.75-3.6-.4-.34-1.3.1-3.07.99Z"/>
      </g>
      <g id="face">
        <path class="cls-102" d="M80.22,22.5c-.03.37.09,1.65,0,2.12s-.1,1.09-.62,1.11-1.9-.04-2.26-.32-6.7-4.93-7.3-5.35-4.68-2.31-5.48-3.22-2.05-2.29-2.17-3.6-.45-3.49-.06-4.89,2.2-4.3,3.18-4.82,4.23-1.57,6.34-1.12,3.97.41,6.39,2.08,5.15,4.63,5.86,5.81.67,1.92.51,2.57-.35,2.07-.65,2.89-.1,2.76-.3,3.16-.62.33-.78.09-.67-.42-1.01-.49c-.36-.07-.41.4-.53.7s-.39.8-.62.82-1.01-.23-1.46-.12-.84.33-.79.6.04.68.42.85,1.09.42,1.29.48.05.67.05.67Z"/>
        <path class="cls-65" d="M80.37,23.86c-.12-.98-.09-1.97.1-2.94.07-.36,1.77-1.77,1.65-2.12-.1-.29-1.56-.47-1.8-.65-.29-.22-1.04,0-1.59.01-1.15.02-2.01-.04-3.15.08-.43.05-.97.24-.95.68,0,.22.17.39.27.59.31.64-.11,1.39-.15,2.1,0,.11,0,.22.07.3.04.06.11.09.17.12.53.27,1.06.53,1.59.8.78.39,1.57.79,2.42.98.37.08.76.13,1.14.17"/>
        <path class="cls-66" d="M82.52,18.52c.7-.22,1.01-.88,1.21-1.49.42-1.26.68-2.57.77-3.89.02-.28,0-.62-.3-.77-.1-.05-.21-.07-.32-.08-1.1-.17-2.19-.34-3.29-.51-.59-.09-1.29-.15-1.65.22-.16.16-.21.38-.26.59-.35,1.51-.7,3.08-.22,4.61.08.25.19.51.43.68.19.13.43.19.66.24.79.18,1.59.37,2.38.55l.59-.15Z"/>
        <path class="cls-65" d="M71.72,18.15c.1-.46.09-.93.08-1.4,0-.22,0-.44-.07-.65-.04-.15-.11-.29-.13-.43-.02-.14,0-.28.02-.42.06-.35.14-.7.24-1.05.07-.23.15-.47.23-.7l.21-.6c.05-.15.12-.31.28-.39.15-.07.34-.05.51-.02.45.07.9.14,1.35.21.12.02.25.04.35.09.11.05.19.14.29.21.18.13.4.22.61.31.63.26,1.24.57,1.82.91.23.14.47.29.6.5.08.12.12.25.2.37.18.26.56.44.6.74.01.1-.01.19,0,.29,0,.2.13.39.14.59.02.33-.28.61-.63.75s-.73.19-1.09.3c-.3.09-.58.23-.9.27-.26.04-.53,0-.79,0-.51-.02-1.02.01-1.53.05-.35.03-.71.05-1.04.15-.36.11-.71.31-1.1.26l-.25-.36Z"/>
        <path class="cls-102" d="M74.8,16.17c-1.09-.31-2.28-.29-3.38.08-.36.12-.72.27-1.09.38-1.3.39-2.65.2-3.96-.05-.44-.08-.91-.19-1.17-.59-.26-.38-.24-.92-.15-1.4s.26-.95.27-1.44c0-.33-.07-.66-.09-.99-.02-.41.05-.82.11-1.23.13-.78.25-1.55.38-2.33.04-.22.07-.45.18-.64.15-.27.4-.43.64-.58.49-.31,1-.62,1.54-.73.19-.04.37-.05.56-.1.19-.05.38-.14.57-.2.48-.15.97-.15,1.46-.13,1.3.06,2.6.24,3.87.55.33.08.66.17.97.31.27.12.52.27.77.42.22.14.45.27.67.41.19.11.39.24.5.44.18.33.08.79-.12,1.12s-.49.59-.74.88c-.35.42-.62.93-.77,1.48-.06.22-.11.45-.2.66-.08.18-.2.34-.29.52-.42.75-.5,1.66-.56,2.54l.02.62Z"/>
        <path class="cls-3" d="M77.5,9.64c-1.78.79-3.31,2.28-4.13,4.03,1.84.49,3.87,1.2,5.55,1.69,2.24-2.05,2.81-6.6-1.43-5.72Z"/>
      </g>
      <g id="beard">
        <path class="cls-7" d="M82.18,18.3c-.84-.92-2.18-1.17-3.41-1.36-1.24-.2-2.49-.39-3.73-.59-.29-.05-.59-.09-.87,0-.63.19-.88.93-.98,1.58-.1.67-.46.18-.6-.78-.21-1.45-.81-3.12-2.23-3.47l-.43.46c-.6,2.17-1.18,4.59-.1,6.57.58,1.06,1.57,1.83,2.52,2.56,1.8,1.38,3.66,2.79,5.82,3.49.47.15.98.27,1.44.1.95-.34,1.12-1.59,1.13-2.59,0-.13,0-.26-.05-.38-.06-.14-.19-.24-.31-.33-1.01-.75-2.18-1.28-3.41-1.54-.56-.12-1.14-.21-1.69-.36.25-.03.49-.13.65-.33.13-.16.2-.36.27-.55.23-.67.46-1.34.7-2.02.02-.06.05-.13.09-.18.08-.08.22-.09.34-.09,1.48.03,2.96.38,4.29,1.02l.22-.08c.23.2.62-.02.68-.32s-.12-.59-.33-.81Z"/>
      </g>
      <g id="hair">
        <path class="cls-49" d="M70.5,12.81c.05.87-.06,1.22-.77,2.14s-1.13,2.53-2.75,3.45-3.11-.31-4.62.52c-1.51.82-3.78.39-4.4-.64s-1.41-1.68-.97-2.69.44-2.28,1.04-3.23.47-4.82.57-5.48,0-3.03.89-3.48,3.69-1.71,4.08-1.95,5.31-.95,6.3-.64,4.65.27,5.79.62,4.5,2.25,5.32,3.46,2.33,2.16,2.8,2.85,1.55,2,1.39,2.78-1,1.71-2.38,1.32-3.06-.11-4-1.03-1.8-1.59-2.82-1.16-4.11.62-4.32.51-1.18,1.79-1.13,2.66Z"/>
        <path class="cls-50" d="M77.12,2.47c-1.6-.84-1.3-1.5-2.94-1.62s-5.96-1.26-7.23-.7c-1.27.56-2.68.44-3.55,1.71s-.59,1.98.39,2.14,3.95,1.05,5.11,1.01c1.16-.04,4.76.03,5.61-.06s3.1-.63,3.07-1.17-.46-1.31-.46-1.31Z"/>
        <path class="cls-17" d="M59.66,8.27l-.28-.7c-.13-.31-.25-.63-.28-.96-.02-.25.02-.5.07-.75.07-.41.14-.82.21-1.23.02-.11.04-.22.09-.31.06-.1.16-.18.24-.27.24-.24.39-.56.57-.85.39-.6.97-1.06,1.57-1.47.36-.25.75-.49,1.18-.56.32-.05.65-.01.97.03.81.1,1.64.21,2.37.57.23.11.46.26.62.45.23.28.34.63.44.98.12.42.24.84.37,1.25.02.06.04.13.01.19-.02.06-.08.1-.13.14-1.33.92-2.75,1.75-4.3,2.2-.69.2-1.43.33-2.03.73l-1.7.55Z"/>
        <path class="cls-49" d="M80,12.34c-.17-.27-.34-.55-.52-.81-.87-1.26-2.06-2.3-3.44-2.98-1.72-.85-3.65-1.14-5.56-1.35-.87-.1-1.75-.18-2.63-.24-.45-.03-.9-.06-1.34.04-.73.18-1.32.7-1.87,1.21-.4.37-.79.73-1.19,1.1-.49.45-1.01.92-1.64,1.12-.07.02-.14.04-.22.03-.22-.02-.35-.24-.44-.44-.28-.57-.55-1.15-.83-1.72-.27-.56-.53-1.24-.21-1.77.26-.42.8-.57,1.3-.59s1,.05,1.48-.1c.57-.18,1.01-.64,1.56-.87.54-.23,1.19-.24,1.63-.64.3-.27.43-.68.58-1.05.07-.18.17-.37.35-.43.28-.1.54.15.77.34.5.41,1.15.57,1.78.72.66.15,1.33.31,2.01.3.65,0,1.29-.17,1.94-.18,1.1-.01,2.18.43,3.08,1.06s1.66,1.46,2.37,2.3c-.24-.09-.53.01-.67.23-.17.27-.07.64.13.89s.48.41.75.59c.48.33.9.75,1.23,1.22.44.62.71,1.52.22,2.1-.16.07-.36,0-.45-.14l-.17.05Z"/>
        <path class="cls-50" d="M75.07,7.26c0-.44,1.82-.96,2.29-.89,1.35.18,2.71.37,4.06.55.87.12,1.78.26,2.47.77,1,.76,2.15,3.43,1.92,4.57-.03.15-.07.3-.17.41-.16.18-.43.23-.68.25-.61.06-1.22.02-1.84-.01-.82-.05-2.77-.27-3.59-.32-.4-.02-.62-1.19-1-1.29-1.09-.28-1.92-1.15-2.3-2.12s-1.16-1.93-1.16-1.93Z"/>
        <path class="cls-56" d="M61.93,10.67c.11.19-.07.41-.26.52s-.42.2-.48.41c-.04.11-.01.24-.04.35-.03.13-.13.23-.22.32-.83.77-2.08,1.07-3.17.77-.06-.02-.12-.03-.16-.07-.19-.14-.12-.43-.03-.65.28-.73.48-1.5.6-2.27.05-.32.08-.64.16-.95.17-.66.58-1.26,1.18-1.59s1.38-.32,1.92.08c.63.47.82,1.31.97,2.08.03.16-.01.39-.17.37l-.29.64Z"/>
        <path class="cls-4" d="M74.26,4.82c2.25-9.24,13.36,6.88,5.16,3.81-.79-2.45-4.44-1.92-5.16-3.81Z"/>
      </g>
      <g id="Eye">
        <g id="eye">
          <path class="cls-22" d="M79.06,14.26c-.23-.09-.5-.18-.73-.08-.1.05-.18.13-.24.22-.28.43-.04,1.01.39,1.32s1,.4,1.55.46c.2.02.42.03.58-.07.22-.14.23-.45.09-.66s-.37-.35-.6-.48c0,0-.55-.51-1.05-.7Z"/>
          <path d="M79.06,14.28c-1.44-.49-1.11,1.32-.02,1.58.47.15,1.98.61,1.62-.36-.12-.21-.35-.36-.57-.5-.3-.29-.64-.57-1.03-.72h0ZM79.07,14.25c.38.16.77.44,1.07.68.23.12.49.24.65.49.51,1.17-1.2.87-1.82.67-.51-.15-1.07-.58-1.1-1.2-.02-.3.14-.61.41-.74.29-.12.56,0,.8.1h0Z"/>
        </g>
        <path class="cls-49" d="M78.2,13.38c1.22-.28,3.91-.01,3.38,1.84-.02.04-.07.05-.1.03l-.86-.45c-.24-.11-.39-.37-.65-.54-.5-.34-1.12-.58-1.77-.77-.06-.01-.05-.1,0-.11h0Z"/>
        <g>
          <ellipse class="cls-118" cx="79.86" cy="15.56" rx=".42" ry=".61" transform="translate(55.48 93.18) rotate(-83.59)"/>
          <g>
            <ellipse class="cls-49" cx="80.07" cy="15.68" rx=".33" ry=".39" transform="translate(59.45 94.62) rotate(-86.45)"/>
            <path class="cls-22" d="M80.25,15.55c.08,0,.09.18.06.28,0,.02-.02.03-.03.04-.02.01-.04.02-.07.02-.08,0-.16,0-.21-.05s-.09-.12-.05-.18c0,0,.19.11.3-.11Z"/>
          </g>
        </g>
      </g>
      <g id="mouth">
        <path id="open" d="M80.37,21.62s.29-.98.29-1-.7-.14-.78-.16-.73-.11-.82-.13-.31-.03-.37,0-.26.09-.28.11-.11.16-.1.21.02.24.06.27.24.26.32.29.62.31.72.32.6.19.68.2.19.07.22.07.07-.17.07-.17Z"/>
        <g id="teeth">
          <path class="cls-22" d="M80.86,20.7c-.03.11-.07.23-.11.28s-.03.05-.06.06-.68-.15-.92-.24-.93-.42-.96-.43,0-.05.02-.06.16,0,.24.02.54.12.62.13.51.12.61.13.56.11.56.11Z"/>
          <path class="cls-22" d="M80.57,21.65c.1.04.08-.27.08-.29s-.48.02-.63,0-1.13-.41-1.24-.43-.23.02-.23.02c0,0,.08.07.11.1s.45.29.53.32.57.17.65.18.7.11.72.11Z"/>
        </g>
        <path id="lips" class="cls-61" d="M81.01,20.48c.02-.14-.12-.15-.27-.14s-.64.06-.87.05-.95-.2-1.11-.15-.52.19-.54.34.03.44.17.57.65.34,1.03.52.98.4,1.1.36.61-.25.45-.44-.45-.17-.53-.16-.88-.07-1.07-.14-.85-.44-.88-.52-.16-.21.1-.31.34-.09.5-.06.87.19,1.09.23.59.17.67.14.14-.12.17-.29Z"/>
      </g>
    </g>
    <g id="back-leg-assembly">
      <g id="back-leg">
        <path class="cls-57" d="M61.33,126.75c2.59.57,8.81,1.72,10.15,1.34,1.34-.38,1.91-3.45,3.16-9,1.24-5.55,10.15-19.63,10.63-20.97s2.39-4.88,2.49-5.74.48-4.02-.29-6.32-3.26-6.41-3.83-8.04-1.91-6.7-3.73-7.85c-1.82-1.15-2.59-4.5-3.83-5.84-1.24-1.34-1.15-2.78-2.2-3.64s-6.22-1.53-9.77-.86c-3.54.67-4.88.48-9.29-.19-4.4-.67-6.13-1.72-8.43-.86s-3.93,2.39-4.6,5.07-2.11,8.62-.96,10.53c1.15,1.91,5.46,4.12,8.43,5.07,2.97.96,9.77,1.44,10.53.96s2.49.08,2.64.38,3.3,8.05,4.07,9.58,1.53,3.45,1.34,4.4-3.73,6.13-4.79,8.04c-1.05,1.91-6.89,14.07-8.33,15.13s-3.93,7.28-2.59,7.95,3.35.38,4.79,1.24,4.4-.38,4.4-.38Z"/>
        <path class="cls-57" d="M71.71,65.13c2.32.92,4.47,3.9,2.87,6.08,1.09,1.78,1.88,3.6,1.56,5.75,3.96,3.09,6.01,6.83,6.15,11.22-.82,1.82-2.29,3.24-4.42,4.27,1.5,1,2.69,1.77,4.42.36.44-1.35.95-1.33,1.54,0,.48,4.22-.55,8.85-3.08,13.88l-5.44,11.99c-.52,4.14-1.44,3.79-2.57-.1-.92,1.03-1.36.72-1.36-.77-2.74,1.32-3.42.43-1.42-1.87.21-2.02,1.95-3.22,5.2-3.59-4.86,2.6-8.66,2.8-11.39.58-.84-.79-1.47-1.53-1.32-2.05,1.1-4.05,4.46-13.16,8.83-12l1.4-1.58c-3.36-1.72-3.2-2.61-.02-4.62-.83.23-1.5.36-1.66.12-2.73-3.95-6.53-11.1-7.03-15.53.2-1.75,1.43-2.83,3-3.91-2.51-1.1-4.02-.92-4.7-2.38-.68-3.62.29-4.06,2.91-1.32,1.48-1.8,1.68-4.02.6-6.68,4.99-1.65,6.97-.93,5.95,2.16Z"/>
        <path class="cls-39" d="M72.66,97.28c.71,1.25.18,1.73-1.4,1.58-3.14,4.21-5.32,9.27-7.5,14.05,4.09.6,4.06,1.97.17,3.33,1.61,1.77.01,3.2-4.78,4.31,3.33.41,4.36,1.43,3.08,3.08.51,2.61-.74,3.02-2.97,1.65-10.04,3.93-8.55-2.47-2.96-7.86,1.86-4.39,7.01-12.42,8.11-17.58.79-3.7,3.01-5.26,5.31-5.99-1.11-4.03.21-4.31,2.92-1.2.36,1.53,1.09,2.99.02,4.62Z"/>
        <path class="cls-48" d="M72.64,92.66c-1.03.21-1.93.88-2.92,1.2l-7.29-13.07c-1.02-2.39-1.44-3.9,1.51-3.53-.13-.04,7.58,10.65,8.69,15.4Z"/>
        <path class="cls-20" d="M82.28,80.45c.42.55,1.02,1.08,1.54,1.54,1.23,2.84,1.23,4.89,0,6.17-.42,1.36-.94,1.34-1.54,0-1.54-4.16-8.21-6.41-6.15-11.22-.5-3.09.71-3.64,2.72-1.24,2.06-.07,3.2,1.51,3.44,4.74Z"/>
        <path class="cls-46" d="M62.15,61.82c.91,2.36,1.96,4.46,3.17,6.3.97.56.9,1.07-.16,1.53-.91.59-1.75,1.24-2.91,1.32-1.04.07-2.33.09-3.24.23l-2.13-3.16c1.62-1.87,2.67-3.85,2.47-6.04l2.79-.19Z"/>
        <path class="cls-84" d="M75.3,118.66c-1.08,2.39.33,6.22-2,8.16-.61,3.25-2.84,1.78-4.84-.15-.99-.23-2.14.46-3.15.31-2.37-1.99-1.31-2.7,1.55-3.34.97-1.79,2.93-3.48,5.87-5.07l2.57.1Z"/>
        <path class="cls-26" d="M77.79,70.99c.32,1.06,1.42,1.99,1.08,3.28,1.35.34,1.31.83-.02,1.44-.94.34-1.84.76-2.72,1.24-1.26-.47-2.95-1.07-3.52-2.52-.47-1.21.84-2.64,1.96-3.22-.57-3.86,1.36-3.08,3.22-.21Z"/>
        <path class="cls-52" d="M59.26,125.29c-.21,1.74-1.79,2.74-4.74,2.97-.37,1.3-2.26,1.11-3.08,0v-1.54c.23-3.36.14-8.66,4.86-9.29-.65,1.54.05,4.2-4.65,6.22,3.43,2.73,5.35,1.19,7.61,1.63Z"/>
        <path class="cls-14" d="M73.04,63.92c2.13,2.85,1.22,3.68-1.34,1.21-.9-1.27-4.43-2.89-4.6-.64-.13,1.69.95,2.81.42,3.81-.5.94-1.6.85-2.37,1.35l.16-1.53c-2.07-1.21-2.24-4.02-1.54-6.17,2.89.16,5.56-1,8.72-1.54.68,1.68.58,2.65.54,3.51Z"/>
        <path class="cls-80" d="M85.37,97.42c-1.62-.27-1.27-3.6,0-4.63-3.5-.51-4.47-2.07-1.54-4.63-.39-1.93-1.75-5.37,0-6.17,4.07,3.55,4.61,11.14,1.54,15.42Z"/>
        <path class="cls-38" d="M85.37,97.42c-.15,3.81-3.21,6.13-4.63,9.25-3.19-3.24,3.33-5.21,3.08-13.88.44-1.35.95-1.33,1.54,0-.45,1.36.06,3.18,0,4.63Z"/>
        <path class="cls-103" d="M77.79,70.99l-3.22.21c-1.07-2-2.65-3.77-2.87-6.08,1.03.54,1.58-.2,1.34-1.21,2.42,1.72,3.89,4.27,4.75,7.07Z"/>
        <path class="cls-63" d="M65.32,68.12c-2.07.62-3.21-.7-3.14-2.35.06-1.49,0-2.68-.03-3.95.54-.04,1.09.1,1.63.13,1.19,1.83,1.77,4.02,1.54,6.17Z"/>
        <path class="cls-34" d="M82.28,80.45c-1.19-1.55-2.13-3.28-3.44-4.74l.02-1.44c1.71,0,3.31.82,3.48,2.32s.04,2.7-.07,3.87Z"/>
        <path class="cls-59" d="M63.95,77.26c-.15,1.28-.77,2.5-1.51,3.53-.81-1.45-2.6-2.69-3.37-4.7,2.47-.82,3.49.7,4.89,1.17Z"/>
        <path class="cls-108" d="M72.73,118.56c-.32,3.05-2.88,4.95-5.87,5.07-1.75,2.56-3.63,3.13-4.63,0-.74-1.31-2.77-1.49-3.08-3.08,3.66-2.29,8.1-3.24,12.22-2.76.47.23.92.49,1.36.77Z"/>
        <path class="cls-13" d="M69.95,115.92c.42.66.9,1.29,1.42,1.87-2.94,3.51-8.05,1.77-12.22,2.76l4.78-4.31c.28-2.66,4.88-2.56,6.01-.32Z"/>
        <path class="cls-68" d="M82.28,88.17c.46.17,1.06-.11,1.54,0,.32,1.57,2.23,2.53,1.54,4.63h-3.08c-1.08,2.52-2.98,1.72-4.42-.36-.92-1.47-.29-2.63.52-3.41,1.1-1.07,2.93-1.22,3.9-.85Z"/>
        <path class="cls-92" d="M69.95,115.92c-1.78.65-4.18-.5-6.01.32l-.17-3.33c4.03.72,7.41-1.51,12.52-1.61-1.31,2.84-4.06,3.79-6.33,4.62Z"/>
        <path class="cls-60" d="M71.26,98.86c.42-.56.9-1.08,1.4-1.58,1.65.96,4.48,1.59,3.12,4.93-1.8-1.28-2.85-2.69-4.52-3.35Z"/>
        <path class="cls-10" d="M82.28,92.79c.06.98.39,2.53-.78,3.08-2.63,1.24-4.33-4.56-3.64-3.44,1.46.21,2.94.32,4.42.36Z"/>
      </g>
      <g id="back-shoe">
        <path class="cls-86" d="M77.51,127.64c-1.13-.03-2.65-.28-3.48-.79s-1.66-.13-1.72-.96.57-3.13.57-4.21,1.72-3.13-3.77-3.57-9.06-1.4-9.83-1.72-1.28-.32-2.11.13-2.87,3.51-3.38,4.66-1.47,4.66-2.11,6-1.72,4.4-1.72,5.04-.64,1.21.96,1.28c1.6.06,6.06.06,7.66.51,1.6.45,4.34,1.72,5.23,2.11s5.04,1.4,6.32,1.34c1.28-.06,7.91-.06,9.32-.26,1.4-.19,3.26.13,3.77-1.02s.64-2.62.45-3.83-.64-2.3-2.11-3-3.39-1.68-4.05-1.7Z"/>
        <path class="cls-86" d="M68.46,126.66c3.95,2.12,7.86,3.78,12.44,3.63,2.37,1.24,2.39,2.58,1.44,5.06-.76,1.99-14.82,2.64-17.18.68-.01-4.34,6.17.46,1.48-1.27-4.77-1.76-7.75-5.41-1.71-6.73-1.23-.53-1.05-.87.38-1.06,1.63-2.25,2.68-2.35,3.15-.31Z"/>
        <path class="cls-70" d="M51.44,128.26c1.39.38,1.36.9,0,1.54,1.85,2.11,2.36,2.11,1.54,0,1.96-.58,4.04-1.06,6.25-1.46.53-3.47,5.98-4.4,5.69-.3-1.79,3.02,1.69,4.9,5.29,7.39l-5.06.61c-3.66-3.04-8.96-1.51-13.95-1.96-3.97-.72.09-5.29.23-7.36,1.35.44,1.33.95,0,1.54Z"/>
        <path class="cls-45" d="M73.3,126.82c2.93.47,5.22,2.24,7.59,3.48-1.31,2.1-4.34,1.59-6.93,1.32-2.36-.25-4.36-2.52-5.51-4.95,1.58.37,3.29-.09,4.84.15Z"/>
        <path class="cls-72" d="M66.86,123.63c-.57,1.09-1.07,2.21-1.55,3.34-.15.34-.2.75-.38,1.06-1.83-1.1-4.01-1.02-5.69.3-1.58.77-3.61,1.35-4.71-.08,1.41-1.25,3.11-2.05,4.74-2.97.99-.56,1.96-1.14,2.97-1.65h4.63Z"/>
        <path class="cls-111" d="M51.44,129.8c.45-1.01.97-.99,1.54,0,1.04,1.19,2.28,1.43,4.77,2-1.1,1.82-3.15,1.09-4.95,1.04-1.57-.04-1.61-1.71-1.36-3.04Z"/>
        <path class="cls-97" d="M54.52,128.26l4.71.08c-1.17,2.09-4.18,1.46-6.25,1.46h-1.54c.09-.49,0-1.04,0-1.54h3.08Z"/>
      </g>
    </g>
    <g id="front-leg-assembly">
      <g id="front-shoe">
        <path class="cls-51" d="M2.45,120.24c.57,1.63,1.91,8.43,3.06,10.63,1.15,2.2,4.12,5.07,5.55,6.8s6.99,3.93,8.23,3.83,4.12-.96,4.5-2.11,1.44-2.39.67-4.02-3.06-4.4-3.35-5.65-2.39-3.73-2.39-4.79-.1-2.68.96-3.45c1.05-.77,3.16-1.63,3.83-2.2s1.91-2.78.29-4.98c-1.63-2.2-5.55-5.94-6.8-7.18s-1.44-1.72-2.2-1.15-3.83,4.31-5.17,4.88c-1.34.57-3.54,1.91-5.07,2.59-1.53.67-3.06.48-3.73,1.24s-.96,3.26-.57,3.73,2.2,1.82,2.2,1.82Z"/>
        <path class="cls-105" d="M10.7,122.23c1.36.31,1.32.75-.03,1.3,2.69.73,3.65,2.64,2.1,5.06.73,1.28.37,2-1.11,2.15-.64,2.86-4.12,3.3-6.26,2.22-.97-4.5-.15-9.78-3.92-13.49-.92-.9-1.63-1.71-1.46-2.59.2-1.06,2.09-.75,2.29-1.35,2.26-.07,3.18-1,2.74-2.8,3.26-1.92,5.96-4.57,8.86-6.97.86,1.74.41,4.34-1.35,7.81,1.83,4.1,1.21,6.99-1.87,8.65Z"/>
        <path class="cls-77" d="M17.88,123.97c.76,1.22.64,2.97,1.17,4.29.25,3-.98,2.98-1.87-.02-1.2,2.74-3.07,3.14-4.42.34-1.44-1.35-3.5-3.1-2.1-5.06,2.19-2.46,4.9-1.09,7.21.45Z"/>
        <path class="cls-29" d="M11.66,130.73c1.56-.2,1.96.39,1.2,1.76,1.38.62,1.38,1.27.02,1.93,1.1,2.22.22,2.91-1.7,1.44-1.62-1.15-5.12.17-5.78-2.92,1.43-1.98,3.92-2.49,6.26-2.22Z"/>
        <path class="cls-6" d="M20.48,134.19c-2.44,1.24-5.15,1.44-4.62-1.63-2.73-1.68-1.57-3.89,1.32-4.31l1.87.02c1.77,2.3,3.42,3.73,1.43,5.93Z"/>
        <path class="cls-11" d="M5.05,112.73c2.07.15,2.38.9,1.81,2.46s.59,3.26-1.11,3.88c-1.24-2.18-2.17-2.98-3.44-3.54.47-1.39,1.53-2.09,2.74-2.8Z"/>
        <path class="cls-55" d="M15.97,139.06c-.6-1.29-.02-1.76,1.54-1.54,1.83.04,3.48-.22,6.25.2-.84,2.25-2.29,2.55-3.93,3.13-1.72.61-2.74-1.86-3.87-1.79Z"/>
        <path class="cls-32" d="M15.86,132.56c1.34,1.02,2.93,1.67,4.62,1.63-1.66,1.83-3.21,2.42-6.06,1.78-1.41,1.09-2.05.23-1.54-1.54-.15-.6.2-1.36-.02-1.93.9-3,2.23-2.97,3,.06Z"/>
        <path class="cls-110" d="M22.05,121.57c-1.3.9-2.28,2.6-4.16,2.4-3.25-.78-4.4-1.92-3.45-3.42,2.51.07,5.7-.9,7.62,1.02Z"/>
        <path class="cls-71" d="M14.43,135.97c.66,1.19,1.76,1.52,3.08,1.54-.46.57-.98,1.08-1.54,1.54-2.47.19-3.19-2.05-4.78-3.18-.29-1,.99-1.21,1.7-1.44.19.75,1.23.97,1.54,1.54Z"/>
        <path class="cls-69" d="M17.19,128.24c-.28,1.48-.69,2.94-1.32,4.31-1-.1-2-.12-3-.06-.25-.65-.83-1.18-1.2-1.76.28-.76.65-1.48,1.11-2.15,1.44-.37,2.93-.36,4.42-.34Z"/>
        <path class="cls-51" d="M14.43,120.55c.99,1.23,2.62,2.08,3.45,3.42-2.4-.25-4.8-.44-7.21-.45.21-.3-.08-.93.03-1.3.99-.95,2.31-1.72,3.73-1.68Z"/>
      </g>
      <g id="front-leg">
        <path class="cls-91" d="M24.37,96.21c-3.06,1.53-12.26,10.15-13.4,11.87-1.15,1.72-1.15,2.3-1.15,4.4s-.92,8.19,3.56,8.98,5.82,1.94,6.78,1.55,8.23-5.94,10.34-8.04,8.04-9.19,9.57-10.34c1.53-1.15,6.13-3.45,7.28-4.79,1.15-1.34,4.6-3.64,5.74-6.32s3.64-9,5.17-11.3c1.53-2.3,4.02-3.06,6.7-5.17s9.19-4.02,9.19-6.89-2.3-7.28-2.49-9.19-1.15-2.3-5.55-1.72c-4.4.57-10.91,0-14.36-.38-3.45-.38-5.74-.96-7.09-.77s-2.3,4.98-2.87,7.47-1.72,8.23-3.45,10.91-3.96,10.6-4.91,11.17-3.19,4.53-4.28,5.23c-1.09.7-4.79,3.32-4.79,3.32Z"/>
        <path class="cls-18" d="M37.61,93.11c-.59,2.13-.48,5.36.69,7.32.76,1.27,3.93,1.96,5.42,1.59l-1.43,1.65c-2.89,1.28-5.57,2.43-8.01,3.45-2.18,3.4-8.82,12.03-11.82,7.08-1.41-2.02-2.59-2.48-3.55-1.36,9.44,6.48-9.41,11.29-6.29.18l3.93-11.12c2.62-2.76,5.85-5.6,9.75-6.14,3.95,4.99,5.65,5.02,5.1.11-3.76-.88-1.53-3.36,1.54-4.63,2.42-2.14,4.34-1.42,4.67,1.86Z"/>
        <path class="cls-99" d="M18.91,112.84c.96-3.11,2.62-1.14,3.55,1.36,4.82.16,6.95-5.82,11.82-7.08,1.81-.66,2.39-.3,1.74,1.09-4.12,5.07-8.57,9.64-13.97,13.36-2.72,1.24-5.16.38-7.62-1.02.1,1.98-1.96,2.32-3.73,1.68-2.3-.26,3.03-15.7,3.22-16.47.45-1.89,1.41-2.57,2.63-3.86,1.8,3.31-1.24,6.83-2.8,10.44-1.29,3,2.07,5.77,4.48,6.29.57-2.46.44-4.11.68-5.8Z"/>
        <path class="cls-85" d="M59.35,62.01c2.37,2.19,1.78,6.57-.34,9.19-.46.07-1.33.7-1.4,1.16-1.2,2.4-2.38,1.45-3.27-1.09-1.44-1.88-3.71-2.69-5.98-3.15-1.42-2.07-.84-4.65,1.75-7.71,3.02.85,6.1,1.82,9.24,1.6Z"/>
        <path class="cls-23" d="M49.83,91.24q-2.56,2.57-2.84-1.06c-3.72.8-5.02-1.61-5.01-4.95-2.11-.09-1.43-2.3.31-3.24.32-1.57.98-2.39,1.98-2.47,3.79.7,7.09,2.56,10.63,5.4-1.72,2.86-3.7,4.38-5.06,6.32Z"/>
        <path class="cls-12" d="M43.76,61.95c2.72-.94,3.2.97,1.51,3.09,1.37.29,1.31.81,0,1.54-1.44,1.72-2.47,3.77-3.08,6.17-1.53,5.32-3.48,10.54-6.17,15.42-3.39,3.06-3.04.61-1.54-3.08l5.78-17.35c.92-2.76.24-6.07,3.5-5.79Z"/>
        <path class="cls-53" d="M48.36,68.12c-1.91,3.56-3.13,7.45-4.1,11.41-.27,1.12-.73,2.18-1.98,2.47-.97-.37-.97-.89-.1-1.54-3.53.52-1.81-4.15,0-6.17.45-3.38,1.48-5.95,3.08-7.71.1-.5-.06-1.04,0-1.54-.71-2.06.57-4.56,2.91-4.56.61.1,1.34-.24,1.93-.07-.56,2.44-.53,5.45-1.75,7.71Z"/>
        <path class="cls-87" d="M46.99,90.19c1.44,3.04.06,5.23-3.24,5.42-1.73-.03-4.63.72-4.08-1.81.31-1.42.69-2.86.87-4.22-2.96-.83-1.12-3.46,1.44-4.33,2.77-.03,4.14,2.58,5.01,4.95Z"/>
        <path class="cls-41" d="M42.28,82c-.3.98.12,2.32-.31,3.24-.65,1.4-1.24,2.78-1.44,4.33-1.31.86-2.16,2.2-2.93,3.53-1.7-.18-3.26-.91-4.67-1.86-.46.76-.98.74-1.54,0-.35-2.4,2.48-4.34,3.08-6.17.16.94.02,3.28,1.54,3.08l3.83-8.49,2.34.78c0,.49.24,1.07.1,1.54Z"/>
        <path class="cls-31" d="M49.83,91.24c-.71,1.01.89,3.88-.92,4.5-1.82.63-3.6-.11-5.16-.14.19-2.22,1.37-4.21,3.24-5.42,1.06-.06,2.09.3,2.84,1.06Z"/>
        <path class="cls-19" d="M31.39,95.88c.62.57,3.43,1.2,3.07,3.31-.39,2.3-4.61,1.61-6.17.66-1.16-.7-2-2.48-2-4.08,0-.42.06-1.14.3-1.48,1.76-1.86,3.35-1.33,4.79,1.59Z"/>
        <path class="cls-30" d="M32.93,91.25c-.91,1.39-1.58,2.94-1.54,4.63-.07.75.5,1.66-.57,3.19l-4.22-4.78c1.12-1.6,3.03-2.33,4.79-3.04.45-.18,1.07.11,1.54,0Z"/>
        <path class="cls-16" d="M42.29,103.67c-1.69,1.94-4.73,2.65-6.27,4.54-.67-.1-2.42.31-1.74-1.09,2.34-.6,4.33-5.54,8.01-3.45Z"/>
        <path class="cls-104" d="M57.6,72.36c-.16,1.28-.41,2.64-1.54,3.47-1.37.71-1.84.13-1.54-1.54l-.19-3.02c1.14.2,2.24.57,3.27,1.09Z"/>
        <path class="cls-89" d="M43.72,102.02c1.21-1.27,2.07-3.74,4.23-4.68,1.23,2.13,0,3.11-1.16,3.86-.72.46-1.86.75-3.07.83Z"/>
        <path class="cls-8" d="M56.07,75.83l1.58,2.78c-2.32,1.17-3.48-.58-4.59-2.04-.46-.61.82-1.67,1.46-2.28.46.57.98,1.08,1.54,1.54Z"/>
        <path class="cls-54" d="M22.46,114.2l-3.55-1.36c.18-1.28-.18-2.55.5-4.73,2.69,1.32,3.07,3.7,3.04,6.09Z"/>
        <path class="cls-98" d="M42.19,74.29v6.17c-3.56,1.15-2.18,7.21-6.17,7.71.48-5.58,2.34-11.29,6.17-15.42v1.54Z"/>
        <path class="cls-91" d="M45.27,66.58c-.56,2.73-.84,5.84-3.08,7.71v-1.54c.37-1.25-.48-3.56.2-5.12.47-1.07,1.51-1.42,2.89-1.05Z"/>
        <path class="cls-109" d="M48.18,60.48c.07,2-.88,4.04-2.91,4.56-.84-.83-1.3-1.94-1.51-3.09-.35-1.45,1.47-2.43,1.9-3.34,1.03.32,1.89,1,2.52,1.87Z"/>
      </g>
    </g>
    <g id="back-arm-assembly">
      <g id="back-glove">
        <path class="cls-58" d="M59.4,9.46c.27,1.05.43,2.13.54,3.21-1.36,4.31-3.68,4.97-6.82,1.61-2.8,1.47-7.67,3.09-10.6,1.42.43,6.01-7.13,6.04-9.59,1.69-1.35-.49-1.33-1.06,0-1.71.93-.78.46-2,1.41-3.41,3.57,2.64,4.75-.96,7.27-1.5l8.92-1.9c1.38-.29,3.43.87,3.81-.76.24-1.05-.11-3.1,2.22-3.63,1.1,1.64.3,4.73,2.83,4.97Z"/>
        <path class="cls-49" d="M32.86,17.83c-.06-1.28.13-2.68,1.15-3.51s2.62-1.91,3.51-2.11,9.32-3.19,10.66-3.26,7.28-.7,8.11.13,1.4,5.94,1.4,7.66.96,6.32-1.79,7.15c-2.74.83-9.19.89-12.06.45-2.87-.45-6.83-1.15-7.98-1.85-1.15-.7-3.13-2.43-3.06-3.06s.06-1.6.06-1.6Z"/>
      </g>
      <g id="back-arm">
        <path class="cls-74" d="M32.93,15.69v1.71c1.62,2.69-.91,2.98-3.08,1.38l-3.08-3.08c1.94-.49,4.2.36,6.17,0Z"/>
        <path class="cls-112" d="M42.76,27.85c1.05-.1,3.16.38,4.12-.29s2.97-2.2,2.97-4.6-1.24-5.46-1.82-6.8-1.82-2.2-3.16-1.72c-1.34.48-4.69,2.97-5.55,2.97s-2.3-.96-3.45-1.05c-1.15-.1-3.45.48-3.93.67s-5.46,1.34-6.7,1.82c-1.24.48-3.64.38-4.31,1.53s-1.34,4.5-.19,5.36,4.6,2.39,6.22,3.06,5.84,2.39,8.23,2.01c2.39-.38,5.55-1.34,6.41-1.82s1.15-1.15,1.15-1.15Z"/>
        <path class="cls-28" d="M43.31,23.2c.79.39,1.27,1.55,1.45,3.46,1.24.74,1.06,1.23-.44,1.47-4.7.09-9.43.44-14.12-.09-2.6-1.9-1.72-2.57,1.19-3.1.46-.95.97-.93,1.54,0-1.11-2.63.93-2.9,3.21-1.73.5-4.39,6.42-4.26,7.16,0Z"/>
        <path class="cls-115" d="M29.85,21.85c2.38-.88,5.18.82,3.08,3.08h-1.54c-1.52,1.84-4.09,1.84-7.71,0-.52-.37-2.4.34-2.84-.67-.27-.61,1.18-1.68,1.3-2.41,1.89-.87,4.46-.87,7.71,0Z"/>
        <path class="cls-33" d="M29.85,18.77c.62.78.11,1.29-1.54,1.54-1.16,2-4.18.94-6.17,0,.98-1.82,2.46-4.08,4.63-4.63,3.26.47,4.29,1.5,3.08,3.08Z"/>
        <path class="cls-94" d="M28.31,20.31l1.54,1.54c-1.46,3.06-5.18.41-7.71,0,.13-.45-.22-1.14,0-1.54,2.18-1.25,4.1-.59,6.17,0Z"/>
        <path class="cls-5" d="M31.39,24.94c-.3,1.07-.69,2.11-1.19,3.1-2.29-.26-4.76-1.86-6.52-3.1h7.71Z"/>
        <path class="cls-44" d="M42.4,17.1c1.51,1.65,2.42,4.28.91,6.1h-7.16c-2.39.06-5-.9-7.84-2.89.05-1.02.46-1.63,1.54-1.54,1.19.1,2.16-.98,3.08-1.38,2.82-.43,7.23.52,9.59-1.69,1.35.37,1.26.84-.13,1.4Z"/>
        <path class="cls-112" d="M36.15,23.21c-.87.89-1.99,1.49-3.21,1.73-.54-1.41-1.68-2.52-3.08-3.08-.9-.36-1.6-.42-1.54-1.54,2.61.75,6.43-.08,7.84,2.89Z"/>
      </g>
    </g>
    <g id="Body">
      <path class="cls-43" d="M45.66,58.6c1.74.82,1.69,1.22,6.19,2.37s15.32,1.91,17.52,1.34c2.2-.57,2.62-.17,3.13-1.91s.7-5.47,1.76-7.19c1.05-1.72,4.02-5.27,4.88-7.47s1.82-8.52,1.72-10.53,1.05-3.16,1.05-4.21,3.35-12.35.29-13.31-10.15-2.01-12.45-1.63c-2.3.38-5.07.64-7.42-.11-2.35-.75-5.03-1.23-6.18-1.33s-2.97-.1-3.83-.57-2.68-.67-4.5-.19c-1.82.48-3.54.77-4.5,1.63s-.77,2.78-.77,4.69,0,7.47.57,7.95-.19,1.05.77,1.63,1.44,2.2,1.53,4.02,0,5.07.57,6.61,1.63,3.83.67,6.13-2.39,6.41-2.39,7.47-.61,3.68,1.37,4.62Z"/>
      <path class="cls-116" d="M83.97,14.12s.87-.05,1.25.05c2.05,1.39,1.07,3.95-2.94,7.68.53,2.11.17,4.66-1.54,6.17-2.15,2.25-5.28,1.66-7.73-.13-.43,2.59-1.36,2.2-2.79-1.19-3.96-.03-4.14-.44-1.91-3.65-3.69-2.43.89-5.7,3.53-7.24.96-.56,2.02-.9,3.13-.99l9-.71Z"/>
      <path class="cls-27" d="M73.01,27.89c1.35.47,1.34,1.02.02,1.67,7.02,2.01,9.57,4.63,7.66,7.84-1.52,6.8-7.03,11.24-13.89,12.14-1.05,2.42-4.02,2.39-4.68-.25-2.15-2.8-1.15-3.64,1.59-1.42,5.71-4.76,5.11-12,3.84-18.74l2.67-2.43,2.79,1.19Z"/>
      <path class="cls-83" d="M52.98,55.17l.92-1.21c4.86,1.38,9.65,1.56,14.37.54,1.33,1,2.01,2.29,1.64,3.41-1.39,4.19-7.84,1.31-7.77,3.91,0,4.1-1.33,4.02-2.79.19-1.35,4.92-9.75,3.29-9.24-1.6-.59,1.33-1.23,1.35-1.93.07-2.28,2.1-3.4,1.02-2.52-1.87.48-1.01-.78-4.24,1.1-4.05,2.56.26,4.26,1.16,6.22.61Z"/>
      <path class="cls-78" d="M62.23,52.7c.99-2.32,2.34-2.29,3.37.02,1.03.24,1.86,1.18,2.67,1.79-4.46,7.13-12.59-.09-15.29.66-.47-.38-1.05-.58-1.54-.93-.67-.46-.81-1.21-.15-1.83,1.81-1.69,8.44-.25,10.94.29Z"/>
      <path class="cls-35" d="M46.81,28.02c2.38,1.43,2.38,4,0,7.71-2.84-1.02-3.12-4.99-2.49-7.61.12-.49.39-.99.44-1.47-.77-1.65-1.17-4.08.51-4.8-1.14-4.95.06-5.98,3.59-3.08,4.4,2.15,2.03,7.55-2.04,9.25Z"/>
      <path class="cls-62" d="M62.23,52.7c-2.53,3.04-10.81-2.45-10.79,1.54-.59-.42-1.05-1.02-1.54-1.54-1.53-2.01,2.11-3.98,3.08-1.54.57-4.15,1.37-4.17,4.63-1.54,1.17-1.27,5.67.95,4.63,3.08Z"/>
      <path class="cls-9" d="M82.28,29.56c0,2.73.6,5.83-1.59,7.84.99-6.18-7.62-3.79-7.66-7.84,2.82-.5,5.9-.5,9.25,0Z"/>
      <path class="cls-15" d="M62.12,49.29c1.38.31,3.28.44,4.68.25-.3,1.09-.69,2.16-1.2,3.17-1.07-.25-2.28.16-3.37-.02l-4.63-3.08c-1.32-.58-1.26-1.15.11-1.72,1.71-3.69,5.11-3.08,4.41,1.4Z"/>
      <path class="cls-90" d="M52.98,51.15c-1.2.16-2.61.19-3.08,1.54-1.2-.55-1.54-1.83-1.54-3.08,1.71-1.56,2.73-3.62,3.08-6.17-2.66-.09-2.94-2.82,0-3.08.44-1.35.95-1.33,1.54,0,4.89.15,2.95,9.08,0,10.79Z"/>
      <path class="cls-40" d="M49.9,40.36c-.3,4.1-1.33,4.1-3.08,0v-4.63c.57-3.58,1.6-5.12,3.08-4.63,1.33,1.99,1.17,6.92,0,9.25Z"/>
      <path class="cls-73" d="M80.74,28.02c.44-1.35.95-1.33,1.54,0v1.54c-2.71,2.28-6.17,1-9.25,0l-.02-1.67c2.57.13,5.15.13,7.73.13Z"/>
      <path class="cls-106" d="M49.9,40.36c.44-1.35.95-1.33,1.54,0v3.08c-.26,3.31-1.29,4.85-3.08,4.63.18-2.67-.14-5.39-1.54-7.71h3.08Z"/>
      <path class="cls-43" d="M48.36,49.61v-1.54l3.08-4.63c.08,1.53.28,3.13-.18,5.13-.24,1.06-1.56,1.39-2.91,1.04Z"/>
      <path class="cls-47" d="M68.31,23.06c1.23.88,1.62,2.25,1.91,3.65,1.27,6.18,3.84,20.99-6.51,21.17-1.45-1.86-3.45-1.85-6,.02l-.11,1.72c-1.44.74-3.01,1.33-4.63,1.54v-10.79c-.48-2.28-1-4.85-1.54-7.71-1.01-.45-.99-.97,0-1.54-1.35-.44-1.33-.95,0-1.54-1.87-.36-2.9-1.25-2.18-3.03,2.42-6,8.98,1.46,7.22,5.65,1.36-1.65,2.78-2.5,4.25-2.56.35-1.6,1.36-3.16,3.04-4.7-2.45-4.25,2.17-6.47,4.53-1.88Z"/>
      <path class="cls-88" d="M73.42,15.57c-3.42-.34-4.4,5.09-5.11,7.49-2.01-.63-3.08,1.18-4.53,1.88-.9,1.85-2.58,3.6-4.63,3.08,1,1.32-1.25,3.48-2.67,4.17-1.54-1.45-4.22-1.41-3.61-6.05-2.09.96-1.51,2.31-1.43,3.42-3.32,3.56-3.51,3.05-4.63-1.54,0-3.24,1.58-6.11,2.04-9.25-2.1-3.43.73-5.2,4.26-4.49,2.28-.53,4.46-1.52,6.82-1.61.5,1.09.71,2.54,2.4,3.29.01-.03.03-.05.04-.08,1.5-2.79,4.89-3.99,7.79-2.7,1.24.55,2.42,1.21,3.25,2.39Z"/>
      <path class="cls-42" d="M63.71,47.88c-.63.01-2.1.58-1.59,1.42-1.47-.33-2.8-1.45-4.41-1.4-2.42-3.86,5.27-4.32,6.76-7.27,1.81,3.24-.33,5-.76,7.26Z"/>
      <path class="cls-75" d="M53.12,14.28c-.85,2.01-2.59,3.22-4.26,4.49-1.1.83-2.94,1.83-3.59,3.08-1.07-1.04-2.02-2.63-2.87-4.75-.06-.45.15-.94.13-1.4,2.98-2.8,7.22-4.73,10.6-1.42Z"/>
      <path class="cls-93" d="M51.44,29.56v1.54c-.44,1.35-.95,1.33-1.54,0-1.79,1.04-.89,4.04-3.08,4.63v-7.71c1.36.99,2.92,1.7,4.63,1.54Z"/>
      <path class="cls-95" d="M52.98,40.36h-1.54c-1.33-1.5-1.14-5.85,0-7.71,2.58,1.47,1.54,5.15,1.54,7.71Z"/>
      <polygon class="cls-107" points="51.44 32.65 51.44 40.36 49.9 40.36 49.9 31.11 51.44 31.11 51.44 32.65"/>
      <path class="cls-21" d="M60.74,29.63c-1.93,1.5-2.11,4.58-4.25,2.56-.19-2.1,1.52-2.92,2.67-4.17,1.33-.59,1.8.02,1.59,1.61Z"/>
      <path class="cls-64" d="M60.74,29.63c-.57-.49-1.1-1.03-1.59-1.61,1.37-1.49,2.82-2.22,4.63-3.08.4,2.49-1.47,3.47-3.04,4.7Z"/>
      <path class="cls-100" d="M45.27,21.85l-.51,4.8c-1.41-.17-1.23-2.37-1.45-3.46-.4-2.01-.63-4.06-.91-6.1,2.18.28,2.69,2.88,2.87,4.75Z"/>
    </g>
    <g id="front-arm-assembly">
      <g id="front-arm">
        <path class="cls-96" d="M87.44,15.15c-.8-.22-1.58-1.12-2.21-.97s-3.5,1.04-4.49,2.35-2.3,7.31-2.23,8.62.61,4.37,1.88,4.88,2.43,1.82,4.72,1.63,4.12.06,5.3.32,7.34.38,8.62-.16c1.28-.54,2.74-.45,3.13-.16s.61.57,1.18.48,3.48-.64,4.4-.8c.93-.16,5.46.19,7.12-.38,1.66-.57,4.34-1.72,5.62-1.82,1.28-.1,2.11-.45,2.33-.73s.45-3.19.45-4.02,0-3.1-.16-4.05-.61-1.12-1.09-1.18-3.73.22-5.2.06-6.57-.61-7.63-.67-6.19.29-7.47.41c-1.28.13-3.19-.96-4.09-1.09s-3.54-.16-4.56.03-1.76.13-2.2-.1-3.41-2.65-3.41-2.65Z"/>
        <path class="cls-82" d="M110.04,20.31c2.38.09,2.67,2.36.91,3.77-3.14,1.01-8.58,2.36-10.54-.63.84-3.89,6.52-4.86,9.64-3.14Z"/>
        <path class="cls-24" d="M89.99,17.23l1.54,1.54c-1.86,1.32-2.44,3.77-4.44,4.94-.92.54-1.84.55-2.78.19-1.83,3.14-3.54,1.01-2.03-2.05,2.44-4.98,5.01-6.52,7.71-4.63Z"/>
        <path class="cls-25" d="M89.99,17.23c-3.39-.37-4.67,3.39-7.71,4.63l2.94-7.68c1.88.5,3.4,1.69,4.77,3.06Z"/>
        <path class="cls-2" d="M100.79,18.77c4.07.3,2.98,2.31-.51,3.29-1.32-.19-2.59.2-3.62.77-1.31.72-2.79,2.19-.98,3.37.86.56,1.87.8,3.52,2.65-2.16,1.46-5.99.89-9.32.32-1.77-.3-2.57-3.08-2.79-5.45-1.55-2.62,1.62-5.99,4.44-4.94,3.22-.53,6.19-.94,9.25,0Z"/>
        <path class="cls-37" d="M84.31,23.9c-.47,1.47-1.15,2.86-2.03,4.12h-1.54c-.24-2.2-.26-4.64,1.54-6.17-.25,1.32,1.05,1.67,2.03,2.05Z"/>
      </g>
      <g id="front-glove">
        <path d="M123.99,18.9c-1.77,0-2.06-.38-2.87-.24s-2.06-.19-2.2.91-.05,5.46-.05,6.22-.23,4.09.32,3.99,1.98.04,2.99-.06,2.39-.48,2.97-.57.77-2.2.72-4.07-1.87-6.18-1.87-6.18Z"/>
        <path class="cls-1" d="M127.77,29.46c1.82,2.31,1.06,2.79,3.64,3.75s4.21,1.53,6.22.48c2.01-1.05,4.5-1.91,4.4-3.93s1.15-4.31-.29-5.46c-1.44-1.15-8.04-2.2-9.19-2.3s-2.87,1.34-3.54,2.39-1.25,5.06-1.25,5.06Z"/>
        <path class="cls-79" d="M141.09,21.85c-1.71.2-3.33.2-4.84,0-.44,1.35-.95,1.33-1.54,0-.49,4-7.71,2.12-6.34-1.82-2.15,2.05-2.93,1.21-1.49-1.49,4.31-2.41,12.45-1.62,14.21,3.3Z"/>
        <path class="cls-1" d="M126.89,18.55l1.49,1.49c2.21,2.54,2.68,3.74-1.04,5.16,3.14.98,3.34,2.69.44,4.27l-2.66-.57c-2.59-.23-2.97-.98-1.16-2.25-2.77-2.13-3.37-4.24-1.8-6.33-2.93.6-3.06-.58-.19-1.76,1.64-.08,3.29-.09,4.93,0Z"/>
        <path class="cls-101" d="M134.27,26.89c-1.04,2.18-1.45,4.56-2.18,6.99-2.99-1.21-3.48-2.95-4.31-4.41,0-1.44-.33-2.85-.44-4.27.73-3.42,7.61-1.91,6.93,1.69Z"/>
        <path class="cls-81" d="M134.71,21.85c2.45,1.18,3.1,2.98.08,3.39.01.51-.31,1.18-.53,1.64-2.27-.72-4.53-1.6-6.93-1.69-.12-1.61-.98-4.57,1.04-5.16,1.61,1.6,4.09,1.82,6.34,1.82Z"/>
        <path class="cls-114" d="M141.09,21.85c.6.27,1.18.58,1.3,1.07.25.99-.67,2.69-2.09,3.15-1.99.63-3.84-.75-5.51-.83l-.08-3.39h1.54c1.52.24,3.13.24,4.84,0Z"/>
        <path class="cls-76" d="M123.95,26.64c.19.84.58,1.62,1.16,2.25-1.67-.36-4.17.2-5.92.88-1.08-1.59,3.44-7.14,4.76-3.13Z"/>
        <path class="cls-36" d="M141.09,21.85c.08,1.24-1.35,1.87-2.48,1.59-.74-.18-1.56-.91-2.36-1.59-.23-1.18.74-1.82,1.77-1.56.88.22,1.37,1.58,3.06,1.56Z"/>
      </g>
    </g>
    <g id="hair-2" data-name="hair">
      <path class="cls-49" d="M70.5,12.81c.05.87-.06,1.22-.77,2.14s-1.13,2.53-2.75,3.45-3.11-.31-4.62.52c-1.51.82-3.78.39-4.4-.64s-1.41-1.68-.97-2.69.44-2.28,1.04-3.23.47-4.82.57-5.48,0-3.03.89-3.48,3.69-1.71,4.08-1.95,5.31-.95,6.3-.64,4.65.27,5.79.62,4.5,2.25,5.32,3.46,2.33,2.16,2.8,2.85,1.55,2,1.39,2.78-1,1.71-2.38,1.32-3.06-.11-4-1.03-1.8-1.59-2.82-1.16-4.11.62-4.32.51-1.18,1.79-1.13,2.66Z"/>
      <path class="cls-50" d="M77.12,2.47c-1.6-.84-1.3-1.5-2.94-1.62s-5.96-1.26-7.23-.7c-1.27.56-2.68.44-3.55,1.71s-.59,1.98.39,2.14,3.95,1.05,5.11,1.01c1.16-.04,4.76.03,5.61-.06s3.1-.63,3.07-1.17-.46-1.31-.46-1.31Z"/>
      <path class="cls-17" d="M59.66,8.27l-.28-.7c-.13-.31-.25-.63-.28-.96-.02-.25.02-.5.07-.75.07-.41.14-.82.21-1.23.02-.11.04-.22.09-.31.06-.1.16-.18.24-.27.24-.24.39-.56.57-.85.39-.6.97-1.06,1.57-1.47.36-.25.75-.49,1.18-.56.32-.05.65-.01.97.03.81.1,1.64.21,2.37.57.23.11.46.26.62.45.23.28.34.63.44.98.12.42.24.84.37,1.25.02.06.04.13.01.19-.02.06-.08.1-.13.14-1.33.92-2.75,1.75-4.3,2.2-.69.2-1.43.33-2.03.73l-1.7.55Z"/>
      <path class="cls-49" d="M80,12.34c-.17-.27-.34-.55-.52-.81-.87-1.26-2.06-2.3-3.44-2.98-1.72-.85-3.65-1.14-5.56-1.35-.87-.1-1.75-.18-2.63-.24-.45-.03-.9-.06-1.34.04-.73.18-1.32.7-1.87,1.21-.4.37-.79.73-1.19,1.1-.49.45-1.01.92-1.64,1.12-.07.02-.14.04-.22.03-.22-.02-.35-.24-.44-.44-.28-.57-.55-1.15-.83-1.72-.27-.56-.53-1.24-.21-1.77.26-.42.8-.57,1.3-.59s1,.05,1.48-.1c.57-.18,1.01-.64,1.56-.87.54-.23,1.19-.24,1.63-.64.3-.27.43-.68.58-1.05.07-.18.17-.37.35-.43.28-.1.54.15.77.34.5.41,1.15.57,1.78.72.66.15,1.33.31,2.01.3.65,0,1.29-.17,1.94-.18,1.1-.01,2.18.43,3.08,1.06s1.66,1.46,2.37,2.3c-.24-.09-.53.01-.67.23-.17.27-.07.64.13.89s.48.41.75.59c.48.33.9.75,1.23,1.22.44.62.71,1.52.22,2.1-.16.07-.36,0-.45-.14l-.17.05Z"/>
      <path class="cls-50" d="M75.07,7.26c0-.44,1.82-.96,2.29-.89,1.35.18,2.71.37,4.06.55.87.12,1.78.26,2.47.77,1,.76,2.15,3.43,1.92,4.57-.03.15-.07.3-.17.41-.16.18-.43.23-.68.25-.61.06-1.22.02-1.84-.01-.82-.05-2.77-.27-3.59-.32-.4-.02-.62-1.19-1-1.29-1.09-.28-1.92-1.15-2.3-2.12s-1.16-1.93-1.16-1.93Z"/>
      <path class="cls-56" d="M61.93,10.67c.11.19-.07.41-.26.52s-.42.2-.48.41c-.04.11-.01.24-.04.35-.03.13-.13.23-.22.32-.83.77-2.08,1.07-3.17.77-.06-.02-.12-.03-.16-.07-.19-.14-.12-.43-.03-.65.28-.73.48-1.5.6-2.27.05-.32.08-.64.16-.95.17-.66.58-1.26,1.18-1.59s1.38-.32,1.92.08c.63.47.82,1.31.97,2.08.03.16-.01.39-.17.37l-.29.64Z"/>
      <path class="cls-4" d="M74.26,4.82c2.25-9.24,13.36,6.88,5.16,3.81-.79-2.45-4.44-1.92-5.16-3.81Z"/>
    </g>
  </g>
</svg>