<?xml version="1.0" encoding="UTF-8"?>
<svg id="Player" xmlns="http://www.w3.org/2000/svg" viewBox="0 0 143.6 112.36">
  <defs>
    <style>
      .cls-1 {
        fill: #cd8358;
      }

      .cls-2 {
        fill: #ddd7cc;
      }

      .cls-3 {
        fill: #101026;
      }

      .cls-4 {
        fill: #727d86;
      }

      .cls-5 {
        fill: #0c1e34;
      }

      .cls-6 {
        fill: #0d1d2e;
      }

      .cls-7 {
        fill: #815548;
      }

      .cls-8 {
        fill: #b4b699;
      }

      .cls-9 {
        fill: #acbfc4;
      }

      .cls-10 {
        fill: #3b4660;
      }

      .cls-11 {
        fill: #939569;
      }

      .cls-12 {
        fill: #d0855b;
      }

      .cls-13 {
        fill: #d37250;
      }

      .cls-14 {
        fill: #3e4a51;
      }

      .cls-15 {
        fill: #040a13;
      }

      .cls-16 {
        fill: #f6d0a0;
      }

      .cls-17 {
        fill: #3a444d;
      }

      .cls-18 {
        fill: #9e7a64;
      }

      .cls-19 {
        fill: #16243a;
      }

      .cls-20 {
        fill: #934f26;
      }

      .cls-21 {
        fill: #d27250;
      }

      .cls-22 {
        fill: #fb9067;
      }

      .cls-23 {
        fill: #573a38;
      }

      .cls-24 {
        fill: #1a1c20;
      }

      .cls-25 {
        fill: #232f54;
      }

      .cls-26 {
        fill: #07101a;
      }

      .cls-27 {
        fill: #5d6065;
      }

      .cls-28 {
        fill: #243138;
      }

      .cls-29 {
        fill: #9fa386;
      }

      .cls-30 {
        fill: #634932;
      }

      .cls-31 {
        fill: #a94e2a;
      }

      .cls-32 {
        fill: #e9e6de;
      }

      .cls-33 {
        fill: #86959c;
      }

      .cls-34 {
        fill: #03101d;
      }

      .cls-35 {
        fill: #dc7756;
      }

      .cls-36 {
        fill: #232c33;
      }

      .cls-37 {
        fill: #040c18;
      }

      .cls-38 {
        fill: #d97250;
      }

      .cls-39 {
        fill: #2d3b5b;
      }

      .cls-40 {
        fill: #0f1729;
      }

      .cls-41 {
        fill: #201c05;
      }

      .cls-42 {
        fill: #323236;
      }

      .cls-43 {
        fill: #24252f;
      }

      .cls-44 {
        fill: #151b2b;
      }

      .cls-45 {
        fill: #162641;
      }

      .cls-46 {
        fill: #b3c6cc;
      }

      .cls-47 {
        fill: #172333;
      }

      .cls-48 {
        fill: #303337;
      }

      .cls-49 {
        fill: #1d1d24;
      }

      .cls-50 {
        fill: #091521;
      }

      .cls-51 {
        fill: #d0d1b2;
      }

      .cls-52 {
        fill: #f8bf92;
      }

      .cls-53 {
        fill: #1c283e;
      }

      .cls-54 {
        fill: #3e496a;
      }

      .cls-55 {
        fill: #b8ba9c;
      }

      .cls-56 {
        fill: #1b2532;
      }

      .cls-57 {
        fill: #dadfd2;
      }

      .cls-58 {
        fill: #cd6235;
      }

      .cls-59 {
        fill: #dad8c7;
      }

      .cls-60 {
        fill: #c3c4aa;
      }

      .cls-61 {
        fill: #121f2e;
      }

      .cls-62 {
        fill: #0c1624;
      }

      .cls-63 {
        fill: #e5e6dd;
      }

      .cls-64 {
        fill: #1f1424;
      }

      .cls-65 {
        fill: #9e4917;
      }

      .cls-66 {
        fill: #725861;
      }

      .cls-67 {
        fill: #26292e;
      }

      .cls-68 {
        fill: #e6b279;
      }

      .cls-69 {
        fill: #394868;
      }

      .cls-70 {
        fill: #76868c;
      }

      .cls-71 {
        fill: #6b5139;
      }

      .cls-72 {
        fill: #0f1621;
      }

      .cls-73 {
        fill: #0b1e33;
      }

      .cls-74 {
        fill: #aeaf88;
      }

      .cls-75 {
        fill: #f0c99b;
      }

      .cls-76 {
        fill: #c2bda7;
      }

      .cls-77 {
        fill: #222126;
      }

      .cls-78 {
        fill: #09192a;
      }

      .cls-79 {
        fill: #1d2c51;
      }

      .cls-80 {
        fill: #1b2a47;
      }

      .cls-81 {
        fill: #d97251;
      }

      .cls-82 {
        fill: #0b1b2d;
      }

      .cls-83 {
        fill: #3f4763;
      }

      .cls-84 {
        fill: #0d141c;
      }

      .cls-85 {
        fill: #161b1e;
      }

      .cls-86 {
        fill: #2e2f34;
      }

      .cls-87 {
        fill: #101622;
      }

      .cls-88 {
        fill: #fecf95;
      }

      .cls-89 {
        fill: #081521;
      }

      .cls-90 {
        fill: #20212c;
      }

      .cls-91 {
        fill: #2c2110;
      }

      .cls-92 {
        fill: #e5e2d6;
      }

      .cls-93 {
        fill: #ca7052;
      }

      .cls-94 {
        fill: #e9ece2;
      }

      .cls-95 {
        fill: #a14b1d;
      }

      .cls-96 {
        fill: #2f3237;
      }
    </style>
  </defs>
  <g id="Player_JumpKick">
    <path class="cls-59" d="M61.46,29.29c.07,3.86-3.08,6.52-9.44,7.99.41,4.7-1.7,4.76-3.88.88.03,3.04-1.13,2.99-1.7-.07-2.2.47-3.6-1.91-3.3-3.91-2.39-1.57-3.7-3.42-.58-4.3.44-2.87,2.16-6.06,5.21-5.21.02-3.9.24-4.35,3.08-1.49,4.18.57,8.33,2.5,10.62,6.12Z"/>
    <path class="cls-60" d="M30.85,50.71c2.94,0,8.16,3.49,6.41,6.4,4.26,2.11,4.17,2.75-.36,4.32l-.65,1.06c-.34,1.28-.7,1.28-1.07.01-1.51.55-2.46.27-2.85-.83-2.22.79-3.85.82-4.89.09-5.22-5.21-5.99-13.11-7.85-20.12-4.02-2.43-1.29-5.39,1.75-1.69,2.45,1.49,4.6,4.09,6.44,7.78,3.42-1.42,4.45-.43,3.06,2.97Z"/>
    <path class="cls-35" d="M9.66,26.49c4.23-.45,4.85,1.24,2.37,4.43,2.72,2.98.63,4.94-3.02,6.11,1.34.35,1.29.78-.06,1.31-2.25.09-6.48.6-7.69-2.52-.9-2.32-1.75-6.76-.93-9.94.66-2.53,8.1-1.87,9.33.62Z"/>
    <path class="cls-17" d="M44.71,12.26c-2.16,4.59-4.61,4.34-7.42.33-9.08-2.05-11.76-4.57-8.04-7.57-2.1,2.21-3.12,2.07-3.08-.4.74-5.45,13.15,5.72,17.62-4.62,5.2,4.44-1.03,6.38.92,12.26Z"/>
    <path class="cls-13" d="M79.83,47.43c3.97,1.55,1.04,5.89-2.65,4.79-4.22.43-9-.16-10.67-4.42-.09-1.28.86-2.82,2.84-4.63-3.49-1.08-3.59-2.72-.28-4.93-1.39.09-1.48-.36-.38-1.32l2.69.49c5.75,2.54,8.57,5.88,8.46,10.01Z"/>
    <path class="cls-21" d="M22.89,32.75c3.75,1.15,1.79,7.22-1.54,7.21-1.17-.76-1.98.82-1.75,1.69-3.76-.27-7.82-.61-10.65-3.31l.06-1.31,4.97-4.57c2.85-2.14,5.32-2.56,7.39-1.26,1.99-1.78,2.72-.93,1.52,1.55Z"/>
    <path class="cls-75" d="M83.45,45.91c1.02,3.65-1.28,4.76-3.62,1.52-3.25-2.84-6.1-6.4-8.46-10.01,5.3.97,10.76,3.01,12.08,8.49Z"/>
    <path class="cls-3" d="M44.71,12.26c.62,1.86,1.82,3.2,3.17,4.58.72,2.38,1.15,4.22-1.66,3.2-1.7,4.55-5.36,2.86-6.05-1.57-4.54,1.02-5.78-2.27-2.87-5.88,2.48.03,4.95-.04,7.42-.33Z"/>
    <path class="cls-16" d="M68.68,36.92l.38,1.32c.27,4.68-7.84,6.86-7.78,1.72-4.2,1.48-5.59-1.34-2.42-4.37-.16-2.11,2.28-3.55,4.31-2.81,2.22.82,4.53,1.88,5.5,4.14Z"/>
    <path class="cls-96" d="M18.46,27.75c3.35,2.5-1.72,4.96-4.63,3.08.42,2.97-.78,3.02-1.8.08-1.41-1.09-1.65-2.97-2.37-4.43,2.1-.39,4.33-2.6,4.17-4.91.44-1.35.95-1.33,1.54,0,.88-.27,1.62-.41,1.89-.11,1.26,1.37,4.18,6.08,1.19,6.28Z"/>
    <path class="cls-90" d="M32.22,12.89c4.39.83,3.19,4.15-1.03,4,.37,2.98-.89,3.01-1.94.06-1.21.75-2.29,1.29-3.08,0l-3.08,1.54c-.47.68-.99.65-1.54,0-2.78.4-3.5-.73-1.59-2.8,2.97-2.1,6.04-1.54,9.3-2.91-.45-2.99,2.36-2.6,2.97.11Z"/>
    <path class="cls-40" d="M37.29,12.59c-1.73,3.9-2.89,3.97-5.07.3-.91.12-2.14-.46-2.97-.11-1.53-2.56-3.51-5.06-3.08-8.16,1.19.48,2.67-.95,4.55.12.3.94-1.44,1.49-1.96,1.72-1.18.53-.53,1.03-.18,1.44,3.28,3.89,6.59-2.37,8.71,4.69Z"/>
    <path class="cls-42" d="M85.14,47.35c1.95,4.23-2.3,10.04-6.56,6.47-.46-.55-.81-1.18-1.4-1.6l2.65-4.79,3.62-1.52,1.69,1.44Z"/>
    <path class="cls-85" d="M83.23,57.05c1.53-1.77,2.42-2.52,3.08,0,3.89.8,3.59,2.3-.3,2.98-1.95.68-3.5,2.38-4.16,4.36-2.82-2.02-1.62-5.97-2.11-9.04,3.27-2.29,4.43-1.73,3.48,1.69Z"/>
    <path class="cls-93" d="M63.18,32.78c-1.24,1.21-2.75,2.07-4.31,2.81-.13,4.51-3.11,5.95-6.65,3.11-1.39-.13-1.42-.61-.19-1.42,2.94-3.26,8.25-3.66,9.44-7.99.7,1.1,1.65,2.07,1.72,3.48Z"/>
    <path class="cls-27" d="M94.02,53.97c1.94,2.99-3.92,3.02-6.17,1.54-2.96,1.74-2.92-.53-1.54-3.08-1.96.05-.95-2.65.75-3.12,2.86.75,4.4,3.39,6.96,4.66Z"/>
    <path class="cls-74" d="M32.34,61.68c1.69,1.08-1.29,3.52-3.08,3.08-.87-.87-1.04-2.24-1.81-3,.88-.41,3.18-1.2,3.12-2.37-.07-1.47-1.82-2.72-2.72-5,4.29-1.52,4.09,4.3,4.49,7.28Z"/>
    <path class="cls-67" d="M21.54,18.5c1.67,3-.92,4.28-3.08,1.54-.3,1.34-1.33,1.85-3.08,1.54h-1.54c-.28-4.2,3.57-4.08,6.12-5.89.75.79,1.25,1.77,1.59,2.8Z"/>
    <path class="cls-77" d="M87.06,49.31l-.75,3.12c.72,2.2-.94,4.07-3.08,4.63l-3.48-1.69c-.5-.2-.81-1.12-1.16-1.54,2,.41,4.14-.2,5.13-1.67,1.07-1.6,1.21-3.25,1.43-4.8.6.51,1.19,1.77,1.92,1.96Z"/>
    <path class="cls-48" d="M90.94,57.05c.6,1.31,2.27,2.21,1.23,4.73-2.07-1.58-4.11-1.71-6.15-1.75l.3-2.98c1.38-1.09,3.26-1.13,4.63,0Z"/>
    <path class="cls-24" d="M90.94,57.05c-1.54.02-3.09.07-4.63,0-1.74-1.85-.84-2.72,1.54-1.54,2.1-.09,5.2.8,6.17-1.54,1.17.58,2.53.98,3.16,2.87-2.75.44-4.42.19-6.25.22Z"/>
    <path class="cls-58" d="M94.99,63.79c.76.49-1.05,2.26-1.93,2.47s-3.91.62-3.82-1.53,3.18-1.96,5.75-.94Z"/>
    <path class="cls-30" d="M50.84,23.18l-3.08,1.49c-4.07-.25-3.2-1.95-1.54-4.63l1.66-3.2c1.66,1.7,2.01,4.24,2.97,6.34Z"/>
    <path class="cls-32" d="M35.19,62.51c-1.47,1.27-3.1,2.35-4.39,3.8l-1.54-1.54,3.08-3.08c.88-.2,3.08-.56,2.85.83Z"/>
    <path class="cls-11" d="M52.02,37.28l.19,1.42c3.85.09,4.18,1.2,2.8,4.55-.42,4.26-3.45,8.38-1.07,12.28,3,3.09,2.73,5.53-1.6,6.58l-6.06,2.87c-1.96-4.33-1.12-5.9,2.53-4.71.23-2.47-.15-2.99-1.16-1.54-2.44,2.19-3.75-.45-4.17-3-2.55,2.61-7.89-1.14-7.69-4.6l-.7-1.65c7.44-1.65,11.78-5.42,13.04-11.31,1.03-.49,3.05-.17,3.88-.88Z"/>
    <path class="cls-81" d="M61.28,39.96c2.75,3.24-.9,4.31-4.27,3.2l-2,.09c-1.95-.65-2.54-2.65-2.8-4.55,2.14-1.2,4.33-2.32,6.65-3.11l2.42,4.37Z"/>
    <path class="cls-38" d="M69.06,38.24c.46,1.59.42,3.28.28,4.93-1.32,4.13-5.7,2.88-9.25,1.72-.94-.64-2.39-.64-3.08-1.74,1.81-.43,2.98-1.93,4.27-3.2,2.77,1.89,5.44.18,7.78-1.72Z"/>
    <path class="cls-20" d="M66.51,47.8c-2.25-.75-4.45-1.57-6.41-2.91,3.16-.05,6.5,0,9.25-1.72,1.02.39,1.79,1.11,1.3,2.46-1.99.73-3.23,1.25-4.14,2.17Z"/>
    <path class="cls-63" d="M35.15,34.93c1.11-2.57,3.26-2.81,6.44-.74.41-1.36.93-1.34,1.54,0,1.76.59,3.05,2.08,3.3,3.91,1.82,2.07,1.2,5.53-1.89,4.57-3.33,1.54-14.15,6.46-16.33,5.45-6.42-2.96-5.62-18.12,2.48-14.87.36-2.32,1.85-1.76,4.45,1.68Z"/>
    <path class="cls-68" d="M46.22,20.04c2.1.06,1.64,3.3,1.54,4.63-2.06,1.57,1.79,3.39-5.21,5.21-.37,1.32-.76,1.21-1.15-.19-2.17-2.66-3.64-5.36-4.43-8.1-4.42-3.39-.2-7.53,3.2-3.11,2,1,3.79,1.51,6.05,1.57Z"/>
    <path class="cls-51" d="M35.8,51.12c-.99,2.15-3.28.23-3.46-1.78-2.11-2.92-.15-4.16,5.89-3.71l3.52-1.58c.44-2.21,1.37-2.67,2.8-1.38.83-1.45,2.04-2.66,1.89-4.57.53-.14,1.22.3,1.7.07.11,2.05,1.48,6.04-.85,7.21l-11.49,5.75Z"/>
    <path class="cls-43" d="M41.39,29.68l1.15.19c-.14,1.46.26,2.88.58,4.3-.46-.16-1.06.11-1.54,0-4.46.68-8.94-4.2-6.17-7.97,3.08-2.92,5.53-.3,5.97,3.47Z"/>
    <path class="cls-94" d="M30.69,33.24c-3.95,1.63-5.24,5.87-3.78,10.47.32,1,.57,2.93,1.56,3.8.58.5,1.7-.68,2.5-1.62.52-.61-1.68-1.27-1.3-3.95,3.34,2.78,7.86,4.8,11.93.77-1.43-2.56-3.75-3.93-6.5-5.1,2.59-2.08,5.49-.98,7.26-.19.44,1.76.5,4.22,2.17,5.22-2.64,4.62-8.83,3.01-12.21,6.68,2.08,2.68,1.19,3.6-1.48,1.37-3.51-2.73-10.57-5.78-9.5-10.75l1.54-7.21c-.96-3.11.7-4.17,3.4-2.33,2.19-3.65,6.35-.51,4.4,2.82Z"/>
    <path class="cls-55" d="M47.65,58.72c1.68-1.12,2.07-.6,1.16,1.54-.98,1.49-1.84,3.07-2.53,4.71l-1.34,1.3c-1.52.35-3.41-.43-4.89.02-1.35-.44-1.33-.95,0-1.54,3.18-1.79,2.66-2.31-1.54-1.54-1.56,1.7-2.09,1.11-1.59-1.78.54-1.38.63-2.87.36-4.32l1.11-1.65c2.28,1.58,3.98,1.66,5.1.25,1.89.37,2.5,1.87,4.17,3Z"/>
    <path class="cls-63" d="M35.8,51.12c2.62,1.35,4.69,4.02,7.69,4.6.21.61.78,1.13.5,2.41-1.91,0-5.34.33-6.71-1.02-2.14-2.09-4.01-4.54-6.41-6.4,1.05.5.97-.81,1.48-1.37l3.46,1.78Z"/>
    <path class="cls-2" d="M38.5,63.22c1.03-.2,1.5.37,1.54,1.54v1.54c-1.8.55-3.25,2.52-6.36,1.11,1.58-1.58,2.57-3.03,2.57-4.92.18-.37.5-.68.65-1.06l1.59,1.78Z"/>
    <path class="cls-65" d="M13.98,32.46c.19.81.34,1.61,1,3.46-1.97.55-3.99.78-5.97,1.11,1.57-1.74,3.31-3.65,3.02-6.11l1.8-.08c1.39.34,1.42.88.15,1.63Z"/>
    <path class="cls-88" d="M21.54,27.75c2.17.97,2.85,3.42-.17,3.45-2.06,1.72-4.86,1.39-7.39,1.26l-.15-1.63c2.09-.1,3.93-1.07,4.63-3.08-.2-2.49,2.46-2.28,3.08,0Z"/>
    <path class="cls-8" d="M26.3,30.42c-1.09.83-2.22,1.62-3.4,2.33l-1.52-1.55.17-3.45c.44-1.35.95-1.33,1.54,0,2.82.41,3.89,1.3,3.21,2.67Z"/>
    <path class="cls-18" d="M37.29,12.59c.63,2.09,1.96,3.91,2.87,5.88-1.52-.76-3.11,1.9-3.2,3.11-4.02,1.36-6.4,1.49-4.53-3.24-1.44.6-1.83.08-1.23-1.45l1.03-4c1.67-.21,3.38-.32,5.07-.3Z"/>
    <path class="cls-91" d="M18.46,20.04c2.08.12,3.37,1.52,4.63,3.08.76.47.74.99,0,1.54,2.53-1.71,4.58.57,3.08,3.08.15,1.5-.88,1.5-3.08,0h-4.63c-.92-2.12-1.25-4.62-3.08-6.17.32-.69.83-1.63,1.5-2.21.41-.35,1.15-.01,1.58.66Z"/>
    <g>
      <path class="cls-73" d="M66.26,70.93c1.62-3.88,2.79-3.88,3.51,0,2.82-2.76,3.8.35,4.59,3.25,1.18-2.38,3.77-.85,5.68.48.36-.24,1.09.03,1.53-.01,4.67.16,6.25,1.3,4.74,3.4,7.58,1.01,15.89,3.58,24.94,7.71-.97,5.11,9.83,5.46,13.79,4.13,0-1.33.5-1.3,1.4-.13.98-2.37,4.75-2.34,6.14-.33,1.72,3.85-.34,5.14-3.08,1.91l-3.17,1.85c-.87,7.7-7.87,13.67-10.81,2.77-8.2-2.42-16.4-5.11-24.58-8.06-3.77.23-8.89-1.3-12.34-3.08-4.2-.95-8.23-2.06-12.09-3.33-1.36-.05-1.31-.53-.07-1.37l-5-1.19c-2.03-5.53-6.09-6.05-10.96-3.47-6.99-.04-6.68-6.86.36-7.67-1.37-2.85,1.57-4.2,3.34-1.63,5.88-1.16,9.91.43,12.09,4.78Z"/>
      <path class="cls-78" d="M50.83,67.78c-.66,1.06-1.26,2.29-2.35,3.13-1.26.97-.02,1.53,1.61,3.11,1.24-1.14,1.25-3,3.71-6.07,2.51,3.65,6.27,5.73,10.38,7.76l-2.23,2.74c1.94.41,3.46.48,4.48,1.66-.32,1.51-.96,1.87-2.23,1.61-9.06-4.64-16.42-4.14-22.08,1.52-.07,1.84-1.03,3.34-2.03,4.81,1.87,2.28-1.26,3.92-2.97,2-4.28,1.71-5.36-5.93-3.3-8.57-3.13-2.53-2.47-3.16,1.5-2.75-.26-2.76-1.41-5.18-3.45-7.25l.44-2.29c.67-3.22,1.68-3.82,2.33-.62,3.23-.6,5.05-.2,5.47,1.21q2.95,4.89,0,0c-1.08-2.89,2.71-3.33,4.82-1.89,1.79-2.55,6.3-4.03,5.9-.11Z"/>
      <path class="cls-25" d="M35.32,78.72c-.45.48-.81,2.25-1.5,2.75.56,1.04,1.31,2.48.74,3.27-2.66,3.67-15.51,11.48-20.76,11.21.57,6.55-11.08,4.74-9.01-1.91-2.08-1.12-.76-3.1,1.48-2.47,7.18-2.81,12.32-8.74,17.21-14.47.03-2.34,1.68-4.33,4.08-4.3,2.68-3.73,10.64,2.2,7.75,5.92Z"/>
      <path class="cls-83" d="M23.49,77.1c6,4.5-18.2,20.88-17.21,14.47-1.66-1.51-.55-3.52,3.33-6.03l1.14-2.27c8.7-5.5,5.52-6.04,12.75-6.17Z"/>
      <path class="cls-82" d="M13.8,95.95c3.6-1.7,5.15-1.3,4.65,1.2l4.31.64c9.12-4.45,12.13-3.72,9.02,2.18-.84.74-.86,2.47-2.13,2.65-1.12.16-1.98-.34-3.16-1.04-9.76-5.69-20.3,8.45-23.34-2.9-1.6-1.96-1.3-5.98,1.65-4.66,2.22,2.72,5.97,3.91,9.01,1.91Z"/>
      <path class="cls-50" d="M129.49,91.34c1.66,1.71,1.57,3.6.23,5.56,3,.33,3.03.76.06,1.61,1.74,2.89,1.34,3.02-1.83,3.27-.22,4.54-5.37,3.05-8.79,1.99-2.65-.82-2.86-4.37-4.81-6.42-1.5-1.57-.81-2.35,1.16-1.38,1.01,1.61,2.53,3.27,4.38,4.33,2.39-5.09,4.83-9.38,9.59-8.94Z"/>
      <path class="cls-26" d="M66.43,80.11c.05.46.11.91.07,1.37,3-.05,2.91,1.14-.14,1.79-13.32-.86-14.71-5.79-24.24-.04-.64-.73-1.6-1.41-1.79-2.47,5.58-3.48,11.28-4.24,17.65-4.68,1.86,3.72,5.15,4.83,8.45,4.02Z"/>
      <path class="cls-89" d="M115.51,95.96c-.02.75-.06,1.8-1.16,1.38-2.52-2.66-7.22-2.83-11.05-3.41-4.79-.73-8.19-4.39-12.37-4.49-1.35-.44-1.33-.95,0-1.54l21.31,5.05c1.97.47,2.53,1.85,3.27,3.02Z"/>
      <path class="cls-34" d="M35.43,92.3c2.51.1,1.08,3.11-.15,4.7-.21,1.79-2.44,2.04-3.5,2.97-.93-.95-1.4-2.52-2.17-3.62-4,1.63-8.37,4.22-11.15.8.62-2.27,14.05-9.61,15.7-8.44,1.04.74,1.21,2.26,1.27,3.6Z"/>
      <path class="cls-70" d="M138.62,103.32c-1.27,1.81-2.43,3.84-3.47,6.1,1.37.34,1.38.84.08,1.48-4.15.14-5.79-3.93-5.95-7.67,1.27-1.3,2.95-1.71,5.03-1.23-2.03-3.44-1.63-4.16,2.36-4.39.66.1,1.4-.48,2.07-.47,2.01,2.92,1.97,4.98-.12,6.17Z"/>
      <path class="cls-9" d="M37.08,96.87c-2.02-1.21-.74-5.32,1.87-3.97,4.17,1.03,8.65,3.84,8.21,9.07-5.03-.95-7.43-3.24-10.08-5.1Z"/>
      <path class="cls-36" d="M38.95,92.91c-.7,1.22-2.4,2.05-1.87,3.97l-1.79.13c.18-1.51-.4-3.22.15-4.7-3.05-2.81-2.12-3.66,1.69-2.26,1.39-.06,2.25-.94,2.97-2,4.32-1.21,9.25,3.49,8.32,7.79-3.94-2.79-7.08-7.08-9.47-2.93Z"/>
      <path class="cls-5" d="M32.32,69.18c1.89,1.82,7.96,4.21,6.02,6.29l-3.02,3.25c-2.34-2.3-4.69-4.63-7.75-5.92l3.05-4.94c1.41-.64,1.97-.2,1.7,1.32Z"/>
      <path class="cls-56" d="M123.45,81.56c6.38,2.8-.2,5.7-3.6,2.73l-7.06-4.35c-4.02-.56-5.65-2.01-4.89-4.38-1.35-.44-1.33-.95,0-1.54,6.1,0,11.21,6.12,15.55,7.54Z"/>
      <path class="cls-53" d="M135.65,89.38c1.76,2.47,1.48,6.25-1.7,6.8,1.55,4.15-2.52,4.03-4.23.72-.38-.73-3.04-1.14-3.03-2.06.01-1.19,2.6-2.31,2.8-3.5,1.34.12,2.35-1,3.08-1.91-.9-1.87-.13-2.49,1.62-1.38.41.45.94.99,1.45,1.32Z"/>
      <path class="cls-28" d="M135.24,110.9l-.08-1.48c.04-2.14,1.85-4.68,3.47-6.1.25-1.63,1.29-2.68,3.12-3.13,1.93,1.21,2.15,3.06,1.57,5.26s-5.38,7.23-6.58,6.89c-.7-.2-1.16-1.01-1.5-1.44Z"/>
      <path class="cls-62" d="M132.21,86.06c.41,3.19-5.26,3.18-5.81.29-2.95,1.26-10.36,1.55-7.83-2.1.31-1.35.74-1.3,1.27.04,1,.42,2.62.73,3.27-.3.47-.73.3-1.78.33-2.43,3.18,1.04,7.06,1.28,8.76,4.5Z"/>
      <path class="cls-47" d="M6.28,91.57c-.18.75-1.16,1.79-1.48,2.47-1.69.97-2.14,2.81-1.65,4.66-5.6-3.41,2.71-12.34,7.6-15.43.31.88,1.07,1.59,1.55,2.53-3.76,1.21-5.39,3.09-6.02,5.76Z"/>
      <path class="cls-29" d="M36.26,62.5l3.79,3.81c1.45-1.24,4.63-2.27,4.89-.02,3.22-.57,3.33.68,0,1.61-1.88.07-3.68.32-4.82,1.89l-7.8-.59c-.51-.49-1.13-.88-1.7-1.32.25-.41,0-1.1.17-1.56-.48-2.05,2.22-4.38,4.39-3.8.36-.07.71-.07,1.07-.01Z"/>
      <path class="cls-72" d="M90.94,87.89v1.54c-4.93-.12-9.89-1.48-13.88-4.63h1.54c4.27.05,8.77.62,12.34,3.08Z"/>
      <path class="cls-23" d="M75.52,69.28l.1,2.12c2.67,2.04,2.05,3.28-1.25,2.78-2.64,1.96-2.44-2.64-4.59-3.25-2.29-2.18-.24-5.48,2.66-3.08.93.62,2.09.95,3.08,1.43Z"/>
      <path class="cls-66" d="M87.85,74.02c1.69.36,2.61,1.08,2.76,2.17,2.63,3.9-2.1,4.91-4.3,1.86-.74-2.02-3.41-2.01-4.74-3.4l6.28-.63Z"/>
      <path class="cls-15" d="M78.6,84.81c-.51,0-1.03-.04-1.54,0-3.68.32-7.07-1.3-10.69-1.53l.14-1.79c4.19.22,9.02.2,12.09,3.33Z"/>
      <path class="cls-10" d="M80.05,74.66c-1.66,1.12-4.1-.64-5.68-.48.65-.8,1.3-1.74,1.25-2.78,2.16-.18,3.82,1.24,4.43,3.26Z"/>
      <path class="cls-84" d="M107.9,74.02v1.54c-.84,4.29-9.83,2.77-12.34,0-.44,1.35-.95,1.33-1.54,0-1.35-.44-1.33-.95,0-1.54h13.88Z"/>
      <path class="cls-14" d="M134.31,102c-.78.81-1.05,2.45-2.47,2.38-1.02-.05-1.83-.68-2.56-1.15-.03-.65-.86-1.17-1.34-1.46-.29-1.32-.09-2.35,1.83-3.27,2.59-1.66,4.76.64,4.53,3.5Z"/>
      <path class="cls-79" d="M132.21,86.06c.41.78,1.39,1.34,1.98,2,.1.99-1.24.9-1.62,1.38-2.05-.04-4.1.08-6.14.33-2.76.14-2.87-1.08-.03-1.87-1.35-.44-1.33-.95,0-1.54,1.96.41,3.82,1.33,5.81-.29Z"/>
      <path class="cls-37" d="M136.67,97.62c-1.5,3.36-3.38,2.21-2.72-1.43.68-2.24,1.37-4.48,1.7-6.8,1.53.95,2.83,2.43,2.7,3.89-.16,1.9-1.31,2.99-1.68,4.35Z"/>
      <path class="cls-33" d="M141.75,100.19c.24,1.05.32,2.55-.76,3-.82.35-1.69.1-2.36.13-.11-2.06-.09-4.12.12-6.17,1.27.66,1.84,2.31,3,3.04Z"/>
      <path class="cls-49" d="M94.02,74.02v1.54c.81,4.54-1.78,4.96-3.41.63-1.24-.21-2.33-.96-2.76-2.17h6.17Z"/>
      <path class="cls-79" d="M94.02,75.56h1.54c6.23,1.81,12.54,3.57,18.93,5.29l-.51,2.16c1.1,1.98,2.67,3.61,4.71,4.89,2.54.31,4.65.98,6.35,2-1.15,2.45-3.08,4.35-5.92,5.61-2.14-4.58-6.75-4.59-9.8-7.33-5.77-5.19-13.69-5.99-21.29-6.69-1.93-.18-1.4-2.58-1.72-3.43,1.57-.29,3.25-.57,4.3-1.86,1.19.42,2.56.38,3.41-.63Z"/>
      <path class="cls-39" d="M67.81,64.5c3,2.24,1.94,5.81-1.54,6.43-.65,1.19-1.59,1.82-3.07,1.8-1.53-.02-.58-2.35-1.69-3.39-2.03-1.89-6.57-.4-7.33-3.19-.52-4.14,2.72-5.69,5.73-2.89,2.41-2.01,4.98.99,7.9,1.23Z"/>
      <path class="cls-19" d="M54.17,66.16c-1.16.35-2.14,1.33-3.34,1.63-1.91-1.17-3.93.03-5.9.11.63-.52.58-1.06,0-1.61-1.69-1.39-.82-2.04,1.34-1.3,2.49-3.62,4.51-4.58,6.06-2.87,4.3-1.73,5.45,1.13,1.84,4.05Z"/>
      <path class="cls-7" d="M72.43,67.85c-1.29.62-2.14,1.78-2.66,3.08h-3.51c1.27-1.9,1.57-4.19,1.54-6.43,1.84.15,3.24,2.42,4.63,3.35Z"/>
      <path class="cls-69" d="M126.41,87.89l.03,1.87c-.46.05-.94.15-1.4.13-2.26-.12-4.62-.44-6.35-2,.31-1.95,5.83-.95,7.71,0Z"/>
      <path class="cls-61" d="M59.9,63.27c-1.68,1.4-3.66,2.26-5.73,2.89-.37-1.37-.97-3.01-1.84-4.05.14-2.18,1.13-4.44,1.6-6.58,3.12,1.52,5.45,4.27,5.97,7.74Z"/>
      <path class="cls-6" d="M37.12,90.04c-.25.9-1.39,1.44-1.69,2.26-5.91-2.98-6.39,5.34-16.98,4.84-1.16-.78-3.36-.59-4.65-1.2l20.02-14.48c-.03,2.47,3.67,2.18,4.29,3.77.24,1.03-2.33,2.58-2.26,3.44.05.62.53,1.18,1.27,1.36Z"/>
      <path class="cls-80" d="M40.12,69.77l3.65,2.43c1.19.93.36,2.72-1.3,2.88-2.07.19-2.67-3.53-2.35-5.31Z"/>
      <path class="cls-4" d="M136.67,97.62c-.47,1.69-1.14,3.13-2.36,4.39-2.03-.33-3.6-1.7-4.53-3.5.55-.26.14-1.22-.06-1.61,1.46.13,3.03.24,4.23-.72.76.65,1.69,1.29,2.72,1.43Z"/>
      <path class="cls-46" d="M138.62,103.32c.97,2.75-.69,5.4-3.47,6.1-1.42-.81-1.35-2.37-.9-3.38.87-1.99,2.64-2.64,4.37-2.72Z"/>
      <path class="cls-54" d="M107.9,75.56c1.55,1.76,13.33,5.15,11.95,8.73l-1.27-.04c-.67,3.21-4.92,2.34-4.59-1.25-1.7-4.81-17.8.6-18.42-7.45h12.34Z"/>
      <path class="cls-45" d="M118.57,84.25c1.62,3.11,5.13,1.53,7.83,2.1v1.54h-7.71c-2.26.3-4.54.85-7.24-.27.3-2.12,1.18-3.6,2.53-4.62l4.59,1.25Z"/>
    </g>
    <path class="cls-12" d="M32.43,18.35c3.67,2.75-1.88,6.79-4.7,4.93-1.59.42-2.11-.15-1.56-1.7-1.01-.45-.99-.97,0-1.54.06-.97.58-1.48,1.54-1.54-.31-1.1.27-1.57,1.54-1.54l1.94-.06c.32.54.72,1.07,1.23,1.45Z"/>
    <path class="cls-44" d="M26.17,16.96c1.35.44,1.33.95,0,1.54-.39,1.28-2.27,1.12-3.08,0,0-1.61,1.84-1.54,3.08-1.54Z"/>
    <path class="cls-41" d="M29.25,16.96c-.49.54-1,1.06-1.54,1.54h-1.54v-1.54h3.08Z"/>
    <path class="cls-87" d="M23.08,20.04c-1.65.62-2.16.11-1.54-1.54.41-.2,1.08,0,1.54,0,1.35.44,1.33.95,0,1.54Z"/>
    <path class="cls-86" d="M87.85,55.51c-.76.03-1.47.84-1.54,1.54-.94-.04-2.25.4-3.08,0,.62-1.78,1.65-3.39,3.08-4.63l1.54,3.08Z"/>
    <path class="cls-96" d="M23.08,20.04c.45-1.01.97-.99,1.54,0,1.01.45.99.97,0,1.54,1.35.44,1.33.95,0,1.54-.48.65-.99.63-1.54,0-.92.56-2.86,2.18-3.86,1.48-1.61-1.11-.51-3.4-.77-4.57l3.08-1.54c.32.68.84,1.25,1.54,1.54Z"/>
    <path class="cls-76" d="M48.81,60.27c-1.05.59-1.01-.86-1.16-1.54.08-.88.48-1.64.45-2.23-.05-1.17,1.59-1.75,2.42-.58,1.29,1.83-1,3.25-1.72,4.35Z"/>
    <path class="cls-64" d="M35.78,22.84c3.82,1.38,3.55,2.59-.36,3.37.98,3.43,3.55,5.7,6.17,7.97-1.95.94-4.33,1.54-6.44.74-4.77-3.1-6.26-5.87-4.46-8.34-2.81-2.73,3.23-7.48,5.09-3.75Z"/>
    <path class="cls-57" d="M35.15,34.93c-1.48-.55-2.84-1.46-4.45-1.68-.69-2-2.57-2.42-4.4-2.82-1.31-.29-2.26-1.89-3.21-2.67h3.08c-.13-3.89.04-3.92,2.82-1.18.5-1.34,1.07-1.32,1.7.02l4.46,8.34Z"/>
    <path class="cls-1" d="M41.39,29.68c-1.88-1.34-3.87-2.52-5.97-3.47-.29-1,.53-2.32.36-3.37-.53-1.2-.12-1.61,1.18-1.26,1.39.74,3.06.94,3.82,1.9,1.32,1.68,1.01,4.55.61,6.2Z"/>
    <path class="cls-92" d="M40.05,64.76c-.54-.49-1.05-1-1.54-1.54,1.91.46,3.17-3.1,4.55-3.15,2.61-.1,1.87,3.1.11,3.97-.8.4-1.93.85-3.12.72Z"/>
    <path class="cls-95" d="M36.96,21.58c-.04.5-.86.93-1.18,1.26-2.35.09-4.41,1.46-5.09,3.75l-1.7-.02c-2.52.9-3.95-1.94-1.26-3.29,1.85-1.5,4.84-2.15,4.7-4.93,1.49,1.08,2.9,2.37,4.53,3.24Z"/>
    <path class="cls-31" d="M27.73,23.28l1.26,3.29c-.84.54-1.81,1.18-2.82,1.18-1.09-.96-2.15-1.97-3.08-3.08l1.54-1.54v-1.54c.45-1.01.97-.99,1.54,0,.43.64.96,1.21,1.56,1.7Z"/>
    <path class="cls-22" d="M23.08,24.67v-1.54h1.54c-.26.72-.81,1.3-1.54,1.54Z"/>
    <path class="cls-71" d="M26.17,18.5h1.54c-.41.61-.93,1.14-1.54,1.54-.45,1.01-.97.99-1.54,0h-1.54v-1.54h3.08Z"/>
    <rect class="cls-52" x="24.63" y="20.04" width="1.54" height="1.54"/>
  </g>
</svg>