<?xml version="1.0" encoding="UTF-8"?>
<svg id="Player_Ideal" xmlns="http://www.w3.org/2000/svg" viewBox="0 0 82.5 149.85">
  <defs>
    <style>
      .cls-1 {
        fill: #0d1625;
      }

      .cls-2 {
        fill: #cb6848;
      }

      .cls-3 {
        fill: #172644;
      }

      .cls-4 {
        fill: #d9714d;
      }

      .cls-5 {
        fill: #1d2f56;
      }

      .cls-6 {
        fill: #74636b;
      }

      .cls-7 {
        fill: #edf0ed;
      }

      .cls-8 {
        fill: #885e42;
      }

      .cls-9 {
        fill: #6e724b;
      }

      .cls-10 {
        fill: #b0c5c8;
      }

      .cls-11 {
        fill: #272a33;
      }

      .cls-12 {
        fill: #2d3346;
      }

      .cls-13 {
        fill: #d1d3be;
      }

      .cls-14 {
        fill: #a35024;
      }

      .cls-15 {
        fill: #f0ce9f;
      }

      .cls-16 {
        fill: #c2c09f;
      }

      .cls-17 {
        fill: #1c2953;
      }

      .cls-18 {
        fill: #e5dfd0;
      }

      .cls-19 {
        fill: #433c3f;
      }

      .cls-20 {
        fill: #444962;
      }

      .cls-21 {
        fill: #c08f66;
      }

      .cls-22 {
        fill: #3f4d53;
      }

      .cls-23 {
        fill: #64433a;
      }

      .cls-24 {
        fill: #273556;
      }

      .cls-25 {
        fill: #748388;
      }

      .cls-26 {
        fill: #0a1a2c;
      }

      .cls-27 {
        fill: #c0be9f;
      }

      .cls-28 {
        fill: #f8cc9b;
      }

      .cls-29 {
        fill: #0e1827;
      }

      .cls-30 {
        fill: #2b363c;
      }

      .cls-31 {
        fill: #192745;
      }

      .cls-32 {
        fill: #4d4d4d;
      }

      .cls-33 {
        fill: #161d26;
      }

      .cls-34 {
        fill: #b8b59d;
      }

      .cls-35 {
        fill: #091823;
      }

      .cls-36 {
        fill: #3f2e29;
      }

      .cls-37 {
        fill: #fff;
      }

      .cls-38 {
        fill: #070e15;
      }

      .cls-39 {
        fill: #57595c;
      }

      .cls-40 {
        fill: #040d15;
      }

      .cls-41 {
        fill: #15213b;
      }

      .cls-42 {
        fill: #8e8f67;
      }

      .cls-43 {
        fill: #040e17;
      }

      .cls-44 {
        fill: #27314f;
      }

      .cls-45 {
        fill: #f8f8f6;
      }

      .cls-46 {
        fill: #7d4c4a;
      }

      .cls-47 {
        fill: #18274b;
      }

      .cls-48 {
        fill: #7c544d;
      }

      .cls-49 {
        fill: #f8d6a6;
      }

      .cls-50 {
        fill: #121720;
      }

      .cls-51 {
        fill: #6c757d;
      }

      .cls-52 {
        fill: #543e39;
      }

      .cls-53 {
        fill: #21100d;
      }

      .cls-54 {
        fill: #261911;
      }

      .cls-55 {
        fill: #07101c;
      }

      .cls-56 {
        fill: #424e54;
      }

      .cls-57 {
        fill: #090d1a;
      }

      .cls-58 {
        fill: #102131;
      }

      .cls-59 {
        fill: #45555b;
      }

      .cls-60 {
        fill: #dcddd2;
      }

      .cls-61 {
        fill: #141920;
      }

      .cls-62 {
        fill: #050507;
      }

      .cls-63 {
        fill: #47495e;
      }

      .cls-64 {
        fill: #d38269;
      }

      .cls-65 {
        fill: #efad81;
      }

      .cls-66 {
        fill: #404545;
      }

      .cls-67 {
        fill: #9e6340;
      }

      .cls-68 {
        fill: #eedca7;
      }

      .cls-69 {
        fill: #3b3f41;
      }

      .cls-70 {
        fill: #333;
      }

      .cls-71 {
        fill: #c28153;
      }

      .cls-72 {
        fill: #1c294e;
      }

      .cls-73 {
        fill: #d6d7c6;
      }

      .cls-74 {
        fill: #6b7c80;
      }

      .cls-75 {
        fill: #1c1511;
      }

      .cls-76 {
        fill: #e7e6e0;
      }

      .cls-77 {
        fill: #232a32;
      }

      .cls-78 {
        fill: #f89b71;
      }

      .cls-79 {
        fill: #a08c71;
      }

      .cls-80 {
        fill: #060b15;
      }

      .cls-81 {
        fill: #bc5c33;
      }

      .cls-82 {
        fill: #3d4863;
      }

      .cls-83 {
        fill: #0e1622;
      }

      .cls-84 {
        fill: #f8cc9f;
      }

      .cls-85 {
        fill: #433b3c;
      }

      .cls-86 {
        fill: #14263d;
      }

      .cls-87 {
        fill: #835451;
      }

      .cls-88 {
        fill: #c5c4af;
      }

      .cls-89 {
        fill: #081625;
      }

      .cls-90 {
        fill: #332e35;
      }

      .cls-91 {
        fill: #0a1c2f;
      }

      .cls-92 {
        fill: #996863;
      }

      .cls-93 {
        fill: #07111a;
      }

      .cls-94 {
        fill: #f39976;
      }

      .cls-95 {
        fill: #eaecec;
      }

      .cls-96 {
        fill: #a09d78;
      }

      .cls-97 {
        fill: #fdd19d;
      }

      .cls-98 {
        fill: #b88261;
      }

      .cls-99 {
        fill: #1a2127;
      }

      .cls-100 {
        fill: #3f464b;
      }

      .cls-101 {
        fill: #afc1c8;
      }

      .cls-102 {
        fill: #748389;
      }

      .cls-103 {
        fill: #17274a;
      }

      .cls-104 {
        fill: #eaeedc;
      }

      .cls-105 {
        fill: #ac5528;
      }

      .cls-106 {
        fill: #111a20;
      }

      .cls-107 {
        fill: #304162;
      }

      .cls-108 {
        fill: #a5a888;
      }

      .cls-109 {
        fill: #e9af80;
      }

      .cls-110 {
        fill: #1f2930;
      }

      .cls-111 {
        fill: #ca8a60;
      }

      .cls-112 {
        fill: #754c24;
      }

      .cls-113 {
        fill: #775f65;
      }
    </style>
  </defs>
  <g id="Player_Ideal_4">
    <g id="back-arm-assembly">
      <g id="back-arm">
        <path class="cls-78" d="M55.69,35.63c0-.96.27-1.77.04-2.3s-3.48-2.58-5.67-2.46-4.72,1.68-5.18,2.65-1.12,2.14-1.38,4.25-.93,6.94-.16,8.83,2.5,5.84,3.87,7.18,1.74,3,3.27,4.1,4.51,4.46,5.43,4.93,2.16,1.25,3.54,1.23,2.95-.56,3.42-1.24,3.87-3.24,4.21-4.31,2.13-3.51,2.7-4.6.94-1.87,1.53-2.21.18-2.13-.04-2.44-1.22-1.26-1.84-1.77-2.62.03-3.23.76-2.6,2.38-3.25,2.73-2.42,1.52-3.86,2.52c-.95-.28-.3-.53-.25-1.4s.15-5.18-.19-7.71-1.33-3.32-1.85-4.03-1.69-2.17-1.51-2.62.38-2.08.38-2.08Z"/>
        <path class="cls-2" d="M69.26,52.45c-2.01,6.1-8.14,12.33-14.66,7.75-.72-.85-2.83-.53-3.29-2.29-.25-.93.57-2.06,1.6-2.8.24-4.42,3.82-3.77,4.37.53,1.24-.14,4.59-4.06,4.59-4.06l3.55-2.91s2.49,2.68,3.84,3.78Z"/>
        <path class="cls-105" d="M70.68,53.76c-2.61,2.56-4.28,6.87-7.8,9.03-2.82,1.73-6.74-.78-8.28-2.58,6.28,2.24,10.88-3.02,14.66-7.75.5.4,2.34.21,1.42,1.31Z"/>
        <path class="cls-15" d="M56.77,44.74c-.61.82-1.42,1.47-2.18,2.14-2.35-.81-4.1-4.2-3.05-6.55.37-.97.61-1.97.71-3,1.46-.45,1.53-2.39,3.48-4-.18,3.91.21,7.64,1.04,11.41Z"/>
        <path class="cls-4" d="M50.04,39.97c2.33,3.34,3.13,6.32,2.39,8.95-1.08-3.02-.89,6.86-3.78,4.56-.39-.31-.59-.77-1.15-1.44-.58-1.7-.21-3.73,1.13-6.07-2.06,1.4-2.68.07-2.64-2.21-3.87-1.42-3.37-2.76.71-3-1.1-4.13.97-4.01,3.36-.79Z"/>
        <path class="cls-78" d="M54.59,46.88c-.64.56-.49,2.02-1.18,2.51-.83.69-.99.59-.99-.46-.07-3.23-3.2-5.6-2.39-8.95.47.2,1.01.21,1.5.36.49,2.43,2.29,4.24,3.05,6.55Z"/>
        <path class="cls-81" d="M62.66,52.2c-1.14,2-3.83,7.46-5.39,3.46,1.31-1.82,2.94-3.87,5.39-3.46Z"/>
      </g>
      <g id="back-glove">
        <path class="cls-70" d="M65.75,48.31c-.04-.46.16-2.72.51-3.38s.2-2.32,1.01-3.03,2.39-1.58,3.3-2.39.63-1.12,1.03-1.23,1.15-.77,1.69-.89.81-.19,1.42,0c.88.27,1.9.64,2.59,1.09s3.06,2.05,3.71,2.76c.86.94,1.39,2.4,1.48,2.98s-.45,2.9-.77,3.69-1.55,2.85-2.33,3.24-5.02,1.7-5.95,2.07-1.94.3-2.56.29-1.37-.35-2.4-1.18-2.29-1.91-2.29-2.38-.44-1.65-.44-1.65Z"/>
        <path class="cls-32" d="M75.82,38.16l3.05,2.37c2.06,1.31,2.71,3.5,1.95,6.58l-.19,1.56c-.82,1.79-1.58,2.54-2.79.87l-6.51-5.98c-1.79-2.22-1.39-3.84,1.18-4.87.55-.01,2.81-.88,3.3-.53Z"/>
        <path class="cls-36" d="M72.85,42.61s5.24,3.18,5,6.93c.64,1.21-.69,2.12-3.97,2.75-.96.7-2.06,1.16-3.2,1.48-1.62,1.45-2.39.78-1.42-1.31-3.66,2.93-4-3.82-4-3.82,0,0,.6-3.96,3.14-5.92.86-3.05,4.44-.11,4.44-.11Z"/>
        <path class="cls-36" d="M80.83,47.11c-1.32.66-2.19-1.75-2.54-2.78-.3-.87,1.74-2.22.59-3.8.58.22,1.33.63,2.06,1.05,1.56.92,2.04,2.97,1.02,4.46-.32.46-.69.86-1.12,1.06Z"/>
        <path class="cls-53" d="M73.88,52.28c-.67-2.53,2.77-1.73,3.97-2.75.74-.62,1.88-.67,2.79-.87-.19,1.6-.39,3.39-1.81,3.78-1.86.51-3.46.14-4.95-.16Z"/>
        <path class="cls-53" d="M67.52,47.2c-1.02.28-1.41.57-1.52.19s-.17-.88.01-1.31.7-4.39.98-4.84,1.01-1.4,1.29-1.46,1.38.7,1.31,1.4-.07,1.42-.21,2.14-.18,2.42-.69,2.89-1.19,1-1.19,1Z"/>
        <path class="cls-51" d="M71.35,43.56l-.74-.22c0,.19,0,.39-.03.64-.11.87.34,1.04-.52,2.18-.87,1.14-2.02,1.2-2.61,1.28-.58.09-.42-.13.18-.75.61-.61,1.18-1.91,1.37-2.69.08-.34.06-.74.05-1.11l-.64-.18c-2.22-.58-1.11-2.38-.13-3.13,1.41-1.09,2.74-.85,4.25-.89.71.79.57,1.79.45,2.82-.11,1.04-.05,2.47-1.63,2.05Z"/>
      </g>
    </g>
    <g id="back-leg-assembly">
      <g id="back-shoe">
        <path class="cls-50" d="M48.67,144.66c.96.15,5.02-.21,7.65.19,2.64.4,12.07,2.25,13.42,2.38,1.35.13,6.33.26,7.92,0,1.6-.26,3.7-.41,3.77-1.67s-.13-2.46-.45-3.52-2.11-3.04-3.19-3.68-4.59-1.48-5.8-1.81-2.53-.48-3.63-.77-1.93-.23-2.06-1.25-.12-2.99-.7-4.02-5.35-1.44-8.23-1.36-6.37.47-7.72,1.23-1.8,1.28-1.8,2.3,0,4.4.13,5.23-.46,3.52-.42,4.41-.24,2.13,1.11,2.34Z"/>
        <path class="cls-25" d="M75.9,138.68c-1.1,0-2.29-.02-3.61.47-.98.36-1.3,1.66-1.02,2.85l-1.54.03c-.54-2.13-1.34-4.19-2.12-6.24,3.02.14,5.97.92,8.29,2.89Z"/>
        <path class="cls-110" d="M65.1,135.83c1.2,2.15,2.75,4.21,4.63,6.2.41-1.36.93-1.35,1.54-.03.83-2.44,6.69-2.3,7.6.23.76.89,1.26,2.33.47,2.89-1.13.8-2.47,1.67-3.53,1.52-3.44-1.5-7.2-1.05-10.71-.02-17.05-3.31-16.61.68-16.96-4.63.44-1.35.95-1.33,1.54,0,2.52,1.33,5.12,1.11,7.71,0-.62-1.3.3-3.67,1.93-4.54-1.32-.42-1.25-.87.13-1.34.4.03.8-.07,1.2-.08l4.46-.2Z"/>
        <g>
          <path class="cls-106" d="M59.32,137.46c1.81,1.85-.86,3.21-1.93,4.54-2.39,1.14-5.33,1.41-7.71,0h-1.54c-.06-.89.37-2.4.03-3.21l1.49-.06c4.17,1.35,6.24.9,6.19-1.35l3.47.08Z"/>
          <path class="cls-101" d="M75.9,138.68c.65.55,2.07.07,3.19.92.82.62,1.57,1.8-.22,2.63l-7.6-.23c-3.7-4.8-.08-5.17,4.63-3.32Z"/>
          <path class="cls-59" d="M67.61,135.79c4.52,1.51,5.23,3.59,2.12,6.24-1.49.03-3.42-.05-4.01-1.4-.71-1.65-.51-3.32-.62-4.8.83-.04,1.68-.08,2.51-.04Z"/>
          <path class="cls-99" d="M75.81,146.64c-3.48-.48-7.27.65-10.71-.02,2.44-2.65,8.3-2.6,10.71.02Z"/>
          <path class="cls-50" d="M62.05,143.7c-1.64,0-1.97-1.72-1.6-2.43.28-.53,1.79-.83,1.61-3.22,1.78-1.43,1.55,1,1.52,1.84-.05,1.21.56,3.81-1.53,3.81Z"/>
          <path class="cls-30" d="M57.39,142c-1.8,2.25-6.15,2.75-7.71,0h7.71Z"/>
        </g>
        <path class="cls-56" d="M55.85,137.37c.18.49.37,1.13,1.53,2.43-2.36,1.34-5.91,1.23-7.72-1.09,2.1-.29,4.15-.8,6.19-1.35Z"/>
      </g>
      <g id="back-leg">
        <path class="cls-55" d="M49.61,137.47c2.54.13,3.5.28,6.44-.19,2.95-.47,9.1-.86,10.15-1.43s1-.42,1.03-1.98-.88-6.44-1.19-9.61-1.66-14.3-1.98-16.98-.14-6.31-.31-9.58-.89-7.41-1.86-9.1-3.22-6.41-4.34-8.43-5.1-5.92-6.84-7.95-2.98-3.75-4.39-4.88-3.39-2.73-6.12-2.33-6.28-1.17-9.85-.06c-3.55,1.1-6.81-1.21-9.44,1.15s-5.36,5.6-4.37,8.97,3.04,10.6,4.04,10.84,3.12,3.95,6.73,3.12,8.94-2.23,10.06-1.34,5.18,3.34,5.81,8.03,2.49,8.61,2.6,9.84,2.03,3.94,1.54,5.92.41,8.21.46,10.41.02,11.59-.01,12.57.46,2.95,1.84,3.02Z"/>
        <path class="cls-38" d="M59.47,134.74l-.15,1.17c-.74,2.62-1.86,2.29-3.17-.07-.69,2.41-3.45,2.03-5.68,1.17-.35,1.18-.8,1.18-1.36.06-1.08-2.52.61-11.86-.05-17.77,5.02,2.14,2.37,10.14,3.73,14.91,2.03.83,4.65.4,6.68.53Z"/>
        <path class="cls-72" d="M50.83,78.2c-.49.29-1.04,1.26-1.16,1.84,2.17.01,2.77,1.14,1.52,3-.08,1,.34,1.91.96,2.65-2.57-.31-4.14-2.3-5.82-4.21-1.02-1.16-2.54-1.97-3.26-3.45s-.21-3.24.63-4.66c1.91-5.42,8.79.44,7.13,4.84Z"/>
        <path class="cls-1" d="M46.65,68.3c2.93,2.04,8.57,7.31,4.17,9.9-.83-3.39-3.84-5.26-7.13-4.84-.44-1.73-1.52-3.39-3.34-3.39-1.35-.56-1.35-1.11,0-1.67,1.17-2.36,5.65-3.53,6.3,0Z"/>
        <path class="cls-43" d="M47.67,116.45c-1.08-3.2-1.61-6.6-1.07-10.06l1.74.25c.41,1.64,1.4,3.05,2.99,4.61-.26,2.38-1.85,4.16-3.67,5.2Z"/>
        <path class="cls-40" d="M65.31,116.63l-2.99-1.67c1.14-4.39-1.37-8.62-.91-13.27,3.07-.93,3.59,11.69,3.9,14.95Z"/>
        <path class="cls-41" d="M66.48,128.81c1.43,3.41-4.91,1.98-6.02,4.33-1.54.45-3.91.29-4.13-1.53,2.53-2.69,4.89-3.59,7.07-2.68l3.08-.11Z"/>
        <path class="cls-23" d="M61.4,101.68l-4.41.03c.08-1.99,1.42-3.52,3.04-4.59,1.69.81.96,3.34,1.37,4.56Z"/>
        <path class="cls-48" d="M57.36,88.42c-1.3,1.88-4.11.8-6.06,1.22-.05-1.25-.73-2.6.85-3.95,2.14.26,3.61,1.56,5.21,2.73Z"/>
        <path class="cls-46" d="M51.19,83.04c-1.41.09-1.74-1.83-1.52-3,1.07-.47,2.38-.91,3.79-.3.83.36,1.73,2.14.04,3.2-.53.33-1.76,0-2.31.1Z"/>
        <path class="cls-91" d="M52.15,85.69c2.63,1.76,2.34,3.07-.85,3.95,3.95.85,5.73,8.11,5.69,12.08,1.48-2.54,4.04-3.3,4.41-.03,1.53,3.93,3.89,10.35.91,13.27,2.04,1.54,1.95,3.31-.87,2.87.96,2.79-4.47,6.58-6.41,4.15-3.42-.98-5.47-4.7-2.77-7.83-.18-3.37-1.49-5.88-3.91-7.5-.17,2.87-1.32,2.7-1.74-.25.14-.9.73-2.27,1.35-2.96,1.39-3.83-1.13-9.37-7.67-16.7-.76-4.69,2.15-8.79,6.05-5.25,1.64-.22,3.58,1.19,5.82,4.21Z"/>
        <path class="cls-55" d="M43.7,73.36c2.71,2.5,3.58,5.2,2.63,8.12-.67.7-3.47,1.94-3.33,3.35.67,5.25,8.31,13.36,7.41,16.98-.27,1.07-1.85.94-2.46,1.62-.58-5.82-8.87-15.31-8.87-15.31l-3.6-2.23s-2.94-1.89.07-2.84c.25-3.01.23-5.88-.08-8.61l1.78-1.14c.87-1.43,1.91-2.53,3.11-3.32,3.49-1.78,6.77.31,3.34,3.39Z"/>
        <path class="cls-89" d="M55.03,121.98c3,.02,2.38,1.56-.07,2.91,4.2-.42,4.37,2.48,1.13,4.49,2.88-.27,2.94,1,.24,2.23,1.8.31,3.18.82,4.13,1.53l.11,1.53c-.03,1.21-.41,1.18-1.1.07-2.48.68-5.23.98-8.28.89.12-5.73-.58-11.18-2.13-16.33-1.44-.61-.98-1.64-1.39-2.85.62-3.33.85-6.6.68-9.8.77-.46.96-1.68,2.55-2.03-.23,3.6,1.1,5.48,4.55,5.72,1.02.07,2.22.29,2.66.86.36.46.24,1.54-.57,2.16-.43.33-1.04-.58-2.58-.8-2.06,2.93-1.28,6.6.07,9.42Z"/>
        <path class="cls-26" d="M65.31,116.63l1.18,12.18c-.05,1.6-2.67,1.92-3.08.11l-1.95-.71c-2.16,2.05-3.94,2.44-5.36,1.16l-1.13-4.49c.4-1.29,1.59-2.21,3.58-2.74,2.45-1.31,3.42-2.75,2.9-4.32.35-.94.62-1.9.87-2.87.8-2.41,1.8-1.84,2.99,1.67Z"/>
        <path class="cls-3" d="M40.36,69.97c-.26,2.2.78,4.62-.7,6.64-1.28-1.71-1.29-3.04-2.42-3.33l-.03-3.32h3.14Z"/>
        <path class="cls-103" d="M63.4,128.93c-2.26,1.18-4.46,2.74-7.07,2.68-.09-.78-.02-1.36-.24-2.23,3.95-.33,5.09-3.91,7.46-8.05,2.73,2.68.74,5.37-.16,7.6Z"/>
        <path class="cls-86" d="M54.96,124.89l.07-2.91c2.82.08,4.76-2.06,6.41-4.15.72.55,1.41,1.08,1.81,1.5.96.99-7.67,6.25-8.29,5.56Z"/>
        <path class="cls-44" d="M60.04,97.13c.6,2.54-.46,4.22-3.04,4.59-4.01-2.42-5.49-7.4-5.69-12.08.61-2.01,2.64-2.42,6.06-1.22,2.69,1.97,4.63,5.45,2.68,8.71Z"/>
      </g>
    </g>
    <g id="front-leg-assembly">
      <g id="front-shoe">
        <path class="cls-50" d="M10.85,149.69c-1.15,0-4.26.1-5.89.1s-4.74-.24-4.84-1.34-.24-2.44,0-4.26,1.53-3.83,2.11-5.03,2.11-3.11,2.59-4.45,1.15-3.11,2.01-3.16,3.4.14,4.69.53c1.29.38,4.69.62,5.55,1.48s1.29,1.24,1.1,2.44-1.1,2.87-.86,3.49.96,1.72,1.48,2.44,1.05,1.63,1.01,2.82.14,3.16-.38,3.78-.77,1.24-1.68,1.24-6.89-.1-6.89-.1Z"/>
        <path class="cls-100" d="M3.42,146.62c1.53.5,2.95,1.46,4.63,1.54,1.35.44,1.33.95,0,1.54-2.83,0-5.99.78-8.01-1.59-.05-1.23,2.45-1.8,3.38-1.49Z"/>
        <path class="cls-22" d="M18.84,146.62c.25.99-.17,3.9-1.54,3.08-4.16-.09-6.73-1.12-7.71-3.08h9.25Z"/>
        <path class="cls-74" d="M17.3,149.71h-9.25v-1.54c0-.86.69-1.54,1.54-1.54l7.71,3.08Z"/>
        <path class="cls-102" d="M6.5,143.54c2.64,1.31,7.68,1.25,10.79,0,.44-1.35.95-1.33,1.54,0-.16.91-.22,2.19,0,3.08-1.58,1.68-4.66,1.68-9.25,0,1.51,1.84.68,2.25-1.54,1.54-1.87,1.23-4.79.92-4.63-1.54.21-1.19-.76-3.17.73-4.6.8-.77,2.02.63,2.35,1.52Z"/>
        <path class="cls-62" d="M14.21,138.91l2.74-.7,1.38.03c-.46,1.53.8,3.65.51,5.29h-1.54c2.59-1.77-12.96-3.13-3.08-4.63Z"/>
        <path class="cls-10" d="M17.3,143.54c-1.24,3.2-5.92.92-9.25,1.58-2.14.55-4.24-.94-1.54-1.58h10.79Z"/>
      </g>
      <g id="front-leg">
        <path class="cls-50" d="M41.27,85.4c1.33-1.33,3.19-3.48,3.19-6.39s.53-6.73.53-7.58-2.83-4.75-4.79-5.16-14.51-1.83-17.39-1.52-4.68.54-6.26,1.33-3.19,3.79-3.19,4.98.1,4.03.6,5.7,1.6,4.63,2.19,7.02.59,8.1.59,10.01.3,7.63-.5,9.45-1.89,2.38-3.7,4.22c-1.82,1.86-4.27,7.07-4.68,9.76s-2.58,11.52-2.99,13.86-2.19,4.62-.83,5.55c1.35.93,4.44,1.44,7.39,2.23,2.92.78,6.09.81,6.78.39s2.45-6.32,3.22-7.71,2.99-10.46,3.76-11.3,3.7-4.92,4.35-6.18,2.89-5.44,3.26-7.02,2.39-3.26,2.03-5.7,1.61-5.83,1.98-6.93c1.15-3.45,3.1-7.67,4.44-9.01Z"/>
        <path class="cls-31" d="M24.37,71.17c1.07,2.8,3.41,4.51,6.1,3.23-.3-.71.7-1.13,2.99-1.24.44-.9.93-.85,1.48.09,1.17,5.23.58,7.58-1.76,7.09-.94,1.81-2.94,2.19-6.02,1.13.18,2.42-.36,4.1-2.88,5.32,4.43,3.44,2.98,9.26.09,13.16,2.38,2.72,2.2,3.48-1.55,4.33.64,2.59-.45,3.13-3.13,2.92-.12,4.2-3.72,4-4.77.05-.01-.52,1.12-1.19,1.6-1.48l1.59-2.93c1.8-7.26,2.23-15.04,1.31-23.38-2.43.09-3.17-3.38-1.34-4.44l1.5-4.31c-1.41-.42-1.41-.86-.04-1.33.83-2.7,5.64-1.39,4.83,1.78Z"/>
        <path class="cls-35" d="M27.41,115.85l-2.51,9.29c-1.15,4.27-4.44,7.94-5.73,12.02-.34,1.3-.81,1.29-1.42.08-.46-1.42-1.56-2.57-1.89-4.34,1.6-.65,3.77-1.51,3.3-3.08-.34-1.16-2.56-1.23-4.29-2.71,1.04-1.45,4.29-.05,5.65-1.62,2.51-3.7,3.28-7.78,5.18-11.16,1.59-.5,2.15,0,1.69,1.51Z"/>
        <path class="cls-93" d="M17.99,67.65c2.83-.87,3.67-.21,1.55,1.75-.15.4.11.91.04,1.33,2.22,1.89,1.19,4.21-1.5,4.31.39,1.46.75,3.03,1.34,4.44.85,8.35.42,16.13-1.31,23.38,0,1.18-.66,2.37-1.59,2.93-.39-8.4.64-16.98-.28-26.04-.44-4.35-2.9-8.96.56-11.98-.1-1.56.31-1.58,1.19-.13Z"/>
        <path class="cls-83" d="M10.05,120.67c-1.33-.42-1.68-1.72-1.64-2.91-.49-3.31,1.64-6.18,4.81-7.77-.84,3.55-1.83,7.21-3.16,10.68Z"/>
        <path class="cls-29" d="M27.41,115.85c-.46-.6-1.03-1.11-1.69-1.51.78-1.38,1.69-2.72,1.72-4.34l1.52-1.45,2.81-1.46c.29,3.46-2.45,6.11-4.36,8.76Z"/>
        <path class="cls-47" d="M27.44,109.99c2.5,1.25.82,4.02-1.72,4.34-1.17,7.48-3.81,15.09-7.96,22.9,1.12,2.65-1.2,3.09-2.84.87-2.1,1.66-8.94-1.13-9.52-2.74-.51-1.42,1.71-14.88,4.66-14.69-1.17-3.68.53-7.65,3.16-10.68.51-.26,1.26-.1,1.8-.3,4.39.19,8.52.29,12.42.3Z"/>
        <path class="cls-82" d="M25.91,99.97c.93-.74,2.45-.73,4.56.02.03-2.13,2.42-2.06,2.99.01,2.07,2.52-1.93,4.28-1.69,7.08-.69,1.74-1.29,3.08-2.81,1.46-1.61.79-3.7,1.47-4.45-.2-2.52.21-4.12-2.47-1.69-4.04-.16-1.6.14-3.31,1.55-4.33.28-1.3.8-1.24,1.54,0Z"/>
        <path class="cls-63" d="M27.28,88.68c2.25-.42,5.46-.77,6.18,1.44-.01.8.5,1.51,1.36,1.66l-1.16,2.55c-.91,1.49-2.97,2.42-6.22,2.79,1.33.42,1.31.89,0,1.43,1.6,1.12,1.09,1.59-1.53,1.42-.48.09-1.05-.07-1.54,0-.79-4.36-.63-8.8-.09-13.16,3.21-2.49,4.09-1.92,3,1.88Z"/>
        <path class="cls-24" d="M19.69,107.22l1.25-1.38c1.31,1.16,2.49,1.99,3.57,2.5l4.45.2c1.56,1.71.77,2.42-1.52,1.45-3.27-.44-7.88,5.3-12.05,2.71-.79-.49.99-1.86-.38-3.01-.49-.41-.08-1.81-.1-2.41l4.77-.05Z"/>
        <path class="cls-6" d="M33.46,97.18c0,.76-.19,2.12,0,2.82h-2.99c-1.49.68-2.5.2-3.03-1.45v-1.43c2.9-1.5,4.9-1.47,6.02.06Z"/>
        <path class="cls-92" d="M33.46,97.18l-6.02-.06c1.44-2.02,4.2-1.8,6.22-2.79-.37.81-.21,1.94-.2,2.85Z"/>
        <path class="cls-17" d="M18.11,102.86l.15-21.74c0-1.04.21-2.22,1.16-1.64,1.13,2.69,4.14,24.67-1.31,23.38Z"/>
        <path class="cls-80" d="M36.41,76.16c0,2.94.94,6.4-1.71,8.36-1.59-.44-1.63-2.82-1.52-4.16.05-.58,1.71-.99,1.17-1.77-.25-.36-1.41-1.15-1.42-1.73-.01-1.44,1.92-2.19,2.01-3.59.43-.9.93-.85,1.47.09,2.17.18,2.15,2.42,0,2.81Z"/>
        <path class="cls-107" d="M30.47,74.41c-.85.96-1.49,2.55-2.6,2.69-2.18.29-4.21-.51-3.6-2.38.39-1.2-.11-2.44.1-3.55l1.54.1c1.47.85,2.99,1.9,4.56,3.14Z"/>
        <path class="cls-12" d="M28.96,71.47c.63,1.82,2.9,1.6,4.5,1.7-.57.96-2.19.81-2.99,1.24-1.05-.03-2.27.14-3.62-.34-1.01-.36-1.04-1.78-.94-2.79l3.05.2Z"/>
        <path class="cls-5" d="M18.08,75.04c-.42-1.57.43-3.25,1.5-4.31.74.8,1.82,1.38,2.49,1.81,1.34.86.99,2.8-.11,2.81-1.69.03-2.85-.26-3.89-.32Z"/>
        <path class="cls-47" d="M22.82,104.29c.26,1.45.75,2.86,1.69,4.04-.66,1.39-1.72,1-2.47.53-.89-.55-1.55-1.66-2.34-1.66-.15-1.7,1.38-2.84,3.13-2.92Z"/>
        <path class="cls-87" d="M30.47,99.99c-.05.81-.16,1.54-.27,2.05-.2.9-1.34,1.53-2.55.34-.37-.37.49-1.28.38-1.66-.27-.89-1.39-.88-2.11-.74-.21-.99.61-1.43,1.53-1.42.61,0,1.28-.07,2.12.13.57.14,1.16.51.91,1.31Z"/>
        <path class="cls-52" d="M34.59,87.02c.06,1.15.27,2.67-1.14,3.09-2.17.12-4.55.13-6.18-1.44,1.57-2.28,4.78-1.6,7.32-1.66Z"/>
        <path class="cls-113" d="M31.57,83.66c.27,1.47-5.8,1.15-5.71-.73.13-3.04,5.28-1.65,5.71.73Z"/>
        <path class="cls-107" d="M34.08,84.39c0-2.45.92-8.59,1.53-9.14s3.27-1.14,3.39.83.72,6.33-.72,6.32-4.19,1.98-4.19,1.98Z"/>
        <path class="cls-31" d="M34.64,95.66c.86-1.27,1.28-5.22,2.74-8.08s3.54-4.09,3.54-5.47.48-7.68-.18-9.39-2.46-4.84-2.82-3.13.3,4.19.48,6.05-.48,5.47-.66,6.45-3.28,10.88-3.71,11.98-.83,2.88-.57,3.1,1.18-1.52,1.18-1.52Z"/>
        <path class="cls-20" d="M33.18,80.35c2.24.01,1.88,2.39,1.52,4.16,0,.83-.15,1.68-.1,2.51-1.21,1.63-3.64,2.19-7.32,1.66-.83-.8-2.02-1.25-3-1.88-.25-2.52-.55-5.11.27-8.11,3.38-.74,6.09.52,8.63,1.66Z"/>
      </g>
    </g>
    <g id="Body">
      <path class="cls-88" d="M50.83,52.96c-.29.18-3.43-.58-3.39-1.48s-.26-1.47-.07-2.32.81-3.15,1.14-4.09.95-3.22,1.61-3.87,1.33-1.61,1.33-.9-1.03,2.53-.85,3.47-.3,4.59-.11,5.39.32,3.8.32,3.8Z"/>
      <path class="cls-34" d="M6.72,34.15c2.28,2.23.74,3.49-1.91,4.02-.42-.12-.89.01-1.32-.05-1.07-2.11-1.02-4.49-1.14-6.78-.56-2.02-.38-4.54,1.95-4.88l1.22.04c4.61-.3,5.56,6.36,1.21,7.64Z"/>
      <path class="cls-76" d="M26.39,19.39c-2.95-.23-8.42-.24-10.96,0s-8.43.89-10.04,1.99S.08,24.83.62,25.88s1.85,5.89,1.84,6.74.46,5.04,1.03,5.5,3.08,1.14,3.17,1.09,2.81,8.38,3.76,9.84,3.58,9.96,3.69,11.78,1.06,2.77,2.05,3.86,4.28,3.47,5.53,4.03,1.79-.09,3.93,0,6.57.88,8.06.7,8.33-.74,9.74-.77,2.02.26,2.09-.93.32-2.75.39-4.58-.44-4.87-.04-6.19.67-4.61,1.59-5.49,1.19-4.36,1.42-5.83,1.22-2.96,1.75-4,2.79-5.93,3.38-7.44-.08-3.76-1.31-4.05-5.65-2.34-7.79-2.59l-2.14-.24s.42,2.14-.83,3.16-3.73,2.74-5.59,2.14-6.25-1.77-7.49-4.12-2.36-3.54-2.03-5.78.8-2.76.8-2.76l-1.22-.58Z"/>
      <path class="cls-13" d="M43.31,63.1c-.63,1.05-1.81,1.49-2.99,1.59-1.81.27-4.36-.42-6.11-1.53-.78-1.81.56-2.69,4.04-2.64l2.25-2.02c1.51,1.23,2,2.94,2.81,4.6Z"/>
      <path class="cls-76" d="M28.09,24.79c4.24.77,6.51,1.45,6.05,6.35,1.83,1.82,5.09.54,7.81,1.78,1.43.65,1.79,4.83,4.47,4.29,7.13.32,3.88,5.15-1.72,3.15-1.34,1.12-3.87,2.17-5.75,1.43-.17,3.27-2.96,4.38-4.74,1.39-2.26,2.25-7.61,2.73-9.16.14-3.49-.97-7.2-4.82-3.41-7.65l-3.26-1.5c-9.99,1.07-7.21-6.44-1.4-10.36-.85-2.28.17-2.65,1.97-.97-.97-2.69,4.37-2.88,5.72-.98,3.82-3.52,8.65-.12,3.43,2.93Z"/>
      <path class="cls-88" d="M44.89,67.74h-6.11c-2.68,1.34-7.57,1.14-10.69,0,.04,2.39-2.27,2.14-3.05,0-1.24-.43-1.21-.94,0-1.53.08-1.53.57-1.54,1.65-1.53,4.12.07,8.08.44,12.09,1.53-.61-1.29-.03-1.75,1.53-1.53-.63-2.18,1.29-3.23,2.99-1.59.72,1.47,2.1,2.71,1.59,4.64Z"/>
      <path class="cls-42" d="M25.21,60.11l-.11,1.73c-2.86-.17-4.91.27-6.16,1.32.88,1.44.34,1.88-1.64,1.32-.55-.1-.69-.25-1.14.22-.51-1.52-1.08-3.03-1.46-4.59,1.42-2.93,7.37-3.63,10.6-2.83,3.14.55,3.06,1.95-.09,2.83Z"/>
      <path class="cls-96" d="M20.4,35.63c3.63,3.97-.39,6.2-2.99,1.57-3.65-.36-7.18.54-10.69,1.53l-1.91-.56c-.49-1.65,1.31-2.96,1.91-4.02,4.35-2.28,8.91-1.79,13.67,1.48Z"/>
      <path class="cls-79" d="M35.73,54c2.67-.02,2.79,1.12,0,1.77.56.7.96,1.36.83,1.87-.99,3.63-1.19-1.16-.64.89.12.47-1.54,1.08-3.03,1.37-4.2,2.5-6.57-2.62-1.64-4.34l1.43-3.09,3.05,1.53Z"/>
      <path class="cls-104" d="M26.58,18.88c-.78.9-1.44,1.89-1.92,2.99l-5.72.98c-2.74.09-3.56-.48-1.46-2.42l1.75-1.31c2.43.67,4.9-.3,7.35-.24Z"/>
      <path class="cls-45" d="M16.97,23.81c-3.57,3.1,9.84,2.98,4.62,7.83-1.36,1.27-3.57-2.25-6.27-1.76-1.04.19-1.53,2.84.2,2.71,4.05-.31,5.34.56,6.11,3.07-.3,1.33-.71,1.29-1.23-.04l-10.69.06c-1.61,0-3.1-.3-2.98-1.54-.37-2.46-.49-5.22-1.21-7.64-.31-1.05-.06-1.75,1.14-1.52,5.01-3.38,8.45-3.77,10.31-1.19Z"/>
      <path class="cls-60" d="M17.48,20.42c.45.83.93,1.64,1.46,2.42-.7.12-1.28.78-1.97.97-3.5-1.91-6.56,1.9-10.31,1.19,1.77-3.92,6.91-4.15,10.82-4.57Z"/>
      <path class="cls-77" d="M4.3,26.47c-.19,1.78-.51,3.68-1.95,4.88-.43-.98-1.71-2.04-1.73-3.3l2.13-4.42c.88-.26,1.46,1.96,1.55,2.85Z"/>
      <path class="cls-73" d="M23.52,63.16c2.64.66,4.11,1.17,1.53,3.05.19.37.04,1.1,0,1.53-.43,1.33-.94,1.31-1.53,0-1.2-1.34-2.99-1.67-4.72-1.54.39-1.18-.53-1.55-1.49-1.72-.58-1.15.94-1.32,1.64-1.32,0-2.2,3.61-1.72,4.58,0Z"/>
      <path class="cls-27" d="M31.24,55.57c-.29,1.66.28,3.32,1.64,4.34,4.53.27,3,1.25-.21,3.26h-1.53c-.03,2.29-2.47,2.24-3.05,0-2.56-.58-3.52-1.6-2.89-3.05.36-.94.16-1.88.09-2.83,1.9-.72,4.16-.54,5.94-1.71Z"/>
      <path class="cls-7" d="M28.1,63.16h3.05c4.04.04,6.59,1.06,7.63,3.05h-13.74l-1.53-3.05c.26-2.3,3.26-1.63,4.58,0Z"/>
      <path class="cls-13" d="M52.63,30.39s.83.05,1.59.57,2.52,1.1,2.75,1.85.2,1.87.16,2.54-2.57,3.36-2.91,3.87-1.82,4.08-2.24,5.85-.89,4.77-.89,5.4-1.1.74-.95,0-.24-8.04.81-10.32,1.85-5.17,1.59-6.73.1-3.03.1-3.03Z"/>
      <path class="cls-18" d="M40.49,58.5c-.26,1.42-.85,1.39-1.71.08-2.13,1.05-3.78-.61-3.05-2.81v-1.77c1.55-.24,3.27-.21,4.39.98.83.87-.27,2.94.37,3.52Z"/>
      <path class="cls-13" d="M25.3,57.28c-3.47,1.31-7.37.88-10.6,2.83-.25-1-.17-2.07-.36-3.09,4.63.97,10.63-4.01,10.96.25Z"/>
      <path class="cls-9" d="M38.48,67.37c.31-.01.61.07.88.22,0,0,3.48.47,2.96,1.14s-6.26.54-6.26.54h-.33l-1.14.65s-7.86.88-6.49-2.17l10.38-.37Z"/>
      <path class="cls-16" d="M34.21,63.16c2.07,0,5.11-.8,6.11,1.53-.47.55-.98,1.06-1.53,1.53l-7.63-3.05h1.53c.43-1.33.94-1.31,1.53,0Z"/>
      <path class="cls-108" d="M25.21,60.11c1.3.09,2.5,1.88,2.89,3.05h-9.16c-.2-.87-.33-3.16,1.23-2.78,2.35.58,3.75.9,5.04-.27Z"/>
      <path class="cls-95" d="M34.21,63.16h-1.53l.21-3.26c.95-2.43,3.98-2.69,5.9-1.32.57.02,1.14,0,1.71-.08-.33.58.16,2.16-.46,2.87-2.38.57-4.75-.04-5.82,1.79Z"/>
      <path class="cls-27" d="M38.79,58.58c-1.15,2.32-3.64.75-5.9,1.32,1.1-.98-.72-2.06.43-2.73l2.41-1.4c1.52.24,2.58,1.39,3.05,2.81Z"/>
    </g>
    <g id="front-arm-assembly">
      <g id="front-glove">
        <path class="cls-39" d="M37.57,44.82c1.39-.55,1.72.01,1.15,1.54-1.07,3.58-4.81,4.64-8.27,4.86-.45.03-.92-.33-1.36-.25-2.96-.61-2.9-1.85.04-2.66-.12-1.47,1.05-2.39,3.5-2.76,1.59,0,3.26-.85,4.94-.72Z"/>
        <path class="cls-69" d="M48.09,46.3l-.43,3.05c1.27.62,1.18,1.13-.22,1.53-.41,1.41-1.5,1.78-3.27,1.1-1.97,1.6-2.59.12-2.65-2.15-.03-.98-.09-1.9.24-2.86-1.85-2.59-.76-3.37,1.74-1.31,3.22-1.58,4.74-1.37,4.58.65Z"/>
        <path class="cls-54" d="M49.94,57.46c-1.43.52-2.91,1.08-4.45.92-1.61-.17-2.06-1.84-1.74-3.35.89-3.72,2.54-3.4,3.05.43.86-3.11,2.09-4.5,3.7-4.15,1.08,2.02,1.13,4.48-.56,6.15Z"/>
        <path class="cls-90" d="M44.18,51.98c2.29.36,1.89,2.79-.43,3.05-1.1-.18-2.23-.78-2.56-1.57-.6-1.44.38-2.55.35-3.64.82.79,1.7,1.51,2.65,2.15Z"/>
        <path class="cls-75" d="M47.45,50.88l-.65,4.58-3.05-.43.43-3.05c-.03-.52.05-2.64,1.13-2.8.64-.1,1.36,1.75,2.14,1.71Z"/>
        <path class="cls-66" d="M43.52,44.2v1.45c-1-.01-1.45.45-1.75,1.31l-3.06-.61c-.34-.55-.72-1.06-1.15-1.54.9.07,1.86-1.76,3.07-1.74,1.05.02,2.33-.26,2.88,1.12Z"/>
        <path class="cls-85" d="M50.5,51.31c-1.55,1.11-1.81,3.42-3.7,4.15-2.43-.17-1.66-4.38.65-4.58l.22-1.53c1.25.09,2.52.66,2.84,1.96Z"/>
        <path class="cls-39" d="M33.64,45.56c-.73.08-2.45-.12-3.35.1s-1.66.31-2.46.77-1.42,1.92-1.52,2.75.38,2.44.95,2.72,3.04.52,4.17.59,3.72-.78,4.59-.46,3.1,1.93,4.15,2.76,2.18,2.05,2.91,2.54,2.87,1.23,3.71.81,2.56-.86,3.16-2.22,1.27-3.04.54-4.6-.64-3.24-1.46-4.27-2.49-1.94-3.97-2.2-3.97-.76-4.85-.35-3.08.82-3.92.85-2.66.22-2.66.22Z"/>
      </g>
      <g id="front-arm">
        <path class="cls-14" d="M21.66,34.97c-1.33-1.25-7.03-3.9-10.39-3.41s-5.42,2.31-6.21,4.07.15-1.88.09-.63-.02,1.85.24,2.66.9,5.29.48,6.1-.32,4.24.15,5.47.81,3.41,1.67,3.72,2.12.82,4,.37,4.83.16,6.39.03,6.3-.8,8.41-.73,3.24.29,4.05.08,3.23-.41,3.45-1.27,1.07-3.22.55-3.92-1.11-1.94-1.9-1.96-4.8.04-5.78-.22-4.22-1.1-4.32-1.07.03-.47.18-1.3.38-1.56.36-2.54-.38-1.96-.42-2.94c-.04-.9.33-1.25-.99-2.5Z"/>
        <path class="cls-14" d="M13.65,47.6c2.85,4.51-3.4,4.95-6.45,2.11-1.88-2.22-2.88-5.1-1.9-7.92l8.35,5.81Z"/>
        <path class="cls-84" d="M16.67,37.2c3.03,2.13,2.43,3.21-.67,4.81-.5,1.71.73,2.78,3.68,3.21l.29,1.79c1.27.62,1.18,1.13-.22,1.53-.16,3.66-3.6,1.87-4.58-.65-.68,1.24-1.19,1.12-1.52-.29-2.77,3.15-7.95-1.98-8.35-5.81l.47-4.57c.41-3.02,8.32-1.6,10.9-.02Z"/>
        <path class="cls-94" d="M17.57,52.9c-2.95-.3-5.89-.83-8.87-.88l-1.5-2.31c1.08.34,2.18.68,3.72.77,1.36.07,2.48-1.23,2.73-2.88l1.52.29c2.39.91,4.39,2.48,2.41,5.01Z"/>
        <path class="cls-49" d="M23.45,44.38c-1.31,2.79-8.26.4-7.45-2.38-.74-1.61-.52-3.48.67-4.81,1.09.26,3.17.35,3.21-1.15l1.23.21c.45,2.88,3.66,5.06,2.34,8.13Z"/>
        <path class="cls-21" d="M32.63,45.53c-.66,1.45-1.9,2.55-3.5,2.76-.47,2.31-5.74,1.59-6.11-.86-2.83-1.28-2.68-2.63.43-3.05,3.03.35,6.12,1.15,9.18,1.15Z"/>
        <path class="cls-28" d="M23.02,47.44l6.11.86-.04,2.66c-2.25.38-4.55-.36-6.76-.31-2.69,1.12-3.92.61-2.58-2.12l.22-1.53c.4-2.2,2.84-1.83,3.05.43Z"/>
        <path class="cls-97" d="M19.75,48.53c1.04.15,1.71,1.57,2.58,2.12-1.48.19-3.08,2.42-4.75,2.25-1.45-1.3-2.53-3.01-2.41-5.01l4.58.65Z"/>
        <path class="cls-71" d="M23.45,44.38c-.4.92-.11,2.1-.43,3.05l-3.05-.43c-1.91-1.61-4.16-2.04-7.49-2.81.85-1.76,2.36-1.73,3.53-2.19,1.51,2.32,4.91,2.08,7.45,2.38Z"/>
      </g>
    </g>
    <g id="Head">
      <g id="neck">
        <path class="cls-109" d="M28.06,19.9s.77-.93,1.69-1.5,2.73-1.91,3.18-2.15,1.78-1.12,2.43-1,2.48.04,3.14.5,3.83,1.96,4.13,3.04.55,3.68.47,4.42.04,1.49-.26,2.25-1.34,2.8-2.48,2.75-4.7.46-6.4-.42-4.19-2.8-4.8-4-1.1-3.9-1.1-3.9Z"/>
        <path class="cls-109" d="M42.03,30.24c-1.8,2.42-7.59,2.78-11.37-.03s-4.68-7.56-2.88-9.98c1.8-2.42,6.31-2.1,10.09.71s5.96,6.88,4.16,9.3Z"/>
        <path class="cls-109" d="M37.25,17.08c-1.48-1.55-2.42.72-3.31,1.63-.47.69-5.84,5.08-5.39,8.53,7.73,2.89,11.49,2.67,9.7-6.68-.52-1.16-1.35-2.11-1-3.47Z"/>
        <path class="cls-111" d="M38.12,16.78c-.43-.03-.83.2-1.2.42-.07.04-.13.08-.18.14-.06.07-.08.17-.1.26-.13.65-.26,1.3-.19,1.96.02.21.06.42.06.63,0,.23-.03.46-.04.69-.01.57.16,1.12.19,1.69.01.32-.03.64.03.95.04.23.14.45.2.68.2.76,0,1.55-.02,2.33,0,.1,0,.21.04.3.06.14.2.23.31.33.44.4.49,1.09.9,1.53.15.16.35.28.54.39.44.24.91.44,1.39.61.41.15.86.28,1.29.19.56-.12.98-.62,1.19-1.16s.23-1.13.27-1.7c.05-.65.12-1.3.22-1.94.04-.28.09-.55.07-.83-.05-.71-.53-1.33-1.14-1.69-.24-.14-.51-.26-.62-.51-.06-.15-.05-.32-.06-.48,0-.77-.28-1.51-.55-2.23-.15-.41-.31-.82-.56-1.18-.26-.37-.63-.68-1.04-.87l-1-.55Z"/>
        <path class="cls-68" d="M31.7,17.58c-2.64,1.38-4.03,2.14-4.14,3.39-.06.76.39,1.32.46,1.41.82.98,2.48.87,3.49.49,1.41-.53,2.05-1.75,2.56-2.72.49-.93,1.37-3.06.68-3.61-.41-.33-1.3.12-3.05,1.04Z"/>
      </g>
      <g id="face">
        <path class="cls-98" d="M47.76,22.76c-.02.37.12,1.65.04,2.12s-.08,1.09-.6,1.12-1.9,0-2.27-.28-6.79-4.81-7.4-5.22-4.72-2.23-5.54-3.12-2.09-2.25-2.24-3.56-.52-3.48-.15-4.88,2.12-4.34,3.09-4.88,4.2-1.65,6.32-1.24,3.98.33,6.43,1.96,5.23,4.53,5.96,5.7.7,1.91.55,2.56-.31,2.08-.59,2.9-.05,2.76-.24,3.16-.62.34-.78.1-.68-.41-1.02-.47c-.37-.07-.4.4-.52.71s-.37.8-.6.83-1.01-.22-1.46-.09-.83.35-.78.62.05.68.44.84,1.1.4,1.3.46.06.67.06.67Z"/>
        <path class="cls-65" d="M47.93,24.12c-.14-.97-.12-1.97.04-2.94.06-.36,1.74-1.8,1.61-2.14-.11-.28-1.57-.44-1.81-.62-.3-.21-1.04.02-1.58.04-1.15.04-2.01,0-3.15.14-.43.05-.97.26-.94.69.01.22.18.39.28.59.32.64-.08,1.39-.11,2.1,0,.11,0,.22.07.3.05.06.11.09.18.12.53.26,1.07.51,1.6.77.79.38,1.59.76,2.44.94.38.08.76.12,1.14.15"/>
        <path class="cls-67" d="M49.99,18.74c.7-.24.99-.9,1.18-1.51.4-1.27.63-2.58.7-3.9.01-.28-.02-.62-.32-.76-.1-.05-.21-.06-.32-.08-1.1-.15-2.2-.3-3.3-.45-.59-.08-1.29-.13-1.64.25-.15.17-.2.38-.25.59-.33,1.51-.65,3.09-.14,4.61.08.25.2.5.44.67.19.13.43.18.66.23.8.17,1.6.34,2.39.51l.58-.16Z"/>
        <path class="cls-65" d="M39.17,18.57c.09-.46.08-.93.06-1.4,0-.22-.02-.44-.08-.65-.04-.14-.11-.28-.14-.43-.02-.14,0-.28.01-.42.05-.35.13-.71.22-1.05.07-.24.14-.47.22-.7l.2-.6c.05-.15.11-.32.27-.4.15-.08.34-.05.51-.03.45.06.9.12,1.36.18.12.02.25.03.36.09.11.05.19.14.29.21.18.13.4.21.61.3.64.25,1.25.55,1.83.88.23.13.47.28.61.49.08.12.12.25.2.37.18.26.56.43.61.73.02.1,0,.19,0,.29,0,.2.14.39.15.59.02.33-.27.62-.61.76s-.73.2-1.09.32c-.3.1-.58.24-.89.29-.26.04-.53.02-.79,0-.51-.02-1.02.03-1.53.08-.35.03-.71.07-1.04.17-.36.12-.71.32-1.1.28l-.26-.35Z"/>
        <path class="cls-98" d="M42.22,16.53c-1.1-.29-2.28-.24-3.38.14-.36.13-.71.29-1.08.4-1.29.41-2.65.24-3.96.02-.44-.07-.91-.18-1.18-.56-.27-.38-.26-.92-.17-1.4s.24-.96.24-1.45c0-.33-.08-.66-.1-.99-.03-.41.03-.82.09-1.23.11-.78.22-1.55.34-2.33.03-.22.07-.45.17-.64.14-.27.39-.43.63-.59.49-.32.99-.64,1.53-.76.18-.04.37-.06.56-.11.19-.05.37-.14.56-.21.47-.16.97-.17,1.46-.16,1.3.03,2.6.19,3.88.48.33.07.66.16.97.29.27.11.53.26.78.41.23.13.45.26.68.39.19.11.39.23.51.43.19.33.1.78-.1,1.12s-.48.59-.72.89c-.34.43-.6.94-.74,1.49-.06.22-.1.46-.19.67-.08.18-.19.35-.28.52-.41.76-.47,1.67-.52,2.55l.03.62Z"/>
        <path class="cls-8" d="M44.81,9.95c-1.76.82-3.27,2.34-4.05,4.1,1.84.45,3.89,1.13,5.58,1.59,2.21-2.09,2.69-6.65-1.53-5.7Z"/>
      </g>
      <g id="beard">
        <path class="cls-19" d="M49.64,18.52c-.86-.91-2.2-1.13-3.43-1.3-1.25-.17-2.5-.35-3.74-.52-.29-.04-.59-.08-.87.01-.62.2-.87.95-.96,1.6-.09.68-.45.19-.61-.77-.24-1.44-.87-3.11-2.3-3.43l-.42.47c-.57,2.18-1.1,4.61.01,6.57.6,1.05,1.6,1.8,2.57,2.52,1.83,1.35,3.71,2.73,5.88,3.39.47.14.98.25,1.44.07.94-.36,1.09-1.61,1.08-2.61,0-.13,0-.26-.05-.38-.06-.14-.19-.24-.32-.33-1.03-.73-2.21-1.24-3.44-1.48-.56-.11-1.15-.19-1.7-.33.25-.03.49-.14.65-.34.13-.16.19-.36.26-.55.22-.68.44-1.35.66-2.03.02-.06.04-.13.09-.18.08-.09.21-.09.33-.09,1.48,0,2.96.32,4.31.94l.22-.08c.23.2.62-.03.67-.33s-.13-.59-.34-.81Z"/>
      </g>
      <g id="hair">
        <path class="cls-57" d="M37.86,13.4c.07.91-.04,1.28-.73,2.26s-1.08,2.68-2.69,3.67-3.11-.27-4.61.63-3.77.48-4.41-.6-1.45-1.74-1.02-2.81.39-2.41.98-3.41.38-5.07.47-5.76-.06-3.18.82-3.67,3.66-1.86,4.04-2.12,5.29-1.09,6.29-.79,4.65.2,5.8.55,4.54,2.28,5.38,3.54,2.37,2.23,2.85,2.95,1.59,2.07,1.44,2.89-.97,1.81-2.35,1.43-3.07-.06-4.02-1.01-1.83-1.64-2.84-1.16-4.1.72-4.31.61-1.15,1.9-1.08,2.81Z"/>
        <path class="cls-58" d="M44.28,2.43c-1.62-.86-1.33-1.55-2.97-1.64s-5.99-1.21-7.24-.6-2.67.51-3.52,1.85-.56,2.09.43,2.23,3.97,1.03,5.13.97,4.76-.06,5.61-.17,3.09-.72,3.05-1.28-.49-1.36-.49-1.36Z"/>
        <path class="cls-33" d="M26.94,8.83l-.3-.73c-.13-.32-.27-.65-.3-1-.02-.26.02-.53.05-.79.06-.43.12-.87.19-1.3.02-.11.03-.23.08-.33.06-.11.15-.19.24-.28.24-.26.38-.6.56-.9.38-.64.95-1.13,1.54-1.57.36-.27.74-.53,1.17-.61.32-.06.65-.03.97.01.81.09,1.64.19,2.38.55.23.12.46.26.63.46.24.28.35.66.46,1.02.13.44.26.87.39,1.31.02.07.04.14.02.2-.02.07-.08.11-.13.15-1.31.99-2.71,1.89-4.26,2.39-.69.22-1.42.37-2.01.81l-1.69.61Z"/>
        <path class="cls-57" d="M47.35,12.73c-.17-.28-.35-.57-.53-.84-.89-1.31-2.11-2.38-3.49-3.07-1.73-.87-3.67-1.13-5.58-1.32-.88-.08-1.75-.15-2.63-.21-.45-.03-.9-.05-1.33.07-.73.2-1.3.76-1.85,1.31-.39.39-.78.78-1.17,1.18-.48.49-.99.99-1.62,1.21-.07.02-.14.05-.22.04-.22-.02-.35-.25-.45-.45-.29-.6-.57-1.2-.86-1.8-.28-.58-.56-1.29-.24-1.85.25-.45.79-.61,1.29-.64s1,.03,1.48-.13c.57-.19.99-.69,1.54-.94.54-.25,1.19-.27,1.62-.7.29-.29.42-.72.56-1.11.07-.19.16-.39.34-.46.28-.11.54.15.78.34.51.42,1.16.58,1.79.72.66.15,1.34.3,2.01.28.65-.02,1.29-.2,1.94-.22,1.1-.03,2.18.41,3.1,1.06s1.68,1.5,2.41,2.37c-.24-.09-.53.02-.67.25-.16.29-.06.67.14.93s.49.42.76.61c.48.34.91.77,1.26,1.26.45.64.74,1.58.26,2.2-.15.08-.36.02-.45-.14l-.17.06Z"/>
        <path class="cls-58" d="M42.33,7.5c0-.46,1.8-1.04,2.28-.98,1.36.17,2.71.34,4.07.51.87.11,1.79.24,2.48.76,1.02.78,2.21,3.56,2.01,4.76-.03.15-.06.31-.16.44-.15.19-.42.25-.68.28-.61.07-1.22.05-1.84.02-.82-.03-2.78-.24-3.59-.27-.4-.02-.64-1.24-1.03-1.33-1.09-.27-1.95-1.17-2.34-2.18s-1.2-2.01-1.2-2.01Z"/>
        <path class="cls-61" d="M29.25,11.31c.11.2-.07.43-.25.55s-.42.22-.48.43c-.03.12,0,.25-.03.37-.03.13-.12.24-.22.33-.82.83-2.06,1.16-3.15.86-.06-.02-.12-.03-.16-.07-.19-.14-.12-.45-.04-.69.27-.77.45-1.58.55-2.4.04-.33.06-.67.14-1,.16-.69.56-1.34,1.15-1.69s1.37-.36,1.92.05c.64.48.85,1.36,1.01,2.16.03.16,0,.41-.16.39l-.28.68Z"/>
        <path class="cls-11" d="M41.47,4.94c2.07-9.74,13.49,6.98,5.24,3.91-.83-2.55-4.48-1.94-5.24-3.91Z"/>
      </g>
      <g id="Eye">
        <g id="eye">
          <path class="cls-37" d="M46.45,14.55c-.23-.08-.5-.17-.73-.06-.1.05-.18.13-.24.22-.27.43-.02,1.01.42,1.31s1.01.38,1.56.43c.2.02.42.02.58-.09.21-.15.22-.45.08-.66s-.38-.34-.61-.47c0,0-.56-.5-1.06-.68Z"/>
          <path d="M46.45,14.56c-1.45-.46-1.08,1.34.01,1.58.47.14,1.99.58,1.61-.39-.12-.21-.35-.35-.58-.49-.3-.29-.65-.56-1.04-.71h0ZM46.46,14.53c.39.15.78.43,1.08.66.23.12.49.23.66.48.53,1.16-1.19.89-1.81.71-.52-.14-1.08-.56-1.12-1.18-.02-.3.13-.61.4-.75.28-.12.56-.01.8.08h0Z"/>
        </g>
        <path class="cls-57" d="M45.57,13.67c1.21-.3,3.91-.08,3.42,1.77-.02.04-.07.06-.1.03l-.87-.43c-.24-.11-.4-.37-.66-.53-.51-.33-1.13-.56-1.79-.73-.06-.01-.06-.1,0-.11h0Z"/>
        <g>
          <ellipse class="cls-112" cx="47.27" cy="15.83" rx=".42" ry=".61" transform="translate(27.09 61.41) rotate(-84.63)"/>
          <g>
            <ellipse class="cls-57" cx="47.48" cy="15.95" rx=".33" ry=".39" transform="translate(29.47 62.68) rotate(-87.49)"/>
            <path class="cls-37" d="M47.66,15.81c.08,0,.1.18.06.27,0,.02-.01.03-.03.04-.02.01-.04.02-.07.02-.08,0-.16,0-.22-.04s-.09-.12-.05-.18c0,0,.19.11.3-.12Z"/>
          </g>
        </g>
      </g>
      <g id="mouth">
        <path id="open" d="M47.9,22.03s.27-1.28.27-1.31-.7-.17-.78-.19-.73-.13-.82-.16-.31-.03-.37,0-.25.12-.28.15-.1.21-.1.27.03.31.06.35.24.33.33.37.63.39.72.41.61.23.68.25.19.08.22.08.07-.22.07-.22Z"/>
        <g id="teeth">
          <path class="cls-37" d="M48.36,20.82c-.03.14-.07.3-.11.37s-.03.07-.06.07-.68-.18-.93-.29-.94-.53-.97-.54,0-.06.02-.07.16,0,.24.02.54.14.63.16.52.14.61.16.57.14.57.14Z"/>
          <path class="cls-37" d="M48.09,22.06c.1.05.07-.36.08-.38s-.48.03-.63,0-1.14-.51-1.25-.54-.22.03-.22.03c0,0,.08.09.11.13s.45.37.54.4.58.21.65.22.7.13.72.13Z"/>
        </g>
        <path id="lips" class="cls-64" d="M48.51,20.53c.02-.19-.12-.19-.27-.18s-.64.09-.87.08-.96-.24-1.11-.17-.52.26-.54.45.04.57.18.73.66.44,1.04.66.99.5,1.1.45.6-.34.44-.58-.46-.21-.53-.19-.88-.07-1.08-.16-.87-.56-.89-.66-.17-.27.09-.4.34-.12.5-.08.87.23,1.1.28.6.2.68.17.14-.15.16-.38Z"/>
      </g>
    </g>
  </g>
</svg>