<?xml version="1.0" encoding="UTF-8"?>
<svg id="Player" xmlns="http://www.w3.org/2000/svg" viewBox="0 0 101.84 140.7">
  <defs>
    <style>
      .cls-1 {
        fill: #c4694e;
      }

      .cls-2 {
        fill: #06060b;
      }

      .cls-3 {
        fill: #122139;
      }

      .cls-4 {
        fill: #090e15;
      }

      .cls-5 {
        fill: #131f31;
      }

      .cls-6 {
        fill: #885e68;
      }

      .cls-7 {
        fill: #62674e;
      }

      .cls-8 {
        fill: #222028;
      }

      .cls-9 {
        fill: #ec9062;
      }

      .cls-10 {
        fill: #e1e5db;
      }

      .cls-11 {
        fill: #06111a;
      }

      .cls-12 {
        fill: #1c2b4d;
      }

      .cls-13 {
        fill: #070d19;
      }

      .cls-14 {
        fill: #e5a97f;
      }

      .cls-15 {
        fill: #a4997e;
      }

      .cls-16 {
        fill: #a8481e;
      }

      .cls-17 {
        fill: #c4723d;
      }

      .cls-18 {
        fill: #080f15;
      }

      .cls-19 {
        fill: #09131c;
      }

      .cls-20 {
        fill: #231b20;
      }

      .cls-21 {
        fill: #3e5157;
      }

      .cls-22 {
        fill: #b56042;
      }

      .cls-23 {
        fill: #101424;
      }

      .cls-24 {
        fill: #fef3c3;
      }

      .cls-25 {
        fill: #040c15;
      }

      .cls-26 {
        fill: #2e2d35;
      }

      .cls-27 {
        fill: #cfa874;
      }

      .cls-28 {
        fill: #020811;
      }

      .cls-29 {
        fill: #a2916f;
      }

      .cls-30 {
        fill: #262d33;
      }

      .cls-31 {
        fill: #8f9465;
      }

      .cls-32 {
        fill: #cdcdba;
      }

      .cls-33 {
        fill: #020408;
      }

      .cls-34 {
        fill: #9c856f;
      }

      .cls-35 {
        fill: #80646c;
      }

      .cls-36 {
        fill: #5d6d73;
      }

      .cls-37 {
        fill: #07101a;
      }

      .cls-38 {
        fill: #f2e9c2;
      }

      .cls-39 {
        fill: #0b1d32;
      }

      .cls-40 {
        fill: #ecb681;
      }

      .cls-41 {
        fill: #4c4f65;
      }

      .cls-42 {
        fill: #b5b894;
      }

      .cls-43 {
        fill: #b05636;
      }

      .cls-44 {
        fill: #c56a3b;
      }

      .cls-45 {
        fill: #f6f4f1;
      }

      .cls-46 {
        fill: #161b24;
      }

      .cls-47 {
        fill: #0d0d12;
      }

      .cls-48 {
        fill: #9c5227;
      }

      .cls-49 {
        fill: #b5582a;
      }

      .cls-50 {
        fill: #a7ad8d;
      }

      .cls-51 {
        fill: #f0b88c;
      }

      .cls-52 {
        fill: #a1b4b9;
      }

      .cls-53 {
        fill: #151319;
      }

      .cls-54 {
        fill: #c75349;
      }

      .cls-55 {
        fill: #876059;
      }

      .cls-56 {
        fill: #edefe9;
      }

      .cls-57 {
        fill: #e99670;
      }

      .cls-58 {
        fill: #030911;
      }

      .cls-59 {
        fill: #9f6a54;
      }

      .cls-60 {
        fill: #6e3216;
      }

      .cls-61 {
        fill: #c4bead;
      }

      .cls-62 {
        fill: #e0e1d8;
      }

      .cls-63 {
        fill: #d0cfbc;
      }

      .cls-64 {
        fill: #d78c64;
      }

      .cls-65 {
        fill: #efb48a;
      }

      .cls-66 {
        fill: #0a1b2d;
      }

      .cls-67 {
        fill: #20262a;
      }

      .cls-68 {
        fill: #1a2a4d;
      }

      .cls-69 {
        fill: #0c0a0f;
      }

      .cls-70 {
        fill: #495356;
      }

      .cls-71 {
        fill: #7f6775;
      }

      .cls-72 {
        fill: #394864;
      }

      .cls-73 {
        fill: #89574a;
      }

      .cls-74 {
        fill: #2a353b;
      }

      .cls-75 {
        fill: #344564;
      }

      .cls-76 {
        fill: #d5ebf2;
      }

      .cls-77 {
        fill: #c38865;
      }

      .cls-78 {
        fill: #64474a;
      }

      .cls-79 {
        fill: #0b1725;
      }

      .cls-80 {
        fill: #181b27;
      }

      .cls-81 {
        fill: #e08e67;
      }

      .cls-82 {
        fill: #db8c62;
      }

      .cls-83 {
        fill: #dbac72;
      }

      .cls-84 {
        fill: #1e2530;
      }

      .cls-85 {
        fill: #f7dcad;
      }

      .cls-86 {
        fill: #0d0b10;
      }

      .cls-87 {
        fill: #182845;
      }

      .cls-88 {
        fill: #1b1e26;
      }

      .cls-89 {
        fill: #f49972;
      }

      .cls-90 {
        fill: #12161d;
      }

      .cls-91 {
        fill: #0f161b;
      }

      .cls-92 {
        fill: #02070c;
      }

      .cls-93 {
        fill: #5b4d58;
      }

      .cls-94 {
        fill: #0a1420;
      }

      .cls-95 {
        fill: #59696c;
      }

      .cls-96 {
        fill: #fbd1a2;
      }

      .cls-97 {
        fill: #1d274b;
      }

      .cls-98 {
        fill: #080a10;
      }

      .cls-99 {
        fill: #bd663c;
      }

      .cls-100 {
        fill: #3b4449;
      }

      .cls-101 {
        fill: #32343a;
      }

      .cls-102 {
        fill: #39435f;
      }

      .cls-103 {
        fill: #040b1d;
      }

      .cls-104 {
        fill: #000103;
      }

      .cls-105 {
        fill: #1b284b;
      }

      .cls-106 {
        fill: #e08864;
      }

      .cls-107 {
        fill: #4d2211;
      }

      .cls-108 {
        fill: #4b515a;
      }

      .cls-109 {
        fill: #9c8e62;
      }

      .cls-110 {
        fill: #3a4765;
      }

      .cls-111 {
        fill: #141929;
      }

      .cls-112 {
        fill: #343c46;
      }

      .cls-113 {
        fill: #f5ce9d;
      }

      .cls-114 {
        fill: #b45f4f;
      }

      .cls-115 {
        fill: #c6a985;
      }

      .cls-116 {
        fill: #d48362;
      }

      .cls-117 {
        fill: #60635f;
      }

      .cls-118 {
        fill: #5f6575;
      }

      .cls-119 {
        fill: #19284b;
      }

      .cls-120 {
        fill: #12233d;
      }

      .cls-121 {
        fill: #5b6b71;
      }

      .cls-122 {
        fill: #1c2a59;
      }

      .cls-123 {
        fill: #091623;
      }

      .cls-124 {
        fill: #091827;
      }

      .cls-125 {
        fill: #2f3d5b;
      }

      .cls-126 {
        fill: #0e151d;
      }

      .cls-127 {
        fill: #f6f6f0;
      }

      .cls-128 {
        fill: #0a141e;
      }

      .cls-129 {
        fill: #0c151a;
      }
    </style>
  </defs>
  <g id="Player_Damage">
    <path class="cls-119" d="M35.79,94.1c3.67.13,6.13,1.6,7.39,4.41,1.73,1.22-1.44,6.97-3.37,8.19.18,3.23-3.3,17.31-5.05,18.12-.57.27-1.33.14-2.14-.09.42,2.56-3.83,2.48-4.63.21-4.31-.45-5.86-4.56-4.63-12.34.95-5.11,2.72-9.66,5.32-13.65.45-.26.64-1.16,1.04-1.54.07-1.39.53-1.43,1.35-.23.47-3.2,2.48-5.98,4.72-3.08Z"/>
    <path class="cls-124" d="M71.35,101.89c3.61-1.31,8.77,3.41,5.93,6.41l-.81,5.6c3.58-2.09,4.51-.04,2.48,3.03.45,2.69-1.36,6.89-3.37,8.92.81,2.51-.15,3.24-2.88,2.17-2.64,2.85-4.18.79-4.63-6.17l-.26-19.93c-2.06-9.93,2.63-10.64,3.53-.04Z"/>
    <path class="cls-25" d="M72.47,92.38c1.41,1.8.76,3.2-1.77,3.03,1.96-.73,2.43.02,1.39,2.23,2.2.06,2.27.99.19,1.28,3.19,2.04,2.7,2.29-.93,2.97-2.12-1.09-.98-4.62-2.37-6.34-2.13,2.5-.44,4.73-1.16,6.38-3.58-2.54.17-7.2-.8-10.68-1.29-4.66-7.55-7-11.06-9.49-2.89-1.54-1.84-2.79.32-4.31.73-.49,1.48-.9,2.27-1.05,1.19-.22,17.13,12.36,13.91,15.97Z"/>
    <path class="cls-79" d="M41.48,108.23c-.68,7.84-4.25,15.01-4.25,22.88-.46,1.33-3.59,1.17-4.63,0-2.66-.67-4.15-1.18-1.54-3.08l1.55-3.29c.26-1.26,1.4-2.11,1.97-3.11.8-1.39-.54-2.49-1.55-3.79.23,3.85,7.29-12.43,6.76-11.13.89-.55,1.45-.04,1.68,1.53Z"/>
    <path class="cls-123" d="M54.08,67.41c5.23,2.72,5.97,6.06,2.21,10.04,1.4,1.21.5,3.03-.32,4.31-1.81-1.28-4.2-1.98-4.97-4.31-1.46-1.54-2.56-3.32-3.29-5.34-3.16-1.16-4.54-4.05-1.02-5.58-.38-3.29,1.77-3.27,2.89-.2.78-1.21,1.63-1.92,2.99-1.17,1.67-.04,2.18.71,1.51,2.25Z"/>
    <path class="cls-9" d="M32.9,15.13l1.4.06c2.92,1.01,2.4,4.03,1.5,6.67-1.51,1.54-2.77,3.38-4.76,4.34-5.21,1.56-8.78-3.08-3.44-5.81-3.32-1.02-2.7-3.08.77-3.1-2.21-1.95-1.52-2.9,1.22-1.91-.81-3.52,2-3.14,3.31-.25Z"/>
    <path class="cls-90" d="M86.59,131.11c3.11,1.73,7.06,2.2,11.84,1.43l2.04,1.65c2.15,2.41-21.53,2.72-21.84-1.32-1.45-.17-1.5-.55-.16-1.13.33-2.19,3.04-2.87,5.04-2.18,1.78-1.4,4.32-1.19,3.08,1.54Z"/>
    <path class="cls-64" d="M21.83,6.08c4.51-.15,4.48,4.95.19,6.08.71,2.6-1.84,2.11-3.28.2,1.27,1.73.03,2.37-1.88,1.72-1.79.11-3.12-1.03-3.57-2.73-.35-1.3.04-2.54.83-3.62l4.11-1.58c1.91-2.11,3.12-2.14,3.62-.08Z"/>
    <path class="cls-74" d="M89.67,131.11c-.6-3.89,6.31-1.85,8.86-.22.24.74,2.04.91,2.76,1.65.78.8.93,1.66-.82,1.66l-15.1-.03c-.11-1.67.74-2.31,1.22-3.06.21-3.22,1.38-2.5,3.08,0Z"/>
    <path class="cls-80" d="M34.05,5.04c.14,1.27,1.92,3.08,1.18,4.76-.47,1.07-1.44,1.94-2.73,2.29-2.82,1.78-3.97.61-3.2-2.58-4-.29-3.88-1.83-1.24-4.71-4.44-.36-4.02-1.87-.08-3.23,2.09-1.3,5.61,1.09,6.06,3.47Z"/>
    <path class="cls-55" d="M46.21,84.57c1.86.84,1.58,2.4-.11,3.36-.05,1.42-.71,3.21-1,4.63-3.28,3.88-7.02,1.33-4.45-3.07-3.42-.6-3.96-1.85-1.87-4.64.23-3.41,6.7-3.73,7.43-.28Z"/>
    <path class="cls-128" d="M27.99,124.94c1.52,2.07-1.23,2.52-3.08,1.54-3.06.89-3.35-.22-3.21-3.08-.63-4.19.89-7.28,1.67-10.79,2.87,4.45-.5,9.37,4.63,12.34Z"/>
    <path class="cls-47" d="M26.34,1.24l1.64.33.08,3.23c-.57,4.01-3.76,3.67-6.23,1.28-2.51.82-5.06,1.63-7.72,1.66.77-1.05,1.94-2,3.81-2.46,1.76-1.57,1.26-3.2,2.39-3.63,1.84-.7,5.09.32,6.04-.41Z"/>
    <path class="cls-67" d="M75.79,129.57c1.67-.12,3.32.37,2.67,2.18-.02.39.04.76.16,1.13-2.87.33-6.67,2.69-9.03-.13-2.38-5.1-.31-6.15,6.2-3.17Z"/>
    <path class="cls-52" d="M90.99,126.92c.53,0,1.29-.15,1.76.07,2.26,1.05,4.96,1.35,5.77,3.89l-8.86.22c-3.22-.76-4.25-2.53-1.26-4.36.13-2.66,1.34-2.23,2.58.17Z"/>
    <path class="cls-36" d="M26.44,131.11c0-2.62,4.61-2.04,6.17,0h4.63v1.54c-2.92.91-6.27,1.21-10.06.89l.81.65c1.35.44,1.33.95,0,1.54-1.92,2.71-5.77,1.84-6.17-1.54-3.07.19-2.41-1.75,0-3.08-.16-4.52,2.51-2.45,4.63,0Z"/>
    <path class="cls-94" d="M41.48,108.23c-1.32.77-1.49-.65-1.68-1.53l3.37-8.19c-3.54-2.56-2.42-5.92,1.92-5.95,5.04,1.62-3.29,11.97-3.61,15.67Z"/>
    <path class="cls-98" d="M24.9,126.48c-.02.56.49,1.07,1.54,1.54,3.54.22,3.45,2.23,0,3.08h-4.63c.1,2.75-1.09,2.85-1.78,0-.89-2.47,1.97-5.56,1.65-7.71,1.56.39,2.72,1.55,3.21,3.08Z"/>
    <path class="cls-2" d="M51,77.46c-1.55.07-2.68,1.24-2.92,2.75-.44,1.35-.97,1.33-1.59.01-1.02-.53-.93-1.08.14-1.66-3.89-2.15-3.93-3.68-.14-6.01-.3-1.34.13-1.44,1.22-.43l3.01-2.82c.91,3.38.49,5.71.28,8.15Z"/>
    <path class="cls-104" d="M38.78,140.36c-6.13-1.09-13.28,2.44-18.47-1.86.76-.67,1.77-.57,3.04.32.5-2.72,3.12-2.05,4.63,0-.16-3.56,6.72-2.59,9.25-1.54,2.33-1.51,2.7.96,1.54,3.08Z"/>
    <path class="cls-46" d="M21.82,131.11v3.08c1.22,1.28,1.74,2.82,1.54,4.63-1.02.03-2.03-.29-3.04-.32-1.32-1.1-2.79-1.61-3.1-3.54s2.3-2.82,2.82-3.85h1.78Z"/>
    <path class="cls-19" d="M23.36,112.6c1.07-4.81-.6-11.47,5.32-13.65-5.05,11.62-2.52,10.54-3.09,12.8-.17.66-1.44.84-2.22.86Z"/>
    <path class="cls-33" d="M72.71,128.02c1.97-1.77,4.24-1.27,3.08,1.54-1.55-.07-3.18-.29-5.14.18-1.11.27-1.36,1.68-1.06,3-2.32-2.78-1.46-7.19-1.51-10.88,1.89,1.2,1.04,4.72,2.52,5.87.55.43,1.42.25,2.11.3Z"/>
    <path class="cls-86" d="M20.28,16.99c.96.22,1.63.4,1.54,1.54,2.81-.23,3.28.94,1.06,2.69-1.66.31-3.47.6-5.58-.3-1.51-.64-2.4-2.53-.11-3.93.43-1.23,2.28-1.1,3.08,0Z"/>
    <path class="cls-126" d="M34.05,5.04c-2.44-.18-4.05-2.24-6.06-3.47l-1.64-.33c1.41-1.07,3.86-1.81,6.24-.66,1.44.69,2.59,2.31,1.47,4.47Z"/>
    <path class="cls-48" d="M32.5,12.09l.4,3.04-3.31.25c-4.3,2.27-5.27-1.52-1.68-4.72-2.11-2.13-1.19-2.89,1.39-1.15.88,1.07,1.99,1.91,3.2,2.58Z"/>
    <path class="cls-5" d="M29.53,72.51c1.58-1.05,2.1.49,1.54,4.63,1.5,4.66,1.5,8.77,0,12.34-.44,1.35-.95,1.33-1.54,0l-1.54-3.08c1.4-2.97,1.09-6.22,0-9.25-.99-1.07-1.5-3.21-1.54-4.63.31-4.1,1.34-4.1,3.08,0Z"/>
    <path class="cls-91" d="M38.78,140.36c-.24-1.15-.72-2.24-1.54-3.08-4.1-.49-3.92-1.91,0-3.08-1.35-.44-1.33-.95,0-1.54,3.01-.05,3.38,1.23,3.14,3.79-.11,1.14.64,4.32-1.6,3.92Z"/>
    <path class="cls-111" d="M46.1,87.93c.04-1.17-.56-2.05.11-3.36-4.11-.82-3.73-3.1.28-4.35h1.59c-.03,1.74.64,3.41.94,5.44.19,1.3-1.61,2.02-2.93,2.27Z"/>
    <path class="cls-103" d="M29.53,72.51h-3.08c-.1-3.02-.37-6.08.27-9.04,5.28-1.34,6.37,6.22,2.81,9.04Z"/>
    <path class="cls-129" d="M27.99,86.39v-9.25c2.22,2.39,2.86,7.17,0,9.25Z"/>
    <path class="cls-11" d="M31.07,92.56c2.81-.65,2.81.89,0,4.63l-1.35.23-.19-7.94h1.54c1.98.05,1.49,1.88,0,3.08Z"/>
    <path class="cls-38" d="M20.28,15.45c-.14,1.31-2.57,1.04-3.31.08-.01-.46-.2-1-.11-1.44.16-.85.99-1.67,1.88-1.72,2.29.32,3.53,1.47,1.54,3.08Z"/>
    <path class="cls-114" d="M20.28,15.45c1.38.5,1.38,1.01,0,1.54h-3.08c-.04-.49-.22-.97-.23-1.46l3.31-.08Z"/>
    <path class="cls-66" d="M64.04,75.08c-1.81.96-2.21-.69-1.63-.42,5.26,2.44,9.02,4.7,13.14,9.35l3.33-2.25c-1.4-.41-1.37-.92,0-1.54.49-1.35,1.07-1.33,1.73-.01,2.54,1.18,1.89,3.96,2.52,6.18-.39,6.24.16,12.53,2.06,18.51.24,3.99,1.74,8.43,2.67,12.34,1.05,3.97-2.02,6.26-4.3,2.87-6.92,4.35-5.87-3.06-.03-4.27,1.46-1.93,1.04-4.3-1.28-7.09-1.42-.41-3.07-.56-4.96-.43,1.1-2.22-2.88-.29-4.29-1.16-.08-2.5.34-4.23-1.64-5.24.29-.95-.04-2.41.93-2.97,3.78.11,3.71-.32-.19-1.28-1.88.81-1.86-1.3-1.39-2.23,2.38-1.39,2.97-2.4,1.77-3.03-4.37-5.74-9.91-11.4-16.18-14.93-.85-.73-2.03-1.08-1.6-2.57.25-.86,1.18-1.75,1.87-2.99.89-1.61-1.82-3.22-2.48-4.47,3.46-4.03,10.15,4.51,9.97,7.67Z"/>
    <path class="cls-100" d="M88.44,123.04c1.9.27,2.6,2.13,2.55,3.88-.83,0-1.76-.29-2.58-.17.46,2.88-1.61,3.51-3.37,1.27-3.72-.08-4.23-1.11-1.54-3.08-1.69-1.76-.84-2.33,1.54-1.54.19-2.77,2.75-3.29,3.4-.36Z"/>
    <path class="cls-87" d="M29.49,61.89c4.16-1.53,9.67-1.58,13.78.09.17-1.26.6-1.14,1.25.13,2.26,4.75-.01,8.45-5.16,4.97-1.29,3.09-1.87,6.23-1.73,9.43-2.26.63-2.62,1.81-1.93,3.71,4.29.45,4.29,3.02,0,7.71,1.42.37,1.39.89,0,1.54,4.23.12,4.3,3.58.09,4.63-2,.2-3.62,1.44-4.72,3.08v-4.63c2.48-4.42.58-13.21,0-15.42-3,.23-.66-3.32-1.54-4.63-1.89-2.8-.48-6.53-2.81-9.04.92-.28,1.8-1.5,2.77-1.57Z"/>
    <path class="cls-41" d="M40.65,89.49c.92,1.72,2.68,2.5,4.45,3.07-.41,2-1.15,4.07-1.92,5.95-3.32.5-7.32-.71-7.39-4.41l-.09-4.63c1.43-2.72,3.13-2.61,4.95.02Z"/>
    <path class="cls-125" d="M32.62,124.73c-.15.72,1.76,1.96,1.41,2.59-.58,1.07-2.23.76-2.96.7.17,2.44-4.07,2.23-4.63,0-.58,0-2.17.23-2.69-.55-.24-.36.64-.79,1.15-.99l3.08-1.54,4.63-.21Z"/>
    <path class="cls-68" d="M83.52,115.83c-.45,1.58-2.16,2.49-3.15,3.89,1.55.89,2.44.42,3.18.38l-.05,1.76c-1.09,1.85-3.19,3.31-6.31,4.36-.52,2.41-1.39,2.09-1.61-.36.42-2.18-2.38-4.15-1.47-5.43,1.29-1.8,3.5-2.9,4.84-3.5-1.37-2.09.54-5.51,3.01-5.87,2.67-.5,3.45,3.37,1.56,4.76Z"/>
    <path class="cls-120" d="M83.52,115.83c.51-1.79-.28-3.91-1.56-4.76-1.33-.21-2.46.77-3.4,2.93l-2.09-.1-2.83-1.65c-1.85-1.08-.05-2.46,1.11-2.88.8-.28,1.65-.68,2.52-1.08,1.19-.55,2.2-2.71,3.82-2.38.18.04,4.32,4.3,4.32,7.31,0,.94-.08,3.22-1.89,2.6Z"/>
    <path class="cls-39" d="M81.96,111.06c.01,2.36-.72,4.85-3.01,5.87-.89-.94-1.39-2.4-2.48-3.03.32-1.4,1.22-2.42,2.38-3.53,1.46-1.4,2.85-2.44,3.11.69Z"/>
    <path class="cls-4" d="M75.59,125.86c.45.11,1.38-.55,1.61.36,2.15.49,4.25,1.1,6.31,1.81,1.35.44,1.33.95,0,1.54-1.59.92-3.3,1.61-5.04,2.18-1.36-.03-2.09-1.09-2.67-2.18s-1.96-1.47-3.08-1.54c.17-1.39,1.79-2.43,2.88-2.17Z"/>
    <path class="cls-3" d="M70.7,95.41c.54-1.06.22-3.44,1.77-3.03,1.35.16,2.74-.26,4.94.53-1.38,3.14-4.07,3.01-6.71,2.5Z"/>
    <path class="cls-124" d="M72.28,98.92c-.91-.35-.99-.68-.19-1.28,2.57-.6,5.46-.83,6.9,2.27-2.99,1.13-4.8-.26-6.7-.99Z"/>
    <polygon class="cls-30" points="31.07 128.02 32.61 131.11 26.44 131.11 26.44 128.02 31.07 128.02"/>
    <path class="cls-12" d="M55.98,58.67c.57,2.2,2.44,3.63,4.4,4.59,2.18,2.22,2.76,4.28,1.76,6.2,1.37,1,2.18,2.89,4.14,3.1,2.55.28,2.12,1.08-.26,1.99-.07,1.44-.76,1.55-1.98.53-1.53-4.16-6.49-5.34-9.97-7.67-.41-.79-.97-1.54-1.51-2.25-3.05.9-3.39-2.94.09-3.45-2.87-.43-2.3-1.58.47-2.58.88-.13,1.97-.53,2.85-.47Z"/>
    <path class="cls-13" d="M46.69,66.54c.03,1.91.2,3.84,1.02,5.58-.3.28-.84.24-1.22.43-3.37,3.63-9.44-1.35-7.14-5.47,2.51-.78,5.09-2.04,5.16-4.97-.03-1.54.88-1.56,1.98-.39,1.61.67,2.3,4.14.2,4.82Z"/>
    <path class="cls-58" d="M52.66,61.71c-.27.69-1.09,1.27-1.02,2.27.03.49.62.78.93,1.18.51.89-.5,1.45-1.42,2.01-.5.3-1.24.08-1.57-.83-2.22.11-2.14-2.53-1.54-4.63.4-1.55,3.94-1.73,4.63,0Z"/>
    <path class="cls-97" d="M49.58,66.34l-2.89.2-.2-4.82c.39-1.2.9-1.16,1.54,0,.84,1.42,1.32,3,1.54,4.63Z"/>
    <path class="cls-1" d="M27.91,10.66c.11,1.64-.46,4.34,1.68,4.72.02.84-1.06,1.24-1.22,1.91-1.11,2.28-4.6,2.69-4.9-.2-1.37-.38-1.39-.93-.1-1.63-1.35-.44-1.33-.95,0-1.54-.63-.9-.06-1.39,1.72-1.47-1.41-2.96.07-3.72,2.83-1.78Z"/>
    <path class="cls-20" d="M28.36,17.29l-.77,3.1c-1.59.18-3.14.54-4.71.83-.57-.8-.96-1.7-1.06-2.69-.35-.66.2-1.14,1.64-1.45l4.9.2Z"/>
    <path class="cls-121" d="M89.67,131.11h-3.08l-3.08-1.54v-1.54c.29-1.34.81-1.28,1.54,0,1.12-.36,2.18-1.11,3.37-1.27.11,1.53.5,3.02,1.26,4.36Z"/>
    <path class="cls-59" d="M28.06,4.8c.82,1.44,1.2,3.06,1.24,4.71l-1.39,1.15c-1.02.46-1.98,1.05-2.83,1.78-1.18.75-1.98.61-3.06-.28l-.19-6.08c1.62-1.71,4.05-1.52,6.23-1.28Z"/>
    <path class="cls-77" d="M22.02,12.16c1.45.27,1.89.85,1.34,1.74v1.54c-.35,1.33-2.25,1.14-3.08,0l-1.54-3.08,3.28-.2Z"/>
    <path class="cls-110" d="M46.49,80.22c-.44,1.31.34,3.13-.28,4.35l-7.43.28c.12,2.85.03,4.25-3.08,3.08-.58-2.36.84-5.45,0-7.71.28-2.31,4.03-2.35,4.63,0,1.4-3.94,3.16-4.37,6.31-1.66,0,.54.03,1.16-.14,1.66Z"/>
    <path class="cls-78" d="M40.65,89.49l-4.95-.02c0-.51.12-1.05,0-1.54.95-1.1,1.94-2.18,3.08-3.08.15,1.7.77,3.32,1.87,4.64Z"/>
    <path class="cls-95" d="M37.24,134.19v3.08c-1.96,2.88-6.19,1.24-9.25,1.54-4.1-.49-3.92-1.91,0-3.08v-1.54c2.15-1.19,6.88-1.18,9.25,0Z"/>
    <path class="cls-70" d="M27.99,135.74v3.08c-1.53.15-3.09-.04-4.63,0-.76-.72-1.99-1.25-2.48-2.36-.37-.84.94-1.59.94-2.26,1.83,1.19,4.01,1.58,6.17,1.54Z"/>
    <path class="cls-76" d="M37.24,132.65v1.54h-9.25c-1.1.03-2.75.61-3.16-1.33l12.41-.21Z"/>
    <path class="cls-102" d="M46.5,72.55c.09,2,.16,4,.14,6.01-1.89,1.24-4.07,1.66-6.31,1.66-1.82-1.71-2.43-1.79-4.63,0-.97-2.46-1.91-4.66-1.22-8.25.38-1.96,2.18-4.06,4.88-4.89,2.32,1.9,4.45,4.1,7.14,5.47Z"/>
    <path class="cls-117" d="M23.46,17.08c-.23.76-.88,1.27-1.64,1.45l-1.54-1.54c.47-1.28,2.4-1.1,3.18.09Z"/>
    <path class="cls-122" d="M31.07,92.56v-15.42c.23-1-.32-2.71,1.4-3.16-1.31,10.31,4.17,17.7-1.4,18.58Z"/>
    <path class="cls-69" d="M23.36,15.45l.1,1.63-3.18-.09c-.11-.47.21-1.12,0-1.54h3.08Z"/>
    <path class="cls-105" d="M75.35,78.31l1.98.37c.72.47.7.99,0,1.54l1.54,1.54c.74,2.15-1.25,7.77-4.08,5.74,5.6,4.03-22.43-18.48-10.75-12.42.65-.21,1.31-.38,1.98-.53,1.15-2.08,2.9-3.03,3.7-.54,2.31-1.47,4.86,1.94,5.64,4.3Z"/>
    <path class="cls-6" d="M78.88,80.22c.09.49-.16,1.07,0,1.54-.48-.01-1.15.12-2.22-.01-1.14-.14-1.09-1.55.68-1.53.47-.82.98-.8,1.54,0Z"/>
    <path class="cls-72" d="M75.35,78.31c-2.38-.44-4.35-2.22-5.64-4.3-1.7-1.77-.99-2.77,1.42-2.78,2.82,1.04,5.55,3.85,4.23,7.08Z"/>
    <path class="cls-73" d="M71.13,71.23c-.55.89-1.02,1.81-1.42,2.78-1.24.08-2.48.27-3.7.54.09-.52-.18-1.61.26-1.99,1.12-.96,2.21-2.06,3.42-2.9.93-.64,1.18,1.19,1.43,1.57Z"/>
    <path class="cls-18" d="M83.5,121.86c.86.05,1.76.53,1.54,1.54l-1.54,1.54c.52,2.32-5.69,3.93-6.31,1.27,1.19-2.25,3.63-4.5,6.31-4.36Z"/>
    <path class="cls-88" d="M83.5,124.94l1.54,3.08c-.45.14-1.07,0-1.54,0-1.87,0-3.62.63-5.67,1.09-.58-1.32-.46-2.17-.64-2.9,2.35,1.02,4.11-1.12,6.31-1.27Z"/>
    <path class="cls-24" d="M25.08,12.44l-1.72,1.47-1.34-1.74c1.02-.06,2.04.26,3.06.28Z"/>
    <path class="cls-35" d="M40.32,80.22h-4.63c.06-.78-.2-1.59.04-2.11.6-1.34,2.46-1.23,3.79-.94,1.11.25.89,1.97.8,3.04Z"/>
    <g>
      <path class="cls-45" d="M51.12,19.89c1.14,1.91,1.14,4.03,0,6.35,2.22.84,3,4.32,1.35,6.12,1.95,4.4-3.12,5.81-6.07,3.27-2.22,2.65-4.76,4.14-7.61,4.48-4.82,5.11-18.4,1.14-15.34-6.17-1.76,1.86-2.86,1-3.16-1.54-2.48,2.56-6.32,3.44-8.67.59-1.51,1.73-4.6,4.45-6.91,3.68-7.46,2.44-1.59-8.56,4.78-8.9l3.11-1.56c1.41-1.78,4.14-1.64,6.14-1.52l2.06-.24c3.71-2.16,4.7-.79,2.69,3.04,2.14,1.33,5.47,1.84,7.36.05-1.45-.43-1.33-.88.19-1.34-1.8-3.86.96-5.88,4.76-4.34.09-2.74.65-4.82,1.67-6.24,5.27-1.18,9.58,1.08,13.65,4.27Z"/>
      <path class="cls-57" d="M13.9,43.5c1.83-.96,2.55.01,3.19,1.79,1.38.25,1.37.75.08,1.48,3.34,2.67,2.99,3.82-1.24,3.95,2.34.9,3.27,2,2.8,3.29,2.39,1.13,2.94,2.84,0,3.08l-1.56.03c-5.34-3.44-9.65-7.85-12.26-13.73-1.09-1.8-.41-3.66,1.71-2.91,3.55-2.07,6.32-1.06,7.29,3.02Z"/>
      <path class="cls-116" d="M74.23,38.48c.49-.15,1.11.13,1.62.04,2.96-.6,3.57,1.08,1.16,3.01-1.66,2.88-4.85,2.18-7.37,3.23-5.58,1.64-16.83,1.92-10.56-4.64-2.53-1.09-1.89-4.02.8-4.79.51-2.33,1.43-2.06,2.37.09,2.45-2.08,3.94-.7,5.33,1.51,2.72-.74,4.78-1.19,6.65,1.53Z"/>
      <path class="cls-113" d="M74.23,38.48c-2.09.62-4.07,1.41-6.82,1.43-2.19.02-3.19-2.86-5.16-4.48l-.08-.93c2.4-.9,4.78-2.68,7.59-1.57,2.19.87,4.15,2.89,4.47,5.54Z"/>
      <path class="cls-54" d="M27.59,20.39c-.47,2.55,1.08,4.87,3.44,5.81-.14.43-.31.89-.19,1.34-1.89,1.66-5.2,1.43-7.36-.05-.48-1.22-1.95-2-2.69-3.04.93-.11,1.6-.53,1.85-1.16.26-.67.51-1.69.24-2.08.32-2.88,3.37-3.31,4.71-.83Z"/>
      <path class="cls-31" d="M34.34,57.1c-.83,1.38-2.44,2.4-4.81,3.08,1.34.53,1.3,1.1-.04,1.72,1.27,3.81.31,4.12-2.77,1.57-.75-.2-1.83-.71-2.32-1.55-.33-.57.19-1.9-.14-2.97-2.78-.21-5.08-.54-7.08-1.82l1.56-.03c-.05-1.65,1.48-1.89,4.58-.71l4.67-.83c2.44-3.42,4.88-2.21,6.35,1.55Z"/>
      <path class="cls-56" d="M9.48,27.79c-1.35,2.54-7.81,2.37-7.08,6.68.16.93,1.56,1.34,2.3,2.21,1.66,1.45,1.2,3.69-1.39,6.71-4.1-1.69-3.91-6.77-2.02-10.58,1.48-3,4.43-5.52,8.19-5.03Z"/>
      <path class="cls-22" d="M94.56,38.4c-1.74,1.42-4.56,1.38-6.43.18-1.19-2.16-1.39-6.16,1.54-6.17,1.44.04,3.54-.53,4.36,1.04s.87,3.34.53,4.95Z"/>
      <path class="cls-60" d="M89.67,32.41c-1.14,1.86-1.58,4.01-1.54,6.17-.45,1.01-.97.99-1.54,0-2.3.35-2.22-.71.25-3.18-3.28.45-3.84-2.01-1.8-4.53.56-1.22,1.98-2.56,3.27-1.94,1.2.58.77,2.89,1.36,3.48Z"/>
      <path class="cls-115" d="M11.61,34.99c1.58,3.68-1.46,5.72-4.99,5.49-.24.95-1.9,1.66-1.71,2.91h-1.59c0-2.3.68-4.57,1.39-6.71,1.9-1.71,4.24-3.51,6.91-3.68,3.47.34,3.47,1.59,0,1.99Z"/>
      <path class="cls-8" d="M85.04,30.87c.93,1.36,1.55,2.9,1.8,4.53-1.95,2.46-3.06,4.55-3.34,6.27-1.34,2.89-4.64-.13-6.49-.13-.65-.88-.93-1.95-1.16-3.01.53-.46,1.02-.95,1.48-1.48l4.69-6.28c.89-.33,2.09.33,3.02.11Z"/>
      <path class="cls-99" d="M77.33,37.04c.28-1.33-.18-3.11.57-3.89,1.1-1.14,2.95-1.96,4.12-2.39-.58,2.37-.43,4.56-.13,7.98l-4.56-1.7Z"/>
      <path class="cls-40" d="M57.29,29.33c.94,1.19.48,1.67-1.16,1.54.29,3.01-.97,2.99-1.93,0-1.24-.65-1.48-3.03-1.54-4.63-2.46-1.57-1.09-5.91,1.54-3.08,1.66,1.71,1.76,4.38,3.08,6.17Z"/>
      <path class="cls-56" d="M18.73,24.7c-1.58.95-.69,4.33-3.06,4.75-2.06.1-1.03-1.87-1.05-2.43-.03-.87-1.47-.97-2.03-.8.42-1.31,1.28-2.5,2.61-2.92,1.41-.45,2.72.23,3.53,1.39Z"/>
      <path class="cls-96" d="M62.18,34.5l.08.93c-.72-.21-1.67.18-2.37-.09-2.65,2.39-3.26.59-3.53-2.57-1.56-.07-1.55-.95-.23-1.89.45-.46.84-.98,1.16-1.54,1.47,1.68,4.66,2.49,4.89,5.17Z"/>
      <path class="cls-15" d="M54.2,23.16c-1.27-.4-2.15,2.3-1.54,3.08-.45,1.17-.96,1.15-1.54,0-1.39-1.96-.68-4.2,0-6.35,1.33,1.04,1.97,2.13,3.08,3.27Z"/>
      <path class="cls-109" d="M37.47,15.62c.21,2.28-.03,4.57-1.67,6.24-.1-2.3-.51-4.58-1.5-6.67,1,.04,2.19.65,3.17.43Z"/>
      <path class="cls-44" d="M69.65,44.77c-2.42,1.01-5.54,2.21-8.3,1.99-.85,2.69-1.69,3.74-3.17.88-3.97,1.3-5.68,1.43-3.98-2.89-1.52-1.18-.37-2.83,1.54-3.08.63-2.84,1.36-4.19,3.34-1.54-.57,1.48.05,3.32,2.19,4.03,3.03,1,5.81.59,8.37.61Z"/>
      <path class="cls-50" d="M54.5,53.84c.77,1.52,1.06,3.2,1.48,4.83,0,3-1.4,3.16-2.85.47-.6,2.04-3.9,2.13-5.38.77-5.32-3.27.68-6.15,4.5-7.26.83.18,1.58.71,2.25,1.19Z"/>
      <path class="cls-37" d="M86.59,38.58c1.35.44,1.33.95,0,1.54-1.04,0-2.61.52-3.08,1.54-.84.32-3.53.06-2.88-1.16,1.62-3.06,4.51-3.6,6.22-5.1l-.25,3.18Z"/>
      <path class="cls-56" d="M38.78,40.12c2.58,1.41,1.3,3.07-1.43,2.9,1.82,3.2-5.32,5.77-6.15,2.56-2.5,3.09-5.68,1.27-4.75-2.37-3.63,1.04-5.41,1.15-4.63-3.08-2.27,2.22-3.18,1.26-1.54-1.54-1.29-2.35.59-5.63,3.16-4.63.76,7.64,11.77,4.69,15.34,6.17Z"/>
      <path class="cls-10" d="M52.47,32.37c.53-1.34,1.11-1.3,1.74.04,1.77,1.33.97,6.95,0,9.25-.44,1.35-.95,1.33-1.54,0-2.32-1.43-4.68-2.59-7.08-3.48-2.8-.56-1.7-2,.81-2.54,2.17-.19,4.04-2.58,6.07-3.27Z"/>
      <path class="cls-62" d="M46.39,35.64c-.42.6-.14,2.15-.81,2.54,2.41,1.3,1.64,1.9-1.09,1.82,1.75,1.67.79,2.66-2.89,2.95,1.05,2.03-1,2.7-2.74,1.58-2.15,2.05-2.94,1.21-1.52-1.51.49-.67,1.11-2.07,1.43-2.9,1.3-3.33,4.14-4.97,7.61-4.48Z"/>
      <path class="cls-81" d="M20.28,32.41c1.53,2.17.78,3.33-1.84,2.93-2.1,4.69-8.05,5.85-6.82-.35.69-.35.74-1.68,0-1.99,2.89-.18,5.8-.09,8.67-.59Z"/>
      <path class="cls-61" d="M23.44,33.96l-3.16,4.63c-2.17,2.04-2.96,1.18-1.54-1.54-1.41-.26-1.49-.83-.3-1.7.56-1.01,1.17-1.99,1.84-2.93,1.05-.18,3.02.17,3.16,1.54Z"/>
      <path class="cls-42" d="M54.2,30.87c1.31.38,1.28.9,0,1.54l-1.74-.04c.03-2.08-.1-4.36-1.35-6.12h1.54c1.06,1.36,1.85,2.77,1.54,4.63Z"/>
      <path class="cls-56" d="M30.84,27.54c.65,2.54-2.08,1.76-3.74,1.9s-2.94-.2-3.62-1.95c2.45.26,4.91.25,7.36.05Z"/>
      <path class="cls-51" d="M18.43,35.34l.3,1.7c1.66,3.27-1.59,6.34-4.83,6.46-2.6-.26-5.44-1.12-7.29-3.02.66-2.61,2.61-4.29,4.99-5.49,2.18,1.34,4.92,2.62,6.82.35Z"/>
      <path class="cls-65" d="M20.28,46.29c3.82-1.44,9.46-1.56,6.17,3.08,1.64,1.61.94,4.07-1.54,3.08-2.97,1.16-6.62.51-8.97-1.74-.01-1.28,1.32-2.67,1.24-3.95.51-1.74,2.22-2.31,3.1-.47Z"/>
      <path class="cls-85" d="M20.28,38.58c.42.42.94,1.42,1.54,1.54,3.8,2.74-1.38,5.26-4.72,5.16-.51.67-1.41.81-2.11.32-.61-.44-.86-1.3-1.08-2.11.63-2.77,2.9-4.5,4.83-6.46l1.54,1.54Z"/>
      <path class="cls-49" d="M26.44,43.21c1.61,2.52-.44,3.55-6.17,3.08-.78.56-2.23.05-3.1.47l-.08-1.48c1.46-2.1,4.93-2.4,4.72-5.16,2,.39,3.11,2,4.63,3.08Z"/>
      <path class="cls-89" d="M27.99,54c1.35.44,1.33.95,0,1.54-2.5,2.34-6.08,1.48-9.25,1.54v-3.08c.44-1.35.95-1.33,1.54,0l2.96.69c2.12-1.31,3.71-1.54,4.75-.69Z"/>
      <path class="cls-16" d="M24.9,52.46c.61,2.86-2.3,2.77-4.63,1.54h-1.54c-.9-.93-2.56-1.9-2.8-3.29l8.97,1.74Z"/>
      <path class="cls-106" d="M59.89,35.34c-.02,1.63-.21,3.26-.8,4.79l-3.34,1.54c-1.23-2.67-1.37-6.74.62-8.9,1.07.98,2.15,2.03,3.53,2.57Z"/>
      <path class="cls-63" d="M49.34,51.32c.79.79,1.84,1.11,2.9,1.33,1.95,2.91-4.86,3.59-4.5,7.26.17,1.43-3.42,1.64-4.34.26-3.55,1.39-10.07,1.18-13.88,0-2.37-3.23,4.12-1.38,4.81-3.08,1.29-4.97,3.26-5.01,7.65-3.12-1.49-4.07,4.97-4.21,7.35-2.66Z"/>
      <path class="cls-26" d="M37.66,47.98c2.77-.41,5.38,2.98,4.33,6-2.47,1.17-4.76,2.81-7.65,3.12-2.21-.04-4.43-.42-6.35-1.55v-1.54c-3.25.51-1.17-2.77.3-4.63-1.98-3.75-.63-4.77,3.08-2.82,5.04.46.83,2.51.77,1.09-.02-.56,5.48-3,5.54.33Z"/>
      <path class="cls-32" d="M43.41,60.17c3-.05,2.9,1.16-.14,1.81-4.58-.41-9.19-.42-13.78-.09l.04-1.72h13.88Z"/>
      <path class="cls-29" d="M56.36,32.77c-.54,2.93-.72,5.92-.62,8.9-.46.9-.98.88-1.54,0v-9.25c0-.5-.08-1.05,0-1.54h1.93c.23.6.35,1.25.23,1.89Z"/>
      <path class="cls-27" d="M58.19,47.64c-2.31,1.43-5.02,2.95-7.79,3.47-3.19.17-3.3-1.26-.34-2.68.2-1.32.63-1.33,1.3-.12l1.3-3.55c.44-1.35.95-1.33,1.54,0,.97,1.38,2.33,2.46,3.98,2.89Z"/>
      <path class="cls-83" d="M55.74,41.67l-1.54,3.08h-1.54c-1.29-.44-1.13-2.25,0-3.08h3.08Z"/>
      <path class="cls-84" d="M50.06,48.42c-.04.91.06,1.82.34,2.68-.34.06-.76.05-1.06.21-2.28,1.22-5.06,1.57-7.35,2.66-3.04-.25-3.18-3.61-4.33-6-.66-1.25-.28-1.81,1.12-1.68.44-1.35.95-1.33,1.54,0l3.64.76c3.24-.89,5.27-.43,6.1,1.37Z"/>
      <path class="cls-7" d="M52.66,61.71h-4.63c-.51,0-1.05-.1-1.54,0l-1.98.39c-.4.08-.84-.09-1.25-.13l.14-1.81,4.34-.26c1.82-.11,3.59-.51,5.38-.77-.23.82-.16,1.78-.47,2.58Z"/>
      <path class="cls-14" d="M31.2,45.58l.16.97c-1.28.63-2.43,1.53-3.08,2.82-.39,2.66-1.21,2.71-1.84,0-.84-2.63-3.61-3.47-6.17-3.08,1.91-1.38,4.44-1.42,6.17-3.08,1.25.89,3.28,1.99,4.75,2.37Z"/>
      <path class="cls-108" d="M38.87,44.53c1.33.56,1.28,1.15-.08,1.76-.21.63-.74,1.15-1.12,1.68-2.1-.15-3.87.35-6.36,1.44-.08-1.64,1.09-2.22.06-2.87-.16-.19-.07-.7-.16-.97,2.16.56,4.48-1.49,6.15-2.56l1.52,1.51Z"/>
      <path class="cls-127" d="M52.66,41.67c-.44,1.35-.95,1.33-1.54,0-.62,2.92-6.22,1.23-6.63-1.66.38-.42.31-1.37,1.09-1.82l4.75.27c1.8.1,2.74,1.18,2.32,3.21Z"/>
      <path class="cls-21" d="M51.12,41.67c1.24.4,1.1,2.29,0,3.08.33,2.79-4.23,2.85-4.62.08-2.44-.04-4.07-.66-4.89-1.88.75-1.09,2.03-2,2.89-2.95l6.63,1.66Z"/>
      <path class="cls-118" d="M46.5,44.83c.87,3.14-3.81,2.91-6.17,1.46h-1.54c.18-.54-.05-1.21.08-1.76.72-.65,2.18-.76,2.74-1.58,1.79.07,4.11-.06,4.89,1.88Z"/>
      <path class="cls-82" d="M27.99,54c-2.37,1.63-5.75,2.54-7.71,0,1.71.15,3.77.21,4.63-1.54,1.19-.54,1.57-1.86,1.54-3.08h1.84s-.3,4.63-.3,4.63Z"/>
      <path class="cls-101" d="M46.5,44.83l4.62-.08c1.41.1.75,2.25.24,3.55-.42.16-.87.1-1.3.12-3.58.15-7.94,1.65-9.73-2.13l6.17-1.46Z"/>
      <path class="cls-34" d="M52.66,44.75c-.08,1.32-.12,2.73-1.3,3.55l-.24-3.55v-3.08h1.54c-.2.97.06,2.09,0,3.08Z"/>
    </g>
    <g>
      <path class="cls-112" d="M95.92,48.53c-4.74-.69-5.77-1.56-1.96-2.75,3-2.71,5.06.75,1.96,2.75Z"/>
      <g>
        <path class="cls-53" d="M80.61,80.21h-1.73s-1.54-1.53-1.54-1.53c-1.43,2.32-1.97,2.45-1.98-.37-2.19-2.28-3.6-4.64-4.23-7.08-2.2,1.16-2.89.33-1.43-1.57-2.97.41-3.02-.78-.08-1.78,5.47,1.27,9.91,6.74,10.99,12.32Z"/>
        <path class="cls-92" d="M85.19,104.89c-3.44-5.13-4.63-12.9-2.06-18.51,1.73,6.13,1.69,12.25,2.06,18.51Z"/>
        <path class="cls-75" d="M69.62,67.88l.08,1.78c.04,2.56-.97,3.85-3.42,2.9-1.94,1.78-4.13-.81-4.14-3.1-1.46-2.62-.11-5.05,2.86-3.12-.68-.48-.66-.99,0-1.54,1.35.82,3.71,1.61,4.63,3.08Z"/>
        <path class="cls-23" d="M65,64.8v1.54c-2.29,2.57-4.01-.28-4.63-3.08-3.35,4.09-8.22-.76-4.4-4.59,3.82.26,6.67,3.4,9.02,6.13Z"/>
        <path class="cls-28" d="M88.44,123.04l-3.4.36c-1.86,1.08-2.62.38-1.54-1.54-2.99.19-2.95-.99.05-1.76,2,.27,3.45-1.18,4.3-2.87.39,1.65,2.52,3.34.58,5.81Z"/>
        <path class="cls-71" d="M78.88,80.22h-1.54v-1.54c.77.14,1.39.75,1.54,1.54Z"/>
        <path class="cls-93" d="M65,66.34l-2.86,3.12c-2.05-1.51-2.18-3.72-1.76-6.2l4.63,3.08Z"/>
        <g>
          <path class="cls-43" d="M98.58,40.55c.15.65-1.07,2.56-1.96,2.49-.99-.08-1.3-2.65-2.02-2.93-1.45-.3-1.39-.88-.03-1.71,1.21-.1,2.93-1.3,3.68-.82.87.56.38,2.47.34,2.97Z"/>
          <path class="cls-17" d="M54.5,53.84c-.96,2.43-1.71,2.03-2.25-1.19-2.59,3.52-3.83,2.95-2.9-1.33-.29-1.4.08-1.41,1.06-.21,1.92-2.71,3.97-5.35,7.79-3.47.89-.07,2.35-.53,3.17-.88-.17,1.68-.1,3.67-1.04,5.06-1.3,1.92-3.76,2.06-5.81,2.02Z"/>
          <path class="cls-107" d="M94.56,38.4c-.06.57-.04,1.14.03,1.71h-8.01s0-1.53,0-1.53h1.54c2.15,0,4.29,0,6.43-.18Z"/>
        </g>
      </g>
    </g>
  </g>
</svg>