<?xml version="1.0" encoding="UTF-8"?>
<svg id="Player" xmlns="http://www.w3.org/2000/svg" viewBox="0 0 117.72 126.47">
  <defs>
    <style>
      .cls-1 {
        fill: #0c1d30;
      }

      .cls-2 {
        fill: #11233a;
      }

      .cls-3 {
        fill: #b05923;
      }

      .cls-4 {
        fill: #98a3a5;
      }

      .cls-5 {
        fill: #0a1321;
      }

      .cls-6 {
        fill: #f2ca9b;
      }

      .cls-7 {
        fill: #93956b;
      }

      .cls-8 {
        fill: #080d11;
      }

      .cls-9 {
        fill: #c3c2a6;
      }

      .cls-10 {
        fill: #ce6943;
      }

      .cls-11 {
        fill: #da7150;
      }

      .cls-12 {
        fill: #3b4251;
      }

      .cls-13 {
        fill: #09121b;
      }

      .cls-14 {
        fill: #3b4869;
      }

      .cls-15 {
        fill: #dbd8cb;
      }

      .cls-16 {
        fill: #93592a;
      }

      .cls-17 {
        fill: #010104;
      }

      .cls-18 {
        fill: #132236;
      }

      .cls-19 {
        fill: #020e11;
      }

      .cls-20 {
        fill: #040c0d;
      }

      .cls-21 {
        fill: #122142;
      }

      .cls-22 {
        fill: #c76338;
      }

      .cls-23 {
        fill: #999e9c;
      }

      .cls-24 {
        fill: #e9745a;
      }

      .cls-25 {
        fill: #14202a;
      }

      .cls-26 {
        fill: #19274d;
      }

      .cls-27 {
        fill: #2b2c35;
      }

      .cls-28 {
        fill: #182221;
      }

      .cls-29 {
        fill: #445075;
      }

      .cls-30 {
        fill: #20222d;
      }

      .cls-31 {
        fill: #de7554;
      }

      .cls-32 {
        fill: #79878c;
      }

      .cls-33 {
        fill: #929368;
      }

      .cls-34 {
        fill: #2c3b58;
      }

      .cls-35 {
        fill: #fbc28c;
      }

      .cls-36 {
        fill: #e6e7e2;
      }

      .cls-37 {
        fill: #f5cb99;
      }

      .cls-38 {
        fill: #364465;
      }

      .cls-39 {
        fill: #af8375;
      }

      .cls-40 {
        fill: #292123;
      }

      .cls-41 {
        fill: #0d1d35;
      }

      .cls-42 {
        fill: #021014;
      }

      .cls-43 {
        fill: #2d373d;
      }

      .cls-44 {
        fill: #94956a;
      }

      .cls-45 {
        fill: #e37b56;
      }

      .cls-46 {
        fill: #0d1013;
      }

      .cls-47 {
        fill: #020e14;
      }

      .cls-48 {
        fill: #f2f7f2;
      }

      .cls-49 {
        fill: #b6b796;
      }

      .cls-50 {
        fill: #11203d;
      }

      .cls-51 {
        fill: #394146;
      }

      .cls-52 {
        fill: #0f1319;
      }

      .cls-53 {
        fill: #aea27c;
      }

      .cls-54 {
        fill: #021015;
      }

      .cls-55 {
        fill: #989b6e;
      }

      .cls-56 {
        fill: #04060b;
      }

      .cls-57 {
        fill: #05151f;
      }

      .cls-58 {
        fill: #f99d5b;
      }

      .cls-59 {
        fill: #f5a67a;
      }

      .cls-60 {
        fill: #24282b;
      }

      .cls-61 {
        fill: #f9a87d;
      }

      .cls-62 {
        fill: #0c141f;
      }

      .cls-63 {
        fill: #c2c3a4;
      }

      .cls-64 {
        fill: #1d2a54;
      }

      .cls-65 {
        fill: #324064;
      }

      .cls-66 {
        fill: #a8b9bb;
      }

      .cls-67 {
        fill: #384666;
      }

      .cls-68 {
        fill: #112139;
      }

      .cls-69 {
        fill: #c2c6b0;
      }

      .cls-70 {
        fill: #382d2e;
      }

      .cls-71 {
        fill: #1f2a51;
      }

      .cls-72 {
        fill: #373549;
      }

      .cls-73 {
        fill: #bbbda0;
      }

      .cls-74 {
        fill: #121114;
      }

      .cls-75 {
        fill: #bb5d36;
      }

      .cls-76 {
        fill: #2a3538;
      }

      .cls-77 {
        fill: #0c161d;
      }

      .cls-78 {
        fill: #1c2950;
      }

      .cls-79 {
        fill: #d56c49;
      }

      .cls-80 {
        fill: #364261;
      }

      .cls-81 {
        fill: #0a1418;
      }

      .cls-82 {
        fill: #42516e;
      }

      .cls-83 {
        fill: #e4e5dc;
      }

      .cls-84 {
        fill: #172648;
      }

      .cls-85 {
        fill: #e4e4da;
      }

      .cls-86 {
        fill: #f6d3a0;
      }
    </style>
  </defs>
  <path class="cls-83" d="M75.92,21.58c-.44-1.35-.95-1.33-1.54,0-3.27,2.8-3.91,6.8-1.91,12-2.79.7-3.77,1.64-4.15,4.69l-1.75,1.58c-.32,2.01,1.79,3.21,6.31,3.6-2.06,4.15,1.47,6.1,4.59,2.66-.06,1.34.35,1.95,1.22,1.84.98,2.84,2.34,4.88,4.07,6.14.92.78,2.16.49,3.71-.87-.22-3.48.72-5.99,2.83-7.54-.47-2.6-.19-5.4.83-8.4,4.79-.6,7.25-2.1,7.38-4.52,6.01-1.44,5.9-3.66.31-5.01-1.27-1.03-4.31-1.62-4.36-.45-.14,3.82-1.31,3.51-1.23,3.3,2.23-1.46,1.43-1.81-2.42-1.05-2.2-4.54-4.68-6.75-7.46-6.63,1.21-4.17-.91-4.63-3.33-1.18-.73-1.66-1.88-1.24-3.1-.16Z"/>
  <path class="cls-85" d="M97.85,26.12c-2.38.24-2.36,1.21-.04,1.63.55.48,2.45,1.47,2.07,2.18-.53.98-2.13,1.99-2.38,2.83.1,2.05,1.7,2.07,4.8.05-3.12.78-8.3,2.36-6.3,5.84-2.48-.44-5.11.68-3.02,2.97-3.13,5.79,2.94,8.04,6.08,2.79,2.63-1.26,6.57-1.1,7.71,1.84.16,3.11,1.71,3.09,3.1.21,2.75-6.28,2.29-10.41-1.38-12.4-4.03-2.23-6.37-6.22-10.63-7.95Z"/>
  <path class="cls-59" d="M51.89,13.6c-1.38.1-1.29.47.09,1.09-1.12,2.72,1.07,4.9,3.51,2.55l1.93-.28c2.06-.41,3.6.1,4.65,1.54,2.84,1.35,4.39,4.73,7.65,5.08,2.81,3.01,4.17,1.91,3.13-2-1.11-2.09-3.77-5.34-6.17-6.17-1.92-2.37-1.81-3.97.33-4.79,3.12,1.69,5.83,2.25,5.84-2.48-.09-1.03-.16-2.51-1.14-3.13s-2.4-.26-3.48-.12c-2.77-1.23-5.83-1.83-9.16-1.81-.33-2.34-1.52-2.12-2.01.3-3.23,1.25-5.66,6.67-5.14,10.22Z"/>
  <path class="cls-13" d="M63.55,121.82c1.64,3.57,8.73,2.73,12.37,1.54,4.19.3,4.71-.73,1.54-3.08l-1.21-1.51c-4.03.96-6.19.44-6.5-1.57,1.35-.44,1.33-.95,0-1.54,4.71-5.3,5.58-8.85,2.62-10.65-3.16-1.47-4.06-3.05-2.68-4.73-1.08-1.76-2.61-2.8-4.57-3.13.73,4.64-1.6,9.02-2.28,14.02-.51,3.75,1.55,7.38.7,10.66Z"/>
  <path class="cls-6" d="M67,10.62c.51,4.03,2.46,7.69,5.84,10.96.44,1.35.95,1.33,1.54,0h1.54c2.02-.57,3.56-2.17,4.61-4.8,2.38,1.83,3.02.81.97-1.54-3.16-2.14-4.98-5.88-8.66-7.1-1.86,1.37-5.13-.44-5.84,2.48Z"/>
  <path class="cls-32" d="M.36,94.06c2.88,1.61,6.67,2.1,5.16-1.7,3.46,1.04,4.89-2.92,5.97-5.98,3.92-1.21,7.89-4.71,9.54-8.79,3.58,1.14,5.28-.91,2.45-3.78-7.22-.46-9.91,3.41-14.37,9.39-2.23,2.99-10.97,5.55-8.75,10.86Z"/>
  <path class="cls-7" d="M69.71,23.57c-1.79,4.69-1.21,9.75-1.39,14.7,2.77-.75,5.33-1.76,8.82-3.39-2.79-4.07-3.44-8.7-2.76-13.3h-1.54c-.69,1.11-1.86,1.76-3.13,2Z"/>
  <path class="cls-77" d="M23.48,73.81c-.72,1.32-1.51,2.6-2.45,3.78-2.6,2.61-3.39,4.94-2.36,7.01-1.68.74-1.79,1.27-.07,1.83,2.32.91,4.84,1.59,7,2.89,1.27-.65,1.18-1.2-.22-1.64.32-3.73,2.27-6.89,5.86-9.48.92,3.06,4.27,1.88,4.5-1,1.45-.22,1.42-.78.1-1.65-4.31.12-8.22-1.48-12.35-1.74Z"/>
  <path class="cls-11" d="M88.21,69.18c-1.24,1.88-1.74,4.52-1.49,7.91-1.35.09-1.03,1.01.21,1.75,4.65-.37,10.13-.14,13.68-3.51,1.73-3.65.55-4.03-2.49-1.45.02-2.32-.73-3.8-2.25-4.44,1.56-2.77-.75-3.7-2.98-1.6-1.38-2.25-4.32-1.23-4.68,1.34Z"/>
  <path class="cls-80" d="M79.37,84.53c-1.68-5.05-5.01-.54-3.63,2.99.22,2.66,2.23,2.15,3.41.2-.22,3.96-1.48,7.73-3.78,11.31l2.37,2.84c-1.89,1.19-3.57,4.01-.29,4.52.56,1.28,1.03,1.15,1.42-.26,4.53-4.59.7-9.46,4.46-13.59,1.55-2.21,1.27-5.91-.09-7.97-.38-4.79-2.55-4.85-3.87-.03Z"/>
  <path class="cls-9" d="M106.76,46.25c-3.07-.17-3.27,1.7-.27,2.78-1.01,2.3-2.51,3.76-4.49,4.38l1.83,3.38c-.58.79-.05,1.36,1.59,1.7,1.77,1.51,4.57,2.24,6.07.06,3.69-2.22,3.73-8.73-.01-10.78q-.81,6.83,0,0c-.05-.4.28-.93.15-1.31-.6-2.66-1.1-2.69-1.76-.02-1.03-.01-2.06-.21-3.1-.21Z"/>
  <path class="cls-25" d="M35.83,75.55c4.51,1.07,9.13,1.58,13.88,1.54-.33,2.55,2.81,2.94,4.63,1.54,4.54,1.75,7.72-2.31,2.84-4.9,2.79-.72,2.66-1.9-.19-2.57.34-1.41.39-2-1.1-1.78-3.37,9.86-19.49,1.13-20.05,6.17Z"/>
  <path class="cls-46" d="M51.98,14.69c-2.64-.93-5.15,1.34-7.52,6.82-2.85.27-4.7,1.33-5.55,3.16-3.28.06-3.22,2.4,0,3.08.73,0,2.27-.24,2.94-.58,3.19.12,4.78-.75,4.78-2.61,2.35,1.58,5.64,2.34,5.8-1.15.93-2.11,2.71-3.79,3.06-6.17-1.84.1-1.56-3.26-3.51-2.55Z"/>
  <path class="cls-79" d="M105.42,58.5c-2.55-1.38-6.75-1.12-9.46.24-.09-3-1.28-2.85-1.79.22-4.61-.96-6.53,2.94-2.54,5.59-1.14,2.79.05,3.14,1.81.55,1.46,3.17,2.67,2.34,4.61-.22,3.59-2.64,7.01-3.41,10.24-2.3l1.56-.91,1.64-3.11c-2.02.38-4.05-.11-6.07-.06Z"/>
  <path class="cls-54" d="M35.52,89.25c-1.36.33-1.32.81.01,1.44,8.48.15,17.3,4.65,24.97.29,2.08-1.76-1.85-3.97-3.08-1.54-2.41-2.18-6.17-2.93-11.28-2.26-5.36-2.2-8.9-1.51-10.62,2.07Z"/>
  <path class="cls-78" d="M65.13,43.17c-2.28,1.16-4.8,3.67-4.34,6.17v1.54c.06,3.92,1.88,8.15,5.88,4.63,4.46-.15,4.11-1.71.24-3.31,4.63-.55,6.61-5.92,2.55-8.73-1.14-1.91-3.61-2.73-4.34-.3Z"/>
  <path class="cls-61" d="M98.05,64.88c-2.8.84-4.59,2.31-2.18,4.56-.33,1.96.3,3.84,2.25,4.44,3.07-.14,3.56-1.36.83-2.91,2.19-3.12,5.15-5.37,8.88-6.76.35-.93,1.54-1.62,2.02-2.54-1.83-1.17-3.91-1.8-6.53-1.3-1.98.39-4.22,2.31-5.27,4.5Z"/>
  <path class="cls-86" d="M52.79,3.23c-1.19,3.29-4.51,5.63-4.64,9.31.09,3.26,1.63,3.43,3.75,1.05,3.76-1.85,4.64-6.31,5.14-10.22-.2-2.61-2.48-1.75-4.25-.14Z"/>
  <path class="cls-15" d="M81.5,15.24l-.97,1.54c-1.88,1.78-2.38,3.43-1.51,4.96l3.33,1.18c2.52,2.96,4.7,1.72,5.99-1.64.5,2.07,2.31,2.95,3.02.51-2.14-4.03-5.22-9.7-9.85-6.56Z"/>
  <path class="cls-71" d="M63.58,60.13c-.12-4.47-1.51-3.91-3.23,0,.07.5-.14,1.05-.02,1.54-2.08,3.04-3.19,6.2-3.35,9.49.03.68.44,1.97.19,2.57,1.25,4.83,6.13,3.75,3.76-1.1l2.05-4.77c3.63-4.12,8.26-13.4.6-7.73Z"/>
  <path class="cls-39" d="M109.82,34.05h-1.34c.11,4.23,2.17,8.21,1.38,12.41l1.76.02c-1.69-4.86,2.67-8.03,4.46-12.41,2.44-4.78-4.19-2.89-6.26-.02Z"/>
  <path class="cls-56" d="M85.17,121.82c-1.55.41-2.07,2.29-1.12,2.33,2.83.14-3.97-3.82-5.05-.79-9.63.18-14.45.27-14.45.27l-.97,1.28c-.12,1.2,1.41,1.57,3,1.57h20.33c1.86,0,1.48-2.32,1.31-3.83-.14-1.23-1.95-.65-3.06-.83Z"/>
  <path class="cls-27" d="M45.6,15.31c-1.33,3.12-2.94,4.74-4.83,4.83-.62.76-2.1,1.51-2.02,2.8-1.3.62-1.22,1.19.16,1.72,3.32.7,5.63-4.07,8.58-3.98l2.8.09c.37.01,1.21-1.39.84-1.54-.95-.4-2.09-.71-2.97-1.43,1.38-.93,2.72-1.9,3.82-3.12l-.09-1.09c-1.29-.17-2.57-.47-3.75-1.05-.96.82-1.8,1.76-2.55,2.77Z"/>
  <path class="cls-37" d="M59.23.33c-3.32-.25-3.44,1.79-.18,2.75.29,1.31.58,2.62,1.77,4.18,2.6-1.08,4.96-1.89,7.4-2.38-1.88-3.18-5.66-3.66-8.98-4.56Z"/>
  <path class="cls-41" d="M60.35,60.13h3.23s2.2-2.01,2.2-2.01c2.05,1.38,2.86,1.02,2.43-1.07,2.2,2.49,5.09,1.61,3.08-1.54.26-2.79-4.09-2.61-4.63,0-2.46-.79-4.45-2.5-5.88-4.63-4.61,3.25,3.11,2.7-.44,9.25Z"/>
  <path class="cls-36" d="M88.33,21.29c-3.87.63-3.38,3.38,1.47,8.26.75.53,1.22,2.63,2.31,2.43,3.26-.59,4.01-4.33,5.7-4.24.66-.53.72-1.08.04-1.63l-6.51-3c-.11-.39.19-.97,0-1.32l-3.02-.51Z"/>
  <path class="cls-47" d="M29.59,86.44c-1.91-3.94-3.98-3.03-4.23,1.23l.22,1.64c3.06,1.84,6.52,1.31,9.94,1.36v-1.44c3.57-5.16-2.38-6.84-5.94-2.8Z"/>
  <path class="cls-35" d="M98.95,70.97c1.76,2.51,5.96-.38,6.27-2.9,1.61-.74,2.04-2.35,2.61-3.85-1.52-1.91-3.98-.32-5.53.26-2.36.89-3.51,4.18-3.35,6.5Z"/>
  <path class="cls-28" d="M83.63,80.18c-2.67-.92-2.93,3.84-.4,4.38-.24,2.61.58,5.32.09,7.97,3.38-.28.87-4.44,1.85-6.18,1.25-3.48,1.25-6.56,0-9.25,3.03-.76,2.45-6.6,0-7.71-.44-1.35-.95-1.33-1.54,0-1.55,2.7-.97,7.49,0,10.79Z"/>
  <path class="cls-60" d="M77.46,120.27l-1.54,3.08c.32,1.32,2,.89,3.08,0,2.13,1.21,4.39,2.02,7.79,1.3-.55-1.33-1.43-1.88-1.62-2.84-.99-.36-2.18-.97-3.08-1.54-.45-2.62-1.33-3.85-3.08-1.54-1.85-1.09-2.55-.47-1.54,1.54Z"/>
  <path class="cls-58" d="M98.95,70.97c.07.98-.66,1.97-.83,2.91.87.27,1.55,1.26,2.49,1.45,4.55-4.32,6.22-4.15,5.48-5.79-.22-.49-.51-.97-.86-1.47-2.24.61-4.25,1.78-6.27,2.9Z"/>
  <path class="cls-43" d="M5.52,92.36c-3.88,2.49,2.79,5.68,4.09,1.7.81-1.36,1.36-2.94,2.55-4.03,1.69-.51,1.6-1.41-.12-1.81,1.7-1.64,1.52-2.25-.55-1.85-2.52,1.4-4.18,3.78-5.97,5.98Z"/>
  <path class="cls-20" d="M75.92,115.65c-1.05-4.46-4.15-3.97-6.17,0v1.54s-.08,1.65-.08,1.65c3.11.19,6.22.15,9.33-.11.61.79,2.23,1,3.08,1.54.02-2.67.56-5.61-1.54-7.71-1.99.76-3.54,1.79-4.63,3.08Z"/>
  <path class="cls-75" d="M57.42,16.95c.94,1.77,3.31.9,4.65,1.54.59-3.25.01-8.1-4.3-7.69-.39,1.29,1.21,2.66,1,3.83-.14.76.22,2.49-1.34,2.32Z"/>
  <path class="cls-17" d="M63.58,124.9l12.43.02c1.61,0,3.1-.32,2.99-1.56h-3.08c-4.19,0-8.69.76-12.37-1.54-.25.97.23,2.09.04,3.08Z"/>
  <path class="cls-66" d="M12.04,88.22c-.97.66-1.12,1.39.12,1.81,2.87,1.43,5.14-1.08,6.44-3.59.26-.5-.11-1.29.07-1.83-2.28-2.9-5.53.7-6.63,3.62Z"/>
  <path class="cls-30" d="M109.82,34.05c2.07-.84,4.49-1.7,6.26.02.47-1.15,1.95-1.74,1.58-3.93-.18-1.04-.16-3.53-1.82-1.05-1.68,2.5-7.26,1.31-6.02,4.97Z"/>
  <path class="cls-52" d="M.36,94.06c1.28,2.32,6.19,3.44,8.6,2.72,1.22-.36.37-2.24.65-2.72-.56.31-1.36,1.25-2.2.85s-1.26-1.71-1.89-2.55c-1.3,1.48-3.27,1.8-5.16,1.7Z"/>
  <path class="cls-8" d="M49.7,27.75c-2.64-1.93-4.18-1.93-4.63,0,1.33,2.18,5.59,1.49,8.5,2.45,1.66.31,1-4.9-1.06-5.4-1.79.12-2.61,1.21-2.82,2.95Z"/>
  <path class="cls-40" d="M38.91,27.75v-3.08s-.16-1.72-.16-1.72c-2.01.23-4.16-.54-5.97.81,1.88,1.48,1,3.85,2.92,3.34.84-.22,2.03.25,3.21.65Z"/>
  <path class="cls-62" d="M55.87,69.38c.1.65,1.07,1.16,1.1,1.78,1.01-3.33,4.21-5.88,3.35-9.49-3.31,1.24-3.47,4.84-4.45,7.71Z"/>
  <path class="cls-12" d="M40.77,20.15c.69.62.94,1.41,1.27,1.94,1.5,2.41,5.11-6.81,4.31-4.47.23-.68.22-1.69-.75-2.31-2.55.46-4.53,2.29-4.83,4.83Z"/>
  <path class="cls-29" d="M75.92,112.56c1.75,2.78,4.43,1.53,3.08-1.54l-.13-4.9-1.42.26c-3.91-1.19-7.36,7.03-1.53,6.18Z"/>
  <path class="cls-72" d="M46.63,24.56c-1.32,1.63-.29,2.69,3.07,3.19.93,0,2.35.16,3.06-.81.38-.51-.15-1.62-.24-2.14l-.09-1.39-5.8,1.15Z"/>
  <path class="cls-5" d="M60.79,49.34c1.52-1.92,3.26-3.99,4.34-6.17-1.53-.26-3.5.71-4.45,2.34-.61,1.05-1.79,2.69.11,3.83Z"/>
  <path class="cls-84" d="M75.92,112.56c-4.1.49-3.92,1.91,0,3.08,1.09.1,2.28.22,3.63-.19,1.1-.33,1.27-1.69.99-2.9l-1.54-1.54c-.49,1.25-1.85,1.58-3.08,1.54Z"/>
  <path class="cls-69" d="M65.13,43.17c1.42.24,2.9.31,4.34.3.85,4.06,2.25,3.93,3.41-.02l-6.31-3.6c-.68.07-2.01.01-2.53.96-.39.71,1.03,1.74,1.08,2.36Z"/>
  <path class="cls-3" d="M52.79,3.23c1.41.07,2.86.35,4.25.14l2.01-.3.18-2.75c-3.14-.85-5.35-.11-6.44,2.91Z"/>
  <path class="cls-81" d="M57.42,89.43c1.21.01,2.78.2,3.08,1.54.78-.44,2.22.29,3.08,0,2.01.18,1.67-.76-.07-1.91,1.28-7.47-15.51-2.52-6.1.37Z"/>
  <path class="cls-81" d="M63.52,89.06c1.93,2.29,2.95,5.3,3.04,9.03,2.4,1.14,3.51-1.25,3.33-7.17,3,1.29,4.22-3.21,1.23-4.59,6.05-11.23-10.86-4.72-7.6,2.73Z"/>
  <path class="cls-1" d="M75.58,93.9c-.85,1.68-1.94,2.3-3.28,1.85.32-4.03-.48-5.64-2.4-4.82-1.62,2.01-.41,4.86-3.01,6.54-.5-4.43.72-8.17-3.37-8.4l.07,1.91c2.19,1.22,1.11,4.43,1.54,6.17,2.6,2.42,1.35,6.57.24,10.13,3.42,1.88,4.84-1.26,7.01-2.27.59-2.6,1.93-3.71,4.02-3.31.12,1.38.58,1.41,1.34.17.31-4.76,4.2-9.8,1.4-14.15-2.28.39-4.8,3.95-3.57,6.18Z"/>
  <path class="cls-1" d="M75.41,57.39c-.19,5.23-1.89,8.76-5.11,10.61l-8.45,11.61c-1.09,6.18-12.3,3.61-16.84,2.18.99-2.53-.75-2.43-3.01-1.61-.09-2.45-2.53-2.43-3.18-.06-2.89-1.67-7.89-.84-7.76,3.08-2.96-.77-3.43.83-1.46,3.25,2.36-.36,5.14.42,5.93,2.8l21.9.19-1.46-3.03c3.49-.65,5.06,2.52,7.56,2.66l5.42-7.43c1.35,1.68.91,3.44,2.18,4.7,2.67,3.9,9.61-5.77,4.84-7.56-1.4-1.45-.39-5.1,3.04-10.94,3.53-2.6,4.83-5.03,3.9-7.3,1.35-.45,1.34-1,.02-1.63-.07-1.43-.62-1.65-1.64-.66-1.38-4.44-4.66-6.22-5.87-.87Z"/>
  <path class="cls-74" d="M41.85,27.17c1.08.12,2.14.58,3.23.58h4.63c-1.08-1.01-2.11-2.07-3.07-3.19-1.78.35-3.2,1.81-4.78,2.61Z"/>
  <path class="cls-70" d="M85.17,86.35c1.3-2.31,2.09-4.6,1.75-7.5l-.21-1.75c-.44-1.35-.95-1.33-1.54,0v9.25Z"/>
  <path class="cls-83" d="M91.34,23.12c1.29,2.27,4.03,2.99,6.51,3-1.94-.79-3.28-4.65-6.51-3Z"/>
  <path class="cls-63" d="M82.75,54.09c-1.47-.2-1.32.48-.41,1.63.63.67,1.24,1.18,1.81,1.14,2.16-.19,17.47-2.11,18.31-2.48,1.09-.48,3.99-3.9,4.02-5.34-.25-.69.41-2.01.27-2.78.87-2.14-.25-2.95-1.43-3.03-2.13-.16-6.1-.89-6.29,1.19q.66,2.03,0,0c-2.55.2-5.49.25-6.08-2.79l-1.01-.27c2.22-1.97,1.61-3.32-1.84-4.07-4.96,3.06.61,6.97-7.93,9.08.29,2.6,4.42,6.7.56,7.73Z"/>
  <path class="cls-50" d="M69.46,43.47l-2.55,8.73c.71,2.29,4.57,2.16,5.93.23,5.08,5.76,6.07-1.04,4.63-6.31-1.78-.4-3.1-1.8-4.59-2.66l-3.41.02Z"/>
  <path class="cls-49" d="M82.34,22.92c1.76,1.54,1.57,4.15,2.77,6.8.97,2.15,3.51.04,4.68-.17l2.31-.27c4.85-.57-6.05-5.13-3.77-7.99-2.19-.37-4.37.16-5.99,1.64Z"/>
  <path class="cls-18" d="M72.84,52.42c-4.04.75-3.79,2.11.2,2.97-2,2.17-1.35,3.08,1.36,1.92.24,1.37.58,1.39,1.02.08,2.03-.1,4.25-.6,5.87.87,1.98.06,2.57-1.14,1.07-2.53l-3.67-7.78-1.22-1.84c-.23,2.55-1.21,7.21-4.63,6.31Z"/>
  <path class="cls-73" d="M97.5,32.76c-2.25,1.43-6.57,1.62-7.38,4.52-.47,3.17,1.49,3.63,5.88,1.36l6.3-5.84c-2.04-.12-3.84-.31-4.8-.05Z"/>
  <path class="cls-53" d="M75.92,21.58c.75,1.05,2.09.78,3.1.16.85-1.53,1.31-3.23,1.51-4.96-1.98,1.12-3.66,2.71-4.61,4.8Z"/>
  <path class="cls-23" d="M82.35,55.73c.92-.46,1.54-.94.41-1.63-.8-2.42-1.7-4.94-4.07-6.14.51,2.69.58,6.99,3.67,7.78Z"/>
  <path class="cls-44" d="M90.12,37.28c1.25,2.14.84,4.49-.24,7.39,2.31-.3,1.86-2.35,3.1-3.05.93-1.07,1.99-2.01,3.02-2.97.41-3.18-6.55,1.14-5.88-1.36Z"/>
  <path class="cls-45" d="M66.67,15.41c1.67,2.26,3.35,5.21,6.17,6.17-.17-.17-.07-.76.55-2.06-4.03-2-4.43-5.88-6.39-8.9-2.82.31-2.54,3.66-.33,4.79Z"/>
  <path class="cls-31" d="M66.67,15.41c.08-1.59-.3-3.25.33-4.79-1.5-.28-1.86-3-3.31-2.37-.22,2.89-.28,4.32.11,6.03.2.9,1.81.88,2.87,1.13Z"/>
  <path class="cls-2" d="M72.37,105c.78,3.56-2.55,5.53-6.72,7.34l4.1,3.3c1.95.29,4.18-.19,6.17,0v-3.08c-2.1-1.83.89-4.07,1.53-6.18l.29-4.52-1.34-.17c-2.07-.5-4.67.95-4.02,3.31Z"/>
  <path class="cls-4" d="M69.75,117.19c-2.67,2.85-1.73-2.92-3.38,2.35,3.61,1.66,7.49.34,11.09.74l1.54-1.54c-2.53-3.3-6.24.41-9.25-1.54Z"/>
  <path class="cls-76" d="M11.49,86.38c.09.49-.31,1.93.55,1.85,2.09-1.43,4.1-3.13,6.63-3.62,1.75-1.91,2.69-4.42,2.36-7.01-3.89,2.01-6.86,5.37-9.54,8.79Z"/>
  <path class="cls-68" d="M25.37,87.68c1.47-.1,2.8-1.01,4.23-1.23.65-1,1.16-2.09,1.46-3.25,2.51-1.62,2.54-2.95.17-5-2.57-1.11-5.74.7-7.01,2.43-2.01,2.75-1.9,5.71,1.16,7.05Z"/>
  <path class="cls-38" d="M31.22,78.2c-.91,1.6-1.84,3.65-.17,5l7.76-3.08c.97-1.55-.06-2.53-3.09-2.92-1.53-.08-3.05.63-4.5,1Z"/>
  <path class="cls-26" d="M35.83,75.55c.03.55,0,1.1-.1,1.65,2.8,1.31,5.92,1.79,9.36,1.44,1.63,2.06,6.85,1.5,4.63-1.54-4.47-1.66-9.19-1.67-13.88-1.54Z"/>
  <path class="cls-24" d="M85.17,69.38v7.71s1.54,0,1.54,0c1.93-.51,2.8-1.89,2.37-3.18-.64-1.87-.72-3.14-.88-4.74,2.33-1.92,1.44-2.79-1.35-1.35-2.64-2.02-3.51-1.23-1.68,1.55Z"/>
  <path class="cls-22" d="M86.54,64.98c-1.12.33-.94.73.31,1.17-1.36.5-1.34,1.06.01,1.68l1.35,1.35c1.69.15,3.45-.1,4.68-1.34,2.57.7,3.29-1.86.55-2.74l-1.81-.55c-1.14-4.32-4.3-3.89-5.09.43Z"/>
  <path class="cls-10" d="M93.44,65.1l-.55,2.74c1.1.33,1.97,1.1,2.98,1.6l2.18-4.56c-1.53.18-3.07.27-4.61.22Z"/>
  <path class="cls-18" d="M80.9,69.21c-3.16.23-6.83,6.63-4.94,9.57-.56,3.24-.98,6.96-4.84,7.56-.51,1.39-.25,3.38-1.23,4.59,1.85,1.67.27,4.23-.16,8.84,2.87-.47,5.11-3.22,5.85-5.88-.69-1.11-1.33-1.26-1.63-.12-.23.87,4.13-4.79,1.79-6.26.81-1.93,1.16-2.98,3.63-2.99l2.2-1.41c-.41-3.65-.24-7.2.52-10.65.51-1.76,1.02-2.79,1.54-3.08h1.54c.22-.81.84-1.45,1.68-1.55-.25-.44.14-1.18-.01-1.68-3.71-5.33-8.1-2.33-5.94,3.06Z"/>
  <path class="cls-67" d="M79.37,84.53c1.25,0,2.62-.94,3.87.03l.4-4.38c-.47-2.69-.98-5.26-1.54-7.71-2.77,3.49-1.35,8.1-2.72,12.06Z"/>
  <path class="cls-67" d="M75.73,87.52c-1.01,2.39-2.83,4.37-2.63,8.13l2.47-1.76c.59-2.1,3.79-3.56,3.57-6.18-.82-1.27-2.17-.48-3.41-.2Z"/>
  <path class="cls-33" d="M82.35,55.73c-.91.15-1.67,1.79-1.07,2.53.42.38,1.18.33,1.64.66,1.96,2.93,9.32,3.06,11.24.05l1.79-.22c2.76-.63,5.38-1.27,7.87-1.94.44-2.79,5.01-4.83,2.66-7.76-1.44.28-3.6,2.27-5.31,3.08-7.35-2.16-12.36,2.56-18.84,3.61Z"/>
  <path class="cls-48" d="M111.47,47.79c-1.54.97-1.67,2.59-1.8,3.78-.23,2.11.38,5.44,2.89,3.46,1.52-2.26-1.95-5.07-1.09-7.24Z"/>
  <path class="cls-16" d="M95.96,58.74l9.46-.24c-.23-.55-.8-1.8-1.59-1.7-2.68.31-6.58-.89-7.87,1.94Z"/>
  <path class="cls-26" d="M72.84,60.13c-1.37,1.91-1.88,1.82-1.54-.25-.33-1.38-.85-1.4-1.54-.13l-2.09-.58c-2.09,4.3-4.33,8.78-6.73,13.46.12,1.87-2.68,1.31-3.76,1.1-.56,1.37-.76,2.45-.46,3.34.66,1.94-1.12,1.78-2.38,1.55.63,1.4-.68,1.53-3.94.39-3.47.06-5.27.98-5.39,2.76-.09.67-1.13,1.64-.65,2.98,26,3.86,20.6-10.47,35.2-22.05-2.77-2.39-4.05-3.44-4.14-5.33-.33.02-.68-.07-1.02-.08-2.93-.38-3.72.7-1.56,2.82Z"/>
  <path class="cls-68" d="M49.7,77.1c-.67,1.97-2.97,1.45-4.63,1.54-2.02-1.08-3.64-.95-3.08,1.54,1.15.22,2.27.67,3.01,1.61,3.71-4.1,17.65,4.57,15.39-3.25-2.44,1.47-4.69,2.22-6.06.1-1.03-1.24-3.24-1.03-4.63-1.54Z"/>
  <path class="cls-51" d="M82.92,58.91l-.02,1.63c-2.28,4.07-.44,4.24,3.63,4.44l5.09-.43c.51-2,1.44-3.85,2.54-5.59-3.62-1.61-7.63-1.73-11.24-.05Z"/>
  <path class="cls-34" d="M66.91,52.19l-.24,3.31h4.63c-.09,2.99,1.08,2.92,1.74-.11l-.2-2.97c-1.93-.51-3.78-.93-5.93-.23Z"/>
  <path class="cls-65" d="M63.58,60.13c.88-.65,3.07-2.04,3.39-.2-3.01,4.5-6.34,8.01-6.04,12.7l8.82-12.88c2.6-2.31,1.77-3.77-1.54-2.71-1.03,0-2.22-.31-3.4.39-.74.44-1.08,1.69-1.23,2.7Z"/>
  <path class="cls-64" d="M71.29,55.51c-.28,1.39-1.88,1.54-3.08,1.54.56.88,1.1,1.77,1.54,2.71l1.54.13c.23,1.4.74,1.46,1.54.25.33-.99,1.28-1.79,1.56-2.82-.42-.66-.87-1.31-1.36-1.92l-1.74.11Z"/>
  <path class="cls-82" d="M82.09,72.47c-.21,2.69-.46,5.65,1.54,7.71v-10.79c-2.24-3.33-1.56,2.35-1.54,3.08Z"/>
  <path class="cls-55" d="M99.05,44.41c-.11,1.22-.89,1.61-1.6,3.44,3.39-.4,5.44-1.48,7.92-2.45-2.6-.97-4.62-1.12-6.31-.99Z"/>
  <path class="cls-57" d="M72.37,105c1.61-.75,3.25-1.58,4.02-3.31-.18-4.11-1.36-1.53-3.67-.9-2.73.74-.72,2.53-.35,4.21Z"/>
  <path class="cls-14" d="M35.72,77.2c.8,1.19,2.02,1.99,3.09,2.92.86-.38,2.24.29,3.18.06.85-.67,1.94-1.48,3.08-1.54-1.98-2.9-6.26-1.27-9.36-1.44Z"/>
  <path class="cls-19" d="M79.01,67.84c-1.34,2.88-.41,3.55,1.9,1.37.54-.81-.26-3.01,1.11-3.83,1.44-.87,3.28.8,4.83.78-.11-.36-.12-.84-.31-1.17-.94-1.69-2.04-3.32-3.63-4.44-2.61,1.44-3.45,4.5-3.9,7.3Z"/>
  <path class="cls-42" d="M75.96,78.78c.59-3.41,2.88-6.96,4.94-9.57-.75-.27-1.42-.73-1.9-1.37-2.98,2.33-3.97,5.8-5.94,9.9.16,1.22,1.84,1.73,2.9,1.04Z"/>
  <path class="cls-21" d="M72.84,60.13l-1.54-.25c-1.03,1.98-2.63,4.48-.75,6.48,1.35-2.61,1.71-4.48,2.3-6.23Z"/>
</svg>