<?xml version="1.0" encoding="UTF-8"?>
<svg id="Player_Attack" xmlns="http://www.w3.org/2000/svg" viewBox="0 0 135.85 150.19">
  <defs>
    <style>
      .cls-1 {
        fill: #885e42;
      }

      .cls-2 {
        fill: #272a33;
      }

      .cls-3 {
        fill: #b36430;
      }

      .cls-4 {
        fill: #161618;
      }

      .cls-5 {
        fill: #071323;
      }

      .cls-6 {
        fill: #433c3f;
      }

      .cls-7 {
        fill: #29353a;
      }

      .cls-8 {
        fill: #010913;
      }

      .cls-9 {
        fill: #bc5a35;
      }

      .cls-10 {
        fill: #9b9e74;
      }

      .cls-11 {
        fill: #172649;
      }

      .cls-12 {
        fill: #1e262c;
      }

      .cls-13 {
        fill: #a6a188;
      }

      .cls-14 {
        fill: #0a1a2c;
      }

      .cls-15 {
        fill: #161d26;
      }

      .cls-16 {
        fill: #5a4f36;
      }

      .cls-17 {
        fill: #19294d;
      }

      .cls-18 {
        fill: #060f18;
      }

      .cls-19 {
        fill: #181e25;
      }

      .cls-20 {
        fill: #282618;
      }

      .cls-21 {
        fill: #071421;
      }

      .cls-22 {
        fill: #262127;
      }

      .cls-23 {
        fill: #574249;
      }

      .cls-24 {
        fill: #354248;
      }

      .cls-25 {
        fill: #16264b;
      }

      .cls-26 {
        fill: #c66b3a;
      }

      .cls-27 {
        fill: #cf7856;
      }

      .cls-28 {
        fill: #120f14;
      }

      .cls-29 {
        fill: #1a2129;
      }

      .cls-30 {
        fill: #010609;
      }

      .cls-31 {
        fill: #091524;
      }

      .cls-32 {
        fill: #929468;
      }

      .cls-33 {
        fill: #080e1a;
      }

      .cls-34 {
        fill: #373141;
      }

      .cls-35 {
        fill: #404d6b;
      }

      .cls-36 {
        fill: #3b4649;
      }

      .cls-37 {
        fill: #090d1a;
      }

      .cls-38 {
        fill: #102131;
      }

      .cls-39 {
        fill: #434966;
      }

      .cls-40 {
        fill: #293536;
      }

      .cls-41 {
        fill: #393b3f;
      }

      .cls-42 {
        fill: #996a3b;
      }

      .cls-43 {
        fill: #4a485c;
      }

      .cls-44 {
        fill: #141920;
      }

      .cls-45 {
        fill: #bd512d;
      }

      .cls-46 {
        fill: #0a1d30;
      }

      .cls-47 {
        fill: #192955;
      }

      .cls-48 {
        fill: #efad81;
      }

      .cls-49 {
        fill: #9e5240;
      }

      .cls-50 {
        fill: #eedca7;
      }

      .cls-51 {
        fill: #414865;
      }

      .cls-52 {
        fill: #e5e1d9;
      }

      .cls-53 {
        fill: #3c4c6b;
      }

      .cls-54 {
        fill: #89999e;
      }

      .cls-55 {
        fill: #20292f;
      }

      .cls-56 {
        fill: #ebb286;
      }

      .cls-57 {
        fill: #3c4765;
      }

      .cls-58 {
        fill: #e5e6dd;
      }

      .cls-59 {
        fill: #bdbea3;
      }

      .cls-60 {
        fill: #c9c0ab;
      }

      .cls-61 {
        fill: #44525a;
      }

      .cls-62 {
        fill: #c2c4a6;
      }

      .cls-63 {
        fill: #1f282f;
      }

      .cls-64 {
        fill: #030a14;
      }

      .cls-65 {
        fill: #cd774a;
      }

      .cls-66 {
        fill: #725451;
      }

      .cls-67 {
        fill: #394967;
      }

      .cls-68 {
        fill: #19284f;
      }

      .cls-69 {
        fill: #343c46;
      }

      .cls-70 {
        fill: #101f34;
      }

      .cls-71 {
        fill: #f6ca9a;
      }

      .cls-72 {
        fill: #414d6a;
      }

      .cls-73 {
        fill: #b88261;
      }

      .cls-74 {
        fill: #1a294c;
      }

      .cls-75 {
        fill: #0b1727;
      }

      .cls-76 {
        fill: #101f3d;
      }

      .cls-77 {
        fill: #9d9f7a;
      }

      .cls-78 {
        fill: #0e1f37;
      }

      .cls-79 {
        fill: #0e161e;
      }

      .cls-80 {
        fill: #f4f4ef;
      }

      .cls-81 {
        fill: #d2d5c2;
      }

      .cls-82 {
        fill: #031b47;
      }

      .cls-83 {
        fill: #e9af80;
      }

      .cls-84 {
        fill: #ca8a60;
      }
    </style>
  </defs>
  <g id="Player_Kick_2">
    <g id="back-arm">
      <path class="cls-42" d="M44.54,44.54c-.05-.38-1.24-2.87-1.48-3.3s-1.01-2.35-.91-2.68.43-1.53.96-1.53,3.06-.62,3.69-1.01,3.06-1.72,3.49-2.73.96-2.78.96-3.4-.86-2.49-1.48-3.35-2.25-1.96-2.87-2.15-1.91-.53-3.02-.14c-1.1.38-3.4,1.91-3.69,2.73s-3.54,4.64-3.93,5.51-1.72,2.82-1.39,3.64.81,3.02,1.48,4.5,1.77,6.37,2.11,7.04.86,1.1,1.72,1.39,2.01-.1,2.87-.53,1.91-1.53,1.91-2.25-.43-1.72-.43-1.72Z"/>
      <path class="cls-45" d="M43.84,53.44c-2.76-.36-3.65-1.33-1.41-3.36-1.34-1.44-3.27-2.97-2.91-4.83.45-2.33,2.08-3.89,2.96-5.72-.83,2.88,2.16,4.24,3.49,6.85.95,1.88-.29,6.38-2.13,7.06Z"/>
      <path class="cls-65" d="M45.62,34.41c-1.04-2.51.74-5.09.66-7.64,1.49-2.23,2.81.74,3.95,1.52,1.65,1.13.67,3.31-.48,4.35-1.04.93-2.78.92-4.12,1.78Z"/>
    </g>
    <g id="back-glove">
      <path class="cls-22" d="M45.45,46.84c.57.43.96.34,1.63,1.2s1.63,1.82,1.53,2.54.38,1.29-.62,1.82c-1.01.53-2.68,2.15-3.16,2.15s-1.44,0-1.91-.29-2.25-.67-2.87-1.58-1.82-3.3-1.87-4.07,1.24-2.59,2.68-2.63c1.44-.05,4.6.86,4.6.86Z"/>
      <path class="cls-41" d="M45.97,50.47c.1-.62.51-2.3.35-3.45s-.46-2.35-1.01-2.87-2.18-.57-2.78-.19-2.48.67-2.78.91-.91,1.34-.81,1.87.81,3.06,1.32,3.93,2.02,2.73,2.63,2.78,1.37.05,1.97-.72,1.11-2.25,1.11-2.25Z"/>
    </g>
    <g id="back-shoe">
      <path class="cls-79" d="M63.74,143.87c-.44-1-.32-2.23-1.34-2.62s-3.38-1.28-4.85-1.28-2.94.38-3.51-1.02-.32-4.15-1.09-4.6-3.96-2.04-6.96-1.4c-3,.64-5.74.96-6.83,1.21s-2.81,1.21-2.49,1.72.79,2.88.81,3.99.4,4.94.15,5.71-.38,2.81.32,2.94,5.11,1.66,6.38,1.66c1.28,0,8.74-.51,9.96-.77,1.21-.26,7.98.13,8.87-.32s1.02-4.21.57-5.23Z"/>
      <path class="cls-79" d="M54.5,136.56c-.28,1,.33,2.21.14,3.24h-1.54c1.42,4.96-8.87,4.54-12.34,3.08-.29,3.21-2.35,3.04-3.08,0l-.19-3c.58-.11,1.25.11,1.82-.02l15.19-3.31Z"/>
      <path class="cls-7" d="M59.68,144.9l-.13,1.23c-1.83,2.61-4.93-1.69-6.25-.71-2.03,1.5-4.96-.17-6.36.56-2.38-.24-4.89-.92-6.17-3.08l12.34-3.08,6.58,5.1Z"/>
      <path class="cls-19" d="M59.54,146.12c2.22-.22,2.69,1.26,1.26,2.93-7.16-1.04-15.08,2.15-21.59-1.54-.35-2.18,2.22-2.7,7.71-1.54.81-5.37,8.83-2.55,12.62.15Z"/>
      <path class="cls-12" d="M40.76,142.88c3.67-.06,5.73.97,6.17,3.08-2.4,1.24-5.24.83-7.71,1.54-1.74-.99-1.43-2.82-1.54-4.63.84-.32,2.28.2,3.08,0Z"/>
      <path class="cls-54" d="M60.96,144.98c-.37,1.33-.8,1.27-1.28-.09-2.48.84-9.08-1.31-6.58-5.1.37-.09,1.11.04,1.54,0,1.54-.13,3.33-.2,4.66.68,1.5.99,1.12,3.19,1.66,4.5Z"/>
      <path class="cls-63" d="M60.81,149.05c-.49-.94-.93-1.92-1.26-2.93-1.34-.31-1.25-.72.13-1.23l1.28.09c.59.55,2.31.56,1.98,1.71-.35,1.23-.98,2.53-2.14,2.36Z"/>
    </g>
    <g id="back-leg">
      <path class="cls-68" d="M53.52,130.66c0-1.4.13-2.94.13-4.34s-1.4-5.74-1.53-7.53-.26-10.98-.38-12.89-1.02-6.38-2.68-10.34-2.04-6.77-2.3-10.85,3.06-10.47,3.06-13.53-.77-6.13-1.66-8.81-2.3-5.23-3.96-7.15c-1.66-1.91-6.26-2.43-8.55-.89-2.3,1.53-8.55,5.23-10.85,5.87s-7.53.13-8.3,1.91.38,6.77,1.15,8.17,5.87,9.32,5.87,10.72,3.96,9.96,4.6,12.77,2.3,8.94,2.3,11.74.77,8.81,1.02,9.83,1.15,7.28,1.15,9.83c3.38,18.83,9.06,14.3,11.74,14.43s8.43-1.15,9.19-1.79,2.04-2.94,1.4-4.09-1.4-3.06-1.4-3.06Z"/>
      <path class="cls-68" d="M43.73,99.65c-1.45.85-1.88,3.49-.58,4.55l3.76,3.06,3.07,15.72c.39.64,1.71,1.28,2.23,1.59,1.27.76.22,1.55-.58,2.02-.49.29-1.15.48-1.62.88l-1.57.21c-2.37,5.84-10.64,11.65-12.51,1.06-2.08-8.29-2.44-16.39-1.09-24.31-1.45-3.15.49-4.6,5.83-4.35-.72-2.66,1.91-2.74,3.06-.43Z"/>
      <path class="cls-11" d="M54.5,136.56c-1.98,2.86-11.97,5.26-15.19,3.31.44-6.79,5.23-2.86,10.37-10.54,2.61,1.82,5.81,3.72,4.82,7.24Z"/>
      <path class="cls-53" d="M42.3,78.11c.65.97.97,2.23,0,3.08-1.76.27-3.45.81-5.06,1.57-1.32-.47-1.23-.96.16-1.47.28-2.6,2.39-4.12,4.72-4.87-.05.54.2,1.13.17,1.67Z"/>
      <path class="cls-47" d="M37.4,81.31l-.16,1.47c-.32,2.99.2,6.02.7,8.99,1.25,3.83-.94,5.35-3.97,2.05-1.31-1.81-1.72-4.3-2.55-6.32-.35-2.02,3.78-.35,4.04-1.52.68-3.09-4.27-4.76-6.6-2.24-1.38-4.28,1.47-3.37,4.18-4.85l-4.82-1.72c5.14-2.74,6.37,1.87,9.18,4.12Z"/>
      <path class="cls-74" d="M39.44,91.7c.01.56-.29,1.13-.21,1.68.14.95-.28,2.13-.04,3.06.33,1.27,1.96,2.07,1.49,3.64-.6-.53-1.38-.7-3.93.1.38-2.74-1.4-4.45-2.78-6.36l3.97-2.05c.34-.22,1.07.06,1.5-.06Z"/>
      <path class="cls-31" d="M50.01,127.46c-.39.38-.03,1.4-.34,1.86,2.27,3.84-.11,6.48-7.16,7.93l-3.21,2.61c-.59,1.35-1.2,1.35-1.82.02-6.15-4.01-1.47-13.43-5.75-21.67.32-4.72.55-9.46.69-14.22l2.42.44c-.32,6.62-.61,23.05,10.77,23.54-2.16,2.17-4.89.51-7.56,1.79.64,3.24,3.74,2.61,6.17,1.86,3.15-.96,5.69-9.39,5.79-4.15Z"/>
      <path class="cls-74" d="M35.12,71.42c3.26-2.88,12.98.8,7.01,5.02.05,2.7-2.26,4.34-4.72,4.87-2.65-.06-5.29.09-7.94.46,10.07-4.39,8.37,12.12,1.96,5.74-1.74.97-3.36-.32-4.88-3.87l-5.6-14.67c1.01-2.25,1.34-4.91,3.93-6.39l1.24,9.67c3.2-1.46,1.24-3.71,3.02-6.41.91,2.58,3.58,4.68,5.98,5.57Z"/>
      <path class="cls-75" d="M31.43,87.51c3.95-.87,4.88,3.57,2.55,6.32-1.51,6.08-2.87,2.94-4.33-1.87-2.97-6.62-11.23-17.36-8.7-22.98,9.59,9.25.96,9.53,10.48,18.53Z"/>
      <path class="cls-5" d="M33.97,93.82c2.77-.69,5.01,1.4,6.7,6.26-2.03,1.36-3.99,2.75-5.83,4.35-4.84,4.22,1.11,8.41-3.11,13.78l-2.09-26.26c.53.61,1.2,1.04,1.99,2.18.72,1.02,1.01.38,2.34-.31Z"/>
      <path class="cls-25" d="M48.32,64.5l.28,2.49c-3.42,1.69-7.13,2.1-10.96,2.08-1.52-2.42-5.35-1.79-6.12-4.83.97-1.79,3.08-1.93,4.82-1.56,0-3,1.25-3.37,2.87-.84-.58.77-.82,3.66.18,3.83,3.48.59,6.14-1.37,8.95-1.17Z"/>
      <path class="cls-51" d="M42.3,81.2c1.93,2.77,1.85,6.33-.15,9.04.5,2.78-.65,3.4-2.7,1.47-.28,1.36-.79,1.35-1.5.06-5.77-1.5-2.96-6.1-.7-8.99,1.19-2.69,3.72-4.9,5.06-1.57Z"/>
      <path class="cls-35" d="M49.99,122.97c-2.93-4.54-3.25-10.33-3.07-15.72,3.92,3.19,2.84,10.5,3.07,15.72Z"/>
      <path class="cls-66" d="M42.15,90.24c1.78.88,2.47,2.74,2.87,4.61-1.65,1.68-5.51,1.2-5.78-1.47-1.33-.63-1.23-1.19.21-1.68.74-.74,1.68-1.23,2.7-1.47Z"/>
      <path class="cls-67" d="M45.39,96.62c1.23.25,1.51,1.19.85,1.57l-2.5,1.45c-.89.37-2.25-.03-3.06.43-2.76-.79-3.26-2.01-1.49-3.64-.15-2.21,4.57-.98,6.2.18Z"/>
      <path class="cls-69" d="M19.29,63.8c-.8.78-1.13,1.66-2.36,3.63-1.34-1.77-2.32-4.55-.52-6.18,1.28.44,2.33,1.32,2.89,2.56Z"/>
      <path class="cls-76" d="M36.33,62.68c-1.21,1.39-3.05,1.72-4.82,1.56-.4-1.58,1.36-2.28,1.8-3.21l3.03,1.66Z"/>
      <path class="cls-43" d="M45.01,94.84l.37,1.78-6.2-.18c-2.98-.9-2.95-2.27.04-3.06,1.69,1.2,3.73,1.66,5.78,1.47Z"/>
    </g>
    <g id="body">
      <path class="cls-13" d="M43.82,21.32c.83.64,2.87,1.4,3.13,2.04s1.4,1.91,1.6,2.49.13,2.55.13,3.64-.32,3.45-1.34,4.28-1.79,1.15-2.62,1.6-1.98.45-2.87.77,1.15-3.89,1.21-4.91.77-9.89.77-9.89Z"/>
      <path class="cls-32" d="M19.17,30.31c1.02-2.22,2.27-2.06,2.79.38l1.78,1.3c-1.71,4.97.8,6.84,7.55,5.6l1.78,3.27c3.42,2.54,2.5,3.77-1.7,3.44-.7,1.99-2.38,3.51-5.05,4.56.33,2.8,1.84,3.95,4.54,3.45l2.35,2.95c-4.51,3.18-9.94,4.66-13.91,8.54-1.95,1.67-3.15-.33-2.89-2.56l-.3-3c1.45-3.55.83-7.36-.03-10.97-1.93,1.98-2.73,1.19-1.4-1.2-1.26-3.74-1.31-6.93-.15-9.59-1.41-1.64.88-6.4,3.08-6.17.44-1.35.95-1.33,1.54,0Z"/>
      <path class="cls-58" d="M45.68,20.93c1.36.31,1.32.78,0,1.4-1.57,1.44.55,3.09.6,4.43,3.88,1.04,2,6.02-.66,7.64-1.76,1.13-2.31,3.39-3.14,5.12.3,3.58.28,7.1-.04,10.56.98,1.76-.61,2.89-4.76,3.4-.46.09-.95,0-1.41.04-7.62,2.28-12.88-6.11-4.9-9.23.47-1.18,1.31-2.21,1.7-3.44-1.07-3.08-.02-3.97,3.14-2.65.91-1.7.84-2.32-.2-1.86-4.56,6.55-11.09-4.17-1.63-4.17-.99-.69-.43-2,1.68-3.93-1.36.25-1.36-.1-.15-.98-.57-2.79,1.71-5.02,4.68-4.89-2.6-2.83-1.99-2.89,1.39-2.89,1.17-2.69,4.5-1.46,3.71,1.44Z"/>
      <path class="cls-80" d="M40.71,14.92c3.78,1.55,4.2,3.07,1.27,4.57.99,1.1-.81,2.24-1.39,2.89-2.08,1.57-4.36,2.75-5.61-.09-2.71,2.58-4.32,1.47-4.84-3.33-.35-.43-.88-.9-1.36-1.18-2.93.42-4.92.01-3.44-2.89-3.65.22-3.28-3.37,0-4.84.83-.14,2.3-.76,3.08-1.04,5.94-2.71,14.92-2.06,12.28,5.91Z"/>
      <path class="cls-59" d="M31.36,44.3c-.73,1.84-1.16,4.2-.3,5.93,1.01,2.02,3.34,2.62,5.2,3.3-.61,1.19-2.15,1.09-3.06,1.73-3.06-.8-5.5.16-9.42,1.23,2.51-2.9-.52-5.13-.51-7.74,0-4.1,5.23-4.37,8.1-4.45Z"/>
      <path class="cls-60" d="M25.34,10.05c-1.13,1.48-1.28,3.41,0,4.84-.85.31-2.1,1.32-2.9.47-.71-.74-1.23-1.39-1.73-2.01.77-2.14,2.47-2.93,4.63-3.29Z"/>
      <path class="cls-52" d="M43.84,53.44c-1.87.52-4.24-.34-6.16.04l4.76-3.4c.84.91,1.25,2.16,1.41,3.36Z"/>
      <path class="cls-62" d="M25.34,30.31c1.83-1.55,2.87-1.61,3.14-.17,3.02-.12,4.98.56,5.9,2.04,2.33-1.57-3.86,3.77-1.67,3.97,1.78.16,2.53.2,3.29.2,2.8-.66,2.57.21.2,1.86-.75.96-1.49,2.96-3.14,2.65-4.32-.81-10.1,1.36-12.67-3.34-1.02-1.87,1.27-5.1,1.56-6.83-.09-2.58,2.49-2.75,3.38-.38Z"/>
      <path class="cls-4" d="M16.11,58.24l-.18-3.26c-.14-2.58-.28-5.16.15-7.71,2.55,2.82,2.86,9.22.03,10.97Z"/>
      <path class="cls-10" d="M35.91,27.27c.16.26.05.69.15.98-.18,3.03-4.99,2.88-7.58,1.89l-3.14.17,2.95-3.4,1.16-.68c1.68-4.28,3.48-4.99,5.39-2.12,2.67-.05,2.86,1.25,1.07,3.16Z"/>
      <path class="cls-13" d="M40.58,22.38c-1.32,1.49-2.45,4.43-4.68,4.89-.6-.96-1.16-2.02-1.07-3.16-3,.04-2.9-1.17.15-1.82,1.9-.31,4.01-1.3,5.61.09Z"/>
      <path class="cls-77" d="M36.06,28.25c1.32.37,2.03,1.44,1.01,2.13l-2.68,1.8c-2.19.16-4.47-.27-5.9-2.04l7.58-1.89Z"/>
      <path class="cls-81" d="M36.21,38.21l-.2-1.86c.58-1.16,4.18-3.4,4.8-2.02,0,3.36-3.59,2.6-4.6,3.88Z"/>
      <path class="cls-42" d="M34.98,22.29l-.15,1.82c-1.91.4-3.71,1.13-5.39,2.12,1.25-2.22,1.01-4.82.7-7.27,1.28,1.55,3.25,2.17,4.84,3.33Z"/>
    </g>
    <g id="front-arm">
      <path class="cls-3" d="M12.54,37.6c-1.72.26-5.81.45-7.47-.32s-3.06-1.4-3.7-1.47-.32-5.87.13-6.96,2.62-5.04,3.57-5.62,3.7-2.74,4.6-3.77,2.11-2.3,3.64-2.87c1.53-.57,4.4-1.4,5.23-1.4s3.64.06,5.04.32c1.4.26,5.17,1.85,5.94,2.43s1.47,1.6,1.4,3.38-1.53,6.26-2.74,7.09-2.24,2.15-2.85,1.9-2.77,1.73-3.6,1.67-2.23.19-3.38-.57-.89-1.98-1.98-1.34-2.81,3.32-3.13,4.21-.7,3.32-.7,3.32Z"/>
      <path class="cls-71" d="M19.17,16.43c2.92.09,9.33,1.38,9.33,1.38l1.64,1.15s3.24,4.43-.7,7.27c.44,1.32.03,1.52-1.16.68l-2.72,1.65c-3.03.11-5.16.69-6.39,1.74h-1.54c-1.5-1.99-2.52-2.51-3.08-1.54l-3.08,6.17c2.54-.41,2.46.68.08,1.87-.15,1.4-.62,1.38-1.36.08-3.48-1.1-4.08-2.27-1.81-3.49-1.58-2.71-2.09-5.31-1.53-7.81-2.27-1.89-.36-3.01,1.94-4.19,6.24-.19,4.16-5.22,10.38-4.96Z"/>
      <path class="cls-27" d="M8.79,21.39c-.72,1.36-1.37,2.76-1.94,4.19,1.61,2.18,1.09,4.78-1.56,7.81-1.18,1.3-2.92,1.68-4.63,1.54.16-3.15-.25-6.61,1.57-9.86,1.08-1.94,3.75-3.6,6.56-3.68Z"/>
      <path class="cls-3" d="M25.34,14.89c1,1.03,2.17,2.14,3.44,2.89-3.22,2.02-6.94,1.26-9.61-1.35-.24-1.34,1.18-2.07,1.54-3.08,1.48-.91,3.02-.39,4.63,1.54Z"/>
      <path class="cls-9" d="M17.63,30.31c-.79,2.01-2.83,3.82-3.08,6.17-.2,4.32-.85,3.84-3,.33l-.08-1.87,3.08-6.17c-.09-1.79-.47-3.56.65-6.31.94,2.31,3.4,5.38,2.43,7.85Z"/>
      <path class="cls-26" d="M28.28,26.91c2.11,1.04,1.13,2.17-2.95,3.4l-3.38.38c-.92.1-1.86-.38-2.79-.38-.03-.65-.29-1.72.07-2.24,1.08-1.53,6.9-.64,9.04-1.16Z"/>
      <path class="cls-56" d="M8.37,33.39h-3.08c-.43-1.64-1.59-2.92-3-3.89,2.14-1.63,3.42-2.61,4.56-3.92,1.33,1.11,3.07,2.26,3.37,4.06.26,1.57-.69,2.89-1.84,3.75Z"/>
      <path class="cls-56" d="M11.46,34.94c-.11-2.48,1-4.83,3.08-6.17.13,2.56-.18,5.51-3.08,6.17Z"/>
    </g>
    <g id="front-shoe">
      <path class="cls-30" d="M116.78,76.79c1.72,0,5.62-.19,7.34.26,1.72.45,5.74,1.02,6.89,1.28,1.15.26,2.74.45,3.26,1.47s1.66,3.32,1.53,4.85.57,4.79-.96,6.19-2.3,2.55-4.98,2.81c-2.68.26-8.62-1.47-10.47-1.4-1.85.06-6.26.45-7.53.77s-3.38.13-4.53-.45-1.98-1.85-2.87-3.13-2.81-1.98-2.36-3.57,2.87-6.32,4.09-7.21c1.21-.89,3.06-1.85,4.6-1.85h6Z"/>
      <path class="cls-30" d="M121.11,82.9c-.72,2.59-1.29,5.11-1.7,7.55-.5.6-1.3.29-1.81,0l.27-9.25c2.16-2.38,4.43-1.37,3.24,1.7Z"/>
      <path class="cls-24" d="M120.95,90.45c-.44-.18-1.07.11-1.54,0,.78-2.29-1.92-6.54,1.7-7.55l-.16,7.55Z"/>
      <path class="cls-55" d="M133.12,81.05c-.21.5.04,1.18-.11,1.7-2.17,1.8-4.94.54-7.43,0-4.78-.6-5.33-3.79-.28-4.33,2.94-.6,5.79.43,7.82,2.62Z"/>
      <path class="cls-36" d="M124,78.33c.41.03.9.18,1.3.1-.78,1.39-.4,2.96.28,4.33-1.36-.29-3.15.63-4.47.14-1.06-.44-1.92-1.72-3.24-1.7l-.35-1.77c.13-2.93,4.24-2.47,6.49-1.1Z"/>
      <path class="cls-29" d="M124,78.33c-2.24-.16-4.65-.4-6.49,1.1-1.1.89-2.68,2.09-4.21,1.93l1.67-4.53c3.02.06,7.48-1.67,9.02,1.49Z"/>
      <path class="cls-61" d="M125.58,82.76c1.29-3.04,5.59-1.85,7.43,0,1.54,2.84,2.46,6.32.32,9.01-4.17.14-8.47.3-12.38-1.31-1.29-1.09-1.25-5.6.16-7.55,0-3.28,3.56-3.24,4.47-.14Z"/>
      <path class="cls-24" d="M117.87,81.2c1.6,1.6.94,7.33-.27,9.25-1.98,1.87-4.94.92-6.67-.21-2.74-1.79-2-4.89-2.07-7.37-.91-4.02,2.69-5.47,4.45-1.51,1.42-2.24,2.82-2.88,4.21-1.93,2.87-.86,3.11.32.35,1.77Z"/>
    </g>
    <g id="front-leg">
      <path class="cls-70" d="M110.72,74.11c-2.94-1.15-10.34-3.83-12-4.98-1.66-1.15-6.64-5.36-8.17-6.26-1.53-.89-11.62-6.26-13.91-6.13s-6.13-1.02-8.3-1.91c-2.17-.89-7.28-3.19-9.7-3.19s-8.55,1.02-10.6,1.02-4.98-.64-7.28-.26c-2.3.38-9.19,2.04-11.49,3.45s-4.47,3.83-6.13,4.85-4.98,1.53-6,2.94c-1.02,1.4-.89,4.47.64,7.02s2.43,6.38,3.96,7.53,8.3,2.04,11.62,2.04,7.4-.51,8.3-1.79,4.98-5.62,7.91-5.87c2.94-.26,7.15.26,9.57.89s9.32,2.04,11.49,3.19,6.89,3.7,8.68,5.36,10.09,6.38,12.26,7.15,12.77,3.96,14.94,3.7c2.17-.26,2.17-2.94,2.04-5.23s1.4-8.3,2.3-9.32-.13-4.21-.13-4.21Z"/>
      <path class="cls-70" d="M56.44,59.63c1.68-1.44,3.54-.19,4.16,1.7,4.16,1.22,4.03,1.89.39,4.1,2.38.34,4.93-.05,7.65-1.16.8-2.89,1.97-2.64,2.36.4,2.75,3.17,2.35,4.04-1.84,4.09,6,3.45-2.09,7.85-3.73,3.26-3.06.12-6.14.09-9.24-.07.83,1.72.26,1.64-1.49,1.24-.35-.09-.94-.1-1.32-.08-7.26-.53-8.53-2.29-3.8-5.26l-.97-.85c-3.02-.3-3.16-1.54-.28-2.49,1.13-1.11,1.83-3.53,3.72-4.12.74-.23,1.69,2.09,2.39,1.36.83-.85,1.46-1.42,2.01-2.11Z"/>
      <path class="cls-34" d="M73.14,64.24l1.54.96,3.51.68c.67.99-.72,2.61-1.68,3.35-.8.62-2.28-.61-3.43.8-.61-1.15-2.66-1.07-3.93-1.26.51-1.39,1.12-2.79,1.84-4.09.45-.81,1.49-1.24,2.17-1.81.09.43-.08.93-.02,1.37Z"/>
      <path class="cls-82" d="M68.63,64.27c-1.08,1.45-2.42,2.91-3.97,3.09-2.21.26-3.62.43-3.68-1.93,2.74-.6,5.58-4.16,7.65-1.16Z"/>
      <path class="cls-17" d="M83.77,68.73c2.3,1.99,4.52,4.36,7.75,4.59,0,1.84-.56,3.63-1.73,5.06-4.47-.36-8.57-2.67-10.92-7.25.14-1.81,3.62-3.51,4.9-2.4Z"/>
      <path class="cls-14" d="M83.8,67.67l-.03,1.06-1.17,2.82c3.41,2.05,5.81,4.32,7.19,6.83.48,3.05-2.41,7.81-5.85,4.66-5.31-.15-8.9-4.59-12.32-8.3.39-1.26.88-2.83,1.46-4.72.45-2.48,2.16-3.86,5.12-4.15,2.06.4,3.76,1.09,5.61,1.8Z"/>
      <path class="cls-21" d="M92.59,79.56c2.47.86.43,4.83-1.02,4.5-.78-.18,2.26-3.6,4.18-2.63.18-.43.35-.9.56-1.31,3.86-2.89,4.6-2.98,6.17,1.64.2.58.45,7.91-.35,8.55.63.66.22,1.19-1.25,1.6-4.85-.06-12.99-5.15-16.94-8.86,2.64-.49,4.44-2.48,5.85-4.66-3.08-2.58-1.97-4.17,1.73-5.06.01-1.35.51-1.39,1.44-.27.3,2.16.61,4.23-.37,6.5Z"/>
      <path class="cls-33" d="M53.37,73.1c-4.51.21-9.37.33-11.07,5.01-1.4-.42-1.46-.98-.17-1.67.15-1.61-.37-3.02-1.77-2.88-1.87.2-2.71,1.42-5.38,1.55-.7-1.71,1.22-1.63,1.76-1.68,2.07-.17.99-.72.19-1.73s-1.22-.59-1.81-.29c-.11-.82,0-1.84.69-2.07s1.31-.29,1.81-.29c.17-1.02.4-1.86.9-2.06s9.28-.53,10.06-.02c1.66-.69,2.7-3.08,5.16-1.86-1.81,3.19-5.56,4.03-3.05,6.55,1.41.27,3.48-.32,2.67,1.42Z"/>
      <path class="cls-78" d="M106.94,77.99c2.5,1.16,2.28,3.13-.65,5.9.17,6.43-1.21,8.57-4.16,6.42-.04-2.27-4.16-2.26-3.5-4.79.47-1.82,1.25-3.09.69-4.65-.34-.96-1.85-.82-3-.75,1.02-1.97,3.49-2.47,4.76-4.37,1.54-2.4,6.74-.7,5.86,2.24Z"/>
      <path class="cls-23" d="M65.43,58.16c3.16.45,6.97,1.25,7.73,4.7.04,3.18-.69,3.79-2.17,1.81l-2.36-.4c-2.89,1.43-5.44,1.82-7.65,1.16-.03-1.33-.72-2.68-.39-4.1-2.7-.45-2.84-2.66.14-3.02-.22-2.77,3.73-2.35,4.7-.15Z"/>
      <path class="cls-18" d="M73.08,70.02l1.57,2.95c.27.5.56,1.33.02,1.6-1.03.51-2.45.2-3.05.17-4.32-.15-13.3,2.06-16.93-1.56-.23-1.18.61-1.26,1.49-1.24,3.12.22,6.2.24,9.24.07,1.01,1.13,2.2,1.11,2.68.29.87-1.51.75-2.73,1.05-3.55,1.92-3.57,4.94-2.72,3.93,1.26Z"/>
      <path class="cls-64" d="M114.98,76.84c3.33.62.53,3.04-1.67,4.53-1.94-.2-2.94.85-4.45,1.51-2.94,1.28-1.52,4.1-1.99,7.92-.27,2.15-4.43,1.13-5.98,1.11-.75-.86.53-1.46,1.25-1.6l2.87-.56c-.65-4.19.48-8.09,1.94-11.76-.69-2.7.4-2.63,2.79-1.54l1.63-1.49,3.62,1.88Z"/>
      <path class="cls-46" d="M95.75,81.43c-.76,1.77-.59,4.02-1.89,5.42-2.28.18-4.36-1.59-5.01-3.22-.54-1.36,3.09-2.57,3.73-4.06.85.93,1.92,1.64,3.17,1.87Z"/>
      <path class="cls-57" d="M92.96,73.05c-.47.01-.97.3-1.44.27-3.19,4.23-9.65.39-7.75-4.59l.03-1.06c3.87,1.48,8.52.76,9.15,5.38Z"/>
      <path class="cls-72" d="M109.73,76.45c-.79.72-1.79,1.17-2.79,1.54-1.64-1.46-3.6-2.79-5.86-2.24-.72-.19-1.77.04-3.27-1.69,3.86-1.18,9.06-.89,11.92,2.4Z"/>
      <path class="cls-22" d="M65.43,58.16l-4.7.15c-2.4,2.19-3.3,1.07-1.47-1.79,1.12-1.08,1.9-2.16,3.88-1.73,1.63.35,2.37,1.66,2.29,3.37Z"/>
      <path class="cls-39" d="M60.73,58.31c-.17.99.09,2.05-.14,3.02-1.67.78-3.39-.09-4.16-1.7-.03-1.85,1.83-2.15,2.83-3.11.19.8.75,1.42,1.47,1.79Z"/>
      <path class="cls-49" d="M74.69,65.19c-.76-.15-1.41-.02-1.54-.96.75-.12,1.53.03,1.54.96Z"/>
      <path class="cls-8" d="M65.42,72.02c-3.08.36-7.38,3.31-9.24-.07,3.01.06,9.97-3.26,9.24.07Z"/>
    </g>
    <g id="front-glove">
      <path class="cls-4" d="M14.43,56.27c-1.72.57-7.18,2.2-9.67.77-2.49-1.44-4.6-3.93-4.6-5.74s.77-4.21.67-5.65.38-3.35.38-4.4-1.15-5.07,0-5.07h5.27c1.53,0,3.35.29,4.12.1s2.59-.1,3.06.1.29,2.01.38,3.35-.57,3.06.19,4.31,2.2,3.35,2.39,4.79-2.2,7.47-2.2,7.47Z"/>
      <path class="cls-28" d="M15.94,54.98c1.78-.49.87,1.82.18,3.26-3.95.56-7.35-.08-10.8-.17-3.75-.09-6-3.3-5.12-6.17,2.47-.91,5.2-.91,8.18,0-.48-3.63.79-3.88,3.04-1.13,2.05-3.08,3.56-1.68,4.52,4.22Z"/>
      <path class="cls-4" d="M10.18,36.89c-1.13.36-1.12.8-.02,1.31.4,1.15.66,2.09.41,2.26-2.27,1.53-7.45-.29-.16-1.01,1.29-.13,2.2,1.64,2.59,3.2,1.72.89,1.6,2.53.19,3.75-.56,1.35-1.09,1.32-1.59-.07-2.63-2.57-6.52-1.8-10.77-2.19-.37-3.5-.18-9.2-.18-9.2,0,0,8.84.83,9.52,1.95Z"/>
      <path class="cls-28" d="M11.6,46.33c1.06.07,1.34.12,1.59.07,2.3,1.66,1.34,4.84-1.78,4.37-.51,1.02-2.27.64-3.04,1.13-2.92-.14-5.63-.66-8.14-1.54,1.61-4.54,6.92-4.46,11.37-4.03Z"/>
      <path class="cls-16" d="M8.37,51.9c-2.5,1.6-5.4.05-8.18,0,.13-.85-.03-1.36.04-1.55,2.69.26,6.56-1.22,8.14,1.54Z"/>
      <path class="cls-41" d="M16.08,47.27c1.24,3.16,1.19,5.73-.15,7.71-1.18-1.74-2.51-3.45-4.52-4.22.68-1.36,1.42-2.89,1.78-4.37.14-1.41.65-1.5,1.5-.32,1.13.12,1.12.89,1.4,1.2Z"/>
      <path class="cls-20" d="M14.54,36.48c-.36,3.3,1.7,6.6.15,9.59l-1.5.32c.28-1.15-.24-2.56-.19-3.75-4.06-1.36-4.16-2.55-1.46-5.84l3-.33Z"/>
      <path class="cls-41" d="M13,42.65c-3.35-1.13-6.65-.72-10.95-.08,1.77-4.39,5.88-1.89,8.11-4.37-.81-.38-.77-.82.02-1.31.45,0,.92-.03,1.36-.08,1.09,1.73,1.54,3.8,1.46,5.84Z"/>
      <path class="cls-40" d="M10.18,36.89c.34.57.72.93-.02,1.31-2.63-.56-5.51.74-8.07-1,3.16-1.68,5.72-.27,8.09-.31Z"/>
    </g>
    <g id="Head">
      <g id="neck">
        <path class="cls-83" d="M44.57,20.91c-.64.57-1.54,1.18-2.31,1.03-.07-.01-.13-.02-.22-.03-.52-.08-1.36-.14-2.28-.26-.21-.02-.42-.05-.62-.08-.37-.05-.74-.11-1.09-.18-.82-.16-1.57-.37-2.07-.69-1.4-.84-3.28-2.43-3.89-3.47-.06-.09-.1-.19-.14-.27-.08-.2-.14-.45-.19-.72-.16-.95-.17-2.15-.16-2.37,0-.02,0-.02,0-.03h0s.02-.03.04-.04h.01s.03-.02.05-.03c.01-.01.03-.03.07-.04.31-.19,1.03-.57,1.8-.8.56-.17,1.45-.47,2.2-.73.38-.13.72-.25.99-.34.17-.06.3-.09.38-.11.49-.12,1.98-.6,2.61-.41.34.1,1.05.21,1.7.36.01,0,.02,0,.02,0,.54.12,1.05.27,1.31.47.09.07.24.18.45.29.17.12.38.25.62.4h0s.02.03.05.05h0c.35.23.71.48,1.07.73.52.38.98.77,1.2,1.11.06.09.11.17.12.26.02.02.02.04.02.06.06.56-.03,1.63-.15,2.45,0,.04,0,.08-.02.11-.03.18-.06.35-.09.49-.04.17-.08.3-.11.39-.08.2-.13.4-.19.6,0,.01,0,.02,0,.03-.02.09-.04.17-.08.25-.08.27-.19.54-.41.8-.02.03-.06.07-.09.11l-.02.02c-.15.16-.34.36-.57.57Z"/>
        <path class="cls-83" d="M42.94,23.37c-.44,0-.87-.16-1.24-.34-.44-.2-.88-.42-1.27-.67-.05-.03-.1-.06-.15-.11-.58-.12-1.14-.31-1.64-.56-.21-.09-.4-.2-.58-.31-.82-.16-1.57-.37-2.07-.69-1.4-.84-3.28-2.43-3.89-3.47-.06-.09-.1-.19-.14-.27-.08-.2-.14-.45-.19-.72-.16-.95-.17-2.15-.16-2.37-.01,0-.03,0-.05,0,0-.02.03-.02.05-.03.01-.01.03-.02.05-.03.03-.02.07-.04.12-.05,1.45-.72,3.57-.63,5.69.15.12.05.26.09.38.15.11.04.22.09.34.14.6.27,1.21.6,1.8.98.13.08.27.18.39.27.27.19.54.39.79.61.15.13.31.26.46.39,1.02.92,1.83,1.92,2.35,2.88.05.08.09.16.13.24,0,0,0,0,0,0,.05.08.07.15.11.24.17.38.29.75.36,1.11.1.51.1.98-.02,1.41-.06.11-.13.23-.22.33-.3.38-.82.7-1.4.71Z"/>
        <path class="cls-83" d="M39.82,21.26s-.09.06-.15.08c-.15.1-.32.18-.52.23-.16.06-.33.1-.51.13-.21-.09-.4-.2-.58-.31-.82-.16-1.57-.37-2.07-.69-1.4-.84-3.28-2.43-3.89-3.47.11-.1.23-.2.35-.31.15-.12.3-.24.46-.35,1.45-1.09,3.24-1.99,4.18-2.47.15-.08.28-.15.38-.2.1-.06.17-.11.21-.14,0,0,.03-.01.03-.02.39-.21.82-.56,1.27-.84.04-.02.07-.05.11-.07.48-.3.98-.49,1.47-.33.13.03.25.09.37.17.1.08.21.17.32.29,0,0,.02.01.03.03-.02.03-.04.06-.05.1h0c-.49.95.12,1.77.41,2.7,0,.14,0,.27,0,.41,0,.08-.01.15,0,.23-.02.35-.03.69-.06.99-.19,2-.77,3.22-1.74,3.84Z"/>
        <path class="cls-84" d="M42.94,23.37c-.44,0-.87-.16-1.24-.34-.44-.2-.88-.42-1.27-.67-.05-.03-.1-.06-.15-.11-.12-.08-.23-.16-.33-.27-.08-.1-.14-.22-.18-.34-.05-.1-.08-.21-.1-.32-.02-.04-.03-.09-.05-.14-.06-.18-.13-.34-.27-.49-.09-.1-.22-.18-.25-.3-.02-.08,0-.15.02-.23.18-.59.52-1.17.46-1.77-.02-.19-.07-.37-.07-.55,0-.25.1-.49.15-.73.08-.44.02-.89.13-1.32.05-.17.13-.34.17-.52.01-.03.01-.07.02-.11.01-.02.02-.05.01-.07.02-.1.02-.2.03-.3.07-.51.31-.99.57-1.47.03-.06.06-.13.13-.18h.01s.04-.04.06-.04h0s.1-.03.14-.05c.1-.03.19-.06.31-.08.31-.09.64-.14.96-.07l.89.57s.08.04.11.06c.33.2.59.46.77.75.02.02.03.05.04.06.03.11.07.19.11.25.02.03.03.06.03.09.07.19.12.38.16.57.14.59.27,1.2.13,1.78-.04.13-.08.25-.04.38.07.2.32.34.52.48.48.31.81.77.83,1.25,0,.01,0,.02,0,.03,0,.06,0,.12,0,.18,0,.04-.01.07-.03.11-.04.17-.12.34-.2.51-.08.15-.14.31-.2.47,0,0,0,.02-.01.02-.13.32-.26.63-.37.96-.11.31-.21.63-.37.92-.06.11-.13.23-.22.33-.3.38-.82.7-1.4.71Z"/>
        <path class="cls-50" d="M34.47,16.59c-.46.06-1.02.07-1.57-.01-.23-.03-.46-.08-.67-.15-.16-.05-.32-.12-.47-.19-.16-.95-.17-2.15-.16-2.37-.01,0-.03,0-.05,0-.04.01-.08.04-.11.06.02-.03.05-.05.09-.07.02-.02.04-.02.07-.04,0,0,.02-.02.04-.02h0s0,0,0-.01c.01,0,.03-.01.05-.02.01-.01.03-.03.07-.04.77-.41,2.05-.72,3.89-1.14.13-.03.25-.06.36-.09.43-.1.8-.19,1.13-.25.96-.2,1.51-.24,1.75-.02.15.14.18.35.11.59,0,.03,0,.06-.03.08-.09.3-.31.65-.56.99-.05.06-.09.12-.15.19-.02.03-.06.06-.09.11-.22.27-.46.52-.64.7-.68.66-1.55,1.5-3.06,1.7Z"/>
      </g>
      <g id="face">
        <path class="cls-48" d="M42.91,14.42c.18-.34.25-.7.32-1.06.03-.17.07-.34.04-.51-.02-.12-.06-.23-.05-.35,0-.11.05-.22.09-.32.12-.26.26-.52.42-.77.11-.17.23-.34.35-.5l.31-.43c.08-.11.17-.23.34-.26.16-.04.35,0,.52.05.44.11.88.22,1.31.34.12.03.24.06.34.12.1.06.17.13.25.2.15.13.36.22.56.32.59.28,1.14.6,1.66.94.21.14.42.28.52.46.06.1.07.21.13.31.14.22.48.41.47.64,0,.08-.04.14-.06.22-.03.15.06.32.04.47-.04.26-.39.43-.75.49s-.76.05-1.14.09c-.31.03-.62.1-.94.09-.27,0-.53-.06-.79-.11-.51-.09-1.02-.12-1.53-.16-.36-.03-.72-.05-1.07-.02-.38.04-.77.14-1.15.06l-.19-.31Z"/>
        <path class="cls-73" d="M46.32,13.31c-1.04-.38-2.22-.52-3.39-.38-.38.04-.77.12-1.15.15-1.36.13-2.68-.2-3.94-.55-.42-.12-.87-.27-1.07-.6-.19-.33-.09-.74.09-1.09s.42-.7.51-1.07c.06-.25.04-.51.08-.77.05-.32.19-.62.32-.92.26-.58.52-1.15.77-1.73.07-.16.15-.33.29-.46.19-.18.47-.28.74-.36.54-.17,1.1-.34,1.67-.36.19,0,.38,0,.57,0,.2-.01.4-.05.6-.08.5-.05,1,.01,1.48.09,1.29.21,2.55.52,3.77.92.31.1.63.21.92.36.25.13.47.27.7.42.2.13.4.27.6.4.17.11.35.23.42.4.12.28-.05.61-.31.84s-.59.38-.89.58c-.42.28-.78.63-1.02,1.03-.1.16-.18.33-.31.48-.11.13-.25.24-.38.36-.55.52-.78,1.21-1,1.87l-.08.48Z"/>
        <path class="cls-1" d="M50.14,8.66c-1.91.37-3.69,1.31-4.81,2.54,1.75.61,3.66,1.42,5.26,2.02,2.59-1.27,3.93-4.68-.45-4.56Z"/>
      </g>
      <g id="beard">
        <path class="cls-6" d="M50.8,15.03c-.51-.75-1.53-1.03-2.49-1.25-.96-.23-1.93-.46-2.89-.69-.22-.05-.46-.11-.7-.06-.54.11-.88.65-1.09,1.13-.21.51-.4.11-.34-.63.1-1.11-.07-2.42-1.15-2.77l-.43.32c-.89,1.6-1.81,3.41-1.31,4.98.27.84.92,1.49,1.55,2.11,1.19,1.17,2.41,2.36,4.02,3.03.35.14.74.27,1.14.17.82-.2,1.19-1.13,1.39-1.89.03-.1.05-.2.03-.29-.02-.11-.11-.2-.19-.27-.67-.63.8-3.57,1.75-2.99l.19-.04c.14.17.5.02.6-.2s.01-.45-.11-.64Z"/>
      </g>
      <g id="hair">
        <path class="cls-37" d="M56.92,10.98c-.47.24-1.13.32-1.89.05-.58-.21-1.95,1.09-2.57.96-.07-.02-.15-.03-.21-.05-.26-.06-3.15,2.1-6.32,2.55-3.44.49-7.17-.71-7.51-.59-.09.03-.19.06-.28.09,0,0-.2.05-.29.06-.26.05-.52.06-.76.05-1.27-.03-2.35-.67-3.65-.33-.52.14-1.1.17-1.66.11-.06,0-.12,0-.17-.02-.01,0-.03,0-.05,0,0,0-.01,0-.02,0-1.11-.14-2.1-.6-2.38-1.16-.04-.07-.08-.14-.12-.21-.4-.72-.89-1.26-.48-1.88.02-.03.06-.06.08-.1.2-.23.35-.49.5-.76.03-.05.07-.11.09-.17.18-.32.35-.65.57-.94.12-.17.26-.33.43-.48.5-.42.89-1.8,1.17-2.86.14-.59.27-1.08.34-1.26.21-.49.51-2.31,1.49-2.54.26-.07.66-.15,1.11-.25h.01c1.26-.27,2.96-.62,3.28-.71.06-.01.16-.03.33-.03.13,0,.28-.01.46-.02h.01c1.55-.02,4.86.1,5.6.39.95.36,4.6.81,5.68,1.23.02,0,.04.01.06.03h0c.26.11.63.3,1.04.52h0c1.34.77,3.15,2.02,3.6,2.79.14.24.31.46.52.69h0c.54.63,1.24,1.2,1.6,1.63h.02c.06.09.11.16.16.23.36.59,1.21,1.73.92,2.3-.13.24-.37.48-.71.66Z"/>
        <path class="cls-38" d="M50.98,3.13c-1.46-.85-1.05-1.31-2.66-1.62-1.61-.3-5.74-1.74-7.1-1.48-1.36.26-2.75-.01-3.84.84-1.09.85-.93,1.44.02,1.68s3.77,1.32,4.93,1.44c1.16.12,4.75.64,5.62.69.87.04,3.2-.08,3.27-.49s-.24-1.06-.24-1.06Z"/>
        <path class="cls-15" d="M32.55,5.28l-.16-.57c-.07-.25-.15-.51-.11-.77.03-.19.11-.38.2-.57.14-.31.28-.61.42-.92.04-.08.07-.16.14-.22.08-.07.19-.12.29-.17.28-.15.48-.38.72-.58.49-.41,1.15-.68,1.82-.92.41-.14.83-.28,1.28-.28.33,0,.65.07.97.15.79.18,1.6.37,2.27.74.21.12.41.26.55.43.19.24.23.53.28.81.05.34.1.67.15,1.01,0,.05.01.1-.02.15-.03.04-.1.07-.16.09-1.49.53-3.04.98-4.67,1.12-.73.06-1.48.07-2.15.3l-1.79.2Z"/>
        <path class="cls-37" d="M52.17,11.05c-.12-.23-.24-.46-.38-.69-.65-1.08-1.67-2.03-2.92-2.73-1.57-.88-3.45-1.35-5.32-1.76-.86-.19-1.72-.36-2.58-.53-.44-.08-.89-.17-1.34-.14-.76.04-1.44.37-2.08.68-.46.23-.92.46-1.38.69-.57.28-1.16.57-1.83.64-.07,0-.15.01-.22,0-.21-.04-.3-.23-.36-.39-.18-.48-.36-.95-.53-1.43-.17-.46-.32-1.02.09-1.38.33-.29.9-.33,1.4-.28s.99.17,1.49.12c.6-.06,1.11-.35,1.7-.46.58-.1,1.23-.03,1.73-.27.34-.17.55-.46.76-.73.1-.13.23-.26.42-.28.29-.04.51.19.71.36.43.38,1.05.58,1.65.78.63.2,1.28.41,1.96.49.65.08,1.32.04,1.97.12,1.1.14,2.1.61,2.9,1.21.79.6,1.41,1.33,1.97,2.07-.22-.1-.54-.06-.71.09-.21.18-.18.48-.02.69s.41.38.64.55c.42.32.77.69,1.02,1.1.33.53.45,1.26-.14,1.64-.17.03-.36-.04-.42-.16l-.18.02Z"/>
        <path class="cls-38" d="M48.12,6.53c.08-.33,1.82-.55,2.24-.45,1.2.28,2.39.55,3.59.83.77.18,1.57.37,2.1.83.78.68,1.34,2.82.93,3.67-.05.11-.11.22-.22.3-.17.12-.43.13-.66.13-.56-.02-1.12-.1-1.67-.19-.73-.12-2.47-.49-3.2-.6-.36-.06-.35-.97-.68-1.08-.94-.32-1.54-1.07-1.72-1.85s-.71-1.59-.71-1.59Z"/>
        <path class="cls-44" d="M34.41,7.42c.08.16-.14.31-.35.36s-.45.1-.55.25c-.06.08-.05.18-.1.27-.05.09-.16.16-.28.21-.96.48-2.26.55-3.3.17-.05-.02-.11-.04-.15-.07-.16-.13-.04-.35.08-.5.41-.52.74-1.08.98-1.66.1-.24.19-.48.32-.71.28-.48.8-.89,1.45-1.06s1.43-.06,1.91.31c.55.44.6,1.11.62,1.71,0,.12-.08.3-.23.26l-.4.45Z"/>
        <path class="cls-2" d="M47.72,4.55c3.82-6.77,12.17,7.01,4.51,3.59-.37-1.97-4.11-2.05-4.51-3.59Z"/>
      </g>
    </g>
  </g>
</svg>