<?xml version="1.0" encoding="UTF-8"?>
<svg id="Player" xmlns="http://www.w3.org/2000/svg" viewBox="0 0 71.39 129.99">
  <defs>
    <style>
      .cls-1 {
        fill: #c47144;
      }

      .cls-2 {
        fill: #979a76;
      }

      .cls-3 {
        fill: #4f4f62;
      }

      .cls-4 {
        fill: #040c16;
      }

      .cls-5 {
        fill: #42474e;
      }

      .cls-6 {
        fill: #202930;
      }

      .cls-7 {
        fill: #bfd1d5;
      }

      .cls-8 {
        fill: #1c2c4b;
      }

      .cls-9 {
        fill: #f7c78f;
      }

      .cls-10 {
        fill: #1c2633;
      }

      .cls-11 {
        fill: #363d46;
      }

      .cls-12 {
        fill: #e58c6b;
      }

      .cls-13 {
        fill: #11213b;
      }

      .cls-14 {
        fill: #2f3940;
      }

      .cls-15 {
        fill: #01070f;
      }

      .cls-16 {
        fill: #798990;
      }

      .cls-17 {
        fill: #fee8bb;
      }

      .cls-18 {
        fill: #2b363c;
      }

      .cls-19 {
        fill: #c1c3a6;
      }

      .cls-20 {
        fill: #303137;
      }

      .cls-21 {
        fill: #f8cc9a;
      }

      .cls-22 {
        fill: #574a5c;
      }

      .cls-23 {
        fill: #0a1c30;
      }

      .cls-24 {
        fill: #020606;
      }

      .cls-25 {
        fill: #a1a079;
      }

      .cls-26 {
        fill: #663724;
      }

      .cls-27 {
        fill: #1f2d55;
      }

      .cls-28 {
        fill: #0d141d;
      }

      .cls-29 {
        fill: #76858b;
      }

      .cls-30 {
        fill: #482712;
      }

      .cls-31 {
        fill: #071324;
      }

      .cls-32 {
        fill: #c46d4f;
      }

      .cls-33 {
        fill: #2d110a;
      }

      .cls-34 {
        fill: #010d18;
      }

      .cls-35 {
        fill: #192a4f;
      }

      .cls-36 {
        fill: #dbdbc9;
      }

      .cls-37 {
        fill: #d8d3c4;
      }

      .cls-38 {
        fill: #18191c;
      }

      .cls-39 {
        fill: #17191c;
      }

      .cls-40 {
        fill: #b66746;
      }

      .cls-41 {
        fill: #16202c;
      }

      .cls-42 {
        fill: #6d7d83;
      }

      .cls-43 {
        fill: #d3cfb8;
      }

      .cls-44 {
        fill: #eecc9e;
      }

      .cls-45 {
        fill: #37404a;
      }

      .cls-46 {
        fill: #b6b798;
      }

      .cls-47 {
        fill: #efbe8c;
      }

      .cls-48 {
        fill: #142442;
      }

      .cls-49 {
        fill: #081123;
      }

      .cls-50 {
        fill: #332f34;
      }

      .cls-51 {
        fill: #e3916c;
      }

      .cls-52 {
        fill: #0e1b2d;
      }

      .cls-53 {
        fill: #d8805b;
      }

      .cls-54 {
        fill: #1a2b4f;
      }

      .cls-55 {
        fill: #13223a;
      }

      .cls-56 {
        fill: #eba272;
      }

      .cls-57 {
        fill: #404967;
      }

      .cls-58 {
        fill: #040f1a;
      }

      .cls-59 {
        fill: #edae7f;
      }

      .cls-60 {
        fill: #071119;
      }

      .cls-61 {
        fill: #131b28;
      }

      .cls-62 {
        fill: #354464;
      }

      .cls-63 {
        fill: #5e6267;
      }

      .cls-64 {
        fill: #fefbf1;
      }

      .cls-65 {
        fill: #10203c;
      }

      .cls-66 {
        fill: #070d06;
      }

      .cls-67 {
        fill: #c47260;
      }

      .cls-68 {
        fill: #909166;
      }

      .cls-69 {
        fill: #8e6670;
      }

      .cls-70 {
        fill: #bf663b;
      }

      .cls-71 {
        fill: #414d56;
      }

      .cls-72 {
        fill: #273137;
      }

      .cls-73 {
        fill: #d9dccc;
      }

      .cls-74 {
        fill: #000e1f;
      }

      .cls-75 {
        fill: #060000;
      }

      .cls-76 {
        fill: #1d1913;
      }

      .cls-77 {
        fill: #e28c68;
      }

      .cls-78 {
        fill: #735d69;
      }

      .cls-79 {
        fill: #b8673a;
      }

      .cls-80 {
        fill: #00121d;
      }

      .cls-81 {
        fill: #2f3033;
      }

      .cls-82 {
        fill: #575a61;
      }

      .cls-83 {
        fill: #3a4765;
      }

      .cls-84 {
        fill: #1d2429;
      }

      .cls-85 {
        fill: #232f34;
      }

      .cls-86 {
        fill: #1c2a51;
      }

      .cls-87 {
        fill: #bd653d;
      }

      .cls-88 {
        fill: #a1542d;
      }

      .cls-89 {
        fill: #1e252c;
      }

      .cls-90 {
        fill: #903e0f;
      }

      .cls-91 {
        fill: #f9daab;
      }

      .cls-92 {
        fill: #0a1b30;
      }

      .cls-93 {
        fill: #170d03;
      }

      .cls-94 {
        fill: #96a7ac;
      }

      .cls-95 {
        fill: #303f5f;
      }

      .cls-96 {
        fill: #374666;
      }

      .cls-97 {
        fill: #f7c08d;
      }

      .cls-98 {
        fill: #cc8762;
      }

      .cls-99 {
        fill: #0a121d;
      }

      .cls-100 {
        fill: #0d1c2e;
      }

      .cls-101 {
        fill: #201a1b;
      }

      .cls-102 {
        fill: #5c4748;
      }

      .cls-103 {
        fill: #3b474d;
      }

      .cls-104 {
        fill: #1a2a4e;
      }

      .cls-105 {
        fill: #a3a57f;
      }

      .cls-106 {
        fill: #162440;
      }

      .cls-107 {
        fill: #281f34;
      }

      .cls-108 {
        fill: #e4e5dc;
      }

      .cls-109 {
        fill: #1c242a;
      }

      .cls-110 {
        fill: #f9d9aa;
      }

      .cls-111 {
        fill: #04111e;
      }
    </style>
  </defs>
  <path class="cls-23" d="M43.12,78.8c4.44-.24,4.25,3.31.08,4.52-.17,2.97,2.14,3.23,6.95.76l1.5.75c1.48.33,1.49.71.04,1.15-1.09,1.14-2.1,2.98-3.79,3.39-2.48,1.56-3.44,2.41-4.61,5.15-.35.16-1.16.2-1.54.12-2.29.3-3.32,1.21-3.08,2.72,1.63,1.4.91,4.69-1.44,4.61-.72,3.87-9.08,7.72-10.78,2.87-2.59.4-3.34-3.43-3.2-5.94-2.46-.77-2-4.78,0-6.17.14-3.27.16-3.28,3.27-2.13-1.06-4.55-1.32-9.92,4.5-8.52l5-3.04c-1.85-1.98-.97-2.56,2.65-1.73.94-3.16,3.96-.99,4.46,1.49Z"/>
  <path class="cls-86" d="M24.97,56.99c.41-.1,1.09.31,1.44.08,2.55-.47,2.77,3.28,1.48,4.81l-.93,5.45-2.18.78c1.4,3.45.37,6.52-3.09,9.21-.13,3.96-1.16,6.02-3.07,6.18.91,4.4-2.67,4.8-4.66,1.7l-3.98-1.5c.08-4.29.38-8.47.92-12.56.31-1.99,1.88-4.11,4.7-6.35-1.28-.13-2.01-4.4-2.21-6.52-.05-.56.25-1.16.65-1.76,2.97-.57,6.62-.41,10.94.47Z"/>
  <path class="cls-52" d="M37.63,106.17c-.54,2.2-1.93,4.3-2.06,6.61-.55,3.7-1.58,4.69-3.09,2.97-.4,4.41-3.63,5.47-5.9,1.55-1.84,1.69-2.71,1.02-1.8-1.43-1.23,1.8-2.24,1.17-3.02-1.88-3.03.3-3.74-2.74-1.24-4.5-.54-2.62,2.67-3.74,3.95-1.42.02-3.06,1.29-3,2.05.03l9.29-3.3,1.81,1.37Z"/>
  <path class="cls-62" d="M41.75,63.44c.34.58,1.08,1.04,1.54,1.54-.97.86-.46,1.37,1.54,1.54,1.43,1.25,1.82,3.16,1.92,5.02,3.34,3.41,2.38,4.77-1.92,5.78-3.75.6-9.29-3.86-6.54-7.65-2.89-1.23-6.98-3.01-4.02-5.86,1.7-1.81,5.38-2.44,7.48-.36Z"/>
  <path class="cls-55" d="M20.99,88.96c2.16-2.54,3.84-.2,2.25,2.23-.5,3.3-1.64,4.98-3.44,5.04-1.16,3.54-3.63,2.32-2.74-1.39-.95-.97-2.49-1.16-4.61-.56-2.51,1.78-5.15,3.46-6.38,0-.43-.54-1.08-.96-1.46-1.54.29-2.06.91-3.68,1.87-4.87.52-1.29.98-1.18,1.39.22,5.48-2.17,9.85-1.88,13.11.87Z"/>
  <path class="cls-8" d="M10.49,57.21c6.74.64,4.39,10.66-1.13,6.23-.51,1.57-1.66,2.09-3.44,1.56.18,3.2-2.05,4.04-4.12,1.64-.19-.5,0-1.14-.15-1.65-.74-1.95-.89-4.5.04-6.36.57-1.09,2.31-1.74,2.72-2.89,2.16-3.05,5.63-2.25,6.08,1.49Z"/>
  <path class="cls-35" d="M29.71,57.57c2.61,1.59,4.13,3.66,4.55,6.23l4.02,5.86c-3.08,6.15-16.11-1.09-10.39-7.78-.26-1.67-.71-3.3-1.48-4.81.87-.56,2.25-.63,3-1.35,2.96-.73,3.2.57.3,1.85Z"/>
  <path class="cls-27" d="M37.22,101.98c1.17.02,1.42.98.74,2.87l-.33,1.32c-3.74,1.82-7.77,5.72-11.1,1.93-1.73-.68-2.12-2.79-.09-3.25,3.83.17,7.28-1.49,10.78-2.87Z"/>
  <path class="cls-3" d="M24.78,54.18l.19,2.8c-.31,1.02-.66,2.27-1.54,2.76-2.57,1.44-6.74-3.76-9.4-3.23-2.99-.03-2.87-1.21.18-1.76.18-1.4.68-1.48,1.49-.28,1.93-3.07,6.42-1.78,9.07-.3Z"/>
  <path class="cls-99" d="M9.36,78.86c3.6,3.27,2.64,6.28-2.88,9.01.08,1.37.76,2.8,1.1,4.17.26,1.04-2.55.75-2.97.69-2.83-4.46.09-9.2,1.61-13.88,1.8-2.07,2.73-3.06,3.14,0Z"/>
  <path class="cls-109" d="M18.86,109.46c.47-1.3,1.02-1.26,1.66.02.62,1.41,1.26,2.93,1.24,4.5,2.11,1.1,1.19,3.49-.07,4.97-.52,4.29-2.63,4.12-3.74.02.28-3.39-.06-6.95-3.92-7.67-1.84-2.03-1.22-3.38,1.51-3.44,1.72-2.42,3.08-1.4,3.32,1.6Z"/>
  <path class="cls-57" d="M10.9,51.29c1.98.19,4.48,1.34,3.31,3.46l-.18,1.76c.88,3.81-.3,4.04-3.54.7-1.97.39-4.07-.97-6.08-1.49.44-1.21.61-2.94.7-4.23,1.93.04,3.86-.03,5.79-.21Z"/>
  <path class="cls-18" d="M32.44,125.26c1.75.68,1.5,1.97.13,3.33-.75.74-1.54,1.51-2.93,1.12l-5.98-2.1c-.16-1.12-1.27-2.19-2.06-2.9-2.07-.21-2.14-.62-.17-1.23-.06-3,1.22-2.95,1.82.09,2.06-.48,6.99.25,9.2,1.68Z"/>
  <path class="cls-89" d="M9.59,98.9c2.53-2.89,5.43,2.24,3.29,4.58,2.97.53,2.95,1.78.03,2.67,1.36,2.18.69,3.56-1.89,3.62-3.78-2.9-4.43-7.85-4.74-12.41,1.48-2.76,2.89-1.43,3.31,1.54Z"/>
  <path class="cls-102" d="M52.52,77.65l.08,1.06c-2.41,3.5-6.09,1.92-7.77-1.39.1-2.08,1.54-3.76,1.92-5.78,3.74-.35,3.71,4.34,5.77,6.11Z"/>
  <path class="cls-16" d="M26.58,117.3l5.91,4.74c1.05.45,1.03.97,0,1.54l-.06,1.68c-3.16.05-6.41-.08-9.2-1.68-1.49-2.21-1.62-9.15,1.54-7.71.37.48,2.17.38,1.8,1.43Z"/>
  <path class="cls-61" d="M51.69,85.98c.59-.62.97-.83-.04-1.15-1.43-.9-1.67-1.85-.71-2.85-3.72-2.18-2.53-4.06,1.66-3.27l-.08-1.06c1.41,1.21,4.31,1.44,3.02,4.88-.55,1.46-1.64,3.04-3.86,3.45Z"/>
  <path class="cls-10" d="M38.66,60.35c1.49,2.17-1.05,2.7-3.08,1.54-2.17-.59-5.34-1.92-5.86-4.32.2-.51-.36-1.29-.3-1.85,3.02-2.88,8.53.95,9.25,4.63Z"/>
  <path class="cls-100" d="M5.92,64.99c1.52-1.38,3.65-.02,4.98,1.53,1.64,1.99.79,2.73-1.54,1.54-.5,3.99-1.99,4.83-4.48,2.51-1.33-1.03-2.46-2.37-3.08-3.94,1.27-.77,2.76-1.08,4.12-1.64Z"/>
  <path class="cls-14" d="M32.49,123.58v-1.54c-4.64-.38-4.18-4.91,0-6.29,1.13-.88,2.14-1.9,3.09-2.97-.21,3.9,1.45,9.43-3.08,10.79Z"/>
  <path class="cls-34" d="M9.36,71.15c1.59,1.39,1.35,6,0,7.71h-3.14c.54-1.67,2.23-3.03,1.4-5.08-.54-1.34-1.58-2.31-2.73-3.2,1.08-1.43,2.92-1.78,4.48-2.51,3.07-.17,2.36,1.57,0,3.08Z"/>
  <path class="cls-85" d="M21.7,118.95c1.05,1.46,1.16,3.47-.28,4.53-.84.56-.43.69.17,1.23l-2.69,2.04c-.7-3.22-1.13-5.45-.94-7.78l3.74-.02Z"/>
  <path class="cls-72" d="M15.54,107.87c-.56,1.12-1.07,2.27-1.51,3.44-1.36-.25-2-.75-3.01-1.53.46-1.29,1.06-2.53,1.89-3.62.66-3.76,5.03-.93,2.63,1.72Z"/>
  <path class="cls-69" d="M41.75,63.44l-7.48.36c-2.78-2.48-2-3.57,1.31-1.91,1.1-.15,2.02-1.24,3.08-1.54,1.41.62,2.33,1.79,3.08,3.08Z"/>
  <path class="cls-49" d="M37.96,104.85c-1.22.4-1.22-2.21-.74-2.87.79-1.09,1.79-3.02,1.44-4.61-.53-1.56-.02-2.07,1.54-1.54.19,3.22.6,6.92-2.24,9.03Z"/>
  <path class="cls-24" d="M12.45,94.28c1.35.44,1.33.95,0,1.54-.13,2.56-.52,3.2-2.85,3.08l-3.31-1.54-.21-3.08h6.38Z"/>
  <path class="cls-61" d="M47.89,89.37c-.83,2.23-2.5,4.06-4.61,5.15-.06-1.14-.37-2.52.23-3.84.73-1.6,2.92-.95,4.37-1.3Z"/>
  <path class="cls-54" d="M41.75,94.64c-.5.41-1.01.82-1.54,1.18-.61.41-1.14.93-1.54,1.54-1.28-.2-2.55.63-4.79-.63,2.51-1.55,5.17-2.66,7.87-2.09Z"/>
  <path class="cls-78" d="M43.29,64.98c.48.53,1,1.07,1.54,1.54-1.76,1.83-4.41.53-6.36-1.02,2.34-1.03,3.52-.37,4.82-.52Z"/>
  <path class="cls-15" d="M1.65,64.98c-1.86-.08-1.66-2.36-1.63-3.84.02-1.04.43-2.18,1.67-2.53.51,2.12,1.2,4.42-.04,6.36Z"/>
  <path class="cls-6" d="M29.64,129.71c-1.16-.32-2.47.51-4.12.21-1.07-.19-1.64-.81-1.86-2.31,2.13-1.67,4.37.56,5.98,2.1Z"/>
  <path class="cls-92" d="M27.89,61.88c-.51,3.07.61,5.78,4.43,6.54,2.29.46,4.11,2.01,5.97,1.24,1.87,2.73,3.46,6.06,6.54,7.65,2.03,2.39,1.03,3.27-1.71,1.49-1.4-.72-2.91-1.2-4.46-1.49l-2.08.67c-1.53-1.76-3.92-3.01-7.18-3.75-4.25.3-5.79-1.74-4.62-6.13.54-2.45-.7-6.65,3.1-6.22Z"/>
  <path class="cls-11" d="M27.68,74.26c10.45,1.58,11.56,4.19,3.33,7.82-1.98,2.59-3.25,5.47-4.5,8.52-5.1.5-4.84-13.43-3.05-16.34,1.85-3.02,2.33-3.03,4.23-.01Z"/>
  <path class="cls-4" d="M29.41,74.23l-1.73.03c-1.11-.08-2.3-.39-3.84.35-1.37,5.85-.49,11.54,2.67,16-.57,1.38-1.68,2.4-3.27,2.13v-1.54c-.37-.85-1.29-2.17-2.25-2.23-1.37-.03-1.3-.4.02-1.08-1.15-3.18-.92-6.7.69-10.56,1.29-2.88,2.41-6.13,3.09-9.21.77,2.54,2.36,4.73,4.62,6.13Z"/>
  <path class="cls-104" d="M51.65,84.83c-4.05,1.94-8.78,6.33-13.14,2.2.99-2.65,3.52-2.58,4.69-3.71.73-4.07,5.15-3.71,7.73-1.34.05.37,1.11,1.01,1.46,1.48.78,1.06.21.92-.74,1.37Z"/>
  <path class="cls-106" d="M52.6,78.7l-1.66,3.27c-2.1,1.86-5.08,1.6-7.73,1.34l-.08-4.52c.82-.13,1.16-1.07,1.71-1.49,2.81-1.84,4.98,1.34,7.77,1.39Z"/>
  <path class="cls-58" d="M38.66,77.31c-1.24,3.08-4.61,4.12-7.65,4.77,1.28-1.67,2.12-3.22,4.77-4.03-3.42-1.79-6.48-1.62-8.09-3.8.55.04,1.17.02,1.73-.03,3.42-.28,7.16.12,9.25,3.08Z"/>
  <path class="cls-111" d="M26.44,104.85c.41.93-.2,2.27.09,3.25-.66.11-1.41-.19-2.05-.03-3.42.64-3.65-.46-1.5-3.08-3.63-.25-4.5-2.49-1.28-4.53-1.35-.44-1.33-.95,0-1.54.41-1.31.93-1.29,1.54,0,1.44,1.74,2.29,3.88,3.2,5.94Z"/>
  <path class="cls-60" d="M23.24,92.74v6.17c-.48-.09-1.08.14-1.54,0-3.27,1.73-4.53-.05-1.89-2.67.82-1.88,1.74-3.81,3.44-5.04.18.41,0,1.08,0,1.54Z"/>
  <path class="cls-96" d="M21.01,87.88c-.1.33.04.73-.02,1.08l-13.11-.87c.7-2.54,3.87-6.95,6.09-2.89,1.29-.19,3.93.56,4.66-1.7,1.27-.16,2.06,1.3,2.38,4.38Z"/>
  <path class="cls-13" d="M14.03,56.51c3.54,1.98,1.04,5.57,1.57,8.28-.61,2.44-3.22,4.09-4.7,1.73-2.25-.74-3.63-1.24-1.54-3.08,1.08.68,4.03-.18,3.9-2.24-.07-1.25-2.85-2.26-2.78-3.98l3.54-.7Z"/>
  <path class="cls-65" d="M13.97,85.2c-2.05.3-4.37,1.98-6.09,2.89l-1.39-.22c-.12-2.06,1.42-2.72,3.25-4.24,1.37-1.14-.38-3.51-.38-4.77v-7.71c.44-1.35.95-1.33,1.54,0,1.14,3.53-.86,7.23,1.24,11.52,3.9-2.66,2.26-6.69,5.65-10.22,2.68,8.66-4.54,7.29-3.83,12.75Z"/>
  <path class="cls-55" d="M21.01,87.88c-2.11,0-2.03-2.82-2.38-4.38.74-2.27,2.14-4.1,3.07-6.18.07,3.54.31,7.13-.69,10.56Z"/>
  <path class="cls-95" d="M10.9,71.15h-1.54v-3.08c.62-.29.98-1.16,1.54-1.54,1.63-.37,3.22-.94,4.7-1.73,1.34,3.75-2.78,3.81-4.7,6.35Z"/>
  <path class="cls-7" d="M32.49,115.75v6.29c-1.67.02-3.8,1.92-5.52,1.19s-2.44-2.07-1.9-3.14c.42-.84,1.16-1.77,1.52-2.79l5.9-1.55Z"/>
  <path class="cls-45" d="M24.48,108.06c-1.36.34-2.65.91-3.95,1.42-.52-.12-1.17.16-1.66-.02-2.8-1.5-2.25-3.14,1.04-3.52-.63-3.2.95-3.56,3.08-.96.85.82,1.37,1.91,1.5,3.08Z"/>
  <path class="cls-103" d="M24.78,115.87c-2.66,1.46-1.34,5.15-1.54,7.71-.45-.26-1.31.15-1.82-.09.12-1.51.26-3.02.28-4.53l.07-4.97c1.28-.02,2.36,1.03,3.02,1.88Z"/>
  <path class="cls-29" d="M17.06,94.84c.47,1.03,2.03.91,2.74,1.39.51.86.69,2.32,1.89,2.67v1.54c-.79,3.61-2.84,3.82-4.35.45-4.12,1.76-7.53-3.28-3.15-5.1-.51-2.28,1.76-3.38,2.86-.96Z"/>
  <path class="cls-31" d="M17.06,94.84c-1.04,0-2.07.27-2.86.96.31,2.97-.87,2.99-1.75.02v-1.54c.58,0,3.14-4.04,4.68-2.44.98,1.01.88,1.91-.07,3Z"/>
  <path class="cls-48" d="M9.36,63.44c.27,1.15,1.55,1.84,1.54,3.08-1.68,0-4.49.47-4.98-1.53.68-.28.8-1.68,1.79-2.29.61-.38.92.27,1.65.73Z"/>
  <path class="cls-83" d="M35.58,61.89c-1.16.16-1.93.61-1.31,1.91-.74-1.08-3.06-.75-3.99-2.29-.68-1.12-1.18-2.41-.56-3.94,2.8-.05,6.23,1.05,5.86,4.32Z"/>
  <path class="cls-42" d="M15.46,102.13c2.92-.84,5.16.52,4.44,3.81-.51,1.12-.86,2.3-1.04,3.52-1.15-.42-2.24-1.02-3.32-1.6-.39-1.14-1.37-2.15-2.63-1.72l-.03-2.67c.2-1.72,1.06-2.17,2.58-1.35Z"/>
  <path class="cls-71" d="M12.45,95.82l1.75-.02c.12,2.18.83,4.51,3.15,5.1,1.33,2.66.29,3.28-1.89,1.23-.9.38-1.77.81-2.58,1.35l-3.29-4.58c-.22-1.01-.51-2.46.67-2.82.76-.23,1.53-.25,2.18-.26Z"/>
  <path class="cls-94" d="M21.7,100.45c.68,1.43,1.09,2.96,1.28,4.53-1.07.17-2.1.5-3.08.96-1.83-.79-3.32-2.17-4.44-3.81l1.89-1.23c1.46-.05,2.91-.21,4.35-.45Z"/>
  <g>
    <path class="cls-68" d="M7.79,29.84c3.99-2.08,6.29-.69,6.71,3.79,3-.27,2.98.98-.01,1.9,1.07,1.47.36,2-2.11,1.59l-3.04,4.49c3,.93,3.05,2.37.03,3.32-1.62,1.57-.34,1.87,3.82.89,5.6,1.3,4.43,4.38-.51,3.7,1.56,2.5.74,3.32-1.76,1.77-1.67,3.78-3.85,3.86-5.79.21.54-7.57-5.02-9.67-1.34-25.15,1.18,2.89,2.84,2.61,4.01,3.49Z"/>
    <path class="cls-46" d="M32.7,45.24c-1.87.92-2.98,2.94-4.46,4.33-1.48,1.34-3.14,2.36-4.99,3.07-2.31.55-5.26.68-6.17-1.54-1.9,3.32-6.26,1.61-4.4-1.58.08-.46.65-1.12.93-1.47.71-.87-.01-1.68-.44-1.51l-2.79,1.11c-1.33.53-2.46-.05-3.38-.63-.58-.37,2.38-2.12,2.37-2.1-.06-2.47,2.04-2.2,3.08,0l17.09-3.08c.56-5.63,8.52-1.4,3.16,3.39Z"/>
    <path class="cls-51" d="M63.86,26.72c3.02-.05,4.29,4.82,4.02,7.38,2.64.06,2.13,2.19.08,3.42-1.43,3.26-5.57,3.68-8.49,1.29-2.46-2.01-2.75-5.88-1.33-8.8-3.64-2.02-3.26-2.36.76-3.39.23-2.63,3.53-1.8,4.95.1Z"/>
    <path class="cls-105" d="M43.13,34.41c-4.22,2.96-5.65,8.5-10.43,10.83.2-.25-.31-2.45-.62-3.35-.27-.79-1.32-.18-2.54-.04h-1.67c-1.72-.41-2.93-1.1-3.62-2.05-4.08-.55-3.76-1.94.23-2.8,1.66-4.36,4.62-3.48,6.8.28.44-1.82,2.04-2.65,4.78-2.5,1.26-2.25,2.59-4.01,4-5.28,3.87-1.67,5.37,1.81,3.08,4.9Z"/>
    <path class="cls-21" d="M55.63,24.88c1.83-2.16,3.5-.87,3.28,1.74-.41,1.05-.26,2.37-.76,3.39-1.91.82-3.66,2.95-5.54,1.17-3.12,1.92-5.47,1.65-6.46-2.14-6.16,1.15-4.03-5.72-.29-8.26,0-2.67.99-2.85,1.9-.19,3.56-.51,8.12-.09,7.86,4.29Z"/>
    <path class="cls-79" d="M60.21,12.5c.4-.88.95-.8,1.61.04-.03.51.1,1.04,0,1.54-.81.47-.95.82-.32,1.54l-.1,1.54c-1.53.47-1.05,1.66.4,1.54-.05,2.2-1.2,2.61-2.89,1.22-3.69,2.89-5.81,2.49-6.36-1.22-2.52-2.27-1.16-4.59,1.54-6.17,2.07.56,4.16,1.56,6.12-.04Z"/>
    <path class="cls-87" d="M45.86,20.79c-1.52,2.82-2.21,5.9.29,8.26,3.53,2.88,3.2,4.44-1.19,5.63l-1.83-.27c-.45-1.94-1.45-3.72-3.08-4.9-1.33-.36-1.3-.88-.02-1.54-1.79-1.43-2.17-2.56.17-3.08.75-3.93,2.23-5.77,4.42-5.53.19-1.36.57-1.3,1.13.04,1.11.25,1.11.72.11,1.39Z"/>
    <path class="cls-53" d="M52.61,31.18c-1.21,2.55,2.03,1.54,3.23,4.91-4,2.11-7.55-.92-10.89-1.42.52-1.85.91-3.73,1.19-5.63,1.79-.24,5.81.21,6.46,2.14Z"/>
    <path class="cls-9" d="M9.36,14.09c2.41,1.18,5.83,1.32,8.01-.32.45-.05.91.05,1.35.02,1.7-.19,2.28.52,1.74,2.15,4,.63,3.64,2.07-.31,2.77.11,2.22-1.74,1.54-3.08,0-9.17,2.8-12.81,1.73-10.94-3.21.49-.54,1.15-.92,1.68-1.42.44-1.35.95-1.33,1.54,0Z"/>
    <path class="cls-77" d="M17.07,18.71c1.35.44,1.33.95,0,1.54-1.28,3.82-5.38,4.01-7.86,1.3,1.39,3.91-.59,4.44-3.31,1.64-.9-1.11-3.08-1.73-2.5-3.52s1.67-3.01,2.74-4.18c1.91,4.17,6.94,3.21,10.94,3.21Z"/>
    <path class="cls-110" d="M69.5,31.05c.97,2.43,1.14,3.78-1.63,3.06-2.72-1.41-2.94-4.75-4.02-7.38-1.22-1.11-.79-1.56,1.32-1.36.37-1.29.79-1.19,1.26.15,2.15,1.09,2.35,3.53,3.06,5.54Z"/>
    <path class="cls-76" d="M63.34,20.26c.82,1.75,1.43,3.45,1.84,5.1.72.92-.61,1.62-1.32,1.36-1.49-.54-3.58.52-4.95-.1-.89-.4-2.47-1.2-3.28-1.74-5.01-3.79-1.93-4.98,3.28-4.95,1.09-.03,2.23-.3,2.89-1.22.54.48,1.05,1,1.54,1.54Z"/>
    <path class="cls-63" d="M24.69,19.21c-.13,1.38-.57,1.37-1.3.09-1.66,1.03-3.09,1.66-3.23-.59l.31-2.77c-.8-1.87.91-2.4,2.77-1.85.49-.08,1.06.12,1.54,0,.27-.89.49-1.55,1.54-1.54,9.93-3.25,5.44,8.42-1.63,6.67Z"/>
    <path class="cls-39" d="M39.03,4.9c1.4.26,1.41.79.16,1.58-1.48,3.27-2.73,5.18-5.19,1.82-2.69,2.51-5.64-.03-4.39-3.54-.48-1.6,1.5-2.51,5.93-2.74.75,1.15,2.33,2.21,3.49,2.88Z"/>
    <path class="cls-70" d="M15.4,25.96c2.85.82,1.26,4.32-1.07,5.03,1.31.7,1.23,1.7.17,2.64-2.51-.81-4.64-2.24-6.71-3.79l.1-1.55c-.94-4.08,1.52-4.4,3.48-.94.13-3.49,1.78-4.05,4.03-1.38Z"/>
    <path class="cls-82" d="M29.6,4.75l4.39,3.54c4.11,4.19-3.86,8.48-5.69,2.69-1.34.26-1.87-1.24-1.58-4.51.15-.31,0-.79.05-1.14.88-1.98,1.86-2.64,2.84-.59Z"/>
    <path class="cls-81" d="M47.91,12.39c.61,2.74,1.04,5.27-2.23,4.05-2.87,1.74-6-.84-3.52-3.9-2.98.63-3.1-1.78-.26-2.69-.52-2.92.67-2.94,1.88-.13l4.12,2.68Z"/>
    <path class="cls-26" d="M17.37,13.77c-2.23,1.69-5.65,1.5-8.01.32h-1.54c-.1-1.34.29-2.57,1.17-2.86,1.05-.35,6.74-.85,8.13.46,1.02.96.52.9.26,2.08Z"/>
    <path class="cls-38" d="M49.46,15.63c2.5-1.92,2.59.88,1.54,3.08,1.42,3.14-.4,2.85-3.24,1.88l-1.9.19c-.46-.45-.29-.89-.11-1.39-2.38-1.32-3.14-2.27-.06-2.95l2.23-4.05c1.09.71,1.03,2.21,1.54,3.24Z"/>
    <path class="cls-20" d="M66.44,25.51c-.4-.11-.89,0-1.26-.15-2.18-.93-4.35-1.67-6.59-2.85,2.32-1.15,3.84-.93,4.75-2.25,1.22-.03,2.34.57,2.77,1.39.65,1.23.02,2.98.33,3.87Z"/>
    <path class="cls-1" d="M9.22,21.56c4.69-.28,5.87,2.98,2.15,5.79l-3.48.94c-1.33-1.32-1.12-3.63-1.98-5.08.7-1.15,2.45-.91,3.31-1.64Z"/>
    <path class="cls-30" d="M23.24,52.64c.44-1.35.95-1.33,1.54,0v1.54c-3.03-.07-6.1-.25-9.07.3-2.5-1.86-1.49-2.64,1.36-3.38,2.16.03,4.32.38,6.17,1.54Z"/>
    <path class="cls-73" d="M28.24,49.57c1.39.95,1.38,2.89.31,3.03-1.81.24-2.81.04-3.76.04h-1.54c-.34-1.28.03-2.68,1-2.95,1.59-.45,2.84-.26,3.99-.12Z"/>
    <path class="cls-50" d="M43.79,9.72l-1.88.13c-2.17,3.76-3.75,2.45-2.83-1.7-1.11-.62-1.07-1.18.1-1.68.05-.52-.16-1.05-.16-1.58.86.5,2.37-.24,3.12.49,1.25,1.23,1.48,2.8,1.65,4.33Z"/>
    <path class="cls-5" d="M35.53,2.01c-.98,2.58-4.47.54-5.93,2.74-.45.68-2.18.18-2.84.59.19-1.25.49-2.48,1.1-3.59,2.36-1.35,5.48-1.28,7.67.26Z"/>
    <path class="cls-84" d="M28.3,10.99c.23.83-.43,1.35-1.97,1.56-.45.55-.77,1.35-1.54,1.54-.05-2.67.8-5.21,1.93-7.61,2.05.23,1.25,3.04,1.58,4.51Z"/>
    <path class="cls-47" d="M67.96,37.52l-.08-3.42c.86-.82,1.37-1.9,1.63-3.06.48,1.35,2.25,1.93,1.82,3.89-.42,1.95-1.79,2.41-3.37,2.58Z"/>
    <path class="cls-88" d="M54.08,12.55c-1.19,1.83-1.58,4.01-1.54,6.17-.4,1.27-.91,1.24-1.54,0l-1.54-3.08c1.11-1.02,2.78-3.58,4.63-3.08Z"/>
    <path class="cls-43" d="M23.24,14.09c-.43,1.18-1.54,1.85-2.77,1.85-.49-.78-1.07-1.5-1.74-2.15.56-.64,1.38-1.3,2.18-1.19,1.01.14,1.7.88,2.34,1.48Z"/>
    <path class="cls-28" d="M35.53,2.01c-2.52-.58-5.12-.13-7.67-.26.19-1.94,2.54-1.51,3.93-1.7,1.84-.25,2.81.55,3.74,1.97Z"/>
    <path class="cls-22" d="M61.81,12.55c-.54.01-1.07,0-1.61-.04-.19-1.91,1.73-1.71,1.61.04Z"/>
    <path class="cls-75" d="M61.49,15.63c-1.61-.49-1.16-1.66.32-1.54l-.32,1.54Z"/>
    <path class="cls-93" d="M61.39,17.17l.1-1.54c1.57.28,1.23,1.16-.1,1.54Z"/>
    <path class="cls-12" d="M27.97,24.93c3.75,2.11,2.86,3.73-1.28,3.53,1.34.27,1.26.67-.11,1.18l-6.28,4.93c4.13,4.46-4.24,4.94-5.83.96v-1.9s-.16-2.64-.16-2.64c.6-1.3,1.15-1.23,1.67.15l2.4-.76c1.57-4.42,4.12-7.29,7.65-8.6-.22-2.94,1-2.94,1.83.02,3.01.79,3.1,2.17.11,3.13Z"/>
    <path class="cls-19" d="M12.38,37.12c4.88-.52,7.5.42,7.88,2.8-.53,1.91-2.89,2.4-4.73,1.92-2.47,1.62-4.74,2.64-6.2-.24-1.28-.92-1.65-2.43-.52-4.06.68-.98,2.21-1.24,3.56-.43Z"/>
    <path class="cls-25" d="M24.48,37l-.23,2.8c-1.34,1.6-2.76,1.78-3.99.13l-7.88-2.8,2.11-1.59c.9.73,2.01,1.47,3.17,1.28,1.23-.2,2.04-1.26,2.66-2.23.54-1.32,1.07-1.27,1.6.09,3.23-1.32,3.19-1.06,2.56,2.34Z"/>
    <path class="cls-41" d="M17.07,51.1c-.53,1.1-.98,2.23-1.36,3.38l-1.49.28c-1.49-.73-2.7-1.92-3.31-3.46.54-.63,1.14-1.22,1.76-1.77-.41,2.49,2.88,1.56,4.4,1.58Z"/>
    <path class="cls-2" d="M15.53,41.85c1.35.44,1.33.95,0,1.54-.02.86-1.04,1.38-3.08,1.54-.98-.22-2.09.16-3.08,0,.23-1.06-.18-2.25-.03-3.32,2.06.2,4.13.29,6.2.24Z"/>
    <path class="cls-108" d="M27.87,41.85c.55.08,1.12-.05,1.67,0-4.78,3.45-11.25,4.42-17.09,3.08.36-1.43,1.88-1.45,3.08-1.54,2.75-2.71,8.9-3.36,12.34-1.54Z"/>
    <path class="cls-37" d="M36.77,31.5c1.06,1.77-.77,3.7-5.49,5.79-2.24-.2-4.57.36-6.8-.28-1.21-.35-2.36-.98-2.56-2.34-.11-2.6,2.49-4.09,4.67-5.02l.11-1.18c2.37-3.9,7.85.04,10.07,3.03Z"/>
    <path class="cls-64" d="M40.03,27.97c-.03.51.1,1.04.02,1.54-.75,4.72-3.89,8.22-8.78,7.78-.78-2.59-2.77-4.46-1.82-7.45,1.86,2.91,4.46,3.62,5.51,4.13.85.41,1.36-1.51,1.8-2.47-3.92-1.04-3.46-2.26.35-3.53-1.28-.51-1.28-1.02,0-1.54.84-1.57,2.87-.31,2.91,1.54Z"/>
    <path class="cls-36" d="M20.26,39.92c1.32-.11,2.67-.28,3.99-.13,1.41.17,2.99.69,3.62,2.05-4.19-.6-8.16,1.24-12.34,1.54v-1.54c1.25-1.26,2.99-1.78,4.73-1.92Z"/>
    <path class="cls-33" d="M58.9,19.93c-2.08.81-3.43,2.7-3.28,4.95-2.52-1.67-5.49-2.4-7.86-4.29,1.21-.39,2.38-.93,3.24-1.88.42.13,1.24-.25,1.54,0l6.36,1.22Z"/>
    <path class="cls-56" d="M45.68,16.44c-.44.8.38,2.08.06,2.95l-1.13-.04c-3.2,2.53-3.66,1.85-4.8-1.81-.4,1.32-.83,1.25-1.29-.12-1.31-2.72,1.08-8.5,3.63-4.89.71,1.66,2.04,2.89,3.52,3.9Z"/>
    <path class="cls-98" d="M44.62,19.35c-.99,2.2-2.08,4.57-4.42,5.53-2.15-1.49-3.34-6.46-.38-7.33,1.71.16,3.3.95,4.8,1.81Z"/>
    <path class="cls-67" d="M40.2,24.88l-.17,3.08-2.91-1.54c-1.32-.29-1.27-.81,0-1.54.49-4.1,1.91-3.92,3.08,0Z"/>
    <path class="cls-90" d="M20.16,18.71l3.23.59c2.54,3.15-.18,5.6-3.23,2.49-2.49,2.56-3.82,1.9-3.08-1.54v-1.54h3.08Z"/>
    <path class="cls-17" d="M17.37,13.77c-.46,2.14-2.02,2.16-4.18,1.92-1.16-.13-3.51.38-3.83-1.6,2.68,0,5.35-.02,8.01-.32Z"/>
    <path class="cls-97" d="M17.07,20.26c1.07.03,2.04,1.34,3.08,1.54,2.2,2.18,1.57,3.55-1.52,3.31-.13,2.68-1.88,3.27-3.24.85-1.42.19-2.8.63-4.03,1.38-.53-1.99-1.31-3.91-2.15-5.79,2.16-1.82,5.11-1.37,7.86-1.3Z"/>
    <path class="cls-81" d="M39.09,8.15c1.58,2.25.89,5.28-2.08,9.08,2.05,2.17,1.22,3-1.38,1.41-.38,3.38-4.76,5.27-7.77,3.15l-1.83-.02c-3.16.77-3.78-.4-1.35-2.57,1.35-1.58,3.76-2.74,4.63-5.16.52-1.45-2.13-1.91-3-1.5.52-.65,1.3-1.08,1.97-1.56,2.31.29,4.73-.46,5.69-2.69,1.78-.46,3.5-1.1,5.19-1.82-.05.52.06,1.18-.1,1.68Z"/>
    <path class="cls-44" d="M26.04,21.78c.7,4.42-4.44,6.14-7.43,9.56-1.36,2.23-2.9,2.85-2.62-.2-.21-1.85.97-5.08,2.64-6.03.45-1.13.95-2.24,1.52-3.31,1.29-.52,2.54-1.26,3.23-2.49.42.08.88-.1,1.3-.09.23.96.7,1.83,1.35,2.57Z"/>
    <path class="cls-59" d="M18.64,25.11c.76,2.27-.33,5.3-2.64,6.03l-1.67-.15,1.07-5.03c.98-.59,2.11-.8,3.24-.85Z"/>
    <path class="cls-66" d="M41.91,9.85l.26,2.69c-2.36.43-3.21,2.75-3.63,4.89-.6,1.28-1.11,1.2-1.53-.19.01-3.15,1.13-6.11,2.08-9.08l2.83,1.7Z"/>
    <path class="cls-40" d="M33.76,25.15c.63.42.62.88.03,1.39l3.34,1.43c-.3,1.1.13,2.49-.35,3.53-3.6-.18-6.58-2.41-10.07-3.03.11-1.25.96-2.34,1.28-3.53,1.5-3.66,5.03-3.99,5.79.22Z"/>
    <path class="cls-101" d="M35.63,18.64c3.23.24,3.62,1.96,1.46,4.3-.12,1.77-1.62,2.83-3.33,2.2-1.91-.42-3.89-.82-5.79-.22.26-.97-.28-2.14-.11-3.13,2.36-1.6,4.84-3.17,7.77-3.15Z"/>
    <path class="cls-32" d="M26.59,29.64c-1.35,1.86-2.91,3.55-4.67,5.02l-1.6-.09c.58-3.06,3.12-5.26,6.28-4.93Z"/>
    <path class="cls-80" d="M37.12,26.42c-.02.5.13,1.06,0,1.54-1.4.07-2.72-.1-3.34-1.43-.18-1.17.71-.69,1.79-.11.44-1.35.95-1.33,1.54,0Z"/>
    <path class="cls-91" d="M38.54,17.43l1.29.12c.22,2.44.51,4.89.38,7.33h-3.08c-1.35-.49-1.32-1.14-.03-1.93-.28-1.5-.85-2.91-1.46-4.3l1.38-1.41,1.53.19Z"/>
    <path class="cls-107" d="M37.09,22.95c.12.62-.02,1.3.03,1.93.04.51.02,1.03,0,1.54h-1.54l-1.82-1.27c.43-1.45,1.72-2.76,3.33-2.2Z"/>
    <path class="cls-74" d="M35.58,26.42l-1.79.11c-.34-.73-.32-.6-.03-1.39.75.17,1.43.6,1.82,1.27Z"/>
  </g>
</svg>