<?xml version="1.0" encoding="UTF-8"?>
<svg id="Player_Attack" xmlns="http://www.w3.org/2000/svg" viewBox="0 0 142.17 153.28">
  <defs>
    <style>
      .cls-1 {
        fill: #e18b66;
      }

      .cls-2 {
        fill: #543c3a;
      }

      .cls-3 {
        fill: #19191c;
      }

      .cls-4 {
        fill: #885e42;
      }

      .cls-5 {
        fill: #18274a;
      }

      .cls-6 {
        fill: #272a33;
      }

      .cls-7 {
        fill: #c0c0a3;
      }

      .cls-8 {
        fill: #fcd7a8;
      }

      .cls-9 {
        fill: #0d1e2f;
      }

      .cls-10 {
        fill: #1f2d4e;
      }

      .cls-11 {
        fill: #151d30;
      }

      .cls-12 {
        fill: #433c3f;
      }

      .cls-13 {
        fill: #14223d;
      }

      .cls-14 {
        fill: #f0c392;
      }

      .cls-15 {
        fill: #0d1d32;
      }

      .cls-16 {
        fill: #0c1b2d;
      }

      .cls-17 {
        fill: #061523;
      }

      .cls-18 {
        fill: #a96332;
      }

      .cls-19 {
        fill: #201e21;
      }

      .cls-20 {
        fill: #161d26;
      }

      .cls-21 {
        fill: #aeae80;
      }

      .cls-22 {
        fill: #3d4662;
      }

      .cls-23 {
        fill: #fff;
      }

      .cls-24 {
        fill: #292124;
      }

      .cls-25 {
        fill: #404a4c;
      }

      .cls-26 {
        fill: #131d2e;
      }

      .cls-27 {
        fill: #a5b8bb;
      }

      .cls-28 {
        fill: #5b6669;
      }

      .cls-29 {
        fill: #e0e0d4;
      }

      .cls-30 {
        fill: #3c444d;
      }

      .cls-31 {
        fill: #1a294e;
      }

      .cls-32 {
        fill: #202d4d;
      }

      .cls-33 {
        fill: #2e313c;
      }

      .cls-34 {
        fill: #a2a47c;
      }

      .cls-35 {
        fill: #995b32;
      }

      .cls-36 {
        fill: #e17a56;
      }

      .cls-37 {
        fill: #1a274d;
      }

      .cls-38 {
        fill: #04090c;
      }

      .cls-39 {
        fill: #050f1a;
      }

      .cls-40 {
        fill: #95986d;
      }

      .cls-41 {
        fill: #f8b385;
      }

      .cls-42 {
        fill: #3f4d6c;
      }

      .cls-43 {
        fill: #3b4765;
      }

      .cls-44 {
        fill: #e68662;
      }

      .cls-45 {
        fill: #010b0c;
      }

      .cls-46 {
        fill: #090d1a;
      }

      .cls-47 {
        fill: #102131;
      }

      .cls-48 {
        fill: #a94c1e;
      }

      .cls-49 {
        fill: #323c42;
      }

      .cls-50 {
        fill: #0a0d14;
      }

      .cls-51 {
        fill: #141920;
      }

      .cls-52 {
        fill: #f7f2f2;
      }

      .cls-53 {
        fill: #8a4112;
      }

      .cls-54 {
        fill: #d38269;
      }

      .cls-55 {
        fill: #253336;
      }

      .cls-56 {
        fill: #dcdbce;
      }

      .cls-57 {
        fill: #efad81;
      }

      .cls-58 {
        fill: #13161d;
      }

      .cls-59 {
        fill: #94966a;
      }

      .cls-60 {
        fill: #9e6340;
      }

      .cls-61 {
        fill: #eedca7;
      }

      .cls-62 {
        fill: #1f2936;
      }

      .cls-63 {
        fill: #a09f83;
      }

      .cls-64 {
        fill: #444a64;
      }

      .cls-65 {
        fill: #d7dabf;
      }

      .cls-66 {
        fill: #081623;
      }

      .cls-67 {
        fill: #d6d7c6;
      }

      .cls-68 {
        fill: #43444e;
      }

      .cls-69 {
        fill: #a8541b;
      }

      .cls-70 {
        fill: #b3b796;
      }

      .cls-71 {
        fill: #02070c;
      }

      .cls-72 {
        fill: #1a274b;
      }

      .cls-73 {
        fill: #0a1420;
      }

      .cls-74 {
        fill: #0b1c30;
      }

      .cls-75 {
        fill: #1b2127;
      }

      .cls-76 {
        fill: #d6a06a;
      }

      .cls-77 {
        fill: #020b17;
      }

      .cls-78 {
        fill: #1d2129;
      }

      .cls-79 {
        fill: #fefefa;
      }

      .cls-80 {
        fill: #3e435e;
      }

      .cls-81 {
        fill: #0c1827;
      }

      .cls-82 {
        fill: #5a686c;
      }

      .cls-83 {
        fill: #42495f;
      }

      .cls-84 {
        fill: #e28c61;
      }

      .cls-85 {
        fill: #d5d7c9;
      }

      .cls-86 {
        fill: #0d1724;
      }

      .cls-87 {
        fill: #b88261;
      }

      .cls-88 {
        fill: #f6be90;
      }

      .cls-89 {
        fill: #040e18;
      }

      .cls-90 {
        fill: #e9af80;
      }

      .cls-91 {
        fill: #283138;
      }

      .cls-92 {
        fill: #c7dee1;
      }

      .cls-93 {
        fill: #ca8a60;
      }

      .cls-94 {
        fill: #754c24;
      }

      .cls-95 {
        fill: #f8cf9d;
      }

      .cls-96 {
        fill: #a6ad87;
      }

      .cls-97 {
        fill: #2f3237;
      }
    </style>
  </defs>
  <g id="Player_RunningKick">
    <g id="back-shoe">
      <path class="cls-28" d="M36.05,117.19c-2.81.64-10.47,3.19-12.64,3.45s-5.49,0-6,1.53.26,7.79.89,10.34-.89,9.32-.13,11.36,1.15,5.49,1.15,6.51,1.08,2.73,2.14,2.71,2.97.87,4.76-1.05,1.79-2.68,1.79-3.96-1.15-3.57.13-4.72,1.53-2.17,3.19-2.55c1.66-.38,7.15-.89,8.68-2.43,1.53-1.53,3.06-6.77,2.04-9.7s-6-11.49-6-11.49Z"/>
      <path class="cls-58" d="M33.45,122.25c3.35,3.17,4.6,6.04-.99,6.96,6,2.35,4.4,10.96-2.36,11.3-1.41-2.12-3.22-5.31-1.82-7.3-2.74-.04-2.67-2.95,0-3.65,2.46-5.2-.46-9.29-3.65-3.65,2.9-.08,2.74,6.35,0,7.3-2.5,2.32-3.2,1.28-1.82-1.82-3.27-1.11-5.14-4-4.08-7.3-.79-6.39,9.24-2.1,13.21-4.86,3.43-.82,3.74.4,1.51,3.02Z"/>
      <path class="cls-49" d="M28.28,140.51c.17.58-.11,1.29,0,1.89-1.89,1.26-2.1,3.33-2.03,5.41.3,3.43-1.12,5.98-4.78,5.28-1.96-1.72-2.63-4.55-2.37-7.11.54-1.59,1.17-1.57,1.88,0,.03-5.39,1.24-9.04,3.65-10.95,3.21-1.76,5.21,2.61,3.65,5.47Z"/>
      <path class="cls-25" d="M24.63,133.21c1.59.52,1.57,1.13,0,1.82l-3.65,10.95c-1.79-2.38-1.29-7.73,0-10.95v-3.65c.52-1.52,1.13-1.5,1.82,0,.21.71,1.05,1.82,1.82,1.82Z"/>
      <path class="cls-91" d="M22.8,131.38h-1.82c-1.81-.01-3.49-.84-3.8-2.77-.27-1.68.18-3.43,1.55-4.53,1.27,2.5,3.26,4.57,4.08,7.3Z"/>
      <path class="cls-75" d="M20.98,145.98h-1.88c.37-3.63-1.48-8.62,1.88-10.95v10.95Z"/>
      <path class="cls-92" d="M28.28,129.56v3.65c.28,3.6-1.81,2.65-3.65,0v-7.3c3.07-5.77,6.21-1.1,3.65,3.65Z"/>
      <path class="cls-28" d="M28.28,133.21c2,1.89,2.14,4.7,1.82,7.3h-1.82c-.64-2.15-1.8-4.16-3.65-5.47v-1.82h3.65Z"/>
      <path class="cls-91" d="M28.28,129.56l-.03-4.46c-.01-1.74-2.17.08-3.62.81,0-1.25-.47-3.23.94-3.6,2.66-.71,4.94.05,4.65,2.55-.16,1.38-.15,3.35-1.94,4.71Z"/>
    </g>
    <g id="back-leg">
      <path class="cls-5" d="M53.35,100.35c-1.77.11-3.4.95-4.51,2.33-4.57,5.71-9.48,11.31-15.97,14.56-1,.5-2.1,1.01-2.59,2-.31.61-.34,1.32-.34,2.01-.04,3.48.28,6.96.96,10.36.27,1.34.59,2.7.35,4.04-.26,1.45-1.16,2.7-1.55,4.12s0,3.3,1.41,3.72c.69.21,1.43,0,2.12-.21,4.32-1.35,8.5-3.17,12.43-5.42,6.35-3.63,12-8.35,17.61-13.04,3.77-3.15,7.53-6.29,11.3-9.44.63-.53,1.28-1.08,1.63-1.83.36-.76.36-1.63.44-2.47.19-1.81.82-3.55,1.45-5.26.39-1.07.78-2.14,1.17-3.21,1.55-4.24,3.16-8.57,6.07-12.02,1.6-1.9,3.63-3.61,4.24-6.02.13-.51.19-1.05.41-1.53.25-.54.68-.98,1.05-1.45,1.56-2.01,1.89-4.91.8-7.21-.36-.77-.88-1.51-.94-2.35-.05-.68.21-1.35.25-2.03.14-2.28-2.12-4-4.3-4.66-3.1-.93-6.55-.61-9.42.86-.96.49-1.86,1.11-2.87,1.49-2.2.82-4.66.42-6.96.89-.86.18-1.8.57-2.09,1.4-.29.82.16,1.69.48,2.5,1.62,4.17-.41,9.01-1.27,13-.18.84-.43,1.65-.68,2.47-.53,1.7-.83,3.59-1.81,5.13-.86,1.35-2.18,2.33-3.47,3.27-1.79,1.31-3.58,2.63-5.37,3.94h0Z"/>
      <path class="cls-13" d="M66.45,82.08c2.14-1.27,6.08-.22,6.87,2.13,1.63.2,1.65.76.16,1.64,2.91,2.7,3.52,4.2.41,7.22-2.43,2.69-3.04,3.91-1.82,3.65,1.59.52,1.57,1.13,0,1.82-1.64,2.71-4.12,5.15-7.45,7.33,3.96,1.8,2.95,6.07.28,8.63,1.27,1.9.3,2.81-1.95,2.29-6.65-1.47-8.75-4.24-3.18-9.36-4.99-3.31-3.79-7.49-1.9-12.6,1.88-4.18,3.58-8.38,5.82-12.39,1.33-2.59,1.68-3.07,2.76-.35Z"/>
      <path class="cls-15" d="M59.76,107.42c-2.55,3.13,2.98,6.07,3.18,9.36-4.04,2.1-15.92,4.2-14.66-1.87.37-1.37-.97-2.49-4.04-3.35l2.64-3.62c1.51-.76,3.23-3.67,5.18-3.96,3.84-2.9,8.82-1.63,7.69,3.44Z"/>
      <path class="cls-9" d="M46.22,130.49l.75,2.05c-3.62,2.6-5.99,5.18-7.1,7.74-2.14,1.92-4.79,2.6-7.94,2.04l-3.65.06c-1.59-.52-1.56-1.15,0-1.89.52-1.59,1.13-1.57,1.82,0,3.45-2.31,1.39-7.57,2.36-11.3,2.87-2.85,11.4-1.12,13.76,1.29Z"/>
      <path class="cls-66" d="M59.46,124.21l-19.59,16.08c-3.8-5.03,2.98-1.78,6.35-9.8.4-1.54,1.11-1.71,2.14-.49l-.18-3.57c10.86-6.84,14.62-7.58,11.28-2.22Z"/>
      <path class="cls-39" d="M59.76,107.42c-.2-2.44-1.95-1.71-1.98-.11-.03,1.18.28,2.32-1.31,4.04-1.18-2.79-1.71-5.78-4.4-7.38,1.56-3.03,4.38-6.03,5.8-9.16-.63,4.57,4.86,8.97,1.9,12.6Z"/>
      <path class="cls-39" d="M48.29,114.91v2.53c-2.73.48-4.95,1.86-6.65,4.13-3.88,1.5-8.84-1.52-4.32-4.43,2.95-3.53,5.48-7.15,9.56-9.2.34,1.42-.09,2.26.84,2.49l6.18,1.54c-1.88,1.19-3.81,1.95-5.62,2.94Z"/>
      <path class="cls-80" d="M72.07,98.54c2.87-2.07,4.71-1.51,3.51,2.13,1.08.73,1.6,2.07,2.08,3.21l-3.76,5.61c-1.61-.34-1.55-.96,0-1.82-1.9-2.31-4.32-3.17-7.3-1.82-.54,1.6-1.2,1.59-1.97.03.92-3.61,3.22-8.18,7.45-7.33Z"/>
      <path class="cls-81" d="M81.67,80.28c2.7,4.39-2.72,3.88-5.95,1.83-2.26,1.46-6.46.49-7.13-2.16-2.01,1.9-3.28.19-3.82-5.14.2-.55-.12-1.25,0-1.82-1.76-1.71-.48-2.28,3.83-1.69l1.46.05c-.71,2.82.68,6.24,2.91,7.35,2.87,1.44,5.87,1.52,8.7,1.58Z"/>
      <path class="cls-16" d="M68.12,115.15c-2.67,3.37-5.28,6.28-8.66,9.06-1.61-6.73-5.6,2.59-11.1,5.79-10.56-.77-14.88-3.32-12.97-7.63l1.91-1.75c5.14,3.48,13.68,2.88,16.54-.27,2.23-1.45,5.26-2.64,9.1-3.56.44-.74,1.29-1.76,1.95-2.29-1.09-4.84.74-5.15,3.07-.78.84.22.83.72.14,1.43Z"/>
      <path class="cls-89" d="M37.33,117.15c.59,2.29,1.84,4.27,4.32,4.43,1.18-4.77,9.73-4.58,12.2-1.24.09.89.31,1.98-.38,3.44-6.61.79-12.42.15-18.07-1.42-.67,1.59-1.32,1.53-1.94-.12-.97-.67-1.73-1.84-1.51-3.02,1.63-1.13,3.2-2.43,5.39-2.08Z"/>
      <path class="cls-71" d="M68.59,79.96c2.87,1.63,2.15,2.34-2.14,2.12-.82.58-1.83.75-2.76.35,1.18-2.11.25-5.36,1.08-7.61,2.09.74,2.25,4.14,3.82,5.14Z"/>
      <path class="cls-11" d="M73.9,109.49c-1.76,2.62-4.04,3.48-5.78,5.67l-.14-1.43c-3.79-2.66-.51-7.68,4.09-6.06.52-1.59,1.13-1.57,1.82,0-.12.58.08,1.24,0,1.82Z"/>
      <path class="cls-10" d="M82.47,89.56c1.58.13,1.5.66,0,1.53-1.19-.47-1.19,1-1.38,1.78-1.75,2.34-2.91,3.4-3.53.19-1.5,1.66-3.06,2.36-3.65,0-1.32-2.27-2.65-5.19-.41-7.22,3.09-2.38,8.87-.41,8.98,3.72Z"/>
      <path class="cls-22" d="M72.07,107.66l-4.09,6.06c-.89.41-2.29.15-3.07.78-1.9-2.51-1.01-5.76-.28-8.63l1.97-.03c2.15-1.37,6.09-1.14,5.47,1.82Z"/>
      <path class="cls-13" d="M81.08,92.87c-.8,3.21-3.18,5.56-5.5,7.8-1.03-.7-2.24-1.88-3.51-2.13v-1.82c1.32-1.66,3.15-2.88,5.47-3.65l3.53-.19Z"/>
      <path class="cls-81" d="M83.02,85.77c1.59.13,1.14,3.23-.55,3.8-2.28-2.67-5.43-4.4-8.98-3.72l-.16-1.64c-.29-2.07.93-1.85,2.39-.26,2.53-.28,5.11.47,7.3,1.82Z"/>
      <path class="cls-2" d="M77.54,93.07c-.62,2.5-3,3.73-5.47,3.65-1.35.61-3.22.98-3.74-1.6,2.89-.1,4.4-.6,5.56-2.05h3.65Z"/>
      <path class="cls-45" d="M75.72,82.12v1.82l-2.39.26-6.87-2.13,2.14-2.12c1.95,1.24,4.96,1.44,7.13,2.16Z"/>
      <path class="cls-5" d="M48.29,114.91c4.44,2.54,9.67,2.48,14.66,1.87-1.92,3.23-5.74,3.11-9.1,3.56-4.07.54-8.07,1.51-12.2,1.24-.84-2.2-.87-4.66.96-5.99,1.73-1.26,4.19.13,5.68-.68Z"/>
      <path class="cls-31" d="M48.36,130c-.5.29-1.56.53-2.14.49-4.83-.3-9.9,2.18-13.76-1.29.58-2.24-.23-4.81.99-6.96.47.32,1.38-.07,1.94.12,2.31,4.28,7.69,4.49,12.78,4.14.61,1.37.26,2.55.19,3.49Z"/>
      <path class="cls-5" d="M73.9,107.66h-1.82c-1.69-.95-3.55-1.54-5.47-1.82,0-2.48,2.86-1.7,4.56-1.93,2.59-.35,3.22,1.41,2.74,3.76Z"/>
      <path class="cls-73" d="M39.87,140.29c-.58,1.46-.68,4.11-3.37,4.11-1.52,0-3.42-.47-4.57-2.07.85-1.04,1.73-2.7,2.85-2.69,1.85.02,3.32.9,5.1.64Z"/>
    </g>
    <g id="front-shoe">
      <path class="cls-78" d="M97.2,95.62c0,1.79.89,4.6-.13,5.62s-2.43,3.45-4.85,3.57-5.38.64-5.43.32-1.97-5.43-2.61-6.83-1.28-8.04-1.28-9.32,0-5.11-.13-6.89-.13-4.72.51-4.85,7.4,0,8.68-1.4c1.28-1.4,3.83-1.79,4.98-1.91s3.32,3.45,3.32,5.36-1.53,5.11-1.53,5.87.64,3.83.26,4.09-2.84,1.4-3.19,2.01,1.41,4.38,1.41,4.38Z"/>
      <path class="cls-78" d="M88.74,87.59c1.36,4.37,2.99,8.67,4.88,12.9l-2.69,3.44c-1.17,1.43-2.79,2.81-4.15,1.2-1.32-1.57-2.58-12.18-1.94-10.24.73-3.13,1.33-6.17,1.82-9.12,2.26-1.79,3.32-.93,2.07,1.82Z"/>
      <path class="cls-27" d="M95.82,95.46c.93,1.74,2.13,5.66,1.26,7.31-1.37,2.37-4.95.61-6.15,1.15-2.03-5.22-2.28-10.78-2.19-16.34-2.61-2.86.71-3.21,3.41-1.82,1.27-.02,3.24,9.1,2.81,8.85-3.08-1.75-2.07-2.37.87.84Z"/>
      <path class="cls-55" d="M95.82,95.46c-.47.37-2.64,1.69-3.18.92-1.21-3.8-.5-7.35-.5-10.62-1.59-.52-1.57-1.13,0-1.82.45-1.6,1.06-1.55,1.82,0,6.26.83,1.85,11.52,1.85,11.52Z"/>
      <path class="cls-97" d="M88.96,83.6c.53-3.34,3.12-3.24,3.18.34v1.82l-3.41,1.82c-.56-.75-1.25-1.37-2.07-1.82-.52,1.59-1.13,1.57-1.82,0-.52,1.59-1.13,1.57-1.82,0,.2-1.37,1.85-2.48,2.04-3.85,2.84-4.06,4.32-3.07,3.9,1.68Z"/>
      <path class="cls-30" d="M84.84,94.89c-1.8-2.24-1.73-6.98,0-9.12h1.82c-.72,2.85,1.94,8.04-1.82,9.12Z"/>
      <path class="cls-27" d="M91.95,78.47c1.41,1.5,1.2,3.76,2.02,5.47-.6-.07-1.23.06-1.82,0l-3.18-.34c-3.85-2.5-.85-8.93,2.98-5.13Z"/>
      <path class="cls-82" d="M91.95,78.47c-2.72,0-2.82,2.99-2.98,5.13-1.4-.15-2.64-1.08-3.9-1.68.25-1.81.19-3.73.97-5.07,1.25-2.15,3.35-1.64,5.73-2.28,1.74-.47,2.38,1.45,2.09,2.37-.23.74-.9.98-1.91,1.53Z"/>
    </g>
    <g id="front-leg">
      <path class="cls-74" d="M95.44,75.03c-2.15.1-3.9,1.83-5.35,3.54-2.74,3.23-5.5,6.96-9.48,7.88-2.74.63-5.56-.22-8.25-1.07-.63-.2-1.28-.41-1.81-.83-.65-.53-1.05-1.33-1.56-2-.64-.84-1.48-1.49-2.08-2.35-1.73-2.45-1.2-6.11.47-8.61s4.23-6.12,6.71-7.66c3.72-2.31,7.44-4.63,11.17-6.94,5.21-3.24,10.43-6.48,15.83-9.35,1.82-.97,4.66-1.89,6.58-2.58,2.28-.82,6.65-1.29,9.02-1.73,6.04-1.12,9.14-.02,15.27.08,1.61.03,3.28.14,4.72.93,2.46,1.34,3.75,4.42,3.89,7.38.03.64.01,1.29-.17,1.89-.31,1.02-1.04,1.81-1.7,2.61-2.48,2.99-4.2,6.61-6.25,9.96-2.05,3.35-4.58,6.57-8.01,8.14-2.84,1.3-6.13,1.4-8.74,3.17-1.43.97-2.55,2.37-3.74,3.65-3.78,4.07-8.44,7.04-13.04,9.98-.22.14-.45.29-.7.36-1.17.34-2.23-1.07-2.28-2.37s.51-2.54.76-3.82c.45-2.29-.12-4.65-.67-6.91l-.57-3.35Z"/>
      <path class="cls-72" d="M109.16,46.96c3.78,1.06,4.89,2.41,3.32,4.05,4.22,4.38,1.67,6.13-3.62,7.19-1.59,2.87-3.51,5.36-5.77,7.49l-1.04,3.93c-2.03-1.74-4.11-1.83-6.26-.28-.52,1.59-1.13,1.57-1.82,0-2.02,2.12-5.07,3.43-9.13,3.92.3,2.19-.67,6.4-3.17,7.02-6.6,3.25-18.47-3.5-11.61-8.93,2.95-.53,3.77-1.2,5.56-3.83-.55-.76.04-1.57,1.78-2.42-1.97-4.49-.74-5.67,3.64-3.75,2.11-4.21,3.99-5.19,5.64-2.95,1.11-4.08,6.85-5.05,9.12-1.82,1.22-1.81,2.43-3.64,3.65-5.47.52-1.59,1.13-1.57,1.82,0,2.1.14,3.99-.44,5.68-1.76-1.59-.52-1.57-1.13,0-1.82-1.64-.37-1.69-1.01-.2-1.89.67-1.67,1.39-1.7,2.16-.07.04.46.12.96.26,1.41Z"/>
      <path class="cls-37" d="M134.11,47.45c4.9,5.98,6.03,10.2,3.41,12.66-3.9,5.42-9.14,9.61-15.74,12.58,3.18,1.38,2.62,2.75-.62,3.78-2.65,2.47-5.03,3.14-7.12,2l-3.3-2.58c-13.64-5.01,1.67-17.87,12.57-17.1,1.23-1.3.17-2.54-3.17-3.73l.14-2.36c3.86-.94,6.21-1.98,7.05-3.13l1.55-1.72c1.48-3.01,3.45-3.28,5.23-.41Z"/>
      <path class="cls-17" d="M127.32,49.57c1.03,1.13,1.25,2.07.51,2.3l-6.48,2.06,11.08,3.63c-2.67.68-6.43,1.95-9.13,1.22-4.91,1.14-9.17,1.47-12.79.97-2.16,2.01-3.16,1-1.66-1.56,1.5-2.25,3.1-4.5,3.62-7.19,1.54-3.21,9.75-4.36,12.5-1.57.66-.27,1.63.29,2.34.13Z"/>
      <path class="cls-83" d="M141.18,51.1c.62,3.23,1.74,5.87.23,9.12-2.1,2.36-3.44,3.56-3.89-.11.43-3-2.1-4.07-4.67-6.28-2.23-1.92.2-4.93,1.26-6.38,1.89-3.79,5.59.38,7.07,3.65Z"/>
      <path class="cls-62" d="M141.41,60.22c-3.86,8.3-10.81,15.81-20.25,16.25.15-1.27.39-2.53.62-3.78,6.56-3.04,11.81-7.24,15.74-12.58l3.89.11Z"/>
      <path class="cls-26" d="M121.16,76.47c-.43,3.61-15.48,9.36-16.03,9.48-4.95-.57-4.55-2.76.39-3.67-1.83-.67-1.43-1.33,1.22-1.99-.89-3.13,3.01-3.49,5.47-1.82.61-1.46,1.22-1.47,1.82,0,2.32-.67,4.66-1.89,7.12-2Z"/>
      <path class="cls-86" d="M97.62,93.07c-.57-.32-1.86-1.02-1.82-1.82-.45-6.28,4.33-8.66,9.34-5.29-.59,3.76-4.01,6.09-7.51,7.12Z"/>
      <path class="cls-74" d="M123.31,58.79c-6.51,2.35-13.36,5.01-15.5,12.83,2.62,1.6,4.78,1.27,8.07,2.06-1.32,1.4-1.76,3.07-1.84,4.78-.51.15-1.3.09-1.82,0-4.9-.37-9.87-.21-14.92.49l-1.02-2.85c-4.53-3.08-1.75-5.21,3.21-6.03.21-.03-3.9,1.11-3.7-.74.04-.9-.26-1.72.22-3.49,2.87,2.22,5.2-.4,7.08-.16,2.06-3.64,4.54-5.61,7.43-5.93,3.74-2.63,8.94-2.47,12.79-.97Z"/>
      <path class="cls-77" d="M96.28,76.11c3.24,1.5,4.88,2.76,1.58,4.01,3.5,3.28.46,5.72-3.89,3.82-3.29-.3-3.84-3.06-2.02-5.47-.22-3.42-2.52-2.27-6.89,3.45,3.2,2.91,2.52,4.19-2.04,3.85-2.34.6-4.78,0-7.3-1.82-1.59-.52-1.57-1.13,0-1.82,1.7.57,5.28.18,5.95-1.83.74-2.25.54-7.06,3.17-7.02,3.94-.4,6.98-1.71,9.13-3.92h1.82c1.72,0,5.1-1.15,5.17,1.28-1.01.95-3.72.58-4.7,1.79-.87,1.06.23,2.43.01,3.7Z"/>
      <path class="cls-38" d="M110.52,59.76c-2.83,1.99-3.09,6.5-7.43,5.93.28-3.84,1.7-6.85,5.77-7.49.83.12,1.92.54,1.66,1.56Z"/>
      <path class="cls-2" d="M106.94,49.34c-2.14,2.57-1.31,5.97-2.84,9.13-1.7-3.05-2.38-5.25-2.83-7.38,1.75-.99,3.69-1.52,5.68-1.76Z"/>
      <path class="cls-83" d="M99.44,51.1c-.2,2.78.47,5.36-.37,9.3-1.95-1.03-2.01-2.83-3.28-3.82v-3.65c-2.42-2.56-1.4-3.5,1.82-1.82h1.82Z"/>
      <path class="cls-74" d="M84.83,73.26c2-3.25,6.28-2.02,9.13-3.92-.15,2.14-1.45,4.03-2.9,4.01l-6.23-.09Z"/>
      <path class="cls-43" d="M121.78,72.69c1-5.6,9.18-6.43,15.74-12.58-1.02,7.06-8.6,12.95-15.74,12.58Z"/>
      <path class="cls-32" d="M112.21,78.47c-2.06-.34-3.69,1.36-5.47,1.82-1.89.93-2.3,1.6-1.22,1.99-.6.98-.2,2.47-.39,3.67-3.57.79-6.28,3.41-9.34,5.29.12-2.65-.72-4.97-1.82-7.3,2.94-1.06,1.87-5.22,2.31-7.84,8.64,3.12,12.09-3.1,15.93,2.36Z"/>
      <path class="cls-42" d="M106.74,80.29l-1.22,1.99c-2.27-.51-4.9.82-8.01-1.02,2.87-2.33,6.27-.2,9.23-.97Z"/>
    </g>
    <g id="back-arm">
      <path class="cls-76" d="M99.44,38.32l1.82,1.82c1.2.54,1.18,1.15,0,1.82-.04,2.74-2.95,2.67-3.65,0l-1.82-1.82v-1.82c.53-.2,1.26.06,1.82,0,.6-.06,1.22,0,1.82,0Z"/>
      <path class="cls-8" d="M90.48,40.36c3.53-.14,3.63,1.25.2,2.36,4.51,2.93,1.41,7.9-3.7,6.56-.64-1.64-1.31-3.28-2.4-4.67.97-1.99,1.69-4.1,2.09-6.28,1.31.59,2.54,1.37,3.81,2.03Z"/>
      <path class="cls-18" d="M95.79,38.32c1.59.52,1.57,1.13,0,1.82.8.56.78,1.17,0,1.82,1.2.54,1.18,1.15,0,1.82-.15,5.83-6.06,4.86-5.11-1.08l-.2-2.36,5.31-2.03Z"/>
      <path class="cls-84" d="M95.79,43.8c.62-.61,1.23,0,1.82,1.82v3.47h0c-1.17,1.17-10.63.18-10.63.18l3.7-6.56c.66,1.93,3.53.78,5.11,1.08Z"/>
      <path class="cls-69" d="M97.62,45.62c-1.02,0-1.82-.8-1.82-1.82v-1.82c.55-.94,1.16-.92,1.82,0v3.65Z"/>
      <path class="cls-53" d="M97.62,41.97h-1.82v-1.82c.91.23,1.54.95,1.82,1.82Z"/>
    </g>
    <g id="back-glove">
      <path class="cls-24" d="M109.42,46.71c.14-.79,1.48-3.02.81-4.02s-3.02-3.4-3.88-3.49-6.12-1.06-6.92-.87-1.75-.95-1.85-.43-.38,2.2-.38,2.63.05,4.02.05,4.5,1.1,2.87,1.68,3.16,5.6,1.39,6.85,1.15,3.4-1.29,3.64-2.63Z"/>
      <path class="cls-68" d="M103.09,38.32c1.4.25,3.29-.02,3.65,1.82-.54,1.55-2.77,1.28-3.65,0-.54,1.2-1.15,1.18-1.82,0l-1.82-1.82c-.19,1.65-.82,1.56-1.82,0-.28-1.69,1.43-1.53,2.37-1.49,1.23.05,2.1,1.31,3.1,1.49Z"/>
      <path class="cls-64" d="M101.27,40.15c-.86-.3-1.56-.94-1.82-1.82,1.03-.01,1.82.81,1.82,1.82Z"/>
      <path class="cls-68" d="M108.56,41.97c-.56.18-1.24-.05-1.82,0-.6.06-1.22,0-1.82,0l-1.82,1.82c-1.18.68-1.2,1.29,0,1.82h3.65c.7,0,1.47-.22,2.16-.07,1,.21,1.38-.39,1.52-.97.34-1.37-.43-3.07-1.86-2.6Z"/>
      <path class="cls-33" d="M103.09,43.8c-1.2-.54-1.18-1.15,0-1.82h1.82c-.54.67-1.15,1.28-1.82,1.82Z"/>
      <path class="cls-64" d="M103.09,45.62v1.82c-1.45-.03-3.24-.18-3.65-1.82h1.82c.52-1.59,1.13-1.57,1.82,0Z"/>
    </g>
    <g id="body">
      <path class="cls-56" d="M72.69,69.32c-1.66,1.02-4.6,2.17-6.51,2.17s-3.06-.64-3.45-2.81-1.28-7.15-3.32-8.17c-2.04-1.02-12.13-5.49-13.02-7.91-.89-2.43-3.32-5.87-3.32-7.66s-.26-10.85-.26-14.3,6.89-6.64,9.96-9.32,6.89-1.53,8.81-1.79c1.91-.26,6-.64,6.64.26s-.51,4.98,1.02,6.26,5.62,2.3,6.38,2.68,1.15,2.68,1.66,3.32,2.3,1.15,3.19,1.79,3.57,1.28,5.23,3.19,3.06.89,2.94,3.06-1.53,1.66-1.53,3.45-.13,5.74,1.4,6.51,2.68,1.91,1.79,4.34-.26,4.72-4.21,5.49c-3.96.77-10.6,4.34-12.26,6-1.66,1.66-1.15,3.45-1.15,3.45Z"/>
      <path class="cls-40" d="M44.54,44.13c4.42.82,8,3.64,10.76,8.47.9-5.19,4.2-4.16,7.45-1.49,4.63-2.43,9.15.99,5.36,5.45-.34,2.69-1.8,5.93-4.96,5.11-5.09-2.57-22.67-11.31-22.21-17.59,1.22-1.3,2.42-1.29,3.61.04Z"/>
      <path class="cls-67" d="M64.51,20.3c4.4,1.45,6.28,5.18,4.05,9.39-.11,1.21-.53,1.09-1.21-.11-.85,5.28-4.1,5.13-6.57.89-4.53,1.46-7.38-2.72-9.35-6.61.17,1.62-.19,1.57-1.03.02.89-.48-.03-3.13,1.31-3.46,1.14-.28,2.13-.77,3.8-.67l8.99.55Z"/>
      <path class="cls-65" d="M70.26,56.51l2.27,3.14c-1.4,2.09.22,3.91,4.87,5.45-.58.8-1.09,1.71-1.78,2.42-.89,2.27-2.93,4.26-5.56,3.83-.25,1.61-.74,1.54-1.46-.05-3.56,1.82-6.19-.76-3.64-3.78-.17-2.06-.71-4.1-1.82-5.85.33-2.59,2.64-4.22,4.96-5.11.67-1.63,1.39-1.65,2.15-.05Z"/>
      <path class="cls-40" d="M68.6,71.3c-1.06.98-2.43,1.46-3.83,1.69-1.01-.77-1.73-1.83-1.84-2.85-.16-1.47.4-3.05,2.04-2.62.07.78-.26,1.78.13,2.59.62,1.29,2.29,1.32,3.51,1.2Z"/>
      <path class="cls-85" d="M81.06,49.48c6.36-4.44,5.9,8.38-.02,11.86-.16,1.54-2.8,2.6-3.64,3.75-2.97.98-6.48,3.39-8.15.13-1.59-3.1-.89-6.31,1.01-8.72-2.81-4.48-.96-6.26,5.54-5.34.56-3.55,3.58-5.04,5.26-1.69Z"/>
      <path class="cls-63" d="M86.98,49.27c4.78,1,4.42,2.66-.32,3.65,6.91.95,5.66,2.64,0,5.47-2.01.6-3.71,2.14-5.64,2.95.29-2.98,2.28-5.3,3.21-8.63.43-1.55-2.46-2.74-3.18-3.24-3.71-.42-3.31-3.35.44-3.56.36-3.31.9-3.59,3.09-1.32,3.89-1.78,3.45.99,2.4,4.67Z"/>
      <path class="cls-96" d="M84.58,44.6c.43,1.65-2.06,1.22-3.09,1.32-.76,1.63-1.47,1.48-2.12-.3-4.63,1.6-7.95-1.14-5.57-5.92.42-1.63,1.02-1.53,1.77.11,2.56-1.91,6.42-2.71,9.27-1.49.55.14,1.32-.23,1.82,0,3.24,2.02,1.74,6.83-2.09,6.28Z"/>
      <path class="cls-79" d="M84.75,36.26l.09,2.06c-2.41,2.59-6.06,2.02-9.27,1.49-4.38-3.63-1-6.96,3.8-3.96,1.62-.54,3.72.56,5.38.4Z"/>
      <path class="cls-70" d="M66.49,38.1c1.21,4.8.57,4.75-3.54,2.04.33,3.03-1.13,4.98-4.37,5.86-.26,3.12-1.35,5.32-3.28,6.6-5.47,1.03-8.91-3.68-10.76-8.47,3.49-.24,7.2-.99,9.29-3.98-.56-1.77.05-2.38,1.82-1.82.02-1.6.62-2.21,1.82-1.82,1.75-6.1,11.77-5.01,9.01,1.6Z"/>
      <path class="cls-29" d="M62.95,40.15c4.84,1.22,5.69,6.45,1.54,9.2,2.32,2.59,1.29,3.57-1.74,1.77-1.78,2.64-4.96,1.02-7.45,1.49-.75-2.64-1.96-6.02.11-8.54,1.67-2.04,4.97-2.94,7.55-3.91Z"/>
      <path class="cls-7" d="M75.8,51.17c-1.99,1.64-3.95,3.33-5.54,5.34-.67.17-1.51-.19-2.15.05-1.09-2.42-2.78-4.59-5.36-5.45.44-.66,1.15-1.25,1.74-1.77-1.8-8.08,11.49-4.67,11.31,1.83Z"/>
      <path class="cls-56" d="M70.15,38.29c-.95,4.59-2.3,4.18-3.66-.19-2.41-2.6-6.24-4.38-9.01-1.6-1.99-1.47-3.01-3.75.3-3.67-3.87-4.05-1.87-5.01,3.01-2.37,2.22-.08,4.41-.38,6.57-.89,4.93,2.88,11.18,8.02,2.8,8.72Z"/>
      <path class="cls-52" d="M70.06,29.41c3.99-2.22,5.56-1.34,5.57,3.28,1.47.77,2.79,1.8,3.73,3.17-1.68.55-2.87,2.62-3.8,3.96-.57-.09-1.19-.09-1.77-.11-2.1,4.63-3.92,3.64-3.65-1.41,2.65-3.28-1.92-5.36-2.8-8.72.38-.09.83.19,1.21.11l1.5-.28Z"/>
      <path class="cls-21" d="M60.78,30.47c-1.41.05-2.49,1.12-3.01,2.37-.32,3.8-3.35.36-4.43-2.06-.87-2.23-1.5-4.55-1.91-6.92l9.35,6.61Z"/>
      <path class="cls-34" d="M79.37,45.62c.67.14,1.44.36,2.12.3l-.44,3.56c-1.73.35-3.82.51-5.26,1.69-6.93-3.36-2.12-11.09,3.57-5.55Z"/>
      <path class="cls-59" d="M70.15,38.29c1.24.32,2.29,1.37,3.65,1.41,1.74,2.13,4.62,3.24,5.57,5.92-1.39-.3-2.86-.02-3.28,1.27-.47,1.45-.46,2.85-.29,4.28-4.52-.15-7.54-5.13-11.31-1.83-1.14-2.93-1.62-6.05-1.54-9.2,1.24-.47,2.3-1.65,3.54-2.04.92-.29,2.73-.06,3.66.19Z"/>
    </g>
    <g id="Head">
      <g id="neck">
        <path class="cls-90" d="M78.27,30.66c-.99.45-2.26.82-2.94.28-.06-.05-.12-.09-.2-.14-.47-.34-1.28-.82-2.12-1.39-.2-.13-.38-.26-.57-.4-.34-.24-.68-.48-.99-.75-.72-.59-1.35-1.22-1.66-1.86-.89-1.74-1.82-4.7-1.8-6.34,0-.15.01-.29.02-.42.04-.3.13-.66.24-1.03.41-1.32,1.13-2.89,1.28-3.18,0-.02.01-.03.02-.04h0s.03-.03.06-.03h.02s.04-.01.06-.01c.02,0,.05-.02.09-.02.42-.1,1.38-.27,2.29-.22.66.04,1.74.06,2.65.07.46,0,.88,0,1.2.01.2,0,.35.02.45.03.56.07,2.34.14,2.87.67.27.29.92.76,1.49,1.26.01,0,.02.02.02.02.47.41.89.84,1.03,1.22.05.14.14.34.27.59.1.24.23.51.37.81h0s0,.06.02.09h0c.22.46.43.96.63,1.46.29.74.52,1.46.53,2,0,.15,0,.28-.03.4,0,.04,0,.06-.02.09-.28.76-1.01,2.12-1.63,3.13-.03.05-.05.1-.08.14-.14.23-.27.42-.38.6-.14.2-.26.36-.35.46-.2.22-.37.46-.56.7,0,.01-.01.03-.02.03-.07.11-.15.21-.23.3-.25.32-.52.62-.89.86-.05.03-.11.06-.16.1h-.03c-.24.15-.56.33-.92.5Z"/>
        <path class="cls-90" d="M75.14,33.13c-.45-.19-.77-.61-1.04-1.02-.32-.47-.63-.95-.87-1.46-.03-.07-.06-.13-.09-.21-.51-.43-.95-.93-1.31-1.5-.15-.21-.29-.45-.4-.68-.72-.59-1.35-1.22-1.66-1.86-.89-1.74-1.82-4.7-1.8-6.34,0-.15.01-.29.02-.42.04-.3.13-.66.24-1.03.41-1.32,1.13-2.89,1.28-3.18-.01,0-.03-.01-.05-.03.02-.02.04-.02.07-.02.02,0,.04-.02.07-.02.05,0,.1-.02.16-.01,1.89-.28,3.96.83,5.62,2.83.09.12.2.24.29.37.09.11.17.22.26.34.44.63.85,1.34,1.21,2.11.08.17.16.36.23.54.15.37.3.76.43,1.16.08.24.16.48.22.72.46,1.68.68,3.36.61,4.86,0,.13,0,.25-.02.38,0,0-.01,0,0,.01,0,.13-.02.23-.04.36-.06.57-.16,1.12-.31,1.62-.21.71-.5,1.33-.87,1.84-.13.12-.27.24-.42.34-.53.36-1.24.54-1.83.29Z"/>
        <path class="cls-90" d="M73.29,28.92c-.07.02-.12.03-.2.03-.22.07-.43.08-.66.07-.2,0-.39-.02-.59-.07-.15-.21-.29-.45-.4-.68-.72-.59-1.35-1.22-1.66-1.86-.89-1.74-1.82-4.7-1.8-6.34.17-.08.36-.16.54-.24.22-.08.44-.17.67-.24,2.12-.76,4.46-1.1,5.69-1.3.2-.03.37-.06.5-.09.14-.03.23-.06.3-.08.01,0,.04,0,.05,0,.52-.1,1.16-.35,1.78-.51.06-.01.11-.04.16-.04.66-.17,1.28-.19,1.68.24.11.1.2.23.26.4.06.15.11.32.14.53,0,.01.01.03.01.06-.04.03-.08.06-.11.1h-.01c-1.07,1.02-.95,2.36-1.22,3.72-.09.18-.17.35-.24.54-.05.1-.1.2-.15.29-.23.46-.45.88-.66,1.27-1.4,2.52-2.73,3.86-4.06,4.22Z"/>
        <path class="cls-93" d="M75.14,33.13c-.45-.19-.77-.61-1.04-1.02-.32-.47-.63-.95-.87-1.46-.03-.07-.06-.13-.09-.21-.08-.16-.14-.32-.16-.5-.02-.18,0-.36.02-.53.01-.15.05-.31.09-.46,0-.06.02-.13.04-.2.05-.26.08-.51.03-.77-.03-.17-.11-.34-.07-.51.02-.11.09-.2.16-.3.54-.69,1.23-1.29,1.54-2.11.1-.26.15-.52.26-.76.15-.33.4-.6.59-.89.35-.54.55-1.15.93-1.67.15-.2.34-.38.48-.6.03-.04.06-.09.08-.14.03-.02.05-.06.06-.09.08-.12.14-.25.21-.39.38-.64.91-1.15,1.45-1.66.07-.07.14-.14.24-.18h.02s.06-.02.08-.02h0c.06,0,.11,0,.16,0,.12,0,.23.01.35.04.36.03.72.11,1.01.35l.55,1.15s.05.09.07.13c.21.42.32.88.31,1.34,0,.04,0,.07,0,.1-.04.15-.05.28-.04.38,0,.05,0,.09-.02.13-.04.28-.11.55-.18.82-.22.84-.46,1.69-.94,2.39-.11.15-.23.3-.27.47-.06.3.12.59.24.87.29.63.35,1.38.08,2.02,0,.01-.01.03-.02.03-.04.08-.07.16-.11.23-.03.05-.06.09-.1.13-.15.21-.33.39-.51.58-.17.17-.32.34-.49.52-.01,0-.02.02-.03.02-.33.35-.64.71-.95,1.08-.3.35-.6.73-.93,1.04-.13.12-.27.24-.42.34-.53.36-1.24.54-1.83.29Z"/>
        <path class="cls-61" d="M70.76,20.32c-.5-.14-1.06-.39-1.57-.74-.21-.15-.41-.31-.59-.5-.13-.15-.25-.3-.36-.46.41-1.32,1.13-2.89,1.28-3.18-.01,0-.03-.01-.05-.03-.05,0-.11.01-.15.03.04-.03.08-.04.13-.05.03-.01.06-.01.09-.02.01,0,.03-.01.06-.01h0s.01,0,.02,0c.01,0,.04,0,.06,0,.02,0,.05-.02.09-.02,1.02-.17,2.49,0,4.59.31.14.02.28.04.41.05.49.06.91.12,1.28.2,1.09.18,1.66.39,1.76.79.07.25-.03.53-.24.82-.02.03-.04.07-.08.1-.28.35-.7.71-1.16,1.03-.09.05-.17.12-.26.17-.05.03-.1.06-.15.1-.39.26-.78.47-1.07.62-1.09.55-2.47,1.25-4.1.81Z"/>
      </g>
      <g id="face">
        <path class="cls-87" d="M85.62,30.79c-.27.32-.97,1.58-1.34,1.95s-.79.94-1.28.62-1.73-1.24-1.88-1.73-3.05-8.79-3.34-9.56-2.85-5.09-3.01-6.45-.44-3.4.27-4.69,1.79-3.51,3.04-4.54c1.24-1.04,4.75-2.57,5.98-2.43s4.89,1.23,6.56,2.98c1.67,1.75,3.4,2.89,4.58,5.97,1.17,3.08,1.81,7.53,1.72,9.06s-.6,2.19-1.16,2.69-1.64,1.69-2.42,2.25-1.84,2.48-2.27,2.72-.78-.09-.78-.41-.35-.82-.62-1.1c-.29-.3-.63.11-.93.3s-.86.49-1.09.36-.78-.86-1.27-1.03-.98-.22-1.11.06-.39.65-.15,1.05.74,1.08.88,1.26-.38.64-.38.64Z"/>
        <path class="cls-57" d="M84.89,32.14c.51-.98,1.17-1.87,1.95-2.65.29-.29,2.75-.51,2.86-.91.09-.33-1.14-1.42-1.25-1.74-.13-.39-.96-.65-1.47-.99-1.08-.71-1.82-1.31-2.96-1.92-.42-.23-1.05-.39-1.31.02-.13.21-.09.47-.13.71-.12.79-.98,1.21-1.47,1.84-.07.09-.14.2-.13.32,0,.08.05.15.08.22.32.58.64,1.16.96,1.74.47.86.95,1.72,1.61,2.44.29.31.61.6.94.88l.31.03Z"/>
        <path class="cls-60" d="M90.26,28.57c.79.24,1.49-.17,2.06-.6,1.19-.9,2.25-1.94,3.17-3.1.19-.25.39-.58.21-.9-.06-.11-.15-.2-.24-.28-.9-.85-1.81-1.71-2.71-2.56-.48-.46-1.09-.96-1.66-.84-.25.05-.44.22-.61.38-1.28,1.17-2.6,2.39-3.12,4.11-.08.28-.15.59-.03.9.09.24.28.44.45.64.62.67,1.23,1.35,1.85,2.02l.64.24Z"/>
        <path class="cls-57" d="M80.53,21.39c.38-.36.67-.8.96-1.23.13-.2.27-.41.35-.65.05-.16.08-.33.16-.48.07-.14.18-.26.29-.38.28-.29.57-.56.89-.81.21-.17.44-.33.66-.5l.57-.42c.14-.11.31-.22.5-.19.18.03.34.17.49.31.37.35.74.7,1.11,1.05.1.09.2.19.27.31.07.12.09.25.13.38.08.24.23.45.37.67.41.64.78,1.31,1.1,1.99.13.27.25.56.24.85,0,.16-.05.31-.05.47,0,.36.23.76.09,1.06-.05.1-.13.17-.19.26-.12.19-.13.45-.24.64-.19.32-.65.38-1.05.3s-.8-.29-1.2-.41c-.33-.1-.68-.15-1-.31-.26-.13-.49-.33-.73-.51-.46-.35-.95-.63-1.44-.92-.34-.2-.69-.4-1.06-.52-.4-.13-.85-.16-1.18-.46v-.49Z"/>
        <path class="cls-87" d="M84.62,21.52c-.81-.98-1.92-1.71-3.17-2.07-.41-.12-.84-.2-1.24-.33-1.44-.46-2.57-1.5-3.62-2.55-.35-.35-.71-.76-.71-1.28,0-.52.36-1.01.75-1.39s.85-.71,1.16-1.16c.21-.31.35-.65.55-.97.24-.39.56-.73.88-1.06.61-.63,1.21-1.27,1.82-1.9.17-.18.35-.36.57-.47.3-.15.64-.14.96-.13.65.03,1.31.06,1.89.3.2.08.38.19.58.26.21.08.43.11.65.18.54.16.99.48,1.43.81,1.17.88,2.24,1.87,3.22,2.95.25.28.5.57.7.9.17.28.31.58.44.88.12.27.24.54.36.8.1.23.21.46.18.72-.04.42-.42.78-.82.96s-.82.23-1.24.34c-.59.16-1.16.47-1.65.87-.2.17-.39.35-.6.49-.19.12-.4.19-.6.29-.87.42-1.51,1.22-2.13,1.98l-.37.59Z"/>
        <path class="cls-4" d="M91.26,17.21c-2.14-.4-4.49,0-6.36,1.1,1.38,1.61,2.81,3.56,4.05,5.08,3.36-.47,6.77-4.3,2.31-6.18Z"/>
      </g>
      <g id="beard">
        <path class="cls-12" d="M90.09,28.15c-.19-1.38-1.27-2.45-2.28-3.42-1.02-.97-2.05-1.94-3.07-2.91-.24-.23-.49-.46-.8-.56-.7-.22-1.4.3-1.91.83-.52.56-.54-.12-.06-1.1.72-1.47,1.23-3.39.14-4.61l-.69.15c-1.93,1.61-4,3.49-4.26,5.99-.14,1.34.29,2.68.7,3.96.79,2.42,1.6,4.89,3.15,6.91.33.43.73.87,1.26,1,1.09.28,2.04-.75,2.69-1.67.08-.12.17-.24.2-.38.03-.17-.02-.34-.08-.51-.46-1.33-1.2-2.56-2.17-3.59-.44-.47-.92-.91-1.33-1.41.25.13.54.19.81.11.22-.06.41-.2.59-.34.64-.47,1.28-.95,1.92-1.42.06-.04.12-.09.2-.1.13-.03.26.05.36.13,1.35.96,2.49,2.22,3.31,3.66l.25.07c.08.33.59.38.82.14s.26-.62.21-.95Z"/>
      </g>
      <g id="hair">
        <path class="cls-46" d="M96.65,23.38c-.61.09-1.32-.1-1.92-.81-.45-.54-1.04-1.01-1.58-1.47-.06-.06-.13-.11-.19-.16-.46-.41-.87-.85-1.11-1.34-.08-.16-.13-.33-.17-.51-.15-.73-.32-1.4-.61-1.9-.02-.05-.06-.1-.08-.15-.18-.27-.41-.5-.7-.64-.14-.08-.3-.13-.48-.17-1.22-.24-4.19-2.04-4.31-2.26s-2.22.91-2.73,1.74c-.21.35-.39.58-.62.79-.32.27-.73.46-1.44.69-.02,0-.04,0-.07.02h-.01c-.41.15-.85.38-1.32.61-.28.14-.57.28-.87.4-.63.25-1.31.44-2.11.42-.11,0-.23,0-.34-.01-.01,0-.01,0-.03,0-.1-.01-.21-.02-.31-.05-.29-.06-.56-.16-.79-.28-1.25-.63-1.95-1.96-3.46-2.12-.61-.06-1.2-.29-1.73-.63-.06-.02-.11-.06-.16-.1-.01,0-.03-.01-.05-.03,0,0-.01,0-.02-.02-1.03-.7-1.74-1.76-1.69-2.62,0-.11,0-.23,0-.33.03-1.13-.13-2.07.66-2.68.05-.03.1-.06.14-.09.34-.21.65-.48.96-.77.06-.05.13-.11.19-.18.37-.34.74-.69,1.14-.96.23-.17.46-.32.71-.43.75-.32,1.99-1.95,2.9-3.2.5-.71.92-1.29,1.1-1.49.51-.54,1.91-2.79,3.03-2.64.3.03.75.12,1.27.19h.01c1.43.24,3.34.57,3.71.6.06,0,.18.04.35.11.13.05.29.11.47.18h.01c1.57.7,4.81,2.39,5.38,3.11.73.92,4.12,3.2,4.95,4.24,0,.02.03.04.04.07h0c.19.26.46.68.73,1.16h0c.88,1.62,1.93,4.11,1.92,5.33,0,.38.03.75.11,1.14h0c.16,1.08.52,2.14.62,2.88v.02c.02.13.03.25.03.36,0,.94.17,2.83-.47,3.44-.28.25-.66.46-1.11.53Z"/>
        <path class="cls-47" d="M95.45,10.35c-.94-1.79-.25-2.2-1.68-3.35s-4.7-4.94-6.22-5.23c-1.52-.29-2.75-1.29-4.35-.68s-1.8,1.45-.99,2.22,2.98,3.47,4.07,4.16,4.37,3.04,5.21,3.5,3.25,1.38,3.57.87.4-1.5.4-1.5Z"/>
        <path class="cls-20" d="M75.68,4.64l.18-.82c.08-.37.16-.74.35-1.06.14-.24.34-.45.54-.65.33-.34.65-.67.98-1.01.08-.09.17-.18.28-.23.12-.06.26-.07.39-.09.38-.07.71-.27,1.07-.42C80.21.05,81.04,0,81.84,0c.49,0,1,.02,1.45.23.33.15.61.4.88.64.68.61,1.38,1.23,1.82,2.02.14.25.26.52.29.81.04.4-.09.8-.21,1.19-.15.46-.31.93-.46,1.39-.02.07-.05.14-.11.19-.06.04-.14.05-.21.05-1.81,0-3.64-.12-5.36-.7-.77-.25-1.53-.6-2.33-.61l-1.91-.57Z"/>
        <path class="cls-46" d="M91.85,21.28c.02-.36.04-.72.04-1.08,0-1.71-.45-3.43-1.28-4.93-1.04-1.88-2.64-3.37-4.27-4.77-.75-.64-1.5-1.27-2.27-1.89-.39-.31-.79-.63-1.26-.81-.79-.3-1.66-.19-2.49-.07-.6.09-1.2.17-1.8.26-.74.11-1.51.21-2.23,0-.08-.02-.16-.05-.22-.11-.19-.16-.17-.44-.13-.68.11-.7.22-1.41.33-2.11.11-.69.29-1.48.93-1.76.51-.22,1.1-.01,1.57.28s.9.68,1.43.84c.64.2,1.33.05,1.98.19.64.13,1.25.54,1.9.45.45-.06.82-.35,1.2-.6.18-.12.39-.23.6-.18.32.08.4.48.49.8.2.69.7,1.25,1.19,1.79.51.56,1.03,1.13,1.66,1.55.61.4,1.3.66,1.9,1.07,1.02.69,1.74,1.77,2.17,2.93s.6,2.39.73,3.62c-.16-.23-.5-.33-.76-.21-.33.14-.47.54-.44.9s.19.68.31,1.02c.23.61.35,1.26.36,1.91.01.85-.31,1.85-1.13,2.08-.19-.03-.34-.22-.33-.41l-.19-.06Z"/>
        <path class="cls-47" d="M90.52,13.48c.27-.4,2.28.27,2.68.63,1.13,1.03,2.26,2.06,3.39,3.08.72.66,1.48,1.37,1.78,2.27.45,1.33-.19,4.52-1.12,5.43-.12.12-.25.23-.42.28-.26.07-.54-.06-.79-.2-.6-.33-1.14-.75-1.69-1.17-.72-.56-2.38-2.01-3.1-2.57-.35-.27.18-1.49-.11-1.82-.82-.95-1.05-2.28-.78-3.41s.15-2.52.15-2.52Z"/>
        <path class="cls-51" d="M76.25,8.29c-.02.24-.33.33-.57.31s-.51-.08-.7.07c-.11.08-.16.21-.26.3-.11.1-.26.13-.4.15-1.26.18-2.59-.33-3.41-1.3-.04-.05-.08-.11-.11-.17-.09-.25.17-.47.39-.62.72-.49,1.39-1.07,1.99-1.72.24-.26.48-.54.75-.78.57-.5,1.34-.8,2.09-.72s1.47.58,1.72,1.3c.29.83-.07,1.73-.42,2.53-.07.16-.26.36-.39.23l-.67.41Z"/>
        <path class="cls-6" d="M91.32,10.71c7.93-7.1,7.96,14.81,2.34,6.79.82-2.75-2.88-4.58-2.34-6.79Z"/>
      </g>
      <g id="Eye">
        <path class="cls-46" d="M89.17,20.55c1.62.83,4.28,3.16,2.59,5.06-.04.03-.1.01-.11-.03-.31-1.02-.55-1.63-.86-2.6-.39-.84-.99-1.63-1.69-2.34-.04-.04,0-.12.06-.09h0Z"/>
        <g>
          <g id="eye">
            <path class="cls-23" d="M89.46,22.71c-.23-.27-.51-.57-.84-.67-.15-.05-.3-.05-.42-.02-.59.13-.64.83-.29,1.45s.99,1.19,1.63,1.69c.23.18.49.38.75.42.35.06.54-.19.5-.48s-.25-.61-.45-.91c0,0-.37-.9-.87-1.48Z"/>
            <path d="M89.45,22.72c-.34-.46-1.22-.97-1.55-.31-.18.55.24,1.19.67,1.68.34.33,1.99,2.16,2.13,1.04-.04-.31-.23-.62-.41-.92-.21-.53-.46-1.06-.84-1.5h0ZM89.47,22.7c.36.43.67.99.91,1.46.27.37.84,1.12.23,1.49-.21.09-.42.04-.59-.03-.93-.57-1.79-1.23-2.33-2.18-.68-1.63.95-2.06,1.79-.73h0Z"/>
          </g>
          <g>
            <ellipse class="cls-94" cx="89.73" cy="24.41" rx=".5" ry=".91" transform="translate(14.98 79.73) rotate(-51.73)"/>
            <g>
              <ellipse class="cls-46" cx="89.9" cy="24.7" rx=".39" ry=".58" transform="translate(17.11 82.95) rotate(-54.03)"/>
              <path class="cls-23" d="M90.21,24.72c.1.06,0,.26-.11.32-.02.01-.04.02-.07.02-.03,0-.06-.02-.09-.04-.1-.06-.19-.14-.23-.23s-.02-.19.06-.22c0,0,.15.27.44.15Z"/>
            </g>
          </g>
        </g>
      </g>
      <g id="mouth">
        <path id="open" d="M85.66,30.05s1.99-.75,2.03-.76-.69-.85-.76-.95-.77-.84-.85-.96-.36-.34-.47-.38-.48-.16-.55-.16-.41.07-.48.11-.37.27-.38.35-.11.51-.05.63.31.94.41,1.06.48.8.55.89.14.26.18.29.37-.11.37-.11Z"/>
        <g id="teeth">
          <path class="cls-23" d="M88.29,29.23c-.22.12-.49.25-.64.29s-.13.04-.19.03-.81-.71-1.04-1.03-.75-1.28-.78-1.31.07-.07.13-.06.25.12.35.21.64.57.75.65.61.55.73.64.69.58.69.58Z"/>
          <path class="cls-23" d="M85.84,30.17c.07.14.72-.24.76-.26s-.81-.43-.99-.6-.95-1.54-1.07-1.67-.4-.19-.4-.19c0,0-.04.16-.04.22s.09.76.17.87.55.74.66.82.9.78.91.8Z"/>
        </g>
        <path id="lips" class="cls-54" d="M88.75,29.41c.32-.14.14-.27-.09-.39s-1.04-.52-1.36-.76-1.08-1.21-1.44-1.32-1.33-.33-1.69-.17-.88.59-.91.9.42,1.06.7,1.61c.26.53.78,1.28,1.02,1.33s1.37.23,1.51-.09-.33-.55-.47-.6-1.23-.86-1.4-1.11-.52-1.39-.39-1.51.16-.44.84-.28.78.26.95.46.96,1.09,1.22,1.34.52.71.69.75.44,0,.83-.16Z"/>
      </g>
    </g>
    <g id="front-arm">
      <path class="cls-69" d="M52.93,21.29c-1.67-.73-6.03-.77-10.53.67-4.5,1.44-6.89,3.64-8.52,4.98-1.63,1.34-3.64,4.69-4.5,5.27-.86.57-3.93,1.24-4.88,1.82s-6.8,2.59-7.76,4.4-2.49,6.22-2.49,7.66,0,5.82-.57,6.84-.48,5.32.38,5.9,3.35,1.63,3.93,1.72,2.78-1.15,3.73-2.01,5.46-5.46,6.61-5.94c1.15-.48,2.97-3.64,3.73-4.21s4.12-3.45,4.6-3.73,1.24-.29,2.78-.29,10.91-2.2,12.83-3.26,3.83-1.72,4.5-2.59.38-2.01,0-4.02-1.44-12.16-3.83-13.21Z"/>
      <path class="cls-95" d="M27.92,41.89c5,5.16-.12,9.12-4.79,12.71-1.07,1.21-2.07,3.42-3.98,3.79-.39,1.79-1.41,1.82-1.82,0-2.07,2.03-3.1.93-1.62-1.78-3.15-1.89-3.83-3.12-2.03-3.7l.59-4c1.2-5.23,5.99-7.99,10.66-8.52,2.39-4.25,3.78-3.28,2.99,1.48Z"/>
      <path class="cls-84" d="M37.84,29.8c4.11,3.46,3.03,5.68-2.23,4.61-.03,3.17-2.61,5.87-5.23,7.55.14,3.62-1.5,3.58-2.47-.07l-2.99-1.48c-3.96.3-3.21-1.79-.46-4.29,4.71-2.87,7.02-9.57,13.37-6.31Z"/>
      <path class="cls-8" d="M46.52,27.75c3.31-1.83,4.72.81,1.83,3.27,1.59.52,1.57,1.13,0,1.82.46,4.69-1.21,6.06-5.47,3.65-2.16,3.71-5.06,3.48-7.3,0-3.14.33-2.86-.71.04-2.09.92-1.44,1.7-2.98,2.23-4.61,2.19,1.12,6.5-1.7,8.68-2.05Z"/>
      <path class="cls-88" d="M35.61,34.41l-.04,2.09c2.91.52,5.56,2.32,3.65,5.47,1.29.82.68,1.42-1.82,1.82-.89,1.51-2.59,2.39-3.59,3.77-5.67,2.05-6.04-.98-3.42-5.6-.37-1.74-.57-3.72.54-5.48.91-1.44,2.89-1.97,4.69-2.07Z"/>
      <path class="cls-44" d="M24.47,36.12c-.12,1.37.77,2.94.46,4.29-.7,3.07-3.42,5.27-7.06,4.32-1.53,1.63-2.23,3.21-3.59,4.19-.65-6.65,5.41-9.89,10.2-12.81Z"/>
      <path class="cls-36" d="M33.81,47.57c-2.48,3.45-6.68,6.04-10.68,7.04,1.74-4.26,4.98-7.97,4.79-12.71.7.35,1.71-.13,2.47.07.52,2.19,1.56,4.28,3.42,5.6Z"/>
      <path class="cls-41" d="M51.43,23.86c3.39,3.21,4.03,5.51,1.91,6.92.7,2.08-3.45,1.37-4.99.25l-1.83-3.27c1.01-1.01,2.49-3.13,3.88-3.87l1.03-.02Z"/>
      <path class="cls-35" d="M53.82,40.15c.84,6.51-5.17,9.7-9.29,3.98-1.19.08-2.42.05-3.61-.04l-3.53-.29c.41-.7,1.06-1.5,1.82-1.82.46-1.73,1.07-1.7,1.82,0,2.84-4.67,9.35-6.93,12.77-1.82Z"/>
      <path class="cls-14" d="M48.35,32.85c3.86-2.89,10.37.31,7.3,5.47-.59.59-1.34,1.13-1.82,1.82-4.34.18-8.38,2.23-12.77,1.82-4.07-2.27-2.76-4.9,1.82-5.47,1.57-1.52,3.21-3.31,5.47-3.65Z"/>
      <path class="cls-48" d="M53.34,30.77l4.43,2.06-.3,3.67-1.82,1.82c.08-1.78-.37-3.81-1.8-4.64-1.74-1.01-3.76-1.09-5.5-.84v-1.82l4.99-.25Z"/>
      <path class="cls-1" d="M42.88,36.5c-.99,1.68-1.56,3.55-1.82,5.47-.53-.05-1.34-.2-1.82,0-1.91-1.29-3.69-3.08-3.65-5.47h7.3Z"/>
    </g>
    <g id="front-glove">
      <path class="cls-50" d="M8.03,57.29c1.24-1.56,2.49-5.07,3.35-5.07s5.27,0,6.03.96,3.73,3.64,3.73,4.21.67,5.27.67,6.61,1.15,6.51-2.97,7.18-9-4.6-10.63-5.36c-1.63-.77-.96-7.56-.19-8.52Z"/>
      <path class="cls-33" d="M19.15,69.34c.83,3.07-1.61,5.51-7.3,7.32-2.8.31-3.97-3.78-6.5-4.14-1.13-.21-1.16-.72-.23-1.52.1-8.48,2.28-12.06,6.52-10.76.56-1.6,1.24-1.59,2.04-.03,7.05,2.68,8.87,5.72,5.47,9.12Z"/>
      <path class="cls-19" d="M13.68,52.92c1.24.89,1.67,2.29,2.03,3.7-.96.7-2.32,1.91-4.06,3.63-3.06,2.54-3.97,7.75-6.52,10.76-3.88-1.12-3.02-7.1-2.07-10.62,5.95-3.71,5.55-9.88,10.63-7.47Z"/>
      <path class="cls-3" d="M19.15,58.4c2.49,2.84,3.43,8.04,3.33,11.25-.17,3.58-3.03,3.4-3.33-.3,1.83-4.36-4.2-5.03-5.47-9.12,1.35-.64,2.57-1.25,3.65-1.82.31-1.47,1.34-1.38,1.82,0Z"/>
      <path class="cls-50" d="M5.12,71.01l.23,1.52c-3.52-.5-5.87-1.57-5.25-5.62.38-2.48.65-5.07,2.95-6.51,1.57,3.32,2.28,6.95,2.07,10.62Z"/>
      <path class="cls-68" d="M22.48,69.65c-.03.98.94,3.32-.46,4.32-3.18,2.26-6.99,2.36-10.16,2.7,1.41-3.29,4.92-4.74,7.3-7.32l3.33.3Z"/>
      <path class="cls-68" d="M15.71,56.62c.19.75,1.14,1.25,1.62,1.78,0,.51.12,3.05-.85,3.44-.71.29-1.97-1.84-2.8-1.62l-2.04.03c.53-.87-.48-4.69,1.02-5.29.75-.3,2.12,1.96,3.04,1.66Z"/>
    </g>
  </g>
</svg>