<?xml version="1.0" encoding="UTF-8"?>
<svg id="Player_Walk" xmlns="http://www.w3.org/2000/svg" viewBox="0 0 87.78 140.73">
  <defs>
    <style>
      .cls-1 {
        fill: #885e42;
      }

      .cls-2 {
        fill: #272a33;
      }

      .cls-3 {
        fill: #0d1214;
      }

      .cls-4 {
        fill: #9f744d;
      }

      .cls-5 {
        fill: #172543;
      }

      .cls-6 {
        fill: #181f2e;
      }

      .cls-7 {
        fill: #343136;
      }

      .cls-8 {
        fill: #433c3f;
      }

      .cls-9 {
        fill: #0d1d32;
      }

      .cls-10 {
        fill: #293339;
      }

      .cls-11 {
        fill: #0a141a;
      }

      .cls-12 {
        fill: #161d26;
      }

      .cls-13 {
        fill: #be6f3f;
      }

      .cls-14 {
        fill: #fff;
      }

      .cls-15 {
        fill: #c36a3f;
      }

      .cls-16 {
        fill: #be895f;
      }

      .cls-17 {
        fill: #1f262d;
      }

      .cls-18 {
        fill: #0a1b2d;
      }

      .cls-19 {
        fill: #d9d5c4;
      }

      .cls-20 {
        fill: #090d1a;
      }

      .cls-21 {
        fill: #102131;
      }

      .cls-22 {
        fill: #070d15;
      }

      .cls-23 {
        fill: #141920;
      }

      .cls-24 {
        fill: #1a202d;
      }

      .cls-25 {
        fill: #d38269;
      }

      .cls-26 {
        fill: #13192a;
      }

      .cls-27 {
        fill: #1f2830;
      }

      .cls-28 {
        fill: #f8c999;
      }

      .cls-29 {
        fill: #efad81;
      }

      .cls-30 {
        fill: #9e6340;
      }

      .cls-31 {
        fill: #eedca7;
      }

      .cls-32 {
        fill: #a0481d;
      }

      .cls-33 {
        fill: #172440;
      }

      .cls-34 {
        fill: #b6c5cb;
      }

      .cls-35 {
        fill: #ddd7cf;
      }

      .cls-36 {
        fill: #f4a679;
      }

      .cls-37 {
        fill: #0c1929;
      }

      .cls-38 {
        fill: #dfdfd2;
      }

      .cls-39 {
        fill: #020b12;
      }

      .cls-40 {
        fill: #f5f5f1;
      }

      .cls-41 {
        fill: #202029;
      }

      .cls-42 {
        fill: #5b5e63;
      }

      .cls-43 {
        fill: #4d5c62;
      }

      .cls-44 {
        fill: #232b54;
      }

      .cls-45 {
        fill: #f9dbab;
      }

      .cls-46 {
        fill: #30393e;
      }

      .cls-47 {
        fill: #394869;
      }

      .cls-48 {
        fill: #0e1829;
      }

      .cls-49 {
        fill: #b88261;
      }

      .cls-50 {
        fill: #1c2b4e;
      }

      .cls-51 {
        fill: #bcbf9e;
      }

      .cls-52 {
        fill: #445154;
      }

      .cls-53 {
        fill: #e37356;
      }

      .cls-54 {
        fill: #18284c;
      }

      .cls-55 {
        fill: #d5976b;
      }

      .cls-56 {
        fill: #e9af80;
      }

      .cls-57 {
        fill: #ca8a60;
      }

      .cls-58 {
        fill: #754c24;
      }
    </style>
  </defs>
  <g id="walk_6">
    <g id="Head">
      <g id="neck">
        <path class="cls-56" d="M33.45,17.61s.55-.89,1.27-1.48,2.11-1.96,2.47-2.23,1.39-1.17,1.96-1.15,2.13-.26,2.75.05,3.52,1.22,3.9,2.11.91,3.09.93,3.73.22,1.27.05,1.96-.81,2.56-1.8,2.66-3.97.96-5.53.41-3.93-1.89-4.6-2.85-1.41-3.21-1.41-3.21Z"/>
        <path class="cls-56" d="M46.66,24.79c-1.25,2.29-6.17,3.29-9.74,1.34s-4.92-5.91-3.67-8.2,5.16-2.56,8.73-.61,5.93,5.18,4.68,7.47Z"/>
        <path class="cls-56" d="M40.98,14.09c-1.45-1.15-1.99.91-2.64,1.79-.32.65-4.39,5.05-3.59,7.95,6.97,1.55,10.17.9,7.51-6.89-.59-.93-1.41-1.65-1.28-2.86Z"/>
        <path class="cls-57" d="M41.69,13.72c-.37.03-.69.27-.97.5-.05.04-.1.08-.14.14-.04.07-.05.16-.05.24-.03.57-.06,1.15.07,1.7.04.18.1.35.13.53.03.2.03.4.05.6.06.49.28.94.36,1.43.05.27.05.55.14.81.07.2.18.37.26.56.26.62.19,1.33.26,2,0,.09.02.18.07.25.07.11.2.17.31.25.42.29.55.88.95,1.2.15.12.33.2.51.27.41.15.83.27,1.26.36.37.08.77.14,1.13,0,.47-.17.77-.65.88-1.13s.06-.99.02-1.49c-.04-.56-.05-1.13-.05-1.69,0-.24.01-.48-.04-.72-.13-.6-.61-1.08-1.18-1.31-.22-.09-.47-.16-.59-.36-.07-.12-.09-.26-.11-.4-.1-.66-.42-1.26-.74-1.85-.18-.33-.36-.66-.62-.94-.27-.29-.62-.5-1-.62l-.92-.35Z"/>
        <path class="cls-31" d="M36.29,15.19c-2.1,1.5-3.2,2.31-3.14,3.4.04.66.49,1.09.56,1.15.82.74,2.23.45,3.05,0,1.15-.62,1.55-1.75,1.86-2.64.3-.86.8-2.78.15-3.18-.39-.23-1.1.26-2.49,1.26Z"/>
      </g>
      <g id="face">
        <path class="cls-49" d="M50.67,17.69c.02.32.3,1.4.29,1.81s.06.95-.38,1.03-1.63.23-1.97.04-6.39-3.3-6.97-3.58-4.31-1.34-5.12-2.01-2.06-1.68-2.35-2.78-.86-2.92-.72-4.16,1.29-3.97,2.06-4.55,3.4-1.91,5.27-1.82,3.45-.19,5.74.91,5.03,3.26,5.79,4.16.83,1.55.78,2.12-.02,1.82-.16,2.55.29,2.37.18,2.74-.49.36-.65.18-.63-.27-.93-.28c-.32-.01-.3.39-.36.67s-.22.73-.41.78-.89-.06-1.26.1-.67.4-.59.62.13.57.48.67.99.21,1.16.24.13.56.13.56Z"/>
        <path class="cls-29" d="M50.98,18.83c-.24-.82-.34-1.67-.32-2.52,0-.31,1.27-1.75,1.12-2.03-.13-.23-1.39-.19-1.63-.31-.28-.15-.89.14-1.35.23-.98.18-1.72.24-2.68.5-.36.1-.8.34-.72.71.04.18.2.31.31.47.35.51.1,1.2.16,1.81,0,.09.03.19.1.25.05.04.11.06.17.08.49.15.97.31,1.46.46.72.23,1.45.46,2.2.51.33.02.66,0,.99,0"/>
        <path class="cls-30" d="M52.09,13.97c.57-.29.74-.89.83-1.43.19-1.13.23-2.28.13-3.43-.02-.24-.09-.53-.36-.62-.09-.03-.19-.03-.29-.03-.96,0-1.92,0-2.88,0-.51,0-1.12.05-1.38.41-.11.16-.13.35-.14.54-.1,1.34-.18,2.73.44,3.96.1.2.23.41.46.52.18.09.39.1.6.12.7.05,1.41.1,2.11.15l.48-.21Z"/>
        <path class="cls-29" d="M42.81,15.13c.02-.4-.05-.8-.12-1.2-.03-.19-.07-.37-.15-.55-.05-.12-.13-.23-.17-.35-.04-.12-.04-.24-.04-.36,0-.31.02-.62.06-.93.03-.21.07-.42.1-.63l.1-.54c.02-.14.06-.28.18-.37.12-.08.28-.09.44-.09.39,0,.79,0,1.18,0,.11,0,.22,0,.31.03.1.03.18.09.27.14.17.09.37.13.56.18.57.14,1.14.32,1.68.53.22.09.44.18.58.35.08.09.13.2.22.29.19.2.53.3.61.55.02.08.02.16.03.25.03.17.17.32.2.49.06.28-.16.56-.43.73s-.6.26-.89.41c-.24.12-.46.28-.73.36-.22.07-.45.08-.68.1-.44.05-.87.15-1.3.25-.3.07-.6.14-.87.27-.3.14-.57.36-.91.37l-.26-.27Z"/>
        <path class="cls-49" d="M45.17,13.02c-.98-.12-1.98.06-2.88.52-.29.15-.58.33-.87.48-1.06.51-2.24.53-3.39.5-.38-.01-.8-.04-1.08-.34-.27-.29-.33-.76-.32-1.18s.09-.85.03-1.27c-.04-.29-.15-.55-.21-.84-.07-.35-.07-.71-.07-1.06,0-.68,0-1.36,0-2.04,0-.19,0-.39.07-.57.09-.25.28-.42.47-.58.38-.33.77-.66,1.22-.84.15-.06.31-.1.46-.16.16-.07.3-.17.46-.24.39-.19.81-.26,1.23-.31,1.12-.13,2.25-.15,3.38-.06.29.02.58.06.87.13.24.06.48.16.72.26.21.09.42.17.63.26.18.07.36.15.49.31.2.26.18.66.05.97s-.34.57-.51.85c-.24.41-.4.88-.46,1.37-.02.2-.03.4-.08.59-.04.17-.12.32-.18.48-.26.7-.2,1.49-.14,2.24l.1.53Z"/>
        <path class="cls-1" d="M46.6,7.07c-1.41.92-2.52,2.39-2.98,4,1.63.17,3.47.5,4.97.69,1.64-2.05,1.51-6.02-1.99-4.69Z"/>
      </g>
      <g id="beard">
        <path class="cls-8" d="M51.77,13.83c-.85-.67-2.02-.7-3.1-.7-1.09,0-2.18,0-3.27,0-.25,0-.52,0-.74.11-.51.25-.63.91-.63,1.48,0,.59-.37.22-.62-.58-.38-1.21-1.12-2.56-2.38-2.66l-.3.45c-.22,1.93-.39,4.09.8,5.62.64.83,1.59,1.35,2.5,1.85,1.73.94,3.5,1.89,5.45,2.19.42.07.87.09,1.24-.11.76-.42.74-1.51.61-2.37-.02-.11-.03-.22-.09-.32-.07-.11-.19-.18-.31-.24-.97-.5-2.04-.79-3.12-.86-.49-.03-1-.02-1.49-.08.21-.06.4-.18.51-.37.09-.15.12-.33.15-.51.11-.61.21-1.21.32-1.82.01-.06.02-.12.05-.16.06-.08.17-.11.27-.12,1.27-.18,2.58-.08,3.81.29l.18-.09c.22.14.53-.1.53-.36s-.18-.49-.39-.65Z"/>
      </g>
      <g id="hair">
        <path class="cls-20" d="M41.04,10.73c.16.73.11,1.05-.37,1.93s-.62,2.31-1.88,3.32-2.7.16-3.88,1.07-3.18.85-3.85.05-1.44-1.24-1.2-2.17.06-2.01.45-2.9-.26-4.18-.26-4.76-.41-2.59.29-3.1,2.92-1.96,3.22-2.22,4.4-1.53,5.3-1.4,4.01-.4,5.03-.26,4.15,1.31,5.01,2.23,2.28,1.53,2.78,2.06,1.6,1.5,1.56,2.19-.62,1.6-1.85,1.45-2.63.32-3.56-.34-1.76-1.12-2.57-.61-3.43,1.09-3.62,1.02-.77,1.69-.61,2.43Z"/>
        <path class="cls-21" d="M45.29,1c-1.48-.5-1.32-1.1-2.73-.98s-5.27-.26-6.27.38-2.23.74-2.8,1.94-.24,1.77.62,1.77,3.52.36,4.5.17,4.07-.62,4.79-.81,2.56-.96,2.47-1.41-.57-1.05-.57-1.05Z"/>
        <path class="cls-12" d="M31.17,8.32l-.34-.56c-.15-.25-.3-.5-.37-.78-.05-.21-.05-.43-.04-.65,0-.36,0-.72.01-1.08,0-.09,0-.19.04-.28.04-.1.11-.18.17-.26.17-.24.25-.53.37-.81.25-.57.69-1.04,1.14-1.46.28-.26.57-.52.93-.64.27-.09.55-.1.83-.11.71-.02,1.43-.04,2.1.16.21.07.42.16.59.3.24.2.38.5.51.78.16.34.32.68.48,1.02.02.05.05.11.04.16-.01.06-.05.1-.1.14-1.01.96-2.11,1.87-3.38,2.47-.57.27-1.17.48-1.63.9l-1.38.7Z"/>
        <path class="cls-20" d="M49.1,9.04c-.18-.21-.36-.42-.55-.62-.91-.96-2.08-1.68-3.34-2.08-1.58-.5-3.28-.48-4.93-.4-.76.04-1.52.09-2.28.15-.39.03-.78.07-1.14.22-.6.25-1.03.78-1.43,1.29-.29.37-.58.73-.87,1.1-.36.45-.73.92-1.25,1.18-.06.03-.12.06-.18.06-.19.01-.33-.16-.44-.31-.31-.45-.63-.91-.94-1.36-.31-.44-.62-.99-.42-1.48.16-.4.61-.59,1.03-.68s.86-.1,1.25-.29c.46-.23.77-.68,1.21-.95.43-.27.99-.37,1.3-.76.22-.27.28-.64.36-.98.04-.16.09-.34.24-.42.22-.12.48.06.7.19.48.28,1.06.33,1.62.37.59.04,1.18.08,1.76-.02.55-.1,1.08-.32,1.63-.41.94-.16,1.92.07,2.77.49s1.61,1.02,2.34,1.64c-.22-.04-.46.08-.54.29-.11.25.02.56.23.74s.47.28.72.4c.45.22.87.52,1.22.88.46.47.81,1.2.48,1.77-.12.08-.31.06-.4-.06l-.14.07Z"/>
        <path class="cls-21" d="M44.2,5.37c-.06-.37,1.42-1.07,1.84-1.07,1.18-.03,2.36-.05,3.55-.08.76-.02,1.56-.02,2.21.32.96.51,2.3,2.64,2.26,3.64,0,.13-.02.26-.09.38-.11.17-.33.25-.55.31-.51.13-1.04.19-1.57.24-.7.07-2.41.14-3.11.21-.34.03-.69-.93-1.03-.96-.97-.09-1.8-.72-2.26-1.5s-1.26-1.49-1.26-1.49Z"/>
        <path class="cls-23" d="M33.43,10.07c.12.15,0,.36-.15.48s-.33.23-.36.41c-.02.1.02.21.01.31-.01.11-.08.21-.15.3-.61.77-1.63,1.2-2.6,1.08-.05,0-.1-.01-.15-.04-.18-.09-.16-.36-.11-.55.14-.66.21-1.34.2-2.02,0-.28-.02-.56,0-.83.06-.58.33-1.16.79-1.51s1.13-.46,1.65-.19c.6.31.88,1,1.11,1.64.05.13.04.34-.09.34l-.16.59Z"/>
        <path class="cls-2" d="M43.17,3.39c.66-8.2,12.35,4.07,4.93,2.56-1-1.98-4.05-1.04-4.93-2.56Z"/>
      </g>
      <g id="Eye">
        <g id="eye">
          <path class="cls-14" d="M48.55,10.76c-.21-.05-.45-.1-.63.03-.08.06-.14.14-.17.24-.17.44.12.96.53,1.2s.92.25,1.39.22c.17,0,.36-.03.48-.15.16-.17.13-.46-.02-.64s-.37-.28-.58-.37c0,0-.55-.41-1-.53Z"/>
          <path d="M48.55,10.77c-.22-.05-.5-.08-.64.09-.14.17-.14.41-.08.6.25.86,1.53,1.06,2.25.79.35-.37-.17-.8-.54-.94-.3-.23-.63-.44-.99-.55h0ZM48.55,10.75c.36.09.73.32,1.02.5.22.09.46.17.63.38.62,1.01-.87.99-1.49.87-.49-.08-1-.45-1.09-.98-.05-.26.02-.55.22-.73.23-.18.5-.1.72-.04h0Z"/>
        </g>
        <path class="cls-20" d="M47.68,10.03c.86-.3,2.1-.42,2.88.22.27.2.5,1.1.2,1.11,0,0-.82-.32-.82-.32-.22-.08-.37-.3-.61-.43-.47-.25-1.04-.41-1.64-.48-.05,0-.06-.08-.01-.1h0Z"/>
        <g>
          <ellipse class="cls-58" cx="49.43" cy="11.88" rx=".53" ry=".41"/>
          <g>
            <ellipse class="cls-20" cx="49.62" cy="11.97" rx=".34" ry=".32"/>
            <path class="cls-14" d="M49.76,11.81c.07-.01.11.16.09.25,0,.02,0,.03-.02.05-.01.02-.03.02-.05.03-.06.02-.13.02-.19-.02s-.09-.11-.07-.17c0,0,.18.08.24-.15Z"/>
          </g>
        </g>
      </g>
      <g id="mouth">
        <path id="open" d="M50.69,17.02s.08-1.09.08-1.11-.62-.05-.69-.06-.64-.02-.72-.03-.27.01-.32.04-.2.13-.22.16-.06.19-.05.23.06.25.09.28.25.24.32.26.58.24.67.25.55.12.61.13.18.05.2.04.03-.19.03-.19Z"/>
        <g id="teeth">
          <path class="cls-14" d="M50.95,15.97c0,.12-.02.25-.05.32s-.02.06-.05.07-.6-.06-.83-.13-.87-.32-.89-.33-.01-.05,0-.06.14-.02.21-.01.48.05.55.05.46.05.54.05.5.05.5.05Z"/>
          <path class="cls-14" d="M50.86,17.03c.09.03.02-.3.02-.32s-.41.09-.54.08-1.04-.28-1.14-.29-.19.05-.19.05c0,0,.08.07.11.09s.43.25.51.27.52.1.59.1.62.02.63.02Z"/>
        </g>
        <path id="lips" class="cls-25" d="M51.05,15.72c0-.16-.13-.14-.26-.11s-.53.15-.73.17-.85-.08-.97,0-.41.28-.41.44.1.46.24.58.61.28.97.41.91.3,1,.24.48-.35.31-.53-.41-.12-.48-.1-.77.05-.94,0-.81-.36-.84-.44-.18-.2.03-.34.28-.14.41-.13.77.09.97.1.53.1.6.06.1-.14.1-.34Z"/>
      </g>
    </g>
    <g id="back-arm-assembly">
      <g id="back-arm">
        <g>
          <ellipse class="cls-45" cx="42.08" cy="32.77" rx="6.57" ry="7.9" transform="translate(-10.57 24.27) rotate(-28.74)"/>
          <path class="cls-45" d="M64.38,45.51c1.71,1.56,1.16,2.29.6,3.72s-2.94,1.61-2.94,1.61c0,0-7.56-1.79-8.91-2.61s-5.33-2.87-6.48-4.29-3.05-4.6-3.23-5.23-2.66-5.8-2.66-5.8l1.93-.98s4.83,1.48,5.95,2.13,3.76,3.6,4.37,4.65,11.37,6.81,11.37,6.81Z"/>
          <path class="cls-45" d="M45.27,41.75c.7.33,1.97.74,2.3.05s-.16-3.83-.94-4.08-1.85-.2-2.31-.8-1.37-3.22-1.81-3.56-1.42-.26-2.35-.51-2.21.29-2.55.88-1.08,1.61-.79,1.96,1.51,1.25,2.14,1.45,3.65,1.94,4.12,2.65,2.18,1.97,2.18,1.97Z"/>
          <path class="cls-45" d="M47.74,31.37c1.75.82,4.09,2.59,4.64,3.53s.91,2.31.93,3.32-.13,2.57-.4,2.94-1.09.4-1.55-.81-.96-3.69-1.98-4.42-2.09-2.54-3.05-2.86-1.54-1.46-1.24-1.61,2.65-.09,2.65-.09Z"/>
          <path class="cls-45" d="M55.62,50.31s-2.56-.48-3.7-.7-3.5-.08-4.21-.52-1.38-.85-2.3-1.91-2.85-3.3-3.42-3.88-1.19-1.75-.71-1.84,1.5.79,2.04,1.47,2.79,2.72,3.65,3,5.47,2.99,6.82,3.18,3.2.99,2.75,1.15-.92.05-.92.05Z"/>
          <path class="cls-45" d="M36.01,34.96c.12,1.37,5.99,8.4,9.03,10.44,3.04,2.03,6.34,4.72,10.25,4.95,3.91.23,7.73-.71,7.73-.71,0,0-3.46-1.03-5.32-1.73s-8.63-2.91-9.67-4.1-4.45-4.96-4.8-5.93-2.43-5.63-2.43-5.63l-4.77,2.71Z"/>
          <path class="cls-45" d="M45.52,43.59c1.18.08,1.33.38,1.28-.39s-1.53-2.11-2.12-2.76-2.01-2.47-2.88-2.75-2.21-.62-2.33.05.03.21.43,1,3.2,3.16,3.49,3.81.14,1.1.54,1.28,1.59-.24,1.59-.24Z"/>
          <path class="cls-45" d="M63.51,46.79s-5.95-3.05-6.84-3.59-2.48-1.82-2.75-1.9-2.79-.25-3.03.32-1.67,1.87-1.53,2.52,2.31,2.01,3.04,2.25,7.13,2.22,7.83,2.55,3.11,1.27,3.52.64.66-1.4.59-1.82-.84-.98-.84-.98Z"/>
        </g>
        <g>
          <ellipse class="cls-15" cx="42.08" cy="32.77" rx="6.57" ry="7.9" transform="translate(-10.57 24.27) rotate(-28.74)"/>
          <path class="cls-53" d="M64.38,45.51c1.71,1.56,1.16,2.29.6,3.72s-2.94,1.61-2.94,1.61c0,0-7.56-1.79-8.91-2.61s-5.33-2.87-6.48-4.29-3.05-4.6-3.23-5.23-2.66-5.8-2.66-5.8l1.93-.98s4.83,1.48,5.95,2.13,3.76,3.6,4.37,4.65,11.37,6.81,11.37,6.81Z"/>
          <path class="cls-13" d="M45.27,41.75c.7.33,1.97.74,2.3.05s-.16-3.83-.94-4.08-1.85-.2-2.31-.8-1.37-3.22-1.81-3.56-1.42-.26-2.35-.51-2.21.29-2.55.88-1.08,1.61-.79,1.96,1.51,1.25,2.14,1.45,3.65,1.94,4.12,2.65,2.18,1.97,2.18,1.97Z"/>
          <path class="cls-45" d="M47.74,31.37c1.75.82,4.09,2.59,4.64,3.53s.91,2.31.93,3.32-.13,2.57-.4,2.94-1.09.4-1.55-.81-.96-3.69-1.98-4.42-2.09-2.54-3.05-2.86-1.54-1.46-1.24-1.61,2.65-.09,2.65-.09Z"/>
          <path class="cls-32" d="M55.62,50.31s-2.56-.48-3.7-.7-3.5-.08-4.21-.52-1.38-.85-2.3-1.91-2.85-3.3-3.42-3.88-1.19-1.75-.71-1.84,1.5.79,2.04,1.47,2.79,2.72,3.65,3,5.47,2.99,6.82,3.18,3.2.99,2.75,1.15-.92.05-.92.05Z"/>
          <path class="cls-15" d="M36.01,34.96c.12,1.37,5.99,8.4,9.03,10.44,3.04,2.03,6.34,4.72,10.25,4.95,3.91.23,7.73-.71,7.73-.71,0,0-3.46-1.03-5.32-1.73s-8.63-2.91-9.67-4.1-4.45-4.96-4.8-5.93-2.43-5.63-2.43-5.63l-4.77,2.71Z"/>
          <path class="cls-36" d="M45.52,43.59c1.18.08,1.33.38,1.28-.39s-1.53-2.11-2.12-2.76-2.01-2.47-2.88-2.75-2.21-.62-2.33.05.03.21.43,1,3.2,3.16,3.49,3.81.14,1.1.54,1.28,1.59-.24,1.59-.24Z"/>
          <path class="cls-28" d="M63.51,46.79s-5.95-3.05-6.84-3.59-2.48-1.82-2.75-1.9-2.79-.25-3.03.32-1.67,1.87-1.53,2.52,2.31,2.01,3.04,2.25,7.13,2.22,7.83,2.55,3.11,1.27,3.52.64.66-1.4.59-1.82-.84-.98-.84-.98Z"/>
        </g>
      </g>
      <g id="back-glove">
        <path class="cls-41" d="M63.43,45.05s-.9,4-1.3,4.81-.44.93-.44.93c0,0,6.42,3.17,7.82,3.62s5.55,2.95,6.31,1.86-.32-2.32-.67-3.31-.6-1.67-1.63-2.01-4.22-.44-4.01-1.91-.28-3.05-2.08-3.5-4-.5-4-.5Z"/>
        <path class="cls-39" d="M74.28,48.25c1.48.62,2.95.02,2.53,1.3s-.57,2.57-1.64,2.35-2.85.08-4.34-.48-2.61-1.46-2.14-2.71.79-2.43,1.54-2.25,4.05,1.79,4.05,1.79Z"/>
      </g>
    </g>
    <g id="back-leg-assembly">
      <g id="back-shoe">
        <path class="cls-52" d="M21.8,118.72c.33-.62.85-1.66.64-1.95s-1.47-1.64-3.11-2.43c-1.64-.78-5.22-2.59-6.01-2.91s-1.43-.63-1.98-.75-1.29-.22-1.62.17-2.16,4.04-2.75,5.06-4.41,5.86-4.78,6.48-1.99,2.11-2.01,2.5.26,1.76,1.2,2.53,3.04,3.01,3.77,3.72,4.03,3.13,4.69,3.46,2.77.72,3.52,1.09,3.36,2.04,3.93,2.59,2.25,2.13,2.59,2.32.8.28,1.46-.23,2.13-1.94,2.61-2.62,1.08-1.44.86-2.18-.37-1.46-.96-1.99-4.1-3.47-4.5-4.3-1.14-3.14-.84-3.87,3.28-6.67,3.28-6.67Z"/>
        <path class="cls-22" d="M20.4,130.01c-.45-.77-.94-1.37-.79-2.22s.34-3.6.73-4.35,1.44-2.6,1.67-3.25.37-1.7.3-2.31-.44-1.89-1.26-2.14-2.73-1.3-3.34-1.22-1.52.06-2.69.93-3.1,4.59-3.42,5.55-.38,3.49.23,4.87c.6,1.38,3.12,3.94,4.29,5.07s3.8,2.33,4.69,2.59,1.35-.3,1.06-1.04-1.47-2.48-1.47-2.48Z"/>
        <path class="cls-34" d="M12.86,121.69c.51.3,1.03.66,2.16,1.35s2.46,1.44,3.22,2.04c.76.6,1.44,1.27,1.25,1.67-.73,1.5.5,3.21,1.53,3.93,1.03.73,1.89,1.56,2.31,2.16s1.46,2.27.8,2.96-2.06,2.07-2.5,2.11-.71.05-1.5-.38-.2-1.72-.69-2.53c-.49-.8-3.42-3.69-3.71-4.71s-1.63-4.03-2.12-4.57-2.24-1.96-2.11-2.57,1.36-1.48,1.36-1.48Z"/>
        <path class="cls-46" d="M10.76,126.77c-.19.48-1.73,3.38-1.01,4.15.73.77,2.42,2.73,3.55,3.42s1.46.65,2.59,1.75,2.97,2.39,3.24,2.66.69.89,1.2.64,1.97-1.42,1.83-1.9-2.43-1.55-2.99-2.15-8.42-8.58-8.42-8.58Z"/>
        <path class="cls-52" d="M11.2,119.82s2.1,1.96,2.83,2.66,1.66,3.46,2.25,4.43c.59.97,2.1,3.82,3.04,4.99s4.21,4.19,4.05,4.7-1.64,2.14-2.12,2.01-4.17-5.01-6.19-6.57-3.97-2.09-4.56-3.34c-.6-1.24-1.8-2.27-1.39-3.66s2.1-5.22,2.1-5.22Z"/>
        <path class="cls-17" d="M4.07,120.6c-.43.38-3.76,3.76-4.05,4.48s1.83,3.96,3.82,5.08,4.87,3.5,6.03,3.82c1.16.32,4.16,1.48,5.17,1.53s.33-2.07-.44-3.75-2.99-4.48-2.64-5.4,1.46-3.58,1.41-4.5-2.63-2.86-3.74-2.81-2.41-.53-3.19-.35-2.37,1.91-2.37,1.91Z"/>
      </g>
      <g id="back-leg">
        <path class="cls-26" d="M26.04,60.1c-.56-1.74.1-4.61,2.45-6.82,2.35-2.21,5.43-4.49,6.22-4.57s3.53,1.58,4.07,2.9,3.01,4.32,3.8,5.48,4.42,4.61,5.1,6.11,1.17,2.51.68,3.94-1.33,7.45-1.62,9.08-1.48,6.55-2.71,8.33c-1.23,1.78-2.82,4.95-3.67,6.34s-1.76,3.53-2.2,4.08-4.23,5.45-4.69,6.25-4.08,5.15-4.61,6.07-3.8,6.71-4.28,7.84-2.07,3.02-2.7,3.95-1.87,3.74-2,4.33-.11,2.6-.4,2.72-.31.28-.95-.25-4.61-2.58-5.56-2.74-5.35.96-6.24.77-3.8-.29-4.19-.98-1.29-1.33-.67-2.02,3.51-4.2,4.1-5.09,7.92-12.49,8.44-13.41,3.18-4.96,4.19-6.42,2.71-3.59,3.31-4.3,3.88-7.2,3.98-7.95.55-5.5.9-6.13,2.92-6.94,3.02-7.73-2.24-6.18-2.73-7.09-.28-.31-1.04-2.69Z"/>
        <path class="cls-26" d="M48.02,68.61c-.66,3.97-5.08,8.31-9.36,7.59-4.28-.71-11.83-.7-8.3-11.05,1.3-3.81,7.09-6.71,11.37-6s6.95,5.49,6.29,9.46Z"/>
        <path class="cls-18" d="M11.83,115.82c2.42,1.15,5.45.99,7.8-.43.45-.27.88-.59,1.31-.9.49-.36.98-.73,1.47-1.09.97-.72,2.01-1.53,2.33-2.68.22-.76.08-1.59-.27-2.29s-.89-1.28-1.48-1.78c-.66-.55-1.45-1.03-2.33-1-.72.02-1.39.38-2.03.73-.94.51-1.89,1.03-2.83,1.54-.29.16-.58.31-.84.52-.31.24-.57.54-.83.83-.57.65-1.13,1.29-1.7,1.94-.49.56-1,1.14-1.3,1.83s-.37,1.51,0,2.14l.69.66Z"/>
        <path class="cls-5" d="M29.55,87.1c-.9.02-1.87.1-2.62,1.11s-2.35,3.27-2.2,4.17,1.75,2.83,2.63,1.73,3.66-4.76,3.16-5.86-.97-1.16-.97-1.16Z"/>
        <path class="cls-44" d="M41.48,89.16c.13-.14,3.1-4.53,3.49-5.35s1.62-5.89,2.01-6.57.87-6.21.44-7.15-2.98-5.4-4.21-6.19-3.42-3.56-3.47-2.81.34,5.38-.46,6.41-4.37,10.88-4.56,11.7-2.55,6.92-3.24,7.71-3.98,2.82-3.76,3.42-.42,3.12,1.07,2.96,4.92-1.11,5.49-1.29,7.19-2.84,7.19-2.84Z"/>
        <path class="cls-47" d="M22.31,112.3c.9-1,3.78-4.34,4.54-5.2s2.72-5.09,3.71-6.13,3.93-5.39,5.25-7.04,4.81-3.68,3.36-4.8-2.84-1.54-4.35-1-5.06,3.04-7.32,3.45-2.98,1.78-5.47,4.23c-2.49,2.45-1.2,2.9-2.11,5.08s-3.16,3.14-3.91,4.61-3.26,4.7-3.35,5.82,2.55.39,3.83.1,5.81.87,5.81.87Z"/>
        <path class="cls-5" d="M22.7,119c-.06.14-3.57.61-5,2.16-1.43,1.55-4.84,1.91-6.67,2.15-1.82.25-5.35,1.17-5.97,1.02-.28-.06-.67.02-1.26-.28-.58-.29.28-1.38,1.16-1.75.44-.18,1.54-.3,2.67-.42,1.11-.1,2.23-.17,2.77-.26,1.08-.15,7.64-2.4,8.24-2.49.61-.08,1.54-1.45,1.22-1.61-.31-.17-3.44.4-5.23.95-1.46.44-2.82-.13-4.12-.55-.28-.09-.57-.17-.84-.24-1.56-.38.38-1.56,1.31-2.12.1-.07.25-.11.41-.15.27-.05.6-.07.97-.07,1.34.02,3.12.35,3.92.39,1.15.05,4.28-.92,4.94-1.68.44-.5,2.07-2.65,3.32-4.28.08-.11.17-.22.26-.34.53-.67.96-1.23,1.19-1.49.79-.89.96-2.66-.54-3.1-1.49-.45-1.16-2.38-.54-2.26.61.13,3.32.34,4.45-.56,1.14-.9,5.38-7.91,6.1-8.81.21-.24.81-1.13,1.61-2.29.46-.67.97-1.43,1.52-2.21,1.83-2.65,3.89-5.54,4.54-5.94,1.17-.74,1.94.27,1.85,1.05-.09.77-5.46,8.84-6.04,10.47-.59,1.63-3.74,4.5-4.6,5.4s-5.39,7.45-6,7.59c-.6.15-3.44,6.19-4.55,7.84-1.13,1.65-1.01,3.75-1.09,3.88Z"/>
        <path class="cls-47" d="M18.64,119.14c-.61.08-7.16,2.33-8.24,2.49-.54.09-1.67.16-2.77.26.66-.9,1.79-2.45,2.89-3.96,1.3.42,2.66.99,4.12.55,1.79-.54,4.92-1.12,5.23-.95.31.16-.62,1.53-1.22,1.61Z"/>
        <path class="cls-22" d="M3.8,124.05c-1.21.09-2.61-.66-2.63-1.34-.02-.67,7.4-11.81,8.06-12.57.66-.76,4.72-8.42,5.25-9.18.53-.75.97-2.05,1.82-2.3.84-.26,5.01-5.62,6.04-6.68s3.18-9.1,3.57-10.06c.11-.26.4-.76.79-1.35,1.02-1.57,2.6-3.75,2.6-3.75,0,0,1.58-2.28,2.54-3.59.39-.52.67-.88.73-.9.11-.04.64.85,1.17,1.97.51,1.03,1.01,2.25,1.2,3.1.37,1.75-4.79,8.41-5.99,9.38-.1.08-.23.22-.37.4-.3.39-.69.97-1.11,1.68-.6,1.02-1.28,2.28-1.91,3.51-.15.3-.3.6-.44.89-.78,1.61-1.41,3.05-1.61,3.71-.5,1.76-1.54,4.63-2.37,5.49s-4.5,3.58-5.8,5.05c-.27.31-.48.7-.65,1.15-.38.98-.57,2.21-.77,3.25-.15.75-.3,1.41-.52,1.83-.15.29-.53.87-1.03,1.59-.12.17-.26.35-.39.54-.45.62-.95,1.33-1.46,2.04-1.1,1.51-2.23,3.07-2.89,3.96-.23.34-.41.59-.5.72-.56.86-2.1,1.36-3.33,1.45Z"/>
        <path class="cls-26" d="M29.85,71.98c.1.1,4.29,2.87,5.81,3.07s6.68.52,7.52.33,3.33-1.04,3.1-2.8.8-6.14,1.06-6.76-3.85-5.04-5.23-6.1-5.87,3.19-5.87,3.19l-6.4,9.06Z"/>
        <path class="cls-9" d="M31.52,70.46s-2.76,4.72-3.08,5.47-1.92,4.27-1.89,5.69,1.1,6.58.77,6.99,3.41,1.49,3.41,1.49c0,0,4.46-6.01,4.47-7.06s2.86-10.21,2.48-10.51-6.17-2.09-6.17-2.09Z"/>
      </g>
    </g>
    <g id="front-leg-assembly">
      <g id="front-shoe">
        <path class="cls-11" d="M72.09,113.13c-.22-.28-.2-.64-.47-.96s-1.3-.5-2.29-.09-4.07,1.95-4.85,2.59-1.69,1.45-1.83,1.75.22,1.3.44,1.78,1.51,5.6,1.91,6.2,1.15,2.66,1.28,3.15,1.58,2.95,2.37,3.64,1,1.13,1.73,1.22,1.24-.11,1.89-.51,2.53-1.05,3.82-1.71,3.68-2.13,5.08-2.77c1.4-.64,4.83-3.16,5.44-3.51s.95-.61,1.08-1.14.17-1.5-.26-2.56-1.23-2.09-1.72-2.39-4.49.53-5.91.6-3.04.18-3.5-.21-2.04-1.44-2.63-2.38-1.59-2.7-1.59-2.7Z"/>
        <path class="cls-27" d="M63.81,121.42c.28.84,1.38,3.66,1.75,4.5s3.14,4.27,3.76,4.81,1.97,1.63,2.9,1.34c.93-.29,4.45-1.12,5.48-1.91s2.87-1.73,3.05-3.01-1.31-3.26-2.35-3.91-4.52.04-5.96-.55-3.84-3.86-4.34-4.64-4.76.5-4.72,1.13.42,2.23.42,2.23Z"/>
        <path class="cls-11" d="M75.4,128.24c-1.44.1-3.89,0-5,.38-1.1.39-2.99.17-3.34-.31s-.95-.89-.42-1.2,1.48-.15,2.19-.47,4.53-.53,5.28-.81,2.15-1.01,2.21-.1-.92,2.51-.92,2.51Z"/>
        <path class="cls-10" d="M83.41,117.69c.65.32,2.45.78,2.71,1.94s1.28,2.81.13,3.93c-1.15,1.12-6.31,4.32-8.62,4.93-2.31.61-3.34.81-3.11.17s.57-2.3-.42-2.82-3.59-.25-4.17-.85-.35-4.45.75-3.58,4.94,2.11,5.93,1.45c1-.66,6.8-5.17,6.8-5.17Z"/>
        <path class="cls-43" d="M71.99,112.72c.39.43,4.58,4.85,5.64,5.18s3.54.12,4.82-.37,3.16-.12,2.94,1.38-1.98,4.88-3.36,5.11-4.53,1.3-5.66.66-4.64-.41-5.86-.96-3.81-2.14-3.76-3.45.55-5.19.69-5.84,4.54-1.71,4.54-1.71Z"/>
      </g>
      <g id="front-leg">
        <path class="cls-54" d="M48.41,59.3c.04,5.8.74,12.01-5.06,15.41-3.02,1.78-3.55,2.25-5.03,2.16-1.36-.08-2.94-.74-7.74-3.61-1.58-.95-3.41-3.84-3.7-5.01-.58-2.14-.76-4.18.07-6.39.91-2.43,3.47-4.43,5.54-5.64,5.79-3.41,15.84-8.5,15.93,3.08Z"/>
        <path class="cls-54" d="M35.56,76.12c-.96-.75-3.48-2.61-4.26-3.38s-2.61-3.13-3.01-4.41-.73-2.08-.15-2.84,2.36-2.6,3.2-3.56,8.14-4.76,8.88-5.81,4.34-3.33,4.83-3.49,2.86.8,4,2.22,2.67,8.69,2.94,10.02.64,2.76,1.2,3.67,5.14,7.12,6.16,8.09,5.83,5.85,6.28,7.17,2.83,5.69,3.26,7.42,3.49,13.38,3.31,14.84.41,6.71.47,7.61.24,2.16-.51,3.11-1.51,2.41-2.1,3.08-4.43,3.58-4.93,4.32-.21.93-.83,1.09-1.36.14-1.5-.42-1.42-5.62-1.81-6.12-4.56-11.48-4.48-13.25.96-6.27.61-7.03-1.77-3.65-2.86-4.22-5.3-4.05-7.22-5.92-5.08-7.36-5.66-7.86-5.83-4.34-5.83-4.34Z"/>
        <path class="cls-39" d="M42.33,81.67c-.38-.29-3.16-2.3-3.6-2.67s-4.86-3.9-5.65-4.98-2.35-4.64-2.46-5.24.97-1.69.97-1.69l3.44-1.66s5.66,2.74,5.81,2.95-.3,8.3.23,9.05,3.13,3.45,3.07,3.57-1.81.67-1.81.67Z"/>
        <path class="cls-50" d="M64.25,123.25s1.53.48,2.49.06,3.34-2.76,3.9-3.79c.56-1.03.33-4.46.44-5.55s-2.78-16.23-2.71-17.28-.93-4.37-1.94-5.25-2.6-3.04-4.33-2.51-3.56,2.82-3.9,3.79-.37,9.84-.15,11.05,1.27,6.7,1.56,8.31,4.65,11.17,4.65,11.17Z"/>
        <path class="cls-24" d="M51.2,65.69s4.42,5.13,6.31,7.71,6.87,7.95,7.52,8.85,3.55,7,2.66,7.15-2.87-.89-4.17-2.11-4.48-4.67-5.68-6.31-3.99-7.46-5.2-8.69-4.02-4.52-3.85-5.39,2.41-1.2,2.41-1.2Z"/>
        <path class="cls-48" d="M56.19,94.62s-.09,6.61-.31,8.12-.26,5.45.34,6.99,2.77,6.15,3.28,7.6,2.44,6.62,2.54,6.79,1.8,1.14,2.01.9,3.27-2.48,3.65-2.83-2.19-1.57-2.93-2.56-3.16-5.89-3.19-7.02c-.03-1.13-1.62-9.8-1.62-11.24s1.34-4.93,1.04-6.04-1.28-4.17-2.94-4.69-3.33.32-3.54.56,1.68,3.41,1.68,3.41Z"/>
        <path class="cls-6" d="M55.93,95.99c-.48-1.01-.29-1.61-1.25-2.45s-3.58-2.11-4.88-3.24-6.73-7.14-7.82-8.61-4.05-6.33-4.93-7.36,1.31-4.7,2.08-5.3,3.74,3.09,4.8,4.02,10.39,10.51,11.2,12.31,4.41,9.02,4.24,9.8-3.43.82-3.43.82Z"/>
        <path class="cls-33" d="M39.55,72.04s4.97,4.59,7.47,7.36c2.5,2.77,7.25,10.23,7.86,11.09s2.57,1.91,4,2.31,7.02-1.16,7.02-1.16c0,0,.84-2.23.42-3.1s-3.77-6.26-4.51-7.07-5.91-7.02-6.56-8.01-5.09-5.63-5.99-6.33-4.36-1.6-5.96-.45-3.75,5.37-3.75,5.37Z"/>
        <path class="cls-54" d="M30.08,67.84s7.51-4.72,9.32-6.69c1.81-1.98,2.87-3.09,4-2.44s5.91,4.39,6.81,5.69,3.8,4.67,3.75,5.31-1.27,1.35-3.49.6c-2.22-.75-8.12,1.73-9.57,3s-2.25,3.55-3.8,2.7-3.38-1.76-4.04-2.94-2.98-5.23-2.98-5.23Z"/>
        <path class="cls-37" d="M73.07,113.92s-.49-4.49-.39-5.67-1.21-11.23-1.93-13.03c-.71-1.81-3.6-8.31-3.6-8.31,0,0-2.14,1.1-2.58,1.98s1.01,8.26,1.24,10.23c.22,1.98.83,8.86,1.27,10.09s1.54,5.32,1.41,6.15,4.02.63,4.02.63l.54-2.07Z"/>
        <path class="cls-54" d="M43.38,59.07c1.68,2.28.16,6.24-3.38,8.86-3.55,2.62-7.78,2.89-9.47.62-2.04-2.74-.16-6.24,3.38-8.86s7.79-2.9,9.47-.62Z"/>
      </g>
    </g>
    <g id="Body">
      <path class="cls-38" d="M32.68,19.44c.32.29,1.18.32,1.72.57s1.21,1.28,1.79,1.47,1.85.93,3.57,1.09,3.19.51,3.96.51,2.74.51,2.97.48,2.52.73,3.03,1.12,4.12,3.61,4.15,6.99-.19,5.39-.51,6.73-1.24,6.73-1.53,8.04-.73,3.93-.7,5.27.22,4.72.1,5.71-.03,3.45-.77,4.12-1.88,1.18-3.35,1.28-7.02.93-10.53.57-5.84-.48-7.63-1.5-2.2-1.66-2.43-1.79-.1-.99.03-2.07.48-3.61.16-4.5-1.34-12.86-1.28-14.04-.19-2.65-.45-3.03-1.69-3.29-1.69-4.24-.16-1.56.13-2.43.51-1.76,1.44-2.59,2.14-3.06,2.81-3.7,2.74-2.62,3.16-2.87,1.85-1.18,1.85-1.18Z"/>
      <path class="cls-40" d="M29.21,28.57c.27-2.04,3.64-3.18,5.44-3.78,1.14-.38,1.22-.28,3.12-.89,2.22-.71,2.33-.93,3.28-1.08.47-.07,2.5-.38,4.34.67.95.54,1.3,1.13,3.04,3.74,3.02,4.5,3.01,4.28,3.19,4.81,1.29,3.78-.44,8.47-1.85,8.6-1,.09-1.21-2.17-3.67-3.28-1.06-.48-1.2-.13-3.04-.59-3.13-.78-3.93-2.07-5.02-1.53-1.09.54-.59,1.99-1.88,3.1-1.5,1.3-4.24,1.11-4.83,0-.56-1.04,1.2-2.1.79-4-.29-1.32-1.26-1.43-2.29-3.7-.46-1.02-.69-1.53-.62-2.06Z"/>
      <path class="cls-19" d="M53.11,40.76c.35-1.99.71-3.97-.2-6.02-.56-1.26-1.65-2.66-2.35-2.45-.71.22-.39,1.92-.95,4.48-.83,3.81-2.37,3.83-2.99,7.19-.2,1.06-.8,4.29,1.05,6.6.33.41,1.58,1.97,2.75,1.67,1.26-.31,1.12-2.42,2.69-11.46Z"/>
      <path class="cls-38" d="M29.83,40.32c-2.22.26-4.2-3.32-4.67-4.17-.39-.71-.94-1.72-1.17-3.15-.5-3.12.92-5.67,1.74-7.15.89-1.6,2.72-4.31,5.91-5.87.24-.12.64-.46,1.23-.52,1.32-.12,2.84,1.03,3.23,2.31.57,1.87-1.66,2.69-2.66,6.03-1.14,3.8.95,5.44-.52,9.06-.28.68-1.32,3.25-3.1,3.45Z"/>
      <path class="cls-51" d="M25.26,35.61s-.19,9.02,0,10.23,1.49,6.75,1.67,7.51-.34,4.95.37,5.64,3.63,2.33,4.66,2.33,3.12.77,4.66.47.54-3.41.4-5.07-.95-12.33-.85-13.77.71-7.07-.06-8.08-4.27-1.82-6.51-2.02-4.08,1.3-4.34,2.76Z"/>
      <path class="cls-35" d="M50.98,50.95v6.8s-1.38,4.14-2.13,3.66-7.89.54-8.5.78-3.76.56-4.41-.58-1.09-2.93-1.03-4.09-.45-7.63-.58-9.38.05-5.71.31-6.79,2.05-2.5,4.28-2.7,8.2.03,9.17,0,3.8,1.21,3.42,2.12-.52,10.19-.52,10.19Z"/>
    </g>
    <g id="front-arm-assembly">
      <g id="front-arm">
        <path class="cls-4" d="M37.05,39.1c-2.86,1.28-8.63-.3-10.55-4.58s.26-9.5,3.12-10.78,7.23,1.01,9.14,5.29,1.14,8.79-1.72,10.07Z"/>
        <path class="cls-55" d="M17.93,52.62c-.03-.3,2.73-6.2,3.17-6.4s2.69-.21,2.82-.26,1.15-2.24,1.11-2.44-1.87-2.78-1.87-2.78c0,0-1.77-.78-2.07-.65s-2.75,2.65-2.93,2.83-1.34,4.64-1.31,4.94.1,5.04.1,5.04l.98-.28Z"/>
        <path class="cls-28" d="M12.75,36.48c-.05.6-.63,10.67-.49,12.86.14,2.19.03,5.23.03,5.23,0,0,4.04-.34,4.39-.5s1.48-1.14,1.48-1.14c0,0,.91-5.13,1.43-5.72s.93-3.77,1.09-4.47.18-5.11-.76-5.8-3.8-2.29-4.31-1.9-2.87,1.44-2.87,1.44Z"/>
        <path class="cls-32" d="M23.42,27.61c-.74.33-5.3,3.26-5.87,3.88s-4.28,2.86-4.59,3.68-1.23,2.18-1,3.39.27,4.7.53,4.59,1.75-.42,2.05-.92,1.65-4.04,2.54-5.23,3.09-4,3.95-5.12,3.2-2.58,3.83-3.39-1.44-.88-1.44-.88Z"/>
        <path class="cls-16" d="M34.44,41.46c-.17.08-2.07.88-2.93,1.31s-2.46,1.89-4.1,2.57-4.07,1.45-4.35,1.06-2.62-2.81-2.22-4.25,4.52-5.38,6.41-6.07,6.32-1.94,7.76-1.64,2.92,2.89,2.93,3.73-3.51,3.3-3.51,3.3Z"/>
        <path class="cls-13" d="M25.64,31.87c-.68.36-4.97,3.9-5.84,4.66s-1.74,1.62-2.85,1.01-1.71-1.12-.63-2.34,2.62-4,3.38-4.4,3.59-2.18,4.24-2.47,2.62-.59,2.68-.1-.99,3.64-.99,3.64Z"/>
        <path class="cls-36" d="M29.4,27.14c-1.12.34-4.21,1.2-5.51,1.94s-.61,2.16-1.22,3.38-2.56,2.56-2.92,3.67-.62,4.05.44,3.58,6.81-4.2,8.07-4.92,1.14-7.64,1.14-7.64Z"/>
        <path class="cls-45" d="M21.12,42.64c.8-.5,5.72-4.92,6.59-5.31s7.88-3.37,7.88-3.37c0,0-3.5-7.72-3.68-8.11s-3.1-1.55-3.44-1.24-1.87,1.21-1.21,2.69,2.21,5.99,1.26,6.57-5.54,2.74-6.18,3.76-3.11,3.12-3.02,3.92.32,2.01,1.8,1.08Z"/>
        <path class="cls-4" d="M29.56,23.76c-.96.43-2.39.75-3.79,1.49s-3.6,2.4-3.86,3.09,1.13,1.7,1.96,1.33,4.93.94,5.71-.25,1.73-4.34,1.33-5-1.34-.66-1.34-.66Z"/>
      </g>
      <g id="front-glove">
        <path class="cls-42" d="M12.83,51.67l6.12-1.38s2.12,5.56,1.31,6.49-2.96,2.76-3.78,3.12-.43-2.68-.5-3.69-3.15-4.54-3.15-4.54Z"/>
        <path class="cls-7" d="M14.05,51.4l-1.92.4s-.63,2.1-.83,2.29-.44,4.01-.44,4.01c0,0,4.2.71,4.57.68s1.4-1.08,1.4-1.08c0,0-.14-1.96-.26-2.23s-2.52-4.08-2.52-4.08Z"/>
        <path class="cls-3" d="M11.94,54.27s-1.49.74-2.17,1.18-1.51.92-1.35,2.14.73,3.35.87,3.74,1.57-.25,2.45-.39,2.67.03,3.49-.34,1.74-.64,1.97-1.23-.4-2.93-.84-3.29-4.41-1.8-4.41-1.8Z"/>
      </g>
    </g>
  </g>
</svg>