<?xml version="1.0" encoding="UTF-8"?>
<svg id="Player_Ideal" xmlns="http://www.w3.org/2000/svg" viewBox="0 0 85.51 149.38">
  <defs>
    <style>
      .cls-1 {
        fill: #0d1625;
      }

      .cls-2 {
        fill: #cb6848;
      }

      .cls-3 {
        fill: #172644;
      }

      .cls-4 {
        fill: #d9714d;
      }

      .cls-5 {
        fill: #1d2f56;
      }

      .cls-6 {
        fill: #74636b;
      }

      .cls-7 {
        fill: #edf0ed;
      }

      .cls-8 {
        fill: #885e42;
      }

      .cls-9 {
        fill: #6e724b;
      }

      .cls-10 {
        fill: #b0c5c8;
      }

      .cls-11 {
        fill: #272a33;
      }

      .cls-12 {
        fill: #2d3346;
      }

      .cls-13 {
        fill: #d1d3be;
      }

      .cls-14 {
        fill: #a35024;
      }

      .cls-15 {
        fill: #f0ce9f;
      }

      .cls-16 {
        fill: #c2c09f;
      }

      .cls-17 {
        fill: #1c2953;
      }

      .cls-18 {
        fill: #e5dfd0;
      }

      .cls-19 {
        fill: #433c3f;
      }

      .cls-20 {
        fill: #444962;
      }

      .cls-21 {
        fill: #c08f66;
      }

      .cls-22 {
        fill: #3f4d53;
      }

      .cls-23 {
        fill: #64433a;
      }

      .cls-24 {
        fill: #273556;
      }

      .cls-25 {
        fill: #748388;
      }

      .cls-26 {
        fill: #0a1a2c;
      }

      .cls-27 {
        fill: #c0be9f;
      }

      .cls-28 {
        fill: #f8cc9b;
      }

      .cls-29 {
        fill: #0e1827;
      }

      .cls-30 {
        fill: #2b363c;
      }

      .cls-31 {
        fill: #192745;
      }

      .cls-32 {
        fill: #4d4d4d;
      }

      .cls-33 {
        fill: #161d26;
      }

      .cls-34 {
        fill: #b8b59d;
      }

      .cls-35 {
        fill: #091823;
      }

      .cls-36 {
        fill: #3f2e29;
      }

      .cls-37 {
        fill: #fff;
      }

      .cls-38 {
        fill: #070e15;
      }

      .cls-39 {
        fill: #57595c;
      }

      .cls-40 {
        fill: #040d15;
      }

      .cls-41 {
        fill: #15213b;
      }

      .cls-42 {
        fill: #8e8f67;
      }

      .cls-43 {
        fill: #040e17;
      }

      .cls-44 {
        fill: #27314f;
      }

      .cls-45 {
        fill: #f8f8f6;
      }

      .cls-46 {
        fill: #7d4c4a;
      }

      .cls-47 {
        fill: #18274b;
      }

      .cls-48 {
        fill: #7c544d;
      }

      .cls-49 {
        fill: #f8d6a6;
      }

      .cls-50 {
        fill: #121720;
      }

      .cls-51 {
        fill: #6c757d;
      }

      .cls-52 {
        fill: #543e39;
      }

      .cls-53 {
        fill: #21100d;
      }

      .cls-54 {
        fill: #261911;
      }

      .cls-55 {
        fill: #07101c;
      }

      .cls-56 {
        fill: #424e54;
      }

      .cls-57 {
        fill: #090d1a;
      }

      .cls-58 {
        fill: #102131;
      }

      .cls-59 {
        fill: #45555b;
      }

      .cls-60 {
        fill: #dcddd2;
      }

      .cls-61 {
        fill: #141920;
      }

      .cls-62 {
        fill: #050507;
      }

      .cls-63 {
        fill: #47495e;
      }

      .cls-64 {
        fill: #d38269;
      }

      .cls-65 {
        fill: #efad81;
      }

      .cls-66 {
        fill: #404545;
      }

      .cls-67 {
        fill: #9e6340;
      }

      .cls-68 {
        fill: #eedca7;
      }

      .cls-69 {
        fill: #3b3f41;
      }

      .cls-70 {
        fill: #333;
      }

      .cls-71 {
        fill: #c28153;
      }

      .cls-72 {
        fill: #1c294e;
      }

      .cls-73 {
        fill: #d6d7c6;
      }

      .cls-74 {
        fill: #6b7c80;
      }

      .cls-75 {
        fill: #1c1511;
      }

      .cls-76 {
        fill: #e7e6e0;
      }

      .cls-77 {
        fill: #232a32;
      }

      .cls-78 {
        fill: #f89b71;
      }

      .cls-79 {
        fill: #a08c71;
      }

      .cls-80 {
        fill: #060b15;
      }

      .cls-81 {
        fill: #bc5c33;
      }

      .cls-82 {
        fill: #3d4863;
      }

      .cls-83 {
        fill: #0e1622;
      }

      .cls-84 {
        fill: #f8cc9f;
      }

      .cls-85 {
        fill: #433b3c;
      }

      .cls-86 {
        fill: #14263d;
      }

      .cls-87 {
        fill: #835451;
      }

      .cls-88 {
        fill: #c5c4af;
      }

      .cls-89 {
        fill: #081625;
      }

      .cls-90 {
        fill: #332e35;
      }

      .cls-91 {
        fill: #0a1c2f;
      }

      .cls-92 {
        fill: #996863;
      }

      .cls-93 {
        fill: #07111a;
      }

      .cls-94 {
        fill: #f39976;
      }

      .cls-95 {
        fill: #eaecec;
      }

      .cls-96 {
        fill: #a09d78;
      }

      .cls-97 {
        fill: #fdd19d;
      }

      .cls-98 {
        fill: #b88261;
      }

      .cls-99 {
        fill: #1a2127;
      }

      .cls-100 {
        fill: #3f464b;
      }

      .cls-101 {
        fill: #afc1c8;
      }

      .cls-102 {
        fill: #748389;
      }

      .cls-103 {
        fill: #17274a;
      }

      .cls-104 {
        fill: #eaeedc;
      }

      .cls-105 {
        fill: #ac5528;
      }

      .cls-106 {
        fill: #111a20;
      }

      .cls-107 {
        fill: #304162;
      }

      .cls-108 {
        fill: #a5a888;
      }

      .cls-109 {
        fill: #e9af80;
      }

      .cls-110 {
        fill: #1f2930;
      }

      .cls-111 {
        fill: #ca8a60;
      }

      .cls-112 {
        fill: #754c24;
      }

      .cls-113 {
        fill: #775f65;
      }
    </style>
  </defs>
  <g id="Player_Ideal_2">
    <g id="back-arm-assembly">
      <g id="back-arm">
        <path class="cls-78" d="M57.26,34.23c-.22-.93-.15-1.78-.49-2.25s-3.98-1.71-6.09-1.09-4.21,2.72-4.43,3.78-.6,2.35-.36,4.45.69,6.97,1.88,8.63,3.78,5.1,5.43,6.09,2.39,2.52,4.13,3.24,5.41,3.3,6.42,3.54,2.39.72,3.73.38,2.74-1.22,3.05-2,3.02-4.04,3.1-5.16,1.27-3.91,1.56-5.1.48-2.04.98-2.5-.32-2.11-.6-2.36-1.48-.95-2.2-1.29-2.54.64-2.97,1.48-1.98,2.91-2.53,3.4-2,2.04-3.17,3.35c-.99-.06-.42-.45-.56-1.31s-1.05-5.07-1.96-7.46-2.06-2.92-2.73-3.49-2.15-1.72-2.08-2.2-.11-2.11-.11-2.11Z"/>
        <path class="cls-2" d="M74.35,47.46c-.55,6.4-5.07,13.88-12.47,10.93-.89-.66-2.87.14-3.73-1.47-.45-.85.08-2.14.91-3.09-.79-4.36,2.85-4.55,4.37-.49,1.18-.42,3.53-5.02,3.53-5.02l2.78-3.65s3.04,2.03,4.61,2.79Z"/>
        <path class="cls-105" d="M76.03,48.41c-1.94,3.1-2.58,7.67-5.5,10.58-2.34,2.34-6.74.8-8.65-.6,6.63.73,9.89-5.45,12.47-10.93.58.28,2.33-.34,1.68.95Z"/>
        <path class="cls-15" d="M60.42,42.83c-.41.94-1.04,1.76-1.63,2.59-2.48-.25-4.96-3.14-4.48-5.67.14-1.03.14-2.06,0-3.08,1.32-.77.93-2.68,2.46-4.69.72,3.85,1.96,7.38,3.65,10.86Z"/>
        <path class="cls-4" d="M52.76,39.75c3.04,2.71,4.5,5.43,4.39,8.16-1.75-2.69.71,6.88-2.63,5.32-.46-.21-.75-.61-1.46-1.14-.96-1.52-1.06-3.58-.3-6.17-1.68,1.84-2.59.69-3.08-1.54-4.1-.49-3.92-1.91,0-3.08-2.03-3.77.02-4.12,3.08-1.54Z"/>
        <path class="cls-78" d="M58.79,45.42c-.49.7,0,2.08-.57,2.71-.64.86-.82.81-1.07-.22-.81-3.13-4.41-4.71-4.39-8.16.5.09,1.03-.03,1.54,0,1.03,2.25,3.21,3.6,4.48,5.67Z"/>
        <path class="cls-81" d="M67.87,48.74c-.64,2.21-2,8.14-4.44,4.61.85-2.07,1.97-4.45,4.44-4.61Z"/>
      </g>
      <g id="back-glove">
        <path class="cls-70" d="M69.98,44.24c-.14-.43-.47-2.68-.28-3.4s-.34-2.3.28-3.19,1.96-2.09,2.66-3.09.36-1.23.72-1.43.94-1.01,1.44-1.25.74-.37,1.38-.33c.92.06,2,.19,2.77.47s3.45,1.29,4.25,1.83c1.05.72,1.91,2.01,2.13,2.56s.23,2.93.1,3.77-.85,3.13-1.52,3.69-4.49,2.81-5.31,3.38-1.82.74-2.42.87-1.41-.03-2.61-.59-2.67-1.33-2.78-1.79-.81-1.5-.81-1.5Z"/>
        <path class="cls-32" d="M77.44,32.04l3.52,1.6c2.3.8,3.44,2.78,3.42,5.95l.18,1.56c-.39,1.93-.95,2.84-2.51,1.49l-7.71-4.31c-2.25-1.74-2.24-3.41.03-5.01.53-.14,2.53-1.5,3.08-1.28Z"/>
        <path class="cls-36" d="M75.57,37.05s5.83,1.88,6.47,5.59c.9,1.03-.18,2.23-3.23,3.59-.78.9-1.74,1.6-2.77,2.18-1.24,1.78-2.14,1.31-1.68-.95-2.88,3.69-4.77-2.79-4.77-2.79,0,0-.33-3.99,1.69-6.49.13-3.17,4.29-1.13,4.29-1.13Z"/>
        <path class="cls-36" d="M84.37,39.59c-1.13.94-2.53-1.2-3.11-2.12-.49-.78,1.18-2.56-.31-3.83.61.08,1.44.3,2.24.55,1.73.53,2.67,2.42,2.02,4.11-.2.53-.48.99-.85,1.29Z"/>
        <path class="cls-53" d="M78.81,46.23c-1.23-2.31,2.29-2.32,3.23-3.59.58-.78,1.68-1.09,2.51-1.49.18,1.6.41,3.39-.89,4.09-1.69.92-3.34.94-4.86.99Z"/>
        <path class="cls-53" d="M71.44,42.75c-.93.51-1.24.88-1.44.54s-.37-.81-.29-1.28-.33-4.43-.16-4.94.66-1.6.92-1.72,1.51.37,1.6,1.06.26,1.4.29,2.13.38,2.39,0,2.97-.93,1.24-.93,1.24Z"/>
        <path class="cls-51" d="M74.33,38.33l-.77-.04c.05.18.09.38.12.63.09.87.57.93,0,2.24-.58,1.31-1.69,1.63-2.24,1.85-.54.22-.44-.03,0-.77.45-.73.71-2.13.71-2.93,0-.35-.11-.73-.21-1.09l-.67-.03c-2.29-.05-1.63-2.06-.85-3.02,1.12-1.39,2.47-1.46,3.93-1.85.87.61.97,1.61,1.09,2.64.13,1.04.52,2.42-1.11,2.37Z"/>
      </g>
    </g>
    <g id="back-leg-assembly">
      <g id="back-shoe">
        <path class="cls-50" d="M48.67,144.19c.96.15,5.02-.21,7.65.19,2.64.4,12.07,2.25,13.42,2.38,1.35.13,6.33.26,7.92,0,1.6-.26,3.7-.41,3.77-1.67s-.13-2.46-.45-3.52-2.11-3.04-3.19-3.68-4.59-1.48-5.8-1.81-2.53-.48-3.63-.77-1.93-.23-2.06-1.25-.12-2.99-.7-4.02-5.35-1.44-8.23-1.36-6.37.47-7.72,1.23-1.8,1.28-1.8,2.3,0,4.4.13,5.23-.46,3.52-.42,4.41-.24,2.13,1.11,2.34Z"/>
        <path class="cls-25" d="M75.9,138.21c-1.1,0-2.29-.02-3.61.47-.98.36-1.3,1.66-1.02,2.85l-1.54.03c-.54-2.13-1.34-4.19-2.12-6.24,3.02.14,5.97.92,8.29,2.89Z"/>
        <path class="cls-110" d="M65.1,135.36c1.2,2.15,2.75,4.21,4.63,6.2.41-1.36.93-1.35,1.54-.03.83-2.44,6.69-2.3,7.6.23.76.89,1.26,2.33.47,2.89-1.13.8-2.47,1.67-3.53,1.52-3.44-1.5-7.2-1.05-10.71-.02-17.05-3.31-16.61.68-16.96-4.63.44-1.35.95-1.33,1.54,0,2.52,1.33,5.12,1.11,7.71,0-.62-1.3.3-3.67,1.93-4.54-1.32-.42-1.25-.87.13-1.34.4.03.8-.07,1.2-.08l4.46-.2Z"/>
        <g>
          <path class="cls-106" d="M59.32,136.99c1.81,1.85-.86,3.21-1.93,4.54-2.39,1.14-5.33,1.41-7.71,0h-1.54c-.06-.89.37-2.4.03-3.21l1.49-.06c4.17,1.35,6.24.9,6.19-1.35l3.47.08Z"/>
          <path class="cls-101" d="M75.9,138.21c.65.55,2.07.07,3.19.92.82.62,1.57,1.8-.22,2.63l-7.6-.23c-3.7-4.8-.08-5.17,4.63-3.32Z"/>
          <path class="cls-59" d="M67.61,135.32c4.52,1.51,5.23,3.59,2.12,6.24-1.49.03-3.42-.05-4.01-1.4-.71-1.65-.51-3.32-.62-4.8.83-.04,1.68-.08,2.51-.04Z"/>
          <path class="cls-99" d="M75.81,146.17c-3.48-.48-7.27.65-10.71-.02,2.44-2.65,8.3-2.6,10.71.02Z"/>
          <path class="cls-50" d="M62.05,143.24c-1.64,0-1.97-1.72-1.6-2.43.28-.53,1.79-.83,1.61-3.22,1.78-1.43,1.55,1,1.52,1.84-.05,1.21.56,3.81-1.53,3.81Z"/>
          <path class="cls-30" d="M57.39,141.53c-1.8,2.25-6.15,2.75-7.71,0h7.71Z"/>
        </g>
        <path class="cls-56" d="M55.85,136.9c.18.49.37,1.13,1.53,2.43-2.36,1.34-5.91,1.23-7.72-1.09,2.1-.29,4.15-.8,6.19-1.35Z"/>
      </g>
      <g id="back-leg">
        <path class="cls-55" d="M48.72,138.77c2.79.15,3.84.33,7.06-.22s9.94-.99,11.06-1.65,1.07-.48,1.04-2.27-1.24-7.26-1.7-10.77-2.32-15.39-2.75-18.2-.37-6.51-.65-9.83-1.16-7.39-2.19-9.06-3.42-6.22-4.59-8.16-5.17-5.6-6.92-7.5-2.97-3.47-4.35-4.51-3.31-2.49-5.97-2.13-6.1-1.06-9.59-.06-6.6-1.1-9.24,1.04-5.47,5.16-4.63,8.31,2.62,10.13,3.61,10.36,3.02,3.86,6.7,3.05,9.07-2.19,10.19-1.31,5.23,3.28,5.87,7.96,2.59,8.76,2.7,10.03,2.14,4.11,1.65,6.19.5,8.8.57,11.19.12,12.93.09,14.05.53,3.38,2.04,3.47Z"/>
        <path class="cls-38" d="M59.44,135.65l-.13,1.34c-.73,3.02-1.97,2.64-3.47-.08-.69,2.77-3.74,2.33-6.19,1.35-.36,1.36-.86,1.37-1.49.06-1.21-2.89.52-13.39-.25-19.86,5.38,2.32,2.67,11.19,4.23,16.58,2.24.95,5.08.46,7.3.61Z"/>
        <path class="cls-72" d="M49.26,76.76c-.49.28-1.03,1.2-1.13,1.75,2.17,0,2.78,1.09,1.55,2.88-.07.96.37,1.85,1,2.56-2.59-.3-4.19-2.23-5.88-4.06-1.02-1.11-2.54-1.89-3.26-3.29s-.21-3.05.62-4.39c1.86-5.02,8.68.41,7.1,4.56Z"/>
        <path class="cls-1" d="M45.05,67.51c2.89,1.89,8.52,6.8,4.21,9.25-.86-3.2-3.85-4.95-7.1-4.56-.44-1.61-1.5-3.15-3.28-3.15-1.32-.51-1.32-1.03,0-1.54,1.15-2.16,5.52-3.23,6.17,0Z"/>
        <path class="cls-43" d="M46.41,115.38c-1.16-3.42-1.74-7.01-1.19-10.62l1.82.26c.45,1.71,1.49,3.19,3.18,4.83-.24,2.52-1.9,4.42-3.81,5.53Z"/>
        <path class="cls-40" d="M65.08,115.57l-3.22-1.79c1.05-4.66-1.71-9.08-1.38-13.88,3.14-.95,4.14,12.19,4.6,15.67Z"/>
        <path class="cls-41" d="M66.84,128.93c1.7,3.84-5.23,2.23-6.36,4.89-1.67.51-4.25.33-4.54-1.74,2.67-3.03,5.19-4.03,7.57-3.02l3.33-.13Z"/>
        <path class="cls-23" d="M60.48,99.89l-4.55.03c.04-2.03,1.38-3.58,3.01-4.66,1.75.82,1.09,3.38,1.54,4.63Z"/>
        <path class="cls-48" d="M55.99,86.61c-1.28,1.85-4.14.79-6.11,1.2-.07-1.23-.77-2.55.8-3.86,2.16.25,3.66,1.51,5.3,2.67Z"/>
        <path class="cls-46" d="M49.68,81.39c-1.42.09-1.76-1.76-1.55-2.88,1.06-.45,2.37-.86,3.77-.28.84.35,1.77,2.04.09,3.06-.53.32-1.76,0-2.31.1Z"/>
        <path class="cls-91" d="M50.68,83.95c2.67,1.71,2.41,3-.8,3.86,4.02.84,5.98,8.09,6.04,12.11,1.46-2.59,4.07-3.36,4.55-.03,1.71,4.05,4.41,10.77,1.38,13.88,2.22,1.65,2.18,3.56-.83,3.08,1.12,3.02-4.57,7.19-6.71,4.51-3.67-1.07-5.89-5.11-3.09-8.45-.25-3.57-1.64-6.21-4.19-7.9-.15,3-1.35,2.82-1.82-.26.14-.93.75-2.35,1.38-3.06,1.4-3.92-1.23-9.49-7.87-16.73-.74-4.54,2.17-8.44,6.07-5.08,1.63-.21,3.59,1.14,5.88,4.06Z"/>
        <path class="cls-55" d="M42.16,72.2c2.69,2.34,3.56,4.9,2.64,7.68-.66.68-3.46,1.87-3.33,3.23.68,5.13,8.53,13.22,7.65,16.91-.26,1.09-1.9.97-2.52,1.67-.65-5.93-9.09-15.37-9.09-15.37l-3.61-2.18s-2.93-1.83.11-2.75c.29-2.88.3-5.61.03-8.18l1.77-1.07c.87-1.33,1.9-2.36,3.08-3.08,3.42-1.65,6.65.28,3.28,3.15Z"/>
        <path class="cls-89" d="M54.32,121.37c3.21.03,2.59,1.71-.02,3.2,4.49-.46,4.77,2.75,1.32,5,3.11-.3,3.21,1.12.31,2.51,1.96.35,3.48.93,4.54,1.74l.17,1.74c0,1.38-.41,1.36-1.2.08-2.68.78-5.69,1.12-9.02,1.02.04-6.51-.8-12.58-2.51-18.21-1.54-.67-1.06-1.77-1.5-3.08.62-3.55.83-7.01.63-10.36.8-.48.98-1.74,2.62-2.1-.19,3.74,1.23,5.71,4.85,5.96,1.07.07,2.33.31,2.81.91.39.48.3,1.63-.54,2.28-.45.35-1.11-.62-2.73-.85-2.12,3.13-1.22,7.08.27,10.14Z"/>
        <path class="cls-26" d="M65.08,115.57l1.76,13.37c.01,1.8-2.81,2.16-3.33.13l-2.13-.79c-2.26,2.3-4.18,2.73-5.75,1.3l-1.32-5c.4-1.43,1.66-2.43,3.76-3.02,2.57-1.43,3.56-3,2.96-4.69.34-1.01.6-2.05.83-3.08.76-2.56,1.83-1.96,3.22,1.79Z"/>
        <path class="cls-3" d="M38.89,69.05c-.27,2.04.75,4.3-.72,6.21-1.26-1.61-1.26-2.85-2.37-3.12v-3.08h3.08Z"/>
        <path class="cls-103" d="M63.51,129.06c-2.41,1.33-4.74,3.08-7.57,3.02-.12-.88-.05-1.54-.31-2.51,4.26-.37,5.38-4.36,7.77-8.91,3.03,2.94,1,5.92.12,8.4Z"/>
        <path class="cls-86" d="M54.31,124.57l.02-3.2c3.01.09,5.02-2.25,6.71-4.51.78.6,1.53,1.17,1.97,1.62,1.06,1.07-8.01,6.85-8.7,6.09Z"/>
        <path class="cls-44" d="M58.93,95.27c.69,2.57-.36,4.28-3.01,4.66-4.18-2.47-5.77-7.48-6.04-12.11.59-1.97,2.63-2.37,6.11-1.2,2.77,1.94,4.85,5.38,2.95,8.65Z"/>
      </g>
    </g>
    <g id="front-leg-assembly">
      <g id="front-shoe">
        <path class="cls-50" d="M10.85,149.22c-1.15,0-4.26.1-5.89.1s-4.74-.24-4.84-1.34-.24-2.44,0-4.26,1.53-3.83,2.11-5.03,2.11-3.11,2.59-4.45,1.15-3.11,2.01-3.16,3.4.14,4.69.53c1.29.38,4.69.62,5.55,1.48s1.29,1.24,1.1,2.44-1.1,2.87-.86,3.49.96,1.72,1.48,2.44,1.05,1.63,1.01,2.82.14,3.16-.38,3.78-.77,1.24-1.68,1.24-6.89-.1-6.89-.1Z"/>
        <path class="cls-100" d="M3.42,146.16c1.53.5,2.95,1.46,4.63,1.54,1.35.44,1.33.95,0,1.54-2.83,0-5.99.78-8.01-1.59-.05-1.23,2.45-1.8,3.38-1.49Z"/>
        <path class="cls-22" d="M18.84,146.16c.25.99-.17,3.9-1.54,3.08-4.16-.09-6.73-1.12-7.71-3.08h9.25Z"/>
        <path class="cls-74" d="M17.3,149.24h-9.25v-1.54c0-.86.69-1.54,1.54-1.54l7.71,3.08Z"/>
        <path class="cls-102" d="M6.5,143.07c2.64,1.31,7.68,1.25,10.79,0,.44-1.35.95-1.33,1.54,0-.16.91-.22,2.19,0,3.08-1.58,1.68-4.66,1.68-9.25,0,1.51,1.84.68,2.25-1.54,1.54-1.87,1.23-4.79.92-4.63-1.54.21-1.19-.76-3.17.73-4.6.8-.77,2.02.63,2.35,1.52Z"/>
        <path class="cls-62" d="M14.21,138.45l2.74-.7,1.38.03c-.46,1.53.8,3.65.51,5.29h-1.54c2.59-1.77-12.96-3.13-3.08-4.63Z"/>
        <path class="cls-10" d="M17.3,143.07c-1.24,3.2-5.92.92-9.25,1.58-2.14.55-4.24-.94-1.54-1.58h10.79Z"/>
      </g>
      <g id="front-leg">
        <path class="cls-50" d="M40.97,82.1c1.44-1.53,3.45-4.02,3.45-7.28s.57-7.56.57-8.52-3.06-5.07-5.17-5.36-15.03-.77-17.9-.19-4.6.96-6.13,1.91-3.06,4.21-3.06,5.46.1,4.21.57,5.94,1.53,4.79,2.11,7.28.57,8.52.57,10.53.29,8.04-.48,9.96-1.82,2.49-3.54,4.4-4.02,7.28-4.4,10.05-2.39,11.78-2.78,14.17-2.01,4.6-.77,5.65,4.12,1.82,6.89,2.87c2.78,1.05,5.84,1.34,6.51.96s2.39-6.51,3.16-7.95,2.97-11.01,3.73-11.87,3.73-5.17,4.4-6.51,2.97-5.84,3.35-7.56,2.49-3.54,2.11-6.22,1.69-6.41,2.07-7.63c1.21-3.83,3.29-8.55,4.72-10.09Z"/>
        <path class="cls-31" d="M23.46,67.51c1.07,2.93,3.43,4.63,6.17,3.08-.31-.75.72-1.27,3.08-1.54.45-1.01.97-.99,1.54,0,1.22,5.66.61,8.28-1.83,7.86-.98,2.02-3.03,2.52-6.16,1.51.19,2.6-.36,4.43-2.89,5.83,4.46,3.57,2.99,9.88.09,14.1,2.39,2.92,2.21,3.74-1.54,4.63.64,2.77-.45,3.33-3.08,3.08-.12,4.45-3.62,4.17-4.63,0-.01-.55,1.08-1.24,1.54-1.54l1.54-3.08c1.75-7.7,2.18-15.97,1.28-24.79-2.36.22-3.08-3.41-1.31-4.63l1.47-4.65c-1.38-.34-1.37-.82-.04-1.41.82-2.93,5.58-1.9,4.77,1.55Z"/>
        <path class="cls-35" d="M26.52,115.46l-2.52,9.89c-1.15,4.5-4.4,8.21-5.66,12.44-.33,1.35-.79,1.31-1.38-.03-.44-1.54-1.51-2.83-1.83-4.71,1.55-.58,3.66-1.34,3.21-3.04-.33-1.25-2.49-1.46-4.15-3.11,1-1.47,4.16.19,5.49-1.4,2.48-3.82,3.25-8.15,5.15-11.71,1.6-.49,2.17.07,1.71,1.68Z"/>
        <path class="cls-93" d="M17.18,64.21c2.77-1.14,3.6-.5,1.51,1.74-.14.43.11.96.04,1.41,2.18,1.86,1.17,4.39-1.47,4.65.38,1.52.73,3.17,1.31,4.63.83,8.83.41,17.09-1.28,24.79,0,1.25-.64,2.5-1.54,3.08-.37-8.85.62-17.92-.27-27.42-.43-4.55-2.78-9.24.54-12.66-.09-1.64.3-1.69,1.15-.22Z"/>
        <path class="cls-83" d="M9.59,119.94c-1.25-.49-1.58-1.85-1.54-3.08-.46-3.44,1.54-6.38,4.54-7.97-.8,3.69-1.74,7.49-3,11.05Z"/>
        <path class="cls-29" d="M26.52,115.46c-.47-.66-1.04-1.22-1.71-1.68.78-1.47,1.7-2.89,1.74-4.63l1.54-1.54,2.88-1.54c.3,3.78-2.51,6.59-4.45,9.39Z"/>
        <path class="cls-47" d="M26.55,109.15c2.54,1.4.83,4.35-1.74,4.63-1.17,7.98-3.79,15.98-7.86,23.97,1.09,2.89-1.16,3.17-2.74.7-2.01,1.57-8.43-1.86-8.97-3.56-.47-1.5,1.59-15.26,4.34-14.95-1.1-3.86.5-7.94,3-11.05.49-.26,1.21-.08,1.72-.29,4.25.28,8.33.46,12.24.55Z"/>
        <path class="cls-82" d="M25.01,98.35c.93-.8,2.48-.8,4.63,0,.03-2.31,2.49-2.26,3.08,0,2.16,2.75-1.99,4.66-1.75,7.71-.71,1.89-1.33,3.33-2.88,1.54-1.63.83-3.74,1.52-4.49-.28-2.51.18-4.08-2.68-1.68-4.34-.15-1.71.14-3.53,1.54-4.63.28-1.39.8-1.33,1.54,0Z"/>
        <path class="cls-63" d="M26.39,86.18c2.28-.52,5.59-1.01,6.33,1.38-.01.87.52,1.64,1.41,1.78l-1.21,2.82c-.94,1.64-3.06,2.68-6.37,3.12,1.35.44,1.33.95,0,1.54,1.62,1.2,1.11,1.71-1.54,1.54-.49.1-1.05-.07-1.54,0-.78-4.66-.63-9.41-.09-14.1,3.23-2.79,4.12-2.21,3.01,1.92Z"/>
        <path class="cls-24" d="M18.84,106.06l1.23-1.45c1.29,1.25,2.47,2.15,3.54,2.71l4.49.28c1.59,1.88.79,2.64-1.54,1.54-3.29-.53-7.84,5.47-11.88,2.63-.76-.54.96-1.94-.36-3.17-.47-.44-.08-1.9-.09-2.54h4.63Z"/>
        <path class="cls-6" d="M32.72,95.27c0,.83-.2,2.31,0,3.08h-3.08c-1.52.76-2.55.24-3.08-1.54v-1.54c2.95-1.66,5.01-1.66,6.17,0Z"/>
        <path class="cls-92" d="M32.72,95.27h-6.17c1.46-2.2,4.28-2.01,6.37-3.12-.38.9-.21,2.12-.21,3.12Z"/>
        <path class="cls-17" d="M17.3,101.44l.14-23c0-1.1.2-2.36,1.14-1.79,1.1,2.8,4.09,26.17-1.28,24.79Z"/>
        <path class="cls-80" d="M35.8,72.14c0,3.23.99,6.99-1.79,9.25-1.65-.42-1.7-3.01-1.58-4.48.05-.63,1.77-1.17,1.21-2-.26-.38-1.47-1.18-1.47-1.81-.01-1.57,2-2.51,2.09-4.06.45-1.01.97-.99,1.54,0,2.29.05,2.27,2.53,0,3.08Z"/>
        <path class="cls-107" d="M29.63,70.59c-.87,1.1-1.52,2.85-2.65,3.07-2.2.43-4.22-.31-3.62-2.34.39-1.31-.11-2.61.1-3.81h1.54c1.48.82,3.02,1.85,4.63,3.08Z"/>
        <path class="cls-12" d="M28.09,67.51c.64,1.92,2.97,1.54,4.63,1.54-.59,1.09-2.26,1.02-3.08,1.54-1.07.04-2.31.3-3.68-.14-1.01-.32-1.05-1.85-.94-2.94h3.08Z"/>
        <path class="cls-5" d="M17.27,72.02c-.41-1.63.42-3.47,1.47-4.65.72.8,1.79,1.34,2.45,1.76,1.33.83.98,2.92-.1,3.01-1.66.13-2.8-.11-3.81-.11Z"/>
        <path class="cls-47" d="M21.92,102.98c.26,1.55.75,3.06,1.68,4.34-.66,1.48-1.71,1.04-2.46.53-.88-.6-1.53-1.79-2.31-1.79-.15-1.81,1.36-3,3.08-3.08Z"/>
        <path class="cls-87" d="M29.63,98.35c-.05.88-.17,1.67-.28,2.23-.2.98-1.37,1.65-2.6.36-.38-.39.5-1.38.38-1.8-.28-.96-1.4-.94-2.13-.79-.21-1.06.61-1.54,1.54-1.54.62,0,1.3-.09,2.16.13.58.14,1.18.54.93,1.42Z"/>
        <path class="cls-52" d="M33.9,84.14c.07,1.26.28,2.91-1.18,3.42-2.24.19-4.68.27-6.33-1.38,1.6-2.51,4.88-1.89,7.51-2.04Z"/>
        <path class="cls-113" d="M30.76,80.58c.27,1.59-5.89,1.48-5.81-.54.14-3.27,5.37-2.02,5.81.54Z"/>
        <path class="cls-107" d="M33.37,81.27c0-2.68.96-9.45,1.6-10.09s3.45-1.47,3.57.7.77,6.96-.77,7.02-4.4,2.36-4.4,2.36Z"/>
        <path class="cls-31" d="M33.94,93.59c.89-1.4,1.34-5.74,2.87-8.94s3.77-4.66,3.77-6.19.51-8.55-.19-10.4-2.62-5.17-3-3.26.32,4.6.51,6.64-.51,6.06-.7,7.15-3.45,12.06-3.89,13.28-.86,3.16-.59,3.4,1.23-1.68,1.23-1.68Z"/>
        <path class="cls-20" d="M32.43,76.91c2.33-.1,1.96,2.53,1.58,4.48,0,.91-.16,1.84-.11,2.75-1.26,1.82-3.76,2.5-7.51,2.04-.84-.84-2.03-1.28-3.01-1.92-.25-2.69-.55-5.45.27-8.7,3.4-.97,6.16.24,8.78,1.36Z"/>
      </g>
    </g>
    <g id="Body">
      <path class="cls-88" d="M51.05,52.58c-.3.18-3.46-.59-3.42-1.5s-.27-1.49-.07-2.35.81-3.18,1.15-4.13.96-3.25,1.63-3.91,1.35-1.63,1.35-.91-1.04,2.56-.86,3.5-.31,4.64-.11,5.45.33,3.84.33,3.84Z"/>
      <path class="cls-34" d="M6.5,33.58c2.3,2.25.74,3.53-1.93,4.06-.42-.12-.9.01-1.34-.05-1.08-2.13-1.03-4.53-1.15-6.85-.57-2.04-.38-4.59,1.97-4.93l1.23.04c4.66-.31,5.61,6.42,1.22,7.71Z"/>
      <path class="cls-76" d="M26.37,18.67c-2.98-.23-8.5-.25-11.07,0s-8.52.9-10.14,2.01S-.21,24.17.33,25.23s1.87,5.95,1.86,6.81.46,5.09,1.04,5.56,3.11,1.15,3.2,1.1,2.84,8.46,3.8,9.94,3.62,10.06,3.72,11.9,1.07,2.8,2.07,3.9,4.32,3.5,5.58,4.07,1.81-.09,3.97,0,6.64.88,8.14.71,8.42-.74,9.84-.78,2.04.27,2.11-.94.33-2.78.39-4.63-.44-4.92-.04-6.25.68-4.66,1.6-5.55,1.21-4.4,1.44-5.89,1.23-2.99,1.77-4.04,2.81-5.99,3.42-7.51-.08-3.79-1.32-4.09-5.71-2.37-7.87-2.61l-2.16-.24s.42,2.16-.83,3.19-3.77,2.77-5.65,2.16-6.31-1.79-7.57-4.16-2.38-3.58-2.05-5.84.81-2.79.81-2.79l-1.24-.58Z"/>
      <path class="cls-13" d="M43.45,62.82c-.63,1.06-1.83,1.5-3.02,1.6-1.83.27-4.41-.42-6.17-1.54-.79-1.83.57-2.72,4.08-2.67l2.27-2.04c1.52,1.25,2.02,2.97,2.84,4.65Z"/>
      <path class="cls-76" d="M28.08,24.12c4.28.78,6.57,1.47,6.11,6.42,1.84,1.84,5.14.54,7.89,1.79,1.44.66,1.81,4.88,4.51,4.33,7.2.32,3.92,5.21-1.74,3.19-1.36,1.13-3.91,2.19-5.81,1.44-.18,3.3-2.99,4.43-4.79,1.4-2.29,2.28-7.69,2.76-9.25.14-3.53-.98-7.27-4.87-3.45-7.72l-3.29-1.51c-10.09,1.08-7.28-6.5-1.42-10.46-.85-2.3.17-2.67,1.99-.98-.98-2.72,4.42-2.91,5.78-.99,3.86-3.55,8.74-.12,3.46,2.95Z"/>
      <path class="cls-88" d="M45.05,67.51h-6.17c-2.71,1.35-7.65,1.15-10.79,0,.04,2.41-2.29,2.16-3.08,0-1.25-.43-1.23-.95,0-1.54.08-1.55.57-1.56,1.67-1.54,4.16.07,8.16.45,12.21,1.54-.62-1.3-.03-1.77,1.54-1.54-.63-2.2,1.3-3.26,3.02-1.6.73,1.49,2.12,2.74,1.6,4.69Z"/>
      <path class="cls-42" d="M25.18,59.8l-.12,1.75c-2.89-.18-4.96.27-6.22,1.33.89,1.45.34,1.89-1.66,1.33-.55-.1-.7-.25-1.15.22-.51-1.54-1.09-3.06-1.47-4.64,1.44-2.96,7.44-3.67,10.71-2.86,3.18.55,3.09,1.97-.09,2.86Z"/>
      <path class="cls-96" d="M20.31,35.08c3.67,4.01-.39,6.26-3.02,1.59-3.68-.36-7.26.54-10.79,1.54l-1.93-.56c-.49-1.67,1.33-2.99,1.93-4.06,4.4-2.31,9-1.81,13.81,1.49Z"/>
      <path class="cls-79" d="M35.8,53.63c2.7-.02,2.82,1.13,0,1.78.57.71.97,1.38.83,1.89-1,3.66-1.2-1.17-.65.9.13.47-1.56,1.09-3.06,1.39-4.24,2.53-6.64-2.65-1.66-4.38l1.45-3.12,3.08,1.54Z"/>
      <path class="cls-104" d="M26.55,18.15c-.79.91-1.46,1.91-1.93,3.02l-5.78.99c-2.76.09-3.59-.49-1.47-2.44l1.77-1.32c2.46.68,4.95-.3,7.42-.24Z"/>
      <path class="cls-45" d="M16.85,23.14c-3.6,3.13,9.94,3.01,4.67,7.9-1.38,1.28-3.61-2.28-6.34-1.77-1.05.19-1.54,2.87.21,2.74,4.09-.31,5.4.57,6.17,3.11-.3,1.35-.72,1.3-1.25-.04l-10.8.06c-1.63,0-3.13-.3-3.01-1.56-.37-2.48-.49-5.27-1.22-7.71-.32-1.06-.06-1.77,1.15-1.53,5.06-3.41,8.53-3.81,10.42-1.2Z"/>
      <path class="cls-60" d="M17.36,19.71c.45.84.94,1.65,1.47,2.44-.7.12-1.3.79-1.99.98-3.53-1.93-6.63,1.92-10.42,1.2,1.79-3.96,6.97-4.19,10.93-4.62Z"/>
      <path class="cls-77" d="M4.05,25.82c-.2,1.79-.52,3.71-1.97,4.93-.44-.99-1.72-2.06-1.75-3.34l2.15-4.47c.89-.27,1.48,1.98,1.57,2.88Z"/>
      <path class="cls-73" d="M23.46,62.88c2.66.67,4.15,1.18,1.54,3.08.19.38.04,1.11,0,1.54-.44,1.35-.95,1.33-1.54,0-1.21-1.36-3.02-1.69-4.77-1.55.4-1.19-.54-1.56-1.51-1.74-.59-1.16.95-1.33,1.66-1.33,0-2.22,3.65-1.74,4.63,0Z"/>
      <path class="cls-27" d="M31.27,55.21c-.29,1.68.28,3.35,1.66,4.38,4.58.27,3.03,1.26-.21,3.29h-1.54c-.03,2.31-2.49,2.26-3.08,0-2.59-.58-3.56-1.61-2.91-3.08.36-.95.16-1.9.09-2.86,1.92-.73,4.2-.55,6-1.73Z"/>
      <path class="cls-7" d="M28.09,62.88h3.08c4.09.04,6.66,1.07,7.71,3.08h-13.88l-1.54-3.08c.27-2.32,3.3-1.64,4.63,0Z"/>
      <path class="cls-13" d="M52.87,29.78s.84.05,1.6.57,2.54,1.11,2.78,1.87.2,1.89.16,2.56-2.6,3.4-2.94,3.91-1.83,4.12-2.26,5.91-.9,4.82-.9,5.46-1.11.75-.96,0-.24-8.12.81-10.42,1.87-5.22,1.61-6.8.1-3.06.1-3.06Z"/>
      <path class="cls-18" d="M40.61,58.17c-.26,1.44-.85,1.4-1.72.08-2.15,1.07-3.82-.61-3.08-2.84v-1.78c1.57-.24,3.3-.21,4.44.99.83.88-.27,2.97.37,3.56Z"/>
      <path class="cls-13" d="M25.26,56.94c-3.51,1.33-7.44.89-10.71,2.86-.25-1.01-.18-2.1-.36-3.12,4.68.98,10.74-4.05,11.07.26Z"/>
      <path class="cls-9" d="M38.58,67.14c.31-.01.62.07.89.22,0,0,3.51.48,2.99,1.15s-6.32.54-6.32.54h-.33l-1.15.65s-7.94.89-6.56-2.19l10.48-.37Z"/>
      <path class="cls-16" d="M34.26,62.88c2.09,0,5.16-.8,6.17,1.54-.47.55-.99,1.07-1.54,1.54l-7.71-3.08h1.54c.44-1.35.95-1.33,1.54,0Z"/>
      <path class="cls-108" d="M25.18,59.8c1.31.09,2.53,1.9,2.91,3.08h-9.25c-.2-.88-.33-3.19,1.24-2.81,2.38.58,3.78.91,5.09-.28Z"/>
      <path class="cls-95" d="M34.26,62.88h-1.54l.21-3.29c.96-2.46,4.02-2.72,5.96-1.34.58.02,1.15,0,1.72-.08-.33.58.16,2.18-.47,2.9-2.4.58-4.8-.04-5.88,1.81Z"/>
      <path class="cls-27" d="M38.89,58.26c-1.17,2.34-3.68.76-5.96,1.34,1.11-.99-.73-2.08.44-2.76l2.43-1.42c1.53.25,2.61,1.4,3.08,2.84Z"/>
    </g>
    <g id="front-arm-assembly">
      <g id="front-glove">
        <path class="cls-39" d="M39.05,41.29c1.29-.74,1.7-.23,1.35,1.36-.56,3.7-4.12,5.26-7.51,5.97-.44.09-.96-.2-1.38-.06-3.01-.19-3.13-1.43-.33-2.64-.33-1.44.7-2.51,3.08-3.23,1.58-.22,3.11-1.29,4.79-1.4Z"/>
        <path class="cls-69" d="M49.68,41.29v3.08c1.35.44,1.33.95,0,1.54-.2,1.45-1.23,1.97-3.08,1.54-1.72,1.86-2.55.48-2.92-1.76-.16-.97-.35-1.87-.16-2.87-2.2-2.31-1.22-3.23,1.54-1.54,2.97-2.01,4.51-2.01,4.63,0Z"/>
        <path class="cls-54" d="M53.07,52.09c-1.35.72-2.73,1.48-4.28,1.54-1.62.06-2.3-1.53-2.19-3.08.36-3.81,2.04-3.72,3.08,0,.42-3.2,1.45-4.75,3.08-4.63,1.35,1.85,1.75,4.28.3,6.17Z"/>
        <path class="cls-90" d="M46.6,47.46c2.31.03,2.26,2.49,0,3.08-1.12-.02-2.32-.46-2.76-1.2-.8-1.34.02-2.58-.17-3.65.92.67,1.9,1.26,2.92,1.76Z"/>
        <path class="cls-75" d="M49.68,45.92v4.63h-3.08v-3.08c-.1-.51-.32-2.62.72-2.93.62-.19,1.59,1.54,2.36,1.39Z"/>
        <path class="cls-66" d="M44.86,39.85l.2,1.44c-.99.12-1.37.65-1.54,1.54l-3.11-.18c-.41-.49-.86-.94-1.35-1.36.91-.06,1.6-2.01,2.8-2.15,1.05-.13,2.27-.59,3.01.71Z"/>
        <path class="cls-85" d="M52.76,45.92c-1.38,1.32-1.32,3.64-3.08,4.63-2.43.17-2.25-4.11,0-4.63v-1.54c1.25-.09,2.58.3,3.08,1.54Z"/>
        <path class="cls-39" d="M35.27,42.57c-.72.18-2.44.23-3.3.56s-1.6.53-2.33,1.11-1.14,2.1-1.13,2.94.71,2.37,1.32,2.56,3.08.09,4.21,0,3.57-1.29,4.48-1.1,3.34,1.48,4.49,2.15,2.45,1.72,3.24,2.11,3.01.81,3.79.29,2.42-1.21,2.82-2.64.83-3.19-.1-4.63-1.09-3.12-2.04-4.03-2.74-1.58-4.24-1.63-4.04-.19-4.85.33-2.94,1.24-3.77,1.39-2.6.59-2.6.59Z"/>
      </g>
      <g id="front-arm">
        <path class="cls-14" d="M21.92,33.77c-1.49-1.05-7.51-2.88-10.76-1.93s-5.04,3.04-5.59,4.9-.11-1.88,0-.63.24,1.84.61,2.6,1.63,5.11,1.32,5.97.27,4.25.91,5.39,1.28,3.26,2.17,3.45,2.21.51,4.01-.19,4.81-.52,6.33-.87,6.12-1.67,8.23-1.9,3.25-.17,4.02-.49,3.14-.86,3.24-1.73.61-3.34,0-3.96-1.37-1.76-2.15-1.67-4.74.71-5.75.59-4.34-.5-4.43-.45-.04-.47,0-1.32.16-1.6,0-2.56-.65-1.89-.83-2.86c-.16-.88.15-1.29-1.33-2.33Z"/>
        <path class="cls-14" d="M15.75,47.38c3.45,4.06-2.68,5.37-6.09,2.99-2.17-1.93-3.56-4.65-2.99-7.57l9.08,4.59Z"/>
        <path class="cls-84" d="M17.3,36.67c3.3,1.68,2.86,2.84,0,4.85-.26,1.76,1.11,2.65,4.09,2.67l.53,1.73c1.35.44,1.33.95,0,1.54.35,3.65-3.31,2.36-4.63,0-.5,1.32-1.02,1.28-1.54-.08-2.3,3.51-8.14-.85-9.08-4.59l-.17-4.59c-.02-3.05,8.01-2.75,10.79-1.54Z"/>
        <path class="cls-94" d="M20.38,52.09c-2.96.11-5.95,0-8.91.36l-1.81-2.08c1.12.19,2.25.37,3.79.24,1.36-.12,2.29-1.56,2.3-3.23l1.54.08c2.49.57,4.69,1.84,3.08,4.63Z"/>
        <path class="cls-49" d="M25.01,42.83c-.91,2.95-8.13,1.55-7.71-1.32-.96-1.49-1-3.37,0-4.85,1.11.11,3.19-.1,3.02-1.59l1.25.04c.85,2.79,4.34,4.5,3.45,7.72Z"/>
        <path class="cls-21" d="M34.26,42.69c-.46,1.53-1.52,2.79-3.08,3.23-.14,2.35-5.46,2.38-6.17,0-2.98-.87-3.02-2.23,0-3.08,3.05-.07,6.22.28,9.25-.14Z"/>
        <path class="cls-28" d="M25.01,45.92h6.17l.33,2.64c-2.17.69-4.55.28-6.74.64-2.51,1.48-3.79,1.15-2.85-1.74v-1.54c.09-2.24,2.56-2.2,3.08,0Z"/>
        <path class="cls-97" d="M21.92,47.46c1.05,0,1.91,1.32,2.85,1.74-1.44.39-2.71,2.83-4.39,2.89-1.62-1.09-2.93-2.63-3.08-4.63h4.63Z"/>
        <path class="cls-71" d="M25.01,42.83c-.27.97.18,2.09,0,3.08h-3.08c-2.11-1.33-4.4-1.44-7.81-1.74.6-1.86,2.09-2.04,3.19-2.66,1.82,2.08,5.15,1.38,7.71,1.32Z"/>
      </g>
    </g>
    <g id="Head">
      <g id="neck">
        <path class="cls-109" d="M28.28,19.28s.79-.91,1.72-1.46,2.76-1.86,3.22-2.09,1.8-1.09,2.45-.96,2.48.09,3.13.55,3.8,2.03,4.07,3.11.48,3.69.39,4.43.02,1.49-.3,2.25-1.39,2.78-2.53,2.71-4.71.37-6.39-.54-4.14-2.87-4.73-4.09-1.03-3.92-1.03-3.92Z"/>
        <path class="cls-109" d="M42.06,29.88c-1.84,2.38-7.64,2.64-11.37-.24s-4.54-7.64-2.7-10.03,6.35-1.98,10.08.89,5.83,6.99,3.99,9.37Z"/>
        <path class="cls-109" d="M37.52,16.63c-1.45-1.58-2.43.68-3.34,1.57-.48.68-5.93,4.97-5.55,8.43,7.67,3.03,11.44,2.88,9.82-6.5-.5-1.17-1.31-2.14-.94-3.49Z"/>
        <path class="cls-111" d="M38.4,16.35c-.43-.04-.83.18-1.2.4-.07.04-.13.08-.18.14-.06.07-.08.17-.1.26-.14.64-.28,1.3-.23,1.96.02.21.05.42.05.63,0,.23-.04.46-.05.69-.02.57.14,1.13.15,1.69,0,.32-.04.64.02.95.04.23.13.46.19.69.19.76-.02,1.55-.07,2.33,0,.1,0,.21.03.3.06.14.2.23.31.34.43.41.47,1.1.87,1.54.15.17.34.29.54.4.44.25.9.46,1.38.64.41.16.85.3,1.28.21.57-.11.99-.6,1.21-1.14s.25-1.12.3-1.7c.06-.65.14-1.3.25-1.94.05-.27.1-.55.09-.83-.04-.71-.51-1.34-1.11-1.71-.23-.14-.51-.27-.61-.52-.06-.15-.05-.32-.05-.48,0-.77-.26-1.52-.51-2.24-.15-.41-.29-.82-.54-1.19-.26-.38-.61-.69-1.03-.89l-.99-.56Z"/>
        <path class="cls-68" d="M31.96,17.03c-2.67,1.33-4.07,2.06-4.2,3.31-.08.76.36,1.33.43,1.42.8,1,2.47.91,3.49.55,1.42-.5,2.08-1.72,2.6-2.67.5-.92,1.42-3.03.75-3.6-.4-.34-1.3.1-3.07.99Z"/>
      </g>
      <g id="face">
        <path class="cls-98" d="M47.92,22.5c-.03.37.09,1.65,0,2.12s-.1,1.09-.62,1.11-1.9-.04-2.26-.32-6.7-4.93-7.3-5.35-4.68-2.31-5.48-3.22-2.05-2.29-2.17-3.6-.45-3.49-.06-4.89,2.2-4.3,3.18-4.82,4.23-1.57,6.34-1.12,3.97.41,6.39,2.08,5.15,4.63,5.86,5.81.67,1.92.51,2.57-.35,2.07-.65,2.89-.1,2.76-.3,3.16-.62.33-.78.09-.67-.42-1.01-.49c-.36-.07-.41.4-.53.7s-.39.8-.62.82-1.01-.23-1.46-.12-.84.33-.79.6.04.68.42.85,1.09.42,1.29.48.05.67.05.67Z"/>
        <path class="cls-65" d="M48.07,23.86c-.12-.98-.09-1.97.1-2.94.07-.36,1.77-1.77,1.65-2.12-.1-.29-1.56-.47-1.8-.65-.29-.22-1.04,0-1.59.01-1.15.02-2.01-.04-3.15.08-.43.05-.97.24-.95.68,0,.22.17.39.27.59.31.64-.11,1.39-.15,2.1,0,.11,0,.22.07.3.04.06.11.09.17.12.53.27,1.06.53,1.59.8.78.39,1.57.79,2.42.98.37.08.76.13,1.14.17"/>
        <path class="cls-67" d="M50.22,18.52c.7-.22,1.01-.88,1.21-1.49.42-1.26.68-2.57.77-3.89.02-.28,0-.62-.3-.77-.1-.05-.21-.07-.32-.08-1.1-.17-2.19-.34-3.29-.51-.59-.09-1.29-.15-1.65.22-.16.16-.21.38-.26.59-.35,1.51-.7,3.08-.22,4.61.08.25.19.51.43.68.19.13.43.19.66.24.79.18,1.59.37,2.38.55l.59-.15Z"/>
        <path class="cls-65" d="M39.42,18.15c.1-.46.09-.93.08-1.4,0-.22,0-.44-.07-.65-.04-.15-.11-.29-.13-.43-.02-.14,0-.28.02-.42.06-.35.14-.7.24-1.05.07-.23.15-.47.23-.7l.21-.6c.05-.15.12-.31.28-.39.15-.07.34-.05.51-.02.45.07.9.14,1.35.21.12.02.25.04.35.09.11.05.19.14.29.21.18.13.4.22.61.31.63.26,1.24.57,1.82.91.23.14.47.29.6.5.08.12.12.25.2.37.18.26.56.44.6.74.01.1-.01.19,0,.29,0,.2.13.39.14.59.02.33-.28.61-.63.75s-.73.19-1.09.3c-.3.09-.58.23-.9.27-.26.04-.53,0-.79,0-.51-.02-1.02.01-1.53.05-.35.03-.71.05-1.04.15-.36.11-.71.31-1.1.26l-.25-.36Z"/>
        <path class="cls-98" d="M42.5,16.17c-1.09-.31-2.28-.29-3.38.08-.36.12-.72.27-1.09.38-1.3.39-2.65.2-3.96-.05-.44-.08-.91-.19-1.17-.59-.26-.38-.24-.92-.15-1.4s.26-.95.27-1.44c0-.33-.07-.66-.09-.99-.02-.41.05-.82.11-1.23.13-.78.25-1.55.38-2.33.04-.22.07-.45.18-.64.15-.27.4-.43.64-.58.49-.31,1-.62,1.54-.73.19-.04.37-.05.56-.1.19-.05.38-.14.57-.2.48-.15.97-.15,1.46-.13,1.3.06,2.6.24,3.87.55.33.08.66.17.97.31.27.12.52.27.77.42.22.14.45.27.67.41.19.11.39.24.5.44.18.33.08.79-.12,1.12s-.49.59-.74.88c-.35.42-.62.93-.77,1.48-.06.22-.11.45-.2.66-.08.18-.2.34-.29.52-.42.75-.5,1.66-.56,2.54l.02.62Z"/>
        <path class="cls-8" d="M45.21,9.64c-1.78.79-3.31,2.28-4.13,4.03,1.84.49,3.87,1.2,5.55,1.69,2.24-2.05,2.81-6.6-1.43-5.72Z"/>
      </g>
      <g id="beard">
        <path class="cls-19" d="M49.88,18.3c-.84-.92-2.18-1.17-3.41-1.36-1.24-.2-2.49-.39-3.73-.59-.29-.05-.59-.09-.87,0-.63.19-.88.93-.98,1.58-.1.67-.46.18-.6-.78-.21-1.45-.81-3.12-2.23-3.47l-.43.46c-.6,2.17-1.18,4.59-.1,6.57.58,1.06,1.57,1.83,2.52,2.56,1.8,1.38,3.66,2.79,5.82,3.49.47.15.98.27,1.44.1.95-.34,1.12-1.59,1.13-2.59,0-.13,0-.26-.05-.38-.06-.14-.19-.24-.31-.33-1.01-.75-2.18-1.28-3.41-1.54-.56-.12-1.14-.21-1.69-.36.25-.03.49-.13.65-.33.13-.16.2-.36.27-.55.23-.67.46-1.34.7-2.02.02-.06.05-.13.09-.18.08-.08.22-.09.34-.09,1.48.03,2.96.38,4.29,1.02l.22-.08c.23.2.62-.02.68-.32s-.12-.59-.33-.81Z"/>
      </g>
      <g id="hair">
        <path class="cls-57" d="M38.2,12.81c.05.87-.06,1.22-.77,2.14s-1.13,2.53-2.75,3.45-3.11-.31-4.62.52-3.78.39-4.4-.64-1.41-1.68-.97-2.69.44-2.28,1.04-3.23.47-4.82.57-5.48,0-3.03.89-3.48,3.69-1.71,4.08-1.95,5.31-.95,6.3-.64,4.65.27,5.79.62,4.5,2.25,5.32,3.46,2.33,2.16,2.8,2.85,1.55,2,1.39,2.78-1,1.71-2.38,1.32-3.06-.11-4-1.03-1.8-1.59-2.82-1.16-4.11.62-4.32.51-1.18,1.79-1.13,2.66Z"/>
        <path class="cls-58" d="M44.82,2.47c-1.6-.84-1.3-1.5-2.94-1.62s-5.96-1.26-7.23-.7-2.68.44-3.55,1.71-.59,1.98.39,2.14,3.95,1.05,5.11,1.01,4.76.03,5.61-.06,3.1-.63,3.07-1.17-.46-1.31-.46-1.31Z"/>
        <path class="cls-33" d="M27.36,8.27l-.28-.7c-.13-.31-.25-.63-.28-.96-.02-.25.02-.5.07-.75.07-.41.14-.82.21-1.23.02-.11.04-.22.09-.31.06-.1.16-.18.24-.27.24-.24.39-.56.57-.85.39-.6.97-1.06,1.57-1.47.36-.25.75-.49,1.18-.56.32-.05.65-.01.97.03.81.1,1.64.21,2.37.57.23.11.46.26.62.45.23.28.34.63.44.98.12.42.24.84.37,1.25.02.06.04.13.01.19-.02.06-.08.1-.13.14-1.33.92-2.75,1.75-4.3,2.2-.69.2-1.43.33-2.03.73l-1.7.55Z"/>
        <path class="cls-57" d="M47.7,12.34c-.17-.27-.34-.55-.52-.81-.87-1.26-2.06-2.3-3.44-2.98-1.72-.85-3.65-1.14-5.56-1.35-.87-.1-1.75-.18-2.63-.24-.45-.03-.9-.06-1.34.04-.73.18-1.32.7-1.87,1.21-.4.37-.79.73-1.19,1.1-.49.45-1.01.92-1.64,1.12-.07.02-.14.04-.22.03-.22-.02-.35-.24-.44-.44-.28-.57-.55-1.15-.83-1.72-.27-.56-.53-1.24-.21-1.77.26-.42.8-.57,1.3-.59s1,.05,1.48-.1c.57-.18,1.01-.64,1.56-.87.54-.23,1.19-.24,1.63-.64.3-.27.43-.68.58-1.05.07-.18.17-.37.35-.43.28-.1.54.15.77.34.5.41,1.15.57,1.78.72.66.15,1.33.31,2.01.3.65,0,1.29-.17,1.94-.18,1.1-.01,2.18.43,3.08,1.06s1.66,1.46,2.37,2.3c-.24-.09-.53.01-.67.23-.17.27-.07.64.13.89s.48.41.75.59c.48.33.9.75,1.23,1.22.44.62.71,1.52.22,2.1-.16.07-.36,0-.45-.14l-.17.05Z"/>
        <path class="cls-58" d="M42.77,7.26c0-.44,1.82-.96,2.29-.89,1.35.18,2.71.37,4.06.55.87.12,1.78.26,2.47.77,1,.76,2.15,3.43,1.92,4.57-.03.15-.07.3-.17.41-.16.18-.43.23-.68.25-.61.06-1.22.02-1.84-.01-.82-.05-2.77-.27-3.59-.32-.4-.02-.62-1.19-1-1.29-1.09-.28-1.92-1.15-2.3-2.12s-1.16-1.93-1.16-1.93Z"/>
        <path class="cls-61" d="M29.63,10.67c.11.19-.07.41-.26.52s-.42.2-.48.41c-.04.11-.01.24-.04.35-.03.13-.13.23-.22.32-.83.77-2.08,1.07-3.17.77-.06-.02-.12-.03-.16-.07-.19-.14-.12-.43-.03-.65.28-.73.48-1.5.6-2.27.05-.32.08-.64.16-.95.17-.66.58-1.26,1.18-1.59s1.38-.32,1.92.08c.63.47.82,1.31.97,2.08.03.16-.01.39-.17.37l-.29.64Z"/>
        <path class="cls-11" d="M41.96,4.82c2.25-9.24,13.36,6.88,5.16,3.81-.79-2.45-4.44-1.92-5.16-3.81Z"/>
      </g>
      <g id="Eye">
        <g id="eye">
          <path class="cls-37" d="M46.76,14.26c-.23-.09-.5-.18-.73-.08-.1.05-.18.13-.24.22-.28.43-.04,1.01.39,1.32s1,.4,1.55.46c.2.02.42.03.58-.07.22-.14.23-.45.09-.66s-.37-.35-.6-.48c0,0-.55-.51-1.05-.7Z"/>
          <path d="M46.76,14.28c-1.44-.49-1.11,1.32-.02,1.58.47.15,1.98.61,1.62-.36-.12-.21-.35-.36-.57-.5-.3-.29-.64-.57-1.03-.72h0ZM46.77,14.25c.38.16.77.44,1.07.68.23.12.49.24.65.49.51,1.17-1.2.87-1.82.67-.51-.15-1.07-.58-1.1-1.2-.02-.3.14-.61.41-.74.29-.12.56,0,.8.1h0Z"/>
        </g>
        <path class="cls-57" d="M45.9,13.38c1.22-.28,3.91-.01,3.38,1.84-.02.04-.07.05-.1.03l-.86-.45c-.24-.11-.39-.37-.65-.54-.5-.34-1.12-.58-1.77-.77-.06-.01-.05-.1,0-.11h0Z"/>
        <g>
          <ellipse class="cls-112" cx="47.56" cy="15.56" rx=".42" ry=".61" transform="translate(26.79 61.09) rotate(-83.59)"/>
          <g>
            <ellipse class="cls-57" cx="47.77" cy="15.68" rx=".33" ry=".39" transform="translate(29.16 62.39) rotate(-86.45)"/>
            <path class="cls-37" d="M47.95,15.55c.08,0,.09.18.06.28,0,.02-.02.03-.03.04-.02.01-.04.02-.07.02-.08,0-.16,0-.21-.05s-.09-.12-.05-.18c0,0,.19.11.3-.11Z"/>
          </g>
        </g>
      </g>
      <g id="mouth">
        <path id="open" d="M48.07,21.62s.29-.98.29-1-.7-.14-.78-.16-.73-.11-.82-.13-.31-.03-.37,0-.26.09-.28.11-.11.16-.1.21.02.24.06.27.24.26.32.29.62.31.72.32.6.19.68.2.19.07.22.07.07-.17.07-.17Z"/>
        <g id="teeth">
          <path class="cls-37" d="M48.56,20.7c-.03.11-.07.23-.11.28s-.03.05-.06.06-.68-.15-.92-.24-.93-.42-.96-.43,0-.05.02-.06.16,0,.24.02.54.12.62.13.51.12.61.13.56.11.56.11Z"/>
          <path class="cls-37" d="M48.27,21.65c.1.04.08-.27.08-.29s-.48.02-.63,0-1.13-.41-1.24-.43-.23.02-.23.02c0,0,.08.07.11.1s.45.29.53.32.57.17.65.18.7.11.72.11Z"/>
        </g>
        <path id="lips" class="cls-64" d="M48.71,20.48c.02-.14-.12-.15-.27-.14s-.64.06-.87.05-.95-.2-1.11-.15-.52.19-.54.34.03.44.17.57.65.34,1.03.52.98.4,1.1.36.61-.25.45-.44-.45-.17-.53-.16-.88-.07-1.07-.14-.85-.44-.88-.52-.16-.21.1-.31.34-.09.5-.06.87.19,1.09.23.59.17.67.14.14-.12.17-.29Z"/>
      </g>
    </g>
  </g>
</svg>