<?xml version="1.0" encoding="UTF-8"?>
<svg id="Player_Ideal" xmlns="http://www.w3.org/2000/svg" viewBox="0 0 75.25 149.89">
  <defs>
    <style>
      .cls-1 {
        fill: #0d1625;
      }

      .cls-2 {
        fill: #cb6848;
      }

      .cls-3 {
        fill: #172644;
      }

      .cls-4 {
        fill: #d9714d;
      }

      .cls-5 {
        fill: #1d2f56;
      }

      .cls-6 {
        fill: #74636b;
      }

      .cls-7 {
        fill: #edf0ed;
      }

      .cls-8 {
        fill: #885e42;
      }

      .cls-9 {
        fill: #6e724b;
      }

      .cls-10 {
        fill: #b0c5c8;
      }

      .cls-11 {
        fill: #272a33;
      }

      .cls-12 {
        fill: #2d3346;
      }

      .cls-13 {
        fill: #d1d3be;
      }

      .cls-14 {
        fill: #a35024;
      }

      .cls-15 {
        fill: #f0ce9f;
      }

      .cls-16 {
        fill: #c2c09f;
      }

      .cls-17 {
        fill: #1c2953;
      }

      .cls-18 {
        fill: #e5dfd0;
      }

      .cls-19 {
        fill: #433c3f;
      }

      .cls-20 {
        fill: #444962;
      }

      .cls-21 {
        fill: #c08f66;
      }

      .cls-22 {
        fill: #3f4d53;
      }

      .cls-23 {
        fill: #64433a;
      }

      .cls-24 {
        fill: #273556;
      }

      .cls-25 {
        fill: #748388;
      }

      .cls-26 {
        fill: #0a1a2c;
      }

      .cls-27 {
        fill: #c0be9f;
      }

      .cls-28 {
        fill: #f8cc9b;
      }

      .cls-29 {
        fill: #0e1827;
      }

      .cls-30 {
        fill: #2b363c;
      }

      .cls-31 {
        fill: #192745;
      }

      .cls-32 {
        fill: #4d4d4d;
      }

      .cls-33 {
        fill: #161d26;
      }

      .cls-34 {
        fill: #b8b59d;
      }

      .cls-35 {
        fill: #091823;
      }

      .cls-36 {
        fill: #3f2e29;
      }

      .cls-37 {
        fill: #fff;
      }

      .cls-38 {
        fill: #070e15;
      }

      .cls-39 {
        fill: #57595c;
      }

      .cls-40 {
        fill: #040d15;
      }

      .cls-41 {
        fill: #15213b;
      }

      .cls-42 {
        fill: #8e8f67;
      }

      .cls-43 {
        fill: #040e17;
      }

      .cls-44 {
        fill: #27314f;
      }

      .cls-45 {
        fill: #f8f8f6;
      }

      .cls-46 {
        fill: #7d4c4a;
      }

      .cls-47 {
        fill: #18274b;
      }

      .cls-48 {
        fill: #7c544d;
      }

      .cls-49 {
        fill: #f8d6a6;
      }

      .cls-50 {
        fill: #121720;
      }

      .cls-51 {
        fill: #6c757d;
      }

      .cls-52 {
        fill: #543e39;
      }

      .cls-53 {
        fill: #21100d;
      }

      .cls-54 {
        fill: #261911;
      }

      .cls-55 {
        fill: #07101c;
      }

      .cls-56 {
        fill: #424e54;
      }

      .cls-57 {
        fill: #090d1a;
      }

      .cls-58 {
        fill: #102131;
      }

      .cls-59 {
        fill: #45555b;
      }

      .cls-60 {
        fill: #dcddd2;
      }

      .cls-61 {
        fill: #141920;
      }

      .cls-62 {
        fill: #050507;
      }

      .cls-63 {
        fill: #47495e;
      }

      .cls-64 {
        fill: #d38269;
      }

      .cls-65 {
        fill: #efad81;
      }

      .cls-66 {
        fill: #404545;
      }

      .cls-67 {
        fill: #9e6340;
      }

      .cls-68 {
        fill: #eedca7;
      }

      .cls-69 {
        fill: #3b3f41;
      }

      .cls-70 {
        fill: #333;
      }

      .cls-71 {
        fill: #c28153;
      }

      .cls-72 {
        fill: #1c294e;
      }

      .cls-73 {
        fill: #d6d7c6;
      }

      .cls-74 {
        fill: #6b7c80;
      }

      .cls-75 {
        fill: #1c1511;
      }

      .cls-76 {
        fill: #e7e6e0;
      }

      .cls-77 {
        fill: #232a32;
      }

      .cls-78 {
        fill: #f89b71;
      }

      .cls-79 {
        fill: #a08c71;
      }

      .cls-80 {
        fill: #060b15;
      }

      .cls-81 {
        fill: #bc5c33;
      }

      .cls-82 {
        fill: #3d4863;
      }

      .cls-83 {
        fill: #0e1622;
      }

      .cls-84 {
        fill: #f8cc9f;
      }

      .cls-85 {
        fill: #433b3c;
      }

      .cls-86 {
        fill: #14263d;
      }

      .cls-87 {
        fill: #835451;
      }

      .cls-88 {
        fill: #c5c4af;
      }

      .cls-89 {
        fill: #081625;
      }

      .cls-90 {
        fill: #332e35;
      }

      .cls-91 {
        fill: #0a1c2f;
      }

      .cls-92 {
        fill: #996863;
      }

      .cls-93 {
        fill: #07111a;
      }

      .cls-94 {
        fill: #f39976;
      }

      .cls-95 {
        fill: #eaecec;
      }

      .cls-96 {
        fill: #a09d78;
      }

      .cls-97 {
        fill: #fdd19d;
      }

      .cls-98 {
        fill: #b88261;
      }

      .cls-99 {
        fill: #1a2127;
      }

      .cls-100 {
        fill: #3f464b;
      }

      .cls-101 {
        fill: #afc1c8;
      }

      .cls-102 {
        fill: #748389;
      }

      .cls-103 {
        fill: #17274a;
      }

      .cls-104 {
        fill: #eaeedc;
      }

      .cls-105 {
        fill: #ac5528;
      }

      .cls-106 {
        fill: #111a20;
      }

      .cls-107 {
        fill: #304162;
      }

      .cls-108 {
        fill: #a5a888;
      }

      .cls-109 {
        fill: #e9af80;
      }

      .cls-110 {
        fill: #1f2930;
      }

      .cls-111 {
        fill: #ca8a60;
      }

      .cls-112 {
        fill: #754c24;
      }

      .cls-113 {
        fill: #775f65;
      }
    </style>
  </defs>
  <g id="Player_Ideal_3">
    <g id="back-arm-assembly">
      <g id="back-arm">
        <path class="cls-78" d="M51.58,35.51c.28-.92.76-1.61.7-2.19s-2.59-3.47-4.72-3.99-5.01.24-5.72,1.05-1.69,1.73-2.54,3.67-2.89,6.37-2.7,8.41.71,6.31,1.64,7.99.8,3.38,1.95,4.87,3.03,5.57,3.78,6.28,1.71,1.82,3.04,2.2,2.98.32,3.64-.2,4.64-1.98,5.27-2.91,3.05-2.75,3.91-3.62,1.44-1.52,2.1-1.67.78-1.98.67-2.35-.81-1.56-1.25-2.22-2.52-.72-3.31-.21-3.17,1.53-3.9,1.67-2.76.76-4.42,1.3c-.83-.55-.14-.6.17-1.41s1.63-4.91,2.04-7.44-.32-3.56-.61-4.39-.99-2.57-.69-2.95.97-1.88.97-1.88Z"/>
        <path class="cls-2" d="M59.73,55.54c-3.69,5.26-11.35,9.46-16.27,3.2-.44-1.02-2.55-1.32-2.49-3.14.03-.96,1.14-1.81,2.34-2.22,1.5-4.17,4.74-2.51,4.03,1.77,1.23.23,5.57-2.57,5.57-2.57l4.24-1.77s1.61,3.28,2.59,4.72Z"/>
        <path class="cls-105" d="M60.71,57.2c-3.24,1.7-6.07,5.34-10.07,6.4-3.2.85-6.23-2.69-7.18-4.86,5.37,3.96,11.29.25,16.27-3.2.36.53,2.18.88.98,1.66Z"/>
        <path class="cls-15" d="M49.99,44.55c-.82.61-1.78,1-2.7,1.42-2.02-1.46-2.72-5.2-1.04-7.16.64-.82,1.15-1.71,1.55-2.67,1.53-.01,2.15-1.85,4.48-2.82-1.3,3.7-2,7.37-2.29,11.23Z"/>
        <path class="cls-4" d="M44.92,38.04c1.27,3.87,1.17,6.96-.3,9.26-.17-3.21-2.83,6.31-4.94,3.28-.29-.41-.34-.9-.69-1.71-.07-1.8.87-3.63,2.83-5.49-2.38.75-2.59-.7-1.9-2.88-3.3-2.48-2.43-3.62,1.55-2.67.14-4.28,2.09-3.56,3.44.21Z"/>
        <path class="cls-78" d="M47.29,45.97c-.78.35-1.05,1.8-1.85,2.06-.99.42-1.12.28-.81-.73.87-3.12-1.45-6.28.3-9.26.39.33.91.49,1.33.77-.24,2.47.98,4.72,1.04,7.16Z"/>
        <path class="cls-81" d="M53.48,53.39c-1.66,1.59-5.81,6.04-6.15,1.76,1.78-1.36,3.93-2.86,6.15-1.76Z"/>
      </g>
      <g id="back-glove">
        <path class="cls-70" d="M57.56,50.55c.09-.45.94-2.56,1.46-3.09s.86-2.16,1.84-2.61,2.74-.82,3.85-1.34.93-.89,1.34-.88,1.32-.41,1.87-.36.83.05,1.36.41c.76.52,1.64,1.17,2.16,1.79s2.34,2.84,2.76,3.71c.55,1.15.65,2.7.56,3.28s-1.27,2.65-1.8,3.32-2.3,2.28-3.16,2.43-5.3.18-6.29.26-1.95-.28-2.53-.46-1.21-.73-1.96-1.82-1.64-2.49-1.51-2.94.05-1.71.05-1.71Z"/>
        <path class="cls-32" d="M70.13,43.74l2.24,3.15c1.59,1.85,1.58,4.13-.03,6.86l-.63,1.44c-1.3,1.48-2.25,1.98-2.92.02l-4.51-7.6c-1.07-2.64-.23-4.08,2.54-4.32.53.15,2.94-.03,3.31.44Z"/>
        <path class="cls-36" d="M66,47.14s4.1,4.55,2.79,8.08c.26,1.34-1.27,1.84-4.59,1.49-1.12.39-2.31.51-3.49.49-1.97.92-2.51.06-.98-1.66-4.35,1.75-2.73-4.81-2.73-4.81,0,0,1.71-3.62,4.72-4.76,1.71-2.67,4.28,1.18,4.28,1.18Z"/>
        <path class="cls-36" d="M72.34,53.75c-1.45.25-1.59-2.31-1.63-3.39-.03-.92,2.3-1.63,1.66-3.47.49.38,1.1.98,1.66,1.6,1.23,1.33,1.1,3.43-.31,4.57-.44.35-.91.62-1.38.69Z"/>
        <path class="cls-53" d="M64.2,56.71c.09-2.61,3.15-.86,4.59-1.49.89-.38,2-.1,2.92-.02-.65,1.48-1.35,3.13-2.82,3.09-1.93-.05-3.36-.86-4.7-1.58Z"/>
        <path class="cls-53" d="M59.57,50c-1.06-.02-1.52.14-1.51-.26s.09-.89.39-1.25,1.93-4,2.34-4.35,1.37-1.05,1.66-1.03,1.12,1.07.85,1.72-.48,1.34-.82,1.99-.87,2.26-1.49,2.57-1.42.61-1.42.61Z"/>
        <path class="cls-51" d="M64.29,47.62l-.65-.42c-.05.18-.11.37-.21.61-.36.8.03,1.09-1.12,1.94-1.16.84-2.28.56-2.87.48-.58-.08-.37-.25.39-.67.76-.41,1.68-1.49,2.08-2.18.18-.3.27-.69.36-1.05l-.56-.36c-1.96-1.19-.38-2.6.78-3.04,1.67-.64,2.87-.02,4.33.37.45.96.03,1.88-.38,2.83-.41.96-.76,2.35-2.15,1.49Z"/>
      </g>
    </g>
    <g id="back-leg-assembly">
      <g id="back-shoe">
        <path class="cls-50" d="M42.48,144.69c.96.15,5.02-.21,7.65.19,2.64.4,12.07,2.25,13.42,2.38,1.35.13,6.33.26,7.92,0,1.6-.26,3.7-.41,3.77-1.67s-.13-2.46-.45-3.52-2.11-3.04-3.19-3.68-4.59-1.48-5.8-1.81-2.53-.48-3.63-.77-1.93-.23-2.06-1.25-.12-2.99-.7-4.02-5.35-1.44-8.23-1.36-6.37.47-7.72,1.23-1.8,1.28-1.8,2.3,0,4.4.13,5.23-.46,3.52-.42,4.41-.24,2.13,1.11,2.34Z"/>
        <path class="cls-25" d="M69.7,138.71c-1.1,0-2.29-.02-3.61.47-.98.36-1.3,1.66-1.02,2.85l-1.54.03c-.54-2.13-1.34-4.19-2.12-6.24,3.02.14,5.97.92,8.29,2.89Z"/>
        <path class="cls-110" d="M58.9,135.86c1.2,2.15,2.75,4.21,4.63,6.2.41-1.36.93-1.35,1.54-.03.83-2.44,6.69-2.3,7.6.23.76.89,1.26,2.33.47,2.89-1.13.8-2.47,1.67-3.53,1.52-3.44-1.5-7.2-1.05-10.71-.02-17.05-3.31-16.61.68-16.96-4.63.44-1.35.95-1.33,1.54,0,2.52,1.33,5.12,1.11,7.71,0-.62-1.3.3-3.67,1.93-4.54-1.32-.42-1.25-.87.13-1.34.4.03.8-.07,1.2-.08l4.46-.2Z"/>
        <g>
          <path class="cls-106" d="M53.12,137.49c1.81,1.85-.86,3.21-1.93,4.54-2.39,1.14-5.33,1.41-7.71,0h-1.54c-.06-.89.37-2.4.03-3.21l1.49-.06c4.17,1.35,6.24.9,6.19-1.35l3.47.08Z"/>
          <path class="cls-101" d="M69.7,138.71c.65.55,2.07.07,3.19.92.82.62,1.57,1.8-.22,2.63l-7.6-.23c-3.7-4.8-.08-5.17,4.63-3.32Z"/>
          <path class="cls-59" d="M61.41,135.82c4.52,1.51,5.23,3.59,2.12,6.24-1.49.03-3.42-.05-4.01-1.4-.71-1.65-.51-3.32-.62-4.8.83-.04,1.68-.08,2.51-.04Z"/>
          <path class="cls-99" d="M69.61,146.68c-3.48-.48-7.27.65-10.71-.02,2.44-2.65,8.3-2.6,10.71.02Z"/>
          <path class="cls-50" d="M55.85,143.74c-1.64,0-1.97-1.72-1.6-2.43.28-.53,1.79-.83,1.61-3.22,1.78-1.43,1.55,1,1.52,1.84-.05,1.21.56,3.81-1.53,3.81Z"/>
          <path class="cls-30" d="M51.19,142.03c-1.8,2.25-6.15,2.75-7.71,0h7.71Z"/>
        </g>
        <path class="cls-56" d="M49.65,137.41c.18.49.37,1.13,1.53,2.43-2.36,1.34-5.91,1.23-7.72-1.09,2.1-.29,4.15-.8,6.19-1.35Z"/>
      </g>
      <g id="back-leg">
        <path class="cls-55" d="M42.72,138.75c2.53.26,3.48.46,6.45.14,2.97-.32,9.13-.4,10.21-.91s1.02-.37,1.13-1.93-.55-6.48-.7-9.66-.93-14.36-1.11-17.06.18-6.31.19-9.59-.51-7.44-1.39-9.19-2.89-6.56-3.91-8.64-4.79-6.17-6.43-8.29-2.79-3.89-4.13-5.09-3.24-2.9-5.99-2.64-6.21-1.49-9.83-.57c-3.6.92-6.74-1.56-9.49.66s-5.64,5.31-4.82,8.73,2.5,10.75,3.48,11.03,2.91,4.1,6.57,3.46,9.04-1.77,10.12-.82,5,3.6,5.4,8.32,2.05,8.72,2.09,9.96,1.83,4.04,1.24,5.99,0,8.22-.07,10.42-.57,11.58-.66,12.55.31,2.97,1.68,3.11Z"/>
        <path class="cls-38" d="M52.7,136.53l-.21,1.16c-.87,2.58-1.97,2.2-3.16-.24-.81,2.37-3.55,1.85-5.73.88-.41,1.16-.86,1.14-1.36-.01-.95-2.57,1.22-11.81.86-17.75,4.9,2.39,1.85,10.25,2.96,15.08,1.99.93,4.62.64,6.65.87Z"/>
        <path class="cls-72" d="M46.97,79.62c-.51.27-1.11,1.21-1.25,1.78,2.17.12,2.71,1.28,1.36,3.08-.13.99.24,1.93.82,2.69-2.55-.44-4.02-2.51-5.6-4.5-.96-1.21-2.43-2.1-3.08-3.62s-.04-3.24.87-4.62c2.18-5.31,8.76.89,6.87,5.2Z"/>
        <path class="cls-1" d="M43.31,69.52c2.82,2.19,8.18,7.74,3.66,10.11-.65-3.42-3.57-5.45-6.87-5.2-.36-1.75-1.35-3.46-3.16-3.55-1.32-.62-1.29-1.18.08-1.67,1.29-2.29,5.83-3.23,6.29.32Z"/>
        <path class="cls-43" d="M41.85,117.66c-.91-3.25-1.27-6.67-.55-10.1l1.73.34c.33,1.66,1.24,3.12,2.75,4.76-.38,2.36-2.06,4.06-3.93,5Z"/>
        <path class="cls-40" d="M59.46,118.74l-2.9-1.82c1.37-4.33-.92-8.67-.23-13.3,3.12-.77,2.98,11.86,3.13,15.13Z"/>
        <path class="cls-41" d="M60.01,130.97c1.25,3.47-5,1.73-6.23,4.02-1.56.37-3.92.09-4.05-1.74,2.66-2.56,5.07-3.33,7.2-2.32l3.09.05Z"/>
        <path class="cls-23" d="M56.33,103.62l-4.41-.19c.19-1.98,1.6-3.44,3.27-4.43,1.64.9.79,3.38,1.13,4.62Z"/>
        <path class="cls-48" d="M52.97,90.16c-1.4,1.81-4.14.59-6.11.91,0-1.25-.6-2.63,1.05-3.9,2.12.36,3.52,1.74,5.06,3Z"/>
        <path class="cls-46" d="M47.08,84.48c-1.42.02-1.64-1.92-1.36-3.08,1.09-.41,2.43-.78,3.8-.1.81.4,1.62,2.22-.13,3.2-.55.31-1.75-.09-2.31-.02Z"/>
        <path class="cls-91" d="M47.91,87.17c2.53,1.89,2.18,3.19-1.05,3.9,3.9,1.06,5.3,8.4,5.07,12.35,1.61-2.46,4.2-3.09,4.41.19,1.32,4.01,3.35,10.53.23,13.3,1.96,1.65,1.78,3.4-1.02,2.82.82,2.83-4.8,6.35-6.61,3.82-3.36-1.16-5.22-4.98-2.37-7.96-.01-3.38-1.18-5.95-3.52-7.69-.31,2.86-1.45,2.63-1.73-.34.19-.89.85-2.23,1.5-2.89,1.58-3.76-.65-9.42-6.81-17.07-.52-4.72,2.59-8.66,6.31-4.94,1.65-.14,3.52,1.37,5.6,4.5Z"/>
        <path class="cls-55" d="M40.1,74.42c2.58,2.63,3.31,5.38,2.21,8.24-.7.67-3.56,1.76-3.5,3.18.4,5.28,7.62,13.77,6.53,17.34-.32,1.05-1.89.85-2.54,1.5-.29-5.84-8.08-15.75-8.08-15.75l-3.49-2.41s-2.84-2.04.22-2.84c.41-2.99.53-5.86.36-8.6l1.83-1.05c.95-1.38,2.04-2.43,3.28-3.15,3.58-1.6,6.75.65,3.16,3.55Z"/>
        <path class="cls-89" d="M48.93,123.56c3,.18,2.3,1.68-.22,2.9,4.21-.2,4.24,2.7.9,4.54,2.89-.12,2.89,1.15.12,2.24,1.78.4,3.13.98,4.05,1.74l.03,1.53c-.09,1.21-.47,1.16-1.1.02-2.51.55-5.28.71-8.31.47.41-5.72-.01-11.2-1.29-16.42-1.41-.69-.89-1.68-1.24-2.92.79-3.29,1.18-6.54,1.18-9.76.79-.42,1.04-1.63,2.65-1.89-.41,3.58.82,5.53,4.26,5.94,1.01.12,2.2.41,2.62,1,.33.47.16,1.55-.68,2.12-.45.31-1.01-.64-2.53-.93-2.21,2.82-1.62,6.53-.41,9.41Z"/>
        <path class="cls-26" d="M59.46,118.74l.55,12.23c-.14,1.6-2.76,1.78-3.09-.05l-1.91-.81c-2.26,1.94-4.06,2.23-5.41.88l-.9-4.54c.47-1.27,1.71-2.13,3.72-2.56,2.51-1.18,3.56-2.57,3.12-4.16.4-.92.72-1.87,1.02-2.82.92-2.36,1.89-1.75,2.9,1.82Z"/>
        <path class="cls-3" d="M36.94,70.87c-.37,2.19.54,4.65-1.04,6.6-1.19-1.77-1.14-3.1-2.24-3.45l.14-3.32,3.14.16Z"/>
        <path class="cls-103" d="M56.92,130.93c-2.32,1.07-4.6,2.5-7.2,2.32-.05-.78.05-1.36-.12-2.24,3.96-.13,5.29-3.65,7.87-7.66,2.59,2.82.47,5.4-.54,7.58Z"/>
        <path class="cls-86" d="M48.71,126.46l.22-2.9c2.81.22,4.86-1.82,6.61-3.82.69.59,1.35,1.15,1.73,1.59.91,1.03-7.98,5.85-8.57,5.13Z"/>
        <path class="cls-44" d="M55.2,99c.47,2.57-.68,4.19-3.27,4.43-3.88-2.63-5.1-7.67-5.07-12.35.71-1.98,2.76-2.28,6.11-.91,2.58,2.11,4.35,5.68,2.23,8.83Z"/>
      </g>
    </g>
    <g id="front-leg-assembly">
      <g id="front-shoe">
        <path class="cls-50" d="M11.66,149.72c-1.15,0-4.26.1-5.89.1s-4.74-.24-4.84-1.34-.24-2.44,0-4.26,1.53-3.83,2.11-5.03,2.11-3.11,2.59-4.45,1.15-3.11,2.01-3.16,3.4.14,4.69.53c1.29.38,4.69.62,5.55,1.48s1.29,1.24,1.1,2.44-1.1,2.87-.86,3.49.96,1.72,1.48,2.44,1.05,1.63,1.01,2.82.14,3.16-.38,3.78-.77,1.24-1.68,1.24-6.89-.1-6.89-.1Z"/>
        <path class="cls-100" d="M4.22,146.66c1.53.5,2.95,1.46,4.63,1.54,1.35.44,1.33.95,0,1.54-2.83,0-5.99.78-8.01-1.59-.05-1.23,2.45-1.8,3.38-1.49Z"/>
        <path class="cls-22" d="M19.64,146.66c.25.99-.17,3.9-1.54,3.08-4.16-.09-6.73-1.12-7.71-3.08h9.25Z"/>
        <path class="cls-74" d="M18.1,149.74h-9.25v-1.54c0-.86.69-1.54,1.54-1.54l7.71,3.08Z"/>
        <path class="cls-102" d="M7.3,143.58c2.64,1.31,7.68,1.25,10.79,0,.44-1.35.95-1.33,1.54,0-.16.91-.22,2.19,0,3.08-1.58,1.68-4.66,1.68-9.25,0,1.51,1.84.68,2.25-1.54,1.54-1.87,1.23-4.79.92-4.63-1.54.21-1.19-.76-3.17.73-4.6.8-.77,2.02.63,2.35,1.52Z"/>
        <path class="cls-62" d="M15.01,138.95l2.74-.7,1.38.03c-.46,1.53.8,3.65.51,5.29h-1.54c2.59-1.77-12.96-3.13-3.08-4.63Z"/>
        <path class="cls-10" d="M18.1,143.58c-1.24,3.2-5.92.92-9.25,1.58-2.14.55-4.24-.94-1.54-1.58h10.79Z"/>
      </g>
      <g id="front-leg">
        <path class="cls-50" d="M38.91,84.81c1.26-1.4,2.98-3.66,2.82-6.56s.14-6.75.09-7.6-3.09-4.58-5.08-4.87-14.59-1-17.45-.52-4.64.81-6.17,1.69-2.97,3.97-2.9,5.15.33,4.02.93,5.66,1.86,4.53,2.59,6.89,1.06,8.06,1.17,9.96.73,7.6.05,9.46-1.75,2.48-3.45,4.43c-1.71,1.96-3.85,7.31-4.11,10.02s-1.91,11.64-2.19,14.01-1.92,4.73-.51,5.59c1.4.85,4.52,1.19,7.51,1.81s6.13.46,6.8,0,2.08-6.45,2.78-7.89,2.38-10.62,3.1-11.49,3.41-5.13,3.99-6.42c.58-1.29,2.57-5.59,2.85-7.2s2.2-3.39,1.7-5.81,1.27-5.91,1.58-7.03c.95-3.52,2.66-7.84,3.92-9.25Z"/>
        <path class="cls-31" d="M21.22,71.57c1.23,2.73,3.66,4.3,6.27,2.88-.34-.7.64-1.17,2.92-1.41.38-.92.88-.9,1.48,0,1.47,5.15,1.02,7.54-1.35,7.18-.84,1.86-2.81,2.36-5.94,1.47.32,2.4-.12,4.12-2.57,5.48,4.62,3.18,3.5,9.07.84,13.14,2.54,2.58,2.4,3.35-1.3,4.41.79,2.55-.27,3.15-2.96,3.1.12,4.2-3.49,4.21-4.76.33-.04-.52,1.05-1.26,1.51-1.57l1.42-3.02c1.38-7.35,1.37-15.14-.03-23.42-2.42.23-3.36-3.19-1.59-4.35l1.25-4.38c-1.43-.33-1.45-.78-.12-1.33.68-2.74,5.55-1.71,4.92,1.5Z"/>
        <path class="cls-35" d="M26.82,116l-1.97,9.42c-.9,4.32-3.97,8.18-5.03,12.33-.26,1.32-.74,1.34-1.41.16-.54-1.39-1.71-2.48-2.14-4.22,1.56-.74,3.67-1.72,3.12-3.27-.41-1.14-2.63-1.09-4.44-2.46.95-1.51,4.28-.29,5.55-1.94,2.29-3.84,2.83-7.96,4.53-11.44,1.56-.59,2.15-.12,1.78,1.41Z"/>
        <path class="cls-93" d="M14.65,68.42c2.78-1.03,3.66-.42,1.65,1.66-.12.41.16.9.12,1.33,2.32,1.75,1.43,4.13-1.25,4.38.48,1.44.93,2.98,1.59,4.35,1.33,8.29,1.34,16.08.03,23.42.06,1.18-.52,2.4-1.42,3.02-.87-8.36-.33-16.99-1.77-25.98-.69-4.31-3.41-8.77-.13-11.99-.19-1.55.22-1.59,1.18-.19Z"/>
        <path class="cls-83" d="M9.76,121.81c-1.35-.34-1.78-1.62-1.81-2.81-.68-3.28,1.28-6.27,4.35-8.03-.63,3.59-1.41,7.31-2.54,10.85Z"/>
        <path class="cls-29" d="M26.82,116c-.49-.57-1.1-1.05-1.78-1.41.7-1.43,1.53-2.81,1.47-4.43l1.43-1.54,2.72-1.62c.49,3.44-2.1,6.24-3.85,9Z"/>
        <path class="cls-47" d="M26.51,110.15c2.56,1.1,1.05,3.96-1.47,4.43-.74,7.54-2.94,15.29-6.63,23.32,1.27,2.58-1.02,3.16-2.78,1.03-2,1.77-8.99-.62-9.66-2.19-.59-1.39.86-14.95,3.8-14.93-1.38-3.6.09-7.67,2.54-10.85.5-.29,1.25-.17,1.78-.41,4.39-.06,8.53-.2,12.42-.41Z"/>
        <path class="cls-82" d="M24.41,100.24c.88-.79,2.4-.87,4.55-.24-.09-2.13,2.3-2.2,2.99-.16,2.21,2.4-1.68,4.38-1.28,7.17-.59,1.78-1.11,3.15-2.72,1.62-1.56.88-3.61,1.68-4.45.06-2.5.35-4.25-2.23-1.92-3.94-.25-1.59-.05-3.31,1.3-4.41.21-1.31.73-1.28,1.54-.08Z"/>
        <path class="cls-63" d="M25.13,88.89c2.22-.55,5.41-1.08,6.25,1.08.04.8.59,1.48,1.45,1.58l-1.01,2.62c-.82,1.54-2.82,2.59-6.05,3.14,1.35.34,1.36.82.08,1.43,1.66,1.02,1.18,1.52-1.45,1.51-.48.12-1.05-.01-1.54.08-1.03-4.31-1.13-8.75-.84-13.14,3.07-2.67,3.97-2.15,3.1,1.7Z"/>
        <path class="cls-24" d="M18.61,107.83l1.17-1.45c1.37,1.08,2.6,1.85,3.7,2.29l4.45-.06c1.66,1.62.91,2.38-1.43,1.54-3.29-.25-7.56,5.74-11.87,3.39-.82-.45.89-1.92-.55-2.99-.51-.38-.18-1.8-.24-2.41l4.76-.33Z"/>
        <path class="cls-6" d="M31.78,97.01c.05.76-.07,2.12.16,2.82l-2.99.16c-1.45.78-2.49.36-3.11-1.27l-.08-1.43c2.81-1.66,4.81-1.75,6.01-.29Z"/>
        <path class="cls-92" d="M31.78,97.01l-6.01.29c1.32-2.1,4.09-2.04,6.05-3.14-.32.83-.09,1.95-.03,2.86Z"/>
        <path class="cls-17" d="M16.79,103.57l-1.1-21.72c-.05-1.04.08-2.23,1.07-1.7,1.28,2.62,5.55,24.39.03,23.42Z"/>
        <path class="cls-80" d="M33.53,75.86c.17,2.93,1.3,6.34-1.23,8.44-1.61-.35-1.79-2.72-1.76-4.07.01-.58,1.65-1.09,1.07-1.83-.27-.34-1.48-1.07-1.52-1.64-.1-1.44,1.79-2.3,1.8-3.7.38-.92.88-.9,1.47,0,2.18.05,2.29,2.3.16,2.8Z"/>
        <path class="cls-107" d="M27.49,74.45c-.8,1.01-1.34,2.63-2.44,2.84-2.16.41-4.23-.27-3.73-2.17.32-1.22-.25-2.43-.1-3.55h1.54c1.52.78,3.09,1.74,4.73,2.88Z"/>
        <path class="cls-12" d="M25.81,71.6c.74,1.78,2.98,1.43,4.59,1.44-.52.99-2.14.93-2.92,1.41-1.05.03-2.26.27-3.64-.13-1.02-.3-1.15-1.72-1.09-2.74l3.06.02Z"/>
        <path class="cls-5" d="M15.16,75.79c-.51-1.54.25-3.27,1.25-4.38.78.76,1.89,1.27,2.59,1.66,1.39.78,1.15,2.73.06,2.82-1.68.13-2.86-.1-3.9-.1Z"/>
        <path class="cls-47" d="M21.57,104.73c.34,1.43.92,2.81,1.92,3.94-.58,1.43-1.66,1.1-2.44.68-.92-.5-1.65-1.57-2.43-1.52-.25-1.69,1.22-2.91,2.96-3.1Z"/>
        <path class="cls-87" d="M28.96,99.99c0,.81-.07,1.55-.15,2.06-.14.91-1.25,1.61-2.53.49-.39-.34.42-1.31.28-1.68-.32-.87-1.43-.8-2.15-.62-.27-.98.53-1.46,1.45-1.51.61-.03,1.27-.14,2.13,0,.57.1,1.18.44.98,1.26Z"/>
        <path class="cls-52" d="M32.34,86.81c.13,1.15.42,2.65-.96,3.15-2.16.24-4.53.4-6.25-1.08,1.44-2.37,4.68-1.87,7.21-2.07Z"/>
        <path class="cls-113" d="M29.12,83.62c.35,1.45-5.72,1.48-5.75-.4-.04-3.04,5.18-1.95,5.75.4Z"/>
        <path class="cls-107" d="M31.68,84.21c-.14-2.45.42-8.63,1-9.21s3.2-1.33,3.43.63,1.08,6.27-.36,6.35-4.07,2.22-4.07,2.22Z"/>
        <path class="cls-31" d="M32.87,95.43c.78-1.32.98-5.28,2.27-8.22s3.3-4.29,3.22-5.66.03-7.69-.72-9.36-2.73-4.69-2.99-2.96.54,4.16.83,6.01-.17,5.49-.29,6.48-2.65,11.05-3.02,12.18-.66,2.92-.39,3.13,1.09-1.58,1.09-1.58Z"/>
        <path class="cls-20" d="M30.54,80.23c2.23-.12,2.02,2.28,1.76,4.07.05.83-.05,1.68.04,2.51-1.11,1.7-3.5,2.39-7.21,2.07-.88-.75-2.09-1.14-3.1-1.7-.4-2.5-.85-5.07-.19-8.11,3.33-.93,6.11.17,8.71,1.16Z"/>
      </g>
    </g>
    <g id="Body">
      <path class="cls-88" d="M46.71,52.99c-.28.18-3.28-.58-3.25-1.48s-.25-1.47-.06-2.32.77-3.15,1.09-4.09.91-3.22,1.54-3.87,1.28-1.61,1.28-.9-.99,2.53-.81,3.47-.29,4.59-.1,5.39.31,3.8.31,3.8Z"/>
      <path class="cls-34" d="M4.45,34.19c2.19,2.23.71,3.49-1.83,4.02-.4-.12-.85.01-1.27-.05-1.03-2.11-.98-4.49-1.09-6.78-.54-2.02-.36-4.54,1.87-4.88l1.17.04c4.42-.3,5.33,6.36,1.16,7.64Z"/>
      <path class="cls-76" d="M23.3,19.42c-2.82-.23-8.07-.24-10.51,0s-8.08.89-9.62,1.99S.37,31.81.36,32.66s.44,5.04.99,5.5,2.95,1.14,3.03,1.09,2.7,8.38,3.6,9.84,3.43,9.96,3.53,11.78,1.02,2.77,1.97,3.86,4.1,3.47,5.3,4.03,1.71-.09,3.77,0,6.3.88,7.72.7,7.99-.74,9.34-.77,1.93.26,2.01-.93.31-2.75.37-4.58-.42-4.87-.04-6.19.64-4.61,1.52-5.49,1.14-4.36,1.36-5.83,1.17-2.96,1.68-4,2.67-5.93,3.24-7.44-.08-4.76-1.25-5.05-5.42-1.34-7.47-1.59l-2.05-.24s.4,2.14-.79,3.16-3.58,2.74-5.36,2.14-5.99-1.77-7.18-4.12-2.26-3.54-1.94-5.78.77-2.76.77-2.76l-1.17-.58Z"/>
      <path class="cls-13" d="M39.5,63.14c-.6,1.05-1.74,1.49-2.87,1.59-1.74.27-4.18-.42-5.85-1.53-.75-1.81.54-2.69,3.87-2.64l2.16-2.02c1.44,1.23,1.92,2.94,2.7,4.6Z"/>
      <path class="cls-76" d="M24.92,24.82c4.06.77,6.24,1.45,5.8,6.35,1.75,1.82,4.88.54,7.49,1.78,1.37.65,1.72,4.83,4.28,4.29,6.83.32,3.72,5.15-1.65,3.15-1.29,1.12-3.71,2.17-5.51,1.43-.17,3.27-2.83,4.38-4.54,1.39-2.17,2.25-7.3,2.73-8.78.14-3.35-.97-6.9-4.82-3.27-7.65l-3.12-1.5c-9.57,1.07-6.91-6.44-1.34-10.36-.81-2.28.16-2.65,1.89-.97-.93-2.69,4.19-2.88,5.48-.98,3.66-3.52,8.29-.12,3.29,2.93Z"/>
      <path class="cls-88" d="M41.02,67.78h-5.85c-2.57,1.34-7.26,1.14-10.24,0,.04,2.39-2.17,2.14-2.93,0-1.18-.43-1.16-.94,0-1.53.07-1.53.54-1.54,1.58-1.53,3.95.07,7.74.44,11.59,1.53-.59-1.29-.03-1.75,1.46-1.53-.6-2.18,1.24-3.23,2.87-1.59.69,1.47,2.01,2.71,1.52,4.64Z"/>
      <path class="cls-42" d="M22.17,60.14l-.11,1.73c-2.74-.17-4.71.27-5.9,1.32.85,1.44.32,1.88-1.57,1.32-.52-.1-.66-.25-1.09.22-.49-1.52-1.03-3.03-1.4-4.59,1.36-2.93,7.06-3.63,10.16-2.83,3.01.55,2.94,1.95-.08,2.83Z"/>
      <path class="cls-96" d="M17.55,35.67c3.48,3.97-.37,6.2-2.86,1.57-3.5-.36-6.88.54-10.24,1.53l-1.83-.56c-.47-1.65,1.26-2.96,1.83-4.02,4.17-2.28,8.54-1.79,13.1,1.48Z"/>
      <path class="cls-79" d="M32.25,54.04c2.56-.02,2.67,1.12,0,1.77.54.7.92,1.36.79,1.87-.94,3.63-1.14-1.16-.62.89.12.47-1.48,1.08-2.9,1.37-4.02,2.5-6.3-2.62-1.58-4.34l1.37-3.09,2.93,1.53Z"/>
      <path class="cls-104" d="M23.47,18.91c-.75.9-1.38,1.89-1.84,2.99l-5.48.98c-2.62.09-3.41-.48-1.4-2.42l1.68-1.31c2.33.67,4.7-.3,7.04-.24Z"/>
      <path class="cls-45" d="M14.27,23.85c-3.42,3.1,9.43,2.98,4.43,7.83-1.31,1.27-3.42-2.25-6.01-1.76-.99.19-1.46,2.84.19,2.71,3.88-.31,5.12.56,5.85,3.07-.29,1.33-.68,1.29-1.18-.04l-10.24.06c-1.54,0-2.97-.3-2.86-1.54-.35-2.46-.46-5.22-1.16-7.64-.3-1.05-.05-1.75,1.09-1.52,4.8-3.38,8.09-3.77,9.88-1.19Z"/>
      <path class="cls-60" d="M14.76,20.46c.43.83.89,1.64,1.4,2.42-.67.12-1.23.78-1.89.97-3.35-1.91-6.29,1.9-9.88,1.19,1.7-3.92,6.62-4.15,10.37-4.57Z"/>
      <path class="cls-77" d="M4.12,26.51c-.19,1.78-.49,3.68-1.87,4.88-.41-.98-1.64-2.04-1.66-3.3l2.04-4.42c.85-.26,1.4,1.96,1.49,2.85Z"/>
      <path class="cls-73" d="M20.54,63.2c2.53.66,3.94,1.17,1.46,3.05.18.37.04,1.1,0,1.53-.42,1.33-.9,1.31-1.46,0-1.15-1.34-2.87-1.67-4.53-1.54.37-1.18-.51-1.55-1.43-1.72-.56-1.15.9-1.32,1.57-1.32,0-2.2,3.46-1.72,4.39,0Z"/>
      <path class="cls-27" d="M27.95,55.6c-.28,1.66.27,3.32,1.58,4.34,4.34.27,2.88,1.25-.2,3.26h-1.46c-.03,2.29-2.37,2.24-2.93,0-2.45-.58-3.37-1.6-2.76-3.05.34-.94.15-1.88.08-2.83,1.82-.72,3.99-.54,5.7-1.71Z"/>
      <path class="cls-7" d="M24.93,63.2h2.93c3.88.04,6.31,1.06,7.31,3.05h-13.17l-1.46-3.05c.25-2.3,3.13-1.63,4.39,0Z"/>
      <path class="cls-13" d="M48.44,29.42s.8.05,1.52.57,2.41,1.1,2.63,1.85.19,1.87.15,2.54-2.46,3.36-2.78,3.87-1.74,4.08-2.14,5.85-.86,4.77-.86,5.4-1.05.74-.91,0-.23-8.04.77-10.32,1.77-5.17,1.52-6.73.1-3.03.1-3.03Z"/>
      <path class="cls-18" d="M36.81,58.53c-.25,1.42-.81,1.39-1.64.08-2.04,1.05-3.63-.61-2.93-2.81v-1.77c1.49-.24,3.14-.21,4.21.98.79.87-.26,2.94.35,3.52Z"/>
      <path class="cls-13" d="M22.25,57.31c-3.33,1.31-7.06.88-10.16,2.83-.23-1-.17-2.07-.35-3.09,4.44.97,10.19-4.01,10.5.25Z"/>
      <path class="cls-9" d="M34.88,67.41c.3-.01.59.07.84.22,0,0,3.33.47,2.83,1.14s-5.99.54-5.99.54h-.31l-1.1.65s-7.53.88-6.22-2.17l9.95-.37Z"/>
      <path class="cls-16" d="M30.78,63.2c1.98,0,4.9-.8,5.85,1.53-.45.55-.94,1.06-1.46,1.53l-7.31-3.05h1.46c.42-1.33.9-1.31,1.46,0Z"/>
      <path class="cls-108" d="M22.17,60.14c1.25.09,2.4,1.88,2.76,3.05h-8.78c-.19-.87-.32-3.16,1.18-2.78,2.26.58,3.59.9,4.83-.27Z"/>
      <path class="cls-95" d="M30.78,63.2h-1.46l.2-3.26c.91-2.43,3.82-2.69,5.65-1.32.55.02,1.09,0,1.64-.08-.32.58.15,2.16-.44,2.87-2.28.57-4.55-.04-5.58,1.79Z"/>
      <path class="cls-27" d="M35.17,58.62c-1.11,2.32-3.49.75-5.65,1.32,1.06-.98-.69-2.06.42-2.73l2.31-1.4c1.45.24,2.48,1.39,2.93,2.81Z"/>
    </g>
    <g id="front-arm-assembly">
      <g id="front-glove">
        <path class="cls-39" d="M32.41,51.35c1.48-.17,1.65.47.7,1.78-1.97,3.17-5.86,3.21-9.26,2.51-.44-.09-.8-.56-1.25-.6-2.69-1.37-2.31-2.55.74-2.56.27-1.45,1.64-2.03,4.11-1.74,1.54.42,3.37.04,4.95.61Z"/>
        <path class="cls-69" d="M42.17,55.56l-1.22,2.83c1.06.94.84,1.4-.61,1.42-.76,1.25-1.91,1.32-3.44.2-2.32,1.02-2.53-.57-1.99-2.77.23-.95.42-1.86.99-2.7-1.1-2.99.15-3.45,2.03-.81,3.52-.68,4.94-.07,4.25,1.83Z"/>
        <path class="cls-54" d="M41.01,66.81c-1.52.13-3.09.28-4.54-.28-1.51-.59-1.51-2.32-.79-3.69,1.84-3.35,3.34-2.61,2.83,1.22,1.65-2.78,3.21-3.79,4.66-3.03.51,2.23-.09,4.62-2.16,5.78Z"/>
        <path class="cls-90" d="M36.9,60c2.11.95,1.09,3.18-1.22,2.83-1.02-.47-1.95-1.34-2.06-2.19-.2-1.55,1.03-2.36,1.29-3.42.59.98,1.25,1.91,1.99,2.77Z"/>
        <path class="cls-75" d="M40.34,59.81l-1.83,4.25-2.83-1.22,1.22-2.83c.11-.51.74-2.53,1.83-2.41.64.07.85,2.05,1.62,2.21Z"/>
        <path class="cls-66" d="M38.31,52.33l-.39,1.4c-.95-.28-1.52.06-2.03.81l-2.79-1.4c-.18-.61-.42-1.21-.7-1.78.85.31,2.26-1.21,3.42-.87,1.01.3,2.32.36,2.48,1.84Z"/>
        <path class="cls-85" d="M43.17,61.03c-1.79.66-2.65,2.82-4.66,3.03-2.3-.81-.44-4.66,1.83-4.25l.61-1.42c1.18.41,2.25,1.3,2.22,2.64Z"/>
        <path class="cls-39" d="M28.43,51.03c-.73-.12-2.33-.76-3.25-.79s-1.68-.14-2.58.09-1.88,1.48-2.2,2.25-.28,2.46.2,2.87,2.79,1.31,3.87,1.67,3.79.23,4.55.77,2.48,2.68,3.28,3.76,1.57,2.55,2.14,3.22,2.44,1.94,3.37,1.76,2.7-.15,3.63-1.31,2.02-2.6,1.74-4.29.23-3.3-.28-4.51-1.89-2.53-3.25-3.17-3.63-1.78-4.59-1.61-3.19-.02-4.01-.22-2.62-.49-2.62-.49Z"/>
      </g>
      <g id="front-arm">
        <path class="cls-14" d="M19.66,37.66c-.95-1.55-5.76-5.61-9.12-6.03s-5.84.79-7.07,2.29.64-1.77.25-.58-.51,1.78-.47,2.62-.53,5.34-1.15,6.01-1.43,4.01-1.3,5.31-.12,3.5.63,4.03,1.83,1.35,3.76,1.41,4.62,1.43,6.16,1.71,6.28.89,8.31,1.51,3.05,1.13,3.88,1.14,3.22.46,3.66-.31,1.89-2.82,1.57-3.64-.56-2.16-1.31-2.39-4.64-1.22-5.52-1.73-3.78-2.18-3.89-2.17.15-.45.52-1.21.77-1.41,1.01-2.35.15-1.99.37-2.95c.2-.87.65-1.12-.3-2.67Z"/>
        <path class="cls-14" d="M8.61,47.72c1.56,5.1-4.59,3.87-6.78.33-1.22-2.63-1.43-5.68.25-8.14l6.53,7.81Z"/>
        <path class="cls-84" d="M14.26,38.49c2.36,2.85,1.5,3.74-1.92,4.46-.93,1.51-.03,2.87,2.7,4.07l-.2,1.8c1.06.94.84,1.4-.61,1.42-1.12,3.49-3.97.86-4.25-1.83-.99,1.02-1.44.77-1.39-.68-3.51,2.31-7.14-4-6.53-7.81l1.66-4.28c1.19-2.81,8.44.65,10.52,2.86Z"/>
        <path class="cls-94" d="M10.99,53.87c-2.77-1.07-5.47-2.36-8.33-3.19l-.84-2.63c.95.61,1.92,1.24,3.38,1.72,1.29.43,2.72-.53,3.39-2.05l1.39.68c2.06,1.51,3.58,3.55,1,5.47Z"/>
        <path class="cls-49" d="M18.9,47.21c-2.01,2.35-8.08-1.79-6.56-4.26-.29-1.75.41-3.5,1.92-4.46.98.54,2.97,1.17,3.4-.27l1.13.53c-.32,2.89,2.2,5.85.11,8.46Z"/>
        <path class="cls-21" d="M27.46,50.74c-1.02,1.22-2.5,1.96-4.11,1.74-1.06,2.1-5.96.02-5.66-2.44-2.39-1.98-1.89-3.25,1.22-2.83,2.83,1.14,5.6,2.72,8.55,3.53Z"/>
        <path class="cls-28" d="M17.68,50.04l5.66,2.44-.74,2.56c-2.27-.22-4.29-1.54-6.44-2.08-2.89.37-3.94-.44-1.93-2.72l.61-1.42c.97-2.02,3.22-1.01,2.83,1.22Z"/>
        <path class="cls-97" d="M14.24,50.24c.96.42,1.23,1.97,1.93,2.72-1.48-.21-3.61,1.52-5.17.92-1.05-1.64-1.65-3.57-1-5.47l4.25,1.83Z"/>
        <path class="cls-71" d="M18.9,47.21c-.63.78-.66,2-1.22,2.83l-2.83-1.22c-1.41-2.06-3.47-3.07-6.48-4.69,1.29-1.47,2.73-1.05,3.98-1.18.85,2.63,4.19,3.3,6.56,4.26Z"/>
      </g>
    </g>
    <g id="Head">
      <g id="neck">
        <path class="cls-109" d="M24.06,20.36s.71-.98,1.59-1.61,2.59-2.09,3.03-2.36,1.7-1.24,2.36-1.16,2.48-.13,3.17.28,3.96,1.7,4.32,2.75.79,3.64.77,4.38.14,1.48-.11,2.27-1.15,2.89-2.29,2.92-4.66.78-6.41.01-4.37-2.5-5.06-3.66-1.36-3.82-1.36-3.82Z"/>
        <path class="cls-109" d="M38.7,29.73c-1.63,2.53-7.38,3.29-11.34.74s-5.18-7.23-3.55-9.76c1.63-2.53,6.16-2.52,10.12.02,3.96,2.54,6.41,6.46,4.78,9Z"/>
        <path class="cls-109" d="M33.04,16.92c-1.58-1.45-2.37.88-3.19,1.85-.42.72-5.48,5.46-4.8,8.87,7.9,2.36,11.65,1.88,9.23-7.32-.6-1.12-1.49-2.02-1.24-3.4Z"/>
        <path class="cls-111" d="M33.89,16.56c-.43,0-.81.26-1.17.5-.06.04-.13.09-.17.15-.05.08-.07.18-.08.27-.08.65-.17,1.32-.06,1.97.03.21.09.41.11.62.02.23,0,.46,0,.69.02.57.24,1.11.3,1.67.03.32.02.64.1.95.06.23.17.44.25.67.25.74.11,1.55.14,2.33,0,.1.01.21.06.3.07.14.21.21.33.31.46.37.57,1.06,1,1.46.16.15.37.26.57.35.46.21.94.38,1.43.52.42.12.88.23,1.3.1.55-.16.94-.68,1.1-1.23s.15-1.14.15-1.71c0-.65.03-1.3.09-1.95.02-.28.05-.56.01-.83-.1-.7-.62-1.29-1.25-1.6-.24-.12-.53-.22-.65-.46-.07-.14-.08-.31-.09-.47-.06-.77-.39-1.49-.71-2.19-.18-.4-.36-.8-.64-1.14-.29-.36-.67-.63-1.1-.79l-1.04-.48Z"/>
        <path class="cls-68" d="M27.54,17.8c-2.54,1.56-3.88,2.4-3.9,3.66-.01.77.48,1.29.55,1.38.88.93,2.54.7,3.52.25,1.37-.62,1.93-1.89,2.36-2.89.42-.96,1.16-3.14.43-3.65-.43-.3-1.29.21-2.98,1.25Z"/>
      </g>
      <g id="face">
        <path class="cls-98" d="M43.91,21.88c0,.37.23,1.64.18,2.11s0,1.1-.53,1.16-1.9.13-2.28-.12-7.1-4.34-7.74-4.7-4.86-1.9-5.74-2.74-2.24-2.1-2.48-3.4-.75-3.44-.48-4.86,1.82-4.47,2.75-5.07,4.08-1.93,6.22-1.66,3.99.06,6.55,1.52,5.53,4.17,6.34,5.28.83,1.85.73,2.51-.17,2.1-.4,2.93.14,2.76-.02,3.17-.59.38-.77.16-.7-.36-1.05-.4c-.37-.04-.37.43-.47.74s-.32.83-.54.87-1.03-.15-1.46,0-.81.4-.73.67.1.67.5.81,1.12.32,1.32.37.11.66.11.66Z"/>
        <path class="cls-65" d="M44.18,23.22c-.2-.96-.26-1.96-.16-2.93.04-.36,1.61-1.92,1.46-2.25-.13-.28-1.59-.33-1.85-.49-.31-.19-1.03.09-1.58.15-1.14.12-2,.13-3.13.35-.42.08-.95.33-.89.76.03.22.2.38.32.56.37.61.01,1.39.03,2.1,0,.11.02.22.09.3.05.05.12.08.18.11.55.22,1.1.44,1.65.66.81.32,1.63.65,2.5.77.38.05.76.06,1.15.07"/>
        <path class="cls-67" d="M45.86,17.71c.68-.28.93-.96,1.08-1.58.31-1.29.46-2.62.43-3.94,0-.28-.06-.62-.37-.74-.1-.04-.22-.05-.33-.06-1.11-.08-2.22-.15-3.32-.23-.59-.04-1.3-.04-1.62.36-.14.18-.18.4-.21.61-.22,1.53-.44,3.13.18,4.61.1.24.23.49.49.64.2.11.44.15.68.18.81.12,1.61.23,2.42.35l.57-.2Z"/>
        <path class="cls-65" d="M35.06,18.28c.06-.46.01-.93-.04-1.4-.02-.22-.05-.44-.13-.65-.05-.14-.13-.28-.17-.42-.03-.14-.03-.28-.02-.42.03-.36.08-.71.15-1.06.05-.24.11-.48.17-.72l.16-.61c.04-.15.09-.32.24-.41.14-.09.33-.08.51-.06.45.03.91.06,1.36.09.12,0,.25.02.36.06.11.05.2.12.3.19.19.12.41.19.63.26.65.21,1.28.46,1.89.75.24.12.49.25.64.45.09.11.14.24.23.35.2.25.59.39.66.68.02.09,0,.19.02.29.02.2.16.38.19.58.05.33-.23.63-.56.8s-.71.25-1.06.39c-.29.12-.56.28-.87.35-.26.06-.53.05-.79.06-.51.02-1.02.1-1.52.18-.35.06-.7.11-1.02.24-.35.14-.68.37-1.08.36l-.28-.33Z"/>
        <path class="cls-98" d="M37.96,16.04c-1.12-.22-2.29-.09-3.36.37-.35.15-.69.34-1.05.48-1.26.5-2.63.42-3.95.29-.44-.04-.92-.12-1.22-.48-.29-.36-.32-.9-.27-1.39s.18-.97.14-1.46c-.03-.33-.13-.65-.17-.98-.05-.41-.02-.82,0-1.23.06-.78.12-1.57.18-2.35.02-.22.03-.45.12-.65.12-.28.36-.46.59-.63.46-.35.94-.7,1.48-.86.18-.05.37-.09.55-.15.19-.07.36-.17.55-.24.46-.19.96-.23,1.45-.26,1.3-.06,2.61.01,3.9.21.33.05.67.11.99.22.28.09.54.22.81.35.24.12.47.23.71.35.2.1.41.2.54.4.21.32.15.78-.02,1.13s-.44.63-.66.94c-.31.45-.54.98-.64,1.54-.04.23-.07.46-.14.68-.06.19-.16.36-.25.54-.36.78-.35,1.7-.34,2.58l.07.62Z"/>
        <path class="cls-8" d="M40.1,9.29c-1.7.94-3.1,2.55-3.77,4.37,1.87.33,3.96.86,5.68,1.21,2.06-2.23,2.24-6.82-1.91-5.58Z"/>
      </g>
      <g id="beard">
        <path class="cls-19" d="M45.5,17.52c-.92-.84-2.27-.98-3.51-1.06-1.26-.09-2.51-.18-3.77-.27-.29-.02-.6-.04-.87.07-.61.25-.8,1-.84,1.66-.05.68-.44.22-.66-.72-.34-1.42-1.08-3.04-2.52-3.26l-.39.5c-.42,2.21-.78,4.68.46,6.55.67,1.01,1.72,1.69,2.74,2.34,1.92,1.22,3.88,2.47,6.1,2.98.48.11,1,.18,1.44-.02.91-.42.98-1.68.9-2.68,0-.13-.02-.26-.08-.37-.07-.14-.21-.23-.34-.31-1.07-.66-2.28-1.08-3.53-1.25-.57-.07-1.16-.11-1.72-.22.25-.05.48-.17.62-.39.12-.17.17-.37.22-.57.17-.69.35-1.38.52-2.07.02-.06.03-.13.08-.18.08-.09.21-.11.33-.12,1.48-.1,2.98.12,4.37.65l.22-.09c.24.18.62-.07.65-.37s-.17-.58-.39-.78Z"/>
      </g>
      <g id="hair">
        <path class="cls-57" d="M33.4,13.21c.13.9.05,1.28-.57,2.3s-.9,2.74-2.43,3.84-3.12-.05-4.56.94c-1.43.99-3.73.73-4.44-.29s-1.56-1.64-1.21-2.74.23-2.43.74-3.47.03-5.08.08-5.78-.28-3.17.57-3.72,3.52-2.11,3.89-2.39,5.2-1.45,6.22-1.21,4.65-.12,5.82.15,4.69,1.96,5.61,3.16,2.51,2.06,3.04,2.75,1.72,1.96,1.63,2.79-.84,1.87-2.25,1.59-3.06.14-4.08-.73-1.94-1.51-2.92-.97-4.04,1-4.26.9-1.02,1.98-.89,2.88Z"/>
        <path class="cls-58" d="M39.07,1.83c-1.67-.74-1.43-1.45-3.07-1.44s-6.06-.8-7.27-.11-2.63.69-3.38,2.09-.41,2.12.58,2.2,4.03.76,5.18.62,4.74-.38,5.59-.55,3.03-.92,2.95-1.48-.58-1.33-.58-1.33Z"/>
        <path class="cls-33" d="M22.2,9.39l-.35-.71c-.15-.31-.31-.63-.36-.98-.04-.26-.02-.53,0-.79.03-.44.06-.87.1-1.31,0-.11.02-.23.06-.33.05-.11.14-.2.22-.3.22-.27.33-.62.49-.94.34-.67.88-1.19,1.43-1.67.34-.29.7-.58,1.13-.69.31-.08.65-.07.97-.06.82.04,1.65.08,2.41.39.24.1.48.23.66.42.26.27.4.63.53.99.16.43.32.85.48,1.28.02.06.05.13.03.2-.02.07-.07.12-.12.16-1.24,1.07-2.58,2.07-4.09,2.67-.67.27-1.39.47-1.95.94l-1.64.72Z"/>
        <path class="cls-57" d="M42.83,11.9c-.19-.27-.38-.54-.59-.81-.98-1.25-2.26-2.23-3.69-2.82-1.79-.75-3.74-.88-5.66-.94-.88-.03-1.76-.04-2.64-.03-.45,0-.9.01-1.33.16-.71.25-1.25.85-1.75,1.43-.36.42-.73.84-1.09,1.25-.45.52-.92,1.05-1.54,1.32-.07.03-.14.06-.21.06-.22,0-.37-.22-.48-.42-.33-.58-.65-1.16-.98-1.73-.32-.56-.64-1.25-.37-1.83.22-.46.75-.66,1.24-.73s1-.04,1.46-.23c.55-.23.95-.75,1.47-1.04.52-.29,1.17-.35,1.56-.8.27-.31.37-.74.49-1.15.06-.19.14-.4.31-.48.27-.13.55.12.8.29.53.39,1.2.5,1.84.6.67.1,1.35.21,2.03.14.65-.07,1.27-.29,1.92-.35,1.1-.11,2.21.26,3.16.84s1.78,1.38,2.57,2.2c-.25-.07-.53.06-.65.3-.14.3-.02.67.21.92s.52.39.8.55c.51.31.96.71,1.34,1.17.49.61.85,1.53.41,2.18-.15.09-.36.04-.46-.11l-.16.07Z"/>
        <path class="cls-58" d="M37.46,7.02c-.04-.46,1.72-1.16,2.2-1.13,1.37.08,2.73.15,4.1.23.87.05,1.8.11,2.53.59,1.07.71,2.45,3.4,2.33,4.62-.02.16-.04.32-.13.45-.14.2-.41.28-.65.32-.6.11-1.22.13-1.83.15-.82.02-2.79-.05-3.6-.03-.4.01-.72-1.19-1.12-1.26-1.11-.2-2.02-1.04-2.49-2.02s-1.33-1.92-1.33-1.92Z"/>
        <path class="cls-61" d="M24.67,11.71c.12.19-.04.44-.21.57s-.4.24-.45.47c-.03.12.01.25,0,.37-.02.13-.11.25-.19.35-.76.88-1.97,1.3-3.09,1.07-.06-.01-.12-.03-.17-.06-.2-.13-.15-.44-.09-.68.22-.79.35-1.61.39-2.43.02-.34.02-.68.07-1.01.11-.7.47-1.37,1.03-1.76s1.34-.45,1.92-.08c.67.43.94,1.3,1.16,2.09.04.16.02.41-.14.4l-.23.7Z"/>
        <path class="cls-11" d="M36.43,4.53c1.4-9.86,13.93,6.05,5.49,3.55-1.01-2.49-4.6-1.63-5.49-3.55Z"/>
      </g>
      <g id="Eye">
        <g id="eye">
          <path class="cls-37" d="M42.11,13.82c-.22-.06-.47-.12-.67-.01-.09.05-.16.13-.2.22-.22.41.04.93.46,1.17s.95.29,1.45.3c.18,0,.38,0,.52-.11.19-.15.17-.43.03-.61s-.36-.29-.58-.39c0,0-.54-.43-1.01-.56Z"/>
          <path d="M42.11,13.83c-1.36-.34-.89,1.31.11,1.45.44.1,1.85.4,1.45-.46-.13-.18-.35-.3-.56-.41-.3-.25-.63-.46-1-.58h0ZM42.12,13.8c.37.1.74.35,1.03.54.22.09.46.18.63.4.56,1.03-1.03.89-1.61.76-.48-.09-1.02-.44-1.1-1.01-.08-.65.53-.94,1.05-.68h0Z"/>
        </g>
        <path class="cls-57" d="M41.25,13.07c1.09-.35,3.57-.32,3.24,1.41-.01.04-.06.06-.09.04l-.82-.34c-.22-.08-.38-.31-.63-.44-.49-.26-1.07-.45-1.68-.56-.05,0-.06-.09,0-.1h0Z"/>
        <g>
          <ellipse class="cls-112" cx="42.95" cy="14.93" rx=".39" ry=".56" transform="translate(26.9 57.48) rotate(-88.51)"/>
          <g>
            <ellipse class="cls-57" cx="43.14" cy="15.03" rx=".36" ry=".3" transform="translate(-.35 1.04) rotate(-1.38)"/>
            <path class="cls-37" d="M43.3,14.89c.07,0,.1.16.07.25,0,.02-.01.03-.02.04-.02.01-.04.02-.06.02-.07.01-.14,0-.2-.03s-.09-.11-.06-.16c0,0,.18.09.26-.12Z"/>
          </g>
        </g>
      </g>
      <g id="mouth">
        <path id="open" d="M44,21.22s.18-1.48.18-1.51-.71-.14-.8-.16-.74-.09-.83-.12-.31,0-.37.02-.24.16-.27.19-.09.25-.08.32.05.35.09.4.27.36.35.39.65.39.75.41.62.22.7.24.2.08.23.08.05-.26.05-.26Z"/>
        <g id="teeth">
          <path class="cls-37" d="M44.38,19.81c-.02.16-.05.34-.08.43s-.03.08-.06.09-.69-.15-.95-.26-.97-.53-1-.54-.01-.07.02-.09.16-.02.25,0,.55.12.64.13.53.12.62.13.57.11.57.11Z"/>
          <path class="cls-37" d="M44.2,21.25c.1.05.05-.41.05-.44s-.47.08-.62.05-1.17-.49-1.29-.52-.22.05-.22.05c0,0,.08.1.12.14s.48.39.57.42.59.2.67.2.71.09.73.1Z"/>
        </g>
        <path id="lips" class="cls-64" d="M44.51,19.47c0-.22-.14-.21-.29-.18s-.63.15-.86.15-.97-.2-1.12-.11-.5.34-.5.56.08.65.23.82.69.45,1.08.67,1.03.5,1.13.43.58-.43.4-.7-.47-.21-.54-.18-.89-.01-1.09-.1-.9-.58-.93-.69-.19-.29.06-.47.33-.17.49-.13.89.2,1.12.23.61.19.69.14.13-.19.14-.45Z"/>
      </g>
    </g>
  </g>
</svg>