<?xml version="1.0" encoding="UTF-8"?>
<svg id="Player_Walk" xmlns="http://www.w3.org/2000/svg" viewBox="0 0 62.76 143.33">
  <defs>
    <style>
      .cls-1 {
        fill: #885e42;
      }

      .cls-2 {
        fill: #272a33;
      }

      .cls-3 {
        fill: #0d1214;
      }

      .cls-4 {
        fill: #9f744d;
      }

      .cls-5 {
        fill: #172543;
      }

      .cls-6 {
        fill: #181f2e;
      }

      .cls-7 {
        fill: #343136;
      }

      .cls-8 {
        fill: #433c3f;
      }

      .cls-9 {
        fill: #0d1d32;
      }

      .cls-10 {
        fill: #293339;
      }

      .cls-11 {
        fill: #0a141a;
      }

      .cls-12 {
        fill: #161d26;
      }

      .cls-13 {
        fill: #be6f3f;
      }

      .cls-14 {
        fill: #fff;
      }

      .cls-15 {
        fill: #c36a3f;
      }

      .cls-16 {
        fill: #be895f;
      }

      .cls-17 {
        fill: #1f262d;
      }

      .cls-18 {
        fill: #0a1b2d;
      }

      .cls-19 {
        fill: #d9d5c4;
      }

      .cls-20 {
        fill: #090d1a;
      }

      .cls-21 {
        fill: #102131;
      }

      .cls-22 {
        fill: #070d15;
      }

      .cls-23 {
        fill: #141920;
      }

      .cls-24 {
        fill: #1a202d;
      }

      .cls-25 {
        fill: #d38269;
      }

      .cls-26 {
        fill: #13192a;
      }

      .cls-27 {
        fill: #1f2830;
      }

      .cls-28 {
        fill: #f8c999;
      }

      .cls-29 {
        fill: #efad81;
      }

      .cls-30 {
        fill: #9e6340;
      }

      .cls-31 {
        fill: #eedca7;
      }

      .cls-32 {
        fill: #a0481d;
      }

      .cls-33 {
        fill: #172440;
      }

      .cls-34 {
        fill: #b6c5cb;
      }

      .cls-35 {
        fill: #ddd7cf;
      }

      .cls-36 {
        fill: #f4a679;
      }

      .cls-37 {
        fill: #0c1929;
      }

      .cls-38 {
        fill: #dfdfd2;
      }

      .cls-39 {
        fill: #020b12;
      }

      .cls-40 {
        fill: #f5f5f1;
      }

      .cls-41 {
        fill: #202029;
      }

      .cls-42 {
        fill: #5b5e63;
      }

      .cls-43 {
        fill: #4d5c62;
      }

      .cls-44 {
        fill: #232b54;
      }

      .cls-45 {
        fill: #f9dbab;
      }

      .cls-46 {
        fill: #30393e;
      }

      .cls-47 {
        fill: #394869;
      }

      .cls-48 {
        fill: #0e1829;
      }

      .cls-49 {
        fill: #b88261;
      }

      .cls-50 {
        fill: #1c2b4e;
      }

      .cls-51 {
        fill: #bcbf9e;
      }

      .cls-52 {
        fill: #445154;
      }

      .cls-53 {
        fill: #e37356;
      }

      .cls-54 {
        fill: #18284c;
      }

      .cls-55 {
        fill: #d5976b;
      }

      .cls-56 {
        fill: #e9af80;
      }

      .cls-57 {
        fill: #ca8a60;
      }

      .cls-58 {
        fill: #754c24;
      }
    </style>
  </defs>
  <g id="walk_7">
    <g id="Head">
      <g id="neck">
        <path class="cls-56" d="M20.45,17.61s.55-.89,1.27-1.48,2.11-1.96,2.47-2.23,1.39-1.17,1.96-1.15,2.13-.26,2.75.05,3.52,1.22,3.9,2.11.91,3.09.93,3.73.22,1.27.05,1.96-.81,2.56-1.8,2.66-3.97.96-5.53.41-3.93-1.89-4.6-2.85-1.41-3.21-1.41-3.21Z"/>
        <path class="cls-56" d="M33.66,24.79c-1.25,2.29-6.17,3.29-9.74,1.34s-4.92-5.91-3.67-8.2,5.16-2.56,8.73-.61,5.93,5.18,4.68,7.47Z"/>
        <path class="cls-56" d="M27.98,14.09c-1.45-1.15-1.99.91-2.64,1.79-.32.65-4.39,5.05-3.59,7.95,6.97,1.55,10.17.9,7.51-6.89-.59-.93-1.41-1.65-1.28-2.86Z"/>
        <path class="cls-57" d="M28.69,13.72c-.37.03-.69.27-.97.5-.05.04-.1.08-.14.14-.04.07-.05.16-.05.24-.03.57-.06,1.15.07,1.7.04.18.1.35.13.53.03.2.03.4.05.6.06.49.28.94.36,1.43.05.27.05.55.14.81.07.2.18.37.26.56.26.62.19,1.33.26,2,0,.09.02.18.07.25.07.11.2.17.31.25.42.29.55.88.95,1.2.15.12.33.2.51.27.41.15.83.27,1.26.36.37.08.77.14,1.13,0,.47-.17.77-.65.88-1.13s.06-.99.02-1.49c-.04-.56-.05-1.13-.05-1.69,0-.24.01-.48-.04-.72-.13-.6-.61-1.08-1.18-1.31-.22-.09-.47-.16-.59-.36-.07-.12-.09-.26-.11-.4-.1-.66-.42-1.26-.74-1.85-.18-.33-.36-.66-.62-.94-.27-.29-.62-.5-1-.62l-.92-.35Z"/>
        <path class="cls-31" d="M23.29,15.19c-2.1,1.5-3.2,2.31-3.14,3.4.04.66.49,1.09.56,1.15.82.74,2.23.45,3.05,0,1.15-.62,1.55-1.75,1.86-2.64.3-.86.8-2.78.15-3.18-.39-.23-1.1.26-2.49,1.26Z"/>
      </g>
      <g id="face">
        <path class="cls-49" d="M37.67,17.69c.02.32.3,1.4.29,1.81s.06.95-.38,1.03-1.63.23-1.97.04-6.39-3.3-6.97-3.58-4.31-1.34-5.12-2.01-2.06-1.68-2.35-2.78-.86-2.92-.72-4.16,1.29-3.97,2.06-4.55,3.4-1.91,5.27-1.82,3.45-.19,5.74.91,5.03,3.26,5.79,4.16.83,1.55.78,2.12-.02,1.82-.16,2.55.29,2.37.18,2.74-.49.36-.65.18-.63-.27-.93-.28c-.32-.01-.3.39-.36.67s-.22.73-.41.78-.89-.06-1.26.1-.67.4-.59.62.13.57.48.67.99.21,1.16.24.13.56.13.56Z"/>
        <path class="cls-29" d="M37.98,18.83c-.24-.82-.34-1.67-.32-2.52,0-.31,1.27-1.75,1.12-2.03-.13-.23-1.39-.19-1.63-.31-.28-.15-.89.14-1.35.23-.98.18-1.72.24-2.68.5-.36.1-.8.34-.72.71.04.18.2.31.31.47.35.51.1,1.2.16,1.81,0,.09.03.19.1.25.05.04.11.06.17.08.49.15.97.31,1.46.46.72.23,1.45.46,2.2.51.33.02.66,0,.99,0"/>
        <path class="cls-30" d="M39.09,13.97c.57-.29.74-.89.83-1.43.19-1.13.23-2.28.13-3.43-.02-.24-.09-.53-.36-.62-.09-.03-.19-.03-.29-.03-.96,0-1.92,0-2.88,0-.51,0-1.12.05-1.38.41-.11.16-.13.35-.14.54-.1,1.34-.18,2.73.44,3.96.1.2.23.41.46.52.18.09.39.1.6.12.7.05,1.41.1,2.11.15l.48-.21Z"/>
        <path class="cls-29" d="M29.81,15.13c.02-.4-.05-.8-.12-1.2-.03-.19-.07-.37-.15-.55-.05-.12-.13-.23-.17-.35-.04-.12-.04-.24-.04-.36,0-.31.02-.62.06-.93.03-.21.07-.42.1-.63l.1-.54c.02-.14.06-.28.18-.37.12-.08.28-.09.44-.09.39,0,.79,0,1.18,0,.11,0,.22,0,.31.03.1.03.18.09.27.14.17.09.37.13.56.18.57.14,1.14.32,1.68.53.22.09.44.18.58.35.08.09.13.2.22.29.19.2.53.3.61.55.02.08.02.16.03.25.03.17.17.32.2.49.06.28-.16.56-.43.73s-.6.26-.89.41c-.24.12-.46.28-.73.36-.22.07-.45.08-.68.1-.44.05-.87.15-1.3.25-.3.07-.6.14-.87.27-.3.14-.57.36-.91.37l-.26-.27Z"/>
        <path class="cls-49" d="M32.17,13.02c-.98-.12-1.98.06-2.88.52-.29.15-.58.33-.87.48-1.06.51-2.24.53-3.39.5-.38-.01-.8-.04-1.08-.34-.27-.29-.33-.76-.32-1.18s.09-.85.03-1.27c-.04-.29-.15-.55-.21-.84-.07-.35-.07-.71-.07-1.06,0-.68,0-1.36,0-2.04,0-.19,0-.39.07-.57.09-.25.28-.42.47-.58.38-.33.77-.66,1.22-.84.15-.06.31-.1.46-.16.16-.07.3-.17.46-.24.39-.19.81-.26,1.23-.31,1.12-.13,2.25-.15,3.38-.06.29.02.58.06.87.13.24.06.48.16.72.26.21.09.42.17.63.26.18.07.36.15.49.31.2.26.18.66.05.97s-.34.57-.51.85c-.24.41-.4.88-.46,1.37-.02.2-.03.4-.08.59-.04.17-.12.32-.18.48-.26.7-.2,1.49-.14,2.24l.1.53Z"/>
        <path class="cls-1" d="M33.6,7.07c-1.41.92-2.52,2.39-2.98,4,1.63.17,3.47.5,4.97.69,1.64-2.05,1.51-6.02-1.99-4.69Z"/>
      </g>
      <g id="beard">
        <path class="cls-8" d="M38.77,13.83c-.85-.67-2.02-.7-3.1-.7-1.09,0-2.18,0-3.27,0-.25,0-.52,0-.74.11-.51.25-.63.91-.63,1.48,0,.59-.37.22-.62-.58-.38-1.21-1.12-2.56-2.38-2.66l-.3.45c-.22,1.93-.39,4.09.8,5.62.64.83,1.59,1.35,2.5,1.85,1.73.94,3.5,1.89,5.45,2.19.42.07.87.09,1.24-.11.76-.42.74-1.51.61-2.37-.02-.11-.03-.22-.09-.32-.07-.11-.19-.18-.31-.24-.97-.5-2.04-.79-3.12-.86-.49-.03-1-.02-1.49-.08.21-.06.4-.18.51-.37.09-.15.12-.33.15-.51.11-.61.21-1.21.32-1.82.01-.06.02-.12.05-.16.06-.08.17-.11.27-.12,1.27-.18,2.58-.08,3.81.29l.18-.09c.22.14.53-.1.53-.36s-.18-.49-.39-.65Z"/>
      </g>
      <g id="hair">
        <path class="cls-20" d="M28.04,10.73c.16.73.11,1.05-.37,1.93s-.62,2.31-1.88,3.32-2.7.16-3.88,1.07-3.18.85-3.85.05-1.44-1.24-1.2-2.17.06-2.01.45-2.9-.26-4.18-.26-4.76-.41-2.59.29-3.1,2.92-1.96,3.22-2.22,4.4-1.53,5.3-1.4,4.01-.4,5.03-.26,4.15,1.31,5.01,2.23,2.28,1.53,2.78,2.06,1.6,1.5,1.56,2.19-.62,1.6-1.85,1.45-2.63.32-3.56-.34-1.76-1.12-2.57-.61-3.43,1.09-3.62,1.02-.77,1.69-.61,2.43Z"/>
        <path class="cls-21" d="M32.3,1c-1.48-.5-1.32-1.1-2.73-.98s-5.27-.26-6.27.38-2.23.74-2.8,1.94-.24,1.77.62,1.77,3.52.36,4.5.17,4.07-.62,4.79-.81,2.56-.96,2.47-1.41-.57-1.05-.57-1.05Z"/>
        <path class="cls-12" d="M18.17,8.32l-.34-.56c-.15-.25-.3-.5-.37-.78-.05-.21-.05-.43-.04-.65,0-.36,0-.72.01-1.08,0-.09,0-.19.04-.28.04-.1.11-.18.17-.26.17-.24.25-.53.37-.81.25-.57.69-1.04,1.14-1.46.28-.26.57-.52.93-.64.27-.09.55-.1.83-.11.71-.02,1.43-.04,2.1.16.21.07.42.16.59.3.24.2.38.5.51.78.16.34.32.68.48,1.02.02.05.05.11.04.16-.01.06-.05.1-.1.14-1.01.96-2.11,1.87-3.38,2.47-.57.27-1.17.48-1.63.9l-1.38.7Z"/>
        <path class="cls-20" d="M36.1,9.04c-.18-.21-.36-.42-.55-.62-.91-.96-2.08-1.68-3.34-2.08-1.58-.5-3.28-.48-4.93-.4-.76.04-1.52.09-2.28.15-.39.03-.78.07-1.14.22-.6.25-1.03.78-1.43,1.29-.29.37-.58.73-.87,1.1-.36.45-.73.92-1.25,1.18-.06.03-.12.06-.18.06-.19.01-.33-.16-.44-.31-.31-.45-.63-.91-.94-1.36-.31-.44-.62-.99-.42-1.48.16-.4.61-.59,1.03-.68s.86-.1,1.25-.29c.46-.23.77-.68,1.21-.95.43-.27.99-.37,1.3-.76.22-.27.28-.64.36-.98.04-.16.09-.34.24-.42.22-.12.48.06.7.19.48.28,1.06.33,1.62.37.59.04,1.18.08,1.76-.02.55-.1,1.08-.32,1.63-.41.94-.16,1.92.07,2.77.49s1.61,1.02,2.34,1.64c-.22-.04-.46.08-.54.29-.11.25.02.56.23.74s.47.28.72.4c.45.22.87.52,1.22.88.46.47.81,1.2.48,1.77-.12.08-.31.06-.4-.06l-.14.07Z"/>
        <path class="cls-21" d="M31.2,5.37c-.06-.37,1.42-1.07,1.84-1.07,1.18-.03,2.36-.05,3.55-.08.76-.02,1.56-.02,2.21.32.96.51,2.3,2.64,2.26,3.64,0,.13-.02.26-.09.38-.11.17-.33.25-.55.31-.51.13-1.04.19-1.57.24-.7.07-2.41.14-3.11.21-.34.03-.69-.93-1.03-.96-.97-.09-1.8-.72-2.26-1.5s-1.26-1.49-1.26-1.49Z"/>
        <path class="cls-23" d="M20.43,10.07c.12.15,0,.36-.15.48s-.33.23-.36.41c-.02.1.02.21.01.31-.01.11-.08.21-.15.3-.61.77-1.63,1.2-2.6,1.08-.05,0-.1-.01-.15-.04-.18-.09-.16-.36-.11-.55.14-.66.21-1.34.2-2.02,0-.28-.02-.56,0-.83.06-.58.33-1.16.79-1.51s1.13-.46,1.65-.19c.6.31.88,1,1.11,1.64.05.13.04.34-.09.34l-.16.59Z"/>
        <path class="cls-2" d="M30.17,3.39c.66-8.2,12.35,4.07,4.93,2.56-1-1.98-4.05-1.04-4.93-2.56Z"/>
      </g>
      <g id="Eye">
        <g id="eye">
          <path class="cls-14" d="M35.55,10.76c-.21-.05-.45-.1-.63.03-.08.06-.14.14-.17.24-.17.44.12.96.53,1.2s.92.25,1.39.22c.17,0,.36-.03.48-.15.16-.17.13-.46-.02-.64s-.37-.28-.58-.37c0,0-.55-.41-1-.53Z"/>
          <path d="M35.55,10.77c-.22-.05-.5-.08-.64.09-.14.17-.14.41-.08.6.25.86,1.53,1.06,2.25.79.35-.37-.17-.8-.54-.94-.3-.23-.63-.44-.99-.55h0ZM35.55,10.75c.36.09.73.32,1.02.5.22.09.46.17.63.38.62,1.01-.87.99-1.49.87-.49-.08-1-.45-1.09-.98-.05-.26.02-.55.22-.73.23-.18.5-.1.72-.04h0Z"/>
        </g>
        <path class="cls-20" d="M34.68,10.03c.86-.3,2.1-.42,2.88.22.27.2.5,1.1.2,1.11,0,0-.82-.32-.82-.32-.22-.08-.37-.3-.61-.43-.47-.25-1.04-.41-1.64-.48-.05,0-.06-.08-.01-.1h0Z"/>
        <g>
          <ellipse class="cls-58" cx="36.43" cy="11.88" rx=".53" ry=".41"/>
          <g>
            <ellipse class="cls-20" cx="36.62" cy="11.97" rx=".34" ry=".32"/>
            <path class="cls-14" d="M36.76,11.81c.07-.01.11.16.09.25,0,.02,0,.03-.02.05-.01.02-.03.02-.05.03-.06.02-.13.02-.19-.02s-.09-.11-.07-.17c0,0,.18.08.24-.15Z"/>
          </g>
        </g>
      </g>
      <g id="mouth">
        <path id="open" d="M37.69,17.02s.08-1.09.08-1.11-.62-.05-.69-.06-.64-.02-.72-.03-.27.01-.32.04-.2.13-.22.16-.06.19-.05.23.06.25.09.28.25.24.32.26.58.24.67.25.55.12.61.13.18.05.2.04.03-.19.03-.19Z"/>
        <g id="teeth">
          <path class="cls-14" d="M37.96,15.97c0,.12-.02.25-.05.32s-.02.06-.05.07-.6-.06-.83-.13-.87-.32-.89-.33-.01-.05,0-.06.14-.02.21-.01.48.05.55.05.46.05.54.05.5.05.5.05Z"/>
          <path class="cls-14" d="M37.87,17.03c.09.03.02-.3.02-.32s-.41.09-.54.08-1.04-.28-1.14-.29-.19.05-.19.05c0,0,.08.07.11.09s.43.25.51.27.52.1.59.1.62.02.63.02Z"/>
        </g>
        <path id="lips" class="cls-25" d="M38.05,15.72c0-.16-.13-.14-.26-.11s-.53.15-.73.17-.85-.08-.97,0-.41.28-.41.44.1.46.24.58.61.28.97.41.91.3,1,.24.48-.35.31-.53-.41-.12-.48-.1-.77.05-.94,0-.81-.36-.84-.44-.18-.2.03-.34.28-.14.41-.13.77.09.97.1.53.1.6.06.1-.14.1-.34Z"/>
      </g>
    </g>
    <g id="back-arm-assembly">
      <g id="back-arm">
        <g>
          <ellipse class="cls-45" cx="25.25" cy="33.25" rx="6.57" ry="7.9" transform="translate(-.05 .03) rotate(-.08)"/>
          <path class="cls-45" d="M38.71,55.13c.75,2.19-.08,2.57-1.26,3.55s-3.35,0-3.35,0c0,0-5.78-5.2-6.56-6.56s-3.29-5.08-3.62-6.87-.47-5.5-.33-6.14.45-6.37.45-6.37l2.17.06s3.53,3.62,4.2,4.72,1.57,4.96,1.6,6.17,6.71,11.43,6.71,11.43Z"/>
          <path class="cls-45" d="M23.74,42.66c.46.62,1.37,1.6,2,1.14s1.69-3.44,1.14-4.03-1.53-1.06-1.64-1.81.34-3.48.12-3.99-1.12-.91-1.82-1.58-2.08-.81-2.66-.45-1.72.9-1.63,1.34.72,1.82,1.18,2.3,2.27,3.45,2.34,4.3.97,2.77.97,2.77Z"/>
          <path class="cls-45" d="M30.89,34.74c1.14,1.56,2.35,4.24,2.38,5.32s-.31,2.46-.78,3.36-1.35,2.19-1.76,2.39-1.15-.17-.97-1.45.92-3.7.38-4.83-.61-3.24-1.3-3.97-.65-2.02-.31-2.01,2.37,1.19,2.37,1.19Z"/>
          <path class="cls-45" d="M28.72,55.13s-2.02-1.65-2.91-2.39-3.03-1.75-3.45-2.47-.8-1.41-1.1-2.78-.92-4.26-1.14-5.05-.21-2.11.26-1.96.94,1.42,1.08,2.27,1.14,3.73,1.77,4.39,3.37,5.25,4.46,6.06,2.33,2.41,1.86,2.32-.83-.4-.83-.4Z"/>
          <path class="cls-45" d="M18.88,32.27c-.55,1.26,1.23,10.25,2.92,13.49s3.3,7.18,6.62,9.26c3.32,2.08,7.12,3.08,7.12,3.08,0,0-2.54-2.56-3.83-4.07s-6.18-6.69-6.52-8.23-1.53-6.49-1.37-7.51.57-6.11.57-6.11l-5.49.09Z"/>
          <path class="cls-45" d="M23.08,44.4c1,.64.99.98,1.31.28s-.33-2.58-.54-3.44-.58-3.13-1.21-3.8-1.65-1.61-2.07-1.08-.07.2-.1,1.08,1.29,4.31,1.24,5.02-.4,1.04-.14,1.38,1.51.55,1.51.55Z"/>
          <path class="cls-45" d="M37.34,55.83s-3.76-5.53-4.28-6.43-1.31-2.78-1.5-2.99-2.32-1.56-2.81-1.17-2.36.84-2.55,1.48,1.07,2.88,1.59,3.43,5.19,5.37,5.65,5.99,2.12,2.6,2.78,2.25,1.25-.91,1.39-1.31-.27-1.26-.27-1.26Z"/>
        </g>
        <g>
          <ellipse class="cls-15" cx="25.25" cy="33.25" rx="6.57" ry="7.9" transform="translate(-.05 .03) rotate(-.08)"/>
          <path class="cls-53" d="M38.71,55.13c.75,2.19-.08,2.57-1.26,3.55s-3.35,0-3.35,0c0,0-5.78-5.2-6.56-6.56s-3.29-5.08-3.62-6.87-.47-5.5-.33-6.14.45-6.37.45-6.37l2.17.06s3.53,3.62,4.2,4.72,1.57,4.96,1.6,6.17,6.71,11.43,6.71,11.43Z"/>
          <path class="cls-13" d="M23.74,42.66c.46.62,1.37,1.6,2,1.14s1.69-3.44,1.14-4.03-1.53-1.06-1.64-1.81.34-3.48.12-3.99-1.12-.91-1.82-1.58-2.08-.81-2.66-.45-1.72.9-1.63,1.34.72,1.82,1.18,2.3,2.27,3.45,2.34,4.3.97,2.77.97,2.77Z"/>
          <path class="cls-45" d="M30.89,34.74c1.14,1.56,2.35,4.24,2.38,5.32s-.31,2.46-.78,3.36-1.35,2.19-1.76,2.39-1.15-.17-.97-1.45.92-3.7.38-4.83-.61-3.24-1.3-3.97-.65-2.02-.31-2.01,2.37,1.19,2.37,1.19Z"/>
          <path class="cls-32" d="M28.72,55.13s-2.02-1.65-2.91-2.39-3.03-1.75-3.45-2.47-.8-1.41-1.1-2.78-.92-4.26-1.14-5.05-.21-2.11.26-1.96.94,1.42,1.08,2.27,1.14,3.73,1.77,4.39,3.37,5.25,4.46,6.06,2.33,2.41,1.86,2.32-.83-.4-.83-.4Z"/>
          <path class="cls-15" d="M18.88,32.27c-.55,1.26,1.23,10.25,2.92,13.49s3.3,7.18,6.62,9.26c3.32,2.08,7.12,3.08,7.12,3.08,0,0-2.54-2.56-3.83-4.07s-6.18-6.69-6.52-8.23-1.53-6.49-1.37-7.51.57-6.11.57-6.11l-5.49.09Z"/>
          <path class="cls-36" d="M23.08,44.4c1,.64.99.98,1.31.28s-.33-2.58-.54-3.44-.58-3.13-1.21-3.8-1.65-1.61-2.07-1.08-.07.2-.1,1.08,1.29,4.31,1.24,5.02-.4,1.04-.14,1.38,1.51.55,1.51.55Z"/>
          <path class="cls-28" d="M37.34,55.83s-3.76-5.53-4.28-6.43-1.31-2.78-1.5-2.99-2.32-1.56-2.81-1.17-2.36.84-2.55,1.48,1.07,2.88,1.59,3.43,5.19,5.37,5.65,5.99,2.12,2.6,2.78,2.25,1.25-.91,1.39-1.31-.27-1.26-.27-1.26Z"/>
        </g>
      </g>
      <g id="back-glove">
        <path class="cls-41" d="M38.1,54.27s-2.71,3.08-3.45,3.6-.83.61-.83.61c0,0,4.11,5.86,5.12,6.93s3.46,5.25,4.65,4.65.83-2.19,1-3.22.28-1.75-.47-2.54-3.5-2.41-2.6-3.6,1.21-2.81-.15-4.07-3.27-2.36-3.27-2.36Z"/>
        <path class="cls-39" d="M46.08,62.27c1,1.25,2.58,1.43,1.6,2.35s-1.73,1.98-2.57,1.28-2.54-1.29-3.58-2.5-1.6-2.53-.58-3.4,1.86-1.75,2.43-1.24,2.69,3.51,2.69,3.51Z"/>
      </g>
    </g>
    <g id="back-leg-assembly">
      <g id="back-shoe">
        <path class="cls-52" d="M19.74,121.56c.18-.67.45-1.81.18-2.05s-1.81-1.26-3.59-1.65-5.67-1.33-6.52-1.46-1.54-.28-2.1-.28-1.31.08-1.54.53-1.18,4.42-1.52,5.56-2.95,6.71-3.17,7.4-1.46,2.51-1.38,2.89.65,1.65,1.75,2.19,3.64,2.24,4.52,2.76,4.64,2.12,5.36,2.29,2.86.06,3.67.25,3.73,1.21,4.42,1.62,2.68,1.55,3.06,1.67.84.09,1.37-.56,1.63-2.37,1.94-3.15.72-1.65.34-2.32-.69-1.34-1.39-1.72-4.79-2.44-5.37-3.15-1.83-2.79-1.7-3.57,1.67-7.25,1.67-7.25Z"/>
        <path class="cls-22" d="M20.96,132.88c-.62-.65-1.23-1.12-1.27-1.98s-.49-3.58-.28-4.4.81-2.86.88-3.54-.02-1.74-.24-2.31-.86-1.74-1.72-1.8-2.96-.64-3.53-.43-1.47.41-2.41,1.52-1.96,5.18-2.06,6.18.43,3.49,1.34,4.69c.9,1.2,3.94,3.12,5.34,3.95s4.23,1.4,5.15,1.45,1.25-.6.8-1.25-2-2.08-2-2.08Z"/>
        <path class="cls-34" d="M11.72,126.5c.57.17,1.15.41,2.41.82s2.73.84,3.6,1.25c.87.41,1.7.91,1.6,1.34-.37,1.63,1.22,3.01,2.39,3.48,1.17.47,2.2,1.08,2.75,1.57s1.94,1.88,1.45,2.7-1.53,2.49-1.95,2.63-.68.21-1.54-.03-.59-1.63-1.25-2.3-4.18-2.81-4.69-3.73-2.51-3.55-3.11-3.96-2.63-1.39-2.64-2.02.99-1.75.99-1.75Z"/>
        <path class="cls-46" d="M10.84,131.93c-.08.51-.91,3.69-.03,4.27.88.58,2.98,2.1,4.24,2.52s1.57.3,2.93,1.11,3.44,1.65,3.77,1.85.88.71,1.31.35,1.59-1.84,1.34-2.26-2.72-.95-3.4-1.4-10.16-6.42-10.16-6.42Z"/>
        <path class="cls-52" d="M9.68,125.07s2.49,1.43,3.36,1.94,2.4,2.99,3.2,3.79c.8.81,2.92,3.24,4.1,4.16s5.06,3.11,5.02,3.65-1.11,2.46-1.6,2.45-5.2-3.93-7.53-4.97-4.34-1.13-5.21-2.2c-.87-1.07-2.27-1.8-2.19-3.25s.85-5.56.85-5.56Z"/>
        <path class="cls-17" d="M2.92,127.45c-.33.47-2.8,4.52-2.91,5.28s2.69,3.44,4.88,4.07,5.54,2.29,6.74,2.33c1.2.04,4.39.49,5.39.3s-.15-2.09-1.29-3.55-3.94-3.68-3.81-4.65.6-3.82.34-4.7-3.21-2.19-4.29-1.88-2.47.04-3.18.39-1.87,2.4-1.87,2.4Z"/>
      </g>
      <g id="back-leg">
        <path class="cls-26" d="M10.44,63.54c-.94-1.57-.96-4.51.82-7.2s4.26-5.62,5-5.88,3.8.73,4.63,1.89,3.92,3.52,4.96,4.47,5.36,3.48,6.37,4.78,1.72,2.17,1.57,3.68.41,7.56.51,9.21.06,6.72-.73,8.73-1.61,5.46-2.12,7.02-.91,3.84-1.21,4.48-2.87,6.27-3.14,7.16-2.79,5.95-3.09,6.96-2.17,7.4-2.37,8.62-1.32,3.41-1.73,4.47-.97,4.07-.95,4.67.49,2.55.23,2.74-.24.34-.99-.03-5.08-1.45-6.04-1.4-4.99,2.16-5.9,2.18-3.76.59-4.31,0-1.56-1-1.11-1.81,2.46-4.89,2.83-5.89,4.85-13.97,5.15-14.98,1.96-5.55,2.61-7.21,1.81-4.12,2.23-4.95,2.13-7.9,2.06-8.65-.72-5.48-.53-6.18,1.25-7.42,1.17-8.22-3.6-5.5-4.28-6.28-.34-.24-1.63-2.38Z"/>
        <path class="cls-26" d="M33.78,66.79c.26,4.02-3.04,9.25-7.37,9.54s-11.67,2.03-10.61-8.86c.39-4,5.36-8.16,9.69-8.44,4.33-.29,8.03,3.75,8.29,7.77Z"/>
        <path class="cls-18" d="M9.37,121.03c2.62.57,5.53-.29,7.49-2.21.38-.37.72-.77,1.06-1.18.39-.47.79-.93,1.18-1.4.78-.92,1.6-1.94,1.66-3.14.04-.79-.29-1.57-.78-2.17s-1.16-1.04-1.85-1.39c-.77-.39-1.65-.67-2.5-.45-.7.18-1.27.69-1.81,1.17-.8.72-1.6,1.43-2.4,2.15-.24.22-.49.44-.7.69-.25.3-.43.65-.62,1-.4.76-.8,1.52-1.21,2.28-.35.66-.71,1.34-.84,2.07s-.02,1.55.48,2.08l.82.49Z"/>
        <path class="cls-5" d="M20.04,89.02c-.87.22-1.8.53-2.3,1.68s-1.54,3.72-1.19,4.56,2.35,2.36,2.96,1.09,2.47-5.47,1.74-6.43-1.21-.9-1.21-.9Z"/>
        <path class="cls-44" d="M32.13,88.29c.1-.16,1.98-5.12,2.17-6s.23-6.1.45-6.86-.58-6.25-1.21-7.06-4.13-4.57-5.52-5.06-4.14-2.68-4.02-1.94,1.56,5.16,1.02,6.34-1.76,11.59-1.76,12.43-.89,7.32-1.39,8.25-3.23,3.65-2.88,4.19.31,3.13,1.72,2.64,4.54-2.2,5.05-2.51,6.35-4.41,6.35-4.41Z"/>
        <path class="cls-47" d="M18.77,115.2c.64-1.18,2.69-5.09,3.23-6.1s1.48-5.58,2.21-6.82,2.59-6.14,3.5-8.05,3.84-4.68,2.18-5.45-3.12-.85-4.47.02-4.23,4.12-6.33,5.04-2.49,2.42-4.36,5.37-.5,3.1-.89,5.43-2.36,3.78-2.75,5.38-2.1,5.32-1.92,6.43,2.57-.2,3.75-.78,5.85-.48,5.85-.48Z"/>
        <path class="cls-5" d="M20.68,121.63c-.03.15-3.34,1.41-4.37,3.24-1.03,1.84-4.28,2.97-6,3.62-1.72.66-4.94,2.36-5.58,2.36-.28,0-.65.17-1.29.01-.63-.15-.05-1.41.72-1.97.38-.27,1.43-.65,2.5-1.02,1.06-.35,2.13-.68,2.64-.89,1.02-.4,6.88-4.09,7.45-4.31.57-.22,1.16-1.76.82-1.85-.34-.1-3.26,1.18-4.87,2.12-1.32.76-2.77.52-4.14.4-.3-.03-.59-.04-.87-.04-1.61-.01.01-1.61.79-2.37.09-.09.21-.16.36-.24.26-.12.57-.21.93-.29,1.31-.29,3.12-.37,3.9-.52,1.13-.21,3.95-1.88,4.42-2.77.32-.59,1.4-3.05,2.25-4.93.05-.13.12-.26.17-.39.36-.78.65-1.41.82-1.73.56-1.05.33-2.81-1.23-2.9-1.56-.1-1.68-2.05-1.05-2.08.62-.01,3.31-.43,4.21-1.56.91-1.14,3.42-8.94,3.92-9.98.15-.29.53-1.29,1.04-2.59.3-.75.62-1.61.97-2.49,1.18-3,2.52-6.28,3.06-6.82.97-.98,1.95-.18,2.04.6.09.77-3.29,9.85-3.48,11.58-.2,1.72-2.61,5.24-3.24,6.31s-3.54,8.48-4.1,8.77c-.55.28-1.93,6.81-2.64,8.67-.72,1.86-.13,3.88-.17,4.03Z"/>
        <path class="cls-47" d="M16.76,122.7c-.57.22-6.44,3.91-7.45,4.31-.51.21-1.59.54-2.64.89.43-1.02,1.18-2.8,1.91-4.52,1.36.11,2.81.36,4.14-.4,1.61-.94,4.54-2.21,4.87-2.12.34.09-.25,1.63-.82,1.85Z"/>
        <path class="cls-22" d="M3.44,130.88c-1.16.37-2.7-.04-2.86-.7-.17-.65,4.5-13.19,4.96-14.08.47-.89,2.67-9.28,3.01-10.14.34-.85.48-2.22,1.25-2.65.76-.44,3.59-6.61,4.35-7.89s1.02-9.58,1.17-10.61c.05-.27.22-.84.46-1.5.64-1.76,1.67-4.25,1.67-4.25,0,0,1.02-2.58,1.65-4.08.26-.59.45-1.01.5-1.04.09-.06.82.68,1.59,1.65.73.89,1.5,1.96,1.87,2.74.76,1.62-2.73,9.29-3.68,10.5-.08.1-.17.27-.27.47-.21.45-.45,1.11-.69,1.89-.35,1.13-.72,2.51-1.05,3.85-.08.33-.15.65-.23.97-.4,1.74-.68,3.3-.71,3.98-.09,1.83-.44,4.86-1.05,5.89s-3.56,4.51-4.49,6.24c-.19.36-.31.79-.37,1.27-.14,1.04-.05,2.28,0,3.34.03.76.03,1.44-.09,1.9-.08.31-.32.96-.64,1.78-.08.2-.17.4-.25.62-.29.71-.62,1.52-.96,2.32-.72,1.72-1.47,3.5-1.91,4.52-.15.39-.27.67-.32.81-.35.97-1.74,1.81-2.91,2.17Z"/>
        <path class="cls-26" d="M16.88,74.22c.12.07,4.83,1.81,6.36,1.66s6.62-1.02,7.4-1.4,3-1.78,2.37-3.43-.63-6.16-.52-6.82-4.9-4.02-6.48-4.74-4.98,4.45-4.98,4.45l-4.16,10.28Z"/>
        <path class="cls-9" d="M18.15,72.36s-1.6,5.23-1.75,6.03-.89,4.59-.54,5.97,2.58,6.15,2.35,6.63,3.66.67,3.66.67c0,0,2.97-6.87,2.74-7.89s.44-10.59,0-10.8-6.48-.62-6.48-.62Z"/>
      </g>
    </g>
    <g id="front-leg-assembly">
      <g id="front-shoe">
        <path class="cls-11" d="M49.31,118.42c-.16-.32-.05-.67-.25-1.04s-1.16-.78-2.21-.6-4.41,1-5.3,1.45-1.97,1.04-2.17,1.3-.07,1.31.03,1.83.23,5.79.49,6.47.53,2.85.55,3.35.89,3.22,1.51,4.07.73,1.33,1.42,1.57,1.23.17,1.95-.08,2.7-.47,4.1-.82,4.06-1.26,5.57-1.57c1.51-.31,5.41-2,6.08-2.22s1.07-.38,1.3-.87.5-1.43.31-2.56-.73-2.31-1.15-2.72-4.49-.48-5.89-.72-3.01-.5-3.36-.99-1.67-1.86-2.03-2.9-.95-2.98-.95-2.98Z"/>
        <path class="cls-27" d="M39.39,124.67c.09.88.53,3.88.71,4.77s2.11,4.86,2.6,5.53,1.55,2.03,2.53,1.95c.97-.08,4.58-.1,5.77-.65s3.18-1.05,3.65-2.26-.55-3.47-1.42-4.34-4.42-.97-5.69-1.86-2.88-4.61-3.2-5.48-4.75-.57-4.85.06-.08,2.27-.08,2.27Z"/>
        <path class="cls-11" d="M49.18,133.88c-1.43-.22-3.79-.87-4.96-.73-1.16.14-2.96-.5-3.19-1.04s-.72-1.08-.15-1.27,1.48.19,2.23.03,4.54.49,5.33.38,2.32-.5,2.18.39-1.45,2.24-1.45,2.24Z"/>
        <path class="cls-10" d="M59.34,125.38c.57.45,2.22,1.31,2.21,2.5s.62,3.02-.74,3.86c-1.37.84-7.11,2.81-9.5,2.89-2.39.08-3.44.05-3.07-.53s1.06-2.12.22-2.84-3.45-1.04-3.88-1.75.65-4.42,1.53-3.32,4.35,3.15,5.46,2.73,7.77-3.53,7.77-3.53Z"/>
        <path class="cls-43" d="M49.31,118c.29.5,3.39,5.74,4.35,6.3s3.42.9,4.78.71,3.11.58,2.56,2-3.01,4.32-4.41,4.24-4.7.27-5.66-.62-4.44-1.43-5.5-2.24-3.24-2.93-2.9-4.2,1.69-4.94,1.97-5.54,4.81-.66,4.81-.66Z"/>
      </g>
      <g id="front-leg">
        <path class="cls-54" d="M38.17,60.67c-1.25,5.67-1.95,11.87-8.35,13.9-3.34,1.06-3.96,1.41-5.39.99-1.31-.38-2.7-1.37-6.75-5.24-1.33-1.27-2.48-4.5-2.49-5.7-.09-2.22.18-4.25,1.48-6.21,1.43-2.16,4.36-3.55,6.65-4.27,6.41-2.04,17.33-4.77,14.85,6.54Z"/>
        <path class="cls-54" d="M21.91,74.22c-.77-.94-2.81-3.32-3.4-4.24s-1.85-3.63-1.96-4.97-.25-2.19.49-2.8,2.88-2.01,3.91-2.77,8.99-2.83,9.95-3.69,4.97-2.28,5.48-2.34,2.61,1.42,3.4,3.05.68,9.06.64,10.43.01,2.83.35,3.85,3.43,8.08,4.21,9.25,4.38,6.99,4.53,8.39,1.5,6.17,1.53,7.96.43,13.82-.06,15.2-1.09,6.64-1.23,7.53-.25,2.15-1.19,2.92-2.01,2.01-2.73,2.54-5.12,2.5-5.76,3.12-.41.86-1.05.88-1.36-.16-1.37-.75-.13-5.8-.4-6.37-1.9-12.21-1.43-13.91,2.33-5.9,2.15-6.72-.92-3.95-1.86-4.75-4.27-5.13-5.73-7.38-3.32-8.3-3.77-8.92-4.72-5.53-4.72-5.53Z"/>
        <path class="cls-39" d="M27.28,81.14c-.31-.37-2.58-2.94-2.91-3.41s-3.87-4.88-4.41-6.11-1.26-5.04-1.23-5.65,1.32-1.44,1.32-1.44l3.72-.85s4.91,3.93,5.01,4.17-2.13,8.03-1.79,8.88,2.29,4.06,2.2,4.16-1.91.25-1.91.25Z"/>
        <path class="cls-50" d="M39.42,126.54s1.38.81,2.42.61,3.87-1.95,4.65-2.83c.78-.88,1.31-4.27,1.66-5.31s.9-16.44,1.19-17.45.06-4.47-.73-5.55-1.87-3.54-3.67-3.41-4.1,1.96-4.65,2.83-2.55,9.51-2.6,10.74-.25,6.81-.32,8.45,2.05,11.93,2.05,11.93Z"/>
        <path class="cls-24" d="M39.47,67.52s3.17,5.98,4.44,8.92,4.94,9.28,5.37,10.3,1.91,7.61,1,7.56-2.6-1.5-3.6-2.99-3.33-5.55-4.13-7.41-2.23-8.16-3.14-9.63-2.91-5.3-2.56-6.11,2.61-.64,2.61-.64Z"/>
        <path class="cls-48" d="M37.92,96.84s-1.56,6.43-2.1,7.85-1.47,5.25-1.22,6.89,1.34,6.61,1.51,8.14.91,7,.97,7.19,1.5,1.51,1.76,1.33,3.74-1.7,4.19-1.95-1.78-2.02-2.29-3.15-1.77-6.45-1.55-7.55c.22-1.11.6-9.91.91-11.32s2.4-4.51,2.35-5.66-.32-4.35-1.83-5.22-3.31-.43-3.57-.24.88,3.7.88,3.7Z"/>
        <path class="cls-6" d="M37.36,98.12c-.24-1.09.07-1.63-.68-2.67s-3.02-2.85-4.04-4.24-4.97-8.46-5.72-10.13-2.54-7.07-3.18-8.27,2.32-4.3,3.21-4.7,2.96,3.85,3.79,4.98,7.8,12.56,8.18,14.49,2.3,9.77,1.96,10.5-3.52.04-3.52.04Z"/>
        <path class="cls-33" d="M26.71,71.13s3.83,5.58,5.65,8.84,4.8,11.58,5.2,12.56,2.08,2.43,3.39,3.14,7.11.43,7.11.43c0,0,1.32-1.99,1.1-2.93s-2.29-6.94-2.82-7.89-4.2-8.15-4.62-9.27-3.71-6.61-4.44-7.51-3.9-2.53-5.71-1.77-4.85,4.4-4.85,4.4Z"/>
        <path class="cls-54" d="M18.41,64.94s8.37-2.93,10.57-4.46c2.2-1.53,3.48-2.38,4.44-1.49s4.79,5.6,5.38,7.06,2.67,5.4,2.48,6.01-1.53,1.04-3.53-.19-8.3-.12-10,.8c-1.7.92-2.98,2.96-4.3,1.79s-2.9-2.47-3.29-3.76-1.74-5.76-1.74-5.76Z"/>
        <path class="cls-37" d="M50.09,119.41s.52-4.49.88-5.62,1.31-11.22,1.02-13.14-1.66-8.9-1.66-8.9c0,0-2.33.59-2.96,1.36s-.84,8.27-1.06,10.25c-.22,1.98-1.16,8.82-1,10.12s.32,5.53.01,6.31,3.78,1.51,3.78,1.51l.98-1.9Z"/>
        <path class="cls-54" d="M33.32,59.34c1.13,2.59-1.23,6.13-5.27,7.89-4.04,1.77-8.23,1.09-9.37-1.5-1.38-3.12,1.23-6.13,5.27-7.89s8.24-1.1,9.37,1.5Z"/>
      </g>
    </g>
    <g id="Body">
      <path class="cls-38" d="M19.68,19.44c.32.29,1.18.32,1.72.57s1.21,1.28,1.79,1.47,1.85.93,3.57,1.09,3.19.51,3.96.51,2.74.51,2.97.48,2.52.73,3.03,1.12,4.12,3.61,4.15,6.99-.19,5.39-.51,6.73-1.24,6.73-1.53,8.04-.73,3.93-.7,5.27.22,4.72.1,5.71-.03,3.45-.77,4.12-1.88,1.18-3.35,1.28-7.02.93-10.53.57-5.84-.48-7.63-1.5-2.2-1.66-2.43-1.79-.1-.99.03-2.07.48-3.61.16-4.5-1.34-12.86-1.28-14.04-.19-2.65-.45-3.03-1.69-3.29-1.69-4.24-.16-1.56.13-2.43.51-1.76,1.44-2.59,2.14-3.06,2.81-3.7,2.74-2.62,3.16-2.87,1.85-1.18,1.85-1.18Z"/>
      <path class="cls-40" d="M16.21,28.57c.27-2.04,3.64-3.18,5.44-3.78,1.14-.38,1.22-.28,3.12-.89,2.22-.71,2.33-.93,3.28-1.08.47-.07,2.5-.38,4.34.67.95.54,1.3,1.13,3.04,3.74,3.02,4.5,3.01,4.28,3.19,4.81,1.29,3.78-.44,8.47-1.85,8.6-1,.09-1.21-2.17-3.67-3.28-1.06-.48-1.2-.13-3.04-.59-3.13-.78-3.93-2.07-5.02-1.53-1.09.54-.59,1.99-1.88,3.1-1.5,1.3-4.24,1.11-4.83,0-.56-1.04,1.2-2.1.79-4-.29-1.32-1.26-1.43-2.29-3.7-.46-1.02-.69-1.53-.62-2.06Z"/>
      <path class="cls-19" d="M40.11,40.76c.35-1.99.71-3.97-.2-6.02-.56-1.26-1.65-2.66-2.35-2.45-.71.22-.39,1.92-.95,4.48-.83,3.81-2.37,3.83-2.99,7.19-.2,1.06-.8,4.29,1.05,6.6.33.41,1.58,1.97,2.75,1.67,1.26-.31,1.12-2.42,2.69-11.46Z"/>
      <path class="cls-38" d="M16.83,40.32c-2.22.26-4.2-3.32-4.67-4.17-.39-.71-.94-1.72-1.17-3.15-.5-3.12.92-5.67,1.74-7.15.89-1.6,2.72-4.31,5.91-5.87.24-.12.64-.46,1.23-.52,1.32-.12,2.84,1.03,3.23,2.31.57,1.87-1.66,2.69-2.66,6.03-1.14,3.8.95,5.44-.52,9.06-.28.68-1.32,3.25-3.1,3.45Z"/>
      <path class="cls-51" d="M12.26,35.61s-.19,9.02,0,10.23,1.49,6.75,1.67,7.51-.34,4.95.37,5.64,3.63,2.33,4.66,2.33,3.12.77,4.66.47.54-3.41.4-5.07-.95-12.33-.85-13.77.71-7.07-.06-8.08-4.27-1.82-6.51-2.02-4.08,1.3-4.34,2.76Z"/>
      <path class="cls-35" d="M37.98,50.95v6.8s-1.38,4.14-2.13,3.66-7.89.54-8.5.78-3.76.56-4.41-.58-1.09-2.93-1.03-4.09-.45-7.63-.58-9.38.05-5.71.31-6.79,2.05-2.5,4.28-2.7,8.2.03,9.17,0,3.8,1.21,3.42,2.12-.52,10.19-.52,10.19Z"/>
    </g>
    <g id="front-arm-assembly">
      <g id="front-arm">
        <path class="cls-4" d="M29.52,39.01c-1.85,2.54-7.64,4.03-11.43,1.27s-4.5-8.37-2.65-10.9,6.77-2.72,10.56.04c3.79,2.76,5.37,7.05,3.52,9.59Z"/>
        <path class="cls-55" d="M19.66,60.25c-.18-.25-.72-6.74-.44-7.13s2.23-1.52,2.31-1.63-.12-2.52-.25-2.67-3.01-1.48-3.01-1.48c0,0-1.92.2-2.12.47s-1.07,3.66-1.13,3.91,1.15,4.69,1.33,4.93,2.6,4.32,2.6,4.32l.71-.73Z"/>
        <path class="cls-28" d="M7.13,48.82c.26.54,4.76,9.56,5.98,11.4s2.63,4.52,2.63,4.52c0,0,3.34-2.31,3.56-2.62s.72-1.72.72-1.72c0,0-1.77-4.9-1.61-5.67s-1.07-3.74-1.28-4.42-2.39-4.52-3.54-4.65-4.43-.09-4.68.5-1.77,2.68-1.77,2.68Z"/>
        <path class="cls-32" d="M11.97,35.83c-.48.66-2.98,5.47-3.16,6.29s-2.29,4.61-2.15,5.48.02,2.5.82,3.44,2.57,3.95,2.74,3.71,1.31-1.23,1.32-1.82-.58-4.33-.4-5.8.68-5.01.88-6.41,1.49-3.83,1.63-4.85-1.69-.04-1.69-.04Z"/>
        <path class="cls-16" d="M28.42,42.35c-.11.15-1.36,1.79-1.89,2.59s-1.19,2.86-2.28,4.26-2.81,3.29-3.25,3.08-3.67-1.13-4.04-2.58,1.24-6.91,2.54-8.45,4.52-4.82,5.92-5.28,3.97,1.05,4.39,1.78-1.4,4.61-1.4,4.61Z"/>
        <path class="cls-13" d="M16.01,38.41c-.41.65-2.37,5.86-2.74,6.94s-.7,2.27-1.97,2.3-2.04-.12-1.71-1.72.28-4.77.74-5.5,2.03-3.68,2.45-4.26,1.98-1.82,2.28-1.42.95,3.65.95,3.65Z"/>
        <path class="cls-36" d="M16.92,32.44c-.8.86-3.05,3.13-3.82,4.43s.54,2.18.62,3.54-.95,3.5-.71,4.63,1.48,3.82,2.17,2.88,3.82-7.04,4.55-8.29-2.81-7.2-2.81-7.2Z"/>
        <path class="cls-45" d="M17.46,50.01c.44-.83,2.51-7.11,3.08-7.89s5.16-6.84,5.16-6.84c0,0-6.88-4.95-7.23-5.2s-3.46.2-3.6.64-1.02,1.98.29,2.94,4.89,4.1,4.36,5.07-3.44,5.13-3.49,6.34-1.15,4.26-.67,4.9,1.28,1.58,2.1.05Z"/>
        <path class="cls-4" d="M15.39,29.43c-.62.85-1.7,1.84-2.55,3.18s-1.93,3.87-1.81,4.6,1.82.91,2.36.18,4.75-1.64,4.83-3.06-.66-4.63-1.34-5-1.49.1-1.49.1Z"/>
      </g>
      <g id="front-glove">
        <path class="cls-42" d="M14.77,61.96l4.62-4.24s4.61,3.77,4.36,4.97-1.2,3.87-1.72,4.59-1.7-2.11-2.27-2.95-4.99-2.37-4.99-2.37Z"/>
        <path class="cls-7" d="M15.69,61.13l-1.46,1.3s.5,2.14.42,2.4,1.61,3.7,1.61,3.7c0,0,3.99-1.47,4.3-1.68s.68-1.64.68-1.64c0,0-1.1-1.63-1.33-1.8s-4.22-2.28-4.22-2.28Z"/>
        <path class="cls-3" d="M15.28,64.66s-.92,1.38-1.29,2.1-.85,1.55-.1,2.53,2.3,2.54,2.61,2.81,1.24-.99,1.92-1.56,2.33-1.3,2.86-2.03,1.19-1.42,1.09-2.05-1.81-2.34-2.37-2.44-4.72.63-4.72.63Z"/>
      </g>
    </g>
  </g>
</svg>