<?xml version="1.0" encoding="UTF-8"?>
<svg id="Player_Attack" xmlns="http://www.w3.org/2000/svg" viewBox="0 0 90.23 165.96">
  <defs>
    <style>
      .cls-1 {
        fill: #e4e3df;
      }

      .cls-2 {
        fill: #885e42;
      }

      .cls-3 {
        fill: #272a33;
      }

      .cls-4 {
        fill: #f2c395;
      }

      .cls-5 {
        fill: #030c17;
      }

      .cls-6 {
        fill: #050d16;
      }

      .cls-7 {
        fill: #bdbb98;
      }

      .cls-8 {
        fill: #433c3f;
      }

      .cls-9 {
        fill: #091014;
      }

      .cls-10 {
        fill: #222e51;
      }

      .cls-11 {
        fill: #312626;
      }

      .cls-12 {
        fill: #7f888a;
      }

      .cls-13 {
        fill: #434853;
      }

      .cls-14 {
        fill: #06121c;
      }

      .cls-15 {
        fill: #d2d5c8;
      }

      .cls-16 {
        fill: #1b2a50;
      }

      .cls-17 {
        fill: #cccfbc;
      }

      .cls-18 {
        fill: #07121b;
      }

      .cls-19 {
        fill: #161d26;
      }

      .cls-20 {
        fill: #fff;
      }

      .cls-21 {
        fill: #4b5966;
      }

      .cls-22 {
        fill: #7c8689;
      }

      .cls-23 {
        fill: #2c3639;
      }

      .cls-24 {
        fill: #030d17;
      }

      .cls-25 {
        fill: #754936;
      }

      .cls-26 {
        fill: #d98155;
      }

      .cls-27 {
        fill: #92400d;
      }

      .cls-28 {
        fill: #2b3237;
      }

      .cls-29 {
        fill: #f8e6be;
      }

      .cls-30 {
        fill: #22242c;
      }

      .cls-31 {
        fill: #cbdbe2;
      }

      .cls-32 {
        fill: #363f48;
      }

      .cls-33 {
        fill: #142441;
      }

      .cls-34 {
        fill: #d0d2c5;
      }

      .cls-35 {
        fill: #bbbeaa;
      }

      .cls-36 {
        fill: #c6d7dd;
      }

      .cls-37 {
        fill: #e1e1d6;
      }

      .cls-38 {
        fill: #e8cfa4;
      }

      .cls-39 {
        fill: #38435d;
      }

      .cls-40 {
        fill: #efece3;
      }

      .cls-41 {
        fill: #13161a;
      }

      .cls-42 {
        fill: #da7e56;
      }

      .cls-43 {
        fill: #d9dacf;
      }

      .cls-44 {
        fill: #404761;
      }

      .cls-45 {
        fill: #c26524;
      }

      .cls-46 {
        fill: #3d4764;
      }

      .cls-47 {
        fill: #3b4765;
      }

      .cls-48 {
        fill: #36231f;
      }

      .cls-49 {
        fill: #f9ce9e;
      }

      .cls-50 {
        fill: #0a1b2d;
      }

      .cls-51 {
        fill: #0e1821;
      }

      .cls-52 {
        fill: #a14f1f;
      }

      .cls-53 {
        fill: #090d1a;
      }

      .cls-54 {
        fill: #102131;
      }

      .cls-55 {
        fill: #9d6352;
      }

      .cls-56 {
        fill: #0f1524;
      }

      .cls-57 {
        fill: #141920;
      }

      .cls-58 {
        fill: #202a4b;
      }

      .cls-59 {
        fill: #060d14;
      }

      .cls-60 {
        fill: #54626b;
      }

      .cls-61 {
        fill: #3c3f5a;
      }

      .cls-62 {
        fill: #babb9d;
      }

      .cls-63 {
        fill: #d38269;
      }

      .cls-64 {
        fill: #1d263e;
      }

      .cls-65 {
        fill: #232b2e;
      }

      .cls-66 {
        fill: #d98051;
      }

      .cls-67 {
        fill: #0f141b;
      }

      .cls-68 {
        fill: #efad81;
      }

      .cls-69 {
        fill: #9e6340;
      }

      .cls-70 {
        fill: #eedca7;
      }

      .cls-71 {
        fill: #080c15;
      }

      .cls-72 {
        fill: #404963;
      }

      .cls-73 {
        fill: #04080e;
      }

      .cls-74 {
        fill: #0d1c31;
      }

      .cls-75 {
        fill: #182747;
      }

      .cls-76 {
        fill: #d0cfc0;
      }

      .cls-77 {
        fill: #121d25;
      }

      .cls-78 {
        fill: #1f1d2a;
      }

      .cls-79 {
        fill: #000703;
      }

      .cls-80 {
        fill: #a1a384;
      }

      .cls-81 {
        fill: #9f5127;
      }

      .cls-82 {
        fill: #474c54;
      }

      .cls-83 {
        fill: #11182a;
      }

      .cls-84 {
        fill: #7a9093;
      }

      .cls-85 {
        fill: #3f3c3d;
      }

      .cls-86 {
        fill: #303e3f;
      }

      .cls-87 {
        fill: #9ca17d;
      }

      .cls-88 {
        fill: #6e3b29;
      }

      .cls-89 {
        fill: #7a585a;
      }

      .cls-90 {
        fill: #dd895b;
      }

      .cls-91 {
        fill: #dcd5d2;
      }

      .cls-92 {
        fill: #060f19;
      }

      .cls-93 {
        fill: #e1b88b;
      }

      .cls-94 {
        fill: #7c9095;
      }

      .cls-95 {
        fill: #112039;
      }

      .cls-96 {
        fill: #b88261;
      }

      .cls-97 {
        fill: #a4a784;
      }

      .cls-98 {
        fill: #141822;
      }

      .cls-99 {
        fill: #b4602f;
      }

      .cls-100 {
        fill: #3d4158;
      }

      .cls-101 {
        fill: #e9af80;
      }

      .cls-102 {
        fill: #ca8a60;
      }

      .cls-103 {
        fill: #754c24;
      }

      .cls-104 {
        fill: #f1c292;
      }
    </style>
  </defs>
  <g id="Player_UpperCut">
    <g id="front-shoe">
      <path class="cls-86" d="M20.57,145.89c1.34.72,2.29,2.02,2.54,3.52.66,4.06,1.07,8.17,1.2,12.28.01.46.02.93-.17,1.35-.18.38-.51.66-.84.91-1.04.75-2.23,1.27-3.49,1.49-3.23.56-6.49.54-9.75.51l-6.07-.05c-1.15,0-2.31-.23-3.31-.82-.23-.13-.43-.31-.54-.54-.13-.27-.13-.58-.12-.88.02-1.32.05-2.64.07-3.96.01-.73.05-1.52.55-2.05.4-.43,1.01-.57,1.55-.82.65-.3,1.21-.76,1.76-1.22,1.26-1.05,2.59-2.19,3.05-3.77.31-1.06.18-2.19.19-3.3s.22-2.3,1.01-3.06c.82-.79,2.06-.92,3.2-.97,2.41-.1,4.83,0,7.22.3l1.96,1.06Z"/>
      <path class="cls-32" d="M19.43,162.4c-3.25-.73-4.28-1.82-3.08-3.27-1.94-2.48-1.04-3.26,1.54-1.54,1.21-1.36,2.75-2.48,4.63-3.37,1.94,1.62,3.01,5.41,1.48,8.05-1.01,1.74-3.45.26-4.56.13Z"/>
      <path class="cls-67" d="M16.35,159.12c1.09,1.03,2.16,2.09,3.08,3.27-2.09-.25-5.48-.19-7.71-.19-2.72,1.54-6.32,1.54-10.79,0-.21-1.14.54-1.49,1.54-1.54,3.34-.49,6.93-1,10.79-1.54.28-2.52,2.84-2.9,3.08,0Z"/>
      <path class="cls-84" d="M17.89,156.04c1.35.44,1.33.95,0,1.54-.82.25-1.8.42-1.54,1.54h-3.08c-3.78-.58-7.38-1.1-10.79-1.54.38-.64.9-1.17,1.54-1.54,4.03-.47,8.14-.99,12.34-1.54,2.04-1.05,2.79-.4,1.54,1.54Z"/>
      <path class="cls-23" d="M10.18,151.41c2.43-.79,5.42-1.05,6.17,1.54.99.05,3.09-.06,3.22,1.21,2.41,2.08,1.39,3.16-1.68,1.87.24-1.04-.64-1.47-1.54-1.54-3.37,1.01-7.77,1.52-10.79,0v-1.54c-1.03-3.03.54-3.63,3.08-1.54.5-1.37,1.02-1.37,1.54,0Z"/>
      <path class="cls-13" d="M11.72,162.21c.09,1.03,1.44,1.16,1.36,3.49-4.24-2.67-9.18-.51-12.16-3.49h10.79Z"/>
      <path class="cls-36" d="M16.35,154.5c-3.38,2.98-8.16,1.11-12.34,1.54.36-.65.9-1.18,1.54-1.54h10.79Z"/>
      <path class="cls-79" d="M5.55,148.33c3.06-.66,4.86.07,3.08,3.08-1.06.43-2.05,1.04-3.08,1.54-1.27-.84-1.64-2.19-1.69-3.73-.04-1.3,1.06-1.58,1.69-2.43,1.12.45,1.1.96,0,1.54Z"/>
      <path class="cls-86" d="M13.26,159.12c-3.35,1.03-7.8,1.49-10.79,0v-1.54c3.44.88,8.22-1.96,10.79,1.54Z"/>
      <path class="cls-22" d="M13.26,159.12c-2.91,2.71-7.11,1.35-10.79,1.54v-1.54h10.79Z"/>
      <path class="cls-9" d="M22.52,154.21c-.12.65.56,3.9-.64,4.63-.83.51-2.58-1.7-3.98-1.27v-1.54c.76-.44,1.18-1.2,1.68-1.87.33-.44,1.21-.14,1.64-.27.62-.18.84-.07,1.31.32Z"/>
    </g>
    <g id="back-leg">
      <path class="cls-33" d="M51.73,139.25c1.49-4.89,2.23-7.34,4.12-10.24,1.91-2.95,4.07-5.3,4.6-9.1.33-2.37-.54-2.57-2.11-8.62-1.98-7.62-1.35-9.72-3.73-12.06-.83-.82-2.25-1.5-5.07-2.87-3.98-1.92-4.74-1.66-7.66-3.26-2.79-1.53-4.92-2.7-5.94-5.17-.89-2.17-.48-4.27-.29-5.27.29-1.49.76-3.94,2.49-5.07,2.48-1.63,5.07,1.09,11.59,1.82,2.03.23,1.33-.09,8.81-.29,9.61-.26,11.81.23,12.54,1.63.58,1.1-.31,1.7,0,4.02.35,2.67,1.83,4.23,2.87,5.74.69,1.01,1.43,4.07,3.06,10.05,1.04,3.8,1.56,5.72,1.72,6.8.2,1.31.64,4.67.1,9.29-1.34,11.44-6.51,12.03-6.22,19.91.18,5.02,2.41,8.16.38,12.26-.41.82-1.3,2.56-3.26,3.35-1.77.72-3.42.1-5.36-.48-5.75-1.71-7.26-2.86-9.57-2.01-1.2.44-1.81,1.18-2.59.86-.34-.14-1.13-.65-1.34-3.83-.24-3.75.63-6.7.86-7.47Z"/>
      <path class="cls-50" d="M63.98,89.64c3.98,1.2,3.35,3.61,2.34,7.06l2.31,5.22c1.4-.05,1.37.28.02.96-.15,1.32-.69,1.43-1.6.4,3.31,7.43,3.38,12.17.19,14.21,4.3.21,6.49,1.18,6.57,2.91.32.55.65,1.1,1.06,1.58.05,3.97-.02,8.17-.21,12.6l-1.07,4.5c-.49,1.35-1.07,1.33-1.72,0-2.49,3.89-8.39,11.6-12.15,5.75-2.72-3.28-3.54-6.31,1.35-5.68.96-.95,1.06-1.99.3-3.1-3.08.37-3.47-2.25-3.3-4.65.06-.74.2-2.3-.07-3-.29-3.73.76-6.36,3.15-7.88.76-7.41-.4-14.86-3.48-22.35l1.95-1.18c-2.2-1.58-2.28-2.37-.22-2.38l-2.94-3.6c-.39,1.34-.87,1.27-1.42-.08-1.33-2.14-.94-3.36,1.57-2.94,2.93-1.13,6.33-1.91,7.38,1.66Z"/>
      <path class="cls-18" d="M61.36,136.05c1.62,1.16,1.57,2.21-.3,3.1-1.48,1.52-1.83,3.66-1.35,5.68-2.63,1.01-3.04,2.12-1.24,3.31,4.59-2.17,9.13-1.64,13.62,1.59,1.36.03,1.39.53.25,1.44l-.49,3.33c-.44,1.35-.95,1.33-1.54,0-5.58-1.61-12.97-3.01-13.88,3.08-1.82,2.38-3.46,1.32-4.93-3.17-.12-.79-1.62-2.01-.74-3.61,3.46-6.29,5.22-13.22,7.29-19.41,1.85.89,3.06,2.61,3.3,4.65Z"/>
      <path class="cls-92" d="M59.61,96.99c.46,6.27,4.26,12.54,3.72,19l-.9,10.84c-1.9-1.03-.87-3.38-3.28-4.16-.73,3.4.58,4.92-1.16,5.73-3.11-7.88,8.54-5.37-3.38-30.66-2.09-3.14,3.12-5.59,5-.75Z"/>
      <path class="cls-100" d="M74.95,105.15c1.1,1.31,1.97,3.49,2.63,6.52l-1.07,4.11c-1.42,2.81-3.83,3.65-4.65.33-2.15.03-3.42-6.41-3.71-8.76-.08-.66.14-1.36.45-2.08,1.04-1.78,5.51-2.13,6.35-.13Z"/>
      <path class="cls-61" d="M73.41,97.44c.81,1.26.54,3.36,1.54,4.63-.28,2.62-4.91,2.77-6.29.82-.03-.32.06-.66-.02-.96-2.41-3.81-5.19-12.51,1.28-9.02,1.65.26,2.82,1.77,3.5,4.53Z"/>
      <path class="cls-24" d="M72.35,151.17c.06-.42-.09-1.03-.25-1.44-3.6-.58-5.92-1.85-6.97-3.83,2.75-1.86,4.99-4.13,6.73-6.83h1.72c-.82,3.47,3.25,11-1.23,12.09Z"/>
      <path class="cls-59" d="M74.65,134.58c-2.34-3.63-1.75-8.79.21-12.6,1.26-.68,1.35-3.58,3.7-2.15-1.84,5.98-2.85,10.33-3.9,14.75Z"/>
      <path class="cls-56" d="M73.41,97.44c-1-1.57-2.84-2.66-3.5-4.53-3.3,1.15-4.02-.86-1.3-3.07-.67-2.59-.78-5.29.17-7.82,2.73,4.52,3.71,10.23,4.63,15.42Z"/>
      <path class="cls-25" d="M76.51,115.78c-.45,1.72-.69,4.17-2.7,4.61-1.81-.82-6.13-.32-6.57-2.91.55-3.78,1.91-3.64,4.62-1.37,1.56.08,3.12-.04,4.65-.33Z"/>
      <path class="cls-98" d="M77.58,111.67c-3.44.33-2.7-4.16-2.63-6.52,2.26-.33,3.57.35,3.17,2.38-.33,1.67-.22,2.93-.54,4.15Z"/>
      <path class="cls-55" d="M74.95,102.07c.33.69.02,2.27,0,3.08-2.09.3-4.25.02-6.35.13-1.73.7-2-.22-1.55-2,.38-.18,1.14-.41,1.6-.4,2.13.06,4.25-.18,6.29-.82Z"/>
      <path class="cls-75" d="M71.86,139.08c.67,3.36-1.55,5.61-4.69,6.85,2.55,1.83,4.29,2.19,4.92,3.8-4.58-.01-9.7,1.14-13.62-1.59-2.74-.64-1.24-3.71,1.24-3.31,4.77-.69,8.22-3.62,12.15-5.75Z"/>
      <path class="cls-58" d="M67.05,103.28c.59.49.84,1.65,1.55,2,4.32,2.11,2.55,6.67,3.26,10.84-1.15,1.35-2.92,1.72-4.62,1.37,1.1,6.57-1.23-20.41-2.26-12.84.09-.67,1.57-1.13,2.08-1.37Z"/>
      <path class="cls-10" d="M68.61,89.84c.28,1.08.93,2.03,1.3,3.07-1.35.95-3.23,2.23-2.85,3.56l1.57,5.46c-3.25-2.98-3.97-8.05-4.65-12.28,1.38-1.25,3.19-.71,4.63.2Z"/>
      <path class="cls-33" d="M61.06,139.15c-.3-.44-.6-.87-.76-1.32-.23-.66.32-1.74,1.06-1.78,3.28-.19,6.34-1.26,9.52-2.34-1.73,4.15-6.13,7-9.82,5.45Z"/>
      <path class="cls-6" d="M58.11,85.02c-.41.97-.7,2.22-1.52,2.97-.86.79-1.57,1.68-1.57,2.94,0,.71.41,1.6.23,2.15-.31.95-1.07,1.48-1.9,1.28-2.04-1.37-2.07-9.12,0-10.79.47.17,1.05.09,1.54.2,1.28-1.3,3.37-.81,3.21,1.25Z"/>
      <path class="cls-6" d="M59.39,94.61c-1.06-.05-2.23-.47-2.66-1.39-.35-.75-.35-1.54-.28-2.21,1.06-.28,3.43-.49,4.49.91.5.65-2.06,2.12-1.55,2.7Z"/>
      <path class="cls-51" d="M59.72,144.83l-1.24,3.31c-2.33.68-2.66,3.25-4.88,4.98-.54-4.48,2.25-6.76,3.38-11,.95,1.16,1.65,2.08,2.75,2.71Z"/>
    </g>
    <g id="front-leg">
      <path class="cls-16" d="M66.55,81.04c1.46.83,2.49,2.23,2.86,3.86.39,1.73.69,3.48.73,5.25.05,2.66-.56,5.42-2.22,7.51-2.16,1.25-4.85.55-7.31.11-2.36-.43-4.8-.59-7.14-.09-2.18.47-4.24,1.51-5.9,3.01-4.08,3.66-5.45,9.53-9.12,13.61-1.91,2.13-4.44,3.78-5.74,6.33-.54,1.07-.84,2.25-1.27,3.37-1.54,4.03-4.8,7.31-5.85,11.5-.68,2.71-.37,5.56-.52,8.36s-.95,5.8-3.19,7.47c-1.19.89-2.67,1.3-4.13,1.63-1.7.38-3.48.66-5.18.27s-3.31-1.58-3.73-3.27c-.12-.49-.15-1.02-.4-1.45-.64-1.11-2.25-1.01-3.51-.76-.08-2.79,1.91-5.19,2.68-7.87.48-1.66.49-3.42.78-5.12.39-2.27,1.28-4.43,2.22-6.54.89-1.99,1.82-3.96,2.79-5.91.67-1.34,1.38-2.83,1-4.27-.12-.44-.34-.86-.33-1.32.01-.49.29-.94.55-1.36,3.32-5.17,6.64-10.33,9.96-15.5,1.06-1.65,2.12-3.3,3.18-4.95,1.98-3.08,3.98-6.18,6.51-8.82s5.68-4.82,9.26-5.62c1.85-.41,3.75-.45,5.64-.49l12.98-.26c1.27-.02,2.52.29,3.62.92l.76.43Z"/>
      <path class="cls-74" d="M50.16,98.82c-4.19,5.33-6.91,12.1-11.88,17.53-4.74,5.16-9.07,10.09-11.14,16.57-.44,1.35-.95,1.33-1.54,0l-1.45-1.63,4.27-10.63c-1.37-.41-1.32-.91.04-1.51-.78-3.72.37-8.88,5.08-8.14-1.69-3.36,1.93-10.32,5.77-10.5-3.26-3.26,2.71-7.09,6.05-7.78.11-.87,1.7-1.71,2.11-2.51l1.81-.08c1.37,3.19,1.66,6.09.87,8.7Z"/>
      <path class="cls-95" d="M25.6,132.91c-.39,3.63-.91,6.67-1.54,9.12-2.57,3.33-1.32,8.15-2.85,11.87-.37,1.25-.91,1.34-1.64.27-.8.71-1.87.31-3.22-1.21-2.64-2.03-1.79-3.02,1.32-3.46-.97-.57-2.81-1.47-5.5-2.71-1.24-.76-1.18-1.39.18-1.89,1.64-3.54,2.59-7.25,2.85-11.13,4.05-2.44,7.01-6.77,8.86-12.99.58-.93,2.87-.45,4.36-.14.56,4.39-2.55,7.97-2.82,12.26Z"/>
      <path class="cls-16" d="M28.46,119.13c.03.5-.11,1.02-.04,1.51-4.68,3.68-4.54,10.55-9.44,15.95-.76.32-.91-2.38-2.66-1.97-.46,2.98,2.2,5.88.58,7.03l-4.55,3.25-2.01-1.11,3.26-14.14c2.27-2.85,4.27-5.93,6.02-9.25.8-.05,1.77-1.76,1.59-2.51.35-1.37.85-1.37,1.49-.08,2.51-3.51,5.03-2.96,5.76,1.32Z"/>
      <path class="cls-44" d="M45.37,92.72c.34,3.99-4.54,5.71-6.05,7.78-2.53,3.54-9.06,1.72-9.16-2.98,2.14-2.58,3.89-6.24,7.28-8.55,2.7-1.85,6.58,1.54,7.93,3.75Z"/>
      <path class="cls-72" d="M39.32,100.5c-.67,3.98-2.48,7.67-5.77,10.5-1.75,1.46-2.42,1.08-2.01-1.16-2.52-.78-4.84-3.39-3.92-6.23-1.39-.29-1.43-.8-.17-1.54-.72-2.51,1.62-3.22,2.72-4.55,2.91,1.45,6.37,1.22,9.16,2.98Z"/>
      <path class="cls-71" d="M50.27,82.02c1.4,3.77,2.43,7.88,3.08,12.34l1.67-3.43,1.42.08c1.87-.16,2.69,2.05,2.94,3.6,1.04.83.16,1.62.22,2.38-.79-.55-1.72-.86-2.67-.91-1.15-.06-1.54,1.31-2.33,1.66-1.39.6-3,.67-4.44,1.08-3.54,1-.88-4.65-2.69-8.61,1.15-2.48.05-5.18,0-7.8-.38-1.64,1.67-1.5,2.8-.38Z"/>
      <path class="cls-39" d="M12.35,144.9c-2.06,2-7.12,1.86-3.71-1.2,1.81-2.71,1.69-6.09,1.54-9.25.06-2.75.44-6.09,3.42-4.8,2.05,7.43-3.07,7.92-1.25,15.25Z"/>
      <path class="cls-47" d="M19.61,120.41c2.55,4.19-1.6,5.5-6.02,9.25-2.83.77-2.7-1.64-.33-2.91,2.62-.79,3.35-6.16,6.35-6.33Z"/>
      <path class="cls-83" d="M13.26,126.74l.33,2.91c-1.51,1.28-2.19,3.28-3.42,4.8-1.67-2.26-.44-9.47,3.08-7.71Z"/>
      <path class="cls-14" d="M24.06,142.02c-4.19.92,1.27-4.94,1.54-9.12h1.54c-1.01,3.17-.84,6.22-3.08,9.12Z"/>
      <path class="cls-77" d="M22.7,117.81l-1.49.08c-.42-1.78-1.53-3.38-1.51-5.59,0-1.25,2.01-1.75,2.82-2.53,4.58-.63,4.5,7.12.19,8.04Z"/>
      <path class="cls-78" d="M27.44,102.07l.17,1.54c1.95,3.04.08,4.95-3.02,5.71.85,3.02-.48,3.28-2.07.46.19-3.98.23-7.11,4.92-7.71Z"/>
      <path class="cls-5" d="M12.35,144.9c.14.58-.26,1.29-.18,1.89-.75,2.79-4.27,3.21-6.61,1.54v-1.54c.87-1.19,1.52-2.59,3.08-3.08-.24.97.44,1.47,1,1.41.7-.07,2.29.08,2.71-.22Z"/>
      <path class="cls-46" d="M31.53,109.84c.62-.31,2.67-.19,2.01,1.16-2.01,1.73-1.16,7.39-5.08,8.14-1.96-.22-3.91-.6-5.76-1.32l-.19-8.04c.61-.26,1.55-.02,2.07-.46,1.05-4.77,4.73-2.21,6.95.52Z"/>
      <path class="cls-64" d="M12.17,146.79c7.97,1.02,6.12.76,5.5,2.71-1.55,1.6-4.05,2.24-7.49,1.92-.47.11-1.1-.18-1.54,0-1.09-.96-2.15-1.97-3.08-3.08,1.9-1.2,4.34-1.83,6.61-1.54Z"/>
      <path class="cls-73" d="M17.67,149.5c-.37,1.18-.8,2.34-1.32,3.46-2.15-.12-4.31-.34-6.17-1.54,1.38-2.68,4.92-1.87,7.49-1.92Z"/>
      <path class="cls-89" d="M31.53,109.84c-2.62,2.74-4.38-2.68-6.95-.52-.48-2.42.88-4.59,3.02-5.71,2.5,1.13,4.33,3.4,3.92,6.23Z"/>
    </g>
    <g id="back-arm">
      <path class="cls-52" d="M65.33,36.61c1.05-1.15,2.3-4.5,2.87-5.94s1.63-4.21,3.16-5.94,2.39-2.11,3.35-2.68c.96-.57,1.44-.86,1.82-1.53s.19-3.35.1-4.88-2.3-4.4-2.49-4.79,0-2.49,0-3.35.29-2.01.57-2.49,1.44-1.44,2.2-1.44,2.39,0,3.06.29,4.5,2.59,5.27,3.35,3.06,2.68,3.45,3.64,1.05,3.16,1.05,4.31-.77,5.74-.77,7.28-.77,6.89-1.63,9-4.6,11.01-5.84,12.54c-1.24,1.53-2.2,3.83-4.6,4.79s-7.85,1.24-8.9.48c-1.05-.77-3.93-5.07-3.93-7.09s1.24-5.55,1.24-5.55Z"/>
      <path class="cls-52" d="M78.61,35.75c1.83-.26,3.08.76,3.73,3.05.27-3.01,1.49-2.76,1.88.35-1.67,4.51-4.49,8.28-7.51,12.01-1.51.95-3.62,1.35-4.84.02-2.75-2.17-3.17-4.57.09-6.17-3.54-.02-2.98-9.82-.02-10.74,1.55-2.56,3.09-3.12,4.61-1.68,2.89-.95,4.13.88,2.06,3.17Z"/>
      <path class="cls-4" d="M68.48,46.25c2.18,2.02,1.39,2.86-1.41,1.61-.07,1.39-.54,1.44-1.38.24.3,3-.94,3-1.89.01.3-2.11-.57-4.01-1.1-5.96-1.45-.28-2.51-2.41-3.18-6.39-1.2-2-.39-2.63,1.61-1.36,1.99-.29,4.49-.35,6.01-1.78,4.82-4.05,3.3,11.28,1.34,13.63Z"/>
      <path class="cls-49" d="M81.12,14.16c1.57-1.05,4.06-.48,4.63,1.54,3.19,1.66,1.27,7.68-3.18,6.26-1.57-1.05-4-1.03-5.06-1.98-1.81-1.61-1.13-4.17-1.06-5.83-.49-3.35,4.34-2.98,4.67,0Z"/>
      <path class="cls-4" d="M77.84,23.61c2.74.09,1.65,4.38.37,6.29,1.97,2.28,1.27,3.44-1.66,2.69-1.58.65-2.38,2-3.84,4.74-1.49-.53-.43-1.97-.76-3.07-2.66-.36-2.64-2.44.05-6.22.95-2.58,3.03-4.58,5.85-4.43Z"/>
      <path class="cls-90" d="M85.74,11.08c1.93-1.2,4.36,1.02,3.08,3.08-.64,2.26.25,5.62-1.37,7.72-1.15,1.49-3.81.81-4.89.08,1.12-.11,2.53-.45,2.88-1.51.54-1.63.27-3.27.29-4.75l-3.08-3.08c-1.38-.41-1.39-.98-.1-1.71,1.5-3.56,2.06-3.58,3.19.17Z"/>
      <path class="cls-104" d="M71.94,34.26c-2.17,3.3.07,7.15.02,10.74-.51,3.22-1.13,3.65-3.48,1.24-2.49-2.29,3.4-13.41-1.34-13.63l4.84-4.57-.05,6.22Z"/>
      <path class="cls-99" d="M79.79,29.6c.34,1.24,1.14,2.42,2.3,2.57,1,.13,2.45-1.12,3.3-.84,1.81,2.84-.38,5.65-1.18,7.82l-1.88-.35c-1.15-.93-2.4-1.95-3.73-3.05-.63-1.07-1.6-1.98-2.06-3.17.54-.9.98-1.88,1.66-2.69.22-1.67.75-1.77,1.58-.3Z"/>
      <path class="cls-90" d="M82.56,10.91l.1,1.71c1.9,1.92,1.06,1.96-1.54,1.54h-4.67c.04-1.01-1.2-3.57.33-4.2,2.28-.94,4.21.86,5.78.95Z"/>
      <path class="cls-66" d="M82.99,25.33c.85-1.06,2.32-.26,3,.27s2.03,1.69.53,2.38c-.85.39-2.43,1.91-3.16,1.49-.89-.51-1.07-3.26-.37-4.14Z"/>
      <path class="cls-49" d="M87.29,9.54c.6,1.29.02,1.76-1.54,1.54-1-.24-2.16-.11-3.19-.17.58-.64,1.09-1.5.92-2.17-.26-1.07-1.08-1.69-2.36-3.21,3.03-2.05,4.54,1.98,6.17,4.01Z"/>
      <path class="cls-104" d="M79.79,29.6c-.48-.09-1.22-.13-1.58.3l-.37-6.29c.93.05,3.41-.97,3.19,1.07-.24,2.19-1.32,3.5-1.24,4.92Z"/>
      <path class="cls-66" d="M88.83,14.16c-.52-1.38-1.58-2.72-3.08-3.08.46-.57.98-1.08,1.54-1.54.68.85,2.65.87,2.93,2.51.17,1-.95,1.47-1.39,2.11Z"/>
      <path class="cls-42" d="M82.33,38.81c-.92.22-2.07.63-2.66.12-.81-.69-.64-2.45-1.06-3.17.76-1.16,2.78-2.71,3.95-.92.56.84-.42,2.78-.23,3.97Z"/>
      <path class="cls-38" d="M85.74,15.71c-1.61-.27-3.19-.75-4.63-1.54l1.54-1.54c1.04-.19,2.42-.19,2.88.88.31.72.21,1.54.2,2.2Z"/>
    </g>
    <g id="back-glove">
      <path class="cls-41" d="M71.17,1.73c-.77-.64-1.21-1.66-3.19-1.72-1.98-.06-3.57.32-4.72.7-1.15.38-2.18.65-2.66,1.19s-.98,1.81-1.05,2.83.13,3.45.51,4.02,1.28,1.91,1.98,2.04,4.98,1.72,6.19,1.47c1.21-.26,1.79-.51,3.06-.64,1.28-.13,3.23.38,3.94-.06s1.49-1.56,1.49-2.33.73-2.78.67-4.12-3.8-2.3-4.56-2.55-1.66-.83-1.66-.83Z"/>
      <path class="cls-28" d="M66.76,10.67c-1.15,0-2.11.29-3.06-.19s-1.15-1.63-1.24-2.87-1.05-1.72-.86-2.68.19-2.39,1.34-2.39,3.16,1.24,3.93,1.44.86-1.53,1.63-1.72,3.26-.57,3.26.38-1.44,1.63-2.01,3.35-2.97,4.69-2.97,4.69Z"/>
      <path class="cls-85" d="M78,3.9c-1.09-.51-1.34-1.28-3.06-1.79s-6.57-1.4-7.09-1.15,3.32,2.04,3.32,3.13,4.02,4.28,4.85,3.7,1.98-3.89,1.98-3.89Z"/>
      <path class="cls-85" d="M61.34,7.35c.77-2.43,1.85-4.28,1.02-5.11s-2.17.13-2.3.96-.13,4.72.57,5.11.7-.96.7-.96Z"/>
      <path class="cls-21" d="M66.23,4.31c-2.11,1.02-4.41-1.11-5.64-2.42.06-1,2.03-1.61,3-1.65,1.77-.07,5.13,2.86,2.63,4.07Z"/>
      <path class="cls-21" d="M75.45,3.6c.62-.54,1.28.75,1.76,1.04,1.34.8.3,1.88-.7,2.14-.8.21-1.63.59-2.04-.14-.48-.84-.14-2.06.99-3.04Z"/>
      <path class="cls-60" d="M60.15,7.43c1.15-2.04,2.77.25,3.35.64.96.64-.23,1.58-.9,2.38-.9,1.08-3.74-.71-2.45-3.02Z"/>
      <path class="cls-60" d="M73.91,10.92c-1.6.45-5.3,1.47-6.57,1.09-1.28-.38-2.43-1.09-2.68-2.36s1.15-4.15,1.4-3.57.38,1.66,1.4,2.36c1.02.7,1.02-.51,2.74-.77,1.72-.26,3.83-1.85,4.34-.13s-.64,3.38-.64,3.38Z"/>
      <path class="cls-48" d="M66.81,7.36c.38,1.01.67,1.68,2.54,1.15s2.97-1.24,3.21-2.35-.19-1.72-1.05-2.25-1.91-.57-2.01.62-2.68,2.82-2.68,2.82Z"/>
    </g>
    <g id="back-shoe">
      <path class="cls-51" d="M52.02,149.3c-1.86,4.42.5,8.45.96,9.19,1.78,2.89,4.45,3.99,6.13,4.69.54.22,5.79,2.32,11.11.19,1.3-.52,2.89-1.19,3.45-2.78.44-1.25-.04-2.47-.48-3.54-1.33-3.26-3.39-3.42-3.83-5.74-.39-2.06,1.09-2.63.67-4.21-.74-2.77-6.25-4.66-10.82-3.54-1.48.36-5.47,1.67-7.18,5.74Z"/>
      <path class="cls-65" d="M70.32,154.5c-3.4,1.5-7.36,1.23-10.79,0,.03,1.38,1.06,2.41,3.08,3.08v1.54h-1.54c-.81.72-2.29.97-2.95,1.83-2.4.97-4.3-1.95-1.67-3.38-.08-.67-1.71-1.94-1.34-2.68,4.45-3.83,11.44-3.89,15.22-.4Z"/>
      <path class="cls-94" d="M70.32,154.5h1.54c-.13.9.42,2.85-1.49,3.05-3.06.31-5.47.02-7.76.04-1.11,0-3.02.55-4.27-.44-1.18-1.14-.25-2.65,1.18-2.65,3.47,1.2,7.33,1.44,10.79,0Z"/>
      <path class="cls-51" d="M56.44,157.58l1.67,3.38c-1.84,2.41-4.09.74-5.09-.85-1.22-1.92-1.26-4.02-1.51-5.69,1.29,1.54,2.94,2.76,4.93,3.17Z"/>
      <path class="cls-12" d="M61.07,159.12c.37-.13,1.11-.05,1.54,0,3.34.41,6.68-.96,10.94.78-3.9,1.04-9.48,2.1-12.48-.78Z"/>
      <path class="cls-31" d="M70.32,154.5c-2.16,2.86-8.39,2.42-10.79,0h10.79Z"/>
    </g>
    <g id="front-arm">
      <path class="cls-45" d="M33.32,71.56c-1.02,1.02-1.28,3.45-3.32,5.49s-3.96,2.55-5.87,3.32-3.7,1.4-5.36,1.02c-1.66-.38-3.06.26-3.06-1.28s-.64-3.19-1.28-4.47-1.79-3.32-1.4-4.85,1.28-4.47,2.17-5.62,2.94-3.7,2.94-4.98-.83-4,.29-5.19,2.65-5.53,5.07-7.32,5.74-5.87,7.28-5.87,3.32-.38,3.96-.38,1.91-.38,2.43.51,1.91,2.68,1.66,4.21.89,5.87-.13,7.15-2.43,3.7-3.19,4.34.26,1.28-.26,3.19-1.91,10.72-1.91,10.72Z"/>
      <path class="cls-81" d="M35.24,51.3c.59.56.71,1.08-.08,1.51-.89-.16-2.33.2-2.89.87-.33.39-.69,1.66-.3,2-1.89,2.94-5.67.11-4.51-2.85-1.33-2.96,1.54-5.43,4.31-3.2,2.42-1.7,3.21-1.32,3.47,1.67Z"/>
      <path class="cls-27" d="M31.96,55.68c.62.55-.19,1.13-.19,1.66-.67,2.66-1.18,4.15-3.08,1.54-.83-2.09-3.39-3.61-3.08-6.17.46-1.42,1.09-1.31,1.85.12.62,1.97,2.5,3,4.51,2.85Z"/>
      <path class="cls-29" d="M26.02,71.72c4.71.5,1.43,6.98-1.77,4.6-1.36,1.08-1.59,3.6-3.44,4.18-.88-2.39-2-3.65-4.46-4.65l.17-6.17c-1.65-2.22,1.1-2.48,3.17-1.66,1.75,1.73,4.01,2.91,6.34,3.7Z"/>
      <path class="cls-45" d="M27.36,78.95c-1.48-2.14.99-6.04,2.67-7.52,1.38-1.22,1.93-3.02,1.74-4.83,1.66-.05,3.27.66,3.23,2.25.05-1.85-3.1,10.97-7.64,10.1Z"/>
      <path class="cls-26" d="M30.02,71.43c.35,2.83-1.15,5.24-2.67,7.52-1.41-.27-3.31-.91-3.1-2.63l2.29-1.83c.72-.58.66-1.97-.52-2.77,1.24.42,2.76-.25,4-.3Z"/>
      <path class="cls-93" d="M20.81,80.5c-1.64-1.2-3.18-3.08-4.46-4.65,1.08-.51,3.02-2.39,3.92-1.47,1.77,1.83.53,4.61.55,6.12Z"/>
      <path class="cls-88" d="M20.97,57.34c-.22,1.15-.72,2.24-1.54,3.08.18-1.78-.84-3.51-1.02-5.42-.11-1.23,1.46-1.67,2.56-2.29v4.63Z"/>
      <path class="cls-26" d="M19.46,66.72l.22,1.3-3.17,1.66c-.18-1.19-3.58.35-3.34-1.3.49-3.35,4.54-1.32,6.29-1.66Z"/>
    </g>
    <g id="body">
      <path class="cls-97" d="M42.44,39.29c-1.53.1-4.69.1-5.55.29s-2.39.1-3.45.86-4.31,1.24-4.98,1.82-1.44,2.78-.86,3.35,4.31,4.5,4.79,5.65.57,4.5.86,5.36,1.05,2.3,2.01,2.68c.96.38,1.73,3.4,2.64,4.14s2.15,3.52,1.96,4.47-1.44,5.36-1.53,6.41-1.63,3.06-1.24,3.83,2.49,3.64,3.83,4.12c1.34.48,7.18,1.72,8.52,1.44,1.34-.29,4.33-.2,5.47.04,1.14.24,6.12-1.19,8.13-1.19s5.07.19,5.84-.19,2.2-1.05,1.53-1.91-1.05-1.72-1.05-2.78-1.34-3.54-.86-6.8.57-6.22,1.24-8.04,2.11-5.07,3.16-6.03,1.15-4.5,2.3-4.4,3.45-2.87,3.83-3.83,2.2-2.49,1.63-2.78-3.35-1.34-3.64-1.53-3.45-2.2-3.54-3.83-1.15-2.97-2.2-4.31c-1.05-1.34-3.83-3.06-4.4-3.06s-2.27.86-2.59.86-1.28.13-1.28.13c0,0-3.03.51-3.61.77s-.77,1.47-.7,1.76.67,1.88.57,2.36-.38,1.72-1.76,2.43c-1.37.7-8.04,1.82-9.54.8-1.5-1.02-3.48-2.11-3.89-2.36s-1.63-.51-1.63-.51Z"/>
      <path class="cls-40" d="M44.14,45.07c2.3.13,4.83,1.14,7.59,3.04.1-2.3,4.05-4.02,6.21-3.09,1.66-2.41,3.25-3.37,4.77-2.88,3.79-.85,4.53,4.68,1.1,5.96,4.78,6.28,4.73,10.43-.14,12.45-2.59,1.71-3.25.62-.9-1.65-4.58-1.05-9.25-1.19-14.03-.41-.09,3.94-1.67,3.9-3.81.76-2.19,2.47-5.74-.95-3.49-3.4-.35-1.02-.55-1.87-.24-2.14,5.67-4.95,2.85,2.12-2.54.71-2.32-.61-2.45-1.97-1.92-4.44-3.18-.17-3.79-2.37-1.75-4.71-1.4-1.62-.71-4.2,1.42-5.08l3.05-1.19c3.98-.49,5.71,2.1,4.7,6.07Z"/>
      <path class="cls-15" d="M41.43,55.85l1.24,5.84c4.52.89,4.84,4.08,1.25,6.64-1.66,1.45-3.67-.19-6.03-4.89-2.15-3.2-4.82-6.01-2.75-10.64-2.4-.4-2.26-1.43.08-1.51-1.76-2.27-.89-3,1.49-1.32,2.18,2.25,5.26,1.78,9.25,1.1.69,3.2-2.58,3.84-4.54,4.77Z"/>
      <path class="cls-87" d="M43.93,68.34c.84-4.11,3.47-3.72,5.01-.11,4.19-1.41,4.47.18,1.33,2.99-2.21,1.48-2.32,3.42-.32,5.83,1.46.39,1.57,1.02.32,1.88-1.13,1.3-3.08.63-4.63,0-2.06,1.08-3.61,1.37-4.64.88l-2.1.03c-6.66-1.3,6.68-4.92-1.01-16.4,2.19,1.42,3.31,4.42,6.03,4.89Z"/>
      <path class="cls-62" d="M75.26,52.72c.66,5.3-3.81,8.94-7.01,12.72-1.34-.52-1.31-1.09.03-1.72-5.19-.76-1.46-9.28,1.85-10.75.96-1.65,3.67-1.4,5.13-.24Z"/>
      <path class="cls-80" d="M68.73,75.48c-1.04.84-2.11,1.19-2.89-.05-4.46-.74-6.05-2.15-4.77-4.21-3.15-4.34,3.21-6.67,7.18-5.79-.05,3.2-.37,6.9.49,10.05Z"/>
      <path class="cls-35" d="M45.65,78.93l7.71,1.54c2.19-3.53,5.51-3.63,7.71,0,1.1-1.19,2.13-1.35,3.08,0l.06,1.52c-1.04-.17-2.19.42-3.25.37-.56,1.23-2.58,1.7-6.07,1.4-.69,1.28-1.21,1.22-1.54-.2-1.12,1.84-2.15,1.33-3.08-1.54l-2.8.38c-2.69.37-5.64-1.99-8.57-2.56-1.16-1.66,1.65-2.74,2.61-2.11.88.58,3.44.27,4.13,1.2Z"/>
      <path class="cls-17" d="M64.15,80.48c-1-.02-2.08-.09-3.08,0-2.19-2.27.36-3.93,7.66-4.99.5,1.84,2.98,2.96-.04,4.37-1.59.74-3.08.65-4.53.63Z"/>
      <path class="cls-7" d="M71.86,51.18l4.84-.02c-.45.55-.94,1.06-1.45,1.56-1.71-.03-3.43-.01-5.13.24-1.92,5.82-8.53-3.34-4.43-4.87l1.38-.24c2.33-1.98,3.93-.87,4.79,3.32Z"/>
      <path class="cls-34" d="M48.73,58.49c4.84-.79,9.51-.65,14.03.41-.26.78.82,1.12.9,1.65,2.48-.54,2.8,2.03.49,2.95-1.61,4.49-11.45,7.61-15.21,4.72-1.33.55-3.63.35-5.01.11-.93-2.05-.64-4.55-1.25-6.64-2.2-3.16-1.41-3.55,2.25-2.45.8-.56,2.91-1.06,3.81-.76Z"/>
      <path class="cls-43" d="M70.12,52.96c.28,6.21-5.37,6.06-1.85,10.75-1.74,2.26-3.23,2.57-4.12-.2l-.49-2.95c.61-1.75,1.82-3.51,1.89-5.64.06-1.94-2.01-2.85-4.54-4.33.99-.93,2.03-1.53,2.78-2.49h1.89c0,1.04.14,2.16.76,3.11.78,1.19,2.23,1.74,3.67,1.75Z"/>
      <path class="cls-97" d="M62.76,58.91c-4.14-.86-10.46,1.44-14.03-.41,4.05-1.98,10.31-2.24,14.03.41Z"/>
      <path class="cls-37" d="M64.15,63.51c1.38-.13,2.76-.12,4.12.2l-.03,1.72c-2.02,2.38-5.33,3.24-7.18,5.79,2.6,4.56-10.11,3.86-10.79,0l-1.33-2.99c4.88-2.02,9.91-4.24,15.21-4.72Z"/>
      <path class="cls-1" d="M65.84,75.44c.81-.05,2-1.16,2.89.05-.82,3.87-6.41,1.24-7.66,4.99-2.74.25-5.1.75-7.71,0l-3.08-1.54c-.23-.58-.02-1.34-.32-1.88-1.69-1.05-1.58-1.58.38-1.57.8-3.54,12-1.68,15.51-.05Z"/>
      <path class="cls-76" d="M50.27,71.22c3.89,1.81,4.17,2.59.06,4.26-.74.45-.78.85-.38,1.57-3.36-.13-7.05-1.46-8.99-6.3,4.28-2.13,6.47.38,9.32.47Z"/>
      <path class="cls-91" d="M50.27,78.93c1.23.06,2.69.14,3.08,1.54-2.62-.76-5.71,1.15-7.71-1.54,1.54-.19,3.09-.07,4.63,0Z"/>
    </g>
    <g id="Head">
      <g id="neck">
        <path class="cls-101" d="M58.69,38.05c-.02.97-.19,2.14-.84,2.48-.06.03-.11.06-.18.11-.43.25-1.07.72-1.8,1.18-.17.11-.33.21-.5.31-.3.18-.6.36-.91.51-.7.36-1.39.62-1.99.63-1.63.05-4.17-.33-5.4-.98-.11-.05-.21-.12-.31-.18-.21-.15-.45-.36-.69-.59-.85-.84-1.76-2.02-1.93-2.25-.02-.01-.02-.02-.03-.03h0s0-.04,0-.06v-.02s0-.03.02-.05c0-.02,0-.05.02-.08.07-.38.29-1.22.65-1.93.27-.52.66-1.38.99-2.11.17-.37.32-.71.44-.96.07-.16.14-.28.19-.35.25-.43.94-1.84,1.52-2.06.32-.11.9-.45,1.48-.72,0-.01.02-.01.02-.01.47-.22.95-.4,1.28-.36.12.01.31.02.54.01.21.01.46.01.74.01h0s.04.01.07.01h0c.42,0,.86.02,1.31.05.66.05,1.28.14,1.69.34.11.05.21.1.29.18.03.01.05.03.07.05.47.52,1.23,1.63,1.76,2.52.03.04.06.08.07.12.12.2.22.38.32.54.1.19.18.35.22.46.09.25.21.48.33.72,0,.01.02.02.02.03.06.1.1.2.14.3.15.32.28.66.33,1.05,0,.05,0,.11.02.17v.03c.02.25.04.57.04.93Z"/>
        <path class="cls-101" d="M59.43,41.52c-.31.29-.73.39-1.13.45-.46.08-.94.14-1.4.14-.07,0-.12,0-.19-.01-.5.25-1.04.41-1.59.48-.21.04-.44.06-.65.06-.7.36-1.39.62-1.99.63-1.63.05-4.17-.33-5.4-.98-.11-.05-.21-.12-.31-.18-.21-.15-.45-.36-.69-.59-.85-.84-1.76-2.02-1.93-2.25,0,.01-.02.02-.04.03,0-.02,0-.04,0-.06,0-.02,0-.04,0-.06,0-.04.02-.09.05-.13.46-1.63,2.03-2.88,4.12-3.45.12-.03.25-.07.38-.09.11-.03.22-.05.34-.08.63-.11,1.31-.17,2.02-.17.16,0,.33.01.48.02.33.02.68.05,1.02.1.2.03.42.06.62.1,1.42.27,2.76.74,3.86,1.37.09.05.19.1.28.16,0,0,0,.01,0,0,.09.05.17.11.26.17.41.27.78.56,1.11.87.46.44.82.91,1.07,1.41.05.15.08.31.1.47.08.57-.04,1.21-.44,1.59Z"/>
        <path class="cls-101" d="M55.61,41.4c0,.06-.02.11-.05.17-.03.2-.09.38-.19.56-.07.16-.16.31-.26.45-.21.04-.44.06-.65.06-.7.36-1.39.62-1.99.63-1.63.05-4.17-.33-5.4-.98,0-.17,0-.35,0-.53.02-.21.03-.42.06-.63.19-2,.76-4.02,1.05-5.09.05-.17.08-.32.11-.44.03-.12.04-.21.05-.27,0-.01,0-.03,0-.04.11-.46.15-1.07.25-1.63,0-.05,0-.1.03-.14.11-.6.32-1.11.78-1.26.11-.05.24-.07.39-.06.13.01.28.03.45.09,0,0,.03,0,.05.01,0,.04.02.09.04.13h0c.38,1.26,1.43,1.68,2.35,2.42.1.14.2.27.32.4.06.08.11.16.17.23.26.36.5.7.72,1.02,1.39,2.1,1.92,3.68,1.72,4.9Z"/>
        <path class="cls-102" d="M59.43,41.52c-.31.29-.73.39-1.13.45-.46.08-.94.14-1.4.14-.07,0-.12,0-.19-.01-.15,0-.29-.01-.44-.06-.14-.05-.27-.13-.39-.22-.11-.07-.21-.16-.32-.25-.05-.03-.09-.07-.14-.11-.18-.14-.35-.26-.57-.32-.14-.04-.3-.04-.41-.14-.07-.06-.12-.15-.17-.24-.33-.7-.53-1.49-1.03-2.05-.16-.18-.33-.32-.47-.5-.2-.25-.31-.55-.46-.82-.28-.49-.67-.89-.92-1.39-.09-.2-.17-.42-.28-.62-.02-.04-.05-.08-.07-.12,0-.03-.03-.06-.05-.08-.07-.11-.14-.21-.21-.32-.34-.55-.54-1.18-.72-1.81-.03-.08-.06-.17-.05-.26v-.02s0-.05.02-.07h0c.02-.06.05-.1.07-.14.05-.09.09-.18.16-.27.15-.28.34-.54.62-.68h1.06s.08-.01.12-.01c.39-.01.77.08,1.11.26.03.01.06.03.07.04.1.09.19.15.27.18.04.02.07.04.09.07.2.14.37.3.55.46.55.5,1.11,1.02,1.46,1.68.07.15.14.3.26.4.2.16.48.13.73.14.58.01,1.16.25,1.54.71,0,.01.02.02.02.03.05.06.09.12.13.18.03.04.05.08.06.13.1.2.18.42.25.63.07.2.14.39.21.59,0,.01,0,.02,0,.03.15.4.31.79.47,1.18.16.38.33.76.45,1.15.05.15.08.31.1.47.08.57-.04,1.21-.44,1.59Z"/>
        <path class="cls-70" d="M48.26,40.15c-.28.35-.67.71-1.11.98-.19.11-.38.21-.59.28-.16.05-.32.09-.47.11-.85-.84-1.76-2.02-1.93-2.25,0,.01-.02.02-.04.03-.02.04-.03.09-.03.13,0-.04,0-.08,0-.12,0-.03,0-.05.02-.08,0-.01,0-.03,0-.05h0s0-.01,0-.02c0-.01,0-.03.02-.05,0-.02,0-.05.02-.08.23-.89.89-2.01,1.87-3.59.07-.11.13-.21.19-.31.22-.37.42-.69.6-.96.52-.81.88-1.19,1.22-1.12.21.04.39.23.53.51.02.03.04.06.05.1.17.36.28.84.36,1.33,0,.09.03.18.04.28,0,.05,0,.1.02.16.06.41.07.81.08,1.1.03,1.09.06,2.47-.85,3.62Z"/>
      </g>
      <g id="face">
        <path class="cls-96" d="M61.41,32.17c.15.34.84,1.39.99,1.83s.42,1,.01,1.27-1.54.92-1.96.86-7.68-.91-8.36-.97-4.83.34-5.91-.04c-1.07-.38-2.71-.95-3.42-2.02s-1.99-2.79-2.33-4.19-.24-4.82.31-5.76,2.67-3.48,4.57-4.15c1.91-.67,3.38-1.64,6.11-1.41s6.29,1.42,7.41,2.09,1.43,1.33,1.6,1.96c.07.27-.54,1.46-.12,2.54.56,1.47,1.61,2.2,1.87,2.67.75,1.35-.54,1.15-.54,1.15,0,0-.52.06-.83.17-.33.12-.09.27-.05.59s.06.88-.11,1.02-.92.3-1.23.63-.52.71-.35.92.35.57.74.52,1.07-.19,1.26-.23.35.55.35.55Z"/>
        <path class="cls-68" d="M62.16,33.27c-.55-.78-.99-1.66-1.29-2.59-.11-.34.6-2.42.34-2.66-.22-.2-1.47.37-1.75.34-.34-.04-.83.52-1.27.81-.91.6-1.63.97-2.49,1.65-.32.25-.67.7-.45,1.06.11.18.32.26.49.38.55.4.56,1.25.86,1.89.04.09.1.19.19.23.06.03.13.02.2.02.55-.04,1.1-.07,1.64-.11.81-.05,1.63-.11,2.4-.37.34-.11.67-.27.99-.42l.14-.24Z"/>
        <path class="cls-69" d="M59.43,26.09c-.23-.3-.31-.66-.32-.9-.02-.41.07-.66.1-.91.07-.71,1.57-1.72,1.27-2.36-.11-.25-.29-.53-.6-.51-.1,0-.2.05-.3.09-.96.4-1.92.8-2.88,1.21-.51.21-1.11.52-1.22,1.02-.05.22,0,.44.07.64.42,1.48.87,3.02,1.97,4.09.18.18.39.34.66.37.21.02.43-.05.64-.12.72-.24,1.45-.48,2.17-.72,0,0-1.52-1.82-1.56-1.9Z"/>
        <path class="cls-68" d="M52.54,32.67c-.13-.44-.36-.85-.58-1.25-.11-.19-.21-.38-.36-.53-.1-.11-.22-.19-.31-.31-.08-.11-.13-.24-.18-.38-.12-.33-.22-.68-.29-1.03-.05-.24-.1-.48-.14-.72l-.11-.62c-.03-.16-.05-.33.04-.48.09-.14.25-.21.4-.28.39-.17.79-.33,1.18-.5.11-.04.22-.09.33-.1.11,0,.22.03.33.04.21.03.42,0,.63-.04.63-.09,1.26-.13,1.89-.12.25,0,.51.02.72.13.12.07.21.16.33.22.27.14.65.1.82.34.06.08.08.17.13.25.1.17.29.27.39.44.17.28.06.67-.15.97s-.5.53-.74.81c-.2.23-.36.49-.59.69-.19.16-.42.27-.64.39-.42.24-.81.52-1.2.81-.27.2-.55.4-.76.65-.24.28-.43.63-.76.78l-.37-.18Z"/>
        <path class="cls-96" d="M54.1,29.41c-1.03.28-1.96.89-2.68,1.76-.24.29-.45.6-.69.88-.86.99-2.04,1.5-3.2,1.94-.39.15-.82.29-1.22.08-.39-.2-.63-.68-.77-1.14s-.23-.96-.46-1.38c-.15-.29-.36-.54-.53-.82-.21-.34-.34-.73-.48-1.12-.26-.73-.52-1.47-.78-2.2-.07-.21-.15-.42-.15-.64,0-.3.12-.57.25-.82.25-.51.51-1.04.9-1.41.13-.13.28-.23.4-.37.13-.14.24-.31.36-.45.31-.37.71-.62,1.11-.85,1.07-.61,2.2-1.1,3.36-1.46.3-.1.61-.18.92-.22.27-.03.54-.03.82-.02.24,0,.49,0,.73.01.21,0,.42.01.61.13.3.2.43.64.43,1.03s-.12.75-.18,1.13c-.09.54-.06,1.12.07,1.67.05.22.13.45.15.67.02.2,0,.4,0,.59,0,.86.37,1.69.73,2.48l.31.53Z"/>
        <path class="cls-2" d="M53.23,22.4c-1.06,1.58-1.6,3.63-1.44,5.55,1.7-.5,3.67-.9,5.25-1.32.85-2.89-.81-7.12-3.81-4.24Z"/>
      </g>
      <g id="beard">
        <path class="cls-8" d="M60.8,27.95c-1.11-.37-2.08-.32-3.16.13-1.09.45-2.18.91-3.27,1.36-.25.11-.52.22-.7.43-.41.48-.28,1.25-.06,1.86.23.64-.28.39-.84-.37-.85-1.14-2.11-2.29-3.41-1.88l-.13.61c.52,2.18,1.19,4.57,2.97,5.73.96.63,2.11.79,3.22.95,2.09.29,4.24.58,6.3.11.44-.1.91-.26,1.2-.64.6-.77.16-1.93-.3-2.81-.06-.11-.12-.23-.21-.3-.11-.09-.26-.12-.41-.13-1.16-.14-2.35,0-3.46.37-.51.17-1.01.39-1.53.53.19-.15.33-.36.37-.62.03-.2,0-.41-.04-.61-.13-.7-.25-1.4-.38-2.09-.01-.07-.02-.13,0-.2.03-.12.13-.19.23-.24,1.2-.72,2.55-1.16,3.92-1.27l.14-.18c.28.06.49-.33.4-.61-.05-.14-.18-.07-.34-.05s-.37-.04-.51-.08Z"/>
      </g>
      <g id="hair">
        <path class="cls-53" d="M59.78,20.41c-.15.53-.55,1.03-1.29,1.24-.57.16-1.12.45-1.66.71-.07.03-.13.06-.19.09-.47.21-.95.38-1.4.38-.15,0-.3-.02-.45-.06-.6-.16-1.16-.28-1.64-.24-.05,0-.09.01-.14.01-.27.04-.52.14-.73.32-.11.08-.2.19-.3.32-.61.89-3.02,2.6-3.23,2.61s-.11,2.14.33,2.87c.19.3.3.54.37.8.09.36.08.77,0,1.43,0,.02,0,.03,0,.06h0c-.04.4-.02.84-.02,1.31,0,.28,0,.57,0,.86-.04.6-.14,1.23-.44,1.87-.04.09-.08.18-.13.27,0,.01,0,.01,0,.02-.05.08-.09.16-.15.23-.15.21-.32.39-.49.53-.92.77-2.16.82-2.82,1.98-.26.47-.65.86-1.09,1.16-.04.04-.08.07-.13.09,0,.01-.02.02-.04.03,0,0,0,.01-.02.01-.89.56-1.94.73-2.56.36-.08-.05-.17-.09-.24-.13-.84-.46-1.6-.69-1.77-1.56,0-.05,0-.1-.02-.15-.04-.36-.13-.71-.23-1.07-.02-.07-.04-.15-.07-.22-.12-.43-.25-.86-.32-1.29-.05-.25-.07-.49-.07-.74.03-.73-.75-2.35-1.37-3.57-.35-.68-.64-1.24-.72-1.46-.22-.62-1.41-2.61-.9-3.46.13-.23.35-.56.59-.95h0c.69-1.07,1.62-2.49,1.76-2.78.03-.05.09-.13.2-.24.08-.09.19-.19.31-.31h0c1.08-1.01,3.5-2.98,4.24-3.16.95-.24,3.86-2.1,4.94-2.37.02,0,.04-.01.06-.01h0c.26-.06.67-.11,1.12-.15h0c1.52-.09,3.76.01,4.67.49.28.15.58.26.89.35h0c.86.28,1.78.4,2.38.6h.02c.1.04.2.08.28.12.71.36,2.18.95,2.41,1.7.09.32.11.71,0,1.1Z"/>
        <path class="cls-54" d="M49.58,16.39c-1.68.07-1.74-.64-3.11.08s-5.38,1.9-6.13,3.02-1.94,1.73-2.06,3.26.44,2.01,1.31,1.65,3.66-1.07,4.57-1.69,3.84-2.36,4.48-2.87,2.2-2.1,1.92-2.55-.98-.9-.98-.9Z"/>
        <path class="cls-19" d="M38.25,30.16l-.55-.46c-.25-.21-.5-.42-.67-.69-.13-.21-.21-.45-.3-.68-.14-.39-.27-.78-.41-1.17-.04-.1-.07-.2-.07-.31,0-.12.04-.24.07-.35.08-.33.05-.68.06-1.02.03-.72.29-1.4.58-2.05.18-.4.37-.8.69-1.08.23-.21.52-.34.79-.46.7-.32,1.41-.64,2.17-.69.24-.02.49,0,.71.08.32.12.57.38.81.63.29.3.59.6.88.9.04.05.09.09.1.16.01.06-.02.13-.04.19-.64,1.46-1.39,2.89-2.43,4.06-.46.52-.99,1-1.29,1.65l-1.11,1.33Z"/>
        <path class="cls-53" d="M56.49,23.48c-.26-.15-.53-.31-.8-.44-1.29-.66-2.73-.95-4.15-.86-1.78.12-3.47.84-5.1,1.62-.75.36-1.49.72-2.23,1.11-.37.19-.75.4-1.05.7-.51.52-.73,1.27-.94,1.99-.15.52-.3,1.03-.45,1.55-.18.64-.38,1.3-.8,1.8-.05.05-.1.11-.16.14-.18.09-.39-.04-.56-.16-.49-.36-.98-.72-1.47-1.08-.48-.35-1.01-.81-.99-1.43.01-.5.38-.9.77-1.16s.83-.46,1.14-.83c.38-.44.51-1.05.85-1.53.33-.47.85-.81,1.01-1.37.11-.39.03-.8-.02-1.2-.02-.19-.04-.4.08-.55.18-.22.51-.14.78-.09.59.1,1.19-.09,1.76-.27.6-.2,1.21-.4,1.75-.75.52-.33.96-.79,1.48-1.13.88-.56,1.95-.72,2.97-.63,1.02.09,2.01.43,2.97.8-.23.04-.42.28-.43.53,0,.32.24.59.51.7s.58.11.87.14c.54.05,1.07.2,1.56.44.64.32,1.28.96,1.16,1.71-.09.14-.28.19-.42.11l-.11.13Z"/>
        <path class="cls-54" d="M50.17,21.56c-.2-.38,1.01-1.74,1.43-1.92,1.17-.52,2.35-1.04,3.52-1.56.75-.33,1.55-.67,2.34-.57,1.16.15,3.32,1.89,3.67,2.99.05.14.09.29.06.44-.04.23-.24.41-.43.56-.46.36-.97.63-1.48.91-.68.37-2.35,1.15-3.03,1.52-.33.18-1.05-.72-1.41-.61-1,.3-2.08-.03-2.84-.68s-1.83-1.09-1.83-1.09Z"/>
        <path class="cls-57" d="M41.19,31.1c.17.11.13.39.03.58s-.24.38-.2.59c.02.12.1.21.13.33.03.13,0,.26-.03.38-.31,1.09-1.17,1.97-2.19,2.25-.05.01-.11.03-.16.02-.22-.03-.29-.32-.33-.55-.11-.77-.31-1.54-.58-2.26-.11-.3-.24-.59-.32-.9-.17-.65-.12-1.39.21-1.96s.96-.97,1.58-.89c.72.09,1.27.72,1.75,1.31.1.12.17.35.03.4l.07.7Z"/>
        <path class="cls-3" d="M48.38,19.86c-2.5-9.12,13.94-.75,5.93.71-1.77-1.72-4.46.57-5.93-.71Z"/>
      </g>
      <g id="Eye">
        <path class="cls-53" d="M55.51,25.5c.8-.75,3.22-1.67,3.53-.06-.67-.11-1.07-.15-1.71-.24-.58,0-1.19.13-1.78.36-.04.02-.07-.04-.04-.06h0Z"/>
        <g>
          <g id="eye">
            <path class="cls-20" d="M56.81,25.94c-.21.06-.46.14-.61.32-.07.08-.11.17-.12.25-.08.4.3.63.74.6s.94-.26,1.39-.5c.17-.09.34-.19.44-.33.13-.2.04-.38-.14-.44s-.41-.03-.63.01c0,0-.61-.03-1.07.1Z"/>
            <path d="M56.81,25.95c-1.25.4-.56,1.39.53.94.31-.13,1.73-.56,1.17-1-.3-.08-1.31-.04-1.71.06h0ZM56.81,25.93c.34-.1.74-.12,1.07-.13.29-.07.88-.17.9.3,0,.14-.09.25-.17.34-.57.4-1.18.75-1.89.78-1.1-.06-.87-1.17.08-1.29h0Z"/>
          </g>
          <g>
            <ellipse class="cls-103" cx="57.84" cy="26.27" rx=".58" ry=".33" transform="translate(-5.42 32.1) rotate(-29.69)"/>
            <g>
              <ellipse class="cls-53" cx="58.05" cy="26.25" rx=".37" ry=".25" transform="translate(-4.81 36.62) rotate(-33.7)"/>
              <path class="cls-20" d="M58.15,26.07c.06-.04.14.08.15.16,0,.01,0,.03,0,.05,0,.02-.03.03-.05.05-.06.04-.13.08-.19.08s-.11-.04-.1-.1c0,0,.19-.02.2-.23Z"/>
            </g>
          </g>
        </g>
      </g>
      <g id="Eye-2" data-name="Eye">
        <path class="cls-53" d="M60.1,23.74c-.55.13-.43.77-.8,1.12-.16-.2-.03-.58.14-.76.15-.21.39-.44.67-.38.02,0,.01.03,0,.03h0Z"/>
        <g>
          <g id="eye-2" data-name="eye">
            <path class="cls-20" d="M59.89,24.29c.05-.04.12-.09.18-.06.03.01.05.04.07.08.09.16.05.41-.04.55s-.23.2-.37.24c-.05.02-.1.03-.15,0-.06-.05-.08-.17-.05-.26s.08-.16.13-.22c0,0,.12-.23.23-.33Z"/>
            <path d="M59.89,24.29c.04-.06.17-.13.23-.03.26.29.04.77-.31.86-.07.02-.2.08-.27-.02-.16-.27.18-.61.35-.8h0ZM59.89,24.29c-.14.18-.45.54-.31.76.23.12.59-.24.56-.55.02-.14-.1-.38-.26-.21h0Z"/>
          </g>
          <g>
            <ellipse class="cls-103" cx="59.74" cy="24.81" rx=".2" ry=".15" transform="translate(28.63 81.53) rotate(-83.81)"/>
            <g>
              <ellipse class="cls-53" cx="59.7" cy="24.88" rx=".1" ry=".15" transform="translate(-1.14 2.94) rotate(-2.8)"/>
              <path class="cls-20" d="M59.65,24.82s-.01.09,0,.13c0,0,0,.01,0,.02,0,0,.01,0,.02,0,.02,0,.04,0,.05-.03s.02-.06,0-.09c0,0-.04.06-.08-.04Z"/>
            </g>
          </g>
        </g>
      </g>
      <g id="mouth">
        <path id="open" d="M60.85,31.9s-.04-1.47-.04-1.5-.67.25-.74.28-.68.31-.77.34-.28.16-.33.22-.2.28-.22.32-.05.28-.03.34.09.3.13.32.29.19.37.17.64.02.73-.02.59-.13.66-.15.19-.03.21-.05.01-.26.01-.26Z"/>
        <g id="teeth">
          <path class="cls-20" d="M60.9,30.01c.03.17.05.38.04.48s0,.1-.02.13-.61.37-.85.44-.94.2-.97.21-.03-.06,0-.1.13-.14.2-.18.48-.28.56-.34.47-.27.55-.33.5-.31.5-.31Z"/>
          <path class="cls-20" d="M60.96,31.81c.1-.01,0-.52,0-.55s-.43.43-.58.51-1.14.27-1.25.31-.2.22-.2.22c0,0,.09.06.13.08s.49.12.57.09.57-.19.64-.24.67-.41.69-.41Z"/>
        </g>
        <path id="lips" class="cls-63" d="M61.1,29.74c-.02-.24-.13-.15-.26-.03s-.54.56-.75.71-.97.43-1.12.64-.49.79-.46,1.06.18.71.36.8.74-.03,1.14-.09.95-.22,1.03-.36.43-.84.27-1-.4.09-.47.17-.78.61-.98.66-.96.02-1.01-.09-.24-.2,0-.61.32-.45.48-.51.87-.37,1.08-.49.55-.18.61-.28.09-.28.07-.58Z"/>
      </g>
    </g>
    <g id="front-glove">
      <path class="cls-53" d="M18.19,63.39c.26,1.02,3.51,6.32,6.38,6.89s5.62,1.4,6.13.06,1.25-3.88,1.07-5.29-.88-6.58-.3-7.03,2.23-1.98,3.19-2.81c.96-.83,2.17-2.74,1.85-4.34s-.38-3.51-2.36-4.28-4.34-2.17-5.11-2.04-3.57.57-4.4,1.6c-.83,1.02-1.79,3.19-2.23,4.21s-1.32,1.51-1.43,2.35-.87,6.14-1.45,6.78-1.34,3.89-1.34,3.89Z"/>
      <path class="cls-30" d="M28.68,58.89c1.46.66,2.49,2.72,3.08,6.17l-.18,1.78-.63,1.64c-.55,1.43-1.84,2.45-3.36,2.66l-.2.03c-.96.13-1.94-.07-2.77-.57l-2.93-1.77c-.83-.5-1.46-1.27-1.79-2.17h0s-2.14-2.28-2.27-3.78c-.09-1.1,1.48-1.7,1.79-2.44.05-1.78.57-2.81,1.54-3.08,1.04-3.7,2.59-5.25,4.63-4.63,3.01,2.47,4.04,4.52,3.08,6.17Z"/>
      <path class="cls-82" d="M25.79,49.61c2.98.18,2.32,1.86-.19,3.11-1.91,1.32-1.74,4.41-4.63,4.63-1.97-.25-1.6-3.3,0-4.63,1.23-.69,1.66-2.31,1.93-3.56,1.46-2.3,2.96-2.49,2.89.45Z"/>
      <path class="cls-11" d="M33.31,43.46c1.65.15.97,1.78.13,3.12.6,1.4-.03,1.85-1.67,1.51-3.58,4.08-5.51,1.74-2.87-3.02-1.33-.49-1.3-1.02.04-1.59,1.42-.34,2.94-.12,4.37-.01Z"/>
      <path class="cls-28" d="M28.94,43.48l-.04,1.59c1.3,3.36.52,4.68-3.1,4.54l-2.89-.45c.66-2.96,3.12-4.98,6.03-5.68Z"/>
      <path class="cls-48" d="M31.77,48.09v1.54c-1.63.81-2.83,2.19-4.31,3.2-.61-.1-1.23-.14-1.85-.12.12-.98-.12-2.17.19-3.11.58-1.76,1.79-3.27,3.1-4.54.03.92.17,2.04,1.03,2.64.49.34,1.24.35,1.84.38Z"/>
    </g>
  </g>
</svg>