<?xml version="1.0" encoding="UTF-8"?>
<svg id="Player_Attack" xmlns="http://www.w3.org/2000/svg" viewBox="0 0 131.52 147.3">
  <defs>
    <style>
      .cls-1 {
        fill: #060c0e;
      }

      .cls-2 {
        fill: #090d13;
      }

      .cls-3 {
        fill: #070b06;
      }

      .cls-4 {
        fill: #e08861;
      }

      .cls-5 {
        fill: #404a6d;
      }

      .cls-6 {
        fill: #885e42;
      }

      .cls-7 {
        fill: #272a33;
      }

      .cls-8 {
        fill: #1b263f;
      }

      .cls-9 {
        fill: #2c3238;
      }

      .cls-10 {
        fill: #181b24;
      }

      .cls-11 {
        fill: #8f9366;
      }

      .cls-12 {
        fill: #a76336;
      }

      .cls-13 {
        fill: #f8d3a2;
      }

      .cls-14 {
        fill: #433c3f;
      }

      .cls-15 {
        fill: #71706b;
      }

      .cls-16 {
        fill: #535c61;
      }

      .cls-17 {
        fill: #949b70;
      }

      .cls-18 {
        fill: #fbe2b2;
      }

      .cls-19 {
        fill: #f5bf90;
      }

      .cls-20 {
        fill: #766066;
      }

      .cls-21 {
        fill: #0e1725;
      }

      .cls-22 {
        fill: #161d26;
      }

      .cls-23 {
        fill: #5c454f;
      }

      .cls-24 {
        fill: #15191b;
      }

      .cls-25 {
        fill: #984847;
      }

      .cls-26 {
        fill: #fff;
      }

      .cls-27 {
        fill: #cbcfb9;
      }

      .cls-28 {
        fill: #d7825a;
      }

      .cls-29 {
        fill: #091a2f;
      }

      .cls-30 {
        fill: #4f5864;
      }

      .cls-31 {
        fill: #915e54;
      }

      .cls-32 {
        fill: #172848;
      }

      .cls-33 {
        fill: #b8b89d;
      }

      .cls-34 {
        fill: #f5ce9f;
      }

      .cls-35 {
        fill: #020914;
      }

      .cls-36 {
        fill: #18274b;
      }

      .cls-37 {
        fill: #fbdeac;
      }

      .cls-38 {
        fill: #a7a590;
      }

      .cls-39 {
        fill: #3e4865;
      }

      .cls-40 {
        fill: #e99762;
      }

      .cls-41 {
        fill: #0a1827;
      }

      .cls-42 {
        fill: #e5e6da;
      }

      .cls-43 {
        fill: #3a4761;
      }

      .cls-44 {
        fill: #59666d;
      }

      .cls-45 {
        fill: #343c42;
      }

      .cls-46 {
        fill: #685c62;
      }

      .cls-47 {
        fill: #0a1523;
      }

      .cls-48 {
        fill: #323242;
      }

      .cls-49 {
        fill: #323645;
      }

      .cls-50 {
        fill: #374663;
      }

      .cls-51 {
        fill: #8491a0;
      }

      .cls-52 {
        fill: #11223e;
      }

      .cls-53 {
        fill: #000710;
      }

      .cls-54 {
        fill: #f4f4f0;
      }

      .cls-55 {
        fill: #2b395d;
      }

      .cls-56 {
        fill: #090d1a;
      }

      .cls-57 {
        fill: #102131;
      }

      .cls-58 {
        fill: #232c3a;
      }

      .cls-59 {
        fill: #111b30;
      }

      .cls-60 {
        fill: #0d1c30;
      }

      .cls-61 {
        fill: #141920;
      }

      .cls-62 {
        fill: #0a1b2f;
      }

      .cls-63 {
        fill: #404a54;
      }

      .cls-64 {
        fill: #40465b;
      }

      .cls-65 {
        fill: #d38269;
      }

      .cls-66 {
        fill: #d1d3c1;
      }

      .cls-67 {
        fill: #1d222b;
      }

      .cls-68 {
        fill: #f2c799;
      }

      .cls-69 {
        fill: #1f0b17;
      }

      .cls-70 {
        fill: #0a1017;
      }

      .cls-71 {
        fill: #efad81;
      }

      .cls-72 {
        fill: #9e6340;
      }

      .cls-73 {
        fill: #eedca7;
      }

      .cls-74 {
        fill: #17181e;
      }

      .cls-75 {
        fill: #b7cace;
      }

      .cls-76 {
        fill: #c6c9a8;
      }

      .cls-77 {
        fill: #47475b;
      }

      .cls-78 {
        fill: #3c4967;
      }

      .cls-79 {
        fill: #f2f0e5;
      }

      .cls-80 {
        fill: #0b0e13;
      }

      .cls-81 {
        fill: #102140;
      }

      .cls-82 {
        fill: #080e17;
      }

      .cls-83 {
        fill: #3a353c;
      }

      .cls-84 {
        fill: #bfc1a4;
      }

      .cls-85 {
        fill: #202845;
      }

      .cls-86 {
        fill: #101b25;
      }

      .cls-87 {
        fill: #14183b;
      }

      .cls-88 {
        fill: #dbdecf;
      }

      .cls-89 {
        fill: #0e1116;
      }

      .cls-90 {
        fill: #051014;
      }

      .cls-91 {
        fill: #182140;
      }

      .cls-92 {
        fill: #04101b;
      }

      .cls-93 {
        fill: #f6b283;
      }

      .cls-94 {
        fill: #d2c7a2;
      }

      .cls-95 {
        fill: #282b35;
      }

      .cls-96 {
        fill: #a16e4b;
      }

      .cls-97 {
        fill: #29375a;
      }

      .cls-98 {
        fill: #1b212a;
      }

      .cls-99 {
        fill: #c97852;
      }

      .cls-100 {
        fill: #d5d6c2;
      }

      .cls-101 {
        fill: #30343c;
      }

      .cls-102 {
        fill: #d17553;
      }

      .cls-103 {
        fill: #b88261;
      }

      .cls-104 {
        fill: #1b294a;
      }

      .cls-105 {
        fill: #0a1421;
      }

      .cls-106 {
        fill: #cac9b3;
      }

      .cls-107 {
        fill: #1e2639;
      }

      .cls-108 {
        fill: #abad89;
      }

      .cls-109 {
        fill: #fee4ad;
      }

      .cls-110 {
        fill: #e9af80;
      }

      .cls-111 {
        fill: #ca8a60;
      }

      .cls-112 {
        fill: #754c24;
      }
    </style>
  </defs>
  <g id="Player_Punch_2">
    <g id="back-leg-assembly">
      <g id="back-shoe">
        <path class="cls-74" d="M82.57,134.6c-1.24-.77-3.45-2.11-5.07-2.97-1.63-.86-4.12-1.53-4.4-3.45s.38-4.79.1-5.46-2.3-1.24-3.64-1.24-9.38-.96-10.91-.77c-1.53.19-2.87,1.05-3.93,1.72-1.05.67-1.24,1.91-1.53,3.35s-1.34,4.21-1.44,5.46-1.91,3.26-2.11,4.6-1.31,3.75-.18,3.64c1.13-.1,8.6.47,10.32,1.14,1.72.67,5.84,2.11,6.89,2.59s4.88,1.63,6.51,1.72,6.61-.19,8.62-.86c2.01-.67,3.54-.38,3.54-1.91s.67-4.69-.38-5.65-2.39-1.91-2.39-1.91Z"/>
        <path class="cls-9" d="M57.87,135.07c2.14,1.43,4.35,2.8,6.61,4.14,1.16-1.67,2.14-1.52,2.96.47l1-1.27c5.45.74,9.74.53,12.88-.66-1.19-.73-1-1.15.45-1.31,2.38-2.26,2.96,4.72,1.46,5.6-10.85,2.53-22.92-.33-33.77-2.54-.17-2.85,1.62-4.99,3.45-4.92,1.8.06,3.37.11,4.96.5Z"/>
        <path class="cls-101" d="M69.37,133.5c-.48,1.56-1.13,2.98-1.93,4.25,3.01-.29,2.99.97,0,1.93-.57.03-1.08,1.05-1.69.49-.45-.42-.95-.59-1.27-.95-2.28-.01-5.09-2.34-4.56-4.74,1.25-.85,13.11-8.49,10.52-2.85-.23.51-.59,1.04-1.08,1.88Z"/>
        <path class="cls-74" d="M64.48,139.21c-1.41,1.15-3.12,1.22-4.24.28-1.56-1.3-2.34-2.75-2.37-4.42.59-.33,1.49-.22,2.05-.6,2.15.9,4.35,2.23,4.56,4.74Z"/>
        <path class="cls-44" d="M71.73,134.47c1.33.45,1.24.93-.13,1.45-.24.7-.66.68-1.23.09,1.42,2.38-.86,3-2.93,1.74-.77-.91-1.65-2.29-.75-3.14.83-.78,1.83-.97,2.68-1.1.91-.21,1.59.83,2.36.97Z"/>
        <path class="cls-75" d="M79.78,136.2c.51-.02,1.56.45,1.99.23l-.45,1.31c-1.75,1.9-12.75,2.04-10.95-1.74.31-.13.87-.12,1.23-.09,2.58-1.07,5.66-.8,8.18.28Z"/>
        <path class="cls-51" d="M79.78,136.2c-2.73.1-5.46-.06-8.18-.28l.13-1.45c2.68.48,6.51-.98,8.05,1.74Z"/>
        <path class="cls-63" d="M81.32,137.75c-.33,4.79,2.19,1.09-13.88,1.93v-1.93l2.93-1.74c2.33,3.45,7.23,1.19,10.95,1.74Z"/>
      </g>
      <g id="back-leg">
        <path class="cls-5" d="M70.03,79.17c-1.15-2.11-2.49-6.7-3.45-8.62s-3.06-5.36-4.21-6.7c-1.15-1.34-4.6-3.06-7.66-1.91s-7.28,1.91-10.72,2.11c-3.45.19-9.57-2.3-12.26-1.53-2.68.77-5.74.19-5.94,2.3s-1.72,8.23-1.15,9,3.45,8.43,7.09,10.15c3.64,1.72,7.47,1.15,10.34,1.72,2.87.57,7.47-.96,8.04.38s5.55,5.94,6.51,8.04c.96,2.11.57,4.6-.38,8.04-.96,3.45.08,12.94-1.97,15.28-2.05,2.34-3.01,8.85-3.01,10.38s0,5.17,1.34,5.17,5.36-2.3,8.62-2.87c3.26-.57,8.43-1.53,10.15-1.91,1.72-.38,2.87-1.15,2.87-3.06s.96-5.36,0-9-.66-9.85-.62-10.76.23-4.36.81-5.9.38-5.74,0-7.85-2.3-5.74-2.68-7.66-1.72-4.79-1.72-4.79Z"/>
        <path class="cls-60" d="M64.35,75.55c-.51,1.34-1.08,1.31-1.7-.02-2.68.44-3.15,1.69-1.4,3.76,2.74-.29,3.31.91,1.38,2.85,1.3.59,1.23,1.14-.15,1.64,1.94,3.58,2.73,7.14,2.35,10.67,1.92-2.51,3.15-1.63,2.5,1.55,2.82,6.9-9.93,4.85-10.77-.25-.9-.97-2.42-1.55-3.14-2.67,1.99-3.46-.01-6.81-6-10.05-4.74-1.99,2.36-11,7.93-10.09,1.61-1.39,4.05-2.97,6.45-2.41,2.07.48,1.82,3.41,2.55,5.02Z"/>
        <path class="cls-62" d="M73.63,105.36c-1.3,2.91-1.3,6.16,0,9.07,0,2.64.56,5.42-.78,8-1.24-2.78-.9-4.79-2.45-6.29-5.51-.71-.88-1.8-.94-1.44-.33,2.07-9.13,4.21-11.07,2.99-1.41-2.72-.76-5.92,1.95-9.59-.67-2.75,1.11-4.11,5.32-4.07-2.21-.19-2.89-1.82-.71-2.84l4.04-3.85c-.89-3.18.7-3.67,3.08-1.25-.35,3.2,1.57,6.09,1.56,9.25Z"/>
        <path class="cls-32" d="M56.9,127.14c.26-1.29.79-1.41,1.61-.37.21-4.62,5.03-7.11,8.93-7.42-.7-3.16.92-4.04,3.03-1.65.96,2.31-2.64,5.1-.87,8.2l-14.31,7.4c.63-2.72,2.17-4.09,1.61-6.16Z"/>
        <path class="cls-92" d="M60.88,100.79c1.46.59,3.05,1.67,4.78,3.25.25,1.86-2.46,2.08-3.41,3.68-2,3.38-1.26,7.5-3.87,9.98-3,3.82-5.04,1.29-3.43-3.08.18-.81.13-2.22.15-3.08.44-1.35.95-1.33,1.54,0,1.06-2.71,1.98-5.34.19-7.85-2.26-3.49,2.21-8.71,4.04-2.89Z"/>
        <path class="cls-70" d="M53.43,93.08c-2.22-3.44-4.69-6.71-7.54-9.66.44-.27,1.07-.2,1.55-.39,5.43-2.22,10.41,5.64,10.12,7.14-.43,2.23-2.19,3.54-4.12,2.91Z"/>
        <path class="cls-1" d="M67.34,96c2.03-2.25,2.96-1.46,1.65,1.36-.16,1.11-.36,2.26-1.17,3.22-.63.75-1.81,1.14-2.87.63-.36,2.27-3,1.34-4.06-.41-.88-.16-2.09-.36-2.97.23-.74.5-.99,1.79-1.07,2.66,1.9,2.29.94,5.32-.19,7.85h-1.54c.12-5.32-.7-10.81,1.47-15.78.91-.49,1.89-.52,2.99-.17,1.19.38.63,2.78,1.68,3.3,1.83.91,3.54.31,5.24.22,1.02-.06,1.12-1.84.85-3.09Z"/>
        <path class="cls-52" d="M70.39,116.14c.12.49-.12,1.09.07,1.55l-3.03,1.65c-5.84,3.2-8.92,3.17-9.25-.11-1.28-.6-1.2-1.12.19-1.54,3.98-.53,7.88-1.89,10.71-5.14,1.66.73.63,2.92,1.3,3.59Z"/>
        <path class="cls-23" d="M70.52,91.48l1.54,1.54c0,1.02.11,2.07,0,3.08-1.09.24-2.13.67-3.08,1.25-.48-.54-1.1-.91-1.65-1.36-.77-.63-1.65-1.07-2.5-1.55-1.72-3.06-1.07-5.11,2.55-4.5,1.73-2.52,3.06-1.57,3.14,1.53Z"/>
        <path class="cls-47" d="M58.38,117.7l-.19,1.54c1.29.51,1.29,1.03,0,1.54-.98,1.28-1.41,3.4-1.29,6.36-1.62-.3-3.41.37-4.72-.81,2.69-4.21.11-8.74,2.77-11.72.04.65-.1,1.61.28,2.24.64,1.07,2.11.99,3.14.85Z"/>
        <path class="cls-43" d="M70.52,83.77c1.57,1.38,2.01,4.04,1.54,6.17v1.54c-.47.62-.99.6-1.54,0-1.11-.36-2.15-.93-3.14-1.53-3.59.26-4.32-2.79-2.33-5.56-.76-2.65,4.02-2.53,5.47-.62Z"/>
        <path class="cls-64" d="M64.35,75.55c.41.9,2.85,1.08,2.66,2.73-.11.93-.59,1.84-1.12,2.62,1.51,2.3-1.79,3-3.25,1.23-.9-.65-1.15-1.79-1.38-2.85-2.73-1.26-1.72-4.2,1.4-3.76l1.7.02Z"/>
        <path class="cls-31" d="M70.52,82.23v1.54l-5.47.62c-1.23,2.75-2.43,2.43-2.57-.62l.15-1.64c1.25.29,2.22-1.09,3.25-1.23,1.34-.19,3.65.35,4.63,1.33Z"/>
        <path class="cls-53" d="M73.62,114.44c-2.57-1.81-2.62-7.24,0-9.07v9.07Z"/>
        <path class="cls-58" d="M72.07,89.94c-1.14-1.86-1.54-4.01-1.54-6.17v-1.54c1.78,1.78,4.38,6.12,1.54,7.71Z"/>
        <path class="cls-25" d="M72.07,93.02c-.57-.46-1.08-.98-1.54-1.54.47.15,1.06-.1,1.54,0v1.54Z"/>
        <path class="cls-85" d="M65.05,84.39c1.54,1.43,2.13,3.51,2.33,5.56-1.11,1.34-2,2.84-2.55,4.5-1.81-1.02-4.73-8.24-4.22-9.03.44-.69,1.17-1.18,1.87-1.64l2.57.62Z"/>
        <path class="cls-5" d="M62.65,75.53c-.82,1.09-1.26,2.4-1.4,3.76-1.78-.06-3.24-.3-3.22-2.42,0-1.27.47-2.57,2.25-2.43.82.06,1.54.14,2.37,1.09Z"/>
        <path class="cls-91" d="M64.94,101.2c1.01.53.61,2.09.71,2.84-1.11.16-2.33.17-3.35-.46-.86-.53-2.7-1.59-1.43-2.79,1.25.23,2.91-.19,4.06.41Z"/>
        <path class="cls-29" d="M67.43,119.34c-2.07,3.41-5.43,5.6-8.93,7.42-1.63-.85-2.75-5.2-.32-5.98-.03-.51-.06-1.04,0-1.54,2.89,1.41,9.56-4.17,9.25.11Z"/>
        <path class="cls-92" d="M58.19,120.78l.32,5.98c-.38.2-1.19.45-1.61.37-.4-1.52-1.03-2.89-1.59-4.33-.77-1.99,1.07-2.4,2.87-2.03Z"/>
        <path class="cls-41" d="M56.64,111.53c-.03-2.62-.04-5.24.19-7.85,1.88,0,2.66,2.17,2.24,3.37-.64,1.83-.83,3.65-2.43,4.48Z"/>
      </g>
    </g>
    <g id="front-leg-assembly">
      <g id="front-shoe">
        <path class="cls-16" d="M22.35,142.74c.25-.62.29-2.68-.19-3.16s-.77-.19-.48-1.82,1.05-3.16,1.05-4.21-1.63-4.98-3.45-5.65c-1.82-.67-3.54-.86-5.94-1.44-2.39-.57-3.45-1.44-4.02-1.05s-2.11,2.49-2.3,3.45-1.72,5.55-2.78,6.61-3.26,2.11-3.73,3.64-.67,4.31-.29,5.17,1.82,2.39,3.16,2.39,5.84.1,8.43.1,6.99.29,8.81-.1,1.53-3.45,1.72-3.93Z"/>
        <path class="cls-95" d="M3.95,142.38c1.38.51,1.37,1.02-.02,1.53,5.15,1.29,10.54,1.37,15.7,0-1.35-.44-1.33-.95,0-1.54.97,0,1.86-1.79,2.5-1.36.76.51.81,3.76.46,5.52-6.01-.22-23.69,3.71-22.54-4.31.16-1.11,1.93-2.35,2.58-3.13.33,1.14.8,2.22,1.32,3.29Z"/>
        <path class="cls-90" d="M8.24,125.5c-.3,2.64,1.74,4.52,3.69,6.08h-1.54c.77,2.07-1.18,2.31-3.08,1.54-1.13,3.09-2.56,3.12-3.17-.21,1.16-2.4,2.41-5.47,4.11-7.41Z"/>
        <path class="cls-45" d="M19.63,142.37v1.54c-5.09,1.38-10.58,1.3-15.7,0-.11-.46.22-1.11.02-1.53h15.68Z"/>
        <path class="cls-80" d="M7.3,133.12c1.35.44,1.33.95,0,1.54,1.91,1.24.52,2.6-1.54,3.08-1.08.52-1.89,1.86-3.12,1.34-.77-2.48.55-4.21,1.5-6.18l3.17.21Z"/>
        <path class="cls-3" d="M11.92,134.66c-1.71,1.54-3.8,4.72-6.17,3.08.21-1.16.7-2.25,1.54-3.08.67-1.87,3.68-2.16,4.63,0Z"/>
        <path class="cls-50" d="M14.75,135.06l-2.83-1.94c-1.51.48-2.02-.03-1.54-1.54h1.54c.18.15,3.88-.54,4.27.71.32,1.02-1.53,2.11-1.44,2.77Z"/>
        <path class="cls-87" d="M10.38,131.58c.5.51.94,1.13,1.54,1.54v1.54h-4.63v-1.54c.86-.81,1.94-1.31,3.08-1.54Z"/>
        <path class="cls-16" d="M19.63,143.91c-4.12,2.62-11.11,2.67-15.7,0h15.7Z"/>
      </g>
      <g id="front-leg">
        <path class="cls-2" d="M10.29,118.8c-1.15,2.49-1.34,6.13-2.49,8.23-1.15,2.11-3.06,4.21-1.15,5.74,1.91,1.53,3.49,4.04,7.2,4.51,3.71.47,6.39.08,7.73-.49s2.68-3.06,3.45-4.98,1.53-9.19,4.21-12.06,4.02-5.36,4.98-7.09,2.68-2.49,3.45-4.98.19-7.09,1.34-9.19c1.15-2.11,2.3-4.21,3.26-6.13s3.83-5.55,5.17-6.89c1.34-1.34,6.13-2.3,7.66-6.89,1.53-4.6,2.3-6.7,2.3-10.15s1.34-5.94-1.91-5.74-7.47.77-10.53,1.53c-3.06.77-8.23-.77-10.34-1.15s-6.51-1.53-8.04.57-1.91,7.28-1.72,10.53.96,5.94.96,7.66-2.49,12.64-4.02,14.74c-1.53,2.11-6.51,8.81-8.04,10.34s-3.45,11.87-3.45,11.87Z"/>
        <path class="cls-36" d="M25.48,106.53c-1.67-2.2-2.56-3.92.68-4.1,3.93-2.33,6.15-1.15,6.87,3.29,1.35.89.16,3.96-1.36,4.57-2.08,6.3-5.14,12.46-9.18,18.48-2.86,9.04-5.44,11.14-7.75,6.29l-2.83-3.48c-5.93-.09-5.78-.7-3.69-6.08.97-6.2,3.49-21.86,11.02-23.1,1.84,2.41,3.92,3.78,6.23,4.13Z"/>
        <path class="cls-2" d="M55.35,72.94c-1.19,1.03-3.04,1.76-4.22,3.14-1.34,1.57,1.88,2.97,2.23,4.06-.99.93-3.67.57-4.78.92-.75.23-1.9.34-1.15,1.96-.17,1.16-.7,1.27-1.55.39l-3.12,1.9c-4.45-2.02-2.33-5.42.53-7.83-1.39-.66-1.35-1.19.13-1.6-1.37-2.79-1.13-4.25.74-4.4.44-1.36,1-1.36,1.68-.05l4.82-4.56c-1.34-.39-1.27-.85.09-1.39.64-3.84,1.74-4.23,4.62-1.58.64.02,1.42-.13,2.74.57-2.5,2.05-4.58,4.96-6.05,8.39,1.49.94,2.69-.07,3.29.08Z"/>
        <path class="cls-104" d="M28.62,90.11c.54,8.63-8.76,14.96-5.56,1.2l.64-5.29c.33-2.74.74-5.01,1.98-6.82.29-3.65,1.36-5.21,3.21-4.67.93.02,1.81.12,2.5.53s-2.16,12.93-2.77,15.05Z"/>
        <path class="cls-78" d="M42.76,85.31c-.52,2.33-2.49,4.13-3.4,6.26-1.46,3.42-3.51,3.76-6.69,2.36.47,4.1-1.01,4.12-2.87.49-2.01-1.02-1.23-3.04.45-4.28-1.33-1.73-.99-4.7.4-6.15,1.09-4.63,11.63-3.27,12.11,1.32Z"/>
        <path class="cls-39" d="M37.7,97.61c-.28.89.44,2.18.44,3.12-1.46,2.53-3.16,4.19-5.1,4.99-2.52-.55-4.67-1.99-6.87-3.29-7.67.05-.25-6.14,3.63-8.01l2.87-.49c3.69-1.54,5.25-.22,5.02,3.68Z"/>
        <path class="cls-8" d="M30.25,90.14c-.23,1.4-.37,2.88-.45,4.28-.63,2.83-5.95,4.96-3.63,8.01.02,1.15-.36,2.95-.68,4.1l-2.07,1.06c-1.53-.24-2.91-1.97-4.16-5.19l3.81-11.09c-.22,1.8-.05,3.96,1.87,6.56l3.69-7.76c.5-1.34,1.04-1.3,1.63.04Z"/>
        <path class="cls-105" d="M33.22,111.63c-3.95,7.97-3.55,14.21-10.73,17.14l-2.27-3.85c5.19-3.94,7.52-9.87,11.45-14.62,1.01-1.51,1.52-1.06,1.55,1.34Z"/>
        <path class="cls-86" d="M33.51,65.27c.92,1.27-.11,2.46-3.12,3.57l-1.51,2.6c3.74.77,3.53,1.88,0,3.08l-3.21,4.67c-.73-5.81,1.45-11.35,1.8-17.14,3.75-2.16,5.42-.82,6.03,3.21Z"/>
        <path class="cls-82" d="M14.75,135.06c.85,1.06,4.58,1.93,4.72.47.23-2.28-1.35-3.88-.12-4.95.76-.66,2.1-1.38,3.15-1.81-.3,3.24-.23,8.43-3.91,9.92-1.73.7-4.18-.58-4.73-1.39-.46-.68.28-1.15.9-2.24Z"/>
        <path class="cls-46" d="M39.36,91.57c-.81,1.89-1.05,4.08-1.66,6.04-2.38-.22-2.84-3.11-5.02-3.68,1.16-2.99,4.42-1.24,6.69-2.36Z"/>
        <path class="cls-21" d="M38.14,100.73c0,2.58-1.28,4.5-3.08,6.17-1.75,2.01-2.56,1.4-2.02-1.18,1.38-2.09,2.01-5.3,5.1-4.99Z"/>
        <path class="cls-35" d="M35.05,106.9c-1.19,1.09-1.15,3.36-1.83,4.73-.83.09-1.53-.5-1.55-1.34.43-1.28.5-3.27,1.36-4.57.77.17,1.46.63,2.02,1.18Z"/>
        <path class="cls-55" d="M25.48,106.53c-.45,1.61-2.32,3-4.01,3.17-1.54.15-3.44-1.45-4.91-2.02,2.66-1.11,4.6-.76,4.06-2.25-.38-1.05-1.68-2.12-1.36-3.03,2.7.38,4.08,2.83,6.23,4.13Z"/>
        <path class="cls-77" d="M38.14,76.06c1.53,1.04,3.25,1.51,5.16,1.42,1.12,2.38.03,5.3-.53,7.83l-12.11-1.32c-.49-3.25-.74-10.41,4.21-9.3,1.77-10.42,15.29-.74,3.28,1.37Z"/>
        <path class="cls-97" d="M39.68,66.81c6.56.81,8.06,2.37,4.49,4.68.09,1.52.11,3.09-.74,4.4-1.28,2.18-3.55,1.95-5.29.17,1.09-.89,2.28-1.56,4.7-2.15-2.63-2.11-5.56-.66-7.98.78-5.08-.57-3.66-4.16.2-6.34-.68-1.35-.1-1.82,1.54-1.54,0-2.24,2.36-2.05,3.08,0Z"/>
        <path class="cls-20" d="M43.43,75.89c-.22.34-.13,1.22-.13,1.6-.5,1.15-1.94,2.07-3.39,1.01-.86-.62-4.94-1.11-1.77-2.44,1.76-.18,3.53-.23,5.29-.17Z"/>
        <path class="cls-81" d="M35.05,68.35c-1.11,1.92-.59,4.49-.2,6.34-1.98,2.79-4.1,5.74-4.21,9.3-.06,2.03-.07,4.14-.4,6.15l-1.63-.04c-.95-5.09,3.08-10.88.27-15.59-.47-.78.27-2.2,0-3.08.58-2.87,3.74-5.16,6.17-3.08Z"/>
      </g>
    </g>
    <g id="back-arm-assembly">
      <g id="back-arm">
        <path class="cls-102" d="M69.65,32.92c1.47.47,2.32,1.22,4.41,1.09s2.58-.71,4.49-.03,4.69,1.34,7.18,1.34,4.31-.96,5.74-1.24c1.44-.29,4.12.57,5.46.67s6.22.57,7.28,0,3.35-1.05,3.93-1.34,1.91-2.97,1.63-3.83-.96-2.78-2.39-3.64-1.91-1.44-4.79-1.63c-2.87-.19-7.85.19-9.1.1-1.24-.1-1.63-1.53-3.06-2.11-1.44-.57-4.4-2.11-6.7-1.53-2.3.57-3.35.57-4.79.96-1.44.38-2.49-1.63-4.12-1.24-1.63.38-4.6.19-6.13,1.63s-1.72,3.64-1.72,4.79.29,5.27,2.68,6.03Z"/>
        <path class="cls-102" d="M92.64,26.45c.99-2.31,2.26-2.52,2.54.06l9.34,3.01-.07,3.36c-2.76,4.02-7.71.28-11.55.04-6.37-.39-13.26,2.34-17.4-3.04-.73,2.61-1,3.29-1.44,4.13s-1.3.21-2.05.38c-3.24-3.23-1.64-7.44,3.02-7.38,1.8-1.35,4.66-1.65,8.57-.89,3.94,2.24,6.96,2.35,9.05.32Z"/>
        <path class="cls-93" d="M92.73,24.14c2.97.51,2.9,1.74-.09,2.31,2.01,8.4-15.98-.46-17.62.57.49-1.17.76-2.44,1.46-3.53,1.7-.95,4.72-1.14,6.26.1,2.68-1.53,5.21-.86,7.1,1.57.12.16-3.26-2.22-.81-3.07.84.88,3.15.53,3.7,2.06Z"/>
        <path class="cls-18" d="M105.99,24.94c-.32,4.87-3.92,5.4-10.81,1.57-.55-.8-1.82-.24-2.54-.06l.09-2.31c3.95-.48,11.19,0,13.26.79Z"/>
        <path class="cls-68" d="M89.03,22.09c.19,1.54-1.1,1.81-3.87.82l-2.42.69c-2.13.88-4.02,1.37-6.26-.1l.25-2.87c4.44,2.68,8.54-2.5,12.3,1.47Z"/>
        <path class="cls-28" d="M105.99,29.8c-1.25.53-.95,2.23-1.54,3.08-2.13-3.54-6.98-3.03-9.27-6.37,6.75-.44,8.14,3.46,10.81-1.57,1.19.91,2.37,4.39,0,4.86Z"/>
        <path class="cls-109" d="M89.03,22.09c-.06,1.47,2.69,1.87,1.01,4.67-1.86-1.62-4.75-4.22-7.3-3.17,1.49-1.87,4.06-1.69,6.29-1.51Z"/>
        <path class="cls-93" d="M75.9,31.55c1.47-.57,2.87-.89,5.11-.89s6.32.32,7.66.83c1.34.51,2.04,1.34,2.04,1.34,0,0,.26.57-.64.45s-4.09.06-5.11-.32c-1.02-.38-1.91.57-2.87.64-.96.06-3.19-1.02-4.21-1.02s-1.98-1.02-1.98-1.02Z"/>
      </g>
      <g id="back-glove">
        <path class="cls-98" d="M114.97,22.74c-2.3.13-3.89.45-5.23.64s-2.7.88-3.74,1.56-2.26,4.12-2.07,5.78.32,3.38,1.02,3.89,2.62.57,3.83.19c1.21-.38,4.98-1.28,6.45-.64s4.34.51,5.68.7c1.34.19,4.79.45,5.87.57,1.09.13,2.43-2.23,2.62-3s.19-1.91.89-2.55,1.66-3.06,1.02-4.72-1.98-2.94-3.26-2.94-13.09.51-13.09.51Z"/>
        <path class="cls-67" d="M129.12,26.73c-.72,4.05-2.14,3.79-3.08-.18-.47,1.34-.98,1.31-1.54-.03-2.31,1.54-5.05,1.4-6.14-1.62-1.07,5.92-7.08.84-4.65-2.81l12.61-.12c2.44-.02,3.94,2.55,2.83,4.73l-.02.04Z"/>
        <path class="cls-48" d="M118.36,24.9c3.68,2.39,3.38,4.21-.86,5.32,1.34.47,1.21.92-.23,1.35l-5.1,1.31c-1.61-.23-2.12-2.28-1.54-6.17-1.75-1.8-.56-2.61,1.54-3.65.49-.36,1.01-.69,1.54-.98.47,2.26,2.57,2.92,4.65,2.81Z"/>
        <path class="cls-48" d="M127.78,33.08c-.76.7-.8,2.1-1.65,2.42-1.58.58-2.74-.17-3.77,0-2.69-1.39-4.24-3.86-1.37-5.52-.24-2.31,1.33-3.04,3.51-3.46l1.54.03c2.98.28,3.19,4.35,1.74,6.53Z"/>
        <path class="cls-67" d="M120.99,29.98c-.02,1.93.42,3.83,1.37,5.52-2.64.47-3.91-1.87-5.1-3.93.1-.45.21-.89.23-1.35.68-3.53,2.28-3.69,3.49-.24Z"/>
        <path class="cls-98" d="M112.16,32.88c-1.59.41-2.87,1.68-4.63,1.54-.98-1.95-.55-5.09,1.54-6.17-1.31-1.95-.54-2.77,1.54-1.54.75.04,1.52-.36,3.19.41-1.41,1.91-1.78,3.8-1.65,5.76Z"/>
        <path class="cls-30" d="M129.12,26.73c1.11.9,1.59,2.18,1.42,3.5-.23,1.72-1.79,1.97-2.76,2.85-2.19-1.35-.73-4.4-1.74-6.53l3.08.18Z"/>
        <path class="cls-59" d="M109.08,28.25c-.03,2.15-.4,4.32-1.54,6.17-2.39-.18-1.54-2.94-1.54-4.63v-4.86l1.54-.08c2.48-.74,2.4,1.39,1.54,3.4Z"/>
        <path class="cls-30" d="M112.16,23.07c-.51,1.21-.89,2.5-1.54,3.65-.35.61-1.12.98-1.54,1.54-1.39-.51-1.56-2.09-1.54-3.4,1.23-1.21,2.95-1.62,4.63-1.79Z"/>
        <path class="cls-107" d="M124.5,26.52c.25,1.18.04,2.59-.97,2.97-.97.37-1.81.44-2.54.49l-3.49.24c.11-1.8.46-3.57.86-5.32,2.28-.12,5.14-.89,6.14,1.62Z"/>
      </g>
    </g>
    <g id="body">
      <path class="cls-88" d="M27.48,62.05c.36,1.29-1.04,2.05.49,2.69s3.85,1.32,5.44,2.32,6.56,1.38,9.37,1.51,6.77-1.28,9.32-1.91,3.45-1.4,4.09-1.79,2.04-2.68,2.04-3.7,1.28-3.57,2.04-6.38,1.15-6.38,2.94-8.17c1.79-1.79,5.62-3.83,5.62-5.49s-.51-5.49.64-5.87c1.15-.38,3.32-2.17,4.09-4.09s3.95-10.24,3.19-10.55-2.3-.31-4.47-.31-6.57.83-8.36,1.98-1.91,1.85-4.47,1.85-8.11,3.7-10.15,2.55c-2.04-1.15-4.46-3.42-4.98-4.71s-6.13-2.31-8.17-1.29c-2.04,1.02-8.3.51-10.47,1.91s-6.89,6.64-7.28,9.19-.38,6,.51,6.89,8.04,4.98,8.94,6.89c.89,1.91,2.43,6.38,1.66,8.04s-2.02,8.42-2.02,8.42Z"/>
      <path class="cls-54" d="M34.92,18.89c3.33-.29,6.27-.26,4.64,3.29,2.53.53,4.15,1.55,4.86,3.09,3.12-.5,3.7.8,1.42,2.99,1.32.66,1.27,1.21-.14,1.64,2.62,3.32,1.56,5.17-2.63,4.53-.43,3.25-5.18,3.82-3.59-.11-1.92-1.08-3.28-2.46-4.1-4.15l-1.87,2.72c.66,1.61-1.39,2.64-6.17,3.08,2.29,4.6-2.86,6.4-4.63,1.52-1.62,1.35-3.21,1.87-4.78,1.57,0-4.29-1.23-10.02,1.64-14.03,3.7-5.16,10.57-4.23,15.34-6.14Z"/>
      <path class="cls-42" d="M76.73,20.62c4.08,1.14,3.71,1.87-.25,2.87,3.38,2.35,2.56,3.4-1.46,3.53-1.02,2.46-1.8,5.01-3.02,7.38-5.06,1.15-5.06-6.42-7.8-4.6-1.33-.48-1.29-1,.05-1.54-1.72-2.71-1.62-4.09,1.55-2.85-1.41-3.41-.12-5.23,3.38-5.89,2.42-.13,5.34-.22,7.54,1.1Z"/>
      <path class="cls-100" d="M61.06,42.13c-2.09,4.78-2.52,4.81-5.97,1.28l-3.07.27-1.54.18c-.46,1.34-.98,1.31-1.54-.03-1.35-.49-1.33-1.05,0-1.69-1.87-2.1-.8-3.07,3.22-2.9-1.12-2.85.28-3.47,2.72-1.49.75-2.13,2.47-3.85,5.16-5.17-1.22-4.46.63-5.59,4.17-2.78,4.19,5.74-2.62,5.96-3.14,12.34Z"/>
      <path class="cls-66" d="M56.48,59.44c-.54,1.42-1.7,2.71-1.1,4.46-1.44.74-2.98,1.43-4.62,1.58-4.41,1.05-11.98.95-15.7-1.76-.44,1.35-.95,1.33-1.54,0-1.39-.33-1.38-.84-.06-1.54l1.98-2.35,15.13,1.73c-3.7.36-5.77-.39-6.21-2.25-1.97-2.31-1.13-3.15,1.5-1.59,5.19-1.16,8.73-.58,10.62,1.74Z"/>
      <path class="cls-54" d="M48.39,17.39c1.39.37,1.41.95.15,1.7.65,1.81-.9,3.24-2.7,2.85-.4,1.36-.9,1.35-1.52.04.38,2.75-2.96,1.68-4.75.19-1.26-1.46-2.77-2.73-4.64-3.29,4.31-1.72,8.66-1.69,13.47-1.5Z"/>
      <path class="cls-11" d="M35.05,57.55c3.27,2.45,2.29,3.75-1.6,4.63-.06.5.06,1.03.06,1.54,1.23.44,1.21.96,0,1.54-2.4-.17-4.26-1.72-6.03-3.21.12-2.05.74-4.05,1.17-6.04,1.59-1.64,5.71-.63,6.4,1.54Z"/>
      <path class="cls-17" d="M56.48,59.44c-3.58-.27-7.64.55-10.62-1.74-2.97-.1-2.84-1.41.19-2.01.06-3.09,2.64-2.81,2.89.32.51-3.02,3.28-3.73,5.75-2.52-.61-2.94.6-3.07,1.83-.2-.13,1.92.68,4.28-.04,6.15Z"/>
      <path class="cls-27" d="M61.06,42.13c-.29,3.48-1.75,6.98-4.42,9.25-3.47-.25-3-1.6,0-3.08-1.36-1.94-2.69-3.27-4.63-4.63,2.53-3.45,5.92,1.52,9.05-1.54Z"/>
      <path class="cls-12" d="M36.6,57.55c-.44,1.35-.95,1.33-1.54,0-2.3,0-4.37-.61-6.4-1.54-1.52-.7-2.05-1.85-2.89-3.19,2.42.62,12.8.97,10.83,4.73Z"/>
      <path class="cls-88" d="M56.64,51.39l-.13,1.91-1.83.2c-3.47,2.59-5.85-.48-2.93-3.4-.23-3.94.17-4.14,3.35-1.79.44-1.35.95-1.33,1.54,0v3.08Z"/>
      <path class="cls-94" d="M38.05,34.26c3.47,1.3,3.5,2.38.09,3.25-2.01,2.34-5.09,1.83-9.25-1.54h-1.54c1.66-1.78,4.36-1.53,6.17-3.08.35-1.37.87-1.33,1.54,0,.5-2.41,2.98-.82,2.99,1.38Z"/>
      <path class="cls-96" d="M43.08,34.42c.79,1.02.28,2.25-.3,3.27.46,4.43-1.69,4.68-4.63,1.36-1.35-.44-1.33-.95,0-1.54l-.09-3.25c.42-1.28.91-1.23,1.44.05.46.81,1.24,1.18,1.83.95s1.46-.57,1.76-.84Z"/>
      <path class="cls-38" d="M39.49,34.31c-.45-.11-1.03.14-1.44-.05l-2.99-1.38c-3.96-1.17-3.76-1.91.33-2.72,2.24-.53,3.91,2.33,4.1,4.15Z"/>
      <path class="cls-79" d="M35.39,30.16l-.33,2.72c-.44-.2-1.07.1-1.54,0-.83-2.35-4.27-.22-6.45-2.87,2.21-2.81,5.49.82,8.32.15Z"/>
      <path class="cls-108" d="M38.56,57.46c3.02-2.41,5.06-2.42,5.79,1.84l6.21,2.25c-5.73,1.44-11.4.24-17.11.63.21-1.64.8-3.19,1.6-4.63h1.54l1.97-.09Z"/>
      <path class="cls-84" d="M50.48,43.85c2.51.42,5.69,1.57,4.63,4.45-.97.79-2.09,1.56-3.35,1.79.44,3.56.23,3.54-2.76,1.31-.28,3.36-3.08,2.71-5.12.52,1.65-1.98,3.27-4.09,3.52-6.71.07-.72.87-1.4,1.54-1.39l1.54.03Z"/>
      <path class="cls-76" d="M46.04,55.7c-.23.58.14,1.5-.19,2.01-.37.59-1.15.96-1.5,1.59-1.84-.67-4.42.13-5.79-1.84,1.38-2.2,2.93-4.36,5.31-5.53,2.32.2,4.54,1.45,2.17,3.77Z"/>
      <path class="cls-17" d="M56.64,48.3h-1.54c-.97-1.99-2.96-3.08-4.63-4.45l1.54-.18c1.43-.03,3.02.27,3.9,1.49.65.91.73,2.08.73,3.13Z"/>
      <path class="cls-106" d="M51.75,50.09c-.25,1.85,1.12,3.28,2.93,3.4-.93,2.28-3.54,2.76-5.75,2.52-2.78-.92-3.68-4.07.06-4.61.88-.34,1.75-1.13,2.76-1.31Z"/>
      <path class="cls-33" d="M48.99,51.41l-.06,4.61-2.89-.32c-.1-1.61-3.27-1.89-2.17-3.77,1.54-.95,3.45-.15,5.12-.52Z"/>
    </g>
    <g id="Head">
      <g id="neck">
        <path class="cls-110" d="M45.92,19.28s.79-.91,1.72-1.46,2.76-1.86,3.22-2.09,1.8-1.09,2.45-.96,2.48.09,3.13.55,3.8,2.03,4.07,3.11.48,3.69.39,4.43.02,1.49-.3,2.25-1.39,2.78-2.53,2.71-4.71.37-6.39-.54c-1.68-.91-4.14-2.87-4.73-4.09s-1.03-3.92-1.03-3.92Z"/>
        <path class="cls-110" d="M59.7,29.88c-1.84,2.38-7.64,2.64-11.37-.24s-4.54-7.64-2.7-10.03c1.84-2.38,6.35-1.98,10.08.89s5.83,6.99,3.99,9.37Z"/>
        <path class="cls-110" d="M55.16,16.63c-1.45-1.58-2.43.68-3.34,1.57-.48.68-5.93,4.97-5.55,8.43,7.67,3.03,11.44,2.88,9.82-6.5-.5-1.17-1.31-2.14-.94-3.49Z"/>
        <path class="cls-111" d="M56.04,16.35c-.43-.04-.83.18-1.2.4-.07.04-.13.08-.18.14-.06.07-.08.17-.1.26-.14.64-.28,1.3-.23,1.96.02.21.05.42.05.63,0,.23-.04.46-.05.69-.02.57.14,1.13.15,1.69,0,.32-.04.64.02.95.04.23.13.46.19.69.19.76-.02,1.55-.07,2.33,0,.1,0,.21.03.3.06.14.2.23.31.34.43.41.47,1.1.87,1.54.15.17.34.29.54.4.44.25.9.46,1.38.64.41.16.85.3,1.28.21.57-.11.99-.6,1.21-1.14s.25-1.12.3-1.7c.06-.65.14-1.3.25-1.94.05-.27.1-.55.09-.83-.04-.71-.51-1.34-1.11-1.71-.23-.14-.51-.27-.61-.52-.06-.15-.05-.32-.05-.48,0-.77-.26-1.52-.51-2.24-.15-.41-.29-.82-.54-1.19-.26-.38-.61-.69-1.03-.89l-.99-.56Z"/>
        <path class="cls-73" d="M49.6,17.03c-2.67,1.33-4.07,2.06-4.2,3.31-.08.76.36,1.33.43,1.42.8,1,2.47.91,3.49.55,1.42-.5,2.08-1.72,2.6-2.67.5-.92,1.42-3.03.75-3.6-.4-.34-1.3.1-3.07.99Z"/>
      </g>
      <g id="face">
        <path class="cls-103" d="M65.56,22.5c-.03.37.09,1.65,0,2.12s-.1,1.09-.62,1.11-1.9-.04-2.26-.32-6.7-4.93-7.3-5.35-4.68-2.31-5.48-3.22-2.05-2.29-2.17-3.6-.45-3.49-.06-4.89,2.2-4.3,3.18-4.82,4.23-1.57,6.34-1.12,3.97.41,6.39,2.08,5.15,4.63,5.86,5.81.67,1.92.51,2.57-.35,2.07-.65,2.89-.1,2.76-.3,3.16-.62.33-.78.09-.67-.42-1.01-.49c-.36-.07-.41.4-.53.7s-.39.8-.62.82-1.01-.23-1.46-.12-.84.33-.79.6.04.68.42.85,1.09.42,1.29.48.05.67.05.67Z"/>
        <path class="cls-71" d="M65.71,23.86c-.12-.98-.09-1.97.1-2.94.07-.36,1.77-1.77,1.65-2.12-.1-.29-1.56-.47-1.8-.65-.29-.22-1.04,0-1.59.01-1.15.02-2.01-.04-3.15.08-.43.05-.97.24-.95.68,0,.22.17.39.27.59.31.64-.11,1.39-.15,2.1,0,.11,0,.22.07.3.04.06.11.09.17.12.53.27,1.06.53,1.59.8.78.39,1.57.79,2.42.98.37.08.76.13,1.14.17"/>
        <path class="cls-72" d="M67.86,18.52c.7-.22,1.01-.88,1.21-1.49.42-1.26.68-2.57.77-3.89.02-.28,0-.62-.3-.77-.1-.05-.21-.07-.32-.08-1.1-.17-2.19-.34-3.29-.51-.59-.09-1.29-.15-1.65.22-.16.16-.21.38-.26.59-.35,1.51-.7,3.08-.22,4.61.08.25.19.51.43.68.19.13.43.19.66.24.79.18,1.59.37,2.38.55l.59-.15Z"/>
        <path class="cls-71" d="M57.06,18.15c.1-.46.09-.93.08-1.4,0-.22,0-.44-.07-.65-.04-.15-.11-.29-.13-.43-.02-.14,0-.28.02-.42.06-.35.14-.7.24-1.05.07-.23.15-.47.23-.7l.21-.6c.05-.15.12-.31.28-.39.15-.07.34-.05.51-.02.45.07.9.14,1.35.21.12.02.25.04.35.09.11.05.19.14.29.21.18.13.4.22.61.31.63.26,1.24.57,1.82.91.23.14.47.29.6.5.08.12.12.25.2.37.18.26.56.44.6.74.01.1-.01.19,0,.29,0,.2.13.39.14.59.02.33-.28.61-.63.75s-.73.19-1.09.3c-.3.09-.58.23-.9.27-.26.04-.53,0-.79,0-.51-.02-1.02.01-1.53.05-.35.03-.71.05-1.04.15-.36.11-.71.31-1.1.26l-.25-.36Z"/>
        <path class="cls-103" d="M60.14,16.17c-1.09-.31-2.28-.29-3.38.08-.36.12-.72.27-1.09.38-1.3.39-2.65.2-3.96-.05-.44-.08-.91-.19-1.17-.59-.26-.38-.24-.92-.15-1.4s.26-.95.27-1.44c0-.33-.07-.66-.09-.99-.02-.41.05-.82.11-1.23.13-.78.25-1.55.38-2.33.04-.22.07-.45.18-.64.15-.27.4-.43.64-.58.49-.31,1-.62,1.54-.73.19-.04.37-.05.56-.1.19-.05.38-.14.57-.2.48-.15.97-.15,1.46-.13,1.3.06,2.6.24,3.87.55.33.08.66.17.97.31.27.12.52.27.77.42.22.14.45.27.67.41.19.11.39.24.5.44.18.33.08.79-.12,1.12s-.49.59-.74.88c-.35.42-.62.93-.77,1.48-.06.22-.11.45-.2.66-.08.18-.2.34-.29.52-.42.75-.5,1.66-.56,2.54l.02.62Z"/>
        <path class="cls-6" d="M62.85,9.64c-1.78.79-3.31,2.28-4.13,4.03,1.84.49,3.87,1.2,5.55,1.69,2.24-2.05,2.81-6.6-1.43-5.72Z"/>
      </g>
      <g id="beard">
        <path class="cls-14" d="M67.52,18.3c-.84-.92-2.18-1.17-3.41-1.36-1.24-.2-2.49-.39-3.73-.59-.29-.05-.59-.09-.87,0-.63.19-.88.93-.98,1.58-.1.67-.46.18-.6-.78-.21-1.45-.81-3.12-2.23-3.47l-.43.46c-.6,2.17-1.18,4.59-.1,6.57.58,1.06,1.57,1.83,2.52,2.56,1.8,1.38,3.66,2.79,5.82,3.49.47.15.98.27,1.44.1.95-.34,1.12-1.59,1.13-2.59,0-.13,0-.26-.05-.38-.06-.14-.19-.24-.31-.33-1.01-.75-2.18-1.28-3.41-1.54-.56-.12-1.14-.21-1.69-.36.25-.03.49-.13.65-.33.13-.16.2-.36.27-.55.23-.67.46-1.34.7-2.02.02-.06.05-.13.09-.18.08-.08.22-.09.34-.09,1.48.03,2.96.38,4.29,1.02l.22-.08c.23.2.62-.02.68-.32s-.12-.59-.33-.81Z"/>
      </g>
      <g id="hair">
        <path class="cls-56" d="M55.84,12.81c.05.87-.06,1.22-.77,2.14s-1.13,2.53-2.75,3.45-3.11-.31-4.62.52c-1.51.82-3.78.39-4.4-.64s-1.41-1.68-.97-2.69.44-2.28,1.04-3.23.47-4.82.57-5.48,0-3.03.89-3.48,3.69-1.71,4.08-1.95,5.31-.95,6.3-.64c1,.31,4.65.27,5.79.62s4.5,2.25,5.32,3.46,2.33,2.16,2.8,2.85,1.55,2,1.39,2.78-1,1.71-2.38,1.32-3.06-.11-4-1.03-1.8-1.59-2.82-1.16-4.11.62-4.32.51-1.18,1.79-1.13,2.66Z"/>
        <path class="cls-57" d="M62.46,2.47c-1.6-.84-1.3-1.5-2.94-1.62s-5.96-1.26-7.23-.7-2.68.44-3.55,1.71-.59,1.98.39,2.14,3.95,1.05,5.11,1.01c1.16-.04,4.76.03,5.61-.06s3.1-.63,3.07-1.17-.46-1.31-.46-1.31Z"/>
        <path class="cls-22" d="M45,8.27l-.28-.7c-.13-.31-.25-.63-.28-.96-.02-.25.02-.5.07-.75.07-.41.14-.82.21-1.23.02-.11.04-.22.09-.31.06-.1.16-.18.24-.27.24-.24.39-.56.57-.85.39-.6.97-1.06,1.57-1.47.36-.25.75-.49,1.18-.56.32-.05.65-.01.97.03.81.1,1.64.21,2.37.57.23.11.46.26.62.45.23.28.34.63.44.98.12.42.24.84.37,1.25.02.06.04.13.01.19-.02.06-.08.1-.13.14-1.33.92-2.75,1.75-4.3,2.2-.69.2-1.43.33-2.03.73l-1.7.55Z"/>
        <path class="cls-56" d="M65.34,12.34c-.17-.27-.34-.55-.52-.81-.87-1.26-2.06-2.3-3.44-2.98-1.72-.85-3.65-1.14-5.56-1.35-.87-.1-1.75-.18-2.63-.24-.45-.03-.9-.06-1.34.04-.73.18-1.32.7-1.87,1.21-.4.37-.79.73-1.19,1.1-.49.45-1.01.92-1.64,1.12-.07.02-.14.04-.22.03-.22-.02-.35-.24-.44-.44-.28-.57-.55-1.15-.83-1.72-.27-.56-.53-1.24-.21-1.77.26-.42.8-.57,1.3-.59s1,.05,1.48-.1c.57-.18,1.01-.64,1.56-.87.54-.23,1.19-.24,1.63-.64.3-.27.43-.68.58-1.05.07-.18.17-.37.35-.43.28-.1.54.15.77.34.5.41,1.15.57,1.78.72.66.15,1.33.31,2.01.3.65,0,1.29-.17,1.94-.18,1.1-.01,2.18.43,3.08,1.06s1.66,1.46,2.37,2.3c-.24-.09-.53.01-.67.23-.17.27-.07.64.13.89s.48.41.75.59c.48.33.9.75,1.23,1.22.44.62.71,1.52.22,2.1-.16.07-.36,0-.45-.14l-.17.05Z"/>
        <path class="cls-57" d="M60.41,7.26c0-.44,1.82-.96,2.29-.89,1.35.18,2.71.37,4.06.55.87.12,1.78.26,2.47.77,1,.76,2.15,3.43,1.92,4.57-.03.15-.07.3-.17.41-.16.18-.43.23-.68.25-.61.06-1.22.02-1.84-.01-.82-.05-2.77-.27-3.59-.32-.4-.02-.62-1.19-1-1.29-1.09-.28-1.92-1.15-2.3-2.12s-1.16-1.93-1.16-1.93Z"/>
        <path class="cls-61" d="M47.27,10.67c.11.19-.07.41-.26.52s-.42.2-.48.41c-.04.11-.01.24-.04.35-.03.13-.13.23-.22.32-.83.77-2.08,1.07-3.17.77-.06-.02-.12-.03-.16-.07-.19-.14-.12-.43-.03-.65.28-.73.48-1.5.6-2.27.05-.32.08-.64.16-.95.17-.66.58-1.26,1.18-1.59s1.38-.32,1.92.08c.63.47.82,1.31.97,2.08.03.16-.01.39-.17.37l-.29.64Z"/>
        <path class="cls-7" d="M59.6,4.82c2.25-9.24,13.36,6.88,5.16,3.81-.79-2.45-4.44-1.92-5.16-3.81Z"/>
      </g>
      <g id="Eye">
        <path class="cls-56" d="M63.42,13.55c1.14-.19,3.8.23,3.31,1.86-.57-.45-.94-.7-1.49-1.12-.54-.31-1.17-.53-1.83-.66-.04,0-.04-.07,0-.08h0Z"/>
        <g>
          <g id="eye">
            <path class="cls-26" d="M64.4,14.63c-.23-.06-.5-.12-.73-.05-.1.03-.18.09-.24.15-.28.3-.04.7.39.92s1,.28,1.55.32c.2.01.42.02.58-.05.22-.1.23-.31.09-.46s-.37-.24-.6-.33c0,0-.55-.36-1.05-.49Z"/>
            <path d="M64.4,14.65c-1.42-.31-1.19.9.03,1.1.33.05,1.91.45,1.58-.23-.37-.3-1.13-.7-1.61-.86h0ZM64.41,14.62c.37.09.75.3,1.06.47.29.1.89.3.69.74-.08.13-.22.18-.34.21-.73.04-1.46,0-2.12-.33-1.01-.63-.25-1.51.71-1.08h0Z"/>
          </g>
          <g>
            <ellipse class="cls-112" cx="65.2" cy="15.48" rx=".33" ry=".61" transform="translate(45.47 79.52) rotate(-86.22)"/>
            <g>
              <ellipse class="cls-56" cx="65.41" cy="15.57" rx=".26" ry=".39" transform="translate(48.16 80.56) rotate(-88.53)"/>
              <path class="cls-26" d="M65.59,15.47c.08,0,.09.14.06.22,0,.01-.02.03-.03.03-.02.01-.04.01-.07.02-.08,0-.16,0-.21-.04s-.09-.1-.05-.14c0,0,.19.09.3-.09Z"/>
            </g>
          </g>
        </g>
      </g>
      <g id="mouth">
        <path id="open" d="M65.71,21.62s.29-.98.29-1-.7-.14-.78-.16-.73-.11-.82-.13-.31-.03-.37,0-.26.09-.28.11-.11.16-.1.21.02.24.06.27.24.26.32.29.62.31.72.32.6.19.68.2.19.07.22.07.07-.17.07-.17Z"/>
        <g id="teeth">
          <path class="cls-26" d="M66.2,20.7c-.03.11-.07.23-.11.28s-.03.05-.06.06-.68-.15-.92-.24-.93-.42-.96-.43,0-.05.02-.06.16,0,.24.02.54.12.62.13.51.12.61.13.56.11.56.11Z"/>
          <path class="cls-26" d="M65.91,21.65c.1.04.08-.27.08-.29s-.48.02-.63,0-1.13-.41-1.24-.43-.23.02-.23.02c0,0,.08.07.11.1s.45.29.53.32.57.17.65.18.7.11.72.11Z"/>
        </g>
        <path id="lips" class="cls-65" d="M66.35,20.48c.02-.14-.12-.15-.27-.14s-.64.06-.87.05-.95-.2-1.11-.15-.52.19-.54.34.03.44.17.57.65.34,1.03.52.98.4,1.1.36.61-.25.45-.44-.45-.17-.53-.16-.88-.07-1.07-.14-.85-.44-.88-.52-.16-.21.1-.31.34-.09.5-.06.87.19,1.09.23.59.17.67.14.14-.12.17-.29Z"/>
      </g>
    </g>
    <g id="front-arm-assembly">
      <g id="front-arm">
        <path class="cls-12" d="M50.05,40.17c-.77,1.6-3.19,6.96-4.85,9.51-1.66,2.55-4.15,6.38-5.04,6.96-.89.57-1.89,1.2-3.56.92-1.67-.28-6.88-.38-7.95-1.54s-2.73-3.27-3.3-3.78-1.85-1.09-2.62-1.91-1.72-2.49-1.72-3.64.64-1.97.1-3-1.44-1.6-1.69-2.3-.13-1.98.51-2.87,2.36-2.43,3.77-3.06,6.13-2.3,7.66-2.23,5.55,1.09,6.32,1.6.45,2.87.45,3.38-.06,1.72.45,1.53,2.3-1.4,3.06-1.85,2.49-.7,3.06-.57,5.36,2.87,5.36,2.87Z"/>
        <path class="cls-4" d="M25.71,44.23c2.42-1.86,3.41-.6,1.95,2.15,3.63-1.55,6.85-.18,7.3,3.93,3.29-2.12,6.47-4.66,9.53-7.63l2.9,2.53c3.5,2.6,2.32,4.84-3.52,6.71.83,3.96-5.31,5.53-5.31,5.53l-1.97.09s-7.24-3.09-10.83-4.73c-1.86-2.95-4.55-5.49-4.66-9.15.93-1.54,2.46-1.36,4.61.55Z"/>
        <path class="cls-40" d="M25.71,44.23c-1.52.84-3.21.35-4.61-.55-.49-.51-.91-1.12-1.47-1.55-1.36-2.45.84-5.47,3.08-3.08,4.25.21,4.93,1.4,3,5.18Z"/>
        <path class="cls-13" d="M29.38,37.59c4.61,3.79,5.19,9.92-1.72,8.78-.5-.75-1.9-.99-1.95-2.15-1.33-1.52-2.18-3.34-3-5.18-.19-.44.12-1.09,0-1.57,1.72.34,3.38-.33,4.63-1.52h1.54c1.42.16,1.59.71.49,1.63Z"/>
        <path class="cls-34" d="M45.73,39.14c2.19-.12,3.96.83,3.21,2.99v1.69c1.55,2.1.64,2.83-1.54,1.39-4.94.09-6.73,6.38-12.43,5.09-2.49-1.08-2.76-1.74.04-2.33,2.57-1.4,3.39-3.3,2.47-5.69-1.38-.08-1.54-.71-.6-1.83-2.73-2.23-1.87-3.23,1.26-1.42,1.61-.16,3.14-.78,4.63-1.36.93.58,1.93,1.05,2.95,1.45Z"/>
        <path class="cls-19" d="M36.88,40.47c.31.56.45,1.21.6,1.83,1.53,2.41-.17,4.64-2.47,5.69l-.04,2.33c-2.78-.63-5.69-1.52-7.3-3.93,2.3-2.29,3.37-5.86,1.72-8.78,2.64-1.66,5.64.71,7.5,2.88Z"/>
        <path class="cls-37" d="M38.14,37.51v1.54c-.86.09-1.87.3-1.26,1.42-.88.47-1.7,1.28-3.11,1.52-1.28-2.29-2.28-4.28-4.38-4.4-.27-.48-.26-1.12-.49-1.63,3.14,0,6.52-.23,9.25,1.54Z"/>
        <path class="cls-99" d="M35,47.98c.97-1.83,1.82-3.72,2.47-5.69,1.75.37,2.13,2.27,1.6,3.62-.68,1.72-2.67,1.76-4.07,2.07Z"/>
      </g>
      <g id="front-glove">
        <path class="cls-83" d="M48.93,31.5c1.76-3.2,7.11-1.19,6.3,2.61.6,1.18.48,2.39-.36,3.62-.91.54-1.74,1.07-2.72,1.49-2.28,1.36-4.13,1.05-6.43-.09-2.85,3.13-3.69,2.72-2.95-1.45-2.49-1.09-2.39-2.18.3-3.27.64-1.64,1.5-3.18,2.63-4.53.39-1.27,1.24-1.03,2,.12l1.22,1.49Z"/>
        <path class="cls-89" d="M47.71,30.02l-2-.12c-.08-.51.29-1.15.14-1.64l2.08.34c1.3.52,1.19,1-.22,1.43Z"/>
        <path class="cls-89" d="M42.84,38.57c.81.62,3.73,2.44,4.21,2.92s.62.91,1.24.57,2.78-1.39,3.21-1.96,5.17-1.72,6.03-3.02,2.54-4.12,2.11-5.65-1.96-3.06-3.49-3.49-4.6-2.2-6.18-1.87-3.73-.24-3.73.53-.67,2.3-1.05,3.02-1.05,4.16-1.77,4.93-.81,1.63-.81,2.39.24,1.63.24,1.63Z"/>
        <path class="cls-24" d="M60.03,32.57c-.94,2.41-3.02,3.89-5.16,5.17-1.59.39-1.07-1.39-.72-1.91.41-.6.73-1.32,1.07-1.71-.97-3.46,2.2-2.68,4.8-1.55Z"/>
        <path class="cls-69" d="M52.16,39.24c-1.31.56-2.19,1.98-3.22,2.9-1.39-.6-2.52-1.64-3.21-2.99,1.12-2.56,4.3.42,6.43.09Z"/>
        <path class="cls-49" d="M53.43,28.19c2.02-.19,4.23.8,6.6,2.98.13.46.18.96,0,1.41l-4.8,1.55c-1.68-1.71-3.94-2.52-6.3-2.61l-1.22-1.49c.26-.37.04-1.01.22-1.43.38.06.79-.08,1.18-.11l4.31-.3Z"/>
        <path class="cls-15" d="M48.93,31.5c-.72-.03-1.78-.71-1.22-1.49.76.05,1.21.76,1.22,1.49Z"/>
        <path class="cls-10" d="M56.64,26.71c.93,1.62,2.13,3.07,3.38,4.45-2.57.13-4.62-1.5-6.6-2.98-.47-.97,1-1.24,1.68-1.47.47-.16,1.05.09,1.54,0Z"/>
      </g>
    </g>
  </g>
</svg>