<?xml version="1.0" encoding="UTF-8"?>
<svg id="Player_Attack" xmlns="http://www.w3.org/2000/svg" viewBox="0 0 142.75 151.71">
  <defs>
    <style>
      .cls-1 {
        fill: #081425;
      }

      .cls-2 {
        fill: #323b40;
      }

      .cls-3 {
        fill: #885e42;
      }

      .cls-4 {
        fill: #272a33;
      }

      .cls-5 {
        fill: #e49569;
      }

      .cls-6 {
        fill: #33343a;
      }

      .cls-7 {
        fill: #3a3e41;
      }

      .cls-8 {
        fill: #141627;
      }

      .cls-9 {
        fill: #030b11;
      }

      .cls-10 {
        fill: #93594a;
      }

      .cls-11 {
        fill: #061018;
      }

      .cls-12 {
        fill: #433c3f;
      }

      .cls-13 {
        fill: #172646;
      }

      .cls-14 {
        fill: #222127;
      }

      .cls-15 {
        fill: #07111d;
      }

      .cls-16 {
        fill: #8e9166;
      }

      .cls-17 {
        fill: #3c454f;
      }

      .cls-18 {
        fill: #3b4661;
      }

      .cls-19 {
        fill: #161d26;
      }

      .cls-20 {
        fill: #e6e7de;
      }

      .cls-21 {
        fill: #0d1d31;
      }

      .cls-22 {
        fill: #3d4662;
      }

      .cls-23 {
        fill: #fff;
      }

      .cls-24 {
        fill: #0b1827;
      }

      .cls-25 {
        fill: #d0d1c4;
      }

      .cls-26 {
        fill: #fcd9a5;
      }

      .cls-27 {
        fill: #423544;
      }

      .cls-28 {
        fill: #231008;
      }

      .cls-29 {
        fill: #1a2228;
      }

      .cls-30 {
        fill: #181c25;
      }

      .cls-31 {
        fill: #11213f;
      }

      .cls-32 {
        fill: #020808;
      }

      .cls-33 {
        fill: #07101a;
      }

      .cls-34 {
        fill: #181f26;
      }

      .cls-35 {
        fill: #1a294e;
      }

      .cls-36 {
        fill: #903e0b;
      }

      .cls-37 {
        fill: #363f48;
      }

      .cls-38 {
        fill: #0b1a2c;
      }

      .cls-39 {
        fill: #728286;
      }

      .cls-40 {
        fill: #d7d2c2;
      }

      .cls-41 {
        fill: #141c30;
      }

      .cls-42 {
        fill: #acc1c8;
      }

      .cls-43 {
        fill: #212425;
      }

      .cls-44 {
        fill: #b8602c;
      }

      .cls-45 {
        fill: #091b2d;
      }

      .cls-46 {
        fill: #1c274e;
      }

      .cls-47 {
        fill: #43575e;
      }

      .cls-48 {
        fill: #7e4211;
      }

      .cls-49 {
        fill: #e6e8e0;
      }

      .cls-50 {
        fill: #07121d;
      }

      .cls-51 {
        fill: #090d1a;
      }

      .cls-52 {
        fill: #102131;
      }

      .cls-53 {
        fill: #816972;
      }

      .cls-54 {
        fill: #1c2d32;
      }

      .cls-55 {
        fill: #141920;
      }

      .cls-56 {
        fill: #020710;
      }

      .cls-57 {
        fill: #c4c6b9;
      }

      .cls-58 {
        fill: #333f5f;
      }

      .cls-59 {
        fill: #252f36;
      }

      .cls-60 {
        fill: #de855b;
      }

      .cls-61 {
        fill: #15273f;
      }

      .cls-62 {
        fill: #dbdcd3;
      }

      .cls-63 {
        fill: #d38269;
      }

      .cls-64 {
        fill: #0e1b1c;
      }

      .cls-65 {
        fill: #040910;
      }

      .cls-66 {
        fill: #3c4867;
      }

      .cls-67 {
        fill: #b75e32;
      }

      .cls-68 {
        fill: #efad81;
      }

      .cls-69 {
        fill: #03060c;
      }

      .cls-70 {
        fill: #9e6340;
      }

      .cls-71 {
        fill: #eedca7;
      }

      .cls-72 {
        fill: #121215;
      }

      .cls-73 {
        fill: #f0b287;
      }

      .cls-74 {
        fill: #eaeae2;
      }

      .cls-75 {
        fill: #182747;
      }

      .cls-76 {
        fill: #010a13;
      }

      .cls-77 {
        fill: #e7e7e1;
      }

      .cls-78 {
        fill: #d58158;
      }

      .cls-79 {
        fill: #091223;
      }

      .cls-80 {
        fill: #536069;
      }

      .cls-81 {
        fill: #334160;
      }

      .cls-82 {
        fill: #2c343a;
      }

      .cls-83 {
        fill: #08101d;
      }

      .cls-84 {
        fill: #d19f7a;
      }

      .cls-85 {
        fill: #080f11;
      }

      .cls-86 {
        fill: #3e4965;
      }

      .cls-87 {
        fill: #c8ccb6;
      }

      .cls-88 {
        fill: #333539;
      }

      .cls-89 {
        fill: #0d100f;
      }

      .cls-90 {
        fill: #554a53;
      }

      .cls-91 {
        fill: #f3d8a8;
      }

      .cls-92 {
        fill: #111f35;
      }

      .cls-93 {
        fill: #091422;
      }

      .cls-94 {
        fill: #100e0b;
      }

      .cls-95 {
        fill: #b88261;
      }

      .cls-96 {
        fill: #a66c63;
      }

      .cls-97 {
        fill: #0d1b2b;
      }

      .cls-98 {
        fill: #cea06a;
      }

      .cls-99 {
        fill: #d7805e;
      }

      .cls-100 {
        fill: #090c15;
      }

      .cls-101 {
        fill: #304566;
      }

      .cls-102 {
        fill: #b9582e;
      }

      .cls-103 {
        fill: #19294f;
      }

      .cls-104 {
        fill: #d3cdc0;
      }

      .cls-105 {
        fill: #171c37;
      }

      .cls-106 {
        fill: #afb199;
      }

      .cls-107 {
        fill: #e9af80;
      }

      .cls-108 {
        fill: #ca8a60;
      }

      .cls-109 {
        fill: #754c24;
      }

      .cls-110 {
        fill: #091b30;
      }
    </style>
  </defs>
  <g id="Player_Kick_1">
    <g id="back-leg-assembly">
      <g id="back-shoe">
        <path class="cls-64" d="M138.73,9.69c.67.05,1.82-.14,2.15.29s1.34,2.25,1.39,4.98.67,9,.43,10.72-1.29,5.03-1.29,5.94-.34,3.26.05,5.74.62,5.84.53,6.61.1,2.06-.43,2.35-.67.96-1.53.77-1.34-.19-2.06-.62-.86-1.48-2.25-1.82c-1.39-.34-7.47-.67-8.62-.57s-2.25-2.06-2.3-3.02-.57-6.13-.81-7.13-1.1-4.74-.96-5.46,1.44-1.05,2.97-1.05,4.5-.05,5.17-.53,1.2-2.63,1.2-3.4-.34-4.4-.43-5.84-.24-4.07-.19-5.27.72-1.72,1.44-1.96,5.55-.72,5.55-.72Z"/>
        <path class="cls-54" d="M141.75,23.36c.12,3.59-1.37,4.5-3.85,1.77-4.08.61-4.43.01-1.89-3.23-3-1.72-2.14-7.54-1.41-10.96,1.19-.93,2.58-1.6,3.75-1.43,4.36.61,2.44,10.67,3.4,13.86Z"/>
        <path class="cls-64" d="M140.72,32.39c-2.64-1.24-3.93,2.67-5.45,2.68-2.26-.62-2.83-4.28-2.08-5.71-.39-3.59,1.19-5.1,4.72-4.23,1.4-.3,2.73-.87,3.85-1.77.93,3.08.74,6.26-1.03,9.03Z"/>
        <path class="cls-42" d="M136.01,21.89c.4,3.91-1.61,4.57-3.78,1.18.85-4.04-1.21-9.34,2.36-12.14,1.17,3.53,1.46,7.25,1.41,10.96Z"/>
        <path class="cls-34" d="M140.83,34.15c.24,3.77.93,8.39-1.91,12.03-.86,1.1-2.95-.77-3.02-1.3l.05-1.58c1.97-2.23,2.97-4.68,1.75-7.62.3-1.33,1.78-1.69,3.14-1.54Z"/>
        <path class="cls-80" d="M137.9,25.13c-.81,2.11-2.57,3.58-4.72,4.23-.44-.88-.95-2.3-1.66-2.91l.71-3.37,3.78-1.18c.73,1.02,1.34,2.11,1.89,3.23Z"/>
        <path class="cls-37" d="M135.95,43.31l1.75-7.62c2.11.42,1.86,3.19,1.37,5.13-.3,1.18-1.69,2.09-3.11,2.49Z"/>
      </g>
      <g id="back-leg">
        <path class="cls-103" d="M73.57,37.17c-1.72.29-5.55.48-8.52,1.53s-7.18,1.63-8.14,4.6-.57,5.74-2.87,7.85-12.83,11.87-13.31,14.65-.29,5.07.86,8.14,1.72,5.27,3.26,5.74c1.53.48,5.74,1.05,10.24-.19s8.04-1.24,9.86-3.83,4.5-5.27,5.65-7.95,1.05-5.94,3.16-7.56c2.11-1.63,10.72-4.21,12.64-5.36s11.2-5.36,12.73-5.55c1.53-.19,6.61-2.01,8.52-1.91,1.91.1,6.22-.38,9.19-.19s9.48-.86,11.97-1.15,5.07-1.05,6.51-1.34c1.44-.29,3.16-.57,3.06-2.49s-1.2-4.09-.7-6.45.7-3.22-1.22-5.52c-1.91-2.3-5.11-2.4-4.95-3.74s.45-2.58-1.66-2.97-4.5,1.34-5.46,2.39-3.83,2.68-5.07,2.87-5.27.29-7.66.48c-2.39.19-8.23.67-9.86,1.53s-5.36,2.11-6.32,2.49c-.96.38-2.55-.57-3.38-.8s-3.73-.41-4.6-.13-8.81,2.39-9.61,3.19-4.34,1.66-4.34,1.66Z"/>
        <path class="cls-45" d="M115.02,34.72c3.55,2.25,4.86,4.54,3.94,6.87,1.8,1.86-3.95,5.35-5.5,5.66-1.74.35-15.61.61-17.44.42-.41-.04-.76-.67-1.1-1.47-1.37.07-1.39-.32-.18-1.14-1.36-.41-1.35-.94-.04-1.59.39-1.1.12-2.69-.8-4.78l3.3-1.35c.13-1.11.44-2.21.36-3.35,2.11-.94,7.02-2.18,9.45-1.39,3.45-3.19,11.04-4.16,8.02,2.1Z"/>
        <path class="cls-50" d="M118.95,41.59c-.84-3.41.62-3.58,3.1-1.28.13-2.64,2.01-2.43,5.63.62,3.86-1.36,5.6-.62,5.21,2.21,2.28-.47,2.27.6.17,1.81-16.48.33-21.47,5.61-29.3,4.68-2.53-1.55-6.15-1.13-7.71,1.61-5.58,1.98-11.65,3.21-16.96,5.97-.9.39-1.53-.01-1.98-1-2.17.04-2.01-.65.49-2.06-.16-4.94,3.1-5.61,7.39-4.76-.93-.79-.65-1.2.67-1.29,2.99-.58,6.07-1.22,9.26-1.9l9.12-.87c1.31-2.41.7-4.81,2.04-6.56,1.32,3.04.79,5.56,2.83,6.12,1.3.35,4.22,2.4,4.73.96,1.07-3.02,3.23-3.41,5.31-4.27Z"/>
        <path class="cls-21" d="M81.11,47.7c1.36-4.85,5.67-3.11,3.88,1.7-2.01,2.17-4.85,3.32-7.39,4.76-3.1,2.06-6.62,3.09-10.57,3.08-.17,1.35-.64,1.33-1.38.08-2.78.44-3.18-2.25-.44-3.12,2.82-4.55,8.25-7.59,12.8-10.42,1.2,0,2.24,1.3,3.1,3.92Z"/>
        <path class="cls-33" d="M131.53,26.44l1.66,2.91s7.06,8.21,4.51,6.34c1.38,2.31.31,5.86-1.75,7.62,1.33.49,1.3,1.02-.05,1.58l-2.83.06-.17-1.81c-2.69-1.55-2.27-3.8-.21-5.8-2.32,1.54-4.27.17-5.85-4.12-3.31-.24-9.13-1.73-7.64-5.29,5.83.26,7.16-9.47,10.26-2.32.29.66,2.08.85,2.08.85Z"/>
        <path class="cls-38" d="M117.31,28.37c4.81,3.73,9.93,6.72,15.36,8.96,1.18,2.1,1.22,3.01.21,5.8l-10.84-2.83c-2.37-.69-4.71-2.56-7.04-5.59-.62-1.51-2-3.95-3.8-3.81-1.33.11-3.04,1.87-4.22,1.71-1.38-.31-1.41-.83-.15-1.55,3.55-.6,6.79-2.01,10.46-2.7Z"/>
        <path class="cls-83" d="M77.12,56.21c.63.38,1.3.71,1.98,1-3.68,1.91-8.16,3.93-11.45,7.11-2.17,2.23.2,6.4-2.24,8.03l-1.15-.18c.17-1.43-.28-2.86-.22-4.27-3.1-3.08-4.29-5.54-3.56-7.38-1.31-.57-1.26-1.14.11-1.69.44-1.35.95-1.33,1.54,0l3.52-1.51c.46-.06.92-.09,1.38-.08,3.23-1.01,6.59-1.35,10.09-1.02Z"/>
        <path class="cls-13" d="M132.68,37.33c-1.39.66-2.49,1.91-4.43,3.2-3.35-3.76-6.24-7.37-11.42-8.51-.11-1.51.37-2.54.49-3.65.62-.12,1.25-.48,1.87-.45,2.36,2.18,5.96,3.39,8.54.6l4.96,8.81Z"/>
        <path class="cls-14" d="M91.4,35.15c2.28,1.96,1.59,2.96-1.24,1.86-1.96,2.37-7.16,2.49-9.72,1.64-2.29,1.67-2.86.75-1.25-1.67,3.26-1.98,10.22-5.33,12.21-1.83Z"/>
        <path class="cls-27" d="M97.19,37.36c-.27,2.25-.55,4.69-2.49,6.12-6.59.46-8.09-1.07-4.49-4.59-2.22-.33-2.17-1.39-.04-1.88l1.24-1.86c1.26.98,4.61.55,5.79,2.2Z"/>
        <path class="cls-69" d="M106.85,31.07l.15,1.55c-3.22-.43-3.97,2.12-5.99,5.1-1.9-.12-1.5-2.05-1.3-2.96.2-.96-1.5-1.3-2.16-.75-1.16.97-2.91,1-3.18-.82l12.48-2.12Z"/>
        <path class="cls-10" d="M80.44,38.65c4.12-.03,4.12,1.37.37,3,3.88,2.09,3.95,3.59.3,6.05-1.82.05-2.65-2.56-3.1-3.92l-1.39-4.21c-.43-1.3,1.42-1.89,2.57-2.59l1.25,1.67Z"/>
        <path class="cls-1" d="M65.21,54.2l.44,3.12c0,1.01-.3,1.72-.22,2.48.11.97-.47,2.8-1.75,1.44-.65-.69-1.15-1.64-1.56-2.4-1.6-.73-2.92-3.49-1.64-4.85-2.12-2-1.32-2.78,1.41-1.55l3.32,1.77Z"/>
        <path class="cls-89" d="M61.89,52.43l-1.41,1.55c-1.55,1.77-3.66-.77-2.98-2.86.63-.53,1.35-.97,1.95-1.54,1.09.68,1.92,1.68,2.44,2.85Z"/>
        <path class="cls-56" d="M103.77,49.63c-3.12-.37-4.98.65-7.71,1.61-.51-1.95.65-3.33,2.3-3.31,2.1.02,4.98-.58,5.41,1.7Z"/>
        <path class="cls-103" d="M94.7,43.48l.04,1.59c-1.53,2.34-6.35,3.51-9.08,3.04-.22.4-.36.95-.67,1.29-1.08-1.48-2.28-1.75-3.88-1.7-.23-2.01-.31-4.03-.3-6.05.75-3.5,6.35-3.42,9.39-2.76,1.6.74,1.04,2.86,1.34,4.4,2.07-3.8,3.64-3.13,3.15.19Z"/>
        <path class="cls-110" d="M94.74,45.07l.18,1.14c-.8,1.97-2.28,3.01-4.13,3.66-2.24.78-3.81.12-5.13-1.76,1.8-3.22,5.69-3.6,9.08-3.04Z"/>
        <path class="cls-61" d="M122.05,40.31l-3.1,1.28-3.94-6.87c3,.72,5.29,3,7.04,5.59Z"/>
        <path class="cls-76" d="M77.6,54.15l-.49,2.06c-3.71.21-7.41,4.5-10.09,1.02.91-4.53,5.94-.47,10.57-3.08Z"/>
        <path class="cls-9" d="M60.59,58.83l-.11,1.69c-1.94-.43-3.3-1.77-4.52-3.23-3.67,3.36-5.29.59-1.92-2.56-2.64-2.44-1.26-3.77,1.92-2.06,2.22-.24,5.34,3.67,4.63,6.17Z"/>
        <path class="cls-46" d="M60.49,53.98c1.37.78,1.11,3.63,1.64,4.85h-1.54l-4.63-6.17c-.46-1.49.05-2,1.54-1.54.96,1.3,1.54,2.04,2.98,2.86Z"/>
        <path class="cls-86" d="M90.16,37.01c.99.56.8,1.2.04,1.88-2.46,2.42-6.23,1.92-9.39,2.76l-.37-3c2.21-3.01,6.37-1.54,9.72-1.64Z"/>
      </g>
    </g>
    <g id="front-leg-assembly">
      <g id="front-leg">
        <path class="cls-35" d="M71.56,76.71c.38-2.59.67-6.32,1.15-8.71s-1.91-7.18-3.73-9.19-4.5-5.17-5.94-6.41-3.45-2.49-5.07-1.44-4.69,3.26-6.7,5.17-6.8,6.13-8.43,7.47c-1.63,1.34-2.59,1.24-2.68,3.73s-1.24,5.55-.38,6.89,2.97,3.54,4.12,5.94,1.63,4.88,2.01,6.32,2.69,4.44,2.59,5.81-.68,5.78-1.06,6.45-3.06,5.94-4.21,7.56-4.6,9.67-5.07,11.87-2.68,4.88-3.16,6.13-.4,5.32-.3,6.87.77,5.38,2.88,6.15,4.13,3.71,5.8,3.24c1.67-.47,4.83-.47,5.59-.85s2.49-.38,2.49-1.24,1.34-5.74,2.3-7.76,3.83-8.33,4.79-10.34c.96-2.01,3.35-10.24,4.02-11.3s3.83-5.36,4.79-6.41,3.06-5.36,2.97-7.56-1.15-4.98-.86-6.13,2.11-12.26,2.11-12.26Z"/>
        <path class="cls-35" d="M49.48,72.83c1.02-.08,1.67.48,1.96,1.7,3.99-1.51,4.57.08,1.44,3-1.64,1.82-1.5,5.81.43,11.97-.52,4.98-.18,8.19,1.01,9.65,4.09-1.02,7.65,1.59,7.35,5.89-.41,3.06-7.75,19.33-9.52,20.02-.64.25-1.48,0-2.37-.39-1.28,1.85-.36,2.84,1.28,3.99-1.09,4.33-2.64,7.73-4.65,10.2,1.78,1.1,1.36,1.67-1.25,1.7h-1.79c-1.19-.72-1.11-1.24.25-1.54-2.99.19-2.96-1.01.05-1.8l-3.48-3.49c-3.94-1.26-4.91-5.09-2.91-11.48l-.06-1.74c1.59-5.8,4.24-10.94,7.94-15.42.41-.79.93-.75,1.54,0,1.89,2.9,2.92,3.42,3.08,1.54-2.44-1.67-2.44-4.24,0-7.71-.83-1.78-1.26-3.99-1.3-6.64-.7-.96-1.4-3.01-1.78-4.16-.39-5.57-.5-11.12-.31-16.65l1.96.21c.8-.08,1.16.32,1.13,1.15Z"/>
        <path class="cls-18" d="M64.04,67.9c1.97.86,1.87,2.99.22,4.27-2.59,1.54-2.78,2.32-.57,2.34.12,1.97.09,3.94-.02,5.91-2.36.19-4.42.4-6.17.61-.33,2.84-3.59,2.45-4.14-.09-2.39-.25-2.3-1.78-.48-3.41-.23-1.02-.89-2.14-1.44-3-1.48-1.09-1.37-4.18.4-5.23,3.66-6.92,8.17-10.51,12.19-1.4Z"/>
        <path class="cls-66" d="M65.17,94.34l.28,3.04c1.03,2.19-.12,4.81-1.99,6.05.07,1.27-.53,1.81-1.79,1.6-2.68-1.15-5.84-3.29-7.35-5.89-2.32-.89-1-7.53.1-9.48,3.46-2.02,10.09.45,10.75,4.67Z"/>
        <path class="cls-24" d="M63.76,105.22l-5.65,12.94c-2,4.57-2.7,7.14-5.32,9.92-2.15,2.52-4.79-1.34-3-3.41,5.1-5.72,7.07-13.6,11.89-19.63.5-.63,1.11-1.17,1.79-1.6.93-.59,1.03,0,.29,1.78Z"/>
        <path class="cls-97" d="M49.79,124.67c.42,1.56,1.48,2.84,3,3.41-1.86,2.3-2.23,7.78-1.9,10.37-.84,1.65-3.15,1.7-4.47.41-.34-1.68.45-3.99-.77-5.84-.86-1.32-4.16-.08-5.14-2.88,3.91-1.39,6.16,2.55,9.21-.11-.6-1.96-2.24-2.68-3-3.76-.38-.54-.65-1.5.8-1.54l2.27-.06Z"/>
        <path class="cls-90" d="M62.2,86.71c1.51-2.48,2.28-1.69,1.53,1.2,1.82,1.43,3.23,4.29,1.45,6.43-3.93-.63-7.6-2.25-10.75-4.67-1.93-.62-1.74-1.94,0-3.08,1.03-1.97,5.47-.71,7.78.12Z"/>
        <path class="cls-41" d="M48.36,71.68c-4.32,1.45,3.49,14.13-1.65,16.45-1.75-5.2-3.3-11.75-1.54-16.96-1.91-1.81-1.91-2.84,0-3.08.61.26,1.55.06,2.04.47.99.82,1.13,2.06,1.15,3.13Z"/>
        <path class="cls-22" d="M57.5,81.03c2.11-1.06,5.25-.05,7.44,1.2.11,1.83.86,4.97-1.21,5.69l-1.53-1.2c-4.04-.34-7.15-1.4-9.32-3.21-1.64-1.27-1.54-2.32.49-2.57,1.37.21,2.76.24,4.14.09Z"/>
        <path class="cls-93" d="M40.2,133.73c-.12,2.35-.93,1.72-2.61.24-2.68-.24-3.65-1.17-2.9-2.79.12-3.15.92-6.24,2.59-8.92,2.73,4.52-2.53,7.35,2.91,11.48Z"/>
        <path class="cls-79" d="M37.23,120.51c-.19-5.94,2.58-12.48,7.94-15.42-2.72,5.05-4.03,11.25-7.94,15.42Z"/>
        <path class="cls-92" d="M49.79,106.63c-1.37,1.73-2.19.45-3.08-1.54-.44-.18-1.07.11-1.54,0,.89-1.66,1.41-3.52,3.08-4.63.02-1.01.53-1.53,1.54-1.54.68,2.48-.57,4.86,0,7.71Z"/>
        <path class="cls-53" d="M63.67,80.42c.2.63,1.23,1.14,1.27,1.81-2.53,0-5.18.09-7.44-1.2-.45-2.47,1.58-2.3,3.11-1.51.93.48,2.04.57,3.06.9Z"/>
        <path class="cls-15" d="M63.76,105.22l-.29-1.78c.47-2.08,1.25-4.06,1.99-6.05,3.84,2.69-.74,5.64-1.7,7.84Z"/>
        <path class="cls-17" d="M68.92,95.8c-1.03-2.79-1.1-5.65,0-9.35,1.58,2.23,1.44,4.8,0,9.35Z"/>
        <path class="cls-11" d="M49.79,98.92c-.55.46-.94,1.14-1.54,1.54-.07-2.73.03-5.46.24-8.18,1.59,2.18.67,4.32,1.3,6.64Z"/>
        <path class="cls-96" d="M64.26,72.17c.34-.11.78.2,1.15.18-.75.5-1,1.6-1.72,2.16-1.75-.39-3.77.51-6.29-1,2.11-1.56,4.64-.66,6.86-1.34Z"/>
        <path class="cls-31" d="M52.88,77.53c.25,1.1.31,2.29.48,3.41.12.83-.56,1.73-.49,2.57,1.74,1.23,2.26,2.26,1.54,3.08.11,1.02.01,2.08,0,3.08l-.1,9.48c-1-.04-2.69.03-2.89-1.07-.23-1.33,1.27-2.69,1.21-4.04-.42-9.86-5.51-19.31.24-16.51Z"/>
        <path class="cls-81" d="M49.79,106.63c.16.8,1.54,1.8,1.3,2.9-2.9.89-4.69-2.12-4.39-4.44,1.06.43,2.05,1.04,3.08,1.54Z"/>
        <path class="cls-75" d="M60.48,60.52c1.87,2.15,3.69,4.44,3.56,7.38-1.36-1.42-3.29-3.73-6-2.76-2.7.96-4.27,3.06-6.19,4.16-1.15-.14-1.32-1.06-.51-2.76,1.56-2.61,2.56-5.22,2.99-7.85-1.41-2.16-.54-2.83,1.64-1.4,1.62-.56,3.13.52,4.52,3.23Z"/>
        <path class="cls-31" d="M51.85,69.3l-.4,5.23c-.58.24-1.36.56-1.55.05-.28-.73-.17-1.51-.41-1.75.01-2.24.25-4.6,1.85-6.29.07.91.58,1.84.51,2.76Z"/>
        <path class="cls-101" d="M62.2,86.71l-7.78-.12c-.8-.83-1.44-1.91-1.54-3.08,2.75,2.23,7.07.17,9.32,3.21Z"/>
        <path class="cls-58" d="M43.68,137.22l-3.14.26c-3.92-.49-4.91-1.66-2.95-3.51.81-.15,1.84.05,2.61-.24,1.24-.46,2.23-1.19,3.45-.22,1.44,1.14,1.58,2.45.02,3.71Z"/>
      </g>
      <g id="front-shoe">
        <path class="cls-32" d="M59.4,147.37c.1-1.24.1-2.3-1.53-3.06s-4.98-2.2-6.13-2.68c-1.15-.48-2.39-2.01-2.39-2.78s.38-2.3.48-3.73.86-2.2-.19-2.49-4.69-2.78-6.13-3.06c-1.44-.29-6.03-1.91-7.09-1.63s-1.44,3.45-2.39,4.5-4.12,6.13-4.21,7.28-.23,2.97,1.66,3.64,2.84,2.2,3.9,3.07,7.47,3.45,9.1,3.93c1.63.48,12.64,1.15,13.31,1.05s1.53-2.78,1.63-4.02Z"/>
        <path class="cls-59" d="M59.05,148.27c-8.64.49-8.64,1.01,0,1.54-5.93,3.17-15.59,2.52-19.7-3.19-.88-2.13.55-3.27,2.74-2.97-.7-1.33-.31-1.85,1.16-1.54-.14,9.24,12.16.68,15.8,6.17Z"/>
        <path class="cls-32" d="M40.54,137.48c-.24-2.95,2.45-3.22,3.14-.26l-.05,1.8c-.72,3.05-5.48,2.78-6.17,0-1.92,2.75-5.38,3.69-6.17,0,.35,2.98-.86,3.01-1.83.04.27-1.69,1.03-3.19,1.83-4.67.47-.7.99-.68,1.54,0,1.93.9,4.5,1.93,7.71,3.08Z"/>
        <path class="cls-30" d="M43.62,139.02c-.02.52-.15,1.03-.25,1.54-.09.48.05,1.09-.13,1.54-.23.56-.98.95-1.16,1.54-1.12,1.63-3.61,1.28-4.98.16l-2.63.17c-2.21-2.18-1.22-3.83,2.99-4.96h6.17Z"/>
        <path class="cls-39" d="M51.22,141.02c1.05,1.78,2.72,1.15,4.43,2-2.59,1.67-5.5,2.75-7.19,1.67-1.01-.65-1.39-1.88-.36-3.51.45-2.27,2.3-2.3,3.12-.17Z"/>
        <path class="cls-29" d="M31.29,139.02c2.37-.19,3.43,1.47,3.18,4.96-1.41,1.58-3.96,1.18-5.27-.43-1.04-1.28-1.02-3.35.26-4.48l1.83-.04Z"/>
        <path class="cls-2" d="M59.05,148.27v1.54c-4.64-.61-9.36,1.28-14.01-.98,5.39-1.55,9.74-.01,14.01-.56Z"/>
        <path class="cls-85" d="M37.59,133.96c-.69,2.73-3.35,2.76-4.76.43h-1.54c.77-1.43,1.84-2.61,3.4-3.22,1.35.46,2.26,1.56,2.9,2.79Z"/>
        <path class="cls-100" d="M42.08,143.65c-.43,1.39-1.18,2.78-2.74,2.97-.66-.92-2.31-1.31-2.24-2.81,1.39-1.51,3.52-1.61,4.98-.16Z"/>
        <path class="cls-65" d="M50.89,138.45l.32,2.57c-1.03-.01-2.12.38-3.12.17l-2.93-.62c.34-.57.62-1.39,1.25-1.7,1.41-.7,3.13-1.5,4.47-.41Z"/>
        <path class="cls-82" d="M37.46,139.02c.21,2.15-2.12,3.02-2.99,4.96-.52-.52-2.13-.05-3-.63.37-1.7.83-3.15-.18-4.33h6.17Z"/>
        <path class="cls-105" d="M37.59,133.96c.71,1.37,1.75,2.55,2.95,3.51l-5.33.08c-1.52.02-3.05-.89-2.38-3.17,1.59,0,3.19-.14,4.76-.43Z"/>
      </g>
    </g>
    <g id="back-arm">
      <path class="cls-36" d="M61.32,31.09c-.91-.62-2.87-2.15-3.97-2.73-1.1-.57-2.63-.72-3.3-.72s-3.16-1.01-3.21-1.72-.72-2.44-1.05-2.82-2.15-1.68-2.78-2.01-2.54-1.24-3.26-1.34-2.15-.14-2.63.67-.91,1.53-.48,3.93,1.2,5.51,2.68,7.56c1.48,2.06,14.6,6.46,15.7,5.7s2.59-2.44,2.59-3.3-.29-3.21-.29-3.21Z"/>
      <path class="cls-70" d="M47.34,33.72c.41.41,2.59,1.53,3.19,1.66s2.84.99,3.19,1.02,2.07.03,2.71-.22,1.47-1.28,1.76-1.95.29-.96.29-1.5-.67-1.18-1.72-1.21-1.76-.19-2.81-.57-4.18.22-4.91-.48-1.66-2.2-2.52-2.81-2.01-2.49-3.19-2.39-1.69,1.5-1.6,2.33.7,2.43,1.15,2.9,4.47,3.22,4.47,3.22Z"/>
      <path class="cls-98" d="M62.2,31.54c.52,1.89-.51,3.62-2.11,4.61-1.95-.45-3.86-1.56-4.11-2.98-.36-2.04-.02-4.27,2.3-4,1.73.2,2.82,1.32,3.92,2.36Z"/>
      <path class="cls-73" d="M49.42,29.94c-.14-.57-.62-1.77-.84-2.59s-.74-2.2-1.77-2.61-1.94-.5-1.96-.19.41.93.48,1.41,1.39,1.94,1.17,2.11-.6,0-.89.17-.38.86-.02,1.12.24,1.27,1.1,1.36,2.97.43,3.35.77,1.36.5,1.2.12-1.82-1.68-1.82-1.68Z"/>
      <path class="cls-98" d="M45.57,22.38c1.48.6,2.08.48,2.63.98s1.41,1.65,1.39,2.32-.02,1.96-.12,2.25-.65.53-.77.12-.91-1.6-1.1-2.18-1.39-1.08-2.06-1.2-.72-.36-.89-.81-.53-1.15-.1-1.32,1.01-.17,1.01-.17Z"/>
      <path class="cls-95" d="M44.03,29.56c.53.29,2.7,2.39,3.61,2.82s1.12,1.58,1.87,1.84,1.99.84,1.99,1.08.22.43-.19.31-1.94-.69-2.18-1.01-1.99-1.51-2.47-1.6-2.61-1.7-2.82-1.99.19-1.46.19-1.46Z"/>
      <path class="cls-3" d="M44.82,28.58c.5.39.48.79.98,1.15s1.32.72,1.99.69,1.65.65,1.51.89-.79,1.44-1.48,1.51-1.58-.69-1.94-1.05-1.41-1.44-1.53-2.03-.17-1.65.48-1.15Z"/>
      <path class="cls-108" d="M50.74,28.74c1.24.24,2.35.62,3.3,1.01.96.38,1.53,1.87,1.53,1.87,0,0-1.05.38-1.48.14s-1.2.19-2.25.34c-1.05.14-2.3-2.2-2.35-2.35s.72-.34,1.34.14,1.44.05,1.01-.1-1.1-1.05-1.1-1.05Z"/>
      <path class="cls-107" d="M48.87,33.58c1.63.77,1.87,1.2,3.06,1.24s3.02-.1,3.64-.29,2.11-1.05,1.15-1.24c-.96-.19-.34.38-1.96.38s-3.02.1-3.73-.38-2.11-1.72-2.54-1.44.38,1.72.38,1.72Z"/>
      <path class="cls-3" d="M57.87,29.8c-.86-.38-1.15-1.2-2.11-1.29s-2.25-.43-3.02-.43-.38.86.19,1.1,2.97.29,3.35.67,1.58-.05,1.58-.05Z"/>
    </g>
    <g id="body">
      <path class="cls-16" d="M61,48.75c-.5.4-.98.72-1.43,1.02-.72.46-1.39.86-2.05,1.36-.11.08-.21.17-.32.26-.04.03-.07.06-.1.09-.38.32-.76.71-1.14,1.18-.63.77-1.25,1.65-1.87,2.52-.97,1.35-1.96,2.67-3.05,3.53-.06.04-.12.09-.18.14-1.82,1.47-5,4.62-6.97,5.86-2.04,1.28-3.45,2.55-4.34,1.66s-2.17-4.6-4.08-6.51c-1.92-1.92-4.51-5.86-6.91-7.59-1.11-.79-2.19-2.25-3.32-3.64-1.31-1.63-2.68-3.17-4.2-3.45-1.16-.2-2.75-.35-4.31-.52-2.25-.27-4.41-.59-5.01-1.27-1.02-1.15-4.72-5.49-5.1-6.51-.39-1.02-.26-8.04.89-9.06.04-.04.09-.08.14-.12,1.32-1.19,5.28-4.78,6.75-5.76.58-.38,1.76-.96,3.13-1.57.4-.17.81-.34,1.22-.52.01-.01.03-.01.05-.02.59-.19,1-.34,1-.34v.11c0,.88-.33,1.74,1.05,3.33,1.44,1.66,3.29,3.7,5.55,3.7,1.37,0,2.53.07,3.61-.01.7-.04,1.37-.16,2.04-.4,1.69-.61,2.65-.64,2.94-1.31.07-.17.12-.36.16-.57.11-.63.09-1.4.09-1.95,0-.2-.04-.44-.08-.71-.07-.51-.16-1.1-.04-1.61,1.82.19,3.44.36,3.63.4.46.06,1.68-.59,2.12-.86.44-.28.14-.83-.02-1.27-.05-.15-.17-.38-.32-.62-.05-.1-.12-.2-.19-.3.06.02.11.04.17.06.44.18.84.38,1.21.63,1.53,1.02,2.43,1.28,2.17,3.32-.25,2.05.9,3.32.38,4.47-.35.79-.51,2.64-.17,4.19h0s0,.04.01.06c.11.5.27.97.51,1.35.08.15.18.28.29.4.21.22.44.5.71.81v.02c1.41,1.66,3.52,4.31,4.91,5.17,1.66,1.02,5.87,4.98,7.79,5.36.72.14,1.43.2,2.03.27.08,0,.16.02.24.04.85.12,1.43.32,1.43.97,0,1.15.89,2.68-1.02,4.21Z"/>
      <path class="cls-49" d="M31.38,43.19c.11-.55-.01-.98-.36-1.29h0c-.05-.05-.11-.09-.17-.13-.73-.47-2.15-.58-4.27-.32-1.95-9.24-4.07-11.67-6.34-7.29.31,1.38.05,1.49-.77.34-.41.36-.85.7-1.3,1-2.39,1.6-5.07,2.04-5.52-1.37-1.6,3.13-3.78,2.16-4.52-1.2-1.12-6.49,4.7-10.5,10.83-11.11.04-1.19.39-1.94.85-2.22,0,.88-.33,1.74,1.05,3.33,1.44,1.66,3.29,3.7,5.55,3.7,1.37,0,2.53.07,3.61-.01,1.95.75,4.6.37,6.3-1.19-.48-.38-.87-.75-1.16-1.09.11-.63.09-1.4.09-1.95,0-.2-.04-.44-.08-.71.8-.37,2.16-.36,3.84.14v1.54l4.72,6.08.15.27.14.23c.03.07.07.14.1.21.23.46.4.91.51,1.35,1.75,6.38-6.94,11.21-13.24,11.69Z"/>
      <path class="cls-25" d="M48.43,37.57c-.35,2.5-3.52,5.07-5.89,5.71-2.46,2.93-4.67,6.05-6.63,9.38-.45,1.01-.97.99-1.54,0-2.31.45-4.25.32-5.82-.39-4.6-.75-4.86-4.08-.47-5.54.21-1.14-.32-1.74-1.51-1.85-4,2.85-5.38.33-4.14-7.56l-2.21-3.16c-.24-1.26-.85-1.69-.25-2.17,1.34-1.07,2.5-1.06,3.45-1.02,1.41.06,1.9,2.7,2.06,4.39.39,4.09,3.83,4.48,6.55,4.81,3.11.38,14.09-7.14,11.69-10.73l4.71,8.13Z"/>
      <path class="cls-104" d="M46.97,51.38c1.05,1.21,1.26,3.1.64,5.65,1.32.52,1.26,1.08-.08,1.66-3.07-.18-5.71-1.41-8.19-3.12-1.91-1.99.25-5.8,2.75-4.45,1.29-1.25,2.48-1.76,3.57-1.54,1.75-.87,2.04,0,1.32,1.8Z"/>
      <path class="cls-62" d="M52.39,40.34c.8.13.87.55.31,1.22l-4.37,9.73c-.22,1.37-.68,1.37-1.36.08l-1.32-1.8c-.34-1.77-.68-3.19-1.03-4.25-.35,1.06-.72.95-1.11-.2,1.27-2.69,2.91-4.84,4.93-6.44l3.95,1.66Z"/>
      <path class="cls-77" d="M48.43,37.57c.05.35-.09.77,0,1.11.24.86,1.04,1.59,1.13,2.81-2.79.94-4.9,1.69-6.06,3.63l-.99-.37c-.7-.41-.65-.91.02-1.48,1.66-2.35,2.3-5.97,5.89-5.71Z"/>
      <path class="cls-40" d="M18.95,21.82c.47,3.32-2.77,1.81-5.21,2.47-3.99,1.09-3.95,6.05-5.62,8.64l-1.5-.1c-.49-6.46,5.04-10.42,10.78-12.55.57.46,1.08.98,1.54,1.54Z"/>
      <path class="cls-57" d="M60.59,46.49c-.25,1.07-.63,2.11-1.14,3.08,1.59,2.47.53,3.26-1.95,1.54-5.86,1.67-4.26-7.89,1.11-6.23.41-.59,1.36-1.16,1.97-1.48v3.08Z"/>
      <path class="cls-16" d="M26.58,44.88c2.7-1.4,3.41-.48,1.51,1.85-.08,1.86.15,3.71.47,5.54-2.55,3.05-8.43,2.9-9.78-1.16-2.2.8-2.76-1.45-1.37-3.08l-1.32-1.67c1.34-3.45,2.53-6.92,3.56-10.43-1.93.02-2.03-.86-.19-1.42.27-.08.53-.18.77-.34l3.26-1.47c.64,4.82-.76,9.87,3.09,12.19Z"/>
      <path class="cls-62" d="M42.52,44.76c-2.1,2.35-3.23,5.35-5.07,7.9-.45,1.01-.97.99-1.54,0,.1-1.91-.52-3.75-1.27-5.64,2.91-1.3,6.24-1.78,7.89-3.74l-.02,1.48Z"/>
      <path class="cls-74" d="M58.62,44.89c-1.51,2.15-2.72,4.04-1.11,6.23-.55.47-1.05,1.01-1.54,1.54l-1.92,2.06c.38,2.3-1.68,4.45-4.01,4.11l-2.5-.14c-.15-.51.16-1.13.08-1.66-.22-2.81,1.03-5.83,3.74-9.04-2.45-1.25-.34-4.94,1.98-5.04,1.84.42,3.59,1.12,5.29,1.93Z"/>
      <path class="cls-57" d="M47.61,57.03c-1.12-.39-1.9-1.25-1.78-2.04.22-1.47.73-2.55,1.14-3.61l1.36-.08c.34-2.96,1.34-4.06,3.02-3.3-.6,3.25-1.65,6.45-3.74,9.04Z"/>
      <path class="cls-20" d="M45.65,49.58l-1.92,2.32c-.68.83-1.67.99-1.65-.78.96-1.88,1.78-3.82,2.54-5.79,1.33-1,2.28.07,2.04,1.54-.11.72-.48,1.71-1.01,2.7Z"/>
      <path class="cls-87" d="M53.33,42.96c-1.04,1.52-1.64,3.24-1.98,5.04-.93,1.17-1.9,2.31-3.02,3.3-.81-3.96.66-7.93,4.37-9.73l.62,1.4Z"/>
      <path class="cls-106" d="M28.09,46.73c-.63-.44-.86-1.46-1.51-1.85,1.64-.57,2.63-1.93,4.36-3.18,1.36,3.22-1.34,3.96-2.85,5.03Z"/>
      <path class="cls-25" d="M44.62,45.33c1.29,2.29-.11,4.83-2.54,5.79-1.59.98-2.74,2.55-2.75,4.45-.63,0-1.25.21-1.88.17-1.35-.44-1.33-.95,0-1.54-1.35-.44-1.33-.95,0-1.54-2.05-4.23,1.37-6.39,5.07-7.9.47-1.3.79-1.11.99.37l1.11.2Z"/>
    </g>
    <g id="back-glove">
      <path d="M63.81,32.53c-1.29-.14-.86-.72-2.82-.43s-1.2-.77-2.68,1.05-3.73,1.91-4.12,2.73-1.53,2.49-1.53,3.21-.34,2.44.96,3.16c1.29.72,6.8,2.01,7.76,1.82.96-.19,2.39-.29,2.59-1.68s-.24-4.6.24-6.22-.38-3.64-.38-3.64Z"/>
      <path class="cls-7" d="M65.21,40.32c-.42,3.39-1.25,2.63-3.08,0-.78-1.34-1.49-2.72-2.04-4.16-2.23-2.97-1.16-3.84,2.11-4.61.73.69,3.54-.05,3.88,1.37.06,2.73-.11,5.22-.86,7.41Z"/>
      <path class="cls-7" d="M62.13,41.87c4.6-2.07,1.55,5.07-1.54,1.54-.29,1.82-.95,2.31-1.97,1.48-2.85,3.27-5.21,2.39-5.29-1.93-1.41.15-1.6-.32-.62-1.4l-.31-1.22,9.74,1.52Z"/>
      <path class="cls-8" d="M65.21,40.32c2.5,2.93-1.95,5.24-4.63,6.17-2.23.02-1.23-1.51,0-3.08.52-.14,2.1.28,3.01-.7.29-.31-.58-.96-1.46-.84v-1.54h3.08Z"/>
    </g>
    <g id="Head">
      <g id="neck">
        <path class="cls-107" d="M36.87,22.39c-.02.97-.2,2.14-.9,2.48-.06.03-.12.06-.19.11-.46.25-1.15.72-1.94,1.18-.18.11-.36.21-.54.31-.32.18-.65.36-.98.51-.75.36-1.5.62-2.14.63-1.75.05-4.49-.33-5.81-.98-.12-.05-.23-.12-.33-.18-.23-.15-.48-.36-.74-.59-.91-.84-1.9-2.02-2.08-2.25-.02-.01-.02-.02-.03-.03h-.01s0-.04.01-.06v-.02s.01-.03.02-.05c0-.02,0-.05.02-.08.08-.38.31-1.22.7-1.93.29-.52.71-1.38,1.07-2.11.18-.37.34-.71.47-.96.08-.16.15-.28.2-.35.27-.43,1.01-1.84,1.64-2.06.34-.11.97-.45,1.59-.72.01-.01.02-.01.02-.01.51-.22,1.02-.4,1.38-.36.13.01.33.02.58.01.23.01.5.01.8.01h.01s.04.01.07.01h0c.45,0,.93.02,1.41.05.71.05,1.38.14,1.82.34.12.05.23.1.31.18.03.01.05.03.07.05.51.52,1.32,1.63,1.9,2.52.03.04.06.08.08.12.13.2.24.38.34.54.11.19.19.35.24.46.1.25.23.48.35.72.01.01.02.02.02.03.06.1.11.2.15.3.16.32.3.66.35,1.05.01.05.01.11.02.17v.03c.02.25.04.57.04.93Z"/>
        <path class="cls-107" d="M37.66,25.86c-.33.29-.79.39-1.22.45-.5.08-1.01.14-1.51.14-.07,0-.13,0-.2-.01-.54.25-1.12.41-1.71.48-.23.04-.47.06-.7.06-.75.36-1.5.62-2.14.63-1.75.05-4.49-.33-5.81-.98-.12-.05-.23-.12-.33-.18-.23-.15-.48-.36-.74-.59-.91-.84-1.9-2.02-2.08-2.25-.01.01-.02.02-.04.03-.01-.02,0-.04.01-.06,0-.02,0-.04.01-.06,0-.04.02-.09.05-.13.5-1.63,2.19-2.88,4.44-3.45.13-.03.27-.07.41-.09.12-.03.24-.05.37-.08.68-.11,1.41-.17,2.17-.17.17,0,.35.01.52.02.36.02.73.05,1.1.1.22.03.45.06.67.1,1.53.27,2.97.74,4.16,1.37.1.05.2.1.3.16,0,0,0,.01.01,0,.1.05.18.11.28.17.44.27.84.56,1.19.87.49.44.88.91,1.15,1.41.05.15.09.31.11.47.09.57-.04,1.21-.47,1.59Z"/>
        <path class="cls-107" d="M33.55,25.74c-.01.06-.02.11-.05.17-.03.2-.1.38-.2.56-.07.16-.17.31-.28.45-.23.04-.47.06-.7.06-.75.36-1.5.62-2.14.63-1.75.05-4.49-.33-5.81-.98,0-.17.01-.35.01-.53.02-.21.03-.42.06-.63.2-2,.82-4.02,1.13-5.09.05-.17.09-.32.12-.44.03-.12.04-.21.05-.27,0-.01.01-.03.01-.04.12-.46.16-1.07.27-1.63.01-.05.01-.1.03-.14.12-.6.34-1.11.84-1.26.12-.05.26-.07.42-.06.14.01.3.03.48.09.01,0,.03,0,.05.01.01.04.02.09.04.13h0c.41,1.26,1.54,1.68,2.53,2.42.11.14.22.27.34.4.06.08.12.16.18.23.28.36.54.7.77,1.02,1.5,2.1,2.07,3.68,1.85,4.9Z"/>
        <path class="cls-108" d="M37.66,25.86c-.33.29-.79.39-1.22.45-.5.08-1.01.14-1.51.14-.07,0-.13,0-.2-.01-.16,0-.31-.01-.47-.06-.15-.05-.29-.13-.42-.22-.12-.07-.23-.16-.34-.25-.05-.03-.1-.07-.15-.11-.19-.14-.38-.26-.61-.32-.15-.04-.32-.04-.44-.14-.08-.06-.13-.15-.18-.24-.35-.7-.57-1.49-1.11-2.05-.17-.18-.36-.32-.51-.5-.21-.25-.33-.55-.49-.82-.3-.49-.72-.89-.99-1.39-.1-.2-.18-.42-.3-.62-.02-.04-.05-.08-.08-.12,0-.03-.03-.06-.05-.08-.07-.11-.15-.21-.23-.32-.37-.55-.58-1.18-.78-1.81-.03-.08-.06-.17-.05-.26v-.02s.01-.05.02-.07h0c.02-.06.05-.1.07-.14.05-.09.1-.18.17-.27.16-.28.37-.54.67-.68h1.14s.09-.01.13-.01c.42-.01.83.08,1.2.26.03.01.06.03.08.04.11.09.21.15.29.18.04.02.07.04.1.07.21.14.4.3.59.46.59.5,1.19,1.02,1.57,1.68.08.15.15.3.28.4.22.16.52.13.79.14.62.01,1.25.25,1.66.71.01.01.02.02.02.03.05.06.1.12.14.18.03.04.05.08.07.13.11.2.19.42.27.63.07.2.15.39.23.59,0,.01.01.02.01.03.16.4.33.79.51,1.18.17.38.36.76.48,1.15.05.15.09.31.11.47.09.57-.04,1.21-.47,1.59Z"/>
        <path class="cls-71" d="M25.64,24.49c-.3.35-.72.71-1.2.98-.2.11-.41.21-.63.28-.17.05-.34.09-.51.11-.91-.84-1.9-2.02-2.08-2.25-.01.01-.02.02-.04.03-.02.04-.03.09-.03.13-.01-.04,0-.08.01-.12,0-.03.01-.05.02-.08,0-.01,0-.03.01-.05h.01s0-.01-.01-.02c.01-.01.01-.03.02-.05,0-.02,0-.05.02-.08.25-.89.96-2.01,2.01-3.59.07-.11.14-.21.2-.31.24-.37.45-.69.65-.96.56-.81.95-1.19,1.31-1.12.23.04.42.23.57.51.02.03.04.06.05.1.18.36.3.84.39,1.33.01.09.03.18.04.28,0,.05,0,.1.02.16.06.41.08.81.09,1.1.03,1.09.06,2.47-.92,3.62Z"/>
      </g>
      <g id="face">
        <path class="cls-95" d="M39.79,16.51c.16.34.9,1.39,1.06,1.83s.46,1,.01,1.27-1.66.92-2.12.86-8.27-.91-9-.97-5.21.34-6.36-.04-2.92-.95-3.68-2.02-2.14-2.79-2.51-4.19-.26-4.82.33-5.76,2.87-3.48,4.92-4.15,3.64-1.64,6.58-1.41c2.94.23,6.78,1.42,7.98,2.09,1.2.66,1.54,1.33,1.73,1.96s.74,1.97.89,2.82,1.29,2.44,1.33,2.88-.37.59-.63.47-.79-.03-1.12.08c-.35.12-.15.55-.11.87s.06.88-.12,1.02-.99.3-1.32.63-.56.71-.38.92.38.57.79.52,1.15-.19,1.36-.23.38.55.38.55Z"/>
        <path class="cls-68" d="M40.6,17.61c-.59-.78-1.06-1.66-1.39-2.59-.12-.34.64-2.42.36-2.66-.23-.2-1.58.37-1.89.34-.36-.04-.9.52-1.36.81-.98.6-1.76.97-2.68,1.65-.35.25-.72.7-.49,1.06.12.18.35.26.53.38.59.4.6,1.25.92,1.89.05.09.11.19.21.23.07.03.14.02.21.02.59-.04,1.18-.07,1.77-.11.87-.05,1.75-.11,2.59-.37.37-.11.72-.27,1.07-.42l.15-.24Z"/>
        <path class="cls-70" d="M39.78,11.91c.49-.54.43-1.27.3-1.89-.27-1.3-.7-2.56-1.28-3.75-.12-.25-.32-.53-.65-.51-.11,0-.22.05-.32.09-1.04.4-2.07.8-3.11,1.21-.55.21-1.19.52-1.31,1.02-.05.22,0,.44.07.64.45,1.48.93,3.02,2.12,4.09.19.18.42.34.71.37.23.02.46-.05.69-.12.78-.24,1.56-.48,2.34-.72l.43-.42Z"/>
        <path class="cls-68" d="M30.25,17.01c-.14-.44-.38-.85-.63-1.25-.11-.19-.23-.38-.39-.53-.11-.11-.24-.19-.33-.31-.09-.11-.14-.24-.19-.38-.13-.33-.23-.68-.32-1.03-.06-.24-.1-.48-.15-.72l-.12-.62c-.03-.16-.06-.33.04-.48.09-.14.27-.21.43-.28.42-.17.85-.33,1.27-.5.11-.04.23-.09.35-.1.12,0,.24.03.35.04.22.03.45,0,.68-.04.68-.09,1.36-.13,2.03-.12.27,0,.55.02.77.13.13.07.23.16.36.22.29.14.7.1.89.34.06.08.09.17.14.25.11.17.31.27.42.44.18.28.06.67-.16.97s-.54.53-.79.81c-.21.23-.39.49-.64.69-.21.16-.45.27-.69.39-.45.24-.88.52-1.3.81-.29.2-.59.4-.82.65-.26.28-.46.63-.82.78l-.4-.18Z"/>
        <path class="cls-95" d="M31.92,13.75c-1.1.28-2.11.89-2.89,1.76-.25.29-.48.6-.75.88-.93.99-2.2,1.5-3.45,1.94-.42.15-.88.29-1.31.08-.42-.2-.67-.68-.83-1.14s-.25-.96-.49-1.38c-.16-.29-.39-.54-.57-.82-.22-.34-.37-.73-.52-1.12-.28-.73-.56-1.47-.84-2.2-.08-.21-.16-.42-.16-.64,0-.3.13-.57.26-.82.27-.51.55-1.04.97-1.41.14-.13.3-.23.43-.37.14-.14.26-.31.39-.45.34-.37.77-.62,1.2-.85,1.16-.61,2.37-1.1,3.62-1.46.32-.1.65-.18.99-.22.29-.03.59-.03.88-.02.26,0,.53,0,.79.01.22,0,.45.01.65.13.32.2.47.64.46,1.03s-.13.75-.2,1.13c-.09.54-.07,1.12.07,1.67.06.22.14.45.16.67.02.2,0,.4,0,.59,0,.86.4,1.69.78,2.48l.33.53Z"/>
        <path class="cls-3" d="M30.99,6.74c-1.14,1.58-1.72,3.63-1.55,5.55,1.83-.5,3.95-.9,5.65-1.32.91-2.89-.88-7.12-4.1-4.24Z"/>
      </g>
      <g id="beard">
        <path class="cls-12" d="M39.37,11.89c-1.19-.37-2.47.08-3.63.53-1.18.45-2.35.91-3.53,1.36-.27.11-.56.22-.75.43-.45.48-.3,1.25-.06,1.86.25.64-.3.39-.91-.37-.91-1.14-2.27-2.29-3.67-1.88l-.14.61c.56,2.18,1.28,4.57,3.2,5.73,1.03.63,2.27.79,3.47.95,2.26.29,4.56.58,6.79.11.48-.1.98-.26,1.29-.64.65-.77.17-1.93-.32-2.81-.06-.11-.13-.23-.23-.3-.12-.09-.28-.12-.44-.13-1.25-.14-2.53,0-3.73.37-.55.17-1.09.39-1.65.53.21-.15.36-.36.4-.62.03-.2,0-.41-.05-.61-.14-.7-.27-1.4-.41-2.09-.01-.07-.03-.13,0-.2.03-.12.14-.19.25-.24,1.3-.72,2.75-1.16,4.23-1.27l.16-.18c.3.06.53-.33.43-.61s-.4-.45-.69-.54Z"/>
      </g>
      <g id="hair">
        <path class="cls-51" d="M38.04,4.75c-.16.53-.59,1.03-1.39,1.24-.61.16-1.21.45-1.79.71-.07.03-.14.06-.2.09-.51.21-1.02.38-1.51.38-.16,0-.32-.02-.48-.06-.65-.16-1.25-.28-1.77-.24-.05,0-.1.01-.15.01-.29.04-.56.14-.79.32-.12.08-.22.19-.32.32-.66.89-3.25,2.6-3.48,2.61s-.12,2.14.36,2.87c.2.3.32.54.4.8.1.36.09.77,0,1.43,0,.02-.01.03-.01.06h0c-.04.4-.02.84-.02,1.31.01.28.01.57,0,.86-.04.6-.15,1.23-.47,1.87-.04.09-.09.18-.14.27,0,.01,0,.01,0,.02-.05.08-.1.16-.16.23-.16.21-.34.39-.53.53-.99.77-2.33.82-3.04,1.98-.28.47-.7.86-1.17,1.16-.04.04-.09.07-.14.09-.01.01-.02.02-.04.03,0,0-.01.01-.02.01-.96.56-2.09.73-2.76.36-.09-.05-.18-.09-.26-.13-.9-.46-1.72-.69-1.91-1.56-.01-.05-.01-.1-.02-.15-.04-.36-.14-.71-.25-1.07-.02-.07-.04-.15-.07-.22-.13-.43-.27-.86-.34-1.29-.05-.25-.08-.49-.07-.74.03-.73-.81-2.35-1.47-3.57-.38-.68-.69-1.24-.78-1.46-.24-.62-1.52-2.61-.97-3.46.14-.23.38-.56.64-.95h.01c.74-1.07,1.74-2.49,1.9-2.78.03-.05.1-.13.22-.24.09-.09.2-.19.33-.31h.01c1.16-1.01,3.77-2.98,4.57-3.16,1.02-.24,4.16-2.1,5.32-2.37.02,0,.04-.01.07-.01h.01c.28-.06.72-.11,1.21-.15h.01c1.64-.09,4.05.01,5.03.49.3.15.62.26.96.35h.01c.93.28,1.92.4,2.56.6h.02c.11.04.21.08.3.12.76.36,2.35.95,2.6,1.7.1.32.12.71,0,1.1Z"/>
        <path class="cls-52" d="M27.06.73c-1.81.07-1.88-.64-3.35.08-1.47.72-5.79,1.9-6.61,3.02s-2.09,1.73-2.22,3.26.48,2.01,1.41,1.65,3.95-1.07,4.92-1.69,4.13-2.36,4.83-2.87,2.37-2.1,2.07-2.55-1.06-.9-1.06-.9Z"/>
        <path class="cls-19" d="M14.86,14.5l-.6-.46c-.26-.21-.53-.42-.72-.69-.14-.21-.23-.45-.32-.68-.15-.39-.29-.78-.44-1.17-.04-.1-.08-.2-.08-.31,0-.12.05-.24.08-.35.09-.33.05-.68.07-1.02.04-.72.31-1.4.62-2.05.19-.4.4-.8.74-1.08.25-.21.55-.34.85-.46.75-.32,1.52-.64,2.33-.69.26-.02.52,0,.77.08.34.12.61.38.88.63.32.3.63.6.95.9.05.05.1.09.11.16.01.06-.02.13-.04.19-.69,1.46-1.5,2.89-2.62,4.06-.5.52-1.07,1-1.39,1.65l-1.2,1.33Z"/>
        <path class="cls-51" d="M34.5,7.82c-.28-.15-.57-.31-.86-.44-1.39-.66-2.94-.95-4.47-.86-1.91.12-3.73.84-5.49,1.62-.8.36-1.6.72-2.4,1.11-.4.19-.81.4-1.14.7-.54.52-.79,1.27-1.01,1.99-.16.52-.32,1.03-.48,1.55-.2.64-.41,1.3-.86,1.8-.05.05-.1.11-.17.14-.2.09-.42-.04-.6-.16-.53-.36-1.05-.72-1.58-1.08-.51-.35-1.08-.81-1.07-1.43.01-.5.41-.9.83-1.16s.89-.46,1.23-.83c.4-.44.55-1.05.91-1.53.35-.47.91-.81,1.09-1.37.12-.39.03-.8-.02-1.2-.03-.19-.04-.4.09-.55.19-.22.55-.14.84-.09.64.1,1.28-.09,1.9-.27.65-.2,1.3-.4,1.89-.75.56-.33,1.03-.79,1.59-1.13.95-.56,2.1-.72,3.2-.63s2.16.43,3.2.8c-.25.04-.46.28-.47.53-.01.32.26.59.55.7s.62.11.94.14c.58.05,1.15.2,1.68.44.69.32,1.38.96,1.25,1.71-.1.14-.31.19-.46.11l-.12.13Z"/>
        <path class="cls-52" d="M27.69,5.9c-.22-.38,1.09-1.74,1.54-1.92,1.26-.52,2.53-1.04,3.79-1.56.81-.33,1.67-.67,2.52-.57,1.25.15,3.57,1.89,3.95,2.99.05.14.09.29.06.44-.05.23-.26.41-.46.56-.5.36-1.05.63-1.59.91-.73.37-2.54,1.15-3.26,1.52-.36.18-1.13-.72-1.51-.61-1.08.3-2.24-.03-3.06-.68s-1.97-1.09-1.97-1.09Z"/>
        <path class="cls-55" d="M18.03,15.44c.19.11.14.39.03.58s-.26.38-.22.59c.03.12.11.21.14.33.04.13,0,.26-.03.38-.33,1.09-1.26,1.97-2.36,2.25-.06.01-.12.03-.18.02-.23-.03-.32-.32-.35-.55-.12-.77-.33-1.54-.62-2.26-.12-.3-.25-.59-.34-.9-.18-.65-.13-1.39.22-1.96s1.03-.97,1.71-.89c.78.09,1.37.72,1.88,1.31.1.12.19.35.04.4l.07.7Z"/>
        <path class="cls-4" d="M25.76,4.2c-2.69-9.12,15.01-.75,6.38.71-1.91-1.72-4.8.57-6.38-.71Z"/>
      </g>
      <g id="Eye">
        <path class="cls-51" d="M33.44,9.84c.89-.74,3.4-1.71,3.8-.06-.71-.1-1.17-.14-1.85-.23-.62,0-1.28.12-1.91.35-.04.02-.07-.04-.04-.07h0Z"/>
        <g>
          <g id="eye">
            <path class="cls-23" d="M34.84,10.28c-.23.06-.49.14-.65.32-.07.08-.11.17-.13.25-.09.4.32.63.8.6s1.01-.26,1.5-.5c.18-.09.37-.19.47-.33.14-.2.04-.38-.15-.44s-.44-.03-.68.01c0,0-.66-.03-1.15.1Z"/>
            <path d="M34.85,10.29c-1.39.44-.57,1.38.58.93.31-.12,1.88-.57,1.25-.99-.47-.07-1.33-.04-1.83.06h0ZM34.84,10.27c.37-.11.8-.12,1.15-.13.3-.06.92-.19.97.29,0,.15-.1.27-.19.35-.62.4-1.26.74-2,.78-1.19-.04-.97-1.18.07-1.29h0Z"/>
          </g>
          <g>
            <ellipse class="cls-109" cx="35.96" cy="10.61" rx=".61" ry=".33" transform="translate(-.98 17.04) rotate(-26.32)"/>
            <g>
              <ellipse class="cls-51" cx="36.18" cy="10.59" rx=".39" ry=".26" transform="translate(-.65 18.63) rotate(-28.63)"/>
              <path class="cls-23" d="M36.28,10.41c.07-.04.15.08.16.16,0,.01,0,.03,0,.05-.01.02-.03.03-.05.05-.06.04-.14.08-.2.08s-.12-.04-.11-.1c0,0,.21-.02.22-.23Z"/>
            </g>
          </g>
        </g>
      </g>
      <g id="mouth">
        <path id="open" d="M39.55,16.08s-.24-1.45-.25-1.48-.68.34-.75.37-.68.39-.77.43-.28.19-.33.26-.18.3-.19.35,0,.28.01.34.14.29.19.3.34.15.42.12.69-.07.78-.12.61-.21.69-.24.2-.06.22-.08-.02-.26-.02-.26Z"/>
        <g id="teeth">
          <path class="cls-23" d="M39.35,14.2c.05.17.11.37.11.48s.01.1,0,.13-.6.44-.85.54-.98.32-1.01.33-.04-.06-.02-.09.12-.15.19-.2.48-.34.55-.41.46-.33.54-.4.49-.37.49-.37Z"/>
          <path class="cls-23" d="M39.66,15.98c.11-.03-.07-.52-.07-.55s-.4.48-.55.58-1.18.41-1.29.47-.19.24-.19.24c0,0,.1.05.15.06s.53.05.62.01.58-.26.65-.32.66-.49.68-.49Z"/>
        </g>
        <path id="lips" class="cls-63" d="M39.53,13.91c-.05-.24-.16-.13-.28,0s-.5.62-.71.8-.98.55-1.11.78-.41.84-.34,1.11.29.68.49.75.79-.13,1.2-.23.98-.33,1.05-.49.35-.89.15-1.03-.42.14-.47.23-.76.7-.96.78-1.02.14-1.09.04-.28-.17-.08-.6.28-.48.45-.57.88-.48,1.09-.62.56-.25.61-.35.06-.29,0-.58Z"/>
      </g>
    </g>
    <g id="front-arm-assembly">
      <g id="front-arm">
        <path class="cls-5" d="M12.64,34.13c4.53,1.72.61,4.69-2.95,4.24.68,3.25-.62,6.11-4.38,5.14-1.41-1.29-1.44-3.39-.1-6.3.62-1.16,1.51-3.05,1.4-4.39.51-1.31,1.01-1.26,1.5.1,1.6.11,3.05.67,4.52,1.21Z"/>
        <path class="cls-60" d="M15.87,58.27c2.35,1.4,1.05,4.05-1.54,3.61-4.24,1.13-7.39-1.76-10.79-3.05-1.22-1.98-.16-2.47,3.19-1.47.37-4.01,8.82-3.81,9.15.9Z"/>
        <path class="cls-36" d="M5.32,43.52c4.34-.39,2.23,4.27-.25,6.06.64,1.52.15,2.13-1.47,1.82-.11,1.38-.53,1.37-1.25.1-.7,2.9-1.85,2.66-1.94-.38,1.09-4.73,2.53-9.65,4.82-13.9-.15,2.1-.11,4.2.1,6.3Z"/>
        <path class="cls-78" d="M6.72,57.36c-.9.8-2.02,1.24-3.19,1.47-3.34-1.26-4.12-3.41-3.13-7.71l1.94.38c2.58,2,4.04,3.96,4.38,5.87Z"/>
        <path class="cls-99" d="M18.95,60.37c-1.33.41-1.53,1.85-1.54,3.08-1.15-.26-2.24-.75-3.08-1.57,1.26-.78,1.31-2.29,1.54-3.61-2.07-2.38-1.07-3.06,1.54-.98,2.93-1.78,3.7.95,1.54,3.08Z"/>
        <path class="cls-67" d="M19.46,34.51c.74.55,1.43,1.09.19,1.42.44,4.08-1.31,5.1-5.25,3.05-.15,1.38-.61,1.36-1.36.09-1.65,3.8-2.99,3.4-3.34-.7,1.85-.13,3.14-2.68,2.95-4.24,2.19.79,4.58,1.01,6.82.37Z"/>
        <path class="cls-6" d="M22.14,56.06c-.55,1.91-.6,3.9-.3,5.86.49.88-.17,1.46-.69,1.56-.87.17-2.23-.07-2.22-.81l.02-2.29-1.54-3.08c-2.96-.98-2.82-2.12.21-2.72.4-1.34.87-1.23,1.39.16l3.12,1.34Z"/>
        <path class="cls-73" d="M17.41,48.03c-.46,1.37-.97,1.36-1.54,0-1.3,2.97-3.33.74-4.63-1.54-.72,2.33-1.75,3.87-3.08,4.63-.97,1.53-3.4.33-3.08-1.54l.25-6.06c1.2-2.34,1.48-4.93,4.38-5.14l3.34.7c2.04,2.31,2.49,2.28,1.36-.09,1.48-1.43,3.42-2.16,5.25-3.05,3.99.17-.72,10.36-2.24,12.1Z"/>
        <path class="cls-84" d="M11.11,50.85c.14-1.38.57-1.39,1.28-.13,1.95-2.83,2.73-.81,3.48,1.93,1.44-2.14,2.57-.31,1.76,1.9.13.86-.59,1.97-.21,2.72-.46.13-1.45.42-1.54.98l-9.15-.9c-2.39-1.56-5.95-2.55-4.38-5.87.4.08.84-.11,1.25-.1,2.74.53,5.25.35,7.52-.55Z"/>
        <path class="cls-44" d="M8.16,51.12c.36-3.07,1.96-3.33,2.96-.27-1.72,2.55-5.36,2.64-7.52.55.58-.53,1.08-1.14,1.47-1.82l3.08,1.54Z"/>
        <path class="cls-48" d="M18.78,51.11c.39,1.01-.06,2.51.23,3.61-.42-.18-.95-.05-1.39-.16l-1.76-1.9c-1.88-1.6-3.08-4,0-4.63.34.2,1.11-.1,1.54,0-.56,1.01,1.03,2.28,1.37,3.08Z"/>
        <path class="cls-26" d="M13.04,39.08c.43.09.92-.13,1.36-.09,2.56-.58,2.44.94,1.92,2.25-.73,1.84-2.85,4.3-3.81,2.06-.64-1.5.66-3.18.53-4.22Z"/>
        <path class="cls-91" d="M11.24,46.49c2.7,1.45,4,2.42,1.15,4.23l-1.28.13-2.96.27c-.23-1.96.66-7.79,3.08-4.63Z"/>
        <path class="cls-102" d="M15.87,48.03v4.63l-3.48-1.93c-.03-1.49-.41-2.94-1.15-4.23.78,1.01,3.76.28,4.63,1.54Z"/>
      </g>
      <g id="front-glove">
        <path class="cls-47" d="M18.71,65.03c-1.16-.45-1.58-1.01-1.96-1.34s-1.1-1.72-.57-2.82,1.15-3.83,1.39-4.5.05-1.53,1.1-1.2,2.97.29,3.49,0,5.17-1.77,6.22-1.91,5.36-.72,6.56-.1c1.2.62,2.45.46,2.52,1.04s.21,3.07.21,4.22-.53,6.46-1.01,6.94-2.01,2.25-2.73,2.25-7.28-1.24-8.43-1.29c-1.15-.05-5.07-.62-6.8-1.29Z"/>
        <path class="cls-88" d="M34.37,54.2c1.3.22,1.81.73,1.54,1.54v1.54c.56,3.21.56,6.29,0,9.25-7.39,2.6-9.22-.64-9.25-7.71-2.97,1.81-3.93,0-1.42-2.43-.55-.72-.98-1.44-.99-2.17-.01-.55,8.63-1.79,10.13-1.56,1.36.35,1.32.87,0,1.54Z"/>
        <path class="cls-43" d="M25.24,56.4l1.42,2.43c1.81,5.34,1.29,7.92-1.57,7.73-2.57-.47-6.42,1.27-7.69-1.77-.52-2.25.3-2.44,2.48-.59,1.62.37,2.28-.39,1.96-2.29-2.56-2.08-3.24-5.13.3-5.86,1.15-2.6,2.47-2.46,3.1.34Z"/>
        <path class="cls-72" d="M35.91,66.54c-2.96,3.31-6.91.73-10.82.02,1.51-2.29,1.75-5.05,1.57-7.73,1.11,1.89,1.09,4.42,2.71,6.6,1.35,1.82,4.97,1.18,6.54,1.11Z"/>
        <path class="cls-94" d="M35.91,66.54c1.44-2.26-2.29-2.87-2.39-3.99-.17-1.88,2.09-3.68,2.39-5.26,2.6,2.75,2.32,6.66,0,9.25Z"/>
        <path class="cls-28" d="M21.84,61.91c1.43.21,2.3.95,1.59,2.96-2.56.38-4.31,0-6.03-.08v-1.34c-2.39-1.38-.93-4.51,1.55-3.08.82.94,1.78,1.46,2.89,1.54Z"/>
        <path class="cls-47" d="M37.46,54.2v1.54c-.47-.02-1.12.17-1.54,0-.63-.26-1.23-.94-1.54-1.54.39-1.28,2.27-1.12,3.08,0Z"/>
      </g>
    </g>
  </g>
</svg>