<?xml version="1.0" encoding="UTF-8"?>
<svg id="Enemy" xmlns="http://www.w3.org/2000/svg" viewBox="0 0 119.26 54.27">
  <defs>
    <style>
      .cls-1 {
        fill: #551d90;
      }

      .cls-2 {
        fill: #97173c;
      }

      .cls-3 {
        fill: #bb957f;
      }

      .cls-4 {
        fill: #401953;
      }

      .cls-5 {
        fill: #390b6f;
      }

      .cls-6 {
        fill: #926ca4;
      }

      .cls-7 {
        fill: #f4d9c9;
      }

      .cls-8 {
        fill: #3e0e76;
      }

      .cls-9 {
        fill: #271146;
      }

      .cls-10 {
        fill: #7b43b4;
      }

      .cls-11 {
        fill: #b49683;
      }

      .cls-12 {
        fill: #270c4c;
      }

      .cls-13 {
        fill: #2e0f24;
      }

      .cls-14 {
        fill: #010101;
      }

      .cls-15 {
        fill: #a2897a;
      }

      .cls-16 {
        fill: #230e42;
      }

      .cls-17 {
        fill: #3c0971;
      }

      .cls-18 {
        fill: #962143;
      }

      .cls-19 {
        fill: #37185f;
      }

      .cls-20 {
        fill: #111212;
      }

      .cls-21 {
        fill: #121212;
      }

      .cls-22 {
        fill: #272727;
      }

      .cls-23 {
        fill: #d5aa96;
      }

      .cls-24 {
        fill: #170d29;
      }

      .cls-25 {
        fill: #2d2d2d;
      }

      .cls-26 {
        fill: #32104f;
      }

      .cls-27 {
        fill: #552525;
      }

      .cls-28 {
        fill: #9f8373;
      }

      .cls-29 {
        fill: #160035;
      }

      .cls-30 {
        fill: #18042b;
      }

      .cls-31 {
        fill: #f6d4cd;
      }

      .cls-32 {
        fill: #b38e7c;
      }

      .cls-33 {
        fill: #2f1549;
      }

      .cls-34 {
        fill: #340d64;
      }

      .cls-35 {
        fill: #f1c09a;
      }

      .cls-36 {
        fill: #1c1c1c;
      }

      .cls-37 {
        fill: #987d6b;
      }

      .cls-38 {
        fill: #b08d7b;
      }

      .cls-39 {
        fill: #30085c;
      }

      .cls-40 {
        fill: #c49473;
      }

      .cls-41 {
        fill: #2f045e;
      }

      .cls-42 {
        fill: #603e39;
      }

      .cls-43 {
        fill: #c6b1a5;
      }

      .cls-44 {
        fill: #fae7de;
      }

      .cls-45 {
        fill: #c9b8a6;
      }

      .cls-46 {
        fill: #211d24;
      }

      .cls-47 {
        fill: #6d0c1f;
      }

      .cls-48 {
        fill: #212121;
      }

      .cls-49 {
        fill: #472c37;
      }

      .cls-50 {
        fill: #450d7f;
      }

      .cls-51 {
        fill: #5f289d;
      }

      .cls-52 {
        fill: #71515f;
      }

      .cls-53 {
        fill: #360870;
      }

      .cls-54 {
        fill: #cea28d;
      }

      .cls-55 {
        fill: #c29a81;
      }

      .cls-56 {
        fill: #eed3c2;
      }

      .cls-57 {
        fill: #f4e4cf;
      }

      .cls-58 {
        fill: #f4c2ac;
      }

      .cls-59 {
        fill: #030303;
      }

      .cls-60 {
        fill: #662ea5;
      }

      .cls-61 {
        fill: #936452;
      }

      .cls-62 {
        fill: #501884;
      }

      .cls-63 {
        fill: #35125f;
      }

      .cls-64 {
        fill: #e68f94;
      }

      .cls-65 {
        fill: #230d45;
      }

      .cls-66 {
        fill: #1c1b1f;
      }

      .cls-67 {
        fill: #3f0878;
      }

      .cls-68 {
        fill: #101011;
      }

      .cls-69 {
        fill: #452a36;
      }

      .cls-70 {
        fill: #f5e6cf;
      }

      .cls-71 {
        fill: #40077d;
      }

      .cls-72 {
        fill: #d6ac8a;
      }

      .cls-73 {
        fill: #632aa3;
      }

      .cls-74 {
        fill: #291240;
      }

      .cls-75 {
        fill: #7034b0;
      }

      .cls-76 {
        fill: #000100;
      }

      .cls-77 {
        fill: #2f0b5b;
      }

      .cls-78 {
        fill: #321b4f;
      }

      .cls-79 {
        fill: #121514;
      }

      .cls-80 {
        fill: #feebc8;
      }

      .cls-81 {
        fill: #321c35;
      }

      .cls-82 {
        fill: #320c5e;
      }

      .cls-83 {
        fill: #301b51;
      }

      .cls-84 {
        fill: #220e41;
      }

      .cls-85 {
        fill: #ad8c80;
      }

      .cls-86 {
        fill: #35066a;
      }

      .cls-87 {
        fill: #bfaba0;
      }

      .cls-88 {
        fill: #491779;
      }

      .cls-89 {
        fill: #c8ac9a;
      }

      .cls-90 {
        fill: #38086b;
      }

      .cls-91 {
        fill: #20133c;
      }

      .cls-92 {
        fill: #dfb09b;
      }

      .cls-93 {
        fill: #92757e;
      }

      .cls-94 {
        fill: #37086d;
      }

      .cls-95 {
        fill: #6e1e26;
      }
    </style>
  </defs>
  <g id="RedRowRonda">
    <path class="cls-77" d="M70.78,44.55c1.84-2.19,6.84,0,7.03,2.63,2.3.78,6.19.9,7.15-1.78.29-1.34,3.92-1.56,4.83-.44,2.46-1.89,3.76,1.64,4.14,3.86l.1,1.39-5.03.55c-.32.45-.65.46-1,.04l-.73,2.05c-1.18-.94-2.94-1.53-5.29-1.76-3.62-1.09-7.12-2.63-10.85-3.31-1.64.69-1.99-.03-.44-1.14-2.52-.16-2.54-1.57.1-2.08Z"/>
    <path class="cls-22" d="M110.81,45.22c-.08-1.81.86-1.25,2-.07.61-2.58,2.27-1.9,4.97,2.05,1.4,1.89,1.63,4.19,1.42,6.53-3.94,1.29-3.25-8.02-13.31-6.32.52-1.28,2.16-2.01,4.93-2.2Z"/>
    <path class="cls-68" d="M95.92,48.74c1.04-2.97,6.66-7.19,6.93-2.24,2.39.14,2.19,1.03.07,2-1.38-.37-1.97.97-2.97,1.24-1.3.35-4.72.54-5.03-.96.27-.84.61-.84,1-.03Z"/>
    <path class="cls-59" d="M102.85,46.5c.1-1.57,1.69-2.17,4.77-1.79,1.48-1.59,2.49-1.75,3.19.51l-4.93,2.2c-.69.31-2.2,1.28-2.96,1.08l-.07-2Z"/>
    <path class="cls-89" d="M25.22,38.29c.12-.87.7-.82,1.3-.13,1.14.52,1.97.56,3-.1.27-.71.57-.64.91.12.83-.5,1.17-.27,1.01.69.87.63,1.26,1.32,1.18,2.09.09,2.19-2.54,2.3-4.15,1.16-.23-.72-1.58-.68-2.18-.7-.42-.01-.9-.16-1.34-.23-.13-.97-.19-1.98.26-2.88Z"/>
    <path class="cls-21" d="M99.64,40.61c.89-.99,4.29-.44,5.03.82,1.16-1.22,3.13-1.96,5.93-2.21.66-2.93,1.47-2.56,3-.1l.49,1.53c-.42,4.68-2.88,1.08-2.42.78.77-.51,2.31,1.23.08,1.76-1.38,1.33-2.73,1.04-4.03-.86-.66.77-2.31,1.16-4.96,1.17-1.64,1.39-6.04,2.48-7.03-.76-.92-.23-.91-.56-.03-1,1.15-.48,2.47-.86,3.96-1.14Z"/>
    <path class="cls-48" d="M114.09,40.65c4.31-1.05.9,2.77,3.69,6.55-1.97.76-2.75-2.59-4.97-2.05-1.7-.39-2.72-.72-1.07-1.96.4-.55.09-.82-1.06-1.5.9-.88,2.29-.58,3.41-1.04Z"/>
    <path class="cls-75" d="M64.72,37.9c1.42-.9,3.73-.06,4.01,1.73,1.82-2.19,1.93-1.66,1.73,1.06,1.09-.91,2.51-.26,4.24,1.97.82-1.49,4.42.9,5.8,1.94,4.47,3.37,1.33,4.48-2.7,2.59-1.81-1.55-4.86-2.06-7.03-2.63-2.6.85-7.1-2.11-7.28-4.84-.86-.3-.8-.61.1-.94-.34-.94.08-1.19,1.13-.86Z"/>
    <path class="cls-86" d="M72.55,38.43c-.08-1.94.7-1.9,1.17.06,2.22-.85,6.19,2.59,6.92,4.78,1.64.45,3.08,1.16,4.32,2.13.18.78,1.18,1.6,1.43,2.36-2.79,2.92-6.29,1.38-8.58-.58,1.11-.1,2.32.38,3.68-.62l-6.78-3.91c-2.87-1.43-3.59-2.84-2.16-4.23Z"/>
    <path class="cls-63" d="M61.7,40.01c-.56-1.68.8-1.5,1.8-.3,2.61,1.3,5.13,2.86,7.28,4.84l-.1,2.08c.72,3.03-11.47-6.21-8.87-4.85-1.41-1.11-1.45-1.71-.1-1.78Z"/>
    <path class="cls-82" d="M92.72,42.85c.25-.88.59-.88,1-.03,1.95.27,1.98,4.39,1.21,5.96-.33.05-.67,0-1,.03-2-.63-2.74-2.48-4.14-3.86-.25-1.02.73-1.72,2.93-2.1Z"/>
    <path class="cls-29" d="M81.93,42.95c2.36-1.63,6.51-1.68,8.78-.03.57-1.73,1.41-1.8,2-.07-.87.71-1.94,1.6-2.93,2.1-1.48.45-3.38-.2-4.83.44-2.25.99-3.01-1.69-4.32-2.13-.59-1.78.01-1.67,1.29-.32Z"/>
    <path class="cls-26" d="M50.02,34.43c-.42-1.83.34-2.01,1.38-.43.92.94,1.94,1.67,3.06,2.19,2.17-1.36,3.26,1.08,2.3,2.95-.73.38-2.46.3-3.27.15-.98-.18-1.86-.94-2.92-.88-.83-.21-.83-.56-.07-1.03-3.02-.32-3.11-1.24-.47-2.95Z"/>
    <path class="cls-83" d="M61.7,40.01l.1,1.78-5.04-2.65c-.96-3.71,5.14-1.38,4.94.88Z"/>
    <path class="cls-66" d="M95.71,42.75c2.48-.09,4.77-.16,7.03.76,2.92.17,4.57-.22,4.96-1.17,1.69-1.51,2.27.5,4.03.86l1.07,1.96-2,.07c-2.67-.23-5.45.49-7.96,1.28-5.51-3.37,1.65.43-6.93,2.24-.76-1.75-1.31-4.47-.21-6Z"/>
    <path class="cls-16" d="M93.71,42.82c-.04-1.54,1.24-1.34,2-.07.85,1.91.44,3.97.21,6-.21.16-.72-.01-1,.03l-1.21-5.96Z"/>
    <path class="cls-87" d="M45.68,42.49c1.24-1.26,1.69-.73,1.03.96.19.82-.14,1.16-.96,1.03-1.63-.72-3.24-1.89-5.07-1.82-.33,1.26-4.34,1.6-5,.17-.11-.67-1.33-.8-2.03-.93-.88-.25-.88-.59-.03-1,3.3-1.21,9.13-.88,12.06,1.58Z"/>
    <path class="cls-42" d="M49.94,50.46c-.58-2.88.15-3.87,2.19-2.95,1.83,1.22,3.9,4.72,2.01,6.75-1.54.19-3.68-2.53-4.19-3.8Z"/>
    <path class="cls-38" d="M49.45,40.48c.33,2.16,1.87,3.81,2.63,5.8-2.15,2.15-3.37-.95-3.22-3.14-1.9-.02-3.22-2.18-2.27-3.8.73-1.48,3.48-.79,2.86,1.14Z"/>
    <path class="cls-92" d="M47.71,43.42c-.67-1.74-.01-1.81,1.15-.29.84,1.2,1.96,2.38,3.22,3.14.06.41.08.82.05,1.24-.95.82-1.37,2.03-2.19,2.95l-1.19-2.93c-1.73-1.64-2.07-3.01-1.04-4.11Z"/>
    <path class="cls-32" d="M46.71,43.46c.25-.88.59-.88,1-.03.52,1.32.51,2.81,1.04,4.11-1.34-.62-2.29-1.77-3-3.04.18-.46.53-.81.96-1.03Z"/>
    <path class="cls-7" d="M9.71,21.09c-.91-1.29-.39-1.8,1.1-1.4-1.39-2.68-1.15-2.93,1.82-2.23.35,5.38,8.24,1.13,9.01,7.43-.03.89-.28.88-.73.05-.42.87-1.04,1.03-1.85.47.99,1.63.36,2.65-1.89,3.07,1.92.3,1.89,1.19,0,1.8-1.14,1.25-4.58,1.06-5.76.05-4.35-.38-4.83-6.45-1.69-9.24Z"/>
    <path class="cls-18" d="M7.8,14.84c.65.04,1.31.02,1.96.02.9.83,2.77,1.07,2.86,2.59-.78.59-1.31,1.41-1.82,2.23-4.49.64-6.52,5.92-5.37,10.07l-1.14.78c1.59,1.92,1.1,2.2-1.23,1.44-.44-.86-1.78-1.74-1.88-2.9-3.41-5.38,1.06-12.2,6.61-14.24Z"/>
    <path class="cls-27" d="M25.62,10.18c.68-2.74,2.46-3.11,4.17-.86,2.36-1.54,3.01-.45.92,1.49.85.96.1,2.3-2.27,4.04.87,2.45-2.46,2.97-2.79.46-.57-.41-1.19-.72-1.82-1.01-.79-1.7.83-2.75,1.79-4.12Z"/>
    <path class="cls-45" d="M25.65,15.31c.92.67,2.14.43,2.79-.46,1.49-1.57,2.86-2.88,4.13-3.92-1.2-2.45.07-3.03,1.96-1.07,3.43-.46,2.66.99,1.03,3.38-1.43,2.1-5.53,7.35-7.58,4.79-.94,1.75-1.77,2.05-2.18-.02l-.15-2.71Z"/>
    <path class="cls-3" d="M20.91,24.94l.73-.05,3.66-1.44c5.06.87.59,7.71-2.17,3.75-.7.86-2.19.93-3,.18-.73-1.05-.48-2.2.78-2.44Z"/>
    <path class="cls-43" d="M25.8,18.02l2.18.02c2.03,2.03,1.72,2.85-1.15,3.01.3,1.61-1.38,1.73-1.91.16-.12-1.12.94-2.16.88-3.18Z"/>
    <path class="cls-81" d="M24.92,21.21l1.91-.16c1.83-1.95,2.63-1.24,2.51,1.31,3.57-.09,2.81,3.3-.11,1.82-1.63,1.82-3.09,1.58-3.93-.73-.28-.61-.31-1.57-.38-2.24Z"/>
    <path class="cls-13" d="M25.45,36.2c.98-2.75,2.39-2.92,3.97-.46,1.08-.17,1.44.25,1.06,1.28-1.13.91-4.37.91-6,.21l-1.03-.96c-.06-2.09,1.52-2.12,2-.07Z"/>
    <path class="cls-35" d="M21.31,32.34c.02-1.35,1.35-1.4,4-.14.88.25.88.59.03,1,.17,1.84-1.76,2.1-2.96,1.1-.36.62-.7.8-1.23.18-.39-.72-.7-1.47-.94-2.24l1.1.1Z"/>
    <path class="cls-55" d="M25.34,33.2c2.86-.04,2.81,2.23.1,3l-2,.07c-.11-.76-.4-1.54-1.07-1.96.59-1.03,1.89-1.2,2.96-1.1Z"/>
    <path class="cls-4" d="M30.48,37.02c1.94-.09,1.9.69-.06,1.15-.24-.11-.64-.13-.91-.12-.93,1.09-2.46,1.75-3,.1l-1.3.13c-.34-.28-.43-.77-.74-1.06l6-.21Z"/>
    <path class="cls-56" d="M31.43,38.86l6.14.91c.21-.86.55-.85,1-.03,3.42-1.21,8.95-1.77,7.1,2.75-3.83-1.18-8.06-1.72-12.06-1.58l-1,.03c-.41-.27-.71-.74-1.42-1.02-.77-.3-.73-.75.24-1.06Z"/>
    <path class="cls-31" d="M26.51,38.16l3-.1c-.28.67-.84,1.82-1.49,2.03-1.47.49-1.73-.93-1.51-1.93Z"/>
    <path class="cls-2" d="M3.07,31.98c.33-.44.65-1.24,1.23-1.44.22-2.76,1.34-2.59,1.97.1,2.95,2.17,5.22,2.48,8.94,2.06-.36.98.87,3.22-.33,3.57-1.31.38-3.04.52-4.2.3-3.25-.59-7.06-1-7.61-4.6Z"/>
    <path class="cls-25" d="M107.71,42.33c.33-.19,1.15.23.98.44s-.99,1.5-1.27,1.41c-1.37-.41-3.42-.18-4.66-.68.45-2.31,3.88-.21,4.96-1.17Z"/>
    <path class="cls-76" d="M99.64,40.61c-1.14.81-2.44,1.48-3.96,1.14-.86.47-1.18.11-1.03-.96l5-.17Z"/>
    <path class="cls-24" d="M94.64,40.78c.33.34.67.66,1.03.96.08.3-.09.71.03,1l-2,.07-1,.03c.22-.24.01-.99.2-1.38.33-.67,1.06-.66,1.73-.69Z"/>
    <path class="cls-17" d="M55.17,26.97c1.92-.3,3.96.61,6.13,2.75.46-.44.89-.76,1.19-.67.61.19,9.98,6.84,10.21,7.44.25.64.09,1.33-.16,1.95.13,1.36-.68,2.22-2.08,2.26-.31-.41-1.26-.86-1.73-1.06-.37-1.09-1.77-2.06-4.19-2.91-.98.21-2.4.05-2.82-1.02-.07-.18,2.77,1.43,1.87,3.07l-.1.94-1.8.3c-1.37-1.5-3.33-2.1-4.94-.88-.97-.51-1.25-2.29-2.3-2.95,1.41-1.32,2.2-3.85.57-4.7.16,1.79-.52,2.08-1.55.52-2.59-1.29-1.75-8.76,1.69-5.04Z"/>
    <path class="cls-50" d="M64.54,36.72c.93.26.99.65.18,1.18-.4.25-.78.54-1.13.86-1.31-1.02-2.9-1.4-4.92-2.07-1.09-.36-1.53-3.25-.54-3.73,3.11-1.5,5.46,1.21,6.41,3.75Z"/>
    <path class="cls-67" d="M68.73,39.63c-1.31-.53-2.8-.91-4.01-1.73-.11-.38-.04-.82-.18-1.18,1.56-.13,3.13-.23,4.92,1.11.09.82-.48,1.34-.73,1.8Z"/>
    <path class="cls-67" d="M72.55,38.43c.48,1.54,1.05,2.99,2.16,4.23-1.13-.65-3.39-.84-4.24-1.97,0-.69.06-1.54.72-2.03.34-.26.91-.25,1.37-.23Z"/>
    <path class="cls-65" d="M66.96,24.74c1.59-.73,1.97-.46.92,1.04.55,1.51-.25,2.21-1.38,3l8.17,5.32-.4,2.42c.72.96.54,1.62-.56,1.97l-1.17-.06c-1.09-3.47-8.35-5.4-11.25-8.71-5.63-2.41,3.27-7.83,5.66-4.98Z"/>
    <path class="cls-84" d="M74.27,36.52c2.72-1.87,6.29.1,5.64,3.42,3.09-.17,3.75.3,2.01,3.01l-1.29.32c-2.77-.92-4.43-3.14-6.92-4.78-.28-.19-.18-1.2-.37-1.59-.13-.27.48-.58.93-.37Z"/>
    <path class="cls-52" d="M47.56,32.13c.74-2.86,2.06-2.76,3.97.31,1.94.57,1.87,1.32-.13,1.56-.66-.46-.97-.15-1.38.43-.34.75-.99,1.34-1.65.47-.24-.33-.62-.67-.78-1.13l-.03-1.64Z"/>
    <path class="cls-50" d="M51.4,33.99l3.63-2.51c1.35-2.85,1.38.71,1.38,1.46-.01,1.35-.64,3.24-1.95,3.24-.52-.32-1.64.34-2.22-.23-.54-.53-.94-1.17-.84-1.95Z"/>
    <path class="cls-58" d="M43.5,37.48h1.88c.43.59.71,1.31,1.2,1.85,1,1.11,1.44,2.6,2.27,3.8l-1.15.29-1,.03c-.23-.35-.87-.61-1.03-.96-.56-3.14-4.47-2.65-7.1-2.75-.29-1.88,1.35-2.63,4.92-2.26Z"/>
    <path class="cls-47" d="M10.81,19.68c-.31.5-.77.92-1.1,1.4l-1.99,3.68c.94,2.4.74,4.34-.6,5.82-.16.86-.44.86-.85.05-.61.02-1.37-.3-1.97-.1-1.21-5.05.52-10.05,5.97-12.19.42.03.67.73.55,1.33Z"/>
    <path class="cls-64" d="M9.71,21.09c-2.34,7.55-.37,2.01,1.69,9.24.19,1.27-1.24.94-2.3.51-.09,1.92-1.64,1.49-1.98-.24-1.65-3.39-.83-7.69,2.59-9.51Z"/>
    <path class="cls-11" d="M11.4,30.33c1.95.08,3.87-.76,5.76-.05.72-1.31,1.55-1.3,2.07.12,2.15.23,2.84.88,2.07,1.93-.36.01-.74-.07-1.1-.1-1.54-.12-3.6-.48-5,.46-4.31.7-6.35.08-6.1-1.86.77-.03,1.53-.54,2.3-.51Z"/>
    <path class="cls-80" d="M17.17,28.48c1.4-1.19,3.4-1.26,6-.21,3.81-2.05,3.99,4.57-.93,2.03,0,1.3-1,1.34-3,.1-.64-.16-1.46.11-2.07-.12.08-.58-.14-1.23,0-1.8Z"/>
    <path class="cls-72" d="M19.07,25.41c.73.12,1.09.78,1.07,1.96,1,0,2-.13,3-.18.88.28.88.64.03,1.07l-6,.21c.3-1.21.94-2.29,1.89-3.07Z"/>
    <path class="cls-61" d="M19.07,25.41c.32-.26.4-1.05,1.1-.94.24.04.53.27.75.47-.19.83-.44,1.65-.78,2.44-1.03-.01-1.19-1.15-1.07-1.96Z"/>
    <path class="cls-23" d="M31.51,6.98c2.61-2.94,4.79-3.87,6.54-2.8,1.89-.48,3.09.7,2.24,2.51.19,2.32-.78,2.58-2.89,2.08.61,2.65-1.02,3.05-2.87,1.1-.74.17-1.44.52-1.96,1.07-.67.77-1.29.73-1.86-.12-.08-.61-.43-1.13-.92-1.49.8-.6,1.16-1.55,1.72-2.34Z"/>
    <path class="cls-44" d="M30.71,10.81c.62-.02,1.24.03,1.86.12,3.76-.42-3.77,4.07-4.13,3.92.29-1.56,1.45-2.72,2.27-4.04Z"/>
    <path class="cls-57" d="M27.98,18.04c1.07-.2,9.68-6.94,6.55-8.17,1.01-.23,2.01-.52,2.87-1.1,1.45-.95,2.43-.9,1.87.92,1.81.49-.3,3.4-1.78,3.2.26,1.78-1.97,4.41-3.68,4.81-.14,1.89-.75,3.3-1.84,4.22-.85.12-1.75.56-2.64.44-.94-.12-1.79-.75-2.51-1.31.45-.98.83-1.98,1.15-3.01Z"/>
    <path class="cls-40" d="M22.24,30.3c1.03.57,2.23,1.03,3.07,1.89l-4,.14-2.07-1.93c.9.22,2.16-.44,3-.1Z"/>
    <path class="cls-93" d="M45.94,27.33l.1-1.02c.11-2.58,3.41-2.81,4.08-.17l1.24,5.17c1.45-.38,1.52.32.18,1.12-1.29-.12-2.66-.67-3.97-.31-.03-1.69-1.04-3.21-1.62-4.8Z"/>
    <path class="cls-69" d="M45.9,24.73l.04-1.42c.89-.32,2.02-1.08,3.06-.87,1.49-.99,1.95-.63.94.94,1,.18,1.06.55.2,1.09,2.66.22,2.51.88-.03,1.68l-4.08.17-.13-1.58Z"/>
    <path class="cls-85" d="M33.82,17.7c.86-.4,1.19,0,1.07,1.04.9.6,1.52,1.33,1.2,2.35-.88-.09-2.08,1.45-3.2.83-.22-.12-.65-.03-.91,0-.5-1.71.17-3.49,1.84-4.22Z"/>
    <g>
      <path class="cls-39" d="M29.24,24.17c.59.3.7,0,.66-.53-.04-.53-.24-.97-.55-1.29.47-2.66,1.27-2.82,2.64-.44.25-.94.55-.93.91,0,4.39-.13,8.85.7,13.01,2.82,1.95.23,2.01,1.02.13,1.58.84.37.8.71-.1,1.02.04,2.67-.87,2.6-1.79.11-2.05-.42-2.04-.1.04.97.34,1.54,1.46,2.78,3.37,3.71,1.93.38,1.95,1.19.03,1.64,1.31,2.09,1.4,2.98-1.16,3.64-.33-.07-.71.08-1.05.08.06,2.22-1.34,2.17-1.88,0-2.93.83-4.65.52-5.15-.93-1.23-1.25-2.53-1.43-3.92-.54.93.58,1.95,1.17,3.07,1.76,2.57.22,2.41,1.03.07,2-1.29.87-5.11.68-6.14-.91-.36-.19-.64-.53-1.01-.69l.06-1.15c-.29-.48-.65-.91-1.06-1.28-.8-2.29,1-4,5.4-5.12-3.78-1.55-5.64-3.7-5.58-6.44Z"/>
      <g>
        <path class="cls-49" d="M47.59,33.76c1.14-.82,1.67-.25,2.43.66-.71,1.01.23,1.93.47,2.95-1.34.34-2.72.3-4.06.03.17-1.27.43-2.56,1.16-3.64Z"/>
        <path class="cls-70" d="M23.17,28.27l-.03-1.07c1-.2,2.03-.58,2.57-1.63.37-.72-.07-1.38-.4-2.12,1.09-.43,2.99-.11,3.93.73,2.72,2.41,5.83,4.26,9.54,6.52-3.63,2.82-6.99,2.55-9.36,5.05-1.32.21-2.64.41-3.97.46l-.1-3-.03-1c-1.99-.16-3.01-.79-3.07-1.89.4.03,1.6.2,1.9-.53.17-.4-.85-1.01-.97-1.5Z"/>
        <path class="cls-62" d="M44.19,28.42c-.88-.24-.89-.56-.04-.97l1.79-.11c2.92-.88,3.83,3.27,1.62,4.8-1.78.49-3.71.89-5.48,1.84-1.53-2.97.91-3.93,2.11-5.55Z"/>
        <path class="cls-74" d="M36.09,21.08c.73-1.85,3.42-.48,4.85.64,1.52.33,3.22,2.24,5.01,1.59,1.93.28,1.89,1.06-.04,1.42-2.75.46-5.16-.95-8.06-1.98-1.63-.58-4.32.96-4.96-.84-.22-1.89.84-2.17,3.2-.83Z"/>
        <path class="cls-30" d="M37.51,37.77c-1.12-.76-.84-1.16.85-1.22,1.76,0,3.55.15,5.15.93l-4.92,2.26c-.33-.01-.68.08-1,.03l-.07-2Z"/>
        <path class="cls-51" d="M35.06,25.82c.33-1.05,1.24-1.45,1.61-1.83.56-.58,1.72.37,1.71,1.1,0,.54-.08,1.38-.87,1.81-.42.23-.43-.31-2.45-1.08Z"/>
        <path class="cls-1" d="M38.35,36.55c-1.25.84-3.23.88-3.92-.54.11-.92,1.34-1.67,2.48-1.94,1.07-.26,1.29,1.59,1.43,2.48Z"/>
        <path class="cls-53" d="M34.44,36.02c1.32.07,2.62.3,3.92.54.07.42-.86.82-.85,1.22-.69-.01-1.44.16-2.46.07-.66-.06-.7-1.1-.61-1.83Z"/>
        <path class="cls-94" d="M44.15,27.45l.04.97c-.62.2-1.22.35-2.4.27-.74-.05.21-3.4,1.13-2.6.42.36.77,1.09,1.23,1.36Z"/>
      </g>
    </g>
    <path class="cls-95" d="M6.27,30.64c.28,0,.58-.08.85-.05l1.98.24c2.3,2.69,7.02-.62,6.1,1.86-1.57,1.06-3.12,1.31-5.34,1.01-1.67-.23-3.36-.84-3.6-3.07Z"/>
    <path class="cls-36" d="M112.27,1.15c1.72-.26,3.5.09,5.08.82.42.98.59,4.14-.86,4.14l-8.09.03c-2.9,2.52-4.45-1.44-5.09-3.68.5-3.39,6.58-2.71,8.96-1.31Z"/>
    <path class="cls-20" d="M101.36,7.53c1.22-.9,1.48-1.54,1.02-3.04-.4,1.77-1.33,1.69-1.71-.18-.91-.08-.97-.4-.2-.94-.52-.77-.29-1.05.64-.86.61-.04,1.67.23,2.2-.05l5.09,3.68c-1.15,1.16-2.52,2.52-3.99,3.27s-3.41.9-4.78,2.07c-.38,1.74-.62,2.69-1.96,1.19-2.49,2.1-4.2.13-1.73-2.28-2.23-4.31,1.92-3.57,5.42-2.85Z"/>
    <path class="cls-14" d="M114.23.08c.97.4,2.71.94,3.12,1.89-1.75.19-3.7.45-5.08-.82l1.96-1.07Z"/>
    <path class="cls-41" d="M53.93,22.16c.31-.62.65-.61,1.04,0,1.12-.33,1.49-.21,1.03.96,1.44,1.19,3.52,1.88,5.19.82.59-2.64,2.2-3.1,4.67-2.73.76-1.67,6.72-3.02,7.09-.59l.97-.14c.88.25.88.59.03,1-.48,2.04-4.9,3.15-7,3.25-1.08.73-3.28-.25-4.58,1.05-.97.97-1.47,2.28-1.08,3.93-1.11.3-2.16.88-3.59,1-.84-1.57-1.49-2.83-2.54-3.75-2.52-.28-2.45-1.18-.85-2.96-1.3.65-1.98-.15-1.06-1.25-.42-.85-.19-1.04.68-.6Z"/>
    <path class="cls-90" d="M50.15,24.46c.76-1.08,2.91-.73,4.17-.45.72.82.97,1.84.85,2.96-1.31-.54-1.78,1.1-1.93,2.03s.12,2.01.25,3c.02,1.93-.79,1.94-1.95.43l-.18-1.12-1.24-5.17.03-1.68Z"/>
    <path class="cls-73" d="M51.53,32.43c.61.05,1.34-.35,1.95-.43.53-.08,1.02-.41,1.55-.52.04.92,1.12,3.48-.45,3.65-1.35.15-2.19-1.58-3.18-1.14.1-.51.21-1.05.13-1.56Z"/>
    <path class="cls-91" d="M73.96,21.49c.76-.99,3.17-1.12,4-.14.68-.33,1-.01,1.03.83l-7.92,2.41-3.19,1.19-.92-1.04c2.17-1.48,4.62-2.15,7-3.25Z"/>
    <path class="cls-54" d="M40.3,6.69c-.3-1.91.46-1.97,1.13-.07-.2,1.24.39,2.74-.58,3.77-1.12,1.53-1.94,1.17-1.57-.7-.66-.21-1.23-.67-1.87-.92.76-.95,1.75-1.66,2.89-2.08Z"/>
    <path class="cls-15" d="M38.05,4.18l1.55-.74c.87,0,2.06-.05,2.71.74.69.84-.77,1.69-.89,2.44l-1.13.07c-.81-.78-1.65-1.55-2.24-2.51Z"/>
    <path class="cls-37" d="M37.5,12.89c1.8-1.12,2.29-.45.91,1.22.94,1.79.08,4.69-2.31,3.61,1.13,1.69.48,2.2-1.2,1.02-.39-.32-.74-.67-1.07-1.04.51-2.07,2.7-3.04,3.68-4.81Z"/>
    <path class="cls-28" d="M39.27,9.69c.59.18,1.1.28,1.57.7.56.38.74.57.09,1.01-.88.6-1.44,1.55-1.47,2.62.21,2.11-.53,2.25-1.06.08-.06-.55-.47-.93-.91-1.22l1.78-3.2Z"/>
    <path class="cls-6" d="M50.12,26.14c1.27,1.41.95,3.41,1.24,5.17-1.89-.83-1.02-3.42-1.24-5.17Z"/>
    <path class="cls-19" d="M53.79,19.44c1.02-.1,1.39.14,1.11.71,1.49.76.35,1.38-.97,2-.18.2-.54.33-.68.6.1,1.63-2.16,1.38-3.31.62-.21-.38-.67-.6-.94-.94,1.39-1.17,2.98-2.44,4.79-3Z"/>
    <path class="cls-88" d="M53.25,22.76c.88-.15.72.86,1.06,1.25-.78,1.66-2.73.22-4.17.45,0-.32-.05-.81-.2-1.09l3.31-.62Z"/>
    <path class="cls-46" d="M93.44,6.4l7.23-2.09c.58-.06,1.14.17,1.71.18,1.59,1.16.62,2.27-1.02,3.04-.44.58-.66,1.84-1.45,2-1.3.26-2.09-1.47-3.04-1.75-.85.92.31,1.9.38,2.6.08.82-.87,1.45-1.61,1.91.93.82,1.54.34,2.02.38-.35.62-1.01,2.1-1.93,2.07-2.52-.19-3.5-.85-2.93-1.98-.61-.72-.35-1.01.67-.92.39-1.6,0-2.57-1.19-2.93-.71.58-.91.37-.63-.56-.48-1.47,1.34-1.36,1.78-1.94Z"/>
    <path class="cls-79" d="M100.47,3.36l.2.94c-1.91,1.87-4.62,2.9-7.23,2.09,1.1-1.72,5.33-1.67,7.02-3.03Z"/>
    <path class="cls-48" d="M102.38,4.49c.67.01,1.06.53,1.59.95.84.66-.13,1.15-.55,1.51-.53.45-1.46.25-2.06.58.62-.9.94-1.95,1.02-3.04Z"/>
    <path class="cls-9" d="M81.99,18.3c-.53-2,2.42-2.15,3.69-1.17-1.7-2.48,5.97-7.48,7.13-4.38,1.05.55,2.05,1.18,2.93,1.98-3.22-.13-6.64,1.25-7.83,4.38-.74-.39-1.51.78-2.07.92-1.88.41-4.79,1.52-6.85,2.15-.32-.31-.66-.58-1.03-.83.66-.98,2.01-2,4.03-3.05Z"/>
    <path class="cls-8" d="M54.9,20.16c7.88-4.85,18.18-4.93,26.85-4.64,2.28-1.96,7.12-2.24,3.92,1.61-.95.88-2.5.91-3.69,1.17-2.15,1.86-5.3,3.1-8.07,2.19l-.97.14-.83-1.46c-3.22,1-6.03,1-8.44,0-.96,2.78-3.25,3.72-5.75,1.89.83,1.89-1.4,1.58-2.96,1.1h-1.04s.97-2,.97-2Z"/>
    <path class="cls-60" d="M63.68,19.16c3.93-.05,11.29-3.08,15.28-1.31-2.5,1.52-5.14.53-6.01,2.78-2.39-.12-4.69.84-7.09.59-3.01,2.33-6.03-.37-2.18-2.05Z"/>
    <path class="cls-71" d="M63.68,19.16c-.63.87-.45,1.26.13,1.39,1.03.23,1.45.6,2.05.66-.92,1.71-2.73,2.67-4.67,2.73-.38.48-.75.52-1.16.04-2.58-.99-3.28-1.96-2.1-2.93,1.84-.84,3.68-1.87,5.75-1.89Z"/>
    <path class="cls-5" d="M81.99,18.3c-.36,1.84-2.5,2.16-4.03,3.05-1.06.62-2.88-.38-4,.14l-.03-1c2.77-.39,5.45-1.24,8.07-2.19Z"/>
    <path class="cls-10" d="M57.94,21.05l2.1,2.93c-.94,1.06-2.97.16-4.03-.86-.18-.39-.8-.59-1.03-.96.85-.69,2.02-.67,2.96-1.1Z"/>
    <path class="cls-8" d="M60.04,23.98l1.16-.04c-.31,1.3-2.1,1.23-3.45,1.01-.73-.12-1.37-.93-1.75-1.83l4.03.86Z"/>
    <path class="cls-12" d="M57.81,16.91c2.69.2,5.45-1.76,7.92-1.89l13.98-.73c.84-.58,1.51-.61,2-.07,1.94.02,1.95.79.05,1.3-4.17,1.89-8.96.34-13.72,1.36-4.69,1.01-8.87,2.59-13.13,3.28-.39.06-1.45-.11-1.11-.71,1.46-.45,2.88-1.7,4.02-2.54Z"/>
    <path class="cls-34" d="M90.97,8.37c.23.02.46-.03.69-.03.19.21.4.4.63.56,1.49.26,1.82,1.62,1.19,2.93-.24.29-.47.6-.67.92-2.83.65-5.03,2.45-7.13,4.38,0-1.07-.63-1.9-1.5-1.73s-1.75-.18-2.43.12l-.05-1.3c2.94-1.94,6.03-3.89,9.26-5.85Z"/>
    <path class="cls-78" d="M85.63,9.93c1.91-.11,3.37-1.7,5.34-1.57-1.74,2.99-5.79,5.2-9.26,5.85-.64.12-1.34.04-2,.07,1.73-1.96,5.05-1.47,5.92-4.36Z"/>
    <path class="cls-33" d="M92.29,8.9c.58-1.71,1.97-.27,2.24.5.37,1.08-.07,2.31-1.05,2.43-.66-.85-1.03-1.87-1.19-2.93Z"/>
  </g>
</svg>