<?xml version="1.0" encoding="UTF-8"?>
<svg id="Enemy" xmlns="http://www.w3.org/2000/svg" viewBox="0 0 54.21 118.33">
  <defs>
    <style>
      .cls-1 {
        fill: #551d90;
      }

      .cls-2 {
        fill: #97173c;
      }

      .cls-3 {
        fill: #bb957f;
      }

      .cls-4 {
        fill: #401953;
      }

      .cls-5 {
        fill: #390b6f;
      }

      .cls-6 {
        fill: #926ca4;
      }

      .cls-7 {
        fill: #f4d9c9;
      }

      .cls-8 {
        fill: #3e0e76;
      }

      .cls-9 {
        fill: #271146;
      }

      .cls-10 {
        fill: #7b43b4;
      }

      .cls-11 {
        fill: #b49683;
      }

      .cls-12 {
        fill: #270c4c;
      }

      .cls-13 {
        fill: #2e0f24;
      }

      .cls-14 {
        fill: #010101;
      }

      .cls-15 {
        fill: #a2897a;
      }

      .cls-16 {
        fill: #230e42;
      }

      .cls-17 {
        fill: #3c0971;
      }

      .cls-18 {
        fill: #962143;
      }

      .cls-19 {
        fill: #37185f;
      }

      .cls-20 {
        fill: #111212;
      }

      .cls-21 {
        fill: #121212;
      }

      .cls-22 {
        fill: #272727;
      }

      .cls-23 {
        fill: #d5aa96;
      }

      .cls-24 {
        fill: #170d29;
      }

      .cls-25 {
        fill: #2d2d2d;
      }

      .cls-26 {
        fill: #32104f;
      }

      .cls-27 {
        fill: #552525;
      }

      .cls-28 {
        fill: #9f8373;
      }

      .cls-29 {
        fill: #160035;
      }

      .cls-30 {
        fill: #18042b;
      }

      .cls-31 {
        fill: #f6d4cd;
      }

      .cls-32 {
        fill: #b38e7c;
      }

      .cls-33 {
        fill: #2f1549;
      }

      .cls-34 {
        fill: #340d64;
      }

      .cls-35 {
        fill: #f1c09a;
      }

      .cls-36 {
        fill: #1c1c1c;
      }

      .cls-37 {
        fill: #987d6b;
      }

      .cls-38 {
        fill: #b08d7b;
      }

      .cls-39 {
        fill: #30085c;
      }

      .cls-40 {
        fill: #c49473;
      }

      .cls-41 {
        fill: #2f045e;
      }

      .cls-42 {
        fill: #603e39;
      }

      .cls-43 {
        fill: #c6b1a5;
      }

      .cls-44 {
        fill: #fae7de;
      }

      .cls-45 {
        fill: #c9b8a6;
      }

      .cls-46 {
        fill: #211d24;
      }

      .cls-47 {
        fill: #6d0c1f;
      }

      .cls-48 {
        fill: #212121;
      }

      .cls-49 {
        fill: #472c37;
      }

      .cls-50 {
        fill: #450d7f;
      }

      .cls-51 {
        fill: #5f289d;
      }

      .cls-52 {
        fill: #71515f;
      }

      .cls-53 {
        fill: #360870;
      }

      .cls-54 {
        fill: #cea28d;
      }

      .cls-55 {
        fill: #c29a81;
      }

      .cls-56 {
        fill: #eed3c2;
      }

      .cls-57 {
        fill: #f4e4cf;
      }

      .cls-58 {
        fill: #f4c2ac;
      }

      .cls-59 {
        fill: #030303;
      }

      .cls-60 {
        fill: #662ea5;
      }

      .cls-61 {
        fill: #936452;
      }

      .cls-62 {
        fill: #501884;
      }

      .cls-63 {
        fill: #35125f;
      }

      .cls-64 {
        fill: #e68f94;
      }

      .cls-65 {
        fill: #230d45;
      }

      .cls-66 {
        fill: #1c1b1f;
      }

      .cls-67 {
        fill: #3f0878;
      }

      .cls-68 {
        fill: #101011;
      }

      .cls-69 {
        fill: #452a36;
      }

      .cls-70 {
        fill: #f5e6cf;
      }

      .cls-71 {
        fill: #40077d;
      }

      .cls-72 {
        fill: #d6ac8a;
      }

      .cls-73 {
        fill: #632aa3;
      }

      .cls-74 {
        fill: #291240;
      }

      .cls-75 {
        fill: #7034b0;
      }

      .cls-76 {
        fill: #000100;
      }

      .cls-77 {
        fill: #2f0b5b;
      }

      .cls-78 {
        fill: #321b4f;
      }

      .cls-79 {
        fill: #121514;
      }

      .cls-80 {
        fill: #feebc8;
      }

      .cls-81 {
        fill: #321c35;
      }

      .cls-82 {
        fill: #320c5e;
      }

      .cls-83 {
        fill: #301b51;
      }

      .cls-84 {
        fill: #220e41;
      }

      .cls-85 {
        fill: #ad8c80;
      }

      .cls-86 {
        fill: #35066a;
      }

      .cls-87 {
        fill: #bfaba0;
      }

      .cls-88 {
        fill: #491779;
      }

      .cls-89 {
        fill: #c8ac9a;
      }

      .cls-90 {
        fill: #38086b;
      }

      .cls-91 {
        fill: #20133c;
      }

      .cls-92 {
        fill: #dfb09b;
      }

      .cls-93 {
        fill: #92757e;
      }

      .cls-94 {
        fill: #37086d;
      }

      .cls-95 {
        fill: #6e1e26;
      }
    </style>
  </defs>
  <g id="RedRowRonda">
    <path class="cls-77" d="M10.96,70.06c2.13,1.92-.24,6.83-2.87,6.93-.86,2.28-1.11,6.15,1.53,7.2,1.33.33,1.42,3.97.28,4.84,1.8,2.52-1.77,3.7-4,4l-1.4.05-.37-5.05c-.44-.33-.44-.67,0-1l-2.02-.8c.98-1.14,1.63-2.89,1.94-5.22,1.21-3.58,2.88-7.03,3.68-10.73-.63-1.66.1-1.99,1.16-.4.24-2.51,1.66-2.49,2.07.18Z"/>
    <path class="cls-22" d="M8.9,110.04c1.82-.01,1.22.9,0,2,2.56.7,1.82,2.33-2.22,4.9-1.94,1.33-4.24,1.49-6.58,1.19-1.15-3.99,8.13-2.97,6.78-13.08,1.26.56,1.94,2.23,2.02,5Z"/>
    <path class="cls-68" d="M5.9,95.04c2.93,1.15,6.95,6.91,2,7-.23,2.38-1.11,2.15-2,0,.41-1.37-.9-2-1.13-3.01-.3-1.32-.37-4.74,1.13-4.99.83.3.82.64,0,1Z"/>
    <path class="cls-59" d="M7.9,102.04c1.57.16,2.11,1.77,1.62,4.83,1.54,1.54,1.66,2.55-.62,3.17l-2.02-5c-.28-.7-1.21-2.24-.98-3h2Z"/>
    <path class="cls-89" d="M18.81,24.74c.87.15.79.72.08,1.3-.56,1.12-.63,1.95,0,3,.7.29.62.59-.15.9.47.85.23,1.18-.72.99-.66.85-1.36,1.22-2.13,1.11-2.19.01-2.21-2.62-1.01-4.19.72-.2.74-1.56.78-2.15.03-.42.2-.89.28-1.33.98-.1,1.99-.12,2.87.36Z"/>
    <path class="cls-21" d="M13.9,99.04c.96.92.29,4.3-1,5,1.18,1.2,1.85,3.2,2,6,2.91.76,2.51,1.55,0,3l-1.54.44c-4.67-.58-.98-2.92-.7-2.45.48.79-1.31,2.27-1.76.01-1.28-1.43-.94-2.76,1-4-.75-.68-1.08-2.35-1-5-1.34-1.69-2.27-6.13,1-7,.26-.91.6-.89,1,0,.44,1.17.77,2.5,1,4Z"/>
    <path class="cls-48" d="M13.36,113.48c.9,4.35-2.8.8-6.68,3.46-.69-1.99,2.69-2.66,2.22-4.9.45-1.69.82-2.7,2-1,.54.42.82.12,1.53-1.01.85.93.5,2.31.92,3.44Z"/>
    <path class="cls-75" d="M17.82,64.24c.85,1.45-.07,3.73-1.87,3.95,2.13,1.89,1.59,1.99-1.12,1.7.88,1.12.17,2.51-2.11,4.17,1.46.87-1.05,4.38-2.14,5.73-3.52,4.35-4.52,1.17-2.5-2.78,1.61-1.76,2.23-4.78,2.87-6.93-.76-2.63,2.36-7.03,5.09-7.11.33-.85.64-.78.94.13.95-.3,1.19.12.82,1.16Z"/>
    <path class="cls-86" d="M17.02,72.04c1.94-.01,1.88.76-.1,1.16.77,2.25-2.81,6.1-5.02,6.75-.5,1.63-1.26,3.04-2.28,4.24-.79.15-1.64,1.12-2.41,1.35-2.82-2.89-1.16-6.33.88-8.55.06,1.11-.46,2.3.49,3.7l4.14-6.64c1.53-2.81,2.96-3.48,4.3-2.01Z"/>
    <path class="cls-63" d="M15.82,61.15c1.7-.5,1.48.85.24,1.81-1.39,2.57-3.04,5.03-5.09,7.11l-2.07-.18c-3.05.61,6.61-11.25,5.15-8.7,1.16-1.37,1.75-1.39,1.78-.04Z"/>
    <path class="cls-82" d="M11.9,92.04c.87.28.86.62,0,1-.33,1.94-4.46,1.82-6,1-.04-.33.02-.67,0-1,.7-1.98,2.57-2.65,4-4,1.03-.21,1.7.79,2,3Z"/>
    <path class="cls-29" d="M12.17,81.26c1.55,2.41,1.45,6.56-.27,8.78,1.7.63,1.75,1.47,0,2-.68-.89-1.53-1.99-2-3-.39-1.49.32-3.37-.28-4.84-.91-2.29,1.8-2.95,2.28-4.24,1.8-.53,1.67.07.27,1.3Z"/>
    <path class="cls-26" d="M21.81,49.67c1.84-.36,1.99.41.38,1.39-.97.88-1.73,1.88-2.29,2.98,1.28,2.22-1.2,3.22-3.03,2.2-.35-.75-.21-2.47-.03-3.27.22-.97,1.01-1.83.98-2.89.24-.82.59-.81,1.03-.04.43-3.01,1.35-3.06,2.96-.37Z"/>
    <path class="cls-83" d="M15.82,61.15l-1.78.04,2.83-4.95c3.74-.83,1.2,5.18-1.05,4.91Z"/>
    <path class="cls-66" d="M11.9,95.04c0,2.48,0,4.77-1,7-.27,2.91.06,4.58,1,5,1.45,1.75-.58,2.25-1,4l-2,1v-2c.32-2.66-.3-5.47-1-8,3.56-5.39-.49,1.63-2-7,1.77-.69,4.52-1.15,6,0Z"/>
    <path class="cls-16" d="M11.9,93.04c1.54.01,1.29,1.29,0,2-1.94.78-3.99.3-6,0-.15-.21.04-.72,0-1l6-1Z"/>
    <path class="cls-87" d="M13.9,45.04c1.22,1.28.67,1.71-1,1-.82.16-1.16-.18-1-1,.78-1.61,2-3.17,2-5-1.25-.38-1.45-4.4,0-5,.67-.09.84-1.3,1-2,.28-.87.62-.86,1,0,1.1,3.34.56,9.15-2,12Z"/>
    <path class="cls-42" d="M5.79,49.03c2.9-.48,3.86.28,2.87,2.29-1.29,1.79-4.85,3.73-6.82,1.77-.13-1.54,2.65-3.59,3.94-4.06Z"/>
    <path class="cls-38" d="M15.78,48.88c-2.18.25-3.87,1.73-5.88,2.43-2.08-2.22,1.07-3.34,3.25-3.11.09-1.9,2.29-3.14,3.88-2.14,1.46.78.67,3.5-1.24,2.82Z"/>
    <path class="cls-92" d="M12.9,47.04c1.76-.61,1.81.05.25,1.15-1.23.79-2.45,1.87-3.25,3.11-.41.04-.83.05-1.24.01-.78-.98-1.98-1.44-2.87-2.29l2.97-1.09c1.7-1.67,3.08-1.97,4.14-.89Z"/>
    <path class="cls-32" d="M12.9,46.04c.87.28.86.62,0,1-1.34.48-2.83.41-4.14.89.66-1.31,1.85-2.22,3.14-2.89.45.19.8.56,1,1Z"/>
    <path class="cls-7" d="M36.55,9.85c1.32-.86,1.82-.33,1.36,1.15,2.73-1.3,2.97-1.05,2.16,1.89-5.39.16-1.42,8.2-7.74,8.75-.89-.06-.87-.31-.03-.73-.86-.45-.99-1.07-.41-1.86-1.66.93-2.66.27-3-2-.37,1.91-1.26,1.85-1.8-.07-1.21-1.18-.9-4.62.15-5.76.53-4.33,6.61-4.6,9.3-1.37Z"/>
    <path class="cls-18" d="M42.86,8.16c-.06.65-.07,1.31-.09,1.96-.86.87-1.17,2.73-2.69,2.77-.57-.8-1.36-1.36-2.16-1.89-.48-4.51-5.69-6.73-9.88-5.72l-.74-1.17c-1.97,1.52-2.24,1.02-1.4-1.28.88-.41,1.8-1.72,2.96-1.78,5.49-3.22,12.16,1.49,14,7.11Z"/>
    <path class="cls-27" d="M46.89,26.13c2.71.78,3.02,2.57.71,4.2,1.45,2.41.35,3.02-1.52.87-.99.82-2.3.02-3.96-2.41-2.48.79-2.88-2.56-.36-2.81.43-.55.76-1.16,1.07-1.78,1.73-.73,2.72.92,4.05,1.93Z"/>
    <path class="cls-45" d="M41.76,25.98c-.7.89-.51,2.13.36,2.81,1.52,1.54,2.78,2.96,3.77,4.26,2.49-1.12,3.02.17,1,2,.34,3.45-1.08,2.63-3.42.91-2.05-1.51-7.16-5.78-4.52-7.74-1.72-1-1.99-1.84.09-2.18l2.71-.06Z"/>
    <path class="cls-3" d="M32.31,20.91l.03.73,1.31,3.71c-1.05,5.02-7.72.32-3.67-2.3-.84-.73-.85-2.22-.07-3.01,1.07-.69,2.21-.4,2.41.86Z"/>
    <path class="cls-43" d="M39.05,26.03l-.09,2.18c-2.1,1.96-2.91,1.62-2.97-1.25-1.62.25-1.68-1.44-.09-1.92,1.12-.08,2.13,1.01,3.15.99Z"/>
    <path class="cls-81" d="M35.9,25.04l.09,1.92c1.89,1.89,1.15,2.68-1.4,2.46-.03,3.57-3.4,2.69-1.81-.17-1.76-1.69-1.47-3.15.86-3.9.62-.25,1.58-.26,2.26-.3Z"/>
    <path class="cls-13" d="M20.9,25.04c2.71,1.08,2.84,2.49.32,3.98.14,1.09-.3,1.43-1.32,1.02-.87-1.16-.76-4.4,0-6l1-1c2.09.02,2.06,1.59,0,2Z"/>
    <path class="cls-35" d="M24.9,21.04c1.35.07,1.35,1.4,0,4-.28.87-.62.86-1,0-1.84.11-2.04-1.83-1-3-.61-.38-.77-.72-.14-1.23.73-.36,1.49-.65,2.28-.86l-.14,1.1Z"/>
    <path class="cls-55" d="M23.9,25.04c-.06,2.86-2.32,2.73-3,0v-2c.77-.09,1.55-.34,2-1,1,.62,1.13,1.93,1,3Z"/>
    <path class="cls-4" d="M19.9,30.04c.02,1.94-.75,1.88-1.15-.1.11-.24.15-.63.15-.9-1.06-.97-1.66-2.52,0-3l-.08-1.3c.29-.33.79-.4,1.08-.7v6Z"/>
    <path class="cls-56" d="M18.02,30.94l-1.13,6.11c.86.24.83.58,0,1,1.09,3.46,1.45,9-3,7,1.31-3.78,2-7.99,2-12v-1c.29-.4.77-.69,1.07-1.39.33-.75.78-.7,1.05.28Z"/>
    <path class="cls-31" d="M18.9,26.04v3c-.66-.3-1.79-.9-1.98-1.56-.43-1.49.99-1.69,1.98-1.44Z"/>
    <path class="cls-2" d="M25.9,2.83c.43.35,1.22.69,1.4,1.28,2.75.31,2.54,1.43-.17,1.97-2.28,2.88-2.66,5.13-2.37,8.86-.97-.4-3.25.76-3.56-.45-.33-1.33-.41-3.05-.16-4.21.71-3.23,1.24-7.02,4.86-7.45Z"/>
    <path class="cls-25" d="M11.9,107.04c.18.33-.27,1.14-.47.96s-1.46-1.04-1.37-1.32c.46-1.36.3-3.41.84-4.64,2.29.53.07,3.88,1,5Z"/>
    <path class="cls-76" d="M13.9,99.04c-.77-1.16-1.39-2.49-1-4-.44-.88-.07-1.18,1-1v5Z"/>
    <path class="cls-24" d="M13.9,94.04c-.35.32-.69.65-1,1-.31.07-.71-.12-1,0v-3c.23.23.99.05,1.37.25.66.35.63,1.08.63,1.75Z"/>
    <path class="cls-17" d="M29.08,55.07c.24,1.92-.75,3.94-2.96,6.03.42.48.73.91.63,1.21-.21.6-7.19,9.74-7.79,9.95-.65.23-1.33.04-1.94-.22-1.36.09-2.19-.76-2.19-2.16.42-.29.91-1.23,1.12-1.7,1.11-.33,2.12-1.69,3.05-4.09-.18-.99.04-2.4,1.12-2.78.18-.06-1.52,2.71-3.13,1.76l-.94-.13-.24-1.81c1.55-1.32,2.22-3.25,1.05-4.91.54-.95,2.34-1.17,3.03-2.2,1.27,1.46,3.77,2.33,4.67.73-1.8.1-2.06-.59-.46-1.57,1.38-2.54,8.82-1.44,4.97,1.86Z"/>
    <path class="cls-50" d="M19.01,64.1c-.29.92-.69.97-1.19.14-.24-.41-.51-.8-.82-1.16,1.06-1.27,1.5-2.85,2.24-4.85.4-1.07,3.3-1.42,3.74-.41,1.39,3.16-1.4,5.42-3.97,6.28Z"/>
    <path class="cls-67" d="M15.95,68.18c.58-1.3,1.01-2.76,1.87-3.95.38-.1.82-.01,1.19-.14.08,1.56.12,3.14-1.28,4.88-.82.06-1.32-.52-1.78-.8Z"/>
    <path class="cls-67" d="M17.02,72.04c-1.55.43-3.03.95-4.3,2.01.69-1.1.95-3.36,2.11-4.17.69.02,1.53.12,2.01.79.25.35.22.92.18,1.37Z"/>
    <path class="cls-65" d="M30.9,66.93c.67,1.61.39,1.99-1.08.88-1.53.5-2.2-.32-2.95-1.49l-5.6,7.98-2.41-.48c-.99.69-1.64.48-1.94-.63l.1-1.16c3.51-.97,5.69-8.15,9.1-10.93,2.6-5.54,7.71,3.54,4.78,5.83Z"/>
    <path class="cls-84" d="M18.87,73.83c1.77,2.78-.32,6.28-3.62,5.52.06,3.09-.43,3.73-3.08,1.91l-.27-1.3c1.02-2.74,3.29-4.32,5.02-6.75.2-.28,1.21-.14,1.61-.31.28-.12.56.5.34.94Z"/>
    <path class="cls-52" d="M24.19,47.29c2.83.84,2.68,2.16-.45,3.96-.63,1.92-1.38,1.82-1.56-.19.48-.64.18-.97-.38-1.39-.74-.37-1.31-1.04-.41-1.67.33-.23.69-.6,1.16-.74l1.64.03Z"/>
    <path class="cls-50" d="M22.19,51.06l2.38,3.72c2.8,1.45-.75,1.36-1.5,1.32-1.35-.06-3.21-.75-3.17-2.06.34-.5-.28-1.65.31-2.21.55-.52,1.21-.89,1.98-.77Z"/>
    <path class="cls-58" d="M18.98,43.04l-.07,1.88c-.6.41-1.33.66-1.89,1.13-1.15.96-2.65,1.35-3.88,2.14l-.25-1.15v-1c.36-.21.64-.85,1-1,3.15-.45,2.8-4.37,3-7,1.89-.22,2.58,1.44,2.08,5Z"/>
    <path class="cls-47" d="M37.91,11c-.49-.33-.89-.8-1.36-1.15l-3.61-2.12c-2.43.86-4.37.59-5.8-.8-.86-.19-.84-.47-.02-.86,0-.61.35-1.36.17-1.97,5.09-1.04,10.02.87,11.97,6.39-.04.41-.76.65-1.35.5Z"/>
    <path class="cls-64" d="M36.55,9.85c-7.47-2.6-2-.44-9.3,1.37-1.27.15-.9-1.28-.43-2.31-1.91-.16-1.43-1.69.31-1.97,3.45-1.53,7.72-.56,9.41,2.92Z"/>
    <path class="cls-11" d="M27.25,11.22c-.14,1.94.62,3.89-.15,5.76,1.29.77,1.25,1.59-.2,2.07-.31,2.14-.97,2.81-2,2,0-.36.1-.74.14-1.1.18-1.54.61-3.58-.29-5.01-.55-4.34.14-6.35,2.07-6.03,0,.77.48,1.55.43,2.31Z"/>
    <path class="cls-80" d="M28.9,17.05c1.14,1.44,1.14,3.44,0,6,1.92,3.88-4.71,3.83-2-1-1.3-.05-1.3-1.05,0-3,.18-.64-.06-1.46.2-2.07.58.1,1.24-.09,1.8.07Z"/>
    <path class="cls-72" d="M31.9,19.05c-.15.73-.82,1.06-2,1-.04,1,.06,2.01.07,3.01-.31.87-.67.86-1.07,0v-6c1.19.34,2.25,1.02,3,2Z"/>
    <path class="cls-61" d="M31.9,19.05c.25.33,1.04.43.91,1.13-.05.24-.29.52-.5.74-.83-.22-1.63-.5-2.41-.86.05-1.03,1.19-1.15,2-1Z"/>
    <path class="cls-23" d="M49.89,32.12c2.85,2.71,3.7,4.92,2.57,6.64.41,1.9-.81,3.07-2.59,2.15-2.33.11-2.55-.87-1.97-2.96-2.67.52-3.01-1.12-.99-2.91-.14-.74-.47-1.45-1-2-.75-.7-.68-1.32.19-1.85.61-.06,1.14-.39,1.52-.87.57.83,1.51,1.22,2.28,1.8Z"/>
    <path class="cls-44" d="M46.08,31.19c0,.62-.07,1.24-.19,1.85.28,3.77-3.93-3.91-3.77-4.26,1.55.34,2.67,1.55,3.96,2.41Z"/>
    <path class="cls-57" d="M38.96,28.21c.17,1.08,6.6,9.92,7.94,6.83.19,1.01.45,2.02.99,2.91.9,1.49.81,2.46-.98,1.83-.56,1.79-3.39-.42-3.14-1.89-1.79.2-4.34-2.13-4.68-3.84-1.89-.2-3.27-.87-4.15-1.98-.09-.86-.49-1.77-.35-2.65.16-.94.82-1.76,1.4-2.46.96.48,1.95.9,2.97,1.25Z"/>
    <path class="cls-40" d="M26.9,22.04c-.6,1.01-1.1,2.19-2,3v-4l2-2c-.25.89.37,2.17,0,3Z"/>
    <path class="cls-93" d="M29.04,45.83l1.02.13c2.57.2,2.69,3.51.02,4.09l-5.21,1.05c.32,1.46-.37,1.51-1.13.14.16-1.29.76-2.64.45-3.96,1.69.03,3.24-.92,4.85-1.46Z"/>
    <path class="cls-69" d="M31.64,45.89l1.42.09c.29.9,1.01,2.06.76,3.09.94,1.52.57,1.97-.97.91-.22.99-.58,1.04-1.09.17-.31,2.66-.97,2.48-1.68-.09l-.02-4.09,1.58-.08Z"/>
    <path class="cls-85" d="M39.09,34.06c.37.87-.04,1.19-1.08,1.04-.63.88-1.38,1.47-2.39,1.11.12-.87-1.38-2.13-.72-3.22.13-.22.06-.65.03-.91,1.73-.44,3.48.29,4.15,1.98Z"/>
    <g>
      <path class="cls-39" d="M32.78,29.25c-.32.58-.03.7.51.68.53-.02.97-.21,1.31-.51,2.64.57,2.78,1.37.35,2.65.93.28.91.58-.03.91-.03,4.39-1.01,8.82-3.27,12.91-.3,1.94-1.09,1.98-1.58.08-.4.83-.74.77-1.02-.13-2.67-.05-2.56-.96-.05-1.79.5-2.03.17-2.03-.97,0-1.56.29-2.83,1.37-3.83,3.24-.45,1.92-1.26,1.9-1.64-.03-2.13,1.24-3.02,1.3-3.6-1.28.08-.33-.06-.71-.04-1.05-2.22-.02-2.12-1.42.07-1.88-.73-2.96-.36-4.67,1.11-5.11,1.29-1.18,1.52-2.48.67-3.9-.61.91-1.24,1.91-1.87,3.01-.3,2.56-1.11,2.37-2,0-.83-1.32-.5-5.13,1.13-6.11.2-.35.55-.63.72-.99l1.15.1c.49-.27.93-.61,1.32-1.02,2.32-.72,3.96,1.14,4.93,5.57,1.68-3.73,3.89-5.51,6.63-5.35Z"/>
      <g>
        <path class="cls-49" d="M22.56,47.26c.78,1.17.19,1.67-.75,2.41-.98-.74-1.94.16-2.96.37-.29-1.35-.21-2.73.11-4.06,1.27.21,2.54.52,3.6,1.28Z"/>
        <path class="cls-70" d="M28.9,23.04h1.07c.16,1.01.5,2.05,1.54,2.63.71.39,1.38-.02,2.13-.33.39,1.1,0,2.99-.86,3.9-2.5,2.63-4.46,5.68-6.85,9.31-2.69-3.73-2.3-7.08-4.72-9.53-.16-1.32-.32-2.65-.32-3.98h4c.23-1.99.9-2.99,2-3-.04.4-.25,1.59.46,1.92.4.18,1.03-.82,1.54-.92Z"/>
        <path class="cls-62" d="M28.02,44.05c.27-.88.59-.87.97,0l.05,1.79c.78,2.95-3.4,3.72-4.85,1.46-.43-1.79-.76-3.74-1.65-5.54,3.02-1.42,3.9,1.05,5.47,2.3Z"/>
        <path class="cls-74" d="M35.63,36.21c1.82.79.36,3.44-.81,4.82-.39,1.51-2.35,3.14-1.76,4.95-.35,1.91-1.13,1.85-1.42-.09-.37-2.76,1.13-5.12,2.26-7.98.63-1.61-.81-4.35,1.01-4.93,1.9-.15,2.14.92.72,3.22Z"/>
        <path class="cls-30" d="M18.9,37.04c.8-1.09,1.19-.79,1.19.89-.06,1.76-.28,3.54-1.11,5.11l-2.08-5c.02-.33-.06-.68,0-1h2Z"/>
        <path class="cls-51" d="M30.94,35.02c1.04.37,1.41,1.29,1.77,1.67.56.57-.43,1.7-1.16,1.68-.53-.02-1.37-.13-1.78-.94-.22-.43.32-.42,1.16-2.41Z"/>
        <path class="cls-1" d="M20.09,37.93c-.8-1.28-.77-3.26.67-3.9.91.14,1.62,1.4,1.85,2.55.22,1.08-1.63,1.23-2.52,1.35Z"/>
        <path class="cls-53" d="M20.76,34.04c-.12,1.32-.39,2.61-.67,3.9-.42.05-.79-.89-1.19-.89.04-.69-.11-1.44.01-2.46.08-.66,1.13-.66,1.85-.55Z"/>
        <path class="cls-94" d="M28.99,44.04h-.97c-.18-.62-.31-1.23-.19-2.4.08-.73,3.39.33,2.56,1.22-.38.41-1.12.73-1.4,1.18Z"/>
      </g>
    </g>
    <path class="cls-95" d="M27.12,6.07c0,.28.06.58.02.86l-.31,1.97c-2.77,2.2.37,7.04-2.07,6.03-1-1.61-1.2-3.16-.82-5.37.28-1.67.96-3.33,3.19-3.5Z"/>
    <path class="cls-36" d="M52.9,113.04c.2,1.73-.22,3.49-1,5.05-.99.39-4.15.44-4.11-1l.25-8.09c-2.42-2.98,1.59-4.4,3.86-4.96,3.37.62,2.48,6.67,1,9Z"/>
    <path class="cls-20" d="M46.9,101.91c.86,1.25,1.49,1.54,3,1.13-1.76-.46-1.64-1.39.24-1.7.11-.91.43-.95.95-.17.79-.49,1.06-.25.84.67.02.62-.29,1.67-.03,2.2l-3.86,4.96c-1.12-1.19-2.43-2.61-3.13-4.1s-.78-3.44-1.9-4.85c-1.72-.44-2.67-.71-1.12-2-2.01-2.56.02-4.2,2.34-1.65,4.39-2.08,3.5,2.04,2.66,5.52Z"/>
    <path class="cls-14" d="M53.9,115.04c-.43.96-1.03,2.68-2,3.05-.13-1.76-.32-3.71,1-5.05l1,2Z"/>
    <path class="cls-41" d="M33.93,54.01c.61.33.58.67-.03,1.04.29,1.13.16,1.5-1,1-1.24,1.39-2,3.45-1.01,5.16,2.62.68,3.02,2.31,2.56,4.76,1.64.82,2.79,6.82.34,7.1l.1.98c-.28.87-.62.86-1,0-2.03-.55-2.98-5.01-3-7.11-.7-1.1.36-3.27-.88-4.62-.94-1.01-2.23-1.55-3.89-1.21-.27-1.12-.8-2.19-.87-3.63,1.59-.78,2.88-1.39,3.84-2.41.37-2.51,1.27-2.41,2.98-.75-.6-1.32.22-1.97,1.29-1.02.86-.39,1.04-.15.57.7Z"/>
    <path class="cls-90" d="M31.76,50.14c1.06.8.63,2.93.31,4.18-.85.69-1.88.91-2.98.75.58-1.29-1.04-1.82-1.96-2s-2.02.05-3.01.14c-1.93-.05-1.91-.86-.36-1.96l1.13-.14,5.21-1.05,1.68.09Z"/>
    <path class="cls-73" d="M23.75,51.25c-.08.61.3,1.35.36,1.96.06.54.37,1.03.46,1.57-.92,0-3.51,1-3.63-.57-.1-1.35,1.66-2.13,1.25-3.14.51.12,1.04.25,1.56.19Z"/>
    <path class="cls-91" d="M33.9,74.04c.97.79,1,3.21,0,4,.31.69-.02,1-.86,1l-2.14-8-1.08-3.23,1.08-.88c1.4,2.22,1.98,4.7,3,7.11Z"/>
    <path class="cls-54" d="M49.87,40.92c1.92-.23,1.95.53.03,1.13-1.23-.24-2.76.3-3.74-.71-1.49-1.17-1.1-1.98.75-1.54.23-.65.71-1.2.98-1.83.92.79,1.59,1.81,1.97,2.96Z"/>
    <path class="cls-15" d="M52.46,38.76l.68,1.58c-.03.87-.02,2.06-.83,2.68-.86.66-1.66-.83-2.41-.98l-.03-1.13c.81-.78,1.61-1.59,2.59-2.15Z"/>
    <path class="cls-37" d="M43.77,37.9c1.05,1.84.37,2.31-1.25.86-1.82.87-4.69-.09-3.53-2.44-1.73,1.07-2.21.4-.97-1.23.33-.37.69-.72,1.08-1.04,2.05.58,2.95,2.81,4.68,3.84Z"/>
    <path class="cls-28" d="M46.91,39.79c-.2.58-.32,1.09-.75,1.54-.4.54-.59.72-1.02.06-.57-.9-1.5-1.5-2.57-1.56-2.11.14-2.23-.61-.05-1.06.55-.04.94-.43,1.25-.86l3.14,1.89Z"/>
    <path class="cls-6" d="M30.09,50.06c-1.46,1.22-3.44.83-5.21,1.05.89-1.86,3.45-.9,5.21-1.05Z"/>
    <path class="cls-19" d="M36.65,53.96c.07,1.03-.19,1.39-.75,1.08-.81,1.46-1.39.3-1.97-1.04-.2-.18-.31-.55-.57-.7-1.63.05-1.31-2.2-.5-3.33.38-.2.63-.65.97-.91,1.12,1.43,2.34,3.07,2.83,4.89Z"/>
    <path class="cls-88" d="M33.35,53.31c.12.88-.89.69-1.29,1.02-1.64-.84-.13-2.74-.31-4.18.32.02.81-.02,1.09-.17l.5,3.33Z"/>
    <path class="cls-46" d="M48.31,94.04l1.83,7.3c.04.58-.21,1.13-.24,1.7-1.22,1.55-2.29.54-3-1.13-.56-.46-1.81-.72-1.95-1.52-.22-1.31,1.55-2.04,1.86-2.98-.89-.88-1.91.25-2.61.29-.83.05-1.42-.92-1.86-1.68-.85.9-.4,1.52-.45,2.01-.61-.38-2.07-1.08-2-2,.27-2.51.97-3.46,2.08-2.86.74-.59,1.02-.31.89.7,1.58.45,2.57.09,2.97-1.08-.56-.73-.34-.92.59-.61,1.48-.43,1.31,1.39,1.88,1.85Z"/>
    <path class="cls-79" d="M51.09,101.17l-.95.17c-1.8-1.97-2.74-4.72-1.83-7.3,1.68,1.16,1.49,5.38,2.78,7.13Z"/>
    <path class="cls-48" d="M49.9,103.04c-.04.67-.57,1.04-1,1.56-.69.81-1.14-.17-1.49-.6-.44-.55-.2-1.47-.51-2.08.88.65,1.92,1.01,3,1.13Z"/>
    <path class="cls-9" d="M36.81,82.18c2.01-.46,2.06,2.49,1.04,3.72,2.53-1.61,7.27,6.23,4.13,7.28-.59,1.03-1.25,2.01-2.08,2.86.24-3.21-1.02-6.68-4.1-7.98.42-.73-.72-1.54-.85-2.1-.35-1.89-1.35-4.84-1.91-6.92.32-.31.61-.64.86-1,.96.7,1.93,2.08,2.91,4.14Z"/>
    <path class="cls-8" d="M35.9,55.04c4.57,8.04,4.29,18.35,3.7,27,1.88,2.34,1.99,7.19-1.75,3.86-.84-.98-.82-2.53-1.04-3.72-1.79-2.21-2.91-5.41-1.91-8.14l-.1-.98,1.49-.77c-.89-3.25-.79-6.06.3-8.44-2.74-1.06-3.61-3.37-1.69-5.81-1.92.76-1.53-1.45-1-3l.03-1.04,1.97,1.04Z"/>
    <path class="cls-60" d="M36.59,63.85c-.09,3.93,2.69,11.39.78,15.32-1.43-2.55-.35-5.16-2.57-6.11.2-2.39-.68-4.72-.34-7.1-2.22-3.09.58-6.02,2.13-2.11Z"/>
    <path class="cls-71" d="M36.59,63.85c-.85-.66-1.24-.49-1.4.08-.27,1.02-.65,1.43-.73,2.03-1.68-.98-2.57-2.82-2.56-4.76-.47-.39-.49-.76,0-1.16,1.08-2.54,2.08-3.21,3-2,.78,1.87,1.74,3.74,1.69,5.81Z"/>
    <path class="cls-5" d="M36.81,82.18c-1.82-.43-2.07-2.57-2.91-4.14-.58-1.08.48-2.87,0-4h1c.29,2.78,1.05,5.49,1.91,8.14Z"/>
    <path class="cls-10" d="M34.9,58.04l-3,2c-1.03-.98-.06-2.98,1-4,.39-.17.62-.78,1-1,.66.87.6,2.05,1,3Z"/>
    <path class="cls-8" d="M31.9,60.04v1.16c-1.3-.35-1.16-2.14-.89-3.48.15-.73.98-1.33,1.89-1.68l-1,4Z"/>
    <path class="cls-12" d="M39.05,58.06c-.29,2.68,1.57,5.51,1.61,7.98l.24,14c.55.86.55,1.53,0,2-.09,1.94-.85,1.92-1.3,0-1.74-4.23-.02-8.96-.88-13.76s-2.28-8.96-2.82-13.24c-.05-.39.16-1.45.75-1.08.4,1.48,1.6,2.94,2.4,4.1Z"/>
    <path class="cls-34" d="M46.42,91.5c-.02.23.01.46,0,.69-.22.18-.41.39-.59.61-.31,1.48-1.68,1.77-2.97,1.08-.28-.25-.58-.49-.89-.7-.55-2.85-2.27-5.11-4.13-7.28,1.07.04,1.92-.57,1.78-1.43s.25-1.74-.04-2.43h1.3c1.84,3,3.68,6.16,5.53,9.46Z"/>
    <path class="cls-78" d="M45.04,86.11c.05,1.92,1.58,3.43,1.38,5.39-2.93-1.84-4.99-5.97-5.53-9.46-.1-.65.01-1.34,0-2,1.89,1.8,1.29,5.1,4.15,6.07Z"/>
    <path class="cls-33" d="M45.84,92.8c1.69.64.21,1.98-.58,2.22-1.1.33-2.3-.15-2.39-1.13.87-.63,1.9-.97,2.97-1.08Z"/>
  </g>
</svg>