<?xml version="1.0" encoding="UTF-8"?>
<svg id="Enemy" xmlns="http://www.w3.org/2000/svg" viewBox="0 0 79.65 123.11">
  <defs>
    <style>
      .cls-1 {
        fill: #fae6ae;
      }

      .cls-2 {
        fill: #0c0b0b;
      }

      .cls-3 {
        fill: #2d1c0d;
      }

      .cls-4 {
        fill: #f5d9af;
      }

      .cls-5 {
        fill: #391e03;
      }

      .cls-6 {
        fill: #efac7e;
      }

      .cls-7 {
        fill: #d2a97e;
      }

      .cls-8 {
        fill: #281503;
      }

      .cls-9 {
        fill: #c5956e;
      }

      .cls-10 {
        fill: #f5d6a7;
      }

      .cls-11 {
        fill: #a88368;
      }

      .cls-12 {
        fill: #e39768;
      }

      .cls-13 {
        fill: #f9dfa9;
      }

      .cls-14 {
        fill: #fad1a1;
      }

      .cls-15 {
        fill: #f7d6af;
      }

      .cls-16 {
        fill: #d6a377;
      }

      .cls-17 {
        fill: #e7a279;
      }

      .cls-18 {
        fill: #a16f4c;
      }

      .cls-19 {
        fill: #deb999;
      }

      .cls-20 {
        fill: #dbb38f;
      }

      .cls-21 {
        fill: #e6d9ce;
      }

      .cls-22 {
        fill: #d5b89f;
      }

      .cls-23 {
        fill: #edc29e;
      }

      .cls-24 {
        fill: #96846f;
      }

      .cls-25 {
        fill: #e0ceac;
      }

      .cls-26 {
        fill: #a47d68;
      }

      .cls-27 {
        fill: #1b1009;
      }

      .cls-28 {
        fill: #d5c0aa;
      }

      .cls-29 {
        fill: #f7e8b9;
      }

      .cls-30 {
        fill: #aa8269;
      }

      .cls-31 {
        fill: #faedbb;
      }

      .cls-32 {
        fill: #291604;
      }

      .cls-33 {
        fill: #e7c9a6;
      }

      .cls-34 {
        fill: #f7c691;
      }

      .cls-35 {
        fill: #f6c198;
      }

      .cls-36 {
        fill: #191310;
      }

      .cls-37 {
        fill: #d4aa80;
      }

      .cls-38 {
        fill: #f2e2cc;
      }

      .cls-39 {
        fill: #c7a596;
      }

      .cls-40 {
        fill: #d1b198;
      }

      .cls-41 {
        fill: #190400;
      }

      .cls-42 {
        fill: #3e3e39;
      }

      .cls-43 {
        fill: #4f2f17;
      }

      .cls-44 {
        fill: #facb96;
      }

      .cls-45 {
        fill: #574f4c;
      }

      .cls-46 {
        fill: #281c18;
      }

      .cls-47 {
        fill: #371e08;
      }

      .cls-48 {
        fill: #ebbd88;
      }

      .cls-49 {
        fill: #ba9d8d;
      }

      .cls-50 {
        fill: #1e0f03;
      }

      .cls-51 {
        fill: #c28e69;
      }

      .cls-52 {
        fill: #fbd4a6;
      }

      .cls-53 {
        fill: #fdd8b2;
      }

      .cls-54 {
        fill: #9d704c;
      }

      .cls-55 {
        fill: #2b1f15;
      }

      .cls-56 {
        fill: #fecd9d;
      }

      .cls-57 {
        fill: #f5d3b8;
      }

      .cls-58 {
        fill: #fefdca;
      }

      .cls-59 {
        fill: #ede2c5;
      }

      .cls-60 {
        fill: #343533;
      }

      .cls-61 {
        fill: #f3d5ac;
      }

      .cls-62 {
        fill: #d7b49c;
      }

      .cls-63 {
        fill: #fef8d7;
      }

      .cls-64 {
        fill: #e8c8a5;
      }

      .cls-65 {
        fill: #b79076;
      }

      .cls-66 {
        fill: #ab9477;
      }

      .cls-67 {
        fill: #392210;
      }

      .cls-68 {
        fill: #371e04;
      }

      .cls-69 {
        fill: #e3b490;
      }

      .cls-70 {
        fill: #d4a471;
      }

      .cls-71 {
        fill: #321a03;
      }

      .cls-72 {
        fill: #180e06;
      }

      .cls-73 {
        fill: #fef7d3;
      }

      .cls-74 {
        fill: #250801;
      }

      .cls-75 {
        fill: #553f33;
      }

      .cls-76 {
        fill: #d7bea5;
      }

      .cls-77 {
        fill: #8e6750;
      }

      .cls-78 {
        fill: #d2885f;
      }

      .cls-79 {
        fill: #100b08;
      }

      .cls-80 {
        fill: #a77657;
      }

      .cls-81 {
        fill: #121110;
      }

      .cls-82 {
        fill: #241203;
      }

      .cls-83 {
        fill: #e8dec1;
      }

      .cls-84 {
        fill: #1a0f0a;
      }

      .cls-85 {
        fill: #b88f75;
      }

      .cls-86 {
        fill: #17110a;
      }

      .cls-87 {
        fill: #111214;
      }

      .cls-88 {
        fill: #c8794c;
      }

      .cls-89 {
        fill: #c2a587;
      }

      .cls-90 {
        fill: #d9cfc1;
      }

      .cls-91 {
        fill: #efcaaa;
      }

      .cls-92 {
        fill: #b48a72;
      }

      .cls-93 {
        fill: #9d6b49;
      }

      .cls-94 {
        fill: #fce3b4;
      }

      .cls-95 {
        fill: #29180a;
      }

      .cls-96 {
        fill: #483420;
      }

      .cls-97 {
        fill: #e89c6e;
      }

      .cls-98 {
        fill: #323733;
      }

      .cls-99 {
        fill: #c8b18e;
      }

      .cls-100 {
        fill: #d8af95;
      }

      .cls-101 {
        fill: #715748;
      }

      .cls-102 {
        fill: #fedbaa;
      }

      .cls-103 {
        fill: #13110e;
      }

      .cls-104 {
        fill: #cfbcae;
      }

      .cls-105 {
        fill: #4a4d4b;
      }

      .cls-106 {
        fill: #1b1c1a;
      }

      .cls-107 {
        fill: #4d2f1e;
      }

      .cls-108 {
        fill: #fcc895;
      }
    </style>
  </defs>
  <g id="RoadFighter">
    <path class="cls-76" d="M52.77,27.51c-.03.33.06.67,0,1-1.18,2.71-1.45,2.15-1.76-.64-2.83.53-3.91-.52-3.24-3.36-.39-.84-.01-1.14,1-1,1.76.88,2.68,2.68,4,4Z"/>
    <g>
      <path class="cls-104" d="M54.98,29.72c-.02,2.01,1.74,3.22,2.8,4.8.39.84.01,1.14-1,1-3.79,1.17-7.1-4.21-4-7-.86-.25-.84-.58,0-1l2.2,2.2Z"/>
      <path class="cls-65" d="M48.19,22.51c.23.31.42.65.59,1-.3.37-.63.7-1,1-.32,2.66-1.24,2.54-2,0-1.45-.1-2.23-1.01-1-2-.87-.28-.86-.62,0-1,1.03.62,2.24.82,3.41,1Z"/>
      <path class="cls-86" d="M17.7,21.85c.21-.93.52-.92.93-.03,1.63,2.33-1.87,3.86-3.93,4,1.08,1.15.1,1.71-2.92,1.7,1.2,1.81-.69,2.2-2.1,1.82-1.74-.1-3.44.65-5.06,1.08-.55-.97-1.62-1.8-2.86-1.96-.35-2.38.97-3.44,3.96-3.17l9.89-4.65,2.09,1.23Z"/>
      <path class="cls-55" d="M38.52.06c2.89,3.31,5.61,1,6.29,6.46-.34,1.84-1.46,2.11-2.9,1.03-.06-2.37-3.28-3.17-5.02-3.13-.25.81-.53.75-.83-.11-1.38-.85-2.66,0-3.35,2.21,2.74.6,2.49,1.88,0,3.14,2.09,1.25,1.81,2.48-.62,2.58.47,1.2-.11,1.89-1.31,1.28-.88.44-1.18.06-1-1-.92-1.36-.5-4.15,0-6-2.38-.31-1.05-6.08,2.02-5.95.3.04.7.22.98.16,1.89-.41,3.81-.89,5.75-.67Z"/>
      <path class="cls-57" d="M28.6,16.51c.89.18.87.49.02.92.52,2.77-6.44,2.89-7.85,2.09-.87-.28-.86-.62,0-1-.87-.31-.86-.67,0-1.08,2.21-1.02,5.05-1.01,6.89-2.59.53-1.13.59-1.08.68.12,1.73-.08,1.8.69.25,1.54Z"/>
      <path class="cls-90" d="M18.58,17.23c.64,0,1.61.42,2.19.2v1.08c-.8,1.13-2.18,2.36-3,1-1.75,1.78-2.05,1.52-2-.92.33-1.28,1.68-1.35,2.81-1.36Z"/>
      <path class="cls-107" d="M44.81,6.52c.12.99.07,2,.08,3-1.03,1.78-4.2,2.42-4.12,0l-2.18-.98c.01,2.66-.98,2.51-1.67-.06-2.97.05-2.66-3.16-.03-4.05.27-.75.81-1.74,1.46-1.81,2.28-.27,4.05,4.12,6.46,3.91Z"/>
      <path class="cls-19" d="M43.83,13.46c-1.15,0-1.68,1.1-2.06,2.05-2.55,1.88-5.64-2.24-1.01-2.84-.98-1.69,1.13-2.66,2.24-1.03l.83,1.82Z"/>
      <path class="cls-62" d="M44.89,9.52c0,.42-.09.87-.28,1.46-.21.66-.92.56-1.61.66-.8.12-1.51.75-2.24,1.03-2.71.78-3.13-.56-.99-2.28-.2-.91.14-1.2,1.01-.87,1.31.63,2.81.65,4.12,0Z"/>
      <path class="cls-59" d="M52.77,28.51c-.51,3,2.33,4.77,4,7,.89.55,1.89,1.22,3,2,.66,1.11,2.49.44,2.89,1.66,2.91,1.8.62,5.45-2.58,4.25.64,1.64-1.77,2.69-3.35,2.13-1.36,1.37-1.89.83-1.03-.97-1.18-.66-1.46-1.94.17-2.07-.76-.79-1.12-1.76-1.08-2.91-2.28-.9-7.43-5.2-5.76-7.26-.09-.68.19-.92.84-.73-1.52-1.69-1.14-3.16,1.15-3.73.3.5,1.28.49,1.76.64Z"/>
      <path class="cls-42" d="M68.02,44.77c.12,1.85-.7,2.2-1.93.81-.29,1.26-1.68.9-2.54.2-.41,2.93-2.25,2.36-2.69-.24-2.38-.05-2.32-.66-.79-2.11,1.17-1.19,2.37-2.57,2.58-4.25.32-.14.63-.04.92.12,2.17,1.16,2.76,3.8,4.44,5.48Z"/>
      <path class="cls-39" d="M59.77,37.51c-1.41,1.42-2.22-.95-3-2,.3-.37.63-.7,1-1l2,3Z"/>
      <path class="cls-29" d="M38.59,8.53c1.51-.96,1.8.44,1.17,1.86l.99,2.28c-.23.71-.62,1.51-.44,2.27.15.65.98.47,1.45.57.74.15.9.81.18,1.14-.27,1.85-.81,1.89-2.18.86-1.41,1.39-2.02.79-1-1-1.02.32-2.77.2-3.27-1-1.72-.79-1.6-1.67.27-2-2.2-1.43-2.71-2.15,0-3.16-1.94-2.02-1.49-2.74,1.15-1.89l1.67.06Z"/>
      <path class="cls-89" d="M41.95,16.66c.68,1.25,1.41,2.48,1.83,3.84-.58,2-2.99.18-3.8-1.24-1.88-.1-1.93-.96-.2-1.75.14-1.08,1.33-1.06,2.18-.86Z"/>
      <path class="cls-35" d="M43.78,20.5c.36.28.6.77.99,1.01v1c.17,1.45-.83,1.45-3,0-1.43.47-2.82-.53-2.03-2.06-.76-.57-.68-.96.24-1.2l3.8,1.24Z"/>
      <path class="cls-52" d="M45.77,24.51h2c1.2,1.02,2.42,2,3.24,3.36.12,1.38.12,2.93-1.15,3.73-1.43.36-3.19.7-3.07-.98-.44.78-.7.68-.79-.25-1.85-2.31-2.54-4.19-2.08-5.64-.19-1.65.97-1.45,1.85-.21Z"/>
      <path class="cls-17" d="M44.77,22.51l1,2c-.61,0-1.24.27-1.85.21-2.34-.47-3.06-1.21-2.15-2.21h3Z"/>
      <path class="cls-11" d="M16.77,26.54c1.51-.9,4.28-1.03,4,.97,1.93-.05,1.98.7.09,1.27,1.51,1.69.91,2.22-.87.79-.36.89-.77.84-1.22-.06h-3.07c-1.55.42-3.66-.24-3.92-1.99.68-1.16,2.05-1,2.92-1.7.73-.92,1.89-.63,2.08.72Z"/>
      <path class="cls-49" d="M11.77,27.51c1.59-.12,3.11.62,3.92,2.01-1.8,1.4-4.43,1.54-6.03-.19-.33-1.45,1.71-1.14,2.1-1.82Z"/>
      <path class="cls-60" d="M15.77,18.6c.72-.1,1.47.54,2,.92,2.03-.31,1.2,1.26-.08,2.33l-10.97,5.16c-1.63.77-3.94-.21-4.98,1.43-.57-.08-1.24-.27-1.69-.6.85-.79,1.58-1.24,1.59-1.93S.93,24.78,0,23.98l4.07-3.7,11.71-1.68Z"/>
      <path class="cls-83" d="M20.75,21.44c2.96.96,2.44,4.92-.98,4.08-.89.36-1.89.7-3,1.03-.62-.04-2.1.16-2.08-.72,1.45-1.16,2.75-2.66,3.93-4-.59-1.35-.24-1.92,1.15-1.31.85-.5,1.15-.15.98.92Z"/>
      <path class="cls-38" d="M20.77,18.51v1c.23.9-.1,1.23-1,1l-1.15,1.31c-.29.05-.66-.1-.93.03l.08-2.33c.93-.51,1.96-.8,3-1Z"/>
      <path class="cls-26" d="M24.97,48.51c2.18.73,2.4,6-.14,6.18-.69-.33-1.4-.63-2.07-1.01.73-1.98,1.02-4.07,1.02-6.17,1.21-1.27,1.77-.71,1.2,1Z"/>
      <path class="cls-85" d="M25.87,46.5c1.6.89,1.09,2.74-.9,2.01,0-.46-.89-.79-1.2-1v-4c1.25-1.52,3.18,1.56,2.1,2.99Z"/>
      <path class="cls-43" d="M36.06,4.31c.29-.02.56.02.83.11l.03,4.05c-.26.64-1.16,1.2-1.15,1.89-.76,1.74-2.76,1.04-3.05-.7.11-1.01-.05-2.12,0-3.14.28-1.76,1.69-3.3,3.35-2.21Z"/>
      <path class="cls-61" d="M35.77,10.36v3.16c-2,2.03-2.47,1.45-2.89-1.19-.17.84-.43.77-.79-.09-.05-.9.53-1.73.62-2.58,1.07-.05,2.14.13,3.05.7Z"/>
      <path class="cls-54" d="M32.87,12.33c1.98.97,2.03,3.58-.1,4.19,1.59,2.48,1.82,3.07-1.14,1.94-1.35.97-2.19-1.07-.86-1.94-1.79.11-1.73-2.64,0-3,0-.72.65-1.21,1.31-1.28.28-.03.52.01.79.09Z"/>
      <path class="cls-41" d="M30.77,13.51v3c-.22,2.12-1.28,1.8-2.17,0-.01-.51-.34-1.04-.25-1.54l.43-2.46c.28-.87.62-.86,1,0,.32.35.65.68,1,1Z"/>
      <path class="cls-75" d="M29.77,12.51h-1c.35-2-.51-4.37,1-6v6Z"/>
      <path class="cls-96" d="M36.06,4.31c-1.35.31-2.54,1.07-3.35,2.21.05-1.2-.44-2.41,1.39-3.16,1-.41,1.6-1.25,1.96.96Z"/>
      <path class="cls-69" d="M29.77,19.42c1.16,1.32.65,1.82-1,1.09-1.37.83-3.56.89-4.86-.26-.27.86-.63.84-1.07,0,.39,2.11-.48,2.62-2.08,1.18-.29-.34-.62-.65-.98-.92.31-.35.59-.75,1-1,2.76.19,5.36-1,7.85-2.09,1.76-.24,2.19.57,1.15,2Z"/>
      <path class="cls-23" d="M30.77,16.51l.86,1.94c.71,2.74-.04,3.13-1.86.97-.34-.69-.72-1.36-1.15-2l-.02-.92h2.17Z"/>
      <path class="cls-21" d="M78.77,56.51c0,.82.04,2.46.41,3.17,1.23,1.56-.35,2.82-.41,4.23-.26.86-.56.82-.88-.07l-.91-.74c.41-2.23.34-4.43-.21-6.59-2.55,1.53-4.94-2.01-3.16-4.19.13-.91.45-.95.95-.15,1.84,1.05,2.68,2.98,4.21,4.35Z"/>
      <path class="cls-77" d="M40.77,9.52c-.3.33-.64.62-1.01.87l-1.17-1.86c.97-.76.95-2,1.74-3.09.94,1.67.25,2.92.44,4.07Z"/>
      <path class="cls-24" d="M54.79,39.6c.89,1.66.34,2.13-1.15.98-2.32,1.88-3.05,1.27-3.03-1.6l-2.68-3.24c-1.17,1.96-1.73.59-2.15-1.23-1.1-.3-.72-.75.28-1.31.69-1.67,1.57-2.15,2.98-.87.96,3.07,4.03,4.59,5.76,7.26Z"/>
      <path class="cls-18" d="M49.86,31.61c-.29.19-.38.69-.84.73-1.04.1-2.08.32-2.98.87l.07-.78c-2.45-1.08-1.97-1.93.68-1.8,1.02.33,2.07.59,3.07.98Z"/>
      <path class="cls-103" d="M60.86,45.53c.86,2.43-.01,2.77-2.09,1.24-.46-.43-1.49-.7-2.04-1.22.88-1,2.44-1.2,3.35-2.13.97.02.59,1.47.79,2.11Z"/>
      <path class="cls-101" d="M55.87,42.51c-.69,1.56-1.98.2-2.18-1.18-.89-.03-.88-.29-.05-.76.35-.37.73-.69,1.15-.98.35.55,1.56.53,1.7,1.59.07.51-.32.83-.62,1.32Z"/>
      <path class="cls-106" d="M63.55,45.78c.93-.04,1.91.52,2.22,1.74,1.22-.07,1.76,1,.97,1.95,2.32.41,3.67,1.41,4.04,2.98.89.24.91.6.08,1.07.46,1.57-.72,2.8-1.93,1.16-1.88,1.52-4.04.41-4.08-2.03l-6.08-5.87c.67-.31,1.34-1.31,2.09-1.24l2.69.24Z"/>
      <path class="cls-106" d="M68.02,44.77c.97.96,1.36,2.31,1.45,3.65.89.12.89.41.06.85.05.87-.23.84-.81.06-1.81-.16-2.44-2.14-2.63-3.75.58-.34,1.23-.79,1.93-.81Z"/>
      <path class="cls-45" d="M66.09,45.58c.46.85.69,1.64-.32,1.93-.64.04-1.33-.07-1.97-.59-.32-.26-.61-.63-.24-1.15.61-.87,1.72-.74,2.54-.2Z"/>
      <path class="cls-6" d="M38.77,16.51c.11.47.81.63,1,1,.26.5.21,1.2.2,1.75,0,.4-.21.79-.24,1.2.93,1.51,0,2.36-1.65,2.06,1.32,1.21,1.47,1.37-.41,1.34-.15.84-.43.82-.84.02-.92-.47-1.94-.59-3.07-.35-2.02.75-4.23.1-6-1-.87-.28-.86-.62,0-1l1-1c.25-.39.52-.94,1-1.09.68-.21,1.35-.44,1.86-.97s1.3-1.08,1.14-1.94c.7-.9,1.61-1.23,2.73-1,.92.69,2.02,1.03,3.27,1Z"/>
      <path class="cls-14" d="M35.77,13.51c0,.59-.02,1.49-.27,2-.6.76-.63,1.5-1.02,3.09-.75-.78-.98-1.59-1.7-2.09l.1-4.19c1,.3,1.97.7,2.9,1.19Z"/>
      <path class="cls-70" d="M38.77,16.51c-.73.34-1.57,1.38-2.5.99-.83-.34-.31-1.46-.78-1.99,1.25.02,2.93-.46,3.27,1Z"/>
      <path class="cls-12" d="M41.77,22.51c1.1,2-3.48,2.01-3.68,0,.26-.86.88-1.57,1.65-2.06.92.4,1.62,1.14,2.03,2.06Z"/>
      <path class="cls-108" d="M27.77,22.51c1.68.5,2.67,1.18,2.98,2.02l4.59.52c4.55-.51,9.32.31,10.66,5.31l.79.25-.68,1.8c-.55,1.97-1.33,2.67-2.35,2.09-2.11-.86-5.81-2.48-6.04-4.74-1.63.99-2.74.67-2.87-1.32-1.23,1.47-3.24,1.06-3.09-.95-3.48,3.49-12.6-.96-7.78-4.71-.78-1.56,2.28-.78,3.78-.28Z"/>
      <path class="cls-97" d="M36.84,23.87c.25.06.62-.13.84-.02,1.88-.22,4.4-.4,6.24.88,1.35,1.58,2.06,3.56,2.08,5.64-8.21-8.93-10.89-1.38-15.26-5.83.36-.67,1.36-1.01,3.02-1.02,1.04-.37,2.24-.37,3.07.35Z"/>
      <path class="cls-88" d="M41.77,22.51l2.15,2.21c-2.1-.18-4.33.14-6.24-.88l.41-1.34c.98,1.14,2.56.84,3.68,0Z"/>
      <path class="cls-13" d="M24,22.79c.51.61-.1,2.17.58,2.75,2.42,1.17,4.88,1.6,7.2,1.95.06,1.5,1.09,1.82,3.09.95,1.42-.24,1.91.88,2.87,1.32.18.56.31,1.12.21,1.63-.06.32-4.43,3.12-4.98,1.08-.25,2.33-1.88,2.68-4.88,1.05h-2.23c-.67,1.6-1.75.54-1.34-1.01-2.1.25-3.38-2.02-3.64-3.73l-.09-1.27c-.09-.77-.43-1.43-1-2,.83-1.22,1.51-2.63.98-4.08.76-.25,1.44-.71,2.08-1.18.73.71,1.7,1.68,1.16,2.53Z"/>
      <path class="cls-92" d="M24.5,32.51c.83,1.98,1.25,3.65,1.27,5,.57,1.93,1.07,4.07.95,6.05,2.87-.38,3.06.59.76,2.27-.06,1.9-.61,2.45-1.62.67l-2.1-2.99c0-1.74.42-3.71-1-5l-2.78-8.94c.46-.04,1.24-.1.87-.79,1.93.29,3.06,1.96,3.64,3.73Z"/>
      <path class="cls-33" d="M19.77,25.51c.57.16,1.33.18,1.76.74.29.37-.39,1.03-.76,1.26-.64-1.57-2.65-.89-4-.97.43-1.25,1.91-1.09,3-1.03Z"/>
      <path class="cls-82" d="M21.57,84.6c-.1,6.05-.84,12.31,2.04,17.8l.23,2.33c.98,1.68.93,2.66-.16,2.96.76,3.55-1.18,4.16-5.81,1.83-2.05-3.25-2.88-9.23-2.89-13.57-1.97-2.14-5.54-7.47-3.03-9.53,1.12,1.34,1.29,3.45,2.94,3.85,1.69.41,4.16.26,4.75-1.87.48-1.71.16-3.63,1.93-3.8Z"/>
      <path class="cls-84" d="M11.95,86.42c.04,3.27,1.21,8,5.77,7.47.14,1.29-1.1,2.25-.97,3.65l1.12,11.98c2.43-.59,3.51,1.86,1.78,3.58,0,.92-.32,1.02-.98.34-1.95,1.96-2.99.97-2.65-1.72.48-2.38-.37-5.35-1.29-7.37-.51.01-1.01,0-1.49-.1-.7-.14-4.43-11.9-4.54-13.24l.99-2.09c-.73-.06-1.31-.13-1.31-.24-.12-1.74,1.27-6.7,2.39-8.3.4-.05.66-.7,1.02-.87h1c-.17,2.33-.85,4.55-.82,6.91Z"/>
      <path class="cls-8" d="M55.65,74.53c3.14-.02,4.32,7.72,1.53,8.98l-.41,1c-.76.99-1.45.29-2.09-2.12-.15-1.3-.38-3.45-1.91-3.88-1.61-1.31-1.94-3.31-1-6-.84-.69-1.52-1.68-2.04-2.97-.33-.04-.64-.23-.96-.3,2.62-2.16-1.52-2.66-2.74-7.81-1.13-1.56-.52-1.99,1.09-.84,1.26-.3,2.49.1,3.51.88,2.43,1.84,8.69,10.86,5.02,13.06Z"/>
      <path class="cls-8" d="M55.59,87.51c.4-1.19,1.02-1.19,1.18,0,1.83-.35,6.25,11.88,5.94,12.54-1.6,3.39-9.43-1.19-9.23-5.04-2.53-1.16-4.94-4.24-2.6-6.44-1.2-.46-1.08-1.04.25-1.17.35.65,1.75,1.39,2.25,1.79s1.56-1.63,2.21-1.68Z"/>
      <path class="cls-30" d="M43.77,51.51c.58.25.53.59-.03,1.01.01.3,0,.63.05.92l-2.86.4c-.43-.34-.62-1.15-1.11-1.4-2.12-1.92-.41-3.39,1.94-1.87,1.05-1.82,1.6-.94,2.01.93Z"/>
      <path class="cls-81" d="M18.67,113.44c1.62-.24,4.92-.11,5.23,2.03-3.35,2.81-7.89,4.03-12.12,3.67-1.31-3.6,2.37-4.83,4.24-7.42.73.56,2.12.96,2.65,1.72Z"/>
      <path class="cls-53" d="M28.77,20.51c.3.14.85.44.71.65-.37.55-1.35.38-1.71.35-1.41,1.16-4.91.99-3.86-1.26,1.61.26,3.24.32,4.86.26Z"/>
      <path class="cls-51" d="M27.77,21.51v1l-3.78.28c-.62-.73-1.17-1.52-1.16-2.53.35.04.72-.06,1.07,0-.15,1.95,2.66,1.16,3.86,1.26Z"/>
      <path class="cls-22" d="M77.89,63.84l-1.09,1.25c-.68.78-.97.02-1.03-.58-.64-2.23-.28-5.29,1-7-.87-.28-.86-.62,0-1,1.62,2.15.78,4.77,1.12,7.33Z"/>
      <path class="cls-80" d="M46.05,33.2l-.28,1.31c-.26,1.25.19,2.65-.07,3.92-1.71,1.01-3.08,1.07-4.09.18-2.57-.32-2.5-1.61.16-2.1-2.16-1.89-.41-3.44,2-2,.74-.74,1.56-1.41,2.35-2.09l-.07.78Z"/>
      <path class="cls-64" d="M73.61,52.32l3.16,4.19v1c-.65.64-.97,1.68-.97,3.11l-1.21.13c-1.37.56-2.11-.09-2.76-1.26-.4-.69-.73-1.42-.99-2.17-.53-1.25-1.05-2.99.03-3.81l-.08-1.07c-.81-1.37-.25-1.77,1.1-.89.47.31,1.37.3,1.72.77Z"/>
      <path class="cls-98" d="M68.73,49.33c.26-.02.56-.11.81-.06,1.18.22,2.04,1.13,2.35,2.28-.1.42-.59,1.03-1.1.89-1.68-.44-3.38-1.31-4.04-2.98-.42-1.69.25-1.74,1.98-.13Z"/>
      <path class="cls-28" d="M70.83,57.32c-1.18-.46-1.32-1.73-1.89-2.65l1.93-1.16c.88,1.15.66,2.6-.03,3.81Z"/>
      <path class="cls-105" d="M68.73,49.33l-1.98.13c-.27-.66-.8-1.26-.97-1.95-.16-.64-.14-1.45.32-1.93,1.42.84,1.4,2.82,2.63,3.75Z"/>
      <path class="cls-78" d="M33.77,23.51c-.76.86-1.92,1.05-3.02,1.02-.79-.8-2.6-.66-2.98-2.02l6,1Z"/>
      <path class="cls-56" d="M36.84,23.87c-.96.71-2.13.23-3.07-.35.5-.33,1.08-1.04,1.61-1.04.91,0,1.78.44,1.46,1.39Z"/>
      <path class="cls-1" d="M43.77,34.51l-2,2c-.28.87-.62.86-1,0-1.15-.84-1.82-.84-2,0,0,.95-.69.93-2.04-.07-1.52,1.84-2.46,1.83-3.91-.07l-1.05.13c-1.73-2.1-.73-2.9,1.18-4.04,1.6-.91,3.54-1.29,4.77-2.71,2.6.94,6.02,1.5,6.04,4.74Z"/>
      <path class="cls-44" d="M34.86,28.45c.09.98-.88,1.53-1.76,1.94s-1.47-.49-3.3-1.38l1.97-1.51c.96.15,2.17,1.11,3.09.95Z"/>
      <path class="cls-31" d="M32.96,32.48c1.15,1.48-.52,2.7-1.18,4.04-.68.9-3.04.81-4,0-1.61,1.18-3.76-2.19-1.93-3,.86-2.39,3.3-3.03,5.98-2.54-5.61,2.21,1.05,1.38,1.14,1.5Z"/>
      <path class="cls-93" d="M25.84,33.51c0,1.32.66,2.55,1.93,3,.87.28.86.62,0,1-.28.87-.62.86-1,0-.28.87-.62.86-1,0,.02-1.4-3.94-3.71-1.27-5l1.34,1Z"/>
      <path class="cls-15" d="M34.77,41.73c.18,1.06-.12,1.93-.94,2.6-1.47.72-3.58,1.51-5.06,1.18.46,1.91-.34,2.07-1.28.31-.17-.7-.25-1.71-.76-2.27-.54-1.53-.54-2.34,1.14-1.97.63-2.5,1.06-2.61,2.82-.68,1.74-.14,3.1.14,4.08.82Z"/>
      <path class="cls-9" d="M27.86,41.59c-.42.63-.79,1.29-1.14,1.97-1.65-1.8-1.36-4.02-.95-6.05h1c2.68.35,2.69,2.06,1.09,4.08Z"/>
      <path class="cls-72" d="M25.77,106.51c.2,2.95.71,6.8-1.87,8.95-2.02-.05-4.67.3-5.23-2.03l.98-.34c-1.59-2.49,1-4.04,2.66-1.86,1.12-.65,1.58-1.83,1.36-3.55-.1-1.72-1.17-3.81-.07-5.29.73,1.38.91,3.18,2.17,4.11Z"/>
      <path class="cls-3" d="M23.68,107.69c.05.93,1.44,1.47.9,2.42-2.08,3.64-2.28.43-4.92,2.99-.54-1.05-1.66-2.31-1.78-3.58,1.03-.74.76-1.91,1.26-2.95,1.56,1.55,2.69,1.95,3,4.03l1.55-2.91Z"/>
      <path class="cls-94" d="M40.8,41.5c3,1.2,1.3,2.5-1.03,4.02,2.27.24,2.94.91,2,2,1.55-.09,1.47,2.65-.01,3.07l-1.94,1.87c-1.94-.97-3.8-2.21-5.05-4.01.18-1.68.84-2.98,2-3.92-.75-.69-.7-1.31.16-1.87-.83-2.81,2.42-3.63,3.87-1.15Z"/>
      <path class="cls-48" d="M34.77,48.43c-2.43.75-1.07,3.31-1,5.08-3.25.69-3.41-.46-2.01-3.07-2.16.89-2.09-1.29-.8-2.78,1.8-1.98,5-2.53,3.81.77Z"/>
      <path class="cls-16" d="M30.77,46.51c1.88-.5,2.01.27.19,1.15l-1.19,4.85c1.45,1.6-.5,1.87-2,1-.35-2.49.3-5.19-.28-7.69.37-.21.9-.14,1.28-.31.8-.48,1.78-.29,2,1Z"/>
      <g>
        <path class="cls-71" d="M24.83,54.69l1.79-1.39c2.99,3.15,7.07,3.05,12.23-.29l2.07.83c-.48-1.99,2.11-2.37,2.86-.4,2.88-.97,3.75,1.91.84,3.02.73,1.53,1.19,3.19,1.4,4.98,2.37,1.73,8.33,8.83,2.74,7.81-2.71,1.44-2.44.22-1.94-1.4.39,5.76,3.01,10.61,7.86,14.54,1.35,1.88,1.66,3.59.91,5.12,2,4.38-3.58,4.54-4.46-.11-1.46.56-3.42-3.3-2.44-4.61.08-1.41-.59-2.82-2.02-4.24-.66.42-1.43.83-2.17.63-1.3-.35-4.93-9.73-5.1-12.39-.76-2.71-1.83-3.54-4.6-3.41.47,2.31-2.43,2.35-3.04.28-2.11.65-2.8,1.68-2.04,3.1.67.37,1.19.73,1.16,1.04-.17,1.92-6.69,14.27-8.19,16.45-.17.25-.61.33-1.12.35-.87,8.81-6.81,11.26-9.62,1.81-1.54-1.2-.76-5.58.82-6.91-.99-2.08-.85-4.84-.11-7.09,2.25-8.59,7.18-10.81,10.09-18.74,1.53-1.67,2.24-1.16,2.07,1.01Z"/>
        <g>
          <path class="cls-68" d="M12.77,79.51c-.28.87-.62.86-1,0-.1-.95-.23-1.89-.28-2.85-.09-1.52-.03-3.17,1.17-4.24.03,2.35.28,4.74.11,7.09Z"/>
          <path class="cls-27" d="M34.8,63.38l2.63-.86c1.8,3.68,3.16,7.57,4.09,11.67,3.24,2.62,3.09,7.75-.74,4.32-1.47.12-2.44-1.62-2.75-3.08-1.9-1.15-3.17-3.33-3.8-6.53l-2.36-.41c.96.91.57,1.93-1.16,3.05.27.96.62,1.89,1.04,2.8l-5.49,9.09c-.48,2.63-1.34,4.66-2.6,6.1,2.36.57,2.9,1.49,1.62,2.74l.26,9.36c1.3,1.15,1.52,3.45.23,4.87-1.8,1.5-2.17-2.24-2.17-4.11-2.71-.32-4.04-2.65-4.01-6.99-.26-3.76.4-7.36,1.97-10.81,1.26-5.92,7.03-10.99,8.15-17.84-1.33-1.39-.15-4.14,2.04-3.1l3.04-.28Z"/>
          <path class="cls-68" d="M14.99,88.72c-5.81-.46,4.89-26.54,8.22-24.17-.04,9.05-2.38,17.14-8.22,24.17Z"/>
          <path class="cls-4" d="M27.77,53.51c2.16-.13,4.16-.13,6,0-2.17-4.21-1.83-5.9,1-5.08,2.45-.08,5.77.69,5.05,4.01,1.64-1.49,2.55-.27,1.11,1.4-4.05,4.07-11.09,3.26-16.1.85.88-1.95.17-4.09.14-6.18.52-.55.81-1.26.9-2.01.61-.05,1.11-.39,1.62-.67,1.89-.06,1.31,5.4,1.03,7.1-.04.23-.35.42-.75.59Z"/>
          <path class="cls-5" d="M48.76,69.25c.43-.47.75-.34.96.3.9,1.06,1.7,2.78,1.04,3.97.18,2.23.85,3.9,2,5,2.36-2.15,3.87,2.51,1.91,3.88-1.15-.14-.96,1.33-1.26,1.67-3.35-1.51-10.52-14.06-7.23-17.64,1.08,1.47,1.46,2.6,2.57,2.83Z"/>
          <path class="cls-32" d="M46.67,78.55c1.4,1.38,2.07,2.8,2.02,4.24l2.44,4.61-.25,1.17c-.21.98-.77,1.51-1.73,1.53l-3.25-6.65-1.12-.15c-1.51,1.26-4.84-2.98-4-4.79.37-.35,1.5-.28,1.57-.74.09-.62-.24-1.71-.74-2.25-6.58-7,.9-8.48-6.81-12.14,1.21-1.12,2.15-3.2,3.48-4.06,2.51.32,3.14.66.83,1.85-.39,3.2,1.5,6.02,2.91,8.97.6,1.26-.47,3.08.28,3.87l4.38,4.56Z"/>
          <path class="cls-32" d="M31.75,63.66c-.44,1.06-1.74,2.02-2.04,3.1-.3-.23-.96.25-1.24.17-.04-.01-.5-3.65.08-4.3,1.1-1.25,3.4,1.01,3.2,1.03Z"/>
          <path class="cls-46" d="M46.67,58.33c.22.46.02,1.08.2,1.55.55-.02.6.23.25.71l-1.09.84c-1.25-.03-2.02-1.36-1.97-2.62.03-.75.17-1.44.57-2.36.88.35,1.63,1.01,2.04,1.87Z"/>
          <path class="cls-74" d="M36.71,58.12c-2.8.61-5.59.75-9.04-.05,2.53-.92,5.07-.96,9.04.05Z"/>
          <path class="cls-67" d="M56.77,84.51c.83.83,1.45,2.78,0,3,0,.88-.68.41-1.18,0-.42-1.69-.98-3.36-.91-5.12l2.09,2.12Z"/>
          <path class="cls-47" d="M48.68,82.79c-.73-1.38-1.8-2.61-2.02-4.24.71.74,1.79.92,2.36,2.19.29.64,1.31,1.81-.34,2.05Z"/>
          <path class="cls-34" d="M33.77,53.51c-.22,1.69-5.75,1.77-6,0,.76-.03,1.49-.53,2-1-.11-1.57.26-2.06,1.99-2.07.69,1.01,1.26,2.1,2.01,3.07Z"/>
        </g>
      </g>
      <path class="cls-47" d="M52.77,78.51c-1.27-.36-1.96-.16-2.1-1.53-.13-1.23.44-2.52.1-3.47-.3-.78.08-1.08,1-1,1.21,5.59-1,2.23,1,6Z"/>
      <path class="cls-71" d="M51.77,72.51c-.3.37-.63.7-1,1-.46-1.29-1.27-2.49-1.04-3.97,1.6.21,1.77,1.71,2.04,2.97Z"/>
      <path class="cls-50" d="M50.88,88.57l2.38,4.8c3.6-6.38-.94,6.32,8.4,5.79l-4.89-11.65c-.17-.93.27-2.11,0-3l.41-1c.43,2.53,2.47,4.51,3.26,6.92,4.24,2.66,7.09,11.58,4.62,16.01,3.18-.48,5.4,4.22,1.77,5.07-1.69,1.31-3.31.77-4.17-1.15.61,2.29.03,3.63-1.74,4.01.51,1.93-.53,2.56-2.03,1.14l-.13-1-2.14-4-4.05-10.05c-2.7.19-2.7-1.43-2.43-3.75l-5.38-13.41c1.94-5.31,2.39,5.12,6.1,5.27Z"/>
      <path class="cls-40" d="M43.77,51.51l-2.01-.93v-3.07c-1.55-.96-.37-2.25,1.01-3,.15-.93.56-.93,1.2-.13-.4,2.35-.14,4.77-.2,7.13Z"/>
      <path class="cls-36" d="M58.77,114.51c-2.15-.3-1.56-2.57-2.14-4,1.54.72,1.94,2.42,2.14,4Z"/>
      <path class="cls-91" d="M76.77,57.51c0,2.39-.32,4.72-1,7-1.35-.73-1.16-2.4-1.19-3.76,1.3-.4-.02-2.92.72-3.21.43-.17,1.16-.04,1.47-.03Z"/>
      <path class="cls-20" d="M43.77,41.51c1.08.84.38,1.87.2,2.87-.4.02-.81.08-1.2.13-.48,1.61-1.71,2.28-3,1,.63-1.25,1.04-2.61,1.03-4.02-1.34-1.39-.79-1.91.98-1,1.41-2.43,2.55-1.66,1.99,1.01Z"/>
      <path class="cls-100" d="M45.71,38.43c-.24,1.19-1.3,2.11-1.93,3.08l-1.99-1.01c-1.98-.36-2.06-1.2-.16-1.88.85-.09,1.54-1.12,2.16-1.68.91-.82,1.17.9,1.93,1.49Z"/>
      <path class="cls-99" d="M38.77,36.51c-.13-1.99.95-1.44,2,0h1l-.16,2.1c-1.24,3.29-6.64,1.45-4.88-2.17l2.04.07Z"/>
      <path class="cls-63" d="M36.73,36.45c.97,1.58,3.04,2.36,4.88,2.17-.05.62.14,1.26.16,1.88l-.98,1-3.87,1.15c-1.29.94-1.88.44-1.16-.98-1.58-.59-3.27-.85-5.08-.75-.94.24-1.78.88-2.82.68-.79-1.22-1.11-2.64-1.09-4.08h1c1.53-.28,3.21-.66,5.05-1.13,1.23-.75,2.71-.73,3.91.07Z"/>
      <path class="cls-58" d="M40.77,36.51h-2c-.22-1.74-2.88-1.06-2.84-3.63,2.67-.29,4.55,1.84,4.84,3.63Z"/>
      <path class="cls-66" d="M31.77,36.51l1.05-.13c-.89,1.76-3.37,1.13-5.05,1.13v-1h4Z"/>
      <path class="cls-73" d="M36.93,42.65c.01.63-.05,1.25-.16,1.87-.85,2.54-1.83,2.21-2.94-.18-.5-1.43-2.41-.06-3.16-1.64,2.04-.59,3.23.03,4.11-.96.26-.62.59-.63,1-.07.63-.04,1.05.41,1.16.98Z"/>
      <path class="cls-7" d="M33.83,44.33c1.94,2.24.93,2.97-3.06,2.18-.15.27-1.02-.13-1.39-.15-.4-.02-.78-.29-.61-.85,1.21-1.55,3.28-1.19,5.06-1.18Z"/>
      <path class="cls-25" d="M35.77,41.66l-1,.07c-1.32-.33-3.16.33-4.08-.82,1.62-.42,4.48-1.27,5.08.75Z"/>
      <path class="cls-10" d="M36.77,44.51c.16,1.06,1.26,2.35.58,3.37-.51.76-1.89.33-2.58.55-.89-1.28-2.45-.93-3.81-.77l-.19-1.15c.72-1.26,3-.35,3.06-2.18.98,0,1.98-.06,2.94.18Z"/>
      <path class="cls-37" d="M42.77,44.51c.09,1.1-.16,2.23-1,3-.19-.98-4.1-.65-2-2,.92-.54,1.94-.86,3-1Z"/>
      <path class="cls-102" d="M31.76,50.44c.04.66-.08,1.41-.65,1.85-.34.27-1.09,0-1.34.22-1.51-.27-1-2-.58-3.13.29-.8.73-1.6,1.77-1.72.16.96.24,1.96.8,2.78Z"/>
      <path class="cls-95" d="M66.84,111.51c-.17.6.05,1.29-.08,1.9-.22-.04-.62.19-.8.08-1.75-1.28-3.18,1.11-5.04.88,1.04-3.85-2.6-1.47-2.86-6.4,1.31.64,1.03,1.61,2.22,2.55,1.43-2.06,1.11-4.67,1.93-7.05,1.65,3.4,1.57,7.18,4.63,8.04Z"/>
      <g>
        <path class="cls-2" d="M71.64,119.49c1.62,4.33-6.54,4.98-6.78.86-1.36-.39-2.22-2.58-3.91-2.01l.04-.81c.84-1.67,2.49-3.01,4.98-4.03.06-.84.33-.84.8-.08,3.36-2.39,8.74,3.74,4.88,6.08Z"/>
        <path class="cls-79" d="M65.97,113.49c-.11,2.58-2.74,3.47-4.98,4.03-1.05-.21-1.95-.91-2.09-2.02.67-.06,1.37-1.22,2.03-1.14.34-3.23,4.22-4.46,5.04-.88Z"/>
        <path class="cls-87" d="M68.18,116.66c.32-.25.86.71,1.13.87.87.5,0,.96-.39,1.45-.77.97-1.1,0-1.7-.47-.74-.58-.09-1.03.95-1.85Z"/>
      </g>
    </g>
  </g>
</svg>