<?xml version="1.0" encoding="UTF-8"?>
<svg id="Enemy" xmlns="http://www.w3.org/2000/svg" viewBox="0 0 121.97 80.9">
  <defs>
    <style>
      .cls-1 {
        fill: #fae6ae;
      }

      .cls-2 {
        fill: #0c0b0b;
      }

      .cls-3 {
        fill: #2d1c0d;
      }

      .cls-4 {
        fill: #f5d9af;
      }

      .cls-5 {
        fill: #391e03;
      }

      .cls-6 {
        fill: #efac7e;
      }

      .cls-7 {
        fill: #d2a97e;
      }

      .cls-8 {
        fill: #281503;
      }

      .cls-9 {
        fill: #c5956e;
      }

      .cls-10 {
        fill: #f5d6a7;
      }

      .cls-11 {
        fill: #a88368;
      }

      .cls-12 {
        fill: #e39768;
      }

      .cls-13 {
        fill: #f9dfa9;
      }

      .cls-14 {
        fill: #fad1a1;
      }

      .cls-15 {
        fill: #f7d6af;
      }

      .cls-16 {
        fill: #d6a377;
      }

      .cls-17 {
        fill: #e7a279;
      }

      .cls-18 {
        fill: #a16f4c;
      }

      .cls-19 {
        fill: #deb999;
      }

      .cls-20 {
        fill: #dbb38f;
      }

      .cls-21 {
        fill: #e6d9ce;
      }

      .cls-22 {
        fill: #d5b89f;
      }

      .cls-23 {
        fill: #edc29e;
      }

      .cls-24 {
        fill: #96846f;
      }

      .cls-25 {
        fill: #e0ceac;
      }

      .cls-26 {
        fill: #a47d68;
      }

      .cls-27 {
        fill: #1b1009;
      }

      .cls-28 {
        fill: #d5c0aa;
      }

      .cls-29 {
        fill: #f7e8b9;
      }

      .cls-30 {
        fill: #aa8269;
      }

      .cls-31 {
        fill: #faedbb;
      }

      .cls-32 {
        fill: #291604;
      }

      .cls-33 {
        fill: #e7c9a6;
      }

      .cls-34 {
        fill: #f7c691;
      }

      .cls-35 {
        fill: #f6c198;
      }

      .cls-36 {
        fill: #191310;
      }

      .cls-37 {
        fill: #d4aa80;
      }

      .cls-38 {
        fill: #f2e2cc;
      }

      .cls-39 {
        fill: #c7a596;
      }

      .cls-40 {
        fill: #d1b198;
      }

      .cls-41 {
        fill: #190400;
      }

      .cls-42 {
        fill: #3e3e39;
      }

      .cls-43 {
        fill: #4f2f17;
      }

      .cls-44 {
        fill: #facb96;
      }

      .cls-45 {
        fill: #574f4c;
      }

      .cls-46 {
        fill: #281c18;
      }

      .cls-47 {
        fill: #371e08;
      }

      .cls-48 {
        fill: #ebbd88;
      }

      .cls-49 {
        fill: #ba9d8d;
      }

      .cls-50 {
        fill: #1e0f03;
      }

      .cls-51 {
        fill: #c28e69;
      }

      .cls-52 {
        fill: #fbd4a6;
      }

      .cls-53 {
        fill: #fdd8b2;
      }

      .cls-54 {
        fill: #9d704c;
      }

      .cls-55 {
        fill: #2b1f15;
      }

      .cls-56 {
        fill: #fecd9d;
      }

      .cls-57 {
        fill: #f5d3b8;
      }

      .cls-58 {
        fill: #fefdca;
      }

      .cls-59 {
        fill: #ede2c5;
      }

      .cls-60 {
        fill: #343533;
      }

      .cls-61 {
        fill: #f3d5ac;
      }

      .cls-62 {
        fill: #d7b49c;
      }

      .cls-63 {
        fill: #fef8d7;
      }

      .cls-64 {
        fill: #e8c8a5;
      }

      .cls-65 {
        fill: #b79076;
      }

      .cls-66 {
        fill: #ab9477;
      }

      .cls-67 {
        fill: #392210;
      }

      .cls-68 {
        fill: #371e04;
      }

      .cls-69 {
        fill: #e3b490;
      }

      .cls-70 {
        fill: #d4a471;
      }

      .cls-71 {
        fill: #321a03;
      }

      .cls-72 {
        fill: #180e06;
      }

      .cls-73 {
        fill: #fef7d3;
      }

      .cls-74 {
        fill: #250801;
      }

      .cls-75 {
        fill: #553f33;
      }

      .cls-76 {
        fill: #d7bea5;
      }

      .cls-77 {
        fill: #8e6750;
      }

      .cls-78 {
        fill: #d2885f;
      }

      .cls-79 {
        fill: #100b08;
      }

      .cls-80 {
        fill: #a77657;
      }

      .cls-81 {
        fill: #121110;
      }

      .cls-82 {
        fill: #241203;
      }

      .cls-83 {
        fill: #e8dec1;
      }

      .cls-84 {
        fill: #1a0f0a;
      }

      .cls-85 {
        fill: #b88f75;
      }

      .cls-86 {
        fill: #17110a;
      }

      .cls-87 {
        fill: #111214;
      }

      .cls-88 {
        fill: #c8794c;
      }

      .cls-89 {
        fill: #c2a587;
      }

      .cls-90 {
        fill: #d9cfc1;
      }

      .cls-91 {
        fill: #efcaaa;
      }

      .cls-92 {
        fill: #b48a72;
      }

      .cls-93 {
        fill: #9d6b49;
      }

      .cls-94 {
        fill: #fce3b4;
      }

      .cls-95 {
        fill: #29180a;
      }

      .cls-96 {
        fill: #483420;
      }

      .cls-97 {
        fill: #e89c6e;
      }

      .cls-98 {
        fill: #323733;
      }

      .cls-99 {
        fill: #c8b18e;
      }

      .cls-100 {
        fill: #d8af95;
      }

      .cls-101 {
        fill: #715748;
      }

      .cls-102 {
        fill: #fedbaa;
      }

      .cls-103 {
        fill: #13110e;
      }

      .cls-104 {
        fill: #cfbcae;
      }

      .cls-105 {
        fill: #4a4d4b;
      }

      .cls-106 {
        fill: #1b1c1a;
      }

      .cls-107 {
        fill: #4d2f1e;
      }

      .cls-108 {
        fill: #fcc895;
      }
    </style>
  </defs>
  <g id="RoadFighter">
    <path class="cls-76" d="M26.97,28.03c.33.02.67-.08,1-.03,2.74,1.08,2.2,1.37-.58,1.78.63,2.81-.38,3.93-3.24,3.36-.83.42-1.14.05-1.03-.96.82-1.79,2.58-2.77,3.86-4.14Z"/>
    <g>
      <path class="cls-104" d="M29.1,25.75c2.01-.05,3.16-1.85,4.69-2.96.83-.42,1.14-.05,1.03.96,1.3,3.75-3.96,7.24-6.86,4.24-.22.87-.55.86-1,.03l2.13-2.28Z"/>
      <path class="cls-65" d="M22.13,32.79c.31-.24.64-.44.98-.62.38.28.72.61,1.03.96,2.67.23,2.58,1.15.07,2-.04,1.46-.93,2.26-1.96,1.07-.25.88-.59.88-1,.03.58-1.05.74-2.27.88-3.45Z"/>
      <path class="cls-86" d="M22.53,63.28c-.93-.18-.94-.49-.06-.92,2.27-1.71,3.93,1.73,4.13,3.79,1.11-1.12,1.71-.16,1.8,2.86,1.77-1.26,2.22.61,1.89,2.04-.04,1.74.77,3.42,1.25,5.02-.95.58-1.74,1.68-1.86,2.92-2.37.43-3.47-.85-3.31-3.85l-4.99-9.72,1.15-2.13Z"/>
      <path class="cls-55" d="M.03,43.23c3.2-3.01.8-5.64,6.24-6.51,1.85.28,2.16,1.39,1.13,2.86-2.36.15-3.05,3.39-2.96,5.13.82.22.77.51-.08.84-.8,1.41.09,2.66,2.32,3.27.5-2.76,1.79-2.55,3.14-.11,1.17-2.14,2.41-1.89,2.6.53,1.18-.52,1.89.04,1.33,1.27.47.86.1,1.17-.96,1.03-1.33.97-4.13.64-6,.21-.23,2.39-6.04,1.27-6.02-1.81.03-.3.2-.7.13-.99-.48-1.88-1.02-3.77-.87-5.73Z"/>
      <path class="cls-57" d="M16.81,52.57c.15-.89.46-.89.91-.06,2.75-.61,3.12,6.34,2.36,7.77-.25.88-.59.88-1,.03-.28.88-.64.88-1.08.04-1.1-2.18-1.19-5.02-2.83-6.8-1.15-.49-1.1-.55.1-.68-.14-1.72.63-1.82,1.53-.31Z"/>
      <path class="cls-90" d="M17.89,62.56c-.03-.64.36-1.63.13-2.2l1.08-.04c1.16.76,2.44,2.09,1.1,2.96,1.84,1.69,1.6,2-.85,2.03-1.29-.28-1.41-1.64-1.46-2.76Z"/>
      <path class="cls-107" d="M6.26,36.72c.99-.16,2-.14,3-.18,1.82.97,2.57,4.11.14,4.12l-.9,2.21c2.66-.1,2.55.9,0,1.67.15,2.96-3.06,2.77-4.05.17-.76-.25-1.77-.75-1.86-1.4-.35-2.27,3.98-4.19,3.69-6.59Z"/>
      <path class="cls-19" d="M13.24,37.46c.04,1.15,1.16,1.64,2.12,1.98,1.96,2.49-2.05,5.71-2.81,1.11-1.66,1.04-2.7-1.04-1.11-2.2l1.79-.89Z"/>
      <path class="cls-62" d="M9.26,36.54c.42-.02.87.06,1.47.23.67.19.59.9.72,1.58.15.79.8,1.48,1.11,2.2.87,2.68-.45,3.15-2.25,1.07-.9.23-1.2-.1-.91-.98.58-1.33.55-2.83-.14-4.12Z"/>
      <path class="cls-59" d="M27.97,28c3.02.41,4.69-2.5,6.86-4.24.52-.91,1.15-1.93,1.89-3.07,1.08-.7.35-2.5,1.56-2.94,1.69-2.97,5.43-.81,4.34,2.43,1.62-.69,2.75,1.67,2.24,3.27,1.42,1.31.89,1.86-.93,1.06-.62,1.2-1.88,1.53-2.08-.1-.76.78-1.72,1.18-2.87,1.18-.82,2.31-4.94,7.61-7.06,6.01-.67.11-.93-.15-.76-.81-1.64,1.58-3.11,1.25-3.77-1.02.49-.32.45-1.29.58-1.78Z"/>
      <path class="cls-42" d="M43.69,12.19c1.84-.18,2.22.62.87,1.9,1.27.25.96,1.65.29,2.53,2.95.31,2.43,2.17-.15,2.7.03,2.38-.58,2.34-2.08.86-1.24-1.13-2.66-2.28-4.34-2.43-.15-.31-.06-.63.09-.92,1.08-2.21,3.7-2.89,5.32-4.63Z"/>
      <path class="cls-39" d="M36.72,20.69c1.47,1.36-.88,2.25-1.89,3.07-.38-.28-.72-.61-1.03-.96l2.93-2.1Z"/>
      <path class="cls-29" d="M8.5,42.87c-1.02-1.47.38-1.81,1.81-1.24l2.25-1.07c.71.21,1.53.57,2.29.36.65-.18.44-.99.52-1.47.13-.75.78-.93,1.14-.22,1.86.2,1.91.74.93,2.15,1.44,1.37.86,1.99-.96,1.03.36,1.01.3,2.76-.89,3.31-.72,1.75-1.62,1.66-2.01-.2-1.36,2.25-2.06,2.79-3.16.12-1.95,2-2.69,1.58-1.93-1.09v-1.67Z"/>
      <path class="cls-89" d="M16.5,39.23c1.22-.73,2.43-1.5,3.78-1.96,2.02.5.28,2.98-1.11,3.84-.03,1.89-.9,1.96-1.74.27-1.08-.1-1.11-1.3-.93-2.15Z"/>
      <path class="cls-35" d="M20.28,37.26c.26-.37.75-.63.98-1.03l1-.03c1.44-.22,1.48.78.1,3,.52,1.41-.43,2.84-1.98,2.1-.54.78-.94.71-1.2-.19l1.11-3.84Z"/>
      <path class="cls-52" d="M24.22,35.13l-.07-2c.98-1.24,1.91-2.49,3.24-3.36,1.37-.17,2.92-.22,3.77,1.02.41,1.42.81,3.16-.88,3.1.8.41.7.67-.23.8-2.24,1.93-4.1,2.69-5.56,2.28-1.64.25-1.49-.92-.28-1.84Z"/>
      <path class="cls-17" d="M22.25,36.2l1.96-1.07c.02.61.31,1.23.28,1.84-.39,2.35-1.1,3.1-2.14,2.23l-.1-3Z"/>
      <path class="cls-11" d="M27.26,64.05c-.95-1.48-1.18-4.24.83-4.03-.12-1.93.63-2,1.27-.13,1.64-1.57,2.19-.98.82.85.9.33.87.74-.02,1.22l.12,3.07c.46,1.54-.12,3.67-1.87,3.99-1.18-.64-1.07-2.01-1.8-2.86-.95-.7-.7-1.86.65-2.1Z"/>
      <path class="cls-49" d="M28.4,69.01c-.17-1.59.51-3.13,1.87-3.99,1.46,1.75,1.7,4.37.02,6.03-1.44.38-1.2-1.67-1.89-2.04Z"/>
      <path class="cls-60" d="M19.35,65.32c-.13-.71.48-1.48.85-2.03-.38-2.02,1.22-1.24,2.33,0l5.54,10.78c.82,1.6-.07,3.95,1.61,4.93-.06.57-.22,1.25-.54,1.71-.82-.82-1.3-1.53-1.98-1.52s-1.12.76-1.88,1.71l-3.84-3.94-2.09-11.64Z"/>
      <path class="cls-83" d="M22.01,60.25c.85-2.99,4.83-2.61,4.11.84.39.87.76,1.86,1.13,2.96-.02.62.23,2.09-.65,2.1-1.21-1.41-2.75-2.66-4.13-3.79-1.33.64-1.91.31-1.35-1.1-.53-.84-.19-1.15.89-1.01Z"/>
      <path class="cls-38" d="M19.09,60.33l1-.03c.89-.26,1.23.06,1.03.96l1.35,1.1c.06.29-.08.66.06.92h-2.33c-.54-.91-.87-1.92-1.1-2.96Z"/>
      <path class="cls-26" d="M48.93,55.08c.66-2.2,5.91-2.61,6.18-.07-.31.7-.58,1.42-.94,2.11-2-.66-4.11-.87-6.2-.8-1.31-1.17-.77-1.74.96-1.23Z"/>
      <path class="cls-85" d="M46.88,54.26c.84-1.63,2.7-1.19,2.04.83-.46.02-.76.92-.96,1.23l-4,.14c-1.56-1.19,1.45-3.23,2.91-2.2Z"/>
      <path class="cls-43" d="M4.36,45.55c-.03-.28,0-.56.08-.84l4.05-.17c.65.24,1.24,1.11,1.93,1.09,1.77.7,1.14,2.72-.6,3.08-1.01-.08-2.12.12-3.14.11-1.77-.22-3.36-1.58-2.32-3.27Z"/>
      <path class="cls-61" d="M10.42,45.63l3.16-.12c2.1,1.93,1.53,2.42-1.09,2.94.85.14.79.41-.06.79-.9.08-1.74-.47-2.6-.53-.08-1.06.06-2.14.6-3.08Z"/>
      <path class="cls-54" d="M12.49,48.45c.9-2.02,3.51-2.16,4.19-.04,2.43-1.68,3.01-1.93,1.98,1.08,1.01,1.31-1,2.23-1.91.92.18,1.78-2.57,1.82-3,.1-.71.02-1.23-.61-1.33-1.27-.04-.28,0-.52.06-.79Z"/>
      <path class="cls-41" d="M13.75,50.51l3-.1c2.12.15,1.84,1.21.07,2.17-.51.03-1.03.38-1.53.31l-2.47-.34c-.88-.25-.88-.59-.03-1,.34-.33.66-.67.96-1.03Z"/>
      <path class="cls-75" d="M12.78,51.54l.03,1c-2.01-.28-4.35.66-6.03-.79l6-.21Z"/>
      <path class="cls-96" d="M4.36,45.55c.36,1.34,1.16,2.5,2.32,3.27-1.2-.01-2.39.52-3.21-1.28-.45-.99-1.3-1.55.89-1.99Z"/>
      <path class="cls-69" d="M19.69,51.3c1.28-1.21,1.79-.72,1.13.96.88,1.34,1.01,3.53-.09,4.87.87.24.86.6.04,1.07,2.1-.47,2.63.39,1.25,2.04-.33.31-.63.64-.89,1.01-.37-.3-.77-.56-1.03-.96.09-2.77-1.19-5.32-2.36-7.77-.31-1.75.49-2.21,1.96-1.22Z"/>
      <path class="cls-23" d="M16.75,50.4l1.91-.92c2.71-.8,3.13-.07,1.04,1.82-.68.37-1.33.77-1.96,1.22l-.91.06-.07-2.17Z"/>
      <path class="cls-21" d="M55.04,1.04c.82-.03,2.46-.12,3.15-.52,1.52-1.29,2.83.25,4.25.26.87.23.83.53-.04.89l-.71.94c-2.25-.33-4.44-.19-6.58.43,1.62,2.49-1.84,5.01-4.08,3.31-.91-.1-.96-.42-.19-.95.99-1.88,2.89-2.78,4.2-4.36Z"/>
      <path class="cls-77" d="M9.4,40.65c.34.29.64.62.91.98l-1.81,1.24c-.8-.94-2.03-.88-3.15-1.63,1.63-1,2.91-.35,4.05-.58Z"/>
      <path class="cls-24" d="M38.98,25.59c1.63-.95,2.11-.42,1.02,1.12,1.96,2.25,1.37,3.01-1.49,3.09l-3.14,2.79c2,1.1.65,1.71-1.15,2.19-.26,1.11-.72.74-1.32-.23-1.7-.63-2.2-1.5-.97-2.95,3.03-1.07,4.45-4.19,7.06-6.01Z"/>
      <path class="cls-18" d="M31.16,30.8c.2.29.7.36.76.81.13,1.03.4,2.07.97,2.95l-.79-.04c-1,2.49-1.86,2.03-1.82-.62.29-1.03.51-2.09.88-3.1Z"/>
      <path class="cls-103" d="M44.7,19.32c2.39-.94,2.77-.08,1.31,2.05-.41.48-.65,1.51-1.15,2.09-1.03-.84-1.29-2.4-2.24-3.27-.01-.97,1.45-.64,2.08-.86Z"/>
      <path class="cls-101" d="M41.85,24.41c1.58.63.27,1.97-1.1,2.22,0,.89-.26.89-.75.08-.38-.34-.72-.71-1.02-1.12.53-.37.47-1.58,1.53-1.75.51-.08.84.29,1.34.57Z"/>
      <path class="cls-106" d="M44.84,16.62c-.08-.93.45-1.93,1.66-2.28-.11-1.22.94-1.79,1.92-1.04.33-2.33,1.28-3.71,2.84-4.15.21-.9.57-.93,1.07-.11,1.56-.52,2.82.62,1.22,1.89,1.59,1.83.55,4.03-1.88,4.15l-5.66,6.28c-.33-.66-1.36-1.29-1.31-2.05l.15-2.7Z"/>
      <path class="cls-106" d="M43.69,12.19c.93-1,2.26-1.44,3.59-1.58.09-.89.38-.9.85-.09.87-.08.85.21.09.81-.1,1.82-2.05,2.51-3.66,2.76-.36-.56-.84-1.2-.87-1.9Z"/>
      <path class="cls-45" d="M44.56,14.09c.83-.48,1.61-.74,1.94.25.07.64-.03,1.33-.52,1.99-.25.33-.61.63-1.14.28-.89-.58-.8-1.69-.29-2.53Z"/>
      <path class="cls-6" d="M16.47,42.41c.46-.13.6-.83.96-1.03.49-.28,1.2-.25,1.74-.27.4-.01.8.18,1.2.19,1.48-.98,2.35-.09,2.11,1.57,1.17-1.36,1.32-1.52,1.35.37.84.12.83.4.05.84-.44.93-.52,1.96-.24,3.08.82,1.99.24,4.22-.79,6.03-.25.88-.59.88-1,.03l-1.03-.96c-.4-.23-.96-.49-1.13-.96-.24-.67-.49-1.34-1.04-1.82s-1.12-1.26-1.98-1.08c-.92-.67-1.29-1.57-1.09-2.69.66-.95.95-2.05.89-3.31Z"/>
      <path class="cls-14" d="M13.57,45.51c.59-.02,1.49-.03,2.01.2.78.57,1.52.58,3.12.92-.76.78-1.55,1.04-2.03,1.77l-4.19.04c.26-1.01.63-1.99,1.09-2.94Z"/>
      <path class="cls-70" d="M16.47,42.41c.37.72,1.43,1.52,1.08,2.46-.32.84-1.45.36-1.96.85-.02-1.25-.56-2.91.89-3.31Z"/>
      <path class="cls-12" d="M22.36,39.2c1.96-1.17,2.13,3.41.13,3.67-.86-.23-1.6-.83-2.11-1.57.37-.93,1.08-1.66,1.98-2.1Z"/>
      <path class="cls-108" d="M22.85,53.19c.44-1.69,1.08-2.71,1.92-3.05l.36-4.61c-.66-4.53-.02-9.33,4.94-10.84l.23-.8,1.82.62c1.99.48,2.71,1.23,2.17,2.27-.79,2.14-2.27,5.89-4.53,6.21,1.05,1.6.77,2.72-1.22,2.91,1.51,1.18,1.17,3.2-.84,3.12,3.61,3.36-.52,12.63-4.43,7.94-1.53.84-.85-2.25-.41-3.76Z"/>
      <path class="cls-97" d="M23.88,44.08c.05-.25-.15-.62-.05-.84-.29-1.87-.55-4.38.66-6.27,1.53-1.4,3.49-2.19,5.56-2.28-8.64,8.52-1,10.94-5.3,15.45-.69-.33-1.06-1.33-1.13-2.98-.41-1.03-.45-2.23.24-3.08Z"/>
      <path class="cls-88" d="M22.36,39.2l2.14-2.23c-.1,2.11.29,4.33-.66,6.27l-1.35-.37c1.11-1.02.75-2.58-.13-3.67Z"/>
      <path class="cls-13" d="M23.25,56.96c.59-.54,2.17.02,2.73-.68,1.08-2.46,1.43-4.93,1.7-7.26,1.49-.11,1.78-1.15.84-3.12-.29-1.41.81-1.94,1.22-2.91.56-.2,1.11-.34,1.62-.26.32.05,3.27,4.32,1.25,4.94,2.34.17,2.74,1.79,1.22,4.84l.07,2.23c1.63.61.61,1.73-.95,1.37.32,2.09-1.9,3.45-3.6,3.77l-1.27.13c-.76.12-1.42.48-1.96,1.07-1.25-.79-2.69-1.42-4.11-.84-.28-.76-.76-1.41-1.25-2.04.69-.76,1.62-1.75,2.49-1.25Z"/>
      <path class="cls-92" d="M32.95,56.11c1.95-.9,3.6-1.38,4.95-1.44,1.91-.64,4.03-1.21,6.01-1.16-.48-2.86.48-3.07,2.24-.84,1.9,0,2.47.52.73,1.59l-2.91,2.2c-1.74.06-3.73-.29-4.96,1.17l-8.84,3.1c-.06-.46-.14-1.24-.82-.85.22-1.94,1.85-3.13,3.6-3.77Z"/>
      <path class="cls-33" d="M26.12,61.08c.14-.57.14-1.33.68-1.79.36-.3,1.04.35,1.28.72-1.55.69-.79,2.68-.83,4.03-1.26-.39-1.16-1.87-1.13-2.96Z"/>
      <path class="cls-82" d="M85.11,57.23c6.05-.11,12.33.41,17.71-2.66l2.32-.31c1.64-1.04,2.63-1.02,2.96.06,3.52-.88,4.2,1.03,2.03,5.74-3.17,2.16-9.13,3.2-13.46,3.36-2.07,2.04-7.27,5.8-9.42,3.36,1.3-1.16,3.41-1.41,3.75-3.07.35-1.71.11-4.17-2.04-4.68-1.73-.42-3.63-.03-3.86-1.8Z"/>
      <path class="cls-84" d="M87.26,66.78c3.27-.16,7.95-1.49,7.27-6.03,1.29-.19,2.29,1.02,3.68.84l11.93-1.54c-.67-2.41,1.74-3.57,3.52-1.91.92-.04,1.03.29.37.97,2.03,1.88,1.07,2.95-1.62,2.71-2.39-.4-5.33.55-7.32,1.55.03.51.04,1.01-.04,1.5-.12.71-11.73,4.85-13.08,5l-2.12-.92c-.03.74-.09,1.31-.2,1.32-1.73.18-6.74-1.03-8.38-2.1-.07-.4-.73-.64-.9-.99l-.03-1c2.34.09,4.58.69,6.93.58Z"/>
      <path class="cls-8" d="M73.86,23.51c-.13-3.14,7.56-4.59,8.92-1.85l1.01.38c1.02.72.34,1.44-2.05,2.17-1.29.19-3.43.5-3.81,2.04-1.25,1.65-3.24,2.05-5.96,1.21-.66.86-1.63,1.58-2.9,2.15-.03.33-.21.65-.26.97-2.25-2.54-2.61,1.61-7.71,3.01-1.52,1.19-1.97.59-.88-1.06-.34-1.25.01-2.49.76-3.54,1.75-2.49,10.55-9.06,12.88-5.47Z"/>
      <path class="cls-8" d="M86.83,23.12c-1.2-.35-1.23-.98-.04-1.18-.41-1.82,11.66-6.66,12.33-6.37,3.45,1.48-.86,9.46-4.71,9.41-1.07,2.56-4.06,5.09-6.35,2.82-.42,1.22-1,1.11-1.18-.21.64-.37,1.33-1.8,1.71-2.31s-1.68-1.5-1.75-2.15Z"/>
      <path class="cls-30" d="M51.27,36.19c.23-.59.57-.55,1.01,0,.3-.02.63-.03.92-.08l.5,2.84c-.32.44-1.13.66-1.36,1.16-1.85,2.18-3.37.53-1.93-1.88-1.85-.99-1-1.56.86-2.04Z"/>
      <path class="cls-81" d="M114.03,59.11c-.29-1.61-.28-4.91,1.84-5.3,2.93,3.25,4.3,7.75,4.1,11.98-3.55,1.43-4.91-2.2-7.56-3.97.54-.75.88-2.15,1.62-2.71Z"/>
      <path class="cls-53" d="M20.81,52.26c.13-.3.41-.87.62-.74.57.35.43,1.33.41,1.7,1.21,1.37,1.16,4.87-1.12,3.9.2-1.62.21-3.25.09-4.87Z"/>
      <path class="cls-51" d="M21.85,53.23l1-.03.41,3.76c-.71.64-1.48,1.22-2.49,1.25.03-.35-.08-.72-.04-1.07,1.95.08,1.06-2.7,1.12-3.9Z"/>
      <path class="cls-22" d="M62.4,1.66l1.29,1.04c.81.65.06.96-.55,1.05-2.2.72-5.28.47-7.03-.76-.25.88-.59.88-1,.03,2.09-1.69,4.74-.94,7.29-1.37Z"/>
      <path class="cls-80" d="M32.89,34.56l1.32.23c1.26.22,2.64-.28,3.92-.07,1.07,1.68,1.18,3.04.33,4.08-.23,2.58-1.53,2.55-2.11-.08-1.81,2.23-3.43.53-2.07-1.93-.77-.72-1.46-1.51-2.17-2.27l.79.04Z"/>
      <path class="cls-64" d="M51.03,6.34l4.08-3.31,1-.03c.66.62,1.71.91,3.14.86l.17,1.21c.61,1.35-.01,2.12-1.17,2.8-.68.42-1.39.78-2.13,1.07-1.23.57-2.95,1.16-3.8.1l-1.07.11c-1.34.86-1.76.31-.93-1.07.3-.49.25-1.38.71-1.75Z"/>
      <path class="cls-98" d="M48.22,11.33c-.03-.26-.13-.55-.09-.81.18-1.19,1.06-2.08,2.2-2.42.42.08,1.05.56.93,1.07-.38,1.69-1.19,3.42-2.84,4.15-1.68.48-1.75-.18-.2-1.98Z"/>
      <path class="cls-28" d="M56.13,8.95c-.42,1.2-1.69,1.38-2.58,1.99l-1.22-1.89c1.12-.92,2.58-.75,3.8-.1Z"/>
      <path class="cls-105" d="M48.22,11.33l.2,1.98c-.65.29-1.23.84-1.92,1.04-.63.18-1.44.19-1.94-.25.79-1.44,2.77-1.5,3.66-2.76Z"/>
      <path class="cls-78" d="M23.64,47.16c.88.73,1.11,1.88,1.13,2.98-.77.81-.57,2.62-1.92,3.05l.79-6.03Z"/>
      <path class="cls-56" d="M23.88,44.08c.74.93.3,2.12-.24,3.08-.34-.48-1.08-1.04-1.1-1.58-.03-.91.38-1.8,1.34-1.51Z"/>
      <path class="cls-1" d="M34.28,36.78l2.07,1.93c.88.25.88.59.03,1-.79,1.18-.77,1.85.07,2,.95-.02.95.66,0,2.04,1.89,1.45,1.91,2.39.07,3.91l.17,1.04c-2.04,1.81-2.87.83-4.08-1.04-.96-1.57-1.41-3.49-2.87-4.67.85-2.63,1.29-6.07,4.53-6.21Z"/>
      <path class="cls-44" d="M28.53,45.9c.98-.12,1.56.82,2,1.69s-.44,1.49-1.26,3.34l-1.58-1.92c.11-.96,1.03-2.2.84-3.12Z"/>
      <path class="cls-31" d="M32.62,47.66c1.44-1.2,2.71.42,4.08,1.04.93.65.92,3.01.14,4,1.23,1.57-2.06,3.83-2.93,2.04-2.42-.77-3.15-3.19-2.74-5.89,2.4,5.53,1.35-1.1,1.46-1.19Z"/>
      <path class="cls-93" d="M33.91,54.74c1.32-.05,2.53-.74,2.93-2.04.25-.88.59-.88,1-.03.88.25.88.59.03,1,.88.25.88.59.03,1-1.4.03-3.57,4.07-4.95,1.44l.95-1.37Z"/>
      <path class="cls-15" d="M41.81,45.53c1.05-.22,1.93.06,2.63.85.78,1.45,1.63,3.53,1.35,5.01,1.89-.52,2.08.27.36,1.27-.7.19-1.7.31-2.24.84-1.51.6-2.32.62-2-1.07-2.52-.54-2.65-.97-.78-2.8-.2-1.74.03-3.11.68-4.11Z"/>
      <path class="cls-9" d="M41.91,52.43c.65.39,1.32.74,2,1.07-1.74,1.71-3.97,1.5-6.01,1.16l-.03-1c.25-2.69,1.97-2.76,4.04-1.23Z"/>
      <path class="cls-72" d="M106.86,52.26c2.95-.3,6.77-.94,9.01,1.55.02,2.02.46,4.65-1.84,5.3l-.37-.97c-2.43,1.67-4.07-.86-1.96-2.6-.69-1.1-1.89-1.51-3.6-1.24-1.72.16-3.77,1.3-5.28.26,1.36-.77,3.15-1.02,4.03-2.31Z"/>
      <path class="cls-3" d="M108.11,54.31c.93-.08,1.42-1.49,2.39-.98,3.71,1.95.51,2.27,3.16,4.81-1.03.58-2.25,1.74-3.52,1.91-.77-1-1.94-.69-2.99-1.15,1.49-1.61,1.85-2.75,3.92-3.14l-2.96-1.45Z"/>
      <path class="cls-94" d="M41.36,39.51c1.09-3.04,2.45-1.38,4.05.89.16-2.28.81-2.97,1.93-2.07-.14-1.55,2.6-1.56,3.07-.1l1.93,1.88c-.91,1.97-2.08,3.87-3.84,5.18-1.68-.12-3.01-.74-3.99-1.86-.66.78-1.29.74-1.87-.09-2.78.93-3.72-2.29-1.28-3.82Z"/>
      <path class="cls-48" d="M48.5,45.29c.84,2.41,3.34.96,5.11.82.81,3.22-.34,3.43-3,2.12.96,2.12-1.22,2.13-2.75.89-2.04-1.73-2.7-4.91.64-3.83Z"/>
      <path class="cls-16" d="M46.73,49.36c-.56-1.86.2-2.01,1.14-.23l4.89,1.02c1.55-1.51,1.89.43,1.07,1.96-2.48.44-5.2-.12-7.67.55-.22-.36-.17-.89-.36-1.27-.51-.78-.35-1.77.93-2.03Z"/>
      <g>
        <path class="cls-71" d="M55.11,55.01l-1.45-1.74c3.04-3.1,2.8-7.17-.71-12.21l.75-2.1c-1.97.54-2.44-2.02-.5-2.84-1.07-2.84,1.77-3.81,2.99-.95,1.5-.78,3.14-1.3,4.92-1.57,1.64-2.43,8.54-8.63,7.71-3.01,1.54,2.65.31,2.43-1.33,1.99,5.74-.59,10.49-3.38,14.26-8.36,1.84-1.42,3.53-1.78,5.08-1.09,4.31-2.15,4.66,3.42.05,4.46.61,1.44-3.18,3.53-4.52,2.6-1.41-.03-2.8.69-4.17,2.16.44.65.88,1.4.71,2.14-.3,1.31-9.55,5.27-12.21,5.53-2.68.85-3.48,1.95-3.25,4.72,2.29-.55,2.43,2.34.39,3.03.72,2.09,1.78,2.73,3.17,1.93.35-.68.69-1.21.99-1.2,1.92.11,14.49,6.19,16.73,7.61.26.16.35.6.39,1.1,8.83.56,11.49,6.41,2.15,9.55-1.15,1.58-5.55.95-6.93-.58-2.04,1.07-4.81,1.02-7.08.36-8.66-1.95-11.06-6.8-19.08-9.43-1.72-1.47-1.24-2.2.94-2.11Z"/>
        <g>
          <path class="cls-68" d="M80.33,66.19c.88.25.88.59.03,1-.94.14-1.88.29-2.83.38-1.51.14-3.17.14-4.28-1.02,2.35-.11,4.72-.45,7.08-.36Z"/>
          <path class="cls-27" d="M63.44,44.75l-.95-2.59c3.61-1.93,7.46-3.43,11.52-4.49,2.51-3.33,7.63-3.36,4.34.58.17,1.47-1.53,2.5-2.98,2.86-1.09,1.94-3.22,3.28-6.39,4.02l-.32,2.37c.88-.99,1.91-.64,3.09,1.06.95-.31,1.87-.69,2.76-1.14l9.28,5.17c2.65.38,4.71,1.18,6.19,2.38.49-2.38,1.38-2.95,2.68-1.71l9.34-.59c1.11-1.33,3.39-1.64,4.86-.4,1.56,1.75-2.16,2.25-4.03,2.31-.23,2.72-2.51,4.13-6.84,4.25-3.75.39-7.37-.14-10.87-1.59-5.96-1.05-11.22-6.64-18.11-7.52-1.34,1.38-4.14.29-3.17-1.93l-.39-3.03Z"/>
          <path class="cls-68" d="M89.46,63.65c-.26,5.82-26.69-3.96-24.44-7.37,9.04-.28,17.21,1.78,24.44,7.37Z"/>
          <path class="cls-4" d="M53.83,52.11c-.21-2.15-.28-4.15-.21-6-4.13,2.31-5.83,2.04-5.11-.82-.16-2.45.49-5.79,3.84-5.18-1.55-1.59-.35-2.54,1.36-1.16,4.21,3.91,3.64,10.97,1.41,16.06-1.98-.81-4.1-.03-6.18.07-.57-.5-1.29-.76-2.04-.83-.07-.61-.42-1.09-.73-1.59-.12-1.89,5.35-1.5,7.06-1.28.23.03.43.34.62.73Z"/>
          <path class="cls-5" d="M68.82,30.58c-.48-.42-.37-.74.26-.97,1.03-.94,2.72-1.79,3.93-1.18,2.22-.26,3.86-.98,4.93-2.17-2.24-2.28,2.38-3.95,3.81-2.04-.1,1.16,1.36.91,1.71,1.2-1.39,3.4-13.69,11.01-17.38,7.84,1.44-1.13,2.55-1.55,2.74-2.67Z"/>
          <path class="cls-32" d="M78.19,32.35c1.33-1.45,2.72-2.17,4.17-2.16l4.52-2.6,1.18.21c.98.18,1.53.72,1.59,1.68l-6.53,3.48-.11,1.13c1.31,1.47-2.81,4.95-4.65,4.17-.36-.35-.34-1.49-.8-1.55-.63-.07-1.71.3-2.22.82-6.77,6.82-8.51-.6-11.9,7.23-1.16-1.17-3.28-2.04-4.18-3.33.24-2.51.55-3.16,1.81-.9,3.21.28,5.97-1.71,8.86-3.22,1.24-.65,3.1.36,3.85-.41l4.4-4.53Z"/>
          <path class="cls-32" d="M63.83,47.78c1.07.4,2.08,1.67,3.17,1.93-.22.31.29.95.22,1.23-.01.04-3.63.63-4.3.07-1.28-1.06.89-3.44.92-3.24Z"/>
          <path class="cls-46" d="M57.98,33.06c.45-.23,1.08-.05,1.55-.26-.04-.54.21-.61.7-.27l.88,1.06c.01,1.25-1.29,2.06-2.55,2.06-.75,0-1.45-.12-2.38-.49.32-.89.95-1.66,1.8-2.1Z"/>
          <path class="cls-74" d="M58.12,43.02c.7,2.78.94,5.56.26,9.04-1.01-2.5-1.14-5.03-.26-9.04Z"/>
          <path class="cls-67" d="M83.79,22.05c.8-.85,2.73-1.54,3-.1.88-.02.43.66.04,1.18-1.68.48-3.32,1.1-5.08,1.09l2.05-2.17Z"/>
          <path class="cls-47" d="M82.36,30.19c-1.36.78-2.55,1.89-4.17,2.16.72-.74.86-1.82,2.11-2.44.63-.31,1.76-1.37,2.06.27Z"/>
          <path class="cls-34" d="M53.62,46.11c1.69.16,1.97,5.69.21,6-.05-.76-.58-1.47-1.07-1.96-1.57.16-2.06-.18-2.14-1.91.99-.72,2.05-1.34,3-2.12Z"/>
        </g>
      </g>
      <path class="cls-47" d="M77.94,26.25c-.32,1.28-.1,1.96-1.46,2.16-1.22.18-2.54-.36-3.47.02-.77.33-1.08-.04-1.03-.96,5.54-1.41,2.26.92,5.96-1.21Z"/>
      <path class="cls-71" d="M71.98,27.46c.38.28.72.61,1.03.96-1.27.51-2.45,1.36-3.93,1.18.15-1.61,1.65-1.83,2.9-2.15Z"/>
      <path class="cls-50" d="M88.06,27.8l4.71-2.55c-6.5-3.37,6.35.72,5.49-8.6l-11.47,5.29c-.92.2-2.12-.19-3,.1l-1.01-.38c2.51-.52,4.42-2.63,6.8-3.5,2.51-4.33,11.33-7.49,15.84-5.18-.59-3.16,4.03-5.55,5.01-1.94,1.37,1.65.88,3.28-1.01,4.21,2.27-.69,3.63-.16,4.07,1.6,1.91-.58,2.57.44,1.21,1.99l-.99.16-3.92,2.28-9.9,4.4c.28,2.69-1.33,2.75-3.66,2.56l-13.22,5.85c-5.38-1.75,5.03-2.56,5.06-6.28Z"/>
      <path class="cls-40" d="M51.27,36.19l-.86,2.04-3.07.1c-.9,1.59-2.24.46-3.03-.89-.94-.11-.95-.53-.17-1.2,2.36.32,4.77-.02,7.13-.04Z"/>
      <path class="cls-36" d="M113.7,19c-.22,2.15-2.51,1.65-3.92,2.28.66-1.56,2.35-2.02,3.92-2.28Z"/>
      <path class="cls-91" d="M56.11,3c2.39-.08,4.73.16,7.03.76-.68,1.37-2.36,1.24-3.71,1.32-.45-1.28-2.92.12-3.23-.6-.18-.42-.08-1.16-.09-1.47Z"/>
      <path class="cls-20" d="M41.28,36.54c.8-1.11,1.86-.44,2.86-.3.04.4.11.8.17,1.2,1.62.43,2.34,1.63,1.1,2.96-1.27-.59-2.64-.95-4.05-.89-1.34,1.39-1.88.86-1.03-.94-2.48-1.33-1.75-2.49.94-2.03Z"/>
      <path class="cls-100" d="M38.13,34.71c1.2.19,2.15,1.22,3.14,1.83l-.94,2.03c-.29,1.99-1.12,2.1-1.88.23-.12-.84-1.17-1.5-1.75-2.1-.85-.88.85-1.2,1.42-1.98Z"/>
      <path class="cls-99" d="M36.45,41.71c-1.98.2-1.48-.9-.07-2l-.03-1,2.11.08c3.34,1.13,1.68,6.59-2,4.96v-2.04Z"/>
      <path class="cls-63" d="M36.46,43.75c1.54-1.03,2.26-3.12,2-4.96.63.02,1.25-.18,1.88-.23l1.03.94,1.28,3.82c.99,1.26.5,1.87-.94,1.19-.54,1.6-.73,3.3-.58,5.11.27.93.94,1.75.78,2.8-1.19.83-2.6,1.2-4.04,1.23l-.03-1c-.34-1.52-.77-3.19-1.31-5-.79-1.2-.82-2.68-.07-3.91Z"/>
      <path class="cls-58" d="M36.38,39.71l.07,2c-1.73.28-.96,2.92-3.53,2.97-.38-2.66,1.68-4.61,3.46-4.97Z"/>
      <path class="cls-66" d="M36.7,48.71l-.17-1.04c1.79.83,1.25,3.33,1.31,5l-1,.03-.14-4Z"/>
      <path class="cls-73" d="M42.65,43.33c.63-.03,1.25.01,1.87.09,2.57.76,2.27,1.75-.08,2.95-1.41.55.02,2.42-1.53,3.22-.66-2.02-.09-3.22-1.1-4.07-.62-.24-.65-.57-.1-1-.07-.63.37-1.07.94-1.19Z"/>
      <path class="cls-7" d="M44.44,46.38c2.17-2.02,2.93-1.03,2.28,2.98.27.14-.09,1.03-.1,1.4,0,.4-.26.79-.83.64-1.59-1.16-1.31-3.24-1.35-5.01Z"/>
      <path class="cls-25" d="M41.7,44.53l.1,1c-.28,1.34.44,3.15-.68,4.11-.47-1.6-1.42-4.43.58-5.11Z"/>
      <path class="cls-10" d="M44.52,43.43c1.05-.2,2.31-1.34,3.35-.7.78.48.4,1.88.64,2.56-1.25.93-.84,2.48-.64,3.83l-1.14.23c-1.28-.67-.45-2.99-2.28-2.98-.03-.98-.13-1.97.08-2.95Z"/>
      <path class="cls-37" d="M44.31,37.43c1.1-.13,2.24.08,3.03.89-.97.22-.51,4.12-1.93,2.07-.57-.9-.93-1.91-1.1-2.96Z"/>
      <path class="cls-102" d="M50.62,48.23c.66-.06,1.41.03,1.87.58.28.33.03,1.09.27,1.33-.22,1.52-1.96,1.06-3.1.69-.81-.27-1.63-.67-1.78-1.71.95-.19,1.95-.31,2.75-.89Z"/>
      <path class="cls-95" d="M110.43,11.04c.6.15,1.29-.1,1.9.01-.03.23.21.62.1.79-1.22,1.79,1.22,3.14,1.06,5.01-3.89-.91-1.38,2.65-6.3,3.08.59-1.33,1.57-1.09,2.47-2.3-2.11-1.36-4.7-.95-7.11-1.68,3.34-1.76,7.12-1.82,7.87-4.91Z"/>
      <g>
        <path class="cls-2" d="M118.23,5.96c4.27-1.77,5.2,6.37,1.09,6.75-.35,1.37-2.51,2.31-1.88,3.98h-.81c-1.69-.79-3.1-2.4-4.21-4.84-.84-.03-.85-.3-.1-.79-2.51-3.27,3.43-8.87,5.9-5.09Z"/>
        <path class="cls-79" d="M112.43,11.85c2.58.02,3.56,2.61,4.21,4.83-.17,1.06-.84,1.98-1.94,2.16-.09-.67-1.26-1.33-1.21-1.99-3.24-.23-4.61-4.06-1.06-5.01Z"/>
        <path class="cls-87" d="M115.52,9.53c-.26-.31.68-.89.83-1.16.47-.88.96-.03,1.46.33,1,.74.04,1.1-.41,1.71-.56.76-1.03.13-1.88-.89Z"/>
      </g>
    </g>
  </g>
</svg>