<?xml version="1.0" encoding="UTF-8"?>
<svg id="Enemy" xmlns="http://www.w3.org/2000/svg" viewBox="0 0 35.91 114.44">
  <defs>
    <style>
      .cls-1 {
        fill: #9f5f4d;
      }

      .cls-2 {
        fill: #e4a680;
      }

      .cls-3 {
        fill: #14120e;
      }

      .cls-4 {
        fill: #f182e4;
      }

      .cls-5 {
        fill: #160e13;
      }

      .cls-6 {
        fill: #745862;
      }

      .cls-7 {
        fill: #c28e6a;
      }

      .cls-8 {
        fill: #ca2726;
      }

      .cls-9 {
        fill: #71244a;
      }

      .cls-10 {
        fill: #902e2a;
      }

      .cls-11 {
        fill: #281a24;
      }

      .cls-12 {
        fill: #a46652;
      }

      .cls-13 {
        fill: #1b0000;
      }

      .cls-14 {
        fill: #f571e2;
      }

      .cls-15 {
        fill: #e54cb1;
      }

      .cls-16 {
        fill: #f85fd4;
      }

      .cls-17 {
        fill: #200c11;
      }

      .cls-18 {
        fill: #a85450;
      }

      .cls-19 {
        fill: #c06c54;
      }

      .cls-20 {
        fill: #f53eae;
      }

      .cls-21 {
        fill: #c6a88b;
      }

      .cls-22 {
        fill: #936255;
      }

      .cls-23 {
        fill: #983c31;
      }

      .cls-24 {
        fill: #d59677;
      }

      .cls-25 {
        fill: #7a4134;
      }

      .cls-26 {
        fill: #d3589d;
      }

      .cls-27 {
        fill: #d3ae8e;
      }

      .cls-28 {
        fill: #e5c2a2;
      }

      .cls-29 {
        fill: #891c54;
      }

      .cls-30 {
        fill: #e74ab2;
      }

      .cls-31 {
        fill: #99685a;
      }

      .cls-32 {
        fill: #876;
      }

      .cls-33 {
        fill: #c39d75;
      }

      .cls-34 {
        fill: #a56452;
      }

      .cls-35 {
        fill: #2e1204;
      }

      .cls-36 {
        fill: #c28969;
      }

      .cls-37 {
        fill: #fa7b8a;
      }

      .cls-38 {
        fill: #17110e;
      }

      .cls-39 {
        fill: #f863d8;
      }

      .cls-40 {
        fill: #7f5342;
      }

      .cls-41 {
        fill: #cf3994;
      }

      .cls-42 {
        fill: #150605;
      }

      .cls-43 {
        fill: #f5b4a1;
      }

      .cls-44 {
        fill: #f24ec3;
      }

      .cls-45 {
        fill: #643b5f;
      }

      .cls-46 {
        fill: #c61f77;
      }

      .cls-47 {
        fill: #635242;
      }

      .cls-48 {
        fill: #8e5140;
      }

      .cls-49 {
        fill: #825f4e;
      }

      .cls-50 {
        fill: #ea7cd4;
      }

      .cls-51 {
        fill: #7a113b;
      }

      .cls-52 {
        fill: #3c192a;
      }

      .cls-53 {
        fill: #56221b;
      }

      .cls-54 {
        fill: #57364c;
      }

      .cls-55 {
        fill: #9d7a61;
      }

      .cls-56 {
        fill: #f84bba;
      }

      .cls-57 {
        fill: #191717;
      }

      .cls-58 {
        fill: #bb755e;
      }

      .cls-59 {
        fill: #a68769;
      }

      .cls-60 {
        fill: #a37d67;
      }

      .cls-61 {
        fill: #cda990;
      }

      .cls-62 {
        fill: #fb78ee;
      }

      .cls-63 {
        fill: #fd82fc;
      }

      .cls-64 {
        fill: #855e4e;
      }

      .cls-65 {
        fill: #89574a;
      }

      .cls-66 {
        fill: #d2a886;
      }

      .cls-67 {
        fill: #bb694e;
      }

      .cls-68 {
        fill: #bf9b7c;
      }

      .cls-69 {
        fill: #8b024b;
      }

      .cls-70 {
        fill: #b86d5a;
      }

      .cls-71 {
        fill: #714161;
      }

      .cls-72 {
        fill: #bf8f74;
      }

      .cls-73 {
        fill: #bb6a50;
      }

      .cls-74 {
        fill: #9a7a64;
      }

      .cls-75 {
        fill: #7e4c3b;
      }

      .cls-76 {
        fill: #de8f79;
      }

      .cls-77 {
        fill: #74153e;
      }

      .cls-78 {
        fill: #733b2e;
      }

      .cls-79 {
        fill: #801848;
      }

      .cls-80 {
        fill: #da7f64;
      }

      .cls-81 {
        fill: #fe69ea;
      }

      .cls-82 {
        fill: #170b02;
      }

      .cls-83 {
        fill: #7b4837;
      }

      .cls-84 {
        fill: #5f4e3f;
      }

      .cls-85 {
        fill: #811749;
      }

      .cls-86 {
        fill: #634e3e;
      }

      .cls-87 {
        fill: #a68669;
      }

      .cls-88 {
        fill: #d28369;
      }

      .cls-89 {
        fill: #7b5144;
      }

      .cls-90 {
        fill: #714438;
      }

      .cls-91 {
        fill: #db2482;
      }

      .cls-92 {
        fill: #de946d;
      }

      .cls-93 {
        fill: #800a3c;
      }

      .cls-94 {
        fill: #d8af95;
      }

      .cls-95 {
        fill: #b17e73;
      }

      .cls-96 {
        fill: #77685c;
      }

      .cls-97 {
        fill: #754a3e;
      }

      .cls-98 {
        fill: #784938;
      }

      .cls-99 {
        fill: #98594d;
      }

      .cls-100 {
        fill: #ea3c96;
      }

      .cls-101 {
        fill: #4a1411;
      }

      .cls-102 {
        fill: #ad1064;
      }
    </style>
  </defs>
  <g id="SassyGirl_punch_2">
    <g>
      <path class="cls-72" d="M26.31,46.4c-.14,1.25-.37,3.68-.82,4.3s-1.39,1.73-1.75.89-.78-1.35-.81-3.1-.27-2.6,0-3.49.39-1.25.74-2.34.66-1.13.87-1.09,2.2,2.1,2.06,3.09-.29,1.73-.29,1.73Z"/>
      <path class="cls-33" d="M27.02,34.1c.46,2.08.62,3.9.48,5.47-1.16,4.66-.32,12.38-2.9,11.31-.22-1.16-.29-2.41-.44-3.6-.09-2.19.02-4.05.33-5.59-1.2-.95-.78-5.22.63-4.82.07-1.77.21-3.93.71-5.21.39.79.87,1.51,1.19,2.45Z"/>
      <path class="cls-72" d="M28.26,38.16c-.06.67-.56,1.03-.77,1.41-.54-1.58-.52-3.58-.48-5.47.45,1.3.72,2.89,1.25,4.06Z"/>
      <path class="cls-72" d="M24.15,47.27c-.18-1.4-.48-2.73-.74-4.06.19-.41.35-.85.49-1.33.08-1.18.27-1.23.57-.2.74,1.64.34,4.08-.33,5.59Z"/>
    </g>
    <g>
      <path class="cls-88" d="M20.79,86.23c.4.8,1.91,1.09,2.71.1s.85-1.13.7-2.74-.96-3.05-1.79-3.18-1.05,1.26-1.31,2.4-.7,2.64-.32,3.41Z"/>
      <path class="cls-1" d="M19.55,85.31c.05-.77.24-1.69.18-2.33s-.63-1.71-.62-2.39.33-1.76.51-2.14,1.78-.79,2.14-.16.19,2.2-.51,3.48-.09,5.59-.92,5.3-.86-.71-.8-1.76Z"/>
      <path class="cls-1" d="M25.35,80.42c.63-1.15,1.16-1.88.52-3.22s-1.52-1.4-1.65-.77.66,2.33.41,2.9.72,1.08.72,1.08Z"/>
      <path class="cls-97" d="M26.3,82.47c.66-.32.4-2.36.38-3.26s.24-2.47-.35-3.58-.62-1.77-1.04-1.44.19,1.26.19,2.02.2,3.36.21,3.99.4,2.36.6,2.26Z"/>
      <path class="cls-1" d="M27.38,59.04c-.01.83.04,1.67.02,2.5,0,.08-.01.17-.03.25-.88,4.38-1.04,8.86-1.5,13.3-.04.41.13.78.36,1.12.14.22-.04.42-.54.62-3.07-.95-3.66-3.46-1.78-7.53.29-.64.07-1.36-.48-1.79-1.27-1.01-.87-2.53.92-3.01.43-.11.8-.4.97-.81.41-.92.54-1.93.38-2.92-.1-.6-.54-1.1-1.14-1.22-1.43-.28-1.2-.89.7-1.82.24-.12.51-.16.77-.14h0c.75.07,1.34.7,1.33,1.45Z"/>
      <path class="cls-80" d="M25.64,57.55l-.24,2.11c.67,1.51.49,3.35-.44,4.72-.12,1.23-.43,2.46-.44,3.7l-1.93,5.62c-1.25-.26-1.9-1.33-1.93-3.2-.44-.16-.85-.35-1.11-.66-.32-.37-1.42-8.75-1.44-9.62,0-.34.33-.68.77-1.03-.88-1.55.62-1.86,1.88-.9.63-2.49,1.94-2.17,3.64-.7-.34-.67-.16-.96.6-.9l.64.85Z"/>
      <path class="cls-73" d="M25.7,76.83c-.23.45-.66.8-.97,1.19-.1.8-.35.76-.75-.02-.67-.74-1.38-1.57-2.13-2.48-1.31.39-1.86-1.66-1.35-2.77-1.15-.23-1.24-2.23.17-2.25l1.36,2.28c1.23-1.96.96-3.97,2.5-4.7-.02,3.02-1.37,6.63,1.17,8.75Z"/>
      <path class="cls-99" d="M24.96,64.38l.44-4.72c1.47.96,1.18,4.05-.44,4.72Z"/>
      <path class="cls-89" d="M18.88,59.19c1.35,3.62,1.31,7.5,1.79,11.31.09.69-.47,1.63-.17,2.25.52,1.61.43,1.87-.92.79-1.52-.85-1.97-2.84-1.35-5.98-2.46-.99-3.29-5.79-1.35-7.58-.72-2.02.88-2.54,2.01-.79Z"/>
      <path class="cls-88" d="M24.02,85.2c-.2-.97-.5-1.95-.84-2.88-.43-1.34-.38-3.61.81-4.33.23.05.54-.07.75.02,2.92,1.38,1.13,5.32-.72,7.18Z"/>
      <g>
        <path class="cls-75" d="M17.75,102.89c-.08-.56.26-4.05.29-4.67s.56-3.85.44-4.54-.27-1.7-.47-2.18-.11-3.46.03-3.91.14-.85.49-1.22.43,2.2.14,3.3.37,3.77.27,4.02.12,3.02-.02,3.67-.8,5.92-.97,6.66-.64.59-.6.36.41-1.48.41-1.48Z"/>
        <path class="cls-58" d="M26.3,85.31l-3.52,9.72c.39,1.32-.65,4.14-2.03,2.92-.5.62-.76.5-.81-.31-.23-1.56.39-3.75,1.15-5.09-.86-1.62-.93-4.54.97-5.2,1.1-2.03,1.88-4.07,2.36-6.12-.62-1.52-.09-1.9,1.14-.81.17-.19.21-.56.31-.81l.81.31-.38,5.38Z"/>
        <path class="cls-70" d="M24,94.27l-.98,3.75c-.05.17-.1.34-.17.5-1.12,2.79-1.86,7.81-1.74,10.7-.7,1.5-2.86.66-3.21-.76-1.23-1.07-.53-4.82.98-5.57-.21-1.53.55-4.2,2.08-3.03.5-.62,3-6.4,3.05-5.59Z"/>
        <path class="cls-31" d="M24.2,93.72l-1.42,1.3c-.46-3.27,1.41-7.24,3.52-9.72-.21,2.9-1.06,5.67-2.1,8.42Z"/>
        <path class="cls-83" d="M21.75,100.17l-.81-.31c-1.44.36-1.41-1.37-.19-1.92,1.42-.05,1.58-1.84,2.03-2.92.26-.63.61-1.45,1.42-1.3l-2.45,6.44Z"/>
        <path class="cls-10" d="M21.1,109.22c.03.7,0,1.79,0,2.44-.72,1.28-4.03.14-4.13-1.33.09-.29-.05-.71.13-.92-.65-1.17-.43-1.61.79-.95,1.13-.17,2.22.24,3.21.76Z"/>
        <path class="cls-42" d="M21.1,111.66c.85,1.11-.17,1.45-.73,1.47-1.22.04-2.55-.54-3.21-.88-.06-.27-.91-.18-1.15-.52-.18-.25-.36-.66-.01-1.07.18-.21.63-.3.97-.32l4.13,1.33Z"/>
        <path class="cls-75" d="M22.03,84.62c1.94.25,1.02,1.47.04,2.73-.13,1.76-.42,3.52-.97,5.2-.14,1.56-.57,1.86-1.31.43-2.28-.98-2.36-2.19-.36-3.59-2.42-.93-1.02-5.98,1.34-6.17.36-.69.62-.6.78.2.63-.26.79.15.48,1.21Z"/>
        <path class="cls-58" d="M18.84,98.75c-.43-1.05-.24-3.95-.19-5.17s-.66-4.28-.23-5.53,2.21-3.16,2.21-3.16c0,0,1.3-2.22,1.71-1.22s-.75,11.21-1.14,12.97-2.35,2.11-2.35,2.11Z"/>
        <path class="cls-22" d="M20.76,97.94l.19,1.92c-1.14.53-1.88,1.78-2.08,3.03-.55.58-.83.44-.87-.38-.84-.71-.39-1.64-.19-2.64.21-1.06.24-2.17,1.33-2.54.5-.62.76-.5.81.31l.81.31Z"/>
        <path class="cls-65" d="M19.96,97.64l-1.39.48s-.11-.58-.1-1.18c.02-1.12-.04-2.46.68-3.31.26-.31.53-.58.69-.64.43-.12.86-.27,1.28-.43.55,1.77-.55,3.44-1.16,5.09Z"/>
        <path class="cls-53" d="M18.87,102.89c-.3,1.87.18,4.16-.98,5.57l-.79.95c-2.1-1.63-.53-4.88.21-7.07.24-.76.47-.67.7.17l.87.38Z"/>
      </g>
      <path class="cls-97" d="M21.86,75.52c1.92,1.2,1.85,4.12.45,5.66h-.89c-3,1.07-3.82-6.22-1.84-7.64l.92-.79,1.35,2.77Z"/>
      <path class="cls-1" d="M23.98,78l-.81,4.33c-.16-.42-.74-.69-.86-1.15.34-1.9.74-4.01-.45-5.66,1.27.13,2.05,1.24,2.13,2.48Z"/>
      <path class="cls-97" d="M20.37,82.63c-.5-.44-1.65-5.99-1.84-7.5s-2.02-7.53-1.98-8.92,2.25-2.88,2.25-2.88c0,0,.97-.54,1.46,1.56.67,2.91.79,12.17,1.09,13.37s1.72,3.89.99,4.47-1.3.48-1.97-.11Z"/>
    </g>
    <g>
      <path class="cls-79" d="M25.28,46.01c1.91-.37,1.75,1.59,1.22,3.12,2.59-.09,2.67,1.1.73,2.77.19.45.21.98.42,1.42,1.34,2.76,1.37,12.75.26,12.29-.29-.12-.46-.29-.36-.54-.57-1.26-.92-2.8-1.05-4.63-3.39-1.9-3.07-5.16-1.3-8.54-1.3-.69-1.92-1.88-1.85-3.58-1.09-1.41-1.11-2.94.88-2.3.3-.87.65-.86,1.04,0Z"/>
      <path class="cls-16" d="M27.55,65.06l-.55,1.01c-1.73.97-2.73.04-2.8-1.89-6.29,1.28-5.04-5.75-1.79-8.35-.84-.79-.3-2.04,1.6-3.75-.34-1.93.41-2.04,1.17-.19-.29,4.62,2.95,8.55,2.35,13.17Z"/>
      <path class="cls-39" d="M22.42,55.83c-1.19,1.86-2.37,5.48.1,7.03.62.23,1.19-1.72,1.1-2.13-.15-.64,1.04-1.69,1.91-.77,1.66,1.75-.29,4.67,1.48,6.1-.68,1.25-2.44.97-3.75,1.09-4.66,1.12-6.38-.23-5.18-4.05-2.66-1.51-1.57-3.37,1.04-3.99-1.31-1.86-.89-2.23,1.13-2.96.32-1.47,1.75-2.01,2.18-.32Z"/>
      <path class="cls-4" d="M22.42,55.83l-2.18.32c-1.9-.36-1.64-.91.09-1.67,1.15-.92,2.33-1.82,3.69-2.41.17,1.57-.86,2.58-1.6,3.75Z"/>
      <path class="cls-30" d="M20.24,56.16c.41,1.19.04,2.37-1.13,2.96-1.81,2.12-3.19,2.46-4.14,1.03-2.24.65-2.82.22-2.72-2.09l4.92-2.87c.82-.34,2.34-.04,3.15-.69.1.51-.26,1.18-.09,1.67Z"/>
      <path class="cls-102" d="M19.12,59.11c-.49,1.29-.83,2.63-1.04,3.99-1.14,1.73-.81,3.92-.2,5.81-.78.07-1.81-.06-2.52.34-1.44.34-2.34-.26-1.83-1.75-1.7-.47-1.75-1.23.05-1.6-1.36-4.05-.89-5.97,1.4-5.76.53-.61,1.62-.65,2.36-1.34.41-.38,1.67-1.06,1.78.31Z"/>
    </g>
    <path class="cls-52" d="M22.27,26.88l1.95,5.34c-1.65-1.03-3.23-2.26-4.27-3.91-1.8-1.98-.93-2.67,1.43-1.45l.89.02Z"/>
    <path class="cls-92" d="M16.6,21.11c2.29,1.25,3,3.97,4.77,5.75l-1.32,1.34c-.25,0-.47.31-.71.38-1.75.3-4.11-1.51-4.88-3.22-3.59-.94-.64-7.61,2.15-4.25Z"/>
    <path class="cls-24" d="M16.59,20.14l.02.97c-1.11-.01-2.78.18-3.26,1.59-.27.79.71,1.9,1.11,2.66.77.26.73.58-.04.96l-2.14-1.18c-1.05-2.34-.66-6.41,2-7,.64.81,1.45,1.45,2.32,2Z"/>
    <path class="cls-43" d="M19.38,28.48l-.85.67c-.49,2.81-1.51,2.04-2.46-.17-.68-.81-1.25-1.7-1.66-2.67l.04-.96c1.79.8,4.3,1.01,4.92,3.12Z"/>
    <path class="cls-82" d="M14.27,18.14c-1.23,2.2-2.44,4.44-2,7-2.01-1.11-.67-3.82-.91-6.19-.13-1.25,2.25-.77,2.91-.81Z"/>
    <path class="cls-77" d="M13.34,39.28c-2.63.69-.73-.73-2.91,6.78,1.18.38,1.44,1.38.77,2.99-1.31,1.09-2.34,2.46-3.08,4.12.15,2.04-.99,1.64-1.86-.03-.34-.31-.65-.64-.93-1,.42-1.98.77-4.05,1.84-5.82-1.4-2.11-1.34-2.25,1.15-2.18-1.2-1.86-1.19-2.91.02-3.16-.19-1.35.25-2.68,1.72-2.86,1.08.16,2.29-.26,3.09-.98.13.71.19,1.43.19,2.15Z"/>
    <path class="cls-15" d="M20.27,35.14c.97.64,1.93,1.49,2.04,2.56.14,1.36-.43,2.43-1.19,3.33-.59.7-1.1,1.46-1.75,2.11l.11-1.1c-.93-.19-1.34-1.48-1.22-3.87.03-.9.2-1.78.33-2.66.05-.31.14-.78.05-1.08.41.32,1.08.78,1.62.71Z"/>
    <path class="cls-16" d="M23.25,67.16c-.77.07-1.26.83-1.88,1.13-.67.33-1.53.35-2.03,1.02-.68,1.81-1.37,1.57-1.46-.39-3.38-.73-3.32-5.67.2-5.81.15.75-.12,2.94.92,3.06,2.07-.02,3.8-.89,4.26,1Z"/>
    <g>
      <path class="cls-13" d="M7.77,109.29c0-.5-.12-1.07-.11-1.57.04-1.58.42-2.67.85-3.43.12,1.83.32,3.63.36,5.79-.53.12-.81-.39-1.1-.79Z"/>
      <path class="cls-48" d="M4.47,86.33c-.07-1.75.27-5.72.46-6.62s-.08-3.65,0-6.01.08-6.24.72-6.88,2.4-5.34,4.18-2.44,2.6,5.78,2.49,7.88.14,2.15-.27,3.95-1.38,4.59-1.72,5.58-.68,1.93-.5,2.78.66,3-.15,4.79-2.39,4.47-2.77,5.43-2.2,3-2.3.06-.14-8.52-.14-8.52Z"/>
      <path class="cls-12" d="M7.73,82.23c1.41-.56,1.2,2.66.6,4-.77,3.69-1.22,7.45-1.36,11.3.98,2.06,1.19,3.45,1.19,3.45,0,0,.47,3.49-.32,4.48-1.17,1.22-2.24,1.76-3.21,1.62-.3-.85-.64-1.84-1.04-2.99-.64-.48-.33-1.91-.09-2.72.12-.41.17-.84.14-1.27l-.16-2.04c-.01-.15-.01-.31,0-.46l.35-3.72s.29-3.02.75-5.03c.02-1.7-.14-3.31-.48-4.83.06-1.3.89-2.24,1.27-3.35,1.71-1.65,2.49-1.13,2.35,1.58Z"/>
      <path class="cls-78" d="M4.59,88.84l.6,7.01c-.99-.2-.85-1.21-.89-1.93-1.19-1.63-.55-3.9-.59-5.95.98-1.5,1.33-.99.89.87Z"/>
      <path class="cls-25" d="M4.59,88.84c-.16-.47-.47-.83-.89-.87-.03-1.33.34-2.64.4-3.97.89-1.6,1.78,5.49.48,4.83Z"/>
      <path class="cls-98" d="M10.43,75.75c1.95.86,2.35,1.53.41,2.9.02,2.29-.44,3.06-1.4,2.32-.31,1.57-.67,2.55-1.71,1.27-.76-.58-1.56-1.08-2.35-1.58.27-.8-.72-2.16-.14-3.2.26-.47.78-.91,1.38-1.02.99.71,1.41,0,1.27-2.13l1.44-1.32c.16-.91.46-.94.87-.14.91.13.81,2.04.24,2.91Z"/>
      <path class="cls-40" d="M9.12,86.11c2.13,2.07-.93,15.41-2.79,17.26-.25,1.21.6-7.28.65-5.84-2-3.25-.14-8,1.36-11.3.14-.9.4-.93.79-.12Z"/>
      <path class="cls-76" d="M4.64,107.07c1.48-.73,1.24.48.35,1.86.57.2.59.53.1.99-.92,1.32-1.94,2.47-2.36.37-1.1.92-1.52.36-.8-1.03l-.11-.56c.24-.1.63.04.84-.16l.93-4.47c1.33-.13.84,1.94,1.04,2.99Z"/>
      <path class="cls-90" d="M9.44,80.96c1.67.64,1.5,4.59-.32,5.15l-.79.12-.6-4c.46-.63,1.07-1.02,1.71-1.27Z"/>
      <path class="cls-23" d="M8.3,102.7c1.32,1.34.47,4.7-1.14,3.87-.1,1.7-.56,2.44-1.38,2.23-.14.9-.4.93-.79.12l-.35-1.86c.8-.69,2.64-4.67,3.66-4.37Z"/>
      <path class="cls-95" d="M2.67,108.55c-.83-1.73.77-3.12.93-4.47.46,1.55.15,3.46-.93,4.47Z"/>
      <path class="cls-19" d="M11.64,62.73c-.29-2.78.66-3.01,1.7-.51,2.3.77,1.76,2.59-.6,2.42-.29,1.19-.81,1.82-1.55,1.88-.61,1.3-1.33,2.12-2.18,2.46.55,1.14.7,2.92.31,3.98.21,1.8.22,4.61-1.76,5.3-.55.19-.8-1.56-.95-1.84l-.16-.99c-.63-1.24-.73-2.23-.3-2.98-.06-3.54-.11-7-.16-10.38-.16-1.95.49-1.94,1,0,1.4,1.87,2.86,1.42,4.64.65Z"/>
      <path class="cls-48" d="M8.99,70.85c-2.13.6-2.2,1.59-2.83,1.62-.87-1.41-1.07-3.39-.59-5.95l3.99-5.63,6.77,3.43-7.34,6.54Z"/>
      <path class="cls-64" d="M6.16,72.47l.3,2.98c-1.59-2.07-2.03-6.43-.89-8.93l.59,5.95Z"/>
      <path class="cls-18" d="M2.73,110.3c1.75-.56,1.12,1.55.3,2.98-.82.78-2.22.52-2.42-.87l.43-3.02.9-.11c.34-.04.75.54.8,1.03Z"/>
      <path class="cls-49" d="M12.74,64.65c2.5,2.03.65,9.33-1.36,11.04-.25-.16-.67.16-.94.06-.07-.87-.26-2.1-.24-2.91-.97-.39-1.06-2.17-.3-2.98-.56-1.08.52-2.46,1.29-3.33.04-1.08.71-1.8,1.55-1.88Z"/>
      <path class="cls-67" d="M9.9,69.86c.43,1,.74,2,.3,2.98l-.87.14c-1.22-1.02-.72-2.57-.31-3.98.94-1.67,1.5-1.12.89.87Z"/>
      <path class="cls-101" d="M5.88,109.8c.18,2.09-.35,3.89-1.96,4.46-.61.15-2.08.34-3.05,0-.5-.18-1.53-.89-.27-1.85.82.22,1.64.49,2.42.87.18-1.77.71-2.71,2.07-3.35.07-.28-.04-.71-.1-.99l.79-.12c.7.16.72.49.1.99Z"/>
      <path class="cls-8" d="M5.09,109.92c-.35,1.39-1.02,2.68-2.07,3.35l-.3-2.98,2.36-.37Z"/>
      <path class="cls-37" d="M11.64,62.73c-1.06.98-2.24,1.47-3.73,2.29-.28-1.16-.98-2.11-.91-2.94,1.48.69,3.07.74,4.64.65Z"/>
      <path class="cls-34" d="M11.19,66.53c-.2,1.24-.52,2.48-1.29,3.33-.18-.42-.57-.65-.89-.87.37-1.29.97-2.25,2.18-2.46Z"/>
    </g>
    <g>
      <path class="cls-45" d="M25.2,51.9c-.37.12-.82.04-1.17.19-.83,1.42-2.18,3.62-3.69,2.41-.14,2.85-1.87,3.12-3.15.69-2.1.69-2.68.32-1.74-1.12-1.3-1.45-.66-1.92.96-.71,1.08-.98,2.37-1.72,3.87-2.22-1.19-.84-.45-1.77,2.2-2.8.14-.88.44-.86.89-.02.81-.3,1.7-.33,1.86.44.26,1.22.04,2.22-.02,3.14Z"/>
      <path class="cls-17" d="M6.27,53.13c.87.28.86.62,0,1,.9,1.63.9,2.63,0,3-.69-.21-1.36-.49-1.98-.86.21-.6,0-1.5-.02-2.14-.02-.84.81-1.39,1.07-2,.85-.38,1.13,0,.93,1Z"/>
      <path class="cls-54" d="M8.12,53.17c.68-1.18,2.38-.91,5.1.82.41-2.26,1.61-2.14,2.22.07l1.74,1.12c1.49,2.44-2.69,3.63-4.92,2.87-.06.89-.38.85-.93.03-.33.87-.68.84-1.06-.03l-1,.08c-1.82-.2-2.82-1.53-3-4v-1l1.86.03Z"/>
      <path class="cls-71" d="M20.27,51.13c-.82,1.48-2.02,2.31-3.87,2.22l-.13-1.22c-1.11-2.58.18-3.04,2-1h2Z"/>
      <path class="cls-6" d="M9.27,58.13h-3c.13-.25,0-.71,0-1v-3c1.05,1.31,1.67,2.94,3,4Z"/>
    </g>
    <path class="cls-69" d="M15.36,69.26c-1.21.69-2.46.92-3.85.84-.09-.62.59-1.43.87-1.94.19-.34.89-.35,1.15-.65.91.16,1.67.82,1.83,1.75Z"/>
    <g>
      <path class="cls-51" d="M6.27,57.13c.93.28.91.61,0,1,.56.79.28,2.15-.84,4.07,1.3,4.12.7,6.38-1.81,6.76l-1.26-.15c0-.51.49-8.7,1.93-12.54,1.18-1.6,1.61-.87,1.98.86Z"/>
      <path class="cls-100" d="M9.27,58.13l1-.08c.46,2.92-.42,3.54-3,2.08-1.49,4.15-.26,5.43,3.38,2.64,1.19,1.96,1.77,3.76,1.73,5.39,1.58.93.59,1.34-.87,1.94-.56-.03-1.69-.04-2.18.24-2.98,1.02-4.89.57-5.72-1.38.87-3.65.95-7.45,2.66-10.83-.37-1.83.63-1.83,3,0Z"/>
      <path class="cls-44" d="M16.44,64.95s0,.23.02.47c.08.64-.05,1.28-.37,1.84,0,0,.07,1.93-.64,2.1-.64.16-2.5-.62-3.07-1.19-1.03-.88-1.63-2.08-2.38-3.85-1.04.02-1.66.66-2.82,1.2-1.34-1.6-1.98-4.4.09-5.38q1.05,1.98,0,0c1.09-.51,2.05-1.37,3-2.08l1.06.03c1.62,1.51,5.23,3.16,5.11,6.86Z"/>
      <path class="cls-62" d="M14.98,60.14c-.78.89,1.58,1.22,1.56,2.35-.02.92-1.68,2.91-2.24,3.68-2.08-1.97-3.01-5.34-2.97-8.09.31,0,.62-.05.93-.03,1.26.1,2.29.91,2.72,2.09Z"/>
      <path class="cls-81" d="M7.27,60.13c1.1.65,2.46,1.3,1.5,1.99-.83.6-.09,1.84-1.33,2.05-.39-1.8-.09-2.84-.17-4.03Z"/>
    </g>
    <g>
      <path class="cls-38" d="M27.12,31.8c-.5.12-1.08.21-1.63-.23-.67-.54-.46-1.71-.52-2.68,1,.47,1.83,1.46,2.15,2.9Z"/>
      <g>
        <path class="cls-5" d="M23.61,26.15c.68.56,1.29,1.59,1.36,2.75.65,1.41,1.05,2.15,2.15,2.9,1.5.8,1.95,3.03,1.62,4.79-.38,2.07-1.71,3.55-1.81,2.28-.49,1.3-.95.67-1.4-1.88-.47.94-.71.61-.71-1-.42,1.11-.87,1.8-1.41,1-2.23,2.59-3.05,1.06-2.04-2-.91-1.8-.92-2.07.59-2.91-1.66-2.22-2.13-4-1.38-5.34-2.29-6.09,1.49-3.21,3.03-.59Z"/>
        <path class="cls-38" d="M18.63,19.12c.57,2.32,2.61,2.21,4.09,2.92.39,1.33.72,2.69.88,4.11-.3.35-.79.86-1.13.59-.6-.46-.77-1.4-1.38-2.47-.55.67-.36,1.67-.51,2.46-.15.88-.36.85-.63-.02-1.8-.14-4.01-2.83-3.37-5.75-.62-.26-.62-.58-.01-.97-.95-1.34-.96-1.96.44-1.73,1.14-.91,1.73-1.1,1.64.86Z"/>
        <path class="cls-35" d="M25.53,36.99c.34,1.49.23,3.22-.83,4-.64.4-.81.03-.58-1l.71-4c.27.03.51.74.71,1Z"/>
      </g>
    </g>
    <g>
      <path class="cls-26" d="M5.61,40.36c.87.78.17,1.28,1.29,1.41s1.85-2.58,1.51-3.81.43-2.35,0-3.54-1.79-3.41-2.5-2.18-.59,4.33-.63,4.89.34,3.23.34,3.23Z"/>
      <g>
        <path class="cls-41" d="M20.22,28.33c1.36.8,2.8,1.32,4,3.89.33.9.25,2.43-.84,2.91-.51.71-1.55.71-3.12,0-.93,2.48-1.48,1.87-1.62-.71-.97-1.06-.59-4.78-.11-5.27s1.17-1.13,1.69-.83Z"/>
        <path class="cls-9" d="M23.38,35.14c.26.57,1.59.15,1.59.15,0,0,.03.06.07.17.51,1.15.29,2.47-.49,3.45-.84,1.06-1.51,2.31-1.42,3.52.39,4.11-4.03,2.02-2.02-1.4-.91-1.78-1.19-3.74-.85-5.89.43-.23.86-1.01,1.37-.81s1.53.39,1.74.81Z"/>
        <path class="cls-29" d="M23.13,42.43c.09,1.24.82,2.41,1.1,3.59-.3.64-.95,1.48-.88,2.3-.26.1-.61-.02-.89.02-1.57.06-2.74-1.57-2.95-3.03-1.11-.2-.98-1.49-.14-2.17.24-1.42.82-2.13,1.75-2.11-.04.42.02,1.33.56,1.77.33.27.99-.13,1.45-.37Z"/>
        <path class="cls-46" d="M18.26,38.16c.87,1.3.71,3.37-1.04,2.96-.73,1.31-2.52,2.86-4.22,3.04-.46,2.68-1.32,3.32-2.56,1.9-2.01-1.74-.09-9.21,2.91-6.78,1.57-.79,2.13-1.5,1.69-2.13l-.09-1.09c.12-1.96.93-1.88,1.32.08.13-.83.31-1.14,1.12-.77.12-1.99.92-1.89,1.21.14,2.39,1.16,2.32,2.19-.33,2.66Z"/>
        <path class="cls-26" d="M15.03,37.15c0,.28,1.68.27,1.66.7-.02.6-.91,1.67-1.47,1.82s-1.45.27-1.88-.39c-2.12-.29-2.19-1.01-.19-2.15l.8.02h1.08Z"/>
        <path class="cls-93" d="M18.53,29.16c.41,1.77-.41,3.55.11,5.27.54.34.51.7-.05,1.08-.37.04-.86-.26-1.21-.14-.43-1.22-.81-2.63-1.12-4.23l-.33-1.2.14-.95,2.46.17Z"/>
        <path class="cls-56" d="M17.22,41.12c1.7.3.96,1.84-.07,2.93-.75,1.32-1.75,2.35-3.01,3.08,1.82.51,2.53,2.18,2.13,5.01,1.91-.4,1.99.4.13,1.22l-.96.71-2.22-.07-.91-.85c-1.39-1.11-1.09-2.4.72-2.13-2.69-.98-2.7-3.26-.04-6.84.55-.8.53-2.03,1.19-2.55,1.03-.81,2.02-.88,3.03-.49Z"/>
        <path class="cls-50" d="M22.46,48.33c.26,1.61-1.6,1.71-2.2,2.8-.94.75-1.65,1.29-2,0-2.85-.07-2.73-2.33,0-3,.28-.87.62-.86,1,0,.64-1.62,2.4-1.45,3.2.2Z"/>
        <path class="cls-15" d="M22.46,48.33c-1.08.14-2.35.7-3.2-.2-.87-.17-.78-2.43.25-2.83,1.94-.1,2.68,1.34,2.95,3.03Z"/>
        <path class="cls-56" d="M19.37,43.13l.14,2.17-.25,2.83h-1c-1.98-.6-2.82-1.09-.91-1.76,0-3.48.71-4.93,2.12-4.34l-.11,1.1Z"/>
        <path class="cls-91" d="M13.04,51c-.16.57-.34,1.02-.58,1.06-2.5.4-1.12-1.5-.04-.1.18.23.08.67-.1,1.17.4.19,1.5.02.91.85-1.75.21-3.59.18-5.1-.82-1.14-2.51,1.6-4.66,2.31-7.1.7-.72,1.99-1.06,2.56-1.9.15,2.29-.36,4.56.04,6.84Z"/>
        <path class="cls-63" d="M19.48,42.03c-2.05,1.3-1.21,4-1.21,6.1v3l-2,1c-2.43-.08-2.32-3.4-2.13-5.01.7-1.16,1.7-2.18,3.01-3.08.14-.93-.17-2.03.07-2.93.27-.99,1-1.88,1.04-2.96,1.52.58,1.35,2.54,1.22,3.87Z"/>
        <path class="cls-85" d="M17.38,35.37c-.39.13-.68.68-1.12.77v-5c1.54.75.97,2.8,1.12,4.23Z"/>
        <path class="cls-14" d="M17.15,44.05c-.11.7.16,1.5-.33,2.13-.64.83-1.72.98-2.69.94.07-.55-.13-2.39.49-2.52l2.53-.56Z"/>
        <path class="cls-20" d="M13.04,51c.12.69-.61,1.48-.72,2.13-.97-.45-2.73-1.3-1.81-2.86.69.02,1.77.95,2.53.73Z"/>
      </g>
      <path class="cls-93" d="M6.89,47.47c.08-1.46-.55-1.71-.62-3.42s-1.89-3.98-2.09-5.86-.63-3.13-.82-4.04-.43-2.92.48-3.4,3.37-2.73,3.05-.93-.91,5.72-1,7.11,1.35,4.18,1.3,5.25,1.31,6.02.65,6.18-.96-.88-.96-.88Z"/>
      <path class="cls-46" d="M7.23,45.84c.84.6,2.39,1.45,2.37,0s-.83-5.64.17-6.34,1.2-1.62.96-1.93-2.02-1.04-2.97-.43-1.12,8.28-.53,8.7Z"/>
      <path class="cls-26" d="M7.71,35.26c-.28.27-.63,1.78-.14,2.12s1.59,1.74,2.68,1.52,3.27-.57,3.79-.93.86-.15.58-1.15-.08-2.94-2.62-2.86-3.28.3-4.3,1.29Z"/>
    </g>
    <g>
      <g>
        <path class="cls-94" d="M27.19,31.26c-.77.41-4.94,2.85-6.3,3.28-1.36.43-3.48,1.83-4.17,1.74s-3.51-.75-3.35-2.82,0-2.59.76-3.03,4.07-1.7,4.58-1.79,5.96.17,6.94.6c.98.43,2.83,1.32,1.54,2.01Z"/>
        <path class="cls-61" d="M18.67,30.56c-2.36.6-2.33,1.38.02,1.76-1.86.34-1.95,1.68.02,1.76,1.87.97,2.42-.03,1.99-1.81,1.16,2.29,4.74,1.15,4.86-1.47-.67-1.03-3.18-.34-3.83-1.07-.31-.35.62-.57.59-.94-2.5.07-5.61.17-7.66,1.35,1.33-.05,3.53-1.06,4.01.43Z"/>
      </g>
      <g>
        <g>
          <g>
            <path class="cls-94" d="M35.69,16.98c-.06-.15-.23-.21-.38-.17-.33.09-1.35-.04-1.75.05-.59.13-.81.04-1.4.57-.34.3-.53.74-.53,1.19,0,1.04.62,1.63-.06,2.66-.64.36,2.23.72,3.72-.94.76-.84.73-2.57.4-3.35Z"/>
            <path class="cls-61" d="M31.57,21.27c.72-.4,1.77-.13,2.32-1.14.44-.82.23-1.16-.44-2.27-1.25.71-2.92,1.59-1.88,3.41Z"/>
          </g>
          <path class="cls-36" d="M31.77,17.73c-.03-.55-.02-.67-.06-1.37s-.14-1.2-.15-1.63-.29-1.56-.05-1.53.51.16.56.35.53,1.11.48,1.69.28,1.51.35,1.76c.02.06.08,1.46.02,1.63-.22.56-.87.21-.99-.07-.15-.36-.17-.84-.17-.84Z"/>
        </g>
        <g>
          <path class="cls-94" d="M34.04,21.63c-.46.68-2.88,4.54-3.78,5.55s-2.09,3.08-2.62,3.39-2.82,1.4-3.27-.06-2.69-.58-2.24-1.28,4.53-4.44,4.89-4.77,4.48-3.09,5.33-3.34,2.47-.65,1.7.5Z"/>
          <path class="cls-61" d="M27.5,25.75c-1.59,1.67-1.35,2.16.51,1.14-1.29,1.22-.99,2.16.51,1.14,1.66-.36,1.8-1.32.98-2.26,1.5.89,3.85-1.79,3.21-3.59-.79-.32-2.46,1.48-3.15,1.35-.33-.06.1-.58-.03-.8-1.84,1.39-3.92,2.99-5.12,4.88.98-.75,2.33-2.59,3.1-1.87Z"/>
        </g>
      </g>
    </g>
    <g>
      <path class="cls-3" d="M2.51,25.2c-.16-.4-.08-.89-.21-1.3.98-1.34,2.48-2.11,4-2.71.68-.27,1.3-.69,1.9-1.11.87-.74,1.88-.67,1.85.22-.12,4.1-4.35,7.52-7.54,4.9Z"/>
      <path class="cls-57" d="M10.98,16.96l1.23.31c1.03-2.67,2.36-1.98,2.05.87-2.43.97-3.14,4.16-2,7,.65-1.41,1.61,0,2.14,1.18,1.6-.03,3.2,1.29,1.66,2.67.84.34.77.65-.14.95-.44,2.12.28,5.24.2,6.22s-.27.52-1.1,1c-.31.88-.67.86-1.08,0-4.78.21-6.49-2.15-8.35-2.34-1.86-.19-3.02-1.65-3.02-1.65,0,0-1.42-3.41-1.39-4.84,0-.33-.01-1.03-.04-1.62s.1-1.2.38-1.73.55-1.17.44-1.46c1.23-.65,8.88-1.59,6.22-3.44-.14-1.02,2.13-4.74,2.79-3.12Z"/>
      <path class="cls-11" d="M15.93,29.94c1.82-.7,2.01.08.33,1.2.48.98.31,2.93.15,4.09-.07.49-.5.85-1,.83-.17,0-.34,0-.46,0-.06-1.69-1.77-1.74-3.99-2.12,1.09-2.37,3.33-2.82,4.98-4Z"/>
    </g>
    <g>
      <g>
        <path class="cls-60" d="M21.06,19.99c-.9-.12-1.8-.28-2.68-.5-.96-.27-1.05-.73-.28-1.37,1.11-3.62,3.09-5.46,5.93-5.5-.18,2.66.04,7.92-2.97,7.38Z"/>
        <path class="cls-2" d="M22.8,11.93c-.12-.98.23-1.1,1.01-.41.06.35.25.74.23,1.09-4.16,1.29-1.64,5.51-5.93,5.5-5.4-1.51.29-8.22,4.7-6.18Z"/>
        <path class="cls-7" d="M17.86,9.99c1.65-1.18,2.35-.86,2.53,1.17.91-.17,1.88-.11,2.4.78-1.33.3-2.89.44-3.95,1.41-1.31,1.19-.95,3.17-.75,4.77.05.42.38.98.28,1.37-.17.66-.48,1.31-.35,2-2.5,2.11-3.2,1.53-2.9-1.74-.67-.6-1.55-.5-2.4-.56-.47-1.04-.76-2.18-.43-3.3,3.11-.46,3.8-3.6,5.57-5.9Z"/>
      </g>
      <path class="cls-74" d="M12.29,15.89c2.64,1.03,2.72,1.62.43,3.3-.43,1.88-1.07,1.87-1.4-.1-1.74.04-2.15-.25-1.2-.87-2.28,3.79-6.76,3.73-5.62-.98.62-1.43-.05-3.44.27-4.94.42-.35.56-.88.78-1.34.17-.35.85-.11,1.12.02l1.14-1.05c1.03,2.12,2.53,4.11,4.48,5.96Z"/>
      <path class="cls-96" d="M18.52.01c.75-.07,1.5.17,2.05.68.69.63,1.54,1.44,1.43,1.55-.31.3-3.34-1.27-3.35-1.06-1.12,1.26-3.38,2.8-5.26,3.2-.47.1-.83.41-1.12.79-.19.25-.49.08-.87-.5-.88.57-1.3.19-1.34-.97C11.03,1.06,16.16.25,18.52.01Z"/>
      <path class="cls-32" d="M22.86,6.07c-2.07,1.5-2.71.05-1.47-1.99-1.65,1.55-3.05.23-2.56-1.8-1.01-.1-1.05-.47-.19-1.09,1.49-.19,3.01.21,4.24,1.52.79.84.59,2.22-.03,3.37Z"/>
      <path class="cls-84" d="M25.78,8.67l-1.98,2.85c-2.26-.34-2.78-3.29-.75-4.36-1-.15-1.05-.51-.19-1.09.72.08,1.62-.16,2.18.41.6.6.72,1.44.74,2.19Z"/>
      <path class="cls-86" d="M12.16,19.52c-.03,2.7-.9,4.25-2.61,4.63.3,1.89-.38,2.68-2,1.83-1.75-.99-3.78-1.65-4.27-3.94-.43-2.01.68-3.28,1.39-4.83,1.3,1.93,3.15,2.5,5.36.66.69-.58,1.58-.55,1.79-.1.26.55.29,1.2.34,1.75Z"/>
      <path class="cls-68" d="M19.59,6.64c1,.15,1.05.51.19,1.09.11,1.7-.18,3.09-1.92,2.26,1.45.34-.82,5.15-1.51,6.15-1.17,1.71-2.79,1.44-4.07-.25-1.57.23-3.39.21-5.21,1.77-1.16-4.37,2.96-5.03-.41-6.68-.1-1.24.88-2.15,2.02-2.46,1.77-1.98,1.96-1.78,2.42.77l.91.13c1.25-2.97,2.63-3.68,4.12-2.14-.08-1.22.91-1.83,2.17-1.54,1.28-1.71,1.95-1.2,1.28.9Z"/>
      <path class="cls-21" d="M12.49,4.5c2.99,1.39,1.27,4.1-1.37,4.79-.9.25-1.72-.23-2.42-.77-.12-.34-.02-.77-.19-1.09.39-1.3,1.62-2.68,2.89-2.74l1.09-.19Z"/>
      <path class="cls-47" d="M11.4,4.68c-.59,1.26-1.54,2.34-2.89,2.74-.91-1.76,1.14-2.59,1.55-3.71.47.29.92.61,1.34.97Z"/>
      <path class="cls-87" d="M18.65,1.19c0,.37.16.72.19,1.09.41.93.11,1.35-.9,1.28-.4,1.4-.99,2.64-1.79,3.72-2.38,1.12-3.49,4.02-6.83,4.55-.35-1.57,1.6-1.47,1.8-2.54.69-1.53,1.49-3.07,1.37-4.79.76-2.72,3.68-3,6.16-3.31Z"/>
      <path class="cls-59" d="M21.4,4.08c.7,1.98.45,2.83-1.8,2.56l-1.28-.9c-1.79.4-1.72-1.19-.38-2.18.23-.47.53-.91.9-1.28.76.67,1.88,1.04,2.56,1.8Z"/>
      <path class="cls-28" d="M22.86,6.07l.19,1.09c.15,2.95-.87,3-2.18.38-.21.71-.58.75-1.09.19l-.19-1.09c.21-1.08.85-2,1.8-2.56.48.54.45,1.88,1.47,1.99Z"/>
      <path class="cls-55" d="M23.05,7.16l.75,4.36c-.34.1-.66.33-1.01.41-1.03-.05-1.83-.31-2.4-.78-2.02-.83-1.11-2.46.48-3.62l2.18-.38Z"/>
      <path class="cls-27" d="M17.94,3.56l.38,2.18c-.39,1.12-1.1,2.16-2.17,1.54-.22-.75-.46-1.62-.12-2.56.24-.65,1.14-1.01,1.91-1.16Z"/>
      <path class="cls-66" d="M20.87,7.54c-.46,1.15-.55,2.39-.48,3.62-.99.18-2.07-.27-2.53-1.17.6-.79,1.08-1.67,1.92-2.26l1.09-.19Z"/>
    </g>
  </g>
</svg>