<?xml version="1.0" encoding="UTF-8"?>
<svg id="Enemy" xmlns="http://www.w3.org/2000/svg" viewBox="0 0 50.52 123.42">
  <defs>
    <style>
      .cls-1 {
        fill: #9f5f4d;
      }

      .cls-2 {
        fill: #e4a680;
      }

      .cls-3 {
        fill: #14120e;
      }

      .cls-4 {
        fill: #f182e4;
      }

      .cls-5 {
        fill: #160e13;
      }

      .cls-6 {
        fill: #745862;
      }

      .cls-7 {
        fill: #c28e6a;
      }

      .cls-8 {
        fill: #ca2726;
      }

      .cls-9 {
        fill: #71244a;
      }

      .cls-10 {
        fill: #902e2a;
      }

      .cls-11 {
        fill: #281a24;
      }

      .cls-12 {
        fill: #a46652;
      }

      .cls-13 {
        fill: #fee4ee;
      }

      .cls-14 {
        fill: #1b0000;
      }

      .cls-15 {
        fill: #f571e2;
      }

      .cls-16 {
        fill: #e54cb1;
      }

      .cls-17 {
        fill: #f85fd4;
      }

      .cls-18 {
        fill: #200c11;
      }

      .cls-19 {
        fill: #a85450;
      }

      .cls-20 {
        fill: #c06c54;
      }

      .cls-21 {
        fill: #f53eae;
      }

      .cls-22 {
        fill: #c6a88b;
      }

      .cls-23 {
        fill: #936255;
      }

      .cls-24 {
        fill: #983c31;
      }

      .cls-25 {
        fill: #d59677;
      }

      .cls-26 {
        fill: #7a4134;
      }

      .cls-27 {
        fill: #d3589d;
      }

      .cls-28 {
        fill: #d3ae8e;
      }

      .cls-29 {
        fill: #e5c2a2;
      }

      .cls-30 {
        fill: #891c54;
      }

      .cls-31 {
        fill: #e74ab2;
      }

      .cls-32 {
        fill: #99685a;
      }

      .cls-33 {
        fill: #876;
      }

      .cls-34 {
        fill: #c39d75;
      }

      .cls-35 {
        fill: #a56452;
      }

      .cls-36 {
        fill: #4b4a48;
      }

      .cls-37 {
        fill: #2e1204;
      }

      .cls-38 {
        fill: #c28969;
      }

      .cls-39 {
        fill: #fa7b8a;
      }

      .cls-40 {
        fill: #17110e;
      }

      .cls-41 {
        fill: #f863d8;
      }

      .cls-42 {
        fill: #7f5342;
      }

      .cls-43 {
        fill: #cf3994;
      }

      .cls-44 {
        fill: #150605;
      }

      .cls-45 {
        fill: #f5b4a1;
      }

      .cls-46 {
        fill: #f24ec3;
      }

      .cls-47 {
        fill: #643b5f;
      }

      .cls-48 {
        fill: #c61f77;
      }

      .cls-49 {
        fill: #635242;
      }

      .cls-50 {
        fill: #8e5140;
      }

      .cls-51 {
        fill: #825f4e;
      }

      .cls-52 {
        fill: #ea7cd4;
      }

      .cls-53 {
        fill: #7a113b;
      }

      .cls-54 {
        fill: #131212;
      }

      .cls-55 {
        fill: #3c192a;
      }

      .cls-56 {
        fill: #56221b;
      }

      .cls-57 {
        fill: #57364c;
      }

      .cls-58 {
        fill: #9d7a61;
      }

      .cls-59 {
        fill: #f84bba;
      }

      .cls-60 {
        fill: #191717;
      }

      .cls-61 {
        fill: #bb755e;
      }

      .cls-62 {
        fill: #a68769;
      }

      .cls-63 {
        fill: #a37d67;
      }

      .cls-64 {
        fill: #cda990;
      }

      .cls-65 {
        fill: #fb78ee;
      }

      .cls-66 {
        fill: #fd82fc;
      }

      .cls-67 {
        fill: #855e4e;
      }

      .cls-68 {
        fill: #89574a;
      }

      .cls-69 {
        fill: #d2a886;
      }

      .cls-70 {
        fill: #bb694e;
      }

      .cls-71 {
        fill: #0f0f0f;
      }

      .cls-72 {
        fill: #bf9b7c;
      }

      .cls-73 {
        fill: #8b024b;
      }

      .cls-74 {
        fill: #b86d5a;
      }

      .cls-75 {
        fill: #714161;
      }

      .cls-76 {
        fill: #bf8f74;
      }

      .cls-77 {
        fill: #bb6a50;
      }

      .cls-78 {
        fill: #9a7a64;
      }

      .cls-79 {
        fill: #7e4c3b;
      }

      .cls-80 {
        fill: #de8f79;
      }

      .cls-81 {
        fill: #74153e;
      }

      .cls-82 {
        fill: #733b2e;
      }

      .cls-83 {
        fill: #801848;
      }

      .cls-84 {
        fill: #da7f64;
      }

      .cls-85 {
        fill: #fe69ea;
      }

      .cls-86 {
        fill: #170b02;
      }

      .cls-87 {
        fill: #7b4837;
      }

      .cls-88 {
        fill: #5f4e3f;
      }

      .cls-89 {
        fill: #811749;
      }

      .cls-90 {
        fill: #634e3e;
      }

      .cls-91 {
        fill: #a68669;
      }

      .cls-92 {
        fill: #d28369;
      }

      .cls-93 {
        fill: #7b5144;
      }

      .cls-94 {
        fill: #714438;
      }

      .cls-95 {
        fill: #db2482;
      }

      .cls-96 {
        fill: #de946d;
      }

      .cls-97 {
        fill: #800a3c;
      }

      .cls-98 {
        fill: #d8af95;
      }

      .cls-99 {
        fill: #b17e73;
      }

      .cls-100 {
        fill: #77685c;
      }

      .cls-101 {
        fill: #754a3e;
      }

      .cls-102 {
        fill: #252323;
      }

      .cls-103 {
        fill: #784938;
      }

      .cls-104 {
        fill: #98594d;
      }

      .cls-105 {
        fill: #ea3c96;
      }

      .cls-106 {
        fill: #4a1411;
      }

      .cls-107 {
        fill: #ad1064;
      }
    </style>
  </defs>
  <g id="SassyGirl">
    <g>
      <path class="cls-83" d="M36.8,45.23c1.91-.37,1.75,1.59,1.22,3.12,2.59-.09,2.67,1.1.73,2.77.19.45.21.98.42,1.42,1.92,3.95,2.94,8.17,2.61,12.56-.3,2.65-1.19,2.55-1.95.01-.86.35-1.11.06-.76-.83-.57-1.26-.92-2.8-1.05-4.63-3.39-1.9-3.07-5.16-1.3-8.54-1.3-.69-1.92-1.88-1.85-3.58-1.09-1.41-1.11-2.94.88-2.3.3-.87.65-.86,1.04,0Z"/>
      <path class="cls-17" d="M39.07,64.28l-.55,1.01c-1.73.97-2.73.04-2.8-1.89-6.29,1.28-5.04-5.75-1.79-8.35-.84-.79-.3-2.04,1.6-3.75-.34-1.93.41-2.04,1.17-.19-.29,4.62,2.95,8.55,2.35,13.17Z"/>
      <path class="cls-41" d="M33.94,55.05c-1.19,1.86-2.37,5.48.1,7.03.62.23,1.19-1.72,1.1-2.13-.15-.64,1.04-1.69,1.91-.77,1.66,1.75-.29,4.67,1.48,6.1-.68,1.25-2.44.97-3.75,1.09-4.66,1.12-6.38-.23-5.18-4.05-2.66-1.51-1.57-3.37,1.04-3.99-1.31-1.86-.89-2.23,1.13-2.96.32-1.47,1.75-2.01,2.18-.32Z"/>
      <path class="cls-4" d="M33.94,55.05l-2.18.32c-1.9-.36-1.64-.91.09-1.67,1.15-.92,2.33-1.82,3.69-2.41.17,1.57-.86,2.58-1.6,3.75Z"/>
      <path class="cls-31" d="M31.76,55.38c.41,1.19.04,2.37-1.13,2.96-1.81,2.12-3.19,2.46-4.14,1.03-2.24.65-2.82.22-2.72-2.09l4.92-2.87c.82-.34,2.34-.04,3.15-.69.1.51-.26,1.18-.09,1.67Z"/>
      <path class="cls-107" d="M30.64,58.33c-.49,1.29-.83,2.63-1.04,3.99-1.14,1.73-.81,3.92-.2,5.81-.78.07-1.81-.06-2.52.34-1.44.34-2.34-.26-1.83-1.75-1.7-.47-1.75-1.23.05-1.6-1.36-4.05-.89-5.97,1.4-5.76.53-.61,1.62-.65,2.36-1.34.41-.38,1.67-1.06,1.78.31Z"/>
    </g>
    <g>
      <path class="cls-98" d="M10.81,57.35c2.69,1.28,1.89,9.51-1.03,10l1.24,1.85c-3.25,1.22-4.69.27-4.33-2.85-.1-.67.12-1.42-.03-2.07.92-2.06,1.55-4.14,1.91-6.24-.38-1.59-.85-3.25-.98-4.88,2.38-3.09,3.45-1.69,3.22,4.19Z"/>
      <path class="cls-38" d="M8.58,58.04c.28,1.17,1.42,2.1,1.04,3.65-.31,1.24-1.43,2.35-2.94,2.6-.47-2.05-.54-5.77,1.91-6.24Z"/>
      <path class="cls-64" d="M9.79,50.35c.42-2.41,1.31-2.39,2,0,.18-1.89,1.7-2,2,0,1.31,1.88.24,2.46-1.84,2.04,2.74,1.14,1.83,4.8-1.13,4.96-1.25-.67-.75-3.22-1.65-3.87-.43-.31-1.14-.29-1.57-.32-.2-2.54.13-4.76,1.25-6.87.09,1.36-.81,3.6.94,4.06Z"/>
    </g>
    <path class="cls-55" d="M33.79,26.1l1.95,5.34c-1.65-1.03-3.12-2.37-4.17-4.02-1.8-1.98-1.03-2.55,1.32-1.34l.89.02Z"/>
    <path class="cls-96" d="M28.13,20.33c2.29,1.25,3,3.97,4.77,5.75l-1.32,1.34c-.25,0-.5.03-.74.09-1.75.3-4.07-1.23-4.85-2.93-3.59-.94-.64-7.61,2.15-4.25Z"/>
    <path class="cls-25" d="M28.11,19.35l.02.97c-1.11-.01-2.78.18-3.26,1.59-.27.79.71,1.9,1.11,2.66.77.26.73.58-.04.96l-2.14-1.18c-1.05-2.34-.66-6.41,2-7,.64.81,1.45,1.45,2.32,2Z"/>
    <path class="cls-45" d="M30.83,27.51l-.78.87c-.49,2.81-1.51,2.04-2.46-.17-.68-.81-1.25-1.7-1.66-2.67l.04-.96c1.79.8,4.23.81,4.85,2.93Z"/>
    <path class="cls-86" d="M25.79,17.35c-1.23,2.2-2.44,4.44-2,7-2.01-1.11-.67-3.82-.91-6.19-.13-1.25,2.25-.77,2.91-.81Z"/>
    <g>
      <path class="cls-54" d="M14.03,24.41c4.35-.8,1.26,7.22.76,7.29-.77.11.38-4.39,2.05-2.33,2.97,1.72,2.36,5.65-1.15,5.81-.12.97-.76,1.35-1.91,1.16l-1,7c.87.28.86.62,0,1-.1,1.07-.77,1.74-2,2,.51,1.36.37,3.32-1,4-2.16,2.29-1.64-2.01-.94-4.06,1.03-1.93.49-4.79.95-6.81.59-1.16,1.02-3.09,1.92-4.08.32-1.76.67-3.44,1.07-5.04-1.01-1.31-.74-4.24,0-6l-.07-1.17,1.1-.07c1.84-.36,1.72.23.21,1.3Z"/>
      <path class="cls-3" d="M14.03,24.41c-.16-.4-.08-.89-.21-1.3.98-1.34,2.48-2.11,4-2.71.68-.27,1.3-.69,1.9-1.11.87-.74,1.88-.67,1.85.22-.12,4.1-4.35,7.52-7.54,4.9Z"/>
      <path class="cls-60" d="M11.72,35.4l.07-5.04h1c0,1.99.28,3.55-1.07,5.04Z"/>
      <path class="cls-60" d="M22.5,16.18l1.23.31c1.03-2.67,2.36-1.98,2.05.87-2.43.97-3.14,4.16-2,7,.65-1.41,1.61,0,2.14,1.18,1.6-.03,3.2,1.29,1.66,2.67.84.34.77.65-.14.95-.44,2.12-.77,4.16-.98,6.12.9.25.91.61.09,1.09-.31.88-.67.86-1.08,0-4.78.21-7.11-1.77-6.98-5.94l-1.64-1.06c-1.34.61-1.69,1.73-2.75,3,.32-3,.89-5.59-.07-7.97,1.23-.65,8.35-3.27,5.68-5.12-.14-1.02,2.13-4.74,2.79-3.12Z"/>
      <path class="cls-71" d="M25.47,36.38c-.13.88-.4.84-.8-.02-.21,1.88-2.62,3.26-3.09.98-.86.27-1.69.58-2.51.95.16,1.58-.64,2.32-2.29,2.12,1.66,1.97.75,4.35-2.74,7.16,2.33.77,2.06,2.07-.26,2.79h-2c-1.5,0-1.41-1.55,0-2-.11-1.9.22-3.23,1-4v-1c-.39-1.67.09-4.4,2-4-.53-1.47-.57-3.6.91-4.16,1.08-1.73.95-3.84,1.15-5.81.8-.36,1.22-1.32,2.31-.72,2.55,1.41.69,5.72,3.15,5.93,1.58.14,2.81.4,3.16,1.78Z"/>
      <path class="cls-102" d="M14.79,39.35l-2,4c-2.01-1.79,0-5.19,1-7,.71.44,1.04,1.44,1,3Z"/>
      <path class="cls-36" d="M11.79,48.35v2h-2c-.06-1.43.32-2.77,1-4,1.38-2,1.94.29,1,2Z"/>
      <path class="cls-60" d="M15.7,35.2c-.33,1.36-.28,2.9-.91,4.16-1.22-.46-1.05-1.91-1-3,.14-.32-.04-1.62.44-1.89.37-.2.97.83,1.47.73Z"/>
      <path class="cls-102" d="M12.79,44.35c0,1.35.51,3.35-1,4,0-.79-.1-1.78-1-2,.28-.51-.13-1.54.63-1.83.46-.18.94-.24,1.37-.17Z"/>
      <path class="cls-11" d="M27.45,29.15c1.82-.7,2.01.08.33,1.2.71,1.44.92,3.6,0,5-.41.08-.9-.13-1.32-.08-.06-1.69-1.77-1.74-3.99-2.12,1.09-2.37,3.33-2.82,4.98-4Z"/>
      <path class="cls-60" d="M21.59,37.34c-.35,1.08-.85,2.12-1.72,2.86-1.85.68-2.44-.78-.78-1.91.5-.52.86-1.57,1.62-2.11.38-.27.52,1.04.89,1.16Z"/>
      <path class="cls-13" d="M19.08,38.29l.78,1.91c.4.98-.04,2.12-.02,3.16-.95-1.05-1.82-2.22-3.05-2.96.25-.64-.02-1.53.79-1.87.44-.18,1.26.01,1.5-.25Z"/>
    </g>
    <path class="cls-81" d="M24.87,38.5c-2.63.69-.73-.73-2.91,6.78,1.18.38,1.44,1.38.77,2.99-1.31,1.09-2.34,2.46-3.08,4.12.15,2.04-.99,1.64-1.86-.03-.34-.31-.65-.64-.93-1,.42-1.98.77-4.05,1.84-5.82-1.4-2.11-1.34-2.25,1.15-2.18-1.2-1.86-1.19-2.91.02-3.16-.19-1.35.25-2.68,1.72-2.86,1.08.16,2.29-.26,3.09-.98.13.71.19,1.43.19,2.15Z"/>
    <path class="cls-16" d="M31.79,34.35c.97.64,1.93,1.49,2.04,2.56.14,1.36-.43,2.43-1.19,3.33-.59.7-1.1,1.46-1.75,2.11l.11-1.1c-.93-.19-1.34-1.48-1.22-3.87.03-.9.2-1.78.33-2.66.05-.31.14-.78.05-1.08.41.32,1.08.78,1.62.71Z"/>
    <path class="cls-17" d="M34.77,66.38c-.77.07-1.26.83-1.88,1.13-.67.33-1.53.35-2.03,1.02-.68,1.81-1.37,1.57-1.46-.39-3.38-.73-3.32-5.67.2-5.81.15.75-.12,2.94.92,3.06,2.07-.02,3.8-.89,4.26,1Z"/>
    <g>
      <path class="cls-12" d="M13.53,88.29c1.84-.33,1.17,2.83.25,4.07-1.42,3.54-2.46,7.21-3.1,11,.97,2.2.81,3.72-.47,4.55,2.91.07,3.15,2.21.57,3.45-1.61,1.02-3.01,1.39-4.21,1.1-.27-.89-.57-1.93-.93-3.13-2.01-1.55-1.81-5.59.99-5.97.52-1.26.02-2.94,1.14-4-.15-1.41.18-3.07,1-5,.24-1.68.24-3.31,0-4.87.24-1.28,1.39-2.08,2-3.13,2.34-1.37,3.25-.73,2.75,1.93Z"/>
      <path class="cls-82" d="M8.79,94.35l-.12,7.05c-1.22-.36-.91-1.34-.88-2.05-1.28-1.81-.21-3.95,0-6,1.41-1.34,1.78-.78,1,1Z"/>
      <path class="cls-26" d="M8.79,94.35c-.14-.49-.48-.9-1-1,.13-1.32.76-2.57,1-3.87,1.32-1.44,1.54,5.73,0,4.87Z"/>
      <path class="cls-103" d="M17.72,82.28c2.33,1.15,2.74,1.89.15,2.94-.25,2.27-.94,2.97-2.04,2.08-.58,1.51-1.15,2.43-2.3.99-.88-.69-1.81-1.32-2.75-1.93.44-.75-.63-2.26.22-3.2.39-.42,1.08-.78,1.85-.8,1.15.86,1.76.22,1.85-1.92l1.97-1.09c.32-.87.69-.86,1.11,0,1.12.27.76,2.15-.06,2.93Z"/>
      <path class="cls-42" d="M14.79,92.35c2.41,2.39.78,5.35-1.79,6.9-.47,1.16-2.2,2.66-2.31,4.1-2.09-3.53.82-7.96,3.1-11,.28-.87.62-.86,1,0Z"/>
      <path class="cls-80" d="M6.58,112.45c1.94-.49,1.49.67.21,1.9.69.28.68.62,0,1-1.32,1.17-2.74,2.14-3,0-1.5.74-1.94.12-.87-1.14l-.07-.58c.31-.06.79.14,1.07-.02l1.72-4.28c1.68.08.81,2.05.93,3.13Z"/>
      <path class="cls-94" d="M15.83,87.3c2.01.9,1.3,4.79-1.04,5.05h-1l-.25-4.07c.65-.55,1.46-.85,2.3-.99Z"/>
      <path class="cls-24" d="M10.79,111.35c1.48,1.53.91,2.07-1,1-.33,1.67-1,2.33-2,2-.28.87-.62.86-1,0l-.21-1.9c1.09-.56,2.97-1.55,4.21-1.1Z"/>
      <path class="cls-99" d="M3.93,113.6c-.82-1.85,1.35-2.97,1.72-4.28.38,1.61-.24,3.45-1.72,4.28Z"/>
      <path class="cls-20" d="M20.85,69.55c-.01-2.8,1.2-2.88,2.18-.24,2.78,1.12,1.87,2.85-1.05,2.31-.51,1.14-1.24,1.68-2.17,1.62-.92,1.19-1.93,1.89-3.03,2.1.54,1.21.51,3.01-.11,4,.04,1.82-.3,4.61-2.86,4.98-.71.1-.8-1.67-.96-1.98l-.07-1.01c-.63-1.32-.63-2.32,0-3,.36-3.52.73-6.96,1.09-10.32.05-1.96.86-1.85,1.26.15,1.52,2.07,3.4,1.86,5.72,1.38Z"/>
      <path class="cls-50" d="M13.88,68.03l-.08,8.38c0,1.04-.22,2.02-1.01,1.95-.91-1.53-.91-3.53,0-6v-4l.07-1.07c1.26-1.88,1.97-1.39,1.02.74Z"/>
      <path class="cls-67" d="M12.79,78.35v3c-1.73-2.3-1.73-6.7,0-9v6Z"/>
      <path class="cls-19" d="M3.79,115.35c2.25-.28,1.21,1.71,0,3-1.12.65-2.84.16-2.92-1.24l.91-2.93,1.14.03c.44.01.87.66.87,1.14Z"/>
      <path class="cls-51" d="M21.98,71.62c2.87,2.41-.35,9.36-3.07,10.74-.29-.19-.86.05-1.19-.08.02-.87-.06-2.12.06-2.93-1.17-.54-1.06-2.32,0-3-.56-1.16.96-2.35,2.03-3.1.18-1.07,1.12-1.67,2.17-1.62Z"/>
      <path class="cls-70" d="M17.79,76.35c.41,1.06.68,2.1,0,3h-1.11c-1.4-1.2-.58-2.66.11-4,1.38-1.51,2.02-.88,1,1Z"/>
      <path class="cls-106" d="M7.79,115.35c-.04,2.1-.92,3.81-3,4.12-.79.05-2.64.01-3.81-.48-.6-.25-1.81-1.12-.11-1.88,1,.35,1.99.74,2.92,1.24.44-1.73,1.23-2.58,3-3,.12-.27.03-.71,0-1h1c.85.27.83.6,0,1Z"/>
      <path class="cls-8" d="M6.79,115.35c-.61,1.32-1.61,2.5-3,3v-3h3Z"/>
      <path class="cls-14" d="M7.79,115.35c.06-.32-.09-.69,0-1,.28-.98,1.11-1.6,2-2-.01,1.17.13,2.32-.07,3.69-1-.02-1.45-.38-1.93-.69Z"/>
      <path class="cls-39" d="M20.85,69.55c-1.44.8-2.98,1.11-4.94,1.68-.21-1.19-.96-2.25-.77-3.06,1.77.92,3.75,1.22,5.72,1.38Z"/>
      <path class="cls-35" d="M19.82,73.25c-.4,1.2-.95,2.38-2.03,3.1-.17-.44-.63-.73-1-1,.62-1.22,1.49-2.08,3.03-2.1Z"/>
    </g>
    <g>
      <path class="cls-47" d="M36.72,51.11c-.37.12-.82.04-1.17.19-.83,1.42-2.18,3.62-3.69,2.41-.14,2.85-1.87,3.12-3.15.69-2.1.69-2.68.32-1.74-1.12-1.3-1.45-.66-1.92.96-.71,1.08-.98,2.37-1.72,3.87-2.22-1.19-.84-.45-1.77,2.2-2.8.14-.88.44-.86.89-.02.81-.3,1.7-.33,1.86.44.26,1.22.04,2.22-.02,3.14Z"/>
      <path class="cls-18" d="M17.79,52.35c.87.28.86.62,0,1,.9,1.63.9,2.63,0,3-.69-.21-1.36-.49-1.98-.86.21-.6,0-1.5-.02-2.14-.02-.84.81-1.39,1.07-2,.85-.38,1.13,0,.93,1Z"/>
      <path class="cls-57" d="M19.65,52.38c.68-1.18,2.38-.91,5.1.82.41-2.26,1.61-2.14,2.22.07l1.74,1.12c1.49,2.44-2.69,3.63-4.92,2.87-.06.89-.38.85-.93.03-.33.87-.68.84-1.06-.03l-1,.08c-1.82-.2-2.82-1.53-3-4v-1l1.86.03Z"/>
      <path class="cls-75" d="M31.79,50.35c-.82,1.48-2.02,2.31-3.87,2.22l-.13-1.22c-1.11-2.58.18-3.04,2-1h2Z"/>
      <path class="cls-6" d="M20.79,57.35h-3c.13-.25,0-.71,0-1v-3c1.05,1.31,1.67,2.94,3,4Z"/>
    </g>
    <g>
      <path class="cls-1" d="M41.78,65.1c-.1,1.38.21,2.78.29,4.15-.55,5.01-.19,10.06-.29,15.09.76.28.75.62,0,1-3.63-.76-4.33-3.79-2.09-9.07-2.91-.71-2.77-3.32.09-3.93.8-1.58.81-3.42,0-5-2.55.02-2.54-.73.04-2.24h1.95Z"/>
      <path class="cls-84" d="M39.83,65.11l-.04,2.24c.85,1.52.84,3.47,0,5,0,1.3-.21,2.63-.09,3.93l-1.47,6.1c-1.34-.15-2.12-1.21-2.34-3.17-.48-.12-.92-.28-1.24-.58-.37-.35-2.35-9.04-2.46-9.96-.04-.35.28-.75.7-1.16-1.08-1.54.47-2.01,1.88-1.13.42-2.68,1.82-2.47,3.75-1.09-.43-.66-.26-.99.55-1.01l.76.83Z"/>
      <path class="cls-61" d="M44.59,90.35l.19,12c.96,1.27,1,4.76-1,4-.28.87-.62.86-1,0-.9-1.59-1.12-4.23-.85-6-1.6-1.4-2.88-4.54-1.09-6.04.35-2.66.36-5.2.04-7.61-1.3-1.4-.88-2.02.9-1.35.11-.27,0-.7,0-1h1l1.81,6Z"/>
      <path class="cls-74" d="M45.79,108.35h1c-.15,3.45.66,6.92,2.03,10.09-.15,1.91-2.82,1.9-3.8.5-1.78-.65-2.57-5-1.23-6.45-.86-1.57-1.14-4.79,1.01-4.14.28-.87.62-.86,1,0Z"/>
      <path class="cls-32" d="M45.79,100.35l-1,2c-1.85-3.36-1.45-8.44-.19-12,.97,3.23,1.19,6.59,1.19,10Z"/>
      <path class="cls-87" d="M45.79,108.35h-1c-1.41.99-2.1-.91-1-2,1.52-.65.96-2.65,1-4,.03-.79.07-1.82,1-2v8Z"/>
      <path class="cls-77" d="M41.79,85.35c-.2.5-.61.9-.9,1.35-.02.85-.3.83-.79.05-.78-.71-1.6-1.51-2.48-2.39-1.33.54-2.12-1.56-1.7-2.77-1.23-.13-1.53-2.22-.05-2.38l1.65,2.26c1.1-2.18.61-4.26,2.16-5.19.28,3.17-.78,7.1,2.09,9.07Z"/>
      <path class="cls-104" d="M39.79,72.35v-5c1.64.86,1.64,4.14,0,5Z"/>
      <path class="cls-93" d="M32.89,67.51c1.78,3.67,2.12,7.75,2.99,11.7.16.72-.33,1.76.05,2.38.7,1.64.63,1.92-.89.92-1.68-.74-2.35-2.79-2.01-6.15-2.68-.79-4.03-5.75-2.17-7.82-.96-2.05.67-2.76,2.03-1.02Z"/>
      <path class="cls-10" d="M48.81,118.44c.32.75.75,1.94,1.01,2.65-.25,1.69-4.31,1.81-5.03.26-.02-.35-.35-.75-.24-1.06-1.19-1-1.13-1.57.46-1.35,1.16-.65,2.51-.65,3.8-.5Z"/>
      <path class="cls-44" d="M49.82,121.09c1.38.85.42,1.64-.19,1.9-1.31.55-2.99.46-3.84.37-.18-.26-1.06.18-1.46-.09-.3-.2-.67-.56-.45-1.15.11-.31.56-.59.92-.75l5.03-.26Z"/>
      <path class="cls-79" d="M39.68,91.37c2.2-.53,1.71,1.17,1.17,2.94.59,1.97,1,3.99,1.09,6.04.5,1.75.15,2.25-1.24,1-2.87-.13-3.47-1.4-1.87-3.75-3-.01-3.57-6.07-1.1-7.25.11-.9.43-.91.93-.1.58-.54.92-.17,1.02,1.12Z"/>
      <path class="cls-92" d="M40.85,94.31c-.3-1-.71-2-1.17-2.94-.59-1.36-.75-3.75.42-4.62.24.03.56-.13.79-.05,3.2,1.16,1.71,5.48-.04,7.61Z"/>
      <path class="cls-23" d="M43.79,106.35l1,2c-1.02,1.05-1.3,2.71-1.01,4.14-.36.86-.72.83-1.09-.05-2.49-.87-2.9-4.45-.9-6.09.28-.87.62-.86,1,0h1Z"/>
      <path class="cls-68" d="M42.79,106.35h-1c-3.03-.65-3.33-3.07-1.09-5,.43-.31.85-.64,1.24-1,1.36,1.69.84,3.96.85,6Z"/>
      <path class="cls-56" d="M43.78,112.49c.45,2.15,1.91,4.44,1.23,6.45l-.46,1.35c-2.95-.9-2.58-5.08-2.69-7.76-.05-.93.24-.92.83-.1l1.09.05Z"/>
      <path class="cls-101" d="M37.62,84.35c2.14,1.07,2.35,4.14,1.03,5.9l-.93.1c-3.04,1.41-4.63-6.17-2.69-7.86l.89-.92,1.7,2.77Z"/>
      <path class="cls-1" d="M40.1,86.75l-.42,4.62c-.21-.43-.84-.65-1.02-1.12.17-2.03.38-4.29-1.03-5.9,1.35.02,2.27,1.1,2.48,2.39Z"/>
    </g>
    <g>
      <path class="cls-43" d="M31.57,27.42c1.51.07,2.9,1.41,4.17,4.02.33.9.25,2.43-.84,2.91-.51.71-1.55.71-3.12,0-.93,2.48-1.48,1.87-1.62-.71-.97-1.06-2.16-4.66-.11-5.27-1.56-1.16-1.04-1.73.78-.87.14-.92.39-.95.74-.09Z"/>
      <path class="cls-9" d="M34.9,34.35c.26.57.03,1.54.65,1.82.81.36,1.57.26,2.23.18-1.32,1.13-3.29,3.28-3.13,5.29.39,4.11-4.03,2.02-2.02-1.4-.91-1.78-1.19-3.74-.85-5.89.43-.23.86-1.01,1.37-.81s1.53.39,1.74.81Z"/>
      <path class="cls-30" d="M34.65,41.64c.09,1.24.82,2.41,1.1,3.59-.3.64-.95,1.48-.88,2.3-.26.1-.61-.02-.89.02-1.57.06-2.74-1.57-2.95-3.03-1.11-.2-.98-1.49-.14-2.17.24-1.42.82-2.13,1.75-2.11-.04.42.02,1.33.56,1.77.33.27.99-.13,1.45-.37Z"/>
      <path class="cls-48" d="M29.78,37.38c.87,1.3.71,3.37-1.04,2.96-.73,1.31-2.52,2.86-4.22,3.04-.46,2.68-1.32,3.32-2.56,1.9-2.01-1.74-.09-9.21,2.91-6.78,1.57-.79,2.13-1.5,1.69-2.13l-.09-1.09c.12-1.96.93-1.88,1.32.08.13-.83.31-1.14,1.12-.77.12-1.99.92-1.89,1.21.14,2.39,1.16,2.32,2.19-.33,2.66Z"/>
      <path class="cls-27" d="M26.56,36.37c0,.28,1.68.27,1.66.7-.02.6-.91,1.67-1.47,1.82s-1.45.27-1.88-.39c-2.12-.29-2.19-1.01-.19-2.15l.8.02h1.08Z"/>
      <path class="cls-97" d="M30.05,28.38c.41,1.77-.41,3.55.11,5.27.54.34.51.7-.05,1.08-.37.04-.86-.26-1.21-.14-.43-1.22-.81-2.63-1.12-4.23l-.33-1.2.14-.95,2.46.17Z"/>
      <path class="cls-59" d="M28.74,40.34c1.7.3.96,1.84-.07,2.93-.75,1.32-1.75,2.35-3.01,3.08,1.82.51,2.53,2.18,2.13,5.01,1.91-.4,1.99.4.13,1.22l-.96.71-2.22-.07-.91-.85c-1.39-1.11-1.09-2.4.72-2.13-2.69-.98-2.7-3.26-.04-6.84.55-.8.53-2.03,1.19-2.55,1.03-.81,2.02-.88,3.03-.49Z"/>
      <path class="cls-52" d="M33.99,47.55c.26,1.61-1.6,1.71-2.2,2.8-.94.75-1.65,1.29-2,0-2.85-.07-2.73-2.33,0-3,.28-.87.62-.86,1,0,.64-1.62,2.4-1.45,3.2.2Z"/>
      <path class="cls-16" d="M33.99,47.55c-1.08.14-2.35.7-3.2-.2-.87-.17-.78-2.43.25-2.83,1.94-.1,2.68,1.34,2.95,3.03Z"/>
      <path class="cls-59" d="M30.89,42.35l.14,2.17-.25,2.83h-1c-1.98-.6-2.82-1.09-.91-1.76,0-3.48.71-4.93,2.12-4.34l-.11,1.1Z"/>
      <path class="cls-95" d="M24.56,50.22c-.16.57-.34,1.02-.58,1.06-2.5.4-1.12-1.5-.04-.1.18.23.08.67-.1,1.17.4.19,1.5.02.91.85-1.75.21-3.59.18-5.1-.82-1.14-2.51,1.6-4.66,2.31-7.1.7-.72,1.99-1.06,2.56-1.9.15,2.29-.36,4.56.04,6.84Z"/>
      <path class="cls-66" d="M31,41.25c-2.05,1.3-1.21,4-1.21,6.1v3l-2,1c-2.43-.08-2.32-3.4-2.13-5.01.7-1.16,1.7-2.18,3.01-3.08.14-.93-.17-2.03.07-2.93.27-.99,1-1.88,1.04-2.96,1.52.58,1.35,2.54,1.22,3.87Z"/>
      <path class="cls-89" d="M28.91,34.58c-.39.13-.68.68-1.12.77v-5c1.54.75.97,2.8,1.12,4.23Z"/>
      <path class="cls-15" d="M28.67,43.27c-.11.7.16,1.5-.33,2.13-.64.83-1.72.98-2.69.94.07-.55-.13-2.39.49-2.52l2.53-.56Z"/>
      <path class="cls-21" d="M24.56,50.22c.12.69-.61,1.48-.72,2.13-.97-.45-2.73-1.3-1.81-2.86.69.02,1.77.95,2.53.73Z"/>
    </g>
    <path class="cls-73" d="M26.88,68.48c-1.21.69-2.46.92-3.85.84-.09-.62.59-1.43.87-1.94.19-.34.89-.35,1.15-.65.91.16,1.67.82,1.83,1.75Z"/>
    <g>
      <path class="cls-53" d="M17.79,56.35c.93.28.91.61,0,1,.56.79.28,2.15-.84,4.07,1.3,4.12.7,6.38-1.81,6.76l-1.26-.15c0-.51-.48-1.1-1.02-.74.25-4.12,1.51-7.96,2.96-11.79,1.18-1.6,1.61-.87,1.98.86Z"/>
      <path class="cls-105" d="M20.79,57.35l1-.08c.46,2.92-.42,3.54-3,2.08-1.49,4.15-.26,5.43,3.38,2.64,1.19,1.96,1.77,3.76,1.73,5.39,1.58.93.59,1.34-.87,1.94-.56-.03-1.69-.04-2.18.24-2.98,1.02-4.89.57-5.72-1.38.87-3.65.95-7.45,2.66-10.83-.37-1.83.63-1.83,3,0Z"/>
      <path class="cls-46" d="M25.1,65.13c-.28.39.15,1.16-.05,1.6.73,1.54.06,1.86-1.15.65-1.03-.88-1.63-2.08-2.38-3.85-1.04.02-1.66.66-2.82,1.2-1.34-1.6-1.98-4.4.09-5.38q1.05,1.98,0,0c1.09-.51,2.05-1.37,3-2.08l1.06.03c1.62,1.51,2.37,4.12,2.25,7.83Z"/>
      <path class="cls-65" d="M26.5,59.36c-1.42,1.62-.15,4.04-1.4,5.76-2.08-1.97-2.29-5.07-2.25-7.83.31,0,.62-.05.93-.03,1.26.1,2.29.91,2.72,2.09Z"/>
      <path class="cls-85" d="M18.79,59.35c1.1.65,2.46,1.3,1.5,1.99-.83.6-.09,1.84-1.33,2.05-.39-1.8-.09-2.84-.17-4.03Z"/>
    </g>
    <g>
      <path class="cls-40" d="M43.04,31.17c-.71.12-1.53.21-2.3-.23-.95-.54-.65-1.71-.73-2.68,1.41.47,2.59,1.46,3.04,2.9Z"/>
      <g>
        <path class="cls-5" d="M38.07,25.51c.96.56,1.82,1.59,1.92,2.75.92,1.41,1.48,2.15,3.04,2.9,4.62,1.75,2.45,6.73,1.79,10.19-1.11.26-1.8-.78-2.07-3.12-.69,1.3-1.35.67-1.97-1.88-.67.94-1,.61-1-1-.59,1.11-1.23,1.8-2,1-3.16,2.59-4.32,1.06-2.88-2-1.29-1.8-1.3-2.07.84-2.91-2.35-2.22-3-4-1.95-5.34-3.23-6.09,2.11-3.21,4.28-.59Z"/>
        <path class="cls-40" d="M31.04,18.48c.81,2.32,3.69,2.21,5.78,2.92.55,1.33,1.02,2.69,1.25,4.11-.42.35-1.11.86-1.6.59-.85-.46-1.08-1.4-1.96-2.47-.78.67-.51,1.67-.72,2.46-.21.88-.51.85-.89-.02-2.54-.14-5.67-2.83-4.77-5.75-.88-.26-.87-.58-.02-.97-1.34-1.34-1.36-1.96.62-1.73,1.61-.91,2.45-1.1,2.31.86Z"/>
        <path class="cls-37" d="M40.79,36.35c.47,1.49.32,3.22-1.18,4-.9.4-1.14.03-.82-1l1-4c.38.03.73.74,1,1Z"/>
      </g>
    </g>
    <g>
      <g>
        <path class="cls-63" d="M31.04,18.48c-.79-.24-1.56-.52-2.31-.86-.82-.39-.82-.81-.04-1.27,1.54-3.06,3.59-4.39,6.13-3.99-.57,2.35-1.19,7.07-3.78,6.12Z"/>
        <path class="cls-2" d="M33.83,11.57c.05-.9.38-.94.96-.21,0,.32.11.7.03,1.01-3.91.51-2.31,4.66-6.13,3.99-4.58-2.17,1.52-7.28,5.14-4.79Z"/>
        <path class="cls-7" d="M29.73,9.07c1.65-.8,2.22-.4,2.08,1.43.84,0,1.69.19,2.02,1.06-1.23.06-2.64-.05-3.74.65-1.35.86-1.33,2.68-1.4,4.14-.02.38.19.93.04,1.27-.25.56-.63,1.1-.62,1.73-2.55,1.5-3.09.87-2.32-2-.51-.64-1.31-.69-2.05-.87-.26-.99-.34-2.06.13-3.01,2.84.07,3.94-2.62,5.87-4.4Z"/>
      </g>
      <path class="cls-78" d="M23.86,13.48c2.2,1.32,2.18,1.86-.13,3.01-.67,1.61-1.24,1.5-1.23-.31-1.56-.23-1.87-.55-.94-.96-2.62,3.03-6.6,2.28-4.86-1.73.77-1.18.49-3.07,1-4.36.43-.25.63-.7.91-1.08.2-.28.78.04.99.19l1.17-.76c.6,2.05,1.62,4.05,3.08,6Z"/>
      <path class="cls-100" d="M31.94.36c-.13.25-.09.7-.15,1-1.39,1.11-4.22,2.31-6,2-.28.87-.62.86-1,0-.87.37-1.19-.03-1.05-1.07C25.4-.61,28.9-.1,31.94.36Z"/>
      <path class="cls-33" d="M34.79,6.36c-2.08,1.02-2.42-.37-1-2-1.71,1.13-2.76-.27-2-2-.88-.25-.86-.58,0-1,1.36.06,2.65.65,3.55,2,.58.87.18,2.07-.55,3Z"/>
      <path class="cls-88" d="M36.99,9.12l-2.2,2.23c-1.96-.65-1.97-3.36,0-4-.87-.28-.86-.62,0-1,.63.18,1.47.11,1.88.7.45.63.42,1.4.32,2.07Z"/>
      <path class="cls-90" d="M22.5,16.18c-.41,2.02-1.34,3.06-2.79,3.12-.02,1.45-.69,1.95-1.9,1.11-1.29-.97-2.86-1.72-2.93-3.49-.07-1.56,1.02-2.36,1.82-3.43.79,1.61,2.22,2.27,4.29,1.18.65-.34,1.37-.21,1.48.16.14.45.07.93.03,1.35Z"/>
      <path class="cls-72" d="M31.79,6.36c.87.28.86.62,0,1-.17,1.53-.64,2.73-2.06,1.72,1.24.53-1.52,4.47-2.29,5.25-1.3,1.34-2.71.85-3.58-.85-1.44-.03-3.06-.33-4.92.78-.36-4.08,3.41-4.03.66-6.02.1-1.12,1.11-1.78,2.18-1.88,1.88-1.49,2.02-1.28,2.04,1.06l.79.26c1.57-2.46,2.91-2.88,4-1.27.11-1.1,1.09-1.49,2.17-1.04,1.41-1.33,1.92-.77,1,1Z"/>
      <path class="cls-22" d="M25.79,3.36c2.45,1.7.5,3.85-1.96,4.06-.84.09-1.5-.47-2.04-1.06-.06-.32.1-.69,0-1,.55-1.1,1.85-2.14,3-2h1Z"/>
      <path class="cls-49" d="M24.79,3.36c-.72,1.03-1.73,1.85-3,2-.54-1.71,1.42-2.13,1.95-3.07.38.33.73.69,1.05,1.07Z"/>
      <path class="cls-91" d="M31.79,1.36c-.06.32.04.67,0,1,.22.89-.11,1.22-1,1-.57,1.19-1.29,2.2-2.17,3.04-2.3.63-3.73,3.05-6.78,3.01-.07-1.45,1.65-1.07,1.99-1.99.85-1.26,1.8-2.51,1.96-4.06,1.1-2.3,3.74-2.11,6-2Z"/>
      <path class="cls-62" d="M33.79,4.36c.32,1.87-.03,2.59-2,2l-1-1c-1.65.08-1.35-1.33,0-2,.28-.38.61-.73,1-1,.57.71,1.52,1.21,2,2Z"/>
      <path class="cls-29" d="M34.79,6.36v1c-.32,2.66-1.24,2.54-2,0-.3.6-.63.58-1,0v-1c.35-.93,1.07-1.65,2-2,.34.56.11,1.74,1,2Z"/>
      <path class="cls-58" d="M34.79,7.36v4c-.32.03-.64.2-.96.21-.91-.2-1.58-.56-2.02-1.06-1.68-1.05-.61-2.36.98-3.15h2Z"/>
      <path class="cls-28" d="M30.79,3.36v2c-.52.93-1.31,1.76-2.17,1.04-.08-.7-.16-1.51.28-2.3.31-.55,1.17-.73,1.88-.74Z"/>
      <path class="cls-69" d="M32.79,7.36c-.58.95-.86,2.04-.98,3.15-.91.01-1.8-.56-2.08-1.43.66-.61,1.22-1.32,2.06-1.72h1Z"/>
    </g>
    <g>
      <path class="cls-76" d="M41.59,47.68c-.24.96-.61,2.82-1.36,3.3s-2.3,1.33-2.9.69-1.29-1.04-1.34-2.38-.45-1.99,0-2.68.64-.96,1.23-1.8,1.1-.87,1.43-.83,3.64,1.62,3.42,2.37-.48,1.33-.48,1.33Z"/>
      <path class="cls-34" d="M42.76,38.23c.76,1.6,1.02,3,.79,4.2-1.91,3.58-.53,9.51-4.8,8.69-.37-.89-.47-1.85-.73-2.77-.16-1.68.03-3.11.55-4.29-1.99-.73-1.29-4.01,1.04-3.71.12-1.36.35-3.02,1.18-4,.65.61,1.44,1.16,1.97,1.88Z"/>
      <path class="cls-76" d="M44.83,41.35c-.1.51-.93.79-1.28,1.08-.89-1.21-.86-2.75-.79-4.2.74,1,1.19,2.22,2.07,3.12Z"/>
      <path class="cls-76" d="M38.02,48.35c-.3-1.08-.79-2.1-1.22-3.12.31-.31.58-.66.82-1.02.13-.91.45-.94.95-.15,1.23,1.26.56,3.14-.55,4.29Z"/>
    </g>
  </g>
</svg>