<?xml version="1.0" encoding="UTF-8"?>
<svg id="Enemy" xmlns="http://www.w3.org/2000/svg" viewBox="0 0 108.38 41.55">
  <defs>
    <style>
      .cls-1 {
        fill: #9f5f4d;
      }

      .cls-2 {
        fill: #e4a680;
      }

      .cls-3 {
        fill: #f182e4;
      }

      .cls-4 {
        fill: #160e13;
      }

      .cls-5 {
        fill: #745862;
      }

      .cls-6 {
        fill: #c28e6a;
      }

      .cls-7 {
        fill: #ca2726;
      }

      .cls-8 {
        fill: #71244a;
      }

      .cls-9 {
        fill: #902e2a;
      }

      .cls-10 {
        fill: #a46652;
      }

      .cls-11 {
        fill: #1b0000;
      }

      .cls-12 {
        fill: #f571e2;
      }

      .cls-13 {
        fill: #e54cb1;
      }

      .cls-14 {
        fill: #f85fd4;
      }

      .cls-15 {
        fill: #200c11;
      }

      .cls-16 {
        fill: #a85450;
      }

      .cls-17 {
        fill: #c06c54;
      }

      .cls-18 {
        fill: #f53eae;
      }

      .cls-19 {
        fill: #c6a88b;
      }

      .cls-20 {
        fill: #936255;
      }

      .cls-21 {
        fill: #983c31;
      }

      .cls-22 {
        fill: #d59677;
      }

      .cls-23 {
        fill: #7a4134;
      }

      .cls-24 {
        fill: #d3589d;
      }

      .cls-25 {
        fill: #d3ae8e;
      }

      .cls-26 {
        fill: #e5c2a2;
      }

      .cls-27 {
        fill: #891c54;
      }

      .cls-28 {
        fill: #e74ab2;
      }

      .cls-29 {
        fill: #99685a;
      }

      .cls-30 {
        fill: #876;
      }

      .cls-31 {
        fill: #c39d75;
      }

      .cls-32 {
        fill: #a56452;
      }

      .cls-33 {
        fill: #2e1204;
      }

      .cls-34 {
        fill: #fa7b8a;
      }

      .cls-35 {
        fill: #17110e;
      }

      .cls-36 {
        fill: #f863d8;
      }

      .cls-37 {
        fill: #7f5342;
      }

      .cls-38 {
        fill: #cf3994;
      }

      .cls-39 {
        fill: #150605;
      }

      .cls-40 {
        fill: #f5b4a1;
      }

      .cls-41 {
        fill: #f24ec3;
      }

      .cls-42 {
        fill: #643b5f;
      }

      .cls-43 {
        fill: #c61f77;
      }

      .cls-44 {
        fill: #635242;
      }

      .cls-45 {
        fill: #8e5140;
      }

      .cls-46 {
        fill: #825f4e;
      }

      .cls-47 {
        fill: #ea7cd4;
      }

      .cls-48 {
        fill: #7a113b;
      }

      .cls-49 {
        fill: #3c192a;
      }

      .cls-50 {
        fill: #56221b;
      }

      .cls-51 {
        fill: #57364c;
      }

      .cls-52 {
        fill: #9d7a61;
      }

      .cls-53 {
        fill: #f84bba;
      }

      .cls-54 {
        fill: #bb755e;
      }

      .cls-55 {
        fill: #a68769;
      }

      .cls-56 {
        fill: #a37d67;
      }

      .cls-57 {
        fill: #fb78ee;
      }

      .cls-58 {
        fill: #fd82fc;
      }

      .cls-59 {
        fill: #855e4e;
      }

      .cls-60 {
        fill: #89574a;
      }

      .cls-61 {
        fill: #d2a886;
      }

      .cls-62 {
        fill: #bb694e;
      }

      .cls-63 {
        fill: #333;
      }

      .cls-64 {
        fill: #8b024b;
      }

      .cls-65 {
        fill: #b86d5a;
      }

      .cls-66 {
        fill: #714161;
      }

      .cls-67 {
        fill: #bf8f74;
      }

      .cls-68 {
        fill: #bb6a50;
      }

      .cls-69 {
        fill: #9a7a64;
      }

      .cls-70 {
        fill: #7e4c3b;
      }

      .cls-71 {
        fill: #de8f79;
      }

      .cls-72 {
        fill: #74153e;
      }

      .cls-73 {
        fill: #733b2e;
      }

      .cls-74 {
        fill: #801848;
      }

      .cls-75 {
        fill: #da7f64;
      }

      .cls-76 {
        fill: #fe69ea;
      }

      .cls-77 {
        fill: #170b02;
      }

      .cls-78 {
        fill: #7b4837;
      }

      .cls-79 {
        fill: #811749;
      }

      .cls-80 {
        fill: #634e3e;
      }

      .cls-81 {
        fill: #a68669;
      }

      .cls-82 {
        fill: #d28369;
      }

      .cls-83 {
        fill: #7b5144;
      }

      .cls-84 {
        fill: #714438;
      }

      .cls-85 {
        fill: #db2482;
      }

      .cls-86 {
        fill: #de946d;
      }

      .cls-87 {
        fill: #800a3c;
      }

      .cls-88 {
        fill: #b17e73;
      }

      .cls-89 {
        fill: #77685c;
      }

      .cls-90 {
        fill: #754a3e;
      }

      .cls-91 {
        fill: #784938;
      }

      .cls-92 {
        fill: #98594d;
      }

      .cls-93 {
        fill: #ea3c96;
      }

      .cls-94 {
        fill: #4a1411;
      }

      .cls-95 {
        fill: #ad1064;
      }
    </style>
  </defs>
  <g id="SassyGirl_preDefeat">
    <g id="right-leg">
      <path class="cls-82" d="M83.33,21.53c.87-.07,1.59-1.29.9-2.34s-.8-1.14-2.35-1.57-3.13-.23-3.5.45.86,1.36,1.85,1.98,2.26,1.53,3.09,1.47Z"/>
      <path class="cls-1" d="M82.09,22.3c-.7-.31-1.51-.8-2.12-.98s-1.78-.05-2.42-.3-1.54-.91-1.84-1.19-.21-1.84.49-1.93,2.11.6,3.1,1.66,5.19,2.03,4.67,2.66-.92.51-1.88.08Z"/>
      <path class="cls-1" d="M79.26,15.51c-.88-.95-1.41-1.67-2.85-1.58-1.44.09-1.76.84-1.21,1.18s2.37.24,2.83.66,1.22-.25,1.22-.25Z"/>
      <path class="cls-90" d="M81.45,15.4c-.1-.69-2.09-1.18-2.93-1.47-.84-.3-2.23-1.07-3.45-.94-1.21.13-1.84-.08-1.65.4s1.23.27,1.94.54,3.2,1,3.79,1.21,2.32.48,2.29.26Z"/>
      <path class="cls-1" d="M59.9,6.26c.77.3,1.58.55,2.34.85.08.03.15.07.22.11,3.83,2.31,7.96,4.01,11.97,5.97.37.18.77.16,1.16.08.24-.05.38.18.42.69-1.8,2.35-4.32,1.99-7.56-1.08-.51-.48-1.25-.54-1.81-.21-1.32.76-2.63-.13-2.54-1.86.02-.41-.14-.84-.46-1.13-.74-.68-1.64-1.15-2.61-1.35-.59-.13-1.19.09-1.47.57-.68,1.15-1.18.74-1.5-1.25-.04-.25,0-.5.1-.72h0c.29-.64,1.05-.93,1.75-.65Z"/>
      <path class="cls-75" d="M57.99,7.25l1.9.95c1.61-.06,3.27.75,4.27,2.04,1.11.53,2.17,1.24,3.32,1.68l4.68,3.66c-.62,1-1.8,1.19-3.56.57-.28.33-.58.62-.94.75-.44.15-8.59-1.82-9.41-2.11-.32-.11-.54-.53-.74-1.03-1.71.23-1.55-1.19-.28-1.96-2.14-1.43-1.45-2.45.43-3.43-.72.07-.95-.2-.66-.84l.99-.26Z"/>
      <path class="cls-68" d="M76.01,13.95c.35.36.55.85.82,1.26.72.37.6.58-.24.65-.89.33-1.87.66-2.95.99-.02,1.28-2.1,1.05-2.99.22-.56.92-2.45.31-2.05-.93l2.53-.39c-1.47-1.76-3.42-2.23-3.65-3.83,2.81,1.07,5.79,3.52,8.52,2.04Z"/>
      <path class="cls-92" d="M64.17,10.24l-4.27-2.04c1.33-.95,4.13.39,4.27,2.04Z"/>
      <path class="cls-83" d="M57.52,13.74c3.78.08,7.39,1.48,11.09,2.4.67.17,1.38.98,2.05.93,1.65.11,1.87.28.46,1.08-1.24,1.03-3.24.73-5.98-.91-1.65,1.81-6.38.86-7.47-1.47-2.1-.08-2.11-1.66-.14-2.03Z"/>
      <path class="cls-82" d="M83.33,18.36c-.97-.17-1.97-.25-2.94-.27-1.38-.09-3.48-.94-3.8-2.22.12-.18.09-.5.24-.65,2.16-2.07,5.31.87,6.49,3.14Z"/>
      <g>
        <path class="cls-70" d="M97.98,30.03c-.55-.12-3.71-1.64-4.28-1.89-.57-.25-3.42-1.84-4.11-1.97s-1.67-.36-2.17-.35-3.26-1.11-3.64-1.39-.75-.42-1-.85,2.18.4,3.12,1.03,3.63,1,3.83,1.17,2.86.95,3.42,1.3c.56.35,5.29,2.77,5.93,3.18.65.41.36.76.15.65s-1.26-.88-1.26-.88Z"/>
        <path class="cls-54" d="M84.1,16.39l8.03,6.48c1.35.12,3.67,2.02,2.12,2.8.43.65.24.84-.53.6-1.52-.34-3.38-1.65-4.41-2.79-1.77.19-4.51-.78-4.56-2.67-1.57-1.67-3.24-3.07-5.01-4.21-1.61.01-1.8-.59-.42-1.28-.12-.22-.46-.38-.66-.55l.53-.6,4.91,2.22Z"/>
        <path class="cls-65" d="M91.79,21.55l3.21,2.17c.15.1.28.21.42.32,2.27,1.96,6.74,4.37,9.47,5.27,1.19,1.14-.23,2.73-1.67,2.54-1.36.7-4.66-1.22-4.91-2.81-1.49-.35-3.76-1.95-2.21-2.88-.43-.65-5.09-4.87-4.32-4.62Z"/>
        <path class="cls-29" d="M91.34,21.18l.8,1.7c-3.19-.75-6.34-3.77-8.03-6.48,2.64,1.19,4.98,2.91,7.24,4.78Z"/>
        <path class="cls-78" d="M96.63,25.57l-.53.6c-.09,1.39-1.7.76-1.85-.5.37-1.26-1.25-2.03-2.12-2.8-.51-.45-1.17-1.04-.8-1.7l5.29,4.4Z"/>
        <path class="cls-9" d="M104.89,29.31c.66.22,1.68.62,2.28.85.98,1.08-1.07,3.57-2.47,3.15-.24-.18-.67-.2-.82-.44-1.28.16-1.64-.19-.65-1.02.18-1.05.89-1.86,1.67-2.54Z"/>
        <path class="cls-39" d="M107.16,30.17c1.29-.36,1.31.65,1.16,1.15-.32,1.08-1.27,2.04-1.78,2.5-.27-.04-.44.73-.83.82-.29.07-.72.09-1-.36-.14-.23-.1-.66-.02-.96l2.47-3.15Z"/>
        <path class="cls-70" d="M82.2,19.89c.81-1.6,1.67-.38,2.56.92,1.61.73,3.16,1.6,4.56,2.67,1.42.67,1.57,1.15,0,1.29-1.59,1.65-2.75,1.3-3.46-.94-1.59,1.79-5.89-1.2-5.37-3.33-.54-.56-.38-.75.42-.61-.05-.64.37-.64,1.28,0Z"/>
        <path class="cls-54" d="M94.44,27.63c-1.11.01-3.76-1.17-4.89-1.64s-4.2-.92-5.23-1.73-2.29-3.04-2.29-3.04c0,0-1.69-1.91-.63-1.92s10.24,4.58,11.77,5.54c1.53.96,1.27,2.8,1.27,2.8Z"/>
        <path class="cls-20" d="M94.25,25.67l1.85.5c.16,1.19,1.1,2.27,2.21,2.88.38.68.17.88-.61.62-.91.49-1.65-.23-2.52-.75-.93-.56-1.96-.97-1.98-2.05-.43-.65-.24-.84.53-.6l.53-.6Z"/>
        <path class="cls-60" d="M93.73,26.26l.03,1.38s-.58-.11-1.13-.33c-1.04-.41-2.31-.83-2.89-1.76-.21-.34-.39-.66-.4-.83.02-.42,0-.84-.03-1.27,1.82.14,3.05,1.68,4.41,2.79Z"/>
        <path class="cls-50" d="M98.31,29.05c2.06,1.55,4.13,1.12,5.09,2.64l-.45,1.2-3.22-1.21s-1.75-.97-2.4-1.45c-1.35-.99.98-1.17.98-1.17Z"/>
      </g>
      <path class="cls-90" d="M73.64,16.85c1.69-1.26,4.4-.18,5.42,1.59l-.25.78c.1,2.99-6.96,1.16-7.69-1.07l-.46-1.08,2.99-.22Z"/>
      <path class="cls-1" d="M76.59,15.86l3.8,2.22c-.44-.01-.86.4-1.33.35-1.68-.96-3.53-2.05-5.42-1.59.5-1.07,1.77-1.35,2.95-.99Z"/>
      <path class="cls-90" d="M79.84,20.64c-.56.28-6.08-.65-7.55-1.02-1.47-.37-7.63-.87-8.92-1.39-1.29-.52-2.02-2.98-2.02-2.98,0,0-.22-1.04,1.89-.73,2.91.43,11.59,3.57,12.81,3.73,1.22.16,4.14-.14,4.47.7s.06,1.31-.68,1.68Z"/>
      <path class="cls-11" d="M97.31,30.33c1.66,1.28,5.16,4.11,5.26,4.17s.4-.13.43-.26-.37-.77-.61-.88-3.89-2.82-4.22-3.01-.85-.02-.85-.02Z"/>
    </g>
    <g id="right-skirt">
      <path class="cls-74" d="M47.2,2.57c.35-1.71,2.08-.8,3.3.25.85-2.16,1.96-1.75,2.8.52.48.03.97.22,1.45.22,3.01,0,10.91,4.97,10.72,4.79-1.36-.03-2.9-.37-4.62-.99-2.96,2.02-5.83.45-8.29-2.36-1.1.79-2.41.82-3.94.08-1.69.33-3.09-.27-1.79-1.64-.69-.6-.56-.88.38-.86Z"/>
      <path class="cls-14" d="M65.46,8.36l.72.85c.26,1.81-.94,2.26-2.73,1.54-1.09,5.67-7.08,1.83-8.29-1.89-1.02.37-1.98-.57-2.86-2.82-1.89-.5-1.72-1.16.25-1.04,4.13,2.1,8.89,1.02,12.91,3.36Z"/>
      <path class="cls-36" d="M55.17,8.86c1.28,1.72,4.17,4.15,6.48,2.75.44-.42-1.14-1.67-1.56-1.76-.64-.13-1.18-1.53-.02-1.88,2.2-.66,4.18,2.12,6.12,1.24.9,1.06.01,2.4-.35,3.52-.65,4.27-2.51,5.14-5.57,2.62-2.34,1.58-3.66-.06-3.28-2.46-2.17.33-2.36-.16-2.3-2.11-1.23-.86-1.21-2.25.49-1.92Z"/>
      <path class="cls-3" d="M55.17,8.86l-.49,1.92c-1.02,1.42-1.43.98-1.49-.74-.43-1.31-.83-2.64-.88-4,1.49.49,2.05,1.74,2.86,2.82Z"/>
      <path class="cls-28" d="M54.68,10.78c1.24.14,2.19.92,2.3,2.11,1.29,2.33,1.11,3.6-.54,3.81-.21,2.1-.81,2.4-2.89,1.39l-.86-5.19c-.02-.81.81-1.94.5-2.86.5.13.98.68,1.49.74Z"/>
      <path class="cls-95" d="M56.98,12.89c1,.92,2.11,1.74,3.28,2.46,1.17,1.63,3.3,2.24,5.25,2.5-.21.67-.71,1.46-.6,2.2-.21,1.32-1.08,1.82-2.26.8-1.04,1.21-1.76.94-1.45-.69-4.2-.51-5.79-1.67-4.78-3.46-.37-.68-.01-1.59-.38-2.48-.2-.49-.37-1.8.92-1.33Z"/>
      <path class="cls-14" d="M66.3,11.68c-.24.73.25,1.49.28,2.18.03.75-.29,1.55.12,2.27,1.39,1.35.89,1.88-.95,1.18-2.02,2.8-6.53.76-5.25-2.51.75.16,2.65,1.29,3.17.38.81-1.9.71-3.83,2.62-3.5Z"/>
    </g>
    <g id="left-leg">
      <path class="cls-11" d="M102.43,33.16c-.5-.09-1.08-.08-1.56-.18-1.54-.33-2.55-.9-3.22-1.47,1.82.22,3.62.35,5.76.71.02.55-.53.73-.98.94Z"/>
      <path class="cls-45" d="M79.25,32.19c-1.73-.26-5.57-1.31-6.42-1.66s-3.6-.59-5.91-1.1c-2.3-.52-6.12-1.22-6.63-1.97-.51-.74-4.81-3.34-1.64-4.55,3.17-1.22,6.16-1.5,8.21-1.01,2.04.49,2.14.25,3.83.99,1.69.74,4.26,2.2,5.17,2.72s1.77,1.02,2.64,1,3.07-.1,4.68,1.03,3.95,3.17,4.83,3.71c.87.54,2.55,2.71-.36,2.27s-8.4-1.43-8.4-1.43Z"/>
      <path class="cls-10" d="M75.82,28.24c-.29-1.49,2.84-.69,4.04.14,3.48,1.43,7.1,2.57,10.86,3.41,2.21-.59,3.61-.54,3.61-.54,0,0,3.52.18,4.34,1.13.98,1.37,1.32,2.52,1,3.45-.89.14-1.93.29-3.13.47-.59.55-1.94-.02-2.69-.41-.38-.2-.8-.33-1.23-.37l-2.04-.22c-.15-.02-.3-.05-.45-.09l-3.59-1.02s-2.91-.84-4.81-1.66c-1.67-.33-3.28-.47-4.84-.41-1.27-.3-2.04-1.29-3.06-1.86-1.31-1.98-.66-2.65,1.98-2.02Z"/>
      <path class="cls-73" d="M81.74,32.53l7,.7c-.38.94-1.35.61-2.06.53-1.82.87-3.93-.17-5.96-.51-1.3-1.24-.73-1.49,1.02-.71Z"/>
      <path class="cls-23" d="M81.74,32.53c-.49.07-.91.31-1.02.71-1.31-.22-2.54-.82-3.82-1.12-1.4-1.17,5.72-.74,4.84.41Z"/>
      <path class="cls-91" d="M69.95,24.39c1.2-1.76,1.94-2.02,2.92.13,2.25.4,2.93,1,2.02,1.8,1.49.59,2.39,1.13.93,1.91-.71.64-1.35,1.33-1.98,2.02-.74-.41-2.26.31-3.17-.45-.41-.34-.75-.93-.75-1.54.88-.84.26-1.39-1.86-1.64l-1.04-1.66c-.86-.33-.84-.62.02-.88.29-.87,2.16-.42,2.91.3Z"/>
      <path class="cls-37" d="M79.89,27.58c2.43-1.72,14.98,3.74,16.46,5.91,1.14.47-7.04-1.93-5.62-1.71-3.56,1.37-7.89-1.33-10.86-3.41-.86-.3-.84-.57.02-.8Z"/>
      <path class="cls-71" d="M99.68,35.83c-.45-1.58.7-1.13,1.89,0,.3-.53.63-.49.99.08,1.13,1.15,2.07,2.36-.07,2.39.7,1.25.08,1.56-1.16.59h-.58c-.06-.25.15-.61,0-.85l-4.22-1.74c.12-1.33,2.06-.47,3.13-.47Z"/>
      <path class="cls-84" d="M74.89,26.32c.93-1.52,4.79-.63,5,1.26l-.02.8-4.04-.14c-.53-.57-.81-1.24-.93-1.91Z"/>
      <path class="cls-21" d="M96.05,31.43c1.56-1.05,4.71.4,3.6,1.83,1.65.41,2.3.99,1.94,1.76.86.3.84.57-.02.8h-1.89c-.53-.91-4.1-3.44-3.63-4.39Z"/>
      <path class="cls-88" d="M100.77,38.04c-1.86.5-2.93-1.33-4.22-1.74,1.61-.17,3.43.48,4.22,1.74Z"/>
      <path class="cls-17" d="M57.38,20.82c-2.78-.23-2.83-1.2-.19-1.76,1.18-2.12,2.87-1.25,2.27,1.03,1.12.51,1.64,1.13,1.57,1.87,1.16.84,1.84,1.7,2.02,2.59,1.22-.33,3-.15,3.97.43,1.81.12,4.57.63,4.89,2.7.09.58-1.68.5-1.99.6l-1-.03c-1.33.39-2.32.31-2.98-.25-3.49-.59-6.9-1.17-10.23-1.74-1.95-.2-1.82-.84.18-.99,2.09-1.03,1.92-2.55,1.49-4.44Z"/>
      <path class="cls-45" d="M64.87,24.91c.2,2.2,1.16,2.45,1.07,3.08-1.54.59-3.53.43-5.96-.51l-4.8-4.96,4.61-6.02,5.08,8.41Z"/>
      <path class="cls-59" d="M65.94,27.99l2.98.25c-2.32,1.18-6.69.81-8.94-.76l5.96.51Z"/>
      <path class="cls-16" d="M102.5,38.3c-.23-1.82,1.73-.82,2.98.25.62.95.1,2.27-1.3,2.22l-2.9-.97.06-.91c.02-.35.67-.63,1.16-.59Z"/>
      <path class="cls-46" d="M59.46,20.09c2.45-2.09,9.29,1.07,10.6,3.36-.2.22.03.69-.11.94-.87-.09-2.11-.13-2.91-.3-.57.88-2.33.65-2.98-.25-1.16.35-2.32-.96-3.04-1.88-1.06-.23-1.64-1.03-1.57-1.87Z"/>
      <path class="cls-62" d="M64.06,23.83c1.06-.24,2.11-.36,2.98.25l-.02.88c-1.23,1.01-2.66.23-3.97-.43-1.47-1.23-.83-1.68,1.02-.71Z"/>
      <path class="cls-94" d="M102.58,35.11c2.09.21,3.76,1.06,4.02,2.74.03.63-.04,2.1-.56,3-.26.46-1.16,1.34-1.87-.07.37-.77.78-1.52,1.3-2.22-1.71-.5-2.54-1.2-2.91-2.65-.26-.12-.7-.09-.99-.08l.02-.8c.29-.66.62-.61.99.08Z"/>
      <path class="cls-7" d="M102.56,35.91c1.3.6,2.45,1.49,2.91,2.65l-2.98-.25.07-2.39Z"/>
      <path class="cls-34" d="M57.38,20.82c.77,1.22,1.03,2.47,1.56,4.08-1.19.07-2.26.58-3.06.36.95-1.33,1.3-2.88,1.49-4.44Z"/>
      <path class="cls-32" d="M61.02,21.95c1.18.42,2.35.96,3.04,1.88-.44.1-.74.44-1.02.71-1.2-.6-2.04-1.37-2.02-2.59Z"/>
    </g>
    <g id="belt">
      <path class="cls-42" d="M53.1,3.77c-.04.38-.3.77-.3,1.15.96,1.33,2.44,3.45.72,4.35,2.55,1.28,2.11,2.96-.63,3.16-.21,2.2-.78,2.58-1.73,1.15-1.85.61-2.02-.16-.26-1.16-.46-1.38-.62-2.86-.48-4.43-1.25.75-1.81-.3-1.68-3.14-.75-.48-.61-.74.34-.82.05-.86.38-1.69,1.15-1.53,1.22.25,2.05.85,2.87,1.28Z"/>
      <path class="cls-15" d="M46.63,21.6c.61-.69.91-.54.92.4,1.85-.17,2.77.23,2.75,1.2-.47.55-.99,1.05-1.58,1.47-.46-.43-1.37-.6-1.97-.84-.78-.31-.94-1.3-1.4-1.78,0-.93.45-1.04,1.29-.45Z"/>
      <path class="cls-51" d="M47.41,19.91c-.81-1.1.12-2.54,2.8-4.34-1.91-1.28-1.31-2.33.96-2l1.73-1.15c2.84-.38,2.25,3.92.66,5.66.79.41.63.7-.35.86.66.65.5.96-.45.96l-.33.95c-.91,1.58-2.53,1.96-4.87,1.14l-.92-.4.77-1.69Z"/>
      <path class="cls-66" d="M50.42,7.98c1.03,1.34,1.31,2.77.48,4.43l-1.17-.37c-2.81-.02-2.71-1.39-.11-2.23l.8-1.83Z"/>
      <path class="cls-5" d="M52.42,20.86l-1.2,2.75c-.18-.22-.65-.28-.92-.4l-2.75-1.2c1.62-.44,3.37-.35,4.87-1.14Z"/>
    </g>
    <g id="left-skirt">
      <path class="cls-48" d="M50.69,22.32c.59-.66.89-.51.92.4.93-.14,2.07.63,3.42,2.33,4.25.58,6.09,1.98,5.53,4.22l-.59.98c-.46-.21-7.79-3.9-10.78-6.64-1.04-1.62-.21-1.68,1.51-1.29Z"/>
      <path class="cls-93" d="M52.69,20.23l.29-.86c2.85.79,3.1,1.77.82,3.32,3.26,2.9,4.88,2.4,3.65-1.74,2.23-.2,4.08.04,5.56.73,1.43-.94,1.45.05,1.46,1.5-.24.45-.65,1.39-.58,1.9-.15,2.88-1.26,4.28-3.34,4.19-3.03-2.18-6.48-3.78-8.95-6.55-1.81-.43-1.45-1.26,1.09-2.49Z"/>
      <path class="cls-41" d="M61.54,17.02s.21.1.43.17c.61.19,1.16.56,1.55,1.05,0,0,1.79.71,1.69,1.37-.09.6-1.47,1.82-2.21,2.06-1.18.5-2.5.52-4.39.43-.36.87,0,1.64.07,2.82-1.95.47-4.75-.12-4.89-2.24q2.19-.07,0,0c-.07-1.11-.51-2.25-.82-3.32l.41-.87c1.97-.73,4.79-3.06,8.14-1.48Z"/>
      <path class="cls-57" d="M56.61,16.3c.53,1,1.69-.82,2.72-.35.84.38,2.05,2.56,2.56,3.34-2.56.93-5.99.35-8.49-.79.12-.25.18-.54.31-.78.55-1,1.66-1.53,2.9-1.41Z"/>
      <path class="cls-76" d="M53.8,22.69c.99-.65,2.08-1.51,2.37-.45.25.93,1.65.81,1.39,1.93-1.8-.4-2.63-1.07-3.76-1.48Z"/>
      <path class="cls-64" d="M65.05,19.75c.14,1.39-.14,2.62-.78,3.86-.6-.17-1.07-1.11-1.43-1.57-.24-.31.04-.95-.14-1.31.51-.77,1.43-1.2,2.34-.97Z"/>
    </g>
    <g id="top">
      <g id="right-arm">
        <path class="cls-67" d="M47.86,6.01c1.16.47,3.45,1.33,3.93,1.94s1.29,1.8.39,1.93-1.51.39-3.2-.05c-1.69-.44-2.57-.43-3.36-.93s-1.1-.71-2.06-1.34-.91-.94-.82-1.12,2.61-1.56,3.53-1.17,1.59.74,1.59.74Z"/>
        <path class="cls-31" d="M36.19,2.05c2.13.11,3.93.45,5.4,1,4.18,2.36,11.85,3.61,10.12,5.82-1.17-.09-2.4-.37-3.59-.54-2.13-.49-3.9-1.1-5.3-1.81-1.23.91-5.24-.64-4.48-1.9-1.69-.54-3.73-1.25-4.83-2.07.87-.17,1.69-.44,2.68-.5Z"/>
        <path class="cls-67" d="M40.44,1.93c.63.24.84.82,1.15,1.12-1.67.1-3.59-.46-5.4-1,1.38-.08,2.97.08,4.25-.12Z"/>
        <path class="cls-67" d="M48.13,8.32c-1.4-.2-2.76-.27-4.11-.37-.34-.29-.73-.56-1.15-.83-1.11-.39-1.11-.59-.04-.61,1.78-.28,4.02.77,5.3,1.81Z"/>
      </g>
      <g id="right-vest">
        <path class="cls-35" d="M34.44,1.23c-.07.51-.19,1.09-.79,1.44-.74.43-1.77-.18-2.69-.47.8-.76,2.02-1.19,3.48-.98Z"/>
        <g>
          <path class="cls-4" d="M27.91,2.5c.76-.43,1.94-.64,3.05-.29,1.55-.11,2.38-.21,3.48-.98,1.29-1.12,3.53-.74,5.05.19,1.8,1.09,2.7,2.86,1.49,2.51,1.04.92.29,1.13-2.25.64.71.78.32.88-1.19.31.89.79,1.37,1.45.43,1.68,1.62,3.01-.1,3.23-2.59,1.19-2.01.21-2.26.12-2.51-1.59-2.67.76-4.5.56-5.48-.61-6.51-.03-2.47-2.54.53-3.04Z"/>
          <path class="cls-35" d="M19.57,4.65c2.38.29,2.99-1.66,4.18-2.78,1.38.11,2.77.28,4.16.64.22.4.52,1.04.15,1.27-.65.4-1.58.22-2.8.42.43.75,1.43.93,2.12,1.35.77.45.66.64-.24.59-.77,1.63-4.07,2.74-6.58,1.1-.46.49-.77.37-.91-.33-1.59.41-2.79.66-2.09-.57-.45-1.39.21-2.47,2.01-1.68Z"/>
          <path class="cls-33" d="M38.72,4.57c1.51.22,3.09.94,3.44,2.2.14.74-.26.76-1.14.19l-3.49-2.08c.12-.24.88-.21,1.19-.31Z"/>
        </g>
      </g>
      <path class="cls-86" d="M20.95,7.85c2.1-2.78,5.09-3.02,7.54-4.94l.85,2.17c-.1.34.14.72.12,1.07-.34,2.46-3.04,5.19-5.03,5.79-2.28,4.64-7.88-1.19-3.47-4.09Z"/>
      <path class="cls-22" d="M23.02,11.88c.73.41,2.01-.36,2.82-.62.06-.09.12-.18.17-.27.3-.39,2.79-.43,2.99.27l-3.77,2.12c-.89.23-1.98.22-3.01,0-.54-.11-1.06-.28-1.52-.52-.15-.08-.3-.15-.43-.24-.34-.21-.63-.46-.88-.73-.32-.37-.54-.79-.64-1.27-.04-.14-.06-.29-.06-.45.91-.49,1.68-1.18,2.38-1.93l.97.15c-.09.45-.16,1.01-.11,1.54.05.77.34,1.52,1.09,1.94Z"/>
      <path class="cls-40" d="M29.38,6.07l.36,1.34c.58.32.99.62,1.22.92.84,1.02-.29,1.85-2.3,2.41-1.06.69-2.16,1.23-3.29,1.52l-.94-.31c.08-.13.16-.25.23-.38,1.34-2.19,2.47-5.19,4.66-5.48.02,0,.03,0,.06-.01Z"/>
      <path class="cls-72" d="M38.53,13.95c-.02,2.72-.9.51,5.78,4.58.68-1.04,1.7-1.03,3.09.04.71,1.55,1.76,2.9,3.17,4.05,2,.39,1.32,1.38-.52,1.79-.39.24-.79.46-1.21.64-1.81-.92-3.7-1.81-5.14-3.3-2.4.8-2.52.7-1.8-1.68-2.11.67-3.12.39-3.04-.84-1.35-.17-2.52-.94-2.31-2.41.44-1,.35-2.27-.14-3.24.72.06,1.43.19,2.12.37Z"/>
      <path class="cls-49" d="M28.9,2.1l5.67-.49c-1.43,1.32-3.03,2.52-4.89,3.1-2.38,1.22-2.82.2-1.03-1.76l.25-.86Z"/>
      <path class="cls-13" d="M36.34,6.19c.87-.77,1.94-1.47,3-1.3,1.35.22,2.24,1.05,2.9,2.02.52.75,1.12,1.44,1.58,2.24l-1.04-.39c-.43.85-1.78.9-4.05.17-.86-.26-1.66-.66-2.48-1.02-.29-.13-.71-.34-1.03-.33.42-.31,1.03-.84,1.11-1.38Z"/>
      <g>
        <path class="cls-24" d="M36.37,18.51c1.21,0,3.22.94,3.31,1.89.02.08.01.16-.01.24v.02c-.34,1.08-.71.3-1.62,1.02,0,0-2.69-.11-3.24-.24-.54-.14-3.62-.57-4.7-1.48-.27-.23-.32-.47-.22-.7.3-.65,1.87-1.22,2.81-1.38.07-.02.16-.02.23-.02.79-.05,1.49.33,2.23.52.33.1.66.15,1.03.11.06,0,.12,0,.19,0Z"/>
        <g>
          <path class="cls-38" d="M28.78,5.17c1.03-1.19,1.79-2.52,4.54-3.25.94-.17,2.43.18,2.72,1.34.61.63.43,1.65-.55,3.07,2.28,1.36,1.58,1.79-.98,1.47-1.22.77-4.81-.26-5.21-.82s-.91-1.35-.52-1.81Z"/>
          <path class="cls-8" d="M36.04,3.26c.61-.16.43-1.53.43-1.53,0,0,.07-.01.18-.04,1.22-.3,2.48.15,3.31,1.09.89,1.01,2.01,1.9,3.22,2.02,4.11.34,1.28,4.32-1.74,1.74-1.91.58-3.89.51-5.95-.2-.15-.46-.85-1.02-.55-1.49.3-.47.65-1.44,1.1-1.58Z"/>
          <path class="cls-27" d="M43.17,4.79c1.24.13,2.51-.38,3.73-.45.57.4,1.29,1.2,2.11,1.27.05.27-.12.6-.14.88-.22,1.56-2.03,2.42-3.5,2.37-.39,1.06-1.64.7-2.16-.24-1.36-.48-1.95-1.18-1.77-2.09.4.11,1.31.22,1.84-.24.32-.28.04-1-.11-1.5Z"/>
          <path class="cls-43" d="M37.73,6.85c.25.34.39,1,.39,1.99,1.36-.61,3.27-.15,2.81,1.32-.03.07-.07.14-.09.22,1.16.96,2.38,2.99,2.25,4.69,1.81.66,2.58,1.33,2.3,2.01-.1.29-.4.57-.88.86-1.71,1.38-6.8-.57-6.86-2.71-.02-.45.19-.91.7-1.35-.49-1.63-1.07-2.31-1.73-2.06-.02.02-.04.02-.06.02l-1.1-.11c-1.9-.46-1.69-1.25.31-1.29-.79-.27-1.07-.51-.56-1.24-1.94-.47-1.69-1.24.35-1.17.04-.04.07-.1.11-.14.29-.38.56-.68.8-.89.14-.13.29-.23.42-.29.36-.19.64-.14.85.14Z"/>
          <path class="cls-24" d="M37.54,10.32c.59.13,1.48,1.19,1.53,1.77.04.57.01,1.47-.72,1.78-.23.69-.46,1.15-.7,1.35-.08.08-.16.11-.24.12-.39.07-.79-.49-1.21-1.66l.16-.78.19-1.06s.04,0,.06-.02c.25-.18.53-1.58.92-1.49Z"/>
          <path class="cls-87" d="M35.47,7.89h0s.05.09.08.15c-.03.38-.41.8-.35,1.17-1.28.21-2.73.33-4.36.36l-1.24.11-.91-.3.6-2.4c1.81-.08,3.42,1.04,5.21.82.39-.43.72-.39.97.09Z"/>
          <path class="cls-53" d="M40.84,10.38c.59-1.62,1.98-.62,2.87.59,1.17.97,2,2.14,2.5,3.51.83-1.7,2.59-2.1,5.3-1.21-.05-1.95.75-1.89,1.22.08l.53,1.07-.46,2.17-1,.74c-1.33,1.17-2.55.65-1.97-1.08-1.44,2.47-3.68,2.08-6.74-1.17-.69-.68-1.9-.88-2.3-1.63-.61-1.15-.51-2.14.05-3.06Z"/>
          <path class="cls-47" d="M48.87,6.49c1.63.03,1.4,1.87,2.37,2.66.57,1.06.98,1.85-.35,1.97-.57,2.8-2.77,2.28-2.95-.53-.81-.43-.74-.76.18-.98-1.48-.92-1-2.62.76-3.11Z"/>
          <path class="cls-13" d="M48.87,6.49c-.05,1.08.28,2.43-.76,3.11-.32.82-2.53.34-2.74-.74.24-1.92,1.79-2.4,3.5-2.37Z"/>
          <path class="cls-53" d="M43.2,8.62l2.16.24,2.74.74-.18.98c-.94,1.84-1.57,2.59-1.9.59-3.43-.61-4.73-1.56-3.9-2.86l1.07.3Z"/>
          <path class="cls-85" d="M49.83,16.24c.53.26.94.51.94.76-.05,2.53-1.68.84-.1.02.26-.13.67.04,1.14.3.26-.36.28-1.47,1-.74-.1,1.76-.46,3.56-1.71,4.88-2.67.68-4.3-2.4-6.59-3.53-.58-.81-.7-2.15-1.42-2.86,2.28.25,4.43,1.16,6.74,1.17Z"/>
          <path class="cls-58" d="M42.14,8.32c.92,2.24,3.72,1.9,5.79,2.27l2.95.53.63,2.14c-.51,2.38-3.75,1.69-5.3,1.21-1.02-.89-1.85-2.06-2.5-3.51-.89-.3-2.03-.19-2.87-.59-.92-.44-1.67-1.32-2.73-1.54.84-1.4,2.74-.88,4.02-.52Z"/>
          <path class="cls-79" d="M35.21,9.2c.06.41.56.79.56,1.24l-4.92-.88c1.01-1.38,2.93-.46,4.36-.36Z"/>
          <path class="cls-12" d="M43.71,10.97c.67.23,1.5.1,2.04.7.7.78.66,1.87.45,2.81-.53-.16-2.37-.3-2.4-.92l-.1-2.59Z"/>
          <path class="cls-18" d="M49.83,16.24c.7,0,1.35.86,1.97,1.08-.62.87-1.76,2.45-3.13,1.28.14-.68,1.25-1.58,1.16-2.36Z"/>
        </g>
        <path class="cls-87" d="M46.31,20.88c.04.68-1.04.8-1.04.8-1.42-.35-1.78.23-3.48,0-1.71-.23-4.25,1.16-6.14,1.01-.87-.06-1.63-.05-2.27-.01-.75.03-1.35.09-1.85.11-.02,0-.05,0-.08,0-.63.02-1.69-.04-2.42-.35-.38-.16-.66-.39-.77-.72-.3-.98-2.09-3.8-.38-3.17.24.08.52.18.82.29.36.14.75.28,1.17.42,1.77.6,3.88,1.29,4.83,1.53.97.24,2.79-.17,4.13-.34.31-.04.59-.06.83-.05.16,0,.31,0,.43.04.6.14,2.57.04,4.12.06,1.13.02,2.05.1,2.08.38Z"/>
        <path class="cls-43" d="M43.73,21.04c.74-.72,1.85-2.1.42-2.34-1.43-.24-5.7-.18-6.21-1.29s-1.38-1.46-1.73-1.28-1.37,1.8-.95,2.85c.43,1.04,7.96,2.56,8.47,2.06Z"/>
        <path class="cls-24" d="M37.19,12.95c.16.36.21,1.4.22,2.39,0,.48.01.94.02,1.31h0c0,.07,0,.13,0,.19.02.65-.53,1.22-1.06,1.66-.37.31-.74.55-.91.72-.42.41-1.84-.2-2.06-.51-.2-.3-.35-.57-.48-.85-.33-.83-.31-1.73-.03-3.61.37-2.51,2.24-1.98,3.28-2.07.14-.02.24-.02.33-.02.64,0,.47.29.69.79Z"/>
        <g>
          <path class="cls-38" d="M30.85,9.56l4.92.88c-2,.04-2.21.82-.31,1.29l1.1.11-.06.32c-.09,0-.19,0-.33.02-1.03.1-2.91-.44-3.28,2.07-.28,1.88-.3,2.78.03,3.61-.07,0-.15,0-.23.02-.93.16-2.51.73-2.81,1.38-.42-.15-.81-.29-1.17-.42-1.07-.71-2.38-1.16-3.83-1.1-.11-.48-.29-.71-.54-.69.94-1.34.26-2.09-1.57-2.12-.04-1.06-.57-1.89-1.55-2.49,1.03.22,2.11.23,3.01,0l.1-.13c.79-.97,1.78-1.79,2.94-2.25.49-.19.96-.42,1.42-.68l.91.3,1.24-.11Z"/>
          <path class="cls-87" d="M30.77,18.53c-.76-.39-1.7-1.88-2.59-2.41s-3.24-1.04-4.23-2.06c-1-1.03-1.72-1.89-2.41-1.54s-1.55.64-.64,2.21,1.45,2.89,2.73,3.36,5.3,1.31,5.79,1.74c.49.43,2.06.47,2.36.42s.43-.77-.12-1.03-.88-.69-.88-.69Z"/>
        </g>
      </g>
      <path class="cls-77" d="M22.13,14.39c.14.82,4.59,3.08,4.83,4.33.49,2.53-3.02,4.32-1.72,5.48-2.27.39-2.91-2.56-4.58-4.26-.88-.9.99-5.1,1.47-5.55Z"/>
      <g id="left-arm">
        <path class="cls-31" d="M53.8,17.28c-1.37.77-2.75,1.4-4.11,2.04-.42.2-.78.51-1.03.9-.2.32-.42.64-.66.97-1.17.99-1.07,1.23.23.75,2.28-.49,4.51-2.8,5.57-4.66Z"/>
        <path class="cls-67" d="M55.89,19.9c1.28-.69,3.8-1.96,4.2-2.69s1.01-2.17-.14-2.18-1.98-.22-3.91.51c-1.93.72-3.02.84-3.83,1.51-.81.66-1.13.94-2.1,1.77-.97.83-.82,1.16-.64,1.36s3.71,1.34,4.71.78c.99-.56,1.72-1.04,1.72-1.04Z"/>
        <path class="cls-31" d="M41.81,28.24c1.37-.25,3.08-.12,4.29-.66,1.08-.49,1.68-1.64,2.46-2.06,4.45-3.37,13.55-6.07,10.74-8.29-1.42.3-2.85.81-4.28,1.21-2.49.91-4.49,1.89-6,2.93-1.8-.83-4.96,2.9-4.96,2.9,0,0-4.23,2.04-5.34,3.16,1.12.05,1.84.9,3.09.81Z"/>
        <path class="cls-67" d="M47.68,26.47c.74-.46.86-1.25,1.18-1.71-2.15.3-4.45,1.49-6.62,2.64,1.77-.24,3.76-.85,5.43-.92Z"/>
      </g>
      <g id="left-vest">
        <path class="cls-35" d="M40.54,28.03c-.17-.65-.4-1.38-1.23-1.74-1.02-.45-2.25.49-3.39,1,1.14.87,2.77,1.24,4.63.75Z"/>
        <path class="cls-4" d="M31.94,27.35c1.04.45,2.6.54,3.98-.07,2.01-.09,3.1-.07,4.63.75,1.82,1.25,4.65.43,6.48-.99,2.15-1.67,3.06-4.09,1.55-3.45,1.2-1.33.21-1.5-3-.49.8-1.11.28-1.18-1.57-.22.39-.43-2,.27-2.6-.29-1.31-1.24-3.14-1.75-4.93-1.53l-5.75-2.22c-1.05-.41-2.23.05-2.75,1.04l-.64,1.24s.66,6.03,4.6,6.24Z"/>
        <path class="cls-63" d="M22.5,18.48c.79-.39,2.35-1.89,3.43-1.39.68.32,1.11,1.73,1.61,1.82.81.13,1.4,1.31,2.06,1.67,0,0,.01,0,.01,0,.83.46,1.48,1.07,1.85,1.73.1.17.19.35.24.53,1.18.08.04,2.56.81,3.18.44.35-.06,1.12-.4,1.61-1.85.23-3.66.22-5.45.13-.87-1.06-3.39-3.66-5.07-5.36-.94-.96-.91-2.5.07-3.42.41-.38.76-.64.86-.5Z"/>
        <path class="cls-33" d="M45.57,23.1c1.91-.5,3.85-1.66,4.11-3.34.08-.97-.45-.95-1.5-.08l-4.19,3.2c.19.29,1.16.15,1.57.22Z"/>
      </g>
    </g>
    <g id="head">
      <g>
        <path class="cls-56" d="M18.06,3.49c0,.78-.05,1.57-.16,2.34-.13.85-.52.97-1.14.38-3.2-.58-4.97-2.08-5.3-4.5,2.29-.12,6.74-.08,6.6,1.79Z"/>
        <path class="cls-2" d="M11.03,2.5c-.93.22-1.08-.1-.51-.92.33-.1,2.2.03,2.54.01,1.71,3.85,3.97.59,4.45,4.72-.83,5.36-7.93.66-6.48-3.81Z"/>
        <path class="cls-6" d="M9.72,7.46c-1.33-1.45-1.09-2.16.83-2.57-.27-.86-.32-1.79.47-2.4.44,1.24.76,2.73,1.81,3.64,1.29,1.12,3.15.55,4.67.18.4-.1.89-.48,1.29-.42.65.08,1.32.31,1.97.1,2.32,2.16,2.57,3.71-.61,3.8-.5.71-1.04.74-1,1.57-.94.57-2.01.98-3.12.79-.8-2.93-3.9-3.24-6.31-4.68Z"/>
      </g>
      <path class="cls-69" d="M16.03,12.15c.69-2.66,1.24-2.8,3.12-.79,1.86.2,1.92.82.06,1.36.24,1.67,0,2.09-.7,1.26,3.91,1.76,4.36,6.07-.3,5.52-1.45-.43-3.3.44-4.78.3-.39-.36-.91-.44-1.38-.6-.35-.12-.2-.81-.1-1.08l-1.14-.97c1.92-1.24,3.66-2.9,5.21-4.99Z"/>
      <path class="cls-89" d="M.06,7.97c-.16-.71,0-1.46.42-2.05.53-.74,1.21-1.64,1.33-1.55.33.26-.84,3.36-.64,3.34,1.34.94,3.07,2.93,3.68,4.69.15.44.49.75.89.99.26.16.13.46-.38.9.65.78.33,1.23-.78,1.4C1.92,15.06.56,10.21.06,7.97Z"/>
      <path class="cls-30" d="M5.86.92c1.68,1.82-.12,4.78-2.22,3.82,1.68,1.4.57,2.91-1.44,2.66.02.98-.33,1.06-1.03.31-.35-1.42-.15-2.92.97-4.25.72-.86,2.54-3,3.71-2.53Z"/>
      <path class="cls-25" d="M7.56,0l2.96,1.58c-.07,2.21-2.85,3.05-4.1,1.22-.02.98-.37,1.07-1.03.31,0-.71-.34-1.54.14-2.14.51-.65,1.31-.86,2.02-.96Z"/>
      <path class="cls-80" d="M19.54,11.85c.19-.02.39-.04.57-.04.14-.02.29-.02.43-.02.6,0,1.14.05,1.6.17,1.09.28,1.8.9,2.14,1.87,1.71-.49,2.55,0,2.05,1.52-.01.06-.03.13-.06.2-.45,1.08-.78,2.24-1.44,3.14-.42.62-1,1.11-1.86,1.4-1.65.57-2.89-.08-4.22-.58-.19-.07-.39-.14-.58-.2,1.71-1.47,2.04-3.31.02-5.23-.64-.6-.71-1.45-.3-1.71.51-.31,1.12-.42,1.65-.53Z"/>
      <path class="cls-26" d="M6.31,6.18c.02-.98.37-1.07,1.03-.31,1.62-.3,3-.18,2.39,1.58.16-1.44,5.05.2,6.09.74,1.78.93,1.7,2.52.22,3.94.4,1.49.59,3.24,2.3,4.81-4.07,1.62-5.18-2.27-6.38,1.15-1.18.24-2.16-.6-2.6-1.66-2.11-1.48-1.93-1.68.46-2.42l.02-.89c-3-.87-3.84-2.11-2.53-3.72-1.16.22-1.87-.66-1.73-1.91-1.79-1.04-1.37-1.74.72-1.33Z"/>
      <path class="cls-19" d="M5.06,13.26c1-3.03,3.8-1.69,4.76.77.35.84-.02,1.68-.46,2.42-.31.16-.74.11-1.03.31-1.3-.23-2.76-1.25-2.97-2.47l-.31-1.03Z"/>
      <path class="cls-44" d="M5.36,14.28c1.28.42,2.42,1.21,2.97,2.47-1.59,1.07-2.62-.8-3.74-1.07.22-.49.48-.95.78-1.4Z"/>
      <path class="cls-81" d="M1.18,7.71c.35-.03.68-.24,1.03-.31.85-.5,1.29-.26,1.33.72,1.4.22,2.66.65,3.78,1.3,1.35,2.16,4.26,2.9,5.15,6.05-1.47.51-1.6-1.37-2.65-1.44-1.55-.48-3.12-1.08-4.76-.77-2.7-.42-3.3-3.19-3.88-5.55Z"/>
      <path class="cls-55" d="M3.64,4.74c1.82-.9,2.67-.76,2.66,1.44l-.72,1.33c.58,1.67-.95,1.79-2.05.61-.48-.17-.93-.4-1.33-.72.55-.81.78-1.93,1.44-2.66Z"/>
      <path class="cls-26" d="M5.39,3.11l1.03-.31c2.82-.48,2.99.5.61,2.05.7.12.79.47.31,1.03l-1.03.31c-1.06-.08-2.02-.59-2.66-1.44.47-.52,1.75-.64,1.75-1.64Z"/>
      <path class="cls-52" d="M6.42,2.8l4.1-1.22c.13.32.4.6.51.92.07.99-.09,1.79-.47,2.4-.57,2.04-2.23,1.35-3.53-.04l-.61-2.05Z"/>
      <path class="cls-25" d="M3.53,8.13l2.05-.61c1.12.25,2.2.81,1.73,1.91-.69.3-1.5.63-2.45.41-.65-.15-1.1-.98-1.33-1.71Z"/>
      <path class="cls-61" d="M7.03,4.85c1.16.31,2.36.26,3.53.04.29.93-.03,2.02-.83,2.57-.82-.49-1.73-.85-2.39-1.58l-.31-1.03Z"/>
    </g>
  </g>
</svg>