<?xml version="1.0" encoding="UTF-8"?>
<svg id="Enemy" xmlns="http://www.w3.org/2000/svg" viewBox="0 0 35.13 114.15">
  <defs>
    <style>
      .cls-1 {
        fill: #9f5f4d;
      }

      .cls-2 {
        fill: #e4a680;
      }

      .cls-3 {
        fill: #f182e4;
      }

      .cls-4 {
        fill: #160e13;
      }

      .cls-5 {
        fill: #745862;
      }

      .cls-6 {
        fill: #c28e6a;
      }

      .cls-7 {
        fill: #ca2726;
      }

      .cls-8 {
        fill: #71244a;
      }

      .cls-9 {
        fill: #902e2a;
      }

      .cls-10 {
        fill: #a46652;
      }

      .cls-11 {
        fill: #1b0000;
      }

      .cls-12 {
        fill: #f571e2;
      }

      .cls-13 {
        fill: #e54cb1;
      }

      .cls-14 {
        fill: #f85fd4;
      }

      .cls-15 {
        fill: #200c11;
      }

      .cls-16 {
        fill: #a85450;
      }

      .cls-17 {
        fill: #c06c54;
      }

      .cls-18 {
        fill: #f53eae;
      }

      .cls-19 {
        fill: #c6a88b;
      }

      .cls-20 {
        fill: #936255;
      }

      .cls-21 {
        fill: #983c31;
      }

      .cls-22 {
        fill: #d59677;
      }

      .cls-23 {
        fill: #7a4134;
      }

      .cls-24 {
        fill: #d3589d;
      }

      .cls-25 {
        fill: #d3ae8e;
      }

      .cls-26 {
        fill: #e5c2a2;
      }

      .cls-27 {
        fill: #891c54;
      }

      .cls-28 {
        fill: #e74ab2;
      }

      .cls-29 {
        fill: #99685a;
      }

      .cls-30 {
        fill: #876;
      }

      .cls-31 {
        fill: #c39d75;
      }

      .cls-32 {
        fill: #a56452;
      }

      .cls-33 {
        fill: #2e1204;
      }

      .cls-34 {
        fill: #fa7b8a;
      }

      .cls-35 {
        fill: #17110e;
      }

      .cls-36 {
        fill: #f863d8;
      }

      .cls-37 {
        fill: #7f5342;
      }

      .cls-38 {
        fill: #cf3994;
      }

      .cls-39 {
        fill: #150605;
      }

      .cls-40 {
        fill: #f5b4a1;
      }

      .cls-41 {
        fill: #f24ec3;
      }

      .cls-42 {
        fill: #643b5f;
      }

      .cls-43 {
        fill: #c61f77;
      }

      .cls-44 {
        fill: #635242;
      }

      .cls-45 {
        fill: #8e5140;
      }

      .cls-46 {
        fill: #825f4e;
      }

      .cls-47 {
        fill: #ea7cd4;
      }

      .cls-48 {
        fill: #7a113b;
      }

      .cls-49 {
        fill: #3c192a;
      }

      .cls-50 {
        fill: #56221b;
      }

      .cls-51 {
        fill: #57364c;
      }

      .cls-52 {
        fill: #9d7a61;
      }

      .cls-53 {
        fill: #f84bba;
      }

      .cls-54 {
        fill: #bb755e;
      }

      .cls-55 {
        fill: #a68769;
      }

      .cls-56 {
        fill: #a37d67;
      }

      .cls-57 {
        fill: #fb78ee;
      }

      .cls-58 {
        fill: #fd82fc;
      }

      .cls-59 {
        fill: #855e4e;
      }

      .cls-60 {
        fill: #89574a;
      }

      .cls-61 {
        fill: #d2a886;
      }

      .cls-62 {
        fill: #bb694e;
      }

      .cls-63 {
        fill: #333;
      }

      .cls-64 {
        fill: #8b024b;
      }

      .cls-65 {
        fill: #b86d5a;
      }

      .cls-66 {
        fill: #714161;
      }

      .cls-67 {
        fill: #bf8f74;
      }

      .cls-68 {
        fill: #bb6a50;
      }

      .cls-69 {
        fill: #9a7a64;
      }

      .cls-70 {
        fill: #7e4c3b;
      }

      .cls-71 {
        fill: #de8f79;
      }

      .cls-72 {
        fill: #74153e;
      }

      .cls-73 {
        fill: #733b2e;
      }

      .cls-74 {
        fill: #801848;
      }

      .cls-75 {
        fill: #da7f64;
      }

      .cls-76 {
        fill: #fe69ea;
      }

      .cls-77 {
        fill: #170b02;
      }

      .cls-78 {
        fill: #7b4837;
      }

      .cls-79 {
        fill: #811749;
      }

      .cls-80 {
        fill: #634e3e;
      }

      .cls-81 {
        fill: #a68669;
      }

      .cls-82 {
        fill: #d28369;
      }

      .cls-83 {
        fill: #7b5144;
      }

      .cls-84 {
        fill: #714438;
      }

      .cls-85 {
        fill: #db2482;
      }

      .cls-86 {
        fill: #de946d;
      }

      .cls-87 {
        fill: #800a3c;
      }

      .cls-88 {
        fill: #b17e73;
      }

      .cls-89 {
        fill: #77685c;
      }

      .cls-90 {
        fill: #754a3e;
      }

      .cls-91 {
        fill: #784938;
      }

      .cls-92 {
        fill: #98594d;
      }

      .cls-93 {
        fill: #ea3c96;
      }

      .cls-94 {
        fill: #4a1411;
      }

      .cls-95 {
        fill: #ad1064;
      }
    </style>
  </defs>
  <g id="SassyGirl_defeat">
    <path class="cls-11" d="M32.72,105.57c-.25,2.08-.89,6.53-.89,6.65s.32.28.45.23.48-.71.45-.98.42-4.79.42-5.17-.42-.74-.42-.74Z"/>
    <g>
      <path class="cls-82" d="M29.91,86.51c.5.71,1.92.7,2.47-.42s.57-1.27.15-2.82-1.41-2.81-2.18-2.77-.73,1.43-.75,2.61-.16,2.73.32,3.41Z"/>
      <path class="cls-1" d="M28.62,85.85c-.09-.76-.08-1.7-.25-2.32s-.87-1.56-.98-2.23-.01-1.79.08-2.2,1.47-1.12,1.91-.57.56,2.12.16,3.51.91,5.5.11,5.38-.91-.53-1.03-1.57Z"/>
      <path class="cls-1" d="M33,79.94c.36-1.25.71-2.07-.1-3.26s-1.62-1.09-1.63-.43,1.01,2.16.89,2.77.84.92.84.92Z"/>
      <path class="cls-90" d="M34.22,81.76c.54-.44-.06-2.39-.23-3.27s-.22-2.47-.95-3.44-.88-1.62-1.19-1.22.4,1.2.53,1.95.78,3.26.9,3.88.78,2.24.95,2.1Z"/>
      <path class="cls-1" d="M31.04,58.56c.13.82.34,1.63.46,2.45.01.08.02.17.02.25-.02,4.47.63,8.89,1,13.34.03.41.26.74.53,1.03.17.18.04.42-.38.71-2.94-.34-3.92-2.69-2.94-7.05.15-.68-.18-1.35-.75-1.67-1.33-.74-1.24-2.32.3-3.13.37-.19.65-.55.74-.98.21-.98.15-2-.17-2.94-.19-.57-.68-.98-1.24-.98-1.34,0-1.24-.64.31-1.92.19-.16.43-.26.67-.29h0c.69-.08,1.34.43,1.46,1.17Z"/>
      <path class="cls-75" d="M29.21,57.44l.16,2.12c.87,1.35,1.03,3.19.44,4.72.11,1.23.05,2.5.26,3.71l-.75,5.89c-1.18-.01-1.95-.94-2.31-2.77-.43-.07-.83-.18-1.12-.43-.35-.3-2.83-8.31-3-9.16-.07-.33.18-.73.51-1.16-1.07-1.35.23-1.94,1.54-1.24.13-2.57,1.36-2.51,3.16-1.38-.43-.59-.31-.91.39-1l.73.71Z"/>
      <path class="cls-68" d="M32.67,76.34c-.13.49-.45.91-.66,1.36.05.81-.19.81-.68.12-.74-.6-1.52-1.27-2.36-2.02-1.11.64-1.98-1.27-1.71-2.45-1.08,0-1.52-1.95-.25-2.24l1.63,1.98c.76-2.16.16-4.08,1.42-5.1.52,2.96-.06,6.77,2.61,8.36Z"/>
      <path class="cls-92" d="M29.8,64.27l-.44-4.72c1.5.66,1.78,3.75.44,4.72Z"/>
      <path class="cls-83" d="M23.39,60.35c1.86,3.29,2.51,7.11,3.62,10.75.2.66-.13,1.69.25,2.24.75,1.48.72,1.75-.7.95-1.52-.54-2.28-2.41-2.28-5.61-2.4-.49-4-5.04-2.56-7.17-1.01-1.84.34-2.66,1.67-1.16Z"/>
      <path class="cls-82" d="M32.64,84.88c-.35-.92-.79-1.82-1.27-2.67-.63-1.23-.98-3.47-.04-4.4.21,0,.48-.18.68-.12,2.88.79,1.97,5.01.63,7.19Z"/>
      <g>
        <path class="cls-70" d="M30.11,103.45c-.18-.54-.49-4.02-.57-4.64s-.17-3.88-.41-4.54-.55-1.62-.81-2.04-.71-3.37-.67-3.84-.02-.86.22-1.29.78,2.08.71,3.21,1,3.63.96,3.89.65,2.94.63,3.61.32,5.96.3,6.73-.47.7-.48.47.11-1.53.11-1.53Z"/>
        <path class="cls-54" d="M34.72,84.55l-1.45,10.22c.58,1.22.15,4.19-1.32,3.25-.34.7-.6.64-.78-.15-.49-1.48-.31-3.75.14-5.22-1.07-1.42-1.64-4.27-.04-5.29.63-2.21.98-4.36,1.05-6.46-.83-1.38-.42-1.84.88-1.01.12-.22.09-.59.13-.85l.78.15.61,5.36Z"/>
        <path class="cls-65" d="M34.23,93.79l-.22,3.87c-.01.18-.03.35-.06.53-.52,2.95-.3,8.02.32,10.83-.37,1.6-2.46,1.2-3.04-.13-1.3-.81-1.34-4.62-.1-5.65-.46-1.46-.25-4.23,1.34-3.37.34-.7,1.58-6.86,1.76-6.07Z"/>
        <path class="cls-29" d="M34.32,93.21l-1.05,1.55c-.99-3.12,0-7.38,1.45-10.22.33,2.88.05,5.77-.4,8.67Z"/>
        <path class="cls-78" d="M33.25,100.01l-.78-.15c-1.24.63-1.52-1.07-.51-1.84,1.28-.33,1.1-2.11,1.32-3.25.12-.66.3-1.54,1.05-1.55l-1.07,6.79Z"/>
        <path class="cls-9" d="M34.26,109.02c.15.68.32,1.76.43,2.39-.42,1.4-3.61.91-3.97-.51.03-.3-.17-.68-.05-.93-.8-1.02-.67-1.5.54-1.08,1-.38,2.05-.19,3.04.13Z"/>
        <path class="cls-39" d="M34.69,111.41c.97.93.11,1.46-.4,1.58-1.09.27-2.4-.04-3.05-.25-.11-.25-.85,0-1.13-.29-.21-.22-.45-.57-.2-1.05.13-.24.52-.42.82-.5l3.97.51Z"/>
        <path class="cls-70" d="M30.74,84.7c1.79-.13,1.18,1.24.52,2.67.2,1.75.25,3.53.04,5.29.15,1.56-.18,1.94-1.1.67-2.23-.52-2.52-1.7-.96-3.45-2.35-.45-1.98-5.67.11-6.32.21-.75.45-.71.74.05.52-.38.74,0,.65,1.1Z"/>
        <path class="cls-54" d="M30.36,99.18c-.58-.94-.92-3.83-1.09-5.04s-1.36-4.08-1.19-5.38,1.44-3.52,1.44-3.52c0,0,.78-2.43,1.32-1.52s1.31,11.14,1.27,12.95-1.75,2.53-1.75,2.53Z"/>
        <path class="cls-20" d="M31.95,98.02l.51,1.84c-.94.74-1.38,2.11-1.34,3.37-.39.68-.67.6-.85-.2-.89-.53-.65-1.54-.64-2.55,0-1.08-.17-2.18.75-2.75.34-.7.6-.64.78.15l.78.15Z"/>
        <path class="cls-60" d="M31.18,97.87l-1.17.73s-.2-.55-.3-1.14c-.18-1.1-.47-2.41.03-3.38.18-.36.37-.67.51-.76.37-.2.73-.43,1.08-.67.81,1.63.11,3.48-.14,5.22Z"/>
        <path class="cls-50" d="M31.12,103.23c-.27,2.57,1.15,4.12.34,5.73l-1.26.23-.61-3.39s-.06-2,.02-2.81c.16-1.67,1.51.24,1.51.24Z"/>
      </g>
      <path class="cls-90" d="M28.97,75.8c1.95.81,2.4,3.69,1.41,5.47l-.8.18c-2.52,1.61-4.56-5.39-3.02-7.16l.7-.95,1.71,2.45Z"/>
      <path class="cls-1" d="M31.33,77.82l.04,4.4c-.22-.38-.79-.53-.98-.96-.03-1.93-.04-4.08-1.41-5.47,1.17-.11,2.07.83,2.36,2.02Z"/>
      <path class="cls-90" d="M28.88,83.06c-.53-.33-2.55-5.56-2.99-7s-3.16-7-3.37-8.38,1.52-3.26,1.52-3.26c0,0,.78-.72,1.59,1.25,1.12,2.73,2.87,11.79,3.36,12.91s2.24,3.48,1.69,4.2-1.09.72-1.8.27Z"/>
    </g>
    <g>
      <path class="cls-74" d="M30.03,45.72c1.71-.37,1.57,1.59,1.1,3.12,2.32-.09,2.39,1.1.65,2.77.17.45.19.98.38,1.42,1.2,2.76-.17,11.99-.09,11.74-.51-1.26-.83-2.8-.94-4.63-3.04-1.9-2.75-5.16-1.16-8.54-1.17-.69-1.72-1.88-1.65-3.58-.98-1.41-.99-2.94.79-2.3.27-.87.58-.86.94,0Z"/>
      <path class="cls-14" d="M32.07,64.77l-.49,1.01c-1.55.97-2.45.04-2.51-1.89-5.63,1.28-4.52-5.75-1.6-8.35-.75-.79-.27-2.04,1.44-3.75-.3-1.93.37-2.04,1.05-.19-.26,4.62,2.64,8.55,2.11,13.17Z"/>
      <path class="cls-36" d="M27.47,55.54c-1.06,1.86-2.13,5.48.09,7.03.56.23,1.07-1.72.98-2.13-.13-.64.93-1.69,1.71-.77,1.49,1.75-.26,4.67,1.32,6.1-.61,1.25-2.19.97-3.36,1.09-4.17,1.12-5.72-.23-4.64-4.05-2.38-1.51-1.41-3.37.93-3.99-1.17-1.86-.8-2.23,1.01-2.96.29-1.47,1.57-2.01,1.95-.32Z"/>
      <path class="cls-3" d="M27.47,55.54l-1.95.32c-1.71-.36-1.47-.91.08-1.67,1.03-.92,2.09-1.82,3.31-2.41.15,1.57-.77,2.58-1.44,3.75Z"/>
      <path class="cls-28" d="M25.52,55.87c.37,1.19.04,2.37-1.01,2.96-1.62,2.12-2.86,2.46-3.71,1.03-2.01.65-2.52.22-2.44-2.09l4.41-2.87c.73-.34,2.1-.04,2.82-.69.09.51-.23,1.18-.08,1.67Z"/>
      <path class="cls-95" d="M24.51,58.82c-.44,1.29-.74,2.63-.93,3.99-1.02,1.73-.73,3.92-.18,5.81-.7.07-1.62-.06-2.26.34-1.29.34-2.1-.26-1.64-1.75-1.52-.47-1.57-1.23.05-1.6-1.22-4.05-.8-5.97,1.25-5.76.48-.61,1.45-.65,2.12-1.34.37-.38,1.5-1.06,1.59.31Z"/>
    </g>
    <path class="cls-49" d="M28.38,26.59l1.95,5.34c-1.65-1.03-3.23-2.26-4.27-3.91-1.8-1.98-.93-2.67,1.43-1.45l.89.02Z"/>
    <path class="cls-86" d="M20.75,20.42c3.23,1.3,4.24,4.13,6.74,5.98l-1.87,1.39c-.36,0-.66.33-1,.39-2.47.31-5.8-1.58-6.9-3.35-5.07-.98-.91-7.92,3.04-4.42Z"/>
    <path class="cls-22" d="M17.4,23.48c-.2.81.87,1.84,1.34,2.56.1.03.21.07.31.09.46.19,1.14,2.58.52,2.96l-3.03-3.09c-.45-.8-.73-1.85-.79-2.9-.04-.55,0-1.09.1-1.6.04-.16.07-.33.12-.48.12-.38.28-.73.47-1.04.28-.41.62-.73,1.06-.95.12-.07.27-.13.42-.18.71.75,1.58,1.32,2.49,1.79l.11.97c-.46.03-1.01.11-1.52.29-.73.25-1.38.72-1.59,1.56Z"/>
    <path class="cls-40" d="M24.67,28.09l-1.2.7c-.16.64-.34,1.11-.57,1.41-.76,1.08-1.86.21-2.92-1.59-.95-.84-1.75-1.77-2.33-2.78l.06-.99c.14.04.28.09.42.12,2.46.72,5.65,1.03,6.51,3.07.01.02.01.03.03.05Z"/>
    <path class="cls-72" d="M19.46,38.99c-2.63.69-.73-.73-2.91,6.78,1.18.38,1.44,1.38.77,2.99-1.31,1.09-2.34,2.46-3.08,4.12.15,2.04-.99,1.64-1.86-.03-.34-.31-.65-.64-.93-1,.42-1.98.77-4.05,1.84-5.82-1.4-2.11-1.34-2.25,1.15-2.18-1.2-1.86-1.19-2.91.02-3.16-.19-1.35.25-2.68,1.72-2.86,1.08.16,2.29-.26,3.09-.98.13.71.19,1.43.19,2.15Z"/>
    <path class="cls-13" d="M26.38,34.84c.97.64,1.93,1.49,2.04,2.56.14,1.36-.43,2.43-1.19,3.33-.59.7-1.1,1.46-1.75,2.11l.11-1.1c-.93-.19-1.34-1.48-1.22-3.87.03-.9.2-1.78.33-2.66.05-.31.14-.78.05-1.08.41.32,1.08.78,1.62.71Z"/>
    <path class="cls-14" d="M29.36,66.87c-.77.07-1.26.83-1.88,1.13-.67.33-1.53.35-2.03,1.02-.68,1.81-1.37,1.57-1.46-.39-3.38-.73-3.32-5.67.2-5.81.15.75-.12,2.94.92,3.06,2.07-.02,3.8-.89,4.26,1Z"/>
    <g>
      <path class="cls-11" d="M13.88,108.99c0-.5-.12-1.07-.11-1.57.04-1.58.42-2.67.85-3.43.12,1.83.32,3.63.36,5.79-.53.12-.81-.39-1.1-.79Z"/>
      <path class="cls-45" d="M10.58,86.03c-.07-1.75.27-5.72.46-6.62s-.08-3.65,0-6.01.08-6.24.72-6.88,2.4-5.34,4.18-2.44,2.6,5.78,2.49,7.88.14,2.15-.27,3.95-1.38,4.59-1.72,5.58-.68,1.93-.5,2.78.66,3-.15,4.79-2.39,4.47-2.77,5.43-2.2,3-2.3.06-.14-8.52-.14-8.52Z"/>
      <path class="cls-10" d="M13.84,81.94c1.41-.56,1.2,2.66.6,4-.77,3.69-1.22,7.45-1.36,11.3.98,2.06,1.19,3.45,1.19,3.45,0,0,.47,3.49-.32,4.48-1.17,1.22-2.24,1.76-3.21,1.62-.3-.85-.64-1.84-1.04-2.99-.64-.48-.33-1.91-.09-2.72.12-.41.17-.84.14-1.27l-.16-2.04c-.01-.15-.01-.31,0-.46l.35-3.72s.29-3.02.75-5.03c.02-1.7-.14-3.31-.48-4.83.06-1.3.89-2.24,1.27-3.35,1.71-1.65,2.49-1.13,2.35,1.58Z"/>
      <path class="cls-73" d="M10.7,88.55l.6,7.01c-.99-.2-.85-1.21-.89-1.93-1.19-1.63-.55-3.9-.59-5.95.98-1.5,1.33-.99.89.87Z"/>
      <path class="cls-23" d="M10.7,88.55c-.16-.47-.47-.83-.89-.87-.03-1.33.34-2.64.4-3.97.89-1.6,1.78,5.49.48,4.83Z"/>
      <path class="cls-91" d="M16.54,75.46c1.95.86,2.35,1.53.41,2.9.02,2.29-.44,3.06-1.4,2.32-.31,1.57-.67,2.55-1.71,1.27-.76-.58-1.56-1.08-2.35-1.58.27-.8-.72-2.16-.14-3.2.26-.47.78-.91,1.38-1.02.99.71,1.41,0,1.27-2.13l1.44-1.32c.16-.91.46-.94.87-.14.91.13.81,2.04.24,2.91Z"/>
      <path class="cls-37" d="M15.23,85.82c2.13,2.07-.93,15.41-2.79,17.26-.25,1.21.6-7.28.65-5.84-2-3.25-.14-8,1.36-11.3.14-.9.4-.93.79-.12Z"/>
      <path class="cls-71" d="M10.75,106.78c1.48-.73,1.24.48.35,1.86.57.2.59.53.1.99-.92,1.32-1.94,2.47-2.36.37-1.1.92-1.52.36-.8-1.03l-.11-.56c.24-.1.63.04.84-.16l.93-4.47c1.33-.13.84,1.94,1.04,2.99Z"/>
      <path class="cls-84" d="M15.55,80.67c1.67.64,1.5,4.59-.32,5.15l-.79.12-.6-4c.46-.63,1.07-1.02,1.71-1.27Z"/>
      <path class="cls-21" d="M14.41,102.41c1.32,1.34.47,4.7-1.14,3.87-.1,1.7-.56,2.44-1.38,2.23-.14.9-.4.93-.79.12l-.35-1.86c.8-.69,2.64-4.67,3.66-4.37Z"/>
      <path class="cls-88" d="M8.78,108.26c-.83-1.73.77-3.12.93-4.47.46,1.55.15,3.46-.93,4.47Z"/>
      <path class="cls-17" d="M17.75,62.44c-.29-2.78.66-3.01,1.7-.51,2.3.77,1.76,2.59-.6,2.42-.29,1.19-.81,1.82-1.55,1.88-.61,1.3-1.33,2.12-2.18,2.46.55,1.14.7,2.92.31,3.98.21,1.8.22,4.61-1.76,5.3-.55.19-.8-1.56-.95-1.84l-.16-.99c-.63-1.24-.73-2.23-.3-2.98-.06-3.54-.11-7-.16-10.38-.16-1.95.49-1.94,1,0,1.4,1.87,2.86,1.42,4.64.65Z"/>
      <path class="cls-45" d="M15.1,70.56c-2.13.6-2.2,1.59-2.83,1.62-.87-1.41-1.07-3.39-.59-5.95l3.99-5.63,6.77,3.43-7.34,6.54Z"/>
      <path class="cls-59" d="M12.27,72.17l.3,2.98c-1.59-2.07-2.03-6.43-.89-8.93l.59,5.95Z"/>
      <path class="cls-16" d="M8.84,110c1.75-.56,1.12,1.55.3,2.98-.82.78-2.22.52-2.42-.87l.43-3.02.9-.11c.34-.04.75.54.8,1.03Z"/>
      <path class="cls-46" d="M18.85,64.35c2.5,2.03.65,9.33-1.36,11.04-.25-.16-.67.16-.94.06-.07-.87-.26-2.1-.24-2.91-.97-.39-1.06-2.17-.3-2.98-.56-1.08.52-2.46,1.29-3.33.04-1.08.71-1.8,1.55-1.88Z"/>
      <path class="cls-62" d="M16.01,69.57c.43,1,.74,2,.3,2.98l-.87.14c-1.22-1.02-.72-2.57-.31-3.98.94-1.67,1.5-1.12.89.87Z"/>
      <path class="cls-94" d="M11.99,109.51c.18,2.09-.35,3.89-1.96,4.46-.61.15-2.08.34-3.05,0-.5-.18-1.53-.89-.27-1.85.82.22,1.64.49,2.42.87.18-1.77.71-2.71,2.07-3.35.07-.28-.04-.71-.1-.99l.79-.12c.7.16.72.49.1.99Z"/>
      <path class="cls-7" d="M11.2,109.63c-.35,1.39-1.02,2.68-2.07,3.35l-.3-2.98,2.36-.37Z"/>
      <path class="cls-34" d="M17.75,62.44c-1.06.98-2.24,1.47-3.73,2.29-.28-1.16-.98-2.11-.91-2.94,1.48.69,3.07.74,4.64.65Z"/>
      <path class="cls-32" d="M17.3,66.24c-.2,1.24-.52,2.48-1.29,3.33-.18-.42-.57-.65-.89-.87.37-1.29.97-2.25,2.18-2.46Z"/>
    </g>
    <g>
      <path class="cls-42" d="M31.31,51.6c-.37.12-.82.04-1.17.19-.83,1.42-2.18,3.62-3.69,2.41-.14,2.85-1.87,3.12-3.15.69-2.1.69-2.68.32-1.74-1.12-1.3-1.45-.66-1.92.96-.71,1.08-.98,2.37-1.72,3.87-2.22-1.19-.84-.45-1.77,2.2-2.8.14-.88.44-.86.89-.02.81-.3,1.7-.33,1.86.44.26,1.22.04,2.22-.02,3.14Z"/>
      <path class="cls-15" d="M12.38,52.84c.87.28.86.62,0,1,.9,1.63.9,2.63,0,3-.69-.21-1.36-.49-1.98-.86.21-.6,0-1.5-.02-2.14-.02-.84.81-1.39,1.07-2,.85-.38,1.13,0,.93,1Z"/>
      <path class="cls-51" d="M14.24,52.87c.68-1.18,2.38-.91,5.1.82.41-2.26,1.61-2.14,2.22.07l1.74,1.12c1.49,2.44-2.69,3.63-4.92,2.87-.06.89-.38.85-.93.03-.33.87-.68.84-1.06-.03l-1,.08c-1.82-.2-2.82-1.53-3-4v-1l1.86.03Z"/>
      <path class="cls-66" d="M26.38,50.84c-.82,1.48-2.02,2.31-3.87,2.22l-.13-1.22c-1.11-2.58.18-3.04,2-1h2Z"/>
      <path class="cls-5" d="M15.38,57.84h-3c.13-.25,0-.71,0-1v-3c1.05,1.31,1.67,2.94,3,4Z"/>
    </g>
    <path class="cls-64" d="M21.47,68.97c-1.21.69-2.46.92-3.85.84-.09-.62.59-1.43.87-1.94.19-.34.89-.35,1.15-.65.91.16,1.67.82,1.83,1.75Z"/>
    <g>
      <path class="cls-48" d="M13.35,56.84c.84.28.83.61,0,1,.51.79.25,2.15-.76,4.07,1.18,4.12.63,6.38-1.64,6.76l-1.14-.15c0-.51.44-8.7,1.75-12.54,1.07-1.6,1.45-.87,1.79.86Z"/>
      <path class="cls-93" d="M16.07,57.84l.91-.08c.42,2.92-.38,3.54-2.72,2.08-1.35,4.15-.24,5.43,3.06,2.64,1.08,1.96,1.6,3.76,1.57,5.39,1.43.93.53,1.34-.79,1.94-.51-.03-1.53-.04-1.98.24-2.7,1.02-4.42.57-5.17-1.38.79-3.65.86-7.45,2.4-10.83-.33-1.83.57-1.83,2.72,0Z"/>
      <path class="cls-41" d="M22.56,64.65s0,.23.02.47c.08.64-.04,1.28-.34,1.84,0,0,.07,1.93-.58,2.1-.58.16-2.26-.62-2.78-1.19-.93-.88-1.48-2.08-2.16-3.85-.94.02-1.51.66-2.55,1.2-1.21-1.6-1.79-4.4.08-5.38q.95,1.98,0,0c.99-.51,1.86-1.37,2.72-2.08l.96.03c1.46,1.51,4.73,3.16,4.63,6.86Z"/>
      <path class="cls-57" d="M21.24,59.85c-.71.89,1.43,1.22,1.41,2.35-.02.92-1.52,2.91-2.03,3.68-1.88-1.97-2.73-5.34-2.69-8.09.28,0,.56-.05.84-.03,1.14.1,2.07.91,2.46,2.09Z"/>
      <path class="cls-76" d="M14.26,59.84c.99.65,2.22,1.3,1.36,1.99-.75.6-.08,1.84-1.2,2.05-.36-1.8-.08-2.84-.16-4.03Z"/>
    </g>
    <g>
      <g>
        <g>
          <path class="cls-31" d="M16.44,53.92c-1.3-.88-2.49-1.82-3.67-2.76-.37-.29-.8-.47-1.27-.52-.38-.04-.76-.09-1.16-.16-1.41-.6-1.58-.4-.57.55,1.46,1.82,4.53,2.77,6.67,2.88Z"/>
          <path class="cls-67" d="M15.04,56.96c1.19.83,3.46,2.52,4.29,2.54s2.39-.07,1.89-1.1-.7-1.87-2.21-3.27-2.11-2.32-3.07-2.75-1.35-.59-2.52-1.08-1.41-.21-1.5.04.47,3.92,1.42,4.55,1.7,1.06,1.7,1.06Z"/>
          <path class="cls-31" d="M1.25,48.14c.84,1.11,1.49,2.7,2.52,3.53.92.75,2.23.76,2.94,1.27,5.01,2.46,11.51,9.37,12.23,5.87-.91-1.13-2.01-2.18-3-3.28-1.94-1.81-3.71-3.16-5.32-4.04-.07-1.98-4.82-3.13-4.82-3.13,0,0-3.73-2.86-5.22-3.35.46,1.02.02,2.05.67,3.12Z"/>
          <path class="cls-67" d="M5.48,52.59c.74.46,1.51.21,2.06.28-1.23-1.78-3.33-3.31-5.33-4.72,1.01,1.48,2.45,2.98,3.27,4.44Z"/>
        </g>
        <g>
          <path class="cls-35" d="M.82,42.9c.66-.11,1.41-.28,1.84-1.08.53-.98-.3-2.28-.7-3.47-.96,1.06-1.47,2.66-1.14,4.54Z"/>
          <path class="cls-4" d="M2.23,34.39c-.54,1-.76,2.54-.27,3.97-.09,2.01-.19,3.09-1.14,4.54-1.4,1.71-.83,4.6.43,6.54,1.48,2.29,3.81,3.4,3.31,1.84,1.23,1.31,1.47.33.74-2.94,1.03.89,1.15.38.35-1.55.39.42-.1-2.02.51-2.56,1.34-1.2,2.01-2.98,1.95-4.78l2.71-5.54c.49-1.01.15-2.23-.81-2.83l-1.18-.74s-6.06.14-6.61,4.05Z"/>
          <path class="cls-63" d="M11.87,25.75c.32.82,1.68,2.51,1.09,3.53-.37.65-1.82.96-1.95,1.44-.2.8-1.42,1.28-1.84,1.9,0,0,0,.01,0,.01-.53.79-1.2,1.39-1.88,1.69-.18.09-.36.16-.55.19-.18,1.17-2.56-.18-3.24.53-.38.41-1.12-.15-1.57-.54-.07-1.86.09-3.67.34-5.44,1.13-.78,3.93-3.07,5.78-4.59,1.03-.86,2.57-.69,3.4.36.35.44.57.81.42.9Z"/>
          <path class="cls-33" d="M5.29,48.33c.33,1.95,1.32,3.97,2.98,4.38.96.16.98-.37.2-1.49l-2.83-4.44c-.31.17-.25,1.15-.35,1.55Z"/>
        </g>
      </g>
      <g>
        <path class="cls-24" d="M14.5,38.1c.32,1.17-.07,3.36-.96,3.69-.08.04-.16.05-.24.05h-.02c-1.13-.04-.47-.6-1.41-1.29,0,0-.6-2.63-.62-3.19,0-.56-.4-3.64.2-4.93.15-.32.37-.43.62-.4.7.12,1.67,1.49,2.06,2.35.04.07.06.14.08.21.26.75.07,1.52.08,2.29-.01.34.03.68.16,1.02.03.06.04.12.05.19Z"/>
        <g>
          <path class="cls-38" d="M25.38,27.28c1.42.68,2.9,1.07,4.33,3.53.41.87.46,2.39-.58,2.98-.45.75-1.48.85-3.11.27-.71,2.55-1.32,2-1.68-.56-1.06-.97-1.01-4.71-.57-5.24s1.07-1.23,1.61-.97Z"/>
          <path class="cls-8" d="M29.13,33.79c.31.55,1.59.01,1.59.01,0,0,.03.06.09.16.61,1.1.51,2.43-.19,3.48-.74,1.13-1.3,2.44-1.11,3.63.74,4.06-3.84,2.36-2.13-1.22-1.06-1.69-1.51-3.63-1.36-5.79.41-.26.77-1.08,1.3-.92s1.56.25,1.81.65Z"/>
          <path class="cls-27" d="M29.51,41.07c.2,1.23,1.03,2.33,1.41,3.48-.24.66-.82,1.55-.68,2.37-.25.12-.61.04-.88.1-1.56.2-2.87-1.32-3.2-2.76-1.12-.1-1.11-1.4-.33-2.15.11-1.44.63-2.19,1.56-2.25,0,.42.13,1.32.72,1.72.35.24.98-.22,1.41-.5Z"/>
          <path class="cls-43" d="M26.1,36.36c-.26.33-.87.64-1.82.89.94,1.15,1,3.12-.54,3.06-.07-.01-.15-.03-.23-.03-.62,1.37-2.26,3.08-3.94,3.4-.16,1.92-.61,2.83-1.34,2.75-.3-.02-.65-.23-1.06-.62-1.78-1.29-1.23-6.71.82-7.33.43-.14.93-.05,1.48.32,1.45-.9,1.95-1.64,1.53-2.21-.02-.02-.03-.04-.04-.06l-.19-1.09c-.05-1.95.76-1.95,1.32-.04.06-.84.21-1.16,1.05-.86-.05-1.99.75-1.95,1.22.03.05.03.11.04.17.07.45.18.8.36,1.07.54.16.11.3.21.39.33.28.3.3.59.08.86Z"/>
          <path class="cls-24" d="M22.7,37.08c.03.6-.76,1.74-1.31,1.94-.54.19-1.42.4-1.91-.22-.73-.04-1.23-.14-1.48-.32-.1-.06-.15-.13-.18-.21-.17-.36.26-.89,1.29-1.6l.8-.05,1.08-.09s.01.04.04.06c.24.19,1.66.1,1.68.5Z"/>
          <path class="cls-87" d="M24.51,34.45h0c-.04.05-.07.09-.12.12-.38.07-.88-.18-1.22-.03-.53-1.18-1.04-2.55-1.48-4.12l-.43-1.17.05-.96,2.48-.05c.55,1.73-.11,3.57.57,5.24.52.27.56.59.16.96Z"/>
          <path class="cls-53" d="M23.51,40.28c1.72.15,1.11,1.75.18,2.93-.63,1.38-1.54,2.49-2.73,3.33,1.85.35,2.71,1.95,2.56,4.8,1.87-.56,2.02.23.24,1.2l-.9.79-2.21.12-.98-.77c-1.48-.98-1.29-2.29.53-2.19-2.76-.74-2.97-3.01-.63-6.82.48-.84.35-2.07.97-2.65.95-.89,1.93-1.06,2.97-.75Z"/>
          <path class="cls-47" d="M29.36,47.01c.4,1.58-1.44,1.84-1.95,2.98-.87.83-1.53,1.43-1.99.17-2.85.18-2.93-2.08-.26-2.99.21-.89.54-.91,1-.09.5-1.67,2.27-1.65,3.2-.08Z"/>
          <path class="cls-13" d="M29.36,47.01c-1.06.23-2.28.9-3.2.08-.88-.09-.99-2.35,0-2.84,1.92-.27,2.78,1.1,3.2,2.76Z"/>
          <path class="cls-53" d="M25.82,42.1l.33,2.15v2.84s-1,.09-1,.09c-2.02-.42-2.91-.84-1.06-1.68-.31-3.47.27-4.97,1.74-4.51v1.11Z"/>
          <path class="cls-85" d="M20.2,50.5c-.11.58-.25,1.04-.48,1.1-2.45.61-1.24-1.4-.05-.09.2.21.14.66,0,1.18.42.15,1.49-.11.98.77-1.73.36-3.56.49-5.15-.37-1.36-2.4,1.19-4.78,1.68-7.28.63-.78,1.89-1.23,2.39-2.12.35,2.27.04,4.58.63,6.82Z"/>
          <path class="cls-58" d="M25.84,41c-1.93,1.48-.86,4.09-.68,6.18l.26,2.99-1.91,1.17c-2.43.13-2.61-3.18-2.56-4.8.59-1.21,1.5-2.32,2.73-3.33.06-.94-.35-2.01-.18-2.93.19-1.01.83-1.96.78-3.03,1.57.44,1.57,2.41,1.55,3.75Z"/>
          <path class="cls-79" d="M23.17,34.54c-.38.16-.62.75-1.05.86l-.44-4.98c1.6.61,1.21,2.7,1.48,4.12Z"/>
          <path class="cls-12" d="M23.69,43.21c-.05.71.29,1.48-.14,2.15-.57.88-1.63,1.13-2.59,1.17.02-.56-.34-2.37.26-2.55l2.47-.77Z"/>
          <path class="cls-18" d="M20.2,50.5c.18.68-.48,1.52-.53,2.19-1-.37-2.83-1.06-2.05-2.69.69-.04,1.85.79,2.58.51Z"/>
        </g>
        <path class="cls-87" d="M14.81,48.31c-.64.22-1.04-.79-1.04-.79-.04-1.46-.69-1.66-.92-3.35-.22-1.71-2.23-3.8-2.58-5.67-.17-.86-.38-1.58-.58-2.2-.22-.71-.44-1.28-.59-1.76,0-.02-.01-.05-.02-.08-.18-.61-.4-1.64-.29-2.42.05-.41.21-.74.49-.93.87-.55,3.12-3.01,2.96-1.19-.02.25-.04.55-.06.87-.04.38-.07.8-.1,1.24-.12,1.87-.23,4.09-.21,5.06.03,1,.89,2.65,1.41,3.9.12.29.21.55.27.79.04.16.08.3.08.42.02.62.63,2.49,1.02,4,.28,1.1.44,2.01.17,2.1Z"/>
        <path class="cls-43" d="M13.97,45.86c.89.53,2.51,1.23,2.36-.21s-1.32-5.55-.38-6.34c.94-.79,1.05-1.72.79-2s-2.1-.86-3-.17-.39,8.35.23,8.72Z"/>
        <path class="cls-24" d="M20.07,37.43c-.31.25-1.3.57-2.25.84-.46.13-.9.26-1.26.36h0c-.07.03-.13.04-.19.06-.63.19-1.31-.2-1.88-.59-.4-.28-.72-.57-.93-.69-.51-.3-.29-1.83-.05-2.12.24-.27.46-.49.69-.68.72-.53,1.59-.75,3.48-.98,2.52-.3,2.49,1.65,2.86,2.62.05.13.08.22.11.31.16.62-.15.53-.59.87Z"/>
        <g>
          <path class="cls-38" d="M21.68,30.42l.44,4.98c-.56-1.92-1.37-1.92-1.32.04l.19,1.09-.33.03c-.03-.09-.06-.19-.11-.31-.37-.97-.34-2.92-2.86-2.62-1.89.23-2.76.44-3.48.98-.02-.07-.04-.15-.08-.21-.4-.86-1.36-2.23-2.06-2.35.03-.44.07-.86.1-1.24.41-1.22.49-2.6.06-3.98.43-.23.61-.47.52-.7,1.54.56,2.08-.29,1.64-2.07,1.02-.32,1.68-1.04,2-2.15.05,1.05.33,2.1.79,2.9l.15.07c1.15.5,2.19,1.25,2.94,2.25.32.42.66.82,1.03,1.19l-.05.96.43,1.17Z"/>
          <path class="cls-87" d="M13.01,32.69c.18-.83,1.37-2.13,1.65-3.13s.15-3.39.88-4.62,1.38-2.15.85-2.73-1.02-1.33-2.3-.04c-1.28,1.29-2.41,2.16-2.53,3.51s.12,5.46-.17,6.04.09,2.11.21,2.39.85.22.96-.38.44-1.04.44-1.04Z"/>
        </g>
      </g>
      <g>
        <g>
          <path class="cls-67" d="M33.02,44.75c-.04,1.25-.04,3.7-.44,4.36s-1.23,1.84-1.67,1.04-.9-1.28-1.08-3.01-.5-2.56-.3-3.48.28-1.28.54-2.4.56-1.18.77-1.16,2.37,1.9,2.33,2.9-.14,1.75-.14,1.75Z"/>
          <path class="cls-31" d="M32.65,32.43c.64,2.03.96,3.84.95,5.41-.75,4.74.76,12.36-1.91,11.52-.32-1.13-.5-2.37-.75-3.55-.28-2.17-.34-4.04-.16-5.6-1.28-.84-1.23-5.13.21-4.86-.08-1.77-.13-3.93.25-5.25.46.75,1,1.43,1.4,2.33Z"/>
          <path class="cls-67" d="M34.25,36.37c0,.67-.47,1.07-.65,1.47-.67-1.53-.83-3.52-.95-5.41.56,1.26.97,2.81,1.6,3.94Z"/>
          <path class="cls-67" d="M30.95,45.81c-.3-1.38-.71-2.68-1.09-3.98.15-.42.27-.88.38-1.36-.03-1.18.16-1.25.55-.25.88,1.57.69,4.04.16,5.6Z"/>
        </g>
        <g>
          <path class="cls-35" d="M32.56,30.14c-.49.16-1.06.31-1.64-.08-.71-.48-.61-1.67-.75-2.62,1.03.38,1.95,1.29,2.39,2.7Z"/>
          <g>
            <path class="cls-4" d="M28.57,24.82c.72.5,1.42,1.47,1.6,2.62.77,1.34,1.23,2.05,2.39,2.7,1.56.67,2.2,2.85,2.03,4.63-.2,2.09-1.4,3.68-1.61,2.43-.37,1.33-.89.75-1.55-1.75-.39.98-.65.67-.79-.93-.32,1.14-.71,1.87-1.32,1.12-2,2.77-2.95,1.32-2.2-1.81-1.07-1.72-1.09-1.99.34-2.95-1.85-2.07-2.47-3.8-1.84-5.2-2.81-5.87,1.21-3.33,2.97-.85Z"/>
            <path class="cls-35" d="M23,18.25c.77,2.27,2.8,1.97,4.33,2.55.5,1.29.96,2.62,1.24,4.02-.27.37-.71.93-1.08.69-.64-.41-.89-1.33-1.59-2.34-.49.72-.22,1.69-.29,2.49-.07.89-.29.88-.63.04-1.8.02-4.24-2.47-3.86-5.44-.64-.2-.67-.53-.1-.97-1.06-1.25-1.81-2.23-.4-2.12,1.05-1.01,2.31-.89,2.39,1.07Z"/>
            <path class="cls-33" d="M31.42,35.45c.46,1.45.51,3.19-.48,4.06-.6.45-.8.1-.67-.95l.36-4.05c.27,0,.58.7.79.93Z"/>
          </g>
        </g>
      </g>
      <path class="cls-77" d="M14.74,23.28c-.76.35-1.78,5.23-2.92,5.79-2.31,1.13-4.96-1.79-5.74-.23-.97-2.08,1.71-3.48,2.92-5.53.64-1.09,5.18-.38,5.74-.03Z"/>
    </g>
    <g>
      <g>
        <path class="cls-56" d="M24.2,16.49c-.76.2-1.52.36-2.3.46-.85.09-1.07-.24-.66-1.01-.28-3.24.71-5.34,2.96-6.29.71,2.18,1.84,6.49,0,6.84Z"/>
        <path class="cls-2" d="M23.32,9.45c-.46-.84-.19-1.07.76-.73.18.29.55,2.13.65,2.46-3.27,2.66.47,3.98-3.39,5.53-5.4.6-2.71-7.48,1.99-7.25Z"/>
        <path class="cls-6" d="M18.18,9.49c1.05-1.66,1.8-1.62,2.7.13.76-.48,1.64-.78,2.44-.17-1.08.75-2.43,1.44-3.04,2.7-.74,1.54.29,3.19,1.05,4.56.2.36.69.74.75,1.13.09.65.05,1.35.41,1.92-1.48,2.8-2.91,3.45-3.82.4-.82-.3-.99-.81-1.77-.56-.8-.76-1.47-1.69-1.58-2.81,2.62-1.54,2.11-4.61,2.87-7.31Z"/>
      </g>
      <path class="cls-69" d="M15.32,16.8c2.75-.03,3.03.47,1.58,2.81.29,1.85-.29,2.06-1.29.41-1.55.67-2.02.55-1.4-.35-.68,4.23-4.72,5.79-5.4,1.16.04-1.51-1.29-3.07-1.54-4.54.25-.47.18-.99.22-1.49.03-.37.73-.4,1.02-.38l.64-1.35c1.7,1.53,3.76,2.77,6.18,3.73Z"/>
      <path class="cls-89" d="M15.17.29c.65-.34,1.41-.38,2.09-.13.85.32,1.9.74,1.84.88-.17.38-3.46.07-3.39.26-.55,1.54-2.02,3.73-3.57,4.78-.38.26-.59.67-.72,1.11-.08.3-.41.25-.96-.13-.58.83-1.1.64-1.55-.38-.09-2.74,4.23-5.32,6.26-6.39Z"/>
      <path class="cls-30" d="M23.49,4.05c-1.32,2.1-4.64,1.14-4.27-1.14-.92,1.99-2.66,1.31-2.95-.7-.94.27-1.11-.05-.56-.91,1.27-.71,2.78-.9,4.36-.17,1.02.47,3.56,1.67,3.42,2.92Z"/>
      <path class="cls-25" d="M24.82,5.44l-.75,3.27c-2.15.51-3.68-1.95-2.25-3.64-.95.23-1.13-.08-.56-.91.68-.19,1.4-.73,2.11-.42.76.32,1.17,1.04,1.46,1.7Z"/>
      <path class="cls-80" d="M16.51,20.11c.07.18.14.36.19.54.05.13.1.27.13.41.16.58.25,1.11.25,1.59.01,1.12-.39,1.97-1.25,2.56.92,1.52.66,2.46-.93,2.38-.06,0-.13,0-.21,0-1.16-.15-2.36-.17-3.41-.57-.71-.25-1.34-.67-1.84-1.43-.98-1.44-.68-2.8-.54-4.23.02-.21.03-.41.05-.61,1.87,1.26,3.73,1.11,5.05-1.35.41-.77,1.21-1.06,1.57-.74.44.41.69.97.94,1.46Z"/>
      <path class="cls-26" d="M18.53,5.85c.95-.23,1.13.08.56.91.71,1.49.96,2.84-.9,2.72,1.43-.22,1.12,4.92.87,6.07-.43,1.96-1.98,2.3-3.74,1.24-1.33.78-2.97,1.42-4.04,3.48-2.63-3.51.84-5.59-2.78-5.85-.54-1.08,0-2.24.93-2.94.88-2.42,1.11-2.31,2.45-.18l.87-.21c.05-3.12,1.03-4.26,2.93-3.41-.52-1.06.15-1.97,1.39-2.17.53-2,1.32-1.78,1.47.35Z"/>
      <path class="cls-19" d="M11.37,6.5c3.18.17,2.62,3.23.5,4.8-.72.55-1.63.42-2.45.18-.23-.26-.3-.68-.56-.91-.12-1.31.48-2.99,1.61-3.51l.91-.56Z"/>
      <path class="cls-44" d="M10.46,7.06c-.07,1.34-.54,2.66-1.61,3.51-1.45-1.26.09-2.74.05-3.89.53.09,1.05.22,1.55.38Z"/>
      <path class="cls-81" d="M15.71,1.3c.12.33.41.59.56.91.71.68.59,1.18-.35,1.47.15,1.4.06,2.73-.26,3.99-1.74,1.87-1.68,4.87-4.49,6.56-.88-1.28.9-1.9.69-2.93.06-1.62.23-3.3-.5-4.8-.3-2.71,2.22-4.02,4.34-5.2Z"/>
      <path class="cls-55" d="M19.22,2.91c1.35,1.52,1.43,2.38-.7,2.95l-1.47-.35c-1.46,1-1.98-.45-1.13-1.82.04-.51.14-1.01.35-1.47.92.32,2.06.25,2.95.7Z"/>
      <path class="cls-26" d="M21.26,4.16l.56.91c1.2,2.6.3,3.01-1.82,1.13.06.71-.25.89-.91.56l-.56-.91c-.21-1.05.04-2.1.7-2.95.62.32,1.08,1.52,2.04,1.26Z"/>
      <path class="cls-52" d="M21.82,5.08l2.25,3.64c-.27.21-.47.54-.76.73-.94.33-1.75.38-2.44.17-2.12-.01-1.89-1.8-.88-3.42l1.82-1.13Z"/>
      <path class="cls-25" d="M15.93,3.68l1.13,1.82c.05,1.14-.2,2.34-1.39,2.17-.47-.59-1-1.29-1.04-2.26-.02-.67.65-1.32,1.3-1.73Z"/>
      <path class="cls-61" d="M20,6.2c0,1.2.37,2.35.88,3.42-.82.52-1.96.5-2.7-.13.26-.92.37-1.89.9-2.72l.91-.56Z"/>
    </g>
  </g>
</svg>