<?xml version="1.0" encoding="UTF-8"?>
<svg id="Enemy" xmlns="http://www.w3.org/2000/svg" viewBox="0 0 37.67 124.04">
  <defs>
    <style>
      .cls-1 {
        fill: #9f5f4d;
      }

      .cls-2 {
        fill: #e4a680;
      }

      .cls-3 {
        fill: #14120e;
      }

      .cls-4 {
        fill: #f182e4;
      }

      .cls-5 {
        fill: #160e13;
      }

      .cls-6 {
        fill: #745862;
      }

      .cls-7 {
        fill: #c28e6a;
      }

      .cls-8 {
        fill: #ca2726;
      }

      .cls-9 {
        fill: #71244a;
      }

      .cls-10 {
        fill: #902e2a;
      }

      .cls-11 {
        fill: #281a24;
      }

      .cls-12 {
        fill: #a46652;
      }

      .cls-13 {
        fill: #fee4ee;
      }

      .cls-14 {
        fill: #1b0000;
      }

      .cls-15 {
        fill: #f571e2;
      }

      .cls-16 {
        fill: #e54cb1;
      }

      .cls-17 {
        fill: #f85fd4;
      }

      .cls-18 {
        fill: #200c11;
      }

      .cls-19 {
        fill: #a85450;
      }

      .cls-20 {
        fill: #c06c54;
      }

      .cls-21 {
        fill: #f53eae;
      }

      .cls-22 {
        fill: #c6a88b;
      }

      .cls-23 {
        fill: #936255;
      }

      .cls-24 {
        fill: #983c31;
      }

      .cls-25 {
        fill: #d59677;
      }

      .cls-26 {
        fill: #7a4134;
      }

      .cls-27 {
        fill: #d3589d;
      }

      .cls-28 {
        fill: #d3ae8e;
      }

      .cls-29 {
        fill: #e5c2a2;
      }

      .cls-30 {
        fill: #891c54;
      }

      .cls-31 {
        fill: #e74ab2;
      }

      .cls-32 {
        fill: #99685a;
      }

      .cls-33 {
        fill: #876;
      }

      .cls-34 {
        fill: #c39d75;
      }

      .cls-35 {
        fill: #a56452;
      }

      .cls-36 {
        fill: #4b4a48;
      }

      .cls-37 {
        fill: #2e1204;
      }

      .cls-38 {
        fill: #c28969;
      }

      .cls-39 {
        fill: #fa7b8a;
      }

      .cls-40 {
        fill: #17110e;
      }

      .cls-41 {
        fill: #f863d8;
      }

      .cls-42 {
        fill: #7f5342;
      }

      .cls-43 {
        fill: #cf3994;
      }

      .cls-44 {
        fill: #150605;
      }

      .cls-45 {
        fill: #f5b4a1;
      }

      .cls-46 {
        fill: #f24ec3;
      }

      .cls-47 {
        fill: #643b5f;
      }

      .cls-48 {
        fill: #c61f77;
      }

      .cls-49 {
        fill: #635242;
      }

      .cls-50 {
        fill: #8e5140;
      }

      .cls-51 {
        fill: #825f4e;
      }

      .cls-52 {
        fill: #ea7cd4;
      }

      .cls-53 {
        fill: #7a113b;
      }

      .cls-54 {
        fill: #131212;
      }

      .cls-55 {
        fill: #3c192a;
      }

      .cls-56 {
        fill: #56221b;
      }

      .cls-57 {
        fill: #57364c;
      }

      .cls-58 {
        fill: #9d7a61;
      }

      .cls-59 {
        fill: #f84bba;
      }

      .cls-60 {
        fill: #191717;
      }

      .cls-61 {
        fill: #bb755e;
      }

      .cls-62 {
        fill: #a68769;
      }

      .cls-63 {
        fill: #a37d67;
      }

      .cls-64 {
        fill: #cda990;
      }

      .cls-65 {
        fill: #fb78ee;
      }

      .cls-66 {
        fill: #fd82fc;
      }

      .cls-67 {
        fill: #855e4e;
      }

      .cls-68 {
        fill: #89574a;
      }

      .cls-69 {
        fill: #d2a886;
      }

      .cls-70 {
        fill: #bb694e;
      }

      .cls-71 {
        fill: #0f0f0f;
      }

      .cls-72 {
        fill: #bf9b7c;
      }

      .cls-73 {
        fill: #8b024b;
      }

      .cls-74 {
        fill: #b86d5a;
      }

      .cls-75 {
        fill: #714161;
      }

      .cls-76 {
        fill: #bf8f74;
      }

      .cls-77 {
        fill: #bb6a50;
      }

      .cls-78 {
        fill: #9a7a64;
      }

      .cls-79 {
        fill: #7e4c3b;
      }

      .cls-80 {
        fill: #de8f79;
      }

      .cls-81 {
        fill: #74153e;
      }

      .cls-82 {
        fill: #733b2e;
      }

      .cls-83 {
        fill: #801848;
      }

      .cls-84 {
        fill: #da7f64;
      }

      .cls-85 {
        fill: #fe69ea;
      }

      .cls-86 {
        fill: #170b02;
      }

      .cls-87 {
        fill: #7b4837;
      }

      .cls-88 {
        fill: #5f4e3f;
      }

      .cls-89 {
        fill: #811749;
      }

      .cls-90 {
        fill: #634e3e;
      }

      .cls-91 {
        fill: #a68669;
      }

      .cls-92 {
        fill: #d28369;
      }

      .cls-93 {
        fill: #7b5144;
      }

      .cls-94 {
        fill: #714438;
      }

      .cls-95 {
        fill: #db2482;
      }

      .cls-96 {
        fill: #de946d;
      }

      .cls-97 {
        fill: #800a3c;
      }

      .cls-98 {
        fill: #d8af95;
      }

      .cls-99 {
        fill: #b17e73;
      }

      .cls-100 {
        fill: #77685c;
      }

      .cls-101 {
        fill: #754a3e;
      }

      .cls-102 {
        fill: #252323;
      }

      .cls-103 {
        fill: #784938;
      }

      .cls-104 {
        fill: #98594d;
      }

      .cls-105 {
        fill: #ea3c96;
      }

      .cls-106 {
        fill: #4a1411;
      }

      .cls-107 {
        fill: #ad1064;
      }
    </style>
  </defs>
  <g id="SassyGirl_walk_2">
    <g>
      <path class="cls-83" d="M28.56,45.23c1.91-.37,1.75,1.59,1.22,3.12,2.59-.09,2.67,1.1.73,2.77.19.45.21.98.42,1.42,1.92,3.95,2.94,8.17,2.61,12.56-.3,2.65-2.64,3.66-2.64,3.66,0,0-.42-3.58-.07-4.48-.57-1.26-.92-2.8-1.05-4.63-3.39-1.9-3.07-5.16-1.3-8.54-1.3-.69-1.92-1.88-1.85-3.58-1.09-1.41-1.11-2.94.88-2.3.3-.87.65-.86,1.04,0Z"/>
      <path class="cls-17" d="M30.83,64.28l-.55,1.01c-1.73.97-2.73.04-2.8-1.89-6.29,1.28-5.04-5.75-1.79-8.35-.84-.79-.3-2.04,1.6-3.75-.34-1.93.41-2.04,1.17-.19-.29,4.62,2.95,8.55,2.35,13.17Z"/>
      <path class="cls-41" d="M25.7,55.05c-1.19,1.86-2.37,5.48.1,7.03.62.23,1.19-1.72,1.1-2.13-.15-.64,1.04-1.69,1.91-.77,1.66,1.75-.29,4.67,1.48,6.1-.68,1.25-2.44.97-3.75,1.09-4.66,1.12-6.38-.23-5.18-4.05-2.66-1.51-1.57-3.37,1.04-3.99-1.31-1.86-.89-2.23,1.13-2.96.32-1.47,1.75-2.01,2.18-.32Z"/>
      <path class="cls-4" d="M25.7,55.05l-2.18.32c-1.9-.36-1.64-.91.09-1.67,1.15-.92,2.33-1.82,3.69-2.41.17,1.57-.86,2.58-1.6,3.75Z"/>
      <path class="cls-31" d="M23.52,55.38c.41,1.19.04,2.37-1.13,2.96-1.81,2.12-3.19,2.46-4.14,1.03-2.24.65-2.82.22-2.72-2.09l4.92-2.87c.82-.34,2.34-.04,3.15-.69.1.51-.26,1.18-.09,1.67Z"/>
      <path class="cls-107" d="M22.4,58.33c-.49,1.29-.83,2.63-1.04,3.99-1.14,1.73-.81,3.92-.2,5.81-.78.07-1.81-.06-2.52.34-1.44.34-2.34-.26-1.83-1.75-1.7-.47-1.75-1.23.05-1.6-1.36-4.05-.89-5.97,1.4-5.76.53-.61,1.62-.65,2.36-1.34.41-.38,1.67-1.06,1.78.31Z"/>
    </g>
    <path class="cls-55" d="M25.55,26.1l1.95,5.34c-1.65-1.03-3.12-2.37-4.17-4.02-1.8-1.98-1.03-2.55,1.32-1.34l.89.02Z"/>
    <path class="cls-96" d="M19.89,20.33c2.29,1.25,3,3.97,4.77,5.75l-1.32,1.34c-.25,0-.5.03-.74.09-1.75.3-4.07-1.23-4.85-2.93-3.59-.94-.64-7.61,2.15-4.25Z"/>
    <path class="cls-25" d="M19.87,19.35l.02.97c-1.11-.01-2.78.18-3.26,1.59-.27.79.71,1.9,1.11,2.66.77.26.73.58-.04.96l-2.14-1.18c-1.05-2.34-.66-6.41,2-7,.64.81,1.45,1.45,2.32,2Z"/>
    <path class="cls-45" d="M22.59,27.51l-.78.87c-.49,2.81-1.51,2.04-2.46-.17-.68-.81-1.25-1.7-1.66-2.67l.04-.96c1.79.8,4.23.81,4.85,2.93Z"/>
    <path class="cls-86" d="M17.55,17.35c-1.23,2.2-2.44,4.44-2,7-2.01-1.11-.67-3.82-.91-6.19-.13-1.25,2.25-.77,2.91-.81Z"/>
    <path class="cls-81" d="M16.63,38.5c-2.63.69-.73-.73-2.91,6.78,1.18.38,1.44,1.38.77,2.99-1.31,1.09-2.34,2.46-3.08,4.12.15,2.04-.99,1.64-1.86-.03-.34-.31-.65-.64-.93-1,.42-1.98.77-4.05,1.84-5.82-1.4-2.11-1.34-2.25,1.15-2.18-1.2-1.86-1.19-2.91.02-3.16-.19-1.35.25-2.68,1.72-2.86,1.08.16,2.29-.26,3.09-.98.13.71.19,1.43.19,2.15Z"/>
    <path class="cls-16" d="M23.55,34.35c.97.64,1.93,1.49,2.04,2.56.14,1.36-.43,2.43-1.19,3.33-.59.7-1.1,1.46-1.75,2.11l.11-1.1c-.93-.19-1.34-1.48-1.22-3.87.03-.9.2-1.78.33-2.66.05-.31.14-.78.05-1.08.41.32,1.08.78,1.62.71Z"/>
    <path class="cls-17" d="M26.53,66.38c-.77.07-1.26.83-1.88,1.13-.67.33-1.53.35-2.03,1.02-.68,1.81-1.37,1.57-1.46-.39-3.38-.73-3.32-5.67.2-5.81.15.75-.12,2.94.92,3.06,2.07-.02,3.8-.89,4.26,1Z"/>
    <g>
      <path class="cls-12" d="M15.51,82.5c1.47-1.15,2.35,1.96,2.12,3.48.39,3.79,1.19,7.52,2.38,11.18,1.89,1.49,2.45,2.91,1.71,4.25,2.61-1.3,3.82.49,2.11,2.78-.95,1.66-2.02,2.64-3.21,2.94-.65-.66-1.41-1.44-2.28-2.34-2.5-.43-4.21-4.1-1.91-5.74-.12-1.35-1.36-2.61-.85-4.07-.79-1.17-1.27-2.8-1.45-4.89-.57-1.6-1.33-3.04-2.27-4.31-.39-1.24.26-2.49.31-3.7,1.43-2.3,2.53-2.16,3.33.43Z"/>
      <path class="cls-82" d="M14.14,90.08l3.18,6.3c-1.24.25-1.43-.76-1.73-1.41-1.97-1-2.03-3.4-2.8-5.31.62-1.84,1.22-1.52,1.35.42Z"/>
      <path class="cls-26" d="M14.14,90.08c-.36-.36-.85-.57-1.35-.42-.5-1.23-.53-2.63-.92-3.89.49-1.89,4.04,4.35,2.27,4.31Z"/>
      <path class="cls-103" d="M16.41,75.23c2.6-.06,3.31.39,1.5,2.53.83,2.13.56,3.06-.84,2.79.19,1.61.11,2.69-1.57,1.95-1.1-.2-2.22-.32-3.33-.43.04-.87-1.61-1.71-1.29-2.93.14-.55.59-1.2,1.27-1.57,1.42.23,1.66-.63.74-2.56l1.23-1.88c-.13-.92.21-1.08.98-.52,1.12-.29,1.68,1.55,1.31,2.62Z"/>
      <path class="cls-42" d="M18.51,85.51c3.25.99,3.18,4.37,1.63,6.94.13,1.24-.7,3.38-.14,4.71-3.5-2.15-2.98-7.43-2.38-11.18-.16-.9.15-1.05.88-.47Z"/>
      <path class="cls-80" d="M20.62,107.12c1.48-1.34,1.63-.1,1.07,1.58.74-.07.89.23.47.88-.62,1.65-1.42,3.17-2.65,1.4-.98,1.35-1.66,1.01-1.3-.61l-.33-.48c.25-.2.76-.25.94-.52l-.47-4.59c1.52-.71,1.67,1.44,2.28,2.34Z"/>
      <path class="cls-94" d="M17.08,80.55c2.19-.14,3.38,3.63,1.43,4.96l-.88.47-2.12-3.48c.32-.79.9-1.43,1.57-1.95Z"/>
      <path class="cls-24" d="M23.83,104.18c2.02.67,1.77,1.41-.42,1.35.48,1.63.2,2.53-.84,2.7.16.9-.15,1.05-.88.47l-1.07-1.58c.7-1,1.91-2.76,3.21-2.94Z"/>
      <path class="cls-99" d="M18.81,109.38c-1.59-1.25-.19-3.26-.47-4.59,1.09,1.25,1.4,3.17.47,4.59Z"/>
      <path class="cls-20" d="M13.24,62.52c-1.32-2.47-.28-3.1,1.82-1.23,2.98-.3,2.99,1.65.15,2.53.08,1.25-.31,2.06-1.16,2.45-.26,1.48-.83,2.57-1.7,3.27,1.05.82,1.86,2.42,1.77,3.59.88,1.59,1.88,4.22-.2,5.74-.58.42-1.49-1.11-1.77-1.3l-.53-.85c-1.18-.88-1.64-1.76-1.4-2.65-1.32-3.28-2.6-6.5-3.85-9.64-.87-1.76-.1-2.04,1.18-.45,2.31,1.12,3.87.06,5.7-1.45Z"/>
      <path class="cls-50" d="M12.98,71.29c-2.3,1.5-2.03,2.47-2.77,2.77-1.52-.93-2.45-2.7-2.8-5.31l2.73-7.04,9.19.2-6.35,9.37Z"/>
      <path class="cls-67" d="M10.21,74.06l1.4,2.65c-2.6-1.23-4.66-5.12-4.2-7.96l2.8,5.31Z"/>
      <path class="cls-19" d="M19.5,110.99c1.86-1.3,1.87.95,1.4,2.65-.69,1.09-2.43,1.47-3.16.26l-.56-3.02,1.03-.5c.39-.19,1.07.18,1.3.61Z"/>
      <path class="cls-51" d="M15.21,63.82c3.66.79,4.06,8.44,2.29,10.93-.35-.04-.73.45-1.09.48-.39-.78-1.04-1.85-1.31-2.62-1.28.06-2.02-1.56-1.4-2.65-1.03-.76-.25-2.53.35-3.69-.34-1.03.21-2,1.16-2.45Z"/>
      <path class="cls-70" d="M13.71,69.96c.86.75,1.58,1.55,1.4,2.65l-.98.52c-1.8-.41-1.75-2.09-1.77-3.59.52-1.98,1.37-1.72,1.35.42Z"/>
      <path class="cls-106" d="M23.04,109.12c.95,1.88.96,3.8-.74,5.04-.67.41-2.33,1.24-3.59,1.35-.65.06-2.12-.15-.98-1.61,1.05-.16,2.1-.27,3.16-.26-.42-1.74-.12-2.85,1.26-4.05-.02-.29-.3-.64-.47-.88l.88-.47c.88-.16,1.02.14.47.88Z"/>
      <path class="cls-8" d="M22.16,109.59c.08,1.45-.26,2.96-1.26,4.05l-1.4-2.65,2.65-1.4Z"/>
      <path class="cls-14" d="M23.04,109.12c-.1-.31-.4-.57-.47-.88-.21-1,.23-1.93.84-2.7.53,1.04,1.2,2,1.65,3.29-.89.45-1.46.34-2.02.29Z"/>
      <path class="cls-39" d="M13.24,62.52c-.9,1.38-2.12,2.37-3.59,3.79-.74-.96-1.9-1.54-2.11-2.35,1.99-.01,3.88-.67,5.7-1.45Z"/>
      <path class="cls-35" d="M14.05,66.27c.2,1.24.27,2.55-.35,3.69-.36-.31-.9-.35-1.35-.42-.01-1.37.35-2.54,1.7-3.27Z"/>
    </g>
    <g>
      <path class="cls-47" d="M28.48,51.11c-.37.12-.82.04-1.17.19-.83,1.42-2.18,3.62-3.69,2.41-.14,2.85-1.87,3.12-3.15.69-2.1.69-2.68.32-1.74-1.12-1.3-1.45-.66-1.92.96-.71,1.08-.98,2.37-1.72,3.87-2.22-1.19-.84-.45-1.77,2.2-2.8.14-.88.44-.86.89-.02.81-.3,1.7-.33,1.86.44.26,1.22.04,2.22-.02,3.14Z"/>
      <path class="cls-18" d="M9.55,52.35c.87.28.86.62,0,1,.9,1.63.9,2.63,0,3-.69-.21-1.36-.49-1.98-.86.21-.6,0-1.5-.02-2.14-.02-.84.81-1.39,1.07-2,.85-.38,1.13,0,.93,1Z"/>
      <path class="cls-57" d="M11.41,52.38c.68-1.18,2.38-.91,5.1.82.41-2.26,1.61-2.14,2.22.07l1.74,1.12c1.49,2.44-2.69,3.63-4.92,2.87-.06.89-.38.85-.93.03-.33.87-.68.84-1.06-.03l-1,.08c-1.82-.2-2.82-1.53-3-4v-1l1.86.03Z"/>
      <path class="cls-75" d="M23.55,50.35c-.82,1.48-2.02,2.31-3.87,2.22l-.13-1.22c-1.11-2.58.18-3.04,2-1h2Z"/>
      <path class="cls-6" d="M12.55,57.35h-3c.13-.25,0-.71,0-1v-3c1.05,1.31,1.67,2.94,3,4Z"/>
    </g>
    <g>
      <path class="cls-43" d="M23.33,27.42c1.51.07,2.9,1.41,4.17,4.02.33.9.25,2.43-.84,2.91-.51.71-1.55.71-3.12,0-.93,2.48-1.48,1.87-1.62-.71-.97-1.06-2.16-4.66-.11-5.27-1.56-1.16-1.04-1.73.78-.87.14-.92.39-.95.74-.09Z"/>
      <path class="cls-9" d="M26.66,34.35c.26.57.03,1.54.65,1.82.81.36,1.57.26,2.23.18-1.32,1.13-3.29,3.28-3.13,5.29.39,4.11-4.03,2.02-2.02-1.4-.91-1.78-1.19-3.74-.85-5.89.43-.23.86-1.01,1.37-.81s1.53.39,1.74.81Z"/>
      <path class="cls-30" d="M26.41,41.64c.09,1.24.82,2.41,1.1,3.59-.3.64-.95,1.48-.88,2.3-.26.1-.61-.02-.89.02-1.57.06-2.74-1.57-2.95-3.03-1.11-.2-.98-1.49-.14-2.17.24-1.42.82-2.13,1.75-2.11-.04.42.02,1.33.56,1.77.33.27.99-.13,1.45-.37Z"/>
      <path class="cls-48" d="M21.54,37.38c.87,1.3.71,3.37-1.04,2.96-.73,1.31-2.52,2.86-4.22,3.04-.46,2.68-1.32,3.32-2.56,1.9-2.01-1.74-.09-9.21,2.91-6.78,1.57-.79,2.13-1.5,1.69-2.13l-.09-1.09c.12-1.96.93-1.88,1.32.08.13-.83.31-1.14,1.12-.77.12-1.99.92-1.89,1.21.14,2.39,1.16,2.32,2.19-.33,2.66Z"/>
      <path class="cls-27" d="M18.32,36.37c0,.28,1.68.27,1.66.7-.02.6-.91,1.67-1.47,1.82s-1.45.27-1.88-.39c-2.12-.29-2.19-1.01-.19-2.15l.8.02h1.08Z"/>
      <path class="cls-97" d="M21.81,28.38c.41,1.77-.41,3.55.11,5.27.54.34.51.7-.05,1.08-.37.04-.86-.26-1.21-.14-.43-1.22-.81-2.63-1.12-4.23l-.33-1.2.14-.95,2.46.17Z"/>
      <path class="cls-59" d="M20.5,40.34c1.7.3.96,1.84-.07,2.93-.75,1.32-1.75,2.35-3.01,3.08,1.82.51,2.53,2.18,2.13,5.01,1.91-.4,1.99.4.13,1.22l-.96.71-2.22-.07-.91-.85c-1.39-1.11-1.09-2.4.72-2.13-2.69-.98-2.7-3.26-.04-6.84.55-.8.53-2.03,1.19-2.55,1.03-.81,2.02-.88,3.03-.49Z"/>
      <path class="cls-52" d="M25.75,47.55c.26,1.61-1.6,1.71-2.2,2.8-.94.75-1.65,1.29-2,0-2.85-.07-2.73-2.33,0-3,.28-.87.62-.86,1,0,.64-1.62,2.4-1.45,3.2.2Z"/>
      <path class="cls-16" d="M25.75,47.55c-1.08.14-2.35.7-3.2-.2-.87-.17-.78-2.43.25-2.83,1.94-.1,2.68,1.34,2.95,3.03Z"/>
      <path class="cls-59" d="M22.65,42.35l.14,2.17-.25,2.83h-1c-1.98-.6-2.82-1.09-.91-1.76,0-3.48.71-4.93,2.12-4.34l-.11,1.1Z"/>
      <path class="cls-95" d="M16.32,50.22c-.16.57-.34,1.02-.58,1.06-2.5.4-1.12-1.5-.04-.1.18.23.08.67-.1,1.17.4.19,1.5.02.91.85-1.75.21-3.59.18-5.1-.82-1.14-2.51,1.6-4.66,2.31-7.1.7-.72,1.99-1.06,2.56-1.9.15,2.29-.36,4.56.04,6.84Z"/>
      <path class="cls-66" d="M22.76,41.25c-2.05,1.3-1.21,4-1.21,6.1v3l-2,1c-2.43-.08-2.32-3.4-2.13-5.01.7-1.16,1.7-2.18,3.01-3.08.14-.93-.17-2.03.07-2.93.27-.99,1-1.88,1.04-2.96,1.52.58,1.35,2.54,1.22,3.87Z"/>
      <path class="cls-89" d="M20.66,34.58c-.39.13-.68.68-1.12.77v-5c1.54.75.97,2.8,1.12,4.23Z"/>
      <path class="cls-15" d="M20.43,43.27c-.11.7.16,1.5-.33,2.13-.64.83-1.72.98-2.69.94.07-.55-.13-2.39.49-2.52l2.53-.56Z"/>
      <path class="cls-21" d="M16.32,50.22c.12.69-.61,1.48-.72,2.13-.97-.45-2.73-1.3-1.81-2.86.69.02,1.77.95,2.53.73Z"/>
    </g>
    <path class="cls-73" d="M18.64,68.48c-1.21.69-2.46.92-3.85.84-.09-.62.59-1.43.87-1.94.19-.34.89-.35,1.15-.65.91.16,1.67.82,1.83,1.75Z"/>
    <g>
      <path class="cls-53" d="M9.55,56.35c.93.28.91.61,0,1,.56.79.28,2.15-.84,4.07,1.3,4.12.7,6.38-1.81,6.76l-1.26-.15c0-.51.49-8.7,1.93-12.54,1.18-1.6,1.61-.87,1.98.86Z"/>
      <path class="cls-105" d="M12.55,57.35l1-.08c.46,2.92-.42,3.54-3,2.08-1.49,4.15-.26,5.43,3.38,2.64,1.19,1.96,1.77,3.76,1.73,5.39,1.58.93.59,1.34-.87,1.94-.56-.03-1.69-.04-2.18.24-2.98,1.02-4.89.57-5.72-1.38.87-3.65.95-7.45,2.66-10.83-.37-1.83.63-1.83,3,0Z"/>
      <path class="cls-46" d="M19.72,64.16s0,.23.02.47c.08.64-.05,1.28-.37,1.84,0,0,.07,1.93-.64,2.1-.64.16-2.5-.62-3.07-1.19-1.03-.88-1.63-2.08-2.38-3.85-1.04.02-1.66.66-2.82,1.2-1.34-1.6-1.98-4.4.09-5.38q1.05,1.98,0,0c1.09-.51,2.05-1.37,3-2.08l1.06.03c1.62,1.51,5.23,3.16,5.11,6.86Z"/>
      <path class="cls-65" d="M18.26,59.36c-.78.89,1.58,1.22,1.56,2.35-.02.92-1.68,2.91-2.24,3.68-2.08-1.97-3.01-5.34-2.97-8.09.31,0,.62-.05.93-.03,1.26.1,2.29.91,2.72,2.09Z"/>
      <path class="cls-85" d="M10.55,59.35c1.1.65,2.46,1.3,1.5,1.99-.83.6-.09,1.84-1.33,2.05-.39-1.8-.09-2.84-.17-4.03Z"/>
    </g>
    <g>
      <path class="cls-40" d="M34.8,31.17c-.71.12-1.53.21-2.3-.23-.95-.54-.65-1.71-.73-2.68,1.41.47,2.59,1.46,3.04,2.9Z"/>
      <g>
        <path class="cls-5" d="M29.83,25.51c.96.56,1.82,1.59,1.92,2.75.92,1.41,1.48,2.15,3.04,2.9,4.62,1.75,2.45,6.73,1.79,10.19-1.11.26-1.8-.78-2.07-3.12-.69,1.3-1.35.67-1.97-1.88-.67.94-1,.61-1-1-.59,1.11-1.23,1.8-2,1-3.16,2.59-4.32,1.06-2.88-2-1.29-1.8-1.3-2.07.84-2.91-2.35-2.22-3-4-1.95-5.34-3.23-6.09,2.11-3.21,4.28-.59Z"/>
        <path class="cls-40" d="M22.8,18.48c.81,2.32,3.69,2.21,5.78,2.92.55,1.33,1.02,2.69,1.25,4.11-.42.35-1.11.86-1.6.59-.85-.46-1.08-1.4-1.96-2.47-.78.67-.51,1.67-.72,2.46-.21.88-.51.85-.89-.02-2.54-.14-5.67-2.83-4.77-5.75-.88-.26-.87-.58-.02-.97-1.34-1.34-1.36-1.96.62-1.73,1.61-.91,2.45-1.1,2.31.86Z"/>
        <path class="cls-37" d="M32.55,36.35c.47,1.49.32,3.22-1.18,4-.9.4-1.14.03-.82-1l1-4c.38.03.73.74,1,1Z"/>
      </g>
    </g>
    <g>
      <path class="cls-76" d="M33.35,47.68c-.24.96-.61,2.82-1.36,3.3s-2.3,1.33-2.9.69-1.29-1.04-1.34-2.38-.45-1.99,0-2.68.64-.96,1.23-1.8,1.1-.87,1.43-.83,3.64,1.62,3.42,2.37-.48,1.33-.48,1.33Z"/>
      <path class="cls-34" d="M34.52,38.23c.76,1.6,1.02,3,.79,4.2-1.91,3.58-.53,9.51-4.8,8.69-.37-.89-.47-1.85-.73-2.77-.16-1.68.03-3.11.55-4.29-1.99-.73-1.29-4.01,1.04-3.71.12-1.36.35-3.02,1.18-4,.65.61,1.44,1.16,1.97,1.88Z"/>
      <path class="cls-76" d="M36.59,41.35c-.1.51-.93.79-1.28,1.08-.89-1.21-.86-2.75-.79-4.2.74,1,1.19,2.22,2.07,3.12Z"/>
      <path class="cls-76" d="M29.78,48.35c-.3-1.08-.79-2.1-1.22-3.12.31-.31.58-.66.82-1.02.13-.91.45-.94.95-.15,1.23,1.26.56,3.14-.55,4.29Z"/>
    </g>
    <g>
      <path class="cls-1" d="M31.78,66.91c-.44.85-.81,1.76-1.25,2.6-.04.09-.1.17-.16.24-3.15,4.08-5.59,8.64-8.33,12.99-.25.4-.26.88-.2,1.35.04.3-.26.42-.87.37-2.69-2.55-2.02-5.45,2-8.7.63-.51.76-1.37.42-2.1-.8-1.69.39-3.07,2.49-2.65.5.1,1.03-.01,1.42-.34.89-.74,1.54-1.72,1.88-2.83.21-.67,0-1.41-.56-1.84-1.34-1.02-.79-1.53,1.65-1.53.3,0,.61.09.87.25h0c.75.45,1.04,1.41.64,2.18Z"/>
      <path class="cls-84" d="M30.75,64.49l-1.32,2.06c-.08,1.9-1.21,3.71-2.87,4.66-.75,1.21-1.7,2.33-2.34,3.6l-4.86,4.84c-1.16-.91-1.28-2.34-.36-4.29-.38-.39-.7-.79-.82-1.25-.14-.54,2.99-9.77,3.42-10.69.16-.35.69-.54,1.32-.68-.12-2.05,1.59-1.6,2.4.03,1.92-2.26,3.11-1.26,4.12,1.13-.02-.86.33-1.08,1.08-.62l.23,1.21Z"/>
      <path class="cls-61" d="M20.72,90.73l-6.7,11.29c.17,1.74-1.8,5.01-3.22,3.15-.76.65-1.07.45-.93-.57.08-2,1.38-4.58,2.64-6.08-.69-2.22-.08-5.88,2.45-6.25,1.85-2.28,3.32-4.63,4.4-7.07-.41-2.05.34-2.39,1.61-.74.26-.19.39-.65.57-.93l.93.57-1.76,6.62Z"/>
      <path class="cls-74" d="M11.52,108.18l.93.57c-2.11,3.13-3.35,6.82-3.9,10.56-1.23,1.7-3.72.15-3.83-1.72-1.28-1.62.48-6.13,2.55-6.71.1-1.95,1.68-5.11,3.31-3.28.76-.65,1.07-.45.93.57Z"/>
      <path class="cls-32" d="M16.1,100.73l-2.08,1.29c.21-4.19,3.48-8.69,6.7-11.29-.94,3.56-2.66,6.82-4.62,10Z"/>
      <path class="cls-87" d="M11.52,108.18l-.93-.57c-1.88.11-1.44-2.05.21-2.44,1.79.27,2.41-1.92,3.22-3.15.47-.72,1.11-1.66,2.08-1.29l-4.58,7.45Z"/>
      <path class="cls-77" d="M20.97,84.46c-.47.35-1.09.49-1.61.74-.51.78-.75.61-.76-.4-.32-1.11-.63-2.32-.94-3.65-1.55-.26-1.08-2.67,0-3.55-1.07-.83-.15-2.94,1.32-2.24l.24,3.05c2.27-1.4,3.02-3.62,4.98-3.59-1.55,3.11-4.79,6.17-3.25,9.65Z"/>
      <path class="cls-104" d="M26.56,71.21l2.87-4.66c1.03,1.74-.84,4.79-2.87,4.66Z"/>
      <path class="cls-93" d="M22.91,62.74c-.44,4.43-2.47,8.43-3.92,12.61-.26.76-1.32,1.45-1.32,2.24-.28,1.93-.51,2.15-1.36.34-1.14-1.65-.59-3.94,1.65-6.88-2.04-2.27-.46-7.67,2.46-8.53.28-2.46,2.2-2.18,2.48.21Z"/>
      <path class="cls-10" d="M8.56,119.31c-.13.88-.42,2.24-.58,3.04-1.2,1.43-5.05-.79-4.84-2.64.18-.33.11-.89.38-1.12-.53-1.61-.15-2.12,1.21-1,1.46.06,2.71.83,3.83,1.72Z"/>
      <path class="cls-44" d="M7.98,122.35c.8,1.59-.55,1.77-1.26,1.66-1.53-.24-3.05-1.29-3.79-1.86-.02-.35-1.09-.44-1.31-.93-.16-.36-.3-.9.24-1.34.28-.22.86-.23,1.28-.17l4.84,2.64Z"/>
      <path class="cls-79" d="M15.56,88.86c2.35.77.92,2.07-.6,3.41-.58,2.17-1.36,4.29-2.45,6.25-.54,1.91-1.15,2.19-1.73.22-2.6-1.76-2.43-3.3.41-4.56-2.79-1.73.15-7.7,3.13-7.38.62-.78.92-.6.93.44.85-.17.95.37.31,1.63Z"/>
      <path class="cls-61" d="M8.22,105.72c-.29-1.41.64-4.99.99-6.5s.19-5.5,1.03-6.95,3.51-3.41,3.51-3.41c0,0,2.15-2.46,2.42-1.11s-3.6,13.79-4.5,15.9-3.44,2.07-3.44,2.07Z"/>
      <path class="cls-92" d="M14.96,92.27c.29-1.11.48-2.27.6-3.41.23-1.6,1.45-3.93,3.04-4.06.21.17.6.2.76.4,2.32,2.92-1.54,6.09-4.4,7.07Z"/>
      <path class="cls-23" d="M10.8,105.17l-.21,2.44c-1.55.39-2.77,1.77-3.31,3.28-.82.6-1.15.36-.99-.68-1.82-2.23-.15-5.8,2.65-6.18.76-.65,1.07-.45.93.57l.93.57Z"/>
      <path class="cls-68" d="M9.87,104.59l-.93-.57c-2.45-2.35-1.34-4.77,1.85-5.28.58-.04,1.16-.12,1.73-.22.3,2.36-1.49,4.17-2.64,6.08Z"/>
      <path class="cls-56" d="M7.28,110.88c-.81,2.26-.76,5.23-2.55,6.71l-1.21,1c-2.23-2.53.5-6.21,1.94-8.76.48-.9.75-.72.83.38l.99.68Z"/>
      <path class="cls-101" d="M17.67,81.15c1.38,2.22-.18,5.21-2.42,6.09l-.93-.44c-3.64-.43-.78-8.4,2-8.86l1.36-.34v3.55Z"/>
      <path class="cls-1" d="M18.6,84.8l-3.04,4.06c.05-.51-.41-1.08-.31-1.63,1.32-1.8,2.81-3.78,2.42-6.09,1.25.79,1.48,2.33.94,3.65Z"/>
      <path class="cls-101" d="M12.5,87.75c-.29-.71,1.34-7.03,1.92-8.69s1.75-8.82,2.5-10.24,3.8-1.84,3.8-1.84c0,0,1.28-.07.71,2.36-.79,3.35-5.39,12.99-5.69,14.39s-.2,4.9-1.26,5.13c-1.05.23-1.59-.17-1.98-1.11Z"/>
    </g>
    <g>
      <path class="cls-98" d="M8.89,57.94c-.03-.87.02-5.72-.34-7.11s-.17-3.94-.65-4.48-2.76-2.56-4.74-1.29c-1.98,1.27-2.59,1.41-2.59,2.3s.64,4.37.84,4.84,3.59,4.94,4.58,5.54,2.94,1.67,2.89.21Z"/>
      <path class="cls-98" d="M7.48,56.82c2.98-.13,6.12,7.52,3.77,9.32l1.96,1.05c-2.3,2.6-4.02,2.44-5.16-.49-.4-.55-.56-1.31-1-1.82-.15-2.25-.56-4.38-1.24-6.41-1.08-1.22-2.27-2.47-3.15-3.86.66-3.84,2.26-3.11,4.81,2.2Z"/>
      <path class="cls-38" d="M5.82,58.47c.8.9,2.24,1.19,2.62,2.74.31,1.24-.17,2.74-1.39,3.67-1.38-1.59-3.18-4.85-1.24-6.41Z"/>
      <path class="cls-64" d="M3.3,51.11c-.76-2.32.04-2.72,1.77-.94-.72-1.75.56-2.57,1.77-.94,2.04,1.05,1.36,2.06-.67,2.67,2.95-.27,3.87,3.38,1.32,4.91-1.42,0-2.17-2.5-3.27-2.65-.53-.07-1.15.28-1.53.45-1.36-2.15-2.11-4.27-2.11-6.65.71,1.16.97,3.56,2.73,3.15Z"/>
    </g>
    <g>
      <path class="cls-54" d="M5.79,24.41c4.35-.8,1.26,7.22.76,7.29-.77.11.38-4.39,2.05-2.33,2.97,1.72,2.36,5.65-1.15,5.81-.12.97-.76,1.35-1.91,1.16l-1,7c.87.28.86.62,0,1-.1,1.07-.77,1.74-2,2,.51,1.36.37,3.32-1,4-2.16,2.29-1.64-2.01-.94-4.06,1.03-1.93.49-4.79.95-6.81.59-1.16,1.02-3.09,1.92-4.08.32-1.76.67-3.44,1.07-5.04-1.01-1.31-.74-4.24,0-6l-.07-1.17,1.1-.07c1.84-.36,1.72.23.21,1.3Z"/>
      <path class="cls-3" d="M5.79,24.41c-.16-.4-.08-.89-.21-1.3.98-1.34,2.48-2.11,4-2.71.68-.27,1.3-.69,1.9-1.11.87-.74,1.88-.67,1.85.22-.12,4.1-4.35,7.52-7.54,4.9Z"/>
      <path class="cls-60" d="M3.48,35.4l.07-5.04h1c0,1.99.28,3.55-1.07,5.04Z"/>
      <path class="cls-60" d="M14.26,16.18l1.23.31c1.03-2.67,2.36-1.98,2.05.87-2.43.97-3.14,4.16-2,7,.65-1.41,1.61,0,2.14,1.18,1.6-.03,3.2,1.29,1.66,2.67.84.34.77.65-.14.95-.44,2.12-.77,4.16-.98,6.12.9.25.91.61.09,1.09-.31.88-.67.86-1.08,0-4.78.21-7.11-1.77-6.98-5.94l-1.64-1.06c-1.34.61-1.69,1.73-2.75,3,.32-3,.89-5.59-.07-7.97,1.23-.65,8.35-3.27,5.68-5.12-.14-1.02,2.13-4.74,2.79-3.12Z"/>
      <path class="cls-71" d="M17.23,36.38c-.13.88-.4.84-.8-.02-.21,1.88-2.62,3.26-3.09.98-.86.27-1.69.58-2.51.95.16,1.58-.64,2.32-2.29,2.12,1.66,1.97-.68,9.23-3,9.95h-2c-1.5,0-1.41-1.55,0-2-.11-1.9.22-3.23,1-4v-1c-.39-1.67.09-4.4,2-4-.53-1.47-.57-3.6.91-4.16,1.08-1.73.95-3.84,1.15-5.81.8-.36,1.22-1.32,2.31-.72,2.55,1.41.69,5.72,3.15,5.93,1.58.14,2.81.4,3.16,1.78Z"/>
      <path class="cls-102" d="M6.55,39.35l-2,4c-2.01-1.79,0-5.19,1-7,.71.44,1.04,1.44,1,3Z"/>
      <path class="cls-36" d="M3.55,48.35v2h-2c-.06-1.43.32-2.77,1-4,1.38-2,1.94.29,1,2Z"/>
      <path class="cls-60" d="M7.46,35.2c-.33,1.36-.28,2.9-.91,4.16-1.22-.46-1.05-1.91-1-3,.14-.32-.04-1.62.44-1.89.37-.2.97.83,1.47.73Z"/>
      <path class="cls-102" d="M4.55,44.35c0,1.35.51,3.35-1,4,0-.79-.1-1.78-1-2,.28-.51-.13-1.54.63-1.83.46-.18.94-.24,1.37-.17Z"/>
      <path class="cls-11" d="M19.21,29.15c1.82-.7,2.01.08.33,1.2.71,1.44.92,3.6,0,5-.41.08-.9-.13-1.32-.08-.06-1.69-1.77-1.74-3.99-2.12,1.09-2.37,3.33-2.82,4.98-4Z"/>
      <path class="cls-60" d="M13.34,37.34c-.35,1.08-.85,2.12-1.72,2.86-1.85.68-2.44-.78-.78-1.91.5-.52.86-1.57,1.62-2.11.38-.27.52,1.04.89,1.16Z"/>
      <path class="cls-13" d="M10.84,38.29l.78,1.91c.4.98-.04,2.12-.02,3.16-.95-1.05-1.82-2.22-3.05-2.96.25-.64-.02-1.53.79-1.87.44-.18,1.26.01,1.5-.25Z"/>
    </g>
    <g>
      <g>
        <path class="cls-63" d="M22.8,18.48c-.79-.24-1.56-.52-2.31-.86-.82-.39-.82-.81-.04-1.27,1.54-3.06,3.59-4.39,6.13-3.99-.57,2.35-1.19,7.07-3.78,6.12Z"/>
        <path class="cls-2" d="M25.59,11.57c.05-.9.38-.94.96-.21,0,.32.11.7.03,1.01-3.91.51-2.31,4.66-6.13,3.99-4.58-2.17,1.52-7.28,5.14-4.79Z"/>
        <path class="cls-7" d="M21.49,9.07c1.65-.8,2.22-.4,2.08,1.43.84,0,1.69.19,2.02,1.06-1.23.06-2.64-.05-3.74.65-1.35.86-1.33,2.68-1.4,4.14-.02.38.19.93.04,1.27-.25.56-.63,1.1-.62,1.73-2.55,1.5-3.09.87-2.32-2-.51-.64-1.31-.69-2.05-.87-.26-.99-.34-2.06.13-3.01,2.84.07,3.94-2.62,5.87-4.4Z"/>
      </g>
      <path class="cls-78" d="M15.62,13.48c2.2,1.32,2.18,1.86-.13,3.01-.67,1.61-1.24,1.5-1.23-.31-1.56-.23-1.87-.55-.94-.96-2.62,3.03-6.6,2.28-4.86-1.73.77-1.18.49-3.07,1-4.36.43-.25.63-.7.91-1.08.2-.28.78.04.99.19l1.17-.76c.6,2.05,1.62,4.05,3.08,6Z"/>
      <path class="cls-100" d="M23.7.36c-.13.25-.09.7-.15,1-1.39,1.11-4.22,2.31-6,2-.28.87-.62.86-1,0-.87.37-1.19-.03-1.05-1.07C17.16-.61,20.66-.1,23.7.36Z"/>
      <path class="cls-33" d="M26.55,6.36c-2.08,1.02-2.42-.37-1-2-1.71,1.13-2.76-.27-2-2-.88-.25-.86-.58,0-1,1.36.06,2.65.65,3.55,2,.58.87.18,2.07-.55,3Z"/>
      <path class="cls-88" d="M28.75,9.12l-2.2,2.23c-1.96-.65-1.97-3.36,0-4-.87-.28-.86-.62,0-1,.63.18,1.47.11,1.88.7.45.63.42,1.4.32,2.07Z"/>
      <path class="cls-90" d="M14.26,16.18c-.41,2.02-1.34,3.06-2.79,3.12-.02,1.45-.69,1.95-1.9,1.11-1.29-.97-2.86-1.72-2.93-3.49-.07-1.56,1.02-2.36,1.82-3.43.79,1.61,2.22,2.27,4.29,1.18.65-.34,1.37-.21,1.48.16.14.45.07.93.03,1.35Z"/>
      <path class="cls-72" d="M23.55,6.36c.87.28.86.62,0,1-.17,1.53-.64,2.73-2.06,1.72,1.24.53-1.52,4.47-2.29,5.25-1.3,1.34-2.71.85-3.58-.85-1.44-.03-3.06-.33-4.92.78-.36-4.08,3.41-4.03.66-6.02.1-1.12,1.11-1.78,2.18-1.88,1.88-1.49,2.02-1.28,2.04,1.06l.79.26c1.57-2.46,2.91-2.88,4-1.27.11-1.1,1.09-1.49,2.17-1.04,1.41-1.33,1.92-.77,1,1Z"/>
      <path class="cls-22" d="M17.55,3.36c2.45,1.7.5,3.85-1.96,4.06-.84.09-1.5-.47-2.04-1.06-.06-.32.1-.69,0-1,.55-1.1,1.85-2.14,3-2h1Z"/>
      <path class="cls-49" d="M16.55,3.36c-.72,1.03-1.73,1.85-3,2-.54-1.71,1.42-2.13,1.95-3.07.38.33.73.69,1.05,1.07Z"/>
      <path class="cls-91" d="M23.55,1.36c-.06.32.04.67,0,1,.22.89-.11,1.22-1,1-.57,1.19-1.29,2.2-2.17,3.04-2.3.63-3.73,3.05-6.78,3.01-.07-1.45,1.65-1.07,1.99-1.99.85-1.26,1.8-2.51,1.96-4.06,1.1-2.3,3.74-2.11,6-2Z"/>
      <path class="cls-62" d="M25.55,4.36c.32,1.87-.03,2.59-2,2l-1-1c-1.65.08-1.35-1.33,0-2,.28-.38.61-.73,1-1,.57.71,1.52,1.21,2,2Z"/>
      <path class="cls-29" d="M26.55,6.36v1c-.32,2.66-1.24,2.54-2,0-.3.6-.63.58-1,0v-1c.35-.93,1.07-1.65,2-2,.34.56.11,1.74,1,2Z"/>
      <path class="cls-58" d="M26.55,7.36v4c-.32.03-.64.2-.96.21-.91-.2-1.58-.56-2.02-1.06-1.68-1.05-.61-2.36.98-3.15h2Z"/>
      <path class="cls-28" d="M22.55,3.36v2c-.52.93-1.31,1.76-2.17,1.04-.08-.7-.16-1.51.28-2.3.31-.55,1.17-.73,1.88-.74Z"/>
      <path class="cls-69" d="M24.55,7.36c-.58.95-.86,2.04-.98,3.15-.91.01-1.8-.56-2.08-1.43.66-.61,1.22-1.32,2.06-1.72h1Z"/>
    </g>
  </g>
</svg>