<?xml version="1.0" encoding="UTF-8"?>
<svg id="Enemy" xmlns="http://www.w3.org/2000/svg" viewBox="0 0 35.69 115.11">
  <defs>
    <style>
      .cls-1 {
        fill: #9f5f4d;
      }

      .cls-2 {
        fill: #e4a680;
      }

      .cls-3 {
        fill: #f182e4;
      }

      .cls-4 {
        fill: #160e13;
      }

      .cls-5 {
        fill: #745862;
      }

      .cls-6 {
        fill: #c28e6a;
      }

      .cls-7 {
        fill: #ca2726;
      }

      .cls-8 {
        fill: #71244a;
      }

      .cls-9 {
        fill: #902e2a;
      }

      .cls-10 {
        fill: #a46652;
      }

      .cls-11 {
        fill: #1b0000;
      }

      .cls-12 {
        fill: #f571e2;
      }

      .cls-13 {
        fill: #e54cb1;
      }

      .cls-14 {
        fill: #f85fd4;
      }

      .cls-15 {
        fill: #200c11;
      }

      .cls-16 {
        fill: #a85450;
      }

      .cls-17 {
        fill: #c06c54;
      }

      .cls-18 {
        fill: #f53eae;
      }

      .cls-19 {
        fill: #c6a88b;
      }

      .cls-20 {
        fill: #936255;
      }

      .cls-21 {
        fill: #983c31;
      }

      .cls-22 {
        fill: #d59677;
      }

      .cls-23 {
        fill: #7a4134;
      }

      .cls-24 {
        fill: #d3589d;
      }

      .cls-25 {
        fill: #d3ae8e;
      }

      .cls-26 {
        fill: #e5c2a2;
      }

      .cls-27 {
        fill: #891c54;
      }

      .cls-28 {
        fill: #e74ab2;
      }

      .cls-29 {
        fill: #99685a;
      }

      .cls-30 {
        fill: #876;
      }

      .cls-31 {
        fill: #c39d75;
      }

      .cls-32 {
        fill: #a56452;
      }

      .cls-33 {
        fill: #2e1204;
      }

      .cls-34 {
        fill: #fa7b8a;
      }

      .cls-35 {
        fill: #17110e;
      }

      .cls-36 {
        fill: #f863d8;
      }

      .cls-37 {
        fill: #7f5342;
      }

      .cls-38 {
        fill: #cf3994;
      }

      .cls-39 {
        fill: #150605;
      }

      .cls-40 {
        fill: #f5b4a1;
      }

      .cls-41 {
        fill: #f24ec3;
      }

      .cls-42 {
        fill: #643b5f;
      }

      .cls-43 {
        fill: #c61f77;
      }

      .cls-44 {
        fill: #635242;
      }

      .cls-45 {
        fill: #8e5140;
      }

      .cls-46 {
        fill: #825f4e;
      }

      .cls-47 {
        fill: #ea7cd4;
      }

      .cls-48 {
        fill: #7a113b;
      }

      .cls-49 {
        fill: #3c192a;
      }

      .cls-50 {
        fill: #56221b;
      }

      .cls-51 {
        fill: #57364c;
      }

      .cls-52 {
        fill: #9d7a61;
      }

      .cls-53 {
        fill: #f84bba;
      }

      .cls-54 {
        fill: #bb755e;
      }

      .cls-55 {
        fill: #a68769;
      }

      .cls-56 {
        fill: #a37d67;
      }

      .cls-57 {
        fill: #fb78ee;
      }

      .cls-58 {
        fill: #fd82fc;
      }

      .cls-59 {
        fill: #855e4e;
      }

      .cls-60 {
        fill: #89574a;
      }

      .cls-61 {
        fill: #d2a886;
      }

      .cls-62 {
        fill: #bb694e;
      }

      .cls-63 {
        fill: #333;
      }

      .cls-64 {
        fill: #8b024b;
      }

      .cls-65 {
        fill: #b86d5a;
      }

      .cls-66 {
        fill: #714161;
      }

      .cls-67 {
        fill: #bf8f74;
      }

      .cls-68 {
        fill: #bb6a50;
      }

      .cls-69 {
        fill: #9a7a64;
      }

      .cls-70 {
        fill: #7e4c3b;
      }

      .cls-71 {
        fill: #de8f79;
      }

      .cls-72 {
        fill: #74153e;
      }

      .cls-73 {
        fill: #733b2e;
      }

      .cls-74 {
        fill: #801848;
      }

      .cls-75 {
        fill: #da7f64;
      }

      .cls-76 {
        fill: #fe69ea;
      }

      .cls-77 {
        fill: #170b02;
      }

      .cls-78 {
        fill: #7b4837;
      }

      .cls-79 {
        fill: #5f4e3f;
      }

      .cls-80 {
        fill: #811749;
      }

      .cls-81 {
        fill: #634e3e;
      }

      .cls-82 {
        fill: #a68669;
      }

      .cls-83 {
        fill: #d28369;
      }

      .cls-84 {
        fill: #7b5144;
      }

      .cls-85 {
        fill: #714438;
      }

      .cls-86 {
        fill: #db2482;
      }

      .cls-87 {
        fill: #de946d;
      }

      .cls-88 {
        fill: #800a3c;
      }

      .cls-89 {
        fill: #b17e73;
      }

      .cls-90 {
        fill: #77685c;
      }

      .cls-91 {
        fill: #754a3e;
      }

      .cls-92 {
        fill: #784938;
      }

      .cls-93 {
        fill: #98594d;
      }

      .cls-94 {
        fill: #ea3c96;
      }

      .cls-95 {
        fill: #4a1411;
      }

      .cls-96 {
        fill: #ad1064;
      }
    </style>
  </defs>
  <g id="SassyGirl_defeat">
    <path class="cls-11" d="M33.28,106.52c-.25,2.08-.89,6.53-.89,6.65s.32.28.45.23.48-.71.45-.98.42-4.79.42-5.17-.42-.74-.42-.74Z"/>
    <g>
      <path class="cls-83" d="M30.47,87.47c.5.71,1.92.7,2.47-.42s.57-1.27.15-2.82-1.41-2.81-2.18-2.77-.73,1.43-.75,2.61-.16,2.73.32,3.41Z"/>
      <path class="cls-1" d="M29.18,86.8c-.09-.76-.08-1.7-.25-2.32s-.87-1.56-.98-2.23-.01-1.79.08-2.2,1.47-1.12,1.91-.57.56,2.12.16,3.51.91,5.5.11,5.38-.91-.53-1.03-1.57Z"/>
      <path class="cls-1" d="M33.55,80.89c.36-1.25.71-2.07-.1-3.26s-1.62-1.09-1.63-.43,1.01,2.16.89,2.77.84.92.84.92Z"/>
      <path class="cls-91" d="M34.78,82.71c.54-.44-.06-2.39-.23-3.27s-.22-2.47-.95-3.44-.88-1.62-1.19-1.22.4,1.2.53,1.95.78,3.26.9,3.88.78,2.24.95,2.1Z"/>
      <path class="cls-1" d="M31.6,59.52c.13.82.34,1.63.46,2.45.01.08.02.17.02.25-.02,4.47.63,8.89,1,13.34.03.41.26.74.53,1.03.17.18.04.42-.38.71-2.94-.34-3.92-2.69-2.94-7.05.15-.68-.18-1.35-.75-1.67-1.33-.74-1.24-2.32.3-3.13.37-.19.65-.55.74-.98.21-.98.15-2-.17-2.94-.19-.57-.68-.98-1.24-.98-1.34,0-1.24-.64.31-1.92.19-.16.43-.26.67-.29h0c.69-.08,1.34.43,1.46,1.17Z"/>
      <path class="cls-75" d="M29.77,58.39l.16,2.12c.87,1.35,1.03,3.19.44,4.72.11,1.23.05,2.5.26,3.71l-.75,5.89c-1.18-.01-1.95-.94-2.31-2.77-.43-.07-.83-.18-1.12-.43-.35-.3-2.83-8.31-3-9.16-.07-.33.18-.73.51-1.16-1.07-1.35.23-1.94,1.54-1.24.13-2.57,1.36-2.51,3.16-1.38-.43-.59-.31-.91.39-1l.73.71Z"/>
      <path class="cls-68" d="M33.23,77.3c-.13.49-.45.91-.66,1.36.05.81-.19.81-.68.12-.74-.6-1.52-1.27-2.36-2.02-1.11.64-1.98-1.27-1.71-2.45-1.08,0-1.52-1.95-.25-2.24l1.63,1.98c.76-2.16.16-4.08,1.42-5.1.52,2.96-.06,6.77,2.61,8.36Z"/>
      <path class="cls-93" d="M30.36,65.22l-.44-4.72c1.5.66,1.78,3.75.44,4.72Z"/>
      <path class="cls-84" d="M23.95,61.3c1.86,3.29,2.51,7.11,3.62,10.75.2.66-.13,1.69.25,2.24.75,1.48.72,1.75-.7.95-1.52-.54-2.28-2.41-2.28-5.61-2.4-.49-4-5.04-2.56-7.17-1.01-1.84.34-2.66,1.67-1.16Z"/>
      <path class="cls-83" d="M33.19,85.84c-.35-.92-.79-1.82-1.27-2.67-.63-1.23-.98-3.47-.04-4.4.21,0,.48-.18.68-.12,2.88.79,1.97,5.01.63,7.19Z"/>
      <g>
        <path class="cls-70" d="M30.67,104.4c-.18-.54-.49-4.02-.57-4.64s-.17-3.88-.41-4.54-.55-1.62-.81-2.04-.71-3.37-.67-3.84-.02-.86.22-1.29.78,2.08.71,3.21,1,3.63.96,3.89.65,2.94.63,3.61.32,5.96.3,6.73-.47.7-.48.47.11-1.53.11-1.53Z"/>
        <path class="cls-54" d="M35.28,85.5l-1.45,10.22c.58,1.22.15,4.19-1.32,3.25-.34.7-.6.64-.78-.15-.49-1.48-.31-3.75.14-5.22-1.07-1.42-1.64-4.27-.04-5.29.63-2.21.98-4.36,1.05-6.46-.83-1.38-.42-1.84.88-1.01.12-.22.09-.59.13-.85l.78.15.61,5.36Z"/>
        <path class="cls-65" d="M34.78,94.74l-.22,3.87c-.01.18-.03.35-.06.53-.52,2.95-.3,8.02.32,10.83-.37,1.6-2.46,1.2-3.04-.13-1.3-.81-1.34-4.62-.1-5.65-.46-1.46-.25-4.23,1.34-3.37.34-.7,1.58-6.86,1.76-6.07Z"/>
        <path class="cls-29" d="M34.87,94.16l-1.05,1.55c-.99-3.12,0-7.38,1.45-10.22.33,2.88.05,5.77-.4,8.67Z"/>
        <path class="cls-78" d="M33.8,100.96l-.78-.15c-1.24.63-1.52-1.07-.51-1.84,1.28-.33,1.1-2.11,1.32-3.25.12-.66.3-1.54,1.05-1.55l-1.07,6.79Z"/>
        <path class="cls-9" d="M34.82,109.97c.15.68.32,1.76.43,2.39-.42,1.4-3.61.91-3.97-.51.03-.3-.17-.68-.05-.93-.8-1.02-.67-1.5.54-1.08,1-.38,2.05-.19,3.04.13Z"/>
        <path class="cls-39" d="M35.25,112.36c.97.93.11,1.46-.4,1.58-1.09.27-2.4-.04-3.05-.25-.11-.25-.85,0-1.13-.29-.21-.22-.45-.57-.2-1.05.13-.24.52-.42.82-.5l3.97.51Z"/>
        <path class="cls-70" d="M31.3,85.65c1.79-.13,1.18,1.24.52,2.67.2,1.75.25,3.53.04,5.29.15,1.56-.18,1.94-1.1.67-2.23-.52-2.52-1.7-.96-3.45-2.35-.45-1.98-5.67.11-6.32.21-.75.45-.71.74.05.52-.38.74,0,.65,1.1Z"/>
        <path class="cls-54" d="M30.92,100.13c-.58-.94-.92-3.83-1.09-5.04s-1.36-4.08-1.19-5.38,1.44-3.52,1.44-3.52c0,0,.78-2.43,1.32-1.52s1.31,11.14,1.27,12.95-1.75,2.53-1.75,2.53Z"/>
        <path class="cls-20" d="M32.51,98.97l.51,1.84c-.94.74-1.38,2.11-1.34,3.37-.39.68-.67.6-.85-.2-.89-.53-.65-1.54-.64-2.55,0-1.08-.17-2.18.75-2.75.34-.7.6-.64.78.15l.78.15Z"/>
        <path class="cls-60" d="M31.73,98.82l-1.17.73s-.2-.55-.3-1.14c-.18-1.1-.47-2.41.03-3.38.18-.36.37-.67.51-.76.37-.2.73-.43,1.08-.67.81,1.63.11,3.48-.14,5.22Z"/>
        <path class="cls-50" d="M31.68,104.18c-.27,2.57,1.15,4.12.34,5.73l-1.26.23-.61-3.39s-.06-2,.02-2.81c.16-1.67,1.51.24,1.51.24Z"/>
      </g>
      <path class="cls-91" d="M29.53,76.75c1.95.81,2.4,3.69,1.41,5.47l-.8.18c-2.52,1.61-4.56-5.39-3.02-7.16l.7-.95,1.71,2.45Z"/>
      <path class="cls-1" d="M31.89,78.77l.04,4.4c-.22-.38-.79-.53-.98-.96-.03-1.93-.04-4.08-1.41-5.47,1.17-.11,2.07.83,2.36,2.02Z"/>
      <path class="cls-91" d="M29.44,84.01c-.53-.33-2.55-5.56-2.99-7s-3.16-7-3.37-8.38,1.52-3.26,1.52-3.26c0,0,.78-.72,1.59,1.25,1.12,2.73,2.87,11.79,3.36,12.91s2.24,3.48,1.69,4.2-1.09.72-1.8.27Z"/>
    </g>
    <g>
      <path class="cls-74" d="M30.59,46.67c1.71-.37,1.57,1.59,1.1,3.12,2.32-.09,2.39,1.1.65,2.77.17.45.19.98.38,1.42,1.2,2.76-.17,11.99-.09,11.74-.51-1.26-.83-2.8-.94-4.63-3.04-1.9-2.75-5.16-1.16-8.54-1.17-.69-1.72-1.88-1.65-3.58-.98-1.41-.99-2.94.79-2.3.27-.87.58-.86.94,0Z"/>
      <path class="cls-14" d="M32.63,65.72l-.49,1.01c-1.55.97-2.45.04-2.51-1.89-5.63,1.28-4.52-5.75-1.6-8.35-.75-.79-.27-2.04,1.44-3.75-.3-1.93.37-2.04,1.05-.19-.26,4.62,2.64,8.55,2.11,13.17Z"/>
      <path class="cls-36" d="M28.03,56.5c-1.06,1.86-2.13,5.48.09,7.03.56.23,1.07-1.72.98-2.13-.13-.64.93-1.69,1.71-.77,1.49,1.75-.26,4.67,1.32,6.1-.61,1.25-2.19.97-3.36,1.09-4.17,1.12-5.72-.23-4.64-4.05-2.38-1.51-1.41-3.37.93-3.99-1.17-1.86-.8-2.23,1.01-2.96.29-1.47,1.57-2.01,1.95-.32Z"/>
      <path class="cls-3" d="M28.03,56.5l-1.95.32c-1.71-.36-1.47-.91.08-1.67,1.03-.92,2.09-1.82,3.31-2.41.15,1.57-.77,2.58-1.44,3.75Z"/>
      <path class="cls-28" d="M26.08,56.82c.37,1.19.04,2.37-1.01,2.96-1.62,2.12-2.86,2.46-3.71,1.03-2.01.65-2.52.22-2.44-2.09l4.41-2.87c.73-.34,2.1-.04,2.82-.69.09.51-.23,1.18-.08,1.67Z"/>
      <path class="cls-96" d="M25.07,59.77c-.44,1.29-.74,2.63-.93,3.99-1.02,1.73-.73,3.92-.18,5.81-.7.07-1.62-.06-2.26.34-1.29.34-2.1-.26-1.64-1.75-1.52-.47-1.57-1.23.05-1.6-1.22-4.05-.8-5.97,1.25-5.76.48-.61,1.45-.65,2.12-1.34.37-.38,1.5-1.06,1.59.31Z"/>
    </g>
    <path class="cls-49" d="M28.94,27.54l1.95,5.34c-1.65-1.03-3.23-2.26-4.27-3.91-1.8-1.98-.93-2.67,1.43-1.45l.89.02Z"/>
    <path class="cls-87" d="M23.27,21.77c2.29,1.25,3,3.97,4.77,5.75l-1.32,1.34c-.25,0-.47.31-.71.38-1.75.3-4.11-1.51-4.88-3.22-3.59-.94-.64-7.61,2.15-4.25Z"/>
    <path class="cls-22" d="M20.01,23.36c-.27.79.71,1.91,1.11,2.67.1.04.2.09.3.12.44.23.91,2.67.26,2.99l-2.75-3.34c-.38-.84-.57-1.91-.53-2.96.01-.55.09-1.09.24-1.59.05-.16.1-.32.16-.47.15-.37.34-.7.56-.99.31-.38.68-.67,1.14-.85.13-.06.28-.11.43-.14.64.81,1.46,1.45,2.32,2l.02.98c-.46-.01-1.02.02-1.54.16-.75.19-1.44.6-1.72,1.42Z"/>
    <path class="cls-40" d="M26.05,29.15l-.85.67c-.11.62-.24,1.07-.4,1.36-.54,1.04-1.32.2-2.07-1.53-.67-.81-1.24-1.7-1.65-2.67l.04-.95c.1.04.2.09.3.12,1.74.69,4,.99,4.61,2.95.01.02.01.03.02.05Z"/>
    <path class="cls-77" d="M20.94,18.8c-1.23,2.2-2.44,4.44-2,7-2.01-1.11-.67-3.82-.91-6.19-.13-1.25,2.25-.77,2.91-.81Z"/>
    <path class="cls-72" d="M20.01,39.94c-2.63.69-.73-.73-2.91,6.78,1.18.38,1.44,1.38.77,2.99-1.31,1.09-2.34,2.46-3.08,4.12.15,2.04-.99,1.64-1.86-.03-.34-.31-.65-.64-.93-1,.42-1.98.77-4.05,1.84-5.82-1.4-2.11-1.34-2.25,1.15-2.18-1.2-1.86-1.19-2.91.02-3.16-.19-1.35.25-2.68,1.72-2.86,1.08.16,2.29-.26,3.09-.98.13.71.19,1.43.19,2.15Z"/>
    <path class="cls-13" d="M26.93,35.8c.97.64,1.93,1.49,2.04,2.56.14,1.36-.43,2.43-1.19,3.33-.59.7-1.1,1.46-1.75,2.11l.11-1.1c-.93-.19-1.34-1.48-1.22-3.87.03-.9.2-1.78.33-2.66.05-.31.14-.78.05-1.08.41.32,1.08.78,1.62.71Z"/>
    <path class="cls-14" d="M29.92,67.82c-.77.07-1.26.83-1.88,1.13-.67.33-1.53.35-2.03,1.02-.68,1.81-1.37,1.57-1.46-.39-3.38-.73-3.32-5.67.2-5.81.15.75-.12,2.94.92,3.06,2.07-.02,3.8-.89,4.26,1Z"/>
    <g>
      <path class="cls-11" d="M14.44,109.95c0-.5-.12-1.07-.11-1.57.04-1.58.42-2.67.85-3.43.12,1.83.32,3.63.36,5.79-.53.12-.81-.39-1.1-.79Z"/>
      <path class="cls-45" d="M11.14,86.99c-.07-1.75.27-5.72.46-6.62s-.08-3.65,0-6.01.08-6.24.72-6.88,2.4-5.34,4.18-2.44,2.6,5.78,2.49,7.88.14,2.15-.27,3.95-1.38,4.59-1.72,5.58-.68,1.93-.5,2.78.66,3-.15,4.79-2.39,4.47-2.77,5.43-2.2,3-2.3.06-.14-8.52-.14-8.52Z"/>
      <path class="cls-10" d="M14.4,82.89c1.41-.56,1.2,2.66.6,4-.77,3.69-1.22,7.45-1.36,11.3.98,2.06,1.19,3.45,1.19,3.45,0,0,.47,3.49-.32,4.48-1.17,1.22-2.24,1.76-3.21,1.62-.3-.85-.64-1.84-1.04-2.99-.64-.48-.33-1.91-.09-2.72.12-.41.17-.84.14-1.27l-.16-2.04c-.01-.15-.01-.31,0-.46l.35-3.72s.29-3.02.75-5.03c.02-1.7-.14-3.31-.48-4.83.06-1.3.89-2.24,1.27-3.35,1.71-1.65,2.49-1.13,2.35,1.58Z"/>
      <path class="cls-73" d="M11.26,89.5l.6,7.01c-.99-.2-.85-1.21-.89-1.93-1.19-1.63-.55-3.9-.59-5.95.98-1.5,1.33-.99.89.87Z"/>
      <path class="cls-23" d="M11.26,89.5c-.16-.47-.47-.83-.89-.87-.03-1.33.34-2.64.4-3.97.89-1.6,1.78,5.49.48,4.83Z"/>
      <path class="cls-92" d="M17.1,76.41c1.95.86,2.35,1.53.41,2.9.02,2.29-.44,3.06-1.4,2.32-.31,1.57-.67,2.55-1.71,1.27-.76-.58-1.56-1.08-2.35-1.58.27-.8-.72-2.16-.14-3.2.26-.47.78-.91,1.38-1.02.99.71,1.41,0,1.27-2.13l1.44-1.32c.16-.91.46-.94.87-.14.91.13.81,2.04.24,2.91Z"/>
      <path class="cls-37" d="M15.79,86.77c2.13,2.07-.93,15.41-2.79,17.26-.25,1.21.6-7.28.65-5.84-2-3.25-.14-8,1.36-11.3.14-.9.4-.93.79-.12Z"/>
      <path class="cls-71" d="M11.31,107.73c1.48-.73,1.24.48.35,1.86.57.2.59.53.1.99-.92,1.32-1.94,2.47-2.36.37-1.1.92-1.52.36-.8-1.03l-.11-.56c.24-.1.63.04.84-.16l.93-4.47c1.33-.13.84,1.94,1.04,2.99Z"/>
      <path class="cls-85" d="M16.11,81.62c1.67.64,1.5,4.59-.32,5.15l-.79.12-.6-4c.46-.63,1.07-1.02,1.71-1.27Z"/>
      <path class="cls-21" d="M14.96,103.36c1.32,1.34.47,4.7-1.14,3.87-.1,1.7-.56,2.44-1.38,2.23-.14.9-.4.93-.79.12l-.35-1.86c.8-.69,2.64-4.67,3.66-4.37Z"/>
      <path class="cls-89" d="M9.34,109.21c-.83-1.73.77-3.12.93-4.47.46,1.55.15,3.46-.93,4.47Z"/>
      <path class="cls-17" d="M18.31,63.39c-.29-2.78.66-3.01,1.7-.51,2.3.77,1.76,2.59-.6,2.42-.29,1.19-.81,1.82-1.55,1.88-.61,1.3-1.33,2.12-2.18,2.46.55,1.14.7,2.92.31,3.98.21,1.8.22,4.61-1.76,5.3-.55.19-.8-1.56-.95-1.84l-.16-.99c-.63-1.24-.73-2.23-.3-2.98-.06-3.54-.11-7-.16-10.38-.16-1.95.49-1.94,1,0,1.4,1.87,2.86,1.42,4.64.65Z"/>
      <path class="cls-45" d="M15.66,71.51c-2.13.6-2.2,1.59-2.83,1.62-.87-1.41-1.07-3.39-.59-5.95l3.99-5.63,6.77,3.43-7.34,6.54Z"/>
      <path class="cls-59" d="M12.83,73.13l.3,2.98c-1.59-2.07-2.03-6.43-.89-8.93l.59,5.95Z"/>
      <path class="cls-16" d="M9.4,110.96c1.75-.56,1.12,1.55.3,2.98-.82.78-2.22.52-2.42-.87l.43-3.02.9-.11c.34-.04.75.54.8,1.03Z"/>
      <path class="cls-46" d="M19.41,65.31c2.5,2.03.65,9.33-1.36,11.04-.25-.16-.67.16-.94.06-.07-.87-.26-2.1-.24-2.91-.97-.39-1.06-2.17-.3-2.98-.56-1.08.52-2.46,1.29-3.33.04-1.08.71-1.8,1.55-1.88Z"/>
      <path class="cls-62" d="M16.57,70.52c.43,1,.74,2,.3,2.98l-.87.14c-1.22-1.02-.72-2.57-.31-3.98.94-1.67,1.5-1.12.89.87Z"/>
      <path class="cls-95" d="M12.55,110.46c.18,2.09-.35,3.89-1.96,4.46-.61.15-2.08.34-3.05,0-.5-.18-1.53-.89-.27-1.85.82.22,1.64.49,2.42.87.18-1.77.71-2.71,2.07-3.35.07-.28-.04-.71-.1-.99l.79-.12c.7.16.72.49.1.99Z"/>
      <path class="cls-7" d="M11.76,110.58c-.35,1.39-1.02,2.68-2.07,3.35l-.3-2.98,2.36-.37Z"/>
      <path class="cls-34" d="M18.31,63.39c-1.06.98-2.24,1.47-3.73,2.29-.28-1.16-.98-2.11-.91-2.94,1.48.69,3.07.74,4.64.65Z"/>
      <path class="cls-32" d="M17.86,67.19c-.2,1.24-.52,2.48-1.29,3.33-.18-.42-.57-.65-.89-.87.37-1.29.97-2.25,2.18-2.46Z"/>
    </g>
    <g>
      <path class="cls-42" d="M31.87,52.56c-.37.12-.82.04-1.17.19-.83,1.42-2.18,3.62-3.69,2.41-.14,2.85-1.87,3.12-3.15.69-2.1.69-2.68.32-1.74-1.12-1.3-1.45-.66-1.92.96-.71,1.08-.98,2.37-1.72,3.87-2.22-1.19-.84-.45-1.77,2.2-2.8.14-.88.44-.86.89-.02.81-.3,1.7-.33,1.86.44.26,1.22.04,2.22-.02,3.14Z"/>
      <path class="cls-15" d="M12.94,53.79c.87.28.86.62,0,1,.9,1.63.9,2.63,0,3-.69-.21-1.36-.49-1.98-.86.21-.6,0-1.5-.02-2.14-.02-.84.81-1.39,1.07-2,.85-.38,1.13,0,.93,1Z"/>
      <path class="cls-51" d="M14.79,53.83c.68-1.18,2.38-.91,5.1.82.41-2.26,1.61-2.14,2.22.07l1.74,1.12c1.49,2.44-2.69,3.63-4.92,2.87-.06.89-.38.85-.93.03-.33.87-.68.84-1.06-.03l-1,.08c-1.82-.2-2.82-1.53-3-4v-1l1.86.03Z"/>
      <path class="cls-66" d="M26.93,51.79c-.82,1.48-2.02,2.31-3.87,2.22l-.13-1.22c-1.11-2.58.18-3.04,2-1h2Z"/>
      <path class="cls-5" d="M15.94,58.79h-3c.13-.25,0-.71,0-1v-3c1.05,1.31,1.67,2.94,3,4Z"/>
    </g>
    <path class="cls-64" d="M22.03,69.92c-1.21.69-2.46.92-3.85.84-.09-.62.59-1.43.87-1.94.19-.34.89-.35,1.15-.65.91.16,1.67.82,1.83,1.75Z"/>
    <g>
      <path class="cls-48" d="M13.91,57.79c.84.28.83.61,0,1,.51.79.25,2.15-.76,4.07,1.18,4.12.63,6.38-1.64,6.76l-1.14-.15c0-.51.44-8.7,1.75-12.54,1.07-1.6,1.45-.87,1.79.86Z"/>
      <path class="cls-94" d="M16.63,58.79l.91-.08c.42,2.92-.38,3.54-2.72,2.08-1.35,4.15-.24,5.43,3.06,2.64,1.08,1.96,1.6,3.76,1.57,5.39,1.43.93.53,1.34-.79,1.94-.51-.03-1.53-.04-1.98.24-2.7,1.02-4.42.57-5.17-1.38.79-3.65.86-7.45,2.4-10.83-.33-1.83.57-1.83,2.72,0Z"/>
      <path class="cls-41" d="M23.12,65.61s0,.23.02.47c.08.64-.04,1.28-.34,1.84,0,0,.07,1.93-.58,2.1-.58.16-2.26-.62-2.78-1.19-.93-.88-1.48-2.08-2.16-3.85-.94.02-1.51.66-2.55,1.2-1.21-1.6-1.79-4.4.08-5.38q.95,1.98,0,0c.99-.51,1.86-1.37,2.72-2.08l.96.03c1.46,1.51,4.73,3.16,4.63,6.86Z"/>
      <path class="cls-57" d="M21.79,60.8c-.71.89,1.43,1.22,1.41,2.35-.02.92-1.52,2.91-2.03,3.68-1.88-1.97-2.73-5.34-2.69-8.09.28,0,.56-.05.84-.03,1.14.1,2.07.91,2.46,2.09Z"/>
      <path class="cls-76" d="M14.82,60.79c.99.65,2.22,1.3,1.36,1.99-.75.6-.08,1.84-1.2,2.05-.36-1.8-.08-2.84-.16-4.03Z"/>
    </g>
    <g>
      <g>
        <path class="cls-31" d="M15.66,54.75c-1.22-.99-2.32-2.03-3.42-3.07-.34-.32-.76-.54-1.22-.62-.37-.07-.75-.16-1.14-.26-1.35-.72-1.54-.54-.61.5,1.3,1.94,4.27,3.15,6.39,3.45Z"/>
        <path class="cls-67" d="M14,57.66c1.11.93,3.23,2.81,4.06,2.9s2.39.14,1.98-.93-.53-1.92-1.92-3.45-1.9-2.5-2.82-3-1.29-.7-2.42-1.29-1.38-.33-1.5-.1.12,3.94,1.02,4.66,1.6,1.21,1.6,1.21Z"/>
        <path class="cls-31" d="M1.03,47.67c.74,1.18,1.25,2.82,2.2,3.74.85.82,2.15.95,2.82,1.53,4.78,2.88,10.65,10.34,11.67,6.91-.81-1.21-1.81-2.35-2.7-3.53-1.77-1.97-3.42-3.47-4.95-4.49.1-1.98-4.53-3.54-4.53-3.54,0,0-3.46-3.18-4.91-3.79.37,1.06-.16,2.05.39,3.17Z"/>
        <path class="cls-67" d="M4.86,52.47c.7.52,1.48.34,2.03.46-1.07-1.88-3.03-3.59-4.9-5.17.88,1.56,2.18,3.18,2.87,4.71Z"/>
      </g>
      <g>
        <path class="cls-35" d="M1.06,42.41c.67-.05,1.43-.16,1.93-.91.62-.93-.1-2.3-.4-3.51-1.05.97-1.7,2.52-1.53,4.43Z"/>
        <path class="cls-4" d="M3.21,34.05c-.62.95-.98,2.47-.62,3.93-.26,2-.46,3.06-1.53,4.43-1.54,1.58-1.23,4.51-.14,6.55,1.28,2.41,3.5,3.72,3.13,2.12,1.11,1.42,1.44.46,1-2.87.95.98,1.11.48.49-1.51.36.45.08-2.02.74-2.51,1.44-1.08,2.26-2.79,2.36-4.59l3.18-5.28c.58-.96.34-2.21-.56-2.89l-1.11-.84s-6.05-.38-6.94,3.46Z"/>
        <path class="cls-63" d="M13.56,26.28c.24.85,1.45,2.64.78,3.62-.43.62-1.9.8-2.07,1.27-.27.78-1.53,1.16-2,1.74,0,0,0,.01,0,.01-.59.74-1.31,1.28-2.02,1.52-.19.07-.37.12-.56.15-.28,1.15-2.53-.4-3.27.25-.42.38-1.1-.25-1.52-.68.09-1.86.41-3.64.81-5.39,1.2-.68,4.19-2.71,6.16-4.07,1.1-.76,2.62-.47,3.36.66.31.47.5.86.34.94Z"/>
        <path class="cls-33" d="M5.04,48.21c.16,1.97.97,4.07,2.58,4.63.94.24,1.01-.28.33-1.46l-2.43-4.67c-.32.14-.35,1.12-.49,1.51Z"/>
      </g>
    </g>
    <g>
      <g>
        <path class="cls-56" d="M26.49,17.12c-.77.13-1.55.22-2.33.26-.86.02-1.05-.34-.57-1.06,0-3.25,1.17-5.26,3.5-6.01.52,2.23,2.01,6.5-.6,6.81Z"/>
        <path class="cls-2" d="M26.22,10.03c-.38-.88-.1-1.08.82-.67.15.31.36,2.17.43,2.51-3.49,2.37.12,4.01-3.86,5.21-5.43.13-2.05-7.69,2.61-7.05Z"/>
        <path class="cls-6" d="M21.11,9.62c1.19-1.56,1.93-1.46,2.67.37.8-.41,1.71-.63,2.44.05-1.14.65-2.55,1.23-3.26,2.42-.87,1.47.01,3.2.65,4.63.17.37.63.8.65,1.19.03.65-.07,1.35.24,1.95-1.72,2.66-2.53,2.32-3.18-.8-.79-.37-1.58-.03-2.38.15-.73-.83-1.32-1.81-1.33-2.94,2.75-1.3,2.51-4.41,3.5-7.03Z"/>
      </g>
      <path class="cls-69" d="M17.61,16.65c2.74.21,2.98.73,1.33,2.94.13,1.87-.47,2.03-1.32.3-1.6.53-2.06.37-1.36-.47-1.04,4.16-5.21,5.36-5.48.68.17-1.5-1.01-3.17-1.14-4.65.29-.44.27-.97.35-1.46.06-.37.76-.34,1.04-.29l.76-1.29c1.56,1.67,3.5,3.09,5.83,4.25Z"/>
      <path class="cls-90" d="M18.9.2c.68-.28,1.43-.26,2.09.05.82.39,1.83.9,1.76,1.03-.2.37-3.45-.23-3.4-.04-.69,1.49-2.34,3.54-3.97,4.45-.41.23-.65.61-.81,1.05-.11.29-.43.21-.95-.21-.65.78-1.15.54-1.52-.52.15-2.73,4.67-4.93,6.79-5.82Z"/>
      <path class="cls-30" d="M24.63,4.59c-1.5,1.97-2.49.81-1.92-1.43-1.09,1.9-2.77,1.07-2.88-.95-.96.19-1.1-.14-.48-.96,1.33-.59,2.85-.66,4.36.21.97.56,1.17,1.89.92,3.13Z"/>
      <path class="cls-79" d="M28.07,6.17l-1.03,3.2c-2.19.33-3.5-2.27-1.93-3.82-.97.15-1.12-.18-.48-.96.69-.13,1.45-.6,2.14-.24.73.39,1.08,1.13,1.3,1.82Z"/>
      <path class="cls-81" d="M18.52,20.06c.06.19.1.37.14.55.04.14.08.28.1.42.11.59.15,1.13.11,1.6-.08,1.12-.57,1.93-1.46,2.44.78,1.59.44,2.51-1.13,2.29-.06,0-.13,0-.21-.03-1.14-.25-2.34-.37-3.35-.86-.68-.31-1.27-.79-1.71-1.59-.85-1.52-.43-2.85-.17-4.26.04-.2.07-.41.1-.61,1.75,1.42,3.62,1.43,5.15-.9.48-.73,1.3-.95,1.63-.6.4.45.61,1.03.81,1.53Z"/>
      <path class="cls-26" d="M21.76,6.03c.97-.15,1.12.18.48.96.58,1.54.71,2.92-1.14,2.63,1.44-.1.69,5,.34,6.12-.6,1.91-2.18,2.12-3.84.91-1.39.66-3.08,1.16-4.33,3.11-2.31-3.72,1.32-5.5-2.26-6.07-.45-1.12.21-2.23,1.18-2.85,1.08-2.33,1.31-2.2,2.46.03l.88-.13c.32-3.11,1.4-4.15,3.21-3.14-.42-1.1.32-1.95,1.57-2.04.71-1.94,1.47-1.66,1.44.47Z"/>
      <path class="cls-19" d="M14.58,6.05c3.16.45,2.33,3.44.08,4.82-.77.49-1.66.27-2.46-.03-.21-.28-.24-.71-.48-.96,0-1.32.74-2.94,1.91-3.36l.96-.48Z"/>
      <path class="cls-44" d="M13.63,6.53c-.19,1.33-.77,2.6-1.91,3.36-1.34-1.38.33-2.72.39-3.87.52.13,1.02.31,1.52.52Z"/>
      <path class="cls-82" d="M19.36,1.25c.1.34.36.62.48.96.64.74.48,1.22-.47,1.44.03,1.41-.18,2.73-.61,3.95-1.89,1.71-2.1,4.71-5.04,6.14-.76-1.36,1.06-1.82.95-2.86.2-1.61.51-3.27-.08-4.82-.06-2.73,2.56-3.81,4.77-4.8Z"/>
      <path class="cls-55" d="M22.71,3.15c1.21,1.63,1.22,2.49-.95,2.88l-1.44-.47c-1.54.87-1.93-.62-.96-1.91.08-.5.23-.99.47-1.44.89.4,2.04.43,2.88.95Z"/>
      <path class="cls-26" d="M24.63,4.59l.48.96c.97,2.69.04,3.03-1.91.96,0,.71-.32.86-.96.48l-.48-.96c-.11-1.06.23-2.09.95-2.88.59.37.94,1.61,1.92,1.43Z"/>
      <path class="cls-52" d="M25.11,5.54l1.93,3.82c-.29.19-.52.5-.82.67-.96.24-1.78.23-2.44-.05-2.11-.2-1.72-1.96-.58-3.48l1.91-.96Z"/>
      <path class="cls-25" d="M19.36,3.64l.96,1.91c-.05,1.14-.4,2.31-1.57,2.04-.42-.63-.89-1.37-.84-2.34.03-.67.77-1.26,1.45-1.61Z"/>
      <path class="cls-61" d="M23.2,6.5c-.1,1.19.16,2.37.58,3.48-.87.45-2,.33-2.67-.37.34-.9.53-1.85,1.14-2.63l.96-.48Z"/>
    </g>
    <g>
      <path class="cls-67" d="M32.98,47.06c-.14,1.25-.37,3.68-.82,4.3s-1.39,1.73-1.75.89-.78-1.35-.81-3.1-.27-2.6,0-3.49.39-1.25.74-2.34.66-1.13.87-1.09,2.2,2.1,2.06,3.09-.29,1.73-.29,1.73Z"/>
      <path class="cls-31" d="M33.68,34.76c.46,2.08.62,3.9.48,5.47-1.16,4.66-.32,12.38-2.9,11.31-.22-1.16-.29-2.41-.44-3.6-.09-2.19.02-4.05.33-5.59-1.2-.95-.78-5.22.63-4.82.07-1.77.21-3.93.71-5.21.39.79.87,1.51,1.19,2.45Z"/>
      <path class="cls-67" d="M34.93,38.82c-.06.67-.56,1.03-.77,1.41-.54-1.58-.52-3.58-.48-5.47.45,1.3.72,2.89,1.25,4.06Z"/>
      <path class="cls-67" d="M30.82,47.93c-.18-1.4-.48-2.73-.74-4.06.19-.41.35-.85.49-1.33.08-1.18.27-1.23.57-.2.74,1.64.34,4.08-.33,5.59Z"/>
    </g>
    <g>
      <path class="cls-24" d="M15.1,38.82c.22,1.19-.36,3.34-1.28,3.59-.08.03-.16.04-.24.03h-.02c-1.12-.14-.42-.64-1.29-1.41,0,0-.37-2.67-.34-3.23.04-.56-.08-3.66.63-4.89.18-.31.41-.4.65-.34.69.18,1.53,1.63,1.85,2.52.03.07.05.15.06.22.19.77-.06,1.52-.12,2.29-.04.34-.03.68.07,1.03.02.06.03.12.03.19Z"/>
      <g>
        <path class="cls-38" d="M26.89,28.99c1.36.8,2.8,1.32,4,3.89.33.9.25,2.43-.84,2.91-.51.71-1.55.71-3.12,0-.93,2.48-1.48,1.87-1.62-.71-.97-1.06-.59-4.78-.11-5.27s1.17-1.13,1.69-.83Z"/>
        <path class="cls-8" d="M30.05,35.8c.26.57,1.59.15,1.59.15,0,0,.03.06.07.17.51,1.15.29,2.47-.49,3.45-.84,1.06-1.51,2.31-1.42,3.52.39,4.11-4.03,2.02-2.02-1.4-.91-1.78-1.19-3.74-.85-5.89.43-.23.86-1.01,1.37-.81s1.53.39,1.74.81Z"/>
        <path class="cls-27" d="M29.8,43.09c.09,1.24.82,2.41,1.1,3.59-.3.64-.95,1.48-.88,2.3-.26.1-.61-.02-.89.02-1.57.06-2.74-1.57-2.95-3.03-1.11-.2-.98-1.49-.14-2.17.24-1.42.82-2.13,1.75-2.11-.04.42.02,1.33.56,1.77.33.27.99-.13,1.45-.37Z"/>
        <path class="cls-43" d="M26.81,38.1c-.29.31-.92.56-1.89.73.84,1.23.72,3.19-.8,3-.07-.02-.15-.04-.23-.05-.74,1.31-2.52,2.87-4.22,3.04-.33,1.9-.85,2.77-1.57,2.62-.3-.05-.63-.29-1-.71-1.66-1.44-.64-6.79,1.46-7.23.44-.1.93.03,1.45.45,1.52-.77,2.09-1.46,1.72-2.07-.02-.02-.03-.04-.03-.06l-.09-1.1c.12-1.95.93-1.88,1.32.08.13-.83.31-1.14,1.12-.77.12-1.99.92-1.88,1.21.14.05.03.11.05.16.08.43.22.77.43,1.02.63.15.12.28.24.36.36.25.32.25.61.01.86Z"/>
        <path class="cls-24" d="M23.36,38.52c-.02.6-.91,1.67-1.47,1.82-.55.14-1.45.27-1.88-.39-.72-.1-1.21-.25-1.45-.45-.09-.07-.14-.14-.16-.22-.14-.37.34-.86,1.42-1.48l.8.02h1.08s0,.04.03.06c.22.21,1.65.24,1.63.64Z"/>
        <path class="cls-88" d="M25.39,36.06h0c-.04.05-.08.08-.13.11-.38.04-.86-.26-1.21-.14-.43-1.22-.81-2.63-1.12-4.23l-.33-1.2.13-.95,2.47.17c.4,1.77-.42,3.55.11,5.27.49.31.51.64.08.97Z"/>
        <path class="cls-53" d="M23.89,41.78c1.7.3.96,1.84-.07,2.93-.75,1.32-1.75,2.35-3.01,3.08,1.82.51,2.53,2.18,2.13,5.01,1.91-.4,1.99.4.13,1.22l-.96.71-2.22-.07-.91-.85c-1.39-1.11-1.09-2.4.72-2.13-2.69-.98-2.7-3.26-.04-6.84.55-.8.53-2.03,1.19-2.55,1.03-.81,2.02-.88,3.03-.49Z"/>
        <path class="cls-47" d="M29.13,48.99c.26,1.61-1.6,1.71-2.2,2.8-.94.75-1.65,1.29-2,0-2.85-.07-2.73-2.33,0-3,.28-.87.62-.86,1,0,.64-1.62,2.4-1.45,3.2.2Z"/>
        <path class="cls-13" d="M29.13,48.99c-1.08.14-2.35.7-3.2-.2-.87-.17-.78-2.43.25-2.83,1.94-.1,2.68,1.34,2.95,3.03Z"/>
        <path class="cls-53" d="M26.04,43.8l.14,2.17-.25,2.83h-1c-1.98-.6-2.82-1.09-.91-1.76,0-3.48.71-4.93,2.12-4.34l-.11,1.1Z"/>
        <path class="cls-86" d="M19.71,51.66c-.16.57-.34,1.02-.58,1.06-2.5.4-1.12-1.5-.04-.1.18.23.08.67-.1,1.17.4.19,1.5.02.91.85-1.75.21-3.59.18-5.1-.82-1.14-2.51,1.6-4.66,2.31-7.1.7-.72,1.99-1.06,2.56-1.9.15,2.29-.36,4.56.04,6.84Z"/>
        <path class="cls-58" d="M26.15,42.69c-2.05,1.3-1.21,4-1.21,6.1v3l-2,1c-2.43-.08-2.32-3.4-2.13-5.01.7-1.16,1.7-2.18,3.01-3.08.14-.93-.17-2.03.07-2.93.27-.99,1-1.88,1.04-2.96,1.52.58,1.35,2.54,1.22,3.87Z"/>
        <path class="cls-80" d="M24.05,36.03c-.39.13-.68.69-1.12.77v-5c1.54.75.97,2.8,1.12,4.23Z"/>
        <path class="cls-12" d="M23.82,44.71c-.11.7.16,1.5-.33,2.13-.64.83-1.72.98-2.69.94.07-.55-.13-2.39.49-2.52l2.53-.56Z"/>
        <path class="cls-18" d="M19.71,51.66c.12.69-.61,1.48-.72,2.13-.97-.45-2.73-1.3-1.81-2.86.69.02,1.77.95,2.53.73Z"/>
      </g>
      <path class="cls-88" d="M14.52,49.02c-.66.16-.97-.88-.97-.88.09-1.46-.54-1.71-.62-3.42-.07-1.72-1.89-3.98-2.08-5.87-.09-.87-.24-1.61-.39-2.24-.16-.73-.33-1.31-.43-1.8,0-.02-.01-.05-.01-.08-.13-.62-.26-1.67-.08-2.44.09-.4.27-.72.57-.88.91-.47,3.37-2.73,3.05-.93-.04.25-.09.54-.14.86-.07.38-.14.79-.21,1.23-.28,1.85-.59,4.05-.65,5.02-.06,1,.66,2.72,1.06,4.01.09.3.16.57.2.81.03.16.05.31.04.43-.03.62.41,2.54.67,4.07.18,1.12.26,2.04-.01,2.11Z"/>
      <path class="cls-43" d="M13.9,46.5c.84.6,2.39,1.45,2.37,0s-.83-5.64.17-6.34,1.2-1.62.96-1.93-2.02-1.04-2.97-.43-1.12,8.28-.53,8.7Z"/>
      <path class="cls-24" d="M20.71,38.64c-.33.22-1.34.45-2.31.64-.47.09-.92.18-1.29.25h0c-.07.02-.13.03-.19.04-.64.13-1.29-.31-1.82-.75-.37-.31-.67-.63-.87-.77-.48-.34-.13-1.85.14-2.12.26-.25.5-.45.75-.62.76-.47,1.65-.61,3.55-.67,2.54-.08,2.34,1.86,2.62,2.86.04.13.06.23.08.32.11.63-.2.51-.66.82Z"/>
      <g>
        <path class="cls-38" d="M22.93,31.8v5c-.39-1.96-1.2-2.03-1.32-.08l.09,1.1h-.33c-.02-.09-.04-.19-.08-.32-.28-1-.08-2.94-2.62-2.86-1.9.06-2.79.2-3.55.67-.01-.07-.03-.15-.06-.22-.32-.89-1.16-2.34-1.85-2.52.07-.44.14-.85.21-1.23.51-1.18.72-2.55.41-3.96.45-.19.65-.41.58-.65,1.49.69,2.1-.11,1.81-1.92,1.04-.23,1.76-.89,2.18-1.97-.04,1.05.15,2.12.53,2.96l.14.08c1.1.6,2.07,1.43,2.73,2.5.28.45.59.87.92,1.28l-.13.95.33,1.2Z"/>
        <path class="cls-88" d="M14.09,33.3c.25-.81,1.55-2,1.92-2.98s.45-3.37,1.28-4.53,1.56-2.02,1.09-2.64-.9-1.41-2.29-.24c-1.39,1.17-2.59,1.94-2.82,3.28s-.36,5.45-.69,6-.1,2.11,0,2.4.83.29.99-.29.53-.99.53-.99Z"/>
      </g>
    </g>
    <g>
      <path class="cls-35" d="M33.79,32.46c-.5.12-1.08.21-1.63-.23-.67-.54-.46-1.71-.52-2.68,1,.47,1.83,1.46,2.15,2.9Z"/>
      <g>
        <path class="cls-4" d="M30.28,26.81c.68.56,1.29,1.59,1.36,2.75.65,1.41,1.05,2.15,2.15,2.9,1.5.8,1.95,3.03,1.62,4.79-.38,2.07-1.71,3.55-1.81,2.28-.49,1.3-.95.67-1.4-1.88-.47.94-.71.61-.71-1-.42,1.11-.87,1.8-1.41,1-2.23,2.59-3.05,1.06-2.04-2-.91-1.8-.92-2.07.59-2.91-1.66-2.22-2.13-4-1.38-5.34-2.29-6.09,1.49-3.21,3.03-.59Z"/>
        <path class="cls-35" d="M25.3,19.78c.57,2.32,2.61,2.21,4.09,2.92.39,1.33.72,2.69.88,4.11-.3.35-.79.86-1.13.59-.6-.46-.77-1.4-1.38-2.47-.55.67-.36,1.67-.51,2.46-.15.88-.36.85-.63-.02-1.8-.14-4.01-2.83-3.37-5.75-.62-.26-.62-.58-.01-.97-.95-1.34-.96-1.96.44-1.73,1.14-.91,1.73-1.1,1.64.86Z"/>
        <path class="cls-33" d="M32.2,37.65c.34,1.49.23,3.22-.83,4-.64.4-.81.03-.58-1l.71-4c.27.03.51.74.71,1Z"/>
      </g>
    </g>
  </g>
</svg>