<?xml version="1.0" encoding="UTF-8"?>
<svg id="Enemy" xmlns="http://www.w3.org/2000/svg" viewBox="0 0 40.71 128.25">
  <defs>
    <style>
      .cls-1 {
        fill: #9f5f4d;
      }

      .cls-2 {
        fill: #e4a680;
      }

      .cls-3 {
        fill: #14120e;
      }

      .cls-4 {
        fill: #f182e4;
      }

      .cls-5 {
        fill: #160e13;
      }

      .cls-6 {
        fill: #745862;
      }

      .cls-7 {
        fill: #c28e6a;
      }

      .cls-8 {
        fill: #ca2726;
      }

      .cls-9 {
        fill: #71244a;
      }

      .cls-10 {
        fill: #902e2a;
      }

      .cls-11 {
        fill: #281a24;
      }

      .cls-12 {
        fill: #a46652;
      }

      .cls-13 {
        fill: #1b0000;
      }

      .cls-14 {
        fill: #f571e2;
      }

      .cls-15 {
        fill: #e54cb1;
      }

      .cls-16 {
        fill: #f85fd4;
      }

      .cls-17 {
        fill: #200c11;
      }

      .cls-18 {
        fill: #a85450;
      }

      .cls-19 {
        fill: #c06c54;
      }

      .cls-20 {
        fill: #f53eae;
      }

      .cls-21 {
        fill: #c6a88b;
      }

      .cls-22 {
        fill: #936255;
      }

      .cls-23 {
        fill: #983c31;
      }

      .cls-24 {
        fill: #d59677;
      }

      .cls-25 {
        fill: #7a4134;
      }

      .cls-26 {
        fill: #d3589d;
      }

      .cls-27 {
        fill: #d3ae8e;
      }

      .cls-28 {
        fill: #e5c2a2;
      }

      .cls-29 {
        fill: #891c54;
      }

      .cls-30 {
        fill: #e74ab2;
      }

      .cls-31 {
        fill: #99685a;
      }

      .cls-32 {
        fill: #876;
      }

      .cls-33 {
        fill: #c39d75;
      }

      .cls-34 {
        fill: #a56452;
      }

      .cls-35 {
        fill: #4b4a48;
      }

      .cls-36 {
        fill: #2e1204;
      }

      .cls-37 {
        fill: #c28969;
      }

      .cls-38 {
        fill: #fa7b8a;
      }

      .cls-39 {
        fill: #17110e;
      }

      .cls-40 {
        fill: #f863d8;
      }

      .cls-41 {
        fill: #7f5342;
      }

      .cls-42 {
        fill: #cf3994;
      }

      .cls-43 {
        fill: #150605;
      }

      .cls-44 {
        fill: #f5b4a1;
      }

      .cls-45 {
        fill: #f24ec3;
      }

      .cls-46 {
        fill: #643b5f;
      }

      .cls-47 {
        fill: #c61f77;
      }

      .cls-48 {
        fill: #635242;
      }

      .cls-49 {
        fill: #8e5140;
      }

      .cls-50 {
        fill: #825f4e;
      }

      .cls-51 {
        fill: #ea7cd4;
      }

      .cls-52 {
        fill: #7a113b;
      }

      .cls-53 {
        fill: #131212;
      }

      .cls-54 {
        fill: #3c192a;
      }

      .cls-55 {
        fill: #56221b;
      }

      .cls-56 {
        fill: #57364c;
      }

      .cls-57 {
        fill: #9d7a61;
      }

      .cls-58 {
        fill: #f84bba;
      }

      .cls-59 {
        fill: #191717;
      }

      .cls-60 {
        fill: #bb755e;
      }

      .cls-61 {
        fill: #a68769;
      }

      .cls-62 {
        fill: #a37d67;
      }

      .cls-63 {
        fill: #cda990;
      }

      .cls-64 {
        fill: #fb78ee;
      }

      .cls-65 {
        fill: #fd82fc;
      }

      .cls-66 {
        fill: #855e4e;
      }

      .cls-67 {
        fill: #89574a;
      }

      .cls-68 {
        fill: #d2a886;
      }

      .cls-69 {
        fill: #bb694e;
      }

      .cls-70 {
        fill: #0f0f0f;
      }

      .cls-71 {
        fill: #bf9b7c;
      }

      .cls-72 {
        fill: #8b024b;
      }

      .cls-73 {
        fill: #b86d5a;
      }

      .cls-74 {
        fill: #714161;
      }

      .cls-75 {
        fill: #bf8f74;
      }

      .cls-76 {
        fill: #bb6a50;
      }

      .cls-77 {
        fill: #9a7a64;
      }

      .cls-78 {
        fill: #7e4c3b;
      }

      .cls-79 {
        fill: #de8f79;
      }

      .cls-80 {
        fill: #74153e;
      }

      .cls-81 {
        fill: #733b2e;
      }

      .cls-82 {
        fill: #801848;
      }

      .cls-83 {
        fill: #da7f64;
      }

      .cls-84 {
        fill: #fe69ea;
      }

      .cls-85 {
        fill: #170b02;
      }

      .cls-86 {
        fill: #7b4837;
      }

      .cls-87 {
        fill: #5f4e3f;
      }

      .cls-88 {
        fill: #811749;
      }

      .cls-89 {
        fill: #634e3e;
      }

      .cls-90 {
        fill: #a68669;
      }

      .cls-91 {
        fill: #d28369;
      }

      .cls-92 {
        fill: #7b5144;
      }

      .cls-93 {
        fill: #714438;
      }

      .cls-94 {
        fill: #db2482;
      }

      .cls-95 {
        fill: #de946d;
      }

      .cls-96 {
        fill: #800a3c;
      }

      .cls-97 {
        fill: #d8af95;
      }

      .cls-98 {
        fill: #b17e73;
      }

      .cls-99 {
        fill: #77685c;
      }

      .cls-100 {
        fill: #754a3e;
      }

      .cls-101 {
        fill: #252323;
      }

      .cls-102 {
        fill: #784938;
      }

      .cls-103 {
        fill: #98594d;
      }

      .cls-104 {
        fill: #ea3c96;
      }

      .cls-105 {
        fill: #4a1411;
      }

      .cls-106 {
        fill: #ad1064;
      }
    </style>
  </defs>
  <g id="SassyGirl_walk_2">
    <g>
      <path class="cls-82" d="M33.95,45.4c1.91-.37,1.75,1.59,1.22,3.12,2.59-.09,2.67,1.1.73,2.77.19.45.21.98.42,1.42,1.92,3.95,2.94,8.17,2.61,12.56-.3,2.65-2.64,3.66-2.64,3.66,0,0-.42-3.58-.07-4.48-.57-1.26-.92-2.8-1.05-4.63-3.39-1.9-3.07-5.16-1.3-8.54-1.3-.69-1.92-1.88-1.85-3.58-1.09-1.41-1.11-2.94.88-2.3.3-.87.65-.86,1.04,0Z"/>
      <path class="cls-16" d="M36.22,64.45l-.55,1.01c-1.73.97-2.73.04-2.8-1.89-6.29,1.28-5.04-5.75-1.79-8.35-.84-.79-.3-2.04,1.6-3.75-.34-1.93.41-2.04,1.17-.19-.29,4.62,2.95,8.55,2.35,13.17Z"/>
      <path class="cls-40" d="M31.09,55.22c-1.19,1.86-2.37,5.48.1,7.03.62.23,1.19-1.72,1.1-2.13-.15-.64,1.04-1.69,1.91-.77,1.66,1.75-.29,4.67,1.48,6.1-.68,1.25-2.44.97-3.75,1.09-4.66,1.12-6.38-.23-5.18-4.05-2.66-1.51-1.57-3.37,1.04-3.99-1.31-1.86-.89-2.23,1.13-2.96.32-1.47,1.75-2.01,2.18-.32Z"/>
      <path class="cls-4" d="M31.09,55.22l-2.18.32c-1.9-.36-1.64-.91.09-1.67,1.15-.92,2.33-1.82,3.69-2.41.17,1.57-.86,2.58-1.6,3.75Z"/>
      <path class="cls-30" d="M28.92,55.54c.41,1.19.04,2.37-1.13,2.96-1.81,2.12-3.19,2.46-4.14,1.03-2.24.65-2.82.22-2.72-2.09l4.92-2.87c.82-.34,2.34-.04,3.15-.69.1.51-.26,1.18-.09,1.67Z"/>
      <path class="cls-106" d="M27.79,58.5c-.49,1.29-.83,2.63-1.04,3.99-1.14,1.73-.81,3.92-.2,5.81-.78.07-1.81-.06-2.52.34-1.44.34-2.34-.26-1.83-1.75-1.7-.47-1.75-1.23.05-1.6-1.36-4.05-.89-5.97,1.4-5.76.53-.61,1.62-.65,2.36-1.34.41-.38,1.67-1.06,1.78.31Z"/>
    </g>
    <path class="cls-54" d="M30.94,26.27l1.95,5.34c-1.65-1.03-3.12-2.37-4.17-4.02-1.8-1.98-1.03-2.55,1.32-1.34l.89.02Z"/>
    <path class="cls-95" d="M25.28,20.5c2.29,1.25,3,3.97,4.77,5.75l-1.32,1.34c-.25,0-.5.03-.74.09-1.75.3-4.07-1.23-4.85-2.93-3.59-.94-.64-7.61,2.15-4.25Z"/>
    <path class="cls-24" d="M22.02,22.08c-.27.79.71,1.91,1.11,2.67.08.04.17.07.26.1.35.17.39.36.13.57-.1.09-.25.18-.44.28l-1.61-.89-.53-.29s-.01-.02-.01-.03c-.35-.79-.54-1.76-.53-2.74.01-1.92.78-3.84,2.54-4.23.23.29.47.55.74.79.36.35.75.65,1.16.93.14.1.28.19.42.28v.29s0,.34,0,.34v.35s-.11,0-.11,0c-1.11,0-2.69.23-3.14,1.58Z"/>
    <path class="cls-44" d="M27.98,27.68l-.78.86c-.25,1.48-.66,1.97-1.12,1.78-.42-.17-.89-.9-1.34-1.95-.68-.81-1.25-1.7-1.66-2.67l.05-.95c.08.04.17.07.26.1,1.76.7,4,.81,4.59,2.83Z"/>
    <path class="cls-85" d="M22.94,17.52c-.31.55-.62,1.11-.89,1.67h-.01c-.83,1.67-1.42,3.4-1.1,5.3v.03s-.02-.01-.03-.02c-.34-.19-.58-.43-.74-.7-.83-1.33.06-3.52-.14-5.47-.13-1.25,2.25-.76,2.91-.81Z"/>
    <path class="cls-80" d="M22.02,38.67c-2.63.69-.73-.73-2.91,6.78,1.18.38,1.44,1.38.77,2.99-1.31,1.09-2.34,2.46-3.08,4.12.15,2.04-.99,1.64-1.86-.03-.34-.31-.65-.64-.93-1,.42-1.98.77-4.05,1.84-5.82-1.4-2.11-1.34-2.25,1.15-2.18-1.2-1.86-1.19-2.91.02-3.16-.19-1.35.25-2.68,1.72-2.86,1.08.16,2.29-.26,3.09-.98.13.71.19,1.43.19,2.15Z"/>
    <path class="cls-15" d="M28.94,34.52c.97.64,1.93,1.49,2.04,2.56.14,1.36-.43,2.43-1.19,3.33-.59.7-1.1,1.46-1.75,2.11l.11-1.1c-.93-.19-1.34-1.48-1.22-3.87.03-.9.2-1.78.33-2.66.05-.31.14-.78.05-1.08.41.32,1.08.78,1.62.71Z"/>
    <path class="cls-16" d="M31.92,66.55c-.77.07-1.26.83-1.88,1.13-.67.33-1.53.35-2.03,1.02-.68,1.81-1.37,1.57-1.46-.39-3.38-.73-3.32-5.67.2-5.81.15.75-.12,2.94.92,3.06,2.07-.02,3.8-.89,4.26,1Z"/>
    <g>
      <path class="cls-12" d="M15.38,81.14c1.69-.8,1.86,2.43,1.3,3.86-.46,3.79-.51,7.6-.15,11.43,1.51,1.87,1.75,3.38.73,4.52,2.83-.69,3.62,1.32,1.45,3.18-1.29,1.41-2.55,2.12-3.78,2.15-.49-.79-1.05-1.71-1.7-2.78-2.35-.97-3.19-4.93-.59-6.02.18-1.35-.74-2.85.07-4.16-.51-1.32-.62-3.02-.33-5.09-.2-1.69-.63-3.26-1.26-4.7-.1-1.3.81-2.37,1.12-3.54,1.9-1.93,2.95-1.55,3.15,1.16Z"/>
      <path class="cls-81" d="M12.37,88.23l1.71,6.84c-1.27-.03-1.22-1.06-1.38-1.75-1.7-1.41-1.22-3.76-1.55-5.8,1.01-1.66,1.52-1.21,1.22.71Z"/>
      <path class="cls-25" d="M12.37,88.23c-.27-.43-.7-.75-1.22-.71-.21-1.31.07-2.68-.04-4,.9-1.74,2.97,5.13,1.26,4.7Z"/>
      <path class="cls-102" d="M17.88,74.25c2.55.51,3.14,1.11.9,2.8.34,2.26-.14,3.11-1.43,2.54-.17,1.61-.49,2.64-1.96,1.55-1.03-.44-2.09-.8-3.15-1.16.23-.84-1.2-2.02-.61-3.15.26-.51.84-1.04,1.58-1.25,1.33.53,1.76-.24,1.29-2.33l1.62-1.56c.08-.93.44-1.01,1.07-.29,1.15-.03,1.29,1.88.7,2.85Z"/>
      <path class="cls-41" d="M17.65,84.74c2.95,1.68,2.14,4.97.06,7.13-.15,1.24-1.43,3.14-1.17,4.56-2.93-2.87-1.27-7.9.15-11.43.05-.92.37-.99.97-.26Z"/>
      <path class="cls-79" d="M14.92,106.28c1.74-.98,1.61.26.69,1.78.74.1.81.42.26.97-.97,1.47-2.09,2.78-2.9.78-1.25,1.1-1.84.62-1.13-.88l-.21-.54c.29-.14.8-.07,1.03-.3l.55-4.58c1.64-.35,1.31,1.77,1.7,2.78Z"/>
      <path class="cls-93" d="M17.34,79.59c2.17.35,2.5,4.29.3,5.15l-.97.26-1.3-3.86c.49-.7,1.19-1.2,1.96-1.55Z"/>
      <path class="cls-23" d="M18.7,104.13c1.82,1.1,1.41,1.77-.71,1.22.11,1.7-.36,2.51-1.41,2.45-.05.92-.37.99-.97.26l-.69-1.78c.91-.82,2.47-2.27,3.78-2.15Z"/>
      <path class="cls-98" d="M12.66,108.08c-1.27-1.57.53-3.22.55-4.58.78,1.46.67,3.4-.55,4.58Z"/>
      <path class="cls-19" d="M17.6,61.15c-.74-2.7.41-3.09,2.05-.79,2.98.36,2.55,2.27-.41,2.5-.2,1.23-.76,1.94-1.67,2.13-.58,1.39-1.37,2.33-2.38,2.81.84,1.03,1.28,2.78.93,3.89.51,1.75.9,4.53-1.47,5.55-.66.28-1.21-1.41-1.44-1.66l-.33-.95c-.96-1.12-1.21-2.08-.78-2.9-.56-3.49-1.27-12.26-.37-10.43,2,1.61,3.77.92,5.88-.15Z"/>
      <path class="cls-49" d="M15.4,69.65c-2.58.96-2.52,1.96-3.31,2.09-1.28-1.25-1.79-3.18-1.55-5.8l4.22-6.27,8.91,2.23-8.26,7.74Z"/>
      <path class="cls-66" d="M10.54,68.51l3.38,5.04-.57,2.62-1.79.96c-2.27-1.77-1.02-8.62-1.02-8.62Z"/>
      <path class="cls-18" d="M12.98,109.8c2.1-.86,1.61,1.34.78,2.9-.91.91-2.7.89-3.14-.45l.12-3.07,1.11-.26c.42-.1,1.01.41,1.13.88Z"/>
      <path class="cls-50" d="M19.23,62.86c3.4,1.58,2.09,9.13-.19,11.17-.33-.11-.81.27-1.17.23-.21-.85-.61-2.03-.7-2.85-1.27-.22-1.62-1.97-.78-2.9-.84-.97.31-2.52,1.16-3.52-.1-1.08.65-1.9,1.67-2.13Z"/>
      <path class="cls-69" d="M16.4,68.51c.68.92,1.2,1.86.78,2.9l-1.07.29c-1.66-.8-1.25-2.42-.93-3.89.94-1.82,1.72-1.37,1.22.71Z"/>
      <path class="cls-105" d="M16.84,108.77c.51,2.04.1,3.92-1.83,4.75-.75.25-2.54.7-3.8.52-.65-.09-2.04-.62-.6-1.79,1.06.08,2.11.2,3.14.45-.02-1.79.52-2.81,2.12-3.67.05-.29-.15-.69-.26-.97l.97-.26c.89.04.96.37.26.97Z"/>
      <path class="cls-8" d="M15.88,109.03c-.24,1.44-.91,2.83-2.12,3.67l-.78-2.9,2.9-.78Z"/>
      <path class="cls-13" d="M16.84,108.77c-.03-.32-.26-.65-.26-.97.02-1.02.66-1.83,1.41-2.45.29,1.13.72,2.21.88,3.58-.97.24-1.5,0-2.04-.16Z"/>
      <path class="cls-38" d="M17.6,61.15c-1.18,1.15-2.59,1.84-4.34,2.91-.51-1.1-1.51-1.92-1.54-2.75,1.95.43,3.93.21,5.88-.15Z"/>
      <path class="cls-34" d="M17.56,64.99c-.08,1.26-.3,2.55-1.16,3.52-.28-.38-.8-.55-1.22-.71.29-1.34.9-2.4,2.38-2.81Z"/>
    </g>
    <g>
      <path class="cls-46" d="M33.87,51.28c-.37.12-.82.04-1.17.19-.83,1.42-2.18,3.62-3.69,2.41-.14,2.85-1.87,3.12-3.15.69-2.1.69-2.68.32-1.74-1.12-1.3-1.45-.66-1.92.96-.71,1.08-.98,2.37-1.72,3.87-2.22-1.19-.84-.45-1.77,2.2-2.8.14-.88.44-.86.89-.02.81-.3,1.7-.33,1.86.44.26,1.22.04,2.22-.02,3.14Z"/>
      <path class="cls-17" d="M14.94,52.52c.87.28.86.62,0,1,.9,1.63.9,2.63,0,3-.69-.21-1.36-.49-1.98-.86.21-.6,0-1.5-.02-2.14-.02-.84.81-1.39,1.07-2,.85-.38,1.13,0,.93,1Z"/>
      <path class="cls-56" d="M16.8,52.55c.68-1.18,2.38-.91,5.1.82.41-2.26,1.61-2.14,2.22.07l1.74,1.12c1.49,2.44-2.69,3.63-4.92,2.87-.06.89-.38.85-.93.03-.33.87-.68.84-1.06-.03l-1,.08c-1.82-.2-2.82-1.53-3-4v-1l1.86.03Z"/>
      <path class="cls-74" d="M28.94,50.52c-.82,1.48-2.02,2.31-3.87,2.22l-.13-1.22c-1.11-2.58.18-3.04,2-1h2Z"/>
      <path class="cls-6" d="M17.94,57.52h-3c.13-.25,0-.71,0-1v-3c1.05,1.31,1.67,2.94,3,4Z"/>
    </g>
    <g>
      <path class="cls-42" d="M28.72,27.59c1.51.07,2.9,1.41,4.17,4.02.33.9.25,2.43-.84,2.91-.51.71-1.55.71-3.12,0-.93,2.48-1.48,1.87-1.62-.71-.97-1.06-2.16-4.66-.11-5.27-1.56-1.16-1.04-1.73.78-.87.14-.92.39-.95.74-.09Z"/>
      <path class="cls-9" d="M32.06,34.52c.26.57.03,1.54.65,1.82.81.36,1.57.26,2.23.18-1.32,1.13-3.29,3.28-3.13,5.29.39,4.11-4.03,2.02-2.02-1.4-.91-1.78-1.19-3.74-.85-5.89.43-.23.86-1.01,1.37-.81s1.53.39,1.74.81Z"/>
      <path class="cls-29" d="M31.81,41.81c.09,1.24.82,2.41,1.1,3.59-.3.64-.95,1.48-.88,2.3-.26.1-.61-.02-.89.02-1.57.06-2.74-1.57-2.95-3.03-1.11-.2-.98-1.49-.14-2.17.24-1.42.82-2.13,1.75-2.11-.04.42.02,1.33.56,1.77.33.27.99-.13,1.45-.37Z"/>
      <path class="cls-47" d="M28.82,36.81c-.28.32-.91.57-1.89.74.58.86.7,2.07.19,2.66-.21.25-.54.39-1,.34-.07-.02-.15-.04-.23-.05-.73,1.31-2.52,2.87-4.22,3.04-.33,1.89-.85,2.77-1.56,2.62h-.01s-.03,0-.05-.02h-.01c-.29-.08-.59-.3-.93-.69-1.66-1.43-.64-6.77,1.45-7.23.44-.1.93.02,1.46.45,1.52-.77,2.09-1.46,1.72-2.07-.02-.02-.03-.04-.03-.06l-.09-1.1c.12-1.95.93-1.88,1.32.08.13-.83.31-1.14,1.12-.77.11-1.99.92-1.88,1.2.14.06.03.11.06.17.09.42.21.76.42,1.01.63.16.12.29.25.37.37.24.31.24.59.01.83Z"/>
      <path class="cls-26" d="M25.37,37.24c-.02.6-.91,1.67-1.47,1.82-.55.14-1.46.27-1.88-.39-.73-.1-1.22-.25-1.46-.45-.31-.25-.24-.57.21-.98.04-.03.07-.06.12-.1h.01c.13-.11.28-.22.46-.33h0c.14-.1.29-.19.46-.29l.81.02h1.08s.01.04.03.06c.21.21,1.65.24,1.63.64Z"/>
      <path class="cls-96" d="M27.4,34.78s-.09.07-.14.11c-.37.04-.85-.26-1.2-.14-.44-1.22-.81-2.63-1.12-4.23l-.33-1.2.13-.95,2.46.17c.41,1.77-.41,3.55.12,5.27.06.05.13.1.21.16h.01c.26.27.21.53-.14.81Z"/>
      <path class="cls-58" d="M25.9,40.5c1.7.3.96,1.84-.07,2.93-.75,1.32-1.75,2.35-3.01,3.08,1.82.51,2.53,2.18,2.13,5.01,1.91-.4,1.99.4.13,1.22l-.96.71-2.22-.07-.91-.85c-1.39-1.11-1.09-2.4.72-2.13-2.69-.98-2.7-3.26-.04-6.84.55-.8.53-2.03,1.19-2.55,1.03-.81,2.02-.88,3.03-.49Z"/>
      <path class="cls-51" d="M31.14,47.72c.26,1.61-1.6,1.71-2.2,2.8-.94.75-1.65,1.29-2,0-2.85-.07-2.73-2.33,0-3,.28-.87.62-.86,1,0,.64-1.62,2.4-1.45,3.2.2Z"/>
      <path class="cls-15" d="M31.14,47.72c-1.08.14-2.35.7-3.2-.2-.87-.17-.78-2.43.25-2.83,1.94-.1,2.68,1.34,2.95,3.03Z"/>
      <path class="cls-58" d="M28.04,42.52l.14,2.17-.25,2.83h-1c-1.98-.6-2.82-1.09-.91-1.76,0-3.48.71-4.93,2.12-4.34l-.11,1.1Z"/>
      <path class="cls-94" d="M21.71,50.39c-.16.57-.34,1.02-.58,1.06-2.5.4-1.12-1.5-.04-.1.18.23.08.67-.1,1.17.4.19,1.5.02.91.85-1.75.21-3.59.18-5.1-.82-1.14-2.51,1.6-4.66,2.31-7.1.7-.72,1.99-1.06,2.56-1.9.15,2.29-.36,4.56.04,6.84Z"/>
      <path class="cls-65" d="M28.15,41.42c-2.05,1.3-1.21,4-1.21,6.1v3l-2,1c-2.43-.08-2.32-3.4-2.13-5.01.7-1.16,1.7-2.18,3.01-3.08.14-.93-.17-2.03.07-2.93.27-.99,1-1.88,1.04-2.96,1.52.58,1.35,2.54,1.22,3.87Z"/>
      <path class="cls-88" d="M26.06,34.75c-.4.13-.69.69-1.12.77v-5c1.54.75.96,2.8,1.12,4.23Z"/>
      <path class="cls-14" d="M25.82,43.44c-.11.7.16,1.5-.33,2.13-.64.83-1.72.98-2.69.94.07-.55-.13-2.39.49-2.52l2.53-.56Z"/>
      <path class="cls-20" d="M21.71,50.39c.12.69-.61,1.48-.72,2.13-.97-.45-2.73-1.3-1.81-2.86.69.02,1.77.95,2.53.73Z"/>
    </g>
    <path class="cls-72" d="M24.03,68.64c-1.21.69-2.46.92-3.85.84-.09-.62.59-1.43.87-1.94.19-.34.89-.35,1.15-.65.91.16,1.67.82,1.83,1.75Z"/>
    <g>
      <path class="cls-52" d="M14.94,56.52c.93.28.91.61,0,1,.56.79.28,2.15-.84,4.07,1.3,4.12.7,6.38-1.81,6.76l-1.26-.15c0-.51.49-8.7,1.93-12.54,1.18-1.6,1.61-.87,1.98.86Z"/>
      <path class="cls-104" d="M17.94,57.52l1-.08c.46,2.92-.42,3.54-3,2.08-1.49,4.15-.26,5.43,3.38,2.64,1.19,1.96,1.77,3.76,1.73,5.39,1.58.93.59,1.34-.87,1.94-.56-.03-1.69-.04-2.18.24-2.98,1.02-4.89.57-5.72-1.38.87-3.65.95-7.45,2.66-10.83-.37-1.83.63-1.83,3,0Z"/>
      <path class="cls-45" d="M25.11,64.33s0,.23.02.47c.08.64-.05,1.28-.37,1.84,0,0,.07,1.93-.64,2.1-.64.16-2.5-.62-3.07-1.19-1.03-.88-1.63-2.08-2.38-3.85-1.04.02-1.66.66-2.82,1.2-1.34-1.6-1.98-4.4.09-5.38q1.05,1.98,0,0c1.09-.51,2.05-1.37,3-2.08l1.06.03c1.62,1.51,5.23,3.16,5.11,6.86Z"/>
      <path class="cls-64" d="M23.65,59.53c-.78.89,1.58,1.22,1.56,2.35-.02.92-1.68,2.91-2.24,3.68-2.08-1.97-3.01-5.34-2.97-8.09.31,0,.62-.05.93-.03,1.26.1,2.29.91,2.72,2.09Z"/>
      <path class="cls-84" d="M15.94,59.52c1.1.65,2.46,1.3,1.5,1.99-.83.6-.09,1.84-1.33,2.05-.39-1.8-.09-2.84-.17-4.03Z"/>
    </g>
    <g>
      <g>
        <path class="cls-39" d="M38.44,32.88c-.72,0-1.55-.02-2.24-.58-.85-.68-.38-1.79-.31-2.76,1.32.68,2.33,1.84,2.55,3.34Z"/>
        <g>
          <path class="cls-5" d="M34.42,26.53c.86.7,1.55,1.85,1.48,3.01.69,1.53,1.13,2.35,2.55,3.34,4.29,2.45,1.38,7.02.19,10.34-1.14.08-1.66-1.05-1.56-3.4-.88,1.17-1.43.45-1.66-2.16-.81.83-1.08.45-.83-1.14-.76,1-1.49,1.59-2.13.68-3.52,2.07-4.43.37-2.54-2.42-1-1.98-.96-2.25,1.28-2.75-1.98-2.56-2.35-4.42-1.1-5.58-2.25-6.52,2.58-2.84,4.32.08Z"/>
          <path class="cls-39" d="M28.55,18.5c.44,2.42,3.31,2.75,5.26,3.78.34,1.4.6,2.82.6,4.26-.47.28-1.23.68-1.68.34-.77-.59-.85-1.55-1.55-2.74-.87.55-.77,1.57-1.09,2.32-.35.83-.64.76-.88-.16-2.49-.53-5.16-3.67-3.82-6.42-.83-.39-.77-.71.13-.96-1.12-1.53-1.04-2.14.88-1.62,1.73-.65,2.59-.71,2.15,1.21Z"/>
          <path class="cls-36" d="M35.42,37.66c.24,1.54-.18,3.23-1.78,3.77-.95.25-1.13-.15-.66-1.12l1.61-3.8c.37.09.6.85.83,1.14Z"/>
        </g>
      </g>
      <g>
        <path class="cls-75" d="M34.46,48.97c-.38.91-1.04,2.7-1.85,3.05s-2.48.95-2.98.23-1.12-1.22-.96-2.56-.13-2.04.41-2.65.78-.85,1.49-1.59,1.22-.69,1.54-.6,3.35,2.16,3.01,2.87-.68,1.24-.68,1.24Z"/>
        <path class="cls-33" d="M37.08,39.82c.5,1.7.55,3.12.13,4.27-2.44,3.24-2,9.31-6.09,7.84-.23-.93-.18-1.9-.29-2.85.11-1.68.51-3.07,1.2-4.16-1.85-1.03-.65-4.16,1.61-3.5.33-1.33.81-2.93,1.78-3.77.55.7,1.24,1.37,1.66,2.16Z"/>
        <path class="cls-75" d="M38.64,43.22c-.18.49-1.05.64-1.43.87-.69-1.34-.42-2.85-.13-4.27.58,1.1.83,2.37,1.56,3.4Z"/>
        <path class="cls-75" d="M30.83,49.09c-.13-1.11-.46-2.19-.73-3.27.35-.26.67-.56.97-.88.27-.87.59-.86.96,0,1.02,1.43.06,3.18-1.2,4.16Z"/>
      </g>
    </g>
    <g>
      <path class="cls-1" d="M37.88,66.13c-.15.95-.22,1.92-.38,2.85-.02.1-.04.19-.07.28-1.73,4.85-2.64,9.94-3.9,14.93-.12.46.02.91.23,1.34.13.27-.11.48-.72.62-3.34-1.59-3.61-4.55-.8-8.89.44-.68.3-1.54-.25-2.12-1.29-1.36-.58-3.04,1.55-3.29.51-.06.97-.33,1.25-.76.62-.98.93-2.11.91-3.27-.01-.7-.44-1.35-1.1-1.58-1.59-.55-1.22-1.21,1.1-1.97.29-.09.61-.1.9-.03h0c.85.2,1.42,1.02,1.28,1.88Z"/>
      <path class="cls-83" d="M36.15,64.15l-.62,2.37c.51,1.83,0,3.9-1.28,5.32-.33,1.38-.9,2.74-1.11,4.15l-3.13,6.1c-1.39-.5-1.95-1.83-1.68-3.97-.48-.25-.91-.54-1.16-.93-.31-.47-.18-10.22-.06-11.22.05-.39.49-.73,1.04-1.05-.75-1.91,1.02-2.02,2.29-.72,1.13-2.74,2.57-2.16,4.27-.2-.28-.82-.02-1.12.84-.93l.59,1.08Z"/>
      <path class="cls-60" d="M34.74,92.2l-2.87,12.81c.7,1.6-.16,5.32-2.09,4-.53.86-.88.76-1.06-.26-.54-1.92-.11-4.78.63-6.6-1.34-1.9-1.9-5.56.39-6.7,1.05-2.74,1.72-5.43,2-8.08-1.03-1.82-.42-2.37,1.3-1.2.19-.26.17-.74.26-1.06l1.06.26.38,6.84Z"/>
      <path class="cls-73" d="M31.4,111.64l1.06.26c-1.04,3.63-1.07,7.52-.43,11.25-.65,2-3.49,1.29-4.17-.45-1.72-1.15-1.44-5.98.35-7.17-.51-1.89.02-5.38,2.13-4.14.53-.86.88-.76,1.06.26Z"/>
      <path class="cls-31" d="M33.45,103.14l-1.58,1.87c-1.1-4.05.62-9.34,2.87-12.81.2,3.68-.42,7.31-1.3,10.94Z"/>
      <path class="cls-86" d="M31.4,111.64l-1.06-.26c-1.76.69-2-1.5-.55-2.38,1.78-.3,1.7-2.57,2.09-4,.23-.83.54-1.92,1.58-1.87l-2.05,8.5Z"/>
      <path class="cls-76" d="M33.04,86.16c-.34.48-.88.8-1.3,1.2-.24.9-.53.81-.85-.15-.64-.96-1.32-2.02-2.02-3.18-1.56.23-1.86-2.2-1.09-3.38-1.27-.45-1.05-2.75.56-2.54l1.18,2.83c1.72-2.04,1.75-4.38,3.63-4.96-.52,3.44-2.65,7.35-.1,10.18Z"/>
      <path class="cls-103" d="M34.25,71.83l1.28-5.32c1.52,1.34.68,4.82-1.28,5.32Z"/>
      <path class="cls-92" d="M28.16,64.91c.95,4.35.26,8.78.18,13.2-.01.8-.8,1.79-.56,2.54.33,1.92.18,2.2-1.18.74-1.6-1.21-1.78-3.56-.56-7.05-2.65-1.53-2.81-7.15-.3-8.87-.49-2.42,1.42-2.76,2.42-.57Z"/>
      <path class="cls-10" d="M32.02,123.14c.15.88.3,2.26.39,3.07-.7,1.73-5.05.82-5.42-1.01.07-.37-.18-.88.02-1.19-1.01-1.37-.8-1.96.84-1.32,1.4-.4,2.83-.05,4.17.45Z"/>
      <path class="cls-43" d="M32.41,126.21c1.25,1.26.02,1.85-.68,1.97-1.53.25-3.3-.28-4.18-.6-.12-.33-1.17-.08-1.53-.48-.27-.29-.56-.77-.19-1.34.2-.3.75-.48,1.17-.56l5.42,1.01Z"/>
      <path class="cls-78" d="M29.26,92.02c2.48,0,1.52,1.68.49,3.43.12,2.24.04,4.5-.39,6.7.08,1.99-.41,2.43-1.58.74-3.02-.87-3.33-2.38-1.03-4.46-3.19-.78-2.24-7.37.69-7.99.35-.93.69-.86,1.02.13.75-.43,1.02.06.8,1.45Z"/>
      <path class="cls-60" d="M27.5,110.33c-.71-1.25-.94-4.94-1.07-6.48s-1.52-5.29-1.18-6.93,2.28-4.33,2.28-4.33c0,0,1.28-3,1.95-1.81s.85,14.23.64,16.51-2.63,3.04-2.63,3.04Z"/>
      <path class="cls-91" d="M29.75,95.45c-.06-1.14-.25-2.31-.49-3.43-.27-1.6.16-4.18,1.63-4.8.25.1.63,0,.85.15,3.1,2.06.42,6.26-2,8.08Z"/>
      <path class="cls-22" d="M29.78,109l.55,2.38c-1.35.86-2.08,2.54-2.13,4.14-.6.82-.98.69-1.15-.34-2.42-1.56-1.94-5.47.6-6.7.53-.86.88-.76,1.06.26l1.06.26Z"/>
      <path class="cls-67" d="M28.72,108.74l-1.06-.26c-3.06-1.47-2.75-4.12.12-5.6.54-.22,1.06-.47,1.58-.74,1.01,2.15-.13,4.42-.63,6.6Z"/>
      <path class="cls-55" d="M28.2,115.52c-.07,2.4.9,5.21-.35,7.17l-.84,1.32c-2.9-1.72-1.44-6.06-.87-8.93.18-1,.49-.92.9.11l1.15.34Z"/>
      <path class="cls-100" d="M28.87,84.04c2,1.69,1.44,5.01-.41,6.53l-1.02-.13c-3.6.71-3.34-7.75-.84-9.04l1.18-.74,1.09,3.38Z"/>
      <path class="cls-1" d="M30.89,87.22l-1.63,4.8c-.11-.5-.73-.9-.8-1.45.7-2.12,1.5-4.46.41-6.53,1.43.36,2.13,1.76,2.02,3.18Z"/>
      <path class="cls-100" d="M26.01,91.91c-.5-.58-.9-7.1-.86-8.86s-1.07-8.93-.8-10.51,3.04-2.92,3.04-2.92c0,0,1.2-.46,1.41,2.03.28,3.43-1.1,14.02-.95,15.45s1.32,4.72.39,5.27c-.93.55-1.57.33-2.23-.45Z"/>
    </g>
    <g>
      <g>
        <path class="cls-97" d="M6.32,56.86c.12-.86.98-5.61.91-7.04s.52-3.9.2-4.52-1.89-3.05-3.76-2.2-2.41.87-2.56,1.74-.2,4.41-.11,4.91,2.19,5.55,2.92,6.33,2.19,2.21,2.4.77Z"/>
        <path class="cls-97" d="M5.33,55.49c2.53.46,3.88,8.57,1.6,9.88l1.47,1.41c-2.37,2.1-3.79,1.6-4.25-1.49-.24-.61-.25-1.4-.53-1.98.25-2.23.26-4.41.04-6.53-.7-1.41-1.49-2.87-2-4.4,1.2-3.64,2.42-2.61,3.67,3.1Z"/>
        <path class="cls-37" d="M3.65,56.79c.52,1.04,1.68,1.61,1.74,3.2.05,1.28-.6,2.66-1.78,3.33-.89-1.83-1.85-5.37.04-6.53Z"/>
        <path class="cls-63" d="M2.77,49.07c-.25-2.43.49-2.66,1.64-.57-.31-1.86.9-2.41,1.64-.57,1.54,1.43.8,2.29-1.01,2.48,2.53.31,2.68,4.07.28,5.07-1.19-.28-1.4-2.87-2.3-3.24-.43-.18-1.01.05-1.36.14-.78-2.38-1.06-4.6-.65-6.94.4,1.27.22,3.68,1.77,3.62Z"/>
      </g>
      <g>
        <path class="cls-53" d="M10.72,23.1c4.42.07-.18,7.33-.68,7.3-.78-.04,1.23-4.23,2.47-1.88,2.57,2.27,1.21,6-2.27,5.47-.31.92-1.01,1.18-2.1.76l-2.35,6.67c.8.45.72.77-.2.98-.31,1.03-1.09,1.56-2.35,1.57.24,1.44-.29,3.33-1.76,3.73-2.56,1.82-1.21-2.3-.13-4.17,1.39-1.69,1.43-4.6,2.27-6.49.81-1.02,1.61-2.83,2.68-3.63.65-1.67,1.33-3.24,2.04-4.74-.74-1.49.11-4.3,1.18-5.88l.17-1.16,1.09.15c1.87.01,1.65.56-.05,1.32Z"/>
        <path class="cls-3" d="M10.72,23.1c-.08-.42.1-.89.05-1.32,1.23-1.12,2.84-1.59,4.45-1.87.72-.13,1.41-.42,2.08-.71,1-.55,1.98-.29,1.77.58-.93,4-5.74,6.52-8.35,3.33Z"/>
        <path class="cls-59" d="M6.29,33.41l1.06-4.93.98.2c-.39,1.95-.42,3.54-2.04,4.74Z"/>
        <path class="cls-59" d="M20.91,24.5c-.19.01-.4.14-.62.45-.08-.39-.12-.77-.12-1.15.16.27.4.51.74.7Z"/>
        <path class="cls-59" d="M23.27,29.47c.71.46.64.75-.13.88-.06.01-.12.02-.19.03-.85,1.98-1.58,3.92-2.17,5.81.44.22.63.42.58.61h0c-.01.05-.03.07-.05.1h0c-.09.12-.27.23-.54.34-.04.01-.08.03-.12.04-.38.65-.68.71-.92.22-.05-.11-.1-.26-.14-.43-.26-.04-.52-.09-.77-.14,0,0-.01,0-.02-.01-3.24-.67-4.95-2.26-5.11-4.75h0c-.03-.49-.01-1.01.08-1.57.03-.23.08-.47.14-.72l-1.09-1.05-.32-.31c-.66.16-1.14.46-1.59.86-.33.28-.64.6-1.01.94-.2.2-.43.41-.68.61.91-2.88,1.97-5.31,1.49-7.83,1.3-.39,8.42-1.51,6.74-3.72-.04-.06-.1-.13-.16-.19.05-.68,1.39-2.34,2.37-2.84h0c.48-.26.87-.23.98.33l.2.09.94.45c.07-.11.13-.21.21-.3,1.4-1.99,2.42-1.1,1.69,1.39-.01.05-.03.11-.05.17-.35.07-.67.18-.97.33-.22.1-.42.23-.61.38h-.01c-.78.6-1.34,1.5-1.64,2.56-.17.64-.26,1.33-.23,2.05,0,.38.04.76.12,1.15.22-.31.43-.44.62-.45t.02-.01h.01c.19-.01.37.12.53.32.31.4.55,1.09.69,1.72,1.58.28,2.89,1.89,1.11,2.94Z"/>
        <path class="cls-70" d="M19.59,37.07c-.3.84-.56.75-.78-.18-.58,1.8-3.21,2.68-3.22.36-.89.09-1.77.24-2.65.44-.16,1.58-1.09,2.15-2.66,1.63,1.25,2.26-2.48,8.92-4.89,9.17l-1.96-.39c-1.47-.3-1.07-1.8.39-1.96.26-1.88.85-3.12,1.76-3.73l.2-.98c-.06-1.71.95-4.29,2.75-3.53-.23-1.55.15-3.64,1.71-3.9,1.4-1.49,1.68-3.58,2.27-5.47.85-.2,1.46-1.06,2.41-.25,2.22,1.88-.45,5.75,1.93,6.44,1.52.44,2.67.94,2.75,2.36Z"/>
        <path class="cls-101" d="M8.53,37.89l-2.75,3.53c-1.62-2.14,1.02-5.09,2.35-6.67.61.57.74,1.61.39,3.14Z"/>
        <path class="cls-35" d="M3.82,46.13l-.39,1.96-1.96-.39c.23-1.41.86-2.65,1.76-3.73,1.74-1.69,1.84.67.59,2.16Z"/>
        <path class="cls-59" d="M10.23,33.99c-.59,1.27-.84,2.79-1.71,3.9-1.1-.68-.65-2.08-.39-3.14.19-.28.27-1.6.8-1.76.4-.13.79,1,1.3,1Z"/>
        <path class="cls-101" d="M5.59,42.4c-.26,1.32-.15,3.38-1.76,3.73.16-.78.26-1.77-.59-2.16.38-.45.17-1.53.97-1.67.49-.08.97-.05,1.38.1Z"/>
        <path class="cls-96" d="M24.94,30.52v5c-.39-1.96-1.2-2.03-1.32-.08l.09,1.1h-1.08l-.81-.02c-.17.1-.32.19-.46.28.05-.19-.14-.39-.58-.61.42.03.86.33,1.28.33,1.17-1.2,1.39-3.35.98-4.9,1.81-.74,1.83-1.52.1-1.27.77-.13.84-.42.13-.88,1.78-1.05.47-2.66-1.11-2.94-.14-.63-.38-1.32-.69-1.72l1.61.89c.41.97.98,1.86,1.66,2.67l-.13.95.33,1.2Z"/>
        <path class="cls-11" d="M23.04,31.62c.41,1.55.19,3.7-.98,4.9-.42,0-.86-.3-1.28-.33.28-1.67-1.39-2.06-3.5-2.87,1.53-2.11,3.82-2.11,5.67-2.94.07-.01.13-.02.19-.03,1.73-.25,1.71.53-.1,1.27Z"/>
        <path class="cls-59" d="M15.59,37.25c-.56.99-1.25,1.91-2.25,2.47-1.95.31-2.24-1.25-.39-2.03.59-.42,1.15-1.37,2-1.75.43-.19.3,1.12.65,1.31Z"/>
      </g>
    </g>
    <g>
      <g>
        <path class="cls-62" d="M28.72,18.3c-.8-.19-1.59-.42-2.37-.71-.84-.33-.88-.75-.12-1.26,1.34-3.15,3.29-4.62,5.85-4.39-.41,2.38-.71,7.13-3.37,6.36Z"/>
        <path class="cls-2" d="M31.04,11.21c-.01-.9.31-.97.94-.28.02.32.16.69.1,1-3.86.77-1.99,4.8-5.85,4.39-4.72-1.86,1.03-7.36,4.81-5.12Z"/>
        <path class="cls-7" d="M26.79,8.99c1.59-.91,2.19-.55,2.17,1.29.84-.07,1.7.08,2.08.93-1.22.14-2.64.13-3.69.9-1.29.95-1.15,2.76-1.12,4.22,0,.38.25.91.12,1.26-.21.57-.87,2-.81,2.64-2.45,1.67-2.71.21-2.14-2.71-.55-.6-1.35-.6-2.11-.73-.33-.98-.48-2.04-.07-3.01,2.84-.12,3.76-2.88,5.57-4.78Z"/>
      </g>
      <path class="cls-77" d="M21.22,13.78c2.28,1.17,3.02,3.13.8,4.43-.56,1.65-2.56,2.05-2.67.24-1.57-.13-1.21-2.32-.3-2.79-2.41,3.2-6.43,2.72-4.97-1.41.69-1.23.28-3.1.71-4.42.41-.28.58-.74.83-1.13.18-.3.78-.02,1.01.13l1.12-.83c.73,2.01,1.89,3.93,3.47,5.78Z"/>
      <path class="cls-99" d="M28.41.15c2.35,2.8.02,1.02-.02,1.32-1.32,1.2-4.12,2.27-5.92,2.08-.23.89-.56.9-1,.07-.84.43-1.18.05-1.12-1C21.82-.38,25.35-.11,28.41.15Z"/>
      <path class="cls-32" d="M31.65,5.94c-2.01,1.15-2.44-.21-1.13-1.93-1.63,1.24-2.77-.08-2.13-1.86-.9-.19-.9-.52-.07-1,1.36-.03,2.69.47,3.67,1.76.63.83.32,2.05-.35,3.03Z"/>
      <path class="cls-87" d="M34.03,8.56l-2.05,2.38c-2-.52-2.19-3.22-.27-3.99-.89-.23-.9-.56-.07-1,.64.14,1.47.01,1.92.57.49.6.52,1.37.46,2.04Z"/>
      <path class="cls-89" d="M20.05,16.56c-.27,2.04-1.13,3.14-2.57,3.3.07,1.45-.56,2-1.82,1.23-1.36-.88-2.96-1.53-3.16-3.29-.17-1.55.86-2.43,1.59-3.55.9,1.55,2.37,2.12,4.36.9.63-.39,1.35-.3,1.49.06.17.44.13.93.12,1.35Z"/>
      <path class="cls-71" d="M28.66,6.14c.89.23.9.56.07,1-.06,1.54-.45,2.77-1.94,1.85,1.28.44-1.22,4.56-1.93,5.39-1.21,1.43-2.64,1.03-3.63-.61-1.44.06-3.07-.13-4.86,1.1-.63-4.04,3.14-4.25.26-6.05.03-1.13.99-1.85,2.05-2.02,1.78-1.61,1.93-1.42,2.11.92l.81.2c1.41-2.55,2.71-3.07,3.91-1.54.04-1.1.99-1.56,2.09-1.18,1.31-1.42,1.86-.89,1.06.93Z"/>
      <path class="cls-21" d="M22.47,3.55c2.55,1.53.75,3.81-1.69,4.18-.84.14-1.53-.37-2.11-.92-.08-.32.05-.69-.07-1,.47-1.14,1.71-2.26,2.86-2.19l1-.07Z"/>
      <path class="cls-48" d="M21.47,3.62c-.65,1.08-1.61,1.96-2.86,2.19-.65-1.67,1.27-2.22,1.74-3.19.4.3.77.64,1.12,1Z"/>
      <path class="cls-90" d="M28.33,1.16c-.04.33.08.67.07,1,.28.87-.03,1.23-.93,1.06-.49,1.23-1.14,2.28-1.96,3.18-2.25.79-3.52,3.29-6.57,3.45-.16-1.44,1.58-1.18,1.86-2.12.76-1.31,1.63-2.62,1.69-4.18.94-2.37,3.59-2.35,5.85-2.39Z"/>
      <path class="cls-61" d="M30.52,4.02c.45,1.85.14,2.59-1.86,2.13l-1.06-.93c-1.65.19-1.44-1.24-.13-2,.25-.4.56-.77.93-1.06.62.67,1.59,1.11,2.13,1.86Z"/>
      <path class="cls-28" d="M31.65,5.94l.07,1c-.14,2.67-1.07,2.62-2,.13-.26.62-.59.62-1,.07l-.07-1c.29-.95.96-1.72,1.86-2.13.38.53.23,1.73,1.13,1.93Z"/>
      <path class="cls-57" d="M31.72,6.94l.27,3.99c-.32.05-.63.24-.94.28-.92-.14-1.61-.45-2.08-.93-1.74-.94-.77-2.31.77-3.21l2-.13Z"/>
      <path class="cls-27" d="M27.46,3.22l.13,2c-.46.97-1.19,1.84-2.09,1.18-.13-.69-.26-1.5.13-2.32.27-.56,1.12-.81,1.83-.86Z"/>
      <path class="cls-68" d="M29.72,7.08c-.52.99-.72,2.1-.77,3.21-.91.07-1.84-.44-2.17-1.29.62-.65,1.13-1.4,1.94-1.85l1-.07Z"/>
    </g>
  </g>
</svg>