<?xml version="1.0" encoding="UTF-8"?>
<svg id="Enemy" xmlns="http://www.w3.org/2000/svg" viewBox="0 0 169.64 53.95">
  <defs>
    <style>
      .cls-1 {
        fill: #111;
      }

      .cls-2 {
        fill: #96665d;
      }

      .cls-3 {
        fill: #c2ab91;
      }

      .cls-4 {
        fill: #fed7c6;
      }

      .cls-5 {
        fill: #b70d09;
      }

      .cls-6 {
        fill: #800404;
      }

      .cls-7 {
        fill: #000102;
      }

      .cls-8 {
        fill: #7b6e5e;
      }

      .cls-9 {
        fill: #af1616;
      }

      .cls-10 {
        fill: #340a06;
      }

      .cls-11 {
        fill: #5d1514;
      }

      .cls-12 {
        fill: #e8c5b1;
      }

      .cls-13 {
        fill: #e29b85;
      }

      .cls-14 {
        fill: #120b0a;
      }

      .cls-15 {
        fill: #100b09;
      }

      .cls-16 {
        fill: #fdd5b9;
      }

      .cls-17 {
        fill: #9f080a;
      }

      .cls-18 {
        fill: #9e0606;
      }

      .cls-19 {
        fill: #a87d6e;
      }

      .cls-20 {
        fill: #bf0508;
      }

      .cls-21 {
        fill: #c10506;
      }

      .cls-22 {
        fill: #fee7c7;
      }

      .cls-23 {
        fill: #383837;
      }

      .cls-24 {
        fill: #631212;
      }

      .cls-25 {
        fill: #a3957e;
      }

      .cls-26 {
        fill: #feecda;
      }

      .cls-27 {
        fill: #966a5a;
      }

      .cls-28 {
        fill: #272626;
      }

      .cls-29 {
        fill: #870701;
      }

      .cls-30 {
        fill: #121212;
      }

      .cls-31 {
        fill: #501c1e;
      }

      .cls-32 {
        fill: #7e5147;
      }

      .cls-33 {
        fill: #585144;
      }

      .cls-34 {
        fill: #7e0b06;
      }

      .cls-35 {
        fill: #9e6959;
      }

      .cls-36 {
        fill: #aa7159;
      }

      .cls-37 {
        fill: #514c42;
      }

      .cls-38 {
        fill: #151413;
      }

      .cls-39 {
        fill: #740705;
      }

      .cls-40 {
        fill: #690203;
      }

      .cls-41 {
        fill: #fcd5b9;
      }

      .cls-42 {
        fill: #c79b81;
      }

      .cls-43 {
        fill: #a77664;
      }

      .cls-44 {
        fill: #de8a7a;
      }

      .cls-45 {
        fill: #e8a996;
      }

      .cls-46 {
        fill: #1f1f1e;
      }

      .cls-47 {
        fill: #9f705d;
      }

      .cls-48 {
        fill: #f1b49a;
      }

      .cls-49 {
        fill: #710f10;
      }

      .cls-50 {
        fill: #f8d0b4;
      }

      .cls-51 {
        fill: #ad7053;
      }

      .cls-52 {
        fill: #f9f2d6;
      }

      .cls-53 {
        fill: #df9c84;
      }

      .cls-54 {
        fill: #6f4038;
      }

      .cls-55 {
        fill: #770102;
      }

      .cls-56 {
        fill: #faf2dc;
      }

      .cls-57 {
        fill: #fdc6a8;
      }

      .cls-58 {
        fill: #f3c0a7;
      }

      .cls-59 {
        fill: #7c5447;
      }

      .cls-60 {
        fill: #f2dad8;
      }

      .cls-61 {
        fill: #900606;
      }

      .cls-62 {
        fill: #fbd7ba;
      }

      .cls-63 {
        fill: #bc9286;
      }

      .cls-64 {
        fill: #9a594b;
      }

      .cls-65 {
        fill: #c40505;
      }

      .cls-66 {
        fill: #d60c0e;
      }

      .cls-67 {
        fill: #f9c1a4;
      }

      .cls-68 {
        fill: #171515;
      }

      .cls-69 {
        fill: #d49178;
      }

      .cls-70 {
        fill: #980100;
      }

      .cls-71 {
        fill: #f9d1b5;
      }

      .cls-72 {
        fill: #97131b;
      }

      .cls-73 {
        fill: #7a7260;
      }

      .cls-74 {
        fill: #202020;
      }

      .cls-75 {
        fill: #ec9b82;
      }

      .cls-76 {
        fill: #a66954;
      }

      .cls-77 {
        fill: #f9cbac;
      }

      .cls-78 {
        fill: #f1ecd7;
      }

      .cls-79 {
        fill: #f5b091;
      }

      .cls-80 {
        fill: #af050a;
      }

      .cls-81 {
        fill: #c81615;
      }

      .cls-82 {
        fill: #cf876c;
      }

      .cls-83 {
        fill: #c68672;
      }

      .cls-84 {
        fill: #960606;
      }

      .cls-85 {
        fill: #a60508;
      }

      .cls-86 {
        fill: #2c0e13;
      }

      .cls-87 {
        fill: #8e0a09;
      }

      .cls-88 {
        fill: #d51613;
      }

      .cls-89 {
        fill: #6e0e0e;
      }

      .cls-90 {
        fill: #f2ac96;
      }

      .cls-91 {
        fill: #c08d7b;
      }

      .cls-92 {
        fill: #b90b11;
      }

      .cls-93 {
        fill: #976e5e;
      }

      .cls-94 {
        fill: #e3b6a1;
      }

      .cls-95 {
        fill: #feefd2;
      }

      .cls-96 {
        fill: #8c826c;
      }

      .cls-97 {
        fill: #e10909;
      }

      .cls-98 {
        fill: #1d1d1d;
      }

      .cls-99 {
        fill: #68110f;
      }

      .cls-100 {
        fill: #bd0c09;
      }

      .cls-101 {
        fill: #191919;
      }

      .cls-102 {
        fill: #6d4239;
      }

      .cls-103 {
        fill: #d90909;
      }

      .cls-104 {
        fill: #855038;
      }

      .cls-105 {
        fill: #e3a794;
      }

      .cls-106 {
        fill: #791918;
      }

      .cls-107 {
        fill: #f5b899;
      }

      .cls-108 {
        fill: #f6c9ae;
      }

      .cls-109 {
        fill: #524c40;
      }

      .cls-110 {
        fill: #660d0b;
      }

      .cls-111 {
        fill: #6b0807;
      }

      .cls-112 {
        fill: #c6a092;
      }

      .cls-113 {
        fill: #9c8e76;
      }

      .cls-114 {
        fill: #6e6558;
      }

      .cls-115 {
        fill: #635d53;
      }

      .cls-116 {
        fill: #b07e68;
      }

      .cls-117 {
        fill: #fbc9ae;
      }

      .cls-118 {
        fill: #3a3938;
      }

      .cls-119 {
        fill: #f4d2bd;
      }

      .cls-120 {
        fill: #a60a0a;
      }

      .cls-121 {
        fill: #caa08e;
      }

      .cls-122 {
        fill: #926157;
      }

      .cls-123 {
        fill: #430f05;
      }

      .cls-124 {
        fill: #ae0102;
      }

      .cls-125 {
        fill: #a48a70;
      }

      .cls-126 {
        fill: #db9781;
      }

      .cls-127 {
        fill: #693e2f;
      }

      .cls-128 {
        fill: #938976;
      }

      .cls-129 {
        fill: #e20b07;
      }

      .cls-130 {
        fill: #040504;
      }

      .cls-131 {
        fill: #f2c8b1;
      }

      .cls-132 {
        fill: #ad9e81;
      }

      .cls-133 {
        fill: #a38c71;
      }

      .cls-134 {
        fill: #fedcc3;
      }

      .cls-135 {
        fill: #b71112;
      }

      .cls-136 {
        fill: #da0304;
      }

      .cls-137 {
        fill: #7f4330;
      }

      .cls-138 {
        fill: #d08d79;
      }

      .cls-139 {
        fill: #c98c76;
      }

      .cls-140 {
        fill: #f71615;
      }

      .cls-141 {
        fill: #f9bca3;
      }

      .cls-142 {
        fill: #242424;
      }

      .cls-143 {
        fill: #996a60;
      }

      .cls-144 {
        fill: #a50605;
      }

      .cls-145 {
        fill: #332823;
      }

      .cls-146 {
        fill: #554134;
      }

      .cls-147 {
        fill: #63231d;
      }

      .cls-148 {
        fill: #edaa95;
      }

      .cls-149 {
        fill: #f1beab;
      }

      .cls-150 {
        fill: #b37e70;
      }

      .cls-151 {
        fill: #592b21;
      }

      .cls-152 {
        fill: #ac8174;
      }
    </style>
  </defs>
  <g id="SlenderCriminal">
    <path class="cls-23" d="M148.37,21.28c-1.69,1.17-4.58,2.01-6,.11,2-.07,4-.16,6-.11Z"/>
    <g>
      <path class="cls-30" d="M157.17,38.17c1.29-.71,2.84-1.28,4.66-1.72l1.88-2.74c.73-1.07,2.2-1.69,3.39-1.56.97.11,1.78,1.11,2.46,2.25-.01.68.04,1.37.07,2.05-.59.52-.98,1.5-.89,2.29-.26,1.19-.55,1.2-.88.03-1.87-.69-3.01.64-3.43,3.99-6.37-.21-8.79-1.74-7.27-4.6Z"/>
      <path class="cls-98" d="M167.87,38.77c.3.34.59.29.88-.03.34,2.92-.89,5.05-3.58,5.82.04-.26-.18-.6-.1-.84-1.6-1.21-2.27-1.99-.31-1.98.39-3.5,1.42-4.49,3.11-2.97Z"/>
      <path class="cls-1" d="M139.38,21.5c.4-2.92,2.12-2.78,3-.1,1.95.88,4.03.45,6-.11.71-.54,1.71-.93,3.01-1.16-1.5-1.09-.98-1.61.87-1.21-1.6-1.95-.83-3.25,1.73-2.94.24-.57.86-1.39,1.23-1.92,2.34-3.37.75-6.58,5.05-7.46,1.55-.32,1.63,1.23,2.56,2.08.69,1.53,1.44,3.63.24,5-.19,2.96-.42,5.97-1.02,9.2.85,2.39,1.02,4.65.64,6.8-.63.89-2,.79-2.89,1.17-2.26-.05-3.97.41-5.11,1.37l-.99-2.14c-.94-.48-1.71-1.1-1.07-2.03-.42-1.01-.09-1.5,1.01-1.45.64-1.17,1.58-2.05,2.82-2.65-2.2-1.36-1.7-3.66,1.48-6.9-.15-.53-.44-.53-.85-.09-.2,3.78-3.68,7.52-7.22,6.46l-.69,1.05-6.8-.99c-.52,2.34-1.5,2.01-2.96-.98-.97.35-1.32.03-1.03-.96.3-.83.63-.84,1-.03Z"/>
      <path class="cls-118" d="M156.04,36.65l5.79-.2c-1.08,1.58-2.89,1.82-4.66,1.72-.19,2.68-1.26,2.62-3.21-.17-1.26.71-2.3.66-2.03-.93l4.12-.42Z"/>
      <path class="cls-40" d="M138.33,26.32c1.58-1,1.78.66,1.33,2.26,2.68.02,2.67.95.23,2.01,2.81-.1,2.15,2.25-.03,3l.26,1.74c.63.8.6,1.32-.08,1.55-.24.11-.48.12-.74.05-1.38-2.31-3.16-4.4-5.34-6.26-1.37.97-1.92.43-1.31-1.15-5.81-4.81,2.82-9.64,5.67-3.23Z"/>
      <path class="cls-14" d="M139.9,30.59c.52-3.37,8.68-4.99,7.91-.4-1.68.63-3.47.97-5.22,2.17,1.21,1.23,2.3,2.31,3.37,3.05-1.9,1.66-4.19-.87-6.08-1.81l.03-3Z"/>
      <path class="cls-11" d="M133.05,38.65c1.12-2.05,3.33-1.24,4.84-.03-.02,1.58-1.54,2.18-2.71,3-1.43-.49-2.8-1.19-4.17-1.82-5.3,1.26-7.62.61-6.95-1.95,4.19-2.1,7.19-1.84,8.98.8Z"/>
      <path class="cls-6" d="M133.97,30.69c3.04.65,5.08,3.18,5.34,6.26.33.97-1.03,1.21-1.42,1.67-.96-.15-1.05-.5-.24-1.05l-1.02-2.27c-3.96-1.3-4.84-2.84-2.65-4.62Z"/>
      <g>
        <path class="cls-68" d="M137.88,38.62c.07-.93.49-1.91,1.42-1.67,0-.83.25-.82.74-.05.67.27.7-.25.08-1.55-.94.02-1.19-1.26-.26-1.74.77-1.84,1.94-1.53,3.5.94l2.59.87c.89-3.19,5.38-1.61,4.04,1.52.37.99,0,1.73-1,2.24,2.34.42,4.73.39,7.19-.08,1,1.25.99,2.87-.02,4.84-.45.7-.42,1.38.07,2.04-.22-3.21,7.05-4.72,8.83-2.24.86.12.87.4.1.84-4.28,3.78-3.27.78-9.92,6.72-.95,5.86-9.69.92-7.9-3.88l-3.59-1.84c-2.64.17-4.22-.58-4.76-2.25-3.41,1.35-4.69.79-3.84-1.69-.23-.82.68-1.82,2.71-3Z"/>
        <g>
          <path class="cls-46" d="M153.96,38l3.21.17c.93,3.87,4.43.07,6.71,3.62.5-3.37.51-5.94,2.59-8.04,1.76,1.46,1.3,3.41,1.4,5.02-1.96.75-2.13,3.14-2.79,4.95l-8.83,2.24c-2.03.12-1.78-1.16-.07-2.04-.5-.33-1.81-1.11-1.5-1.76,2.63-5.56-4.24.24-5.67-2.99.85-1.1,2.5-1.5,4.96-1.17Z"/>
          <path class="cls-98" d="M156.17,43.93l.07,2.04c-.73.02-1.55.21-2.01.62-.84.74-.64,1.94-1.19,3.61-.98-1.47-2.06-2.61-.88-3.67,1.31-1.18,2.27-2.64,4.02-2.59Z"/>
          <path class="cls-130" d="M150,36.93c.59.16,1.38-.1,1.93.14.62.37,1.23.89,2.03.93-1.05,1.64-3.26,1.07-4.96,1.17-.2-.45-1-1.1-.9-1.51.12-.51,1.64-.75,1.9-.73Z"/>
          <path class="cls-14" d="M140.13,35.34c1.28,1.73,3.26,1.8,5.94,2.33-1.93,1.27-4.91,1.22-6.02-.78l.08-1.55Z"/>
          <path class="cls-74" d="M149.62,43.82c-.76-.33.35-1,.58-1.28.55-.69,1.83-.56,1.96.09.28,1.34-.53,2.07-2.54,1.2Z"/>
        </g>
      </g>
      <path class="cls-110" d="M95.08,11.91c7.13,2.47,7.62-.18,13.97-.57,1.2-.07,2,.95,3,1.29-1.59,2.6-4.97,4.58-7.04,1.2-.33,2.09-1.72,2.25-4.17.46l-3.71.68c-.23.75-.57.74-1,.03-1.79,1.46-2.37.92-1.03-.96-1.53-.54-1.45-1.36-.02-2.13Z"/>
      <path class="cls-87" d="M112.05,12.63c1.6.54,3.37.49,5.03.64l.03,1.02c-.03,1.48-2.01.77-3.03-.02-.87.77-1.85,1.6-2.93,2.49-.92,2.07-2.59,2.96-4.44,1.31-2.61.59-2.8-.3-.66-1.86-2.33-.16-2.3-.26-1.03-2.39,2.35-.37,5.22.41,7.04-1.2Z"/>
      <path class="cls-38" d="M139.66,28.58c-.45-2.32-.53-4.35-.25-6.08.86.67,2,.61,2.96.98,3.96.43,8.19.92,11.25,3.12-.38.45-.73.93-1.01,1.45.41,1.67-4.24-.25-4-.23,1.27.12,4.2,1,4.07,2.23l-4.88.15c-2.11-2.08-5.19.51-7.91.4l-.23-2.01Z"/>
      <path class="cls-24" d="M120.54,17.39c2.13,2.3,4.74,2.62,7.92,2.07,3.52-.61,6.94,1.15,9.91,2.08.3.37.66.67,1.03.96.6,2.05,1.98,4.34.25,6.08-.25-.86-.69-1.64-1.33-2.26-2.89-3.21-7.56-4.28-14.01-3.2-2.01-.04-3.04-.73-3.11-2.05-3.09.2-3.64-2.74-.66-3.67Z"/>
      <path class="cls-101" d="M149.86,23.42l2.05-.44c3.06-2.27,4.57-1.95,4.54.97,1.02.78,2.05.37,3.72,1.18-2.26,1-4.66.87-6.54,1.47-3.82-.66-7.64-1.74-11.25-3.12,2.33-.2,5.23-.44,7.49-.06Z"/>
      <path class="cls-28" d="M149.86,23.42c3.2-.95,4.81-4.19,7.22-6.46.27-.52.55-.47.85.09l-1.48,6.9c-.63-.48-2.51-.98-3.09-.39-.79.8-.5,1.7-1.41,1.6-1.28-.14-1.68-1.12-2.09-1.73Z"/>
      <path class="cls-142" d="M157.92,17.04l-.85-.09c1.65-2.39.29-6.6,3.47-8.62,1.2,3.67-2.08,6.16-2.63,8.71Z"/>
      <path class="cls-7" d="M152.61,28.04c.85.29,1.06,1.21,1.07,2.03-.32-.04-.67-.04-1-.03l-4.63-2.11c1.8-1.23,3.08.68,4.56.11Z"/>
      <path class="cls-6" d="M121.21,21.06c4.03,1.41,18.16-2.68,17.12,5.25-1.57-.86-3.24-1.86-5.43-1.06-.41,1.48-.26,2.94-.24,4.28-.17,1.35-1.2,1.41-3.08.19-1.22-1.44-2.59-3.02-4.08-4.74-1.08.98-3.53.76-3.3-.9-1.02.59-1.58.22-1.47-.95-2.23-1.44-2.14-1.79.49-2.07Z"/>
      <path class="cls-61" d="M129.57,29.73c1.02-.12,2.05-.19,3.08-.19l1.31,1.15c-.15,4.01,4.67,2.39,3.67,6.88-2.13-.43-3.66-.07-4.59,1.08-2.7-1.53-6.02-.34-8.98-.8l-.91-.93c-.34-.84.34-1.33,2.04-1.47,3.23-1.13,4.69-3.04,4.38-5.72Z"/>
      <path class="cls-17" d="M137.64,37.57c-.07.32.23.72.24,1.05-1.64,1.39-3.21.95-4.84.03-.2-1.13-.77-1.99-1.56-3.52,2.4-.57,5.06.22,6.15,2.44Z"/>
      <path class="cls-10" d="M81.1,14.53c-.29-3.05,1.35-3.78,4.93-2.17.1-2.03,1.53-2.12,2-.07,2.06-.07,4.13-.14,6.18-.4.25-.03.63-.05.87.03.41.67.71,1.57.02,2.13-1.16,2.72-2.68,2.86-4.28.37-1.72-1.24-3.85-.65-5.71-.02,1.43,1.34-.75,2.09-1.96,1.07-1.88,1.37-4.4,2.07-3-.87.15-.69.48-.67.96-.06Z"/>
      <path class="cls-18" d="M113.25,18.41c-2.44-.21-2.84-.77-1.22-1.67-.64-1.6.08-1.77,1.15-.33,1.65-.37,1.97-.72.96-1.03-.89-.26-.9-.63-.08-1.11.85-.07,2.14.02,3.03.02,1.88.14,2.38,1.96,3.44,3.1,0,1.26.18,2.51.66,3.67-.11.7-.27,1.4-.49,2.07-1.08.8-3.34,1.06-3.09-.65-2.08,2.02-5.9.25-7.43-1.95-.89-.25-.9-.62-.07-1.09,3.32-.2,4.37-.55,3.14-1.04Z"/>
      <path class="cls-147" d="M90.81,14.41c1.42-.21,2.85-.34,4.28-.37-.11.67.38,1.1,1.03.96.85.34.85.68,0,1.01,2.52,2.84,3.62,6.79,2.35,10.63,1.57-.04,1.25,1.85,0,2.49-.25,3.28-2.25,3.3-2.56.07-.98-.77-1.32-3.08-.45-4.17q.47-3.35,0,0c-.43.87-.81.85-1.13-.06-2.56,0-4.59-3.92-3.33-5.67-1.23-2.93-1.29-4.56-.21-4.89Z"/>
      <path class="cls-144" d="M97.39,16.16c.5-.49.39-.88-.26-1.19,2.07-2.15,5.22-.73,7.89-1.14.37.79,1.76,1.5,1.03,2.39.62,3.62-2.48,3.53-4.82,1.56.38,2.27-1.57,2.26-2.15.14-1.58,1.74-2.42.1-1.68-1.75Z"/>
      <path class="cls-135" d="M97.13,14.97c1.67.18,3.43-.72,5.08.35-1.85,1.05-3.44.48-4.82.84-.52.84-.94.79-1.27-.15-.07-.32.05-.68,0-1.01.32-.07.67,0,1-.03Z"/>
      <path class="cls-84" d="M99.37,29.98c-.38-1.29-.25-3,1.09-3.45-.1-1.39.51-2.99,1.83-4.8-.31-.87-.57-1.78-.78-2.72-1.62.47-1.77-.31-.28-1.24,1.71-.11,3.31-.76,4.82-1.56l.66,1.86c2.11-1.07,3.16.49,3.49,2.47.5.14.96.31,1.26.64,1.46,1.56-6.79,8.24-8.69,9.31l.56.91c-1.3.4-1.47.9-.51,1.48.56,1.85-3.33,2.98-4.92,1.86-1.9-1.15-1.26-5.42,1.48-4.76Z"/>
      <path class="cls-55" d="M111.14,16.76c.14-.89.44-.86.89-.02.28.56.62,1.38,1.22,1.67-.43.53-1.48.87-3.14,1.04l.07,1.09c-1.63.31-3-1.09-3.49-2.47,1.31-.88,2.83-1.59,4.44-1.31Z"/>
      <path class="cls-5" d="M114.07,14.27l.08,1.11c1.01.86.69,1.21-.96,1.03l-1.15.33c-.28.08-.6-.01-.89.02-.42-.72-1.02-2.07-.36-2.21,1.16-.24,2.63-.23,3.29-.29Z"/>
      <path class="cls-85" d="M117.59,30.25c1.59-1.65,3.7-.77,6.33,2.62l1.72-2.33c-.81-1.78-.84-3.25-.09-4.42-1.92.28-1.96-.49-.06-1.14,2.72-.27,3.33,2.51,4.08,4.74l3.72,3.37c-9.28,5.07-3.87,2.05-10.14,3.82-2.84-.49-4.6-2.89-5.45-5.53-.91-.29-.95-.67-.11-1.13Z"/>
      <path class="cls-89" d="M102.82,32.88c-.45-1.12.54-1.8,2.96-2.05.24-4.41,8.71-4.81,10.86-1.53,1.32-1.41,1.92-.77.96.95.09.36,0,.78.11,1.13-3.4-.86-6.14.4-8.93,1.23-3.72,1.1-7.03,3.06-10.92,3.34-1.72.15-1.62-.57.04-1.22,1.99.28,3.66-.37,4.92-1.86Z"/>
      <path class="cls-66" d="M117.62,22.48c.89.43,2.19.13,3.09.65.51.29,1.04.53,1.47.95,1,.9,2.12,1.58,3.36,2.04,1.41,1.54,2.84,3.75,1.67,5.72-.8,1.35-2.76,4.25-4.53,2.73-1.86-1.6-3.04-4-5.09-4.33-.29-.17-.78-.66-.96-.95-2,.02-2.01-.79-.06-1.35.25-.99-.17-1.49-1.21-1.53-2.53-2.25-1-4.87,2.26-3.93Z"/>
      <path class="cls-21" d="M122.19,24.09c1.04.26,2.18,1.01,3.3.9l.06,1.14-3.77.13c-.32-1.24.06-1.72.42-2.16Z"/>
      <path class="cls-112" d="M79.58,10.2l2.46-.72c.87-.14,1.16.21.87,1.04,2.78.11,3.82.72,3.12,1.83-1.81.25-3.35,1.29-4.93,2.17-2.35-.07-3.4-.75-3.15-2.05.43-.79.79-2.03,1.63-2.27Z"/>
      <path class="cls-4" d="M86.95,8.46c1.06-.17,2.06.13,1.98,1.28-.06.95-.59,1.79-.91,2.55l-2,.07-3.12-1.83c1.28-.69,2.63-1.38,4.05-2.06Z"/>
      <path class="cls-19" d="M86.95,8.46c-.02,2.15-2.32,2.19-4.05,2.06-.39-.23-.64-.65-.87-1.04,1.6-.47,3.18-1.24,4.92-1.03Z"/>
      <path class="cls-120" d="M85.1,14.39c1.79-.67,4.22-1.28,5.71.02.13,3.83,2.51,6.91,3.53,10.56.34,1.64-2.65,2.07-2.86.14-.66.65-1.65,1.04-2.96,1.16-.25.88-.59.88-1,.03-.55-1.9-1.27-3.54-2.17-4.93-.88-.25-.88-.59-.03-1-.03-1.27,1.92-.58,3.03-.15l.1-2.29c-1.65.2-2.72-.29-3.19-1.47-.74.43-1.52.86-2.18.26-1.93-.17-1.88-.93.06-1.28.85.01,1.47-.41,1.96-1.07Z"/>
      <path class="cls-111" d="M70.5,18.04c.03-1.65,1.32-2.49,3.85-2.51.83,1.65,1.76,1.28,2.87.11.17-2.15,1.32-2.45,2.92-1.05.33,1.27,1.99.85,3,.87l-.06,1.28c-.74,2.28-2,2.83-3.79,1.65.43,2.04-.92,2.8-4.06,2.3-1.31,2.45-4.9,2.26-4.97-.91-2.16.37-1.87-1.7.25-1.73Z"/>
      <path class="cls-111" d="M90.81,14.41l-5.71-.02c1.04-1.38,5.62-2.41,5.71.02Z"/>
      <path class="cls-88" d="M114.15,15.38c1.66-.09,3.92,1.13,3.77,3.04l-4.74-2c-.16-.64.41-1.01.96-1.03Z"/>
      <path class="cls-87" d="M113.25,18.41c.46.22,1.07-.16,1.49-.07.73.16.64.98-.55,1.39-1.49.52-2.92-.56-4.08-.29.54-1.22,1.99-1.07,3.14-1.04Z"/>
      <path class="cls-84" d="M96.12,16.01c.41-.05.87.25,1.27.15.04.94.76,1.63,1.68,1.75.99.33,1.69,1.35,2.09,3.07,1.96,1.19-.45,3.94-1.73,5.38-.02.92-.34,1-.96.29l-2.35-10.63Z"/>
      <path class="cls-123" d="M95.69,31.03c-.86-.25-.67-1.57.24-1.83.81.47,1.76.41,2.56-.07,1.06-.64,1.05-.33.89.85-.9,1.42-1.43,3.08-1.48,4.76-.65,1.16-1.36,1.45-2.07.29-.8-.23-.79-.57-.03-1-1.65.36-1.68-.64-.1-3Z"/>
      <path class="cls-84" d="M94.55,27.07c-1.9-.42-1.98-1.32-.21-2.1.37-.02.75.13,1.13.06-.27,1.32.62,2.86.45,4.17l-.24,1.83c-.19.89-.53.88-1,.03-1.84-.15-2.2-3.25-.14-4Z"/>
      <path class="cls-102" d="M95.48,25.03c0-1.24-.32-2.51-1.2-3.81,1.77-.68,2.04.09,2.21,1.3.13.9-.64,1.7-1.01,2.51Z"/>
      <path class="cls-72" d="M98.48,26.64l.96-.29c.44-.81.78-.74,1.03.18.06,1.28-.42,2.4-1.09,3.45-.84.46-.8-.28-.89-.85-.12-.8.17-1.71,0-2.49Z"/>
      <path class="cls-29" d="M99.07,17.9l2.15-.14c-.03.4.37.85.28,1.24,1.36.62,1.37,1.81-.35,1.96-.81.52-1.4-.25-1.65-.8-.35-.76-.4-1.49-.43-2.27Z"/>
      <path class="cls-80" d="M101.16,20.97c.27-.56.21-1.36.35-1.96,1.37-.38,2.48,1.43,2.16,3-.39,1.89-2.09,3.24-3.21,4.52l-1.03-.18c-.27-1.98.89-3.66,1.73-5.38Z"/>
      <path class="cls-92" d="M102.76,30.49l3.01.34c-.43,1.26-2.23,1.19-2.96,2.05-.35-.09-.82,0-1.51-.06-.59-.06-.71-.52-.13-1.01.34-.29,1.26-.88,1.59-1.32Z"/>
      <path class="cls-31" d="M93.83,35.1c-.13-1.44.99-2.3,1.96-1.07.01.3.16.73.03,1,1.64.46.34,1.47-.93,2.03-.3-.09-.68.18-.99.18-.75-.01-1.78.02-2.03-.84-.2-.59.45-1.02,1.96-1.3Z"/>
      <path class="cls-86" d="M95.82,35.03c.67.04,1.41-.38,2.07-.29l-.04,1.22c-.8.41-1.82,1.45-2.96,1.1l.93-2.03Z"/>
      <path class="cls-140" d="M115.37,26.41c1.15-.52,2.27-2.14,4.16-1.99,2.03.16,2.83,2.79,1.82,4.75-1.73-1.51-2.8-2.66-4.78-1.23-.5-.03-1.01-.04-1.46-.41s.21-.76.26-1.12Z"/>
      <path class="cls-76" d="M46.13,11.76c-.87-.32-.86-.7,0-1.13l2.02-.14,1.3,3.12c2.59.98,2.49,1.66-.33,2.03.25,2.13.12,2.27-1.95,1.8-.25.71-.62.72-1.08.09-2.08,2.36-3.07,1.12-.92-1.02-1.52-2.13-.73-3.21.97-4.76Z"/>
      <path class="cls-35" d="M58.97,16.25c1.79-.01,3.65-.11,5.12-1.22l1.94-.17c1.5-.97,2.04-.35,1.11,1.16.88.25.88.59.03,1-1.31,2.14-7.89,2.1-8.99.31-.02-.48.21-1.08.78-1.09Z"/>
      <path class="cls-145" d="M74.11,13.85c.47.51.21,1.78.65,2.17.88.79,1.83-.02,2.46-.39-1.39,2.31-4.26,2.21-6.72,2.4-.88-.17-.91-.57-.19-1.18-2.05.31-3.1.03-3.16-.85-.51-.03-.91-.78-1.11-1.16,1.67-2.75,5.83-3.44,8.08-1Z"/>
      <path class="cls-100" d="M68.88,36.97c-1.38-1.11.39-2.54,1.98-2.12.23-3.33,4.59-6.33,7.77-5.24.13-1.98,2.32-3.43,3.93-2.01,2.07-2.71,3.41-2.79,4-.25.15-1,.47-1.35.96-1.03l1-.03c1.15-1.56,2.88-.62,2.04,1.16l.02,1.46c-2.14,1.11-5.14,1.68-9.02,1.71l.2,2.25c-2.91,1.82-5.5,3.74-7.79,5.75,1.88,1.96,1.51,2.26-1.07,1.51-1.88,2.09-7.77-.56-4.02-3.16Z"/>
      <path class="cls-129" d="M85.25,16.48c1.23.03,3.14-1.13,4.45.14.98.95.73,2.22.45,2.99-.2.56-1.08.59-1.82.62-8.31-.92-9.33-2.18-3.09-3.76Z"/>
      <path class="cls-81" d="M83.08,16.74c.7.06,1.47-.28,2.18-.26-.61,1.16-2.08.74-3.11,1.57,2.47,1.32,4.92.54,6.2,2.19l-3.03.15c-.1,2.1-1.49,2.02-2.2.08-.15,2.86-2.43,2.67-3.05-.08-1.97.94-2.82-.68-.77-2,1.05-1.09,2-1.81,3.79-1.65Z"/>
      <path class="cls-124" d="M91.48,25.12c1.18.29,2.2.95,3.07,1.95l.14,4c-.44,1.11-1.1,1.52-2.13.86-2.28-.3-4.04-2.62-2.01-4.49-.38-.81-1.08-1.37-2.04-1.16.03-.45-.1-1.46.47-1.73.83-.39,1.73.6,2.49.57Z"/>
      <path class="cls-34" d="M85.34,21.39c1.44-.47,2.09.44,2.11,1.47l.07,3.46c.01.65-.37.93-.96,1.03-1.62,0-2-1.32-1.14-3.96-1.26-.49-1.6-1.7-.07-2Z"/>
      <path class="cls-100" d="M91.48,25.12l2.86-.14c.18.64.18,1.43.21,2.1-1.03.11-2.07.43-2.72,1.31-.54-1.59-.26-2.41-.35-3.26Z"/>
      <path class="cls-64" d="M83.1,20.47l2.2-.08.03,1,.07,2c-.25.88-.59.88-1,.03-.84,1.5-1.2,1.18-1.08-.96-2-.33-2.1-1.2-.23-1.99Z"/>
      <path class="cls-151" d="M66.39,23.05c-1.69-2.07-1.73-3.07-.1-3,1-2.93,2.34-4,4.02-3.19.14.37.16.79.19,1.18-.79.43-.12,1.26-.25,1.73,2.87.79,2.23,2.87-.67,3.16,1.47,1.98,1.41,3.31-.17,4,.43,2.57.18,2.77-1.93,1.3-.09.96-.41.91-.95,0-1.95.95-2.53.38-.94-1.16-2.65-.78-2-4,.81-4.03Z"/>
      <path class="cls-9" d="M69.58,22.94c2.36-.51,4.25-1.26,5.65-2.25.64-1.64,3.09-1.28,4.06-2.3l.77,2c.95.15.91.47-.01.93-1.43,2.29-3.81,4.12-6.56,4.48.32,2.98-2.69,3.31-4.08,1.14-.7-1.44-.66-2.72.17-4Z"/>
      <path class="cls-20" d="M70.25,19.77c1.65.37,3.28.83,4.97.91.51.12,1.15-.33,2.17.38-1.72,1.99-4.15,2.7-6.65,3.59-.51-.87-.81-1.27-1.16-1.72.46-.81.41-2.25.67-3.16Z"/>
      <g>
        <path class="cls-21" d="M110.19,20.54c2.74-.53,5.02.77,7.43,1.95-1.07,1.14-2.03,2.36-2.26,3.93,1.15.04,1.55.55,1.21,1.53.14.38-.14,1.02.06,1.35-3.74-.3-7.45-.14-10.86,1.53-1.28.67-2.92,1.33-3.01-.34.07-5.04,7.61-7.18,7.43-9.95Z"/>
        <path class="cls-97" d="M112.43,27.2c-1.82-.17-3.57.97-6.22,1.48-1.27-.73.38-3.06,1.34-3.57,1.86-1,3.53-.74,4.88,2.09Z"/>
      </g>
      <path class="cls-39" d="M94.69,31.06c.27-.14.7.06,1-.03l.1,3c-.6.42-1.4.6-1.96,1.07-1.39.88-2.39.92-3,.1l-.45-.99,4.3-3.14Z"/>
      <path class="cls-49" d="M80.22,40.64c-.89-2.83,3.07-4.45,4.75-2.24,2.39-1.19,2.72-.33.89,1.58-1.64,1.28-3.8,2.29-5.91,2.58-1.43.19-3.44.45-4.86.2-.88-.25-.88-.59-.03-1,1.3-1.04,3.02-1.41,5.17-1.11Z"/>
      <path class="cls-99" d="M85.13,37.39c.55-.97,1.16-1.3,1.83-.99,1.12-1.04,2.74-2.46,3.87-1.2l3-.1c-.59.49-1.13,1.16-1.96,1.3-2.39.4-4.15,2.14-6.01,3.59l-.89-1.58c-.82-.42-.75-.76.16-1.01Z"/>
      <path class="cls-53" d="M22.9,5.67c1.79.76,1.84,2.05,2,3.82-.29,1.21-.2,2.18.28,2.92.43.25.74.66.92,1.12-.18,2.2-3.08,1.86-3.18-.43-1.45,3.28-3.04,3.54-4.77.79-.34.85-.66.81-.97-.07-1.66-.49-2.4-1.16-2.2-1.99.41-.7.68-1.44.81-2.23-2.04-1.33-2.73-2.53-2.05-3.61l.52-.53c4.12-.09,7.01-.02,8.64.2Z"/>
      <path class="cls-48" d="M22.88,16.47c1.01-1.91,3.07-2.34,6.18-1.3.64.12,1.35-.06,1.98.09,1.47,1.27.94,1.95-.95,1.87l-2.57,4.52-3.18-.96c.03,2.91-2.72,3.86-3.97.96-3.22-1.15.54-5.45,2.51-5.19Z"/>
      <path class="cls-13" d="M22.91,13.11l3.18.43c1.11.29,2.14.83,2.96,1.64-1.95.87-4.04,1.29-6.18,1.3-2.8,2.81-4.11-2.18.03-3.37Z"/>
      <path class="cls-150" d="M33.03,13.21l1-.03c.81.91,1.01,1.68.6,2.33,3.48,1.59,1.18,3.14-1.46,1.71-1.51.84-2.68-.25-2.13-1.94.49-.88,1.4-1.33,1.99-2.06Z"/>
      <path class="cls-127" d="M24.89,9.49c.07.83,1.12,1.86.28,2.92-.6.03-1.72.6-2.21-.3-.62-1.16,1.18-2.27,1.93-2.62Z"/>
      <path class="cls-63" d="M33.97,12.03c.41-.5,1.33-.59,1.98-.93,1.14-.18,1.82.13,2.03.93,1.18,1.32.65,1.84-.96,1.03-2.12,1.38-3.12,1.41-3,.1l-1,.03.95-1.18Z"/>
      <path class="cls-152" d="M46.13,10.63v1.13c-.22,2.39-1.63,2.65-4.22.78-2.31.62-3.62.45-3.92-.51-.79.03-1.8-.01-2.03-.93,3.06-1.56,7.04-1.98,10.17-.47Z"/>
      <path class="cls-90" d="M37.03,13.07c.48-.16.87-.52.96-1.03l8.14-.27c1.6,1.45-.17,3.19-.97,4.76-.29.87-.63.86-1,0-1.06.14-2-.44-2.81-1.76-1.27.96-2.63,1.44-4.09,1.43-1.59,3.6-5.3-2.61-.23-3.12Z"/>
      <path class="cls-58" d="M46.08,17.54c.33-.21.71-.29,1.08-.09,1.97-1.73,3.32-.03,2.27,2.08,1.91-.36,1.98.41.11,1.15,1.31,2.63-.56,4.1-3.17,3.3-.28,1.92-1.04,1.83-1.29-.13-1.39-.56-2.74-1.43-1.74-2.79-1.2-1.74.85-3.85,2.74-3.52Z"/>
      <path class="cls-69" d="M42.2,17.89c-.52-2.36-.14-2.43,1.96-1.38h1c-.18.63.15,1.51.92,1.02-.78,1.28-2.2,2.06-2.74,3.52-.3.87-.65.85-1.03-.01-1.03-.58-1.58-2.77-.11-3.15Z"/>
      <path class="cls-82" d="M58.26,19.33c1.44-1.4,7.71-1.91,8.03.72l.1,3c-1.47.99-3.49.31-4.77-.81-1.87,1.3-3.04,1.02-3.5-.86l-.08-1.1c-.02-.31.23-.63.22-.95Z"/>
      <path class="cls-45" d="M58.19,17.33c3.01.88,5.95.07,8.99-.31.54.68.24,1.7-.89,3.03-2.47-1.32-5.32-.82-8.03-.72l-.07-2Z"/>
      <path class="cls-146" d="M67.18,17.02l-.03-1c1.09.07,2.67-.42,3.16.85-2.03-.18-2.25,2.36-4.02,3.19-.04-1.05.41-2.09.89-3.03Z"/>
      <path class="cls-136" d="M81.56,30.62c8.41-2.53,9.7.56,3.57,6.78l-.16,1.01c-1.46.96-3.24,1.4-4.75,2.24-3.99.8-6.08.12-6.26-2.02-.02-1.41.09-3.17,1.58-4.13l6.01-3.88Z"/>
      <path class="cls-60" d="M67.47,28.24c.41-.75,1.37-.81,1.93-1.3,1.15-1.01,2.98-.38,4.08-1.14,1.5-.8,2.42-.76,2.76.12,2.29.46,2.41.75,1.3,2.77,1.3-1.43,1.85-.91,1.07.92-2.42,1.97-5,3.8-7.77,5.24-1.56,1.05-1.8.97-1.07-.79-3.43.94-5.24-3.67-2.31-5.82Z"/>
      <path class="cls-65" d="M90.55,27.44c.73,1.54,2.51,2.64,2.01,4.49-1.27,1.79-3.14,3.28-5.6,4.48-.33.69-1.12.96-1.83.99.28-1.77,1.59-3.12,2.67-5.21-1.74-2.12-4.13-1.79-6.24-1.57,2.87-1.85,6.03-1.67,8.99-3.18Z"/>
      <path class="cls-106" d="M67.88,37c.25-.88.59-.88,1-.03-.09,1.03.07,2.13.88,2.74.94.71,2.21.16,3.14.42.89-.95,2.51.34,2.15,1.62l.03,1c-3.06-.54-5.91-2.3-9.09-1.85-.01-.22-.2-.46-.17-.67-2.06-1.54-.02-2.63,2.05-3.23Z"/>
      <path class="cls-77" d="M83.34,22.46c.44.22.81.55,1.08.96,2.04,2.01.91,3.61-1.86,4.18-1.35.45-2.82,1.11-3.93,2.01l-1.07-.92c-1.09-2.42,3.48-5.41,5.79-6.23Z"/>
      <path class="cls-103" d="M73.97,38.62c1.36,2.2,4.42.48,6.26,2.02-1.62.9-3.2,1.43-5.17,1.11-.94-.15-1.49-1.19-2.15-1.62l1.07-1.51Z"/>
      <path class="cls-44" d="M84.41,23.42l1-.03c.77,1.18,1.1,2.56,1.14,3.96-1.27.21-2.76-.16-4,.25,1.32-1,2.2-2.5,1.86-4.18Z"/>
      <path class="cls-83" d="M69.78,34.06c.25.36.72.55,1.07.79-.81.42-1.22,1.61-1.98,2.12l-1,.03c-1.24.92-1.91.94-2,.07-2.19-2.74,1.9-6.22,3.9-3.01Z"/>
      <path class="cls-16" d="M76.25,25.92c.92-1.5,2.18-3.03,3.8-4.6.02-.28.11-.68.01-.93l3.05.08c.05.67.12,1.33.23,1.99.09,3.81-3.79,2.36-5.79,6.23-1.06-.51-1.46-1.64-1.3-2.77Z"/>
      <path class="cls-70" d="M92.56,31.93c.7-.3,1.44-.5,2.13-.86.08,2.2-2.42,2.66-3.86,4.14-.85.87-2.88.48-3.87,1.2,1.05-2.23,3.38-3.54,5.6-4.48Z"/>
      <path class="cls-117" d="M56.74,33.26c-.27-.46-.48-.92-.49-1.38-.01-.56,9.08-3.99,10.27-3.65.32.07.63.08.95,0,.02,2.17,1.08,4.08,2.31,5.82-1.87-.03-2.82,1.71-3.9,3.01,0,2.52-2.66,2.71-4.11,1.03-4.5,1.15-7.13.64-7.9-1.52-.88-1.68,1.11-2.98,2.88-3.33Z"/>
      <path class="cls-107" d="M58.12,21.38c2.97.06,6.6-1.29,8.27,1.67l-.81,4.03c-.05,1.71-2.73,2.62-3.86,1.14-.89-.28-.88-.64-.03-1.09-.41-2.18-1.13-2.82-2.14-1.9-3.6.59-3.43-1.31-1.43-3.85Z"/>
      <path class="cls-139" d="M54.88,30.64c-.5-1.93.91-1.76,1.89-.24.69-2.65,2.54-3.38,4.95-2.18,1.39.09,2.75-.31,3.86-1.14-.13.65.31,1.02.94,1.16-3.05,2.11-7.17,2.28-9.78,5.03-2.13,2-3.12,2-1.95-.81-1.75-.41-1.68-1.31.09-1.82Z"/>
      <path class="cls-77" d="M80.05,21.32c-.15,2.12-2.09,3.52-3.8,4.6-.77.26-1.93-.22-2.76-.12l6.56-4.48Z"/>
      <path class="cls-54" d="M31.86,34.23c.18-.8,1.15-.82,2.9-.07-1.11-1.43-1.28-2.3.64-2.02,3.07.67,2.76,3.69.28,4.98-1.86-.33-3.91-.57-5.03-2.23-2.16-1.37-.98-2.15,1.21-.65Z"/>
      <path class="cls-143" d="M26.53,30.69c.14-1.94.92-1.93,1.55-.05,2.18-.88,4.78,1.26,3.78,3.59-.33-.04-1.62-.17-1.21.65l-3.75-1.32c-.1-.79-.22-1.87-.98-2.33-.46-.77-.25-.93.6-.54Z"/>
      <path class="cls-148" d="M43.93,38.84c1.19-1.65,3.31-2.12,6.36-1.42l1.56-.85c-.86-.3-.87-.63-.03-1,.29-.92.62-.93,1-.03,1.39-1.08,1.85-.53,1.05,1.06,1.2.31,1.63,1.16,2.41,1.26,1.44.19,3.12-1.07,3.92-2.62,1.18.69.97,1.96,1.57,2.88.84.36.8.68-.1.96l-.81.08c.09,1.58-2.45,1.66-2.93.19l-1.62.92c-2.66-.89-5.12-.72-7.36.52-2.39-.2-5.06.83-6.99-.86,2.27-.54,2.93-.89,1.96-1.07Z"/>
      <path class="cls-122" d="M57.93,39.33c1.54.73.9,1.42-1.9,2.09-1.92-.97-3.99-1.06-6.11-.53-.28.07-.66-.1-.96-.12,2.62-3.84,4.37-1.13,8.98-1.43Z"/>
      <path class="cls-93" d="M61.77,38.11c1.45.07,2.91-.19,4.11-1.03l2-.07c-1.09.77-1.83,1.91-2.05,3.23-1.51.3-3.05-.09-4.16-1.17l.1-.96Z"/>
      <path class="cls-32" d="M57.93,39.33l2.93-.19c.56,1.31-.14,2.41-1.36,2.17-1.03-.19-2.53.58-3.47.11l1.9-2.09Z"/>
      <path class="cls-43" d="M16.78,4.13c2.23-.7,4.19.73,6.12,1.54-.91,3.96-.85-.82-9.16.33-.94-.19-1.01-.54-.21-1.06.49-1.26,2.19-1.66,3.26-.81Z"/>
      <path class="cls-137" d="M13.59,2.87c.9.31,2.13-.36,3.06-.1l.13,1.36c-1.05.33-1.98,1.21-3.26.81-2.65-.41-2.5-1.36.07-2.07Z"/>
      <path class="cls-71" d="M15.31,17.76c-.9-.21-.85-.51.06-.89l2.77-2.97c1.61.12,3.22-.33,4.77-.79-.26.6-1.17,1.12-1.45,1.99-.17.51.96,1.07,1.43,1.38l-2.51,5.19c-.17,2.3-1.08,2.35-2.72.14-.88-.25-1.37-.66-1.47-1.22-2.96-.1-3.35-1.15-.87-2.82Z"/>
      <path class="cls-108" d="M11.74,6.04c-2.88-2.43.44-3.9,1.79-1.11-.01.35.19.71.21,1.06.52,1.39,3.39,1.85,2.05,3.61-2.05,1.93-4.42,1.75-4.04-1.85-1.7-.58-1.8-1.28,0-1.71Z"/>
      <path class="cls-125" d="M11.31,9.75c-1.57-.58-1.27-2.38.43-2,1.24.87,2.43,2.11,4.04,1.85.24.39.52.91.78,1.14.52.45.35.95-.14,1.03-.61.11-1.09.03-1.45.06-.33.83-.99.86-2,.07-.32,1.23-1.17,2.09-2.06,1.06-2.18.21-2.05-.86.41-3.22Z"/>
      <path class="cls-95" d="M17.17,13.82l.97.07c.19,1.08.65,2.01,2.02,3.39-1.5.54-3.27.06-4.79-.41-.9-.05-.93-.36-.15-.91-1.17-.97-.52-1.68,1.96-2.14Z"/>
      <path class="cls-134" d="M14.97,11.84c.56.84,2.12.8,2.2,1.99-1.52,1.38-4.36,1.6-4.17-.92-.77-.26-.77-.6-.03-1,.36-.4.37-1.09.97-.66.38.28.85.31,1.03.59Z"/>
      <path class="cls-138" d="M20.37,21.66c1.41.15,2.66-.88,3.97-.96l1.81.75c.77,1.11,1.17,2.47,1.22,4.09,2.49.95,3.06,3.57.7,5.1l-1.55.05c-.82-.66-1.77-.98-2.87-.95-1.78-.12-2.94-3.6-4.01-4.15-2.7,1.17-2.97-.64-1.93-2.75-1.35-.04-1.4-.66-.07-1.05.9-.03,1.83-.23,2.72-.14Z"/>
      <path class="cls-51" d="M30.08,17.13c.91.17.95.53.17,1.07,1.64,1.93.11,4.29-1.87,5.17-1.64.87-2.21-.28-2.23-1.93-.33-.08-.77.12-1.25.03-.33-.06-.61-.29-.56-.78,2.47-.17,3.99-1.86,5.75-3.56Z"/>
      <path class="cls-27" d="M31.04,15.27c.99.24,1.77,1.01,2.13,1.94.18.29-.17.62-1.07.98-.11,2.67-1.05,2.54-1.85.02l-.17-1.07c.44-.43.65-1.32.95-1.87Z"/>
      <path class="cls-126" d="M33.17,17.2c.53.02,2.05-.05,1.82-.58-.68-.95-1.32-1.24-1.5-1.92-.13-.5.19-1.07.54-1.54l3-.1c-.53.76-2.75,1.34-1.92,2.59.59.89,1.59.27,2.15.53,1.59-1.31,2.58-1.48,2.91.77.88.25.88.59.03,1,.44,2.5-.23,2.56-2.25,1.18-1.64,1.56-4.84.42-5.84-.95-.47-.66.57-1,1.07-.98Z"/>
      <path class="cls-57" d="M44.16,16.51c-.38.77-1.08,1.36-1.96,1.38-.87.28-1.46-.2-2.03-.93-1.02.18-2.04-.35-2.91-.77,1.61-1.62,2.71-4.27,5.64-2.59.77.44,1.08,1.81,1.26,2.92Z"/>
      <path class="cls-62" d="M49.54,20.68c.76,1.31,2.59,1.41,3.96,1.79,1.12.56,2.38.17,3.77-1.17.28-.02.57.07.85.08.12,1.56.4,2.78,1.43,3.85,1.54-.73,2.2.36,2.14,1.9-.08.33.08.75.03,1.09-1.3,1.37-3.08,1.95-4.95,2.18-1.56-.94-3.69-2.51-5.18-3.95-3.12-.02-4.86-.84-5.22-2.48.85-1.28,2.01-2.29,3.17-3.3Z"/>
      <path class="cls-42" d="M44.26,23.86c.12-.91.4-.89.83-.01l1.29.13c1.88.76,3.51,1.28,5.22,2.48.68.36.65.73-.05,1.11-1.16.77-4.2.13-5.16-.89-.82,2.61-1.13,2.59-2.03-.02-2.85.3-2.8-2.03-.1-2.8Z"/>
      <path class="cls-26" d="M41.3,20.92c.39-.83.72-.78,1,.12h1.03c.99.63,1.58,1.65,1.74,2.8-.27-.03-.56-.02-.83.01-1.73,2.35-2.64,2.1-2.76-.8-.98-.78-1.5-1.56-.19-2.14Z"/>
      <path class="cls-50" d="M40.2,17.96l-.03-1c.33-.38.69-.91,1.05-.56.59.57.84,1.04.99,1.49l.11,3.15-1-.12c-1.98.09-3.02-1.91-1.1-2.96Z"/>
      <path class="cls-67" d="M53.5,22.47c1.09-.81,2.43-1.09,3.77-1.17-.55,1.72-2.18,2.7-3.5,4.28-.59-1.54-.16-2.25-.26-3.11Z"/>
      <g>
        <path class="cls-91" d="M55.15,14.62c1.22.6,2.77.63,3.82,1.63.93.61.67.97-.78,1.09,2.64.68,2.64,1.01.07,2,.8.46.71.77-.22.95-2.66,1.31-6.1-2.24-4.94-4.86.23-.56.91-.82,2.06-.8Z"/>
        <path class="cls-47" d="M49.45,13.62c1.97-1.07,3.88.1,5.7,1,.45.71-.14.85-.49.87-.58.03-1.22-.03-1.57-.07-.71,2.58-1.68,2.31-2.99.04-.11.91-.44.96-.98.19-.03-.62.57-1.45.33-2.03Z"/>
        <path class="cls-75" d="M49.12,15.65l.98-.19c4.09.55,3.24,6.36-.66,4.07-.37-1.04-1.25-1.71-2.27-2.08.11-1.03.98-1.6,1.95-1.8Z"/>
        <path class="cls-79" d="M49.43,19.52c2.14-.44,1.13-2.5.66-4.07.98-.19,2-.14,2.99-.04,1.91,1.35,3.28,3.23,4.94,4.86.9.25.91.62.08,1.1-.15.89-.44.82-.85-.08-1.42,1.58-2.68,1.97-3.77,1.17-1.4,3-5.66,1.15-3.96-1.79l-.11-1.15Z"/>
        <path class="cls-67" d="M54.72,18.19c2.07,1.84,1.41,2.88-.76,1.78-1.28-1.41-.8-3.06.76-1.78Z"/>
      </g>
      <path class="cls-105" d="M52.78,34.57c.26-2.53.93-3.23,2.01-2.11-.13,1.05,1.26.81,1.95.81-.98,1.03-1.67,2.45-2.88,3.33-.45-.11-.89-.65-1.05-1.06-.96-.11-.94-.44-.04-.96Z"/>
      <path class="cls-22" d="M59.55,25.23c.64-.41.96-1.19,2-2.04,1.39,1.31.45,2.68.14,3.94-1.38.15-1.5-1.22-2.14-1.9Z"/>
      <path class="cls-149" d="M46.38,26.68c1.8-.2,3.54.11,5.16.89,1.98,0,4.26,1.08,3.35,3.07.12.61.07,1.23-.09,1.82l-2.01,2.11c-1.4-1.1-2.69-2.43-3.87-3.99-3.65-.01-6.51-2.06-2.53-3.9Z"/>
      <path class="cls-116" d="M56.77,30.4l-1.89.24c-.73-1.42-1.94-2.39-3.35-3.07l.05-1.11c1.73,1.22,5.1,1.11,5.18,3.95Z"/>
      <path class="cls-15" d="M35.4,32.13c-1.85-.01-1.63-1.62.09-2.05-.84-3.44,1.54-5.91,4.99-6.09-1.32-1.14-.99-1.44,1.01-.93.92.21,1.73.93,2.76.8l.1,2.8c1.33,2.03-.25,5.52-2.82,5.46,1.25,2.36-.32,4.3-2.89,3.49.84,2.57.19,3.32-1.95,2.24-.2-.33-.76-.44-1.02-.73.41-1.55-.35-3.41-.28-4.98Z"/>
      <path class="cls-12" d="M38.65,35.61c4.05-.11,8.45.21,13.2.95-1.06,4.53-3.85-.91-7.92,2.28-.85.47-2.17.75-3.97.84-1.34-.13-2.53-.66-3.26-1.83.72-.69,1.37-1.43,1.95-2.24Z"/>
      <path class="cls-2" d="M43.93,38.84c1.14.19,2.48-.68,4.07.39-1.92,1.11-4.04.36-6.03.68-.49-.21-1.44-.18-2.01-.23.5-1.66,3.03-.1,3.97-.84Z"/>
      <path class="cls-59" d="M26.53,30.69l-.6.54c-.67-.41-1.46-1.43-2.27-1.49.12-.7.6-1.23.97-1.59.86-.83,1.55-.37,1.74.12.35.92.31,1.84.16,2.41Z"/>
      <path class="cls-141" d="M27.37,25.54c-1.1-1.12-.6-2.45,1.01-2.16-.14-1.93.88-3.57,1.87-5.17l1.85-.02c1.99-.02,4.09-.12,5.84.95.89.15.88.45.05.9,1.02,2.07.97,2.1-1.36,2.05l-1.68,1.48c-2.61-.76-3.15,1.53-1.61,6.84.89.84,1.37,2.09,1.42,3.75.18,2.07-.66.37-2.9.07-1.27-1.28-3.41-1.67-3.78-3.59-.32-1.69-.6-3.39-.7-5.1Z"/>
      <path class="cls-119" d="M33.34,30.41c-.28-1.03.11-1.47,1.16-1.33,1.42-1.21,1.95-.64.99,1l-.09,2.05c-.6.5-.7,1.29-.64,2.02-1.29-.75-2.56-2.41-1.42-3.75Z"/>
      <path class="cls-56" d="M44.35,26.66l2.03.02-.78,2.13c2.24-.84,3.79-.44,4.9.45,1.86,1.47,2.5,3.33,2.27,5.31-.03.27-.06.71.04.96-.27-.1-.76.05-1,.03-6.57,1.65-10,.5-10.28-3.44.33-2.07,1.23-4.06,2.82-5.46Z"/>
      <path class="cls-52" d="M38.65,35.61c.71-1.35,1.66-2.57,2.89-3.49,2.02.05,2.82,2.82,4.24,2.94l6.05.5c-.04.32.11.68.03,1-5.24-1.1-14.11,3.98-13.2-.95Z"/>
      <path class="cls-114" d="M4.31,2.05c.89-.73,1.9-1.59,2.82-1.9,1.59-.54,2.55.48,2.84,1.84,2.07,1.62.85,3.09-1.42,2.9,1.74.73,1.43,1.39-.47,1.04-1.31,1.19-2.72.73-3.51-.72-1.28,1.37-1.83.81-.82-.84.53-.5.27-1.61.56-2.33Z"/>
      <path class="cls-121" d="M9.98,1.98c1.3-.1,2.44.48,3.62.88l-.07,2.07c-.4-.13-.94,0-1.43-.08-.65-.1-.36.79-.36,1.19-1.18,1.43-2.3.06-3.19-1.15.38-1.01.91-1.96,1.42-2.9Z"/>
      <path class="cls-3" d="M10.91,12.97c.54-.49,1.57-.52,2.06-1.06l.03,1,2.21,3.06.15.91c.05.29-.12.61-.06.89-.56,2.14-2.96,1.83-4.06.08-2.26,1.18-4.58-.5-4.59-3-1.01-.26-1.02-.49.01-.82,1.13-2.55,2.05-2.36,4.24-1.04Z"/>
      <path class="cls-113" d="M11.25,17.83c1.32-.39,2.71-.33,4.06-.08.2.96.47,1.92.87,2.82-2.06.59-4.34,1.08-6.85,1.46-.87.83-2.2.48-1.77-.88-.8-.12-.79-.43-.07-.91-1.14-2.8,1.3-4.28,3.76-2.42Z"/>
      <path class="cls-8" d="M16.17,20.58c.87-.24,1.41.42,1.47,1.22-1.84.88-5.95.97-8.32.24,1.51-2.04,4.59-.84,6.85-1.46Z"/>
      <path class="cls-133" d="M8.55,4.89c1.14.12,2.26.46,3.19,1.15v1.71c-.93.48-.44,1.28-.42,2-1.48,3.57-2.7,4.15-3.66,1.77.62-2.16.76-4.02.43-5.59-.09-.28.36-.77.47-1.04Z"/>
      <path class="cls-132" d="M7.1,8.05c-1.6-1.62-1.21-2.33.99-2.12.61.65,1.81.96,1.68,1.65l-.76,4.14c1.45.53.68-2.24,2.3-1.96.02,1.05-.55,2.14-.41,3.22-1.14,1.03-2.75,1.31-4.24,1.04-2.71.32-1.49-5.42.43-5.96Z"/>
      <path class="cls-94" d="M13.01,12.91c1.26.75,2.73.81,4.17.92.08,1.19-1.45,1.32-1.96,2.14-.81.06-2.38.09-3.13-.69-.47-.49.65-1.61.92-2.37Z"/>
      <path class="cls-33" d="M7.56,21.16l1.77.88,8.32-.24c.27.44.88.71.07,1.05-.78-.12-1.57-.05-2.36-.02-2.54.97-5.39,1.07-7.99.28l-2.47.23c-.84-.26-.82-.58.01-.94.15-.63,1.04-1.04,2.65-1.24Z"/>
      <path class="cls-104" d="M26.15,21.44c1.01.25,1.74,1.04,2.23,1.93.06.83-.33,1.69-1.01,2.16-.94-.08-1.76-.61-1.73-1.29.06-1.18.35-1.97.51-2.8Z"/>
      <path class="cls-36" d="M40.2,17.96c.04,1.09.66,2,1.1,2.96.27.59.12,1.5.19,2.14-2.22.85-4.79-.7-3.5-3.03l-.05-.9c.62-.61,1.4-1.02,2.25-1.18Z"/>
      <path class="cls-115" d="M15.35,22.83c-1.89,1.79-5.99,1.94-7.99.28l7.99-.28Z"/>
      <path class="cls-78" d="M36.76,23.35c1.07-1.82,2.86-.87,3.72.64l-4.99,6.09c-.4-.26-.74-.6-.99-1-4.02-1.13-1.53-9.41,2.26-5.73Z"/>
      <path class="cls-131" d="M36.63,22.09c.16-.84.49-1.78,1.36-2.05,1.11,1.2,1.87,2.65,3.5,3.03.06.53-.79.65-1.01.93-1.24-.11-2.7.18-3.72-.64-1.93.26-2.02-.55-.13-1.27Z"/>
      <path class="cls-41" d="M36.63,22.09c-.08.41.17.85.13,1.27-2.6-.1-2.72,3.69-2.26,5.73-.42.42-.78.88-1.16,1.33.38,2.56-3.74-4.56-2.72-6.91.44-1.02,1.78-1.41,3.01-3.43,1.25.67,1.74,1.79,3.01,2.01Z"/>
      <path class="cls-109" d="M1.72,6.29l2.03-1.91c.21.26.74.49.82.84,2.42.21,2.58,2.06.36,2.89.92.27.84.58-.12.93-1.36,3.23-2.65,4-3.86,2.3l-.17-.99c.2-1.32.02-3.17.95-4.04Z"/>
      <path class="cls-128" d="M4.57,5.21c1.33-.73,2.55-.32,3.51.72.29.86-.99,1.51-.99,2.12-.74,2.46-1.32,2.55-2.17.05-.07-.96-.14-1.95-.36-2.89Z"/>
      <path class="cls-25" d="M4.14,14.34c1.14-2.44,1.98-2.28,2.52.49,1.7.77,3.62,1.32,4.59,3-1.44.51-2.45,1.69-3.76,2.42-1.39-.6-2.86-1.27-4.4-2.01-.92-.03-.97-.33-.19-.89-.47-2.53-.05-3.53,1.25-3Z"/>
      <path class="cls-96" d="M4.81,9.03c.11-.24.14-.66.12-.93l2.17-.05c.01,2.09-1.86,4.38-.43,5.96-.6.17-.51.6-.01.82-.83-.23-1.67-.39-2.52-.49-2.73-1.05-1.47-3.58.67-5.31Z"/>
      <path class="cls-96" d="M7.49,20.25c.11.33.17.57.07.91-2.07,1.52-5.85-.91-4.47-2.92.64-.41,1.19-.97,1.49-1.63,1.76.94,2.44,2.23,2.91,3.64Z"/>
      <path class="cls-37" d="M.77,10.33c-.03.25.06.77.17.99,2.03.22,2.68,2.23,1.95,6.02.09.27.08.62.19.89.8,1.87,2.4,3.14,4.47,2.92-.25.83-1.8,1.63-2.65,1.24-1.28-.58-2.15-1.94-3.58-2.24-.42-3.26-2.39-6.93-.55-9.82Z"/>
      <path class="cls-73" d="M4.81,9.03c-.77,1.66-.85,3.51-.67,5.31-.56.94-.94,1.96-1.25,3l-1.95-6.02,3.86-2.3Z"/>
    </g>
  </g>
</svg>