<?xml version="1.0" encoding="UTF-8"?>
<svg id="Enemy" xmlns="http://www.w3.org/2000/svg" viewBox="0 0 58.96 168.73">
  <defs>
    <style>
      .cls-1 {
        fill: #111;
      }

      .cls-2 {
        fill: #96665d;
      }

      .cls-3 {
        fill: #c2ab91;
      }

      .cls-4 {
        fill: #fed7c6;
      }

      .cls-5 {
        fill: #b70d09;
      }

      .cls-6 {
        fill: #800404;
      }

      .cls-7 {
        fill: #000102;
      }

      .cls-8 {
        fill: #7b6e5e;
      }

      .cls-9 {
        fill: #af1616;
      }

      .cls-10 {
        fill: #340a06;
      }

      .cls-11 {
        fill: #5d1514;
      }

      .cls-12 {
        fill: #e8c5b1;
      }

      .cls-13 {
        fill: #e29b85;
      }

      .cls-14 {
        fill: #120b0a;
      }

      .cls-15 {
        fill: #100b09;
      }

      .cls-16 {
        fill: #fdd5b9;
      }

      .cls-17 {
        fill: #9f080a;
      }

      .cls-18 {
        fill: #9e0606;
      }

      .cls-19 {
        fill: #a87d6e;
      }

      .cls-20 {
        fill: #bf0508;
      }

      .cls-21 {
        fill: #c10506;
      }

      .cls-22 {
        fill: #fee7c7;
      }

      .cls-23 {
        fill: #383837;
      }

      .cls-24 {
        fill: #631212;
      }

      .cls-25 {
        fill: #a3957e;
      }

      .cls-26 {
        fill: #feecda;
      }

      .cls-27 {
        fill: #966a5a;
      }

      .cls-28 {
        fill: #272626;
      }

      .cls-29 {
        fill: #870701;
      }

      .cls-30 {
        fill: #121212;
      }

      .cls-31 {
        fill: #501c1e;
      }

      .cls-32 {
        fill: #7e5147;
      }

      .cls-33 {
        fill: #585144;
      }

      .cls-34 {
        fill: #7e0b06;
      }

      .cls-35 {
        fill: #9e6959;
      }

      .cls-36 {
        fill: #aa7159;
      }

      .cls-37 {
        fill: #514c42;
      }

      .cls-38 {
        fill: #151413;
      }

      .cls-39 {
        fill: #740705;
      }

      .cls-40 {
        fill: #690203;
      }

      .cls-41 {
        fill: #fcd5b9;
      }

      .cls-42 {
        fill: #c79b81;
      }

      .cls-43 {
        fill: #a77664;
      }

      .cls-44 {
        fill: #de8a7a;
      }

      .cls-45 {
        fill: #e8a996;
      }

      .cls-46 {
        fill: #1f1f1e;
      }

      .cls-47 {
        fill: #9f705d;
      }

      .cls-48 {
        fill: #f1b49a;
      }

      .cls-49 {
        fill: #710f10;
      }

      .cls-50 {
        fill: #f8d0b4;
      }

      .cls-51 {
        fill: #ad7053;
      }

      .cls-52 {
        fill: #f9f2d6;
      }

      .cls-53 {
        fill: #df9c84;
      }

      .cls-54 {
        fill: #6f4038;
      }

      .cls-55 {
        fill: #770102;
      }

      .cls-56 {
        fill: #faf2dc;
      }

      .cls-57 {
        fill: #fdc6a8;
      }

      .cls-58 {
        fill: #f3c0a7;
      }

      .cls-59 {
        fill: #7c5447;
      }

      .cls-60 {
        fill: #f2dad8;
      }

      .cls-61 {
        fill: #900606;
      }

      .cls-62 {
        fill: #fbd7ba;
      }

      .cls-63 {
        fill: #bc9286;
      }

      .cls-64 {
        fill: #9a594b;
      }

      .cls-65 {
        fill: #c40505;
      }

      .cls-66 {
        fill: #d60c0e;
      }

      .cls-67 {
        fill: #f9c1a4;
      }

      .cls-68 {
        fill: #171515;
      }

      .cls-69 {
        fill: #d49178;
      }

      .cls-70 {
        fill: #980100;
      }

      .cls-71 {
        fill: #f9d1b5;
      }

      .cls-72 {
        fill: #97131b;
      }

      .cls-73 {
        fill: #7a7260;
      }

      .cls-74 {
        fill: #202020;
      }

      .cls-75 {
        fill: #ec9b82;
      }

      .cls-76 {
        fill: #a66954;
      }

      .cls-77 {
        fill: #f9cbac;
      }

      .cls-78 {
        fill: #f1ecd7;
      }

      .cls-79 {
        fill: #f5b091;
      }

      .cls-80 {
        fill: #af050a;
      }

      .cls-81 {
        fill: #c81615;
      }

      .cls-82 {
        fill: #cf876c;
      }

      .cls-83 {
        fill: #c68672;
      }

      .cls-84 {
        fill: #960606;
      }

      .cls-85 {
        fill: #a60508;
      }

      .cls-86 {
        fill: #2c0e13;
      }

      .cls-87 {
        fill: #8e0a09;
      }

      .cls-88 {
        fill: #d51613;
      }

      .cls-89 {
        fill: #6e0e0e;
      }

      .cls-90 {
        fill: #f2ac96;
      }

      .cls-91 {
        fill: #c08d7b;
      }

      .cls-92 {
        fill: #b90b11;
      }

      .cls-93 {
        fill: #976e5e;
      }

      .cls-94 {
        fill: #e3b6a1;
      }

      .cls-95 {
        fill: #feefd2;
      }

      .cls-96 {
        fill: #8c826c;
      }

      .cls-97 {
        fill: #e10909;
      }

      .cls-98 {
        fill: #1d1d1d;
      }

      .cls-99 {
        fill: #68110f;
      }

      .cls-100 {
        fill: #bd0c09;
      }

      .cls-101 {
        fill: #191919;
      }

      .cls-102 {
        fill: #6d4239;
      }

      .cls-103 {
        fill: #d90909;
      }

      .cls-104 {
        fill: #855038;
      }

      .cls-105 {
        fill: #e3a794;
      }

      .cls-106 {
        fill: #791918;
      }

      .cls-107 {
        fill: #f5b899;
      }

      .cls-108 {
        fill: #f6c9ae;
      }

      .cls-109 {
        fill: #524c40;
      }

      .cls-110 {
        fill: #660d0b;
      }

      .cls-111 {
        fill: #6b0807;
      }

      .cls-112 {
        fill: #c6a092;
      }

      .cls-113 {
        fill: #9c8e76;
      }

      .cls-114 {
        fill: #6e6558;
      }

      .cls-115 {
        fill: #635d53;
      }

      .cls-116 {
        fill: #b07e68;
      }

      .cls-117 {
        fill: #fbc9ae;
      }

      .cls-118 {
        fill: #3a3938;
      }

      .cls-119 {
        fill: #f4d2bd;
      }

      .cls-120 {
        fill: #a60a0a;
      }

      .cls-121 {
        fill: #caa08e;
      }

      .cls-122 {
        fill: #926157;
      }

      .cls-123 {
        fill: #430f05;
      }

      .cls-124 {
        fill: #ae0102;
      }

      .cls-125 {
        fill: #a48a70;
      }

      .cls-126 {
        fill: #db9781;
      }

      .cls-127 {
        fill: #693e2f;
      }

      .cls-128 {
        fill: #938976;
      }

      .cls-129 {
        fill: #e20b07;
      }

      .cls-130 {
        fill: #040504;
      }

      .cls-131 {
        fill: #f2c8b1;
      }

      .cls-132 {
        fill: #ad9e81;
      }

      .cls-133 {
        fill: #a38c71;
      }

      .cls-134 {
        fill: #fedcc3;
      }

      .cls-135 {
        fill: #b71112;
      }

      .cls-136 {
        fill: #da0304;
      }

      .cls-137 {
        fill: #7f4330;
      }

      .cls-138 {
        fill: #d08d79;
      }

      .cls-139 {
        fill: #c98c76;
      }

      .cls-140 {
        fill: #f71615;
      }

      .cls-141 {
        fill: #f9bca3;
      }

      .cls-142 {
        fill: #242424;
      }

      .cls-143 {
        fill: #996a60;
      }

      .cls-144 {
        fill: #a50605;
      }

      .cls-145 {
        fill: #332823;
      }

      .cls-146 {
        fill: #554134;
      }

      .cls-147 {
        fill: #63231d;
      }

      .cls-148 {
        fill: #edaa95;
      }

      .cls-149 {
        fill: #f1beab;
      }

      .cls-150 {
        fill: #b37e70;
      }

      .cls-151 {
        fill: #592b21;
      }

      .cls-152 {
        fill: #ac8174;
      }
    </style>
  </defs>
  <path class="cls-23" d="M32.79,148.01c-1.11-1.73-1.85-4.65.1-6,0,2,.02,4-.1,6Z"/>
  <g>
    <path class="cls-30" d="M15.61,156.21c.66,1.31,1.18,2.89,1.56,4.72l2.68,1.98c1.04.77,1.61,2.26,1.44,3.45-.14.97-1.17,1.74-2.34,2.38-.68-.04-1.37,0-2.06,0-.49-.61-1.46-1.03-2.26-.97-1.18-.3-1.18-.6,0-.88.76-1.84-.53-3.03-3.87-3.57.43-6.36,2.04-8.73,4.85-7.1Z"/>
    <path class="cls-98" d="M14.63,166.88c-.35.28-.31.58,0,.88-2.93.24-5.02-1.06-5.69-3.78.26.05.6-.16.85-.07,1.27-1.56,2.06-2.2,1.99-.24,3.48.51,4.43,1.58,2.86,3.21Z"/>
    <path class="cls-1" d="M32.89,139.01c2.91.5,2.71,2.21,0,3-.95,1.92-.59,4.01-.1,6,.52.73.87,1.74,1.06,3.04,1.14-1.46,1.65-.92,1.18.91,2-1.53,3.28-.72,2.87,1.83.56.26,1.36.91,1.88,1.3,3.28,2.46,6.55.98,7.28,5.3.26,1.56-1.29,1.59-2.17,2.48-1.56.63-3.67,1.32-5,.07-2.95-.29-5.95-.63-9.16-1.34-2.41.77-4.68.85-6.82.4-.87-.66-.72-2.03-1.07-2.93.13-2.26-.27-3.98-1.19-5.15l2.18-.92c.51-.92,1.15-1.68,2.06-1,1.03-.39,1.5-.04,1.41,1.06,1.14.68,1.99,1.65,2.55,2.91,1.44-2.15,3.72-1.58,6.84,1.72.53-.13.55-.42.12-.84-3.77-.33-7.39-3.94-6.21-7.44l-1.03-.73,1.23-6.76c-2.32-.6-1.96-1.57,1.08-2.92-.32-.98.02-1.32,1-1,.82.33.82.66,0,1Z"/>
    <path class="cls-118" d="M17.17,155.13v5.8c-1.54-1.14-1.71-2.95-1.56-4.72-2.67-.28-2.57-1.35.28-3.2-.67-1.28-.58-2.33,1-2l.28,4.13Z"/>
    <path class="cls-40" d="M28.11,137.79c.95,1.61-.72,1.75-2.31,1.25-.11,2.67-1.05,2.63-2.02.16,0,2.82-2.33,2.07-3-.13l-1.75.2c-.82.6-1.34.56-1.55-.14-.1-.24-.1-.49-.03-.74,2.36-1.3,4.5-3,6.44-5.12-.92-1.4-.37-1.93,1.19-1.27,5.01-5.64,9.53,3.15,3.03,5.78Z"/>
    <path class="cls-14" d="M23.78,139.21c3.35.64,4.69,8.85.13,7.92-.57-1.7-.85-3.51-1.99-5.29-1.27,1.16-2.39,2.21-3.16,3.26-1.59-1.95,1.02-4.16,2.03-6.02l3,.13Z"/>
    <path class="cls-11" d="M15.97,132.08c2.01,1.2,1.12,3.37-.14,4.84-1.57-.07-2.12-1.61-2.9-2.81.54-1.41,1.28-2.75,1.96-4.1-1.07-5.34-.34-7.64,2.19-6.87,1.95,4.26,1.58,7.25-1.11,8.95Z"/>
    <path class="cls-6" d="M23.89,133.28c-.75,3.02-3.35,4.96-6.44,5.12-.98.3-1.17-1.07-1.62-1.48.18-.96.54-1.03,1.06-.21l2.3-.94c1.44-3.91,3.01-4.74,4.71-2.49Z"/>
    <g>
      <path class="cls-68" d="M15.83,136.92c.93.1,1.89.56,1.62,1.48.83.02.81.28.03.74-.29.66.22.71,1.55.14,0-.94,1.3-1.14,1.75-.2,1.81.83,1.46,1.99-1.07,3.46l-.96,2.55c3.16,1,1.42,5.43-1.66,3.99-1.01.33-1.73-.07-2.2-1.08-.5,2.32-.56,4.71-.17,7.19-1.29.95-2.9.89-4.83-.19-.68-.47-1.36-.47-2.04,0,3.22-.11,4.47,7.21,1.93,8.91-.15.85-.43.86-.85.07-3.63-4.41-.67-3.29-6.37-10.14-5.82-1.15-.58-9.71,4.16-7.76l1.96-3.52c-.08-2.64.73-4.2,2.41-4.67-1.23-3.46-.63-4.71,1.82-3.78.83-.2,1.8.74,2.9,2.81Z"/>
      <g>
        <path class="cls-46" d="M15.89,153.01l-.28,3.2c-3.9.79-.23,4.42-3.85,6.58,3.35.62,5.92.72,7.94,2.87-1.52,1.71-3.45,1.18-5.07,1.23-.68-1.98-3.06-2.24-4.85-2.97l-1.93-8.91c-.05-2.04,1.23-1.74,2.04,0,.35-.49,1.17-1.77,1.81-1.44,5.47,2.82-.09-4.24,3.19-5.56,1.07.88,1.41,2.55,1,5Z"/>
        <path class="cls-98" d="M9.89,155.01h-2.04c0-.73-.15-1.55-.55-2.03-.71-.87-1.92-.71-3.56-1.32,1.5-.93,2.68-1.97,3.7-.75,1.13,1.35,2.56,2.36,2.45,4.1Z"/>
        <path class="cls-130" d="M17.09,149.08c-.18.58.05,1.39-.2,1.92-.39.61-.93,1.2-1,2-1.6-1.1-.95-3.3-1-5,.46-.18,1.13-.96,1.55-.85.51.14.7,1.66.66,1.92Z"/>
        <path class="cls-14" d="M19.03,139.28c-1.77,1.22-1.92,3.2-2.54,5.85-1.2-1.97-1.05-4.95.99-5.99l1.55.14Z"/>
        <path class="cls-74" d="M10.23,148.46c.35-.74.99.39,1.26.62.67.57.5,1.85-.15,1.96-1.35.23-2.05-.6-1.11-2.58Z"/>
      </g>
    </g>
    <path class="cls-110" d="M44.02,95.07c-2.72,7.04-.08,7.62.08,13.98.03,1.2-1.02,1.96-1.39,2.96-2.55-1.68-4.41-5.13-.95-7.08-2.08-.4-2.19-1.8-.32-4.19l-.55-3.74c-.74-.26-.72-.59,0-1-1.39-1.84-.84-2.4,1-1,.59-1.51,1.41-1.41,2.13.06Z"/>
    <path class="cls-87" d="M42.71,112.01c-.59,1.58-.61,3.35-.82,5h-1.02c-1.47-.09-.7-2.04.13-3.04-.74-.9-1.54-1.91-2.39-3.02-2.04-.99-2.87-2.69-1.15-4.48-.5-2.63.4-2.79,1.88-.59.24-2.32.34-2.29,2.42-.95.29,2.36-.59,5.2.95,7.08Z"/>
    <path class="cls-38" d="M25.8,139.05c2.34-.37,4.37-.38,6.09-.04-.7.83-.68,1.98-1.08,2.92-.57,3.94-1.2,8.15-3.51,11.14-.44-.4-.9-.77-1.41-1.06-1.69.36.4-4.22.37-3.99-.16,1.27-1.15,4.17-2.37,3.99l.02-4.88c2.15-2.04-.32-5.2-.13-7.92l2.02-.16Z"/>
    <path class="cls-24" d="M37.65,120.33c-2.37,2.05-2.79,4.65-2.34,7.84.49,3.54-1.39,6.89-2.42,9.84-.38.28-.7.64-1,1-2.07.53-4.4,1.82-6.09.04.86-.22,1.66-.64,2.31-1.25,3.31-2.78,4.54-7.4,3.68-13.89.11-2,.83-3.02,2.16-3.04-.09-3.1,2.87-3.54,3.7-.54Z"/>
    <path class="cls-101" d="M30.61,149.42l.37,2.06c2.17,3.14,1.79,4.64-1.13,4.5-.81,1-.44,2.04-1.31,3.67-.92-2.3-.7-4.69-1.24-6.58.8-3.8,2.01-7.58,3.51-11.14.12,2.34.26,5.24-.2,7.49Z"/>
    <path class="cls-28" d="M30.61,149.42c.84,3.23,4.02,4.95,6.21,7.44.51.29.45.57-.12.84l-6.84-1.72c.5-.61,1.07-2.47.5-3.07-.77-.82-1.68-.56-1.55-1.46.19-1.27,1.18-1.64,1.8-2.02Z"/>
    <path class="cls-142" d="M36.69,157.7l.12-.84c2.33,1.73,6.58.52,8.49,3.77-3.71,1.07-6.08-2.29-8.61-2.93Z"/>
    <path class="cls-7" d="M25.89,152.01c-.32.84-1.25,1.02-2.06,1,.05-.32.06-.67.06-1l2.27-4.55c1.17,1.85-.78,3.06-.27,4.55Z"/>
    <path class="cls-6" d="M33.96,120.86c-1.55,3.97,2.04,18.24-5.84,16.93.91-1.54,1.98-3.18,1.24-5.39-1.47-.47-2.93-.36-4.27-.39-1.34-.22-1.37-1.25-.08-3.09,1.48-1.17,3.11-2.48,4.88-3.92-.94-1.12-.63-3.55,1.01-3.27-.56-1.04-.17-1.59,1-1.44,1.51-2.18,1.86-2.08,2.06.56Z"/>
    <path class="cls-61" d="M25.01,128.92c.08,1.03.12,2.06.08,3.09l-1.19,1.27c-4-.29-2.55,4.59-7,3.43.5-2.12.19-3.66-.92-4.63,1.63-2.65.55-6.01,1.11-8.95l.96-.88c.85-.31,1.32.39,1.4,2.09,1.02,3.27,2.87,4.8,5.56,4.58Z"/>
    <path class="cls-17" d="M16.89,136.71c-.32-.08-.73.21-1.06.21-1.33-1.68-.84-3.24.14-4.84,1.14-.16,2.02-.7,3.57-1.44.49,2.42-.39,5.05-2.65,6.06Z"/>
    <path class="cls-10" d="M41.89,81.01c3.06-.18,3.73,1.48,2,5,2.03.17,2.07,1.61,0,2,0,2.07,0,4.13.19,6.19.02.25.03.63-.06.87-.68.39-1.59.65-2.13-.06-2.68-1.25-2.76-2.77-.22-4.3,1.3-1.68.79-3.82.22-5.7-1.39,1.38-2.06-.82-1-2-1.31-1.93-1.92-4.47.97-2.96.68.18.65.51.03.96Z"/>
    <path class="cls-18" d="M36.89,113.01c.3-2.43.87-2.82,1.71-1.16,1.63-.59,1.76.14.29,1.16.31,1.66.65,2,1,1,.29-.88.66-.88,1.11-.04.04.86-.1,2.14-.13,3.03-.2,1.88-2.05,2.31-3.22,3.33-1.26-.04-2.51.09-3.7.54-.7-.13-1.39-.32-2.06-.56-.77-1.11-.94-3.37.76-3.07-1.95-2.15-.05-5.91,2.21-7.36.28-.88.65-.88,1.09-.03.08,3.33.39,4.39.93,3.17Z"/>
    <path class="cls-147" d="M41.67,90.71c.16,1.43.24,2.86.22,4.3-.67-.13-1.11.34-1,1-.37.84-.71.83-1.01-.04-2.93,2.42-6.91,3.38-10.71,1.98-.02,1.57-1.89,1.18-2.49-.08-3.27-.36-3.21-2.37.02-2.56.8-.96,3.12-1.21,4.18-.3q3.33.59,0,0c-.85-.46-.82-.84.1-1.13.1-2.56,4.08-4.45,5.78-3.13,2.97-1.12,4.6-1.13,4.9-.04Z"/>
    <path class="cls-144" d="M39.69,97.23c.47.51.86.42,1.2-.22,2.08,2.14.54,5.25.87,7.92-.81.34-1.56,1.71-2.42.95-3.64.5-3.44-2.6-1.39-4.87-2.28.31-2.21-1.65-.06-2.16-1.68-1.64-.01-2.42,1.8-1.62Z"/>
    <path class="cls-135" d="M40.89,97.01c-.24,1.66.6,3.45-.53,5.07-.99-1.89-.36-3.45-.67-4.85-.82-.55-.75-.97.19-1.26.32-.06.68.07,1.01.04.06.33-.03.67,0,1Z"/>
    <path class="cls-84" d="M25.81,98.73c1.3-.34,3.01-.14,3.41,1.21,1.39-.05,2.97.62,4.73,2,.88-.28,1.8-.51,2.75-.69-.41-1.64.37-1.75,1.25-.24.05,1.71.65,3.34,1.39,4.87l-1.88.59c.99,2.15-.6,3.14-2.59,3.4-.15.5-.35.95-.68,1.24-1.61,1.4-7.99-7.07-9-9.01l-.93.53c-.36-1.32-.84-1.5-1.46-.56-1.87.49-2.86-3.43-1.68-4.98,1.22-1.86,5.46-1.07,4.7,1.64Z"/>
    <path class="cls-55" d="M38.61,110.96c.88.17.85.47-.01.89-.57.26-1.4.57-1.71,1.16-.51-.45-.82-1.51-.93-3.17l-1.09.03c-.26-1.64,1.2-2.96,2.59-3.4.84,1.34,1.49,2.89,1.15,4.48Z"/>
    <path class="cls-5" d="M41,113.97l-1.11.04c-.9.98-1.23.65-1-1l-.29-1.16c-.07-.28.04-.6.01-.89.73-.4,2.11-.94,2.22-.28.19,1.17.14,2.64.17,3.3Z"/>
    <path class="cls-85" d="M24.9,116.93c1.59,1.64.64,3.72-2.84,6.23l2.26,1.8c1.8-.75,3.28-.72,4.42.07-.21-1.93.55-1.94,1.14-.02.18,2.73-2.63,3.24-4.88,3.92l-3.5,3.6c-4.74-9.46-1.91-3.94-3.46-10.27.58-2.82,3.05-4.49,5.72-5.26.32-.9.7-.92,1.14-.07Z"/>
    <path class="cls-89" d="M22.79,102.07c1.13-.41,1.78.6,1.95,3.03,4.4.4,4.5,8.87,1.15,10.9,1.36,1.36.7,1.94-.99.92-.36.08-.78-.03-1.14.07.98-3.37-.19-6.15-.92-8.96-.97-3.76-2.81-7.13-2.96-11.03-.09-1.73.62-1.6,1.22.08-.35,1.98.24,3.67,1.68,4.98Z"/>
    <path class="cls-66" d="M32.66,117.23c-.46.87-.21,2.18-.76,3.07-.31.5-.57,1.03-1,1.44-.93.97-1.65,2.06-2.15,3.29-1.59,1.36-3.85,2.71-5.77,1.47-1.32-.85-4.15-2.91-2.57-4.62,1.66-1.81,4.1-2.89,4.5-4.94.18-.29.69-.76.99-.92.05-2,.86-1.98,1.35-.01.98.28,1.49-.11,1.57-1.15,2.34-2.45,4.9-.83,3.84,2.39Z"/>
    <path class="cls-21" d="M30.9,121.74c-.29,1.03-1.09,2.15-1.01,3.27l-1.14.02v-3.78c1.26-.28,1.72.12,2.15.49Z"/>
    <path class="cls-112" d="M46.26,79.64l.63,2.48c.11.87-.25,1.15-1.07.83-.21,2.78-.86,3.8-1.94,3.06-.19-1.82-1.17-3.4-2-5,.15-2.35.87-3.37,2.16-3.08.77.45,2,.86,2.21,1.71Z"/>
    <path class="cls-4" d="M47.75,87.07c.14,1.07-.2,2.05-1.35,1.93-.95-.1-1.76-.65-2.52-1v-2l1.94-3.06c.64,1.3,1.28,2.68,1.92,4.12Z"/>
    <path class="cls-19" d="M47.75,87.07c-2.15-.1-2.1-2.4-1.92-4.12.24-.38.67-.62,1.07-.83.41,1.61,1.13,3.22.85,4.95Z"/>
    <path class="cls-120" d="M41.89,85.01c.6,1.81,1.14,4.26-.22,5.7-3.83,0-6.99,2.27-10.68,3.16-1.65.28-1.98-2.72-.04-2.87-.63-.69-.98-1.69-1.06-3-.87-.28-.86-.62,0-1,1.91-.48,3.58-1.15,5-2,.28-.87.62-.86,1,0,1.27.02.51,1.94.04,3.04l2.28.18c-.15-1.66.38-2.71,1.58-3.13-.41-.75-.81-1.55-.18-2.18.24-1.92.99-1.85,1.28.1-.04.85.36,1.49,1,2Z"/>
    <path class="cls-111" d="M38.75,70.29c1.65.09,2.44,1.4,2.37,3.94-1.68.78-1.34,1.72-.21,2.86,2.14.24,2.4,1.4.94,2.95-1.28.28-.92,1.96-.97,2.96l-1.28-.1c-2.25-.82-2.76-2.1-1.51-3.84-2.05.36-2.77-1.02-2.15-4.14-2.4-1.39-2.09-4.98,1.08-4.94-.29-2.18,1.76-1.81,1.72.31Z"/>
    <path class="cls-111" d="M41.67,90.71l.22-5.7c1.34,1.08,2.21,5.7-.22,5.7Z"/>
    <path class="cls-88" d="M39.89,114.01c.03,1.66-1.26,3.87-3.17,3.66l2.17-4.66c.64-.14.99.44,1,1Z"/>
    <path class="cls-87" d="M36.89,113.01c-.24.46.12,1.08.01,1.49-.18.72-1,.6-1.37-.59-.47-1.51.66-2.9.43-4.07,1.2.58,1,2.02.93,3.17Z"/>
    <path class="cls-84" d="M39.88,95.97c.03.41-.28.86-.19,1.26-.94.01-1.66.7-1.8,1.62-.37.98-1.41,1.64-3.14,1.98-1.26,1.92-3.92-.59-5.32-1.91-.92-.05-.99-.38-.25-.97l10.71-1.98Z"/>
    <path class="cls-123" d="M24.89,95.01c.28-.85,1.6-.61,1.82.3-.5.79-.47,1.75-.02,2.56.6,1.08.29,1.06-.88.86-1.39-.95-3.03-1.53-4.7-1.64-1.14-.69-1.4-1.41-.22-2.08.26-.79.6-.77,1,0-.3-1.66.7-1.66,3,0Z"/>
    <path class="cls-84" d="M28.89,94.01c.49-1.89,1.39-1.94,2.1-.13,0,.37-.15.75-.1,1.13-1.31-.31-2.88.52-4.18.3l-1.82-.3c-.88-.22-.86-.56,0-1,.22-1.83,3.33-2.08,4,0Z"/>
    <path class="cls-102" d="M30.89,95.01c1.24.03,2.52-.24,3.85-1.07.62,1.8-.17,2.03-1.38,2.17-.9.1-1.68-.7-2.47-1.1Z"/>
    <path class="cls-72" d="M29.18,97.95l.25.97c.79.47.71.81-.21,1.02-1.28.02-2.38-.51-3.41-1.21-.43-.86.3-.79.88-.86.8-.09,1.71.23,2.49.08Z"/>
    <path class="cls-29" d="M37.89,98.85l.06,2.16c-.4-.04-.87.34-1.25.24-.66,1.33-1.86,1.3-1.95-.42-.49-.83.3-1.39.86-1.63.77-.32,1.5-.34,2.28-.35Z"/>
    <path class="cls-80" d="M34.75,100.83c.55.29,1.35.26,1.95.42.33,1.38-1.51,2.43-3.07,2.05-1.87-.45-3.16-2.2-4.41-3.36l.21-1.02c1.99-.2,3.63,1.02,5.32,1.91Z"/>
    <path class="cls-92" d="M25.18,102.1l-.45,3c-1.25-.48-1.11-2.27-1.95-3.03.1-.35.02-.82.12-1.51.08-.59.55-.69,1.02-.09.28.35.83,1.29,1.26,1.64Z"/>
    <path class="cls-31" d="M20.89,93.01c1.44-.08,2.26,1.07,1,2-.3,0-.73.13-1,0-.52,1.62-1.48.29-2-1,.1-.3-.16-.68-.14-1,.04-.75.04-1.78.91-2,.6-.18,1.01.48,1.23,2Z"/>
    <path class="cls-86" d="M20.89,95.01c-.06.67.33,1.42.22,2.08l-1.22-.08c-.38-.81-1.38-1.87-1-3l2,1Z"/>
    <path class="cls-140" d="M28.82,114.84c.48,1.17,2.06,2.35,1.85,4.22-.23,2.02-2.88,2.73-4.81,1.66,1.57-1.68,2.76-2.71,1.39-4.73.05-.49.08-1.01.46-1.45s.75.23,1.11.3Z"/>
    <path class="cls-76" d="M45.87,46.15c.35-.86.73-.83,1.13.04l.07,2.02-3.17,1.19c-1.07,2.56-1.74,2.43-2.02-.4-2.14.17-2.27.04-1.73-2.02-.7-.28-.7-.64-.06-1.09-2.28-2.16-1.01-3.11,1.05-.89,2.18-1.44,3.24-.62,4.72,1.13Z"/>
    <path class="cls-35" d="M40.95,58.83c-.05,1.78-.01,3.66,1.04,5.16l.1,1.95c.92,1.53.28,2.05-1.2,1.07-.28.87-.62.86-1,0-2.09-1.39-1.83-7.96,0-9,.48,0,1.07.25,1.06.82Z"/>
    <path class="cls-145" d="M42.81,74.05c-.53.45-1.78.15-2.19.58-.82.86-.04,1.83.3,2.47-2.26-1.47-2.06-4.33-2.17-6.8.2-.87.6-.89,1.18-.15-.24-2.06.08-3.1.96-3.13.05-.51.82-.88,1.2-1.07,2.69,1.77,3.23,5.95.72,8.11Z"/>
    <path class="cls-100" d="M19.89,68.01c1.16-1.34,2.52.48,2.05,2.05,3.32.35,6.17,4.81,4.96,7.95,1.98.2,3.34,2.43,1.87,4,2.63,2.17,2.67,3.5.11,4.01.99.19,1.33.52,1,1v1c1.52,1.21.52,2.9-1.23,2l-1.46-.03c-1.04-2.17-1.5-5.2-1.4-9.07l-2.26.12c-1.72-2.97-3.54-5.63-5.48-7.98-2.03,1.81-2.31,1.43-1.47-1.12-2.02-1.95.83-7.75,3.3-3.91Z"/>
    <path class="cls-129" d="M39.79,85.09c-.07,1.23,1.02,3.17-.3,4.45-.99.95-2.24.65-3.01.34-.55-.22-.55-1.1-.56-1.84,1.21-8.27,2.5-9.25,3.86-2.96Z"/>
    <path class="cls-81" d="M39.61,82.91c-.09.7.23,1.47.18,2.18-1.14-.65-.67-2.1-1.46-3.17-1.4,2.42-.71,4.9-2.41,6.12l-.04-3.04c-2.09-.17-1.97-1.56,0-2.2-2.85-.25-2.58-2.52.19-3.04-.87-2,.78-2.79,2.03-.7,1.06,1.08,1.74,2.06,1.51,3.84Z"/>
    <path class="cls-124" d="M30.95,91.01c-.34,1.17-1.02,2.17-2.06,3h-4c-1.09-.48-1.48-1.15-.79-2.15.38-2.26,2.76-3.94,4.56-1.85.82-.36,1.41-1.03,1.23-2,.45.05,1.46-.05,1.71.53.36.84-.66,1.71-.65,2.47Z"/>
    <path class="cls-34" d="M34.89,85.01c.42,1.46-.52,2.07-1.54,2.05l-3.46-.05c-.65,0-.92-.4-1-1,.05-1.62,1.39-1.95,4-1,.53-1.24,1.76-1.54,2,0Z"/>
    <path class="cls-100" d="M30.95,91.01l.04,2.87c-.65.16-1.44.13-2.1.13-.07-1.03-.35-2.08-1.22-2.76,1.61-.49,2.42-.17,3.27-.24Z"/>
    <path class="cls-64" d="M35.88,82.8v2.2s-.99,0-.99,0h-2c-.87-.28-.86-.62,0-1-1.47-.89-1.14-1.24,1-1.04.4-1.98,1.27-2.06,1.99-.16Z"/>
    <path class="cls-151" d="M33.89,66.01c2.13-1.62,3.13-1.62,3,0,2.9,1.1,3.91,2.48,3.04,4.13-.37.13-.8.13-1.18.15-.4-.81-1.25-.16-1.72-.31-.89,2.84-2.94,2.13-3.14-.78-2.03,1.4-3.36,1.3-3.99-.31-2.58.34-2.77.09-1.24-1.98-.95-.12-.89-.45.04-.94-.88-1.98-.29-2.54,1.19-.9.87-2.62,4.07-1.86,4,.95Z"/>
    <path class="cls-9" d="M33.89,69.2c.43,2.38,1.11,4.29,2.06,5.72,1.62.7,1.17,3.13,2.15,4.14l-2.03.7c-.19.95-.5.9-.93-.04-2.23-1.51-3.98-3.95-4.25-6.71-2.99.21-3.21-2.8-.99-4.12,1.47-.65,2.74-.56,3.99.31Z"/>
    <path class="cls-20" d="M37.03,69.98c-.42,1.63-.95,3.25-1.08,4.94-.13.51.29,1.16-.46,2.15-1.93-1.79-2.55-4.24-3.36-6.77.89-.48,1.3-.77,1.76-1.1.79.49,2.24.49,3.14.78Z"/>
    <g>
      <path class="cls-21" d="M34.87,109.87c.43,2.75-.95,4.99-2.21,7.36-1.1-1.1-2.28-2.11-3.84-2.39-.08,1.14-.6,1.53-1.57,1.15-.39.13-1.01-.18-1.35.01.43-3.73.4-7.44-1.15-10.9-.62-1.3-1.23-2.97.45-3,5.03.25,6.91,7.86,9.69,7.77Z"/>
      <path class="cls-97" d="M28.13,111.88c.23-1.82-.85-3.6-1.26-6.27.77-1.24,3.04.49,3.52,1.46.93,1.9.62,3.55-2.26,4.81Z"/>
    </g>
    <path class="cls-39" d="M24.89,94.01c.13.28-.08.7,0,1h-3c-.4-.61-.55-1.42-1-2-.83-1.42-.83-2.42,0-3l1.01-.41,2.99,4.41Z"/>
    <path class="cls-49" d="M15.82,79.22c2.86-.79,4.34,3.23,2.07,4.82,1.11,2.43.24,2.73-1.61.83-1.22-1.69-2.16-3.88-2.37-6-.14-1.44-.33-3.46-.03-4.87.28-.87.62-.86,1,0,.99,1.33,1.3,3.07.93,5.21Z"/>
    <path class="cls-99" d="M18.9,84.24c.95.58,1.26,1.2.92,1.87,1,1.16,2.37,2.83,1.07,3.91v3c-.47-.61-1.12-1.17-1.23-2-.31-2.41-1.99-4.22-3.38-6.13l1.61-.83c.45-.8.78-.72,1,.19Z"/>
    <path class="cls-53" d="M52.78,23.15c-.82,1.76-2.11,1.77-3.89,1.86-1.2-.33-2.17-.27-2.93.18-.27.42-.69.72-1.15.88-2.19-.25-1.75-3.14.54-3.17-3.23-1.56-3.43-3.16-.62-4.8-.84-.37-.79-.69.1-.96.55-1.64,1.24-2.36,2.06-2.13.69.43,1.42.73,2.2.89,1.4-2,2.62-2.64,3.67-1.92l.51.54c-.06,4.13-.22,7-.5,8.63Z"/>
    <path class="cls-48" d="M41.98,22.76c1.87,1.08,2.23,3.15,1.08,6.22-.14.64.01,1.35-.16,1.98-1.32,1.43-1.99.87-1.83-1.02l-4.43-2.72,1.07-3.14c-2.91-.07-3.76-2.85-.82-4,1.26-3.18,5.43.73,5.1,2.69Z"/>
    <path class="cls-13" d="M45.34,22.9l-.54,3.17c-.33,1.1-.91,2.11-1.75,2.91-.81-1.98-1.15-4.09-1.08-6.22-2.71-2.9,2.32-4.03,3.36.14Z"/>
    <path class="cls-150" d="M44.89,33.01v1c-.94.78-1.72.95-2.35.52-1.71,3.42-3.18,1.07-1.65-1.52-.78-1.53.34-2.67,2.01-2.06.86.53,1.28,1.45,1.99,2.06Z"/>
    <path class="cls-127" d="M48.89,25.01c-.83.04-1.89,1.05-2.93.18,0-.6-.54-1.74.38-2.2,1.18-.58,2.23,1.26,2.55,2.02Z"/>
    <path class="cls-63" d="M46.03,34c.49.42.55,1.35.86,2.01.14,1.15-.2,1.82-1,2-1.36,1.13-1.86.58-1-1-1.3-2.17-1.3-3.17,0-3v-1l1.14.99Z"/>
    <path class="cls-152" d="M47,46.19l-1.13-.04c-2.38-.3-2.59-1.72-.64-4.25-.54-2.33-.32-3.63.65-3.9,0-.79.08-1.8,1-2,1.45,3.12,1.73,7.11.11,10.18Z"/>
    <path class="cls-90" d="M44.89,37.01c.15.48.49.89,1,1v8.14c-1.51,1.55-3.2-.28-4.73-1.13-.86-.32-.83-.66.04-1-.11-1.06.51-1.98,1.85-2.75-.92-1.3-1.35-2.68-1.29-4.14-3.54-1.71,2.8-5.2,3.13-.12Z"/>
    <path class="cls-58" d="M40.11,45.91c.2.34.26.72.06,1.09,1.66,2.02-.08,3.32-2.16,2.19.29,1.92-.48,1.97-1.16.07-2.68,1.22-4.08-.7-3.19-3.28-1.9-.35-1.79-1.11.18-1.28.61-1.37,1.53-2.68,2.85-1.65,1.79-1.14,3.82.99,3.42,2.87Z"/>
    <path class="cls-69" d="M39.89,42.01c2.38-.44,2.43-.06,1.31,2.01l-.04,1c-.61-.2-1.5.09-1.05.89-1.26-.83-1.99-2.27-3.42-2.87-.86-.33-.83-.68.05-1.03.61-1.01,2.82-1.48,3.15,0Z"/>
    <path class="cls-82" d="M37.89,58.01c1.35,1.49,1.64,7.77-1,8h-3c-.94-1.5-.18-3.5.98-4.74-1.24-1.92-.91-3.07.98-3.47l1.1-.05c.32-.01.63.25.94.25Z"/>
    <path class="cls-45" d="M39.89,58.01c-.98,2.98-.28,5.94,0,9-.7.51-1.7.18-3-1,1.4-2.42,1.01-5.29,1-8h2Z"/>
    <path class="cls-146" d="M39.89,67.01h1c-.11,1.09.33,2.69-.96,3.13.25-2.02-2.28-2.33-3.04-4.13,1.05,0,2.07.49,3,1Z"/>
    <path class="cls-136" d="M25.79,80.91c2.24,8.5-.89,9.68-6.9,3.33l-1-.19c-.91-1.5-1.29-3.29-2.07-4.82-.66-4.02.09-6.08,2.24-6.18,1.41.03,3.16.2,4.07,1.73l3.66,6.14Z"/>
    <path class="cls-60" d="M28.66,66.91c.73.43.76,1.39,1.24,1.98.97,1.19.27,2.99.99,4.12.75,1.53.68,2.45-.22,2.75-.54,2.28-.83,2.39-2.81,1.21,1.38,1.35.85,1.89-.96,1.04-1.88-2.49-3.62-5.13-4.96-7.95-.99-1.59-.91-1.83.82-1.04-.82-3.46,3.85-5.1,5.89-2.1Z"/>
    <path class="cls-65" d="M28.66,90.01c-1.57.68-2.73,2.42-4.56,1.85-1.75-1.34-3.17-3.25-4.28-5.75-.68-.35-.92-1.16-.92-1.87,1.75.34,3.06,1.7,5.11,2.85,2.18-1.67,1.93-4.07,1.79-6.18,1.75,2.93,1.46,6.08,2.86,9.1Z"/>
    <path class="cls-106" d="M19.89,67.01c.87.28.86.62,0,1-1.03-.13-2.13,0-2.77.79-.74.91-.24,2.2-.53,3.12.92.93-.43,2.5-1.7,2.09h-1c.65-3.04,2.5-5.83,2.17-9.02.22,0,.47-.18.67-.14,1.61-2.01,2.63.07,3.16,2.16Z"/>
    <path class="cls-77" d="M33.89,82.97c-.24.43-.58.79-1,1.04-2.08,1.97-3.64.78-4.11-2.01-.4-1.37-1.01-2.86-1.87-4l.96-1.04c2.46-1,5.29,3.67,6.03,6Z"/>
    <path class="cls-103" d="M18.06,73.04c-2.25,1.28-.63,4.4-2.24,6.18-.85-1.65-1.32-3.25-.93-5.21.18-.93,1.24-1.45,1.7-2.09l1.47,1.12Z"/>
    <path class="cls-44" d="M32.89,84.01v1c-1.21.73-2.6,1.01-4,1-.17-1.28.26-2.75-.11-4.01.96,1.35,2.42,2.28,4.11,2.01Z"/>
    <path class="cls-83" d="M22.77,69.02c-.37.24-.57.7-.82,1.04-.39-.83-1.57-1.28-2.05-2.05v-1c-.87-1.27-.87-1.94,0-2,2.81-2.09,6.15,2.11,2.88,4.01Z"/>
    <path class="cls-16" d="M30.67,75.76c1.46.97,2.95,2.29,4.47,3.96.27.03.67.13.93.04l-.19,3.04c-.67.02-1.33.07-1.99.16-3.81-.04-2.23-3.87-6.03-6,.55-1.04,1.69-1.4,2.81-1.21Z"/>
    <path class="cls-70" d="M24.1,91.85c.27.71.45,1.46.79,2.15-2.2,0-2.57-2.51-4-4-.84-.88-.38-2.89-1.07-3.91,2.19,1.13,3.42,3.5,4.28,5.75Z"/>
    <path class="cls-117" d="M24.02,56.01c.47-.25.93-.45,1.4-.44.56,0,3.67,9.21,3.29,10.39-.08.31-.1.63-.04.94-2.17-.06-4.11.94-5.89,2.1.09-1.86-1.61-2.88-2.88-4.01-2.52-.08-2.62-2.75-.89-4.15-.99-4.54-.39-7.15,1.79-7.84,1.71-.82,2.94,1.21,3.22,2.99Z"/>
    <path class="cls-107" d="M35.85,57.8c-.16,2.97,1.06,6.64-1.96,8.21l-4-.95c-1.7-.11-2.53-2.82-1-3.9.31-.88.67-.86,1.09,0,2.2-.34,2.85-1.03,1.97-2.08-.47-3.62,1.42-3.38,3.9-1.3Z"/>
    <path class="cls-139" d="M26.7,54.25c1.94-.44,1.73.97.17,1.89,2.63.79,3.29,2.66,2.01,5.03-.14,1.38.21,2.75,1,3.9-.65-.15-1.03.28-1.19.9-2.01-3.13-2.03-7.24-4.68-9.95-1.92-2.19-1.89-3.19.87-1.92.47-1.73,1.36-1.64,1.81.16Z"/>
    <path class="cls-77" d="M35.14,79.72c-2.12-.22-3.45-2.21-4.47-3.96-.23-.78.29-1.92.22-2.75l4.25,6.71Z"/>
    <path class="cls-54" d="M23.92,31.11c.79.21.78,1.17-.03,2.9,1.46-1.06,2.34-1.2,2,.71-.78,3.05-3.79,2.63-4.99.1.4-1.85.71-3.89,2.4-4.95,1.44-2.11,2.18-.91.61,1.23Z"/>
    <path class="cls-143" d="M27.64,25.91c1.93.21,1.9.99,0,1.55.8,2.2-1.42,4.73-3.72,3.66.06-.33.23-1.61-.61-1.23l1.45-3.7c.79-.07,1.88-.15,2.37-.89.78-.43.94-.21.52.62Z"/>
    <path class="cls-148" d="M18.89,43.01c1.6,1.25,2,3.38,1.2,6.41l.8,1.59c.33-.85.66-.85,1,0,.91.32.9.66,0,1,1.03,1.43.46,1.87-1.1,1.01-.35,1.19-1.21,1.59-1.35,2.37-.24,1.43.96,3.16,2.48,4.01-.73,1.16-1.99.9-2.93,1.47-.39.83-.7.77-.95-.13l-.05-.81c-1.58.03-1.58-2.51-.09-2.94l-.86-1.65c.99-2.63.9-5.09-.26-7.37.28-2.38-.66-5.08,1.1-6.95.46,2.29.79,2.95,1,2Z"/>
    <path class="cls-122" d="M17.91,56.98c-.78,1.51-1.45.85-2.02-1.97,1.03-1.89,1.19-3.95.75-6.09-.06-.29.12-.66.15-.96,3.74,2.75.98,4.41,1.12,9.02Z"/>
    <path class="cls-93" d="M19,60.86c-.12,1.45.08,2.92.89,4.15v2c-.73-1.11-1.85-1.89-3.16-2.16-.25-1.52.2-3.04,1.31-4.12l.95.13Z"/>
    <path class="cls-32" d="M17.91,56.98l.09,2.94c-1.33.52-2.4-.22-2.13-1.44.23-1.03-.49-2.55.02-3.47l2.02,1.97Z"/>
    <path class="cls-43" d="M54.53,17.09c.62,2.25-.87,4.16-1.75,6.06-3.93-1.04.85-.82-.01-9.17.22-.93.58-.99,1.07-.17,1.24.54,1.58,2.25.69,3.28Z"/>
    <path class="cls-137" d="M55.9,13.95c-.34.89.28,2.14-.01,3.07l-1.36.08c-.29-1.06-1.14-2.02-.69-3.28.51-2.63,1.45-2.45,2.06.14Z"/>
    <path class="cls-71" d="M40.96,15.14c.24-.89.54-.83.89.09l2.87,2.87c-.17,1.6.21,3.23.62,4.8-.59-.28-1.08-1.21-1.93-1.52-.51-.19-1.1.92-1.43,1.38l-5.1-2.69c-2.29-.25-2.31-1.16-.04-2.73.28-.87.71-1.35,1.27-1.43.2-2.95,1.26-3.31,2.85-.77Z"/>
    <path class="cls-108" d="M52.79,11.98c2.53-2.79,3.88.57,1.04,1.83-.35-.02-.71.16-1.07.17-1.41.47-1.96,3.32-3.67,1.92-1.86-2.11-1.59-4.48,1.99-3.97.64-1.68,1.35-1.75,1.71.05Z"/>
    <path class="cls-125" d="M49.1,11.43c.63-1.55,2.43-1.19,1.98.5-.91,1.2-2.19,2.35-1.99,3.97-.4.23-.93.49-1.16.74-.47.51-.96.32-1.03-.17-.08-.62,0-1.09,0-1.46-.82-.36-.82-1.02,0-2-1.22-.36-2.05-1.24-.99-2.1-.13-2.19.93-2.02,3.2.52Z"/>
    <path class="cls-95" d="M44.83,17.15l-.1.96c-1.08.15-2.03.58-3.46,1.9-.49-1.52.06-3.27.58-4.78.08-.9.39-.92.91-.12,1.01-1.14,1.7-.46,2.07,2.03Z"/>
    <path class="cls-134" d="M46.89,15.01c-.86.53-.87,2.09-2.06,2.13-1.33-1.57-1.45-4.41,1.06-4.13.29-.76.62-.75,1,0,.38.38,1.08.41.62.99-.29.37-.34.84-.62,1.01Z"/>
    <path class="cls-138" d="M36.88,20.07c-.2,1.4.78,2.69.82,4l-.81,1.79c-1.14.73-2.51,1.09-4.13,1.08-1.04,2.45-3.68,2.94-5.13.52v-1.55c.7-.79,1.05-1.74,1.05-2.83.19-1.78,3.7-2.81,4.28-3.87-1.08-2.74.74-2.95,2.81-1.84.08-1.35.71-1.37,1.05-.03,0,.9.17,1.84.04,2.73Z"/>
    <path class="cls-51" d="M41.07,29.93c-.2.9-.57.93-1.08.13-1.99,1.57-4.29-.04-5.1-2.05-.81-1.67.36-2.2,2.01-2.16.09-.32-.1-.78.01-1.25.07-.32.31-.59.8-.54.08,2.47,1.72,4.06,3.36,5.87Z"/>
    <path class="cls-27" d="M42.9,30.95c-.27.98-1.07,1.73-2.01,2.06-.29.17-.61-.2-.94-1.1-2.66-.21-2.5-1.13.05-1.85l1.08-.13c.42.46,1.3.69,1.83,1.02Z"/>
    <path class="cls-126" d="M40.89,33.01c-.04.53-.02,2.05.52,1.84.97-.65,1.29-1.27,1.97-1.43.51-.12,1.07.23,1.52.59v3c-.74-.55-1.24-2.8-2.52-2.01-.91.56-.32,1.58-.61,2.13,1.25,1.64,1.39,2.63-.87,2.88-.28.87-.62.86-1,0-2.51.36-2.55-.31-1.1-2.29-1.5-1.7-.25-4.85,1.15-5.81.67-.44.98.61.94,1.1Z"/>
    <path class="cls-57" d="M41.2,44.02c-.76-.4-1.32-1.13-1.31-2.01-.25-.88.25-1.46,1-2-.14-1.02.42-2.02.87-2.88,1.56,1.66,4.17,2.86,2.39,5.73-.47.76-1.85,1.02-2.96,1.16Z"/>
    <path class="cls-62" d="M36.84,49.25c-1.34.71-1.49,2.54-1.93,3.9-.6,1.1-.25,2.37,1.04,3.81,0,.28-.09.57-.11.85-1.56.07-2.79.31-3.9,1.3.68,1.57-.44,2.18-1.97,2.08-.33-.09-.75.06-1.09,0-1.33-1.35-1.84-3.15-2.01-5.03,1-1.53,2.64-3.6,4.13-5.04.12-3.11,1.01-4.82,2.66-5.13,1.25.89,2.22,2.09,3.19,3.28Z"/>
    <path class="cls-42" d="M33.85,43.86c.91.15.88.43-.02.83l-.18,1.28c-.83,1.85-1.4,3.46-2.66,5.13-.38.67-.75.63-1.11-.09-.72-1.19.02-4.2,1.07-5.12-2.58-.91-2.55-1.22.09-2.03-.2-2.86,2.13-2.73,2.81,0Z"/>
    <path class="cls-26" d="M36.89,41.01c.82.42.76.75-.15,1l-.05,1.03c-.66.97-1.7,1.53-2.85,1.65.04-.27.04-.56.02-.83-2.29-1.81-2.01-2.71.89-2.73.81-.96,1.61-1.44,2.15-.12Z"/>
    <path class="cls-50" d="M39.89,40.01h1c.36.35.88.72.52,1.07-.59.57-1.07.81-1.52.93h-3.15l.15-1c-.02-1.99,2.01-2.95,3-1Z"/>
    <path class="cls-67" d="M34.92,53.15c.77,1.12,1.01,2.47,1.04,3.81-1.7-.61-2.62-2.27-4.16-3.65,1.56-.54,2.26-.08,3.12-.15Z"/>
    <g>
      <path class="cls-91" d="M42.7,55.07c-.65,1.2-.72,2.75-1.76,3.76-.64.91-.99.64-1.06-.82-.77,2.61-1.1,2.6-2,0-.48.78-.8.68-.94-.25-1.22-2.71,2.45-6.02,5.03-4.77.55.24.79.94.73,2.08Z"/>
      <path class="cls-47" d="M43.9,49.41c1,2.01-.24,3.88-1.2,5.66-.73.42-.85-.17-.85-.52,0-.58.07-1.22.12-1.56-2.55-.8-2.25-1.76.07-2.99-.91-.14-.95-.47-.16-.98.62-.01,1.43.62,2.02.4Z"/>
      <path class="cls-75" d="M41.89,49.01l.16.98c-.69,4.06-6.47,3.02-4.04-.81,1.05-.33,1.76-1.19,2.16-2.19,1.03.14,1.57,1.04,1.73,2.02Z"/>
      <path class="cls-79" d="M38,49.19c.37,2.15,2.46,1.22,4.04.81.16.98.07,2-.07,2.99-1.42,1.86-3.35,3.17-5.03,4.77-.28.89-.65.89-1.1.05-.89-.18-.81-.47.11-.85-1.53-1.48-1.87-2.74-1.04-3.81-2.95-1.51-.95-5.69,1.93-3.9l1.16-.07Z"/>
      <path class="cls-67" d="M39.15,54.52c-1.91,2.01-2.93,1.31-1.75-.82,1.46-1.23,3.08-.69,1.75.82Z"/>
    </g>
    <path class="cls-105" d="M22.85,52c2.52.35,3.2,1.04,2.04,2.09-1.05-.16-.85,1.23-.87,1.92-1-1.02-2.39-1.76-3.22-2.99.13-.44.68-.86,1.1-1.01.14-.96.47-.92.96,0Z"/>
    <path class="cls-22" d="M31.95,59.1c.39.66,1.16,1,1.96,2.07-1.36,1.34-2.7.36-3.94,0-.1-1.39,1.27-1.45,1.97-2.08Z"/>
    <path class="cls-149" d="M30.96,45.89c.14,1.8-.23,3.53-1.07,5.12-.06,1.98-1.22,4.22-3.19,3.24-.61.09-1.23.03-1.81-.16l-2.04-2.09c1.15-1.36,2.52-2.6,4.13-3.72.14-3.65,2.29-6.43,3.98-2.39Z"/>
    <path class="cls-116" d="M26.87,56.14l-.17-1.89c1.44-.68,2.46-1.85,3.19-3.24l1.11.09c-1.28,1.69-1.28,5.06-4.13,5.04Z"/>
    <path class="cls-15" d="M25.89,34.72c.08-1.85,1.68-1.57,2.05.16,3.47-.72,5.86,1.75,5.91,5.2,1.18-1.28,1.48-.94.89,1.04-.24.91-.99,1.7-.89,2.73h-2.81c-2.07,1.26-5.51-.44-5.36-3.01-2.4,1.16-4.29-.47-3.38-3.01-2.6.75-3.32.08-2.17-2.03.34-.19.47-.74.77-.99,1.53.47,3.42-.23,4.99-.1Z"/>
    <path class="cls-12" d="M22.3,37.85c-.03,4.05-.5,8.44-1.41,13.16-4.49-1.21,1.05-3.82-2-8-.44-.86-.68-2.2-.7-4,.17-1.34.74-2.51,1.94-3.19.66.74,1.38,1.42,2.17,2.03Z"/>
    <path class="cls-2" d="M18.89,43.01c-.23,1.13.59,2.5-.53,4.05-1.04-1.96-.22-4.05-.47-6.05.23-.48.23-1.43.3-2,1.64.56,0,3.03.7,4Z"/>
    <path class="cls-59" d="M27.64,25.91l-.52-.62c.43-.66,1.48-1.41,1.57-2.22.7.14,1.21.64,1.55,1.02.8.88.32,1.56-.18,1.74-.93.32-1.85.25-2.42.08Z"/>
    <path class="cls-141" d="M32.76,26.93c1.16-1.06,2.47-.52,2.13,1.08,1.93-.08,3.54,1,5.1,2.05l-.05,1.85c-.05,1.99-.02,4.09-1.15,5.81-.18.88-.48.87-.9.02-2.1.95-2.13.9-2-1.44l-1.42-1.73c.85-2.59-1.41-3.2-6.78-1.85-.88.86-2.14,1.29-3.79,1.29-2.08.11-.34-.67.03-2.9,1.33-1.22,1.79-3.35,3.72-3.66,1.7-.26,3.41-.48,5.13-.52Z"/>
    <path class="cls-119" d="M27.68,32.72c1.04-.24,1.46.16,1.29,1.21,1.16,1.46.57,1.97-1.03.96l-2.05-.16c-.48-.62-1.26-.75-2-.71.79-1.27,2.5-2.48,3.79-1.29Z"/>
    <path class="cls-56" d="M31.05,43.86l-.09,2.03-2.1-.85c.76,2.27.31,3.8-.62,4.88-1.54,1.8-3.41,2.38-5.39,2.08-.27-.04-.7-.08-.96,0,.11-.27-.03-.76,0-1-1.41-6.63-.15-10.01,3.8-10.16,2.06.41,4.02,1.37,5.36,3.01Z"/>
    <path class="cls-52" d="M22.3,37.85c1.32.76,2.51,1.75,3.38,3.01-.12,2.02-2.91,2.72-3.08,4.13l-.72,6.03c-.32-.05-.69.08-1,0,1.28-5.2-3.49-14.24,1.41-13.16Z"/>
    <path class="cls-114" d="M57.04,4.7c.7.92,1.53,1.96,1.8,2.89.48,1.61-.57,2.54-1.94,2.77-1.7,2.01-3.12.74-2.85-1.52-.79,1.72-1.44,1.38-1.03-.5-1.14-1.35-.63-2.74.84-3.49-1.33-1.33-.75-1.86.86-.79.48.55,1.6.33,2.31.64Z"/>
    <path class="cls-121" d="M56.91,10.37c.05,1.31-.57,2.42-1.01,3.58l-2.06-.14c.14-.39.04-.94.13-1.43.12-.64-.77-.39-1.18-.4-1.39-1.23.02-2.3,1.27-3.14,1,.41,1.92.98,2.85,1.52Z"/>
    <path class="cls-3" d="M45.9,10.91c.47.56.47,1.59.99,2.1h-1l-3.13,2.1-.91.12c-.29.04-.6-.14-.89-.09-2.12-.64-1.73-3.02.07-4.06-1.1-2.3.66-4.56,3.16-4.48.29-1,.52-1,.82.04,2.51,1.21,2.29,2.13.89,4.27Z"/>
    <path class="cls-113" d="M41.02,11.08c.35,1.34.24,2.72-.07,4.06-.97.16-1.93.41-2.85.77-.52-2.08-.92-4.38-1.22-6.89-.8-.9-.41-2.21.94-1.74.15-.8.46-.78.91-.04,2.84-1.04,4.23,1.45,2.28,3.84Z"/>
    <path class="cls-8" d="M38.11,15.91c.21.88-.47,1.39-1.27,1.43-.81-1.87-.76-5.98.05-8.32,1.99,1.58.67,4.62,1.22,6.89Z"/>
    <path class="cls-133" d="M54.06,8.84c-.16,1.14-.54,2.24-1.27,3.14l-1.71-.05c-.45-.95-1.26-.49-1.98-.5-3.51-1.61-4.06-2.85-1.64-3.72,2.14.69,4,.9,5.57.62.28-.08.75.39,1.03.5Z"/>
    <path class="cls-132" d="M50.95,7.28c1.67-1.54,2.37-1.13,2.08,1.06-.67.59-1.02,1.77-1.7,1.62l-4.11-.9c-.58,1.43,2.22.76,1.88,2.37-1.05-.02-2.12-.63-3.2-.52-.99-1.17-1.21-2.79-.89-4.27-.23-2.72,5.47-1.3,5.94.64Z"/>
    <path class="cls-94" d="M45.89,13.01c-.79,1.23-.91,2.7-1.06,4.13-1.19.04-1.26-1.5-2.07-2.03-.03-.81,0-2.38.79-3.11.5-.45,1.59.71,2.34,1.01Z"/>
    <path class="cls-33" d="M37.83,7.28l-.94,1.74-.05,8.32c-.45.25-.74.86-1.05.03.15-.78.1-1.57.1-2.35-.88-2.57-.88-5.43,0-8l-.14-2.48c.29-.83.6-.8.94.05.63.17,1.01,1.07,1.14,2.69Z"/>
    <path class="cls-104" d="M36.9,25.86c-.29,1-1.1,1.71-2.01,2.16-.83.03-1.68-.39-2.13-1.08.11-.93.67-1.74,1.35-1.68,1.17.1,1.96.41,2.78.6Z"/>
    <path class="cls-36" d="M39.89,40.01c-1.09,0-2.03.59-3,1-.6.25-1.5.06-2.15.12-.77-2.25.86-4.76,3.15-3.39l.9-.02c.59.64.97,1.43,1.1,2.29Z"/>
    <path class="cls-115" d="M35.89,15.01c-1.73-1.95-1.73-6.05,0-8v8Z"/>
    <path class="cls-78" d="M34.62,36.39c1.78,1.13.77,2.89-.77,3.7l-5.91-5.2c.27-.39.62-.71,1.03-.96,1.27-3.98,9.45-1.2,5.65,2.46Z"/>
    <path class="cls-131" d="M35.89,36.3c.84.19,1.76.56,2,1.44-1.24,1.07-2.71,1.78-3.15,3.39-.53.04-.63-.81-.89-1.04.16-1.24-.09-2.71.77-3.7-.2-1.94.62-2,1.27-.09Z"/>
    <path class="cls-41" d="M35.89,36.3c-.4-.09-.86.14-1.27.09.19-2.6-3.59-2.84-5.65-2.46-.4-.43-.85-.81-1.29-1.21-2.57.29,4.68-3.58,7-2.48,1.01.48,1.35,1.83,3.32,3.12-.71,1.23-1.85,1.67-2.11,2.94Z"/>
    <path class="cls-109" d="M52.9,1.97l1.84,2.09c-.27.2-.51.72-.86.79-.3,2.41-2.15,2.5-2.9.25-.3.91-.61.82-.92-.15-3.18-1.48-3.9-2.79-2.16-3.94l1-.14c1.31.24,3.17.13,4.01,1.09Z"/>
    <path class="cls-128" d="M53.87,4.85c.69,1.35.23,2.56-.84,3.49-.87.26-1.47-1.04-2.08-1.06-2.43-.82-2.5-1.41.02-2.17.96-.03,1.95-.07,2.9-.25Z"/>
    <path class="cls-25" d="M44.76,4.1c2.4,1.23,2.21,2.06-.58,2.5-.83,1.67-1.45,3.57-3.16,4.48-.46-1.46-1.61-2.51-2.28-3.84.65-1.37,1.37-2.81,2.17-4.33.06-.92.36-.96.9-.16,2.54-.38,3.53.07,2.96,1.35Z"/>
    <path class="cls-96" d="M50.05,4.96c.24.12.66.16.92.15l-.02,2.17c-2.09-.06-4.31-2.01-5.94-.64-.15-.61-.58-.53-.82-.04.26-.82.45-1.65.58-2.5,1.15-2.69,3.63-1.34,5.29.85Z"/>
    <path class="cls-96" d="M38.74,7.24c-.34.1-.58.15-.91.04-1.44-2.12,1.11-5.82,3.08-4.37.39.65.93,1.23,1.58,1.55-1,1.73-2.31,2.36-3.74,2.78Z"/>
    <path class="cls-37" d="M48.89.88c-.25-.04-.78.03-1,.14-.29,2.02-2.32,2.6-6.08,1.74-.27.08-.62.05-.9.16-1.89.73-3.22,2.28-3.08,4.37-.82-.28-1.56-1.85-1.14-2.69.63-1.26,2.01-2.08,2.37-3.5,3.27-.31,7.01-2.15,9.84-.21Z"/>
    <path class="cls-73" d="M50.05,4.96c-1.63-.83-3.47-.97-5.29-.85-.92-.59-1.93-1.01-2.96-1.35l6.08-1.74,2.16,3.94Z"/>
  </g>
</svg>