<?xml version="1.0" encoding="UTF-8"?>
<svg id="Enemy" xmlns="http://www.w3.org/2000/svg" viewBox="0 0 128.62 92.54">
  <defs>
    <style>
      .cls-1 {
        fill: #422f27;
      }

      .cls-2 {
        fill: #675b46;
      }

      .cls-3 {
        fill: #111;
      }

      .cls-4 {
        fill: #453f33;
      }

      .cls-5 {
        fill: #313132;
      }

      .cls-6 {
        fill: #38332d;
      }

      .cls-7 {
        fill: #8d867e;
      }

      .cls-8 {
        fill: #695e50;
      }

      .cls-9 {
        fill: #9d896e;
      }

      .cls-10 {
        fill: #9e876b;
      }

      .cls-11 {
        fill: #463a29;
      }

      .cls-12 {
        fill: #73563f;
      }

      .cls-13 {
        fill: #634e3b;
      }

      .cls-14 {
        fill: #382e23;
      }

      .cls-15 {
        fill: #ddb89f;
      }

      .cls-16 {
        fill: #493f35;
      }

      .cls-17 {
        fill: #525253;
      }

      .cls-18 {
        fill: #76624c;
      }

      .cls-19 {
        fill: #575650;
      }

      .cls-20 {
        fill: #d3b49c;
      }

      .cls-21 {
        fill: #826f5d;
      }

      .cls-22 {
        fill: #b28b72;
      }

      .cls-23 {
        fill: #615348;
      }

      .cls-24 {
        fill: #141413;
      }

      .cls-25 {
        fill: #2d281e;
      }

      .cls-26 {
        fill: #917862;
      }

      .cls-27 {
        fill: #2f2519;
      }

      .cls-28 {
        fill: #4d4944;
      }

      .cls-29 {
        fill: #907e66;
      }

      .cls-30 {
        fill: #a49279;
      }

      .cls-31 {
        fill: #362614;
      }

      .cls-32 {
        fill: #745d50;
      }

      .cls-33 {
        fill: #f1ccb4;
      }

      .cls-34 {
        fill: #93785f;
      }

      .cls-35 {
        fill: #786558;
      }

      .cls-36 {
        fill: #907b63;
      }

      .cls-37 {
        fill: #705f4c;
      }

      .cls-38 {
        fill: #af9276;
      }

      .cls-39 {
        fill: #8d7b62;
      }

      .cls-40 {
        fill: #ad8d7b;
      }

      .cls-41 {
        fill: #927d68;
      }

      .cls-42 {
        fill: #c9ae8b;
      }

      .cls-43 {
        fill: #8e7a67;
      }

      .cls-44 {
        fill: #746f66;
      }

      .cls-45 {
        fill: #9f896c;
      }

      .cls-46 {
        fill: #615a4b;
      }

      .cls-47 {
        fill: #544c3e;
      }

      .cls-48 {
        fill: #c8af94;
      }

      .cls-49 {
        fill: #131313;
      }

      .cls-50 {
        fill: #9a8164;
      }

      .cls-51 {
        fill: #81756b;
      }

      .cls-52 {
        fill: #4b3a28;
      }

      .cls-53 {
        fill: #8f8982;
      }

      .cls-54 {
        fill: #543d33;
      }

      .cls-55 {
        fill: #1f1e1a;
      }

      .cls-56 {
        fill: #1b1913;
      }

      .cls-57 {
        fill: #46473a;
      }

      .cls-58 {
        fill: #54483b;
      }

      .cls-59 {
        fill: #59493b;
      }

      .cls-60 {
        fill: #543b26;
      }

      .cls-61 {
        fill: #d9bda3;
      }

      .cls-62 {
        fill: #aa896e;
      }

      .cls-63 {
        fill: #736352;
      }

      .cls-64 {
        fill: #4e4234;
      }

      .cls-65 {
        fill: #352c23;
      }

      .cls-66 {
        fill: #1b1718;
      }

      .cls-67 {
        fill: #8e8174;
      }

      .cls-68 {
        fill: #ae9980;
      }

      .cls-69 {
        fill: #ab937b;
      }

      .cls-70 {
        fill: #6a5e50;
      }

      .cls-71 {
        fill: #565551;
      }

      .cls-72 {
        fill: #b49278;
      }

      .cls-73 {
        fill: #7d6952;
      }

      .cls-74 {
        fill: #9b7d64;
      }

      .cls-75 {
        fill: #8a8174;
      }

      .cls-76 {
        fill: #41362c;
      }

      .cls-77 {
        fill: #4a3f31;
      }

      .cls-78 {
        fill: #2a2b28;
      }

      .cls-79 {
        fill: #8a7b62;
      }

      .cls-80 {
        fill: #31281f;
      }

      .cls-81 {
        fill: #412515;
      }

      .cls-82 {
        fill: #8b7257;
      }

      .cls-83 {
        fill: #503021;
      }

      .cls-84 {
        fill: #2c2b27;
      }

      .cls-85 {
        fill: #2c291b;
      }

      .cls-86 {
        fill: #655748;
      }

      .cls-87 {
        fill: #604e3f;
      }

      .cls-88 {
        fill: #ab9b80;
      }

      .cls-89 {
        fill: #0c0a05;
      }

      .cls-90 {
        fill: #624f42;
      }

      .cls-91 {
        fill: #c1ad94;
      }

      .cls-92 {
        fill: #796959;
      }

      .cls-93 {
        fill: #292a2c;
      }

      .cls-94 {
        fill: #292725;
      }

      .cls-95 {
        fill: #c4ad9a;
      }

      .cls-96 {
        fill: #3f3c35;
      }

      .cls-97 {
        fill: #373737;
      }

      .cls-98 {
        fill: #987b65;
      }

      .cls-99 {
        fill: #242521;
      }

      .cls-100 {
        fill: #74624f;
      }

      .cls-101 {
        fill: #6e5c47;
      }

      .cls-102 {
        fill: #a7896d;
      }

      .cls-103 {
        fill: #574e3f;
      }

      .cls-104 {
        fill: #e1c7a4;
      }

      .cls-105 {
        fill: #0a0a0f;
      }

      .cls-106 {
        fill: #3d3429;
      }

      .cls-107 {
        fill: #473e36;
      }

      .cls-108 {
        fill: #47433d;
      }

      .cls-109 {
        fill: #3c2312;
      }

      .cls-110 {
        fill: #957a62;
      }

      .cls-111 {
        fill: #72604e;
      }

      .cls-112 {
        fill: #907f6e;
      }

      .cls-113 {
        fill: #52412f;
      }

      .cls-114 {
        fill: #5a534b;
      }

      .cls-115 {
        fill: #323028;
      }

      .cls-116 {
        fill: #6c5a4c;
      }

      .cls-117 {
        fill: #9e9b94;
      }

      .cls-118 {
        fill: #6c604e;
      }

      .cls-119 {
        fill: #7f694a;
      }

      .cls-120 {
        fill: #5e5a51;
      }

      .cls-121 {
        fill: #847162;
      }

      .cls-122 {
        fill: #463e30;
      }

      .cls-123 {
        fill: #3a3324;
      }

      .cls-124 {
        fill: #534432;
      }

      .cls-125 {
        fill: #47423a;
      }

      .cls-126 {
        fill: #c8c4be;
      }

      .cls-127 {
        fill: #bab9b1;
      }

      .cls-128 {
        fill: #504d45;
      }

      .cls-129 {
        fill: #322c23;
      }

      .cls-130 {
        fill: #67442e;
      }

      .cls-131 {
        fill: #715b4e;
      }

      .cls-132 {
        fill: #766957;
      }

      .cls-133 {
        fill: #9e8870;
      }

      .cls-134 {
        fill: #260700;
      }

      .cls-135 {
        fill: #281d11;
      }

      .cls-136 {
        fill: #6c5a4d;
      }

      .cls-137 {
        fill: #4b321f;
      }

      .cls-138 {
        fill: #9e8b75;
      }

      .cls-139 {
        fill: #9e806e;
      }

      .cls-140 {
        fill: #bb9f84;
      }

      .cls-141 {
        fill: #736350;
      }

      .cls-142 {
        fill: #967d5d;
      }

      .cls-143 {
        fill: #544b3f;
      }

      .cls-144 {
        fill: #caac8d;
      }

      .cls-145 {
        fill: #6f5443;
      }

      .cls-146 {
        fill: #efd7b7;
      }

      .cls-147 {
        fill: #322c1c;
      }

      .cls-148 {
        fill: #655b53;
      }

      .cls-149 {
        fill: #6e6459;
      }

      .cls-150 {
        fill: #a39378;
      }

      .cls-151 {
        fill: #6c5f4e;
      }

      .cls-152 {
        fill: #d1ac93;
      }

      .cls-153 {
        fill: #090301;
      }

      .cls-154 {
        fill: #19130d;
      }

      .cls-155 {
        fill: #837a67;
      }

      .cls-156 {
        fill: #524d42;
      }

      .cls-157 {
        fill: #c0a584;
      }

      .cls-158 {
        fill: #372821;
      }

      .cls-159 {
        fill: #a9916e;
      }

      .cls-160 {
        fill: #b2a486;
      }

      .cls-161 {
        fill: #fbe2c5;
      }

      .cls-162 {
        fill: #8a8577;
      }

      .cls-163 {
        fill: #b59c7f;
      }

      .cls-164 {
        fill: #1a0c01;
      }

      .cls-165 {
        fill: #15120e;
      }

      .cls-166 {
        fill: #74533a;
      }

      .cls-167 {
        fill: #d4b7a1;
      }

      .cls-168 {
        fill: #363630;
      }

      .cls-169 {
        fill: #5b4a3a;
      }

      .cls-170 {
        fill: #2b1808;
      }

      .cls-171 {
        fill: #57483a;
      }

      .cls-172 {
        fill: #f5caae;
      }

      .cls-173 {
        fill: #7d6759;
      }

      .cls-174 {
        fill: #b79d83;
      }

      .cls-175 {
        fill: #947d66;
      }

      .cls-176 {
        fill: #9a907f;
      }

      .cls-177 {
        fill: #b0987f;
      }

      .cls-178 {
        fill: #b4a38e;
      }

      .cls-179 {
        fill: #242118;
      }

      .cls-180 {
        fill: #1d1e1c;
      }

      .cls-181 {
        fill: #242424;
      }

      .cls-182 {
        fill: #1b1c19;
      }

      .cls-183 {
        fill: #574c3c;
      }

      .cls-184 {
        fill: #191613;
      }

      .cls-185 {
        fill: #39352d;
      }

      .cls-186 {
        fill: #b59882;
      }

      .cls-187 {
        fill: #342e27;
      }

      .cls-188 {
        fill: #a3876a;
      }

      .cls-189 {
        fill: #89775a;
      }

      .cls-190 {
        fill: #544231;
      }

      .cls-191 {
        fill: #6c6761;
      }

      .cls-192 {
        fill: #4b433a;
      }

      .cls-193 {
        fill: #291e14;
      }

      .cls-194 {
        fill: #ae977b;
      }

      .cls-195 {
        fill: #b9a48f;
      }

      .cls-196 {
        fill: #3d3629;
      }

      .cls-197 {
        fill: #4a3c32;
      }

      .cls-198 {
        fill: #342a20;
      }

      .cls-199 {
        fill: #423626;
      }

      .cls-200 {
        fill: #381705;
      }

      .cls-201 {
        fill: #a68d70;
      }

      .cls-202 {
        fill: #5f564d;
      }

      .cls-203 {
        fill: #ad947a;
      }

      .cls-204 {
        fill: #694c35;
      }

      .cls-205 {
        fill: #baa08a;
      }

      .cls-206 {
        fill: #ac9d95;
      }
    </style>
  </defs>
  <g id="SoldierCrime">
    <g>
      <path class="cls-153" d="M.34,51.6c.42-.62.64-1.23.82-1.95,1.69.78,1.69,3.85.3,4.98-.53-.89-2.17-1.49-1.12-3.02Z"/>
      <path class="cls-106" d="M18.88,66.75l.91-.02c1.66.7,3.41,3.25,2.16,4.97l-2.09.23c-.95-.77-1.47-1.87-2-2.93-.67-1.24-.47-2.32,1.02-2.26Z"/>
      <path class="cls-154" d="M18.88,66.75c-.02.86-.18,1.84-1.02,2.26-.29-.35-.88-.87-1.28-1.12.05-.88-.23-1.66-.91-2.66,1.92-.74,2.47.66,3.21,1.52Z"/>
    </g>
    <g>
      <path class="cls-49" d="M25.29,22.73c-2.28.18-1.44-2.69-.16-4.14,2.14-2.3,3.78-3.6,5.03-.05,1.58,2.56,2.25,5.59,2.02,9.08.88.07.88.38.09.9,1.94,2.48.5,6.97-1.76,2.53l-.89.76c2.11,2.38,1.21,2.58-1.78,2.79-2.93-2.29-.89-5.22-2.55-11.86Z"/>
      <path class="cls-5" d="M27.84,34.59c.79-.79,1.34-1.77,1.78-2.79,2.03-.77,3.49,1.12,4.28,3.41.01-1.85,3.4-2.24,3.76-.11,1.77,1.04,1.27,1.81-.79,1.23-.1,1.16-.99,2-2.21,2.03,1.47,1.24.99,1.83-.8,1.02-.97.43-1.33.12-1.07-.91-.9-.1-1.62-1.41-2.14-3.93l-.93,2.03-1.09.89c-.28-.96-.67-1.89-.8-2.88Z"/>
      <path class="cls-181" d="M28.01,9.5c.53,2.12-.88,2.99-2.35,1.15.15-.21.1-.68.14-.95.39-2.85-1.36-5.65-1.14-9,.08-1.22,1.39-.62,1.48,0,.12.77,1.01,1.26,1,2.09,0,2.47-.06,4.69.87,6.7Z"/>
      <path class="cls-49" d="M25.65,10.65l2.35-1.15c.18.39.69.62.91.98-.06.77-.45,1.61-.38,2.38-.01,2.76-.3,5.65-3.5,3.87-.46-2.07-.81-4.34.62-6.08Z"/>
      <path class="cls-44" d="M27.01,40.44c.63-.22,1.24-.51,1.83-.83.86.59.77,2.01.31,2.99.81.42.79.77-.07,1.07.13,1.91-.62,1.94-1.39.13-1.66,2.21-2.06,1.73-1.72-.86.34-.83.64-1.69,1.04-2.49Z"/>
      <path class="cls-179" d="M28.84,39.61c-.09-.68,0-1.48-.19-2.14.34-.33.7-.63,1.09-.89,1.09.47.68,2.76.14,4,.92.07.88.42.03,1,1.78,1.03,1.33,1.67-.76,1.03-.19-.99-.18-2-.31-2.99Z"/>
      <path class="cls-179" d="M21.3,50.88c-.89-.27-.89-.63-.04-1.07,1.94-2,3.66-4.28,4.71-6.88l1.72.86c.44.95,1.13,1.83,2.08,2.63,2.82-.06,2.74,1.24.2,2.27-.89,2.35-3.48,3.57-5.91,3.19-.03,2.94-2.63,2.5-2.63-.11-.9-.07-.92-.38-.13-.9Z"/>
      <path class="cls-152" d="M13.25,46.86c.21-1.66,2.79-1.32,4.06-.62l1.92.45c.25.46.71.84.91,1.33.33,1.38-.56,1.8-1.94,1.97,1.35.72,1.03,1.4-.97,2.04,2.65.36,2.52,1.29-.03,2.03-.5,2.52-4.13,1.16-4-1.02-2.99.44-1.56-5.24.05-6.18Z"/>
      <path class="cls-118" d="M20.13,48.02c.26.67.52,1.35,1.13,1.79l.04,1.07c-1.06.85-2.85.66-3.11-.89.23-.24-.07-1,.18-1.39.36-.57,1.09-.71,1.76-.58Z"/>
      <path class="cls-181" d="M25.04,16.73c1.74-.77,1.99-2.88,3.5-3.87.2,1.91,1.64,3.73,1.62,5.67-.42-.13-1.28-1.17-1.6-.85-.39.39-.41,2.26-.88,2.87-.74-.66-1.2-2.15-2.56-1.96.03-.57.04-1.3-.09-1.85Z"/>
      <path class="cls-24" d="M32.26,28.51c-.12-1.75.64-1.87,1.18-.07,1.68.85,1.64,3.79.17,5,2.65-.28,2.66.63.28,1.77-1.62-.87-2.81-2.33-4.28-3.41l-1.72-9.82c3.01,3.32,2.84,7.28,4.15,10.56,1.13-1.51.15-2.91.22-4.02Z"/>
      <path class="cls-78" d="M30.16,18.53c.75.92,1.49,2.17,2.91,1.98,2.61-1.24,3.3.99,1.04,2.59-.03.91-.35.94-.93.18.47,2.3.14,3.75-.99,4.33-1.66-2.64-2.05-5.97-2.02-9.08Z"/>
      <path class="cls-97" d="M33.26,17.37c2.63-.82,5.23-.72,6.68,1.96,1.15,1.62-.08,2.78-3.71,3.49.46,2.78-1.08,2.77-2.12.28l-1.04-2.59c-.38-.95.26-2.13.2-3.14Z"/>
      <path class="cls-184" d="M36.88,36.33c.36-.27.61-.83.79-1.23-1.77-1.08-1.24-2.01.89-1.99.24-1.98,1.16-1.98,1.85-.06,2.6-2.6,5.65.49,3.21,3.2,2.63,1.41.74,4.04-1.92,3.12-.73,2.81-1.69,3.2-3.63.95.09,1.97-.69,1.98-1.19.02-.88-.25-.88-.59-.03-1-1.41-.9-1.42-2.27.04-3Z"/>
      <path class="cls-7" d="M33.62,33.44c.39-1.81.68-2.87,2.1-1.2.8-1.3,3.69-1.18,2.83.86-.35.64-.6,1.32-.89,1.99l-3.76.11-.28-1.77Z"/>
      <path class="cls-94" d="M30.66,34.55c1.85.43,1.05,2.81,2.14,3.93.42,1.02.31,2.64-.89,3.03-.23,2.67-1.15,2.58-2,.07.03-.32-.02-.67-.03-1,.3-2.08.57-4.09.79-6.03Z"/>
      <path class="cls-179" d="M31.9,41.51c-.08-1.08-.31-2.54.89-3.03.33.34.63.71,1.07.91,2.11-.01,1.94,1.31.03,2.05,4.51,5.11-6.44,4.91-2,.07Z"/>
      <path class="cls-94" d="M33.87,39.38l.8-1.02c.92-1.65,1.97-.77,2.16.97l.03,1c.75,1.25.29,1.84-.96,1.03-.23,2.67-1.15,2.58-2,.07l-.03-2.05Z"/>
      <path class="cls-17" d="M29.73,36.58c-.03-.86-.33-2.11.93-2.03-.17,1.99,1.06,4.7-.79,6.03l-.14-4Z"/>
      <path class="cls-105" d="M36.88,36.33l-.04,3-2.16-.97c.07-2.21,1.87-1.78,2.21-2.03Z"/>
      <path class="cls-182" d="M29.91,41.58l2-.07c.05.58.14,1.05.22,1.41.12.6.71.93,1.34.53.46-.29.41-1.35.45-2.02l2-.07c1.32.22,1.3,1.76,1.1,2.96,1.01.14,1.04,1.14.1,3,2.37-.65,2.42,0,1.11,1.98.89.17.88.49.04.95.35.97.03,1.3-.95.99-.08.9-.32.84-.72-.06-1.89-.06-3.45-.27-5.38-.76-.42.55-.82.25-1.2-.91-.89-.12-.89-.4-.05-.83l-.2-2.27c-1.96-.41-2.23-1.48-.68-2.76-.12-.31.13-.74.07-1.07.41-.18.71-.58.76-1.03Z"/>
      <path class="cls-162" d="M27.69,43.8l1.39-.13c.35.89.6,1.81.68,2.76-1.2-.11-2.41-.04-3.78-.46.38-1.51.97-2.02,1.7-2.17Z"/>
      <path class="cls-3" d="M41.32,30.93c-.51-1.32-.78-3.42-.04-4.88-.89-.15-.88-.45-.04-.89-1.53-1.86-1.83-4.72.69-2.16.24.45,1.15.77,1.39,1.26,2.64-.05,4.35,1.83,4.92,4.34.03,1.27.84,1.87.34,3.28-.99,5.14-2.64,6.59-4.96,4.36-.62-1.53-1.51-2.86-3.21-3.2-2.05-1.41-1.53-2.57.92-2.11Z"/>
      <path class="cls-99" d="M39.93,19.33l1.99,3.69c-.91-.78-.62.18-.63.54l-.05,1.62c-1.24,2.33-2.91,1.54-5.01-2.35.85-1.51,2.52-2.27,3.71-3.49Z"/>
      <path class="cls-134" d="M3.82,45.23c-.11-.31.14-.84-.03-1.11,1.35-.84,2.74-1.45,4.3-1.64,1.56.85,2.62,2.14,3.15,3.89,1.54.48,1.15,3.06-.22,3.6-2.01,3.71-11.65-1.22-7.2-4.74Z"/>
      <path class="cls-206" d="M8.08,42.48c1.85-.23,3.08,1.22,4.64,1.8,1.23.88,1.36,1.57.38,2.07-.49,1.96-1.34,1.99-1.87.02-.81-.26-2.48-.18-3.29-1-.53-.54.47-1.99.14-2.88Z"/>
      <path class="cls-131" d="M12.73,44.28c1.67.62,4.1-.38,4.58,1.97-1.14.97-2.66.9-4.06.62-.83.35-.84.16-.14-.51l-1.05-1.61c-.16-.25-.08-.76.68-.46Z"/>
      <path class="cls-118" d="M29.96,48.7l.05.83c3.64,4.14-2.24,6.73-4.86,4.34-2.65.56-2.98-.03-1.1-1.98,1.21-2.19,3.45-3.22,5.91-3.19Z"/>
      <path class="cls-139" d="M17.22,52.03c.77-1.57,3-.97,4.2-.25.78.59,1.78.56,2.63.11.32.69.67,1.36,1.1,1.98,2.07,1.47,1.75,1.9-.48,2.91-.24.86-.62.95-1.15.24-1.12-1.54-2.14-1.76-4.19-2.16-1.1,2.58-2.21,2-2.15-.79l.03-2.03Z"/>
      <path class="cls-145" d="M18.19,49.99c.96.53,2.02.79,3.11.89l.13.9-4.2.25c.01-.79.48-1.52.97-2.04Z"/>
      <path class="cls-33" d="M13.2,53.04l4,1.02c.66.17,1.42.79,2.15.79,2.42.44,5.08,1.04,2.13,3.13,1.94,3.15-3.35,7.09-4.78,3.03-2.02-1.28-3.48-2.88-4.36-4.81-2.01.07-2.37-.85-.89-2.19-1.17-2.2.55-3.13,1.76-.96Z"/>
      <path class="cls-22" d="M11.02,49.97l.22-3.6c.58.19,1.27-.11,1.87-.02l.14.51c-.14,2.12-1.34,4.31-.05,6.18-.51-.13-1.68.35-1.76.96-3.77,2.64-5.26-4.8-.42-4.03Z"/>
      <path class="cls-168" d="M34.1,23.1l2.12-.28c1.06-.14,3.04-1.38,3.55.31.21.72-.29,1.83.09,2.09.52.35,1.07.23,1.37-.05l.04.89c.71,1.81-.3,4.43-2.51,4.24.45,2.19-2.5,1.9-3.04,0-1.39.64-1.72-.58-1.28-1.9.06-1.8-.23-3.63-1.28-5.13l.93-.18Z"/>
      <path class="cls-19" d="M37.11,47.33l.86-4.03c-1.64.06-1.42-2.68.09-2.98,1.19-.39,2.39-.72,3.63-.95.35,1.46-1.02,3.71-.21,5.22.95,1.79,3.88,1.71,4.54,3.51-.22,2.79-.98,4.79-2.27,6,.08,2.1-.33,3.78-1.23,5.05,1.67.31,1.96,2.51.1,3-.25.88-.59.88-1,.03-1.47-1.37-1.98-3.36-1.51-5.96-1.84-1.58-2.19-2.62-.84-4.83,1.24-.46.89-1.15-1.06-2.08-.54-.51-1.08-1.21-1.11-1.98Z"/>
      <path class="cls-191" d="M35.73,30.31c.99.76,2,.3,3.04,0,1.41-2.74,3.11-2.44,2.56.63-.58.39-.59,1.55-.92,2.11-.59-.12-1.25.14-1.85.06-.79-.68-1.86-.61-2.83-.86v-1.93Z"/>
      <path class="cls-71" d="M35.9,41.37c-.01-.62.31-.96.96-1.03.37-.04.84.1,1.19-.02l-.09,2.98c.28.99-.03,1.44-.96,1.03-1.32-.34-1.09-1.89-1.1-2.96Z"/>
      <path class="cls-108" d="M37.31,51.25c.36-.29.67-.63.95-.99,1.59-1.16,2.13-.56,1.02,1.13,1.67,3.41,2.75,6.96,2.35,10.79-.71,1.72-1.58,1.85-1.84-.09-2.02.31-2.33-.22-1.04-1.86-1.01-.06-1.47-1.47-.36-1.97.02-1.23-1.28-2.19-3.9-2.89l-.14-.94c.5-1.1,1.49-2.16,2.96-3.17Z"/>
      <path class="cls-103" d="M25.16,53.87c1.26-.25,2.55-.51,3.96-1.02,1.29-.46,1.26-1.97.9-3.32.35.33.91.51,1.2.91,2-.55,2.56.26,1.31,1.91.53.43.81,1.14.83,2.12.86.34.83.69-.05,1.05-1.69,1.61-6.81,2.56-8.63,1.26-.04-.99-.09-2.05.48-2.91Z"/>
      <path class="cls-93" d="M36.6,51.2c.2,2.32-3.68,3.72-4.07,1.15-.37-.62-.89-1.31-1.31-1.91.99-.55.65-2.17,1.41-2.85.91.54.95,1.69,1.61,2.24.57.48,1.08-1.3,1.45-1.31.83.89,1.45,1.95.92,2.68Z"/>
      <path class="cls-66" d="M32.53,52.35c.25.22.52.49,1.06.79.89-1,1.83-1.76,3.01-1.94.23-.03.48.07.72.06-.1.72.81,1.9.36,2.34-.82.81-2.51.81-3.32.83-.25.88-.59.88-1,.03-.46-.18-1.02-.34-1.32-.83-.26-.42.45-.94.49-1.29Z"/>
      <path class="cls-53" d="M39.28,51.39c-.22-.44-.74-.73-1.02-1.13l-.04-.95c1.09-.02,2.38-1.4,3.58-.96,1.82.66.86,2.47-.47,3.19-.63.34-.9.5-2.04-.15Z"/>
      <path class="cls-117" d="M37.01,44.33c-.02-.49.56-.91.96-1.03,1.17,1.21.22,3.04-.86,4.03l-.1-3Z"/>
      <path class="cls-114" d="M116.41,28.69l2.05-1.21c3.31-1.29,2.66,5.38.08,6.33.62,1.06.54,1.73-.71,1.67.26,1.85-.14,3.12-1.18,3.8-1.16,1.38-2.3,1.22-1.86-.69-1.56.84-2.96-1.75-1.87-2.92l.03-1.06,3.45-5.92Z"/>
      <path class="cls-165" d="M118.46,27.48c-1.49-1.43,1.6-2.22,2.96-1.1l.17,5-.93,2.03c-.26,1.77-.42,2.1-1.35.48-.1.96-.36.89-.78-.08.97-1.91,2.07-5.01-.08-6.33Z"/>
      <path class="cls-28" d="M121.43,26.37c-1.09-.1-2.54-.12-2.96,1.1-.16.48-.08,1.03-.13,1.4-.07.63-.57.81-1.25.66-.32-.07-.66-.35-.68-.85.55-.94-.13-2.92,1.6-3.1,1.09-.11,3.36-.91,3.41.78Z"/>
      <path class="cls-114" d="M120.67,33.4c-.03-.79.02-1.8.93-2.03l.24,7c-.3.89-.63.9-1,.03-.7-1.49-1.34-3.91-.17-5Z"/>
      <path class="cls-1" d="M65.76,37.16c.39-.3.73-.7,1.06-1.06.5-.55,1.52-.61,2.08-.92,2.49-1.76,2.19.98.13,1.91,1.75,2.68-.35,5.58-3.36,4.02-.69,3.38-1.93,1.9-2.89-.62.74-1.31,1.75-2.4,2.97-3.34Z"/>
      <path class="cls-87" d="M81.36,30.75c-2.78.45-2.81,0-.87-1.95.62.14,1.38,0,1.97.22,3.53,1.37,7.02,1.43,7.17,3.46-2.18.25-3.82,1.03-4.92,2.32,1.25,1.29-2.87,2.53-3.72,2.43-4.4-.54-2.64-5.06.38-6.49Z"/>
      <path class="cls-149" d="M80.49,28.8c.43.55.42,1.44.87,1.95-.92,2.06-2.65,3.2-4.78,2-.88,1.15-1.98.57-2.82-.49.22,1.94-.58,1.95-1.21.02,1.76-2.57,4.77-4.17,7.94-3.48Z"/>
      <path class="cls-52" d="M68.9,35.18c.69-1.44,2.52-2.15,3.65-2.91l1.21-.02c1.49.3,2.3.99,1.09,2.2,1.94.25,1.81,1.05-.16,1.3-1.33.3-2.69.78-4.07,1.43-.35,1.88-1.18,1.83-1.59-.09.27-.33.53-.85.68-1.42.11-.42-.39-.66-.81-.49Z"/>
      <path class="cls-138" d="M89.62,32.49c.32,0,.73.22,1.04.14.94.18.94.51.06.98-.12,2.12-2.71,2.55-3.65.78l-1.38.24c-.15.98-.48,1.04-.99.18-.45-1.43.28-2.24,1.45-2.26l3.47-.06Z"/>
      <path class="cls-84" d="M41.28,26.06c.82.61,1.3,1.5,1.43,2.53.15,1.14-.49,1.76-1.39,2.35-.39-.59-1.83-.85-2.56-.63.56-1.58.88-3.46,2.51-4.24Z"/>
      <path class="cls-81" d="M1.16,49.64c.43-1.73.57-4.16,2.66-4.41-3.27,2,6.43,4.77,7.2,4.74-.04.71-.94,1.26-1.12,2-.23.97,1.16,1.34,1.54,2.04.35.64.63,1.5.89,2.19,2.05.42,2.14,1.34.15,2-2.05,2.34-5.61,1.43-8.31-.41-1.81-.21-1.98-1.96-2.7-3.17-.26-1.57-.36-3.23-.3-4.98Z"/>
      <path class="cls-27" d="M12.57,60.26c.49-3.89,2.68-2.01,4.13.74,1.91,1,3.45-1.9,4.78-3.03,1.05-1.97,1.73-2.29,2.05-.97.24-.2.82-.16,1.15-.24,2.7-.62,5.83-1.9,8.63-1.26,1.11-.54,5.37.94,5.08,2.74.22.59.03,1.44.36,1.97-.18.91-.54.96-1.09.17-1.86.82-2.85.19-2.97-1.88-.74,2.29-2.51,2.36-3.05-.11-.59,1.38-2.26,1.77-5,1.19.48,1.43-.57,2.21-3.14,2.34-.52,1.64-1.79,4.62-3.71,4.81-.18.88-.49.87-.91.02-1.1,1.69-2.26-1.43-2.15-1.32,1.03,1.05,1.44,2.01-.15,2.46-1.14-.68-2.1-1.58-2.97-2.59-3.9-.58-6.48-4.06-1.04-5.05Z"/>
      <path class="cls-167" d="M23.53,57.01c-.49.63-1.46.63-2.05.97.22-.85,1.44-1.7.24-1.96-1.02-.22-1.74-.65-2.37-1.17.84,0,1.62-.11,2.56,0,1.02.13,1.86.89,1.63,2.16Z"/>
      <path class="cls-152" d="M12.48,58.19c.07-.54.05-1.49-.15-2,1.14.61,2.71-.12,3.01.76l1.36,4.05c-1.4-.74-2.83-2.26-4.13-.74l-.98.07c-1.97-.55-.75-1.65.89-2.14Z"/>
      <path class="cls-57" d="M50.23,48.05c.42.28,1.31.02,1.68.41,1.19-1.09,4.65-1.98,5.17.2,1.91-1.07,2.22.11,1.17,1.93.83.4.78.74-.12,1.04-.74,1.79-3,2.19-6.8,1.2-1.06,2.23-4.83,2.23-4.37-.92-2.03-.14-2.06-1.18-.17-1.93,1.07-.22,2.13.16,3.04.81.46-1.28.35-2.01.42-2.74Z"/>
      <path class="cls-56" d="M46.02,48.1c.23.61.62,1.25.75,1.89.1.49.4,1.45.17,1.93,2.31,1.29,1.73,2.8-.42,4.12-.31.88-.68.87-1.1.01-.4.51-.75.19-1.03-.96-1.11.41-1.02.09-.63-.98-.09-1.27-.25-7.19,2.27-6Z"/>
      <path class="cls-127" d="M42.63,62.14c-.07-.98.06-2.03-.1-3,.23-2.67,1.15-2.58,2-.07,1.42.17,1.61,1.79,1.1,2.96,2.12-.37,2.42.58.99,2.09.88.2.85.5,0,.9,1.44,3.42-2.76,4.21-3.72,1.01-1.87.29-1.21-2.68-.26-3.9Z"/>
      <path class="cls-126" d="M43.75,54.1c.73-.14.62.52.63.98.7,1.3,1.53,3.36.14,4l-2,.07c-.33-1.9-.41-3.83,1.23-5.05Z"/>
      <path class="cls-120" d="M41.63,62.18l1-.03.26,3.9c.37,2.74-1.17,2.66-2.12.17-1.19-.69-.65-3.72.86-4.03Z"/>
      <path class="cls-176" d="M36.17,63.45c-1.58-1.18-.25-3.26,1.49-3.05l1.09-.17c.38.54,1.14,1.07,1.04,1.86.81,1.33.82,3.04.01,5.16-.81,1.98-1.67,1.58-1.13-.59-1.44.85-2.77,0-2.8-1.57-2.63-.37-2.34-1.33.3-1.63Z"/>
      <path class="cls-148" d="M33.36,54.46l1-.03c1.63,1.38,4.42.64,5.04,2.42.16.47-.52,1.1-1.01,1.4l-5.08-2.74.05-1.05Z"/>
      <path class="cls-80" d="M39.79,62.09l1.84.09c-.14,1.31-1.3,2.58-.86,4.03,1.47,1.76.93,2.33-.96,1.03-.27-1.71-.22-3.44-.01-5.16Z"/>
      <path class="cls-47" d="M90.66,32.63c2.57-.72,5.06-.57,7.73.93,1.72.97,3.76.56,5.32,1.22-.12.91-.45.99-.99.25-.25,1.11-.38,1.57-1.41.92-1.28,2.47-3.07,2.17-5.37-.92-.21.86-.53.85-.96.03-.84-.56-1.95-.8-3.34-.7-1.14,1.65-1.8,1.15-.91-.76,0-.32.03-.66-.06-.98Z"/>
      <path class="cls-25" d="M102.72,35.03c.3-.15.68-.12.99-.25.95.41,2.18.23,2.91,1.17.91.05.94.37.17.94-.25.88-.59.88-1,.03.78,2.14.58,2.33-1.82,2.06-1.96,1.21-2.39-2.45-1.24-3.96Z"/>
      <path class="cls-180" d="M117.11,43.38c-.1-1.26.26-2.47,1.84-2.82-1.49-1.33-1.68-3.17-1.11-5.09.38-.37.46-1.19.71-1.67.25.1.52.17.78.08.65,1.19,1.15,2.69,1.52,4.52.32-.06.69.05,1-.03.07,1.94.13,3.85-.03,5.8-1.7,1.49-7.57,1.39-4.71-.78Z"/>
      <path class="cls-96" d="M114.01,42.58c-1.4-4.39,5.42-3.44,3.09.8-1.16,2.78,3.78.21,4.71.78-.07.84-.36,1.3-1.1,1.34-.63.03-1.1.09-1.62.07-1-.01-2-.04-3,0-1.3-1.98-4.14-.58-6.17-.72-.89-.09-.91-.37-.1-.85,1.08-.57,2.47-1.04,4.19-1.41Z"/>
      <path class="cls-143" d="M103.96,38.99c.14-.91.92-2.03,1.82-2.06,2.12,1.42,4.68,2.29,7.69,2.6-.79-1.71-.12-2.12,1.32-.93l1.86.69c1.09-1.91,1.64-.53,2.29,1.28,0,.63.09,1.32-.23,2.07-.22.53-.94.76-1.61.74-.77-.72-.82-1.61-.9-3.13-1.18.88-1.67,1.63-2.19,2.33-3.02,1.13-7.08,1.16-10.02.41-1.66-.44-1.58-3.21-.03-4Z"/>
      <path class="cls-4" d="M112.93,35.67c.73.89.8,2.52,1.87,2.92-.25.55-.94.58-1.32.93-1.9.15-3.24-.31-1.66-1.81-1.78-.25-2.7-.7-1.07-1.96.72.07,1.46-.11,2.18-.08Z"/>
      <path class="cls-96" d="M117.83,35.47c.89,1.54,1.12,3.33,1.11,5.09-.77-.4-1.5-.99-2.29-1.28-.28-1.44.04-2.85,1.18-3.8Z"/>
      <path class="cls-89" d="M119.32,33.88l1.35-.48.17,5c-1.53-.92-1.27-2.94-1.52-4.52Z"/>
      <path class="cls-115" d="M106.62,35.95c1.22.2,2.85-.33,4.13-.2l1.07,1.96c-.6,2.06-4.73,1.17-5.03-.82l-.17-.94Z"/>
      <path class="cls-142" d="M60.15,51.89l-.84-.89,2.75-5.55c-.08-.92-.11-1.92-.1-3-.71.7-1.23.58-1.56-.36.63-.74,1.58-1.23,2.39-1.6.68.91,1.87.79,2.89.62,2.62.6,2.85,2.25.44,3.48.9-.1.91.16.12.74.79,1.55-.24,3.27-2.16,2.94,1.21,1.41.86,2.28-1.01,2.09,1.19,1.86.36,3.16-1.82,3.15.56.3.55.66.04,1.09-3.02,2.33-4.52-1.53-1.13-2.72Z"/>
      <path class="cls-70" d="M60.39,42.1c.53.07,1.04.24,1.56.36.16,1.44-.44,3.13-1.82,5.07-1.14,2.21-2.89.94-1.97-1.16.51-1.59,1.13-2.97,2.24-4.26Z"/>
      <path class="cls-21" d="M57.28,46.28l.87.09c.16.37.34.87.66,1.05.4.22.94.27,1.31.11.89,1.64.01,3.42-1.89,3.07-.19-.75-.56-1.44-1.17-1.93l.21-2.38Z"/>
      <path class="cls-201" d="M65.67,41.12c1.56-.91,2.24-2.66,3.36-4.02.45.17,1.18-.17,1.59.09.61-1.44,3.36-1.32,4.43-.19,1.75.73,2.91,2.95,1.83,4.62,2.87.35,2.88,2.52.2,3.51-.25.87-.57.83-.95-.04-1.12.41-1.18-.33-.16-2.22-1.29.23-2.3-.08-3.01-.94-1.1.64-1.89,1.75-2.38,3.32-1.81,1.31-3.16,1.41-4.47-.64-.36-1.13-.55-2.3-.44-3.48Z"/>
      <path class="cls-69" d="M76.58,32.75c1.16-1.44,2.96-2.25,4.78-2,1.25,1.38-1,2.1-1.26,4.54,1.77.96,3.17-.23,4.6-.48.29-.05.78,0,.99-.18,1.62-.63,3.03-.8,2.03.93-.07,4.02-1.04,4.68-2.93,1.99-.71,1.68-5.68,3.63-7.4,2.55l-2.7-4.33c-.06-.42.18-.87.16-1.3-.84-1.26.39-1.95,1.73-1.71Z"/>
      <path class="cls-195" d="M73.76,32.26c.98-.02,2.06-.25,2.82.49-.51.64-.7,1.68-1.73,1.71l-1.09-2.2Z"/>
      <path class="cls-45" d="M74.69,35.76c.65.41.95.65.36,1.23-1.5.07-3.06,1.05-4.43.19-.15-1.18.16-2.06,1.53-2.19.91-.08,1.67.58,2.54.77Z"/>
      <path class="cls-163" d="M90.72,33.6c-.01.49.78.48.91.76,1.5-.35,2.61-.11,3.34.7.29-.06.66-.03.96-.03,3.41.91,5.21,3.91.93,4.2-.27.67-.61.67-1,.03l-3.17-1.05c-2.11.32-3.67.01-4.69-.92-1.47.92-1.56.34-.27-1.75-.16-1.03-1.21-1.08-2.03-.93,1.41-1.16,3.28-1.03,5.02-1.02Z"/>
      <path class="cls-158" d="M4.17,57.79c1.79-.73,3.38,1.1,5.29,1.24.61.05,1.22-1.13,1.59-1.26.47-.17,1.02.06,1.43.43-.09.74-.75,1.4-.89,2.14-2.23.16-4.51.02-6.52-1.02-.55-.29-.76-.96-.89-1.53Z"/>
      <path class="cls-202" d="M21.95,71.71c.78-2.41,1.8-2.33,2.95-.11,1.3.52,2.35,1.03,1.12,2.13,1.83,1.3,1.89,1.96.19,2-1.05-.24-2.08-.52-3.1-.87-1.37-.39-2.44-1.03-3.21-1.92l-.05-1c-.67-1.75.03-1.83,2.09-.23Z"/>
      <path class="cls-132" d="M19.79,66.74c.57-1.98,2.06-3.68,3.71-4.81,1.42-1.36,2.95-1.5,2.34.6.97,1.63.51,1.42-1.13.53-.09,1.41-.12,2.91-.11,4.49,1.83,2.32,1.93,3.67.3,4.05-.99-.05-1.97,0-2.95.11-1.18-1.3-2.71-3.07-2.16-4.97Z"/>
      <path class="cls-2" d="M26.64,59.59c1.65-.41,4.95-.38,5.05,1.7,1.17-1.54,1.79-1.09,1.04.73,1.68-.81,2.79-.32,3.44,1.43l-.3,1.63c.29,2.07-2.29,2.62-3.72,1.38-2.24-.1-4.35-1.41-6.31-3.93-.64-.05-1.45-1.34-2.34-.6.64-1.23,1.81-2.02,3.14-2.34Z"/>
      <path class="cls-39" d="M34.69,58.51c1.38-.04,2.72.34,2.97,1.88-.43,1.05-.87,2.1-1.49,3.05-1.41.43-3.06.17-3.44-1.43-.15-1.44.5-2.61,1.96-3.51Z"/>
      <path class="cls-155" d="M31.64,58.4c2.51.28,2.46,2.2.05,2.9-1.77-.33-3.83-.23-5.05-1.7,1.12-1.7,3.22-1.29,5-1.19Z"/>
      <path class="cls-150" d="M31.64,58.4c.98.06,2.07.14,3.05.11.49.61.81,1.38.36,1.95-.65.82-1.48,1.27-2.31,1.56l-1.04-.73-.05-2.9Z"/>
      <path class="cls-196" d="M58.11,51.63c.96-1.14,1.64-1.05,2.04.26-.18.4.09.99.09,1.31,0,.62-.01,1.94,1.04,1.41.87-.03.9.26.18.84.03,2.24-3.45,3.39-4.2,1.16-2.45,1.04-3.87-.26-3.82-2.78-.88,1.66-2.82.97-2.13-1,1.95-1.33,4.52-1.36,6.8-1.2Z"/>
      <path class="cls-156" d="M46.94,51.91c1.41.5,2.86.89,4.37.92.62.48,1.34.89,2.13,1,4.32,3.85-2.62,4.72-5.99,3.14-.86.45-1.14.1-.93-.94-.3-1.42-.19-2.82.42-4.12Z"/>
      <path class="cls-177" d="M58.24,50.59c.91-.83,1.54-1.89,1.89-3.07.36-1.58,1-2.27,1.93-2.07.22,2.33-.99,4.35-1.9,6.44-.35.31-.85.62-1.36.41-.27-.11-.47-.5-.68-.67l.12-1.04Z"/>
      <path class="cls-85" d="M45.63,62.04c-.22-2.08-.29-4.08-.21-6h1.1c.29.32.6.63.93.93,2.91-.63,3.61,2.51,1.14,3.96,1.93.39,2.86.68,1.15,2.16-.32,1.53-1.9,1.62-3.13,1.04-.67-.52-.67-1.39-.99-2.09Z"/>
      <path class="cls-156" d="M44.52,59.08l-.14-4c.3.27.94.52,1.03.96.42,1.99,2.32,4.69.21,6-.43-.95-1.07-1.88-1.1-2.96Z"/>
      <path class="cls-20" d="M40.77,66.21l2.12-.17c1.21-.1,3.4.57,3.72-1.01.99-.49,1.34-.2,1.05.86.85,2.55,1.85,7.49-1.56,7.3-.96-.87-2.01-1.61-3.15-2.21-1.14.67-1.84-.26-2.11-2.77-.25.88-.59.88-1,.03-.87-.16-.85-.5-.03-1,.6,0,1.16-.38.96-1.03Z"/>
      <path class="cls-187" d="M49.74,63.09c2.81-.03,2.87,1.37.34,2.45.17,1.95-.67,1.97-1.31.05.01,1.68-.3,1.77-1.11.29-.25-.4-.62-.68-1.05-.86v-.9c.42-1.38,1.97-1.13,3.13-1.04Z"/>
      <path class="cls-161" d="M29.22,69.31c-1.39-2.75-.02-5.31,2.93-2.85,1.44.36,3.61.43,6.53.2.27.49.63.58,1.13.59.05.32.05.67.03,1,2.93,7.33-4.5,4.99-8.88,2.97.33,1.7-.43,1.78-1.2.17-2.03-.11-2.3-1-.54-2.08Z"/>
      <path class="cls-61" d="M32.15,66.46c1.2-.6,2.37-1.2,3.72-1.38,1.23-.16,2.22.5,2.8,1.57-1.48,1.29-3.56,1.84-5.9,1.71-.51-.03-.54-1.41-.63-1.91Z"/>
      <path class="cls-41" d="M101.31,35.95c1.08,0,1.15,1.3.52,2.11-.54,1.32-.6,2.68.14,4,.88.25.88.59.03,1-.43.9-1.78.99-4.06.27-.19.89-.5.87-.93.02-2.75-1.27-2.79-2.31-.12-3.12-.64-.31-.66-.65-.03-1,1.03-1.46.13-2.99-.93-4.2,1.83,0,3.57.64,5.37.92Z"/>
      <path class="cls-11" d="M101.82,38.06l-.52-2.11c.47-.31.91-.67,1.41-.92.08,1.37-.45,3.52,1.24,3.96-.2,1.31.08,2.68.03,4-.29.47-.63.47-1,.03-.25.88-.59.88-1,.03l-.03-1c-1.11-.29-1.15-1.63-.14-4Z"/>
      <path class="cls-138" d="M94.97,35.06c-1.21.24-2.7.61-3.34-.7.64-.23,1.24-.74,1.71-1.02.95-.57,2.34.86,1.63,1.72Z"/>
      <path class="cls-46" d="M105.79,36.92l1-.03c1.36,1.3,3.29,1,5.03.82.4.74.75,1.61,1.66,1.81-1.64,1.5-9.38-1.24-7.69-2.6Z"/>
      <path class="cls-112" d="M94.71,66.59c1.29,1.4,1.5,2.42-.57,2.76-.76,1.16-1.81,1.5-2.22.08-.61.65-1.28.68-2,.07-.88-.25-.88-.59-.03-1-.94-1.21-1.97-2.26-3.08-3.14-1.72.24-2.18-.47-1.03-1.79,3.17.85,6.36.8,8.94,3.02Z"/>
      <path class="cls-199" d="M94.71,66.59c1.28,1.1,3.02,1.65,3.28,3.73,2.41,1.49,2.57,2.38-.36,2.95,1.29.64,1.04,2.19-.55,1.97-1.78.2-2.19-1.75-.88-2.95-2.61.38-2.72-.77-2.06-2.94,0-.94.09-1.95.57-2.76Z"/>
      <path class="cls-76" d="M97.99,70.32l6.06,2.62c.5.86.13,1.2-.96,1.11-.04,2.7-.95,2.15-2.11.08-.88,1.93-1.41,1.18-1.84-.76-.32,1.91-1.09,1.83-1.51-.1l.36-2.95Z"/>
      <path class="cls-123" d="M78.12,46.9c-.44-1.42-.45-1.68.96-1.03.87-.49,1.19-.12,1.03.96-.75.9-.58,2.31-.81,3.37-.08.36-.58.55-.82.76-.37.33-.88.58-1.2.96-1.16.96-1.83.98-2,.07-.88-.25-.88-.59-.03-1-.93-1.89,1.01-3.89,2.86-4.1Z"/>
      <path class="cls-67" d="M103.08,74.04c.35-.34.67-.71.96-1.11.98.43,1.58,1.11,2.07,2,.23,1.42.06,2.73-.52,3.91-.43,1.07-1.37,1.56-1.8.33-.91.4-1.14.12-.72-.82-1.22-2.24-1.21-3.67,0-4.31Z"/>
      <path class="cls-13" d="M78.68,62.89c-.9-.25-.91-.61-.08-1.09.28.04.6-.09.89-.07,1.92,1.11,4.19,1.28,6.29,1.84.32,1.53-.67,1.77-2.95.71-1.64.66-3,.86-4.07.6-2.67-.23-2.58-1.15-.07-2Z"/>
      <path class="cls-16" d="M107.26,76.84l2.07.9c-.29.27-.02.99.02,1.31.21.9-.1,1.09-.92.59-.27,2.66-1.21,2.47-1.88-.09-.08.89-.37.9-.83.09-1.07.03-1.14-.52-.12-.81,0-1.7.55-2.36,1.67-2Z"/>
      <path class="cls-193" d="M106.11,74.93c.33.59.69,1.43,1.15,1.91-.51.68-.63,2.05-1.67,2-.63-1.09-.95-3.42.52-3.91Z"/>
      <path class="cls-6" d="M104,42.99l10.02-.41c-.98,1.32-2.62,1.45-4.19,1.41l-3.79-.08c-1.56.89-3.9,1.13-3.03-.89l1-.03Z"/>
      <path class="cls-194" d="M61.25,53.52c1.31-1.15,3.13-2.19,5.02-2.21-.88-.25-.88-.59-.03-1-1.49-1.76-.93-2.44,1.07-1.27.91-2.67,2.59-2.75,3.78-.2,1.71-.14,2.32.87,1.18,2.26.8.62.53,1.67-.8,3.16.88.2.85.5,0,.89-1.99,1.75-3.77,2.18-5.34,1.27-1.43,1.3-4.47,1.31-4.65-.97,0-.28-.2-.56-.18-.84.02-.33-.15-.77-.04-1.09Z"/>
      <path class="cls-140" d="M66.11,44.6c6.59-.62,2.77-4.52,6.85-2.68.91.15.95.49.16,1.01-.43,1.98-.41,3.75.06,5.31l-1.35.56c-.19.54-.44.54-.75.03-1.25.22-2.51.26-3.78.2-1.95-.1-2.01-2.4-1.06-3.7-.06-.24-.05-.5-.12-.74Z"/>
      <path class="cls-104" d="M63.07,50.37c.84-1.36,2.33-.19,3.2.94.04,1.15-.92,1.91-2.16,2.5-.79.38-1.91.39-2.86-.29.39-1.16,1.1-2.17,1.82-3.15Z"/>
      <path class="cls-159" d="M66.24,45.34c1.11.9,1.31,2.35,1.06,3.7-.64-.03-1.09.73-1.07,1.27-1.06.68-2.92-.59-2.15-2.03.36-1.21,1-2.36,2.16-2.94Z"/>
      <path class="cls-9" d="M61.95,42.46c.34.08.83-.14,1.46-.06.86.11.71,1.49.13,1.84-.38.23-1.07.63-1.49,1.21-.63.7-1.02,1.69-1.93,2.07-.26-1.91.68-3.59,1.82-5.07Z"/>
      <path class="cls-42" d="M64.08,48.28l2.15,2.03.03,1c-1.12-.11-2.2-.43-3.2-.94.21-.75.53-1.47,1.01-2.09Z"/>
      <path class="cls-111" d="M76.88,41.61c.27-2.31.68-2.84,1.93-.86,3.31-2.22,5.91-2.4,7.8-.54,1.89-.26,2.06.48.32,1.38.97,1.43-.67,2.8-2.14,2.93-.2,1.47-1.48,1.35-2.43.37-1.15.53-2.24.85-3.29.97l-.96,1.03c-1.85.4-2.28-.36-1.03-1.78l-.2-3.51Z"/>
      <path class="cls-50" d="M74.69,35.76c2.13.46,3.12,2.17,3.95,4.58,2.46-1.78,4.03-2.94,6.15-2.79,2.55-.67,3.06.64,1.82,2.66-3.17-.67-6.53.99-9.73,1.4-.71-1.5-1.34-3.04-1.83-4.62-.12-.39-.31-.82-.36-1.23Z"/>
      <path class="cls-73" d="M73.13,42.93c1.79-.34,2.08.5,1,1.92l2.01.22.95.04c.46.52.78,1.14,1.03,1.78-.56,1.62-1.29,3.27-2.86,4.1-1.33,1.53-1.98.91-1.03-.96-1.18.29-2-.08-2.4-1.23.13-1.94-.41-4.62,1.3-5.88Z"/>
      <path class="cls-204" d="M73.13,42.93l-.16-1.01c.46-.2,1.05-.72,1.56-.69.97.05,1.5.75,1.45,1.63-.07,1.81-.68,2.48-1.85,2-.31-.57-.88-1.21-1-1.92Z"/>
      <path class="cls-174" d="M74.13,44.86c.76-.52,1.33-1.25,1.85-2-.04.68.31,1.58.16,2.22-.49.72-.73,1.59-1.32,2.79-.34.23-1.46-.89-1.64-1.31s1.11-1.27.96-1.7Z"/>
      <path class="cls-138" d="M87.73,35.55l.27,1.75c1.42.13,2.04.85,1.87,2.18.89.19.88.53.03,1,1.15,1.8-.37,2.19-1.96,1.07-.25.88-.59.88-1,.03,0-.46-.35-.92-.32-1.38.08-1.22-.95-1.96-1.82-2.66,1.32.09,2.3-.96,2.93-1.99Z"/>
      <path class="cls-146" d="M88,37.3c2.86-.64,6.43-.95,7.87,1.97-.52.9-3.02.85-4,.14.19,1.98-1.21,1.7-2,.07-.65,0-1.5-.15-1.74-.68-.25-.57-.06-1.09-.13-1.5Z"/>
      <path class="cls-200" d="M95.86,39.27l1-.03c.49.29.02.69.03,1,.26,2.21-3.73,1.35-5,.17-.88-.25-.88-.59-.03-1l4-.14Z"/>
      <path class="cls-32" d="M43.12,76.13c.88.25.88.59.03,1-2.82.12-5.88-2.11-7.99.28l-2.03-.93c-.88-.25-.88-.59-.03-1,2.18-.93,8.77-1.75,10.03.65Z"/>
      <path class="cls-35" d="M29.02,73.62c.62-1.52,1.57-1.76,2-.07,1.36.35,2.05.99,2.07,1.93l.03,1c-.56-.26-1.37.05-2,.07-.6.65-1.52.82-2,.07-1.02-.84-1.38-1.5-1.07-1.96-.59-.28-.59-.61-.03-1,.25-.88.59-.88,1-.03Z"/>
      <path class="cls-198" d="M26.03,73.73c.54-1.64,1.52-.41,2.03.93.37.05,1.59-.09,1.83.42.18.37-.78,1.17-.76,1.54-.24.86-1.47.83-2,.07-.14-.35-.66-.72-.91-.96l-.19-2Z"/>
      <path class="cls-92" d="M24.9,71.6c1.02-2.78,5.17-.97,3.12,2.06l.03,1-2.03-.93c-.06-.68-1.13-1.29-1.12-2.13Z"/>
      <path class="cls-79" d="M24.71,63.05c1.9-.21,3.35.62,2.09,2.38.43.93.18,2.01-.75,3.25,2.33-.96,3.39-.75,3.17.63,0,.69.49,1.39.54,2.08,1.44,1.09.97,1.86-.74,2.24l-1,.03c-.11-.68-.4-1.45-.86-1.72-.8-.47-1.59-.31-2.26-.34,0-1.19-.62-2.11-1.5-3.3-1.46-1.97-.52-4.38,1.31-5.24Z"/>
      <path class="cls-30" d="M25.84,62.53c2.08-.16,5.97,2,6.31,3.93-1.27.63-2.9,1.17-2.93,2.85-1-.74-2.54.87-3.17-.63,1.24-2.06,1.49-3.15.75-3.25-.49-.95-1.22-1.75-2.09-2.38l1.13-.53Z"/>
      <path class="cls-8" d="M47.45,56.97c1.2-3.35,7.05,1.05,5.99-3.14,1.68.24,2.78,1.53,3.82,2.78,1.58,1.26,1.24,2.03-.76,1.72.21,1.72-.75,2.53-2.87,2.43-.27.88-.62.88-1.04.03-.4,1.69-3.04,1.56-4,.14l-1.14-3.96Z"/>
      <path class="cls-164" d="M57.26,56.61c1.33.77,3.14-1.46,4.2-1.16,2.94.42,2.65,2.28.06,3.14.42,2.88-1.88,2.92-2.89.33-1.24,2.49-2.08,2.14-2.13-.59.3-.55.55-1.12.76-1.72Z"/>
      <path class="cls-147" d="M52.59,60.79c2.33,2.35-1.21,5.31-2.85,2.3l-1.15-2.16,4-.14Z"/>
      <path class="cls-15" d="M39.84,68.24l1-.03c.97,2,1.37,3.99,1.21,5.96-2.65.74-8.06,1.59-10.03-.65-1.82-.08-2.32-.9-1.06-2.31,2.36-1.55,5.07.23,8.33,1.07,1.07-1.14.49-2.79.54-4.04Z"/>
      <path class="cls-173" d="M46.1,73.18c1.58-2.08,1.62-4.76,1.56-7.3l1.11-.29c2.55,2.45,3.29,6.04,2.22,10.78-.99,0-1.95.39-2.92.5-1.79-.26-2.49-.93-2.11-2.01-2.03-.52-1.91-1.34.15-1.68Z"/>
      <path class="cls-172" d="M42.95,70.98c.74-.49,1.09-1.77,1.72-1.5.75.32,1.93.44,1.77.94-.31.96-.27,2.3-.34,2.77l-.15,1.68c-.85,1.01-2.88.82-2.91-.73-1.21-.52-1.69-2.81-.1-3.16Z"/>
      <path class="cls-188" d="M40.84,68.21l2.11,2.77.1,3.16c-.29.81-.62.82-1,.03-1.46-1.62-1.43-3.89-1.21-5.96Z"/>
      <path class="cls-147" d="M48.77,65.59l1.31-.05c1.45-1.66,2.96-2.3,4.53-1.93,2.68-1.41,2.38.06,1.16,2.07,1.64.4,1.54,1.33-.09,1.93.53,2.53.32,3.97-2.64,3.14l-.18,2.42c1.87,1.42,1.56,2.48-.91,2.92-.25-.1-.66.28-.95.28-1.27-3.48-2.37-7.05-2.22-10.78Z"/>
      <path class="cls-75" d="M49.74,63.09c.69.06,1.51-.07,2.28-.38.68-.27.74-1.18.57-1.92l1.04-.03c2.73-.86,3.34,1.33.97,2.85-1.33,1.03-3,3.63-4.53,1.93l-.34-2.45Z"/>
      <path class="cls-186" d="M29.76,71.39c.34-.16.89.03,1.2-.17.67.59.98,1.44,1.06,2.31-.31.51-.64.52-1,.03l-2,.07c.09-.79.31-1.56.74-2.24Z"/>
      <path class="cls-90" d="M90.01,43.48c-.77-1.57-.11-1.93,1.96-1.07.26-.74.6-.74,1-.03,1.34-1.8,3.71-1.34,4.04.98l.93-.02c.92-.17,1.96.11,2.11,1.11-.95.99-2.56.56-3.82.83-2.07.45-4.22.46-6.32.27-2.1,1.88-2.29,1.79-1.93-1.03-2.09-1.86-.14-2.4,2.03-1.04Z"/>
      <path class="cls-197" d="M102,43.06l1-.03c.46,1.26,1.96.87,3.03.89-1.21,1.94-4.12,1.22-5.99.52-.72-.27-1.92-.15-2.11-1.11,1.07-1.16,2.68-.22,4.06-.27Z"/>
      <path class="cls-166" d="M96.9,40.24l.12,3.12c-1.2-.78-2.62-1.03-4.04-.98-1.12-.37-2-1.03-1.07-1.96l5-.17Z"/>
      <path class="cls-178" d="M101.82,38.06l.14,4c-.53.13-2.04.15-1.83-.39.67-1.68.81-2.83,1.69-3.61Z"/>
      <path class="cls-55" d="M123.74,90.23c.91-1.97,1.81-3.97,2.7-6-.07-1.55,1.47-1.48,2-.07.53,3.1-.07,6.22-2.72,8.1-1,.03-2,.12-2.99.2-1.52-1.31-.93-2.01,1.01-2.23Z"/>
      <path class="cls-125" d="M125.38,82.27c.71-.02,1.49-.23,2.41-.03s.54,1.21.66,1.92l-2,.07c-.25.88-.59.88-1,.03-1.53.38-2.21.07-2.03-.93.19-.92,1.17-1.05,1.96-1.07Z"/>
      <path class="cls-122" d="M82.37,44.89l.14.8c-.65.46-1.86.5-2.39,1.14-.31-.36-.66-.68-1.03-.96.76-.82,1.56-1.41,2.31-3.13.59.66.72,1.43.98,2.16Z"/>
      <path class="cls-185" d="M108.43,79.65l.92-.59c2.79,1.18,5.39,2.87,8.03,4.37,1.59.65,3.44.9,5.03-.06l1-.03c.76.1,1.47.41,2.03.93.9,2.45-.03,2.7-1.98.98-.66,1.21-1.24,2.46-1.73,3.74,2.12.66.38,3.52-1.08,1.45-1.96-.97-4.03-1.21-6.22-.72-4.8-.46-6.78-1.75-5.94-3.87-1-1.53-.93-4.7-.07-6.19Z"/>
      <path class="cls-125" d="M122.42,83.37c-.08,1.31-1.63.94-2.49,1.21-1.29.41-1.7-.67-2.54-1.15l5.03-.06Z"/>
      <path class="cls-64" d="M67.82,59.33c-.7-2.31,1.4-3.84,3.63-4.17v-.89c.53-1.53,2.58-4.18,3.84-2.27l2-.07c-2.16,2.6-5.39,4.69-4.71,8.31.36,1.31-.88,2.11-2.1,1.83-.25,2.23-5.19.8-3.77-1.42-1.22-1.51-.72-2.1,1.12-1.31Z"/>
      <path class="cls-192" d="M70.48,62.07c1.06-.66,2.57-.85,3.93-.92l4.19.65.08,1.09c-.38,2.47-3.85,2.85-5.86,2.3-.41,2.16-2.29,2.13-2.33-.25-2.03-.86-2.05-2.01,0-2.86Z"/>
      <path class="cls-14" d="M72.58,60.24l1.83.91c.26.96-1.11,1.12-1.68,1.48-.86.54-1.54-.44-2.26-.56.16-1.04,1.12-1.65,2.1-1.83Z"/>
      <path class="cls-157" d="M82.94,67.79c-.31-2.02,1.23-1.99,1.9-.12,1.7-1.75,4.48-1.64,5.03.82l.03,1c-1.71.68-3.14,1.36-4.27,2.06l-1.73-1.85c.4.85-.15,1.82-.93,2.03-2.77,1.88-4.2.03-2.72-2.7-1.21-1.73.96-1.75,2.67-1.24Z"/>
      <path class="cls-72" d="M89.91,69.5c.66-.05,1.34-.09,2-.07,1.2,1.15.66,1.58-.96,1.03l-1.86,4.07c-.92,2.15-4.54.6-3.9-1.86-1.2-.11-1.89-1.78-1.27-2.96,2,.13,4-.05,6-.21Z"/>
      <path class="cls-170" d="M78.75,64.88c2.05-1.36,4.64-1.02,7.02-1.32.31.62.65,1.22,1.03,1.79,1,1.76-.49,2.02-1.99,1.18-1.64-.3-3.21-.42-5,.31-.25.88-.59.88-1,.03.21,1.83-.56,1.91-1.14.06-2.48-1.46-1.78-2.6,1.07-2.05Z"/>
      <path class="cls-119" d="M86.8,65.36c.75-.08,2.01.06,2.74.7.6.53,1.67,1.74.34,2.43-1.52-.91-3.3-.94-5.03-.82-1.76.1-1.86-.65-.03-1.13.79-.13,1.48-.56,1.99-1.18Z"/>
      <path class="cls-203" d="M91.91,69.43c.71.02,1.52-.2,2.22-.08,1.79,1.9-.83,4.57-2.16,2.08-.87.49-1.19.12-1.03-.96.49-.1.88-.57.96-1.03Z"/>
      <path class="cls-43" d="M91.98,71.43c1.29.07,2.15-.81,2.16-2.08,1.45.25,1.6,1.83,2.06,2.94-.01,1.7-.72,2.39-2.11,2.06-.3.89-.63.9-1,.03-.94,1.53-1.93,1.9-2.96,1.1-.88-.25-.88-.59-.03-1-1.51-2.29-1.02-3.85,1.89-3.07Z"/>
      <path class="cls-100" d="M96.2,72.29c.39.95.99,1.85.88,2.95,1.57,0,1.53.76-.01,1.3.88,1.94.05,2.21-1.11.28-.71,1.08-1.02,1-.91-.27-1.82.54-1.75-.49-.96-2.19.93-.23.31-.87.35-1.24.08-.67,1.2-1.17,1.76-.82Z"/>
      <path class="cls-205" d="M97.08,75.24c.58-.52.47-1.28.55-1.97l1.51.1c1.34,1.06,2.07,3.67.05,3.91-.38,2.99-3.02,1.94-2.12-.74.12-.4-.07-.89.01-1.3Z"/>
      <path class="cls-34" d="M97.4,81.04c.19-1.94.79-3.19,1.78-3.77l-.05-3.91,1.84.76c1.16.7,1.86,2.11,2.1,4.22.24.27.38.64.72.82.29,1-.12,2.86-1.44,2.9,1.42.44.39,2.04-.93,2.15-.84,2.22-2.18.94-2.94-1.11-2.4-.4-3.88-1.45-1.09-2.07Z"/>
      <path class="cls-190" d="M100.97,74.12l2.11-.08v4.31c-1.07-1.2-1.88-2.62-2.11-4.22Z"/>
      <path class="cls-86" d="M72.26,51.1c-1.24-1.52.68-1.89,1.96-1.07.2.37.7.71,1.03.96l.03,1c-1.57.05-2.37,1.81-3.83,2.27-1.21-1.09.99-1.95.8-3.16Z"/>
      <path class="cls-109" d="M103.8,79.17l1.8-.33c.8-.01.72.52.12.81.7,1.21.11,2.57-1.36,2.35-.9,1.27-1.71,1.78-2,.07.41-.95.04-2.86,1.44-2.9Z"/>
      <path class="cls-63" d="M78.68,62.89l.07,2c-.58.55-.93,1.28-1.07,2.05.97,2.11-.24,2.58-1.72.78-1.34.48-3,.21-2.93-1.62-.91,0-.95-.32-.21-.92,1.13-2.11,3.64-2.39,5.86-2.3Z"/>
      <path class="cls-121" d="M103.04,84.39c-.78-1.16.14-2.05,1.32-2.39.1-.98.44-1.9,1.36-2.35l.83-.09c1.98.77,2.33,4.61-.24,4.38,2.74,3.22-.9,4.06-3.57,2.31-2.65-.3-2.4-1.59.29-1.87Z"/>
      <path class="cls-23" d="M106.55,79.56l1.88.09c.47,2.12,1.75,4.4.07,6.19-2.05,1.64-3.01.6-2.19-1.9.59-1.4.93-2.97.24-4.38Z"/>
      <path class="cls-101" d="M61.46,55.45c1.56.45,3.31.02,4.65.97.86,1.81.5,3.04-1.7,2.49-.56,1.59-1.16,1.47-1.81-.35-.25.9-.62.88-1.08.02l-.06-3.14Z"/>
      <path class="cls-141" d="M71.45,55.16c-1.17,1.46-1.89,3.35-3.63,4.17-1.88.65-2.53-1.34-1.71-2.91,1.63-1.1,3.46-2.12,5.34-1.27Z"/>
      <path class="cls-137" d="M71.08,48.84c.2-.46.44-.33.75-.03.67.64,1.32-.57,1.85-.51.61.08.34,1.36.55,1.74l-1.96,1.07c-.72-.54-1.23-1.34-1.18-2.26Z"/>
      <path class="cls-116" d="M86.94,41.59l1-.03c1.43-.61,2.63.58,2.07,1.93-.65.19-2.34-.04-2.03,1.04-1.05.04-2.12.07-3.17,0-.19-1.39.91-2.43,2.14-2.93Z"/>
      <path class="cls-110" d="M89.9,40.48c1.2-.57,1.79.74,2.07,1.93-.54.54-1.24.85-1.96,1.07l-2.07-1.93,1.96-1.07Z"/>
      <path class="cls-38" d="M89.87,39.48l2-.07.03,1,1.07,1.96-1,.03c-.95-.29-1.67-1.03-2.07-1.93-.13-.28.05-.7-.03-1Z"/>
      <path class="cls-59" d="M76.19,75.93c1.11-2.52,1.78-2.54,2.94-.06,1.33-2.79,5.35-.63,6.09,1.71.9.08.92.39.13.92.16,1.17-.28,1.69-1.3,1.04-.84.21-1.95-.09-2.74.28-.97.46-1.82,1.22-3.09.82-.67-.21-1.33-1.07-1.87-1.55,0-.3-.37-.67-1.14-1.09-1.91-.72-1.58-1.41.99-2.08Z"/>
      <path class="cls-26" d="M91.02,78.46c-.24-1.94.55-1.95,1.2-.04.78-2.28,1.72-2.9,2.82-1.87.16.58.49.42.91.27,1.87.46,2.75,2.74,1.46,4.22-.92,1.07.42,1.44,1.09,2.07-.21,2.48-3.82,1.48-4.13-.76-.98.22-1.99-.07-3.03-.89-.13-.43-.75-.66-1.03-.96-2.47-1.52-2.16-2.48.73-2.03Z"/>
      <path class="cls-48" d="M85.38,76.38c.77-1.78,3.25-1.31,4.06.24,2.06-2.31,3.12-.45,1.59,1.84-.5.56-.78,1.28-.73,2.03l-1.89.05c-1.2-.07-2.64-.88-3.06-2.04l-.13-.92c-1.83-.13-1.76-.94.16-1.2Z"/>
      <path class="cls-51" d="M94.36,82.35c1.22.81,2.7.9,4.13.76,3.11,1.69,3.16,2.65.17,2.87-.84-.37-1.98,0-2.86-.45-1.03-.51-1.65-1.35-2.44-2.1-.41-.85-.03-1.18,1.01-1.08Z"/>
      <path class="cls-124" d="M85.35,78.5c1.38-.23,2.98.54,3.06,2.04-1.43,1.16-3.16.1-4.36-1-.52-.84.75-.95,1.3-1.04Z"/>
      <path class="cls-171" d="M94.36,82.35c-.3.39-.64.75-1.01,1.08-.69-.65-1.71-.93-2.02-1.98,1.11-.18,2.3-.02,3.03.89Z"/>
      <path class="cls-54" d="M45.96,74.86c.97.23,1.77,1.14,2.11,2.01-1.62.18-3.28.19-4.91.26l-.03-1c.52-.59,1.47-1.02,2.84-1.27Z"/>
      <path class="cls-40" d="M32.02,73.52c3.25,1.04,6.65.89,10.03.65.28-.02.76-.16,1-.03.91.48,1.93.49,2.91.73-.08.89-.35,1.55-1.28,1.23-.4-.14-1.18.31-1.56.04-2.9-2.04-6.65-.32-10.03-.65-.9-.38-1.63-1.05-2.07-1.93.31-.01.71-.13,1-.03Z"/>
      <path class="cls-160" d="M26.8,65.43c.46.05.94-.02,2.01.54-.82,1.14-1.69,2.04-2.76,2.7-.41-.97-.52-2.94.75-3.25Z"/>
      <path class="cls-196" d="M56.5,58.33c.7.06,1.43.67,2.13.59,2.88.32,2.95,2.48.26,3.49.16.88-.23,1.61-1.17,2.21.88.25.88.59.03,1-.04,1.73-1.75,1.99-2,.07.07-.96-.91-1.34-1.16-2.07l-.97-2.85c.05-.68.21-1.5.7-1.88.66-.51,1.47-.49,2.18-.55Z"/>
      <path class="cls-151" d="M58.63,58.92l2.89-.33c.35-.04.73.03,1.08-.02,1.28.96,2.02,2.56,2.22,4.79,2.68,1.04,2.78,1.79.17,3.06-1.17,1.63-1.89,1.07-1.2-.9-1.79.25-2.81-.09-3.07-1.01-1.43.27-2.11-.9-1.83-2.1l-.26-3.49Z"/>
      <path class="cls-29" d="M53.03,70.76c1.05-.81,1.23-2.65,2.64-3.14,1.55-.51,1.48.02.32,1.15,1.16.08,2.48.66,3.95,1.76-.84-3.56-.23-4.95,1.85-4.19-.29-1.43.78-1.28,2-.82.3.39.83.58,1.2.9,1.56-1.17,2.02-.49.7.99.56,1.47-.05,4.43-1.59,5.07,1.49,1.74.94,2.52-1.21,1.73-2.07.9-6.33,1.98-7.68-.3-1.84,2.97-3.24-.61-2.2-3.14Z"/>
      <path class="cls-107" d="M53.03,70.76c-.06.55.05,1.82.41,2.37.33.5,1.18.3,1.79.77,3.73-.37,3.78,2.2.34,2.71-.86-.64-2.66.05-3.63-.52.92-1.64-.61-4.03,1.08-5.34Z"/>
      <path class="cls-88" d="M55.76,65.69l2-.07c1.65,0,2.16,1.51.29,1.93,1.28,2.49-.03,3.11-2.06,1.22-.21-.21-.31-.85-.32-1.15-.03-.6.05-1.3.09-1.93Z"/>
      <path class="cls-65" d="M106.32,83.94c.58.65,1.83,1.05,2.19,1.9,1.1,2.64,4.38,1.8,5.94,3.87,1.86-.57,2.01.18.23,1.12-1.25-1.54-3.43-.56-4.87-1.06-2.39-.83-4.74-1.94-7.18-2.63-.85-.31-.78-.61.12-.89,1.57-.02,3.27-.63,3.57-2.31Z"/>
      <path class="cls-129" d="M120.66,90.44c.26.06.86-.34,1.24-.52.25-.12-.06-.61-.15-.93.03-1.69.78-1.8,1.57-.26,1.92-.33,2.1.44.43,1.51-.38.72-.71,1.47-1.01,2.23-2.42.2-5.19.12-7.06-1.56.38-2.44,3.2-1.61,4.99-.47Z"/>
      <path class="cls-125" d="M120.66,90.44c-1.37-.31-3.62-.26-4.99.47-.27.12-.7-.12-1-.07l-.23-1.12c1-.67,2.01-1.73,3.03-1.35,1.39.52,2.56.99,3.19,2.07Z"/>
      <path class="cls-128" d="M123.32,88.72c-2.12-1.41-1.85-2.23.15-3.48.67-.17,1.25-.9,1.98-.98l1-.03c1.01,1.08.51,2.5.26,3.58-.39,1.66-1.43,2.45-2.96,2.42l-.43-1.51Z"/>
      <path class="cls-125" d="M123.47,85.25c.79,1.02.33,2.39-.15,3.48-.33.14-1.25.63-1.57.26-1.05-1.21-3.34-.58-3.51-3.06,2.04-1.02,3.8-.31,5.24-.67Z"/>
      <path class="cls-37" d="M65.66,60.64c.3-.87.65-.86,1.04,0,.89,1.21,2.41,1.2,3.77,1.42-.15.95-.06,1.92,0,2.86-3.34,1.29-5.23.77-5.66-1.57-1.55-.92-1.04-3.21.84-2.72Z"/>
      <path class="cls-31" d="M66.12,56.42c.95.67,1.43,1.83,1.71,2.91-.48.23-.66,1.03-1.12,1.31h-1.04c-1.47,1.6-2.22-.13-1.25-1.73.66-.69.88-1.94,1.7-2.49Z"/>
      <path class="cls-175" d="M64.82,63.36c1.92.42,3.86.75,5.66,1.57.7.32,1.59.17,2.33.25l.21.92c1.81,1.6.87,2.73-1.41,2.21-.13.89-.41.88-.84.05-1.78-.76-2.7.87-2.74,4.9-1.49,1.54-2.33,1.12-1.91-.99-.53-1.01-.67-2.64-.43-4.87-.33-.16-.42-.74-.7-.99.04-1.02-.01-2.04-.17-3.06Z"/>
      <path class="cls-62" d="M69.22,70.88c-.17-2.49,4.09-1.86,3.64.28l1.21.06c-.27.93,1.29,2.77,2.83,1.52-1.78-2.02-.41-3.92,1.99-3.78.18-1.56.87-1.48,1.38.07,1.11.78,1.21,2.34,2.72,2.7,1.07-1.27,1.91.79,1.2,1.99-1.49,1.02-3.18,1.74-5.06,2.14-.95.18-1.97-.03-2.94.06-.88,1.6-2.65,1.08-4.06.09-.31,1.6-1.05,1.39-1.32-.33-2.27.32-2.84-.13-1.72-1.37-.61-1.07-.85-2.62.13-3.44Z"/>
      <path class="cls-82" d="M84.81,66.54l.03,1.13-1.9.12c-1.86.24-2.9-.07-3.13-.95.5-.97,1.35-1.82,2.63-2.06,1.02-.19,2.16.54,2.37,1.75Z"/>
      <path class="cls-144" d="M83.92,69.71c.66.88.88,1.96,1.27,2.96,1.4,1.85.84,2.5-1,1.07-.38-.55-.35-1.78-1.2-1.99-.21-.71-.1-2.1.93-2.03Z"/>
      <path class="cls-13" d="M78.82,66.88l1-.03c1.14-.04,2.3.11,3.13.95-1,.15-1.97.49-2.67,1.24l-1.38-.07c-2.5.35-2.25-1.26-.08-2.08Z"/>
      <path class="cls-74" d="M85.19,72.66c.63,1.61,2.4,1.52,3.9,1.86.3-.86.63-.87,1-.03l.03,1c1.75,1.19,1.35,1.85-.69,1.13-1.36.03-2.72-.04-4.06-.24-2.28.34-2.51-.88-1.19-2.65.63.37.96-.62,1-1.07Z"/>
      <path class="cls-130" d="M90.95,70.46c.31.36.66.68,1.03.96-1.02.76-1.94,1.73-1.89,3.07-.33-.04-.68.11-1,.03.36-1.59-.76-2.67-2.23-3.53,1.7-.92,2.93-.31,4.08-.54Z"/>
      <path class="cls-83" d="M74.92,68.97c-1.22-1.54-.7-2.17,1.04-1.25l1.72-.78,1.14-.06.08,2.08c.06,1.53-1.59,2.47-1.99,3.78-2.43,2.25-3.28-.56-2.72-2.75-.11-.6.13-.94.74-1.02Z"/>
      <path class="cls-133" d="M90.12,75.49c1-.52,1.99-2.42,2.96-1.1,1.22.91.94,2.26-.86,4.03l-1.2.04c-.16-.86-.81-1.48-1.59-1.84.44-.21.7-.65.69-1.13Z"/>
      <path class="cls-169" d="M93.09,74.39c.32-.05.69.04,1-.03.38.7.74,1.42.96,2.19-1.02.49-1.91,1.19-2.82,1.87l.86-4.03Z"/>
      <path class="cls-102" d="M95.95,76.82c.33.09.96.22,1.11-.28.01.99,1.47.58,2.12.74.01.97.17,2.1,1.03,3.46-.76.75-1.85.09-2.81.31-.9-1.27-1.84-2.64-1.46-4.22Z"/>
      <path class="cls-136" d="M98.49,83.11c.82.72,1.87,1,2.94,1.11.85-1.33,1.47-1.45,1.6.17-.37.49-.22,1.31-.29,1.87l-.12.89c-1.34-.38-2.67-.6-3.96-1.16.44-.67.47-2.27-.17-2.87Z"/>
      <path class="cls-60" d="M102.36,82.07l2-.07c-.1.98-.77,1.65-1.32,2.39l-1.6-.17.93-2.15Z"/>
      <path class="cls-95" d="M73.03,66.1c1.01.39,3.29.17,2.93,1.62l-1.04,1.25c-1.4,1.34-3.7,1.46-3.3-.66.71-.55,1.24-1.31,1.41-2.21Z"/>
      <path class="cls-113" d="M62.6,58.57c.61-.08,1.4-.22,1.81.35l1.25,1.72c-.25.91-1.09,1.68-.84,2.72-.41-.09-.85-.2-1.25-.43-1.32-.77.26-3.01-.97-4.36Z"/>
      <path class="cls-183" d="M62.9,74.2c.66-.36,1.1-.99,1.21-1.73.91-1.57,1.54-2.12,2.02-.2.51.56,1.25.7,1.91.99.55-.59.9-.24,1.05,1.06.62.39,1.12.95,1.72,1.37.09,1.44-1.51,1.8-2.64,1.37-.49-.8-2.43-.24-3.25-.31-1.19-.11-2.64-.5-3.86-.31-1.03-1.98-.29-2.87,1.85-2.24Z"/>
      <path class="cls-77" d="M55.23,73.9c2.61-.49,5.54-1.66,7.68.3-.7.67-1.34,1.41-1.85,2.24-1.95.31-3.79,1.44-5.48.18.78-.76.5-2.07-.34-2.71Z"/>
      <path class="cls-135" d="M70.81,75.69c.29.2.96.31,1.32.33.88.29.88.65.04,1.1.88.25.88.59.03,1-1.44-.41-3,.62-4.04-1.06.5-.99,1.59-1.33,2.64-1.37Z"/>
      <path class="cls-58" d="M72.17,77.12c1.29-.78,2.93-.72,3.03.89.36.17,1.4-.36,1.95.36.19.26-.42.71-.81.72-1.58.68-2.86-.62-4.14-.98l-.03-1Z"/>
      <path class="cls-18" d="M84.19,73.73c.56.8,1.32,1.63,1.19,2.65l-.16,1.2c-2.37.58-3.73-2.15-6.09-1.71-.26-1.32.6-2.22,1.89-2.74.98-.39,2.15,0,3.17.59Z"/>
      <path class="cls-98" d="M76.19,75.93l-.99,2.08c-.87-.41-2-.8-3.03-.89l-.04-1.1c1.35.06,2.71.03,4.06-.09Z"/>
      <path class="cls-189" d="M57.76,65.62l-.03-1c1.01-1.82,2.45-1.01,2.03.93.83-.54,1.77-.18,2.03.8-1.53,1.16-.34,3.32-1.85,4.19-1.7.58-2.65-1.46-1.89-2.99l-.29-1.93Z"/>
      <path class="cls-29" d="M58.89,62.41c1.27-.1,1.57,1.26,1.83,2.1.49.87.12,1.19-.96,1.03-.51-.61-1.25-.93-2.03-.93-.06-.59-1.18-1.16-.95-1.55.32-.54,1.87-.73,2.12-.66Z"/>
      <path class="cls-36" d="M60.72,64.51c.96.15,2.35.07,3.07,1.01-.73.1-1.45.32-2,.82-.8.25-1.66-.02-2.03-.8.36-.31.68-.66.96-1.03Z"/>
      <path class="cls-68" d="M58.05,67.54c.95.76,1.59,1.81,1.89,2.99-.13.47-.65,2.28-1.62,1.62-1.14-.77-1.44-2.5-2.32-3.38l2.06-1.22Z"/>
      <path class="cls-91" d="M70.78,68.36c.01.91-.51,1.75-1.56,2.52l-.13,3.44c-.4-.25-.63-.87-1.05-1.06.68-5.85-3.21-7.85,1.17-7.03.73.14,1.17,1.28,1.58,2.13Z"/>
      <path class="cls-10" d="M70.78,68.36l.84-.05c.83.96,2.15.83,3.3.66-.26.32-.42.75-.74,1.02,1.05,1.4.14,2.48-1.32,1.16-.89-1.03-2.56-.82-3.64-.28.03-.66-.39-1.36-.22-2.05.22-.88,1.09-.88,1.78-.46Z"/>
      <path class="cls-12" d="M65.69,67.4c2.14,1.06-.13,3.23.43,4.87l-2.02.2,1.59-5.07Z"/>
      <path class="cls-98" d="M72.86,71.16l1.32-1.16c.94.49,1.36,1.45,1.16,2.88.6.33,1.16.13,1.55-.13-.45,1.46-1.48,1.61-3.35,1.26-.97-.19-.2-2.27-.7-2.84Z"/>
    </g>
  </g>
</svg>