<?xml version="1.0" encoding="UTF-8"?>
<svg id="Enemy" xmlns="http://www.w3.org/2000/svg" viewBox="0 0 95.84 127.38">
  <defs>
    <style>
      .cls-1 {
        fill: #422f27;
      }

      .cls-2 {
        fill: #675b46;
      }

      .cls-3 {
        fill: #111;
      }

      .cls-4 {
        fill: #453f33;
      }

      .cls-5 {
        fill: #313132;
      }

      .cls-6 {
        fill: #38332d;
      }

      .cls-7 {
        fill: #8d867e;
      }

      .cls-8 {
        fill: #695e50;
      }

      .cls-9 {
        fill: #9d896e;
      }

      .cls-10 {
        fill: #9e876b;
      }

      .cls-11 {
        fill: #463a29;
      }

      .cls-12 {
        fill: #73563f;
      }

      .cls-13 {
        fill: #634e3b;
      }

      .cls-14 {
        fill: #382e23;
      }

      .cls-15 {
        fill: #ddb89f;
      }

      .cls-16 {
        fill: #493f35;
      }

      .cls-17 {
        fill: #525253;
      }

      .cls-18 {
        fill: #76624c;
      }

      .cls-19 {
        fill: #575650;
      }

      .cls-20 {
        fill: #d3b49c;
      }

      .cls-21 {
        fill: #826f5d;
      }

      .cls-22 {
        fill: #b28b72;
      }

      .cls-23 {
        fill: #615348;
      }

      .cls-24 {
        fill: #141413;
      }

      .cls-25 {
        fill: #2d281e;
      }

      .cls-26 {
        fill: #917862;
      }

      .cls-27 {
        fill: #2f2519;
      }

      .cls-28 {
        fill: #4d4944;
      }

      .cls-29 {
        fill: #907e66;
      }

      .cls-30 {
        fill: #a49279;
      }

      .cls-31 {
        fill: #362614;
      }

      .cls-32 {
        fill: #745d50;
      }

      .cls-33 {
        fill: #f1ccb4;
      }

      .cls-34 {
        fill: #93785f;
      }

      .cls-35 {
        fill: #786558;
      }

      .cls-36 {
        fill: #907b63;
      }

      .cls-37 {
        fill: #705f4c;
      }

      .cls-38 {
        fill: #af9276;
      }

      .cls-39 {
        fill: #8d7b62;
      }

      .cls-40 {
        fill: #ad8d7b;
      }

      .cls-41 {
        fill: #927d68;
      }

      .cls-42 {
        fill: #c9ae8b;
      }

      .cls-43 {
        fill: #8e7a67;
      }

      .cls-44 {
        fill: #746f66;
      }

      .cls-45 {
        fill: #9f896c;
      }

      .cls-46 {
        fill: #615a4b;
      }

      .cls-47 {
        fill: #544c3e;
      }

      .cls-48 {
        fill: #c8af94;
      }

      .cls-49 {
        fill: #131313;
      }

      .cls-50 {
        fill: #9a8164;
      }

      .cls-51 {
        fill: #81756b;
      }

      .cls-52 {
        fill: #4b3a28;
      }

      .cls-53 {
        fill: #8f8982;
      }

      .cls-54 {
        fill: #543d33;
      }

      .cls-55 {
        fill: #1f1e1a;
      }

      .cls-56 {
        fill: #1b1913;
      }

      .cls-57 {
        fill: #46473a;
      }

      .cls-58 {
        fill: #54483b;
      }

      .cls-59 {
        fill: #59493b;
      }

      .cls-60 {
        fill: #543b26;
      }

      .cls-61 {
        fill: #d9bda3;
      }

      .cls-62 {
        fill: #aa896e;
      }

      .cls-63 {
        fill: #736352;
      }

      .cls-64 {
        fill: #4e4234;
      }

      .cls-65 {
        fill: #352c23;
      }

      .cls-66 {
        fill: #1b1718;
      }

      .cls-67 {
        fill: #8e8174;
      }

      .cls-68 {
        fill: #ae9980;
      }

      .cls-69 {
        fill: #ab937b;
      }

      .cls-70 {
        fill: #6a5e50;
      }

      .cls-71 {
        fill: #565551;
      }

      .cls-72 {
        fill: #b49278;
      }

      .cls-73 {
        fill: #7d6952;
      }

      .cls-74 {
        fill: #9b7d64;
      }

      .cls-75 {
        fill: #8a8174;
      }

      .cls-76 {
        fill: #41362c;
      }

      .cls-77 {
        fill: #4a3f31;
      }

      .cls-78 {
        fill: #2a2b28;
      }

      .cls-79 {
        fill: #8a7b62;
      }

      .cls-80 {
        fill: #31281f;
      }

      .cls-81 {
        fill: #412515;
      }

      .cls-82 {
        fill: #8b7257;
      }

      .cls-83 {
        fill: #503021;
      }

      .cls-84 {
        fill: #2c2b27;
      }

      .cls-85 {
        fill: #2c291b;
      }

      .cls-86 {
        fill: #655748;
      }

      .cls-87 {
        fill: #604e3f;
      }

      .cls-88 {
        fill: #ab9b80;
      }

      .cls-89 {
        fill: #0c0a05;
      }

      .cls-90 {
        fill: #624f42;
      }

      .cls-91 {
        fill: #c1ad94;
      }

      .cls-92 {
        fill: #796959;
      }

      .cls-93 {
        fill: #292a2c;
      }

      .cls-94 {
        fill: #292725;
      }

      .cls-95 {
        fill: #c4ad9a;
      }

      .cls-96 {
        fill: #3f3c35;
      }

      .cls-97 {
        fill: #373737;
      }

      .cls-98 {
        fill: #987b65;
      }

      .cls-99 {
        fill: #242521;
      }

      .cls-100 {
        fill: #74624f;
      }

      .cls-101 {
        fill: #6e5c47;
      }

      .cls-102 {
        fill: #a7896d;
      }

      .cls-103 {
        fill: #574e3f;
      }

      .cls-104 {
        fill: #e1c7a4;
      }

      .cls-105 {
        fill: #0a0a0f;
      }

      .cls-106 {
        fill: #3d3429;
      }

      .cls-107 {
        fill: #473e36;
      }

      .cls-108 {
        fill: #47433d;
      }

      .cls-109 {
        fill: #3c2312;
      }

      .cls-110 {
        fill: #957a62;
      }

      .cls-111 {
        fill: #72604e;
      }

      .cls-112 {
        fill: #907f6e;
      }

      .cls-113 {
        fill: #52412f;
      }

      .cls-114 {
        fill: #5a534b;
      }

      .cls-115 {
        fill: #323028;
      }

      .cls-116 {
        fill: #6c5a4c;
      }

      .cls-117 {
        fill: #9e9b94;
      }

      .cls-118 {
        fill: #6c604e;
      }

      .cls-119 {
        fill: #7f694a;
      }

      .cls-120 {
        fill: #5e5a51;
      }

      .cls-121 {
        fill: #847162;
      }

      .cls-122 {
        fill: #463e30;
      }

      .cls-123 {
        fill: #3a3324;
      }

      .cls-124 {
        fill: #534432;
      }

      .cls-125 {
        fill: #47423a;
      }

      .cls-126 {
        fill: #c8c4be;
      }

      .cls-127 {
        fill: #bab9b1;
      }

      .cls-128 {
        fill: #504d45;
      }

      .cls-129 {
        fill: #322c23;
      }

      .cls-130 {
        fill: #67442e;
      }

      .cls-131 {
        fill: #715b4e;
      }

      .cls-132 {
        fill: #766957;
      }

      .cls-133 {
        fill: #9e8870;
      }

      .cls-134 {
        fill: #260700;
      }

      .cls-135 {
        fill: #281d11;
      }

      .cls-136 {
        fill: #6c5a4d;
      }

      .cls-137 {
        fill: #4b321f;
      }

      .cls-138 {
        fill: #9e8b75;
      }

      .cls-139 {
        fill: #9e806e;
      }

      .cls-140 {
        fill: #bb9f84;
      }

      .cls-141 {
        fill: #736350;
      }

      .cls-142 {
        fill: #967d5d;
      }

      .cls-143 {
        fill: #544b3f;
      }

      .cls-144 {
        fill: #caac8d;
      }

      .cls-145 {
        fill: #6f5443;
      }

      .cls-146 {
        fill: #efd7b7;
      }

      .cls-147 {
        fill: #322c1c;
      }

      .cls-148 {
        fill: #655b53;
      }

      .cls-149 {
        fill: #6e6459;
      }

      .cls-150 {
        fill: #a39378;
      }

      .cls-151 {
        fill: #6c5f4e;
      }

      .cls-152 {
        fill: #d1ac93;
      }

      .cls-153 {
        fill: #090301;
      }

      .cls-154 {
        fill: #19130d;
      }

      .cls-155 {
        fill: #837a67;
      }

      .cls-156 {
        fill: #524d42;
      }

      .cls-157 {
        fill: #c0a584;
      }

      .cls-158 {
        fill: #372821;
      }

      .cls-159 {
        fill: #a9916e;
      }

      .cls-160 {
        fill: #b2a486;
      }

      .cls-161 {
        fill: #fbe2c5;
      }

      .cls-162 {
        fill: #8a8577;
      }

      .cls-163 {
        fill: #b59c7f;
      }

      .cls-164 {
        fill: #1a0c01;
      }

      .cls-165 {
        fill: #15120e;
      }

      .cls-166 {
        fill: #74533a;
      }

      .cls-167 {
        fill: #e6e5df;
      }

      .cls-168 {
        fill: #d4b7a1;
      }

      .cls-169 {
        fill: #363630;
      }

      .cls-170 {
        fill: #5b4a3a;
      }

      .cls-171 {
        fill: #2b1808;
      }

      .cls-172 {
        fill: #57483a;
      }

      .cls-173 {
        fill: #f5caae;
      }

      .cls-174 {
        fill: #7d6759;
      }

      .cls-175 {
        fill: #b79d83;
      }

      .cls-176 {
        fill: #947d66;
      }

      .cls-177 {
        fill: #9a907f;
      }

      .cls-178 {
        fill: #b0987f;
      }

      .cls-179 {
        fill: #b4a38e;
      }

      .cls-180 {
        fill: #242118;
      }

      .cls-181 {
        fill: #1d1e1c;
      }

      .cls-182 {
        fill: #242424;
      }

      .cls-183 {
        fill: #1b1c19;
      }

      .cls-184 {
        fill: #574c3c;
      }

      .cls-185 {
        fill: #191613;
      }

      .cls-186 {
        fill: #39352d;
      }

      .cls-187 {
        fill: #b59882;
      }

      .cls-188 {
        fill: #342e27;
      }

      .cls-189 {
        fill: #a3876a;
      }

      .cls-190 {
        fill: #89775a;
      }

      .cls-191 {
        fill: #544231;
      }

      .cls-192 {
        fill: #6c6761;
      }

      .cls-193 {
        fill: #4b433a;
      }

      .cls-194 {
        fill: #291e14;
      }

      .cls-195 {
        fill: #ae977b;
      }

      .cls-196 {
        fill: #b9a48f;
      }

      .cls-197 {
        fill: #3d3629;
      }

      .cls-198 {
        fill: #4a3c32;
      }

      .cls-199 {
        fill: #342a20;
      }

      .cls-200 {
        fill: #423626;
      }

      .cls-201 {
        fill: #381705;
      }

      .cls-202 {
        fill: #a68d70;
      }

      .cls-203 {
        fill: #5f564d;
      }

      .cls-204 {
        fill: #ad947a;
      }

      .cls-205 {
        fill: #694c35;
      }

      .cls-206 {
        fill: #baa08a;
      }

      .cls-207 {
        fill: #ac9d95;
      }
    </style>
  </defs>
  <g>
    <path class="cls-153" d="M45.14.37c.61.44,1.2.68,1.92.89-.84,1.67-3.91,1.55-4.98.13.91-.5,1.56-2.11,3.06-1.02Z"/>
    <path class="cls-106" d="M29.35,18.37l-.02.91c-.76,1.63-3.37,3.3-5.04,1.99l-.16-2.1c.8-.92,1.92-1.4,3-1.9,1.26-.63,2.34-.39,2.22,1.1Z"/>
    <path class="cls-154" d="M29.35,18.37c-.86-.05-1.83-.24-2.22-1.1.36-.28.9-.84,1.16-1.24.88.08,1.67-.17,2.69-.81.67,1.94-.74,2.45-1.63,3.16Z"/>
  </g>
  <g>
    <path class="cls-49" d="M73.12,26.31c-.1-2.29,2.73-1.34,4.15-.02,2.22,2.22,3.47,3.91-.12,5.03-2.61,1.49-5.66,2.06-9.15,1.7-.11.88-.41.86-.9.06-2.55,1.85-6.98.26-2.47-1.85l-.73-.91c-2.45,2.02-2.62,1.12-2.73-1.88,2.39-2.85,5.25-.7,11.94-2.14Z"/>
    <path class="cls-5" d="M61.18,28.45c.76.82,1.72,1.4,2.73,1.88.69,2.05-1.24,3.44-3.56,4.16,1.85.08,2.12,3.47-.02,3.77-1.1,1.73-1.85,1.2-1.2-.83-1.15-.14-1.97-1.06-1.96-2.28-1.29,1.42-1.86.92-.99-.83-.39-.99-.07-1.34.95-1.04.13-.9,1.46-1.57,4-2l-2-1-.86-1.12c.96-.25,1.91-.61,2.91-.7Z"/>
    <path class="cls-182" d="M86.25,29.49c-2.14.45-2.95-.98-1.07-2.39.21.15.67.13.95.17,2.83.49,5.7-1.17,9.03-.83,1.21.12.57,1.41-.05,1.48-.77.09-1.29.96-2.13.93-2.47-.09-4.68-.22-6.73.63Z"/>
    <path class="cls-49" d="M85.17,27.1l1.07,2.39c-.39.16-.64.67-1.01.88-.76-.09-1.6-.51-2.36-.46-2.76-.11-5.64-.5-3.75-3.64,2.08-.39,4.36-.65,6.05.83Z"/>
    <path class="cls-44" d="M55.36,27.41c.2.64.47,1.26.76,1.86-.62.84-2.04.7-3,.21-.44.8-.8.76-1.06-.1-1.92.06-1.92-.68-.08-1.4-2.15-1.73-1.66-2.12.92-1.69.82.37,1.66.7,2.46,1.12Z"/>
    <path class="cls-180" d="M56.12,29.27c.69-.07,1.48.05,2.14-.12.32.35.6.72.86,1.12-.51,1.07-2.78.58-4,0-.1.92-.45.87-1,0-1.09,1.75-1.71,1.27-1-.79.99-.16,2-.11,3-.21Z"/>
    <path class="cls-180" d="M45.12,21.35c.3-.88.66-.86,1.07,0,1.93,2.01,4.15,3.8,6.71,4.95l-.92,1.69c-.97.41-1.87,1.07-2.7,1.98-.04,2.82-1.34,2.7-2.28.12-2.31-.98-3.44-3.6-2.98-6.02-2.94-.13-2.41-2.72.2-2.62.11-.9.41-.91.9-.09Z"/>
    <path class="cls-152" d="M49.42,13.44c1.65.27,1.22,2.83.48,4.08l-.51,1.9c-.47.23-.86.68-1.36.86-1.39.28-1.78-.62-1.9-2.01-.76,1.32-1.43.98-2.01-1.04-.45,2.64-1.38,2.48-2.02-.1-2.5-.59-1.02-4.17,1.15-3.96-.33-3.01,5.29-1.38,6.17.27Z"/>
    <path class="cls-118" d="M48.02,20.28c-.68.24-1.36.48-1.83,1.07h-1.07c-.81-1.08-.56-2.87,1-3.07.23.24,1.01-.03,1.38.22.56.38.68,1.12.52,1.78Z"/>
    <path class="cls-182" d="M79.12,26.27c.7,1.76,2.81,2.09,3.75,3.64-1.91.13-3.79,1.5-5.72,1.42.14-.41,1.22-1.24.9-1.57-.38-.4-2.25-.49-2.84-.98.68-.72,2.19-1.12,2.05-2.49.57.05,1.3.08,1.85-.02Z"/>
    <path class="cls-24" d="M67.1,33.08c1.76-.06,1.85.71.02,1.19-.91,1.65-3.84,1.5-5,0,.19,2.66-.72,2.64-1.77.22.93-1.59,2.43-2.73,3.56-4.16l9.88-1.37c-3.42,2.89-7.38,2.58-10.7,3.78,1.47,1.18,2.9.25,4.01.36Z"/>
    <path class="cls-78" d="M77.15,31.33c-.94.72-2.22,1.42-2.08,2.84,1.15,2.65-1.1,3.26-2.63.94-.9-.06-.93-.38-.15-.93-2.32.39-3.75,0-4.29-1.14,2.7-1.56,6.04-1.84,9.15-1.7Z"/>
    <path class="cls-97" d="M78.2,34.47c.73,2.66.54,5.25-2.19,6.6-1.66,1.1-2.78-.18-3.36-3.83-2.79.37-2.73-1.17-.2-2.13l2.63-.94c.96-.34,2.12.34,3.13.3Z"/>
    <path class="cls-185" d="M59.12,37.42c.26.37.8.64,1.2.83,1.14-1.73,2.06-1.17,1.96.96,1.97.31,1.94,1.23,0,1.85,2.51,2.69-.69,5.63-3.31,3.09-1.5,2.58-4.06.6-3.05-2.03-2.78-.82-3.14-1.8-.82-3.66-1.97.02-1.95-.76.02-1.19.28-.87.62-.86,1,0,.95-1.38,2.31-1.34,3,.15Z"/>
    <path class="cls-7" d="M62.12,34.27c1.79.46,2.84.78,1.13,2.14,1.27.85,1.05,3.73-.96,2.8-.63-.37-1.3-.65-1.96-.96l.02-3.77,1.77-.22Z"/>
    <path class="cls-94" d="M61.12,31.27c-.5,1.83-2.84.95-4,2-1.03.38-2.64.21-3-1-2.66-.32-2.54-1.24,0-2,.32.04.67,0,1,0,2.07.37,4.07.71,6,1Z"/>
    <path class="cls-180" d="M54.12,32.27c1.08-.05,2.54-.22,3,1-.35.32-.73.61-.95,1.04-.06,2.1-1.38,1.89-2.05-.04-5.26,4.33-4.68-6.61,0-2Z"/>
    <path class="cls-94" d="M56.18,34.31l.99.83c1.61.97.7,1.99-1.04,2.13h-1c-1.28.71-1.85.22-1-1-2.66-.32-2.54-1.24,0-2l2.05.04Z"/>
    <path class="cls-17" d="M59.12,30.27c.86,0,2.12-.26,2,1-1.98-.24-4.73.9-6-1h4Z"/>
    <path class="cls-105" d="M59.12,37.42l-3-.15,1.04-2.13c2.21.15,1.72,1.94,1.96,2.28Z"/>
    <path class="cls-183" d="M54.12,30.27v2c-.58.03-1.06.1-1.42.17-.6.1-.95.67-.58,1.32.27.47,1.34.45,2,.52v2c-.27,1.32-1.8,1.24-3,1-.18,1-1.18,1-3,0,.57,2.39-.09,2.42-2.02,1.04-.2.88-.52.86-.95,0-.98.31-1.3-.01-.96-.98-.9-.11-.83-.35.08-.71.13-1.88.39-3.44.95-5.35-.53-.44-.22-.83.95-1.17.15-.88.43-.87.83-.02l2.28-.12c.48-1.94,1.56-2.17,2.78-.59.31-.11.73.16,1.06.1.16.41.55.73,1,.79Z"/>
    <path class="cls-162" d="M51.98,27.98l.08,1.4c-.9.32-1.83.54-2.78.59.16-1.19.13-2.4.59-3.76,1.49.43,1.99,1.04,2.11,1.78Z"/>
    <path class="cls-3" d="M64.36,42.05c1.33-.46,3.45-.66,4.87.13.18-.88.48-.86.89-.01,1.91-1.47,4.78-1.67,2.13.76-.46.23-.81,1.12-1.3,1.35-.04,2.64-1.98,4.28-4.51,4.76-1.27-.01-1.9.77-3.29.22-5.1-1.16-6.5-2.87-4.18-5.11,1.55-.57,2.91-1.41,3.31-3.09,1.48-2,2.62-1.44,2.08.99Z"/>
    <path class="cls-99" d="M76.01,41.07l-3.75,1.86c.81-.88-.16-.63-.52-.65l-1.61-.11c-2.28-1.32-1.44-2.96,2.52-4.93,1.48.91,2.18,2.6,3.36,3.83Z"/>
    <path class="cls-134" d="M51.38,4.07c.31-.1.83.17,1.11,0,.79,1.37,1.35,2.79,1.49,4.35-.9,1.53-2.23,2.54-3.99,3.02-.53,1.52-3.1,1.04-3.59-.35-3.63-2.14,1.62-11.6,4.99-7.03Z"/>
    <path class="cls-207" d="M53.98,8.43c.17,1.86-1.33,3.04-1.96,4.58-.92,1.2-1.61,1.3-2.08.3-1.94-.56-1.94-1.41.04-1.87.29-.8.27-2.47,1.12-3.26.56-.52,1.97.54,2.88.24Z"/>
    <path class="cls-131" d="M52.02,13.01c-.68,1.65.23,4.11-2.13,4.51-.93-1.17-.8-2.69-.48-4.08-.32-.84-.13-.85.52-.13l1.64-1c.25-.15.77-.05.44.69Z"/>
    <path class="cls-118" d="M47,30.08l-.83.02c-4.26,3.5-6.65-2.47-4.17-5.01-.47-2.66.14-2.97,2.02-1.03,2.15,1.28,3.1,3.56,2.98,6.02Z"/>
    <path class="cls-139" d="M44.12,17.23c1.54.82.87,3.03.1,4.21-.62.76-.62,1.76-.2,2.62-.7.3-1.38.63-2.02,1.03-1.54,2.01-1.96,1.68-2.89-.58-.85-.27-.92-.65-.2-1.15,1.57-1.06,1.83-2.08,2.31-4.11-2.54-1.19-1.92-2.28.87-2.12l2.02.1Z"/>
    <path class="cls-145" d="M46.12,18.27c-.56.94-.86,2-1,3.08l-.9.09-.1-4.21c.79.04,1.5.53,2.01,1.04Z"/>
    <path class="cls-33" d="M43.25,13.17l-1.15,3.96c-.19.66-.84,1.4-.87,2.12-.52,2.41-1.22,5.05-3.2,2.02-3.22,1.83-6.96-3.6-2.86-4.89,1.35-1.98,3-3.37,4.96-4.19,0-2.01.93-2.34,2.22-.81,2.24-1.09,3.11.65.9,1.79Z"/>
    <path class="cls-22" d="M46.39,11.1l3.59.35c-.21.57.07,1.27-.04,1.87l-.52.13c-2.11-.21-4.26-1.49-6.17-.27.15-.51-.29-1.69-.9-1.79-2.5-3.86,4.98-5.09,4.04-.28Z"/>
    <path class="cls-169" d="M72.44,35.11l.2,2.13c.1,1.07,1.27,3.09-.43,3.54-.72.19-1.82-.35-2.09.02-.37.51-.26,1.06,0,1.37h-.89c-1.84.65-4.42-.45-4.15-2.65-2.2.37-1.81-2.57.1-3.03-.59-1.41.64-1.7,1.94-1.22,1.8.12,3.64-.1,5.17-1.1l.15.93Z"/>
    <path class="cls-19" d="M48.12,37.27l4,1c0-1.64,2.73-1.32,2.98.19.35,1.2.64,2.42.82,3.66-1.48.29-3.67-1.15-5.21-.39-1.82.89-1.84,3.82-3.67,4.42-2.78-.32-4.76-1.14-5.92-2.48-2.1,0-3.77-.46-5-1.4-.36,1.66-2.58,1.87-3,0-.87-.28-.86-.62,0-1,1.42-1.42,3.43-1.86,6.01-1.3,1.64-1.78,2.69-2.1,4.85-.67.42,1.25,1.12.93,2.12-.99.52-.52,1.25-1.04,2.02-1.04Z"/>
    <path class="cls-192" d="M65.18,36.48c-.79.96-.37,1.99-.1,3.03,2.69,1.5,2.33,3.2-.72,2.53-.37-.59-1.53-.65-2.08-.99.14-.58-.1-1.26,0-1.85.7-.76.67-1.83.96-2.8l1.93.08Z"/>
    <path class="cls-71" d="M54.12,36.27c.62.01.95.35,1,1,.03.37-.13.84-.02,1.19l-2.98-.19c-1,.25-1.44-.08-1-1,.38-1.3,1.92-1.02,3-1Z"/>
    <path class="cls-108" d="M44.19,37.34c.28.37.6.69.96.98,1.11,1.63.48,2.15-1.16.98-3.46,1.55-7.05,2.51-10.87,1.97-1.7-.77-1.8-1.64.15-1.83-.24-2.03.3-2.32,1.9-.98.09-1.01,1.52-1.42,1.98-.29,1.23.06,2.23-1.2,3.02-3.79l.94-.11c1.08.54,2.11,1.56,3.07,3.07Z"/>
    <path class="cls-103" d="M42.01,25.09c.21,1.27.42,2.57.88,3.99.42,1.3,1.93,1.32,3.29,1.02-.34.34-.54.9-.95,1.17.48,2.01-.35,2.55-1.96,1.25-.45.51-1.17.77-2.14.75-.37.85-.72.81-1.04-.08-1.55-1.75-2.32-6.89-.96-8.67.99,0,2.05-.02,2.89.58Z"/>
    <path class="cls-93" d="M44.27,36.62c-2.32.11-3.59-3.81-1.01-4.1.63-.34,1.34-.84,1.96-1.25.52,1.01,2.14.73,2.8,1.51-.57.89-1.72.89-2.29,1.53-.5.56,1.27,1.12,1.26,1.49-.92.8-2,1.38-2.71.83Z"/>
    <path class="cls-66" d="M43.27,32.52c-.23.24-.51.5-.83,1.03.97.93,1.69,1.89,1.83,3.07.03.23-.08.48-.08.71-.72-.12-1.93.74-2.35.28-.78-.85-.72-2.54-.72-3.35-.87-.28-.86-.62,0-1,.2-.45.38-1.01.87-1.29.43-.24.93.48,1.27.53Z"/>
    <path class="cls-53" d="M43.99,39.3c.45-.2.75-.72,1.16-.98h.95c-.02,1.09,1.31,2.42.83,3.6-.73,1.79-2.5.77-3.17-.58-.32-.64-.47-.92.22-2.04Z"/>
    <path class="cls-117" d="M51.12,37.27c.49,0,.89.59,1,1-1.25,1.12-3.04.12-4-1h3Z"/>
    <path class="cls-114" d="M63.99,117.17l1.14,2.09c1.18,3.35-5.47,2.47-6.33-.14-1.08.58-1.75.48-1.64-.77-1.86.19-3.11-.25-3.76-1.31-1.34-1.2-1.14-2.34.75-1.83-.79-1.59,1.85-2.9,2.98-1.76l1.06.07,5.8,3.65Z"/>
    <path class="cls-165" d="M65.12,119.27c1.48-1.44,2.16,1.68,1,3h-5l-2-1c-1.76-.32-2.08-.49-.43-1.36-.96-.13-.88-.39.1-.78,1.87,1.04,4.94,2.24,6.33.14Z"/>
    <path class="cls-28" d="M66.12,122.27c.14-1.09.21-2.53-1-3-.47-.18-1.03-.12-1.4-.17-.62-.09-.79-.6-.61-1.27.08-.31.37-.65.88-.65.92.58,2.92-.03,3.04,1.71.07,1.09.79,3.39-.9,3.39Z"/>
    <path class="cls-114" d="M59.12,121.27c.79,0,1.8.08,2,1h-7c-.88-.33-.88-.66,0-1,1.52-.64,3.95-1.21,5,0Z"/>
    <path class="cls-1" d="M57.28,66.26c.29.4.67.75,1.03,1.09.53.52.56,1.55.84,2.11,1.67,2.55-1.06,2.16-1.91.07-2.74,1.65-5.56-.54-3.91-3.5-3.36-.8-1.84-1.99.72-2.86,1.28.78,2.34,1.84,3.23,3.09Z"/>
    <path class="cls-87" d="M63.15,82.07c-.35-2.79.09-2.81,1.98-.81-.16.62-.04,1.38-.29,1.96-1.49,3.48-1.67,6.96-3.71,7.04-.18-2.19-.89-3.85-2.15-5-1.33,1.2-2.43-2.96-2.3-3.8.69-4.38,5.15-2.46,6.47.61Z"/>
    <path class="cls-149" d="M65.12,81.27c-.56.41-1.45.37-1.98.81-2.03-.99-3.1-2.76-1.83-4.85-1.12-.92-.5-2,.59-2.8-1.95.15-1.93-.65.02-1.21,2.51,1.85,4.01,4.91,3.2,8.05Z"/>
    <path class="cls-52" d="M59.15,69.46c1.41.74,2.06,2.59,2.78,3.75l-.02,1.21c-.35,1.48-1.07,2.27-2.24,1.01-.32,1.93-1.11,1.77-1.29-.21-.26-1.34-.69-2.71-1.28-4.12-1.87-.41-1.79-1.24.14-1.59.32.28.83.55,1.4.73.41.12.67-.37.52-.79Z"/>
    <path class="cls-138" d="M61.12,90.27c0,.32-.25.73-.18,1.04-.22.93-.54.92-.98.02-2.11-.2-2.46-2.8-.65-3.67l-.19-1.39c-.97-.18-1.02-.51-.15-1,1.45-.4,2.23.35,2.21,1.53l-.06,3.47Z"/>
    <path class="cls-84" d="M69.24,42.18c-.64.8-1.54,1.25-2.58,1.35-1.15.11-1.75-.55-2.3-1.47.6-.37.91-1.8.72-2.53,1.56.61,3.43,1,4.15,2.66Z"/>
    <path class="cls-81" d="M47.06,1.26c1.71.49,4.13.72,4.31,2.81-1.88-3.34-5,6.26-4.99,7.03-.71-.07-1.23-.98-1.96-1.19-.96-.27-1.38,1.12-2.09,1.47-.65.33-1.52.58-2.22.81-.49,2.03-1.42,2.09-2.01.08-2.26-2.13-1.24-5.66.7-8.29.27-1.81,2.03-1.91,3.26-2.59,1.58-.2,3.24-.25,4.98-.13Z"/>
    <path class="cls-27" d="M36.05,12.29c3.87.62,1.92,2.75-.88,4.1-1.07,1.88,1.77,3.52,2.86,4.89,1.93,1.12,2.23,1.81.89,2.09.19.25.13.82.2,1.15.53,2.72,1.7,5.89.96,8.67.51,1.13-1.13,5.34-2.92,4.98-.59.2-1.44-.02-1.98.29-.91-.21-.94-.58-.13-1.1-.75-1.89-.09-2.86,1.99-2.91-2.27-.82-2.27-2.6.22-3.04-1.35-.64-1.69-2.32-1.02-5.04-1.45.43-2.19-.64-2.23-3.22-1.62-.58-4.56-1.95-4.68-3.87-.88-.21-.85-.52.02-.91-1.65-1.15,1.51-2.21,1.39-2.1-1.09.99-2.06,1.37-2.45-.24.72-1.12,1.65-2.04,2.69-2.88.71-3.88,4.28-6.33,5.08-.86Z"/>
    <path class="cls-168" d="M38.92,23.36c-.61-.51-.58-1.48-.89-2.09.85.25,1.64,1.5,1.95.31.26-1.01.71-1.71,1.25-2.33-.03.84.06,1.62-.09,2.55-.16,1.02-.95,1.82-2.21,1.55Z"/>
    <path class="cls-152" d="M38.12,12.27c.54.09,1.49.1,2.01-.08-.65,1.11.02,2.72-.86,2.98l-4.1,1.21c.78-1.38,2.36-2.75.88-4.1l-.04-.99c.62-1.95,1.67-.69,2.11.97Z"/>
    <path class="cls-57" d="M46.94,50.35c-.3.41-.06,1.31-.46,1.66,1.05,1.22,1.82,4.72-.38,5.16,1,1.95-.19,2.21-1.97,1.1-.43.82-.77.75-1.04-.16-1.77-.8-2.09-3.08-.96-6.84-2.2-1.14-2.06-4.9,1.08-4.33.21-2.02,1.25-2.02,1.93-.1.18,1.08-.23,2.12-.92,3.01,1.27.5,1.99.42,2.73.51Z"/>
    <path class="cls-56" d="M47.05,46.15c-.62.2-1.27.58-1.91.68-.5.08-1.46.35-1.93.1-1.37,2.27-2.86,1.63-4.1-.57-.87-.34-.84-.71.03-1.1-.5-.42-.16-.75,1-1-.37-1.12-.06-1.03,1-.6,1.27-.05,7.19,0,5.92,2.48Z"/>
    <path class="cls-127" d="M33.13,42.27c.98-.03,2.02.13,3,0,2.66.32,2.54,1.24,0,2-.22,1.41-1.85,1.55-3,1,.3,2.13-.67,2.4-2.12.91-.23.87-.53.84-.89-.04-3.47,1.32-4.11-2.91-.88-3.75-.22-1.88,2.72-1.11,3.9-.13Z"/>
    <path class="cls-126" d="M41.12,43.67c.11.74-.54.6-1,.6-1.32.65-3.41,1.42-4,0v-2c1.91-.26,3.85-.28,5,1.4Z"/>
    <path class="cls-120" d="M33.13,41.27v1l-3.9.13c-2.75.27-2.62-1.26-.1-2.13.73-1.16,3.74-.52,4,1Z"/>
    <path class="cls-177" d="M32.05,35.77c1.23-1.54,3.27-.14,3,1.59l.13,1.1c-.56.36-1.1,1.1-1.9.98-1.35.77-3.07.71-5.15-.17-1.95-.88-1.52-1.72.63-1.11-.8-1.47.1-2.77,1.67-2.75.47-2.62,1.41-2.3,1.62.36Z"/>
    <path class="cls-148" d="M41.12,33.27v1c-1.44,1.58-.79,4.39-2.59,4.95-.47.15-1.08-.56-1.37-1.05l2.92-4.98,1.04.08Z"/>
    <path class="cls-80" d="M33.28,39.44l-.15,1.83c-1.3-.18-2.53-1.39-4-1-1.81,1.41-2.36.84-1-1,1.72-.21,3.45-.1,5.15.17Z"/>
    <path class="cls-47" d="M60.95,91.3c.63,2.6.39,5.08-1.2,7.69-1.03,1.69-.69,3.74-1.41,5.28-.91-.16-.98-.49-.22-1-1.1-.29-1.56-.43-.87-1.44-2.43-1.36-2.06-3.14,1.1-5.34-.85-.24-.83-.56,0-.96.59-.82.86-1.92.82-3.31-1.61-1.19-1.09-1.84.79-.89.32.02.66.06.98-.02Z"/>
    <path class="cls-25" d="M58.12,103.27c.14.3.1.69.22,1-.44.94-.3,2.17-1.27,2.87-.09.9-.41.92-.94.13-.87-.28-.86-.62,0-1-2.17.7-2.35.5-2-1.89-1.14-2,2.54-2.3,4-1.1Z"/>
    <path class="cls-181" d="M49.28,117.35c1.27-.06,2.46.35,2.75,1.94,1.38-1.44,3.22-1.57,5.12-.93.36.4,1.17.5,1.64.77-.11.24-.19.51-.1.78-1.21.6-2.73,1.06-4.57,1.36.05.32-.07.68,0,1-1.94,0-3.85,0-5.79-.23-1.43-1.75-1.12-7.62.95-4.68Z"/>
    <path class="cls-96" d="M50.18,114.29c4.43-1.25,3.25,5.54-.9,3.06-2.74-1.25-.34,3.77-.95,4.68-.83-.1-1.29-.41-1.3-1.14,0-.63-.06-1.11,0-1.62.05-1,.11-2,.1-3,2.03-1.23.73-4.12.93-6.14.12-.89.41-.89.86-.07.53,1.09.95,2.51,1.27,4.24Z"/>
    <path class="cls-143" d="M54.12,104.37c.9.17,2,.99,2,1.89-1.5,2.07-2.45,4.6-2.87,7.6,1.74-.73,2.12-.05.88,1.35l-.75,1.83c1.87,1.15.47,1.66-1.36,2.24-.63-.02-1.32.04-2.06-.3-.52-.24-.73-.96-.69-1.64.75-.75,1.64-.76,3.16-.79-.84-1.21-1.57-1.73-2.26-2.27-1.02-3.06-.91-7.12-.06-10.03.5-1.64,3.26-1.47,4,.1Z"/>
    <path class="cls-4" d="M57.12,113.45c-.91.7-2.55.71-2.98,1.76-.54-.27-.55-.96-.88-1.35-.08-1.9.42-3.23,1.87-1.6.32-1.77.79-2.68,2-1-.1.72.06,1.46,0,2.18Z"/>
    <path class="cls-96" d="M57.15,118.36c-1.57.84-3.36,1-5.12.93.43-.76,1.04-1.46,1.36-2.24,1.45-.23,2.85.14,3.76,1.31Z"/>
    <path class="cls-89" d="M58.69,119.9l.43,1.36h-5c.97-1.49,2.98-1.17,4.57-1.36Z"/>
    <path class="cls-115" d="M57.07,107.13c-.24,1.21.23,2.86.06,4.13l-2,1c-2.04-.67-1-4.77,1-5l.94-.13Z"/>
    <path class="cls-142" d="M42.76,60.14l.91-.81,5.45,2.94c.92-.04,1.92-.04,3,0-.68-.73-.54-1.25.41-1.55.72.66,1.17,1.62,1.51,2.45-.93.65-.86,1.84-.72,2.86-.69,2.6-2.34,2.77-3.49.32.07.91-.19.9-.74.1-1.58.73-3.26-.36-2.86-2.26-1.45,1.16-2.31.78-2.06-1.08-1.9,1.13-3.17.24-3.09-1.93-.31.55-.68.53-1.09,0-2.23-3.1,1.68-4.47,2.75-1.04Z"/>
    <path class="cls-167" d="M48.47,57.47c-1.28,1.42-2.16,1.9-2.37-.3.04-1.82-1.19-3.8.38-5.16,1.34-.97,1.95,1.28,2.28,2.09.45,1.1.73,2.58-.29,3.36Z"/>
    <path class="cls-70" d="M52.54,60.72c-.09.52-.28,1.03-.41,1.55-1.45.11-3.11-.55-5-2-2.17-1.21-.84-2.92,1.23-1.93,1.57.57,2.93,1.23,4.18,2.38Z"/>
    <path class="cls-21" d="M48.47,57.47l-.12.87c-.37.15-.88.31-1.07.62-.24.39-.3.93-.16,1.3-1.67.83-3.42-.11-3-2,.75-.17,1.46-.51,1.97-1.1l2.37.3Z"/>
    <path class="cls-202" d="M53.33,66.03c.86,1.59,2.58,2.33,3.91,3.5-.19.45.13,1.19-.14,1.59,1.41.66,1.2,3.4.04,4.44-.79,1.73-3.05,2.8-4.68,1.67-.45,2.85-2.62,2.79-3.51.08-.86-.28-.81-.59.07-.95-.37-1.14.37-1.17,2.22-.08-.18-1.3.16-2.29,1.04-2.98-.6-1.12-1.68-1.95-3.24-2.49-1.24-1.85-1.3-3.2.8-4.44,1.14-.32,2.32-.47,3.49-.32Z"/>
    <path class="cls-69" d="M61.32,77.23c1.4,1.21,2.14,3.03,1.83,4.85-1.42,1.2-2.07-1.08-4.49-1.42-1.02,1.73.12,3.17.32,4.61.04.29-.02.78.15,1,.57,1.64.69,3.06-1,2-4.01-.21-4.64-1.21-1.89-3-1.65-.77-3.43-5.8-2.29-7.48l4.42-2.55c.42-.04.86.21,1.29.21,1.29-.8,1.93.46,1.65,1.78Z"/>
    <path class="cls-196" d="M61.91,74.43c-.02.98.18,2.06-.59,2.8-.62-.54-1.65-.75-1.65-1.78l2.24-1.01Z"/>
    <path class="cls-45" d="M58.38,75.23c-.43.64-.69.93-1.24.32-.02-1.5-.94-3.1-.04-4.44,1.18-.11,2.06.23,2.14,1.61.05.91-.64,1.65-.85,2.51Z"/>
    <path class="cls-163" d="M59.97,91.32c-.49-.03-.51.76-.79.89.29,1.51.02,2.62-.82,3.31.05.3,0,.66,0,.96-1.03,3.38-4.09,5.07-4.23.78-.66-.29-.64-.63,0-1l1.16-3.14c-.24-2.12.12-3.67,1.08-4.66-.87-1.5-.28-1.57,1.76-.21,1.04-.12,1.12-1.17,1-2,1.11,1.45.91,3.32.85,5.06Z"/>
    <path class="cls-158" d="M38.82,3.98c.67,1.81-1.22,3.34-1.43,5.24-.07.61,1.08,1.25,1.21,1.63.16.47-.09,1.02-.47,1.42-.74-.12-1.37-.8-2.11-.97-.08-2.24.13-4.51,1.25-6.48.31-.54.99-.73,1.56-.84Z"/>
    <path class="cls-203" d="M24.29,21.27c2.38.86,2.26,1.88,0,2.95-.56,1.28-1.11,2.31-2.17,1.05-1.36,1.78-2.03,1.82-2.01.12.28-1.04.59-2.07.97-3.07.43-1.35,1.11-2.4,2.03-3.14h1c1.77-.62,1.83.08.16,2.09Z"/>
    <path class="cls-132" d="M29.33,19.28c1.95.64,3.61,2.19,4.68,3.87,1.31,1.47,1.4,3-.68,2.32-1.67.92-1.44.46-.49-1.15-1.41-.14-2.9-.22-4.49-.27-2.38,1.75-3.73,1.8-4.06.16.08-.98.07-1.96,0-2.95,1.34-1.14,3.16-2.6,5.04-1.99Z"/>
    <path class="cls-2" d="M36.24,26.38c.35,1.67.2,4.96-1.88,4.98,1.49,1.23,1.03,1.83-.77,1.02.75,1.7.23,2.8-1.55,3.39l-1.62-.36c-2.08.22-2.54-2.38-1.25-3.77.18-2.24,1.56-4.29,4.15-6.16.07-.63,1.39-1.4.68-2.32,1.2.68,1.95,1.88,2.23,3.22Z"/>
    <path class="cls-39" d="M37.03,34.46c0,1.38-.43,2.71-1.99,2.91-1.04-.46-2.07-.95-3-1.59-.38-1.42-.06-3.06,1.55-3.39,1.44-.1,2.59.59,3.44,2.08Z"/>
    <path class="cls-155" d="M37.25,31.41c-.36,2.5-2.29,2.39-2.89-.06.4-1.76.36-3.82,1.88-4.98,1.66,1.18,1.18,3.26,1.02,5.04Z"/>
    <path class="cls-150" d="M37.25,31.41c-.09.98-.21,2.06-.22,3.04-.63.47-1.4.76-1.96.29-.79-.68-1.22-1.53-1.48-2.37l.77-1.02,2.89.06Z"/>
    <path class="cls-197" d="M43.09,58.11c1.11,1,.99,1.67-.33,2.03-.4-.19-.99.05-1.31.05-.62-.02-1.94-.08-1.44.99,0,.87-.29.89-.85.15-2.24-.04-3.27-3.57-1.01-4.24-.96-2.48.39-3.86,2.91-3.72-1.63-.93-.88-2.85,1.07-2.09,1.26,2,1.2,4.57.96,6.84Z"/>
    <path class="cls-156" d="M43.2,46.94c-.55,1.39-.99,2.83-1.08,4.33-.5.6-.93,1.31-1.07,2.09-4,4.19-4.63-2.78-2.93-6.09-.42-.87-.06-1.14.97-.9,1.43-.25,2.82-.09,4.1.57Z"/>
    <path class="cls-178" d="M44.12,58.27c.8.93,1.84,1.6,3,2,1.57.42,2.23,1.08,2,2-2.34.14-4.31-1.14-6.37-2.13-.3-.36-.59-.88-.36-1.37.12-.27.51-.45.69-.66l1.04.16Z"/>
    <path class="cls-85" d="M33.13,45.27c2.09-.15,4.09-.15,6,0l-.03,1.1c-.34.28-.67.58-.97.9.53,2.93-2.63,3.52-4,1-.46,1.92-.78,2.84-2.2,1.07-1.52-.38-1.55-1.96-.93-3.16.54-.65,1.42-.62,2.12-.91Z"/>
    <path class="cls-156" d="M36.12,44.27h4c-.28.29-.55.92-1,1-2,.35-4.77,2.16-6,0,.97-.4,1.91-1,3-1Z"/>
    <path class="cls-20" d="M29.13,40.27l.1,2.13c.06,1.21-.69,3.38.88,3.75.45,1,.16,1.34-.9,1.02-2.58.76-7.55,1.59-7.24-1.81.91-.93,1.68-1.96,2.31-3.07-.63-1.16.32-1.83,2.84-2.01-.87-.28-.86-.62,0-1,.19-.87.53-.83,1,0-.03.6.34,1.17,1,1Z"/>
    <path class="cls-188" d="M31.93,49.34c-.07,2.8-1.47,2.82-2.46.25-1.96.1-1.95-.74,0-1.31-1.68-.05-1.76-.36-.25-1.12.4-.23.7-.6.9-1.02l.89.04c1.37.46,1.06,2.01.93,3.16Z"/>
    <path class="cls-161" d="M26.43,28.62c2.8-1.29,5.3.17,2.75,3.02-.41,1.42-.55,3.59-.43,6.51-.5.25-.6.61-.63,1.11-.32.04-.67.03-1,0-7.43,2.67-4.83-4.67-2.66-8.98-1.71.27-1.76-.49-.13-1.2.18-2.03,1.08-2.26,2.09-.47Z"/>
    <path class="cls-61" d="M29.18,31.64c.56,1.22,1.12,2.41,1.25,3.77.11,1.23-.58,2.2-1.67,2.75-1.24-1.52-1.72-3.62-1.5-5.96.05-.51,1.43-.49,1.93-.56Z"/>
    <path class="cls-41" d="M57.25,101.82c-.03,1.08-1.34,1.1-2.13.44-1.3-.58-2.66-.69-4,0-.28.87-.62.86-1,0-.89-.46-.93-1.81-.13-4.07-.88-.22-.85-.53.01-.93,1.37-2.7,2.41-2.7,3.12,0,.33-.63.67-.63,1,0,1.42,1.08,2.99.23,4.23-.78-.06,1.83-.76,3.55-1.1,5.34Z"/>
    <path class="cls-11" d="M55.12,102.27l2.13-.44c.29.48.63.93.87,1.44-1.37.03-3.51-.57-4,1.1-1.31-.24-2.68-.01-4-.1-.46-.31-.45-.64,0-1-.87-.28-.86-.62,0-1h1c.33-1.1,1.67-1.1,4,0Z"/>
    <path class="cls-138" d="M58.36,95.53c-.2-1.22-.52-2.72.82-3.31.21.65.69,1.26.96,1.74.53.97-.95,2.31-1.78,1.57Z"/>
    <path class="cls-46" d="M56.12,106.27v1c-1.35,1.31-1.12,3.26-1,5-.76.38-1.64.7-1.87,1.6-1.44-1.69,1.57-9.33,2.87-7.6Z"/>
    <path class="cls-112" d="M26.86,94.16c-1.45,1.24-2.47,1.42-2.74-.67-1.13-.8-1.44-1.86,0-2.23-.63-.63-.64-1.31,0-2,.28-.87.62-.86,1,0,1.25-.9,2.33-1.89,3.24-2.97-.18-1.73.55-2.16,1.83-.96-.96,3.14-1.02,6.33-3.33,8.83Z"/>
    <path class="cls-200" d="M26.86,94.16c-1.15,1.24-1.76,2.96-3.84,3.14-1.58,2.35-2.47,2.48-2.93-.46-.68,1.27-2.22.97-1.95-.62-.14-1.79,1.82-2.13,2.98-.77-.29-2.62.86-2.69,3.01-1.96.94.03,1.94.16,2.74.67Z"/>
    <path class="cls-76" d="M23.03,97.31l-2.83,5.96c-.88.47-1.21.09-1.07-1-2.7-.14-2.12-1.02-.01-2.11-1.9-.95-1.13-1.45.82-1.81-1.9-.39-1.79-1.15.16-1.5l2.93.46Z"/>
    <path class="cls-123" d="M47.12,78.27c1.43-.39,1.7-.4,1,1,.46.89.08,1.19-1,1-.88-.78-2.29-.66-3.34-.92-.36-.09-.53-.6-.73-.85-.32-.38-.55-.9-.92-1.23-.91-1.19-.91-1.86,0-2,.28-.87.62-.86,1,0,1.92-.86,3.85,1.15,4,3Z"/>
    <path class="cls-67" d="M19.13,102.27c.33.36.69.69,1.07,1-.46.97-1.17,1.54-2.07,2-1.43.18-2.73-.04-3.89-.65-1.06-.47-1.51-1.43-.27-1.81-.37-.92-.08-1.14.85-.7,2.28-1.14,3.71-1.09,4.3.15Z"/>
    <path class="cls-13" d="M31.13,78.27c.28-.89.64-.89,1.09-.04-.05.28.07.61.03.89-1.17,1.88-1.42,4.14-2.06,6.22-1.54.26-1.75-.73-.61-2.98-.6-1.66-.75-3.02-.46-4.09.32-2.66,1.24-2.54,2,0Z"/>
    <path class="cls-16" d="M16.18,106.35l-.98,2.03c-.26-.3-.99-.05-1.31-.03-.91.18-1.09-.14-.56-.94-2.65-.36-2.43-1.29.15-1.88-.89-.11-.89-.4-.06-.83,0-1.07.56-1.12.82-.1,1.69.05,2.34.63,1.94,1.74Z"/>
    <path class="cls-194" d="M18.13,105.27c-.6.31-1.45.64-1.94,1.08-.66-.53-2.02-.7-1.94-1.74,1.12-.6,3.45-.83,3.89.65Z"/>
    <path class="cls-6" d="M50.12,104.27l.06,10.03c-1.29-1.02-1.35-2.67-1.27-4.24l.21-3.79c-.83-1.59-.99-3.94,1-3v1Z"/>
    <path class="cls-195" d="M41.09,61.17c1.11,1.35,2.08,3.21,2.03,5.09.28-.87.62-.86,1,0,1.81-1.43,2.47-.84,1.23,1.11,2.64,1,2.66,2.69.07,3.78.08,1.72-.95,2.29-2.3,1.1-.64.78-1.69.47-3.13-.91-.23.87-.53.84-.89-.04-1.68-2.05-2.04-3.84-1.08-5.38-1.25-1.47-1.15-4.51,1.13-4.62.28,0,.57-.18.85-.15.33.03.78-.12,1.09,0Z"/>
    <path class="cls-140" d="M49.84,66.35c.39,6.61,4.42,2.93,2.44,6.94-.18.9-.52.93-1.02.13-1.96-.5-3.73-.54-5.31-.13l-.52-1.37c-.53-.21-.53-.46,0-.75-.18-1.26-.17-2.52-.07-3.78.17-1.95,2.47-1.93,3.74-.93.24-.05.5-.03.74-.1Z"/>
    <path class="cls-104" d="M44.18,63.11c1.33.88.1,2.34-1.05,3.16-1.15,0-1.88-.99-2.42-2.25-.35-.8-.33-1.93.39-2.84,1.15.43,2.13,1.18,3.09,1.93Z"/>
    <path class="cls-159" d="M49.1,66.45c-.94,1.08-2.39,1.23-3.74.93.05-.64-.7-1.11-1.23-1.11-.64-1.09.69-2.9,2.11-2.08,1.19.41,2.32,1.08,2.86,2.26Z"/>
    <path class="cls-9" d="M52.12,62.27c-.09.34.11.84,0,1.47-.14.85-1.52.65-1.84.06-.21-.39-.59-1.09-1.16-1.53-.67-.66-1.65-1.08-2-2,1.92-.19,3.56.81,5,2Z"/>
    <path class="cls-42" d="M46.23,64.19l-2.11,2.08h-1c.15-1.11.51-2.18,1.05-3.16.75.23,1.45.58,2.06,1.08Z"/>
    <path class="cls-111" d="M52.45,77.22c2.3.35,2.81.78.79,1.96,2.11,3.39,2.2,5.99.27,7.82.2,1.9-.56,2.05-1.39.27-1.47.92-2.77-.77-2.86-2.24-1.46-.25-1.3-1.52-.29-2.44-.49-1.16-.77-2.27-.86-3.32l-1-1c-.33-1.86.44-2.26,1.81-.97l3.51-.08Z"/>
    <path class="cls-50" d="M58.38,75.23c-.53,2.12-2.28,3.04-4.71,3.79,1.69,2.52,2.79,4.13,2.57,6.25.58,2.57-.75,3.03-2.73,1.73.78-3.14-.76-6.56-1.06-9.78,1.52-.66,3.08-1.23,4.68-1.67.4-.11.83-.28,1.24-.32Z"/>
    <path class="cls-73" d="M51.26,73.42c.27,1.8-.57,2.06-1.96.93l-.29,2-.07.95c-.53.44-1.16.74-1.81.97-1.6-.62-3.23-1.41-4-3-1.49-1.38-.84-2.02,1-1-.24-1.19.15-2,1.31-2.35,1.93.2,4.63-.25,5.83,1.5Z"/>
    <path class="cls-205" d="M51.26,73.42l1.02-.13c.19.47.68,1.07.64,1.59-.08.96-.8,1.48-1.68,1.39-1.81-.13-2.45-.77-1.93-1.92.58-.29,1.24-.84,1.96-.93Z"/>
    <path class="cls-175" d="M49.3,74.35c.49.78,1.2,1.37,1.93,1.92-.68-.07-1.59.25-2.22.08-.71-.51-1.56-.79-2.74-1.42-.22-.35.94-1.42,1.37-1.6s1.23,1.16,1.66,1.01Z"/>
    <path class="cls-138" d="M58.12,88.27l-1.76.21c-.18,1.41-.92,2.01-2.24,1.79-.22.89-.56.86-1,0-1.84,1.09-2.17-.45-1-2-.87-.28-.86-.62,0-1,.46.01.93-.32,1.39-.27,1.22.12,1.99-.88,2.73-1.73-.14,1.31.88,2.33,1.89,3Z"/>
    <path class="cls-146" d="M56.37,88.47c.54,2.89.72,6.46-2.24,7.79-.88-.55-.75-3.05,0-4-1.98.12-1.65-1.27,0-2,.02-.65.2-1.5.74-1.72.57-.23,1.09-.03,1.5-.08Z"/>
    <path class="cls-201" d="M54.12,96.27v1c-.31.48-.69,0-1,0-2.21.19-1.22-3.78,0-5,.28-.87.62-.86,1,0v4Z"/>
    <path class="cls-32" d="M19.13,42.27c-.28.87-.62.86-1,0-.02-2.82,2.31-5.8,0-8l1-2c.28-.87.62-.86,1,0,.85,2.21,1.44,8.83-1,10Z"/>
    <path class="cls-35" d="M22.13,28.27c1.49.67,1.7,1.63,0,2-.39,1.34-1.06,2.01-2,2h-1c.28-.55,0-1.37,0-2-.63-.62-.76-1.55,0-2,.88-.99,1.54-1.32,2-1,.3-.58.63-.57,1,0,.87.28.86.62,0,1Z"/>
    <path class="cls-199" d="M22.13,25.27c1.62.6.36,1.53-1,2-.06.36.03,1.59-.49,1.82-.38.17-1.15-.82-1.51-.82-.85-.27-.78-1.5,0-2,.36-.13.74-.63.99-.88l2.01-.12Z"/>
    <path class="cls-92" d="M24.29,24.22c2.74,1.11.79,5.2-2.17,3.05h-1l1-2c.68-.04,1.33-1.08,2.17-1.05Z"/>
    <path class="cls-79" d="M32.84,24.33c.14,1.9-.74,3.32-2.45,2-.95.39-2.02.11-3.22-.86.87,2.36.63,3.41-.74,3.15-.69-.03-1.41.44-2.09.47-1.14,1.4-1.9.91-2.21-.82v-1c.69-.09,1.47-.35,1.75-.8.49-.78.36-1.58.42-2.25,1.18.05,2.13-.54,3.35-1.38,2.02-1.39,4.4-.37,5.19,1.49Z"/>
    <path class="cls-30" d="M33.33,25.48c.08,2.08-2.21,5.89-4.15,6.16-.59-1.29-1.07-2.94-2.75-3.02.78-.98-.78-2.57.74-3.15,2.02,1.31,3.09,1.6,3.22.86.97-.46,1.79-1.16,2.45-2l.49,1.15Z"/>
    <path class="cls-8" d="M38.12,47.27c3.3,1.31-1.29,7.01,2.93,6.09-.3,1.67-1.63,2.72-2.91,3.72-1.32,1.53-2.07,1.17-1.69-.82-1.72.15-2.5-.83-2.33-2.96-.87-.3-.86-.65,0-1.04-1.67-.46-1.46-3.09,0-4l4-1Z"/>
    <path class="cls-164" d="M38.14,57.08c-.81,1.31,1.35,3.19,1.01,4.24-.52,2.92-2.37,2.57-3.14-.05-2.9.32-2.85-1.99-.23-2.9-2.44-1.33-2.07-2.15.67-2.11.54.32,1.1.59,1.69.82Z"/>
    <path class="cls-147" d="M34.13,52.27c-2.43,2.25-5.27-1.39-2.2-2.93l2.2-1.07v4Z"/>
    <path class="cls-15" d="M27.13,39.27v1c-2.04.9-4.04,1.23-6,1-.65-2.68-1.31-8.11,1-10,.15-1.82.98-2.29,2.34-.98,1.47,2.41-.4,5.06-1.36,8.29,1.1,1.11,2.77.59,4.02.68Z"/>
    <path class="cls-174" d="M21.97,45.36c2.02,1.65,4.7,1.78,7.24,1.81l.25,1.12c-2.54,2.46-6.15,3.08-10.86,1.84.04-.99-.32-1.96-.39-2.94.32-1.78,1.01-2.46,2.08-2.04.6-2.01,1.4-1.86,1.67.21Z"/>
    <path class="cls-173" d="M24.29,42.28c.46.76,1.73,1.15,1.44,1.77-.34.74-.51,1.91-1,1.73-.95-.34-2.29-.35-2.75-.43l-1.67-.21c-.98-.88-.72-2.9.83-2.88.56-1.19,2.86-1.59,3.16.01Z"/>
    <path class="cls-189" d="M27.13,40.27l-2.84,2.01h-3.16c-.8-.33-.79-.67,0-1.01,1.67-1.4,3.93-1.29,6-1Z"/>
    <path class="cls-147" d="M29.46,48.29v1.31c1.61,1.51,2.2,3.04,1.77,4.59,1.32,2.73-.14,2.38-2.11,1.08-.46,1.63-1.38,1.49-1.93-.16-2.54.44-3.98.18-3.05-2.75l-2.41-.26c-1.48,1.82-2.53,1.47-2.88-1.01.11-.25-.26-.67-.25-.96,3.52-1.15,7.13-2.13,10.86-1.84Z"/>
    <path class="cls-75" d="M31.93,49.34c-.08.69.02,1.51.3,2.3.24.69,1.16.78,1.9.63v1.04c.76,2.76-1.45,3.29-2.89.87-.98-1.36-3.52-3.13-1.77-4.59l2.46-.25Z"/>
    <path class="cls-187" d="M24.34,29.09c.15.35-.06.89.13,1.2-.61.65-1.47.93-2.34.98-.5-.33-.5-.66,0-1v-2c.79.11,1.55.37,2.21.82Z"/>
    <path class="cls-90" d="M50.12,90.27c1.6-.71,1.93-.05,1,2,.73.29.72.62,0,1,1.75,1.4,1.21,3.76-1.12,4.01v.93c.12.92-.19,1.95-1.2,2.07-.96-.98-.47-2.57-.7-3.85-.37-2.09-.32-4.23-.05-6.33-1.8-2.17-1.71-2.36,1.09-1.89,1.93-2.03,2.4-.06.97,2.07Z"/>
    <path class="cls-198" d="M50.12,102.27v1c-1.28.41-.94,1.93-1,3-1.9-1.28-1.08-4.16-.31-6,.3-.71.22-1.92,1.18-2.07,1.13,1.11.13,2.69.13,4.07Z"/>
    <path class="cls-166" d="M53.12,97.27h-3.12c.82-1.17,1.12-2.57,1.12-4,.41-1.11,1.1-1.96,2-1v5Z"/>
    <path class="cls-179" d="M55.12,102.27h-4c-.11-.54-.08-2.05.45-1.81,1.65.73,2.8.91,3.55,1.81Z"/>
    <path class="cls-55" d="M2.22,122.35c1.94.98,3.9,1.95,5.91,2.91,1.55-.01,1.43,1.52,0,2-3.12.42-6.21-.28-8-3,0-1-.05-2-.1-3,1.36-1.47,2.05-.86,2.19,1.09Z"/>
    <path class="cls-125" d="M10.13,124.27c0,.71.17,1.5-.06,2.41s-1.23.5-1.94.59v-2c-.87-.28-.86-.62,0-1-.33-1.54,0-2.21,1-2,.91.22,1.01,1.2,1,2Z"/>
    <path class="cls-122" d="M48.98,82.59l-.8.11c-.44-.67-.43-1.88-1.05-2.43.37-.3.7-.63,1-1,.79.79,1.35,1.61,3.05,2.42-.68.57-1.45.67-2.19.9Z"/>
    <path class="cls-186" d="M13.33,107.42l.56.94c-1.28,2.75-3.05,5.29-4.65,7.88-.71,1.57-1.02,3.41-.12,5.03v1c-.13.75-.46,1.46-1,2-2.48.82-2.7-.12-.91-2.01-1.19-.7-2.41-1.32-3.67-1.86-.73,2.09-3.53.26-1.41-1.13,1.04-1.92,1.35-3.99.94-6.19.62-4.78,1.98-6.72,4.08-5.8,1.57-.94,4.73-.77,6.19.15Z"/>
    <path class="cls-125" d="M9.13,121.27c-1.3-.12-.88-1.66-1.12-2.53-.36-1.3.73-1.68,1.24-2.5l-.12,5.03Z"/>
    <path class="cls-64" d="M35.06,67.55c2.34-.62,3.79,1.53,4.04,3.77l.89.04c1.51.58,4.09,2.71,2.13,3.91v2c-2.52-2.25-4.5-5.55-8.14-5-1.32.32-2.08-.95-1.75-2.17-2.22-.33-.62-5.21,1.55-3.72,1.55-1.17,2.12-.64,1.27,1.16Z"/>
    <path class="cls-193" d="M32.23,70.1c.62,1.09.76,2.6.78,3.96l-.79,4.16-1.09.04c-2.45-.46-2.71-3.95-2.09-5.94-2.14-.48-2.05-2.36.33-2.32.93-2,2.08-1.98,2.86.09Z"/>
    <path class="cls-14" d="M33.98,72.27l-.97,1.8c-.96.23-1.08-1.15-1.42-1.73-.51-.88.49-1.52.64-2.23,1.04.2,1.61,1.18,1.75,2.17Z"/>
    <path class="cls-157" d="M26.07,82.36c2.03-.24,1.94,1.3.06,1.91,1.69,1.76,1.48,4.54-1,5h-1c-.62-1.74-1.25-3.18-1.91-4.34l1.91-1.66c-.86.37-1.82-.21-2-1-1.78-2.84.12-4.2,2.8-2.62,1.77-1.15,1.71,1.02,1.15,2.71Z"/>
    <path class="cls-72" d="M24.13,89.27c.03.66.04,1.34,0,2-1.19,1.16-1.6.61-1-1l-4-2c-2.12-.99-.44-4.55,2-3.83.15-1.2,1.84-1.83,3-1.17-.2,2-.09,3.99,0,6Z"/>
    <path class="cls-171" d="M29.13,78.27c1.29,2.1.85,4.68,1.07,7.07-.63.29-1.24.61-1.83.96-1.8.94-2-.56-1.11-2.03.35-1.63.53-3.19-.13-5-.87-.28-.86-.62,0-1-1.84.15-1.89-.63-.02-1.14,1.55-2.42,2.66-1.69,2.02,1.14Z"/>
    <path class="cls-119" d="M28.37,86.3c.05.75-.13,2.01-.8,2.71-.55.58-1.8,1.61-2.44.26.97-1.48,1.05-3.27,1-5-.04-1.77.72-1.83,1.13,0,.1.79.51,1.5,1.11,2.03Z"/>
    <path class="cls-204" d="M24.13,91.27c-.05.71.14,1.53,0,2.23-1.96,1.73-4.54-.99-2-2.23-.46-.89-.08-1.19,1-1,.08.49.54.9,1,1Z"/>
    <path class="cls-43" d="M22.13,91.27c-.11,1.29.73,2.18,2,2.23-.3,1.44-1.88,1.53-3.01,1.96-1.7-.07-2.36-.8-1.99-2.18-.88-.33-.88-.66,0-1-1.5-.99-1.83-1.99-1-3,.28-.87.62-.86,1,0,2.34-1.43,3.89-.89,3,2Z"/>
    <path class="cls-100" d="M21.12,95.45c-.96.36-1.88.93-2.98.77-.06,1.57-.82,1.5-1.3-.06-1.97.82-2.21-.03-.24-1.12-1.06-.75-.96-1.05.3-.9-.48-1.84.55-1.74,2.23-.88.2.94.86.34,1.23.39.67.1,1.13,1.24.76,1.79Z"/>
    <path class="cls-206" d="M18.14,96.22c.5.6,1.26.51,1.95.62l-.16,1.5c-1.11,1.3-3.74,1.94-3.91-.09-2.98-.49-1.83-3.08.81-2.1.4.13.89-.04,1.3.06Z"/>
    <path class="cls-34" d="M12.33,96.35c1.93.26,3.16.9,3.7,1.91l3.91.09-.82,1.81c-.74,1.14-2.17,1.79-4.29,1.96-.28.23-.65.36-.85.7-1.01.25-2.85-.22-2.85-1.54-.49,1.41-2.06.32-2.12-1-2.19-.92-.86-2.21,1.21-2.9.48-2.38,1.58-3.83,2.11-1.01Z"/>
    <path class="cls-191" d="M19.12,100.16v2.11s-4.29-.15-4.29-.15c1.24-1.02,2.68-1.79,4.29-1.96Z"/>
    <path class="cls-86" d="M43.12,72.27c1.56-1.18,1.87.75,1,2-.38.19-.73.67-1,1h-1c0-1.57-1.73-2.43-2.13-3.91,1.14-1.17,1.91,1.05,3.13.91Z"/>
    <path class="cls-109" d="M13.97,102.81l.27,1.81c-.01.8-.55.71-.82.1-1.24.66-2.57.02-2.3-1.44-1.23-.94-1.72-1.77,0-2,.93.44,2.86.14,2.85,1.54Z"/>
    <path class="cls-63" d="M31.13,78.27h-2c-.53-.6-1.24-.97-2.02-1.14-2.14.89-2.57-.33-.72-1.74-.44-1.36-.11-3.01,1.72-2.88.04-.91.35-.94.93-.18,2.07,1.21,2.26,3.72,2.09,5.94Z"/>
    <path class="cls-121" d="M8.79,101.86c1.19-.73,2.05.21,2.34,1.4.97.14,1.88.5,2.3,1.44l.06.83c-.84,1.95-4.69,2.17-4.37-.39-3.32,2.63-4.02-1.04-2.19-3.65.39-2.64,1.67-2.34,1.86.36Z"/>
    <path class="cls-23" d="M13.48,105.54l-.15,1.88c-2.13.4-4.45,1.59-6.19-.15-1.57-2.11-.5-3.03,1.97-2.12,1.38.63,2.94,1.03,4.37.39Z"/>
    <path class="cls-101" d="M39.15,61.32c-.5,1.54-.14,3.3-1.13,4.62-1.84.8-3.06.4-2.43-1.79-1.57-.61-1.43-1.21.41-1.8-.89-.28-.86-.65.02-1.08l3.14.05Z"/>
    <path class="cls-141" d="M39.1,71.32c-1.41-1.22-3.29-2.01-4.04-3.77-.58-1.9,1.43-2.48,2.97-1.6,1.04,1.67,1.99,3.53,1.08,5.38Z"/>
    <path class="cls-137" d="M45.43,71.17c.45.22.31.46,0,.75-.66.65.53,1.34.44,1.87-.1.61-1.37.29-1.75.49l-1-2c.57-.7,1.38-1.18,2.3-1.1Z"/>
    <path class="cls-116" d="M52.12,87.27v1c.55,1.45-.67,2.61-2,2-.17-.66.12-2.33-.97-2.07,0-1.05,0-2.12.11-3.17,1.4-.14,2.4,1,2.86,2.24Z"/>
    <path class="cls-110" d="M53.12,90.27c.53,1.22-.81,1.76-2,2-.52-.56-.81-1.27-1-2l2-2,1,2Z"/>
    <path class="cls-38" d="M54.12,90.27v2h-1l-2,1v-1c.32-.94,1.09-1.63,2-2,.29-.12.69.07,1,0Z"/>
    <path class="cls-59" d="M18.17,75.33c2.48,1.2,2.48,1.87-.05,2.94,2.74,1.43.44,5.37-1.92,6.03-.11.9-.42.91-.92.09-1.18.12-1.68-.34-.99-1.33-.18-.84.16-1.94-.19-2.75-.43-.98-1.15-1.86-.72-3.12.23-.66,1.11-1.3,1.61-1.81.3.02.68-.35,1.13-1.1.78-1.88,1.47-1.53,2.05,1.06Z"/>
    <path class="cls-26" d="M15.13,90.06c1.94-.17,1.93.62,0,1.2,2.25.86,2.84,1.82,1.77,2.88-.58.14-.43.48-.3.9-.53,1.85-2.83,2.66-4.27,1.31-1.04-.96-1.46.37-2.11,1.01-2.47-.29-1.35-3.87.9-4.1-.19-.99.14-1.99,1-3,.44-.11.69-.72,1-1,1.61-2.41,2.56-2.07,2.01.8Z"/>
    <path class="cls-48" d="M17.4,84.49c1.75.83,1.2,3.3-.38,4.05,2.23,2.14.34,3.13-1.89,1.52-.54-.52-1.25-.83-2.01-.8v-1.89c.13-1.2.98-2.61,2.16-2.99l.92-.09c.2-1.82,1-1.73,1.19.2Z"/>
    <path class="cls-51" d="M11.13,93.27c-.85,1.19-.99,2.67-.9,4.1-1.8,3.04-2.76,3.07-2.88.07.4-.82.07-1.98.55-2.85.55-1.01,1.41-1.6,2.19-2.37.86-.38,1.18.01,1.05,1.05Z"/>
    <path class="cls-124" d="M15.29,84.39c.18,1.38-.64,2.96-2.15,2.99-1.11-1.47,0-3.16,1.15-4.32.86-.49.92.78.99,1.33Z"/>
    <path class="cls-172" d="M11.13,93.27c-.38-.32-.73-.67-1.05-1.05.68-.67.99-1.67,2.05-1.95.14,1.11-.06,2.3-1,3Z"/>
    <path class="cls-54" d="M20.3,45.15c-.27.96-1.2,1.72-2.08,2.04-.13-1.63-.07-3.29-.09-4.92h1c.58.54.97,1.5,1.17,2.88Z"/>
    <path class="cls-40" d="M22.13,31.27c-1.16,3.21-1.12,6.62-1,10,0,.28.13.77,0,1-.52.89-.56,1.92-.83,2.88-.88-.11-1.54-.4-1.18-1.32.15-.39-.27-1.19,0-1.56,2.14-2.83.55-6.63,1-10,.41-.89,1.11-1.59,2-2,0,.31.1.71,0,1Z"/>
    <path class="cls-160" d="M30.39,26.33c-.07.45-.02.94-.61,1.99-1.12-.86-1.97-1.76-2.61-2.85.99-.38,2.96-.42,3.22.86Z"/>
    <path class="cls-197" d="M36.45,56.27c-.09.7-.72,1.4-.67,2.11-.42,2.86-2.58,2.87-3.5.13-.88.13-1.61-.29-2.17-1.24-.28.87-.62.86-1,0-1.73-.1-1.93-1.82,0-2,.95.1,1.38-.86,2.11-1.08l2.88-.87c.68.08,1.5.26,1.86.76.49.67.44,1.48.47,2.19Z"/>
    <path class="cls-151" d="M35.79,58.38l.23,2.9c.03.35-.05.73-.02,1.08-1,1.25-2.63,1.93-4.87,2.05-1.13,2.64-1.89,2.72-3.06.06-1.58-1.23-1-1.92.94-1.17-.19-1.79.19-2.8,1.12-3.03-.22-1.44.97-2.08,2.17-1.76l3.5-.13Z"/>
    <path class="cls-29" d="M24.15,52.36c.77,1.08,2.61,1.32,3.05,2.75.46,1.57-.07,1.47-1.16.28-.12,1.16-.75,2.45-1.9,3.88,3.58-.72,4.96-.05,4.12,2,1.44-.24,1.25.83.75,2.02-.4.28-.6.81-.94,1.17,1.11,1.6.42,2.03-1.01.67-1.49.51-4.43-.2-5.01-1.76-1.79,1.43-2.55.85-1.69-1.27-.83-2.1-1.76-6.39.57-7.66-2.91-1.94.72-3.21,3.22-2.09Z"/>
    <path class="cls-107" d="M24.15,52.36c-.55-.08-1.82-.01-2.38.33-.51.31-.34,1.17-.83,1.76.24,3.74-2.33,3.7-2.72.25.67-.84.04-2.66.64-3.61,1.61.97,4.05-.47,5.3,1.27Z"/>
    <path class="cls-88" d="M29.13,55.27v2c-.05,1.65-1.58,2.11-1.93.22-2.53,1.2-3.1-.14-1.15-2.1.22-.2.86-.28,1.16-.28.6,0,1.3.09,1.93.16Z"/>
    <path class="cls-65" d="M9.12,105.16c-.67.56-1.12,1.8-1.97,2.12-2.68,1.01-1.95,4.31-4.08,5.8.5,1.87-.25,2-1.12.19,1.58-1.2.68-3.41,1.23-4.83.91-2.36,2.1-4.66,2.88-7.09.34-.83.63-.76.88.15-.04,1.57.51,3.29,2.19,3.65Z"/>
    <path class="cls-129" d="M2.13,119.27c-.07.26.31.87.48,1.26.11.25.61-.04.94-.12,1.69.08,1.77.84.2,1.58.26,1.93-.51,2.08-1.52.37-.71-.4-1.44-.77-2.19-1.09-.11-2.42.06-5.19,1.81-7,2.43.47,1.5,3.26.29,5Z"/>
    <path class="cls-125" d="M2.13,119.27c.36-1.35.39-3.61-.29-5-.11-.27.15-.7.11-1l1.12-.19c.64,1.03,1.65,2.07,1.24,3.08-.56,1.37-1.07,2.52-2.18,3.12Z"/>
    <path class="cls-128" d="M3.75,121.98c1.48-2.07,2.3-1.77,3.47.27.15.67.85,1.28.91,2.01v1c-1.11.98-2.52.43-3.59.13-1.64-.45-2.4-1.52-2.31-3.04l1.52-.37Z"/>
    <path class="cls-125" d="M7.22,122.25c-1.05.75-2.4.25-3.47-.27-.12-.34-.59-1.27-.2-1.58,1.25-1.01.69-3.31,3.18-3.4.95,2.08.18,3.81.49,5.26Z"/>
    <path class="cls-37" d="M33.82,65.34c.86.33.84.68-.04,1.04-1.24.85-1.29,2.37-1.55,3.72-.94-.18-1.91-.13-2.86-.09-1.17-3.38-.59-5.25,1.77-5.6.98-1.52,3.25-.92,2.69.94Z"/>
    <path class="cls-31" d="M38.02,65.94c-.7.93-1.88,1.36-2.97,1.6-.21-.49-1.01-.69-1.27-1.16l.04-1.04c-1.55-1.53.2-2.21,1.77-1.19.67.68,1.91.95,2.43,1.79Z"/>
    <path class="cls-176" d="M31.13,64.41c-.49,1.91-.89,3.84-1.77,5.6-.34.69-.23,1.58-.33,2.32l-.93.18c-1.66,1.75-2.76.78-2.16-1.49-.88-.16-.87-.44-.02-.84.82-1.75-.78-2.72-4.8-2.91-1.48-1.54-1.04-2.36,1.06-1.87,1.03-.49,2.66-.58,4.88-.26.17-.32.76-.4,1.01-.67,1.02.08,2.04.06,3.06-.06Z"/>
    <path class="cls-62" d="M23.47,68.54c2.49-.08,1.71,4.16-.41,3.63l-.11,1.21c-.92-.31-2.81,1.2-1.62,2.77,2.08-1.71,3.94-.27,3.71,2.12,1.56.23,1.45.92-.12,1.37-.82,1.09-2.38,1.13-2.8,2.62,1.23,1.12-.86,1.88-2.03,1.13-.97-1.52-1.62-3.24-1.97-5.13-.14-.96.1-1.97.05-2.94-1.57-.94-.99-2.69.06-4.06-1.59-.37-1.35-1.1.38-1.31-.24-2.28.23-2.84,1.43-1.67,1.09-.57,2.64-.76,3.44.25Z"/>
    <path class="cls-82" d="M27.26,84.27h-1.13s-.06-1.91-.06-1.91c-.18-1.87.17-2.9,1.06-3.09.95.53,1.77,1.42,1.96,2.7.15,1.03-.62,2.14-1.83,2.31Z"/>
    <path class="cls-144" d="M24.13,83.27c-.9.63-1.99.81-3,1.17-1.9,1.34-2.53.75-1.03-1.03.56-.36,1.79-.29,2.03-1.13.72-.18,2.1-.03,2,1Z"/>
    <path class="cls-13" d="M27.13,78.27v1c0,1.14-.19,2.3-1.06,3.09-.11-1-.42-1.99-1.15-2.71l.12-1.37c-.26-2.52,1.34-2.2,2.08,0Z"/>
    <path class="cls-74" d="M21.13,84.44c-1.64.58-1.6,2.35-2,3.83.85.33.85.66,0,1h-1c-1.25,1.71-1.9,1.29-1.1-.72.02-1.36.14-2.71.38-4.05-.26-2.29.97-2.48,2.69-1.09-.39.62.58.98,1.03,1.03Z"/>
    <path class="cls-130" d="M23.13,90.27c-.37.3-.7.63-1,1-.73-1.04-1.66-2-3-2,.05-.32-.09-.68,0-1,1.57.42,2.69-.67,3.6-2.1.86,1.73.21,2.94.4,4.1Z"/>
    <path class="cls-83" d="M25.17,74.3c1.59-1.16,2.19-.63,1.22,1.08l.72,1.74.02,1.14h-2.08c-1.54.01-2.41-1.66-3.71-2.12-2.17-2.51.67-3.25,2.84-2.62.6-.09.93.17.99.77Z"/>
    <path class="cls-133" d="M18.13,89.27c.49,1.02,2.35,2.07,1,3-.96,1.19-2.29.86-4-1v-1.2c.87-.13,1.51-.76,1.9-1.52.19.45.62.72,1.1.72Z"/>
    <path class="cls-170" d="M19.13,92.27c.04.32-.07.69,0,1-.71.36-1.45.69-2.23.88-.45-1.04-1.13-1.96-1.77-2.88l4,1Z"/>
    <path class="cls-102" d="M16.6,95.04c-.1.33-.26.96.24,1.12-.99-.02-.63,1.45-.81,2.1-.97-.02-2.1.09-3.49.91-.72-.79-.02-1.85-.21-2.82,1.3-.85,2.7-1.75,4.27-1.31Z"/>
    <path class="cls-136" d="M10.22,97.36c-.75.8-1.06,1.83-1.21,2.9,1.3.9,1.4,1.52-.22,1.6-.47-.38-1.3-.26-1.86-.36l-.88-.15c.43-1.33.69-2.65,1.3-3.92.66.47,2.25.55,2.88-.07Z"/>
    <path class="cls-60" d="M11.13,101.27v2c-.97-.14-1.63-.83-2.34-1.4l.22-1.6,2.12,1Z"/>
    <path class="cls-95" d="M28.11,72.51c-.43.99-.28,3.28-1.72,2.88l-1.22-1.08c-1.29-1.45-1.33-3.75.78-3.28.53.73,1.27,1.29,2.16,1.49Z"/>
    <path class="cls-113" d="M36,62.36c.06.61.17,1.41-.41,1.8l-1.77,1.19c-.9-.28-1.65-1.15-2.69-.94.1-.41.23-.84.48-1.23.82-1.29,3,.37,4.39-.82Z"/>
    <path class="cls-184" d="M20.37,62.11c.33.67.95,1.14,1.69,1.27,1.53.96,2.06,1.61.13,2.02-.57.49-.74,1.23-1.06,1.87.57.57.2.9-1.09,1.02-.41.61-.99,1.09-1.43,1.67-1.44.04-1.75-1.57-1.28-2.69.81-.46.32-2.42.43-3.24.15-1.18.6-2.62.44-3.85,2.01-.96,2.88-.19,2.17,1.93Z"/>
    <path class="cls-77" d="M20.93,54.45c.4,2.63,1.47,5.6-.57,7.66-.65-.72-1.36-1.39-2.17-1.93-.24-1.96-1.31-3.84.02-5.49.73.8,2.05.57,2.72-.25Z"/>
    <path class="cls-135" d="M18.6,69.96c-.21.29-.35.95-.38,1.31-.32.87-.68.86-1.1,0-.28.87-.62.86-1,0,.46-1.42-.52-3.02,1.2-4,.97.54,1.27,1.64,1.28,2.69Z"/>
    <path class="cls-58" d="M17.13,71.27c.74,1.32.62,2.96-1,3-.18.35.31,1.41-.43,1.94-.26.18-.7-.44-.69-.83-.62-1.61.72-2.84,1.13-4.1h1Z"/>
    <path class="cls-18" d="M20.09,83.4c-.82.53-1.68,1.26-2.69,1.09l-1.19-.2c-.5-2.39,2.28-3.65,1.92-6.03,1.32-.22,2.2.68,2.67,1.99.36,1-.08,2.15-.7,3.14Z"/>
    <path class="cls-98" d="M18.17,75.33l-2.05-1.06c.44-.86.87-1.97,1-3h1.1c-.11,1.35-.13,2.71-.06,4.06Z"/>
    <path class="cls-190" d="M29.13,57.27h1c1.79,1.08.92,2.48-1,2,.51.85.12,1.77-.87,2.01-1.11-1.57-3.3-.46-4.12-2-.52-1.72,1.55-2.6,3.05-1.78l1.93-.22Z"/>
    <path class="cls-29" d="M32.29,58.51c.06,1.27-1.31,1.53-2.17,1.76-.89.46-1.19.08-1-1,.62-.49.98-1.21,1-2,.59-.04,1.2-1.14,1.58-.9.52.33.67,1.9.59,2.14Z"/>
    <path class="cls-36" d="M30.13,60.27c-.19.95-.16,2.35-1.12,3.03-.08-.73-.26-1.46-.75-2.02-.22-.81.08-1.66.87-2.01.3.37.63.7,1,1Z"/>
    <path class="cls-68" d="M27.19,57.49c-.79.92-1.87,1.53-3.05,1.78-.47-.15-2.26-.73-1.56-1.68.81-1.11,2.55-1.36,3.46-2.2l1.15,2.1Z"/>
    <path class="cls-91" d="M25.93,70.18c-.91-.02-1.73-.57-2.46-1.65l-3.44-.25c.26-.39.9-.6,1.09-1.02,5.82.89,7.95-2.93,6.99,1.41-.16.72-1.32,1.12-2.18,1.5Z"/>
    <path class="cls-10" d="M25.93,70.18l.02.84c-.99.8-.9,2.12-.78,3.28-.31-.28-.73-.45-.99-.77-1.44,1-2.48.05-1.12-1.36,1.06-.85.91-2.53.41-3.63.66.05,1.38-.35,2.06-.15.87.25.84,1.12.4,1.79Z"/>
    <path class="cls-12" d="M27.06,65.13c-1.13,2.1-3.23-.25-4.88.26l-.13-2.02,5.01,1.76Z"/>
    <path class="cls-98" d="M23.06,72.17l1.12,1.36c-.52.92-1.5,1.31-2.91,1.06-.35.59-.17,1.16.07,1.56-1.44-.5-1.56-1.54-1.14-3.39.22-.96,2.27-.12,2.86-.6Z"/>
  </g>
</svg>