<?xml version="1.0" encoding="UTF-8"?>
<svg id="Enemy" xmlns="http://www.w3.org/2000/svg" viewBox="0 0 69.37 122.87">
  <defs>
    <style>
      .cls-1 {
        fill: #cf9b8a;
      }

      .cls-2 {
        fill: #886f69;
      }

      .cls-3 {
        fill: #14171d;
      }

      .cls-4 {
        fill: #b4251d;
      }

      .cls-5 {
        fill: #111;
      }

      .cls-6 {
        fill: #b19892;
      }

      .cls-7 {
        fill: #766259;
      }

      .cls-8 {
        fill: #0b0c10;
      }

      .cls-9 {
        fill: #0c0f12;
      }

      .cls-10 {
        fill: #301414;
      }

      .cls-11 {
        fill: #181c22;
      }

      .cls-12 {
        fill: #6b5248;
      }

      .cls-13 {
        fill: #987c74;
      }

      .cls-14 {
        fill: #101318;
      }

      .cls-15 {
        fill: #14191d;
      }

      .cls-16 {
        fill: #80482c;
      }

      .cls-17 {
        fill: #4e0f0d;
      }

      .cls-18 {
        fill: #e1743e;
      }

      .cls-19 {
        fill: #feeedf;
      }

      .cls-20 {
        fill: #1a130f;
      }

      .cls-21 {
        fill: #b08e7f;
      }

      .cls-22 {
        fill: #aa8d82;
      }

      .cls-23 {
        fill: #ecc5b4;
      }

      .cls-24 {
        fill: #c56b42;
      }

      .cls-25 {
        fill: #552c27;
      }

      .cls-26 {
        fill: #feebd9;
      }

      .cls-27 {
        fill: #e68350;
      }

      .cls-28 {
        fill: #fae3d4;
      }

      .cls-29 {
        fill: #b05a33;
      }

      .cls-30 {
        fill: #d29d8e;
      }

      .cls-31 {
        fill: #6c1f1c;
      }

      .cls-32 {
        fill: #491a1c;
      }

      .cls-33 {
        fill: #df9c97;
      }

      .cls-34 {
        fill: #483a33;
      }

      .cls-35 {
        fill: #4f1c06;
      }

      .cls-36 {
        fill: #c2221c;
      }

      .cls-37 {
        fill: #883d1b;
      }

      .cls-38 {
        fill: #13161a;
      }

      .cls-39 {
        fill: #d9c5b3;
      }

      .cls-40 {
        fill: #181b1f;
      }

      .cls-41 {
        fill: #bc9a8c;
      }

      .cls-42 {
        fill: #e9c4b2;
      }

      .cls-43 {
        fill: #0d0e10;
      }

      .cls-44 {
        fill: #101317;
      }

      .cls-45 {
        fill: #986e62;
      }

      .cls-46 {
        fill: #916f6c;
      }

      .cls-47 {
        fill: #101216;
      }

      .cls-48 {
        fill: #543433;
      }

      .cls-49 {
        fill: #c09c8e;
      }

      .cls-50 {
        fill: #f8d1bc;
      }

      .cls-51 {
        fill: #d3b7a8;
      }

      .cls-52 {
        fill: #2c0404;
      }

      .cls-53 {
        fill: #5f2f32;
      }

      .cls-54 {
        fill: #0d1015;
      }

      .cls-55 {
        fill: #c0a497;
      }

      .cls-56 {
        fill: #6c3823;
      }

      .cls-57 {
        fill: #78625b;
      }

      .cls-58 {
        fill: #1a1d23;
      }

      .cls-59 {
        fill: #e6cbb7;
      }

      .cls-60 {
        fill: #b19d8e;
      }

      .cls-61 {
        fill: #661b17;
      }

      .cls-62 {
        fill: #de7742;
      }

      .cls-63 {
        fill: #0a090b;
      }

      .cls-64 {
        fill: #896059;
      }

      .cls-65 {
        fill: #16181c;
      }

      .cls-66 {
        fill: #8f1f1a;
      }

      .cls-67 {
        fill: #131416;
      }

      .cls-68 {
        fill: #e0b2a1;
      }

      .cls-69 {
        fill: #a58a84;
      }

      .cls-70 {
        fill: #d8bcb2;
      }

      .cls-71 {
        fill: #f0baa7;
      }

      .cls-72 {
        fill: #c4aca6;
      }

      .cls-73 {
        fill: #210300;
      }

      .cls-74 {
        fill: #191d21;
      }

      .cls-75 {
        fill: #dfae9c;
      }

      .cls-76 {
        fill: #0f1116;
      }

      .cls-77 {
        fill: #edbeac;
      }

      .cls-78 {
        fill: #7e6556;
      }

      .cls-79 {
        fill: #8e3533;
      }

      .cls-80 {
        fill: #ae5325;
      }

      .cls-81 {
        fill: #760b0a;
      }

      .cls-82 {
        fill: #0d0e12;
      }

      .cls-83 {
        fill: #591f1d;
      }

      .cls-84 {
        fill: #121114;
      }

      .cls-85 {
        fill: #e8c0b1;
      }

      .cls-86 {
        fill: #832c2f;
      }

      .cls-87 {
        fill: #3c3e42;
      }

      .cls-88 {
        fill: #561613;
      }

      .cls-89 {
        fill: #85241d;
      }

      .cls-90 {
        fill: #420702;
      }

      .cls-91 {
        fill: #b4572e;
      }

      .cls-92 {
        fill: #f6c1be;
      }

      .cls-93 {
        fill: #88665c;
      }

      .cls-94 {
        fill: #393330;
      }

      .cls-95 {
        fill: #ab8173;
      }

      .cls-96 {
        fill: #f5e6e8;
      }
    </style>
  </defs>
  <path class="cls-31" d="M4.92,112.25c.89.11.9.4.08.86,1.56,1.3,1.78,2.61.64,3.91,2.4.28,2.16,1.96-.37,2.09-.73,2.53-3.78.86-4.61-.99-.84-.08-.86-.4-.13-.94.75-1.33.75-2.43,0-3.32.61-.59.83-1.63,1.77-1.91l2.62.3Z"/>
  <path class="cls-50" d="M27.33,20.27c2.64-1.97,4.33,1.96,2.03,3.73.49,4.63-2.55,5.95-6.5,7.01-.99,2.66-2.53,5.01-4.6,7.04-1.75.52-2.42,1.18-2,2,.89-.22,1.23.11,1,1,4.02-.27,5.53.8,4.51,3.22,2,.84,1.86,1.67-.3,1.78-2.83.3-5.56-.37-8.21-2-.77,1.55-3.03.46-2.93-1.08-2.24.28-2.86-2.33-1.26-3.76l.19-1.21c-.88-.2-.86-.52,0-.95,1.1-2.04,2.41-3.82,3.92-5.34,0-2.09,2.21-4.69,3.99-3.61.99-.3,1.69-1.01,2.12-2.13-.95-2.23,2.65-4.46,4.9-4.96-.89-1.19-.31-1.55,1.07-.97.84-1.36,1.66-1.36,2.07.22Z"/>
  <path class="cls-13" d="M9.07,39.22c-.03,1.37.46,2.66,1.26,3.76.83,1.52.42,1.74-1.07,1.08l-1.51-.16c.16-.96-.99-2.12-.5-3.38.26-.66.78-1.3,1.82-1.3Z"/>
  <path class="cls-67" d="M16.08,48c3.37,1.11,3.87,9.88.09,9.81,3.44,2.74,4.98,6.98,4.62,12.72,2.4.87,2.4,1.11.14,2.3-1,2.25-.57,3.52.96,4.65,2.75-.29,3.01,1.79,1.26,3.69-.93,2.9.83,6.22-.76,8.89.21,3.19-4.33,5.04-6,1.81l-.19-.9.79-1.16c1.56-.52,3.49-1.36,3.71-3.2s-1.72-3.17-2.27-4.55c-1.39-.74-1.8-2.8-.93-4.09,1.46-9.27-4.43-13.25-4.33-19.03l.1-5.88c-.5-1.47-.11-2.9,1-4l.08-1.28c0-1.73,1.54-1.45,1.74.22Z"/>
  <path class="cls-12" d="M18.26,47.06c-.46.44-1.19.76-2.18.95l-1.74-.22c-.63-.53-1.14-1.48-1.93-1.8-.51-.82-.19-1.1.85-.92,1.53-.73,4.72.13,5,2Z"/>
  <path class="cls-78" d="M13.26,44.06c.87.28.86.62,0,1-.3.29-.58.6-.85.92-1.16-.47-2.4-.83-3.15-1.92-.25-.5.6-1.22,1.07-1.08.95.27,1.9,1.1,2.93,1.08Z"/>
  <path class="cls-82" d="M33.05,88.05c-.28,1.85-1,5.34-3.01,4.87-.33-.19-.56-.82-.89-.94-1.07-2.19-.55-4.28,1.56-6.26l.55-5.67c-1.98.95-2.71.28-2.19-2-.62-.34-.38-.8.19-1-.8-2.21-.76-3.89.15-5.03-.52-.81-.19-1.11.85-.97,4.64,2.66,7.32,13.71,2.79,17Z"/>
  <path class="cls-96" d="M5.26,119.11c1.29-1.61,1.93-.98,1,.94,1.87.34,2.57.96,2.1,1.86-.46.29-.89.6-1.29.96l-3.8-.75c-1.23-1.21-3.31-2.03-2.61-4l4.61.99Z"/>
  <path class="cls-4" d="M11.26,113.05c.1,1.54,1.05,2.82,2,4,.61,1.25-.78,2.4-2,2l-1.07-.37c-.43-2.65-1.3-3.18-2.6-1.58-.1,2.09-1.64,2-1.95-.08-.18-.92-.89-1.83-1.62-2.71-.3-.36.35-.83.98-1.19l6.26-.06Z"/>
  <path class="cls-33" d="M7.59,117.1c2.09-1.78,3.48.15,1.68,1.95.92.28.92.66.05,1.16-.44,1.01-1.46.96-3.05-.16-.29-.26-.61-.86-1-.94l.37-2.09,1.95.08Z"/>
  <path class="cls-73" d="M.53,117.18c-.03-.98-.71-2.42,0-3.32.76-.96,2.14.8,1.72,1.59-.31.57-.95,1.71-1.72,1.73Z"/>
  <path class="cls-61" d="M14.45,122.15c-1.99-.36-4.08-.16-6.09-.24l-2.1-1.86c1.01.11,2.04.11,3.05.16,1.62-.72,3.31-1.43,5.08-2.14.68.53,3.07.59,3.02,1.62-.54,1.84-2.26,1.74-2.97,2.46Z"/>
  <path class="cls-81" d="M31.4,18.59c1.87,1.97,2.82,3.78,2.84,5.45,1.64,1.18,2.7,2.07,1.88,4.17,3.7,4.12.03,8.86-4.06,11.61-.74,1.34-1.15,2.8-1.23,4.4-2.85.78-5.66.82-8.42.13,0,.93-.23.87-.64-.05l-4.51-3.22.16-.96c1.97.32,2.25-.02.84-1.04-.88-.25-.85-.58,0-1l3.15-3.71c.75-2.63,2.47-5.66,4.77-3.12,2.13.74,3.78-.28,4.94-3.06-2.61-.52-3.07-1.93-1.76-4.17-.79-1.09-.8-2.84-2.03-3.73-1.17-.91-.44-1.93.93-2.22,1.21-.98,2.84-1.14,3.14.53Z"/>
  <path class="cls-41" d="M24.19,21.03c-1.13,1.62-4.03,3.33-4.9,4.96.06,1.82-.21,2.84-2.12,2.13-1.44.75-3.34,1.93-3.99,3.61-1.04.77-1.23.53-.58-.72l.5-1.75c3.07-2.91,5.56-6.5,9.07-8.88.66-.83,1.84-.53,2.02.65Z"/>
  <path class="cls-23" d="M29.37,24c.97,1.33,1.5,2.51,1.76,4.17-.65,2.13-2.83,4.63-4.94,3.06-5.54,0-1.57,3.27-7.92,6.83-.34-1.75,1.49-2.62,2.66-4.06,1.01-1.24.46-3.07,1.21-3.72,1.11-.96,3.35-.9,4.38-2.05,1.34-1.5.6-4.26,2.85-4.22Z"/>
  <path class="cls-94" d="M25.34,46.24c.79.64.79,1.28,0,1.93,1.58,1.17,1.03,1.81-.83,1.02-.62,1.56-2.49.95-3.28-.13-1.24,2.94-4.29,1.9-5.13-1.05-.03-1.26,1.24-.99,2.18-.95.27-.65,1.34-.98,3.21-1,.3-.56.54-1.13.3-1.78.19-.01.48.13.64.05,2.91-.22,3.89.41,2.93,1.9Z"/>
  <path class="cls-59" d="M18.26,38.06c.06.32-.04.67,0,1,.01,1.23-.93,1.45-2,1-1.39-.25-3.09.88-4.55-1.09,2.22-1.87,4.74-1.13,6.55-.91Z"/>
  <path class="cls-59" d="M21.47,46.06c-.64,1.2-2.02,1.06-3.21,1-1.38-1.22-3.25-1.55-5-2v-1c2.91-.05,5.37,1.68,8.21,2Z"/>
  <path class="cls-21" d="M13.18,31.72c-.83,2.13-1.55,4.49-3.92,5.34-.01-2.42,1.74-4.33,3.34-6.06.65-.34.73.23.58.72Z"/>
  <path class="cls-90" d="M18.26,39.06c.5-.09,2.18-.27,2.05,1.07-.15,1.55-2.24.81-3.05.93-.38-.27-.72-.61-1-1,.32-.81,1.2-1.02,2-1Z"/>
  <path class="cls-83" d="M28.26,18.06c0,.83-.15,1.76-.93,2.22-.69-.04-1.39-.1-2.07-.22-.87-.28-.86-.62,0-1-1.33-1.41-.77-1.92,1-1,.93-.55,1.6-.55,2,0Z"/>
  <path class="cls-71" d="M17.17,28.12c.19-.92,1.76-1.46,2.12-2.13-.18,1.11,1.13,2.19.52,3.18-1.77-.05-2.6-.02-2.64-1.05Z"/>
  <path class="cls-64" d="M25.26,19.06v1c-.18.47-.82.6-1.07.97-.61-.17-2.02.29-2.02-.65.46-.31.68-.95,1.09-1.32.32-2.66,1.24-2.54,2,0Z"/>
  <path class="cls-11" d="M21.22,49.05c1.69,1.13,1.75,1.15,3.28.13l.83-1.02c2.49-1.64,6.74.17,8.12,2.92,1.94-.12,1.92.65-.03,1.15l-1.14,1.74c-1.13-.77-2.14-1.07-3.02-.92.43,1.54.08,3.15-1.06,4.83.71,3.26,1.39,6.24,2.05,8.95.1,2.6-.59,4.33-2.08,5.19,1.01,1.16,1.06,3.07-.91,2.97-1.45,2.17-1.37,5.61-4.12,6.17-.42-1.09-1.05-2.48-1.26-3.69-1.74-.58-2.06-3.25-.96-4.65-.18-.73-.35-1.55-.14-2.3-.3-4.67-.91-11.28-4.62-12.72,1.09-3.16-.01-6.51-.09-9.81,1.74.22,3.42.98,5.13,1.05Z"/>
  <path class="cls-38" d="M20.79,70.53c-.88,1.21-1.9.11-1.32-1.01,2.25-4.77-1.81-7.94-3.3-11.71,2.97-3.75,5.81,8.42,4.62,12.72Z"/>
  <path class="cls-38" d="M21.88,77.48c-1.27,1.31-2.03-.52-2.37-1.38-.49-1.25.16-2.98,1.41-3.27.15,1.58.68,3.1.96,4.65Z"/>
  <path class="cls-66" d="M14.4,118.07c-1.02,1.82-3.12,2.24-5.08,2.14-.08-.37.06-.8-.05-1.16.32-2.66,1.24-2.54,2,0,.74-.59,1.38-1.28,2-2,.29.35.78.74,1.14,1.02Z"/>
  <path class="cls-14" d="M29.26,53.06c4.35-1.34,5.09,2.49,2.18,4.99,3.4-.94,3.09,2.25,1.59,4.77,4.7.69,6.01,6.28,1.15,6.4-.14,1.21-.67,1.74-1.89,1.86-.68.03-1.36.02-2.04-.03-.31.3-.59.63-.85.97.18,1.95-.62,1.94-1.23,0,.94-.61-1.02-2.28-1.95-2.56l2.9-.89c-1.76.54.19-7.27-3.87-10.19,2.14-1.76,1.77-4.81,4-5.33Z"/>
  <g>
    <path class="cls-38" d="M29.26,77.05c1.2.47,1.06,1.06-.19,1,2,1.76.53,4.67-2.11,4.37l.02,3.16c1.78,1.37,2.5,3.5,2.17,6.4,1.37-1.46,1.94-.84.89.94.81,3.13-3.87,5.69-6.68,6.9.71,1.95-.66,3.83-4.1,5.63-.54,2.21-1.45,3.09-2.75,2.62.23,3.22-1.99,5-5.08,4.05-2.02.68-4.46.68-6.52.12-1.29,2.6-1.9,2.55-2.62-.3.08-1.95.86-3.51,1.95-4.99,1.89,2.11,2.96-4.51,1.57-5.99v-.84c3.68,0,4.27-6.7,10.37-9.18.9.01.95.32.19.9l2.42-.1c.48,2.92,1.68,2.35,3.58-1.71-.99-.61-1.17-1.98-.53-4.08-1.42-2.89-.99-4.49,1.29-4.8-.16-2.33,1.22-6.95,4.12-6.17,1.43-2.36,2.85-.18,2,2.06Z"/>
    <g>
      <path class="cls-5" d="M4.26,106.96c1-1.36.75-3.54.96-5.09.06-.42-.17-1.25.61-.89.84-.03,1.91-.06,2.4.66.24.35-.69,7.1-3.91,7.47-.63-.76.06-1.68-.06-2.15Z"/>
      <path class="cls-58" d="M29.15,91.99c-2.15-.37-1.29-2.74-2.36-4.95-1.25,1.52.17,3.58-2.05,4.98-.97-2.29-.58-4.74,1.27-6.41-1.1-.85-2.42-1.74-1.3-2.22l2.25-.96.1.75,1.11.02c.25,1.57.95,2.19,2.09,1.86-1.75-3.54-1.41-5.2,1-5,1.04,4.2-.3,8.11-2.11,11.93Z"/>
      <path class="cls-40" d="M22.38,90.06l1.54,2.89c-2.3,1.49-3.57,3.33-5.33,5.26-.68-2.72-.69-4.83-2.2-6.34,2.21.62,3.84-1.46,6-1.81Z"/>
      <path class="cls-74" d="M13.1,104.35c-.68.06-2.06-1.41-1.94-2.09s1.33-1.61,2.46-2.39c1.32-.91.84,1.07,1.03,1.74.27.96-.35,2.64-1.55,2.74Z"/>
      <path class="cls-10" d="M11.44,112.13c-.01.3-.2.62-.18.92.33,1-.76,1.19-3.28.58-1.54,2-1.93,2.02-2.98-.52l-.08-.86c2.17-.23,4.34-.27,6.52-.12Z"/>
      <path class="cls-54" d="M31.26,80.05c-1.73.95-.87,3.34-1,5l-1.16.39c-.34-1.21-1.02-1.96-2.05-2.26-.53-.18-.39-.37-.1-.75,1.08-1.45,2.99-2.37,2.11-4.37,1.01.28,1.93.94,2.19,2Z"/>
      <path class="cls-54" d="M29.41,72.03c.48,1.69,1.53,3.79-.15,5.03-.12-1.1-.81-2.11-2-2.06.54-.81-.16-2.28.91-2.97h1.23Z"/>
      <path class="cls-38" d="M30.26,85.05c-.07.84-.86,1.53-1.74,2.04l-1.46-3.91c.54-.42,1.66-1.19,2.03-.46.44.9.61,1.74,1.18,2.33Z"/>
    </g>
  </g>
  <path class="cls-36" d="M11.26,119.05h-2c-.28-.85-.81-1.65-1.68-1.95.31-.45-.75-1.93-.04-2.62,1.26-1.24,3.22.19,3.58,1.47.25.9.14,2.06.14,3.11Z"/>
  <path class="cls-15" d="M51.32,87c1.17,1.05,2.39,1.75,3.65,2.1.68.62,1.53,15.98,1.57,18.33,0,.2-.55.42-1.27.63-3.92,1.81-5.27.04-7.23-2.93-.57-.68-1.09-1.4-1.56-2.15-.01-2.7-.62-5.35-1.16-7.99-.41-8.29.49-10.13,2.72-5.52-1.27-1.82-1.2-2.57.22-2.27,1.13-1.87,1.55-1.7,3.05-.2Z"/>
  <path class="cls-89" d="M62.26,111.08c.05,2.26-.96,2.58-3,1.97-.04,1.52-1.35,1.36-2,0-1.11,2.31-5.65,1.7-8.11,1.08-.32-.39-.62-.79-.89-1.22.89-2.14,2.23-2.43,4.01-.86.57-1.37,2.24-2.42,5.02-3.12-.21-.94.12-1.19.98-.76,1.96-2.61,5.85.08,4,2.91Z"/>
  <path class="cls-63" d="M55.26,108.05c1.4-1.52,1.94-.89,1,1-.49,1.05-1.74,1.33-2,0-1.83.22-3.3.67-4.41,1.33l-.59-1.33c-.25-1.35-.76-2.64-1.23-3.93.37-.7-.17-1.76.98-2.12.58,1.98.73,4.11,2,4.83,1.33.76,2.97.08,4.25.22Z"/>
  <path class="cls-25" d="M54.26,109.05c-.13.98-.8,1.98-2,3-.94,1.28-2.59,1.13-4.01.86.76-1.14,1.01-2.5,1.01-3.86h5Z"/>
  <path class="cls-86" d="M57.26,115.05h-8.14s.03-.92.03-.92c2.71-.12,5.74.35,8.11-1.08,2.24.12,2.19,1.49,0,2Z"/>
  <path class="cls-17" d="M41.38,32.96c1.71.4,1.76.96-.02,1.33.09,1.74-.02,3.73-1.93,3.82.15.88-.1.88-.7.12-3.2-.16-5.09,2.67-5.47,5.83,1.4,1.43.62,3.09-1.02,1.22.08,3.16-5.69,3.47-6.91.96-.94-.73-1.65-1.98-2.93-1.9l7.08-1.21c.29-3.27,1.73-6.04,5.08-6.69l1.55-8.23c.44-.63.81-.34,1.14.86.04-1.36.84-2.13,2-1,.54-1.49,1.19-2.46,2.15-.91,2,1.2,2.21,5.08-.03,5.81Z"/>
  <path class="cls-28" d="M31.12,28.17c.23,1.46.02,3.82-1.62,4.12-1.09.2-3.37.74-3.33-1.06,2.3,0,2.81-2.74,4.94-3.06Z"/>
  <path class="cls-42" d="M37.26,21.04c2.28-.4,2.13,1.56.05,2.1.86.29.8.61-.09.95-.26,3.65-1.43,2.64-2.98-.06-1.65-1.35-2.38-3.41-2.84-5.45.1-.88.42-.92.94-.17.68-.3,3.26,1.03,2.42,1.72,1.29-.64,2.01-.78,2.5.9Z"/>
  <path class="cls-60" d="M34.26,17.06c.45,2.21-.2,2.66-1.92,1.36-.3-.01-.64.22-.94.17-1.04-.18-2.08-.53-3.14-.53h-2c1.96-1.96,5.25-.74,7-3,2.66-.99,2.99-.32,1,2Z"/>
  <path class="cls-69" d="M37.22,24.09c2.08-.05,2.05,1.48.04,1.96,1.19.84,1.54,2.31,0,3-.61-.05-.82-.4-1.14-.86-.88-1.27-1.67-2.61-1.88-4.17.88.78,2.08.85,2.98.06Z"/>
  <path class="cls-39" d="M32.25,45.27c1.44.77,2.03,3.21,2.25,4.82,1.16,1.56.59,2.09-1.04.99-2.72-.9-5.97-.91-8.12-2.92-.07-.64-.09-1.29,0-1.93l6.91-.96Z"/>
  <path class="cls-87" d="M24.5,49.19c-.01.86-.42,2.38-1.67,1.83-.61-.27-1.91-1.19-1.61-1.96l3.28.13Z"/>
  <path class="cls-84" d="M33.42,52.23c.41,1.47,2.13,1.27,3.07,2.02,2.09-1.87,4.39.44,4.78,2.72,1.63.45,2.76,1.25,1.1,2.3.27.88.2,1.86-.57,2.18s-8.92-2.75-10.36-3.4c-1.94-1.99,1.17-3.43-.82-4.92-.31-.23-.88-.06-1.37-.07,1.05-.26,2.91-1.63,4.16-.82Z"/>
  <path class="cls-8" d="M47.08,80.96l1.02.36c-.52,2.26-.46,4.22.17,5.88,0,.16.19,3.16-.44,2.67-.7-.54-.61-2.3-1.43-1.91-.59,2.83.58,5.39-1.08,7.03-.33-1.62-1.09-3.16-1.18-4.84-.06-1.03.04-2.06.13-3.08-.62-2.9-.25-4.91,1.1-6.04.29-1.94,1.1-1.94,1.72-.06Z"/>
  <path class="cls-47" d="M34.19,69.22c2.24-.34,3.78.13,2.97,2.83,1.34-.77,3-.61,4.98.45,1.78-2.49,5.14-5.69,7.08-2.15,1.62-.45,1.99.26,1.05,1.63.51,2.63-.84,3.01-3.09,1.87-.55,1.22-.52,2.28.09,3.19,2.69-.27,1.26,2.94-.18,3.9l-1.72.06c-.95.31-2.05-.38-3.3-2.08l-3.63-2.05-6.13-5.81c-.19-.63-.23-1.58.49-1.92.41-.19,1,0,1.4.05Z"/>
  <path class="cls-3" d="M42.37,59.27c.95-1.97,3.28.04,1.73,1.66.41,1.18,1.33,2.51,2.76,3.99l-.82,1.03c3.25,3.32-2.57,5.19-4.48.75-.78,4.48-2.26,6.27-4.42,5.35-.59-.91-3.33-1.04-2.97-2.83.22-1.08,1.53-2.42.87-3.57-.85-1.48-5.27.95-4.9-1.13.47-2.64,3.25-4.47,1.28-6.47,4.08-2.84,9.17,2.59,10.93,1.23Z"/>
  <path class="cls-42" d="M36.26,17.06c-.52-.16-1.19-.16-2,0,0-.75-.48-1.45-1-2v-1c.32,0,.68-.06,1,0,1.48-1.5,2.9-1.95,4.27-1.36.24-.86.52-.82.82.07,1.36,1.05-1.53,4.88-3.09,4.3Z"/>
  <path class="cls-16" d="M46.23,1.18c1.5,1.6,2.56,3.89,5.08,4.09,2.99.15,3.54,2.25.95,3.79-.27,1-1.98.64-2.27-.4-2.37-.21-3.97-1.75-4.81-4.6-1.08,1.64-1.87,1.03-1.91-.96-1.25,2.24-1.29,2.19-2.8.07-.56,2.16-2.94,2.59-4.13.74-.31.85-.63.79-.93-.12.73-1.07,1.88-1.73,2.84-2.57,2.46-.84,5.9-2.26,7.97-.05Z"/>
  <path class="cls-37" d="M37.26,6.06c1.44.9,2.86,2.07,1,3.11,2.51.68,2.4,2.19.27,3.52-.94,1.45-2.67,1.68-4.27,1.36v-1c-.03-1.21.34-2.54,1.12-3.99-2.44-.39-1.48-4.41.88-4.01,1.4-.98,1.91-.55,1,1Z"/>
  <path class="cls-56" d="M36.35,3.91c1.94-.03,1.88.74-.09,1.14-1.15.96-1.25,2.61-.88,4.01.14,1.72-.48,2.96-2.12,1.99-.73-2.74-.79-6.08,2.15-7.26l.93.12Z"/>
  <path class="cls-35" d="M34.26,13.06c-.97-.26-.8-1.27-1-2,.66-.71,1.37-1.37,2.12-1.99.21.79.76,1.51.57,2.42-.17.82-.83,1.37-1.69,1.57Z"/>
  <path class="cls-79" d="M62.26,111.08c.98.12,1.95.22,2.94.27-.27.28.03.87.28,1.12,2.94-.27,2.77,1.71.03,2.48-1.16,1.17-2.97,1.31-4.21.21-1.61-.38-2.29-1.08-2.03-2.1.38-1.33,1.63-2.15,3-1.97Z"/>
  <path class="cls-88" d="M69.37,113.97c-1.2.61-2.53.9-3.87.97.26-.32.63-.85.62-1.35,0-.36-.33-.82-.65-1.13.85-.34,1.94-.94,2.96-.35.54.31.77,1.22.94,1.86Z"/>
  <path class="cls-43" d="M51.4,69.03c2.36.13,4.84,2.59,3.06,4.86,1.86.14,2.7,1.32,2.53,3.54.76,4.69.84,10.6-.7,14.74,1.1-.43,1.23.68.39,3.31l.58,3.58c.47,1.55,1.29,4.44-.26,5.12.27,1.16.23,3.15,1.26,4-.25.31-.75.43-.98.76l-1.02.12c-.07-.47-.51-.95-1-1,.76-8.49-1.44-9.68-.98-18.04-1.73.36-.57,1.71-1.45,3.09-.7-1.78-2.11-4.15-1.51-6.11-2-1.82-.43-8.35,1.84-9.73-3.72-1.28-4.68-3.04-2.89-5.28-.23-.6-.66-1.13-1.05-1.63-2.22-1.87-1.77-2.77,1.07-2.15,1.01-1.61,1.65-1.06,1.12.82Z"/>
  <path class="cls-76" d="M53.15,77.27c.63,3.46-.84,6.5-1.84,9.73-.88.77-2.14,1.04-3.05.2-.51-2.54-.02-10.99.33-11.57,1.17-1.7,2.69-1.16,4.57,1.64Z"/>
  <path class="cls-53" d="M59.26,113.05c1.04.19,1.68,1.19,2.03,2.1l-4.03-.1v-2c.55-.02,1.44-.1,2,0Z"/>
  <path class="cls-30" d="M56.26,109.05l1.02-.12c-1.19,1.67-3.25,2.2-5.02,3.12-.82-.06-1.63-.76-2.02-1.91,1.86-.14,3.27.13,4.02-1.09h2Z"/>
  <path class="cls-70" d="M57.13,28.03c1.66.86,2.78,1.8,1.13,3.03.89.33.89.67,0,1-2.03,1.79-3.45,1.42-4.91-.77.28-.79.61-1.57.93-2.34.91-.44,1.84-.73,2.84-.92Z"/>
  <path class="cls-6" d="M60.26,29.06v2c-.06,2.06-1.6,2.06-2,0-.16-1.08-.54-2.12-1.13-3.03,1.12-.2,2.15,1.02,3.13,1.03Z"/>
  <path class="cls-93" d="M44.29,29.2l.11,4.05c-.88,2.06-2.38,1.79-3.03-.3.02-1.93-.18-3.87.03-5.81-.86-.3-.8-.61.1-.93.83.87,2.76,1.77,2.79,2.99Z"/>
  <path class="cls-7" d="M41.4,38.89c1.96.19,4.32.83,3.94,2.96,1.92.11,1.87.85-.04,1.35-.2.9-.52.89-.95.03-.18,1.95-.99,1.79-1.25-.24-2-1.27-3.61-3.08-5.84-3.94-.03-.7.46-.97,1.47-.83l.7-.12c1.46-2.02,1.74-1.68,1.97.78Z"/>
  <path class="cls-52" d="M38.73,38.23c.79,1.3-.94.77-1.47.83-1.79.81-3.04,2.98-3,5-.28.87-.62.86-1,0-1.58-1.43-.13-3.3,1.02-4.5s3.05-3.21,4.45-1.33Z"/>
  <path class="cls-1" d="M42.26,36.06c1.96.85,2.15,1.57-.04,2.15.44.85.14,1.05-.82.68-.5-.28-1.53-.2-1.97-.78.05-1.51.86-2.8,1.93-3.82,1.84-.64,2.19.26.89,1.77Z"/>
  <path class="cls-77" d="M44.41,33.26c.26.23.5.48.72.75,1.03,1.31,1.07,2.33.13,3.05-.95,1.15-2.68.46-3-1-.39-.54-.69-1.14-.89-1.77l.02-1.33c1,.16,2.01.26,3.03.3Z"/>
  <path class="cls-51" d="M34.5,50.09c-2.06-.67-2.65-2.82-2.25-4.82.95.16,1.07-.26,1.02-1.22h1c.04,2.1,2.09,4.27.24,6.03Z"/>
  <path class="cls-92" d="M39.26,27.06c.86.25.84.58,0,1-.44.74-1.17,1.06-2,1v-3c1.31-2.35,2.55-1.6,2,1Z"/>
  <path class="cls-32" d="M41.5,26.22l-.1.93c-.74.25-1.46.55-2.15.91.04-.33-.06-.68,0-1-1.5-1.5-1.19-2.44.95-2.19l1.3,1.35Z"/>
  <path class="cls-26" d="M41.26,13.06c2.41,2.15,0,4.69-2.77,4.21,2.76,1.36,1.48,3.9-1.23,3.77-.9-.15-2.02.59-3.14.19-.83-.3-1.11-2.03-1.78-2.81.4-.73,1.11-1.19,1.92-1.36-.04.97.63.97,2,0,.91-1.48,2.82-2.4,3.09-4.3-.84-3.64,3.99-3.09,1.91.3Z"/>
  <path class="cls-69" d="M42.37,19.11c1.91,0,1.81.74-.12,1.14-1.03-.16-2.27,1.74-2.2,2.63-.37,2.58-1.8,2.78-2.75.27l-.05-2.1c.53-1.22,1-2.46,1.23-3.77,2.44-3.15,6.07-1.59,3.88,1.84Z"/>
  <path class="cls-48" d="M40.05,22.88l.15,1.99c-.48.65-.81,1.4-.95,2.19l-2-1-.04-1.96.09-.95,2.75-.27Z"/>
  <path class="cls-65" d="M53.15,77.27c-1.01.06-2.08-1.67-3.17-.57-.56.56-.24,1.39-.1,1.93s-.61.62-1.38.98c.8,2.47-.02,5.12-.24,7.59-.7-.21-1.78-1.06-1.89-1.86,1.39-1.51,1.62-3.09.71-4.38-.09-1.23,1.48-2.84.18-3.9-1.55-.1-1.46-2.62-.09-3.19.85-.89,1.87-1.58,3.09-1.87.7,1.84,2.53,3.29,2.89,5.28Z"/>
  <path class="cls-44" d="M46.05,65.95c-.19-2.62.36-2.71,2.04-.76.37,1.06,2.04,1.73,2.18,3.02-.61.56-.89,1.35-1.07,2.15-2.75-.12-3.78,1.25-5.8,3.57-1.21,1.39-5.3-.39-6.26-1.88,2.26-.88,1.39-9.72,5-7.46,1.07.67,1.64,1.77,2.38,3.53.88-.43.88-1.68,1.51-2.17Z"/>
  <path class="cls-44" d="M47.17,73.86l.09,3.19c-.66.06-1.84.21-1.97-.52-.15-.9-.27-1.98.47-2.39.33-.18,1.13,0,1.41-.29Z"/>
  <path class="cls-9" d="M48.09,65.19c-.54.52-1.44.45-2.04.76.36-1.12-5.19-5.94-1.95-5.02,1.85.7,3.34,2.38,3.99,4.26Z"/>
  <path class="cls-29" d="M43.59,10.34c3.45,2.06-.17,6.11-2.33,2.72.19-.55-.13-.67-.68-.84-.48-.15-1.02-.1-1.23.55l-.82-.07c-.35-1.15-.68-2.35-.27-3.52.11-1.76,1.6-1.63,3.09-1.2.18-.89.49-.87.92-.02,1.49.12,2.29,1.08,1.32,2.38Z"/>
  <path class="cls-19" d="M36.26,17.06l-.96,1.56c-.35.57-1.02.56-1.03-.11v-1.45c.63-.24,1.18-2.21,1.53-1.97.67.47.51,1.45.46,1.97Z"/>
  <path class="cls-68" d="M49.99,8.66l2.27.4c.06.4-.08.83-.05,1.24-1.32-.06-3.32-.74-4,.8.74,3.44-2.18,8.81-5.84,8.01-.73-1.53-2.22-2.51-3.88-1.84l2.77-4.21c.37-.35,1.48-.16,1.84-.78.34-.58.48-1.27.48-1.94-.3-1.59,1.5-1.67,2.77-1.06-.3-3.27,1.46-2.21,3.63-.62Z"/>
  <path class="cls-18" d="M43.27,3.1l2.19,3.87c.91.19.94.56.15,1.09-.88,1.64-2.43,1.46-3.35-.1l-.92.02c-1.55.68-3.49.05-3.09-1.92.28-1.09,1.06-2.14,2.22-2.89.98-.45,1.86-.48,2.8-.07Z"/>
  <path class="cls-24" d="M49.99,8.66c-1.19-.21-2.44.36-3.63.62-1.56.49-1.92-.12-.75-1.23l-.15-1.09c-1.45-.95-2.08-2.19-.28-2.91,1.94,1.14,3.38,2.87,4.81,4.6Z"/>
  <path class="cls-27" d="M45.18,4.06c.2.96.43,1.93.28,2.91-1.07-.07-2.12-.48-2.75-1.72-.32-.61-.08-1.48.57-2.15.68.3,1.27.58,1.91.96Z"/>
  <path class="cls-62" d="M38.26,6.06c-.28.87-.62.86-1,0l-1-1,.09-1.14c1.42.18,2.83-.15,4.13-.74.09.7.1,1.5-.3,2.23-.34.63-1.17.82-1.92.66Z"/>
  <path class="cls-91" d="M41.35,7.97c-.76.91-1.91,1.32-3.09,1.2-.49-.98-.82-2.03-1-3.11h1c.91.84,2.29.93,3.09,1.92Z"/>
  <path class="cls-20" d="M54.5,35.7c.25-.86.53-.82.84.07,1.71.17,1.4,1.55.03,2.49-.35-.03-.71.37-1.06.3-.94,1.85-1.85,1.7-2.03-.37-1.57,1.07-2.07.45-.93-1.09-2.11.03-1.61-.81-.09-2.03,1.61-2.73,2.25-2.07,3.24.64Z"/>
  <path class="cls-49" d="M54.31,38.55c.13,1.44-.67,2.77-1.84,3.6-.4.28-1.1.22-1.18.88l-1.12.1c-1.44,1.41-4.03,2.31-4.87.08l.04-1.35c-.39-1.91.43-2.03,1.14-.14,1.34-1.65,3.68-2.73,5.79-3.54.54.25,1.43.25,2.03.37Z"/>
  <path class="cls-72" d="M60.26,31.06c0,.71.15,1.48-.12,2.36-.22.71-1.1.83-1.88.64-.57-.33-.57-.67,0-1-.87-.28-.86-.62,0-1,0-.33.05-.67,0-1h2Z"/>
  <path class="cls-34" d="M57.26,37.06c-.61.43-.96,1.27-1.9,1.2.38-.8.52-1.74-.03-2.49-.37-.95-.04-1.17.92-.71,1.69-.75,1.78.52,1,2Z"/>
  <path class="cls-2" d="M58.26,34.06c.19,1.23.01,2.28-1,3,.02-.8-.19-1.68-1-2-2.29-2.12-.48-3.66,2-2,0,.33-.05.68,0,1Z"/>
  <path class="cls-46" d="M49.21,14.03c-.96,3.35-3.28,6.79-6.96,6.22l.12-1.14c3.53-1.4,4.38-4.7,5.84-8.01.86.12,1.24,2.08,1,2.93Z"/>
  <path class="cls-22" d="M58.26,32.06v1c-.91.38-1.62,1.09-2,2-.36.16-.69.39-.92.71l-.84-.07c-1.73-1.45-2.16-2.66-1.27-3.62.07-.26.04-.55.13-.8,1.69-.37,3.46-.21,4.91.77Z"/>
  <path class="cls-55" d="M47.26,37.06c1.49-.26,1.47.48-.05,2.22-.26.87-.59.8-.99-.09-1.17-.72-1.49-1.43-.96-2.13-.05-.97-1.46-2.57-.13-3.05,1.46.29,2.16,1.62,2.13,3.05Z"/>
  <path class="cls-34" d="M54.5,35.7c-.76-.15-1.21-1.21-1.77-1.52-.33-.18-.87,1.31-1.47.88.05-1.3.7-2.53,1.97-2.98,1.39.6,1.24,2.31,1.27,3.62Z"/>
  <path class="cls-45" d="M51.35,37.09c-.16,2.42-2.01,3.53-4.14,2.19l.05-2.22,4-2,.09,2.03Z"/>
  <path class="cls-95" d="M46.22,39.19c.3.1.67.01.99.09,2.53.96,1.9,2.07-.73,2.44-.32-.13-.8.21-1.14.14-1.44-.84-2.87-1.68-3.94-2.96.3-.2.58-.42.82-.68.79-1.66,3.27-.54,4,.98Z"/>
  <path class="cls-57" d="M50.17,43.13c-.4,1.35-1.8,2.71-3.46,2.7-1.15,0-2.34-1.32-2.36-2.59.31.06.64-.04.95-.03,1.62.05,3.25.07,4.87-.08Z"/>
  <path class="cls-75" d="M45.26,37.06c.85.4,1.09,1.23.96,2.13-1.3-.44-2.62-.86-4-.98l.04-2.15c1.07.13,2.04.55,3,1Z"/>
  <path class="cls-80" d="M45.61,8.06c.54.02.75.82.75,1.23-.74.72-1.74,1.05-2.77,1.06-.87-.48-1.38-1.39-1.32-2.38,1.11-.02,2.23.05,3.35.1Z"/>
  <path class="cls-85" d="M51.35,37.09c.31.23.72.77.93,1.09-.63,1.19-.04,2.53-.91,2.83-1.72.59-3.75,1.16-4.88.71.47-.73.71-1.58.73-2.44,1.24-1,2.47-2.19,4.14-2.19Z"/>
</svg>