<?xml version="1.0" encoding="UTF-8"?>
<svg id="Enemy" xmlns="http://www.w3.org/2000/svg" viewBox="0 0 124.07 69.2">
  <defs>
    <style>
      .cls-1 {
        fill: #cf9b8a;
      }

      .cls-2 {
        fill: #886f69;
      }

      .cls-3 {
        fill: #14171d;
      }

      .cls-4 {
        fill: #b4251d;
      }

      .cls-5 {
        fill: #111;
      }

      .cls-6 {
        fill: #b19892;
      }

      .cls-7 {
        fill: #766259;
      }

      .cls-8 {
        fill: #0b0c10;
      }

      .cls-9 {
        fill: #0c0f12;
      }

      .cls-10 {
        fill: #301414;
      }

      .cls-11 {
        fill: #181c22;
      }

      .cls-12 {
        fill: #6b5248;
      }

      .cls-13 {
        fill: #987c74;
      }

      .cls-14 {
        fill: #101318;
      }

      .cls-15 {
        fill: #14191d;
      }

      .cls-16 {
        fill: #80482c;
      }

      .cls-17 {
        fill: #4e0f0d;
      }

      .cls-18 {
        fill: #e1743e;
      }

      .cls-19 {
        fill: #feeedf;
      }

      .cls-20 {
        fill: #1a130f;
      }

      .cls-21 {
        fill: #b08e7f;
      }

      .cls-22 {
        fill: #aa8d82;
      }

      .cls-23 {
        fill: #ecc5b4;
      }

      .cls-24 {
        fill: #c56b42;
      }

      .cls-25 {
        fill: #552c27;
      }

      .cls-26 {
        fill: #feebd9;
      }

      .cls-27 {
        fill: #e68350;
      }

      .cls-28 {
        fill: #fae3d4;
      }

      .cls-29 {
        fill: #b05a33;
      }

      .cls-30 {
        fill: #d29d8e;
      }

      .cls-31 {
        fill: #6c1f1c;
      }

      .cls-32 {
        fill: #491a1c;
      }

      .cls-33 {
        fill: #df9c97;
      }

      .cls-34 {
        fill: #483a33;
      }

      .cls-35 {
        fill: #4f1c06;
      }

      .cls-36 {
        fill: #c2221c;
      }

      .cls-37 {
        fill: #883d1b;
      }

      .cls-38 {
        fill: #13161a;
      }

      .cls-39 {
        fill: #d9c5b3;
      }

      .cls-40 {
        fill: #181b1f;
      }

      .cls-41 {
        fill: #bc9a8c;
      }

      .cls-42 {
        fill: #e9c4b2;
      }

      .cls-43 {
        fill: #0d0e10;
      }

      .cls-44 {
        fill: #101317;
      }

      .cls-45 {
        fill: #986e62;
      }

      .cls-46 {
        fill: #916f6c;
      }

      .cls-47 {
        fill: #101216;
      }

      .cls-48 {
        fill: #543433;
      }

      .cls-49 {
        fill: #c09c8e;
      }

      .cls-50 {
        fill: #f8d1bc;
      }

      .cls-51 {
        fill: #d3b7a8;
      }

      .cls-52 {
        fill: #2c0404;
      }

      .cls-53 {
        fill: #5f2f32;
      }

      .cls-54 {
        fill: #0d1015;
      }

      .cls-55 {
        fill: #c0a497;
      }

      .cls-56 {
        fill: #6c3823;
      }

      .cls-57 {
        fill: #78625b;
      }

      .cls-58 {
        fill: #1a1d23;
      }

      .cls-59 {
        fill: #e6cbb7;
      }

      .cls-60 {
        fill: #b19d8e;
      }

      .cls-61 {
        fill: #661b17;
      }

      .cls-62 {
        fill: #de7742;
      }

      .cls-63 {
        fill: #0a090b;
      }

      .cls-64 {
        fill: #896059;
      }

      .cls-65 {
        fill: #16181c;
      }

      .cls-66 {
        fill: #8f1f1a;
      }

      .cls-67 {
        fill: #131416;
      }

      .cls-68 {
        fill: #e0b2a1;
      }

      .cls-69 {
        fill: #a58a84;
      }

      .cls-70 {
        fill: #d8bcb2;
      }

      .cls-71 {
        fill: #f0baa7;
      }

      .cls-72 {
        fill: #c4aca6;
      }

      .cls-73 {
        fill: #210300;
      }

      .cls-74 {
        fill: #191d21;
      }

      .cls-75 {
        fill: #dfae9c;
      }

      .cls-76 {
        fill: #0f1116;
      }

      .cls-77 {
        fill: #edbeac;
      }

      .cls-78 {
        fill: #7e6556;
      }

      .cls-79 {
        fill: #8e3533;
      }

      .cls-80 {
        fill: #ae5325;
      }

      .cls-81 {
        fill: #760b0a;
      }

      .cls-82 {
        fill: #0d0e12;
      }

      .cls-83 {
        fill: #591f1d;
      }

      .cls-84 {
        fill: #121114;
      }

      .cls-85 {
        fill: #e8c0b1;
      }

      .cls-86 {
        fill: #832c2f;
      }

      .cls-87 {
        fill: #3c3e42;
      }

      .cls-88 {
        fill: #561613;
      }

      .cls-89 {
        fill: #85241d;
      }

      .cls-90 {
        fill: #420702;
      }

      .cls-91 {
        fill: #b4572e;
      }

      .cls-92 {
        fill: #f6c1be;
      }

      .cls-93 {
        fill: #88665c;
      }

      .cls-94 {
        fill: #393330;
      }

      .cls-95 {
        fill: #ab8173;
      }

      .cls-96 {
        fill: #f5e6e8;
      }
    </style>
  </defs>
  <g id="SquirrlyGambler">
    <path class="cls-31" d="M113.52,64.47c.08-.9.37-.91.86-.11,1.25-1.61,2.54-1.86,3.88-.77.19-2.4,1.89-2.23,2.11.3,2.55.65.99,3.75-.83,4.64-.05.85-.37.87-.94.16-1.35-.7-2.46-.67-3.32.11-.61-.59-1.66-.77-1.97-1.7l.2-2.63Z"/>
    <path class="cls-50" d="M20.82,45.29c-2.06-2.57,1.81-4.39,3.66-2.16,4.61-.65,6.03,2.34,7.23,6.25,2.69.9,5.09,2.35,7.2,4.36.58,1.73,1.27,2.37,2.07,1.93-.25-.89.07-1.23.96-1.03-.41-4.01.61-5.55,3.06-4.62.77-2.03,1.61-1.92,1.79.24.4,2.81-.18,5.57-1.71,8.28,1.58.72.57,3.02-.98,2.97.36,2.23-2.23,2.94-3.71,1.39l-1.22-.15c-.17.89-.49.88-.95.04-2.08-1.03-3.9-2.27-5.47-3.73-2.09.07-4.76-2.04-3.74-3.86-.33-.98-1.07-1.66-2.2-2.04-2.2,1.03-4.55-2.49-5.13-4.72-1.16.93-1.53.37-1.01-1.04-1.39-.79-1.41-1.62.14-2.08Z"/>
    <path class="cls-13" d="M40.39,62.87c1.37-.02,2.64-.55,3.71-1.39,1.49-.89,1.73-.48,1.12,1.03l-.1,1.51c-.97-.13-2.08,1.07-3.36.61-.67-.24-1.33-.73-1.36-1.77Z"/>
    <path class="cls-67" d="M48.93,55.56c1-3.4,9.74-4.21,9.8-.43,2.62-3.53,6.8-5.22,12.55-5.06.79-2.42,1.02-2.44,2.3-.22,2.28.92,3.54.44,4.62-1.12-.39-2.73,1.68-3.07,3.64-1.39,2.93.83,6.19-1.05,8.91.45,3.18-.33,5.19,4.15,2.01,5.93l-.9.23-1.18-.75c-.58-1.54-1.49-3.44-3.32-3.59-1.75-.15-3.1,1.83-4.47,2.43-.69,1.42-2.74,1.9-4.05,1.07-9.31-1.13-13.09,4.89-18.87,4.99l-5.88.1c-1.45.55-2.9.21-4.03-.86l-1.28-.04c-1.73.06-1.51-1.48.16-1.75Z"/>
    <path class="cls-12" d="M47.9,53.42c.46.45.8,1.16,1.02,2.14l-.16,1.75c-.5.64-1.44,1.19-1.73,1.99-.8.54-1.09.22-.95-.81-.78-1.51-.03-4.73,1.82-5.07Z"/>
    <path class="cls-78" d="M45.08,58.52c.25-.88.59-.88,1-.03.3.29.62.56.95.81-.43,1.18-.74,2.43-1.81,3.22-.49.26-1.24-.56-1.12-1.03.24-.96,1.04-1.93.98-2.97Z"/>
    <path class="cls-82" d="M88.36,37.21c1.85.22,5.37.82,4.97,2.83-.18.34-.8.59-.91.93-2.15,1.15-4.26.7-6.31-1.34l-5.69-.35c1.02,1.95.38,2.7-1.92,2.26-.32.64-.78.4-1.01-.15-2.18.88-3.86.89-5.03.03-.8.55-1.1.23-1-.82,2.5-4.73,13.45-7.79,16.89-3.38Z"/>
    <path class="cls-96" d="M120.37,63.89c-1.65-1.23-1.05-1.9.9-1.03.28-1.88.87-2.6,1.78-2.16.3.45.63.87,1.01,1.26l-.62,3.83c-1.17,1.27-1.91,3.38-3.9,2.74l.83-4.64Z"/>
    <path class="cls-4" d="M114.11,58.11c1.54-.15,2.78-1.15,3.93-2.14,1.23-.65,2.42.69,2.07,1.93l-.33,1.09c-2.63.52-3.13,1.41-1.49,2.66,2.09.03,2.06,1.57-.01,1.95-.92.22-1.8.95-2.66,1.71-.35.31-.84-.32-1.22-.94l-.28-6.26Z"/>
    <path class="cls-33" d="M118.28,61.64c-1.86-2.02.03-3.48,1.89-1.74.24-.93.63-.94,1.15-.09,1.03.41,1.01,1.42-.05,3.06-.25.3-.84.64-.9,1.03l-2.11-.3v-1.95Z"/>
    <path class="cls-73" d="M118.6,68.7c-.98.06-2.39.79-3.32.11-.99-.73.73-2.16,1.53-1.77.58.29,1.74.89,1.79,1.66Z"/>
    <path class="cls-61" d="M123.09,54.61c-.29,2-.02,4.08-.03,6.09l-1.78,2.16c.07-1.02.04-2.04.05-3.06-.77-1.59-1.55-3.26-2.32-5.01.51-.7.48-3.08,1.52-3.08,1.86.47,1.82,2.2,2.56,2.89Z"/>
    <path class="cls-81" d="M18.99,41.28c1.9-1.94,3.68-2.95,5.34-3.03,1.12-1.68,1.98-2.78,4.1-2.03,3.99-3.84,8.86-.34,11.74,3.65,1.36.69,2.84,1.05,4.44,1.08.88,2.82,1.02,5.63.42,8.41.93-.03.88.2-.03.64l-3.06,4.62-.97-.12c.25-1.98-.1-2.25-1.07-.81-.22.88-.55.87-1,.03l-3.82-3.02c-2.66-.66-5.74-2.27-3.28-4.66.67-2.16-.41-3.77-3.23-4.83-.43,2.62-1.82,3.13-4.11,1.9-1.06.83-2.81.9-3.66,2.16-.87,1.2-1.91.5-2.25-.85-1.02-1.18-1.24-2.8.42-3.16Z"/>
    <path class="cls-41" d="M21.68,48.4c1.66,1.07,3.47,3.91,5.13,4.72,1.82-.12,2.85.11,2.2,2.04.8,1.41,2.04,3.27,3.74,3.86.8,1.01.57,1.21-.7.6l-1.76-.44c-3.01-2.97-6.69-5.33-9.19-8.75-.85-.63-.59-1.82.58-2.04Z"/>
    <path class="cls-23" d="M24.48,43.12c1.3-1.01,2.45-1.58,4.11-1.9,2.15.58,4.73,2.67,3.23,4.83.2,5.53,3.32,1.45,7.1,7.68-1.74.4-2.67-1.4-4.15-2.52-1.27-.97-3.09-.35-3.76-1.08-1-1.08-1.02-3.32-2.2-4.31-1.55-1.29-4.28-.45-4.32-2.7Z"/>
    <path class="cls-94" d="M46.84,46.37c.61-.81,1.26-.83,1.93-.07,1.11-1.62,1.77-1.1,1.05.8,1.58.57,1.03,2.45-.02,3.29,2.99,1.14,2.05,4.22-.87,5.17-1.25.07-1.04-1.2-1.02-2.14-.66-.25-1.03-1.3-1.11-3.18-.57-.28-1.15-.5-1.79-.24-.02-.19.11-.49.03-.64-.33-2.9.27-3.9,1.8-2.99Z"/>
    <path class="cls-59" d="M38.91,53.73c.32-.07.67.01,1-.03,1.22-.05,1.48.88,1.07,1.96-.2,1.39.99,3.06-.93,4.59-1.95-2.16-1.29-4.7-1.14-6.52Z"/>
    <path class="cls-59" d="M46.79,50.24c1.22.6,1.13,1.98,1.11,3.18-1.17,1.43-1.44,3.31-1.82,5.07l-1,.03c-.15-2.91,1.5-5.42,1.71-8.28Z"/>
    <path class="cls-21" d="M32.76,59.03c2.16.75,4.54,1.39,5.47,3.73-2.42.1-4.39-1.58-6.17-3.13-.36-.64.2-.74.7-.6Z"/>
    <path class="cls-90" d="M39.91,53.7c-.1-.5-.35-2.17,1-2.09,1.56.1.89,2.21,1.04,3.02-.26.39-.58.74-.96,1.03-.82-.29-1.06-1.16-1.07-1.96Z"/>
    <path class="cls-83" d="M18.57,44.44c.83-.02,1.77.09,2.25.85-.01.69-.05,1.39-.14,2.08-.25.88-.59.88-1,.03-1.36,1.37-1.89.83-1.03-.96-.59-.91-.61-1.58-.07-2Z"/>
    <path class="cls-71" d="M29.01,55.17c-.92-.15-1.52-1.71-2.2-2.04,1.12.15,2.15-1.2,3.16-.63.01,1.77.07,2.6-.96,2.68Z"/>
    <path class="cls-64" d="M19.68,47.4l1-.03c.48.16.63.79,1.01,1.04-.15.61.36,2.01-.58,2.04-.33-.45-.97-.65-1.35-1.04-2.67-.23-2.58-1.15-.07-2Z"/>
    <path class="cls-11" d="M49.79,50.39c1.07-1.73,1.09-1.79.02-3.29l-1.05-.8c-1.73-2.43-.06-6.74,2.64-8.21-.19-1.93.58-1.94,1.15,0l1.78,1.08c-.73,1.16-1,2.17-.81,3.05,1.53-.49,3.15-.19,4.86.89,3.23-.82,6.19-1.61,8.87-2.36,2.59-.19,4.35.44,5.26,1.9,1.12-1.05,3.03-1.17,3,.81,2.22,1.37,5.66,1.17,6.31,3.9-1.08.46-2.44,1.13-3.64,1.39-.52,1.76-3.18,2.17-4.62,1.12-.73.2-1.54.4-2.3.22-4.66.46-11.25,1.3-12.55,5.06-3.2-.98-6.51.24-9.8.43.16-1.75.86-3.45.87-5.17Z"/>
    <path class="cls-38" d="M71.27,50.07c1.24.83.18,1.89-.96,1.36-4.85-2.09-7.87,2.09-11.59,3.7-3.86-2.83,8.21-6.11,12.55-5.06Z"/>
    <path class="cls-38" d="M78.19,48.74c1.35,1.23-.45,2.05-1.3,2.42-1.23.53-2.98-.06-3.32-1.3,1.58-.2,3.07-.79,4.62-1.12Z"/>
    <path class="cls-66" d="M119.01,54.8c1.86.95,2.34,3.04,2.32,5.01-.36.1-.8-.04-1.15.09-2.67-.23-2.58-1.15-.07-2-.61-.72-1.33-1.34-2.07-1.93.34-.3.71-.8.98-1.17Z"/>
    <path class="cls-14" d="M53.52,42.21c-1.49-4.3,2.31-5.18,4.91-2.36-1.06-3.37,2.14-3.17,4.71-1.76.52-4.73,6.07-6.23,6.36-1.38,1.22.1,1.76.61,1.93,1.82.06.68.07,1.36.04,2.04.31.3.65.57,1,.82,1.94-.25,1.96.55.04,1.23-.64-.92-2.24,1.1-2.49,2.03l-1-2.87c.6,1.74-7.27.06-10.04,4.22-1.84-2.07-4.87-1.6-5.47-3.81Z"/>
    <g>
      <path class="cls-38" d="M77.5,41.38c.43-1.21,1.02-1.1,1.01.15,1.69-2.06,4.65-.69,4.44,1.96l3.16-.13c1.3-1.82,3.41-2.62,6.32-2.39-1.51-1.31-.9-1.91.91-.93,3.1-.92,5.83,3.67,7.13,6.43,1.92-.77,3.85.53,5.77,3.9,2.23.46,3.14,1.35,2.71,2.66,3.21-.34,5.07,1.81,4.23,4.93.75,2,.84,4.43.35,6.51,2.65,1.19,2.61,1.81-.2,2.63-1.96-.02-3.54-.73-5.05-1.78,2.05-1.97-4.61-2.8-6.04-1.36l-.84.02c-.13-3.67-6.84-4.02-9.53-10.03-.02-.9.29-.96.9-.23l-.18-2.42c2.9-.59,2.29-1.76-1.83-3.51-.58,1.01-1.93,1.23-4.06.67-2.84,1.52-4.46,1.15-4.85-1.12-2.32.24-6.99-.98-6.31-3.9-2.4-1.35-.28-2.84,1.98-2.07Z"/>
      <g>
        <path class="cls-5" d="M108.26,65.32c-1.39-.96-3.57-.63-5.12-.78-.42-.04-1.24.22-.92-.57-.06-.84-.13-1.9.58-2.43.34-.25,7.12.44,7.6,3.64-.74.65-1.68,0-2.14.14Z"/>
        <path class="cls-58" d="M92.43,40.97c-.29,2.16-2.69,1.39-4.87,2.53,1.56,1.2,3.58-.3,5.05,1.87-2.26,1.05-4.72.74-6.45-1.04-.81,1.13-1.65,2.47-2.17,1.37l-1.04-2.21.75-.13-.02-1.11c1.56-.3,2.15-1.02,1.78-2.16-3.47,1.87-5.15,1.6-5.03-.82,4.16-1.19,8.11.02,12,1.69Z"/>
        <path class="cls-40" d="M90.74,47.8l2.83-1.64c1.57,2.25,3.45,3.45,5.44,5.14-2.69.78-4.8.86-6.26,2.42.54-2.23-1.6-3.79-2.01-5.93Z"/>
        <path class="cls-74" d="M105.35,56.57c.08.67-1.34,2.11-2.02,2.01s-1.65-1.27-2.47-2.37c-.96-1.28,1.04-.87,1.71-1.09.95-.31,2.65.26,2.79,1.45Z"/>
        <path class="cls-10" d="M113.18,57.96c.3,0,.63.18.93.15.99-.37,1.22.72.7,3.25,2.05,1.47,2.09,1.86-.42,3l-.86.11c-.3-2.16-.42-4.33-.35-6.51Z"/>
        <path class="cls-54" d="M80.43,39.27c1.01,1.7,3.37.75,5.03.82l.43,1.14c-1.2.38-1.93,1.09-2.19,2.12-.16.54-.35.4-.75.13-1.48-1.03-2.48-2.91-4.44-1.96.24-1.02.88-1.96,1.92-2.26Z"/>
        <path class="cls-54" d="M72.47,41.41c1.67-.53,3.73-1.66,5.03-.03-1.09.15-2.08.88-1.98,2.07-.83-.52-2.27.24-3-.81l-.04-1.23Z"/>
        <path class="cls-38" d="M85.46,40.1c.84.04,1.56.8,2.1,1.67l-3.86,1.6c-.43-.53-1.24-1.62-.53-2.01.88-.48,1.72-.67,2.29-1.26Z"/>
      </g>
    </g>
    <path class="cls-36" d="M120.1,57.9l.07,2c-.84.31-1.62.86-1.89,1.74-.46-.29-1.91.81-2.62.14-1.29-1.22.08-3.23,1.34-3.63.89-.28,2.06-.22,3.11-.25Z"/>
    <path class="cls-15" d="M86.67,18.99c1-1.21,1.66-2.45,1.97-3.72.6-.7,15.92-2.09,18.26-2.21.2-.01.44.54.67,1.25,1.95,3.86.23,5.27-2.68,7.32-.66.59-1.36,1.14-2.09,1.63-2.7.11-5.32.81-7.94,1.44-8.28.7-10.14-.14-5.61-2.52-1.77,1.33-2.53,1.29-2.27-.14-1.91-1.07-1.75-1.49-.31-3.05Z"/>
    <path class="cls-89" d="M110.35,7.21c2.26-.13,2.61.87,2.08,2.93,1.52-.01,1.41,1.3.07,2,2.35,1.03,1.89,5.59,1.36,8.07-.38.33-.77.65-1.18.94-2.17-.82-2.5-2.14-1-3.97-1.39-.52-2.49-2.16-3.3-4.91-.93.24-1.2-.07-.79-.95-2.68-1.87-.12-5.84,2.76-4.1Z"/>
    <path class="cls-63" d="M107.57,14.31c-1.57-1.35-.95-1.9.96-1.03,1.06.46,1.39,1.7.07,2,.29,1.82.78,3.27,1.49,4.36l-1.31.64c-1.35.3-2.61.85-3.89,1.36-.71-.34-1.75.23-2.15-.91,1.96-.65,4.08-.88,4.76-2.16.71-1.35-.02-2.97.07-4.25Z"/>
    <path class="cls-25" d="M108.61,15.28c.98.1,2,.73,3.07,1.89,1.31.89,1.22,2.55,1,3.97-1.16-.72-2.54-.93-3.89-.87l-.17-5Z"/>
    <path class="cls-86" d="M114.5,12.07l.28,8.14h-.92c-.21-2.7.15-5.75-1.36-8.07.04-2.24,1.41-2.24,2-.07Z"/>
    <path class="cls-17" d="M33.01,30.8c.34-1.72.9-1.79,1.33-.03,1.73-.15,3.73-.11,3.89,1.8.88-.18.89.07.14.7-.05,3.2,2.84,4.99,6.02,5.27,1.38-1.45,3.07-.73,1.25.97,3.15-.19,3.66,5.56,1.2,6.87-.69.97-1.92,1.72-1.8,2.99l-1.46-7.03c-3.28-.18-6.1-1.52-6.86-4.85l-8.28-1.27c-.64-.41-.37-.8.82-1.17-1.36,0-2.16-.76-1.07-1.96-1.51-.49-2.5-1.1-.99-2.11,1.13-2.04,5-2.38,5.81-.18Z"/>
    <path class="cls-28" d="M28.58,41.22c1.45-.28,3.82-.15,4.17,1.47.24,1.09.85,3.34-.94,3.36-.08-2.3-2.83-2.72-3.23-4.83Z"/>
    <path class="cls-42" d="M21.24,35.34c-.48-2.26,1.48-2.18,2.1-.12.26-.87.58-.82.95.06,3.65.13,2.69,1.34.04,2.98-1.29,1.69-3.33,2.5-5.34,3.03-.88-.07-.93-.38-.2-.93-.32-.67.92-3.29,1.63-2.47-.68-1.27-.85-1.98.81-2.53Z"/>
    <path class="cls-60" d="M17.37,38.47c2.19-.52,2.67.1,1.43,1.87,0,.3.24.64.2.93-.15,1.05-.45,2.1-.42,3.16l.07,2c-2.03-1.89-.93-5.22-3.24-6.89-1.08-2.62-.43-2.98,1.96-1.07Z"/>
    <path class="cls-69" d="M24.3,35.28c-.12-2.07,1.41-2.1,1.96-.11.8-1.22,2.25-1.62,3-.1-.02.61-.38.83-.82,1.17-1.23.93-2.55,1.76-4.1,2.03.75-.9.77-2.11-.04-2.98Z"/>
    <path class="cls-39" d="M45.64,39.5c.72-1.47,3.13-2.14,4.73-2.42,1.52-1.21,2.07-.66,1.03,1.01-.81,2.75-.7,6-2.64,8.21-.64.1-1.28.13-1.93.07l-1.2-6.87Z"/>
    <path class="cls-87" d="M49.81,47.11c.86-.02,2.39.34,1.88,1.61-.25.62-1.13,1.95-1.9,1.68l.02-3.29Z"/>
    <path class="cls-84" d="M52.55,38.09c1.46-.46,1.2-2.17,1.91-3.14-1.94-2.03.29-4.4,2.55-4.88.39-1.65,1.15-2.8,2.26-1.18.87-.31,1.85-.27,2.2.49s-2.44,9.01-3.04,10.47c-1.92,2.01-3.47-1.04-4.89.99-.22.32-.03.88-.02,1.37-.3-1.04-1.73-2.86-.97-4.13Z"/>
    <path class="cls-8" d="M80.78,23.43l.33-1.03c2.28.44,4.23.31,5.87-.37.16,0,3.15-.3,2.68.35-.51.71-2.27.69-1.86,1.49,2.85.49,5.37-.77,7.06.83-1.61.39-3.13,1.2-4.8,1.35-1.02.1-2.06.04-3.08-.02-2.87.72-4.9.42-6.07-.89-1.94-.22-1.98-1.03-.12-1.71Z"/>
    <path class="cls-47" d="M69.5,36.73c-.42-2.22,0-3.79,2.73-3.06-.81-1.31-.72-2.97.28-4.99-2.55-1.69-5.87-4.94-2.39-7-.5-1.6.19-2,1.59-1.11,2.61-.6,3.04.74,1.98,3.02,1.23.51,2.3.44,3.19-.2-.37-2.68,2.89-1.36,3.91.04l.12,1.71c.34.94-.31,2.07-1.96,3.37l-1.93,3.7-5.59,6.33c-.62.21-1.58.29-1.93-.42-.2-.4-.04-1,0-1.4Z"/>
    <path class="cls-3" d="M59.27,28.89c-2-.88-.08-3.28,1.6-1.79,1.16-.45,2.46-1.42,3.89-2.9l1.06.78c3.21-3.36,5.28,2.39.91,4.45,4.51.63,6.34,2.04,5.5,4.23-.89.62-.92,3.36-2.73,3.06-1.09-.18-2.47-1.45-3.6-.75-1.45.9,1.13,5.23-.96,4.93-2.65-.38-4.58-3.09-6.51-1.06-2.98-3.98,2.27-9.26.84-10.96Z"/>
    <path class="cls-42" d="M17.3,36.48c-.14.53-.12,1.19.07,2-.75.03-1.43.53-1.96,1.07l-1,.03c-.01-.32-.09-.68-.03-1-1.55-1.42-2.05-2.83-1.51-4.22-.87-.21-.84-.49.04-.82,1-1.4,4.93,1.35,4.4,2.93Z"/>
    <path class="cls-16" d="M1.08,27.07c1.55-1.56,3.8-2.69,3.91-5.22.05-2.99,2.13-3.62,3.76-1.08,1.01.24.7,1.95-.32,2.29-.13,2.37-1.61,4.03-4.43,4.97,1.67,1.03,1.09,1.83-.89,1.94,2.28,1.17,2.23,1.22.17,2.79,2.17.48,2.69,2.85.89,4.1.86.28.81.6-.08.94-1.1-.69-1.79-1.82-2.67-2.75-.92-2.43-2.46-5.82-.33-7.96Z"/>
    <path class="cls-37" d="M6.27,35.86c.85-1.47,1.97-2.93,3.08-1.11.6-2.53,2.11-2.48,3.51-.39,1.48.89,1.77,2.61,1.51,4.22l-1,.03c-1.21.07-2.55-.25-4.03-.98-.3,2.45-4.36,1.63-4.04-.74-1.03-1.37-.61-1.89.96-1.03Z"/>
    <path class="cls-56" d="M4.16,36.85c-.1-1.94.67-1.91,1.15.05,1,1.12,2.65,1.15,4.04.74,1.72-.2,2.98.37,2.06,2.05-2.71.83-6.05,1-7.33-1.9l.08-.94Z"/>
    <path class="cls-35" d="M13.37,38.61c-.23.97-1.24.85-1.96,1.07-.73-.64-1.42-1.32-2.06-2.05.79-.23,1.48-.81,2.4-.65.83.14,1.39.79,1.63,1.63Z"/>
    <path class="cls-79" d="M110.35,7.21c.09-.98.16-1.96.16-2.94.29.26.87-.06,1.11-.32-.38-2.93,1.62-2.83,2.48-.11,1.21,1.12,1.41,2.92.36,4.21-.33,1.62-1,2.32-2.02,2.1-1.34-.34-2.2-1.55-2.08-2.93Z"/>
    <path class="cls-88" d="M113,0c.65,1.18.99,2.49,1.1,3.84-.32-.25-.87-.6-1.37-.57-.36.02-.8.36-1.1.69-.37-.84-1.01-1.91-.45-2.95.29-.55,1.19-.81,1.83-1Z"/>
    <path class="cls-43" d="M68.7,19.54c.05-2.36,2.42-4.93,4.75-3.23.07-1.86,1.22-2.74,3.45-2.65,4.67-.92,10.56-1.21,14.76.18-.46-1.08.63-1.25,3.29-.51l3.55-.71c1.54-.52,4.39-1.45,5.13.08,1.15-.31,3.14-.34,3.95-1.4.32.24.46.73.79.95l.16,1.02c-.46.09-.93.54-.96,1.03-8.52-.46-9.62,1.78-18,1.61.42,1.72,1.73.51,3.14,1.34-1.76.76-4.07,2.26-6.05,1.72-1.75,2.06-8.33.72-9.79-1.5-1.15,3.76-2.87,4.78-5.18,3.07-.6.25-1.11.69-1.59,1.11-1.8,2.28-2.71,1.87-2.19-.99-1.64-.95-1.11-1.61.78-1.15Z"/>
    <path class="cls-76" d="M76.88,17.49c3.44-.75,6.53.61,9.79,1.5.8.85,1.12,2.1.31,3.05-2.52.6-10.98.41-11.58.08-1.74-1.11-1.25-2.65,1.48-4.62Z"/>
    <path class="cls-53" d="M112.43,10.14c.16-1.04,1.13-1.72,2.02-2.1l.04,4.03-2,.07c-.04-.54-.15-1.44-.07-2Z"/>
    <path class="cls-30" d="M108.54,13.28l-.16-1.02c1.71,1.13,2.31,3.18,3.3,4.91-.03.82-.7,1.65-1.84,2.08-.2-1.85.01-3.27-1.23-3.98l-.07-2Z"/>
    <path class="cls-70" d="M27.53,15.24c.8-1.69,1.7-2.84,2.99-1.23.3-.9.63-.91,1-.03,1.86,1.97,1.54,3.39-.6,4.93-.8-.25-1.59-.55-2.37-.85-.47-.89-.8-1.82-1.01-2.81Z"/>
    <path class="cls-6" d="M28.45,12.07l2-.07c2.07,0,2.12,1.53.07,2-1.07.2-2.1.61-2.99,1.23-.24-1.11.95-2.19.92-3.16Z"/>
    <path class="cls-93" d="M29.15,28.02l4.05-.25c2.09.81,1.87,2.32-.19,3.03-1.93.04-3.86.31-5.81.18-.27.87-.58.82-.93-.06.84-.86,1.67-2.82,2.89-2.89Z"/>
    <path class="cls-7" d="M38.94,30.58c.12-1.96.68-4.34,2.82-4.05.04-1.92.78-1.9,1.35,0,.91.17.91.49.07.95,1.96.11,1.82.92-.19,1.25-1.2,2.04-2.95,3.71-3.74,5.97-.69.05-.99-.43-.88-1.44l-.14-.7c-2.07-1.38-1.74-1.68.71-1.99Z"/>
    <path class="cls-52" d="M38.37,33.27c1.28-.84.81.92.88,1.44.87,1.76,3.09,2.94,5.1,2.82.88.25.88.59.03,1-1.37,1.62-3.3.25-4.53-.87s-3.31-2.93-1.48-4.4Z"/>
    <path class="cls-1" d="M36.07,29.82c.78-1.98,1.5-2.2,2.15-.04.83-.47,1.04-.17.71.8-.26.51-.15,1.54-.71,1.99-1.51,0-2.83-.76-3.89-1.8-.71-1.81.19-2.2,1.74-.96Z"/>
    <path class="cls-77" d="M33.2,27.77c.22-.26.47-.51.72-.75,1.28-1.07,2.29-1.15,3.05-.24,1.18.91.55,2.67-.89,3.03-.52.41-1.11.73-1.74.96l-1.33.03c.12-1.01.19-2.02.19-3.03Z"/>
    <path class="cls-51" d="M50.37,37.09c-.6,2.09-2.73,2.75-4.73,2.42.12-.95-.3-1.06-1.25-.97l-.03-1c2.1-.12,4.19-2.24,6.02-.45Z"/>
    <path class="cls-92" d="M27.18,33.13c.22-.87.55-.86,1-.03.75.41,1.1,1.13,1.07,1.96l-3,.1c-2.4-1.23-1.69-2.49.93-2.03Z"/>
    <path class="cls-32" d="M26.26,30.92l.93.06c.27.73.6,1.44.99,2.11-.33-.03-.67.08-1,.03-1.45,1.55-2.4,1.27-2.23-.87l1.31-1.34Z"/>
    <path class="cls-26" d="M13.12,31.62c2.06-2.49,4.69-.17,4.31,2.63,1.26-2.8,3.85-1.62,3.81,1.1-.11.91.66,2,.3,3.13-.27.84-1.99,1.18-2.74,1.87-.74-.38-1.23-1.07-1.43-1.87.97,0,.95-.66-.07-2-1.51-.86-2.5-2.74-4.4-2.93-3.61.97-3.22-3.88.23-1.92Z"/>
    <path class="cls-69" d="M19.13,30.3c-.06-1.91.67-1.83,1.14.08-.12,1.04,1.82,2.2,2.7,2.1,2.59.28,2.84,1.7.36,2.74l-2.1.12c-1.23-.48-2.49-.91-3.81-1.1-3.23-2.33-1.8-6.01,1.7-3.95Z"/>
    <path class="cls-48" d="M22.98,32.48l1.98-.22c.66.45,1.43.76,2.23.87l-.93,2.03-1.96.11-.95-.06-.36-2.74Z"/>
    <path class="cls-65" d="M76.88,17.49c.1,1-1.6,2.14-.45,3.19.58.54,1.4.19,1.93.03s.64.59,1.02,1.35c2.44-.88,5.12-.16,7.6-.03-.18.71-1,1.81-1.79,1.95-1.55-1.33-3.14-1.51-4.4-.55-1.22.13-2.89-1.38-3.91-.04-.04,1.56-2.57,1.55-3.19.2-.92-.82-1.64-1.81-1.98-3.02,1.82-.76,3.2-2.64,5.18-3.07Z"/>
    <path class="cls-44" d="M65.81,24.99c-2.61.28-2.72-.27-.83-2.02,1.04-.4,1.66-2.1,2.94-2.29.58.59,1.38.85,2.19.99-.03,2.76,1.38,3.74,3.77,5.67,1.44,1.16-.2,5.31-1.66,6.32-.96-2.23-9.76-1.05-7.63-4.74.63-1.09,1.71-1.7,3.44-2.5-.46-.86-1.71-.82-2.22-1.44Z"/>
    <path class="cls-44" d="M73.68,23.59l3.19-.2c.08.66.27,1.83-.45,1.98-.89.19-1.97.34-2.4-.39-.19-.32-.04-1.13-.34-1.4Z"/>
    <path class="cls-9" d="M64.99,22.97c.54.52.5,1.43.83,2.02-1.13-.32-5.75,5.39-4.95,2.12.63-1.88,2.26-3.42,4.12-4.14Z"/>
    <path class="cls-29" d="M10.33,29.39c1.94-3.52,6.11-.05,2.8,2.23-.55-.17-.66.16-.82.71-.14.48-.06,1.02.59,1.21l-.04.82c-1.14.39-2.33.76-3.51.39-1.76-.04-1.68-1.54-1.3-3.05-.89-.15-.88-.46-.05-.91.07-1.5,1-2.33,2.34-1.41Z"/>
    <path class="cls-19" d="M17.3,36.48l1.59.91c.58.33.6,1-.07,1.03l-1.45.06c-.26-.63-2.25-1.12-2.02-1.47.45-.69,1.43-.56,1.95-.53Z"/>
    <path class="cls-68" d="M8.42,23.05l.32-2.29c.4-.07.83.05,1.24,0-.02,1.33-.62,3.35.94,3.97,3.41-.86,8.88,1.87,8.21,5.55-1.51.78-2.43,2.31-1.7,3.95l-4.31-2.63c-.37-.36-.21-1.47-.84-1.81-.59-.32-1.29-.44-1.96-.41-1.58.36-1.72-1.44-1.15-2.73-3.25.42-2.26-1.38-.75-3.61Z"/>
    <path class="cls-18" d="M3.1,29.95l3.79-2.32c.16-.92.53-.96,1.08-.19,1.67.82,1.55,2.38.01,3.35l.05.91c.74,1.52.17,3.48-1.81,3.15-1.1-.24-2.18-.99-2.96-2.11-.48-.96-.54-1.85-.17-2.79Z"/>
    <path class="cls-24" d="M8.42,23.05c-.17,1.2.45,2.42.75,3.61.54,1.54-.06,1.92-1.2.79l-1.08.19c-.89,1.48-2.12,2.15-2.9.38,1.07-1.98,2.75-3.48,4.43-4.97Z"/>
    <path class="cls-27" d="M3.99,28.02c.95-.24,1.92-.5,2.9-.38-.04,1.07-.41,2.13-1.62,2.81-.6.34-1.48.13-2.17-.49.27-.69.53-1.28.89-1.94Z"/>
    <path class="cls-62" d="M6.23,34.86c.88.25.88.59.03,1l-.96,1.03-1.15-.05c.13-1.43-.25-2.82-.89-4.1.7-.11,1.49-.16,2.24.22.64.32.86,1.14.72,1.89Z"/>
    <path class="cls-91" d="M8.04,31.71c.94.73,1.39,1.87,1.3,3.05-.96.52-2,.89-3.08,1.11l-.03-1c.81-.94.85-2.32,1.81-3.15Z"/>
    <path class="cls-20" d="M35.29,17.6c-.87-.22-.84-.5.04-.84.11-1.72,1.5-1.45,2.49-.11-.02.35.39.7.34,1.04,1.88.87,1.77,1.79-.3,2.05,1.12,1.53.52,2.05-1.06.96.1,2.11-.75,1.64-2.03.16-2.79-1.51-2.15-2.17.53-3.26Z"/>
    <path class="cls-49" d="M38.15,17.69c1.44-.18,2.79.58,3.66,1.72.29.39.26,1.1.92,1.15l.14,1.11c1.46,1.39,2.45,3.95.25,4.86h-1.35c-1.9.45-2.05-.35-.18-1.13-1.7-1.28-2.86-3.58-3.74-5.66.23-.55.2-1.44.3-2.05Z"/>
    <path class="cls-72" d="M30.45,12c.71-.02,1.48-.2,2.36.04.72.2.86,1.07.71,1.86-.31.58-.65.59-1,.03-.25.88-.59.88-1,.03-.33.01-.68-.02-1,.03l-.07-2Z"/>
    <path class="cls-34" d="M36.55,14.79c.45.59,1.3.91,1.26,1.85-.81-.36-1.76-.46-2.49.11-.94.4-1.17.08-.74-.9-.8-1.66.46-1.8,1.96-1.07Z"/>
    <path class="cls-2" d="M33.52,13.9c1.22-.23,2.28-.09,3.03.89-.8,0-1.67.25-1.96,1.07-2.04,2.36-3.64.6-2.07-1.93.33-.01.68.03,1-.03Z"/>
    <path class="cls-46" d="M13.82,23.64c3.39.84,6.9,3.04,6.46,6.74l-1.14-.08c-1.52-3.48-4.85-4.22-8.21-5.55.09-.87,2.04-1.32,2.9-1.1Z"/>
    <path class="cls-22" d="M31.52,13.97l1-.03c.41.9,1.15,1.58,2.07,1.93.17.36.42.67.74.9l-.04.84c-1.39,1.78-2.58,2.25-3.57,1.4-.26-.06-.55-.02-.8-.1-.43-1.67-.33-3.45.6-4.93Z"/>
    <path class="cls-55" d="M36.9,24.79c-.31-1.48.43-1.49,2.22-.03.88.23.82.56-.05.99-.68,1.19-1.38,1.54-2.1,1.04-.97.08-2.52,1.55-3.05.24.24-1.47,1.54-2.22,2.98-2.24Z"/>
    <path class="cls-34" d="M35.29,17.6c-.12.76-1.16,1.25-1.46,1.82-.17.34,1.34.82.93,1.44-1.3,0-2.55-.61-3.04-1.86.55-1.41,2.27-1.32,3.57-1.4Z"/>
    <path class="cls-45" d="M36.79,20.7c2.43.08,3.6,1.88,2.33,4.06l-2.22.03-2.14-3.93,2.03-.16Z"/>
    <path class="cls-95" d="M39.07,25.75c.09-.31-.01-.67.05-.99.87-2.56,2-1.97,2.46.64-.12.32.23.79.18,1.14-.79,1.47-1.58,2.93-2.82,4.05-.21-.29-.44-.56-.71-.8-1.68-.73-.65-3.25.84-4.03Z"/>
    <path class="cls-57" d="M42.86,21.67c1.36.36,2.77,1.71,2.82,3.36.03,1.15-1.24,2.39-2.5,2.45.05-.31-.07-.64-.07-.95,0-1.62-.04-3.25-.25-4.86Z"/>
    <path class="cls-75" d="M36.97,26.78c.37-.86,1.19-1.13,2.1-1.04-.39,1.32-.77,2.65-.84,4.03l-2.15.04c.1-1.07.48-2.06.89-3.03Z"/>
    <path class="cls-80" d="M7.98,27.44c0-.54.79-.78,1.2-.79.75.72,1.11,1.71,1.15,2.73-.45.89-1.34,1.43-2.34,1.41-.06-1.11-.03-2.23-.01-3.35Z"/>
    <path class="cls-85" d="M36.79,20.7c.22-.32.75-.75,1.06-.96,1.21.59,2.53-.05,2.86.81.65,1.69,1.29,3.71.88,4.85-.75-.44-1.6-.65-2.46-.64-1.04-1.21-2.27-2.39-2.33-4.06Z"/>
  </g>
</svg>