<?xml version="1.0" encoding="UTF-8"?>
<svg id="Enemy" xmlns="http://www.w3.org/2000/svg" viewBox="0 0 107.67 140.47">
  <defs>
    <style>
      .cls-1 {
        fill: #8a7363;
      }

      .cls-2 {
        fill: #615249;
      }

      .cls-3 {
        fill: #39312d;
      }

      .cls-4 {
        fill: #483833;
      }

      .cls-5 {
        fill: #846551;
      }

      .cls-6 {
        fill: #9e7663;
      }

      .cls-7 {
        fill: #3b3a38;
      }

      .cls-8 {
        fill: #454950;
      }

      .cls-9 {
        fill: #694c36;
      }

      .cls-10 {
        fill: #8c6756;
      }

      .cls-11 {
        fill: #695346;
      }

      .cls-12 {
        fill: #8a7062;
      }

      .cls-13 {
        fill: #0c0c0f;
      }

      .cls-14 {
        fill: #997b69;
      }

      .cls-15 {
        fill: #161311;
      }

      .cls-16 {
        fill: #313131;
      }

      .cls-17 {
        fill: #75594b;
      }

      .cls-18 {
        fill: #3f281c;
      }

      .cls-19 {
        fill: #50362a;
      }

      .cls-20 {
        fill: #080c0b;
      }

      .cls-21 {
        fill: #b5998a;
      }

      .cls-22 {
        fill: #44494c;
      }

      .cls-23 {
        fill: #313639;
      }

      .cls-24 {
        fill: #2c2c2c;
      }

      .cls-25 {
        fill: #2b3033;
      }

      .cls-26 {
        fill: #2a2a2a;
      }

      .cls-27 {
        fill: #9c8073;
      }

      .cls-28 {
        fill: #936c58;
      }

      .cls-29 {
        fill: #322822;
      }

      .cls-30 {
        fill: #383837;
      }

      .cls-31 {
        fill: #775a3d;
      }

      .cls-32 {
        fill: #403731;
      }

      .cls-33 {
        fill: #1f1f23;
      }

      .cls-34 {
        fill: #5b4a42;
      }

      .cls-35 {
        fill: #373c42;
      }

      .cls-36 {
        fill: #c59f89;
      }

      .cls-37 {
        fill: #75564c;
      }

      .cls-38 {
        fill: #2e3136;
      }

      .cls-39 {
        fill: #6c4e3c;
      }

      .cls-40 {
        fill: #6f584a;
      }

      .cls-41 {
        fill: #1f2326;
      }

      .cls-42 {
        fill: #2d2d2d;
      }

      .cls-43 {
        fill: #38231a;
      }

      .cls-44 {
        fill: #5e5e5e;
      }

      .cls-45 {
        fill: #977765;
      }

      .cls-46 {
        fill: #563927;
      }

      .cls-47 {
        fill: #1f2224;
      }

      .cls-48 {
        fill: #383838;
      }

      .cls-49 {
        fill: #2f2c2b;
      }

      .cls-50 {
        fill: #6e6e6e;
      }

      .cls-51 {
        fill: #725a4c;
      }

      .cls-52 {
        fill: #a47b62;
      }

      .cls-53 {
        fill: #725747;
      }

      .cls-54 {
        fill: #111315;
      }

      .cls-55 {
        fill: #271d17;
      }

      .cls-56 {
        fill: #23282d;
      }

      .cls-57 {
        fill: #7d6051;
      }

      .cls-58 {
        fill: #583b2b;
      }

      .cls-59 {
        fill: #4c3d35;
      }

      .cls-60 {
        fill: #262626;
      }

      .cls-61 {
        fill: #535353;
      }

      .cls-62 {
        fill: #4c4c4c;
      }

      .cls-63 {
        fill: #32271e;
      }

      .cls-64 {
        fill: #745b4f;
      }

      .cls-65 {
        fill: #664b40;
      }

      .cls-66 {
        fill: #202426;
      }

      .cls-67 {
        fill: #393e42;
      }

      .cls-68 {
        fill: #816556;
      }

      .cls-69 {
        fill: #32221a;
      }

      .cls-70 {
        fill: #1a1f23;
      }

      .cls-71 {
        fill: #6a6a6a;
      }

      .cls-72 {
        fill: #1a1d20;
      }

      .cls-73 {
        fill: #25201e;
      }

      .cls-74 {
        fill: #32373c;
      }

      .cls-75 {
        fill: #b79682;
      }

      .cls-76 {
        fill: #170b08;
      }

      .cls-77 {
        fill: #543b2f;
      }

      .cls-78 {
        fill: #705240;
      }

      .cls-79 {
        fill: #886e60;
      }

      .cls-80 {
        fill: #715648;
      }

      .cls-81 {
        fill: #998981;
      }

      .cls-82 {
        fill: #785c50;
      }

      .cls-83 {
        fill: #252a2e;
      }

      .cls-84 {
        fill: #544035;
      }

      .cls-85 {
        fill: #3e4348;
      }

      .cls-86 {
        fill: #937464;
      }

      .cls-87 {
        fill: #b49485;
      }

      .cls-88 {
        fill: #c19684;
      }

      .cls-89 {
        fill: #33383c;
      }

      .cls-90 {
        fill: #1f2327;
      }

      .cls-91 {
        fill: #64574f;
      }

      .cls-92 {
        fill: #d9b3a0;
      }

      .cls-93 {
        fill: #282d31;
      }

      .cls-94 {
        fill: #8f6b5a;
      }

      .cls-95 {
        fill: #664d40;
      }

      .cls-96 {
        fill: #746054;
      }

      .cls-97 {
        fill: #373635;
      }

      .cls-98 {
        fill: #4c372c;
      }

      .cls-99 {
        fill: #8d6b5a;
      }

      .cls-100 {
        fill: #282828;
      }

      .cls-101 {
        fill: #af8d79;
      }

      .cls-102 {
        fill: #2d2d2b;
      }

      .cls-103 {
        fill: #636363;
      }

      .cls-104 {
        fill: #644b3f;
      }

      .cls-105 {
        fill: #a88578;
      }

      .cls-106 {
        fill: #212121;
      }

      .cls-107 {
        fill: #614e44;
      }

      .cls-108 {
        fill: #2b2a24;
      }

      .cls-109 {
        fill: #121317;
      }

      .cls-110 {
        fill: #584034;
      }

      .cls-111 {
        fill: #555;
      }

      .cls-112 {
        fill: #594139;
      }

      .cls-113 {
        fill: #674c3f;
      }

      .cls-114 {
        fill: #a48574;
      }

      .cls-115 {
        fill: #30343a;
      }

      .cls-116 {
        fill: #131111;
      }

      .cls-117 {
        fill: #b8917c;
      }

      .cls-118 {
        fill: #272928;
      }

      .cls-119 {
        fill: #715140;
      }

      .cls-120 {
        fill: #432b20;
      }

      .cls-121 {
        fill: #0e0f0e;
      }

      .cls-122 {
        fill: #6a5951;
      }

      .cls-123 {
        fill: #333;
      }

      .cls-124 {
        fill: #2b2927;
      }

      .cls-125 {
        fill: #694f42;
      }

      .cls-126 {
        fill: #513120;
      }

      .cls-127 {
        fill: #44474e;
      }

      .cls-128 {
        fill: #444545;
      }

      .cls-129 {
        fill: #08090b;
      }

      .cls-130 {
        fill: #4f3f33;
      }

      .cls-131 {
        fill: #59443a;
      }

      .cls-132 {
        fill: #221f1b;
      }

      .cls-133 {
        fill: #181513;
      }

      .cls-134 {
        fill: #44494f;
      }

      .cls-135 {
        fill: #191919;
      }

      .cls-136 {
        fill: #493c36;
      }

      .cls-137 {
        fill: #70584a;
      }

      .cls-138 {
        fill: #947469;
      }

      .cls-139 {
        fill: #150d0a;
      }

      .cls-140 {
        fill: #594a41;
      }

      .cls-141 {
        fill: #896548;
      }

      .cls-142 {
        fill: #232323;
      }

      .cls-143 {
        fill: #876a5b;
      }

      .cls-144 {
        fill: #4b5054;
      }

      .cls-145 {
        fill: #4b2d22;
      }

      .cls-146 {
        fill: #4f5052;
      }

      .cls-147 {
        fill: #484848;
      }

      .cls-148 {
        fill: #4f3c32;
      }

      .cls-149 {
        fill: #363c3f;
      }

      .cls-150 {
        fill: #4e403c;
      }

      .cls-151 {
        fill: #6a4d42;
      }

      .cls-152 {
        fill: #6d5143;
      }

      .cls-153 {
        fill: #5f5247;
      }

      .cls-154 {
        fill: #452a20;
      }

      .cls-155 {
        fill: #523e32;
      }

      .cls-156 {
        fill: #4b372f;
      }

      .cls-157 {
        fill: #a5836f;
      }

      .cls-158 {
        fill: #866b5b;
      }

      .cls-159 {
        fill: #353535;
      }

      .cls-160 {
        fill: #160f09;
      }

      .cls-161 {
        fill: #1f2229;
      }

      .cls-162 {
        fill: #31343a;
      }

      .cls-163 {
        fill: #191a1e;
      }

      .cls-164 {
        fill: #a39792;
      }

      .cls-165 {
        fill: #25292e;
      }

      .cls-166 {
        fill: #67554a;
      }

      .cls-167 {
        fill: #231b15;
      }

      .cls-168 {
        fill: #24272a;
      }

      .cls-169 {
        fill: #111517;
      }

      .cls-170 {
        fill: #4b4b4b;
      }

      .cls-171 {
        fill: #3b2417;
      }

      .cls-172 {
        fill: #322721;
      }

      .cls-173 {
        fill: #423731;
      }

      .cls-174 {
        fill: #584638;
      }

      .cls-175 {
        fill: #bfa08c;
      }

      .cls-176 {
        fill: #040404;
      }

      .cls-177 {
        fill: #2e211b;
      }

      .cls-178 {
        fill: #3f3128;
      }

      .cls-179 {
        fill: #14191f;
      }

      .cls-180 {
        fill: #424241;
      }

      .cls-181 {
        fill: #221d15;
      }

      .cls-182 {
        fill: #a9887a;
      }

      .cls-183 {
        fill: #43362d;
      }

      .cls-184 {
        fill: #4d5258;
      }

      .cls-185 {
        fill: #0e0f0b;
      }

      .cls-186 {
        fill: #272d32;
      }

      .cls-187 {
        fill: #8c7368;
      }

      .cls-188 {
        fill: #523a2d;
      }

      .cls-189 {
        fill: #2f3439;
      }

      .cls-190 {
        fill: #1a1b1e;
      }

      .cls-191 {
        fill: #271a10;
      }

      .cls-192 {
        fill: #675348;
      }

      .cls-193 {
        fill: #6f5340;
      }

      .cls-194 {
        fill: #3a3c3c;
      }

      .cls-195 {
        fill: #323232;
      }

      .cls-196 {
        fill: #5a493f;
      }

      .cls-197 {
        fill: #5c5c5c;
      }

      .cls-198 {
        fill: #565654;
      }

      .cls-199 {
        fill: #654b3e;
      }

      .cls-200 {
        fill: #967b6f;
      }

      .cls-201 {
        fill: #5e4138;
      }

      .cls-202 {
        fill: #82665d;
      }

      .cls-203 {
        fill: #644c42;
      }

      .cls-204 {
        fill: #78675f;
      }
    </style>
  </defs>
  <g>
    <path class="cls-204" d="M104.7,42.48c-.53,2.34-1.21,2.61-2.86.61-2.43-1.26-4.47-2.6-6.12-4.01.26-.3.46-1.05.91-1.14,3.46-.73,7.41.28,9.77,3.48.1.8-.96,1.76-1.69,1.07Z"/>
    <path class="cls-76" d="M101.83,43.08c-1.41,1.79-4.65,1.52-5.05-1.04-.25.87-.58.85-1,0-2.16.76-2.63-.31-1-1.85.28-.4.62-.76.93-1.13,2.64-.25,5.32,1.47,6.12,4.01Z"/>
    <path class="cls-133" d="M92.78,43.05c-.51,1.4-.35,2.08.5,2.03-3.11,2.12-5.27,2.45-6.5.97-.92-.13-.98-.49-.22-1.07l.03-.76c1.72-.38,3.55-1.1,5.08-2.07.96-.43,1.33-.13,1.12.9Z"/>
    <path class="cls-32" d="M94.78,40.19l1,1.85c.06,1.6-1.67,1.38-3,1-.32-.36-.7-.65-1.12-.9.98-.62,1.53-2.23,3.11-1.96Z"/>
    <path class="cls-91" d="M74.87,1.87c1.45.49,1.46.99-.06,1.31-1.24.91-2.72.78-4.44-.4-2.67,1.88-4.53,1.97-5.59.26-.28.87-.62.86-1,0,.4-.44.85-1.42,1-2,3.43-1.1,7.43-1.98,10.08.82Z"/>
    <path class="cls-153" d="M64.78,3.05c.84.31,1.85,1.03,1.64,1.74-.54,1.82-2.46,6.09-3.64,7.26-.29.66-.63.64-1,0-.11-3.15-.21-6.58,2-9h1Z"/>
    <path class="cls-178" d="M57.78,12.05c.87.28.86.62,0,1,.85.25.83.59,0,1-2.1,1.33-6.13-.4-8.13-1.88l.02-1.11c2.88-1.2,5.91-1.45,8.11.99Z"/>
    <path class="cls-107" d="M61.78,12.05h1c.81.32.81.65,0,1-1.9,1.9-4.02,3.35-5,0v-1h4Z"/>
    <path class="cls-69" d="M78.78,10.05c.28-.87.62-.86,1,0,.24.6.91,1.24,1,2-.2,1.95-1.25,1.8-2,0-.11,2.68-1.06,2.63-2.06.17-.99.29-.98-.1.06-1.17-.87-.28-.86-.62,0-1,.11-2.15,1-1.77,2,0Z"/>
    <path class="cls-148" d="M79.78,5.05v5h-1c-2.56-.49-3.29-1.3-1-3-.9-.19-.92-.52-.1-.99-2.38-1.73-1.27-3.05,1.03-1.09.32.13.73,0,1.07.08Z"/>
    <path class="cls-122" d="M80.78,12.05l.2,1.67-1.16,1.33c-1.92.77-2.05-1.46-1.04-3h2Z"/>
    <path class="cls-136" d="M78.78,12.05c.16,1.06.49,2.08,1.04,3,.09.29-.17.75-.02,1-2.58,1.42-.85,2.82-2.98,6.03-.69-.84-1.11-2.15-1.27-3.93-1.4-1.74-.01-4.4,1.18-5.93l2.06-.17Z"/>
    <path class="cls-81" d="M104.7,42.48c.39.36.43,1.26.95,1.37.79.18,1.46.12,2.02-.09-1.25.88-1.26,3.05-1.97,3.88-1.53.72-3.66-.04-5.01.42-1.49-1.6-.35-2.2,1.31-2.99-2.59-.31-2.49-.93-.16-1.99.76.01,1.96-1.43,2.86-.61Z"/>
    <path class="cls-53" d="M80.6,47.12c2.96.79,4.24,3.24,1.3,5,.65,2.04-1.09,3.04-2.94,2.69-1.18,2.29-2.71,2.2-4.18.24-1.2-.59-5.03-3.54-3.85-4.92-.85-.25-.81-.56.06-.91,1.73-.48,1.61-1.56-.35-3.26.36-1.27,1.5-1.94,3.42-2.02.02-.6.5-1.57,1.44-2.93l1.19.06c-.11,2.76.83,6.14,3.92,6.04Z"/>
    <path class="cls-102" d="M82.78,47.05c1.72-.62,3.05-.62,4,0,1.67-1.17,2.4-.5,2.16,1.99,2.74-.92,3.62.93,1.55,2.88,1.61,1.52-1.15,4.13-3.42,5.15-.27,1.5-2.94,1.42-3.87,2.04-1.57-.21-1.48-.89.29-2.05-.58-.9-.38-1.58.08-2.1-2.36,0-2.81-.81-1.67-2.84-.18-1.73-.67-3.39-1.3-5l2.18-.07Z"/>
    <path class="cls-59" d="M74.52,29.77c1.94,3.11,4.74,7.1,2.26,10.3-.28-.97-.62-2.05-1.02-3.24-1.25,1.55-2.59.67-4.02-2.66-1.92-.55-2.48-1.31-1.67-2.25-2.12-1.1-1.8-1.43.51-1.81-1.9-2.1-1.5-2.8,1.25-2.21.62.79,2.15,1.03,2.67,1.86Z"/>
    <path class="cls-191" d="M76.78,40.07c-.16.21-.08.72-.09,1-1.84.66-.29,5.2-2.63,2.87-.4,1.2-.98.95-1.47-.24-3.05.08-3.18-1.25-.14-1.67.3-1.88,1.68-4.21,3.31-5.19,1.67-.12.95,1.55,1.02,3.24Z"/>
    <path class="cls-20" d="M86.78,46.05c.87.28.86.62,0,1-1.39.29-2.98,1.32-4,0,.99-1.1,2.46-1.47,3.78-2.07l.22,1.07Z"/>
    <path class="cls-167" d="M70.87,26.09c.32.52.57,1.31.97,1.82-.44.7-1.02,1.4-1.25,2.21-1.15,1.63-4,1.05-3.99-1.19-2.31-.71-2.33-1.83-.13-2.82-.84-.28-.76-.58.13-.89.38-.89,1.52-1.33,3.43-1.31l.84,2.18Z"/>
    <path class="cls-140" d="M69.78,22.05c1.31-2.06,4.07-2.74,5,0,.72-2.52,1.23-2.51,2.04.03-1.42,2.15-5.11-.03-5.99,1.51-.37.65.09,1.79.04,2.5-1.22-.9-2.81-.96-4.27-.87-.88-.17-.89-.52-.1-1.03-1.87-.52-.29-3.11,1.28-2.13-.21.92.46.92,2,0Z"/>
    <path class="cls-73" d="M101.83,43.08c.19.59.18,1.37.16,1.99-.92,1.89-3,2.69-4.21.71-.4.63-.73.78-1.29.17-2.29,1.91-4.8,2.94-7.55,3.08-.27-.18-1.14-.09-1.55-.46-.35-.32.26-1.15-.62-1.53v-1l4.75-.34c-.27-1.34-.73-2.04-.33-2.28.28-.16,1.38-.63,1.58-.38,1.79.37,3.12.04,4-1,1.66-.11,3.46.91,5.05,1.04Z"/>
    <path class="cls-164" d="M95.78,42.05c.32-.06.68.02,1,0,.26,1.23-.05,2.28-1.54,2.1-.86-.1-1.85-.32-2.46-1.1.94-.49,1.96-.81,3-1Z"/>
    <path class="cls-152" d="M45.61,13.84c3.17.42,6.71,2.19,8.13,5.09.78.87,3.89,5.66,3.83,6.02-.18.97-.67,1.73-1.47,2.32.89-.02.9.25.11.78-.38,1.71-1.05,1.84-1.43.08-2.26.17-3.15-1.47-2.66-4.92l-1.32-2.97c-.58,1.02-1.7,1.01-3.36-.05-2.94,1.32-5.92.12-3.68-2.85-1.86.64-2.28-.06-.84-1.4-.91-.03-.93-.32-.13-.83.86-.56,1.87-.89,2.81-1.28Z"/>
    <path class="cls-77" d="M53.72,17.11c1.9.3,1.88,1.19.02,1.83-8.78-5.93-6.7,1.14-8.13-5.09l4.05-1.68c2.23.17,5.91,2.46,4.06,4.94Z"/>
    <path class="cls-34" d="M42.8,15.12c.15.21,0,.61.13.83-.12,1.35-1.85,2.44-3.14,3.1.3,1.46.35,3.46,0,5,1.33,1.41.77,1.92-1,1-1.64,1.41-3.66,2.37-4.92.13l-.68-1.26c1.58-1.36,2.86-2.66,3.82-3.92.79-2.39,2.68-4.62,4.95-5.81.26.32.6.59.84.93Z"/>
    <path class="cls-192" d="M78.71,4.97c-.77-.32-1.11.31-1.03,1.09-1.41,1.43-2.65,1.05-2.01-.92-1.87-.25-2.44-.78-.86-1.96l.06-1.31c1.81.19,3.41,1.3,3.84,3.1Z"/>
    <path class="cls-1" d="M74.81,3.18c.24.67.53,1.33.86,1.96-.38,2.49-2.43,2.87-3.06.06-1.16,1.93-2.86,1.32-4.62.03l-1.54,2.62c.37,6.01-.86,8.1-3.69,6.29-.88-.37-.87-.74,0-1.09.04-.29-.15-.76,0-1,1.66-2.68,1.23-6.03,2-9,3.62,0,6.75-2.13,10.03.13Z"/>
    <path class="cls-113" d="M62.78,13.05c-.05.36.01.73,0,1.09.22.43.39.85.36,1.26-.15,2.09-.51,6.37-2.33,6.86-1.43,4.35-3.78,3.24-7.06-3.33.04-.6-.18-1.22-.02-1.83-1.03-2.88,1.8-3.09,4.06-3.06-.07-.32,0-.67,0-1h5Z"/>
    <path class="cls-137" d="M57.78,14.05c.44,2.04-2.93,2.15-4.06,3.06-1.27-1.87-4.1-2.45-4.06-4.94,2.68-1.11,6-.22,8.13,1.88Z"/>
    <path class="cls-51" d="M76.78,11.05l-.06,1.17c1.37,2.07.65,4.37-1.18,5.93-1.64,2.71-4.4,2.33-4.66-.95l-.17-2c1.44-.21,2.34-.86,2.7-1.95.44-2,1.35-2.98,3.36-2.2Z"/>
    <path class="cls-87" d="M78.78,10.05h-2c-.81,1.11-1.52,1.32-2,0-3.77-1.85.02-4.97,3-3,.1.98.84,1.95,1,3Z"/>
    <path class="cls-45" d="M74.78,10.05c.66-.09,1.34,0,2,0v1l-3.36,2.2c-1.52-.1-1.67-1.27-.57-2.27-1.1-2.82.37-3.52,1.93-.93Z"/>
    <path class="cls-157" d="M75.67,5.15c.67.14,1.25.94,2.01.92l.1.99c-1.39.84-4.02,1.04-3,3-.65.09-1.94.05-1.93.93-1.32.62-3.94-3.79-2.67-5.21.54-.61,1.57-.59,2.44-.57.97.26,2.09-.26,3.06-.06Z"/>
    <path class="cls-4" d="M33.87,25.18c.88.15.83.42-.04.79.4,2.08-.09,2.19-2.06,1.79-.24.87-.55.83-.92-.04-.2.9-.54.92-1.03.11,0-2.99,3.27-4.75,4.92-7.09.41-.57,1.72-.41,2.28-.75.23.49.69,1.08.55,1.52-.62,1.88-3.57,1.57-3.69,3.65Z"/>
    <path class="cls-150" d="M29.93,39.16c-.04-.53-.48-1.68-.14-2.11.35-3.21.7-6.31,1.06-9.32l.92.04c1.92.9,2.3,2.72,1.2,4.48,2.38,2.66-.75,11.08-3.04,6.9Z"/>
    <path class="cls-177" d="M29.79,37.05l.03-9.21,1.03-.11c-.49,3.15,1.02,6.71-1.06,9.32Z"/>
    <path class="cls-116" d="M96.49,45.96l1.29-.17c1.36-.46,2.83-.34,4.21-.71-.03,1.12-.62,2.15-1.31,2.99-2.76.93-5.1,2.78-7.99,3.25.57,1.64-1.28,2.14-2.2.61l-1.55-2.88c-2.31-2.2,7.05-3.22,7.55-3.08Z"/>
    <path class="cls-3" d="M83.49,57.06c-.17.65-.05,1.4-.29,2.05-1.26.85-2.8,2.6-4.44,2.92-1.93.37-4-.18-5.93-.22-.24.87-.54.83-.9-.04-.48-.9-.87-1.85-1.18-2.83-.22-.9.09-1.09.91-.6.95-.8,2.92.39,3.18,1.63,1.38-3.07,5.56-3.62,8.66-2.9Z"/>
    <path class="cls-55" d="M76.82,22.08l-2.04-.03c-2.87-.56-2.11-3.8.77-3.9.97.18,1.69.44,1.32,1.43-.29.8-.05,1.65-.05,2.5Z"/>
    <path class="cls-114" d="M72.59,43.7c.45-.11,1.01.3,1.47.24-.46,1.09-.26,1.78-.59,1.62-1.11-.55-2.11-.69-1.67.05s1.12.34,2.09.53c1.97.38,2.07,3.34,2.38,4.96-2.61-.56-3.84-1.37-5.28-1.86-3.59-2.22-4.32-3.84-2.2-4.89.44-1.51,2.85-1.95,3.79-.64Z"/>
    <path class="cls-40" d="M78.96,54.81c1.42-1.59,2.96-.92,4.61.15.05.26.62.42.72.76.19.63-.7.93-.8,1.34-3.01.85-5.41,3.51-8.66,2.9-1.57-.85-1.95-1.58-.06-1.92-.87-.87-.87-1.53,0-2-.87-.28-.86-.62,0-1,1.22-.84,2.79-.6,4.18-.24Z"/>
    <path class="cls-112" d="M68.79,44.34c.47,1.64,1.22,3.48,2.2,4.89l-.06.91c.07,1.73-.6,1.62-1.15-.08-.93-1.37-1.96-2.08-3.09-2.13-1.32,1.96-2.23,1.54-2.95-.61-1.55-1.51,4.09-6.25,5.06-2.97Z"/>
    <path class="cls-75" d="M83.57,54.96c-.77.3-1.33.86-2.25,1.98-.68-.77-1.31-1.85-2.36-2.13.33-1.43,1.54-2.38,2.94-2.69.92.67,1.5,1.73,1.67,2.84Z"/>
    <path class="cls-18" d="M70.94,50.13c.56,2.28,3.85,2.37,3.85,4.92v1c.06,1.42-1.24,1.02-2,0-1.67-1.3-2.67-2.63-3-4-1.78,1.06-2.71-.78-1-2,.28-.87.62-.86,1,0l1.15.08Z"/>
    <path class="cls-65" d="M75.76,36.84c.33,2.49-.84,4.57-3.31,5.19-.88,1.06-1.12,1.31-1.55-.09-2.1.35-2.43-3.1-.16-2.82.25-1,.61-1.99,1.1-2.98-1.71.17-2.06-.14-1.03-.91-1.93.22-1.95-.57-.02-1.18.33-.58.65-.51.96.13,1.7-.61,2.8,2.74,4.02,2.66Z"/>
    <path class="cls-185" d="M70.59,30.12c-.17.6.11,1.4-.51,1.81.26,1.62-1.87,1.54-2.29.12-3.87,2.59-3.52-.72-1.18-3.12,1.3.49,2.6,1.05,3.99,1.19Z"/>
    <path class="cls-108" d="M70.07,31.92c.84.5,1.36,1.34,1.67,2.25-.28.1-.65-.13-.96-.13-.79,1.09-3.98,1.02-5,0-1.7-1.58-.27-2.56,2-2l2.29-.12Z"/>
    <path class="cls-43" d="M70.9,41.94c.49-.08,1.05.13,1.55.09-.76.19-.37,1.4.14,1.67-1.25.32-2.53.4-3.79.64-1.88.36-4.41.92-5.06,2.97-.98,2.13-2.64,1.05-1.81-1.14-.68-.66-.45-.96.57-.94.35-1.77,1.45-3.5,3.35-3.08.86-4.18,2.61-5.96,3.52-.75-.15-1.55.36-1.37,1.54.54Z"/>
    <path class="cls-139" d="M66.5,24.18c.02.34.11.69.1,1.03-.01.3-.08.6-.13.89-.76,1.34-1.71,2.65-2.86,3.94-2.03,3.35-4.01,3.34-5.92-.04-1.84-.45-2.33-1.1-1.48-1.94l-.11-.78c.51-2.57,2.48-2.87,4.71-2.4.72-2.65,1.42-2.81,3.21-.72,1.28-1.45,2.03-2.17,2.48.02Z"/>
    <path class="cls-118" d="M66.47,26.1c-.18.94.39,1.96.13,2.82-.96,2.84-1.94,3.92-2.93,3.22-2.74.25-2.5-1.29-.05-2.11-.02-.99-1-2.42-.44-3.13.87-1.1,2.33-.91,3.3-.81Z"/>
    <path class="cls-130" d="M75.55,18.15l-.77,3.9c-1.67-.03-3.45,1.01-5,0-1.6.46-.84-1.02-.04-2.09-2.01-.44-2.05-1.3-.05-1.8-1.05-1.74-.45-2.19,1.2-.95,1.34.75,3.12.66,4.66.95Z"/>
    <path class="cls-110" d="M69.69,18.15c-.16.48.04,1.26.05,1.8-.3,1.5-.95,2.2-1.96,2.09-.49.66-1.33,1.13-1.28,2.13l-2.48-.02c-2.55-1.7.71-7.67,3.57-6.83,1.3-1.5,2.18-1.15,2.1.83Z"/>
    <path class="cls-166" d="M69.78,22.05l-.75.92c-.17.21-.58,1.18-.79,1.03-.66-.47-.51-1.55-.46-1.95.58-.77.9-1.8,1.96-2.09l.04,2.09Z"/>
    <path class="cls-49" d="M97.78,45.78c-.76,1.57-1.98,4.06-3.99,2.9,1.09-1.42,1.92-2.1,2.7-2.72.33.09.96-.06,1.29-.17Z"/>
    <path class="cls-10" d="M50.8,20.25c2.5,3.12,2.76,9.38-2.13,6.71-1.51-.25-2.01-1.3-1.47-3.13l-1.25-.76c-1.11,2.85-2.75,2.46-4.93-1.15-1.73.55-1.54-2-.24-2.87.59-1.51,1.47-2.34,2.98-1.7,2.24,3.98.77-.8,7.04,2.9Z"/>
    <path class="cls-188" d="M60.8,22.27c2.53.5,2.51,1.93,0,2.61-1.09,1.53-2.82,2.45-4.71,2.4-.42-2.94-2.57-5.27-2.36-8.34,1.81,1.22,4.32,1.33,4.24,4.95l2.83-1.61Z"/>
    <path class="cls-57" d="M54.78,28.14c.25,2.74-2.44,2.64-3.92,1.04-1.77.63-5.09.9-5.37-1.23-.13-2.62,1.55-3.19,3.17-.99,3.03-.82,2.88-4.05,2.13-6.71,2.61,1.54,3.15,5.14,3.98,7.89Z"/>
    <path class="cls-15" d="M56.21,28.06c1.31.66,2.11,2.84,3.64,3.21,1.68-.41-.2-2.04-.36-3.28,2.58-.68,2.72,1.57,4.12,2.05l.05,2.11c.3.62.64,1.31,1.04,2.09.91.19.95.57.16,1.11.35,1.14-.67,1.79-3.05,1.95.09,1.97-1.17,2.35-2.14.67-1.49,1.47-2.19,1.99-2.05-.2l-1.84.28c.64,1.51-1.07,2.28-2.08,1.04-1.61,2.11-3.35-1.13-1.08-2.04-.35-3.05,3.01-4.03,5.65-2.85.92,1.5,1.12.79.6-2.13l-1.33.33c-1.24,3.65-5.05,1.87-5.76-1.17-2.38,1.75-3.05,1.36-2-1.18-.35-.45.02-.73,1.08-.86,1.35-.17,2.66-.54,3.92-1.04.42-.17.99.05,1.43-.08Z"/>
    <path class="cls-12" d="M43.77,17.35c-.97.61-1.96,1.18-2.98,1.7-.32.9-.66.89-1,0,1.03-.99,1.39-2.86,3.14-3.1l.84,1.4Z"/>
    <path class="cls-94" d="M38.79,25.05c1.72,0,5.82,2.64,5.85,4.55,1.15,1.83-.42,2.6-1.85,1.45-1.89,1.35-2.89,1.35-3,0-.71-.78-1.71-1.11-3-1,.26,1.75-.5,1.81-1.15.08-2.96,1.14-3.68-2.2-1.81-4.15l.04-.79c1.67-.6,3.54-1.7,4.92-.13Z"/>
    <path class="cls-119" d="M44.03,26.93c1.39-1.42,2.01-.95,1.46,1.02,1.35,1.54,3.49,1.16,5.37,1.23l-1.08.86c-.85,3.09-2.26,1.71-4.15-.31-.43,1.23-1.08,1.1-1-.14-1.58-2.01-4.62-2.13-5.85-4.55l1-1c-.17-1.93.59-1.93,1.13,0,1.68-1.03,3.62,1.1,3.12,2.88Z"/>
    <path class="cls-82" d="M40.79,19.05l.24,2.87c1.88-.06,1.98,1.94-.11,2.14h-1.13c-1.19-1.72-1.51-3.57,0-5.01.3-.07.73.14,1,0Z"/>
    <path class="cls-14" d="M67.78,10.05c1.43.54,1.58,2.63,0,3,2.68,1.29,2.76,3.5-.19,4.27l-3.57,6.83c-1.05.34-2.12.58-3.21.72.5-.9.07-1.76,0-2.61-.25-2.8-1.15-7.15,1.97-8.13,3.51-1.1.84-7.59,5.22-8.91,2.82,1.55,1.37,3.38-.22,4.82Z"/>
    <path class="cls-175" d="M72.62,5.2c-1.03,1.8-1.39,4.25.24,5.78.59.56,1.11,1.42.57,2.27-3.18,5.4-3.51,2.28-3.21-2.31-.06-.78-.54-1.41-1.43-1.89.12,1.26.1,1.77-1,1-1.13-1.48-.02-3.13.22-4.82,1.04-.31,1.81-1.08,2.29-2.05.87,1.12,1.48,1.79,2.32,2.02Z"/>
    <path class="cls-158" d="M73.42,13.25c.01,1.76-.8,3.64-2.53,3.95-.35.14-1,.63-1.2.95-.72-.23-1.42-.51-2.1-.83l.19-4.27c.9-.85,1.23-2.18,1-4,.86,0,1.85-.22,1.94.6.23,2.06-.23,2.86.62,5.02.21.54,2.42-1.96,2.07-1.41Z"/>
    <path class="cls-199" d="M33.82,25.97c-.09,1.64.51,3.16,1.81,4.15.61.51,1.07.95.98,1.13-1.15,2.4-4.22.15.17-.06.29-.01.6.45.92,1.06,1.95-.03,2.05.77.21,1.47.44,3.45-2.11,8.73-6.12,9.32-.1,2.47-.81,3.48-2.12,3.01-1.2-.42-1.02-1.73-.16-2.54.18-1.34,1.07-3,.42-4.36.03.37,1.62.2,1.69-.36.45-3.82.04-7.46.15-11.03.17-1.03,1.03-1.71,2.06-1.79Z"/>
    <path class="cls-173" d="M68.43,53.9c1.29-1.45,3.79.36,3.35,2.15l1,1c1.21,1.54.66,2.12-1.13,1.28l-.91.6-1.85-.86c-.39-1.18-.95-2.3-1.79-3.22-.42-.82-.17-1.06.72-.74-.35-.86-.13-.9.6-.21Z"/>
    <path class="cls-155" d="M74.78,58.05l.06,1.92c-1.08-.2-2.65-.77-3.18-1.63l1.13-1.28c.73-.88,2.26-.3,2,1Z"/>
    <path class="cls-79" d="M74.78,56.05c.39.27.84.73.71,1.21-.09.37-.72.54-.71.79l-2-1c-.37-.29-.71-.63-1-1,.28-.87.62-.86,1,0h2Z"/>
    <path class="cls-64" d="M66.69,47.92c1.36-.41,2.39.93,2.09,2.13l1,2c1.13,2.18,1.08,2.24-1.35,1.85-.18.1-.46.07-.6.21-1.47-.36-3.41-1.27-3.07-2.89-1.92-.57-3.75-3.14-1.03-3.91,1.01.08,2.05.06,2.95.61Z"/>
    <path class="cls-154" d="M69.78,50.05h-1c-.44-.87-1.43-1.4-2.09-2.13.61-.93,1.53-.93,1.95-.27.59.91.84,1.67,1.14,2.4Z"/>
    <path class="cls-11" d="M72.78,56.05h-1c-.76-1.18-2.23-1.39-3.35-2.15.23-.76.66-1.45,1.35-1.85,1.66.73,3.03,2.12,3,4Z"/>
    <path class="cls-131" d="M70.8,35.23c.8-.11.78.39,1.03.91-.22,1.21-.59,2.2-1.1,2.98-.38.97-.55,1.92.16,2.82-.47.08-1.44.66-2.4.3-.61-.23.26-1.32-.35-2.52-1.52.67-1.97,1.71-2.3,2.43-3.14-1.51-1.24-5.89,2.14-6.71.65-1.05,1.96-1.05,2.82-.21Z"/>
    <path class="cls-138" d="M71.84,36.14c.38.79,1.13,1.39.56,2.08-.54.65-.94,1.26-1.66.9.18-.46-.39-1.39-.46-1.8-.17-.97.56-1.32,1.56-1.18Z"/>
    <path class="cls-160" d="M70.78,34.05l.02,1.18c-.93.13-1.88.16-2.82.21-1.69,2.04-2.73,2.01-3.12-.09l-.16-1.11c.21-.93.57-.99,1.08-.19h5Z"/>
    <path class="cls-7" d="M66.6,28.93l-.54,1.81c-.29.97.75,1.41,1.72,1.32l-2,2c-.36,0-.72.17-1.08.19-.41.12-.98.39-1.3.24-1.13-.54.27-2.3.27-2.33,1.23-.89,1.05-3.18,2.93-3.22Z"/>
    <path class="cls-95" d="M67.98,35.44c1.83,2.3-2.86-.7-2.14,6.71-.68,1.46-1.8,2.5-3.35,3.08-3.09.42-3-.73.25-3.44-1.95.02-1.97-.85-.07-2.61l-.88-1.89c.99-.62,1.85-1.66,3.05-1.95,1-.24,2.12.15,3.12.09Z"/>
    <path class="cls-63" d="M61.93,46.17c.49.42,1.11,1.08,1.81,1.14-.39,1.25.76,2.76,1.03,3.91.74,1.99-.59,2.04-1.98.83-1.17-.97-2.5-1.97-4-3-3.17.71-3.86-.64-1.8-3.12.17-.87.47-.87.89-.04,1.52-1.02,3.19-1.53,4.06.29Z"/>
    <path class="cls-125" d="M62.75,41.8c-.43,1.13-1.27,2.41-.25,3.44-.22.3-.41.61-.57.94-1.35.44-2.79.34-4.06-.29-.88-.27-.88-.63-.04-1.06-.04-1.82.66-2.23,1.76-.76-.18-2.8.74-3.72,3.17-2.28Z"/>
    <path class="cls-88" d="M48.67,26.96c-1.05.29-2.02.98-3.17.99-.37-.42-.99-.72-1.46-1.02-1.92-1.72-1.28-3,1.92-3.86.51-.1.53-1.82,1.32-1.58,2.26.68,1.95,3.66,1.4,5.47Z"/>
    <path class="cls-6" d="M45.95,23.07c-.56,1.33-1.11,2.66-1.92,3.86-1.22-.76-2.45-1.56-3.12-2.88l.11-2.14c.73-.34,1.46-.71,1.86-.28s.96,1.62,1.6,2.16c.34.28.98-.63,1.47-.73Z"/>
    <path class="cls-97" d="M58.88,32.07c.09.8-.11,1.52-.6,2.13-2.01.78-3.52,2.44-5.65,2.85-.15,1.99-1.16,2.39-2.6,1-1.46-.51-2.04-1.72-.32-2.1-1.55-3.1-2.47-5.93,2.07-4.73,1.73-.24,2.85.84,4.63,2.1.88-1.57-.57-2.05-.68-3.24,2.25-.64,2.32,1.2,3.14,1.98Z"/>
    <path class="cls-172" d="M49.78,30.05c.57.16,1.2,1.28,2,1.18-2.31.44-1.81,2.72-2.07,4.73-1.38,1.11-2.35-.51-1.87-2.11-2.57.74-2.74.07-.88-1.78-3.01.33-3.44-.03-1.33-2.32,1.35.32,2.8.22,4.15.31Z"/>
    <path class="cls-126" d="M39.79,31.05h3c1.62,1.05-.38,2.07-2,2,1.46,1.18,1.1,1.44-1.09.78-.6,1.73-1.4,1.65-1.78-.11l-.21-1.47c-1.95.05-1.89-.74.08-1.2.03-1.54,1.58-1.49,2,0Z"/>
    <path class="cls-193" d="M44.64,29.6c.21-.8.78-.39,1,.14.35.82.77,1.61,1.33,2.32-.39,2.27-5.26,3.68-6.18.99l2-2c.55-.55,1.71-.47,1.85-1.45Z"/>
    <path class="cls-101" d="M37.79,31.05l-.08,1.2c-1.25-.07-2.11,1.15-4.02.64.67-1.25,1.79-1.64,1.95-2.77l1.15-.08c1.35-.74,1.85-.31,1,1Z"/>
    <path class="cls-92" d="M39.79,31.05h-2c-.48-.15-.87-.5-1-1,.35-.88,1.51-1.34,2.49-.99.77.28.55,1.34.51,1.99Z"/>
    <path class="cls-58" d="M67.78,13.05c.04-.87.2-2.2,0-3-.14-.74.36-.99,1-1,.84,1.35,1.31,2.84.83,5.05-.86-.36-1.21-.92-1.83-1.05Z"/>
    <path class="cls-84" d="M32.08,45.18c2.7,2.21,2.52,7.7-2.24,7.03,1.39,3.08-1.71,4.17-4.14,1.98.4-.64-.58-3.03.9-3.19,2.49-.26,2.38-2.89,3.07-4.94l2.12-3.01c2.7.08,2.7.94.29,2.14Z"/>
    <path class="cls-41" d="M25.7,54.19c3.09-.58,4.11.35,3.05,2.82.93.17,1.28.55,1.07,1.14,1.27,1.82.68,2.33-1.05.94-.72,1.18-1.71,1.16-2.96-.05-.67-.32-2.17-.69-1.8-1.58.22-1.38.26-2.78,1.69-3.28Z"/>
    <path class="cls-132" d="M52.86,57.89c-.08,1.02,1.26,2.29,2,2.96.7,1.12,2.07,2.15,4.13,3.07.61,1.02,3.46,1.18,3.09,3.3-2.1,1.42-5.31.34-7.1-1.21-1.91,2.38-4.64,1.1-4.31-1.86-1.45.02-2.85-.05-3.85-1.19-.84,2.91-1.84,2.82-3.03.26-5.59-1.44-.17-4.87,3.06-2.01.35-2.5,1.59-3.15,3.93-3.97.54-2.05,1.26-1.32,2.08.64Z"/>
    <path class="cls-156" d="M51.7,53.11c1.54-2.31,2.43.11,1.39,2.1l-.22,2.68c-.97.18-2.45-.22-3.39.8-.45.49-.02,1.63-.25,2.03-.43.77-1.68.51-2.38.5-1.8-.23-1.95-.94-.15-1.45-2.38-.48-2.26-1.64.35-3.47l-.21-1.43c-1.09.69-1.53.24-.88-.88-.88-.15-.87-.43-.02-.83.87-2.97,4.39-2.29,5.75-.03Z"/>
    <path class="cls-183" d="M58.78,49.05c-.02.94-1.17,1.36-2,1-.65.94-1.33,2.98-2.71,2.41-1.7.21-1.78-.56-.36-1.56-2.73-.78-2.56-1.94.17-2.62.37-1.44,1.05-2.26,2.01-2.46.36-.89.73-.83,1.1.11.23,1.22,1.02,2.18,1.8,3.12Z"/>
    <path class="cls-196" d="M67.83,54.11l-.72.74-4.18-1.82-.15-.99c.71-.15,1.44-.32,1.98-.83,1.35.57,2.56,1.48,3.07,2.89Z"/>
    <path class="cls-171" d="M53.71,50.9c-.03.51.34,1.04.36,1.56.05.9.3,2.76-.98,2.75.06-.67-.21-2.66-1.39-2.1-3.99-1.08-.09-6,2.01-2.21Z"/>
    <path class="cls-68" d="M62.69,39.18c.18.82.38,1.79.07,2.61-1.39.17-2.15,1.44-3.17,2.28-1.46.09-1.66-.99-1.51-2.18-1.49-1.05.08-3.11,1.6-2.66.96-.75,1.97-.73,3-.06Z"/>
    <path class="cls-187" d="M61.81,37.29l3.29.22c-.9.7-1.82.9-2.41,1.67-.55.21-.96,1.26-1.57,1.37s-1.27-.85-1.43-1.31c-1.58-.07-1.53-.75-.02-1.27.56-.53,1.55-.3,2.14-.67Z"/>
    <path class="cls-104" d="M56.86,43.33c1.63-.51,2.01.15.97,1.5l.04,1.06c-.29-.01-.6.07-.89.04-.37-.04-.73-.14-1.1-.11-.84.57-1.51,1.39-2.01,2.46-.78,2-1.63,1.77-1.74-.39-1.33-.06-1.45-.67-.34-1.84-2.7-.37-2.47-1.06,0-2-1.76-1.27,4-2,4.29-1.95.32.06.57.58.79,1.24Z"/>
    <path class="cls-86" d="M59.59,44.07c-.47.39-1.25.42-1.76.76-.47-.39-.79-.92-.97-1.5-1.1-1.63-.55-2.25,1.22-1.44.59-.68.81-.27,1.03.25.3.72.47,1.32.48,1.93Z"/>
    <path class="cls-98" d="M59.67,37.97l.02,1.27c-.63.83-1.09,1.76-1.6,2.66-.3.53-.95.87-1.22,1.44l-5.08.71c-.07,1.51-.82,1.41-1.27-.08-2.84-.91-2.1-2.66.48-3.08.16-2.5,1.26-2.28,1.64.21,2.99-1.12,4.04-2.14,3.15-3.05.96-1.2,2.65-1.01,3.89-.08Z"/>
    <path class="cls-2" d="M55.78,38.05c1.71-.3,2.75.42,1.08,1.58-.94.88-1.45,1.41-2.14,1.97-.61.51-1.6.59-2.09-.51-1.63-1.25-1.19-2.7,1.08-2.01.43-.8,1.55-.7,2.08-1.04Z"/>
    <path class="cls-181" d="M52.63,37.05c.22.65.03,2.27,1.08,2.04l-1.08,2.01-1.64-.21c-.8-.22-.8-.53-.03-.92-2.73.98-2.88-.04-.93-1.92.83-.42,1.67-.82,2.6-1Z"/>
    <path class="cls-48" d="M58.28,34.2c-.17-.34-.24-.76-.48-1.12-.54-.8.3-1.19,1.07-1.02,1.08,1.02,1.51,2.75.39,4.04-.84-.92-.81-1.48-.99-1.91Z"/>
    <path class="cls-200" d="M49.71,35.95c-.08.63.05,1.54.32,2.1.04,1.74-.76,1.75-1.25,0-1.68.79-2.72-1.51-2-3-1.17-1.59-.68-2.16,1.06-1.21.49.81,1.19,1.48,1.87,2.11Z"/>
    <path class="cls-5" d="M46.96,32.06c.41.53.54,1.22.88,1.78-.37.38-.73.78-1.06,1.21.42,1.67-.25,1.7-2,.08-.41,2.22-1.5,2.54-3.07.92-.14-.56-.04-.81-.14-1.16-.22-.71-1.4-1.06-1.89-1.06.3-.34.78-.47,1.09-.78.77.23,1.6.64,2.63.41,1.08-1.13,2.32-1.5,3.55-1.4Z"/>
    <path class="cls-31" d="M33.63,52.3c.88.11.85.36-.02.72.49,1.04,1.6,1.6,3.32,1.67,4.14-.8,3.04,5.22-1.15,3.35-2.07,1.06-4.94.14-7.03-1.04-.97-.99-2.39-1.52-3.05-2.82,1.84.64,2.69-1.52,4.14-1.98,1.25-.68,2.82-.93,3.78.1Z"/>
    <path class="cls-174" d="M34.79,45.89c1.75.59,2.1.73.34,1.59,2.65,1.32,2.51,2.72-.33,3.52,1.12,1.51.6,2.09-1.16,1.31-1.01.08-1.63.45-2.09,1.2-.59.96-1.07-.96-1.7-1.3.38-.12.26-1.2.91-1.4.46-.14.96.1,2.08-.07-1.09-1.85-1.17-3.72-.75-5.56,1-.19,1.81.44,2.7.71Z"/>
    <path class="cls-29" d="M35.79,58.05c.87.28.86.62,0,1l-1,.14c-1.34-.76-3.74.41-4.97-1.04-.33-.39-.71-.78-1.07-1.14,2.4.03,4.6,1.33,7.03,1.04Z"/>
    <path class="cls-36" d="M46.57,38.29c1.58-.4,1.13.63.21,1.75.32,1.2-1.24,1.99-2.19,1.17-.24,1.67-2.79,2.33-3.65.84-1.7.59-3.11.75-2.15-1.1l1.98-2.83c1.16-1.5,4.72-1.83,5.81.17Z"/>
    <path class="cls-120" d="M44.78,45.05c.81.43.74.77-.17,1.01.48.89.24,1.49-.73,1.79-.29.88-.65.88-1.08.03-1.25,2.04-1.93,2.36-3.12.16-.83,2.99-3.95,2.55-4.55-.57.02-.53-.33-1.06-.34-1.59.93.28,2.05.08,3.01.18.57-1.82,5.38-1.43,6.99-1.02Z"/>
    <path class="cls-80" d="M44.78,43.05c1.48-.45,1.92-.31,1,1,1.54,1.18.86,1.66-1,1-2.28.64-4.61,1.26-6.99,1.02v-3.02c.27-.87.61-.86.99,0,2.24-.24,4.24-.24,6,0Z"/>
    <path class="cls-52" d="M44.78,35.13c1.64.17,2.53,1.68,1.79,3.16-1.95.37-4.06,1.02-5.81-.17.39-.56.24-1.68.96-2.08.93-.52,2.03-.87,3.07-.92Z"/>
    <g>
      <path class="cls-99" d="M39.69,33.83c3.14-.32,5.43.16,2.03,2.22,1.81,1.56,1.49,2.25-.96,2.08,2.12,2.01.49,3.42-1.98,2.83.66.62.33,1.31-1,2.09,2.5,1.25,2.9,2.05.01,3.02-.22,1.5-2.4,1.16-3.01-.18-1.77,1.88-2.15,1.79-2.7-.71.15-.65-.37-1.47-.29-2.14.33-.46-.29-1.84.5-2.44.34-.26.89-.22,1.86-.45.63-2.69,1.58-5.06,3.76-6.44.56-.36,1.26.11,1.78.11Z"/>
      <path class="cls-105" d="M39.46,37.01c-.97.98-1.6,1.35-2.16,1.04s-.73-.91-.52-1.51c.24-.69,1.16-.2,1.92-.9.92-1.18,1.66.46.77,1.37Z"/>
      <path class="cls-117" d="M40.94,42.06c.49,1.58-.79,1.65-2.15.99h-1c-.26-.36-.89-.6-.53-1.07.45-.59,1.23-.6,1.53-1.02.26.95,1.28,1.15,2.15,1.1Z"/>
    </g>
    <path class="cls-124" d="M41.82,59.06c.68-1.82,1.6-1.51,1.95.44,1.06-.57,2.07-.62,2.93.26l.15,1.45c-1.21-.02-2.29-.34-4.12-.03.43.92.96,1.35,1.06,2.04l-3.09.89c.05-3.1-3.48-3.54-5.91-4.92l1-.14c2.81-2,4.24-2.2,4.3-.58l1.74.59Z"/>
    <path class="cls-17" d="M48.78,47.05c1.35-.65,2.88-.67,3.34.84.58.16,1.1.61,1.74.39l-.17,2.62c-.46-.08-1-.06-1.34.21-.64.5-.74,1.32-.66,2-1.89.91-3.78-.25-5.75.03-1.88.55-2.02-.24-.23-1.2-1.81-1.16-2.42-2.53-1.83-4.09.16-.63.42-1.23.73-1.79.32-.85.77-.84,1.17-.01.94.75,1.94,1.09,3,1Z"/>
    <path class="cls-201" d="M42.85,51.07c.78-1.88,2.43-.79,2.86.87l.23,1.2.02.83c-.22,1.06-1.13,1.49-2.18,1.07.65,2.71-.31,2.91-2.13,1.01-1.82.09-2.15-.32-.98-1.23-1.66-.59-1.83-1.44.02-1.67-1.01-3.08-.17-5.17,2.16-2.09Z"/>
    <path class="cls-203" d="M46.7,59.76c-.96-.23-1.94-.31-2.93-.26-1.45-2.06.9-2.98.47-2.09-.65,1.37-.9.38-.5-1.43.41-1,2.08-1.42,3.1-1.13,1.31.36,2.74-.16,4.37,1.06-1.57,1.84-3.25,1.49-5.74,2.11-.12,1.46,2.3.92,1.22,1.73Z"/>
    <path class="cls-202" d="M45.97,53.97c.55.08,1.25.09.88.88-.68,1.05-1.91,1.55-3.1,1.13-.73-.25-.69-.57.04-.94.37-.94,1.25-1.22,2.18-1.07Z"/>
    <path class="cls-96" d="M55.88,45.82c0,1.22-.76,2.31-2.01,2.46-.1-1-.02-1.73.06-2.56.1-1.07,1.87-1.15,1.96.1Z"/>
    <path class="cls-37" d="M51.78,44.05v2c-.3.63-1.3.96-3,1-1.21,1.04-1.67.53-1-1-.88-.33-.88-.66,0-1-.07-2.33.99-2.66,2.73-1.08.35-.11.94.13,1.27.08Z"/>
    <path class="cls-145" d="M51.78,46.05c.11.2.53.35.63.58.19.46-.03.91-.28,1.26-1.11-.31-2.21-.62-3.34-.84.51-1.2,1.87-1.15,3-1Z"/>
    <path class="cls-143" d="M50.96,39.97c.11.23.09.66.03.92-.26,1.01-.47,2.03-.48,3.08-.72.45-1.82,1.3-2.73,1.08-.77.84-2.29.24-2-1-.36.05-.9-.65-1-1,1-1.93,4.52-4.63,6.18-3.08Z"/>
    <path class="cls-39" d="M50.96,39.97c-2.35.4-4.05,2.12-6.18,3.08-2.7-.03-2.67-.83-.19-1.83.75-.39,1.32-.96,2.19-1.17.16-2.11.82-2.78,2-2,.37-.1.91.17,1.25,0l.93,1.92Z"/>
    <path class="cls-28" d="M46.78,35.05c.39,1.16.97,2.29,2,3-.46.74-1.06,1.78-2,2l-.21-1.75c-.34-1.18-1.01-2.22-1.79-3.16l2-.08Z"/>
    <path class="cls-9" d="M40.67,54.83c.53.21.89.67.98,1.23.16.81.21,1.81.16,3.01h-6.04v-1.01c.97-.01,1.73-.26,2.18-.74,1.1-1.21.33-2.38-1.03-2.6-1.99.09-3.09-.47-3.32-1.67l.02-.72c.38-.25.66-1.09,1.16-1.31,2.09-1.07,4.05.2,5.88,3.83Z"/>
    <path class="cls-141" d="M36.93,54.7c-.56.19-2.31.36-3.39.4-.7.02-1.71-1.52.07-2.07,1.32-.23,2.31,1.5,3.32,1.67Z"/>
    <path class="cls-182" d="M39.67,48.04c1.43.51,1.77,2.22,1.02,5.11l-.02,1.67c-2.6.13-3.82-2.56-5.88-3.83.12-1.17.29-2.34.33-3.52,1.43.58,3.03.43,4.55.57Z"/>
    <path class="cls-78" d="M44.59,41.22c.11.58.04,1.28.19,1.83-1.96.89-4.34,1.94-6,0,.86.04,1.45-.69,2.15-.99,1.12-.47,2.56-.27,3.65-.84Z"/>
    <path class="cls-21" d="M45.71,51.94c-.95-.31-1.89-.66-2.86-.87-2.8.11-2.77-2.75-.06-3.19l1.08-.03c.52,1.74,3.33,2.56,1.83,4.09Z"/>
    <path class="cls-151" d="M42.8,47.88c-.75.98-.8,2.26.06,3.19-.4-.09-1.08-.15-1.51.06-.73.34-.67,1.35-.65,2.03-1.21-1.42-1.09-3.34-1.02-5.11,1.03.09,2.09-.14,3.12-.16Z"/>
    <path class="cls-19" d="M47.78,45.05c.05.32-.07.68,0,1,.16,1.78-1.22,1.35-2,0h-1.17s.17-1,.17-1c.45-.12.73-.68,1-1,.85-.11,1.39.77,2,1Z"/>
    <path class="cls-46" d="M43.74,55.98c.34.67,1.83.86,2.14,1.6.45,1.08-1.85,1.13-2.11,1.91-.67-.05-1.33-.17-1.95-.44-.38-.61-1.79-.83-2.01-1.57-.34-1.15,1.13-1.47,1.85-1.43l2.13-1.01-.04.94Z"/>
    <path class="cls-27" d="M47.78,46.05c.11.46.53.91,1,1,.02,1.36-.06,2.2-1.07,1.54-1.36-.91-2.32-1.14-1.93-2.54h2Z"/>
  </g>
  <g>
    <path class="cls-47" d="M64.9,69c.05,2.17,2.63,3.05,3.79,4.08,1.37,3.23,1.88,7.14,4.09,9.96v1c-.32,2.66-1.24,2.54-2,0-2.57.34-2.71-.92-1.75-2.97-2.73.01-3.05-1.22-1.27-3.13-3.24.98-4.98-2.55-3.09-5.18-3.33-.83-6.61-3.36-2.6-5.56.9.66,1.77,1.37,2.82,1.78Z"/>
    <path class="cls-72" d="M72.78,84.05c.98,1.08.75,2.95.07,4.14,0,.27,0,.56.05.82-1.35-1.61-1.21,7.77-2.54,10.18,0,.89-.27.9-.8.1-1.75,1.56-2.6.14-2.55-4.27l2.67-7.69c-1.31-1.81-.94-2.91,1.1-3.28h2Z"/>
    <path class="cls-190" d="M25.82,59.05c.88.22.84.52-.02.89.3,1.72.48,3.67.52,5.84l2.43,8.16-1.41,2.16c.17.68-.06.93-.71.73-2.52,1.47-5.07-1.66-2.74-3.76-.95-3.75-1.75-10.49-2.01-14.01.64-.28,2-.74,2.14-1.6,2.02-.81,2.01-.69,1.8,1.58Z"/>
    <path class="cls-121" d="M54.86,60.84c2.15-.03,3.28,1.68,4.13,3.07.19,1.01-10.49-3.36-4.13-3.07Z"/>
    <path class="cls-93" d="M69.04,81.08c.35.88-.05,1.16-1.07.95-1.73,1.04-2.43,2.13-2.1,3.25,4.58-1.19,5.05,1.86,1.42,9.13l-2.33.67c-2.43.21-4.2.85-5.3,1.92-.26,1.97-.59,3.89-1,5.74,2.26.12,3.66.87,4.19,2.25l-.15,2.58c-2.45-.41-4.73-.93-6.86-1.54-.81-.27-.79-.59.01-.97-1.45.29-2.94-1.68-2.87-3.01-.01-.78.22-5.87.5-6,.73-.35,1.38-.5,2.16-.1h.51c-.26-4.74-.33-9.34-.22-13.81l1-2.19c2.17.15,4.47-.13,6.9-.85.28-2.6,2.27-3.18,3.93-1.16.83.84.99,2.19,1.27,3.13Z"/>
    <path class="cls-168" d="M70.78,84.05c.74,3.8-4.04,15.09-1.22,15.24-.17,3.21-.77,6.41-1.81,9.63l1.02,1.21c2.81.89,3.3,5.38-.08,5.68-1.51.2-2.99-.6-4.43-2.4-2.79.69-4.55.17-5.28-1.55l-1.68-.84c1.27-1.82,1.42-2.82.44-3.01-2.11,2.32-3.14.63-1.88-1.97,2.59.05,5.17.98,7-1.04-1.66-1.61-1.11-3.2,1.64-4.75.92-1.83,1.08-3.55.47-5.16.98-2.93,3.78-5.08,3.9-8.79-.7-.67-1.6,1.17-2.2.93-.63-.25-.6-1.45-.78-1.94-1.06-1.1-.36-2.18,2.1-3.25.34-.34.69-.65,1.07-.95,1.25.65,1.49,1.65,1.75,2.97Z"/>
    <path class="cls-149" d="M64.67,72.77c1,1.62,1.65,3.71,3.09,5.18-1.18.75-2.53,1.14-3.93,1.16-3.58,1.19-9.46,2.95-5.17-2.29-1.41-1.26-2.89-1.57-4.42-.92-1.51.52-1.93-1.09-.47-1.85-2.49-2.98-.04-7.21,3.05-4.08,2.62-.39,5.23.54,7.83,2.8Z"/>
    <path class="cls-186" d="M62.08,67.22c-.43,2.41,1.49,3.77,2.6,5.56l-5.66-.25-2.17-2.55c-2.9,1.22-3.98-2.01-1.87-3.96,2.39-1.35,5-.34,7.1,1.21Z"/>
    <path class="cls-109" d="M70.81,102.03c-1.56,2.36-1.31,5.34-2.05,8.09-1.28-.1-2.29,1.31-4.05.81,5.38-8.21.93-3.19,4.84-11.64l.8-.1.45,2.85Z"/>
    <path class="cls-165" d="M32.86,87.31c1.24-1.35,3.45.28,1.93,1.73.83.79,1.95.86,3.36.19l.64.81c2.19,0,4.19,0,6,0,.9.14.94.46.14.95-1.26,2.39-4.05,7.59-7.2,4.84-1.84,1.3-2.68.78-2.81-1.47-.45.82-.82.75-1.11-.16-1.44-.12-2.53-.51-3.28-1.15,0-.36.03-.72.07-1.08-1.29-3.84-2.22-8.05-.8-11.92.07-5.41,3.23-1.25,3.73,2.86-3.06-.69-2.95,3.53-.66,4.41Z"/>
    <path class="cls-33" d="M26.7,94.89c1.92-.32,1.97.45.08,1.16.27,1.96-.74,3.96-3.03,6-.27,1.97-1.25,2.93-2.94,2.88.59,1.72.92,3.04-1.04,2.09-2.22,1.64-3.5.74-3.01-1.93-1.34-1.33-.69-2.43,1.95-3.29.63-.71,1.53-1.14,2.04-2.01,1.44-2.47,3.49-3.71,5.95-4.9Z"/>
    <path class="cls-72" d="M29.79,80.05c-1.33,13.13,5.89,9.6.8,11.92-1.33-1.25-2.16-2.92-2.72-4.64.23-2.94.53-5.69.92-8.27.99-.32,1.32,0,1,1Z"/>
    <path class="cls-163" d="M33.8,94.2c.45,2.35-6.16,4.05-7.01,1.85l-.08-1.16,3.81-1.84c.96-.47,3.15-.39,3.28,1.15Z"/>
    <path class="cls-41" d="M25.79,59.94c.3-.43.59-.77.89-.77.99,0,10.12,13.33,10.27,16,.87.28.9.63.09,1.04-2.29,2.31-1.9,5.15,1.15,8.54l-1.2,2.34c-.57,1.36-1.69,1.19-3.34-.5l-.79.72c-1.39.77-1.94-.43-2.01-1.26-.55-5.76,1.94-.54.83-6.5-.11-.57-1.5.11-1.89.49-.28-.38-.62-.71-1-1-.99-.32-1.7-1.89-1.45-2.94-1.68-5.42-3.89-10.53-3.47-16.17,1.5,2.37,2.11,2.36,1.93,0Z"/>
    <path class="cls-83" d="M28.77,59.09c1.65-.05,2.76.7,3.29,2.19,4.17-1.36,6.41,1.25,6.73,7.81,2.5-.7,4.19-.27,5.05,1.29,3.93-2.36,6.48,4.16,1.9,4.69-2.25-.09-4.63.41-7.14,1.5l-1.64-1.42c-3.94-.19-9.25-15.34-11.16-15.22l.02-.89c.4-.13.87-.8,1.4-.75.64.07,1.1.66,1.55.8Z"/>
    <path class="cls-129" d="M28.79,79.05c-.33,2.79.86,5.86-.92,8.27-.11-3.53.23-7.19-1.24-10.48.04-.39.28-.76.71-.73.33,1.05,1.62,1.54,1.45,2.94Z"/>
    <path class="cls-25" d="M34.79,59.19c6.55.51,8.52,2.15,5.91,4.92.62-.1,1.15.13,1.59.67,6.03-.59,8.07,7.47,1.54,5.6-1.6.1-5.06,1.52-6.41.12-2-2.07-.45-5.53-2.3-8.04-1.32-.42-1.99.93-3.54,1.61-1.35-1.6-2.02-3.34-2.8-4.98.35.05,1.25-.5,1.05-.94,1.38-.16,3.87-.03,4.97,1.04Z"/>
    <path class="cls-90" d="M43.78,63.22c.9-.26,2.04.34,3.03-.26,1.29.53,1.74,1.73,2.16,3,3.2-.44,5.23,2.77,2.77,5.12l-.45,1.06c1.63,3.35,4.59,10.4,2.51,13.1-.47,2.63-1.39,2.46-2.01-.12-.24-.65-.58-.67-1-.09h-1c-2.63-.03-2.69-.7-.19-2-1.94-1.09-4.13-3.59-2.81-5.99-1.05-.64-1.4-1.3-1.05-1.97.05-.87.78-1.96.27-2.91-.4-.73-1.6-1.07-2.16-1.78.92-.57,2.22-1.9,2.66-2.89-1.65-1.95-6.8-.46-5.8-3.38-.71-2.79,1.62-3.31,3.09-.89Z"/>
    <path class="cls-74" d="M54.97,66.01c.84,1.2.94,2.87,1.87,3.96-1.92.6-3.68,1.91-3.05,4.08-1.48,1.52-3.04-1.55-2.04-2.96-.36-1.82-1.9-3.55-2.77-5.12-2.21-1.49-.33-3.47,1.69-1.81,1.31.69,2.9,1.31,4.31,1.86Z"/>
    <path class="cls-169" d="M50.66,64.16c-.81.33-1.43.97-1.69,1.81-.48-.38-2.15.45-2.82-.55-.37-.55.55-1.77.66-2.45.76-.46,1.59-.81,2.46-.86,1.3-.08.98,1.53,1.39,2.05Z"/>
    <path class="cls-54" d="M52.02,101.9c.32-.92.64-.82.97.16,1.26.65,1.99,1.93,2.87,3.01l.1,1.68c-.23-1.16-.64-1.06-1.22.31-2.03-.34-4.05-.73-6.04-1.17-1.22,3.22-4.34,5.24-9.35,6.08-2.26,2.31-4.05,2.69-5.38,1.13.35,2.7-3.75,3.51-5.95,2.76-1.95,1.15-4.55,1.17-2.46-1.18-1.26-1.76-1.23-2.65.09-2.68.35-.86.69-.82,1.04.08.78-1.18,2.3-1.72,4.56-1.61l4.57-1.4c-.96-2.13,1.67-2.67,2.98-1.02,2.01-2.31,4.25-3.65,6.7-4.02.95-2.13,2.08-2.76,3.4-1.89.18-.89.49-.87.93-.03.43-2.43,1.27-2.55,2.21-.21Z"/>
    <path class="cls-70" d="M53.78,74.05l.47,1.85c.78.29.74.57-.07.85,2.74,1.23,3.61,2.81,1.76,5.4,2.44,3.13,1.3,6.89.97,10.99l-.48,5.99c-1.2-.83-.48-2.16-.78-3.17-2.57-.18-2.8-1.13-.69-2.87-1.79-2.15-3.73-5.8-1.17-7.84-1.02-4.26-.93-8.76-3.24-13.12.27-.61.74-1.34,1.18-1.04.26,1.29.62,2.52,2.04,2.96Z"/>
    <path class="cls-162" d="M55.65,95.96c-1.28,1.85-1.74,4.09-2.66,6.11-.24-.12-.7-.19-.97-.16-.78-.58-1.52-.5-2.21.21l-.93.03c-5.8,3.55-7.55,3.21-5.26-1.01-1.92.34-1.98-.45-.1-1.19-1.27-1.15-.4-2.11,2.59-2.87.4-3.93,3.55-5.07,5.69-1.81.14-1.75.65-2.05,2.23-2.02.06-.9.38-.93.94-.15.07.84.77,1.94.69,2.87Z"/>
    <path class="cls-67" d="M64.96,95.08c3.46-.46-1.25,8.96-2.11,9.91-1.73-.06-4.82.83-5.95-1.36-1.36-2.64,1.15-5.15,2.75-6.64,2.27,1.39,3.2,1.52,2.78.39,3.95-2.31.01,4.6-2.78-.39-.21-1.02-.7-2.03-.92-2.68-1.5-4.53,3.82,1.08,6.22.77Z"/>
    <path class="cls-23" d="M58.67,76.82c.18,1.08.22,2.13.58,3.15,1.71-1.49,3.23-1.27,4.59-.86-2.26,1.7-5.1,2.68-7.9,3.04-1.15-1.47-1.41-3.65-1.76-5.4,1.46-1.82,3.52-2.5,4.5.07Z"/>
    <path class="cls-13" d="M55.85,106.04c.31.9,1,1.61,1.88,1.97,1.27,2.09-1.45,7.22-3.95,4.04-1.27-.38-1.41-1.94.12-2-2.43-1.64-1.98-2.56.84-2.99.04-.4-.29-.97-.09-1.51.16-.42.7-.61,1.21-.47.06.3-.11.68-.01.97Z"/>
    <path class="cls-89" d="M67.97,82.03c-.58,1.16-1.22,2.3-2.1,3.25-1.55-.15-3.28-.21-4.17-2.04,2.57-.31,4.38-.71,6.26-1.22Z"/>
    <path class="cls-106" d="M58.98,111.85c1.41,1.55,1.18,4.91-.33,6.37,1.28,2.52,1.07,3.88-.64,4.09,2.21,1.34,3.78,2.92,4.71,4.74,6.37.24,7.08,1.31,2.13,3.2,1.1,1.28.41,1.79-2.07,1.54-1.45-.47-4.08.09-5.41-1.36-2.64-2.87,1.29-8.67-1.41-13.26-2.44.11-3.03-1.14-1.18-2.95-1.81,1.06-2.07-.69-1-2.17,2.19-.39,2.9-2.45,3.95-4.04.95-1.44,4.33-.58,5.09.69-1.18.44-3.23.05-3.88,1.03-.34.51.33,1.23.04,2.12Z"/>
    <path class="cls-30" d="M68.69,115.8c1.88,1.9,1.15,2.5-1.25,1.38-4.66.31-6.12,1.79-4.36,4.44-.4,1.47-1.55,1.58-3.43.33.68,2.57-.32,2.68-1.63.36.7-3.74-1.6-8.26.97-10.46,1.97.2,5.59-1.52,7.07.52,1.09,1.51,1.58,2.53,2.64,3.43Z"/>
    <path class="cls-22" d="M58.67,76.82c-1.62.12-3.24,1.18-4.5-.07-.04-.22-.03-.65.07-.85.69-1.31.58-2.79,1.69-4.51,1.95,1.16,3.09,3.28,2.73,5.43Z"/>
    <path class="cls-123" d="M71.74,118.98c2.3,1.24,4.6,2.17,6.89,2.79l.25,1.42c1.6.32,3,1.67,4.07,2.76,1.16,2.27-2.79,2.25-3.16-.1-1.68,1.6-6.07.52-6.18-2.15-2.53.82-6.03-2.12-5.7-4.67-2.62.52-2.72-.44-.47-1.85l1.25-1.38c1.02.86,2.12,2.21,3.06,3.17Z"/>
    <path class="cls-8" d="M37.72,95.84c1.25.96,2.47.91,3.65-.13l.49,2.34c2.41-.55,2.56-.31,1.65,1.9l.1,1.19c.84,2.48.78,2.63-1.76,1.95-3.66,4.27-6.3,4.74-11.71,4.46-1.91-.1-7.55-1.9-6.73-4.29.59-1.72.96-1.87,2.02-.24-.55-1.83.3-3.62,2.55-5.37,2.63-.78,4.94-1.87,6.93-3.28,1.4.2,2.28.23,2.81,1.47Z"/>
    <path class="cls-38" d="M33.8,94.2l1.11.16c.1.93.48,3.37-.86,3.51-1.59.17-2.93-.55-3.92.11.8-.53-5.34,6.64-4.7,4.76-.22.66.1,2.39.9,2.48,4.47-3.13,2.8,6.14,15.53-2.15,2.62.81,1.6,2.47-3.07,4.97-.84.21-2.37.29-2.98,1.02-3.2,1.07-6.24,2.08-9.13,3.01-.3-.14-.72.02-1.04-.08-3.36.18-4.91-5.45-4.83-7.08.53-3.52,2.92-6.89,5.97-8.88l7.01-1.85Z"/>
    <path class="cls-56" d="M53.8,85.25c.62,2.59,2.13,5.04,1.17,7.84l-.94.15c-.94,2.12-2.1-1.25-1.95-1.16,1.26.78,1.2,2.58-.28,3.18-1.04.78-1.91.77-3.46-.72-.53,2.84-3.02,3.66-4.82,5.39-1.07,0-1.24-1.32-1.65-1.9-2.2-.97-1.65-2.16.66-1.96,1.31.14,2.01-.29,2.1-1.28-2.38-1.65-.44-2.86,2.09-2.24.17.04-3.38.77-1.8-1.57l-.14-.95c.87-1.25,2.53-2.25,5-3-1.56-.66-1.23-1.33,1-2,.36-.85.69-.8,1,.09l2.01.12Z"/>
    <path class="cls-179" d="M49.78,85.05c.32-.05.67-.03,1,0-.08.67-1.07,1.34-1,2-3.6,2.05-7.27,3.05-11,3-.85-.61-4.63,1.44-4-1-.21-1.94,1.36-1.61,2,0-.34-2.6.99-3.27,4-2-.29-1.27.71-1.61,3-1,.23-1.66,4.75-2.3,6-1Z"/>
    <path class="cls-115" d="M44.64,94.8c.66,1.47-.73,1.77-2.1,1.28-.53.55-.76,1.16-.66,1.96-1.2-.69-3.5-.69-4.15-2.21,5.95,1.12-.03-2.98,7.2-4.84.81.82,2.24.65,2.99,1.76-1.36,1.07-1.7.51-2.04.55-.72.07-1.05,1.17-1.24,1.51Z"/>
    <path class="cls-115" d="M49.78,87.05c.25,2.42-3.56,1.93-5,3-1.9.81-4.54,1.72-6,0,4.69-.59,6.62-3.49,11-3Z"/>
    <path class="cls-35" d="M36.99,87.09c2.03.15,1.25.89-.21,1.95-.6.21-1.38-.15-2,0-.14-.65-1.24-1.78-1.93-1.73-.58-1.2-1.74-2.5-.65-4.41.94,2.26,2.54,3.83,4.79,4.19Z"/>
    <path class="cls-128" d="M19.77,107.02c.89.25.89.59.05,1.02.73,1.56.36,3.34-1.11,5.33l1.11.78c.88.29.87.64.02,1.05.88,1.88-3.44,5.7-5.18,3.77-1.32-.56-2.99-.64-4.99-.23-2.45-2.88-2.5-4.47-.14-4.78l-.58-.65c2.62-2.38,5.16-4.86,7.62-7.45.03-.23.07-.59.21-.77,1.12.45,2.14,1.1,3.01,1.93Z"/>
    <path class="cls-66" d="M25.65,112c-.1.85-.34,1.98.07,2.6.61.91,1.52,1.29,2.3,1.26.98.5,1.01.91.02,1.24-.23,2.55-4.24,3.84-5.15.98-.48.73-.76.6-.84-.31-1.59-1.15-1.22-1.87.73-1.56.59-1.34.09-2.32-1.52-2.95l.53-2.32c-2.72.87-3.19-.77-1.97-2.9l-.05-1.02c.6-.54.92-1.31,1.04-2.09,1.77-.72.87.39.77,1.98l4.06,5.1Z"/>
    <path class="cls-61" d="M8.79,112.06c.54.31.78.95.73,1.91-.16.95-.37,2.98,1.29,3.09s2.32-1.62,4.36-1.89c.47,1.37-.41,2.57-.51,3.8.33,1.75-1.12,3.06-2.73,3.19.14.94-.22,1.21-1.09.84l-2.37.09-3.47-8.13c.05-.28.12-.7.02-.98.89-1.13,2.79-1.09,3.77-1.92Z"/>
    <path class="cls-103" d="M10.84,123c1.58,3.52-1.9,3.45-3.86.89-.48-.22-.52-.55-.15-.98-2.46-.08-3.05-1.37-1.79-3.86-.89-.21-.91-.54-.09-1-2.15.13-2.14-1.25-.17-2l.21-1.09c4.48,2.72,2.54,7.55,5.84,8.04Z"/>
    <path class="cls-176" d="M1.66,118.85c2.18-.6,2.59.93.65,2.11,2.37-.2,3.26,2.21,2.8,4.23,1.99-.38,2.61,1.74.72,2.7C1.84,127.17-.18,122.75.01,118.89c.52-.19,1.14.09,1.64-.04Z"/>
    <path class="cls-135" d="M4.79,116.04l.17,2c-.2,1.86-2.4,2.52-3.3.8-.35-1.06.2-1.84,1.13-2.32.62-.32,1.3-.47,2-.49Z"/>
    <path class="cls-195" d="M16.55,105.86c-.6,5.38-5.94,4.56-7.03,8.1-.34-.17-1.04-.2-1.33-.68-.21-.35.44-.94.6-1.22,2.5-2.12,4.76-4.81,7.76-6.2Z"/>
    <path class="cls-189" d="M37.04,76.21c2.5-.65,2.77-.35,1.82,2.07,1.67,1.27,3.07,3.54,1.91,5.58.86.95.87,2.02.02,3.19-1.16.95-2.59,1.51-4,2l.21-1.95c-.86-3.03-3.96-5.21-3.56-8.88.18-1.69,2.31-2.26,3.6-2.01Z"/>
    <path class="cls-35" d="M45.73,75.08c.39.6.81,1.34,1.05,1.97-1.85,1.89-2.19,1.75-2.06-.9-2.22,4.35-4.18,5.05-5.87,2.12-.73-.57-1.41-1.23-1.82-2.07-.14-.29.01-.73-.09-1.04,2.35-.42,4.36-1.63,6.9-3.01l1.88,2.92Z"/>
    <path class="cls-60" d="M72.78,126.92c2.77,2.27,6.44,2.64,11.01,1.12-.87-.28-.86-.62,0-1,.68-.07,1.83-.14,1.99.51.14.56-.4,2.11-1.18,2.76-2.15,1.8-5.47.09-7.92,1.22-3.52.9-9.31.88-11.83-1.28.06-1.08,1.22-1,2.01-1.85-2.22-.97-3.67.33-4.83,1.64-.21-1.4.69-2.07.68-3-.04-1.95,1.7-2.46,2.85-.83,2.52-1.86,4.67-2.51,6.44-1.94l.77,2.65Z"/>
    <path class="cls-50" d="M82.95,125.95c.32.33.84.58.84,1.09v1c-1.2.59-3.16.95-4,0-2.63-.54-2.56-1.44,0-2.2.58.27,1,.9,1.69,1.08s1.43-.07,1.47-.97Z"/>
    <path class="cls-184" d="M46.78,77.05c1.92,1.26,2.27,3.84,2.81,5.99-1.04,2.81-4.69,2.22-2.85-1.03-5.79,1.59-7-1.86-2.03-5.86.72.22,1.4.54,2.06.9Z"/>
    <path class="cls-134" d="M49.6,83.05c.16.64.06,1.35.19,2l-6,1c-2.69,1-4.25.28-2-2-.69-2.35.45-2.82,3.41-1.41l1.56-.62c.25.46,1.12,1.4,1.54,1.89.26.3.94-.9,1.3-.86Z"/>
    <path class="cls-70" d="M51.78,85.13l-1-.09c.14-1.19-.36-2.24.3-4.12,1.13,1.27,1.82,3.04.7,4.21Z"/>
    <path class="cls-161" d="M48.88,102.14c-2.12,3.42-6.28,4.96-10.09,5.91-.14-.62-.7-1-1.07-1.81,2.71-.14,4.08-1.11,4.14-3.16.02-.82,1.2-1.54,1.76-1.95.23.76.24,1.75.75,1.94.39.15,1.52-.13,1.46-.56-.08-.59-1.09-1.2-1.08-2s2.09-.59,3.03-.18c.55.24.98,1.02,1.11,1.81Z"/>
    <path class="cls-66" d="M35.81,109.07c-1.96,2.38-6.22,4.36-9.13,3.01.25-.38.79-1,.64-1.5-.2-.66-1.51-.45-1.43-1.55l9.91.04Z"/>
    <path class="cls-85" d="M52.02,101.9l-2.21.21c0-2.29.43-4.8,2.87-6.2l-.67,5.99Z"/>
    <path class="cls-93" d="M54.03,93.24c.83,1.6-1.47,1.45-2.23,2.02.11-1.26-.32-2.42.24-4.32l1.99,2.3Z"/>
    <path class="cls-144" d="M59.66,97c2.74.15,3.67-.22,5.07-.94-.43,1.65-.44,4.41-1.82,4.94-2.45.46-3.04-2.52-3.24-4Z"/>
    <path class="cls-111" d="M59.64,121.95c2.84-.97,4.85-.23,6.03,2.21l2.99-1.96c2.69,1.89,1.66,3.22-3.1,4.01-.89.17-1.56,1.24-2.85.83l-3.48-1.12c-1.16-.37-1.47-2.33-1.23-3.62l1.63-.36Z"/>
    <path class="cls-147" d="M73.6,123.69c1.67,1.55,1.24,2.41-.83,3.23-2.18-1.57-4.39-1.26-7.21-.71.75-.91,1.71-1.18,3.34-1.4-.85-1.5-2.14-.67-3.22-.66,1.5-1.27,2.7-3.3,2.23-5.13,2.26,1.06,4.47,2.45,5.7,4.67Z"/>
    <path class="cls-197" d="M79.79,125.85v2.2c-1.94,1.25-5.94,1.28-7.01-1.12-.07-1.19-.42-2.48.83-3.23,2.17.34,4.2,1.22,6.18,2.15Z"/>
    <path class="cls-35" d="M43.78,86.05c-.79.8-1.91,1.03-3,1-.49-.05-1.13.39-2.04-.45,1.03-.73,1.98-1.5,2.03-2.74.48-.76.82-.69,1.02.19-.02.42-.08.96.15,1.41.32.63,1.2.68,1.85.59Z"/>
    <path class="cls-127" d="M44.64,94.8c.93-.21,1.6,1.11,1.11,1.73-.63.8-1.77.53-2.44.5-.4-.02-.94-.32-.78-.95.59-.61,1.33-1,2.1-1.28Z"/>
    <path class="cls-146" d="M21.79,110.94c2.07,2.6,1.25,4.62-1.97,3.21-.44.47-1.94,1.46-3.32.72.05-2.51,1.75-5.01,3.33-6.83,1.11.62,1.27,2.02,1.97,2.9Z"/>
    <path class="cls-159" d="M22.78,116.2l-.73,1.56c-2.25,1.95-2.97,3.03-2.16,3.22-.33,3.01-.07,6.03-.1,9.05-.95.82-1.28.26-1-1-.23-2.8-.57-2.8-1,0,1.8,1.29,2.18,2.35,1.12,3.19,2.4.86,2.03,1.56-.18,2.31-.23.83-.57.87-1.01.13l-2.01.83c-2.19-2.77-2.51-6.42-.96-10.96-2.12.09-3.2.11-2.82-2.39.19-1.54,1.17-2.88,2.73-3.19l5.18-3.77c1.64-2.56,3.86-1.94,2.94,1Z"/>
    <path class="cls-194" d="M22.78,116.2c-.69-.91-1.86-1.09-2.94-1l-.02-1.05c1.06-.78,1.89-1.87,1.97-3.21.98,1.24,2.54,1.89,3.78,4.12-1.16,1.48-2.11,1.01-2.8,1.14Z"/>
    <path class="cls-26" d="M22.04,117.77l.84.31c-.71,1.23-1.72,2.27-3,2.91-1.2.02-.75,1.38-1.83,2.12-.73-3.13,1.71-4.87,3.99-5.34Z"/>
    <path class="cls-24" d="M6.98,123.89c3.2.32,3.78,1.35,1.76,3.09l2.21,4.07c2.23.51,3.85,2.51,4.88,6,.2-.88.52-.86.96-.01,2.29,1.04,4.65.77,7,0-.61-1.13,0-1.26,1.23-.92.33-1.94,1.14-1.97,1.61-.06-.11,2.15-1.23,3.9-3.87,4.29-2.55.38-4.82-.28-6.97-.42-3.71-.83-5.73-3.94-8.06-6.92-1.08-1.39.65-4.67-1.9-5.13-.08-.94-.27-1.87-.72-2.7-1.07-2.04-1.01-2.89,1.72-2.28.08.3,0,.71.15.98Z"/>
    <path class="cls-62" d="M17.72,134.68c.36,1.3-.61,2.09-1.88,2.38-3.19.04-3.95-3.28-4.88-6l-2.21-4.07-1.76-3.09c1.36.13,2.9.24,3.86-.89.29-.35.74-.55,1.09-.84.41,1.39,2.9-.53,3.97.04,2.89,2.24-2.93,10.46,1.82,12.48Z"/>
    <path class="cls-16" d="M6.83,122.91c-.99.4-.35,2.54-1.72,2.28-1.65-.84-2.65-2.4-2.8-4.23.35-1.05,1.26-1.68,2.73-1.91.95,1.1,1.41,2.48,1.79,3.86Z"/>
    <path class="cls-106" d="M4.95,118.04l.09,1c.12.7-.06,1.47-.8,1.81-.56.26-1.3.25-1.94.1-.06-.7-.43-1.44-.65-2.11,1.1-.27,2.18-.62,3.3-.8Z"/>
    <path class="cls-35" d="M44.72,76.15c.44,1.4-1.36,2.49-1.7,3.89.78.93,3.19.95,3.73,1.97-.06.43.23,1.15.03,1.53-.76,1.44-4.16-.65-4.99.5-.28-.14-.78,0-1.02-.19-1.64-1.32-3.01-3.59-1.91-5.58,2.19.25,3.98-1.15,5.87-2.12Z"/>
    <path class="cls-170" d="M24.87,132.89l1.9.45-.14,2.73-1.61.06c-1.51.3-2.92.27-4.23-.08-1.35.67-2.69.11-2.06-1.5-.64-.74.07-1.66.18-2.31.66-.91,1.94-.8,3.84.34l2.13.31Z"/>
    <path class="cls-100" d="M79.78,128.04h4c2.13.84-8.65,1.88-9.76,1.32s-1.18-1.31-1.25-2.45c1.84,1.33,4.93,1.12,7.01,1.12Z"/>
    <g>
      <path class="cls-180" d="M67.43,117.18l.47,1.85c3.45,2.91,1.72,4.57-2.23,5.13-2.22.02-4.47-.57-6.03-2.21,1.47.18,2.85-.09,1.11-1.4-.91-1.07-1.93-1.97-1.43-2.48.61-.64,1.6-.64,2.17-1.11,2.26-1.84,4.31-1.56,5.94.22Z"/>
      <path class="cls-198" d="M64.04,117.44c1.29-.68,1.75.33,1.73,1.11-.02.91-.26,1.37-.98,1.99-.47.41-1.51.67-1.81-.11-.43-1.11-.12-2.36,1.06-2.98Z"/>
    </g>
    <path class="cls-123" d="M19.79,130.04c1.49,1.49,3.89,1.1,5.08,2.84-1.64,2.03-3.86-.3-5.97-.65-.14-1.01-1.28-2.06-1.12-3.19.28-.87.62-.86,1,0l1,1Z"/>
    <path class="cls-71" d="M17.72,134.68c.31-.02.69-.26,1.01-.13.8.32,1.52.83,2.06,1.5.87.28.86.62,0,1-.31,1.38-2.7.56-4,0h-.96c-.14-1.21.63-2.28,1.88-2.37Z"/>
    <path class="cls-142" d="M18.79,129.04h-1c.25-1.67-.66-3.48.47-4.99,1.15,2.15.27,3.63.53,4.99Z"/>
    <path class="cls-42" d="M20.79,137.04c.41-.97,2.58-1.23,3,0-2.19,1.62-5.17,2.13-7,0h4Z"/>
    <path class="cls-44" d="M25.02,136.13l-1.23.92h-3v-1c1.44-.43,3.13-1.22,4.23.08Z"/>
    <path class="cls-42" d="M10.95,131.05c-1.58-.72-2.03-2.46-2.21-4.07,2.1.46,1.69,2.55,2.21,4.07Z"/>
  </g>
</svg>