<?xml version="1.0" encoding="UTF-8"?>
<svg id="Enemy" xmlns="http://www.w3.org/2000/svg" viewBox="0 0 142.11 104.97">
  <defs>
    <style>
      .cls-1 {
        fill: #8a7363;
      }

      .cls-2 {
        fill: #615249;
      }

      .cls-3 {
        fill: #39312d;
      }

      .cls-4 {
        fill: #483833;
      }

      .cls-5 {
        fill: #846551;
      }

      .cls-6 {
        fill: #9e7663;
      }

      .cls-7 {
        fill: #3b3a38;
      }

      .cls-8 {
        fill: #454950;
      }

      .cls-9 {
        fill: #694c36;
      }

      .cls-10 {
        fill: #8c6756;
      }

      .cls-11 {
        fill: #695346;
      }

      .cls-12 {
        fill: #8a7062;
      }

      .cls-13 {
        fill: #0c0c0f;
      }

      .cls-14 {
        fill: #997b69;
      }

      .cls-15 {
        fill: #161311;
      }

      .cls-16 {
        fill: #313131;
      }

      .cls-17 {
        fill: #75594b;
      }

      .cls-18 {
        fill: #3f281c;
      }

      .cls-19 {
        fill: #50362a;
      }

      .cls-20 {
        fill: #080c0b;
      }

      .cls-21 {
        fill: #b5998a;
      }

      .cls-22 {
        fill: #44494c;
      }

      .cls-23 {
        fill: #313639;
      }

      .cls-24 {
        fill: #2c2c2c;
      }

      .cls-25 {
        fill: #2b3033;
      }

      .cls-26 {
        fill: #2a2a2a;
      }

      .cls-27 {
        fill: #9c8073;
      }

      .cls-28 {
        fill: #936c58;
      }

      .cls-29 {
        fill: #322822;
      }

      .cls-30 {
        fill: #383837;
      }

      .cls-31 {
        fill: #775a3d;
      }

      .cls-32 {
        fill: #403731;
      }

      .cls-33 {
        fill: #1f1f23;
      }

      .cls-34 {
        fill: #5b4a42;
      }

      .cls-35 {
        fill: #373c42;
      }

      .cls-36 {
        fill: #c59f89;
      }

      .cls-37 {
        fill: #75564c;
      }

      .cls-38 {
        fill: #2e3136;
      }

      .cls-39 {
        fill: #6c4e3c;
      }

      .cls-40 {
        fill: #6f584a;
      }

      .cls-41 {
        fill: #1f2326;
      }

      .cls-42 {
        fill: #2d2d2d;
      }

      .cls-43 {
        fill: #38231a;
      }

      .cls-44 {
        fill: #5e5e5e;
      }

      .cls-45 {
        fill: #977765;
      }

      .cls-46 {
        fill: #563927;
      }

      .cls-47 {
        fill: #1f2224;
      }

      .cls-48 {
        fill: #383838;
      }

      .cls-49 {
        fill: #2f2c2b;
      }

      .cls-50 {
        fill: #6e6e6e;
      }

      .cls-51 {
        fill: #725a4c;
      }

      .cls-52 {
        fill: #a47b62;
      }

      .cls-53 {
        fill: #725747;
      }

      .cls-54 {
        fill: #111315;
      }

      .cls-55 {
        fill: #271d17;
      }

      .cls-56 {
        fill: #23282d;
      }

      .cls-57 {
        fill: #7d6051;
      }

      .cls-58 {
        fill: #583b2b;
      }

      .cls-59 {
        fill: #4c3d35;
      }

      .cls-60 {
        fill: #262626;
      }

      .cls-61 {
        fill: #535353;
      }

      .cls-62 {
        fill: #4c4c4c;
      }

      .cls-63 {
        fill: #32271e;
      }

      .cls-64 {
        fill: #745b4f;
      }

      .cls-65 {
        fill: #664b40;
      }

      .cls-66 {
        fill: #202426;
      }

      .cls-67 {
        fill: #393e42;
      }

      .cls-68 {
        fill: #816556;
      }

      .cls-69 {
        fill: #32221a;
      }

      .cls-70 {
        fill: #1a1f23;
      }

      .cls-71 {
        fill: #6a6a6a;
      }

      .cls-72 {
        fill: #1a1d20;
      }

      .cls-73 {
        fill: #25201e;
      }

      .cls-74 {
        fill: #32373c;
      }

      .cls-75 {
        fill: #b79682;
      }

      .cls-76 {
        fill: #170b08;
      }

      .cls-77 {
        fill: #543b2f;
      }

      .cls-78 {
        fill: #705240;
      }

      .cls-79 {
        fill: #886e60;
      }

      .cls-80 {
        fill: #715648;
      }

      .cls-81 {
        fill: #998981;
      }

      .cls-82 {
        fill: #785c50;
      }

      .cls-83 {
        fill: #252a2e;
      }

      .cls-84 {
        fill: #544035;
      }

      .cls-85 {
        fill: #3e4348;
      }

      .cls-86 {
        fill: #937464;
      }

      .cls-87 {
        fill: #b49485;
      }

      .cls-88 {
        fill: #c19684;
      }

      .cls-89 {
        fill: #33383c;
      }

      .cls-90 {
        fill: #1f2327;
      }

      .cls-91 {
        fill: #64574f;
      }

      .cls-92 {
        fill: #d9b3a0;
      }

      .cls-93 {
        fill: #282d31;
      }

      .cls-94 {
        fill: #8f6b5a;
      }

      .cls-95 {
        fill: #664d40;
      }

      .cls-96 {
        fill: #746054;
      }

      .cls-97 {
        fill: #373635;
      }

      .cls-98 {
        fill: #4c372c;
      }

      .cls-99 {
        fill: #8d6b5a;
      }

      .cls-100 {
        fill: #282828;
      }

      .cls-101 {
        fill: #af8d79;
      }

      .cls-102 {
        fill: #2d2d2b;
      }

      .cls-103 {
        fill: #636363;
      }

      .cls-104 {
        fill: #644b3f;
      }

      .cls-105 {
        fill: #a88578;
      }

      .cls-106 {
        fill: #212121;
      }

      .cls-107 {
        fill: #614e44;
      }

      .cls-108 {
        fill: #2b2a24;
      }

      .cls-109 {
        fill: #121317;
      }

      .cls-110 {
        fill: #584034;
      }

      .cls-111 {
        fill: #555;
      }

      .cls-112 {
        fill: #594139;
      }

      .cls-113 {
        fill: #674c3f;
      }

      .cls-114 {
        fill: #a48574;
      }

      .cls-115 {
        fill: #30343a;
      }

      .cls-116 {
        fill: #131111;
      }

      .cls-117 {
        fill: #b8917c;
      }

      .cls-118 {
        fill: #272928;
      }

      .cls-119 {
        fill: #715140;
      }

      .cls-120 {
        fill: #432b20;
      }

      .cls-121 {
        fill: #0e0f0e;
      }

      .cls-122 {
        fill: #6a5951;
      }

      .cls-123 {
        fill: #333;
      }

      .cls-124 {
        fill: #2b2927;
      }

      .cls-125 {
        fill: #694f42;
      }

      .cls-126 {
        fill: #513120;
      }

      .cls-127 {
        fill: #44474e;
      }

      .cls-128 {
        fill: #444545;
      }

      .cls-129 {
        fill: #08090b;
      }

      .cls-130 {
        fill: #4f3f33;
      }

      .cls-131 {
        fill: #59443a;
      }

      .cls-132 {
        fill: #221f1b;
      }

      .cls-133 {
        fill: #181513;
      }

      .cls-134 {
        fill: #44494f;
      }

      .cls-135 {
        fill: #191919;
      }

      .cls-136 {
        fill: #493c36;
      }

      .cls-137 {
        fill: #70584a;
      }

      .cls-138 {
        fill: #947469;
      }

      .cls-139 {
        fill: #150d0a;
      }

      .cls-140 {
        fill: #594a41;
      }

      .cls-141 {
        fill: #896548;
      }

      .cls-142 {
        fill: #232323;
      }

      .cls-143 {
        fill: #876a5b;
      }

      .cls-144 {
        fill: #4b5054;
      }

      .cls-145 {
        fill: #4b2d22;
      }

      .cls-146 {
        fill: #4f5052;
      }

      .cls-147 {
        fill: #484848;
      }

      .cls-148 {
        fill: #4f3c32;
      }

      .cls-149 {
        fill: #363c3f;
      }

      .cls-150 {
        fill: #4e403c;
      }

      .cls-151 {
        fill: #6a4d42;
      }

      .cls-152 {
        fill: #6d5143;
      }

      .cls-153 {
        fill: #5f5247;
      }

      .cls-154 {
        fill: #452a20;
      }

      .cls-155 {
        fill: #523e32;
      }

      .cls-156 {
        fill: #4b372f;
      }

      .cls-157 {
        fill: #a5836f;
      }

      .cls-158 {
        fill: #866b5b;
      }

      .cls-159 {
        fill: #353535;
      }

      .cls-160 {
        fill: #160f09;
      }

      .cls-161 {
        fill: #1f2229;
      }

      .cls-162 {
        fill: #31343a;
      }

      .cls-163 {
        fill: #191a1e;
      }

      .cls-164 {
        fill: #a39792;
      }

      .cls-165 {
        fill: #25292e;
      }

      .cls-166 {
        fill: #67554a;
      }

      .cls-167 {
        fill: #231b15;
      }

      .cls-168 {
        fill: #24272a;
      }

      .cls-169 {
        fill: #111517;
      }

      .cls-170 {
        fill: #4b4b4b;
      }

      .cls-171 {
        fill: #3b2417;
      }

      .cls-172 {
        fill: #322721;
      }

      .cls-173 {
        fill: #423731;
      }

      .cls-174 {
        fill: #584638;
      }

      .cls-175 {
        fill: #bfa08c;
      }

      .cls-176 {
        fill: #040404;
      }

      .cls-177 {
        fill: #2e211b;
      }

      .cls-178 {
        fill: #3f3128;
      }

      .cls-179 {
        fill: #14191f;
      }

      .cls-180 {
        fill: #424241;
      }

      .cls-181 {
        fill: #221d15;
      }

      .cls-182 {
        fill: #a9887a;
      }

      .cls-183 {
        fill: #43362d;
      }

      .cls-184 {
        fill: #4d5258;
      }

      .cls-185 {
        fill: #0e0f0b;
      }

      .cls-186 {
        fill: #272d32;
      }

      .cls-187 {
        fill: #8c7368;
      }

      .cls-188 {
        fill: #523a2d;
      }

      .cls-189 {
        fill: #2f3439;
      }

      .cls-190 {
        fill: #1a1b1e;
      }

      .cls-191 {
        fill: #271a10;
      }

      .cls-192 {
        fill: #675348;
      }

      .cls-193 {
        fill: #6f5340;
      }

      .cls-194 {
        fill: #3a3c3c;
      }

      .cls-195 {
        fill: #323232;
      }

      .cls-196 {
        fill: #5a493f;
      }

      .cls-197 {
        fill: #5c5c5c;
      }

      .cls-198 {
        fill: #565654;
      }

      .cls-199 {
        fill: #654b3e;
      }

      .cls-200 {
        fill: #967b6f;
      }

      .cls-201 {
        fill: #5e4138;
      }

      .cls-202 {
        fill: #82665d;
      }

      .cls-203 {
        fill: #644c42;
      }

      .cls-204 {
        fill: #78675f;
      }
    </style>
  </defs>
  <g id="Stomper">
    <g>
      <path class="cls-204" d="M41.25,3.01c2.36.45,2.65,1.12.71,2.84-1.17,2.47-2.44,4.56-3.8,6.26-.31-.25-1.06-.43-1.17-.87-.85-3.43.02-7.42,3.14-9.88.79-.13,1.79.9,1.13,1.66Z"/>
      <path class="cls-76" d="M41.96,5.85c1.84,1.35,1.68,4.59-.86,5.08.88.22.87.55.03,1,.83,2.13-.22,2.64-1.82,1.07-.41-.27-.78-.59-1.16-.89-.34-2.63,1.28-5.37,3.8-6.26Z"/>
      <path class="cls-133" d="M42.24,14.9c1.42.47,2.09.27,2.01-.57,2.23,3.03,2.63,5.19,1.2,6.47-.09.92-.45,1-1.06.26h-.76c-.44-1.71-1.22-3.51-2.24-5.01-.46-.94-.18-1.32.86-1.15Z"/>
      <path class="cls-32" d="M39.32,13l1.82-1.07c1.6-.12,1.43,1.62,1.1,2.96-.35.33-.63.73-.86,1.15-.66-.96-2.28-1.45-2.06-3.04Z"/>
      <path class="cls-91" d="M1.71,34.24c.44-1.46.93-1.5,1.32.01.95,1.21.87,2.7-.24,4.45,1.98,2.61,2.13,4.46.46,5.57.88.25.88.59.03,1-.45-.39-1.45-.8-2.03-.93-1.21-3.39-2.23-7.36.47-10.11Z"/>
      <path class="cls-153" d="M3.24,44.28c.28-.85.97-1.89,1.68-1.7,1.84.48,6.18,2.25,7.38,3.39.67.27.67.61.03,1-3.15.22-6.57.44-9.06-1.68l-.03-1Z"/>
      <path class="cls-178" d="M12.48,50.96c.25-.88.59-.88,1-.03.22-.86.56-.85,1-.03,1.41,2.05-.19,6.14-1.6,8.19l-1.11.02c-1.3-2.83-1.66-5.86.71-8.14Z"/>
      <path class="cls-107" d="M12.34,46.96l-.03-1c.29-.83.62-.83,1-.03,1.97,1.83,3.49,3.9.17,5l-1,.03-.14-4Z"/>
      <path class="cls-69" d="M9.75,30.04c-.88-.25-.88-.59-.03-1,.6-.26,1.21-.95,1.96-1.07,1.96.14,1.84,1.19.07,2,2.68.02,2.67.97.24,2.05.32.98-.07.98-1.17-.01-.25.88-.59.88-1,.03-2.15-.03-1.81-.94-.07-2Z"/>
      <path class="cls-148" d="M4.72,29.22l5-.17.03,1c-.4,2.57-1.18,3.34-2.96,1.1-.16.9-.49.94-.98.13-1.65,2.44-3,1.38-1.12-.99.12-.33-.03-.73.04-1.07Z"/>
      <path class="cls-122" d="M11.68,27.97l1.66-.26,1.37,1.11c.84,1.9-1.39,2.1-2.96,1.14l-.07-2Z"/>
      <path class="cls-136" d="M11.75,29.97c1.05-.2,2.06-.56,2.96-1.14.28-.1.75.15,1-.01,1.51,2.53,2.85.75,6.13,2.76-.81.72-2.11,1.19-3.88,1.41-1.69,1.46-4.39.17-5.97-.97l-.24-2.05Z"/>
      <path class="cls-81" d="M41.25,3.01c.34-.4,1.24-.48,1.34-1,.15-.79.07-1.47-.16-2.02.93,1.22,3.09,1.15,3.94,1.84.77,1.51.09,3.66.59,4.99-1.54,1.55-2.18.43-3.03-1.21-.22,2.6-.84,2.52-1.98.23-.01-.76-1.5-1.91-.71-2.84Z"/>
      <path class="cls-53" d="M46.73,26.93c.69-2.98,3.09-4.35,4.96-1.47,2.02-.72,3.08.99,2.79,2.84,2.33,1.1,2.3,2.64.38,4.17-.55,1.22-3.37,5.15-4.78,4.02-.22.86-.53.83-.91-.02-.54-1.71-1.62-1.55-3.24.47-1.28-.32-1.99-1.43-2.14-3.35-.6,0-1.59-.44-2.98-1.33l.02-1.19c2.76.02,6.11-1.05,5.9-4.12Z"/>
      <path class="cls-102" d="M46.58,24.75c-.68-1.7-.72-3.03-.14-4-1.22-1.63-.58-2.38,1.92-2.23-1.01-2.71.8-3.65,2.82-1.65,1.46-1.66,4.16,1.01,5.27,3.24,1.51.22,1.52,2.89,2.17,3.8-.16,1.58-.84,1.51-2.06-.22-.88.62-1.57.44-2.1,0,.09,2.36-.71,2.84-2.78,1.77-1.72.24-3.37.79-4.96,1.47l-.14-2.18Z"/>
      <path class="cls-59" d="M29.61,33.62c3.04-2.05,6.93-4.99,10.22-2.62-.96.32-2.03.69-3.2,1.13,1.59,1.19.76,2.56-2.51,4.11-.49,1.94-1.22,2.52-2.19,1.75-1.02,2.16-1.37,1.85-1.83-.45-2.03,1.97-2.74,1.6-2.25-1.18.77-.65.95-2.19,1.77-2.74Z"/>
      <path class="cls-191" d="M39.82,31c.21.15.72.06,1,.06.72,1.82,5.21.11,2.96,2.53,1.21.36.98.95-.19,1.48.19,3.05-1.14,3.22-1.67.19-1.89-.24-4.27-1.53-5.3-3.13-.17-1.67,1.51-1,3.2-1.13Z"/>
      <path class="cls-20" d="M45.44,20.79c.25-.88.59-.88,1-.03.33,1.38,1.43,2.93.14,4-1.13-.95-1.55-2.41-2.2-3.7l1.06-.26Z"/>
      <path class="cls-167" d="M26.05,37.39c.51-.33,1.28-.61,1.79-1.03.71.41,1.43.97,2.25,1.18,1.67,1.09,1.19,3.97-1.05,4.03-.63,2.33-1.74,2.39-2.82.23-.26.85-.56.78-.9-.1-.91-.35-1.38-1.48-1.43-3.38l2.15-.92Z"/>
      <path class="cls-140" d="M22.05,38.62c-2.11-1.24-2.88-3.97-.17-5-2.54-.63-2.55-1.14-.04-2.04,2.2,1.35.15,5.11,1.72,5.94.66.35,1.79-.16,2.49-.13-.86,1.25-.86,2.85-.72,4.3-.14.89-.49.91-1.03.14-.45,1.89-3.09.4-2.17-1.21.93.17.9-.49-.07-2Z"/>
      <path class="cls-73" d="M41.96,5.85c.58-.21,1.37-.23,1.98-.23,1.92.86,2.79,2.9.86,4.19.65.38.8.7.22,1.28,1.99,2.22,3.11,4.7,3.35,7.44-.17.28-.05,1.15-.41,1.56-.31.36-1.16-.22-1.51.67l-1,.03-.5-4.74c-1.33.32-2.01.81-2.27.41-.17-.27-.68-1.36-.44-1.56.31-1.8-.07-3.12-1.14-3.96-.16-1.66.79-3.49.86-5.08Z"/>
      <path class="cls-164" d="M41.13,11.94c-.07-.32,0-.68-.03-1,1.22-.31,2.28-.03,2.15,1.47-.07.86-.26,1.86-1.01,2.49-.52-.92-.87-1.93-1.1-2.96Z"/>
      <path class="cls-152" d="M14.7,63.07c.31-3.18,1.95-6.79,4.81-8.31.85-.81,5.52-4.09,5.88-4.03.97.15,1.76.61,2.37,1.39-.06-.89.21-.91.78-.14,1.73.32,1.87.98.13,1.42.25,2.25-1.36,3.2-4.83,2.83l-2.92,1.42c1.04.55,1.07,1.67.06,3.36,1.42,2.9.33,5.92-2.72,3.78.7,1.84.02,2.28-1.37.89,0,.91-.28.94-.82.16-.59-.84-.95-1.84-1.37-2.76Z"/>
      <path class="cls-77" d="M17.68,54.84c.24-1.91,1.12-1.92,1.83-.08-5.62,8.99,1.38,6.66-4.81,8.31l-1.82-3.99c.09-2.24,2.25-5.99,4.79-4.23Z"/>
      <path class="cls-34" d="M16.07,65.83c.21-.15.61-.02.82-.16,1.36.08,2.51,1.77,3.21,3.03,1.45-.35,3.44-.47,5-.17,1.36-1.37,1.89-.83,1.03.96,1.46,1.59,2.5,3.57.31,4.91l-1.24.72c-1.41-1.54-2.76-2.76-4.05-3.68-2.42-.71-4.71-2.52-5.98-4.74.31-.27.57-.62.9-.87Z"/>
      <path class="cls-192" d="M4.68,30.29c-.3.79.35,1.1,1.12.99,1.48,1.36,1.14,2.62-.85,2.04-.18,1.88-.69,2.46-1.93.93h-1.32c.12-1.82,1.18-3.46,2.97-3.96Z"/>
      <path class="cls-1" d="M3.02,34.25c.67-.26,1.31-.58,1.93-.93,2.5.29,2.95,2.33.16,3.05,1.97,1.1,1.42,2.81.19,4.61l2.67,1.45c5.99-.57,8.13.58,6.42,3.46-.34.89-.71.9-1.09.03-.29-.03-.76.17-1,.03-2.74-1.57-6.07-1.02-9.06-1.68-.13-3.62-2.36-6.67-.22-10.02Z"/>
      <path class="cls-113" d="M13.3,45.93c.36.03.73-.04,1.09-.03.42-.24.84-.42,1.25-.4,2.09.08,6.38.28,6.94,2.09,4.4,1.28,3.37,3.67-3.08,7.18-.61-.02-1.22.22-1.83.08-2.84,1.13-3.15-1.69-3.2-3.95-.32.08-.67.02-1,.03l-.17-5Z"/>
      <path class="cls-137" d="M14.48,50.89c2.03-.51,2.25,2.85,3.2,3.95-1.83,1.34-2.3,4.19-4.79,4.23-1.2-2.64-.43-5.99,1.6-8.19Z"/>
      <path class="cls-51" d="M10.82,32.01h1.17c2.02-1.43,4.34-.79,5.97.98,2.77,1.55,2.48,4.31-.79,4.69l-1.99.24c-.26-1.44-.94-2.31-2.05-2.63-2.02-.37-3.02-1.25-2.32-3.29Z"/>
      <path class="cls-87" d="M9.75,30.04l.07,2c1.14.77,1.38,1.47.07,2-1.72,3.83-4.97.15-3.1-2.89.97-.13,1.92-.9,2.96-1.1Z"/>
      <path class="cls-45" d="M9.89,34.04c-.11-.65-.05-1.34-.07-2l1-.03,2.32,3.29c-.05,1.53-1.21,1.71-2.25.65-2.78,1.2-3.53-.25-1-1.9Z"/>
      <path class="cls-157" d="M4.96,33.32c.12-.67.9-1.28.85-2.04l.98-.13c.88,1.36,1.18,3.98,3.1,2.89.11.65.12,1.94,1,1.9.66,1.3-3.65,4.07-5.11,2.85-.62-.52-.64-1.55-.65-2.41.23-.98-.33-2.08-.16-3.05Z"/>
      <path class="cls-4" d="M26.44,74.4c.12-.88.39-.85.79.02,2.06-.48,2.2,0,1.86,1.99.88.21.85.52,0,.92.91.17.94.51.15,1.02-2.99.1-4.86-3.1-7.25-4.67-.59-.38-.47-1.71-.83-2.25.48-.25,1.06-.73,1.5-.6,1.9.55,1.69,3.51,3.78,3.56Z"/>
      <path class="cls-150" d="M40.54,77.85c-.53.06-1.66.54-2.1.22-3.22-.23-6.33-.48-9.35-.73v-.92c.84-1.95,2.65-2.39,4.45-1.36,2.57-2.48,11.1.36,7.01,2.79Z"/>
      <path class="cls-177" d="M38.44,78.07l-9.2.3-.15-1.02c3.17.38,6.67-1.25,9.35.73Z"/>
      <path class="cls-116" d="M45.01,11.09l-.22-1.28c-.51-1.35-.43-2.81-.86-4.19,1.12,0,2.17.55,3.03,1.21,1.03,2.73,2.96,5,3.53,7.87,1.62-.62,2.19,1.21.68,2.18l-2.82,1.65c-2.12,2.39-3.47-6.93-3.35-7.44Z"/>
      <path class="cls-3" d="M56.57,23.69c.66.14,1.4,0,2.06.22.89,1.23,2.7,2.71,3.07,4.34.44,1.91-.04,4.01-.01,5.94.88.21.85.51-.01.9-.89.51-1.82.93-2.78,1.28-.89.25-1.09-.05-.64-.89-.83-.92.29-2.93,1.52-3.24-3.12-1.27-3.81-5.43-3.2-8.55Z"/>
      <path class="cls-55" d="M21.84,31.58l.04,2.04c-.46,2.89-3.72,2.24-3.92-.63.15-.98.38-1.7,1.39-1.37.81.27,1.65-.01,2.5-.04Z"/>
      <path class="cls-114" d="M43.59,35.06c-.13-.45.26-1.02.19-1.48,1.1.42,1.79.2,1.64.54-.51,1.12-.61,2.14.1,1.67.69-.46.3-1.13.45-2.11.31-1.98,3.27-2.19,4.87-2.55-.47,2.63-1.23,3.89-1.68,5.34-2.09,3.67-3.69,4.45-4.81,2.37-1.53-.39-2.05-2.78-.77-3.77Z"/>
      <path class="cls-40" d="M54.47,28.3c-1.64-1.37-1.02-2.93,0-4.61.25-.05.39-.64.74-.75.63-.21.96.66,1.36.75.95,2.97,3.69,5.29,3.2,8.55-.79,1.6-1.51,2.01-1.91.12-.83.9-1.5.93-2,.07-.25.88-.59.88-1,.03-.88-1.19-.7-2.77-.38-4.17Z"/>
      <path class="cls-112" d="M44.36,38.83c1.63-.52,3.43-1.34,4.81-2.37l.91.02c1.72-.13,1.64.54-.04,1.15-1.34.98-2.01,2.03-2.02,3.17,2,1.25,1.61,2.17-.5,2.97-1.45,1.6-6.39-3.87-3.15-4.95Z"/>
      <path class="cls-75" d="M54.46,23.69c.33.76.9,1.3,2.06,2.18-.75.7-1.81,1.37-2.05,2.43-1.44-.28-2.43-1.46-2.79-2.84.64-.95,1.68-1.56,2.78-1.77Z"/>
      <path class="cls-18" d="M50.08,36.49c2.26-.64,2.23-3.93,4.78-4.02l1-.03c1.42-.11,1.06,1.21.07,2-1.24,1.71-2.53,2.76-3.89,3.14,1.13,1.74-.68,2.73-1.96,1.07-.88-.25-.88-.59-.03-1l.04-1.15Z"/>
      <path class="cls-65" d="M36.62,32.13c2.48-.42,4.6.68,5.3,3.13,1.09.84,1.35,1.08-.03,1.55.42,2.08-3.01,2.54-2.81.26-1.01-.21-2.01-.54-3.02-.99.23,1.71-.07,2.06-.88,1.06.28,1.93-.5,1.96-1.18.06-.59-.31-.53-.63.1-.96-.67-1.68,2.64-2.89,2.51-4.11Z"/>
      <path class="cls-185" d="M30.09,37.53c.6.15,1.39-.16,1.83.45,1.61-.31,1.61,1.81.2,2.29,2.72,3.78-.59,3.55-3.08,1.29.45-1.32.96-2.63,1.05-4.03Z"/>
      <path class="cls-108" d="M31.91,37.98c.47-.86,1.29-1.41,2.19-1.75.11.28-.11.66-.1.96,1.11.75,1.16,3.94.17,5-1.52,1.75-2.55.36-2.07-1.93l-.2-2.29Z"/>
      <path class="cls-43" d="M41.89,36.81c-.1-.49.1-1.05.03-1.55.22.76,1.41.32,1.67-.19.36,1.24.49,2.52.77,3.77.42,1.87,1.08,4.38,3.15,4.95,2.16.9,1.14,2.6-1.07,1.84-.63.7-.94.49-.96-.54-1.78-.28-3.55-1.33-3.2-3.24-4.21-.72-6.04-2.4-.87-3.49-1.55.21-1.39-.31.48-1.55Z"/>
      <path class="cls-139" d="M24.3,41.82c.34-.03.69-.14,1.03-.14.3,0,.6.06.9.1,1.37.72,2.71,1.62,4.03,2.72,3.42,1.91,3.47,3.89.16,5.92-.39,1.85-1.01,2.37-1.88,1.55l-.78.14c-2.59-.42-2.96-2.37-2.56-4.63-2.68-.62-2.86-1.32-.84-3.18-1.5-1.23-2.24-1.95-.06-2.48Z"/>
      <path class="cls-118" d="M26.22,41.79c.95.14,1.95-.45,2.82-.23,2.87.86,3.98,1.8,3.32,2.82.35,2.73-1.2,2.55-2.1.13-.99.06-2.38,1.08-3.11.55-1.13-.83-.99-2.3-.92-3.27Z"/>
      <path class="cls-130" d="M17.96,32.99l3.92.63c.03,1.67,1.13,3.41.17,5,.51,1.58-.99.88-2.09.12-.37,2.02-1.22,2.09-1.8.11-1.7,1.11-2.17.52-.99-1.17.7-1.37.56-3.14.79-4.69Z"/>
      <path class="cls-110" d="M18.16,38.85c.49.15,1.26-.08,1.8-.11,1.51.24,2.23.87,2.16,1.88.68.47,1.18,1.29,2.17,1.21l.06,2.48c-1.61,2.61-7.69-.44-6.95-3.33-1.55-1.25-1.23-2.13.76-2.13Z"/>
      <path class="cls-166" d="M22.05,38.62l.95.71c.22.17,1.2.54,1.06.76-.44.68-1.53.56-1.94.53-.79-.55-1.83-.83-2.16-1.88l2.09-.12Z"/>
      <path class="cls-49" d="M44.8,9.81c1.6.71,4.13,1.84,3.03,3.88-1.45-1.04-2.17-1.84-2.82-2.6.08-.33-.1-.96-.22-1.28Z"/>
      <path class="cls-10" d="M20.92,57.65c3.03-2.61,9.28-3.09,6.78,1.9-.2,1.52-1.23,2.05-3.08,1.58l-.71,1.27c2.88,1.01,2.56,2.66-.98,4.97.61,1.71-1.95,1.61-2.86.34-1.53-.53-2.39-1.38-1.8-2.92,3.9-2.37-.82-.75,2.65-7.13Z"/>
      <path class="cls-188" d="M22.59,47.58c.41-2.55,1.84-2.57,2.6-.1,1.57,1.04,2.55,2.74,2.56,4.63-2.92.53-5.18,2.75-8.25,2.65,1.16-1.85,1.18-4.36,4.8-4.41l-1.71-2.77Z"/>
      <path class="cls-57" d="M28.67,53.39c2.73-.35,2.72,2.35,1.18,3.88.69,1.74,1.07,5.06-1.05,5.41-2.62.22-3.24-1.44-1.1-3.14-.93-3-4.15-2.74-6.78-1.9,1.45-2.66,5.03-3.33,7.75-4.25Z"/>
      <path class="cls-15" d="M28.54,51.97c.61-1.33,2.77-2.21,3.08-3.75-.47-1.66-2.03.27-3.27.47-.77-2.55,1.48-2.77,1.9-4.19l2.1-.13c.6-.32,1.29-.69,2.05-1.11.16-.92.53-.97,1.1-.2,1.12-.39,1.81.6,2.05,2.98,1.96-.16,2.39,1.08.75,2.12,1.52,1.43,2.07,2.12-.13,2.06l.34,1.82c1.49-.69,2.31.99,1.11,2.04,2.16,1.53-1.01,3.39-2,1.15-3.03.45-4.14-2.87-3.04-5.55,1.47-.98.75-1.15-2.15-.52l.38,1.32c3.69,1.11,2.04,4.98-.97,5.8,1.84,2.32,1.47,3-1.11,2.04-.43.36-.73.01-.9-1.05-.22-1.34-.63-2.64-1.18-3.88-.18-.41.01-.99-.13-1.42Z"/>
      <path class="cls-12" d="M18.27,64.78c.64.94,1.25,1.92,1.8,2.92.91.29.92.62.03,1-1.02-1-2.91-1.29-3.21-3.03l1.37-.89Z"/>
      <path class="cls-94" d="M26.13,69.49c-.06-1.72,2.44-5.91,4.34-6.01,1.79-1.22,2.61.32,1.52,1.8,1.41,1.84,1.45,2.84.1,3-.75.74-1.05,1.75-.89,3.03,1.74-.32,1.83.44.12,1.15,1.24,2.92-2.07,3.76-4.08,1.95l-.79-.02c-.65-1.65-1.82-3.48-.31-4.91Z"/>
      <path class="cls-119" d="M27.83,64.18c-1.47-1.34-1.02-1.97.97-1.5,1.5-1.4,1.03-3.52,1.05-5.41l.9,1.05c3.12.74,1.78,2.2-.16,4.16,1.25.38,1.14,1.04-.11,1-1.95,1.65-1.97,4.69-4.34,6.01l-1.03-.96c-1.92.23-1.95-.53-.03-1.13-1.09-1.64.97-3.65,2.77-3.22Z"/>
      <path class="cls-82" d="M20.07,67.7l2.86-.34c-.13-1.87,1.87-2.05,2.14.03l.03,1.13c-1.67,1.25-3.51,1.63-5,.17-.08-.29.11-.74-.03-1Z"/>
      <path class="cls-14" d="M10.13,41.03c.49-1.45,2.57-1.67,3-.1,1.19-2.73,3.41-2.89,4.28.04l6.95,3.33c.38,1.03.66,2.1.84,3.18-.92-.46-1.76,0-2.6.1-2.79.35-7.11,1.4-8.19-1.69-1.22-3.47-7.61-.57-9.09-4.91,1.45-2.87,3.33-1.49,4.82.05Z"/>
      <path class="cls-175" d="M5.12,36.38c1.83.96,4.3,1.24,5.77-.44.54-.61,1.38-1.16,2.25-.65,5.51,2.99,2.4,3.43-2.2,3.28-.77.09-1.39.59-1.84,1.49,1.26-.16,1.76-.16,1.03.96-1.44,1.18-3.13.13-4.82-.05-.35-1.03-1.15-1.77-2.13-2.22,1.09-.9,1.74-1.54,1.94-2.39Z"/>
      <path class="cls-158" d="M13.13,35.29c1.76-.07,3.66.68,4.04,2.39.15.35.66.98.99,1.17-.2.73-.46,1.44-.76,2.13l-4.28-.04c-.88-.87-2.23-1.15-4.03-.86-.04-.86-.28-1.84.53-1.96,2.05-.3,2.87.13,4.99-.8.53-.23-2.05-2.35-1.48-2.02Z"/>
      <path class="cls-199" d="M27.23,74.42c1.64.04,3.14-.62,4.08-1.95.49-.63.91-1.1,1.09-1.02,2.44,1.07.3,4.21-.07-.16-.02-.29.43-.62,1.03-.96-.09-1.95.69-2.08,1.46-.26,3.43-.56,8.8,1.8,9.53,5.79,2.47.02,3.5.69,3.09,2.02-.37,1.22-1.7,1.08-2.53.25-1.35-.13-3.03-.96-4.37-.26.36-.04.15-1.63-.42-1.67-3.83-.32-7.45.22-11.03.24-1.04-.14-1.74-.97-1.86-1.99Z"/>
      <path class="cls-173" d="M53.93,38.86c-1.49-1.24.23-3.8,2.03-3.43l.96-1.03c1.49-1.26,2.1-.74,1.32,1.08l.64.89-.8,1.88c-1.16.43-2.26,1.03-3.15,1.9-.81.45-1.05.21-.77-.7-.85.38-.9.16-.23-.59Z"/>
      <path class="cls-155" d="M57.86,32.36l1.91-.12c-.16,1.09-.68,2.68-1.52,3.24l-1.32-1.08c-.91-.7-.38-2.24.93-2.03Z"/>
      <path class="cls-79" d="M55.86,32.43c.26-.4.7-.86,1.19-.76.38.08.56.7.81.69l-.93,2.03c-.28.38-.6.73-.96,1.03-.88-.25-.88-.59-.03-1l-.07-2Z"/>
      <path class="cls-64" d="M48.01,40.81c-.45-1.35.84-2.42,2.06-2.17l1.96-1.07c2.14-1.21,2.2-1.16,1.9,1.29.1.18.09.46.23.59-.31,1.49-1.15,3.45-2.78,3.16-.5,1.94-3.01,3.86-3.87,1.16.05-1.01-.02-2.05.5-2.97Z"/>
      <path class="cls-154" d="M50.04,37.64l.03,1c-.85.47-1.35,1.48-2.06,2.17-.95-.58-.98-1.49-.33-1.94.89-.62,1.64-.9,2.36-1.22Z"/>
      <path class="cls-11" d="M55.93,34.43l.03,1c-1.16.8-1.31,2.28-2.03,3.43-.77-.2-1.48-.61-1.9-1.29.67-1.68,2.01-3.1,3.89-3.14Z"/>
      <path class="cls-131" d="M35.19,37.14c-.14-.8.37-.8.88-1.06,1.22.18,2.22.51,3.02.99.98.35,1.93.49,2.81-.26.09.47.71,1.42.38,2.38-.21.61-1.33-.21-2.5.44.72,1.49,1.78,1.91,2.51,2.22-1.4,3.19-5.84,1.44-6.78-1.9-1.07-.61-1.12-1.92-.31-2.81Z"/>
      <path class="cls-138" d="M36.07,36.07c.77-.4,1.35-1.18,2.06-.63.67.51,1.29.89.96,1.62-.46-.17-1.37.44-1.78.53-.96.21-1.34-.51-1.23-1.52Z"/>
      <path class="cls-160" d="M34.01,37.2l1.18-.06c.16.93.23,1.87.31,2.81,2.09,1.61,2.1,2.65.01,3.12l-1.1.2c-.93-.18-1.01-.53-.23-1.07l-.17-5Z"/>
      <path class="cls-7" d="M29.04,41.56l1.82.48c.98.26,1.38-.8,1.26-1.77l2.07,1.93c.01.36.2.71.23,1.07.13.41.42.97.28,1.29-.5,1.15-2.31-.19-2.34-.18-.93-1.2-3.21-.94-3.32-2.82Z"/>
      <path class="cls-95" d="M35.5,39.95c2.23-1.91-.6,2.88,6.78,1.9,1.48.63,2.57,1.71,3.2,3.24.52,3.07-.62,3.02-3.44-.13.09,1.95-.78,2-2.61.16l-1.86.94c-.66-.97-1.73-1.8-2.05-2.98-.27-.99.07-2.12-.01-3.12Z"/>
      <path class="cls-63" d="M46.44,45.62c.4-.51,1.04-1.14,1.07-1.84,1.26.35,2.74-.85,3.87-1.16,1.96-.81,2.06.52.9,1.95-.93,1.2-1.88,2.57-2.86,4.1.82,3.15-.5,3.88-3.05,1.91-.88-.14-.88-.44-.07-.89-1.07-1.48-1.64-3.14.14-4.07Z"/>
      <path class="cls-125" d="M42.03,44.95c1.14.39,2.45,1.18,3.44.13.3.21.63.39.96.54.48,1.33.44,2.78-.14,4.07-.24.89-.59.9-1.06.07-1.81.11-2.25-.58-.82-1.73-2.79.27-3.74-.61-2.39-3.08Z"/>
      <path class="cls-88" d="M27.7,59.55c.32,1.04,1.05,1.99,1.1,3.14-.41.38-.69,1.02-.97,1.5-1.65,1.98-2.96,1.39-3.93-1.78-.12-.51-1.83-.46-1.62-1.26.6-2.28,3.59-2.07,5.42-1.59Z"/>
      <path class="cls-6" d="M23.91,62.4c1.35.51,2.7,1.02,3.93,1.78-.72,1.24-1.48,2.5-2.77,3.22l-2.14-.03c-.36-.71-.76-1.43-.35-1.85s1.59-1.01,2.11-1.68c.27-.35-.66-.96-.78-1.44Z"/>
      <path class="cls-97" d="M32.45,49.17c.8-.11,1.52.06,2.15.52.84,1.98,2.56,3.43,3.04,5.55,1.99.08,2.43,1.08,1.09,2.56-.45,1.47-1.65,2.1-2.08.39-3.05,1.66-5.84,2.67-4.8-1.91-.3-1.72.74-2.87,1.94-4.7-1.6-.82-2.02.64-3.21.8-.72-2.23,1.11-2.36,1.86-3.21Z"/>
      <path class="cls-172" d="M30.75,58.32c.14-.58,1.24-1.25,1.11-2.04.52,2.3,2.78,1.71,4.8,1.91,1.16,1.34-.43,2.37-2.05,1.94.83,2.54.17,2.74-1.75.94.44,2.99.09,3.44-2.27,1.41.27-1.36.12-2.8.16-4.16Z"/>
      <path class="cls-126" d="M32.09,68.28l-.1-3c1-1.66,2.08.31,2.07,1.93,1.12-1.5,1.4-1.15.82,1.06,1.75.54,1.7,1.34-.05,1.78l-1.46.26c.12,1.95-.67,1.92-1.2-.04-1.54.02-1.54-1.53-.07-2Z"/>
      <path class="cls-193" d="M30.48,63.49c-.81-.18-.41-.76.11-1,.81-.38,1.58-.83,2.27-1.41,2.28.31,3.86,5.13,1.2,6.14l-2.07-1.93c-.57-.53-.53-1.7-1.52-1.8Z"/>
      <path class="cls-101" d="M32.16,70.28l1.2.04c-.02,1.25,1.22,2.07.78,4-1.27-.62-1.71-1.73-2.83-1.85l-.12-1.15c-.78-1.32-.38-1.84.96-1.03Z"/>
      <path class="cls-92" d="M32.09,68.28l.07,2c-.14.49-.47.89-.96,1.03-.89-.32-1.39-1.46-1.07-2.45.25-.78,1.32-.6,1.97-.58Z"/>
      <path class="cls-58" d="M13.13,40.93c-.87,0-2.2-.12-3,.1-.74.17-1.01-.32-1.03-.96,1.32-.89,2.8-1.41,5.02-1.01-.33.87-.88,1.24-.98,1.87Z"/>
      <path class="cls-84" d="M46.48,75.49c2.11-2.77,7.6-2.79,7.1,1.99,3.03-1.5,4.22,1.56,2.13,4.07-.66-.37-3.01.68-3.22-.79-.35-2.48-2.97-2.28-5.05-2.89l-3.09-2.02c-.01-2.7.85-2.73,2.12-.37Z"/>
      <path class="cls-41" d="M55.71,81.55c-.69-3.07.21-4.12,2.71-3.15.14-.93.51-1.3,1.11-1.11,1.78-1.33,2.31-.76.98,1.01,1.2.68,1.22,1.66.06,2.96-.3.68-.61,2.2-1.52,1.86-1.39-.17-2.79-.16-3.33-1.57Z"/>
      <path class="cls-132" d="M58.46,54.28c1.02.05,2.25-1.34,2.88-2.1,1.1-.74,2.07-2.15,2.93-4.23.99-.65,1.06-3.5,3.19-3.2,1.5,2.05.52,5.29-.96,7.14,2.44,1.82,1.26,4.6-1.7,4.37.07,1.45.05,2.85-1.05,3.89,2.94.74,2.88,1.74.36,3.02-1.24,5.64-4.87.34-2.11-2.99-2.51-.26-3.2-1.47-4.11-3.79-2.07-.46-1.36-1.21.57-2.1Z"/>
      <path class="cls-156" d="M53.73,55.61c-2.37-1.46.02-2.44,2.05-1.46l2.68.13c.21.97-.13,2.45.92,3.35.51.43,1.63-.04,2.03.18.78.41.57,1.66.58,2.36-.17,1.8-.87,1.98-1.45.2-.4,2.39-1.56,2.32-3.48-.23l-1.43.26c.73,1.07.29,1.52-.85.91-.12.89-.4.88-.83.05-3-.76-2.44-4.31-.23-5.75Z"/>
      <path class="cls-183" d="M49.42,48.67c.94,0,1.4,1.12,1.07,1.96.97.61,3.02,1.23,2.5,2.63.27,1.69-.5,1.8-1.54.42-.68,2.76-1.85,2.62-2.62-.07-1.46-.32-2.3-.97-2.53-1.93-.9-.33-.85-.7.07-1.1,1.21-.27,2.15-1.09,3.05-1.91Z"/>
      <path class="cls-196" d="M54.17,39.45l.77.7-1.67,4.24-.99.18c-.18-.7-.37-1.42-.9-1.95.52-1.37,1.39-2.61,2.78-3.16Z"/>
      <path class="cls-171" d="M51.45,53.68c.52.01,1.03-.37,1.54-.42.9-.08,2.74-.4,2.79.89-.67-.03-2.65.31-2.05,1.46-.94,4.02-5.99.3-2.28-1.93Z"/>
      <path class="cls-68" d="M39.43,45.11c.81-.21,1.78-.44,2.61-.16.21,1.39,1.52,2.1,2.39,3.08.14,1.46-.93,1.69-2.12,1.58-.99,1.52-3.11.02-2.71-1.51-.78-.94-.8-1.94-.16-3Z"/>
      <path class="cls-187" d="M37.57,46.05l.1-3.3c.73.88.97,1.79,1.75,2.35.23.54,1.29.92,1.42,1.52s-.81,1.3-1.26,1.48c-.01,1.58-.7,1.56-1.27.06-.55-.54-.36-1.54-.75-2.12Z"/>
      <path class="cls-104" d="M43.78,50.79c-.57-1.62.08-2.01,1.46-1.02l1.06-.07c0,.29.09.59.07.89-.02.37-.11.73-.07,1.1.6.82,1.44,1.46,2.53,1.93,2.03.71,1.82,1.57-.33,1.76-.01,1.33-.62,1.47-1.83.41-.28,2.72-.97,2.51-2,.07-1.21,1.8-2.14-3.93-2.1-4.22.05-.33.56-.59,1.21-.83Z"/>
      <path class="cls-86" d="M44.42,48.04c.4.46.47,1.23.82,1.73-.38.48-.89.82-1.46,1.02-1.59,1.16-2.23.62-1.48-1.17-.7-.57-.3-.8.21-1.03.71-.33,1.31-.51,1.91-.55Z"/>
      <path class="cls-98" d="M38.32,48.17l1.27-.06c.85.6,1.79,1.03,2.71,1.51.54.28.9.92,1.48,1.17l.89,5.05c1.51.01,1.43.77-.04,1.27-.81,2.87-2.58,2.19-3.1-.37-2.5-.08-2.32-1.18.16-1.64-1.22-2.95-2.28-3.96-3.16-3.05-1.24-.92-1.1-2.61-.21-3.88Z"/>
      <path class="cls-2" d="M38.53,52.05c-.36-1.7.33-2.76,1.54-1.13.91.91,1.46,1.4,2.05,2.07.53.59.65,1.58-.43,2.11-1.2,1.68-2.65,1.28-2.05-1.01-.81-.4-.75-1.53-1.11-2.04Z"/>
      <path class="cls-181" d="M37.64,55.24c.64-.24,2.26-.11,2-1.15l2.05,1.01-.16,1.64c-.2.81-.5.81-.91.06,1.08,2.69.06,2.88-1.88,1-.45-.82-.88-1.64-1.09-2.56Z"/>
      <path class="cls-48" d="M34.6,49.69c-.33.19-.76.27-1.1.52-.78.57-1.2-.26-1.05-1.04.98-1.11,2.7-1.6,4.02-.53-.89.87-1.46.86-1.87,1.05Z"/>
      <path class="cls-200" d="M36.65,58.19c.63.06,1.54-.1,2.08-.39,1.74-.1,1.78.7.04,1.25.85,1.65-1.41,2.77-2.93,2.1-1.54,1.23-2.13.75-1.25-1.01.79-.51,1.44-1.24,2.05-1.94Z"/>
      <path class="cls-5" d="M32.85,61.08c.51-.43,1.2-.58,1.75-.94.4.36.81.7,1.25,1.01,1.65-.48,1.7.19.15,2,2.23.33,2.59,1.41,1.02,3.03-.55.16-.81.06-1.15.18-.71.24-1.01,1.43-.99,1.92-.35-.29-.5-.77-.82-1.06.2-.78.59-1.63.32-2.64-1.17-1.04-1.58-2.27-1.52-3.5Z"/>
      <path class="cls-31" d="M53.55,73.69c.08-.88.33-.86.72,0,1.02-.53,1.54-1.66,1.55-3.38-.94-4.11,5.11-3.22,3.39,1.03,1.13,2.03.31,4.94-.8,7.07-.95,1.01-1.43,2.44-2.71,3.15.58-1.86-1.62-2.63-2.13-4.07-.72-1.23-1.03-2.78-.03-3.79Z"/>
      <path class="cls-174" d="M47.1,72.76c.53-1.77.65-2.12,1.57-.4,1.22-2.7,2.64-2.6,3.53.21,1.47-1.17,2.07-.67,1.35,1.12.12,1.01.51,1.61,1.27,2.04.98.55-.92,1.1-1.24,1.74-.13-.37-1.21-.21-1.43-.86-.16-.46.06-.96-.14-2.08-1.81,1.15-3.67,1.3-5.53.94-.22-.99.38-1.83.62-2.72Z"/>
      <path class="cls-29" d="M59.22,71.34c.25-.88.59-.88,1-.03l.18.99c-.71,1.37.54,3.72-.87,5-.38.35-.75.74-1.11,1.11-.06-2.4,1.17-4.64.8-7.07Z"/>
      <path class="cls-36" d="M39.1,61.24c-.46-1.56.59-1.15,1.74-.27,1.19-.36,2.03,1.17,1.25,2.15,1.67.19,2.43,2.71.97,3.62.65,1.68.86,3.08-1.03,2.19l-2.89-1.88c-1.54-1.11-1.99-4.65-.04-5.82Z"/>
      <path class="cls-120" d="M45.91,62.8c.4-.83.74-.77,1.02.14.88-.51,1.48-.29,1.82.67.89.26.9.62.07,1.08,2.09,1.18,2.43,1.84.27,3.11,3.02.73,2.69,3.86-.41,4.57-.53,0-1.05.36-1.57.4.25-.94.01-2.05.08-3.01-1.84-.51-1.62-5.32-1.26-6.95Z"/>
      <path class="cls-80" d="M43.91,62.87c-.5-1.47-.38-1.91.96-1.03,1.13-1.58,1.63-.92,1.03.96.72,2.26,1.42,4.56,1.26,6.95l-3.02.12c-.88-.25-.88-.59-.03-1-.32-2.23-.39-4.22-.21-6Z"/>
      <path class="cls-52" d="M36,63.14c.11-1.64,1.59-2.59,3.1-1.9.44,1.93,1.16,4.03.04,5.82-.58-.37-1.69-.18-2.11-.88-.55-.91-.94-1.99-1.02-3.03Z"/>
      <g>
        <path class="cls-99" d="M34.88,68.28c-.43-3.13-.03-5.43,2.15-2.1,1.49-1.86,2.2-1.56,2.11.88,1.94-2.19,3.4-.61,2.89,1.88.59-.68,1.3-.37,2.13.93,1.16-2.54,1.94-2.97,3.02-.12,1.51.17,1.24,2.36-.08,3.01,1.94,1.71,1.86,2.09-.62,2.72-.66-.13-1.45.42-2.12.37-.47-.31-1.83.35-2.45-.41-.27-.33-.25-.89-.51-1.84-2.71-.53-5.11-1.4-6.56-3.53-.37-.55.07-1.26.05-1.78Z"/>
        <path class="cls-105" d="M38.07,68.4c1.02.93,1.4,1.55,1.12,2.13s-.88.76-1.49.57c-.7-.21-.24-1.15-.97-1.88-1.21-.88.41-1.67,1.34-.82Z"/>
        <path class="cls-117" d="M43.06,66.74c1.57-.54,1.68.74,1.06,2.12l.03,1c-.35.27-.57.92-1.05.57-.6-.43-.64-1.21-1.07-1.49.94-.29,1.11-1.32,1.03-2.19Z"/>
      </g>
      <path class="cls-124" d="M60.02,65.27c-1.84-.61-1.56-1.55.37-1.96-.61-1.03-.69-2.05.16-2.94l1.45-.2c.02,1.21-.26,2.3.11,4.12.91-.46,1.32-1,2-1.13l1,3.05c-3.1.06-3.42,3.6-4.71,6.08l-.18-.99c-2.1-2.74-2.34-4.16-.73-4.27l.53-1.76Z"/>
      <path class="cls-17" d="M47.77,58.73c-.69-1.33-.77-2.85.73-3.37.14-.59.57-1.12.33-1.76l2.62.07c-.07.46-.02,1,.26,1.33.52.62,1.34.69,2.02.59.97,1.86-.11,3.78.23,5.75.62,1.85-.17,2.03-1.2.28-1.1,1.85-2.44,2.51-4.03,1.97-.63-.14-1.24-.37-1.82-.67-.86-.29-.87-.74-.05-1.17.72-.96,1.02-1.97.89-3.03Z"/>
      <path class="cls-201" d="M52,64.52c-1.91-.71-.88-2.4.77-2.89l1.2-.28.83-.05c1.07.19,1.52,1.08,1.15,2.14,2.69-.74,2.92.21,1.08,2.09.15,1.82-.25,2.16-1.19,1.03-.53,1.68-1.38,1.88-1.67.04-3.04,1.11-5.16.35-2.16-2.08Z"/>
      <path class="cls-203" d="M60.55,60.37c-.2.97-.24,1.95-.16,2.94-2,1.52-3.01-.79-2.11-.4,1.39.61.41.89-1.41.55-1.01-.37-1.49-2.02-1.23-3.06.31-1.32-.26-2.73.91-4.41,1.89,1.51,1.6,3.19,2.31,5.66,1.46.07.84-2.33,1.69-1.28Z"/>
      <path class="cls-202" d="M54.79,61.31c.06-.55.05-1.25.85-.91,1.07.64,1.61,1.85,1.23,3.06-.23.73-.54.71-.94,0-.95-.33-1.26-1.21-1.15-2.14Z"/>
      <path class="cls-96" d="M46.3,51.68c1.22-.05,2.34.68,2.53,1.93-.99.13-1.73.08-2.56.03-1.07-.06-1.22-1.83.03-1.96Z"/>
      <path class="cls-37" d="M44.67,55.84l2-.07c.64.28,1,1.26,1.1,2.96,1.08,1.17.59,1.66-.96,1.03-.3.89-.63.9-1,.03-2.32.15-2.69-.9-1.18-2.69-.12-.35.1-.94.04-1.27Z"/>
      <path class="cls-145" d="M46.67,55.77c.19-.11.33-.54.56-.65.45-.2.91,0,1.27.24-.27,1.12-.54,2.23-.73,3.37-1.22-.47-1.21-1.83-1.1-2.96Z"/>
      <path class="cls-143" d="M40.62,56.8c.22-.12.66-.12.91-.06,1.02.22,2.05.4,3.1.37.47.7,1.36,1.77,1.18,2.69.87.74.32,2.28-.93,2.03.06.36-.62.92-.96,1.03-1.97-.93-4.79-4.35-3.29-6.07Z"/>
      <path class="cls-39" d="M40.62,56.8c.48,2.34,2.26,3.98,3.29,6.07.06,2.7-.74,2.7-1.82.26-.42-.73-1.01-1.29-1.25-2.15-2.12-.08-2.81-.73-2.07-1.93-.11-.36.14-.92-.04-1.25l1.88-1Z"/>
      <path class="cls-28" d="M35.85,61.15c1.15-.43,2.26-1.05,2.93-2.1.76.43,1.81,1,2.07,1.93l-1.74.27c-1.17.38-2.18,1.09-3.1,1.9l-.15-2Z"/>
      <path class="cls-9" d="M55.83,66.56c.19-.54.64-.91,1.19-1.03.8-.19,1.8-.27,3-.27l.2,6.03-1,.03c-.05-.97-.32-1.72-.82-2.15-1.24-1.06-2.39-.25-2.57,1.12.16,1.98-.36,3.11-1.55,3.38h-.72c-.27-.37-1.11-.62-1.35-1.11-1.15-2.06.06-4.06,3.62-6.01Z"/>
      <path class="cls-141" d="M55.83,70.31c.21.55.44,2.29.52,3.37.05.7-1.45,1.76-2.07,0-.28-1.31,1.42-2.36,1.55-3.38Z"/>
      <path class="cls-182" d="M49.08,67.8c.46-1.45,2.15-1.85,5.07-1.2l1.67-.04c.22,2.59-2.42,3.91-3.62,6.01-1.17-.08-2.35-.21-3.53-.21.53-1.45.32-3.04.41-4.57Z"/>
      <path class="cls-78" d="M42.09,63.13c.57-.13,1.28-.09,1.82-.26.96,1.93,2.09,4.27.21,6,0-.86-.74-1.43-1.06-2.12-.51-1.1-.36-2.55-.97-3.62Z"/>
      <path class="cls-21" d="M52.77,61.63c-.27.96-.59,1.91-.77,2.89.2,2.79-2.65,2.87-3.18.17l-.07-1.08c1.72-.59,2.44-3.42,4.03-1.97Z"/>
      <path class="cls-151" d="M48.81,64.69c1.01.72,2.29.73,3.18-.17-.08.41-.11,1.08.11,1.51.37.71,1.38.63,2.05.58-1.37,1.26-3.3,1.21-5.07,1.2.06-1.04-.21-2.08-.27-3.11Z"/>
      <path class="cls-19" d="M45.81,59.8c.32-.06.68.05,1-.03,1.77-.22,1.4,1.17.07,2l.05,1.17-1.02-.14c-.14-.44-.7-.7-1.03-.96-.14-.85.72-1.41.93-2.03Z"/>
      <path class="cls-46" d="M56.88,63.46c.66-.37.8-1.86,1.53-2.2,1.06-.49,1.19,1.81,1.99,2.05-.03.67-.12,1.34-.37,1.96-.59.41-.77,1.82-1.5,2.06-1.13.38-1.51-1.07-1.5-1.8l-1.08-2.09h.94Z"/>
      <path class="cls-27" d="M46.81,59.77c.45-.12.89-.57.96-1.03,1.35-.07,2.21-.01,1.57,1.01-.86,1.39-1.06,2.35-2.47,2.02l-.07-2Z"/>
    </g>
    <g>
      <path class="cls-47" d="M69.15,41.86c2.16-.12,2.96-2.74,3.95-3.93,3.18-1.48,7.07-2.13,9.81-4.44l1-.03c2.67.23,2.58,1.15.07,2,.43,2.56-.83,2.74-2.9,1.85.11,2.73-1.11,3.09-3.08,1.38,1.1,3.21-2.37,5.06-5.06,3.27-.72,3.36-3.13,6.72-5.46,2.79.63-.92,1.3-1.82,1.68-2.88Z"/>
      <path class="cls-72" d="M83.91,33.46c1.05-1.02,2.92-.85,4.13-.21.27-.01.56-.02.82-.08-1.57,1.41,7.81.94,10.26,2.18.89-.04.91.24.13.79,1.62,1.7.23,2.59-4.17,2.7l-7.78-2.4c-1.77,1.37-2.87,1.04-3.32-.98l-.07-2Z"/>
      <path class="cls-190" d="M60.56,81.27c.19-.88.49-.86.89,0,1.71-.36,3.65-.61,5.82-.72l8.07-2.72,2.21,1.33c.67-.2.93.02.76.68,1.55,2.47-1.48,5.12-3.67,2.87-3.72,1.08-10.42,2.11-13.93,2.5-.31-.63-.81-1.97-1.67-2.08-.88-1.99-.76-1.99,1.52-1.86Z"/>
      <path class="cls-121" d="M61.34,52.17c-.11-2.15,1.56-3.34,2.93-4.23,1-.23-2.99,10.6-2.93,4.23Z"/>
      <path class="cls-93" d="M81.08,37.3c.86-.38,1.16,0,.99,1.03,1.1,1.69,2.21,2.36,3.33,1.98-1.35-4.54,1.68-5.12,9.08-1.73l.75,2.3c.3,2.42.99,4.17,2.1,5.23,1.98.19,3.91.46,5.77.8.04-2.27.74-3.69,2.11-4.27l2.59.06c-.33,2.46-.76,4.76-1.3,6.91-.24.82-.56.81-.97.02.34,1.44-1.58,3-2.91,2.97-.77.04-5.87-.02-6.02-.29-.38-.72-.55-1.36-.18-2.16l-.03-.51c-4.72.42-9.31.66-13.78.7l-2.22-.92c.07-2.17-.29-4.46-1.09-6.86-2.61-.19-3.26-2.16-1.3-3.88.81-.86,2.15-1.06,3.08-1.38Z"/>
      <path class="cls-168" d="M83.98,35.45c3.77-.88,15.22,3.51,15.27.69,3.21.05,6.44.55,9.68,1.48l1.17-1.06c.79-2.84,5.27-3.49,5.68-.12.25,1.5-.5,3-2.24,4.51.79,2.76.33,4.54-1.37,5.33l-.78,1.71c-1.86-1.21-2.87-1.32-3.02-.33,2.4,2.03.74,3.12-1.9,1.95-.04-2.59.8-5.2-1.29-6.96-1.55,1.71-3.15,1.22-4.81-1.47-1.86-.86-3.58-.95-5.17-.29-2.96-.88-5.21-3.6-8.92-3.59-.65.72,1.22,1.56,1.01,2.17-.23.64-1.43.65-1.91.85-1.06,1.09-2.17.43-3.33-1.98-.35-.33-.68-.67-.99-1.03.6-1.27,1.6-1.55,2.9-1.85Z"/>
      <path class="cls-149" d="M72.93,41.96c1.59-1.06,3.65-1.78,5.06-3.27.79,1.15,1.22,2.49,1.3,3.88,1.32,3.53,3.28,9.36-2.11,5.24-1.21,1.46-1.46,2.94-.77,4.45.57,1.49-1.02,1.96-1.83.53-2.89,2.59-7.21.29-4.18-2.91-.48-2.61.36-5.25,2.53-7.92Z"/>
      <path class="cls-186" d="M67.46,44.74c2.42.34,3.71-1.62,5.46-2.79l-.05,5.67-2.48,2.26c1.32,2.85-1.87,4.05-3.89,2-1.43-2.34-.52-4.99.96-7.14Z"/>
      <path class="cls-109" d="M101.95,34.8c2.42,1.48,5.38,1.12,8.16,1.76-.06,1.28,1.39,2.24.95,4.02-8.39-5.09-3.22-.82-11.81-4.44l-.13-.79,2.83-.55Z"/>
      <path class="cls-165" d="M88.57,73.24c-1.4-1.19.16-3.46,1.66-1.99.76-.85.79-1.98.08-3.37l.78-.66c-.09-2.19-.15-4.19-.21-6,.11-.91.43-.95.94-.17,2.43,1.18,7.73,3.78,5.09,7.03,1.36,1.79.87,2.65-1.38,2.86.83.42.78.79-.12,1.12-.07,1.44-.42,2.55-1.04,3.32-.36,0-.72,0-1.09-.03-3.79,1.42-7.96,2.5-11.88,1.22-5.41.12-1.37-3.18,2.73-3.83-.58,3.08,3.63,2.82,4.43.5Z"/>
      <path class="cls-33" d="M96.35,79.13c-.39-1.9.38-1.99,1.15-.12,1.95-.34,3.98.6,6.1,2.82,1.98.2,2.97,1.15,2.98,2.84,1.69-.65,3.01-1.03,2.13.97,1.72,2.16.86,3.47-1.82,3.08-1.28,1.39-2.4.78-3.36-1.83-.73-.6-1.19-1.49-2.08-1.97-2.52-1.35-3.83-3.36-5.1-5.78Z"/>
      <path class="cls-72" d="M81.41,76.57c13.17.87,9.39-6.22,11.88-1.22-1.21,1.37-2.84,2.26-4.55,2.88-2.94-.13-5.71-.34-8.3-.63-.36-.98-.04-1.32.96-1.03Z"/>
      <path class="cls-163" d="M95.42,72.06c2.33-.53,4.26,6.02,2.09,6.94l-1.15.12-1.97-3.75c-.5-.95-.5-3.13,1.04-3.32Z"/>
      <path class="cls-41" d="M61.46,81.26c-.44-.28-.79-.56-.8-.86-.04-.99,12.97-10.58,15.63-10.82.25-.88.6-.92,1.04-.12,2.38,2.21,5.22,1.72,8.5-1.45l2.38,1.12c1.38.53,1.25,1.65-.38,3.36l.74.77c.82,1.36-.36,1.95-1.19,2.06-5.74.75-.6-1.92-6.53-.6-.56.13.16,1.49.56,1.87-.37.3-.69.65-.96,1.03-.29,1-1.83,1.76-2.89,1.55-5.36,1.87-10.39,4.25-16.04,4.04,2.32-1.58,2.28-2.2-.06-1.93Z"/>
      <path class="cls-83" d="M60.51,78.31c-.11-1.64.61-2.79,2.07-3.37-1.5-4.12,1.02-6.45,7.57-7-.79-2.48-.42-4.17,1.11-5.09-2.49-3.85,3.93-6.62,4.62-2.06-.02,2.25.57,4.61,1.75,7.08l-1.36,1.69c-.06,3.94-15.01,9.78-14.83,11.68h-.89c-.14-.39-.83-.84-.8-1.37.04-.64.62-1.12.74-1.58Z"/>
      <path class="cls-129" d="M80.45,77.6c2.8.23,5.83-1.07,8.3.63-3.53.24-7.19.02-10.43,1.6-.4-.03-.77-.25-.76-.68,1.04-.36,1.48-1.67,2.89-1.55Z"/>
      <path class="cls-25" d="M60.4,72.3c.28-6.56,1.85-8.59,4.71-6.08-.12-.62.09-1.15.62-1.62-.8-6.01,7.18-8.33,5.54-1.74.16,1.6,1.69,5,.34,6.4-2,2.07-5.51.64-7.96,2.58-.37,1.34,1,1.96,1.74,3.49-1.55,1.41-3.26,2.14-4.88,2.98.03-.35-.54-1.23-.98-1.01-.21-1.37-.17-3.86.87-5Z"/>
      <path class="cls-90" d="M64.11,63.16c-.29-.89.27-2.05-.36-3.02.49-1.31,1.67-1.8,2.92-2.26-.55-3.18,2.59-5.32,5.02-2.95l1.08.41c3.29-1.75,10.23-4.95,13-2.96,2.65.38,2.51,1.31-.05,2.02-.64.26-.64.6-.05,1l.03,1c.06,2.63-.6,2.71-1.99.26-1.02,1.98-3.44,4.25-5.89,3.02-.6,1.07-1.25,1.44-1.93,1.12-.87-.02-1.98-.71-2.92-.16-.72.42-1.01,1.63-1.71,2.22-.6-.9-1.97-2.15-2.99-2.56-1.89,1.72-.22,6.81-3.17,5.91-2.76.81-3.36-1.51-1-3.05Z"/>
      <path class="cls-74" d="M66.51,51.88c1.17-.88,2.84-1.04,3.89-2,.66,1.9,2.04,3.61,4.18,2.91,1.58,1.43-1.44,3.09-2.88,2.15-1.8.43-3.48,2.03-5.02,2.95-1.41,2.26-3.45.45-1.87-1.63.64-1.33,1.21-2.95,1.7-4.37Z"/>
      <path class="cls-169" d="M64.8,56.26c.35.8,1.02,1.4,1.87,1.63-.37.5.52,2.13-.45,2.83-.54.39-1.79-.49-2.47-.57-.48-.74-.86-1.57-.95-2.43-.12-1.3,1.49-1.04,2-1.46Z"/>
      <path class="cls-54" d="M102.48,53.58c-.93-.28-.85-.61.13-.97.61-1.29,1.86-2.06,2.91-2.97l1.67-.16c-1.15.27-1.04.67.35,1.21-.27,2.04-.59,4.07-.96,6.08,3.26,1.11,5.39,4.15,6.4,9.13,2.39,2.18,2.83,3.96,1.32,5.34,2.69-.45,3.64,3.63,2.97,5.85,1.22,1.91,1.33,4.51-1.09,2.5-1.71,1.32-2.61,1.32-2.69,0-.87-.32-.84-.67.04-1.04-1.21-.74-1.8-2.24-1.77-4.5l-1.56-4.52c-2.1,1.03-2.73-1.58-1.13-2.94-2.38-1.93-3.8-4.12-4.25-6.55-2.16-.87-2.83-1.98-2.01-3.33-.89-.15-.89-.46-.06-.93-2.44-.34-2.59-1.18-.29-2.2Z"/>
      <path class="cls-70" d="M74.58,52.79l1.83-.53c.26-.79.54-.76.85.04,1.13-2.78,2.69-3.71,5.33-1.95,3.04-2.55,6.84-1.54,10.95-1.35l6,.27c-.78,1.23-2.14.55-3.14.89-.09,2.57-1.04,2.83-2.84.79-2.08,1.86-5.66,3.93-7.79,1.44-4.23,1.16-8.72,1.24-13,3.7-.62-.24-1.37-.7-1.08-1.15,1.28-.3,2.5-.71,2.88-2.15Z"/>
      <path class="cls-162" d="M96.41,50.16c1.89,1.22,4.15,1.59,6.2,2.45-.11.24-.16.7-.13.97-.55.8-.45,1.53.29,2.2l.06.93c3.75,5.67,3.47,7.44-.82,5.29.41,1.91-.38,1.99-1.18.14-1.11,1.3-2.09.48-2.96-2.49-3.94-.26-5.19-3.37-2.01-5.63-1.76-.08-2.07-.58-2.1-2.16-.91-.03-.94-.35-.19-.93.84-.1,1.92-.83,2.84-.79Z"/>
      <path class="cls-67" d="M95.21,40.89c-.58-3.44,9,.93,9.98,1.76,0,1.73,1,4.79-1.15,5.99-2.6,1.45-5.19-.97-6.73-2.52,1.31-2.32,1.41-3.25.3-2.79-2.45-3.86,4.59-.17-.3,2.79-1.01.25-2,.77-2.65,1.01-4.48,1.66.95-3.86.55-6.24Z"/>
      <path class="cls-23" d="M77.18,47.81c1.07-.21,2.12-.3,3.13-.69-1.55-1.65-1.38-3.19-1.02-4.55,1.78,2.2,2.85,5,3.31,7.79-1.43,1.2-3.6,1.54-5.33,1.95-1.87-1.39-2.62-3.43-.08-4.5Z"/>
      <path class="cls-13" d="M106.48,49.61c.89-.34,1.57-1.06,1.9-1.95,2.05-1.34,7.27,1.2,4.17,3.8-.33,1.28-1.89,1.48-2-.05-1.55,2.48-2.49,2.07-3.01-.73-.4-.02-.95.33-1.51.14-.43-.14-.63-.68-.51-1.19.3-.07.68.09.97-.02Z"/>
      <path class="cls-89" d="M82.06,38.34c1.18.54,2.34,1.14,3.33,1.98-.1,1.56-.09,3.28-1.89,4.23-.4-2.56-.86-4.35-1.44-6.22Z"/>
      <path class="cls-106" d="M112.18,46.28c1.5-1.46,4.87-1.36,6.38.11,2.47-1.37,3.84-1.2,4.11.49,1.26-2.26,2.78-3.88,4.57-4.87.01-6.38,1.06-7.13,3.13-2.24,1.24-1.14,1.77-.47,1.61,2.01-.41,1.47.23,4.07-1.17,5.46-2.77,2.74-8.71-.98-13.2,1.87.2,2.44-1.04,3.07-2.91,1.28,1.12,1.77-.61,2.09-2.13,1.07-.46-2.17-2.55-2.81-4.17-3.8-1.48-.9-.73-4.31.51-5.11.49,1.16.16,3.22,1.17,3.85.52.32,1.22-.38,2.12-.12Z"/>
      <path class="cls-30" d="M115.79,36.44c1.83-1.95,2.46-1.24,1.42,1.2.47,4.65,2,6.05,4.59,4.2,1.48.35,1.63,1.49.45,3.42,2.55-.77,2.69.23.41,1.62-3.77-.57-8.2,1.88-10.48-.6.13-1.98-1.72-5.53.27-7.08,1.47-1.14,2.48-1.67,3.34-2.76Z"/>
      <path class="cls-22" d="M77.18,47.81c.17,1.61,1.29,3.19.08,4.5-.22.05-.65.05-.85-.04-1.34-.64-2.81-.49-4.56-1.53,1.1-1.98,3.17-3.2,5.33-2.92Z"/>
      <path class="cls-123" d="M118.85,33.28c1.15-2.34,2-4.67,2.55-6.98l1.41-.3c.26-1.61,1.56-3.06,2.62-4.16,2.22-1.24,2.34,2.71,0,3.16,1.66,1.63.73,6.05-1.94,6.25.91,2.5-1.91,6.1-4.46,5.86.61,2.61-.35,2.73-1.83.54l-1.42-1.2c.83-1.05,2.14-2.19,3.07-3.17Z"/>
      <path class="cls-8" d="M96.92,68.08c.91-1.29.83-2.5-.26-3.65l2.32-.57c-.63-2.38-.4-2.55,1.84-1.72l1.18-.14c2.45-.93,2.6-.87,2.01,1.69,4.4,3.51,4.96,6.13,4.87,11.55-.03,1.91-1.64,7.61-4.05,6.87-1.74-.53-1.9-.9-.31-2.01-1.81.61-3.63-.18-5.46-2.36-.87-2.6-2.05-4.87-3.52-6.81.16-1.4.15-2.29,1.38-2.86Z"/>
      <path class="cls-38" d="M95.42,72.06l.12-1.12c.92-.13,3.35-.59,3.53.74.22,1.59-.45,2.94.25,3.91-.56-.78,6.83,5.11,4.92,4.53.66.2,2.39-.18,2.45-.98-3.28-4.36,6.04-3.01-2.69-15.44.72-2.65,2.41-1.68,5.07,2.9.24.84.37,2.36,1.13,2.94,1.18,3.16,2.29,6.16,3.33,9.01-.13.3.05.72-.04,1.04.3,3.36-5.28,5.09-6.91,5.08-3.53-.41-6.99-2.67-9.08-5.66l-2.09-6.94Z"/>
      <path class="cls-56" d="M85.77,52.39c2.57-.71,4.96-2.3,7.79-1.44l.19.93c2.16.87-1.18,2.14-1.09,1.99.73-1.29,2.54-1.29,3.19.17.82,1.01.84,1.88-.59,3.48,2.86.43,3.76,2.9,5.56,4.63.04,1.07-1.28,1.29-1.84,1.72-.9,2.23-2.1,1.73-1.99-.59.09-1.31-.36-2-1.35-2.06-1.56,2.44-2.84.54-2.31-2.01.03-.17.88,3.35-1.5,1.86l-.94.17c-1.28-.82-2.33-2.45-3.17-4.89-.61,1.58-1.29,1.27-2.03-.93-.86-.33-.83-.66.05-1l.05-2.02Z"/>
      <path class="cls-179" d="M85.71,56.41c-.07-.32-.05-.67-.03-1,.67.05,1.38,1.02,2.03.93,2.17,3.53,3.3,7.15,3.38,10.89-.58.87,1.6,4.58-.86,4.03-1.93.28-1.65-1.3-.07-2-2.59.43-3.3-.88-2.14-3.93-1.26.33-1.63-.65-1.1-2.96-1.67-.17-2.46-4.67-1.21-5.96Z"/>
      <path class="cls-115" d="M95.64,61.21c1.44-.71,1.8.66,1.35,2.06.57.51,1.19.72,1.99.59-.65,1.22-.57,3.52-2.06,4.22.91-5.99-2.98.13-5.09-7.03.79-.84.57-2.26,1.65-3.05,1.11,1.32.57,1.68.62,2.02.1.72,1.21,1.01,1.55,1.19Z"/>
      <path class="cls-115" d="M87.71,56.34c2.41-.34,2.06,3.49,3.17,4.89.87,1.87,1.88,4.48.21,6-.75-4.67-3.72-6.5-3.38-10.89Z"/>
      <path class="cls-35" d="M88.2,69.12c.07-2.04.84-1.28,1.96.14.23.59-.1,1.38.07,2-.64.17-1.74,1.3-1.66,1.99-1.18.62-2.43,1.83-4.39.81,2.23-1.02,3.74-2.68,4.02-4.93Z"/>
      <path class="cls-128" d="M108.72,85.63c.22-.89.56-.91,1.02-.09,1.54-.79,3.33-.48,5.37.93l.74-1.14c.26-.89.61-.89,1.05-.05,1.85-.94,5.82,3.24,3.94,5.04-.51,1.34-.53,3.01-.05,5-2.79,2.55-4.38,2.66-4.77.31l-.63.61c-2.47-2.54-5.04-4.99-7.71-7.35-.23-.02-.59-.05-.78-.18.41-1.13,1.02-2.17,1.82-3.08Z"/>
      <path class="cls-66" d="M113.5,79.59c.85.08,1.99.28,2.59-.16.88-.64,1.24-1.56,1.18-2.34.46-.99.88-1.04,1.23-.06,2.56.15,3.99,4.1,1.16,5.11.74.46.63.74-.29.85-1.09,1.63-1.83,1.29-1.59-.68-1.36-.54-2.33,0-2.89,1.62l-2.33-.45c.96,2.69-.66,3.21-2.83,2.07l-1.02.09c-.56-.58-1.34-.88-2.13-.97-.78-1.74.36-.88,1.95-.84l4.96-4.24Z"/>
      <path class="cls-61" d="M114.14,96.44c.3-.55.92-.82,1.88-.8.96.12,2.99.27,3.04-1.39s-1.7-2.27-2.04-4.29c1.35-.52,2.58.32,3.82.38,1.74-.39,3.1,1.01,3.28,2.62.93-.17,1.22.18.87,1.06l.17,2.37-8,3.75c-.29-.04-.7-.1-.98.01-1.16-.85-1.19-2.75-2.05-3.7Z"/>
      <path class="cls-103" d="M125,94c3.47-1.71,3.51,1.78,1.02,3.82-.21.49-.53.54-.97.19,0,2.46-1.26,3.1-3.8,1.92-.18.9-.51.93-1,.12.2,2.15-1.17,2.19-1.99.24l-1.1-.17c2.56-4.58,7.46-2.8,7.84-6.12Z"/>
      <path class="cls-176" d="M121.17,103.32c-.68-2.15.84-2.62,2.08-.72-.28-2.36,2.09-3.34,4.13-2.95-.45-1.97,1.65-2.67,2.67-.82-.58,4.01-4.92,6.18-8.79,6.12-.21-.51.05-1.14-.1-1.64Z"/>
      <path class="cls-135" d="M118.26,100.29l1.99-.24c1.86.14,2.6,2.31.92,3.27-1.05.39-1.85-.14-2.35-1.05-.34-.61-.52-1.29-.56-1.98Z"/>
      <path class="cls-195" d="M107.67,88.89c5.4.41,4.77,5.77,8.34,6.74-.16.34-.16,1.05-.63,1.35-.34.22-.95-.41-1.24-.55-2.2-2.43-4.97-4.59-6.46-7.54Z"/>
      <path class="cls-189" d="M77.32,69.45c-.74-2.48-.44-2.75,2-1.89,1.21-1.71,3.43-3.19,5.51-2.1.92-.89,1.98-.94,3.19-.13.99,1.13,1.6,2.53,2.14,3.93l-1.96-.14c-3,.96-5.07,4.14-8.75,3.87-1.69-.12-2.33-2.23-2.14-3.53Z"/>
      <path class="cls-35" d="M75.89,60.8c.59-.41,1.31-.86,1.93-1.12,1.96,1.78,1.82,2.13-.83,2.09,4.42,2.07,5.2,4,2.32,5.79-.54.75-1.18,1.46-2,1.89-.29.15-.73.01-1.04.12-.5-2.33-1.78-4.3-3.25-6.79l2.86-1.98Z"/>
      <path class="cls-60" d="M126.76,31.97c2.17-2.85,2.42-6.53.74-11.04-.25.88-.59.88-1,.03-.1-.68-.2-1.82.44-2.01.55-.16,2.12.33,2.8,1.08,1.88,2.08.28,5.46,1.5,7.87,1.02,3.48,1.21,9.27-.87,11.87-1.08-.02-1.04-1.19-1.92-1.95-.89,2.26.46,3.65,1.81,4.77-1.4.26-2.09-.62-3.02-.57-1.94.11-2.52-1.61-.93-2.82-1.95-2.45-2.67-4.58-2.17-6.37l2.62-.86Z"/>
      <path class="cls-50" d="M125.43,21.84c.31-.33.55-.86,1.06-.87l1-.03c.63,1.18,1.06,3.12.14,4-.45,2.65-1.35,2.61-2.2.07.25-.59.86-1.03,1.02-1.73s-.12-1.42-1.02-1.43Z"/>
      <path class="cls-184" d="M77.83,59.69c1.2-1.96,3.76-2.4,5.89-3.02,2.85.94,2.39,4.61-.93,2.88,1.8,5.73-1.62,7.06-5.79,2.23.19-.73.49-1.42.83-2.09Z"/>
      <path class="cls-134" d="M83.72,56.66c.64-.19,1.35-.11,1.99-.26l1.21,5.96c1.1,2.66.43,4.24-1.93,2.07-2.33.77-2.84-.35-1.53-3.36l-.67-1.54c.45-.26,1.36-1.17,1.83-1.61.29-.27-.93-.91-.9-1.27Z"/>
      <path class="cls-70" d="M85.73,54.4l-.05,1c-1.19-.09-2.23.43-4.13-.16,1.23-1.17,2.97-1.93,4.18-.84Z"/>
      <path class="cls-161" d="M102.82,56.71c3.49,2,5.17,6.1,6.25,9.88-.62.16-.97.73-1.77,1.13-.23-2.71-1.25-4.04-3.3-4.03-.82,0-1.58-1.15-2.01-1.69.75-.26,1.74-.3,1.91-.82.13-.4-.18-1.51-.61-1.44-.59.1-1.16,1.13-1.96,1.15s-.66-2.06-.29-3.03c.22-.56.98-1.01,1.77-1.17Z"/>
      <path class="cls-66" d="M110.21,69.53c2.45,1.88,4.58,6.06,3.33,9.01-.39-.23-1.02-.76-1.52-.59-.65.22-.4,1.52-1.5,1.48l-.31-9.91Z"/>
      <path class="cls-85" d="M102.48,53.58l.29,2.2c-2.29.07-4.81-.27-6.3-2.66l6.01.46Z"/>
      <path class="cls-93" d="M93.75,51.88c1.57-.88,1.5,1.41,2.1,2.16-1.26-.07-2.41.41-4.33-.09l2.23-2.07Z"/>
      <path class="cls-144" d="M97.31,46.12c.05-2.74-.35-3.66-1.12-5.03,1.66.37,4.42.29,5,1.65.54,2.43-2.42,3.13-3.89,3.38Z"/>
      <path class="cls-111" d="M122.25,45.27c-1.07-2.81-.4-4.84,2-6.11l-2.06-2.92c1.79-2.76,3.16-1.77,4.12,2.95.21.88,1.3,1.52.93,2.82l-1,3.52c-.33,1.17-2.27,1.55-3.57,1.35l-.41-1.62Z"/>
      <path class="cls-147" d="M123.5,31.25c1.5-1.72,2.37-1.33,3.25.71-1.5,2.23-1.11,4.43-.46,7.23-.94-.71-1.24-1.66-1.51-3.28-1.47.9-.59,2.17-.54,3.25-1.33-1.46-3.39-2.58-5.21-2.05.98-2.29,2.29-4.55,4.46-5.86Z"/>
      <path class="cls-197" d="M125.44,25l2.2-.07c1.31,1.89,1.49,5.89-.88,7.04-1.18.11-2.46.51-3.25-.71.27-2.18,1.07-4.24,1.94-6.25Z"/>
      <path class="cls-35" d="M86.92,62.37c.82.76,1.09,1.87,1.1,2.96-.03.49.43,1.11-.38,2.06-.76-1-1.57-1.93-2.81-1.93-.78-.46-.72-.8.16-1.02.42,0,.97.04,1.4-.2.61-.34.63-1.22.52-1.87Z"/>
      <path class="cls-127" d="M95.64,61.21c-.24-.92,1.06-1.63,1.69-1.17.82.6.59,1.75.58,2.42,0,.4-.29.95-.92.81-.63-.56-1.05-1.3-1.35-2.06Z"/>
      <path class="cls-146" d="M112.57,83.48c2.53-2.16,4.57-1.41,3.28,1.86.48.43,1.53,1.88.83,3.3-2.51.04-5.07-1.58-6.94-3.09.58-1.13,1.97-1.34,2.83-2.07Z"/>
      <path class="cls-159" d="M117.79,82.31l1.59.68c2.03,2.18,3.13,2.86,3.3,2.04,3.02.23,6.03-.14,9.05-.22.85.92.31,1.27-.96,1.03-2.79.33-2.78.66.03,1,1.22-1.85,2.27-2.26,3.15-1.23.78-2.42,1.49-2.09,2.31.1.84.2.89.54.17,1.01l.9,1.98c-2.69,2.29-6.33,2.74-10.92,1.35.17,2.12.22,3.19-2.29,2.9-1.55-.14-2.92-1.07-3.28-2.62l-3.94-5.04c-2.62-1.55-2.08-3.79.9-2.98Z"/>
      <path class="cls-194" d="M117.79,82.31c-.88.72-1.03,1.89-.9,2.98l-1.05.05c-.82-1.03-1.94-1.82-3.28-1.86,1.2-1.02,1.8-2.61,3.98-3.93,1.52,1.11,1.08,2.08,1.24,2.76Z"/>
      <path class="cls-26" d="M119.38,82.99l.29-.85c1.26.67,2.33,1.64,3.01,2.9.06,1.19,1.4.7,2.18,1.76-3.1.83-4.93-1.54-5.48-3.8Z"/>
      <path class="cls-24" d="M126.02,97.83c.21-3.21,1.22-3.83,3.03-1.87l3.99-2.35c.43-2.24,2.37-3.94,5.83-5.09-.89-.17-.88-.49-.04-.95.96-2.32.61-4.68-.24-7-1.11.65-1.26.03-.96-1.2-1.95-.27-2-1.07-.11-1.61,2.16.04,3.94,1.09,4.42,3.72.46,2.53-.11,4.83-.18,6.98-.7,3.74-3.74,5.86-6.64,8.3-1.35,1.13-4.69-.49-5.06,2.08-.93.11-1.86.33-2.67.82-2,1.14-2.85,1.11-2.34-1.64.3-.09.71-.03.97-.19Z"/>
      <path class="cls-62" d="M136.43,86.72c1.28-.4,2.11.54,2.44,1.8.15,3.18-3.14,4.06-5.83,5.09l-3.99,2.35-3.03,1.87c.08-1.37.14-2.91-1.02-3.82-.36-.28-.57-.72-.87-1.06,1.37-.46-.63-2.88-.1-3.96,2.14-2.97,10.56,2.57,12.41-2.26Z"/>
      <path class="cls-16" d="M125.05,98.02c.43.97,2.55.26,2.34,1.64-.78,1.68-2.31,2.73-4.13,2.95-1.06-.31-1.73-1.2-2-2.67,1.06-.99,2.43-1.49,3.8-1.92Z"/>
      <path class="cls-106" d="M120.25,100.06l1-.12c.7-.15,1.47,0,1.84.73.28.55.29,1.29.16,1.93-.7.08-1.43.48-2.08.72-.31-1.09-.7-2.15-.92-3.27Z"/>
      <path class="cls-35" d="M77,61.78c1.38-.49,2.54,1.27,3.95,1.57.9-.82.84-3.22,1.84-3.8.43.04,1.14-.27,1.53-.08,1.47.71-.5,4.18.68,4.97-.13.29.03.78-.16,1.02-1.26,1.69-3.49,3.14-5.51,2.1.18-2.19-1.29-3.94-2.32-5.79Z"/>
      <path class="cls-170" d="M134.39,79.64l.39-1.91,2.73.05.11,1.61c.35,1.49.37,2.91.06,4.23.72,1.32.2,2.69-1.43,2.11-.72.66-1.66-.01-2.31-.1-.93-.63-.86-1.91.21-3.85l.24-2.14Z"/>
      <path class="cls-100" d="M127.63,24.92l-.14-4c.77-2.16,2.18,8.58,1.66,9.71-.53,1.15-1.27,1.22-2.4,1.33,1.26-1.89.95-4.96.88-7.04Z"/>
      <g>
        <path class="cls-180" d="M117.21,37.64l1.83-.54c2.79-3.55,4.51-1.88,5.21,2.05.1,2.22-.42,4.49-2,6.11.13-1.47-.19-2.85-1.44-1.06-1.04.95-1.9,1.99-2.43,1.52-.66-.59-.7-1.58-1.18-2.13-1.92-2.2-1.71-4.26.01-5.95Z"/>
        <path class="cls-198" d="M117.59,41.03c-.73-1.26.26-1.76,1.05-1.77.91-.01,1.38.22,2.02.91.43.46.72,1.49-.05,1.82-1.1.47-2.35.2-3.02-.96Z"/>
      </g>
      <path class="cls-123" d="M131.73,84.82c1.43-1.54.97-3.93,2.66-5.18,2.09,1.57-.16,3.87-.44,5.99-1,.18-2.02,1.35-3.15,1.23-.88-.25-.88-.59-.03-1l.96-1.03Z"/>
      <path class="cls-71" d="M136.43,86.72c-.03-.31-.29-.68-.17-1.01.29-.81.78-1.55,1.43-2.11.25-.88.59-.88,1-.03,1.39.26.65,2.68.14,4l.04.95c-1.22.18-2.31-.55-2.44-1.8Z"/>
      <path class="cls-142" d="M130.76,85.85l.03,1c-1.67-.19-3.45.78-5-.3,2.11-1.22,3.62-.4,4.97-.7Z"/>
      <path class="cls-42" d="M138.69,83.57c-.99-.38-1.32-2.54-.1-3,1.7,2.13,2.31,5.1.24,7l-.14-4Z"/>
      <path class="cls-44" d="M137.62,79.37l.96,1.2.1,3-1,.03c-.48-1.42-1.33-3.08-.06-4.23Z"/>
      <path class="cls-42" d="M133.04,93.61c-.66,1.6-2.39,2.11-3.99,2.35.39-2.11,2.49-1.78,3.99-2.35Z"/>
    </g>
  </g>
</svg>