<?xml version="1.0" encoding="UTF-8"?>
<svg id="Enemy" xmlns="http://www.w3.org/2000/svg" viewBox="0 0 57.6 119.87">
  <defs>
    <style>
      .cls-1 {
        fill: #b18875;
      }

      .cls-2 {
        fill: #941150;
      }

      .cls-3 {
        fill: #bd0663;
      }

      .cls-4 {
        fill: #7c003b;
      }

      .cls-5 {
        fill: #7f2a46;
      }

      .cls-6 {
        fill: #c89a85;
      }

      .cls-7 {
        fill: #f9299c;
      }

      .cls-8 {
        fill: #553623;
      }

      .cls-9 {
        fill: #d0af7f;
      }

      .cls-10 {
        fill: #231109;
      }

      .cls-11 {
        fill: #6b173c;
      }

      .cls-12 {
        fill: #fba2aa;
      }

      .cls-13 {
        fill: #715339;
      }

      .cls-14 {
        fill: #d91a86;
      }

      .cls-15 {
        fill: #750b3e;
      }

      .cls-16 {
        fill: #9c847b;
      }

      .cls-17 {
        fill: #786e6c;
      }

      .cls-18 {
        fill: #50272a;
      }

      .cls-19 {
        fill: #fd35b1;
      }

      .cls-20 {
        fill: #c8b5b1;
      }

      .cls-21 {
        fill: #fe2fad;
      }

      .cls-22 {
        fill: #ad8573;
      }

      .cls-23 {
        fill: #9b1258;
      }

      .cls-24 {
        fill: #d60c77;
      }

      .cls-25 {
        fill: #fb1e99;
      }

      .cls-26 {
        fill: #881c53;
      }

      .cls-27 {
        fill: #c31267;
      }

      .cls-28 {
        fill: #981d61;
      }

      .cls-29 {
        fill: #af1063;
      }

      .cls-30 {
        fill: #edc6b0;
      }

      .cls-31 {
        fill: #523e33;
      }

      .cls-32 {
        fill: #574840;
      }

      .cls-33 {
        fill: #b41c64;
      }

      .cls-34 {
        fill: #e31a82;
      }

      .cls-35 {
        fill: #f1d7e4;
      }

      .cls-36 {
        fill: #8b6f5d;
      }

      .cls-37 {
        fill: #d5a187;
      }

      .cls-38 {
        fill: #624a34;
      }

      .cls-39 {
        fill: #ebd0a2;
      }

      .cls-40 {
        fill: #3e281b;
      }

      .cls-41 {
        fill: #b08a79;
      }

      .cls-42 {
        fill: #de0f7a;
      }

      .cls-43 {
        fill: #a79275;
      }

      .cls-44 {
        fill: #9a2c56;
      }

      .cls-45 {
        fill: #3f2d23;
      }

      .cls-46 {
        fill: #eebd9c;
      }

      .cls-47 {
        fill: #fcb3b2;
      }

      .cls-48 {
        fill: #fb2998;
      }

      .cls-49 {
        fill: #654d3e;
      }

      .cls-50 {
        fill: #c9076d;
      }

      .cls-51 {
        fill: #3c281c;
      }

      .cls-52 {
        fill: #332e2b;
      }

      .cls-53 {
        fill: #eddbb8;
      }

      .cls-54 {
        fill: #78273d;
      }

      .cls-55 {
        fill: #6d162e;
      }

      .cls-56 {
        fill: #3f2a1e;
      }

      .cls-57 {
        fill: #ba8e70;
      }

      .cls-58 {
        fill: #937f5b;
      }

      .cls-59 {
        fill: #eaaf94;
      }

      .cls-60 {
        fill: #57351f;
      }

      .cls-61 {
        fill: #663d2a;
      }

      .cls-62 {
        fill: #b27681;
      }

      .cls-63 {
        fill: #87664d;
      }

      .cls-64 {
        fill: #8d6361;
      }

      .cls-65 {
        fill: #59463f;
      }

      .cls-66 {
        fill: #fd2ba5;
      }

      .cls-67 {
        fill: #483122;
      }

      .cls-68 {
        fill: #7f6344;
      }

      .cls-69 {
        fill: #e1ad89;
      }

      .cls-70 {
        fill: #af0c5e;
      }

      .cls-71 {
        fill: #422e25;
      }

      .cls-72 {
        fill: #d7127b;
      }

      .cls-73 {
        fill: #654532;
      }

      .cls-74 {
        fill: #3d291d;
      }

      .cls-75 {
        fill: #7b684e;
      }

      .cls-76 {
        fill: #66153c;
      }

      .cls-77 {
        fill: #311914;
      }

      .cls-78 {
        fill: #cf0670;
      }

      .cls-79 {
        fill: #382317;
      }

      .cls-80 {
        fill: #8c2059;
      }

      .cls-81 {
        fill: #670e3a;
      }

      .cls-82 {
        fill: #826655;
      }

      .cls-83 {
        fill: #31241c;
      }

      .cls-84 {
        fill: #861c50;
      }

      .cls-85 {
        fill: #870d4d;
      }

      .cls-86 {
        fill: #bb805f;
      }

      .cls-87 {
        fill: #f8229b;
      }

      .cls-88 {
        fill: #31101d;
      }

      .cls-89 {
        fill: #583b30;
      }

      .cls-90 {
        fill: #804e50;
      }

      .cls-91 {
        fill: #b90b64;
      }

      .cls-92 {
        fill: #cab792;
      }

      .cls-93 {
        fill: #630233;
      }

      .cls-94 {
        fill: #45332b;
      }

      .cls-95 {
        fill: #891f52;
      }

      .cls-96 {
        fill: #f533ac;
      }

      .cls-97 {
        fill: #650a37;
      }

      .cls-98 {
        fill: #640436;
      }

      .cls-99 {
        fill: #851d50;
      }

      .cls-100 {
        fill: #a3886e;
      }

      .cls-101 {
        fill: #765a41;
      }

      .cls-102 {
        fill: #961555;
      }
    </style>
  </defs>
  <path class="cls-43" d="M27.25,2.15c1.98,1.31-.6,5.97-2.65,5.84-.23.89-.56.89-.99.06-1.14.25-.65-1.19-.12-2.09.43-1.88,1.75-3.26,3.05-4.61-.1.73-.15.96.7.8Z"/>
  <g>
    <path class="cls-67" d="M9.47,110.15c.5-1.12,1.17-1.47,2.06-.83-1.32,3.39-.94,5.6,1.14,6.63l.1.87c.06,1.77-1.67,2.17-5.21,1.22-1.7-1.41-1.1-3.98-1.1-6.03l1-3c1.83-1.55,2,.59,1.6,2.42-.06.26-.78-1.02.4-1.28Z"/>
    <path class="cls-52" d="M12.77,116.82c1.62.32.9,2.76-.01,2.93-1.01.19-2.65.04-3.42.12-.76-.27-1.19-1.34-1.78-1.83.11-1.17-.58-2.44.3-4.1.98.82.63,2.34,1.48,2.79,1.2.64,2.4.19,3.43.09Z"/>
    <path class="cls-94" d="M10.6,97.96c.89.13.89.42.06.87,1.48.12,1.26.83-.66,2.13.84,2,.33,3.02-1.54,3.06,1.94,2.04,1.95,4.82-1,4-.38-.86-.72-1.86-1-3v-1c1.23-2.45,2.05-5.42,2.02-8.02.28-.9.6-.88.98.02.68-.27,1.06.38,1.13,1.94Z"/>
    <path class="cls-10" d="M7.47,108.01c.87.28.86.62,0,1,0,1.08.25,2.58-1,3v-7c1.25.42,1,1.92,1,3Z"/>
    <path class="cls-68" d="M37.57,4.9c1.04,2.41-.28,3.09-2.08,1.07-2.55,1.12-3.66-.59-1.98-2.83l-1.93-1.14c-2.25-.25-2.96-.92-2.11-1.99,3.47-.12,7.48,1.19,8.1,4.89Z"/>
    <path class="cls-100" d="M38.65,5.87c0,2.27.28,5.13-2.18,6.03-.31,1.9-1.42,1.83-2.05,0-.21.9-.57.93-1.08.13-.77-.1-.43-.67.22-1.19.34-1.77,1.08-3.24,1.94-4.88l2.08-1.07c.38.3.75.62,1.08.98Z"/>
    <path class="cls-58" d="M29.47,0l2.11,1.99c-1.56,1.32-3.87,2.98-4.33.14-1.56,1.6-2.16.99-.7-.8C27.36.52,28.29.05,29.47,0Z"/>
    <path class="cls-56" d="M14.62,103.95c-.85,1.69-1.5,3.31-2.2,5.04-.92,2.29-1.89,4.82.24,6.97-4.57,1.01-.46-7.02-3.2-5.8-1.2-1.19.21-5.15,2.09-4.88-1.69-1.72-1.46-2.29.91-2.25.28-.87.62-.86,1,0,1.37-1.35,1.95-.82,1.16.93Z"/>
    <path class="cls-73" d="M11.55,105.27c-.51,1.71-1.06,3.41-2.09,4.88-.17.61-.08,1.3-.67,1.93-.48-1.58-.56-2.41-1.33-3.07v-1c1.57-.64.91-2.64,1-4,1.3-1,2.47,0,3.09,1.25Z"/>
    <path class="cls-61" d="M18.57,94.2l-1.2,1.69c-.74,2.08-1.69,3.46-2.85,4.14-1.38.99-3.01.08-3.86-1.21l-.06-.87c-.85-1.95.08-5.37,2.01-6,.37-1.05,1.17-.83,2.42.64,2.38-.33,3.56.2,3.54,1.6Z"/>
    <path class="cls-18" d="M12.61,91.96c-.45,2.09-1.96,3.81-2.01,6-.46-.42-1.33-1.21-1.13-1.94.67-2.53.89-5.69,3.29-7.08,1.47-1.14,1.87-.56,1.2,1.75,1.79,1.71.98,2.06-1.35,1.28Z"/>
    <path class="cls-60" d="M14.52,100.03c1.16,1.1.62,1.66-.91.97-.59.75-.97,1.42-1.15,2.01.07.87-.69,1.5-.91,2.25-1.25.86-2.19-.42-3.09-1.25.13-1.93,1.31-3.53,2.19-5.19,1.37.06,2.67.53,3.86,1.21Z"/>
    <path class="cls-102" d="M21.73,86.15c.92-.4,1.16-.15.72.75l-3.88,7.3c-2.19-.08-4.34-.73-5.96-2.25.11-.51.99-.84.95-1.55-.03-.59-.23-1.14-.81-1.47v-1.04c1.25-.89,1.83-2.28,2.59-3.54.27-.43.56-.37.85.09,1.42.36,2.45,1.07,1.97,2.39,1.03-1.62,1.89-2,3.57-.67Z"/>
    <path class="cls-75" d="M23.62,8.05c1.74.73,2.02,3.06,1.38,4.81.79.8.79,1.21-.37,1.22-3-.72-2.09-4.33-2.29-6.91.36-.43.75-.83,1.16-1.21l.12,2.09Z"/>
    <path class="cls-59" d="M42.27,25.87c.28.76.45,1.56.97,2.21,1.18,1.39,1.54,2.67,1.05,3.85,1.12,1.46,1.03,1.8-.99,1.9-.09.89-.37.9-.83.08-1.22,1.86-1.89,1.45-2.05-.72-2.19.38-2.37-.49-.95-2.18-1.55.18-1.89-1.9-1-3-2.29,1.38-3.31,1.35-3.07-.08-2.53-.99-2.49-3.23.27-3.83-.75-1.76.02-1.96,1.25-.44,1.31-2.46,4.04.44,5.35,2.21Z"/>
    <path class="cls-22" d="M38.55,21.85c.99.17,1.94.53,2.76,1.11.19,1.01.59,1.96.95,2.92-2.09-.11-3.24-2.95-5.35-2.21-1.44.17-2.29-1-.45-1.65-.52-1.44,1.11-1.03,2.08-.17Z"/>
    <path class="cls-41" d="M46.33,31.97c.49.79.15,1.11-.87,1.04-1.27.98-1.83.42-1.18-1.08-.72-1.18-1.51-2.47-1.05-3.85,1.96.47,2.11,2.59,3.1,3.89Z"/>
    <path class="cls-65" d="M50.71,36.19c.25,1.27.25,2.59-.15,3.83-1.51.48-2.08.58-1.47-1-2.88.42-3.59-.79-1.62-3-1.13-2.61.12-2.49,2.15-1.06.1.4.79.95,1.09,1.23Z"/>
    <path class="cls-36" d="M49.62,34.96l-2.15,1.06c-1.12-.74-2.54-1.68-2-3,.26-.37.55-.72.87-1.04.72.94,2.98,1.71,3.29,2.99Z"/>
    <path class="cls-86" d="M35.35,15.03c-.58.53-1.29,1.8-1.48,2.57-.17.67.79,1.92,1.47,2.23.52.8.18,1.17-.87,1.19,1.21,1.92-.43,1.96-2.14,1.05-2.55-1.5-4.05-7,.14-7.1-1.94-1.36-1.65-2.34.87-2.94l1.08-.13c1.61.15,1.38,1.73.93,3.11Z"/>
    <path class="cls-5" d="M38.55,21.85l-2.08.17c-.54,1.52-2.5.44-2-1,.26-.42.57-.81.87-1.19,1.18.53,2.95.44,3.21,2.02Z"/>
    <path class="cls-53" d="M36.47,11.91c.17,1.26-.23,2.3-1.12,3.12-.46-.99-.76-2.04-.93-3.11h2.05Z"/>
    <path class="cls-53" d="M33.51,3.14c.52.99,1.58,1.76,1.98,2.83s1.8,2.25,1.34,3.03c-.78,1.34-2.19,1.74-3.28,1.84-.32,1.26-.49,1.31-.39.11-.58,5.68-6.09,1.51-1.55,0-1.52-.48-2.6-.81-4.15.11,4.81,1.06.16,6.14-2.25,1.11-.49-1.02-.23-3.03,1.22-2.09-1.16-4.03,2.49-9.13,7.07-6.96Z"/>
    <path class="cls-9" d="M31.58,2c1.08-.17,1.47.27,1.93,1.14-4.41-.51-5.49,3.29-7.07,6.96-1.24,1.24-1.83-.61-1.83-2.1,1.06-1.87,2.08-3.76,2.65-5.84,1.43-.11,2.9.08,4.33-.14Z"/>
    <path class="cls-39" d="M26.43,10.1l-.75,1.49c-.33.66.2,1.54,1.53,2.64.48-.97.29-2.06.25-3.16,2.45-1.61,3.83-1.65,4.15-.11-.12.74-.42,1.69.45,2.07.48-1.19.57-1.96.85-2.5.12-.23.36-.08.63.31l-.22,1.19c-.18.98-.34,2.06-.87,2.94-1.62,1.67-4.63,3.1-5.63.23-1.33.44-1.94-.35-1.84-2.35l-1.38-4.81.99-.06c.92.42,1.09,1.5,1.83,2.1Z"/>
    <path class="cls-8" d="M44.38,90.16c1.35.27,2.73,1.58,3.08,2.86l1.1-.2.9,8.2c.41.45.77,1.12,1.07,2,1.8-.5,1.61,1.06.18,1.88-.16,1.26-1.02,1.6-1.53.72-.1-.18,3.03-.51.03,2.23.12.89-.13,1.67-.75,2.36l-2,.03c-.44-.13-.85-.29-1.18-.56-.53-.44-1.71-12.23-1.75-13.49-1.35-1.53-2.43-4.58-.86-6-.15-2.66.86-2.56,1.7-.03Z"/>
    <path class="cls-71" d="M46.47,110.24c-.72.01-1.66.33-2.12-.21-.38-.45-.73-1.12-.81-2l-.96-10.95c-.02-.28.06-.57.05-.86.17-.89.48-.88.92-.03,3.22,13.12,2.61,1.43,2.92,14.05Z"/>
    <path class="cls-45" d="M55.38,109.72c1.5-.27,2.61.83,2.08,2.29-1.68,1.3-3.87,1.07-5.89.88l-.17-.73c-1.59-.87-1.24-1.25,1.05-1.15.13-1.27.53-1.9,1.21-1.89,1-1.6,1.69-1.26,1.71.6Z"/>
    <path class="cls-79" d="M49.22,107.85c1.23.39,2.32,1.44,3.25,3.16l-1.05,1.15c-1.25-.16-2.46-.75-2.95-1.95-.2-.42-.72-.99-.63-1.7.06-.42.95-.58,1.38-.66Z"/>
    <path class="cls-88" d="M42.68,90.19c.19,1.99.38,4.06.86,6l-.92.03c-1.64-2.53-1.92-5.35-2.16-8.21,1.93-2.44,4.24-.2,2.22,2.17Z"/>
    <path class="cls-40" d="M17.37,95.89c.18,2.84-1.45,5.48-2.75,8.06l-1.16-.93c-2.31-.46-1.74-.88.15-2.01.3-.27.75-.59.91-.97.67-1.65.78-3.95,2.85-4.14Z"/>
    <path class="cls-80" d="M26.52,81.75c-1.17,1.99-3.05,3.23-4.07,5.15-.19-.3-.43-.56-.72-.75-2.66-.92-2.12-2.19.61-2.16-1.04-2.24.14-2.98,2.35-2.86l.77-1.11c.29-.87.64-.86,1.03,0l.02,1.74Z"/>
    <path class="cls-13" d="M13.62,101l-.15,2.01h-1c-.59-.2-1.78-.05-1.96-.59-.22-.67-.15-2.5.49-2.32.79.8,1.02,1.51,1.47,1.37.49-.15.91-.26,1.14-.48Z"/>
    <path class="cls-78" d="M22.35,83.99l-.61,2.16c-2.85,1.45-3.43,7.06-6.65,5.62-2.54-1.14,2.34-4.8,1.11-7.33.28-1.46,2.28-3.46,3.35-1.53,1.31-2.62,3.07-1.8,2.8,1.08Z"/>
    <path class="cls-85" d="M19.55,80.95c2.65.31,2.54,1.21,0,1.96l-3.35,1.53-.85-.09c.63-1.05,1.34-2.02,1.86-3.14.35-.77,1.42-1.07,1.27-2.19-.12-1.94.64-1.91,1.13.03.97-.14.96.49-.06,1.89Z"/>
    <path class="cls-1" d="M13.62,37.25c3.54.8,1.04,5.54-2.1,3.86-2.72-.79-4.4-2.3-2.62-4.89l3.57-5.19c.09-.32.03-.69.15-1,2.73-1.6,2.8.15.18,5.25l.82,1.98Z"/>
    <path class="cls-17" d="M8.9,36.21c1.28,1.31,1.64,3.33,2.62,4.89-.31.14-.63.19-.96.07-1.52.65-4.19.71-4.24-1.1-1.66.04-5.32-.12-5.84-2.03l-.18-1.02c.84-.13,1.5-1.08,2.58-.93.53.08.91.87,1.81,1.27,1.32.58,3.5-.13,4.21-1.15Z"/>
    <path class="cls-57" d="M32.47,14.98c-1.31,2.19-.07,4.66-.14,7.1-.13.91-.48.96-1.03.19-1.57,2.1-2.79,1.58-1.83-.94-.85-.61-1.82-1.04-2.94-1.3-1.09,1.56-4.22,2.88-4.81.82-1.72-.09-1.47-1.04.76-2.86.38-.28.55-1.37,1.4-.93.56,1.14,1.1.51,1.63-1.9l1.34.05c2.09-.03,3.91-1.77,5.63-.23Z"/>
    <path class="cls-6" d="M17.54,29.93c-.82,2.34-2.18,4.37-4.07,6.09,1.91-.42,2,.39.15,1.23-4.3-.84,2.16-6.77-1-7.23l2.87-7.32,1.14-.16c4.93-3.12,3.06,5.15.91,7.39Z"/>
    <path class="cls-44" d="M21.72,20.84c1.94.57,1.43,1.54-.16,2.5.73,0,.68.23-.02.63,1.37,4.21.43,6.91-2.82,8.09-.39-.46-.78-1.17-1.18-2.13-.63-4.34,2.39-7.19-.91-7.39.45-2.47,4.06-3.51,5.84-4.56l-.76,2.86Z"/>
    <path class="cls-101" d="M26.84,15.21c-.83,1.1-.94,2.5-2.22,3.82-.9-.68-.62-1.43-.75-1.97.28-.99.46-2.01.76-2.99l.37-1.22c.95.46,1.54,1.36,1.84,2.35Z"/>
    <path class="cls-23" d="M46.58,67.64c.34.76-.27,2.9.98,3.05.81,1.28,0,3.47-1.09,4.32.69.26.66.6,0,1-.28.87-.62.86-1,0-1.34-2.65-2-5.65-2-9-2.07-1.35-2.67-3.72-1.78-7.08-2.03.55-2.44-.42-1.22-2.92.2-1.01.76-1.3,1.69-.85,2.73,2.28,3.15,8.65,4.42,11.47Z"/>
    <path class="cls-28" d="M41.45,51.84c.07,1.18.08,3.34.7,4.33-.54.33-1.11.6-1.69.85-.67-.29-.66-.63,0-1-.99-.87-2.23-2.61-2-4-.05-1.84.34-2.2,1.17-1.08.93-1.86,1.32-.91,1.81.9Z"/>
    <path class="cls-20" d="M49.09,39.02c.2.49,1.14.62,1.47,1-2.35,1.79-5.7,1.99-8.6,1.88.05-1.71-2.03-3.4-.22-4.96l1.1-1.1c1.99,1.87,4.07,2.93,6.24,3.18Z"/>
    <path class="cls-4" d="M38.47,28.02c.53,1.71-.3,2.53-2,2,.19,3.16-.81,7.17-1.95,10.09-3.59.31-9.93.24-12.75-1.81-2.06-.42-2.53-2.43-.24-2.89-.96-1.31-.58-1.44,1.13-.36-.15-.88.12-.92.75-.22,3.2.21,6.55.27,10.05.19-.84-.19-.83-.53-.06-1,.41-2.03.27-3.99-.41-5.86l2.4-.22,3.07.08Z"/>
    <path class="cls-27" d="M35.67,24.1c-.51.98.4,3.01-.27,3.83-1.62,1.81.03,4.59-1.99,6.08-2.42.15-2.66-.97-.49-2.13l-2.18-.5c-2.67,1.17-4.14.47-4.4-2.11-.82-1.7.7-1.77,2.2-1.33,1.2-1.82,2.54-3.38,4.02-4.67.93-1.72,3.54-1.38,3.11.82Z"/>
    <path class="cls-89" d="M47.47,36.02c.34,1.06,1.21,1.96,1.62,3-.75.67-1.6,1.48-2.38,1.57-2.69.33-2.39-3.5-4.96-3.65-2.13-.7-1.52-3.05.71-3.02l.83-.08c1.23-.51,2.62.22,4.17,2.18Z"/>
    <path class="cls-35" d="M39.47,31.02c.18.64,1.29,1.28.95,2.18,1.04,1.7.21,3.2-1.8,3.28l-2.17-.37c-1.3-.44-.11-4.23,1.01-5.09,0-2.06,1.62-2.03,2,0Z"/>
    <path class="cls-16" d="M42.47,33.92c-.49.72-.05,2.45-.71,3.02-1.05-.06-2.09-.28-3.13-.46-.02-1.35.76-2.47,1.8-3.28.74.03,1.47.24,2.05.72Z"/>
    <path class="cls-30" d="M45.47,33.02c1.21.68,1.6,1.78,2,3-1.67.03-2.89-1.23-4.17-2.18.18-.62.05-2.01.99-1.9.24.39.79.86,1.18,1.08Z"/>
    <path class="cls-33" d="M39.47,31.02h-2c-.62.75-.95.42-1-1,.25-.87.53-1.49,2-2,1.48.04.73,2.05,1,3Z"/>
    <path class="cls-33" d="M36.47,22.02l.45,1.65-1.25.44c-.83-.81-1.99-1.11-3.11-.82-.96-.24-1.03-.65-.23-1.21.81-.15,1.67-.32,2.14-1.05l2,1Z"/>
    <path class="cls-92" d="M31.61,10.96l-4.15.11c1-1.22,2.41-1.87,3.69-3.14.64,1.44.36,2.22.45,3.03Z"/>
    <path class="cls-76" d="M19.47,59.02c2.44-.17,2.12,5.59,0,6-.12,2.49-.79,3.83-2,4l.06-11.96c0-.7.5-1.16.94-1.04.39.81.72,1.81,1,3Z"/>
    <path class="cls-83" d="M6.31,40.07c2.23,1.34.28,1.62-1.85,1.17-.72-.34-2.97.14-4.13-.85-.63-.54-.26-1.17.13-2.35,2.16.07,4.77-.15,5.84,2.03Z"/>
    <path class="cls-98" d="M19.6,79.05l-1.13-.03c-.42-3.04,1.1-6.51-1-9v-1l2-4c.49.01.96.07,1.34.29.57.33.36,11.96-.2,13.08-.16.31-.55.5-1.01.66Z"/>
    <path class="cls-93" d="M19.47,56.02c2.5,1.5,2.5,1.52,0,3-1.28-.41-.99-1.93-1-3-.01-1.37-.43-2.77-.25-4.09l.25-1.91c2.04-1.63,1.9,4.25,1,6Z"/>
    <path class="cls-32" d="M10.56,41.17c-1.38,1.91-4.52.81-6.09.07.63-.27,2.04-.19,1.85-1.17,1.33.66,2.78.97,4.24,1.1Z"/>
    <path class="cls-74" d="M49.47,91.02c.84,3.02.89,7.2,0,10-2.24-2.14-.06-5.63-2-8-.98-1.04-1.31-2.04-1-3,1.04-1.6,2.04-2.27,3-2,2.86.06,2.73,2.32,0,3Z"/>
    <path class="cls-31" d="M50.47,97.02c.25,1.99-.11,4.02.07,6-1-.14-1.07-1.18-1.07-2v-10c3.57-2.5,4.63,5.39,1,6Z"/>
    <path class="cls-82" d="M50.71,104.9c.41-.03.84.24,1.24.22.88.31.85.66-.03,1.05.59.62.42.9-.46.85.08,2.2-.87,2.56-2.25.84-.26-.94-.86-2.07-.65-3.34.14-.85,1.59.43,2.15.39Z"/>
    <path class="cls-51" d="M53.67,109.12c-.12.78-.52,1.49-1.21,1.89-1.32-.63-2.48-3.1-1-4,.18-.17.37-.6.46-.85,1.08.54,1.08,2,1.75,2.96Z"/>
    <path class="cls-49" d="M52.47,111.01c-2.13.65-2.28-1.81-3.25-3.16.8-.09,1.58-.39,2.25-.84.27,1.36,1.16,2.55,1,4Z"/>
    <path class="cls-50" d="M35.72,57.21c1.17,0,1.8.92.77,1.76l1.56,2.29c3.96.5,4.89,5.29,4.42,8.75l1.02-.22c.44,2.61,1.1,4.68,1.98,6.22h1c-.22,1.12.39,4.32-2.02,4.13-2.12-.16-2.3-3.52-4.1-3.13,0-.31-.19-.81-.38-1.07l-6.01-10.93c-1.13-2.25-1.3-3.88-.5-4.91-.97-1.98-.95-3.33.05-4.06,2-1.91,2.71-1.5,2.21,1.17Z"/>
    <path class="cls-29" d="M30.29,56.39c.88.68,1.17,1.98.08,2.59.72,2.95.16,4.29-1.67,4.04l-.85-.05c.62-2.35.16-.34-1.38,6.05.53,1.19.86,2.86,1,5-.25,2.01.09,4.18-.97,6h-1.03c-.58-5.51-.74-11.08-.48-16.72-2.43-6.16,1.24-12.38,5.3-6.91Z"/>
    <path class="cls-81" d="M33.46,60.11c.94,4.8,6.25,10.59,6.51,15.83l-7.15-10.17c-2.47-.78-3.29-3.05-2.46-6.8-.54-.76-.57-1.81-.08-2.59.19-.91.56-.94,1.08-.15,1.29.18,1.98,1.47,2.09,3.87Z"/>
    <path class="cls-84" d="M27.47,74.02c-1.41-.84-1.31-3.42-1-5,.18-2.49.85-3.49,2-3l-1,8Z"/>
    <path class="cls-78" d="M34.5,45.94c.34-.85.66-.81.97.07,2.22-.98,3.33,3.02,3,5,.13,1.75-.56,1.76-2.05.03,1.02,2.1-1.36,3.9-2.9,5-.24,2.09-1.03,1.89-2.15.19l-1.08.15c-1.31.18-4.09-.53-4.22,1.11-.63,7.93-.68,15.19-.6,22.52-.22.4-.47.77-.77,1.11-1.31-4.74-2.24-10.84-.23-15.11-.68-1.35-1.34-1.71-1.99-1.09,1.63,2.51,1.61,8.84-.03,11.09,1.14,4.47.17,6.11-2.9,4.93l.06-1.89-.13-14.03v-6c0-1,.1-2.01,0-3,.14-.78.48-1.12,1-1,.4-1.63.74-2.53,1.85-1,.67-2.41,1.43-4.7,2.3-6.89-.87-.29-.86-.63,0-1.01-.54-1.66.06-1.7,1.8-.11.09-.9.39-.9.87-.09.66-.53,1.42-.43,2.23-.18-.37-.99-.07-1.26.88-.83,1.35.98,2.45,1.74,4.08,1.04Z"/>
    <path class="cls-42" d="M24.7,81.13c-.11,1.37-1.11,2.36-2.35,2.86-.84-.58-1.84-.76-2.8-1.08v-1.96c1.64-1.13,2.4-3.05,2.9-4.93,1.18.2,1.93,1.9,2.25,5.11Z"/>
    <path class="cls-46" d="M29.47,21.33c-.63,1.16-.65,2.42-.07,3.78,1.78.26.65,1.85-.86,1.97-2.35,2.44-6.8-.82-5.96-3.76l-.22-1.43c1.96-.05,3.35-.67,4.17-1.86.57-.37,1.67-1.32,2.24-.76.61.6.47,1.54.7,2.06Z"/>
    <path class="cls-69" d="M29.47,21.33c.32.73,1.06,1.13,1.83.94.77,1.64-.06,3.28-1.91,2.84-.85-.1-1.76-.43-2.5-1.08s.35-1.69.67-2.44c.29-.69,1.37-.38,1.91-.26Z"/>
    <path class="cls-12" d="M32.56,23.28c-.38,2.19-1.7,4.33-4.02,4.67-.89-.24-.88-.53,0-.88l.86-1.97c.76-.86,1.51-1.76,1.91-2.84l1.03-.19c-.01.41.17.81.23,1.21Z"/>
    <path class="cls-37" d="M22.58,23.31c-.27.88-.61.88-1.02.03.13-.82-.05-1.7.16-2.5,1.65.25,3.38.1,4.81-.82.9,2.13-2.8,1.54-3.94,3.29Z"/>
    <path class="cls-63" d="M17.56,34.01l-4.09,2.01c-.27-2.23,1.94-4.95,4.07-6.09.98.97.92,3.19.01,4.07Z"/>
    <path class="cls-24" d="M26.34,29.28c5.8,2.79,5.21-3.32,6.57,2.61-.64,1.64-1.4,2.61-3.35,2.13-1.38,1.1-4.86,1.94-5.09-.15-.77-1.71-1.37-1.32-1.81,1.18l-1.13.36c-1.52,2.81-4.18-1.46-2.81-3.35l2.82-8.09c1.17,1.84,2.71,3.17,4.62,3.99l.18,1.32Z"/>
    <path class="cls-15" d="M18.72,32.06c0,1.68,1.23,2.92,2.81,3.35-.23.98.16,1.93.24,2.89,2.84.69,2.48,2.38-.39,2.78.75.53.67.86-.24.97-.03,1.89-.83,1.83-1.19-.11.63-1.79-.11-3.63-1.35-4.88-.07-.96-.84-2.14-1.03-3.07-.27-1.29.18-2.76-.01-4.07.38-.2,1.1.43,1.22.78s-.05.88-.05,1.35Z"/>
    <path class="cls-47" d="M28.54,27.07c-.11.25.06.61,0,.88-.67.54-1.42.97-2.2,1.33-2.28-1.1-4.53-2.54-4.8-5.31.07-.15-.01-.44.02-.63l1.02-.03c.63,2.71,3.27,4.06,5.96,3.76Z"/>
    <path class="cls-48" d="M41.68,59.93c1.37,2.11.66,4.9,1.78,7.08.97,3.02.64,4.02-1,3-4.34-14.72-4.45-2.7-5.98-11.04l.76-.65c1.14.73,2.62,1.27,4.44,1.61Z"/>
    <path class="cls-7" d="M39.43,56.03c.28-.88.63-.87,1.04-.01v1c.86.73.67,2.07,1.22,2.92-.13.5.03,1.07-.51,2.13l-4.69-3.09c-.1-.57-.83-1.09-.77-1.76-1-4.28,3.79-1.15,3.3.87-.04.15-1.91-2.56.41-2.05Z"/>
    <path class="cls-34" d="M45.47,76.02c0,.43.41,1.07-.63,2.03l-2.37-8.03c1.22-.46,1.05-1.91,1-3,1.41,2.74,1.91,5.89,2,9Z"/>
    <path class="cls-95" d="M39.64,50.94l-1.17,1.08c-.86-.29-.84-.63,0-1-.99-1.69-1.33-3.86-3-5-1.93-1.28-1.68-3.88.98-4.06,1.36,2.85,2.63,5.87,3.19,8.99Z"/>
    <path class="cls-14" d="M38.47,51.02c.15.25-.09.71,0,1,.92,1.2,2,2.46,2,4h-1.04c-3.25.21-4.91-2.19-3.01-4.97.58-.26,1.43.15,2.05-.03Z"/>
    <path class="cls-11" d="M37.47,31.02l-1.01,5.09c-.4,1.99-.97,3.82,0,5.85-.73,1.23-1,2.64-.98,4.06l-.97-.07-.85-.07c-1.3-.74-1.94-1.82-.9-2.98-1.49-2.06-.53-2.85,1.77-2.79-.13-3.48,1.02-6.81,1.95-10.09.43-.27,1.08.6,1,1Z"/>
    <path class="cls-70" d="M34.52,40.11c.04,1.15-.86,2.22-1.77,2.79-.5.85-1.29.58-2.36-.81-.56.93-1.14.95-1.76.06-.37,2.63-1.05,2.59-2.04-.13-.24,2.52-.41,2.55-2.12.67-2.29,1.45-2.94,1.11-3.09-1.6.1-.91.47-1.86.39-2.78.79-1.43,13.23-.43,12.75,1.81Z"/>
    <path class="cls-96" d="M24.47,33.86c.47.91-.17,1.03-1.06.97l-.75.22c-.76-.86-2.1-1.13-2.07-3.35,1.35-.17,2.99-.68,4.52-.14.66.46-.31,1.88-.64,2.31Z"/>
    <path class="cls-70" d="M29.56,34.02c1.25-1.46,3.38-.91,3.91,1-.29,1.69-10.25.82-10.05-.19-.44-.84.44-.93,1.06-.97,2.09,2.11,3.31-2.04,5.09.15Z"/>
    <path class="cls-87" d="M32.91,31.89l.49,2.13c.07.3.11.7.06,1-1.44.19-2.94.19-3.91-1,.25-.73.76-1.63,1.72-2.24.43-.27.93-.25,1.63.11Z"/>
    <path class="cls-26" d="M20.47,46.02c.28-.87.62-.86,1,0,.47,3.26.14,6.26-1,9-.02.49-.57.91-1,1-.2-1.99.87-4.73-1-6,.18-1.39-.11-2.95,1-4,.28-.87.62-.86,1,0Z"/>
    <path class="cls-77" d="M21.13,42.06c2.88,1.55,2.38,3.11-.66,3.96h-1c-.27-1.4,0-2.75.47-4.07l1.19.11Z"/>
    <g>
      <path class="cls-2" d="M47.62,78.02c.6,4.01.55,7.76-.16,11.26l-.99.74c.58,2.08-.98,1.55-2.08.14l-1.7.03c-.1-1.08-1.68-1.56-2.22-2.17-.57-3.21,2.46-6.05-.02-8.04-.1-.98-.08-1.97-.1-2.96.68-2.31,2.09-1.66,4.24,1.93l-.24-.87c.98.12,1.69-.57,2.12-2.05.06-.32,0-.67,0-1,.28-.87.62-.86,1,0-.11.92.43,2.13.15,3Z"/>
      <path class="cls-38" d="M46.47,90.02c.56.54,1.25.95,1.66,1.73.22.42-.22.97-.66,1.27-1.69.09-2.6-1.41-3.08-2.86l2.08-.14Z"/>
      <path class="cls-99" d="M48.75,81.22c-.25,2.31-.65,4.77.72,6.8-.71,1.05-1.69,1.91-3,2,2.97-5.96-1.27-7.43,1.15-12,.96.6,1.25,2.1,1.13,3.2Z"/>
      <path class="cls-91" d="M45.43,88.67c-1.04.89-2.14-.66-2.11-1.29.06-.99-.5-2.76.69-3.24,1.41,2.76.74.71,1.95-1.16.73,1.4,1.22,4.18-.54,5.69Z"/>
    </g>
    <path class="cls-19" d="M39.43,56.03c-.08,1.05.51,2.34-.58,3.07-1-1.75-1.99-2.93-3.13-1.89-.83-.17-1.45-.87-2.21-1.17-.87-2.18.87-4.11,2.9-5,.68,1.84,2.07,3.28,3.01,4.98Z"/>
    <path class="cls-29" d="M33.52,56.05c.48,1.21-.21,2.82-.05,4.06-.9-1.17-1.47-2.54-2.09-3.87.62-.08,1.53-.44,2.15-.19Z"/>
    <path class="cls-97" d="M28.69,63.02c-.47.59-.13,2.26-.23,3-.74.66-1.8,2.01-2,3-.11-3.4.78-6.67,1.45-10.07,1.43,1.65.22,3.03.77,4.07Z"/>
    <path class="cls-66" d="M24.47,66.02c.17,5.04-.32,10.1.23,15.11-1.29-1.77-1.17-3.69-2.25-5.11l.03-11.09c.57-1.69,1.24-1.33,1.99,1.09Z"/>
    <path class="cls-72" d="M24.63,46.12v1.01c-.2,2.47-.96,4.76-2.31,6.89-.4.52-1.37.57-1.85,1,.15-3.04-.66-6.33,1-9-.6-3.51,3.21-3.06,3.16.1Z"/>
    <path class="cls-21" d="M24.62,47.13l1.78,2.97c-1.77,1.21-2.98,2.49-4.08,3.92.42-1.66-.57-6.14.83-6.72.44-.18.97-.16,1.47-.17Z"/>
    <path class="cls-54" d="M24.47,42.69c1.69-.28,2.34,1.84,1.97,3.32l-1.8.11c-.96-.72-2.21-.9-3.16-.1h-1c.4-1.28.59-2.62.66-3.96.02-.33.21-.65.24-.97,1.08.44,2.19.85,3.09,1.6Z"/>
    <path class="cls-25" d="M24.47,66.02l-1.99-1.09c0-1.83-.28-3,.41-5.69,1.38,1.89,1.5,4.42,1.58,6.78Z"/>
    <path class="cls-3" d="M33.65,45.88l.85.07c-.78,1.16-1.81,2.17-3.71,2.48-.29-1.2-.26-2.37-.36-3.51.1-.94.4-.93.89-.04.81-.94,1.59-.6,2.34,1.01Z"/>
    <path class="cls-90" d="M30.38,42.09c1.61.47,2.3,1.66.93,2.77-.28.04-.63-.07-.89.04-.36.15-.67.51-.88.83-1.86.63-2.4-2.95-.91-3.59.58.04,1.18,0,1.76-.06Z"/>
    <path class="cls-64" d="M27.31,45.91l-.87.09c-.81-1.01-1.47-2.12-1.97-3.32.65-.36,1.37-.72,2.12-.67,1.65.56,1.98,2.83.72,3.9Z"/>
    <path class="cls-62" d="M28.63,42.15c-.13,1.28-.14,2.7.91,3.59-.19.28-.24.94-.75,1.2-.56.28-1.22-.57-1.48-1.02.07-1.34-.09-2.7-.72-3.9l2.04.13Z"/>
    <path class="cls-55" d="M32.75,42.9c.52.92.79,1.93.9,2.98-.87-.07-1.71-.39-2.34-1.01-.1-.98-.39-1.94-.93-2.77.89-.08,1.87-.06,2.36.81Z"/>
  </g>
</svg>