<?xml version="1.0" encoding="UTF-8"?>
<svg id="Enemy" xmlns="http://www.w3.org/2000/svg" viewBox="0 0 120.52 60.06">
  <defs>
    <style>
      .cls-1 {
        fill: #b18875;
      }

      .cls-2 {
        fill: #941150;
      }

      .cls-3 {
        fill: #bd0663;
      }

      .cls-4 {
        fill: #7c003b;
      }

      .cls-5 {
        fill: #7f2a46;
      }

      .cls-6 {
        fill: #c89a85;
      }

      .cls-7 {
        fill: #f9299c;
      }

      .cls-8 {
        fill: #553623;
      }

      .cls-9 {
        fill: #d0af7f;
      }

      .cls-10 {
        fill: #231109;
      }

      .cls-11 {
        fill: #6b173c;
      }

      .cls-12 {
        fill: #fba2aa;
      }

      .cls-13 {
        fill: #715339;
      }

      .cls-14 {
        fill: #d91a86;
      }

      .cls-15 {
        fill: #750b3e;
      }

      .cls-16 {
        fill: #9c847b;
      }

      .cls-17 {
        fill: #786e6c;
      }

      .cls-18 {
        fill: #50272a;
      }

      .cls-19 {
        fill: #fd35b1;
      }

      .cls-20 {
        fill: #c8b5b1;
      }

      .cls-21 {
        fill: #fe2fad;
      }

      .cls-22 {
        fill: #ad8573;
      }

      .cls-23 {
        fill: #9b1258;
      }

      .cls-24 {
        fill: #d60c77;
      }

      .cls-25 {
        fill: #fb1e99;
      }

      .cls-26 {
        fill: #881c53;
      }

      .cls-27 {
        fill: #c31267;
      }

      .cls-28 {
        fill: #981d61;
      }

      .cls-29 {
        fill: #af1063;
      }

      .cls-30 {
        fill: #edc6b0;
      }

      .cls-31 {
        fill: #523e33;
      }

      .cls-32 {
        fill: #574840;
      }

      .cls-33 {
        fill: #b41c64;
      }

      .cls-34 {
        fill: #e31a82;
      }

      .cls-35 {
        fill: #8b6f5d;
      }

      .cls-36 {
        fill: #d5a187;
      }

      .cls-37 {
        fill: #624a34;
      }

      .cls-38 {
        fill: #ebd0a2;
      }

      .cls-39 {
        fill: #3e281b;
      }

      .cls-40 {
        fill: #b08a79;
      }

      .cls-41 {
        fill: #de0f7a;
      }

      .cls-42 {
        fill: #a79275;
      }

      .cls-43 {
        fill: #9a2c56;
      }

      .cls-44 {
        fill: #3f2d23;
      }

      .cls-45 {
        fill: #eebd9c;
      }

      .cls-46 {
        fill: #fcb3b2;
      }

      .cls-47 {
        fill: #fb2998;
      }

      .cls-48 {
        fill: #654d3e;
      }

      .cls-49 {
        fill: #c9076d;
      }

      .cls-50 {
        fill: #3c281c;
      }

      .cls-51 {
        fill: #332e2b;
      }

      .cls-52 {
        fill: #eddbb8;
      }

      .cls-53 {
        fill: #78273d;
      }

      .cls-54 {
        fill: #6d162e;
      }

      .cls-55 {
        fill: #3f2a1e;
      }

      .cls-56 {
        fill: #ba8e70;
      }

      .cls-57 {
        fill: #937f5b;
      }

      .cls-58 {
        fill: #eaaf94;
      }

      .cls-59 {
        fill: #57351f;
      }

      .cls-60 {
        fill: #663d2a;
      }

      .cls-61 {
        fill: #b27681;
      }

      .cls-62 {
        fill: #87664d;
      }

      .cls-63 {
        fill: #8d6361;
      }

      .cls-64 {
        fill: #59463f;
      }

      .cls-65 {
        fill: #fd2ba5;
      }

      .cls-66 {
        fill: #483122;
      }

      .cls-67 {
        fill: #7f6344;
      }

      .cls-68 {
        fill: #e1ad89;
      }

      .cls-69 {
        fill: #af0c5e;
      }

      .cls-70 {
        fill: #422e25;
      }

      .cls-71 {
        fill: #d7127b;
      }

      .cls-72 {
        fill: #654532;
      }

      .cls-73 {
        fill: #3d291d;
      }

      .cls-74 {
        fill: #7b684e;
      }

      .cls-75 {
        fill: #66153c;
      }

      .cls-76 {
        fill: #311914;
      }

      .cls-77 {
        fill: #cf0670;
      }

      .cls-78 {
        fill: #382317;
      }

      .cls-79 {
        fill: #8c2059;
      }

      .cls-80 {
        fill: #670e3a;
      }

      .cls-81 {
        fill: #826655;
      }

      .cls-82 {
        fill: #31241c;
      }

      .cls-83 {
        fill: #861c50;
      }

      .cls-84 {
        fill: #870d4d;
      }

      .cls-85 {
        fill: #bb805f;
      }

      .cls-86 {
        fill: #f8229b;
      }

      .cls-87 {
        fill: #31101d;
      }

      .cls-88 {
        fill: #583b30;
      }

      .cls-89 {
        fill: #804e50;
      }

      .cls-90 {
        fill: #b90b64;
      }

      .cls-91 {
        fill: #cab792;
      }

      .cls-92 {
        fill: #630233;
      }

      .cls-93 {
        fill: #45332b;
      }

      .cls-94 {
        fill: #891f52;
      }

      .cls-95 {
        fill: #f533ac;
      }

      .cls-96 {
        fill: #650a37;
      }

      .cls-97 {
        fill: #640436;
      }

      .cls-98 {
        fill: #851d50;
      }

      .cls-99 {
        fill: #a3886e;
      }

      .cls-100 {
        fill: #765a41;
      }

      .cls-101 {
        fill: #961555;
      }
    </style>
  </defs>
  <g id="TightRomper">
    <path class="cls-42" d="M2.25,34.14c1.24-2.02,5.99.39,5.93,2.44.89.2.91.53.09.98.29,1.13-1.17.69-2.08.19-1.89-.37-3.32-1.64-4.71-2.89.73.08.96.11.77-.73Z"/>
    <g>
      <path class="cls-66" d="M110.81,48.14c-1.14-.46-1.51-1.11-.9-2.03,3.43,1.2,5.63.74,6.58-1.37l.86-.13c1.76-.12,2.23,1.6,1.4,5.16-1.35,1.75-3.94,1.24-5.99,1.31l-3.03-.89c-1.61-1.78.52-2.02,2.36-1.69.26.05-1,.82-1.3-.35Z"/>
      <path class="cls-51" d="M117.35,44.61c.27-1.63,2.73-1,2.93-.09.23,1,.13,2.65.24,3.41-.24.77-1.3,1.24-1.77,1.84-1.18-.07-2.42.66-4.11-.15.79-1.01,2.32-.71,2.74-1.58.6-1.23.11-2.41-.03-3.43Z"/>
      <path class="cls-93" d="M98.58,47.44c.09-.89.39-.9.86-.09.07-1.49.79-1.29,2.16.58,1.97-.91,3.01-.44,3.11,1.43,1.98-2.01,4.75-2.12,4.03.86-.85.41-1.84.78-2.96,1.1l-1,.03c-2.49-1.14-5.49-1.86-8.09-1.74-.91-.24-.9-.57-.01-.98-.29-.67.34-1.07,1.9-1.2Z"/>
      <path class="cls-10" d="M108.74,50.22c.25-.88.59-.88,1-.03,1.08-.04,2.57-.34,3.03.89l-7,.24c.37-1.26,1.89-1.07,2.96-1.1Z"/>
      <path class="cls-67" d="M4.63,23.73c2.37-1.13,3.1.17,1.15,2.04,1.21,2.51-.47,3.68-2.76,2.08l-1.07,1.97c-.17,2.26-.81,2.99-1.92,2.18-.24-3.47.93-7.52,4.6-8.27Z"/>
      <path class="cls-99" d="M5.57,22.62c2.27-.08,5.12-.46,6.11,1.97,1.91.25,1.87,1.36.08,2.05.91.18.95.54.16,1.08-.07.77-.66.45-1.2-.18-1.79-.28-3.27-.96-4.94-1.77l-1.15-2.04c.28-.39.6-.77.94-1.11Z"/>
      <path class="cls-57" d="M.03,32l1.92-2.18c1.38,1.52,3.11,3.76.3,4.32,1.65,1.51,1.06,2.12-.77.73-.86-.78-1.36-1.69-1.44-2.86Z"/>
      <path class="cls-55" d="M104.43,43.21c1.72.79,3.36,1.39,5.11,2.02,2.32.84,4.89,1.72,6.95-.49,1.17,4.53-7,.7-5.68,3.4-1.15,1.24-5.15-.03-4.95-1.91-1.66,1.75-2.23,1.54-2.28-.83-.88-.25-.88-.59-.03-1-1.39-1.32-.89-1.92.89-1.19Z"/>
      <path class="cls-72" d="M105.85,46.23c1.72.45,3.44.94,4.95,1.91.62.15,1.3.04,1.95.61-1.56.54-2.39.65-3.02,1.43l-1,.03c-.7-1.54-2.67-.82-4.03-.86-1.05-1.26-.09-2.47,1.15-3.13Z"/>
      <path class="cls-60" d="M94.55,39.6l1.73,1.14c2.1.67,3.52,1.57,4.24,2.7,1.03,1.35.19,3.01-1.07,3.9l-.86.09c-1.92.92-5.37.1-6.06-1.8-1.06-.33-.87-1.14.56-2.44-.42-2.37.08-3.57,1.48-3.6Z"/>
      <path class="cls-18" d="M92.51,45.63c2.11.38,3.87,1.82,6.06,1.8-.4.48-1.16,1.37-1.9,1.2-2.55-.58-5.72-.69-7.19-3.04-1.19-1.43-.62-1.85,1.71-1.26,1.65-1.84,2.02-1.05,1.32,1.3Z"/>
      <path class="cls-59" d="M100.51,43.44c1.06-1.2,1.64-.67,1,.87.77.56,1.46.92,2.05,1.08.87-.1,1.52.64,2.28.83.9,1.22-.34,2.21-1.15,3.13-1.93-.06-3.57-1.18-5.27-2.01.02-1.38.44-2.69,1.07-3.9Z"/>
      <path class="cls-101" d="M86.39,36.72c-.43-.9-.19-1.15.73-.75l7.44,3.62c0,2.19-.58,4.36-2.04,6.04-.51-.09-.88-.96-1.59-.9-.59.05-1.13.27-1.44.86l-1.04.02c-.94-1.21-2.35-1.74-3.63-2.45-.43-.26-.39-.54.06-.85.31-1.43.98-2.49,2.32-2.05-1.66-.97-2.06-1.82-.8-3.54Z"/>
      <path class="cls-74" d="M8.27,37.56c.67-1.76,2.99-2.12,4.75-1.55.77-.82,1.18-.84,1.23.33-.61,3.02-4.26,2.24-6.82,2.53-.44-.34-.86-.72-1.25-1.12l2.08-.19Z"/>
      <path class="cls-58" d="M25.44,18.31c.75-.31,1.55-.51,2.18-1.04,1.34-1.23,2.61-1.63,3.81-1.19,1.42-1.17,1.76-1.09,1.93.92.89.06.91.34.11.83,1.9,1.15,1.51,1.83-.64,2.07.46,2.18-.41,2.38-2.15,1.03.24,1.55-1.83,1.95-2.96,1.1,1.46,2.24,1.47,3.26.02,3.07-.9,2.57-3.14,2.6-3.84-.14-1.74.81-1.96.04-.48-1.24-2.51-1.23.3-4.05,2.02-5.42Z"/>
      <path class="cls-22" d="M21.54,22.16c.13-1,.46-1.95,1.01-2.8,1-.23,1.94-.66,2.88-1.05-.03,2.09-2.83,3.34-2.02,5.42.22,1.43-.92,2.32-1.63.51-1.42.57-1.06-1.07-.24-2.08Z"/>
      <path class="cls-40" d="M31.39,14.03c.77-.51,1.1-.19,1.07.83,1.03,1.23.49,1.81-1.04,1.22-1.15.76-2.42,1.6-3.81,1.19.4-1.97,2.52-2.2,3.78-3.23Z"/>
      <path class="cls-64" d="M35.45,9.51c1.26-.29,2.58-.34,3.83.01.53,1.49.65,2.06-.95,1.51.52,2.86-.66,3.62-2.94,1.73-2.56,1.22-2.49-.03-1.13-2.11.4-.11.92-.83,1.19-1.14Z"/>
      <path class="cls-35" d="M34.26,10.64l1.13,2.11c-.7,1.15-1.59,2.59-2.93,2.1-.38-.25-.74-.52-1.07-.83.92-.75,1.61-3.04,2.87-3.39Z"/>
      <path class="cls-85" d="M14.83,25.6c.55.56,1.84,1.23,2.62,1.39.68.14,1.89-.85,2.18-1.55.78-.55,1.16-.22,1.22.83,1.88-1.27,1.98.36,1.13,2.1-1.41,2.6-6.85,4.3-7.1.11-1.29,1.99-2.28,1.73-2.97-.76l-.16-1.08c.09-1.61,1.68-1.44,3.08-1.04Z"/>
      <path class="cls-5" d="M21.54,22.16l.24,2.08c1.54.49.53,2.48-.93,2.03-.43-.25-.83-.54-1.22-.83.49-1.19.34-2.96,1.91-3.28Z"/>
      <path class="cls-52" d="M11.68,24.59c1.25-.21,2.31.15,3.16,1.01-.97.49-2.01.83-3.08,1.04l-.08-2.05Z"/>
      <path class="cls-52" d="M3.02,27.85c.98-.56,1.7-1.64,2.76-2.08s2.18-1.87,2.98-1.45c1.37.73,1.82,2.13,1.96,3.21,1.27.28,1.32.44.12.39,5.69.38,1.72,6.03.06,1.55-.42,1.53-.72,2.63.26,4.14.89-4.84,6.13-.38,1.19,2.21-1,.53-3.02.34-2.13-1.15-3.99,1.3-9.21-2.17-7.2-6.82Z"/>
      <path class="cls-9" d="M1.95,29.82c-.2-1.07.22-1.48,1.07-1.97-.35,4.43,3.48,5.38,7.2,6.82,1.28,1.2-.54,1.85-2.04,1.9-1.9-1-3.83-1.95-5.93-2.44-.16-1.42-.03-2.9-.3-4.32Z"/>
      <path class="cls-38" d="M10.22,34.68l1.52.7c.67.31,1.53-.26,2.58-1.62-.98-.45-2.07-.21-3.16-.14-1.69-2.39-1.78-3.77-.26-4.14.74.09,1.71.36,2.06-.53-1.21-.44-1.98-.5-2.53-.76-.23-.11-.1-.35.29-.64l1.2.18c.98.14,2.07.27,2.97.76,1.72,1.56,3.26,4.52.43,5.62.48,1.32-.28,1.96-2.29,1.92l-4.75,1.55-.09-.98c.39-.94,1.46-1.15,2.04-1.9Z"/>
      <path class="cls-8" d="M89.61,13.95c.22-1.35,1.49-2.78,2.75-3.18l-.24-1.09,8.17-1.19c.44-.43,1.09-.81,1.96-1.14-.56-1.78,1.01-1.64,1.88-.24,1.26.11,1.63.96.78,1.5-.17.11-.62-3.01,2.22-.11.88-.15,1.68.07,2.39.67l.1,2c-.12.44-.26.86-.52,1.19-.42.54-12.16,2.13-13.42,2.22-1.48,1.4-4.5,2.58-5.97,1.07-2.65.25-2.59-.78-.09-1.7Z"/>
      <path class="cls-70" d="M109.61,11.16c.04.72.39,1.65-.14,2.12-.44.4-1.09.77-1.97.88l-10.91,1.34c-.28.03-.58-.04-.86-.02-.89-.14-.89-.45-.07-.91,13-3.68,1.34-2.66,13.94-3.41Z"/>
      <path class="cls-44" d="M108.77,2.27c-.32-1.49.74-2.64,2.22-2.16,1.36,1.64,1.2,3.83,1.09,5.85l-.72.19c-.81,1.62-1.21,1.29-1.19-1.01-1.27-.09-1.92-.47-1.94-1.14-1.64-.94-1.31-1.65.54-1.73Z"/>
      <path class="cls-78" d="M107.12,8.5c.34-1.25,1.36-2.37,3.05-3.36l1.19,1.01c-.12,1.25-.66,2.49-1.85,3.01-.41.21-.96.76-1.68.68-.42-.04-.61-.93-.71-1.35Z"/>
      <path class="cls-87" d="M89.69,15.64c1.98-.26,4.04-.53,5.97-1.07l.07.91c-2.47,1.72-5.28,2.1-8.13,2.45-2.5-1.85-.34-4.23,2.09-2.29Z"/>
      <path class="cls-39" d="M96.28,40.74c2.84-.28,5.53,1.25,8.15,2.46l-.89,1.19c-.38,2.32-.82,1.77-2.01-.08-.28-.29-.62-.73-1-.87-1.67-.61-3.97-.64-4.24-2.7Z"/>
      <path class="cls-79" d="M81.83,32.09c2.03,1.1,3.34,2.93,5.29,3.88-.29.2-.54.45-.73.75-.83,2.69-2.12,2.19-2.18-.54-2.2,1.11-2.99-.04-2.94-2.25l-1.14-.73c-.88-.26-.88-.61-.04-1.03l1.74-.08Z"/>
      <path class="cls-13" d="M101.52,44.31l2.01.08.03,1c-.18.6,0,1.78-.52,1.98-.66.24-2.5.23-2.33-.41.77-.81,1.48-1.07,1.32-1.52-.17-.49-.29-.9-.52-1.13Z"/>
      <path class="cls-77" d="M84.21,36.19l2.18.54c1.54,2.8,7.18,3.18,5.85,6.45-1.05,2.58-4.87-2.17-7.37-.85-1.47-.23-3.54-2.16-1.64-3.3-2.67-1.22-1.9-3,.99-2.83Z"/>
      <path class="cls-84" d="M81.27,39.09c.22-2.66,1.12-2.59,1.96-.07l1.64,3.3-.06.85c-1.07-.59-2.06-1.27-3.2-1.74-.78-.33-1.12-1.38-2.23-1.19-1.93.19-1.94-.57,0-1.13-.18-.97.45-.97,1.9-.01Z"/>
      <path class="cls-1" d="M37.8,46.54c.68-3.56,5.5-1.23,3.93,1.96-.69,2.75-2.15,4.48-4.8,2.79l-5.32-3.39c-.32-.08-.69,0-1-.11-1.69-2.68.06-2.8,5.24-.37l1.95-.89Z"/>
      <path class="cls-17" d="M36.93,51.29c1.26-1.32,3.27-1.75,4.8-2.79.15.31.21.63.1.96.7,1.49.86,4.16-.95,4.28.1,1.66.06,5.32-1.82,5.91l-1.01.21c-.16-.83-1.13-1.46-1.02-2.55.06-.53.84-.94,1.21-1.85.54-1.34-.25-3.5-1.3-4.17Z"/>
      <path class="cls-56" d="M14.88,28.48c2.23,1.23,4.66-.1,7.1-.11.92.1.98.45.23,1.02,2.15,1.5,1.68,2.74-.87,1.87-.58.87-.98,1.86-1.2,2.98,1.59,1.04,3.02,4.12.99,4.78-.03,1.73-.99,1.51-2.88-.66-.29-.37-1.39-.51-.97-1.36,1.12-.6.47-1.12-1.95-1.56v-1.34c-.1-2.09-1.9-3.84-.43-5.62Z"/>
      <path class="cls-6" d="M30.35,42.87c2.37.74,4.44,2.03,6.22,3.86-.49-1.89.32-2.01,1.22-.19-.69,4.33-6.84-1.93-7.19,1.25l-7.41-2.62-.2-1.14c-3.29-4.82,5.04-3.23,7.35-1.17Z"/>
      <path class="cls-43" d="M21.12,39.02c.5-1.96,1.49-1.48,2.5.07-.02-.73.2-.69.63,0,4.16-1.52,6.89-.67,8.18,2.54-.45.41-1.14.82-2.08,1.25-4.32.78-7.27-2.14-7.35,1.17-2.48-.36-3.65-3.94-4.76-5.68l2.88.66Z"/>
      <path class="cls-100" d="M15.31,34.1c1.12.79,2.53.85,3.89,2.09-.65.92-1.41.67-1.94.81-1-.25-2.02-.39-3.01-.65l-1.23-.33c.42-.97,1.3-1.59,2.29-1.92Z"/>
      <path class="cls-23" d="M67.03,12.54c.75-.37,2.91.17,3.02-1.09,1.25-.85,3.47-.12,4.36.94.24-.69.58-.68,1-.03.88.25.88.59.03,1-2.6,1.43-5.58,2.2-8.92,2.31-1.28,2.12-3.62,2.8-7.02,2.03.62,2.01-.34,2.45-2.87,1.32-1.02-.16-1.32-.72-.91-1.66,2.19-2.81,8.54-3.45,11.31-4.81Z"/>
      <path class="cls-28" d="M51.41,18.21c1.18-.11,3.34-.2,4.3-.86.35.53.64,1.09.91,1.66-.27.68-.6.68-1,.03-.84,1.02-2.53,2.32-3.93,2.14-1.83.12-2.21-.26-1.12-1.13-1.9-.87-.96-1.29.83-1.85Z"/>
      <path class="cls-20" d="M38.33,11.03c.48-.21.57-1.16.95-1.51,1.87,2.28,2.19,5.63,2.18,8.52-1.71,0-3.33,2.15-4.95.39l-1.13-1.06c1.8-2.05,2.78-4.17,2.96-6.35Z"/>
      <path class="cls-4" d="M27.71,22.03c1.69-.59,2.54.21,2.07,1.93,3.15-.3,7.19.55,10.15,1.6.44,3.58.59,9.92-1.36,12.81-.35,2.08-2.34,2.61-2.88.34-1.28,1.01-1.41.63-.4-1.12-.87.18-.93-.09-.24-.75.09-3.21.04-6.56-.16-10.05-.16.84-.5.85-1,.1-2.05-.33-4-.13-5.84.62l-.31-2.4-.02-3.07Z"/>
      <path class="cls-27" d="M23.9,24.96c1,.48,2.99-.5,3.84.14,1.87,1.55,4.59-.19,6.15,1.78.23,2.42-.88,2.69-2.11.56l-.42,2.19c1.26,2.63.61,4.12-1.96,4.47-1.67.88-1.8-.64-1.4-2.15-1.86-1.13-3.46-2.42-4.81-3.85-1.75-.87-1.5-3.49.71-3.13Z"/>
      <path class="cls-88" d="M35.39,12.76c1.04-.38,1.92-1.28,2.94-1.73.69.73,1.53,1.55,1.65,2.32.42,2.68-3.42,2.51-3.48,5.09-.63,2.16-3,1.63-3.04-.61l-.11-.83c-.55-1.21.13-2.62,2.03-4.24Z"/>
      <path class="cls-16" d="M33.47,17.83c.73.46,2.45-.03,3.04.61-.03,1.05-.21,2.1-.35,3.14-1.34.07-2.49-.68-3.34-1.68,0-.74.19-1.48.64-2.07Z"/>
      <path class="cls-30" d="M32.46,14.86c.64-1.23,1.72-1.66,2.93-2.1.09,1.67-1.13,2.93-2.03,4.24-.63-.15-2.01.02-1.93-.92.38-.25.83-.82,1.04-1.22Z"/>
      <path class="cls-33" d="M30.67,20.93l.07,2c.77.59.45.94-.96,1.03-.88-.22-1.51-.48-2.07-1.93-.01-1.49,2.03-.8,2.96-1.1Z"/>
      <path class="cls-33" d="M21.78,24.24l1.63-.51.48,1.24c-.78.85-1.04,2.02-.71,3.13-.21.97-.61,1.06-1.21.27-.18-.8-.37-1.66-1.13-2.1l.93-2.03Z"/>
      <path class="cls-91" d="M10.9,29.47l.26,4.14c-1.25-.96-1.95-2.34-3.27-3.58,1.42-.69,2.2-.44,3.01-.56Z"/>
      <path class="cls-75" d="M59.35,39.93c-.26-2.43,5.52-2.31,6-.21,2.5.04,3.85.65,4.07,1.86l-11.95.36c-.7.02-1.17-.46-1.07-.9.8-.42,1.79-.79,2.96-1.1Z"/>
      <path class="cls-82" d="M40.88,53.74c1.27-2.27,1.61-.34,1.24,1.8-.32.74.24,2.96-.71,4.16-.52.65-1.16.3-2.35-.05-.01-2.16-.32-4.77,1.82-5.91Z"/>
      <path class="cls-97" d="M79.37,39.1v1.13c-3.01.53-6.54-.87-8.95,1.31l-1,.03-4.07-1.86c0-.49.04-.96.24-1.35.31-.58,11.94-.78,13.08-.26.32.14.52.53.7.98Z"/>
      <path class="cls-92" d="M56.36,40.04c1.41-2.55,1.43-2.55,3-.1-.36,1.29-1.89,1.06-2.96,1.1-1.36.06-2.75.52-4.08.39l-1.91-.19c-1.7-1.98,4.18-2.04,5.96-1.21Z"/>
      <path class="cls-32" d="M41.83,49.46c1.95,1.31.97,4.49.28,6.08-.29-.62-.26-2.04-1.24-1.8.61-1.35.87-2.81.95-4.28Z"/>
      <path class="cls-73" d="M90.29,8.84c2.99-.94,7.16-1.14,9.99-.35-2.06,2.31-5.62.26-7.92,2.28-1,1.01-1.99,1.38-2.96,1.1-1.64-.98-2.34-1.96-2.1-2.93-.04-2.86,2.23-2.81,3-.1Z"/>
      <path class="cls-31" d="M96.25,7.63c1.98-.32,4.02-.03,6-.28-.11,1.01-1.14,1.11-1.96,1.14l-9.99.35c-2.63-3.48,5.23-4.81,5.96-1.21Z"/>
      <path class="cls-81" d="M104.12,7.1c-.04-.41.21-.84.17-1.25.28-.89.63-.87,1.05,0,.6-.61.89-.45.87.43,2.2-.16,2.59.78.91,2.22-.93.29-2.04.93-3.32.77-.85-.11.37-1.61.32-2.16Z"/>
      <path class="cls-50" d="M108.23,4c.78.09,1.5.47,1.94,1.14-.58,1.34-3.02,2.59-3.96,1.14-.17-.18-.61-.35-.87-.43.5-1.1,1.96-1.15,2.89-1.85Z"/>
      <path class="cls-48" d="M110.17,5.14c.72,2.11-1.73,2.34-3.05,3.36-.12-.79-.45-1.56-.91-2.22,1.34-.32,2.51-1.25,3.96-1.14Z"/>
      <path class="cls-49" d="M56.98,23.75c-.04-1.17.86-1.83,1.73-.83l2.24-1.64c.36-3.97,5.12-5.07,8.59-4.72l-.26-1.01c2.59-.53,4.64-1.27,6.15-2.2l-.03-1c1.13.18,4.3-.54,4.2,1.87-.09,2.13-3.44,2.42-2.99,4.2-.31.01-.81.22-1.06.41l-10.71,6.39c-2.21,1.21-3.83,1.43-4.89.68-1.94,1.04-3.3,1.07-4.06.09-1.98-1.93-1.59-2.65,1.09-2.24Z"/>
      <path class="cls-29" d="M56.35,29.21c.65-.9,1.94-1.23,2.58-.17,2.92-.82,4.29-.31,4.1,1.53l-.02.85c-2.37-.54-.34-.15,6.09,1.17,1.17-.57,2.83-.96,4.96-1.17,2.02.18,4.18-.23,6.03.76l.04,1.03c-5.48.78-11.05,1.13-16.69,1.06-6.07,2.64-12.41-.81-7.09-5.05Z"/>
      <path class="cls-80" d="M59.96,25.91c4.77-1.1,10.37-6.62,15.6-7.06l-9.91,7.5c-.69,2.49-2.93,3.39-6.71,2.7-.74.57-1.79.63-2.58.17-.91-.16-.96-.52-.18-1.08.13-1.29,1.4-2.03,3.79-2.23Z"/>
      <path class="cls-83" d="M74.06,31.42c-.79,1.44-3.38,1.43-4.96,1.17-2.49-.09-3.51-.73-3.07-1.89l8.03.72Z"/>
      <path class="cls-77" d="M45.76,25.37c-.86-.31-.84-.63.04-.97-1.05-2.18,2.9-3.43,4.89-3.17,1.74-.19,1.78.5.1,2.04,2.06-1.09,3.94,1.22,5.1,2.73,2.1.17,1.92.97.27,2.14l.18,1.08c.22,1.31-.39,4.11,1.26,4.18,7.95.35,15.2.15,22.52-.19.4.2.79.45,1.14.73-4.69,1.47-10.75,2.62-15.1.76-1.32.72-1.66,1.4-1.02,2.03,2.45-1.72,8.78-1.92,11.08-.36,4.43-1.3,6.1-.39,5.03,2.73h-1.9s-14.02.63-14.02.63l-6,.21c-.99.03-2.01-.03-3,.1-.79-.12-1.13-.44-1.03-.96-1.65-.34-2.56-.65-1.06-1.82-2.43-.58-4.75-1.27-6.97-2.06-.26.88-.6.88-1.01.03-1.64.6-1.7,0-.18-1.8-.9-.06-.92-.36-.12-.87-.56-.64-.48-1.4-.25-2.22-.97.4-1.26.12-.86-.85.94-1.39,1.65-2.51.89-4.11Z"/>
      <path class="cls-41" d="M81.27,33.93c1.37.06,2.4,1.03,2.94,2.25-.55.86-.69,1.87-.99,2.83l-1.96.07c-1.19-1.6-3.14-2.29-5.03-2.73.16-1.18,1.83-1.99,5.03-2.43Z"/>
      <path class="cls-45" d="M21.34,31.26c1.18.59,2.44.57,3.78-.06.2-1.78,1.83-.71,2,.79,2.52,2.27-.58,6.82-3.55,6.08l-1.42.27c-.12-1.96-.79-3.32-2.01-4.1-.39-.56-1.37-1.63-.83-2.21.58-.63,1.52-.52,2.04-.77Z"/>
      <path class="cls-68" d="M21.34,31.26c.72-.35,1.09-1.09.87-1.87,1.61-.82,3.28-.05,2.91,1.81-.07.85-.37,1.77-.99,2.54s-1.7-.29-2.47-.58c-.7-.27-.43-1.36-.32-1.9Z"/>
      <path class="cls-12" d="M23.19,28.1c2.2.31,4.39,1.55,4.81,3.85-.2.89-.5.89-.88.03l-2-.79c-.89-.73-1.81-1.44-2.91-1.81l-.23-1.02c.41,0,.81-.2,1.21-.27Z"/>
      <path class="cls-36" d="M23.56,38.06c.89.24.9.58.06,1.02-.82-.11-1.7.11-2.5-.07.19-1.66-.02-3.38-.99-4.78,2.1-.98,1.64,2.74,3.43,3.83Z"/>
      <path class="cls-62" d="M34.42,42.72l2.15,4.02c-2.22.35-5.01-1.76-6.22-3.86.93-1.01,3.16-1.03,4.07-.16Z"/>
      <path class="cls-24" d="M29.4,34.1c2.59-5.9-3.5-5.09,2.38-6.66,1.67.58,2.65,1.31,2.24,3.28,1.15,1.34,2.11,4.79.02,5.09-1.68.83-1.27,1.42,1.25,1.77l.4,1.12c2.86,1.42-1.31,4.23-3.25,2.93l-8.18-2.54c1.79-1.23,3.07-2.82,3.83-4.76l1.31-.23Z"/>
      <path class="cls-15" d="M32.44,41.62c1.68-.06,2.88-1.33,3.25-2.93.99.2,1.92-.22,2.88-.34.59-2.87,2.29-2.56,2.8.29.51-.77.83-.7.98.21,1.89-.04,1.86.76-.07,1.19-1.81-.57-3.62.24-4.83,1.52-.96.1-2.11.91-3.03,1.14-1.28.31-2.76-.08-4.07.16-.22-.38.39-1.11.73-1.25s.89.01,1.35,0Z"/>
      <path class="cls-46" d="M27.11,31.98c.26.1.6-.08.88-.03.57.65,1.02,1.38,1.4,2.15-1.02,2.31-2.38,4.62-5.14,4.98-.16-.07-.44.03-.63,0l-.06-1.02c2.68-.72,3.95-3.41,3.55-6.08Z"/>
      <path class="cls-47" d="M59.49,17.7c2.06-1.45,4.88-.83,7.02-2.03,2.99-1.07,4-.78,3.03.89-14.56,4.85-2.55,4.54-10.83,6.36l-.68-.73c.69-1.16,1.17-2.66,1.45-4.49Z"/>
      <path class="cls-7" d="M55.67,20.09c-.89-.25-.89-.6-.05-1.04l1-.03c.7-.89,2.05-.74,2.87-1.32.51.11,1.07-.06,2.15.43l-2.93,4.79c-.57.12-1.07.87-1.73.83-4.25,1.15-1.28-3.75.75-3.33.15.03-2.5,2-2.07-.34Z"/>
      <path class="cls-34" d="M75.43,13.36c.43,0,1.06-.44,2.05.56l-7.94,2.64c-.5-1.2-1.95-.98-3.03-.89,2.69-1.51,5.82-2.11,8.92-2.31Z"/>
      <path class="cls-94" d="M50.58,20.06l1.12,1.13c-.26.86-.6.87-1,.03-1.65,1.05-3.81,1.47-4.89,3.17-1.21,1.97-3.82,1.81-4.09-.84,2.8-1.46,5.77-2.83,8.87-3.5Z"/>
      <path class="cls-14" d="M50.7,21.23c.25-.16.71.06,1-.03,1.17-.96,2.39-2.08,3.93-2.14l.05,1.04c.31,3.25-2.03,4.98-4.88,3.18-.28-.57.1-1.44-.1-2.04Z"/>
      <path class="cls-11" d="M30.74,22.92l5.12.83c2,.33,3.85.84,5.85-.2,1.25.69,2.68.91,4.09.84l-.04.97-.04.85c-.69,1.33-1.76,2-2.95,1.01-2,1.56-2.83.63-2.85-1.67-3.47.25-6.84-.78-10.15-1.6-.29-.42.56-1.1.96-1.03Z"/>
      <path class="cls-69" d="M39.93,25.55c1.15-.08,2.25.78,2.85,1.67.86.47.62,1.27-.73,2.39.95.52.99,1.11.12,1.76,2.65.28,2.63.96-.06,2.05,2.52.15,2.56.32.75,2.09,1.52,2.23,1.21,2.9-1.49,3.15-.91-.07-1.87-.4-2.8-.29-1.46-.74-.89-13.21,1.36-12.81Z"/>
      <path class="cls-95" d="M34.04,35.81c.89-.51,1.04.14,1,1.02l.24.75c-.83.79-1.06,2.14-3.28,2.18-.22-1.34-.79-2.97-.3-4.51.44-.67,1.89.25,2.33.56Z"/>
      <path class="cls-69" d="M34.02,30.72c-1.5-1.2-1.03-3.35.86-3.94,1.7.23,1.17,10.21.16,10.05-.82.47-.95-.41-1-1.02,2.04-2.16-2.16-3.24-.02-5.09Z"/>
      <path class="cls-86" d="M31.78,27.44l2.11-.56c.3-.08.7-.14,1-.1.24,1.43.29,2.93-.86,3.94-.74-.22-1.65-.7-2.29-1.64-.28-.42-.29-.92.05-1.64Z"/>
      <path class="cls-26" d="M46.33,39.39c-.88-.25-.88-.59-.03-1,3.25-.58,6.26-.36,9.03.69.49,0,.93.53,1.03.96-1.98.27-4.76-.71-5.96,1.21-1.39-.13-2.95.21-4.03-.86-.88-.25-.88-.59-.03-1Z"/>
      <path class="cls-76" d="M42.35,38.86c1.45-2.94,3.03-2.49,3.98.53l.03,1c-1.39.32-2.75.09-4.08-.33l.07-1.19Z"/>
      <g>
        <path class="cls-2" d="M77.36,11.14c3.99-.74,7.74-.82,11.26-.23l.78.96c2.06-.65,1.59.92.22,2.08l.09,1.7c-1.08.14-1.5,1.74-2.09,2.29-3.19.69-6.13-2.24-8.04.3-.98.14-1.97.15-2.96.2-2.33-.59-1.74-2.03,1.78-4.31l-.86.27c.08-.98-.63-1.67-2.13-2.04-.32-.05-.67.01-1,.03-.88-.25-.88-.59-.03-1,.92.08,2.11-.5,2.99-.26Z"/>
        <path class="cls-37" d="M89.39,11.87c.52-.58.91-1.28,1.67-1.72.41-.24.97.19,1.29.62.15,1.68-1.32,2.64-2.75,3.18l-.22-2.08Z"/>
        <path class="cls-98" d="M80.52,9.9c2.32.17,4.79.49,6.77-.95,1.07.67,1.97,1.62,2.1,2.93-6.06-2.76-7.38,1.53-12.03-.73.57-.98,2.06-1.32,3.16-1.24Z"/>
        <path class="cls-90" d="M88.08,12.95c.93,1.01-.58,2.17-1.22,2.15-.99-.02-2.74.59-3.26-.58,2.71-1.51.68-.76-1.22-1.91,1.37-.77,4.14-1.37,5.7.34Z"/>
      </g>
      <path class="cls-19" d="M55.67,20.09c1.05.04,2.32-.59,3.09.47-1.71,1.06-2.86,2.1-1.78,3.19-.14.84-.82,1.48-1.09,2.24-2.15.95-4.14-.73-5.1-2.73,1.81-.74,3.2-2.18,4.88-3.18Z"/>
      <path class="cls-29" d="M55.89,26c1.19-.53,2.82.12,4.06-.09-1.14.94-2.48,1.56-3.79,2.23-.11-.62-.49-1.51-.27-2.14Z"/>
      <path class="cls-96" d="M63.03,30.58c.6.44,2.27.05,3.01.12.69.72,2.07,1.73,3.07,1.89-3.4.23-6.7-.55-10.11-1.1,1.6-1.48,3.02-.32,4.04-.91Z"/>
      <path class="cls-65" d="M66.17,34.69c5.03-.35,10.1-.03,15.1-.76-1.73,1.35-3.64,1.3-5.03,2.43l-11.08.36c-1.71-.52-1.37-1.19,1.02-2.03Z"/>
      <path class="cls-71" d="M46.28,35.23l1.01-.03c2.47.1,4.79.79,6.97,2.06.53.38.62,1.35,1.06,1.82-3.05-.05-6.3.88-9.03-.69-3.49.72-3.17-3.1,0-3.16Z"/>
      <path class="cls-21" d="M47.29,35.2l2.9-1.88c1.27,1.72,2.59,2.9,4.06,3.94-1.67-.36-6.12.78-6.74-.59-.2-.43-.2-.96-.22-1.46Z"/>
      <path class="cls-53" d="M42.86,35.51c-.34-1.68,1.75-2.41,3.25-2.08l.18,1.8c-.69.98-.82,2.24,0,3.16l.03,1c-1.3-.36-2.64-.5-3.98-.53-.33,0-.65-.18-.98-.21.4-1.09.77-2.22,1.49-3.15Z"/>
      <path class="cls-25" d="M66.17,34.69l-1.02,2.03c-1.83.06-2.99.39-5.7-.22,1.84-1.45,4.36-1.65,6.72-1.81Z"/>
      <path class="cls-3" d="M45.73,26.22l.04-.85c1.18.74,2.24,1.73,2.6,3.63-1.19.33-2.36.34-3.5.49-.95-.06-.94-.37-.08-.89-.97-.78-.66-1.57.93-2.38Z"/>
      <path class="cls-89" d="M42.05,29.61c.42-1.63,1.58-2.36,2.74-1.02.05.28-.05.63.08.89.17.35.53.65.86.85.69,1.83-2.87,2.51-3.56,1.04.02-.58-.05-1.18-.12-1.76Z"/>
      <path class="cls-63" d="M45.98,32.56l.12.87c-.98.85-2.07,1.55-3.25,2.08-.38-.64-.77-1.35-.75-2.09.5-1.66,2.76-2.08,3.87-.86Z"/>
      <path class="cls-61" d="M42.17,31.37c1.28.08,2.71.04,3.56-1.04.28.18.95.21,1.22.71.3.55-.52,1.24-.97,1.52-1.34-.02-2.69.19-3.87.86l.06-2.05Z"/>
      <path class="cls-54" d="M42.78,27.22c.9-.55,1.9-.86,2.95-1.01-.04.88-.33,1.73-.93,2.38-.98.14-1.92.46-2.74,1.02-.11-.89-.12-1.87.73-2.39Z"/>
    </g>
  </g>
</svg>